<?xml version='1.0' encoding='UTF-8'?><svg version='1.1' xmlns='http://www.w3.org/2000/svg'><metadata><rdf:rdf xmlns:rdf="http://www.w3.org/1999/02/22-rdf-syntax-ns#" xmlns:rdfs="http://www.w3.org/2000/01/rdf-schema#" xmlns:dc="http://purl.org/dc/elements/1.1/"> <rdf:description> <dc:creator>MandoCreator</dc:creator> <dc:publisher>https://www.mandocreator.com</dc:publisher> <dc:description>Your Beskar'gam - created by MandoCreator</dc:description> <dc:format>image/svg+xml</dc:format> <dc:type>Image</dc:type> <dc:title>MandoCreator - Ner Berskar'gam</dc:title> <dc:date>2021-10-08T16:23:13.851Z</dc:date> </rdf:description> </rdf:rdf></metadata><svg version="1.1" id="Male" xmlns="http://www.w3.org/2000/svg" xmlns:xlink="http://www.w3.org/1999/xlink" x="0px" y="0px" viewBox="0 -55 169 300" style="fill: white; fill-rule: evenodd; stroke: black; stroke-width: 0.2px; pointer-events: none; position: relative; height: 100%;">
<g id="Extras_Back">
<g id="Back"><path id="Short-Cape-Left_Back" class="option" d="M103.5,24.2c-1.3-3.7-2.5-7.4-2.5-7.4c0.5-1,4-1,5-0.9 c2.3,0.1,5.6,1.2,7.1,2.9c0.8,1,2.5,1,3,2.2c0,0.1,0.5,1.1,0.5,1.1s0.3,2,0.6,4.4c2.4,1.9,4.5,4.4,5.9,7.3 c3.6,7.3,7.2,15.6,10,23.4c2.4,6.7,6.4,13.3,8.9,19.9c2.8,7.5,4.1,12.7,6.5,20.3c2.5,7.9,5.5,14.9,10.2,20.6 c1.8,2.3,4.8,4.2,6,7.1c0.1,0.3,1.1,3.2,1.1,3.2c-0.9,0.4-2.2,0.1-3.2,0.1c-3.7,0.1-11.3-4.2-14.8-2.5c-4.4,2.2-3.9,10.9-8,13.9 c-4.2,3.1-11.4-4.5-16.3-4.5c-4.5,0-3.4,11.9-7.3,14.3c-1.2,0.8-9.2,0.9-9.2,0.7c0.5-2.4,1.4-8.7,0.5-15.6 c-1.1-8.7-1.3-14.6-2.3-23.3c-0.7-5.8-0.1-8.8-1.3-14.5c-1.3-6.3-0.7-13.6-2.4-19.8c-1.7-6.1-1.1-13.2-2.2-19.5 c-1.7-10.1-0.2-28.8,4.1-33.2L103.5,24.2z" style="fill: rgb(79, 79, 79); display: inherit;"/>
</g>
</g>
<g id="Suit">
<g id="Neck-Seal">
<g id="Standard-Neck-Seal" class="option" style="fill: rgb(36, 36, 36); display: inherit;">
<path d="M98,7.5c0-0.9-0.9-1.6-2.1-1.6c0,0-7.8,0.9-11.6,0.9c-3.9,0-11.6-0.9-11.6-0.9c-1.1,0-2.1,0.7-2.1,1.6 s0.9,1.6,2.1,1.6c0,0,7.8,0.9,11.6,0.9C88.2,10,96,9.2,96,9.2C97.1,9.2,98,8.4,98,7.5z"/>
<path d="M98.7,9.4c0-0.9-1-1.7-2.2-1.7c0,0-8.1,0.9-12.2,0.9c-4.1,0-12.2-0.9-12.2-0.9c-1.2,0-2.2,0.8-2.2,1.7 c0,0.9,1,1.7,2.2,1.7c0,0,8.1,0.9,12.2,0.9c4.1,0,12.2-0.9,12.2-0.9C97.8,11.1,98.7,10.4,98.7,9.4z"/>
<path d="M99.5,11.8c0-1-1-1.8-2.3-1.8c0,0-8.6,0.9-12.9,0.9C80,10.9,71.4,10,71.4,10c-1.3,0-2.3,0.8-2.3,1.8 s1,1.8,2.3,1.8c0,0,8.6,0.9,12.9,0.9c4.3,0,12.9-0.9,12.9-0.9C98.5,13.6,99.5,12.8,99.5,11.8z"/>
<path d="M100.3,13.9c0-1-1.1-1.9-2.4-1.9c0,0-9,1-13.5,1s-13.5-1-13.5-1c-1.3,0-2.4,0.8-2.4,1.9s1.1,1.9,2.4,1.9 c0,0,9,1,13.5,1s13.5-1,13.5-1C99.2,15.8,100.3,15,100.3,13.9z"/>
<path d="M101,16.1c0-0.8-1.1-1.4-2.5-1.4c0,0-9.4,0.7-14.2,0.7c-4.8,0-14.2-0.7-14.2-0.7c-1.4,0-2.5,0.6-2.5,1.4 c0,0.8,1.1,1.4,2.5,1.4c0,0,9.4,0.8,14.2,0.8c4.8,0,14.2-0.8,14.2-0.8C99.9,17.5,101,16.9,101,16.1z"/>
<path d="M101,18.4c0-0.8-1.1-1.4-2.5-1.4c0,0-9.4,0.7-14.2,0.7c-4.8,0-14.2-0.7-14.2-0.7c-1.4,0-2.5,0.6-2.5,1.4 c0,0.8,1.1,1.4,2.5,1.4c0,0,9.4,1.4,14.2,1.4c4.8,0,14.2-1.4,14.2-1.4C99.9,19.9,101,19.2,101,18.4z"/>
</g>
</g>
<g id="Flight-Suit" style="fill: rgb(36, 36, 36);">
<path d="M72.8,158.4l-1.5,8.7l-11,53.1c0,0-4.9,3-7.4,3.5s-7.7-0.4-7.7-0.4l3.8-43l2.9-18.4l0.7-7.8 c0,0-2.5-22.8-1.7-34.1c0.8-11.4,6.6-34,6.6-34l26.8,0.6l26.8-0.6c0,0,5.8,22.6,6.6,34c0.8,11.4-1.7,34.1-1.7,34.1l0.7,7.8 l2.9,18.4l3.8,43c0,0-5.3,1.2-7.8,0.7s-7.3-3.7-7.3-3.7l-11-53.1l-1.5-8.7l-11.6-30.3L72.8,158.4z"/>
<g>
<path d="M128.5,43.3l11.9,41.6l1,21.5l-9.5,1.8l-6-20.2l-13.6-33.9l0.7-15.5l2.3-3.7L128.5,43.3z"/>
<path d="M40.3,43.3l13.1-8.4l2.3,3.7l0.5,16L42.8,88l-6,20.2l-9.5-1.8l1-21.5L40.3,43.3z"/>
</g>
</g>
<g id="Sleeves" class="toggle" style="fill: rgb(36, 36, 36);">
<g>
<path d="M111.4,56.1l2.7,5.9c0,0,4.2-3.2,7-4.8c2.8-1.6,4.3-2.6,6.9-3.6c2.5-1,5-1.5,5-1.5l-6-12.2l-5.8-9.7 l-11.5,5.1L111.4,56.1z"/>
<path d="M112.8,59.2c-0.2-0.2,5-4.5,8.6-6.3c3.5-1.8,10.2-3.7,10.2-3.7"/>
</g>
<g>
<path d="M57.3,56.1L54.6,62c0,0-4.2-3.2-7-4.8c-2.8-1.6-4.4-2.6-6.9-3.6s-5-1.5-5-1.5l6-12.2l5.8-9.7L59,35.4 L57.3,56.1z"/>
<path d="M55.9,59.2c0.2-0.2-5-4.5-8.6-6.3c-3.5-1.8-10.2-3.7-10.2-3.7"/>
</g>
</g>
</g>
<g id="Boots">
<g id="Tall_Boots" class="option" style="display: inherit;">
<g id="Bottom_Tall-Boot" style="fill: rgb(23, 23, 23);">
<path d="M106.9,230.3c0,0.1,0.1,0.3,0.1,0.4c1,1.8,3.6,2.4,5.3,2.8c1.3,0.3,2.5,0.7,3.7,1.2c1.6,0.7,2.5,1.9,3.8,3.1 c0.6,0.5,1.3,0.9,1.9,1.3c1.6,1,3.2,1.1,5.1,1.1c2.5,0.1,4.7-0.3,7.2-0.8c2.2-0.5,3.8-0.9,5.6-1.4c0.6-0.2,1.2-0.3,1.6-0.7 l0.3,0.6l0.2,1.6c0,0-2,1.1-4.2,1.6s-6.5,1.2-6.5,1.2l-0.3-0.7l-1,0.2v0.7l-2.4,0.1l-0.5-0.7H126l0.1,0.6c0,0-1.5,0-2.3-0.5 c-0.2-0.2-0.5-0.6-0.5-0.6l-0.6-0.3l0.1,0.6l-2-0.7l-0.1-0.8l-0.6-0.3v0.6l-1.4-1.1l-0.2-0.7l-3.1-1.6l-1.1,0.4l-2.5-0.6 l-0.1-0.5l-0.6-0.3l-0.4,0.4l-1.7-0.7v-0.5l-0.6-0.2l-0.1,0.4l-1.6-1.1L106.9,230.3z"/>
<path d="M61.9,230.3c0,0.1-0.1,0.3-0.1,0.4c-1,1.8-3.6,2.4-5.3,2.8c-1.3,0.3-2.5,0.7-3.7,1.2 c-1.6,0.7-2.5,1.9-3.8,3.1c-0.6,0.5-1.3,0.9-1.9,1.3c-1.6,1-3.2,1.1-5.1,1.1c-2.5,0.1-4.7-0.3-7.2-0.8c-2.2-0.5-3.8-0.9-5.6-1.4 c-0.6-0.2-1.2-0.3-1.6-0.7l-0.3,0.6l-0.2,1.6c0,0,2,1.1,4.2,1.6c2.1,0.5,6.5,1.2,6.5,1.2l0.3-0.7l1,0.2v0.7l2.4,0.1l0.5-0.7h0.8 l-0.1,0.6c0,0,1.5,0,2.3-0.5c0.2-0.2,0.5-0.6,0.5-0.6l0.6-0.3l-0.1,0.6l2-0.7l0.1-0.8l0.6-0.3v0.6l1.4-1.1l0.2-0.7l3.1-1.6 l1.1,0.4l2.5-0.6l0.1-0.5l0.6-0.3l0.4,0.4l1.7-0.7v-0.5l0.6-0.2l0.1,0.4l1.6-1.1L61.9,230.3z"/>
</g>
<g id="Main_Tall-Boot" style="fill: rgb(54, 53, 52);">
<path d="M106.9,216.9c-1.4-4.2-2.5-11-3.4-14.1c-0.6-2.3-3.6-14.9-3.1-16.4c0.5-1.6,19.5-4.9,20.2-3.4 c0.9,2.2,2,24,2.2,27.2c0.1,2.3,0.5,4.7,0.5,7c0.2,1.3,0.5,2.7,1,3.8c1,2.2,1,3.1,2.6,4.7c1.2,1.1,4.1,3.1,5.5,4 c0.6,0.4,1.2,0.6,1.8,0.9h0.1c2.5,0.9,5.3,1.3,6.6,4.1c0.3,0.6,0.6,1.3,0.5,2c-0.1,0.9-1,1-1.8,1.2c-1.9,0.5-3.5,0.9-5.6,1.4 c-2.5,0.6-4.7,0.9-7.2,0.8c-1.9-0.1-3.5-0.1-5.1-1.1c-0.7-0.4-1.3-0.8-1.9-1.3c-1.3-1.2-2.1-2.4-3.8-3.1 c-1.2-0.5-2.4-0.9-3.7-1.2c-1.8-0.4-4.4-1-5.3-2.8c-0.4-1.3,0-2,0.1-3.1l0.1-0.5c0.1-0.7,0.2-1.5,0.3-2.3 c0.1-1.5-0.3-3.1-0.4-4.6c-0.1-0.9-0.1-1.7-0.1-2.6C106.9,217.4,106.8,217.1,106.9,216.9z"/>
<path d="M61.9,216.9c1.4-4.2,2.5-11,3.4-14.1c0.6-2.3,3.6-14.9,3.1-16.4c-0.5-1.6-19.5-4.9-20.2-3.4 c-0.9,2.2-2,24-2.2,27.2c-0.1,2.3-0.5,4.7-0.5,7c-0.2,1.3-0.5,2.7-1,3.8c-1,2.2-1,3.1-2.6,4.7c-1.2,1.1-4.1,3.1-5.5,4 c-0.6,0.4-1.2,0.6-1.8,0.9h-0.1c-2.5,0.9-5.3,1.3-6.6,4.1c-0.3,0.6-0.6,1.3-0.5,2c0.1,0.9,1,1,1.8,1.2c1.9,0.5,3.5,0.9,5.6,1.4 c2.5,0.6,4.7,0.9,7.2,0.8c1.9-0.1,3.5-0.1,5.1-1.1c0.7-0.4,1.3-0.8,1.9-1.3c1.3-1.2,2.1-2.4,3.8-3.1c1.2-0.5,2.4-0.9,3.7-1.2 c1.8-0.4,4.4-1,5.3-2.8c0.4-1.3,0-2-0.1-3.1l-0.1-0.5c-0.1-0.7-0.2-1.5-0.3-2.3c-0.1-1.5,0.3-3.1,0.4-4.6 c0.1-0.9,0.1-1.7,0.1-2.6C61.9,217.4,61.9,217.1,61.9,216.9z"/>
</g>
</g>
</g>
<g id="Gloves">
<g id="Left-Glove">
<g id="Basic_Left_Glove" class="option" style="fill: rgb(54, 53, 52); display: inherit;">
<path d="M137.6,124.1c-0.5,0-1,0-1.6,0.1c-0.4,0.1-0.7,0.2-1,0.3c-1,0.6-0.7,1.8,0.2,2.3c1,0.6,2.6,0,3.1-1.1 C138.5,125.3,137.9,124.5,137.6,124.1"/>
<path d="M135.8,125.2c-0.5,0-1,0-1.6,0.1c-0.4,0.1-0.7,0.2-1,0.3c-1,0.6-0.7,1.8,0.2,2.3c1,0.5,2.6,0,3.1-1.1 C136.7,126.4,136.1,125.6,135.8,125.2"/>
<path d="M134.5,126.6c-0.5,0-1.2,0.1-1.7,0.3c-0.3,0.1-0.7,0.3-1,0.5c-0.9,0.7-0.5,1.9,0.5,2.2 c1.1,0.4,2.6-0.3,2.9-1.5C135.4,127.7,134.5,126.6,134.5,126.6z"/>
<path d="M131.6,110c0,0-1.6,2.1-2,3.7c-0.3,1.1-0.1,3.7-0.5,5.4c-0.4,1.7-0.7,2.7-0.7,2.7s-1.4,2.8-1.1,3.4 c0.2,0.6,1.4,1.2,2.1,0.9c0.9-0.4,1.9-2.4,2.6-3.8c0.7-1.4,1.2-3.4,1.2-3.4s0.9,0.3,1.4,0.7c1.6,1.2,0.9,5,0.9,5 s-0.7,1.3-1.7,2.8c-1.4,2-3.4,3.8-2.1,5.4c1.3,1.5,4.2-2.4,4.2-2.4l2.9-3.7c0,0,3.3-5.4,3.4-6.5c0.1-0.8,0-3.5,0-3.5l-1-10.4 l-5.2,0.4l-4.3,1.4L131.6,110"/>
</g>
</g>
<g id="Right-Glove">
<g id="Basic_Right_Glove" class="option" style="fill: rgb(54, 53, 52); display: inherit;">
<path d="M31.1,124.1c0.5,0,1,0,1.6,0.1c0.4,0.1,0.7,0.2,1,0.3c1,0.6,0.7,1.8-0.2,2.3c-1,0.6-2.6,0-3.1-1.1 C30.3,125.3,30.9,124.5,31.1,124.1"/>
<path d="M32.9,125.2c0.5,0,1,0,1.6,0.1c0.4,0.1,0.7,0.2,1,0.3c1,0.6,0.7,1.8-0.2,2.3c-1,0.5-2.6,0-3.1-1.1 C32.1,126.4,32.7,125.6,32.9,125.2"/>
<path d="M34.2,126.6c0.5,0,1.2,0.1,1.7,0.3c0.3,0.1,0.7,0.3,1,0.5c0.9,0.7,0.5,1.9-0.5,2.2c-1.1,0.4-2.6-0.3-2.9-1.5 C33.3,127.7,34.2,126.6,34.2,126.6z"/>
<path d="M37.1,110c0,0,1.5,2.1,2,3.7c0.3,1.1,0.1,3.7,0.5,5.4c0.4,1.7,0.7,2.7,0.7,2.7s1.4,2.8,1.1,3.4 c-0.2,0.6-1.4,1.2-2.1,0.9c-0.9-0.4-1.9-2.4-2.6-3.8c-0.7-1.4-1.2-3.4-1.2-3.4s-0.9,0.3-1.4,0.7c-1.6,1.2-0.9,5-0.9,5 s0.7,1.3,1.7,2.8c1.4,2,3.4,3.8,2.1,5.4c-1.3,1.5-4.2-2.4-4.2-2.4l-2.9-3.7c0,0-3.3-5.4-3.4-6.5c-0.1-0.8,0-3.5,0-3.5l1-10.4 l5.2,0.4l4.3,1.4L37.1,110"/>
</g>
</g>
</g>
<g id="Biceps">
<g id="Left-Biceps">
<g id="Full-Band_Biceps_Left" class="option" style="display: inherit;">
<path id="Main_Full-Band_Biceps_Left" d="M113.4,60l-0.8-2.3l0.4-13.8c0,0,10.5-3.6,14.1-4.8 c0.7-0.2,1.4,0.1,1.7,0.8c1.3,3.4,5,13.2,5,13.2L113.4,60" style="fill: rgb(43, 218, 227);"/>
<g id="Trim_Full-Band_Biceps_Left" style="fill: rgb(176, 74, 212);">
<path d="M129.5,48.7c1.1,0,2,0.9,2,1.9c0,1.1-0.9,1.9-2,1.9s-2-0.9-2-1.9S128.4,48.7,129.5,48.7"/>
<path d="M133.8,53.1l0.5,1.3c0.1,0.4,0.1,0.8-0.1,1.1s-0.5,0.6-0.8,0.7c-3.7,1.3-14.1,4.7-17.7,6 c-0.7,0.2-1.5-0.1-1.8-0.9l-0.5-1.3L133.8,53.1"/>
</g>
</g>
</g>
<g id="Right-Biceps">
<g id="Full-Band_Biceps_Right" class="option" style="display: inherit;">
<path id="Main_Full-Band_Biceps_Right" d="M55.6,60l0.8-2.3L56,44c0,0-10.5-3.6-14.1-4.8c-0.7-0.2-1.4,0.1-1.7,0.8 c-1.3,3.4-5,13.2-5,13.2L55.6,60" style="fill: rgb(43, 218, 227);"/>
<g id="Trim_Full-Band_Biceps_Right" style="fill: rgb(176, 74, 212);">
<path d="M39.5,48.7c-1.1,0-2,0.9-2,1.9c0,1.1,0.9,1.9,2,1.9s2-0.9,2-1.9S40.6,48.7,39.5,48.7"/>
<path d="M35.1,53.1l-0.5,1.3c-0.1,0.4-0.1,0.8,0.1,1.1s0.5,0.6,0.8,0.7c3.7,1.3,14.1,4.7,17.7,6 c0.7,0.2,1.5-0.1,1.8-0.9l0.5-1.3L35.1,53.1"/>
</g>
</g>
</g>
</g>
<g id="Vest" style="fill: rgb(54, 53, 52);">
<path d="M84.4,20.9c8.4,0,15.3-4.3,15.5-8h0.1l18.3,5.4l13.2,23.9l-2.8,1.2l-13.3-8.6l-2.3,3.7l-1.5,47.4 c0,0-8.7,4.7-13.4,5.3c-3.4,0.5-8.6,0.7-13.7,0.7s-10.3-0.2-13.7-0.7c-4.8-0.6-13.4-5.3-13.4-5.3l-1.5-47.4l-2.3-3.7l-13.3,8.6 l-2.8-1.2l13.2-23.9L69,12.9h0.1C69,16.6,75.9,20.9,84.4,20.9"/>
</g>
<g class="swappable" id="Chest">
<g id="Chest_Galaxy" style="visibility: visible;">
<g id="Abdomen_Galaxy">
<path id="Abdomen-Plate_Galaxy" d="M77.5,73l-2.1,1.5L65,73l-0.8-5.8l5-0.1l3-4.9l1.4-4.5l10.9-10l10.9,10l1.4,4.5 l3,4.9l5,0.1L104,73l-10.5,1.5L91.4,73H77.5" style="fill: rgb(176, 74, 212);"/>
<path id="Trauma-Plate_Abdomen_Galaxy" class="toggle" style="fill: rgb(43, 218, 227);" d="M84.4,50L75,58.6l-1.3,4.3l-3.6,5.9l-4,0.1l0.4,2.7l8.5,1.2 l2-1.4h14.9l2,1.4l8.5-1.2l0.4-2.7l-4-0.1l-3.6-5.9l-1.3-4.3L84.4,50"/>
</g>
<g id="Full-Chest_Galaxy">
<path id="Chest-Plate_Galaxy" d="M80.1,33.2v10.1l3.2,3.2L72.1,57.2l-1.5,4.9L68.2,66h-4.1l-2-2.9l-2.5-14.2 l-3.7-5.8l4.7-15.2l5.4-0.7l0.8-3.4l5.8-0.7l1.8,3h20l1.8-3l5.8,0.7l0.8,3.4l5.4,0.7l4.7,15.2l-3.7,5.8l-2.5,14.2l-2,2.9h-4.1 l-2.4-3.9l-1.5-4.9L85.5,46.6l3.2-3.2V33.3l-4.4-3.4L80.1,33.2" style="fill: rgb(176, 74, 212);"/>
<path id="Trauma-Plating_Left-Chest_Galaxy" class="toggle" style="fill: rgb(43, 218, 227);" d="M95.4,27.8H84.6l5.9,4.6v11.7L88,46.6l10.2,9.7l1.5,5.1 l1.8,2.9h2.3l1.3-1.9l2.5-14.2l3.5-5.4L107,29.4l-5.5-0.7l-0.8-3.4l-3.5-0.4L95.4,27.8"/>
<path id="Trauma-Plating_Right-Chest_Galaxy" class="toggle" style="fill: rgb(43, 218, 227);" d="M71.8,24.9l-3.5,0.4l-0.8,3.4L62,29.4l-4.1,13.4l3.5,5.4 l2.5,14.2l1.3,1.9h2.3l1.8-2.9l1.5-5.1L81,46.6l-2.5-2.5V32.4l5.9-4.6H73.5L71.8,24.9"/>
<g id="Accents_Chest-Plate_Galaxy" class="toggle" style="fill: rgb(176, 74, 212);">
<path d="M104.7,31h-9.2v1.2h9.2V31"/>
<path d="M104.7,33.2h-9.2v1.2h9.2V33.2"/>
</g>
</g>
<g id="Iron-Heart_Galaxy">
<path id="Heart_Galaxy" d="M81.8,43.1V34l2.7-2.1l2.7,2.1v9.1l-2.7,2.7L81.8,43.1" style="fill: rgb(176, 74, 212);"/>
<path id="Center_Heart_Galaxy" class="option" d="M85.4,35.4h-1.9v6.2h1.9V35.4" style="fill: rgb(43, 218, 227); display: inherit;"/>
</g>
<g id="Neck-Armor_Galaxy">
<g id="Neck-Plate_Galaxy" style="fill: rgb(176, 74, 212);">
<path d="M82.2,25.1l-7.3,0.1l-1.8-3l-7,0.8l-0.7,3.2l-4.5,0.6l-3.3-11.4L69.1,12c0,0,1.5,2.6,2.6,3.5 c1.1,0.9,2.6,2,4.1,2.6c1.5,0.7,3.4,1.1,5.2,1.4c0.2,0,0.4,0.1,0.6,0.1L82.2,25.1"/>
<path d="M86.7,25.1l7.3,0.1l1.8-3l7,0.8l0.7,3.1l4.5,0.6l3.3-11.4l-11.5-3.4c0,0-1.5,2.6-2.6,3.5 c-1.1,0.9-2.6,2-4.1,2.6c-1.5,0.7-3.4,1.1-5.2,1.4c-0.2,0-0.4,0.1-0.6,0.1L86.7,25.1"/>
</g>
<g id="Trauma-Plates_Neck_Galaxy" class="toggle" style="display: none; fill: rgb(255, 255, 255);"/>
</g>
</g>
</g>
<g id="Chest-Attachments">
<g id="No-Device_Accessories_Chest" class="option" style="display: inherit;">
</g>
</g>
<g id="Collar">
<g id="Cloth-Wrap-Right_Collar" class="option" style="display: inherit;">
<g id="Main_Cloth-Wrap-Right_Collar" style="fill: rgb(79, 79, 79);">
<path d="M94.3,21.9c5-1.6,5.9-4.1,6.2-6.6c0.1-1-1.3-3.7,0.2-4.4c1.7-0.8,5.8,0.4,7.4,0.8c1.2,0.3,2.3,0.6,3.6,0.6 c2.9,0,5.2,2,5.5,3.4c0.4,2-3.2,2.8-4.9,4.3c-4.2,3.9-5.7,9.1-14.6,10.6c-4.1,0.7-8.1-0.3-11.9-1.1c-9.8-2.2-15.1-4.1-21.4-8.9 c-2.8-2.1-6.9-3.9-6.8-6.7c0-0.1,2-1.3,2.2-1.4c1.8-0.4,3.3-1.2,5.2-1.2c1.2,0,1,1,1.1,1.4c0.3,1.7,1.9,3,3.9,4.4 C75.1,20.5,87.1,21.6,94.3,21.9"/>
<path d="M94.3,21.9c1.3,0,2.5,0.3,3.5,0.3c4.5,0.3,6.2-0.8,7-2.9"/>
<path d="M108.4,11.7c1.3,2.1,1.1,4.7,0.1,6.3"/>
<path d="M70.3,17.8c3.4,4.7,8.5,6.1,14,6.7"/>
<path d="M61.1,12.1c0.2,1.2,0.9,1.6,1.8,2.4c0.5,0.5,1.1,0.8,1.5,1.3c0.1,0.2,0.2,0.4,0.3,0.7"/>
</g>
<path id="Buckle_Cloth-Wrap-Right_Collar" d="M71.4,17l-2.9-2.1l-5,7l2.9,2.1L71.4,17" style="fill: rgb(186, 186, 186);"/>
</g>
</g>
<svg version="1.1" id="Helmets" xmlns="http://www.w3.org/2000/svg" y="-54px" height="85px" viewBox="0 0 80 80" class="swappable">
<g id="Helmet_Nite" style="visibility: visible;">
<g id="Left-Earcap_Nite" class="toggle">
<g id="Ear-Cap_Left_Nite" style="fill: rgb(176, 74, 212);">
<path d="M59.9,57l1.7-2.6l-1.7-17.8l-2.4-1.5L59.9,57z"/>
<path d="M58.1,41.4l2-2.1"/>
</g>
</g>
<g id="Right-Earcap_Nite" class="toggle">
<g id="Range-Finder_Right_Nite" class="option" style="display: inherit;">
<path id="Shaft_Right_Range-Finder_Nite" d="M22.5,9.7l1.1,0.1L22,36.7h-1.1L22.5,9.7z" style="fill: rgb(79, 79, 79);"/>
<path id="Finder_Right_Range-Finder_Nite" d="M30.8,7.6h-6L25,6.9l7-0.7L30.8,7.6" style="fill: rgb(79, 79, 79);"/>
<g id="Cover_Right_Range-Finder_Nite" style="fill: rgb(176, 74, 212);">
<path d="M21.6,8.6l2.8,0.2l0.6-2l7.5-0.7l0.1-0.8L22,5l-1,1.3L21.6,8.6"/>
<path d="M22.4,8.6l1.4,0.1l-0.1,1.1l-1.4-0.1L22.4,8.6"/>
</g>
</g>
<g id="Ear-Cap_Right_Nite" style="fill: rgb(176, 74, 212);">
<path d="M20.1,57l-1.7-2.6l1.7-17.8l2.4-1.5L20.1,57z"/>
<path d="M21.9,41.4l-2-2.1"/>
</g>
</g>
<g id="Helmet_Pieces_Nite">
<g id="Face_Nite" style="fill: rgb(176, 74, 212);">
<path d="M21.3,45c0.2,0.1,5,2.6,7.7,6.1c4.7,6.3,7.6,13.7,7.9,14.5c-1.6-0.1-3-0.3-3.6-0.5 c-2.9-1.1-11.2-6.4-11.2-6.4L20,57L21.3,45"/>
<path d="M58.7,45c-0.2,0.1-5,2.6-7.7,6.1c-4.7,6.3-7.6,13.7-7.9,14.5c1.6-0.1,3-0.3,3.6-0.5 c2.9-1.1,11.2-6.4,11.2-6.4L60,57L58.7,45"/>
</g>
<g id="Cheeks_Nite" style="fill: rgb(43, 218, 227);">
<path d="M21.3,45l0.5-4.3c0,0,5.4,3.2,7.2,4.9c1.8,1.7,4.4,4.3,4.9,6.8c0.8,3.3,3.1,13.2,3.1,13.2h-0.1 c-0.3-0.8-3.2-8.2-7.9-14.5C26.4,47.7,21.7,45.2,21.3,45"/>
<path d="M58.7,45l-0.5-4.3c0,0-5.4,3.2-7.2,4.9c-1.8,1.7-4.4,4.3-4.9,6.8C45.4,55.7,43,65.6,43,65.6h0.1 c0.3-0.8,3.2-8.2,7.9-14.5C53.6,47.7,58.3,45.2,58.7,45"/>
</g>
<path id="Visor_Nite" d="M38.8,65.6l-2.3-22c0,0-4.1-0.4-6-0.7C25.9,42,23,38.3,23,38.3s5.2-0.5,7.8-0.2 c7.1,0.8,7.9,4,9.1,5.2c1.2-1.2,2-4.5,9.1-5.2c2.6-0.3,7.8,0.2,7.8,0.2S54,42,49.4,42.8c-1.9,0.4-6,0.7-6,0.7l-2.3,22L38.8,65.6" style="fill: rgb(228, 12, 221);"/>
<path id="Eyes_Nite" d="M40,36.6c0,0,6.5,0,9.2-0.2c2.9-0.2,8.5-0.5,8.5-0.5l0.5,4.7c0,0-5.4,3.2-7.2,4.9 s-4.4,4.3-4.9,6.8C45.4,55.7,43,65.6,43,65.6h-1.8l2.3-22c0,0,4.1-0.4,6-0.7c4.6-0.9,7.5-4.6,7.5-4.6s-5.2-0.5-7.8-0.2 c-7.1,0.8-7.9,4-9.1,5.2c-1.2-1.2-2-4.5-9.1-5.2c-2.6-0.3-7.8,0.2-7.8,0.2s2.9,3.7,7.5,4.6c1.9,0.4,6,0.7,6,0.7l2.3,22h-2 c0,0-2.3-9.9-3.1-13.2c-0.6-2.5-3.1-5.1-4.9-6.8c-1.8-1.7-7.2-4.9-7.2-4.9l0.5-4.7c0,0,5.7,0.3,8.5,0.5 C33.5,36.6,38.9,36.6,40,36.6" style="fill: rgb(176, 74, 212);"/>
<path id="Dome_Nite" d="M22.3,35.9v-0.1c0.1-9.3,7.9-16.8,17.6-17h0.4c9.7,0.2,17.5,7.7,17.6,17v0.1 c-0.4,0-5.8,0.3-8.5,0.5c-2.7,0.2-8.1,0.2-9.2,0.2c-1.1,0-6.5,0-9.2-0.2C28,36.2,22.3,35.9,22.3,35.9z" style="fill: rgb(43, 218, 227);"/>
</g>
</g>
</svg>
<g id="Shoulders">
<g id="Left-Shoulder">
<g id="Gunslinger-Bell_Shoulder_Left" class="option" style="display: inherit;">
<path id="Main_Gunslinger-Bell_Shoulder_Left" d="M113.2,16c6.1-0.1,19.8,4.8,19.2,22.2l-0.1,3.5l-11.9,4.9l-10.4-14 V16H113.2" style="fill: rgb(43, 218, 227);"/>
<path id="Ridge_Gunslinger-Bell_Shoulder_Left" class="toggle" d="M110,16v-2c13-0.1,25.4,5.5,24.4,27.1l-2,0.5 c0-0.3,0-0.5-0.1-0.8l0.1-2.6c0.5-17.5-13.1-22.4-19.2-22.2h-0.7C111.1,15.8,110.2,15.9,110,16" style="fill: rgb(176, 74, 212);"/>
<g id="Trim_Gunslinger-Bell_Shoulder_Left" class="toggle" style="fill: rgb(176, 74, 212);">
<path d="M113.2,15.2H110v17.4h3.2V15.2"/>
<path d="M113.2,31.6l-3.2,1.1l10.4,14l2.5-1.9L113.2,31.6"/>
<path d="M121.5,42.7l-1.1,3.9l12.5-5.1v-3.4L121.5,42.7"/>
</g>
</g>
</g>
<g id="Right-Shoulder">
<g id="Classic_Shoulder_Right" class="option" style="display: inherit;">
<path id="Main_Shoulder_Classic_Right" d="M52.5,13.4L55,24.8l-2,6.5l-13.4,6.8l-2.3-3.5L52.5,13.4" style="fill: rgb(43, 218, 227);"/>
<path id="Trauma-Plates_Shoulder_Classic_Right" class="toggle" style="display: none; fill: rgb(255, 255, 255);" d="M53.2,24.7l-1.7,5.4l-11.4,5.8l-1.9-3l12.8-18 L53.2,24.7"/>
</g>
</g>
</g>
<g id="Gauntlets">
<g id="Left-Gauntlets">
<g id="Basic_Gauntlet_Left" class="option" style="display: inherit;">
<path id="Top-2_Basic_Gauntlet_Left" d="M144.3,107.5l1.4-2.2L141.8,87l-0.6,2.2l1.8,8.3l-0.7,2.1L144.3,107.5" style="fill: rgb(176, 74, 212);"/>
<path id="Top-1_Basic_Gauntlet_Left" d="M141.8,87.1l-0.6,2.2l1.8,8.3l-0.7,2.1l2,7.9l-0.9,1.4l0.5,5.1l-1.6,0.4 l-2.1-7.7l-1.5-0.5L132,83.9l8.9-0.9L141.8,87.1" style="fill: rgb(43, 218, 227);"/>
<g id="Accent-Bottom_Basic_Gauntlet_Left" style="fill: rgb(176, 74, 212);">
<path d="M128.7,90.6l-2,0.6l1,2.9l2-0.6L128.7,90.6"/>
<path d="M130.3,95.7l-2,0.6l1,2.9l2-0.6L130.3,95.7"/>
<path d="M132.1,100.9l-2,0.6l1,2.9l2-0.6L132.1,100.9"/>
</g>
<path id="Bottom_Basic_Gauntlet_Left" d="M126.7,91.2L126,89l6.2-4.8l6.6,22.1l-6.7,1.2l-2.7-8.2l2-0.6l-1-2.9 l-1.9,0.6l-0.7-2.2l2-0.6l-1-2.9L126.7,91.2 M132.1,100.9l-2,0.6l1,2.9l2-0.7L132.1,100.9" style="fill: rgb(43, 218, 227);"/>
<g id="Whistling-Birds_Attachment_Basic_Gauntlet_Left" class="option" style="display: inherit;">
<path id="Head_Whistling-Birds_Attachment_Basic_Gauntlet_Left" d="M147.2,97.6l-1.9,5.6l-1.1-5L147.2,97.6" style="fill: rgb(176, 74, 212);"/>
<g id="Birds_Whistling-Birds_Attachment_Basic_Gauntlet_Left" style="fill: rgb(0, 0, 0);">
<path d="M144.7,98.5c0.1,0,0.3,0.2,0.3,0.5c0.1,0.3,0,0.6-0.1,0.6c-0.1,0-0.3-0.2-0.3-0.5 C144.6,98.8,144.6,98.6,144.7,98.5"/>
<path d="M145.1,100.1c0.1,0,0.3,0.2,0.3,0.5c0.1,0.3,0,0.6-0.1,0.6c-0.1,0-0.3-0.2-0.3-0.5 C144.9,100.4,145,100.1,145.1,100.1"/>
<path d="M145.5,98.4c0.1,0,0.3,0.2,0.3,0.5c0.1,0.3,0,0.6-0.1,0.6c-0.1,0-0.3-0.2-0.3-0.5S145.4,98.4,145.5,98.4"/>
<path d="M145.4,102.6c0-0.1-0.1-0.2-0.1-0.3c-0.1-0.3,0-0.6,0.1-0.6c0.1,0,0.2,0.1,0.3,0.3L145.4,102.6"/>
<path d="M146,101c-0.1-0.1-0.2-0.3-0.2-0.5c-0.1-0.3,0-0.6,0.1-0.6c0.1,0,0.2,0.2,0.3,0.5L146,101"/>
<path d="M146.6,99.3c-0.1,0-0.3-0.2-0.3-0.5c-0.1-0.3,0-0.6,0.1-0.6c0.1,0,0.3,0.2,0.3,0.5v0.2L146.6,99.3"/>
</g>
<g id="Base_Whistling-Birds_Attachment_Basic_Gauntlet_Left" style="fill: rgb(176, 74, 212);">
<path d="M143.8,82.7l-2,0.4L142,84l2-0.4L143.8,82.7"/>
<path d="M144.2,83.5L142,84l3,14.1l2.2-0.5L144.2,83.5"/>
<path d="M144.5,83.6l-0.3,0.1l2.6,12.2l0.3-0.1L144.5,83.6"/>
<path d="M143.8,83.6l-0.3,0.1l2.8,13.3l0.3-0.1L143.8,83.6"/>
</g>
<g id="Accent_Whistling-Birds_Attachment_Basic_Gauntlet_Left" style="fill: rgb(176, 74, 212);">
<path d="M141.7,82.9l-0.8,0.2l3,14.4l0.8-0.2L141.7,82.9"/>
<path d="M147.1,96.7l-3.1,0.7l0.2,0.9l3.1-0.7L147.1,96.7"/>
<path d="M143.1,82.8l-1.3,0.3l0.4,2.1l1.3-0.3L143.1,82.8"/>
<path d="M143.2,84.9l-1,0.2l1,4.9l0.6-2L143.2,84.9"/>
</g>
</g>
</g>
</g>
<g id="Right-Gauntlets">
<g id="Basic_Gauntlet_Right" class="option" style="display: inherit;">
<path id="Top-2_Basic_Gauntlet_Right" d="M24.6,107.5l-1.4-2.2L27.1,87l0.6,2.2l-1.8,8.3l0.7,2.1L24.6,107.5" style="fill: rgb(176, 74, 212);"/>
<path id="Top-1_Basic_Gauntlet_Right" d="M27.1,87.1l0.6,2.2l-1.8,8.3l0.7,2.1l-2,7.9l0.9,1.4l-0.5,5.1l1.6,0.4 l2.1-7.7l1.5-0.5l6.7-22.4L28,83L27.1,87.1" style="fill: rgb(43, 218, 227);"/>
<g id="Accent-Bottom_Basic_Gauntlet_Right" style="fill: rgb(176, 74, 212);">
<path d="M40.2,90.6l2,0.6l-1,2.9l-2-0.6L40.2,90.6"/>
<path d="M38.6,95.7l2,0.6l-1,2.9l-2-0.6L38.6,95.7"/>
<path d="M36.8,100.9l2,0.6l-1,2.9l-2-0.6L36.8,100.9"/>
</g>
<path id="Bottom_Basic_Gauntlet_Right" d="M42.2,91.2l0.7-2.2l-6.2-4.8l-6.6,22.1l6.7,1.2l2.7-8.2l-2-0.6l1-2.9 l1.9,0.6l0.7-2.2l-2-0.6l1-2.9L42.2,91.2 M36.8,100.9l2,0.6l-1,2.9l-2-0.7L36.8,100.9" style="fill: rgb(43, 218, 227);"/>
<g id="No-Device_Attachment_Basic_Gauntlet_Right" class="option" style="display: inherit;">
</g>
</g>
</g>
</g>
<g id="Shins">
<g id="Left-Shin">
<g id="Basic_Shin_Left" class="option" style="display: inherit;">
<path id="Shin_Basic-Shin_Left" d="M120.8,179.2l-5-5.5l-10,1.4l-3.7,8.7l6.8,29c4.4,1.8,10.8,0.9,14.3-2.3 L120.8,179.2" style="fill: rgb(43, 218, 227);"/>
<path id="Trauma-Plating_Basic-Shin_Left" class="toggle" style="display: none; fill: rgb(255, 255, 255);" d="M121.5,209.8l-2.3-29.9l-4-4.4l-8.2,1.1l-3.1,7.3l6.5,27.6 C114,212.7,118.6,212,121.5,209.8"/>
<g id="Ridge_Basic-Shin_Left" class="toggle" style="fill: rgb(176, 74, 212);">
<path d="M114.4,173.7l-3.6-0.3l-3.5,1.5l7.1,38.9c2.4,0.1,2.5,0.2,4.4-0.8L114.4,173.7"/>
<path d="M110.9,173.4l6,40.4"/>
</g>
</g>
</g>
<g id="Right-Shin">
<g id="Basic_Shin_Right" class="option" style="display: inherit;">
<path id="Shin_Basic-Shin_Right" d="M48,179.2l5-5.5l10,1.4l3.7,8.7l-6.8,29c-4.4,1.8-10.8,0.9-14.3-2.3L48,179.2" style="fill: rgb(43, 218, 227);"/>
<path id="Trauma-Plating_Basic-Shin_Right" class="toggle" style="display: none; fill: rgb(255, 255, 255);" d="M47.3,209.8l2.3-29.9l4-4.4l8.2,1.1l3.1,7.3l-6.5,27.6 C54.8,212.7,50.2,212,47.3,209.8"/>
<g id="Ridge_Basic-Shin_Right" class="toggle" style="fill: rgb(176, 74, 212);">
<path d="M54.4,173.7l3.6-0.3l3.5,1.5l-7.1,38.9c-2.4,0.1-2.5,0.2-4.4-0.8L54.4,173.7"/>
<path d="M57.9,173.4l-6,40.4"/>
</g>
</g>
</g>
</g>
<g id="Foot">
<g id="Left-Ankle">
<g id="Legacy_Ankle_Left" class="option" style="display: inherit;">
<path id="Plate-2_Legacy-Ankle_Left" d="M125.9,222.2l4.3,3.9l3,3.7l-4.8,1.5l-10.9-2.3l-4-5.3L125.9,222.2" style="fill: rgb(176, 74, 212);"/>
<path id="Plate-1_Legacy-Ankle_Left" d="M106.3,214.9c0,0,4.3,1.9,10.8,1.7c4.4-0.2,6.2-1.3,6.2-1.3l3.7,6.9l-1,3.8 l-15.7-1.2l-3.9-3.3L106.3,214.9" style="fill: rgb(43, 218, 227);"/>
<path id="Trauma-Plate-2_Legacy-Ankle_Left" class="toggle" style="display: none; fill: rgb(255, 255, 255);" d="M126.8,223.1l3.4,3l1.7,2.2l-3.6,1.2l-9.6-2l-1.6-2.1 l8.9,0.7L126.8,223.1"/>
<path id="Trauma-Plate-1_Legacy-Ankle_Left" class="toggle" style="display: none; fill: rgb(255, 255, 255);" d="M107.9,217.3l0.1,3.2l3.1,2.5l13.8,1.1l1-3.8l-1.8-3.3 c-1.2,0.3-4.7,1.4-7,1.4C113.5,218.6,110,217.9,107.9,217.3"/>
</g>
</g>
<g id="Left-Toe">
<g id="None_Toe_Left" class="option" style="display: inherit;">
</g>
</g>
<g id="Right-Ankle">
<g id="Legacy_Ankle_Right" class="option" style="display: inherit;">
<path id="Plate-2_Legacy-Ankle_Right" d="M42.9,222.2l-4.3,3.9l-3,3.7l4.8,1.5l10.9-2.3l4-5.3L42.9,222.2" style="fill: rgb(176, 74, 212);"/>
<path id="Plate-1_Legacy-Ankle_Right" d="M62.4,214.9c0,0-4.3,1.9-10.8,1.7c-4.4-0.2-6.2-1.3-6.2-1.3l-3.7,6.9l1,3.8 l15.7-1.2l3.9-3.3L62.4,214.9" style="fill: rgb(43, 218, 227);"/>
<path id="Trauma-Plate-2_Legacy-Ankle_Right" class="toggle" style="display: none; fill: rgb(255, 255, 255);" d="M41.9,223.1l-3.4,3l-1.7,2.2l3.6,1.2l9.6-2l1.6-2.1 l-8.9,0.7L41.9,223.1"/>
<path id="Trauma-Plate-1_Legacy-Ankle_Right" class="toggle" style="display: none; fill: rgb(255, 255, 255);" d="M60.8,217.3l-0.1,3.2l-3.1,2.5l-13.8,1.1l-1-3.8l1.8-3.3 c1.2,0.3,4.7,1.4,7,1.4C55.3,218.6,58.7,217.9,60.8,217.3"/>
</g>
</g>
<g id="Right-Toe">
<g id="None_Toe_Right" class="option" style="display: inherit;">
</g>
</g>
</g>
<g id="Knees">
<g id="Left-Knee">
<g id="Basic_Knee_Left" class="option" style="display: inherit;">
<g id="Missiles_Basic-Knee_Left" class="toggle" style="display:none"/>
<g id="Knee_Basic-Knee_Left" style="fill: rgb(43, 218, 227);">
<path d="M95.8,158.4l1.4-0.2c0,0,1.1,6.9,1.6,10c0.1,0.8-0.4,1.5-1.2,1.7L95.8,158.4z"/>
<path d="M97.2,157.8l0.8,5.1c1-0.6,3.7,0.5,4.5,3.6c1.6,5.7,2.9,7,7.9,6.5c3.8-0.4,6.6-2.2,6.9-4.9 c0.5-3.9,0-9.4-0.2-11.8c0-0.3-0.2-0.6-0.4-0.7c-0.2-0.2-0.5-0.3-0.8-0.2C111.7,155.9,97.2,157.8,97.2,157.8z"/>
<path d="M96.7,157.9l0.5-0.1l0.9,5.6l-0.5,0.1L96.7,157.9z"/>
</g>
</g>
</g>
<g id="Right-Knee">
<g id="Basic_Knee_Right" class="option" style="display: inherit;">
<g id="Missiles_Basic-Knee_Right" class="toggle" style="">
<path id="Base_Missiles_Basic-Knee_Right" d="M51.7,156.2v0.1c-0.2,1.9-0.5,6.1-0.4,9.6l-2.3-1.4 c-0.4-0.2-0.6-0.6-0.6-1.1c0-1.3,0.1-4.2,0.1-5.7c0-0.6,0.4-1.1,1-1.2L51.7,156.2z" style="fill: rgb(176, 74, 212);"/>
<g id="Missile-2_Missiles_Basic-Knee_Right" style="fill: rgb(0, 0, 0);">
<path d="M50.1,161.8c0.6,0.1,1,0.6,0.9,1.1c-0.1,0.6-0.6,1-1.2,0.9c-0.6-0.1-1-0.6-0.9-1.1 C49,162.1,49.5,161.7,50.1,161.8z"/>
<path d="M50,162.1c0.4,0,0.7,0.4,0.6,0.8c0,0.4-0.4,0.7-0.8,0.6c-0.4,0-0.7-0.4-0.6-0.8 C49.3,162.4,49.7,162.1,50,162.1z"/>
</g>
<g id="Missile-1_Missiles_Basic-Knee_Right" style="fill: rgb(0, 0, 0);">
<path d="M50.2,157.3c0.6,0.1,1,0.6,0.9,1.1c-0.1,0.6-0.6,1-1.2,0.9c-0.6-0.1-1-0.6-0.9-1.1 C49.1,157.6,49.7,157.2,50.2,157.3z"/>
<path d="M50.2,157.6c0.4,0,0.7,0.4,0.6,0.8c0,0.4-0.4,0.7-0.8,0.6c-0.4,0-0.7-0.4-0.6-0.8 C49.4,157.9,49.8,157.6,50.2,157.6z"/>
</g>
</g>
<g id="Knee_Basic-Knee_Right" style="fill: rgb(43, 218, 227);">
<path d="M73,158.4l-1.4-0.2c0,0-1.1,6.9-1.6,10c-0.1,0.8,0.4,1.5,1.2,1.7L73,158.4z"/>
<path d="M71.6,157.8l-0.8,5.1c-1-0.6-3.7,0.5-4.5,3.6c-1.6,5.7-2.9,7-7.9,6.5c-3.8-0.4-6.6-2.2-6.9-4.9 c-0.5-3.9,0-9.4,0.2-11.8c0-0.3,0.2-0.6,0.4-0.7c0.2-0.2,0.5-0.3,0.8-0.2C57.1,155.9,71.6,157.8,71.6,157.8z"/>
<path d="M72.1,157.9l-0.5-0.1l-0.9,5.6l0.5,0.1L72.1,157.9z"/>
</g>
</g>
</g>
</g>
<g id="Thighs">
<g id="Left-Thigh">
<g id="Pocket_Thigh_Left" class="option" style="fill: rgb(79, 79, 79); display: inherit;">
<path d="M117.9,124c0.5,6.5,1.3,12.6,2.3,18.4c0.2,1.2-0.1,2.3-0.8,3.3c-0.7,0.9-1.8,1.5-3,1.6 c-5.3,0.4-10.7,1.2-16.1,2.3c-0.9,0.2-1.9,0-2.6-0.6c-0.8-0.5-1.3-1.4-1.4-2.3c-0.9-6.1-2.8-18.4-3.5-23.2 c-0.2-1.1,0.6-2.1,1.7-2.3c2.4-0.4,6.2-1,6.2-1L117.9,124"/>
<path d="M115.4,117.9c0.8-0.1,1.5,0.3,1.8,1c0.9,2.4,1.7,6.4,1.1,8.4c-0.8,2.6-8.9,17.5-10.9,21.2 c-0.3,0.5-0.8,0.9-1.4,0.9c-1.2,0.1-3.1,0.4-4.5,0.5c-0.7,0.1-1.4-0.4-1.5-1.2c-0.7-4.4-2.8-19-3.7-24.6 c-0.2-1.4-1.2-2.5-2.5-2.9C93.9,121.4,110.7,118.7,115.4,117.9"/>
<path id="Stitch_Left" d="M115.2,117.9c1.7-0.2,2.9,6.8,2.4,8.6c-0.7,2.3-8.8,17.8-10.6,21.2 c-0.3,0.5-0.7,0.8-1.2,0.8l-3.5,0.5c-0.7,0.1-1.3-0.4-1.4-1c-0.6-4-2.9-19.6-3.7-24.7c-0.3-1.8-2.2-2.2-2.2-2.2"/>
<path d="M94.3,121.3l20.9-3.4"/>
</g>
</g>
<g id="Right-Thigh">
<g id="Pocket_Thigh_Right" class="option" style="fill: rgb(79, 79, 79); display: inherit;">
<path d="M50.9,124c-0.5,6.5-1.3,12.6-2.3,18.4c-0.2,1.2,0.1,2.3,0.8,3.3c0.7,0.9,1.8,1.5,3,1.6 c5.3,0.4,10.7,1.2,16.1,2.3c0.9,0.2,1.9,0,2.6-0.6c0.7-0.6,1.3-1.4,1.4-2.3c0.9-6.1,2.8-18.4,3.5-23.2c0.2-1.1-0.6-2.1-1.7-2.3 c-2.4-0.4-6.2-1-6.2-1L50.9,124"/>
<path d="M53.4,117.9c-0.8-0.1-1.5,0.3-1.8,1c-0.9,2.4-1.7,6.4-1.1,8.4c0.8,2.6,8.9,17.5,10.9,21.2 c0.3,0.5,0.8,0.9,1.4,0.9c1.2,0.1,3.1,0.4,4.5,0.5c0.7,0.1,1.4-0.4,1.5-1.2c0.7-4.4,2.8-19,3.7-24.6c0.2-1.4,1.2-2.5,2.5-2.9 C74.9,121.4,58.1,118.7,53.4,117.9"/>
<path id="Stitch_Right" d="M53.6,117.9c-1.7-0.2-2.9,6.8-2.4,8.6c0.7,2.3,8.8,17.8,10.6,21.2 c0.3,0.5,0.7,0.8,1.2,0.8l3.5,0.5c0.7,0.1,1.3-0.4,1.4-1c0.6-4,2.9-19.6,3.7-24.7c0.3-1.8,2.2-2.2,2.2-2.2"/>
<path d="M74.4,121.3l-20.9-3.4"/>
</g>
</g>
</g>
<g id="Groin">
<g id="None_Groin" class="option" style="display: inherit;">
</g>
</g>
<g id="Waist">
<g id="Accessories_Waist">
<g id="Kama" class="toggle" style="">
<g id="Clean_Kama" class="option" style="display: inherit;">
<g id="Trim_Kama-Clean" style="fill: rgb(176, 74, 212);">
<path d="M100.7,83.2l3.6,57.2l26.3,17.5l-19.9-77.3L100.7,83.2z"/>
<path d="M68.1,83.2l-3.6,57.2l-26.3,17.5l19.9-77.3L68.1,83.2z"/>
</g>
<g id="Main_Kama-Clean" style="fill: rgb(36, 36, 36);">
<path d="M102.6,83l3.5,55.3l23.7,16.3l-19.1-74.2L102.6,83z"/>
<path d="M66.2,83l-3.5,55.3L39,154.6l19.1-74.2L66.2,83z"/>
</g>
</g>
</g>
<g id="Loin-Cloth" class="toggle" style="display:none"/>
<g id="Left-Holster" class="toggle" style="display:none"/>
<g id="Right-Holster" class="toggle" style="display:none"/>
</g>
<g id="Under-Belt">
<g id="Girth-Belt" class="option" style="fill: rgb(36, 36, 36); display: inherit;">
<path d="M84.4,84.5c-9.3,0-27.8-2.2-27.8-2.2l0.6-1.9c0,0,18.1,1.5,27.2,2.2c9.1-0.8,27.2-2.2,27.2-2.2l0.6,1.9 C112.2,82.2,93.6,84.5,84.4,84.5z"/>
<path d="M84.4,86.4c-9.5,0-28.4-2.2-28.4-2.2l0.6-1.9c0,0,23.2,1.9,27.8,2.2c4.6-0.4,27.8-2.2,27.8-2.2l0.6,1.9 C112.7,84.1,93.8,86.4,84.4,86.4z"/>
<path d="M84.4,88.3c-9.6,0-28.8-2.2-28.8-2.2l0.4-1.9c0,0,23.7,1.9,28.4,2.2c4.7-0.4,28.4-2.2,28.4-2.2l0.4,1.9 C113.2,86.1,94,88.3,84.4,88.3z"/>
<path d="M84.4,90.2c-9.7,0-29.2-2.2-29.2-2.2l0.4-1.9c0,0,24,1.9,28.8,2.2c4.8-0.4,28.8-2.2,28.8-2.2l0.4,1.9 C113.5,88,94.1,90.2,84.4,90.2z"/>
<path d="M84.4,92.1c-9.8,0-29.5-2.2-29.5-2.2l0.3-1.9c0,0,24.3,1.9,29.2,2.2c4.9-0.4,29.2-2.2,29.2-2.2l0.3,1.9 C113.9,89.9,94.2,92.1,84.4,92.1z"/>
<path d="M84.4,94c-9.9,0-29.8-2.2-29.8-2.2l0.3-1.9c0,0,24.6,1.9,29.5,2.2c4.9-0.4,29.5-2.2,29.5-2.2l0.3,1.9 C114.2,91.8,94.3,94,84.4,94z"/>
<path d="M84.4,95.9c-10,0-30.1-2.2-30.1-2.2l0.3-1.9c0,0,24.8,1.9,29.8,2.2c5-0.4,29.8-2.2,29.8-2.2l0.3,1.9 C114.5,93.7,94.4,95.9,84.4,95.9z"/>
<path d="M84.4,97.8c-10.1,0-30.4-2.2-30.4-2.2l0.3-1.9c0,0,25.1,1.9,30.1,2.2c5-0.4,30.1-2.2,30.1-2.2l0.3,1.9 C114.8,95.6,94.5,97.8,84.4,97.8z"/>
<path d="M84.4,99.7c-10.3,0-30.8-2.2-30.8-2.2l0.3-1.9c0,0,25.4,1.9,30.4,2.2c5.1-0.4,30.4-2.2,30.4-2.2l0.3,1.9 C115.1,97.5,94.6,99.7,84.4,99.7z"/>
<path d="M84.4,101.6c-10.4,0-31.2-2.2-31.2-2.2l0.4-1.9c0,0,25.6,1.9,30.8,2.2c5.1-0.4,30.8-2.2,30.8-2.2l0.4,1.9 C115.5,99.4,94.8,101.6,84.4,101.6z"/>
</g>
</g>
<g id="Belt">
<g id="Pouch-Belt-Full" class="option" style="display: inherit;">
<path id="Main_Pouch-Belt-Full" d="M114.5,92.5c-6.8,0.6-22.3,2.8-30.1,2.8c-7.9,0-23.4-2.2-30.1-2.8l1-7.9 c5.5,0.5,21.4,2.7,29.1,2.7c7.4,0,23-2.2,28.9-2.8L114.5,92.5z" style="fill: rgb(54, 53, 52);"/>
<g id="Pouches_Pouch-Belt-Full" style="fill: rgb(79, 79, 79);">
<g>
<g>
<g>
<path d="M70.3,84.6c-0.3,0-0.6,0-0.8,0.1c-0.7,0.3-2.1,0.8-2.1,0.8l8,0.5l2.2-0.9C77.6,85,72,84.7,70.3,84.6z"/>
<path d="M77.9,85.3c0-0.1,0-0.2-0.1-0.2c-0.1-0.1-0.2-0.1-0.2,0c-0.7,0.3-2.1,0.9-2.1,0.9l-1,12.4 c0.7-0.4,1.4-0.7,2.1-0.8c0.4-0.1,0.7-0.4,0.7-0.8C77.4,92.9,77.5,89.1,77.9,85.3z"/>
<path d="M75.4,86l-8-0.5c0,1.9-0.2,3.8-0.3,5.7c-0.1,2.1-0.2,4.2-0.3,6.3c0,0.2,0,0.3,0.1,0.4s0.2,0.2,0.4,0.2 c2.3,0,4.6,0.1,6.9,0.4c0.1,0,0.3,0,0.4-0.1s0.2-0.2,0.2-0.4c0.1-1.5,0.4-5.3,0.4-5.3L75.4,86z"/>
<path d="M75.4,86l-8-0.5c0,0-0.2,1.6-0.4,3.1c-0.1,0.8,0.1,1.5,0.6,2.1c0.5,0.6,1.2,0.9,1.9,1 c0.9,0.1,2,0.1,3,0.2c0.8,0,1.5-0.2,2.1-0.8c0.5-0.5,0.9-1.3,0.9-2C75.4,87.6,75.4,86,75.4,86z"/>
<path d="M71.2,90.3c0.3,0,0.5,0.3,0.5,0.5c0,0.3-0.3,0.5-0.5,0.5c-0.3,0-0.5-0.3-0.5-0.5 C70.6,90.5,70.9,90.3,71.2,90.3z"/>
</g>
</g>
<g>
<g>
<path d="M59.3,83c-0.3,0-0.6,0-0.9,0.2c-0.7,0.3-1.8,0.8-1.8,0.8l7.3,0.4l2-0.9C65.8,83.5,60.8,83.1,59.3,83z"/>
<path d="M66.1,83.8c0-0.1,0-0.2-0.1-0.2c-0.1-0.1-0.2-0.1-0.2,0c-0.7,0.3-1.9,0.9-1.9,0.9l-1,12.4 c0.6-0.4,1.3-0.7,1.9-0.8c0.4-0.1,0.7-0.4,0.7-0.8C65.6,91.3,65.7,87.5,66.1,83.8z"/>
<path d="M63.8,84.4L56.5,84c-0.1,1.9-0.2,3.8-0.3,5.7c-0.1,2.1-0.2,4.2-0.3,6.3c0,0.2,0,0.3,0.1,0.4 s0.2,0.2,0.4,0.2c2.1,0,4.1,0.1,6.2,0.4c0.1,0,0.3,0,0.4-0.1s0.2-0.2,0.2-0.4c0.1-1.5,0.4-5.3,0.4-5.3L63.8,84.4z"/>
<path d="M63.8,84.4L56.5,84c0,0-0.2,1.6-0.4,3.2c-0.1,0.8,0.1,1.5,0.6,2.1c0.5,0.6,1.2,0.9,1.9,1 c0.7,0,1.5,0.1,2.2,0.1c0.8,0,1.5-0.2,2-0.7s0.9-1.2,0.9-2C63.8,86,63.8,84.4,63.8,84.4z"/>
<path d="M59.9,88.8c0.3,0,0.5,0.3,0.4,0.5c0,0.3-0.2,0.5-0.5,0.5s-0.5-0.3-0.4-0.5C59.4,89,59.6,88.8,59.9,88.8z "/>
</g>
</g>
<g>
<path d="M51.9,83.9l0.5-0.9l2.8,0.1l0.3,1.1L51.9,83.9z"/>
<path d="M55.6,84.3c0-0.1,0-0.1-0.1-0.2c0-0.1-0.1-0.1-0.2-0.1c-0.8,0-3.5-0.1-3.5-0.1l-0.5,11.2 c0.1,0.3,1.5,0.5,2.7,0.5c0.5,0,0.9-0.4,0.9-0.9C55,91.2,55.2,87.7,55.6,84.3z"/>
</g>
</g>
<g>
<g>
<g>
<path d="M98.4,84.6c0.3,0,0.6,0,0.8,0.1c0.7,0.3,2.1,0.8,2.1,0.8l-8,0.5l-2.2-0.9C91.2,85,96.8,84.7,98.4,84.6z"/>
<path d="M90.9,85.3c0-0.1,0-0.2,0.1-0.2c0.1-0.1,0.2-0.1,0.2,0c0.7,0.3,2.1,0.9,2.1,0.9l1,12.4 c-0.7-0.4-1.4-0.7-2.1-0.8c-0.4-0.1-0.7-0.4-0.7-0.8C91.4,92.9,91.3,89.1,90.9,85.3z"/>
<path d="M93.3,86l8-0.5c0.1,1.9,0.2,3.8,0.3,5.7c0.1,2.1,0.2,4.2,0.3,6.3c0,0.2,0,0.3-0.1,0.4 c-0.1,0.1-0.2,0.2-0.4,0.2c-2.3,0-4.6,0.1-6.9,0.4c-0.1,0-0.3,0-0.4-0.1s-0.2-0.2-0.2-0.4c-0.1-1.5-0.4-5.3-0.4-5.3L93.3,86z "/>
<path d="M93.3,86l8-0.5c0,0,0.2,1.6,0.4,3.1c0.1,0.8-0.1,1.5-0.6,2.1c-0.5,0.6-1.2,0.9-1.9,1 c-0.9,0.1-2,0.1-3,0.2c-0.8,0-1.5-0.2-2.1-0.8c-0.6-0.5-0.9-1.3-0.9-2C93.3,87.6,93.3,86,93.3,86z"/>
<path d="M97.6,90.3c-0.3,0-0.5,0.3-0.5,0.5c0,0.3,0.3,0.5,0.5,0.5c0.3,0,0.5-0.3,0.5-0.5 C98.1,90.5,97.9,90.3,97.6,90.3z"/>
</g>
</g>
<g>
<g>
<path d="M109.5,83c0.3,0,0.6,0,0.9,0.2c0.7,0.3,1.8,0.8,1.8,0.8l-7.3,0.4l-2-0.9C103,83.5,107.9,83.1,109.5,83z"/>
<path d="M102.7,83.8c0-0.1,0-0.2,0.1-0.2c0.1,0,0.2-0.1,0.2,0c0.7,0.3,1.9,0.9,1.9,0.9l1,12.4 c-0.6-0.4-1.3-0.7-1.9-0.8c-0.4-0.1-0.7-0.4-0.7-0.8C103.2,91.3,103.1,87.5,102.7,83.8z"/>
<path d="M104.9,84.4l7.3-0.4c0.1,1.9,0.2,3.8,0.3,5.7c0.1,2.1,0.2,4.2,0.3,6.3c0,0.2,0,0.3-0.1,0.4 c-0.1,0.1-0.2,0.2-0.4,0.2c-2.1,0-4.1,0.1-6.2,0.4c-0.1,0-0.3,0-0.4-0.1c-0.1-0.1-0.2-0.2-0.2-0.4c-0.1-1.5-0.4-5.3-0.4-5.3 L104.9,84.4z"/>
<path d="M104.9,84.4l7.3-0.4c0,0,0.2,1.6,0.4,3.2c0.1,0.8-0.1,1.5-0.6,2.1c-0.5,0.6-1.2,0.9-1.9,1 c-0.7,0-1.5,0.1-2.2,0.1c-0.8,0-1.5-0.2-2-0.7s-0.9-1.2-0.9-2C104.9,86,104.9,84.4,104.9,84.4z"/>
<path d="M108.9,88.8c-0.3,0-0.5,0.3-0.4,0.5c0,0.3,0.2,0.5,0.5,0.5s0.5-0.3,0.4-0.5 C109.3,89.1,109.1,88.8,108.9,88.8z"/>
</g>
</g>
<g>
<path d="M116.9,83.9l-0.5-0.9l-2.8,0.1l-0.3,1.1L116.9,83.9z"/>
<path d="M113.2,84.3c0-0.1,0-0.1,0.1-0.2c0-0.1,0.1-0.1,0.2-0.1c0.8,0,3.5-0.1,3.5-0.1l0.5,11.2 c-0.1,0.3-1.5,0.5-2.7,0.5c-0.5,0-0.9-0.4-0.9-0.9C113.7,91.2,113.6,87.7,113.2,84.3z"/>
</g>
</g>
<path d="M88,85.2l1.1,1.1L80,86.1l0.7-1L88,85.2z"/>
<path d="M80,86.1l9.1,0.2c-0.1,2-0.1,3.9-0.1,5.9c-0.1,2.2-0.2,4.4-0.1,6.6c0,0.2-0.1,0.3-0.2,0.4 c-0.1,0.1-0.3,0.2-0.4,0.1c-2.6-0.2-5.3-0.2-7.9-0.1c-0.1,0-0.3,0-0.4-0.1s-0.2-0.2-0.2-0.4v-5.6L80,86.1z"/>
<path d="M80,86.1l9.1,0.2c0,0,0.1,1.7,0.2,3.4c0,0.8-0.2,1.5-0.8,2c-0.5,0.5-1.3,0.8-2,0.8c-1.3,0-2.8-0.1-4-0.1 c-0.8,0-1.5-0.3-2-0.9s-0.8-1.3-0.7-2.1C79.8,87.9,80,86.1,80,86.1z"/>
<path d="M84.4,91c-0.3,0-0.6,0.2-0.6,0.5s0.3,0.5,0.6,0.6c0.3,0,0.6-0.2,0.6-0.5C85,91.3,84.7,91,84.4,91z"/>
</g>
</g>
</g>
</g>
<g id="Extras_Front">
<g id="Front">
<g id="None_Front" class="option" style="display: inherit;">
</g>
</g>
</g>
</svg></svg>