<?xml version='1.0' encoding='UTF-8'?>
<svg version="1.1" id="Male-Body" xmlns="http://www.w3.org/2000/svg" xmlns:serif="http://www.serif.com/" viewBox="0 -55 170 300" style="stroke-width: 0.2px; fill-rule: evenodd; stroke-linejoin: round;" width="170" height="300">
<style>
mask {
mask-type: alpha;
}
.decal {
stroke: none;
}
</style>
<defs id="Masks" stroke="none">
<mask id="HelmetsMask"> <use href="#Helmets"/> </mask>
<mask id="CollarMask"> <use href="#Collar"/> </mask>
<mask id="ShouldersMask"> <use href="#Shoulders"/> </mask>
<mask id="ChestMask"> <use href="#Chest"/> </mask>
<mask id="BicepsMask"> <use href="#Biceps"/> </mask>
<mask id="GauntletsMask"> <use href="#Gauntlets"/> </mask>
<mask id="WaistMask"> <use href="#Waist"/> </mask>
<mask id="GroinMask"> <use href="#Groin"/> </mask>
<mask id="ThighsMask"> <use href="#Thighs"/> </mask>
<mask id="KneesMask"> <use href="#Knees"/> </mask>
<mask id="ShinsMask"> <use href="#Shins"/> </mask>
<mask id="FootMask"> <use href="#Foot"/> </mask>
</defs>
<defs id="Decals"/><metadata><rdf:rdf xmlns:rdf="http://www.w3.org/1999/02/22-rdf-syntax-ns#" xmlns:rdfs="http://www.w3.org/2000/01/rdf-schema#" xmlns:dc="http://purl.org/dc/elements/1.1/"><rdf:description><dc:creator>MandoCreator</dc:creator><dc:publisher>https://www.mandocreator.com</dc:publisher><dc:description>Your Beskar'gam - created by MandoCreator</dc:description><dc:format>image/svg+xml</dc:format><dc:type>Image</dc:type><dc:title>MandoCreator - Ner Berskar'gam</dc:title><dc:date>2022-01-02T17:01:00.933Z</dc:date></rdf:description></rdf:rdf></metadata><g id="Main-Body" fill="white" stroke="black">
<g id="Extras_Back">
<g id="Back"><path id="Short-Cape-Left_Back" class="option" d="M104.11,24.2c-1.31-3.7-2.51-7.4-2.51-7.4c0.5-1,4.02-1,5.03-0.9 c2.31,0.1,5.63,1.2,7.14,2.9c0.81,1,2.51,1,3.02,2.2c0,0.1,0.5,1.1,0.5,1.1s0.3,2,0.6,4.4c2.42,1.9,4.53,4.4,5.94,7.3 c3.62,7.3,7.24,15.6,10.06,23.4c2.41,6.7,6.44,13.3,8.95,19.9c2.82,7.5,4.12,12.7,6.54,20.3c2.51,7.9,5.53,14.9,10.26,20.6 c1.81,2.3,4.83,4.2,6.04,7.1c0.1,0.3,1.11,3.2,1.11,3.2c-0.9,0.4-2.21,0.1-3.22,0.1c-3.72,0.1-11.37-4.2-14.89-2.5 c-4.43,2.2-3.92,10.9-8.05,13.9c-4.23,3.1-11.47-4.5-16.4-4.5c-4.53,0-3.42,11.9-7.34,14.3c-1.21,0.8-9.25,0.9-9.25,0.7 c0.5-2.4,1.41-8.7,0.5-15.6c-1.11-8.7-1.31-14.6-2.31-23.3c-0.7-5.8-0.1-8.8-1.31-14.5c-1.31-6.3-0.7-13.6-2.41-19.8 c-1.71-6.1-1.11-13.2-2.21-19.5c-1.71-10.1-0.2-28.8,4.12-33.2L104.11,24.2z" fill="rgb(79, 79, 79)" style="display: inherit;"/></g>
</g>
<g id="Extras-BackDecals" mask="url(#BackMask)">
</g>
<g id="Suit">
<g id="Neck-Seal"><g id="Standard-Neck-Seal" class="option" fill="rgb(36, 36, 36)" style="display: inherit;">
<path d="M98.75,7.5c0-0.9-0.93-1.62-2.07-1.62c0,0-7.8,0.85-11.7,0.85s-11.7-0.85-11.7-0.85 c-1.14,0-2.07,0.73-2.07,1.62s0.93,1.62,2.07,1.62c0,0,7.8,0.85,11.7,0.85s11.7-0.85,11.7-0.85C97.83,9.13,98.75,8.4,98.75,7.5z"/>
<path d="M99.45,9.4c0-0.94-0.97-1.71-2.17-1.71c0,0-8.2,0.9-12.29,0.9S72.69,7.7,72.69,7.7 c-1.2,0-2.17,0.76-2.17,1.71s0.97,1.71,2.17,1.71c0,0,8.2,0.9,12.29,0.9s12.29-0.9,12.29-0.9C98.48,11.11,99.45,10.34,99.45,9.4z "/>
<path d="M100.24,11.76c0-0.99-1.03-1.8-2.29-1.8c0,0-8.64,0.95-12.96,0.95S72.02,9.96,72.02,9.96 c-1.26,0-2.29,0.81-2.29,1.8s1.03,1.8,2.29,1.8c0,0,8.64,0.95,12.97,0.95s12.96-0.95,12.96-0.95 C99.21,13.56,100.24,12.75,100.24,11.76z"/>
<path d="M101,13.92c0-1.04-1.08-1.89-2.41-1.89c0,0-9.08,0.99-13.61,0.99s-13.61-0.99-13.61-0.99 c-1.33,0-2.41,0.85-2.41,1.89c0,1.04,1.08,1.89,2.41,1.89c0,0,9.08,0.99,13.61,0.99s13.61-0.99,13.61-0.99 C99.93,15.81,101,14.96,101,13.92z"/>
<path d="M101.76,16.04c0-0.79-1.13-1.43-2.52-1.43c0,0-9.51,0.75-14.26,0.75s-14.26-0.75-14.26-0.75 c-1.39,0-2.52,0.64-2.52,1.43c0,0.79,1.13,1.43,2.52,1.43c0,0,9.51,0.75,14.26,0.75s14.26-0.75,14.26-0.75 C100.63,17.47,101.76,16.83,101.76,16.04z"/>
<path d="M101.76,18.42c0-0.79-1.13-1.43-2.52-1.43c0,0-9.51,0.75-14.26,0.75s-14.26-0.75-14.26-0.75 c-1.39,0-2.52,0.64-2.52,1.43c0,0.79,1.13,1.43,2.52,1.43c0,0,9.51,1.44,14.26,1.44s14.26-1.44,14.26-1.44 C100.63,19.84,101.76,19.21,101.76,18.42z"/>
</g>
</g>
<g id="Flight-Suit" fill="rgb(36, 36, 36)">
<path d="M73.36,158.45l-1.49,8.72l-11.03,53.11c0,0-4.93,2.96-7.47,3.46c-2.53,0.5-7.73-0.44-7.73-0.44l3.85-43 l2.9-18.36l0.66-7.82c0,0-2.53-22.78-1.7-34.14c0.82-11.36,6.66-34.01,6.66-34.01l26.98,0.58l26.97-0.58 c0,0,5.83,22.66,6.66,34.01c0.83,11.36-1.7,34.14-1.7,34.14l0.66,7.82l2.9,18.36l3.85,43c0,0-5.32,1.19-7.85,0.69 c-2.53-0.5-7.34-3.71-7.34-3.71L98.1,167.16l-1.49-8.72l-11.62-30.33L73.36,158.45z"/>
<g>
<path d="M129.41,43.33l11.98,41.65l1.04,21.47l-9.55,1.83l-6.05-20.21l-13.65-33.95l0.69-15.55l2.31-3.72 L129.41,43.33z"/>
<path d="M40.59,43.3l13.19-8.45l2.31,3.72l0.52,16.04L43.17,88.07l-6.05,20.21l-9.55-1.83l1.03-21.47L40.59,43.3z"/>
</g>
</g>
<g id="Sleeves" class="toggle" fill="rgb(36, 36, 36)">
<g>
<path d="M112.2,56.12l2.68,5.9c0,0,4.24-3.2,7.06-4.8s4.38-2.62,6.92-3.6c2.54-0.98,5.08-1.47,5.08-1.47l-6.07-12.25 l-5.79-9.67l-11.58,5.14L112.2,56.12z"/>
<path d="M113.61,59.24c-0.2-0.24,5.08-4.5,8.61-6.34c3.53-1.84,10.25-3.69,10.25-3.69"/>
</g>
<g>
<path d="M57.8,56.12l-2.68,5.9c0,0-4.24-3.2-7.06-4.8c-2.82-1.59-4.38-2.62-6.92-3.6c-2.54-0.98-5.08-1.47-5.08-1.47 l6.07-12.25l5.79-9.67l11.58,5.14L57.8,56.12z"/>
<path d="M56.39,59.24c0.2-0.24-5.08-4.5-8.61-6.34c-3.53-1.84-10.25-3.69-10.25-3.69"/>
</g>
</g>
</g>
<g id="Boots">
<g id="Tall_Boots" class="option" style="display: inherit;">
<g id="Bottom_Tall-Boot" fill="rgb(23, 23, 23)">
<path d="M107.62,230.35c0.02,0.13,0.06,0.26,0.1,0.4c0.96,1.77,3.59,2.37,5.38,2.79c1.27,0.3,2.5,0.72,3.7,1.22 c1.66,0.7,2.49,1.93,3.79,3.1c0.58,0.52,1.26,0.93,1.92,1.32c1.65,0.99,3.25,1.07,5.13,1.12c2.52,0.07,4.75-0.27,7.23-0.82 c2.17-0.48,3.79-0.89,5.67-1.42c0.56-0.16,1.25-0.27,1.59-0.69l0.28,0.63l0.21,1.64c0,0-2.03,1.09-4.2,1.57 c-2.16,0.48-6.53,1.15-6.53,1.15l-0.3-0.71l-0.98,0.21l0.05,0.7l-2.38,0.13l-0.51-0.69l-0.79,0.02l0.12,0.61 c0,0-1.47-0.02-2.29-0.51c-0.15-0.23-0.46-0.61-0.46-0.61l-0.56-0.31l0.07,0.58l-2.04-0.73l-0.1-0.79l-0.59-0.34l-0.03,0.57 l-1.46-1.12l-0.16-0.69l-3.14-1.64l-1.07,0.43l-2.55-0.55l-0.08-0.55l-0.65-0.27l-0.45,0.42l-1.71-0.7l-0.04-0.51l-0.56-0.19 l-0.06,0.37l-1.62-1.12L107.62,230.35z M107.56,229.7L107.56,229.7L107.56,229.7L107.56,229.7z"/>
<path d="M62.37,230.35c-0.02,0.13-0.06,0.26-0.1,0.4c-0.97,1.77-3.59,2.37-5.38,2.79c-1.27,0.3-2.5,0.72-3.7,1.22 c-1.66,0.7-2.49,1.93-3.79,3.1c-0.58,0.52-1.26,0.93-1.92,1.32c-1.65,0.99-3.25,1.07-5.13,1.12c-2.52,0.07-4.75-0.27-7.23-0.82 c-2.17-0.48-3.79-0.89-5.67-1.42c-0.56-0.16-1.25-0.27-1.59-0.69l-0.28,0.63l-0.21,1.64c0,0,2.03,1.09,4.2,1.57 c2.16,0.48,6.53,1.15,6.53,1.15l0.3-0.71l0.98,0.21l-0.05,0.7l2.38,0.13l0.51-0.69l0.8,0.02l-0.12,0.61c0,0,1.47-0.02,2.29-0.51 c0.15-0.23,0.46-0.61,0.46-0.61l0.56-0.31l-0.07,0.58l2.04-0.73l0.1-0.79l0.59-0.34l0.02,0.57l1.46-1.12l0.16-0.69l3.14-1.64 l1.07,0.43l2.55-0.55l0.08-0.55l0.65-0.27l0.45,0.42l1.71-0.7l0.04-0.51l0.56-0.19l0.07,0.37l1.62-1.12L62.37,230.35z M62.43,229.7L62.43,229.7L62.43,229.7L62.43,229.7z"/>
</g>
<g id="Main_Tall-Boot" fill="rgb(54, 53, 52)">
<path d="M107.64,216.98c-1.45-4.23-2.54-10.99-3.41-14.07c-0.65-2.31-3.63-14.87-3.14-16.45 c0.5-1.6,19.67-4.86,20.29-3.42c0.94,2.2,2.03,23.99,2.2,27.2c0.12,2.35,0.47,4.66,0.47,7.01l0,0.01 c0.25,1.28,0.46,2.66,0.99,3.81c1.01,2.17,0.97,3.11,2.65,4.75c1.16,1.13,4.16,3.11,5.54,3.97c0.58,0.36,1.21,0.64,1.85,0.88 l0.06,0.02c2.55,0.95,5.3,1.3,6.68,4.11c0.3,0.61,0.56,1.34,0.51,2.04c-0.07,0.89-1.04,1.01-1.79,1.23 c-1.88,0.53-3.5,0.94-5.67,1.42c-2.48,0.55-4.71,0.89-7.23,0.82c-1.88-0.05-3.47-0.13-5.13-1.12c-0.67-0.4-1.35-0.8-1.92-1.32 c-1.29-1.17-2.13-2.4-3.79-3.1c-1.2-0.51-2.43-0.92-3.7-1.22c-1.8-0.43-4.42-1.02-5.38-2.79c-0.37-1.33,0.01-1.98,0.13-3.12 l0.06-0.49c0.1-0.74,0.23-1.5,0.27-2.31c0.08-1.54-0.31-3.06-0.41-4.59c-0.06-0.87-0.1-1.74-0.12-2.61 C107.65,217.52,107.61,217.19,107.64,216.98z"/>
<path d="M62.35,216.98c1.45-4.23,2.54-10.99,3.41-14.07c0.65-2.31,3.63-14.87,3.14-16.45 c-0.5-1.6-19.67-4.86-20.29-3.42c-0.94,2.2-2.03,23.99-2.2,27.2c-0.12,2.35-0.47,4.66-0.47,7.01l0.01,0.01 c-0.25,1.28-0.46,2.66-0.99,3.81c-1.01,2.17-0.97,3.11-2.65,4.75c-1.16,1.13-4.16,3.11-5.54,3.97c-0.59,0.36-1.21,0.64-1.85,0.88 l-0.06,0.02c-2.55,0.95-5.3,1.3-6.68,4.11c-0.3,0.61-0.56,1.34-0.51,2.04c0.07,0.89,1.04,1.01,1.79,1.23 c1.88,0.53,3.5,0.94,5.67,1.42c2.48,0.55,4.72,0.89,7.23,0.82c1.88-0.05,3.47-0.13,5.13-1.12c0.67-0.4,1.35-0.8,1.92-1.32 c1.29-1.17,2.13-2.4,3.79-3.1c1.2-0.51,2.43-0.92,3.7-1.22c1.8-0.43,4.42-1.02,5.38-2.79c0.37-1.33-0.01-1.98-0.13-3.12 l-0.06-0.49c-0.1-0.74-0.23-1.5-0.27-2.31c-0.08-1.54,0.31-3.06,0.41-4.59c0.06-0.87,0.1-1.74,0.12-2.61 C62.33,217.52,62.37,217.19,62.35,216.98z"/>
</g>
</g></g>
<g id="Gloves">
<g id="Left-Glove"><g id="Basic_Left_Glove" class="option" fill="rgb(54, 53, 52)" style="display: inherit;">
<path d="M138.6,124.11c-0.54-0.03-1.05-0.01-1.58,0.1c-0.36,0.08-0.72,0.16-1.04,0.35 c-0.99,0.57-0.72,1.81,0.16,2.28c1.03,0.55,2.66,0.01,3.13-1.05C139.46,125.35,138.86,124.53,138.6,124.11"/>
<path d="M136.79,125.19c-0.54-0.03-1.05-0.02-1.59,0.1c-0.36,0.08-0.72,0.16-1.04,0.35 c-0.99,0.57-0.72,1.81,0.16,2.28c1.03,0.55,2.66,0.01,3.13-1.05C137.65,126.43,137.05,125.61,136.79,125.19"/>
<path d="M135.49,126.65c-0.54,0.05-1.19,0.13-1.7,0.31c-0.35,0.12-0.69,0.26-0.99,0.48c-0.9,0.7-0.47,1.89,0.47,2.24 c1.1,0.41,2.64-0.35,2.96-1.46C136.36,127.76,135.49,126.65,135.49,126.65z"/>
<path d="M132.55,110.05c0,0-1.56,2.15-1.97,3.69c-0.29,1.09-0.13,3.68-0.49,5.43c-0.36,1.74-0.69,2.71-0.69,2.71 s-1.38,2.79-1.14,3.43c0.24,0.64,1.45,1.21,2.15,0.87c0.86-0.42,1.93-2.39,2.61-3.77c0.69-1.41,1.25-3.41,1.25-3.41 s0.95,0.32,1.43,0.7c1.61,1.24,0.91,4.96,0.91,4.96s-0.66,1.33-1.66,2.83c-1.36,2.05-3.46,3.81-2.07,5.37 c1.29,1.46,4.22-2.37,4.22-2.37l2.87-3.73c0,0,3.3-5.41,3.47-6.46c0.13-0.8,0.02-3.47,0.02-3.47l-1.03-10.37l-5.24,0.44 l-4.31,1.39L132.55,110.05"/>
</g>
</g>
<g id="Right-Glove"><g id="Basic_Right_Glove" class="option" fill="rgb(54, 53, 52)" style="display: inherit;">
<path d="M31.4,124.11c0.54-0.03,1.05-0.01,1.58,0.1c0.36,0.08,0.72,0.16,1.04,0.35c0.99,0.57,0.72,1.81-0.16,2.28 c-1.03,0.55-2.66,0.01-3.13-1.05C30.53,125.35,31.14,124.53,31.4,124.11"/>
<path d="M33.21,125.19c0.54-0.03,1.05-0.02,1.58,0.1c0.36,0.08,0.72,0.16,1.04,0.35c0.99,0.57,0.72,1.81-0.16,2.28 c-1.03,0.55-2.66,0.01-3.13-1.05C32.35,126.43,32.95,125.61,33.21,125.19"/>
<path d="M34.51,126.65c0.54,0.05,1.19,0.13,1.7,0.31c0.35,0.12,0.69,0.26,0.99,0.48c0.9,0.7,0.47,1.89-0.47,2.24 c-1.1,0.41-2.64-0.35-2.96-1.46C33.64,127.76,34.51,126.65,34.51,126.65z"/>
<path d="M37.45,110.05c0,0,1.56,2.15,1.97,3.69c0.29,1.09,0.13,3.68,0.49,5.43c0.36,1.74,0.69,2.71,0.69,2.71 s1.38,2.79,1.14,3.43c-0.24,0.64-1.45,1.21-2.15,0.87c-0.86-0.42-1.93-2.39-2.61-3.77C36.29,121,35.73,119,35.73,119 s-0.95,0.32-1.43,0.7c-1.61,1.24-0.91,4.96-0.91,4.96s0.66,1.33,1.66,2.83c1.36,2.05,3.46,3.81,2.08,5.37 c-1.29,1.46-4.22-2.37-4.22-2.37l-2.87-3.73c0,0-3.3-5.41-3.47-6.46c-0.13-0.8-0.02-3.47-0.02-3.47l1.03-10.37l5.24,0.44 l4.31,1.39L37.45,110.05"/>
</g>
</g>
</g>
<g id="Biceps">
<g id="Left-Biceps"><g id="Full-Band_Biceps_Left" class="option" style="display: inherit;">
<path id="Main_Full-Band_Biceps_Left" d="M114.12,60.46l-0.85-2.32l0.45-13.76c0,0,1.06-0.36,2.62-0.89 c7.17-2.42,14.97,1.25,17.67,8.32c0.4,1.06,0.66,1.73,0.66,1.73L114.12,60.46" fill="rgb(43, 218, 227)"/>
<g id="Trim_Full-Band_Biceps_Left" fill="rgb(176, 74, 212)">
<path d="M130.31,49.15c1.11,0,2.02,0.87,2.02,1.93c0,1.07-0.9,1.93-2.02,1.93c-1.11,0-2.02-0.86-2.02-1.93 C128.29,50.02,129.2,49.15,130.31,49.15"/>
<path d="M134.67,53.53l0.47,1.29c0.13,0.36,0.11,0.76-0.05,1.1c-0.17,0.35-0.47,0.61-0.83,0.73 c-3.77,1.26-14.16,4.74-17.85,5.98c-0.74,0.25-1.54-0.14-1.8-0.86l-0.49-1.32L134.67,53.53"/>
</g>
</g></g>
<g id="Right-Biceps"><g id="Full-Band_Biceps_Right" class="option" style="display: inherit;">
<path id="Main_Full-Band_Biceps_Right" d="M55.91,60.46l0.85-2.32l-0.45-13.76c0,0-1.06-0.36-2.62-0.89 c-7.17-2.42-14.97,1.25-17.67,8.32c-0.4,1.06-0.66,1.73-0.66,1.73L55.91,60.46" fill="rgb(43, 218, 227)"/>
<g id="Trim_Full-Band_Biceps_Right" fill="rgb(176, 74, 212)">
<path d="M39.71,49.15c-1.11,0-2.02,0.87-2.02,1.93c0,1.07,0.9,1.93,2.02,1.93c1.11,0,2.02-0.86,2.02-1.93 C41.73,50.02,40.82,49.15,39.71,49.15"/>
<path d="M35.36,53.53l-0.47,1.29c-0.13,0.36-0.11,0.76,0.06,1.1c0.17,0.35,0.47,0.61,0.83,0.73 c3.77,1.26,14.16,4.74,17.85,5.98c0.74,0.25,1.54-0.14,1.8-0.86l0.49-1.32L35.36,53.53"/>
</g>
</g></g>
</g>
<g id="BicepsDecals" mask="url(#BicepsMask)">
</g>
<path id="Vest" d="M85,20.92c8.5-0.01,15.43-4.3,15.63-8.01l0.15,0.02l18.38,5.42l13.31,23.94l-2.86,1.16l-13.42-8.6 l-2.31,3.72l-1.54,47.4c0,0-8.72,4.71-13.53,5.35c-3.44,0.45-8.63,0.68-13.79,0.67c-5.16,0.01-10.35-0.22-13.79-0.67 c-4.81-0.63-13.53-5.35-13.53-5.35l-1.54-47.4l-2.31-3.72l-13.42,8.6l-2.86-1.16l13.31-23.94l18.38-5.42l0.15-0.02 C69.57,16.62,76.5,20.92,85,20.92" fill="rgb(54, 53, 52)"/>
<g id="SuitDecals" mask="url(#SuitMask)">
</g>
<g class="swappable" id="Chest"><g id="Chest_Galaxy">
<g id="Abdomen_Galaxy">
<path id="Abdomen-Plate_Galaxy" d="M78.03,73.41l-2.08,1.5l-10.56-1.5l-0.77-5.8l5-0.1l3.03-4.92l1.37-4.53 l10.95-9.96L85,48.11l0.02-0.02l10.95,9.96l1.37,4.53l3.03,4.92l5,0.1l-0.77,5.8l-10.56,1.5l-2.08-1.5H78.03z" fill="rgb(176, 74, 212)"/>
<path id="Trauma-Plate_Abdomen_Galaxy" class="toggle" style="" d="M84.98,50.38l-9.46,8.61l-1.3,4.29l-3.63,5.89l-4.03,0.08 l0.35,2.66l8.6,1.22l1.97-1.42h15.04l1.97,1.42l8.6-1.22l0.35-2.66l-4.03-0.08l-3.63-5.89l-1.3-4.29l-9.46-8.61L85,50.4 L84.98,50.38z" fill="rgb(43, 218, 227)"/>
</g>
<g id="Full-Chest_Galaxy">
<path id="Chest-Plate_Galaxy" d="M80.61,33.64l-0.02,10.15l3.21,3.22L72.55,57.6l-1.46,4.89l-2.38,3.9h-4.12 l-2-2.9l-2.55-14.21l-3.73-5.81l4.73-15.2l5.46-0.69l0.77-3.36l5.84-0.71l1.85,3h20.1l1.85-3l5.84,0.71l0.77,3.36l5.46,0.69 l4.73,15.2l-3.73,5.81l-2.55,14.21l-2,2.9h-4.12l-2.38-3.9l-1.46-4.89l-11.25-10.6l3.21-3.22l-0.02-10.15L85,30.24L80.61,33.64z" fill="rgb(176, 74, 212)"/>
<path id="Trauma-Plating_Left-Chest_Galaxy" class="toggle" style="" d="M96,28.19H85.12l5.97,4.62l0.02,11.67l-2.48,2.49 l10.31,9.72l1.53,5.11l1.77,2.9h2.27l1.29-1.87l2.54-14.19l3.49-5.43l-4.17-13.42l-5.55-0.7l-0.77-3.36l-3.57-0.43L96,28.19z" fill="rgb(43, 218, 227)"/>
<path id="Trauma-Plating_Right-Chest_Galaxy" class="toggle" style="" d="M72.23,25.31l-3.57,0.43l-0.77,3.36l-5.55,0.7 l-4.17,13.42l3.49,5.43l2.54,14.19l1.29,1.87h2.27l1.77-2.9l1.53-5.11l10.31-9.72l-2.48-2.49l0.02-11.67l5.97-4.62H74 L72.23,25.31z" fill="rgb(43, 218, 227)"/>
<g id="Accents_Chest-Plate_Galaxy" class="toggle" fill="rgb(176, 74, 212)">
<rect x="96.12" y="31.44" width="9.25" height="1.22"/>
<rect x="96.12" y="33.6" width="9.25" height="1.22"/>
</g>
</g>
<g id="Iron-Heart_Galaxy">
<path id="Heart_Galaxy" d="M82.3,43.49v-9.13l2.7-2.1l2.7,2.1v9.13L85,46.2L82.3,43.49z" fill="rgb(176, 74, 212)"/><rect id="Center_Heart_Galaxy" class="option" x="84.07" y="35.76" width="1.87" height="6.25" fill="rgb(43, 218, 227)" style="display: inherit;"/>
</g>
<g id="Neck-Armor_Galaxy">
<g id="Neck-Plate_Galaxy" fill="rgb(176, 74, 212)">
<path d="M82.75,25.51l-7.39,0.12l-1.82-2.97l-7.05,0.84l-0.7,3.07l-4.52,0.56l-3.33-11.42l11.55-3.44 c0,0,1.53,2.58,2.64,3.49c1.14,0.93,2.66,2.02,4.08,2.64c1.56,0.68,3.46,1.13,5.27,1.42c0.19,0.03,0.38,0.06,0.59,0.08 L82.75,25.51z"/>
<path d="M87.25,25.51l7.39,0.12l1.82-2.97l7.05,0.84l0.7,3.07l4.52,0.56l3.33-11.42l-11.55-3.44 c0,0-1.53,2.58-2.64,3.49c-1.14,0.93-2.66,2.02-4.08,2.64c-1.56,0.68-3.46,1.13-5.27,1.42c-0.19,0.03-0.38,0.06-0.59,0.08 L87.25,25.51z"/>
</g>
<g id="Trauma-Plates_Neck_Galaxy" class="toggle" style="display:none" fill="rgb(255, 255, 255)"/>
</g>
</g></g>
<g id="ChestDecals" mask="url(#ChestMask)">
</g>
<g id="Chest-Attachments"><g id="No-Device_Accessories_Chest" class="option" style="display: inherit;">
</g>
</g>
<g id="Collar"><g id="Cloth-Wrap-Right_Collar" class="option" style="display: inherit;">
<g id="Main_Cloth-Wrap-Right_Collar" fill="rgb(79, 79, 79)">
<path d="M94.88,22.25c5-1.56,5.91-4.07,6.21-6.59c0.12-1.03-1.36-3.72,0.17-4.41c1.73-0.78,5.81,0.44,7.49,0.8 c1.25,0.27,2.36,0.58,3.63,0.59c2.94,0.03,5.28,1.99,5.54,3.45c0.37,2.04-3.27,2.78-4.97,4.33c-4.26,3.88-5.74,9.13-14.69,10.57 c-4.11,0.66-8.18-0.27-11.99-1.12c-9.86-2.19-15.23-4.07-21.57-8.93c-2.77-2.13-6.95-3.86-6.85-6.71 c0.01-0.12,2.02-1.31,2.22-1.36c1.78-0.44,3.29-1.17,5.24-1.21c1.17-0.02,0.98,0.98,1.06,1.43c0.33,1.74,1.93,3.05,3.93,4.36 C75.6,20.92,87.64,21.99,94.88,22.25z"/>
<path d="M94.88,22.25c1.32,0.05,2.48,0.25,3.5,0.32c4.57,0.28,6.21-0.83,7.09-2.86"/>
<path d="M109.1,12.11c1.32,2.14,1.15,4.67,0.1,6.33"/>
<path d="M70.71,18.23c3.43,4.66,8.51,6.13,14.08,6.7"/>
<path d="M61.44,12.49c0.2,1.18,0.91,1.62,1.78,2.41c0.5,0.46,1.12,0.78,1.52,1.35c0.14,0.2,0.22,0.44,0.31,0.67"/>
</g>
<path id="Buckle_Cloth-Wrap-Right_Collar" d="M71.89,17.35l-2.91-2.08l-5.06,7.02l2.91,2.08L71.89,17.35z" fill="rgb(186, 186, 186)"/>
</g></g>
<g id="CollarDecals" mask="url(#CollarMask)">
</g>
<g id="Helmets" class="swappable" transform="translate(45,-52)"><g id="Helmet_Nite">
<g id="Left-Earcap_Nite" class="toggle"><g id="Ear-Cap_Left_Nite" fill="rgb(176, 74, 212)">
<path d="M59.84,57.03l1.74-2.57l-1.74-17.79l-2.43-1.53L59.84,57.03z"/>
<path d="M58.06,41.39l2.01-2.08"/>
</g>
</g>
<g id="Right-Earcap_Nite" class="toggle"><g id="Range-Finder_Right_Nite" class="option" style="display: inherit;">
<path id="Shaft_Right_Range-Finder_Nite" d="M22.48,9.72l1.08,0.07l-1.61,26.85h-1.1L22.48,9.72z" fill="rgb(79, 79, 79)"/>
<path id="Finder_Right_Range-Finder_Nite" d="M30.81,7.55h-5.96l0.24-0.74l6.96-0.65L30.81,7.55" fill="rgb(79, 79, 79)"/>
<g id="Cover_Right_Range-Finder_Nite" fill="rgb(176, 74, 212)">
<path d="M21.62,8.59l2.84,0.19l0.63-1.96l7.48-0.7l0.15-0.76l-10.68-0.4L21,6.27L21.62,8.59"/>
<path d="M22.38,8.64l1.41,0.09L23.72,9.8l-1.4-0.09L22.38,8.64"/>
</g>
</g>
<g id="Ear-Cap_Right_Nite" fill="rgb(176, 74, 212)">
<path d="M20.16,57.03l-1.74-2.57l1.74-17.79l2.43-1.53L20.16,57.03z"/>
<path d="M21.94,41.39l-2.01-2.08"/>
</g>
</g>
<g id="Helmet_Pieces_Nite">
<g id="Face_Nite" fill="rgb(176, 74, 212)">
<path d="M21.29,44.96c0.19,0.1,5.02,2.58,7.67,6.1c4.72,6.28,7.6,13.65,7.92,14.48c-1.63-0.09-2.99-0.26-3.61-0.5 c-2.92-1.15-11.16-6.36-11.16-6.36L20,57.03L21.29,44.96"/>
<path d="M58.71,44.96c-0.19,0.1-5.02,2.58-7.67,6.1c-4.72,6.28-7.6,13.65-7.92,14.48c1.63-0.09,2.99-0.26,3.61-0.5 c2.92-1.15,11.16-6.36,11.16-6.36l2.1-1.65L58.71,44.96"/>
</g>
<g id="Cheeks_Nite" fill="rgb(43, 218, 227)">
<path d="M21.29,44.96l0.47-4.31c0,0,5.36,3.23,7.18,4.92c1.82,1.69,4.36,4.31,4.93,6.76 c0.78,3.33,3.11,13.24,3.11,13.24h-0.11l-0.02-0.03l0.02,0c-0.31-0.82-3.19-8.2-7.92-14.48C26.4,47.65,21.76,45.2,21.29,44.96"/>
<path d="M58.71,44.96l-0.47-4.31c0,0-5.36,3.23-7.18,4.92c-1.82,1.69-4.36,4.31-4.93,6.76 c-0.78,3.33-3.11,13.24-3.11,13.24h0.11l0.02-0.03l-0.02,0c0.31-0.82,3.19-8.2,7.92-14.48C53.6,47.65,58.24,45.2,58.71,44.96"/>
</g>
<path fill="rgb(228, 12, 221)" id="Visor_Nite" d="M38.82,65.56l-2.25-22.02c0,0-4.08-0.37-5.95-0.72c-4.58-0.87-7.52-4.59-7.52-4.59 s5.19-0.47,7.8-0.19c7.06,0.75,7.9,4,9.1,5.2c1.2-1.2,2.04-4.45,9.1-5.2c2.62-0.28,7.8,0.19,7.8,0.19s-2.94,3.72-7.52,4.59 c-1.87,0.35-5.95,0.72-5.95,0.72l-2.25,22.02H38.82"/>
<path id="Eyes_Nite" d="M40,36.61c0,0,6.5-0.05,9.19-0.22c2.86-0.18,8.54-0.47,8.54-0.47l0.51,4.73 c0,0-5.36,3.23-7.18,4.92c-1.82,1.69-4.36,4.31-4.93,6.76c-0.78,3.33-3.11,13.24-3.11,13.24h-1.83l2.25-22.02 c0,0,4.08-0.37,5.95-0.72c4.58-0.87,7.52-4.59,7.52-4.59s-5.18-0.47-7.8-0.19c-7.06,0.75-7.9,4-9.1,5.2 c-1.2-1.2-2.04-4.45-9.1-5.2c-2.62-0.28-7.8,0.19-7.8,0.19s2.94,3.72,7.52,4.59c1.87,0.35,5.95,0.72,5.95,0.72l2.25,22.02h-1.83 c0,0-2.33-9.9-3.11-13.24c-0.57-2.46-3.11-5.07-4.93-6.76c-1.82-1.69-7.18-4.92-7.18-4.92l0.51-4.73c0,0,5.68,0.29,8.54,0.47 C33.5,36.56,38.93,36.6,40,36.61" fill="rgb(176, 74, 212)"/>
<path id="Dome_Nite" d="M22.3,35.92h-0.02v-0.11c0.06-9.26,7.87-16.79,17.54-16.97v0l0.12,0H40h0.07l0.11,0v0 c9.68,0.19,17.48,7.71,17.55,16.97v0.11v0c-0.4,0.02-5.77,0.3-8.52,0.47c-2.69,0.17-8.12,0.21-9.19,0.22 c-1.07-0.01-6.5-0.05-9.19-0.22C27.98,36.21,22.3,35.92,22.3,35.92z" fill="rgb(43, 218, 227)"/>
</g>
</g></g>
<g id="HelmetsDecals" mask="url(#HelmetsMask)"/>
<g id="Shoulders">
<g id="Left-Shoulder"><g id="Gunslinger-Bell_Shoulder_Left" class="option" style="display: inherit;">
<path id="Main_Gunslinger-Bell_Shoulder_Left" d="M113.87,16.41c6.16-0.15,19.92,4.76,19.37,22.26l-0.07,3.45 l-11.98,4.89l-10.5-13.96l0-16.64L113.87,16.41z" fill="rgb(43, 218, 227)"/>
<path id="Ridge_Gunslinger-Bell_Shoulder_Left" class="toggle" d="M110.68,16.41L110.68,16.41l0-2.02 c13.11-0.07,25.51,5.55,24.56,27.14l-2.01,0.47c-0.02-0.25-0.04-0.51-0.06-0.75l0.06-2.59c0.55-17.49-13.2-22.4-19.37-22.26 h-0.68C111.83,16.22,110.9,16.27,110.68,16.41L110.68,16.41L110.68,16.41z" fill="rgb(176, 74, 212)"/>
<g id="Trim_Gunslinger-Bell_Shoulder_Left" class="toggle" fill="rgb(176, 74, 212)">
<rect x="110.68" y="15.63" width="3.19" height="17.45"/>
<path d="M113.87,32l-3.19,1.05l10.51,13.97l2.55-1.9L113.87,32z"/>
<path d="M122.26,43.14l-1.11,3.88l12.58-5.13v-3.42L122.26,43.14z"/>
</g>
</g></g>
<g id="Right-Shoulder"><g id="Classic_Shoulder_Right" class="option" style="display: inherit;">
<path id="Main_Shoulder_Classic_Right" d="M52.79,13.84l2.52,11.33l-2.02,6.52l-13.49,6.79l-2.27-3.46L52.79,13.84 z" fill="rgb(43, 218, 227)"/>
<path id="Trauma-Plates_Shoulder_Classic_Right" class="toggle" style="display:none" d="M53.56,25.1l-1.67,5.41L40.4,36.29l-1.94-2.96 l12.93-17.99L53.56,25.1z" fill="rgb(255, 255, 255)"/>
</g>
</g>
</g>
<g id="ShouldersDecals" mask="url(#ShouldersMask)">
</g>
<g id="Gauntlets">
<g id="Left-Gauntlets"><g id="Basic_Gauntlet_Left" class="option" style="display: inherit;">
<path id="Top-2_Basic_Gauntlet_Left" d="M145.21,108.31l1.36-2.17l-3.89-18.32l-0.65,2.21l1.85,8.35l-0.72,2.07 L145.21,108.31z" fill="rgb(176, 74, 212)"/>
<path id="Top-1_Basic_Gauntlet_Left" d="M142.68,87.82l-0.65,2.21l1.85,8.35l-0.72,2.07l2.05,7.86l-0.9,1.43 l0.47,5.09l-1.57,0.41l-2.13-7.67l-1.46-0.54l-6.74-22.45l8.91-0.93L142.68,87.82z" fill="rgb(43, 218, 227)"/>
<g id="Accent-Bottom_Basic_Gauntlet_Left" fill="rgb(176, 74, 212)">
<path d="M129.49,91.34l-1.97,0.65l0.97,2.92l1.97-0.65L129.49,91.34z"/>
<path d="M131.16,96.45l-1.97,0.65l0.97,2.92l1.97-0.65L131.16,96.45z"/>
<path d="M132.91,101.68l-1.97,0.65l0.97,2.92l1.97-0.65L132.91,101.68z"/>
</g>
<path id="Bottom_Basic_Gauntlet_Left" d="M127.53,91.98l-0.73-2.22l6.19-4.8l6.63,22.08l-6.74,1.23l-2.71-8.25 l1.96-0.65l-0.97-2.92l-1.95,0.64l-0.72-2.19l1.97-0.65l-0.97-2.92L127.53,91.98z M132.91,101.68l-1.98,0.65l0.96,2.92l1.99-0.65 L132.91,101.68z" fill="rgb(43, 218, 227)"/>
<g id="Whistling-Birds_Attachment_Basic_Gauntlet_Left" class="option" style="display: inherit;">
<path id="Head_Whistling-Birds_Attachment_Basic_Gauntlet_Left" d="M148.09,98.4l-1.93,5.61l-1.06-4.98 L148.09,98.4z" fill="rgb(176, 74, 212)"/>
<g id="Birds_Whistling-Birds_Attachment_Basic_Gauntlet_Left" fill="rgb(0, 0, 0)">
<g>
<path d="M145.66,99.29c0.12-0.02,0.27,0.21,0.33,0.52c0.07,0.31,0.02,0.59-0.09,0.61 c-0.12,0.03-0.27-0.21-0.33-0.52C145.5,99.59,145.54,99.31,145.66,99.29z"/>
<path d="M146,100.87c0.12-0.03,0.27,0.21,0.33,0.52c0.07,0.31,0.03,0.58-0.09,0.61 c-0.12,0.03-0.27-0.21-0.33-0.52C145.84,101.17,145.88,100.9,146,100.87z"/>
<path d="M146.47,99.12c0.12-0.02,0.27,0.21,0.33,0.52c0.07,0.31,0.03,0.59-0.09,0.61 c-0.12,0.03-0.27-0.21-0.33-0.52C146.31,99.42,146.35,99.14,146.47,99.12z"/>
<path d="M146.36,103.4c-0.05-0.09-0.09-0.2-0.11-0.33c-0.07-0.31-0.03-0.59,0.09-0.61 c0.08-0.02,0.18,0.09,0.26,0.27L146.36,103.4z M146.92,101.77c-0.08-0.09-0.16-0.26-0.2-0.46c-0.07-0.31-0.02-0.58,0.09-0.61 c0.11-0.02,0.25,0.18,0.32,0.47L146.92,101.77z M147.51,100.08c-0.11,0-0.25-0.23-0.32-0.52c-0.07-0.31-0.03-0.58,0.09-0.61 c0.12-0.03,0.27,0.21,0.33,0.52c0.02,0.07,0.02,0.14,0.03,0.21L147.51,100.08z"/>
</g>
</g>
<g id="Base_Whistling-Birds_Attachment_Basic_Gauntlet_Left" fill="rgb(176, 74, 212)">
<path d="M144.7,83.41l-2.01,0.42l0.19,0.88l2.01-0.42L144.7,83.41z"/>
<path d="M145.07,84.25l-2.2,0.46l3.01,14.14l2.19-0.46L145.07,84.25z"/>
<path d="M145.39,84.34l-0.29,0.06l2.6,12.22l0.29-0.06L145.39,84.34z"/>
<path d="M144.72,84.33l-0.29,0.06l2.83,13.26l0.29-0.06L144.72,84.33z"/>
</g>
<g id="Accent_Whistling-Birds_Attachment_Basic_Gauntlet_Left" fill="rgb(176, 74, 212)">
<path d="M142.64,83.62l-0.8,0.17l3.06,14.36l0.8-0.17L142.64,83.62z"/>
<path d="M148.06,97.48l-3.16,0.66l0.19,0.88l3.16-0.66L148.06,97.48z"/>
<path d="M144.01,83.56l-1.32,0.28l0.44,2.06l1.32-0.28L144.01,83.56z"/>
<path d="M144.13,85.68l-1,0.21l1.04,4.9l0.61-2.05L144.13,85.68z"/>
</g>
</g></g>
</g>
<g id="Right-Gauntlets"><g id="Basic_Gauntlet_Right" class="option" style="display: inherit;">
<path id="Top-2_Basic_Gauntlet_Right" d="M24.75,108.31l-1.36-2.17l3.89-18.32l0.65,2.21l-1.85,8.35l0.72,2.07 L24.75,108.31z" fill="rgb(176, 74, 212)"/>
<path id="Top-1_Basic_Gauntlet_Right" d="M27.28,87.82l0.65,2.21l-1.85,8.35l0.72,2.07l-2.05,7.86l0.9,1.43 l-0.47,5.09l1.57,0.41l2.13-7.67l1.46-0.54l6.74-22.45l-8.91-0.93L27.28,87.82z" fill="rgb(43, 218, 227)"/>
<g id="Accent-Bottom_Basic_Gauntlet_Right" fill="rgb(176, 74, 212)">
<path d="M40.47,91.34l1.97,0.65l-0.97,2.92l-1.97-0.65L40.47,91.34z"/>
<path d="M38.79,96.45l1.97,0.65l-0.97,2.92l-1.97-0.65L38.79,96.45z"/>
<path d="M37.05,101.68l1.97,0.65l-0.97,2.92l-1.97-0.65L37.05,101.68z"/>
</g>
<path id="Bottom_Basic_Gauntlet_Right" d="M42.43,91.98l0.73-2.22l-6.19-4.8l-6.63,22.08l6.74,1.23l2.71-8.25 l-1.96-0.65l0.97-2.92l1.95,0.64l0.72-2.19l-1.97-0.65l0.97-2.92L42.43,91.98z M37.05,101.68l1.98,0.65l-0.96,2.92l-1.99-0.65 L37.05,101.68z" fill="rgb(43, 218, 227)"/><g id="No-Device_Attachment_Basic_Gauntlet_Right" class="option" style="display: inherit;">
</g>
</g>
</g>
</g>
<g id="GauntletsDecals" mask="url(#GauntletsMask)">
</g>
<g id="Shins">
<g id="Left-Shin"><g id="Basic_Shin_Left" class="option" style="display: inherit;">
<path id="Shin_Basic-Shin_Left" d="M121.62,179.69l-5.07-5.47l-10.06,1.36l-3.67,8.71l6.88,29.05 c4.47,1.82,10.9,0.87,14.37-2.3L121.62,179.69" fill="rgb(43, 218, 227)"/>
<path id="Trauma-Plating_Basic-Shin_Left" class="toggle" style="display:none" d="M122.31,210.31l-2.33-29.91l-4.07-4.4l-8.22,1.11 l-3.08,7.32l6.54,27.63C114.73,213.18,119.4,212.5,122.31,210.31" fill="rgb(255, 255, 255)"/>
<g id="Ridge_Basic-Shin_Left" class="toggle" style="" fill="rgb(176, 74, 212)">
<path d="M115.16,174.21l-3.57-0.34l-3.48,1.48l7.13,38.91c2.44,0.09,2.49,0.17,4.47-0.78L115.16,174.21"/>
<path d="M111.58,173.87l6.04,40.39"/>
</g>
</g>
</g>
<g id="Right-Shin"><g id="Basic_Shin_Right" class="option" style="display: inherit;">
<path id="Shin_Basic-Shin_Right" d="M48.3,179.69l5.07-5.47l10.06,1.36l3.67,8.71l-6.88,29.05 c-4.47,1.82-10.9,0.87-14.36-2.3L48.3,179.69" fill="rgb(43, 218, 227)"/>
<path id="Trauma-Plating_Basic-Shin_Right" class="toggle" style="display:none" d="M47.62,210.31l2.33-29.91l4.07-4.4l8.22,1.11l3.08,7.32 l-6.54,27.63C55.2,213.18,50.53,212.5,47.62,210.31" fill="rgb(255, 255, 255)"/>
<g id="Ridge_Basic-Shin_Right" class="toggle" style="" fill="rgb(176, 74, 212)">
<path d="M54.77,174.21l3.57-0.34l3.48,1.48l-7.13,38.91c-2.44,0.09-2.49,0.17-4.47-0.78L54.77,174.21"/>
<path d="M58.34,173.87l-6.05,40.39"/>
</g>
</g>
</g>
</g>
<g id="ShinsDecals" mask="url(#ShinsMask)">
</g>
<g id="Foot">
<g id="Left-Ankle"><g id="Legacy_Ankle_Left" class="option" style="display: inherit;">
<path id="Plate-2_Legacy-Ankle_Left" d="M126.71,222.74l4.34,3.89l2.99,3.74l-4.78,1.55l-10.95-2.26l-4.01-5.27 L126.71,222.74" fill="rgb(176, 74, 212)"/>
<path id="Plate-1_Legacy-Ankle_Left" d="M107,215.4c0,0,4.37,1.94,10.84,1.71c4.44-0.16,6.24-1.26,6.24-1.26 l3.76,6.93l-0.97,3.82l-15.84-1.24l-3.9-3.29L107,215.4" fill="rgb(43, 218, 227)"/>
<path id="Trauma-Plate-2_Legacy-Ankle_Left" class="toggle" style="display:none" d="M127.64,223.58l3.39,3.04l1.75,2.18l-3.64,1.18 l-9.65-1.99l-1.58-2.08l8.96,0.7L127.64,223.58" fill="rgb(255, 255, 255)"/>
<path id="Trauma-Plate-1_Legacy-Ankle_Left" class="toggle" style="display:none" d="M108.66,217.83l0.06,3.17l3.15,2.54l13.92,1.09 l0.99-3.82l-1.77-3.27c-1.17,0.33-4.74,1.36-7.08,1.44C114.21,219.12,110.73,218.37,108.66,217.83" fill="rgb(255, 255, 255)"/>
</g></g>
<g id="Left-Toe"><g id="None_Toe_Left" class="option" style="display: inherit;">
</g>
</g>
<g id="Right-Ankle"><g id="Legacy_Ankle_Right" class="option" style="display: inherit;">
<path id="Plate-2_Legacy-Ankle_Right" d="M43.17,222.74l-4.34,3.89l-2.99,3.74l4.78,1.55l10.95-2.26l4-5.27 L43.17,222.74" fill="rgb(176, 74, 212)"/>
<path id="Plate-1_Legacy-Ankle_Right" d="M62.87,215.4c0,0-4.37,1.94-10.84,1.71c-4.44-0.16-6.24-1.26-6.24-1.26 l-3.76,6.93L43,226.6l15.84-1.24l3.9-3.29L62.87,215.4" fill="rgb(43, 218, 227)"/>
<path id="Trauma-Plate-2_Legacy-Ankle_Right" class="toggle" style="display:none" d="M42.23,223.58l-3.39,3.04l-1.75,2.18l3.64,1.18 l9.65-1.99l1.58-2.08L43,226.6L42.23,223.58" fill="rgb(255, 255, 255)"/>
<path id="Trauma-Plate-1_Legacy-Ankle_Right" class="toggle" style="display:none" d="M61.21,217.83L61.15,221L58,223.54l-13.92,1.09 l-0.99-3.82l1.77-3.27c1.17,0.33,4.74,1.36,7.08,1.44C55.66,219.12,59.14,218.37,61.21,217.83" fill="rgb(255, 255, 255)"/>
</g></g>
<g id="Right-Toe"><g id="None_Toe_Right" class="option" style="display: inherit;">
</g>
</g>
</g>
<g id="FootDecals" mask="url(#FootMask)">
</g>
<g id="Knees">
<g id="Left-Knee"><g id="Basic_Knee_Left" class="option" style="display: inherit;">
<g id="Missiles_Basic-Knee_Left" class="toggle" style="display:none"/>
<g id="Knee_Basic-Knee_Left" fill="rgb(43, 218, 227)">
<path d="M96.42,158.84l1.43-0.23c0,0,1.08,6.92,1.56,9.99c0.12,0.79-0.42,1.54-1.21,1.66c0,0,0,0,0,0L96.42,158.84z "/>
<path d="M97.81,158.32l0.82,5.14c1.05-0.59,3.7,0.5,4.57,3.58c1.59,5.67,2.97,6.97,7.95,6.46 c3.87-0.4,6.64-2.2,6.96-4.87c0.46-3.85,0-9.43-0.23-11.79c-0.03-0.29-0.18-0.56-0.41-0.74c-0.23-0.18-0.53-0.26-0.82-0.23 C112.43,156.41,97.81,158.32,97.81,158.32z"/>
<path d="M97.31,158.39l0.49-0.07l0.92,5.56l-0.49,0.07L97.31,158.39z"/>
</g>
</g>
</g>
<g id="Right-Knee"><g id="Basic_Knee_Right" class="option" style="display: inherit;">
<g id="Missiles_Basic-Knee_Right" class="toggle" style="">
<path id="Base_Missiles_Basic-Knee_Right" d="M52.05,156.71c-0.01,0.04-0.02,0.08-0.02,0.12 c-0.19,1.94-0.54,6.05-0.4,9.6l-2.31-1.38c-0.37-0.22-0.6-0.63-0.59-1.06c0.03-1.32,0.09-4.18,0.13-5.69 c0.01-0.57,0.42-1.05,0.98-1.16L52.05,156.71z" fill="rgb(176, 74, 212)"/>
<g id="Missile-2_Missiles_Basic-Knee_Right" fill="rgb(0, 0, 0)">
<path d="M50.43,162.27c0.57,0.07,0.97,0.58,0.9,1.15c-0.07,0.57-0.59,0.97-1.16,0.9c-0.57-0.07-0.97-0.58-0.9-1.15 C49.34,162.6,49.86,162.2,50.43,162.27z"/>
<path d="M50.38,162.6c0.38,0.04,0.65,0.39,0.61,0.77c-0.05,0.38-0.4,0.65-0.78,0.61 c-0.38-0.05-0.65-0.39-0.61-0.77C49.65,162.83,50,162.55,50.38,162.6z"/>
</g>
<g id="Missile-1_Missiles_Basic-Knee_Right" fill="rgb(0, 0, 0)">
<path d="M50.56,157.78c0.57,0.07,0.97,0.58,0.9,1.15c-0.07,0.57-0.59,0.97-1.16,0.9s-0.97-0.58-0.9-1.15 C49.47,158.12,49.99,157.71,50.56,157.78z"/>
<path d="M50.51,158.12c0.38,0.04,0.65,0.39,0.61,0.77s-0.4,0.65-0.78,0.61c-0.38-0.05-0.65-0.39-0.61-0.77 S50.13,158.07,50.51,158.12z"/>
</g>
</g>
<g id="Knee_Basic-Knee_Right" fill="rgb(43, 218, 227)">
<path d="M73.47,158.84l-1.43-0.23c0,0-1.08,6.92-1.56,9.99c-0.12,0.79,0.42,1.54,1.21,1.66c0,0,0,0,0,0 L73.47,158.84z"/>
<path d="M72.09,158.32l-0.82,5.14c-1.05-0.59-3.7,0.5-4.57,3.58c-1.59,5.67-2.97,6.97-7.95,6.46 c-3.87-0.4-6.64-2.2-6.96-4.87c-0.46-3.85,0-9.43,0.23-11.79c0.03-0.29,0.18-0.56,0.41-0.74c0.23-0.18,0.53-0.26,0.82-0.23 C57.46,156.41,72.09,158.32,72.09,158.32z"/>
<path d="M72.58,158.39l-0.49-0.07l-0.92,5.56l0.49,0.07L72.58,158.39z"/>
</g>
</g>
</g>
</g>
<g id="KneesDecals" mask="url(#KneesMask)">
</g>
<g id="Thighs">
<g id="Left-Thigh"><g id="Pocket_Thigh_Left" class="option" fill="rgb(79, 79, 79)" style="display: inherit;">
<path d="M118.69,124.47c0.55,6.45,1.32,12.57,2.29,18.39c0.2,1.16-0.11,2.35-0.83,3.27c-0.73,0.93-1.82,1.5-3,1.59 c-5.35,0.43-10.77,1.25-16.24,2.29c-0.92,0.18-1.87-0.03-2.64-0.56c-0.76-0.54-1.27-1.36-1.41-2.28 c-0.92-6.1-2.78-18.4-3.5-23.17c-0.16-1.08,0.58-2.09,1.67-2.26c2.42-0.38,6.21-0.97,6.21-0.97L118.69,124.47"/>
<path d="M116.17,118.36c0.76-0.12,1.5,0.3,1.78,1.01c0.92,2.45,1.72,6.36,1.1,8.36c-0.8,2.59-8.94,17.56-10.96,21.25 c-0.28,0.52-0.8,0.86-1.38,0.93c-1.16,0.14-3.16,0.37-4.49,0.52c-0.73,0.08-1.4-0.43-1.51-1.15c-0.67-4.44-2.86-19-3.7-24.61 c-0.2-1.36-1.18-2.47-2.51-2.85l0,0C94.5,121.82,111.39,119.12,116.17,118.36"/>
<path id="Stitch_Left" d="M115.92,118.39c1.72-0.23,2.97,6.8,2.41,8.62c-0.72,2.34-8.84,17.84-10.67,21.18 c-0.25,0.47-0.72,0.78-1.25,0.84l-3.5,0.5c-0.66,0.08-1.27-0.38-1.37-1.04c-0.6-4.01-2.96-19.62-3.75-24.68 c-0.28-1.79-2.19-2.17-2.19-2.17"/>
<path d="M94.96,121.74l21.05-3.36"/>
</g></g>
<g id="Right-Thigh"><g id="Pocket_Thigh_Right" class="option" fill="rgb(79, 79, 79)" style="display: inherit;">
<path d="M51.2,124.47c-0.55,6.45-1.32,12.57-2.29,18.39c-0.2,1.16,0.1,2.35,0.83,3.27c0.73,0.93,1.82,1.5,2.99,1.59 c5.35,0.43,10.77,1.25,16.24,2.29c0.92,0.18,1.87-0.03,2.64-0.56c0.76-0.54,1.27-1.36,1.41-2.28c0.92-6.1,2.78-18.4,3.5-23.17 c0.16-1.08-0.58-2.09-1.67-2.26c-2.42-0.38-6.21-0.97-6.21-0.97L51.2,124.47"/>
<path d="M53.73,118.36c-0.76-0.12-1.5,0.3-1.78,1.01c-0.92,2.45-1.72,6.36-1.1,8.36c0.8,2.59,8.94,17.56,10.96,21.25 c0.28,0.52,0.8,0.86,1.38,0.93c1.16,0.14,3.16,0.37,4.48,0.52c0.74,0.08,1.4-0.43,1.51-1.15c0.67-4.44,2.86-19,3.7-24.61 c0.2-1.36,1.18-2.47,2.51-2.85l0,0C75.39,121.82,58.5,119.12,53.73,118.36"/>
<path id="Stitch_Right" d="M53.97,118.39c-1.72-0.23-2.97,6.8-2.41,8.62c0.72,2.34,8.84,17.84,10.67,21.18 c0.25,0.47,0.72,0.78,1.25,0.84l3.5,0.5c0.66,0.08,1.27-0.38,1.37-1.04c0.6-4.01,2.97-19.62,3.75-24.68 c0.28-1.79,2.19-2.17,2.19-2.17"/>
<path d="M74.93,121.74l-21.05-3.36"/>
</g></g>
</g>
<g id="ThighsDecals" mask="url(#ThighsMask)">
</g>
<g id="Groin">
<g id="None_Groin" class="option" style="display: inherit;">
</g></g>
<g id="GroinDecals" mask="url(#GroinMask)">
</g>
<g id="Waist">
<g id="Accessories_Waist">
<g id="Kama" class="toggle" style="">
<g id="Clean_Kama" class="option" style="display: inherit;">
<g id="Trim_Kama-Clean" fill="rgb(176, 74, 212)">
<path d="M101.37,83.6l3.59,57.21l26.42,17.47l-20.04-77.38L101.37,83.6z"/>
<path d="M68.55,83.6l-3.59,57.21l-26.42,17.47l20.04-77.38L68.55,83.6z"/>
</g>
<g id="Main_Kama-Clean" fill="rgb(36, 36, 36)">
<path d="M103.25,83.48l3.47,55.33l23.83,16.29l-19.22-74.21L103.25,83.48z"/>
<path d="M66.67,83.48l-3.47,55.33L39.36,155.1l19.22-74.21L66.67,83.48z"/>
</g>
</g></g>
<g id="Loin-Cloth" class="toggle" style="display:none"/>
<g id="Left-Holster" class="toggle" style="display:none"/>
<g id="Right-Holster" class="toggle" style="display:none"/>
<g id="Left-Trophy" class="toggle" style="display:none"/>
<g id="Right-Trophy" class="toggle" style="display:none"/>
</g>
<g id="Under-Belt"><g id="Girth-Belt" class="option" fill="rgb(36, 36, 36)" style="display: inherit;">
<path d="M84.93,84.93c-9.33,0-27.98-2.25-27.98-2.25l0.61-1.91c0,0,18.19,1.5,27.37,2.25 c9.13-0.75,27.37-2.25,27.37-2.25l0.6,1.91C112.91,82.68,94.25,84.93,84.93,84.93z"/>
<path d="M84.93,86.84c-9.52,0-28.56-2.25-28.56-2.25l0.58-1.91c0,0,23.31,1.88,27.98,2.25 c4.66-0.38,27.98-2.25,27.98-2.25l0.58,1.91C113.49,84.59,94.45,86.84,84.93,86.84z"/>
<path d="M84.93,88.75c-9.67,0-28.99-2.25-28.99-2.25l0.43-1.91c0,0,23.8,1.88,28.56,2.25 c4.76-0.38,28.56-2.25,28.56-2.25l0.43,1.91C113.92,86.49,94.6,88.75,84.93,88.75z"/>
<path d="M84.93,90.65c-9.79,0-29.36-2.25-29.36-2.25l0.37-1.91c0,0,24.16,1.88,28.99,2.25 c4.83-0.38,28.99-2.25,28.99-2.25l0.37,1.91C114.29,88.4,94.72,90.65,84.93,90.65z"/>
<path d="M84.93,92.56c-9.9,0-29.69-2.25-29.69-2.25l0.33-1.91c0,0,24.47,1.88,29.36,2.25 c4.89-0.38,29.36-2.25,29.36-2.25l0.33,1.91C114.62,90.31,94.83,92.56,84.93,92.56z"/>
<path d="M84.93,94.47c-10,0-30-2.25-30-2.25l0.31-1.91c0,0,24.74,1.88,29.69,2.25c4.95-0.38,29.69-2.25,29.69-2.25 l0.31,1.91C114.93,92.21,94.93,94.47,84.93,94.47z"/>
<path d="M84.93,96.37c-10.1,0-30.31-2.25-30.31-2.25l0.31-1.91c0,0,25,1.88,30,2.25c5-0.38,30-2.25,30-2.25 l0.31,1.91C115.24,94.12,95.03,96.37,84.93,96.37z"/>
<path d="M84.93,98.28c-10.21,0-30.62-2.25-30.62-2.25l0.32-1.91c0,0,25.26,1.88,30.31,2.25 c5.05-0.38,30.31-2.25,30.31-2.25l0.32,1.91C115.55,96.03,95.14,98.28,84.93,98.28z"/>
<path d="M84.93,100.19c-10.32,0-30.97-2.25-30.97-2.25l0.34-1.91c0,0,25.52,1.88,30.62,2.25 c5.1-0.38,30.62-2.25,30.62-2.25l0.35,1.91C115.9,97.93,95.25,100.19,84.93,100.19z"/>
<path d="M84.93,102.09c-10.45,0-31.36-2.25-31.36-2.25l0.39-1.91c0,0,25.81,1.88,30.97,2.25 c5.16-0.38,30.97-2.25,30.97-2.25l0.39,1.91C116.29,99.84,95.38,102.09,84.93,102.09z"/>
</g>
</g>
<g id="Belt">
<g id="Pouch-Belt-Full" class="option" style="display: inherit;">
<path id="Main_Pouch-Belt-Full" d="M115.21,92.96c-6.82,0.61-22.4,2.82-30.27,2.82c-7.94,0-23.52-2.23-30.26-2.82 l1.01-7.93c5.53,0.49,21.56,2.74,29.26,2.74c7.47,0,23.17-2.23,29.07-2.76L115.21,92.96z" fill="rgb(54, 53, 52)"/>
<g id="Pouches_Pouch-Belt-Full" fill="rgb(79, 79, 79)">
<g>
<g>
<g>
<path d="M70.81,84.99c-0.29-0.02-0.58,0.03-0.84,0.13c-0.71,0.28-2.1,0.82-2.1,0.82l8.08,0.46l2.19-0.93 C78.13,85.47,72.44,85.1,70.81,84.99z"/>
<path d="M78.41,85.74c0.01-0.09-0.03-0.17-0.1-0.22c-0.07-0.05-0.16-0.06-0.24-0.03 c-0.7,0.3-2.14,0.91-2.14,0.91l-1.05,12.41c0.72-0.42,1.44-0.69,2.15-0.84c0.41-0.08,0.7-0.43,0.71-0.85 C77.88,93.32,78.03,89.52,78.41,85.74z"/>
<path d="M75.94,86.4l-8.08-0.46c-0.05,1.89-0.23,3.77-0.33,5.65c-0.11,2.08-0.15,4.18-0.34,6.28 c-0.01,0.15,0.04,0.3,0.14,0.41c0.1,0.11,0.25,0.17,0.4,0.17c2.32-0.01,4.63,0.13,6.93,0.4c0.14,0.02,0.29-0.03,0.4-0.12 c0.11-0.09,0.18-0.23,0.19-0.37c0.1-1.47,0.37-5.34,0.37-5.34L75.94,86.4z"/>
<path d="M75.94,86.4l-8.08-0.46c0,0-0.19,1.59-0.38,3.14c-0.09,0.75,0.13,1.51,0.62,2.09 c0.49,0.58,1.2,0.94,1.96,0.98c0.96,0.05,2.01,0.11,2.97,0.17c0.76,0.04,1.51-0.23,2.07-0.75c0.55-0.52,0.86-1.25,0.86-2.01 C75.95,88,75.94,86.4,75.94,86.4z"/>
<path d="M71.64,90.76c0.29,0.02,0.51,0.26,0.49,0.55c-0.02,0.29-0.26,0.5-0.55,0.49 c-0.29-0.02-0.51-0.26-0.49-0.55S71.36,90.75,71.64,90.76z"/>
</g>
</g>
<g>
<g>
<path d="M59.65,83.48c-0.31-0.02-0.62,0.03-0.91,0.16c-0.67,0.29-1.86,0.81-1.86,0.81l7.38,0.42l2-0.95 C66.26,83.92,61.24,83.58,59.65,83.48z"/>
<path d="M66.52,84.2c0.01-0.09-0.03-0.17-0.1-0.22c-0.07-0.05-0.17-0.06-0.24-0.02c-0.66,0.31-1.91,0.9-1.91,0.9 l-1.02,12.42c0.65-0.41,1.29-0.68,1.93-0.85c0.39-0.09,0.68-0.44,0.69-0.84C65.99,91.79,66.15,87.99,66.52,84.2z"/>
<path d="M64.26,84.86l-7.38-0.42c-0.06,1.89-0.23,3.77-0.33,5.65c-0.11,2.08-0.16,4.17-0.34,6.28 c-0.01,0.15,0.04,0.3,0.14,0.41c0.1,0.11,0.25,0.17,0.4,0.17c2.08-0.01,4.15,0.11,6.22,0.36c0.14,0.02,0.29-0.02,0.4-0.12 c0.11-0.09,0.18-0.23,0.19-0.37c0.1-1.47,0.37-5.34,0.37-5.34L64.26,84.86z"/>
<path d="M64.26,84.86l-7.38-0.42c0,0-0.18,1.6-0.36,3.15c-0.09,0.75,0.14,1.5,0.63,2.08 c0.49,0.58,1.2,0.93,1.96,0.97c0.73,0.04,1.51,0.09,2.23,0.13c0.76,0.04,1.51-0.23,2.06-0.75c0.55-0.52,0.87-1.24,0.86-2 C64.26,86.47,64.26,84.86,64.26,84.86z"/>
<path d="M60.31,89.24c0.26,0.01,0.46,0.26,0.44,0.54c-0.02,0.29-0.24,0.51-0.5,0.49 c-0.26-0.01-0.46-0.26-0.44-0.54C59.83,89.44,60.05,89.22,60.31,89.24z"/>
</g>
</g>
<g>
<path d="M52.22,84.3l0.55-0.85l2.83,0.09l0.35,1.06L52.22,84.3z"/>
<path d="M55.93,84.7c0.01-0.07-0.01-0.13-0.06-0.18s-0.11-0.08-0.17-0.08c-0.85-0.03-3.48-0.13-3.48-0.13 l-0.5,11.17c0.11,0.28,1.53,0.46,2.68,0.49c0.5,0.01,0.91-0.38,0.92-0.88C55.4,91.61,55.53,88.15,55.93,84.7z"/>
</g>
</g>
<g>
<g>
<g>
<path d="M99.08,84.99c0.29-0.02,0.58,0.03,0.85,0.13c0.71,0.28,2.1,0.82,2.1,0.82l-8.08,0.46l-2.19-0.93 C91.76,85.47,97.45,85.1,99.08,84.99z"/>
<path d="M91.48,85.74c-0.01-0.09,0.03-0.17,0.1-0.22c0.07-0.05,0.16-0.06,0.24-0.03c0.7,0.3,2.14,0.91,2.14,0.91 L95,98.82c-0.72-0.42-1.44-0.69-2.15-0.84c-0.41-0.08-0.7-0.43-0.71-0.85C92.01,93.32,91.86,89.52,91.48,85.74z"/>
<path d="M93.95,86.4l8.08-0.46c0.05,1.89,0.23,3.77,0.33,5.65c0.11,2.08,0.15,4.18,0.34,6.28 c0.01,0.15-0.04,0.3-0.14,0.41c-0.1,0.11-0.25,0.17-0.4,0.17c-2.32-0.01-4.63,0.13-6.93,0.4c-0.14,0.02-0.29-0.03-0.4-0.12 c-0.11-0.09-0.18-0.23-0.19-0.37c-0.1-1.47-0.37-5.34-0.37-5.34L93.95,86.4z"/>
<path d="M93.95,86.4l8.08-0.46c0,0,0.19,1.59,0.38,3.14c0.09,0.75-0.14,1.51-0.62,2.09 c-0.49,0.58-1.2,0.94-1.96,0.98c-0.96,0.05-2.01,0.11-2.97,0.17c-0.76,0.04-1.51-0.23-2.06-0.75s-0.87-1.25-0.86-2.01 C93.94,88,93.95,86.4,93.95,86.4z"/>
<path d="M98.25,90.76c-0.29,0.02-0.51,0.26-0.49,0.55c0.02,0.29,0.26,0.5,0.55,0.49 c0.29-0.02,0.51-0.26,0.49-0.55C98.78,90.96,98.54,90.75,98.25,90.76z"/>
</g>
</g>
<g>
<g>
<path d="M110.24,83.48c0.31-0.02,0.62,0.03,0.91,0.16c0.67,0.29,1.86,0.81,1.86,0.81l-7.38,0.42l-2-0.95 C103.63,83.92,108.65,83.58,110.24,83.48z"/>
<path d="M103.37,84.2c-0.01-0.09,0.03-0.17,0.1-0.22c0.07-0.05,0.17-0.06,0.24-0.02c0.66,0.31,1.91,0.9,1.91,0.9 l1.02,12.42c-0.65-0.41-1.29-0.68-1.93-0.85c-0.39-0.09-0.68-0.44-0.69-0.84C103.9,91.79,103.74,87.99,103.37,84.2z"/>
<path d="M105.63,84.86l7.38-0.42c0.06,1.89,0.23,3.77,0.33,5.65c0.11,2.08,0.16,4.17,0.34,6.28 c0.01,0.15-0.04,0.3-0.14,0.41c-0.1,0.11-0.25,0.17-0.4,0.17c-2.08-0.01-4.15,0.11-6.22,0.36c-0.14,0.02-0.29-0.02-0.4-0.12 c-0.11-0.09-0.18-0.23-0.19-0.37c-0.1-1.47-0.37-5.34-0.37-5.34L105.63,84.86z"/>
<path d="M105.63,84.86l7.38-0.42c0,0,0.18,1.6,0.36,3.15c0.09,0.75-0.14,1.5-0.63,2.08 c-0.49,0.58-1.2,0.93-1.96,0.97c-0.72,0.04-1.5,0.09-2.23,0.13c-0.76,0.04-1.51-0.23-2.06-0.75c-0.55-0.52-0.87-1.24-0.86-2 C105.63,86.47,105.63,84.86,105.63,84.86z"/>
<path d="M109.58,89.24c-0.26,0.01-0.46,0.26-0.44,0.54c0.02,0.29,0.24,0.51,0.5,0.49s0.46-0.26,0.44-0.54 C110.07,89.44,109.84,89.22,109.58,89.24z"/>
</g>
</g>
<g>
<path d="M117.67,84.3l-0.55-0.85l-2.83,0.09l-0.35,1.06L117.67,84.3z"/>
<path d="M113.96,84.7c-0.01-0.07,0.01-0.13,0.06-0.18s0.11-0.08,0.18-0.08c0.85-0.03,3.48-0.13,3.48-0.13 l0.5,11.17c-0.11,0.28-1.53,0.46-2.68,0.49c-0.5,0.01-0.91-0.38-0.92-0.88C114.49,91.61,114.36,88.15,113.96,84.7z"/>
</g>
</g>
<path d="M88.56,85.67l1.11,1.08l-9.15-0.17l0.71-1L88.56,85.67z"/>
<path d="M80.52,86.58l9.12,0.17c-0.1,1.97-0.06,3.93-0.11,5.9c-0.06,2.18-0.18,4.37-0.15,6.57 c0,0.15-0.06,0.3-0.17,0.4c-0.11,0.1-0.26,0.16-0.41,0.15c-2.65-0.2-5.31-0.25-7.97-0.15c-0.14,0-0.28-0.05-0.39-0.15 c-0.1-0.1-0.16-0.24-0.16-0.38c0.01-1.51,0.03-5.6,0.03-5.6L80.52,86.58z"/>
<path d="M80.52,86.58l9.12,0.17c0,0,0.08,1.74,0.17,3.4c0.04,0.76-0.25,1.5-0.78,2.05 c-0.53,0.55-1.27,0.85-2.04,0.83c-1.28-0.02-2.79-0.05-4.07-0.08c-0.77-0.01-1.49-0.35-2.01-0.91c-0.51-0.57-0.76-1.32-0.7-2.08 C80.36,88.31,80.52,86.58,80.52,86.58z"/>
<path d="M84.98,91.45c-0.32-0.01-0.59,0.23-0.6,0.53c0,0.3,0.25,0.54,0.58,0.55c0.32,0.01,0.59-0.23,0.6-0.53 C85.56,91.7,85.3,91.46,84.98,91.45z"/>
</g>
</g></g>
</g>
<g id="WaistDecals" mask="url(#WaistMask)">
</g>
<g id="Extras_Front">
<g id="Front"><g id="None_Front" class="option" style="display: inherit;">
</g>
</g>
</g>
<g id="Extras-FrontDecals" mask="url(#FrontMask)">
</g>
</g>
</svg>