<?xml version='1.0' encoding='UTF-8'?>
<svg version="1.1" id="Male-Body" xmlns="http://www.w3.org/2000/svg" xmlns:serif="http://www.serif.com/" viewBox="0 -55 170 300" style="stroke-width: 0.2px; fill-rule: evenodd; stroke-linejoin: round;" width="170" height="300">
<style>
mask {
mask-type: alpha;
}
.decal {
stroke: none;
}
</style>
<defs id="Masks" stroke="none">
<mask id="HelmetsMask"> <use href="#Helmets"/> </mask>
<mask id="CollarMask"> <use href="#Collar"/> </mask>
<mask id="ShouldersMask"> <use href="#Shoulders"/> </mask>
<mask id="ChestMask"> <use href="#Chest"/> </mask>
<mask id="BicepsMask"> <use href="#Biceps"/> </mask>
<mask id="GauntletsMask"> <use href="#Gauntlets"/> </mask>
<mask id="WaistMask"> <use href="#Waist"/> </mask>
<mask id="GroinMask"> <use href="#Groin"/> </mask>
<mask id="ThighsMask"> <use href="#Thighs"/> </mask>
<mask id="KneesMask"> <use href="#Knees"/> </mask>
<mask id="ShinsMask"> <use href="#Shins"/> </mask>
<mask id="FootMask"> <use href="#Foot"/> </mask>
</defs>
<defs id="Decals"/><metadata><rdf:rdf xmlns:rdf="http://www.w3.org/1999/02/22-rdf-syntax-ns#" xmlns:rdfs="http://www.w3.org/2000/01/rdf-schema#" xmlns:dc="http://purl.org/dc/elements/1.1/"><rdf:description><dc:creator>MandoCreator</dc:creator><dc:publisher>https://www.mandocreator.com</dc:publisher><dc:description>Your Beskar'gam - created by MandoCreator</dc:description><dc:format>image/svg+xml</dc:format><dc:type>Image</dc:type><dc:title>MandoCreator - Ner Berskar'gam</dc:title><dc:date>2022-01-02T16:19:54.470Z</dc:date></rdf:description></rdf:rdf></metadata><g id="Main-Body" fill="white" stroke="black">
<g id="Extras_Back">
<g id="Back"><g id="NO-CAPES_Back" class="option" style="display: inherit;">
</g>
</g>
</g>
<g id="Extras-BackDecals" mask="url(#BackMask)">
</g>
<g id="Suit">
<g id="Neck-Seal"><g id="Standard-Neck-Seal" class="option" fill="rgb(39, 36, 36)" style="display: inherit;">
<path d="M98.75,7.5c0-0.9-0.93-1.62-2.07-1.62c0,0-7.8,0.85-11.7,0.85s-11.7-0.85-11.7-0.85 c-1.14,0-2.07,0.73-2.07,1.62s0.93,1.62,2.07,1.62c0,0,7.8,0.85,11.7,0.85s11.7-0.85,11.7-0.85C97.83,9.13,98.75,8.4,98.75,7.5z"/>
<path d="M99.45,9.4c0-0.94-0.97-1.71-2.17-1.71c0,0-8.2,0.9-12.29,0.9S72.69,7.7,72.69,7.7 c-1.2,0-2.17,0.76-2.17,1.71s0.97,1.71,2.17,1.71c0,0,8.2,0.9,12.29,0.9s12.29-0.9,12.29-0.9C98.48,11.11,99.45,10.34,99.45,9.4z "/>
<path d="M100.24,11.76c0-0.99-1.03-1.8-2.29-1.8c0,0-8.64,0.95-12.96,0.95S72.02,9.96,72.02,9.96 c-1.26,0-2.29,0.81-2.29,1.8s1.03,1.8,2.29,1.8c0,0,8.64,0.95,12.97,0.95s12.96-0.95,12.96-0.95 C99.21,13.56,100.24,12.75,100.24,11.76z"/>
<path d="M101,13.92c0-1.04-1.08-1.89-2.41-1.89c0,0-9.08,0.99-13.61,0.99s-13.61-0.99-13.61-0.99 c-1.33,0-2.41,0.85-2.41,1.89c0,1.04,1.08,1.89,2.41,1.89c0,0,9.08,0.99,13.61,0.99s13.61-0.99,13.61-0.99 C99.93,15.81,101,14.96,101,13.92z"/>
<path d="M101.76,16.04c0-0.79-1.13-1.43-2.52-1.43c0,0-9.51,0.75-14.26,0.75s-14.26-0.75-14.26-0.75 c-1.39,0-2.52,0.64-2.52,1.43c0,0.79,1.13,1.43,2.52,1.43c0,0,9.51,0.75,14.26,0.75s14.26-0.75,14.26-0.75 C100.63,17.47,101.76,16.83,101.76,16.04z"/>
<path d="M101.76,18.42c0-0.79-1.13-1.43-2.52-1.43c0,0-9.51,0.75-14.26,0.75s-14.26-0.75-14.26-0.75 c-1.39,0-2.52,0.64-2.52,1.43c0,0.79,1.13,1.43,2.52,1.43c0,0,9.51,1.44,14.26,1.44s14.26-1.44,14.26-1.44 C100.63,19.84,101.76,19.21,101.76,18.42z"/>
</g>
</g>
<g id="Flight-Suit" fill="rgb(39, 36, 36)">
<path d="M73.36,158.45l-1.49,8.72l-11.03,53.11c0,0-4.93,2.96-7.47,3.46c-2.53,0.5-7.73-0.44-7.73-0.44l3.85-43 l2.9-18.36l0.66-7.82c0,0-2.53-22.78-1.7-34.14c0.82-11.36,6.66-34.01,6.66-34.01l26.98,0.58l26.97-0.58 c0,0,5.83,22.66,6.66,34.01c0.83,11.36-1.7,34.14-1.7,34.14l0.66,7.82l2.9,18.36l3.85,43c0,0-5.32,1.19-7.85,0.69 c-2.53-0.5-7.34-3.71-7.34-3.71L98.1,167.16l-1.49-8.72l-11.62-30.33L73.36,158.45z"/>
<g>
<path d="M129.41,43.33l11.98,41.65l1.04,21.47l-9.55,1.83l-6.05-20.21l-13.65-33.95l0.69-15.55l2.31-3.72 L129.41,43.33z"/>
<path d="M40.59,43.3l13.19-8.45l2.31,3.72l0.52,16.04L43.17,88.07l-6.05,20.21l-9.55-1.83l1.03-21.47L40.59,43.3z"/>
</g>
</g>
<g id="Sleeves" class="toggle" style="display: none;" fill="rgb(255, 255, 255)"/>
</g>
<g id="Boots"><g id="Gunslinger_Boots" class="option" style="display: inherit;">
<g id="Main_Gunslinger-Boot" fill="rgb(0, 0, 0)">
<path d="M107.7,226.61c0.04,0.2,0.73,3.41,4.27,4.29c1.18,0.3,3.21-0.33,4.48-0.98c1.74-0.89,3.57-1.58,5.44-2.12 l0.06,0.08c0.03,0.04,0.06,0.08,0.09,0.12c0.58,0.81,1.21,1.57,1.89,2.26l0.05,0.05l0.03,0.03c0.07,0.07,0.14,0.14,0.21,0.2 c0.4,0.38,0.81,0.74,1.23,1.07l0.12,0.09l0.1,0.07c0.03,0.02,0.06,0.04,0.09,0.06c0.07,0.05,0.13,0.1,0.2,0.14 c0.88,0.62,2.06,1.56,3.23,1.39c1.11-0.16,2.35-0.6,3.28-1.04c0.78-0.37,1.59-0.87,2.13-1.4c0.16-0.12,0.29-0.26,0.39-0.44 c2.57,1,5.36,1.38,6.73,4.22c0.3,0.62,0.55,1.35,0.49,2.04c-0.08,0.89-1.06,1-1.82,1.2c-1.9,0.51-3.53,0.89-5.72,1.34 c-2.5,0.52-4.76,0.83-7.29,0.72c-1.89-0.08-3.49-0.18-5.14-1.19c-0.66-0.41-1.34-0.82-1.92-1.35c-1.28-1.19-2.11-2.43-3.77-3.15 c-1.2-0.52-2.44-0.96-3.71-1.27c-1.8-0.45-3.74-0.76-4.69-2.54C107.42,229.16,107.51,227.91,107.7,226.61L107.7,226.61"/>
<path d="M62.28,226.61c-0.04,0.2-0.73,3.41-4.27,4.29c-1.18,0.3-3.2-0.33-4.48-0.98c-1.74-0.89-3.57-1.58-5.44-2.12 l-0.05,0.08c-0.03,0.04-0.06,0.08-0.09,0.12c-0.58,0.81-1.21,1.57-1.89,2.26l-0.05,0.05l-0.03,0.03 c-0.07,0.07-0.14,0.14-0.21,0.2c-0.4,0.38-0.81,0.74-1.23,1.07l-0.12,0.09l-0.1,0.07c-0.03,0.02-0.06,0.04-0.09,0.06 c-0.07,0.05-0.13,0.1-0.2,0.14c-0.88,0.62-2.06,1.56-3.23,1.39c-1.1-0.16-2.35-0.6-3.28-1.04c-0.78-0.37-1.59-0.87-2.13-1.4 c-0.16-0.12-0.29-0.26-0.39-0.44c-2.57,1-5.36,1.38-6.73,4.22c-0.3,0.62-0.55,1.35-0.48,2.04c0.08,0.89,1.06,1,1.82,1.2 c1.9,0.51,3.53,0.89,5.72,1.34c2.5,0.52,4.76,0.83,7.29,0.72c1.89-0.08,3.49-0.18,5.14-1.19c0.66-0.41,1.35-0.82,1.92-1.35 c1.28-1.19,2.11-2.43,3.77-3.15c1.2-0.52,2.44-0.96,3.71-1.27c1.8-0.45,3.74-0.76,4.69-2.54 C62.56,229.16,62.48,227.91,62.28,226.61L62.28,226.61"/>
</g>
<g id="Bottom_Gunslinger-Boot" fill="rgb(58, 36, 18)">
<path d="M107.64,229.04c0.08,0.49,0.24,0.98,0.51,1.49c0.95,1.78,2.89,2.09,4.69,2.54c1.27,0.32,2.51,0.75,3.71,1.27 c1.66,0.72,2.48,1.96,3.77,3.15c0.57,0.53,1.25,0.94,1.92,1.35c1.65,1.01,3.25,1.11,5.14,1.19c2.53,0.1,4.78-0.2,7.29-0.72 c2.19-0.46,3.82-0.84,5.72-1.34c0.61-0.16,1.36-0.27,1.67-0.76l0,0l0.36,0.8l0.21,1.64c0,0-2.03,1.09-4.2,1.57 c-2.16,0.48-6.53,1.15-6.53,1.15l-0.3-0.71l-0.98,0.21l0.05,0.7l-2.38,0.13l-0.51-0.69l-0.79,0.02l0.12,0.61 c0,0-1.47-0.02-2.29-0.51c-0.15-0.23-0.46-0.61-0.46-0.61l-0.56-0.31l0.07,0.58l-2.04-0.73l-0.1-0.79l-0.59-0.34l-0.03,0.57 l-1.46-1.12l-0.16-0.69l-3.64-2.55l-0.57,1.33l-2.55-0.55l-0.08-0.55l-0.65-0.27l-0.45,0.42l-1.71-0.7l-0.04-0.51l-0.56-0.19 l-0.06,0.37l-1.62-1.12l-0.31-2.23l-0.07-2.42L107.64,229.04L107.64,229.04"/>
<path d="M62.35,229.04c-0.08,0.49-0.24,0.98-0.51,1.49c-0.95,1.78-2.89,2.09-4.69,2.54 c-1.27,0.32-2.51,0.75-3.71,1.27c-1.66,0.72-2.48,1.96-3.77,3.15c-0.57,0.53-1.25,0.94-1.92,1.35c-1.65,1.01-3.25,1.11-5.14,1.19 c-2.53,0.1-4.78-0.2-7.29-0.72c-2.19-0.46-3.83-0.84-5.72-1.34c-0.61-0.16-1.36-0.27-1.67-0.76l0,0l-0.36,0.8l-0.21,1.64 c0,0,2.03,1.09,4.2,1.57c2.16,0.48,6.53,1.15,6.53,1.15l0.3-0.71l0.98,0.21l-0.05,0.7l2.38,0.13l0.51-0.69l0.8,0.02l-0.12,0.61 c0,0,1.47-0.02,2.29-0.51c0.15-0.23,0.46-0.61,0.46-0.61l0.56-0.31l-0.07,0.58l2.04-0.73l0.1-0.79l0.59-0.34l0.02,0.57l1.46-1.12 l0.16-0.69l3.64-2.55l0.57,1.33l2.55-0.55l0.08-0.55l0.65-0.27l0.45,0.42l1.71-0.7l0.04-0.51l0.56-0.19l0.07,0.37l1.62-1.12 l0.31-2.23l0.07-2.42L62.35,229.04L62.35,229.04"/>
</g>
<g id="Top_Gunslinger-Boot" fill="rgb(39, 36, 36)">
<path d="M121.87,227.77c-2.17-3.11-3.64-6.92-4.16-10.29l0,0l0.61-0.05l0.02,0l0.07-0.01l0.2-0.02l0.31-0.03 l0.13-0.02c0.35-0.04,0.7-0.09,1.04-0.14l0.54-0.1l0.11-0.03l0.04-0.01l0.08-0.02l0.37-0.09l0.33-0.08l0.06-0.01 c1.15-0.29,2.31-0.64,2.31-0.64c0.32,1.48,0.47,3.17,1.09,4.56c0.98,2.18,2.78,3.85,4.46,5.51c1.15,1.14,2.28,2.44,3.66,3.31 c0.58,0.37,1.21,0.66,1.84,0.9c-0.49,0.67-1.54,1.37-2.53,1.84c-0.93,0.44-2.17,0.88-3.28,1.04c-1.17,0.17-2.35-0.77-3.23-1.39 c-1.53-1.07-2.89-2.53-4.06-4.19L121.87,227.77"/>
<path d="M48.12,227.77c2.17-3.11,3.64-6.92,4.16-10.29l0,0l-0.61-0.05l-0.02,0l-0.08-0.01l-0.2-0.02l-0.31-0.03 l-0.13-0.02c-0.35-0.04-0.7-0.09-1.04-0.14l-0.54-0.1l-0.11-0.03l-0.04-0.01l-0.08-0.02l-0.37-0.09l-0.33-0.08l-0.06-0.01 c-1.15-0.29-2.31-0.64-2.31-0.64c-0.32,1.48-0.47,3.17-1.09,4.56c-0.98,2.18-2.78,3.85-4.46,5.51c-1.15,1.14-2.28,2.44-3.66,3.31 c-0.58,0.37-1.21,0.66-1.84,0.9c0.49,0.67,1.53,1.37,2.53,1.84c0.93,0.44,2.17,0.88,3.28,1.04c1.17,0.17,2.35-0.77,3.23-1.39 c1.53-1.07,2.89-2.53,4.06-4.19L48.12,227.77"/>
</g>
<g id="Side_Gunslinger-Boot" fill="rgb(39, 36, 36)">
<path d="M121.89,227.8c-1.87,0.54-3.7,1.24-5.44,2.12c-1.27,0.65-3.3,1.27-4.48,0.98c-3.66-0.92-4.27-4.3-4.27-4.3 c0.11-0.74,0.25-1.5,0.3-2.3c0.1-1.54-0.11-8.21,0.02-8.14c2.94,1.56,8.18,1.45,9.67,1.33l0,0 C118.23,220.86,119.71,224.69,121.89,227.8"/>
<path d="M48.09,227.8c1.87,0.54,3.7,1.24,5.44,2.12c1.27,0.65,3.3,1.27,4.48,0.98c3.66-0.92,4.27-4.3,4.27-4.3 c-0.11-0.74-0.25-1.5-0.3-2.3c-0.1-1.54,0.11-8.21-0.02-8.14c-2.94,1.56-8.18,1.45-9.67,1.33l0,0 C51.76,220.86,50.28,224.69,48.09,227.8"/>
</g>
</g></g>
<g id="Gloves">
<g id="Left-Glove"><g id="Basic_Left_Glove" class="option" fill="rgb(39, 36, 36)" style="display: inherit;">
<path d="M138.6,124.11c-0.54-0.03-1.05-0.01-1.58,0.1c-0.36,0.08-0.72,0.16-1.04,0.35 c-0.99,0.57-0.72,1.81,0.16,2.28c1.03,0.55,2.66,0.01,3.13-1.05C139.46,125.35,138.86,124.53,138.6,124.11"/>
<path d="M136.79,125.19c-0.54-0.03-1.05-0.02-1.59,0.1c-0.36,0.08-0.72,0.16-1.04,0.35 c-0.99,0.57-0.72,1.81,0.16,2.28c1.03,0.55,2.66,0.01,3.13-1.05C137.65,126.43,137.05,125.61,136.79,125.19"/>
<path d="M135.49,126.65c-0.54,0.05-1.19,0.13-1.7,0.31c-0.35,0.12-0.69,0.26-0.99,0.48c-0.9,0.7-0.47,1.89,0.47,2.24 c1.1,0.41,2.64-0.35,2.96-1.46C136.36,127.76,135.49,126.65,135.49,126.65z"/>
<path d="M132.55,110.05c0,0-1.56,2.15-1.97,3.69c-0.29,1.09-0.13,3.68-0.49,5.43c-0.36,1.74-0.69,2.71-0.69,2.71 s-1.38,2.79-1.14,3.43c0.24,0.64,1.45,1.21,2.15,0.87c0.86-0.42,1.93-2.39,2.61-3.77c0.69-1.41,1.25-3.41,1.25-3.41 s0.95,0.32,1.43,0.7c1.61,1.24,0.91,4.96,0.91,4.96s-0.66,1.33-1.66,2.83c-1.36,2.05-3.46,3.81-2.07,5.37 c1.29,1.46,4.22-2.37,4.22-2.37l2.87-3.73c0,0,3.3-5.41,3.47-6.46c0.13-0.8,0.02-3.47,0.02-3.47l-1.03-10.37l-5.24,0.44 l-4.31,1.39L132.55,110.05"/>
</g>
</g>
<g id="Right-Glove"><g id="Basic_Right_Glove" class="option" fill="rgb(39, 36, 36)" style="display: inherit;">
<path d="M31.4,124.11c0.54-0.03,1.05-0.01,1.58,0.1c0.36,0.08,0.72,0.16,1.04,0.35c0.99,0.57,0.72,1.81-0.16,2.28 c-1.03,0.55-2.66,0.01-3.13-1.05C30.53,125.35,31.14,124.53,31.4,124.11"/>
<path d="M33.21,125.19c0.54-0.03,1.05-0.02,1.58,0.1c0.36,0.08,0.72,0.16,1.04,0.35c0.99,0.57,0.72,1.81-0.16,2.28 c-1.03,0.55-2.66,0.01-3.13-1.05C32.35,126.43,32.95,125.61,33.21,125.19"/>
<path d="M34.51,126.65c0.54,0.05,1.19,0.13,1.7,0.31c0.35,0.12,0.69,0.26,0.99,0.48c0.9,0.7,0.47,1.89-0.47,2.24 c-1.1,0.41-2.64-0.35-2.96-1.46C33.64,127.76,34.51,126.65,34.51,126.65z"/>
<path d="M37.45,110.05c0,0,1.56,2.15,1.97,3.69c0.29,1.09,0.13,3.68,0.49,5.43c0.36,1.74,0.69,2.71,0.69,2.71 s1.38,2.79,1.14,3.43c-0.24,0.64-1.45,1.21-2.15,0.87c-0.86-0.42-1.93-2.39-2.61-3.77C36.29,121,35.73,119,35.73,119 s-0.95,0.32-1.43,0.7c-1.61,1.24-0.91,4.96-0.91,4.96s0.66,1.33,1.66,2.83c1.36,2.05,3.46,3.81,2.08,5.37 c-1.29,1.46-4.22-2.37-4.22-2.37l-2.87-3.73c0,0-3.3-5.41-3.47-6.46c-0.13-0.8-0.02-3.47-0.02-3.47l1.03-10.37l5.24,0.44 l4.31,1.39L37.45,110.05"/>
</g>
</g>
</g>
<g id="Biceps">
<g id="Left-Biceps"><g id="Basic_Biceps_Left" class="option" style="display: inherit;">
<path id="Main_Basic_Biceps_Left" d="M134.37,52.38c-1.14-2.74-6.21-14.78-6.21-14.78s-8.34,3.42-10.42,4.28 c-0.59,0.24-0.87,0.91-0.63,1.5c0.98,2.36,3.38,8.14,4.87,11.74c0.34,0.81,0.99,1.46,1.81,1.8c0.82,0.34,1.74,0.34,2.56,0 c2.45-1.01,5.73-2.35,7.4-3.04C134.33,53.63,134.61,52.96,134.37,52.38z" fill="rgb(0, 0, 0)"/>
<path id="Strap_Basic_Biceps_Left" d="M119.35,48.7l-5.85,2.4l-0.14,4.29l7.49-3.07L119.35,48.7" fill="rgb(0, 0, 0)"/>
<path id="Trauma-Plate_Basic_Biceps_Left" class="toggle" style="" d="M134.34,51.81l-5.29-12.74l-10.16,4.17l4.67,11.24 c0.17,0.4,0.49,0.72,0.89,0.88c0.4,0.17,0.85,0.17,1.26,0L134.34,51.81" fill="rgb(79, 7, 7)"/>
</g>
</g>
<g id="Right-Biceps"><g id="Basic_Biceps_Right" class="option" style="display: inherit;">
<path id="Main_Basic_Biceps_Right" d="M35.65,52.38c1.14-2.74,6.22-14.78,6.22-14.78s8.34,3.42,10.42,4.28 c0.59,0.24,0.87,0.91,0.63,1.5c-0.98,2.36-3.38,8.14-4.87,11.74c-0.34,0.81-0.99,1.46-1.81,1.8c-0.82,0.34-1.74,0.34-2.56,0 c-2.45-1.01-5.73-2.35-7.4-3.04C35.69,53.63,35.41,52.96,35.65,52.38z" fill="rgb(0, 0, 0)"/>
<path id="Strap_Basic_Biceps_Right" d="M50.68,48.7l5.85,2.4l0.14,4.29l-7.49-3.07L50.68,48.7" fill="rgb(0, 0, 0)"/>
<path id="Trauma-Plate_Basic_Biceps_Right" class="toggle" style="" d="M35.69,51.81l5.29-12.74l10.16,4.17l-4.66,11.24 c-0.17,0.4-0.49,0.72-0.89,0.88s-0.85,0.17-1.26,0L35.69,51.81" fill="rgb(79, 7, 7)"/>
</g>
</g>
</g>
<g id="BicepsDecals" mask="url(#BicepsMask)">
</g>
<path id="Vest" d="M85,20.92c8.5-0.01,15.43-4.3,15.63-8.01l0.15,0.02l18.38,5.42l13.31,23.94l-2.86,1.16l-13.42-8.6 l-2.31,3.72l-1.54,47.4c0,0-8.72,4.71-13.53,5.35c-3.44,0.45-8.63,0.68-13.79,0.67c-5.16,0.01-10.35-0.22-13.79-0.67 c-4.81-0.63-13.53-5.35-13.53-5.35l-1.54-47.4l-2.31-3.72l-13.42,8.6l-2.86-1.16l13.31-23.94l18.38-5.42l0.15-0.02 C69.57,16.62,76.5,20.92,85,20.92" fill="rgb(39, 36, 36)"/>
<g id="SuitDecals" mask="url(#SuitMask)">
</g>
<g class="swappable" id="Chest"><g id="Chest_Gunslinger">
<g id="Abdomen_Gunslinger">
<g id="Left_Abdomen_Gunslinger" fill="rgb(79, 7, 7)">
<path d="M99.07,74.44l7.25-12.98l-3.77-5.3l-0.3-0.64l-4.12,0.51l-1.69,20L99.07,74.44z"/>
<path d="M99.07,74.44l7.25-12.98l1.9,2.67l2.51-1.99l-0.67,8.89L99.07,74.44z"/>
</g>
<g id="Right_Abdomen_Gunslinger" fill="rgb(79, 7, 7)">
<path d="M70.93,74.44l-7.25-12.98l-1.9,2.67l-2.51-1.99l0.67,8.89L70.93,74.44z"/>
<path d="M70.93,74.44l-7.25-12.98l3.77-5.3l0.3-0.64l4.12,0.51l1.69,20L70.93,74.44z"/>
</g>
<path id="Center_Abdomen_Gunslinger" d="M85,51.76l13.13,4.27l-1.69,20l-2.01,1.21L85,76.74l-9.43,0.51l-2.01-1.21 l-1.69-20L85,51.76z" fill="rgb(0, 0, 0)"/>
</g>
<g id="Chest-Plates_Gunslinger">
<g id="Left-Chest_Gunslinger" fill="rgb(0, 0, 0)">
<path d="M85.76,29.31v-3.08l2.54-2.52l24.4-2.75l2.19,13.55l-3.63,27.22l-3.03,2.41l-5.67-7.97l-1.59-3.38 l-15.13-4.59l3.93-3.91V32.92L85.76,29.31z"/>
<path d="M100.96,52.78l11.15-6.55l2.77-11.71l-2.45,12.59l-9.88,9.05L100.96,52.78z"/>
<path d="M102.25,55.52l-4.12,0.51L85,51.76v-3.78l15.96,4.79L102.25,55.52z"/>
</g>
<g id="Right-Chest_Gunslinger" fill="rgb(0, 0, 0)">
<path d="M84.24,29.31v-3.08l-2.54-2.52l-24.4-2.75L55.12,34.5l3.63,27.22l3.03,2.41l5.67-7.97l1.59-3.38l15.13-4.59 l-3.93-3.91V32.92L84.24,29.31z"/>
<path d="M69.04,52.78l-11.15-6.55l-2.77-11.71l2.45,12.59l9.88,9.05L69.04,52.78z"/>
<path d="M67.75,55.52l4.12,0.51L85,51.76v-3.78l-15.96,4.79L67.75,55.52z"/>
</g>
</g>
<g id="Iron-Heart_Gunslinger">
<path id="Under-Heart_Gunslinger" d="M84.17,48.19l-3.93-3.91V32.92l4.01-3.61v-3.08h1.51v3.08l4.01,3.61v11.36 l-3.93,3.91L85,47.98L84.17,48.19z" fill="rgb(79, 7, 7)"/>
<path id="Heart_Gunslinger" d="M82.1,43.35v-9.4l2.9-2.88l2.9,2.88v9.4L85,46.23L82.1,43.35z" fill="rgb(0, 0, 0)"/><rect id="Center_Heart_Gunslinger" class="option" x="84.14" y="34.52" width="1.72" height="8.25" fill="rgb(79, 7, 7)" style="display: inherit;"/>
</g>
</g></g>
<g id="ChestDecals" mask="url(#ChestMask)">
</g>
<g id="Chest-Attachments"><g id="No-Device_Accessories_Chest" class="option" style="display: inherit;">
</g>
</g>
<g id="Collar"><g id="None_Collar" class="option" style="display: inherit;">
</g>
</g>
<g id="CollarDecals" mask="url(#CollarMask)">
</g>
<g id="Helmets" class="swappable" transform="translate(45,-52)"><g id="Helmet_Executioner">
<g id="Left-Earcap_Executioner" class="toggle">
<g id="Ear-Cap_Left_Executioner">
<path id="Base_Ear-Cap_Left_Executioner" d="M59.32,61.29l2.09-1.41h-1.64V36.13h-0.45V61.29z" fill="rgb(79, 7, 7)"/>
<rect id="Middle_Ear-Cap_Left_Executioner" x="59.78" y="41.28" width="1.11" height="18.59" fill="rgb(0, 0, 0)"/>
<path id="Top_Ear-Cap_Left_Executioner" d="M59.78,36.13l1.5,1.5v3.66h-1.5V36.13z" fill="rgb(0, 0, 0)"/>
</g>
</g>
<g id="Right-Earcap_Executioner" class="toggle">
<g id="Ear-Cap_Right_Executioner">
<path id="Base_Ear-Cap_Right_Executioner" d="M21.91,61.29l-2.09-1.41h1.64V36.13h0.45V61.29z" fill="rgb(79, 7, 7)"/>
<rect id="Middle_Ear-Cap_Right_Executioner" x="20.34" y="41.28" width="1.11" height="18.59" fill="rgb(0, 0, 0)"/>
<path id="Top_Ear-Cap_Right_Executioner" d="M21.45,36.13l-1.5,1.5v3.66h1.5V36.13z" fill="rgb(0, 0, 0)"/>
</g>
<g id="Range-Finder_Right_Executioner" class="option" style="display: inherit;">
<path id="Shaft_Right_Range-Finder_Executioner" d="M20.28,10.6l1.08,0l0.03,26.9l-1.1,0.07L20.28,10.6z" fill="rgb(0, 0, 0)"/>
<path id="Finder_Right_Range-Finder_Executioner" d="M28.46,7.93l-5.95,0.36l0.19-0.75l6.91-1.07L28.46,7.93" fill="rgb(79, 7, 7)"/>
<g id="Cover_Right_Range-Finder_Executioner" fill="rgb(0, 0, 0)">
<path d="M19.35,9.52l2.84,0.01l0.51-1.99l7.43-1.16l0.1-0.77L19.55,5.87l-0.96,1.38L19.35,9.52"/>
<path d="M20.12,9.52l1.41,0.01l0,1.07l-1.41,0L20.12,9.52"/>
</g>
</g>
</g>
<g id="Helmet_Pieces_Executioner">
<g id="Face_Executioner" fill="rgb(56, 53, 53)">
<path d="M34.19,66.91l-11.48-5.2l0.01-0.03c0.11-0.57,1.91-9.8,4.7-12.06c2.48-2.01,4.41,0.11,4.71,0.46l0.04,0.05 l0,0l0.7,3.81c0.86,5.63,1.29,12.3,1.33,12.92L34.19,66.91"/>
<path d="M47.04,66.91l11.48-5.2l-0.01-0.03c-0.11-0.57-1.91-9.8-4.7-12.06c-2.48-2.01-4.42,0.11-4.71,0.46 l-0.04,0.05l0,0l-0.7,3.81c-0.86,5.63-1.29,12.3-1.33,12.92L47.04,66.91"/>
</g>
<g id="Cheeks_Executioner" fill="rgb(0, 0, 0)">
<path d="M21.91,42.24c0,0,7.06,0.75,9.17,4.6c0.4,0.72,0.75,1.88,1.07,3.28c0,0-2.06-2.69-4.75-0.5 c-2.88,2.34-4.7,12.09-4.7,12.09l-0.79-0.42V42.24"/>
<path d="M59.32,42.24c0,0-7.06,0.75-9.17,4.6c-0.4,0.72-0.75,1.88-1.07,3.28c0,0,2.06-2.69,4.75-0.5 c2.88,2.34,4.7,12.09,4.7,12.09l0.79-0.42V42.24"/>
</g>
<path id="Chin_Executioner" d="M36.2,67.23l-2.01-0.33l0.26-0.93l2.77-2.31h6.79l2.77,2.31l0.26,0.93l-2.01,0.33H36.2 z" fill="rgb(0, 0, 0)"/>
<g id="Eyes_Executioner" fill="rgb(79, 7, 7)">
<path d="M34.18,66.86c-0.06-0.95-1.06-16.29-3.1-20.02c-2.11-3.85-9.17-4.6-9.17-4.6v-6.25 c0-0.37,0.29-0.68,0.66-0.69c2.66-0.13,12.67-0.62,18.05-0.62s15.39,0.49,18.05,0.62c0.37,0.02,0.66,0.33,0.66,0.69 c0,1.73,0,6.25,0,6.25s-7.06,0.75-9.17,4.6c-2.04,3.73-3.04,19.07-3.1,20.02l0,0.05l-0.26-0.93l-2.77-2.31h-6.79l-2.77,2.31 l-0.26,0.93L34.18,66.86"/>
<path d="M41.36,45.53l1.12,3.55c-0.28,0.12-0.56,0.22-0.83,0.28l-0.68-2.9c0,0-0.23-0.16-0.35-0.16 s-0.35,0.16-0.35,0.16l-0.68,2.9c-0.27-0.06-0.55-0.15-0.83-0.28l1.12-3.55H41.36z"/>
</g>
<g fill="rgb(0, 0, 0)" id="Visor_Executioner">
<g>
<path d="M39.83,57.68h-0.6v5.99h0.6V57.68"/>
<path d="M37.78,57.68h-0.6v5.99h0.6V57.68"/>
<path d="M41.4,57.68h0.6v5.99h-0.6V57.68"/>
<path d="M43.45,57.68h0.61v5.99h-0.61V57.68"/>
</g>
<path d="M38.75,49.09c-0.91-0.4-1.52-1.08-1.86-1.98c0,0,1.3-4.22,1.92-5.35c0.33-0.6,1.21-1.44,1.81-1.59 c0.62,0.15,1.48,0.99,1.81,1.59c0.62,1.13,1.92,5.35,1.92,5.35c-0.35,0.9-0.95,1.57-1.87,1.98l-1.12-3.55h-1.5L38.75,49.09"/>
<path d="M22.52,36.85c0,0,13.86-0.42,18.09-0.42s18.09,0.42,18.09,0.42v1.02l-13.1,2.8l-4.16-2.7 c0,0-0.55-0.1-0.82-0.1c-0.27,0-0.82,0.1-0.82,0.1l-4.17,2.7l-13.1-2.8V36.85"/>
</g>
<path id="Dome-2_Executioner" d="M22.54,35.3c0.02-9.63,8.11-17.44,18.08-17.44s18.06,7.81,18.08,17.44 c-0.01,0-0.02,0-0.03,0c-2.65-0.13-12.67-0.62-18.05-0.62s-15.39,0.49-18.05,0.62C22.56,35.3,22.55,35.3,22.54,35.3" fill="rgb(0, 0, 0)"/>
<g id="Dome-1_Executioner" fill="rgb(130, 3, 3)">
<path d="M37.56,32.85l2.26-0.54v1.09L37.56,32.85"/>
<path d="M43.67,32.85l-2.26-0.54v1.09L43.67,32.85"/>
</g>
</g>
</g></g>
<g id="HelmetsDecals" mask="url(#HelmetsMask)"/>
<g id="Shoulders">
<g id="Left-Shoulder"><g id="Legacy-x2_Shoulder_Left" class="option" style="display: inherit;">
<path id="Plate-2_Shoulder_Left_Legacy-x2" d="M115.99,15.27l-5.8,8.69l5.95,8.29l9.39-2.29l5.9,3.63l4.41-1.15 L115.99,15.27z" fill="rgb(0, 0, 0)"/>
<path id="Trauma-Plate-2_Shoulder_Legacy-x2_Left" class="toggle" style="" d="M131.69,31.78l2.85-0.74l-17.1-14.9l-5.19,7.75 l4.6,6.43l8.64-2.17L131.69,31.78z" fill="rgb(79, 7, 7)"/>
<path id="Plate-1_Shoulder_Left_Legacy-x2" d="M108.85,10.82l-2.61,10.1l8.36,5.89l8.12-5.22l6.77,1.51l3.79-2.53 L108.85,10.82z" fill="rgb(0, 0, 0)"/>
<path id="Trauma-Plate-1_Shoulder_Legacy-x2_Left" class="toggle" style="" d="M129.14,21.3l2.45-1.64L110.5,11.2l-2.33,9.02 l6.47,4.56l7.43-4.88L129.14,21.3z" fill="rgb(79, 7, 7)"/>
</g></g>
<g id="Right-Shoulder"><g id="Legacy-x3_Shoulder_Right" class="option" style="display: inherit;">
<path id="Plate-3_Shoulder_Right_Legacy-x3" d="M50.05,19.89l7.33,7.47l-4.29,9.25l-9.66-0.51l-5.11,4.66 l-4.55-0.32L50.05,19.89z" fill="rgb(0, 0, 0)"/>
<path id="Trauma-Plate-3_Shoulder_Legacy-x3_Right" class="toggle" style="" d="M37.7,39.03l-2.94-0.21L48.8,21.04l6.54,6.67 l-3.32,7.16l-8.89-0.55L37.7,39.03z" fill="rgb(79, 7, 7)"/>
<path id="Plate-2_Shoulder_Right_Legacy-x3" d="M54.01,15.27l5.8,8.69l-5.95,8.29l-9.39-2.29l-5.9,3.63l-4.41-1.15 L54.01,15.27z" fill="rgb(0, 0, 0)"/>
<path id="Trauma-Plate-2_Shoulder_Legacy-x3_Right" class="toggle" style="" d="M38.31,31.78l-2.85-0.74l17.1-14.9l5.19,7.75 l-4.6,6.43l-8.64-2.17L38.31,31.78z" fill="rgb(79, 7, 7)"/>
<path id="Plate-1_Shoulder_Right_Legacy-x3" d="M61.15,10.82l2.61,10.1l-8.36,5.89l-8.12-5.22l-6.77,1.51 l-3.79-2.53L61.15,10.82z" fill="rgb(0, 0, 0)"/>
<path id="Trauma-Plate-1_Shoulder_Legacy-x3_Right" class="toggle" style="" d="M40.86,21.3l-2.45-1.64l21.09-8.46l2.33,9.02 l-6.47,4.56l-7.44-4.88L40.86,21.3z" fill="rgb(79, 7, 7)"/>
</g></g>
</g>
<g id="ShouldersDecals" mask="url(#ShouldersMask)">
</g>
<g id="Gauntlets">
<g id="Left-Gauntlets"><g id="Basic_Gauntlet_Left" class="option" style="display: inherit;">
<path id="Top-2_Basic_Gauntlet_Left" d="M145.21,108.31l1.36-2.17l-3.89-18.32l-0.65,2.21l1.85,8.35l-0.72,2.07 L145.21,108.31z" fill="rgb(0, 0, 0)"/>
<path id="Top-1_Basic_Gauntlet_Left" d="M142.68,87.82l-0.65,2.21l1.85,8.35l-0.72,2.07l2.05,7.86l-0.9,1.43 l0.47,5.09l-1.57,0.41l-2.13-7.67l-1.46-0.54l-6.74-22.45l8.91-0.93L142.68,87.82z" fill="rgb(79, 7, 7)"/>
<g id="Accent-Bottom_Basic_Gauntlet_Left" fill="rgb(0, 0, 0)">
<path d="M129.49,91.34l-1.97,0.65l0.97,2.92l1.97-0.65L129.49,91.34z"/>
<path d="M131.16,96.45l-1.97,0.65l0.97,2.92l1.97-0.65L131.16,96.45z"/>
<path d="M132.91,101.68l-1.97,0.65l0.97,2.92l1.97-0.65L132.91,101.68z"/>
</g>
<path id="Bottom_Basic_Gauntlet_Left" d="M127.53,91.98l-0.73-2.22l6.19-4.8l6.63,22.08l-6.74,1.23l-2.71-8.25 l1.96-0.65l-0.97-2.92l-1.95,0.64l-0.72-2.19l1.97-0.65l-0.97-2.92L127.53,91.98z M132.91,101.68l-1.98,0.65l0.96,2.92l1.99-0.65 L132.91,101.68z" fill="rgb(79, 7, 7)"/><g id="No-Device_Attachment_Basic_Gauntlet_Left" class="option" style="display: inherit;">
</g>
</g>
</g>
<g id="Right-Gauntlets"><g id="Basic_Gauntlet_Right" class="option" style="display: inherit;">
<path id="Top-2_Basic_Gauntlet_Right" d="M24.75,108.31l-1.36-2.17l3.89-18.32l0.65,2.21l-1.85,8.35l0.72,2.07 L24.75,108.31z" fill="rgb(0, 0, 0)"/>
<path id="Top-1_Basic_Gauntlet_Right" d="M27.28,87.82l0.65,2.21l-1.85,8.35l0.72,2.07l-2.05,7.86l0.9,1.43 l-0.47,5.09l1.57,0.41l2.13-7.67l1.46-0.54l6.74-22.45l-8.91-0.93L27.28,87.82z" fill="rgb(79, 7, 7)"/>
<g id="Accent-Bottom_Basic_Gauntlet_Right" fill="rgb(0, 0, 0)">
<path d="M40.47,91.34l1.97,0.65l-0.97,2.92l-1.97-0.65L40.47,91.34z"/>
<path d="M38.79,96.45l1.97,0.65l-0.97,2.92l-1.97-0.65L38.79,96.45z"/>
<path d="M37.05,101.68l1.97,0.65l-0.97,2.92l-1.97-0.65L37.05,101.68z"/>
</g>
<path id="Bottom_Basic_Gauntlet_Right" d="M42.43,91.98l0.73-2.22l-6.19-4.8l-6.63,22.08l6.74,1.23l2.71-8.25 l-1.96-0.65l0.97-2.92l1.95,0.64l0.72-2.19l-1.97-0.65l0.97-2.92L42.43,91.98z M37.05,101.68l1.98,0.65l-0.96,2.92l-1.99-0.65 L37.05,101.68z" fill="rgb(79, 7, 7)"/><g id="Flamethrower_Attachment_Basic_Gauntlet_Right" class="option" style="display: inherit;">
<g id="Tubes_Flamethrower_Attachment_Basic_Gauntlet_Right" fill="rgb(142, 136, 136)">
<path d="M26.5,84.51l0.82,0.17l-5.18,24.73l-0.82-0.17L26.5,84.51z"/>
<path d="M24.63,84.13l0.82,0.17l-3.71,17.73l-0.82-0.17L24.63,84.13z"/>
<path d="M26.02,86.03l1.12,0.23l-1.23,5.89l-1.12-0.23L26.02,86.03z"/>
<path d="M24.15,85.64l1.12,0.23l-1.23,5.89l-1.12-0.23L24.15,85.64z"/>
</g>
<g id="Main_Flamethrower_Attachment_Basic_Gauntlet_Right" fill="rgb(0, 0, 0)">
<path d="M24.28,84.05l3.36,0.69l-0.32,1.55l-3.36-0.7L24.28,84.05z"/>
<path d="M22.65,91.48l3.51,0.73l-0.2,0.94l-3.51-0.73L22.65,91.48z"/>
<path d="M22.59,92.45l3.22,0.67l-0.1,0.48l-3.22-0.67L22.59,92.45z"/>
<path d="M25.92,91.54l0.54,0.13l-0.61,2.88l-0.54-0.13L25.92,91.54z"/>
</g>
<g id="Accent_Flamethrower_Attachment_Basic_Gauntlet_Right" fill="rgb(0, 0, 0)">
<path d="M20.89,101.85l0.87,0.18l-0.12,1.24l-1.14-0.24L20.89,101.85z"/>
<path d="M21.87,95.48l1.55,0.32l-0.39,1.88l-1.55-0.32L21.87,95.48z"/>
<path d="M21.69,97.4l1.12,0.23l-0.39,1.88l-1.12-0.23L21.69,97.4z"/>
<path d="M21.82,106.08l1.12,0.23l-0.54,2.57l-1.12-0.23L21.82,106.08z"/>
<path d="M23.56,97.79l1.12,0.23l-0.73,3.5l-1.12-0.23L23.56,97.79z"/>
<path d="M21.34,107.33l1.55,0.32l-0.11,0.5l-1.55-0.32L21.34,107.33z"/>
</g>
<path id="Base_Flamethrower_Attachment_Basic_Gauntlet_Right" d="M26.46,91.67l1.65-7.8l-1.01,0.17l-2.79,13.19 l0.84,0.61l0.7-3.3l-0.54-0.13l0.61-2.88L26.46,91.67z" fill="rgb(139, 87, 42)"/>
</g></g>
</g>
</g>
<g id="GauntletsDecals" mask="url(#GauntletsMask)">
</g>
<g id="Shins">
<g id="Left-Shin"><g id="Legacy_Shin_Left" class="option" style="display: inherit;">
<path id="Plate-3_Legacy-Shin_Left" d="M106.28,197.61l4.11,15.38c0,0,4.92,0.96,7.57,0.65 c2.65-0.31,6.2-1.73,6.2-1.73l-1.54-16.54l-7.09,4.38L106.28,197.61" fill="rgb(0, 0, 0)"/>
<path id="Plate-2_Legacy-Shin_Left" d="M103.21,188.12l2.4,9.33l9.92,2.29l7.71-4.76l-0.77-9.42l-8.66,4.43 L103.21,188.12" fill="rgb(0, 0, 0)"/>
<path id="Plate-1_Legacy-Shin_Left" d="M106.81,174.99l-5.99,6.53l1.7,6.48l11.29,2l9.26-4.74l-0.62-7.98 l-7.29-3.49L106.81,174.99" fill="rgb(0, 0, 0)"/>
<path id="Trauma-Plate-3_Legacy-Shin_Left" class="toggle" style="" d="M121.19,198.24l-4.76,2.94 c-0.38,0.24-0.84,0.31-1.28,0.21l-6.5-1.5l3.11,11.63c1.5,0.25,4.28,0.65,6.01,0.44c1.54-0.18,3.41-0.77,4.59-1.18L121.19,198.24 " fill="rgb(79, 7, 7)"/>
<path id="Trauma-Plate-2_Legacy-Shin_Left" class="toggle" style="" d="M120.98,188.23l-6.39,3.27 c-0.33,0.17-0.71,0.23-1.08,0.16l-8.01-1.42l1.49,5.8l8.23,1.9l6.23-3.85L120.98,188.23" fill="rgb(79, 7, 7)"/>
<path id="Trauma-Plate-1_Legacy-Shin_Left" class="toggle" style="" d="M107.66,176.57l-4.95,5.41l1.19,4.54l9.65,1.71l7.75-3.96 l-0.46-5.89l-5.94-2.85L107.66,176.57" fill="rgb(79, 7, 7)"/>
<g id="Ridge_Legacy-Shin_Left" class="toggle" style="" fill="rgb(39, 35, 35)">
<path d="M115.66,213.72l0.59,0.02c-0.32,0-0.63-0.01-0.93-0.05L115.66,213.72"/>
<path d="M116.89,188.48l1.15,9.78l-2.5,1.55l-3.59-0.83l-2.06-9.61l3.93,0.7L116.89,188.48"/>
<path d="M118.04,198.25l1.76,15.04c-1.13,0.24-2.37,0.44-3.54,0.45l-0.59-0.02l-0.34-0.02l-0.23-0.02l-3.15-14.71 l3.59,0.83L118.04,198.25"/>
<path d="M106.82,175.04l-0.01-0.05l4.01-1.6l4.34,0.4l0.01,0.06l-0.01,0l-0.02,0l0.02,0l0.01,0l1.71,14.63 l-3.08,1.57l-3.93-0.7L106.82,175.04"/>
<path d="M110.83,173.38l2.99,16.67"/>
<path d="M113.81,190.05l1.72,9.75"/>
<path d="M115.53,199.8l2.28,13.84"/>
</g>
</g></g>
<g id="Right-Shin"><g id="Legacy_Shin_Right" class="option" style="display: inherit;">
<path id="Plate-3_Legacy-Shin_Right" d="M63.61,197.61l-4.11,15.38c0,0-4.92,0.96-7.57,0.65 c-2.65-0.31-6.2-1.73-6.2-1.73l1.55-16.54l7.09,4.38L63.61,197.61" fill="rgb(0, 0, 0)"/>
<path id="Plate-2_Legacy-Shin_Right" d="M66.68,188.12l-2.4,9.33l-9.92,2.29l-7.71-4.76l0.77-9.42l8.66,4.43 L66.68,188.12" fill="rgb(0, 0, 0)"/>
<path id="Plate-1_Legacy-Shin_Right" d="M63.08,174.99l5.99,6.53l-1.7,6.48l-11.29,2l-9.26-4.74l0.62-7.98 l7.29-3.49L63.08,174.99" fill="rgb(0, 0, 0)"/>
<path id="Trauma-Plate-3_Legacy-Shin_Right" class="toggle" style="" d="M48.71,198.24l4.76,2.94c0.38,0.24,0.84,0.31,1.28,0.21 l6.5-1.5l-3.11,11.63c-1.5,0.25-4.28,0.65-6.01,0.44c-1.54-0.18-3.41-0.77-4.59-1.18L48.71,198.24" fill="rgb(79, 7, 7)"/>
<path id="Trauma-Plate-2_Legacy-Shin_Right" class="toggle" style="" d="M48.91,188.23l6.39,3.27c0.33,0.17,0.71,0.23,1.08,0.16 l8.01-1.42l-1.49,5.8l-8.23,1.9l-6.23-3.85L48.91,188.23" fill="rgb(79, 7, 7)"/>
<path id="Trauma-Plate-1_Legacy-Shin_Right" class="toggle" style="" d="M62.23,176.57l4.95,5.41L66,186.52l-9.65,1.71 l-7.75-3.96l0.46-5.89l5.94-2.85L62.23,176.57" fill="rgb(79, 7, 7)"/>
<g id="Ridge_Legacy-Shin_Right" class="toggle" style="" fill="rgb(39, 35, 35)">
<path d="M54.23,213.72l-0.59,0.02c0.32,0,0.63-0.01,0.94-0.05L54.23,213.72"/>
<path d="M53,188.48l-1.15,9.78l2.5,1.55l3.59-0.83l2.06-9.61l-3.93,0.7L53,188.48"/>
<path d="M51.86,198.25l-1.76,15.04c1.13,0.24,2.37,0.44,3.54,0.45l0.59-0.02l0.34-0.02l0.23-0.02l3.15-14.71 l-3.59,0.83L51.86,198.25"/>
<path d="M63.07,175.04l0.01-0.05l-4.01-1.6l-4.34,0.4l-0.01,0.06l0.01,0l0.02,0l-0.02,0l-0.01,0L53,188.48 l3.08,1.57l3.93-0.7L63.07,175.04"/>
<path d="M59.06,173.38l-2.99,16.67"/>
<path d="M56.08,190.05l-1.72,9.75"/>
<path d="M54.36,199.8l-2.28,13.84"/>
</g>
</g></g>
</g>
<g id="ShinsDecals" mask="url(#ShinsMask)">
</g>
<g id="Foot">
<g id="Left-Ankle"><g id="Legacy_Ankle_Left" class="option" style="display: inherit;">
<path id="Plate-2_Legacy-Ankle_Left" d="M126.71,222.74l4.34,3.89l2.99,3.74l-4.78,1.55l-10.95-2.26l-4.01-5.27 L126.71,222.74" fill="rgb(0, 0, 0)"/>
<path id="Plate-1_Legacy-Ankle_Left" d="M107,215.4c0,0,4.37,1.94,10.84,1.71c4.44-0.16,6.24-1.26,6.24-1.26 l3.76,6.93l-0.97,3.82l-15.84-1.24l-3.9-3.29L107,215.4" fill="rgb(0, 0, 0)"/>
<path id="Trauma-Plate-2_Legacy-Ankle_Left" class="toggle" style="" d="M127.64,223.58l3.39,3.04l1.75,2.18l-3.64,1.18 l-9.65-1.99l-1.58-2.08l8.96,0.7L127.64,223.58" fill="rgb(79, 7, 7)"/>
<path id="Trauma-Plate-1_Legacy-Ankle_Left" class="toggle" style="" d="M108.66,217.83l0.06,3.17l3.15,2.54l13.92,1.09 l0.99-3.82l-1.77-3.27c-1.17,0.33-4.74,1.36-7.08,1.44C114.21,219.12,110.73,218.37,108.66,217.83" fill="rgb(79, 7, 7)"/>
</g></g>
<g id="Left-Toe"><g id="None_Toe_Left" class="option" style="display: inherit;">
</g>
</g>
<g id="Right-Ankle"><g id="Legacy_Ankle_Right" class="option" style="display: inherit;">
<path id="Plate-2_Legacy-Ankle_Right" d="M43.17,222.74l-4.34,3.89l-2.99,3.74l4.78,1.55l10.95-2.26l4-5.27 L43.17,222.74" fill="rgb(0, 0, 0)"/>
<path id="Plate-1_Legacy-Ankle_Right" d="M62.87,215.4c0,0-4.37,1.94-10.84,1.71c-4.44-0.16-6.24-1.26-6.24-1.26 l-3.76,6.93L43,226.6l15.84-1.24l3.9-3.29L62.87,215.4" fill="rgb(0, 0, 0)"/>
<path id="Trauma-Plate-2_Legacy-Ankle_Right" class="toggle" style="" d="M42.23,223.58l-3.39,3.04l-1.75,2.18l3.64,1.18 l9.65-1.99l1.58-2.08L43,226.6L42.23,223.58" fill="rgb(79, 7, 7)"/>
<path id="Trauma-Plate-1_Legacy-Ankle_Right" class="toggle" style="" d="M61.21,217.83L61.15,221L58,223.54l-13.92,1.09 l-0.99-3.82l1.77-3.27c1.17,0.33,4.74,1.36,7.08,1.44C55.66,219.12,59.14,218.37,61.21,217.83" fill="rgb(79, 7, 7)"/>
</g></g>
<g id="Right-Toe"><g id="None_Toe_Right" class="option" style="display: inherit;">
</g>
</g>
</g>
<g id="FootDecals" mask="url(#FootMask)">
</g>
<g id="Knees">
<g id="Left-Knee"><g id="Basic_Knee_Left" class="option" style="display: inherit;">
<g id="Missiles_Basic-Knee_Left" class="toggle" style="">
<path id="Base_Missiles_Basic-Knee_Left" d="M117.84,156.71c0.01,0.04,0.02,0.08,0.02,0.12 c0.19,1.94,0.54,6.05,0.4,9.6l2.31-1.38c0.37-0.22,0.6-0.63,0.59-1.06c-0.03-1.32-0.09-4.18-0.13-5.69 c-0.01-0.57-0.42-1.05-0.98-1.16L117.84,156.71z" fill="rgb(79, 7, 7)"/>
<g id="Missile-2_Missiles_Basic-Knee_Left" fill="rgb(57, 57, 57)">
<path d="M119.46,162.27c-0.57,0.07-0.97,0.58-0.9,1.15c0.07,0.57,0.59,0.97,1.16,0.9c0.57-0.07,0.97-0.58,0.9-1.15 C120.55,162.6,120.03,162.2,119.46,162.27z"/>
<path d="M119.51,162.6c-0.38,0.04-0.65,0.39-0.61,0.77c0.05,0.38,0.4,0.65,0.78,0.61 c0.38-0.05,0.65-0.39,0.61-0.77C120.25,162.83,119.9,162.55,119.51,162.6z"/>
</g>
<g id="Missile-1_Missiles_Basic-Knee_Left" fill="rgb(57, 57, 57)">
<path d="M119.33,157.78c-0.57,0.07-0.97,0.58-0.9,1.15c0.07,0.57,0.59,0.97,1.16,0.9s0.97-0.58,0.9-1.15 C120.42,158.12,119.9,157.71,119.33,157.78z"/>
<path d="M119.38,158.12c-0.38,0.04-0.65,0.39-0.6,0.77c0.05,0.38,0.4,0.65,0.78,0.61 c0.38-0.05,0.65-0.39,0.61-0.77C120.11,158.34,119.76,158.07,119.38,158.12z"/>
</g>
</g>
<g id="Knee_Basic-Knee_Left" fill="rgb(0, 0, 0)">
<path d="M96.42,158.84l1.43-0.23c0,0,1.08,6.92,1.56,9.99c0.12,0.79-0.42,1.54-1.21,1.66c0,0,0,0,0,0L96.42,158.84z "/>
<path d="M97.81,158.32l0.82,5.14c1.05-0.59,3.7,0.5,4.57,3.58c1.59,5.67,2.97,6.97,7.95,6.46 c3.87-0.4,6.64-2.2,6.96-4.87c0.46-3.85,0-9.43-0.23-11.79c-0.03-0.29-0.18-0.56-0.41-0.74c-0.23-0.18-0.53-0.26-0.82-0.23 C112.43,156.41,97.81,158.32,97.81,158.32z"/>
<path d="M97.31,158.39l0.49-0.07l0.92,5.56l-0.49,0.07L97.31,158.39z"/>
</g>
</g>
</g>
<g id="Right-Knee"><g id="Basic_Knee_Right" class="option" style="display: inherit;">
<g id="Missiles_Basic-Knee_Right" class="toggle" style="">
<path id="Base_Missiles_Basic-Knee_Right" d="M52.05,156.71c-0.01,0.04-0.02,0.08-0.02,0.12 c-0.19,1.94-0.54,6.05-0.4,9.6l-2.31-1.38c-0.37-0.22-0.6-0.63-0.59-1.06c0.03-1.32,0.09-4.18,0.13-5.69 c0.01-0.57,0.42-1.05,0.98-1.16L52.05,156.71z" fill="rgb(79, 7, 7)"/>
<g id="Missile-2_Missiles_Basic-Knee_Right" fill="rgb(57, 57, 57)">
<path d="M50.43,162.27c0.57,0.07,0.97,0.58,0.9,1.15c-0.07,0.57-0.59,0.97-1.16,0.9c-0.57-0.07-0.97-0.58-0.9-1.15 C49.34,162.6,49.86,162.2,50.43,162.27z"/>
<path d="M50.38,162.6c0.38,0.04,0.65,0.39,0.61,0.77c-0.05,0.38-0.4,0.65-0.78,0.61 c-0.38-0.05-0.65-0.39-0.61-0.77C49.65,162.83,50,162.55,50.38,162.6z"/>
</g>
<g id="Missile-1_Missiles_Basic-Knee_Right" fill="rgb(57, 57, 57)">
<path d="M50.56,157.78c0.57,0.07,0.97,0.58,0.9,1.15c-0.07,0.57-0.59,0.97-1.16,0.9s-0.97-0.58-0.9-1.15 C49.47,158.12,49.99,157.71,50.56,157.78z"/>
<path d="M50.51,158.12c0.38,0.04,0.65,0.39,0.61,0.77s-0.4,0.65-0.78,0.61c-0.38-0.05-0.65-0.39-0.61-0.77 S50.13,158.07,50.51,158.12z"/>
</g>
</g>
<g id="Knee_Basic-Knee_Right" fill="rgb(0, 0, 0)">
<path d="M73.47,158.84l-1.43-0.23c0,0-1.08,6.92-1.56,9.99c-0.12,0.79,0.42,1.54,1.21,1.66c0,0,0,0,0,0 L73.47,158.84z"/>
<path d="M72.09,158.32l-0.82,5.14c-1.05-0.59-3.7,0.5-4.57,3.58c-1.59,5.67-2.97,6.97-7.95,6.46 c-3.87-0.4-6.64-2.2-6.96-4.87c-0.46-3.85,0-9.43,0.23-11.79c0.03-0.29,0.18-0.56,0.41-0.74c0.23-0.18,0.53-0.26,0.82-0.23 C57.46,156.41,72.09,158.32,72.09,158.32z"/>
<path d="M72.58,158.39l-0.49-0.07l-0.92,5.56l0.49,0.07L72.58,158.39z"/>
</g>
</g>
</g>
</g>
<g id="KneesDecals" mask="url(#KneesMask)">
</g>
<g id="Thighs">
<g id="Left-Thigh"><g id="Basic_Thigh_Left" class="option" style="display: inherit;">
<path id="Thigh_Basic-Thigh_Left" d="M120.21,115.6c0,0-5.03-6.43-7.59-7.49c-2.43-1.01-5.69-0.58-7.78,1.09 c-3.19,2.54-10.51,8.04-11.35,14.16c-0.93,6.83,4.08,21.95,5.78,26.84c0.58,1.66,2.77,2.41,4.44,2.48 c3.1,0.12,11.57-0.15,13.59-4.69C120.05,141.81,120.21,115.6,120.21,115.6" fill="rgb(0, 0, 0)"/>
<path id="Trauma-Plate_Basic-Thigh_Left" class="toggle" style="" d="M118.5,116.19c-0.75-0.93-2.56-3.1-4.3-4.77 c-0.83-0.79-1.62-1.49-2.25-1.75c-1.9-0.79-4.44-0.45-6.06,0.85c-1.85,1.47-5.15,3.97-7.66,7.02c-1.52,1.85-2.77,3.9-3.07,6.05 c-0.9,6.64,4.05,21.31,5.7,26.06c0.14,0.42,0.54,0.67,0.95,0.87c0.61,0.3,1.33,0.45,1.94,0.47c1.73,0.07,5.27,0.02,8.23-0.96 c1.63-0.54,3.12-1.33,3.75-2.73c0.78-1.75,1.3-5.22,1.7-9.2C118.31,129.59,118.47,118.81,118.5,116.19" fill="rgb(79, 7, 7)"/>
<g id="Ridge_Basic-Thigh_Left" class="toggle" style="" fill="rgb(39, 35, 35)">
<path d="M111.72,107.57l-3.48-0.89l-3.64,1.99l1.18,44.01c2.4,0.46,2.43,0.55,4.54-0.08L111.72,107.57"/>
<path d="M108.28,106.69l-0.1,46.36"/>
</g>
</g>
</g>
<g id="Right-Thigh"><g id="Basic_Thigh_Right" class="option" style="display: inherit;">
<path id="Thigh_Basic-Thigh_Right" d="M49.69,115.6c0,0,5.03-6.43,7.59-7.49c2.43-1.01,5.69-0.58,7.78,1.09 c3.19,2.54,10.51,8.04,11.35,14.16c0.93,6.83-4.08,21.95-5.78,26.84c-0.58,1.66-2.77,2.41-4.44,2.48 c-3.1,0.12-11.57-0.15-13.59-4.69C49.85,141.81,49.69,115.6,49.69,115.6" fill="rgb(0, 0, 0)"/>
<path id="Trauma-Plate_Basic-Thigh_Right" class="toggle" style="" d="M51.39,116.19c0.75-0.93,2.56-3.1,4.3-4.77 c0.83-0.79,1.62-1.49,2.25-1.75c1.9-0.79,4.44-0.45,6.06,0.85c1.85,1.47,5.15,3.97,7.66,7.02c1.52,1.85,2.77,3.9,3.07,6.05 c0.9,6.64-4.05,21.31-5.7,26.06c-0.14,0.42-0.54,0.67-0.95,0.87c-0.61,0.3-1.33,0.45-1.94,0.47c-1.73,0.07-5.27,0.02-8.23-0.96 c-1.63-0.54-3.12-1.33-3.75-2.73c-0.78-1.75-1.3-5.22-1.7-9.2C51.59,129.59,51.42,118.81,51.39,116.19" fill="rgb(79, 7, 7)"/>
<g id="Ridge_Basic-Thigh_Right" class="toggle" style="" fill="rgb(39, 35, 35)">
<path d="M58.17,107.57l3.48-0.89l3.64,1.99l-1.18,44.01c-2.4,0.46-2.43,0.55-4.54-0.08L58.17,107.57"/>
<path d="M61.62,106.69l0.1,46.36"/>
</g>
</g>
</g>
</g>
<g id="ThighsDecals" mask="url(#ThighsMask)">
</g>
<g id="Groin"><g id="Basic_Groin" class="option" style="display: inherit;">
<path id="Groin-Plate_Basic" d="M78.67,122.29L68.22,99.4h33.42l-10.45,22.89l-6.26,5.46L78.67,122.29z" fill="rgb(0, 0, 0)"/>
<path id="Trauma-Plating_Groin" class="toggle" style="display:none" d="M79.77,120.38l-8.61-18.86H98.7l-8.61,18.86l-5.16,4.49L79.77,120.38z" fill="rgb(255, 255, 255)"/>
</g>
</g>
<g id="GroinDecals" mask="url(#GroinMask)">
</g>
<g id="Waist">
<g id="Accessories_Waist">
<g id="Kama" class="toggle" style=""><g id="Tattered_Kama" class="option" style="display: inherit;">
<g id="Main_Kama-Tattered" fill="rgb(0, 0, 0)">
<path d="M111.48,81.04c2.28-0.5,3.36,12.05,4.7,18.11c0.61,2.75,0.69,5.53,1.41,8.28 c1.24,4.78,3.46,9.54,4.5,14.23c0.83,3.75,0.3,7.62,1.22,11.39c0.69,2.85,2.14,5.32,3.1,8.04c1.07,3.05,1.74,6.1,2.52,9.22 c0.47,1.91,1.03,3.74,1.65,5.61c0.21,0.63,0.39,1.27,0.55,1.91c0.05,0.2,0.1,0.39,0.14,0.59c0.03,0.12,0.17,0.44,0.08,0.36 c-0.65-0.57-1-1.65-1.61-2.32c-1.18-1.3-2.66-2.28-3.77-3.64c-0.43-0.53-0.77-1.11-1.07-1.72c-0.03-0.05-0.22-0.52-0.25-0.51 c-2.29,0.48-4.56,1.34-6.5-0.59c-1.54-1.53-2.87-4.83-3.66-6.88c-0.33-0.86,0.11-5.91-0.47-6.38c-0.43-0.35-0.83,4.2-1.35,3.89 c-3.28-1.93-7.95-3.08-7.95-3.08s-0.36-6.44-0.1-10.13c0.24-3.31-0.23-6.19-0.72-9.43c-0.63-4.19-0.56-8.5-0.27-12.71 C104.08,98.46,98.82,83.81,111.48,81.04z M118.99,143c-0.4,1.7-0.44,3.65,0.53,5.18c0.32,0.51,1.14,1.33,1.85,1.11 c2.99-0.92-0.68-5.5-1.63-6.52L118.99,143z M110.22,130.56c-0.54,0.33-1.01,0.71-1.4,1.21c-1.42,1.79,2.47,0.9,1.8-1.28 L110.22,130.56z"/>
<path d="M58.44,81.04c-2.28-0.5-3.36,12.05-4.7,18.11c-0.61,2.75-0.69,5.53-1.41,8.28 c-1.24,4.78-3.47,9.54-4.5,14.23c-0.83,3.75-0.3,7.62-1.22,11.39c-0.69,2.85-2.14,5.32-3.1,8.04c-1.07,3.05-1.74,6.1-2.52,9.22 c-0.47,1.91-1.03,3.74-1.65,5.61c-0.21,0.63-0.39,1.27-0.55,1.91c-0.05,0.2-0.1,0.39-0.14,0.59c-0.03,0.12-0.17,0.44-0.08,0.36 c0.65-0.57,1-1.65,1.61-2.32c1.18-1.3,3.01-0.24,4.13-1.6c0.43-0.53,1-1.77,1.31-2.38c0.03-0.05,0.81-1.55,0.84-1.55 c2.28,0.48,0.85,2.18,2.8,0.26c1.54-1.53,5.4-6.03,6.19-8.07c0.33-0.86-0.3-2.65,0.28-3.12c0.43-0.35,1.02,0.94,1.54,0.63 c3.28-1.93,7.36-5.54,7.36-5.54s0.95-3.98,0.69-7.67c-0.24-3.31,0.23-6.19,0.72-9.43c0.63-4.19,0.56-8.5,0.27-12.71 C65.84,98.46,71.1,83.81,58.44,81.04z M50.1,144.15c0.4,1.7,0.35,1.39-0.62,2.93c-0.32,0.51-0.22,2.43-0.93,2.21 c-2.99-0.92,0.67-5.5,1.63-6.52L50.1,144.15z M57.19,136.25c0.54,0.33,2.26-0.1,2.66,0.4c1.42,1.79-3.92,3.34-3.25,1.16 L57.19,136.25z"/>
</g>
</g>
</g>
<g id="Loin-Cloth" class="toggle" style="display:none"/>
<g id="Left-Holster" class="toggle" style="display:none"/>
<g id="Right-Holster" class="toggle" style=""><g id="Hanging-Holster_Right" class="option" style="display: inherit;">
<g id="Weapon_Hanging-Holster-Right">
<g id="Main_Weapon_Hanging-Holster-Right" fill="rgb(163, 163, 163)">
<path d="M52.77,122.65l-0.17-3.6l-0.62,0.03l-0.11-2.26l0.62-0.03l-0.05-1.18c-0.02-0.38-0.54-0.67-1.18-0.64 c-1.45,0.07-3.93,0.18-5.38,0.25c-0.63,0.03-1.13,0.36-1.11,0.75l0.06,1.18l0.62-0.03l0.11,2.26l-0.62,0.03l0.17,3.6 l1.47-0.07l0.46,9.96l4.74-0.22l-0.46-9.96L52.77,122.65z"/>
<path d="M45.7,122.45l0.84-0.04l0.56,11.97l4.74-0.22l-0.56-11.98l0.84-0.04L52,119.42l-6.42,0.29L45.7,122.45z"/>
<path d="M46.72,115.96l3.8-0.17l0.17,3.7l-3.8,0.17L46.72,115.96z"/>
<path d="M50.24,123.32l0.62-0.03l0.44,9.41l-0.62,0.03L50.24,123.32z"/>
<path d="M48.55,121.25l0.62-0.03l0.44,9.41l-0.62,0.03L48.55,121.25z"/>
<path d="M47.06,123.47l0.62-0.03l0.44,9.41l-0.62,0.03L47.06,123.47z"/>
</g>
<g id="Accent_Weapon_Hanging-Holster-Right" fill="rgb(0, 0, 0)">
<path d="M50.15,119.89l0.02,0.38l-2.68,0.12l-0.02-0.38L50.15,119.89z"/>
<path d="M50.16,120.26l0.02,0.38l-2.68,0.12l-0.02-0.38L50.16,120.26z"/>
<path d="M50.13,119.51l0.02,0.38l-2.68,0.12l-0.02-0.38L50.13,119.51z"/>
<path d="M49.91,114.87l0.02,0.38l-2.68,0.12L47.23,115L49.91,114.87z"/>
<path d="M49.89,115.82l0.62-0.03l0.17,3.7l-0.62,0.03L49.89,115.82z"/>
<path d="M46.72,115.96l0.62-0.03l0.17,3.7l-0.62,0.03L46.72,115.96z"/>
<path d="M47.69,123.44l0.95-0.04l0.44,9.42l-0.95,0.04L47.69,123.44z"/>
<path d="M49.29,123.36l0.95-0.04l0.44,9.41l-0.95,0.04L49.29,123.36z"/>
</g>
</g>
<path id="Holster_Hanging-Holster-Right" d="M52.74,136.53l0.76-15.17l-7.05,11.42l1.56,20.64 c1.64,1.71,3.26,1.73,4.85-0.18L52.74,136.53z" fill="rgb(76, 45, 19)"/>
<g id="Straps_Hanging-Holster-Right" fill="rgb(76, 45, 19)">
<path d="M79.7,96.9c-7.71,11-15.47,20.31-26.2,24.47l-0.13,2.6c13.34-5.59,20.49-15.06,28.38-27.07H79.7z"/>
<path d="M52.78,139.62c7.21,5.49,15.01,8.47,24.34,8.98l-0.67,2.06c-8.08-0.73-15.62-3.7-23.68-8.87V139.62z"/>
<path d="M52.78,141.79l-0.02-2.17c-1.87,0.83-4.05,0.89-5.77,0.28l0.17,2.21C49,142.59,51.1,142.62,52.78,141.79z"/>
</g>
<g id="Buckle_Hanging-Holster-Right" fill="rgb(0, 0, 0)">
<path d="M69.64,148.49l1.01,0.15l-0.05,0.33l-1.01-0.15L69.64,148.49"/>
<path d="M72.39,108l0.7-0.92l0.27,0.2l-0.7,0.92L72.39,108"/>
<path d="M72.66,108.21l1.15,0.92l2.7-3.31l-2.6-2.1l-2.7,3.31L72.4,108l0.58-0.76l-0.58-0.47l1.49-1.83l1.43,1.15 l-1.49,1.83l-0.59-0.47L72.66,108.21"/>
<path d="M69.67,148.49l0.8,0.12l0.12-0.78l1.94,0.41l-0.27,1.81l-1.94-0.41l0.1-0.7l-0.8-0.12l-0.21,1.39 l3.52,0.75l0.49-3.28l-3.52-0.75L69.67,148.49"/>
</g>
</g></g>
<g id="Left-Trophy" class="toggle" style="display:none"/>
<g id="Right-Trophy" class="toggle" style="display:none"/>
</g>
<g id="Under-Belt"><g id="Girth-Belt" class="option" fill="rgb(47, 25, 5)" style="display: inherit;">
<path d="M84.93,84.93c-9.33,0-27.98-2.25-27.98-2.25l0.61-1.91c0,0,18.19,1.5,27.37,2.25 c9.13-0.75,27.37-2.25,27.37-2.25l0.6,1.91C112.91,82.68,94.25,84.93,84.93,84.93z"/>
<path d="M84.93,86.84c-9.52,0-28.56-2.25-28.56-2.25l0.58-1.91c0,0,23.31,1.88,27.98,2.25 c4.66-0.38,27.98-2.25,27.98-2.25l0.58,1.91C113.49,84.59,94.45,86.84,84.93,86.84z"/>
<path d="M84.93,88.75c-9.67,0-28.99-2.25-28.99-2.25l0.43-1.91c0,0,23.8,1.88,28.56,2.25 c4.76-0.38,28.56-2.25,28.56-2.25l0.43,1.91C113.92,86.49,94.6,88.75,84.93,88.75z"/>
<path d="M84.93,90.65c-9.79,0-29.36-2.25-29.36-2.25l0.37-1.91c0,0,24.16,1.88,28.99,2.25 c4.83-0.38,28.99-2.25,28.99-2.25l0.37,1.91C114.29,88.4,94.72,90.65,84.93,90.65z"/>
<path d="M84.93,92.56c-9.9,0-29.69-2.25-29.69-2.25l0.33-1.91c0,0,24.47,1.88,29.36,2.25 c4.89-0.38,29.36-2.25,29.36-2.25l0.33,1.91C114.62,90.31,94.83,92.56,84.93,92.56z"/>
<path d="M84.93,94.47c-10,0-30-2.25-30-2.25l0.31-1.91c0,0,24.74,1.88,29.69,2.25c4.95-0.38,29.69-2.25,29.69-2.25 l0.31,1.91C114.93,92.21,94.93,94.47,84.93,94.47z"/>
<path d="M84.93,96.37c-10.1,0-30.31-2.25-30.31-2.25l0.31-1.91c0,0,25,1.88,30,2.25c5-0.38,30-2.25,30-2.25 l0.31,1.91C115.24,94.12,95.03,96.37,84.93,96.37z"/>
<path d="M84.93,98.28c-10.21,0-30.62-2.25-30.62-2.25l0.32-1.91c0,0,25.26,1.88,30.31,2.25 c5.05-0.38,30.31-2.25,30.31-2.25l0.32,1.91C115.55,96.03,95.14,98.28,84.93,98.28z"/>
<path d="M84.93,100.19c-10.32,0-30.97-2.25-30.97-2.25l0.34-1.91c0,0,25.52,1.88,30.62,2.25 c5.1-0.38,30.62-2.25,30.62-2.25l0.35,1.91C115.9,97.93,95.25,100.19,84.93,100.19z"/>
<path d="M84.93,102.09c-10.45,0-31.36-2.25-31.36-2.25l0.39-1.91c0,0,25.81,1.88,30.97,2.25 c5.16-0.38,30.97-2.25,30.97-2.25l0.39,1.91C116.29,99.84,95.38,102.09,84.93,102.09z"/>
</g>
</g>
<g id="Belt"><g id="Pouch-Belt-6" class="option" style="display: inherit;">
<path id="Main_Pouch-Belt-6" d="M115.21,92.95c-6.82,0.61-22.4,2.83-30.27,2.83c-7.94,0-23.52-2.23-30.26-2.82 l1.01-7.93c5.53,0.49,21.56,2.74,29.26,2.74c7.47,0,23.17-2.23,29.07-2.76L115.21,92.95z" fill="rgb(0, 0, 0)"/>
<rect id="Buckle_Pouch-Belt-6" x="79.37" y="87.01" width="11.28" height="9.21" fill="rgb(79, 7, 7)"/>
<g id="Pouches_Pouch-Belt-6" fill="rgb(97, 55, 19)">
<g>
<g>
<g>
<path d="M70.81,84.98c-0.29-0.02-0.58,0.03-0.84,0.13c-0.71,0.28-2.1,0.82-2.1,0.82l8.08,0.46l2.19-0.94 C78.13,85.46,72.44,85.09,70.81,84.98z"/>
<path d="M78.41,85.73c0.01-0.08-0.03-0.17-0.1-0.22c-0.07-0.05-0.16-0.06-0.24-0.03 c-0.7,0.3-2.14,0.91-2.14,0.91l-1.05,12.41c0.72-0.42,1.44-0.69,2.15-0.84c0.41-0.08,0.7-0.43,0.71-0.85 C77.88,93.32,78.03,89.51,78.41,85.73z"/>
<path d="M75.94,86.4l-8.08-0.46c-0.05,1.89-0.23,3.77-0.33,5.65c-0.11,2.08-0.15,4.18-0.34,6.28 c-0.01,0.15,0.04,0.3,0.14,0.41c0.1,0.11,0.25,0.18,0.4,0.18c2.32-0.01,4.63,0.13,6.93,0.4c0.14,0.02,0.29-0.02,0.4-0.12 c0.11-0.09,0.18-0.22,0.19-0.37c0.1-1.47,0.37-5.34,0.37-5.34L75.94,86.4z"/>
<path d="M75.94,86.4l-8.08-0.46c0,0-0.19,1.59-0.38,3.14c-0.09,0.75,0.13,1.51,0.62,2.09 c0.49,0.58,1.2,0.94,1.96,0.98c0.96,0.06,2.01,0.12,2.97,0.17c0.76,0.04,1.51-0.23,2.07-0.75c0.55-0.52,0.86-1.25,0.86-2.01 C75.95,87.99,75.94,86.4,75.94,86.4z"/>
<path d="M71.64,90.75c0.29,0.02,0.51,0.26,0.49,0.55c-0.02,0.28-0.26,0.5-0.55,0.49 c-0.29-0.02-0.51-0.26-0.49-0.55C71.11,90.96,71.36,90.74,71.64,90.75z"/>
</g>
</g>
<g>
<g>
<path d="M59.65,83.47c-0.31-0.02-0.62,0.03-0.91,0.16c-0.67,0.29-1.86,0.81-1.86,0.81l7.38,0.42l2-0.95 C66.26,83.91,61.24,83.57,59.65,83.47z"/>
<path d="M66.52,84.19c0.01-0.09-0.03-0.17-0.1-0.22c-0.07-0.05-0.17-0.06-0.24-0.02 c-0.66,0.31-1.91,0.9-1.91,0.9l-1.02,12.42c0.65-0.41,1.29-0.68,1.93-0.85c0.39-0.09,0.68-0.44,0.69-0.84 C65.99,91.78,66.15,87.98,66.52,84.19z"/>
<path d="M64.26,84.85l-7.38-0.42c-0.06,1.89-0.23,3.77-0.33,5.65c-0.11,2.08-0.16,4.17-0.34,6.28 c-0.01,0.15,0.04,0.3,0.14,0.41s0.25,0.18,0.4,0.17c2.08-0.01,4.15,0.11,6.22,0.36c0.14,0.02,0.29-0.02,0.4-0.12 c0.11-0.09,0.18-0.23,0.19-0.37c0.1-1.47,0.37-5.33,0.37-5.33L64.26,84.85z"/>
<path d="M64.26,84.85l-7.38-0.42c0,0-0.18,1.6-0.36,3.15c-0.09,0.75,0.14,1.51,0.63,2.08 c0.49,0.58,1.2,0.93,1.96,0.97c0.73,0.04,1.51,0.08,2.23,0.13c0.76,0.04,1.51-0.23,2.06-0.75c0.55-0.52,0.87-1.25,0.86-2 C64.26,86.46,64.26,84.85,64.26,84.85z"/>
<path d="M60.31,89.23c0.26,0.01,0.46,0.26,0.44,0.54c-0.02,0.28-0.24,0.5-0.5,0.49 c-0.26-0.01-0.46-0.26-0.44-0.54C59.83,89.44,60.05,89.22,60.31,89.23z"/>
</g>
</g>
<g>
<path d="M52.22,84.29l0.55-0.85l2.83,0.09l0.35,1.06L52.22,84.29z"/>
<path d="M55.93,84.69c0.01-0.07-0.01-0.13-0.06-0.18c-0.04-0.05-0.11-0.08-0.17-0.08 c-0.85-0.03-3.48-0.13-3.48-0.13l-0.5,11.17c0.11,0.28,1.53,0.46,2.68,0.49c0.5,0.01,0.91-0.38,0.92-0.88 C55.4,91.61,55.53,88.14,55.93,84.69z"/>
</g>
</g>
<g>
<g>
<g>
<path d="M99.08,84.98c0.29-0.02,0.58,0.03,0.85,0.13c0.71,0.28,2.1,0.82,2.1,0.82l-8.08,0.46l-2.19-0.94 C91.76,85.46,97.45,85.09,99.08,84.98z"/>
<path d="M91.48,85.73c-0.01-0.08,0.03-0.17,0.1-0.22c0.07-0.05,0.16-0.06,0.24-0.03c0.7,0.3,2.14,0.91,2.14,0.91 L95,98.81c-0.72-0.42-1.44-0.69-2.15-0.84c-0.41-0.08-0.7-0.43-0.71-0.85C92.01,93.32,91.86,89.51,91.48,85.73z"/>
<path d="M93.95,86.4l8.08-0.46c0.05,1.89,0.23,3.77,0.33,5.65c0.11,2.08,0.15,4.18,0.34,6.28 c0.01,0.15-0.04,0.3-0.14,0.41c-0.1,0.11-0.25,0.18-0.4,0.18c-2.32-0.01-4.63,0.13-6.93,0.4c-0.14,0.02-0.29-0.02-0.4-0.12 c-0.11-0.09-0.18-0.22-0.19-0.37c-0.1-1.47-0.37-5.34-0.37-5.34L93.95,86.4z"/>
<path d="M93.95,86.4l8.08-0.46c0,0,0.19,1.59,0.38,3.14c0.09,0.75-0.14,1.51-0.62,2.09 c-0.49,0.58-1.2,0.94-1.96,0.98c-0.96,0.06-2.01,0.12-2.97,0.17c-0.76,0.04-1.51-0.23-2.06-0.75 c-0.55-0.52-0.87-1.25-0.86-2.01C93.94,87.99,93.95,86.4,93.95,86.4z"/>
<path d="M98.25,90.75c-0.29,0.02-0.51,0.26-0.49,0.55c0.02,0.28,0.26,0.5,0.55,0.49 c0.29-0.02,0.51-0.26,0.49-0.55C98.78,90.96,98.54,90.74,98.25,90.75z"/>
</g>
</g>
<g>
<g>
<path d="M110.24,83.47c0.31-0.02,0.62,0.03,0.91,0.16c0.67,0.29,1.86,0.81,1.86,0.81l-7.38,0.42l-2-0.95 C103.63,83.91,108.65,83.57,110.24,83.47z"/>
<path d="M103.37,84.19c-0.01-0.09,0.03-0.17,0.1-0.22c0.07-0.05,0.17-0.06,0.24-0.02 c0.66,0.31,1.91,0.9,1.91,0.9l1.02,12.42c-0.65-0.41-1.29-0.68-1.93-0.85c-0.39-0.09-0.68-0.44-0.69-0.84 C103.9,91.78,103.74,87.98,103.37,84.19z"/>
<path d="M105.63,84.85l7.38-0.42c0.06,1.89,0.23,3.77,0.33,5.65c0.11,2.08,0.16,4.17,0.34,6.28 c0.01,0.15-0.04,0.3-0.14,0.41c-0.1,0.11-0.25,0.18-0.4,0.17c-2.08-0.01-4.15,0.11-6.22,0.36c-0.14,0.02-0.29-0.02-0.4-0.12 c-0.11-0.09-0.18-0.23-0.19-0.37c-0.1-1.47-0.37-5.33-0.37-5.33L105.63,84.85z"/>
<path d="M105.63,84.85l7.38-0.42c0,0,0.18,1.6,0.36,3.15c0.09,0.75-0.14,1.51-0.63,2.08 c-0.49,0.58-1.2,0.93-1.96,0.97c-0.72,0.04-1.5,0.08-2.23,0.13c-0.76,0.04-1.51-0.23-2.06-0.75c-0.55-0.52-0.87-1.25-0.86-2 C105.63,86.46,105.63,84.85,105.63,84.85z"/>
<path d="M109.58,89.23c-0.26,0.01-0.46,0.26-0.44,0.54c0.02,0.28,0.24,0.5,0.5,0.49 c0.26-0.01,0.46-0.26,0.44-0.54C110.07,89.44,109.84,89.22,109.58,89.23z"/>
</g>
</g>
<g>
<path d="M117.67,84.29l-0.55-0.85l-2.83,0.09l-0.35,1.06L117.67,84.29z"/>
<path d="M113.96,84.69c-0.01-0.07,0.01-0.13,0.06-0.18c0.04-0.05,0.11-0.08,0.18-0.08 c0.85-0.03,3.48-0.13,3.48-0.13l0.5,11.17c-0.11,0.28-1.53,0.46-2.68,0.49c-0.5,0.01-0.91-0.38-0.92-0.88 C114.49,91.61,114.36,88.14,113.96,84.69z"/>
</g>
</g>
</g>
</g></g>
</g>
<g id="WaistDecals" mask="url(#WaistMask)">
</g>
<g id="Extras_Front">
<g id="Front"><g id="None_Front" class="option" style="display: inherit;">
</g>
</g>
</g>
<g id="Extras-FrontDecals" mask="url(#FrontMask)">
</g>
</g>
</svg>