<?xml version='1.0' encoding='UTF-8'?><svg version='1.1' xmlns='http://www.w3.org/2000/svg'><metadata><rdf:rdf xmlns:rdf="http://www.w3.org/1999/02/22-rdf-syntax-ns#" xmlns:rdfs="http://www.w3.org/2000/01/rdf-schema#" xmlns:dc="http://purl.org/dc/elements/1.1/"> <rdf:description> <dc:creator>MandoCreator</dc:creator> <dc:publisher>https://www.mandocreator.com</dc:publisher> <dc:description>Your Beskar'gam - created by MandoCreator</dc:description> <dc:format>image/svg+xml</dc:format> <dc:type>Image</dc:type> <dc:title>MandoCreator - Ner Berskar'gam</dc:title> <dc:date>2021-10-08T16:24:53.511Z</dc:date> </rdf:description> </rdf:rdf></metadata><svg version="1.1" id="Male" xmlns="http://www.w3.org/2000/svg" xmlns:xlink="http://www.w3.org/1999/xlink" x="0px" y="0px" viewBox="0 -55 169 300" style="fill: white; fill-rule: evenodd; stroke: black; stroke-width: 0.2px; pointer-events: none; position: relative; height: 100%;">
<g id="Extras_Back">
<g id="Back"><g id="NO-CAPES_Back" class="option" style="display: inherit;">
</g>
</g>
</g>
<g id="Suit">
<g id="Neck-Seal">
<g id="Standard-Neck-Seal" class="option" style="fill: rgb(39, 36, 36); display: inherit;">
<path d="M98,7.5c0-0.9-0.9-1.6-2.1-1.6c0,0-7.8,0.9-11.6,0.9c-3.9,0-11.6-0.9-11.6-0.9c-1.1,0-2.1,0.7-2.1,1.6 s0.9,1.6,2.1,1.6c0,0,7.8,0.9,11.6,0.9C88.2,10,96,9.2,96,9.2C97.1,9.2,98,8.4,98,7.5z"/>
<path d="M98.7,9.4c0-0.9-1-1.7-2.2-1.7c0,0-8.1,0.9-12.2,0.9c-4.1,0-12.2-0.9-12.2-0.9c-1.2,0-2.2,0.8-2.2,1.7 c0,0.9,1,1.7,2.2,1.7c0,0,8.1,0.9,12.2,0.9c4.1,0,12.2-0.9,12.2-0.9C97.8,11.1,98.7,10.4,98.7,9.4z"/>
<path d="M99.5,11.8c0-1-1-1.8-2.3-1.8c0,0-8.6,0.9-12.9,0.9C80,10.9,71.4,10,71.4,10c-1.3,0-2.3,0.8-2.3,1.8 s1,1.8,2.3,1.8c0,0,8.6,0.9,12.9,0.9c4.3,0,12.9-0.9,12.9-0.9C98.5,13.6,99.5,12.8,99.5,11.8z"/>
<path d="M100.3,13.9c0-1-1.1-1.9-2.4-1.9c0,0-9,1-13.5,1s-13.5-1-13.5-1c-1.3,0-2.4,0.8-2.4,1.9s1.1,1.9,2.4,1.9 c0,0,9,1,13.5,1s13.5-1,13.5-1C99.2,15.8,100.3,15,100.3,13.9z"/>
<path d="M101,16.1c0-0.8-1.1-1.4-2.5-1.4c0,0-9.4,0.7-14.2,0.7c-4.8,0-14.2-0.7-14.2-0.7c-1.4,0-2.5,0.6-2.5,1.4 c0,0.8,1.1,1.4,2.5,1.4c0,0,9.4,0.8,14.2,0.8c4.8,0,14.2-0.8,14.2-0.8C99.9,17.5,101,16.9,101,16.1z"/>
<path d="M101,18.4c0-0.8-1.1-1.4-2.5-1.4c0,0-9.4,0.7-14.2,0.7c-4.8,0-14.2-0.7-14.2-0.7c-1.4,0-2.5,0.6-2.5,1.4 c0,0.8,1.1,1.4,2.5,1.4c0,0,9.4,1.4,14.2,1.4c4.8,0,14.2-1.4,14.2-1.4C99.9,19.9,101,19.2,101,18.4z"/>
</g>
</g>
<g id="Flight-Suit" style="fill: rgb(39, 36, 36);">
<path d="M72.8,158.4l-1.5,8.7l-11,53.1c0,0-4.9,3-7.4,3.5s-7.7-0.4-7.7-0.4l3.8-43l2.9-18.4l0.7-7.8 c0,0-2.5-22.8-1.7-34.1c0.8-11.4,6.6-34,6.6-34l26.8,0.6l26.8-0.6c0,0,5.8,22.6,6.6,34c0.8,11.4-1.7,34.1-1.7,34.1l0.7,7.8 l2.9,18.4l3.8,43c0,0-5.3,1.2-7.8,0.7s-7.3-3.7-7.3-3.7l-11-53.1l-1.5-8.7l-11.6-30.3L72.8,158.4z"/>
<g>
<path d="M128.5,43.3l11.9,41.6l1,21.5l-9.5,1.8l-6-20.2l-13.6-33.9l0.7-15.5l2.3-3.7L128.5,43.3z"/>
<path d="M40.3,43.3l13.1-8.4l2.3,3.7l0.5,16L42.8,88l-6,20.2l-9.5-1.8l1-21.5L40.3,43.3z"/>
</g>
</g>
<g id="Sleeves" class="toggle" style="fill: rgb(255, 255, 255); display: none;"/>
</g>
<g id="Boots">
<g id="Gunslinger_Boots" class="option" style="display: inherit;">
<g id="Main_Gunslinger-Boot" style="fill: rgb(0, 0, 0);">
<path d="M106.9,226.5c0,0.2,0.7,3.4,4.2,4.3c1.2,0.3,3.2-0.3,4.5-1c1.7-0.9,3.5-1.6,5.4-2.1l0.2,0.2 c0.6,0.8,1.2,1.6,1.9,2.3l0.3,0.3c0.4,0.4,0.8,0.7,1.2,1.1l0.3,0.3c0.1,0,0.1,0.1,0.2,0.1c0.9,0.6,2,1.6,3.2,1.4 c1.1-0.2,2.3-0.6,3.3-1c0.8-0.4,1.6-0.9,2.1-1.4c0.2-0.1,0.3-0.3,0.4-0.4c2.5,1,5.3,1.4,6.7,4.2c0.3,0.6,0.5,1.4,0.5,2 c-0.1,0.9-1,1-1.8,1.2c-1.9,0.5-3.5,0.9-5.7,1.3c-2.5,0.5-4.7,0.8-7.2,0.7c-1.9-0.1-3.5-0.2-5.1-1.2c-0.7-0.4-1.3-0.8-1.9-1.4 c-1.3-1.2-2.1-2.4-3.7-3.1c-1.2-0.5-2.4-1-3.7-1.3c-1.8-0.4-3.7-0.8-4.7-2.5C106.7,229.1,106.7,227.8,106.9,226.5"/>
<path d="M61.8,226.5c0,0.2-0.7,3.4-4.2,4.3c-1.2,0.3-3.2-0.3-4.5-1c-1.7-0.9-3.5-1.6-5.4-2.1l-0.2,0.2 c-0.6,0.8-1.2,1.6-1.9,2.3l-0.3,0.3c-0.4,0.4-0.8,0.7-1.2,1.1l-0.3,0.3c-0.1,0-0.1,0.1-0.2,0.1c-0.9,0.6-2,1.6-3.2,1.4 c-1.1-0.2-2.3-0.6-3.3-1c-0.8-0.4-1.6-0.9-2.1-1.4c-0.2-0.1-0.3-0.3-0.4-0.4c-2.5,1-5.3,1.4-6.7,4.2c-0.3,0.6-0.5,1.4-0.5,2 c0.1,0.9,1.1,1,1.8,1.2c1.9,0.5,3.5,0.9,5.7,1.3c2.5,0.5,4.7,0.8,7.2,0.7c1.9-0.1,3.5-0.2,5.1-1.2c0.7-0.4,1.3-0.8,1.9-1.4 c1.3-1.2,2.1-2.4,3.7-3.1c1.2-0.5,2.4-1,3.7-1.3c1.8-0.4,3.7-0.8,4.7-2.5C62.1,229.1,62,227.8,61.8,226.5"/>
</g>
<g id="Bottom_Gunslinger-Boot" style="fill: rgb(58, 36, 18);">
<path d="M106.9,229c0.1,0.5,0.2,1,0.5,1.5c0.9,1.8,2.9,2.1,4.7,2.5c1.3,0.3,2.5,0.8,3.7,1.3c1.6,0.7,2.5,2,3.7,3.1 c0.6,0.5,1.2,0.9,1.9,1.4c1.6,1,3.2,1.1,5.1,1.2c2.5,0.1,4.8-0.2,7.2-0.7c2.2-0.5,3.8-0.8,5.7-1.3c0.6-0.2,1.3-0.3,1.7-0.8 l0.4,0.8l0.2,1.6c0,0-2,1.1-4.2,1.6s-6.5,1.2-6.5,1.2l-0.3-0.7l-1,0.2v0.7l-2.4,0.1l-0.5-0.7H126l0.1,0.6c0,0-1.5,0-2.3-0.5 c-0.2-0.2-0.5-0.6-0.5-0.6l-0.6-0.3l0.1,0.6l-2-0.7l-0.1-0.8l-0.6-0.3v0.6l-1.4-1.1l-0.2-0.7l-3.6-2.5l-0.6,1.3l-2.5-0.6 l-0.1-0.5l-0.6-0.3l-0.4,0.4l-1.7-0.7v-0.5l-0.6-0.2l-0.1,0.4l-1.6-1.1l-0.3-2.2l-0.1-2.4L106.9,229"/>
<path d="M61.9,229c-0.1,0.5-0.2,1-0.5,1.5c-0.9,1.8-2.9,2.1-4.7,2.5c-1.3,0.3-2.5,0.8-3.7,1.3 c-1.7,0.7-2.5,2-3.7,3.1c-0.6,0.5-1.2,0.9-1.9,1.4c-1.6,1-3.2,1.1-5.1,1.2c-2.5,0.1-4.8-0.2-7.2-0.7c-2.2-0.5-3.8-0.8-5.7-1.3 c-0.6-0.2-1.4-0.3-1.7-0.8l-0.4,0.8l-0.2,1.6c0,0,2,1.1,4.2,1.6c2.1,0.5,6.5,1.2,6.5,1.2l0.3-0.7l1,0.2v0.7l2.4,0.1L42,242h0.8 l-0.1,0.6c0,0,1.5,0,2.3-0.5c0.2-0.2,0.5-0.6,0.5-0.6l0.6-0.3l-0.1,0.6l2-0.7l0.1-0.8l0.6-0.3v0.6l1.4-1.1l0.2-0.7l3.6-2.5 l0.6,1.3L57,237l0.1-0.5l0.6-0.3l0.4,0.4l1.7-0.7v-0.5l0.6-0.2l0.1,0.4l1.6-1.1l0.3-2.2l0.1-2.4L61.9,229"/>
</g>
<g id="Top_Gunslinger-Boot" style="fill: rgb(39, 36, 36);">
<path d="M121,227.7c-2.2-3.1-3.6-6.9-4.1-10.3l0.6-0.1h0.7c0.4,0,0.7-0.1,1-0.1l0.5-0.1h0.2l0.4-0.1l0.3-0.1h0.1 c1.1-0.3,2.3-0.6,2.3-0.6c0.3,1.5,0.5,3.2,1.1,4.6c1,2.2,2.8,3.8,4.4,5.5c1.1,1.1,2.3,2.4,3.6,3.3c0.6,0.4,1.2,0.7,1.8,0.9 c-0.5,0.7-1.5,1.4-2.5,1.8c-0.9,0.4-2.2,0.9-3.3,1c-1.2,0.2-2.3-0.8-3.2-1.4C123.5,230.8,122.2,229.4,121,227.7"/>
<path d="M47.7,227.7c2.2-3.1,3.6-6.9,4.1-10.3l-0.6-0.1h-0.7c-0.4,0-0.7-0.1-1-0.1l-0.5-0.1h-0.2l-0.4-0.1l-0.3-0.1 H48c-1.1-0.3-2.3-0.6-2.3-0.6c-0.3,1.5-0.5,3.2-1.1,4.6c-1,2.2-2.8,3.8-4.4,5.5c-1.1,1.1-2.3,2.4-3.6,3.3 c-0.6,0.4-1.2,0.7-1.8,0.9c0.5,0.7,1.5,1.4,2.5,1.8c0.9,0.4,2.2,0.9,3.3,1c1.2,0.2,2.3-0.8,3.2-1.4 C45.2,230.8,46.5,229.4,47.7,227.7"/>
</g>
<g id="Side_Gunslinger-Boot" style="fill: rgb(39, 36, 36);">
<path d="M121,227.7c-1.9,0.5-3.7,1.2-5.4,2.1c-1.3,0.6-3.3,1.3-4.5,1c-3.6-0.9-4.2-4.3-4.2-4.3 c0.1-0.7,0.3-1.5,0.3-2.3c0.1-1.5-0.1-8.2,0-8.1c2.9,1.6,8.1,1.5,9.6,1.3C117.4,220.8,118.9,224.6,121,227.7"/>
<path d="M47.7,227.7c1.9,0.5,3.7,1.2,5.4,2.1c1.3,0.6,3.3,1.3,4.5,1c3.6-0.9,4.2-4.3,4.2-4.3 c-0.1-0.7-0.3-1.5-0.3-2.3c-0.1-1.5,0.1-8.2,0-8.1c-2.9,1.6-8.1,1.5-9.6,1.3C51.3,220.8,49.9,224.6,47.7,227.7"/>
</g>
</g>
</g>
<g id="Gloves">
<g id="Left-Glove">
<g id="Basic_Left_Glove" class="option" style="fill: rgb(39, 36, 36); display: inherit;">
<path d="M137.6,124.1c-0.5,0-1,0-1.6,0.1c-0.4,0.1-0.7,0.2-1,0.3c-1,0.6-0.7,1.8,0.2,2.3c1,0.6,2.6,0,3.1-1.1 C138.5,125.3,137.9,124.5,137.6,124.1"/>
<path d="M135.8,125.2c-0.5,0-1,0-1.6,0.1c-0.4,0.1-0.7,0.2-1,0.3c-1,0.6-0.7,1.8,0.2,2.3c1,0.5,2.6,0,3.1-1.1 C136.7,126.4,136.1,125.6,135.8,125.2"/>
<path d="M134.5,126.6c-0.5,0-1.2,0.1-1.7,0.3c-0.3,0.1-0.7,0.3-1,0.5c-0.9,0.7-0.5,1.9,0.5,2.2 c1.1,0.4,2.6-0.3,2.9-1.5C135.4,127.7,134.5,126.6,134.5,126.6z"/>
<path d="M131.6,110c0,0-1.6,2.1-2,3.7c-0.3,1.1-0.1,3.7-0.5,5.4c-0.4,1.7-0.7,2.7-0.7,2.7s-1.4,2.8-1.1,3.4 c0.2,0.6,1.4,1.2,2.1,0.9c0.9-0.4,1.9-2.4,2.6-3.8c0.7-1.4,1.2-3.4,1.2-3.4s0.9,0.3,1.4,0.7c1.6,1.2,0.9,5,0.9,5 s-0.7,1.3-1.7,2.8c-1.4,2-3.4,3.8-2.1,5.4c1.3,1.5,4.2-2.4,4.2-2.4l2.9-3.7c0,0,3.3-5.4,3.4-6.5c0.1-0.8,0-3.5,0-3.5l-1-10.4 l-5.2,0.4l-4.3,1.4L131.6,110"/>
</g>
</g>
<g id="Right-Glove">
<g id="Basic_Right_Glove" class="option" style="fill: rgb(39, 36, 36); display: inherit;">
<path d="M31.1,124.1c0.5,0,1,0,1.6,0.1c0.4,0.1,0.7,0.2,1,0.3c1,0.6,0.7,1.8-0.2,2.3c-1,0.6-2.6,0-3.1-1.1 C30.3,125.3,30.9,124.5,31.1,124.1"/>
<path d="M32.9,125.2c0.5,0,1,0,1.6,0.1c0.4,0.1,0.7,0.2,1,0.3c1,0.6,0.7,1.8-0.2,2.3c-1,0.5-2.6,0-3.1-1.1 C32.1,126.4,32.7,125.6,32.9,125.2"/>
<path d="M34.2,126.6c0.5,0,1.2,0.1,1.7,0.3c0.3,0.1,0.7,0.3,1,0.5c0.9,0.7,0.5,1.9-0.5,2.2c-1.1,0.4-2.6-0.3-2.9-1.5 C33.3,127.7,34.2,126.6,34.2,126.6z"/>
<path d="M37.1,110c0,0,1.5,2.1,2,3.7c0.3,1.1,0.1,3.7,0.5,5.4c0.4,1.7,0.7,2.7,0.7,2.7s1.4,2.8,1.1,3.4 c-0.2,0.6-1.4,1.2-2.1,0.9c-0.9-0.4-1.9-2.4-2.6-3.8c-0.7-1.4-1.2-3.4-1.2-3.4s-0.9,0.3-1.4,0.7c-1.6,1.2-0.9,5-0.9,5 s0.7,1.3,1.7,2.8c1.4,2,3.4,3.8,2.1,5.4c-1.3,1.5-4.2-2.4-4.2-2.4l-2.9-3.7c0,0-3.3-5.4-3.4-6.5c-0.1-0.8,0-3.5,0-3.5l1-10.4 l5.2,0.4l4.3,1.4L37.1,110"/>
</g>
</g>
</g>
<g id="Biceps">
<g id="Left-Biceps">
<g id="Basic_Biceps_Left" class="option" style="display: inherit;">
<path id="Main_Basic_Biceps_Left" d="M133.5,52c-1.1-2.7-6.2-14.8-6.2-14.8s-8.3,3.4-10.4,4.3 c-0.6,0.2-0.9,0.9-0.6,1.5c1,2.4,3.4,8.1,4.8,11.7c0.3,0.8,1,1.5,1.8,1.8c0.8,0.3,1.7,0.3,2.5,0c2.4-1,5.7-2.4,7.4-3 C133.5,53.2,133.8,52.6,133.5,52" style="fill: rgb(0, 0, 0);"/>
<path id="Strap_Basic_Biceps_Left" d="M118.6,48.3l-5.8,2.4l-0.1,4.3l7.4-3.1L118.6,48.3" style="fill: rgb(0, 0, 0);"/>
<path id="Trauma-Plate_Basic_Biceps_Left" class="toggle" style="fill: rgb(79, 7, 7);" d="M133.5,51.4l-5.3-12.7l-10.1,4.2l4.6,11.2 c0.2,0.4,0.5,0.7,0.9,0.9s0.8,0.2,1.2,0L133.5,51.4"/>
</g>
</g>
<g id="Right-Biceps">
<g id="Basic_Biceps_Right" class="option" style="display: inherit;">
<path id="Main_Basic_Biceps_Right" d="M35.4,52c1.2-2.8,6.2-14.8,6.2-14.8s8.3,3.4,10.4,4.3c0.6,0.2,0.9,0.9,0.6,1.5 c-1,2.4-3.4,8.1-4.8,11.7c-0.3,0.8-1,1.5-1.8,1.8s-1.7,0.3-2.5,0c-2.4-1-5.7-2.4-7.4-3C35.5,53.2,35.2,52.6,35.4,52" style="fill: rgb(0, 0, 0);"/>
<path id="Strap_Basic_Biceps_Right" d="M50.4,48.3l5.8,2.4l0.1,4.3l-7.4-3.1L50.4,48.3" style="fill: rgb(0, 0, 0);"/>
<path id="Trauma-Plate_Basic_Biceps_Right" class="toggle" style="fill: rgb(79, 7, 7);" d="M35.5,51.4l5.3-12.7l10.1,4.2l-4.6,11.2 c-0.2,0.4-0.5,0.7-0.9,0.9c-0.4,0.2-0.8,0.2-1.2,0L35.5,51.4"/>
</g>
</g>
</g>
<g id="Vest" style="fill: rgb(39, 36, 36);">
<path d="M84.4,20.9c8.4,0,15.3-4.3,15.5-8h0.1l18.3,5.4l13.2,23.9l-2.8,1.2l-13.3-8.6l-2.3,3.7l-1.5,47.4 c0,0-8.7,4.7-13.4,5.3c-3.4,0.5-8.6,0.7-13.7,0.7s-10.3-0.2-13.7-0.7c-4.8-0.6-13.4-5.3-13.4-5.3l-1.5-47.4l-2.3-3.7l-13.3,8.6 l-2.8-1.2l13.2-23.9L69,12.9h0.1C69,16.6,75.9,20.9,84.4,20.9"/>
</g>
<g class="swappable" id="Chest">
<g id="Chest_Gunslinger" style="visibility: visible;">
<g id="Abdomen_Gunslinger">
<g id="Left_Abdomen_Gunslinger" style="fill: rgb(79, 7, 7);">
<path d="M98.4,74l7.2-13l-3.7-5.3l-0.3-0.6l-4.1,0.5l-1.7,20L98.4,74"/>
<path d="M98.4,74l7.2-13l1.9,2.7l2.5-2l-0.7,8.9L98.4,74"/>
</g>
<g id="Right_Abdomen_Gunslinger" style="fill: rgb(79, 7, 7);">
<path d="M70.5,74l-7.2-13l-1.9,2.7l-2.5-2l0.7,8.9L70.5,74"/>
<path d="M70.5,74l-7.2-13l3.7-5.3l0.3-0.6l4.1,0.5l1.7,20L70.5,74"/>
</g>
<path id="Center_Abdomen_Gunslinger" d="M84.5,51.4l13,4.3l-1.7,20l-2,1.2l-9.4-0.5L75,76.9l-2-1.2l-1.7-20 L84.5,51.4" style="fill: rgb(0, 0, 0);"/>
</g>
<g id="Chest-Plates_Gunslinger">
<g id="Left-Chest_Gunslinger" style="fill: rgb(0, 0, 0);">
<path d="M85.2,28.9v-3.1l2.5-2.5l24.2-2.8l2.2,13.5l-3.6,27.2l-3,2.4l-5.6-8l-1.6-3.4l-15-4.6l3.9-3.9V32.5 L85.2,28.9"/>
<path d="M100.3,52.4l11.1-6.5l2.8-11.7l-2.4,12.6l-9.8,9L100.3,52.4"/>
<path d="M101.6,55.1l-4.1,0.5l-13-4.3v-3.8l15.9,4.8L101.6,55.1"/>
</g>
<g id="Right-Chest_Gunslinger" style="fill: rgb(0, 0, 0);">
<path d="M83.7,28.9v-3.1l-2.5-2.5L57,20.6l-2.2,13.5l3.6,27.2l3,2.4l5.6-8l1.6-3.4l15-4.6l-3.9-3.9V32.5L83.7,28.9"/>
<path d="M68.6,52.4l-11.1-6.5l-2.8-11.7l2.4,12.6l9.8,9L68.6,52.4"/>
<path d="M67.3,55.1l4.1,0.5l13-4.3v-3.8l-15.9,4.8L67.3,55.1"/>
</g>
</g>
<g id="Iron-Heart_Gunslinger">
<path id="Under-Heart_Gunslinger" d="M83.6,47.8l-3.9-3.9V32.5l4-3.6v-3.1h1.5v3.1l4,3.6v11.4l-3.9,3.9l-0.8-0.2 L83.6,47.8" style="fill: rgb(79, 7, 7);"/>
<path id="Heart_Gunslinger" d="M81.6,42.9v-9.4l2.9-2.9l2.9,2.9v9.4l-2.9,2.9L81.6,42.9" style="fill: rgb(0, 0, 0);"/>
<rect id="Center_Heart_Gunslinger" class="option" x="83.6" y="34.1" width="1.7" height="8.2" style="fill: rgb(79, 7, 7); display: inherit;"/>
</g>
</g>
</g>
<g id="Chest-Attachments">
<g id="No-Device_Accessories_Chest" class="option" style="display: inherit;">
</g>
</g>
<g id="Collar">
<g id="None_Collar" class="option" style="display: inherit;">
</g>
</g>
<svg version="1.1" id="Helmets" xmlns="http://www.w3.org/2000/svg" y="-54px" height="85px" viewBox="0 0 80 80" class="swappable">
<g id="Helmet_Executioner" style="visibility: visible;">
<g id="Left-Earcap_Executioner" class="toggle">
<g id="Ear-Cap_Left_Executioner">
<path id="Base_Ear-Cap_Left_Executioner" d="M59.3,61.3l2.1-1.4h-1.6V36.1h-0.5V61.3z" style="fill: rgb(79, 7, 7);"/>
<rect id="Middle_Ear-Cap_Left_Executioner" x="59.8" y="41.3" width="1.1" height="18.6" style="fill: rgb(0, 0, 0);"/>
<path id="Top_Ear-Cap_Left_Executioner" d="M59.8,36.1l1.5,1.5v3.7h-1.5V36.1z" style="fill: rgb(0, 0, 0);"/>
</g>
</g>
<g id="Right-Earcap_Executioner" class="toggle">
<g id="Ear-Cap_Right_Executioner">
<path id="Base_Ear-Cap_Right_Executioner" d="M21.9,61.3l-2.1-1.4h1.6V36.1h0.5V61.3z" style="fill: rgb(79, 7, 7);"/>
<rect id="Middle_Ear-Cap_Right_Executioner" x="20.3" y="41.3" width="1.1" height="18.6" style="fill: rgb(0, 0, 0);"/>
<path id="Top_Ear-Cap_Right_Executioner" d="M21.4,36.1l-1.5,1.5v3.7h1.5V36.1z" style="fill: rgb(0, 0, 0);"/>
</g>
<g id="Range-Finder_Right_Executioner" class="option" style="display: inherit;">
<path id="Shaft_Right_Range-Finder_Executioner" d="M20.3,10.6h1.1v26.9l-1.1,0.1V10.6z" style="fill: rgb(0, 0, 0);"/>
<path id="Finder_Right_Range-Finder_Executioner" d="M28.4,7.9l-6,0.4l0.2-0.8l6.9-1.1L28.4,7.9" style="fill: rgb(79, 7, 7);"/>
<g id="Cover_Right_Range-Finder_Executioner" style="fill: rgb(0, 0, 0);">
<path d="M19.3,9.5h2.8l0.5-2L30,6.3l0.1-0.8L19.5,5.9l-1,1.4L19.3,9.5"/>
<path d="M20.1,9.5h1.4v1.1h-1.4V9.5"/>
</g>
</g>
</g>
<g id="Helmet_Pieces_Executioner">
<g id="Face_Executioner" style="fill: rgb(56, 53, 53);">
<path d="M34.2,66.9l-11.5-5.2c0.1-0.6,1.9-9.8,4.7-12.1c2.5-2,4.4,0.1,4.7,0.5l0.7,3.8 C33.7,59.6,34.1,66.2,34.2,66.9"/>
<path d="M47.1,66.9l11.5-5.2c-0.1-0.6-1.9-9.8-4.7-12.1c-2.5-2-4.4,0.1-4.7,0.5l-0.7,3.8 C47.5,59.6,47.1,66.2,47.1,66.9"/>
</g>
<g id="Cheeks_Executioner" style="fill: rgb(0, 0, 0);">
<path d="M21.9,42.2c0,0,7.1,0.7,9.2,4.6c0.4,0.7,0.8,1.9,1.1,3.3c0,0-2.1-2.7-4.8-0.5c-2.9,2.3-4.7,12.1-4.7,12.1 l-0.8-0.4V42.2"/>
<path d="M59.3,42.2c0,0-7.1,0.7-9.2,4.6c-0.4,0.7-0.8,1.9-1.1,3.3c0,0,2.1-2.7,4.8-0.5c2.9,2.3,4.7,12.1,4.7,12.1 l0.8-0.4V42.2"/>
</g>
<path id="Chin_Executioner" d="M36.2,67.2l-2-0.3l0.3-0.9l2.8-2.3H44l2.8,2.3l0.3,0.9l-2,0.3H36.2z" style="fill: rgb(0, 0, 0);"/>
<g id="Eyes_Executioner" style="fill: rgb(79, 7, 7);">
<path d="M34.2,66.9c-0.1-1-1.1-16.3-3.1-20c-2.1-3.9-9.2-4.6-9.2-4.6V36c0-0.4,0.3-0.7,0.7-0.7 c2.7-0.1,12.7-0.6,18.1-0.6s15.4,0.5,18.1,0.6c0.4,0,0.7,0.3,0.7,0.7v6.2c0,0-7.1,0.7-9.2,4.6c-2,3.7-3,19.1-3.1,20L46.8,66 L44,63.7h-6.8L34.4,66L34.2,66.9"/>
<path d="M41.4,45.5l1.1,3.6c-0.3,0.1-0.6,0.2-0.8,0.3L41,46.5c0,0-0.2-0.2-0.4-0.2c-0.1,0-0.4,0.2-0.4,0.2l-0.7,2.9 c-0.3-0.1-0.5-0.2-0.8-0.3l1.1-3.6H41.4z"/>
</g>
<g id="Visor_Executioner" style="fill: rgb(0, 0, 0);">
<g>
<path d="M39.8,57.7h-0.6v6h0.6V57.7"/>
<path d="M37.8,57.7h-0.6v6h0.6V57.7"/>
<path d="M41.4,57.7H42v6h-0.6V57.7"/>
<path d="M43.5,57.7h0.6v6h-0.6V57.7"/>
</g>
<path d="M38.7,49.1c-0.9-0.4-1.5-1.1-1.9-2c0,0,1.3-4.2,1.9-5.3c0.3-0.6,1.2-1.4,1.8-1.6c0.6,0.2,1.5,1,1.8,1.6 c0.6,1.1,1.9,5.3,1.9,5.3c-0.3,0.9-1,1.6-1.9,2l-1.1-3.6h-1.5L38.7,49.1"/>
<path d="M22.5,36.8c0,0,13.9-0.4,18.1-0.4s18.1,0.4,18.1,0.4v1l-13.1,2.8L41.4,38c0,0-0.5-0.1-0.8-0.1 c-0.3,0-0.8,0.1-0.8,0.1l-4.2,2.7l-13.1-2.8V36.8"/>
</g>
<path id="Dome-2_Executioner" d="M22.5,35.3c0-9.6,8.1-17.4,18.1-17.4s18.1,7.8,18.1,17.4C56,35.2,46,34.7,40.6,34.7 S25.2,35.2,22.5,35.3" style="fill: rgb(0, 0, 0);"/>
<g id="Dome-1_Executioner" style="fill: rgb(130, 3, 3);">
<path d="M37.6,32.9l2.3-0.5v1.1L37.6,32.9"/>
<path d="M43.7,32.9l-2.3-0.5v1.1L43.7,32.9"/>
</g>
</g>
</g>
</svg>
<g id="Shoulders">
<g id="Left-Shoulder">
<g id="Legacy-x2_Shoulder_Left" class="option" style="display: inherit;">
<path id="Plate-2_Shoulder_Left_Legacy-x2" d="M115.3,14.9l-5.8,8.7l5.9,8.3l9.3-2.3l5.9,3.6L135,32L115.3,14.9" style="fill: rgb(0, 0, 0);"/>
<path id="Trauma-Plate-2_Shoulder_Legacy-x2_Left" class="toggle" style="fill: rgb(79, 7, 7);" d="M130.9,31.4l2.8-0.7l-17-14.9l-5.2,7.7l4.6,6.4 l8.6-2.2L130.9,31.4"/>
<path id="Plate-1_Shoulder_Left_Legacy-x2" d="M108.2,10.4l-2.6,10.1l8.3,5.9l8.1-5.2l6.7,1.5l3.8-2.5L108.2,10.4" style="fill: rgb(0, 0, 0);"/>
<path id="Trauma-Plate-1_Shoulder_Legacy-x2_Left" class="toggle" style="fill: rgb(79, 7, 7);" d="M128.3,20.9l2.4-1.6l-21-8.5l-2.3,9l6.4,4.6l7.4-4.9 L128.3,20.9"/>
</g>
</g>
<g id="Right-Shoulder">
<g id="Legacy-x3_Shoulder_Right" class="option" style="display: inherit;">
<path id="Plate-3_Shoulder_Right_Legacy-x3" d="M49.7,19.5L57,27l-4.2,9.2l-9.6-0.5l-5.1,4.7l-4.5-0.3L49.7,19.5" style="fill: rgb(0, 0, 0);"/>
<path id="Trauma-Plate-3_Shoulder_Legacy-x3_Right" class="toggle" style="fill: rgb(79, 7, 7);" d="M37.5,38.6l-2.9-0.2l14-17.8l6.5,6.7l-3.3,7.2 L43,33.9L37.5,38.6"/>
<path id="Plate-2_Shoulder_Right_Legacy-x3" d="M53.7,14.9l5.8,8.7l-5.9,8.3l-9.3-2.3l-6,3.6L33.9,32L53.7,14.9" style="fill: rgb(0, 0, 0);"/>
<path id="Trauma-Plate-2_Shoulder_Legacy-x3_Right" class="toggle" style="fill: rgb(79, 7, 7);" d="M38.1,31.4l-2.8-0.7l17-14.9l5.2,7.7l-4.6,6.4 l-8.6-2.2L38.1,31.4"/>
<path id="Plate-1_Shoulder_Right_Legacy-x3" d="M60.8,10.4l2.6,10.1l-8.3,5.9L47,21.2l-6.7,1.5l-3.8-2.5L60.8,10.4" style="fill: rgb(0, 0, 0);"/>
<path id="Trauma-Plate-1_Shoulder_Legacy-x3_Right" class="toggle" style="fill: rgb(79, 7, 7);" d="M40.6,20.9l-2.4-1.6l21-8.5l2.3,9L55,24.4l-7.4-4.9 L40.6,20.9"/>
</g>
</g>
</g>
<g id="Gauntlets">
<g id="Left-Gauntlets">
<g id="Basic_Gauntlet_Left" class="option" style="display: inherit;">
<path id="Top-2_Basic_Gauntlet_Left" d="M144.3,107.5l1.4-2.2L141.8,87l-0.6,2.2l1.8,8.3l-0.7,2.1L144.3,107.5" style="fill: rgb(0, 0, 0);"/>
<path id="Top-1_Basic_Gauntlet_Left" d="M141.8,87.1l-0.6,2.2l1.8,8.3l-0.7,2.1l2,7.9l-0.9,1.4l0.5,5.1l-1.6,0.4 l-2.1-7.7l-1.5-0.5L132,83.9l8.9-0.9L141.8,87.1" style="fill: rgb(79, 7, 7);"/>
<g id="Accent-Bottom_Basic_Gauntlet_Left" style="fill: rgb(0, 0, 0);">
<path d="M128.7,90.6l-2,0.6l1,2.9l2-0.6L128.7,90.6"/>
<path d="M130.3,95.7l-2,0.6l1,2.9l2-0.6L130.3,95.7"/>
<path d="M132.1,100.9l-2,0.6l1,2.9l2-0.6L132.1,100.9"/>
</g>
<path id="Bottom_Basic_Gauntlet_Left" d="M126.7,91.2L126,89l6.2-4.8l6.6,22.1l-6.7,1.2l-2.7-8.2l2-0.6l-1-2.9 l-1.9,0.6l-0.7-2.2l2-0.6l-1-2.9L126.7,91.2 M132.1,100.9l-2,0.6l1,2.9l2-0.7L132.1,100.9" style="fill: rgb(79, 7, 7);"/>
<g id="No-Device_Attachment_Basic_Gauntlet_Left" class="option" style="display: inherit;">
</g>
</g>
</g>
<g id="Right-Gauntlets">
<g id="Basic_Gauntlet_Right" class="option" style="display: inherit;">
<path id="Top-2_Basic_Gauntlet_Right" d="M24.6,107.5l-1.4-2.2L27.1,87l0.6,2.2l-1.8,8.3l0.7,2.1L24.6,107.5" style="fill: rgb(0, 0, 0);"/>
<path id="Top-1_Basic_Gauntlet_Right" d="M27.1,87.1l0.6,2.2l-1.8,8.3l0.7,2.1l-2,7.9l0.9,1.4l-0.5,5.1l1.6,0.4 l2.1-7.7l1.5-0.5l6.7-22.4L28,83L27.1,87.1" style="fill: rgb(79, 7, 7);"/>
<g id="Accent-Bottom_Basic_Gauntlet_Right" style="fill: rgb(0, 0, 0);">
<path d="M40.2,90.6l2,0.6l-1,2.9l-2-0.6L40.2,90.6"/>
<path d="M38.6,95.7l2,0.6l-1,2.9l-2-0.6L38.6,95.7"/>
<path d="M36.8,100.9l2,0.6l-1,2.9l-2-0.6L36.8,100.9"/>
</g>
<path id="Bottom_Basic_Gauntlet_Right" d="M42.2,91.2l0.7-2.2l-6.2-4.8l-6.6,22.1l6.7,1.2l2.7-8.2l-2-0.6l1-2.9 l1.9,0.6l0.7-2.2l-2-0.6l1-2.9L42.2,91.2 M36.8,100.9l2,0.6l-1,2.9l-2-0.7L36.8,100.9" style="fill: rgb(79, 7, 7);"/>
<g id="Flamethrower_Attachment_Basic_Gauntlet_Right" class="option" style="display: inherit;">
<g id="Tubes_Flamethrower_Attachment_Basic_Gauntlet_Right" style="fill: rgb(142, 136, 136);">
<path d="M26.3,83.8l0.8,0.2L22,108.6l-0.8-0.2L26.3,83.8"/>
<path d="M24.5,83.4l0.8,0.2l-3.7,17.7l-0.8-0.2L24.5,83.4"/>
<path d="M25.9,85.3l1.1,0.2l-1.2,5.9l-1.1-0.2L25.9,85.3"/>
<path d="M24,84.9l1.1,0.2L23.9,91l-1.1-0.2L24,84.9"/>
</g>
<g id="Main_Flamethrower_Attachment_Basic_Gauntlet_Right" style="fill: rgb(0, 0, 0);">
<path d="M24.1,83.3l3.3,0.7l-0.3,1.5l-3.3-0.7L24.1,83.3"/>
<path d="M22.5,90.7l3.5,0.7l-0.2,0.9l-3.5-0.7L22.5,90.7"/>
<path d="M22.5,91.7l3.2,0.7l-0.1,0.5l-3.2-0.7L22.5,91.7"/>
<path d="M25.8,90.8l0.5,0.1l-0.6,2.9l-0.5-0.1L25.8,90.8"/>
</g>
<g id="Accent_Flamethrower_Attachment_Basic_Gauntlet_Right" style="fill: rgb(0, 0, 0);">
<path d="M20.8,101.1l0.9,0.2l-0.1,1.2l-1.1-0.2L20.8,101.1"/>
<path d="M21.7,94.7l1.5,0.3l-0.4,1.9l-1.5-0.3L21.7,94.7"/>
<path d="M21.6,96.6l1.1,0.2l-0.4,1.9l-1.1-0.2L21.6,96.6"/>
<path d="M21.7,105.3l1.1,0.2l-0.5,2.6l-1.1-0.2L21.7,105.3"/>
<path d="M23.4,97l1.1,0.2l-0.7,3.5l-1.1-0.2L23.4,97"/>
<path d="M21.2,106.6l1.5,0.3l-0.1,0.5l-1.5-0.3L21.2,106.6"/>
</g>
<path id="Base_Flamethrower_Attachment_Basic_Gauntlet_Right" d="M26.3,90.9l1.6-7.8l-1,0.2l-2.8,13.2l0.8,0.6 l0.7-3.3l-0.5-0.1l0.6-2.9L26.3,90.9" style="fill: rgb(139, 87, 42);"/>
</g>
</g>
</g>
</g>
<g id="Shins">
<g id="Left-Shin">
<g id="Legacy_Shin_Left" class="option" style="display: inherit;">
<path id="Plate-3_Legacy-Shin_Left" d="M105.6,197.1l4.1,15.4c0,0,4.9,1,7.5,0.7c2.6-0.3,6.2-1.7,6.2-1.7l-1.5-16.5 l-7,4.4L105.6,197.1" style="fill: rgb(0, 0, 0);"/>
<path id="Plate-2_Legacy-Shin_Left" d="M102.5,187.6l2.4,9.3l9.9,2.3l7.7-4.8l-0.8-9.4l-8.6,4.4L102.5,187.6" style="fill: rgb(0, 0, 0);"/>
<path id="Plate-1_Legacy-Shin_Left" d="M106.1,174.5l-5.9,6.5l1.7,6.5l11.2,2l9.2-4.7l-0.6-8l-7.2-3.5L106.1,174.5" style="fill: rgb(0, 0, 0);"/>
<path id="Trauma-Plate-3_Legacy-Shin_Left" class="toggle" style="fill: rgb(79, 7, 7);" d="M120.4,197.8l-4.7,2.9c-0.4,0.2-0.8,0.3-1.3,0.2l-6.5-1.5 L111,211c1.5,0.3,4.2,0.6,6,0.4c1.5-0.2,3.4-0.8,4.6-1.2L120.4,197.8"/>
<path id="Trauma-Plate-2_Legacy-Shin_Left" class="toggle" style="fill: rgb(79, 7, 7);" d="M120.2,187.7l-6.4,3.3c-0.3,0.2-0.7,0.2-1.1,0.2l-8-1.4 l1.5,5.8l8.2,1.9l6.2-3.8L120.2,187.7"/>
<path id="Trauma-Plate-1_Legacy-Shin_Left" class="toggle" style="fill: rgb(79, 7, 7);" d="M107,176.1l-4.9,5.4l1.2,4.5l9.6,1.7l7.7-4l-0.5-5.9 l-5.9-2.8L107,176.1"/>
<g id="Ridge_Legacy-Shin_Left" class="toggle" style="fill: rgb(39, 35, 35);">
<path d="M114.9,213.2h0.6h-0.9H114.9"/>
<path d="M116.1,188l1.1,9.8l-2.5,1.5l-3.6-0.8l-2-9.6l3.9,0.7L116.1,188"/>
<path d="M117.3,197.8l1.8,15c-1.1,0.2-2.4,0.4-3.5,0.4h-1.1l-3.1-14.7l3.6,0.8L117.3,197.8"/>
<path d="M106.1,174.6l4-1.7l4.3,0.4v0.1l1.7,14.6l-3.1,1.6l-3.9-0.7L106.1,174.6"/>
<path d="M110.1,172.9l3,16.7"/>
<path d="M113.1,189.6l1.7,9.7"/>
<path d="M114.8,199.3l2.3,13.8"/>
</g>
</g>
</g>
<g id="Right-Shin">
<g id="Legacy_Shin_Right" class="option" style="display: inherit;">
<path id="Plate-3_Legacy-Shin_Right" d="M63.2,197.1l-4.1,15.4c0,0-4.9,1-7.5,0.7c-2.6-0.3-6.2-1.7-6.2-1.7l1.5-16.5 l7,4.4L63.2,197.1" style="fill: rgb(0, 0, 0);"/>
<path id="Plate-2_Legacy-Shin_Right" d="M66.2,187.6l-2.4,9.3l-9.9,2.3l-7.7-4.8L47,185l8.6,4.4L66.2,187.6" style="fill: rgb(0, 0, 0);"/>
<path id="Plate-1_Legacy-Shin_Right" d="M62.7,174.5l5.9,6.5l-1.7,6.5l-11.2,2l-9.2-4.7l0.6-8l7.2-3.5L62.7,174.5" style="fill: rgb(0, 0, 0);"/>
<path id="Trauma-Plate-3_Legacy-Shin_Right" class="toggle" style="fill: rgb(79, 7, 7);" d="M48.4,197.8l4.7,2.9c0.4,0.2,0.8,0.3,1.3,0.2l6.5-1.5 L57.8,211c-1.5,0.3-4.2,0.6-6,0.4c-1.5-0.2-3.4-0.8-4.6-1.2L48.4,197.8"/>
<path id="Trauma-Plate-2_Legacy-Shin_Right" class="toggle" style="fill: rgb(79, 7, 7);" d="M48.6,187.7L55,191c0.3,0.2,0.7,0.2,1.1,0.2l8-1.4 l-1.5,5.8l-8.2,1.9l-6.2-3.8L48.6,187.7"/>
<path id="Trauma-Plate-1_Legacy-Shin_Right" class="toggle" style="fill: rgb(79, 7, 7);" d="M61.8,176.1l4.9,5.4l-1.2,4.5l-9.6,1.7l-7.7-4l0.5-5.9 l5.9-2.8L61.8,176.1"/>
<g id="Ridge_Legacy-Shin_Right" class="toggle" style="fill: rgb(39, 35, 35);">
<path d="M53.9,213.2h-0.6h0.9H53.9"/>
<path d="M52.6,188l-1.1,9.8l2.5,1.5l3.6-0.8l2-9.6l-3.9,0.7L52.6,188"/>
<path d="M51.5,197.8l-1.8,15c1.1,0.2,2.4,0.4,3.5,0.4h1.1l3.1-14.7l-3.6,0.8L51.5,197.8"/>
<path d="M62.6,174.6l-4-1.7l-4.3,0.4v0.1L52.6,188l3.1,1.6l3.9-0.7L62.6,174.6"/>
<path d="M58.7,172.9l-3,16.7"/>
<path d="M55.7,189.6l-1.7,9.7"/>
<path d="M54,199.3l-2.3,13.8"/>
</g>
</g>
</g>
</g>
<g id="Foot">
<g id="Left-Ankle">
<g id="Legacy_Ankle_Left" class="option" style="display: inherit;">
<path id="Plate-2_Legacy-Ankle_Left" d="M125.9,222.2l4.3,3.9l3,3.7l-4.8,1.5l-10.9-2.3l-4-5.3L125.9,222.2" style="fill: rgb(0, 0, 0);"/>
<path id="Plate-1_Legacy-Ankle_Left" d="M106.3,214.9c0,0,4.3,1.9,10.8,1.7c4.4-0.2,6.2-1.3,6.2-1.3l3.7,6.9l-1,3.8 l-15.7-1.2l-3.9-3.3L106.3,214.9" style="fill: rgb(0, 0, 0);"/>
<path id="Trauma-Plate-2_Legacy-Ankle_Left" class="toggle" style="fill: rgb(79, 7, 7);" d="M126.8,223.1l3.4,3l1.7,2.2l-3.6,1.2l-9.6-2l-1.6-2.1 l8.9,0.7L126.8,223.1"/>
<path id="Trauma-Plate-1_Legacy-Ankle_Left" class="toggle" style="fill: rgb(79, 7, 7);" d="M107.9,217.3l0.1,3.2l3.1,2.5l13.8,1.1l1-3.8l-1.8-3.3 c-1.2,0.3-4.7,1.4-7,1.4C113.5,218.6,110,217.9,107.9,217.3"/>
</g>
</g>
<g id="Left-Toe">
<g id="None_Toe_Left" class="option" style="display: inherit;">
</g>
</g>
<g id="Right-Ankle">
<g id="Legacy_Ankle_Right" class="option" style="display: inherit;">
<path id="Plate-2_Legacy-Ankle_Right" d="M42.9,222.2l-4.3,3.9l-3,3.7l4.8,1.5l10.9-2.3l4-5.3L42.9,222.2" style="fill: rgb(0, 0, 0);"/>
<path id="Plate-1_Legacy-Ankle_Right" d="M62.4,214.9c0,0-4.3,1.9-10.8,1.7c-4.4-0.2-6.2-1.3-6.2-1.3l-3.7,6.9l1,3.8 l15.7-1.2l3.9-3.3L62.4,214.9" style="fill: rgb(0, 0, 0);"/>
<path id="Trauma-Plate-2_Legacy-Ankle_Right" class="toggle" style="fill: rgb(79, 7, 7);" d="M41.9,223.1l-3.4,3l-1.7,2.2l3.6,1.2l9.6-2l1.6-2.1 l-8.9,0.7L41.9,223.1"/>
<path id="Trauma-Plate-1_Legacy-Ankle_Right" class="toggle" style="fill: rgb(79, 7, 7);" d="M60.8,217.3l-0.1,3.2l-3.1,2.5l-13.8,1.1l-1-3.8l1.8-3.3 c1.2,0.3,4.7,1.4,7,1.4C55.3,218.6,58.7,217.9,60.8,217.3"/>
</g>
</g>
<g id="Right-Toe">
<g id="None_Toe_Right" class="option" style="display: inherit;">
</g>
</g>
</g>
<g id="Knees">
<g id="Left-Knee">
<g id="Basic_Knee_Left" class="option" style="display: inherit;">
<g id="Missiles_Basic-Knee_Left" class="toggle" style="">
<path id="Base_Missiles_Basic-Knee_Left" d="M117.1,156.2v0.1c0.2,1.9,0.5,6.1,0.4,9.6l2.3-1.4 c0.4-0.2,0.6-0.6,0.6-1.1c0-1.3-0.1-4.2-0.1-5.7c0-0.6-0.4-1.1-1-1.2L117.1,156.2z" style="fill: rgb(79, 7, 7);"/>
<g id="Missile-2_Missiles_Basic-Knee_Left" style="fill: rgb(57, 57, 57);">
<path d="M118.7,161.8c-0.6,0.1-1,0.6-0.9,1.1c0.1,0.6,0.6,1,1.2,0.9c0.6-0.1,1-0.6,0.9-1.1 C119.8,162.1,119.2,161.7,118.7,161.8z"/>
<path d="M118.7,162.1c-0.4,0-0.7,0.4-0.6,0.8c0,0.4,0.4,0.7,0.8,0.6c0.4,0,0.7-0.4,0.6-0.8 C119.5,162.4,119.1,162.1,118.7,162.1z"/>
</g>
<g id="Missile-1_Missiles_Basic-Knee_Left" style="fill: rgb(57, 57, 57);">
<path d="M118.5,157.3c-0.6,0.1-1,0.6-0.9,1.1c0.1,0.6,0.6,1,1.2,0.9c0.6-0.1,1-0.6,0.9-1.1 C119.6,157.6,119.1,157.2,118.5,157.3z"/>
<path d="M118.6,157.6c-0.4,0-0.7,0.4-0.6,0.8c0,0.4,0.4,0.7,0.8,0.6c0.4,0,0.7-0.4,0.6-0.8 C119.3,157.9,119,157.6,118.6,157.6z"/>
</g>
</g>
<g id="Knee_Basic-Knee_Left" style="fill: rgb(0, 0, 0);">
<path d="M95.8,158.4l1.4-0.2c0,0,1.1,6.9,1.6,10c0.1,0.8-0.4,1.5-1.2,1.7L95.8,158.4z"/>
<path d="M97.2,157.8l0.8,5.1c1-0.6,3.7,0.5,4.5,3.6c1.6,5.7,2.9,7,7.9,6.5c3.8-0.4,6.6-2.2,6.9-4.9 c0.5-3.9,0-9.4-0.2-11.8c0-0.3-0.2-0.6-0.4-0.7c-0.2-0.2-0.5-0.3-0.8-0.2C111.7,155.9,97.2,157.8,97.2,157.8z"/>
<path d="M96.7,157.9l0.5-0.1l0.9,5.6l-0.5,0.1L96.7,157.9z"/>
</g>
</g>
</g>
<g id="Right-Knee">
<g id="Basic_Knee_Right" class="option" style="display: inherit;">
<g id="Missiles_Basic-Knee_Right" class="toggle" style="">
<path id="Base_Missiles_Basic-Knee_Right" d="M51.7,156.2v0.1c-0.2,1.9-0.5,6.1-0.4,9.6l-2.3-1.4 c-0.4-0.2-0.6-0.6-0.6-1.1c0-1.3,0.1-4.2,0.1-5.7c0-0.6,0.4-1.1,1-1.2L51.7,156.2z" style="fill: rgb(79, 7, 7);"/>
<g id="Missile-2_Missiles_Basic-Knee_Right" style="fill: rgb(57, 57, 57);">
<path d="M50.1,161.8c0.6,0.1,1,0.6,0.9,1.1c-0.1,0.6-0.6,1-1.2,0.9c-0.6-0.1-1-0.6-0.9-1.1 C49,162.1,49.5,161.7,50.1,161.8z"/>
<path d="M50,162.1c0.4,0,0.7,0.4,0.6,0.8c0,0.4-0.4,0.7-0.8,0.6c-0.4,0-0.7-0.4-0.6-0.8 C49.3,162.4,49.7,162.1,50,162.1z"/>
</g>
<g id="Missile-1_Missiles_Basic-Knee_Right" style="fill: rgb(57, 57, 57);">
<path d="M50.2,157.3c0.6,0.1,1,0.6,0.9,1.1c-0.1,0.6-0.6,1-1.2,0.9c-0.6-0.1-1-0.6-0.9-1.1 C49.1,157.6,49.7,157.2,50.2,157.3z"/>
<path d="M50.2,157.6c0.4,0,0.7,0.4,0.6,0.8c0,0.4-0.4,0.7-0.8,0.6c-0.4,0-0.7-0.4-0.6-0.8 C49.4,157.9,49.8,157.6,50.2,157.6z"/>
</g>
</g>
<g id="Knee_Basic-Knee_Right" style="fill: rgb(0, 0, 0);">
<path d="M73,158.4l-1.4-0.2c0,0-1.1,6.9-1.6,10c-0.1,0.8,0.4,1.5,1.2,1.7L73,158.4z"/>
<path d="M71.6,157.8l-0.8,5.1c-1-0.6-3.7,0.5-4.5,3.6c-1.6,5.7-2.9,7-7.9,6.5c-3.8-0.4-6.6-2.2-6.9-4.9 c-0.5-3.9,0-9.4,0.2-11.8c0-0.3,0.2-0.6,0.4-0.7c0.2-0.2,0.5-0.3,0.8-0.2C57.1,155.9,71.6,157.8,71.6,157.8z"/>
<path d="M72.1,157.9l-0.5-0.1l-0.9,5.6l0.5,0.1L72.1,157.9z"/>
</g>
</g>
</g>
</g>
<g id="Thighs">
<g id="Left-Thigh">
<g id="Basic_Thigh_Left" class="option" style="display: inherit;">
<path id="Thigh_Basic-Thigh_Left" d="M119.4,115.2c0,0-5-6.4-7.5-7.5c-2.4-1-5.7-0.6-7.7,1.1 c-3.2,2.5-10.4,8-11.3,14.2c-0.9,6.8,4.1,21.9,5.7,26.8c0.6,1.7,2.7,2.4,4.4,2.5c3.1,0.1,11.5-0.1,13.5-4.7 C119.3,141.3,119.4,115.2,119.4,115.2" style="fill: rgb(0, 0, 0);"/>
<path id="Trauma-Plate_Basic-Thigh_Left" class="toggle" style="fill: rgb(79, 7, 7);" d="M117.7,115.7c-0.7-0.9-2.5-3.1-4.3-4.8 c-0.8-0.8-1.6-1.5-2.2-1.7c-1.9-0.8-4.4-0.4-6,0.8c-1.8,1.5-5.1,4-7.6,7c-1.5,1.8-2.8,3.9-3,6.1c-0.9,6.6,4,21.3,5.7,26 c0.1,0.4,0.5,0.7,0.9,0.9c0.6,0.3,1.3,0.4,1.9,0.5c1.7,0.1,5.2,0,8.2-1c1.6-0.5,3.1-1.3,3.7-2.7c0.8-1.8,1.3-5.2,1.7-9.2 C117.5,129.1,117.7,118.4,117.7,115.7"/>
<g id="Ridge_Basic-Thigh_Left" class="toggle" style="fill: rgb(39, 35, 35);">
<path d="M111,107.1l-3.5-0.9l-3.6,2l1.2,44c2.4,0.5,2.4,0.5,4.5-0.1L111,107.1"/>
<path d="M107.6,106.2l-0.1,46.3"/>
</g>
</g>
</g>
<g id="Right-Thigh">
<g id="Basic_Thigh_Right" class="option" style="display: inherit;">
<path id="Thigh_Basic-Thigh_Right" d="M49.3,115.2c0,0,5-6.4,7.5-7.5c2.4-1,5.7-0.6,7.7,1.1 c3.2,2.5,10.4,8,11.3,14.2c0.9,6.8-4.1,21.9-5.7,26.8c-0.6,1.7-2.7,2.4-4.4,2.5c-3.1,0.1-11.5-0.1-13.5-4.7 C49.5,141.3,49.3,115.2,49.3,115.2" style="fill: rgb(0, 0, 0);"/>
<path id="Trauma-Plate_Basic-Thigh_Right" class="toggle" style="fill: rgb(79, 7, 7);" d="M51,115.7c0.7-0.9,2.5-3.1,4.3-4.8c0.8-0.8,1.6-1.5,2.2-1.7 c1.9-0.8,4.4-0.4,6,0.8c1.8,1.5,5.1,4,7.6,7c1.5,1.8,2.8,3.9,3,6.1c0.9,6.6-4,21.3-5.7,26c-0.1,0.4-0.5,0.7-0.9,0.9 c-0.6,0.3-1.3,0.4-1.9,0.5c-1.7,0.1-5.2,0-8.2-1c-1.6-0.5-3.1-1.3-3.7-2.7c-0.8-1.8-1.3-5.2-1.7-9.2 C51.2,129.1,51.1,118.4,51,115.7"/>
<g id="Ridge_Basic-Thigh_Right" class="toggle" style="fill: rgb(39, 35, 35);">
<path d="M57.8,107.1l3.5-0.9l3.6,2l-1.2,44c-2.4,0.5-2.4,0.5-4.5-0.1L57.8,107.1"/>
<path d="M61.2,106.2l0.1,46.3"/>
</g>
</g>
</g>
</g>
<g id="Groin">
<g id="Basic_Groin" class="option" style="display: inherit;">
<path id="Groin-Plate_Groin" d="M78.1,121.8L67.7,98.9H101l-10.4,22.9l-6.2,5.5L78.1,121.8z" style="fill: rgb(0, 0, 0);"/>
<path id="Trauma-Plating_Groin" class="toggle" style="display: none; fill: rgb(255, 255, 255);" d="M79.2,119.9L70.6,101H98l-8.6,18.9l-5.1,4.5L79.2,119.9z"/>
</g>
</g>
<g id="Waist">
<g id="Accessories_Waist">
<g id="Kama" class="toggle" style="">
<g id="Tattered_Kama" class="option" style="display: inherit;">
<g id="Main_Kama-Tattered" style="fill: rgb(0, 0, 0);">
<path d="M110.7,80.6c2.3-0.5,3.3,12,4.7,18.1c0.6,2.7,0.7,5.5,1.4,8.3c1.2,4.8,3.4,9.5,4.5,14.2 c0.8,3.8,0.3,7.6,1.2,11.4c0.7,2.8,2.1,5.3,3.1,8c1.1,3,1.7,6.1,2.5,9.2c0.5,1.9,1,3.7,1.6,5.6c0.2,0.6,0.4,1.3,0.5,1.9 c0.1,0.2,0.1,0.4,0.1,0.6c0,0.1,0.2,0.4,0.1,0.4c-0.6-0.6-1-1.6-1.6-2.3c-1.2-1.3-2.6-2.3-3.7-3.6c-0.4-0.5-0.8-1.1-1.1-1.7 c0-0.1-0.2-0.5-0.2-0.5c-2.3,0.5-4.5,1.3-6.5-0.6c-1.5-1.5-2.9-4.8-3.6-6.9c-0.3-0.9,0.1-5.9-0.5-6.4c-0.4-0.3-0.8,4.2-1.3,3.9 c-3.3-1.9-7.9-3.1-7.9-3.1s-0.4-6.4-0.1-10.1c0.2-3.3-0.2-6.2-0.7-9.4c-0.6-4.2-0.6-8.5-0.3-12.7 C103.4,98,98.2,83.4,110.7,80.6z M118.2,142.5c-0.4,1.7-0.4,3.6,0.5,5.2c0.3,0.5,1.1,1.3,1.8,1.1c3-0.9-0.7-5.5-1.6-6.5 L118.2,142.5z M109.5,130.1c-0.5,0.3-1,0.7-1.4,1.2c-1.4,1.8,2.5,0.9,1.8-1.3L109.5,130.1z"/>
<path d="M58,80.6c-2.3-0.5-3.3,12-4.7,18.1c-0.6,2.7-0.7,5.5-1.4,8.3c-1.2,4.8-3.4,9.5-4.5,14.2 c-0.8,3.8-0.3,7.6-1.2,11.4c-0.7,2.8-2.1,5.3-3.1,8c-1.1,3-1.7,6.1-2.5,9.2c-0.5,1.9-1,3.7-1.6,5.6c-0.2,0.6-0.4,1.3-0.5,1.9 c0,0.2-0.1,0.4-0.1,0.6c0,0.1-0.2,0.4-0.1,0.4c0.6-0.6,1-1.6,1.6-2.3c1.2-1.3,3-0.2,4.1-1.6c0.4-0.5,1-1.8,1.3-2.4 c0-0.1,0.8-1.6,0.8-1.5c2.3,0.5,0.8,2.2,2.8,0.3c1.5-1.5,5.4-6,6.1-8.1c0.3-0.9-0.3-2.6,0.3-3.1c0.4-0.3,1,0.9,1.5,0.6 c3.3-1.9,7.3-5.5,7.3-5.5s0.9-4,0.7-7.7c-0.2-3.3,0.2-6.2,0.7-9.4c0.6-4.2,0.6-8.5,0.3-12.7C65.4,98,70.6,83.4,58,80.6z M49.8,143.7c0.4,1.7,0.3,1.4-0.6,2.9c-0.3,0.5-0.2,2.4-0.9,2.2c-3-0.9,0.7-5.5,1.6-6.5L49.8,143.7z M56.8,135.8 c0.5,0.3,2.2-0.1,2.6,0.4c1.4,1.8-3.9,3.3-3.2,1.2L56.8,135.8z"/>
</g>
</g>
</g>
<g id="Loin-Cloth" class="toggle" style="display:none"/>
<g id="Left-Holster" class="toggle" style="display:none"/>
<g id="Right-Holster" class="toggle" style="">
<g id="Hanging-Holster_Right" class="option" style="display: inherit;">
<g id="Weapon_Hanging-Holster-Right">
<g id="Main_Weapon_Hanging-Holster-Right" style="fill: rgb(163, 163, 163);">
<path d="M52.4,122.2l-0.2-3.6h-0.6l-0.1-2.3h0.6l-0.1-1.2c0-0.4-0.5-0.7-1.2-0.6c-1.4,0.1-3.9,0.2-5.3,0.2 c-0.6,0-1.1,0.4-1.1,0.7l0.1,1.2h0.6l0.1,2.3h-0.6l0.2,3.6l1.5-0.1l0.5,10l4.7-0.2l-0.5-10H52.4z"/>
<path d="M45.4,122h0.8l0.6,12l4.7-0.2l-0.6-12h0.8l-0.1-2.7l-6.4,0.3L45.4,122z"/>
<path d="M46.4,115.5l3.8-0.2l0.2,3.7l-3.8,0.2L46.4,115.5z"/>
<path d="M49.9,122.9h0.6l0.5,9.3h-0.6L49.9,122.9z"/>
<path d="M48.2,120.8h0.6l0.4,9.4h-0.6L48.2,120.8z"/>
<path d="M46.7,123h0.6l0.4,9.4h-0.6L46.7,123z"/>
</g>
<g id="Accent_Weapon_Hanging-Holster-Right" style="fill: rgb(0, 0, 0);">
<path d="M49.8,119.4v0.4l-2.7,0.1v-0.4L49.8,119.4z"/>
<path d="M49.8,119.8v0.4l-2.7,0.1v-0.4L49.8,119.8z"/>
<path d="M49.8,119.1v0.4l-2.7,0.1v-0.4L49.8,119.1z"/>
<path d="M49.6,114.4v0.4l-2.7,0.1v-0.4L49.6,114.4z"/>
<path d="M49.6,115.4h0.6l0.2,3.7h-0.6L49.6,115.4z"/>
<path d="M46.4,115.5H47l0.2,3.7h-0.6L46.4,115.5z"/>
<path d="M47.4,123h0.9l0.4,9.4h-0.9L47.4,123z"/>
<path d="M49,122.9h0.9l0.4,9.4h-0.9L49,122.9z"/>
</g>
</g>
<path id="Holster_Hanging-Holster-Right" d="M52.4,136.1l0.8-15.2l-7,11.4l1.6,20.6c1.6,1.7,3.2,1.7,4.8-0.2 L52.4,136.1z" style="fill: rgb(76, 45, 19);"/>
<g id="Straps_Hanging-Holster-Right" style="fill: rgb(76, 45, 19);">
<path d="M79.2,96.5c-7.7,11-15.4,20.3-26,24.5l-0.1,2.6c13.3-5.6,20.4-15.1,28.2-27.1H79.2z"/>
<path d="M52.4,139.2c7.2,5.5,14.9,8.5,24.2,9l-0.7,2.1c-8-0.7-15.5-3.7-23.5-8.9V139.2z"/>
<path d="M52.4,141.3v-2.2c-1.9,0.8-4,0.9-5.7,0.3l0.2,2.2C48.7,142.1,50.8,142.1,52.4,141.3z"/>
</g>
<g id="Buckle_Hanging-Holster-Right" style="fill: rgb(0, 0, 0);">
<path d="M69.2,148l1,0.1v0.3l-1-0.2V148"/>
<path d="M71.9,107.6l0.7-0.9l0.3,0.2l-0.7,0.9L71.9,107.6"/>
<path d="M72.2,107.8l1.1,0.9l2.7-3.3l-2.6-2.1l-2.7,3.3l1.2,1l0.6-0.8l-0.6-0.5l1.5-1.8l1.4,1.2l-1.5,1.8l-0.6-0.5 L72.2,107.8"/>
<path d="M69.2,148l0.8,0.1l0.1-0.8l1.9,0.4l-0.3,1.8l-1.9-0.4l0.1-0.7l-0.8-0.1l-0.2,1.4l3.5,0.7l0.5-3.3l-3.5-0.7 L69.2,148"/>
</g>
</g>
</g>
</g>
<g id="Under-Belt">
<g id="Girth-Belt" class="option" style="fill: rgb(47, 25, 5); display: inherit;">
<path d="M84.4,84.5c-9.3,0-27.8-2.2-27.8-2.2l0.6-1.9c0,0,18.1,1.5,27.2,2.2c9.1-0.8,27.2-2.2,27.2-2.2l0.6,1.9 C112.2,82.2,93.6,84.5,84.4,84.5z"/>
<path d="M84.4,86.4c-9.5,0-28.4-2.2-28.4-2.2l0.6-1.9c0,0,23.2,1.9,27.8,2.2c4.6-0.4,27.8-2.2,27.8-2.2l0.6,1.9 C112.7,84.1,93.8,86.4,84.4,86.4z"/>
<path d="M84.4,88.3c-9.6,0-28.8-2.2-28.8-2.2l0.4-1.9c0,0,23.7,1.9,28.4,2.2c4.7-0.4,28.4-2.2,28.4-2.2l0.4,1.9 C113.2,86.1,94,88.3,84.4,88.3z"/>
<path d="M84.4,90.2c-9.7,0-29.2-2.2-29.2-2.2l0.4-1.9c0,0,24,1.9,28.8,2.2c4.8-0.4,28.8-2.2,28.8-2.2l0.4,1.9 C113.5,88,94.1,90.2,84.4,90.2z"/>
<path d="M84.4,92.1c-9.8,0-29.5-2.2-29.5-2.2l0.3-1.9c0,0,24.3,1.9,29.2,2.2c4.9-0.4,29.2-2.2,29.2-2.2l0.3,1.9 C113.9,89.9,94.2,92.1,84.4,92.1z"/>
<path d="M84.4,94c-9.9,0-29.8-2.2-29.8-2.2l0.3-1.9c0,0,24.6,1.9,29.5,2.2c4.9-0.4,29.5-2.2,29.5-2.2l0.3,1.9 C114.2,91.8,94.3,94,84.4,94z"/>
<path d="M84.4,95.9c-10,0-30.1-2.2-30.1-2.2l0.3-1.9c0,0,24.8,1.9,29.8,2.2c5-0.4,29.8-2.2,29.8-2.2l0.3,1.9 C114.5,93.7,94.4,95.9,84.4,95.9z"/>
<path d="M84.4,97.8c-10.1,0-30.4-2.2-30.4-2.2l0.3-1.9c0,0,25.1,1.9,30.1,2.2c5-0.4,30.1-2.2,30.1-2.2l0.3,1.9 C114.8,95.6,94.5,97.8,84.4,97.8z"/>
<path d="M84.4,99.7c-10.3,0-30.8-2.2-30.8-2.2l0.3-1.9c0,0,25.4,1.9,30.4,2.2c5.1-0.4,30.4-2.2,30.4-2.2l0.3,1.9 C115.1,97.5,94.6,99.7,84.4,99.7z"/>
<path d="M84.4,101.6c-10.4,0-31.2-2.2-31.2-2.2l0.4-1.9c0,0,25.6,1.9,30.8,2.2c5.1-0.4,30.8-2.2,30.8-2.2l0.4,1.9 C115.5,99.4,94.8,101.6,84.4,101.6z"/>
</g>
</g>
<g id="Belt">
<g id="Pouch-Belt-6" class="option" style="display: inherit;">
<path id="Main_Pouch-Belt-6" d="M114.5,92.5c-6.8,0.6-22.3,2.8-30.1,2.8c-7.9,0-23.4-2.2-30.1-2.8l1-7.9 c5.5,0.5,21.4,2.7,29.1,2.7c7.4,0,23-2.2,28.9-2.8L114.5,92.5z" style="fill: rgb(0, 0, 0);"/>
<rect id="Buckle_Pouch-Belt-6" x="78.8" y="86.6" width="11.2" height="9.2" style="fill: rgb(79, 7, 7);"/>
<g id="Pouches_Pouch-Belt-6" style="fill: rgb(97, 55, 19);">
<g>
<g>
<g>
<path d="M70.3,84.5c-0.3,0-0.6,0-0.8,0.1c-0.7,0.3-2.1,0.8-2.1,0.8l8,0.5l2.2-0.9C77.6,85,72,84.7,70.3,84.5z"/>
<path d="M77.9,85.3c0-0.1,0-0.2-0.1-0.2c-0.1,0-0.2-0.1-0.2,0c-0.7,0.3-2.1,0.9-2.1,0.9l-1,12.4 c0.7-0.4,1.4-0.7,2.1-0.8c0.4-0.1,0.7-0.4,0.7-0.8C77.4,92.9,77.5,89.1,77.9,85.3z"/>
<path d="M75.4,86l-8-0.5c0,1.9-0.2,3.8-0.3,5.7c-0.1,2.1-0.2,4.2-0.3,6.3c0,0.2,0,0.3,0.1,0.4s0.2,0.2,0.4,0.2 c2.3,0,4.6,0.1,6.9,0.4c0.1,0,0.3,0,0.4-0.1s0.2-0.2,0.2-0.4c0.1-1.5,0.4-5.3,0.4-5.3L75.4,86z"/>
<path d="M75.4,86l-8-0.5c0,0-0.2,1.6-0.4,3.1c-0.1,0.8,0.1,1.5,0.6,2.1c0.5,0.6,1.2,0.9,1.9,1 c0.9,0.1,2,0.1,3,0.2c0.8,0,1.5-0.2,2.1-0.8c0.5-0.5,0.9-1.3,0.9-2C75.4,87.6,75.4,86,75.4,86z"/>
<path d="M71.2,90.3c0.3,0,0.5,0.3,0.5,0.5c0,0.3-0.3,0.5-0.5,0.5c-0.3,0-0.5-0.3-0.5-0.5 C70.6,90.5,70.9,90.3,71.2,90.3z"/>
</g>
</g>
<g>
<g>
<path d="M59.3,83c-0.3,0-0.6,0-0.9,0.2c-0.7,0.3-1.8,0.8-1.8,0.8l7.3,0.4l2-0.9C65.8,83.5,60.8,83.1,59.3,83z"/>
<path d="M66.1,83.8c0-0.1,0-0.2-0.1-0.2c-0.1-0.1-0.2-0.1-0.2,0c-0.7,0.3-1.9,0.9-1.9,0.9l-1,12.4 c0.6-0.4,1.3-0.7,1.9-0.8c0.4-0.1,0.7-0.4,0.7-0.8C65.6,91.3,65.7,87.5,66.1,83.8z"/>
<path d="M63.8,84.4L56.5,84c-0.1,1.9-0.2,3.8-0.3,5.7c-0.1,2.1-0.2,4.2-0.3,6.3c0,0.2,0,0.3,0.1,0.4 s0.2,0.2,0.4,0.2c2.1,0,4.1,0.1,6.2,0.4c0.1,0,0.3,0,0.4-0.1s0.2-0.2,0.2-0.4c0.1-1.5,0.4-5.3,0.4-5.3L63.8,84.4z"/>
<path d="M63.8,84.4L56.5,84c0,0-0.2,1.6-0.4,3.2c-0.1,0.8,0.1,1.5,0.6,2.1c0.5,0.6,1.2,0.9,1.9,1 c0.7,0,1.5,0.1,2.2,0.1c0.8,0,1.5-0.2,2-0.7s0.9-1.2,0.9-2C63.8,86,63.8,84.4,63.8,84.4z"/>
<path d="M59.9,88.8c0.3,0,0.5,0.3,0.4,0.5c0,0.3-0.2,0.5-0.5,0.5s-0.5-0.3-0.4-0.5C59.4,89,59.6,88.8,59.9,88.8z "/>
</g>
</g>
<g>
<path d="M51.9,83.9l0.5-0.9l2.8,0.1l0.3,1.1L51.9,83.9z"/>
<path d="M55.6,84.3c0-0.1,0-0.1-0.1-0.2c0-0.1-0.1-0.1-0.2-0.1c-0.8,0-3.5-0.1-3.5-0.1l-0.5,11.2 c0.1,0.3,1.5,0.5,2.7,0.5c0.5,0,0.9-0.4,0.9-0.9C55,91.2,55.2,87.7,55.6,84.3z"/>
</g>
</g>
<g>
<g>
<g>
<path d="M98.4,84.5c0.3,0,0.6,0,0.8,0.1c0.7,0.3,2.1,0.8,2.1,0.8l-8,0.5L91.1,85C91.2,85,96.8,84.7,98.4,84.5z"/>
<path d="M90.9,85.3c0-0.1,0-0.2,0.1-0.2s0.2-0.1,0.2,0c0.7,0.3,2.1,0.9,2.1,0.9l1,12.4c-0.7-0.4-1.4-0.7-2.1-0.8 c-0.4-0.1-0.7-0.4-0.7-0.8C91.4,92.9,91.3,89.1,90.9,85.3z"/>
<path d="M93.3,86l8-0.5c0.1,1.9,0.2,3.8,0.3,5.7c0.1,2.1,0.2,4.2,0.3,6.3c0,0.2,0,0.3-0.1,0.4 c-0.1,0.1-0.2,0.2-0.4,0.2c-2.3,0-4.6,0.1-6.9,0.4c-0.1,0-0.3,0-0.4-0.1s-0.2-0.2-0.2-0.4c-0.1-1.5-0.4-5.3-0.4-5.3L93.3,86z "/>
<path d="M93.3,86l8-0.5c0,0,0.2,1.6,0.4,3.1c0.1,0.8-0.1,1.5-0.6,2.1c-0.5,0.6-1.2,0.9-1.9,1 c-0.9,0.1-2,0.1-3,0.2c-0.8,0-1.5-0.2-2.1-0.8c-0.6-0.5-0.9-1.3-0.9-2C93.3,87.6,93.3,86,93.3,86z"/>
<path d="M97.6,90.3c-0.3,0-0.5,0.3-0.5,0.5c0,0.3,0.3,0.5,0.5,0.5c0.3,0,0.5-0.3,0.5-0.5 C98.1,90.5,97.9,90.3,97.6,90.3z"/>
</g>
</g>
<g>
<g>
<path d="M109.5,83c0.3,0,0.6,0,0.9,0.2c0.7,0.3,1.8,0.8,1.8,0.8l-7.3,0.4l-2-0.9C103,83.5,107.9,83.1,109.5,83z"/>
<path d="M102.7,83.8c0-0.1,0-0.2,0.1-0.2c0.1,0,0.2-0.1,0.2,0c0.7,0.3,1.9,0.9,1.9,0.9l1,12.4 c-0.6-0.4-1.3-0.7-1.9-0.8c-0.4-0.1-0.7-0.4-0.7-0.8C103.2,91.3,103.1,87.5,102.7,83.8z"/>
<path d="M104.9,84.4l7.3-0.4c0.1,1.9,0.2,3.8,0.3,5.7c0.1,2.1,0.2,4.2,0.3,6.3c0,0.2,0,0.3-0.1,0.4 c-0.1,0.1-0.2,0.2-0.4,0.2c-2.1,0-4.1,0.1-6.2,0.4c-0.1,0-0.3,0-0.4-0.1c-0.1-0.1-0.2-0.2-0.2-0.4c-0.1-1.5-0.4-5.3-0.4-5.3 L104.9,84.4z"/>
<path d="M104.9,84.4l7.3-0.4c0,0,0.2,1.6,0.4,3.2c0.1,0.8-0.1,1.5-0.6,2.1c-0.5,0.6-1.2,0.9-1.9,1 c-0.7,0-1.5,0.1-2.2,0.1c-0.8,0-1.5-0.2-2-0.7s-0.9-1.2-0.9-2C104.9,86,104.9,84.4,104.9,84.4z"/>
<path d="M108.9,88.8c-0.3,0-0.5,0.3-0.4,0.5c0,0.3,0.2,0.5,0.5,0.5s0.5-0.3,0.4-0.5 C109.3,89,109.1,88.8,108.9,88.8z"/>
</g>
</g>
<g>
<path d="M116.9,83.9l-0.5-0.9l-2.8,0.1l-0.3,1.1L116.9,83.9z"/>
<path d="M113.2,84.3c0-0.1,0-0.1,0.1-0.2c0-0.1,0.1-0.1,0.2-0.1c0.8,0,3.5-0.1,3.5-0.1l0.5,11.2 c-0.1,0.3-1.5,0.5-2.7,0.5c-0.5,0-0.9-0.4-0.9-0.9C113.7,91.2,113.6,87.7,113.2,84.3z"/>
</g>
</g>
</g>
</g>
</g>
</g>
<g id="Extras_Front">
<g id="Front">
<g id="None_Front" class="option" style="display: inherit;">
</g>
</g>
</g>
</svg></svg>