<?xml version='1.0' encoding='UTF-8'?><svg version='1.1' xmlns='http://www.w3.org/2000/svg'><metadata><rdf:rdf xmlns:rdf="http://www.w3.org/1999/02/22-rdf-syntax-ns#" xmlns:rdfs="http://www.w3.org/2000/01/rdf-schema#" xmlns:dc="http://purl.org/dc/elements/1.1/"> <rdf:description> <dc:creator>MandoCreator</dc:creator> <dc:publisher>https://www.mandocreator.com</dc:publisher> <dc:description>Your Beskar'gam - created by MandoCreator</dc:description> <dc:format>image/svg+xml</dc:format> <dc:type>Image</dc:type> <dc:title>MandoCreator - Ner Berskar'gam</dc:title> <dc:date>2021-10-08T16:27:04.888Z</dc:date> </rdf:description> </rdf:rdf></metadata><svg version="1.1" id="Male" xmlns="http://www.w3.org/2000/svg" xmlns:xlink="http://www.w3.org/1999/xlink" x="0px" y="0px" viewBox="0 -55 169 300" style="fill: white; fill-rule: evenodd; stroke: black; stroke-width: 0.2px; pointer-events: none; position: relative; height: 100%;">
<g id="Extras_Back">
<g id="Back"><g id="NO-CAPES_Back" class="option" style="display: inherit;">
</g>
</g>
</g>
<g id="Suit">
<g id="Neck-Seal">
<g id="Standard-Neck-Seal" class="option" style="fill: rgb(126, 126, 126); display: inherit;">
<path d="M98,7.5c0-0.9-0.9-1.6-2.1-1.6c0,0-7.8,0.9-11.6,0.9c-3.9,0-11.6-0.9-11.6-0.9c-1.1,0-2.1,0.7-2.1,1.6 s0.9,1.6,2.1,1.6c0,0,7.8,0.9,11.6,0.9C88.2,10,96,9.2,96,9.2C97.1,9.2,98,8.4,98,7.5z"/>
<path d="M98.7,9.4c0-0.9-1-1.7-2.2-1.7c0,0-8.1,0.9-12.2,0.9c-4.1,0-12.2-0.9-12.2-0.9c-1.2,0-2.2,0.8-2.2,1.7 c0,0.9,1,1.7,2.2,1.7c0,0,8.1,0.9,12.2,0.9c4.1,0,12.2-0.9,12.2-0.9C97.8,11.1,98.7,10.4,98.7,9.4z"/>
<path d="M99.5,11.8c0-1-1-1.8-2.3-1.8c0,0-8.6,0.9-12.9,0.9C80,10.9,71.4,10,71.4,10c-1.3,0-2.3,0.8-2.3,1.8 s1,1.8,2.3,1.8c0,0,8.6,0.9,12.9,0.9c4.3,0,12.9-0.9,12.9-0.9C98.5,13.6,99.5,12.8,99.5,11.8z"/>
<path d="M100.3,13.9c0-1-1.1-1.9-2.4-1.9c0,0-9,1-13.5,1s-13.5-1-13.5-1c-1.3,0-2.4,0.8-2.4,1.9s1.1,1.9,2.4,1.9 c0,0,9,1,13.5,1s13.5-1,13.5-1C99.2,15.8,100.3,15,100.3,13.9z"/>
<path d="M101,16.1c0-0.8-1.1-1.4-2.5-1.4c0,0-9.4,0.7-14.2,0.7c-4.8,0-14.2-0.7-14.2-0.7c-1.4,0-2.5,0.6-2.5,1.4 c0,0.8,1.1,1.4,2.5,1.4c0,0,9.4,0.8,14.2,0.8c4.8,0,14.2-0.8,14.2-0.8C99.9,17.5,101,16.9,101,16.1z"/>
<path d="M101,18.4c0-0.8-1.1-1.4-2.5-1.4c0,0-9.4,0.7-14.2,0.7c-4.8,0-14.2-0.7-14.2-0.7c-1.4,0-2.5,0.6-2.5,1.4 c0,0.8,1.1,1.4,2.5,1.4c0,0,9.4,1.4,14.2,1.4c4.8,0,14.2-1.4,14.2-1.4C99.9,19.9,101,19.2,101,18.4z"/>
</g>
</g>
<g id="Flight-Suit" style="fill: rgb(110, 110, 110);">
<path d="M72.8,158.4l-1.5,8.7l-11,53.1c0,0-4.9,3-7.4,3.5s-7.7-0.4-7.7-0.4l3.8-43l2.9-18.4l0.7-7.8 c0,0-2.5-22.8-1.7-34.1c0.8-11.4,6.6-34,6.6-34l26.8,0.6l26.8-0.6c0,0,5.8,22.6,6.6,34c0.8,11.4-1.7,34.1-1.7,34.1l0.7,7.8 l2.9,18.4l3.8,43c0,0-5.3,1.2-7.8,0.7s-7.3-3.7-7.3-3.7l-11-53.1l-1.5-8.7l-11.6-30.3L72.8,158.4z"/>
<g>
<path d="M128.5,43.3l11.9,41.6l1,21.5l-9.5,1.8l-6-20.2l-13.6-33.9l0.7-15.5l2.3-3.7L128.5,43.3z"/>
<path d="M40.3,43.3l13.1-8.4l2.3,3.7l0.5,16L42.8,88l-6,20.2l-9.5-1.8l1-21.5L40.3,43.3z"/>
</g>
</g>
<g id="Sleeves" class="toggle" style="fill: rgb(140, 140, 140);">
<g>
<path d="M111.4,56.1l2.7,5.9c0,0,4.2-3.2,7-4.8c2.8-1.6,4.3-2.6,6.9-3.6c2.5-1,5-1.5,5-1.5l-6-12.2l-5.8-9.7 l-11.5,5.1L111.4,56.1z"/>
<path d="M112.8,59.2c-0.2-0.2,5-4.5,8.6-6.3c3.5-1.8,10.2-3.7,10.2-3.7"/>
</g>
<g>
<path d="M57.3,56.1L54.6,62c0,0-4.2-3.2-7-4.8c-2.8-1.6-4.4-2.6-6.9-3.6s-5-1.5-5-1.5l6-12.2l5.8-9.7L59,35.4 L57.3,56.1z"/>
<path d="M55.9,59.2c0.2-0.2-5-4.5-8.6-6.3c-3.5-1.8-10.2-3.7-10.2-3.7"/>
</g>
</g>
</g>
<g id="Boots">
<g id="Basic_Boots" class="option" style="display: inherit;">
<g id="Main_Basic-Boot" style="fill: rgb(76, 76, 76);">
<path d="M108.3,216.7c1.4,0,3.2,0.9,4.5,1.1c1.4,0.2,2.9,0.2,4.3,0.1l0.6-0.1h0.7c0.3,0,0.7-0.1,1-0.2l0.5-0.1h0.2 l0.4-0.1l0.3-0.1h0.1c1.1-0.3,2.2-0.7,2.2-0.7c0.3,1.4,0.5,3.1,1.1,4.5c1,2.1,0.9,3.1,2.6,4.7c1.1,1.1,4.1,3.1,5.4,3.9 c0.6,0.4,1.2,0.6,1.8,0.9h0.1c2.5,0.9,5.2,1.3,6.5,4c0.3,0.6,0.5,1.3,0.5,2c-0.1,0.9-1,1-1.7,1.2c-1.8,0.5-3.4,0.9-5.5,1.4 c-2.4,0.5-4.6,0.9-7.1,0.8c-1.8-0.1-3.4-0.1-5-1.1c-0.6-0.4-1.3-0.8-1.9-1.3c-1.3-1.1-2.1-2.4-3.7-3c-1.2-0.5-2.4-0.9-3.6-1.2 c-1.8-0.4-4.3-1-5.2-2.7c-0.4-1.3,0-1.9,0.1-3.1l0.1-0.5c0.1-0.7,0.2-1.5,0.3-2.3c0.1-1.5-0.3-3-0.4-4.5 c-0.1-0.9-0.1-1.7-0.1-2.6c0-0.1-0.1-0.8,0.1-0.8c0.2-0.1,0.4-0.1,0.6-0.1L108.3,216.7z"/>
<path d="M60.5,216.7c-1.4,0-3.2,0.9-4.5,1.1c-1.4,0.2-2.9,0.2-4.3,0.1l-0.6-0.1h-0.7c-0.3,0-0.7-0.1-1-0.2l-0.5-0.1 h-0.2l-0.4-0.1l-0.3-0.1h-0.1c-1.1-0.3-2.2-0.7-2.2-0.7c-0.3,1.4-0.5,3.1-1.1,4.5c-1,2.1-0.9,3.1-2.6,4.7 c-1.1,1.1-4.1,3.1-5.4,3.9c-0.6,0.4-1.2,0.6-1.8,0.9h-0.1c-2.5,0.9-5.2,1.3-6.5,4c-0.3,0.6-0.5,1.3-0.5,2c0.1,0.9,1,1,1.7,1.2 c1.8,0.5,3.4,0.9,5.5,1.4c2.4,0.5,4.6,0.9,7.1,0.8c1.8-0.1,3.4-0.1,5-1.1c0.6-0.4,1.3-0.8,1.9-1.3c1.3-1.1,2.1-2.4,3.7-3 c1.2-0.5,2.4-0.9,3.6-1.2c1.8-0.4,4.3-1,5.2-2.7c0.4-1.3,0-1.9-0.1-3.1l-0.1-0.5c-0.1-0.7-0.2-1.5-0.3-2.3 c-0.1-1.5,0.3-3,0.4-4.5c0.1-0.9,0.1-1.7,0.1-2.6c0-0.1,0.1-0.8-0.1-0.8c-0.2-0.1-0.4-0.1-0.6-0.1L60.5,216.7z"/>
</g>
<g id="Bottom_Basic-Boot" style="fill: rgb(49, 49, 49);">
<path d="M107.4,230.6c0.5,0.9,1.3,1.4,2.3,1.9c0.9,0.4,1.9,0.6,2.9,0.9c0.1,0,0.3,0.1,0.4,0.1 c0.2,0.1,0.4,0.1,0.6,0.2c0.1,0,0.1,0,0.2,0.1h0.1c0.1,0,0.1,0,0.2,0.1h0.1c0.1,0,0.2,0.1,0.3,0.1h0.2c0.2,0.1,0.3,0.1,0.5,0.2 h0.1c0.1,0.1,0.3,0.1,0.4,0.2h0.1c0.1,0,0.2,0.1,0.3,0.1h0.1c0.3,0.1,0.5,0.2,0.7,0.4h0.1c0.1,0,0.1,0.1,0.2,0.1 c0.1,0,0.1,0.1,0.2,0.1h0.1l0.1,0.1c0.3,0.2,0.5,0.5,0.8,0.7l1.5,1.5c0.1,0,0.1,0.1,0.2,0.1c0.1,0.1,0.2,0.1,0.3,0.2 c0.1,0,0.1,0.1,0.2,0.1c0.1,0.1,0.1,0.1,0.2,0.2c0,0,0.1,0,0.1,0.1c0.1,0.1,0.2,0.1,0.3,0.2c0.1,0,0.2,0.1,0.2,0.1l0.1,0.1 l0.2,0.1l0.1,0.1h0.2c0.1,0.1,0.2,0.1,0.3,0.2c0.1,0,0.1,0,0.2,0.1h0.1c0.3,0.1,0.7,0.3,1,0.3h1.5c0.2,0,0.4,0,0.7,0.1h3.5 c0.4,0,0.8-0.1,1.2-0.1h0.8c0.3-0.1,0.7-0.1,1-0.2h0.7c0.1,0,0.2,0,0.3-0.1h0.1c0.1,0,0.2,0,0.3-0.1c0.1,0,0.2,0,0.3-0.1 c0.6-0.1,1.1-0.2,1.6-0.4h0.2c0.1,0,0.3-0.1,0.4-0.1h0.3c0.2,0,0.4-0.1,0.6-0.1c0.1,0,0.2-0.1,0.3-0.1c0.3-0.1,0.7-0.2,1-0.3h0.5 c0.3-0.1,0.5-0.1,0.8-0.2h0.2l0.3-0.1h1.1c0.1-0.1,0.2-0.2,0.2-0.2s0.5,0.7,0.5,2c-1.1,1.6-4.6,2.1-9.4,2.8 c-4.8,0.6-7.7,0.5-9.7-0.3c-2-0.9-5.5-4.9-8-5.2c-2.5-0.2-5.5-1.5-6.7-2.3c-0.6-0.4-0.4-3-0.4-3L107.4,230.6z"/>
<path d="M61.4,230.6c-0.5,0.9-1.3,1.4-2.3,1.9c-0.9,0.4-1.9,0.6-2.9,0.9c-0.1,0-0.3,0.1-0.4,0.1 c-0.2,0.1-0.4,0.1-0.6,0.2c-0.1,0-0.1,0-0.2,0.1h-0.1c-0.1,0-0.1,0-0.2,0.1h-0.1c-0.1,0-0.2,0.1-0.3,0.1h-0.2 c-0.2,0.1-0.3,0.1-0.5,0.2h-0.1c-0.1,0.1-0.3,0.1-0.4,0.2H53c-0.1,0-0.2,0.1-0.3,0.1h-0.1c-0.3,0.1-0.5,0.2-0.7,0.4h-0.1 c-0.1,0-0.1,0.1-0.2,0.1c-0.1,0-0.1,0.1-0.2,0.1h-0.1l-0.1,0.1c-0.3,0.2-0.5,0.5-0.8,0.7l-1.5,1.5c-0.1,0-0.1,0.1-0.2,0.1 c-0.1,0.1-0.2,0.1-0.3,0.2c-0.1,0-0.1,0.1-0.2,0.1c-0.1,0.1-0.1,0.1-0.2,0.2c0,0-0.1,0-0.1,0.1c-0.1,0.1-0.2,0.1-0.3,0.2 c-0.1,0-0.2,0.1-0.2,0.1l-0.1,0.1l-0.2,0.1l-0.1,0.1h-0.2c-0.1,0.1-0.2,0.1-0.3,0.2c-0.1,0-0.1,0-0.2,0.1h-0.1 c-0.3,0.1-0.7,0.3-1,0.3h-1.5c-0.2,0-0.4,0-0.6,0.1h-3.5c-0.4,0-0.8-0.1-1.2-0.1h-0.8c-0.3-0.1-0.7-0.1-1-0.2h-0.7 c-0.1,0-0.2,0-0.3-0.1h-0.1c-0.1,0-0.2,0-0.3-0.1c-0.1,0-0.2,0-0.3-0.1c-0.6-0.1-1.1-0.2-1.6-0.4h-0.2c-0.1,0-0.3-0.1-0.4-0.1 h-0.3c-0.2,0-0.4-0.1-0.6-0.1c-0.1,0-0.2-0.1-0.3-0.1c-0.3-0.1-0.7-0.2-1-0.3H30c-0.3-0.1-0.5-0.1-0.8-0.2H29l-0.3-0.1h-1 c-0.1-0.1-0.2-0.2-0.2-0.2s-0.5,0.7-0.5,2c1.1,1.6,4.6,2.1,9.4,2.8c4.8,0.6,7.7,0.5,9.7-0.3c2-0.9,5.5-4.9,8-5.2 c2.5-0.2,5.5-1.5,6.7-2.3c0.6-0.4,0.4-3,0.4-3L61.4,230.6z"/>
</g>
<g id="Top_Basic-Boot" style="fill: rgb(255, 214, 0);">
<path d="M121.1,217.2c0.7,3.3,1.7,6.1,3.9,8.8c3.4,4.3,9.1,4.6,13.1,8.1c1,0.9,1,2.3,1.1,3.6c-1.7,0.5-3.1,0.8-5,1.3 c-0.1-1.3,0.1-2.8-1-3.7c-4-3.5-10.3-3.3-13.6-7.6c-2.2-2.8-2.2-6.4-2.9-9.7h0.3l0.6-0.1h0.7c0.3,0,0.7-0.1,1-0.2l0.5-0.1h0.2 l0.4-0.1l0.3-0.1h0.1C121,217.3,121.1,217.2,121.1,217.2z"/>
<path d="M47.6,217.2c-0.7,3.3-1.7,6.1-3.9,8.8c-3.4,4.3-9.1,4.6-13.1,8.1c-1,0.9-1,2.3-1.1,3.6 c1.6,0.5,3.1,0.8,5,1.3c0.1-1.3-0.1-2.8,1-3.7c4-3.5,10.3-3.3,13.6-7.6c2.2-2.8,2.2-6.4,2.9-9.7h-0.3l-0.6-0.1h-0.7 c-0.3,0-0.7-0.1-1-0.2l-0.5-0.1h-0.2l-0.4-0.1l-0.3-0.1h-0.1C47.8,217.3,47.7,217.2,47.6,217.2z"/>
</g>
<g id="Side_Basic-Boot" style="fill: rgb(255, 214, 0);">
<path d="M108.7,216.8c1.4,0.1,2.9,0.9,4.1,1.1h0.2v1.2c0,2-0.2,10.8-0.6,10.7c-0.4,0-1.6-0.2-1.9-0.5 c-0.2-0.2-0.2-0.7-0.3-1c-0.2-0.9-0.4-1.7-0.5-2.6c-0.2-1.2-0.3-2.4-0.4-3.5C109.2,220.3,108.9,218.6,108.7,216.8z"/>
<path d="M60.1,216.8c-1.4,0.1-2.9,0.9-4.1,1.1h-0.2v1.2c0,2,0.2,10.8,0.6,10.7c0.4,0,1.6-0.2,1.9-0.5 c0.2-0.2,0.2-0.7,0.3-1c0.2-0.9,0.4-1.7,0.5-2.6c0.2-1.2,0.3-2.4,0.4-3.5C59.6,220.3,59.9,218.6,60.1,216.8z"/>
</g>
</g>
</g>
<g id="Gloves">
<g id="Left-Glove">
<g id="Basic_Left_Glove" class="option" style="fill: rgb(84, 84, 84); display: inherit;">
<path d="M137.6,124.1c-0.5,0-1,0-1.6,0.1c-0.4,0.1-0.7,0.2-1,0.3c-1,0.6-0.7,1.8,0.2,2.3c1,0.6,2.6,0,3.1-1.1 C138.5,125.3,137.9,124.5,137.6,124.1"/>
<path d="M135.8,125.2c-0.5,0-1,0-1.6,0.1c-0.4,0.1-0.7,0.2-1,0.3c-1,0.6-0.7,1.8,0.2,2.3c1,0.5,2.6,0,3.1-1.1 C136.7,126.4,136.1,125.6,135.8,125.2"/>
<path d="M134.5,126.6c-0.5,0-1.2,0.1-1.7,0.3c-0.3,0.1-0.7,0.3-1,0.5c-0.9,0.7-0.5,1.9,0.5,2.2 c1.1,0.4,2.6-0.3,2.9-1.5C135.4,127.7,134.5,126.6,134.5,126.6z"/>
<path d="M131.6,110c0,0-1.6,2.1-2,3.7c-0.3,1.1-0.1,3.7-0.5,5.4c-0.4,1.7-0.7,2.7-0.7,2.7s-1.4,2.8-1.1,3.4 c0.2,0.6,1.4,1.2,2.1,0.9c0.9-0.4,1.9-2.4,2.6-3.8c0.7-1.4,1.2-3.4,1.2-3.4s0.9,0.3,1.4,0.7c1.6,1.2,0.9,5,0.9,5 s-0.7,1.3-1.7,2.8c-1.4,2-3.4,3.8-2.1,5.4c1.3,1.5,4.2-2.4,4.2-2.4l2.9-3.7c0,0,3.3-5.4,3.4-6.5c0.1-0.8,0-3.5,0-3.5l-1-10.4 l-5.2,0.4l-4.3,1.4L131.6,110"/>
</g>
</g>
<g id="Right-Glove">
<g id="Basic_Right_Glove" class="option" style="fill: rgb(84, 84, 84); display: inherit;">
<path d="M31.1,124.1c0.5,0,1,0,1.6,0.1c0.4,0.1,0.7,0.2,1,0.3c1,0.6,0.7,1.8-0.2,2.3c-1,0.6-2.6,0-3.1-1.1 C30.3,125.3,30.9,124.5,31.1,124.1"/>
<path d="M32.9,125.2c0.5,0,1,0,1.6,0.1c0.4,0.1,0.7,0.2,1,0.3c1,0.6,0.7,1.8-0.2,2.3c-1,0.5-2.6,0-3.1-1.1 C32.1,126.4,32.7,125.6,32.9,125.2"/>
<path d="M34.2,126.6c0.5,0,1.2,0.1,1.7,0.3c0.3,0.1,0.7,0.3,1,0.5c0.9,0.7,0.5,1.9-0.5,2.2c-1.1,0.4-2.6-0.3-2.9-1.5 C33.3,127.7,34.2,126.6,34.2,126.6z"/>
<path d="M37.1,110c0,0,1.5,2.1,2,3.7c0.3,1.1,0.1,3.7,0.5,5.4c0.4,1.7,0.7,2.7,0.7,2.7s1.4,2.8,1.1,3.4 c-0.2,0.6-1.4,1.2-2.1,0.9c-0.9-0.4-1.9-2.4-2.6-3.8c-0.7-1.4-1.2-3.4-1.2-3.4s-0.9,0.3-1.4,0.7c-1.6,1.2-0.9,5-0.9,5 s0.7,1.3,1.7,2.8c1.4,2,3.4,3.8,2.1,5.4c-1.3,1.5-4.2-2.4-4.2-2.4l-2.9-3.7c0,0-3.3-5.4-3.4-6.5c-0.1-0.8,0-3.5,0-3.5l1-10.4 l5.2,0.4l4.3,1.4L37.1,110"/>
</g>
</g>
</g>
<g id="Biceps">
<g id="Left-Biceps">
<g id="Basic_Biceps_Left" class="option" style="display: inherit;">
<path id="Main_Basic_Biceps_Left" d="M133.5,52c-1.1-2.7-6.2-14.8-6.2-14.8s-8.3,3.4-10.4,4.3 c-0.6,0.2-0.9,0.9-0.6,1.5c1,2.4,3.4,8.1,4.8,11.7c0.3,0.8,1,1.5,1.8,1.8c0.8,0.3,1.7,0.3,2.5,0c2.4-1,5.7-2.4,7.4-3 C133.5,53.2,133.8,52.6,133.5,52" style="fill: rgb(255, 214, 0);"/>
<path id="Strap_Basic_Biceps_Left" d="M118.6,48.3l-5.8,2.4l-0.1,4.3l7.4-3.1L118.6,48.3" style="fill: rgb(164, 106, 57);"/>
<path id="Trauma-Plate_Basic_Biceps_Left" class="toggle" style="fill: rgb(163, 163, 163);" d="M133.5,51.4l-5.3-12.7l-10.1,4.2l4.6,11.2 c0.2,0.4,0.5,0.7,0.9,0.9s0.8,0.2,1.2,0L133.5,51.4"/>
</g>
</g>
<g id="Right-Biceps">
<g id="Basic_Biceps_Right" class="option" style="display: inherit;">
<path id="Main_Basic_Biceps_Right" d="M35.4,52c1.2-2.8,6.2-14.8,6.2-14.8s8.3,3.4,10.4,4.3c0.6,0.2,0.9,0.9,0.6,1.5 c-1,2.4-3.4,8.1-4.8,11.7c-0.3,0.8-1,1.5-1.8,1.8s-1.7,0.3-2.5,0c-2.4-1-5.7-2.4-7.4-3C35.5,53.2,35.2,52.6,35.4,52" style="fill: rgb(255, 214, 0);"/>
<path id="Strap_Basic_Biceps_Right" d="M50.4,48.3l5.8,2.4l0.1,4.3l-7.4-3.1L50.4,48.3" style="fill: rgb(164, 106, 57);"/>
<path id="Trauma-Plate_Basic_Biceps_Right" class="toggle" style="fill: rgb(163, 163, 163);" d="M35.5,51.4l5.3-12.7l10.1,4.2l-4.6,11.2 c-0.2,0.4-0.5,0.7-0.9,0.9c-0.4,0.2-0.8,0.2-1.2,0L35.5,51.4"/>
</g>
</g>
</g>
<g id="Vest" style="fill: rgb(89, 89, 89);">
<path d="M84.4,20.9c8.4,0,15.3-4.3,15.5-8h0.1l18.3,5.4l13.2,23.9l-2.8,1.2l-13.3-8.6l-2.3,3.7l-1.5,47.4 c0,0-8.7,4.7-13.4,5.3c-3.4,0.5-8.6,0.7-13.7,0.7s-10.3-0.2-13.7-0.7c-4.8-0.6-13.4-5.3-13.4-5.3l-1.5-47.4l-2.3-3.7l-13.3,8.6 l-2.8-1.2l13.2-23.9L69,12.9h0.1C69,16.6,75.9,20.9,84.4,20.9"/>
</g>
<g class="swappable" id="Chest">
<g id="Chest_Galaxy" style="visibility: visible;">
<g id="Abdomen_Galaxy">
<path id="Abdomen-Plate_Galaxy" d="M77.5,73l-2.1,1.5L65,73l-0.8-5.8l5-0.1l3-4.9l1.4-4.5l10.9-10l10.9,10l1.4,4.5 l3,4.9l5,0.1L104,73l-10.5,1.5L91.4,73H77.5" style="fill: rgb(255, 214, 0);"/>
<path id="Trauma-Plate_Abdomen_Galaxy" class="toggle" style="fill: rgb(163, 163, 163);" d="M84.4,50L75,58.6l-1.3,4.3l-3.6,5.9l-4,0.1l0.4,2.7l8.5,1.2 l2-1.4h14.9l2,1.4l8.5-1.2l0.4-2.7l-4-0.1l-3.6-5.9l-1.3-4.3L84.4,50"/>
</g>
<g id="Full-Chest_Galaxy">
<path id="Chest-Plate_Galaxy" d="M80.1,33.2v10.1l3.2,3.2L72.1,57.2l-1.5,4.9L68.2,66h-4.1l-2-2.9l-2.5-14.2 l-3.7-5.8l4.7-15.2l5.4-0.7l0.8-3.4l5.8-0.7l1.8,3h20l1.8-3l5.8,0.7l0.8,3.4l5.4,0.7l4.7,15.2l-3.7,5.8l-2.5,14.2l-2,2.9h-4.1 l-2.4-3.9l-1.5-4.9L85.5,46.6l3.2-3.2V33.3l-4.4-3.4L80.1,33.2" style="fill: rgb(255, 214, 0);"/>
<path id="Trauma-Plating_Left-Chest_Galaxy" class="toggle" style="fill: rgb(163, 163, 163);" d="M95.4,27.8H84.6l5.9,4.6v11.7L88,46.6l10.2,9.7l1.5,5.1 l1.8,2.9h2.3l1.3-1.9l2.5-14.2l3.5-5.4L107,29.4l-5.5-0.7l-0.8-3.4l-3.5-0.4L95.4,27.8"/>
<path id="Trauma-Plating_Right-Chest_Galaxy" class="toggle" style="fill: rgb(163, 163, 163);" d="M71.8,24.9l-3.5,0.4l-0.8,3.4L62,29.4l-4.1,13.4l3.5,5.4 l2.5,14.2l1.3,1.9h2.3l1.8-2.9l1.5-5.1L81,46.6l-2.5-2.5V32.4l5.9-4.6H73.5L71.8,24.9"/>
<g id="Accents_Chest-Plate_Galaxy" class="toggle" style="fill: rgb(255, 214, 0);">
<path d="M104.7,31h-9.2v1.2h9.2V31"/>
<path d="M104.7,33.2h-9.2v1.2h9.2V33.2"/>
</g>
</g>
<g id="Iron-Heart_Galaxy">
<path id="Heart_Galaxy" d="M81.8,43.1V34l2.7-2.1l2.7,2.1v9.1l-2.7,2.7L81.8,43.1" style="fill: rgb(77, 127, 173);"/>
<path id="Center_Heart_Galaxy" class="option" d="M85.4,35.4h-1.9v6.2h1.9V35.4" style="fill: rgb(255, 214, 0); display: inherit;"/>
</g>
<g id="Neck-Armor_Galaxy">
<g id="Neck-Plate_Galaxy" style="fill: rgb(255, 214, 0);">
<path d="M82.2,25.1l-7.3,0.1l-1.8-3l-7,0.8l-0.7,3.2l-4.5,0.6l-3.3-11.4L69.1,12c0,0,1.5,2.6,2.6,3.5 c1.1,0.9,2.6,2,4.1,2.6c1.5,0.7,3.4,1.1,5.2,1.4c0.2,0,0.4,0.1,0.6,0.1L82.2,25.1"/>
<path d="M86.7,25.1l7.3,0.1l1.8-3l7,0.8l0.7,3.1l4.5,0.6l3.3-11.4l-11.5-3.4c0,0-1.5,2.6-2.6,3.5 c-1.1,0.9-2.6,2-4.1,2.6c-1.5,0.7-3.4,1.1-5.2,1.4c-0.2,0-0.4,0.1-0.6,0.1L86.7,25.1"/>
</g>
<g id="Trauma-Plates_Neck_Galaxy" class="toggle" style="fill: rgb(77, 127, 173);">
<path d="M100.6,13.9c-0.6,0.9-1.5,2.2-2.3,2.8c-1.2,1-2.9,2.2-4.5,2.9c-1.5,0.6-3.2,1.1-5,1.4l-0.3,2.5l4.5,0.1 l1.9-3.1l9.3,1.1l0.7,3.1l1.9,0.2l2.4-8.4L100.6,13.9"/>
<path d="M68.3,13.9l-8.7,2.6l2.4,8.4l1.9-0.2l0.7-3.1l9.3-1.1l1.9,3.1l4.5-0.1L80,21c-1.7-0.3-3.5-0.8-5-1.4 c-1.6-0.7-3.2-1.9-4.5-2.9C69.9,16.1,68.9,14.8,68.3,13.9"/>
</g>
</g>
</g>
</g>
<g id="Chest-Attachments">
<g id="Bandoleer_Accessories_Chest" class="option" style="display: inherit;">
<g id="Strap_Bandoleer_Accessories_Chest" style="fill: rgb(164, 106, 57);">
<path d="M112.3,15l-6.6-3.2L64.2,87.1l6.6,3.6L112.3,15"/>
<path d="M110.6,13.8l-2.5-1.2l-8.3,15l2.4,1.3L110.6,13.8"/>
<path d="M98.8,35.4l-2.7-1.5L83.4,57l2.7,1.5L98.8,35.4"/>
<path d="M99.1,36.3l-3.9-2.1l-1.3,2.3l3.9,2.1L99.1,36.3"/>
<path d="M97.5,39.1L93.6,37l-1.3,2.3l3.9,2.1L97.5,39.1"/>
<path d="M96,41.9l-3.9-2.1l-1.3,2.3l3.9,2.1L96,41.9"/>
<path d="M94.4,44.7l-3.9-2.1l-1.3,2.3l3.9,2.1L94.4,44.7"/>
<path d="M92.9,47.5L89,45.4l-1.3,2.3l3.9,2.1L92.9,47.5"/>
<path d="M89.8,53.1L85.9,51l-1.3,2.3l3.9,2.1L89.8,53.1"/>
<path d="M91.4,50.3l-3.9-2.1l-1.3,2.3l3.9,2.1L91.4,50.3"/>
<path d="M88.3,55.9l-3.9-2.1l-1.3,2.3l3.9,2.1L88.3,55.9"/>
</g>
<g id="Ammo_Bandoleer_Accessories_Chest" style="fill: rgb(163, 163, 163);">
<g>
<g>
<path d="M98.9,36.6l1.6,0.9c0.2,0.1,0.2,0.3,0.1,0.5c-0.2,0.3-0.5,0.9-0.7,1.2c-0.1,0.2-0.3,0.2-0.5,0.1L98,38.4 L98.9,36.6"/>
<path d="M100.1,37.2L99,38.9l0.1,0.1L100.1,37.2"/>
<path d="M99.8,37.1l-1.1,1.7l0.1,0.1L99.8,37.1"/>
</g>
<g>
<path d="M95.1,34.4l-1,1.8l-1.6-0.9c-0.2-0.1-0.2-0.3-0.1-0.5c0.2-0.3,0.5-0.9,0.7-1.2c0.1-0.2,0.3-0.2,0.5-0.1 L95.1,34.4"/>
<path d="M93.8,33.8l-1.1,1.7l0.1,0.1L93.8,33.8"/>
</g>
</g>
<g>
<g>
<path d="M95.8,42.2l1.6,0.9c0.2,0.1,0.2,0.3,0.1,0.5c-0.2,0.3-0.5,0.9-0.7,1.2c-0.1,0.2-0.3,0.2-0.5,0.1L94.7,44 L95.8,42.2"/>
<path d="M97,42.8l-1.1,1.7l0.1,0.1L97,42.8"/>
<path d="M96.7,42.7l-1.1,1.7l0.1,0.1L96.7,42.7"/>
</g>
<g>
<path d="M92,40l-1,1.8l-1.6-0.9c-0.2-0.1-0.2-0.3-0.1-0.5c0.2-0.3,0.5-0.9,0.7-1.2c0.1-0.2,0.3-0.2,0.5-0.1L92,40"/>
<path d="M90.8,39.4l-1.1,1.7l0.1,0.1L90.8,39.4"/>
</g>
</g>
<g>
<g>
<path d="M94.3,45l1.6,0.9c0.2,0.1,0.2,0.3,0.1,0.5c-0.2,0.3-0.5,0.9-0.7,1.2c-0.1,0.2-0.3,0.2-0.5,0.1l-1.6-0.9 L94.3,45"/>
<path d="M95.5,45.6l-1.1,1.7l0.1,0.1L95.5,45.6"/>
<path d="M95.2,45.5l-1.1,1.7l0.1,0.1L95.2,45.5"/>
</g>
<g>
<path d="M90.4,42.8l-1,1.8l-1.6-0.9c-0.2-0.1-0.2-0.3-0.1-0.5c0.2-0.3,0.5-0.9,0.7-1.2c0.1-0.2,0.3-0.2,0.5-0.1 L90.4,42.8"/>
<path d="M89.2,42.2l-1.1,1.7l0.1,0.1L89.2,42.2"/>
</g>
</g>
<g>
<g>
<path d="M92.8,47.8l1.6,0.9c0.2,0.1,0.2,0.3,0.1,0.5c-0.2,0.3-0.5,0.9-0.7,1.2c-0.1,0.2-0.3,0.2-0.5,0.1l-1.6-0.9 L92.8,47.8"/>
<path d="M93.9,48.4l-1.1,1.7l0.1,0.1L93.9,48.4"/>
<path d="M93.6,48.3L92.5,50l0.1,0.1L93.6,48.3"/>
</g>
<g>
<path d="M88.9,45.6l-1,1.8l-1.6-0.9c-0.2-0.1-0.2-0.3-0.1-0.5c0.2-0.3,0.5-0.9,0.7-1.2c0.1-0.2,0.3-0.2,0.5-0.1 L88.9,45.6"/>
<path d="M87.7,45l-1.1,1.7l0.1,0.1L87.7,45"/>
</g>
</g>
</g>
<g id="Buckles_Bandoleer_Accessories_Chest" style="fill: rgb(203, 185, 92);">
<g>
<path d="M103.3,27.4l-2.9-1.6l-1.6,2.9l2.9,1.6L103.3,27.4"/>
<path d="M102.6,27.9l-2.2-1.2l-1.6,2.9l2.2,1.2L102.6,27.9"/>
</g>
<path d="M103.3,23.9l-1.8-1l1.6-2.9l3.7,2l-1.6,2.9L103.3,23.9l0.4-0.7l1.1,0.6l0.9-1.6l-2.1-1.1l-0.9,1.6l1,0.6"/>
</g>
</g>
</g>
<g id="Collar">
<g id="None_Collar" class="option" style="display: inherit;">
</g>
</g>
<svg version="1.1" id="Helmets" xmlns="http://www.w3.org/2000/svg" y="-54px" height="85px" viewBox="0 0 80 80" class="swappable">
<g id="Helmet_Ironside" style="visibility: visible;">
<g id="Left-Earcap_Ironside" class="toggle">
<g id="Ear-Cap_Left_Ironside" style="fill: rgb(255, 214, 0);">
<path d="M57.7,33.2H59l0.6,1.6v3.6h-1.3v1.3h-0.7L57.7,33.2z"/>
<path d="M59.2,38.5v3.7l-0.7-2.4h-0.2v-1.3H59.2z"/>
</g>
</g>
<g id="Right-Earcap_Ironside" class="toggle">
<g id="Main-Antenna_Right_Ironside" class="option" style="display: inherit;">
<path id="Shaft_Main-Antenna_Right_Ironside" d="M19.6,29.8l0.3-24.4c0,0,0-0.6,0.4-0.6c0.4,0,0.4,0.6,0.4,0.6 L21,29.8H19.6z" style="fill: rgb(77, 127, 173);"/>
<g id="Base_Main-Antenna_Right_Ironside" style="fill: rgb(255, 214, 0);">
<path d="M21.9,33.6h-3.5c0,0-0.7,8.2,1.7,8.2S21.9,33.6,21.9,33.6z"/>
<path d="M18.7,33.2l0.6-3.4h1.6l0.6,3.4H18.7z"/>
<rect x="18.9" y="33.2" width="2.5" height="0.4"/>
<rect x="20" y="30.4" width="0.4" height="2.4"/>
<path d="M21.1,30.3l-0.4,0.1l0.4,2.4l0.4-0.1L21.1,30.3z"/>
<path d="M19.3,30.3l0.4,0.1l-0.4,2.4l-0.4-0.1L19.3,30.3z"/>
</g>
</g>
<g id="Ear-Cap_Right_Ironside" style="fill: rgb(255, 214, 0);">
<path d="M22.3,33.2H21l-0.6,1.6v3.6h1.3v1.3h0.7L22.3,33.2z"/>
<path d="M20.8,38.5v3.7l0.7-2.4h0.2v-1.3H20.8z"/>
</g>
</g>
<g id="Helmet_Pieces_Ironside">
<g id="Face-2_Ironside" style="fill: rgb(255, 214, 0);">
<path d="M22.5,40.8l-2.5,9l0.7-0.4l2.2-8L22.5,40.8z"/>
<path d="M20,49.8l13.3,7.7l-0.2-0.8l-12.5-7.3L20,49.8z"/>
<path d="M22.3,40.6l0.1,0.2l-2.5,9l13.3,7.7l1.5,7.7l-3.6-1.7L29.2,60l-11.4-7.1l3.7-13.1h0.8V40.6z"/>
<path d="M29.3,60.1L17.9,53l0.8,1.4L29.8,61L29.3,60.1z"/>
<path d="M21.1,55.7v1l9.3,5.5l-0.7-1.3L21.1,55.7z"/>
<path d="M57.5,40.8l2.5,9l-0.7-0.4l-2.2-8L57.5,40.8z"/>
<path d="M60,49.8l-13.3,7.7l0.2-0.8l12.5-7.3L60,49.8z"/>
<path d="M57.7,40.6l-0.1,0.2l2.5,9l-13.3,7.7l-1.5,7.7l3.6-1.7l1.9-3.5l11.4-7.1l-3.7-13.1h-0.8V40.6z"/>
<path d="M50.7,60.1L62.1,53l-0.8,1.4L50.2,61L50.7,60.1z"/>
<path d="M58.9,55.7v1l-9.3,5.5l0.7-1.3L58.9,55.7z"/>
</g>
<g id="Face-1_Ironside" style="fill: rgb(163, 163, 163);">
<path d="M20.7,49.5l12.5,7.3l-2-10.1L24,43.3L20.7,49.5z"/>
<path d="M59.3,49.5l-12.5,7.3l2-10.1l7.1-3.4L59.3,49.5z"/>
</g>
<g id="Cheeks_Ironside" style="fill: rgb(77, 127, 173);">
<path d="M22.3,40.6l1.7,2.7l7.1,3.4l-0.2-1.2L22.3,40.6z"/>
<path d="M22.9,41.5l-2.2,8l3.3-6.2L22.9,41.5z"/>
<path d="M57.7,40.6L56,43.3l-7.1,3.4l0.2-1.2L57.7,40.6z"/>
<path d="M57.1,41.5l2.2,8L56,43.3L57.1,41.5z"/>
</g>
<path id="Visor_Ironside" d="M36.7,65.3l1.7-2.2l-1.2-23.3l-14.3-2.3v-0.9h34.2v0.9l-14.3,2.3l-1.2,23.3l1.7,2.2 H36.7z" style="fill: rgb(0, 0, 0);"/>
<g id="Eyes-2_Ironside" style="fill: rgb(77, 127, 173);">
<path d="M31.8,46.9h1.5L35,55v7.7L31.8,46.9z"/>
<path d="M48.2,46.9h-1.5L45.1,55v7.7L48.2,46.9z"/>
<g>
<g>
<path d="M33.4,47.4L32,47.7l0.1,0.5l1.4-0.3L33.4,47.4z"/>
<path d="M33.6,48.7L32.2,49l0.1,0.5l1.4-0.3L33.6,48.7z"/>
<path d="M33.9,50l-1.4,0.3l0.1,0.5l1.4-0.3L33.9,50z"/>
<path d="M34.1,51.3l-1.4,0.3l0.1,0.5l1.4-0.3L34.1,51.3z"/>
</g>
<g>
<path d="M46.6,47.4l1.4,0.3l-0.1,0.5L46.5,48L46.6,47.4z"/>
<path d="M46.4,48.7l1.4,0.3l-0.1,0.5l-1.4-0.3L46.4,48.7z"/>
<path d="M46.1,50l1.4,0.3l-0.1,0.5L46,50.5L46.1,50z"/>
<path d="M45.9,51.3l1.4,0.3l-0.1,0.5l-1.4-0.3L45.9,51.3z"/>
</g>
</g>
<g>
<path d="M35.8,33.7l1.5-0.5v1L35.8,33.7z"/>
<path d="M44.3,33.7l-1.5-0.5v1L44.3,33.7z"/>
</g>
</g>
<g id="Eyes-1_Ironside" style="fill: rgb(255, 214, 0);">
<path d="M22.9,36.6v0.9l-0.6,0.4v-1.6L22.9,36.6z"/>
<path d="M22.9,37.5l14.3,2.3l-0.5,0.4l-14.4-2.3L22.9,37.5z"/>
<path d="M37.2,39.8l1.2,23.3h-0.5l-1.1-22.9L37.2,39.8z"/>
<path d="M22.3,37.9v2.7l8.6,4.9l3.9,19.8l0.8,0.7l2.3-2.9l-1.1-22.9L22.3,37.9z M31.8,46.9h1.5L35,55v7.7L31.8,46.9 z"/>
<path d="M30.9,45.5l3.9,19.8l0.8,0.7l-4.1-21L30.9,45.5z"/>
<path d="M37.9,63.1L35.6,66h0.6l2.3-2.9H37.9z"/>
<path d="M31.4,45l-9.1-5.2v0.8l8.6,4.9L31.4,45z"/>
<path d="M57.7,37.9v2.7l-8.6,4.9l-3.9,19.8L44.4,66l-2.3-2.9l1.1-22.9L57.7,37.9z M48.2,46.9h-1.5L45.1,55v7.7 L48.2,46.9z"/>
<path d="M57.1,36.6v0.9l0.6,0.4v-1.6L57.1,36.6z"/>
<path d="M57.1,37.5l-14.3,2.3l0.5,0.4l14.4-2.3L57.1,37.5z"/>
<path d="M42.8,39.8l-1.2,23.3h0.5l1.1-22.9L42.8,39.8z"/>
<path d="M49.1,45.5l-3.9,19.8L44.4,66l4.1-21L49.1,45.5z"/>
<path d="M42.1,63.1l2.3,2.9h-0.6l-2.3-2.9H42.1z"/>
<path d="M48.6,45l9.1-5.2v0.8l-8.6,4.9L48.6,45z"/>
<path d="M45,31.5l2.2,2.4h10.6v1.9l-17.7-0.1l-17.7,0.1v-1.9H33l2.2-2.4H45z M35.8,33.7l1.5-0.5v1L35.8,33.7z M44.3,33.7l-1.5-0.5v1L44.3,33.7z"/>
<path d="M22.3,36.2v-0.4l17.6-0.1h0.2l17.6,0.1v0.4H22.3z"/>
<path d="M22.9,36.6l-0.6-0.4h35.3L57,36.6H22.9z"/>
</g>
<g id="Dome-2_Ironside" style="fill: rgb(255, 214, 0);">
<path d="M33,33.9H22.3c0-6.5,3.7-12.1,9.1-15.1v1.6l0.7-0.4v-1.5c2.4-1.1,5-1.8,7.8-1.8c2.8,0,5.5,0.6,7.8,1.8V20 l0.7,0.4v-1.6c5.4,2.9,9.1,8.6,9.1,15.1H47.2L45,31.5h-9.9L33,33.9z"/>
<path d="M32.2,19.1V20l-0.7,0.4v-0.9l0.1-0.1L32.2,19.1z"/>
<path d="M48.4,19.4l0.1,0.1v0.9L47.8,20v-0.9L48.4,19.4z"/>
</g>
<path id="Dome-1_Ironside" d="M23.7,33.9c0-8.7,7.3-15.8,16.3-15.8s16.3,7.1,16.3,15.8h-9.1L45,31.5h-9.9L33,33.9 H23.7z" style="fill: rgb(77, 127, 173);"/>
</g>
</g>
</svg>
<g id="Shoulders">
<g id="Left-Shoulder">
<g id="Classic_Shoulder_Left" class="option" style="display: inherit;">
<path id="Main_Shoulder_Classic_Left" d="M116.5,13.4L114,24.8l2,6.5l13.4,6.8l2.3-3.5L116.5,13.4" style="fill: rgb(255, 214, 0);"/>
<path id="Trauma-Plates_Shoulder_Classic_Left" class="toggle" style="fill: rgb(77, 127, 173);" d="M115.7,24.7l1.7,5.4l11.4,5.8l1.9-3l-12.8-18 L115.7,24.7"/>
</g>
</g>
<g id="Right-Shoulder">
<g id="Classic_Shoulder_Right" class="option" style="display: inherit;">
<path id="Main_Shoulder_Classic_Right" d="M52.5,13.4L55,24.8l-2,6.5l-13.4,6.8l-2.3-3.5L52.5,13.4" style="fill: rgb(255, 214, 0);"/>
<path id="Trauma-Plates_Shoulder_Classic_Right" class="toggle" style="fill: rgb(77, 127, 173);" d="M53.2,24.7l-1.7,5.4l-11.4,5.8l-1.9-3l12.8-18 L53.2,24.7"/>
</g>
</g>
</g>
<g id="Gauntlets">
<g id="Left-Gauntlets">
<g id="Basic_Gauntlet_Left" class="option" style="display: inherit;">
<path id="Top-2_Basic_Gauntlet_Left" d="M144.3,107.5l1.4-2.2L141.8,87l-0.6,2.2l1.8,8.3l-0.7,2.1L144.3,107.5" style="fill: rgb(255, 214, 0);"/>
<path id="Top-1_Basic_Gauntlet_Left" d="M141.8,87.1l-0.6,2.2l1.8,8.3l-0.7,2.1l2,7.9l-0.9,1.4l0.5,5.1l-1.6,0.4 l-2.1-7.7l-1.5-0.5L132,83.9l8.9-0.9L141.8,87.1" style="fill: rgb(77, 127, 173);"/>
<g id="Accent-Bottom_Basic_Gauntlet_Left" style="fill: rgb(255, 214, 0);">
<path d="M128.7,90.6l-2,0.6l1,2.9l2-0.6L128.7,90.6"/>
<path d="M130.3,95.7l-2,0.6l1,2.9l2-0.6L130.3,95.7"/>
<path d="M132.1,100.9l-2,0.6l1,2.9l2-0.6L132.1,100.9"/>
</g>
<path id="Bottom_Basic_Gauntlet_Left" d="M126.7,91.2L126,89l6.2-4.8l6.6,22.1l-6.7,1.2l-2.7-8.2l2-0.6l-1-2.9 l-1.9,0.6l-0.7-2.2l2-0.6l-1-2.9L126.7,91.2 M132.1,100.9l-2,0.6l1,2.9l2-0.7L132.1,100.9" style="fill: rgb(77, 127, 173);"/>
<g id="Whistling-Birds_Attachment_Basic_Gauntlet_Left" class="option" style="display: inherit;">
<path id="Head_Whistling-Birds_Attachment_Basic_Gauntlet_Left" d="M147.2,97.6l-1.9,5.6l-1.1-5L147.2,97.6" style="fill: rgb(255, 214, 0);"/>
<g id="Birds_Whistling-Birds_Attachment_Basic_Gauntlet_Left" style="fill: rgb(77, 127, 173);">
<path d="M144.7,98.5c0.1,0,0.3,0.2,0.3,0.5c0.1,0.3,0,0.6-0.1,0.6c-0.1,0-0.3-0.2-0.3-0.5 C144.6,98.8,144.6,98.6,144.7,98.5"/>
<path d="M145.1,100.1c0.1,0,0.3,0.2,0.3,0.5c0.1,0.3,0,0.6-0.1,0.6c-0.1,0-0.3-0.2-0.3-0.5 C144.9,100.4,145,100.1,145.1,100.1"/>
<path d="M145.5,98.4c0.1,0,0.3,0.2,0.3,0.5c0.1,0.3,0,0.6-0.1,0.6c-0.1,0-0.3-0.2-0.3-0.5S145.4,98.4,145.5,98.4"/>
<path d="M145.4,102.6c0-0.1-0.1-0.2-0.1-0.3c-0.1-0.3,0-0.6,0.1-0.6c0.1,0,0.2,0.1,0.3,0.3L145.4,102.6"/>
<path d="M146,101c-0.1-0.1-0.2-0.3-0.2-0.5c-0.1-0.3,0-0.6,0.1-0.6c0.1,0,0.2,0.2,0.3,0.5L146,101"/>
<path d="M146.6,99.3c-0.1,0-0.3-0.2-0.3-0.5c-0.1-0.3,0-0.6,0.1-0.6c0.1,0,0.3,0.2,0.3,0.5v0.2L146.6,99.3"/>
</g>
<g id="Base_Whistling-Birds_Attachment_Basic_Gauntlet_Left" style="fill: rgb(163, 163, 163);">
<path d="M143.8,82.7l-2,0.4L142,84l2-0.4L143.8,82.7"/>
<path d="M144.2,83.5L142,84l3,14.1l2.2-0.5L144.2,83.5"/>
<path d="M144.5,83.6l-0.3,0.1l2.6,12.2l0.3-0.1L144.5,83.6"/>
<path d="M143.8,83.6l-0.3,0.1l2.8,13.3l0.3-0.1L143.8,83.6"/>
</g>
<g id="Accent_Whistling-Birds_Attachment_Basic_Gauntlet_Left" style="fill: rgb(163, 163, 163);">
<path d="M141.7,82.9l-0.8,0.2l3,14.4l0.8-0.2L141.7,82.9"/>
<path d="M147.1,96.7l-3.1,0.7l0.2,0.9l3.1-0.7L147.1,96.7"/>
<path d="M143.1,82.8l-1.3,0.3l0.4,2.1l1.3-0.3L143.1,82.8"/>
<path d="M143.2,84.9l-1,0.2l1,4.9l0.6-2L143.2,84.9"/>
</g>
</g>
</g>
</g>
<g id="Right-Gauntlets">
<g id="Basic_Gauntlet_Right" class="option" style="display: inherit;">
<path id="Top-2_Basic_Gauntlet_Right" d="M24.6,107.5l-1.4-2.2L27.1,87l0.6,2.2l-1.8,8.3l0.7,2.1L24.6,107.5" style="fill: rgb(255, 214, 0);"/>
<path id="Top-1_Basic_Gauntlet_Right" d="M27.1,87.1l0.6,2.2l-1.8,8.3l0.7,2.1l-2,7.9l0.9,1.4l-0.5,5.1l1.6,0.4 l2.1-7.7l1.5-0.5l6.7-22.4L28,83L27.1,87.1" style="fill: rgb(77, 127, 173);"/>
<g id="Accent-Bottom_Basic_Gauntlet_Right" style="fill: rgb(255, 214, 0);">
<path d="M40.2,90.6l2,0.6l-1,2.9l-2-0.6L40.2,90.6"/>
<path d="M38.6,95.7l2,0.6l-1,2.9l-2-0.6L38.6,95.7"/>
<path d="M36.8,100.9l2,0.6l-1,2.9l-2-0.6L36.8,100.9"/>
</g>
<path id="Bottom_Basic_Gauntlet_Right" d="M42.2,91.2l0.7-2.2l-6.2-4.8l-6.6,22.1l6.7,1.2l2.7-8.2l-2-0.6l1-2.9 l1.9,0.6l0.7-2.2l-2-0.6l1-2.9L42.2,91.2 M36.8,100.9l2,0.6l-1,2.9l-2-0.7L36.8,100.9" style="fill: rgb(77, 127, 173);"/>
<g id="Flamethrower_Attachment_Basic_Gauntlet_Right" class="option" style="display: inherit;">
<g id="Tubes_Flamethrower_Attachment_Basic_Gauntlet_Right" style="fill: rgb(163, 163, 163);">
<path d="M26.3,83.8l0.8,0.2L22,108.6l-0.8-0.2L26.3,83.8"/>
<path d="M24.5,83.4l0.8,0.2l-3.7,17.7l-0.8-0.2L24.5,83.4"/>
<path d="M25.9,85.3l1.1,0.2l-1.2,5.9l-1.1-0.2L25.9,85.3"/>
<path d="M24,84.9l1.1,0.2L23.9,91l-1.1-0.2L24,84.9"/>
</g>
<g id="Main_Flamethrower_Attachment_Basic_Gauntlet_Right" style="fill: rgb(255, 214, 0);">
<path d="M24.1,83.3l3.3,0.7l-0.3,1.5l-3.3-0.7L24.1,83.3"/>
<path d="M22.5,90.7l3.5,0.7l-0.2,0.9l-3.5-0.7L22.5,90.7"/>
<path d="M22.5,91.7l3.2,0.7l-0.1,0.5l-3.2-0.7L22.5,91.7"/>
<path d="M25.8,90.8l0.5,0.1l-0.6,2.9l-0.5-0.1L25.8,90.8"/>
</g>
<g id="Accent_Flamethrower_Attachment_Basic_Gauntlet_Right" style="fill: rgb(255, 214, 0);">
<path d="M20.8,101.1l0.9,0.2l-0.1,1.2l-1.1-0.2L20.8,101.1"/>
<path d="M21.7,94.7l1.5,0.3l-0.4,1.9l-1.5-0.3L21.7,94.7"/>
<path d="M21.6,96.6l1.1,0.2l-0.4,1.9l-1.1-0.2L21.6,96.6"/>
<path d="M21.7,105.3l1.1,0.2l-0.5,2.6l-1.1-0.2L21.7,105.3"/>
<path d="M23.4,97l1.1,0.2l-0.7,3.5l-1.1-0.2L23.4,97"/>
<path d="M21.2,106.6l1.5,0.3l-0.1,0.5l-1.5-0.3L21.2,106.6"/>
</g>
<path id="Base_Flamethrower_Attachment_Basic_Gauntlet_Right" d="M26.3,90.9l1.6-7.8l-1,0.2l-2.8,13.2l0.8,0.6 l0.7-3.3l-0.5-0.1l0.6-2.9L26.3,90.9" style="fill: rgb(77, 127, 173);"/>
</g>
</g>
</g>
</g>
<g id="Shins">
<g id="Left-Shin">
<g id="Basic_Shin_Left" class="option" style="display: inherit;">
<path id="Shin_Basic-Shin_Left" d="M120.8,179.2l-5-5.5l-10,1.4l-3.7,8.7l6.8,29c4.4,1.8,10.8,0.9,14.3-2.3 L120.8,179.2" style="fill: rgb(255, 214, 0);"/>
<path id="Trauma-Plating_Basic-Shin_Left" class="toggle" style="fill: rgb(163, 163, 163);" d="M121.5,209.8l-2.3-29.9l-4-4.4l-8.2,1.1l-3.1,7.3l6.5,27.6 C114,212.7,118.6,212,121.5,209.8"/>
<g id="Ridge_Basic-Shin_Left" class="toggle" style="display: none; fill: rgb(255, 255, 255);"/>
</g>
</g>
<g id="Right-Shin">
<g id="Basic_Shin_Right" class="option" style="display: inherit;">
<path id="Shin_Basic-Shin_Right" d="M48,179.2l5-5.5l10,1.4l3.7,8.7l-6.8,29c-4.4,1.8-10.8,0.9-14.3-2.3L48,179.2" style="fill: rgb(255, 214, 0);"/>
<path id="Trauma-Plating_Basic-Shin_Right" class="toggle" style="fill: rgb(163, 163, 163);" d="M47.3,209.8l2.3-29.9l4-4.4l8.2,1.1l3.1,7.3l-6.5,27.6 C54.8,212.7,50.2,212,47.3,209.8"/>
<g id="Ridge_Basic-Shin_Right" class="toggle" style="display: none; fill: rgb(255, 255, 255);"/>
</g>
</g>
</g>
<g id="Foot">
<g id="Left-Ankle">
<g id="Heavy_Ankle_Left" class="option" style="display: inherit;">
<path id="Plate_Heavy-Ankle_Left" d="M106.5,218.5l0.4,3.6l7.4,9.3l7.2-3.2l7.8-2l-5.9-10.5c-3-0.4-6.5-0.1-10.5,1.2 l-2.2,2L106.5,218.5" style="fill: rgb(77, 127, 173);"/>
<path id="Trim_Heavy-Ankle_Left" d="M112.9,216.7l0.8,1l-2.6,2.2l-3-0.1l0.1,1.5l6.4,7.9l6.4-3l7.7-1.8l0.8,1.6 l-8.1,2.1l-7.2,3.2l-7.4-9.3l-0.4-3.6l4.1,0.2L112.9,216.7" style="fill: rgb(255, 214, 0);"/>
</g>
</g>
<g id="Left-Toe">
<g id="Armored_Toe_Left" class="option" style="display: inherit;">
<g id="Plate_Armored_Toe_Left" style="fill: rgb(77, 127, 173);">
<path d="M118.3,232.6l9.6,5.3l7.2,0.5l5.8-1.5c1.2-1,1.7-3.3,0.7-5.5l-8.2-3.9l-6.4,1.7L118.3,232.6"/>
<path d="M126.3,229.4c0,0,7.5,2.2,8.4,3.5c1,1.4,0.4,5.5,0.4,5.5"/>
</g>
<g id="Trim_Armored_Toe_Left" style="fill: rgb(255, 214, 0);">
<path d="M132.3,226.9l-7.7,1.9l-6.5,3.9l1.3,0.7l6.9-4l7.6-1.8L132.3,226.9"/>
<path d="M124.6,228.8l1.7,0.7"/>
</g>
</g>
</g>
<g id="Right-Ankle">
<g id="Heavy_Ankle_Right" class="option" style="display: inherit;">
<path id="Plate_Heavy-Ankle_Right" d="M62.3,218.5l-0.4,3.6l-7.4,9.3l-7.2-3.2l-7.8-2l5.9-10.5 c3-0.4,6.5-0.1,10.5,1.2l2.2,2L62.3,218.5" style="fill: rgb(77, 127, 173);"/>
<path id="Trim_Heavy-Ankle_Right" d="M55.9,216.7l-0.8,1l2.6,2.2l3-0.1l-0.1,1.5l-6.4,7.9l-6.4-3l-7.7-1.8l-0.8,1.6 l8.1,2.1l7.2,3.2L62,222l0.4-3.6l-4.1,0.2L55.9,216.7" style="fill: rgb(255, 214, 0);"/>
</g>
</g>
<g id="Right-Toe">
<g id="Armored_Toe_Right" class="option" style="display: inherit;">
<g id="Plate_Armored_Toe_Right" style="fill: rgb(77, 127, 173);">
<path d="M50.5,232.6l-9.6,5.3l-7.2,0.5l-5.8-1.5c-1.2-1-1.7-3.3-0.7-5.5l8.2-3.9l6.4,1.6L50.5,232.6"/>
<path d="M42.4,229.4c0,0-7.5,2.2-8.4,3.5c-1,1.4-0.4,5.5-0.4,5.5"/>
</g>
<g id="Trim_Armored_Toe_Right" style="fill: rgb(255, 214, 0);">
<path d="M36.5,226.9l7.7,1.9l6.5,3.9l-1.3,0.7l-6.9-4l-7.6-1.8L36.5,226.9"/>
<path d="M44.2,228.8l-1.7,0.7"/>
</g>
</g>
</g>
</g>
<g id="Knees">
<g id="Left-Knee">
<g id="Galaxy_Knee_Left" class="option" style="display: inherit;">
<g id="Missiles_Galaxy-Knee_Left" class="toggle" style="">
<path id="Base_Missiles_Galaxy-Knee_Left" d="M117.6,159.9l-3.1,9.2l2.6-0.5c0.4-0.1,0.8-0.4,0.9-0.8 c0.4-1.2,1.4-3.9,1.9-5.4c0.2-0.5,0-1.1-0.5-1.4L117.6,159.9z" style="fill: rgb(255, 214, 0);"/>
<g id="Missile-2_Missiles_Galaxy-Knee_Left" style="fill: rgb(255, 0, 0);">
<path d="M117.1,165.7c-0.6-0.1-1.1,0.2-1.2,0.7c-0.1,0.6,0.2,1.1,0.8,1.3c0.6,0.1,1.1-0.2,1.2-0.7 C118,166.4,117.6,165.8,117.1,165.7z"/>
<path d="M117,166c-0.4-0.1-0.7,0.1-0.8,0.5c-0.1,0.4,0.1,0.8,0.5,0.8c0.4,0.1,0.7-0.1,0.8-0.5 C117.6,166.5,117.4,166.1,117,166z"/>
</g>
<g id="Missile-1_Missiles_Galaxy-Knee_Left" style="fill: rgb(255, 0, 0);">
<path d="M118.6,161.5c-0.6-0.1-1.1,0.2-1.2,0.7c-0.1,0.6,0.2,1.1,0.8,1.3c0.6,0.2,1.1-0.2,1.2-0.7 C119.5,162.2,119.1,161.6,118.6,161.5z"/>
<path d="M118.5,161.8c-0.4-0.1-0.7,0.1-0.8,0.5c-0.1,0.4,0.1,0.8,0.5,0.8c0.4,0.1,0.7-0.1,0.8-0.5 C119.1,162.3,118.9,161.9,118.5,161.8z"/>
</g>
</g>
<g id="Strap_Galaxy-Knee_Left" style="fill: rgb(164, 106, 57);">
<path d="M97.4,161l2.8-0.4l0.4,2.6l-2.8,0.4L97.4,161z"/>
<path d="M96,161.6l1.5-0.2l0.3,2l-1.5,0.2L96,161.6z"/>
</g>
<path id="Knee_Galaxy-Knee_Left" d="M113.8,171.1l4-11.8l-4.2-4.9l-12.3,1.9l-2.6,5.9l7.3,10.1L113.8,171.1z" style="fill: rgb(77, 127, 173);"/>
<g id="Trim_Galaxy-Knee_Left" style="fill: rgb(255, 214, 0);">
<path d="M105.1,155.7l4.7-0.7l0.5,3.1l-4.7,0.7L105.1,155.7z"/>
<path d="M98.7,162.1c4.4,0.3,8.9,9.9,8.9,9.9l-1.5,0.2L98.7,162.1z"/>
<path d="M117.8,159.2c-4.1,1.6-5.5,12.1-5.5,12.1l1.5-0.2L117.8,159.2z"/>
</g>
</g>
</g>
<g id="Right-Knee">
<g id="Galaxy_Knee_Right" class="option" style="display: inherit;">
<g id="Missiles_Galaxy-Knee_Right" class="toggle" style="">
<path id="Base_Missiles_Galaxy-Knee_Right" d="M51.2,159.9l3.1,9.2l-2.6-0.5c-0.4-0.1-0.8-0.4-0.9-0.8 c-0.4-1.2-1.4-3.9-1.9-5.4c-0.2-0.5,0-1.1,0.5-1.4L51.2,159.9z" style="fill: rgb(255, 214, 0);"/>
<g id="Missile-2_Missiles_Galaxy-Knee_Right" style="fill: rgb(255, 0, 0);">
<path d="M51.7,165.7c0.6-0.1,1.1,0.2,1.2,0.7c0.1,0.6-0.2,1.1-0.8,1.3c-0.6,0.1-1.1-0.2-1.2-0.7 C50.8,166.4,51.1,165.8,51.7,165.7z"/>
<path d="M51.8,166c0.4-0.1,0.7,0.1,0.8,0.5c0.1,0.4-0.1,0.8-0.5,0.8c-0.4,0.1-0.7-0.1-0.8-0.5 C51.2,166.5,51.4,166.1,51.8,166z"/>
</g>
<g id="Missile-1_Missiles_Galaxy-Knee_Right" style="fill: rgb(255, 0, 0);">
<path d="M50.2,161.5c0.6-0.1,1.1,0.2,1.2,0.7c0.1,0.6-0.2,1.1-0.8,1.3c-0.6,0.1-1.1-0.2-1.2-0.7 C49.3,162.2,49.6,161.6,50.2,161.5z"/>
<path d="M50.3,161.8c0.4-0.1,0.7,0.1,0.8,0.5c0.1,0.4-0.1,0.8-0.5,0.8c-0.4,0.1-0.7-0.1-0.8-0.5 C49.7,162.3,49.9,161.9,50.3,161.8z"/>
</g>
</g>
<g id="Strap_Galaxy-Knee_Right" style="fill: rgb(164, 106, 57);">
<path d="M71.4,161l-2.8-0.4l-0.4,2.6l2.8,0.4L71.4,161z"/>
<path d="M72.8,161.6l-1.5-0.2l-0.3,2l1.5,0.2L72.8,161.6z"/>
</g>
<path id="Knee_Galaxy-Knee_Right" d="M55,171.1l-4-11.9l4.2-4.9l12.3,1.9l2.6,5.9l-7.3,10.1L55,171.1z" style="fill: rgb(77, 127, 173);"/>
<g id="Trim_Galaxy-Knee_Right" style="fill: rgb(255, 214, 0);">
<path d="M63.7,155.7L59,155l-0.5,3.1l4.7,0.7L63.7,155.7z"/>
<path d="M70.1,162.1c-4.4,0.3-8.9,9.9-8.9,9.9l1.5,0.2L70.1,162.1z"/>
<path d="M51,159.2c4.1,1.6,5.5,12.1,5.5,12.1l-1.5-0.2L51,159.2z"/>
</g>
</g>
</g>
</g>
<g id="Thighs">
<g id="Left-Thigh">
<g id="Basic_Thigh_Left" class="option" style="display: inherit;">
<path id="Thigh_Basic-Thigh_Left" d="M119.4,115.2c0,0-5-6.4-7.5-7.5c-2.4-1-5.7-0.6-7.7,1.1 c-3.2,2.5-10.4,8-11.3,14.2c-0.9,6.8,4.1,21.9,5.7,26.8c0.6,1.7,2.7,2.4,4.4,2.5c3.1,0.1,11.5-0.1,13.5-4.7 C119.3,141.3,119.4,115.2,119.4,115.2" style="fill: rgb(255, 214, 0);"/>
<path id="Trauma-Plate_Basic-Thigh_Left" class="toggle" style="fill: rgb(163, 163, 163);" d="M117.7,115.7c-0.7-0.9-2.5-3.1-4.3-4.8 c-0.8-0.8-1.6-1.5-2.2-1.7c-1.9-0.8-4.4-0.4-6,0.8c-1.8,1.5-5.1,4-7.6,7c-1.5,1.8-2.8,3.9-3,6.1c-0.9,6.6,4,21.3,5.7,26 c0.1,0.4,0.5,0.7,0.9,0.9c0.6,0.3,1.3,0.4,1.9,0.5c1.7,0.1,5.2,0,8.2-1c1.6-0.5,3.1-1.3,3.7-2.7c0.8-1.8,1.3-5.2,1.7-9.2 C117.5,129.1,117.7,118.4,117.7,115.7"/>
<g id="Ridge_Basic-Thigh_Left" class="toggle" style="display: none; fill: rgb(255, 255, 255);"/>
</g>
</g>
<g id="Right-Thigh">
<g id="Basic_Thigh_Right" class="option" style="display: inherit;">
<path id="Thigh_Basic-Thigh_Right" d="M49.3,115.2c0,0,5-6.4,7.5-7.5c2.4-1,5.7-0.6,7.7,1.1 c3.2,2.5,10.4,8,11.3,14.2c0.9,6.8-4.1,21.9-5.7,26.8c-0.6,1.7-2.7,2.4-4.4,2.5c-3.1,0.1-11.5-0.1-13.5-4.7 C49.5,141.3,49.3,115.2,49.3,115.2" style="fill: rgb(255, 214, 0);"/>
<path id="Trauma-Plate_Basic-Thigh_Right" class="toggle" style="fill: rgb(163, 163, 163);" d="M51,115.7c0.7-0.9,2.5-3.1,4.3-4.8c0.8-0.8,1.6-1.5,2.2-1.7 c1.9-0.8,4.4-0.4,6,0.8c1.8,1.5,5.1,4,7.6,7c1.5,1.8,2.8,3.9,3,6.1c0.9,6.6-4,21.3-5.7,26c-0.1,0.4-0.5,0.7-0.9,0.9 c-0.6,0.3-1.3,0.4-1.9,0.5c-1.7,0.1-5.2,0-8.2-1c-1.6-0.5-3.1-1.3-3.7-2.7c-0.8-1.8-1.3-5.2-1.7-9.2 C51.2,129.1,51.1,118.4,51,115.7"/>
<g id="Ridge_Basic-Thigh_Right" class="toggle" style="display: none; fill: rgb(255, 255, 255);"/>
</g>
</g>
</g>
<g id="Groin">
<g id="Basic_Groin" class="option" style="display: inherit;">
<path id="Groin-Plate_Basic" d="M78.1,121.8L67.7,98.9H101l-10.4,22.9l-6.2,5.5L78.1,121.8z" style="fill: rgb(255, 214, 0);"/>
<path id="Trauma-Plating_Groin" class="toggle" style="fill: rgb(77, 127, 173);" d="M79.2,119.9L70.6,101H98l-8.6,18.9l-5.1,4.5L79.2,119.9z"/>
</g>
</g>
<g id="Waist">
<g id="Accessories_Waist">
<g id="Kama" class="toggle" style="">
<g id="Clean_Kama" class="option" style="display: inherit;">
<g id="Trim_Kama-Clean" style="fill: rgb(255, 214, 0);">
<path d="M100.7,83.2l3.6,57.2l26.3,17.5l-19.9-77.3L100.7,83.2z"/>
<path d="M68.1,83.2l-3.6,57.2l-26.3,17.5l19.9-77.3L68.1,83.2z"/>
</g>
<g id="Main_Kama-Clean" style="fill: rgb(77, 127, 173);">
<path d="M102.6,83l3.5,55.3l23.7,16.3l-19.1-74.2L102.6,83z"/>
<path d="M66.2,83l-3.5,55.3L39,154.6l19.1-74.2L66.2,83z"/>
</g>
</g>
</g>
<g id="Loin-Cloth" class="toggle" style="">
<g id="Clean_Loin-Cloth" class="option" style="display: inherit;">
<path id="Trim_Loin-Cloth-Clean" d="M97,86.8H71.8v44.7l12.6,12.6L97,131.6V86.8z" style="fill: rgb(255, 214, 0);"/>
<path id="Main_Loin-Cloth-Clean" d="M95.3,91.5H73.4v39l11,11l11-11L95.3,91.5z" style="fill: rgb(77, 127, 173);"/>
</g>
</g>
<g id="Left-Holster" class="toggle" style="">
<g id="Belt-Holster_Left" class="option" style="display: inherit;">
<g id="Weapon_Belt-Holster-Left">
<g id="Main_Weapon_Belt-Holster-Left" style="fill: rgb(98, 98, 98);">
<path d="M116,98.7l-0.2-3.6h0.6l-0.2-2.3h-0.6l-0.1-1.2c0-0.4,0.5-0.7,1.1-0.8c1.4-0.1,3.9-0.3,5.3-0.4 c0.6,0,1.2,0.2,1.2,0.6l0.1,1.2h-0.6l0.2,2.3h0.6l0.2,3.6l-1.5,0.1l0.7,9.9l-4.7,0.3l-0.7-9.9L116,98.7z"/>
<path d="M123,97.7l-0.8,0.1l0.8,12l-4.7,0.3l-0.8-12l-0.8,0.1l-0.2-2.7l6.4-0.4L123,97.7z"/>
<path d="M121.3,91.3l-3.8,0.3l0.2,3.7l3.8-0.3L121.3,91.3z"/>
<path d="M118.6,99H118l0.6,9.4h0.6L118.6,99z"/>
<path d="M120,96.8h-0.6l0.6,9.4h0.6L120,96.8z"/>
<path d="M121.8,98.8h-0.6l0.6,9.4h0.6L121.8,98.8z"/>
</g>
<g id="Accent_Weapon_Belt-Holster-Left" style="fill: rgb(66, 66, 66);">
<path d="M118.3,95.6V96l2.7-0.2v-0.4L118.3,95.6z"/>
<path d="M118.3,96v0.4l2.7-0.2v-0.4L118.3,96z"/>
<path d="M118.3,95.2v0.4l2.7-0.2V95L118.3,95.2z"/>
<path d="M118,90.6V91l2.7-0.2v-0.4L118,90.6z"/>
<path d="M118.1,91.6h-0.6l0.2,3.7h0.6L118.1,91.6z"/>
<path d="M121.3,91.3h-0.6l0.2,3.7h0.6L121.3,91.3z"/>
<path d="M121.1,98.9l-0.9,0.1l0.6,9.4l0.9-0.1L121.1,98.9z"/>
<path d="M119.5,99l-0.9,0.1l0.6,9.4l0.9-0.1L119.5,99z"/>
</g>
</g>
<path id="Holster_Belt-Holster-Left" d="M117.6,112.4l-2.5-15l8.2,10.6l0.8,20.7c-1.4,1.9-3,2.1-4.8,0.4 L117.6,112.4z" style="fill: rgb(77, 127, 173);"/>
</g>
</g>
<g id="Right-Holster" class="toggle" style="">
<g id="Belt-Holster_Right" class="option" style="display: inherit;">
<g id="Weapon_Belt-Holster-Right">
<g id="Main_Weapon_Belt-Holster-Right" style="fill: rgb(98, 98, 98);">
<path d="M52.7,98.7l0.2-3.6h-0.6l0.2-2.3h0.6l0.1-1.2c0-0.4-0.5-0.7-1.1-0.8c-1.4-0.1-3.9-0.3-5.3-0.4 c-0.6,0-1.2,0.2-1.2,0.6l-0.1,1.2h0.6l-0.2,2.3h-0.6l-0.2,3.6l1.5,0.1l-0.7,9.9l4.7,0.3l0.7-9.9L52.7,98.7z"/>
<path d="M45.8,97.7l0.8,0.1l-0.8,12l4.7,0.3l0.8-12l0.8,0.1l0.2-2.7l-6.4-0.4L45.8,97.7z"/>
<path d="M47.5,91.3l3.8,0.3l-0.2,3.7L47.3,95L47.5,91.3z"/>
<path d="M50.2,99h0.6l-0.6,9.4h-0.6L50.2,99z"/>
<path d="M48.7,96.8h0.6l-0.6,9.4h-0.6L48.7,96.8z"/>
<path d="M47,98.8h0.6l-0.6,9.4h-0.6L47,98.8z"/>
</g>
<g id="Accent_Weapon_Belt-Holster-Right" style="fill: rgb(66, 66, 66);">
<path d="M50.5,95.6V96l-2.7-0.2v-0.4L50.5,95.6z"/>
<path d="M50.4,96v0.4l-2.7-0.2v-0.4L50.4,96z"/>
<path d="M50.5,95.2v0.4l-2.7-0.2V95L50.5,95.2z"/>
<path d="M50.8,90.6V91l-2.7-0.2v-0.4L50.8,90.6z"/>
<path d="M50.7,91.6h0.6l-0.2,3.7h-0.6L50.7,91.6z"/>
<path d="M47.5,91.3h0.6L47.9,95h-0.6L47.5,91.3z"/>
<path d="M47.6,98.9l0.9,0.1l-0.6,9.4l-0.9-0.1L47.6,98.9z"/>
<path d="M49.2,99l0.9,0.1l-0.6,9.4l-0.9-0.1L49.2,99z"/>
</g>
</g>
<path id="Holster_Belt-Holster-Right" d="M51.1,112.4l2.5-15L45.4,108l-0.8,20.7c1.4,1.9,3,2.1,4.8,0.4L51.1,112.4z " style="fill: rgb(77, 127, 173);"/>
</g>
</g>
</g>
<g id="Under-Belt">
<g id="Girth-Belt" class="option" style="fill: rgb(80, 80, 80); display: inherit;">
<path d="M84.4,84.5c-9.3,0-27.8-2.2-27.8-2.2l0.6-1.9c0,0,18.1,1.5,27.2,2.2c9.1-0.8,27.2-2.2,27.2-2.2l0.6,1.9 C112.2,82.2,93.6,84.5,84.4,84.5z"/>
<path d="M84.4,86.4c-9.5,0-28.4-2.2-28.4-2.2l0.6-1.9c0,0,23.2,1.9,27.8,2.2c4.6-0.4,27.8-2.2,27.8-2.2l0.6,1.9 C112.7,84.1,93.8,86.4,84.4,86.4z"/>
<path d="M84.4,88.3c-9.6,0-28.8-2.2-28.8-2.2l0.4-1.9c0,0,23.7,1.9,28.4,2.2c4.7-0.4,28.4-2.2,28.4-2.2l0.4,1.9 C113.2,86.1,94,88.3,84.4,88.3z"/>
<path d="M84.4,90.2c-9.7,0-29.2-2.2-29.2-2.2l0.4-1.9c0,0,24,1.9,28.8,2.2c4.8-0.4,28.8-2.2,28.8-2.2l0.4,1.9 C113.5,88,94.1,90.2,84.4,90.2z"/>
<path d="M84.4,92.1c-9.8,0-29.5-2.2-29.5-2.2l0.3-1.9c0,0,24.3,1.9,29.2,2.2c4.9-0.4,29.2-2.2,29.2-2.2l0.3,1.9 C113.9,89.9,94.2,92.1,84.4,92.1z"/>
<path d="M84.4,94c-9.9,0-29.8-2.2-29.8-2.2l0.3-1.9c0,0,24.6,1.9,29.5,2.2c4.9-0.4,29.5-2.2,29.5-2.2l0.3,1.9 C114.2,91.8,94.3,94,84.4,94z"/>
<path d="M84.4,95.9c-10,0-30.1-2.2-30.1-2.2l0.3-1.9c0,0,24.8,1.9,29.8,2.2c5-0.4,29.8-2.2,29.8-2.2l0.3,1.9 C114.5,93.7,94.4,95.9,84.4,95.9z"/>
<path d="M84.4,97.8c-10.1,0-30.4-2.2-30.4-2.2l0.3-1.9c0,0,25.1,1.9,30.1,2.2c5-0.4,30.1-2.2,30.1-2.2l0.3,1.9 C114.8,95.6,94.5,97.8,84.4,97.8z"/>
<path d="M84.4,99.7c-10.3,0-30.8-2.2-30.8-2.2l0.3-1.9c0,0,25.4,1.9,30.4,2.2c5.1-0.4,30.4-2.2,30.4-2.2l0.3,1.9 C115.1,97.5,94.6,99.7,84.4,99.7z"/>
<path d="M84.4,101.6c-10.4,0-31.2-2.2-31.2-2.2l0.4-1.9c0,0,25.6,1.9,30.8,2.2c5.1-0.4,30.8-2.2,30.8-2.2l0.4,1.9 C115.5,99.4,94.8,101.6,84.4,101.6z"/>
</g>
</g>
<g id="Belt">
<g id="Pouch-Belt-6" class="option" style="display: inherit;">
<path id="Main_Pouch-Belt-6" d="M114.5,92.5c-6.8,0.6-22.3,2.8-30.1,2.8c-7.9,0-23.4-2.2-30.1-2.8l1-7.9 c5.5,0.5,21.4,2.7,29.1,2.7c7.4,0,23-2.2,28.9-2.8L114.5,92.5z" style="fill: rgb(164, 106, 57);"/>
<rect id="Buckle_Pouch-Belt-6" x="78.8" y="86.6" width="11.2" height="9.2" style="fill: rgb(203, 185, 92);"/>
<g id="Pouches_Pouch-Belt-6" style="fill: rgb(164, 106, 57);">
<g>
<g>
<g>
<path d="M70.3,84.5c-0.3,0-0.6,0-0.8,0.1c-0.7,0.3-2.1,0.8-2.1,0.8l8,0.5l2.2-0.9C77.6,85,72,84.7,70.3,84.5z"/>
<path d="M77.9,85.3c0-0.1,0-0.2-0.1-0.2c-0.1,0-0.2-0.1-0.2,0c-0.7,0.3-2.1,0.9-2.1,0.9l-1,12.4 c0.7-0.4,1.4-0.7,2.1-0.8c0.4-0.1,0.7-0.4,0.7-0.8C77.4,92.9,77.5,89.1,77.9,85.3z"/>
<path d="M75.4,86l-8-0.5c0,1.9-0.2,3.8-0.3,5.7c-0.1,2.1-0.2,4.2-0.3,6.3c0,0.2,0,0.3,0.1,0.4s0.2,0.2,0.4,0.2 c2.3,0,4.6,0.1,6.9,0.4c0.1,0,0.3,0,0.4-0.1s0.2-0.2,0.2-0.4c0.1-1.5,0.4-5.3,0.4-5.3L75.4,86z"/>
<path d="M75.4,86l-8-0.5c0,0-0.2,1.6-0.4,3.1c-0.1,0.8,0.1,1.5,0.6,2.1c0.5,0.6,1.2,0.9,1.9,1 c0.9,0.1,2,0.1,3,0.2c0.8,0,1.5-0.2,2.1-0.8c0.5-0.5,0.9-1.3,0.9-2C75.4,87.6,75.4,86,75.4,86z"/>
<path d="M71.2,90.3c0.3,0,0.5,0.3,0.5,0.5c0,0.3-0.3,0.5-0.5,0.5c-0.3,0-0.5-0.3-0.5-0.5 C70.6,90.5,70.9,90.3,71.2,90.3z"/>
</g>
</g>
<g>
<g>
<path d="M59.3,83c-0.3,0-0.6,0-0.9,0.2c-0.7,0.3-1.8,0.8-1.8,0.8l7.3,0.4l2-0.9C65.8,83.5,60.8,83.1,59.3,83z"/>
<path d="M66.1,83.8c0-0.1,0-0.2-0.1-0.2c-0.1-0.1-0.2-0.1-0.2,0c-0.7,0.3-1.9,0.9-1.9,0.9l-1,12.4 c0.6-0.4,1.3-0.7,1.9-0.8c0.4-0.1,0.7-0.4,0.7-0.8C65.6,91.3,65.7,87.5,66.1,83.8z"/>
<path d="M63.8,84.4L56.5,84c-0.1,1.9-0.2,3.8-0.3,5.7c-0.1,2.1-0.2,4.2-0.3,6.3c0,0.2,0,0.3,0.1,0.4 s0.2,0.2,0.4,0.2c2.1,0,4.1,0.1,6.2,0.4c0.1,0,0.3,0,0.4-0.1s0.2-0.2,0.2-0.4c0.1-1.5,0.4-5.3,0.4-5.3L63.8,84.4z"/>
<path d="M63.8,84.4L56.5,84c0,0-0.2,1.6-0.4,3.2c-0.1,0.8,0.1,1.5,0.6,2.1c0.5,0.6,1.2,0.9,1.9,1 c0.7,0,1.5,0.1,2.2,0.1c0.8,0,1.5-0.2,2-0.7s0.9-1.2,0.9-2C63.8,86,63.8,84.4,63.8,84.4z"/>
<path d="M59.9,88.8c0.3,0,0.5,0.3,0.4,0.5c0,0.3-0.2,0.5-0.5,0.5s-0.5-0.3-0.4-0.5C59.4,89,59.6,88.8,59.9,88.8z "/>
</g>
</g>
<g>
<path d="M51.9,83.9l0.5-0.9l2.8,0.1l0.3,1.1L51.9,83.9z"/>
<path d="M55.6,84.3c0-0.1,0-0.1-0.1-0.2c0-0.1-0.1-0.1-0.2-0.1c-0.8,0-3.5-0.1-3.5-0.1l-0.5,11.2 c0.1,0.3,1.5,0.5,2.7,0.5c0.5,0,0.9-0.4,0.9-0.9C55,91.2,55.2,87.7,55.6,84.3z"/>
</g>
</g>
<g>
<g>
<g>
<path d="M98.4,84.5c0.3,0,0.6,0,0.8,0.1c0.7,0.3,2.1,0.8,2.1,0.8l-8,0.5L91.1,85C91.2,85,96.8,84.7,98.4,84.5z"/>
<path d="M90.9,85.3c0-0.1,0-0.2,0.1-0.2s0.2-0.1,0.2,0c0.7,0.3,2.1,0.9,2.1,0.9l1,12.4c-0.7-0.4-1.4-0.7-2.1-0.8 c-0.4-0.1-0.7-0.4-0.7-0.8C91.4,92.9,91.3,89.1,90.9,85.3z"/>
<path d="M93.3,86l8-0.5c0.1,1.9,0.2,3.8,0.3,5.7c0.1,2.1,0.2,4.2,0.3,6.3c0,0.2,0,0.3-0.1,0.4 c-0.1,0.1-0.2,0.2-0.4,0.2c-2.3,0-4.6,0.1-6.9,0.4c-0.1,0-0.3,0-0.4-0.1s-0.2-0.2-0.2-0.4c-0.1-1.5-0.4-5.3-0.4-5.3L93.3,86z "/>
<path d="M93.3,86l8-0.5c0,0,0.2,1.6,0.4,3.1c0.1,0.8-0.1,1.5-0.6,2.1c-0.5,0.6-1.2,0.9-1.9,1 c-0.9,0.1-2,0.1-3,0.2c-0.8,0-1.5-0.2-2.1-0.8c-0.6-0.5-0.9-1.3-0.9-2C93.3,87.6,93.3,86,93.3,86z"/>
<path d="M97.6,90.3c-0.3,0-0.5,0.3-0.5,0.5c0,0.3,0.3,0.5,0.5,0.5c0.3,0,0.5-0.3,0.5-0.5 C98.1,90.5,97.9,90.3,97.6,90.3z"/>
</g>
</g>
<g>
<g>
<path d="M109.5,83c0.3,0,0.6,0,0.9,0.2c0.7,0.3,1.8,0.8,1.8,0.8l-7.3,0.4l-2-0.9C103,83.5,107.9,83.1,109.5,83z"/>
<path d="M102.7,83.8c0-0.1,0-0.2,0.1-0.2c0.1,0,0.2-0.1,0.2,0c0.7,0.3,1.9,0.9,1.9,0.9l1,12.4 c-0.6-0.4-1.3-0.7-1.9-0.8c-0.4-0.1-0.7-0.4-0.7-0.8C103.2,91.3,103.1,87.5,102.7,83.8z"/>
<path d="M104.9,84.4l7.3-0.4c0.1,1.9,0.2,3.8,0.3,5.7c0.1,2.1,0.2,4.2,0.3,6.3c0,0.2,0,0.3-0.1,0.4 c-0.1,0.1-0.2,0.2-0.4,0.2c-2.1,0-4.1,0.1-6.2,0.4c-0.1,0-0.3,0-0.4-0.1c-0.1-0.1-0.2-0.2-0.2-0.4c-0.1-1.5-0.4-5.3-0.4-5.3 L104.9,84.4z"/>
<path d="M104.9,84.4l7.3-0.4c0,0,0.2,1.6,0.4,3.2c0.1,0.8-0.1,1.5-0.6,2.1c-0.5,0.6-1.2,0.9-1.9,1 c-0.7,0-1.5,0.1-2.2,0.1c-0.8,0-1.5-0.2-2-0.7s-0.9-1.2-0.9-2C104.9,86,104.9,84.4,104.9,84.4z"/>
<path d="M108.9,88.8c-0.3,0-0.5,0.3-0.4,0.5c0,0.3,0.2,0.5,0.5,0.5s0.5-0.3,0.4-0.5 C109.3,89,109.1,88.8,108.9,88.8z"/>
</g>
</g>
<g>
<path d="M116.9,83.9l-0.5-0.9l-2.8,0.1l-0.3,1.1L116.9,83.9z"/>
<path d="M113.2,84.3c0-0.1,0-0.1,0.1-0.2c0-0.1,0.1-0.1,0.2-0.1c0.8,0,3.5-0.1,3.5-0.1l0.5,11.2 c-0.1,0.3-1.5,0.5-2.7,0.5c-0.5,0-0.9-0.4-0.9-0.9C113.7,91.2,113.6,87.7,113.2,84.3z"/>
</g>
</g>
</g>
</g>
</g>
</g>
<g id="Extras_Front">
<g id="Front">
<g id="None_Front" class="option" style="display: inherit;">
</g>
</g>
</g>
</svg></svg>
