<?xml version='1.0' encoding='UTF-8'?><svg version='1.1' xmlns='http://www.w3.org/2000/svg'><metadata><rdf:rdf xmlns:rdf="http://www.w3.org/1999/02/22-rdf-syntax-ns#" xmlns:rdfs="http://www.w3.org/2000/01/rdf-schema#" xmlns:dc="http://purl.org/dc/elements/1.1/"> <rdf:description> <dc:creator>MandoCreator</dc:creator> <dc:publisher>https://www.mandocreator.com</dc:publisher> <dc:description>Your Beskar'gam - created by MandoCreator</dc:description> <dc:format>image/svg+xml</dc:format> <dc:type>Image</dc:type> <dc:title>MandoCreator - Ner Berskar'gam</dc:title> <dc:date>2021-10-08T16:28:45.816Z</dc:date> </rdf:description> </rdf:rdf></metadata><svg version="1.1" id="Male" xmlns="http://www.w3.org/2000/svg" xmlns:xlink="http://www.w3.org/1999/xlink" x="0px" y="0px" viewBox="0 -55 169 300" style="fill: white; fill-rule: evenodd; stroke: black; stroke-width: 0.2px; pointer-events: none; position: relative; height: 223%;">
<g id="Extras_Back">
<g id="Back"><g id="NO-CAPES_Back" class="option" style="display: inherit;">
</g>
</g>
</g>
<g id="Suit">
<g id="Neck-Seal">
<path id="Plain-Neck-Seal" class="option" d="M97,6.1l2.9,6.8l-0.2,6.8l-15.3,1.6l-15.2-1.6L69,12.9l2.9-6.8l12.6,0.7L97,6.1" style="fill: rgb(34, 34, 34); display: inherit;"/>
</g>
<g id="Flight-Suit" style="fill: rgb(34, 34, 34);">
<path d="M72.8,158.4l-1.5,8.7l-11,53.1c0,0-4.9,3-7.4,3.5s-7.7-0.4-7.7-0.4l3.8-43l2.9-18.4l0.7-7.8 c0,0-2.5-22.8-1.7-34.1c0.8-11.4,6.6-34,6.6-34l26.8,0.6l26.8-0.6c0,0,5.8,22.6,6.6,34c0.8,11.4-1.7,34.1-1.7,34.1l0.7,7.8 l2.9,18.4l3.8,43c0,0-5.3,1.2-7.8,0.7s-7.3-3.7-7.3-3.7l-11-53.1l-1.5-8.7l-11.6-30.3L72.8,158.4z"/>
<g>
<path d="M128.5,43.3l11.9,41.6l1,21.5l-9.5,1.8l-6-20.2l-13.6-33.9l0.7-15.5l2.3-3.7L128.5,43.3z"/>
<path d="M40.3,43.3l13.1-8.4l2.3,3.7l0.5,16L42.8,88l-6,20.2l-9.5-1.8l1-21.5L40.3,43.3z"/>
</g>
</g>
<g id="Sleeves" class="toggle" style="fill: rgb(34, 34, 34);">
<g>
<path d="M111.4,56.1l2.7,5.9c0,0,4.2-3.2,7-4.8c2.8-1.6,4.3-2.6,6.9-3.6c2.5-1,5-1.5,5-1.5l-6-12.2l-5.8-9.7 l-11.5,5.1L111.4,56.1z"/>
<path d="M112.8,59.2c-0.2-0.2,5-4.5,8.6-6.3c3.5-1.8,10.2-3.7,10.2-3.7"/>
</g>
<g>
<path d="M57.3,56.1L54.6,62c0,0-4.2-3.2-7-4.8c-2.8-1.6-4.4-2.6-6.9-3.6s-5-1.5-5-1.5l6-12.2l5.8-9.7L59,35.4 L57.3,56.1z"/>
<path d="M55.9,59.2c0.2-0.2-5-4.5-8.6-6.3c-3.5-1.8-10.2-3.7-10.2-3.7"/>
</g>
</g>
</g>
<g id="Boots">
<g id="Basic_Boots" class="option" style="display: inherit;">
<g id="Main_Basic-Boot" style="fill: rgb(112, 112, 112);">
<path d="M108.3,216.7c1.4,0,3.2,0.9,4.5,1.1c1.4,0.2,2.9,0.2,4.3,0.1l0.6-0.1h0.7c0.3,0,0.7-0.1,1-0.2l0.5-0.1h0.2 l0.4-0.1l0.3-0.1h0.1c1.1-0.3,2.2-0.7,2.2-0.7c0.3,1.4,0.5,3.1,1.1,4.5c1,2.1,0.9,3.1,2.6,4.7c1.1,1.1,4.1,3.1,5.4,3.9 c0.6,0.4,1.2,0.6,1.8,0.9h0.1c2.5,0.9,5.2,1.3,6.5,4c0.3,0.6,0.5,1.3,0.5,2c-0.1,0.9-1,1-1.7,1.2c-1.8,0.5-3.4,0.9-5.5,1.4 c-2.4,0.5-4.6,0.9-7.1,0.8c-1.8-0.1-3.4-0.1-5-1.1c-0.6-0.4-1.3-0.8-1.9-1.3c-1.3-1.1-2.1-2.4-3.7-3c-1.2-0.5-2.4-0.9-3.6-1.2 c-1.8-0.4-4.3-1-5.2-2.7c-0.4-1.3,0-1.9,0.1-3.1l0.1-0.5c0.1-0.7,0.2-1.5,0.3-2.3c0.1-1.5-0.3-3-0.4-4.5 c-0.1-0.9-0.1-1.7-0.1-2.6c0-0.1-0.1-0.8,0.1-0.8c0.2-0.1,0.4-0.1,0.6-0.1L108.3,216.7z"/>
<path d="M60.5,216.7c-1.4,0-3.2,0.9-4.5,1.1c-1.4,0.2-2.9,0.2-4.3,0.1l-0.6-0.1h-0.7c-0.3,0-0.7-0.1-1-0.2l-0.5-0.1 h-0.2l-0.4-0.1l-0.3-0.1h-0.1c-1.1-0.3-2.2-0.7-2.2-0.7c-0.3,1.4-0.5,3.1-1.1,4.5c-1,2.1-0.9,3.1-2.6,4.7 c-1.1,1.1-4.1,3.1-5.4,3.9c-0.6,0.4-1.2,0.6-1.8,0.9h-0.1c-2.5,0.9-5.2,1.3-6.5,4c-0.3,0.6-0.5,1.3-0.5,2c0.1,0.9,1,1,1.7,1.2 c1.8,0.5,3.4,0.9,5.5,1.4c2.4,0.5,4.6,0.9,7.1,0.8c1.8-0.1,3.4-0.1,5-1.1c0.6-0.4,1.3-0.8,1.9-1.3c1.3-1.1,2.1-2.4,3.7-3 c1.2-0.5,2.4-0.9,3.6-1.2c1.8-0.4,4.3-1,5.2-2.7c0.4-1.3,0-1.9-0.1-3.1l-0.1-0.5c-0.1-0.7-0.2-1.5-0.3-2.3 c-0.1-1.5,0.3-3,0.4-4.5c0.1-0.9,0.1-1.7,0.1-2.6c0-0.1,0.1-0.8-0.1-0.8c-0.2-0.1-0.4-0.1-0.6-0.1L60.5,216.7z"/>
</g>
<g id="Bottom_Basic-Boot" style="fill: rgb(112, 112, 112);">
<path d="M107.4,230.6c0.5,0.9,1.3,1.4,2.3,1.9c0.9,0.4,1.9,0.6,2.9,0.9c0.1,0,0.3,0.1,0.4,0.1 c0.2,0.1,0.4,0.1,0.6,0.2c0.1,0,0.1,0,0.2,0.1h0.1c0.1,0,0.1,0,0.2,0.1h0.1c0.1,0,0.2,0.1,0.3,0.1h0.2c0.2,0.1,0.3,0.1,0.5,0.2 h0.1c0.1,0.1,0.3,0.1,0.4,0.2h0.1c0.1,0,0.2,0.1,0.3,0.1h0.1c0.3,0.1,0.5,0.2,0.7,0.4h0.1c0.1,0,0.1,0.1,0.2,0.1 c0.1,0,0.1,0.1,0.2,0.1h0.1l0.1,0.1c0.3,0.2,0.5,0.5,0.8,0.7l1.5,1.5c0.1,0,0.1,0.1,0.2,0.1c0.1,0.1,0.2,0.1,0.3,0.2 c0.1,0,0.1,0.1,0.2,0.1c0.1,0.1,0.1,0.1,0.2,0.2c0,0,0.1,0,0.1,0.1c0.1,0.1,0.2,0.1,0.3,0.2c0.1,0,0.2,0.1,0.2,0.1l0.1,0.1 l0.2,0.1l0.1,0.1h0.2c0.1,0.1,0.2,0.1,0.3,0.2c0.1,0,0.1,0,0.2,0.1h0.1c0.3,0.1,0.7,0.3,1,0.3h1.5c0.2,0,0.4,0,0.7,0.1h3.5 c0.4,0,0.8-0.1,1.2-0.1h0.8c0.3-0.1,0.7-0.1,1-0.2h0.7c0.1,0,0.2,0,0.3-0.1h0.1c0.1,0,0.2,0,0.3-0.1c0.1,0,0.2,0,0.3-0.1 c0.6-0.1,1.1-0.2,1.6-0.4h0.2c0.1,0,0.3-0.1,0.4-0.1h0.3c0.2,0,0.4-0.1,0.6-0.1c0.1,0,0.2-0.1,0.3-0.1c0.3-0.1,0.7-0.2,1-0.3h0.5 c0.3-0.1,0.5-0.1,0.8-0.2h0.2l0.3-0.1h1.1c0.1-0.1,0.2-0.2,0.2-0.2s0.5,0.7,0.5,2c-1.1,1.6-4.6,2.1-9.4,2.8 c-4.8,0.6-7.7,0.5-9.7-0.3c-2-0.9-5.5-4.9-8-5.2c-2.5-0.2-5.5-1.5-6.7-2.3c-0.6-0.4-0.4-3-0.4-3L107.4,230.6z"/>
<path d="M61.4,230.6c-0.5,0.9-1.3,1.4-2.3,1.9c-0.9,0.4-1.9,0.6-2.9,0.9c-0.1,0-0.3,0.1-0.4,0.1 c-0.2,0.1-0.4,0.1-0.6,0.2c-0.1,0-0.1,0-0.2,0.1h-0.1c-0.1,0-0.1,0-0.2,0.1h-0.1c-0.1,0-0.2,0.1-0.3,0.1h-0.2 c-0.2,0.1-0.3,0.1-0.5,0.2h-0.1c-0.1,0.1-0.3,0.1-0.4,0.2H53c-0.1,0-0.2,0.1-0.3,0.1h-0.1c-0.3,0.1-0.5,0.2-0.7,0.4h-0.1 c-0.1,0-0.1,0.1-0.2,0.1c-0.1,0-0.1,0.1-0.2,0.1h-0.1l-0.1,0.1c-0.3,0.2-0.5,0.5-0.8,0.7l-1.5,1.5c-0.1,0-0.1,0.1-0.2,0.1 c-0.1,0.1-0.2,0.1-0.3,0.2c-0.1,0-0.1,0.1-0.2,0.1c-0.1,0.1-0.1,0.1-0.2,0.2c0,0-0.1,0-0.1,0.1c-0.1,0.1-0.2,0.1-0.3,0.2 c-0.1,0-0.2,0.1-0.2,0.1l-0.1,0.1l-0.2,0.1l-0.1,0.1h-0.2c-0.1,0.1-0.2,0.1-0.3,0.2c-0.1,0-0.1,0-0.2,0.1h-0.1 c-0.3,0.1-0.7,0.3-1,0.3h-1.5c-0.2,0-0.4,0-0.6,0.1h-3.5c-0.4,0-0.8-0.1-1.2-0.1h-0.8c-0.3-0.1-0.7-0.1-1-0.2h-0.7 c-0.1,0-0.2,0-0.3-0.1h-0.1c-0.1,0-0.2,0-0.3-0.1c-0.1,0-0.2,0-0.3-0.1c-0.6-0.1-1.1-0.2-1.6-0.4h-0.2c-0.1,0-0.3-0.1-0.4-0.1 h-0.3c-0.2,0-0.4-0.1-0.6-0.1c-0.1,0-0.2-0.1-0.3-0.1c-0.3-0.1-0.7-0.2-1-0.3H30c-0.3-0.1-0.5-0.1-0.8-0.2H29l-0.3-0.1h-1 c-0.1-0.1-0.2-0.2-0.2-0.2s-0.5,0.7-0.5,2c1.1,1.6,4.6,2.1,9.4,2.8c4.8,0.6,7.7,0.5,9.7-0.3c2-0.9,5.5-4.9,8-5.2 c2.5-0.2,5.5-1.5,6.7-2.3c0.6-0.4,0.4-3,0.4-3L61.4,230.6z"/>
</g>
<g id="Top_Basic-Boot" style="fill: rgb(78, 136, 208);">
<path d="M121.1,217.2c0.7,3.3,1.7,6.1,3.9,8.8c3.4,4.3,9.1,4.6,13.1,8.1c1,0.9,1,2.3,1.1,3.6c-1.7,0.5-3.1,0.8-5,1.3 c-0.1-1.3,0.1-2.8-1-3.7c-4-3.5-10.3-3.3-13.6-7.6c-2.2-2.8-2.2-6.4-2.9-9.7h0.3l0.6-0.1h0.7c0.3,0,0.7-0.1,1-0.2l0.5-0.1h0.2 l0.4-0.1l0.3-0.1h0.1C121,217.3,121.1,217.2,121.1,217.2z"/>
<path d="M47.6,217.2c-0.7,3.3-1.7,6.1-3.9,8.8c-3.4,4.3-9.1,4.6-13.1,8.1c-1,0.9-1,2.3-1.1,3.6 c1.6,0.5,3.1,0.8,5,1.3c0.1-1.3-0.1-2.8,1-3.7c4-3.5,10.3-3.3,13.6-7.6c2.2-2.8,2.2-6.4,2.9-9.7h-0.3l-0.6-0.1h-0.7 c-0.3,0-0.7-0.1-1-0.2l-0.5-0.1h-0.2l-0.4-0.1l-0.3-0.1h-0.1C47.8,217.3,47.7,217.2,47.6,217.2z"/>
</g>
<g id="Side_Basic-Boot" style="fill: rgb(112, 112, 112);">
<path d="M108.7,216.8c1.4,0.1,2.9,0.9,4.1,1.1h0.2v1.2c0,2-0.2,10.8-0.6,10.7c-0.4,0-1.6-0.2-1.9-0.5 c-0.2-0.2-0.2-0.7-0.3-1c-0.2-0.9-0.4-1.7-0.5-2.6c-0.2-1.2-0.3-2.4-0.4-3.5C109.2,220.3,108.9,218.6,108.7,216.8z"/>
<path d="M60.1,216.8c-1.4,0.1-2.9,0.9-4.1,1.1h-0.2v1.2c0,2,0.2,10.8,0.6,10.7c0.4,0,1.6-0.2,1.9-0.5 c0.2-0.2,0.2-0.7,0.3-1c0.2-0.9,0.4-1.7,0.5-2.6c0.2-1.2,0.3-2.4,0.4-3.5C59.6,220.3,59.9,218.6,60.1,216.8z"/>
</g>
</g>
</g>
<g id="Gloves">
<g id="Left-Glove">
<g id="Basic_Left_Glove" class="option" style="fill: rgb(112, 112, 112); display: inherit;">
<path d="M137.6,124.1c-0.5,0-1,0-1.6,0.1c-0.4,0.1-0.7,0.2-1,0.3c-1,0.6-0.7,1.8,0.2,2.3c1,0.6,2.6,0,3.1-1.1 C138.5,125.3,137.9,124.5,137.6,124.1"/>
<path d="M135.8,125.2c-0.5,0-1,0-1.6,0.1c-0.4,0.1-0.7,0.2-1,0.3c-1,0.6-0.7,1.8,0.2,2.3c1,0.5,2.6,0,3.1-1.1 C136.7,126.4,136.1,125.6,135.8,125.2"/>
<path d="M134.5,126.6c-0.5,0-1.2,0.1-1.7,0.3c-0.3,0.1-0.7,0.3-1,0.5c-0.9,0.7-0.5,1.9,0.5,2.2 c1.1,0.4,2.6-0.3,2.9-1.5C135.4,127.7,134.5,126.6,134.5,126.6z"/>
<path d="M131.6,110c0,0-1.6,2.1-2,3.7c-0.3,1.1-0.1,3.7-0.5,5.4c-0.4,1.7-0.7,2.7-0.7,2.7s-1.4,2.8-1.1,3.4 c0.2,0.6,1.4,1.2,2.1,0.9c0.9-0.4,1.9-2.4,2.6-3.8c0.7-1.4,1.2-3.4,1.2-3.4s0.9,0.3,1.4,0.7c1.6,1.2,0.9,5,0.9,5 s-0.7,1.3-1.7,2.8c-1.4,2-3.4,3.8-2.1,5.4c1.3,1.5,4.2-2.4,4.2-2.4l2.9-3.7c0,0,3.3-5.4,3.4-6.5c0.1-0.8,0-3.5,0-3.5l-1-10.4 l-5.2,0.4l-4.3,1.4L131.6,110"/>
</g>
</g>
<g id="Right-Glove">
<g id="Basic_Right_Glove" class="option" style="fill: rgb(112, 112, 112); display: inherit;">
<path d="M31.1,124.1c0.5,0,1,0,1.6,0.1c0.4,0.1,0.7,0.2,1,0.3c1,0.6,0.7,1.8-0.2,2.3c-1,0.6-2.6,0-3.1-1.1 C30.3,125.3,30.9,124.5,31.1,124.1"/>
<path d="M32.9,125.2c0.5,0,1,0,1.6,0.1c0.4,0.1,0.7,0.2,1,0.3c1,0.6,0.7,1.8-0.2,2.3c-1,0.5-2.6,0-3.1-1.1 C32.1,126.4,32.7,125.6,32.9,125.2"/>
<path d="M34.2,126.6c0.5,0,1.2,0.1,1.7,0.3c0.3,0.1,0.7,0.3,1,0.5c0.9,0.7,0.5,1.9-0.5,2.2c-1.1,0.4-2.6-0.3-2.9-1.5 C33.3,127.7,34.2,126.6,34.2,126.6z"/>
<path d="M37.1,110c0,0,1.5,2.1,2,3.7c0.3,1.1,0.1,3.7,0.5,5.4c0.4,1.7,0.7,2.7,0.7,2.7s1.4,2.8,1.1,3.4 c-0.2,0.6-1.4,1.2-2.1,0.9c-0.9-0.4-1.9-2.4-2.6-3.8c-0.7-1.4-1.2-3.4-1.2-3.4s-0.9,0.3-1.4,0.7c-1.6,1.2-0.9,5-0.9,5 s0.7,1.3,1.7,2.8c1.4,2,3.4,3.8,2.1,5.4c-1.3,1.5-4.2-2.4-4.2-2.4l-2.9-3.7c0,0-3.3-5.4-3.4-6.5c-0.1-0.8,0-3.5,0-3.5l1-10.4 l5.2,0.4l4.3,1.4L37.1,110"/>
</g>
</g>
</g>
<g id="Biceps">
<g id="Left-Biceps">
<g id="Full-Band_Biceps_Left" class="option" style="display: inherit;">
<path id="Main_Full-Band_Biceps_Left" d="M113.4,60l-0.8-2.3l0.4-13.8c0,0,10.5-3.6,14.1-4.8 c0.7-0.2,1.4,0.1,1.7,0.8c1.3,3.4,5,13.2,5,13.2L113.4,60" style="fill: rgb(112, 112, 112);"/>
<g id="Trim_Full-Band_Biceps_Left" style="fill: rgb(78, 136, 208);">
<path d="M129.5,48.7c1.1,0,2,0.9,2,1.9c0,1.1-0.9,1.9-2,1.9s-2-0.9-2-1.9S128.4,48.7,129.5,48.7"/>
<path d="M133.8,53.1l0.5,1.3c0.1,0.4,0.1,0.8-0.1,1.1s-0.5,0.6-0.8,0.7c-3.7,1.3-14.1,4.7-17.7,6 c-0.7,0.2-1.5-0.1-1.8-0.9l-0.5-1.3L133.8,53.1"/>
</g>
</g>
</g>
<g id="Right-Biceps">
<g id="Full-Band_Biceps_Right" class="option" style="display: inherit;">
<path id="Main_Full-Band_Biceps_Right" d="M55.6,60l0.8-2.3L56,44c0,0-10.5-3.6-14.1-4.8c-0.7-0.2-1.4,0.1-1.7,0.8 c-1.3,3.4-5,13.2-5,13.2L55.6,60" style="fill: rgb(112, 112, 112);"/>
<g id="Trim_Full-Band_Biceps_Right" style="fill: rgb(78, 136, 208);">
<path d="M39.5,48.7c-1.1,0-2,0.9-2,1.9c0,1.1,0.9,1.9,2,1.9s2-0.9,2-1.9S40.6,48.7,39.5,48.7"/>
<path d="M35.1,53.1l-0.5,1.3c-0.1,0.4-0.1,0.8,0.1,1.1s0.5,0.6,0.8,0.7c3.7,1.3,14.1,4.7,17.7,6 c0.7,0.2,1.5-0.1,1.8-0.9l0.5-1.3L35.1,53.1"/>
</g>
</g>
</g>
</g>
<g id="Vest" style="fill: rgb(34, 34, 34);">
<path d="M84.4,20.9c8.4,0,15.3-4.3,15.5-8h0.1l18.3,5.4l13.2,23.9l-2.8,1.2l-13.3-8.6l-2.3,3.7l-1.5,47.4 c0,0-8.7,4.7-13.4,5.3c-3.4,0.5-8.6,0.7-13.7,0.7s-10.3-0.2-13.7-0.7c-4.8-0.6-13.4-5.3-13.4-5.3l-1.5-47.4l-2.3-3.7l-13.3,8.6 l-2.8-1.2l13.2-23.9L69,12.9h0.1C69,16.6,75.9,20.9,84.4,20.9"/>
</g>
<g class="swappable" id="Chest">
<g id="Chest_Galaxy" style="visibility: visible;">
<g id="Abdomen_Galaxy">
<path id="Abdomen-Plate_Galaxy" d="M77.5,73l-2.1,1.5L65,73l-0.8-5.8l5-0.1l3-4.9l1.4-4.5l10.9-10l10.9,10l1.4,4.5 l3,4.9l5,0.1L104,73l-10.5,1.5L91.4,73H77.5" style="fill: rgb(112, 112, 112);"/>
<path id="Trauma-Plate_Abdomen_Galaxy" class="toggle" style="display: none; fill: rgb(255, 255, 255);" d="M84.4,50L75,58.6l-1.3,4.3l-3.6,5.9l-4,0.1l0.4,2.7l8.5,1.2 l2-1.4h14.9l2,1.4l8.5-1.2l0.4-2.7l-4-0.1l-3.6-5.9l-1.3-4.3L84.4,50"/>
</g>
<g id="Full-Chest_Galaxy">
<path id="Chest-Plate_Galaxy" d="M80.1,33.2v10.1l3.2,3.2L72.1,57.2l-1.5,4.9L68.2,66h-4.1l-2-2.9l-2.5-14.2 l-3.7-5.8l4.7-15.2l5.4-0.7l0.8-3.4l5.8-0.7l1.8,3h20l1.8-3l5.8,0.7l0.8,3.4l5.4,0.7l4.7,15.2l-3.7,5.8l-2.5,14.2l-2,2.9h-4.1 l-2.4-3.9l-1.5-4.9L85.5,46.6l3.2-3.2V33.3l-4.4-3.4L80.1,33.2" style="fill: rgb(112, 112, 112);"/>
<path id="Trauma-Plating_Left-Chest_Galaxy" class="toggle" style="display: none; fill: rgb(255, 255, 255);" d="M95.4,27.8H84.6l5.9,4.6v11.7L88,46.6l10.2,9.7l1.5,5.1 l1.8,2.9h2.3l1.3-1.9l2.5-14.2l3.5-5.4L107,29.4l-5.5-0.7l-0.8-3.4l-3.5-0.4L95.4,27.8"/>
<path id="Trauma-Plating_Right-Chest_Galaxy" class="toggle" style="display: none; fill: rgb(255, 255, 255);" d="M71.8,24.9l-3.5,0.4l-0.8,3.4L62,29.4l-4.1,13.4l3.5,5.4 l2.5,14.2l1.3,1.9h2.3l1.8-2.9l1.5-5.1L81,46.6l-2.5-2.5V32.4l5.9-4.6H73.5L71.8,24.9"/>
<g id="Accents_Chest-Plate_Galaxy" class="toggle" style="fill: rgb(184, 108, 0);">
<path d="M104.7,31h-9.2v1.2h9.2V31"/>
<path d="M104.7,33.2h-9.2v1.2h9.2V33.2"/>
</g>
</g>
<g id="Iron-Heart_Galaxy">
<path id="Heart_Galaxy" d="M81.8,43.1V34l2.7-2.1l2.7,2.1v9.1l-2.7,2.7L81.8,43.1" style="fill: rgb(78, 136, 208);"/>
<g id="None_Heart_Galaxy" class="option" style="display: inherit;">
</g>
</g>
<g id="Neck-Armor_Galaxy">
<g id="Neck-Plate_Galaxy" style="fill: rgb(112, 112, 112);">
<path d="M82.2,25.1l-7.3,0.1l-1.8-3l-7,0.8l-0.7,3.2l-4.5,0.6l-3.3-11.4L69.1,12c0,0,1.5,2.6,2.6,3.5 c1.1,0.9,2.6,2,4.1,2.6c1.5,0.7,3.4,1.1,5.2,1.4c0.2,0,0.4,0.1,0.6,0.1L82.2,25.1"/>
<path d="M86.7,25.1l7.3,0.1l1.8-3l7,0.8l0.7,3.1l4.5,0.6l3.3-11.4l-11.5-3.4c0,0-1.5,2.6-2.6,3.5 c-1.1,0.9-2.6,2-4.1,2.6c-1.5,0.7-3.4,1.1-5.2,1.4c-0.2,0-0.4,0.1-0.6,0.1L86.7,25.1"/>
</g>
<g id="Trauma-Plates_Neck_Galaxy" class="toggle" style="display: none; fill: rgb(255, 255, 255);"/>
</g>
</g>
</g>
<g id="Chest-Attachments">
<g id="No-Device_Accessories_Chest" class="option" style="display: inherit;">
</g>
</g>
<g id="Collar">
<g id="None_Collar" class="option" style="display: inherit;">
</g>
</g>
<svg version="1.1" id="Helmets" xmlns="http://www.w3.org/2000/svg" y="-54px" height="85px" viewBox="0 0 80 80" class="swappable">
<g id="Helmet_RC" style="visibility: visible;">
<g id="Left-Earcap_RC" class="toggle">
<g id="Ear-Cap_Left_RC" style="fill: rgb(112, 112, 112);">
<path d="M56.6,29l0.7,0.8v9.9l-0.7,0.8V29z"/>
<path d="M57.3,30.2c0.1,0,0.3,0.1,0.4,0.2c0.1,0.1,0.2,0.2,0.2,0.4v7.1c0,0.1-0.1,0.3-0.2,0.4 c-0.1,0.1-0.2,0.2-0.4,0.2V30.2z"/>
<path d="M57.9,31.5c0.1,0,0.2,0,0.2,0.1c0.1,0.1,0.1,0.1,0.1,0.2v5c0,0.1,0,0.2-0.1,0.2c-0.1,0.1-0.1,0.1-0.2,0.1 V31.5z"/>
</g>
</g>
<g id="Right-Earcap_RC" class="toggle">
<g id="Range-Finder_Right_RC" class="option" style="display: inherit;">
<path id="Shaft_Right_Range-Finder_RC" d="M22.5,8.4h1.1l-0.4,26.9l-1.1,0.1L22.5,8.4z" style="fill: rgb(112, 112, 112);"/>
<path id="Finder_Right_Range-Finder_RC" d="M30.7,5.8l-6,0.3L25,5.3l6.9-1L30.7,5.8" style="fill: rgb(112, 112, 112);"/>
<g id="Cover_Right_Range-Finder_RC" style="fill: rgb(112, 112, 112);">
<path d="M21.6,7.3l2.8,0.1l0.5-2l7.5-1l0.1-0.8H21.8l-1,1.4L21.6,7.3"/>
<path d="M22.3,7.3h1.4v1.1h-1.4V7.3"/>
</g>
</g>
<g id="Ear-Cap_Right_RC" style="fill: rgb(112, 112, 112);">
<path d="M23.4,29l-0.7,0.8v9.9l0.7,0.8V29z"/>
<path d="M22.7,30.2c-0.1,0-0.3,0.1-0.4,0.2c-0.1,0.1-0.2,0.2-0.2,0.4v7.1c0,0.1,0.1,0.3,0.2,0.4 c0.1,0.1,0.2,0.2,0.4,0.2V30.2z"/>
<path d="M22.1,31.5c-0.1,0-0.2,0-0.2,0.1c-0.1,0.1-0.1,0.1-0.1,0.2v5c0,0.1,0,0.2,0.1,0.2c0.1,0.1,0.1,0.1,0.2,0.1 V31.5z"/>
</g>
</g>
<g id="Helmet_Pieces_RC">
<g id="Sides_RC" style="fill: rgb(78, 136, 208);">
<path d="M22.5,49.1L22,44.3l1.4-16.1h0.5l0.1,4.7h0.4L24,43.7l2.6,3.5L22.5,49.1z"/>
<path d="M23.3,28.9h-0.5l-0.4,10.3L23.3,28.9z"/>
<path d="M57.6,49.1l0.5-4.8l-1.4-16.1h-0.5l-0.1,4.7h-0.4l0.4,10.8l-2.6,3.5L57.6,49.1z"/>
<path d="M56.7,28.9h0.5l0.4,10.3L56.7,28.9z"/>
</g>
<g id="Mouth-4_RC" style="fill: rgb(112, 112, 112);">
<path d="M37.5,55.1l-1.4,8.1c-3.1-0.2-6-1.2-8.5-3.4l3.5-0.7L37.5,55.1z"/>
<path d="M36.1,66.3c-3.6-0.1-6.5-1-8.5-3.1v-3.4c2.5,2.2,5.3,3.2,8.5,3.4V66.3z"/>
<path d="M42.5,55.1l1.4,8.1c3.1-0.2,6-1.2,8.5-3.4l-3.5-0.7L42.5,55.1z"/>
<path d="M43.9,66.3c3.6-0.1,6.5-1,8.5-3.1v-3.4C49.9,62,47,63,43.9,63.2V66.3z"/>
</g>
<g id="Mouth-3_RC" style="fill: rgb(112, 112, 112);">
<path d="M39.2,61.1c-1.7,0-3.1,1.1-3.1,2.4v0.1v-0.3l1.5-8.7h4.8l1.5,8.7v0.3v-0.1c0-1.2-1.4-2.4-3.1-2.4H39.2z"/>
<path d="M40,62.6c-1.2,0-2.2,0.4-2.2,1.7v2.9h-1.7v-3.6c0-1.3,1.4-2.5,3.1-2.5h1.6c1.7,0,3.1,1.2,3.1,2.5v3.6h-1.7 v-2.9C42.3,63,41.3,62.6,40,62.6z"/>
<path d="M37.8,66.3v-2c0-1.3,1-1.7,2.2-1.7s2.2,0.4,2.2,1.7v2H37.8z"/>
</g>
<g id="Mouth-2_RC" style="fill: rgb(184, 108, 0);">
<rect x="38.5" y="63.3" width="2.9" height="3.5"/>
<rect x="38.5" y="63.6" width="2.9" height="3.2"/>
<rect x="38.7" y="63.8" width="2.6" height="2.8"/>
<path d="M38.9,63.8v2.8"/>
<path d="M38.7,63.8v2.8"/>
<path d="M41.3,63.8v2.8"/>
<path d="M39.2,63.8v2.8"/>
<path d="M39.4,63.8v2.8"/>
<path d="M39.7,63.8v2.8"/>
<path d="M39.9,63.8v2.8"/>
<path d="M40.1,63.8v2.8"/>
<path d="M41.1,63.8v2.8"/>
<path d="M40.8,63.8v2.8"/>
<path d="M40.6,63.8v2.8"/>
<path d="M40.4,63.8v2.8"/>
</g>
<g id="Mouth-1_RC" style="fill: rgb(184, 108, 0);">
<path d="M29.1,62.1c0.5-0.4,1.3-0.2,1.8,0.5c0.5,0.7,0.5,1.5,0,1.9s-1.3,0.2-1.8-0.5C28.6,63.3,28.6,62.5,29.1,62.1 z"/>
<path d="M29.4,62.3c0.4-0.3,1.1-0.2,1.6,0.4c0.4,0.5,0.4,1.3,0,1.6c-0.4,0.3-1.1,0.2-1.6-0.4 C29,63.3,29,62.6,29.4,62.3z"/>
<path d="M50.9,62.1c-0.5-0.4-1.3-0.2-1.8,0.5c-0.5,0.7-0.5,1.5,0,1.9s1.3,0.2,1.8-0.5 C51.4,63.3,51.4,62.5,50.9,62.1z"/>
<path d="M50.6,62.3c-0.4-0.3-1.1-0.2-1.6,0.4c-0.4,0.5-0.4,1.3,0,1.6c0.4,0.3,1.1,0.2,1.6-0.4 C51.1,63.3,51,62.6,50.6,62.3z"/>
</g>
<g id="Face-3_RC" style="fill: rgb(112, 112, 112);">
<path d="M27.6,59.8v3.4l-0.4-0.3v-3.6L27.6,59.8z"/>
<path d="M26.5,47.1l-4,2c0.6,2.3,1.4,4.4,2.4,6.6l4-1.6L26.5,47.1z"/>
<path d="M31.7,56.5l-4.5,2.7c-1-1.1-1.7-2.3-2.3-3.6l4-1.6l2.9,0.3C31.9,55.6,31.7,56.4,31.7,56.5z"/>
<path d="M23.5,52.5c0.4,1.1,0.9,2.1,1.4,3.2c0.6,1.3,1.3,2.6,2.3,3.6V63c0,0-1-1.8-1.6-3 C25.1,58.7,23.5,52.5,23.5,52.5z"/>
<path d="M52.4,59.8v3.4l0.4-0.3v-3.6L52.4,59.8z"/>
<path d="M53.5,47.1l4,2c-0.6,2.3-1.4,4.4-2.4,6.6l-4-1.6L53.5,47.1z"/>
<path d="M48.4,56.5l4.5,2.7c1-1.1,1.7-2.3,2.3-3.6l-4-1.6l-2.9,0.3C48.1,55.6,48.3,56.4,48.4,56.5z"/>
<path d="M56.5,52.5c-0.4,1.1-0.9,2.1-1.4,3.2c-0.6,1.3-1.3,2.6-2.3,3.6V63c0,0,1-1.8,1.6-3 C54.9,58.7,56.5,52.5,56.5,52.5z"/>
</g>
<g id="Face-2_RC" style="fill: rgb(112, 112, 112);">
<path d="M26.5,47.1c0.1,0,2.3-0.2,3.8,2.4c1,1.7,1.4,3.4,1.5,4.7v0.1L28.9,54L26.5,47.1z"/>
<path d="M53.5,47.1c-0.1,0-2.3-0.2-3.8,2.4c-1,1.7-1.4,3.4-1.5,4.7v0.1l2.9-0.3L53.5,47.1z"/>
</g>
<g id="Face-1_RC" style="fill: rgb(112, 112, 112);">
<path d="M26.3,49.2c0.2-0.1,0.3-0.2,0.2-0.3c-0.1-0.1-0.2-0.1-0.4,0l-2.5,1.2c-0.2,0.1-0.3,0.2-0.2,0.3 c0,0.1,0.2,0.1,0.4,0L26.3,49.2z"/>
<path d="M26.1,48.7c0.2-0.1,0.3-0.2,0.2-0.3c0-0.1-0.2-0.1-0.4,0l-2.5,1.2c-0.2,0.1-0.3,0.2-0.2,0.3 c0,0.1,0.2,0.1,0.4,0L26.1,48.7z"/>
<path d="M25.8,48.2c0.2-0.1,0.3-0.2,0.2-0.3c-0.1-0.1-0.2-0.1-0.4,0l-2.5,1.2c-0.2,0.1-0.3,0.2-0.2,0.3 c0,0.1,0.2,0.1,0.4,0L25.8,48.2z"/>
<path d="M23.5,45.7c1-0.5,2.2,1.8,2.2,1.8l-2.3,1.1C23.4,48.7,22.6,46.2,23.5,45.7z"/>
<path d="M53.7,49.2c-0.2-0.1-0.3-0.2-0.2-0.3c0-0.1,0.2-0.1,0.4,0l2.5,1.2c0.2,0.1,0.3,0.2,0.2,0.3 c0,0.1-0.2,0.1-0.4,0L53.7,49.2z"/>
<path d="M53.9,48.7c-0.2-0.1-0.3-0.2-0.2-0.3c0-0.1,0.2-0.1,0.4,0l2.5,1.2c0.2,0.1,0.3,0.2,0.2,0.3 c-0.1,0.1-0.2,0.1-0.4,0L53.9,48.7z"/>
<path d="M54.2,48.2C54,48.1,53.9,48,54,47.9c0-0.1,0.2-0.1,0.4,0l2.5,1.2c0.2,0.1,0.3,0.2,0.2,0.3 c0,0.1-0.2,0.1-0.4,0L54.2,48.2z"/>
<path d="M56.5,45.7c-1-0.5-2.2,1.8-2.2,1.8l2.3,1.1C56.7,48.7,57.5,46.2,56.5,45.7z"/>
</g>
<g id="Cheeks_RC" style="fill: rgb(112, 112, 112);">
<path d="M31.7,56.5c0-0.2,0.8-3.5-1.3-7.1c-1.6-2.6-3.9-2.4-3.9-2.4l-2.6-3.5c0.2,0,3.5,0.5,6.3,4 C33,51.3,31.7,56.5,31.7,56.5z"/>
<path d="M48.4,56.5c0-0.2-0.8-3.5,1.3-7.1c1.6-2.6,3.9-2.4,3.9-2.4l2.6-3.5c-0.2,0-3.5,0.5-6.3,4 C47,51.3,48.4,56.5,48.4,56.5z"/>
</g>
<path id="Visor-2_RC" d="M37.6,54.5l-0.1,0.6l-6.4,4l-3.5,0.7l-0.4-0.6l4.5-2.7l6.5-4.6h3.6l6.5,4.6l4.5,2.7 l-0.4,0.6l-3.5-0.7l-6.4-4l-0.1-0.6H37.6z" style="fill: rgb(0, 145, 244);"/>
<path id="Visor-1_RC" d="M38.2,51.9l-1.6-11.6l-9.3-1.9c-0.6-0.2-1.1-0.6-1.1-1.1l0.1-1.6c0-0.5,0.8-0.7,1.2-0.8 h25.3c0.3,0,1.1,0.3,1.2,0.8l0.1,1.6c0,0.5-0.6,0.9-1.1,1.1l-9.3,1.9l-1.6,11.6H38.2z" style="fill: rgb(0, 145, 244);"/>
<g id="Eyes_RC" style="fill: rgb(112, 112, 112);">
<path d="M27.4,34.9c-0.3,0-1.1,0.3-1.2,0.8l-0.1,1.6c0,0.5,0.7,1,1.4,1.1l-1.2-0.3c-0.5-0.1-0.9-0.6-0.8-1.1 c0-0.4,0.1-1,0.1-1.4c0-0.4,0.4-0.8,0.8-0.8h1V34.9z"/>
<path d="M52.7,34.9c0.3,0,1.1,0.3,1.2,0.8l0.1,1.6c0,0.5-0.7,1-1.4,1.1l1.2-0.3c0.5-0.1,0.9-0.6,0.8-1.1 c0-0.4-0.1-1-0.1-1.4c0-0.4-0.4-0.8-0.8-0.8h-1V34.9z"/>
<g>
<path d="M51.1,32.9h4.6l0.4,10.8c0,0-3.4,0.4-6.3,4c-2.9,3.7-1.5,8.9-1.5,8.9L41.8,52l1.6-11.6 c0,0,7.7-1.6,10.3-2.1c0.5-0.1,0.9-0.6,0.8-1.1c0-0.4-0.1-1-0.1-1.4c0-0.4-0.4-0.8-0.8-0.8H26.3c-0.4,0-0.8,0.3-0.8,0.8 c0,0.4-0.1,0.9-0.1,1.4s0.3,1,0.8,1.1c2.7,0.5,10.3,2.1,10.3,2.1L38.1,52l-6.5,4.6c0,0,1.3-5.2-1.5-8.9s-6.3-4-6.3-4l0.4-10.8 h4.6l0.8,1.1h20.6L51.1,32.9z"/>
</g>
</g>
<g id="Brow_RC" style="fill: rgb(112, 112, 112);">
<path d="M29.7,34l-0.8-1.1l0.6-1.1h21l0.6,1.1L50.3,34H29.7z"/>
<circle cx="40" cy="32.9" r="0.6"/>
<circle cx="31.4" cy="32.9" r="0.6"/>
<circle cx="48.7" cy="32.9" r="0.6"/>
</g>
<g id="Dome-2_RC" style="fill: rgb(78, 136, 208);">
<path d="M27.9,30.3v2.6h-4c0,0-0.1-3.5,0-5.5c0-0.7,0.4-1.7,1-2.7L27.9,30.3z"/>
<path d="M28.4,30.1v2.8h-0.5v-2.6L25,25l0.3-0.5L28.4,30.1z"/>
<path d="M52.1,30.3v2.6h4c0,0,0.1-3.5,0-5.5c0-0.7-0.4-1.7-1-2.7L52.1,30.3z"/>
<path d="M51.6,30.1v2.8h0.5v-2.6L55,25l-0.3-0.5L51.6,30.1z"/>
</g>
<g id="Dome-1_RC" style="fill: rgb(112, 112, 112);">
<path d="M28.9,32.9h-0.5v-2.8l-3.2-5.9c2.1-3.2,7-7,14.8-7c7.9,0,12.7,3.8,14.8,7l-3.2,5.9v2.8h-0.5l-0.6-1.1h-21 L28.9,32.9z"/>
<path d="M30.8,29.2c0-0.1-0.1-0.3-0.2-0.3s-0.3,0.1-0.3,0.2l-0.3,2c0,0.1,0.1,0.3,0.2,0.3c0.1,0,0.3-0.1,0.3-0.2 L30.8,29.2z"/>
<path d="M49.2,29.2c0-0.1,0.1-0.3,0.2-0.3c0.1,0,0.3,0.1,0.3,0.2l0.3,2c0,0.1-0.1,0.3-0.2,0.3 c-0.1,0-0.3-0.1-0.3-0.2L49.2,29.2z"/>
<path d="M37.1,31.8L37.1,31.8c0-0.4,0.3-0.7,0.6-0.7s0.6,0.3,0.6,0.6v0.1H37.1z"/>
<path d="M42.9,31.8L42.9,31.8c0-0.4-0.3-0.7-0.6-0.7s-0.6,0.3-0.6,0.6v0.1H42.9z"/>
</g>
</g>
</g>
</svg>
<g id="Shoulders">
<g id="Left-Shoulder">
<g id="Classic_Shoulder_Left" class="option" style="display: inherit;">
<path id="Main_Shoulder_Classic_Left" d="M116.5,13.4L114,24.8l2,6.5l13.4,6.8l2.3-3.5L116.5,13.4" style="fill: rgb(112, 112, 112);"/>
<path id="Trauma-Plates_Shoulder_Classic_Left" class="toggle" style="display: none; fill: rgb(255, 255, 255);" d="M115.7,24.7l1.7,5.4l11.4,5.8l1.9-3l-12.8-18 L115.7,24.7"/>
</g>
</g>
<g id="Right-Shoulder">
<g id="Classic_Shoulder_Right" class="option" style="display: inherit;">
<path id="Main_Shoulder_Classic_Right" d="M52.5,13.4L55,24.8l-2,6.5l-13.4,6.8l-2.3-3.5L52.5,13.4" style="fill: rgb(112, 112, 112);"/>
<path id="Trauma-Plates_Shoulder_Classic_Right" class="toggle" style="display: none; fill: rgb(255, 255, 255);" d="M53.2,24.7l-1.7,5.4l-11.4,5.8l-1.9-3l12.8-18 L53.2,24.7"/>
</g>
</g>
</g>
<g id="Gauntlets">
<g id="Left-Gauntlets">
<g id="Gunslinger_Gauntlet_Left" class="option" style="display: inherit;">
<g id="Accent-Top_Gunslinger_Gauntlet_Left" style="fill: rgb(78, 136, 208);">
<path d="M139,79.8l0.6,5.6l-2.8,0.8l-0.7-5.3L139,79.8"/>
<path d="M137.7,100.6l0.6,2.9l-2.5,0.5l-0.6-2.9L137.7,100.6"/>
</g>
<path id="Top_Gunslinger_Gauntlet_Left" d="M139,79.8l1.3-0.5l2.3,26.3l-6.2,1.3l-0.8-4.1l0.2,1.2l2.5-0.5l-0.6-2.9 l-2.5,0.5l-3.8-18.5L139,79.8l-2.9,1.1l0.7,5.3l2.8-0.8L139,79.8" style="fill: rgb(112, 112, 112);"/>
<g id="Accent-Bottom_Gunslinger_Gauntlet_Left" style="fill: rgb(78, 136, 208);">
<path d="M127.7,91.2l-0.7-2.3l-1.6,0.5l0.7,2.3L127.7,91.2"/>
<path d="M128.6,93.8l-0.7-2.3l-1.6,0.5l0.7,2.3L128.6,93.8"/>
<path d="M135.2,101.2l-5.6,1.2l0.9,2.8l5.3-1.1L135.2,101.2"/>
</g>
<path id="Bottom_Gunslinger_Gauntlet_Left" d="M135.7,103.6l-0.5-2.4l-5.6,1.2l0.9,2.8l5.3-1.1l0.6,2.9 c0,0-2,0.3-3.4,0.6c-0.9,0.2-1.8-0.4-2.1-1.3c-1.6-4.8-6.3-19.4-6.3-19.4l6.8-3.8L135.7,103.6 M128.6,93.8l-0.7-2.3l-1.6,0.5 l0.7,2.3L128.6,93.8 M127.7,91.2l-0.7-2.3l-1.6,0.5l0.7,2.3L127.7,91.2" style="fill: rgb(112, 112, 112);"/>
<g id="No-Device_Attachment_Gunslinger_Gauntlet_Left" class="option" style="display: inherit;">
</g>
</g>
</g>
<g id="Right-Gauntlets">
<g id="Gunslinger_Gauntlet_Right" class="option" style="display: inherit;">
<g id="Accent-Top_Gunslinger_Gauntlet_Right" style="fill: rgb(78, 136, 208);">
<path d="M30,79.8l-0.6,5.6l2.8,0.8l0.7-5.3L30,79.8"/>
<path d="M31.4,100.6l-0.6,2.9l2.5,0.5l0.6-2.9L31.4,100.6"/>
</g>
<path id="Top_Gunslinger_Gauntlet_Right" d="M30,79.8l-1.3-0.5l-2.3,26.3l6.2,1.3l0.8-4.1l-0.2,1.2l-2.5-0.5l0.6-2.9 l2.5,0.5l3.8-18.5L30,79.8l2.9,1.1l-0.7,5.3l-2.8-0.8L30,79.8" style="fill: rgb(112, 112, 112);"/>
<g id="Accent-Bottom_Gunslinger_Gauntlet_Right" style="fill: rgb(78, 136, 208);">
<path d="M41.3,91.2l0.7-2.3l1.6,0.5l-0.7,2.3L41.3,91.2"/>
<path d="M40.5,93.8l0.7-2.3l1.6,0.5l-0.7,2.3L40.5,93.8"/>
<path d="M33.9,101.2l5.6,1.2l-0.9,2.8l-5.3-1.1L33.9,101.2"/>
</g>
<path id="Bottom_Gunslinger_Gauntlet_Right" d="M33.4,103.6l0.5-2.4l5.6,1.2l-0.9,2.8l-5.3-1.1l-0.6,2.9 c0,0,2,0.3,3.4,0.6c0.9,0.2,1.8-0.4,2.1-1.3c1.6-4.8,6.3-19.4,6.3-19.4l-6.8-3.8L33.4,103.6 M40.5,93.8l0.7-2.3l1.6,0.5l-0.7,2.3 L40.5,93.8 M41.3,91.2l0.7-2.3l1.6,0.5l-0.7,2.3L41.3,91.2" style="fill: rgb(112, 112, 112);"/>
<g id="No-Device_Attachment_Gunslinger_Gauntlet_Right" class="option" style="display: inherit;">
</g>
</g>
</g>
</g>
<g id="Shins">
<g id="Left-Shin">
<g id="Basic_Shin_Left" class="option" style="display: inherit;">
<path id="Shin_Basic-Shin_Left" d="M120.8,179.2l-5-5.5l-10,1.4l-3.7,8.7l6.8,29c4.4,1.8,10.8,0.9,14.3-2.3 L120.8,179.2" style="fill: rgb(112, 112, 112);"/>
<path id="Trauma-Plating_Basic-Shin_Left" class="toggle" style="display: none; fill: rgb(255, 255, 255);" d="M121.5,209.8l-2.3-29.9l-4-4.4l-8.2,1.1l-3.1,7.3l6.5,27.6 C114,212.7,118.6,212,121.5,209.8"/>
<g id="Ridge_Basic-Shin_Left" class="toggle" style="display: none; fill: rgb(255, 255, 255);"/>
</g>
</g>
<g id="Right-Shin">
<g id="Basic_Shin_Right" class="option" style="display: inherit;">
<path id="Shin_Basic-Shin_Right" d="M48,179.2l5-5.5l10,1.4l3.7,8.7l-6.8,29c-4.4,1.8-10.8,0.9-14.3-2.3L48,179.2" style="fill: rgb(112, 112, 112);"/>
<path id="Trauma-Plating_Basic-Shin_Right" class="toggle" style="display: none; fill: rgb(255, 255, 255);" d="M47.3,209.8l2.3-29.9l4-4.4l8.2,1.1l3.1,7.3l-6.5,27.6 C54.8,212.7,50.2,212,47.3,209.8"/>
<g id="Ridge_Basic-Shin_Right" class="toggle" style="display: none; fill: rgb(255, 255, 255);"/>
</g>
</g>
</g>
<g id="Foot">
<g id="Left-Ankle">
<g id="Heavy_Ankle_Left" class="option" style="display: inherit;">
<path id="Plate_Heavy-Ankle_Left" d="M106.5,218.5l0.4,3.6l7.4,9.3l7.2-3.2l7.8-2l-5.9-10.5c-3-0.4-6.5-0.1-10.5,1.2 l-2.2,2L106.5,218.5" style="fill: rgb(112, 112, 112);"/>
<path id="Trim_Heavy-Ankle_Left" d="M112.9,216.7l0.8,1l-2.6,2.2l-3-0.1l0.1,1.5l6.4,7.9l6.4-3l7.7-1.8l0.8,1.6 l-8.1,2.1l-7.2,3.2l-7.4-9.3l-0.4-3.6l4.1,0.2L112.9,216.7" style="fill: rgb(78, 136, 208);"/>
</g>
</g>
<g id="Left-Toe">
<g id="None_Toe_Left" class="option" style="display: inherit;">
</g>
</g>
<g id="Right-Ankle">
<g id="Heavy_Ankle_Right" class="option" style="display: inherit;">
<path id="Plate_Heavy-Ankle_Right" d="M62.3,218.5l-0.4,3.6l-7.4,9.3l-7.2-3.2l-7.8-2l5.9-10.5 c3-0.4,6.5-0.1,10.5,1.2l2.2,2L62.3,218.5" style="fill: rgb(112, 112, 112);"/>
<path id="Trim_Heavy-Ankle_Right" d="M55.9,216.7l-0.8,1l2.6,2.2l3-0.1l-0.1,1.5l-6.4,7.9l-6.4-3l-7.7-1.8l-0.8,1.6 l8.1,2.1l7.2,3.2L62,222l0.4-3.6l-4.1,0.2L55.9,216.7" style="fill: rgb(78, 136, 208);"/>
</g>
</g>
<g id="Right-Toe">
<g id="None_Toe_Right" class="option" style="display: inherit;">
</g>
</g>
</g>
<g id="Knees">
<g id="Left-Knee">
<g id="Heavy_Knee_Left" class="option" style="display: inherit;">
<g id="Missiles_Heavy-Knee_Left" class="toggle" style="display:none"/>
<path id="Plate-2_Heavy-Knee_Left" d="M116,155.3l-2.8-1.7L99,156l-2.1,2.6l2.8,14.2l5.6,0.1l8-1.4l5.5-2L116,155.3z " style="fill: rgb(78, 136, 208);"/>
<g id="Plate-1_Heavy-Knee_Left" style="fill: rgb(112, 112, 112);">
<path d="M115.4,156.1l-2.6-1.7l-13,2.2l-1.9,2.4l2.7,13.7l4.7,0.1l8-1.4l4.7-1.8L115.4,156.1z"/>
<path d="M110.8,158l-8,1.4l2.5,13.5l4.1-0.2l3.8-1.2L110.8,158z"/>
<path d="M102.9,159.4l-3.1-2.7l-1.9,2.4L102.9,159.4z"/>
<path d="M110.8,158l1.9-3.6l2.6,1.7L110.8,158z"/>
</g>
<g id="Trim_Heavy-Knee_Left" style="fill: rgb(184, 108, 0);">
<path d="M97,163.4l-0.4,1.1l1.6,8.6l0.6-0.1L97,163.4z"/>
<path d="M111.7,167.5l-6.2,1.1l0.6,3.3l6.2-1.1L111.7,167.5z"/>
<path d="M97.6,161.9l-0.9,0.1l2,10.9l1-0.2L97.6,161.9z"/>
<path d="M116.9,159.6l1.9,9.9l-0.2,0.1l1-0.2l-1.8-10L116.9,159.6z"/>
</g>
</g>
</g>
<g id="Right-Knee">
<g id="Heavy_Knee_Right" class="option" style="display: inherit;">
<g id="Missiles_Heavy-Knee_Right" class="toggle" style="display:none"/>
<path id="Plate-2_Heavy-Knee_Right" d="M52.7,155.3l2.8-1.7l14.2,2.4l2.1,2.6L69,172.8l-5.6,0.1l-8-1.4l-5.5-2 L52.7,155.3z" style="fill: rgb(78, 136, 208);"/>
<g id="Plate-1_Heavy-Knee_Right" style="fill: rgb(112, 112, 112);">
<path d="M53.4,156.1l2.6-1.7l13,2.2l1.9,2.4l-2.7,13.7l-4.7,0.1l-8-1.4l-4.7-1.8L53.4,156.1z"/>
<path d="M58,158l8,1.4l-2.5,13.5l-4.1-0.2l-3.8-1.2L58,158z"/>
<path d="M65.9,159.4l3.1-2.7l1.9,2.4L65.9,159.4z"/>
<path d="M58,158l-1.9-3.6l-2.6,1.7L58,158z"/>
</g>
<g id="Trim_Heavy-Knee_Right" style="fill: rgb(184, 108, 0);">
<path d="M71.8,163.4l0.4,1.1l-1.6,8.6L70,173L71.8,163.4z"/>
<path d="M57.1,167.5l6.2,1.1l-0.6,3.3l-6.2-1.1L57.1,167.5z"/>
<path d="M71.1,161.9L72,162l-2,10.9l-1-0.2L71.1,161.9z"/>
<path d="M51.9,159.6l-1.9,9.9l0.2,0.1l-1-0.2l1.8-10L51.9,159.6z"/>
</g>
</g>
</g>
</g>
<g id="Thighs">
<g id="Left-Thigh">
<g id="Basic_Thigh_Left" class="option" style="display: inherit;">
<path id="Thigh_Basic-Thigh_Left" d="M119.4,115.2c0,0-5-6.4-7.5-7.5c-2.4-1-5.7-0.6-7.7,1.1 c-3.2,2.5-10.4,8-11.3,14.2c-0.9,6.8,4.1,21.9,5.7,26.8c0.6,1.7,2.7,2.4,4.4,2.5c3.1,0.1,11.5-0.1,13.5-4.7 C119.3,141.3,119.4,115.2,119.4,115.2" style="fill: rgb(112, 112, 112);"/>
<path id="Trauma-Plate_Basic-Thigh_Left" class="toggle" style="display: none; fill: rgb(255, 255, 255);" d="M117.7,115.7c-0.7-0.9-2.5-3.1-4.3-4.8 c-0.8-0.8-1.6-1.5-2.2-1.7c-1.9-0.8-4.4-0.4-6,0.8c-1.8,1.5-5.1,4-7.6,7c-1.5,1.8-2.8,3.9-3,6.1c-0.9,6.6,4,21.3,5.7,26 c0.1,0.4,0.5,0.7,0.9,0.9c0.6,0.3,1.3,0.4,1.9,0.5c1.7,0.1,5.2,0,8.2-1c1.6-0.5,3.1-1.3,3.7-2.7c0.8-1.8,1.3-5.2,1.7-9.2 C117.5,129.1,117.7,118.4,117.7,115.7"/>
<g id="Ridge_Basic-Thigh_Left" class="toggle" style="display: none; fill: rgb(255, 255, 255);"/>
</g>
</g>
<g id="Right-Thigh">
<g id="Basic_Thigh_Right" class="option" style="display: inherit;">
<path id="Thigh_Basic-Thigh_Right" d="M49.3,115.2c0,0,5-6.4,7.5-7.5c2.4-1,5.7-0.6,7.7,1.1 c3.2,2.5,10.4,8,11.3,14.2c0.9,6.8-4.1,21.9-5.7,26.8c-0.6,1.7-2.7,2.4-4.4,2.5c-3.1,0.1-11.5-0.1-13.5-4.7 C49.5,141.3,49.3,115.2,49.3,115.2" style="fill: rgb(112, 112, 112);"/>
<path id="Trauma-Plate_Basic-Thigh_Right" class="toggle" style="display: none; fill: rgb(255, 255, 255);" d="M51,115.7c0.7-0.9,2.5-3.1,4.3-4.8c0.8-0.8,1.6-1.5,2.2-1.7 c1.9-0.8,4.4-0.4,6,0.8c1.8,1.5,5.1,4,7.6,7c1.5,1.8,2.8,3.9,3,6.1c0.9,6.6-4,21.3-5.7,26c-0.1,0.4-0.5,0.7-0.9,0.9 c-0.6,0.3-1.3,0.4-1.9,0.5c-1.7,0.1-5.2,0-8.2-1c-1.6-0.5-3.1-1.3-3.7-2.7c-0.8-1.8-1.3-5.2-1.7-9.2 C51.2,129.1,51.1,118.4,51,115.7"/>
<g id="Ridge_Basic-Thigh_Right" class="toggle" style="display: none; fill: rgb(255, 255, 255);"/>
</g>
</g>
</g>
<g id="Groin">
<g id="None_Groin" class="option" style="display: inherit;">
</g>
</g>
<g id="Waist">
<g id="Accessories_Waist">
<g id="Kama" class="toggle" style="display:none"/>
<g id="Loin-Cloth" class="toggle" style="display:none"/>
<g id="Left-Holster" class="toggle" style="display:none"/>
<g id="Right-Holster" class="toggle" style="">
<g id="Belt-Holster_Right" class="option" style="display: inherit;">
<g id="Weapon_Belt-Holster-Right">
<g id="Main_Weapon_Belt-Holster-Right" style="fill: rgb(87, 87, 87);">
<path d="M52.7,98.7l0.2-3.6h-0.6l0.2-2.3h0.6l0.1-1.2c0-0.4-0.5-0.7-1.1-0.8c-1.4-0.1-3.9-0.3-5.3-0.4 c-0.6,0-1.2,0.2-1.2,0.6l-0.1,1.2h0.6l-0.2,2.3h-0.6l-0.2,3.6l1.5,0.1l-0.7,9.9l4.7,0.3l0.7-9.9L52.7,98.7z"/>
<path d="M45.8,97.7l0.8,0.1l-0.8,12l4.7,0.3l0.8-12l0.8,0.1l0.2-2.7l-6.4-0.4L45.8,97.7z"/>
<path d="M47.5,91.3l3.8,0.3l-0.2,3.7L47.3,95L47.5,91.3z"/>
<path d="M50.2,99h0.6l-0.6,9.4h-0.6L50.2,99z"/>
<path d="M48.7,96.8h0.6l-0.6,9.4h-0.6L48.7,96.8z"/>
<path d="M47,98.8h0.6l-0.6,9.4h-0.6L47,98.8z"/>
</g>
<g id="Accent_Weapon_Belt-Holster-Right" style="fill: rgb(184, 108, 0);">
<path d="M50.5,95.6V96l-2.7-0.2v-0.4L50.5,95.6z"/>
<path d="M50.4,96v0.4l-2.7-0.2v-0.4L50.4,96z"/>
<path d="M50.5,95.2v0.4l-2.7-0.2V95L50.5,95.2z"/>
<path d="M50.8,90.6V91l-2.7-0.2v-0.4L50.8,90.6z"/>
<path d="M50.7,91.6h0.6l-0.2,3.7h-0.6L50.7,91.6z"/>
<path d="M47.5,91.3h0.6L47.9,95h-0.6L47.5,91.3z"/>
<path d="M47.6,98.9l0.9,0.1l-0.6,9.4l-0.9-0.1L47.6,98.9z"/>
<path d="M49.2,99l0.9,0.1l-0.6,9.4l-0.9-0.1L49.2,99z"/>
</g>
</g>
<path id="Holster_Belt-Holster-Right" d="M51.1,112.4l2.5-15L45.4,108l-0.8,20.7c1.4,1.9,3,2.1,4.8,0.4L51.1,112.4z " style="fill: rgb(34, 34, 34);"/>
</g>
</g>
</g>
<g id="Under-Belt">
<g id="Girth-Belt" class="option" style="fill: rgb(112, 112, 112); display: inherit;">
<path d="M84.4,84.5c-9.3,0-27.8-2.2-27.8-2.2l0.6-1.9c0,0,18.1,1.5,27.2,2.2c9.1-0.8,27.2-2.2,27.2-2.2l0.6,1.9 C112.2,82.2,93.6,84.5,84.4,84.5z"/>
<path d="M84.4,86.4c-9.5,0-28.4-2.2-28.4-2.2l0.6-1.9c0,0,23.2,1.9,27.8,2.2c4.6-0.4,27.8-2.2,27.8-2.2l0.6,1.9 C112.7,84.1,93.8,86.4,84.4,86.4z"/>
<path d="M84.4,88.3c-9.6,0-28.8-2.2-28.8-2.2l0.4-1.9c0,0,23.7,1.9,28.4,2.2c4.7-0.4,28.4-2.2,28.4-2.2l0.4,1.9 C113.2,86.1,94,88.3,84.4,88.3z"/>
<path d="M84.4,90.2c-9.7,0-29.2-2.2-29.2-2.2l0.4-1.9c0,0,24,1.9,28.8,2.2c4.8-0.4,28.8-2.2,28.8-2.2l0.4,1.9 C113.5,88,94.1,90.2,84.4,90.2z"/>
<path d="M84.4,92.1c-9.8,0-29.5-2.2-29.5-2.2l0.3-1.9c0,0,24.3,1.9,29.2,2.2c4.9-0.4,29.2-2.2,29.2-2.2l0.3,1.9 C113.9,89.9,94.2,92.1,84.4,92.1z"/>
<path d="M84.4,94c-9.9,0-29.8-2.2-29.8-2.2l0.3-1.9c0,0,24.6,1.9,29.5,2.2c4.9-0.4,29.5-2.2,29.5-2.2l0.3,1.9 C114.2,91.8,94.3,94,84.4,94z"/>
<path d="M84.4,95.9c-10,0-30.1-2.2-30.1-2.2l0.3-1.9c0,0,24.8,1.9,29.8,2.2c5-0.4,29.8-2.2,29.8-2.2l0.3,1.9 C114.5,93.7,94.4,95.9,84.4,95.9z"/>
<path d="M84.4,97.8c-10.1,0-30.4-2.2-30.4-2.2l0.3-1.9c0,0,25.1,1.9,30.1,2.2c5-0.4,30.1-2.2,30.1-2.2l0.3,1.9 C114.8,95.6,94.5,97.8,84.4,97.8z"/>
<path d="M84.4,99.7c-10.3,0-30.8-2.2-30.8-2.2l0.3-1.9c0,0,25.4,1.9,30.4,2.2c5.1-0.4,30.4-2.2,30.4-2.2l0.3,1.9 C115.1,97.5,94.6,99.7,84.4,99.7z"/>
<path d="M84.4,101.6c-10.4,0-31.2-2.2-31.2-2.2l0.4-1.9c0,0,25.6,1.9,30.8,2.2c5.1-0.4,30.8-2.2,30.8-2.2l0.4,1.9 C115.5,99.4,94.8,101.6,84.4,101.6z"/>
</g>
</g>
<g id="Belt">
<g id="Pouch-Belt-4" class="option" style="display: inherit;">
<path id="Main_Pouch-Belt-4" d="M114.5,92.5c-6.8,0.6-22.3,2.8-30.1,2.8c-7.9,0-23.4-2.2-30.1-2.8l1-7.9 c5.5,0.5,21.4,2.7,29.1,2.7c7.4,0,23-2.2,28.9-2.8L114.5,92.5z" style="fill: rgb(34, 34, 34);"/>
<rect id="Buckle_Pouch-Belt-4" x="78.8" y="86.6" width="11.2" height="9.2" style="fill: rgb(163, 163, 163);"/>
<g id="Pouches_Pouch-Belt-4" style="fill: rgb(34, 34, 34);">
<g>
<g>
<path d="M59.3,83c-0.3,0-0.6,0-0.9,0.2c-0.7,0.3-1.8,0.8-1.8,0.8l7.3,0.4l2-0.9C65.8,83.5,60.8,83.1,59.3,83z"/>
<path d="M66.1,83.8c0-0.1,0-0.2-0.1-0.2c-0.1-0.1-0.2-0.1-0.2,0c-0.7,0.3-1.9,0.9-1.9,0.9l-1,12.4 c0.6-0.4,1.3-0.7,1.9-0.8c0.4-0.1,0.7-0.4,0.7-0.8C65.6,91.3,65.7,87.5,66.1,83.8z"/>
<path d="M63.8,84.4L56.5,84c-0.1,1.9-0.2,3.8-0.3,5.7c-0.1,2.1-0.2,4.2-0.3,6.3c0,0.2,0,0.3,0.1,0.4 s0.2,0.2,0.4,0.2c2.1,0,4.1,0.1,6.2,0.4c0.1,0,0.3,0,0.4-0.1s0.2-0.2,0.2-0.4c0.1-1.5,0.4-5.3,0.4-5.3L63.8,84.4z"/>
<path d="M63.8,84.4L56.5,84c0,0-0.2,1.6-0.4,3.2c-0.1,0.8,0.1,1.5,0.6,2.1c0.5,0.6,1.2,0.9,1.9,1 c0.7,0,1.5,0.1,2.2,0.1c0.8,0,1.5-0.2,2-0.7s0.9-1.2,0.9-2C63.8,86,63.8,84.4,63.8,84.4z"/>
<path d="M59.9,88.8c0.3,0,0.5,0.3,0.4,0.5c0,0.3-0.2,0.5-0.5,0.5s-0.5-0.3-0.4-0.5C59.4,89,59.6,88.8,59.9,88.8z"/>
</g>
</g>
<g>
<path d="M51.9,83.9l0.5-0.9l2.8,0.1l0.3,1.1L51.9,83.9z"/>
<path d="M55.6,84.3c0-0.1,0-0.1-0.1-0.2c0-0.1-0.1-0.1-0.2-0.1c-0.8,0-3.5-0.1-3.5-0.1l-0.5,11.2 c0.1,0.3,1.5,0.5,2.7,0.5c0.5,0,0.9-0.4,0.9-0.9C55,91.2,55.2,87.7,55.6,84.3z"/>
</g>
<g>
<g>
<path d="M109.5,83c0.3,0,0.6,0,0.9,0.2c0.7,0.3,1.8,0.8,1.8,0.8l-7.3,0.4l-2-0.9C103,83.5,107.9,83.1,109.5,83z"/>
<path d="M102.7,83.8c0-0.1,0-0.2,0.1-0.2c0.1,0,0.2-0.1,0.2,0c0.7,0.3,1.9,0.9,1.9,0.9l1,12.4 c-0.6-0.4-1.3-0.7-1.9-0.8c-0.4-0.1-0.7-0.4-0.7-0.8C103.2,91.3,103.1,87.5,102.7,83.8z"/>
<path d="M104.9,84.4l7.3-0.4c0.1,1.9,0.2,3.8,0.3,5.7c0.1,2.1,0.2,4.2,0.3,6.3c0,0.2,0,0.3-0.1,0.4 c-0.1,0.1-0.2,0.2-0.4,0.2c-2.1,0-4.1,0.1-6.2,0.4c-0.1,0-0.3,0-0.4-0.1c-0.1-0.1-0.2-0.2-0.2-0.4c-0.1-1.5-0.4-5.3-0.4-5.3 L104.9,84.4z"/>
<path d="M104.9,84.4l7.3-0.4c0,0,0.2,1.6,0.4,3.2c0.1,0.8-0.1,1.5-0.6,2.1c-0.5,0.6-1.2,0.9-1.9,1 c-0.7,0-1.5,0.1-2.2,0.1c-0.8,0-1.5-0.2-2-0.7s-0.9-1.2-0.9-2C104.9,86,104.9,84.4,104.9,84.4z"/>
<path d="M108.9,88.8c-0.3,0-0.5,0.3-0.4,0.5c0,0.3,0.2,0.5,0.5,0.5s0.5-0.3,0.4-0.5 C109.3,89,109.1,88.8,108.9,88.8z"/>
</g>
</g>
<g>
<path d="M116.9,83.9l-0.5-0.9l-2.8,0.1l-0.3,1.1L116.9,83.9z"/>
<path d="M113.2,84.3c0-0.1,0-0.1,0.1-0.2c0-0.1,0.1-0.1,0.2-0.1c0.8,0,3.5-0.1,3.5-0.1l0.5,11.2 c-0.1,0.3-1.5,0.5-2.7,0.5c-0.5,0-0.9-0.4-0.9-0.9C113.7,91.2,113.6,87.7,113.2,84.3z"/>
</g>
</g>
</g>
</g>
</g>
<g id="Extras_Front">
<g id="Front">
<g id="None_Front" class="option" style="display: inherit;">
</g>
</g>
</g>
</svg></svg>