<?xml version='1.0' encoding='UTF-8'?>
<svg version="1.1" id="Male-Body" xmlns="http://www.w3.org/2000/svg" xmlns:serif="http://www.serif.com/" viewBox="0 -55 170 300" style="stroke-width: 0.2px; fill-rule: evenodd; stroke-linejoin: round;" width="170" height="300">
<style>
mask {
mask-type: alpha;
}
.decal {
stroke: none;
}
</style>
<defs id="Masks" stroke="none">
<mask id="HelmetsMask"> <use href="#Helmets"/> </mask>
<mask id="CollarMask"> <use href="#Collar"/> </mask>
<mask id="ShouldersMask"> <use href="#Shoulders"/> </mask>
<mask id="ChestMask"> <use href="#Chest"/> </mask>
<mask id="BicepsMask"> <use href="#Biceps"/> </mask>
<mask id="GauntletsMask"> <use href="#Gauntlets"/> </mask>
<mask id="WaistMask"> <use href="#Waist"/> </mask>
<mask id="GroinMask"> <use href="#Groin"/> </mask>
<mask id="ThighsMask"> <use href="#Thighs"/> </mask>
<mask id="KneesMask"> <use href="#Knees"/> </mask>
<mask id="ShinsMask"> <use href="#Shins"/> </mask>
<mask id="FootMask"> <use href="#Foot"/> </mask>
</defs>
<defs id="Decals"/><metadata><rdf:rdf xmlns:rdf="http://www.w3.org/1999/02/22-rdf-syntax-ns#" xmlns:rdfs="http://www.w3.org/2000/01/rdf-schema#" xmlns:dc="http://purl.org/dc/elements/1.1/"><rdf:description><dc:creator>MandoCreator</dc:creator><dc:publisher>https://www.mandocreator.com</dc:publisher><dc:description>Your Beskar'gam - created by MandoCreator</dc:description><dc:format>image/svg+xml</dc:format><dc:type>Image</dc:type><dc:title>MandoCreator - Ner Berskar'gam</dc:title><dc:date>2022-01-02T16:20:24.390Z</dc:date></rdf:description></rdf:rdf></metadata><g id="Main-Body" fill="white" stroke="black">
<g id="Extras_Back">
<g id="Back"><g id="NO-CAPES_Back" class="option" style="display: inherit;">
</g>
</g>
</g>
<g id="Extras-BackDecals" mask="url(#BackMask)">
</g>
<g id="Suit">
<g id="Neck-Seal">
<path id="Plain-Neck-Seal" class="option" d="M97.69,6.07l2.94,6.84l-0.21,6.78l-15.43,1.59v0.01l-0.03,0l-0.03,0v-0.01 l-15.34-1.59l-0.21-6.78l2.94-6.84L85,6.73L97.69,6.07" fill="rgb(34, 34, 34)" style="display: inherit;"/></g>
<g id="Flight-Suit" fill="rgb(34, 34, 34)">
<path d="M73.36,158.45l-1.49,8.72l-11.03,53.11c0,0-4.93,2.96-7.47,3.46c-2.53,0.5-7.73-0.44-7.73-0.44l3.85-43 l2.9-18.36l0.66-7.82c0,0-2.53-22.78-1.7-34.14c0.82-11.36,6.66-34.01,6.66-34.01l26.98,0.58l26.97-0.58 c0,0,5.83,22.66,6.66,34.01c0.83,11.36-1.7,34.14-1.7,34.14l0.66,7.82l2.9,18.36l3.85,43c0,0-5.32,1.19-7.85,0.69 c-2.53-0.5-7.34-3.71-7.34-3.71L98.1,167.16l-1.49-8.72l-11.62-30.33L73.36,158.45z"/>
<g>
<path d="M129.41,43.33l11.98,41.65l1.04,21.47l-9.55,1.83l-6.05-20.21l-13.65-33.95l0.69-15.55l2.31-3.72 L129.41,43.33z"/>
<path d="M40.59,43.3l13.19-8.45l2.31,3.72l0.52,16.04L43.17,88.07l-6.05,20.21l-9.55-1.83l1.03-21.47L40.59,43.3z"/>
</g>
</g>
<g id="Sleeves" class="toggle" fill="rgb(34, 34, 34)">
<g>
<path d="M112.2,56.12l2.68,5.9c0,0,4.24-3.2,7.06-4.8s4.38-2.62,6.92-3.6c2.54-0.98,5.08-1.47,5.08-1.47l-6.07-12.25 l-5.79-9.67l-11.58,5.14L112.2,56.12z"/>
<path d="M113.61,59.24c-0.2-0.24,5.08-4.5,8.61-6.34c3.53-1.84,10.25-3.69,10.25-3.69"/>
</g>
<g>
<path d="M57.8,56.12l-2.68,5.9c0,0-4.24-3.2-7.06-4.8c-2.82-1.59-4.38-2.62-6.92-3.6c-2.54-0.98-5.08-1.47-5.08-1.47 l6.07-12.25l5.79-9.67l11.58,5.14L57.8,56.12z"/>
<path d="M56.39,59.24c0.2-0.24-5.08-4.5-8.61-6.34c-3.53-1.84-10.25-3.69-10.25-3.69"/>
</g>
</g>
</g>
<g id="Boots"><g id="Basic_Boots" class="option" style="display: inherit;">
<g id="Main_Basic-Boot" fill="rgb(112, 112, 112)">
<path d="M109.1,216.81c1.46,0.01,3.24,0.93,4.53,1.15c1.38,0.23,2.88,0.21,4.34,0.07l0.59-0.06l0.02,0l0.07-0.01 l0.19-0.03l0.3-0.04l0.12-0.02c0.35-0.05,0.68-0.1,1.01-0.16l0.53-0.1l0.11-0.03l0.04-0.01l0.08-0.02l0.36-0.09l0.32-0.09 l0.05-0.01c1.12-0.3,2.24-0.66,2.24-0.66c0.33,1.45,0.5,3.11,1.12,4.46c0.99,2.13,0.95,3.05,2.61,4.66 c1.14,1.1,4.08,3.05,5.44,3.89c0.57,0.36,1.19,0.63,1.81,0.86l0.06,0.02c2.5,0.93,5.2,1.28,6.56,4.03c0.3,0.6,0.55,1.32,0.5,2 c-0.06,0.87-1.02,0.99-1.76,1.2c-1.84,0.52-3.43,0.92-5.56,1.39c-2.43,0.54-4.63,0.88-7.1,0.81c-1.84-0.05-3.41-0.13-5.03-1.1 c-0.65-0.39-1.32-0.79-1.89-1.3c-1.27-1.15-2.09-2.36-3.71-3.04c-1.18-0.5-2.39-0.91-3.63-1.2c-1.76-0.42-4.34-1-5.28-2.74 c-0.37-1.3,0.01-1.94,0.13-3.06l0.06-0.48c0.1-0.73,0.23-1.48,0.26-2.26c0.08-1.51-0.3-3.01-0.4-4.51 c-0.06-0.85-0.1-1.71-0.11-2.56c0-0.14-0.08-0.75,0.06-0.8c0.19-0.08,0.4-0.12,0.62-0.14L109.1,216.81z"/>
<path d="M60.93,216.81c-1.46,0.01-3.24,0.93-4.53,1.15c-1.38,0.23-2.88,0.21-4.34,0.07l-0.59-0.06l-0.02,0 l-0.07-0.01l-0.19-0.03l-0.3-0.04l-0.12-0.02c-0.34-0.05-0.68-0.1-1.01-0.16l-0.53-0.1l-0.11-0.03l-0.04-0.01l-0.08-0.02 l-0.36-0.09l-0.32-0.09l-0.05-0.01c-1.12-0.3-2.24-0.66-2.24-0.66c-0.33,1.45-0.5,3.11-1.12,4.46c-0.99,2.13-0.95,3.05-2.6,4.66 c-1.14,1.1-4.08,3.05-5.44,3.89c-0.57,0.36-1.19,0.63-1.81,0.86l-0.06,0.02c-2.5,0.93-5.2,1.28-6.56,4.03 c-0.3,0.6-0.55,1.32-0.5,2c0.06,0.87,1.02,0.99,1.76,1.2c1.84,0.52,3.43,0.92,5.56,1.39c2.43,0.54,4.63,0.88,7.1,0.81 c1.84-0.05,3.41-0.13,5.03-1.1c0.65-0.39,1.32-0.79,1.89-1.3c1.27-1.15,2.09-2.36,3.72-3.04c1.18-0.5,2.39-0.91,3.63-1.2 c1.76-0.42,4.33-1,5.28-2.74c0.37-1.3-0.01-1.94-0.13-3.06l-0.06-0.48c-0.1-0.73-0.23-1.48-0.26-2.26 c-0.08-1.51,0.3-3.01,0.4-4.51c0.06-0.85,0.1-1.71,0.11-2.56c0-0.14,0.08-0.75-0.06-0.8c-0.19-0.08-0.4-0.12-0.62-0.14 L60.93,216.81z"/>
</g>
<g id="Bottom_Basic-Boot" fill="rgb(112, 112, 112)">
<path d="M108.15,230.64c0.47,0.87,1.35,1.44,2.33,1.86c0.89,0.45,1.95,0.64,2.96,0.88c0.14,0.03,0.27,0.07,0.41,0.1 c0.2,0.05,0.4,0.11,0.6,0.16c0.06,0.02,0.12,0.04,0.18,0.05l0.1,0.03c0.07,0.02,0.13,0.04,0.19,0.06 c0.03,0.01,0.06,0.02,0.08,0.03c0.11,0.04,0.22,0.07,0.33,0.11c0.04,0.01,0.08,0.03,0.12,0.04l0.06,0.02 c0.17,0.06,0.33,0.12,0.5,0.18c0.04,0.01,0.07,0.03,0.11,0.04c0.15,0.06,0.3,0.11,0.45,0.17l0.12,0.05 c0.09,0.04,0.18,0.07,0.27,0.11c0.04,0.02,0.08,0.03,0.12,0.05c0.27,0.11,0.51,0.24,0.74,0.38l0.03,0.02 c0.02,0.01,0.04,0.02,0.05,0.03c0.07,0.04,0.14,0.09,0.21,0.14l0.05,0.03c0.01,0.01,0.03,0.02,0.04,0.03 c0.07,0.05,0.14,0.1,0.2,0.15l0.06,0.04l0.09,0.07c0.28,0.23,0.54,0.47,0.8,0.73l0.07,0.07c0.14,0.14,0.28,0.28,0.42,0.43 c0.15,0.15,0.29,0.3,0.45,0.45c0.15,0.15,0.31,0.31,0.48,0.46l0.06,0.05c0.05,0.04,0.1,0.09,0.15,0.13 c0.01,0.01,0.02,0.01,0.03,0.02c0.08,0.07,0.17,0.13,0.25,0.2c0.06,0.04,0.11,0.09,0.17,0.13l0.03,0.02 c0.07,0.05,0.15,0.1,0.22,0.15c0.03,0.02,0.06,0.04,0.09,0.06c0.11,0.07,0.22,0.14,0.33,0.21c0.08,0.05,0.15,0.09,0.23,0.14 l0.09,0.06l0.25,0.15l0.11,0.07l0.08,0.04l0.08,0.04c0.11,0.06,0.22,0.12,0.34,0.17c0.05,0.02,0.11,0.05,0.16,0.07l0.05,0.02 c0.34,0.15,0.68,0.26,1.02,0.35l0.06,0.01l0.08,0.02c0.03,0.01,0.05,0.01,0.07,0.02c0.07,0.02,0.14,0.03,0.21,0.04 c0.05,0.01,0.11,0.02,0.16,0.03l0.13,0.02l0.04,0.01c0.04,0.01,0.07,0.01,0.11,0.02c0.06,0.01,0.12,0.02,0.18,0.02 c0.09,0.01,0.17,0.02,0.26,0.03c0.02,0,0.04,0,0.07,0.01c0.21,0.02,0.43,0.04,0.65,0.05c0.12,0.01,0.24,0.01,0.36,0.02l0.11,0 c0.23,0.01,0.46,0.02,0.7,0.02c0.15,0,0.31,0.01,0.46,0.01c0.06,0,0.11,0,0.17,0c0.08,0,0.16,0,0.23,0c0.06,0,0.11,0,0.17,0 l0.06,0c0.28-0.01,0.56-0.02,0.83-0.03c0.04,0,0.08,0,0.12-0.01l0.11-0.01c0.03,0,0.07-0.01,0.1-0.01 c0.4-0.03,0.81-0.07,1.21-0.11l0.11-0.01c0.1-0.01,0.2-0.02,0.3-0.04c0.04-0.01,0.09-0.01,0.13-0.02l0.11-0.01 c0.08-0.01,0.17-0.02,0.25-0.04c0.35-0.05,0.7-0.11,1.06-0.18c0.08-0.01,0.16-0.03,0.24-0.04l0.1-0.02 c0.04-0.01,0.07-0.01,0.11-0.02l0.11-0.02c0.04-0.01,0.07-0.01,0.11-0.02l0.08-0.02c0.09-0.02,0.17-0.04,0.26-0.05l0.11-0.02 c0.1-0.02,0.2-0.04,0.3-0.07c0.09-0.02,0.18-0.04,0.26-0.06l0.03,0c0.56-0.12,1.08-0.24,1.58-0.36l0.19-0.04 c0.14-0.03,0.28-0.07,0.42-0.1l0.17-0.04l0.08-0.02c0.2-0.05,0.39-0.1,0.58-0.15c0.12-0.03,0.23-0.06,0.35-0.09 c0.33-0.09,0.67-0.17,1-0.26l0.15-0.04c0.06-0.01,0.11-0.03,0.17-0.04l0.06-0.02c0.26-0.07,0.52-0.14,0.79-0.22l0.06-0.02 l0.09-0.02l0.28-0.07l0.09-0.03l0.14-0.04l0.06-0.02l0.11-0.04l0.1-0.03l0.04-0.02l0.05-0.02l0.03-0.01l0.05-0.02l0.05-0.03 l0.02-0.01l0.05-0.03l0.06-0.04l0.06-0.04l0.05-0.04c0.09-0.07,0.16-0.15,0.22-0.24l0,0c0,0,0.49,0.73,0.53,1.99 c-1.1,1.59-4.6,2.12-9.43,2.76c-4.8,0.64-7.76,0.51-9.77-0.35c-2.01-0.86-5.53-4.94-8.05-5.15c-2.52-0.22-5.5-1.54-6.72-2.26 c-0.64-0.37-0.45-3-0.45-3L108.15,230.64z"/>
<path d="M61.87,230.64c-0.47,0.87-1.35,1.44-2.33,1.86c-0.89,0.45-1.95,0.64-2.95,0.88 c-0.14,0.03-0.27,0.07-0.41,0.1c-0.2,0.05-0.4,0.11-0.6,0.16c-0.06,0.02-0.12,0.04-0.18,0.05l-0.1,0.03 c-0.07,0.02-0.13,0.04-0.19,0.06c-0.03,0.01-0.06,0.02-0.08,0.03c-0.11,0.04-0.22,0.07-0.33,0.11c-0.04,0.01-0.08,0.03-0.12,0.04 l-0.06,0.02c-0.17,0.06-0.33,0.12-0.5,0.18c-0.04,0.01-0.07,0.03-0.11,0.04c-0.15,0.06-0.3,0.11-0.45,0.17l-0.12,0.05 c-0.09,0.04-0.18,0.07-0.27,0.11c-0.04,0.02-0.08,0.03-0.12,0.05c-0.27,0.11-0.51,0.24-0.74,0.38l-0.03,0.02 c-0.02,0.01-0.04,0.02-0.05,0.03c-0.07,0.04-0.14,0.09-0.21,0.14l-0.05,0.03c-0.01,0.01-0.03,0.02-0.04,0.03 c-0.07,0.05-0.14,0.1-0.2,0.15l-0.06,0.04l-0.09,0.07c-0.28,0.23-0.54,0.47-0.8,0.73l-0.07,0.07c-0.14,0.14-0.28,0.28-0.42,0.43 c-0.15,0.15-0.29,0.3-0.45,0.45c-0.15,0.15-0.31,0.31-0.48,0.46l-0.06,0.05c-0.05,0.04-0.1,0.09-0.15,0.13 c-0.01,0.01-0.02,0.01-0.03,0.02c-0.08,0.07-0.17,0.13-0.25,0.2c-0.06,0.04-0.11,0.09-0.17,0.13l-0.03,0.02 c-0.07,0.05-0.15,0.1-0.22,0.15c-0.03,0.02-0.06,0.04-0.09,0.06c-0.11,0.07-0.22,0.14-0.33,0.21c-0.08,0.05-0.15,0.09-0.23,0.14 l-0.1,0.06l-0.24,0.15l-0.11,0.07l-0.08,0.04l-0.08,0.04c-0.11,0.06-0.22,0.12-0.34,0.17c-0.05,0.02-0.11,0.05-0.16,0.07 l-0.05,0.02c-0.34,0.15-0.67,0.26-1.02,0.35l-0.06,0.01l-0.08,0.02c-0.02,0.01-0.05,0.01-0.07,0.02 c-0.07,0.02-0.14,0.03-0.21,0.04c-0.06,0.01-0.11,0.02-0.16,0.03l-0.13,0.02l-0.04,0.01c-0.04,0.01-0.07,0.01-0.11,0.02 c-0.06,0.01-0.12,0.02-0.18,0.02c-0.09,0.01-0.17,0.02-0.26,0.03c-0.02,0-0.05,0-0.07,0.01c-0.22,0.02-0.43,0.04-0.65,0.05 c-0.12,0.01-0.24,0.01-0.36,0.02l-0.1,0c-0.23,0.01-0.47,0.02-0.7,0.02c-0.15,0-0.31,0.01-0.46,0.01c-0.06,0-0.11,0-0.17,0 c-0.08,0-0.16,0-0.23,0c-0.06,0-0.11,0-0.17,0l-0.06,0c-0.28-0.01-0.56-0.02-0.83-0.03c-0.04,0-0.08,0-0.12-0.01l-0.11-0.01 c-0.03,0-0.07-0.01-0.1-0.01c-0.4-0.03-0.81-0.07-1.21-0.11l-0.11-0.01c-0.1-0.01-0.2-0.02-0.3-0.04 c-0.04-0.01-0.09-0.01-0.13-0.02l-0.11-0.01c-0.08-0.01-0.17-0.02-0.25-0.04c-0.35-0.05-0.7-0.11-1.06-0.18 c-0.08-0.01-0.16-0.03-0.24-0.04l-0.1-0.02c-0.04-0.01-0.07-0.01-0.11-0.02l-0.11-0.02c-0.04-0.01-0.07-0.01-0.11-0.02 l-0.08-0.02c-0.09-0.02-0.17-0.04-0.26-0.05l-0.11-0.02c-0.1-0.02-0.2-0.04-0.3-0.07c-0.09-0.02-0.17-0.04-0.26-0.06l-0.03,0 c-0.56-0.12-1.08-0.24-1.58-0.36l-0.19-0.04c-0.14-0.03-0.28-0.07-0.42-0.1l-0.17-0.04l-0.08-0.02c-0.2-0.05-0.39-0.1-0.58-0.15 c-0.12-0.03-0.23-0.06-0.35-0.09c-0.34-0.09-0.67-0.17-1-0.26l-0.15-0.04c-0.06-0.01-0.11-0.03-0.17-0.04l-0.06-0.02 c-0.26-0.07-0.52-0.14-0.79-0.22l-0.06-0.02l-0.09-0.02l-0.28-0.07l-0.09-0.03L29,237.65l-0.06-0.02l-0.11-0.04l-0.1-0.03 l-0.04-0.02l-0.05-0.02l-0.03-0.01l-0.05-0.02l-0.05-0.03l-0.02-0.01l-0.05-0.03l-0.06-0.04l-0.06-0.04l-0.05-0.04 c-0.09-0.07-0.16-0.15-0.22-0.24l0,0c0,0-0.49,0.73-0.53,1.99c1.1,1.59,4.6,2.12,9.43,2.76c4.8,0.64,7.76,0.51,9.77-0.35 c2.01-0.86,5.53-4.94,8.05-5.15c2.52-0.22,5.49-1.54,6.72-2.26c0.64-0.37,0.45-3,0.45-3L61.87,230.64z"/>
</g>
<g id="Top_Basic-Boot" fill="rgb(78, 136, 208)">
<path d="M122,217.29c0.67,3.26,1.7,6.09,3.88,8.84c3.4,4.27,9.2,4.62,13.21,8.09c1.03,0.89,0.98,2.32,1.15,3.64 c-1.66,0.47-3.13,0.84-4.99,1.26c-0.13-1.31,0.1-2.78-0.99-3.72c-4.01-3.47-10.32-3.34-13.72-7.61 c-2.22-2.79-2.23-6.39-2.87-9.74c0.1-0.01,0.2-0.02,0.3-0.03l0.59-0.06l0.02,0l0.07-0.01l0.19-0.03l0.3-0.04l0.12-0.02 c0.35-0.05,0.68-0.1,1.01-0.16l0.53-0.1l0.11-0.03l0.04-0.01l0.08-0.02l0.36-0.09l0.32-0.09l0.05-0.01 C121.85,217.33,121.93,217.31,122,217.29z"/>
<path d="M48.02,217.29c-0.67,3.26-1.7,6.09-3.88,8.84c-3.4,4.27-9.2,4.62-13.21,8.09c-1.03,0.89-0.98,2.32-1.15,3.64 c1.66,0.47,3.13,0.84,4.99,1.26c0.13-1.31-0.1-2.78,0.99-3.72c4.01-3.47,10.32-3.34,13.72-7.61c2.22-2.79,2.23-6.39,2.87-9.74 c-0.1-0.01-0.2-0.02-0.3-0.03l-0.59-0.06l-0.02,0l-0.07-0.01l-0.19-0.03l-0.3-0.04l-0.12-0.02c-0.34-0.05-0.68-0.1-1.01-0.16 l-0.53-0.1l-0.11-0.03l-0.04-0.01l-0.08-0.02l-0.36-0.09l-0.32-0.09l-0.05-0.01C48.17,217.33,48.1,217.31,48.02,217.29z"/>
</g>
<g id="Side_Basic-Boot" fill="rgb(112, 112, 112)">
<path d="M109.49,216.83c1.38,0.15,2.96,0.92,4.14,1.12c0.06,0.01,0.13,0.02,0.19,0.03c0.02,0.41,0.01,0.82,0.02,1.18 c0.05,2.04-0.21,10.76-0.61,10.75c-0.4-0.02-1.58-0.23-1.88-0.55c-0.2-0.21-0.24-0.71-0.3-0.98c-0.21-0.87-0.4-1.73-0.53-2.61 c-0.18-1.19-0.32-2.36-0.4-3.55C109.98,220.42,109.7,218.62,109.49,216.83z"/>
<path d="M60.53,216.83c-1.38,0.15-2.96,0.92-4.14,1.12c-0.06,0.01-0.13,0.02-0.19,0.03 c-0.02,0.41-0.01,0.82-0.02,1.18c-0.05,2.04,0.21,10.76,0.61,10.75c0.4-0.02,1.58-0.23,1.88-0.55c0.2-0.21,0.24-0.71,0.3-0.98 c0.21-0.87,0.4-1.73,0.53-2.61c0.18-1.19,0.32-2.36,0.4-3.55C60.05,220.42,60.32,218.62,60.53,216.83z"/>
</g>
</g>
</g>
<g id="Gloves">
<g id="Left-Glove"><g id="Basic_Left_Glove" class="option" fill="rgb(112, 112, 112)" style="display: inherit;">
<path d="M138.6,124.11c-0.54-0.03-1.05-0.01-1.58,0.1c-0.36,0.08-0.72,0.16-1.04,0.35 c-0.99,0.57-0.72,1.81,0.16,2.28c1.03,0.55,2.66,0.01,3.13-1.05C139.46,125.35,138.86,124.53,138.6,124.11"/>
<path d="M136.79,125.19c-0.54-0.03-1.05-0.02-1.59,0.1c-0.36,0.08-0.72,0.16-1.04,0.35 c-0.99,0.57-0.72,1.81,0.16,2.28c1.03,0.55,2.66,0.01,3.13-1.05C137.65,126.43,137.05,125.61,136.79,125.19"/>
<path d="M135.49,126.65c-0.54,0.05-1.19,0.13-1.7,0.31c-0.35,0.12-0.69,0.26-0.99,0.48c-0.9,0.7-0.47,1.89,0.47,2.24 c1.1,0.41,2.64-0.35,2.96-1.46C136.36,127.76,135.49,126.65,135.49,126.65z"/>
<path d="M132.55,110.05c0,0-1.56,2.15-1.97,3.69c-0.29,1.09-0.13,3.68-0.49,5.43c-0.36,1.74-0.69,2.71-0.69,2.71 s-1.38,2.79-1.14,3.43c0.24,0.64,1.45,1.21,2.15,0.87c0.86-0.42,1.93-2.39,2.61-3.77c0.69-1.41,1.25-3.41,1.25-3.41 s0.95,0.32,1.43,0.7c1.61,1.24,0.91,4.96,0.91,4.96s-0.66,1.33-1.66,2.83c-1.36,2.05-3.46,3.81-2.07,5.37 c1.29,1.46,4.22-2.37,4.22-2.37l2.87-3.73c0,0,3.3-5.41,3.47-6.46c0.13-0.8,0.02-3.47,0.02-3.47l-1.03-10.37l-5.24,0.44 l-4.31,1.39L132.55,110.05"/>
</g>
</g>
<g id="Right-Glove"><g id="Basic_Right_Glove" class="option" fill="rgb(112, 112, 112)" style="display: inherit;">
<path d="M31.4,124.11c0.54-0.03,1.05-0.01,1.58,0.1c0.36,0.08,0.72,0.16,1.04,0.35c0.99,0.57,0.72,1.81-0.16,2.28 c-1.03,0.55-2.66,0.01-3.13-1.05C30.53,125.35,31.14,124.53,31.4,124.11"/>
<path d="M33.21,125.19c0.54-0.03,1.05-0.02,1.58,0.1c0.36,0.08,0.72,0.16,1.04,0.35c0.99,0.57,0.72,1.81-0.16,2.28 c-1.03,0.55-2.66,0.01-3.13-1.05C32.35,126.43,32.95,125.61,33.21,125.19"/>
<path d="M34.51,126.65c0.54,0.05,1.19,0.13,1.7,0.31c0.35,0.12,0.69,0.26,0.99,0.48c0.9,0.7,0.47,1.89-0.47,2.24 c-1.1,0.41-2.64-0.35-2.96-1.46C33.64,127.76,34.51,126.65,34.51,126.65z"/>
<path d="M37.45,110.05c0,0,1.56,2.15,1.97,3.69c0.29,1.09,0.13,3.68,0.49,5.43c0.36,1.74,0.69,2.71,0.69,2.71 s1.38,2.79,1.14,3.43c-0.24,0.64-1.45,1.21-2.15,0.87c-0.86-0.42-1.93-2.39-2.61-3.77C36.29,121,35.73,119,35.73,119 s-0.95,0.32-1.43,0.7c-1.61,1.24-0.91,4.96-0.91,4.96s0.66,1.33,1.66,2.83c1.36,2.05,3.46,3.81,2.08,5.37 c-1.29,1.46-4.22-2.37-4.22-2.37l-2.87-3.73c0,0-3.3-5.41-3.47-6.46c-0.13-0.8-0.02-3.47-0.02-3.47l1.03-10.37l5.24,0.44 l4.31,1.39L37.45,110.05"/>
</g>
</g>
</g>
<g id="Biceps">
<g id="Left-Biceps"><g id="Full-Band_Biceps_Left" class="option" style="display: inherit;">
<path id="Main_Full-Band_Biceps_Left" d="M114.12,60.46l-0.85-2.32l0.45-13.76c0,0,1.06-0.36,2.62-0.89 c7.17-2.42,14.97,1.25,17.67,8.32c0.4,1.06,0.66,1.73,0.66,1.73L114.12,60.46" fill="rgb(112, 112, 112)"/>
<g id="Trim_Full-Band_Biceps_Left" fill="rgb(78, 136, 208)">
<path d="M130.31,49.15c1.11,0,2.02,0.87,2.02,1.93c0,1.07-0.9,1.93-2.02,1.93c-1.11,0-2.02-0.86-2.02-1.93 C128.29,50.02,129.2,49.15,130.31,49.15"/>
<path d="M134.67,53.53l0.47,1.29c0.13,0.36,0.11,0.76-0.05,1.1c-0.17,0.35-0.47,0.61-0.83,0.73 c-3.77,1.26-14.16,4.74-17.85,5.98c-0.74,0.25-1.54-0.14-1.8-0.86l-0.49-1.32L134.67,53.53"/>
</g>
</g></g>
<g id="Right-Biceps"><g id="Full-Band_Biceps_Right" class="option" style="display: inherit;">
<path id="Main_Full-Band_Biceps_Right" d="M55.91,60.46l0.85-2.32l-0.45-13.76c0,0-1.06-0.36-2.62-0.89 c-7.17-2.42-14.97,1.25-17.67,8.32c-0.4,1.06-0.66,1.73-0.66,1.73L55.91,60.46" fill="rgb(112, 112, 112)"/>
<g id="Trim_Full-Band_Biceps_Right" fill="rgb(78, 136, 208)">
<path d="M39.71,49.15c-1.11,0-2.02,0.87-2.02,1.93c0,1.07,0.9,1.93,2.02,1.93c1.11,0,2.02-0.86,2.02-1.93 C41.73,50.02,40.82,49.15,39.71,49.15"/>
<path d="M35.36,53.53l-0.47,1.29c-0.13,0.36-0.11,0.76,0.06,1.1c0.17,0.35,0.47,0.61,0.83,0.73 c3.77,1.26,14.16,4.74,17.85,5.98c0.74,0.25,1.54-0.14,1.8-0.86l0.49-1.32L35.36,53.53"/>
</g>
</g></g>
</g>
<g id="BicepsDecals" mask="url(#BicepsMask)">
</g>
<path id="Vest" d="M85,20.92c8.5-0.01,15.43-4.3,15.63-8.01l0.15,0.02l18.38,5.42l13.31,23.94l-2.86,1.16l-13.42-8.6 l-2.31,3.72l-1.54,47.4c0,0-8.72,4.71-13.53,5.35c-3.44,0.45-8.63,0.68-13.79,0.67c-5.16,0.01-10.35-0.22-13.79-0.67 c-4.81-0.63-13.53-5.35-13.53-5.35l-1.54-47.4l-2.31-3.72l-13.42,8.6l-2.86-1.16l13.31-23.94l18.38-5.42l0.15-0.02 C69.57,16.62,76.5,20.92,85,20.92" fill="rgb(34, 34, 34)"/>
<g id="SuitDecals" mask="url(#SuitMask)">
</g>
<g class="swappable" id="Chest"><g id="Chest_Galaxy">
<g id="Abdomen_Galaxy">
<path id="Abdomen-Plate_Galaxy" d="M78.03,73.41l-2.08,1.5l-10.56-1.5l-0.77-5.8l5-0.1l3.03-4.92l1.37-4.53 l10.95-9.96L85,48.11l0.02-0.02l10.95,9.96l1.37,4.53l3.03,4.92l5,0.1l-0.77,5.8l-10.56,1.5l-2.08-1.5H78.03z" fill="rgb(112, 112, 112)"/>
<path id="Trauma-Plate_Abdomen_Galaxy" class="toggle" style="display:none" d="M84.98,50.38l-9.46,8.61l-1.3,4.29l-3.63,5.89l-4.03,0.08 l0.35,2.66l8.6,1.22l1.97-1.42h15.04l1.97,1.42l8.6-1.22l0.35-2.66l-4.03-0.08l-3.63-5.89l-1.3-4.29l-9.46-8.61L85,50.4 L84.98,50.38z" fill="rgb(255, 255, 255)"/>
</g>
<g id="Full-Chest_Galaxy">
<path id="Chest-Plate_Galaxy" d="M80.61,33.64l-0.02,10.15l3.21,3.22L72.55,57.6l-1.46,4.89l-2.38,3.9h-4.12 l-2-2.9l-2.55-14.21l-3.73-5.81l4.73-15.2l5.46-0.69l0.77-3.36l5.84-0.71l1.85,3h20.1l1.85-3l5.84,0.71l0.77,3.36l5.46,0.69 l4.73,15.2l-3.73,5.81l-2.55,14.21l-2,2.9h-4.12l-2.38-3.9l-1.46-4.89l-11.25-10.6l3.21-3.22l-0.02-10.15L85,30.24L80.61,33.64z" fill="rgb(112, 112, 112)"/>
<path id="Trauma-Plating_Left-Chest_Galaxy" class="toggle" style="display:none" d="M96,28.19H85.12l5.97,4.62l0.02,11.67l-2.48,2.49 l10.31,9.72l1.53,5.11l1.77,2.9h2.27l1.29-1.87l2.54-14.19l3.49-5.43l-4.17-13.42l-5.55-0.7l-0.77-3.36l-3.57-0.43L96,28.19z" fill="rgb(255, 255, 255)"/>
<path id="Trauma-Plating_Right-Chest_Galaxy" class="toggle" style="display:none" d="M72.23,25.31l-3.57,0.43l-0.77,3.36l-5.55,0.7 l-4.17,13.42l3.49,5.43l2.54,14.19l1.29,1.87h2.27l1.77-2.9l1.53-5.11l10.31-9.72l-2.48-2.49l0.02-11.67l5.97-4.62H74 L72.23,25.31z" fill="rgb(255, 255, 255)"/>
<g id="Accents_Chest-Plate_Galaxy" class="toggle" fill="rgb(184, 108, 0)">
<rect x="96.12" y="31.44" width="9.25" height="1.22"/>
<rect x="96.12" y="33.6" width="9.25" height="1.22"/>
</g>
</g>
<g id="Iron-Heart_Galaxy">
<path id="Heart_Galaxy" d="M82.3,43.49v-9.13l2.7-2.1l2.7,2.1v9.13L85,46.2L82.3,43.49z" fill="rgb(78, 136, 208)"/>
<g id="None_Heart_Galaxy" class="option" style="display: inherit;">
</g></g>
<g id="Neck-Armor_Galaxy">
<g id="Neck-Plate_Galaxy" fill="rgb(112, 112, 112)">
<path d="M82.75,25.51l-7.39,0.12l-1.82-2.97l-7.05,0.84l-0.7,3.07l-4.52,0.56l-3.33-11.42l11.55-3.44 c0,0,1.53,2.58,2.64,3.49c1.14,0.93,2.66,2.02,4.08,2.64c1.56,0.68,3.46,1.13,5.27,1.42c0.19,0.03,0.38,0.06,0.59,0.08 L82.75,25.51z"/>
<path d="M87.25,25.51l7.39,0.12l1.82-2.97l7.05,0.84l0.7,3.07l4.52,0.56l3.33-11.42l-11.55-3.44 c0,0-1.53,2.58-2.64,3.49c-1.14,0.93-2.66,2.02-4.08,2.64c-1.56,0.68-3.46,1.13-5.27,1.42c-0.19,0.03-0.38,0.06-0.59,0.08 L87.25,25.51z"/>
</g>
<g id="Trauma-Plates_Neck_Galaxy" class="toggle" style="display:none" fill="rgb(255, 255, 255)"/>
</g>
</g></g>
<g id="ChestDecals" mask="url(#ChestMask)">
</g>
<g id="Chest-Attachments"><g id="No-Device_Accessories_Chest" class="option" style="display: inherit;">
</g>
</g>
<g id="Collar"><g id="None_Collar" class="option" style="display: inherit;">
</g>
</g>
<g id="CollarDecals" mask="url(#CollarMask)">
</g>
<g id="Helmets" class="swappable" transform="translate(45,-52)"><g id="Helmet_RC">
<g id="Left-Earcap_RC" class="toggle"><g id="Ear-Cap_Left_RC" fill="rgb(112, 112, 112)">
<path d="M56.6,29l0.72,0.79v9.87l-0.72,0.79V29z"/>
<path d="M57.31,30.21L57.31,30.21c0.15,0,0.29,0.06,0.4,0.16c0.11,0.11,0.16,0.25,0.16,0.4c0,1.5,0,5.56,0,7.05 c0,0.15-0.06,0.29-0.16,0.4c-0.11,0.11-0.25,0.16-0.4,0.16l0,0V30.21z"/>
<path d="M57.87,31.48L57.87,31.48c0.09,0,0.17,0.03,0.23,0.09c0.06,0.06,0.1,0.14,0.1,0.23v4.99 c0,0.09-0.03,0.17-0.1,0.23c-0.06,0.06-0.14,0.1-0.23,0.1l0,0V31.48z"/>
</g>
</g>
<g id="Right-Earcap_RC" class="toggle"><g id="Range-Finder_Right_RC" class="option" style="display: inherit;">
<path id="Shaft_Right_Range-Finder_RC" d="M22.49,8.37l1.08,0.02l-0.38,26.9l-1.1,0.05L22.49,8.37z" fill="rgb(112, 112, 112)"/>
<path id="Finder_Right_Range-Finder_RC" d="M30.71,5.82l-5.95,0.27l0.2-0.75l6.92-0.97L30.71,5.82" fill="rgb(112, 112, 112)"/>
<g id="Cover_Right_Range-Finder_RC" fill="rgb(112, 112, 112)">
<path d="M21.59,7.28l2.84,0.05l0.54-1.99l7.44-1.04l0.11-0.77l-10.69,0.1l-0.98,1.36L21.59,7.28"/>
<path d="M22.35,7.29l1.41,0.03l-0.02,1.07l-1.41-0.03L22.35,7.29"/>
</g>
</g>
<g id="Ear-Cap_Right_RC" fill="rgb(112, 112, 112)">
<path d="M23.4,29l-0.72,0.79v9.87l0.72,0.79V29z"/>
<path d="M22.69,30.21L22.69,30.21c-0.15,0-0.29,0.06-0.4,0.16c-0.11,0.11-0.17,0.25-0.17,0.4c0,1.5,0,5.56,0,7.05 c0,0.15,0.06,0.29,0.17,0.4c0.1,0.11,0.25,0.16,0.4,0.16l0,0V30.21z"/>
<path d="M22.13,31.48L22.13,31.48c-0.09,0-0.17,0.03-0.23,0.09c-0.06,0.06-0.09,0.14-0.09,0.23v4.99 c0,0.09,0.03,0.17,0.09,0.23c0.06,0.06,0.14,0.1,0.23,0.1l0,0V31.48z"/>
</g>
</g>
<g id="Helmet_Pieces_RC">
<g id="Sides_RC" fill="rgb(78, 136, 208)">
<path d="M22.48,49.1l-0.54-4.81l1.41-16.06h0.5l0.05,4.66l0.39,0.01l-0.45,10.76l2.64,3.46L22.48,49.1z"/>
<path d="M23.29,28.91h-0.53l-0.38,10.32L23.29,28.91z"/>
<path d="M57.54,49.1l0.54-4.81l-1.41-16.06h-0.5l-0.05,4.66l-0.39,0.01l0.45,10.76l-2.64,3.46L57.54,49.1z"/>
<path d="M56.72,28.91h0.53l0.38,10.32L56.72,28.91z"/>
</g>
<g id="Mouth-4_RC" fill="rgb(112, 112, 112)">
<path d="M37.55,55.14l-1.43,8.07c-3.11-0.17-5.96-1.19-8.45-3.36l3.53-0.72L37.55,55.14z"/>
<path d="M36.11,66.29c-3.55-0.14-6.49-1.02-8.45-3.08v-3.36c2.49,2.17,5.34,3.19,8.45,3.36V66.29z"/>
<path d="M42.47,55.14l1.43,8.07c3.11-0.17,5.96-1.19,8.45-3.36l-3.53-0.72L42.47,55.14z"/>
<path d="M43.91,66.29c3.55-0.14,6.49-1.02,8.45-3.08v-3.36c-2.49,2.17-5.34,3.19-8.45,3.36V66.29z"/>
</g>
<g id="Mouth-3_RC" fill="rgb(112, 112, 112)">
<path d="M39.21,61.08c-1.66,0-3.05,1.13-3.09,2.37v0.11c0-0.04,0-0.07,0-0.11V63.2l1.52-8.7h4.75l1.52,8.7v0.25 c0,0.04,0,0.07,0,0.11v-0.11c-0.04-1.23-1.43-2.37-3.09-2.37H39.21z"/>
<path d="M39.98,62.59c-1.21,0-2.22,0.4-2.19,1.69c0.02,0.82,0.02,1.99,0.01,2.91h-1.69c0,0,0.05-2.12,0-3.63 c-0.04-1.27,1.38-2.47,3.09-2.47h1.61c1.71,0,3.13,1.2,3.09,2.47c-0.05,1.51,0,3.63,0,3.63h-1.69c-0.01-0.91-0.01-2.08,0.01-2.91 c0.03-1.29-0.98-1.69-2.19-1.69H39.98z"/>
<path d="M37.8,66.29c0-0.7,0-1.43-0.01-2c-0.03-1.29,0.98-1.69,2.19-1.69h0.06c1.21,0,2.22,0.4,2.19,1.69 c-0.01,0.57-0.02,1.3-0.01,2H37.8z"/>
</g>
<g id="Mouth-2_RC" fill="rgb(184, 108, 0)">
<rect x="38.54" y="63.27" width="2.95" height="3.5"/>
<rect x="38.54" y="63.61" width="2.95" height="3.16"/>
<rect x="38.69" y="63.77" width="2.64" height="2.84"/>
<path d="M38.93,63.77v2.84"/>
<path d="M38.69,63.77v2.84"/>
<path d="M41.33,63.77v2.84"/>
<path d="M39.17,63.77v2.84"/>
<path d="M39.41,63.77v2.84"/>
<path d="M39.65,63.77v2.84"/>
<path d="M39.89,63.77v2.84"/>
<path d="M40.13,63.77v2.84"/>
<path d="M41.09,63.77v2.84"/>
<path d="M40.85,63.77v2.84"/>
<path d="M40.61,63.77v2.84"/>
<path d="M40.37,63.77v2.84"/>
</g>
<g id="Mouth-1_RC" fill="rgb(184, 108, 0)">
<path d="M29.1,62.07c0.5-0.39,1.32-0.18,1.83,0.47c0.51,0.65,0.51,1.5,0.01,1.89c-0.5,0.39-1.32,0.18-1.83-0.47 C28.6,63.31,28.59,62.46,29.1,62.07z"/>
<path d="M29.42,62.27c0.43-0.34,1.13-0.18,1.55,0.37c0.42,0.54,0.41,1.26-0.02,1.6c-0.43,0.34-1.13,0.17-1.55-0.37 C28.98,63.32,28.99,62.61,29.42,62.27z"/>
<path d="M50.92,62.07c-0.5-0.39-1.32-0.18-1.83,0.47c-0.51,0.65-0.51,1.5-0.01,1.89s1.32,0.18,1.83-0.47 C51.42,63.31,51.43,62.46,50.92,62.07z"/>
<path d="M50.6,62.27c-0.43-0.34-1.13-0.18-1.55,0.37s-0.41,1.26,0.02,1.6c0.44,0.34,1.13,0.17,1.55-0.37 C51.04,63.32,51.03,62.61,50.6,62.27z"/>
</g>
<g id="Face-3_RC" fill="rgb(112, 112, 112)">
<path d="M27.66,59.85v3.36l-0.41-0.26v-3.62L27.66,59.85z"/>
<path d="M26.49,47.11l-4,1.98c0.55,2.27,1.38,4.44,2.41,6.56l4.01-1.63L26.49,47.11z"/>
<path d="M31.67,56.54l-4.45,2.74c-0.99-1.06-1.75-2.28-2.32-3.62l4.01-1.63l2.92,0.27v0.01 C31.88,55.58,31.69,56.44,31.67,56.54z"/>
<path d="M23.53,52.49c0.4,1.07,0.86,2.13,1.36,3.17c0.58,1.34,1.33,2.56,2.32,3.62l0.04,3.67 c0,0-1.02-1.79-1.56-3.03C25.15,58.67,23.53,52.49,23.53,52.49L23.53,52.49z"/>
<path d="M52.36,59.85v3.36l0.41-0.26v-3.62L52.36,59.85z"/>
<path d="M53.53,47.11l4,1.98c-0.55,2.27-1.38,4.44-2.41,6.56l-4.01-1.63L53.53,47.11z"/>
<path d="M48.35,56.54l4.45,2.74c0.99-1.06,1.74-2.28,2.32-3.62l-4.01-1.63L48.2,54.3v0.01 C48.14,55.58,48.33,56.44,48.35,56.54z"/>
<path d="M56.49,52.49c-0.4,1.07-0.86,2.13-1.36,3.17c-0.58,1.34-1.33,2.56-2.32,3.62l-0.04,3.67 c0,0,1.01-1.79,1.56-3.03C54.88,58.67,56.49,52.49,56.49,52.49L56.49,52.49z"/>
</g>
<g id="Face-2_RC" fill="rgb(112, 112, 112)">
<path d="M26.49,47.11c0.14-0.01,2.33-0.16,3.84,2.35c1.04,1.73,1.39,3.41,1.48,4.7l0.01,0.13v0l-2.92-0.27 L26.49,47.11L26.49,47.11z"/>
<path d="M53.53,47.11c-0.14-0.01-2.33-0.16-3.84,2.35c-1.04,1.73-1.39,3.41-1.48,4.7L48.2,54.3v0l2.92-0.27 L53.53,47.11L53.53,47.11z"/>
</g>
<g id="Face-1_RC" fill="rgb(112, 112, 112)">
<path d="M26.33,49.18c0.16-0.08,0.26-0.21,0.22-0.29c-0.04-0.08-0.2-0.08-0.36,0l-2.46,1.22 c-0.16,0.08-0.26,0.21-0.23,0.29c0.04,0.08,0.2,0.08,0.36-0.01L26.33,49.18z"/>
<path d="M26.09,48.68c0.16-0.08,0.26-0.21,0.23-0.29c-0.04-0.08-0.2-0.08-0.36,0l-2.46,1.22 c-0.16,0.08-0.26,0.21-0.22,0.29c0.04,0.08,0.2,0.08,0.36-0.01L26.09,48.68z"/>
<path d="M25.84,48.19c0.16-0.08,0.26-0.21,0.22-0.29c-0.04-0.08-0.2-0.08-0.36,0l-2.46,1.22 c-0.16,0.08-0.26,0.21-0.22,0.29c0.04,0.08,0.2,0.08,0.36,0L25.84,48.19z"/>
<path d="M23.5,45.7c0.99-0.51,2.19,1.81,2.19,1.81l-2.32,1.15C23.37,48.66,22.57,46.18,23.5,45.7z"/>
<path d="M53.69,49.18c-0.16-0.08-0.26-0.21-0.22-0.29c0.04-0.08,0.2-0.08,0.36,0l2.46,1.22 c0.16,0.08,0.26,0.21,0.23,0.29c-0.04,0.08-0.2,0.08-0.37-0.01L53.69,49.18z"/>
<path d="M53.93,48.68c-0.16-0.08-0.26-0.21-0.22-0.29c0.04-0.08,0.2-0.08,0.37,0l2.46,1.22 c0.16,0.08,0.26,0.21,0.22,0.29c-0.04,0.08-0.2,0.08-0.37-0.01L53.93,48.68z"/>
<path d="M54.18,48.19c-0.16-0.08-0.26-0.21-0.22-0.29c0.04-0.08,0.2-0.08,0.36,0l2.46,1.22 c0.16,0.08,0.26,0.21,0.22,0.29c-0.04,0.08-0.2,0.08-0.36,0L54.18,48.19z"/>
<path d="M56.52,45.7c-0.99-0.51-2.19,1.81-2.19,1.81l2.32,1.15C56.65,48.66,57.45,46.18,56.52,45.7z"/>
</g>
<g id="Cheeks_RC" fill="rgb(112, 112, 112)">
<path d="M31.67,56.54c0.05-0.2,0.8-3.54-1.33-7.07c-1.56-2.59-3.85-2.35-3.85-2.35l-2.64-3.46l0.01,0 c0.2,0.02,3.5,0.47,6.26,4.01c2.86,3.65,1.54,8.88,1.54,8.88L31.67,56.54z"/>
<path d="M48.35,56.54c-0.05-0.2-0.8-3.54,1.33-7.07c1.56-2.59,3.85-2.35,3.85-2.35l2.64-3.46l-0.01,0 c-0.2,0.02-3.5,0.47-6.26,4.01c-2.86,3.65-1.54,8.88-1.54,8.88L48.35,56.54z"/>
</g>
<path fill="rgb(0, 145, 244)" id="Visor-2_RC" d="M37.63,54.5l-0.09,0.64l-6.36,3.99l-3.53,0.72l-0.45-0.57l4.45-2.73l6.54-4.62l1.8,0.01 l1.81-0.01l6.54,4.62l4.45,2.73l-0.45,0.57l-3.53-0.72l-6.36-3.99l-0.09-0.64H37.63z"/>
<path fill="rgb(0, 145, 244)" id="Visor-1_RC" d="M38.21,51.93l-1.62-11.65l-9.32-1.93c-0.57-0.19-1.12-0.63-1.14-1.08l0.08-1.61 c0.04-0.45,0.82-0.75,1.16-0.75h25.28c0.34,0,1.12,0.3,1.16,0.75l0.08,1.61c-0.01,0.45-0.57,0.9-1.14,1.08l-9.32,1.93l-1.62,11.65 H38.21z"/>
<g id="Eyes_RC" fill="rgb(112, 112, 112)">
<path d="M27.37,34.9c-0.34,0-1.12,0.3-1.16,0.75l-0.08,1.61c0.02,0.51,0.72,1.01,1.36,1.14l-1.23-0.25 c-0.51-0.11-0.87-0.58-0.84-1.1c0.03-0.44,0.07-0.97,0.09-1.39c0.03-0.43,0.38-0.76,0.81-0.76H27.37z"/>
<path d="M52.65,34.9c0.34,0,1.12,0.3,1.16,0.75l0.08,1.61c-0.02,0.51-0.72,1.01-1.36,1.14l1.22-0.25 c0.51-0.11,0.87-0.58,0.84-1.1c-0.03-0.44-0.07-0.97-0.09-1.39c-0.03-0.43-0.38-0.76-0.81-0.76H52.65z"/>
<g>
<path d="M51.1,32.9h4.62l0.45,10.76c0,0-3.42,0.35-6.28,4.01c-2.86,3.65-1.54,8.88-1.54,8.88l-6.54-4.62 l1.62-11.65c0,0,7.66-1.58,10.33-2.12c0.51-0.11,0.87-0.58,0.84-1.1c-0.03-0.44-0.07-0.97-0.09-1.39 c-0.03-0.43-0.38-0.76-0.81-0.76H26.33c-0.43,0-0.78,0.33-0.81,0.76c-0.03,0.42-0.06,0.95-0.09,1.39 c-0.03,0.52,0.32,0.99,0.84,1.1c2.66,0.55,10.33,2.12,10.33,2.12l1.62,11.65l-6.54,4.62c0,0,1.32-5.23-1.54-8.88 c-2.86-3.65-6.27-4.01-6.27-4.01L24.3,32.9h4.62l0.79,1.12h20.62L51.1,32.9z"/>
</g>
</g>
<g id="Brow_RC" fill="rgb(112, 112, 112)">
<path d="M29.7,34.02l-0.79-1.13l0.64-1.11l10.46,0.03l10.46-0.03l0.64,1.11l-0.79,1.13H29.7z"/>
<ellipse cx="40.02" cy="32.9" rx="0.56" ry="0.56"/>
<ellipse cx="31.37" cy="32.9" rx="0.56" ry="0.56"/>
<ellipse cx="48.65" cy="32.9" rx="0.56" ry="0.56"/>
</g>
<g id="Dome-2_RC" fill="rgb(78, 136, 208)">
<path d="M27.9,30.27v2.62h-3.99c0,0-0.12-3.47-0.03-5.45c0.03-0.7,0.35-1.66,0.98-2.71L27.9,30.27z"/>
<path d="M28.42,30.14v2.75H27.9v-2.62L25,24.99l0.31-0.5L28.42,30.14z"/>
<path d="M52.12,30.27v2.62h3.99c0,0,0.12-3.47,0.03-5.45c-0.03-0.7-0.35-1.66-0.98-2.71L52.12,30.27z"/>
<path d="M51.6,30.14v2.75h0.52v-2.62l2.9-5.28l-0.31-0.5L51.6,30.14z"/>
</g>
<g id="Dome-1_RC" fill="rgb(112, 112, 112)">
<path d="M28.91,32.89h-0.49v-2.75l-3.25-5.91c2.13-3.2,6.95-6.99,14.82-7h0.03c7.87,0.01,12.69,3.8,14.82,7 l-3.25,5.91v2.75h-0.49l-0.64-1.11l-10.46,0.03l-10.46-0.03L28.91,32.89z"/>
<path d="M30.8,29.24c0.02-0.13-0.07-0.26-0.2-0.28c-0.13-0.02-0.26,0.07-0.28,0.2l-0.3,2.01 c-0.02,0.13,0.07,0.26,0.2,0.28c0.13,0.02,0.26-0.07,0.28-0.21L30.8,29.24z"/>
<path d="M49.22,29.24c-0.02-0.13,0.07-0.26,0.21-0.28c0.13-0.02,0.26,0.07,0.28,0.2l0.3,2.01 c0.02,0.13-0.07,0.26-0.21,0.28c-0.13,0.02-0.26-0.07-0.28-0.21L49.22,29.24z"/>
<path d="M37.08,31.8c-0.01-0.04-0.01-0.08-0.01-0.12c0-0.31,0.25-0.56,0.56-0.56c0.31,0,0.56,0.25,0.56,0.56 c0,0.04,0,0.09-0.01,0.13L37.08,31.8z"/>
<path d="M42.94,31.8c0.01-0.04,0.01-0.08,0.01-0.12c0-0.31-0.25-0.56-0.56-0.56c-0.31,0-0.56,0.25-0.56,0.56 c0,0.04,0,0.09,0.01,0.13L42.94,31.8z"/>
</g>
</g>
</g></g>
<g id="HelmetsDecals" mask="url(#HelmetsMask)"/>
<g id="Shoulders">
<g id="Left-Shoulder"><g id="Classic_Shoulder_Left" class="option" style="display: inherit;">
<path id="Main_Shoulder_Classic_Left" d="M117.21,13.84l-2.52,11.33l2.02,6.52l13.49,6.79l2.27-3.46L117.21,13.84z " fill="rgb(112, 112, 112)"/>
<path id="Trauma-Plates_Shoulder_Classic_Left" class="toggle" style="display:none" d="M116.44,25.1l1.67,5.41l11.49,5.78l1.94-2.96 l-12.93-17.99L116.44,25.1z" fill="rgb(255, 255, 255)"/>
</g>
</g>
<g id="Right-Shoulder"><g id="Classic_Shoulder_Right" class="option" style="display: inherit;">
<path id="Main_Shoulder_Classic_Right" d="M52.79,13.84l2.52,11.33l-2.02,6.52l-13.49,6.79l-2.27-3.46L52.79,13.84 z" fill="rgb(112, 112, 112)"/>
<path id="Trauma-Plates_Shoulder_Classic_Right" class="toggle" style="display:none" d="M53.56,25.1l-1.67,5.41L40.4,36.29l-1.94-2.96 l12.93-17.99L53.56,25.1z" fill="rgb(255, 255, 255)"/>
</g>
</g>
</g>
<g id="ShouldersDecals" mask="url(#ShouldersMask)">
</g>
<g id="Gauntlets">
<g id="Left-Gauntlets"><g id="Gunslinger_Gauntlet_Left" class="option" style="display: inherit;">
<g id="Accent-Top_Gunslinger_Gauntlet_Left" fill="rgb(78, 136, 208)">
<path d="M139.9,80.56l0.62,5.62l-2.85,0.79l-0.66-5.33L139.9,80.56z"/>
<path d="M138.55,101.39l0.57,2.87l-2.51,0.54l-0.6-2.86L138.55,101.39z"/>
</g>
<path id="Top_Gunslinger_Gauntlet_Left" d="M139.9,80.56l1.3-0.49l2.29,26.33l-6.27,1.32l-0.85-4.08l0.24,1.15 l2.51-0.54l-0.57-2.87l-2.54,0.54l-3.85-18.47L139.9,80.56l-2.89,1.08l0.66,5.33l2.85-0.79L139.9,80.56z" fill="rgb(112, 112, 112)"/>
<g id="Accent-Bottom_Gunslinger_Gauntlet_Left" fill="rgb(78, 136, 208)">
<path d="M128.55,91.98l-0.74-2.3l-1.62,0.52l0.74,2.3L128.55,91.98z"/>
<path d="M129.4,94.59l-0.74-2.3l-1.62,0.52l0.74,2.3L129.4,94.59z"/>
<path d="M136.01,101.93l-5.61,1.2l0.9,2.8l5.3-1.13L136.01,101.93z"/>
</g>
<path id="Bottom_Gunslinger_Gauntlet_Left" d="M136.52,104.38l-0.51-2.45l-5.61,1.2l0.9,2.8l5.3-1.13l0.61,2.93 c0,0-1.97,0.34-3.45,0.6c-0.92,0.16-1.82-0.38-2.11-1.26c-1.57-4.84-6.31-19.4-6.31-19.4l6.89-3.82L136.52,104.38z M129.4,94.59 l-0.74-2.3l-1.62,0.52l0.74,2.3L129.4,94.59z M128.55,91.98l-0.74-2.3l-1.62,0.52l0.74,2.3L128.55,91.98z" fill="rgb(112, 112, 112)"/><g id="No-Device_Attachment_Gunslinger_Gauntlet_Left" class="option" style="display: inherit;">
</g>
</g></g>
<g id="Right-Gauntlets"><g id="Gunslinger_Gauntlet_Right" class="option" style="display: inherit;">
<g id="Accent-Top_Gunslinger_Gauntlet_Right" fill="rgb(78, 136, 208)">
<path d="M30.21,80.56l-0.62,5.62l2.85,0.79l0.66-5.33L30.21,80.56z"/>
<path d="M31.56,101.39l-0.57,2.87l2.51,0.54l0.6-2.86L31.56,101.39z"/>
</g>
<path id="Top_Gunslinger_Gauntlet_Right" d="M30.21,80.56l-1.3-0.49l-2.29,26.33l6.27,1.32l0.85-4.08l-0.24,1.15 l-2.51-0.54l0.57-2.87l2.54,0.54l3.85-18.47L30.21,80.56l2.89,1.08l-0.66,5.33l-2.85-0.79L30.21,80.56z" fill="rgb(112, 112, 112)"/>
<g id="Accent-Bottom_Gunslinger_Gauntlet_Right" fill="rgb(78, 136, 208)">
<path d="M41.56,91.98l0.74-2.3l1.62,0.52l-0.74,2.3L41.56,91.98z"/>
<path d="M40.71,94.59l0.74-2.3l1.62,0.52l-0.74,2.3L40.71,94.59z"/>
<path d="M34.1,101.93l5.61,1.2l-0.9,2.8l-5.3-1.13L34.1,101.93z"/>
</g>
<path id="Bottom_Gunslinger_Gauntlet_Right" d="M33.59,104.38l0.51-2.45l5.61,1.2l-0.9,2.8l-5.3-1.13l-0.61,2.93 c0,0,1.97,0.34,3.45,0.6c0.92,0.16,1.82-0.38,2.11-1.26c1.57-4.84,6.31-19.4,6.31-19.4l-6.89-3.82L33.59,104.38z M40.71,94.59 l0.74-2.3l1.62,0.52l-0.74,2.3L40.71,94.59z M41.56,91.98l0.74-2.3l1.62,0.52l-0.74,2.3L41.56,91.98z" fill="rgb(112, 112, 112)"/><g id="No-Device_Attachment_Gunslinger_Gauntlet_Right" class="option" style="display: inherit;">
</g>
</g></g>
</g>
<g id="GauntletsDecals" mask="url(#GauntletsMask)">
</g>
<g id="Shins">
<g id="Left-Shin"><g id="Basic_Shin_Left" class="option" style="display: inherit;">
<path id="Shin_Basic-Shin_Left" d="M121.62,179.69l-5.07-5.47l-10.06,1.36l-3.67,8.71l6.88,29.05 c4.47,1.82,10.9,0.87,14.37-2.3L121.62,179.69" fill="rgb(112, 112, 112)"/>
<path id="Trauma-Plating_Basic-Shin_Left" class="toggle" style="display:none" d="M122.31,210.31l-2.33-29.91l-4.07-4.4l-8.22,1.11 l-3.08,7.32l6.54,27.63C114.73,213.18,119.4,212.5,122.31,210.31" fill="rgb(255, 255, 255)"/>
<g id="Ridge_Basic-Shin_Left" class="toggle" style="display:none" fill="rgb(255, 255, 255)"/>
</g>
</g>
<g id="Right-Shin"><g id="Basic_Shin_Right" class="option" style="display: inherit;">
<path id="Shin_Basic-Shin_Right" d="M48.3,179.69l5.07-5.47l10.06,1.36l3.67,8.71l-6.88,29.05 c-4.47,1.82-10.9,0.87-14.36-2.3L48.3,179.69" fill="rgb(112, 112, 112)"/>
<path id="Trauma-Plating_Basic-Shin_Right" class="toggle" style="display:none" d="M47.62,210.31l2.33-29.91l4.07-4.4l8.22,1.11l3.08,7.32 l-6.54,27.63C55.2,213.18,50.53,212.5,47.62,210.31" fill="rgb(255, 255, 255)"/>
<g id="Ridge_Basic-Shin_Right" class="toggle" style="display:none" fill="rgb(255, 255, 255)"/>
</g>
</g>
</g>
<g id="ShinsDecals" mask="url(#ShinsMask)">
</g>
<g id="Foot">
<g id="Left-Ankle"><g id="Heavy_Ankle_Left" class="option" style="display: inherit;">
<path id="Plate_Heavy-Ankle_Left" d="M107.19,218.98l0.36,3.6l7.43,9.26l7.24-3.25l7.88-2.03l-5.95-10.52 c-3.01-0.42-6.51-0.06-10.55,1.15l-2.25,1.97L107.19,218.98" fill="rgb(112, 112, 112)"/>
<path id="Trim_Heavy-Ankle_Left" d="M113.6,217.2l0.85,1.02l-2.65,2.25l-3-0.13l0.11,1.46l6.44,7.92l6.46-3.01 l7.78-1.84l0.81,1.62l-8.16,2.1l-7.24,3.25l-7.43-9.26l-0.36-3.6l4.16,0.18L113.6,217.2" fill="rgb(78, 136, 208)"/>
</g></g>
<g id="Left-Toe"><g id="None_Toe_Left" class="option" style="display: inherit;">
</g>
</g>
<g id="Right-Ankle"><g id="Heavy_Ankle_Right" class="option" style="display: inherit;">
<path id="Plate_Heavy-Ankle_Right" d="M62.68,218.98l-0.36,3.6l-7.43,9.26l-7.24-3.25l-7.88-2.03l5.95-10.52 c3-0.42,6.51-0.06,10.55,1.15l2.25,1.97L62.68,218.98" fill="rgb(112, 112, 112)"/>
<path id="Trim_Heavy-Ankle_Right" d="M56.27,217.2l-0.85,1.02l2.65,2.25l3.01-0.13l-0.11,1.46l-6.44,7.92 l-6.46-3.01l-7.78-1.84l-0.81,1.62l8.16,2.1l7.24,3.25l7.43-9.26l0.36-3.6l-4.16,0.18L56.27,217.2" fill="rgb(78, 136, 208)"/>
</g></g>
<g id="Right-Toe"><g id="None_Toe_Right" class="option" style="display: inherit;">
</g>
</g>
</g>
<g id="FootDecals" mask="url(#FootMask)">
</g>
<g id="Knees">
<g id="Left-Knee"><g id="Heavy_Knee_Left" class="option" style="display: inherit;">
<g id="Missiles_Heavy-Knee_Left" class="toggle" style="display:none"/>
<path id="Plate-2_Heavy-Knee_Left" d="M116.81,155.76l-2.86-1.72l-14.26,2.44l-2.07,2.56l2.79,14.21l5.62,0.13 l8.01-1.37l5.57-2L116.81,155.76z" fill="rgb(78, 136, 208)"/>
<g id="Plate-1_Heavy-Knee_Left" fill="rgb(112, 112, 112)">
<path d="M116.12,156.54l-2.63-1.66l-13.05,2.23l-1.88,2.44l2.7,13.71l4.78,0.12l8.01-1.37l4.78-1.75L116.12,156.54z "/>
<path d="M111.54,158.46l-8.01,1.37l2.49,13.54l4.15-0.16l3.86-1.21L111.54,158.46z"/>
<path d="M103.54,159.83l-3.1-2.72l-1.88,2.44L103.54,159.83z"/>
<path d="M111.54,158.46l1.94-3.58l2.63,1.66L111.54,158.46z"/>
</g>
<g id="Trim_Heavy-Knee_Left" fill="rgb(184, 108, 0)">
<path d="M97.66,163.92l-0.44,1.08l1.58,8.58l0.62-0.11L97.66,163.92z"/>
<path d="M112.41,167.96l-6.28,1.07l0.62,3.35l6.29-1.08L112.41,167.96z"/>
<path d="M98.28,162.37l-0.88,0.15l2.02,10.95l1.02-0.18l-0.01-0.04l-0.02,0L98.28,162.37z"/>
<path d="M117.66,160.09l1.94,9.91l-0.18,0.06l1.03-0.18l-1.83-9.96L117.66,160.09z"/>
</g>
</g></g>
<g id="Right-Knee"><g id="Heavy_Knee_Right" class="option" style="display: inherit;">
<g id="Missiles_Heavy-Knee_Right" class="toggle" style="display:none"/>
<path id="Plate-2_Heavy-Knee_Right" d="M53.08,155.76l2.86-1.72l14.26,2.44l2.07,2.56l-2.79,14.21l-5.62,0.13 l-8.01-1.37l-5.57-2L53.08,155.76z" fill="rgb(78, 136, 208)"/>
<g id="Plate-1_Heavy-Knee_Right" fill="rgb(112, 112, 112)">
<path d="M53.77,156.54l2.63-1.66l13.05,2.23l1.88,2.44l-2.7,13.71l-4.78,0.12l-8.01-1.37l-4.78-1.75L53.77,156.54z"/>
<path d="M58.35,158.46l8.01,1.37l-2.49,13.54l-4.15-0.16l-3.86-1.21L58.35,158.46z"/>
<path d="M66.35,159.83l3.1-2.72l1.88,2.44L66.35,159.83z"/>
<path d="M58.35,158.46l-1.94-3.58l-2.63,1.66L58.35,158.46z"/>
</g>
<g id="Trim_Heavy-Knee_Right" fill="rgb(184, 108, 0)">
<path d="M72.23,163.92l0.44,1.08l-1.58,8.58l-0.62-0.11L72.23,163.92z"/>
<path d="M57.49,167.96l6.28,1.07l-0.62,3.35l-6.28-1.08L57.49,167.96z"/>
<path d="M71.61,162.37l0.88,0.15l-2.02,10.95l-1.03-0.18l0.01-0.04l0.02,0L71.61,162.37z"/>
<path d="M52.23,160.09L50.28,170l0.18,0.06l-1.03-0.18l1.83-9.96L52.23,160.09z"/>
</g>
</g></g>
</g>
<g id="KneesDecals" mask="url(#KneesMask)">
</g>
<g id="Thighs">
<g id="Left-Thigh"><g id="Basic_Thigh_Left" class="option" style="display: inherit;">
<path id="Thigh_Basic-Thigh_Left" d="M120.21,115.6c0,0-5.03-6.43-7.59-7.49c-2.43-1.01-5.69-0.58-7.78,1.09 c-3.19,2.54-10.51,8.04-11.35,14.16c-0.93,6.83,4.08,21.95,5.78,26.84c0.58,1.66,2.77,2.41,4.44,2.48 c3.1,0.12,11.57-0.15,13.59-4.69C120.05,141.81,120.21,115.6,120.21,115.6" fill="rgb(112, 112, 112)"/>
<path id="Trauma-Plate_Basic-Thigh_Left" class="toggle" style="display:none" d="M118.5,116.19c-0.75-0.93-2.56-3.1-4.3-4.77 c-0.83-0.79-1.62-1.49-2.25-1.75c-1.9-0.79-4.44-0.45-6.06,0.85c-1.85,1.47-5.15,3.97-7.66,7.02c-1.52,1.85-2.77,3.9-3.07,6.05 c-0.9,6.64,4.05,21.31,5.7,26.06c0.14,0.42,0.54,0.67,0.95,0.87c0.61,0.3,1.33,0.45,1.94,0.47c1.73,0.07,5.27,0.02,8.23-0.96 c1.63-0.54,3.12-1.33,3.75-2.73c0.78-1.75,1.3-5.22,1.7-9.2C118.31,129.59,118.47,118.81,118.5,116.19" fill="rgb(255, 255, 255)"/>
<g id="Ridge_Basic-Thigh_Left" class="toggle" style="display:none" fill="rgb(255, 255, 255)"/>
</g>
</g>
<g id="Right-Thigh"><g id="Basic_Thigh_Right" class="option" style="display: inherit;">
<path id="Thigh_Basic-Thigh_Right" d="M49.69,115.6c0,0,5.03-6.43,7.59-7.49c2.43-1.01,5.69-0.58,7.78,1.09 c3.19,2.54,10.51,8.04,11.35,14.16c0.93,6.83-4.08,21.95-5.78,26.84c-0.58,1.66-2.77,2.41-4.44,2.48 c-3.1,0.12-11.57-0.15-13.59-4.69C49.85,141.81,49.69,115.6,49.69,115.6" fill="rgb(112, 112, 112)"/>
<path id="Trauma-Plate_Basic-Thigh_Right" class="toggle" style="display:none" d="M51.39,116.19c0.75-0.93,2.56-3.1,4.3-4.77 c0.83-0.79,1.62-1.49,2.25-1.75c1.9-0.79,4.44-0.45,6.06,0.85c1.85,1.47,5.15,3.97,7.66,7.02c1.52,1.85,2.77,3.9,3.07,6.05 c0.9,6.64-4.05,21.31-5.7,26.06c-0.14,0.42-0.54,0.67-0.95,0.87c-0.61,0.3-1.33,0.45-1.94,0.47c-1.73,0.07-5.27,0.02-8.23-0.96 c-1.63-0.54-3.12-1.33-3.75-2.73c-0.78-1.75-1.3-5.22-1.7-9.2C51.59,129.59,51.42,118.81,51.39,116.19" fill="rgb(255, 255, 255)"/>
<g id="Ridge_Basic-Thigh_Right" class="toggle" style="display:none" fill="rgb(255, 255, 255)"/>
</g>
</g>
</g>
<g id="ThighsDecals" mask="url(#ThighsMask)">
</g>
<g id="Groin">
<g id="None_Groin" class="option" style="display: inherit;">
</g></g>
<g id="GroinDecals" mask="url(#GroinMask)">
</g>
<g id="Waist">
<g id="Accessories_Waist">
<g id="Kama" class="toggle" style="display:none"/>
<g id="Loin-Cloth" class="toggle" style="display:none"/>
<g id="Left-Holster" class="toggle" style="display:none"/>
<g id="Right-Holster" class="toggle" style=""><g id="Belt-Holster_Right" class="option" style="display: inherit;">
<g id="Weapon_Belt-Holster-Right">
<g id="Main_Weapon_Belt-Holster-Right" fill="rgb(87, 87, 87)">
<path d="M53.1,99.11l0.24-3.6l-0.62-0.04l0.15-2.26l0.62,0.04l0.08-1.18c0.03-0.38-0.47-0.73-1.1-0.77 c-1.45-0.1-3.93-0.26-5.37-0.36c-0.63-0.04-1.17,0.23-1.19,0.62l-0.08,1.18l0.62,0.04l-0.15,2.26L45.68,95l-0.24,3.6l1.46,0.1 l-0.67,9.95l4.73,0.31l0.67-9.95L53.1,99.11z"/>
<path d="M46.1,98.11l0.84,0.06l-0.8,11.96l4.73,0.31l0.8-11.96l0.84,0.06l0.18-2.73l-6.41-0.42L46.1,98.11z"/>
<path d="M47.84,91.78l3.8,0.25l-0.25,3.69l-3.8-0.25L47.84,91.78z"/>
<path d="M50.51,99.49l0.62,0.04l-0.63,9.4l-0.62-0.04L50.51,99.49z"/>
<path d="M49.07,97.23l0.62,0.04l-0.63,9.4l-0.62-0.04L49.07,97.23z"/>
<path d="M47.33,99.28l0.62,0.04l-0.63,9.4l-0.62-0.04L47.33,99.28z"/>
</g>
<g id="Accent_Weapon_Belt-Holster-Right" fill="rgb(184, 108, 0)">
<path d="M50.8,96.06l-0.03,0.38l-2.68-0.18l0.02-0.38L50.8,96.06z"/>
<path d="M50.78,96.44l-0.03,0.38l-2.68-0.18l0.03-0.38L50.78,96.44z"/>
<path d="M50.83,95.68l-0.02,0.38l-2.68-0.18l0.03-0.38L50.83,95.68z"/>
<path d="M51.14,91.05l-0.02,0.38l-2.68-0.18l0.03-0.38L51.14,91.05z"/>
<path d="M51.01,91.99l0.62,0.04l-0.25,3.69l-0.62-0.04L51.01,91.99z"/>
<path d="M47.84,91.78l0.62,0.04l-0.25,3.69l-0.62-0.04L47.84,91.78z"/>
<path d="M47.96,99.32l0.94,0.06l-0.63,9.4l-0.94-0.06L47.96,99.32z"/>
<path d="M49.56,99.42l0.94,0.06l-0.63,9.4l-0.94-0.06L49.56,99.42z"/>
</g>
</g>
<path id="Holster_Belt-Holster-Right" d="M51.49,112.89l2.47-14.99l-8.29,10.56l-0.79,20.68 c1.44,1.89,3.04,2.08,4.84,0.36L51.49,112.89z" fill="rgb(34, 34, 34)"/>
</g>
</g>
<g id="Left-Trophy" class="toggle" style="display:none"/>
<g id="Right-Trophy" class="toggle" style="display:none"/>
</g>
<g id="Under-Belt"><g id="Girth-Belt" class="option" fill="rgb(112, 112, 112)" style="display: inherit;">
<path d="M84.93,84.93c-9.33,0-27.98-2.25-27.98-2.25l0.61-1.91c0,0,18.19,1.5,27.37,2.25 c9.13-0.75,27.37-2.25,27.37-2.25l0.6,1.91C112.91,82.68,94.25,84.93,84.93,84.93z"/>
<path d="M84.93,86.84c-9.52,0-28.56-2.25-28.56-2.25l0.58-1.91c0,0,23.31,1.88,27.98,2.25 c4.66-0.38,27.98-2.25,27.98-2.25l0.58,1.91C113.49,84.59,94.45,86.84,84.93,86.84z"/>
<path d="M84.93,88.75c-9.67,0-28.99-2.25-28.99-2.25l0.43-1.91c0,0,23.8,1.88,28.56,2.25 c4.76-0.38,28.56-2.25,28.56-2.25l0.43,1.91C113.92,86.49,94.6,88.75,84.93,88.75z"/>
<path d="M84.93,90.65c-9.79,0-29.36-2.25-29.36-2.25l0.37-1.91c0,0,24.16,1.88,28.99,2.25 c4.83-0.38,28.99-2.25,28.99-2.25l0.37,1.91C114.29,88.4,94.72,90.65,84.93,90.65z"/>
<path d="M84.93,92.56c-9.9,0-29.69-2.25-29.69-2.25l0.33-1.91c0,0,24.47,1.88,29.36,2.25 c4.89-0.38,29.36-2.25,29.36-2.25l0.33,1.91C114.62,90.31,94.83,92.56,84.93,92.56z"/>
<path d="M84.93,94.47c-10,0-30-2.25-30-2.25l0.31-1.91c0,0,24.74,1.88,29.69,2.25c4.95-0.38,29.69-2.25,29.69-2.25 l0.31,1.91C114.93,92.21,94.93,94.47,84.93,94.47z"/>
<path d="M84.93,96.37c-10.1,0-30.31-2.25-30.31-2.25l0.31-1.91c0,0,25,1.88,30,2.25c5-0.38,30-2.25,30-2.25 l0.31,1.91C115.24,94.12,95.03,96.37,84.93,96.37z"/>
<path d="M84.93,98.28c-10.21,0-30.62-2.25-30.62-2.25l0.32-1.91c0,0,25.26,1.88,30.31,2.25 c5.05-0.38,30.31-2.25,30.31-2.25l0.32,1.91C115.55,96.03,95.14,98.28,84.93,98.28z"/>
<path d="M84.93,100.19c-10.32,0-30.97-2.25-30.97-2.25l0.34-1.91c0,0,25.52,1.88,30.62,2.25 c5.1-0.38,30.62-2.25,30.62-2.25l0.35,1.91C115.9,97.93,95.25,100.19,84.93,100.19z"/>
<path d="M84.93,102.09c-10.45,0-31.36-2.25-31.36-2.25l0.39-1.91c0,0,25.81,1.88,30.97,2.25 c5.16-0.38,30.97-2.25,30.97-2.25l0.39,1.91C116.29,99.84,95.38,102.09,84.93,102.09z"/>
</g>
</g>
<g id="Belt"><g id="Pouch-Belt-4" class="option" style="display: inherit;">
<path id="Main_Pouch-Belt-4" d="M115.21,92.95c-6.82,0.61-22.4,2.83-30.27,2.83c-7.94,0-23.52-2.23-30.26-2.82 l1.01-7.93c5.53,0.49,21.56,2.74,29.26,2.74c7.47,0,23.17-2.23,29.07-2.76L115.21,92.95z" fill="rgb(34, 34, 34)"/>
<rect id="Buckle_Pouch-Belt-4" x="79.37" y="87.01" width="11.28" height="9.21" fill="rgb(163, 163, 163)"/>
<g id="Pouches_Pouch-Belt-4" fill="rgb(34, 34, 34)">
<g>
<g>
<path d="M59.65,83.47c-0.31-0.02-0.62,0.03-0.91,0.16c-0.67,0.29-1.86,0.81-1.86,0.81l7.38,0.42l2-0.95 C66.26,83.91,61.24,83.57,59.65,83.47z"/>
<path d="M66.52,84.19c0.01-0.09-0.03-0.17-0.1-0.22c-0.07-0.05-0.17-0.06-0.24-0.02c-0.66,0.31-1.91,0.9-1.91,0.9 l-1.02,12.42c0.65-0.41,1.29-0.68,1.93-0.85c0.39-0.09,0.68-0.44,0.69-0.84C65.99,91.78,66.15,87.98,66.52,84.19z"/>
<path d="M64.26,84.85l-7.38-0.42c-0.06,1.89-0.23,3.77-0.33,5.65c-0.11,2.08-0.16,4.17-0.34,6.28 c-0.01,0.15,0.04,0.3,0.14,0.41s0.25,0.18,0.4,0.17c2.08-0.01,4.15,0.11,6.22,0.36c0.14,0.02,0.29-0.02,0.4-0.12 c0.11-0.09,0.18-0.23,0.19-0.37c0.1-1.47,0.37-5.33,0.37-5.33L64.26,84.85z"/>
<path d="M64.26,84.85l-7.38-0.42c0,0-0.18,1.6-0.36,3.15c-0.09,0.75,0.14,1.51,0.63,2.08 c0.49,0.58,1.2,0.93,1.96,0.97c0.73,0.04,1.51,0.08,2.23,0.13c0.76,0.04,1.51-0.23,2.06-0.75c0.55-0.52,0.87-1.25,0.86-2 C64.26,86.46,64.26,84.85,64.26,84.85z"/>
<path d="M60.31,89.23c0.26,0.01,0.46,0.26,0.44,0.54c-0.02,0.28-0.24,0.5-0.5,0.49 c-0.26-0.01-0.46-0.26-0.44-0.54C59.83,89.44,60.05,89.22,60.31,89.23z"/>
</g>
</g>
<g>
<path d="M52.22,84.29l0.55-0.85l2.83,0.09l0.35,1.06L52.22,84.29z"/>
<path d="M55.93,84.69c0.01-0.07-0.01-0.13-0.06-0.18c-0.04-0.05-0.11-0.08-0.17-0.08 c-0.85-0.03-3.48-0.13-3.48-0.13l-0.5,11.17c0.11,0.28,1.53,0.46,2.68,0.49c0.5,0.01,0.91-0.38,0.92-0.88 C55.4,91.61,55.53,88.14,55.93,84.69z"/>
</g>
<g>
<g>
<path d="M110.24,83.47c0.31-0.02,0.62,0.03,0.91,0.16c0.67,0.29,1.86,0.81,1.86,0.81l-7.38,0.42l-2-0.95 C103.63,83.91,108.65,83.57,110.24,83.47z"/>
<path d="M103.37,84.19c-0.01-0.09,0.03-0.17,0.1-0.22c0.07-0.05,0.17-0.06,0.24-0.02c0.66,0.31,1.91,0.9,1.91,0.9 l1.02,12.42c-0.65-0.41-1.29-0.68-1.93-0.85c-0.39-0.09-0.68-0.44-0.69-0.84C103.9,91.78,103.74,87.98,103.37,84.19z"/>
<path d="M105.63,84.85l7.38-0.42c0.06,1.89,0.23,3.77,0.33,5.65c0.11,2.08,0.16,4.17,0.34,6.28 c0.01,0.15-0.04,0.3-0.14,0.41c-0.1,0.11-0.25,0.18-0.4,0.17c-2.08-0.01-4.15,0.11-6.22,0.36c-0.14,0.02-0.29-0.02-0.4-0.12 c-0.11-0.09-0.18-0.23-0.19-0.37c-0.1-1.47-0.37-5.33-0.37-5.33L105.63,84.85z"/>
<path d="M105.63,84.85l7.38-0.42c0,0,0.18,1.6,0.36,3.15c0.09,0.75-0.14,1.51-0.63,2.08 c-0.49,0.58-1.2,0.93-1.96,0.97c-0.72,0.04-1.5,0.08-2.23,0.13c-0.76,0.04-1.51-0.23-2.06-0.75c-0.55-0.52-0.87-1.25-0.86-2 C105.63,86.46,105.63,84.85,105.63,84.85z"/>
<path d="M109.58,89.23c-0.26,0.01-0.46,0.26-0.44,0.54c0.02,0.28,0.24,0.5,0.5,0.49 c0.26-0.01,0.46-0.26,0.44-0.54C110.07,89.44,109.84,89.22,109.58,89.23z"/>
</g>
</g>
<g>
<path d="M117.67,84.29l-0.55-0.85l-2.83,0.09l-0.35,1.06L117.67,84.29z"/>
<path d="M113.96,84.69c-0.01-0.07,0.01-0.13,0.06-0.18c0.04-0.05,0.11-0.08,0.18-0.08 c0.85-0.03,3.48-0.13,3.48-0.13l0.5,11.17c-0.11,0.28-1.53,0.46-2.68,0.49c-0.5,0.01-0.91-0.38-0.92-0.88 C114.49,91.61,114.36,88.14,113.96,84.69z"/>
</g>
</g>
</g></g>
</g>
<g id="WaistDecals" mask="url(#WaistMask)">
</g>
<g id="Extras_Front">
<g id="Front"><g id="None_Front" class="option" style="display: inherit;">
</g>
</g>
</g>
<g id="Extras-FrontDecals" mask="url(#FrontMask)">
</g>
</g>
</svg>