<?xml version='1.0' encoding='UTF-8'?>
<svg version="1.1" id="Male-Body" xmlns="http://www.w3.org/2000/svg" xmlns:serif="http://www.serif.com/" viewBox="0 -55 170 300" style="stroke-width: 0.2px; fill-rule: evenodd; stroke-linejoin: round;" width="170" height="300">
<style>
mask {
mask-type: alpha;
}
.decal {
stroke: none;
}
</style>
<defs id="Masks" stroke="none">
<mask id="HelmetsMask"> <use href="#Helmets"/> </mask>
<mask id="CollarMask"> <use href="#Collar"/> </mask>
<mask id="ShouldersMask"> <use href="#Shoulders"/> </mask>
<mask id="ChestMask"> <use href="#Chest"/> </mask>
<mask id="BicepsMask"> <use href="#Biceps"/> </mask>
<mask id="GauntletsMask"> <use href="#Gauntlets"/> </mask>
<mask id="WaistMask"> <use href="#Waist"/> </mask>
<mask id="GroinMask"> <use href="#Groin"/> </mask>
<mask id="ThighsMask"> <use href="#Thighs"/> </mask>
<mask id="KneesMask"> <use href="#Knees"/> </mask>
<mask id="ShinsMask"> <use href="#Shins"/> </mask>
<mask id="FootMask"> <use href="#Foot"/> </mask>
</defs>
<defs id="Decals"/><metadata><rdf:rdf xmlns:rdf="http://www.w3.org/1999/02/22-rdf-syntax-ns#" xmlns:rdfs="http://www.w3.org/2000/01/rdf-schema#" xmlns:dc="http://purl.org/dc/elements/1.1/"><rdf:description><dc:creator>MandoCreator</dc:creator><dc:publisher>https://www.mandocreator.com</dc:publisher><dc:description>Your Beskar'gam - created by MandoCreator</dc:description><dc:format>image/svg+xml</dc:format><dc:type>Image</dc:type><dc:title>MandoCreator - Ner Berskar'gam</dc:title><dc:date>2022-01-02T16:20:44.600Z</dc:date></rdf:description></rdf:rdf></metadata><g id="Main-Body" fill="white" stroke="black">
<g id="Extras_Back">
<g id="Back"><g id="NO-CAPES_Back" class="option" style="display: inherit;">
</g>
</g>
</g>
<g id="Extras-BackDecals" mask="url(#BackMask)">
</g>
<g id="Suit">
<g id="Neck-Seal"><g id="Standard-Neck-Seal" class="option" fill="rgb(0, 0, 0)" style="display: inherit;">
<path d="M98.75,7.5c0-0.9-0.93-1.62-2.07-1.62c0,0-7.8,0.85-11.7,0.85s-11.7-0.85-11.7-0.85 c-1.14,0-2.07,0.73-2.07,1.62s0.93,1.62,2.07,1.62c0,0,7.8,0.85,11.7,0.85s11.7-0.85,11.7-0.85C97.83,9.13,98.75,8.4,98.75,7.5z"/>
<path d="M99.45,9.4c0-0.94-0.97-1.71-2.17-1.71c0,0-8.2,0.9-12.29,0.9S72.69,7.7,72.69,7.7 c-1.2,0-2.17,0.76-2.17,1.71s0.97,1.71,2.17,1.71c0,0,8.2,0.9,12.29,0.9s12.29-0.9,12.29-0.9C98.48,11.11,99.45,10.34,99.45,9.4z "/>
<path d="M100.24,11.76c0-0.99-1.03-1.8-2.29-1.8c0,0-8.64,0.95-12.96,0.95S72.02,9.96,72.02,9.96 c-1.26,0-2.29,0.81-2.29,1.8s1.03,1.8,2.29,1.8c0,0,8.64,0.95,12.97,0.95s12.96-0.95,12.96-0.95 C99.21,13.56,100.24,12.75,100.24,11.76z"/>
<path d="M101,13.92c0-1.04-1.08-1.89-2.41-1.89c0,0-9.08,0.99-13.61,0.99s-13.61-0.99-13.61-0.99 c-1.33,0-2.41,0.85-2.41,1.89c0,1.04,1.08,1.89,2.41,1.89c0,0,9.08,0.99,13.61,0.99s13.61-0.99,13.61-0.99 C99.93,15.81,101,14.96,101,13.92z"/>
<path d="M101.76,16.04c0-0.79-1.13-1.43-2.52-1.43c0,0-9.51,0.75-14.26,0.75s-14.26-0.75-14.26-0.75 c-1.39,0-2.52,0.64-2.52,1.43c0,0.79,1.13,1.43,2.52,1.43c0,0,9.51,0.75,14.26,0.75s14.26-0.75,14.26-0.75 C100.63,17.47,101.76,16.83,101.76,16.04z"/>
<path d="M101.76,18.42c0-0.79-1.13-1.43-2.52-1.43c0,0-9.51,0.75-14.26,0.75s-14.26-0.75-14.26-0.75 c-1.39,0-2.52,0.64-2.52,1.43c0,0.79,1.13,1.43,2.52,1.43c0,0,9.51,1.44,14.26,1.44s14.26-1.44,14.26-1.44 C100.63,19.84,101.76,19.21,101.76,18.42z"/>
</g>
</g>
<g id="Flight-Suit" fill="rgb(43, 43, 49)">
<path d="M73.36,158.45l-1.49,8.72l-11.03,53.11c0,0-4.93,2.96-7.47,3.46c-2.53,0.5-7.73-0.44-7.73-0.44l3.85-43 l2.9-18.36l0.66-7.82c0,0-2.53-22.78-1.7-34.14c0.82-11.36,6.66-34.01,6.66-34.01l26.98,0.58l26.97-0.58 c0,0,5.83,22.66,6.66,34.01c0.83,11.36-1.7,34.14-1.7,34.14l0.66,7.82l2.9,18.36l3.85,43c0,0-5.32,1.19-7.85,0.69 c-2.53-0.5-7.34-3.71-7.34-3.71L98.1,167.16l-1.49-8.72l-11.62-30.33L73.36,158.45z"/>
<g>
<path d="M129.41,43.33l11.98,41.65l1.04,21.47l-9.55,1.83l-6.05-20.21l-13.65-33.95l0.69-15.55l2.31-3.72 L129.41,43.33z"/>
<path d="M40.59,43.3l13.19-8.45l2.31,3.72l0.52,16.04L43.17,88.07l-6.05,20.21l-9.55-1.83l1.03-21.47L40.59,43.3z"/>
</g>
</g>
<g id="Sleeves" class="toggle" style="display: none;" fill="rgb(255, 255, 255)"/>
</g>
<g id="Boots">
<g id="Tall_Boots" class="option" style="display: inherit;">
<g id="Bottom_Tall-Boot" fill="rgb(11, 11, 11)">
<path d="M107.62,230.35c0.02,0.13,0.06,0.26,0.1,0.4c0.96,1.77,3.59,2.37,5.38,2.79c1.27,0.3,2.5,0.72,3.7,1.22 c1.66,0.7,2.49,1.93,3.79,3.1c0.58,0.52,1.26,0.93,1.92,1.32c1.65,0.99,3.25,1.07,5.13,1.12c2.52,0.07,4.75-0.27,7.23-0.82 c2.17-0.48,3.79-0.89,5.67-1.42c0.56-0.16,1.25-0.27,1.59-0.69l0.28,0.63l0.21,1.64c0,0-2.03,1.09-4.2,1.57 c-2.16,0.48-6.53,1.15-6.53,1.15l-0.3-0.71l-0.98,0.21l0.05,0.7l-2.38,0.13l-0.51-0.69l-0.79,0.02l0.12,0.61 c0,0-1.47-0.02-2.29-0.51c-0.15-0.23-0.46-0.61-0.46-0.61l-0.56-0.31l0.07,0.58l-2.04-0.73l-0.1-0.79l-0.59-0.34l-0.03,0.57 l-1.46-1.12l-0.16-0.69l-3.14-1.64l-1.07,0.43l-2.55-0.55l-0.08-0.55l-0.65-0.27l-0.45,0.42l-1.71-0.7l-0.04-0.51l-0.56-0.19 l-0.06,0.37l-1.62-1.12L107.62,230.35z M107.56,229.7L107.56,229.7L107.56,229.7L107.56,229.7z"/>
<path d="M62.37,230.35c-0.02,0.13-0.06,0.26-0.1,0.4c-0.97,1.77-3.59,2.37-5.38,2.79c-1.27,0.3-2.5,0.72-3.7,1.22 c-1.66,0.7-2.49,1.93-3.79,3.1c-0.58,0.52-1.26,0.93-1.92,1.32c-1.65,0.99-3.25,1.07-5.13,1.12c-2.52,0.07-4.75-0.27-7.23-0.82 c-2.17-0.48-3.79-0.89-5.67-1.42c-0.56-0.16-1.25-0.27-1.59-0.69l-0.28,0.63l-0.21,1.64c0,0,2.03,1.09,4.2,1.57 c2.16,0.48,6.53,1.15,6.53,1.15l0.3-0.71l0.98,0.21l-0.05,0.7l2.38,0.13l0.51-0.69l0.8,0.02l-0.12,0.61c0,0,1.47-0.02,2.29-0.51 c0.15-0.23,0.46-0.61,0.46-0.61l0.56-0.31l-0.07,0.58l2.04-0.73l0.1-0.79l0.59-0.34l0.02,0.57l1.46-1.12l0.16-0.69l3.14-1.64 l1.07,0.43l2.55-0.55l0.08-0.55l0.65-0.27l0.45,0.42l1.71-0.7l0.04-0.51l0.56-0.19l0.07,0.37l1.62-1.12L62.37,230.35z M62.43,229.7L62.43,229.7L62.43,229.7L62.43,229.7z"/>
</g>
<g id="Main_Tall-Boot" fill="rgb(15, 15, 15)">
<path d="M107.64,216.98c-1.45-4.23-2.54-10.99-3.41-14.07c-0.65-2.31-3.63-14.87-3.14-16.45 c0.5-1.6,19.67-4.86,20.29-3.42c0.94,2.2,2.03,23.99,2.2,27.2c0.12,2.35,0.47,4.66,0.47,7.01l0,0.01 c0.25,1.28,0.46,2.66,0.99,3.81c1.01,2.17,0.97,3.11,2.65,4.75c1.16,1.13,4.16,3.11,5.54,3.97c0.58,0.36,1.21,0.64,1.85,0.88 l0.06,0.02c2.55,0.95,5.3,1.3,6.68,4.11c0.3,0.61,0.56,1.34,0.51,2.04c-0.07,0.89-1.04,1.01-1.79,1.23 c-1.88,0.53-3.5,0.94-5.67,1.42c-2.48,0.55-4.71,0.89-7.23,0.82c-1.88-0.05-3.47-0.13-5.13-1.12c-0.67-0.4-1.35-0.8-1.92-1.32 c-1.29-1.17-2.13-2.4-3.79-3.1c-1.2-0.51-2.43-0.92-3.7-1.22c-1.8-0.43-4.42-1.02-5.38-2.79c-0.37-1.33,0.01-1.98,0.13-3.12 l0.06-0.49c0.1-0.74,0.23-1.5,0.27-2.31c0.08-1.54-0.31-3.06-0.41-4.59c-0.06-0.87-0.1-1.74-0.12-2.61 C107.65,217.52,107.61,217.19,107.64,216.98z"/>
<path d="M62.35,216.98c1.45-4.23,2.54-10.99,3.41-14.07c0.65-2.31,3.63-14.87,3.14-16.45 c-0.5-1.6-19.67-4.86-20.29-3.42c-0.94,2.2-2.03,23.99-2.2,27.2c-0.12,2.35-0.47,4.66-0.47,7.01l0.01,0.01 c-0.25,1.28-0.46,2.66-0.99,3.81c-1.01,2.17-0.97,3.11-2.65,4.75c-1.16,1.13-4.16,3.11-5.54,3.97c-0.59,0.36-1.21,0.64-1.85,0.88 l-0.06,0.02c-2.55,0.95-5.3,1.3-6.68,4.11c-0.3,0.61-0.56,1.34-0.51,2.04c0.07,0.89,1.04,1.01,1.79,1.23 c1.88,0.53,3.5,0.94,5.67,1.42c2.48,0.55,4.72,0.89,7.23,0.82c1.88-0.05,3.47-0.13,5.13-1.12c0.67-0.4,1.35-0.8,1.92-1.32 c1.29-1.17,2.13-2.4,3.79-3.1c1.2-0.51,2.43-0.92,3.7-1.22c1.8-0.43,4.42-1.02,5.38-2.79c0.37-1.33-0.01-1.98-0.13-3.12 l-0.06-0.49c-0.1-0.74-0.23-1.5-0.27-2.31c-0.08-1.54,0.31-3.06,0.41-4.59c0.06-0.87,0.1-1.74,0.12-2.61 C62.33,217.52,62.37,217.19,62.35,216.98z"/>
</g>
</g></g>
<g id="Gloves">
<g id="Left-Glove">
<g id="Fingerless_Left_Glove" class="option" style="display: inherit;">
<g id="Fingers_Fingerless_Left_Glove" fill="rgb(97, 8, 25)">
<path d="M138.6,124.11c-0.54-0.03-1.05-0.01-1.58,0.1c-0.36,0.08-0.72,0.16-1.04,0.35 c-0.99,0.57-0.72,1.81,0.16,2.28c1.03,0.55,2.66,0.01,3.13-1.05C139.46,125.35,138.86,124.53,138.6,124.11"/>
<path d="M136.79,125.19c-0.54-0.03-1.05-0.02-1.59,0.1c-0.36,0.08-0.72,0.16-1.04,0.35 c-0.99,0.57-0.72,1.81,0.16,2.28c1.03,0.55,2.66,0.01,3.13-1.05C137.65,126.43,137.05,125.61,136.79,125.19"/>
<path d="M135.51,126.62c-0.54,0.05-1.21,0.17-1.73,0.35c-0.35,0.12-0.69,0.26-0.99,0.48 c-0.9,0.7-0.47,1.89,0.47,2.24c1.1,0.41,2.64-0.35,2.96-1.46C136.36,127.76,135.51,126.62,135.51,126.62z"/>
<path d="M129.95,119.82c-0.3,1.34-0.55,2.07-0.55,2.07s-1.38,2.79-1.14,3.43c0.24,0.64,1.45,1.21,2.15,0.87 c0.86-0.42,1.93-2.39,2.61-3.77c0.25-0.51,0.48-1.1,0.68-1.64C130.94,121.18,129.95,119.82,129.95,119.82L129.95,119.82z"/>
<path d="M135.64,126.41c-0.2,0.34-0.43,0.7-0.68,1.08c-1.36,2.05-3.46,3.81-2.07,5.37 c1.29,1.46,4.22-2.37,4.22-2.37l1.36-1.77C136.2,128.19,135.64,126.42,135.64,126.41z"/>
</g>
<path id="Glove_Fingerless_Left_Glove" d="M138.46,128.72l1.51-1.96c0,0,3.3-5.41,3.47-6.46 c0.13-0.8,0.02-3.47,0.02-3.47l-1.03-10.37l-5.24,0.44l-4.31,1.39l-0.32,1.77c0,0-1.56,2.15-1.97,3.69 c-0.29,1.09-0.13,3.68-0.49,5.43c-0.05,0.23-0.1,0.44-0.14,0.65l0,0c0,0,0.99,1.37,3.74,0.96c0.35-0.96,0.58-1.78,0.58-1.78 s0.95,0.32,1.43,0.7c1.61,1.24,0.91,4.96,0.91,4.96s-0.37,0.74-0.98,1.75C135.64,126.42,136.2,128.19,138.46,128.72z" fill="rgb(0, 0, 0)"/>
</g></g>
<g id="Right-Glove">
<g id="Fingerless_Right_Glove" class="option" style="display: inherit;">
<g id="Fingers_Fingerless_Right_Glove" fill="rgb(97, 8, 25)">
<path d="M31.4,124.11c0.54-0.03,1.05-0.01,1.58,0.1c0.36,0.08,0.72,0.16,1.04,0.35c0.99,0.57,0.72,1.81-0.16,2.28 c-1.03,0.55-2.66,0.01-3.13-1.05C30.53,125.35,31.14,124.53,31.4,124.11"/>
<path d="M33.21,125.19c0.54-0.03,1.05-0.02,1.58,0.1c0.36,0.08,0.72,0.16,1.04,0.35c0.99,0.57,0.72,1.81-0.16,2.28 c-1.03,0.55-2.66,0.01-3.13-1.05C32.35,126.43,32.95,125.61,33.21,125.19"/>
<path d="M34.49,126.62c0.54,0.05,1.21,0.17,1.73,0.35c0.35,0.12,0.69,0.26,0.99,0.48c0.9,0.7,0.47,1.89-0.47,2.24 c-1.1,0.41-2.64-0.35-2.96-1.46C33.64,127.76,34.49,126.62,34.49,126.62z"/>
<path d="M40.05,119.82c0.3,1.34,0.55,2.07,0.55,2.07s1.38,2.79,1.14,3.43c-0.24,0.64-1.45,1.21-2.15,0.87 c-0.86-0.42-1.93-2.39-2.61-3.77c-0.25-0.51-0.48-1.1-0.68-1.64C39.06,121.18,40.05,119.82,40.05,119.82L40.05,119.82z"/>
<path d="M34.36,126.41c0.2,0.34,0.43,0.7,0.68,1.08c1.36,2.05,3.46,3.81,2.08,5.37c-1.29,1.46-4.22-2.37-4.22-2.37 l-1.36-1.77C33.8,128.19,34.36,126.42,34.36,126.41z"/>
</g>
<path id="Glove_Fingerless_Right_Glove" d="M31.54,128.72l-1.51-1.96c0,0-3.3-5.41-3.47-6.46 c-0.13-0.8-0.02-3.47-0.02-3.47l1.03-10.37l5.24,0.44l4.31,1.39l0.32,1.77c0,0,1.56,2.15,1.97,3.69 c0.29,1.09,0.13,3.68,0.49,5.43c0.05,0.23,0.1,0.44,0.14,0.65l0,0c0,0-0.99,1.37-3.74,0.96c-0.35-0.96-0.58-1.78-0.58-1.78 s-0.95,0.32-1.43,0.7c-1.61,1.24-0.91,4.96-0.91,4.96s0.37,0.74,0.98,1.75C34.36,126.42,33.8,128.19,31.54,128.72z" fill="rgb(0, 0, 0)"/>
</g></g>
</g>
<g id="Biceps">
<g id="Left-Biceps">
<g id="None_Biceps_Left" class="option" style="display: inherit;">
</g></g>
<g id="Right-Biceps">
<g id="None_Biceps_Right" class="option" style="display: inherit;">
</g></g>
</g>
<g id="BicepsDecals" mask="url(#BicepsMask)">
</g>
<path id="Vest" d="M85,20.92c8.5-0.01,15.43-4.3,15.63-8.01l0.15,0.02l18.38,5.42l13.31,23.94l-2.86,1.16l-13.42-8.6 l-2.31,3.72l-1.54,47.4c0,0-8.72,4.71-13.53,5.35c-3.44,0.45-8.63,0.68-13.79,0.67c-5.16,0.01-10.35-0.22-13.79-0.67 c-4.81-0.63-13.53-5.35-13.53-5.35l-1.54-47.4l-2.31-3.72l-13.42,8.6l-2.86-1.16l13.31-23.94l18.38-5.42l0.15-0.02 C69.57,16.62,76.5,20.92,85,20.92" fill="rgb(0, 0, 0)"/>
<g id="SuitDecals" mask="url(#SuitMask)">
</g>
<g class="swappable" id="Chest"><g id="Chest_Classic">
<g id="Abdomen_Classic">
<path id="Abdomen-Plate_Classic" d="M71.44,79.87l-7.32-3.02l-0.66-6.74l5.72-1.86l4.84-9.65l10.95-3.49 l10.95,3.49l4.84,9.65l5.72,1.86l-0.66,6.74l-7.32,3.02l-13.54-0.35L71.44,79.87z" fill="rgb(91, 24, 28)"/>
<path id="Trauma-Plate_Abdomen_Classic" class="toggle" style="display:none" d="M94.77,59.94l-9.79-3.12l-9.79,3.12l-4.53,9.03 c-0.2,0.39-0.54,0.69-0.96,0.82l-4.47,1.45l0.44,4.47l6.09,2.51l13.18-0.34c0.03,0,0.06,0,0.09,0l13.18,0.34l6.09-2.51l0.44-4.47 l-4.47-1.45c-0.42-0.14-0.76-0.43-0.96-0.82L94.77,59.94z" fill="rgb(255, 255, 255)"/>
</g>
<g id="Iron-Heart_Classic">
<path id="Heart_Classic" d="M82.3,43.04V33.9l2.7-2.1l2.7,2.1v9.13L85,45.75L82.3,43.04z" fill="rgb(91, 24, 28)"/><rect id="Center_Heart_Classic" class="option" x="84.07" y="35.31" width="1.87" height="6.25" fill="rgb(186, 24, 41)" style="display: inherit;"/>
</g>
<g id="Chest-Plates_Classic">
<g id="Left-Chest_Classic">
<path id="Chest_Left_Classic" d="M109.54,25.87l-22.45,2.67l-0.22,2.09l2.86,2.67l-0.22,11.27l-2.53,2.44v3.72 l9.68,2.67l3.85,8.72l4.29,3.49l4.73-23.94l2.53-1.28L109.54,25.87z" fill="rgb(91, 24, 28)"/>
<path id="Trauma-Plating_Left-Chest_Classic" class="toggle" style="display:none" d="M88.58,30.03l0.01-0.07l19.7-2.35l2.07,11.91l-2.18,1.1 l-4.37,22.12l-1.95-1.59l-4-9.05l-9.25-2.55v-1.86l2.52-2.43l0.25-12.62L88.58,30.03z" fill="rgb(255, 255, 255)"/>
</g>
<g id="Right-Chest_Classic">
<path id="Chest_Right_Classic" d="M60.46,25.87l22.45,2.67l0.22,2.09l-2.86,2.67l0.22,11.27l2.53,2.44v3.72 l-9.68,2.67l-3.85,8.72l-4.29,3.49l-4.73-23.94l-2.53-1.28L60.46,25.87z" fill="rgb(91, 24, 28)"/>
<path id="Trauma-Plating_Right-Chest_Classic" class="toggle" style="display:none" d="M81.47,30.03l-0.01-0.07l-19.7-2.35l-2.08,11.91 l2.18,1.1l4.37,22.12l1.95-1.59l4-9.05l9.25-2.55v-1.86l-2.52-2.43l-0.25-12.62L81.47,30.03z" fill="rgb(255, 255, 255)"/>
</g>
</g>
<g id="Neck-Armor_Classic">
<path id="Neck-Plate_Classic" d="M74.44,24.48l-13.97-1.51l-2.53-7.71l11.55-3.44c0,0,1.53,2.58,2.64,3.49 c1.14,0.93,2.66,2.02,4.08,2.64c1.56,0.68,3.46,1.13,5.27,1.42c2.04,0.33,5.01,0.33,7.04,0c1.81-0.29,3.91-0.75,5.47-1.42 c1.43-0.62,2.75-1.71,3.89-2.64c1.11-0.91,2.64-3.49,2.64-3.49l11.55,3.44l-2.53,7.71l-13.97,1.51L85,25.87L74.44,24.48z" fill="rgb(91, 24, 28)"/>
<path id="Trauma-Plates_Neck_Classic" class="toggle" style="display:none" d="M82.99,24.39l-8.55-1.13l-12.86-2.43l-1.51-4.61l8.22-2.45 c0,0,2.42,2.53,3.53,3.44c1.14,0.93,2.97,1.71,4.4,2.33c1.56,0.68,3.46,1.13,5.27,1.42c0.46,0.08,0.97,0.13,1.51,0.17V24.39z M87.01,21.13c0.54-0.04,1.05-0.1,1.51-0.17c1.81-0.29,3.91-0.75,5.47-1.42c1.43-0.62,3.25-1.59,4.39-2.52 c1.11-0.91,2.88-3.39,2.88-3.39l8.68,2.59l-1.52,4.64l-12.86,2.41l-8.55,1.13V21.13z" fill="rgb(255, 255, 255)"/>
</g>
</g></g>
<g id="ChestDecals" mask="url(#ChestMask)">
</g>
<g id="Chest-Attachments"><g id="No-Device_Accessories_Chest" class="option" style="display: inherit;">
</g>
</g>
<g id="Collar"><g id="None_Collar" class="option" style="display: inherit;">
</g>
</g>
<g id="CollarDecals" mask="url(#CollarMask)">
</g>
<g id="Helmets" class="swappable" transform="translate(45,-52)"><g id="Helmet_Classic">
<g id="Left-Earcap_Classic" class="toggle"><path id="Ear-Cap_Left_Classic" d="M60.03,57.18l1.74-2.57l-1.74-17.81l-2.43-1.53L60.03,57.18z" fill="rgb(246, 160, 0)"/>
</g>
<g id="Right-Earcap_Classic" class="toggle"><g id="Range-Finder_Right_Classic" class="option" style="display: inherit;">
<path id="Shaft_Right_Range-Finder_Classic" d="M22.48,9.72l1.08,0.07l-1.61,26.85h-1.1L22.48,9.72z" fill="rgb(0, 80, 137)"/>
<path id="Finder_Right_Range-Finder_Classic" d="M30.81,7.55h-5.96l0.24-0.74l6.96-0.65L30.81,7.55" fill="rgb(12, 12, 10)"/>
<g id="Cover_Right_Range-Finder_Classic" fill="rgb(12, 12, 10)">
<path d="M21.62,8.59l2.84,0.19l0.63-1.96l7.48-0.7l0.15-0.76l-10.68-0.4L21,6.27L21.62,8.59"/>
<path d="M22.38,8.64l1.41,0.09L23.72,9.8l-1.4-0.09L22.38,8.64"/>
</g>
</g>
<path id="Ear-Cap_Right_Classic" d="M19.97,57.18l-1.74-2.57l1.74-17.81l2.43-1.53L19.97,57.18z" fill="rgb(246, 160, 0)"/>
</g>
<g id="Helmet_Pieces_Classic">
<g id="Face_Classic" fill="rgb(91, 24, 28)">
<path d="M22.24,58.73c0,0,0.61-4.18,1.53-6.26c0.94-2.11,2.73-4.44,4.76-4.08c1.62,0.29,4.83,7.93,5.07,17.33 C33.44,65.57,22.24,58.73,22.24,58.73z"/>
<path d="M57.74,58.73c0,0-0.61-4.18-1.53-6.26c-0.94-2.11-2.73-4.44-4.76-4.08c-1.62,0.29-4.84,7.93-5.07,17.33 C46.53,65.57,57.74,58.73,57.74,58.73z"/>
</g>
<g id="Cheeks_Classic" fill="rgb(12, 12, 10)">
<path d="M22.24,58.73v0.1l-2.44-0.19l1.76-16.29c0.61,0.19,5.65,1.77,7.36,3.35c1.82,1.69,3.01,4.31,3.59,6.77 c0.63,2.68,0.95,9.62,1.05,12.23c-0.43-8.92-3.47-16.03-5.03-16.31c-2.03-0.36-3.82,1.97-4.76,4.08 C22.85,54.55,22.24,58.73,22.24,58.73z"/>
<path d="M46.42,64.7c0.1-2.61,0.43-9.55,1.06-12.23c0.58-2.46,1.77-5.08,3.59-6.77c1.68-1.57,6.63-3.12,7.36-3.35 l1.76,16.28l-2.44,0.19v-0.1c0,0-0.61-4.18-1.53-6.26c-0.94-2.11-2.73-4.44-4.76-4.08C49.88,48.67,46.85,55.78,46.42,64.7z"/>
</g>
<path id="Eyes_Classic" d="M46.38,65.72H33.6c0,0-0.31-9.91-1.09-13.25c-0.58-2.46-1.77-5.08-3.59-6.77 c-1.82-1.69-7.33-3.37-7.33-3.37l0.65-6.29c0,0,5.69,0.74,8.55,0.92c2.69,0.17,8.13,0.21,9.2,0.22c1.07-0.01,6.51-0.05,9.2-0.22 c2.86-0.18,8.55-0.92,8.55-0.92l0.65,6.29c0,0-5.51,1.68-7.33,3.37c-1.82,1.69-3.01,4.31-3.59,6.77 C46.69,55.8,46.38,65.7,46.38,65.72z" fill="rgb(0, 80, 137)"/>
<g fill="#000000" id="Visors_Classic"><path fill="rgb(0, 0, 0)" id="Basic_Visor_Classic" class="option" d="M43.42,65.72h-6.87V42.33c0,0-3.82-0.35-5.67-0.78 c-2.26-0.52-7.89-2.33-7.89-2.33l0.08-1.31c0,0,5.19,0.89,7.81,1.17c2.57,0.27,6.07,0.65,9.11,0.65s6.54-0.37,9.11-0.65 c2.62-0.28,7.81-1.17,7.81-1.17l0.08,1.31c0,0-5.63,1.81-7.89,2.33c-1.86,0.42-5.67,0.78-5.67,0.78V65.72z" style="display: inherit;"/>
</g>
<path id="Dome_Classic" d="M22.24,36.05l0-0.01v-0.11c0.06-9.27,7.88-16.81,17.57-17v0h0.12l0.07,0l0.07,0h0.12v0 c9.69,0.19,17.5,7.72,17.56,17v0.11l0,0.01c-0.75,0.1-5.9,0.74-8.55,0.91c-2.69,0.17-8.13,0.21-9.2,0.22 c-1.07-0.01-6.51-0.05-9.2-0.22C28.14,36.79,22.99,36.15,22.24,36.05z" fill="rgb(91, 24, 28)"/>
</g>
</g></g>
<g id="HelmetsDecals" mask="url(#HelmetsMask)"/>
<g id="Shoulders">
<g id="Left-Shoulder"><g id="Classic_Shoulder_Left" class="option" style="display: inherit;">
<path id="Main_Shoulder_Classic_Left" d="M117.21,13.84l-2.52,11.33l2.02,6.52l13.49,6.79l2.27-3.46L117.21,13.84z " fill="rgb(246, 160, 0)"/>
<path id="Trauma-Plates_Shoulder_Classic_Left" class="toggle" style="display:none" d="M116.44,25.1l1.67,5.41l11.49,5.78l1.94-2.96 l-12.93-17.99L116.44,25.1z" fill="rgb(255, 255, 255)"/>
</g>
</g>
<g id="Right-Shoulder"><g id="Classic_Shoulder_Right" class="option" style="display: inherit;">
<path id="Main_Shoulder_Classic_Right" d="M52.79,13.84l2.52,11.33l-2.02,6.52l-13.49,6.79l-2.27-3.46L52.79,13.84 z" fill="rgb(91, 24, 28)"/>
<path id="Trauma-Plates_Shoulder_Classic_Right" class="toggle" style="display:none" d="M53.56,25.1l-1.67,5.41L40.4,36.29l-1.94-2.96 l12.93-17.99L53.56,25.1z" fill="rgb(255, 255, 255)"/>
</g>
</g>
</g>
<g id="ShouldersDecals" mask="url(#ShouldersMask)">
</g>
<g id="Gauntlets">
<g id="Left-Gauntlets"><g id="Basic_Gauntlet_Left" class="option" style="display: inherit;">
<path id="Top-2_Basic_Gauntlet_Left" d="M145.21,108.31l1.36-2.17l-3.89-18.32l-0.65,2.21l1.85,8.35l-0.72,2.07 L145.21,108.31z" fill="rgb(91, 24, 28)"/>
<path id="Top-1_Basic_Gauntlet_Left" d="M142.68,87.82l-0.65,2.21l1.85,8.35l-0.72,2.07l2.05,7.86l-0.9,1.43 l0.47,5.09l-1.57,0.41l-2.13-7.67l-1.46-0.54l-6.74-22.45l8.91-0.93L142.68,87.82z" fill="rgb(246, 160, 0)"/>
<g id="Accent-Bottom_Basic_Gauntlet_Left" fill="rgb(91, 24, 28)">
<path d="M129.49,91.34l-1.97,0.65l0.97,2.92l1.97-0.65L129.49,91.34z"/>
<path d="M131.16,96.45l-1.97,0.65l0.97,2.92l1.97-0.65L131.16,96.45z"/>
<path d="M132.91,101.68l-1.97,0.65l0.97,2.92l1.97-0.65L132.91,101.68z"/>
</g>
<path id="Bottom_Basic_Gauntlet_Left" d="M127.53,91.98l-0.73-2.22l6.19-4.8l6.63,22.08l-6.74,1.23l-2.71-8.25 l1.96-0.65l-0.97-2.92l-1.95,0.64l-0.72-2.19l1.97-0.65l-0.97-2.92L127.53,91.98z M132.91,101.68l-1.98,0.65l0.96,2.92l1.99-0.65 L132.91,101.68z" fill="rgb(91, 24, 28)"/><g id="Flamethrower_Attachment_Basic_Gauntlet_Left" class="option" style="display: inherit;">
<g id="Tubes_Flamethrower_Attachment_Basic_Gauntlet_Left" fill="rgb(155, 155, 155)">
<path d="M143.46,84.51l-0.82,0.17l5.18,24.73l0.82-0.17L143.46,84.51z"/>
<path d="M145.33,84.13l-0.82,0.17l3.71,17.73l0.82-0.17L145.33,84.13z"/>
<path d="M143.93,86.03l-1.12,0.23l1.23,5.89l1.12-0.23L143.93,86.03z"/>
<path d="M145.8,85.64l-1.12,0.23l1.23,5.89l1.12-0.23L145.8,85.64z"/>
</g>
<g id="Main_Flamethrower_Attachment_Basic_Gauntlet_Left" fill="rgb(155, 155, 155)">
<path d="M145.68,84.05l-3.36,0.69l0.32,1.55l3.36-0.7L145.68,84.05z"/>
<path d="M147.31,91.48l-3.51,0.73l0.2,0.94l3.51-0.73L147.31,91.48z"/>
<path d="M147.36,92.45l-3.22,0.67l0.1,0.48l3.22-0.67L147.36,92.45z"/>
<path d="M144.03,91.54l-0.54,0.13l0.61,2.88l0.54-0.13L144.03,91.54z"/>
</g>
<g id="Accent_Flamethrower_Attachment_Basic_Gauntlet_Left" fill="rgb(155, 155, 155)">
<path d="M149.07,101.85l-0.87,0.18l0.12,1.24l1.14-0.24L149.07,101.85z"/>
<path d="M148.09,95.48l-1.55,0.32l0.39,1.88l1.55-0.32L148.09,95.48z"/>
<path d="M148.27,97.4l-1.12,0.23l0.39,1.88l1.12-0.23L148.27,97.4z"/>
<path d="M148.13,106.08l-1.12,0.23l0.54,2.57l1.12-0.23L148.13,106.08z"/>
<path d="M146.4,97.79l-1.12,0.23l0.73,3.5l1.12-0.23L146.4,97.79z"/>
<path d="M148.62,107.33l-1.55,0.32l0.11,0.5l1.55-0.32L148.62,107.33z"/>
</g>
<path id="Base_Flamethrower_Attachment_Basic_Gauntlet_Left" d="M143.5,91.67l-1.65-7.8l1.01,0.17l2.79,13.19 l-0.85,0.61l-0.7-3.3l0.54-0.13l-0.61-2.88L143.5,91.67z" fill="rgb(91, 24, 28)"/>
</g></g>
</g>
<g id="Right-Gauntlets"><g id="Basic_Gauntlet_Right" class="option" style="display: inherit;">
<path id="Top-2_Basic_Gauntlet_Right" d="M24.75,108.31l-1.36-2.17l3.89-18.32l0.65,2.21l-1.85,8.35l0.72,2.07 L24.75,108.31z" fill="rgb(0, 80, 137)"/>
<path id="Top-1_Basic_Gauntlet_Right" d="M27.28,87.82l0.65,2.21l-1.85,8.35l0.72,2.07l-2.05,7.86l0.9,1.43 l-0.47,5.09l1.57,0.41l2.13-7.67l1.46-0.54l6.74-22.45l-8.91-0.93L27.28,87.82z" fill="rgb(91, 24, 28)"/>
<g id="Accent-Bottom_Basic_Gauntlet_Right" fill="rgb(91, 24, 28)">
<path d="M40.47,91.34l1.97,0.65l-0.97,2.92l-1.97-0.65L40.47,91.34z"/>
<path d="M38.79,96.45l1.97,0.65l-0.97,2.92l-1.97-0.65L38.79,96.45z"/>
<path d="M37.05,101.68l1.97,0.65l-0.97,2.92l-1.97-0.65L37.05,101.68z"/>
</g>
<path id="Bottom_Basic_Gauntlet_Right" d="M42.43,91.98l0.73-2.22l-6.19-4.8l-6.63,22.08l6.74,1.23l2.71-8.25 l-1.96-0.65l0.97-2.92l1.95,0.64l0.72-2.19l-1.97-0.65l0.97-2.92L42.43,91.98z M37.05,101.68l1.98,0.65l-0.96,2.92l-1.99-0.65 L37.05,101.68z" fill="rgb(91, 24, 28)"/><g id="No-Device_Attachment_Basic_Gauntlet_Right" class="option" style="display: inherit;">
</g>
</g>
</g>
</g>
<g id="GauntletsDecals" mask="url(#GauntletsMask)">
</g>
<g id="Shins">
<g id="Left-Shin"><g id="Basic_Shin_Left" class="option" style="display: inherit;">
<path id="Shin_Basic-Shin_Left" d="M121.62,179.69l-5.07-5.47l-10.06,1.36l-3.67,8.71l6.88,29.05 c4.47,1.82,10.9,0.87,14.37-2.3L121.62,179.69" fill="rgb(246, 160, 0)"/>
<path id="Trauma-Plating_Basic-Shin_Left" class="toggle" style="display:none" d="M122.31,210.31l-2.33-29.91l-4.07-4.4l-8.22,1.11 l-3.08,7.32l6.54,27.63C114.73,213.18,119.4,212.5,122.31,210.31" fill="rgb(255, 255, 255)"/>
<g id="Ridge_Basic-Shin_Left" class="toggle" style="display:none" fill="rgb(255, 255, 255)"/>
</g>
</g>
<g id="Right-Shin"><g id="Basic_Shin_Right" class="option" style="display: inherit;">
<path id="Shin_Basic-Shin_Right" d="M48.3,179.69l5.07-5.47l10.06,1.36l3.67,8.71l-6.88,29.05 c-4.47,1.82-10.9,0.87-14.36-2.3L48.3,179.69" fill="rgb(91, 24, 28)"/>
<path id="Trauma-Plating_Basic-Shin_Right" class="toggle" style="display:none" d="M47.62,210.31l2.33-29.91l4.07-4.4l8.22,1.11l3.08,7.32 l-6.54,27.63C55.2,213.18,50.53,212.5,47.62,210.31" fill="rgb(255, 255, 255)"/>
<g id="Ridge_Basic-Shin_Right" class="toggle" style="display:none" fill="rgb(255, 255, 255)"/>
</g>
</g>
</g>
<g id="ShinsDecals" mask="url(#ShinsMask)">
</g>
<g id="Foot">
<g id="Left-Ankle">
<g id="None_Ankle_Left" class="option" style="display: inherit;">
</g></g>
<g id="Left-Toe"><g id="None_Toe_Left" class="option" style="display: inherit;">
</g>
</g>
<g id="Right-Ankle">
<g id="None_Ankle_Right" class="option" style="display: inherit;">
</g></g>
<g id="Right-Toe"><g id="None_Toe_Right" class="option" style="display: inherit;">
</g>
</g>
</g>
<g id="FootDecals" mask="url(#FootMask)">
</g>
<g id="Knees">
<g id="Left-Knee"><g id="Basic_Knee_Left" class="option" style="display: inherit;">
<g id="Missiles_Basic-Knee_Left" class="toggle" style="display:none"/>
<g id="Knee_Basic-Knee_Left" fill="rgb(91, 24, 28)">
<path d="M96.42,158.84l1.43-0.23c0,0,1.08,6.92,1.56,9.99c0.12,0.79-0.42,1.54-1.21,1.66c0,0,0,0,0,0L96.42,158.84z "/>
<path d="M97.81,158.32l0.82,5.14c1.05-0.59,3.7,0.5,4.57,3.58c1.59,5.67,2.97,6.97,7.95,6.46 c3.87-0.4,6.64-2.2,6.96-4.87c0.46-3.85,0-9.43-0.23-11.79c-0.03-0.29-0.18-0.56-0.41-0.74c-0.23-0.18-0.53-0.26-0.82-0.23 C112.43,156.41,97.81,158.32,97.81,158.32z"/>
<path d="M97.31,158.39l0.49-0.07l0.92,5.56l-0.49,0.07L97.31,158.39z"/>
</g>
</g>
</g>
<g id="Right-Knee"><g id="Basic_Knee_Right" class="option" style="display: inherit;">
<g id="Missiles_Basic-Knee_Right" class="toggle" style="display:none"/>
<g id="Knee_Basic-Knee_Right" fill="rgb(0, 80, 137)">
<path d="M73.47,158.84l-1.43-0.23c0,0-1.08,6.92-1.56,9.99c-0.12,0.79,0.42,1.54,1.21,1.66c0,0,0,0,0,0 L73.47,158.84z"/>
<path d="M72.09,158.32l-0.82,5.14c-1.05-0.59-3.7,0.5-4.57,3.58c-1.59,5.67-2.97,6.97-7.95,6.46 c-3.87-0.4-6.64-2.2-6.96-4.87c-0.46-3.85,0-9.43,0.23-11.79c0.03-0.29,0.18-0.56,0.41-0.74c0.23-0.18,0.53-0.26,0.82-0.23 C57.46,156.41,72.09,158.32,72.09,158.32z"/>
<path d="M72.58,158.39l-0.49-0.07l-0.92,5.56l0.49,0.07L72.58,158.39z"/>
</g>
</g>
</g>
</g>
<g id="KneesDecals" mask="url(#KneesMask)">
</g>
<g id="Thighs">
<g id="Left-Thigh">
<g id="None_Thigh_Left" class="option" style="display: inherit;">
</g></g>
<g id="Right-Thigh"><g id="Basic_Thigh_Right" class="option" style="display: inherit;">
<path id="Thigh_Basic-Thigh_Right" d="M49.69,115.6c0,0,5.03-6.43,7.59-7.49c2.43-1.01,5.69-0.58,7.78,1.09 c3.19,2.54,10.51,8.04,11.35,14.16c0.93,6.83-4.08,21.95-5.78,26.84c-0.58,1.66-2.77,2.41-4.44,2.48 c-3.1,0.12-11.57-0.15-13.59-4.69C49.85,141.81,49.69,115.6,49.69,115.6" fill="rgb(0, 80, 137)"/>
<path id="Trauma-Plate_Basic-Thigh_Right" class="toggle" style="display:none" d="M51.39,116.19c0.75-0.93,2.56-3.1,4.3-4.77 c0.83-0.79,1.62-1.49,2.25-1.75c1.9-0.79,4.44-0.45,6.06,0.85c1.85,1.47,5.15,3.97,7.66,7.02c1.52,1.85,2.77,3.9,3.07,6.05 c0.9,6.64-4.05,21.31-5.7,26.06c-0.14,0.42-0.54,0.67-0.95,0.87c-0.61,0.3-1.33,0.45-1.94,0.47c-1.73,0.07-5.27,0.02-8.23-0.96 c-1.63-0.54-3.12-1.33-3.75-2.73c-0.78-1.75-1.3-5.22-1.7-9.2C51.59,129.59,51.42,118.81,51.39,116.19" fill="rgb(255, 255, 255)"/>
<g id="Ridge_Basic-Thigh_Right" class="toggle" style="display:none" fill="rgb(255, 255, 255)"/>
</g>
</g>
</g>
<g id="ThighsDecals" mask="url(#ThighsMask)">
</g>
<g id="Groin">
<g id="None_Groin" class="option" style="display: inherit;">
</g></g>
<g id="GroinDecals" mask="url(#GroinMask)">
</g>
<g id="Waist">
<g id="Accessories_Waist">
<g id="Kama" class="toggle" style="">
<g id="Clean_Kama" class="option" style="display: inherit;">
<g id="Trim_Kama-Clean" fill="rgb(91, 24, 28)">
<path d="M101.37,83.6l3.59,57.21l26.42,17.47l-20.04-77.38L101.37,83.6z"/>
<path d="M68.55,83.6l-3.59,57.21l-26.42,17.47l20.04-77.38L68.55,83.6z"/>
</g>
<g id="Main_Kama-Clean" fill="rgb(60, 60, 60)">
<path d="M103.25,83.48l3.47,55.33l23.83,16.29l-19.22-74.21L103.25,83.48z"/>
<path d="M66.67,83.48l-3.47,55.33L39.36,155.1l19.22-74.21L66.67,83.48z"/>
</g>
</g></g>
<g id="Loin-Cloth" class="toggle" style="">
<g id="Clean_Loin-Cloth" class="option" style="display: inherit;">
<path id="Trim_Loin-Cloth-Clean" d="M97.6,87.28H72.32v44.75l12.64,12.57l12.64-12.57V87.28z" fill="rgb(91, 24, 28)"/>
<path id="Main_Loin-Cloth-Clean" d="M95.98,91.99H73.94v39.01l11.02,10.96l11.02-10.96V91.99z" fill="rgb(60, 60, 60)"/>
</g></g>
<g id="Left-Holster" class="toggle" style="display:none"/>
<g id="Right-Holster" class="toggle" style=""><g id="Belt-Holster_Right" class="option" style="display: inherit;">
<g id="Weapon_Belt-Holster-Right">
<g id="Main_Weapon_Belt-Holster-Right" fill="rgb(119, 119, 119)">
<path d="M53.1,99.11l0.24-3.6l-0.62-0.04l0.15-2.26l0.62,0.04l0.08-1.18c0.03-0.38-0.47-0.73-1.1-0.77 c-1.45-0.1-3.93-0.26-5.37-0.36c-0.63-0.04-1.17,0.23-1.19,0.62l-0.08,1.18l0.62,0.04l-0.15,2.26L45.68,95l-0.24,3.6l1.46,0.1 l-0.67,9.95l4.73,0.31l0.67-9.95L53.1,99.11z"/>
<path d="M46.1,98.11l0.84,0.06l-0.8,11.96l4.73,0.31l0.8-11.96l0.84,0.06l0.18-2.73l-6.41-0.42L46.1,98.11z"/>
<path d="M47.84,91.78l3.8,0.25l-0.25,3.69l-3.8-0.25L47.84,91.78z"/>
<path d="M50.51,99.49l0.62,0.04l-0.63,9.4l-0.62-0.04L50.51,99.49z"/>
<path d="M49.07,97.23l0.62,0.04l-0.63,9.4l-0.62-0.04L49.07,97.23z"/>
<path d="M47.33,99.28l0.62,0.04l-0.63,9.4l-0.62-0.04L47.33,99.28z"/>
</g>
<g id="Accent_Weapon_Belt-Holster-Right" fill="rgb(0, 0, 0)">
<path d="M50.8,96.06l-0.03,0.38l-2.68-0.18l0.02-0.38L50.8,96.06z"/>
<path d="M50.78,96.44l-0.03,0.38l-2.68-0.18l0.03-0.38L50.78,96.44z"/>
<path d="M50.83,95.68l-0.02,0.38l-2.68-0.18l0.03-0.38L50.83,95.68z"/>
<path d="M51.14,91.05l-0.02,0.38l-2.68-0.18l0.03-0.38L51.14,91.05z"/>
<path d="M51.01,91.99l0.62,0.04l-0.25,3.69l-0.62-0.04L51.01,91.99z"/>
<path d="M47.84,91.78l0.62,0.04l-0.25,3.69l-0.62-0.04L47.84,91.78z"/>
<path d="M47.96,99.32l0.94,0.06l-0.63,9.4l-0.94-0.06L47.96,99.32z"/>
<path d="M49.56,99.42l0.94,0.06l-0.63,9.4l-0.94-0.06L49.56,99.42z"/>
</g>
</g>
<path id="Holster_Belt-Holster-Right" d="M51.49,112.89l2.47-14.99l-8.29,10.56l-0.79,20.68 c1.44,1.89,3.04,2.08,4.84,0.36L51.49,112.89z" fill="rgb(68, 40, 16)"/>
</g>
</g>
<g id="Left-Trophy" class="toggle" style="display:none"/>
<g id="Right-Trophy" class="toggle" style="display:none"/>
</g>
<g id="Under-Belt">
<g id="Sash" class="option" fill="rgb(91, 24, 28)" style="display: inherit;">
<path d="M56.68,79.7c2.57-0.54,6.55,1.03,9.91,1.3c3.6,0.29,7.2,0.03,10.79,0.27c2.1,0.14,4.17,0.66,6.25,0.94 c4.01,0.53,8.02,0.25,12.02-0.26c1.05-0.14,2.13-0.16,3.17-0.37c2.62-0.54,6.03-1.14,8.28-2.19c2-0.5,4.01-0.58,5.89-0.12 c1.91,0.47,0.57,4.25,0.66,5.8c0.09,1.64,1.27,8.06,1.98,9.56c0.78,1.66,1.4,3.47-0.88,4.56c-1.91,0.91-3.95,0.09-5.89-0.17 c-2.29-0.3-4.57-0.15-6.83,0.29c-2.77,0.54-5.51,1.53-8.33,1.79c-3.78,0.35-7.58-0.34-11.36-0.29c-2.17,0.03-4.26,0.73-6.43,0.56 c-3.64-0.29-6.95-1.77-10.48-2.11c-1.78-0.17-3.55,0.23-5.32,0.24c-1.22,0-2.36-0.33-3.54-0.62c-1.17-0.28-2.27-0.17-2.91-1.27 c-0.48-0.83,0.54-3.07,1.03-3.78c1.26-1.81,1.6-8.21,1.14-10.26C55.43,81.83,54.9,80.08,56.68,79.7z"/>
<path d="M54.09,94.91c4.02-0.01,7.54-0.09,11.16,1.3c12.27,4.7,11.99,4.06,17.21,4.59 c7.68,0.78,10.74,0.49,13.92-0.22c1.28-0.29,2.57-0.7,3.72-1.28c2.04-1.03,4.03-2.09,5.85-3.53c2.21-1.75,6.07-2.92,9.17-2.78 c0,0-0.6-2.02-1.46-7.99c-0.22-1.55,0.76-3.24-0.01-5.33c-0.33-0.9-3.38-0.65-5.45-0.49c-4.09,0.33-5.9,3.28-9.05,5.62 c-1.84,1.37-4.02,2.99-6.74,3.86c-4.28,1.38-10.94,2.01-23.58-2.18c-4.12-1.36-7.61-3.95-13.05-3.12c0,0,0.2,2.78,0.2,4.17 C55.98,92,54.09,94.91,54.09,94.91z"/>
</g></g>
<g id="Belt"><g id="Pouch-Belt-4" class="option" style="display: inherit;">
<path id="Main_Pouch-Belt-4" d="M115.21,92.95c-6.82,0.61-22.4,2.83-30.27,2.83c-7.94,0-23.52-2.23-30.26-2.82 l1.01-7.93c5.53,0.49,21.56,2.74,29.26,2.74c7.47,0,23.17-2.23,29.07-2.76L115.21,92.95z" fill="rgb(80, 49, 22)"/>
<rect id="Buckle_Pouch-Belt-4" x="79.37" y="87.01" width="11.28" height="9.21" fill="rgb(80, 49, 22)"/>
<g id="Pouches_Pouch-Belt-4" fill="rgb(70, 37, 8)">
<g>
<g>
<path d="M59.65,83.47c-0.31-0.02-0.62,0.03-0.91,0.16c-0.67,0.29-1.86,0.81-1.86,0.81l7.38,0.42l2-0.95 C66.26,83.91,61.24,83.57,59.65,83.47z"/>
<path d="M66.52,84.19c0.01-0.09-0.03-0.17-0.1-0.22c-0.07-0.05-0.17-0.06-0.24-0.02c-0.66,0.31-1.91,0.9-1.91,0.9 l-1.02,12.42c0.65-0.41,1.29-0.68,1.93-0.85c0.39-0.09,0.68-0.44,0.69-0.84C65.99,91.78,66.15,87.98,66.52,84.19z"/>
<path d="M64.26,84.85l-7.38-0.42c-0.06,1.89-0.23,3.77-0.33,5.65c-0.11,2.08-0.16,4.17-0.34,6.28 c-0.01,0.15,0.04,0.3,0.14,0.41s0.25,0.18,0.4,0.17c2.08-0.01,4.15,0.11,6.22,0.36c0.14,0.02,0.29-0.02,0.4-0.12 c0.11-0.09,0.18-0.23,0.19-0.37c0.1-1.47,0.37-5.33,0.37-5.33L64.26,84.85z"/>
<path d="M64.26,84.85l-7.38-0.42c0,0-0.18,1.6-0.36,3.15c-0.09,0.75,0.14,1.51,0.63,2.08 c0.49,0.58,1.2,0.93,1.96,0.97c0.73,0.04,1.51,0.08,2.23,0.13c0.76,0.04,1.51-0.23,2.06-0.75c0.55-0.52,0.87-1.25,0.86-2 C64.26,86.46,64.26,84.85,64.26,84.85z"/>
<path d="M60.31,89.23c0.26,0.01,0.46,0.26,0.44,0.54c-0.02,0.28-0.24,0.5-0.5,0.49 c-0.26-0.01-0.46-0.26-0.44-0.54C59.83,89.44,60.05,89.22,60.31,89.23z"/>
</g>
</g>
<g>
<path d="M52.22,84.29l0.55-0.85l2.83,0.09l0.35,1.06L52.22,84.29z"/>
<path d="M55.93,84.69c0.01-0.07-0.01-0.13-0.06-0.18c-0.04-0.05-0.11-0.08-0.17-0.08 c-0.85-0.03-3.48-0.13-3.48-0.13l-0.5,11.17c0.11,0.28,1.53,0.46,2.68,0.49c0.5,0.01,0.91-0.38,0.92-0.88 C55.4,91.61,55.53,88.14,55.93,84.69z"/>
</g>
<g>
<g>
<path d="M110.24,83.47c0.31-0.02,0.62,0.03,0.91,0.16c0.67,0.29,1.86,0.81,1.86,0.81l-7.38,0.42l-2-0.95 C103.63,83.91,108.65,83.57,110.24,83.47z"/>
<path d="M103.37,84.19c-0.01-0.09,0.03-0.17,0.1-0.22c0.07-0.05,0.17-0.06,0.24-0.02c0.66,0.31,1.91,0.9,1.91,0.9 l1.02,12.42c-0.65-0.41-1.29-0.68-1.93-0.85c-0.39-0.09-0.68-0.44-0.69-0.84C103.9,91.78,103.74,87.98,103.37,84.19z"/>
<path d="M105.63,84.85l7.38-0.42c0.06,1.89,0.23,3.77,0.33,5.65c0.11,2.08,0.16,4.17,0.34,6.28 c0.01,0.15-0.04,0.3-0.14,0.41c-0.1,0.11-0.25,0.18-0.4,0.17c-2.08-0.01-4.15,0.11-6.22,0.36c-0.14,0.02-0.29-0.02-0.4-0.12 c-0.11-0.09-0.18-0.23-0.19-0.37c-0.1-1.47-0.37-5.33-0.37-5.33L105.63,84.85z"/>
<path d="M105.63,84.85l7.38-0.42c0,0,0.18,1.6,0.36,3.15c0.09,0.75-0.14,1.51-0.63,2.08 c-0.49,0.58-1.2,0.93-1.96,0.97c-0.72,0.04-1.5,0.08-2.23,0.13c-0.76,0.04-1.51-0.23-2.06-0.75c-0.55-0.52-0.87-1.25-0.86-2 C105.63,86.46,105.63,84.85,105.63,84.85z"/>
<path d="M109.58,89.23c-0.26,0.01-0.46,0.26-0.44,0.54c0.02,0.28,0.24,0.5,0.5,0.49 c0.26-0.01,0.46-0.26,0.44-0.54C110.07,89.44,109.84,89.22,109.58,89.23z"/>
</g>
</g>
<g>
<path d="M117.67,84.29l-0.55-0.85l-2.83,0.09l-0.35,1.06L117.67,84.29z"/>
<path d="M113.96,84.69c-0.01-0.07,0.01-0.13,0.06-0.18c0.04-0.05,0.11-0.08,0.18-0.08 c0.85-0.03,3.48-0.13,3.48-0.13l0.5,11.17c-0.11,0.28-1.53,0.46-2.68,0.49c-0.5,0.01-0.91-0.38-0.92-0.88 C114.49,91.61,114.36,88.14,113.96,84.69z"/>
</g>
</g>
</g></g>
</g>
<g id="WaistDecals" mask="url(#WaistMask)">
</g>
<g id="Extras_Front">
<g id="Front"><g id="None_Front" class="option" style="display: inherit;">
</g>
</g>
</g>
<g id="Extras-FrontDecals" mask="url(#FrontMask)">
</g>
</g>
</svg>