<?xml version='1.0' encoding='UTF-8'?><svg version='1.1' xmlns='http://www.w3.org/2000/svg'><metadata><rdf:rdf xmlns:rdf="http://www.w3.org/1999/02/22-rdf-syntax-ns#" xmlns:rdfs="http://www.w3.org/2000/01/rdf-schema#" xmlns:dc="http://purl.org/dc/elements/1.1/"> <rdf:description> <dc:creator>MandoCreator</dc:creator> <dc:publisher>https://www.mandocreator.com</dc:publisher> <dc:description>Your Beskar'gam - created by MandoCreator</dc:description> <dc:format>image/svg+xml</dc:format> <dc:type>Image</dc:type> <dc:title>MandoCreator - Ner Berskar'gam</dc:title> <dc:date>2021-10-08T16:31:52.555Z</dc:date> </rdf:description> </rdf:rdf></metadata><svg version="1.1" id="Male" xmlns="http://www.w3.org/2000/svg" xmlns:xlink="http://www.w3.org/1999/xlink" x="0px" y="0px" viewBox="0 -55 169 300" style="fill: white; fill-rule: evenodd; stroke: black; stroke-width: 0.2px; pointer-events: none; position: relative; height: 100%;">
<g id="Extras_Back">
<g id="Back"><g id="NO-CAPES_Back" class="option" style="display: inherit;">
</g>
</g>
</g>
<g id="Suit">
<g id="Neck-Seal">
<g id="Standard-Neck-Seal" class="option" style="fill: rgb(41, 35, 35); display: inherit;">
<path d="M98,7.5c0-0.9-0.9-1.6-2.1-1.6c0,0-7.8,0.9-11.6,0.9c-3.9,0-11.6-0.9-11.6-0.9c-1.1,0-2.1,0.7-2.1,1.6 s0.9,1.6,2.1,1.6c0,0,7.8,0.9,11.6,0.9C88.2,10,96,9.2,96,9.2C97.1,9.2,98,8.4,98,7.5z"/>
<path d="M98.7,9.4c0-0.9-1-1.7-2.2-1.7c0,0-8.1,0.9-12.2,0.9c-4.1,0-12.2-0.9-12.2-0.9c-1.2,0-2.2,0.8-2.2,1.7 c0,0.9,1,1.7,2.2,1.7c0,0,8.1,0.9,12.2,0.9c4.1,0,12.2-0.9,12.2-0.9C97.8,11.1,98.7,10.4,98.7,9.4z"/>
<path d="M99.5,11.8c0-1-1-1.8-2.3-1.8c0,0-8.6,0.9-12.9,0.9C80,10.9,71.4,10,71.4,10c-1.3,0-2.3,0.8-2.3,1.8 s1,1.8,2.3,1.8c0,0,8.6,0.9,12.9,0.9c4.3,0,12.9-0.9,12.9-0.9C98.5,13.6,99.5,12.8,99.5,11.8z"/>
<path d="M100.3,13.9c0-1-1.1-1.9-2.4-1.9c0,0-9,1-13.5,1s-13.5-1-13.5-1c-1.3,0-2.4,0.8-2.4,1.9s1.1,1.9,2.4,1.9 c0,0,9,1,13.5,1s13.5-1,13.5-1C99.2,15.8,100.3,15,100.3,13.9z"/>
<path d="M101,16.1c0-0.8-1.1-1.4-2.5-1.4c0,0-9.4,0.7-14.2,0.7c-4.8,0-14.2-0.7-14.2-0.7c-1.4,0-2.5,0.6-2.5,1.4 c0,0.8,1.1,1.4,2.5,1.4c0,0,9.4,0.8,14.2,0.8c4.8,0,14.2-0.8,14.2-0.8C99.9,17.5,101,16.9,101,16.1z"/>
<path d="M101,18.4c0-0.8-1.1-1.4-2.5-1.4c0,0-9.4,0.7-14.2,0.7c-4.8,0-14.2-0.7-14.2-0.7c-1.4,0-2.5,0.6-2.5,1.4 c0,0.8,1.1,1.4,2.5,1.4c0,0,9.4,1.4,14.2,1.4c4.8,0,14.2-1.4,14.2-1.4C99.9,19.9,101,19.2,101,18.4z"/>
</g>
</g>
<g id="Flight-Suit" style="fill: rgb(41, 35, 35);">
<path d="M72.8,158.4l-1.5,8.7l-11,53.1c0,0-4.9,3-7.4,3.5s-7.7-0.4-7.7-0.4l3.8-43l2.9-18.4l0.7-7.8 c0,0-2.5-22.8-1.7-34.1c0.8-11.4,6.6-34,6.6-34l26.8,0.6l26.8-0.6c0,0,5.8,22.6,6.6,34c0.8,11.4-1.7,34.1-1.7,34.1l0.7,7.8 l2.9,18.4l3.8,43c0,0-5.3,1.2-7.8,0.7s-7.3-3.7-7.3-3.7l-11-53.1l-1.5-8.7l-11.6-30.3L72.8,158.4z"/>
<g>
<path d="M128.5,43.3l11.9,41.6l1,21.5l-9.5,1.8l-6-20.2l-13.6-33.9l0.7-15.5l2.3-3.7L128.5,43.3z"/>
<path d="M40.3,43.3l13.1-8.4l2.3,3.7l0.5,16L42.8,88l-6,20.2l-9.5-1.8l1-21.5L40.3,43.3z"/>
</g>
</g>
<g id="Sleeves" class="toggle" style="fill: rgb(41, 35, 35);">
<g>
<path d="M111.4,56.1l2.7,5.9c0,0,4.2-3.2,7-4.8c2.8-1.6,4.3-2.6,6.9-3.6c2.5-1,5-1.5,5-1.5l-6-12.2l-5.8-9.7 l-11.5,5.1L111.4,56.1z"/>
<path d="M112.8,59.2c-0.2-0.2,5-4.5,8.6-6.3c3.5-1.8,10.2-3.7,10.2-3.7"/>
</g>
<g>
<path d="M57.3,56.1L54.6,62c0,0-4.2-3.2-7-4.8c-2.8-1.6-4.4-2.6-6.9-3.6s-5-1.5-5-1.5l6-12.2l5.8-9.7L59,35.4 L57.3,56.1z"/>
<path d="M55.9,59.2c0.2-0.2-5-4.5-8.6-6.3c-3.5-1.8-10.2-3.7-10.2-3.7"/>
</g>
</g>
</g>
<g id="Boots">
<g id="Basic_Boots" class="option" style="display: inherit;">
<g id="Main_Basic-Boot" style="fill: rgb(153, 44, 197);">
<path d="M108.3,216.7c1.4,0,3.2,0.9,4.5,1.1c1.4,0.2,2.9,0.2,4.3,0.1l0.6-0.1h0.7c0.3,0,0.7-0.1,1-0.2l0.5-0.1h0.2 l0.4-0.1l0.3-0.1h0.1c1.1-0.3,2.2-0.7,2.2-0.7c0.3,1.4,0.5,3.1,1.1,4.5c1,2.1,0.9,3.1,2.6,4.7c1.1,1.1,4.1,3.1,5.4,3.9 c0.6,0.4,1.2,0.6,1.8,0.9h0.1c2.5,0.9,5.2,1.3,6.5,4c0.3,0.6,0.5,1.3,0.5,2c-0.1,0.9-1,1-1.7,1.2c-1.8,0.5-3.4,0.9-5.5,1.4 c-2.4,0.5-4.6,0.9-7.1,0.8c-1.8-0.1-3.4-0.1-5-1.1c-0.6-0.4-1.3-0.8-1.9-1.3c-1.3-1.1-2.1-2.4-3.7-3c-1.2-0.5-2.4-0.9-3.6-1.2 c-1.8-0.4-4.3-1-5.2-2.7c-0.4-1.3,0-1.9,0.1-3.1l0.1-0.5c0.1-0.7,0.2-1.5,0.3-2.3c0.1-1.5-0.3-3-0.4-4.5 c-0.1-0.9-0.1-1.7-0.1-2.6c0-0.1-0.1-0.8,0.1-0.8c0.2-0.1,0.4-0.1,0.6-0.1L108.3,216.7z"/>
<path d="M60.5,216.7c-1.4,0-3.2,0.9-4.5,1.1c-1.4,0.2-2.9,0.2-4.3,0.1l-0.6-0.1h-0.7c-0.3,0-0.7-0.1-1-0.2l-0.5-0.1 h-0.2l-0.4-0.1l-0.3-0.1h-0.1c-1.1-0.3-2.2-0.7-2.2-0.7c-0.3,1.4-0.5,3.1-1.1,4.5c-1,2.1-0.9,3.1-2.6,4.7 c-1.1,1.1-4.1,3.1-5.4,3.9c-0.6,0.4-1.2,0.6-1.8,0.9h-0.1c-2.5,0.9-5.2,1.3-6.5,4c-0.3,0.6-0.5,1.3-0.5,2c0.1,0.9,1,1,1.7,1.2 c1.8,0.5,3.4,0.9,5.5,1.4c2.4,0.5,4.6,0.9,7.1,0.8c1.8-0.1,3.4-0.1,5-1.1c0.6-0.4,1.3-0.8,1.9-1.3c1.3-1.1,2.1-2.4,3.7-3 c1.2-0.5,2.4-0.9,3.6-1.2c1.8-0.4,4.3-1,5.2-2.7c0.4-1.3,0-1.9-0.1-3.1l-0.1-0.5c-0.1-0.7-0.2-1.5-0.3-2.3 c-0.1-1.5,0.3-3,0.4-4.5c0.1-0.9,0.1-1.7,0.1-2.6c0-0.1,0.1-0.8-0.1-0.8c-0.2-0.1-0.4-0.1-0.6-0.1L60.5,216.7z"/>
</g>
<g id="Bottom_Basic-Boot" style="fill: rgb(111, 103, 103);">
<path d="M107.4,230.6c0.5,0.9,1.3,1.4,2.3,1.9c0.9,0.4,1.9,0.6,2.9,0.9c0.1,0,0.3,0.1,0.4,0.1 c0.2,0.1,0.4,0.1,0.6,0.2c0.1,0,0.1,0,0.2,0.1h0.1c0.1,0,0.1,0,0.2,0.1h0.1c0.1,0,0.2,0.1,0.3,0.1h0.2c0.2,0.1,0.3,0.1,0.5,0.2 h0.1c0.1,0.1,0.3,0.1,0.4,0.2h0.1c0.1,0,0.2,0.1,0.3,0.1h0.1c0.3,0.1,0.5,0.2,0.7,0.4h0.1c0.1,0,0.1,0.1,0.2,0.1 c0.1,0,0.1,0.1,0.2,0.1h0.1l0.1,0.1c0.3,0.2,0.5,0.5,0.8,0.7l1.5,1.5c0.1,0,0.1,0.1,0.2,0.1c0.1,0.1,0.2,0.1,0.3,0.2 c0.1,0,0.1,0.1,0.2,0.1c0.1,0.1,0.1,0.1,0.2,0.2c0,0,0.1,0,0.1,0.1c0.1,0.1,0.2,0.1,0.3,0.2c0.1,0,0.2,0.1,0.2,0.1l0.1,0.1 l0.2,0.1l0.1,0.1h0.2c0.1,0.1,0.2,0.1,0.3,0.2c0.1,0,0.1,0,0.2,0.1h0.1c0.3,0.1,0.7,0.3,1,0.3h1.5c0.2,0,0.4,0,0.7,0.1h3.5 c0.4,0,0.8-0.1,1.2-0.1h0.8c0.3-0.1,0.7-0.1,1-0.2h0.7c0.1,0,0.2,0,0.3-0.1h0.1c0.1,0,0.2,0,0.3-0.1c0.1,0,0.2,0,0.3-0.1 c0.6-0.1,1.1-0.2,1.6-0.4h0.2c0.1,0,0.3-0.1,0.4-0.1h0.3c0.2,0,0.4-0.1,0.6-0.1c0.1,0,0.2-0.1,0.3-0.1c0.3-0.1,0.7-0.2,1-0.3h0.5 c0.3-0.1,0.5-0.1,0.8-0.2h0.2l0.3-0.1h1.1c0.1-0.1,0.2-0.2,0.2-0.2s0.5,0.7,0.5,2c-1.1,1.6-4.6,2.1-9.4,2.8 c-4.8,0.6-7.7,0.5-9.7-0.3c-2-0.9-5.5-4.9-8-5.2c-2.5-0.2-5.5-1.5-6.7-2.3c-0.6-0.4-0.4-3-0.4-3L107.4,230.6z"/>
<path d="M61.4,230.6c-0.5,0.9-1.3,1.4-2.3,1.9c-0.9,0.4-1.9,0.6-2.9,0.9c-0.1,0-0.3,0.1-0.4,0.1 c-0.2,0.1-0.4,0.1-0.6,0.2c-0.1,0-0.1,0-0.2,0.1h-0.1c-0.1,0-0.1,0-0.2,0.1h-0.1c-0.1,0-0.2,0.1-0.3,0.1h-0.2 c-0.2,0.1-0.3,0.1-0.5,0.2h-0.1c-0.1,0.1-0.3,0.1-0.4,0.2H53c-0.1,0-0.2,0.1-0.3,0.1h-0.1c-0.3,0.1-0.5,0.2-0.7,0.4h-0.1 c-0.1,0-0.1,0.1-0.2,0.1c-0.1,0-0.1,0.1-0.2,0.1h-0.1l-0.1,0.1c-0.3,0.2-0.5,0.5-0.8,0.7l-1.5,1.5c-0.1,0-0.1,0.1-0.2,0.1 c-0.1,0.1-0.2,0.1-0.3,0.2c-0.1,0-0.1,0.1-0.2,0.1c-0.1,0.1-0.1,0.1-0.2,0.2c0,0-0.1,0-0.1,0.1c-0.1,0.1-0.2,0.1-0.3,0.2 c-0.1,0-0.2,0.1-0.2,0.1l-0.1,0.1l-0.2,0.1l-0.1,0.1h-0.2c-0.1,0.1-0.2,0.1-0.3,0.2c-0.1,0-0.1,0-0.2,0.1h-0.1 c-0.3,0.1-0.7,0.3-1,0.3h-1.5c-0.2,0-0.4,0-0.6,0.1h-3.5c-0.4,0-0.8-0.1-1.2-0.1h-0.8c-0.3-0.1-0.7-0.1-1-0.2h-0.7 c-0.1,0-0.2,0-0.3-0.1h-0.1c-0.1,0-0.2,0-0.3-0.1c-0.1,0-0.2,0-0.3-0.1c-0.6-0.1-1.1-0.2-1.6-0.4h-0.2c-0.1,0-0.3-0.1-0.4-0.1 h-0.3c-0.2,0-0.4-0.1-0.6-0.1c-0.1,0-0.2-0.1-0.3-0.1c-0.3-0.1-0.7-0.2-1-0.3H30c-0.3-0.1-0.5-0.1-0.8-0.2H29l-0.3-0.1h-1 c-0.1-0.1-0.2-0.2-0.2-0.2s-0.5,0.7-0.5,2c1.1,1.6,4.6,2.1,9.4,2.8c4.8,0.6,7.7,0.5,9.7-0.3c2-0.9,5.5-4.9,8-5.2 c2.5-0.2,5.5-1.5,6.7-2.3c0.6-0.4,0.4-3,0.4-3L61.4,230.6z"/>
</g>
<g id="Top_Basic-Boot" style="fill: rgb(111, 103, 103);">
<path d="M121.1,217.2c0.7,3.3,1.7,6.1,3.9,8.8c3.4,4.3,9.1,4.6,13.1,8.1c1,0.9,1,2.3,1.1,3.6c-1.7,0.5-3.1,0.8-5,1.3 c-0.1-1.3,0.1-2.8-1-3.7c-4-3.5-10.3-3.3-13.6-7.6c-2.2-2.8-2.2-6.4-2.9-9.7h0.3l0.6-0.1h0.7c0.3,0,0.7-0.1,1-0.2l0.5-0.1h0.2 l0.4-0.1l0.3-0.1h0.1C121,217.3,121.1,217.2,121.1,217.2z"/>
<path d="M47.6,217.2c-0.7,3.3-1.7,6.1-3.9,8.8c-3.4,4.3-9.1,4.6-13.1,8.1c-1,0.9-1,2.3-1.1,3.6 c1.6,0.5,3.1,0.8,5,1.3c0.1-1.3-0.1-2.8,1-3.7c4-3.5,10.3-3.3,13.6-7.6c2.2-2.8,2.2-6.4,2.9-9.7h-0.3l-0.6-0.1h-0.7 c-0.3,0-0.7-0.1-1-0.2l-0.5-0.1h-0.2l-0.4-0.1l-0.3-0.1h-0.1C47.8,217.3,47.7,217.2,47.6,217.2z"/>
</g>
<g id="Side_Basic-Boot" style="fill: rgb(111, 103, 103);">
<path d="M108.7,216.8c1.4,0.1,2.9,0.9,4.1,1.1h0.2v1.2c0,2-0.2,10.8-0.6,10.7c-0.4,0-1.6-0.2-1.9-0.5 c-0.2-0.2-0.2-0.7-0.3-1c-0.2-0.9-0.4-1.7-0.5-2.6c-0.2-1.2-0.3-2.4-0.4-3.5C109.2,220.3,108.9,218.6,108.7,216.8z"/>
<path d="M60.1,216.8c-1.4,0.1-2.9,0.9-4.1,1.1h-0.2v1.2c0,2,0.2,10.8,0.6,10.7c0.4,0,1.6-0.2,1.9-0.5 c0.2-0.2,0.2-0.7,0.3-1c0.2-0.9,0.4-1.7,0.5-2.6c0.2-1.2,0.3-2.4,0.4-3.5C59.6,220.3,59.9,218.6,60.1,216.8z"/>
</g>
</g>
</g>
<g id="Gloves">
<g id="Left-Glove">
<g id="Basic_Left_Glove" class="option" style="fill: rgb(41, 35, 35); display: inherit;">
<path d="M137.6,124.1c-0.5,0-1,0-1.6,0.1c-0.4,0.1-0.7,0.2-1,0.3c-1,0.6-0.7,1.8,0.2,2.3c1,0.6,2.6,0,3.1-1.1 C138.5,125.3,137.9,124.5,137.6,124.1"/>
<path d="M135.8,125.2c-0.5,0-1,0-1.6,0.1c-0.4,0.1-0.7,0.2-1,0.3c-1,0.6-0.7,1.8,0.2,2.3c1,0.5,2.6,0,3.1-1.1 C136.7,126.4,136.1,125.6,135.8,125.2"/>
<path d="M134.5,126.6c-0.5,0-1.2,0.1-1.7,0.3c-0.3,0.1-0.7,0.3-1,0.5c-0.9,0.7-0.5,1.9,0.5,2.2 c1.1,0.4,2.6-0.3,2.9-1.5C135.4,127.7,134.5,126.6,134.5,126.6z"/>
<path d="M131.6,110c0,0-1.6,2.1-2,3.7c-0.3,1.1-0.1,3.7-0.5,5.4c-0.4,1.7-0.7,2.7-0.7,2.7s-1.4,2.8-1.1,3.4 c0.2,0.6,1.4,1.2,2.1,0.9c0.9-0.4,1.9-2.4,2.6-3.8c0.7-1.4,1.2-3.4,1.2-3.4s0.9,0.3,1.4,0.7c1.6,1.2,0.9,5,0.9,5 s-0.7,1.3-1.7,2.8c-1.4,2-3.4,3.8-2.1,5.4c1.3,1.5,4.2-2.4,4.2-2.4l2.9-3.7c0,0,3.3-5.4,3.4-6.5c0.1-0.8,0-3.5,0-3.5l-1-10.4 l-5.2,0.4l-4.3,1.4L131.6,110"/>
</g>
</g>
<g id="Right-Glove">
<g id="Basic_Right_Glove" class="option" style="fill: rgb(41, 35, 35); display: inherit;">
<path d="M31.1,124.1c0.5,0,1,0,1.6,0.1c0.4,0.1,0.7,0.2,1,0.3c1,0.6,0.7,1.8-0.2,2.3c-1,0.6-2.6,0-3.1-1.1 C30.3,125.3,30.9,124.5,31.1,124.1"/>
<path d="M32.9,125.2c0.5,0,1,0,1.6,0.1c0.4,0.1,0.7,0.2,1,0.3c1,0.6,0.7,1.8-0.2,2.3c-1,0.5-2.6,0-3.1-1.1 C32.1,126.4,32.7,125.6,32.9,125.2"/>
<path d="M34.2,126.6c0.5,0,1.2,0.1,1.7,0.3c0.3,0.1,0.7,0.3,1,0.5c0.9,0.7,0.5,1.9-0.5,2.2c-1.1,0.4-2.6-0.3-2.9-1.5 C33.3,127.7,34.2,126.6,34.2,126.6z"/>
<path d="M37.1,110c0,0,1.5,2.1,2,3.7c0.3,1.1,0.1,3.7,0.5,5.4c0.4,1.7,0.7,2.7,0.7,2.7s1.4,2.8,1.1,3.4 c-0.2,0.6-1.4,1.2-2.1,0.9c-0.9-0.4-1.9-2.4-2.6-3.8c-0.7-1.4-1.2-3.4-1.2-3.4s-0.9,0.3-1.4,0.7c-1.6,1.2-0.9,5-0.9,5 s0.7,1.3,1.7,2.8c1.4,2,3.4,3.8,2.1,5.4c-1.3,1.5-4.2-2.4-4.2-2.4l-2.9-3.7c0,0-3.3-5.4-3.4-6.5c-0.1-0.8,0-3.5,0-3.5l1-10.4 l5.2,0.4l4.3,1.4L37.1,110"/>
</g>
</g>
</g>
<g id="Biceps">
<g id="Left-Biceps">
<g id="Basic_Biceps_Left" class="option" style="display: inherit;">
<path id="Main_Basic_Biceps_Left" d="M133.5,52c-1.1-2.7-6.2-14.8-6.2-14.8s-8.3,3.4-10.4,4.3 c-0.6,0.2-0.9,0.9-0.6,1.5c1,2.4,3.4,8.1,4.8,11.7c0.3,0.8,1,1.5,1.8,1.8c0.8,0.3,1.7,0.3,2.5,0c2.4-1,5.7-2.4,7.4-3 C133.5,53.2,133.8,52.6,133.5,52" style="fill: rgb(222, 90, 0);"/>
<path id="Strap_Basic_Biceps_Left" d="M118.6,48.3l-5.8,2.4l-0.1,4.3l7.4-3.1L118.6,48.3" style="fill: rgb(153, 44, 197);"/>
<path id="Trauma-Plate_Basic_Biceps_Left" class="toggle" style="display: none; fill: rgb(255, 255, 255);" d="M133.5,51.4l-5.3-12.7l-10.1,4.2l4.6,11.2 c0.2,0.4,0.5,0.7,0.9,0.9s0.8,0.2,1.2,0L133.5,51.4"/>
</g>
</g>
<g id="Right-Biceps">
<g id="Basic_Biceps_Right" class="option" style="display: inherit;">
<path id="Main_Basic_Biceps_Right" d="M35.4,52c1.2-2.8,6.2-14.8,6.2-14.8s8.3,3.4,10.4,4.3c0.6,0.2,0.9,0.9,0.6,1.5 c-1,2.4-3.4,8.1-4.8,11.7c-0.3,0.8-1,1.5-1.8,1.8s-1.7,0.3-2.5,0c-2.4-1-5.7-2.4-7.4-3C35.5,53.2,35.2,52.6,35.4,52" style="fill: rgb(222, 90, 0);"/>
<path id="Strap_Basic_Biceps_Right" d="M50.4,48.3l5.8,2.4l0.1,4.3l-7.4-3.1L50.4,48.3" style="fill: rgb(153, 44, 197);"/>
<path id="Trauma-Plate_Basic_Biceps_Right" class="toggle" style="display: none; fill: rgb(255, 255, 255);" d="M35.5,51.4l5.3-12.7l10.1,4.2l-4.6,11.2 c-0.2,0.4-0.5,0.7-0.9,0.9c-0.4,0.2-0.8,0.2-1.2,0L35.5,51.4"/>
</g>
</g>
</g>
<g id="Vest" style="fill: rgb(41, 35, 35);">
<path d="M84.4,20.9c8.4,0,15.3-4.3,15.5-8h0.1l18.3,5.4l13.2,23.9l-2.8,1.2l-13.3-8.6l-2.3,3.7l-1.5,47.4 c0,0-8.7,4.7-13.4,5.3c-3.4,0.5-8.6,0.7-13.7,0.7s-10.3-0.2-13.7-0.7c-4.8-0.6-13.4-5.3-13.4-5.3l-1.5-47.4l-2.3-3.7l-13.3,8.6 l-2.8-1.2l13.2-23.9L69,12.9h0.1C69,16.6,75.9,20.9,84.4,20.9"/>
</g>
<g class="swappable" id="Chest">
<g id="Chest_Galaxy" style="visibility: visible;">
<g id="Abdomen_Galaxy">
<path id="Abdomen-Plate_Galaxy" d="M77.5,73l-2.1,1.5L65,73l-0.8-5.8l5-0.1l3-4.9l1.4-4.5l10.9-10l10.9,10l1.4,4.5 l3,4.9l5,0.1L104,73l-10.5,1.5L91.4,73H77.5" style="fill: rgb(111, 103, 103);"/>
<path id="Trauma-Plate_Abdomen_Galaxy" class="toggle" style="display: none; fill: rgb(255, 255, 255);" d="M84.4,50L75,58.6l-1.3,4.3l-3.6,5.9l-4,0.1l0.4,2.7l8.5,1.2 l2-1.4h14.9l2,1.4l8.5-1.2l0.4-2.7l-4-0.1l-3.6-5.9l-1.3-4.3L84.4,50"/>
</g>
<g id="Full-Chest_Galaxy">
<path id="Chest-Plate_Galaxy" d="M80.1,33.2v10.1l3.2,3.2L72.1,57.2l-1.5,4.9L68.2,66h-4.1l-2-2.9l-2.5-14.2 l-3.7-5.8l4.7-15.2l5.4-0.7l0.8-3.4l5.8-0.7l1.8,3h20l1.8-3l5.8,0.7l0.8,3.4l5.4,0.7l4.7,15.2l-3.7,5.8l-2.5,14.2l-2,2.9h-4.1 l-2.4-3.9l-1.5-4.9L85.5,46.6l3.2-3.2V33.3l-4.4-3.4L80.1,33.2" style="fill: rgb(153, 44, 197);"/>
<path id="Trauma-Plating_Left-Chest_Galaxy" class="toggle" style="display: none; fill: rgb(255, 255, 255);" d="M95.4,27.8H84.6l5.9,4.6v11.7L88,46.6l10.2,9.7l1.5,5.1 l1.8,2.9h2.3l1.3-1.9l2.5-14.2l3.5-5.4L107,29.4l-5.5-0.7l-0.8-3.4l-3.5-0.4L95.4,27.8"/>
<path id="Trauma-Plating_Right-Chest_Galaxy" class="toggle" style="display: none; fill: rgb(255, 255, 255);" d="M71.8,24.9l-3.5,0.4l-0.8,3.4L62,29.4l-4.1,13.4l3.5,5.4 l2.5,14.2l1.3,1.9h2.3l1.8-2.9l1.5-5.1L81,46.6l-2.5-2.5V32.4l5.9-4.6H73.5L71.8,24.9"/>
<g id="Accents_Chest-Plate_Galaxy" class="toggle" style="fill: rgb(111, 103, 103);">
<path d="M104.7,31h-9.2v1.2h9.2V31"/>
<path d="M104.7,33.2h-9.2v1.2h9.2V33.2"/>
</g>
</g>
<g id="Iron-Heart_Galaxy">
<path id="Heart_Galaxy" d="M81.8,43.1V34l2.7-2.1l2.7,2.1v9.1l-2.7,2.7L81.8,43.1" style="fill: rgb(111, 103, 103);"/>
<path id="Center_Heart_Galaxy" class="option" d="M85.4,35.4h-1.9v6.2h1.9V35.4" style="fill: rgb(221, 83, 0); display: inherit;"/>
</g>
<g id="Neck-Armor_Galaxy">
<g id="Neck-Plate_Galaxy" style="fill: rgb(153, 44, 197);">
<path d="M82.2,25.1l-7.3,0.1l-1.8-3l-7,0.8l-0.7,3.2l-4.5,0.6l-3.3-11.4L69.1,12c0,0,1.5,2.6,2.6,3.5 c1.1,0.9,2.6,2,4.1,2.6c1.5,0.7,3.4,1.1,5.2,1.4c0.2,0,0.4,0.1,0.6,0.1L82.2,25.1"/>
<path d="M86.7,25.1l7.3,0.1l1.8-3l7,0.8l0.7,3.1l4.5,0.6l3.3-11.4l-11.5-3.4c0,0-1.5,2.6-2.6,3.5 c-1.1,0.9-2.6,2-4.1,2.6c-1.5,0.7-3.4,1.1-5.2,1.4c-0.2,0-0.4,0.1-0.6,0.1L86.7,25.1"/>
</g>
<g id="Trauma-Plates_Neck_Galaxy" class="toggle" style="display: none; fill: rgb(255, 255, 255);"/>
</g>
</g>
</g>
<g id="Chest-Attachments">
<g id="Bandoleer_Accessories_Chest" class="option" style="display: inherit;">
<g id="Strap_Bandoleer_Accessories_Chest" style="fill: rgb(111, 103, 103);">
<path d="M112.3,15l-6.6-3.2L64.2,87.1l6.6,3.6L112.3,15"/>
<path d="M110.6,13.8l-2.5-1.2l-8.3,15l2.4,1.3L110.6,13.8"/>
<path d="M98.8,35.4l-2.7-1.5L83.4,57l2.7,1.5L98.8,35.4"/>
<path d="M99.1,36.3l-3.9-2.1l-1.3,2.3l3.9,2.1L99.1,36.3"/>
<path d="M97.5,39.1L93.6,37l-1.3,2.3l3.9,2.1L97.5,39.1"/>
<path d="M96,41.9l-3.9-2.1l-1.3,2.3l3.9,2.1L96,41.9"/>
<path d="M94.4,44.7l-3.9-2.1l-1.3,2.3l3.9,2.1L94.4,44.7"/>
<path d="M92.9,47.5L89,45.4l-1.3,2.3l3.9,2.1L92.9,47.5"/>
<path d="M89.8,53.1L85.9,51l-1.3,2.3l3.9,2.1L89.8,53.1"/>
<path d="M91.4,50.3l-3.9-2.1l-1.3,2.3l3.9,2.1L91.4,50.3"/>
<path d="M88.3,55.9l-3.9-2.1l-1.3,2.3l3.9,2.1L88.3,55.9"/>
</g>
<g id="Ammo_Bandoleer_Accessories_Chest" style="fill: rgb(255, 104, 0);">
<g>
<g>
<path d="M98.9,36.6l1.6,0.9c0.2,0.1,0.2,0.3,0.1,0.5c-0.2,0.3-0.5,0.9-0.7,1.2c-0.1,0.2-0.3,0.2-0.5,0.1L98,38.4 L98.9,36.6"/>
<path d="M100.1,37.2L99,38.9l0.1,0.1L100.1,37.2"/>
<path d="M99.8,37.1l-1.1,1.7l0.1,0.1L99.8,37.1"/>
</g>
<g>
<path d="M95.1,34.4l-1,1.8l-1.6-0.9c-0.2-0.1-0.2-0.3-0.1-0.5c0.2-0.3,0.5-0.9,0.7-1.2c0.1-0.2,0.3-0.2,0.5-0.1 L95.1,34.4"/>
<path d="M93.8,33.8l-1.1,1.7l0.1,0.1L93.8,33.8"/>
</g>
</g>
<g>
<g>
<path d="M95.8,42.2l1.6,0.9c0.2,0.1,0.2,0.3,0.1,0.5c-0.2,0.3-0.5,0.9-0.7,1.2c-0.1,0.2-0.3,0.2-0.5,0.1L94.7,44 L95.8,42.2"/>
<path d="M97,42.8l-1.1,1.7l0.1,0.1L97,42.8"/>
<path d="M96.7,42.7l-1.1,1.7l0.1,0.1L96.7,42.7"/>
</g>
<g>
<path d="M92,40l-1,1.8l-1.6-0.9c-0.2-0.1-0.2-0.3-0.1-0.5c0.2-0.3,0.5-0.9,0.7-1.2c0.1-0.2,0.3-0.2,0.5-0.1L92,40"/>
<path d="M90.8,39.4l-1.1,1.7l0.1,0.1L90.8,39.4"/>
</g>
</g>
<g>
<g>
<path d="M94.3,45l1.6,0.9c0.2,0.1,0.2,0.3,0.1,0.5c-0.2,0.3-0.5,0.9-0.7,1.2c-0.1,0.2-0.3,0.2-0.5,0.1l-1.6-0.9 L94.3,45"/>
<path d="M95.5,45.6l-1.1,1.7l0.1,0.1L95.5,45.6"/>
<path d="M95.2,45.5l-1.1,1.7l0.1,0.1L95.2,45.5"/>
</g>
<g>
<path d="M90.4,42.8l-1,1.8l-1.6-0.9c-0.2-0.1-0.2-0.3-0.1-0.5c0.2-0.3,0.5-0.9,0.7-1.2c0.1-0.2,0.3-0.2,0.5-0.1 L90.4,42.8"/>
<path d="M89.2,42.2l-1.1,1.7l0.1,0.1L89.2,42.2"/>
</g>
</g>
<g>
<g>
<path d="M92.8,47.8l1.6,0.9c0.2,0.1,0.2,0.3,0.1,0.5c-0.2,0.3-0.5,0.9-0.7,1.2c-0.1,0.2-0.3,0.2-0.5,0.1l-1.6-0.9 L92.8,47.8"/>
<path d="M93.9,48.4l-1.1,1.7l0.1,0.1L93.9,48.4"/>
<path d="M93.6,48.3L92.5,50l0.1,0.1L93.6,48.3"/>
</g>
<g>
<path d="M88.9,45.6l-1,1.8l-1.6-0.9c-0.2-0.1-0.2-0.3-0.1-0.5c0.2-0.3,0.5-0.9,0.7-1.2c0.1-0.2,0.3-0.2,0.5-0.1 L88.9,45.6"/>
<path d="M87.7,45l-1.1,1.7l0.1,0.1L87.7,45"/>
</g>
</g>
</g>
<g id="Buckles_Bandoleer_Accessories_Chest" style="fill: rgb(153, 44, 197);">
<g>
<path d="M103.3,27.4l-2.9-1.6l-1.6,2.9l2.9,1.6L103.3,27.4"/>
<path d="M102.6,27.9l-2.2-1.2l-1.6,2.9l2.2,1.2L102.6,27.9"/>
</g>
<path d="M103.3,23.9l-1.8-1l1.6-2.9l3.7,2l-1.6,2.9L103.3,23.9l0.4-0.7l1.1,0.6l0.9-1.6l-2.1-1.1l-0.9,1.6l1,0.6"/>
</g>
</g>
</g>
<g id="Collar">
<g id="None_Collar" class="option" style="display: inherit;">
</g>
</g>
<svg version="1.1" id="Helmets" xmlns="http://www.w3.org/2000/svg" y="-54px" height="85px" viewBox="0 0 80 80" class="swappable">
<g id="Helmet_Classic" style="visibility: visible;">
<g id="Left-Earcap_Classic" class="toggle">
<path id="Ear-Cap_Left_Classic" d="M60.1,57.2l1.7-2.6l-1.7-17.8l-2.4-1.5L60.1,57.2z" style="fill: rgb(153, 44, 197);"/>
</g>
<g id="Right-Earcap_Classic" class="toggle">
<path id="Ear-Cap_Right_Classic" d="M19.9,57.2l-1.7-2.6l1.7-17.8l2.4-1.5L19.9,57.2z" style="fill: rgb(153, 44, 197);"/>
</g>
<g id="Helmet_Pieces_Classic">
<g id="Face_Classic" style="fill: rgb(153, 44, 197);">
<path d="M22.2,58.7c0,0,0.6-4.2,1.5-6.3c0.9-2.1,2.7-4.4,4.8-4.1c1.6,0.3,4.8,7.9,5.1,17.3 C33.4,65.6,22.2,58.7,22.2,58.7z"/>
<path d="M57.8,58.7c0,0-0.6-4.2-1.5-6.3c-0.9-2.1-2.7-4.4-4.8-4.1c-1.6,0.3-4.8,7.9-5.1,17.3 C46.5,65.6,57.8,58.7,57.8,58.7z"/>
</g>
<g id="Cheeks_Classic" style="fill: rgb(111, 103, 103);">
<path d="M22.2,58.7l-2.4-0.1l1.8-16.3c0.6,0.2,5.7,1.8,7.4,3.4c1.8,1.7,3,4.3,3.6,6.8c0.6,2.7,1,9.6,1.1,12.2 c-0.4-8.9-3.5-16-5-16.3c-2-0.4-3.8,2-4.8,4.1C22.8,54.5,22.2,58.7,22.2,58.7z"/>
<path d="M46.4,64.7c0.1-2.6,0.4-9.6,1.1-12.2c0.6-2.5,1.8-5.1,3.6-6.8c1.7-1.6,6.6-3.1,7.4-3.3l1.8,16.3l-2.4,0.2 v-0.1c0,0-0.6-4.2-1.5-6.3c-0.9-2.1-2.7-4.4-4.8-4.1C49.9,48.7,46.9,55.8,46.4,64.7z"/>
</g>
<path id="Eyes_Classic" d="M46.4,65.7H33.6c0,0-0.3-9.9-1.1-13.3c-0.6-2.5-1.8-5.1-3.6-6.8c-1.8-1.7-7.3-3.4-7.3-3.4 l0.7-6.3c0,0,5.7,0.7,8.6,0.9C33.6,37,39,37,40.1,37c1.1,0,6.5,0,9.2-0.2c2.9-0.2,8.6-0.9,8.6-0.9l0.7,6.3c0,0-5.5,1.7-7.3,3.4 c-1.8,1.7-3,4.3-3.6,6.8C46.7,55.8,46.4,65.7,46.4,65.7z" style="fill: rgb(153, 44, 197);"/>
<g id="Visors_Classic">
<path id="Basic_Visor_Classic" class="option" d="M43.4,65.7h-6.9V42.3c0,0-3.8-0.4-5.7-0.8C28.6,41,23,39.2,23,39.2l0.1-1.3 c0,0,5.2,0.9,7.8,1.2c2.6,0.3,6.1,0.6,9.1,0.6s6.5-0.4,9.1-0.6c2.6-0.3,7.8-1.2,7.8-1.2l0.1,1.3c0,0-5.6,1.8-7.9,2.3 c-1.9,0.4-5.7,0.8-5.7,0.8V65.7z" style="fill: rgb(0, 0, 0); display: inherit;"/>
</g>
<path id="Dome_Classic" d="M22.2,36.1L22.2,36.1c0.1-9.4,7.9-16.9,17.6-17.1h0.4c9.7,0.2,17.5,7.7,17.6,17v0.1 c-0.8,0.1-5.9,0.7-8.6,0.9s-8.1,0.2-9.2,0.2s-6.5,0-9.2-0.2S23,36.1,22.2,36.1z" style="fill: rgb(111, 103, 103);"/>
</g>
</g>
</svg>
<g id="Shoulders">
<g id="Left-Shoulder">
<g id="Classic_Shoulder_Left" class="option" style="display: inherit;">
<path id="Main_Shoulder_Classic_Left" d="M116.5,13.4L114,24.8l2,6.5l13.4,6.8l2.3-3.5L116.5,13.4" style="fill: rgb(153, 44, 197);"/>
<path id="Trauma-Plates_Shoulder_Classic_Left" class="toggle" style="display: none; fill: rgb(255, 255, 255);" d="M115.7,24.7l1.7,5.4l11.4,5.8l1.9-3l-12.8-18 L115.7,24.7"/>
</g>
</g>
<g id="Right-Shoulder">
<g id="Classic_Shoulder_Right" class="option" style="display: inherit;">
<path id="Main_Shoulder_Classic_Right" d="M52.5,13.4L55,24.8l-2,6.5l-13.4,6.8l-2.3-3.5L52.5,13.4" style="fill: rgb(153, 44, 197);"/>
<path id="Trauma-Plates_Shoulder_Classic_Right" class="toggle" style="display: none; fill: rgb(255, 255, 255);" d="M53.2,24.7l-1.7,5.4l-11.4,5.8l-1.9-3l12.8-18 L53.2,24.7"/>
</g>
</g>
</g>
<g id="Gauntlets">
<g id="Left-Gauntlets">
<g id="Heavy_Gauntlet_Left" class="option" style="display: inherit;">
<g id="Top-2_Heavy_Gauntlet_Left" style="fill: rgb(153, 44, 197);">
<path d="M139.8,78.9l1.7,0.1l1.4,8.1l-1.5,1.2L139.8,78.9"/>
<path d="M141.4,87.6l1.8,10.6l-0.9,1.3l1.1,6.2L143,106l-3.1-17L141.4,87.6"/>
<path d="M141.4,84.6c0.2,0,0.4,0.2,0.4,0.4s-0.2,0.4-0.4,0.4c-0.2,0-0.4-0.2-0.4-0.4S141.2,84.6,141.4,84.6"/>
</g>
<g id="Top-1_Heavy_Gauntlet_Left" style="fill: rgb(153, 44, 197);">
<path d="M138.5,107.2l4.3-1.2l-3.1-17l1.5-1.4l-1.6-9.3l-6.6-0.7L138.5,107.2"/>
<path d="M138,78.2l1.8,10.8"/>
</g>
<g id="Accent-Top_Heavy_Gauntlet_Left" style="fill: rgb(111, 103, 103);">
<path d="M141.6,103.4l-2.8,0.6l0.4,2.1l2.8-0.7L141.6,103.4"/>
<path d="M139.9,94.4l-2.8,0.6l1.6,8.4l2.8-0.6L139.9,94.4"/>
<path d="M137.4,78.8l-3.1-0.2l1.6,9.2l2.9-0.6L137.4,78.8"/>
</g>
<path id="Bottom_Heavy_Gauntlet_Left" d="M133.2,78.1c-3.4,0.1-6.8,1.6-9,4.4c-0.7,0.9-0.9,2.1-0.6,3.2 c1.6,5.3,7,22.8,7,22.8l7.9-1.4L133.2,78.1" style="fill: rgb(111, 103, 103);"/>
<g id="Accent-Bottom_Heavy_Gauntlet_Left" style="fill: rgb(111, 103, 103);">
<path d="M138.5,107.2l-7.9,1.4l-0.4-1.4l8.1-1.5L138.5,107.2"/>
<path d="M133.6,80.1c-4.3,0.4-7.9,2-9.6,6.7l-0.3-1c-0.3-0.9-0.2-1.8,0.2-2.6l0.4-0.7c2.2-2.8,5.6-4.2,9-4.4 L133.6,80.1"/>
<path d="M132.5,78.8l-3.5,0.7l2.8,13.9l3.5-0.7L132.5,78.8"/>
<path d="M132.1,79.1l-2.6,0.5l2.5,12.8l2.6-0.5L132.1,79.1"/>
<path d="M129.5,79.6l-0.5-0.2"/>
<path d="M132.5,78.8l-0.4,0.3"/>
<path d="M135.2,92.7l-0.6-0.7"/>
<path d="M131.7,93.4l0.4-0.9"/>
</g>
<g id="No-Device_Attachment_Heavy_Gauntlet_Left" class="option" style="display: inherit;">
</g>
</g>
</g>
<g id="Right-Gauntlets">
<g id="Heavy_Gauntlet_Right" class="option" style="display: inherit;">
<g id="Top-2_Heavy_Gauntlet_Right" style="fill: rgb(153, 44, 197);">
<path d="M29.3,78.9L27.6,79l-1.4,8.1l1.5,1.2L29.3,78.9"/>
<path d="M27.8,87.6L26,98.2l0.9,1.3l-1.1,6.2l0.4,0.3l3.1-17L27.8,87.6"/>
<path d="M27.7,84.6c-0.2,0-0.4,0.2-0.4,0.4s0.2,0.4,0.4,0.4c0.2,0,0.4-0.2,0.4-0.4S28,84.6,27.7,84.6"/>
</g>
<g id="Top-1_Heavy_Gauntlet_Right" style="fill: rgb(153, 44, 197);">
<path d="M30.6,107.2l-4.3-1.2l3.1-17l-1.5-1.4l1.6-9.3l6.6-0.7L30.6,107.2"/>
<path d="M31.1,78.2L29.3,89"/>
</g>
<g id="Accent-Top_Heavy_Gauntlet_Right" style="fill: rgb(111, 103, 103);">
<path d="M27.5,103.4l2.8,0.6l-0.4,2.1l-2.8-0.7L27.5,103.4"/>
<path d="M29.2,94.4L32,95l-1.6,8.4l-2.8-0.6L29.2,94.4"/>
<path d="M31.7,78.8l3.1-0.2l-1.6,9.2l-2.9-0.6L31.7,78.8"/>
</g>
<path id="Bottom_Heavy_Gauntlet_Right" d="M35.9,78.1c3.3,0.1,6.8,1.6,9,4.4c0.7,0.9,0.9,2.1,0.6,3.2 c-1.6,5.3-7,22.8-7,22.8l-7.9-1.4L35.9,78.1" style="fill: rgb(111, 103, 103);"/>
<g id="Accent-Bottom_Heavy_Gauntlet_Right" style="fill: rgb(111, 103, 103);">
<path d="M30.6,107.2l7.9,1.4l0.4-1.4l-8.1-1.5L30.6,107.2"/>
<path d="M35.5,80.1c4.3,0.4,7.9,2,9.6,6.7l0.3-1c0.3-0.9,0.2-1.8-0.2-2.6l-0.4-0.7c-2.2-2.8-5.6-4.2-9-4.4 L35.5,80.1"/>
<path d="M36.6,78.8l3.5,0.7l-2.8,13.9l-3.5-0.7L36.6,78.8"/>
<path d="M37.1,79.1l2.6,0.5l-2.5,12.8l-2.6-0.5L37.1,79.1"/>
<path d="M39.6,79.6l0.5-0.2"/>
<path d="M36.6,78.8l0.4,0.3"/>
<path d="M33.9,92.7l0.6-0.7"/>
<path d="M37.4,93.4L37,92.5"/>
</g>
<g id="No-Device_Attachment_Heavy_Gauntlet_Right" class="option" style="display: inherit;">
</g>
</g>
</g>
</g>
<g id="Shins">
<g id="Left-Shin">
<g id="Legacy_Shin_Left" class="option" style="display: inherit;">
<path id="Plate-3_Legacy-Shin_Left" d="M105.6,197.1l4.1,15.4c0,0,4.9,1,7.5,0.7c2.6-0.3,6.2-1.7,6.2-1.7l-1.5-16.5 l-7,4.4L105.6,197.1" style="fill: rgb(153, 44, 197);"/>
<path id="Plate-2_Legacy-Shin_Left" d="M102.5,187.6l2.4,9.3l9.9,2.3l7.7-4.8l-0.8-9.4l-8.6,4.4L102.5,187.6" style="fill: rgb(111, 103, 103);"/>
<path id="Plate-1_Legacy-Shin_Left" d="M106.1,174.5l-5.9,6.5l1.7,6.5l11.2,2l9.2-4.7l-0.6-8l-7.2-3.5L106.1,174.5" style="fill: rgb(153, 44, 197);"/>
<path id="Trauma-Plate-3_Legacy-Shin_Left" class="toggle" style="display: none; fill: rgb(255, 255, 255);" d="M120.4,197.8l-4.7,2.9c-0.4,0.2-0.8,0.3-1.3,0.2l-6.5-1.5 L111,211c1.5,0.3,4.2,0.6,6,0.4c1.5-0.2,3.4-0.8,4.6-1.2L120.4,197.8"/>
<path id="Trauma-Plate-2_Legacy-Shin_Left" class="toggle" style="display: none; fill: rgb(255, 255, 255);" d="M120.2,187.7l-6.4,3.3c-0.3,0.2-0.7,0.2-1.1,0.2l-8-1.4 l1.5,5.8l8.2,1.9l6.2-3.8L120.2,187.7"/>
<path id="Trauma-Plate-1_Legacy-Shin_Left" class="toggle" style="display: none; fill: rgb(255, 255, 255);" d="M107,176.1l-4.9,5.4l1.2,4.5l9.6,1.7l7.7-4l-0.5-5.9 l-5.9-2.8L107,176.1"/>
<g id="Ridge_Legacy-Shin_Left" class="toggle" style="display: none; fill: rgb(255, 255, 255);"/>
</g>
</g>
<g id="Right-Shin">
<g id="Legacy_Shin_Right" class="option" style="display: inherit;">
<path id="Plate-3_Legacy-Shin_Right" d="M63.2,197.1l-4.1,15.4c0,0-4.9,1-7.5,0.7c-2.6-0.3-6.2-1.7-6.2-1.7l1.5-16.5 l7,4.4L63.2,197.1" style="fill: rgb(153, 44, 197);"/>
<path id="Plate-2_Legacy-Shin_Right" d="M66.2,187.6l-2.4,9.3l-9.9,2.3l-7.7-4.8L47,185l8.6,4.4L66.2,187.6" style="fill: rgb(111, 103, 103);"/>
<path id="Plate-1_Legacy-Shin_Right" d="M62.7,174.5l5.9,6.5l-1.7,6.5l-11.2,2l-9.2-4.7l0.6-8l7.2-3.5L62.7,174.5" style="fill: rgb(153, 44, 197);"/>
<path id="Trauma-Plate-3_Legacy-Shin_Right" class="toggle" style="display: none; fill: rgb(255, 255, 255);" d="M48.4,197.8l4.7,2.9c0.4,0.2,0.8,0.3,1.3,0.2l6.5-1.5 L57.8,211c-1.5,0.3-4.2,0.6-6,0.4c-1.5-0.2-3.4-0.8-4.6-1.2L48.4,197.8"/>
<path id="Trauma-Plate-2_Legacy-Shin_Right" class="toggle" style="display: none; fill: rgb(255, 255, 255);" d="M48.6,187.7L55,191c0.3,0.2,0.7,0.2,1.1,0.2l8-1.4 l-1.5,5.8l-8.2,1.9l-6.2-3.8L48.6,187.7"/>
<path id="Trauma-Plate-1_Legacy-Shin_Right" class="toggle" style="display: none; fill: rgb(255, 255, 255);" d="M61.8,176.1l4.9,5.4l-1.2,4.5l-9.6,1.7l-7.7-4l0.5-5.9 l5.9-2.8L61.8,176.1"/>
<g id="Ridge_Legacy-Shin_Right" class="toggle" style="display: none; fill: rgb(255, 255, 255);"/>
</g>
</g>
</g>
<g id="Foot">
<g id="Left-Ankle">
<g id="Heavy_Ankle_Left" class="option" style="display: inherit;">
<path id="Plate_Heavy-Ankle_Left" d="M106.5,218.5l0.4,3.6l7.4,9.3l7.2-3.2l7.8-2l-5.9-10.5c-3-0.4-6.5-0.1-10.5,1.2 l-2.2,2L106.5,218.5" style="fill: rgb(111, 103, 103);"/>
<path id="Trim_Heavy-Ankle_Left" d="M112.9,216.7l0.8,1l-2.6,2.2l-3-0.1l0.1,1.5l6.4,7.9l6.4-3l7.7-1.8l0.8,1.6 l-8.1,2.1l-7.2,3.2l-7.4-9.3l-0.4-3.6l4.1,0.2L112.9,216.7" style="fill: rgb(153, 44, 197);"/>
</g>
</g>
<g id="Left-Toe">
<g id="None_Toe_Left" class="option" style="display: inherit;">
</g>
</g>
<g id="Right-Ankle">
<g id="Heavy_Ankle_Right" class="option" style="display: inherit;">
<path id="Plate_Heavy-Ankle_Right" d="M62.3,218.5l-0.4,3.6l-7.4,9.3l-7.2-3.2l-7.8-2l5.9-10.5 c3-0.4,6.5-0.1,10.5,1.2l2.2,2L62.3,218.5" style="fill: rgb(111, 103, 103);"/>
<path id="Trim_Heavy-Ankle_Right" d="M55.9,216.7l-0.8,1l2.6,2.2l3-0.1l-0.1,1.5l-6.4,7.9l-6.4-3l-7.7-1.8l-0.8,1.6 l8.1,2.1l7.2,3.2L62,222l0.4-3.6l-4.1,0.2L55.9,216.7" style="fill: rgb(153, 44, 197);"/>
</g>
</g>
<g id="Right-Toe">
<g id="None_Toe_Right" class="option" style="display: inherit;">
</g>
</g>
</g>
<g id="Knees">
<g id="Left-Knee">
<g id="Basic_Knee_Left" class="option" style="display: inherit;">
<g id="Missiles_Basic-Knee_Left" class="toggle" style="display:none"/>
<g id="Knee_Basic-Knee_Left" style="fill: rgb(153, 44, 197);">
<path d="M95.8,158.4l1.4-0.2c0,0,1.1,6.9,1.6,10c0.1,0.8-0.4,1.5-1.2,1.7L95.8,158.4z"/>
<path d="M97.2,157.8l0.8,5.1c1-0.6,3.7,0.5,4.5,3.6c1.6,5.7,2.9,7,7.9,6.5c3.8-0.4,6.6-2.2,6.9-4.9 c0.5-3.9,0-9.4-0.2-11.8c0-0.3-0.2-0.6-0.4-0.7c-0.2-0.2-0.5-0.3-0.8-0.2C111.7,155.9,97.2,157.8,97.2,157.8z"/>
<path d="M96.7,157.9l0.5-0.1l0.9,5.6l-0.5,0.1L96.7,157.9z"/>
</g>
</g>
</g>
<g id="Right-Knee">
<g id="Basic_Knee_Right" class="option" style="display: inherit;">
<g id="Missiles_Basic-Knee_Right" class="toggle" style="display:none"/>
<g id="Knee_Basic-Knee_Right" style="fill: rgb(153, 44, 197);">
<path d="M73,158.4l-1.4-0.2c0,0-1.1,6.9-1.6,10c-0.1,0.8,0.4,1.5,1.2,1.7L73,158.4z"/>
<path d="M71.6,157.8l-0.8,5.1c-1-0.6-3.7,0.5-4.5,3.6c-1.6,5.7-2.9,7-7.9,6.5c-3.8-0.4-6.6-2.2-6.9-4.9 c-0.5-3.9,0-9.4,0.2-11.8c0-0.3,0.2-0.6,0.4-0.7c0.2-0.2,0.5-0.3,0.8-0.2C57.1,155.9,71.6,157.8,71.6,157.8z"/>
<path d="M72.1,157.9l-0.5-0.1l-0.9,5.6l0.5,0.1L72.1,157.9z"/>
</g>
</g>
</g>
</g>
<g id="Thighs">
<g id="Left-Thigh">
<g id="Legacy_Thigh_Left" class="option" style="display: inherit;">
<path id="Plate-3_Legacy-Thigh_Left" d="M97.1,140l1.8,10.6l10.3,1.6l8.3-3.6l0.4-10.8l-9.4,4.4L97.1,140" style="fill: rgb(111, 103, 103);"/>
<path id="Plate-2_Legacy-Thigh_Left" d="M94.9,129.8l1.7,10.1l11.9,2.3l10-4.7l0.5-12.3l-11.3,7.2L94.9,129.8" style="fill: rgb(153, 44, 197);"/>
<path id="Plate-1_Legacy-Thigh_Left" d="M120,115.2l-8.8-7.7l-11.7,1.9l-6.7,11.1l1.7,9.2l13.2,2.7l11.8-7.5 L120,115.2" style="fill: rgb(111, 103, 103);"/>
<path id="Trauma-Plate-3_Legacy-Thigh_Left" class="toggle" style="display: none; fill: rgb(255, 255, 255);" d="M115.9,141.1l-6.7,3.2c-0.3,0.1-0.7,0.2-1,0.1l-8.7-1.7 l1,6l8.5,1.3l6.7-2.9L115.9,141.1"/>
<path id="Trauma-Plate-2_Legacy-Thigh_Left" class="toggle" style="display: none; fill: rgb(255, 255, 255);" d="M116.9,129l-8.3,5.3c-0.4,0.2-0.8,0.3-1.2,0.2l-10.1-2 l1,5.5l10.1,1.9l8.4-3.9L116.9,129"/>
<path id="Trauma-Plate-1_Legacy-Thigh_Left" class="toggle" style="display: none; fill: rgb(255, 255, 255);" d="M100.6,111.5l-5.8,9.6l1.3,6.8l11.3,2.3l10.3-6.6l0.4-7.3 l-7.3-6.4L100.6,111.5"/>
<g id="Ridge_Legacy-Thigh_Left" class="toggle" style="fill: rgb(153, 44, 197);">
<path d="M110.4,130.6l0.5,10.4l-2.4,1.1l-3.1-0.6l-1.4-9.9l3.7,0.8L110.4,130.6"/>
<path d="M110.9,141.1l0.6,10.1l-2.3,1l-2.7-0.4l-1.2-10.2l3.1,0.6L110.9,141.1"/>
<path d="M103.9,131.7l-2.9-22.5l4-2.1l4.3,0.7l1.1,22.8l-2.8,1.8L103.9,131.7"/>
<path d="M105.1,107.1l2.6,25.3"/>
<path d="M107.7,132.4l0.8,9.8"/>
<path d="M108.5,142.2l0.7,10"/>
</g>
</g>
</g>
<g id="Right-Thigh">
<g id="Legacy_Thigh_Right" class="option" style="display: inherit;">
<path id="Plate-3_Legacy-Thigh_Right" d="M71.6,140l-1.8,10.6l-10.2,1.6l-8.3-3.6l-0.4-10.8l9.4,4.4L71.6,140" style="fill: rgb(111, 103, 103);"/>
<path id="Plate-2_Legacy-Thigh_Right" d="M73.9,129.8l-1.8,10.1l-11.8,2.3l-10-4.7l-0.5-12.3l11.3,7.2L73.9,129.8" style="fill: rgb(153, 44, 197);"/>
<path id="Plate-1_Legacy-Thigh_Right" d="M48.8,115.2l8.8-7.7l11.7,1.9l6.7,11.1l-1.7,9.2l-13.2,2.7l-11.8-7.5 L48.8,115.2" style="fill: rgb(111, 103, 103);"/>
<path id="Trauma-Plate-3_Legacy-Thigh_Right" class="toggle" style="display: none; fill: rgb(255, 255, 255);" d="M52.9,141.1l6.7,3.2c0.3,0.1,0.7,0.2,1,0.1l8.7-1.7l-1,6 l-8.5,1.3l-6.7-2.9L52.9,141.1"/>
<path id="Trauma-Plate-2_Legacy-Thigh_Right" class="toggle" style="display: none; fill: rgb(255, 255, 255);" d="M51.9,129l8.3,5.3c0.4,0.2,0.8,0.3,1.2,0.2l10.1-2 l-0.9,5.5l-10.1,1.9l-8.4-3.9L51.9,129"/>
<path id="Trauma-Plate-1_Legacy-Thigh_Right" class="toggle" style="display: none; fill: rgb(255, 255, 255);" d="M68.2,111.5l5.8,9.6l-1.3,6.8l-11.3,2.3l-10.3-6.6 l-0.4-7.3l7.3-6.4L68.2,111.5"/>
<g id="Ridge_Legacy-Thigh_Right" class="toggle" style="fill: rgb(153, 44, 197);">
<path d="M58.3,130.6L57.8,141l2.4,1.1l3.1-0.6l1.4-9.9l-3.7,0.8L58.3,130.6"/>
<path d="M57.9,141.1l-0.7,10.1l2.3,1l2.7-0.4l1.2-10.2l-3.1,0.6L57.9,141.1"/>
<path d="M64.8,131.7l2.9-22.5l-4-2.1l-4.3,0.7l-1.1,22.8l2.8,1.8L64.8,131.7"/>
<path d="M63.7,107.1l-2.6,25.3"/>
<path d="M61.1,132.4l-0.8,9.8"/>
<path d="M60.3,142.2l-0.7,10"/>
</g>
</g>
</g>
</g>
<g id="Groin">
<g id="Basic_Groin" class="option" style="display: inherit;">
<path id="Groin-Plate_Groin" d="M78.1,121.8L67.7,98.9H101l-10.4,22.9l-6.2,5.5L78.1,121.8z" style="fill: rgb(163, 163, 163);"/>
<path id="Trauma-Plating_Groin" class="toggle" style="display: none; fill: rgb(255, 255, 255);" d="M79.2,119.9L70.6,101H98l-8.6,18.9l-5.1,4.5L79.2,119.9z"/>
</g>
</g>
<g id="Waist">
<g id="Accessories_Waist">
<g id="Kama" class="toggle" style="">
<g id="Clean_Kama" class="option" style="display: inherit;">
<g id="Trim_Kama-Clean" style="fill: rgb(153, 44, 197);">
<path d="M100.7,83.2l3.6,57.2l26.3,17.5l-19.9-77.3L100.7,83.2z"/>
<path d="M68.1,83.2l-3.6,57.2l-26.3,17.5l19.9-77.3L68.1,83.2z"/>
</g>
<g id="Main_Kama-Clean" style="fill: rgb(111, 103, 103);">
<path d="M102.6,83l3.5,55.3l23.7,16.3l-19.1-74.2L102.6,83z"/>
<path d="M66.2,83l-3.5,55.3L39,154.6l19.1-74.2L66.2,83z"/>
</g>
</g>
</g>
<g id="Loin-Cloth" class="toggle" style="">
<g id="Clean_Loin-Cloth" class="option" style="display: inherit;">
<path id="Trim_Loin-Cloth-Clean" d="M97,86.8H71.8v44.7l12.6,12.6L97,131.6V86.8z" style="fill: rgb(153, 44, 197);"/>
<path id="Main_Loin-Cloth-Clean" d="M95.3,91.5H73.4v39l11,11l11-11L95.3,91.5z" style="fill: rgb(111, 103, 103);"/>
</g>
</g>
<g id="Left-Holster" class="toggle" style="">
<g id="Hanging-Holster_Left" class="option" style="display: inherit;">
<g id="Weapon_Hanging-Holster-Left">
<g id="Main_Weapon_Hanging-Holster-Left" style="fill: rgb(153, 44, 197);">
<path d="M116.4,122.2l0.2-3.6h0.6l0.1-2.3h-0.6l0.1-1.2c0-0.4,0.5-0.7,1.2-0.6c1.4,0.1,3.9,0.2,5.3,0.2 c0.6,0,1.1,0.4,1.1,0.7l-0.1,1.2h-0.6l-0.1,2.3h0.6l-0.2,3.6l-1.5-0.1l-0.5,10l-4.7-0.2l0.5-10H116.4z"/>
<path d="M123.4,122h-0.8l-0.6,12l-4.7-0.2l0.6-12h-0.8l0.1-2.7l6.4,0.3L123.4,122z"/>
<path d="M122.4,115.5l-3.8-0.2l-0.2,3.7l3.8,0.2L122.4,115.5z"/>
<path d="M118.9,122.9h-0.6l-0.4,9.4h0.6L118.9,122.9z"/>
<path d="M120.5,120.8h-0.6l-0.4,9.4h0.6L120.5,120.8z"/>
<path d="M122,123h-0.6l-0.4,9.4h0.6L122,123z"/>
</g>
<g id="Accent_Weapon_Hanging-Holster-Left" style="fill: rgb(221, 83, 0);">
<path d="M119,119.4v0.4l2.7,0.1v-0.4L119,119.4z"/>
<path d="M118.9,119.8v0.4l2.7,0.1v-0.4L118.9,119.8z"/>
<path d="M119,119.1v0.4l2.7,0.1v-0.4L119,119.1z"/>
<path d="M119.2,114.4v0.4l2.7,0.1v-0.4L119.2,114.4z"/>
<path d="M119.2,115.4h-0.6l-0.2,3.7h0.6L119.2,115.4z"/>
<path d="M122.4,115.5h-0.6l-0.2,3.7h0.6L122.4,115.5z"/>
<path d="M121.4,123h-0.9l-0.4,9.4h0.9L121.4,123z"/>
<path d="M119.8,122.9h-0.9l-0.4,9.4h0.9L119.8,122.9z"/>
</g>
</g>
<path id="Holster_Hanging-Holster-Left" d="M116.4,136.1l-0.8-15.2l7,11.4l-1.6,20.6c-1.6,1.7-3.2,1.7-4.8-0.2 L116.4,136.1z" style="fill: rgb(111, 103, 103);"/>
<g id="Straps_Hanging-Holster-Left" style="fill: rgb(111, 103, 103);">
<path d="M89.6,96.5c7.7,11,15.4,20.3,26,24.5l0.1,2.6c-13.3-5.6-20.4-15.1-28.2-27.1H89.6z"/>
<path d="M116.3,139.2c-7.2,5.5-14.9,8.5-24.2,9l0.7,2.1c8-0.7,15.5-3.7,23.5-8.9V139.2z"/>
<path d="M116.3,141.3v-2.2c1.9,0.8,4,0.9,5.7,0.3l-0.2,2.2C120.1,142.1,118,142.1,116.3,141.3z"/>
</g>
<g id="Buckle_Hanging-Holster-Left" style="fill: rgb(153, 44, 197);">
<path d="M99.6,148l-1,0.1v0.3l1-0.2V148"/>
<path d="M96.9,107.6l-0.7-0.9l-0.3,0.2l0.7,0.9L96.9,107.6"/>
<path d="M96.6,107.8l-1.1,0.9l-2.7-3.3l2.6-2.1l2.7,3.3l-1.2,1l-0.6-0.8l0.6-0.5l-1.5-1.8l-1.4,1.2l1.5,1.8 l0.6-0.5L96.6,107.8"/>
<path d="M99.6,148l-0.8,0.1l-0.1-0.8l-1.9,0.4l0.3,1.8l1.9-0.4l-0.1-0.7l0.8-0.1l0.2,1.4l-3.5,0.7l-0.5-3.3 l3.5-0.7L99.6,148"/>
</g>
</g>
</g>
<g id="Right-Holster" class="toggle" style="">
<g id="Hanging-Holster_Right" class="option" style="display: inherit;">
<g id="Weapon_Hanging-Holster-Right">
<g id="Main_Weapon_Hanging-Holster-Right" style="fill: rgb(153, 44, 197);">
<path d="M52.4,122.2l-0.2-3.6h-0.6l-0.1-2.3h0.6l-0.1-1.2c0-0.4-0.5-0.7-1.2-0.6c-1.4,0.1-3.9,0.2-5.3,0.2 c-0.6,0-1.1,0.4-1.1,0.7l0.1,1.2h0.6l0.1,2.3h-0.6l0.2,3.6l1.5-0.1l0.5,10l4.7-0.2l-0.5-10H52.4z"/>
<path d="M45.4,122h0.8l0.6,12l4.7-0.2l-0.6-12h0.8l-0.1-2.7l-6.4,0.3L45.4,122z"/>
<path d="M46.4,115.5l3.8-0.2l0.2,3.7l-3.8,0.2L46.4,115.5z"/>
<path d="M49.9,122.9h0.6l0.5,9.3h-0.6L49.9,122.9z"/>
<path d="M48.2,120.8h0.6l0.4,9.4h-0.6L48.2,120.8z"/>
<path d="M46.7,123h0.6l0.4,9.4h-0.6L46.7,123z"/>
</g>
<g id="Accent_Weapon_Hanging-Holster-Right" style="fill: rgb(221, 83, 0);">
<path d="M49.8,119.4v0.4l-2.7,0.1v-0.4L49.8,119.4z"/>
<path d="M49.8,119.8v0.4l-2.7,0.1v-0.4L49.8,119.8z"/>
<path d="M49.8,119.1v0.4l-2.7,0.1v-0.4L49.8,119.1z"/>
<path d="M49.6,114.4v0.4l-2.7,0.1v-0.4L49.6,114.4z"/>
<path d="M49.6,115.4h0.6l0.2,3.7h-0.6L49.6,115.4z"/>
<path d="M46.4,115.5H47l0.2,3.7h-0.6L46.4,115.5z"/>
<path d="M47.4,123h0.9l0.4,9.4h-0.9L47.4,123z"/>
<path d="M49,122.9h0.9l0.4,9.4h-0.9L49,122.9z"/>
</g>
</g>
<path id="Holster_Hanging-Holster-Right" d="M52.4,136.1l0.8-15.2l-7,11.4l1.6,20.6c1.6,1.7,3.2,1.7,4.8-0.2 L52.4,136.1z" style="fill: rgb(111, 103, 103);"/>
<g id="Straps_Hanging-Holster-Right" style="fill: rgb(111, 103, 103);">
<path d="M79.2,96.5c-7.7,11-15.4,20.3-26,24.5l-0.1,2.6c13.3-5.6,20.4-15.1,28.2-27.1H79.2z"/>
<path d="M52.4,139.2c7.2,5.5,14.9,8.5,24.2,9l-0.7,2.1c-8-0.7-15.5-3.7-23.5-8.9V139.2z"/>
<path d="M52.4,141.3v-2.2c-1.9,0.8-4,0.9-5.7,0.3l0.2,2.2C48.7,142.1,50.8,142.1,52.4,141.3z"/>
</g>
<g id="Buckle_Hanging-Holster-Right" style="fill: rgb(153, 44, 197);">
<path d="M69.2,148l1,0.1v0.3l-1-0.2V148"/>
<path d="M71.9,107.6l0.7-0.9l0.3,0.2l-0.7,0.9L71.9,107.6"/>
<path d="M72.2,107.8l1.1,0.9l2.7-3.3l-2.6-2.1l-2.7,3.3l1.2,1l0.6-0.8l-0.6-0.5l1.5-1.8l1.4,1.2l-1.5,1.8l-0.6-0.5 L72.2,107.8"/>
<path d="M69.2,148l0.8,0.1l0.1-0.8l1.9,0.4l-0.3,1.8l-1.9-0.4l0.1-0.7l-0.8-0.1l-0.2,1.4l3.5,0.7l0.5-3.3l-3.5-0.7 L69.2,148"/>
</g>
</g>
</g>
</g>
<g id="Under-Belt">
<g id="Girth-Belt" class="option" style="fill: rgb(111, 103, 103); display: inherit;">
<path d="M84.4,84.5c-9.3,0-27.8-2.2-27.8-2.2l0.6-1.9c0,0,18.1,1.5,27.2,2.2c9.1-0.8,27.2-2.2,27.2-2.2l0.6,1.9 C112.2,82.2,93.6,84.5,84.4,84.5z"/>
<path d="M84.4,86.4c-9.5,0-28.4-2.2-28.4-2.2l0.6-1.9c0,0,23.2,1.9,27.8,2.2c4.6-0.4,27.8-2.2,27.8-2.2l0.6,1.9 C112.7,84.1,93.8,86.4,84.4,86.4z"/>
<path d="M84.4,88.3c-9.6,0-28.8-2.2-28.8-2.2l0.4-1.9c0,0,23.7,1.9,28.4,2.2c4.7-0.4,28.4-2.2,28.4-2.2l0.4,1.9 C113.2,86.1,94,88.3,84.4,88.3z"/>
<path d="M84.4,90.2c-9.7,0-29.2-2.2-29.2-2.2l0.4-1.9c0,0,24,1.9,28.8,2.2c4.8-0.4,28.8-2.2,28.8-2.2l0.4,1.9 C113.5,88,94.1,90.2,84.4,90.2z"/>
<path d="M84.4,92.1c-9.8,0-29.5-2.2-29.5-2.2l0.3-1.9c0,0,24.3,1.9,29.2,2.2c4.9-0.4,29.2-2.2,29.2-2.2l0.3,1.9 C113.9,89.9,94.2,92.1,84.4,92.1z"/>
<path d="M84.4,94c-9.9,0-29.8-2.2-29.8-2.2l0.3-1.9c0,0,24.6,1.9,29.5,2.2c4.9-0.4,29.5-2.2,29.5-2.2l0.3,1.9 C114.2,91.8,94.3,94,84.4,94z"/>
<path d="M84.4,95.9c-10,0-30.1-2.2-30.1-2.2l0.3-1.9c0,0,24.8,1.9,29.8,2.2c5-0.4,29.8-2.2,29.8-2.2l0.3,1.9 C114.5,93.7,94.4,95.9,84.4,95.9z"/>
<path d="M84.4,97.8c-10.1,0-30.4-2.2-30.4-2.2l0.3-1.9c0,0,25.1,1.9,30.1,2.2c5-0.4,30.1-2.2,30.1-2.2l0.3,1.9 C114.8,95.6,94.5,97.8,84.4,97.8z"/>
<path d="M84.4,99.7c-10.3,0-30.8-2.2-30.8-2.2l0.3-1.9c0,0,25.4,1.9,30.4,2.2c5.1-0.4,30.4-2.2,30.4-2.2l0.3,1.9 C115.1,97.5,94.6,99.7,84.4,99.7z"/>
<path d="M84.4,101.6c-10.4,0-31.2-2.2-31.2-2.2l0.4-1.9c0,0,25.6,1.9,30.8,2.2c5.1-0.4,30.8-2.2,30.8-2.2l0.4,1.9 C115.5,99.4,94.8,101.6,84.4,101.6z"/>
</g>
</g>
<g id="Belt">
<g id="Pouch-Belt-4" class="option" style="display: inherit;">
<path id="Main_Pouch-Belt-4" d="M114.5,92.5c-6.8,0.6-22.3,2.8-30.1,2.8c-7.9,0-23.4-2.2-30.1-2.8l1-7.9 c5.5,0.5,21.4,2.7,29.1,2.7c7.4,0,23-2.2,28.9-2.8L114.5,92.5z" style="fill: rgb(111, 103, 103);"/>
<rect id="Buckle_Pouch-Belt-4" x="78.8" y="86.6" width="11.2" height="9.2" style="fill: rgb(153, 44, 197);"/>
<g id="Pouches_Pouch-Belt-4" style="fill: rgb(153, 44, 197);">
<g>
<g>
<path d="M59.3,83c-0.3,0-0.6,0-0.9,0.2c-0.7,0.3-1.8,0.8-1.8,0.8l7.3,0.4l2-0.9C65.8,83.5,60.8,83.1,59.3,83z"/>
<path d="M66.1,83.8c0-0.1,0-0.2-0.1-0.2c-0.1-0.1-0.2-0.1-0.2,0c-0.7,0.3-1.9,0.9-1.9,0.9l-1,12.4 c0.6-0.4,1.3-0.7,1.9-0.8c0.4-0.1,0.7-0.4,0.7-0.8C65.6,91.3,65.7,87.5,66.1,83.8z"/>
<path d="M63.8,84.4L56.5,84c-0.1,1.9-0.2,3.8-0.3,5.7c-0.1,2.1-0.2,4.2-0.3,6.3c0,0.2,0,0.3,0.1,0.4 s0.2,0.2,0.4,0.2c2.1,0,4.1,0.1,6.2,0.4c0.1,0,0.3,0,0.4-0.1s0.2-0.2,0.2-0.4c0.1-1.5,0.4-5.3,0.4-5.3L63.8,84.4z"/>
<path d="M63.8,84.4L56.5,84c0,0-0.2,1.6-0.4,3.2c-0.1,0.8,0.1,1.5,0.6,2.1c0.5,0.6,1.2,0.9,1.9,1 c0.7,0,1.5,0.1,2.2,0.1c0.8,0,1.5-0.2,2-0.7s0.9-1.2,0.9-2C63.8,86,63.8,84.4,63.8,84.4z"/>
<path d="M59.9,88.8c0.3,0,0.5,0.3,0.4,0.5c0,0.3-0.2,0.5-0.5,0.5s-0.5-0.3-0.4-0.5C59.4,89,59.6,88.8,59.9,88.8z"/>
</g>
</g>
<g>
<path d="M51.9,83.9l0.5-0.9l2.8,0.1l0.3,1.1L51.9,83.9z"/>
<path d="M55.6,84.3c0-0.1,0-0.1-0.1-0.2c0-0.1-0.1-0.1-0.2-0.1c-0.8,0-3.5-0.1-3.5-0.1l-0.5,11.2 c0.1,0.3,1.5,0.5,2.7,0.5c0.5,0,0.9-0.4,0.9-0.9C55,91.2,55.2,87.7,55.6,84.3z"/>
</g>
<g>
<g>
<path d="M109.5,83c0.3,0,0.6,0,0.9,0.2c0.7,0.3,1.8,0.8,1.8,0.8l-7.3,0.4l-2-0.9C103,83.5,107.9,83.1,109.5,83z"/>
<path d="M102.7,83.8c0-0.1,0-0.2,0.1-0.2c0.1,0,0.2-0.1,0.2,0c0.7,0.3,1.9,0.9,1.9,0.9l1,12.4 c-0.6-0.4-1.3-0.7-1.9-0.8c-0.4-0.1-0.7-0.4-0.7-0.8C103.2,91.3,103.1,87.5,102.7,83.8z"/>
<path d="M104.9,84.4l7.3-0.4c0.1,1.9,0.2,3.8,0.3,5.7c0.1,2.1,0.2,4.2,0.3,6.3c0,0.2,0,0.3-0.1,0.4 c-0.1,0.1-0.2,0.2-0.4,0.2c-2.1,0-4.1,0.1-6.2,0.4c-0.1,0-0.3,0-0.4-0.1c-0.1-0.1-0.2-0.2-0.2-0.4c-0.1-1.5-0.4-5.3-0.4-5.3 L104.9,84.4z"/>
<path d="M104.9,84.4l7.3-0.4c0,0,0.2,1.6,0.4,3.2c0.1,0.8-0.1,1.5-0.6,2.1c-0.5,0.6-1.2,0.9-1.9,1 c-0.7,0-1.5,0.1-2.2,0.1c-0.8,0-1.5-0.2-2-0.7s-0.9-1.2-0.9-2C104.9,86,104.9,84.4,104.9,84.4z"/>
<path d="M108.9,88.8c-0.3,0-0.5,0.3-0.4,0.5c0,0.3,0.2,0.5,0.5,0.5s0.5-0.3,0.4-0.5 C109.3,89,109.1,88.8,108.9,88.8z"/>
</g>
</g>
<g>
<path d="M116.9,83.9l-0.5-0.9l-2.8,0.1l-0.3,1.1L116.9,83.9z"/>
<path d="M113.2,84.3c0-0.1,0-0.1,0.1-0.2c0-0.1,0.1-0.1,0.2-0.1c0.8,0,3.5-0.1,3.5-0.1l0.5,11.2 c-0.1,0.3-1.5,0.5-2.7,0.5c-0.5,0-0.9-0.4-0.9-0.9C113.7,91.2,113.6,87.7,113.2,84.3z"/>
</g>
</g>
</g>
</g>
</g>
<g id="Extras_Front">
<g id="Front">
<g id="None_Front" class="option" style="display: inherit;">
</g>
</g>
</g>
</svg></svg>