<?xml version='1.0' encoding='UTF-8'?>
<svg version="1.1" id="Male-Body" xmlns="http://www.w3.org/2000/svg" xmlns:serif="http://www.serif.com/" viewBox="0 -55 170 300" style="stroke-width: 0.2px; fill-rule: evenodd; stroke-linejoin: round;" width="170" height="300">
<style>
mask {
mask-type: alpha;
}
.decal {
stroke: none;
}
</style>
<defs id="Masks" stroke="none">
<mask id="HelmetsMask"> <use href="#Helmets"/> </mask>
<mask id="CollarMask"> <use href="#Collar"/> </mask>
<mask id="ShouldersMask"> <use href="#Shoulders"/> </mask>
<mask id="ChestMask"> <use href="#Chest"/> </mask>
<mask id="BicepsMask"> <use href="#Biceps"/> </mask>
<mask id="GauntletsMask"> <use href="#Gauntlets"/> </mask>
<mask id="WaistMask"> <use href="#Waist"/> </mask>
<mask id="GroinMask"> <use href="#Groin"/> </mask>
<mask id="ThighsMask"> <use href="#Thighs"/> </mask>
<mask id="KneesMask"> <use href="#Knees"/> </mask>
<mask id="ShinsMask"> <use href="#Shins"/> </mask>
<mask id="FootMask"> <use href="#Foot"/> </mask>
</defs>
<defs id="Decals"/><metadata><rdf:rdf xmlns:rdf="http://www.w3.org/1999/02/22-rdf-syntax-ns#" xmlns:rdfs="http://www.w3.org/2000/01/rdf-schema#" xmlns:dc="http://purl.org/dc/elements/1.1/"><rdf:description><dc:creator>MandoCreator</dc:creator><dc:publisher>https://www.mandocreator.com</dc:publisher><dc:description>Your Beskar'gam - created by MandoCreator</dc:description><dc:format>image/svg+xml</dc:format><dc:type>Image</dc:type><dc:title>MandoCreator - Ner Berskar'gam</dc:title><dc:date>2022-01-02T16:20:51.650Z</dc:date></rdf:description></rdf:rdf></metadata><g id="Main-Body" fill="white" stroke="black">
<g id="Extras_Back">
<g id="Back"><g id="NO-CAPES_Back" class="option" style="display: inherit;">
</g>
</g>
</g>
<g id="Extras-BackDecals" mask="url(#BackMask)">
</g>
<g id="Suit">
<g id="Neck-Seal"><g id="Standard-Neck-Seal" class="option" fill="rgb(41, 35, 35)" style="display: inherit;">
<path d="M98.75,7.5c0-0.9-0.93-1.62-2.07-1.62c0,0-7.8,0.85-11.7,0.85s-11.7-0.85-11.7-0.85 c-1.14,0-2.07,0.73-2.07,1.62s0.93,1.62,2.07,1.62c0,0,7.8,0.85,11.7,0.85s11.7-0.85,11.7-0.85C97.83,9.13,98.75,8.4,98.75,7.5z"/>
<path d="M99.45,9.4c0-0.94-0.97-1.71-2.17-1.71c0,0-8.2,0.9-12.29,0.9S72.69,7.7,72.69,7.7 c-1.2,0-2.17,0.76-2.17,1.71s0.97,1.71,2.17,1.71c0,0,8.2,0.9,12.29,0.9s12.29-0.9,12.29-0.9C98.48,11.11,99.45,10.34,99.45,9.4z "/>
<path d="M100.24,11.76c0-0.99-1.03-1.8-2.29-1.8c0,0-8.64,0.95-12.96,0.95S72.02,9.96,72.02,9.96 c-1.26,0-2.29,0.81-2.29,1.8s1.03,1.8,2.29,1.8c0,0,8.64,0.95,12.97,0.95s12.96-0.95,12.96-0.95 C99.21,13.56,100.24,12.75,100.24,11.76z"/>
<path d="M101,13.92c0-1.04-1.08-1.89-2.41-1.89c0,0-9.08,0.99-13.61,0.99s-13.61-0.99-13.61-0.99 c-1.33,0-2.41,0.85-2.41,1.89c0,1.04,1.08,1.89,2.41,1.89c0,0,9.08,0.99,13.61,0.99s13.61-0.99,13.61-0.99 C99.93,15.81,101,14.96,101,13.92z"/>
<path d="M101.76,16.04c0-0.79-1.13-1.43-2.52-1.43c0,0-9.51,0.75-14.26,0.75s-14.26-0.75-14.26-0.75 c-1.39,0-2.52,0.64-2.52,1.43c0,0.79,1.13,1.43,2.52,1.43c0,0,9.51,0.75,14.26,0.75s14.26-0.75,14.26-0.75 C100.63,17.47,101.76,16.83,101.76,16.04z"/>
<path d="M101.76,18.42c0-0.79-1.13-1.43-2.52-1.43c0,0-9.51,0.75-14.26,0.75s-14.26-0.75-14.26-0.75 c-1.39,0-2.52,0.64-2.52,1.43c0,0.79,1.13,1.43,2.52,1.43c0,0,9.51,1.44,14.26,1.44s14.26-1.44,14.26-1.44 C100.63,19.84,101.76,19.21,101.76,18.42z"/>
</g>
</g>
<g id="Flight-Suit" fill="rgb(41, 35, 35)">
<path d="M73.36,158.45l-1.49,8.72l-11.03,53.11c0,0-4.93,2.96-7.47,3.46c-2.53,0.5-7.73-0.44-7.73-0.44l3.85-43 l2.9-18.36l0.66-7.82c0,0-2.53-22.78-1.7-34.14c0.82-11.36,6.66-34.01,6.66-34.01l26.98,0.58l26.97-0.58 c0,0,5.83,22.66,6.66,34.01c0.83,11.36-1.7,34.14-1.7,34.14l0.66,7.82l2.9,18.36l3.85,43c0,0-5.32,1.19-7.85,0.69 c-2.53-0.5-7.34-3.71-7.34-3.71L98.1,167.16l-1.49-8.72l-11.62-30.33L73.36,158.45z"/>
<g>
<path d="M129.41,43.33l11.98,41.65l1.04,21.47l-9.55,1.83l-6.05-20.21l-13.65-33.95l0.69-15.55l2.31-3.72 L129.41,43.33z"/>
<path d="M40.59,43.3l13.19-8.45l2.31,3.72l0.52,16.04L43.17,88.07l-6.05,20.21l-9.55-1.83l1.03-21.47L40.59,43.3z"/>
</g>
</g>
<g id="Sleeves" class="toggle" fill="rgb(41, 35, 35)">
<g>
<path d="M112.2,56.12l2.68,5.9c0,0,4.24-3.2,7.06-4.8s4.38-2.62,6.92-3.6c2.54-0.98,5.08-1.47,5.08-1.47l-6.07-12.25 l-5.79-9.67l-11.58,5.14L112.2,56.12z"/>
<path d="M113.61,59.24c-0.2-0.24,5.08-4.5,8.61-6.34c3.53-1.84,10.25-3.69,10.25-3.69"/>
</g>
<g>
<path d="M57.8,56.12l-2.68,5.9c0,0-4.24-3.2-7.06-4.8c-2.82-1.59-4.38-2.62-6.92-3.6c-2.54-0.98-5.08-1.47-5.08-1.47 l6.07-12.25l5.79-9.67l11.58,5.14L57.8,56.12z"/>
<path d="M56.39,59.24c0.2-0.24-5.08-4.5-8.61-6.34c-3.53-1.84-10.25-3.69-10.25-3.69"/>
</g>
</g>
</g>
<g id="Boots"><g id="Basic_Boots" class="option" style="display: inherit;">
<g id="Main_Basic-Boot" fill="rgb(153, 44, 197)">
<path d="M109.1,216.81c1.46,0.01,3.24,0.93,4.53,1.15c1.38,0.23,2.88,0.21,4.34,0.07l0.59-0.06l0.02,0l0.07-0.01 l0.19-0.03l0.3-0.04l0.12-0.02c0.35-0.05,0.68-0.1,1.01-0.16l0.53-0.1l0.11-0.03l0.04-0.01l0.08-0.02l0.36-0.09l0.32-0.09 l0.05-0.01c1.12-0.3,2.24-0.66,2.24-0.66c0.33,1.45,0.5,3.11,1.12,4.46c0.99,2.13,0.95,3.05,2.61,4.66 c1.14,1.1,4.08,3.05,5.44,3.89c0.57,0.36,1.19,0.63,1.81,0.86l0.06,0.02c2.5,0.93,5.2,1.28,6.56,4.03c0.3,0.6,0.55,1.32,0.5,2 c-0.06,0.87-1.02,0.99-1.76,1.2c-1.84,0.52-3.43,0.92-5.56,1.39c-2.43,0.54-4.63,0.88-7.1,0.81c-1.84-0.05-3.41-0.13-5.03-1.1 c-0.65-0.39-1.32-0.79-1.89-1.3c-1.27-1.15-2.09-2.36-3.71-3.04c-1.18-0.5-2.39-0.91-3.63-1.2c-1.76-0.42-4.34-1-5.28-2.74 c-0.37-1.3,0.01-1.94,0.13-3.06l0.06-0.48c0.1-0.73,0.23-1.48,0.26-2.26c0.08-1.51-0.3-3.01-0.4-4.51 c-0.06-0.85-0.1-1.71-0.11-2.56c0-0.14-0.08-0.75,0.06-0.8c0.19-0.08,0.4-0.12,0.62-0.14L109.1,216.81z"/>
<path d="M60.93,216.81c-1.46,0.01-3.24,0.93-4.53,1.15c-1.38,0.23-2.88,0.21-4.34,0.07l-0.59-0.06l-0.02,0 l-0.07-0.01l-0.19-0.03l-0.3-0.04l-0.12-0.02c-0.34-0.05-0.68-0.1-1.01-0.16l-0.53-0.1l-0.11-0.03l-0.04-0.01l-0.08-0.02 l-0.36-0.09l-0.32-0.09l-0.05-0.01c-1.12-0.3-2.24-0.66-2.24-0.66c-0.33,1.45-0.5,3.11-1.12,4.46c-0.99,2.13-0.95,3.05-2.6,4.66 c-1.14,1.1-4.08,3.05-5.44,3.89c-0.57,0.36-1.19,0.63-1.81,0.86l-0.06,0.02c-2.5,0.93-5.2,1.28-6.56,4.03 c-0.3,0.6-0.55,1.32-0.5,2c0.06,0.87,1.02,0.99,1.76,1.2c1.84,0.52,3.43,0.92,5.56,1.39c2.43,0.54,4.63,0.88,7.1,0.81 c1.84-0.05,3.41-0.13,5.03-1.1c0.65-0.39,1.32-0.79,1.89-1.3c1.27-1.15,2.09-2.36,3.72-3.04c1.18-0.5,2.39-0.91,3.63-1.2 c1.76-0.42,4.33-1,5.28-2.74c0.37-1.3-0.01-1.94-0.13-3.06l-0.06-0.48c-0.1-0.73-0.23-1.48-0.26-2.26 c-0.08-1.51,0.3-3.01,0.4-4.51c0.06-0.85,0.1-1.71,0.11-2.56c0-0.14,0.08-0.75-0.06-0.8c-0.19-0.08-0.4-0.12-0.62-0.14 L60.93,216.81z"/>
</g>
<g id="Bottom_Basic-Boot" fill="rgb(111, 103, 103)">
<path d="M108.15,230.64c0.47,0.87,1.35,1.44,2.33,1.86c0.89,0.45,1.95,0.64,2.96,0.88c0.14,0.03,0.27,0.07,0.41,0.1 c0.2,0.05,0.4,0.11,0.6,0.16c0.06,0.02,0.12,0.04,0.18,0.05l0.1,0.03c0.07,0.02,0.13,0.04,0.19,0.06 c0.03,0.01,0.06,0.02,0.08,0.03c0.11,0.04,0.22,0.07,0.33,0.11c0.04,0.01,0.08,0.03,0.12,0.04l0.06,0.02 c0.17,0.06,0.33,0.12,0.5,0.18c0.04,0.01,0.07,0.03,0.11,0.04c0.15,0.06,0.3,0.11,0.45,0.17l0.12,0.05 c0.09,0.04,0.18,0.07,0.27,0.11c0.04,0.02,0.08,0.03,0.12,0.05c0.27,0.11,0.51,0.24,0.74,0.38l0.03,0.02 c0.02,0.01,0.04,0.02,0.05,0.03c0.07,0.04,0.14,0.09,0.21,0.14l0.05,0.03c0.01,0.01,0.03,0.02,0.04,0.03 c0.07,0.05,0.14,0.1,0.2,0.15l0.06,0.04l0.09,0.07c0.28,0.23,0.54,0.47,0.8,0.73l0.07,0.07c0.14,0.14,0.28,0.28,0.42,0.43 c0.15,0.15,0.29,0.3,0.45,0.45c0.15,0.15,0.31,0.31,0.48,0.46l0.06,0.05c0.05,0.04,0.1,0.09,0.15,0.13 c0.01,0.01,0.02,0.01,0.03,0.02c0.08,0.07,0.17,0.13,0.25,0.2c0.06,0.04,0.11,0.09,0.17,0.13l0.03,0.02 c0.07,0.05,0.15,0.1,0.22,0.15c0.03,0.02,0.06,0.04,0.09,0.06c0.11,0.07,0.22,0.14,0.33,0.21c0.08,0.05,0.15,0.09,0.23,0.14 l0.09,0.06l0.25,0.15l0.11,0.07l0.08,0.04l0.08,0.04c0.11,0.06,0.22,0.12,0.34,0.17c0.05,0.02,0.11,0.05,0.16,0.07l0.05,0.02 c0.34,0.15,0.68,0.26,1.02,0.35l0.06,0.01l0.08,0.02c0.03,0.01,0.05,0.01,0.07,0.02c0.07,0.02,0.14,0.03,0.21,0.04 c0.05,0.01,0.11,0.02,0.16,0.03l0.13,0.02l0.04,0.01c0.04,0.01,0.07,0.01,0.11,0.02c0.06,0.01,0.12,0.02,0.18,0.02 c0.09,0.01,0.17,0.02,0.26,0.03c0.02,0,0.04,0,0.07,0.01c0.21,0.02,0.43,0.04,0.65,0.05c0.12,0.01,0.24,0.01,0.36,0.02l0.11,0 c0.23,0.01,0.46,0.02,0.7,0.02c0.15,0,0.31,0.01,0.46,0.01c0.06,0,0.11,0,0.17,0c0.08,0,0.16,0,0.23,0c0.06,0,0.11,0,0.17,0 l0.06,0c0.28-0.01,0.56-0.02,0.83-0.03c0.04,0,0.08,0,0.12-0.01l0.11-0.01c0.03,0,0.07-0.01,0.1-0.01 c0.4-0.03,0.81-0.07,1.21-0.11l0.11-0.01c0.1-0.01,0.2-0.02,0.3-0.04c0.04-0.01,0.09-0.01,0.13-0.02l0.11-0.01 c0.08-0.01,0.17-0.02,0.25-0.04c0.35-0.05,0.7-0.11,1.06-0.18c0.08-0.01,0.16-0.03,0.24-0.04l0.1-0.02 c0.04-0.01,0.07-0.01,0.11-0.02l0.11-0.02c0.04-0.01,0.07-0.01,0.11-0.02l0.08-0.02c0.09-0.02,0.17-0.04,0.26-0.05l0.11-0.02 c0.1-0.02,0.2-0.04,0.3-0.07c0.09-0.02,0.18-0.04,0.26-0.06l0.03,0c0.56-0.12,1.08-0.24,1.58-0.36l0.19-0.04 c0.14-0.03,0.28-0.07,0.42-0.1l0.17-0.04l0.08-0.02c0.2-0.05,0.39-0.1,0.58-0.15c0.12-0.03,0.23-0.06,0.35-0.09 c0.33-0.09,0.67-0.17,1-0.26l0.15-0.04c0.06-0.01,0.11-0.03,0.17-0.04l0.06-0.02c0.26-0.07,0.52-0.14,0.79-0.22l0.06-0.02 l0.09-0.02l0.28-0.07l0.09-0.03l0.14-0.04l0.06-0.02l0.11-0.04l0.1-0.03l0.04-0.02l0.05-0.02l0.03-0.01l0.05-0.02l0.05-0.03 l0.02-0.01l0.05-0.03l0.06-0.04l0.06-0.04l0.05-0.04c0.09-0.07,0.16-0.15,0.22-0.24l0,0c0,0,0.49,0.73,0.53,1.99 c-1.1,1.59-4.6,2.12-9.43,2.76c-4.8,0.64-7.76,0.51-9.77-0.35c-2.01-0.86-5.53-4.94-8.05-5.15c-2.52-0.22-5.5-1.54-6.72-2.26 c-0.64-0.37-0.45-3-0.45-3L108.15,230.64z"/>
<path d="M61.87,230.64c-0.47,0.87-1.35,1.44-2.33,1.86c-0.89,0.45-1.95,0.64-2.95,0.88 c-0.14,0.03-0.27,0.07-0.41,0.1c-0.2,0.05-0.4,0.11-0.6,0.16c-0.06,0.02-0.12,0.04-0.18,0.05l-0.1,0.03 c-0.07,0.02-0.13,0.04-0.19,0.06c-0.03,0.01-0.06,0.02-0.08,0.03c-0.11,0.04-0.22,0.07-0.33,0.11c-0.04,0.01-0.08,0.03-0.12,0.04 l-0.06,0.02c-0.17,0.06-0.33,0.12-0.5,0.18c-0.04,0.01-0.07,0.03-0.11,0.04c-0.15,0.06-0.3,0.11-0.45,0.17l-0.12,0.05 c-0.09,0.04-0.18,0.07-0.27,0.11c-0.04,0.02-0.08,0.03-0.12,0.05c-0.27,0.11-0.51,0.24-0.74,0.38l-0.03,0.02 c-0.02,0.01-0.04,0.02-0.05,0.03c-0.07,0.04-0.14,0.09-0.21,0.14l-0.05,0.03c-0.01,0.01-0.03,0.02-0.04,0.03 c-0.07,0.05-0.14,0.1-0.2,0.15l-0.06,0.04l-0.09,0.07c-0.28,0.23-0.54,0.47-0.8,0.73l-0.07,0.07c-0.14,0.14-0.28,0.28-0.42,0.43 c-0.15,0.15-0.29,0.3-0.45,0.45c-0.15,0.15-0.31,0.31-0.48,0.46l-0.06,0.05c-0.05,0.04-0.1,0.09-0.15,0.13 c-0.01,0.01-0.02,0.01-0.03,0.02c-0.08,0.07-0.17,0.13-0.25,0.2c-0.06,0.04-0.11,0.09-0.17,0.13l-0.03,0.02 c-0.07,0.05-0.15,0.1-0.22,0.15c-0.03,0.02-0.06,0.04-0.09,0.06c-0.11,0.07-0.22,0.14-0.33,0.21c-0.08,0.05-0.15,0.09-0.23,0.14 l-0.1,0.06l-0.24,0.15l-0.11,0.07l-0.08,0.04l-0.08,0.04c-0.11,0.06-0.22,0.12-0.34,0.17c-0.05,0.02-0.11,0.05-0.16,0.07 l-0.05,0.02c-0.34,0.15-0.67,0.26-1.02,0.35l-0.06,0.01l-0.08,0.02c-0.02,0.01-0.05,0.01-0.07,0.02 c-0.07,0.02-0.14,0.03-0.21,0.04c-0.06,0.01-0.11,0.02-0.16,0.03l-0.13,0.02l-0.04,0.01c-0.04,0.01-0.07,0.01-0.11,0.02 c-0.06,0.01-0.12,0.02-0.18,0.02c-0.09,0.01-0.17,0.02-0.26,0.03c-0.02,0-0.05,0-0.07,0.01c-0.22,0.02-0.43,0.04-0.65,0.05 c-0.12,0.01-0.24,0.01-0.36,0.02l-0.1,0c-0.23,0.01-0.47,0.02-0.7,0.02c-0.15,0-0.31,0.01-0.46,0.01c-0.06,0-0.11,0-0.17,0 c-0.08,0-0.16,0-0.23,0c-0.06,0-0.11,0-0.17,0l-0.06,0c-0.28-0.01-0.56-0.02-0.83-0.03c-0.04,0-0.08,0-0.12-0.01l-0.11-0.01 c-0.03,0-0.07-0.01-0.1-0.01c-0.4-0.03-0.81-0.07-1.21-0.11l-0.11-0.01c-0.1-0.01-0.2-0.02-0.3-0.04 c-0.04-0.01-0.09-0.01-0.13-0.02l-0.11-0.01c-0.08-0.01-0.17-0.02-0.25-0.04c-0.35-0.05-0.7-0.11-1.06-0.18 c-0.08-0.01-0.16-0.03-0.24-0.04l-0.1-0.02c-0.04-0.01-0.07-0.01-0.11-0.02l-0.11-0.02c-0.04-0.01-0.07-0.01-0.11-0.02 l-0.08-0.02c-0.09-0.02-0.17-0.04-0.26-0.05l-0.11-0.02c-0.1-0.02-0.2-0.04-0.3-0.07c-0.09-0.02-0.17-0.04-0.26-0.06l-0.03,0 c-0.56-0.12-1.08-0.24-1.58-0.36l-0.19-0.04c-0.14-0.03-0.28-0.07-0.42-0.1l-0.17-0.04l-0.08-0.02c-0.2-0.05-0.39-0.1-0.58-0.15 c-0.12-0.03-0.23-0.06-0.35-0.09c-0.34-0.09-0.67-0.17-1-0.26l-0.15-0.04c-0.06-0.01-0.11-0.03-0.17-0.04l-0.06-0.02 c-0.26-0.07-0.52-0.14-0.79-0.22l-0.06-0.02l-0.09-0.02l-0.28-0.07l-0.09-0.03L29,237.65l-0.06-0.02l-0.11-0.04l-0.1-0.03 l-0.04-0.02l-0.05-0.02l-0.03-0.01l-0.05-0.02l-0.05-0.03l-0.02-0.01l-0.05-0.03l-0.06-0.04l-0.06-0.04l-0.05-0.04 c-0.09-0.07-0.16-0.15-0.22-0.24l0,0c0,0-0.49,0.73-0.53,1.99c1.1,1.59,4.6,2.12,9.43,2.76c4.8,0.64,7.76,0.51,9.77-0.35 c2.01-0.86,5.53-4.94,8.05-5.15c2.52-0.22,5.49-1.54,6.72-2.26c0.64-0.37,0.45-3,0.45-3L61.87,230.64z"/>
</g>
<g id="Top_Basic-Boot" fill="rgb(111, 103, 103)">
<path d="M122,217.29c0.67,3.26,1.7,6.09,3.88,8.84c3.4,4.27,9.2,4.62,13.21,8.09c1.03,0.89,0.98,2.32,1.15,3.64 c-1.66,0.47-3.13,0.84-4.99,1.26c-0.13-1.31,0.1-2.78-0.99-3.72c-4.01-3.47-10.32-3.34-13.72-7.61 c-2.22-2.79-2.23-6.39-2.87-9.74c0.1-0.01,0.2-0.02,0.3-0.03l0.59-0.06l0.02,0l0.07-0.01l0.19-0.03l0.3-0.04l0.12-0.02 c0.35-0.05,0.68-0.1,1.01-0.16l0.53-0.1l0.11-0.03l0.04-0.01l0.08-0.02l0.36-0.09l0.32-0.09l0.05-0.01 C121.85,217.33,121.93,217.31,122,217.29z"/>
<path d="M48.02,217.29c-0.67,3.26-1.7,6.09-3.88,8.84c-3.4,4.27-9.2,4.62-13.21,8.09c-1.03,0.89-0.98,2.32-1.15,3.64 c1.66,0.47,3.13,0.84,4.99,1.26c0.13-1.31-0.1-2.78,0.99-3.72c4.01-3.47,10.32-3.34,13.72-7.61c2.22-2.79,2.23-6.39,2.87-9.74 c-0.1-0.01-0.2-0.02-0.3-0.03l-0.59-0.06l-0.02,0l-0.07-0.01l-0.19-0.03l-0.3-0.04l-0.12-0.02c-0.34-0.05-0.68-0.1-1.01-0.16 l-0.53-0.1l-0.11-0.03l-0.04-0.01l-0.08-0.02l-0.36-0.09l-0.32-0.09l-0.05-0.01C48.17,217.33,48.1,217.31,48.02,217.29z"/>
</g>
<g id="Side_Basic-Boot" fill="rgb(111, 103, 103)">
<path d="M109.49,216.83c1.38,0.15,2.96,0.92,4.14,1.12c0.06,0.01,0.13,0.02,0.19,0.03c0.02,0.41,0.01,0.82,0.02,1.18 c0.05,2.04-0.21,10.76-0.61,10.75c-0.4-0.02-1.58-0.23-1.88-0.55c-0.2-0.21-0.24-0.71-0.3-0.98c-0.21-0.87-0.4-1.73-0.53-2.61 c-0.18-1.19-0.32-2.36-0.4-3.55C109.98,220.42,109.7,218.62,109.49,216.83z"/>
<path d="M60.53,216.83c-1.38,0.15-2.96,0.92-4.14,1.12c-0.06,0.01-0.13,0.02-0.19,0.03 c-0.02,0.41-0.01,0.82-0.02,1.18c-0.05,2.04,0.21,10.76,0.61,10.75c0.4-0.02,1.58-0.23,1.88-0.55c0.2-0.21,0.24-0.71,0.3-0.98 c0.21-0.87,0.4-1.73,0.53-2.61c0.18-1.19,0.32-2.36,0.4-3.55C60.05,220.42,60.32,218.62,60.53,216.83z"/>
</g>
</g>
</g>
<g id="Gloves">
<g id="Left-Glove"><g id="Basic_Left_Glove" class="option" fill="rgb(41, 35, 35)" style="display: inherit;">
<path d="M138.6,124.11c-0.54-0.03-1.05-0.01-1.58,0.1c-0.36,0.08-0.72,0.16-1.04,0.35 c-0.99,0.57-0.72,1.81,0.16,2.28c1.03,0.55,2.66,0.01,3.13-1.05C139.46,125.35,138.86,124.53,138.6,124.11"/>
<path d="M136.79,125.19c-0.54-0.03-1.05-0.02-1.59,0.1c-0.36,0.08-0.72,0.16-1.04,0.35 c-0.99,0.57-0.72,1.81,0.16,2.28c1.03,0.55,2.66,0.01,3.13-1.05C137.65,126.43,137.05,125.61,136.79,125.19"/>
<path d="M135.49,126.65c-0.54,0.05-1.19,0.13-1.7,0.31c-0.35,0.12-0.69,0.26-0.99,0.48c-0.9,0.7-0.47,1.89,0.47,2.24 c1.1,0.41,2.64-0.35,2.96-1.46C136.36,127.76,135.49,126.65,135.49,126.65z"/>
<path d="M132.55,110.05c0,0-1.56,2.15-1.97,3.69c-0.29,1.09-0.13,3.68-0.49,5.43c-0.36,1.74-0.69,2.71-0.69,2.71 s-1.38,2.79-1.14,3.43c0.24,0.64,1.45,1.21,2.15,0.87c0.86-0.42,1.93-2.39,2.61-3.77c0.69-1.41,1.25-3.41,1.25-3.41 s0.95,0.32,1.43,0.7c1.61,1.24,0.91,4.96,0.91,4.96s-0.66,1.33-1.66,2.83c-1.36,2.05-3.46,3.81-2.07,5.37 c1.29,1.46,4.22-2.37,4.22-2.37l2.87-3.73c0,0,3.3-5.41,3.47-6.46c0.13-0.8,0.02-3.47,0.02-3.47l-1.03-10.37l-5.24,0.44 l-4.31,1.39L132.55,110.05"/>
</g>
</g>
<g id="Right-Glove"><g id="Basic_Right_Glove" class="option" fill="rgb(41, 35, 35)" style="display: inherit;">
<path d="M31.4,124.11c0.54-0.03,1.05-0.01,1.58,0.1c0.36,0.08,0.72,0.16,1.04,0.35c0.99,0.57,0.72,1.81-0.16,2.28 c-1.03,0.55-2.66,0.01-3.13-1.05C30.53,125.35,31.14,124.53,31.4,124.11"/>
<path d="M33.21,125.19c0.54-0.03,1.05-0.02,1.58,0.1c0.36,0.08,0.72,0.16,1.04,0.35c0.99,0.57,0.72,1.81-0.16,2.28 c-1.03,0.55-2.66,0.01-3.13-1.05C32.35,126.43,32.95,125.61,33.21,125.19"/>
<path d="M34.51,126.65c0.54,0.05,1.19,0.13,1.7,0.31c0.35,0.12,0.69,0.26,0.99,0.48c0.9,0.7,0.47,1.89-0.47,2.24 c-1.1,0.41-2.64-0.35-2.96-1.46C33.64,127.76,34.51,126.65,34.51,126.65z"/>
<path d="M37.45,110.05c0,0,1.56,2.15,1.97,3.69c0.29,1.09,0.13,3.68,0.49,5.43c0.36,1.74,0.69,2.71,0.69,2.71 s1.38,2.79,1.14,3.43c-0.24,0.64-1.45,1.21-2.15,0.87c-0.86-0.42-1.93-2.39-2.61-3.77C36.29,121,35.73,119,35.73,119 s-0.95,0.32-1.43,0.7c-1.61,1.24-0.91,4.96-0.91,4.96s0.66,1.33,1.66,2.83c1.36,2.05,3.46,3.81,2.08,5.37 c-1.29,1.46-4.22-2.37-4.22-2.37l-2.87-3.73c0,0-3.3-5.41-3.47-6.46c-0.13-0.8-0.02-3.47-0.02-3.47l1.03-10.37l5.24,0.44 l4.31,1.39L37.45,110.05"/>
</g>
</g>
</g>
<g id="Biceps">
<g id="Left-Biceps"><g id="Basic_Biceps_Left" class="option" style="display: inherit;">
<path id="Main_Basic_Biceps_Left" d="M134.37,52.38c-1.14-2.74-6.21-14.78-6.21-14.78s-8.34,3.42-10.42,4.28 c-0.59,0.24-0.87,0.91-0.63,1.5c0.98,2.36,3.38,8.14,4.87,11.74c0.34,0.81,0.99,1.46,1.81,1.8c0.82,0.34,1.74,0.34,2.56,0 c2.45-1.01,5.73-2.35,7.4-3.04C134.33,53.63,134.61,52.96,134.37,52.38z" fill="rgb(222, 90, 0)"/>
<path id="Strap_Basic_Biceps_Left" d="M119.35,48.7l-5.85,2.4l-0.14,4.29l7.49-3.07L119.35,48.7" fill="rgb(153, 44, 197)"/>
<path id="Trauma-Plate_Basic_Biceps_Left" class="toggle" style="display:none" d="M134.34,51.81l-5.29-12.74l-10.16,4.17l4.67,11.24 c0.17,0.4,0.49,0.72,0.89,0.88c0.4,0.17,0.85,0.17,1.26,0L134.34,51.81" fill="rgb(255, 255, 255)"/>
</g>
</g>
<g id="Right-Biceps"><g id="Basic_Biceps_Right" class="option" style="display: inherit;">
<path id="Main_Basic_Biceps_Right" d="M35.65,52.38c1.14-2.74,6.22-14.78,6.22-14.78s8.34,3.42,10.42,4.28 c0.59,0.24,0.87,0.91,0.63,1.5c-0.98,2.36-3.38,8.14-4.87,11.74c-0.34,0.81-0.99,1.46-1.81,1.8c-0.82,0.34-1.74,0.34-2.56,0 c-2.45-1.01-5.73-2.35-7.4-3.04C35.69,53.63,35.41,52.96,35.65,52.38z" fill="rgb(222, 90, 0)"/>
<path id="Strap_Basic_Biceps_Right" d="M50.68,48.7l5.85,2.4l0.14,4.29l-7.49-3.07L50.68,48.7" fill="rgb(153, 44, 197)"/>
<path id="Trauma-Plate_Basic_Biceps_Right" class="toggle" style="display:none" d="M35.69,51.81l5.29-12.74l10.16,4.17l-4.66,11.24 c-0.17,0.4-0.49,0.72-0.89,0.88s-0.85,0.17-1.26,0L35.69,51.81" fill="rgb(255, 255, 255)"/>
</g>
</g>
</g>
<g id="BicepsDecals" mask="url(#BicepsMask)">
</g>
<path id="Vest" d="M85,20.92c8.5-0.01,15.43-4.3,15.63-8.01l0.15,0.02l18.38,5.42l13.31,23.94l-2.86,1.16l-13.42-8.6 l-2.31,3.72l-1.54,47.4c0,0-8.72,4.71-13.53,5.35c-3.44,0.45-8.63,0.68-13.79,0.67c-5.16,0.01-10.35-0.22-13.79-0.67 c-4.81-0.63-13.53-5.35-13.53-5.35l-1.54-47.4l-2.31-3.72l-13.42,8.6l-2.86-1.16l13.31-23.94l18.38-5.42l0.15-0.02 C69.57,16.62,76.5,20.92,85,20.92" fill="rgb(41, 35, 35)"/>
<g id="SuitDecals" mask="url(#SuitMask)">
</g>
<g class="swappable" id="Chest"><g id="Chest_Galaxy">
<g id="Abdomen_Galaxy">
<path id="Abdomen-Plate_Galaxy" d="M78.03,73.41l-2.08,1.5l-10.56-1.5l-0.77-5.8l5-0.1l3.03-4.92l1.37-4.53 l10.95-9.96L85,48.11l0.02-0.02l10.95,9.96l1.37,4.53l3.03,4.92l5,0.1l-0.77,5.8l-10.56,1.5l-2.08-1.5H78.03z" fill="rgb(111, 103, 103)"/>
<path id="Trauma-Plate_Abdomen_Galaxy" class="toggle" style="display:none" d="M84.98,50.38l-9.46,8.61l-1.3,4.29l-3.63,5.89l-4.03,0.08 l0.35,2.66l8.6,1.22l1.97-1.42h15.04l1.97,1.42l8.6-1.22l0.35-2.66l-4.03-0.08l-3.63-5.89l-1.3-4.29l-9.46-8.61L85,50.4 L84.98,50.38z" fill="rgb(255, 255, 255)"/>
</g>
<g id="Full-Chest_Galaxy">
<path id="Chest-Plate_Galaxy" d="M80.61,33.64l-0.02,10.15l3.21,3.22L72.55,57.6l-1.46,4.89l-2.38,3.9h-4.12 l-2-2.9l-2.55-14.21l-3.73-5.81l4.73-15.2l5.46-0.69l0.77-3.36l5.84-0.71l1.85,3h20.1l1.85-3l5.84,0.71l0.77,3.36l5.46,0.69 l4.73,15.2l-3.73,5.81l-2.55,14.21l-2,2.9h-4.12l-2.38-3.9l-1.46-4.89l-11.25-10.6l3.21-3.22l-0.02-10.15L85,30.24L80.61,33.64z" fill="rgb(153, 44, 197)"/>
<path id="Trauma-Plating_Left-Chest_Galaxy" class="toggle" style="display:none" d="M96,28.19H85.12l5.97,4.62l0.02,11.67l-2.48,2.49 l10.31,9.72l1.53,5.11l1.77,2.9h2.27l1.29-1.87l2.54-14.19l3.49-5.43l-4.17-13.42l-5.55-0.7l-0.77-3.36l-3.57-0.43L96,28.19z" fill="rgb(255, 255, 255)"/>
<path id="Trauma-Plating_Right-Chest_Galaxy" class="toggle" style="display:none" d="M72.23,25.31l-3.57,0.43l-0.77,3.36l-5.55,0.7 l-4.17,13.42l3.49,5.43l2.54,14.19l1.29,1.87h2.27l1.77-2.9l1.53-5.11l10.31-9.72l-2.48-2.49l0.02-11.67l5.97-4.62H74 L72.23,25.31z" fill="rgb(255, 255, 255)"/>
<g id="Accents_Chest-Plate_Galaxy" class="toggle" fill="rgb(111, 103, 103)">
<rect x="96.12" y="31.44" width="9.25" height="1.22"/>
<rect x="96.12" y="33.6" width="9.25" height="1.22"/>
</g>
</g>
<g id="Iron-Heart_Galaxy">
<path id="Heart_Galaxy" d="M82.3,43.49v-9.13l2.7-2.1l2.7,2.1v9.13L85,46.2L82.3,43.49z" fill="rgb(111, 103, 103)"/><rect id="Center_Heart_Galaxy" class="option" x="84.07" y="35.76" width="1.87" height="6.25" fill="rgb(221, 83, 0)" style="display: inherit;"/>
</g>
<g id="Neck-Armor_Galaxy">
<g id="Neck-Plate_Galaxy" fill="rgb(153, 44, 197)">
<path d="M82.75,25.51l-7.39,0.12l-1.82-2.97l-7.05,0.84l-0.7,3.07l-4.52,0.56l-3.33-11.42l11.55-3.44 c0,0,1.53,2.58,2.64,3.49c1.14,0.93,2.66,2.02,4.08,2.64c1.56,0.68,3.46,1.13,5.27,1.42c0.19,0.03,0.38,0.06,0.59,0.08 L82.75,25.51z"/>
<path d="M87.25,25.51l7.39,0.12l1.82-2.97l7.05,0.84l0.7,3.07l4.52,0.56l3.33-11.42l-11.55-3.44 c0,0-1.53,2.58-2.64,3.49c-1.14,0.93-2.66,2.02-4.08,2.64c-1.56,0.68-3.46,1.13-5.27,1.42c-0.19,0.03-0.38,0.06-0.59,0.08 L87.25,25.51z"/>
</g>
<g id="Trauma-Plates_Neck_Galaxy" class="toggle" style="display:none" fill="rgb(255, 255, 255)"/>
</g>
</g></g>
<g id="ChestDecals" mask="url(#ChestMask)">
</g>
<g id="Chest-Attachments"><g id="Bandoleer_Accessories_Chest" class="option" style="display: inherit;">
<g id="Strap_Bandoleer_Accessories_Chest" fill="rgb(111, 103, 103)">
<path d="M113.05,15.37l-6.61-3.15L64.67,87.5l6.61,3.62L113.05,15.37"/>
<path d="M111.26,14.16l-2.51-1.17l-8.34,15.03l2.41,1.32L111.26,14.16"/>
<path d="M99.44,35.85l-2.76-1.51L83.86,57.44l2.76,1.51L99.44,35.85"/>
<path d="M99.71,36.72l-3.92-2.15l-1.28,2.32l3.92,2.15L99.71,36.72"/>
<path d="M98.15,39.53l-3.92-2.15l-1.28,2.32l3.92,2.15L98.15,39.53"/>
<path d="M96.6,42.33l-3.92-2.15L91.4,42.5l3.92,2.15L96.6,42.33"/>
<path d="M95.04,45.14l-3.92-2.15l-1.28,2.32l3.92,2.15L95.04,45.14"/>
<path d="M93.48,47.94l-3.92-2.15l-1.29,2.32l3.92,2.15L93.48,47.94"/>
<path d="M90.37,53.55l-3.92-2.15l-1.29,2.32l3.92,2.15L90.37,53.55"/>
<path d="M91.93,50.75l-3.92-2.15l-1.29,2.32l3.92,2.15L91.93,50.75"/>
<path d="M88.82,56.36l-3.92-2.15l-1.28,2.31l3.92,2.15L88.82,56.36"/>
</g>
<g id="Ammo_Bandoleer_Accessories_Chest" fill="rgb(255, 104, 0)">
<g>
<g>
<path d="M99.57,36.97l1.6,0.88c0.17,0.09,0.23,0.31,0.14,0.48c-0.18,0.33-0.47,0.85-0.66,1.18 c-0.1,0.17-0.31,0.23-0.48,0.14l-1.6-0.88L99.57,36.97z"/>
<path d="M100.75,37.61l-0.13-0.07l-1,1.8l0.13,0.07L100.75,37.61z"/>
<path d="M100.47,37.46l-0.13-0.07l-1,1.8l0.14,0.07L100.47,37.46z"/>
</g>
<g>
<path d="M95.65,34.82l-1,1.8l-1.6-0.88c-0.17-0.09-0.23-0.31-0.14-0.48c0.18-0.33,0.47-0.85,0.66-1.19 c0.09-0.17,0.31-0.23,0.48-0.14L95.65,34.82z"/>
<path d="M94.44,34.15l-0.13-0.07l-1,1.8l0.14,0.07L94.44,34.15z"/>
</g>
</g>
<g>
<g>
<path d="M96.45,42.6l1.6,0.88c0.17,0.09,0.23,0.31,0.14,0.48c-0.18,0.33-0.47,0.85-0.66,1.19 c-0.09,0.17-0.31,0.23-0.48,0.14l-1.6-0.88L96.45,42.6z"/>
<path d="M97.63,43.24l-0.13-0.07l-1,1.8l0.13,0.07L97.63,43.24z"/>
<path d="M97.35,43.09l-0.13-0.07l-1,1.8l0.13,0.07L97.35,43.09z"/>
</g>
<g>
<path d="M92.53,40.45l-1,1.8l-1.6-0.88c-0.17-0.09-0.23-0.31-0.14-0.48c0.18-0.33,0.47-0.85,0.66-1.19 c0.1-0.17,0.31-0.23,0.48-0.14L92.53,40.45z"/>
<path d="M91.32,39.78l-0.13-0.07l-1,1.8l0.13,0.07L91.32,39.78z"/>
</g>
</g>
<g>
<g>
<path d="M94.9,45.38l1.6,0.88c0.17,0.09,0.23,0.31,0.14,0.48c-0.18,0.33-0.47,0.85-0.66,1.18 c-0.09,0.17-0.31,0.23-0.48,0.14l-1.6-0.88L94.9,45.38z"/>
<path d="M96.08,46.03l-0.13-0.07l-1,1.8l0.13,0.07L96.08,46.03z"/>
<path d="M95.8,45.88l-0.13-0.07l-1,1.8l0.13,0.07L95.8,45.88z"/>
</g>
<g>
<path d="M90.98,43.24l-1,1.8l-1.6-0.88c-0.17-0.09-0.23-0.31-0.14-0.48c0.18-0.33,0.47-0.85,0.66-1.19 c0.1-0.17,0.31-0.23,0.48-0.14L90.98,43.24z"/>
<path d="M89.77,42.57l-0.13-0.07l-1,1.8l0.13,0.07L89.77,42.57z"/>
</g>
</g>
<g>
<g>
<path d="M93.34,48.21l1.6,0.88c0.17,0.09,0.23,0.31,0.14,0.48c-0.18,0.33-0.47,0.85-0.66,1.19 c-0.09,0.17-0.31,0.23-0.48,0.14l-1.6-0.88L93.34,48.21z"/>
<path d="M94.52,48.85l-0.13-0.07l-1,1.8l0.13,0.07L94.52,48.85z"/>
<path d="M94.24,48.7l-0.13-0.07l-1,1.8l0.13,0.07L94.24,48.7z"/>
</g>
<g>
<path d="M89.42,46.06l-1,1.8l-1.6-0.88c-0.17-0.09-0.23-0.31-0.14-0.48c0.18-0.33,0.47-0.85,0.66-1.18 c0.1-0.17,0.31-0.23,0.48-0.14L89.42,46.06z"/>
<path d="M88.21,45.39l-0.13-0.07l-1,1.8l0.13,0.07L88.21,45.39z"/>
</g>
</g>
</g>
<g id="Buckles_Bandoleer_Accessories_Chest" fill="rgb(153, 44, 197)">
<g>
<path d="M104,27.77l-2.88-1.58l-1.63,2.93l2.88,1.58L104,27.77z"/>
<path d="M103.26,28.27l-2.17-1.19l-1.63,2.93l2.17,1.19L103.26,28.27z"/>
</g>
<path d="M104,24.34l-1.86-1.01l1.61-2.92l3.76,2.05l-1.61,2.92L104,24.34l0.36-0.65l1.06,0.58l0.89-1.61l-2.07-1.13 l-0.89,1.61l1.01,0.55"/>
</g>
</g></g>
<g id="Collar"><g id="None_Collar" class="option" style="display: inherit;">
</g>
</g>
<g id="CollarDecals" mask="url(#CollarMask)">
</g>
<g id="Helmets" class="swappable" transform="translate(45,-52)"><g id="Helmet_Classic">
<g id="Left-Earcap_Classic" class="toggle"><path id="Ear-Cap_Left_Classic" d="M60.03,57.18l1.74-2.57l-1.74-17.81l-2.43-1.53L60.03,57.18z" fill="rgb(153, 44, 197)"/>
</g>
<g id="Right-Earcap_Classic" class="toggle"><path id="Ear-Cap_Right_Classic" d="M19.97,57.18l-1.74-2.57l1.74-17.81l2.43-1.53L19.97,57.18z" fill="rgb(153, 44, 197)"/>
</g>
<g id="Helmet_Pieces_Classic">
<g id="Face_Classic" fill="rgb(153, 44, 197)">
<path d="M22.24,58.73c0,0,0.61-4.18,1.53-6.26c0.94-2.11,2.73-4.44,4.76-4.08c1.62,0.29,4.83,7.93,5.07,17.33 C33.44,65.57,22.24,58.73,22.24,58.73z"/>
<path d="M57.74,58.73c0,0-0.61-4.18-1.53-6.26c-0.94-2.11-2.73-4.44-4.76-4.08c-1.62,0.29-4.84,7.93-5.07,17.33 C46.53,65.57,57.74,58.73,57.74,58.73z"/>
</g>
<g id="Cheeks_Classic" fill="rgb(111, 103, 103)">
<path d="M22.24,58.73v0.1l-2.44-0.19l1.76-16.29c0.61,0.19,5.65,1.77,7.36,3.35c1.82,1.69,3.01,4.31,3.59,6.77 c0.63,2.68,0.95,9.62,1.05,12.23c-0.43-8.92-3.47-16.03-5.03-16.31c-2.03-0.36-3.82,1.97-4.76,4.08 C22.85,54.55,22.24,58.73,22.24,58.73z"/>
<path d="M46.42,64.7c0.1-2.61,0.43-9.55,1.06-12.23c0.58-2.46,1.77-5.08,3.59-6.77c1.68-1.57,6.63-3.12,7.36-3.35 l1.76,16.28l-2.44,0.19v-0.1c0,0-0.61-4.18-1.53-6.26c-0.94-2.11-2.73-4.44-4.76-4.08C49.88,48.67,46.85,55.78,46.42,64.7z"/>
</g>
<path id="Eyes_Classic" d="M46.38,65.72H33.6c0,0-0.31-9.91-1.09-13.25c-0.58-2.46-1.77-5.08-3.59-6.77 c-1.82-1.69-7.33-3.37-7.33-3.37l0.65-6.29c0,0,5.69,0.74,8.55,0.92c2.69,0.17,8.13,0.21,9.2,0.22c1.07-0.01,6.51-0.05,9.2-0.22 c2.86-0.18,8.55-0.92,8.55-0.92l0.65,6.29c0,0-5.51,1.68-7.33,3.37c-1.82,1.69-3.01,4.31-3.59,6.77 C46.69,55.8,46.38,65.7,46.38,65.72z" fill="rgb(153, 44, 197)"/>
<g fill="#000000" id="Visors_Classic"><path fill="rgb(0, 0, 0)" id="Basic_Visor_Classic" class="option" d="M43.42,65.72h-6.87V42.33c0,0-3.82-0.35-5.67-0.78 c-2.26-0.52-7.89-2.33-7.89-2.33l0.08-1.31c0,0,5.19,0.89,7.81,1.17c2.57,0.27,6.07,0.65,9.11,0.65s6.54-0.37,9.11-0.65 c2.62-0.28,7.81-1.17,7.81-1.17l0.08,1.31c0,0-5.63,1.81-7.89,2.33c-1.86,0.42-5.67,0.78-5.67,0.78V65.72z" style="display: inherit;"/>
</g>
<path id="Dome_Classic" d="M22.24,36.05l0-0.01v-0.11c0.06-9.27,7.88-16.81,17.57-17v0h0.12l0.07,0l0.07,0h0.12v0 c9.69,0.19,17.5,7.72,17.56,17v0.11l0,0.01c-0.75,0.1-5.9,0.74-8.55,0.91c-2.69,0.17-8.13,0.21-9.2,0.22 c-1.07-0.01-6.51-0.05-9.2-0.22C28.14,36.79,22.99,36.15,22.24,36.05z" fill="rgb(111, 103, 103)"/>
</g>
</g></g>
<g id="HelmetsDecals" mask="url(#HelmetsMask)"/>
<g id="Shoulders">
<g id="Left-Shoulder"><g id="Classic_Shoulder_Left" class="option" style="display: inherit;">
<path id="Main_Shoulder_Classic_Left" d="M117.21,13.84l-2.52,11.33l2.02,6.52l13.49,6.79l2.27-3.46L117.21,13.84z " fill="rgb(153, 44, 197)"/>
<path id="Trauma-Plates_Shoulder_Classic_Left" class="toggle" style="display:none" d="M116.44,25.1l1.67,5.41l11.49,5.78l1.94-2.96 l-12.93-17.99L116.44,25.1z" fill="rgb(255, 255, 255)"/>
</g>
</g>
<g id="Right-Shoulder"><g id="Classic_Shoulder_Right" class="option" style="display: inherit;">
<path id="Main_Shoulder_Classic_Right" d="M52.79,13.84l2.52,11.33l-2.02,6.52l-13.49,6.79l-2.27-3.46L52.79,13.84 z" fill="rgb(153, 44, 197)"/>
<path id="Trauma-Plates_Shoulder_Classic_Right" class="toggle" style="display:none" d="M53.56,25.1l-1.67,5.41L40.4,36.29l-1.94-2.96 l12.93-17.99L53.56,25.1z" fill="rgb(255, 255, 255)"/>
</g>
</g>
</g>
<g id="ShouldersDecals" mask="url(#ShouldersMask)">
</g>
<g id="Gauntlets">
<g id="Left-Gauntlets"><g id="Heavy_Gauntlet_Left" class="option" style="display: inherit;">
<g id="Top-2_Heavy_Gauntlet_Left" fill="rgb(153, 44, 197)">
<path d="M140.68,79.64l1.74,0.13l1.43,8.11l-1.48,1.23L140.68,79.64z"/>
<path d="M142.25,88.39l1.82,10.57l-0.95,1.28l1.11,6.22l-0.44,0.32l-3.07-17.02L142.25,88.39z"/>
<ellipse cx="142.26" cy="85.76" rx="0.38" ry="0.38"/>
</g>
<g id="Top-1_Heavy_Gauntlet_Left" fill="rgb(153, 44, 197)">
<path d="M139.42,107.96l4.36-1.17l-3.07-17.02l1.54-1.38l-1.66-9.27l-6.59-0.67L139.42,107.96z"/>
<path d="M138.89,78.94l1.82,10.82"/>
</g>
<g id="Accent-Top_Heavy_Gauntlet_Left" fill="rgb(111, 103, 103)">
<path d="M142.53,104.17l-2.77,0.56l0.42,2.15l2.77-0.65L142.53,104.17z"/>
<path d="M140.78,95.16l-2.77,0.56l1.62,8.4l2.77-0.56L140.78,95.16z"/>
<path d="M138.29,79.56l-3.13-0.24l1.64,9.21l2.91-0.59L138.29,79.56z"/>
</g>
<path id="Bottom_Heavy_Gauntlet_Left" d="M134.08,78.88c-3.37,0.13-6.88,1.57-9.06,4.4 c-0.71,0.92-0.92,2.12-0.58,3.22c1.64,5.35,7.01,22.84,7.01,22.84l7.98-1.39L134.08,78.88z" fill="rgb(111, 103, 103)"/>
<g id="Accent-Bottom_Heavy_Gauntlet_Left" fill="rgb(111, 103, 103)">
<path d="M139.42,107.96l-7.98,1.39l-0.43-1.41l8.13-1.52L139.42,107.96z"/>
<path d="M134.44,80.86c-4.35,0.43-7.98,2.01-9.69,6.7l-0.32-1.04c-0.27-0.87-0.19-1.8,0.2-2.61l0.41-0.65 c2.19-2.81,5.68-4.24,9.03-4.37L134.44,80.86z"/>
<path d="M133.31,79.53l-3.52,0.69l2.77,13.89l3.52-0.69L133.31,79.53z"/>
<path d="M132.9,79.88l-2.59,0.51l2.56,12.85l2.59-0.51L132.9,79.88z"/>
<path d="M130.3,80.39l-0.51-0.17"/>
<path d="M133.31,79.53l-0.41,0.35"/>
<path d="M136.08,93.42l-0.62-0.7"/>
<path d="M132.56,94.12l0.37-0.89"/>
</g><g id="No-Device_Attachment_Heavy_Gauntlet_Left" class="option" style="display: inherit;">
</g>
</g></g>
<g id="Right-Gauntlets"><g id="Heavy_Gauntlet_Right" class="option" style="display: inherit;">
<g id="Top-2_Heavy_Gauntlet_Right" fill="rgb(153, 44, 197)">
<path d="M29.5,79.64l-1.74,0.13l-1.43,8.11l1.48,1.23L29.5,79.64z"/>
<path d="M27.93,88.39l-1.82,10.57l0.95,1.28l-1.11,6.22l0.44,0.32l3.07-17.02L27.93,88.39z"/>
<ellipse cx="27.92" cy="85.76" rx="0.38" ry="0.38"/>
</g>
<g id="Top-1_Heavy_Gauntlet_Right" fill="rgb(153, 44, 197)">
<path d="M30.76,107.96l-4.36-1.17l3.07-17.02l-1.54-1.38l1.66-9.27l6.59-0.67L30.76,107.96z"/>
<path d="M31.29,78.94l-1.82,10.82"/>
</g>
<g id="Accent-Top_Heavy_Gauntlet_Right" fill="rgb(111, 103, 103)">
<path d="M27.66,104.17l2.77,0.56l-0.42,2.15l-2.77-0.65L27.66,104.17z"/>
<path d="M29.4,95.16l2.77,0.56l-1.62,8.4l-2.77-0.56L29.4,95.16z"/>
<path d="M31.89,79.56l3.13-0.24l-1.64,9.21l-2.91-0.59L31.89,79.56z"/>
</g>
<path id="Bottom_Heavy_Gauntlet_Right" d="M36.11,78.88c3.37,0.13,6.88,1.57,9.06,4.4 c0.71,0.92,0.92,2.12,0.58,3.22c-1.64,5.35-7.01,22.84-7.01,22.84l-7.98-1.39L36.11,78.88z" fill="rgb(111, 103, 103)"/>
<g id="Accent-Bottom_Heavy_Gauntlet_Right" fill="rgb(111, 103, 103)">
<path d="M30.76,107.96l7.98,1.39l0.43-1.41l-8.13-1.52L30.76,107.96z"/>
<path d="M35.74,80.86c4.35,0.43,7.98,2.01,9.69,6.7l0.32-1.04c0.27-0.87,0.19-1.8-0.2-2.61l-0.41-0.65 c-2.19-2.81-5.68-4.24-9.03-4.37L35.74,80.86z"/>
<path d="M36.88,79.53l3.52,0.69l-2.77,13.89l-3.52-0.69L36.88,79.53z"/>
<path d="M37.29,79.88l2.59,0.51l-2.56,12.85l-2.59-0.51L37.29,79.88z"/>
<path d="M39.88,80.39l0.51-0.17"/>
<path d="M36.88,79.53l0.41,0.35"/>
<path d="M34.1,93.42l0.62-0.7"/>
<path d="M37.62,94.12l-0.37-0.89"/>
</g><g id="No-Device_Attachment_Heavy_Gauntlet_Right" class="option" style="display: inherit;">
</g>
</g></g>
</g>
<g id="GauntletsDecals" mask="url(#GauntletsMask)">
</g>
<g id="Shins">
<g id="Left-Shin"><g id="Legacy_Shin_Left" class="option" style="display: inherit;">
<path id="Plate-3_Legacy-Shin_Left" d="M106.28,197.61l4.11,15.38c0,0,4.92,0.96,7.57,0.65 c2.65-0.31,6.2-1.73,6.2-1.73l-1.54-16.54l-7.09,4.38L106.28,197.61" fill="rgb(153, 44, 197)"/>
<path id="Plate-2_Legacy-Shin_Left" d="M103.21,188.12l2.4,9.33l9.92,2.29l7.71-4.76l-0.77-9.42l-8.66,4.43 L103.21,188.12" fill="rgb(111, 103, 103)"/>
<path id="Plate-1_Legacy-Shin_Left" d="M106.81,174.99l-5.99,6.53l1.7,6.48l11.29,2l9.26-4.74l-0.62-7.98 l-7.29-3.49L106.81,174.99" fill="rgb(153, 44, 197)"/>
<path id="Trauma-Plate-3_Legacy-Shin_Left" class="toggle" style="display:none" d="M121.19,198.24l-4.76,2.94 c-0.38,0.24-0.84,0.31-1.28,0.21l-6.5-1.5l3.11,11.63c1.5,0.25,4.28,0.65,6.01,0.44c1.54-0.18,3.41-0.77,4.59-1.18L121.19,198.24 " fill="rgb(255, 255, 255)"/>
<path id="Trauma-Plate-2_Legacy-Shin_Left" class="toggle" style="display:none" d="M120.98,188.23l-6.39,3.27 c-0.33,0.17-0.71,0.23-1.08,0.16l-8.01-1.42l1.49,5.8l8.23,1.9l6.23-3.85L120.98,188.23" fill="rgb(255, 255, 255)"/>
<path id="Trauma-Plate-1_Legacy-Shin_Left" class="toggle" style="display:none" d="M107.66,176.57l-4.95,5.41l1.19,4.54l9.65,1.71l7.75-3.96 l-0.46-5.89l-5.94-2.85L107.66,176.57" fill="rgb(255, 255, 255)"/>
<g id="Ridge_Legacy-Shin_Left" class="toggle" style="display:none" fill="rgb(255, 255, 255)"/>
</g></g>
<g id="Right-Shin"><g id="Legacy_Shin_Right" class="option" style="display: inherit;">
<path id="Plate-3_Legacy-Shin_Right" d="M63.61,197.61l-4.11,15.38c0,0-4.92,0.96-7.57,0.65 c-2.65-0.31-6.2-1.73-6.2-1.73l1.55-16.54l7.09,4.38L63.61,197.61" fill="rgb(153, 44, 197)"/>
<path id="Plate-2_Legacy-Shin_Right" d="M66.68,188.12l-2.4,9.33l-9.92,2.29l-7.71-4.76l0.77-9.42l8.66,4.43 L66.68,188.12" fill="rgb(111, 103, 103)"/>
<path id="Plate-1_Legacy-Shin_Right" d="M63.08,174.99l5.99,6.53l-1.7,6.48l-11.29,2l-9.26-4.74l0.62-7.98 l7.29-3.49L63.08,174.99" fill="rgb(153, 44, 197)"/>
<path id="Trauma-Plate-3_Legacy-Shin_Right" class="toggle" style="display:none" d="M48.71,198.24l4.76,2.94c0.38,0.24,0.84,0.31,1.28,0.21 l6.5-1.5l-3.11,11.63c-1.5,0.25-4.28,0.65-6.01,0.44c-1.54-0.18-3.41-0.77-4.59-1.18L48.71,198.24" fill="rgb(255, 255, 255)"/>
<path id="Trauma-Plate-2_Legacy-Shin_Right" class="toggle" style="display:none" d="M48.91,188.23l6.39,3.27c0.33,0.17,0.71,0.23,1.08,0.16 l8.01-1.42l-1.49,5.8l-8.23,1.9l-6.23-3.85L48.91,188.23" fill="rgb(255, 255, 255)"/>
<path id="Trauma-Plate-1_Legacy-Shin_Right" class="toggle" style="display:none" d="M62.23,176.57l4.95,5.41L66,186.52l-9.65,1.71 l-7.75-3.96l0.46-5.89l5.94-2.85L62.23,176.57" fill="rgb(255, 255, 255)"/>
<g id="Ridge_Legacy-Shin_Right" class="toggle" style="display:none" fill="rgb(255, 255, 255)"/>
</g></g>
</g>
<g id="ShinsDecals" mask="url(#ShinsMask)">
</g>
<g id="Foot">
<g id="Left-Ankle"><g id="Heavy_Ankle_Left" class="option" style="display: inherit;">
<path id="Plate_Heavy-Ankle_Left" d="M107.19,218.98l0.36,3.6l7.43,9.26l7.24-3.25l7.88-2.03l-5.95-10.52 c-3.01-0.42-6.51-0.06-10.55,1.15l-2.25,1.97L107.19,218.98" fill="rgb(111, 103, 103)"/>
<path id="Trim_Heavy-Ankle_Left" d="M113.6,217.2l0.85,1.02l-2.65,2.25l-3-0.13l0.11,1.46l6.44,7.92l6.46-3.01 l7.78-1.84l0.81,1.62l-8.16,2.1l-7.24,3.25l-7.43-9.26l-0.36-3.6l4.16,0.18L113.6,217.2" fill="rgb(153, 44, 197)"/>
</g></g>
<g id="Left-Toe"><g id="None_Toe_Left" class="option" style="display: inherit;">
</g>
</g>
<g id="Right-Ankle"><g id="Heavy_Ankle_Right" class="option" style="display: inherit;">
<path id="Plate_Heavy-Ankle_Right" d="M62.68,218.98l-0.36,3.6l-7.43,9.26l-7.24-3.25l-7.88-2.03l5.95-10.52 c3-0.42,6.51-0.06,10.55,1.15l2.25,1.97L62.68,218.98" fill="rgb(111, 103, 103)"/>
<path id="Trim_Heavy-Ankle_Right" d="M56.27,217.2l-0.85,1.02l2.65,2.25l3.01-0.13l-0.11,1.46l-6.44,7.92 l-6.46-3.01l-7.78-1.84l-0.81,1.62l8.16,2.1l7.24,3.25l7.43-9.26l0.36-3.6l-4.16,0.18L56.27,217.2" fill="rgb(153, 44, 197)"/>
</g></g>
<g id="Right-Toe"><g id="None_Toe_Right" class="option" style="display: inherit;">
</g>
</g>
</g>
<g id="FootDecals" mask="url(#FootMask)">
</g>
<g id="Knees">
<g id="Left-Knee"><g id="Basic_Knee_Left" class="option" style="display: inherit;">
<g id="Missiles_Basic-Knee_Left" class="toggle" style="display:none"/>
<g id="Knee_Basic-Knee_Left" fill="rgb(153, 44, 197)">
<path d="M96.42,158.84l1.43-0.23c0,0,1.08,6.92,1.56,9.99c0.12,0.79-0.42,1.54-1.21,1.66c0,0,0,0,0,0L96.42,158.84z "/>
<path d="M97.81,158.32l0.82,5.14c1.05-0.59,3.7,0.5,4.57,3.58c1.59,5.67,2.97,6.97,7.95,6.46 c3.87-0.4,6.64-2.2,6.96-4.87c0.46-3.85,0-9.43-0.23-11.79c-0.03-0.29-0.18-0.56-0.41-0.74c-0.23-0.18-0.53-0.26-0.82-0.23 C112.43,156.41,97.81,158.32,97.81,158.32z"/>
<path d="M97.31,158.39l0.49-0.07l0.92,5.56l-0.49,0.07L97.31,158.39z"/>
</g>
</g>
</g>
<g id="Right-Knee"><g id="Basic_Knee_Right" class="option" style="display: inherit;">
<g id="Missiles_Basic-Knee_Right" class="toggle" style="display:none"/>
<g id="Knee_Basic-Knee_Right" fill="rgb(153, 44, 197)">
<path d="M73.47,158.84l-1.43-0.23c0,0-1.08,6.92-1.56,9.99c-0.12,0.79,0.42,1.54,1.21,1.66c0,0,0,0,0,0 L73.47,158.84z"/>
<path d="M72.09,158.32l-0.82,5.14c-1.05-0.59-3.7,0.5-4.57,3.58c-1.59,5.67-2.97,6.97-7.95,6.46 c-3.87-0.4-6.64-2.2-6.96-4.87c-0.46-3.85,0-9.43,0.23-11.79c0.03-0.29,0.18-0.56,0.41-0.74c0.23-0.18,0.53-0.26,0.82-0.23 C57.46,156.41,72.09,158.32,72.09,158.32z"/>
<path d="M72.58,158.39l-0.49-0.07l-0.92,5.56l0.49,0.07L72.58,158.39z"/>
</g>
</g>
</g>
</g>
<g id="KneesDecals" mask="url(#KneesMask)">
</g>
<g id="Thighs">
<g id="Left-Thigh"><g id="Legacy_Thigh_Left" class="option" style="display: inherit;">
<path id="Plate-3_Legacy-Thigh_Left" d="M97.79,140.5l1.83,10.6l10.33,1.6l8.34-3.62l0.4-10.82l-9.49,4.43 L97.79,140.5" fill="rgb(111, 103, 103)"/>
<path id="Plate-2_Legacy-Thigh_Left" d="M95.49,130.29l1.76,10.11l11.94,2.28l10.04-4.69l0.49-12.31l-11.34,7.2 L95.49,130.29" fill="rgb(153, 44, 197)"/>
<path id="Plate-1_Legacy-Thigh_Left" d="M120.79,115.62l-8.83-7.68l-11.8,1.93l-6.77,11.14l1.7,9.2l13.28,2.67 l11.87-7.53L120.79,115.62" fill="rgb(111, 103, 103)"/>
<path id="Trauma-Plate-3_Legacy-Thigh_Left" class="toggle" style="display:none" d="M116.67,141.54l-6.78,3.16 c-0.32,0.15-0.67,0.19-1.01,0.13l-8.71-1.66l1.03,5.96l8.52,1.32l6.73-2.92L116.67,141.54" fill="rgb(255, 255, 255)"/>
<path id="Trauma-Plate-2_Legacy-Thigh_Left" class="toggle" style="display:none" d="M117.68,129.46l-8.4,5.33 c-0.37,0.24-0.81,0.32-1.23,0.24l-10.17-2.04l0.96,5.49l10.13,1.94l8.42-3.94L117.68,129.46" fill="rgb(255, 255, 255)"/>
<path id="Trauma-Plate-1_Legacy-Thigh_Left" class="toggle" style="display:none" d="M101.24,111.91l-5.83,9.58l1.26,6.82l11.37,2.28 l10.38-6.59l0.42-7.34l-7.39-6.43L101.24,111.91" fill="rgb(255, 255, 255)"/>
<g id="Ridge_Legacy-Thigh_Left" class="toggle" style="" fill="rgb(153, 44, 197)">
<path d="M111.17,131.1l0.46,10.43l-2.44,1.14l-3.14-0.6l-1.42-9.95l3.74,0.75L111.17,131.1"/>
<path d="M111.63,141.54l0.65,10.14l-2.34,1.02l-2.69-0.41l-1.2-10.2l3.14,0.6L111.63,141.54"/>
<path d="M104.64,132.12l-2.91-22.51l4.04-2.05l4.28,0.69l1.11,22.85l-2.79,1.77L104.64,132.12"/>
<path d="M105.77,107.56l2.6,25.31"/>
<path d="M108.37,132.88l0.82,9.8"/>
<path d="M109.19,142.68l0.75,10.01"/>
</g>
</g></g>
<g id="Right-Thigh"><g id="Legacy_Thigh_Right" class="option" style="display: inherit;">
<path id="Plate-3_Legacy-Thigh_Right" d="M72.11,140.5l-1.83,10.6l-10.33,1.6l-8.34-3.62l-0.4-10.82l9.49,4.43 L72.11,140.5" fill="rgb(111, 103, 103)"/>
<path id="Plate-2_Legacy-Thigh_Right" d="M74.4,130.29l-1.76,10.11l-11.94,2.28l-10.04-4.69l-0.49-12.31l11.34,7.2 L74.4,130.29" fill="rgb(153, 44, 197)"/>
<path id="Plate-1_Legacy-Thigh_Right" d="M49.1,115.62l8.83-7.68l11.8,1.93l6.77,11.14l-1.7,9.2l-13.28,2.67 l-11.87-7.53L49.1,115.62" fill="rgb(111, 103, 103)"/>
<path id="Trauma-Plate-3_Legacy-Thigh_Right" class="toggle" style="display:none" d="M53.22,141.54l6.78,3.16c0.32,0.15,0.67,0.19,1.01,0.13 l8.71-1.66l-1.03,5.96l-8.52,1.32l-6.73-2.92L53.22,141.54" fill="rgb(255, 255, 255)"/>
<path id="Trauma-Plate-2_Legacy-Thigh_Right" class="toggle" style="display:none" d="M52.21,129.46l8.4,5.33c0.37,0.24,0.81,0.32,1.23,0.24 l10.17-2.04l-0.96,5.49l-10.13,1.94l-8.42-3.94L52.21,129.46" fill="rgb(255, 255, 255)"/>
<path id="Trauma-Plate-1_Legacy-Thigh_Right" class="toggle" style="display:none" d="M68.65,111.91l5.83,9.58l-1.26,6.82l-11.37,2.28 L51.47,124l-0.42-7.34l7.39-6.43L68.65,111.91" fill="rgb(255, 255, 255)"/>
<g id="Ridge_Legacy-Thigh_Right" class="toggle" style="" fill="rgb(153, 44, 197)">
<path d="M58.72,131.1l-0.46,10.43l2.44,1.14l3.14-0.6l1.42-9.95l-3.74,0.75L58.72,131.1"/>
<path d="M58.26,141.54l-0.65,10.14l2.34,1.02l2.68-0.41l1.2-10.2l-3.14,0.6L58.26,141.54"/>
<path d="M65.26,132.12l2.91-22.51l-4.04-2.05l-4.28,0.69l-1.11,22.85l2.8,1.77L65.26,132.12"/>
<path d="M64.12,107.56l-2.6,25.31"/>
<path d="M61.52,132.88l-0.82,9.8"/>
<path d="M60.7,142.68l-0.75,10.01"/>
</g>
</g></g>
</g>
<g id="ThighsDecals" mask="url(#ThighsMask)">
</g>
<g id="Groin"><g id="Basic_Groin" class="option" style="display: inherit;">
<path id="Groin-Plate_Basic" d="M78.67,122.29L68.22,99.4h33.42l-10.45,22.89l-6.26,5.46L78.67,122.29z" fill="rgb(163, 163, 163)"/>
<path id="Trauma-Plating_Groin" class="toggle" style="display:none" d="M79.77,120.38l-8.61-18.86H98.7l-8.61,18.86l-5.16,4.49L79.77,120.38z" fill="rgb(255, 255, 255)"/>
</g>
</g>
<g id="GroinDecals" mask="url(#GroinMask)">
</g>
<g id="Waist">
<g id="Accessories_Waist">
<g id="Kama" class="toggle" style="">
<g id="Clean_Kama" class="option" style="display: inherit;">
<g id="Trim_Kama-Clean" fill="rgb(153, 44, 197)">
<path d="M101.37,83.6l3.59,57.21l26.42,17.47l-20.04-77.38L101.37,83.6z"/>
<path d="M68.55,83.6l-3.59,57.21l-26.42,17.47l20.04-77.38L68.55,83.6z"/>
</g>
<g id="Main_Kama-Clean" fill="rgb(111, 103, 103)">
<path d="M103.25,83.48l3.47,55.33l23.83,16.29l-19.22-74.21L103.25,83.48z"/>
<path d="M66.67,83.48l-3.47,55.33L39.36,155.1l19.22-74.21L66.67,83.48z"/>
</g>
</g></g>
<g id="Loin-Cloth" class="toggle" style="">
<g id="Clean_Loin-Cloth" class="option" style="display: inherit;">
<path id="Trim_Loin-Cloth-Clean" d="M97.6,87.28H72.32v44.75l12.64,12.57l12.64-12.57V87.28z" fill="rgb(153, 44, 197)"/>
<path id="Main_Loin-Cloth-Clean" d="M95.98,91.99H73.94v39.01l11.02,10.96l11.02-10.96V91.99z" fill="rgb(111, 103, 103)"/>
</g></g>
<g id="Left-Holster" class="toggle" style=""><g id="Hanging-Holster_Left" class="option" style="display: inherit;">
<g id="Weapon_Hanging-Holster-Left">
<g id="Main_Weapon_Hanging-Holster-Left" fill="rgb(153, 44, 197)">
<path d="M117.12,122.65l0.17-3.6l0.62,0.03l0.11-2.26l-0.62-0.03l0.05-1.18c0.02-0.38,0.54-0.67,1.18-0.64 c1.45,0.07,3.93,0.18,5.38,0.25c0.63,0.03,1.13,0.36,1.11,0.75l-0.06,1.18l-0.62-0.03l-0.11,2.26l0.62,0.03l-0.17,3.6 l-1.47-0.07l-0.46,9.96l-4.74-0.22l0.46-9.96L117.12,122.65z"/>
<path d="M124.19,122.45l-0.84-0.04l-0.56,11.97l-4.74-0.22l0.56-11.98l-0.84-0.04l0.13-2.73l6.42,0.29 L124.19,122.45z"/>
<path d="M123.18,115.96l-3.8-0.17l-0.17,3.7l3.8,0.17L123.18,115.96z"/>
<path d="M119.65,123.32l-0.62-0.03l-0.44,9.41l0.62,0.03L119.65,123.32z"/>
<path d="M121.34,121.25l-0.62-0.03l-0.44,9.41l0.62,0.03L121.34,121.25z"/>
<path d="M122.83,123.47l-0.62-0.03l-0.44,9.41l0.62,0.03L122.83,123.47z"/>
</g>
<g id="Accent_Weapon_Hanging-Holster-Left" fill="rgb(221, 83, 0)">
<path d="M119.75,119.89l-0.02,0.38l2.68,0.12l0.02-0.38L119.75,119.89z"/>
<path d="M119.73,120.26l-0.02,0.38l2.68,0.12l0.02-0.38L119.73,120.26z"/>
<path d="M119.76,119.51l-0.02,0.38l2.68,0.12l0.02-0.38L119.76,119.51z"/>
<path d="M119.98,114.87l-0.02,0.38l2.68,0.12l0.02-0.38L119.98,114.87z"/>
<path d="M120,115.82l-0.62-0.03l-0.17,3.7l0.62,0.03L120,115.82z"/>
<path d="M123.18,115.96l-0.62-0.03l-0.17,3.7l0.62,0.03L123.18,115.96z"/>
<path d="M122.21,123.44l-0.95-0.04l-0.44,9.42l0.95,0.04L122.21,123.44z"/>
<path d="M120.6,123.36l-0.95-0.04l-0.44,9.41l0.95,0.04L120.6,123.36z"/>
</g>
</g>
<path id="Holster_Hanging-Holster-Left" d="M117.16,136.53l-0.76-15.17l7.05,11.42l-1.56,20.64 c-1.64,1.71-3.26,1.73-4.85-0.18L117.16,136.53z" fill="rgb(111, 103, 103)"/>
<g id="Straps_Hanging-Holster-Left" fill="rgb(111, 103, 103)">
<path d="M90.19,96.9c7.71,11,15.47,20.31,26.2,24.47l0.13,2.6c-13.34-5.59-20.49-15.06-28.38-27.07H90.19z"/>
<path d="M117.12,139.62c-7.21,5.49-15.01,8.47-24.34,8.98l0.67,2.06c8.08-0.73,15.62-3.7,23.68-8.87V139.62z"/>
<path d="M117.12,141.79l0.02-2.17c1.87,0.83,4.05,0.89,5.77,0.28l-0.17,2.21 C120.89,142.59,118.79,142.62,117.12,141.79z"/>
</g>
<g id="Buckle_Hanging-Holster-Left" fill="rgb(153, 44, 197)">
<path d="M100.26,148.49l-1.01,0.15l0.05,0.33l1.01-0.15L100.26,148.49"/>
<path d="M97.5,108l-0.7-0.92l-0.27,0.2l0.7,0.92L97.5,108"/>
<path d="M97.23,108.21l-1.15,0.92l-2.7-3.31l2.6-2.1l2.7,3.31L97.49,108l-0.58-0.76l0.58-0.47l-1.49-1.83 l-1.43,1.15l1.49,1.83l0.59-0.47L97.23,108.21"/>
<path d="M100.22,148.49l-0.8,0.12l-0.12-0.78l-1.94,0.41l0.27,1.81l1.94-0.41l-0.1-0.7l0.8-0.12l0.21,1.39 l-3.52,0.75l-0.49-3.28l3.52-0.75L100.22,148.49"/>
</g>
</g></g>
<g id="Right-Holster" class="toggle" style=""><g id="Hanging-Holster_Right" class="option" style="display: inherit;">
<g id="Weapon_Hanging-Holster-Right">
<g id="Main_Weapon_Hanging-Holster-Right" fill="rgb(153, 44, 197)">
<path d="M52.77,122.65l-0.17-3.6l-0.62,0.03l-0.11-2.26l0.62-0.03l-0.05-1.18c-0.02-0.38-0.54-0.67-1.18-0.64 c-1.45,0.07-3.93,0.18-5.38,0.25c-0.63,0.03-1.13,0.36-1.11,0.75l0.06,1.18l0.62-0.03l0.11,2.26l-0.62,0.03l0.17,3.6 l1.47-0.07l0.46,9.96l4.74-0.22l-0.46-9.96L52.77,122.65z"/>
<path d="M45.7,122.45l0.84-0.04l0.56,11.97l4.74-0.22l-0.56-11.98l0.84-0.04L52,119.42l-6.42,0.29L45.7,122.45z"/>
<path d="M46.72,115.96l3.8-0.17l0.17,3.7l-3.8,0.17L46.72,115.96z"/>
<path d="M50.24,123.32l0.62-0.03l0.44,9.41l-0.62,0.03L50.24,123.32z"/>
<path d="M48.55,121.25l0.62-0.03l0.44,9.41l-0.62,0.03L48.55,121.25z"/>
<path d="M47.06,123.47l0.62-0.03l0.44,9.41l-0.62,0.03L47.06,123.47z"/>
</g>
<g id="Accent_Weapon_Hanging-Holster-Right" fill="rgb(221, 83, 0)">
<path d="M50.15,119.89l0.02,0.38l-2.68,0.12l-0.02-0.38L50.15,119.89z"/>
<path d="M50.16,120.26l0.02,0.38l-2.68,0.12l-0.02-0.38L50.16,120.26z"/>
<path d="M50.13,119.51l0.02,0.38l-2.68,0.12l-0.02-0.38L50.13,119.51z"/>
<path d="M49.91,114.87l0.02,0.38l-2.68,0.12L47.23,115L49.91,114.87z"/>
<path d="M49.89,115.82l0.62-0.03l0.17,3.7l-0.62,0.03L49.89,115.82z"/>
<path d="M46.72,115.96l0.62-0.03l0.17,3.7l-0.62,0.03L46.72,115.96z"/>
<path d="M47.69,123.44l0.95-0.04l0.44,9.42l-0.95,0.04L47.69,123.44z"/>
<path d="M49.29,123.36l0.95-0.04l0.44,9.41l-0.95,0.04L49.29,123.36z"/>
</g>
</g>
<path id="Holster_Hanging-Holster-Right" d="M52.74,136.53l0.76-15.17l-7.05,11.42l1.56,20.64 c1.64,1.71,3.26,1.73,4.85-0.18L52.74,136.53z" fill="rgb(111, 103, 103)"/>
<g id="Straps_Hanging-Holster-Right" fill="rgb(111, 103, 103)">
<path d="M79.7,96.9c-7.71,11-15.47,20.31-26.2,24.47l-0.13,2.6c13.34-5.59,20.49-15.06,28.38-27.07H79.7z"/>
<path d="M52.78,139.62c7.21,5.49,15.01,8.47,24.34,8.98l-0.67,2.06c-8.08-0.73-15.62-3.7-23.68-8.87V139.62z"/>
<path d="M52.78,141.79l-0.02-2.17c-1.87,0.83-4.05,0.89-5.77,0.28l0.17,2.21C49,142.59,51.1,142.62,52.78,141.79z"/>
</g>
<g id="Buckle_Hanging-Holster-Right" fill="rgb(153, 44, 197)">
<path d="M69.64,148.49l1.01,0.15l-0.05,0.33l-1.01-0.15L69.64,148.49"/>
<path d="M72.39,108l0.7-0.92l0.27,0.2l-0.7,0.92L72.39,108"/>
<path d="M72.66,108.21l1.15,0.92l2.7-3.31l-2.6-2.1l-2.7,3.31L72.4,108l0.58-0.76l-0.58-0.47l1.49-1.83l1.43,1.15 l-1.49,1.83l-0.59-0.47L72.66,108.21"/>
<path d="M69.67,148.49l0.8,0.12l0.12-0.78l1.94,0.41l-0.27,1.81l-1.94-0.41l0.1-0.7l-0.8-0.12l-0.21,1.39 l3.52,0.75l0.49-3.28l-3.52-0.75L69.67,148.49"/>
</g>
</g></g>
<g id="Left-Trophy" class="toggle" style="display:none"/>
<g id="Right-Trophy" class="toggle" style="display:none"/>
</g>
<g id="Under-Belt"><g id="Girth-Belt" class="option" fill="rgb(111, 103, 103)" style="display: inherit;">
<path d="M84.93,84.93c-9.33,0-27.98-2.25-27.98-2.25l0.61-1.91c0,0,18.19,1.5,27.37,2.25 c9.13-0.75,27.37-2.25,27.37-2.25l0.6,1.91C112.91,82.68,94.25,84.93,84.93,84.93z"/>
<path d="M84.93,86.84c-9.52,0-28.56-2.25-28.56-2.25l0.58-1.91c0,0,23.31,1.88,27.98,2.25 c4.66-0.38,27.98-2.25,27.98-2.25l0.58,1.91C113.49,84.59,94.45,86.84,84.93,86.84z"/>
<path d="M84.93,88.75c-9.67,0-28.99-2.25-28.99-2.25l0.43-1.91c0,0,23.8,1.88,28.56,2.25 c4.76-0.38,28.56-2.25,28.56-2.25l0.43,1.91C113.92,86.49,94.6,88.75,84.93,88.75z"/>
<path d="M84.93,90.65c-9.79,0-29.36-2.25-29.36-2.25l0.37-1.91c0,0,24.16,1.88,28.99,2.25 c4.83-0.38,28.99-2.25,28.99-2.25l0.37,1.91C114.29,88.4,94.72,90.65,84.93,90.65z"/>
<path d="M84.93,92.56c-9.9,0-29.69-2.25-29.69-2.25l0.33-1.91c0,0,24.47,1.88,29.36,2.25 c4.89-0.38,29.36-2.25,29.36-2.25l0.33,1.91C114.62,90.31,94.83,92.56,84.93,92.56z"/>
<path d="M84.93,94.47c-10,0-30-2.25-30-2.25l0.31-1.91c0,0,24.74,1.88,29.69,2.25c4.95-0.38,29.69-2.25,29.69-2.25 l0.31,1.91C114.93,92.21,94.93,94.47,84.93,94.47z"/>
<path d="M84.93,96.37c-10.1,0-30.31-2.25-30.31-2.25l0.31-1.91c0,0,25,1.88,30,2.25c5-0.38,30-2.25,30-2.25 l0.31,1.91C115.24,94.12,95.03,96.37,84.93,96.37z"/>
<path d="M84.93,98.28c-10.21,0-30.62-2.25-30.62-2.25l0.32-1.91c0,0,25.26,1.88,30.31,2.25 c5.05-0.38,30.31-2.25,30.31-2.25l0.32,1.91C115.55,96.03,95.14,98.28,84.93,98.28z"/>
<path d="M84.93,100.19c-10.32,0-30.97-2.25-30.97-2.25l0.34-1.91c0,0,25.52,1.88,30.62,2.25 c5.1-0.38,30.62-2.25,30.62-2.25l0.35,1.91C115.9,97.93,95.25,100.19,84.93,100.19z"/>
<path d="M84.93,102.09c-10.45,0-31.36-2.25-31.36-2.25l0.39-1.91c0,0,25.81,1.88,30.97,2.25 c5.16-0.38,30.97-2.25,30.97-2.25l0.39,1.91C116.29,99.84,95.38,102.09,84.93,102.09z"/>
</g>
</g>
<g id="Belt"><g id="Pouch-Belt-4" class="option" style="display: inherit;">
<path id="Main_Pouch-Belt-4" d="M115.21,92.95c-6.82,0.61-22.4,2.83-30.27,2.83c-7.94,0-23.52-2.23-30.26-2.82 l1.01-7.93c5.53,0.49,21.56,2.74,29.26,2.74c7.47,0,23.17-2.23,29.07-2.76L115.21,92.95z" fill="rgb(111, 103, 103)"/>
<rect id="Buckle_Pouch-Belt-4" x="79.37" y="87.01" width="11.28" height="9.21" fill="rgb(153, 44, 197)"/>
<g id="Pouches_Pouch-Belt-4" fill="rgb(153, 44, 197)">
<g>
<g>
<path d="M59.65,83.47c-0.31-0.02-0.62,0.03-0.91,0.16c-0.67,0.29-1.86,0.81-1.86,0.81l7.38,0.42l2-0.95 C66.26,83.91,61.24,83.57,59.65,83.47z"/>
<path d="M66.52,84.19c0.01-0.09-0.03-0.17-0.1-0.22c-0.07-0.05-0.17-0.06-0.24-0.02c-0.66,0.31-1.91,0.9-1.91,0.9 l-1.02,12.42c0.65-0.41,1.29-0.68,1.93-0.85c0.39-0.09,0.68-0.44,0.69-0.84C65.99,91.78,66.15,87.98,66.52,84.19z"/>
<path d="M64.26,84.85l-7.38-0.42c-0.06,1.89-0.23,3.77-0.33,5.65c-0.11,2.08-0.16,4.17-0.34,6.28 c-0.01,0.15,0.04,0.3,0.14,0.41s0.25,0.18,0.4,0.17c2.08-0.01,4.15,0.11,6.22,0.36c0.14,0.02,0.29-0.02,0.4-0.12 c0.11-0.09,0.18-0.23,0.19-0.37c0.1-1.47,0.37-5.33,0.37-5.33L64.26,84.85z"/>
<path d="M64.26,84.85l-7.38-0.42c0,0-0.18,1.6-0.36,3.15c-0.09,0.75,0.14,1.51,0.63,2.08 c0.49,0.58,1.2,0.93,1.96,0.97c0.73,0.04,1.51,0.08,2.23,0.13c0.76,0.04,1.51-0.23,2.06-0.75c0.55-0.52,0.87-1.25,0.86-2 C64.26,86.46,64.26,84.85,64.26,84.85z"/>
<path d="M60.31,89.23c0.26,0.01,0.46,0.26,0.44,0.54c-0.02,0.28-0.24,0.5-0.5,0.49 c-0.26-0.01-0.46-0.26-0.44-0.54C59.83,89.44,60.05,89.22,60.31,89.23z"/>
</g>
</g>
<g>
<path d="M52.22,84.29l0.55-0.85l2.83,0.09l0.35,1.06L52.22,84.29z"/>
<path d="M55.93,84.69c0.01-0.07-0.01-0.13-0.06-0.18c-0.04-0.05-0.11-0.08-0.17-0.08 c-0.85-0.03-3.48-0.13-3.48-0.13l-0.5,11.17c0.11,0.28,1.53,0.46,2.68,0.49c0.5,0.01,0.91-0.38,0.92-0.88 C55.4,91.61,55.53,88.14,55.93,84.69z"/>
</g>
<g>
<g>
<path d="M110.24,83.47c0.31-0.02,0.62,0.03,0.91,0.16c0.67,0.29,1.86,0.81,1.86,0.81l-7.38,0.42l-2-0.95 C103.63,83.91,108.65,83.57,110.24,83.47z"/>
<path d="M103.37,84.19c-0.01-0.09,0.03-0.17,0.1-0.22c0.07-0.05,0.17-0.06,0.24-0.02c0.66,0.31,1.91,0.9,1.91,0.9 l1.02,12.42c-0.65-0.41-1.29-0.68-1.93-0.85c-0.39-0.09-0.68-0.44-0.69-0.84C103.9,91.78,103.74,87.98,103.37,84.19z"/>
<path d="M105.63,84.85l7.38-0.42c0.06,1.89,0.23,3.77,0.33,5.65c0.11,2.08,0.16,4.17,0.34,6.28 c0.01,0.15-0.04,0.3-0.14,0.41c-0.1,0.11-0.25,0.18-0.4,0.17c-2.08-0.01-4.15,0.11-6.22,0.36c-0.14,0.02-0.29-0.02-0.4-0.12 c-0.11-0.09-0.18-0.23-0.19-0.37c-0.1-1.47-0.37-5.33-0.37-5.33L105.63,84.85z"/>
<path d="M105.63,84.85l7.38-0.42c0,0,0.18,1.6,0.36,3.15c0.09,0.75-0.14,1.51-0.63,2.08 c-0.49,0.58-1.2,0.93-1.96,0.97c-0.72,0.04-1.5,0.08-2.23,0.13c-0.76,0.04-1.51-0.23-2.06-0.75c-0.55-0.52-0.87-1.25-0.86-2 C105.63,86.46,105.63,84.85,105.63,84.85z"/>
<path d="M109.58,89.23c-0.26,0.01-0.46,0.26-0.44,0.54c0.02,0.28,0.24,0.5,0.5,0.49 c0.26-0.01,0.46-0.26,0.44-0.54C110.07,89.44,109.84,89.22,109.58,89.23z"/>
</g>
</g>
<g>
<path d="M117.67,84.29l-0.55-0.85l-2.83,0.09l-0.35,1.06L117.67,84.29z"/>
<path d="M113.96,84.69c-0.01-0.07,0.01-0.13,0.06-0.18c0.04-0.05,0.11-0.08,0.18-0.08 c0.85-0.03,3.48-0.13,3.48-0.13l0.5,11.17c-0.11,0.28-1.53,0.46-2.68,0.49c-0.5,0.01-0.91-0.38-0.92-0.88 C114.49,91.61,114.36,88.14,113.96,84.69z"/>
</g>
</g>
</g></g>
</g>
<g id="WaistDecals" mask="url(#WaistMask)">
</g>
<g id="Extras_Front">
<g id="Front"><g id="None_Front" class="option" style="display: inherit;">
</g>
</g>
</g>
<g id="Extras-FrontDecals" mask="url(#FrontMask)">
</g>
</g>
</svg>