<?xml version='1.0' encoding='UTF-8'?><svg version='1.1' xmlns='http://www.w3.org/2000/svg'><metadata><rdf:rdf xmlns:rdf="http://www.w3.org/1999/02/22-rdf-syntax-ns#" xmlns:rdfs="http://www.w3.org/2000/01/rdf-schema#" xmlns:dc="http://purl.org/dc/elements/1.1/"> <rdf:description> <dc:creator>MandoCreator</dc:creator> <dc:publisher>https://www.mandocreator.com</dc:publisher> <dc:description>Your Beskar'gam - created by MandoCreator</dc:description> <dc:format>image/svg+xml</dc:format> <dc:type>Image</dc:type> <dc:title>MandoCreator - Ner Berskar'gam</dc:title> <dc:date>2021-10-08T16:32:58.740Z</dc:date> </rdf:description> </rdf:rdf></metadata><svg version="1.1" id="Male" xmlns="http://www.w3.org/2000/svg" xmlns:xlink="http://www.w3.org/1999/xlink" x="0px" y="0px" viewBox="0 -55 169 300" style="fill: white; fill-rule: evenodd; stroke: black; stroke-width: 0.2px; pointer-events: none; position: relative; height: 100%;">
<g id="Extras_Back">
<g id="Back"><g id="NO-CAPES_Back" class="option" style="display: inherit;">
</g>
</g>
</g>
<g id="Suit">
<g id="Neck-Seal">
<path id="Plain-Neck-Seal" class="option" d="M97,6.1l2.9,6.8l-0.2,6.8l-15.3,1.6l-15.2-1.6L69,12.9l2.9-6.8l12.6,0.7L97,6.1" style="fill: rgb(0, 0, 0); display: inherit;"/>
</g>
<g id="Flight-Suit" style="fill: rgb(0, 0, 0);">
<path d="M72.8,158.4l-1.5,8.7l-11,53.1c0,0-4.9,3-7.4,3.5s-7.7-0.4-7.7-0.4l3.8-43l2.9-18.4l0.7-7.8 c0,0-2.5-22.8-1.7-34.1c0.8-11.4,6.6-34,6.6-34l26.8,0.6l26.8-0.6c0,0,5.8,22.6,6.6,34c0.8,11.4-1.7,34.1-1.7,34.1l0.7,7.8 l2.9,18.4l3.8,43c0,0-5.3,1.2-7.8,0.7s-7.3-3.7-7.3-3.7l-11-53.1l-1.5-8.7l-11.6-30.3L72.8,158.4z"/>
<g>
<path d="M128.5,43.3l11.9,41.6l1,21.5l-9.5,1.8l-6-20.2l-13.6-33.9l0.7-15.5l2.3-3.7L128.5,43.3z"/>
<path d="M40.3,43.3l13.1-8.4l2.3,3.7l0.5,16L42.8,88l-6,20.2l-9.5-1.8l1-21.5L40.3,43.3z"/>
</g>
</g>
<g id="Sleeves" class="toggle" style="fill: rgb(255, 255, 255); display: none;"/>
</g>
<g id="Boots">
<g id="Tall_Boots" class="option" style="display: inherit;">
<g id="Bottom_Tall-Boot" style="fill: rgb(0, 0, 0);">
<path d="M106.9,230.3c0,0.1,0.1,0.3,0.1,0.4c1,1.8,3.6,2.4,5.3,2.8c1.3,0.3,2.5,0.7,3.7,1.2c1.6,0.7,2.5,1.9,3.8,3.1 c0.6,0.5,1.3,0.9,1.9,1.3c1.6,1,3.2,1.1,5.1,1.1c2.5,0.1,4.7-0.3,7.2-0.8c2.2-0.5,3.8-0.9,5.6-1.4c0.6-0.2,1.2-0.3,1.6-0.7 l0.3,0.6l0.2,1.6c0,0-2,1.1-4.2,1.6s-6.5,1.2-6.5,1.2l-0.3-0.7l-1,0.2v0.7l-2.4,0.1l-0.5-0.7H126l0.1,0.6c0,0-1.5,0-2.3-0.5 c-0.2-0.2-0.5-0.6-0.5-0.6l-0.6-0.3l0.1,0.6l-2-0.7l-0.1-0.8l-0.6-0.3v0.6l-1.4-1.1l-0.2-0.7l-3.1-1.6l-1.1,0.4l-2.5-0.6 l-0.1-0.5l-0.6-0.3l-0.4,0.4l-1.7-0.7v-0.5l-0.6-0.2l-0.1,0.4l-1.6-1.1L106.9,230.3z"/>
<path d="M61.9,230.3c0,0.1-0.1,0.3-0.1,0.4c-1,1.8-3.6,2.4-5.3,2.8c-1.3,0.3-2.5,0.7-3.7,1.2 c-1.6,0.7-2.5,1.9-3.8,3.1c-0.6,0.5-1.3,0.9-1.9,1.3c-1.6,1-3.2,1.1-5.1,1.1c-2.5,0.1-4.7-0.3-7.2-0.8c-2.2-0.5-3.8-0.9-5.6-1.4 c-0.6-0.2-1.2-0.3-1.6-0.7l-0.3,0.6l-0.2,1.6c0,0,2,1.1,4.2,1.6c2.1,0.5,6.5,1.2,6.5,1.2l0.3-0.7l1,0.2v0.7l2.4,0.1l0.5-0.7h0.8 l-0.1,0.6c0,0,1.5,0,2.3-0.5c0.2-0.2,0.5-0.6,0.5-0.6l0.6-0.3l-0.1,0.6l2-0.7l0.1-0.8l0.6-0.3v0.6l1.4-1.1l0.2-0.7l3.1-1.6 l1.1,0.4l2.5-0.6l0.1-0.5l0.6-0.3l0.4,0.4l1.7-0.7v-0.5l0.6-0.2l0.1,0.4l1.6-1.1L61.9,230.3z"/>
</g>
<g id="Main_Tall-Boot" style="fill: rgb(0, 0, 0);">
<path d="M106.9,216.9c-1.4-4.2-2.5-11-3.4-14.1c-0.6-2.3-3.6-14.9-3.1-16.4c0.5-1.6,19.5-4.9,20.2-3.4 c0.9,2.2,2,24,2.2,27.2c0.1,2.3,0.5,4.7,0.5,7c0.2,1.3,0.5,2.7,1,3.8c1,2.2,1,3.1,2.6,4.7c1.2,1.1,4.1,3.1,5.5,4 c0.6,0.4,1.2,0.6,1.8,0.9h0.1c2.5,0.9,5.3,1.3,6.6,4.1c0.3,0.6,0.6,1.3,0.5,2c-0.1,0.9-1,1-1.8,1.2c-1.9,0.5-3.5,0.9-5.6,1.4 c-2.5,0.6-4.7,0.9-7.2,0.8c-1.9-0.1-3.5-0.1-5.1-1.1c-0.7-0.4-1.3-0.8-1.9-1.3c-1.3-1.2-2.1-2.4-3.8-3.1 c-1.2-0.5-2.4-0.9-3.7-1.2c-1.8-0.4-4.4-1-5.3-2.8c-0.4-1.3,0-2,0.1-3.1l0.1-0.5c0.1-0.7,0.2-1.5,0.3-2.3 c0.1-1.5-0.3-3.1-0.4-4.6c-0.1-0.9-0.1-1.7-0.1-2.6C106.9,217.4,106.8,217.1,106.9,216.9z"/>
<path d="M61.9,216.9c1.4-4.2,2.5-11,3.4-14.1c0.6-2.3,3.6-14.9,3.1-16.4c-0.5-1.6-19.5-4.9-20.2-3.4 c-0.9,2.2-2,24-2.2,27.2c-0.1,2.3-0.5,4.7-0.5,7c-0.2,1.3-0.5,2.7-1,3.8c-1,2.2-1,3.1-2.6,4.7c-1.2,1.1-4.1,3.1-5.5,4 c-0.6,0.4-1.2,0.6-1.8,0.9h-0.1c-2.5,0.9-5.3,1.3-6.6,4.1c-0.3,0.6-0.6,1.3-0.5,2c0.1,0.9,1,1,1.8,1.2c1.9,0.5,3.5,0.9,5.6,1.4 c2.5,0.6,4.7,0.9,7.2,0.8c1.9-0.1,3.5-0.1,5.1-1.1c0.7-0.4,1.3-0.8,1.9-1.3c1.3-1.2,2.1-2.4,3.8-3.1c1.2-0.5,2.4-0.9,3.7-1.2 c1.8-0.4,4.4-1,5.3-2.8c0.4-1.3,0-2-0.1-3.1l-0.1-0.5c-0.1-0.7-0.2-1.5-0.3-2.3c-0.1-1.5,0.3-3.1,0.4-4.6 c0.1-0.9,0.1-1.7,0.1-2.6C61.9,217.4,61.9,217.1,61.9,216.9z"/>
</g>
</g>
</g>
<g id="Gloves">
<g id="Left-Glove">
<g id="Basic_Left_Glove" class="option" style="fill: rgb(44, 4, 4); display: inherit;">
<path d="M137.6,124.1c-0.5,0-1,0-1.6,0.1c-0.4,0.1-0.7,0.2-1,0.3c-1,0.6-0.7,1.8,0.2,2.3c1,0.6,2.6,0,3.1-1.1 C138.5,125.3,137.9,124.5,137.6,124.1"/>
<path d="M135.8,125.2c-0.5,0-1,0-1.6,0.1c-0.4,0.1-0.7,0.2-1,0.3c-1,0.6-0.7,1.8,0.2,2.3c1,0.5,2.6,0,3.1-1.1 C136.7,126.4,136.1,125.6,135.8,125.2"/>
<path d="M134.5,126.6c-0.5,0-1.2,0.1-1.7,0.3c-0.3,0.1-0.7,0.3-1,0.5c-0.9,0.7-0.5,1.9,0.5,2.2 c1.1,0.4,2.6-0.3,2.9-1.5C135.4,127.7,134.5,126.6,134.5,126.6z"/>
<path d="M131.6,110c0,0-1.6,2.1-2,3.7c-0.3,1.1-0.1,3.7-0.5,5.4c-0.4,1.7-0.7,2.7-0.7,2.7s-1.4,2.8-1.1,3.4 c0.2,0.6,1.4,1.2,2.1,0.9c0.9-0.4,1.9-2.4,2.6-3.8c0.7-1.4,1.2-3.4,1.2-3.4s0.9,0.3,1.4,0.7c1.6,1.2,0.9,5,0.9,5 s-0.7,1.3-1.7,2.8c-1.4,2-3.4,3.8-2.1,5.4c1.3,1.5,4.2-2.4,4.2-2.4l2.9-3.7c0,0,3.3-5.4,3.4-6.5c0.1-0.8,0-3.5,0-3.5l-1-10.4 l-5.2,0.4l-4.3,1.4L131.6,110"/>
</g>
</g>
<g id="Right-Glove">
<g id="Basic_Right_Glove" class="option" style="fill: rgb(44, 4, 4); display: inherit;">
<path d="M31.1,124.1c0.5,0,1,0,1.6,0.1c0.4,0.1,0.7,0.2,1,0.3c1,0.6,0.7,1.8-0.2,2.3c-1,0.6-2.6,0-3.1-1.1 C30.3,125.3,30.9,124.5,31.1,124.1"/>
<path d="M32.9,125.2c0.5,0,1,0,1.6,0.1c0.4,0.1,0.7,0.2,1,0.3c1,0.6,0.7,1.8-0.2,2.3c-1,0.5-2.6,0-3.1-1.1 C32.1,126.4,32.7,125.6,32.9,125.2"/>
<path d="M34.2,126.6c0.5,0,1.2,0.1,1.7,0.3c0.3,0.1,0.7,0.3,1,0.5c0.9,0.7,0.5,1.9-0.5,2.2c-1.1,0.4-2.6-0.3-2.9-1.5 C33.3,127.7,34.2,126.6,34.2,126.6z"/>
<path d="M37.1,110c0,0,1.5,2.1,2,3.7c0.3,1.1,0.1,3.7,0.5,5.4c0.4,1.7,0.7,2.7,0.7,2.7s1.4,2.8,1.1,3.4 c-0.2,0.6-1.4,1.2-2.1,0.9c-0.9-0.4-1.9-2.4-2.6-3.8c-0.7-1.4-1.2-3.4-1.2-3.4s-0.9,0.3-1.4,0.7c-1.6,1.2-0.9,5-0.9,5 s0.7,1.3,1.7,2.8c1.4,2,3.4,3.8,2.1,5.4c-1.3,1.5-4.2-2.4-4.2-2.4l-2.9-3.7c0,0-3.3-5.4-3.4-6.5c-0.1-0.8,0-3.5,0-3.5l1-10.4 l5.2,0.4l4.3,1.4L37.1,110"/>
</g>
</g>
</g>
<g id="Biceps">
<g id="Left-Biceps">
<g id="None_Biceps_Left" class="option" style="display: inherit;">
</g>
</g>
<g id="Right-Biceps">
<g id="None_Biceps_Right" class="option" style="display: inherit;">
</g>
</g>
</g>
<g id="Vest" style="fill: rgb(102, 16, 16);">
<path d="M84.4,20.9c8.4,0,15.3-4.3,15.5-8h0.1l18.3,5.4l13.2,23.9l-2.8,1.2l-13.3-8.6l-2.3,3.7l-1.5,47.4 c0,0-8.7,4.7-13.4,5.3c-3.4,0.5-8.6,0.7-13.7,0.7s-10.3-0.2-13.7-0.7c-4.8-0.6-13.4-5.3-13.4-5.3l-1.5-47.4l-2.3-3.7l-13.3,8.6 l-2.8-1.2l13.2-23.9L69,12.9h0.1C69,16.6,75.9,20.9,84.4,20.9"/>
</g>
<g class="swappable" id="Chest">
<g id="Chest_Gunslinger" style="visibility: visible;">
<g id="Abdomen_Gunslinger">
<g id="Left_Abdomen_Gunslinger" style="fill: rgb(130, 129, 129);">
<path d="M98.4,74l7.2-13l-3.7-5.3l-0.3-0.6l-4.1,0.5l-1.7,20L98.4,74"/>
<path d="M98.4,74l7.2-13l1.9,2.7l2.5-2l-0.7,8.9L98.4,74"/>
</g>
<g id="Right_Abdomen_Gunslinger" style="fill: rgb(130, 129, 129);">
<path d="M70.5,74l-7.2-13l-1.9,2.7l-2.5-2l0.7,8.9L70.5,74"/>
<path d="M70.5,74l-7.2-13l3.7-5.3l0.3-0.6l4.1,0.5l1.7,20L70.5,74"/>
</g>
<path id="Center_Abdomen_Gunslinger" d="M84.5,51.4l13,4.3l-1.7,20l-2,1.2l-9.4-0.5L75,76.9l-2-1.2l-1.7-20 L84.5,51.4" style="fill: rgb(137, 135, 135);"/>
</g>
<g id="Chest-Plates_Gunslinger">
<g id="Left-Chest_Gunslinger" style="fill: rgb(105, 105, 105);">
<path d="M85.2,28.9v-3.1l2.5-2.5l24.2-2.8l2.2,13.5l-3.6,27.2l-3,2.4l-5.6-8l-1.6-3.4l-15-4.6l3.9-3.9V32.5 L85.2,28.9"/>
<path d="M100.3,52.4l11.1-6.5l2.8-11.7l-2.4,12.6l-9.8,9L100.3,52.4"/>
<path d="M101.6,55.1l-4.1,0.5l-13-4.3v-3.8l15.9,4.8L101.6,55.1"/>
</g>
<g id="Right-Chest_Gunslinger" style="fill: rgb(105, 105, 105);">
<path d="M83.7,28.9v-3.1l-2.5-2.5L57,20.6l-2.2,13.5l3.6,27.2l3,2.4l5.6-8l1.6-3.4l15-4.6l-3.9-3.9V32.5L83.7,28.9"/>
<path d="M68.6,52.4l-11.1-6.5l-2.8-11.7l2.4,12.6l9.8,9L68.6,52.4"/>
<path d="M67.3,55.1l4.1,0.5l13-4.3v-3.8l-15.9,4.8L67.3,55.1"/>
</g>
</g>
<g id="Iron-Heart_Gunslinger">
<path id="Under-Heart_Gunslinger" d="M83.6,47.8l-3.9-3.9V32.5l4-3.6v-3.1h1.5v3.1l4,3.6v11.4l-3.9,3.9l-0.8-0.2 L83.6,47.8" style="fill: rgb(0, 0, 0);"/>
<path id="Heart_Gunslinger" d="M81.6,42.9v-9.4l2.9-2.9l2.9,2.9v9.4l-2.9,2.9L81.6,42.9" style="fill: rgb(140, 29, 29);"/>
<g id="None_Heart_Gunslinger" class="option" style="display: inherit;">
</g>
</g>
</g>
</g>
<g id="Chest-Attachments">
<g id="No-Device_Accessories_Chest" class="option" style="display: inherit;">
</g>
</g>
<g id="Collar">
<g id="None_Collar" class="option" style="display: inherit;">
</g>
</g>
<svg version="1.1" id="Helmets" xmlns="http://www.w3.org/2000/svg" y="-54px" height="85px" viewBox="0 0 80 80" class="swappable">
<g id="Helmet_Heavy" style="visibility: visible;">
<g id="Left-Earcap_Heavy" class="toggle">
<g id="Ear-Cap_Left_Heavy" style="fill: rgb(141, 70, 8);">
<path d="M55,25c1.7,2.2,2.8,4.9,3.3,7.7h3.6L61.3,25H55z"/>
<path d="M61.3,25l1.8,1l0.3,5.5l-1.7,1.1L61.3,25z"/>
<path d="M60,32.7l0.3,9.2L61,43l-0.3-10.3H60z"/>
<path d="M61,42.1l0.5-0.7l-0.2-8.7h-0.5L61,42.1z"/>
<path d="M61.4,35.9l0.4-0.4V33l-0.5-0.4L61.4,35.9z"/>
<path d="M59,49.1h1.6V43H61l-0.7-1.1L60,32.7h-1.8c0.2,0.9,0.2,1.9,0.2,2.9L59,49.1z"/>
<rect x="58.6" y="39.1" width="1.4" height="0.2"/>
<rect x="58.6" y="37.3" width="1.4" height="0.2"/>
<rect x="58.5" y="36.7" width="1.4" height="0.2"/>
<rect x="58.5" y="36.1" width="1.4" height="0.2"/>
<rect x="58.5" y="35.5" width="1.4" height="0.2"/>
<rect x="58.5" y="34.9" width="1.4" height="0.2"/>
</g>
</g>
<g id="Right-Earcap_Heavy" class="toggle">
<g id="Ear-Cap_Right_Heavy" style="fill: rgb(141, 70, 8);">
<path d="M25,25c-1.7,2.2-2.8,4.9-3.3,7.7h-3.6l0.5-7.7H25z"/>
<path d="M18.7,25l-1.8,1l-0.3,5.5l1.7,1.1L18.7,25z"/>
<path d="M19.9,32.7l-0.3,9.2L18.9,43l0.3-10.3H19.9z"/>
<path d="M19,42.1l-0.5-0.7l0.2-8.7h0.5L19,42.1z"/>
<path d="M18.6,35.9l-0.4-0.4V33l0.5-0.4L18.6,35.9z"/>
<path d="M21,49.1h-1.6V43h-0.5l0.7-1.1l0.3-9.2h1.8c-0.2,0.9-0.2,1.9-0.2,2.9L21,49.1z"/>
<rect x="19.9" y="39.1" width="1.4" height="0.2"/>
<rect x="19.9" y="37.3" width="1.4" height="0.2"/>
<rect x="20" y="36.7" width="1.4" height="0.2"/>
<rect x="20" y="36.1" width="1.4" height="0.2"/>
<rect x="20.1" y="35.5" width="1.4" height="0.2"/>
<rect x="20.1" y="34.9" width="1.4" height="0.2"/>
</g>
</g>
<g id="Helmet_Pieces_Heavy">
<g id="Face_Heavy" style="fill: rgb(102, 16, 16);">
<path d="M25.7,45c2.4,1.6,5.2,3.5,6.2,4.5c1.2,1.2,2.8,8.8,3.8,13.5l-2-0.5L24,49.9L25.7,45z"/>
<path d="M54.3,45c-2.4,1.6-5.2,3.5-6.2,4.5c-1.2,1.2-2.8,8.8-3.8,13.5l2-0.5L56,49.9L54.3,45z"/>
</g>
<g id="Cheeks_Heavy" style="fill: rgb(130, 129, 129);">
<path d="M25.7,45l-1.8,4.8L21,52.1l1.3-9.3L25.7,45z"/>
<g>
<path d="M54.3,45l1.8,4.8l2.9,2.3l-1.3-9.3L54.3,45z"/>
<path d="M59.1,52.1l-9.9,14.3l-2.8-4l9.7-12.6L59.1,52.1z"/>
<path d="M46.4,62.4l-2,0.5l-0.7,3.8l5.5-0.3L46.4,62.4z"/>
</g>
<path d="M20.9,52.1l9.9,14.3l2.8-4l-9.7-12.6L20.9,52.1z"/>
<path d="M33.6,62.4l2,0.5l0.7,3.8l-5.5-0.3L33.6,62.4z"/>
</g>
<path id="Visor_Heavy" d="M42.2,63.4l1.4,3.4h-7.2l1.4-3.4l-1.3-16.7l0.3-3.5c0,0-4.8-0.9-6.6-1.4 c-1.8-0.5-6.2-2-6.2-2v-1.4l16,0.7l16.1-0.7v1.4c0,0-4.4,1.5-6.2,2c-1.8,0.5-6.6,1.4-6.6,1.4l0.3,3.5L42.2,63.4z" style="fill: rgb(0, 0, 0);"/>
<g id="Eyes_Heavy" style="fill: rgb(105, 105, 105);">
<path d="M58.5,35.6l0.6,16.5l-1.3-9.3c0,0-7.9,5-9.6,6.7s-4.5,17.3-4.5,17.3l-1.4-3.4l1.3-16.7c0,0,6.1-2.6,7.4-3.3 c1.4-0.8,6.2-3.5,6.2-3.5l-0.1-1.5L40,39.1l-17.1-0.8l-0.1,1.5c0,0,4.8,2.7,6.2,3.5s7.4,3.3,7.4,3.3l1.3,16.7l-1.4,3.4 c0,0-2.8-15.5-4.5-17.3c-1.7-1.7-9.6-6.7-9.6-6.7L20.9,52l0.6-16.5L58.5,35.6L58.5,35.6z"/>
<path d="M22.9,39.8l1-0.1c0,0,4.4,1.5,6.2,2c1.8,0.5,6.6,1.4,6.6,1.4l-0.3,3.5c0,0-6.1-2.6-7.4-3.3 S22.9,39.8,22.9,39.8z"/>
<path d="M57.1,39.8l-1-0.1c0,0-4.4,1.5-6.2,2c-1.8,0.5-6.6,1.4-6.6,1.4l0.3,3.5c0,0,6.1-2.6,7.4-3.3 S57.1,39.8,57.1,39.8z"/>
<path d="M23.9,39.8v-1.4H23l-0.1,1.5L23.9,39.8z"/>
<path d="M56.1,39.8v-1.4H57l0.1,1.5L56.1,39.8z"/>
</g>
<path id="Dome_Heavy" d="M58.5,35.6h-37c0-10,8.3-18.1,18.5-18.1C50.2,17.6,58.5,25.6,58.5,35.6z" style="fill: rgb(102, 16, 16);"/>
<rect id="Ridge_Heavy" class="toggle" x="39.4" y="17" width="1.3" height="18.6" style="fill: rgb(130, 129, 129);"/>
<g id="Accents_Heavy" class="toggle" style="fill: rgb(181, 186, 38);">
<path d="M32.2,34.1l-1-1.8h2L32.2,34.1z"/>
<path d="M35.6,34.1l-1-1.8h2L35.6,34.1z"/>
</g>
</g>
</g>
</svg>
<g id="Shoulders">
<g id="Left-Shoulder">
<g id="Classic_Shoulder_Left" class="option" style="display: inherit;">
<path id="Main_Shoulder_Classic_Left" d="M116.5,13.4L114,24.8l2,6.5l13.4,6.8l2.3-3.5L116.5,13.4" style="fill: rgb(130, 129, 129);"/>
<path id="Trauma-Plates_Shoulder_Classic_Left" class="toggle" style="display: none; fill: rgb(255, 255, 255);" d="M115.7,24.7l1.7,5.4l11.4,5.8l1.9-3l-12.8-18 L115.7,24.7"/>
</g>
</g>
<g id="Right-Shoulder">
<g id="Legacy-x2_Shoulder_Right" class="option" style="display: inherit;">
<path id="Plate-2_Shoulder_Right_Legacy-x2" d="M53.7,14.9l5.8,8.7l-5.9,8.3l-9.3-2.3l-6,3.6L33.9,32L53.7,14.9" style="fill: rgb(0, 0, 0);"/>
<path id="Trauma-Plate-2_Shoulder_Legacy-x2_Right" class="toggle" style="fill: rgb(130, 129, 129);" d="M38.1,31.4l-2.8-0.7l17-14.9l5.2,7.7l-4.6,6.4 l-8.6-2.2L38.1,31.4"/>
<path id="Plate-1_Shoulder_Right_Legacy-x2" d="M60.8,10.4l2.6,10.1l-8.3,5.9L47,21.2l-6.7,1.5l-3.8-2.5L60.8,10.4" style="fill: rgb(181, 187, 12);"/>
<path id="Trauma-Plate-1_Shoulder_Legacy-x2_Right" class="toggle" style="fill: rgb(95, 94, 94);" d="M40.6,20.9l-2.4-1.6l21-8.5l2.3,9L55,24.4l-7.4-4.9 L40.6,20.9"/>
</g>
</g>
</g>
<g id="Gauntlets">
<g id="Left-Gauntlets">
<g id="Gunslinger_Gauntlet_Left" class="option" style="display: inherit;">
<g id="Accent-Top_Gunslinger_Gauntlet_Left" style="fill: rgb(181, 187, 12);">
<path d="M139,79.8l0.6,5.6l-2.8,0.8l-0.7-5.3L139,79.8"/>
<path d="M137.7,100.6l0.6,2.9l-2.5,0.5l-0.6-2.9L137.7,100.6"/>
</g>
<path id="Top_Gunslinger_Gauntlet_Left" d="M139,79.8l1.3-0.5l2.3,26.3l-6.2,1.3l-0.8-4.1l0.2,1.2l2.5-0.5l-0.6-2.9 l-2.5,0.5l-3.8-18.5L139,79.8l-2.9,1.1l0.7,5.3l2.8-0.8L139,79.8" style="fill: rgb(130, 129, 129);"/>
<g id="Accent-Bottom_Gunslinger_Gauntlet_Left" style="fill: rgb(140, 29, 29);">
<path d="M127.7,91.2l-0.7-2.3l-1.6,0.5l0.7,2.3L127.7,91.2"/>
<path d="M128.6,93.8l-0.7-2.3l-1.6,0.5l0.7,2.3L128.6,93.8"/>
<path d="M135.2,101.2l-5.6,1.2l0.9,2.8l5.3-1.1L135.2,101.2"/>
</g>
<path id="Bottom_Gunslinger_Gauntlet_Left" d="M135.7,103.6l-0.5-2.4l-5.6,1.2l0.9,2.8l5.3-1.1l0.6,2.9 c0,0-2,0.3-3.4,0.6c-0.9,0.2-1.8-0.4-2.1-1.3c-1.6-4.8-6.3-19.4-6.3-19.4l6.8-3.8L135.7,103.6 M128.6,93.8l-0.7-2.3l-1.6,0.5 l0.7,2.3L128.6,93.8 M127.7,91.2l-0.7-2.3l-1.6,0.5l0.7,2.3L127.7,91.2" style="fill: rgb(130, 129, 129);"/>
<g id="Whistling-Birds_Attachment_Gunslinger_Gauntlet_Left" class="option" style="display: inherit;">
<path id="Head_Whistling-Birds_Attachment_Gunslinger_Gauntlet_Left" d="M144.7,95.2l-2.6,5.3l-0.4-5.1L144.7,95.2" style="fill: rgb(203, 8, 8);"/>
<g id="Birds_Whistling-Birds_Attachment_Gunslinger_Gauntlet_Left" style="fill: rgb(232, 239, 21);">
<path d="M142.2,95.8c0.1,0,0.2,0.2,0.3,0.6c0,0.3,0,0.6-0.2,0.6c-0.1,0-0.2-0.2-0.3-0.6 C142,96.1,142.1,95.8,142.2,95.8"/>
<path d="M142.4,97.4c0.1,0,0.2,0.2,0.3,0.6c0,0.3,0,0.6-0.2,0.6c-0.1,0-0.2-0.2-0.3-0.6 C142.2,97.7,142.3,97.4,142.4,97.4"/>
<path d="M143.1,95.7c0.1,0,0.2,0.2,0.3,0.6c0,0.3,0,0.6-0.2,0.6c-0.1,0-0.2-0.2-0.3-0.6 C142.9,96,142.9,95.7,143.1,95.7"/>
<path d="M142.4,99.9c0-0.1-0.1-0.2-0.1-0.3c0-0.3,0-0.6,0.2-0.6c0.1,0,0.2,0.1,0.2,0.3L142.4,99.9"/>
<path d="M143.2,98.4c-0.1-0.1-0.1-0.3-0.1-0.5c0-0.3,0-0.6,0.2-0.6c0.1,0,0.2,0.2,0.3,0.5L143.2,98.4"/>
<path d="M144,96.8c-0.1,0-0.2-0.3-0.2-0.6c0-0.3,0-0.6,0.2-0.6c0.1,0,0.2,0.2,0.3,0.6v0.2L144,96.8"/>
</g>
<g id="Base_Whistling-Birds_Attachment_Gunslinger_Gauntlet_Left" style="fill: rgb(140, 29, 29);">
<path d="M143.2,79.9l-2,0.2l0.1,0.9l2-0.2L143.2,79.9"/>
<path d="M143.5,80.8l-2.2,0.2l1.2,14.4l2.2-0.2L143.5,80.8"/>
<path d="M143.8,80.9h-0.3l1.1,12.4h0.3L143.8,80.9"/>
<path d="M143.1,80.8h-0.3l1.2,13.5h0.3L143.1,80.8"/>
</g>
<g id="Accent_Whistling-Birds_Attachment_Gunslinger_Gauntlet_Left" style="fill: rgb(102, 16, 16);">
<path d="M141.2,79.9l-0.8,0.1l1.3,14.6l0.8-0.1L141.2,79.9"/>
<path d="M144.8,94.3l-3.2,0.3l0.1,0.9l3.2-0.3L144.8,94.3"/>
<path d="M142.5,80l-1.3,0.1l0.2,2.1l1.3-0.1L142.5,80"/>
<path d="M142.4,82.1l-1,0.1l0.4,5l0.9-2L142.4,82.1"/>
</g>
</g>
</g>
</g>
<g id="Right-Gauntlets">
<g id="Heavy_Gauntlet_Right" class="option" style="display: inherit;">
<g id="Top-2_Heavy_Gauntlet_Right" style="fill: rgb(105, 105, 105);">
<path d="M29.3,78.9L27.6,79l-1.4,8.1l1.5,1.2L29.3,78.9"/>
<path d="M27.8,87.6L26,98.2l0.9,1.3l-1.1,6.2l0.4,0.3l3.1-17L27.8,87.6"/>
<path d="M27.7,84.6c-0.2,0-0.4,0.2-0.4,0.4s0.2,0.4,0.4,0.4c0.2,0,0.4-0.2,0.4-0.4S28,84.6,27.7,84.6"/>
</g>
<g id="Top-1_Heavy_Gauntlet_Right" style="fill: rgb(140, 29, 29);">
<path d="M30.6,107.2l-4.3-1.2l3.1-17l-1.5-1.4l1.6-9.3l6.6-0.7L30.6,107.2"/>
<path d="M31.1,78.2L29.3,89"/>
</g>
<g id="Accent-Top_Heavy_Gauntlet_Right" style="fill: rgb(181, 187, 12);">
<path d="M27.5,103.4l2.8,0.6l-0.4,2.1l-2.8-0.7L27.5,103.4"/>
<path d="M29.2,94.4L32,95l-1.6,8.4l-2.8-0.6L29.2,94.4"/>
<path d="M31.7,78.8l3.1-0.2l-1.6,9.2l-2.9-0.6L31.7,78.8"/>
</g>
<path id="Bottom_Heavy_Gauntlet_Right" d="M35.9,78.1c3.3,0.1,6.8,1.6,9,4.4c0.7,0.9,0.9,2.1,0.6,3.2 c-1.6,5.3-7,22.8-7,22.8l-7.9-1.4L35.9,78.1" style="fill: rgb(105, 105, 105);"/>
<g id="Accent-Bottom_Heavy_Gauntlet_Right" style="fill: rgb(26, 1, 1);">
<path d="M30.6,107.2l7.9,1.4l0.4-1.4l-8.1-1.5L30.6,107.2"/>
<path d="M35.5,80.1c4.3,0.4,7.9,2,9.6,6.7l0.3-1c0.3-0.9,0.2-1.8-0.2-2.6l-0.4-0.7c-2.2-2.8-5.6-4.2-9-4.4 L35.5,80.1"/>
<path d="M36.6,78.8l3.5,0.7l-2.8,13.9l-3.5-0.7L36.6,78.8"/>
<path d="M37.1,79.1l2.6,0.5l-2.5,12.8l-2.6-0.5L37.1,79.1"/>
<path d="M39.6,79.6l0.5-0.2"/>
<path d="M36.6,78.8l0.4,0.3"/>
<path d="M33.9,92.7l0.6-0.7"/>
<path d="M37.4,93.4L37,92.5"/>
</g>
<g id="No-Device_Attachment_Heavy_Gauntlet_Right" class="option" style="display: inherit;">
</g>
</g>
</g>
</g>
<g id="Shins">
<g id="Left-Shin">
<g id="Legacy_Shin_Left" class="option" style="display: inherit;">
<path id="Plate-3_Legacy-Shin_Left" d="M105.6,197.1l4.1,15.4c0,0,4.9,1,7.5,0.7c2.6-0.3,6.2-1.7,6.2-1.7l-1.5-16.5 l-7,4.4L105.6,197.1" style="fill: rgb(102, 16, 16);"/>
<path id="Plate-2_Legacy-Shin_Left" d="M102.5,187.6l2.4,9.3l9.9,2.3l7.7-4.8l-0.8-9.4l-8.6,4.4L102.5,187.6" style="fill: rgb(0, 0, 0);"/>
<path id="Plate-1_Legacy-Shin_Left" d="M106.1,174.5l-5.9,6.5l1.7,6.5l11.2,2l9.2-4.7l-0.6-8l-7.2-3.5L106.1,174.5" style="fill: rgb(140, 29, 29);"/>
<path id="Trauma-Plate-3_Legacy-Shin_Left" class="toggle" style="display: none; fill: rgb(255, 255, 255);" d="M120.4,197.8l-4.7,2.9c-0.4,0.2-0.8,0.3-1.3,0.2l-6.5-1.5 L111,211c1.5,0.3,4.2,0.6,6,0.4c1.5-0.2,3.4-0.8,4.6-1.2L120.4,197.8"/>
<path id="Trauma-Plate-2_Legacy-Shin_Left" class="toggle" style="fill: rgb(102, 16, 16);" d="M120.2,187.7l-6.4,3.3c-0.3,0.2-0.7,0.2-1.1,0.2l-8-1.4 l1.5,5.8l8.2,1.9l6.2-3.8L120.2,187.7"/>
<path id="Trauma-Plate-1_Legacy-Shin_Left" class="toggle" style="fill: rgb(102, 16, 16);" d="M107,176.1l-4.9,5.4l1.2,4.5l9.6,1.7l7.7-4l-0.5-5.9 l-5.9-2.8L107,176.1"/>
<g id="Ridge_Legacy-Shin_Left" class="toggle" style="display: none; fill: rgb(255, 255, 255);"/>
</g>
</g>
<g id="Right-Shin">
<g id="Legacy_Shin_Right" class="option" style="display: inherit;">
<path id="Plate-3_Legacy-Shin_Right" d="M63.2,197.1l-4.1,15.4c0,0-4.9,1-7.5,0.7c-2.6-0.3-6.2-1.7-6.2-1.7l1.5-16.5 l7,4.4L63.2,197.1" style="fill: rgb(0, 0, 0);"/>
<path id="Plate-2_Legacy-Shin_Right" d="M66.2,187.6l-2.4,9.3l-9.9,2.3l-7.7-4.8L47,185l8.6,4.4L66.2,187.6" style="fill: rgb(130, 129, 129);"/>
<path id="Plate-1_Legacy-Shin_Right" d="M62.7,174.5l5.9,6.5l-1.7,6.5l-11.2,2l-9.2-4.7l0.6-8l7.2-3.5L62.7,174.5" style="fill: rgb(140, 29, 29);"/>
<path id="Trauma-Plate-3_Legacy-Shin_Right" class="toggle" style="fill: rgb(102, 16, 16);" d="M48.4,197.8l4.7,2.9c0.4,0.2,0.8,0.3,1.3,0.2l6.5-1.5 L57.8,211c-1.5,0.3-4.2,0.6-6,0.4c-1.5-0.2-3.4-0.8-4.6-1.2L48.4,197.8"/>
<path id="Trauma-Plate-2_Legacy-Shin_Right" class="toggle" style="fill: rgb(102, 16, 16);" d="M48.6,187.7L55,191c0.3,0.2,0.7,0.2,1.1,0.2l8-1.4 l-1.5,5.8l-8.2,1.9l-6.2-3.8L48.6,187.7"/>
<path id="Trauma-Plate-1_Legacy-Shin_Right" class="toggle" style="fill: rgb(102, 16, 16);" d="M61.8,176.1l4.9,5.4l-1.2,4.5l-9.6,1.7l-7.7-4l0.5-5.9 l5.9-2.8L61.8,176.1"/>
<g id="Ridge_Legacy-Shin_Right" class="toggle" style="display: none; fill: rgb(255, 255, 255);"/>
</g>
</g>
</g>
<g id="Foot">
<g id="Left-Ankle">
<g id="Heavy_Ankle_Left" class="option" style="display: inherit;">
<path id="Plate_Heavy-Ankle_Left" d="M106.5,218.5l0.4,3.6l7.4,9.3l7.2-3.2l7.8-2l-5.9-10.5c-3-0.4-6.5-0.1-10.5,1.2 l-2.2,2L106.5,218.5" style="fill: rgb(102, 16, 16);"/>
<path id="Trim_Heavy-Ankle_Left" d="M112.9,216.7l0.8,1l-2.6,2.2l-3-0.1l0.1,1.5l6.4,7.9l6.4-3l7.7-1.8l0.8,1.6 l-8.1,2.1l-7.2,3.2l-7.4-9.3l-0.4-3.6l4.1,0.2L112.9,216.7" style="fill: rgb(140, 29, 29);"/>
</g>
</g>
<g id="Left-Toe">
<g id="None_Toe_Left" class="option" style="display: inherit;">
</g>
</g>
<g id="Right-Ankle">
<g id="Heavy_Ankle_Right" class="option" style="display: inherit;">
<path id="Plate_Heavy-Ankle_Right" d="M62.3,218.5l-0.4,3.6l-7.4,9.3l-7.2-3.2l-7.8-2l5.9-10.5 c3-0.4,6.5-0.1,10.5,1.2l2.2,2L62.3,218.5" style="fill: rgb(102, 16, 16);"/>
<path id="Trim_Heavy-Ankle_Right" d="M55.9,216.7l-0.8,1l2.6,2.2l3-0.1l-0.1,1.5l-6.4,7.9l-6.4-3l-7.7-1.8l-0.8,1.6 l8.1,2.1l7.2,3.2L62,222l0.4-3.6l-4.1,0.2L55.9,216.7" style="fill: rgb(140, 29, 29);"/>
</g>
</g>
<g id="Right-Toe">
<g id="Spikes_Toe_Right" class="option" style="fill: rgb(141, 70, 8); display: inherit;">
<path d="M37.4,239.3c-2.9-0.5-5.9-1.2-8.9-2.1c-0.1,0-0.3,0-0.4,0.1c-0.1,0.1-0.2,0.2-0.2,0.4v1 c0,0.2,0.1,0.4,0.3,0.4c2.3,1,5.3,1.7,8.7,2.1c0.1,0,0.3,0,0.4-0.1c0.1-0.1,0.2-0.2,0.2-0.3C37.4,240.2,37.4,239.3,37.4,239.3"/>
<path d="M32.6,241.3c0,0,2.5-0.3,3.7-0.4c0.2,0,0.4-0.1,0.5-0.3c0.1-0.1,0.2-0.3,0.1-0.5c-0.1-0.5-0.4-0.7-1.1-0.7 c-0.2,0-0.4,0.1-0.6,0.2C34.6,240,32.6,241.3,32.6,241.3"/>
<path d="M25.6,239.2c0,0,2.3-0.2,3.3-0.3c0.2,0,0.3-0.1,0.4-0.3c0.1-0.1,0.1-0.3,0.1-0.5c-0.1-0.3-0.4-0.5-0.9-0.5 c-0.2,0-0.3,0.1-0.5,0.1C27.5,238.1,25.6,239.2,25.6,239.2"/>
</g>
</g>
</g>
<g id="Knees">
<g id="Left-Knee">
<g id="Basic_Knee_Left" class="option" style="display: inherit;">
<g id="Missiles_Basic-Knee_Left" class="toggle" style="">
<path id="Base_Missiles_Basic-Knee_Left" d="M117.1,156.2v0.1c0.2,1.9,0.5,6.1,0.4,9.6l2.3-1.4 c0.4-0.2,0.6-0.6,0.6-1.1c0-1.3-0.1-4.2-0.1-5.7c0-0.6-0.4-1.1-1-1.2L117.1,156.2z" style="fill: rgb(102, 16, 16);"/>
<g id="Missile-2_Missiles_Basic-Knee_Left" style="fill: rgb(181, 187, 12);">
<path d="M118.7,161.8c-0.6,0.1-1,0.6-0.9,1.1c0.1,0.6,0.6,1,1.2,0.9c0.6-0.1,1-0.6,0.9-1.1 C119.8,162.1,119.2,161.7,118.7,161.8z"/>
<path d="M118.7,162.1c-0.4,0-0.7,0.4-0.6,0.8c0,0.4,0.4,0.7,0.8,0.6c0.4,0,0.7-0.4,0.6-0.8 C119.5,162.4,119.1,162.1,118.7,162.1z"/>
</g>
<g id="Missile-1_Missiles_Basic-Knee_Left" style="fill: rgb(181, 187, 12);">
<path d="M118.5,157.3c-0.6,0.1-1,0.6-0.9,1.1c0.1,0.6,0.6,1,1.2,0.9c0.6-0.1,1-0.6,0.9-1.1 C119.6,157.6,119.1,157.2,118.5,157.3z"/>
<path d="M118.6,157.6c-0.4,0-0.7,0.4-0.6,0.8c0,0.4,0.4,0.7,0.8,0.6c0.4,0,0.7-0.4,0.6-0.8 C119.3,157.9,119,157.6,118.6,157.6z"/>
</g>
</g>
<g id="Knee_Basic-Knee_Left" style="fill: rgb(102, 16, 16);">
<path d="M95.8,158.4l1.4-0.2c0,0,1.1,6.9,1.6,10c0.1,0.8-0.4,1.5-1.2,1.7L95.8,158.4z"/>
<path d="M97.2,157.8l0.8,5.1c1-0.6,3.7,0.5,4.5,3.6c1.6,5.7,2.9,7,7.9,6.5c3.8-0.4,6.6-2.2,6.9-4.9 c0.5-3.9,0-9.4-0.2-11.8c0-0.3-0.2-0.6-0.4-0.7c-0.2-0.2-0.5-0.3-0.8-0.2C111.7,155.9,97.2,157.8,97.2,157.8z"/>
<path d="M96.7,157.9l0.5-0.1l0.9,5.6l-0.5,0.1L96.7,157.9z"/>
</g>
</g>
</g>
<g id="Right-Knee">
<g id="Legacy_Knee_Right" class="option" style="display: inherit;">
<g id="Missiles_Legacy-Knee_Right" class="toggle" style="display:none"/>
<path id="Plate-2_Legacy-Knee_Right" d="M52.2,162.4l4-2.8l8.9,1.4l3.5,3.9l-2.9,9.6h-7.1l-6.7-2.1L52.2,162.4z" style="fill: rgb(102, 16, 16);"/>
<path id="Plate-1_Legacy-Knee_Right" d="M50.9,155.9l5.1-3.6l11.4,1.8l4.4,5.1l-3.7,12.3l-9.3-0.1l-8.3-2.6 L50.9,155.9z" style="fill: rgb(101, 18, 18);"/>
</g>
</g>
</g>
<g id="Thighs">
<g id="Left-Thigh">
<g id="Legacy_Thigh_Left" class="option" style="display: inherit;">
<path id="Plate-3_Legacy-Thigh_Left" d="M97.1,140l1.8,10.6l10.3,1.6l8.3-3.6l0.4-10.8l-9.4,4.4L97.1,140" style="fill: rgb(102, 16, 16);"/>
<path id="Plate-2_Legacy-Thigh_Left" d="M94.9,129.8l1.7,10.1l11.9,2.3l10-4.7l0.5-12.3l-11.3,7.2L94.9,129.8" style="fill: rgb(130, 129, 129);"/>
<path id="Plate-1_Legacy-Thigh_Left" d="M120,115.2l-8.8-7.7l-11.7,1.9l-6.7,11.1l1.7,9.2l13.2,2.7l11.8-7.5 L120,115.2" style="fill: rgb(0, 0, 0);"/>
<path id="Trauma-Plate-3_Legacy-Thigh_Left" class="toggle" style="display: none; fill: rgb(255, 255, 255);" d="M115.9,141.1l-6.7,3.2c-0.3,0.1-0.7,0.2-1,0.1l-8.7-1.7 l1,6l8.5,1.3l6.7-2.9L115.9,141.1"/>
<path id="Trauma-Plate-2_Legacy-Thigh_Left" class="toggle" style="fill: rgb(102, 16, 16);" d="M116.9,129l-8.3,5.3c-0.4,0.2-0.8,0.3-1.2,0.2l-10.1-2 l1,5.5l10.1,1.9l8.4-3.9L116.9,129"/>
<path id="Trauma-Plate-1_Legacy-Thigh_Left" class="toggle" style="fill: rgb(102, 16, 16);" d="M100.6,111.5l-5.8,9.6l1.3,6.8l11.3,2.3l10.3-6.6l0.4-7.3 l-7.3-6.4L100.6,111.5"/>
<g id="Ridge_Legacy-Thigh_Left" class="toggle" style="display: none; fill: rgb(255, 255, 255);"/>
</g>
</g>
<g id="Right-Thigh">
<g id="Legacy_Thigh_Right" class="option" style="display: inherit;">
<path id="Plate-3_Legacy-Thigh_Right" d="M71.6,140l-1.8,10.6l-10.2,1.6l-8.3-3.6l-0.4-10.8l9.4,4.4L71.6,140" style="fill: rgb(0, 0, 0);"/>
<path id="Plate-2_Legacy-Thigh_Right" d="M73.9,129.8l-1.8,10.1l-11.8,2.3l-10-4.7l-0.5-12.3l11.3,7.2L73.9,129.8" style="fill: rgb(0, 0, 0);"/>
<path id="Plate-1_Legacy-Thigh_Right" d="M48.8,115.2l8.8-7.7l11.7,1.9l6.7,11.1l-1.7,9.2l-13.2,2.7l-11.8-7.5 L48.8,115.2" style="fill: rgb(102, 16, 16);"/>
<path id="Trauma-Plate-3_Legacy-Thigh_Right" class="toggle" style="fill: rgb(102, 16, 16);" d="M52.9,141.1l6.7,3.2c0.3,0.1,0.7,0.2,1,0.1l8.7-1.7l-1,6 l-8.5,1.3l-6.7-2.9L52.9,141.1"/>
<path id="Trauma-Plate-2_Legacy-Thigh_Right" class="toggle" style="fill: rgb(102, 16, 16);" d="M51.9,129l8.3,5.3c0.4,0.2,0.8,0.3,1.2,0.2l10.1-2 l-0.9,5.5l-10.1,1.9l-8.4-3.9L51.9,129"/>
<path id="Trauma-Plate-1_Legacy-Thigh_Right" class="toggle" style="display: none; fill: rgb(255, 255, 255);" d="M68.2,111.5l5.8,9.6l-1.3,6.8l-11.3,2.3l-10.3-6.6 l-0.4-7.3l7.3-6.4L68.2,111.5"/>
<g id="Ridge_Legacy-Thigh_Right" class="toggle" style="display: none; fill: rgb(255, 255, 255);"/>
</g>
</g>
</g>
<g id="Groin">
<g id="Basic_Groin" class="option" style="display: inherit;">
<path id="Groin-Plate_Groin" d="M78.1,121.8L67.7,98.9H101l-10.4,22.9l-6.2,5.5L78.1,121.8z" style="fill: rgb(140, 29, 29);"/>
<path id="Trauma-Plating_Groin" class="toggle" style="fill: rgb(102, 16, 16);" d="M79.2,119.9L70.6,101H98l-8.6,18.9l-5.1,4.5L79.2,119.9z"/>
</g>
</g>
<g id="Waist">
<g id="Accessories_Waist">
<g id="Kama" class="toggle" style="display:none"/>
<g id="Loin-Cloth" class="toggle" style="display:none"/>
<g id="Left-Holster" class="toggle" style="display:none"/>
<g id="Right-Holster" class="toggle" style="">
<g id="Hanging-Holster_Right" class="option" style="display: inherit;">
<g id="Weapon_Hanging-Holster-Right">
<g id="Main_Weapon_Hanging-Holster-Right" style="fill: rgb(163, 163, 163);">
<path d="M52.4,122.2l-0.2-3.6h-0.6l-0.1-2.3h0.6l-0.1-1.2c0-0.4-0.5-0.7-1.2-0.6c-1.4,0.1-3.9,0.2-5.3,0.2 c-0.6,0-1.1,0.4-1.1,0.7l0.1,1.2h0.6l0.1,2.3h-0.6l0.2,3.6l1.5-0.1l0.5,10l4.7-0.2l-0.5-10H52.4z"/>
<path d="M45.4,122h0.8l0.6,12l4.7-0.2l-0.6-12h0.8l-0.1-2.7l-6.4,0.3L45.4,122z"/>
<path d="M46.4,115.5l3.8-0.2l0.2,3.7l-3.8,0.2L46.4,115.5z"/>
<path d="M49.9,122.9h0.6l0.5,9.3h-0.6L49.9,122.9z"/>
<path d="M48.2,120.8h0.6l0.4,9.4h-0.6L48.2,120.8z"/>
<path d="M46.7,123h0.6l0.4,9.4h-0.6L46.7,123z"/>
</g>
<g id="Accent_Weapon_Hanging-Holster-Right" style="fill: rgb(102, 16, 16);">
<path d="M49.8,119.4v0.4l-2.7,0.1v-0.4L49.8,119.4z"/>
<path d="M49.8,119.8v0.4l-2.7,0.1v-0.4L49.8,119.8z"/>
<path d="M49.8,119.1v0.4l-2.7,0.1v-0.4L49.8,119.1z"/>
<path d="M49.6,114.4v0.4l-2.7,0.1v-0.4L49.6,114.4z"/>
<path d="M49.6,115.4h0.6l0.2,3.7h-0.6L49.6,115.4z"/>
<path d="M46.4,115.5H47l0.2,3.7h-0.6L46.4,115.5z"/>
<path d="M47.4,123h0.9l0.4,9.4h-0.9L47.4,123z"/>
<path d="M49,122.9h0.9l0.4,9.4h-0.9L49,122.9z"/>
</g>
</g>
<path id="Holster_Hanging-Holster-Right" d="M52.4,136.1l0.8-15.2l-7,11.4l1.6,20.6c1.6,1.7,3.2,1.7,4.8-0.2 L52.4,136.1z" style="fill: rgb(0, 0, 0);"/>
<g id="Straps_Hanging-Holster-Right" style="fill: rgb(141, 70, 8);">
<path d="M79.2,96.5c-7.7,11-15.4,20.3-26,24.5l-0.1,2.6c13.3-5.6,20.4-15.1,28.2-27.1H79.2z"/>
<path d="M52.4,139.2c7.2,5.5,14.9,8.5,24.2,9l-0.7,2.1c-8-0.7-15.5-3.7-23.5-8.9V139.2z"/>
<path d="M52.4,141.3v-2.2c-1.9,0.8-4,0.9-5.7,0.3l0.2,2.2C48.7,142.1,50.8,142.1,52.4,141.3z"/>
</g>
<g id="Buckle_Hanging-Holster-Right" style="fill: rgb(121, 124, 39);">
<path d="M69.2,148l1,0.1v0.3l-1-0.2V148"/>
<path d="M71.9,107.6l0.7-0.9l0.3,0.2l-0.7,0.9L71.9,107.6"/>
<path d="M72.2,107.8l1.1,0.9l2.7-3.3l-2.6-2.1l-2.7,3.3l1.2,1l0.6-0.8l-0.6-0.5l1.5-1.8l1.4,1.2l-1.5,1.8l-0.6-0.5 L72.2,107.8"/>
<path d="M69.2,148l0.8,0.1l0.1-0.8l1.9,0.4l-0.3,1.8l-1.9-0.4l0.1-0.7l-0.8-0.1l-0.2,1.4l3.5,0.7l0.5-3.3l-3.5-0.7 L69.2,148"/>
</g>
</g>
</g>
</g>
<g id="Under-Belt">
<g id="Girth-Belt" class="option" style="fill: rgb(163, 163, 163); display: inherit;">
<path d="M84.4,84.5c-9.3,0-27.8-2.2-27.8-2.2l0.6-1.9c0,0,18.1,1.5,27.2,2.2c9.1-0.8,27.2-2.2,27.2-2.2l0.6,1.9 C112.2,82.2,93.6,84.5,84.4,84.5z"/>
<path d="M84.4,86.4c-9.5,0-28.4-2.2-28.4-2.2l0.6-1.9c0,0,23.2,1.9,27.8,2.2c4.6-0.4,27.8-2.2,27.8-2.2l0.6,1.9 C112.7,84.1,93.8,86.4,84.4,86.4z"/>
<path d="M84.4,88.3c-9.6,0-28.8-2.2-28.8-2.2l0.4-1.9c0,0,23.7,1.9,28.4,2.2c4.7-0.4,28.4-2.2,28.4-2.2l0.4,1.9 C113.2,86.1,94,88.3,84.4,88.3z"/>
<path d="M84.4,90.2c-9.7,0-29.2-2.2-29.2-2.2l0.4-1.9c0,0,24,1.9,28.8,2.2c4.8-0.4,28.8-2.2,28.8-2.2l0.4,1.9 C113.5,88,94.1,90.2,84.4,90.2z"/>
<path d="M84.4,92.1c-9.8,0-29.5-2.2-29.5-2.2l0.3-1.9c0,0,24.3,1.9,29.2,2.2c4.9-0.4,29.2-2.2,29.2-2.2l0.3,1.9 C113.9,89.9,94.2,92.1,84.4,92.1z"/>
<path d="M84.4,94c-9.9,0-29.8-2.2-29.8-2.2l0.3-1.9c0,0,24.6,1.9,29.5,2.2c4.9-0.4,29.5-2.2,29.5-2.2l0.3,1.9 C114.2,91.8,94.3,94,84.4,94z"/>
<path d="M84.4,95.9c-10,0-30.1-2.2-30.1-2.2l0.3-1.9c0,0,24.8,1.9,29.8,2.2c5-0.4,29.8-2.2,29.8-2.2l0.3,1.9 C114.5,93.7,94.4,95.9,84.4,95.9z"/>
<path d="M84.4,97.8c-10.1,0-30.4-2.2-30.4-2.2l0.3-1.9c0,0,25.1,1.9,30.1,2.2c5-0.4,30.1-2.2,30.1-2.2l0.3,1.9 C114.8,95.6,94.5,97.8,84.4,97.8z"/>
<path d="M84.4,99.7c-10.3,0-30.8-2.2-30.8-2.2l0.3-1.9c0,0,25.4,1.9,30.4,2.2c5.1-0.4,30.4-2.2,30.4-2.2l0.3,1.9 C115.1,97.5,94.6,99.7,84.4,99.7z"/>
<path d="M84.4,101.6c-10.4,0-31.2-2.2-31.2-2.2l0.4-1.9c0,0,25.6,1.9,30.8,2.2c5.1-0.4,30.8-2.2,30.8-2.2l0.4,1.9 C115.5,99.4,94.8,101.6,84.4,101.6z"/>
</g>
</g>
<g id="Belt">
<g id="Pouch-Belt-2" class="option" style="display: inherit;">
<path id="Main_Pouch-Belt-2" d="M114.5,92.5c-6.8,0.6-22.3,2.8-30.1,2.8c-7.9,0-23.4-2.2-30.1-2.8l1-7.9 c5.5,0.5,21.4,2.7,29.1,2.7c7.4,0,23-2.2,28.9-2.8L114.5,92.5z" style="fill: rgb(0, 0, 0);"/>
<rect id="Buckle_Pouch-Belt-2" x="78.8" y="86.6" width="11.2" height="9.2" style="fill: rgb(130, 129, 129);"/>
<g id="Pouches_Pouch-Belt-2" style="fill: rgb(26, 1, 1);">
<g>
<path d="M51.9,83.9l0.5-0.9l2.8,0.1l0.3,1.1L51.9,83.9z"/>
<path d="M55.6,84.3c0-0.1,0-0.1-0.1-0.2c0-0.1-0.1-0.1-0.2-0.1c-0.8,0-3.5-0.1-3.5-0.1l-0.5,11.2 c0.1,0.3,1.5,0.5,2.7,0.5c0.5,0,0.9-0.4,0.9-0.9C55,91.2,55.2,87.7,55.6,84.3z"/>
</g>
<g>
<path d="M116.9,83.9l-0.5-0.9l-2.8,0.1l-0.3,1.1L116.9,83.9z"/>
<path d="M113.2,84.3c0-0.1,0-0.1,0.1-0.2c0-0.1,0.1-0.1,0.2-0.1c0.8,0,3.5-0.1,3.5-0.1l0.5,11.2 c-0.1,0.3-1.5,0.5-2.7,0.5c-0.5,0-0.9-0.4-0.9-0.9C113.7,91.2,113.6,87.7,113.2,84.3z"/>
</g>
</g>
</g>
</g>
</g>
<g id="Extras_Front">
<g id="Front">
<g id="Shoulder-Cape-Left_Front" class="option" style="fill: rgb(44, 4, 4); display: inherit;">
<path d="M109.9,53.6c-0.9-5.7-11.1-37,0.4-41.6c2.2-0.9,6.7,0.5,7.7,0.6c2.3,0.1,12.3,10,13.5,11.9 c1.5,2.4,2.3,4.6,3.9,7.3c4.6,7.6,7.5,13,9.9,20.6c2.2,6.9,4.9,14.3,7.3,20.9c2.8,7.5,4.1,12.7,6.5,20.3 c1.3,4.1,3.2,12.7,5.1,20.7c1.7,7.2,5,13,0.9,15.6c-4.1,2.7-9.9,9.3-14,12.2c-4.2,3.1-20.4,1.2-24.3,3.7 c-1.2,0.8-9.2,0.9-9.2,0.7c0.5-2.4,1.4-8.7,0.5-15.6c-1.1-8.7-1.3-14.6-2.3-23.3c-0.7-5.8-0.1-8.8-1.3-14.5 c-1.3-6.3-0.7-13.6-2.4-19.8C110.4,67,111,60,109.9,53.6z"/>
<path d="M143.5,95.5c-0.9-3.5-2.2-8.6-0.7-12.2c1.2-2.8,6.3,3.2,6.7,4.4c1,3.2-0.2,6.8-0.6,10 c-0.4,3.6-0.3,7.2,0.4,10.8c0.9,4.4,1.9,8.8,3.6,12.9c2,4.7,5.2,9,5.4,14.3"/>
<path d="M137.3,136.5c-0.8,0.8-1.7,1.1-2.9,0.9c-5.5-0.6-6.2-9.9-6-14.1c0.5-6.7,1.9-13.3,1.4-20.1 c-0.7-9.2-4.2-19.4-5.6-28.7c-1.1-7.1-0.7-14.5-2.3-21.4c-1-4.5-9.2-23.3-11.8-26.8"/>
<path d="M127.4,40.9c3,7.8,5.9,14.9,6.8,23.3c0.5,4.8,0.8,9.6,0.7,14.4c-0.1,3.5-0.6,7.1-0.1,10.6 c1.2,7.5,5.6,14.3,7,21.8"/>
<path d="M156.8,103.4c0.2,9.7,4.4,18.3,7,27.4"/>
<path d="M129.4,21.9c1.9,3.2,1.9,6.8,2.6,10.2c0.7,3.4,0.6,7.1,1.9,10.4c1.3,3.2,3.6,5.9,5.4,8.9 c2.8,4.8,3.8,10.1,4.3,15.6"/>
</g>
</g>
</g>
</svg></svg>