<?xml version='1.0' encoding='UTF-8'?>
<svg version="1.1" id="Male-Body" xmlns="http://www.w3.org/2000/svg" xmlns:serif="http://www.serif.com/" viewBox="0 -55 170 300" style="stroke-width: 0.2px; fill-rule: evenodd; stroke-linejoin: round;" width="170" height="300">
<style>
mask {
mask-type: alpha;
}
.decal {
stroke: none;
}
</style>
<defs id="Masks" stroke="none">
<mask id="HelmetsMask"> <use href="#Helmets"/> </mask>
<mask id="CollarMask"> <use href="#Collar"/> </mask>
<mask id="ShouldersMask"> <use href="#Shoulders"/> </mask>
<mask id="ChestMask"> <use href="#Chest"/> </mask>
<mask id="BicepsMask"> <use href="#Biceps"/> </mask>
<mask id="GauntletsMask"> <use href="#Gauntlets"/> </mask>
<mask id="WaistMask"> <use href="#Waist"/> </mask>
<mask id="GroinMask"> <use href="#Groin"/> </mask>
<mask id="ThighsMask"> <use href="#Thighs"/> </mask>
<mask id="KneesMask"> <use href="#Knees"/> </mask>
<mask id="ShinsMask"> <use href="#Shins"/> </mask>
<mask id="FootMask"> <use href="#Foot"/> </mask>
</defs>
<defs id="Decals"/><metadata><rdf:rdf xmlns:rdf="http://www.w3.org/1999/02/22-rdf-syntax-ns#" xmlns:rdfs="http://www.w3.org/2000/01/rdf-schema#" xmlns:dc="http://purl.org/dc/elements/1.1/"><rdf:description><dc:creator>MandoCreator</dc:creator><dc:publisher>https://www.mandocreator.com</dc:publisher><dc:description>Your Beskar'gam - created by MandoCreator</dc:description><dc:format>image/svg+xml</dc:format><dc:type>Image</dc:type><dc:title>MandoCreator - Ner Berskar'gam</dc:title><dc:date>2022-01-02T16:21:05.236Z</dc:date></rdf:description></rdf:rdf></metadata><g id="Main-Body" fill="white" stroke="black">
<g id="Extras_Back">
<g id="Back"><path id="Torn-Full-Cape_Back" class="option" d="M68.3,16.3c-11.77,4.4-24.85,25.6-26.46,41.8 c-1.01,10.2-6.03,20.5-5.53,30.7c0.5,10.3-4.73,21-5.13,31.2c-0.3,9.3-3.12,13.5-4.73,22.7c-2.41,13.7-5.03,22.7-7.14,36.5 c-1.71,10.9-6.84,19.9-9.25,23.3c-0.1,0.1,2.52-1.2,5.63-1.2c0.91,0,5.53-6.7,5.53-6.7s5.73,4.7,6.94,7.4 c1.51-1,2.72-15.2,4.53-15.7c0.91-0.3,2.62,17.8,2.62,17.8s2.72-5.4,3.82-5.4c2.31,0,6.44,2,8.75,2.3c2.41,0.3,5.03-3.8,7.74-3.1 c4.12,1,8.25,0.9,12.37,1.5c2.92,0.4,5.83,6,8.75,6c3.62,0,3.12-8.4,6.84-9.2c3.12-0.7,7.44,6.8,7.44,6.8s1-24.9,4.12-26 c4.12-1.3,19.51,18.8,23.74,18.4c1.31-0.1,2.92-12.7,4.12-12.7c2.72,0.1,5.03,13,7.74,13.5c3.32,0.6,5.03-5.6,8.25-4.8 c0.9,0.2,3.52,7.6,4.53,7.8c2.01,0.5,4.83,1.7,7.04,1.5c0.1,0-0.7-4.9-0.8-5.4c-0.5-2.3-1.21-4.6-2.21-6.8 c-1.11-2.6-2.51-5.2-4.02-7.6c-7.14-11.2-4.63-23.4-5.94-36.6c-1.21-12.8,0.1-25.6-2.11-38.4c-1.91-11.3-8.65-21.8-10.36-33.2 C123.12,59.3,118.6,45,114.47,32C109.44,16.1,80.07,11.9,68.3,16.3z M71.62,186c-0.9,2.4-1.31,4.9-1.01,7.5 c0.1,1.2,0.5,2.4,1.01,3.4c0.1,0.1,0.1,0.4,0.2,0.3C76.25,193.3,71.62,186,71.62,186z M37.12,161.8c-0.4,7.7-1.11,15.5-1.11,23.2 c0,1.4,0,2.9,0.2,4.3c0,0.2,0.2,2.3,0.4,2.3c2.62-0.5,1.41-7.7,2.01-9.9C40.64,174.1,37.12,161.8,37.12,161.8z M129.36,188.6 c-0.2,2.8,0.6,2.5,1.31,1.1c0.7-1.4,1.31-3.9,0.6-5.5L129.36,188.6z M117.89,164.2c-0.6,4.6,0.4,8.6,0.71,13.2 c0.1,1.5,0.1,3,0.1,4.5v1.5c0,0.3-0.2,1,0,0.8c3.52-3.6,3.12-10.7,2.01-15.2L117.89,164.2z M75.85,177.9c0,1.2,0,2.4,0.1,3.6 c0.3,2.4,1.71-1.4,1.71-2.3c0-1.3-0.81-2.8-1.21-4.1L75.85,177.9z" fill="rgb(171, 162, 108)" style="display: inherit;"/></g>
</g>
<g id="Extras-BackDecals" mask="url(#BackMask)">
</g>
<g id="Suit">
<g id="Neck-Seal"><g id="Standard-Neck-Seal" class="option" fill="rgb(31, 31, 31)" style="display: inherit;">
<path d="M98.75,7.5c0-0.9-0.93-1.62-2.07-1.62c0,0-7.8,0.85-11.7,0.85s-11.7-0.85-11.7-0.85 c-1.14,0-2.07,0.73-2.07,1.62s0.93,1.62,2.07,1.62c0,0,7.8,0.85,11.7,0.85s11.7-0.85,11.7-0.85C97.83,9.13,98.75,8.4,98.75,7.5z"/>
<path d="M99.45,9.4c0-0.94-0.97-1.71-2.17-1.71c0,0-8.2,0.9-12.29,0.9S72.69,7.7,72.69,7.7 c-1.2,0-2.17,0.76-2.17,1.71s0.97,1.71,2.17,1.71c0,0,8.2,0.9,12.29,0.9s12.29-0.9,12.29-0.9C98.48,11.11,99.45,10.34,99.45,9.4z "/>
<path d="M100.24,11.76c0-0.99-1.03-1.8-2.29-1.8c0,0-8.64,0.95-12.96,0.95S72.02,9.96,72.02,9.96 c-1.26,0-2.29,0.81-2.29,1.8s1.03,1.8,2.29,1.8c0,0,8.64,0.95,12.97,0.95s12.96-0.95,12.96-0.95 C99.21,13.56,100.24,12.75,100.24,11.76z"/>
<path d="M101,13.92c0-1.04-1.08-1.89-2.41-1.89c0,0-9.08,0.99-13.61,0.99s-13.61-0.99-13.61-0.99 c-1.33,0-2.41,0.85-2.41,1.89c0,1.04,1.08,1.89,2.41,1.89c0,0,9.08,0.99,13.61,0.99s13.61-0.99,13.61-0.99 C99.93,15.81,101,14.96,101,13.92z"/>
<path d="M101.76,16.04c0-0.79-1.13-1.43-2.52-1.43c0,0-9.51,0.75-14.26,0.75s-14.26-0.75-14.26-0.75 c-1.39,0-2.52,0.64-2.52,1.43c0,0.79,1.13,1.43,2.52,1.43c0,0,9.51,0.75,14.26,0.75s14.26-0.75,14.26-0.75 C100.63,17.47,101.76,16.83,101.76,16.04z"/>
<path d="M101.76,18.42c0-0.79-1.13-1.43-2.52-1.43c0,0-9.51,0.75-14.26,0.75s-14.26-0.75-14.26-0.75 c-1.39,0-2.52,0.64-2.52,1.43c0,0.79,1.13,1.43,2.52,1.43c0,0,9.51,1.44,14.26,1.44s14.26-1.44,14.26-1.44 C100.63,19.84,101.76,19.21,101.76,18.42z"/>
</g>
</g>
<g id="Flight-Suit" fill="rgb(31, 31, 31)">
<path d="M73.36,158.45l-1.49,8.72l-11.03,53.11c0,0-4.93,2.96-7.47,3.46c-2.53,0.5-7.73-0.44-7.73-0.44l3.85-43 l2.9-18.36l0.66-7.82c0,0-2.53-22.78-1.7-34.14c0.82-11.36,6.66-34.01,6.66-34.01l26.98,0.58l26.97-0.58 c0,0,5.83,22.66,6.66,34.01c0.83,11.36-1.7,34.14-1.7,34.14l0.66,7.82l2.9,18.36l3.85,43c0,0-5.32,1.19-7.85,0.69 c-2.53-0.5-7.34-3.71-7.34-3.71L98.1,167.16l-1.49-8.72l-11.62-30.33L73.36,158.45z"/>
<g>
<path d="M129.41,43.33l11.98,41.65l1.04,21.47l-9.55,1.83l-6.05-20.21l-13.65-33.95l0.69-15.55l2.31-3.72 L129.41,43.33z"/>
<path d="M40.59,43.3l13.19-8.45l2.31,3.72l0.52,16.04L43.17,88.07l-6.05,20.21l-9.55-1.83l1.03-21.47L40.59,43.3z"/>
</g>
</g>
<g id="Sleeves" class="toggle" fill="rgb(98, 83, 71)">
<g>
<path d="M112.2,56.12l2.68,5.9c0,0,4.24-3.2,7.06-4.8s4.38-2.62,6.92-3.6c2.54-0.98,5.08-1.47,5.08-1.47l-6.07-12.25 l-5.79-9.67l-11.58,5.14L112.2,56.12z"/>
<path d="M113.61,59.24c-0.2-0.24,5.08-4.5,8.61-6.34c3.53-1.84,10.25-3.69,10.25-3.69"/>
</g>
<g>
<path d="M57.8,56.12l-2.68,5.9c0,0-4.24-3.2-7.06-4.8c-2.82-1.59-4.38-2.62-6.92-3.6c-2.54-0.98-5.08-1.47-5.08-1.47 l6.07-12.25l5.79-9.67l11.58,5.14L57.8,56.12z"/>
<path d="M56.39,59.24c0.2-0.24-5.08-4.5-8.61-6.34c-3.53-1.84-10.25-3.69-10.25-3.69"/>
</g>
</g>
</g>
<g id="Boots"><g id="Gunslinger_Boots" class="option" style="display: inherit;">
<g id="Main_Gunslinger-Boot" fill="rgb(48, 47, 47)">
<path d="M107.7,226.61c0.04,0.2,0.73,3.41,4.27,4.29c1.18,0.3,3.21-0.33,4.48-0.98c1.74-0.89,3.57-1.58,5.44-2.12 l0.06,0.08c0.03,0.04,0.06,0.08,0.09,0.12c0.58,0.81,1.21,1.57,1.89,2.26l0.05,0.05l0.03,0.03c0.07,0.07,0.14,0.14,0.21,0.2 c0.4,0.38,0.81,0.74,1.23,1.07l0.12,0.09l0.1,0.07c0.03,0.02,0.06,0.04,0.09,0.06c0.07,0.05,0.13,0.1,0.2,0.14 c0.88,0.62,2.06,1.56,3.23,1.39c1.11-0.16,2.35-0.6,3.28-1.04c0.78-0.37,1.59-0.87,2.13-1.4c0.16-0.12,0.29-0.26,0.39-0.44 c2.57,1,5.36,1.38,6.73,4.22c0.3,0.62,0.55,1.35,0.49,2.04c-0.08,0.89-1.06,1-1.82,1.2c-1.9,0.51-3.53,0.89-5.72,1.34 c-2.5,0.52-4.76,0.83-7.29,0.72c-1.89-0.08-3.49-0.18-5.14-1.19c-0.66-0.41-1.34-0.82-1.92-1.35c-1.28-1.19-2.11-2.43-3.77-3.15 c-1.2-0.52-2.44-0.96-3.71-1.27c-1.8-0.45-3.74-0.76-4.69-2.54C107.42,229.16,107.51,227.91,107.7,226.61L107.7,226.61"/>
<path d="M62.28,226.61c-0.04,0.2-0.73,3.41-4.27,4.29c-1.18,0.3-3.2-0.33-4.48-0.98c-1.74-0.89-3.57-1.58-5.44-2.12 l-0.05,0.08c-0.03,0.04-0.06,0.08-0.09,0.12c-0.58,0.81-1.21,1.57-1.89,2.26l-0.05,0.05l-0.03,0.03 c-0.07,0.07-0.14,0.14-0.21,0.2c-0.4,0.38-0.81,0.74-1.23,1.07l-0.12,0.09l-0.1,0.07c-0.03,0.02-0.06,0.04-0.09,0.06 c-0.07,0.05-0.13,0.1-0.2,0.14c-0.88,0.62-2.06,1.56-3.23,1.39c-1.1-0.16-2.35-0.6-3.28-1.04c-0.78-0.37-1.59-0.87-2.13-1.4 c-0.16-0.12-0.29-0.26-0.39-0.44c-2.57,1-5.36,1.38-6.73,4.22c-0.3,0.62-0.55,1.35-0.48,2.04c0.08,0.89,1.06,1,1.82,1.2 c1.9,0.51,3.53,0.89,5.72,1.34c2.5,0.52,4.76,0.83,7.29,0.72c1.89-0.08,3.49-0.18,5.14-1.19c0.66-0.41,1.35-0.82,1.92-1.35 c1.28-1.19,2.11-2.43,3.77-3.15c1.2-0.52,2.44-0.96,3.71-1.27c1.8-0.45,3.74-0.76,4.69-2.54 C62.56,229.16,62.48,227.91,62.28,226.61L62.28,226.61"/>
</g>
<g id="Bottom_Gunslinger-Boot" fill="rgb(100, 86, 58)">
<path d="M107.64,229.04c0.08,0.49,0.24,0.98,0.51,1.49c0.95,1.78,2.89,2.09,4.69,2.54c1.27,0.32,2.51,0.75,3.71,1.27 c1.66,0.72,2.48,1.96,3.77,3.15c0.57,0.53,1.25,0.94,1.92,1.35c1.65,1.01,3.25,1.11,5.14,1.19c2.53,0.1,4.78-0.2,7.29-0.72 c2.19-0.46,3.82-0.84,5.72-1.34c0.61-0.16,1.36-0.27,1.67-0.76l0,0l0.36,0.8l0.21,1.64c0,0-2.03,1.09-4.2,1.57 c-2.16,0.48-6.53,1.15-6.53,1.15l-0.3-0.71l-0.98,0.21l0.05,0.7l-2.38,0.13l-0.51-0.69l-0.79,0.02l0.12,0.61 c0,0-1.47-0.02-2.29-0.51c-0.15-0.23-0.46-0.61-0.46-0.61l-0.56-0.31l0.07,0.58l-2.04-0.73l-0.1-0.79l-0.59-0.34l-0.03,0.57 l-1.46-1.12l-0.16-0.69l-3.64-2.55l-0.57,1.33l-2.55-0.55l-0.08-0.55l-0.65-0.27l-0.45,0.42l-1.71-0.7l-0.04-0.51l-0.56-0.19 l-0.06,0.37l-1.62-1.12l-0.31-2.23l-0.07-2.42L107.64,229.04L107.64,229.04"/>
<path d="M62.35,229.04c-0.08,0.49-0.24,0.98-0.51,1.49c-0.95,1.78-2.89,2.09-4.69,2.54 c-1.27,0.32-2.51,0.75-3.71,1.27c-1.66,0.72-2.48,1.96-3.77,3.15c-0.57,0.53-1.25,0.94-1.92,1.35c-1.65,1.01-3.25,1.11-5.14,1.19 c-2.53,0.1-4.78-0.2-7.29-0.72c-2.19-0.46-3.83-0.84-5.72-1.34c-0.61-0.16-1.36-0.27-1.67-0.76l0,0l-0.36,0.8l-0.21,1.64 c0,0,2.03,1.09,4.2,1.57c2.16,0.48,6.53,1.15,6.53,1.15l0.3-0.71l0.98,0.21l-0.05,0.7l2.38,0.13l0.51-0.69l0.8,0.02l-0.12,0.61 c0,0,1.47-0.02,2.29-0.51c0.15-0.23,0.46-0.61,0.46-0.61l0.56-0.31l-0.07,0.58l2.04-0.73l0.1-0.79l0.59-0.34l0.02,0.57l1.46-1.12 l0.16-0.69l3.64-2.55l0.57,1.33l2.55-0.55l0.08-0.55l0.65-0.27l0.45,0.42l1.71-0.7l0.04-0.51l0.56-0.19l0.07,0.37l1.62-1.12 l0.31-2.23l0.07-2.42L62.35,229.04L62.35,229.04"/>
</g>
<g id="Top_Gunslinger-Boot" fill="rgb(34, 34, 34)">
<path d="M121.87,227.77c-2.17-3.11-3.64-6.92-4.16-10.29l0,0l0.61-0.05l0.02,0l0.07-0.01l0.2-0.02l0.31-0.03 l0.13-0.02c0.35-0.04,0.7-0.09,1.04-0.14l0.54-0.1l0.11-0.03l0.04-0.01l0.08-0.02l0.37-0.09l0.33-0.08l0.06-0.01 c1.15-0.29,2.31-0.64,2.31-0.64c0.32,1.48,0.47,3.17,1.09,4.56c0.98,2.18,2.78,3.85,4.46,5.51c1.15,1.14,2.28,2.44,3.66,3.31 c0.58,0.37,1.21,0.66,1.84,0.9c-0.49,0.67-1.54,1.37-2.53,1.84c-0.93,0.44-2.17,0.88-3.28,1.04c-1.17,0.17-2.35-0.77-3.23-1.39 c-1.53-1.07-2.89-2.53-4.06-4.19L121.87,227.77"/>
<path d="M48.12,227.77c2.17-3.11,3.64-6.92,4.16-10.29l0,0l-0.61-0.05l-0.02,0l-0.08-0.01l-0.2-0.02l-0.31-0.03 l-0.13-0.02c-0.35-0.04-0.7-0.09-1.04-0.14l-0.54-0.1l-0.11-0.03l-0.04-0.01l-0.08-0.02l-0.37-0.09l-0.33-0.08l-0.06-0.01 c-1.15-0.29-2.31-0.64-2.31-0.64c-0.32,1.48-0.47,3.17-1.09,4.56c-0.98,2.18-2.78,3.85-4.46,5.51c-1.15,1.14-2.28,2.44-3.66,3.31 c-0.58,0.37-1.21,0.66-1.84,0.9c0.49,0.67,1.53,1.37,2.53,1.84c0.93,0.44,2.17,0.88,3.28,1.04c1.17,0.17,2.35-0.77,3.23-1.39 c1.53-1.07,2.89-2.53,4.06-4.19L48.12,227.77"/>
</g>
<g id="Side_Gunslinger-Boot" fill="rgb(34, 34, 34)">
<path d="M121.89,227.8c-1.87,0.54-3.7,1.24-5.44,2.12c-1.27,0.65-3.3,1.27-4.48,0.98c-3.66-0.92-4.27-4.3-4.27-4.3 c0.11-0.74,0.25-1.5,0.3-2.3c0.1-1.54-0.11-8.21,0.02-8.14c2.94,1.56,8.18,1.45,9.67,1.33l0,0 C118.23,220.86,119.71,224.69,121.89,227.8"/>
<path d="M48.09,227.8c1.87,0.54,3.7,1.24,5.44,2.12c1.27,0.65,3.3,1.27,4.48,0.98c3.66-0.92,4.27-4.3,4.27-4.3 c-0.11-0.74-0.25-1.5-0.3-2.3c-0.1-1.54,0.11-8.21-0.02-8.14c-2.94,1.56-8.18,1.45-9.67,1.33l0,0 C51.76,220.86,50.28,224.69,48.09,227.8"/>
</g>
</g></g>
<g id="Gloves">
<g id="Left-Glove">
<g id="Fingerless_Left_Glove" class="option" style="display: inherit;">
<g id="Fingers_Fingerless_Left_Glove" fill="rgb(64, 37, 14)">
<path d="M138.6,124.11c-0.54-0.03-1.05-0.01-1.58,0.1c-0.36,0.08-0.72,0.16-1.04,0.35 c-0.99,0.57-0.72,1.81,0.16,2.28c1.03,0.55,2.66,0.01,3.13-1.05C139.46,125.35,138.86,124.53,138.6,124.11"/>
<path d="M136.79,125.19c-0.54-0.03-1.05-0.02-1.59,0.1c-0.36,0.08-0.72,0.16-1.04,0.35 c-0.99,0.57-0.72,1.81,0.16,2.28c1.03,0.55,2.66,0.01,3.13-1.05C137.65,126.43,137.05,125.61,136.79,125.19"/>
<path d="M135.51,126.62c-0.54,0.05-1.21,0.17-1.73,0.35c-0.35,0.12-0.69,0.26-0.99,0.48 c-0.9,0.7-0.47,1.89,0.47,2.24c1.1,0.41,2.64-0.35,2.96-1.46C136.36,127.76,135.51,126.62,135.51,126.62z"/>
<path d="M129.95,119.82c-0.3,1.34-0.55,2.07-0.55,2.07s-1.38,2.79-1.14,3.43c0.24,0.64,1.45,1.21,2.15,0.87 c0.86-0.42,1.93-2.39,2.61-3.77c0.25-0.51,0.48-1.1,0.68-1.64C130.94,121.18,129.95,119.82,129.95,119.82L129.95,119.82z"/>
<path d="M135.64,126.41c-0.2,0.34-0.43,0.7-0.68,1.08c-1.36,2.05-3.46,3.81-2.07,5.37 c1.29,1.46,4.22-2.37,4.22-2.37l1.36-1.77C136.2,128.19,135.64,126.42,135.64,126.41z"/>
</g>
<path id="Glove_Fingerless_Left_Glove" d="M138.46,128.72l1.51-1.96c0,0,3.3-5.41,3.47-6.46 c0.13-0.8,0.02-3.47,0.02-3.47l-1.03-10.37l-5.24,0.44l-4.31,1.39l-0.32,1.77c0,0-1.56,2.15-1.97,3.69 c-0.29,1.09-0.13,3.68-0.49,5.43c-0.05,0.23-0.1,0.44-0.14,0.65l0,0c0,0,0.99,1.37,3.74,0.96c0.35-0.96,0.58-1.78,0.58-1.78 s0.95,0.32,1.43,0.7c1.61,1.24,0.91,4.96,0.91,4.96s-0.37,0.74-0.98,1.75C135.64,126.42,136.2,128.19,138.46,128.72z" fill="rgb(12, 12, 12)"/>
</g></g>
<g id="Right-Glove">
<g id="Fingerless_Right_Glove" class="option" style="display: inherit;">
<g id="Fingers_Fingerless_Right_Glove" fill="rgb(64, 37, 14)">
<path d="M31.4,124.11c0.54-0.03,1.05-0.01,1.58,0.1c0.36,0.08,0.72,0.16,1.04,0.35c0.99,0.57,0.72,1.81-0.16,2.28 c-1.03,0.55-2.66,0.01-3.13-1.05C30.53,125.35,31.14,124.53,31.4,124.11"/>
<path d="M33.21,125.19c0.54-0.03,1.05-0.02,1.58,0.1c0.36,0.08,0.72,0.16,1.04,0.35c0.99,0.57,0.72,1.81-0.16,2.28 c-1.03,0.55-2.66,0.01-3.13-1.05C32.35,126.43,32.95,125.61,33.21,125.19"/>
<path d="M34.49,126.62c0.54,0.05,1.21,0.17,1.73,0.35c0.35,0.12,0.69,0.26,0.99,0.48c0.9,0.7,0.47,1.89-0.47,2.24 c-1.1,0.41-2.64-0.35-2.96-1.46C33.64,127.76,34.49,126.62,34.49,126.62z"/>
<path d="M40.05,119.82c0.3,1.34,0.55,2.07,0.55,2.07s1.38,2.79,1.14,3.43c-0.24,0.64-1.45,1.21-2.15,0.87 c-0.86-0.42-1.93-2.39-2.61-3.77c-0.25-0.51-0.48-1.1-0.68-1.64C39.06,121.18,40.05,119.82,40.05,119.82L40.05,119.82z"/>
<path d="M34.36,126.41c0.2,0.34,0.43,0.7,0.68,1.08c1.36,2.05,3.46,3.81,2.08,5.37c-1.29,1.46-4.22-2.37-4.22-2.37 l-1.36-1.77C33.8,128.19,34.36,126.42,34.36,126.41z"/>
</g>
<path id="Glove_Fingerless_Right_Glove" d="M31.54,128.72l-1.51-1.96c0,0-3.3-5.41-3.47-6.46 c-0.13-0.8-0.02-3.47-0.02-3.47l1.03-10.37l5.24,0.44l4.31,1.39l0.32,1.77c0,0,1.56,2.15,1.97,3.69 c0.29,1.09,0.13,3.68,0.49,5.43c0.05,0.23,0.1,0.44,0.14,0.65l0,0c0,0-0.99,1.37-3.74,0.96c-0.35-0.96-0.58-1.78-0.58-1.78 s-0.95,0.32-1.43,0.7c-1.61,1.24-0.91,4.96-0.91,4.96s0.37,0.74,0.98,1.75C34.36,126.42,33.8,128.19,31.54,128.72z" fill="rgb(12, 12, 12)"/>
</g></g>
</g>
<g id="Biceps">
<g id="Left-Biceps">
<g id="None_Biceps_Left" class="option" style="display: inherit;">
</g></g>
<g id="Right-Biceps">
<g id="None_Biceps_Right" class="option" style="display: inherit;">
</g></g>
</g>
<g id="BicepsDecals" mask="url(#BicepsMask)">
</g>
<path id="Vest" d="M85,20.92c8.5-0.01,15.43-4.3,15.63-8.01l0.15,0.02l18.38,5.42l13.31,23.94l-2.86,1.16l-13.42-8.6 l-2.31,3.72l-1.54,47.4c0,0-8.72,4.71-13.53,5.35c-3.44,0.45-8.63,0.68-13.79,0.67c-5.16,0.01-10.35-0.22-13.79-0.67 c-4.81-0.63-13.53-5.35-13.53-5.35l-1.54-47.4l-2.31-3.72l-13.42,8.6l-2.86-1.16l13.31-23.94l18.38-5.42l0.15-0.02 C69.57,16.62,76.5,20.92,85,20.92" fill="rgb(118, 101, 87)"/>
<g id="SuitDecals" mask="url(#SuitMask)">
</g>
<g class="swappable" id="Chest"><g id="Chest_Galaxy">
<g id="Abdomen_Galaxy">
<path id="Abdomen-Plate_Galaxy" d="M78.03,73.41l-2.08,1.5l-10.56-1.5l-0.77-5.8l5-0.1l3.03-4.92l1.37-4.53 l10.95-9.96L85,48.11l0.02-0.02l10.95,9.96l1.37,4.53l3.03,4.92l5,0.1l-0.77,5.8l-10.56,1.5l-2.08-1.5H78.03z" fill="rgb(78, 77, 77)"/>
<path id="Trauma-Plate_Abdomen_Galaxy" class="toggle" style="" d="M84.98,50.38l-9.46,8.61l-1.3,4.29l-3.63,5.89l-4.03,0.08 l0.35,2.66l8.6,1.22l1.97-1.42h15.04l1.97,1.42l8.6-1.22l0.35-2.66l-4.03-0.08l-3.63-5.89l-1.3-4.29l-9.46-8.61L85,50.4 L84.98,50.38z" fill="rgb(85, 114, 92)"/>
</g>
<g id="Full-Chest_Galaxy">
<path id="Chest-Plate_Galaxy" d="M80.61,33.64l-0.02,10.15l3.21,3.22L72.55,57.6l-1.46,4.89l-2.38,3.9h-4.12 l-2-2.9l-2.55-14.21l-3.73-5.81l4.73-15.2l5.46-0.69l0.77-3.36l5.84-0.71l1.85,3h20.1l1.85-3l5.84,0.71l0.77,3.36l5.46,0.69 l4.73,15.2l-3.73,5.81l-2.55,14.21l-2,2.9h-4.12l-2.38-3.9l-1.46-4.89l-11.25-10.6l3.21-3.22l-0.02-10.15L85,30.24L80.61,33.64z" fill="rgb(78, 81, 79)"/>
<path id="Trauma-Plating_Left-Chest_Galaxy" class="toggle" style="" d="M96,28.19H85.12l5.97,4.62l0.02,11.67l-2.48,2.49 l10.31,9.72l1.53,5.11l1.77,2.9h2.27l1.29-1.87l2.54-14.19l3.49-5.43l-4.17-13.42l-5.55-0.7l-0.77-3.36l-3.57-0.43L96,28.19z" fill="rgb(85, 114, 92)"/>
<path id="Trauma-Plating_Right-Chest_Galaxy" class="toggle" style="" d="M72.23,25.31l-3.57,0.43l-0.77,3.36l-5.55,0.7 l-4.17,13.42l3.49,5.43l2.54,14.19l1.29,1.87h2.27l1.77-2.9l1.53-5.11l10.31-9.72l-2.48-2.49l0.02-11.67l5.97-4.62H74 L72.23,25.31z" fill="rgb(85, 114, 92)"/>
<g id="Accents_Chest-Plate_Galaxy" class="toggle" style="display: none;" fill="rgb(255, 255, 255)"/>
</g>
<g id="Iron-Heart_Galaxy">
<path id="Heart_Galaxy" d="M82.3,43.49v-9.13l2.7-2.1l2.7,2.1v9.13L85,46.2L82.3,43.49z" fill="rgb(149, 149, 149)"/><rect id="Center_Heart_Galaxy" class="option" x="84.07" y="35.76" width="1.87" height="6.25" fill="rgb(89, 89, 89)" style="display: inherit;"/>
</g>
<g id="Neck-Armor_Galaxy">
<g id="Neck-Plate_Galaxy" fill="rgb(49, 44, 44)">
<path d="M82.75,25.51l-7.39,0.12l-1.82-2.97l-7.05,0.84l-0.7,3.07l-4.52,0.56l-3.33-11.42l11.55-3.44 c0,0,1.53,2.58,2.64,3.49c1.14,0.93,2.66,2.02,4.08,2.64c1.56,0.68,3.46,1.13,5.27,1.42c0.19,0.03,0.38,0.06,0.59,0.08 L82.75,25.51z"/>
<path d="M87.25,25.51l7.39,0.12l1.82-2.97l7.05,0.84l0.7,3.07l4.52,0.56l3.33-11.42l-11.55-3.44 c0,0-1.53,2.58-2.64,3.49c-1.14,0.93-2.66,2.02-4.08,2.64c-1.56,0.68-3.46,1.13-5.27,1.42c-0.19,0.03-0.38,0.06-0.59,0.08 L87.25,25.51z"/>
</g>
<g id="Trauma-Plates_Neck_Galaxy" class="toggle" style="" fill="rgb(85, 114, 92)">
<path d="M101.25,14.25c-0.63,0.93-1.55,2.2-2.3,2.81c-1.25,1.02-2.92,2.21-4.48,2.89 c-1.49,0.65-3.26,1.11-5.01,1.43l-0.3,2.48l4.53,0.07l1.88-3.07l9.32,1.1l0.7,3.08l1.9,0.23l2.46-8.43L101.25,14.25z"/>
<path d="M68.75,14.25l-8.72,2.6l2.46,8.43l1.9-0.23l0.7-3.08l9.32-1.1l1.88,3.07l4.53-0.07l-0.3-2.48 c-1.74-0.32-3.52-0.78-5.01-1.43c-1.56-0.68-3.24-1.87-4.48-2.89C70.3,16.44,69.38,15.18,68.75,14.25z"/>
</g>
</g>
</g></g>
<g id="ChestDecals" mask="url(#ChestMask)">
</g>
<g id="Chest-Attachments"><g id="Bandoleer_Accessories_Chest" class="option" style="display: inherit;">
<g id="Strap_Bandoleer_Accessories_Chest" fill="rgb(71, 50, 31)">
<path d="M113.05,15.37l-6.61-3.15L64.67,87.5l6.61,3.62L113.05,15.37"/>
<path d="M111.26,14.16l-2.51-1.17l-8.34,15.03l2.41,1.32L111.26,14.16"/>
<path d="M99.44,35.85l-2.76-1.51L83.86,57.44l2.76,1.51L99.44,35.85"/>
<path d="M99.71,36.72l-3.92-2.15l-1.28,2.32l3.92,2.15L99.71,36.72"/>
<path d="M98.15,39.53l-3.92-2.15l-1.28,2.32l3.92,2.15L98.15,39.53"/>
<path d="M96.6,42.33l-3.92-2.15L91.4,42.5l3.92,2.15L96.6,42.33"/>
<path d="M95.04,45.14l-3.92-2.15l-1.28,2.32l3.92,2.15L95.04,45.14"/>
<path d="M93.48,47.94l-3.92-2.15l-1.29,2.32l3.92,2.15L93.48,47.94"/>
<path d="M90.37,53.55l-3.92-2.15l-1.29,2.32l3.92,2.15L90.37,53.55"/>
<path d="M91.93,50.75l-3.92-2.15l-1.29,2.32l3.92,2.15L91.93,50.75"/>
<path d="M88.82,56.36l-3.92-2.15l-1.28,2.31l3.92,2.15L88.82,56.36"/>
</g>
<g id="Ammo_Bandoleer_Accessories_Chest" fill="rgb(138, 124, 50)">
<g>
<g>
<path d="M99.57,36.97l1.6,0.88c0.17,0.09,0.23,0.31,0.14,0.48c-0.18,0.33-0.47,0.85-0.66,1.18 c-0.1,0.17-0.31,0.23-0.48,0.14l-1.6-0.88L99.57,36.97z"/>
<path d="M100.75,37.61l-0.13-0.07l-1,1.8l0.13,0.07L100.75,37.61z"/>
<path d="M100.47,37.46l-0.13-0.07l-1,1.8l0.14,0.07L100.47,37.46z"/>
</g>
<g>
<path d="M95.65,34.82l-1,1.8l-1.6-0.88c-0.17-0.09-0.23-0.31-0.14-0.48c0.18-0.33,0.47-0.85,0.66-1.19 c0.09-0.17,0.31-0.23,0.48-0.14L95.65,34.82z"/>
<path d="M94.44,34.15l-0.13-0.07l-1,1.8l0.14,0.07L94.44,34.15z"/>
</g>
</g>
<g>
<g>
<path d="M96.45,42.6l1.6,0.88c0.17,0.09,0.23,0.31,0.14,0.48c-0.18,0.33-0.47,0.85-0.66,1.19 c-0.09,0.17-0.31,0.23-0.48,0.14l-1.6-0.88L96.45,42.6z"/>
<path d="M97.63,43.24l-0.13-0.07l-1,1.8l0.13,0.07L97.63,43.24z"/>
<path d="M97.35,43.09l-0.13-0.07l-1,1.8l0.13,0.07L97.35,43.09z"/>
</g>
<g>
<path d="M92.53,40.45l-1,1.8l-1.6-0.88c-0.17-0.09-0.23-0.31-0.14-0.48c0.18-0.33,0.47-0.85,0.66-1.19 c0.1-0.17,0.31-0.23,0.48-0.14L92.53,40.45z"/>
<path d="M91.32,39.78l-0.13-0.07l-1,1.8l0.13,0.07L91.32,39.78z"/>
</g>
</g>
<g>
<g>
<path d="M94.9,45.38l1.6,0.88c0.17,0.09,0.23,0.31,0.14,0.48c-0.18,0.33-0.47,0.85-0.66,1.18 c-0.09,0.17-0.31,0.23-0.48,0.14l-1.6-0.88L94.9,45.38z"/>
<path d="M96.08,46.03l-0.13-0.07l-1,1.8l0.13,0.07L96.08,46.03z"/>
<path d="M95.8,45.88l-0.13-0.07l-1,1.8l0.13,0.07L95.8,45.88z"/>
</g>
<g>
<path d="M90.98,43.24l-1,1.8l-1.6-0.88c-0.17-0.09-0.23-0.31-0.14-0.48c0.18-0.33,0.47-0.85,0.66-1.19 c0.1-0.17,0.31-0.23,0.48-0.14L90.98,43.24z"/>
<path d="M89.77,42.57l-0.13-0.07l-1,1.8l0.13,0.07L89.77,42.57z"/>
</g>
</g>
<g>
<g>
<path d="M93.34,48.21l1.6,0.88c0.17,0.09,0.23,0.31,0.14,0.48c-0.18,0.33-0.47,0.85-0.66,1.19 c-0.09,0.17-0.31,0.23-0.48,0.14l-1.6-0.88L93.34,48.21z"/>
<path d="M94.52,48.85l-0.13-0.07l-1,1.8l0.13,0.07L94.52,48.85z"/>
<path d="M94.24,48.7l-0.13-0.07l-1,1.8l0.13,0.07L94.24,48.7z"/>
</g>
<g>
<path d="M89.42,46.06l-1,1.8l-1.6-0.88c-0.17-0.09-0.23-0.31-0.14-0.48c0.18-0.33,0.47-0.85,0.66-1.18 c0.1-0.17,0.31-0.23,0.48-0.14L89.42,46.06z"/>
<path d="M88.21,45.39l-0.13-0.07l-1,1.8l0.13,0.07L88.21,45.39z"/>
</g>
</g>
</g>
<g id="Buckles_Bandoleer_Accessories_Chest" fill="rgb(105, 105, 105)">
<g>
<path d="M104,27.77l-2.88-1.58l-1.63,2.93l2.88,1.58L104,27.77z"/>
<path d="M103.26,28.27l-2.17-1.19l-1.63,2.93l2.17,1.19L103.26,28.27z"/>
</g>
<path d="M104,24.34l-1.86-1.01l1.61-2.92l3.76,2.05l-1.61,2.92L104,24.34l0.36-0.65l1.06,0.58l0.89-1.61l-2.07-1.13 l-0.89,1.61l1.01,0.55"/>
</g>
</g></g>
<g id="Collar"><g id="Cloth-Wrap-Left_Collar" class="option" style="display: inherit;">
<g id="Main_Cloth-Wrap-Left_Collar" fill="rgb(171, 162, 108)">
<path d="M75.09,22.25c-5-1.56-5.91-4.07-6.21-6.59c-0.12-1.03,1.36-3.72-0.17-4.41c-1.73-0.78-5.81,0.44-7.49,0.8 c-1.25,0.27-2.36,0.58-3.64,0.59c-2.94,0.03-5.28,1.99-5.54,3.45c-0.37,2.04,3.27,2.78,4.97,4.33 c4.26,3.88,5.74,9.13,14.69,10.57c4.11,0.66,8.18-0.27,11.99-1.12c9.86-2.19,15.23-4.07,21.57-8.93 c2.77-2.13,6.95-3.86,6.85-6.71c0-0.12-2.02-1.31-2.22-1.36c-1.77-0.44-3.29-1.17-5.24-1.21c-1.17-0.02-0.98,0.98-1.06,1.43 c-0.33,1.74-1.93,3.05-3.93,4.36C94.37,20.92,82.32,21.99,75.09,22.25z"/>
<path d="M75.09,22.25c-1.32,0.05-2.48,0.25-3.49,0.32c-4.58,0.28-6.21-0.83-7.1-2.86"/>
<path d="M60.86,12.11c-1.32,2.14-1.15,4.67-0.1,6.33"/>
<path d="M99.25,18.23c-3.43,4.66-8.51,6.13-14.08,6.7"/>
<path d="M108.53,12.49c-0.2,1.18-0.91,1.62-1.78,2.41c-0.5,0.46-1.11,0.78-1.51,1.35c-0.15,0.2-0.22,0.44-0.31,0.67"/>
</g>
<path id="Buckle_Cloth-Wrap-Left_Collar" d="M98.07,17.35l2.92-2.08l5.06,7.02l-2.91,2.08L98.07,17.35z" fill="rgb(49, 49, 49)"/>
</g></g>
<g id="CollarDecals" mask="url(#CollarMask)">
</g>
<g id="Helmets" class="swappable" transform="translate(45,-52)"><g id="Helmet_Stalker-Medium">
<g id="Left-Earcap_Stalker-Medium" class="toggle"><g id="Range-Finder_Left_Stalker-Medium" class="option" style="display: inherit;">
<path id="Shaft_Left_Range-Finder_Stalker-Medium" d="M57.92,9.72l-1.08,0.07l1.61,26.85h1.1L57.92,9.72z" fill="rgb(119, 119, 119)"/>
<path id="Finder_Left_Range-Finder_Stalker-Medium" d="M49.59,7.55h5.96l-0.24-0.74l-6.96-0.65L49.59,7.55" fill="rgb(130, 127, 127)"/>
<g id="Cover_Left_Range-Finder_Stalker-Medium" fill="rgb(98, 97, 97)">
<path d="M58.77,8.59l-2.83,0.19l-0.63-1.96l-7.48-0.7l-0.15-0.76l10.68-0.4l1.04,1.32L58.77,8.59"/>
<path d="M58.01,8.64l-1.41,0.09l0.07,1.07l1.41-0.09L58.01,8.64"/>
</g>
</g>
<g id="Ear-Cap_Left_Stalker-Medium" fill="rgb(81, 108, 87)">
<path d="M57.56,30.96l2.4,1.65l0.94,10.41l-2.07,2.06L57.56,30.96z"/>
<path d="M58.6,37.7c-0.01-0.11,0.07-0.21,0.18-0.22l0.97-0.09c0.11-0.01,0.21,0.07,0.22,0.18 c0.01,0.11-0.07,0.21-0.18,0.22l-0.97,0.09C58.71,37.89,58.61,37.81,58.6,37.7z"/>
</g>
</g>
<g id="Right-Earcap_Stalker-Medium" class="toggle"><g id="Main-Antenna_Right_Stalker-Medium" class="option" style="display: inherit;">
<path id="Shaft_Main-Antenna_Right_Stalker-Medium" d="M19.93,28.7l0.26-25.04c0,0-0.01-0.66,0.36-0.66 c0.37,0,0.36,0.66,0.36,0.66l0.26,25.04H19.93z" fill="rgb(92, 89, 89)"/>
<g id="Base_Main-Antenna_Right_Stalker-Medium" fill="rgb(115, 115, 115)">
<path d="M22.35,32.65h-3.59c0,0-0.77,8.43,1.77,8.43S22.35,32.65,22.35,32.65z"/>
<rect x="19.29" y="32.23" width="2.51" height="0.41"/>
<path d="M19.1,32.23l0.61-3.53l0.84,0.01l0.84-0.01L22,32.23H19.1z"/>
<rect x="20.35" y="29.31" width="0.4" height="2.47"/>
<path d="M21.48,29.22l-0.4,0.06l0.39,2.44l0.4-0.06L21.48,29.22z"/>
<path d="M19.62,29.22l0.4,0.06l-0.39,2.44l-0.4-0.06L19.62,29.22z"/>
</g>
</g><g id="Ear-Cap_Right_Stalker-Medium" fill="rgb(81, 108, 87)">
<path d="M22.44,30.96l-2.4,1.65L19.1,43.02l2.07,2.06L22.44,30.96z"/>
<path d="M21.4,37.7c0.01-0.11-0.07-0.21-0.18-0.22l-0.97-0.09c-0.11-0.01-0.21,0.07-0.22,0.18 c-0.01,0.11,0.07,0.21,0.18,0.22l0.97,0.09C21.29,37.89,21.39,37.81,21.4,37.7z"/>
</g>
</g>
<g id="Helmet_Pieces_Stalker-Medium">
<g id="Dome-2_Stalker-Medium" fill="rgb(71, 70, 70)">
<path d="M33.06,20.32l-0.02-0.06c0,0-6.45,1.52-8.89,7.94c-0.43,1.13-0.81,3.23-0.97,4.19 c0.12-0.19,0.23-0.37,0.34-0.5c0.46-0.6,1.2-1.48,1.89-2.15c0.98-0.95,2.81-2.27,4-3.57c1.18-1.29,2.48-3.19,3.1-4.23 C32.78,21.49,32.95,20.79,33.06,20.32z"/>
<path d="M47.08,20.32l0.02-0.06c0,0,6.45,1.52,8.89,7.94c0.43,1.13,0.81,3.23,0.97,4.19 c-0.12-0.19-0.24-0.37-0.34-0.5c-0.46-0.6-1.21-1.48-1.89-2.15c-0.98-0.95-2.81-2.27-3.99-3.57c-1.18-1.29-2.48-3.19-3.1-4.23 C47.36,21.49,47.18,20.79,47.08,20.32z"/>
<g>
<path d="M56.86,29.69l0.84,0.86l1.35,14.93l-0.67,1L56.86,29.69z"/>
<path d="M56.05,28.55l0.8,0.86l1.56,17.34l-0.63,0.99L56.05,28.55z"/>
</g>
<g>
<path d="M23.25,29.69l-0.84,0.86l-1.35,14.93l0.67,1L23.25,29.69z"/>
<path d="M24.06,28.55l-0.8,0.86l-1.56,17.34l0.63,0.99L24.06,28.55z"/>
</g>
</g>
<g id="Dome-1_Stalker-Medium" fill="rgb(100, 100, 100)">
<g>
<path d="M33.07,20.22c-0.1,0.47-0.28,1.24-0.57,1.72c-0.06,0.1-0.13,0.21-0.2,0.33c-0.39,0.08-0.84,0.2-1.22,0.37 c-0.83,0.38-2.06,1.23-2.06,1.23v-1.85c0,0,0.97-0.54,1.94-1C31.61,20.71,32.54,20.39,33.07,20.22z"/>
<path d="M32.36,22.16c-0.66,1.07-1.87,2.8-2.97,4.01c-0.12,0.13-0.25,0.26-0.38,0.4v-2.69c0,0,0.87-0.76,1.92-1.18 C31.43,22.5,31.95,22.31,32.36,22.16z"/>
</g>
<g>
<path d="M47.08,20.22c0.1,0.47,0.28,1.24,0.57,1.72c0.06,0.1,0.13,0.21,0.2,0.33c0.39,0.08,0.85,0.2,1.22,0.37 c0.83,0.38,2.06,1.23,2.06,1.23v-1.85c0,0-0.97-0.54-1.94-1C48.53,20.71,47.6,20.39,47.08,20.22z"/>
<path d="M47.79,22.16c0.66,1.07,1.87,2.8,2.97,4.01c0.12,0.13,0.25,0.26,0.38,0.4v-2.69c0,0-0.87-0.76-1.92-1.18 C48.72,22.5,48.19,22.31,47.79,22.16z"/>
</g>
</g>
<g id="Face-2_Stalker-Medium" fill="rgb(85, 114, 92)">
<path d="M23.68,51.12l-0.13-3.41l-2.31,3.27c0,0-0.12,2.86,0.29,4.04c0.4,1.17,1.31,2.13,2.15,3.04 c0.95,1.03,12.12,8.49,12.12,8.49l-1.92-8.26L32.03,59l-1.61-0.79l-2.06-1.61l-2.16-2.12l-1.7-1.93l-0.82-1.17V51.12z"/>
<path d="M56.45,51.12l0.13-3.41l2.31,3.27c0,0,0.12,2.86-0.29,4.04c-0.4,1.17-1.31,2.13-2.15,3.04 c-0.95,1.03-12.12,8.49-12.12,8.49l1.92-8.26L48.1,59l1.61-0.79l2.06-1.61l2.16-2.12l1.7-1.93l0.82-1.17V51.12z"/>
</g>
<g id="Face-1_Stalker-Medium" fill="rgb(100, 98, 98)">
<g>
<path d="M23.68,51.12v0.25l0.82,1.17l1.7,1.93l2.16,2.12l2.06,1.61L32.03,59l1.85-0.72l-0.25-1.09l-3.58-8.74 l-4.56-3.47l-1.93,2.73L23.68,51.12z"/>
<g>
<path d="M29.89,55.5c-0.07-0.09-0.06-0.22,0.04-0.29l1.31-1.03c0.09-0.07,0.22-0.06,0.29,0.03 c0.07,0.09,0.06,0.22-0.03,0.29l-1.31,1.03C30.09,55.6,29.96,55.59,29.89,55.5"/>
<path d="M30.69,56.84c-0.07-0.09-0.06-0.22,0.03-0.29l1.11-0.87c0.09-0.07,0.22-0.06,0.29,0.04 c0.07,0.09,0.06,0.22-0.03,0.29l-1.11,0.87C30.89,56.95,30.76,56.93,30.69,56.84"/>
</g>
</g>
<g>
<path d="M56.45,51.12v0.25l-0.82,1.17l-1.7,1.93l-2.16,2.12l-2.06,1.61L48.1,59l-1.85-0.72l0.25-1.09l3.58-8.74 l4.56-3.47l1.93,2.73L56.45,51.12z"/>
<g>
<path d="M50.24,55.5c0.07-0.09,0.06-0.22-0.04-0.29l-1.31-1.03c-0.09-0.07-0.22-0.06-0.29,0.03 c-0.07,0.09-0.06,0.22,0.03,0.29l1.31,1.03C50.04,55.6,50.17,55.59,50.24,55.5"/>
<path d="M49.44,56.84c0.07-0.09,0.06-0.22-0.03-0.29l-1.11-0.87c-0.09-0.07-0.22-0.06-0.29,0.04 c-0.07,0.09-0.05,0.22,0.03,0.29l1.11,0.87C49.23,56.95,49.36,56.93,49.44,56.84"/>
</g>
</g>
</g>
<g id="Cheeks_Stalker-Medium" fill="rgb(88, 88, 88)">
<g>
<path d="M46.51,57.19l-0.86-0.23l4.27-12.28l0.17,0.57v3.2L46.51,57.19z"/>
<path d="M50.09,48.45l-0.17-3.77l1.73-0.94l2.92-1.99l2.58-2.29l0.27-0.31l-2.77,5.83L50.09,48.45z"/>
<path d="M58.88,50.97l-4.23-6l2.77-5.83l0.49-0.58L58.88,50.97z"/>
<path d="M44.33,66.54l-0.16,0.05l1.47-9.63l0.86,0.23L44.33,66.54z"/>
</g>
<g>
<path d="M21.24,50.97l4.23-6l-2.77-5.83l-0.49-0.58L21.24,50.97z"/>
<path d="M33.62,57.19l0.86-0.23l-4.27-12.28l-0.17,3.77L33.62,57.19z"/>
<path d="M30.04,48.45l0.17-3.77l-1.73-0.94l-2.92-1.99l-2.58-2.29l-0.27-0.31l2.77,5.83L30.04,48.45z"/>
<path d="M35.8,66.54l0.16,0.05l-1.47-9.63l-0.86,0.23L35.8,66.54z"/>
</g>
</g>
<path fill="rgb(54, 48, 48)" id="Visor_Stalker-Medium" d="M41.83,66.78H38.3l-0.38-25.45c0,0-3.7-0.78-3.8-0.78c-0.1,0-5.17-1.18-5.17-1.18 l-4.47-1.53l-1.49-0.76l0.1-1.35l4.31,0.7l5.35,0.68l5.01,0.32l2.05,0.14h0.51l2.05-0.14l5.01-0.32l5.35-0.68l4.31-0.7l0.1,1.35 l-1.49,0.76l-4.47,1.53c0,0-5.07,1.18-5.17,1.18c-0.1,0-3.8,0.78-3.8,0.78L41.83,66.78z"/>
<g id="Eyes_Stalker-Medium">
<g id="Main_Eyes_Stalker-Medium" fill="rgb(72, 93, 77)">
<path d="M57.51,33.36c0,0-0.54-1.02-0.89-1.47c-0.46-0.6-1.21-1.48-1.89-2.15c-0.98-0.95-2.81-2.27-3.99-3.57 c-1.18-1.29-2.48-3.19-3.1-4.23c-0.36-0.6-0.55-1.61-0.63-1.99c-0.02-0.1,0.17-0.26,0.17-0.26s-2.1-0.87-2.82-1.03 c-0.89-0.2-3.23-0.47-3.23-0.47l-1.99-0.01c0,0-2.45,0.28-3.36,0.48c-0.73,0.16-2.82,1.03-2.82,1.03s0.19,0.16,0.17,0.26 c-0.08,0.37-0.27,1.39-0.63,1.99c-0.62,1.04-1.93,2.94-3.1,4.23c-1.18,1.3-3.01,2.62-3.99,3.57c-0.68,0.67-1.42,1.55-1.89,2.15 c-0.35,0.46-0.89,1.47-0.89,1.47l-0.6,4.83l0.2,0.38l0.76,0.9l2.58,2.29l2.92,1.99l1.73,0.93l4.27,12.28l1.47,9.63l0.64,0.2 h6.95l0.64-0.2l1.47-9.63l4.27-12.28l1.73-0.93l2.92-1.99l2.58-2.29l0.76-0.9l0.2-0.38L57.51,33.36 M41.83,66.78H38.3 l-0.38-25.45c0,0-3.7-0.78-3.8-0.78c-0.1,0-5.17-1.18-5.17-1.18l-4.47-1.53l-1.49-0.76l0.1-1.35l4.31,0.7l5.35,0.68l5.01,0.32 l2.05,0.14h0.51l2.05-0.14l5.01-0.32l5.35-0.68l4.31-0.7l0.1,1.35l-1.49,0.76l-4.47,1.53c0,0-5.07,1.18-5.17,1.18 c-0.1,0-3.8,0.78-3.8,0.78L41.83,66.78"/>
<path d="M32.5,20.41l0.32-0.62l0.14-0.1l0.17,0.26l-0.06,0.27L32.5,20.41"/>
<path d="M47.63,20.41l-0.32-0.62l-0.14-0.1c0,0-0.16,0.16-0.17,0.26s0.1,0.31,0.1,0.31L47.63,20.41"/>
</g>
<g id="Trim_Eyes_Stalker-Medium" fill="rgb(85, 114, 92)">
<path d="M35.02,37.26l-0.37-0.9l-2.63-0.52l1.05-15.62l0.06-0.27l-0.17-0.25l2.73-1.02l1.09-0.2v16.27h6.59V18.48 l1.18,0.23l2.63,0.98l-0.18,0.26l1.1,15.89l-2.62,0.52l-0.37,0.9l-5.03,0.31L35.02,37.26z"/>
<path d="M43.36,34.75h-6.59l2.5,0.76v-0.38h1.58v0.38L43.36,34.75z"/>
<g>
<path d="M44.94,40.77l-2.74,0.57l-0.38,25.45h1.71l0.64-0.2l1.47-9.63l1.11-3.18l-2.26-2.35L44.94,40.77z"/>
<path d="M35.16,40.77l2.74,0.57l0.38,25.45h-1.71l-0.64-0.2l-1.47-9.63l-1.11-3.18l2.26-2.35L35.16,40.77z"/>
</g>
</g>
<path id="Center_Eyes_Stalker-Medium" d="M43.36,18.48c0,0-1.59-0.3-3.3-0.3c-1.7,0-3.29,0.3-3.29,0.3v16.27h6.59 V18.48z" fill="rgb(77, 76, 76)"/>
</g>
</g>
</g></g>
<g id="HelmetsDecals" mask="url(#HelmetsMask)"/>
<g id="Shoulders">
<g id="Left-Shoulder"><g id="Gunslinger-Bell_Shoulder_Left" class="option" style="display: inherit;">
<path id="Main_Gunslinger-Bell_Shoulder_Left" d="M113.87,16.41c6.16-0.15,19.92,4.76,19.37,22.26l-0.07,3.45 l-11.98,4.89l-10.5-13.96l0-16.64L113.87,16.41z" fill="rgb(85, 114, 92)"/>
<path id="Ridge_Gunslinger-Bell_Shoulder_Left" class="toggle" d="M110.68,16.41L110.68,16.41l0-2.02 c13.11-0.07,25.51,5.55,24.56,27.14l-2.01,0.47c-0.02-0.25-0.04-0.51-0.06-0.75l0.06-2.59c0.55-17.49-13.2-22.4-19.37-22.26 h-0.68C111.83,16.22,110.9,16.27,110.68,16.41L110.68,16.41L110.68,16.41z" style="display: none;" fill="rgb(255, 255, 255)"/>
<g id="Trim_Gunslinger-Bell_Shoulder_Left" class="toggle" fill="rgb(73, 73, 73)">
<rect x="110.68" y="15.63" width="3.19" height="17.45"/>
<path d="M113.87,32l-3.19,1.05l10.51,13.97l2.55-1.9L113.87,32z"/>
<path d="M122.26,43.14l-1.11,3.88l12.58-5.13v-3.42L122.26,43.14z"/>
</g>
</g></g>
<g id="Right-Shoulder"><g id="Gunslinger-Bell_Shoulder_Right" class="option" style="display: inherit;">
<path id="Main_Gunslinger-Bell_Shoulder_Right" d="M56.13,16.41c-6.16-0.15-19.92,4.76-19.37,22.26l0.08,3.45 l11.98,4.89l10.5-13.96l0-16.64L56.13,16.41z" fill="rgb(85, 114, 92)"/>
<path id="Ridge_Gunslinger-Bell_Shoulder_Right" class="toggle" d="M59.32,16.41L59.32,16.41l0-2.02 c-13.11-0.07-25.51,5.55-24.56,27.14l2.01,0.47c0.02-0.25,0.04-0.51,0.06-0.75l-0.06-2.59c-0.55-17.49,13.2-22.4,19.37-22.26 h0.68C58.17,16.22,59.1,16.27,59.32,16.41L59.32,16.41L59.32,16.41z" style="display: none;" fill="rgb(255, 255, 255)"/>
<g id="Trim_Gunslinger-Bell_Shoulder_Right" class="toggle" fill="rgb(73, 73, 73)">
<rect x="56.13" y="15.63" width="3.19" height="17.45"/>
<path d="M56.13,32l3.19,1.05L48.81,47.02l-2.55-1.9L56.13,32z"/>
<path d="M47.74,43.14l1.12,3.88l-12.58-5.13v-3.42L47.74,43.14z"/>
</g>
</g></g>
</g>
<g id="ShouldersDecals" mask="url(#ShouldersMask)">
</g>
<g id="Gauntlets">
<g id="Left-Gauntlets"><g id="Basic_Gauntlet_Left" class="option" style="display: inherit;">
<path id="Top-2_Basic_Gauntlet_Left" d="M145.21,108.31l1.36-2.17l-3.89-18.32l-0.65,2.21l1.85,8.35l-0.72,2.07 L145.21,108.31z" fill="rgb(59, 36, 36)"/>
<path id="Top-1_Basic_Gauntlet_Left" d="M142.68,87.82l-0.65,2.21l1.85,8.35l-0.72,2.07l2.05,7.86l-0.9,1.43 l0.47,5.09l-1.57,0.41l-2.13-7.67l-1.46-0.54l-6.74-22.45l8.91-0.93L142.68,87.82z" fill="rgb(93, 92, 92)"/>
<g id="Accent-Bottom_Basic_Gauntlet_Left" fill="rgb(73, 72, 72)">
<path d="M129.49,91.34l-1.97,0.65l0.97,2.92l1.97-0.65L129.49,91.34z"/>
<path d="M131.16,96.45l-1.97,0.65l0.97,2.92l1.97-0.65L131.16,96.45z"/>
<path d="M132.91,101.68l-1.97,0.65l0.97,2.92l1.97-0.65L132.91,101.68z"/>
</g>
<path id="Bottom_Basic_Gauntlet_Left" d="M127.53,91.98l-0.73-2.22l6.19-4.8l6.63,22.08l-6.74,1.23l-2.71-8.25 l1.96-0.65l-0.97-2.92l-1.95,0.64l-0.72-2.19l1.97-0.65l-0.97-2.92L127.53,91.98z M132.91,101.68l-1.98,0.65l0.96,2.92l1.99-0.65 L132.91,101.68z" fill="rgb(93, 92, 92)"/><g id="No-Device_Attachment_Basic_Gauntlet_Left" class="option" style="display: inherit;">
</g>
</g>
</g>
<g id="Right-Gauntlets"><g id="Heavy_Gauntlet_Right" class="option" style="display: inherit;">
<g id="Top-2_Heavy_Gauntlet_Right" fill="rgb(71, 71, 71)">
<path d="M29.5,79.64l-1.74,0.13l-1.43,8.11l1.48,1.23L29.5,79.64z"/>
<path d="M27.93,88.39l-1.82,10.57l0.95,1.28l-1.11,6.22l0.44,0.32l3.07-17.02L27.93,88.39z"/>
<ellipse cx="27.92" cy="85.76" rx="0.38" ry="0.38"/>
</g>
<g id="Top-1_Heavy_Gauntlet_Right" fill="rgb(85, 85, 85)">
<path d="M30.76,107.96l-4.36-1.17l3.07-17.02l-1.54-1.38l1.66-9.27l6.59-0.67L30.76,107.96z"/>
<path d="M31.29,78.94l-1.82,10.82"/>
</g>
<g id="Accent-Top_Heavy_Gauntlet_Right" fill="rgb(65, 65, 65)">
<path d="M27.66,104.17l2.77,0.56l-0.42,2.15l-2.77-0.65L27.66,104.17z"/>
<path d="M29.4,95.16l2.77,0.56l-1.62,8.4l-2.77-0.56L29.4,95.16z"/>
<path d="M31.89,79.56l3.13-0.24l-1.64,9.21l-2.91-0.59L31.89,79.56z"/>
</g>
<path id="Bottom_Heavy_Gauntlet_Right" d="M36.11,78.88c3.37,0.13,6.88,1.57,9.06,4.4 c0.71,0.92,0.92,2.12,0.58,3.22c-1.64,5.35-7.01,22.84-7.01,22.84l-7.98-1.39L36.11,78.88z" fill="rgb(103, 84, 68)"/>
<g id="Accent-Bottom_Heavy_Gauntlet_Right" fill="rgb(91, 91, 91)">
<path d="M30.76,107.96l7.98,1.39l0.43-1.41l-8.13-1.52L30.76,107.96z"/>
<path d="M35.74,80.86c4.35,0.43,7.98,2.01,9.69,6.7l0.32-1.04c0.27-0.87,0.19-1.8-0.2-2.61l-0.41-0.65 c-2.19-2.81-5.68-4.24-9.03-4.37L35.74,80.86z"/>
<path d="M36.88,79.53l3.52,0.69l-2.77,13.89l-3.52-0.69L36.88,79.53z"/>
<path d="M37.29,79.88l2.59,0.51l-2.56,12.85l-2.59-0.51L37.29,79.88z"/>
<path d="M39.88,80.39l0.51-0.17"/>
<path d="M36.88,79.53l0.41,0.35"/>
<path d="M34.1,93.42l0.62-0.7"/>
<path d="M37.62,94.12l-0.37-0.89"/>
</g><g id="Flamethrower_Attachment_Heavy_Gauntlet_Right" class="option" style="display: inherit;">
<g id="Tubes_Flamethrower_Attachment_Heavy_Gauntlet_Right" fill="rgb(50, 50, 50)">
<path d="M28.01,79.84l0.82,0.14l-4.36,24.89l-0.82-0.14L28.01,79.84z"/>
<path d="M26.12,79.51l0.82,0.14l-3.12,17.84L23,97.35L26.12,79.51z"/>
<path d="M27.48,81.35l1.23,0.21l-1.04,5.93l-1.24-0.21L27.48,81.35z"/>
<path d="M25.7,81.04l1.13,0.19l-1.04,5.93l-1.13-0.2L25.7,81.04z"/>
</g>
<g id="Main_Flamethrower_Attachment_Heavy_Gauntlet_Right" fill="rgb(85, 85, 85)">
<path d="M25.84,79.07l3.38,0.58l-0.34,1.94l-3.38-0.58L25.84,79.07z"/>
<path d="M24.38,86.93l3.53,0.61l-0.17,0.95l-3.53-0.61L24.38,86.93z"/>
<path d="M24.36,87.9l3.24,0.56l-0.08,0.48l-3.24-0.56L24.36,87.9z"/>
<path d="M27.66,86.88L28.2,87l-0.51,2.89l-0.54-0.11L27.66,86.88z"/>
</g>
<g id="Accent_Flamethrower_Attachment_Heavy_Gauntlet_Right" fill="rgb(93, 91, 91)">
<path d="M22.97,97.35l0.88,0.15l-0.08,1.24l-1.15-0.2L22.97,97.35z"/>
<path d="M23.74,90.95l1.56,0.27l-0.33,1.89l-1.56-0.27L23.74,90.95z"/>
<path d="M23.62,92.87l1.13,0.2l-0.33,1.89l-1.13-0.19L23.62,92.87z"/>
<path d="M24.05,101.55l1.13,0.2l-0.45,2.59l-1.13-0.19L24.05,101.55z"/>
<path d="M25.51,93.2l1.13,0.19l-0.62,3.52l-1.13-0.2L25.51,93.2z"/>
<path d="M23.6,102.81l1.56,0.27l-0.09,0.5l-1.56-0.27L23.6,102.81z"/>
</g>
<path id="Base_Flamethrower_Attachment_Heavy_Gauntlet_Right" d="M28.2,87l1.39-7.85l-1.01,0.21l-2.35,13.27 l0.87,0.59l0.59-3.32l-0.54-0.11l0.51-2.89L28.2,87z" fill="rgb(42, 42, 42)"/>
</g></g></g>
</g>
<g id="GauntletsDecals" mask="url(#GauntletsMask)">
</g>
<g id="Shins">
<g id="Left-Shin"><g id="Full_Shin_Left" class="option" style="display: inherit;">
<path id="Shin_Full-Shin_Left" d="M102.49,175.8c10.97-2.98,18.29-1.11,18.29-1.11l4.35,42.35 c0,0-4.31,1.17-9.01,1.31c-3.44,0.1-8.96-0.97-8.96-0.97l-7.9-36C99.27,181.38,102.89,180.58,102.49,175.8" fill="rgb(85, 114, 92)"/>
<g id="Accent_Full-Shin_Left" class="toggle" fill="rgb(38, 38, 38)">
<path d="M100.16,185.33l6.08-0.75l0.41,1.58l-6.12,0.76L100.16,185.33"/>
<path d="M100.67,187.53l4.15-0.52l0.41,1.58l-4.2,0.53L100.67,187.53"/>
</g>
<g id="Ridge_Full-Shin_Left" class="toggle" fill="rgb(81, 99, 85)">
<path d="M116.97,173.79l-3.93-0.29l-4.03,0.56l8.19,44.25c1.96-0.02,3.4-0.28,5.63-0.74L116.97,173.79"/>
<path d="M113.04,173.5l7.28,44.54"/>
</g>
</g></g>
<g id="Right-Shin"><g id="Full_Shin_Right" class="option" style="display: inherit;">
<path id="Shin_Full-Shin_Right" d="M67.41,175.8c-10.97-2.98-18.29-1.11-18.29-1.11l-4.35,42.35 c0,0,4.31,1.17,9.01,1.31c3.44,0.1,8.96-0.97,8.96-0.97l7.9-36C70.62,181.38,67,180.58,67.41,175.8" fill="rgb(85, 114, 92)"/>
<g id="Accent_Full-Shin_Right" class="toggle" fill="rgb(38, 38, 38)">
<path d="M69.73,185.33l-6.08-0.75l-0.41,1.58l6.12,0.76L69.73,185.33"/>
<path d="M69.23,187.53l-4.15-0.52l-0.41,1.58l4.2,0.53L69.23,187.53"/>
</g>
<g id="Ridge_Full-Shin_Right" class="toggle" fill="rgb(81, 99, 85)">
<path d="M52.92,173.79l3.93-0.29l4.03,0.56L52.7,218.3c-1.95-0.02-3.4-0.28-5.63-0.74L52.92,173.79"/>
<path d="M56.85,173.5l-7.28,44.54"/>
</g>
</g></g>
</g>
<g id="ShinsDecals" mask="url(#ShinsMask)">
</g>
<g id="Foot">
<g id="Left-Ankle">
<g id="None_Ankle_Left" class="option" style="display: inherit;">
</g></g>
<g id="Left-Toe"><g id="Spikes_Toe_Left" class="option" fill="rgb(110, 109, 109)" style="display: inherit;">
<path d="M132.2,239.82c2.86-0.5,5.74-1.18,8.65-2.03c0.22-0.06,0.46-0.02,0.64,0.11c0.18,0.13,0.3,0.35,0.3,0.57 c0.01,0.49,0.03,0.99,0.03,0.99c-2.06,0.93-4.63,1.59-7.61,2.04c-0.49,0.08-1-0.07-1.38-0.38 C132.45,240.79,132.22,240.32,132.2,239.82C132.2,239.82,132.2,239.82,132.2,239.82"/>
<path d="M137.04,241.77c0,0-2.79-0.31-3.86-0.43c-0.16-0.02-0.31-0.1-0.42-0.23c-0.1-0.13-0.15-0.29-0.13-0.46 c0.11-0.58,0.51-0.85,1.29-0.8c0.11,0.01,0.21,0.04,0.31,0.1C134.74,240.26,137.04,241.77,137.04,241.77"/>
<path d="M144.07,239.72c0,0-2.43-0.21-3.42-0.3c-0.2-0.02-0.37-0.13-0.48-0.29c-0.1-0.17-0.12-0.38-0.04-0.56 c0.21-0.27,0.52-0.42,1.03-0.39c0.1,0,0.2,0.03,0.28,0.08C141.87,238.47,144.07,239.72,144.07,239.72"/>
</g></g>
<g id="Right-Ankle">
<g id="None_Ankle_Right" class="option" style="display: inherit;">
</g></g>
<g id="Right-Toe"><g id="Spikes_Toe_Right" class="option" fill="rgb(110, 109, 109)" style="display: inherit;">
<path d="M37.67,239.82c-2.86-0.5-5.74-1.18-8.65-2.03c-0.22-0.06-0.45-0.02-0.64,0.11c-0.19,0.13-0.3,0.35-0.3,0.57 c0,0.2-0.01,0.39-0.01,0.56c-0.01,0.26,0.14,0.5,0.38,0.6c1.99,0.84,4.42,1.44,7.21,1.86c0.5,0.08,1-0.07,1.38-0.38 C37.42,240.79,37.65,240.32,37.67,239.82C37.67,239.82,37.67,239.82,37.67,239.82"/>
<path d="M32.84,241.77c0,0,2.79-0.31,3.86-0.43c0.16-0.02,0.31-0.1,0.42-0.23c0.1-0.13,0.15-0.29,0.13-0.46 c-0.11-0.58-0.51-0.85-1.29-0.8c-0.11,0.01-0.21,0.04-0.31,0.1C35.13,240.26,32.84,241.77,32.84,241.77"/>
<path d="M25.81,239.72c0,0,2.43-0.21,3.42-0.3c0.2-0.02,0.37-0.13,0.48-0.29c0.1-0.17,0.12-0.38,0.04-0.56 c-0.21-0.27-0.52-0.42-1.03-0.39c-0.1,0-0.2,0.03-0.28,0.08C28,238.47,25.81,239.72,25.81,239.72"/>
</g></g>
</g>
<g id="FootDecals" mask="url(#FootMask)">
</g>
<g id="Knees">
<g id="Left-Knee"><g id="Heavy_Knee_Left" class="option" style="display: inherit;">
<g id="Missiles_Heavy-Knee_Left" class="toggle" style="">
<path id="Base_Missiles_Heavy-Knee_Left" d="M118.65,160.1l1.78,9.57l2.09-1.68c0.34-0.27,0.51-0.71,0.43-1.14 c-0.21-1.3-0.68-4.13-0.92-5.62c-0.09-0.56-0.57-0.98-1.14-1.01L118.65,160.1z" fill="rgb(87, 87, 87)"/>
<g id="Missile-2_Missiles_Heavy-Knee_Left" fill="rgb(171, 96, 96)">
<path d="M121.04,165.37c-0.55,0.15-0.88,0.71-0.73,1.26s0.72,0.88,1.28,0.73c0.56-0.15,0.88-0.71,0.73-1.26 C122.16,165.55,121.59,165.22,121.04,165.37z"/>
<path d="M121.14,165.69c-0.37,0.1-0.59,0.48-0.49,0.85c0.1,0.37,0.49,0.59,0.86,0.49c0.37-0.1,0.59-0.48,0.49-0.85 C121.89,165.82,121.51,165.6,121.14,165.69z"/>
</g>
<g id="Missile-1_Missiles_Heavy-Knee_Left" fill="rgb(140, 165, 165)">
<path d="M120.28,160.95c-0.55,0.15-0.88,0.71-0.73,1.26c0.15,0.55,0.73,0.88,1.28,0.73 c0.56-0.15,0.88-0.71,0.73-1.26C121.41,161.13,120.83,160.8,120.28,160.95z"/>
<path d="M120.38,161.27c-0.37,0.1-0.59,0.48-0.49,0.85c0.1,0.37,0.49,0.59,0.86,0.49c0.37-0.1,0.59-0.48,0.49-0.85 C121.14,161.39,120.75,161.17,120.38,161.27z"/>
</g>
</g>
<path id="Plate-2_Heavy-Knee_Left" d="M116.81,155.76l-2.86-1.72l-14.26,2.44l-2.07,2.56l2.79,14.21l5.62,0.13 l8.01-1.37l5.57-2L116.81,155.76z" fill="rgb(79, 78, 78)"/>
<g id="Plate-1_Heavy-Knee_Left" fill="rgb(70, 84, 66)">
<path d="M116.12,156.54l-2.63-1.66l-13.05,2.23l-1.88,2.44l2.7,13.71l4.78,0.12l8.01-1.37l4.78-1.75L116.12,156.54z "/>
<path d="M111.54,158.46l-8.01,1.37l2.49,13.54l4.15-0.16l3.86-1.21L111.54,158.46z"/>
<path d="M103.54,159.83l-3.1-2.72l-1.88,2.44L103.54,159.83z"/>
<path d="M111.54,158.46l1.94-3.58l2.63,1.66L111.54,158.46z"/>
</g>
<g id="Trim_Heavy-Knee_Left" fill="rgb(85, 114, 92)">
<path d="M97.66,163.92l-0.44,1.08l1.58,8.58l0.62-0.11L97.66,163.92z"/>
<path d="M112.41,167.96l-6.28,1.07l0.62,3.35l6.29-1.08L112.41,167.96z"/>
<path d="M98.28,162.37l-0.88,0.15l2.02,10.95l1.02-0.18l-0.01-0.04l-0.02,0L98.28,162.37z"/>
<path d="M117.66,160.09l1.94,9.91l-0.18,0.06l1.03-0.18l-1.83-9.96L117.66,160.09z"/>
</g>
</g></g>
<g id="Right-Knee"><g id="Heavy_Knee_Right" class="option" style="display: inherit;">
<g id="Missiles_Heavy-Knee_Right" class="toggle" style="">
<path id="Base_Missiles_Heavy-Knee_Right" d="M51.24,160.1l-1.78,9.57l-2.09-1.68c-0.34-0.27-0.51-0.71-0.43-1.14 c0.21-1.3,0.68-4.13,0.92-5.62c0.09-0.56,0.57-0.98,1.14-1.01L51.24,160.1z" fill="rgb(87, 87, 87)"/>
<g id="Missile-2_Missiles_Heavy-Knee_Right" fill="rgb(171, 96, 96)">
<path d="M48.85,165.37c0.55,0.15,0.88,0.71,0.73,1.26c-0.15,0.55-0.72,0.88-1.28,0.73 c-0.55-0.15-0.88-0.71-0.73-1.26C47.73,165.55,48.3,165.22,48.85,165.37z"/>
<path d="M48.76,165.69c0.37,0.1,0.59,0.48,0.49,0.85c-0.1,0.37-0.49,0.59-0.86,0.49c-0.37-0.1-0.59-0.48-0.49-0.85 S48.38,165.6,48.76,165.69z"/>
</g>
<g id="Missile-1_Missiles_Heavy-Knee_Right" fill="rgb(140, 165, 165)">
<path d="M49.61,160.95c0.56,0.15,0.88,0.71,0.73,1.26c-0.15,0.55-0.73,0.88-1.28,0.73 c-0.55-0.15-0.88-0.71-0.73-1.26C48.49,161.13,49.06,160.8,49.61,160.95z"/>
<path d="M49.52,161.27c0.37,0.1,0.59,0.48,0.49,0.85c-0.1,0.37-0.49,0.59-0.86,0.49c-0.37-0.1-0.59-0.48-0.49-0.85 C48.76,161.39,49.14,161.17,49.52,161.27z"/>
</g>
</g>
<path id="Plate-2_Heavy-Knee_Right" d="M53.08,155.76l2.86-1.72l14.26,2.44l2.07,2.56l-2.79,14.21l-5.62,0.13 l-8.01-1.37l-5.57-2L53.08,155.76z" fill="rgb(79, 78, 78)"/>
<g id="Plate-1_Heavy-Knee_Right" fill="rgb(70, 84, 66)">
<path d="M53.77,156.54l2.63-1.66l13.05,2.23l1.88,2.44l-2.7,13.71l-4.78,0.12l-8.01-1.37l-4.78-1.75L53.77,156.54z"/>
<path d="M58.35,158.46l8.01,1.37l-2.49,13.54l-4.15-0.16l-3.86-1.21L58.35,158.46z"/>
<path d="M66.35,159.83l3.1-2.72l1.88,2.44L66.35,159.83z"/>
<path d="M58.35,158.46l-1.94-3.58l-2.63,1.66L58.35,158.46z"/>
</g>
<g id="Trim_Heavy-Knee_Right" fill="rgb(85, 114, 92)">
<path d="M72.23,163.92l0.44,1.08l-1.58,8.58l-0.62-0.11L72.23,163.92z"/>
<path d="M57.49,167.96l6.28,1.07l-0.62,3.35l-6.28-1.08L57.49,167.96z"/>
<path d="M71.61,162.37l0.88,0.15l-2.02,10.95l-1.03-0.18l0.01-0.04l0.02,0L71.61,162.37z"/>
<path d="M52.23,160.09L50.28,170l0.18,0.06l-1.03-0.18l1.83-9.96L52.23,160.09z"/>
</g>
</g></g>
</g>
<g id="KneesDecals" mask="url(#KneesMask)">
</g>
<g id="Thighs">
<g id="Left-Thigh"><g id="Basic_Thigh_Left" class="option" style="display: inherit;">
<path id="Thigh_Basic-Thigh_Left" d="M120.21,115.6c0,0-5.03-6.43-7.59-7.49c-2.43-1.01-5.69-0.58-7.78,1.09 c-3.19,2.54-10.51,8.04-11.35,14.16c-0.93,6.83,4.08,21.95,5.78,26.84c0.58,1.66,2.77,2.41,4.44,2.48 c3.1,0.12,11.57-0.15,13.59-4.69C120.05,141.81,120.21,115.6,120.21,115.6" fill="rgb(60, 60, 60)"/>
<path id="Trauma-Plate_Basic-Thigh_Left" class="toggle" style="" d="M118.5,116.19c-0.75-0.93-2.56-3.1-4.3-4.77 c-0.83-0.79-1.62-1.49-2.25-1.75c-1.9-0.79-4.44-0.45-6.06,0.85c-1.85,1.47-5.15,3.97-7.66,7.02c-1.52,1.85-2.77,3.9-3.07,6.05 c-0.9,6.64,4.05,21.31,5.7,26.06c0.14,0.42,0.54,0.67,0.95,0.87c0.61,0.3,1.33,0.45,1.94,0.47c1.73,0.07,5.27,0.02,8.23-0.96 c1.63-0.54,3.12-1.33,3.75-2.73c0.78-1.75,1.3-5.22,1.7-9.2C118.31,129.59,118.47,118.81,118.5,116.19" fill="rgb(85, 114, 92)"/>
<g id="Ridge_Basic-Thigh_Left" class="toggle" style="" fill="rgb(87, 105, 91)">
<path d="M111.72,107.57l-3.48-0.89l-3.64,1.99l1.18,44.01c2.4,0.46,2.43,0.55,4.54-0.08L111.72,107.57"/>
<path d="M108.28,106.69l-0.1,46.36"/>
</g>
</g>
</g>
<g id="Right-Thigh"><g id="Basic_Thigh_Right" class="option" style="display: inherit;">
<path id="Thigh_Basic-Thigh_Right" d="M49.69,115.6c0,0,5.03-6.43,7.59-7.49c2.43-1.01,5.69-0.58,7.78,1.09 c3.19,2.54,10.51,8.04,11.35,14.16c0.93,6.83-4.08,21.95-5.78,26.84c-0.58,1.66-2.77,2.41-4.44,2.48 c-3.1,0.12-11.57-0.15-13.59-4.69C49.85,141.81,49.69,115.6,49.69,115.6" fill="rgb(60, 60, 60)"/>
<path id="Trauma-Plate_Basic-Thigh_Right" class="toggle" style="" d="M51.39,116.19c0.75-0.93,2.56-3.1,4.3-4.77 c0.83-0.79,1.62-1.49,2.25-1.75c1.9-0.79,4.44-0.45,6.06,0.85c1.85,1.47,5.15,3.97,7.66,7.02c1.52,1.85,2.77,3.9,3.07,6.05 c0.9,6.64-4.05,21.31-5.7,26.06c-0.14,0.42-0.54,0.67-0.95,0.87c-0.61,0.3-1.33,0.45-1.94,0.47c-1.73,0.07-5.27,0.02-8.23-0.96 c-1.63-0.54-3.12-1.33-3.75-2.73c-0.78-1.75-1.3-5.22-1.7-9.2C51.59,129.59,51.42,118.81,51.39,116.19" fill="rgb(85, 114, 92)"/>
<g id="Ridge_Basic-Thigh_Right" class="toggle" style="" fill="rgb(87, 105, 91)">
<path d="M58.17,107.57l3.48-0.89l3.64,1.99l-1.18,44.01c-2.4,0.46-2.43,0.55-4.54-0.08L58.17,107.57"/>
<path d="M61.62,106.69l0.1,46.36"/>
</g>
</g>
</g>
</g>
<g id="ThighsDecals" mask="url(#ThighsMask)">
</g>
<g id="Groin"><g id="Basic_Groin" class="option" style="display: inherit;">
<path id="Groin-Plate_Basic" d="M78.67,122.29L68.22,99.4h33.42l-10.45,22.89l-6.26,5.46L78.67,122.29z" fill="rgb(73, 73, 73)"/>
<path id="Trauma-Plating_Groin" class="toggle" style="" d="M79.77,120.38l-8.61-18.86H98.7l-8.61,18.86l-5.16,4.49L79.77,120.38z" fill="rgb(85, 114, 92)"/>
</g>
</g>
<g id="GroinDecals" mask="url(#GroinMask)">
</g>
<g id="Waist">
<g id="Accessories_Waist">
<g id="Kama" class="toggle" style=""><g id="Tattered_Kama" class="option" style="display: inherit;">
<g id="Main_Kama-Tattered" fill="rgb(82, 95, 85)">
<path d="M111.48,81.04c2.28-0.5,3.36,12.05,4.7,18.11c0.61,2.75,0.69,5.53,1.41,8.28 c1.24,4.78,3.46,9.54,4.5,14.23c0.83,3.75,0.3,7.62,1.22,11.39c0.69,2.85,2.14,5.32,3.1,8.04c1.07,3.05,1.74,6.1,2.52,9.22 c0.47,1.91,1.03,3.74,1.65,5.61c0.21,0.63,0.39,1.27,0.55,1.91c0.05,0.2,0.1,0.39,0.14,0.59c0.03,0.12,0.17,0.44,0.08,0.36 c-0.65-0.57-1-1.65-1.61-2.32c-1.18-1.3-2.66-2.28-3.77-3.64c-0.43-0.53-0.77-1.11-1.07-1.72c-0.03-0.05-0.22-0.52-0.25-0.51 c-2.29,0.48-4.56,1.34-6.5-0.59c-1.54-1.53-2.87-4.83-3.66-6.88c-0.33-0.86,0.11-5.91-0.47-6.38c-0.43-0.35-0.83,4.2-1.35,3.89 c-3.28-1.93-7.95-3.08-7.95-3.08s-0.36-6.44-0.1-10.13c0.24-3.31-0.23-6.19-0.72-9.43c-0.63-4.19-0.56-8.5-0.27-12.71 C104.08,98.46,98.82,83.81,111.48,81.04z M118.99,143c-0.4,1.7-0.44,3.65,0.53,5.18c0.32,0.51,1.14,1.33,1.85,1.11 c2.99-0.92-0.68-5.5-1.63-6.52L118.99,143z M110.22,130.56c-0.54,0.33-1.01,0.71-1.4,1.21c-1.42,1.79,2.47,0.9,1.8-1.28 L110.22,130.56z"/>
<path d="M58.44,81.04c-2.28-0.5-3.36,12.05-4.7,18.11c-0.61,2.75-0.69,5.53-1.41,8.28 c-1.24,4.78-3.47,9.54-4.5,14.23c-0.83,3.75-0.3,7.62-1.22,11.39c-0.69,2.85-2.14,5.32-3.1,8.04c-1.07,3.05-1.74,6.1-2.52,9.22 c-0.47,1.91-1.03,3.74-1.65,5.61c-0.21,0.63-0.39,1.27-0.55,1.91c-0.05,0.2-0.1,0.39-0.14,0.59c-0.03,0.12-0.17,0.44-0.08,0.36 c0.65-0.57,1-1.65,1.61-2.32c1.18-1.3,3.01-0.24,4.13-1.6c0.43-0.53,1-1.77,1.31-2.38c0.03-0.05,0.81-1.55,0.84-1.55 c2.28,0.48,0.85,2.18,2.8,0.26c1.54-1.53,5.4-6.03,6.19-8.07c0.33-0.86-0.3-2.65,0.28-3.12c0.43-0.35,1.02,0.94,1.54,0.63 c3.28-1.93,7.36-5.54,7.36-5.54s0.95-3.98,0.69-7.67c-0.24-3.31,0.23-6.19,0.72-9.43c0.63-4.19,0.56-8.5,0.27-12.71 C65.84,98.46,71.1,83.81,58.44,81.04z M50.1,144.15c0.4,1.7,0.35,1.39-0.62,2.93c-0.32,0.51-0.22,2.43-0.93,2.21 c-2.99-0.92,0.67-5.5,1.63-6.52L50.1,144.15z M57.19,136.25c0.54,0.33,2.26-0.1,2.66,0.4c1.42,1.79-3.92,3.34-3.25,1.16 L57.19,136.25z"/>
</g>
</g>
</g>
<g id="Loin-Cloth" class="toggle" style=""><path id="Tattered_Loin-Cloth" class="option" d="M97.67,87.11c-0.07,2.63-0.2,5.26-0.01,7.89c0.17,2.31,0.64,4.68,0.62,7 c-0.02,1.83-0.58,3.58-0.71,5.39c-0.21,2.98,0.1,6.18,0.44,9.14c0.68,5.81-1.9,25.36-1.9,25.36l-5.23-4.74l-3.53,8.59l-2.96-5.51 l-2.68,4.43l-2.04-0.78l-1.4,5.97l-2.35-4.59l-1.5-4.99c0,0-0.42-2.44-1.3-6.72c-0.38-1.84-1.32-3.66-1.38-5.55 c-0.16-4.71,1.54-9.42,1.71-14.13c0.13-3.76-0.93-7.42-1.26-11.14c-0.29-3.24-0.8-8.41,1.47-11.09 C75.98,88.87,97.67,87.11,97.67,87.11z M81.13,135.73c-0.13,0.59-0.27,1.18-0.38,1.78c-0.06,0.36-0.12,0.73-0.14,1.1 c-0.03,0.5,0.02,1.05,0.23,1.51c0.02,0.04,0.34-0.13,0.37-0.15c0.35-0.23,0.6-0.57,0.72-0.97c0.3-0.93,0.48-2.63-0.41-3.34 L81.13,135.73z M94.48,129.13c-0.62,0.35-1.47,0.75-1.92,1.31c-0.34,0.42-0.58,0.86-0.68,1.39c-0.07,0.35-0.12,0.71-0.15,1.07 c-0.09,1.32,0.71,1.77,1.75,0.82C94.41,132.87,95.47,130.21,94.48,129.13z" fill="rgb(82, 95, 85)" style="display: inherit;"/>
</g>
<g id="Left-Holster" class="toggle" style=""><g id="Hanging-Holster_Left" class="option" style="display: inherit;">
<g id="Weapon_Hanging-Holster-Left">
<g id="Main_Weapon_Hanging-Holster-Left" fill="rgb(47, 43, 43)">
<path d="M117.12,122.65l0.17-3.6l0.62,0.03l0.11-2.26l-0.62-0.03l0.05-1.18c0.02-0.38,0.54-0.67,1.18-0.64 c1.45,0.07,3.93,0.18,5.38,0.25c0.63,0.03,1.13,0.36,1.11,0.75l-0.06,1.18l-0.62-0.03l-0.11,2.26l0.62,0.03l-0.17,3.6 l-1.47-0.07l-0.46,9.96l-4.74-0.22l0.46-9.96L117.12,122.65z"/>
<path d="M124.19,122.45l-0.84-0.04l-0.56,11.97l-4.74-0.22l0.56-11.98l-0.84-0.04l0.13-2.73l6.42,0.29 L124.19,122.45z"/>
<path d="M123.18,115.96l-3.8-0.17l-0.17,3.7l3.8,0.17L123.18,115.96z"/>
<path d="M119.65,123.32l-0.62-0.03l-0.44,9.41l0.62,0.03L119.65,123.32z"/>
<path d="M121.34,121.25l-0.62-0.03l-0.44,9.41l0.62,0.03L121.34,121.25z"/>
<path d="M122.83,123.47l-0.62-0.03l-0.44,9.41l0.62,0.03L122.83,123.47z"/>
</g>
<g id="Accent_Weapon_Hanging-Holster-Left" fill="rgb(124, 121, 121)">
<path d="M119.75,119.89l-0.02,0.38l2.68,0.12l0.02-0.38L119.75,119.89z"/>
<path d="M119.73,120.26l-0.02,0.38l2.68,0.12l0.02-0.38L119.73,120.26z"/>
<path d="M119.76,119.51l-0.02,0.38l2.68,0.12l0.02-0.38L119.76,119.51z"/>
<path d="M119.98,114.87l-0.02,0.38l2.68,0.12l0.02-0.38L119.98,114.87z"/>
<path d="M120,115.82l-0.62-0.03l-0.17,3.7l0.62,0.03L120,115.82z"/>
<path d="M123.18,115.96l-0.62-0.03l-0.17,3.7l0.62,0.03L123.18,115.96z"/>
<path d="M122.21,123.44l-0.95-0.04l-0.44,9.42l0.95,0.04L122.21,123.44z"/>
<path d="M120.6,123.36l-0.95-0.04l-0.44,9.41l0.95,0.04L120.6,123.36z"/>
</g>
</g>
<path id="Holster_Hanging-Holster-Left" d="M117.16,136.53l-0.76-15.17l7.05,11.42l-1.56,20.64 c-1.64,1.71-3.26,1.73-4.85-0.18L117.16,136.53z" fill="rgb(93, 55, 21)"/>
<g id="Straps_Hanging-Holster-Left" fill="rgb(98, 68, 41)">
<path d="M90.19,96.9c7.71,11,15.47,20.31,26.2,24.47l0.13,2.6c-13.34-5.59-20.49-15.06-28.38-27.07H90.19z"/>
<path d="M117.12,139.62c-7.21,5.49-15.01,8.47-24.34,8.98l0.67,2.06c8.08-0.73,15.62-3.7,23.68-8.87V139.62z"/>
<path d="M117.12,141.79l0.02-2.17c1.87,0.83,4.05,0.89,5.77,0.28l-0.17,2.21 C120.89,142.59,118.79,142.62,117.12,141.79z"/>
</g>
<g id="Buckle_Hanging-Holster-Left" fill="rgb(91, 90, 90)">
<path d="M100.26,148.49l-1.01,0.15l0.05,0.33l1.01-0.15L100.26,148.49"/>
<path d="M97.5,108l-0.7-0.92l-0.27,0.2l0.7,0.92L97.5,108"/>
<path d="M97.23,108.21l-1.15,0.92l-2.7-3.31l2.6-2.1l2.7,3.31L97.49,108l-0.58-0.76l0.58-0.47l-1.49-1.83 l-1.43,1.15l1.49,1.83l0.59-0.47L97.23,108.21"/>
<path d="M100.22,148.49l-0.8,0.12l-0.12-0.78l-1.94,0.41l0.27,1.81l1.94-0.41l-0.1-0.7l0.8-0.12l0.21,1.39 l-3.52,0.75l-0.49-3.28l3.52-0.75L100.22,148.49"/>
</g>
</g></g>
<g id="Right-Holster" class="toggle" style=""><g id="Hanging-Holster_Right" class="option" style="display: inherit;">
<g id="Weapon_Hanging-Holster-Right">
<g id="Main_Weapon_Hanging-Holster-Right" fill="rgb(47, 43, 43)">
<path d="M52.77,122.65l-0.17-3.6l-0.62,0.03l-0.11-2.26l0.62-0.03l-0.05-1.18c-0.02-0.38-0.54-0.67-1.18-0.64 c-1.45,0.07-3.93,0.18-5.38,0.25c-0.63,0.03-1.13,0.36-1.11,0.75l0.06,1.18l0.62-0.03l0.11,2.26l-0.62,0.03l0.17,3.6 l1.47-0.07l0.46,9.96l4.74-0.22l-0.46-9.96L52.77,122.65z"/>
<path d="M45.7,122.45l0.84-0.04l0.56,11.97l4.74-0.22l-0.56-11.98l0.84-0.04L52,119.42l-6.42,0.29L45.7,122.45z"/>
<path d="M46.72,115.96l3.8-0.17l0.17,3.7l-3.8,0.17L46.72,115.96z"/>
<path d="M50.24,123.32l0.62-0.03l0.44,9.41l-0.62,0.03L50.24,123.32z"/>
<path d="M48.55,121.25l0.62-0.03l0.44,9.41l-0.62,0.03L48.55,121.25z"/>
<path d="M47.06,123.47l0.62-0.03l0.44,9.41l-0.62,0.03L47.06,123.47z"/>
</g>
<g id="Accent_Weapon_Hanging-Holster-Right" fill="rgb(124, 121, 121)">
<path d="M50.15,119.89l0.02,0.38l-2.68,0.12l-0.02-0.38L50.15,119.89z"/>
<path d="M50.16,120.26l0.02,0.38l-2.68,0.12l-0.02-0.38L50.16,120.26z"/>
<path d="M50.13,119.51l0.02,0.38l-2.68,0.12l-0.02-0.38L50.13,119.51z"/>
<path d="M49.91,114.87l0.02,0.38l-2.68,0.12L47.23,115L49.91,114.87z"/>
<path d="M49.89,115.82l0.62-0.03l0.17,3.7l-0.62,0.03L49.89,115.82z"/>
<path d="M46.72,115.96l0.62-0.03l0.17,3.7l-0.62,0.03L46.72,115.96z"/>
<path d="M47.69,123.44l0.95-0.04l0.44,9.42l-0.95,0.04L47.69,123.44z"/>
<path d="M49.29,123.36l0.95-0.04l0.44,9.41l-0.95,0.04L49.29,123.36z"/>
</g>
</g>
<path id="Holster_Hanging-Holster-Right" d="M52.74,136.53l0.76-15.17l-7.05,11.42l1.56,20.64 c1.64,1.71,3.26,1.73,4.85-0.18L52.74,136.53z" fill="rgb(93, 55, 21)"/>
<g id="Straps_Hanging-Holster-Right" fill="rgb(98, 68, 41)">
<path d="M79.7,96.9c-7.71,11-15.47,20.31-26.2,24.47l-0.13,2.6c13.34-5.59,20.49-15.06,28.38-27.07H79.7z"/>
<path d="M52.78,139.62c7.21,5.49,15.01,8.47,24.34,8.98l-0.67,2.06c-8.08-0.73-15.62-3.7-23.68-8.87V139.62z"/>
<path d="M52.78,141.79l-0.02-2.17c-1.87,0.83-4.05,0.89-5.77,0.28l0.17,2.21C49,142.59,51.1,142.62,52.78,141.79z"/>
</g>
<g id="Buckle_Hanging-Holster-Right" fill="rgb(91, 90, 90)">
<path d="M69.64,148.49l1.01,0.15l-0.05,0.33l-1.01-0.15L69.64,148.49"/>
<path d="M72.39,108l0.7-0.92l0.27,0.2l-0.7,0.92L72.39,108"/>
<path d="M72.66,108.21l1.15,0.92l2.7-3.31l-2.6-2.1l-2.7,3.31L72.4,108l0.58-0.76l-0.58-0.47l1.49-1.83l1.43,1.15 l-1.49,1.83l-0.59-0.47L72.66,108.21"/>
<path d="M69.67,148.49l0.8,0.12l0.12-0.78l1.94,0.41l-0.27,1.81l-1.94-0.41l0.1-0.7l-0.8-0.12l-0.21,1.39 l3.52,0.75l0.49-3.28l-3.52-0.75L69.67,148.49"/>
</g>
</g></g>
<g id="Left-Trophy" class="toggle" style="display:none"/>
<g id="Right-Trophy" class="toggle" style="display:none"/>
</g>
<g id="Under-Belt">
<g id="Sash" class="option" fill="rgb(82, 95, 85)" style="display: inherit;">
<path d="M56.68,79.7c2.57-0.54,6.55,1.03,9.91,1.3c3.6,0.29,7.2,0.03,10.79,0.27c2.1,0.14,4.17,0.66,6.25,0.94 c4.01,0.53,8.02,0.25,12.02-0.26c1.05-0.14,2.13-0.16,3.17-0.37c2.62-0.54,6.03-1.14,8.28-2.19c2-0.5,4.01-0.58,5.89-0.12 c1.91,0.47,0.57,4.25,0.66,5.8c0.09,1.64,1.27,8.06,1.98,9.56c0.78,1.66,1.4,3.47-0.88,4.56c-1.91,0.91-3.95,0.09-5.89-0.17 c-2.29-0.3-4.57-0.15-6.83,0.29c-2.77,0.54-5.51,1.53-8.33,1.79c-3.78,0.35-7.58-0.34-11.36-0.29c-2.17,0.03-4.26,0.73-6.43,0.56 c-3.64-0.29-6.95-1.77-10.48-2.11c-1.78-0.17-3.55,0.23-5.32,0.24c-1.22,0-2.36-0.33-3.54-0.62c-1.17-0.28-2.27-0.17-2.91-1.27 c-0.48-0.83,0.54-3.07,1.03-3.78c1.26-1.81,1.6-8.21,1.14-10.26C55.43,81.83,54.9,80.08,56.68,79.7z"/>
<path d="M54.09,94.91c4.02-0.01,7.54-0.09,11.16,1.3c12.27,4.7,11.99,4.06,17.21,4.59 c7.68,0.78,10.74,0.49,13.92-0.22c1.28-0.29,2.57-0.7,3.72-1.28c2.04-1.03,4.03-2.09,5.85-3.53c2.21-1.75,6.07-2.92,9.17-2.78 c0,0-0.6-2.02-1.46-7.99c-0.22-1.55,0.76-3.24-0.01-5.33c-0.33-0.9-3.38-0.65-5.45-0.49c-4.09,0.33-5.9,3.28-9.05,5.62 c-1.84,1.37-4.02,2.99-6.74,3.86c-4.28,1.38-10.94,2.01-23.58-2.18c-4.12-1.36-7.61-3.95-13.05-3.12c0,0,0.2,2.78,0.2,4.17 C55.98,92,54.09,94.91,54.09,94.91z"/>
</g></g>
<g id="Belt"><g id="Pouch-Belt-6" class="option" style="display: inherit;">
<path id="Main_Pouch-Belt-6" d="M115.21,92.95c-6.82,0.61-22.4,2.83-30.27,2.83c-7.94,0-23.52-2.23-30.26-2.82 l1.01-7.93c5.53,0.49,21.56,2.74,29.26,2.74c7.47,0,23.17-2.23,29.07-2.76L115.21,92.95z" fill="rgb(42, 42, 42)"/>
<rect id="Buckle_Pouch-Belt-6" x="79.37" y="87.01" width="11.28" height="9.21" fill="rgb(83, 83, 83)"/>
<g id="Pouches_Pouch-Belt-6" fill="rgb(132, 106, 83)">
<g>
<g>
<g>
<path d="M70.81,84.98c-0.29-0.02-0.58,0.03-0.84,0.13c-0.71,0.28-2.1,0.82-2.1,0.82l8.08,0.46l2.19-0.94 C78.13,85.46,72.44,85.09,70.81,84.98z"/>
<path d="M78.41,85.73c0.01-0.08-0.03-0.17-0.1-0.22c-0.07-0.05-0.16-0.06-0.24-0.03 c-0.7,0.3-2.14,0.91-2.14,0.91l-1.05,12.41c0.72-0.42,1.44-0.69,2.15-0.84c0.41-0.08,0.7-0.43,0.71-0.85 C77.88,93.32,78.03,89.51,78.41,85.73z"/>
<path d="M75.94,86.4l-8.08-0.46c-0.05,1.89-0.23,3.77-0.33,5.65c-0.11,2.08-0.15,4.18-0.34,6.28 c-0.01,0.15,0.04,0.3,0.14,0.41c0.1,0.11,0.25,0.18,0.4,0.18c2.32-0.01,4.63,0.13,6.93,0.4c0.14,0.02,0.29-0.02,0.4-0.12 c0.11-0.09,0.18-0.22,0.19-0.37c0.1-1.47,0.37-5.34,0.37-5.34L75.94,86.4z"/>
<path d="M75.94,86.4l-8.08-0.46c0,0-0.19,1.59-0.38,3.14c-0.09,0.75,0.13,1.51,0.62,2.09 c0.49,0.58,1.2,0.94,1.96,0.98c0.96,0.06,2.01,0.12,2.97,0.17c0.76,0.04,1.51-0.23,2.07-0.75c0.55-0.52,0.86-1.25,0.86-2.01 C75.95,87.99,75.94,86.4,75.94,86.4z"/>
<path d="M71.64,90.75c0.29,0.02,0.51,0.26,0.49,0.55c-0.02,0.28-0.26,0.5-0.55,0.49 c-0.29-0.02-0.51-0.26-0.49-0.55C71.11,90.96,71.36,90.74,71.64,90.75z"/>
</g>
</g>
<g>
<g>
<path d="M59.65,83.47c-0.31-0.02-0.62,0.03-0.91,0.16c-0.67,0.29-1.86,0.81-1.86,0.81l7.38,0.42l2-0.95 C66.26,83.91,61.24,83.57,59.65,83.47z"/>
<path d="M66.52,84.19c0.01-0.09-0.03-0.17-0.1-0.22c-0.07-0.05-0.17-0.06-0.24-0.02 c-0.66,0.31-1.91,0.9-1.91,0.9l-1.02,12.42c0.65-0.41,1.29-0.68,1.93-0.85c0.39-0.09,0.68-0.44,0.69-0.84 C65.99,91.78,66.15,87.98,66.52,84.19z"/>
<path d="M64.26,84.85l-7.38-0.42c-0.06,1.89-0.23,3.77-0.33,5.65c-0.11,2.08-0.16,4.17-0.34,6.28 c-0.01,0.15,0.04,0.3,0.14,0.41s0.25,0.18,0.4,0.17c2.08-0.01,4.15,0.11,6.22,0.36c0.14,0.02,0.29-0.02,0.4-0.12 c0.11-0.09,0.18-0.23,0.19-0.37c0.1-1.47,0.37-5.33,0.37-5.33L64.26,84.85z"/>
<path d="M64.26,84.85l-7.38-0.42c0,0-0.18,1.6-0.36,3.15c-0.09,0.75,0.14,1.51,0.63,2.08 c0.49,0.58,1.2,0.93,1.96,0.97c0.73,0.04,1.51,0.08,2.23,0.13c0.76,0.04,1.51-0.23,2.06-0.75c0.55-0.52,0.87-1.25,0.86-2 C64.26,86.46,64.26,84.85,64.26,84.85z"/>
<path d="M60.31,89.23c0.26,0.01,0.46,0.26,0.44,0.54c-0.02,0.28-0.24,0.5-0.5,0.49 c-0.26-0.01-0.46-0.26-0.44-0.54C59.83,89.44,60.05,89.22,60.31,89.23z"/>
</g>
</g>
<g>
<path d="M52.22,84.29l0.55-0.85l2.83,0.09l0.35,1.06L52.22,84.29z"/>
<path d="M55.93,84.69c0.01-0.07-0.01-0.13-0.06-0.18c-0.04-0.05-0.11-0.08-0.17-0.08 c-0.85-0.03-3.48-0.13-3.48-0.13l-0.5,11.17c0.11,0.28,1.53,0.46,2.68,0.49c0.5,0.01,0.91-0.38,0.92-0.88 C55.4,91.61,55.53,88.14,55.93,84.69z"/>
</g>
</g>
<g>
<g>
<g>
<path d="M99.08,84.98c0.29-0.02,0.58,0.03,0.85,0.13c0.71,0.28,2.1,0.82,2.1,0.82l-8.08,0.46l-2.19-0.94 C91.76,85.46,97.45,85.09,99.08,84.98z"/>
<path d="M91.48,85.73c-0.01-0.08,0.03-0.17,0.1-0.22c0.07-0.05,0.16-0.06,0.24-0.03c0.7,0.3,2.14,0.91,2.14,0.91 L95,98.81c-0.72-0.42-1.44-0.69-2.15-0.84c-0.41-0.08-0.7-0.43-0.71-0.85C92.01,93.32,91.86,89.51,91.48,85.73z"/>
<path d="M93.95,86.4l8.08-0.46c0.05,1.89,0.23,3.77,0.33,5.65c0.11,2.08,0.15,4.18,0.34,6.28 c0.01,0.15-0.04,0.3-0.14,0.41c-0.1,0.11-0.25,0.18-0.4,0.18c-2.32-0.01-4.63,0.13-6.93,0.4c-0.14,0.02-0.29-0.02-0.4-0.12 c-0.11-0.09-0.18-0.22-0.19-0.37c-0.1-1.47-0.37-5.34-0.37-5.34L93.95,86.4z"/>
<path d="M93.95,86.4l8.08-0.46c0,0,0.19,1.59,0.38,3.14c0.09,0.75-0.14,1.51-0.62,2.09 c-0.49,0.58-1.2,0.94-1.96,0.98c-0.96,0.06-2.01,0.12-2.97,0.17c-0.76,0.04-1.51-0.23-2.06-0.75 c-0.55-0.52-0.87-1.25-0.86-2.01C93.94,87.99,93.95,86.4,93.95,86.4z"/>
<path d="M98.25,90.75c-0.29,0.02-0.51,0.26-0.49,0.55c0.02,0.28,0.26,0.5,0.55,0.49 c0.29-0.02,0.51-0.26,0.49-0.55C98.78,90.96,98.54,90.74,98.25,90.75z"/>
</g>
</g>
<g>
<g>
<path d="M110.24,83.47c0.31-0.02,0.62,0.03,0.91,0.16c0.67,0.29,1.86,0.81,1.86,0.81l-7.38,0.42l-2-0.95 C103.63,83.91,108.65,83.57,110.24,83.47z"/>
<path d="M103.37,84.19c-0.01-0.09,0.03-0.17,0.1-0.22c0.07-0.05,0.17-0.06,0.24-0.02 c0.66,0.31,1.91,0.9,1.91,0.9l1.02,12.42c-0.65-0.41-1.29-0.68-1.93-0.85c-0.39-0.09-0.68-0.44-0.69-0.84 C103.9,91.78,103.74,87.98,103.37,84.19z"/>
<path d="M105.63,84.85l7.38-0.42c0.06,1.89,0.23,3.77,0.33,5.65c0.11,2.08,0.16,4.17,0.34,6.28 c0.01,0.15-0.04,0.3-0.14,0.41c-0.1,0.11-0.25,0.18-0.4,0.17c-2.08-0.01-4.15,0.11-6.22,0.36c-0.14,0.02-0.29-0.02-0.4-0.12 c-0.11-0.09-0.18-0.23-0.19-0.37c-0.1-1.47-0.37-5.33-0.37-5.33L105.63,84.85z"/>
<path d="M105.63,84.85l7.38-0.42c0,0,0.18,1.6,0.36,3.15c0.09,0.75-0.14,1.51-0.63,2.08 c-0.49,0.58-1.2,0.93-1.96,0.97c-0.72,0.04-1.5,0.08-2.23,0.13c-0.76,0.04-1.51-0.23-2.06-0.75c-0.55-0.52-0.87-1.25-0.86-2 C105.63,86.46,105.63,84.85,105.63,84.85z"/>
<path d="M109.58,89.23c-0.26,0.01-0.46,0.26-0.44,0.54c0.02,0.28,0.24,0.5,0.5,0.49 c0.26-0.01,0.46-0.26,0.44-0.54C110.07,89.44,109.84,89.22,109.58,89.23z"/>
</g>
</g>
<g>
<path d="M117.67,84.29l-0.55-0.85l-2.83,0.09l-0.35,1.06L117.67,84.29z"/>
<path d="M113.96,84.69c-0.01-0.07,0.01-0.13,0.06-0.18c0.04-0.05,0.11-0.08,0.18-0.08 c0.85-0.03,3.48-0.13,3.48-0.13l0.5,11.17c-0.11,0.28-1.53,0.46-2.68,0.49c-0.5,0.01-0.91-0.38-0.92-0.88 C114.49,91.61,114.36,88.14,113.96,84.69z"/>
</g>
</g>
</g>
</g></g>
</g>
<g id="WaistDecals" mask="url(#WaistMask)">
</g>
<g id="Extras_Front">
<g id="Front"><g id="None_Front" class="option" style="display: inherit;">
</g>
</g>
</g>
<g id="Extras-FrontDecals" mask="url(#FrontMask)">
</g>
</g>
</svg>