<?xml version='1.0' encoding='UTF-8'?>
<svg version="1.1" id="Male-Body" xmlns="http://www.w3.org/2000/svg" xmlns:serif="http://www.serif.com/" viewBox="0 -55 170 300" style="stroke-width: 0.2px; fill-rule: evenodd; stroke-linejoin: round;" width="170" height="300">
<style>
mask {
mask-type: alpha;
}
.decal {
stroke: none;
}
</style>
<defs id="Masks" stroke="none">
<mask id="HelmetsMask"> <use href="#Helmets"/> </mask>
<mask id="CollarMask"> <use href="#Collar"/> </mask>
<mask id="ShouldersMask"> <use href="#Shoulders"/> </mask>
<mask id="ChestMask"> <use href="#Chest"/> </mask>
<mask id="BicepsMask"> <use href="#Biceps"/> </mask>
<mask id="GauntletsMask"> <use href="#Gauntlets"/> </mask>
<mask id="WaistMask"> <use href="#Waist"/> </mask>
<mask id="GroinMask"> <use href="#Groin"/> </mask>
<mask id="ThighsMask"> <use href="#Thighs"/> </mask>
<mask id="KneesMask"> <use href="#Knees"/> </mask>
<mask id="ShinsMask"> <use href="#Shins"/> </mask>
<mask id="FootMask"> <use href="#Foot"/> </mask>
</defs>
<defs id="Decals"/><metadata><rdf:rdf xmlns:rdf="http://www.w3.org/1999/02/22-rdf-syntax-ns#" xmlns:rdfs="http://www.w3.org/2000/01/rdf-schema#" xmlns:dc="http://purl.org/dc/elements/1.1/"><rdf:description><dc:creator>MandoCreator</dc:creator><dc:publisher>https://www.mandocreator.com</dc:publisher><dc:description>Your Beskar'gam - created by MandoCreator</dc:description><dc:format>image/svg+xml</dc:format><dc:type>Image</dc:type><dc:title>MandoCreator - Ner Berskar'gam</dc:title><dc:date>2022-01-02T16:21:17.706Z</dc:date></rdf:description></rdf:rdf></metadata><g id="Main-Body" fill="white" stroke="black">
<g id="Extras_Back">
<g id="Back"><g id="NO-CAPES_Back" class="option" style="display: inherit;">
</g>
</g>
</g>
<g id="Extras-BackDecals" mask="url(#BackMask)">
</g>
<g id="Suit">
<g id="Neck-Seal"><g id="Standard-Neck-Seal" class="option" fill="rgb(25, 30, 33)" style="display: inherit;">
<path d="M98.75,7.5c0-0.9-0.93-1.62-2.07-1.62c0,0-7.8,0.85-11.7,0.85s-11.7-0.85-11.7-0.85 c-1.14,0-2.07,0.73-2.07,1.62s0.93,1.62,2.07,1.62c0,0,7.8,0.85,11.7,0.85s11.7-0.85,11.7-0.85C97.83,9.13,98.75,8.4,98.75,7.5z"/>
<path d="M99.45,9.4c0-0.94-0.97-1.71-2.17-1.71c0,0-8.2,0.9-12.29,0.9S72.69,7.7,72.69,7.7 c-1.2,0-2.17,0.76-2.17,1.71s0.97,1.71,2.17,1.71c0,0,8.2,0.9,12.29,0.9s12.29-0.9,12.29-0.9C98.48,11.11,99.45,10.34,99.45,9.4z "/>
<path d="M100.24,11.76c0-0.99-1.03-1.8-2.29-1.8c0,0-8.64,0.95-12.96,0.95S72.02,9.96,72.02,9.96 c-1.26,0-2.29,0.81-2.29,1.8s1.03,1.8,2.29,1.8c0,0,8.64,0.95,12.97,0.95s12.96-0.95,12.96-0.95 C99.21,13.56,100.24,12.75,100.24,11.76z"/>
<path d="M101,13.92c0-1.04-1.08-1.89-2.41-1.89c0,0-9.08,0.99-13.61,0.99s-13.61-0.99-13.61-0.99 c-1.33,0-2.41,0.85-2.41,1.89c0,1.04,1.08,1.89,2.41,1.89c0,0,9.08,0.99,13.61,0.99s13.61-0.99,13.61-0.99 C99.93,15.81,101,14.96,101,13.92z"/>
<path d="M101.76,16.04c0-0.79-1.13-1.43-2.52-1.43c0,0-9.51,0.75-14.26,0.75s-14.26-0.75-14.26-0.75 c-1.39,0-2.52,0.64-2.52,1.43c0,0.79,1.13,1.43,2.52,1.43c0,0,9.51,0.75,14.26,0.75s14.26-0.75,14.26-0.75 C100.63,17.47,101.76,16.83,101.76,16.04z"/>
<path d="M101.76,18.42c0-0.79-1.13-1.43-2.52-1.43c0,0-9.51,0.75-14.26,0.75s-14.26-0.75-14.26-0.75 c-1.39,0-2.52,0.64-2.52,1.43c0,0.79,1.13,1.43,2.52,1.43c0,0,9.51,1.44,14.26,1.44s14.26-1.44,14.26-1.44 C100.63,19.84,101.76,19.21,101.76,18.42z"/>
</g>
</g>
<g id="Flight-Suit" fill="rgb(53, 56, 58)">
<path d="M73.36,158.45l-1.49,8.72l-11.03,53.11c0,0-4.93,2.96-7.47,3.46c-2.53,0.5-7.73-0.44-7.73-0.44l3.85-43 l2.9-18.36l0.66-7.82c0,0-2.53-22.78-1.7-34.14c0.82-11.36,6.66-34.01,6.66-34.01l26.98,0.58l26.97-0.58 c0,0,5.83,22.66,6.66,34.01c0.83,11.36-1.7,34.14-1.7,34.14l0.66,7.82l2.9,18.36l3.85,43c0,0-5.32,1.19-7.85,0.69 c-2.53-0.5-7.34-3.71-7.34-3.71L98.1,167.16l-1.49-8.72l-11.62-30.33L73.36,158.45z"/>
<g>
<path d="M129.41,43.33l11.98,41.65l1.04,21.47l-9.55,1.83l-6.05-20.21l-13.65-33.95l0.69-15.55l2.31-3.72 L129.41,43.33z"/>
<path d="M40.59,43.3l13.19-8.45l2.31,3.72l0.52,16.04L43.17,88.07l-6.05,20.21l-9.55-1.83l1.03-21.47L40.59,43.3z"/>
</g>
</g>
<g id="Sleeves" class="toggle" fill="rgb(25, 30, 33)">
<g>
<path d="M112.2,56.12l2.68,5.9c0,0,4.24-3.2,7.06-4.8s4.38-2.62,6.92-3.6c2.54-0.98,5.08-1.47,5.08-1.47l-6.07-12.25 l-5.79-9.67l-11.58,5.14L112.2,56.12z"/>
<path d="M113.61,59.24c-0.2-0.24,5.08-4.5,8.61-6.34c3.53-1.84,10.25-3.69,10.25-3.69"/>
</g>
<g>
<path d="M57.8,56.12l-2.68,5.9c0,0-4.24-3.2-7.06-4.8c-2.82-1.59-4.38-2.62-6.92-3.6c-2.54-0.98-5.08-1.47-5.08-1.47 l6.07-12.25l5.79-9.67l11.58,5.14L57.8,56.12z"/>
<path d="M56.39,59.24c0.2-0.24-5.08-4.5-8.61-6.34c-3.53-1.84-10.25-3.69-10.25-3.69"/>
</g>
</g>
</g>
<g id="Boots"><g id="Basic_Boots" class="option" style="display: inherit;">
<g id="Main_Basic-Boot" fill="rgb(44, 42, 42)">
<path d="M109.1,216.81c1.46,0.01,3.24,0.93,4.53,1.15c1.38,0.23,2.88,0.21,4.34,0.07l0.59-0.06l0.02,0l0.07-0.01 l0.19-0.03l0.3-0.04l0.12-0.02c0.35-0.05,0.68-0.1,1.01-0.16l0.53-0.1l0.11-0.03l0.04-0.01l0.08-0.02l0.36-0.09l0.32-0.09 l0.05-0.01c1.12-0.3,2.24-0.66,2.24-0.66c0.33,1.45,0.5,3.11,1.12,4.46c0.99,2.13,0.95,3.05,2.61,4.66 c1.14,1.1,4.08,3.05,5.44,3.89c0.57,0.36,1.19,0.63,1.81,0.86l0.06,0.02c2.5,0.93,5.2,1.28,6.56,4.03c0.3,0.6,0.55,1.32,0.5,2 c-0.06,0.87-1.02,0.99-1.76,1.2c-1.84,0.52-3.43,0.92-5.56,1.39c-2.43,0.54-4.63,0.88-7.1,0.81c-1.84-0.05-3.41-0.13-5.03-1.1 c-0.65-0.39-1.32-0.79-1.89-1.3c-1.27-1.15-2.09-2.36-3.71-3.04c-1.18-0.5-2.39-0.91-3.63-1.2c-1.76-0.42-4.34-1-5.28-2.74 c-0.37-1.3,0.01-1.94,0.13-3.06l0.06-0.48c0.1-0.73,0.23-1.48,0.26-2.26c0.08-1.51-0.3-3.01-0.4-4.51 c-0.06-0.85-0.1-1.71-0.11-2.56c0-0.14-0.08-0.75,0.06-0.8c0.19-0.08,0.4-0.12,0.62-0.14L109.1,216.81z"/>
<path d="M60.93,216.81c-1.46,0.01-3.24,0.93-4.53,1.15c-1.38,0.23-2.88,0.21-4.34,0.07l-0.59-0.06l-0.02,0 l-0.07-0.01l-0.19-0.03l-0.3-0.04l-0.12-0.02c-0.34-0.05-0.68-0.1-1.01-0.16l-0.53-0.1l-0.11-0.03l-0.04-0.01l-0.08-0.02 l-0.36-0.09l-0.32-0.09l-0.05-0.01c-1.12-0.3-2.24-0.66-2.24-0.66c-0.33,1.45-0.5,3.11-1.12,4.46c-0.99,2.13-0.95,3.05-2.6,4.66 c-1.14,1.1-4.08,3.05-5.44,3.89c-0.57,0.36-1.19,0.63-1.81,0.86l-0.06,0.02c-2.5,0.93-5.2,1.28-6.56,4.03 c-0.3,0.6-0.55,1.32-0.5,2c0.06,0.87,1.02,0.99,1.76,1.2c1.84,0.52,3.43,0.92,5.56,1.39c2.43,0.54,4.63,0.88,7.1,0.81 c1.84-0.05,3.41-0.13,5.03-1.1c0.65-0.39,1.32-0.79,1.89-1.3c1.27-1.15,2.09-2.36,3.72-3.04c1.18-0.5,2.39-0.91,3.63-1.2 c1.76-0.42,4.33-1,5.28-2.74c0.37-1.3-0.01-1.94-0.13-3.06l-0.06-0.48c-0.1-0.73-0.23-1.48-0.26-2.26 c-0.08-1.51,0.3-3.01,0.4-4.51c0.06-0.85,0.1-1.71,0.11-2.56c0-0.14,0.08-0.75-0.06-0.8c-0.19-0.08-0.4-0.12-0.62-0.14 L60.93,216.81z"/>
</g>
<g id="Bottom_Basic-Boot" fill="rgb(31, 27, 27)">
<path d="M108.15,230.64c0.47,0.87,1.35,1.44,2.33,1.86c0.89,0.45,1.95,0.64,2.96,0.88c0.14,0.03,0.27,0.07,0.41,0.1 c0.2,0.05,0.4,0.11,0.6,0.16c0.06,0.02,0.12,0.04,0.18,0.05l0.1,0.03c0.07,0.02,0.13,0.04,0.19,0.06 c0.03,0.01,0.06,0.02,0.08,0.03c0.11,0.04,0.22,0.07,0.33,0.11c0.04,0.01,0.08,0.03,0.12,0.04l0.06,0.02 c0.17,0.06,0.33,0.12,0.5,0.18c0.04,0.01,0.07,0.03,0.11,0.04c0.15,0.06,0.3,0.11,0.45,0.17l0.12,0.05 c0.09,0.04,0.18,0.07,0.27,0.11c0.04,0.02,0.08,0.03,0.12,0.05c0.27,0.11,0.51,0.24,0.74,0.38l0.03,0.02 c0.02,0.01,0.04,0.02,0.05,0.03c0.07,0.04,0.14,0.09,0.21,0.14l0.05,0.03c0.01,0.01,0.03,0.02,0.04,0.03 c0.07,0.05,0.14,0.1,0.2,0.15l0.06,0.04l0.09,0.07c0.28,0.23,0.54,0.47,0.8,0.73l0.07,0.07c0.14,0.14,0.28,0.28,0.42,0.43 c0.15,0.15,0.29,0.3,0.45,0.45c0.15,0.15,0.31,0.31,0.48,0.46l0.06,0.05c0.05,0.04,0.1,0.09,0.15,0.13 c0.01,0.01,0.02,0.01,0.03,0.02c0.08,0.07,0.17,0.13,0.25,0.2c0.06,0.04,0.11,0.09,0.17,0.13l0.03,0.02 c0.07,0.05,0.15,0.1,0.22,0.15c0.03,0.02,0.06,0.04,0.09,0.06c0.11,0.07,0.22,0.14,0.33,0.21c0.08,0.05,0.15,0.09,0.23,0.14 l0.09,0.06l0.25,0.15l0.11,0.07l0.08,0.04l0.08,0.04c0.11,0.06,0.22,0.12,0.34,0.17c0.05,0.02,0.11,0.05,0.16,0.07l0.05,0.02 c0.34,0.15,0.68,0.26,1.02,0.35l0.06,0.01l0.08,0.02c0.03,0.01,0.05,0.01,0.07,0.02c0.07,0.02,0.14,0.03,0.21,0.04 c0.05,0.01,0.11,0.02,0.16,0.03l0.13,0.02l0.04,0.01c0.04,0.01,0.07,0.01,0.11,0.02c0.06,0.01,0.12,0.02,0.18,0.02 c0.09,0.01,0.17,0.02,0.26,0.03c0.02,0,0.04,0,0.07,0.01c0.21,0.02,0.43,0.04,0.65,0.05c0.12,0.01,0.24,0.01,0.36,0.02l0.11,0 c0.23,0.01,0.46,0.02,0.7,0.02c0.15,0,0.31,0.01,0.46,0.01c0.06,0,0.11,0,0.17,0c0.08,0,0.16,0,0.23,0c0.06,0,0.11,0,0.17,0 l0.06,0c0.28-0.01,0.56-0.02,0.83-0.03c0.04,0,0.08,0,0.12-0.01l0.11-0.01c0.03,0,0.07-0.01,0.1-0.01 c0.4-0.03,0.81-0.07,1.21-0.11l0.11-0.01c0.1-0.01,0.2-0.02,0.3-0.04c0.04-0.01,0.09-0.01,0.13-0.02l0.11-0.01 c0.08-0.01,0.17-0.02,0.25-0.04c0.35-0.05,0.7-0.11,1.06-0.18c0.08-0.01,0.16-0.03,0.24-0.04l0.1-0.02 c0.04-0.01,0.07-0.01,0.11-0.02l0.11-0.02c0.04-0.01,0.07-0.01,0.11-0.02l0.08-0.02c0.09-0.02,0.17-0.04,0.26-0.05l0.11-0.02 c0.1-0.02,0.2-0.04,0.3-0.07c0.09-0.02,0.18-0.04,0.26-0.06l0.03,0c0.56-0.12,1.08-0.24,1.58-0.36l0.19-0.04 c0.14-0.03,0.28-0.07,0.42-0.1l0.17-0.04l0.08-0.02c0.2-0.05,0.39-0.1,0.58-0.15c0.12-0.03,0.23-0.06,0.35-0.09 c0.33-0.09,0.67-0.17,1-0.26l0.15-0.04c0.06-0.01,0.11-0.03,0.17-0.04l0.06-0.02c0.26-0.07,0.52-0.14,0.79-0.22l0.06-0.02 l0.09-0.02l0.28-0.07l0.09-0.03l0.14-0.04l0.06-0.02l0.11-0.04l0.1-0.03l0.04-0.02l0.05-0.02l0.03-0.01l0.05-0.02l0.05-0.03 l0.02-0.01l0.05-0.03l0.06-0.04l0.06-0.04l0.05-0.04c0.09-0.07,0.16-0.15,0.22-0.24l0,0c0,0,0.49,0.73,0.53,1.99 c-1.1,1.59-4.6,2.12-9.43,2.76c-4.8,0.64-7.76,0.51-9.77-0.35c-2.01-0.86-5.53-4.94-8.05-5.15c-2.52-0.22-5.5-1.54-6.72-2.26 c-0.64-0.37-0.45-3-0.45-3L108.15,230.64z"/>
<path d="M61.87,230.64c-0.47,0.87-1.35,1.44-2.33,1.86c-0.89,0.45-1.95,0.64-2.95,0.88 c-0.14,0.03-0.27,0.07-0.41,0.1c-0.2,0.05-0.4,0.11-0.6,0.16c-0.06,0.02-0.12,0.04-0.18,0.05l-0.1,0.03 c-0.07,0.02-0.13,0.04-0.19,0.06c-0.03,0.01-0.06,0.02-0.08,0.03c-0.11,0.04-0.22,0.07-0.33,0.11c-0.04,0.01-0.08,0.03-0.12,0.04 l-0.06,0.02c-0.17,0.06-0.33,0.12-0.5,0.18c-0.04,0.01-0.07,0.03-0.11,0.04c-0.15,0.06-0.3,0.11-0.45,0.17l-0.12,0.05 c-0.09,0.04-0.18,0.07-0.27,0.11c-0.04,0.02-0.08,0.03-0.12,0.05c-0.27,0.11-0.51,0.24-0.74,0.38l-0.03,0.02 c-0.02,0.01-0.04,0.02-0.05,0.03c-0.07,0.04-0.14,0.09-0.21,0.14l-0.05,0.03c-0.01,0.01-0.03,0.02-0.04,0.03 c-0.07,0.05-0.14,0.1-0.2,0.15l-0.06,0.04l-0.09,0.07c-0.28,0.23-0.54,0.47-0.8,0.73l-0.07,0.07c-0.14,0.14-0.28,0.28-0.42,0.43 c-0.15,0.15-0.29,0.3-0.45,0.45c-0.15,0.15-0.31,0.31-0.48,0.46l-0.06,0.05c-0.05,0.04-0.1,0.09-0.15,0.13 c-0.01,0.01-0.02,0.01-0.03,0.02c-0.08,0.07-0.17,0.13-0.25,0.2c-0.06,0.04-0.11,0.09-0.17,0.13l-0.03,0.02 c-0.07,0.05-0.15,0.1-0.22,0.15c-0.03,0.02-0.06,0.04-0.09,0.06c-0.11,0.07-0.22,0.14-0.33,0.21c-0.08,0.05-0.15,0.09-0.23,0.14 l-0.1,0.06l-0.24,0.15l-0.11,0.07l-0.08,0.04l-0.08,0.04c-0.11,0.06-0.22,0.12-0.34,0.17c-0.05,0.02-0.11,0.05-0.16,0.07 l-0.05,0.02c-0.34,0.15-0.67,0.26-1.02,0.35l-0.06,0.01l-0.08,0.02c-0.02,0.01-0.05,0.01-0.07,0.02 c-0.07,0.02-0.14,0.03-0.21,0.04c-0.06,0.01-0.11,0.02-0.16,0.03l-0.13,0.02l-0.04,0.01c-0.04,0.01-0.07,0.01-0.11,0.02 c-0.06,0.01-0.12,0.02-0.18,0.02c-0.09,0.01-0.17,0.02-0.26,0.03c-0.02,0-0.05,0-0.07,0.01c-0.22,0.02-0.43,0.04-0.65,0.05 c-0.12,0.01-0.24,0.01-0.36,0.02l-0.1,0c-0.23,0.01-0.47,0.02-0.7,0.02c-0.15,0-0.31,0.01-0.46,0.01c-0.06,0-0.11,0-0.17,0 c-0.08,0-0.16,0-0.23,0c-0.06,0-0.11,0-0.17,0l-0.06,0c-0.28-0.01-0.56-0.02-0.83-0.03c-0.04,0-0.08,0-0.12-0.01l-0.11-0.01 c-0.03,0-0.07-0.01-0.1-0.01c-0.4-0.03-0.81-0.07-1.21-0.11l-0.11-0.01c-0.1-0.01-0.2-0.02-0.3-0.04 c-0.04-0.01-0.09-0.01-0.13-0.02l-0.11-0.01c-0.08-0.01-0.17-0.02-0.25-0.04c-0.35-0.05-0.7-0.11-1.06-0.18 c-0.08-0.01-0.16-0.03-0.24-0.04l-0.1-0.02c-0.04-0.01-0.07-0.01-0.11-0.02l-0.11-0.02c-0.04-0.01-0.07-0.01-0.11-0.02 l-0.08-0.02c-0.09-0.02-0.17-0.04-0.26-0.05l-0.11-0.02c-0.1-0.02-0.2-0.04-0.3-0.07c-0.09-0.02-0.17-0.04-0.26-0.06l-0.03,0 c-0.56-0.12-1.08-0.24-1.58-0.36l-0.19-0.04c-0.14-0.03-0.28-0.07-0.42-0.1l-0.17-0.04l-0.08-0.02c-0.2-0.05-0.39-0.1-0.58-0.15 c-0.12-0.03-0.23-0.06-0.35-0.09c-0.34-0.09-0.67-0.17-1-0.26l-0.15-0.04c-0.06-0.01-0.11-0.03-0.17-0.04l-0.06-0.02 c-0.26-0.07-0.52-0.14-0.79-0.22l-0.06-0.02l-0.09-0.02l-0.28-0.07l-0.09-0.03L29,237.65l-0.06-0.02l-0.11-0.04l-0.1-0.03 l-0.04-0.02l-0.05-0.02l-0.03-0.01l-0.05-0.02l-0.05-0.03l-0.02-0.01l-0.05-0.03l-0.06-0.04l-0.06-0.04l-0.05-0.04 c-0.09-0.07-0.16-0.15-0.22-0.24l0,0c0,0-0.49,0.73-0.53,1.99c1.1,1.59,4.6,2.12,9.43,2.76c4.8,0.64,7.76,0.51,9.77-0.35 c2.01-0.86,5.53-4.94,8.05-5.15c2.52-0.22,5.49-1.54,6.72-2.26c0.64-0.37,0.45-3,0.45-3L61.87,230.64z"/>
</g>
<g id="Top_Basic-Boot" fill="rgb(35, 30, 30)">
<path d="M122,217.29c0.67,3.26,1.7,6.09,3.88,8.84c3.4,4.27,9.2,4.62,13.21,8.09c1.03,0.89,0.98,2.32,1.15,3.64 c-1.66,0.47-3.13,0.84-4.99,1.26c-0.13-1.31,0.1-2.78-0.99-3.72c-4.01-3.47-10.32-3.34-13.72-7.61 c-2.22-2.79-2.23-6.39-2.87-9.74c0.1-0.01,0.2-0.02,0.3-0.03l0.59-0.06l0.02,0l0.07-0.01l0.19-0.03l0.3-0.04l0.12-0.02 c0.35-0.05,0.68-0.1,1.01-0.16l0.53-0.1l0.11-0.03l0.04-0.01l0.08-0.02l0.36-0.09l0.32-0.09l0.05-0.01 C121.85,217.33,121.93,217.31,122,217.29z"/>
<path d="M48.02,217.29c-0.67,3.26-1.7,6.09-3.88,8.84c-3.4,4.27-9.2,4.62-13.21,8.09c-1.03,0.89-0.98,2.32-1.15,3.64 c1.66,0.47,3.13,0.84,4.99,1.26c0.13-1.31-0.1-2.78,0.99-3.72c4.01-3.47,10.32-3.34,13.72-7.61c2.22-2.79,2.23-6.39,2.87-9.74 c-0.1-0.01-0.2-0.02-0.3-0.03l-0.59-0.06l-0.02,0l-0.07-0.01l-0.19-0.03l-0.3-0.04l-0.12-0.02c-0.34-0.05-0.68-0.1-1.01-0.16 l-0.53-0.1l-0.11-0.03l-0.04-0.01l-0.08-0.02l-0.36-0.09l-0.32-0.09l-0.05-0.01C48.17,217.33,48.1,217.31,48.02,217.29z"/>
</g>
<g id="Side_Basic-Boot" fill="rgb(26, 19, 19)">
<path d="M109.49,216.83c1.38,0.15,2.96,0.92,4.14,1.12c0.06,0.01,0.13,0.02,0.19,0.03c0.02,0.41,0.01,0.82,0.02,1.18 c0.05,2.04-0.21,10.76-0.61,10.75c-0.4-0.02-1.58-0.23-1.88-0.55c-0.2-0.21-0.24-0.71-0.3-0.98c-0.21-0.87-0.4-1.73-0.53-2.61 c-0.18-1.19-0.32-2.36-0.4-3.55C109.98,220.42,109.7,218.62,109.49,216.83z"/>
<path d="M60.53,216.83c-1.38,0.15-2.96,0.92-4.14,1.12c-0.06,0.01-0.13,0.02-0.19,0.03 c-0.02,0.41-0.01,0.82-0.02,1.18c-0.05,2.04,0.21,10.76,0.61,10.75c0.4-0.02,1.58-0.23,1.88-0.55c0.2-0.21,0.24-0.71,0.3-0.98 c0.21-0.87,0.4-1.73,0.53-2.61c0.18-1.19,0.32-2.36,0.4-3.55C60.05,220.42,60.32,218.62,60.53,216.83z"/>
</g>
</g>
</g>
<g id="Gloves">
<g id="Left-Glove"><g id="Basic_Left_Glove" class="option" fill="rgb(36, 30, 26)" style="display: inherit;">
<path d="M138.6,124.11c-0.54-0.03-1.05-0.01-1.58,0.1c-0.36,0.08-0.72,0.16-1.04,0.35 c-0.99,0.57-0.72,1.81,0.16,2.28c1.03,0.55,2.66,0.01,3.13-1.05C139.46,125.35,138.86,124.53,138.6,124.11"/>
<path d="M136.79,125.19c-0.54-0.03-1.05-0.02-1.59,0.1c-0.36,0.08-0.72,0.16-1.04,0.35 c-0.99,0.57-0.72,1.81,0.16,2.28c1.03,0.55,2.66,0.01,3.13-1.05C137.65,126.43,137.05,125.61,136.79,125.19"/>
<path d="M135.49,126.65c-0.54,0.05-1.19,0.13-1.7,0.31c-0.35,0.12-0.69,0.26-0.99,0.48c-0.9,0.7-0.47,1.89,0.47,2.24 c1.1,0.41,2.64-0.35,2.96-1.46C136.36,127.76,135.49,126.65,135.49,126.65z"/>
<path d="M132.55,110.05c0,0-1.56,2.15-1.97,3.69c-0.29,1.09-0.13,3.68-0.49,5.43c-0.36,1.74-0.69,2.71-0.69,2.71 s-1.38,2.79-1.14,3.43c0.24,0.64,1.45,1.21,2.15,0.87c0.86-0.42,1.93-2.39,2.61-3.77c0.69-1.41,1.25-3.41,1.25-3.41 s0.95,0.32,1.43,0.7c1.61,1.24,0.91,4.96,0.91,4.96s-0.66,1.33-1.66,2.83c-1.36,2.05-3.46,3.81-2.07,5.37 c1.29,1.46,4.22-2.37,4.22-2.37l2.87-3.73c0,0,3.3-5.41,3.47-6.46c0.13-0.8,0.02-3.47,0.02-3.47l-1.03-10.37l-5.24,0.44 l-4.31,1.39L132.55,110.05"/>
</g>
</g>
<g id="Right-Glove"><g id="Basic_Right_Glove" class="option" fill="rgb(38, 35, 34)" style="display: inherit;">
<path d="M31.4,124.11c0.54-0.03,1.05-0.01,1.58,0.1c0.36,0.08,0.72,0.16,1.04,0.35c0.99,0.57,0.72,1.81-0.16,2.28 c-1.03,0.55-2.66,0.01-3.13-1.05C30.53,125.35,31.14,124.53,31.4,124.11"/>
<path d="M33.21,125.19c0.54-0.03,1.05-0.02,1.58,0.1c0.36,0.08,0.72,0.16,1.04,0.35c0.99,0.57,0.72,1.81-0.16,2.28 c-1.03,0.55-2.66,0.01-3.13-1.05C32.35,126.43,32.95,125.61,33.21,125.19"/>
<path d="M34.51,126.65c0.54,0.05,1.19,0.13,1.7,0.31c0.35,0.12,0.69,0.26,0.99,0.48c0.9,0.7,0.47,1.89-0.47,2.24 c-1.1,0.41-2.64-0.35-2.96-1.46C33.64,127.76,34.51,126.65,34.51,126.65z"/>
<path d="M37.45,110.05c0,0,1.56,2.15,1.97,3.69c0.29,1.09,0.13,3.68,0.49,5.43c0.36,1.74,0.69,2.71,0.69,2.71 s1.38,2.79,1.14,3.43c-0.24,0.64-1.45,1.21-2.15,0.87c-0.86-0.42-1.93-2.39-2.61-3.77C36.29,121,35.73,119,35.73,119 s-0.95,0.32-1.43,0.7c-1.61,1.24-0.91,4.96-0.91,4.96s0.66,1.33,1.66,2.83c1.36,2.05,3.46,3.81,2.08,5.37 c-1.29,1.46-4.22-2.37-4.22-2.37l-2.87-3.73c0,0-3.3-5.41-3.47-6.46c-0.13-0.8-0.02-3.47-0.02-3.47l1.03-10.37l5.24,0.44 l4.31,1.39L37.45,110.05"/>
</g>
</g>
</g>
<g id="Biceps">
<g id="Left-Biceps">
<g id="None_Biceps_Left" class="option" style="display: inherit;">
</g></g>
<g id="Right-Biceps">
<g id="None_Biceps_Right" class="option" style="display: inherit;">
</g></g>
</g>
<g id="BicepsDecals" mask="url(#BicepsMask)">
</g>
<path id="Vest" d="M85,20.92c8.5-0.01,15.43-4.3,15.63-8.01l0.15,0.02l18.38,5.42l13.31,23.94l-2.86,1.16l-13.42-8.6 l-2.31,3.72l-1.54,47.4c0,0-8.72,4.71-13.53,5.35c-3.44,0.45-8.63,0.68-13.79,0.67c-5.16,0.01-10.35-0.22-13.79-0.67 c-4.81-0.63-13.53-5.35-13.53-5.35l-1.54-47.4l-2.31-3.72l-13.42,8.6l-2.86-1.16l13.31-23.94l18.38-5.42l0.15-0.02 C69.57,16.62,76.5,20.92,85,20.92" fill="rgb(32, 28, 26)"/>
<g id="SuitDecals" mask="url(#SuitMask)">
</g>
<g class="swappable" id="Chest"><g id="Chest_Heavy">
<g id="Abdomen_Heavy">
<g id="Under-Plates_Abdomen_Heavy" fill="rgb(85, 82, 82)">
<rect x="73.86" y="69.99" width="22.29" height="2.83"/>
<rect x="73.86" y="72.82" width="22.29" height="2.83"/>
<rect x="73.86" y="75.65" width="22.29" height="2.83"/>
<rect x="73.86" y="78.48" width="22.29" height="2.83"/>
<rect x="73.86" y="81.31" width="22.29" height="2.83"/>
</g>
<g id="Abdomen-Plate_Heavy" fill="rgb(47, 46, 46)">
<path d="M78.16,60.86l-11.11,4.69L66,63.03l12.15-5.13V60.86z"/>
<path d="M70.94,74.95l-3.9-9.4l11.11-4.69l3.48,9.89L70.94,74.95z"/>
<path d="M66,63.03l-4.67,0.81l6.89,16.28l4.7-0.93L66,63.03z"/>
<path d="M91.84,60.86l11.11,4.69l1.04-2.52L91.84,57.9V60.86z"/>
<path d="M99.06,74.95l3.9-9.4l-11.11-4.69l-3.48,9.89L99.06,74.95z"/>
<path d="M104,63.03l4.67,0.81l-6.89,16.28l-4.7-0.93L104,63.03z"/>
<rect x="78.19" y="57.9" width="13.61" height="2.96"/>
<path d="M81.63,70.75l-3.48-9.89h13.69l-3.48,9.89H81.63z"/>
</g>
</g>
<g id="Neck-Armor_Heavy">
<g id="Neck-Plate_Heavy" fill="rgb(23, 18, 16)">
<path d="M69.69,11.62l-9.62,2.1c0,0,0.44,1.7,0.92,3.57c0.69,2.66,3.35,4.31,6.04,3.72h0 c1.26-0.27,2.35-1.05,3.03-2.15s0.88-2.42,0.56-3.67C70.13,13.33,69.69,11.62,69.69,11.62z"/>
<path d="M100.31,11.62l9.62,2.1c0,0-0.44,1.7-0.92,3.57c-0.68,2.66-3.35,4.31-6.04,3.72h0 c-1.26-0.27-2.35-1.05-3.03-2.15s-0.88-2.42-0.56-3.67C99.87,13.33,100.31,11.62,100.31,11.62z"/>
</g>
<g id="Secondary_Neck-Plate_Heavy" fill="rgb(28, 25, 25)">
<path d="M67.3,11.8l-4.84,1.06c0,0,0.35,1.36,0.69,2.67c0.34,1.34,1.69,2.16,3.04,1.87c0,0,0,0,0,0 c0.63-0.14,1.18-0.53,1.52-1.08c0.34-0.55,0.44-1.22,0.28-1.85C67.65,13.16,67.3,11.8,67.3,11.8z"/>
<path d="M102.7,11.8l4.84,1.06c0,0-0.35,1.36-0.69,2.67c-0.34,1.34-1.69,2.16-3.04,1.87c0,0,0,0,0,0 c-0.63-0.14-1.18-0.53-1.52-1.08c-0.34-0.55-0.44-1.22-0.28-1.85C102.35,13.16,102.7,11.8,102.7,11.8z"/>
</g>
</g>
<g id="Full-Chest_Heavy">
<path id="Under-Plate_Chest_Heavy" d="M90.5,54.56H79.5l-2.76,2.36v1.58l1.45-0.6h13.61l1.45,0.61v-1.59 L90.5,54.56z" fill="rgb(145, 33, 0)"/>
<g id="Chest-Plate_Heavy" fill="rgb(47, 46, 46)">
<path d="M65.78,61.66l9.75-5.63l1.32-2.67l2.6,0.35h11.11l2.6-0.35l1.32,2.67l9.75,5.63l4.53,0.99l-0.11,1.65 l-4.85-0.84l-10.54-4.37v-2.17l-2.76-2.36H79.5l-2.76,2.36v2.17l-10.54,4.37l-4.85,0.84l-0.11-1.65L65.78,61.66z"/>
<path d="M108.75,62.64l5.64-14.4l0.83,2.95l-1.79,10.71L108.75,62.64z"/>
<path d="M54.78,51.19l0.83-2.95l5.64,14.4l-4.68-0.74L54.78,51.19z"/>
<path d="M61.09,42.62v-6.02l-0.46-10.79l2.81-3.1l8.51-1.76l2.2,2.57h21.69l2.2-2.57l8.51,1.76l2.81,3.1 l-0.45,10.53l-0.01-0.02v6.31L93.15,53.36l-2.6,0.35H79.45l-2.6-0.35L61.09,42.62z"/>
<path d="M108.91,36.61v6.02l5.49,5.61L108.91,36.61z"/>
<path d="M76.85,53.36L61.09,42.62l-5.49,5.61l5.64,14.4l4.53-0.99l9.75-5.63L76.85,53.36z"/>
<path d="M114.4,48.24l-5.64,14.4l-4.53-0.99l-9.75-5.63l-1.32-2.67l15.75-10.74L114.4,48.24z"/>
<path d="M113.43,61.9l-0.19,1.15l-4.61,1.24l0.12-1.65L113.43,61.9z"/>
<path d="M61.09,36.61v6.02l-5.49,5.61L61.09,36.61z"/>
<path d="M60.63,25.82c-0.06,5.53-0.71,11.07-2.28,16.61l2.74-5.82L60.63,25.82z"/>
<path d="M109.38,25.82c0.06,5.53,0.72,11.07,2.28,16.61l-2.74-5.82L109.38,25.82z"/>
<path d="M61.25,62.64l0.11,1.65l-4.61-1.24l-0.19-1.15L61.25,62.64z"/>
</g>
<g id="Accents_Chest-Plate_Heavy" class="toggle">
<g id="Accent-3_Accents_Chest-Plate_Heavy" fill="rgb(145, 33, 0)">
<path d="M97.88,36.45l-0.58-1.79h2.63l-0.57,1.79H97.88z"/>
<path d="M97.88,39.92l-0.58-1.79h2.63l-0.57,1.79H97.88z"/>
<rect x="96.19" y="25.8" width="4.93" height="0.54"/>
<rect x="96.19" y="27.52" width="4.93" height="0.54"/>
</g>
<path id="Accent-2_Accents_Chest-Plate_Heavy" d="M70.47,23.02c-0.12-1.57-1.48-2.76-3.06-2.66c0,0,0,0,0,0 c-0.73,0.05-1.42,0.39-1.9,0.94c-0.48,0.56-0.72,1.28-0.67,2.01c0.06,0.86,0.14,1.8,0.2,2.66c0.12,1.57,1.48,2.76,3.06,2.66h0 c0.73-0.05,1.42-0.39,1.9-0.94c0.48-0.55,0.72-1.28,0.67-2.01C70.6,24.82,70.53,23.88,70.47,23.02z" fill="rgb(30, 36, 43)"/>
<g id="Accent-1_Accents_Chest-Plate_Heavy" fill="rgb(45, 46, 47)">
<path d="M69.65,20.78l-4.33,0.28l0.54,7.14l4.33-0.28L69.65,20.78z"/>
<path d="M69.18,21.34l-3.31,0.21l0.08,1.02l3.3-0.21L69.18,21.34z"/>
<path d="M66.4,22.55l-0.45,0.03l0.42,5.59l0.45-0.03L66.4,22.55z"/>
<path d="M66.88,22.51l-0.45,0.03l0.42,5.6l0.45-0.03L66.88,22.51z"/>
<path d="M69.25,22.36l-0.45,0.03l0.42,5.59l0.45-0.03L69.25,22.36z"/>
<path d="M68.78,22.39l-0.45,0.03l0.42,5.6l0.45-0.03L68.78,22.39z"/>
<path d="M67.83,22.45l-0.45,0.03l0.42,5.6l0.45-0.03L67.83,22.45z"/>
<path d="M68.3,22.42l-0.45,0.03l0.42,5.6l0.45-0.03L68.3,22.42z"/>
<path d="M67.35,22.49l-0.45,0.03l0.42,5.59l0.45-0.03L67.35,22.49z"/>
</g>
</g>
</g>
<g id="Iron-Heart_Heavy">
<path id="Heart_Heavy" d="M85,31.46l3.24,2.99v5.86L85,43.28l-3.24-2.98v-5.86L85,31.46z" fill="rgb(45, 46, 47)"/><g id="Center_Heart_Heavy" class="option" fill="rgb(36, 30, 26)" style="display: inherit;">
<rect x="83.82" y="34.53" width="2.36" height="2.84"/>
<rect x="83.82" y="37.37" width="0.39" height="2.84"/>
<rect x="85.39" y="37.37" width="0.39" height="2.84"/>
<rect x="85.79" y="37.37" width="0.39" height="2.84"/>
<rect x="84.6" y="37.37" width="0.39" height="2.84"/>
<rect x="85" y="37.37" width="0.39" height="2.84"/>
<rect x="84.21" y="37.37" width="0.39" height="2.84"/>
</g>
</g>
</g></g>
<g id="ChestDecals" mask="url(#ChestMask)">
</g>
<g id="Chest-Attachments">
<g id="Pilot-Box_Accessories_Chest" class="option" style="display: inherit;">
<g id="Main_Pilot-Box_Accessories_Chest" fill="rgb(29, 25, 23)">
<rect x="75.59" y="28.49" width="4.65" height="7.46"/>
<rect x="72.76" y="41.32" width="24.5" height="0.83"/>
<path d="M97.26,26.65c0-0.26-0.1-0.51-0.29-0.69c-0.18-0.18-0.43-0.29-0.69-0.29H73.74c-0.26,0-0.51,0.1-0.69,0.29 c-0.18,0.18-0.29,0.43-0.29,0.69v14.67h24.5V26.65z"/>
<path d="M97.26,42.15h-24.5l1.51,2.23h21.49L97.26,42.15z"/>
<rect x="74.65" y="44.1" width="8.02" height="7.69"/>
<rect x="72.79" y="45.63" width="1.86" height="4.63"/>
<rect x="95.35" y="45.63" width="1.86" height="4.63"/>
<rect x="87.37" y="44.1" width="8.01" height="7.69"/>
<rect x="82.67" y="44.1" width="1.07" height="7.69"/>
<rect x="86.3" y="44.1" width="1.07" height="7.69"/>
</g>
<g id="Parts-2_Pilot-Box_Accessories_Chest" fill="rgb(39, 43, 48)">
<rect x="70.94" y="45.83" width="1.86" height="4.22"/>
<rect x="97.21" y="45.83" width="1.86" height="4.22"/>
<rect x="83.74" y="43.88" width="2.55" height="8.13"/>
<path d="M89.04,27.55H74.65v9.33h14.39V27.55z M80.25,28.49h-4.65v7.46h4.65V28.49z"/>
</g>
<g id="Parts-1_Pilot-Box_Accessories_Chest" fill="rgb(85, 82, 82)">
<ellipse cx="77.92" cy="30.56" rx="1.14" ry="1.13"/>
<ellipse cx="77.92" cy="33.83" rx="1.14" ry="1.13"/>
<g>
<g>
<path d="M70.94,46.29l-4.35,0.08c-0.62,0-1.08-0.02-1.32-0.32c-0.16-0.2-0.18-0.48-0.19-0.81 c-0.02-0.62,0.1-1.36,0.29-2.2c1.16-5.05,4.88-13.12,5.32-21.94c0.32-6.47-1.72-16.7-1.72-16.7c-0.18-0.88-1.04-1.46-1.93-1.28 c-0.89,0.18-1.47,1.03-1.29,1.92c0,0,1.97,9.74,1.66,15.9c-0.3,5.94-2.17,11.52-3.64,16c-1.06,3.25-1.91,5.97-1.97,7.91 c-0.05,1.5,0.34,2.65,1.1,3.45c0.74,0.78,1.91,1.32,3.72,1.32c0.03,0,4.32-0.08,4.32-0.08V46.29z"/>
<path d="M66.77,11.19l3.26-0.27"/>
<path d="M66.48,9.24l3.27-0.29"/>
<path d="M67.05,13.47l3.26-0.27"/>
<path d="M67.29,15.93l3.26-0.27"/>
<path d="M67.45,18.36l3.26-0.27"/>
<path d="M67.45,20.33l3.26,0.05"/>
<path d="M67.32,22.28l3.25,0.45"/>
<path d="M67.08,24.29l3.22,0.6"/>
<path d="M66.74,26.37l3.15,0.92"/>
<path d="M66.26,28.58l3.15,0.88"/>
<path d="M65.78,30.46l3.17,0.78"/>
<path d="M65.19,32.52l3.2,0.67"/>
<path d="M64.6,34.41l3.15,0.85"/>
<path d="M63.99,36.31l3.12,0.96"/>
<path d="M63.27,38.5l3.16,0.84"/>
<path d="M62.62,40.63l3.14,0.9"/>
<path d="M62.04,42.96l3.33,0.09"/>
<path d="M61.81,45.52l3.32-1.17"/>
<path d="M62.62,47.99l2.47-2.46"/>
<path d="M64.7,49.38l0.67-3.23"/>
<path d="M66.94,49.63L67,46.37"/>
<path d="M69.05,49.59v-3.26"/>
</g>
<g>
<path d="M99.06,46.29l4.35,0.08c0.62,0,1.08-0.02,1.32-0.32c0.16-0.2,0.18-0.48,0.19-0.81 c0.02-0.62-0.1-1.36-0.29-2.2c-1.16-5.05-4.88-13.12-5.32-21.94c-0.32-6.47,1.72-16.7,1.72-16.7c0.18-0.88,1.04-1.46,1.93-1.28 c0.89,0.18,1.47,1.03,1.29,1.92c0,0-1.97,9.74-1.66,15.9c0.3,5.94,2.17,11.52,3.64,16c1.07,3.25,1.91,5.97,1.97,7.91 c0.05,1.5-0.34,2.65-1.1,3.45c-0.74,0.78-1.91,1.32-3.72,1.32c-0.03,0-4.32-0.08-4.32-0.08V46.29z"/>
<path d="M103.23,11.19l-3.26-0.27"/>
<path d="M103.52,9.24l-3.27-0.29"/>
<path d="M102.95,13.47l-3.26-0.27"/>
<path d="M102.71,15.93l-3.26-0.27"/>
<path d="M102.55,18.36l-3.26-0.27"/>
<path d="M102.55,20.33l-3.26,0.05"/>
<path d="M102.68,22.28l-3.25,0.45"/>
<path d="M102.92,24.29l-3.22,0.6"/>
<path d="M103.26,26.37l-3.15,0.92"/>
<path d="M103.74,28.58l-3.15,0.88"/>
<path d="M104.22,30.46l-3.17,0.78"/>
<path d="M104.81,32.52l-3.2,0.67"/>
<path d="M105.4,34.41l-3.15,0.85"/>
<path d="M106.01,36.31l-3.12,0.96"/>
<path d="M106.73,38.5l-3.16,0.84"/>
<path d="M107.38,40.63l-3.14,0.9"/>
<path d="M107.96,42.96l-3.33,0.09"/>
<path d="M108.19,45.52l-3.32-1.17"/>
<path d="M107.38,47.99l-2.47-2.46"/>
<path d="M105.3,49.38l-0.67-3.23"/>
<path d="M103.06,49.63L103,46.37"/>
<path d="M100.95,49.59v-3.26"/>
</g>
</g>
<rect x="80.99" y="47.2" width="2.22" height="1.48"/>
<rect x="86.79" y="47.2" width="2.22" height="1.48"/>
<path d="M70.28,4.22c0-0.62-0.51-1.13-1.13-1.13h-2.56c-0.62,0-1.13,0.5-1.13,1.13v2.25c0,0.62,0.51,1.12,1.13,1.12 h2.56c0.62,0,1.13-0.5,1.13-1.12V4.22z"/>
<rect x="66.59" y="3.1" width="0.35" height="4.5"/>
<path d="M99.72,4.22c0-0.62,0.51-1.13,1.13-1.13h2.56c0.62,0,1.13,0.5,1.13,1.13v2.25c0,0.62-0.51,1.12-1.13,1.12 h-2.56c-0.62,0-1.13-0.5-1.13-1.12V4.22z"/>
<rect x="103.07" y="3.1" width="0.35" height="4.5"/>
</g>
<g id="Buttons-2_Pilot-Box_Accessories_Chest" fill="rgb(41, 84, 116)">
<ellipse cx="80.78" cy="38.97" rx="0.56" ry="0.56"/>
<rect x="92.25" y="33.19" width="1.51" height="3.69"/>
<rect x="82.86" y="28.49" width="5.24" height="1.17"/>
<rect x="85.95" y="29.94" width="2.14" height="1.17"/>
<ellipse cx="84.79" cy="38.97" rx="0.56" ry="0.56"/>
</g>
<g id="Buttons-1_Pilot-Box_Accessories_Chest" fill="rgb(52, 46, 44)">
<rect x="92.25" y="27.55" width="1.51" height="3.69"/>
<rect x="82.86" y="29.94" width="2.14" height="1.17"/>
<ellipse cx="78.89" cy="38.97" rx="0.56" ry="0.56"/>
<ellipse cx="82.71" cy="38.97" rx="0.56" ry="0.56"/>
</g>
</g></g>
<g id="Collar"><g id="None_Collar" class="option" style="display: inherit;">
</g>
</g>
<g id="CollarDecals" mask="url(#CollarMask)">
</g>
<g id="Helmets" class="swappable" transform="translate(45,-52)"><g id="Helmet_Tracker">
<g id="Left-Earcap_Tracker" class="toggle">
<g id="Ear-Cap_Left_Tracker" fill="rgb(95, 93, 93)">
<path d="M57.17,37.8h1.76v19.63h-1.76V37.8"/>
<path d="M58.24,58.64h0.52l0.85-0.79v-0.42h-1.37V58.64"/>
<path d="M58.24,44.58h0.85v2.54h-0.85V44.58"/>
</g></g>
<g id="Right-Earcap_Tracker" class="toggle">
<g id="Ear-Cap_Right_Tracker" fill="rgb(95, 93, 93)">
<path d="M22.75,37.8h-1.76v19.63h1.76V37.8"/>
<path d="M21.67,58.64h-0.52l-0.85-0.79v-0.42h1.37V58.64"/>
<path d="M21.67,44.58h-0.85v2.54h0.85V44.58"/>
</g></g>
<g id="Helmet_Pieces_Tracker">
<g id="Face_Tracker" fill="rgb(62, 62, 62)">
<path d="M44.22,65.81l5.06-14.85l6.09-4.1l1.86,11.96l-0.93-0.07c0,0-2.55,0.86-5.76,2.93 C48.58,62.95,44.22,65.81,44.22,65.81"/>
<path d="M35.69,65.81l-5.07-14.85l-6.09-4.1l-1.86,11.96l0.93-0.07c0,0,2.55,0.86,5.76,2.93 C31.33,62.95,35.69,65.81,35.69,65.81"/>
</g>
<g id="Cheeks_Tracker" fill="rgb(37, 38, 39)">
<path d="M57.24,43.36c-0.16,0.08-0.34,0.16-0.54,0.23l-1.33,3.27l1.86,11.96V43.36L57.24,43.36"/>
<path d="M56.71,43.58c-0.19,0.07-0.41,0.12-0.64,0.17c-1.8,0.34-4.55,0.66-4.55,0.66l-2.23,6.54l6.03-4.08 L56.71,43.58L56.71,43.58"/>
<path d="M22.67,43.36c0.16,0.08,0.34,0.16,0.54,0.23l1.33,3.27l-1.86,11.96V43.36L22.67,43.36"/>
<path d="M23.21,43.58c0.2,0.07,0.41,0.12,0.64,0.17c1.8,0.34,4.55,0.66,4.55,0.66l2.23,6.54l-6.03-4.08L23.21,43.58 L23.21,43.58"/>
</g>
<path fill="rgb(16, 22, 25)" id="Visor_Tracker" d="M37.69,67.49l-1.23-25.83l-3.38-3.09l-10.16-0.03l-0.26-2.22 c0.74-1.12,2.46-1.69,5.48-2.22c1.46-0.26,6.64-0.39,11.83-0.39h0.12c5.14,0,10.26,0.14,11.71,0.39c3.01,0.53,4.74,1.1,5.48,2.22 L57,38.54l-10.16,0.03l-3.38,3.09l-1.23,25.83H37.69"/>
<g id="Eyes_Tracker" fill="rgb(41, 84, 116)">
<path d="M58.26,42.62c-0.21,0.22-0.54,0.5-1.02,0.74l0,0v15.46h1.02V42.62L58.26,42.62"/>
<path d="M21.66,42.62c0.21,0.22,0.54,0.5,1.02,0.74l0,0v15.46h-1.02V42.62L21.66,42.62"/>
<path d="M39.84,33.7c-5.14,0-10.25,0.14-11.71,0.39c-3.02,0.53-4.74,1.1-5.48,2.22l0.26,2.22l-1.18,0.03l-0.3-2.13 L21.52,36c0.49-0.98,3.29-3.03,18.16-2.69h0.56C55.11,32.97,57.9,35.02,58.4,36l0.08,0.44l-0.3,2.13L57,38.54l0.26-2.22 c-0.74-1.12-2.46-1.69-5.48-2.22c-1.46-0.26-6.64-0.39-11.83-0.39H39.84"/>
<path d="M43.52,27.29l-2.57-2.39v-7.16h1.65c0,0,0.26,1.36,2.9,2.32c2.64,0.95,10.62,3.15,12.39,10.84 c0.84,3.66,0.67,5.53,0.67,5.53l-0.01,5.82c0,0-0.68,1.16-2.48,1.5c-1.8,0.34-4.55,0.66-4.55,0.66l-7.29,21.39l-2,1.68 l1.23-25.83l3.58-3.27l8.15,0.11l2.99,0.07l0.32-2.26c-0.08-0.74-1.54-3.41-18.53-3c-17-0.41-18.45,2.26-18.53,3l0.32,2.26 l2.99-0.07l8.15-0.11l3.58,3.27l1.23,25.83l-2-1.68l-7.3-21.39c0,0-2.75-0.32-4.55-0.66s-2.49-1.5-2.49-1.5l-0.01-5.82 c0,0-0.17-1.87,0.67-5.53c1.77-7.69,9.76-9.89,12.39-10.84c2.64-0.95,2.9-2.32,2.9-2.32h1.65v7.16l-2.57,2.39H43.52"/>
<path d="M22.65,36.32l-1.19-0.01"/>
<path d="M57.26,36.32l1.19-0.01"/>
</g>
<g id="Dome-2_Tracker" fill="rgb(193, 95, 30)">
<path d="M42.99,18.46c0.38,0.47,1.11,1.09,2.51,1.6c1.68,0.61,5.53,1.72,8.56,4.44l0,0 C50.63,18.85,43,18.46,42.99,18.46"/>
<path d="M36.93,18.46c-0.38,0.47-1.11,1.09-2.51,1.6c-1.68,0.61-5.53,1.72-8.56,4.44l0,0 C29.29,18.85,36.92,18.46,36.93,18.46"/>
</g>
<path id="Dome-1_Tracker" d="M36.4,27.29l2.57-2.39v-6.57l0.99,0.02l0.99-0.02v6.57l2.57,2.39H36.4" fill="rgb(193, 95, 30)"/>
</g>
</g></g>
<g id="HelmetsDecals" mask="url(#HelmetsMask)"/>
<g id="Shoulders">
<g id="Left-Shoulder"><g id="Classic_Shoulder_Left" class="option" style="display: inherit;">
<path id="Main_Shoulder_Classic_Left" d="M117.21,13.84l-2.52,11.33l2.02,6.52l13.49,6.79l2.27-3.46L117.21,13.84z " fill="rgb(41, 84, 116)"/>
<path id="Trauma-Plates_Shoulder_Classic_Left" class="toggle" style="display:none" d="M116.44,25.1l1.67,5.41l11.49,5.78l1.94-2.96 l-12.93-17.99L116.44,25.1z" fill="rgb(255, 255, 255)"/>
</g>
</g>
<g id="Right-Shoulder"><g id="Gunslinger-Bell_Shoulder_Right" class="option" style="display: inherit;">
<path id="Main_Gunslinger-Bell_Shoulder_Right" d="M56.13,16.41c-6.16-0.15-19.92,4.76-19.37,22.26l0.08,3.45 l11.98,4.89l10.5-13.96l0-16.64L56.13,16.41z" fill="rgb(47, 46, 46)"/>
<path id="Ridge_Gunslinger-Bell_Shoulder_Right" class="toggle" d="M59.32,16.41L59.32,16.41l0-2.02 c-13.11-0.07-25.51,5.55-24.56,27.14l2.01,0.47c0.02-0.25,0.04-0.51,0.06-0.75l-0.06-2.59c-0.55-17.49,13.2-22.4,19.37-22.26 h0.68C58.17,16.22,59.1,16.27,59.32,16.41L59.32,16.41L59.32,16.41z" fill="rgb(193, 95, 30)"/>
<g id="Trim_Gunslinger-Bell_Shoulder_Right" class="toggle" fill="rgb(47, 46, 46)">
<rect x="56.13" y="15.63" width="3.19" height="17.45"/>
<path d="M56.13,32l3.19,1.05L48.81,47.02l-2.55-1.9L56.13,32z"/>
<path d="M47.74,43.14l1.12,3.88l-12.58-5.13v-3.42L47.74,43.14z"/>
</g>
</g></g>
</g>
<g id="ShouldersDecals" mask="url(#ShouldersMask)">
</g>
<g id="Gauntlets">
<g id="Left-Gauntlets"><g id="Heavy_Gauntlet_Left" class="option" style="display: inherit;">
<g id="Top-2_Heavy_Gauntlet_Left" fill="rgb(41, 41, 41)">
<path d="M140.68,79.64l1.74,0.13l1.43,8.11l-1.48,1.23L140.68,79.64z"/>
<path d="M142.25,88.39l1.82,10.57l-0.95,1.28l1.11,6.22l-0.44,0.32l-3.07-17.02L142.25,88.39z"/>
<ellipse cx="142.26" cy="85.76" rx="0.38" ry="0.38"/>
</g>
<g id="Top-1_Heavy_Gauntlet_Left" fill="rgb(62, 62, 62)">
<path d="M139.42,107.96l4.36-1.17l-3.07-17.02l1.54-1.38l-1.66-9.27l-6.59-0.67L139.42,107.96z"/>
<path d="M138.89,78.94l1.82,10.82"/>
</g>
<g id="Accent-Top_Heavy_Gauntlet_Left" fill="rgb(41, 41, 41)">
<path d="M142.53,104.17l-2.77,0.56l0.42,2.15l2.77-0.65L142.53,104.17z"/>
<path d="M140.78,95.16l-2.77,0.56l1.62,8.4l2.77-0.56L140.78,95.16z"/>
<path d="M138.29,79.56l-3.13-0.24l1.64,9.21l2.91-0.59L138.29,79.56z"/>
</g>
<path id="Bottom_Heavy_Gauntlet_Left" d="M134.08,78.88c-3.37,0.13-6.88,1.57-9.06,4.4 c-0.71,0.92-0.92,2.12-0.58,3.22c1.64,5.35,7.01,22.84,7.01,22.84l7.98-1.39L134.08,78.88z" fill="rgb(52, 53, 54)"/>
<g id="Accent-Bottom_Heavy_Gauntlet_Left" fill="rgb(29, 30, 30)">
<path d="M139.42,107.96l-7.98,1.39l-0.43-1.41l8.13-1.52L139.42,107.96z"/>
<path d="M134.44,80.86c-4.35,0.43-7.98,2.01-9.69,6.7l-0.32-1.04c-0.27-0.87-0.19-1.8,0.2-2.61l0.41-0.65 c2.19-2.81,5.68-4.24,9.03-4.37L134.44,80.86z"/>
<path d="M133.31,79.53l-3.52,0.69l2.77,13.89l3.52-0.69L133.31,79.53z"/>
<path d="M132.9,79.88l-2.59,0.51l2.56,12.85l2.59-0.51L132.9,79.88z"/>
<path d="M130.3,80.39l-0.51-0.17"/>
<path d="M133.31,79.53l-0.41,0.35"/>
<path d="M136.08,93.42l-0.62-0.7"/>
<path d="M132.56,94.12l0.37-0.89"/>
</g><g id="Flamethrower_Attachment_Heavy_Gauntlet_Left" class="option" style="display: inherit;">
<g id="Tubes_Flamethrower_Attachment_Heavy_Gauntlet_Left" fill="rgb(67, 67, 67)">
<path d="M142.18,79.84l-0.82,0.14l4.36,24.89l0.82-0.14L142.18,79.84z"/>
<path d="M144.06,79.51l-0.82,0.14l3.12,17.84l0.82-0.14L144.06,79.51z"/>
<path d="M142.71,81.35l-1.23,0.21l1.04,5.93l1.24-0.21L142.71,81.35z"/>
<path d="M144.49,81.04l-1.13,0.19l1.04,5.93l1.13-0.2L144.49,81.04z"/>
</g>
<g id="Main_Flamethrower_Attachment_Heavy_Gauntlet_Left" fill="rgb(50, 51, 53)">
<path d="M144.34,79.07l-3.38,0.58l0.34,1.94l3.38-0.58L144.34,79.07z"/>
<path d="M145.8,86.93l-3.53,0.61l0.17,0.95l3.53-0.61L145.8,86.93z"/>
<path d="M145.82,87.9l-3.24,0.56l0.08,0.48l3.24-0.56L145.82,87.9z"/>
<path d="M142.52,86.88L141.98,87l0.51,2.89l0.54-0.11L142.52,86.88z"/>
</g>
<g id="Accent_Flamethrower_Attachment_Heavy_Gauntlet_Left" fill="rgb(39, 45, 53)">
<path d="M147.21,97.35l-0.88,0.15l0.08,1.24l1.15-0.2L147.21,97.35z"/>
<path d="M146.44,90.95l-1.56,0.27l0.33,1.89l1.56-0.27L146.44,90.95z"/>
<path d="M146.56,92.87l-1.13,0.2l0.33,1.89l1.13-0.19L146.56,92.87z"/>
<path d="M146.14,101.55l-1.13,0.2l0.45,2.59l1.13-0.19L146.14,101.55z"/>
<path d="M144.67,93.2l-1.13,0.19l0.62,3.52l1.13-0.2L144.67,93.2z"/>
<path d="M146.58,102.81l-1.56,0.27l0.09,0.5l1.56-0.27L146.58,102.81z"/>
</g>
<path id="Base_Flamethrower_Attachment_Heavy_Gauntlet_Left" d="M141.98,87l-1.39-7.85l1.01,0.21l2.35,13.27 l-0.87,0.59l-0.59-3.32l0.54-0.11l-0.51-2.89L141.98,87z" fill="rgb(41, 41, 41)"/>
</g></g></g>
<g id="Right-Gauntlets"><g id="Heavy_Gauntlet_Right" class="option" style="display: inherit;">
<g id="Top-2_Heavy_Gauntlet_Right" fill="rgb(29, 25, 23)">
<path d="M29.5,79.64l-1.74,0.13l-1.43,8.11l1.48,1.23L29.5,79.64z"/>
<path d="M27.93,88.39l-1.82,10.57l0.95,1.28l-1.11,6.22l0.44,0.32l3.07-17.02L27.93,88.39z"/>
<ellipse cx="27.92" cy="85.76" rx="0.38" ry="0.38"/>
</g>
<g id="Top-1_Heavy_Gauntlet_Right" fill="rgb(29, 29, 29)">
<path d="M30.76,107.96l-4.36-1.17l3.07-17.02l-1.54-1.38l1.66-9.27l6.59-0.67L30.76,107.96z"/>
<path d="M31.29,78.94l-1.82,10.82"/>
</g>
<g id="Accent-Top_Heavy_Gauntlet_Right" fill="rgb(75, 74, 74)">
<path d="M27.66,104.17l2.77,0.56l-0.42,2.15l-2.77-0.65L27.66,104.17z"/>
<path d="M29.4,95.16l2.77,0.56l-1.62,8.4l-2.77-0.56L29.4,95.16z"/>
<path d="M31.89,79.56l3.13-0.24l-1.64,9.21l-2.91-0.59L31.89,79.56z"/>
</g>
<path id="Bottom_Heavy_Gauntlet_Right" d="M36.11,78.88c3.37,0.13,6.88,1.57,9.06,4.4 c0.71,0.92,0.92,2.12,0.58,3.22c-1.64,5.35-7.01,22.84-7.01,22.84l-7.98-1.39L36.11,78.88z" fill="rgb(44, 44, 44)"/>
<g id="Accent-Bottom_Heavy_Gauntlet_Right" fill="rgb(52, 52, 52)">
<path d="M30.76,107.96l7.98,1.39l0.43-1.41l-8.13-1.52L30.76,107.96z"/>
<path d="M35.74,80.86c4.35,0.43,7.98,2.01,9.69,6.7l0.32-1.04c0.27-0.87,0.19-1.8-0.2-2.61l-0.41-0.65 c-2.19-2.81-5.68-4.24-9.03-4.37L35.74,80.86z"/>
<path d="M36.88,79.53l3.52,0.69l-2.77,13.89l-3.52-0.69L36.88,79.53z"/>
<path d="M37.29,79.88l2.59,0.51l-2.56,12.85l-2.59-0.51L37.29,79.88z"/>
<path d="M39.88,80.39l0.51-0.17"/>
<path d="M36.88,79.53l0.41,0.35"/>
<path d="M34.1,93.42l0.62-0.7"/>
<path d="M37.62,94.12l-0.37-0.89"/>
</g><g id="Missle_Attachment_Heavy_Gauntlet_Right" class="option" style="display: inherit;">
<g id="Head_Missle_Attachment_Heavy_Gauntlet_Right" fill="rgb(60, 59, 59)">
<path d="M24.18,97.59l2.64-4.07l-3.71-0.75L24.18,97.59z"/>
<path d="M25.49,93.66c-0.08-0.02-0.18,0.15-0.22,0.36c-0.04,0.22,0,0.4,0.08,0.42c0.08,0.02,0.18-0.14,0.22-0.36 S25.58,93.68,25.49,93.66z"/>
<path d="M25.17,94.8c-0.06-0.01-0.14,0.12-0.17,0.29c-0.03,0.17,0,0.32,0.06,0.34c0.06,0.01,0.14-0.12,0.17-0.29 C25.26,94.96,25.24,94.81,25.17,94.8z"/>
<path d="M24.95,95.85c-0.06-0.01-0.13,0.11-0.16,0.26c-0.03,0.16,0,0.3,0.06,0.31c0.06,0.01,0.13-0.11,0.16-0.27 C25.03,96,25.01,95.86,24.95,95.85z"/>
<path d="M26.09,93.79c-0.08-0.02-0.18,0.14-0.22,0.36c-0.04,0.22,0,0.4,0.08,0.42c0.08,0.02,0.18-0.15,0.22-0.36 C26.21,93.99,26.18,93.8,26.09,93.79z"/>
<path d="M23.69,93.3c-0.08-0.02-0.18,0.14-0.22,0.36c-0.04,0.21,0,0.4,0.08,0.42c0.08,0.02,0.18-0.15,0.22-0.36 C23.81,93.5,23.77,93.32,23.69,93.3z"/>
<path d="M24.29,93.42c-0.08-0.02-0.18,0.15-0.22,0.36c-0.04,0.22,0,0.4,0.08,0.42c0.08,0.02,0.18-0.15,0.22-0.36 C24.41,93.62,24.37,93.44,24.29,93.42z"/>
<path d="M24.21,94.6c-0.07-0.01-0.14,0.12-0.17,0.29c-0.03,0.17,0,0.32,0.06,0.34c0.06,0.01,0.14-0.12,0.17-0.29 C24.3,94.76,24.27,94.61,24.21,94.6z"/>
<path d="M24.06,95.67c-0.06-0.01-0.13,0.11-0.16,0.27c-0.03,0.16,0,0.3,0.06,0.31c0.06,0.01,0.13-0.11,0.16-0.27 C24.15,95.82,24.12,95.68,24.06,95.67z"/>
<path d="M24.89,93.54c-0.08-0.02-0.18,0.14-0.22,0.36s0,0.4,0.08,0.42c0.08,0.02,0.18-0.14,0.22-0.36 C25.01,93.75,24.98,93.56,24.89,93.54z"/>
<path d="M24.69,94.7c-0.07-0.01-0.14,0.12-0.17,0.29c-0.03,0.17,0,0.32,0.06,0.34c0.07,0.01,0.14-0.12,0.17-0.29 C24.78,94.86,24.75,94.71,24.69,94.7z"/>
<path d="M24.5,95.75c-0.06-0.01-0.13,0.11-0.16,0.27c-0.03,0.16,0,0.3,0.06,0.31s0.13-0.11,0.16-0.26 C24.59,95.91,24.56,95.77,24.5,95.75z"/>
<path d="M23.63,95.13c0.06-0.01,0.13-0.13,0.16-0.29c0.03-0.17,0-0.32-0.06-0.34c-0.06-0.01-0.14,0.11-0.17,0.28 L23.63,95.13z M25.72,95.22c0.03-0.17,0-0.32-0.06-0.33c-0.07-0.01-0.14,0.12-0.17,0.29c-0.03,0.16-0.01,0.3,0.05,0.33 L25.72,95.22z"/>
</g>
<g id="Main_Missle_Attachment_Heavy_Gauntlet_Right" fill="rgb(29, 25, 23)">
<path d="M23.67,92.25l2.81,0.57l-0.11,0.61l-2.81-0.57L23.67,92.25z"/>
<path d="M25.95,79.28l2.81,0.57l-0.11,0.61l-2.81-0.57L25.95,79.28z"/>
<path d="M26.92,77.14l1.65,0.33l-0.11,0.61l-1.65-0.33L26.92,77.14z"/>
<path d="M26.1,77.61l3.08,0.62l-0.29,1.65l-3.08-0.62L26.1,77.61z"/>
<path d="M25.59,79.84l3.32,0.67l-2.17,12.35l-3.32-0.67L25.59,79.84z"/>
<path d="M27.63,87.02l0.54,0.11l-0.51,2.9l-0.54-0.11L27.63,87.02z"/>
</g>
<g id="Accent_Missle_Attachment_Heavy_Gauntlet_Right" fill="rgb(65, 64, 64)">
<path d="M24.04,98.38l0.54-1.04l-0.69-0.14L24.04,98.38z"/>
<path d="M24.01,96.93l0.55,0.11l0.02,0.29l-0.69-0.14L24.01,96.93z"/>
<path d="M26.89,76.24l2.02,0.41l-0.15,0.86l-2.02-0.41L26.89,76.24z"/>
<path d="M27.31,75.86l1.35,0.27l0.26,0.52l-2.02-0.41L27.31,75.86z"/>
<path d="M26.58,80.04l0.56,0.11l-2.17,12.35l-0.56-0.11L26.58,80.04z"/>
<path d="M27.34,80.2l0.56,0.11l-2.17,12.36l-0.56-0.11L27.34,80.2z"/>
<path d="M25.3,80.11l0.28-0.27L23.41,92.2l-0.17-0.36L25.3,80.11z"/>
<path d="M25.82,79.89L26.38,80l-2.17,12.36l-0.56-0.11L25.82,79.89z"/>
<path d="M28.11,80.35l0.35,0.07l-2.17,12.36l-0.35-0.07L28.11,80.35z"/>
</g>
<path id="Base_Missle_Attachment_Heavy_Gauntlet_Right" d="M28.55,79.49l1.01-0.21l-2.48,14.07l-0.87-0.59 L28.55,79.49z M27.63,87.02l0.54,0.11l-0.51,2.9l-0.54-0.11L27.63,87.02z" fill="rgb(55, 55, 55)"/>
</g></g></g>
</g>
<g id="GauntletsDecals" mask="url(#GauntletsMask)">
</g>
<g id="Shins">
<g id="Left-Shin"><g id="Wraps_Shin_Left" class="option" fill="rgb(34, 30, 28)" style="display: inherit;">
<path d="M125.43,219.82c-6.29,2.07-12.29,2.44-18.03,1.26l-2.34-10.27l19.2-1.07L125.43,219.82"/>
<path d="M124.85,212.14c-6.15,2.59-12.43,3.84-18.85,3.68l-2.11-10.17l19.58-4.05L124.85,212.14"/>
<path d="M124.38,206.42c-10.62,1.43-18.3,4.19-20.04,2.12l-1.77-10.33l20.52-0.45L124.38,206.42"/>
<path d="M123.86,200.41c0,0-6.98,1.11-10.51,1.19c-3.56,0.07-10.87-0.74-10.87-0.74l-0.94-9.87l20.78-0.93 L123.86,200.41"/>
<path d="M122.78,191.48c0,0-7.03,1.74-10.63,2.21c-3.63,0.48-10.59,0.64-10.59,0.64l-1.21-9.76l21.1-3.44 L122.78,191.48"/>
<path d="M121.38,180.38l1.18,7.83c0,0-7.83-1.31-11.68-1.31c-3.79,0-10.53,1.22-10.53,1.22l-0.97-9.73 c0,0,8.14-1.69,12.04-1.69c3.71,0,9.51,1.13,9.51,1.13L121.38,180.38"/>
</g></g>
<g id="Right-Shin"><g id="Wraps_Shin_Right" class="option" fill="rgb(34, 30, 28)" style="display: inherit;">
<path d="M44.46,219.82c6.29,2.07,12.29,2.44,18.02,1.26l2.34-10.27l-19.2-1.07L44.46,219.82"/>
<path d="M45.04,212.14c6.15,2.59,12.43,3.84,18.85,3.68L66,205.65l-19.58-4.05L45.04,212.14"/>
<path d="M45.51,206.42c10.62,1.43,18.3,4.19,20.04,2.12l1.77-10.33l-20.52-0.45L45.51,206.42"/>
<path d="M46.03,200.41c0,0,6.98,1.11,10.51,1.19c3.56,0.07,10.87-0.74,10.87-0.74l0.94-9.87l-20.78-0.93 L46.03,200.41"/>
<path d="M47.11,191.48c0,0,7.03,1.74,10.63,2.21c3.63,0.48,10.59,0.64,10.59,0.64l1.21-9.76l-21.1-3.44L47.11,191.48 "/>
<path d="M48.51,180.38l-1.18,7.83c0,0,7.83-1.31,11.68-1.31c3.79,0,10.53,1.22,10.53,1.22l0.97-9.73 c0,0-8.14-1.69-12.04-1.69c-3.71,0-9.51,1.13-9.51,1.13L48.51,180.38"/>
</g></g>
</g>
<g id="ShinsDecals" mask="url(#ShinsMask)">
</g>
<g id="Foot">
<g id="Left-Ankle"><g id="Basic_Ankle_Left" class="option" style="display: inherit;">
<path id="Main_Basic-Ankle_Left" d="M132.53,229.62l-7.84-13.73c-4.32-0.22-8.38,0.42-12.17,2.03 c-0.9,0.39-1.58,1.15-1.88,2.09c-0.01,0-0.01,0-0.01,0c-0.51,1.63-0.02,3.4,1.27,4.52c2.45,2.24,6.47,5.71,8.94,6.56 C126.66,233.08,132.53,229.62,132.53,229.62" fill="rgb(85, 82, 82)"/>
<path id="Trauma-Plate_Basic-Ankle_Left" class="toggle" style="display:none" d="M125.65,217.57c-3.86-0.07-9.61,0.68-12.99,2.23l-0.34,1.08 c-0.22,0.71-0.02,1.49,0.54,2.01c2.21,2.08,6.19,5.71,8.63,6.54c3.28,1.12,8.24-0.66,10.12-1.42L125.65,217.57" fill="rgb(255, 255, 255)"/>
</g>
</g>
<g id="Left-Toe"><g id="Spikes_Toe_Left" class="option" fill="rgb(98, 97, 97)" style="display: inherit;">
<path d="M132.2,239.82c2.86-0.5,5.74-1.18,8.65-2.03c0.22-0.06,0.46-0.02,0.64,0.11c0.18,0.13,0.3,0.35,0.3,0.57 c0.01,0.49,0.03,0.99,0.03,0.99c-2.06,0.93-4.63,1.59-7.61,2.04c-0.49,0.08-1-0.07-1.38-0.38 C132.45,240.79,132.22,240.32,132.2,239.82C132.2,239.82,132.2,239.82,132.2,239.82"/>
<path d="M137.04,241.77c0,0-2.79-0.31-3.86-0.43c-0.16-0.02-0.31-0.1-0.42-0.23c-0.1-0.13-0.15-0.29-0.13-0.46 c0.11-0.58,0.51-0.85,1.29-0.8c0.11,0.01,0.21,0.04,0.31,0.1C134.74,240.26,137.04,241.77,137.04,241.77"/>
<path d="M144.07,239.72c0,0-2.43-0.21-3.42-0.3c-0.2-0.02-0.37-0.13-0.48-0.29c-0.1-0.17-0.12-0.38-0.04-0.56 c0.21-0.27,0.52-0.42,1.03-0.39c0.1,0,0.2,0.03,0.28,0.08C141.87,238.47,144.07,239.72,144.07,239.72"/>
</g></g>
<g id="Right-Ankle"><g id="Basic_Ankle_Right" class="option" style="display: inherit;">
<path id="Main_Basic-Ankle_Right" d="M37.34,229.62l7.84-13.73c4.31-0.22,8.38,0.42,12.17,2.03 c0.9,0.39,1.58,1.15,1.88,2.09c0.01,0,0.01,0,0.01,0c0.51,1.63,0.02,3.4-1.27,4.52c-2.46,2.24-6.47,5.71-8.94,6.56 C43.21,233.08,37.34,229.62,37.34,229.62" fill="rgb(85, 82, 82)"/>
<path id="Trauma-Plate_Basic-Ankle_Right" class="toggle" style="display:none" d="M44.22,217.57c3.85-0.07,9.61,0.68,12.99,2.23l0.34,1.08 c0.22,0.71,0.02,1.49-0.55,2.01c-2.21,2.08-6.19,5.71-8.63,6.54c-3.28,1.12-8.24-0.66-10.12-1.42L44.22,217.57" fill="rgb(255, 255, 255)"/>
</g>
</g>
<g id="Right-Toe"><g id="Spikes_Toe_Right" class="option" fill="rgb(98, 97, 97)" style="display: inherit;">
<path d="M37.67,239.82c-2.86-0.5-5.74-1.18-8.65-2.03c-0.22-0.06-0.45-0.02-0.64,0.11c-0.19,0.13-0.3,0.35-0.3,0.57 c0,0.2-0.01,0.39-0.01,0.56c-0.01,0.26,0.14,0.5,0.38,0.6c1.99,0.84,4.42,1.44,7.21,1.86c0.5,0.08,1-0.07,1.38-0.38 C37.42,240.79,37.65,240.32,37.67,239.82C37.67,239.82,37.67,239.82,37.67,239.82"/>
<path d="M32.84,241.77c0,0,2.79-0.31,3.86-0.43c0.16-0.02,0.31-0.1,0.42-0.23c0.1-0.13,0.15-0.29,0.13-0.46 c-0.11-0.58-0.51-0.85-1.29-0.8c-0.11,0.01-0.21,0.04-0.31,0.1C35.13,240.26,32.84,241.77,32.84,241.77"/>
<path d="M25.81,239.72c0,0,2.43-0.21,3.42-0.3c0.2-0.02,0.37-0.13,0.48-0.29c0.1-0.17,0.12-0.38,0.04-0.56 c-0.21-0.27-0.52-0.42-1.03-0.39c-0.1,0-0.2,0.03-0.28,0.08C28,238.47,25.81,239.72,25.81,239.72"/>
</g></g>
</g>
<g id="FootDecals" mask="url(#FootMask)">
</g>
<g id="Knees">
<g id="Left-Knee"><g id="Basic_Knee_Left" class="option" style="display: inherit;">
<g id="Missiles_Basic-Knee_Left" class="toggle" style="">
<path id="Base_Missiles_Basic-Knee_Left" d="M117.84,156.71c0.01,0.04,0.02,0.08,0.02,0.12 c0.19,1.94,0.54,6.05,0.4,9.6l2.31-1.38c0.37-0.22,0.6-0.63,0.59-1.06c-0.03-1.32-0.09-4.18-0.13-5.69 c-0.01-0.57-0.42-1.05-0.98-1.16L117.84,156.71z" fill="rgb(85, 82, 82)"/>
<g id="Missile-2_Missiles_Basic-Knee_Left" fill="rgb(145, 33, 0)">
<path d="M119.46,162.27c-0.57,0.07-0.97,0.58-0.9,1.15c0.07,0.57,0.59,0.97,1.16,0.9c0.57-0.07,0.97-0.58,0.9-1.15 C120.55,162.6,120.03,162.2,119.46,162.27z"/>
<path d="M119.51,162.6c-0.38,0.04-0.65,0.39-0.61,0.77c0.05,0.38,0.4,0.65,0.78,0.61 c0.38-0.05,0.65-0.39,0.61-0.77C120.25,162.83,119.9,162.55,119.51,162.6z"/>
</g>
<g id="Missile-1_Missiles_Basic-Knee_Left" fill="rgb(145, 33, 0)">
<path d="M119.33,157.78c-0.57,0.07-0.97,0.58-0.9,1.15c0.07,0.57,0.59,0.97,1.16,0.9s0.97-0.58,0.9-1.15 C120.42,158.12,119.9,157.71,119.33,157.78z"/>
<path d="M119.38,158.12c-0.38,0.04-0.65,0.39-0.6,0.77c0.05,0.38,0.4,0.65,0.78,0.61 c0.38-0.05,0.65-0.39,0.61-0.77C120.11,158.34,119.76,158.07,119.38,158.12z"/>
</g>
</g>
<g id="Knee_Basic-Knee_Left" fill="rgb(85, 82, 82)">
<path d="M96.42,158.84l1.43-0.23c0,0,1.08,6.92,1.56,9.99c0.12,0.79-0.42,1.54-1.21,1.66c0,0,0,0,0,0L96.42,158.84z "/>
<path d="M97.81,158.32l0.82,5.14c1.05-0.59,3.7,0.5,4.57,3.58c1.59,5.67,2.97,6.97,7.95,6.46 c3.87-0.4,6.64-2.2,6.96-4.87c0.46-3.85,0-9.43-0.23-11.79c-0.03-0.29-0.18-0.56-0.41-0.74c-0.23-0.18-0.53-0.26-0.82-0.23 C112.43,156.41,97.81,158.32,97.81,158.32z"/>
<path d="M97.31,158.39l0.49-0.07l0.92,5.56l-0.49,0.07L97.31,158.39z"/>
</g>
</g>
</g>
<g id="Right-Knee"><g id="Basic_Knee_Right" class="option" style="display: inherit;">
<g id="Missiles_Basic-Knee_Right" class="toggle" style="">
<path id="Base_Missiles_Basic-Knee_Right" d="M52.05,156.71c-0.01,0.04-0.02,0.08-0.02,0.12 c-0.19,1.94-0.54,6.05-0.4,9.6l-2.31-1.38c-0.37-0.22-0.6-0.63-0.59-1.06c0.03-1.32,0.09-4.18,0.13-5.69 c0.01-0.57,0.42-1.05,0.98-1.16L52.05,156.71z" fill="rgb(85, 82, 82)"/>
<g id="Missile-2_Missiles_Basic-Knee_Right" fill="rgb(145, 33, 0)">
<path d="M50.43,162.27c0.57,0.07,0.97,0.58,0.9,1.15c-0.07,0.57-0.59,0.97-1.16,0.9c-0.57-0.07-0.97-0.58-0.9-1.15 C49.34,162.6,49.86,162.2,50.43,162.27z"/>
<path d="M50.38,162.6c0.38,0.04,0.65,0.39,0.61,0.77c-0.05,0.38-0.4,0.65-0.78,0.61 c-0.38-0.05-0.65-0.39-0.61-0.77C49.65,162.83,50,162.55,50.38,162.6z"/>
</g>
<g id="Missile-1_Missiles_Basic-Knee_Right" fill="rgb(145, 33, 0)">
<path d="M50.56,157.78c0.57,0.07,0.97,0.58,0.9,1.15c-0.07,0.57-0.59,0.97-1.16,0.9s-0.97-0.58-0.9-1.15 C49.47,158.12,49.99,157.71,50.56,157.78z"/>
<path d="M50.51,158.12c0.38,0.04,0.65,0.39,0.61,0.77s-0.4,0.65-0.78,0.61c-0.38-0.05-0.65-0.39-0.61-0.77 S50.13,158.07,50.51,158.12z"/>
</g>
</g>
<g id="Knee_Basic-Knee_Right" fill="rgb(85, 82, 82)">
<path d="M73.47,158.84l-1.43-0.23c0,0-1.08,6.92-1.56,9.99c-0.12,0.79,0.42,1.54,1.21,1.66c0,0,0,0,0,0 L73.47,158.84z"/>
<path d="M72.09,158.32l-0.82,5.14c-1.05-0.59-3.7,0.5-4.57,3.58c-1.59,5.67-2.97,6.97-7.95,6.46 c-3.87-0.4-6.64-2.2-6.96-4.87c-0.46-3.85,0-9.43,0.23-11.79c0.03-0.29,0.18-0.56,0.41-0.74c0.23-0.18,0.53-0.26,0.82-0.23 C57.46,156.41,72.09,158.32,72.09,158.32z"/>
<path d="M72.58,158.39l-0.49-0.07l-0.92,5.56l0.49,0.07L72.58,158.39z"/>
</g>
</g>
</g>
</g>
<g id="KneesDecals" mask="url(#KneesMask)">
</g>
<g id="Thighs">
<g id="Left-Thigh"><g id="Basic_Thigh_Left" class="option" style="display: inherit;">
<path id="Thigh_Basic-Thigh_Left" d="M120.21,115.6c0,0-5.03-6.43-7.59-7.49c-2.43-1.01-5.69-0.58-7.78,1.09 c-3.19,2.54-10.51,8.04-11.35,14.16c-0.93,6.83,4.08,21.95,5.78,26.84c0.58,1.66,2.77,2.41,4.44,2.48 c3.1,0.12,11.57-0.15,13.59-4.69C120.05,141.81,120.21,115.6,120.21,115.6" fill="rgb(44, 44, 44)"/>
<path id="Trauma-Plate_Basic-Thigh_Left" class="toggle" style="display:none" d="M118.5,116.19c-0.75-0.93-2.56-3.1-4.3-4.77 c-0.83-0.79-1.62-1.49-2.25-1.75c-1.9-0.79-4.44-0.45-6.06,0.85c-1.85,1.47-5.15,3.97-7.66,7.02c-1.52,1.85-2.77,3.9-3.07,6.05 c-0.9,6.64,4.05,21.31,5.7,26.06c0.14,0.42,0.54,0.67,0.95,0.87c0.61,0.3,1.33,0.45,1.94,0.47c1.73,0.07,5.27,0.02,8.23-0.96 c1.63-0.54,3.12-1.33,3.75-2.73c0.78-1.75,1.3-5.22,1.7-9.2C118.31,129.59,118.47,118.81,118.5,116.19" fill="rgb(255, 255, 255)"/>
<g id="Ridge_Basic-Thigh_Left" class="toggle" style="" fill="rgb(145, 33, 0)">
<path d="M111.72,107.57l-3.48-0.89l-3.64,1.99l1.18,44.01c2.4,0.46,2.43,0.55,4.54-0.08L111.72,107.57"/>
<path d="M108.28,106.69l-0.1,46.36"/>
</g>
</g>
</g>
<g id="Right-Thigh"><g id="Basic_Thigh_Right" class="option" style="display: inherit;">
<path id="Thigh_Basic-Thigh_Right" d="M49.69,115.6c0,0,5.03-6.43,7.59-7.49c2.43-1.01,5.69-0.58,7.78,1.09 c3.19,2.54,10.51,8.04,11.35,14.16c0.93,6.83-4.08,21.95-5.78,26.84c-0.58,1.66-2.77,2.41-4.44,2.48 c-3.1,0.12-11.57-0.15-13.59-4.69C49.85,141.81,49.69,115.6,49.69,115.6" fill="rgb(44, 44, 44)"/>
<path id="Trauma-Plate_Basic-Thigh_Right" class="toggle" style="display:none" d="M51.39,116.19c0.75-0.93,2.56-3.1,4.3-4.77 c0.83-0.79,1.62-1.49,2.25-1.75c1.9-0.79,4.44-0.45,6.06,0.85c1.85,1.47,5.15,3.97,7.66,7.02c1.52,1.85,2.77,3.9,3.07,6.05 c0.9,6.64-4.05,21.31-5.7,26.06c-0.14,0.42-0.54,0.67-0.95,0.87c-0.61,0.3-1.33,0.45-1.94,0.47c-1.73,0.07-5.27,0.02-8.23-0.96 c-1.63-0.54-3.12-1.33-3.75-2.73c-0.78-1.75-1.3-5.22-1.7-9.2C51.59,129.59,51.42,118.81,51.39,116.19" fill="rgb(255, 255, 255)"/>
<g id="Ridge_Basic-Thigh_Right" class="toggle" style="" fill="rgb(145, 33, 0)">
<path d="M58.17,107.57l3.48-0.89l3.64,1.99l-1.18,44.01c-2.4,0.46-2.43,0.55-4.54-0.08L58.17,107.57"/>
<path d="M61.62,106.69l0.1,46.36"/>
</g>
</g>
</g>
</g>
<g id="ThighsDecals" mask="url(#ThighsMask)">
</g>
<g id="Groin"><g id="Basic_Groin" class="option" style="display: inherit;">
<path id="Groin-Plate_Basic" d="M78.67,122.29L68.22,99.4h33.42l-10.45,22.89l-6.26,5.46L78.67,122.29z" fill="rgb(85, 82, 82)"/>
<path id="Trauma-Plating_Groin" class="toggle" style="display:none" d="M79.77,120.38l-8.61-18.86H98.7l-8.61,18.86l-5.16,4.49L79.77,120.38z" fill="rgb(255, 255, 255)"/>
</g>
</g>
<g id="GroinDecals" mask="url(#GroinMask)">
</g>
<g id="Waist">
<g id="Accessories_Waist">
<g id="Kama" class="toggle" style="display:none"/>
<g id="Loin-Cloth" class="toggle" style="display:none"/>
<g id="Left-Holster" class="toggle" style="display:none"/>
<g id="Right-Holster" class="toggle" style=""><g id="Hanging-Holster_Right" class="option" style="display: inherit;">
<g id="Weapon_Hanging-Holster-Right">
<g id="Main_Weapon_Hanging-Holster-Right" fill="rgb(75, 71, 71)">
<path d="M52.77,122.65l-0.17-3.6l-0.62,0.03l-0.11-2.26l0.62-0.03l-0.05-1.18c-0.02-0.38-0.54-0.67-1.18-0.64 c-1.45,0.07-3.93,0.18-5.38,0.25c-0.63,0.03-1.13,0.36-1.11,0.75l0.06,1.18l0.62-0.03l0.11,2.26l-0.62,0.03l0.17,3.6 l1.47-0.07l0.46,9.96l4.74-0.22l-0.46-9.96L52.77,122.65z"/>
<path d="M45.7,122.45l0.84-0.04l0.56,11.97l4.74-0.22l-0.56-11.98l0.84-0.04L52,119.42l-6.42,0.29L45.7,122.45z"/>
<path d="M46.72,115.96l3.8-0.17l0.17,3.7l-3.8,0.17L46.72,115.96z"/>
<path d="M50.24,123.32l0.62-0.03l0.44,9.41l-0.62,0.03L50.24,123.32z"/>
<path d="M48.55,121.25l0.62-0.03l0.44,9.41l-0.62,0.03L48.55,121.25z"/>
<path d="M47.06,123.47l0.62-0.03l0.44,9.41l-0.62,0.03L47.06,123.47z"/>
</g>
<g id="Accent_Weapon_Hanging-Holster-Right" fill="rgb(99, 95, 95)">
<path d="M50.15,119.89l0.02,0.38l-2.68,0.12l-0.02-0.38L50.15,119.89z"/>
<path d="M50.16,120.26l0.02,0.38l-2.68,0.12l-0.02-0.38L50.16,120.26z"/>
<path d="M50.13,119.51l0.02,0.38l-2.68,0.12l-0.02-0.38L50.13,119.51z"/>
<path d="M49.91,114.87l0.02,0.38l-2.68,0.12L47.23,115L49.91,114.87z"/>
<path d="M49.89,115.82l0.62-0.03l0.17,3.7l-0.62,0.03L49.89,115.82z"/>
<path d="M46.72,115.96l0.62-0.03l0.17,3.7l-0.62,0.03L46.72,115.96z"/>
<path d="M47.69,123.44l0.95-0.04l0.44,9.42l-0.95,0.04L47.69,123.44z"/>
<path d="M49.29,123.36l0.95-0.04l0.44,9.41l-0.95,0.04L49.29,123.36z"/>
</g>
</g>
<path id="Holster_Hanging-Holster-Right" d="M52.74,136.53l0.76-15.17l-7.05,11.42l1.56,20.64 c1.64,1.71,3.26,1.73,4.85-0.18L52.74,136.53z" fill="rgb(47, 46, 46)"/>
<g id="Straps_Hanging-Holster-Right" fill="rgb(29, 25, 23)">
<path d="M79.7,96.9c-7.71,11-15.47,20.31-26.2,24.47l-0.13,2.6c13.34-5.59,20.49-15.06,28.38-27.07H79.7z"/>
<path d="M52.78,139.62c7.21,5.49,15.01,8.47,24.34,8.98l-0.67,2.06c-8.08-0.73-15.62-3.7-23.68-8.87V139.62z"/>
<path d="M52.78,141.79l-0.02-2.17c-1.87,0.83-4.05,0.89-5.77,0.28l0.17,2.21C49,142.59,51.1,142.62,52.78,141.79z"/>
</g>
<g id="Buckle_Hanging-Holster-Right" fill="rgb(47, 46, 46)">
<path d="M69.64,148.49l1.01,0.15l-0.05,0.33l-1.01-0.15L69.64,148.49"/>
<path d="M72.39,108l0.7-0.92l0.27,0.2l-0.7,0.92L72.39,108"/>
<path d="M72.66,108.21l1.15,0.92l2.7-3.31l-2.6-2.1l-2.7,3.31L72.4,108l0.58-0.76l-0.58-0.47l1.49-1.83l1.43,1.15 l-1.49,1.83l-0.59-0.47L72.66,108.21"/>
<path d="M69.67,148.49l0.8,0.12l0.12-0.78l1.94,0.41l-0.27,1.81l-1.94-0.41l0.1-0.7l-0.8-0.12l-0.21,1.39 l3.52,0.75l0.49-3.28l-3.52-0.75L69.67,148.49"/>
</g>
</g></g>
<g id="Left-Trophy" class="toggle" style="display:none"/>
<g id="Right-Trophy" class="toggle" style="display:none"/>
</g>
<g id="Under-Belt"><g id="Girth-Belt" class="option" fill="rgb(41, 84, 116)" style="display: inherit;">
<path d="M84.93,84.93c-9.33,0-27.98-2.25-27.98-2.25l0.61-1.91c0,0,18.19,1.5,27.37,2.25 c9.13-0.75,27.37-2.25,27.37-2.25l0.6,1.91C112.91,82.68,94.25,84.93,84.93,84.93z"/>
<path d="M84.93,86.84c-9.52,0-28.56-2.25-28.56-2.25l0.58-1.91c0,0,23.31,1.88,27.98,2.25 c4.66-0.38,27.98-2.25,27.98-2.25l0.58,1.91C113.49,84.59,94.45,86.84,84.93,86.84z"/>
<path d="M84.93,88.75c-9.67,0-28.99-2.25-28.99-2.25l0.43-1.91c0,0,23.8,1.88,28.56,2.25 c4.76-0.38,28.56-2.25,28.56-2.25l0.43,1.91C113.92,86.49,94.6,88.75,84.93,88.75z"/>
<path d="M84.93,90.65c-9.79,0-29.36-2.25-29.36-2.25l0.37-1.91c0,0,24.16,1.88,28.99,2.25 c4.83-0.38,28.99-2.25,28.99-2.25l0.37,1.91C114.29,88.4,94.72,90.65,84.93,90.65z"/>
<path d="M84.93,92.56c-9.9,0-29.69-2.25-29.69-2.25l0.33-1.91c0,0,24.47,1.88,29.36,2.25 c4.89-0.38,29.36-2.25,29.36-2.25l0.33,1.91C114.62,90.31,94.83,92.56,84.93,92.56z"/>
<path d="M84.93,94.47c-10,0-30-2.25-30-2.25l0.31-1.91c0,0,24.74,1.88,29.69,2.25c4.95-0.38,29.69-2.25,29.69-2.25 l0.31,1.91C114.93,92.21,94.93,94.47,84.93,94.47z"/>
<path d="M84.93,96.37c-10.1,0-30.31-2.25-30.31-2.25l0.31-1.91c0,0,25,1.88,30,2.25c5-0.38,30-2.25,30-2.25 l0.31,1.91C115.24,94.12,95.03,96.37,84.93,96.37z"/>
<path d="M84.93,98.28c-10.21,0-30.62-2.25-30.62-2.25l0.32-1.91c0,0,25.26,1.88,30.31,2.25 c5.05-0.38,30.31-2.25,30.31-2.25l0.32,1.91C115.55,96.03,95.14,98.28,84.93,98.28z"/>
<path d="M84.93,100.19c-10.32,0-30.97-2.25-30.97-2.25l0.34-1.91c0,0,25.52,1.88,30.62,2.25 c5.1-0.38,30.62-2.25,30.62-2.25l0.35,1.91C115.9,97.93,95.25,100.19,84.93,100.19z"/>
<path d="M84.93,102.09c-10.45,0-31.36-2.25-31.36-2.25l0.39-1.91c0,0,25.81,1.88,30.97,2.25 c5.16-0.38,30.97-2.25,30.97-2.25l0.39,1.91C116.29,99.84,95.38,102.09,84.93,102.09z"/>
</g>
</g>
<g id="Belt">
<g id="Pouch-Belt-Full" class="option" style="display: inherit;">
<path id="Main_Pouch-Belt-Full" d="M115.21,92.96c-6.82,0.61-22.4,2.82-30.27,2.82c-7.94,0-23.52-2.23-30.26-2.82 l1.01-7.93c5.53,0.49,21.56,2.74,29.26,2.74c7.47,0,23.17-2.23,29.07-2.76L115.21,92.96z" fill="rgb(23, 20, 20)"/>
<g id="Pouches_Pouch-Belt-Full" fill="rgb(39, 34, 31)">
<g>
<g>
<g>
<path d="M70.81,84.99c-0.29-0.02-0.58,0.03-0.84,0.13c-0.71,0.28-2.1,0.82-2.1,0.82l8.08,0.46l2.19-0.93 C78.13,85.47,72.44,85.1,70.81,84.99z"/>
<path d="M78.41,85.74c0.01-0.09-0.03-0.17-0.1-0.22c-0.07-0.05-0.16-0.06-0.24-0.03 c-0.7,0.3-2.14,0.91-2.14,0.91l-1.05,12.41c0.72-0.42,1.44-0.69,2.15-0.84c0.41-0.08,0.7-0.43,0.71-0.85 C77.88,93.32,78.03,89.52,78.41,85.74z"/>
<path d="M75.94,86.4l-8.08-0.46c-0.05,1.89-0.23,3.77-0.33,5.65c-0.11,2.08-0.15,4.18-0.34,6.28 c-0.01,0.15,0.04,0.3,0.14,0.41c0.1,0.11,0.25,0.17,0.4,0.17c2.32-0.01,4.63,0.13,6.93,0.4c0.14,0.02,0.29-0.03,0.4-0.12 c0.11-0.09,0.18-0.23,0.19-0.37c0.1-1.47,0.37-5.34,0.37-5.34L75.94,86.4z"/>
<path d="M75.94,86.4l-8.08-0.46c0,0-0.19,1.59-0.38,3.14c-0.09,0.75,0.13,1.51,0.62,2.09 c0.49,0.58,1.2,0.94,1.96,0.98c0.96,0.05,2.01,0.11,2.97,0.17c0.76,0.04,1.51-0.23,2.07-0.75c0.55-0.52,0.86-1.25,0.86-2.01 C75.95,88,75.94,86.4,75.94,86.4z"/>
<path d="M71.64,90.76c0.29,0.02,0.51,0.26,0.49,0.55c-0.02,0.29-0.26,0.5-0.55,0.49 c-0.29-0.02-0.51-0.26-0.49-0.55S71.36,90.75,71.64,90.76z"/>
</g>
</g>
<g>
<g>
<path d="M59.65,83.48c-0.31-0.02-0.62,0.03-0.91,0.16c-0.67,0.29-1.86,0.81-1.86,0.81l7.38,0.42l2-0.95 C66.26,83.92,61.24,83.58,59.65,83.48z"/>
<path d="M66.52,84.2c0.01-0.09-0.03-0.17-0.1-0.22c-0.07-0.05-0.17-0.06-0.24-0.02c-0.66,0.31-1.91,0.9-1.91,0.9 l-1.02,12.42c0.65-0.41,1.29-0.68,1.93-0.85c0.39-0.09,0.68-0.44,0.69-0.84C65.99,91.79,66.15,87.99,66.52,84.2z"/>
<path d="M64.26,84.86l-7.38-0.42c-0.06,1.89-0.23,3.77-0.33,5.65c-0.11,2.08-0.16,4.17-0.34,6.28 c-0.01,0.15,0.04,0.3,0.14,0.41c0.1,0.11,0.25,0.17,0.4,0.17c2.08-0.01,4.15,0.11,6.22,0.36c0.14,0.02,0.29-0.02,0.4-0.12 c0.11-0.09,0.18-0.23,0.19-0.37c0.1-1.47,0.37-5.34,0.37-5.34L64.26,84.86z"/>
<path d="M64.26,84.86l-7.38-0.42c0,0-0.18,1.6-0.36,3.15c-0.09,0.75,0.14,1.5,0.63,2.08 c0.49,0.58,1.2,0.93,1.96,0.97c0.73,0.04,1.51,0.09,2.23,0.13c0.76,0.04,1.51-0.23,2.06-0.75c0.55-0.52,0.87-1.24,0.86-2 C64.26,86.47,64.26,84.86,64.26,84.86z"/>
<path d="M60.31,89.24c0.26,0.01,0.46,0.26,0.44,0.54c-0.02,0.29-0.24,0.51-0.5,0.49 c-0.26-0.01-0.46-0.26-0.44-0.54C59.83,89.44,60.05,89.22,60.31,89.24z"/>
</g>
</g>
<g>
<path d="M52.22,84.3l0.55-0.85l2.83,0.09l0.35,1.06L52.22,84.3z"/>
<path d="M55.93,84.7c0.01-0.07-0.01-0.13-0.06-0.18s-0.11-0.08-0.17-0.08c-0.85-0.03-3.48-0.13-3.48-0.13 l-0.5,11.17c0.11,0.28,1.53,0.46,2.68,0.49c0.5,0.01,0.91-0.38,0.92-0.88C55.4,91.61,55.53,88.15,55.93,84.7z"/>
</g>
</g>
<g>
<g>
<g>
<path d="M99.08,84.99c0.29-0.02,0.58,0.03,0.85,0.13c0.71,0.28,2.1,0.82,2.1,0.82l-8.08,0.46l-2.19-0.93 C91.76,85.47,97.45,85.1,99.08,84.99z"/>
<path d="M91.48,85.74c-0.01-0.09,0.03-0.17,0.1-0.22c0.07-0.05,0.16-0.06,0.24-0.03c0.7,0.3,2.14,0.91,2.14,0.91 L95,98.82c-0.72-0.42-1.44-0.69-2.15-0.84c-0.41-0.08-0.7-0.43-0.71-0.85C92.01,93.32,91.86,89.52,91.48,85.74z"/>
<path d="M93.95,86.4l8.08-0.46c0.05,1.89,0.23,3.77,0.33,5.65c0.11,2.08,0.15,4.18,0.34,6.28 c0.01,0.15-0.04,0.3-0.14,0.41c-0.1,0.11-0.25,0.17-0.4,0.17c-2.32-0.01-4.63,0.13-6.93,0.4c-0.14,0.02-0.29-0.03-0.4-0.12 c-0.11-0.09-0.18-0.23-0.19-0.37c-0.1-1.47-0.37-5.34-0.37-5.34L93.95,86.4z"/>
<path d="M93.95,86.4l8.08-0.46c0,0,0.19,1.59,0.38,3.14c0.09,0.75-0.14,1.51-0.62,2.09 c-0.49,0.58-1.2,0.94-1.96,0.98c-0.96,0.05-2.01,0.11-2.97,0.17c-0.76,0.04-1.51-0.23-2.06-0.75s-0.87-1.25-0.86-2.01 C93.94,88,93.95,86.4,93.95,86.4z"/>
<path d="M98.25,90.76c-0.29,0.02-0.51,0.26-0.49,0.55c0.02,0.29,0.26,0.5,0.55,0.49 c0.29-0.02,0.51-0.26,0.49-0.55C98.78,90.96,98.54,90.75,98.25,90.76z"/>
</g>
</g>
<g>
<g>
<path d="M110.24,83.48c0.31-0.02,0.62,0.03,0.91,0.16c0.67,0.29,1.86,0.81,1.86,0.81l-7.38,0.42l-2-0.95 C103.63,83.92,108.65,83.58,110.24,83.48z"/>
<path d="M103.37,84.2c-0.01-0.09,0.03-0.17,0.1-0.22c0.07-0.05,0.17-0.06,0.24-0.02c0.66,0.31,1.91,0.9,1.91,0.9 l1.02,12.42c-0.65-0.41-1.29-0.68-1.93-0.85c-0.39-0.09-0.68-0.44-0.69-0.84C103.9,91.79,103.74,87.99,103.37,84.2z"/>
<path d="M105.63,84.86l7.38-0.42c0.06,1.89,0.23,3.77,0.33,5.65c0.11,2.08,0.16,4.17,0.34,6.28 c0.01,0.15-0.04,0.3-0.14,0.41c-0.1,0.11-0.25,0.17-0.4,0.17c-2.08-0.01-4.15,0.11-6.22,0.36c-0.14,0.02-0.29-0.02-0.4-0.12 c-0.11-0.09-0.18-0.23-0.19-0.37c-0.1-1.47-0.37-5.34-0.37-5.34L105.63,84.86z"/>
<path d="M105.63,84.86l7.38-0.42c0,0,0.18,1.6,0.36,3.15c0.09,0.75-0.14,1.5-0.63,2.08 c-0.49,0.58-1.2,0.93-1.96,0.97c-0.72,0.04-1.5,0.09-2.23,0.13c-0.76,0.04-1.51-0.23-2.06-0.75c-0.55-0.52-0.87-1.24-0.86-2 C105.63,86.47,105.63,84.86,105.63,84.86z"/>
<path d="M109.58,89.24c-0.26,0.01-0.46,0.26-0.44,0.54c0.02,0.29,0.24,0.51,0.5,0.49s0.46-0.26,0.44-0.54 C110.07,89.44,109.84,89.22,109.58,89.24z"/>
</g>
</g>
<g>
<path d="M117.67,84.3l-0.55-0.85l-2.83,0.09l-0.35,1.06L117.67,84.3z"/>
<path d="M113.96,84.7c-0.01-0.07,0.01-0.13,0.06-0.18s0.11-0.08,0.18-0.08c0.85-0.03,3.48-0.13,3.48-0.13 l0.5,11.17c-0.11,0.28-1.53,0.46-2.68,0.49c-0.5,0.01-0.91-0.38-0.92-0.88C114.49,91.61,114.36,88.15,113.96,84.7z"/>
</g>
</g>
<path d="M88.56,85.67l1.11,1.08l-9.15-0.17l0.71-1L88.56,85.67z"/>
<path d="M80.52,86.58l9.12,0.17c-0.1,1.97-0.06,3.93-0.11,5.9c-0.06,2.18-0.18,4.37-0.15,6.57 c0,0.15-0.06,0.3-0.17,0.4c-0.11,0.1-0.26,0.16-0.41,0.15c-2.65-0.2-5.31-0.25-7.97-0.15c-0.14,0-0.28-0.05-0.39-0.15 c-0.1-0.1-0.16-0.24-0.16-0.38c0.01-1.51,0.03-5.6,0.03-5.6L80.52,86.58z"/>
<path d="M80.52,86.58l9.12,0.17c0,0,0.08,1.74,0.17,3.4c0.04,0.76-0.25,1.5-0.78,2.05 c-0.53,0.55-1.27,0.85-2.04,0.83c-1.28-0.02-2.79-0.05-4.07-0.08c-0.77-0.01-1.49-0.35-2.01-0.91c-0.51-0.57-0.76-1.32-0.7-2.08 C80.36,88.31,80.52,86.58,80.52,86.58z"/>
<path d="M84.98,91.45c-0.32-0.01-0.59,0.23-0.6,0.53c0,0.3,0.25,0.54,0.58,0.55c0.32,0.01,0.59-0.23,0.6-0.53 C85.56,91.7,85.3,91.46,84.98,91.45z"/>
</g>
</g></g>
</g>
<g id="WaistDecals" mask="url(#WaistMask)">
</g>
<g id="Extras_Front">
<g id="Front">
<g id="Shoulder-Cape-Left_Front" class="option" fill="rgb(25, 30, 33)" style="display: inherit;">
<path d="M110.7,53.57c-0.9-5.7-11.16-37,0.4-41.6c2.21-0.9,6.74,0.5,7.75,0.6c2.31,0.1,12.37,10,13.58,11.9 c1.51,2.4,2.31,4.6,3.92,7.3c4.63,7.6,7.54,13,9.96,20.6c2.21,6.9,4.93,14.3,7.34,20.9c2.82,7.5,4.12,12.7,6.54,20.3 c1.31,4.1,3.22,12.7,5.13,20.7c1.71,7.2,5.03,13,0.91,15.6c-4.12,2.7-9.96,9.3-14.08,12.2c-4.23,3.1-20.52,1.2-24.44,3.7 c-1.21,0.8-9.25,0.9-9.25,0.7c0.5-2.4,1.41-8.7,0.5-15.6c-1.11-8.7-1.31-14.6-2.31-23.3c-0.7-5.8-0.1-8.8-1.31-14.5 c-1.31-6.3-0.7-13.6-2.41-19.8C111.2,66.97,111.81,59.97,110.7,53.57z"/>
<path d="M144.5,95.47c-0.9-3.5-2.21-8.6-0.7-12.2c1.21-2.8,6.34,3.2,6.74,4.4c1.01,3.2-0.2,6.8-0.6,10 c-0.4,3.6-0.3,7.2,0.4,10.8c0.91,4.4,1.91,8.8,3.62,12.9c2.01,4.7,5.23,9,5.43,14.3"/>
<path d="M138.26,136.47c-0.8,0.8-1.71,1.1-2.92,0.9c-5.53-0.6-6.24-9.9-6.03-14.1c0.5-6.7,1.91-13.3,1.41-20.1 c-0.7-9.2-4.22-19.4-5.63-28.7c-1.11-7.1-0.7-14.5-2.31-21.4c-1.01-4.5-9.25-23.3-11.87-26.8"/>
<path d="M128.3,40.87c3.02,7.8,5.94,14.9,6.84,23.3c0.5,4.8,0.8,9.6,0.7,14.4c-0.1,3.5-0.6,7.1-0.1,10.6 c1.21,7.5,5.63,14.3,7.04,21.8"/>
<path d="M157.88,103.37c0.2,9.7,4.43,18.3,7.04,27.4"/>
<path d="M130.32,21.87c1.91,3.2,1.91,6.8,2.62,10.2c0.7,3.4,0.6,7.1,1.91,10.4c1.31,3.2,3.62,5.9,5.43,8.9 c2.82,4.8,3.82,10.1,4.33,15.6"/>
</g></g>
</g>
<g id="Extras-FrontDecals" mask="url(#FrontMask)">
</g>
</g>
</svg>