<?xml version='1.0' encoding='UTF-8'?><svg version='1.1' xmlns='http://www.w3.org/2000/svg'><metadata><rdf:rdf xmlns:rdf="http://www.w3.org/1999/02/22-rdf-syntax-ns#" xmlns:rdfs="http://www.w3.org/2000/01/rdf-schema#" xmlns:dc="http://purl.org/dc/elements/1.1/"> <rdf:description> <dc:creator>MandoCreator</dc:creator> <dc:publisher>https://www.mandocreator.com</dc:publisher> <dc:description>Your Beskar'gam - created by MandoCreator</dc:description> <dc:format>image/svg+xml</dc:format> <dc:type>Image</dc:type> <dc:title>MandoCreator - Ner Berskar'gam</dc:title> <dc:date>2021-10-08T16:35:01.577Z</dc:date> </rdf:description> </rdf:rdf></metadata><svg version="1.1" id="Male" xmlns="http://www.w3.org/2000/svg" xmlns:xlink="http://www.w3.org/1999/xlink" x="0px" y="0px" viewBox="0 -55 169 300" style="fill: white; fill-rule: evenodd; stroke: black; stroke-width: 0.2px; pointer-events: none; position: relative; height: 100%;">
<g id="Extras_Back">
<g id="Back"><g id="NO-CAPES_Back" class="option" style="display: inherit;">
</g>
</g>
</g>
<g id="Suit">
<g id="Neck-Seal">
<g id="Standard-Neck-Seal" class="option" style="fill: rgb(30, 36, 43); display: inherit;">
<path d="M98,7.5c0-0.9-0.9-1.6-2.1-1.6c0,0-7.8,0.9-11.6,0.9c-3.9,0-11.6-0.9-11.6-0.9c-1.1,0-2.1,0.7-2.1,1.6 s0.9,1.6,2.1,1.6c0,0,7.8,0.9,11.6,0.9C88.2,10,96,9.2,96,9.2C97.1,9.2,98,8.4,98,7.5z"/>
<path d="M98.7,9.4c0-0.9-1-1.7-2.2-1.7c0,0-8.1,0.9-12.2,0.9c-4.1,0-12.2-0.9-12.2-0.9c-1.2,0-2.2,0.8-2.2,1.7 c0,0.9,1,1.7,2.2,1.7c0,0,8.1,0.9,12.2,0.9c4.1,0,12.2-0.9,12.2-0.9C97.8,11.1,98.7,10.4,98.7,9.4z"/>
<path d="M99.5,11.8c0-1-1-1.8-2.3-1.8c0,0-8.6,0.9-12.9,0.9C80,10.9,71.4,10,71.4,10c-1.3,0-2.3,0.8-2.3,1.8 s1,1.8,2.3,1.8c0,0,8.6,0.9,12.9,0.9c4.3,0,12.9-0.9,12.9-0.9C98.5,13.6,99.5,12.8,99.5,11.8z"/>
<path d="M100.3,13.9c0-1-1.1-1.9-2.4-1.9c0,0-9,1-13.5,1s-13.5-1-13.5-1c-1.3,0-2.4,0.8-2.4,1.9s1.1,1.9,2.4,1.9 c0,0,9,1,13.5,1s13.5-1,13.5-1C99.2,15.8,100.3,15,100.3,13.9z"/>
<path d="M101,16.1c0-0.8-1.1-1.4-2.5-1.4c0,0-9.4,0.7-14.2,0.7c-4.8,0-14.2-0.7-14.2-0.7c-1.4,0-2.5,0.6-2.5,1.4 c0,0.8,1.1,1.4,2.5,1.4c0,0,9.4,0.8,14.2,0.8c4.8,0,14.2-0.8,14.2-0.8C99.9,17.5,101,16.9,101,16.1z"/>
<path d="M101,18.4c0-0.8-1.1-1.4-2.5-1.4c0,0-9.4,0.7-14.2,0.7c-4.8,0-14.2-0.7-14.2-0.7c-1.4,0-2.5,0.6-2.5,1.4 c0,0.8,1.1,1.4,2.5,1.4c0,0,9.4,1.4,14.2,1.4c4.8,0,14.2-1.4,14.2-1.4C99.9,19.9,101,19.2,101,18.4z"/>
</g>
</g>
<g id="Flight-Suit" style="fill: rgb(88, 92, 97);">
<path d="M72.8,158.4l-1.5,8.7l-11,53.1c0,0-4.9,3-7.4,3.5s-7.7-0.4-7.7-0.4l3.8-43l2.9-18.4l0.7-7.8 c0,0-2.5-22.8-1.7-34.1c0.8-11.4,6.6-34,6.6-34l26.8,0.6l26.8-0.6c0,0,5.8,22.6,6.6,34c0.8,11.4-1.7,34.1-1.7,34.1l0.7,7.8 l2.9,18.4l3.8,43c0,0-5.3,1.2-7.8,0.7s-7.3-3.7-7.3-3.7l-11-53.1l-1.5-8.7l-11.6-30.3L72.8,158.4z"/>
<g>
<path d="M128.5,43.3l11.9,41.6l1,21.5l-9.5,1.8l-6-20.2l-13.6-33.9l0.7-15.5l2.3-3.7L128.5,43.3z"/>
<path d="M40.3,43.3l13.1-8.4l2.3,3.7l0.5,16L42.8,88l-6,20.2l-9.5-1.8l1-21.5L40.3,43.3z"/>
</g>
</g>
<g id="Sleeves" class="toggle" style="fill: rgb(39, 45, 53);">
<g>
<path d="M111.4,56.1l2.7,5.9c0,0,4.2-3.2,7-4.8c2.8-1.6,4.3-2.6,6.9-3.6c2.5-1,5-1.5,5-1.5l-6-12.2l-5.8-9.7 l-11.5,5.1L111.4,56.1z"/>
<path d="M112.8,59.2c-0.2-0.2,5-4.5,8.6-6.3c3.5-1.8,10.2-3.7,10.2-3.7"/>
</g>
<g>
<path d="M57.3,56.1L54.6,62c0,0-4.2-3.2-7-4.8c-2.8-1.6-4.4-2.6-6.9-3.6s-5-1.5-5-1.5l6-12.2l5.8-9.7L59,35.4 L57.3,56.1z"/>
<path d="M55.9,59.2c0.2-0.2-5-4.5-8.6-6.3c-3.5-1.8-10.2-3.7-10.2-3.7"/>
</g>
</g>
</g>
<g id="Boots">
<g id="Gunslinger_Boots" class="option" style="display: inherit;">
<g id="Main_Gunslinger-Boot" style="fill: rgb(49, 48, 48);">
<path d="M106.9,226.5c0,0.2,0.7,3.4,4.2,4.3c1.2,0.3,3.2-0.3,4.5-1c1.7-0.9,3.5-1.6,5.4-2.1l0.2,0.2 c0.6,0.8,1.2,1.6,1.9,2.3l0.3,0.3c0.4,0.4,0.8,0.7,1.2,1.1l0.3,0.3c0.1,0,0.1,0.1,0.2,0.1c0.9,0.6,2,1.6,3.2,1.4 c1.1-0.2,2.3-0.6,3.3-1c0.8-0.4,1.6-0.9,2.1-1.4c0.2-0.1,0.3-0.3,0.4-0.4c2.5,1,5.3,1.4,6.7,4.2c0.3,0.6,0.5,1.4,0.5,2 c-0.1,0.9-1,1-1.8,1.2c-1.9,0.5-3.5,0.9-5.7,1.3c-2.5,0.5-4.7,0.8-7.2,0.7c-1.9-0.1-3.5-0.2-5.1-1.2c-0.7-0.4-1.3-0.8-1.9-1.4 c-1.3-1.2-2.1-2.4-3.7-3.1c-1.2-0.5-2.4-1-3.7-1.3c-1.8-0.4-3.7-0.8-4.7-2.5C106.7,229.1,106.7,227.8,106.9,226.5"/>
<path d="M61.8,226.5c0,0.2-0.7,3.4-4.2,4.3c-1.2,0.3-3.2-0.3-4.5-1c-1.7-0.9-3.5-1.6-5.4-2.1l-0.2,0.2 c-0.6,0.8-1.2,1.6-1.9,2.3l-0.3,0.3c-0.4,0.4-0.8,0.7-1.2,1.1l-0.3,0.3c-0.1,0-0.1,0.1-0.2,0.1c-0.9,0.6-2,1.6-3.2,1.4 c-1.1-0.2-2.3-0.6-3.3-1c-0.8-0.4-1.6-0.9-2.1-1.4c-0.2-0.1-0.3-0.3-0.4-0.4c-2.5,1-5.3,1.4-6.7,4.2c-0.3,0.6-0.5,1.4-0.5,2 c0.1,0.9,1.1,1,1.8,1.2c1.9,0.5,3.5,0.9,5.7,1.3c2.5,0.5,4.7,0.8,7.2,0.7c1.9-0.1,3.5-0.2,5.1-1.2c0.7-0.4,1.3-0.8,1.9-1.4 c1.3-1.2,2.1-2.4,3.7-3.1c1.2-0.5,2.4-1,3.7-1.3c1.8-0.4,3.7-0.8,4.7-2.5C62.1,229.1,62,227.8,61.8,226.5"/>
</g>
<g id="Bottom_Gunslinger-Boot" style="fill: rgb(39, 39, 39);">
<path d="M106.9,229c0.1,0.5,0.2,1,0.5,1.5c0.9,1.8,2.9,2.1,4.7,2.5c1.3,0.3,2.5,0.8,3.7,1.3c1.6,0.7,2.5,2,3.7,3.1 c0.6,0.5,1.2,0.9,1.9,1.4c1.6,1,3.2,1.1,5.1,1.2c2.5,0.1,4.8-0.2,7.2-0.7c2.2-0.5,3.8-0.8,5.7-1.3c0.6-0.2,1.3-0.3,1.7-0.8 l0.4,0.8l0.2,1.6c0,0-2,1.1-4.2,1.6s-6.5,1.2-6.5,1.2l-0.3-0.7l-1,0.2v0.7l-2.4,0.1l-0.5-0.7H126l0.1,0.6c0,0-1.5,0-2.3-0.5 c-0.2-0.2-0.5-0.6-0.5-0.6l-0.6-0.3l0.1,0.6l-2-0.7l-0.1-0.8l-0.6-0.3v0.6l-1.4-1.1l-0.2-0.7l-3.6-2.5l-0.6,1.3l-2.5-0.6 l-0.1-0.5l-0.6-0.3l-0.4,0.4l-1.7-0.7v-0.5l-0.6-0.2l-0.1,0.4l-1.6-1.1l-0.3-2.2l-0.1-2.4L106.9,229"/>
<path d="M61.9,229c-0.1,0.5-0.2,1-0.5,1.5c-0.9,1.8-2.9,2.1-4.7,2.5c-1.3,0.3-2.5,0.8-3.7,1.3 c-1.7,0.7-2.5,2-3.7,3.1c-0.6,0.5-1.2,0.9-1.9,1.4c-1.6,1-3.2,1.1-5.1,1.2c-2.5,0.1-4.8-0.2-7.2-0.7c-2.2-0.5-3.8-0.8-5.7-1.3 c-0.6-0.2-1.4-0.3-1.7-0.8l-0.4,0.8l-0.2,1.6c0,0,2,1.1,4.2,1.6c2.1,0.5,6.5,1.2,6.5,1.2l0.3-0.7l1,0.2v0.7l2.4,0.1L42,242h0.8 l-0.1,0.6c0,0,1.5,0,2.3-0.5c0.2-0.2,0.5-0.6,0.5-0.6l0.6-0.3l-0.1,0.6l2-0.7l0.1-0.8l0.6-0.3v0.6l1.4-1.1l0.2-0.7l3.6-2.5 l0.6,1.3L57,237l0.1-0.5l0.6-0.3l0.4,0.4l1.7-0.7v-0.5l0.6-0.2l0.1,0.4l1.6-1.1l0.3-2.2l0.1-2.4L61.9,229"/>
</g>
<g id="Top_Gunslinger-Boot" style="fill: rgb(41, 40, 40);">
<path d="M121,227.7c-2.2-3.1-3.6-6.9-4.1-10.3l0.6-0.1h0.7c0.4,0,0.7-0.1,1-0.1l0.5-0.1h0.2l0.4-0.1l0.3-0.1h0.1 c1.1-0.3,2.3-0.6,2.3-0.6c0.3,1.5,0.5,3.2,1.1,4.6c1,2.2,2.8,3.8,4.4,5.5c1.1,1.1,2.3,2.4,3.6,3.3c0.6,0.4,1.2,0.7,1.8,0.9 c-0.5,0.7-1.5,1.4-2.5,1.8c-0.9,0.4-2.2,0.9-3.3,1c-1.2,0.2-2.3-0.8-3.2-1.4C123.5,230.8,122.2,229.4,121,227.7"/>
<path d="M47.7,227.7c2.2-3.1,3.6-6.9,4.1-10.3l-0.6-0.1h-0.7c-0.4,0-0.7-0.1-1-0.1l-0.5-0.1h-0.2l-0.4-0.1l-0.3-0.1 H48c-1.1-0.3-2.3-0.6-2.3-0.6c-0.3,1.5-0.5,3.2-1.1,4.6c-1,2.2-2.8,3.8-4.4,5.5c-1.1,1.1-2.3,2.4-3.6,3.3 c-0.6,0.4-1.2,0.7-1.8,0.9c0.5,0.7,1.5,1.4,2.5,1.8c0.9,0.4,2.2,0.9,3.3,1c1.2,0.2,2.3-0.8,3.2-1.4 C45.2,230.8,46.5,229.4,47.7,227.7"/>
</g>
<g id="Side_Gunslinger-Boot" style="fill: rgb(45, 41, 41);">
<path d="M121,227.7c-1.9,0.5-3.7,1.2-5.4,2.1c-1.3,0.6-3.3,1.3-4.5,1c-3.6-0.9-4.2-4.3-4.2-4.3 c0.1-0.7,0.3-1.5,0.3-2.3c0.1-1.5-0.1-8.2,0-8.1c2.9,1.6,8.1,1.5,9.6,1.3C117.4,220.8,118.9,224.6,121,227.7"/>
<path d="M47.7,227.7c1.9,0.5,3.7,1.2,5.4,2.1c1.3,0.6,3.3,1.3,4.5,1c3.6-0.9,4.2-4.3,4.2-4.3 c-0.1-0.7-0.3-1.5-0.3-2.3c-0.1-1.5,0.1-8.2,0-8.1c-2.9,1.6-8.1,1.5-9.6,1.3C51.3,220.8,49.9,224.6,47.7,227.7"/>
</g>
</g>
</g>
<g id="Gloves">
<g id="Left-Glove">
<g id="Fingerless_Left_Glove" class="option" style="display: inherit;">
<g id="Fingers_Fingerless_Left_Glove" style="fill: rgb(66, 63, 63);">
<path d="M137.6,124.1c-0.5,0-1,0-1.6,0.1c-0.4,0.1-0.7,0.2-1,0.3c-1,0.6-0.7,1.8,0.2,2.3c1,0.6,2.6,0,3.1-1.1 C138.5,125.3,137.9,124.5,137.6,124.1"/>
<path d="M135.8,125.2c-0.5,0-1,0-1.6,0.1c-0.4,0.1-0.7,0.2-1,0.3c-1,0.6-0.7,1.8,0.2,2.3c1,0.5,2.6,0,3.1-1.1 C136.7,126.4,136.1,125.6,135.8,125.2"/>
<path d="M134.6,126.6c-0.5,0-1.2,0.2-1.7,0.3c-0.3,0.1-0.7,0.3-1,0.5c-0.9,0.7-0.5,1.9,0.5,2.2 c1.1,0.4,2.6-0.3,2.9-1.5C135.4,127.7,134.6,126.6,134.6,126.6z"/>
<path d="M129,119.8c-0.3,1.3-0.5,2.1-0.5,2.1s-1.4,2.8-1.1,3.4c0.2,0.6,1.4,1.2,2.1,0.9c0.9-0.4,1.9-2.4,2.6-3.8 c0.2-0.5,0.5-1.1,0.7-1.6C130,121.2,129,119.8,129,119.8z"/>
<path d="M134.7,126.4c-0.2,0.3-0.4,0.7-0.7,1.1c-1.4,2-3.4,3.8-2.1,5.4c1.3,1.5,4.2-2.4,4.2-2.4l1.4-1.8 C135.3,128.2,134.7,126.4,134.7,126.4z"/>
</g>
<path id="Glove_Fingerless_Left_Glove" d="M137.5,128.7l1.5-2c0,0,3.3-5.4,3.4-6.5c0.1-0.8,0-3.5,0-3.5l-1-10.4 l-5.2,0.4l-4.3,1.4l-0.3,1.8c0,0-1.6,2.1-2,3.7c-0.3,1.1-0.1,3.7-0.5,5.4c0,0.2-0.1,0.4-0.1,0.6c0,0,1,1.4,3.7,1 c0.3-1,0.6-1.8,0.6-1.8s0.9,0.3,1.4,0.7c1.6,1.2,0.9,5,0.9,5s-0.4,0.7-1,1.7C134.7,126.4,135.3,128.2,137.5,128.7z" style="fill: rgb(30, 36, 43);"/>
</g>
</g>
<g id="Right-Glove">
<g id="Fingerless_Right_Glove" class="option" style="display: inherit;">
<g id="Fingers_Fingerless_Right_Glove" style="fill: rgb(66, 63, 63);">
<path d="M31.1,124.1c0.5,0,1,0,1.6,0.1c0.4,0.1,0.7,0.2,1,0.3c1,0.6,0.7,1.8-0.2,2.3c-1,0.6-2.6,0-3.1-1.1 C30.3,125.3,30.9,124.5,31.1,124.1"/>
<path d="M32.9,125.2c0.5,0,1,0,1.6,0.1c0.4,0.1,0.7,0.2,1,0.3c1,0.6,0.7,1.8-0.2,2.3c-1,0.5-2.6,0-3.1-1.1 C32.1,126.4,32.7,125.6,32.9,125.2"/>
<path d="M34.2,126.6c0.5,0,1.2,0.2,1.7,0.3c0.3,0.1,0.7,0.3,1,0.5c0.9,0.7,0.5,1.9-0.5,2.2 c-1.1,0.4-2.6-0.3-2.9-1.5C33.3,127.7,34.2,126.6,34.2,126.6z"/>
<path d="M39.7,119.8c0.3,1.3,0.5,2.1,0.5,2.1s1.4,2.8,1.1,3.4c-0.2,0.6-1.4,1.2-2.1,0.9c-0.9-0.4-1.9-2.4-2.6-3.8 c-0.2-0.5-0.5-1.1-0.7-1.6C38.7,121.2,39.7,119.8,39.7,119.8z"/>
<path d="M34.1,126.4c0.2,0.3,0.4,0.7,0.7,1.1c1.4,2,3.4,3.8,2.1,5.4c-1.3,1.5-4.2-2.4-4.2-2.4l-1.4-1.8 C33.5,128.2,34.1,126.4,34.1,126.4z"/>
</g>
<path id="Glove_Fingerless_Right_Glove" d="M31.3,128.7l-1.5-2c0,0-3.3-5.4-3.4-6.5c-0.1-0.8,0-3.5,0-3.5l1-10.4 l5.2,0.4l4.3,1.4l0.3,1.8c0,0,1.5,2.1,2,3.7c0.3,1.1,0.1,3.7,0.5,5.4c0,0.2,0.1,0.4,0.1,0.6c0,0-1,1.4-3.7,1 c-0.3-1-0.6-1.8-0.6-1.8s-0.9,0.3-1.4,0.7c-1.6,1.2-0.9,5-0.9,5s0.4,0.7,1,1.7C34.1,126.4,33.5,128.2,31.3,128.7z" style="fill: rgb(30, 36, 43);"/>
</g>
</g>
</g>
<g id="Biceps">
<g id="Left-Biceps">
<g id="None_Biceps_Left" class="option" style="display: inherit;">
</g>
</g>
<g id="Right-Biceps">
<g id="None_Biceps_Right" class="option" style="display: inherit;">
</g>
</g>
</g>
<g id="Vest" style="fill: rgb(30, 36, 43);">
<path d="M84.4,20.9c8.4,0,15.3-4.3,15.5-8h0.1l18.3,5.4l13.2,23.9l-2.8,1.2l-13.3-8.6l-2.3,3.7l-1.5,47.4 c0,0-8.7,4.7-13.4,5.3c-3.4,0.5-8.6,0.7-13.7,0.7s-10.3-0.2-13.7-0.7c-4.8-0.6-13.4-5.3-13.4-5.3l-1.5-47.4l-2.3-3.7l-13.3,8.6 l-2.8-1.2l13.2-23.9L69,12.9h0.1C69,16.6,75.9,20.9,84.4,20.9"/>
</g>
<g class="swappable" id="Chest">
<g id="Chest_Legacy" style="visibility: visible;">
<g id="Abdomen_Legacy">
<path id="Plate-4_Upper-Armor_Legacy" d="M95,72.9l-1.4-1.3l-9.1-1.3l-9.1,1.3L74,72.9l-17.3-2.7l0.6,7.5L84.6,82 l27.2-4.3l0.6-7.5L95,72.9" style="fill: rgb(65, 65, 65);"/>
<path id="Plate-3_Upper-Armor_Legacy" d="M95.4,66.2l-1.5-1.3l-9.4-1.3l-9.4,1.3l-1.5,1.3l-17.8-2.7l0.6,7.5 l28.2,4.3l28.1-4.3l0.6-7.5L95.4,66.2" style="fill: rgb(65, 65, 65);"/>
<path id="Plate-2_Upper-Armor_Legacy" d="M95.8,59.3L94.3,58l-9.8-1.3L74.7,58l-1.5,1.3l-18.4-2.7l0.6,7.5l29.1,4.3 l29-4.3l0.6-7.5L95.8,59.3" style="fill: rgb(65, 65, 65);"/>
<path id="Plate-1_Upper-Armor_Legacy" d="M96.2,51.7l-1.6-1.4l-10.2-1.4l-10.1,1.3l-1.6,1.4H53.5l0.7,5.1l30.3,4.5 l30.2-4.5l0.7-5.1L96.2,51.7" style="fill: rgb(65, 65, 65);"/>
<g id="Trauma-Plates_Abdomen_Legacy" class="toggle" style="display:none"/>
</g>
<g id="Chest-Plates_Legacy">
<g id="Left-Chest_Legacy">
<path id="Chest_Left_Legacy" d="M84.5,27.6v22l10,1.2l1.6,1.2h19.3l1.4-0.9l0.6-13.2l-5-13.6L84.5,27.6" style="fill: rgb(41, 84, 116);"/>
<path id="Trauma-Plating_Left-Chest_Legacy" class="toggle" style="display: none; fill: rgb(255, 255, 255);" d="M111.3,27l3.8,11.1l-0.6,11.6l-17.7,0.1l-2.4-3.3H86 l2.8-2.6L89,32.6l-2.8-2.7L111.3,27"/>
</g>
<g id="Right-Chest_Legacy">
<path id="Chest_Right_Legacy" d="M84.5,27.6v22l-10,1.2L72.9,52H53.5l-1.4-0.9l-0.6-13.2l5-13.6L84.5,27.6" style="fill: rgb(41, 84, 116);"/>
<path id="Trauma-Plating_Right-Chest_Legacy" class="toggle" style="display: none; fill: rgb(255, 255, 255);" d="M57.6,27l-3.8,11.2l0.6,11.6l17.7,0.1l2.4-3.3h8.4 L80.1,44l-0.2-11.3l2.8-2.7L57.6,27"/>
</g>
</g>
<g id="Iron-Heart_Legacy">
<path id="Heart_Legacy" d="M81.8,42.4v-9.1l2.7-2.1l2.7,2.1v9.1l-2.7,2.7L81.8,42.4" style="fill: rgb(193, 95, 30);"/>
<path id="Center_Heart_Legacy" class="option" d="M85.4,34.7h-1.9v6.2h1.9V34.7" style="fill: rgb(145, 33, 0); display: inherit;"/>
</g>
<g id="Neck-Armor_Legacy">
<path id="Neck-Plate_Legacy" d="M73.8,26.3l-17.4-2l1.4-9.6l11.5-3.5c0,0,1.5,2.6,2.6,3.5c1.1,0.9,2.6,2,4.1,2.6 c1.5,0.7,3.4,1.1,5.2,1.4c2,0.3,5,0.3,7,0c1.8-0.3,3.9-0.7,5.4-1.4c1.4-0.6,2.7-1.7,3.9-2.6c1.1-0.9,2.6-3.5,2.6-3.5l11.5,3.4 l0.9,9.6l-16.9,2l-11.1,1.3L73.8,26.3" style="fill: rgb(41, 84, 116);"/>
<path id="Trauma-Plates_Neck_Legacy" class="toggle" style="display: none; fill: rgb(255, 255, 255);" d="M82.7,25.2l-9-1.1l-14.8-2.3l0.7-5.5l8.1-2.5c0,0,3,2.6,4.1,3.5 c1.1,0.9,2.6,2,4.1,2.6c1.5,0.7,3.4,1.1,5.2,1.4c0.5,0.1,1,0.1,1.6,0.2V25.2 M86.3,21.5c0.6,0,1.3-0.1,1.8-0.2 c1.8-0.3,3.9-0.7,5.4-1.4c1.4-0.6,2.7-1.7,3.9-2.6c1.1-0.9,4-3.5,4-3.5l8.2,2.5l0.5,5.8l-14.6,2l-9.2,1.1V21.5"/>
</g>
</g>
</g>
<g id="Chest-Attachments">
<g id="No-Device_Accessories_Chest" class="option" style="display: inherit;">
</g>
</g>
<g id="Collar">
<g id="None_Collar" class="option" style="display: inherit;">
</g>
</g>
<svg version="1.1" id="Helmets" xmlns="http://www.w3.org/2000/svg" y="-54px" height="85px" viewBox="0 0 80 80" class="swappable">
<g id="Helmet_Ironside" style="visibility: visible;">
<g id="Left-Earcap_Ironside" class="toggle">
<g id="Ear-Cap_Left_Ironside" style="fill: rgb(193, 95, 30);">
<path d="M57.7,33.2H59l0.6,1.6v3.6h-1.3v1.3h-0.7L57.7,33.2z"/>
<path d="M59.2,38.5v3.7l-0.7-2.4h-0.2v-1.3H59.2z"/>
</g>
</g>
<g id="Right-Earcap_Ironside" class="toggle">
<g id="Ear-Cap_Right_Ironside" style="fill: rgb(193, 95, 30);">
<path d="M22.3,33.2H21l-0.6,1.6v3.6h1.3v1.3h0.7L22.3,33.2z"/>
<path d="M20.8,38.5v3.7l0.7-2.4h0.2v-1.3H20.8z"/>
</g>
</g>
<g id="Helmet_Pieces_Ironside">
<g id="Face-2_Ironside" style="fill: rgb(62, 62, 62);">
<path d="M22.5,40.8l-2.5,9l0.7-0.4l2.2-8L22.5,40.8z"/>
<path d="M20,49.8l13.3,7.7l-0.2-0.8l-12.5-7.3L20,49.8z"/>
<path d="M22.3,40.6l0.1,0.2l-2.5,9l13.3,7.7l1.5,7.7l-3.6-1.7L29.2,60l-11.4-7.1l3.7-13.1h0.8V40.6z"/>
<path d="M29.3,60.1L17.9,53l0.8,1.4L29.8,61L29.3,60.1z"/>
<path d="M21.1,55.7v1l9.3,5.5l-0.7-1.3L21.1,55.7z"/>
<path d="M57.5,40.8l2.5,9l-0.7-0.4l-2.2-8L57.5,40.8z"/>
<path d="M60,49.8l-13.3,7.7l0.2-0.8l12.5-7.3L60,49.8z"/>
<path d="M57.7,40.6l-0.1,0.2l2.5,9l-13.3,7.7l-1.5,7.7l3.6-1.7l1.9-3.5l11.4-7.1l-3.7-13.1h-0.8V40.6z"/>
<path d="M50.7,60.1L62.1,53l-0.8,1.4L50.2,61L50.7,60.1z"/>
<path d="M58.9,55.7v1l-9.3,5.5l0.7-1.3L58.9,55.7z"/>
</g>
<g id="Face-1_Ironside" style="fill: rgb(79, 79, 79);">
<path d="M20.7,49.5l12.5,7.3l-2-10.1L24,43.3L20.7,49.5z"/>
<path d="M59.3,49.5l-12.5,7.3l2-10.1l7.1-3.4L59.3,49.5z"/>
</g>
<g id="Cheeks_Ironside" style="fill: rgb(44, 45, 47);">
<path d="M22.3,40.6l1.7,2.7l7.1,3.4l-0.2-1.2L22.3,40.6z"/>
<path d="M22.9,41.5l-2.2,8l3.3-6.2L22.9,41.5z"/>
<path d="M57.7,40.6L56,43.3l-7.1,3.4l0.2-1.2L57.7,40.6z"/>
<path d="M57.1,41.5l2.2,8L56,43.3L57.1,41.5z"/>
</g>
<path id="Visor_Ironside" d="M36.7,65.3l1.7-2.2l-1.2-23.3l-14.3-2.3v-0.9h34.2v0.9l-14.3,2.3l-1.2,23.3l1.7,2.2 H36.7z" style="fill: rgb(10, 12, 14);"/>
<g id="Eyes-2_Ironside" style="fill: rgb(193, 95, 30);">
<path d="M31.8,46.9h1.5L35,55v7.7L31.8,46.9z"/>
<path d="M48.2,46.9h-1.5L45.1,55v7.7L48.2,46.9z"/>
<g>
<g>
<path d="M33.4,47.4L32,47.7l0.1,0.5l1.4-0.3L33.4,47.4z"/>
<path d="M33.6,48.7L32.2,49l0.1,0.5l1.4-0.3L33.6,48.7z"/>
<path d="M33.9,50l-1.4,0.3l0.1,0.5l1.4-0.3L33.9,50z"/>
<path d="M34.1,51.3l-1.4,0.3l0.1,0.5l1.4-0.3L34.1,51.3z"/>
</g>
<g>
<path d="M46.6,47.4l1.4,0.3l-0.1,0.5L46.5,48L46.6,47.4z"/>
<path d="M46.4,48.7l1.4,0.3l-0.1,0.5l-1.4-0.3L46.4,48.7z"/>
<path d="M46.1,50l1.4,0.3l-0.1,0.5L46,50.5L46.1,50z"/>
<path d="M45.9,51.3l1.4,0.3l-0.1,0.5l-1.4-0.3L45.9,51.3z"/>
</g>
</g>
<g>
<path d="M35.8,33.7l1.5-0.5v1L35.8,33.7z"/>
<path d="M44.3,33.7l-1.5-0.5v1L44.3,33.7z"/>
</g>
</g>
<g id="Eyes-1_Ironside" style="fill: rgb(107, 107, 107);">
<path d="M22.9,36.6v0.9l-0.6,0.4v-1.6L22.9,36.6z"/>
<path d="M22.9,37.5l14.3,2.3l-0.5,0.4l-14.4-2.3L22.9,37.5z"/>
<path d="M37.2,39.8l1.2,23.3h-0.5l-1.1-22.9L37.2,39.8z"/>
<path d="M22.3,37.9v2.7l8.6,4.9l3.9,19.8l0.8,0.7l2.3-2.9l-1.1-22.9L22.3,37.9z M31.8,46.9h1.5L35,55v7.7L31.8,46.9 z"/>
<path d="M30.9,45.5l3.9,19.8l0.8,0.7l-4.1-21L30.9,45.5z"/>
<path d="M37.9,63.1L35.6,66h0.6l2.3-2.9H37.9z"/>
<path d="M31.4,45l-9.1-5.2v0.8l8.6,4.9L31.4,45z"/>
<path d="M57.7,37.9v2.7l-8.6,4.9l-3.9,19.8L44.4,66l-2.3-2.9l1.1-22.9L57.7,37.9z M48.2,46.9h-1.5L45.1,55v7.7 L48.2,46.9z"/>
<path d="M57.1,36.6v0.9l0.6,0.4v-1.6L57.1,36.6z"/>
<path d="M57.1,37.5l-14.3,2.3l0.5,0.4l14.4-2.3L57.1,37.5z"/>
<path d="M42.8,39.8l-1.2,23.3h0.5l1.1-22.9L42.8,39.8z"/>
<path d="M49.1,45.5l-3.9,19.8L44.4,66l4.1-21L49.1,45.5z"/>
<path d="M42.1,63.1l2.3,2.9h-0.6l-2.3-2.9H42.1z"/>
<path d="M48.6,45l9.1-5.2v0.8l-8.6,4.9L48.6,45z"/>
<path d="M45,31.5l2.2,2.4h10.6v1.9l-17.7-0.1l-17.7,0.1v-1.9H33l2.2-2.4H45z M35.8,33.7l1.5-0.5v1L35.8,33.7z M44.3,33.7l-1.5-0.5v1L44.3,33.7z"/>
<path d="M22.3,36.2v-0.4l17.6-0.1h0.2l17.6,0.1v0.4H22.3z"/>
<path d="M22.9,36.6l-0.6-0.4h35.3L57,36.6H22.9z"/>
</g>
<g id="Dome-2_Ironside" style="fill: rgb(62, 62, 62);">
<path d="M33,33.9H22.3c0-6.5,3.7-12.1,9.1-15.1v1.6l0.7-0.4v-1.5c2.4-1.1,5-1.8,7.8-1.8c2.8,0,5.5,0.6,7.8,1.8V20 l0.7,0.4v-1.6c5.4,2.9,9.1,8.6,9.1,15.1H47.2L45,31.5h-9.9L33,33.9z"/>
<path d="M32.2,19.1V20l-0.7,0.4v-0.9l0.1-0.1L32.2,19.1z"/>
<path d="M48.4,19.4l0.1,0.1v0.9L47.8,20v-0.9L48.4,19.4z"/>
</g>
<path id="Dome-1_Ironside" d="M23.7,33.9c0-8.7,7.3-15.8,16.3-15.8s16.3,7.1,16.3,15.8h-9.1L45,31.5h-9.9L33,33.9 H23.7z" style="fill: rgb(41, 84, 116);"/>
</g>
</g>
</svg>
<g id="Shoulders">
<g id="Left-Shoulder">
<g id="Classic_Shoulder_Left" class="option" style="display: inherit;">
<path id="Main_Shoulder_Classic_Left" d="M116.5,13.4L114,24.8l2,6.5l13.4,6.8l2.3-3.5L116.5,13.4" style="fill: rgb(41, 84, 116);"/>
<path id="Trauma-Plates_Shoulder_Classic_Left" class="toggle" style="fill: rgb(145, 33, 0);" d="M115.7,24.7l1.7,5.4l11.4,5.8l1.9-3l-12.8-18 L115.7,24.7"/>
</g>
</g>
<g id="Right-Shoulder">
<g id="Classic_Shoulder_Right" class="option" style="display: inherit;">
<path id="Main_Shoulder_Classic_Right" d="M52.5,13.4L55,24.8l-2,6.5l-13.4,6.8l-2.3-3.5L52.5,13.4" style="fill: rgb(41, 84, 116);"/>
<path id="Trauma-Plates_Shoulder_Classic_Right" class="toggle" style="display: none; fill: rgb(255, 255, 255);" d="M53.2,24.7l-1.7,5.4l-11.4,5.8l-1.9-3l12.8-18 L53.2,24.7"/>
</g>
</g>
</g>
<g id="Gauntlets">
<g id="Left-Gauntlets">
<g id="Basic_Gauntlet_Left" class="option" style="display: inherit;">
<path id="Top-2_Basic_Gauntlet_Left" d="M144.3,107.5l1.4-2.2L141.8,87l-0.6,2.2l1.8,8.3l-0.7,2.1L144.3,107.5" style="fill: rgb(193, 95, 30);"/>
<path id="Top-1_Basic_Gauntlet_Left" d="M141.8,87.1l-0.6,2.2l1.8,8.3l-0.7,2.1l2,7.9l-0.9,1.4l0.5,5.1l-1.6,0.4 l-2.1-7.7l-1.5-0.5L132,83.9l8.9-0.9L141.8,87.1" style="fill: rgb(62, 62, 62);"/>
<g id="Accent-Bottom_Basic_Gauntlet_Left" style="fill: rgb(75, 75, 75);">
<path d="M128.7,90.6l-2,0.6l1,2.9l2-0.6L128.7,90.6"/>
<path d="M130.3,95.7l-2,0.6l1,2.9l2-0.6L130.3,95.7"/>
<path d="M132.1,100.9l-2,0.6l1,2.9l2-0.6L132.1,100.9"/>
</g>
<path id="Bottom_Basic_Gauntlet_Left" d="M126.7,91.2L126,89l6.2-4.8l6.6,22.1l-6.7,1.2l-2.7-8.2l2-0.6l-1-2.9 l-1.9,0.6l-0.7-2.2l2-0.6l-1-2.9L126.7,91.2 M132.1,100.9l-2,0.6l1,2.9l2-0.7L132.1,100.9" style="fill: rgb(41, 41, 41);"/>
<g id="Whistling-Birds_Attachment_Basic_Gauntlet_Left" class="option" style="display: inherit;">
<path id="Head_Whistling-Birds_Attachment_Basic_Gauntlet_Left" d="M147.2,97.6l-1.9,5.6l-1.1-5L147.2,97.6" style="fill: rgb(112, 97, 84);"/>
<g id="Birds_Whistling-Birds_Attachment_Basic_Gauntlet_Left" style="fill: rgb(133, 37, 9);">
<path d="M144.7,98.5c0.1,0,0.3,0.2,0.3,0.5c0.1,0.3,0,0.6-0.1,0.6c-0.1,0-0.3-0.2-0.3-0.5 C144.6,98.8,144.6,98.6,144.7,98.5"/>
<path d="M145.1,100.1c0.1,0,0.3,0.2,0.3,0.5c0.1,0.3,0,0.6-0.1,0.6c-0.1,0-0.3-0.2-0.3-0.5 C144.9,100.4,145,100.1,145.1,100.1"/>
<path d="M145.5,98.4c0.1,0,0.3,0.2,0.3,0.5c0.1,0.3,0,0.6-0.1,0.6c-0.1,0-0.3-0.2-0.3-0.5S145.4,98.4,145.5,98.4"/>
<path d="M145.4,102.6c0-0.1-0.1-0.2-0.1-0.3c-0.1-0.3,0-0.6,0.1-0.6c0.1,0,0.2,0.1,0.3,0.3L145.4,102.6"/>
<path d="M146,101c-0.1-0.1-0.2-0.3-0.2-0.5c-0.1-0.3,0-0.6,0.1-0.6c0.1,0,0.2,0.2,0.3,0.5L146,101"/>
<path d="M146.6,99.3c-0.1,0-0.3-0.2-0.3-0.5c-0.1-0.3,0-0.6,0.1-0.6c0.1,0,0.3,0.2,0.3,0.5v0.2L146.6,99.3"/>
</g>
<g id="Base_Whistling-Birds_Attachment_Basic_Gauntlet_Left" style="fill: rgb(75, 75, 75);">
<path d="M143.8,82.7l-2,0.4L142,84l2-0.4L143.8,82.7"/>
<path d="M144.2,83.5L142,84l3,14.1l2.2-0.5L144.2,83.5"/>
<path d="M144.5,83.6l-0.3,0.1l2.6,12.2l0.3-0.1L144.5,83.6"/>
<path d="M143.8,83.6l-0.3,0.1l2.8,13.3l0.3-0.1L143.8,83.6"/>
</g>
<g id="Accent_Whistling-Birds_Attachment_Basic_Gauntlet_Left" style="fill: rgb(41, 41, 41);">
<path d="M141.7,82.9l-0.8,0.2l3,14.4l0.8-0.2L141.7,82.9"/>
<path d="M147.1,96.7l-3.1,0.7l0.2,0.9l3.1-0.7L147.1,96.7"/>
<path d="M143.1,82.8l-1.3,0.3l0.4,2.1l1.3-0.3L143.1,82.8"/>
<path d="M143.2,84.9l-1,0.2l1,4.9l0.6-2L143.2,84.9"/>
</g>
</g>
</g>
</g>
<g id="Right-Gauntlets">
<g id="Heavy_Gauntlet_Right" class="option" style="display: inherit;">
<g id="Top-2_Heavy_Gauntlet_Right" style="fill: rgb(41, 41, 41);">
<path d="M29.3,78.9L27.6,79l-1.4,8.1l1.5,1.2L29.3,78.9"/>
<path d="M27.8,87.6L26,98.2l0.9,1.3l-1.1,6.2l0.4,0.3l3.1-17L27.8,87.6"/>
<path d="M27.7,84.6c-0.2,0-0.4,0.2-0.4,0.4s0.2,0.4,0.4,0.4c0.2,0,0.4-0.2,0.4-0.4S28,84.6,27.7,84.6"/>
</g>
<g id="Top-1_Heavy_Gauntlet_Right" style="fill: rgb(62, 62, 62);">
<path d="M30.6,107.2l-4.3-1.2l3.1-17l-1.5-1.4l1.6-9.3l6.6-0.7L30.6,107.2"/>
<path d="M31.1,78.2L29.3,89"/>
</g>
<g id="Accent-Top_Heavy_Gauntlet_Right" style="fill: rgb(41, 41, 41);">
<path d="M27.5,103.4l2.8,0.6l-0.4,2.1l-2.8-0.7L27.5,103.4"/>
<path d="M29.2,94.4L32,95l-1.6,8.4l-2.8-0.6L29.2,94.4"/>
<path d="M31.7,78.8l3.1-0.2l-1.6,9.2l-2.9-0.6L31.7,78.8"/>
</g>
<path id="Bottom_Heavy_Gauntlet_Right" d="M35.9,78.1c3.3,0.1,6.8,1.6,9,4.4c0.7,0.9,0.9,2.1,0.6,3.2 c-1.6,5.3-7,22.8-7,22.8l-7.9-1.4L35.9,78.1" style="fill: rgb(41, 84, 116);"/>
<g id="Accent-Bottom_Heavy_Gauntlet_Right" style="fill: rgb(41, 84, 116);">
<path d="M30.6,107.2l7.9,1.4l0.4-1.4l-8.1-1.5L30.6,107.2"/>
<path d="M35.5,80.1c4.3,0.4,7.9,2,9.6,6.7l0.3-1c0.3-0.9,0.2-1.8-0.2-2.6l-0.4-0.7c-2.2-2.8-5.6-4.2-9-4.4 L35.5,80.1"/>
<path d="M36.6,78.8l3.5,0.7l-2.8,13.9l-3.5-0.7L36.6,78.8"/>
<path d="M37.1,79.1l2.6,0.5l-2.5,12.8l-2.6-0.5L37.1,79.1"/>
<path d="M39.6,79.6l0.5-0.2"/>
<path d="M36.6,78.8l0.4,0.3"/>
<path d="M33.9,92.7l0.6-0.7"/>
<path d="M37.4,93.4L37,92.5"/>
</g>
<g id="Flamethrower_Attachment_Heavy_Gauntlet_Right" class="option" style="display: inherit;">
<g id="Tubes_Flamethrower_Attachment_Heavy_Gauntlet_Right" style="fill: rgb(67, 67, 67);">
<path d="M27.8,79.1l0.8,0.1l-4.3,24.9l-0.8-0.1L27.8,79.1"/>
<path d="M26,78.8l0.8,0.1l-3.1,17.8l-0.8-0.1L26,78.8"/>
<path d="M27.3,80.6l1.2,0.2l-1,5.9l-1.2-0.2L27.3,80.6"/>
<path d="M25.5,80.3l1.1,0.2l-1,5.9l-1.1-0.2L25.5,80.3"/>
</g>
<g id="Main_Flamethrower_Attachment_Heavy_Gauntlet_Right" style="fill: rgb(50, 51, 53);">
<path d="M25.7,78.3l3.4,0.6l-0.3,1.9l-3.4-0.6L25.7,78.3"/>
<path d="M24.2,86.2l3.5,0.6l-0.2,0.9L24,87.1L24.2,86.2"/>
<path d="M24.2,87.1l3.2,0.6l-0.1,0.5l-3.2-0.6L24.2,87.1"/>
<path d="M27.5,86.1l0.5,0.1l-0.5,2.9L27,89L27.5,86.1"/>
</g>
<g id="Accent_Flamethrower_Attachment_Heavy_Gauntlet_Right" style="fill: rgb(39, 45, 53);">
<path d="M22.8,96.6l0.9,0.2L23.6,98l-1.1-0.2L22.8,96.6"/>
<path d="M23.6,90.2l1.6,0.3l-0.3,1.9l-1.6-0.3L23.6,90.2"/>
<path d="M23.5,92.1l1.1,0.2l-0.3,1.9L23.2,94L23.5,92.1"/>
<path d="M23.9,100.8L25,101l-0.4,2.6l-1.1-0.2L23.9,100.8"/>
<path d="M25.4,92.4l1.1,0.2l-0.6,3.5l-1.1-0.2L25.4,92.4"/>
<path d="M23.5,102l1.6,0.3l-0.1,0.5l-1.6-0.3L23.5,102"/>
</g>
<path id="Base_Flamethrower_Attachment_Heavy_Gauntlet_Right" d="M28,86.2l1.4-7.8l-1,0.2l-2.3,13.3l0.9,0.6 l0.6-3.3l-0.5-0.1l0.5-2.9H28" style="fill: rgb(41, 41, 41);"/>
</g>
</g>
</g>
</g>
<g id="Shins">
<g id="Left-Shin">
<g id="None_Shin_Left" class="option" style="display: inherit;">
</g>
</g>
<g id="Right-Shin">
<g id="Basic-Shnees_Shin_Right" class="option" style="display: inherit;">
<path id="Shin_Basic-Shnees-Shin_Right" d="M69.5,162.6c0.2-2.2-1.3-4.1-3.5-4.4c-2.7-0.3-6.2-0.8-8.8-1.1 c-2.1-0.3-4.1,1.1-4.5,3.2c-0.9,4.6-2.4,11.9-3.6,11.7l-4.9,46.1l9.9,1.2l3.1,3.5l4.6-0.9l9.5-47 C68.8,174.6,69.1,167.2,69.5,162.6" style="fill: rgb(65, 65, 65);"/>
<g id="Straps_Basic-Shnees-Shin_Right" class="toggle" style="fill: rgb(48, 45, 42);">
<path d="M70.1,182.1l-5.1-0.9l-0.5,2.3l5.1,0.9L70.1,182.1"/>
<path d="M69.8,181.8l-1.1-0.2l-0.6,2.8l1.1,0.2L69.8,181.8"/>
<path d="M65.5,204.8l-5.1-0.9l-0.5,2.3l5.1,0.9L65.5,204.8"/>
<path d="M65.2,204.5l-1.1-0.2l-0.6,2.8l1.1,0.2L65.2,204.5"/>
</g>
<g id="Accent_Basic-Shnees-Shin_Right" class="toggle" style="fill: rgb(145, 33, 0);">
<path d="M57.3,156.8l3.8-0.3l3.8,1.1l-11.5,61.6l-4.6-0.6L57.3,156.8"/>
<path d="M61.1,156.6l-10.2,62.3"/>
</g>
</g>
</g>
</g>
<g id="Foot">
<g id="Left-Ankle">
<g id="None_Ankle_Left" class="option" style="display: inherit;">
</g>
</g>
<g id="Left-Toe">
<g id="Spikes_Toe_Left" class="option" style="fill: rgb(98, 97, 97); display: inherit;">
<path d="M131.3,239.3c2.9-0.5,5.9-1.2,8.9-2.1c0.1,0,0.3,0,0.4,0.1c0.1,0.1,0.2,0.2,0.2,0.4v1c0,0.2-0.1,0.4-0.3,0.4 c-2.3,1-5.3,1.7-8.7,2.1c-0.1,0-0.3,0-0.4-0.1c-0.1-0.1-0.2-0.2-0.2-0.3C131.4,240.2,131.3,239.3,131.3,239.3"/>
<path d="M136.1,241.3c0,0-2.5-0.3-3.7-0.4c-0.2,0-0.4-0.1-0.5-0.3c-0.1-0.1-0.2-0.3-0.1-0.5c0.1-0.5,0.4-0.7,1.1-0.7 c0.2,0,0.4,0.1,0.6,0.2C134.2,240,136.1,241.3,136.1,241.3"/>
<path d="M143.1,239.2c0,0-2.3-0.2-3.3-0.3c-0.2,0-0.3-0.1-0.4-0.3c-0.1-0.1-0.1-0.3-0.1-0.5c0.1-0.3,0.4-0.5,0.9-0.5 c0.2,0,0.3,0.1,0.5,0.1C141.3,238.1,143.1,239.2,143.1,239.2"/>
</g>
</g>
<g id="Right-Ankle">
<g id="None_Ankle_Right" class="option" style="display: inherit;">
</g>
</g>
<g id="Right-Toe">
<g id="Spikes_Toe_Right" class="option" style="fill: rgb(98, 97, 97); display: inherit;">
<path d="M37.4,239.3c-2.9-0.5-5.9-1.2-8.9-2.1c-0.1,0-0.3,0-0.4,0.1c-0.1,0.1-0.2,0.2-0.2,0.4v1 c0,0.2,0.1,0.4,0.3,0.4c2.3,1,5.3,1.7,8.7,2.1c0.1,0,0.3,0,0.4-0.1c0.1-0.1,0.2-0.2,0.2-0.3C37.4,240.2,37.4,239.3,37.4,239.3"/>
<path d="M32.6,241.3c0,0,2.5-0.3,3.7-0.4c0.2,0,0.4-0.1,0.5-0.3c0.1-0.1,0.2-0.3,0.1-0.5c-0.1-0.5-0.4-0.7-1.1-0.7 c-0.2,0-0.4,0.1-0.6,0.2C34.6,240,32.6,241.3,32.6,241.3"/>
<path d="M25.6,239.2c0,0,2.3-0.2,3.3-0.3c0.2,0,0.3-0.1,0.4-0.3c0.1-0.1,0.1-0.3,0.1-0.5c-0.1-0.3-0.4-0.5-0.9-0.5 c-0.2,0-0.3,0.1-0.5,0.1C27.5,238.1,25.6,239.2,25.6,239.2"/>
</g>
</g>
</g>
<g id="Knees">
<g id="Left-Knee">
<g id="Long_Knee_Left" class="option" style="display: inherit;">
<g id="Missiles_Long-Knee_Left" class="toggle" style="">
<path id="Base_Missiles_Long-Knee_Left" d="M116.1,164.3l0.8,9.7l2.2-1.5c0.4-0.2,0.6-0.7,0.5-1.1 c-0.1-1.3-0.3-4.2-0.4-5.7c0-0.6-0.5-1-1-1.1L116.1,164.3z" style="fill: rgb(65, 65, 65);"/>
<g id="Missile-2_Missiles_Long-Knee_Left" style="fill: rgb(145, 33, 0);">
<path d="M118,169.8c-0.6,0.1-0.9,0.6-0.8,1.2c0.1,0.6,0.6,0.9,1.2,0.9c0.6-0.1,0.9-0.6,0.8-1.2 C119.1,170.1,118.5,169.7,118,169.8z"/>
<path d="M118,170.1c-0.4,0.1-0.6,0.4-0.6,0.8c0.1,0.4,0.4,0.6,0.8,0.6c0.4-0.1,0.6-0.4,0.6-0.8 C118.8,170.3,118.4,170,118,170.1z"/>
</g>
<g id="Missile-1_Missiles_Long-Knee_Left" style="fill: rgb(145, 33, 0);">
<path d="M117.7,165.3c-0.6,0.1-0.9,0.6-0.8,1.2s0.6,0.9,1.2,0.9c0.6-0.1,0.9-0.6,0.8-1.2 C118.8,165.6,118.2,165.2,117.7,165.3z"/>
<path d="M117.7,165.6c-0.4,0.1-0.6,0.4-0.6,0.8c0.1,0.4,0.4,0.6,0.8,0.6c0.4-0.1,0.6-0.4,0.6-0.8 C118.5,165.8,118.1,165.6,117.7,165.6z"/>
</g>
</g>
<g id="Straps_Long-Knee_Left" style="fill: rgb(48, 45, 42);">
<path d="M97.2,163.5l1.2-0.2l0.4,2.6l-1.2,0.2L97.2,163.5z"/>
<path d="M96.6,164l0.6-0.1l0.3,2l-0.6,0.1L96.6,164z"/>
<path d="M116.8,163.2l-1.2,0.2l-0.4-2.6l1.2-0.2L116.8,163.2z"/>
<path d="M117.4,162.8l-0.6,0.1l-0.3-2l0.6-0.1L117.4,162.8z"/>
</g>
<g id="Knee_Long-Knee_Left" style="fill: rgb(65, 65, 65);">
<path d="M112.1,153.1l-13.2,2.2l-0.9,9.1l7.1,28.3l13.2-2.2l-2.4-29.1L112.1,153.1z"/>
<path d="M112.1,153.1l0.2,8.5l6,28.9"/>
<path d="M98.9,155.3l2.7,8.1l3.6,29.3"/>
<path d="M112.3,161.6l-10.8,1.8"/>
</g>
</g>
</g>
<g id="Right-Knee">
<g id="None-(Nih-Plates)_Knee_Right" class="option" style="display: inherit;">
</g>
</g>
</g>
<g id="Thighs">
<g id="Left-Thigh">
<g id="Pocket_Thigh_Left" class="option" style="fill: rgb(88, 92, 97); display: inherit;">
<path d="M117.9,124c0.5,6.5,1.3,12.6,2.3,18.4c0.2,1.2-0.1,2.3-0.8,3.3c-0.7,0.9-1.8,1.5-3,1.6 c-5.3,0.4-10.7,1.2-16.1,2.3c-0.9,0.2-1.9,0-2.6-0.6c-0.8-0.5-1.3-1.4-1.4-2.3c-0.9-6.1-2.8-18.4-3.5-23.2 c-0.2-1.1,0.6-2.1,1.7-2.3c2.4-0.4,6.2-1,6.2-1L117.9,124"/>
<path d="M115.4,117.9c0.8-0.1,1.5,0.3,1.8,1c0.9,2.4,1.7,6.4,1.1,8.4c-0.8,2.6-8.9,17.5-10.9,21.2 c-0.3,0.5-0.8,0.9-1.4,0.9c-1.2,0.1-3.1,0.4-4.5,0.5c-0.7,0.1-1.4-0.4-1.5-1.2c-0.7-4.4-2.8-19-3.7-24.6 c-0.2-1.4-1.2-2.5-2.5-2.9C93.9,121.4,110.7,118.7,115.4,117.9"/>
<path id="Stitch_Left" d="M115.2,117.9c1.7-0.2,2.9,6.8,2.4,8.6c-0.7,2.3-8.8,17.8-10.6,21.2 c-0.3,0.5-0.7,0.8-1.2,0.8l-3.5,0.5c-0.7,0.1-1.3-0.4-1.4-1c-0.6-4-2.9-19.6-3.7-24.7c-0.3-1.8-2.2-2.2-2.2-2.2"/>
<path d="M94.3,121.3l20.9-3.4"/>
</g>
</g>
<g id="Right-Thigh">
<g id="Heavy_Thigh_Right" class="option" style="display: inherit;">
<g id="Thigh_Heavy-Thigh_Right" style="fill: rgb(65, 65, 65);">
<path d="M71.8,117.7l5.7,7.3L71,151.2l-4.5,1.6l3.1-29.9L71.8,117.7"/>
<path d="M57.1,116.1l-7.1,6l1,27l4,2.5l3.1-29.9L57.1,116.1"/>
<path d="M57.1,116.1l14.7,1.5l-2.2,5.2l-11.4-1.2L57.1,116.1"/>
<path d="M58.2,121.7l11.4,1.2l-3.1,29.9l-11.4-1.2L58.2,121.7"/>
</g>
<g id="Trim_Heavy-Thigh_Right" style="fill: rgb(145, 33, 0);">
<path d="M56.6,113.8l16.3,1.7l-1,2.1l-14.7-1.5L56.6,113.8"/>
<path d="M50.3,119.6l6.3-5.7l0.6,2.3l-7.1,6L50.3,119.6"/>
<path d="M77.8,122.4l-5-6.9l-1,2.1l5.7,7.3L77.8,122.4"/>
</g>
</g>
</g>
</g>
<g id="Groin">
<g id="Basic_Groin" class="option" style="display: inherit;">
<path id="Groin-Plate_Groin" d="M78.1,121.8L67.7,98.9H101l-10.4,22.9l-6.2,5.5L78.1,121.8z" style="fill: rgb(65, 65, 65);"/>
<path id="Trauma-Plating_Groin" class="toggle" style="display: none; fill: rgb(255, 255, 255);" d="M79.2,119.9L70.6,101H98l-8.6,18.9l-5.1,4.5L79.2,119.9z"/>
</g>
</g>
<g id="Waist">
<g id="Accessories_Waist">
<g id="Kama" class="toggle" style="">
<g id="Tattered_Kama" class="option" style="display: inherit;">
<g id="Main_Kama-Tattered" style="fill: rgb(30, 36, 43);">
<path d="M110.7,80.6c2.3-0.5,3.3,12,4.7,18.1c0.6,2.7,0.7,5.5,1.4,8.3c1.2,4.8,3.4,9.5,4.5,14.2 c0.8,3.8,0.3,7.6,1.2,11.4c0.7,2.8,2.1,5.3,3.1,8c1.1,3,1.7,6.1,2.5,9.2c0.5,1.9,1,3.7,1.6,5.6c0.2,0.6,0.4,1.3,0.5,1.9 c0.1,0.2,0.1,0.4,0.1,0.6c0,0.1,0.2,0.4,0.1,0.4c-0.6-0.6-1-1.6-1.6-2.3c-1.2-1.3-2.6-2.3-3.7-3.6c-0.4-0.5-0.8-1.1-1.1-1.7 c0-0.1-0.2-0.5-0.2-0.5c-2.3,0.5-4.5,1.3-6.5-0.6c-1.5-1.5-2.9-4.8-3.6-6.9c-0.3-0.9,0.1-5.9-0.5-6.4c-0.4-0.3-0.8,4.2-1.3,3.9 c-3.3-1.9-7.9-3.1-7.9-3.1s-0.4-6.4-0.1-10.1c0.2-3.3-0.2-6.2-0.7-9.4c-0.6-4.2-0.6-8.5-0.3-12.7 C103.4,98,98.2,83.4,110.7,80.6z M118.2,142.5c-0.4,1.7-0.4,3.6,0.5,5.2c0.3,0.5,1.1,1.3,1.8,1.1c3-0.9-0.7-5.5-1.6-6.5 L118.2,142.5z M109.5,130.1c-0.5,0.3-1,0.7-1.4,1.2c-1.4,1.8,2.5,0.9,1.8-1.3L109.5,130.1z"/>
<path d="M58,80.6c-2.3-0.5-3.3,12-4.7,18.1c-0.6,2.7-0.7,5.5-1.4,8.3c-1.2,4.8-3.4,9.5-4.5,14.2 c-0.8,3.8-0.3,7.6-1.2,11.4c-0.7,2.8-2.1,5.3-3.1,8c-1.1,3-1.7,6.1-2.5,9.2c-0.5,1.9-1,3.7-1.6,5.6c-0.2,0.6-0.4,1.3-0.5,1.9 c0,0.2-0.1,0.4-0.1,0.6c0,0.1-0.2,0.4-0.1,0.4c0.6-0.6,1-1.6,1.6-2.3c1.2-1.3,3-0.2,4.1-1.6c0.4-0.5,1-1.8,1.3-2.4 c0-0.1,0.8-1.6,0.8-1.5c2.3,0.5,0.8,2.2,2.8,0.3c1.5-1.5,5.4-6,6.1-8.1c0.3-0.9-0.3-2.6,0.3-3.1c0.4-0.3,1,0.9,1.5,0.6 c3.3-1.9,7.3-5.5,7.3-5.5s0.9-4,0.7-7.7c-0.2-3.3,0.2-6.2,0.7-9.4c0.6-4.2,0.6-8.5,0.3-12.7C65.4,98,70.6,83.4,58,80.6z M49.8,143.7c0.4,1.7,0.3,1.4-0.6,2.9c-0.3,0.5-0.2,2.4-0.9,2.2c-3-0.9,0.7-5.5,1.6-6.5L49.8,143.7z M56.8,135.8 c0.5,0.3,2.2-0.1,2.6,0.4c1.4,1.8-3.9,3.3-3.2,1.2L56.8,135.8z"/>
</g>
</g>
</g>
<g id="Loin-Cloth" class="toggle" style="display:none"/>
<g id="Left-Holster" class="toggle" style="display:none"/>
<g id="Right-Holster" class="toggle" style="">
<g id="Belt-Holster_Right" class="option" style="display: inherit;">
<g id="Weapon_Belt-Holster-Right">
<g id="Main_Weapon_Belt-Holster-Right" style="fill: rgb(46, 46, 46);">
<path d="M52.7,98.7l0.2-3.6h-0.6l0.2-2.3h0.6l0.1-1.2c0-0.4-0.5-0.7-1.1-0.8c-1.4-0.1-3.9-0.3-5.3-0.4 c-0.6,0-1.2,0.2-1.2,0.6l-0.1,1.2h0.6l-0.2,2.3h-0.6l-0.2,3.6l1.5,0.1l-0.7,9.9l4.7,0.3l0.7-9.9L52.7,98.7z"/>
<path d="M45.8,97.7l0.8,0.1l-0.8,12l4.7,0.3l0.8-12l0.8,0.1l0.2-2.7l-6.4-0.4L45.8,97.7z"/>
<path d="M47.5,91.3l3.8,0.3l-0.2,3.7L47.3,95L47.5,91.3z"/>
<path d="M50.2,99h0.6l-0.6,9.4h-0.6L50.2,99z"/>
<path d="M48.7,96.8h0.6l-0.6,9.4h-0.6L48.7,96.8z"/>
<path d="M47,98.8h0.6l-0.6,9.4h-0.6L47,98.8z"/>
</g>
<g id="Accent_Weapon_Belt-Holster-Right" style="fill: rgb(63, 71, 81);">
<path d="M50.5,95.6V96l-2.7-0.2v-0.4L50.5,95.6z"/>
<path d="M50.4,96v0.4l-2.7-0.2v-0.4L50.4,96z"/>
<path d="M50.5,95.2v0.4l-2.7-0.2V95L50.5,95.2z"/>
<path d="M50.8,90.6V91l-2.7-0.2v-0.4L50.8,90.6z"/>
<path d="M50.7,91.6h0.6l-0.2,3.7h-0.6L50.7,91.6z"/>
<path d="M47.5,91.3h0.6L47.9,95h-0.6L47.5,91.3z"/>
<path d="M47.6,98.9l0.9,0.1l-0.6,9.4l-0.9-0.1L47.6,98.9z"/>
<path d="M49.2,99l0.9,0.1l-0.6,9.4l-0.9-0.1L49.2,99z"/>
</g>
</g>
<path id="Holster_Belt-Holster-Right" d="M51.1,112.4l2.5-15L45.4,108l-0.8,20.7c1.4,1.9,3,2.1,4.8,0.4L51.1,112.4z " style="fill: rgb(55, 48, 43);"/>
</g>
</g>
</g>
<g id="Under-Belt">
<g id="Girth-Belt" class="option" style="fill: rgb(30, 36, 43); display: inherit;">
<path d="M84.4,84.5c-9.3,0-27.8-2.2-27.8-2.2l0.6-1.9c0,0,18.1,1.5,27.2,2.2c9.1-0.8,27.2-2.2,27.2-2.2l0.6,1.9 C112.2,82.2,93.6,84.5,84.4,84.5z"/>
<path d="M84.4,86.4c-9.5,0-28.4-2.2-28.4-2.2l0.6-1.9c0,0,23.2,1.9,27.8,2.2c4.6-0.4,27.8-2.2,27.8-2.2l0.6,1.9 C112.7,84.1,93.8,86.4,84.4,86.4z"/>
<path d="M84.4,88.3c-9.6,0-28.8-2.2-28.8-2.2l0.4-1.9c0,0,23.7,1.9,28.4,2.2c4.7-0.4,28.4-2.2,28.4-2.2l0.4,1.9 C113.2,86.1,94,88.3,84.4,88.3z"/>
<path d="M84.4,90.2c-9.7,0-29.2-2.2-29.2-2.2l0.4-1.9c0,0,24,1.9,28.8,2.2c4.8-0.4,28.8-2.2,28.8-2.2l0.4,1.9 C113.5,88,94.1,90.2,84.4,90.2z"/>
<path d="M84.4,92.1c-9.8,0-29.5-2.2-29.5-2.2l0.3-1.9c0,0,24.3,1.9,29.2,2.2c4.9-0.4,29.2-2.2,29.2-2.2l0.3,1.9 C113.9,89.9,94.2,92.1,84.4,92.1z"/>
<path d="M84.4,94c-9.9,0-29.8-2.2-29.8-2.2l0.3-1.9c0,0,24.6,1.9,29.5,2.2c4.9-0.4,29.5-2.2,29.5-2.2l0.3,1.9 C114.2,91.8,94.3,94,84.4,94z"/>
<path d="M84.4,95.9c-10,0-30.1-2.2-30.1-2.2l0.3-1.9c0,0,24.8,1.9,29.8,2.2c5-0.4,29.8-2.2,29.8-2.2l0.3,1.9 C114.5,93.7,94.4,95.9,84.4,95.9z"/>
<path d="M84.4,97.8c-10.1,0-30.4-2.2-30.4-2.2l0.3-1.9c0,0,25.1,1.9,30.1,2.2c5-0.4,30.1-2.2,30.1-2.2l0.3,1.9 C114.8,95.6,94.5,97.8,84.4,97.8z"/>
<path d="M84.4,99.7c-10.3,0-30.8-2.2-30.8-2.2l0.3-1.9c0,0,25.4,1.9,30.4,2.2c5.1-0.4,30.4-2.2,30.4-2.2l0.3,1.9 C115.1,97.5,94.6,99.7,84.4,99.7z"/>
<path d="M84.4,101.6c-10.4,0-31.2-2.2-31.2-2.2l0.4-1.9c0,0,25.6,1.9,30.8,2.2c5.1-0.4,30.8-2.2,30.8-2.2l0.4,1.9 C115.5,99.4,94.8,101.6,84.4,101.6z"/>
</g>
</g>
<g id="Belt">
<g id="Pouch-Belt-6" class="option" style="display: inherit;">
<path id="Main_Pouch-Belt-6" d="M114.5,92.5c-6.8,0.6-22.3,2.8-30.1,2.8c-7.9,0-23.4-2.2-30.1-2.8l1-7.9 c5.5,0.5,21.4,2.7,29.1,2.7c7.4,0,23-2.2,28.9-2.8L114.5,92.5z" style="fill: rgb(56, 45, 41);"/>
<rect id="Buckle_Pouch-Belt-6" x="78.8" y="86.6" width="11.2" height="9.2" style="fill: rgb(79, 79, 79);"/>
<g id="Pouches_Pouch-Belt-6" style="fill: rgb(55, 48, 43);">
<g>
<g>
<g>
<path d="M70.3,84.5c-0.3,0-0.6,0-0.8,0.1c-0.7,0.3-2.1,0.8-2.1,0.8l8,0.5l2.2-0.9C77.6,85,72,84.7,70.3,84.5z"/>
<path d="M77.9,85.3c0-0.1,0-0.2-0.1-0.2c-0.1,0-0.2-0.1-0.2,0c-0.7,0.3-2.1,0.9-2.1,0.9l-1,12.4 c0.7-0.4,1.4-0.7,2.1-0.8c0.4-0.1,0.7-0.4,0.7-0.8C77.4,92.9,77.5,89.1,77.9,85.3z"/>
<path d="M75.4,86l-8-0.5c0,1.9-0.2,3.8-0.3,5.7c-0.1,2.1-0.2,4.2-0.3,6.3c0,0.2,0,0.3,0.1,0.4s0.2,0.2,0.4,0.2 c2.3,0,4.6,0.1,6.9,0.4c0.1,0,0.3,0,0.4-0.1s0.2-0.2,0.2-0.4c0.1-1.5,0.4-5.3,0.4-5.3L75.4,86z"/>
<path d="M75.4,86l-8-0.5c0,0-0.2,1.6-0.4,3.1c-0.1,0.8,0.1,1.5,0.6,2.1c0.5,0.6,1.2,0.9,1.9,1 c0.9,0.1,2,0.1,3,0.2c0.8,0,1.5-0.2,2.1-0.8c0.5-0.5,0.9-1.3,0.9-2C75.4,87.6,75.4,86,75.4,86z"/>
<path d="M71.2,90.3c0.3,0,0.5,0.3,0.5,0.5c0,0.3-0.3,0.5-0.5,0.5c-0.3,0-0.5-0.3-0.5-0.5 C70.6,90.5,70.9,90.3,71.2,90.3z"/>
</g>
</g>
<g>
<g>
<path d="M59.3,83c-0.3,0-0.6,0-0.9,0.2c-0.7,0.3-1.8,0.8-1.8,0.8l7.3,0.4l2-0.9C65.8,83.5,60.8,83.1,59.3,83z"/>
<path d="M66.1,83.8c0-0.1,0-0.2-0.1-0.2c-0.1-0.1-0.2-0.1-0.2,0c-0.7,0.3-1.9,0.9-1.9,0.9l-1,12.4 c0.6-0.4,1.3-0.7,1.9-0.8c0.4-0.1,0.7-0.4,0.7-0.8C65.6,91.3,65.7,87.5,66.1,83.8z"/>
<path d="M63.8,84.4L56.5,84c-0.1,1.9-0.2,3.8-0.3,5.7c-0.1,2.1-0.2,4.2-0.3,6.3c0,0.2,0,0.3,0.1,0.4 s0.2,0.2,0.4,0.2c2.1,0,4.1,0.1,6.2,0.4c0.1,0,0.3,0,0.4-0.1s0.2-0.2,0.2-0.4c0.1-1.5,0.4-5.3,0.4-5.3L63.8,84.4z"/>
<path d="M63.8,84.4L56.5,84c0,0-0.2,1.6-0.4,3.2c-0.1,0.8,0.1,1.5,0.6,2.1c0.5,0.6,1.2,0.9,1.9,1 c0.7,0,1.5,0.1,2.2,0.1c0.8,0,1.5-0.2,2-0.7s0.9-1.2,0.9-2C63.8,86,63.8,84.4,63.8,84.4z"/>
<path d="M59.9,88.8c0.3,0,0.5,0.3,0.4,0.5c0,0.3-0.2,0.5-0.5,0.5s-0.5-0.3-0.4-0.5C59.4,89,59.6,88.8,59.9,88.8z "/>
</g>
</g>
<g>
<path d="M51.9,83.9l0.5-0.9l2.8,0.1l0.3,1.1L51.9,83.9z"/>
<path d="M55.6,84.3c0-0.1,0-0.1-0.1-0.2c0-0.1-0.1-0.1-0.2-0.1c-0.8,0-3.5-0.1-3.5-0.1l-0.5,11.2 c0.1,0.3,1.5,0.5,2.7,0.5c0.5,0,0.9-0.4,0.9-0.9C55,91.2,55.2,87.7,55.6,84.3z"/>
</g>
</g>
<g>
<g>
<g>
<path d="M98.4,84.5c0.3,0,0.6,0,0.8,0.1c0.7,0.3,2.1,0.8,2.1,0.8l-8,0.5L91.1,85C91.2,85,96.8,84.7,98.4,84.5z"/>
<path d="M90.9,85.3c0-0.1,0-0.2,0.1-0.2s0.2-0.1,0.2,0c0.7,0.3,2.1,0.9,2.1,0.9l1,12.4c-0.7-0.4-1.4-0.7-2.1-0.8 c-0.4-0.1-0.7-0.4-0.7-0.8C91.4,92.9,91.3,89.1,90.9,85.3z"/>
<path d="M93.3,86l8-0.5c0.1,1.9,0.2,3.8,0.3,5.7c0.1,2.1,0.2,4.2,0.3,6.3c0,0.2,0,0.3-0.1,0.4 c-0.1,0.1-0.2,0.2-0.4,0.2c-2.3,0-4.6,0.1-6.9,0.4c-0.1,0-0.3,0-0.4-0.1s-0.2-0.2-0.2-0.4c-0.1-1.5-0.4-5.3-0.4-5.3L93.3,86z "/>
<path d="M93.3,86l8-0.5c0,0,0.2,1.6,0.4,3.1c0.1,0.8-0.1,1.5-0.6,2.1c-0.5,0.6-1.2,0.9-1.9,1 c-0.9,0.1-2,0.1-3,0.2c-0.8,0-1.5-0.2-2.1-0.8c-0.6-0.5-0.9-1.3-0.9-2C93.3,87.6,93.3,86,93.3,86z"/>
<path d="M97.6,90.3c-0.3,0-0.5,0.3-0.5,0.5c0,0.3,0.3,0.5,0.5,0.5c0.3,0,0.5-0.3,0.5-0.5 C98.1,90.5,97.9,90.3,97.6,90.3z"/>
</g>
</g>
<g>
<g>
<path d="M109.5,83c0.3,0,0.6,0,0.9,0.2c0.7,0.3,1.8,0.8,1.8,0.8l-7.3,0.4l-2-0.9C103,83.5,107.9,83.1,109.5,83z"/>
<path d="M102.7,83.8c0-0.1,0-0.2,0.1-0.2c0.1,0,0.2-0.1,0.2,0c0.7,0.3,1.9,0.9,1.9,0.9l1,12.4 c-0.6-0.4-1.3-0.7-1.9-0.8c-0.4-0.1-0.7-0.4-0.7-0.8C103.2,91.3,103.1,87.5,102.7,83.8z"/>
<path d="M104.9,84.4l7.3-0.4c0.1,1.9,0.2,3.8,0.3,5.7c0.1,2.1,0.2,4.2,0.3,6.3c0,0.2,0,0.3-0.1,0.4 c-0.1,0.1-0.2,0.2-0.4,0.2c-2.1,0-4.1,0.1-6.2,0.4c-0.1,0-0.3,0-0.4-0.1c-0.1-0.1-0.2-0.2-0.2-0.4c-0.1-1.5-0.4-5.3-0.4-5.3 L104.9,84.4z"/>
<path d="M104.9,84.4l7.3-0.4c0,0,0.2,1.6,0.4,3.2c0.1,0.8-0.1,1.5-0.6,2.1c-0.5,0.6-1.2,0.9-1.9,1 c-0.7,0-1.5,0.1-2.2,0.1c-0.8,0-1.5-0.2-2-0.7s-0.9-1.2-0.9-2C104.9,86,104.9,84.4,104.9,84.4z"/>
<path d="M108.9,88.8c-0.3,0-0.5,0.3-0.4,0.5c0,0.3,0.2,0.5,0.5,0.5s0.5-0.3,0.4-0.5 C109.3,89,109.1,88.8,108.9,88.8z"/>
</g>
</g>
<g>
<path d="M116.9,83.9l-0.5-0.9l-2.8,0.1l-0.3,1.1L116.9,83.9z"/>
<path d="M113.2,84.3c0-0.1,0-0.1,0.1-0.2c0-0.1,0.1-0.1,0.2-0.1c0.8,0,3.5-0.1,3.5-0.1l0.5,11.2 c-0.1,0.3-1.5,0.5-2.7,0.5c-0.5,0-0.9-0.4-0.9-0.9C113.7,91.2,113.6,87.7,113.2,84.3z"/>
</g>
</g>
</g>
</g>
</g>
</g>
<g id="Extras_Front">
<g id="Front">
<g id="None_Front" class="option" style="display: inherit;">
</g>
</g>
</g>
</svg></svg>