<?xml version='1.0' encoding='UTF-8'?>
<svg version="1.1" id="Male-Body" xmlns="http://www.w3.org/2000/svg" xmlns:serif="http://www.serif.com/" viewBox="0 -55 170 300" style="stroke-width: 0.2px; fill-rule: evenodd; stroke-linejoin: round;" width="170" height="300">
<style>
mask {
mask-type: alpha;
}
.decal {
stroke: none;
}
</style>
<defs id="Masks" stroke="none">
<mask id="HelmetsMask"> <use href="#Helmets"/> </mask>
<mask id="CollarMask"> <use href="#Collar"/> </mask>
<mask id="ShouldersMask"> <use href="#Shoulders"/> </mask>
<mask id="ChestMask"> <use href="#Chest"/> </mask>
<mask id="BicepsMask"> <use href="#Biceps"/> </mask>
<mask id="GauntletsMask"> <use href="#Gauntlets"/> </mask>
<mask id="WaistMask"> <use href="#Waist"/> </mask>
<mask id="GroinMask"> <use href="#Groin"/> </mask>
<mask id="ThighsMask"> <use href="#Thighs"/> </mask>
<mask id="KneesMask"> <use href="#Knees"/> </mask>
<mask id="ShinsMask"> <use href="#Shins"/> </mask>
<mask id="FootMask"> <use href="#Foot"/> </mask>
</defs>
<defs id="Decals"/><metadata><rdf:rdf xmlns:rdf="http://www.w3.org/1999/02/22-rdf-syntax-ns#" xmlns:rdfs="http://www.w3.org/2000/01/rdf-schema#" xmlns:dc="http://purl.org/dc/elements/1.1/"><rdf:description><dc:creator>MandoCreator</dc:creator><dc:publisher>https://www.mandocreator.com</dc:publisher><dc:description>Your Beskar'gam - created by MandoCreator</dc:description><dc:format>image/svg+xml</dc:format><dc:type>Image</dc:type><dc:title>MandoCreator - Ner Berskar'gam</dc:title><dc:date>2022-01-02T16:21:11.571Z</dc:date></rdf:description></rdf:rdf></metadata><g id="Main-Body" fill="white" stroke="black">
<g id="Extras_Back">
<g id="Back"><g id="NO-CAPES_Back" class="option" style="display: inherit;">
</g>
</g>
</g>
<g id="Extras-BackDecals" mask="url(#BackMask)">
</g>
<g id="Suit">
<g id="Neck-Seal"><g id="Standard-Neck-Seal" class="option" fill="rgb(30, 36, 43)" style="display: inherit;">
<path d="M98.75,7.5c0-0.9-0.93-1.62-2.07-1.62c0,0-7.8,0.85-11.7,0.85s-11.7-0.85-11.7-0.85 c-1.14,0-2.07,0.73-2.07,1.62s0.93,1.62,2.07,1.62c0,0,7.8,0.85,11.7,0.85s11.7-0.85,11.7-0.85C97.83,9.13,98.75,8.4,98.75,7.5z"/>
<path d="M99.45,9.4c0-0.94-0.97-1.71-2.17-1.71c0,0-8.2,0.9-12.29,0.9S72.69,7.7,72.69,7.7 c-1.2,0-2.17,0.76-2.17,1.71s0.97,1.71,2.17,1.71c0,0,8.2,0.9,12.29,0.9s12.29-0.9,12.29-0.9C98.48,11.11,99.45,10.34,99.45,9.4z "/>
<path d="M100.24,11.76c0-0.99-1.03-1.8-2.29-1.8c0,0-8.64,0.95-12.96,0.95S72.02,9.96,72.02,9.96 c-1.26,0-2.29,0.81-2.29,1.8s1.03,1.8,2.29,1.8c0,0,8.64,0.95,12.97,0.95s12.96-0.95,12.96-0.95 C99.21,13.56,100.24,12.75,100.24,11.76z"/>
<path d="M101,13.92c0-1.04-1.08-1.89-2.41-1.89c0,0-9.08,0.99-13.61,0.99s-13.61-0.99-13.61-0.99 c-1.33,0-2.41,0.85-2.41,1.89c0,1.04,1.08,1.89,2.41,1.89c0,0,9.08,0.99,13.61,0.99s13.61-0.99,13.61-0.99 C99.93,15.81,101,14.96,101,13.92z"/>
<path d="M101.76,16.04c0-0.79-1.13-1.43-2.52-1.43c0,0-9.51,0.75-14.26,0.75s-14.26-0.75-14.26-0.75 c-1.39,0-2.52,0.64-2.52,1.43c0,0.79,1.13,1.43,2.52,1.43c0,0,9.51,0.75,14.26,0.75s14.26-0.75,14.26-0.75 C100.63,17.47,101.76,16.83,101.76,16.04z"/>
<path d="M101.76,18.42c0-0.79-1.13-1.43-2.52-1.43c0,0-9.51,0.75-14.26,0.75s-14.26-0.75-14.26-0.75 c-1.39,0-2.52,0.64-2.52,1.43c0,0.79,1.13,1.43,2.52,1.43c0,0,9.51,1.44,14.26,1.44s14.26-1.44,14.26-1.44 C100.63,19.84,101.76,19.21,101.76,18.42z"/>
</g>
</g>
<g id="Flight-Suit" fill="rgb(88, 92, 97)">
<path d="M73.36,158.45l-1.49,8.72l-11.03,53.11c0,0-4.93,2.96-7.47,3.46c-2.53,0.5-7.73-0.44-7.73-0.44l3.85-43 l2.9-18.36l0.66-7.82c0,0-2.53-22.78-1.7-34.14c0.82-11.36,6.66-34.01,6.66-34.01l26.98,0.58l26.97-0.58 c0,0,5.83,22.66,6.66,34.01c0.83,11.36-1.7,34.14-1.7,34.14l0.66,7.82l2.9,18.36l3.85,43c0,0-5.32,1.19-7.85,0.69 c-2.53-0.5-7.34-3.71-7.34-3.71L98.1,167.16l-1.49-8.72l-11.62-30.33L73.36,158.45z"/>
<g>
<path d="M129.41,43.33l11.98,41.65l1.04,21.47l-9.55,1.83l-6.05-20.21l-13.65-33.95l0.69-15.55l2.31-3.72 L129.41,43.33z"/>
<path d="M40.59,43.3l13.19-8.45l2.31,3.72l0.52,16.04L43.17,88.07l-6.05,20.21l-9.55-1.83l1.03-21.47L40.59,43.3z"/>
</g>
</g>
<g id="Sleeves" class="toggle" fill="rgb(39, 45, 53)">
<g>
<path d="M112.2,56.12l2.68,5.9c0,0,4.24-3.2,7.06-4.8s4.38-2.62,6.92-3.6c2.54-0.98,5.08-1.47,5.08-1.47l-6.07-12.25 l-5.79-9.67l-11.58,5.14L112.2,56.12z"/>
<path d="M113.61,59.24c-0.2-0.24,5.08-4.5,8.61-6.34c3.53-1.84,10.25-3.69,10.25-3.69"/>
</g>
<g>
<path d="M57.8,56.12l-2.68,5.9c0,0-4.24-3.2-7.06-4.8c-2.82-1.59-4.38-2.62-6.92-3.6c-2.54-0.98-5.08-1.47-5.08-1.47 l6.07-12.25l5.79-9.67l11.58,5.14L57.8,56.12z"/>
<path d="M56.39,59.24c0.2-0.24-5.08-4.5-8.61-6.34c-3.53-1.84-10.25-3.69-10.25-3.69"/>
</g>
</g>
</g>
<g id="Boots"><g id="Gunslinger_Boots" class="option" style="display: inherit;">
<g id="Main_Gunslinger-Boot" fill="rgb(49, 48, 48)">
<path d="M107.7,226.61c0.04,0.2,0.73,3.41,4.27,4.29c1.18,0.3,3.21-0.33,4.48-0.98c1.74-0.89,3.57-1.58,5.44-2.12 l0.06,0.08c0.03,0.04,0.06,0.08,0.09,0.12c0.58,0.81,1.21,1.57,1.89,2.26l0.05,0.05l0.03,0.03c0.07,0.07,0.14,0.14,0.21,0.2 c0.4,0.38,0.81,0.74,1.23,1.07l0.12,0.09l0.1,0.07c0.03,0.02,0.06,0.04,0.09,0.06c0.07,0.05,0.13,0.1,0.2,0.14 c0.88,0.62,2.06,1.56,3.23,1.39c1.11-0.16,2.35-0.6,3.28-1.04c0.78-0.37,1.59-0.87,2.13-1.4c0.16-0.12,0.29-0.26,0.39-0.44 c2.57,1,5.36,1.38,6.73,4.22c0.3,0.62,0.55,1.35,0.49,2.04c-0.08,0.89-1.06,1-1.82,1.2c-1.9,0.51-3.53,0.89-5.72,1.34 c-2.5,0.52-4.76,0.83-7.29,0.72c-1.89-0.08-3.49-0.18-5.14-1.19c-0.66-0.41-1.34-0.82-1.92-1.35c-1.28-1.19-2.11-2.43-3.77-3.15 c-1.2-0.52-2.44-0.96-3.71-1.27c-1.8-0.45-3.74-0.76-4.69-2.54C107.42,229.16,107.51,227.91,107.7,226.61L107.7,226.61"/>
<path d="M62.28,226.61c-0.04,0.2-0.73,3.41-4.27,4.29c-1.18,0.3-3.2-0.33-4.48-0.98c-1.74-0.89-3.57-1.58-5.44-2.12 l-0.05,0.08c-0.03,0.04-0.06,0.08-0.09,0.12c-0.58,0.81-1.21,1.57-1.89,2.26l-0.05,0.05l-0.03,0.03 c-0.07,0.07-0.14,0.14-0.21,0.2c-0.4,0.38-0.81,0.74-1.23,1.07l-0.12,0.09l-0.1,0.07c-0.03,0.02-0.06,0.04-0.09,0.06 c-0.07,0.05-0.13,0.1-0.2,0.14c-0.88,0.62-2.06,1.56-3.23,1.39c-1.1-0.16-2.35-0.6-3.28-1.04c-0.78-0.37-1.59-0.87-2.13-1.4 c-0.16-0.12-0.29-0.26-0.39-0.44c-2.57,1-5.36,1.38-6.73,4.22c-0.3,0.62-0.55,1.35-0.48,2.04c0.08,0.89,1.06,1,1.82,1.2 c1.9,0.51,3.53,0.89,5.72,1.34c2.5,0.52,4.76,0.83,7.29,0.72c1.89-0.08,3.49-0.18,5.14-1.19c0.66-0.41,1.35-0.82,1.92-1.35 c1.28-1.19,2.11-2.43,3.77-3.15c1.2-0.52,2.44-0.96,3.71-1.27c1.8-0.45,3.74-0.76,4.69-2.54 C62.56,229.16,62.48,227.91,62.28,226.61L62.28,226.61"/>
</g>
<g id="Bottom_Gunslinger-Boot" fill="rgb(39, 39, 39)">
<path d="M107.64,229.04c0.08,0.49,0.24,0.98,0.51,1.49c0.95,1.78,2.89,2.09,4.69,2.54c1.27,0.32,2.51,0.75,3.71,1.27 c1.66,0.72,2.48,1.96,3.77,3.15c0.57,0.53,1.25,0.94,1.92,1.35c1.65,1.01,3.25,1.11,5.14,1.19c2.53,0.1,4.78-0.2,7.29-0.72 c2.19-0.46,3.82-0.84,5.72-1.34c0.61-0.16,1.36-0.27,1.67-0.76l0,0l0.36,0.8l0.21,1.64c0,0-2.03,1.09-4.2,1.57 c-2.16,0.48-6.53,1.15-6.53,1.15l-0.3-0.71l-0.98,0.21l0.05,0.7l-2.38,0.13l-0.51-0.69l-0.79,0.02l0.12,0.61 c0,0-1.47-0.02-2.29-0.51c-0.15-0.23-0.46-0.61-0.46-0.61l-0.56-0.31l0.07,0.58l-2.04-0.73l-0.1-0.79l-0.59-0.34l-0.03,0.57 l-1.46-1.12l-0.16-0.69l-3.64-2.55l-0.57,1.33l-2.55-0.55l-0.08-0.55l-0.65-0.27l-0.45,0.42l-1.71-0.7l-0.04-0.51l-0.56-0.19 l-0.06,0.37l-1.62-1.12l-0.31-2.23l-0.07-2.42L107.64,229.04L107.64,229.04"/>
<path d="M62.35,229.04c-0.08,0.49-0.24,0.98-0.51,1.49c-0.95,1.78-2.89,2.09-4.69,2.54 c-1.27,0.32-2.51,0.75-3.71,1.27c-1.66,0.72-2.48,1.96-3.77,3.15c-0.57,0.53-1.25,0.94-1.92,1.35c-1.65,1.01-3.25,1.11-5.14,1.19 c-2.53,0.1-4.78-0.2-7.29-0.72c-2.19-0.46-3.83-0.84-5.72-1.34c-0.61-0.16-1.36-0.27-1.67-0.76l0,0l-0.36,0.8l-0.21,1.64 c0,0,2.03,1.09,4.2,1.57c2.16,0.48,6.53,1.15,6.53,1.15l0.3-0.71l0.98,0.21l-0.05,0.7l2.38,0.13l0.51-0.69l0.8,0.02l-0.12,0.61 c0,0,1.47-0.02,2.29-0.51c0.15-0.23,0.46-0.61,0.46-0.61l0.56-0.31l-0.07,0.58l2.04-0.73l0.1-0.79l0.59-0.34l0.02,0.57l1.46-1.12 l0.16-0.69l3.64-2.55l0.57,1.33l2.55-0.55l0.08-0.55l0.65-0.27l0.45,0.42l1.71-0.7l0.04-0.51l0.56-0.19l0.07,0.37l1.62-1.12 l0.31-2.23l0.07-2.42L62.35,229.04L62.35,229.04"/>
</g>
<g id="Top_Gunslinger-Boot" fill="rgb(41, 40, 40)">
<path d="M121.87,227.77c-2.17-3.11-3.64-6.92-4.16-10.29l0,0l0.61-0.05l0.02,0l0.07-0.01l0.2-0.02l0.31-0.03 l0.13-0.02c0.35-0.04,0.7-0.09,1.04-0.14l0.54-0.1l0.11-0.03l0.04-0.01l0.08-0.02l0.37-0.09l0.33-0.08l0.06-0.01 c1.15-0.29,2.31-0.64,2.31-0.64c0.32,1.48,0.47,3.17,1.09,4.56c0.98,2.18,2.78,3.85,4.46,5.51c1.15,1.14,2.28,2.44,3.66,3.31 c0.58,0.37,1.21,0.66,1.84,0.9c-0.49,0.67-1.54,1.37-2.53,1.84c-0.93,0.44-2.17,0.88-3.28,1.04c-1.17,0.17-2.35-0.77-3.23-1.39 c-1.53-1.07-2.89-2.53-4.06-4.19L121.87,227.77"/>
<path d="M48.12,227.77c2.17-3.11,3.64-6.92,4.16-10.29l0,0l-0.61-0.05l-0.02,0l-0.08-0.01l-0.2-0.02l-0.31-0.03 l-0.13-0.02c-0.35-0.04-0.7-0.09-1.04-0.14l-0.54-0.1l-0.11-0.03l-0.04-0.01l-0.08-0.02l-0.37-0.09l-0.33-0.08l-0.06-0.01 c-1.15-0.29-2.31-0.64-2.31-0.64c-0.32,1.48-0.47,3.17-1.09,4.56c-0.98,2.18-2.78,3.85-4.46,5.51c-1.15,1.14-2.28,2.44-3.66,3.31 c-0.58,0.37-1.21,0.66-1.84,0.9c0.49,0.67,1.53,1.37,2.53,1.84c0.93,0.44,2.17,0.88,3.28,1.04c1.17,0.17,2.35-0.77,3.23-1.39 c1.53-1.07,2.89-2.53,4.06-4.19L48.12,227.77"/>
</g>
<g id="Side_Gunslinger-Boot" fill="rgb(45, 41, 41)">
<path d="M121.89,227.8c-1.87,0.54-3.7,1.24-5.44,2.12c-1.27,0.65-3.3,1.27-4.48,0.98c-3.66-0.92-4.27-4.3-4.27-4.3 c0.11-0.74,0.25-1.5,0.3-2.3c0.1-1.54-0.11-8.21,0.02-8.14c2.94,1.56,8.18,1.45,9.67,1.33l0,0 C118.23,220.86,119.71,224.69,121.89,227.8"/>
<path d="M48.09,227.8c1.87,0.54,3.7,1.24,5.44,2.12c1.27,0.65,3.3,1.27,4.48,0.98c3.66-0.92,4.27-4.3,4.27-4.3 c-0.11-0.74-0.25-1.5-0.3-2.3c-0.1-1.54,0.11-8.21-0.02-8.14c-2.94,1.56-8.18,1.45-9.67,1.33l0,0 C51.76,220.86,50.28,224.69,48.09,227.8"/>
</g>
</g></g>
<g id="Gloves">
<g id="Left-Glove">
<g id="Fingerless_Left_Glove" class="option" style="display: inherit;">
<g id="Fingers_Fingerless_Left_Glove" fill="rgb(66, 63, 63)">
<path d="M138.6,124.11c-0.54-0.03-1.05-0.01-1.58,0.1c-0.36,0.08-0.72,0.16-1.04,0.35 c-0.99,0.57-0.72,1.81,0.16,2.28c1.03,0.55,2.66,0.01,3.13-1.05C139.46,125.35,138.86,124.53,138.6,124.11"/>
<path d="M136.79,125.19c-0.54-0.03-1.05-0.02-1.59,0.1c-0.36,0.08-0.72,0.16-1.04,0.35 c-0.99,0.57-0.72,1.81,0.16,2.28c1.03,0.55,2.66,0.01,3.13-1.05C137.65,126.43,137.05,125.61,136.79,125.19"/>
<path d="M135.51,126.62c-0.54,0.05-1.21,0.17-1.73,0.35c-0.35,0.12-0.69,0.26-0.99,0.48 c-0.9,0.7-0.47,1.89,0.47,2.24c1.1,0.41,2.64-0.35,2.96-1.46C136.36,127.76,135.51,126.62,135.51,126.62z"/>
<path d="M129.95,119.82c-0.3,1.34-0.55,2.07-0.55,2.07s-1.38,2.79-1.14,3.43c0.24,0.64,1.45,1.21,2.15,0.87 c0.86-0.42,1.93-2.39,2.61-3.77c0.25-0.51,0.48-1.1,0.68-1.64C130.94,121.18,129.95,119.82,129.95,119.82L129.95,119.82z"/>
<path d="M135.64,126.41c-0.2,0.34-0.43,0.7-0.68,1.08c-1.36,2.05-3.46,3.81-2.07,5.37 c1.29,1.46,4.22-2.37,4.22-2.37l1.36-1.77C136.2,128.19,135.64,126.42,135.64,126.41z"/>
</g>
<path id="Glove_Fingerless_Left_Glove" d="M138.46,128.72l1.51-1.96c0,0,3.3-5.41,3.47-6.46 c0.13-0.8,0.02-3.47,0.02-3.47l-1.03-10.37l-5.24,0.44l-4.31,1.39l-0.32,1.77c0,0-1.56,2.15-1.97,3.69 c-0.29,1.09-0.13,3.68-0.49,5.43c-0.05,0.23-0.1,0.44-0.14,0.65l0,0c0,0,0.99,1.37,3.74,0.96c0.35-0.96,0.58-1.78,0.58-1.78 s0.95,0.32,1.43,0.7c1.61,1.24,0.91,4.96,0.91,4.96s-0.37,0.74-0.98,1.75C135.64,126.42,136.2,128.19,138.46,128.72z" fill="rgb(30, 36, 43)"/>
</g></g>
<g id="Right-Glove">
<g id="Fingerless_Right_Glove" class="option" style="display: inherit;">
<g id="Fingers_Fingerless_Right_Glove" fill="rgb(66, 63, 63)">
<path d="M31.4,124.11c0.54-0.03,1.05-0.01,1.58,0.1c0.36,0.08,0.72,0.16,1.04,0.35c0.99,0.57,0.72,1.81-0.16,2.28 c-1.03,0.55-2.66,0.01-3.13-1.05C30.53,125.35,31.14,124.53,31.4,124.11"/>
<path d="M33.21,125.19c0.54-0.03,1.05-0.02,1.58,0.1c0.36,0.08,0.72,0.16,1.04,0.35c0.99,0.57,0.72,1.81-0.16,2.28 c-1.03,0.55-2.66,0.01-3.13-1.05C32.35,126.43,32.95,125.61,33.21,125.19"/>
<path d="M34.49,126.62c0.54,0.05,1.21,0.17,1.73,0.35c0.35,0.12,0.69,0.26,0.99,0.48c0.9,0.7,0.47,1.89-0.47,2.24 c-1.1,0.41-2.64-0.35-2.96-1.46C33.64,127.76,34.49,126.62,34.49,126.62z"/>
<path d="M40.05,119.82c0.3,1.34,0.55,2.07,0.55,2.07s1.38,2.79,1.14,3.43c-0.24,0.64-1.45,1.21-2.15,0.87 c-0.86-0.42-1.93-2.39-2.61-3.77c-0.25-0.51-0.48-1.1-0.68-1.64C39.06,121.18,40.05,119.82,40.05,119.82L40.05,119.82z"/>
<path d="M34.36,126.41c0.2,0.34,0.43,0.7,0.68,1.08c1.36,2.05,3.46,3.81,2.08,5.37c-1.29,1.46-4.22-2.37-4.22-2.37 l-1.36-1.77C33.8,128.19,34.36,126.42,34.36,126.41z"/>
</g>
<path id="Glove_Fingerless_Right_Glove" d="M31.54,128.72l-1.51-1.96c0,0-3.3-5.41-3.47-6.46 c-0.13-0.8-0.02-3.47-0.02-3.47l1.03-10.37l5.24,0.44l4.31,1.39l0.32,1.77c0,0,1.56,2.15,1.97,3.69 c0.29,1.09,0.13,3.68,0.49,5.43c0.05,0.23,0.1,0.44,0.14,0.65l0,0c0,0-0.99,1.37-3.74,0.96c-0.35-0.96-0.58-1.78-0.58-1.78 s-0.95,0.32-1.43,0.7c-1.61,1.24-0.91,4.96-0.91,4.96s0.37,0.74,0.98,1.75C34.36,126.42,33.8,128.19,31.54,128.72z" fill="rgb(30, 36, 43)"/>
</g></g>
</g>
<g id="Biceps">
<g id="Left-Biceps">
<g id="None_Biceps_Left" class="option" style="display: inherit;">
</g></g>
<g id="Right-Biceps">
<g id="None_Biceps_Right" class="option" style="display: inherit;">
</g></g>
</g>
<g id="BicepsDecals" mask="url(#BicepsMask)">
</g>
<path id="Vest" d="M85,20.92c8.5-0.01,15.43-4.3,15.63-8.01l0.15,0.02l18.38,5.42l13.31,23.94l-2.86,1.16l-13.42-8.6 l-2.31,3.72l-1.54,47.4c0,0-8.72,4.71-13.53,5.35c-3.44,0.45-8.63,0.68-13.79,0.67c-5.16,0.01-10.35-0.22-13.79-0.67 c-4.81-0.63-13.53-5.35-13.53-5.35l-1.54-47.4l-2.31-3.72l-13.42,8.6l-2.86-1.16l13.31-23.94l18.38-5.42l0.15-0.02 C69.57,16.62,76.5,20.92,85,20.92" fill="rgb(30, 36, 43)"/>
<g id="SuitDecals" mask="url(#SuitMask)">
</g>
<g class="swappable" id="Chest"><g id="Chest_Legacy">
<g id="Abdomen_Legacy">
<path id="Plate-4_Upper-Armor_Legacy" d="M95.64,73.32l-1.44-1.34L85,70.64l-9.2,1.34l-1.44,1.34l-17.34-2.68 l0.6,7.5l27.44,4.26l27.33-4.26l0.6-7.5L95.64,73.32z" fill="rgb(65, 65, 65)"/>
<path id="Plate-3_Upper-Armor_Legacy" d="M95.99,66.64L94.5,65.3L85,63.96l-9.5,1.34l-1.49,1.34L56.1,63.96 l0.62,7.5l28.34,4.26l28.23-4.26l0.62-7.5L95.99,66.64z" fill="rgb(65, 65, 65)"/>
<path id="Plate-2_Upper-Armor_Legacy" d="M96.35,59.73l-1.53-1.34L85,57.05l-9.82,1.34l-1.54,1.34l-18.51-2.68 l0.64,7.5l29.28,4.26l29.16-4.26l0.64-7.5L96.35,59.73z" fill="rgb(65, 65, 65)"/>
<path id="Plate-1_Upper-Armor_Legacy" d="M96.84,52.07l-1.6-1.42L85,49.23l-10.24,1.43l-1.6,1.42h-19.3l0.66,5.11 l30.54,4.53l30.41-4.53l0.67-5.11H96.84z" fill="rgb(65, 65, 65)"/>
<g id="Trauma-Plates_Abdomen_Legacy" class="toggle" style="display:none"/>
</g>
<g id="Chest-Plates_Legacy">
<g id="Left-Chest_Legacy">
<path id="Chest_Left_Legacy" d="M85.01,28.01v21.98l10.1,1.2l1.61,1.21h19.4l1.45-0.9l0.65-13.19l-5.03-13.59 L85.01,28.01z" fill="rgb(41, 84, 116)"/>
<path id="Trauma-Plating_Left-Chest_Legacy" class="toggle" style="display:none" d="M112.02,27.41l3.87,11.15l-0.63,11.61l-17.77,0.13 l-2.39-3.28h-8.45l2.84-2.62l0.22-11.27l-2.86-2.67L112.02,27.41z" fill="rgb(255, 255, 255)"/>
</g>
<g id="Right-Chest_Legacy">
<path id="Chest_Right_Legacy" d="M84.99,28.01v21.98l-10.1,1.2l-1.61,1.21h-19.4l-1.45-0.9l-0.65-13.19 l5.03-13.59L84.99,28.01z" fill="rgb(41, 84, 116)"/>
<path id="Trauma-Plating_Right-Chest_Legacy" class="toggle" style="display:none" d="M57.98,27.41l-3.87,11.15l0.63,11.61l17.77,0.13 l2.39-3.28h8.45L80.5,44.4l-0.22-11.27l2.86-2.67L57.98,27.41z" fill="rgb(255, 255, 255)"/>
</g>
</g>
<g id="Iron-Heart_Legacy">
<path id="Heart_Legacy" d="M82.3,42.85v-9.13l2.7-2.1l2.7,2.1v9.13L85,45.56L82.3,42.85z" fill="rgb(193, 95, 30)"/>
<rect id="Center_Heart_Legacy" class="option" x="84.07" y="35.12" width="1.87" height="6.25" fill="rgb(145, 33, 0)" style="display: inherit;"/></g>
<g id="Neck-Armor_Legacy">
<path id="Neck-Plate_Legacy" d="M74.29,26.73l-17.53-2.01l1.39-9.65l11.55-3.44c0,0,1.53,2.57,2.64,3.49 c1.14,0.93,2.66,2.02,4.08,2.64c1.56,0.68,3.46,1.13,5.27,1.42c2.03,0.33,5.01,0.33,7.04,0c1.81-0.29,3.91-0.75,5.47-1.42 c1.43-0.62,2.75-1.71,3.89-2.64c1.11-0.91,2.64-3.49,2.64-3.49l11.55,3.44l0.94,9.65L96.2,26.68l-11.14,1.33L74.29,26.73z" fill="rgb(41, 84, 116)"/>
<path id="Trauma-Plates_Neck_Legacy" class="toggle" style="display:none" d="M83.19,25.56l-9.03-1.08l-14.92-2.31l0.67-5.55l8.16-2.51 c0,0,3.04,2.57,4.15,3.49c1.14,0.93,2.66,2.02,4.08,2.64c1.56,0.68,3.46,1.13,5.27,1.42c0.5,0.08,1.04,0.14,1.62,0.18V25.56z M86.81,21.87c0.65-0.04,1.26-0.1,1.81-0.19c1.81-0.29,3.91-0.75,5.47-1.42c1.43-0.62,2.75-1.71,3.89-2.64 c1.11-0.91,4.02-3.49,4.02-3.49l8.28,2.51l0.48,5.85l-14.69,1.96l-9.26,1.11V21.87z" fill="rgb(255, 255, 255)"/>
</g>
</g></g>
<g id="ChestDecals" mask="url(#ChestMask)">
</g>
<g id="Chest-Attachments"><g id="No-Device_Accessories_Chest" class="option" style="display: inherit;">
</g>
</g>
<g id="Collar"><g id="None_Collar" class="option" style="display: inherit;">
</g>
</g>
<g id="CollarDecals" mask="url(#CollarMask)">
</g>
<g id="Helmets" class="swappable" transform="translate(45,-52)"><g id="Helmet_Ironside">
<g id="Left-Earcap_Ironside" class="toggle"><g id="Ear-Cap_Left_Ironside" fill="rgb(193, 95, 30)">
<path d="M57.63,33.18h1.38l0.62,1.63v3.64H58.3v1.34h-0.65L57.63,33.18z"/>
<path d="M59.14,38.45v3.75l-0.67-2.41H58.3v-1.34H59.14z"/>
</g>
</g>
<g id="Right-Earcap_Ironside" class="toggle"><g id="Ear-Cap_Right_Ironside" fill="rgb(193, 95, 30)">
<path d="M22.37,33.18h-1.38l-0.62,1.63v3.64h1.32v1.34h0.65L22.37,33.18z"/>
<path d="M20.86,38.45v3.75l0.68-2.41h0.16v-1.34H20.86z"/>
</g>
</g>
<g id="Helmet_Pieces_Ironside">
<g id="Face-2_Ironside" fill="rgb(62, 62, 62)">
<path d="M22.47,40.78l-2.49,9.05l0.7-0.36l2.24-7.96L22.47,40.78z"/>
<path d="M19.98,49.83l13.3,7.71l-0.15-0.78l-12.44-7.28L19.98,49.83z"/>
<path d="M22.35,40.59l0.12,0.19l-2.49,9.05l13.3,7.71l1.5,7.72l-3.62-1.7l-1.87-3.5l-11.43-7.14l3.67-13.12h0.82 V40.59z"/>
<path d="M29.29,60.06l-11.43-7.14l0.82,1.37l11.07,6.63L29.29,60.06z"/>
<path d="M21.1,55.74v1.02l9.34,5.46l-0.7-1.3L21.1,55.74z"/>
<path d="M57.53,40.78l2.49,9.05l-0.7-0.36l-2.24-7.96L57.53,40.78z"/>
<path d="M60.02,49.83l-13.3,7.71l0.15-0.78l12.44-7.28L60.02,49.83z"/>
<path d="M57.65,40.59l-0.12,0.19l2.49,9.05l-13.3,7.71l-1.5,7.72l3.62-1.7l1.87-3.5l11.43-7.14l-3.67-13.12h-0.82 V40.59z"/>
<path d="M50.71,60.06l11.43-7.14l-0.82,1.37l-11.07,6.63L50.71,60.06z"/>
<path d="M58.9,55.74v1.02l-9.34,5.46l0.69-1.3L58.9,55.74z"/>
</g>
<g id="Face-1_Ironside" fill="rgb(79, 79, 79)">
<path d="M20.68,49.47l12.44,7.28l-1.97-10.1l-7.14-3.39L20.68,49.47z"/>
<path d="M59.32,49.47l-12.44,7.28l1.97-10.1l7.14-3.39L59.32,49.47z"/>
</g>
<g id="Cheeks_Ironside" fill="rgb(44, 45, 47)">
<path d="M22.35,40.59l1.67,2.68l7.14,3.39l-0.22-1.15L22.35,40.59z"/>
<path d="M22.92,41.51l-2.24,7.96l3.34-6.2L22.92,41.51z"/>
<path d="M57.65,40.59l-1.67,2.68l-7.14,3.39l0.22-1.15L57.65,40.59z"/>
<path d="M57.08,41.51l2.24,7.96l-3.34-6.2L57.08,41.51z"/>
</g>
<path fill="rgb(10, 12, 14)" id="Visor_Ironside" d="M36.72,65.26l1.73-2.19l-1.2-23.28l-14.3-2.28v-0.92h34.12v0.92l-14.3,2.28l-1.2,23.28 l1.73,2.19H36.72z"/>
<g id="Eyes-2_Ironside" fill="rgb(193, 95, 30)">
<path d="M31.8,46.87h1.45l1.68,8.1v7.73L31.8,46.87z"/>
<path d="M48.2,46.87h-1.45l-1.68,8.1v7.73L48.2,46.87z"/>
<g>
<g>
<path d="M33.37,47.42l-1.4,0.28l0.11,0.54l1.4-0.28L33.37,47.42z"/>
<path d="M33.63,48.7l-1.4,0.28l0.11,0.54l1.4-0.28L33.63,48.7z"/>
<path d="M33.89,49.98l-1.4,0.28l0.11,0.54l1.4-0.28L33.89,49.98z"/>
<path d="M34.15,51.27l-1.4,0.28l0.11,0.54l1.4-0.28L34.15,51.27z"/>
</g>
<g>
<path d="M46.63,47.42l1.4,0.28l-0.11,0.54l-1.4-0.28L46.63,47.42z"/>
<path d="M46.37,48.7l1.4,0.28l-0.11,0.54l-1.4-0.28L46.37,48.7z"/>
<path d="M46.11,49.98l1.4,0.28l-0.11,0.54L46,50.53L46.11,49.98z"/>
<path d="M45.85,51.27l1.4,0.28l-0.11,0.54l-1.4-0.28L45.85,51.27z"/>
</g>
</g>
<g>
<path d="M35.84,33.66l1.54-0.49v0.97L35.84,33.66z"/>
<path d="M44.3,33.66l-1.54-0.49v0.97L44.3,33.66z"/>
</g>
</g>
<g id="Eyes-1_Ironside" fill="rgb(107, 107, 107)">
<path d="M22.94,36.59v0.92l-0.59,0.37v-1.64L22.94,36.59z"/>
<path d="M22.94,37.51l14.3,2.28l-0.46,0.42l-14.43-2.33L22.94,37.51z"/>
<path d="M37.24,39.79l1.2,23.28h-0.53l-1.14-22.86L37.24,39.79z"/>
<path d="M22.35,37.88v2.71l8.59,4.91l3.85,19.75l0.79,0.7l2.34-2.89l-1.14-22.86L22.35,37.88z M31.8,46.87h1.45 l1.68,8.1v7.73L31.8,46.87z"/>
<path d="M30.94,45.5l3.85,19.75l0.79,0.7L31.43,45L30.94,45.5z"/>
<path d="M37.92,63.07l-2.34,2.89h0.59l2.28-2.89H37.92z"/>
<path d="M31.43,45l-9.08-5.22v0.81l8.59,4.91L31.43,45z"/>
<path d="M57.65,37.88v2.71l-8.59,4.91l-3.85,19.75l-0.79,0.7l-2.34-2.89l1.14-22.86L57.65,37.88z M48.2,46.87h-1.45 l-1.68,8.1v7.73L48.2,46.87z"/>
<path d="M57.06,36.59v0.92l0.59,0.37v-1.64L57.06,36.59z"/>
<path d="M57.06,37.51l-14.3,2.28l0.46,0.42l14.43-2.33L57.06,37.51z"/>
<path d="M42.76,39.79l-1.2,23.28h0.53l1.14-22.86L42.76,39.79z"/>
<path d="M49.06,45.5l-3.85,19.75l-0.79,0.7L48.56,45L49.06,45.5z"/>
<path d="M42.08,63.07l2.34,2.89h-0.59l-2.28-2.89H42.08z"/>
<path d="M48.56,45l9.09-5.22v0.81l-8.59,4.91L48.56,45z"/>
<path d="M45,31.5l2.16,2.41h10.63v1.91l-17.72-0.13l-17.72,0.13v-1.91h10.63l2.16-2.41H45z M35.84,33.66l1.54-0.49 v0.97L35.84,33.66z M44.3,33.66l-1.54-0.49v0.97L44.3,33.66z"/>
<path d="M22.35,36.24v-0.42l17.58-0.13v0H40h0.07v0l17.58,0.13v0.42H22.35z"/>
<path d="M22.94,36.59l-0.59-0.35h35.3l-0.59,0.35H22.94z"/>
</g>
<g id="Dome-2_Ironside" fill="rgb(62, 62, 62)">
<path d="M32.98,33.91H22.33c0-6.48,3.69-12.12,9.13-15.06v1.56L32.19,20v-1.52c2.35-1.14,5-1.77,7.81-1.77 s5.45,0.64,7.81,1.77V20l0.74,0.42v-1.56c5.44,2.93,9.13,8.58,9.13,15.06H47.16L45,31.5h-9.87L32.98,33.91z"/>
<path d="M32.19,19.1V20l-0.74,0.42v-0.94l0.12-0.07L32.19,19.1z"/>
<path d="M48.42,19.41l0.12,0.07v0.94L47.81,20v-0.9L48.42,19.41z"/>
</g>
<path id="Dome-1_Ironside" d="M23.72,33.91c0-8.75,7.3-15.85,16.28-15.85s16.28,7.1,16.28,15.85h-9.12L45,31.5h-9.87 l-2.16,2.41H23.72z" fill="rgb(41, 84, 116)"/>
</g>
</g></g>
<g id="HelmetsDecals" mask="url(#HelmetsMask)"/>
<g id="Shoulders">
<g id="Left-Shoulder"><g id="Classic_Shoulder_Left" class="option" style="display: inherit;">
<path id="Main_Shoulder_Classic_Left" d="M117.21,13.84l-2.52,11.33l2.02,6.52l13.49,6.79l2.27-3.46L117.21,13.84z " fill="rgb(41, 84, 116)"/>
<path id="Trauma-Plates_Shoulder_Classic_Left" class="toggle" style="" d="M116.44,25.1l1.67,5.41l11.49,5.78l1.94-2.96 l-12.93-17.99L116.44,25.1z" fill="rgb(145, 33, 0)"/>
</g>
</g>
<g id="Right-Shoulder"><g id="Classic_Shoulder_Right" class="option" style="display: inherit;">
<path id="Main_Shoulder_Classic_Right" d="M52.79,13.84l2.52,11.33l-2.02,6.52l-13.49,6.79l-2.27-3.46L52.79,13.84 z" fill="rgb(41, 84, 116)"/>
<path id="Trauma-Plates_Shoulder_Classic_Right" class="toggle" style="display:none" d="M53.56,25.1l-1.67,5.41L40.4,36.29l-1.94-2.96 l12.93-17.99L53.56,25.1z" fill="rgb(255, 255, 255)"/>
</g>
</g>
</g>
<g id="ShouldersDecals" mask="url(#ShouldersMask)">
</g>
<g id="Gauntlets">
<g id="Left-Gauntlets"><g id="Basic_Gauntlet_Left" class="option" style="display: inherit;">
<path id="Top-2_Basic_Gauntlet_Left" d="M145.21,108.31l1.36-2.17l-3.89-18.32l-0.65,2.21l1.85,8.35l-0.72,2.07 L145.21,108.31z" fill="rgb(193, 95, 30)"/>
<path id="Top-1_Basic_Gauntlet_Left" d="M142.68,87.82l-0.65,2.21l1.85,8.35l-0.72,2.07l2.05,7.86l-0.9,1.43 l0.47,5.09l-1.57,0.41l-2.13-7.67l-1.46-0.54l-6.74-22.45l8.91-0.93L142.68,87.82z" fill="rgb(62, 62, 62)"/>
<g id="Accent-Bottom_Basic_Gauntlet_Left" fill="rgb(75, 75, 75)">
<path d="M129.49,91.34l-1.97,0.65l0.97,2.92l1.97-0.65L129.49,91.34z"/>
<path d="M131.16,96.45l-1.97,0.65l0.97,2.92l1.97-0.65L131.16,96.45z"/>
<path d="M132.91,101.68l-1.97,0.65l0.97,2.92l1.97-0.65L132.91,101.68z"/>
</g>
<path id="Bottom_Basic_Gauntlet_Left" d="M127.53,91.98l-0.73-2.22l6.19-4.8l6.63,22.08l-6.74,1.23l-2.71-8.25 l1.96-0.65l-0.97-2.92l-1.95,0.64l-0.72-2.19l1.97-0.65l-0.97-2.92L127.53,91.98z M132.91,101.68l-1.98,0.65l0.96,2.92l1.99-0.65 L132.91,101.68z" fill="rgb(41, 41, 41)"/>
<g id="Whistling-Birds_Attachment_Basic_Gauntlet_Left" class="option" style="display: inherit;">
<path id="Head_Whistling-Birds_Attachment_Basic_Gauntlet_Left" d="M148.09,98.4l-1.93,5.61l-1.06-4.98 L148.09,98.4z" fill="rgb(112, 97, 84)"/>
<g id="Birds_Whistling-Birds_Attachment_Basic_Gauntlet_Left" fill="rgb(133, 37, 9)">
<g>
<path d="M145.66,99.29c0.12-0.02,0.27,0.21,0.33,0.52c0.07,0.31,0.02,0.59-0.09,0.61 c-0.12,0.03-0.27-0.21-0.33-0.52C145.5,99.59,145.54,99.31,145.66,99.29z"/>
<path d="M146,100.87c0.12-0.03,0.27,0.21,0.33,0.52c0.07,0.31,0.03,0.58-0.09,0.61 c-0.12,0.03-0.27-0.21-0.33-0.52C145.84,101.17,145.88,100.9,146,100.87z"/>
<path d="M146.47,99.12c0.12-0.02,0.27,0.21,0.33,0.52c0.07,0.31,0.03,0.59-0.09,0.61 c-0.12,0.03-0.27-0.21-0.33-0.52C146.31,99.42,146.35,99.14,146.47,99.12z"/>
<path d="M146.36,103.4c-0.05-0.09-0.09-0.2-0.11-0.33c-0.07-0.31-0.03-0.59,0.09-0.61 c0.08-0.02,0.18,0.09,0.26,0.27L146.36,103.4z M146.92,101.77c-0.08-0.09-0.16-0.26-0.2-0.46c-0.07-0.31-0.02-0.58,0.09-0.61 c0.11-0.02,0.25,0.18,0.32,0.47L146.92,101.77z M147.51,100.08c-0.11,0-0.25-0.23-0.32-0.52c-0.07-0.31-0.03-0.58,0.09-0.61 c0.12-0.03,0.27,0.21,0.33,0.52c0.02,0.07,0.02,0.14,0.03,0.21L147.51,100.08z"/>
</g>
</g>
<g id="Base_Whistling-Birds_Attachment_Basic_Gauntlet_Left" fill="rgb(75, 75, 75)">
<path d="M144.7,83.41l-2.01,0.42l0.19,0.88l2.01-0.42L144.7,83.41z"/>
<path d="M145.07,84.25l-2.2,0.46l3.01,14.14l2.19-0.46L145.07,84.25z"/>
<path d="M145.39,84.34l-0.29,0.06l2.6,12.22l0.29-0.06L145.39,84.34z"/>
<path d="M144.72,84.33l-0.29,0.06l2.83,13.26l0.29-0.06L144.72,84.33z"/>
</g>
<g id="Accent_Whistling-Birds_Attachment_Basic_Gauntlet_Left" fill="rgb(41, 41, 41)">
<path d="M142.64,83.62l-0.8,0.17l3.06,14.36l0.8-0.17L142.64,83.62z"/>
<path d="M148.06,97.48l-3.16,0.66l0.19,0.88l3.16-0.66L148.06,97.48z"/>
<path d="M144.01,83.56l-1.32,0.28l0.44,2.06l1.32-0.28L144.01,83.56z"/>
<path d="M144.13,85.68l-1,0.21l1.04,4.9l0.61-2.05L144.13,85.68z"/>
</g>
</g></g>
</g>
<g id="Right-Gauntlets"><g id="Heavy_Gauntlet_Right" class="option" style="display: inherit;">
<g id="Top-2_Heavy_Gauntlet_Right" fill="rgb(41, 41, 41)">
<path d="M29.5,79.64l-1.74,0.13l-1.43,8.11l1.48,1.23L29.5,79.64z"/>
<path d="M27.93,88.39l-1.82,10.57l0.95,1.28l-1.11,6.22l0.44,0.32l3.07-17.02L27.93,88.39z"/>
<ellipse cx="27.92" cy="85.76" rx="0.38" ry="0.38"/>
</g>
<g id="Top-1_Heavy_Gauntlet_Right" fill="rgb(62, 62, 62)">
<path d="M30.76,107.96l-4.36-1.17l3.07-17.02l-1.54-1.38l1.66-9.27l6.59-0.67L30.76,107.96z"/>
<path d="M31.29,78.94l-1.82,10.82"/>
</g>
<g id="Accent-Top_Heavy_Gauntlet_Right" fill="rgb(41, 41, 41)">
<path d="M27.66,104.17l2.77,0.56l-0.42,2.15l-2.77-0.65L27.66,104.17z"/>
<path d="M29.4,95.16l2.77,0.56l-1.62,8.4l-2.77-0.56L29.4,95.16z"/>
<path d="M31.89,79.56l3.13-0.24l-1.64,9.21l-2.91-0.59L31.89,79.56z"/>
</g>
<path id="Bottom_Heavy_Gauntlet_Right" d="M36.11,78.88c3.37,0.13,6.88,1.57,9.06,4.4 c0.71,0.92,0.92,2.12,0.58,3.22c-1.64,5.35-7.01,22.84-7.01,22.84l-7.98-1.39L36.11,78.88z" fill="rgb(41, 84, 116)"/>
<g id="Accent-Bottom_Heavy_Gauntlet_Right" fill="rgb(41, 84, 116)">
<path d="M30.76,107.96l7.98,1.39l0.43-1.41l-8.13-1.52L30.76,107.96z"/>
<path d="M35.74,80.86c4.35,0.43,7.98,2.01,9.69,6.7l0.32-1.04c0.27-0.87,0.19-1.8-0.2-2.61l-0.41-0.65 c-2.19-2.81-5.68-4.24-9.03-4.37L35.74,80.86z"/>
<path d="M36.88,79.53l3.52,0.69l-2.77,13.89l-3.52-0.69L36.88,79.53z"/>
<path d="M37.29,79.88l2.59,0.51l-2.56,12.85l-2.59-0.51L37.29,79.88z"/>
<path d="M39.88,80.39l0.51-0.17"/>
<path d="M36.88,79.53l0.41,0.35"/>
<path d="M34.1,93.42l0.62-0.7"/>
<path d="M37.62,94.12l-0.37-0.89"/>
</g><g id="Flamethrower_Attachment_Heavy_Gauntlet_Right" class="option" style="display: inherit;">
<g id="Tubes_Flamethrower_Attachment_Heavy_Gauntlet_Right" fill="rgb(67, 67, 67)">
<path d="M28.01,79.84l0.82,0.14l-4.36,24.89l-0.82-0.14L28.01,79.84z"/>
<path d="M26.12,79.51l0.82,0.14l-3.12,17.84L23,97.35L26.12,79.51z"/>
<path d="M27.48,81.35l1.23,0.21l-1.04,5.93l-1.24-0.21L27.48,81.35z"/>
<path d="M25.7,81.04l1.13,0.19l-1.04,5.93l-1.13-0.2L25.7,81.04z"/>
</g>
<g id="Main_Flamethrower_Attachment_Heavy_Gauntlet_Right" fill="rgb(50, 51, 53)">
<path d="M25.84,79.07l3.38,0.58l-0.34,1.94l-3.38-0.58L25.84,79.07z"/>
<path d="M24.38,86.93l3.53,0.61l-0.17,0.95l-3.53-0.61L24.38,86.93z"/>
<path d="M24.36,87.9l3.24,0.56l-0.08,0.48l-3.24-0.56L24.36,87.9z"/>
<path d="M27.66,86.88L28.2,87l-0.51,2.89l-0.54-0.11L27.66,86.88z"/>
</g>
<g id="Accent_Flamethrower_Attachment_Heavy_Gauntlet_Right" fill="rgb(39, 45, 53)">
<path d="M22.97,97.35l0.88,0.15l-0.08,1.24l-1.15-0.2L22.97,97.35z"/>
<path d="M23.74,90.95l1.56,0.27l-0.33,1.89l-1.56-0.27L23.74,90.95z"/>
<path d="M23.62,92.87l1.13,0.2l-0.33,1.89l-1.13-0.19L23.62,92.87z"/>
<path d="M24.05,101.55l1.13,0.2l-0.45,2.59l-1.13-0.19L24.05,101.55z"/>
<path d="M25.51,93.2l1.13,0.19l-0.62,3.52l-1.13-0.2L25.51,93.2z"/>
<path d="M23.6,102.81l1.56,0.27l-0.09,0.5l-1.56-0.27L23.6,102.81z"/>
</g>
<path id="Base_Flamethrower_Attachment_Heavy_Gauntlet_Right" d="M28.2,87l1.39-7.85l-1.01,0.21l-2.35,13.27 l0.87,0.59l0.59-3.32l-0.54-0.11l0.51-2.89L28.2,87z" fill="rgb(41, 41, 41)"/>
</g></g></g>
</g>
<g id="GauntletsDecals" mask="url(#GauntletsMask)">
</g>
<g id="Shins">
<g id="Left-Shin">
<g id="None_Shin_Left" class="option" style="display: inherit;">
</g></g>
<g id="Right-Shin"><g id="Basic-Shnees_Shin_Right" class="option" style="display: inherit;">
<path id="Shin_Basic-Shnees-Shin_Right" d="M69.98,163.03c0.2-2.15-1.34-4.08-3.5-4.35 c-2.69-0.35-6.23-0.8-8.89-1.14c-2.12-0.27-4.09,1.15-4.48,3.24c-0.88,4.63-2.45,11.9-3.65,11.72l-4.97,46.08l9.94,1.23 l3.07,3.51l4.62-0.93l9.52-47.03C69.23,175.08,69.54,167.72,69.98,163.03" fill="rgb(65, 65, 65)"/>
<g id="Straps_Basic-Shnees-Shin_Right" class="toggle" fill="rgb(48, 45, 42)">
<path d="M70.59,182.55l-5.15-0.86l-0.54,2.35l5.15,0.86L70.59,182.55"/>
<path d="M70.25,182.3l-1.09-0.18l-0.64,2.78l1.09,0.18L70.25,182.3"/>
<path d="M65.97,205.24l-5.15-0.86l-0.54,2.35l5.15,0.86L65.97,205.24"/>
<path d="M65.63,204.99l-1.09-0.18l-0.64,2.78l1.09,0.18L65.63,204.99"/>
</g>
<g id="Accent_Basic-Shnees-Shin_Right" class="toggle" fill="rgb(145, 33, 0)">
<path d="M57.71,157.29l3.81-0.25l3.81,1.06l-11.57,61.61l-4.61-0.57L57.71,157.29"/>
<path d="M61.51,157.04l-10.23,62.37"/>
</g>
</g></g>
</g>
<g id="ShinsDecals" mask="url(#ShinsMask)">
</g>
<g id="Foot">
<g id="Left-Ankle">
<g id="None_Ankle_Left" class="option" style="display: inherit;">
</g></g>
<g id="Left-Toe"><g id="Spikes_Toe_Left" class="option" fill="rgb(98, 97, 97)" style="display: inherit;">
<path d="M132.2,239.82c2.86-0.5,5.74-1.18,8.65-2.03c0.22-0.06,0.46-0.02,0.64,0.11c0.18,0.13,0.3,0.35,0.3,0.57 c0.01,0.49,0.03,0.99,0.03,0.99c-2.06,0.93-4.63,1.59-7.61,2.04c-0.49,0.08-1-0.07-1.38-0.38 C132.45,240.79,132.22,240.32,132.2,239.82C132.2,239.82,132.2,239.82,132.2,239.82"/>
<path d="M137.04,241.77c0,0-2.79-0.31-3.86-0.43c-0.16-0.02-0.31-0.1-0.42-0.23c-0.1-0.13-0.15-0.29-0.13-0.46 c0.11-0.58,0.51-0.85,1.29-0.8c0.11,0.01,0.21,0.04,0.31,0.1C134.74,240.26,137.04,241.77,137.04,241.77"/>
<path d="M144.07,239.72c0,0-2.43-0.21-3.42-0.3c-0.2-0.02-0.37-0.13-0.48-0.29c-0.1-0.17-0.12-0.38-0.04-0.56 c0.21-0.27,0.52-0.42,1.03-0.39c0.1,0,0.2,0.03,0.28,0.08C141.87,238.47,144.07,239.72,144.07,239.72"/>
</g></g>
<g id="Right-Ankle">
<g id="None_Ankle_Right" class="option" style="display: inherit;">
</g></g>
<g id="Right-Toe"><g id="Spikes_Toe_Right" class="option" fill="rgb(98, 97, 97)" style="display: inherit;">
<path d="M37.67,239.82c-2.86-0.5-5.74-1.18-8.65-2.03c-0.22-0.06-0.45-0.02-0.64,0.11c-0.19,0.13-0.3,0.35-0.3,0.57 c0,0.2-0.01,0.39-0.01,0.56c-0.01,0.26,0.14,0.5,0.38,0.6c1.99,0.84,4.42,1.44,7.21,1.86c0.5,0.08,1-0.07,1.38-0.38 C37.42,240.79,37.65,240.32,37.67,239.82C37.67,239.82,37.67,239.82,37.67,239.82"/>
<path d="M32.84,241.77c0,0,2.79-0.31,3.86-0.43c0.16-0.02,0.31-0.1,0.42-0.23c0.1-0.13,0.15-0.29,0.13-0.46 c-0.11-0.58-0.51-0.85-1.29-0.8c-0.11,0.01-0.21,0.04-0.31,0.1C35.13,240.26,32.84,241.77,32.84,241.77"/>
<path d="M25.81,239.72c0,0,2.43-0.21,3.42-0.3c0.2-0.02,0.37-0.13,0.48-0.29c0.1-0.17,0.12-0.38,0.04-0.56 c-0.21-0.27-0.52-0.42-1.03-0.39c-0.1,0-0.2,0.03-0.28,0.08C28,238.47,25.81,239.72,25.81,239.72"/>
</g></g>
</g>
<g id="FootDecals" mask="url(#FootMask)">
</g>
<g id="Knees">
<g id="Left-Knee"><g id="Long_Knee_Left" class="option" style="display: inherit;">
<g id="Missiles_Long-Knee_Left" class="toggle" style="">
<path id="Base_Missiles_Long-Knee_Left" d="M116.9,164.76l0.81,9.7l2.25-1.47c0.36-0.24,0.57-0.65,0.55-1.09 c-0.08-1.32-0.26-4.18-0.35-5.68c-0.04-0.57-0.46-1.04-1.03-1.12L116.9,164.76z" fill="rgb(65, 65, 65)"/>
<g id="Missile-2_Missiles_Long-Knee_Left" fill="rgb(145, 33, 0)">
<path d="M118.75,170.25c-0.57,0.09-0.95,0.62-0.85,1.18c0.1,0.56,0.63,0.94,1.2,0.85 c0.57-0.09,0.95-0.62,0.85-1.18C119.85,170.54,119.31,170.16,118.75,170.25z"/>
<path d="M118.81,170.58c-0.38,0.06-0.64,0.42-0.57,0.8c0.07,0.38,0.43,0.63,0.81,0.57 c0.38-0.06,0.64-0.42,0.57-0.8C119.55,170.78,119.19,170.52,118.81,170.58z"/>
</g>
<g id="Missile-1_Missiles_Long-Knee_Left" fill="rgb(145, 33, 0)">
<path d="M118.43,165.77c-0.57,0.09-0.95,0.62-0.85,1.18c0.1,0.56,0.63,0.95,1.2,0.85 c0.57-0.09,0.95-0.62,0.85-1.18C119.54,166.06,119,165.68,118.43,165.77z"/>
<path d="M118.5,166.1c-0.38,0.06-0.64,0.42-0.58,0.8c0.07,0.38,0.43,0.64,0.81,0.58c0.38-0.06,0.64-0.42,0.57-0.8 C119.24,166.3,118.88,166.04,118.5,166.1z"/>
</g>
</g>
<g id="Straps_Long-Knee_Left" fill="rgb(48, 45, 42)">
<path d="M97.84,164.02l1.18-0.18l0.4,2.6l-1.18,0.18L97.84,164.02z"/>
<path d="M97.26,164.43l0.63-0.1l0.3,1.96l-0.63,0.1L97.26,164.43z"/>
<path d="M117.61,163.66l-1.18,0.18l-0.4-2.59l1.18-0.18L117.61,163.66z"/>
<path d="M118.19,163.25l-0.63,0.1l-0.3-1.96l0.63-0.1L118.19,163.25z"/>
</g>
<g id="Knee_Long-Knee_Left" fill="rgb(65, 65, 65)">
<path d="M112.85,153.55l-13.32,2.2l-0.87,9.14l7.14,28.31l13.32-2.2l-2.46-29.08L112.85,153.55z"/>
<path d="M112.85,153.55l0.2,8.51l6.07,28.94"/>
<path d="M99.53,155.76l2.67,8.1l3.59,29.35"/>
<path d="M113.05,162.06l-10.85,1.79"/>
</g>
</g></g>
<g id="Right-Knee">
<g id="None-(Nih-Plates)_Knee_Right" class="option" style="display: inherit;">
</g></g>
</g>
<g id="KneesDecals" mask="url(#KneesMask)">
</g>
<g id="Thighs">
<g id="Left-Thigh"><g id="Pocket_Thigh_Left" class="option" fill="rgb(88, 92, 97)" style="display: inherit;">
<path d="M118.69,124.47c0.55,6.45,1.32,12.57,2.29,18.39c0.2,1.16-0.11,2.35-0.83,3.27c-0.73,0.93-1.82,1.5-3,1.59 c-5.35,0.43-10.77,1.25-16.24,2.29c-0.92,0.18-1.87-0.03-2.64-0.56c-0.76-0.54-1.27-1.36-1.41-2.28 c-0.92-6.1-2.78-18.4-3.5-23.17c-0.16-1.08,0.58-2.09,1.67-2.26c2.42-0.38,6.21-0.97,6.21-0.97L118.69,124.47"/>
<path d="M116.17,118.36c0.76-0.12,1.5,0.3,1.78,1.01c0.92,2.45,1.72,6.36,1.1,8.36c-0.8,2.59-8.94,17.56-10.96,21.25 c-0.28,0.52-0.8,0.86-1.38,0.93c-1.16,0.14-3.16,0.37-4.49,0.52c-0.73,0.08-1.4-0.43-1.51-1.15c-0.67-4.44-2.86-19-3.7-24.61 c-0.2-1.36-1.18-2.47-2.51-2.85l0,0C94.5,121.82,111.39,119.12,116.17,118.36"/>
<path id="Stitch_Left" d="M115.92,118.39c1.72-0.23,2.97,6.8,2.41,8.62c-0.72,2.34-8.84,17.84-10.67,21.18 c-0.25,0.47-0.72,0.78-1.25,0.84l-3.5,0.5c-0.66,0.08-1.27-0.38-1.37-1.04c-0.6-4.01-2.96-19.62-3.75-24.68 c-0.28-1.79-2.19-2.17-2.19-2.17"/>
<path d="M94.96,121.74l21.05-3.36"/>
</g></g>
<g id="Right-Thigh"><g id="Heavy_Thigh_Right" class="option" style="display: inherit;">
<g id="Thigh_Heavy-Thigh_Right" fill="rgb(65, 65, 65)">
<path d="M72.28,118.12l5.78,7.32l-6.6,26.24l-4.49,1.59l3.13-29.91L72.28,118.12"/>
<path d="M57.52,116.59l-7.17,5.98l1.03,27.03l4.06,2.47l3.13-29.91L57.52,116.59"/>
<path d="M57.52,116.59l14.76,1.52l-2.19,5.24l-11.51-1.19L57.52,116.59"/>
<path d="M58.58,122.17l11.51,1.19l-3.13,29.91l-11.51-1.19L58.58,122.17"/>
</g>
<g id="Trim_Heavy-Thigh_Right" fill="rgb(145, 33, 0)">
<path d="M56.94,114.3l16.38,1.69l-1.04,2.13l-14.76-1.52L56.94,114.3"/>
<path d="M50.63,120.01l6.31-5.72l0.58,2.3l-7.17,5.98L50.63,120.01"/>
<path d="M78.31,122.87l-4.99-6.88l-1.04,2.13l5.78,7.32L78.31,122.87"/>
</g>
</g></g>
</g>
<g id="ThighsDecals" mask="url(#ThighsMask)">
</g>
<g id="Groin"><g id="Basic_Groin" class="option" style="display: inherit;">
<path id="Groin-Plate_Basic" d="M78.67,122.29L68.22,99.4h33.42l-10.45,22.89l-6.26,5.46L78.67,122.29z" fill="rgb(65, 65, 65)"/>
<path id="Trauma-Plating_Groin" class="toggle" style="display:none" d="M79.77,120.38l-8.61-18.86H98.7l-8.61,18.86l-5.16,4.49L79.77,120.38z" fill="rgb(255, 255, 255)"/>
</g>
</g>
<g id="GroinDecals" mask="url(#GroinMask)">
</g>
<g id="Waist">
<g id="Accessories_Waist">
<g id="Kama" class="toggle" style=""><g id="Tattered_Kama" class="option" style="display: inherit;">
<g id="Main_Kama-Tattered" fill="rgb(30, 36, 43)">
<path d="M111.48,81.04c2.28-0.5,3.36,12.05,4.7,18.11c0.61,2.75,0.69,5.53,1.41,8.28 c1.24,4.78,3.46,9.54,4.5,14.23c0.83,3.75,0.3,7.62,1.22,11.39c0.69,2.85,2.14,5.32,3.1,8.04c1.07,3.05,1.74,6.1,2.52,9.22 c0.47,1.91,1.03,3.74,1.65,5.61c0.21,0.63,0.39,1.27,0.55,1.91c0.05,0.2,0.1,0.39,0.14,0.59c0.03,0.12,0.17,0.44,0.08,0.36 c-0.65-0.57-1-1.65-1.61-2.32c-1.18-1.3-2.66-2.28-3.77-3.64c-0.43-0.53-0.77-1.11-1.07-1.72c-0.03-0.05-0.22-0.52-0.25-0.51 c-2.29,0.48-4.56,1.34-6.5-0.59c-1.54-1.53-2.87-4.83-3.66-6.88c-0.33-0.86,0.11-5.91-0.47-6.38c-0.43-0.35-0.83,4.2-1.35,3.89 c-3.28-1.93-7.95-3.08-7.95-3.08s-0.36-6.44-0.1-10.13c0.24-3.31-0.23-6.19-0.72-9.43c-0.63-4.19-0.56-8.5-0.27-12.71 C104.08,98.46,98.82,83.81,111.48,81.04z M118.99,143c-0.4,1.7-0.44,3.65,0.53,5.18c0.32,0.51,1.14,1.33,1.85,1.11 c2.99-0.92-0.68-5.5-1.63-6.52L118.99,143z M110.22,130.56c-0.54,0.33-1.01,0.71-1.4,1.21c-1.42,1.79,2.47,0.9,1.8-1.28 L110.22,130.56z"/>
<path d="M58.44,81.04c-2.28-0.5-3.36,12.05-4.7,18.11c-0.61,2.75-0.69,5.53-1.41,8.28 c-1.24,4.78-3.47,9.54-4.5,14.23c-0.83,3.75-0.3,7.62-1.22,11.39c-0.69,2.85-2.14,5.32-3.1,8.04c-1.07,3.05-1.74,6.1-2.52,9.22 c-0.47,1.91-1.03,3.74-1.65,5.61c-0.21,0.63-0.39,1.27-0.55,1.91c-0.05,0.2-0.1,0.39-0.14,0.59c-0.03,0.12-0.17,0.44-0.08,0.36 c0.65-0.57,1-1.65,1.61-2.32c1.18-1.3,3.01-0.24,4.13-1.6c0.43-0.53,1-1.77,1.31-2.38c0.03-0.05,0.81-1.55,0.84-1.55 c2.28,0.48,0.85,2.18,2.8,0.26c1.54-1.53,5.4-6.03,6.19-8.07c0.33-0.86-0.3-2.65,0.28-3.12c0.43-0.35,1.02,0.94,1.54,0.63 c3.28-1.93,7.36-5.54,7.36-5.54s0.95-3.98,0.69-7.67c-0.24-3.31,0.23-6.19,0.72-9.43c0.63-4.19,0.56-8.5,0.27-12.71 C65.84,98.46,71.1,83.81,58.44,81.04z M50.1,144.15c0.4,1.7,0.35,1.39-0.62,2.93c-0.32,0.51-0.22,2.43-0.93,2.21 c-2.99-0.92,0.67-5.5,1.63-6.52L50.1,144.15z M57.19,136.25c0.54,0.33,2.26-0.1,2.66,0.4c1.42,1.79-3.92,3.34-3.25,1.16 L57.19,136.25z"/>
</g>
</g>
</g>
<g id="Loin-Cloth" class="toggle" style="display:none"/>
<g id="Left-Holster" class="toggle" style="display:none"/>
<g id="Right-Holster" class="toggle" style=""><g id="Belt-Holster_Right" class="option" style="display: inherit;">
<g id="Weapon_Belt-Holster-Right">
<g id="Main_Weapon_Belt-Holster-Right" fill="rgb(46, 46, 46)">
<path d="M53.1,99.11l0.24-3.6l-0.62-0.04l0.15-2.26l0.62,0.04l0.08-1.18c0.03-0.38-0.47-0.73-1.1-0.77 c-1.45-0.1-3.93-0.26-5.37-0.36c-0.63-0.04-1.17,0.23-1.19,0.62l-0.08,1.18l0.62,0.04l-0.15,2.26L45.68,95l-0.24,3.6l1.46,0.1 l-0.67,9.95l4.73,0.31l0.67-9.95L53.1,99.11z"/>
<path d="M46.1,98.11l0.84,0.06l-0.8,11.96l4.73,0.31l0.8-11.96l0.84,0.06l0.18-2.73l-6.41-0.42L46.1,98.11z"/>
<path d="M47.84,91.78l3.8,0.25l-0.25,3.69l-3.8-0.25L47.84,91.78z"/>
<path d="M50.51,99.49l0.62,0.04l-0.63,9.4l-0.62-0.04L50.51,99.49z"/>
<path d="M49.07,97.23l0.62,0.04l-0.63,9.4l-0.62-0.04L49.07,97.23z"/>
<path d="M47.33,99.28l0.62,0.04l-0.63,9.4l-0.62-0.04L47.33,99.28z"/>
</g>
<g id="Accent_Weapon_Belt-Holster-Right" fill="rgb(63, 71, 81)">
<path d="M50.8,96.06l-0.03,0.38l-2.68-0.18l0.02-0.38L50.8,96.06z"/>
<path d="M50.78,96.44l-0.03,0.38l-2.68-0.18l0.03-0.38L50.78,96.44z"/>
<path d="M50.83,95.68l-0.02,0.38l-2.68-0.18l0.03-0.38L50.83,95.68z"/>
<path d="M51.14,91.05l-0.02,0.38l-2.68-0.18l0.03-0.38L51.14,91.05z"/>
<path d="M51.01,91.99l0.62,0.04l-0.25,3.69l-0.62-0.04L51.01,91.99z"/>
<path d="M47.84,91.78l0.62,0.04l-0.25,3.69l-0.62-0.04L47.84,91.78z"/>
<path d="M47.96,99.32l0.94,0.06l-0.63,9.4l-0.94-0.06L47.96,99.32z"/>
<path d="M49.56,99.42l0.94,0.06l-0.63,9.4l-0.94-0.06L49.56,99.42z"/>
</g>
</g>
<path id="Holster_Belt-Holster-Right" d="M51.49,112.89l2.47-14.99l-8.29,10.56l-0.79,20.68 c1.44,1.89,3.04,2.08,4.84,0.36L51.49,112.89z" fill="rgb(55, 48, 43)"/>
</g>
</g>
<g id="Left-Trophy" class="toggle" style="display:none"/>
<g id="Right-Trophy" class="toggle" style="display:none"/>
</g>
<g id="Under-Belt"><g id="Girth-Belt" class="option" fill="rgb(30, 36, 43)" style="display: inherit;">
<path d="M84.93,84.93c-9.33,0-27.98-2.25-27.98-2.25l0.61-1.91c0,0,18.19,1.5,27.37,2.25 c9.13-0.75,27.37-2.25,27.37-2.25l0.6,1.91C112.91,82.68,94.25,84.93,84.93,84.93z"/>
<path d="M84.93,86.84c-9.52,0-28.56-2.25-28.56-2.25l0.58-1.91c0,0,23.31,1.88,27.98,2.25 c4.66-0.38,27.98-2.25,27.98-2.25l0.58,1.91C113.49,84.59,94.45,86.84,84.93,86.84z"/>
<path d="M84.93,88.75c-9.67,0-28.99-2.25-28.99-2.25l0.43-1.91c0,0,23.8,1.88,28.56,2.25 c4.76-0.38,28.56-2.25,28.56-2.25l0.43,1.91C113.92,86.49,94.6,88.75,84.93,88.75z"/>
<path d="M84.93,90.65c-9.79,0-29.36-2.25-29.36-2.25l0.37-1.91c0,0,24.16,1.88,28.99,2.25 c4.83-0.38,28.99-2.25,28.99-2.25l0.37,1.91C114.29,88.4,94.72,90.65,84.93,90.65z"/>
<path d="M84.93,92.56c-9.9,0-29.69-2.25-29.69-2.25l0.33-1.91c0,0,24.47,1.88,29.36,2.25 c4.89-0.38,29.36-2.25,29.36-2.25l0.33,1.91C114.62,90.31,94.83,92.56,84.93,92.56z"/>
<path d="M84.93,94.47c-10,0-30-2.25-30-2.25l0.31-1.91c0,0,24.74,1.88,29.69,2.25c4.95-0.38,29.69-2.25,29.69-2.25 l0.31,1.91C114.93,92.21,94.93,94.47,84.93,94.47z"/>
<path d="M84.93,96.37c-10.1,0-30.31-2.25-30.31-2.25l0.31-1.91c0,0,25,1.88,30,2.25c5-0.38,30-2.25,30-2.25 l0.31,1.91C115.24,94.12,95.03,96.37,84.93,96.37z"/>
<path d="M84.93,98.28c-10.21,0-30.62-2.25-30.62-2.25l0.32-1.91c0,0,25.26,1.88,30.31,2.25 c5.05-0.38,30.31-2.25,30.31-2.25l0.32,1.91C115.55,96.03,95.14,98.28,84.93,98.28z"/>
<path d="M84.93,100.19c-10.32,0-30.97-2.25-30.97-2.25l0.34-1.91c0,0,25.52,1.88,30.62,2.25 c5.1-0.38,30.62-2.25,30.62-2.25l0.35,1.91C115.9,97.93,95.25,100.19,84.93,100.19z"/>
<path d="M84.93,102.09c-10.45,0-31.36-2.25-31.36-2.25l0.39-1.91c0,0,25.81,1.88,30.97,2.25 c5.16-0.38,30.97-2.25,30.97-2.25l0.39,1.91C116.29,99.84,95.38,102.09,84.93,102.09z"/>
</g>
</g>
<g id="Belt"><g id="Pouch-Belt-6" class="option" style="display: inherit;">
<path id="Main_Pouch-Belt-6" d="M115.21,92.95c-6.82,0.61-22.4,2.83-30.27,2.83c-7.94,0-23.52-2.23-30.26-2.82 l1.01-7.93c5.53,0.49,21.56,2.74,29.26,2.74c7.47,0,23.17-2.23,29.07-2.76L115.21,92.95z" fill="rgb(56, 45, 41)"/>
<rect id="Buckle_Pouch-Belt-6" x="79.37" y="87.01" width="11.28" height="9.21" fill="rgb(79, 79, 79)"/>
<g id="Pouches_Pouch-Belt-6" fill="rgb(55, 48, 43)">
<g>
<g>
<g>
<path d="M70.81,84.98c-0.29-0.02-0.58,0.03-0.84,0.13c-0.71,0.28-2.1,0.82-2.1,0.82l8.08,0.46l2.19-0.94 C78.13,85.46,72.44,85.09,70.81,84.98z"/>
<path d="M78.41,85.73c0.01-0.08-0.03-0.17-0.1-0.22c-0.07-0.05-0.16-0.06-0.24-0.03 c-0.7,0.3-2.14,0.91-2.14,0.91l-1.05,12.41c0.72-0.42,1.44-0.69,2.15-0.84c0.41-0.08,0.7-0.43,0.71-0.85 C77.88,93.32,78.03,89.51,78.41,85.73z"/>
<path d="M75.94,86.4l-8.08-0.46c-0.05,1.89-0.23,3.77-0.33,5.65c-0.11,2.08-0.15,4.18-0.34,6.28 c-0.01,0.15,0.04,0.3,0.14,0.41c0.1,0.11,0.25,0.18,0.4,0.18c2.32-0.01,4.63,0.13,6.93,0.4c0.14,0.02,0.29-0.02,0.4-0.12 c0.11-0.09,0.18-0.22,0.19-0.37c0.1-1.47,0.37-5.34,0.37-5.34L75.94,86.4z"/>
<path d="M75.94,86.4l-8.08-0.46c0,0-0.19,1.59-0.38,3.14c-0.09,0.75,0.13,1.51,0.62,2.09 c0.49,0.58,1.2,0.94,1.96,0.98c0.96,0.06,2.01,0.12,2.97,0.17c0.76,0.04,1.51-0.23,2.07-0.75c0.55-0.52,0.86-1.25,0.86-2.01 C75.95,87.99,75.94,86.4,75.94,86.4z"/>
<path d="M71.64,90.75c0.29,0.02,0.51,0.26,0.49,0.55c-0.02,0.28-0.26,0.5-0.55,0.49 c-0.29-0.02-0.51-0.26-0.49-0.55C71.11,90.96,71.36,90.74,71.64,90.75z"/>
</g>
</g>
<g>
<g>
<path d="M59.65,83.47c-0.31-0.02-0.62,0.03-0.91,0.16c-0.67,0.29-1.86,0.81-1.86,0.81l7.38,0.42l2-0.95 C66.26,83.91,61.24,83.57,59.65,83.47z"/>
<path d="M66.52,84.19c0.01-0.09-0.03-0.17-0.1-0.22c-0.07-0.05-0.17-0.06-0.24-0.02 c-0.66,0.31-1.91,0.9-1.91,0.9l-1.02,12.42c0.65-0.41,1.29-0.68,1.93-0.85c0.39-0.09,0.68-0.44,0.69-0.84 C65.99,91.78,66.15,87.98,66.52,84.19z"/>
<path d="M64.26,84.85l-7.38-0.42c-0.06,1.89-0.23,3.77-0.33,5.65c-0.11,2.08-0.16,4.17-0.34,6.28 c-0.01,0.15,0.04,0.3,0.14,0.41s0.25,0.18,0.4,0.17c2.08-0.01,4.15,0.11,6.22,0.36c0.14,0.02,0.29-0.02,0.4-0.12 c0.11-0.09,0.18-0.23,0.19-0.37c0.1-1.47,0.37-5.33,0.37-5.33L64.26,84.85z"/>
<path d="M64.26,84.85l-7.38-0.42c0,0-0.18,1.6-0.36,3.15c-0.09,0.75,0.14,1.51,0.63,2.08 c0.49,0.58,1.2,0.93,1.96,0.97c0.73,0.04,1.51,0.08,2.23,0.13c0.76,0.04,1.51-0.23,2.06-0.75c0.55-0.52,0.87-1.25,0.86-2 C64.26,86.46,64.26,84.85,64.26,84.85z"/>
<path d="M60.31,89.23c0.26,0.01,0.46,0.26,0.44,0.54c-0.02,0.28-0.24,0.5-0.5,0.49 c-0.26-0.01-0.46-0.26-0.44-0.54C59.83,89.44,60.05,89.22,60.31,89.23z"/>
</g>
</g>
<g>
<path d="M52.22,84.29l0.55-0.85l2.83,0.09l0.35,1.06L52.22,84.29z"/>
<path d="M55.93,84.69c0.01-0.07-0.01-0.13-0.06-0.18c-0.04-0.05-0.11-0.08-0.17-0.08 c-0.85-0.03-3.48-0.13-3.48-0.13l-0.5,11.17c0.11,0.28,1.53,0.46,2.68,0.49c0.5,0.01,0.91-0.38,0.92-0.88 C55.4,91.61,55.53,88.14,55.93,84.69z"/>
</g>
</g>
<g>
<g>
<g>
<path d="M99.08,84.98c0.29-0.02,0.58,0.03,0.85,0.13c0.71,0.28,2.1,0.82,2.1,0.82l-8.08,0.46l-2.19-0.94 C91.76,85.46,97.45,85.09,99.08,84.98z"/>
<path d="M91.48,85.73c-0.01-0.08,0.03-0.17,0.1-0.22c0.07-0.05,0.16-0.06,0.24-0.03c0.7,0.3,2.14,0.91,2.14,0.91 L95,98.81c-0.72-0.42-1.44-0.69-2.15-0.84c-0.41-0.08-0.7-0.43-0.71-0.85C92.01,93.32,91.86,89.51,91.48,85.73z"/>
<path d="M93.95,86.4l8.08-0.46c0.05,1.89,0.23,3.77,0.33,5.65c0.11,2.08,0.15,4.18,0.34,6.28 c0.01,0.15-0.04,0.3-0.14,0.41c-0.1,0.11-0.25,0.18-0.4,0.18c-2.32-0.01-4.63,0.13-6.93,0.4c-0.14,0.02-0.29-0.02-0.4-0.12 c-0.11-0.09-0.18-0.22-0.19-0.37c-0.1-1.47-0.37-5.34-0.37-5.34L93.95,86.4z"/>
<path d="M93.95,86.4l8.08-0.46c0,0,0.19,1.59,0.38,3.14c0.09,0.75-0.14,1.51-0.62,2.09 c-0.49,0.58-1.2,0.94-1.96,0.98c-0.96,0.06-2.01,0.12-2.97,0.17c-0.76,0.04-1.51-0.23-2.06-0.75 c-0.55-0.52-0.87-1.25-0.86-2.01C93.94,87.99,93.95,86.4,93.95,86.4z"/>
<path d="M98.25,90.75c-0.29,0.02-0.51,0.26-0.49,0.55c0.02,0.28,0.26,0.5,0.55,0.49 c0.29-0.02,0.51-0.26,0.49-0.55C98.78,90.96,98.54,90.74,98.25,90.75z"/>
</g>
</g>
<g>
<g>
<path d="M110.24,83.47c0.31-0.02,0.62,0.03,0.91,0.16c0.67,0.29,1.86,0.81,1.86,0.81l-7.38,0.42l-2-0.95 C103.63,83.91,108.65,83.57,110.24,83.47z"/>
<path d="M103.37,84.19c-0.01-0.09,0.03-0.17,0.1-0.22c0.07-0.05,0.17-0.06,0.24-0.02 c0.66,0.31,1.91,0.9,1.91,0.9l1.02,12.42c-0.65-0.41-1.29-0.68-1.93-0.85c-0.39-0.09-0.68-0.44-0.69-0.84 C103.9,91.78,103.74,87.98,103.37,84.19z"/>
<path d="M105.63,84.85l7.38-0.42c0.06,1.89,0.23,3.77,0.33,5.65c0.11,2.08,0.16,4.17,0.34,6.28 c0.01,0.15-0.04,0.3-0.14,0.41c-0.1,0.11-0.25,0.18-0.4,0.17c-2.08-0.01-4.15,0.11-6.22,0.36c-0.14,0.02-0.29-0.02-0.4-0.12 c-0.11-0.09-0.18-0.23-0.19-0.37c-0.1-1.47-0.37-5.33-0.37-5.33L105.63,84.85z"/>
<path d="M105.63,84.85l7.38-0.42c0,0,0.18,1.6,0.36,3.15c0.09,0.75-0.14,1.51-0.63,2.08 c-0.49,0.58-1.2,0.93-1.96,0.97c-0.72,0.04-1.5,0.08-2.23,0.13c-0.76,0.04-1.51-0.23-2.06-0.75c-0.55-0.52-0.87-1.25-0.86-2 C105.63,86.46,105.63,84.85,105.63,84.85z"/>
<path d="M109.58,89.23c-0.26,0.01-0.46,0.26-0.44,0.54c0.02,0.28,0.24,0.5,0.5,0.49 c0.26-0.01,0.46-0.26,0.44-0.54C110.07,89.44,109.84,89.22,109.58,89.23z"/>
</g>
</g>
<g>
<path d="M117.67,84.29l-0.55-0.85l-2.83,0.09l-0.35,1.06L117.67,84.29z"/>
<path d="M113.96,84.69c-0.01-0.07,0.01-0.13,0.06-0.18c0.04-0.05,0.11-0.08,0.18-0.08 c0.85-0.03,3.48-0.13,3.48-0.13l0.5,11.17c-0.11,0.28-1.53,0.46-2.68,0.49c-0.5,0.01-0.91-0.38-0.92-0.88 C114.49,91.61,114.36,88.14,113.96,84.69z"/>
</g>
</g>
</g>
</g></g>
</g>
<g id="WaistDecals" mask="url(#WaistMask)">
</g>
<g id="Extras_Front">
<g id="Front"><g id="None_Front" class="option" style="display: inherit;">
</g>
</g>
</g>
<g id="Extras-FrontDecals" mask="url(#FrontMask)">
</g>
</g>
</svg>