<?xml version='1.0' encoding='UTF-8'?><svg version='1.1' xmlns='http://www.w3.org/2000/svg'><metadata><rdf:rdf xmlns:rdf="http://www.w3.org/1999/02/22-rdf-syntax-ns#" xmlns:rdfs="http://www.w3.org/2000/01/rdf-schema#" xmlns:dc="http://purl.org/dc/elements/1.1/"> <rdf:description> <dc:creator>MandoCreator</dc:creator> <dc:publisher>https://www.mandocreator.com</dc:publisher> <dc:description>Your Beskar'gam - created by MandoCreator</dc:description> <dc:format>image/svg+xml</dc:format> <dc:type>Image</dc:type> <dc:title>MandoCreator - Ner Berskar'gam</dc:title> <dc:date>2021-10-08T16:37:06.745Z</dc:date> </rdf:description> </rdf:rdf></metadata><svg version="1.1" id="Male" xmlns="http://www.w3.org/2000/svg" xmlns:xlink="http://www.w3.org/1999/xlink" x="0px" y="0px" viewBox="0 -55 169 300" style="fill: white; fill-rule: evenodd; stroke: black; stroke-width: 0.2px; pointer-events: none; position: relative; height: 100%;">
<g id="Extras_Back">
<g id="Back"><g id="NO-CAPES_Back" class="option" style="display: inherit;">
</g>
</g>
</g>
<g id="Suit">
<g id="Neck-Seal">
<path id="Plain-Neck-Seal" class="option" d="M97,6.1l2.9,6.8l-0.2,6.8l-15.3,1.6l-15.2-1.6L69,12.9l2.9-6.8l12.6,0.7L97,6.1" style="fill: rgb(56, 58, 66); display: inherit;"/>
</g>
<g id="Flight-Suit" style="fill: rgb(56, 58, 66);">
<path d="M72.8,158.4l-1.5,8.7l-11,53.1c0,0-4.9,3-7.4,3.5s-7.7-0.4-7.7-0.4l3.8-43l2.9-18.4l0.7-7.8 c0,0-2.5-22.8-1.7-34.1c0.8-11.4,6.6-34,6.6-34l26.8,0.6l26.8-0.6c0,0,5.8,22.6,6.6,34c0.8,11.4-1.7,34.1-1.7,34.1l0.7,7.8 l2.9,18.4l3.8,43c0,0-5.3,1.2-7.8,0.7s-7.3-3.7-7.3-3.7l-11-53.1l-1.5-8.7l-11.6-30.3L72.8,158.4z"/>
<g>
<path d="M128.5,43.3l11.9,41.6l1,21.5l-9.5,1.8l-6-20.2l-13.6-33.9l0.7-15.5l2.3-3.7L128.5,43.3z"/>
<path d="M40.3,43.3l13.1-8.4l2.3,3.7l0.5,16L42.8,88l-6,20.2l-9.5-1.8l1-21.5L40.3,43.3z"/>
</g>
</g>
<g id="Sleeves" class="toggle" style="fill: rgb(255, 255, 255); display: none;"/>
</g>
<g id="Boots">
<g id="Basic_Boots" class="option" style="display: inherit;">
<g id="Main_Basic-Boot" style="fill: rgb(45, 28, 20);">
<path d="M108.3,216.7c1.4,0,3.2,0.9,4.5,1.1c1.4,0.2,2.9,0.2,4.3,0.1l0.6-0.1h0.7c0.3,0,0.7-0.1,1-0.2l0.5-0.1h0.2 l0.4-0.1l0.3-0.1h0.1c1.1-0.3,2.2-0.7,2.2-0.7c0.3,1.4,0.5,3.1,1.1,4.5c1,2.1,0.9,3.1,2.6,4.7c1.1,1.1,4.1,3.1,5.4,3.9 c0.6,0.4,1.2,0.6,1.8,0.9h0.1c2.5,0.9,5.2,1.3,6.5,4c0.3,0.6,0.5,1.3,0.5,2c-0.1,0.9-1,1-1.7,1.2c-1.8,0.5-3.4,0.9-5.5,1.4 c-2.4,0.5-4.6,0.9-7.1,0.8c-1.8-0.1-3.4-0.1-5-1.1c-0.6-0.4-1.3-0.8-1.9-1.3c-1.3-1.1-2.1-2.4-3.7-3c-1.2-0.5-2.4-0.9-3.6-1.2 c-1.8-0.4-4.3-1-5.2-2.7c-0.4-1.3,0-1.9,0.1-3.1l0.1-0.5c0.1-0.7,0.2-1.5,0.3-2.3c0.1-1.5-0.3-3-0.4-4.5 c-0.1-0.9-0.1-1.7-0.1-2.6c0-0.1-0.1-0.8,0.1-0.8c0.2-0.1,0.4-0.1,0.6-0.1L108.3,216.7z"/>
<path d="M60.5,216.7c-1.4,0-3.2,0.9-4.5,1.1c-1.4,0.2-2.9,0.2-4.3,0.1l-0.6-0.1h-0.7c-0.3,0-0.7-0.1-1-0.2l-0.5-0.1 h-0.2l-0.4-0.1l-0.3-0.1h-0.1c-1.1-0.3-2.2-0.7-2.2-0.7c-0.3,1.4-0.5,3.1-1.1,4.5c-1,2.1-0.9,3.1-2.6,4.7 c-1.1,1.1-4.1,3.1-5.4,3.9c-0.6,0.4-1.2,0.6-1.8,0.9h-0.1c-2.5,0.9-5.2,1.3-6.5,4c-0.3,0.6-0.5,1.3-0.5,2c0.1,0.9,1,1,1.7,1.2 c1.8,0.5,3.4,0.9,5.5,1.4c2.4,0.5,4.6,0.9,7.1,0.8c1.8-0.1,3.4-0.1,5-1.1c0.6-0.4,1.3-0.8,1.9-1.3c1.3-1.1,2.1-2.4,3.7-3 c1.2-0.5,2.4-0.9,3.6-1.2c1.8-0.4,4.3-1,5.2-2.7c0.4-1.3,0-1.9-0.1-3.1l-0.1-0.5c-0.1-0.7-0.2-1.5-0.3-2.3 c-0.1-1.5,0.3-3,0.4-4.5c0.1-0.9,0.1-1.7,0.1-2.6c0-0.1,0.1-0.8-0.1-0.8c-0.2-0.1-0.4-0.1-0.6-0.1L60.5,216.7z"/>
</g>
<g id="Bottom_Basic-Boot" style="fill: rgb(47, 38, 28);">
<path d="M107.4,230.6c0.5,0.9,1.3,1.4,2.3,1.9c0.9,0.4,1.9,0.6,2.9,0.9c0.1,0,0.3,0.1,0.4,0.1 c0.2,0.1,0.4,0.1,0.6,0.2c0.1,0,0.1,0,0.2,0.1h0.1c0.1,0,0.1,0,0.2,0.1h0.1c0.1,0,0.2,0.1,0.3,0.1h0.2c0.2,0.1,0.3,0.1,0.5,0.2 h0.1c0.1,0.1,0.3,0.1,0.4,0.2h0.1c0.1,0,0.2,0.1,0.3,0.1h0.1c0.3,0.1,0.5,0.2,0.7,0.4h0.1c0.1,0,0.1,0.1,0.2,0.1 c0.1,0,0.1,0.1,0.2,0.1h0.1l0.1,0.1c0.3,0.2,0.5,0.5,0.8,0.7l1.5,1.5c0.1,0,0.1,0.1,0.2,0.1c0.1,0.1,0.2,0.1,0.3,0.2 c0.1,0,0.1,0.1,0.2,0.1c0.1,0.1,0.1,0.1,0.2,0.2c0,0,0.1,0,0.1,0.1c0.1,0.1,0.2,0.1,0.3,0.2c0.1,0,0.2,0.1,0.2,0.1l0.1,0.1 l0.2,0.1l0.1,0.1h0.2c0.1,0.1,0.2,0.1,0.3,0.2c0.1,0,0.1,0,0.2,0.1h0.1c0.3,0.1,0.7,0.3,1,0.3h1.5c0.2,0,0.4,0,0.7,0.1h3.5 c0.4,0,0.8-0.1,1.2-0.1h0.8c0.3-0.1,0.7-0.1,1-0.2h0.7c0.1,0,0.2,0,0.3-0.1h0.1c0.1,0,0.2,0,0.3-0.1c0.1,0,0.2,0,0.3-0.1 c0.6-0.1,1.1-0.2,1.6-0.4h0.2c0.1,0,0.3-0.1,0.4-0.1h0.3c0.2,0,0.4-0.1,0.6-0.1c0.1,0,0.2-0.1,0.3-0.1c0.3-0.1,0.7-0.2,1-0.3h0.5 c0.3-0.1,0.5-0.1,0.8-0.2h0.2l0.3-0.1h1.1c0.1-0.1,0.2-0.2,0.2-0.2s0.5,0.7,0.5,2c-1.1,1.6-4.6,2.1-9.4,2.8 c-4.8,0.6-7.7,0.5-9.7-0.3c-2-0.9-5.5-4.9-8-5.2c-2.5-0.2-5.5-1.5-6.7-2.3c-0.6-0.4-0.4-3-0.4-3L107.4,230.6z"/>
<path d="M61.4,230.6c-0.5,0.9-1.3,1.4-2.3,1.9c-0.9,0.4-1.9,0.6-2.9,0.9c-0.1,0-0.3,0.1-0.4,0.1 c-0.2,0.1-0.4,0.1-0.6,0.2c-0.1,0-0.1,0-0.2,0.1h-0.1c-0.1,0-0.1,0-0.2,0.1h-0.1c-0.1,0-0.2,0.1-0.3,0.1h-0.2 c-0.2,0.1-0.3,0.1-0.5,0.2h-0.1c-0.1,0.1-0.3,0.1-0.4,0.2H53c-0.1,0-0.2,0.1-0.3,0.1h-0.1c-0.3,0.1-0.5,0.2-0.7,0.4h-0.1 c-0.1,0-0.1,0.1-0.2,0.1c-0.1,0-0.1,0.1-0.2,0.1h-0.1l-0.1,0.1c-0.3,0.2-0.5,0.5-0.8,0.7l-1.5,1.5c-0.1,0-0.1,0.1-0.2,0.1 c-0.1,0.1-0.2,0.1-0.3,0.2c-0.1,0-0.1,0.1-0.2,0.1c-0.1,0.1-0.1,0.1-0.2,0.2c0,0-0.1,0-0.1,0.1c-0.1,0.1-0.2,0.1-0.3,0.2 c-0.1,0-0.2,0.1-0.2,0.1l-0.1,0.1l-0.2,0.1l-0.1,0.1h-0.2c-0.1,0.1-0.2,0.1-0.3,0.2c-0.1,0-0.1,0-0.2,0.1h-0.1 c-0.3,0.1-0.7,0.3-1,0.3h-1.5c-0.2,0-0.4,0-0.6,0.1h-3.5c-0.4,0-0.8-0.1-1.2-0.1h-0.8c-0.3-0.1-0.7-0.1-1-0.2h-0.7 c-0.1,0-0.2,0-0.3-0.1h-0.1c-0.1,0-0.2,0-0.3-0.1c-0.1,0-0.2,0-0.3-0.1c-0.6-0.1-1.1-0.2-1.6-0.4h-0.2c-0.1,0-0.3-0.1-0.4-0.1 h-0.3c-0.2,0-0.4-0.1-0.6-0.1c-0.1,0-0.2-0.1-0.3-0.1c-0.3-0.1-0.7-0.2-1-0.3H30c-0.3-0.1-0.5-0.1-0.8-0.2H29l-0.3-0.1h-1 c-0.1-0.1-0.2-0.2-0.2-0.2s-0.5,0.7-0.5,2c1.1,1.6,4.6,2.1,9.4,2.8c4.8,0.6,7.7,0.5,9.7-0.3c2-0.9,5.5-4.9,8-5.2 c2.5-0.2,5.5-1.5,6.7-2.3c0.6-0.4,0.4-3,0.4-3L61.4,230.6z"/>
</g>
<g id="Top_Basic-Boot" style="fill: rgb(45, 28, 20);">
<path d="M121.1,217.2c0.7,3.3,1.7,6.1,3.9,8.8c3.4,4.3,9.1,4.6,13.1,8.1c1,0.9,1,2.3,1.1,3.6c-1.7,0.5-3.1,0.8-5,1.3 c-0.1-1.3,0.1-2.8-1-3.7c-4-3.5-10.3-3.3-13.6-7.6c-2.2-2.8-2.2-6.4-2.9-9.7h0.3l0.6-0.1h0.7c0.3,0,0.7-0.1,1-0.2l0.5-0.1h0.2 l0.4-0.1l0.3-0.1h0.1C121,217.3,121.1,217.2,121.1,217.2z"/>
<path d="M47.6,217.2c-0.7,3.3-1.7,6.1-3.9,8.8c-3.4,4.3-9.1,4.6-13.1,8.1c-1,0.9-1,2.3-1.1,3.6 c1.6,0.5,3.1,0.8,5,1.3c0.1-1.3-0.1-2.8,1-3.7c4-3.5,10.3-3.3,13.6-7.6c2.2-2.8,2.2-6.4,2.9-9.7h-0.3l-0.6-0.1h-0.7 c-0.3,0-0.7-0.1-1-0.2l-0.5-0.1h-0.2l-0.4-0.1l-0.3-0.1h-0.1C47.8,217.3,47.7,217.2,47.6,217.2z"/>
</g>
<g id="Side_Basic-Boot" style="fill: rgb(50, 41, 32);">
<path d="M108.7,216.8c1.4,0.1,2.9,0.9,4.1,1.1h0.2v1.2c0,2-0.2,10.8-0.6,10.7c-0.4,0-1.6-0.2-1.9-0.5 c-0.2-0.2-0.2-0.7-0.3-1c-0.2-0.9-0.4-1.7-0.5-2.6c-0.2-1.2-0.3-2.4-0.4-3.5C109.2,220.3,108.9,218.6,108.7,216.8z"/>
<path d="M60.1,216.8c-1.4,0.1-2.9,0.9-4.1,1.1h-0.2v1.2c0,2,0.2,10.8,0.6,10.7c0.4,0,1.6-0.2,1.9-0.5 c0.2-0.2,0.2-0.7,0.3-1c0.2-0.9,0.4-1.7,0.5-2.6c0.2-1.2,0.3-2.4,0.4-3.5C59.6,220.3,59.9,218.6,60.1,216.8z"/>
</g>
</g>
</g>
<g id="Gloves">
<g id="Left-Glove">
<g id="Basic_Left_Glove" class="option" style="fill: rgb(45, 28, 20); display: inherit;">
<path d="M137.6,124.1c-0.5,0-1,0-1.6,0.1c-0.4,0.1-0.7,0.2-1,0.3c-1,0.6-0.7,1.8,0.2,2.3c1,0.6,2.6,0,3.1-1.1 C138.5,125.3,137.9,124.5,137.6,124.1"/>
<path d="M135.8,125.2c-0.5,0-1,0-1.6,0.1c-0.4,0.1-0.7,0.2-1,0.3c-1,0.6-0.7,1.8,0.2,2.3c1,0.5,2.6,0,3.1-1.1 C136.7,126.4,136.1,125.6,135.8,125.2"/>
<path d="M134.5,126.6c-0.5,0-1.2,0.1-1.7,0.3c-0.3,0.1-0.7,0.3-1,0.5c-0.9,0.7-0.5,1.9,0.5,2.2 c1.1,0.4,2.6-0.3,2.9-1.5C135.4,127.7,134.5,126.6,134.5,126.6z"/>
<path d="M131.6,110c0,0-1.6,2.1-2,3.7c-0.3,1.1-0.1,3.7-0.5,5.4c-0.4,1.7-0.7,2.7-0.7,2.7s-1.4,2.8-1.1,3.4 c0.2,0.6,1.4,1.2,2.1,0.9c0.9-0.4,1.9-2.4,2.6-3.8c0.7-1.4,1.2-3.4,1.2-3.4s0.9,0.3,1.4,0.7c1.6,1.2,0.9,5,0.9,5 s-0.7,1.3-1.7,2.8c-1.4,2-3.4,3.8-2.1,5.4c1.3,1.5,4.2-2.4,4.2-2.4l2.9-3.7c0,0,3.3-5.4,3.4-6.5c0.1-0.8,0-3.5,0-3.5l-1-10.4 l-5.2,0.4l-4.3,1.4L131.6,110"/>
</g>
</g>
<g id="Right-Glove">
<g id="Basic_Right_Glove" class="option" style="fill: rgb(45, 28, 20); display: inherit;">
<path d="M31.1,124.1c0.5,0,1,0,1.6,0.1c0.4,0.1,0.7,0.2,1,0.3c1,0.6,0.7,1.8-0.2,2.3c-1,0.6-2.6,0-3.1-1.1 C30.3,125.3,30.9,124.5,31.1,124.1"/>
<path d="M32.9,125.2c0.5,0,1,0,1.6,0.1c0.4,0.1,0.7,0.2,1,0.3c1,0.6,0.7,1.8-0.2,2.3c-1,0.5-2.6,0-3.1-1.1 C32.1,126.4,32.7,125.6,32.9,125.2"/>
<path d="M34.2,126.6c0.5,0,1.2,0.1,1.7,0.3c0.3,0.1,0.7,0.3,1,0.5c0.9,0.7,0.5,1.9-0.5,2.2c-1.1,0.4-2.6-0.3-2.9-1.5 C33.3,127.7,34.2,126.6,34.2,126.6z"/>
<path d="M37.1,110c0,0,1.5,2.1,2,3.7c0.3,1.1,0.1,3.7,0.5,5.4c0.4,1.7,0.7,2.7,0.7,2.7s1.4,2.8,1.1,3.4 c-0.2,0.6-1.4,1.2-2.1,0.9c-0.9-0.4-1.9-2.4-2.6-3.8c-0.7-1.4-1.2-3.4-1.2-3.4s-0.9,0.3-1.4,0.7c-1.6,1.2-0.9,5-0.9,5 s0.7,1.3,1.7,2.8c1.4,2,3.4,3.8,2.1,5.4c-1.3,1.5-4.2-2.4-4.2-2.4l-2.9-3.7c0,0-3.3-5.4-3.4-6.5c-0.1-0.8,0-3.5,0-3.5l1-10.4 l5.2,0.4l4.3,1.4L37.1,110"/>
</g>
</g>
</g>
<g id="Biceps">
<g id="Left-Biceps">
<g id="None_Biceps_Left" class="option" style="display: inherit;">
</g>
</g>
<g id="Right-Biceps">
<g id="None_Biceps_Right" class="option" style="display: inherit;">
</g>
</g>
</g>
<g id="Vest" style="fill: rgb(0, 0, 0);">
<path d="M84.4,20.9c8.4,0,15.3-4.3,15.5-8h0.1l18.3,5.4l13.2,23.9l-2.8,1.2l-13.3-8.6l-2.3,3.7l-1.5,47.4 c0,0-8.7,4.7-13.4,5.3c-3.4,0.5-8.6,0.7-13.7,0.7s-10.3-0.2-13.7-0.7c-4.8-0.6-13.4-5.3-13.4-5.3l-1.5-47.4l-2.3-3.7l-13.3,8.6 l-2.8-1.2l13.2-23.9L69,12.9h0.1C69,16.6,75.9,20.9,84.4,20.9"/>
</g>
<g class="swappable" id="Chest">
<g id="Chest_Classic" style="visibility: visible;">
<g id="Abdomen_Classic">
<path id="Abdomen-Plate_Classic" d="M71,79.4l-7.3-3L63,69.7l5.7-1.9l4.8-9.6l10.9-3.5l10.9,3.5l4.8,9.6l5.7,1.9 l-0.7,6.7l-7.3,3l-13.4-0.3L71,79.4" style="fill: rgb(163, 163, 163);"/>
<path id="Trauma-Plate_Abdomen_Classic" class="toggle" style="display: none; fill: rgb(255, 255, 255);" d="M94.2,59.5l-9.7-3.1l-9.7,3.1l-4.5,9c-0.2,0.4-0.5,0.7-1,0.8 l-4.4,1.5l0.4,4.5l6,2.5l13.1-0.3h0.1l13.1,0.3l6-2.5l0.4-4.5l-4.4-1.5c-0.4-0.1-0.8-0.4-1-0.8L94.2,59.5"/>
</g>
<g id="Iron-Heart_Classic">
<path id="Heart_Classic" d="M81.8,42.6v-9.1l2.7-2.1l2.7,2.1v9.1l-2.7,2.7L81.8,42.6" style="fill: rgb(163, 163, 163);"/>
<path id="Center_Heart_Classic" class="option" d="M85.4,34.9h-1.9v6.3h1.9V34.9" style="fill: rgb(163, 163, 163); display: inherit;"/>
</g>
<g id="Chest-Plates_Classic">
<g id="Left-Chest_Classic">
<path id="Chest_Left_Classic" d="M108.9,25.5l-22.3,2.7l-0.3,2l2.8,2.7L89,44.2l-2.5,2.4v3.7l9.6,2.7l3.8,8.7 l4.3,3.5l4.7-23.9l2.5-1.3L108.9,25.5" style="fill: rgb(163, 163, 163);"/>
<path id="Trauma-Plating_Left-Chest_Classic" class="toggle" style="display: none; fill: rgb(255, 255, 255);" d="M88,29.6l19.6-2.4l2.1,11.9l-2.2,1.1l-4.3,22.1l-1.9-1.6 l-4-9l-9.2-2.6v-1.9l2.5-2.4l0.2-12.6L88,29.6"/>
</g>
<g id="Right-Chest_Classic">
<path id="Chest_Right_Classic" d="M60.1,25.5l22.3,2.7l0.2,2.1L79.8,33L80,44.2l2.5,2.4v3.7L72.9,53l-3.8,8.7 l-4.3,3.5l-4.7-23.9L57.6,40L60.1,25.5" style="fill: rgb(163, 163, 163);"/>
<path id="Trauma-Plating_Right-Chest_Classic" class="toggle" style="display: none; fill: rgb(255, 255, 255);" d="M81,29.6l-19.6-2.4l-2.1,11.9l2.2,1.1l4.3,22.1l1.9-1.6 l4-9l9.2-2.6v-1.9l-2.5-2.4l-0.2-12.6L81,29.6"/>
</g>
</g>
<g id="Neck-Armor_Classic">
<path id="Neck-Plate_Classic" d="M74,24.1l-13.9-1.5l-2.5-7.7l11.5-3.4c0,0,1.5,2.6,2.6,3.5c1.1,0.9,2.6,2,4.1,2.6 c1.5,0.7,3.4,1.1,5.2,1.4c2,0.3,5,0.3,7,0c1.8-0.3,3.9-0.7,5.4-1.4c1.4-0.6,2.7-1.7,3.9-2.6c1.1-0.9,2.6-3.5,2.6-3.5l11.5,3.4 l-2.5,7.7L95,24.1l-10.5,1.4L74,24.1" style="fill: rgb(163, 163, 163);"/>
<path id="Trauma-Plates_Neck_Classic" class="toggle" style="display: none; fill: rgb(255, 255, 255);" d="M82.5,24L74,22.9l-12.8-2.4l-1.5-4.6l8.2-2.5 c0,0,2.4,2.5,3.5,3.4c1.1,0.9,3,1.7,4.4,2.3c1.5,0.7,3.4,1.1,5.2,1.4c0.5,0.1,1,0.1,1.5,0.2V24 M86.5,20.7c0.5,0,1-0.1,1.5-0.2 c1.8-0.3,3.9-0.7,5.4-1.4c1.4-0.6,3.2-1.6,4.4-2.5c1.1-0.9,2.9-3.4,2.9-3.4l8.6,2.6l-1.5,4.6L95,22.9L86.5,24V20.7"/>
</g>
</g>
</g>
<g id="Chest-Attachments">
<g id="No-Device_Accessories_Chest" class="option" style="display: inherit;">
</g>
</g>
<g id="Collar">
<g id="None_Collar" class="option" style="display: inherit;">
</g>
</g>
<svg version="1.1" id="Helmets" xmlns="http://www.w3.org/2000/svg" y="-54px" height="85px" viewBox="0 0 80 80" class="swappable">
<g id="Helmet_Classic" style="visibility: visible;">
<g id="Left-Earcap_Classic" class="toggle">
<path id="Ear-Cap_Left_Classic" d="M60.1,57.2l1.7-2.6l-1.7-17.8l-2.4-1.5L60.1,57.2z" style="fill: rgb(0, 133, 255);"/>
</g>
<g id="Right-Earcap_Classic" class="toggle">
<g id="Range-Finder_Right_Classic" class="option" style="display: inherit;">
<path id="Shaft_Right_Range-Finder_Classic" d="M22.5,9.7l1.1,0.1L22,36.7h-1.1L22.5,9.7z" style="fill: rgb(182, 182, 182);"/>
<path id="Finder_Right_Range-Finder_Classic" d="M30.8,7.6h-6L25,6.9l7-0.7L30.8,7.6" style="fill: rgb(24, 27, 28);"/>
<g id="Cover_Right_Range-Finder_Classic" style="fill: rgb(42, 48, 51);">
<path d="M21.6,8.6l2.8,0.2l0.6-2l7.5-0.7l0.1-0.8L22,5l-1,1.3L21.6,8.6"/>
<path d="M22.4,8.6l1.4,0.1l-0.1,1.1l-1.4-0.1L22.4,8.6"/>
</g>
</g>
<path id="Ear-Cap_Right_Classic" d="M19.9,57.2l-1.7-2.6l1.7-17.8l2.4-1.5L19.9,57.2z" style="fill: rgb(0, 133, 255);"/>
</g>
<g id="Helmet_Pieces_Classic">
<g id="Face_Classic" style="fill: rgb(182, 182, 182);">
<path d="M22.2,58.7c0,0,0.6-4.2,1.5-6.3c0.9-2.1,2.7-4.4,4.8-4.1c1.6,0.3,4.8,7.9,5.1,17.3 C33.4,65.6,22.2,58.7,22.2,58.7z"/>
<path d="M57.8,58.7c0,0-0.6-4.2-1.5-6.3c-0.9-2.1-2.7-4.4-4.8-4.1c-1.6,0.3-4.8,7.9-5.1,17.3 C46.5,65.6,57.8,58.7,57.8,58.7z"/>
</g>
<g id="Cheeks_Classic" style="fill: rgb(0, 133, 255);">
<path d="M22.2,58.7l-2.4-0.1l1.8-16.3c0.6,0.2,5.7,1.8,7.4,3.4c1.8,1.7,3,4.3,3.6,6.8c0.6,2.7,1,9.6,1.1,12.2 c-0.4-8.9-3.5-16-5-16.3c-2-0.4-3.8,2-4.8,4.1C22.8,54.5,22.2,58.7,22.2,58.7z"/>
<path d="M46.4,64.7c0.1-2.6,0.4-9.6,1.1-12.2c0.6-2.5,1.8-5.1,3.6-6.8c1.7-1.6,6.6-3.1,7.4-3.3l1.8,16.3l-2.4,0.2 v-0.1c0,0-0.6-4.2-1.5-6.3c-0.9-2.1-2.7-4.4-4.8-4.1C49.9,48.7,46.9,55.8,46.4,64.7z"/>
</g>
<path id="Eyes_Classic" d="M46.4,65.7H33.6c0,0-0.3-9.9-1.1-13.3c-0.6-2.5-1.8-5.1-3.6-6.8c-1.8-1.7-7.3-3.4-7.3-3.4 l0.7-6.3c0,0,5.7,0.7,8.6,0.9C33.6,37,39,37,40.1,37c1.1,0,6.5,0,9.2-0.2c2.9-0.2,8.6-0.9,8.6-0.9l0.7,6.3c0,0-5.5,1.7-7.3,3.4 c-1.8,1.7-3,4.3-3.6,6.8C46.7,55.8,46.4,65.7,46.4,65.7z" style="fill: rgb(0, 133, 255);"/>
<g id="Visors_Classic">
<path id="Basic_Visor_Classic" class="option" d="M43.4,65.7h-6.9V42.3c0,0-3.8-0.4-5.7-0.8C28.6,41,23,39.2,23,39.2l0.1-1.3 c0,0,5.2,0.9,7.8,1.2c2.6,0.3,6.1,0.6,9.1,0.6s6.5-0.4,9.1-0.6c2.6-0.3,7.8-1.2,7.8-1.2l0.1,1.3c0,0-5.6,1.8-7.9,2.3 c-1.9,0.4-5.7,0.8-5.7,0.8V65.7z" style="fill: rgb(0, 0, 0); display: inherit;"/>
</g>
<path id="Dome_Classic" d="M22.2,36.1L22.2,36.1c0.1-9.4,7.9-16.9,17.6-17.1h0.4c9.7,0.2,17.5,7.7,17.6,17v0.1 c-0.8,0.1-5.9,0.7-8.6,0.9s-8.1,0.2-9.2,0.2s-6.5,0-9.2-0.2S23,36.1,22.2,36.1z" style="fill: rgb(163, 163, 163);"/>
</g>
</g>
</svg>
<g id="Shoulders">
<g id="Left-Shoulder">
<g id="Classic_Shoulder_Left" class="option" style="display: inherit;">
<path id="Main_Shoulder_Classic_Left" d="M116.5,13.4L114,24.8l2,6.5l13.4,6.8l2.3-3.5L116.5,13.4" style="fill: rgb(163, 163, 163);"/>
<path id="Trauma-Plates_Shoulder_Classic_Left" class="toggle" style="display: none; fill: rgb(255, 255, 255);" d="M115.7,24.7l1.7,5.4l11.4,5.8l1.9-3l-12.8-18 L115.7,24.7"/>
</g>
</g>
<g id="Right-Shoulder">
<g id="Classic_Shoulder_Right" class="option" style="display: inherit;">
<path id="Main_Shoulder_Classic_Right" d="M52.5,13.4L55,24.8l-2,6.5l-13.4,6.8l-2.3-3.5L52.5,13.4" style="fill: rgb(163, 163, 163);"/>
<path id="Trauma-Plates_Shoulder_Classic_Right" class="toggle" style="display: none; fill: rgb(255, 255, 255);" d="M53.2,24.7l-1.7,5.4l-11.4,5.8l-1.9-3l12.8-18 L53.2,24.7"/>
</g>
</g>
</g>
<g id="Gauntlets">
<g id="Left-Gauntlets">
<g id="Basic_Gauntlet_Left" class="option" style="display: inherit;">
<path id="Top-2_Basic_Gauntlet_Left" d="M144.3,107.5l1.4-2.2L141.8,87l-0.6,2.2l1.8,8.3l-0.7,2.1L144.3,107.5" style="fill: rgb(163, 163, 163);"/>
<path id="Top-1_Basic_Gauntlet_Left" d="M141.8,87.1l-0.6,2.2l1.8,8.3l-0.7,2.1l2,7.9l-0.9,1.4l0.5,5.1l-1.6,0.4 l-2.1-7.7l-1.5-0.5L132,83.9l8.9-0.9L141.8,87.1" style="fill: rgb(163, 163, 163);"/>
<g id="Accent-Bottom_Basic_Gauntlet_Left" style="fill: rgb(163, 163, 163);">
<path d="M128.7,90.6l-2,0.6l1,2.9l2-0.6L128.7,90.6"/>
<path d="M130.3,95.7l-2,0.6l1,2.9l2-0.6L130.3,95.7"/>
<path d="M132.1,100.9l-2,0.6l1,2.9l2-0.6L132.1,100.9"/>
</g>
<path id="Bottom_Basic_Gauntlet_Left" d="M126.7,91.2L126,89l6.2-4.8l6.6,22.1l-6.7,1.2l-2.7-8.2l2-0.6l-1-2.9 l-1.9,0.6l-0.7-2.2l2-0.6l-1-2.9L126.7,91.2 M132.1,100.9l-2,0.6l1,2.9l2-0.7L132.1,100.9" style="fill: rgb(163, 163, 163);"/>
<g id="Missle_Attachment_Basic_Gauntlet_Left" class="option" style="display: inherit;">
<g id="Head_Missle_Attachment_Basic_Gauntlet_Left" style="fill: rgb(163, 163, 163);">
<path d="M147,101.4l-2.8-4l3.7-0.9L147,101.4"/>
<path d="M145.5,97.5c0.1,0,0.2,0.1,0.2,0.4c0,0.2,0,0.4-0.1,0.4c-0.1,0-0.2-0.1-0.2-0.4 C145.4,97.7,145.4,97.5,145.5,97.5"/>
<path d="M145.9,98.6c0.1,0,0.1,0.1,0.2,0.3v0.3c-0.1,0-0.1-0.1-0.2-0.3C145.8,98.8,145.8,98.6,145.9,98.6"/>
<path d="M146.1,99.7c0.1,0,0.1,0.1,0.2,0.3v0.3c-0.1,0-0.1-0.1-0.2-0.3V99.7"/>
<path d="M144.9,97.6c0.1,0,0.2,0.1,0.2,0.4c0,0.2,0,0.4-0.1,0.4s-0.2-0.1-0.2-0.4S144.9,97.7,144.9,97.6"/>
<path d="M147.3,97.1c0.1,0,0.2,0.1,0.2,0.4c0,0.2,0,0.4-0.1,0.4c-0.1,0-0.2-0.1-0.2-0.4 C147.2,97.3,147.2,97.1,147.3,97.1"/>
<path d="M146.7,97.2c0.1,0,0.2,0.1,0.2,0.4c0,0.2,0,0.4-0.1,0.4c-0.1,0-0.2-0.1-0.2-0.4 C146.6,97.4,146.6,97.2,146.7,97.2"/>
<path d="M146.8,98.4c0.1,0,0.1,0.1,0.2,0.3c0,0.2,0,0.3-0.1,0.3c-0.1,0-0.1-0.1-0.2-0.3 C146.7,98.6,146.8,98.4,146.8,98.4"/>
<path d="M147,99.5c0.1,0,0.1,0.1,0.2,0.3v0.3c-0.1,0-0.1-0.1-0.2-0.3C146.9,99.6,147,99.5,147,99.5"/>
<path d="M146.1,97.4c0.1,0,0.2,0.1,0.2,0.4c0,0.2,0,0.4-0.1,0.4c-0.1,0-0.2-0.1-0.2-0.4 C146,97.5,146,97.4,146.1,97.4"/>
<path d="M146.4,98.5c0.1,0,0.1,0.1,0.2,0.3c0,0.2,0,0.3-0.1,0.3s-0.1-0.1-0.2-0.3 C146.3,98.7,146.3,98.5,146.4,98.5"/>
<path d="M146.6,99.6c0.1,0,0.1,0.1,0.2,0.3v0.3c-0.1,0-0.1-0.1-0.2-0.3C146.5,99.7,146.5,99.6,146.6,99.6"/>
<path d="M145.4,99.1c0-0.2,0-0.3,0.1-0.3s0.1,0.1,0.2,0.3v0.3L145.4,99.1"/>
<path d="M147.4,98.9c-0.1,0-0.1-0.1-0.2-0.3c0-0.2,0-0.3,0.1-0.3c0.1,0,0.1,0.1,0.2,0.3L147.4,98.9"/>
</g>
<g id="Main_Missle_Attachment_Basic_Gauntlet_Left" style="fill: rgb(163, 163, 163);">
<path d="M147.3,96l-2.8,0.7l0.1,0.6l2.8-0.7L147.3,96"/>
<path d="M144.6,83.1l-2.8,0.7l0.1,0.6l2.8-0.7L144.6,83.1"/>
<path d="M143.5,81l-1.6,0.4L142,82l1.6-0.4L143.5,81"/>
<path d="M144.4,81.5l-3,0.7l0.3,1.6l3-0.7L144.4,81.5"/>
<path d="M145,83.7l-3.3,0.8l2.6,12.3l3.3-0.8L145,83.7"/>
<path d="M143.2,90.9l-0.5,0.1l0.6,2.9l0.5-0.1L143.2,90.9"/>
</g>
<g id="Accent_Missle_Attachment_Basic_Gauntlet_Left" style="fill: rgb(0, 0, 0);">
<path d="M147.1,102.2l-0.6-1l0.7-0.2L147.1,102.2"/>
<path d="M147.1,100.7l-0.5,0.1v0.3l0.7-0.2L147.1,100.7"/>
<path d="M143.5,80.1l-2,0.5l0.2,0.9l2-0.5L143.5,80.1"/>
<path d="M143.1,79.8l-1.3,0.3l-0.2,0.5l2-0.5L143.1,79.8"/>
<path d="M144,83.9l-0.6,0.1l2.6,12.3l0.6-0.1L144,83.9"/>
<path d="M143.2,84.1l-0.6,0.1l2.6,12.3l0.6-0.1L143.2,84.1"/>
<path d="M145.2,84l-0.3-0.3l2.6,12.3l0.2-0.4L145.2,84"/>
<path d="M144.7,83.8l-0.6,0.1l2.6,12.3l0.6-0.1L144.7,83.8"/>
<path d="M142.5,84.3l-0.3,0.1l2.6,12.3l0.3-0.1L142.5,84.3"/>
</g>
<path id="Base_Missle_Attachment_Basic_Gauntlet_Left" d="M142,83.4l-1-0.2l2.9,14l0.8-0.6L142,83.4 M143.2,90.9 l-0.5,0.1l0.6,2.9l0.5-0.1L143.2,90.9" style="fill: rgb(163, 163, 163);"/>
</g>
</g>
</g>
<g id="Right-Gauntlets">
<g id="Gunslinger_Gauntlet_Right" class="option" style="display: inherit;">
<g id="Accent-Top_Gunslinger_Gauntlet_Right" style="fill: rgb(163, 163, 163);">
<path d="M30,79.8l-0.6,5.6l2.8,0.8l0.7-5.3L30,79.8"/>
<path d="M31.4,100.6l-0.6,2.9l2.5,0.5l0.6-2.9L31.4,100.6"/>
</g>
<path id="Top_Gunslinger_Gauntlet_Right" d="M30,79.8l-1.3-0.5l-2.3,26.3l6.2,1.3l0.8-4.1l-0.2,1.2l-2.5-0.5l0.6-2.9 l2.5,0.5l3.8-18.5L30,79.8l2.9,1.1l-0.7,5.3l-2.8-0.8L30,79.8" style="fill: rgb(163, 163, 163);"/>
<g id="Accent-Bottom_Gunslinger_Gauntlet_Right" style="fill: rgb(163, 163, 163);">
<path d="M41.3,91.2l0.7-2.3l1.6,0.5l-0.7,2.3L41.3,91.2"/>
<path d="M40.5,93.8l0.7-2.3l1.6,0.5l-0.7,2.3L40.5,93.8"/>
<path d="M33.9,101.2l5.6,1.2l-0.9,2.8l-5.3-1.1L33.9,101.2"/>
</g>
<path id="Bottom_Gunslinger_Gauntlet_Right" d="M33.4,103.6l0.5-2.4l5.6,1.2l-0.9,2.8l-5.3-1.1l-0.6,2.9 c0,0,2,0.3,3.4,0.6c0.9,0.2,1.8-0.4,2.1-1.3c1.6-4.8,6.3-19.4,6.3-19.4l-6.8-3.8L33.4,103.6 M40.5,93.8l0.7-2.3l1.6,0.5l-0.7,2.3 L40.5,93.8 M41.3,91.2l0.7-2.3l1.6,0.5l-0.7,2.3L41.3,91.2" style="fill: rgb(163, 163, 163);"/>
<g id="Flamethrower_Attachment_Gunslinger_Gauntlet_Right" class="option" style="display: inherit;">
<g id="Tubes_Flamethrower_Attachment_Gunslinger_Gauntlet_Right" style="fill: rgb(163, 163, 163);">
<path d="M27.2,80.9L28,81l-2.1,25.2l-0.8-0.1L27.2,80.9"/>
<path d="M25.3,80.7l0.8,0.1l-1.5,18l-0.8-0.1L25.3,80.7"/>
<path d="M26.9,82.4l1.1,0.1l-0.5,6l-1.1-0.1L26.9,82.4"/>
<path d="M25,82.3l1.1,0.1l-0.5,6l-1.1-0.1L25,82.3"/>
</g>
<g id="Main_Flamethrower_Attachment_Gunslinger_Gauntlet_Right" style="fill: rgb(163, 163, 163);">
<path d="M24.9,80.7l3.4,0.3l-0.1,1.6l-3.4-0.3L24.9,80.7"/>
<path d="M24.2,88.2l3.5,0.3l-0.1,1L24,89.2L24.2,88.2"/>
<path d="M24.3,89.2l3.3,0.3V90l-3.3-0.3V89.2"/>
<path d="M27.5,87.9L28,88l-0.2,2.9l-0.5-0.1L27.5,87.9"/>
</g>
<g id="Accent_Flamethrower_Attachment_Gunslinger_Gauntlet_Right" style="fill: rgb(163, 163, 163);">
<path d="M23.8,98.7l0.9,0.1v1.2l-1.2-0.1L23.8,98.7"/>
<path d="M24,92.3l1.6,0.1l-0.2,1.9l-1.6-0.1L24,92.3"/>
<path d="M24,94.2l1.1,0.1L25,96.2l-1.1-0.1L24,94.2"/>
<path d="M25.2,102.8l1.1,0.1l-0.2,2.6l-1.1-0.1L25.2,102.8"/>
<path d="M25.9,94.4l1.1,0.1l-0.3,3.6L25.6,98L25.9,94.4"/>
<path d="M24.9,104.1l1.6,0.1v0.5l-1.6-0.1V104.1"/>
</g>
<path id="Base_Flamethrower_Attachment_Gunslinger_Gauntlet_Right" d="M28,88l0.7-7.9l-1,0.3l-1.1,13.4l0.9,0.5 l0.3-3.4l-0.5-0.1l0.2-2.9L28,88" style="fill: rgb(163, 163, 163);"/>
</g>
</g>
</g>
</g>
<g id="Shins">
<g id="Left-Shin">
<g id="Basic_Shin_Left" class="option" style="display: inherit;">
<path id="Shin_Basic-Shin_Left" d="M120.8,179.2l-5-5.5l-10,1.4l-3.7,8.7l6.8,29c4.4,1.8,10.8,0.9,14.3-2.3 L120.8,179.2" style="fill: rgb(163, 163, 163);"/>
<path id="Trauma-Plating_Basic-Shin_Left" class="toggle" style="display: none; fill: rgb(255, 255, 255);" d="M121.5,209.8l-2.3-29.9l-4-4.4l-8.2,1.1l-3.1,7.3l6.5,27.6 C114,212.7,118.6,212,121.5,209.8"/>
<g id="Ridge_Basic-Shin_Left" class="toggle" style="display: none; fill: rgb(255, 255, 255);"/>
</g>
</g>
<g id="Right-Shin">
<g id="Basic_Shin_Right" class="option" style="display: inherit;">
<path id="Shin_Basic-Shin_Right" d="M48,179.2l5-5.5l10,1.4l3.7,8.7l-6.8,29c-4.4,1.8-10.8,0.9-14.3-2.3L48,179.2" style="fill: rgb(163, 163, 163);"/>
<path id="Trauma-Plating_Basic-Shin_Right" class="toggle" style="display: none; fill: rgb(255, 255, 255);" d="M47.3,209.8l2.3-29.9l4-4.4l8.2,1.1l3.1,7.3l-6.5,27.6 C54.8,212.7,50.2,212,47.3,209.8"/>
<g id="Ridge_Basic-Shin_Right" class="toggle" style="display: none; fill: rgb(255, 255, 255);"/>
</g>
</g>
</g>
<g id="Foot">
<g id="Left-Ankle">
<g id="Basic_Ankle_Left" class="option" style="display: inherit;">
<path id="Main_Basic-Ankle_Left" d="M131.7,229.1l-7.8-13.7c-4.6-0.2-8.9,0.5-12.9,2.4c-0.4,0.2-0.7,0.5-0.8,0.9 c-0.1,0.3-0.2,0.6-0.3,0.9c-0.5,1.5,0,3.1,1.1,4.2c2.4,2.2,6.6,5.9,9.1,6.8C125.8,232.6,131.7,229.1,131.7,229.1" style="fill: rgb(163, 163, 163);"/>
<path id="Trauma-Plate_Basic-Ankle_Left" class="toggle" style="display: none; fill: rgb(255, 255, 255);" d="M124.8,217.1c-3.8-0.1-9.5,0.7-12.9,2.2l-0.3,1.1 c-0.2,0.7,0,1.5,0.5,2c2.2,2.1,6.2,5.7,8.6,6.5c3.3,1.1,8.2-0.7,10.1-1.4L124.8,217.1"/>
</g>
</g>
<g id="Left-Toe">
<g id="None_Toe_Left" class="option" style="display: inherit;">
</g>
</g>
<g id="Right-Ankle">
<g id="Basic_Ankle_Right" class="option" style="display: inherit;">
<path id="Main_Basic-Ankle_Right" d="M37.1,229.1l7.8-13.7c4.6-0.2,8.9,0.5,12.9,2.4c0.4,0.2,0.7,0.5,0.8,0.9 c0.1,0.3,0.2,0.6,0.3,0.9c0.5,1.5,0,3.1-1.1,4.2c-2.4,2.2-6.6,5.9-9.1,6.8C42.9,232.6,37.1,229.1,37.1,229.1" style="fill: rgb(163, 163, 163);"/>
<path id="Trauma-Plate_Basic-Ankle_Right" class="toggle" style="display: none; fill: rgb(255, 255, 255);" d="M43.9,217.1c3.8-0.1,9.5,0.7,12.9,2.2l0.3,1.1 c0.2,0.7,0,1.5-0.5,2c-2.2,2.1-6.2,5.7-8.6,6.5c-3.3,1.1-8.2-0.7-10.1-1.4L43.9,217.1"/>
</g>
</g>
<g id="Right-Toe">
<g id="None_Toe_Right" class="option" style="display: inherit;">
</g>
</g>
</g>
<g id="Knees">
<g id="Left-Knee">
<g id="Basic_Knee_Left" class="option" style="display: inherit;">
<g id="Missiles_Basic-Knee_Left" class="toggle" style="">
<path id="Base_Missiles_Basic-Knee_Left" d="M117.1,156.2v0.1c0.2,1.9,0.5,6.1,0.4,9.6l2.3-1.4 c0.4-0.2,0.6-0.6,0.6-1.1c0-1.3-0.1-4.2-0.1-5.7c0-0.6-0.4-1.1-1-1.2L117.1,156.2z" style="fill: rgb(163, 163, 163);"/>
<g id="Missile-2_Missiles_Basic-Knee_Left" style="fill: rgb(163, 163, 163);">
<path d="M118.7,161.8c-0.6,0.1-1,0.6-0.9,1.1c0.1,0.6,0.6,1,1.2,0.9c0.6-0.1,1-0.6,0.9-1.1 C119.8,162.1,119.2,161.7,118.7,161.8z"/>
<path d="M118.7,162.1c-0.4,0-0.7,0.4-0.6,0.8c0,0.4,0.4,0.7,0.8,0.6c0.4,0,0.7-0.4,0.6-0.8 C119.5,162.4,119.1,162.1,118.7,162.1z"/>
</g>
<g id="Missile-1_Missiles_Basic-Knee_Left" style="fill: rgb(163, 163, 163);">
<path d="M118.5,157.3c-0.6,0.1-1,0.6-0.9,1.1c0.1,0.6,0.6,1,1.2,0.9c0.6-0.1,1-0.6,0.9-1.1 C119.6,157.6,119.1,157.2,118.5,157.3z"/>
<path d="M118.6,157.6c-0.4,0-0.7,0.4-0.6,0.8c0,0.4,0.4,0.7,0.8,0.6c0.4,0,0.7-0.4,0.6-0.8 C119.3,157.9,119,157.6,118.6,157.6z"/>
</g>
</g>
<g id="Knee_Basic-Knee_Left" style="fill: rgb(163, 163, 163);">
<path d="M95.8,158.4l1.4-0.2c0,0,1.1,6.9,1.6,10c0.1,0.8-0.4,1.5-1.2,1.7L95.8,158.4z"/>
<path d="M97.2,157.8l0.8,5.1c1-0.6,3.7,0.5,4.5,3.6c1.6,5.7,2.9,7,7.9,6.5c3.8-0.4,6.6-2.2,6.9-4.9 c0.5-3.9,0-9.4-0.2-11.8c0-0.3-0.2-0.6-0.4-0.7c-0.2-0.2-0.5-0.3-0.8-0.2C111.7,155.9,97.2,157.8,97.2,157.8z"/>
<path d="M96.7,157.9l0.5-0.1l0.9,5.6l-0.5,0.1L96.7,157.9z"/>
</g>
</g>
</g>
<g id="Right-Knee">
<g id="Basic_Knee_Right" class="option" style="display: inherit;">
<g id="Missiles_Basic-Knee_Right" class="toggle" style="">
<path id="Base_Missiles_Basic-Knee_Right" d="M51.7,156.2v0.1c-0.2,1.9-0.5,6.1-0.4,9.6l-2.3-1.4 c-0.4-0.2-0.6-0.6-0.6-1.1c0-1.3,0.1-4.2,0.1-5.7c0-0.6,0.4-1.1,1-1.2L51.7,156.2z" style="fill: rgb(163, 163, 163);"/>
<g id="Missile-2_Missiles_Basic-Knee_Right" style="fill: rgb(163, 163, 163);">
<path d="M50.1,161.8c0.6,0.1,1,0.6,0.9,1.1c-0.1,0.6-0.6,1-1.2,0.9c-0.6-0.1-1-0.6-0.9-1.1 C49,162.1,49.5,161.7,50.1,161.8z"/>
<path d="M50,162.1c0.4,0,0.7,0.4,0.6,0.8c0,0.4-0.4,0.7-0.8,0.6c-0.4,0-0.7-0.4-0.6-0.8 C49.3,162.4,49.7,162.1,50,162.1z"/>
</g>
<g id="Missile-1_Missiles_Basic-Knee_Right" style="fill: rgb(163, 163, 163);">
<path d="M50.2,157.3c0.6,0.1,1,0.6,0.9,1.1c-0.1,0.6-0.6,1-1.2,0.9c-0.6-0.1-1-0.6-0.9-1.1 C49.1,157.6,49.7,157.2,50.2,157.3z"/>
<path d="M50.2,157.6c0.4,0,0.7,0.4,0.6,0.8c0,0.4-0.4,0.7-0.8,0.6c-0.4,0-0.7-0.4-0.6-0.8 C49.4,157.9,49.8,157.6,50.2,157.6z"/>
</g>
</g>
<g id="Knee_Basic-Knee_Right" style="fill: rgb(163, 163, 163);">
<path d="M73,158.4l-1.4-0.2c0,0-1.1,6.9-1.6,10c-0.1,0.8,0.4,1.5,1.2,1.7L73,158.4z"/>
<path d="M71.6,157.8l-0.8,5.1c-1-0.6-3.7,0.5-4.5,3.6c-1.6,5.7-2.9,7-7.9,6.5c-3.8-0.4-6.6-2.2-6.9-4.9 c-0.5-3.9,0-9.4,0.2-11.8c0-0.3,0.2-0.6,0.4-0.7c0.2-0.2,0.5-0.3,0.8-0.2C57.1,155.9,71.6,157.8,71.6,157.8z"/>
<path d="M72.1,157.9l-0.5-0.1l-0.9,5.6l0.5,0.1L72.1,157.9z"/>
</g>
</g>
</g>
</g>
<g id="Thighs">
<g id="Left-Thigh">
<g id="Basic_Thigh_Left" class="option" style="display: inherit;">
<path id="Thigh_Basic-Thigh_Left" d="M119.4,115.2c0,0-5-6.4-7.5-7.5c-2.4-1-5.7-0.6-7.7,1.1 c-3.2,2.5-10.4,8-11.3,14.2c-0.9,6.8,4.1,21.9,5.7,26.8c0.6,1.7,2.7,2.4,4.4,2.5c3.1,0.1,11.5-0.1,13.5-4.7 C119.3,141.3,119.4,115.2,119.4,115.2" style="fill: rgb(163, 163, 163);"/>
<path id="Trauma-Plate_Basic-Thigh_Left" class="toggle" style="display: none; fill: rgb(255, 255, 255);" d="M117.7,115.7c-0.7-0.9-2.5-3.1-4.3-4.8 c-0.8-0.8-1.6-1.5-2.2-1.7c-1.9-0.8-4.4-0.4-6,0.8c-1.8,1.5-5.1,4-7.6,7c-1.5,1.8-2.8,3.9-3,6.1c-0.9,6.6,4,21.3,5.7,26 c0.1,0.4,0.5,0.7,0.9,0.9c0.6,0.3,1.3,0.4,1.9,0.5c1.7,0.1,5.2,0,8.2-1c1.6-0.5,3.1-1.3,3.7-2.7c0.8-1.8,1.3-5.2,1.7-9.2 C117.5,129.1,117.7,118.4,117.7,115.7"/>
<g id="Ridge_Basic-Thigh_Left" class="toggle" style="display: none; fill: rgb(255, 255, 255);"/>
</g>
</g>
<g id="Right-Thigh">
<g id="Basic_Thigh_Right" class="option" style="display: inherit;">
<path id="Thigh_Basic-Thigh_Right" d="M49.3,115.2c0,0,5-6.4,7.5-7.5c2.4-1,5.7-0.6,7.7,1.1 c3.2,2.5,10.4,8,11.3,14.2c0.9,6.8-4.1,21.9-5.7,26.8c-0.6,1.7-2.7,2.4-4.4,2.5c-3.1,0.1-11.5-0.1-13.5-4.7 C49.5,141.3,49.3,115.2,49.3,115.2" style="fill: rgb(163, 163, 163);"/>
<path id="Trauma-Plate_Basic-Thigh_Right" class="toggle" style="display: none; fill: rgb(255, 255, 255);" d="M51,115.7c0.7-0.9,2.5-3.1,4.3-4.8c0.8-0.8,1.6-1.5,2.2-1.7 c1.9-0.8,4.4-0.4,6,0.8c1.8,1.5,5.1,4,7.6,7c1.5,1.8,2.8,3.9,3,6.1c0.9,6.6-4,21.3-5.7,26c-0.1,0.4-0.5,0.7-0.9,0.9 c-0.6,0.3-1.3,0.4-1.9,0.5c-1.7,0.1-5.2,0-8.2-1c-1.6-0.5-3.1-1.3-3.7-2.7c-0.8-1.8-1.3-5.2-1.7-9.2 C51.2,129.1,51.1,118.4,51,115.7"/>
<g id="Ridge_Basic-Thigh_Right" class="toggle" style="display: none; fill: rgb(255, 255, 255);"/>
</g>
</g>
</g>
<g id="Groin">
<g id="Basic_Groin" class="option" style="display: inherit;">
<path id="Groin-Plate_Basic" d="M78.1,121.8L67.7,98.9H101l-10.4,22.9l-6.2,5.5L78.1,121.8z" style="fill: rgb(163, 163, 163);"/>
<path id="Trauma-Plating_Groin" class="toggle" style="display: none; fill: rgb(255, 255, 255);" d="M79.2,119.9L70.6,101H98l-8.6,18.9l-5.1,4.5L79.2,119.9z"/>
</g>
</g>
<g id="Waist">
<g id="Accessories_Waist">
<g id="Kama" class="toggle" style="display:none"/>
<g id="Loin-Cloth" class="toggle" style="display:none"/>
<g id="Left-Holster" class="toggle" style="">
<g id="Hanging-Holster_Left" class="option" style="display: inherit;">
<g id="Weapon_Hanging-Holster-Left">
<g id="Main_Weapon_Hanging-Holster-Left" style="fill: rgb(182, 182, 182);">
<path d="M116.4,122.2l0.2-3.6h0.6l0.1-2.3h-0.6l0.1-1.2c0-0.4,0.5-0.7,1.2-0.6c1.4,0.1,3.9,0.2,5.3,0.2 c0.6,0,1.1,0.4,1.1,0.7l-0.1,1.2h-0.6l-0.1,2.3h0.6l-0.2,3.6l-1.5-0.1l-0.5,10l-4.7-0.2l0.5-10H116.4z"/>
<path d="M123.4,122h-0.8l-0.6,12l-4.7-0.2l0.6-12h-0.8l0.1-2.7l6.4,0.3L123.4,122z"/>
<path d="M122.4,115.5l-3.8-0.2l-0.2,3.7l3.8,0.2L122.4,115.5z"/>
<path d="M118.9,122.9h-0.6l-0.4,9.4h0.6L118.9,122.9z"/>
<path d="M120.5,120.8h-0.6l-0.4,9.4h0.6L120.5,120.8z"/>
<path d="M122,123h-0.6l-0.4,9.4h0.6L122,123z"/>
</g>
<g id="Accent_Weapon_Hanging-Holster-Left" style="fill: rgb(182, 182, 182);">
<path d="M119,119.4v0.4l2.7,0.1v-0.4L119,119.4z"/>
<path d="M118.9,119.8v0.4l2.7,0.1v-0.4L118.9,119.8z"/>
<path d="M119,119.1v0.4l2.7,0.1v-0.4L119,119.1z"/>
<path d="M119.2,114.4v0.4l2.7,0.1v-0.4L119.2,114.4z"/>
<path d="M119.2,115.4h-0.6l-0.2,3.7h0.6L119.2,115.4z"/>
<path d="M122.4,115.5h-0.6l-0.2,3.7h0.6L122.4,115.5z"/>
<path d="M121.4,123h-0.9l-0.4,9.4h0.9L121.4,123z"/>
<path d="M119.8,122.9h-0.9l-0.4,9.4h0.9L119.8,122.9z"/>
</g>
</g>
<path id="Holster_Hanging-Holster-Left" d="M116.4,136.1l-0.8-15.2l7,11.4l-1.6,20.6c-1.6,1.7-3.2,1.7-4.8-0.2 L116.4,136.1z" style="fill: rgb(81, 50, 35);"/>
<g id="Straps_Hanging-Holster-Left" style="fill: rgb(81, 50, 35);">
<path d="M89.6,96.5c7.7,11,15.4,20.3,26,24.5l0.1,2.6c-13.3-5.6-20.4-15.1-28.2-27.1H89.6z"/>
<path d="M116.3,139.2c-7.2,5.5-14.9,8.5-24.2,9l0.7,2.1c8-0.7,15.5-3.7,23.5-8.9V139.2z"/>
<path d="M116.3,141.3v-2.2c1.9,0.8,4,0.9,5.7,0.3l-0.2,2.2C120.1,142.1,118,142.1,116.3,141.3z"/>
</g>
<g id="Buckle_Hanging-Holster-Left" style="fill: rgb(182, 182, 182);">
<path d="M99.6,148l-1,0.1v0.3l1-0.2V148"/>
<path d="M96.9,107.6l-0.7-0.9l-0.3,0.2l0.7,0.9L96.9,107.6"/>
<path d="M96.6,107.8l-1.1,0.9l-2.7-3.3l2.6-2.1l2.7,3.3l-1.2,1l-0.6-0.8l0.6-0.5l-1.5-1.8l-1.4,1.2l1.5,1.8 l0.6-0.5L96.6,107.8"/>
<path d="M99.6,148l-0.8,0.1l-0.1-0.8l-1.9,0.4l0.3,1.8l1.9-0.4l-0.1-0.7l0.8-0.1l0.2,1.4l-3.5,0.7l-0.5-3.3 l3.5-0.7L99.6,148"/>
</g>
</g>
</g>
<g id="Right-Holster" class="toggle" style="">
<g id="Hanging-Holster_Right" class="option" style="display: inherit;">
<g id="Weapon_Hanging-Holster-Right">
<g id="Main_Weapon_Hanging-Holster-Right" style="fill: rgb(182, 182, 182);">
<path d="M52.4,122.2l-0.2-3.6h-0.6l-0.1-2.3h0.6l-0.1-1.2c0-0.4-0.5-0.7-1.2-0.6c-1.4,0.1-3.9,0.2-5.3,0.2 c-0.6,0-1.1,0.4-1.1,0.7l0.1,1.2h0.6l0.1,2.3h-0.6l0.2,3.6l1.5-0.1l0.5,10l4.7-0.2l-0.5-10H52.4z"/>
<path d="M45.4,122h0.8l0.6,12l4.7-0.2l-0.6-12h0.8l-0.1-2.7l-6.4,0.3L45.4,122z"/>
<path d="M46.4,115.5l3.8-0.2l0.2,3.7l-3.8,0.2L46.4,115.5z"/>
<path d="M49.9,122.9h0.6l0.5,9.3h-0.6L49.9,122.9z"/>
<path d="M48.2,120.8h0.6l0.4,9.4h-0.6L48.2,120.8z"/>
<path d="M46.7,123h0.6l0.4,9.4h-0.6L46.7,123z"/>
</g>
<g id="Accent_Weapon_Hanging-Holster-Right" style="fill: rgb(182, 182, 182);">
<path d="M49.8,119.4v0.4l-2.7,0.1v-0.4L49.8,119.4z"/>
<path d="M49.8,119.8v0.4l-2.7,0.1v-0.4L49.8,119.8z"/>
<path d="M49.8,119.1v0.4l-2.7,0.1v-0.4L49.8,119.1z"/>
<path d="M49.6,114.4v0.4l-2.7,0.1v-0.4L49.6,114.4z"/>
<path d="M49.6,115.4h0.6l0.2,3.7h-0.6L49.6,115.4z"/>
<path d="M46.4,115.5H47l0.2,3.7h-0.6L46.4,115.5z"/>
<path d="M47.4,123h0.9l0.4,9.4h-0.9L47.4,123z"/>
<path d="M49,122.9h0.9l0.4,9.4h-0.9L49,122.9z"/>
</g>
</g>
<path id="Holster_Hanging-Holster-Right" d="M52.4,136.1l0.8-15.2l-7,11.4l1.6,20.6c1.6,1.7,3.2,1.7,4.8-0.2 L52.4,136.1z" style="fill: rgb(81, 50, 35);"/>
<g id="Straps_Hanging-Holster-Right" style="fill: rgb(81, 50, 35);">
<path d="M79.2,96.5c-7.7,11-15.4,20.3-26,24.5l-0.1,2.6c13.3-5.6,20.4-15.1,28.2-27.1H79.2z"/>
<path d="M52.4,139.2c7.2,5.5,14.9,8.5,24.2,9l-0.7,2.1c-8-0.7-15.5-3.7-23.5-8.9V139.2z"/>
<path d="M52.4,141.3v-2.2c-1.9,0.8-4,0.9-5.7,0.3l0.2,2.2C48.7,142.1,50.8,142.1,52.4,141.3z"/>
</g>
<g id="Buckle_Hanging-Holster-Right" style="fill: rgb(182, 182, 182);">
<path d="M69.2,148l1,0.1v0.3l-1-0.2V148"/>
<path d="M71.9,107.6l0.7-0.9l0.3,0.2l-0.7,0.9L71.9,107.6"/>
<path d="M72.2,107.8l1.1,0.9l2.7-3.3l-2.6-2.1l-2.7,3.3l1.2,1l0.6-0.8l-0.6-0.5l1.5-1.8l1.4,1.2l-1.5,1.8l-0.6-0.5 L72.2,107.8"/>
<path d="M69.2,148l0.8,0.1l0.1-0.8l1.9,0.4l-0.3,1.8l-1.9-0.4l0.1-0.7l-0.8-0.1l-0.2,1.4l3.5,0.7l0.5-3.3l-3.5-0.7 L69.2,148"/>
</g>
</g>
</g>
</g>
<g id="Under-Belt">
<g id="Girth-Belt" class="option" style="fill: rgb(45, 28, 20); display: inherit;">
<path d="M84.4,84.5c-9.3,0-27.8-2.2-27.8-2.2l0.6-1.9c0,0,18.1,1.5,27.2,2.2c9.1-0.8,27.2-2.2,27.2-2.2l0.6,1.9 C112.2,82.2,93.6,84.5,84.4,84.5z"/>
<path d="M84.4,86.4c-9.5,0-28.4-2.2-28.4-2.2l0.6-1.9c0,0,23.2,1.9,27.8,2.2c4.6-0.4,27.8-2.2,27.8-2.2l0.6,1.9 C112.7,84.1,93.8,86.4,84.4,86.4z"/>
<path d="M84.4,88.3c-9.6,0-28.8-2.2-28.8-2.2l0.4-1.9c0,0,23.7,1.9,28.4,2.2c4.7-0.4,28.4-2.2,28.4-2.2l0.4,1.9 C113.2,86.1,94,88.3,84.4,88.3z"/>
<path d="M84.4,90.2c-9.7,0-29.2-2.2-29.2-2.2l0.4-1.9c0,0,24,1.9,28.8,2.2c4.8-0.4,28.8-2.2,28.8-2.2l0.4,1.9 C113.5,88,94.1,90.2,84.4,90.2z"/>
<path d="M84.4,92.1c-9.8,0-29.5-2.2-29.5-2.2l0.3-1.9c0,0,24.3,1.9,29.2,2.2c4.9-0.4,29.2-2.2,29.2-2.2l0.3,1.9 C113.9,89.9,94.2,92.1,84.4,92.1z"/>
<path d="M84.4,94c-9.9,0-29.8-2.2-29.8-2.2l0.3-1.9c0,0,24.6,1.9,29.5,2.2c4.9-0.4,29.5-2.2,29.5-2.2l0.3,1.9 C114.2,91.8,94.3,94,84.4,94z"/>
<path d="M84.4,95.9c-10,0-30.1-2.2-30.1-2.2l0.3-1.9c0,0,24.8,1.9,29.8,2.2c5-0.4,29.8-2.2,29.8-2.2l0.3,1.9 C114.5,93.7,94.4,95.9,84.4,95.9z"/>
<path d="M84.4,97.8c-10.1,0-30.4-2.2-30.4-2.2l0.3-1.9c0,0,25.1,1.9,30.1,2.2c5-0.4,30.1-2.2,30.1-2.2l0.3,1.9 C114.8,95.6,94.5,97.8,84.4,97.8z"/>
<path d="M84.4,99.7c-10.3,0-30.8-2.2-30.8-2.2l0.3-1.9c0,0,25.4,1.9,30.4,2.2c5.1-0.4,30.4-2.2,30.4-2.2l0.3,1.9 C115.1,97.5,94.6,99.7,84.4,99.7z"/>
<path d="M84.4,101.6c-10.4,0-31.2-2.2-31.2-2.2l0.4-1.9c0,0,25.6,1.9,30.8,2.2c5.1-0.4,30.8-2.2,30.8-2.2l0.4,1.9 C115.5,99.4,94.8,101.6,84.4,101.6z"/>
</g>
</g>
<g id="Belt">
<g id="Pouch-Belt-Full" class="option" style="display: inherit;">
<path id="Main_Pouch-Belt-Full" d="M114.5,92.5c-6.8,0.6-22.3,2.8-30.1,2.8c-7.9,0-23.4-2.2-30.1-2.8l1-7.9 c5.5,0.5,21.4,2.7,29.1,2.7c7.4,0,23-2.2,28.9-2.8L114.5,92.5z" style="fill: rgb(81, 50, 35);"/>
<g id="Pouches_Pouch-Belt-Full" style="fill: rgb(81, 50, 35);">
<g>
<g>
<g>
<path d="M70.3,84.6c-0.3,0-0.6,0-0.8,0.1c-0.7,0.3-2.1,0.8-2.1,0.8l8,0.5l2.2-0.9C77.6,85,72,84.7,70.3,84.6z"/>
<path d="M77.9,85.3c0-0.1,0-0.2-0.1-0.2c-0.1-0.1-0.2-0.1-0.2,0c-0.7,0.3-2.1,0.9-2.1,0.9l-1,12.4 c0.7-0.4,1.4-0.7,2.1-0.8c0.4-0.1,0.7-0.4,0.7-0.8C77.4,92.9,77.5,89.1,77.9,85.3z"/>
<path d="M75.4,86l-8-0.5c0,1.9-0.2,3.8-0.3,5.7c-0.1,2.1-0.2,4.2-0.3,6.3c0,0.2,0,0.3,0.1,0.4s0.2,0.2,0.4,0.2 c2.3,0,4.6,0.1,6.9,0.4c0.1,0,0.3,0,0.4-0.1s0.2-0.2,0.2-0.4c0.1-1.5,0.4-5.3,0.4-5.3L75.4,86z"/>
<path d="M75.4,86l-8-0.5c0,0-0.2,1.6-0.4,3.1c-0.1,0.8,0.1,1.5,0.6,2.1c0.5,0.6,1.2,0.9,1.9,1 c0.9,0.1,2,0.1,3,0.2c0.8,0,1.5-0.2,2.1-0.8c0.5-0.5,0.9-1.3,0.9-2C75.4,87.6,75.4,86,75.4,86z"/>
<path d="M71.2,90.3c0.3,0,0.5,0.3,0.5,0.5c0,0.3-0.3,0.5-0.5,0.5c-0.3,0-0.5-0.3-0.5-0.5 C70.6,90.5,70.9,90.3,71.2,90.3z"/>
</g>
</g>
<g>
<g>
<path d="M59.3,83c-0.3,0-0.6,0-0.9,0.2c-0.7,0.3-1.8,0.8-1.8,0.8l7.3,0.4l2-0.9C65.8,83.5,60.8,83.1,59.3,83z"/>
<path d="M66.1,83.8c0-0.1,0-0.2-0.1-0.2c-0.1-0.1-0.2-0.1-0.2,0c-0.7,0.3-1.9,0.9-1.9,0.9l-1,12.4 c0.6-0.4,1.3-0.7,1.9-0.8c0.4-0.1,0.7-0.4,0.7-0.8C65.6,91.3,65.7,87.5,66.1,83.8z"/>
<path d="M63.8,84.4L56.5,84c-0.1,1.9-0.2,3.8-0.3,5.7c-0.1,2.1-0.2,4.2-0.3,6.3c0,0.2,0,0.3,0.1,0.4 s0.2,0.2,0.4,0.2c2.1,0,4.1,0.1,6.2,0.4c0.1,0,0.3,0,0.4-0.1s0.2-0.2,0.2-0.4c0.1-1.5,0.4-5.3,0.4-5.3L63.8,84.4z"/>
<path d="M63.8,84.4L56.5,84c0,0-0.2,1.6-0.4,3.2c-0.1,0.8,0.1,1.5,0.6,2.1c0.5,0.6,1.2,0.9,1.9,1 c0.7,0,1.5,0.1,2.2,0.1c0.8,0,1.5-0.2,2-0.7s0.9-1.2,0.9-2C63.8,86,63.8,84.4,63.8,84.4z"/>
<path d="M59.9,88.8c0.3,0,0.5,0.3,0.4,0.5c0,0.3-0.2,0.5-0.5,0.5s-0.5-0.3-0.4-0.5C59.4,89,59.6,88.8,59.9,88.8z "/>
</g>
</g>
<g>
<path d="M51.9,83.9l0.5-0.9l2.8,0.1l0.3,1.1L51.9,83.9z"/>
<path d="M55.6,84.3c0-0.1,0-0.1-0.1-0.2c0-0.1-0.1-0.1-0.2-0.1c-0.8,0-3.5-0.1-3.5-0.1l-0.5,11.2 c0.1,0.3,1.5,0.5,2.7,0.5c0.5,0,0.9-0.4,0.9-0.9C55,91.2,55.2,87.7,55.6,84.3z"/>
</g>
</g>
<g>
<g>
<g>
<path d="M98.4,84.6c0.3,0,0.6,0,0.8,0.1c0.7,0.3,2.1,0.8,2.1,0.8l-8,0.5l-2.2-0.9C91.2,85,96.8,84.7,98.4,84.6z"/>
<path d="M90.9,85.3c0-0.1,0-0.2,0.1-0.2c0.1-0.1,0.2-0.1,0.2,0c0.7,0.3,2.1,0.9,2.1,0.9l1,12.4 c-0.7-0.4-1.4-0.7-2.1-0.8c-0.4-0.1-0.7-0.4-0.7-0.8C91.4,92.9,91.3,89.1,90.9,85.3z"/>
<path d="M93.3,86l8-0.5c0.1,1.9,0.2,3.8,0.3,5.7c0.1,2.1,0.2,4.2,0.3,6.3c0,0.2,0,0.3-0.1,0.4 c-0.1,0.1-0.2,0.2-0.4,0.2c-2.3,0-4.6,0.1-6.9,0.4c-0.1,0-0.3,0-0.4-0.1s-0.2-0.2-0.2-0.4c-0.1-1.5-0.4-5.3-0.4-5.3L93.3,86z "/>
<path d="M93.3,86l8-0.5c0,0,0.2,1.6,0.4,3.1c0.1,0.8-0.1,1.5-0.6,2.1c-0.5,0.6-1.2,0.9-1.9,1 c-0.9,0.1-2,0.1-3,0.2c-0.8,0-1.5-0.2-2.1-0.8c-0.6-0.5-0.9-1.3-0.9-2C93.3,87.6,93.3,86,93.3,86z"/>
<path d="M97.6,90.3c-0.3,0-0.5,0.3-0.5,0.5c0,0.3,0.3,0.5,0.5,0.5c0.3,0,0.5-0.3,0.5-0.5 C98.1,90.5,97.9,90.3,97.6,90.3z"/>
</g>
</g>
<g>
<g>
<path d="M109.5,83c0.3,0,0.6,0,0.9,0.2c0.7,0.3,1.8,0.8,1.8,0.8l-7.3,0.4l-2-0.9C103,83.5,107.9,83.1,109.5,83z"/>
<path d="M102.7,83.8c0-0.1,0-0.2,0.1-0.2c0.1,0,0.2-0.1,0.2,0c0.7,0.3,1.9,0.9,1.9,0.9l1,12.4 c-0.6-0.4-1.3-0.7-1.9-0.8c-0.4-0.1-0.7-0.4-0.7-0.8C103.2,91.3,103.1,87.5,102.7,83.8z"/>
<path d="M104.9,84.4l7.3-0.4c0.1,1.9,0.2,3.8,0.3,5.7c0.1,2.1,0.2,4.2,0.3,6.3c0,0.2,0,0.3-0.1,0.4 c-0.1,0.1-0.2,0.2-0.4,0.2c-2.1,0-4.1,0.1-6.2,0.4c-0.1,0-0.3,0-0.4-0.1c-0.1-0.1-0.2-0.2-0.2-0.4c-0.1-1.5-0.4-5.3-0.4-5.3 L104.9,84.4z"/>
<path d="M104.9,84.4l7.3-0.4c0,0,0.2,1.6,0.4,3.2c0.1,0.8-0.1,1.5-0.6,2.1c-0.5,0.6-1.2,0.9-1.9,1 c-0.7,0-1.5,0.1-2.2,0.1c-0.8,0-1.5-0.2-2-0.7s-0.9-1.2-0.9-2C104.9,86,104.9,84.4,104.9,84.4z"/>
<path d="M108.9,88.8c-0.3,0-0.5,0.3-0.4,0.5c0,0.3,0.2,0.5,0.5,0.5s0.5-0.3,0.4-0.5 C109.3,89.1,109.1,88.8,108.9,88.8z"/>
</g>
</g>
<g>
<path d="M116.9,83.9l-0.5-0.9l-2.8,0.1l-0.3,1.1L116.9,83.9z"/>
<path d="M113.2,84.3c0-0.1,0-0.1,0.1-0.2c0-0.1,0.1-0.1,0.2-0.1c0.8,0,3.5-0.1,3.5-0.1l0.5,11.2 c-0.1,0.3-1.5,0.5-2.7,0.5c-0.5,0-0.9-0.4-0.9-0.9C113.7,91.2,113.6,87.7,113.2,84.3z"/>
</g>
</g>
<path d="M88,85.2l1.1,1.1L80,86.1l0.7-1L88,85.2z"/>
<path d="M80,86.1l9.1,0.2c-0.1,2-0.1,3.9-0.1,5.9c-0.1,2.2-0.2,4.4-0.1,6.6c0,0.2-0.1,0.3-0.2,0.4 c-0.1,0.1-0.3,0.2-0.4,0.1c-2.6-0.2-5.3-0.2-7.9-0.1c-0.1,0-0.3,0-0.4-0.1s-0.2-0.2-0.2-0.4v-5.6L80,86.1z"/>
<path d="M80,86.1l9.1,0.2c0,0,0.1,1.7,0.2,3.4c0,0.8-0.2,1.5-0.8,2c-0.5,0.5-1.3,0.8-2,0.8c-1.3,0-2.8-0.1-4-0.1 c-0.8,0-1.5-0.3-2-0.9s-0.8-1.3-0.7-2.1C79.8,87.9,80,86.1,80,86.1z"/>
<path d="M84.4,91c-0.3,0-0.6,0.2-0.6,0.5s0.3,0.5,0.6,0.6c0.3,0,0.6-0.2,0.6-0.5C85,91.3,84.7,91,84.4,91z"/>
</g>
</g>
</g>
</g>
<g id="Extras_Front">
<g id="Front">
<g id="None_Front" class="option" style="display: inherit;">
</g>
</g>
</g>
</svg></svg>