<?xml version='1.0' encoding='UTF-8'?><svg version='1.1' xmlns='http://www.w3.org/2000/svg'><metadata><rdf:rdf xmlns:rdf="http://www.w3.org/1999/02/22-rdf-syntax-ns#" xmlns:rdfs="http://www.w3.org/2000/01/rdf-schema#" xmlns:dc="http://purl.org/dc/elements/1.1/"> <rdf:description> <dc:creator>MandoCreator</dc:creator> <dc:publisher>https://www.mandocreator.com</dc:publisher> <dc:description>Your Beskar'gam - created by MandoCreator</dc:description> <dc:format>image/svg+xml</dc:format> <dc:type>Image</dc:type> <dc:title>MandoCreator - Ner Berskar'gam</dc:title> <dc:date>2021-10-08T16:38:29.851Z</dc:date> </rdf:description> </rdf:rdf></metadata><svg version="1.1" id="Male" xmlns="http://www.w3.org/2000/svg" xmlns:xlink="http://www.w3.org/1999/xlink" x="0px" y="0px" viewBox="0 -55 169 300" style="fill: white; fill-rule: evenodd; stroke: black; stroke-width: 0.2px; pointer-events: none; position: relative; height: 100%;">
<g id="Extras_Back">
<g id="Back">
<path id="Torn-Full-Cape_Back" class="option" d="M67.9,16.3c-11.7,4.4-24.7,25.6-26.3,41.8c-1,10.2-6,20.5-5.5,30.7 c0.5,10.3-4.7,21-5.1,31.2c-0.3,9.3-3.1,13.5-4.7,22.7c-2.4,13.7-5,22.7-7.1,36.5c-1.7,10.9-6.8,19.9-9.2,23.3 c-0.1,0.1,2.5-1.2,5.6-1.2c0.9,0,5.5-6.7,5.5-6.7s5.7,4.7,6.9,7.4c1.5-1,2.7-15.2,4.5-15.7c0.9-0.3,2.6,17.8,2.6,17.8 s2.7-5.4,3.8-5.4c2.3,0,6.4,2,8.7,2.3c2.4,0.3,5-3.8,7.7-3.1c4.1,1,8.2,0.9,12.3,1.5c2.9,0.4,5.8,6,8.7,6c3.6,0,3.1-8.4,6.8-9.2 c3.1-0.7,7.4,6.8,7.4,6.8s1-24.9,4.1-26c4.1-1.3,19.4,18.8,23.6,18.4c1.3-0.1,2.9-12.7,4.1-12.7c2.7,0.1,5,13,7.7,13.5 c3.3,0.6,5-5.6,8.2-4.8c0.9,0.2,3.5,7.6,4.5,7.8c2,0.5,4.8,1.7,7,1.5c0.1,0-0.7-4.9-0.8-5.4c-0.5-2.3-1.2-4.6-2.2-6.8 c-1.1-2.6-2.5-5.2-4-7.6c-7.1-11.2-4.6-23.4-5.9-36.6c-1.2-12.8,0.1-25.6-2.1-38.4c-1.9-11.3-8.6-21.8-10.3-33.2 c-2-13.4-6.5-27.7-10.6-40.7C108.8,16.1,79.6,11.9,67.9,16.3z M71.2,186c-0.9,2.4-1.3,4.9-1,7.5c0.1,1.2,0.5,2.4,1,3.4 c0.1,0.1,0.1,0.4,0.2,0.3C75.8,193.3,71.2,186,71.2,186z M36.9,161.8c-0.4,7.7-1.1,15.5-1.1,23.2c0,1.4,0,2.9,0.2,4.3 c0,0.2,0.2,2.3,0.4,2.3c2.6-0.5,1.4-7.7,2-9.9C40.4,174.1,36.9,161.8,36.9,161.8z M128.6,188.6c-0.2,2.8,0.6,2.5,1.3,1.1 c0.7-1.4,1.3-3.9,0.6-5.5L128.6,188.6z M117.2,164.2c-0.6,4.6,0.4,8.6,0.7,13.2c0.1,1.5,0.1,3,0.1,4.5v1.5c0,0.3-0.2,1,0,0.8 c3.5-3.6,3.1-10.7,2-15.2L117.2,164.2z M75.4,177.9c0,1.2,0,2.4,0.1,3.6c0.3,2.4,1.7-1.4,1.7-2.3c0-1.3-0.8-2.8-1.2-4.1 L75.4,177.9z" style="fill: rgb(23, 23, 23); display: inherit;"/></g>
</g>
<g id="Suit">
<g id="Neck-Seal">
<g id="Standard-Neck-Seal" class="option" style="fill: rgb(20, 20, 20); display: inherit;">
<path d="M98,7.5c0-0.9-0.9-1.6-2.1-1.6c0,0-7.8,0.9-11.6,0.9c-3.9,0-11.6-0.9-11.6-0.9c-1.1,0-2.1,0.7-2.1,1.6 s0.9,1.6,2.1,1.6c0,0,7.8,0.9,11.6,0.9C88.2,10,96,9.2,96,9.2C97.1,9.2,98,8.4,98,7.5z"/>
<path d="M98.7,9.4c0-0.9-1-1.7-2.2-1.7c0,0-8.1,0.9-12.2,0.9c-4.1,0-12.2-0.9-12.2-0.9c-1.2,0-2.2,0.8-2.2,1.7 c0,0.9,1,1.7,2.2,1.7c0,0,8.1,0.9,12.2,0.9c4.1,0,12.2-0.9,12.2-0.9C97.8,11.1,98.7,10.4,98.7,9.4z"/>
<path d="M99.5,11.8c0-1-1-1.8-2.3-1.8c0,0-8.6,0.9-12.9,0.9C80,10.9,71.4,10,71.4,10c-1.3,0-2.3,0.8-2.3,1.8 s1,1.8,2.3,1.8c0,0,8.6,0.9,12.9,0.9c4.3,0,12.9-0.9,12.9-0.9C98.5,13.6,99.5,12.8,99.5,11.8z"/>
<path d="M100.3,13.9c0-1-1.1-1.9-2.4-1.9c0,0-9,1-13.5,1s-13.5-1-13.5-1c-1.3,0-2.4,0.8-2.4,1.9s1.1,1.9,2.4,1.9 c0,0,9,1,13.5,1s13.5-1,13.5-1C99.2,15.8,100.3,15,100.3,13.9z"/>
<path d="M101,16.1c0-0.8-1.1-1.4-2.5-1.4c0,0-9.4,0.7-14.2,0.7c-4.8,0-14.2-0.7-14.2-0.7c-1.4,0-2.5,0.6-2.5,1.4 c0,0.8,1.1,1.4,2.5,1.4c0,0,9.4,0.8,14.2,0.8c4.8,0,14.2-0.8,14.2-0.8C99.9,17.5,101,16.9,101,16.1z"/>
<path d="M101,18.4c0-0.8-1.1-1.4-2.5-1.4c0,0-9.4,0.7-14.2,0.7c-4.8,0-14.2-0.7-14.2-0.7c-1.4,0-2.5,0.6-2.5,1.4 c0,0.8,1.1,1.4,2.5,1.4c0,0,9.4,1.4,14.2,1.4c4.8,0,14.2-1.4,14.2-1.4C99.9,19.9,101,19.2,101,18.4z"/>
</g>
</g>
<g id="Flight-Suit" style="fill: rgb(11, 11, 11);">
<path d="M72.8,158.4l-1.5,8.7l-11,53.1c0,0-4.9,3-7.4,3.5s-7.7-0.4-7.7-0.4l3.8-43l2.9-18.4l0.7-7.8 c0,0-2.5-22.8-1.7-34.1c0.8-11.4,6.6-34,6.6-34l26.8,0.6l26.8-0.6c0,0,5.8,22.6,6.6,34c0.8,11.4-1.7,34.1-1.7,34.1l0.7,7.8 l2.9,18.4l3.8,43c0,0-5.3,1.2-7.8,0.7s-7.3-3.7-7.3-3.7l-11-53.1l-1.5-8.7l-11.6-30.3L72.8,158.4z"/>
<g>
<path d="M128.5,43.3l11.9,41.6l1,21.5l-9.5,1.8l-6-20.2l-13.6-33.9l0.7-15.5l2.3-3.7L128.5,43.3z"/>
<path d="M40.3,43.3l13.1-8.4l2.3,3.7l0.5,16L42.8,88l-6,20.2l-9.5-1.8l1-21.5L40.3,43.3z"/>
</g>
</g>
<g id="Sleeves" class="toggle" style="fill: rgb(16, 16, 16);">
<g>
<path d="M111.4,56.1l2.7,5.9c0,0,4.2-3.2,7-4.8c2.8-1.6,4.3-2.6,6.9-3.6c2.5-1,5-1.5,5-1.5l-6-12.2l-5.8-9.7 l-11.5,5.1L111.4,56.1z"/>
<path d="M112.8,59.2c-0.2-0.2,5-4.5,8.6-6.3c3.5-1.8,10.2-3.7,10.2-3.7"/>
</g>
<g>
<path d="M57.3,56.1L54.6,62c0,0-4.2-3.2-7-4.8c-2.8-1.6-4.4-2.6-6.9-3.6s-5-1.5-5-1.5l6-12.2l5.8-9.7L59,35.4 L57.3,56.1z"/>
<path d="M55.9,59.2c0.2-0.2-5-4.5-8.6-6.3c-3.5-1.8-10.2-3.7-10.2-3.7"/>
</g>
</g>
</g>
<g id="Boots">
<g id="Tall_Boots" class="option" style="display: inherit;">
<g id="Bottom_Tall-Boot" style="fill: rgb(19, 19, 19);">
<path d="M106.9,230.3c0,0.1,0.1,0.3,0.1,0.4c1,1.8,3.6,2.4,5.3,2.8c1.3,0.3,2.5,0.7,3.7,1.2c1.6,0.7,2.5,1.9,3.8,3.1 c0.6,0.5,1.3,0.9,1.9,1.3c1.6,1,3.2,1.1,5.1,1.1c2.5,0.1,4.7-0.3,7.2-0.8c2.2-0.5,3.8-0.9,5.6-1.4c0.6-0.2,1.2-0.3,1.6-0.7 l0.3,0.6l0.2,1.6c0,0-2,1.1-4.2,1.6s-6.5,1.2-6.5,1.2l-0.3-0.7l-1,0.2v0.7l-2.4,0.1l-0.5-0.7H126l0.1,0.6c0,0-1.5,0-2.3-0.5 c-0.2-0.2-0.5-0.6-0.5-0.6l-0.6-0.3l0.1,0.6l-2-0.7l-0.1-0.8l-0.6-0.3v0.6l-1.4-1.1l-0.2-0.7l-3.1-1.6l-1.1,0.4l-2.5-0.6 l-0.1-0.5l-0.6-0.3l-0.4,0.4l-1.7-0.7v-0.5l-0.6-0.2l-0.1,0.4l-1.6-1.1L106.9,230.3z"/>
<path d="M61.9,230.3c0,0.1-0.1,0.3-0.1,0.4c-1,1.8-3.6,2.4-5.3,2.8c-1.3,0.3-2.5,0.7-3.7,1.2 c-1.6,0.7-2.5,1.9-3.8,3.1c-0.6,0.5-1.3,0.9-1.9,1.3c-1.6,1-3.2,1.1-5.1,1.1c-2.5,0.1-4.7-0.3-7.2-0.8c-2.2-0.5-3.8-0.9-5.6-1.4 c-0.6-0.2-1.2-0.3-1.6-0.7l-0.3,0.6l-0.2,1.6c0,0,2,1.1,4.2,1.6c2.1,0.5,6.5,1.2,6.5,1.2l0.3-0.7l1,0.2v0.7l2.4,0.1l0.5-0.7h0.8 l-0.1,0.6c0,0,1.5,0,2.3-0.5c0.2-0.2,0.5-0.6,0.5-0.6l0.6-0.3l-0.1,0.6l2-0.7l0.1-0.8l0.6-0.3v0.6l1.4-1.1l0.2-0.7l3.1-1.6 l1.1,0.4l2.5-0.6l0.1-0.5l0.6-0.3l0.4,0.4l1.7-0.7v-0.5l0.6-0.2l0.1,0.4l1.6-1.1L61.9,230.3z"/>
</g>
<g id="Main_Tall-Boot" style="fill: rgb(39, 39, 39);">
<path d="M106.9,216.9c-1.4-4.2-2.5-11-3.4-14.1c-0.6-2.3-3.6-14.9-3.1-16.4c0.5-1.6,19.5-4.9,20.2-3.4 c0.9,2.2,2,24,2.2,27.2c0.1,2.3,0.5,4.7,0.5,7c0.2,1.3,0.5,2.7,1,3.8c1,2.2,1,3.1,2.6,4.7c1.2,1.1,4.1,3.1,5.5,4 c0.6,0.4,1.2,0.6,1.8,0.9h0.1c2.5,0.9,5.3,1.3,6.6,4.1c0.3,0.6,0.6,1.3,0.5,2c-0.1,0.9-1,1-1.8,1.2c-1.9,0.5-3.5,0.9-5.6,1.4 c-2.5,0.6-4.7,0.9-7.2,0.8c-1.9-0.1-3.5-0.1-5.1-1.1c-0.7-0.4-1.3-0.8-1.9-1.3c-1.3-1.2-2.1-2.4-3.8-3.1 c-1.2-0.5-2.4-0.9-3.7-1.2c-1.8-0.4-4.4-1-5.3-2.8c-0.4-1.3,0-2,0.1-3.1l0.1-0.5c0.1-0.7,0.2-1.5,0.3-2.3 c0.1-1.5-0.3-3.1-0.4-4.6c-0.1-0.9-0.1-1.7-0.1-2.6C106.9,217.4,106.8,217.1,106.9,216.9z"/>
<path d="M61.9,216.9c1.4-4.2,2.5-11,3.4-14.1c0.6-2.3,3.6-14.9,3.1-16.4c-0.5-1.6-19.5-4.9-20.2-3.4 c-0.9,2.2-2,24-2.2,27.2c-0.1,2.3-0.5,4.7-0.5,7c-0.2,1.3-0.5,2.7-1,3.8c-1,2.2-1,3.1-2.6,4.7c-1.2,1.1-4.1,3.1-5.5,4 c-0.6,0.4-1.2,0.6-1.8,0.9h-0.1c-2.5,0.9-5.3,1.3-6.6,4.1c-0.3,0.6-0.6,1.3-0.5,2c0.1,0.9,1,1,1.8,1.2c1.9,0.5,3.5,0.9,5.6,1.4 c2.5,0.6,4.7,0.9,7.2,0.8c1.9-0.1,3.5-0.1,5.1-1.1c0.7-0.4,1.3-0.8,1.9-1.3c1.3-1.2,2.1-2.4,3.8-3.1c1.2-0.5,2.4-0.9,3.7-1.2 c1.8-0.4,4.4-1,5.3-2.8c0.4-1.3,0-2-0.1-3.1l-0.1-0.5c-0.1-0.7-0.2-1.5-0.3-2.3c-0.1-1.5,0.3-3.1,0.4-4.6 c0.1-0.9,0.1-1.7,0.1-2.6C61.9,217.4,61.9,217.1,61.9,216.9z"/>
</g>
</g>
</g>
<g id="Gloves">
<g id="Left-Glove">
<g id="Basic_Left_Glove" class="option" style="fill: rgb(10, 10, 10); display: inherit;">
<path d="M137.6,124.1c-0.5,0-1,0-1.6,0.1c-0.4,0.1-0.7,0.2-1,0.3c-1,0.6-0.7,1.8,0.2,2.3c1,0.6,2.6,0,3.1-1.1 C138.5,125.3,137.9,124.5,137.6,124.1"/>
<path d="M135.8,125.2c-0.5,0-1,0-1.6,0.1c-0.4,0.1-0.7,0.2-1,0.3c-1,0.6-0.7,1.8,0.2,2.3c1,0.5,2.6,0,3.1-1.1 C136.7,126.4,136.1,125.6,135.8,125.2"/>
<path d="M134.5,126.6c-0.5,0-1.2,0.1-1.7,0.3c-0.3,0.1-0.7,0.3-1,0.5c-0.9,0.7-0.5,1.9,0.5,2.2 c1.1,0.4,2.6-0.3,2.9-1.5C135.4,127.7,134.5,126.6,134.5,126.6z"/>
<path d="M131.6,110c0,0-1.6,2.1-2,3.7c-0.3,1.1-0.1,3.7-0.5,5.4c-0.4,1.7-0.7,2.7-0.7,2.7s-1.4,2.8-1.1,3.4 c0.2,0.6,1.4,1.2,2.1,0.9c0.9-0.4,1.9-2.4,2.6-3.8c0.7-1.4,1.2-3.4,1.2-3.4s0.9,0.3,1.4,0.7c1.6,1.2,0.9,5,0.9,5 s-0.7,1.3-1.7,2.8c-1.4,2-3.4,3.8-2.1,5.4c1.3,1.5,4.2-2.4,4.2-2.4l2.9-3.7c0,0,3.3-5.4,3.4-6.5c0.1-0.8,0-3.5,0-3.5l-1-10.4 l-5.2,0.4l-4.3,1.4L131.6,110"/>
</g>
</g>
<g id="Right-Glove">
<g id="Basic_Right_Glove" class="option" style="fill: rgb(10, 10, 10); display: inherit;">
<path d="M31.1,124.1c0.5,0,1,0,1.6,0.1c0.4,0.1,0.7,0.2,1,0.3c1,0.6,0.7,1.8-0.2,2.3c-1,0.6-2.6,0-3.1-1.1 C30.3,125.3,30.9,124.5,31.1,124.1"/>
<path d="M32.9,125.2c0.5,0,1,0,1.6,0.1c0.4,0.1,0.7,0.2,1,0.3c1,0.6,0.7,1.8-0.2,2.3c-1,0.5-2.6,0-3.1-1.1 C32.1,126.4,32.7,125.6,32.9,125.2"/>
<path d="M34.2,126.6c0.5,0,1.2,0.1,1.7,0.3c0.3,0.1,0.7,0.3,1,0.5c0.9,0.7,0.5,1.9-0.5,2.2c-1.1,0.4-2.6-0.3-2.9-1.5 C33.3,127.7,34.2,126.6,34.2,126.6z"/>
<path d="M37.1,110c0,0,1.5,2.1,2,3.7c0.3,1.1,0.1,3.7,0.5,5.4c0.4,1.7,0.7,2.7,0.7,2.7s1.4,2.8,1.1,3.4 c-0.2,0.6-1.4,1.2-2.1,0.9c-0.9-0.4-1.9-2.4-2.6-3.8c-0.7-1.4-1.2-3.4-1.2-3.4s-0.9,0.3-1.4,0.7c-1.6,1.2-0.9,5-0.9,5 s0.7,1.3,1.7,2.8c1.4,2,3.4,3.8,2.1,5.4c-1.3,1.5-4.2-2.4-4.2-2.4l-2.9-3.7c0,0-3.3-5.4-3.4-6.5c-0.1-0.8,0-3.5,0-3.5l1-10.4 l5.2,0.4l4.3,1.4L37.1,110"/>
</g>
</g>
</g>
<g id="Biceps">
<g id="Left-Biceps">
<g id="Basic_Biceps_Left" class="option" style="display: inherit;">
<path id="Main_Basic_Biceps_Left" d="M133.5,52c-1.1-2.7-6.2-14.8-6.2-14.8s-8.3,3.4-10.4,4.3 c-0.6,0.2-0.9,0.9-0.6,1.5c1,2.4,3.4,8.1,4.8,11.7c0.3,0.8,1,1.5,1.8,1.8c0.8,0.3,1.7,0.3,2.5,0c2.4-1,5.7-2.4,7.4-3 C133.5,53.2,133.8,52.6,133.5,52" style="fill: rgb(20, 20, 20);"/>
<path id="Strap_Basic_Biceps_Left" d="M118.6,48.3l-5.8,2.4l-0.1,4.3l7.4-3.1L118.6,48.3" style="fill: rgb(68, 67, 67);"/>
<path id="Trauma-Plate_Basic_Biceps_Left" class="toggle" style="fill: rgb(30, 30, 30);" d="M133.5,51.4l-5.3-12.7l-10.1,4.2l4.6,11.2 c0.2,0.4,0.5,0.7,0.9,0.9s0.8,0.2,1.2,0L133.5,51.4"/>
</g>
</g>
<g id="Right-Biceps">
<g id="Basic_Biceps_Right" class="option" style="display: inherit;">
<path id="Main_Basic_Biceps_Right" d="M35.4,52c1.2-2.8,6.2-14.8,6.2-14.8s8.3,3.4,10.4,4.3c0.6,0.2,0.9,0.9,0.6,1.5 c-1,2.4-3.4,8.1-4.8,11.7c-0.3,0.8-1,1.5-1.8,1.8s-1.7,0.3-2.5,0c-2.4-1-5.7-2.4-7.4-3C35.5,53.2,35.2,52.6,35.4,52" style="fill: rgb(20, 20, 20);"/>
<path id="Strap_Basic_Biceps_Right" d="M50.4,48.3l5.8,2.4l0.1,4.3l-7.4-3.1L50.4,48.3" style="fill: rgb(68, 67, 67);"/>
<path id="Trauma-Plate_Basic_Biceps_Right" class="toggle" style="fill: rgb(30, 30, 30);" d="M35.5,51.4l5.3-12.7l10.1,4.2l-4.6,11.2 c-0.2,0.4-0.5,0.7-0.9,0.9c-0.4,0.2-0.8,0.2-1.2,0L35.5,51.4"/>
</g>
</g>
</g>
<g id="Vest" style="fill: rgb(17, 17, 17);">
<path d="M84.4,20.9c8.4,0,15.3-4.3,15.5-8h0.1l18.3,5.4l13.2,23.9l-2.8,1.2l-13.3-8.6l-2.3,3.7l-1.5,47.4 c0,0-8.7,4.7-13.4,5.3c-3.4,0.5-8.6,0.7-13.7,0.7s-10.3-0.2-13.7-0.7c-4.8-0.6-13.4-5.3-13.4-5.3l-1.5-47.4l-2.3-3.7l-13.3,8.6 l-2.8-1.2l13.2-23.9L69,12.9h0.1C69,16.6,75.9,20.9,84.4,20.9"/>
</g>
<g class="swappable" id="Chest">
<g id="Chest_Gunslinger" style="visibility: visible;">
<g id="Abdomen_Gunslinger">
<g id="Left_Abdomen_Gunslinger" style="fill: rgb(245, 106, 10);">
<path d="M98.4,74l7.2-13l-3.7-5.3l-0.3-0.6l-4.1,0.5l-1.7,20L98.4,74"/>
<path d="M98.4,74l7.2-13l1.9,2.7l2.5-2l-0.7,8.9L98.4,74"/>
</g>
<g id="Right_Abdomen_Gunslinger" style="fill: rgb(245, 106, 10);">
<path d="M70.5,74l-7.2-13l-1.9,2.7l-2.5-2l0.7,8.9L70.5,74"/>
<path d="M70.5,74l-7.2-13l3.7-5.3l0.3-0.6l4.1,0.5l1.7,20L70.5,74"/>
</g>
<path id="Center_Abdomen_Gunslinger" d="M84.5,51.4l13,4.3l-1.7,20l-2,1.2l-9.4-0.5L75,76.9l-2-1.2l-1.7-20 L84.5,51.4" style="fill: rgb(30, 30, 30);"/>
</g>
<g id="Chest-Plates_Gunslinger">
<g id="Left-Chest_Gunslinger" style="fill: rgb(30, 30, 30);">
<path d="M85.2,28.9v-3.1l2.5-2.5l24.2-2.8l2.2,13.5l-3.6,27.2l-3,2.4l-5.6-8l-1.6-3.4l-15-4.6l3.9-3.9V32.5 L85.2,28.9"/>
<path d="M100.3,52.4l11.1-6.5l2.8-11.7l-2.4,12.6l-9.8,9L100.3,52.4"/>
<path d="M101.6,55.1l-4.1,0.5l-13-4.3v-3.8l15.9,4.8L101.6,55.1"/>
</g>
<g id="Right-Chest_Gunslinger" style="fill: rgb(30, 30, 30);">
<path d="M83.7,28.9v-3.1l-2.5-2.5L57,20.6l-2.2,13.5l3.6,27.2l3,2.4l5.6-8l1.6-3.4l15-4.6l-3.9-3.9V32.5L83.7,28.9"/>
<path d="M68.6,52.4l-11.1-6.5l-2.8-11.7l2.4,12.6l9.8,9L68.6,52.4"/>
<path d="M67.3,55.1l4.1,0.5l13-4.3v-3.8l-15.9,4.8L67.3,55.1"/>
</g>
</g>
<g id="Iron-Heart_Gunslinger">
<path id="Under-Heart_Gunslinger" d="M83.6,47.8l-3.9-3.9V32.5l4-3.6v-3.1h1.5v3.1l4,3.6v11.4l-3.9,3.9l-0.8-0.2 L83.6,47.8" style="fill: rgb(28, 28, 28);"/>
<path id="Heart_Gunslinger" d="M81.6,42.9v-9.4l2.9-2.9l2.9,2.9v9.4l-2.9,2.9L81.6,42.9" style="fill: rgb(33, 33, 33);"/>
<rect id="Center_Heart_Gunslinger" class="option" x="83.6" y="34.1" width="1.7" height="8.2" style="fill: rgb(245, 106, 10); display: inherit;"/>
</g>
</g>
</g>
<g id="Chest-Attachments">
<g id="No-Device_Accessories_Chest" class="option" style="display: inherit;">
</g>
</g>
<g id="Collar">
<g id="Cloth-Wrap-Right_Collar" class="option" style="display: inherit;">
<g id="Main_Cloth-Wrap-Right_Collar" style="fill: rgb(23, 23, 23);">
<path d="M94.3,21.9c5-1.6,5.9-4.1,6.2-6.6c0.1-1-1.3-3.7,0.2-4.4c1.7-0.8,5.8,0.4,7.4,0.8c1.2,0.3,2.3,0.6,3.6,0.6 c2.9,0,5.2,2,5.5,3.4c0.4,2-3.2,2.8-4.9,4.3c-4.2,3.9-5.7,9.1-14.6,10.6c-4.1,0.7-8.1-0.3-11.9-1.1c-9.8-2.2-15.1-4.1-21.4-8.9 c-2.8-2.1-6.9-3.9-6.8-6.7c0-0.1,2-1.3,2.2-1.4c1.8-0.4,3.3-1.2,5.2-1.2c1.2,0,1,1,1.1,1.4c0.3,1.7,1.9,3,3.9,4.4 C75.1,20.5,87.1,21.6,94.3,21.9"/>
<path d="M94.3,21.9c1.3,0,2.5,0.3,3.5,0.3c4.5,0.3,6.2-0.8,7-2.9"/>
<path d="M108.4,11.7c1.3,2.1,1.1,4.7,0.1,6.3"/>
<path d="M70.3,17.8c3.4,4.7,8.5,6.1,14,6.7"/>
<path d="M61.1,12.1c0.2,1.2,0.9,1.6,1.8,2.4c0.5,0.5,1.1,0.8,1.5,1.3c0.1,0.2,0.2,0.4,0.3,0.7"/>
</g>
<path id="Buckle_Cloth-Wrap-Right_Collar" d="M71.4,17l-2.9-2.1l-5,7l2.9,2.1L71.4,17" style="fill: rgb(144, 143, 143);"/>
</g>
</g>
<svg version="1.1" id="Helmets" xmlns="http://www.w3.org/2000/svg" y="-54px" height="85px" viewBox="0 0 80 80" class="swappable">
<g id="Helmet_Stalker-Medium" style="visibility: visible;">
<g id="Left-Earcap_Stalker-Medium" class="toggle">
<g id="Ear-Cap_Left_Stalker-Medium" style="fill: rgb(245, 106, 10);">
<path d="M57.6,31l2.4,1.7L60.9,43l-2.1,2.1L57.6,31z"/>
<path d="M58.6,37.7c0-0.1,0.1-0.2,0.2-0.2l1-0.1c0.1,0,0.2,0.1,0.2,0.2c0,0.1-0.1,0.2-0.2,0.2l-1,0.1 C58.7,37.9,58.6,37.8,58.6,37.7z"/>
</g>
</g>
<g id="Right-Earcap_Stalker-Medium" class="toggle">
<g id="Ear-Cap_Right_Stalker-Medium" style="fill: rgb(245, 106, 10);">
<path d="M22.4,31L20,32.6L19.1,43l2.1,2.1L22.4,31z"/>
<path d="M21.4,37.7c0-0.1-0.1-0.2-0.2-0.2l-1-0.1c-0.1,0-0.2,0.1-0.2,0.2c0,0.1,0.1,0.2,0.2,0.2l1,0.1 C21.3,37.9,21.4,37.8,21.4,37.7z"/>
</g>
</g>
<g id="Helmet_Pieces_Stalker-Medium">
<g id="Dome-2_Stalker-Medium" style="fill: rgb(30, 30, 30);">
<path d="M33,20.3c0-0.1-6.5,1.5-8.9,7.9c-0.4,1.1-0.8,3.2-1,4.2c0.1-0.2,0.2-0.4,0.3-0.5c0.5-0.6,1.2-1.5,1.9-2.1 c1-1,2.8-2.3,4-3.6c1.2-1.3,2.5-3.2,3.1-4.2C32.8,21.5,32.9,20.8,33,20.3z"/>
<path d="M47.1,20.3c0-0.1,6.5,1.5,8.9,7.9c0.4,1.1,0.8,3.2,1,4.2c-0.1-0.2-0.2-0.4-0.3-0.5c-0.5-0.6-1.2-1.5-1.9-2.1 c-1-1-2.8-2.3-4-3.6c-1.2-1.3-2.5-3.2-3.1-4.2C47.4,21.5,47.2,20.8,47.1,20.3z"/>
<g>
<path d="M56.9,29.7l0.8,0.9L59,45.5l-0.7,1L56.9,29.7z"/>
<path d="M56.1,28.5l0.8,0.9l1.6,17.3l-0.6,1L56.1,28.5z"/>
</g>
<g>
<path d="M23.2,29.7l-0.8,0.9L21,45.5l0.7,1L23.2,29.7z"/>
<path d="M24,28.5l-0.8,0.9l-1.6,17.3l0.6,1L24,28.5z"/>
</g>
</g>
<g id="Dome-1_Stalker-Medium" style="fill: rgb(245, 106, 10);">
<g>
<path d="M33.1,20.2c-0.1,0.5-0.3,1.2-0.6,1.7c-0.1,0.1-0.1,0.2-0.2,0.3c-0.4,0.1-0.8,0.2-1.2,0.4 C30.2,23,29,23.9,29,23.9V22c0,0,1-0.5,1.9-1C31.6,20.7,32.5,20.4,33.1,20.2z"/>
<path d="M32.4,22.2c-0.7,1.1-1.9,2.8-3,4c-0.1,0.1-0.2,0.3-0.4,0.4v-2.7c0,0,0.9-0.8,1.9-1.2 C31.4,22.5,31.9,22.3,32.4,22.2z"/>
</g>
<g>
<path d="M47.1,20.2c0.1,0.5,0.3,1.2,0.6,1.7c0.1,0.1,0.1,0.2,0.2,0.3c0.4,0.1,0.8,0.2,1.2,0.4 c0.8,0.4,2.1,1.2,2.1,1.2V22c0,0-1-0.5-1.9-1C48.5,20.7,47.6,20.4,47.1,20.2z"/>
<path d="M47.8,22.2c0.7,1.1,1.9,2.8,3,4c0.1,0.1,0.2,0.3,0.4,0.4v-2.7c0,0-0.9-0.8-1.9-1.2 C48.7,22.5,48.2,22.3,47.8,22.2z"/>
</g>
</g>
<g id="Face-2_Stalker-Medium" style="fill: rgb(30, 30, 30);">
<path d="M23.7,51.1l-0.1-3.4L21.2,51c0,0-0.1,2.9,0.3,4c0.4,1.2,1.3,2.1,2.2,3c1,1,12.1,8.5,12.1,8.5l-1.9-8.3L32,59 l-1.6-0.8l-2.1-1.6l-2.2-2.1l-1.7-1.9l-0.8-1.2v-0.3H23.7z"/>
<path d="M56.5,51.1l0.1-3.4l2.3,3.3c0,0,0.1,2.9-0.3,4c-0.4,1.2-1.3,2.1-2.2,3c-1,1-12.1,8.5-12.1,8.5l1.9-8.3 l1.8,0.7l1.6-0.8l2.1-1.6l2.2-2.1l1.7-1.9l0.8-1.2L56.5,51.1L56.5,51.1z"/>
</g>
<g id="Face-1_Stalker-Medium" style="fill: rgb(15, 15, 15);">
<g>
<path d="M23.7,51.1v0.3l0.8,1.2l1.7,1.9l2.2,2.1l2.1,1.6L32,59l1.8-0.7l-0.3-1.1L30,48.5L25.5,45l-1.9,2.7 L23.7,51.1z"/>
<g>
<path d="M29.9,55.5c-0.1-0.1-0.1-0.2,0-0.3l1.3-1c0.1-0.1,0.2-0.1,0.3,0c0.1,0.1,0.1,0.2,0,0.3l-1.3,1 C30.1,55.6,29.9,55.6,29.9,55.5"/>
<path d="M30.7,56.8c-0.1-0.1-0.1-0.2,0-0.3l1.1-0.9c0.1-0.1,0.2-0.1,0.3,0c0.1,0.1,0.1,0.2,0,0.3l-1.1,1 C30.9,56.9,30.8,56.9,30.7,56.8"/>
</g>
</g>
<g>
<path d="M56.5,51.1v0.3l-0.8,1.2L54,54.5l-2.2,2.1l-2.1,1.6L48.1,59l-1.8-0.7l0.3-1.1l3.6-8.7l4.6-3.5l1.9,2.7 L56.5,51.1z"/>
<g>
<path d="M50.3,55.5c0.1-0.1,0.1-0.2,0-0.3l-1.3-1c-0.1-0.1-0.2-0.1-0.3,0c-0.1,0.1-0.1,0.2,0,0.3l1.3,1 C50,55.6,50.2,55.6,50.3,55.5"/>
<path d="M49.4,56.8c0.1-0.1,0.1-0.2,0-0.3l-1.1-0.9c-0.1-0.1-0.2-0.1-0.3,0c-0.1,0.1-0.1,0.2,0,0.3l1.1,0.9 C49.2,56.9,49.4,56.9,49.4,56.8"/>
</g>
</g>
</g>
<g id="Cheeks_Stalker-Medium" style="fill: rgb(245, 106, 10);">
<g>
<path d="M46.5,57.2L45.7,57L50,44.7l0.2,0.6v3.2L46.5,57.2z"/>
<path d="M50.1,48.5l-0.2-3.8l1.7-0.9l2.9-2l2.6-2.3l0.3-0.3L54.7,45L50.1,48.5z"/>
<path d="M58.9,51l-4.2-6l2.8-5.8l0.5-0.6L58.9,51z"/>
<path d="M44.3,66.5h-0.2l1.5-9.6l0.9,0.2L44.3,66.5z"/>
</g>
<g>
<path d="M21.2,51l4.2-6l-2.8-5.8l-0.5-0.6L21.2,51z"/>
<path d="M33.6,57.2l0.9-0.2l-4.3-12.3L30,48.5L33.6,57.2z"/>
<path d="M30,48.5l0.2-3.8l-1.7-0.9l-2.9-2L23,39.5l-0.3-0.3l2.8,5.8L30,48.5z"/>
<path d="M35.8,66.5H36L34.5,57l-0.9,0.2L35.8,66.5z"/>
</g>
</g>
<path id="Visor_Stalker-Medium" d="M41.8,66.8h-3.5l-0.4-25.4c0,0-3.7-0.8-3.8-0.8c-0.1,0-5.2-1.2-5.2-1.2l-4.5-1.5 L23,37.1l0.1-1.4l4.3,0.7l5.4,0.7l5,0.3l2,0.1h0.5l2-0.1l5-0.3l5.4-0.7l4.3-0.7l0.1,1.4l-1.5,0.8l-4.5,1.5c0,0-5.1,1.2-5.2,1.2 c-0.1,0-3.8,0.8-3.8,0.8L41.8,66.8z" style="fill: rgb(0, 0, 0);"/>
<g id="Eyes_Stalker-Medium">
<g id="Main_Eyes_Stalker-Medium" style="fill: rgb(30, 30, 30);">
<path d="M57.5,33.4c0,0-0.5-1-0.9-1.5c-0.5-0.6-1.2-1.5-1.9-2.1c-1-1-2.8-2.3-4-3.6c-1.2-1.3-2.5-3.2-3.1-4.2 c-0.4-0.6-0.6-1.6-0.6-2c0-0.1,0.2-0.3,0.2-0.3s-2.1-0.9-2.8-1c-0.9-0.2-3.2-0.5-3.2-0.5h-2c0,0-2.5,0.3-3.4,0.5 c-0.7,0.2-2.8,1-2.8,1s0.2,0.2,0.2,0.3c-0.1,0.4-0.3,1.4-0.6,2c-0.6,1-1.9,2.9-3.1,4.2c-1.2,1.3-3,2.6-4,3.6 c-0.7,0.7-1.4,1.5-1.9,2.1c-0.4,0.5-0.9,1.5-0.9,1.5L22,38.2l0.2,0.4l0.8,0.9l2.6,2.3l2.9,2l1.7,0.9L34.5,57l1.5,9.6l0.6,0.2h7 l0.6-0.2l1.5-9.6L50,44.7l1.7-0.9l2.9-2l2.6-2.3l0.8-0.9l0.2-0.4L57.5,33.4 M41.8,66.8h-3.5l-0.4-25.4c0,0-3.7-0.8-3.8-0.8 c-0.1,0-5.2-1.2-5.2-1.2l-4.5-1.5L23,37.1l0.1-1.4l4.3,0.7l5.4,0.7l5,0.3l2,0.1h0.5l2-0.1l5-0.3l5.4-0.7l4.3-0.7l0.1,1.4 l-1.5,0.8l-4.5,1.5c0,0-5.1,1.2-5.2,1.2c-0.1,0-3.8,0.8-3.8,0.8L41.8,66.8"/>
<path d="M32.5,20.4l0.3-0.6l0.1-0.1l0.2,0.3L33,20.3L32.5,20.4"/>
<path d="M47.6,20.4l-0.3-0.6l-0.1-0.1c0,0-0.2,0.2-0.2,0.3s0.1,0.3,0.1,0.3L47.6,20.4"/>
</g>
<g id="Trim_Eyes_Stalker-Medium" style="fill: rgb(23, 23, 23);">
<path d="M35,37.3l-0.4-0.9L32,35.8l1.1-15.6l0.1-0.3L33,19.6l2.7-1l1.1-0.2v16.3h6.6V18.5l1.2,0.2l2.6,1L47,20 l1.1,15.9l-2.6,0.5l-0.4,0.9l-5,0.3L35,37.3z"/>
<path d="M43.4,34.8h-6.6l2.5,0.8v-0.4h1.6v0.4L43.4,34.8z"/>
<g>
<path d="M44.9,40.8l-2.7,0.6l-0.4,25.4h1.7l0.6-0.2l1.5-9.6l1.1-3.2l-2.3-2.4L44.9,40.8z"/>
<path d="M35.2,40.8l2.7,0.6l0.4,25.4h-1.7L36,66.6L34.5,57l-1.1-3.2l2.3-2.4L35.2,40.8z"/>
</g>
</g>
<path id="Center_Eyes_Stalker-Medium" d="M43.4,18.5c0,0-1.6-0.3-3.3-0.3c-1.7,0-3.3,0.3-3.3,0.3v16.3h6.6V18.5z" style="fill: rgb(15, 15, 15);"/>
</g>
</g>
</g>
</svg>
<g id="Shoulders">
<g id="Left-Shoulder">
<g id="Legacy-x3_Shoulder_Left" class="option" style="display: inherit;">
<path id="Plate-3_Shoulder_Left_Legacy-x3" d="M119.2,19.5l-7.3,7.5l4.3,9.2l9.6-0.5l5.1,4.7l4.5-0.3L119.2,19.5" style="fill: rgb(20, 19, 19);"/>
<path id="Trauma-Plate-3_Shoulder_Legacy-x3_Left" class="toggle" style="fill: rgb(30, 30, 30);" d="M131.5,38.6l2.9-0.2l-13.9-17.8l-6.5,6.7l3.3,7.2 l8.8-0.6L131.5,38.6"/>
<path id="Plate-2_Shoulder_Left_Legacy-x3" d="M115.3,14.9l-5.8,8.7l5.9,8.3l9.3-2.3l5.9,3.6L135,32L115.3,14.9" style="fill: rgb(245, 106, 10);"/>
<path id="Trauma-Plate-2_Shoulder_Legacy-x3_Left" class="toggle" style="fill: rgb(30, 30, 30);" d="M130.9,31.4l2.8-0.7l-17-14.9l-5.2,7.7l4.6,6.4 l8.6-2.2L130.9,31.4"/>
<path id="Plate-1_Shoulder_Left_Legacy-x3" d="M108.2,10.4l-2.6,10.1l8.3,5.9l8.1-5.2l6.7,1.5l3.8-2.5L108.2,10.4" style="fill: rgb(25, 25, 25);"/>
<path id="Trauma-Plate-1_Shoulder_Legacy-x3_Left" class="toggle" style="fill: rgb(30, 30, 30);" d="M128.3,20.9l2.4-1.6l-21-8.5l-2.3,9l6.4,4.6l7.4-4.9 L128.3,20.9"/>
</g>
</g>
<g id="Right-Shoulder">
<g id="Legacy-x3_Shoulder_Right" class="option" style="display: inherit;">
<path id="Plate-3_Shoulder_Right_Legacy-x3" d="M49.7,19.5L57,27l-4.2,9.2l-9.6-0.5l-5.1,4.7l-4.5-0.3L49.7,19.5" style="fill: rgb(20, 19, 19);"/>
<path id="Trauma-Plate-3_Shoulder_Legacy-x3_Right" class="toggle" style="fill: rgb(30, 30, 30);" d="M37.5,38.6l-2.9-0.2l14-17.8l6.5,6.7l-3.3,7.2 L43,33.9L37.5,38.6"/>
<path id="Plate-2_Shoulder_Right_Legacy-x3" d="M53.7,14.9l5.8,8.7l-5.9,8.3l-9.3-2.3l-6,3.6L33.9,32L53.7,14.9" style="fill: rgb(245, 106, 10);"/>
<path id="Trauma-Plate-2_Shoulder_Legacy-x3_Right" class="toggle" style="fill: rgb(30, 30, 30);" d="M38.1,31.4l-2.8-0.7l17-14.9l5.2,7.7l-4.6,6.4 l-8.6-2.2L38.1,31.4"/>
<path id="Plate-1_Shoulder_Right_Legacy-x3" d="M60.8,10.4l2.6,10.1l-8.3,5.9L47,21.2l-6.7,1.5l-3.8-2.5L60.8,10.4" style="fill: rgb(25, 25, 25);"/>
<path id="Trauma-Plate-1_Shoulder_Legacy-x3_Right" class="toggle" style="fill: rgb(30, 30, 30);" d="M40.6,20.9l-2.4-1.6l21-8.5l2.3,9L55,24.4l-7.4-4.9 L40.6,20.9"/>
</g>
</g>
</g>
<g id="Gauntlets">
<g id="Left-Gauntlets">
<g id="Heavy_Gauntlet_Left" class="option" style="display: inherit;">
<g id="Top-2_Heavy_Gauntlet_Left" style="fill: rgb(45, 44, 44);">
<path d="M139.8,78.9l1.7,0.1l1.4,8.1l-1.5,1.2L139.8,78.9"/>
<path d="M141.4,87.6l1.8,10.6l-0.9,1.3l1.1,6.2L143,106l-3.1-17L141.4,87.6"/>
<path d="M141.4,84.6c0.2,0,0.4,0.2,0.4,0.4s-0.2,0.4-0.4,0.4c-0.2,0-0.4-0.2-0.4-0.4S141.2,84.6,141.4,84.6"/>
</g>
<g id="Top-1_Heavy_Gauntlet_Left" style="fill: rgb(30, 30, 30);">
<path d="M138.5,107.2l4.3-1.2l-3.1-17l1.5-1.4l-1.6-9.3l-6.6-0.7L138.5,107.2"/>
<path d="M138,78.2l1.8,10.8"/>
</g>
<g id="Accent-Top_Heavy_Gauntlet_Left" style="fill: rgb(245, 106, 10);">
<path d="M141.6,103.4l-2.8,0.6l0.4,2.1l2.8-0.7L141.6,103.4"/>
<path d="M139.9,94.4l-2.8,0.6l1.6,8.4l2.8-0.6L139.9,94.4"/>
<path d="M137.4,78.8l-3.1-0.2l1.6,9.2l2.9-0.6L137.4,78.8"/>
</g>
<path id="Bottom_Heavy_Gauntlet_Left" d="M133.2,78.1c-3.4,0.1-6.8,1.6-9,4.4c-0.7,0.9-0.9,2.1-0.6,3.2 c1.6,5.3,7,22.8,7,22.8l7.9-1.4L133.2,78.1" style="fill: rgb(30, 30, 30);"/>
<g id="Accent-Bottom_Heavy_Gauntlet_Left" style="fill: rgb(245, 106, 10);">
<path d="M138.5,107.2l-7.9,1.4l-0.4-1.4l8.1-1.5L138.5,107.2"/>
<path d="M133.6,80.1c-4.3,0.4-7.9,2-9.6,6.7l-0.3-1c-0.3-0.9-0.2-1.8,0.2-2.6l0.4-0.7c2.2-2.8,5.6-4.2,9-4.4 L133.6,80.1"/>
<path d="M132.5,78.8l-3.5,0.7l2.8,13.9l3.5-0.7L132.5,78.8"/>
<path d="M132.1,79.1l-2.6,0.5l2.5,12.8l2.6-0.5L132.1,79.1"/>
<path d="M129.5,79.6l-0.5-0.2"/>
<path d="M132.5,78.8l-0.4,0.3"/>
<path d="M135.2,92.7l-0.6-0.7"/>
<path d="M131.7,93.4l0.4-0.9"/>
</g>
<g id="Missle_Attachment_Heavy_Gauntlet_Left" class="option" style="display: inherit;">
<g id="Head_Missle_Attachment_Heavy_Gauntlet_Left" style="fill: rgb(245, 106, 10);">
<path d="M145.1,96.8l-2.6-4.1l3.7-0.8L145.1,96.8"/>
<path d="M143.8,92.9c0.1,0,0.2,0.1,0.2,0.4c0,0.2,0,0.4-0.1,0.4c-0.1,0-0.2-0.1-0.2-0.4 C143.7,93.1,143.7,92.9,143.8,92.9"/>
<path d="M144.1,94c0.1,0,0.1,0.1,0.2,0.3c0,0.2,0,0.3-0.1,0.3c-0.1,0-0.1-0.1-0.2-0.3 C143.9,94.1,144,94.1,144.1,94"/>
<path d="M144.3,95.1c0.1,0,0.1,0.1,0.2,0.3c0,0.2,0,0.3-0.1,0.3c-0.1,0-0.1-0.1-0.2-0.3 C144.2,95.2,144.3,95.1,144.3,95.1"/>
<path d="M143.2,93c0.1,0,0.2,0.1,0.2,0.4c0,0.2,0,0.4-0.1,0.4c-0.1,0-0.2-0.1-0.2-0.4 C143.1,93.2,143.1,93,143.2,93"/>
<path d="M145.6,92.5c0.1,0,0.2,0.1,0.2,0.4c0,0.2,0,0.4-0.1,0.4c-0.1,0-0.2-0.1-0.2-0.4 C145.5,92.7,145.5,92.6,145.6,92.5"/>
<path d="M145,92.7c0.1,0,0.2,0.1,0.2,0.4c0,0.2,0,0.4-0.1,0.4c-0.1,0-0.2-0.1-0.2-0.4 C144.9,92.9,144.9,92.7,145,92.7"/>
<path d="M145.1,93.8c0.1,0,0.1,0.1,0.2,0.3c0,0.2,0,0.3-0.1,0.3c-0.1,0-0.1-0.1-0.2-0.3 C145,94,145,93.9,145.1,93.8"/>
<path d="M145.2,94.9c0.1,0,0.1,0.1,0.2,0.3c0,0.2,0,0.3-0.1,0.3c-0.1,0-0.1-0.1-0.2-0.3 C145.1,95.1,145.1,94.9,145.2,94.9"/>
<path d="M144.4,92.8c0.1,0,0.2,0.1,0.2,0.4c0,0.2,0,0.4-0.1,0.4s-0.2-0.1-0.2-0.4C144.3,93,144.3,92.8,144.4,92.8"/>
<path d="M144.6,93.9c0.1,0,0.1,0.1,0.2,0.3c0.1,0.2,0,0.3-0.1,0.3c-0.1,0-0.1-0.1-0.2-0.3 C144.5,94.1,144.5,94,144.6,93.9"/>
<path d="M144.8,95c0.1,0,0.1,0.1,0.2,0.3c0,0.2,0,0.3-0.1,0.3c-0.1,0-0.1-0.1-0.2-0.3 C144.7,95.1,144.7,95,144.8,95"/>
<path d="M143.6,94.5c0-0.2,0-0.3,0.1-0.3c0.1,0,0.1,0.1,0.2,0.3v0.3L143.6,94.5"/>
<path d="M145.6,94.4c-0.1,0-0.1-0.1-0.2-0.3c0-0.2,0-0.3,0.1-0.3s0.1,0.1,0.2,0.3L145.6,94.4"/>
</g>
<g id="Main_Missle_Attachment_Heavy_Gauntlet_Left" style="fill: rgb(67, 65, 65);">
<path d="M145.6,91.5l-2.8,0.6l0.1,0.6l2.8-0.6L145.6,91.5"/>
<path d="M143.3,78.5l-2.8,0.6l0.1,0.6l2.8-0.6L143.3,78.5"/>
<path d="M142.4,76.4l-1.6,0.3l0.1,0.6l1.6-0.3L142.4,76.4"/>
<path d="M143.2,76.9l-3.1,0.6l0.3,1.6l3.1-0.6L143.2,76.9"/>
<path d="M143.7,79.1l-3.3,0.7l2.2,12.3l3.3-0.7L143.7,79.1"/>
<path d="M141.7,86.3l-0.5,0.1l0.5,2.9l0.5-0.1L141.7,86.3"/>
</g>
<g id="Accent_Missle_Attachment_Heavy_Gauntlet_Left" style="fill: rgb(24, 24, 24);">
<path d="M145.2,97.6l-0.5-1l0.7-0.1L145.2,97.6"/>
<path d="M145.3,96.2l-0.6,0.1v0.3l0.7-0.1L145.3,96.2"/>
<path d="M142.4,75.5l-2,0.4l0.2,0.9l2-0.4L142.4,75.5"/>
<path d="M142,75.1l-1.3,0.3l-0.3,0.5l2-0.4L142,75.1"/>
<path d="M142.7,79.3l-0.6,0.1l2.2,12.3l0.6-0.1L142.7,79.3"/>
<path d="M141.9,79.4l-0.6,0.1l2.2,12.3l0.6-0.1L141.9,79.4"/>
<path d="M144,79.4l-0.3-0.3l2.2,12.3l0.2-0.4L144,79.4"/>
<path d="M143.5,79.1l-0.6,0.1l2.2,12.3l0.6-0.1L143.5,79.1"/>
<path d="M141.2,79.6l-0.3,0.1l2.2,12.3l0.3-0.1L141.2,79.6"/>
</g>
<path id="Base_Missle_Attachment_Heavy_Gauntlet_Left" d="M140.7,78.7l-1-0.2l2.5,14.1l0.9-0.6L140.7,78.7 M141.7,86.3l-0.5,0.1l0.5,2.9l0.5-0.1L141.7,86.3" style="fill: rgb(34, 34, 34);"/>
</g>
</g>
</g>
<g id="Right-Gauntlets">
<g id="Heavy_Gauntlet_Right" class="option" style="display: inherit;">
<g id="Top-2_Heavy_Gauntlet_Right" style="fill: rgb(45, 44, 44);">
<path d="M29.3,78.9L27.6,79l-1.4,8.1l1.5,1.2L29.3,78.9"/>
<path d="M27.8,87.6L26,98.2l0.9,1.3l-1.1,6.2l0.4,0.3l3.1-17L27.8,87.6"/>
<path d="M27.7,84.6c-0.2,0-0.4,0.2-0.4,0.4s0.2,0.4,0.4,0.4c0.2,0,0.4-0.2,0.4-0.4S28,84.6,27.7,84.6"/>
</g>
<g id="Top-1_Heavy_Gauntlet_Right" style="fill: rgb(30, 30, 30);">
<path d="M30.6,107.2l-4.3-1.2l3.1-17l-1.5-1.4l1.6-9.3l6.6-0.7L30.6,107.2"/>
<path d="M31.1,78.2L29.3,89"/>
</g>
<g id="Accent-Top_Heavy_Gauntlet_Right" style="fill: rgb(245, 106, 10);">
<path d="M27.5,103.4l2.8,0.6l-0.4,2.1l-2.8-0.7L27.5,103.4"/>
<path d="M29.2,94.4L32,95l-1.6,8.4l-2.8-0.6L29.2,94.4"/>
<path d="M31.7,78.8l3.1-0.2l-1.6,9.2l-2.9-0.6L31.7,78.8"/>
</g>
<path id="Bottom_Heavy_Gauntlet_Right" d="M35.9,78.1c3.3,0.1,6.8,1.6,9,4.4c0.7,0.9,0.9,2.1,0.6,3.2 c-1.6,5.3-7,22.8-7,22.8l-7.9-1.4L35.9,78.1" style="fill: rgb(30, 30, 30);"/>
<g id="Accent-Bottom_Heavy_Gauntlet_Right" style="fill: rgb(245, 106, 10);">
<path d="M30.6,107.2l7.9,1.4l0.4-1.4l-8.1-1.5L30.6,107.2"/>
<path d="M35.5,80.1c4.3,0.4,7.9,2,9.6,6.7l0.3-1c0.3-0.9,0.2-1.8-0.2-2.6l-0.4-0.7c-2.2-2.8-5.6-4.2-9-4.4 L35.5,80.1"/>
<path d="M36.6,78.8l3.5,0.7l-2.8,13.9l-3.5-0.7L36.6,78.8"/>
<path d="M37.1,79.1l2.6,0.5l-2.5,12.8l-2.6-0.5L37.1,79.1"/>
<path d="M39.6,79.6l0.5-0.2"/>
<path d="M36.6,78.8l0.4,0.3"/>
<path d="M33.9,92.7l0.6-0.7"/>
<path d="M37.4,93.4L37,92.5"/>
</g>
<g id="Flamethrower_Attachment_Heavy_Gauntlet_Right" class="option" style="display: inherit;">
<g id="Tubes_Flamethrower_Attachment_Heavy_Gauntlet_Right" style="fill: rgb(56, 55, 55);">
<path d="M27.8,79.1l0.8,0.1l-4.3,24.9l-0.8-0.1L27.8,79.1"/>
<path d="M26,78.8l0.8,0.1l-3.1,17.8l-0.8-0.1L26,78.8"/>
<path d="M27.3,80.6l1.2,0.2l-1,5.9l-1.2-0.2L27.3,80.6"/>
<path d="M25.5,80.3l1.1,0.2l-1,5.9l-1.1-0.2L25.5,80.3"/>
</g>
<g id="Main_Flamethrower_Attachment_Heavy_Gauntlet_Right" style="fill: rgb(94, 94, 94);">
<path d="M25.7,78.3l3.4,0.6l-0.3,1.9l-3.4-0.6L25.7,78.3"/>
<path d="M24.2,86.2l3.5,0.6l-0.2,0.9L24,87.1L24.2,86.2"/>
<path d="M24.2,87.1l3.2,0.6l-0.1,0.5l-3.2-0.6L24.2,87.1"/>
<path d="M27.5,86.1l0.5,0.1l-0.5,2.9L27,89L27.5,86.1"/>
</g>
<g id="Accent_Flamethrower_Attachment_Heavy_Gauntlet_Right" style="fill: rgb(39, 38, 38);">
<path d="M22.8,96.6l0.9,0.2L23.6,98l-1.1-0.2L22.8,96.6"/>
<path d="M23.6,90.2l1.6,0.3l-0.3,1.9l-1.6-0.3L23.6,90.2"/>
<path d="M23.5,92.1l1.1,0.2l-0.3,1.9L23.2,94L23.5,92.1"/>
<path d="M23.9,100.8L25,101l-0.4,2.6l-1.1-0.2L23.9,100.8"/>
<path d="M25.4,92.4l1.1,0.2l-0.6,3.5l-1.1-0.2L25.4,92.4"/>
<path d="M23.5,102l1.6,0.3l-0.1,0.5l-1.6-0.3L23.5,102"/>
</g>
<path id="Base_Flamethrower_Attachment_Heavy_Gauntlet_Right" d="M28,86.2l1.4-7.8l-1,0.2l-2.3,13.3l0.9,0.6 l0.6-3.3l-0.5-0.1l0.5-2.9H28" style="fill: rgb(36, 36, 36);"/>
</g>
</g>
</g>
</g>
<g id="Shins">
<g id="Left-Shin">
<g id="Full_Shin_Left" class="option" style="display: inherit;">
<path id="Shin_Full-Shin_Left" d="M101.8,175.3c10.9-3,18.2-1.1,18.2-1.1l4.3,42.3c0,0-4.3,1.2-8.9,1.3 c-3.4,0.1-8.9-1-8.9-1l-7.8-36C98.6,180.9,102.2,180.1,101.8,175.3" style="fill: rgb(30, 30, 30);"/>
<g id="Accent_Full-Shin_Left" class="toggle" style="fill: rgb(245, 106, 10);">
<path d="M99.5,184.8l6-0.8l0.4,1.6l-6.1,0.8L99.5,184.8"/>
<path d="M100,187l4.1-0.5l0.4,1.6l-4.2,0.5L100,187"/>
</g>
<g id="Ridge_Full-Shin_Left" class="toggle" style="fill: rgb(245, 106, 10);">
<path d="M116.2,173.3l-3.9-0.3l-4,0.6l8.1,44.2c1.9,0,3.4-0.3,5.6-0.7L116.2,173.3"/>
<path d="M112.3,173l7.2,44.5"/>
</g>
</g>
</g>
<g id="Right-Shin">
<g id="Full_Shin_Right" class="option" style="display: inherit;">
<path id="Shin_Full-Shin_Right" d="M67,175.3c-10.9-3-18.2-1.1-18.2-1.1l-4.3,42.3c0,0,4.3,1.2,8.9,1.3 c3.4,0.1,8.9-1,8.9-1l7.8-36C70.2,180.9,66.6,180.1,67,175.3" style="fill: rgb(30, 30, 30);"/>
<g id="Accent_Full-Shin_Right" class="toggle" style="fill: rgb(245, 106, 10);">
<path d="M69.3,184.8l-6-0.8l-0.4,1.6l6.1,0.8L69.3,184.8"/>
<path d="M68.8,187l-4.1-0.5l-0.4,1.6l4.2,0.5L68.8,187"/>
</g>
<g id="Ridge_Full-Shin_Right" class="toggle" style="fill: rgb(245, 106, 10);">
<path d="M52.6,173.3l3.9-0.3l4,0.6l-8.1,44.2c-1.9,0-3.4-0.3-5.6-0.7L52.6,173.3"/>
<path d="M56.5,173l-7.2,44.5"/>
</g>
</g>
</g>
</g>
<g id="Foot">
<g id="Left-Ankle">
<g id="Legacy_Ankle_Left" class="option" style="display: inherit;">
<path id="Plate-2_Legacy-Ankle_Left" d="M125.9,222.2l4.3,3.9l3,3.7l-4.8,1.5l-10.9-2.3l-4-5.3L125.9,222.2" style="fill: rgb(245, 106, 10);"/>
<path id="Plate-1_Legacy-Ankle_Left" d="M106.3,214.9c0,0,4.3,1.9,10.8,1.7c4.4-0.2,6.2-1.3,6.2-1.3l3.7,6.9l-1,3.8 l-15.7-1.2l-3.9-3.3L106.3,214.9" style="fill: rgb(25, 25, 25);"/>
<path id="Trauma-Plate-2_Legacy-Ankle_Left" class="toggle" style="fill: rgb(30, 30, 30);" d="M126.8,223.1l3.4,3l1.7,2.2l-3.6,1.2l-9.6-2l-1.6-2.1 l8.9,0.7L126.8,223.1"/>
<path id="Trauma-Plate-1_Legacy-Ankle_Left" class="toggle" style="fill: rgb(30, 30, 30);" d="M107.9,217.3l0.1,3.2l3.1,2.5l13.8,1.1l1-3.8l-1.8-3.3 c-1.2,0.3-4.7,1.4-7,1.4C113.5,218.6,110,217.9,107.9,217.3"/>
</g>
</g>
<g id="Left-Toe">
<g id="Armored_Toe_Left" class="option" style="display: inherit;">
<g id="Plate_Armored_Toe_Left" style="fill: rgb(30, 30, 30);">
<path d="M118.3,232.6l9.6,5.3l7.2,0.5l5.8-1.5c1.2-1,1.7-3.3,0.7-5.5l-8.2-3.9l-6.4,1.7L118.3,232.6"/>
<path d="M126.3,229.4c0,0,7.5,2.2,8.4,3.5c1,1.4,0.4,5.5,0.4,5.5"/>
</g>
<g id="Trim_Armored_Toe_Left" style="fill: rgb(245, 106, 10);">
<path d="M132.3,226.9l-7.7,1.9l-6.5,3.9l1.3,0.7l6.9-4l7.6-1.8L132.3,226.9"/>
<path d="M124.6,228.8l1.7,0.7"/>
</g>
</g>
</g>
<g id="Right-Ankle">
<g id="Legacy_Ankle_Right" class="option" style="display: inherit;">
<path id="Plate-2_Legacy-Ankle_Right" d="M42.9,222.2l-4.3,3.9l-3,3.7l4.8,1.5l10.9-2.3l4-5.3L42.9,222.2" style="fill: rgb(245, 106, 10);"/>
<path id="Plate-1_Legacy-Ankle_Right" d="M62.4,214.9c0,0-4.3,1.9-10.8,1.7c-4.4-0.2-6.2-1.3-6.2-1.3l-3.7,6.9l1,3.8 l15.7-1.2l3.9-3.3L62.4,214.9" style="fill: rgb(25, 25, 25);"/>
<path id="Trauma-Plate-2_Legacy-Ankle_Right" class="toggle" style="fill: rgb(30, 30, 30);" d="M41.9,223.1l-3.4,3l-1.7,2.2l3.6,1.2l9.6-2l1.6-2.1 l-8.9,0.7L41.9,223.1"/>
<path id="Trauma-Plate-1_Legacy-Ankle_Right" class="toggle" style="fill: rgb(30, 30, 30);" d="M60.8,217.3l-0.1,3.2l-3.1,2.5l-13.8,1.1l-1-3.8l1.8-3.3 c1.2,0.3,4.7,1.4,7,1.4C55.3,218.6,58.7,217.9,60.8,217.3"/>
</g>
</g>
<g id="Right-Toe">
<g id="Armored_Toe_Right" class="option" style="display: inherit;">
<g id="Plate_Armored_Toe_Right" style="fill: rgb(30, 30, 30);">
<path d="M50.5,232.6l-9.6,5.3l-7.2,0.5l-5.8-1.5c-1.2-1-1.7-3.3-0.7-5.5l8.2-3.9l6.4,1.6L50.5,232.6"/>
<path d="M42.4,229.4c0,0-7.5,2.2-8.4,3.5c-1,1.4-0.4,5.5-0.4,5.5"/>
</g>
<g id="Trim_Armored_Toe_Right" style="fill: rgb(245, 106, 10);">
<path d="M36.5,226.9l7.7,1.9l6.5,3.9l-1.3,0.7l-6.9-4l-7.6-1.8L36.5,226.9"/>
<path d="M44.2,228.8l-1.7,0.7"/>
</g>
</g>
</g>
</g>
<g id="Knees">
<g id="Left-Knee">
<g id="Galaxy_Knee_Left" class="option" style="display: inherit;">
<g id="Missiles_Galaxy-Knee_Left" class="toggle" style="display:none"/>
<g id="Strap_Galaxy-Knee_Left" style="fill: rgb(65, 64, 64);">
<path d="M97.4,161l2.8-0.4l0.4,2.6l-2.8,0.4L97.4,161z"/>
<path d="M96,161.6l1.5-0.2l0.3,2l-1.5,0.2L96,161.6z"/>
</g>
<path id="Knee_Galaxy-Knee_Left" d="M113.8,171.1l4-11.8l-4.2-4.9l-12.3,1.9l-2.6,5.9l7.3,10.1L113.8,171.1z" style="fill: rgb(30, 30, 30);"/>
<g id="Trim_Galaxy-Knee_Left" style="fill: rgb(245, 106, 10);">
<path d="M105.1,155.7l4.7-0.7l0.5,3.1l-4.7,0.7L105.1,155.7z"/>
<path d="M98.7,162.1c4.4,0.3,8.9,9.9,8.9,9.9l-1.5,0.2L98.7,162.1z"/>
<path d="M117.8,159.2c-4.1,1.6-5.5,12.1-5.5,12.1l1.5-0.2L117.8,159.2z"/>
</g>
</g>
</g>
<g id="Right-Knee">
<g id="Galaxy_Knee_Right" class="option" style="display: inherit;">
<g id="Missiles_Galaxy-Knee_Right" class="toggle" style="display:none"/>
<g id="Strap_Galaxy-Knee_Right" style="fill: rgb(65, 64, 64);">
<path d="M71.4,161l-2.8-0.4l-0.4,2.6l2.8,0.4L71.4,161z"/>
<path d="M72.8,161.6l-1.5-0.2l-0.3,2l1.5,0.2L72.8,161.6z"/>
</g>
<path id="Knee_Galaxy-Knee_Right" d="M55,171.1l-4-11.9l4.2-4.9l12.3,1.9l2.6,5.9l-7.3,10.1L55,171.1z" style="fill: rgb(30, 30, 30);"/>
<g id="Trim_Galaxy-Knee_Right" style="fill: rgb(245, 106, 10);">
<path d="M63.7,155.7L59,155l-0.5,3.1l4.7,0.7L63.7,155.7z"/>
<path d="M70.1,162.1c-4.4,0.3-8.9,9.9-8.9,9.9l1.5,0.2L70.1,162.1z"/>
<path d="M51,159.2c4.1,1.6,5.5,12.1,5.5,12.1l-1.5-0.2L51,159.2z"/>
</g>
</g>
</g>
</g>
<g id="Thighs">
<g id="Left-Thigh">
<g id="Heavy_Thigh_Left" class="option" style="display: inherit;">
<g id="Thigh_Heavy-Thigh_Left" style="fill: rgb(30, 30, 30);">
<path d="M97,117.7l-5.7,7.3l6.6,26.2l4.5,1.6l-3.1-29.9L97,117.7"/>
<path d="M111.6,116.1l7.1,6l-1,27l-4,2.5l-3.1-29.9L111.6,116.1"/>
<path d="M111.6,116.1L97,117.7l2.2,5.2l11.4-1.2L111.6,116.1"/>
<path d="M110.6,121.7l-11.4,1.2l3.1,29.9l11.4-1.2L110.6,121.7"/>
</g>
<g id="Trim_Heavy-Thigh_Left" style="fill: rgb(245, 106, 10);">
<path d="M112.2,113.8l-16.3,1.7l1,2.1l14.7-1.5L112.2,113.8"/>
<path d="M118.5,119.6l-6.3-5.7l-0.6,2.3l7.1,6L118.5,119.6"/>
<path d="M91,122.4l5-6.9l1,2.1l-5.7,7.3L91,122.4"/>
</g>
</g>
</g>
<g id="Right-Thigh">
<g id="Heavy_Thigh_Right" class="option" style="display: inherit;">
<g id="Thigh_Heavy-Thigh_Right" style="fill: rgb(30, 30, 30);">
<path d="M71.8,117.7l5.7,7.3L71,151.2l-4.5,1.6l3.1-29.9L71.8,117.7"/>
<path d="M57.1,116.1l-7.1,6l1,27l4,2.5l3.1-29.9L57.1,116.1"/>
<path d="M57.1,116.1l14.7,1.5l-2.2,5.2l-11.4-1.2L57.1,116.1"/>
<path d="M58.2,121.7l11.4,1.2l-3.1,29.9l-11.4-1.2L58.2,121.7"/>
</g>
<g id="Trim_Heavy-Thigh_Right" style="fill: rgb(245, 106, 10);">
<path d="M56.6,113.8l16.3,1.7l-1,2.1l-14.7-1.5L56.6,113.8"/>
<path d="M50.3,119.6l6.3-5.7l0.6,2.3l-7.1,6L50.3,119.6"/>
<path d="M77.8,122.4l-5-6.9l-1,2.1l5.7,7.3L77.8,122.4"/>
</g>
</g>
</g>
</g>
<g id="Groin">
<g id="Basic_Groin" class="option" style="display: inherit;">
<path id="Groin-Plate_Basic" d="M78.1,121.8L67.7,98.9H101l-10.4,22.9l-6.2,5.5L78.1,121.8z" style="fill: rgb(0, 0, 0);"/>
<path id="Trauma-Plating_Groin" class="toggle" style="fill: rgb(30, 30, 30);" d="M79.2,119.9L70.6,101H98l-8.6,18.9l-5.1,4.5L79.2,119.9z"/>
</g>
</g>
<g id="Waist">
<g id="Accessories_Waist">
<g id="Kama" class="toggle" style="display:none"/>
<g id="Loin-Cloth" class="toggle" style="display:none"/>
<g id="Left-Holster" class="toggle" style="display:none"/>
<g id="Right-Holster" class="toggle" style="">
<g id="Belt-Holster_Right" class="option" style="display: inherit;">
<g id="Weapon_Belt-Holster-Right">
<g id="Main_Weapon_Belt-Holster-Right" style="fill: rgb(49, 48, 48);">
<path d="M52.7,98.7l0.2-3.6h-0.6l0.2-2.3h0.6l0.1-1.2c0-0.4-0.5-0.7-1.1-0.8c-1.4-0.1-3.9-0.3-5.3-0.4 c-0.6,0-1.2,0.2-1.2,0.6l-0.1,1.2h0.6l-0.2,2.3h-0.6l-0.2,3.6l1.5,0.1l-0.7,9.9l4.7,0.3l0.7-9.9L52.7,98.7z"/>
<path d="M45.8,97.7l0.8,0.1l-0.8,12l4.7,0.3l0.8-12l0.8,0.1l0.2-2.7l-6.4-0.4L45.8,97.7z"/>
<path d="M47.5,91.3l3.8,0.3l-0.2,3.7L47.3,95L47.5,91.3z"/>
<path d="M50.2,99h0.6l-0.6,9.4h-0.6L50.2,99z"/>
<path d="M48.7,96.8h0.6l-0.6,9.4h-0.6L48.7,96.8z"/>
<path d="M47,98.8h0.6l-0.6,9.4h-0.6L47,98.8z"/>
</g>
<g id="Accent_Weapon_Belt-Holster-Right" style="fill: rgb(160, 158, 158);">
<path d="M50.5,95.6V96l-2.7-0.2v-0.4L50.5,95.6z"/>
<path d="M50.4,96v0.4l-2.7-0.2v-0.4L50.4,96z"/>
<path d="M50.5,95.2v0.4l-2.7-0.2V95L50.5,95.2z"/>
<path d="M50.8,90.6V91l-2.7-0.2v-0.4L50.8,90.6z"/>
<path d="M50.7,91.6h0.6l-0.2,3.7h-0.6L50.7,91.6z"/>
<path d="M47.5,91.3h0.6L47.9,95h-0.6L47.5,91.3z"/>
<path d="M47.6,98.9l0.9,0.1l-0.6,9.4l-0.9-0.1L47.6,98.9z"/>
<path d="M49.2,99l0.9,0.1l-0.6,9.4l-0.9-0.1L49.2,99z"/>
</g>
</g>
<path id="Holster_Belt-Holster-Right" d="M51.1,112.4l2.5-15L45.4,108l-0.8,20.7c1.4,1.9,3,2.1,4.8,0.4L51.1,112.4z " style="fill: rgb(30, 30, 30);"/>
</g>
</g>
</g>
<g id="Under-Belt">
<g id="Girth-Belt" class="option" style="fill: rgb(18, 18, 18); display: inherit;">
<path d="M84.4,84.5c-9.3,0-27.8-2.2-27.8-2.2l0.6-1.9c0,0,18.1,1.5,27.2,2.2c9.1-0.8,27.2-2.2,27.2-2.2l0.6,1.9 C112.2,82.2,93.6,84.5,84.4,84.5z"/>
<path d="M84.4,86.4c-9.5,0-28.4-2.2-28.4-2.2l0.6-1.9c0,0,23.2,1.9,27.8,2.2c4.6-0.4,27.8-2.2,27.8-2.2l0.6,1.9 C112.7,84.1,93.8,86.4,84.4,86.4z"/>
<path d="M84.4,88.3c-9.6,0-28.8-2.2-28.8-2.2l0.4-1.9c0,0,23.7,1.9,28.4,2.2c4.7-0.4,28.4-2.2,28.4-2.2l0.4,1.9 C113.2,86.1,94,88.3,84.4,88.3z"/>
<path d="M84.4,90.2c-9.7,0-29.2-2.2-29.2-2.2l0.4-1.9c0,0,24,1.9,28.8,2.2c4.8-0.4,28.8-2.2,28.8-2.2l0.4,1.9 C113.5,88,94.1,90.2,84.4,90.2z"/>
<path d="M84.4,92.1c-9.8,0-29.5-2.2-29.5-2.2l0.3-1.9c0,0,24.3,1.9,29.2,2.2c4.9-0.4,29.2-2.2,29.2-2.2l0.3,1.9 C113.9,89.9,94.2,92.1,84.4,92.1z"/>
<path d="M84.4,94c-9.9,0-29.8-2.2-29.8-2.2l0.3-1.9c0,0,24.6,1.9,29.5,2.2c4.9-0.4,29.5-2.2,29.5-2.2l0.3,1.9 C114.2,91.8,94.3,94,84.4,94z"/>
<path d="M84.4,95.9c-10,0-30.1-2.2-30.1-2.2l0.3-1.9c0,0,24.8,1.9,29.8,2.2c5-0.4,29.8-2.2,29.8-2.2l0.3,1.9 C114.5,93.7,94.4,95.9,84.4,95.9z"/>
<path d="M84.4,97.8c-10.1,0-30.4-2.2-30.4-2.2l0.3-1.9c0,0,25.1,1.9,30.1,2.2c5-0.4,30.1-2.2,30.1-2.2l0.3,1.9 C114.8,95.6,94.5,97.8,84.4,97.8z"/>
<path d="M84.4,99.7c-10.3,0-30.8-2.2-30.8-2.2l0.3-1.9c0,0,25.4,1.9,30.4,2.2c5.1-0.4,30.4-2.2,30.4-2.2l0.3,1.9 C115.1,97.5,94.6,99.7,84.4,99.7z"/>
<path d="M84.4,101.6c-10.4,0-31.2-2.2-31.2-2.2l0.4-1.9c0,0,25.6,1.9,30.8,2.2c5.1-0.4,30.8-2.2,30.8-2.2l0.4,1.9 C115.5,99.4,94.8,101.6,84.4,101.6z"/>
</g>
</g>
<g id="Belt">
<g id="Pouch-Belt-4" class="option" style="display: inherit;">
<path id="Main_Pouch-Belt-4" d="M114.5,92.5c-6.8,0.6-22.3,2.8-30.1,2.8c-7.9,0-23.4-2.2-30.1-2.8l1-7.9 c5.5,0.5,21.4,2.7,29.1,2.7c7.4,0,23-2.2,28.9-2.8L114.5,92.5z" style="fill: rgb(18, 18, 18);"/>
<rect id="Buckle_Pouch-Belt-4" x="78.8" y="86.6" width="11.2" height="9.2" style="fill: rgb(122, 122, 122);"/>
<g id="Pouches_Pouch-Belt-4" style="fill: rgb(64, 64, 64);">
<g>
<g>
<path d="M59.3,83c-0.3,0-0.6,0-0.9,0.2c-0.7,0.3-1.8,0.8-1.8,0.8l7.3,0.4l2-0.9C65.8,83.5,60.8,83.1,59.3,83z"/>
<path d="M66.1,83.8c0-0.1,0-0.2-0.1-0.2c-0.1-0.1-0.2-0.1-0.2,0c-0.7,0.3-1.9,0.9-1.9,0.9l-1,12.4 c0.6-0.4,1.3-0.7,1.9-0.8c0.4-0.1,0.7-0.4,0.7-0.8C65.6,91.3,65.7,87.5,66.1,83.8z"/>
<path d="M63.8,84.4L56.5,84c-0.1,1.9-0.2,3.8-0.3,5.7c-0.1,2.1-0.2,4.2-0.3,6.3c0,0.2,0,0.3,0.1,0.4 s0.2,0.2,0.4,0.2c2.1,0,4.1,0.1,6.2,0.4c0.1,0,0.3,0,0.4-0.1s0.2-0.2,0.2-0.4c0.1-1.5,0.4-5.3,0.4-5.3L63.8,84.4z"/>
<path d="M63.8,84.4L56.5,84c0,0-0.2,1.6-0.4,3.2c-0.1,0.8,0.1,1.5,0.6,2.1c0.5,0.6,1.2,0.9,1.9,1 c0.7,0,1.5,0.1,2.2,0.1c0.8,0,1.5-0.2,2-0.7s0.9-1.2,0.9-2C63.8,86,63.8,84.4,63.8,84.4z"/>
<path d="M59.9,88.8c0.3,0,0.5,0.3,0.4,0.5c0,0.3-0.2,0.5-0.5,0.5s-0.5-0.3-0.4-0.5C59.4,89,59.6,88.8,59.9,88.8z"/>
</g>
</g>
<g>
<path d="M51.9,83.9l0.5-0.9l2.8,0.1l0.3,1.1L51.9,83.9z"/>
<path d="M55.6,84.3c0-0.1,0-0.1-0.1-0.2c0-0.1-0.1-0.1-0.2-0.1c-0.8,0-3.5-0.1-3.5-0.1l-0.5,11.2 c0.1,0.3,1.5,0.5,2.7,0.5c0.5,0,0.9-0.4,0.9-0.9C55,91.2,55.2,87.7,55.6,84.3z"/>
</g>
<g>
<g>
<path d="M109.5,83c0.3,0,0.6,0,0.9,0.2c0.7,0.3,1.8,0.8,1.8,0.8l-7.3,0.4l-2-0.9C103,83.5,107.9,83.1,109.5,83z"/>
<path d="M102.7,83.8c0-0.1,0-0.2,0.1-0.2c0.1,0,0.2-0.1,0.2,0c0.7,0.3,1.9,0.9,1.9,0.9l1,12.4 c-0.6-0.4-1.3-0.7-1.9-0.8c-0.4-0.1-0.7-0.4-0.7-0.8C103.2,91.3,103.1,87.5,102.7,83.8z"/>
<path d="M104.9,84.4l7.3-0.4c0.1,1.9,0.2,3.8,0.3,5.7c0.1,2.1,0.2,4.2,0.3,6.3c0,0.2,0,0.3-0.1,0.4 c-0.1,0.1-0.2,0.2-0.4,0.2c-2.1,0-4.1,0.1-6.2,0.4c-0.1,0-0.3,0-0.4-0.1c-0.1-0.1-0.2-0.2-0.2-0.4c-0.1-1.5-0.4-5.3-0.4-5.3 L104.9,84.4z"/>
<path d="M104.9,84.4l7.3-0.4c0,0,0.2,1.6,0.4,3.2c0.1,0.8-0.1,1.5-0.6,2.1c-0.5,0.6-1.2,0.9-1.9,1 c-0.7,0-1.5,0.1-2.2,0.1c-0.8,0-1.5-0.2-2-0.7s-0.9-1.2-0.9-2C104.9,86,104.9,84.4,104.9,84.4z"/>
<path d="M108.9,88.8c-0.3,0-0.5,0.3-0.4,0.5c0,0.3,0.2,0.5,0.5,0.5s0.5-0.3,0.4-0.5 C109.3,89,109.1,88.8,108.9,88.8z"/>
</g>
</g>
<g>
<path d="M116.9,83.9l-0.5-0.9l-2.8,0.1l-0.3,1.1L116.9,83.9z"/>
<path d="M113.2,84.3c0-0.1,0-0.1,0.1-0.2c0-0.1,0.1-0.1,0.2-0.1c0.8,0,3.5-0.1,3.5-0.1l0.5,11.2 c-0.1,0.3-1.5,0.5-2.7,0.5c-0.5,0-0.9-0.4-0.9-0.9C113.7,91.2,113.6,87.7,113.2,84.3z"/>
</g>
</g>
</g>
</g>
</g>
<g id="Extras_Front">
<g id="Front">
<g id="None_Front" class="option" style="display: inherit;">
</g>
</g>
</g>
</svg></svg>