<?xml version='1.0' encoding='UTF-8'?><svg version='1.1' xmlns='http://www.w3.org/2000/svg'><metadata><rdf:rdf xmlns:rdf="http://www.w3.org/1999/02/22-rdf-syntax-ns#" xmlns:rdfs="http://www.w3.org/2000/01/rdf-schema#" xmlns:dc="http://purl.org/dc/elements/1.1/"> <rdf:description> <dc:creator>MandoCreator</dc:creator> <dc:publisher>https://www.mandocreator.com</dc:publisher> <dc:description>Your Beskar'gam - created by MandoCreator</dc:description> <dc:format>image/svg+xml</dc:format> <dc:type>Image</dc:type> <dc:title>MandoCreator - Ner Berskar'gam</dc:title> <dc:date>2021-10-08T16:39:19.007Z</dc:date> </rdf:description> </rdf:rdf></metadata><svg version="1.1" id="Male" xmlns="http://www.w3.org/2000/svg" xmlns:xlink="http://www.w3.org/1999/xlink" x="0px" y="0px" viewBox="0 -55 169 300" style="fill: white; fill-rule: evenodd; stroke: black; stroke-width: 0.2px; pointer-events: none; position: relative; height: 100%;">
<g id="Extras_Back">
<g id="Back"><g id="NO-CAPES_Back" class="option" style="display: inherit;">
</g>
</g>
</g>
<g id="Suit">
<g id="Neck-Seal">
<path id="Plain-Neck-Seal" class="option" d="M97,6.1l2.9,6.8l-0.2,6.8l-15.3,1.6l-15.2-1.6L69,12.9l2.9-6.8l12.6,0.7L97,6.1" style="fill: rgb(96, 61, 32); display: inherit;"/>
</g>
<g id="Flight-Suit" style="fill: rgb(210, 164, 125);">
<path d="M72.8,158.4l-1.5,8.7l-11,53.1c0,0-4.9,3-7.4,3.5s-7.7-0.4-7.7-0.4l3.8-43l2.9-18.4l0.7-7.8 c0,0-2.5-22.8-1.7-34.1c0.8-11.4,6.6-34,6.6-34l26.8,0.6l26.8-0.6c0,0,5.8,22.6,6.6,34c0.8,11.4-1.7,34.1-1.7,34.1l0.7,7.8 l2.9,18.4l3.8,43c0,0-5.3,1.2-7.8,0.7s-7.3-3.7-7.3-3.7l-11-53.1l-1.5-8.7l-11.6-30.3L72.8,158.4z"/>
<g>
<path d="M128.5,43.3l11.9,41.6l1,21.5l-9.5,1.8l-6-20.2l-13.6-33.9l0.7-15.5l2.3-3.7L128.5,43.3z"/>
<path d="M40.3,43.3l13.1-8.4l2.3,3.7l0.5,16L42.8,88l-6,20.2l-9.5-1.8l1-21.5L40.3,43.3z"/>
</g>
</g>
<g id="Sleeves" class="toggle" style="fill: rgb(96, 61, 32);">
<g>
<path d="M111.4,56.1l2.7,5.9c0,0,4.2-3.2,7-4.8c2.8-1.6,4.3-2.6,6.9-3.6c2.5-1,5-1.5,5-1.5l-6-12.2l-5.8-9.7 l-11.5,5.1L111.4,56.1z"/>
<path d="M112.8,59.2c-0.2-0.2,5-4.5,8.6-6.3c3.5-1.8,10.2-3.7,10.2-3.7"/>
</g>
<g>
<path d="M57.3,56.1L54.6,62c0,0-4.2-3.2-7-4.8c-2.8-1.6-4.4-2.6-6.9-3.6s-5-1.5-5-1.5l6-12.2l5.8-9.7L59,35.4 L57.3,56.1z"/>
<path d="M55.9,59.2c0.2-0.2-5-4.5-8.6-6.3c-3.5-1.8-10.2-3.7-10.2-3.7"/>
</g>
</g>
</g>
<g id="Boots">
<g id="Gunslinger_Boots" class="option" style="display: inherit;">
<g id="Main_Gunslinger-Boot" style="fill: rgb(0, 0, 0);">
<path d="M106.9,226.5c0,0.2,0.7,3.4,4.2,4.3c1.2,0.3,3.2-0.3,4.5-1c1.7-0.9,3.5-1.6,5.4-2.1l0.2,0.2 c0.6,0.8,1.2,1.6,1.9,2.3l0.3,0.3c0.4,0.4,0.8,0.7,1.2,1.1l0.3,0.3c0.1,0,0.1,0.1,0.2,0.1c0.9,0.6,2,1.6,3.2,1.4 c1.1-0.2,2.3-0.6,3.3-1c0.8-0.4,1.6-0.9,2.1-1.4c0.2-0.1,0.3-0.3,0.4-0.4c2.5,1,5.3,1.4,6.7,4.2c0.3,0.6,0.5,1.4,0.5,2 c-0.1,0.9-1,1-1.8,1.2c-1.9,0.5-3.5,0.9-5.7,1.3c-2.5,0.5-4.7,0.8-7.2,0.7c-1.9-0.1-3.5-0.2-5.1-1.2c-0.7-0.4-1.3-0.8-1.9-1.4 c-1.3-1.2-2.1-2.4-3.7-3.1c-1.2-0.5-2.4-1-3.7-1.3c-1.8-0.4-3.7-0.8-4.7-2.5C106.7,229.1,106.7,227.8,106.9,226.5"/>
<path d="M61.8,226.5c0,0.2-0.7,3.4-4.2,4.3c-1.2,0.3-3.2-0.3-4.5-1c-1.7-0.9-3.5-1.6-5.4-2.1l-0.2,0.2 c-0.6,0.8-1.2,1.6-1.9,2.3l-0.3,0.3c-0.4,0.4-0.8,0.7-1.2,1.1l-0.3,0.3c-0.1,0-0.1,0.1-0.2,0.1c-0.9,0.6-2,1.6-3.2,1.4 c-1.1-0.2-2.3-0.6-3.3-1c-0.8-0.4-1.6-0.9-2.1-1.4c-0.2-0.1-0.3-0.3-0.4-0.4c-2.5,1-5.3,1.4-6.7,4.2c-0.3,0.6-0.5,1.4-0.5,2 c0.1,0.9,1.1,1,1.8,1.2c1.9,0.5,3.5,0.9,5.7,1.3c2.5,0.5,4.7,0.8,7.2,0.7c1.9-0.1,3.5-0.2,5.1-1.2c0.7-0.4,1.3-0.8,1.9-1.4 c1.3-1.2,2.1-2.4,3.7-3.1c1.2-0.5,2.4-1,3.7-1.3c1.8-0.4,3.7-0.8,4.7-2.5C62.1,229.1,62,227.8,61.8,226.5"/>
</g>
<g id="Bottom_Gunslinger-Boot" style="fill: rgb(0, 0, 0);">
<path d="M106.9,229c0.1,0.5,0.2,1,0.5,1.5c0.9,1.8,2.9,2.1,4.7,2.5c1.3,0.3,2.5,0.8,3.7,1.3c1.6,0.7,2.5,2,3.7,3.1 c0.6,0.5,1.2,0.9,1.9,1.4c1.6,1,3.2,1.1,5.1,1.2c2.5,0.1,4.8-0.2,7.2-0.7c2.2-0.5,3.8-0.8,5.7-1.3c0.6-0.2,1.3-0.3,1.7-0.8 l0.4,0.8l0.2,1.6c0,0-2,1.1-4.2,1.6s-6.5,1.2-6.5,1.2l-0.3-0.7l-1,0.2v0.7l-2.4,0.1l-0.5-0.7H126l0.1,0.6c0,0-1.5,0-2.3-0.5 c-0.2-0.2-0.5-0.6-0.5-0.6l-0.6-0.3l0.1,0.6l-2-0.7l-0.1-0.8l-0.6-0.3v0.6l-1.4-1.1l-0.2-0.7l-3.6-2.5l-0.6,1.3l-2.5-0.6 l-0.1-0.5l-0.6-0.3l-0.4,0.4l-1.7-0.7v-0.5l-0.6-0.2l-0.1,0.4l-1.6-1.1l-0.3-2.2l-0.1-2.4L106.9,229"/>
<path d="M61.9,229c-0.1,0.5-0.2,1-0.5,1.5c-0.9,1.8-2.9,2.1-4.7,2.5c-1.3,0.3-2.5,0.8-3.7,1.3 c-1.7,0.7-2.5,2-3.7,3.1c-0.6,0.5-1.2,0.9-1.9,1.4c-1.6,1-3.2,1.1-5.1,1.2c-2.5,0.1-4.8-0.2-7.2-0.7c-2.2-0.5-3.8-0.8-5.7-1.3 c-0.6-0.2-1.4-0.3-1.7-0.8l-0.4,0.8l-0.2,1.6c0,0,2,1.1,4.2,1.6c2.1,0.5,6.5,1.2,6.5,1.2l0.3-0.7l1,0.2v0.7l2.4,0.1L42,242h0.8 l-0.1,0.6c0,0,1.5,0,2.3-0.5c0.2-0.2,0.5-0.6,0.5-0.6l0.6-0.3l-0.1,0.6l2-0.7l0.1-0.8l0.6-0.3v0.6l1.4-1.1l0.2-0.7l3.6-2.5 l0.6,1.3L57,237l0.1-0.5l0.6-0.3l0.4,0.4l1.7-0.7v-0.5l0.6-0.2l0.1,0.4l1.6-1.1l0.3-2.2l0.1-2.4L61.9,229"/>
</g>
<g id="Top_Gunslinger-Boot" style="fill: rgb(118, 14, 14);">
<path d="M121,227.7c-2.2-3.1-3.6-6.9-4.1-10.3l0.6-0.1h0.7c0.4,0,0.7-0.1,1-0.1l0.5-0.1h0.2l0.4-0.1l0.3-0.1h0.1 c1.1-0.3,2.3-0.6,2.3-0.6c0.3,1.5,0.5,3.2,1.1,4.6c1,2.2,2.8,3.8,4.4,5.5c1.1,1.1,2.3,2.4,3.6,3.3c0.6,0.4,1.2,0.7,1.8,0.9 c-0.5,0.7-1.5,1.4-2.5,1.8c-0.9,0.4-2.2,0.9-3.3,1c-1.2,0.2-2.3-0.8-3.2-1.4C123.5,230.8,122.2,229.4,121,227.7"/>
<path d="M47.7,227.7c2.2-3.1,3.6-6.9,4.1-10.3l-0.6-0.1h-0.7c-0.4,0-0.7-0.1-1-0.1l-0.5-0.1h-0.2l-0.4-0.1l-0.3-0.1 H48c-1.1-0.3-2.3-0.6-2.3-0.6c-0.3,1.5-0.5,3.2-1.1,4.6c-1,2.2-2.8,3.8-4.4,5.5c-1.1,1.1-2.3,2.4-3.6,3.3 c-0.6,0.4-1.2,0.7-1.8,0.9c0.5,0.7,1.5,1.4,2.5,1.8c0.9,0.4,2.2,0.9,3.3,1c1.2,0.2,2.3-0.8,3.2-1.4 C45.2,230.8,46.5,229.4,47.7,227.7"/>
</g>
<g id="Side_Gunslinger-Boot" style="fill: rgb(118, 14, 14);">
<path d="M121,227.7c-1.9,0.5-3.7,1.2-5.4,2.1c-1.3,0.6-3.3,1.3-4.5,1c-3.6-0.9-4.2-4.3-4.2-4.3 c0.1-0.7,0.3-1.5,0.3-2.3c0.1-1.5-0.1-8.2,0-8.1c2.9,1.6,8.1,1.5,9.6,1.3C117.4,220.8,118.9,224.6,121,227.7"/>
<path d="M47.7,227.7c1.9,0.5,3.7,1.2,5.4,2.1c1.3,0.6,3.3,1.3,4.5,1c3.6-0.9,4.2-4.3,4.2-4.3 c-0.1-0.7-0.3-1.5-0.3-2.3c-0.1-1.5,0.1-8.2,0-8.1c-2.9,1.6-8.1,1.5-9.6,1.3C51.3,220.8,49.9,224.6,47.7,227.7"/>
</g>
</g>
</g>
<g id="Gloves">
<g id="Left-Glove">
<g id="Fingerless_Left_Glove" class="option" style="display: inherit;">
<g id="Fingers_Fingerless_Left_Glove" style="fill: rgb(118, 14, 14);">
<path d="M137.6,124.1c-0.5,0-1,0-1.6,0.1c-0.4,0.1-0.7,0.2-1,0.3c-1,0.6-0.7,1.8,0.2,2.3c1,0.6,2.6,0,3.1-1.1 C138.5,125.3,137.9,124.5,137.6,124.1"/>
<path d="M135.8,125.2c-0.5,0-1,0-1.6,0.1c-0.4,0.1-0.7,0.2-1,0.3c-1,0.6-0.7,1.8,0.2,2.3c1,0.5,2.6,0,3.1-1.1 C136.7,126.4,136.1,125.6,135.8,125.2"/>
<path d="M134.6,126.6c-0.5,0-1.2,0.2-1.7,0.3c-0.3,0.1-0.7,0.3-1,0.5c-0.9,0.7-0.5,1.9,0.5,2.2 c1.1,0.4,2.6-0.3,2.9-1.5C135.4,127.7,134.6,126.6,134.6,126.6z"/>
<path d="M129,119.8c-0.3,1.3-0.5,2.1-0.5,2.1s-1.4,2.8-1.1,3.4c0.2,0.6,1.4,1.2,2.1,0.9c0.9-0.4,1.9-2.4,2.6-3.8 c0.2-0.5,0.5-1.1,0.7-1.6C130,121.2,129,119.8,129,119.8z"/>
<path d="M134.7,126.4c-0.2,0.3-0.4,0.7-0.7,1.1c-1.4,2-3.4,3.8-2.1,5.4c1.3,1.5,4.2-2.4,4.2-2.4l1.4-1.8 C135.3,128.2,134.7,126.4,134.7,126.4z"/>
</g>
<path id="Glove_Fingerless_Left_Glove" d="M137.5,128.7l1.5-2c0,0,3.3-5.4,3.4-6.5c0.1-0.8,0-3.5,0-3.5l-1-10.4 l-5.2,0.4l-4.3,1.4l-0.3,1.8c0,0-1.6,2.1-2,3.7c-0.3,1.1-0.1,3.7-0.5,5.4c0,0.2-0.1,0.4-0.1,0.6c0,0,1,1.4,3.7,1 c0.3-1,0.6-1.8,0.6-1.8s0.9,0.3,1.4,0.7c1.6,1.2,0.9,5,0.9,5s-0.4,0.7-1,1.7C134.7,126.4,135.3,128.2,137.5,128.7z" style="fill: rgb(0, 0, 0);"/>
</g>
</g>
<g id="Right-Glove">
<g id="Fingerless_Right_Glove" class="option" style="display: inherit;">
<g id="Fingers_Fingerless_Right_Glove" style="fill: rgb(118, 14, 14);">
<path d="M31.1,124.1c0.5,0,1,0,1.6,0.1c0.4,0.1,0.7,0.2,1,0.3c1,0.6,0.7,1.8-0.2,2.3c-1,0.6-2.6,0-3.1-1.1 C30.3,125.3,30.9,124.5,31.1,124.1"/>
<path d="M32.9,125.2c0.5,0,1,0,1.6,0.1c0.4,0.1,0.7,0.2,1,0.3c1,0.6,0.7,1.8-0.2,2.3c-1,0.5-2.6,0-3.1-1.1 C32.1,126.4,32.7,125.6,32.9,125.2"/>
<path d="M34.2,126.6c0.5,0,1.2,0.2,1.7,0.3c0.3,0.1,0.7,0.3,1,0.5c0.9,0.7,0.5,1.9-0.5,2.2 c-1.1,0.4-2.6-0.3-2.9-1.5C33.3,127.7,34.2,126.6,34.2,126.6z"/>
<path d="M39.7,119.8c0.3,1.3,0.5,2.1,0.5,2.1s1.4,2.8,1.1,3.4c-0.2,0.6-1.4,1.2-2.1,0.9c-0.9-0.4-1.9-2.4-2.6-3.8 c-0.2-0.5-0.5-1.1-0.7-1.6C38.7,121.2,39.7,119.8,39.7,119.8z"/>
<path d="M34.1,126.4c0.2,0.3,0.4,0.7,0.7,1.1c1.4,2,3.4,3.8,2.1,5.4c-1.3,1.5-4.2-2.4-4.2-2.4l-1.4-1.8 C33.5,128.2,34.1,126.4,34.1,126.4z"/>
</g>
<path id="Glove_Fingerless_Right_Glove" d="M31.3,128.7l-1.5-2c0,0-3.3-5.4-3.4-6.5c-0.1-0.8,0-3.5,0-3.5l1-10.4 l5.2,0.4l4.3,1.4l0.3,1.8c0,0,1.5,2.1,2,3.7c0.3,1.1,0.1,3.7,0.5,5.4c0,0.2,0.1,0.4,0.1,0.6c0,0-1,1.4-3.7,1 c-0.3-1-0.6-1.8-0.6-1.8s-0.9,0.3-1.4,0.7c-1.6,1.2-0.9,5-0.9,5s0.4,0.7,1,1.7C34.1,126.4,33.5,128.2,31.3,128.7z" style="fill: rgb(0, 0, 0);"/>
</g>
</g>
</g>
<g id="Biceps">
<g id="Left-Biceps">
<g id="None_Biceps_Left" class="option" style="display: inherit;">
</g>
</g>
<g id="Right-Biceps">
<g id="None_Biceps_Right" class="option" style="display: inherit;">
</g>
</g>
</g>
<g id="Vest" style="fill: rgb(96, 61, 32);">
<path d="M84.4,20.9c8.4,0,15.3-4.3,15.5-8h0.1l18.3,5.4l13.2,23.9l-2.8,1.2l-13.3-8.6l-2.3,3.7l-1.5,47.4 c0,0-8.7,4.7-13.4,5.3c-3.4,0.5-8.6,0.7-13.7,0.7s-10.3-0.2-13.7-0.7c-4.8-0.6-13.4-5.3-13.4-5.3l-1.5-47.4l-2.3-3.7l-13.3,8.6 l-2.8-1.2l13.2-23.9L69,12.9h0.1C69,16.6,75.9,20.9,84.4,20.9"/>
</g>
<g class="swappable" id="Chest">
<g id="Chest_Heavy" style="visibility: visible;">
<g id="Abdomen_Heavy">
<g id="Under-Plates_Abdomen_Heavy" style="fill: rgb(96, 61, 32);">
<path d="M73.4,72.4v-2.8h22.1v2.8H73.4"/>
<path d="M73.4,75.2v-2.8h22.1v2.8H73.4"/>
<path d="M73.4,78.1v-2.9h22.1V78L73.4,78.1"/>
<path d="M73.4,80.9v-2.8h22.1v2.8H73.4"/>
<path d="M73.4,83.7v-2.8h22.1v2.8H73.4"/>
</g>
<g id="Abdomen-Plate_Heavy" style="fill: rgb(85, 82, 77);">
<path d="M77.7,60.4l-11,4.7l-1-2.5l12.1-5.1L77.7,60.4"/>
<path d="M70.5,74.5l-3.9-9.4l11-4.7l3.5,9.9L70.5,74.5"/>
<path d="M65.6,62.6L61,63.4l6.8,16.3l4.7-0.9L65.6,62.6"/>
<path d="M91.3,60.4l11,4.7l1-2.5l-12.1-5.1L91.3,60.4"/>
<path d="M98.4,74.5l3.9-9.4l-11-4.7l-3.5,9.9L98.4,74.5"/>
<path d="M103.3,62.6l4.6,0.8l-6.8,16.3l-4.7-0.9L103.3,62.6"/>
<path d="M77.7,60.4v-3h13.5v3H77.7"/>
<path d="M81.1,70.3l-3.5-9.9h13.6l-3.5,9.9H81.1"/>
</g>
</g>
<g id="Neck-Armor_Heavy">
<g id="Neck-Plate_Heavy" style="fill: rgb(85, 82, 77);">
<path d="M69.3,11.2l-9.6,2.1c0,0,1.1,4.3,1.7,6.8c0.2,0.9,1.1,1.4,2,1.2c1.7-0.4,4.5-1,6.3-1.4 c0.4-0.1,0.8-0.4,1.1-0.8c0.2-0.4,0.3-0.9,0.2-1.3C70.3,15.4,69.3,11.2,69.3,11.2"/>
<path d="M99.7,11.2l9.6,2.1c0,0-1.1,4.3-1.7,6.8c-0.2,0.9-1.1,1.4-2,1.2c-1.7-0.4-4.5-1-6.3-1.4 c-0.4-0.1-0.8-0.4-1.1-0.8c-0.2-0.4-0.3-0.9-0.2-1.3C98.6,15.4,99.7,11.2,99.7,11.2"/>
</g>
<g id="Secondary_Neck-Plate_Heavy" style="fill: rgb(118, 114, 107);">
<path d="M66.9,11.4l-4.8,1.1c0,0,0.7,2.9,1.1,4.3c0.1,0.4,0.5,0.7,1,0.6c0.9-0.2,2.3-0.5,3.2-0.7 c0.2,0,0.4-0.2,0.5-0.4c0.1-0.2,0.2-0.4,0.1-0.6C67.6,14.2,66.9,11.4,66.9,11.4"/>
<path d="M102.1,11.4l4.8,1.1c0,0-0.7,2.9-1.1,4.3c-0.1,0.4-0.5,0.7-1,0.6c-0.9-0.2-2.3-0.5-3.2-0.7 c-0.2,0-0.4-0.2-0.5-0.4c-0.1-0.2-0.2-0.4-0.1-0.6C101.3,14.2,102.1,11.4,102.1,11.4"/>
</g>
</g>
<g id="Full-Chest_Heavy">
<path id="Under-Plate_Chest_Heavy" d="M89.9,54.1H79l-2.7,2.4v1.6l1.4-0.6h13.5l1.4,0.6v-1.6L89.9,54.1" style="fill: rgb(118, 114, 107);"/>
<g id="Chest-Plate_Heavy" style="fill: rgb(85, 82, 77);">
<path d="M65.4,61.2l9.7-5.6l1.3-2.7l2.6,0.3h11l2.6-0.3l1.3,2.7l9.7,5.6l4.5,1l-0.1,1.7l-4.8-0.8l-10.5-4.4v-2.2 L90,54.1H79l-2.7,2.4v2.2l-10.5,4.4L61,63.9l-0.1-1.7L65.4,61.2"/>
<path d="M108.1,62.2l5.6-14.4l0.8,2.9l-1.8,10.7L108.1,62.2"/>
<path d="M54.4,50.8l0.8-2.9l5.6,14.4l-4.7-0.7L54.4,50.8"/>
<path d="M60.7,42.2v-6l-0.5-10.8l2.8-3.1l8.5-1.8l2.2,2.6h21.6l2.2-2.6l8.5,1.8l2.8,3.1l-0.4,10.5v6.3L92.7,52.9 l-2.6,0.3h-11l-2.6-0.3L60.7,42.2"/>
<path d="M108.2,36.2v6l5.5,5.6L108.2,36.2"/>
<path d="M76.4,53L60.7,42.2l-5.5,5.6l5.6,14.4l4.5-1l9.7-5.6L76.4,53"/>
<path d="M113.7,47.8l-5.6,14.4l-4.5-1l-9.7-5.6l-1.3-2.7l15.7-10.7L113.7,47.8"/>
<path d="M112.7,61.5l-0.2,1.1l-4.6,1.2l0.1-1.7L112.7,61.5"/>
<path d="M60.7,36.2v6l-5.5,5.6L60.7,36.2"/>
<path d="M60.3,25.4C60.2,30.9,59.6,36.5,58,42l2.7-5.8L60.3,25.4"/>
<path d="M108.7,25.4c0.1,5.5,0.7,11.1,2.3,16.6l-2.7-5.8L108.7,25.4"/>
<path d="M60.9,62.2l0.1,1.7l-4.6-1.2l-0.2-1.1L60.9,62.2"/>
</g>
<g id="Accents_Chest-Plate_Heavy" class="toggle" style="display: none;"/>
</g>
<g id="Iron-Heart_Heavy">
<path id="Heart_Heavy" d="M84.5,31.1l3.2,3V40l-3.2,3l-3.2-3v-5.9L84.5,31.1" style="fill: rgb(118, 14, 14);"/>
<g id="Center_Heart_Heavy" class="option" style="fill: rgb(85, 82, 77); display: inherit;">
<rect x="83.3" y="34.1" width="2.3" height="2.8"/>
<rect x="83.3" y="37" width="0.4" height="2.8"/>
<rect x="84.9" y="37" width="0.4" height="2.8"/>
<rect x="85.2" y="37" width="0.4" height="2.8"/>
<rect x="84.1" y="37" width="0.4" height="2.8"/>
<rect x="84.5" y="37" width="0.4" height="2.8"/>
<rect x="83.7" y="37" width="0.4" height="2.8"/>
</g>
</g>
</g>
</g>
<g id="Chest-Attachments">
<g id="No-Device_Accessories_Chest" class="option" style="display: inherit;">
</g>
</g>
<g id="Collar">
<g id="None_Collar" class="option" style="display: inherit;">
</g>
</g>
<svg version="1.1" id="Helmets" xmlns="http://www.w3.org/2000/svg" y="-54px" height="85px" viewBox="0 0 80 80" class="swappable">
<g id="Helmet_Heavy" style="visibility: visible;">
<g id="Left-Earcap_Heavy" class="toggle">
<g id="Ear-Cap_Left_Heavy" style="fill: rgb(85, 82, 77);">
<path d="M55,25c1.7,2.2,2.8,4.9,3.3,7.7h3.6L61.3,25H55z"/>
<path d="M61.3,25l1.8,1l0.3,5.5l-1.7,1.1L61.3,25z"/>
<path d="M60,32.7l0.3,9.2L61,43l-0.3-10.3H60z"/>
<path d="M61,42.1l0.5-0.7l-0.2-8.7h-0.5L61,42.1z"/>
<path d="M61.4,35.9l0.4-0.4V33l-0.5-0.4L61.4,35.9z"/>
<path d="M59,49.1h1.6V43H61l-0.7-1.1L60,32.7h-1.8c0.2,0.9,0.2,1.9,0.2,2.9L59,49.1z"/>
<rect x="58.6" y="39.1" width="1.4" height="0.2"/>
<rect x="58.6" y="37.3" width="1.4" height="0.2"/>
<rect x="58.5" y="36.7" width="1.4" height="0.2"/>
<rect x="58.5" y="36.1" width="1.4" height="0.2"/>
<rect x="58.5" y="35.5" width="1.4" height="0.2"/>
<rect x="58.5" y="34.9" width="1.4" height="0.2"/>
</g>
</g>
<g id="Right-Earcap_Heavy" class="toggle">
<g id="Ear-Cap_Right_Heavy" style="fill: rgb(85, 82, 77);">
<path d="M25,25c-1.7,2.2-2.8,4.9-3.3,7.7h-3.6l0.5-7.7H25z"/>
<path d="M18.7,25l-1.8,1l-0.3,5.5l1.7,1.1L18.7,25z"/>
<path d="M19.9,32.7l-0.3,9.2L18.9,43l0.3-10.3H19.9z"/>
<path d="M19,42.1l-0.5-0.7l0.2-8.7h0.5L19,42.1z"/>
<path d="M18.6,35.9l-0.4-0.4V33l0.5-0.4L18.6,35.9z"/>
<path d="M21,49.1h-1.6V43h-0.5l0.7-1.1l0.3-9.2h1.8c-0.2,0.9-0.2,1.9-0.2,2.9L21,49.1z"/>
<rect x="19.9" y="39.1" width="1.4" height="0.2"/>
<rect x="19.9" y="37.3" width="1.4" height="0.2"/>
<rect x="20" y="36.7" width="1.4" height="0.2"/>
<rect x="20" y="36.1" width="1.4" height="0.2"/>
<rect x="20.1" y="35.5" width="1.4" height="0.2"/>
<rect x="20.1" y="34.9" width="1.4" height="0.2"/>
</g>
</g>
<g id="Helmet_Pieces_Heavy">
<g id="Face_Heavy" style="fill: rgb(118, 114, 107);">
<path d="M25.7,45c2.4,1.6,5.2,3.5,6.2,4.5c1.2,1.2,2.8,8.8,3.8,13.5l-2-0.5L24,49.9L25.7,45z"/>
<path d="M54.3,45c-2.4,1.6-5.2,3.5-6.2,4.5c-1.2,1.2-2.8,8.8-3.8,13.5l2-0.5L56,49.9L54.3,45z"/>
</g>
<g id="Cheeks_Heavy" style="fill: rgb(85, 82, 77);">
<path d="M25.7,45l-1.8,4.8L21,52.1l1.3-9.3L25.7,45z"/>
<g>
<path d="M54.3,45l1.8,4.8l2.9,2.3l-1.3-9.3L54.3,45z"/>
<path d="M59.1,52.1l-9.9,14.3l-2.8-4l9.7-12.6L59.1,52.1z"/>
<path d="M46.4,62.4l-2,0.5l-0.7,3.8l5.5-0.3L46.4,62.4z"/>
</g>
<path d="M20.9,52.1l9.9,14.3l2.8-4l-9.7-12.6L20.9,52.1z"/>
<path d="M33.6,62.4l2,0.5l0.7,3.8l-5.5-0.3L33.6,62.4z"/>
</g>
<path id="Visor_Heavy" d="M42.2,63.4l1.4,3.4h-7.2l1.4-3.4l-1.3-16.7l0.3-3.5c0,0-4.8-0.9-6.6-1.4 c-1.8-0.5-6.2-2-6.2-2v-1.4l16,0.7l16.1-0.7v1.4c0,0-4.4,1.5-6.2,2c-1.8,0.5-6.6,1.4-6.6,1.4l0.3,3.5L42.2,63.4z" style="fill: rgb(118, 14, 14);"/>
<g id="Eyes_Heavy" style="fill: rgb(85, 82, 77);">
<path d="M58.5,35.6l0.6,16.5l-1.3-9.3c0,0-7.9,5-9.6,6.7s-4.5,17.3-4.5,17.3l-1.4-3.4l1.3-16.7c0,0,6.1-2.6,7.4-3.3 c1.4-0.8,6.2-3.5,6.2-3.5l-0.1-1.5L40,39.1l-17.1-0.8l-0.1,1.5c0,0,4.8,2.7,6.2,3.5s7.4,3.3,7.4,3.3l1.3,16.7l-1.4,3.4 c0,0-2.8-15.5-4.5-17.3c-1.7-1.7-9.6-6.7-9.6-6.7L20.9,52l0.6-16.5L58.5,35.6L58.5,35.6z"/>
<path d="M22.9,39.8l1-0.1c0,0,4.4,1.5,6.2,2c1.8,0.5,6.6,1.4,6.6,1.4l-0.3,3.5c0,0-6.1-2.6-7.4-3.3 S22.9,39.8,22.9,39.8z"/>
<path d="M57.1,39.8l-1-0.1c0,0-4.4,1.5-6.2,2c-1.8,0.5-6.6,1.4-6.6,1.4l0.3,3.5c0,0,6.1-2.6,7.4-3.3 S57.1,39.8,57.1,39.8z"/>
<path d="M23.9,39.8v-1.4H23l-0.1,1.5L23.9,39.8z"/>
<path d="M56.1,39.8v-1.4H57l0.1,1.5L56.1,39.8z"/>
</g>
<path id="Dome_Heavy" d="M58.5,35.6h-37c0-10,8.3-18.1,18.5-18.1C50.2,17.6,58.5,25.6,58.5,35.6z" style="fill: rgb(118, 114, 107);"/>
<rect id="Ridge_Heavy" class="toggle" x="39.4" y="17" width="1.3" height="18.6" style="fill: rgb(85, 82, 77);"/>
<g id="Accents_Heavy" class="toggle" style="fill: rgb(118, 114, 107);">
<path d="M32.2,34.1l-1-1.8h2L32.2,34.1z"/>
<path d="M35.6,34.1l-1-1.8h2L35.6,34.1z"/>
</g>
</g>
</g>
</svg>
<g id="Shoulders">
<g id="Left-Shoulder">
<g id="Heavy-Bell_Shoulder_Left" class="option" style="display: inherit;">
<path id="Bottom_Heavy-Bell_Shoulder_Left" d="M133.8,36.1l1.4,4.9c-2.7,1.8-5,2.8-6.7,3.4c-1.2,0.4-2.5,0.3-3.6-0.3 c-1.1-0.6-1.9-1.6-2.2-2.8c-0.1-0.5-0.2-0.9-0.2-0.9L133.8,36.1" style="fill: rgb(118, 114, 107);"/>
<path id="Main_Heavy-Bell_Shoulder_Left" d="M108.8,13.6c10.9-2.5,21.2,2.2,23.1,10.4c1.4,6.2,2.6,11.5,2.6,11.5 c-4.7,4.5-12.7,5.9-20.2,5.8C110.3,32.2,109.2,23.2,108.8,13.6" style="fill: rgb(174, 70, 6);"/>
<g id="Trim_Heavy-Bell_Shoulder_Left" class="toggle" style="fill: rgb(85, 82, 77);">
<path d="M123.7,39.9c0.4,1.1,0.9,2.2,1.9,2.7c1.1,0.6,2.4,0.5,3.6,0.1c1.5-0.5,3.6-1.7,5.9-3.1l0.4,1.2 c-2.7,2-5.1,3.1-6.8,3.7c-1.2,0.4-2.6,0.1-3.7-0.4c-1.1-0.6-1.9-1.6-2.2-2.8c-0.1-0.5-0.2-0.9-0.2-0.9L123.7,39.9"/>
<path d="M110.6,13.1c0.5,8.8,1.5,17.4,5.2,25.8c6.6,0.1,13.6-2.2,18.4-5.5l0.4,1.9c-5,4.8-13,6.1-20.4,6.1 c-4-9.1-5.1-18.3-5.5-27.9C108.8,13.4,110.1,13.1,110.6,13.1"/>
</g>
</g>
</g>
<g id="Right-Shoulder">
<g id="Heavy-Bell_Shoulder_Right" class="option" style="display: inherit;">
<path id="Bottom_Heavy-Bell_Shoulder_Right" d="M35.2,36.1L33.8,41c2.7,1.8,5,2.8,6.7,3.4c1.2,0.4,2.5,0.3,3.6-0.3 c1.1-0.6,1.9-1.6,2.2-2.8c0.1-0.5,0.2-0.9,0.2-0.9L35.2,36.1" style="fill: rgb(118, 114, 107);"/>
<path id="Main_Heavy-Bell_Shoulder_Right" d="M60.2,13.6C49.3,11.2,38.9,15.8,37.1,24c-1.4,6.2-2.6,11.5-2.6,11.5 c4.7,4.5,12.7,5.9,20.2,5.8C58.6,32.2,59.8,23.2,60.2,13.6" style="fill: rgb(174, 70, 6);"/>
<g id="Trim_Heavy-Bell_Shoulder_Right" class="toggle" style="fill: rgb(85, 82, 77);">
<path d="M45.3,39.9c-0.4,1.1-0.9,2.2-1.9,2.7c-1.1,0.6-2.4,0.5-3.6,0.1c-1.5-0.5-3.6-1.7-5.9-3.1l-0.4,1.2 c2.7,2,5.1,3.1,6.8,3.7c1.2,0.4,2.6,0.1,3.7-0.4c1.1-0.6,1.9-1.6,2.2-2.8c0.1-0.5,0.2-0.9,0.2-0.9L45.3,39.9"/>
<path d="M58.3,13.1c-0.5,8.8-1.5,17.4-5.2,25.8c-6.6,0.1-13.6-2.2-18.4-5.5l-0.4,1.9c5,4.8,13,6.1,20.4,6.1 c4-9.1,5.1-18.3,5.5-27.9C60.2,13.4,58.9,13.1,58.3,13.1"/>
</g>
</g>
</g>
</g>
<g id="Gauntlets">
<g id="Left-Gauntlets">
<g id="Heavy_Gauntlet_Left" class="option" style="display: inherit;">
<g id="Top-2_Heavy_Gauntlet_Left" style="fill: rgb(118, 14, 14);">
<path d="M139.8,78.9l1.7,0.1l1.4,8.1l-1.5,1.2L139.8,78.9"/>
<path d="M141.4,87.6l1.8,10.6l-0.9,1.3l1.1,6.2L143,106l-3.1-17L141.4,87.6"/>
<path d="M141.4,84.6c0.2,0,0.4,0.2,0.4,0.4s-0.2,0.4-0.4,0.4c-0.2,0-0.4-0.2-0.4-0.4S141.2,84.6,141.4,84.6"/>
</g>
<g id="Top-1_Heavy_Gauntlet_Left" style="fill: rgb(118, 114, 107);">
<path d="M138.5,107.2l4.3-1.2l-3.1-17l1.5-1.4l-1.6-9.3l-6.6-0.7L138.5,107.2"/>
<path d="M138,78.2l1.8,10.8"/>
</g>
<g id="Accent-Top_Heavy_Gauntlet_Left" style="fill: rgb(118, 14, 14);">
<path d="M141.6,103.4l-2.8,0.6l0.4,2.1l2.8-0.7L141.6,103.4"/>
<path d="M139.9,94.4l-2.8,0.6l1.6,8.4l2.8-0.6L139.9,94.4"/>
<path d="M137.4,78.8l-3.1-0.2l1.6,9.2l2.9-0.6L137.4,78.8"/>
</g>
<path id="Bottom_Heavy_Gauntlet_Left" d="M133.2,78.1c-3.4,0.1-6.8,1.6-9,4.4c-0.7,0.9-0.9,2.1-0.6,3.2 c1.6,5.3,7,22.8,7,22.8l7.9-1.4L133.2,78.1" style="fill: rgb(118, 14, 14);"/>
<g id="Accent-Bottom_Heavy_Gauntlet_Left" style="fill: rgb(85, 82, 77);">
<path d="M138.5,107.2l-7.9,1.4l-0.4-1.4l8.1-1.5L138.5,107.2"/>
<path d="M133.6,80.1c-4.3,0.4-7.9,2-9.6,6.7l-0.3-1c-0.3-0.9-0.2-1.8,0.2-2.6l0.4-0.7c2.2-2.8,5.6-4.2,9-4.4 L133.6,80.1"/>
<path d="M132.5,78.8l-3.5,0.7l2.8,13.9l3.5-0.7L132.5,78.8"/>
<path d="M132.1,79.1l-2.6,0.5l2.5,12.8l2.6-0.5L132.1,79.1"/>
<path d="M129.5,79.6l-0.5-0.2"/>
<path d="M132.5,78.8l-0.4,0.3"/>
<path d="M135.2,92.7l-0.6-0.7"/>
<path d="M131.7,93.4l0.4-0.9"/>
</g>
<g id="No-Device_Attachment_Heavy_Gauntlet_Left" class="option" style="display: inherit;">
</g>
</g>
</g>
<g id="Right-Gauntlets">
<g id="Heavy_Gauntlet_Right" class="option" style="display: inherit;">
<g id="Top-2_Heavy_Gauntlet_Right" style="fill: rgb(118, 14, 14);">
<path d="M29.3,78.9L27.6,79l-1.4,8.1l1.5,1.2L29.3,78.9"/>
<path d="M27.8,87.6L26,98.2l0.9,1.3l-1.1,6.2l0.4,0.3l3.1-17L27.8,87.6"/>
<path d="M27.7,84.6c-0.2,0-0.4,0.2-0.4,0.4s0.2,0.4,0.4,0.4c0.2,0,0.4-0.2,0.4-0.4S28,84.6,27.7,84.6"/>
</g>
<g id="Top-1_Heavy_Gauntlet_Right" style="fill: rgb(118, 114, 107);">
<path d="M30.6,107.2l-4.3-1.2l3.1-17l-1.5-1.4l1.6-9.3l6.6-0.7L30.6,107.2"/>
<path d="M31.1,78.2L29.3,89"/>
</g>
<g id="Accent-Top_Heavy_Gauntlet_Right" style="fill: rgb(118, 14, 14);">
<path d="M27.5,103.4l2.8,0.6l-0.4,2.1l-2.8-0.7L27.5,103.4"/>
<path d="M29.2,94.4L32,95l-1.6,8.4l-2.8-0.6L29.2,94.4"/>
<path d="M31.7,78.8l3.1-0.2l-1.6,9.2l-2.9-0.6L31.7,78.8"/>
</g>
<path id="Bottom_Heavy_Gauntlet_Right" d="M35.9,78.1c3.3,0.1,6.8,1.6,9,4.4c0.7,0.9,0.9,2.1,0.6,3.2 c-1.6,5.3-7,22.8-7,22.8l-7.9-1.4L35.9,78.1" style="fill: rgb(118, 14, 14);"/>
<g id="Accent-Bottom_Heavy_Gauntlet_Right" style="fill: rgb(85, 82, 77);">
<path d="M30.6,107.2l7.9,1.4l0.4-1.4l-8.1-1.5L30.6,107.2"/>
<path d="M35.5,80.1c4.3,0.4,7.9,2,9.6,6.7l0.3-1c0.3-0.9,0.2-1.8-0.2-2.6l-0.4-0.7c-2.2-2.8-5.6-4.2-9-4.4 L35.5,80.1"/>
<path d="M36.6,78.8l3.5,0.7l-2.8,13.9l-3.5-0.7L36.6,78.8"/>
<path d="M37.1,79.1l2.6,0.5l-2.5,12.8l-2.6-0.5L37.1,79.1"/>
<path d="M39.6,79.6l0.5-0.2"/>
<path d="M36.6,78.8l0.4,0.3"/>
<path d="M33.9,92.7l0.6-0.7"/>
<path d="M37.4,93.4L37,92.5"/>
</g>
<g id="No-Device_Attachment_Heavy_Gauntlet_Right" class="option" style="display: inherit;">
</g>
</g>
</g>
</g>
<g id="Shins">
<g id="Left-Shin">
<g id="Heavy-Shnees_Shin_Left" class="option" style="display: inherit;">
<g id="Shin_Heavy-Shnees-Shin_Left" style="fill: rgb(118, 114, 107);">
<path d="M111.3,223.8l4.7-6.1l8.5-1l-6.1-55.6l-24.1,3l12.2,51.5l0.1,5.6L111.3,223.8"/>
<path d="M98,162.9l-2.6-2.1h-1.7c0,0-0.8,4.9-0.6,7.4c0.3,4,4.3,9.1,4.3,9.1l2.7,1.3l3-6.9L98,162.9"/>
<path d="M116.1,168.5l1.6-8.3c0,0,2.4,4.7,2.6,7.2c0.4,4.4-0.5,7.2-0.5,7.2L116.1,168.5"/>
<path d="M116,217.7l8.5-1l-2.1-4.3l-5.8,0.5L116,217.7"/>
<path d="M119.4,212.7l-6.8-36.5"/>
</g>
<g id="Knee_Heavy-Shnees-Shin_Left" style="fill: rgb(174, 70, 6);">
<path d="M113.2,152.7L99.6,155l-2,9.9l10,12.1l9-1.3l2.9-14.9L113.2,152.7"/>
<path d="M99.7,155l2.9,3.5l10.5-1.7l0.2-4.2L99.7,155"/>
<path d="M102.6,158.6l-4.9,6.3l2-9.9L102.6,158.6"/>
<path d="M113.1,156.9l6.4,3.9l-6.2-8.1L113.1,156.9"/>
<path d="M113.1,156.9l3.5,18.8l2.9-14.9L113.1,156.9"/>
<path d="M102.6,158.6l-4.9,6.3l10,12.1L102.6,158.6"/>
</g>
<g id="Straps_Heavy-Shnees-Shin_Left" class="toggle" style="fill: rgb(139, 87, 42);">
<path d="M99.1,185.9l5.2-0.9l0.5,2.3l-5.2,0.9L99.1,185.9"/>
<path d="M99.4,185.6l1.1-0.2l0.6,2.8l-1.1,0.2L99.4,185.6"/>
<path d="M104.4,208.6l5.2-0.9l0.5,2.3l-5.2,0.9L104.4,208.6"/>
<path d="M104.7,208.3l1.1-0.2l0.6,2.8l-1.1,0.2L104.7,208.3"/>
</g>
</g>
</g>
<g id="Right-Shin">
<g id="Heavy-Shnees_Shin_Right" class="option" style="display: inherit;">
<g id="Shin_Heavy-Shnees-Shin_Right" style="fill: rgb(118, 114, 107);">
<path d="M57.4,223.8l-4.7-6.1l-8.5-1l6.1-55.6l24.1,3l-12.3,51.5l-0.1,5.6L57.4,223.8"/>
<path d="M70.7,162.9l2.6-2.1H75c0,0,0.8,4.9,0.6,7.4c-0.3,4-4.3,9.1-4.3,9.1l-2.7,1.3l-3-6.9L70.7,162.9"/>
<path d="M52.7,168.5l-1.6-8.3c0,0-2.4,4.7-2.6,7.2c-0.4,4.4,0.5,7.2,0.5,7.2L52.7,168.5"/>
<path d="M52.8,217.7l-8.5-1l2.1-4.3l5.8,0.5L52.8,217.7"/>
<path d="M49.4,212.7l6.8-36.5"/>
</g>
<g id="Knee_Heavy-Shnees-Shin_Right" style="fill: rgb(174, 70, 6);">
<path d="M55.5,152.7l13.6,2.3l2,9.9l-10,12.1l-9-1.3l-2.9-14.9L55.5,152.7"/>
<path d="M69.1,155l-2.9,3.5l-10.5-1.7l-0.2-4.2L69.1,155"/>
<path d="M66.2,158.6l4.9,6.3l-2-9.9L66.2,158.6"/>
<path d="M55.7,156.9l-6.4,3.9l6.2-8.1L55.7,156.9"/>
<path d="M55.7,156.9l-3.5,18.8l-2.9-14.9L55.7,156.9"/>
<path d="M66.2,158.6l4.9,6.3l-10,12.1L66.2,158.6"/>
</g>
<g id="Straps_Heavy-Shnees-Shin_Right" class="toggle" style="fill: rgb(139, 87, 42);">
<path d="M69.7,185.9l-5.2-0.9l-0.5,2.3l5.2,0.9L69.7,185.9"/>
<path d="M69.4,185.6l-1.1-0.2l-0.6,2.8l1.1,0.2L69.4,185.6"/>
<path d="M64.4,208.6l-5.2-0.9l-0.5,2.3l5.2,0.9L64.4,208.6"/>
<path d="M64,208.3l-1.1-0.2l-0.6,2.8l1.1,0.2L64,208.3"/>
</g>
</g>
</g>
</g>
<g id="Foot">
<g id="Left-Ankle">
<g id="Heavy_Ankle_Left" class="option" style="display: inherit;">
<path id="Plate_Heavy-Ankle_Left" d="M106.5,218.5l0.4,3.6l7.4,9.3l7.2-3.2l7.8-2l-5.9-10.5c-3-0.4-6.5-0.1-10.5,1.2 l-2.2,2L106.5,218.5" style="fill: rgb(118, 14, 14);"/>
<path id="Trim_Heavy-Ankle_Left" d="M112.9,216.7l0.8,1l-2.6,2.2l-3-0.1l0.1,1.5l6.4,7.9l6.4-3l7.7-1.8l0.8,1.6 l-8.1,2.1l-7.2,3.2l-7.4-9.3l-0.4-3.6l4.1,0.2L112.9,216.7" style="fill: rgb(85, 82, 77);"/>
</g>
</g>
<g id="Left-Toe">
<g id="Armored_Toe_Left" class="option" style="display: inherit;">
<g id="Plate_Armored_Toe_Left" style="fill: rgb(118, 14, 14);">
<path d="M118.3,232.6l9.6,5.3l7.2,0.5l5.8-1.5c1.2-1,1.7-3.3,0.7-5.5l-8.2-3.9l-6.4,1.7L118.3,232.6"/>
<path d="M126.3,229.4c0,0,7.5,2.2,8.4,3.5c1,1.4,0.4,5.5,0.4,5.5"/>
</g>
<g id="Trim_Armored_Toe_Left" style="fill: rgb(85, 82, 77);">
<path d="M132.3,226.9l-7.7,1.9l-6.5,3.9l1.3,0.7l6.9-4l7.6-1.8L132.3,226.9"/>
<path d="M124.6,228.8l1.7,0.7"/>
</g>
</g>
</g>
<g id="Right-Ankle">
<g id="Heavy_Ankle_Right" class="option" style="display: inherit;">
<path id="Plate_Heavy-Ankle_Right" d="M62.3,218.5l-0.4,3.6l-7.4,9.3l-7.2-3.2l-7.8-2l5.9-10.5 c3-0.4,6.5-0.1,10.5,1.2l2.2,2L62.3,218.5" style="fill: rgb(118, 14, 14);"/>
<path id="Trim_Heavy-Ankle_Right" d="M55.9,216.7l-0.8,1l2.6,2.2l3-0.1l-0.1,1.5l-6.4,7.9l-6.4-3l-7.7-1.8l-0.8,1.6 l8.1,2.1l7.2,3.2L62,222l0.4-3.6l-4.1,0.2L55.9,216.7" style="fill: rgb(85, 82, 77);"/>
</g>
</g>
<g id="Right-Toe">
<g id="Armored_Toe_Right" class="option" style="display: inherit;">
<g id="Plate_Armored_Toe_Right" style="fill: rgb(118, 14, 14);">
<path d="M50.5,232.6l-9.6,5.3l-7.2,0.5l-5.8-1.5c-1.2-1-1.7-3.3-0.7-5.5l8.2-3.9l6.4,1.6L50.5,232.6"/>
<path d="M42.4,229.4c0,0-7.5,2.2-8.4,3.5c-1,1.4-0.4,5.5-0.4,5.5"/>
</g>
<g id="Trim_Armored_Toe_Right" style="fill: rgb(85, 82, 77);">
<path d="M36.5,226.9l7.7,1.9l6.5,3.9l-1.3,0.7l-6.9-4l-7.6-1.8L36.5,226.9"/>
<path d="M44.2,228.8l-1.7,0.7"/>
</g>
</g>
</g>
</g>
<g id="Knees">
<g id="Left-Knee">
<g id="Heavy_Knee_Left" class="option" style="display: inherit;">
<g id="Missiles_Heavy-Knee_Left" class="toggle" style="">
<path id="Base_Missiles_Heavy-Knee_Left" d="M117.9,159.6l1.8,9.6l2.1-1.7c0.3-0.3,0.5-0.7,0.4-1.1 c-0.2-1.3-0.7-4.1-0.9-5.6c-0.1-0.6-0.6-1-1.1-1L117.9,159.6z" style="fill: rgb(118, 114, 107);"/>
<g id="Missile-2_Missiles_Heavy-Knee_Left" style="fill: rgb(235, 137, 4);">
<path d="M120.2,164.9c-0.6,0.1-0.9,0.7-0.7,1.3c0.1,0.5,0.7,0.9,1.3,0.7c0.6-0.1,0.9-0.7,0.7-1.3 C121.4,165.1,120.8,164.7,120.2,164.9z"/>
<path d="M120.3,165.2c-0.4,0.1-0.6,0.5-0.5,0.8c0.1,0.4,0.5,0.6,0.9,0.5c0.4-0.1,0.6-0.5,0.5-0.8 C121.1,165.3,120.7,165.1,120.3,165.2z"/>
</g>
<g id="Missile-1_Missiles_Heavy-Knee_Left" style="fill: rgb(118, 14, 14);">
<path d="M119.5,160.5c-0.6,0.1-0.9,0.7-0.7,1.3c0.2,0.6,0.7,0.9,1.3,0.7c0.6-0.1,0.9-0.7,0.7-1.3 C120.6,160.7,120,160.3,119.5,160.5z"/>
<path d="M119.6,160.8c-0.4,0.1-0.6,0.5-0.5,0.8c0.1,0.4,0.5,0.6,0.9,0.5c0.4-0.1,0.6-0.5,0.5-0.8 C120.3,160.9,120,160.7,119.6,160.8z"/>
</g>
</g>
<path id="Plate-2_Heavy-Knee_Left" d="M116,155.3l-2.8-1.7L99,156l-2.1,2.6l2.8,14.2l5.6,0.1l8-1.4l5.5-2L116,155.3z " style="fill: rgb(118, 114, 107);"/>
<g id="Plate-1_Heavy-Knee_Left" style="fill: rgb(235, 137, 4);">
<path d="M115.4,156.1l-2.6-1.7l-13,2.2l-1.9,2.4l2.7,13.7l4.7,0.1l8-1.4l4.7-1.8L115.4,156.1z"/>
<path d="M110.8,158l-8,1.4l2.5,13.5l4.1-0.2l3.8-1.2L110.8,158z"/>
<path d="M102.9,159.4l-3.1-2.7l-1.9,2.4L102.9,159.4z"/>
<path d="M110.8,158l1.9-3.6l2.6,1.7L110.8,158z"/>
</g>
<g id="Trim_Heavy-Knee_Left" style="fill: rgb(118, 14, 14);">
<path d="M97,163.4l-0.4,1.1l1.6,8.6l0.6-0.1L97,163.4z"/>
<path d="M111.7,167.5l-6.2,1.1l0.6,3.3l6.2-1.1L111.7,167.5z"/>
<path d="M97.6,161.9l-0.9,0.1l2,10.9l1-0.2L97.6,161.9z"/>
<path d="M116.9,159.6l1.9,9.9l-0.2,0.1l1-0.2l-1.8-10L116.9,159.6z"/>
</g>
</g>
</g>
<g id="Right-Knee">
<g id="Heavy_Knee_Right" class="option" style="display: inherit;">
<g id="Missiles_Heavy-Knee_Right" class="toggle" style="">
<path id="Base_Missiles_Heavy-Knee_Right" d="M50.9,159.6l-1.8,9.6l-2.1-1.7c-0.3-0.3-0.5-0.7-0.4-1.1 c0.2-1.3,0.7-4.1,0.9-5.6c0.1-0.6,0.6-1,1.1-1L50.9,159.6z" style="fill: rgb(118, 114, 107);"/>
<g id="Missile-2_Missiles_Heavy-Knee_Right" style="fill: rgb(235, 137, 4);">
<path d="M48.5,164.9c0.6,0.1,0.9,0.7,0.7,1.3c-0.2,0.5-0.7,0.9-1.3,0.7c-0.6-0.1-0.9-0.7-0.7-1.3 C47.4,165.1,48,164.7,48.5,164.9z"/>
<path d="M48.4,165.2c0.4,0.1,0.6,0.5,0.5,0.8c-0.1,0.4-0.5,0.6-0.9,0.5s-0.6-0.5-0.5-0.8 C47.7,165.3,48.1,165.1,48.4,165.2z"/>
</g>
<g id="Missile-1_Missiles_Heavy-Knee_Right" style="fill: rgb(118, 14, 14);">
<path d="M49.3,160.5c0.6,0.1,0.9,0.7,0.7,1.3c-0.2,0.6-0.7,0.9-1.3,0.7c-0.6-0.1-0.9-0.7-0.7-1.3 C48.2,160.7,48.7,160.3,49.3,160.5z"/>
<path d="M49.2,160.8c0.4,0.1,0.6,0.5,0.5,0.8c-0.1,0.4-0.5,0.6-0.9,0.5c-0.4-0.1-0.6-0.5-0.5-0.8 C48.4,160.9,48.8,160.7,49.2,160.8z"/>
</g>
</g>
<path id="Plate-2_Heavy-Knee_Right" d="M52.7,155.3l2.8-1.7l14.2,2.4l2.1,2.6L69,172.8l-5.6,0.1l-8-1.4l-5.5-2 L52.7,155.3z" style="fill: rgb(118, 114, 107);"/>
<g id="Plate-1_Heavy-Knee_Right" style="fill: rgb(235, 137, 4);">
<path d="M53.4,156.1l2.6-1.7l13,2.2l1.9,2.4l-2.7,13.7l-4.7,0.1l-8-1.4l-4.7-1.8L53.4,156.1z"/>
<path d="M58,158l8,1.4l-2.5,13.5l-4.1-0.2l-3.8-1.2L58,158z"/>
<path d="M65.9,159.4l3.1-2.7l1.9,2.4L65.9,159.4z"/>
<path d="M58,158l-1.9-3.6l-2.6,1.7L58,158z"/>
</g>
<g id="Trim_Heavy-Knee_Right" style="fill: rgb(118, 14, 14);">
<path d="M71.8,163.4l0.4,1.1l-1.6,8.6L70,173L71.8,163.4z"/>
<path d="M57.1,167.5l6.2,1.1l-0.6,3.3l-6.2-1.1L57.1,167.5z"/>
<path d="M71.1,161.9L72,162l-2,10.9l-1-0.2L71.1,161.9z"/>
<path d="M51.9,159.6l-1.9,9.9l0.2,0.1l-1-0.2l1.8-10L51.9,159.6z"/>
</g>
</g>
</g>
</g>
<g id="Thighs">
<g id="Left-Thigh">
<g id="Heavy_Thigh_Left" class="option" style="display: inherit;">
<g id="Thigh_Heavy-Thigh_Left" style="fill: rgb(85, 82, 77);">
<path d="M97,117.7l-5.7,7.3l6.6,26.2l4.5,1.6l-3.1-29.9L97,117.7"/>
<path d="M111.6,116.1l7.1,6l-1,27l-4,2.5l-3.1-29.9L111.6,116.1"/>
<path d="M111.6,116.1L97,117.7l2.2,5.2l11.4-1.2L111.6,116.1"/>
<path d="M110.6,121.7l-11.4,1.2l3.1,29.9l11.4-1.2L110.6,121.7"/>
</g>
<g id="Trim_Heavy-Thigh_Left" style="fill: rgb(118, 14, 14);">
<path d="M112.2,113.8l-16.3,1.7l1,2.1l14.7-1.5L112.2,113.8"/>
<path d="M118.5,119.6l-6.3-5.7l-0.6,2.3l7.1,6L118.5,119.6"/>
<path d="M91,122.4l5-6.9l1,2.1l-5.7,7.3L91,122.4"/>
</g>
</g>
</g>
<g id="Right-Thigh">
<g id="Heavy_Thigh_Right" class="option" style="display: inherit;">
<g id="Thigh_Heavy-Thigh_Right" style="fill: rgb(85, 82, 77);">
<path d="M71.8,117.7l5.7,7.3L71,151.2l-4.5,1.6l3.1-29.9L71.8,117.7"/>
<path d="M57.1,116.1l-7.1,6l1,27l4,2.5l3.1-29.9L57.1,116.1"/>
<path d="M57.1,116.1l14.7,1.5l-2.2,5.2l-11.4-1.2L57.1,116.1"/>
<path d="M58.2,121.7l11.4,1.2l-3.1,29.9l-11.4-1.2L58.2,121.7"/>
</g>
<g id="Trim_Heavy-Thigh_Right" style="fill: rgb(118, 14, 14);">
<path d="M56.6,113.8l16.3,1.7l-1,2.1l-14.7-1.5L56.6,113.8"/>
<path d="M50.3,119.6l6.3-5.7l0.6,2.3l-7.1,6L50.3,119.6"/>
<path d="M77.8,122.4l-5-6.9l-1,2.1l5.7,7.3L77.8,122.4"/>
</g>
</g>
</g>
</g>
<g id="Groin">
<g id="Basic_Groin" class="option" style="display: inherit;">
<path id="Groin-Plate_Groin" d="M78.1,121.8L67.7,98.9H101l-10.4,22.9l-6.2,5.5L78.1,121.8z" style="fill: rgb(118, 14, 14);"/>
<path id="Trauma-Plating_Groin" class="toggle" style="fill: rgb(118, 114, 107);" d="M79.2,119.9L70.6,101H98l-8.6,18.9l-5.1,4.5L79.2,119.9z"/>
</g>
</g>
<g id="Waist">
<g id="Accessories_Waist">
<g id="Kama" class="toggle" style="display:none"/>
<g id="Loin-Cloth" class="toggle" style="display:none"/>
<g id="Left-Holster" class="toggle" style="">
<g id="Belt-Holster_Left" class="option" style="display: inherit;">
<g id="Weapon_Belt-Holster-Left">
<g id="Main_Weapon_Belt-Holster-Left" style="fill: rgb(85, 82, 77);">
<path d="M116,98.7l-0.2-3.6h0.6l-0.2-2.3h-0.6l-0.1-1.2c0-0.4,0.5-0.7,1.1-0.8c1.4-0.1,3.9-0.3,5.3-0.4 c0.6,0,1.2,0.2,1.2,0.6l0.1,1.2h-0.6l0.2,2.3h0.6l0.2,3.6l-1.5,0.1l0.7,9.9l-4.7,0.3l-0.7-9.9L116,98.7z"/>
<path d="M123,97.7l-0.8,0.1l0.8,12l-4.7,0.3l-0.8-12l-0.8,0.1l-0.2-2.7l6.4-0.4L123,97.7z"/>
<path d="M121.3,91.3l-3.8,0.3l0.2,3.7l3.8-0.3L121.3,91.3z"/>
<path d="M118.6,99H118l0.6,9.4h0.6L118.6,99z"/>
<path d="M120,96.8h-0.6l0.6,9.4h0.6L120,96.8z"/>
<path d="M121.8,98.8h-0.6l0.6,9.4h0.6L121.8,98.8z"/>
</g>
<g id="Accent_Weapon_Belt-Holster-Left" style="fill: rgb(118, 114, 107);">
<path d="M118.3,95.6V96l2.7-0.2v-0.4L118.3,95.6z"/>
<path d="M118.3,96v0.4l2.7-0.2v-0.4L118.3,96z"/>
<path d="M118.3,95.2v0.4l2.7-0.2V95L118.3,95.2z"/>
<path d="M118,90.6V91l2.7-0.2v-0.4L118,90.6z"/>
<path d="M118.1,91.6h-0.6l0.2,3.7h0.6L118.1,91.6z"/>
<path d="M121.3,91.3h-0.6l0.2,3.7h0.6L121.3,91.3z"/>
<path d="M121.1,98.9l-0.9,0.1l0.6,9.4l0.9-0.1L121.1,98.9z"/>
<path d="M119.5,99l-0.9,0.1l0.6,9.4l0.9-0.1L119.5,99z"/>
</g>
</g>
<path id="Holster_Belt-Holster-Left" d="M117.6,112.4l-2.5-15l8.2,10.6l0.8,20.7c-1.4,1.9-3,2.1-4.8,0.4 L117.6,112.4z" style="fill: rgb(139, 87, 42);"/>
</g>
</g>
<g id="Right-Holster" class="toggle" style="">
<g id="Belt-Holster_Right" class="option" style="display: inherit;">
<g id="Weapon_Belt-Holster-Right">
<g id="Main_Weapon_Belt-Holster-Right" style="fill: rgb(85, 82, 77);">
<path d="M52.7,98.7l0.2-3.6h-0.6l0.2-2.3h0.6l0.1-1.2c0-0.4-0.5-0.7-1.1-0.8c-1.4-0.1-3.9-0.3-5.3-0.4 c-0.6,0-1.2,0.2-1.2,0.6l-0.1,1.2h0.6l-0.2,2.3h-0.6l-0.2,3.6l1.5,0.1l-0.7,9.9l4.7,0.3l0.7-9.9L52.7,98.7z"/>
<path d="M45.8,97.7l0.8,0.1l-0.8,12l4.7,0.3l0.8-12l0.8,0.1l0.2-2.7l-6.4-0.4L45.8,97.7z"/>
<path d="M47.5,91.3l3.8,0.3l-0.2,3.7L47.3,95L47.5,91.3z"/>
<path d="M50.2,99h0.6l-0.6,9.4h-0.6L50.2,99z"/>
<path d="M48.7,96.8h0.6l-0.6,9.4h-0.6L48.7,96.8z"/>
<path d="M47,98.8h0.6l-0.6,9.4h-0.6L47,98.8z"/>
</g>
<g id="Accent_Weapon_Belt-Holster-Right" style="fill: rgb(118, 114, 107);">
<path d="M50.5,95.6V96l-2.7-0.2v-0.4L50.5,95.6z"/>
<path d="M50.4,96v0.4l-2.7-0.2v-0.4L50.4,96z"/>
<path d="M50.5,95.2v0.4l-2.7-0.2V95L50.5,95.2z"/>
<path d="M50.8,90.6V91l-2.7-0.2v-0.4L50.8,90.6z"/>
<path d="M50.7,91.6h0.6l-0.2,3.7h-0.6L50.7,91.6z"/>
<path d="M47.5,91.3h0.6L47.9,95h-0.6L47.5,91.3z"/>
<path d="M47.6,98.9l0.9,0.1l-0.6,9.4l-0.9-0.1L47.6,98.9z"/>
<path d="M49.2,99l0.9,0.1l-0.6,9.4l-0.9-0.1L49.2,99z"/>
</g>
</g>
<path id="Holster_Belt-Holster-Right" d="M51.1,112.4l2.5-15L45.4,108l-0.8,20.7c1.4,1.9,3,2.1,4.8,0.4L51.1,112.4z " style="fill: rgb(139, 87, 42);"/>
</g>
</g>
</g>
<g id="Under-Belt">
<g id="Girth-Belt" class="option" style="fill: rgb(139, 87, 42); display: inherit;">
<path d="M84.4,84.5c-9.3,0-27.8-2.2-27.8-2.2l0.6-1.9c0,0,18.1,1.5,27.2,2.2c9.1-0.8,27.2-2.2,27.2-2.2l0.6,1.9 C112.2,82.2,93.6,84.5,84.4,84.5z"/>
<path d="M84.4,86.4c-9.5,0-28.4-2.2-28.4-2.2l0.6-1.9c0,0,23.2,1.9,27.8,2.2c4.6-0.4,27.8-2.2,27.8-2.2l0.6,1.9 C112.7,84.1,93.8,86.4,84.4,86.4z"/>
<path d="M84.4,88.3c-9.6,0-28.8-2.2-28.8-2.2l0.4-1.9c0,0,23.7,1.9,28.4,2.2c4.7-0.4,28.4-2.2,28.4-2.2l0.4,1.9 C113.2,86.1,94,88.3,84.4,88.3z"/>
<path d="M84.4,90.2c-9.7,0-29.2-2.2-29.2-2.2l0.4-1.9c0,0,24,1.9,28.8,2.2c4.8-0.4,28.8-2.2,28.8-2.2l0.4,1.9 C113.5,88,94.1,90.2,84.4,90.2z"/>
<path d="M84.4,92.1c-9.8,0-29.5-2.2-29.5-2.2l0.3-1.9c0,0,24.3,1.9,29.2,2.2c4.9-0.4,29.2-2.2,29.2-2.2l0.3,1.9 C113.9,89.9,94.2,92.1,84.4,92.1z"/>
<path d="M84.4,94c-9.9,0-29.8-2.2-29.8-2.2l0.3-1.9c0,0,24.6,1.9,29.5,2.2c4.9-0.4,29.5-2.2,29.5-2.2l0.3,1.9 C114.2,91.8,94.3,94,84.4,94z"/>
<path d="M84.4,95.9c-10,0-30.1-2.2-30.1-2.2l0.3-1.9c0,0,24.8,1.9,29.8,2.2c5-0.4,29.8-2.2,29.8-2.2l0.3,1.9 C114.5,93.7,94.4,95.9,84.4,95.9z"/>
<path d="M84.4,97.8c-10.1,0-30.4-2.2-30.4-2.2l0.3-1.9c0,0,25.1,1.9,30.1,2.2c5-0.4,30.1-2.2,30.1-2.2l0.3,1.9 C114.8,95.6,94.5,97.8,84.4,97.8z"/>
<path d="M84.4,99.7c-10.3,0-30.8-2.2-30.8-2.2l0.3-1.9c0,0,25.4,1.9,30.4,2.2c5.1-0.4,30.4-2.2,30.4-2.2l0.3,1.9 C115.1,97.5,94.6,99.7,84.4,99.7z"/>
<path d="M84.4,101.6c-10.4,0-31.2-2.2-31.2-2.2l0.4-1.9c0,0,25.6,1.9,30.8,2.2c5.1-0.4,30.8-2.2,30.8-2.2l0.4,1.9 C115.5,99.4,94.8,101.6,84.4,101.6z"/>
</g>
</g>
<g id="Belt">
<g id="Pouch-Belt-2" class="option" style="display: inherit;">
<path id="Main_Pouch-Belt-2" d="M114.5,92.5c-6.8,0.6-22.3,2.8-30.1,2.8c-7.9,0-23.4-2.2-30.1-2.8l1-7.9 c5.5,0.5,21.4,2.7,29.1,2.7c7.4,0,23-2.2,28.9-2.8L114.5,92.5z" style="fill: rgb(210, 164, 125);"/>
<rect id="Buckle_Pouch-Belt-2" x="78.8" y="86.6" width="11.2" height="9.2" style="fill: rgb(0, 0, 0);"/>
<g id="Pouches_Pouch-Belt-2" style="fill: rgb(139, 87, 42);">
<g>
<path d="M51.9,83.9l0.5-0.9l2.8,0.1l0.3,1.1L51.9,83.9z"/>
<path d="M55.6,84.3c0-0.1,0-0.1-0.1-0.2c0-0.1-0.1-0.1-0.2-0.1c-0.8,0-3.5-0.1-3.5-0.1l-0.5,11.2 c0.1,0.3,1.5,0.5,2.7,0.5c0.5,0,0.9-0.4,0.9-0.9C55,91.2,55.2,87.7,55.6,84.3z"/>
</g>
<g>
<path d="M116.9,83.9l-0.5-0.9l-2.8,0.1l-0.3,1.1L116.9,83.9z"/>
<path d="M113.2,84.3c0-0.1,0-0.1,0.1-0.2c0-0.1,0.1-0.1,0.2-0.1c0.8,0,3.5-0.1,3.5-0.1l0.5,11.2 c-0.1,0.3-1.5,0.5-2.7,0.5c-0.5,0-0.9-0.4-0.9-0.9C113.7,91.2,113.6,87.7,113.2,84.3z"/>
</g>
</g>
</g>
</g>
</g>
<g id="Extras_Front">
<g id="Front">
<g id="None_Front" class="option" style="display: inherit;">
</g>
</g>
</g>
</svg></svg>