<?xml version='1.0' encoding='UTF-8'?>
<svg version="1.1" id="Male-Body" xmlns="http://www.w3.org/2000/svg" xmlns:serif="http://www.serif.com/" viewBox="0 -55 170 300" style="stroke-width: 0.2px; fill-rule: evenodd; stroke-linejoin: round;" width="170" height="300">
<style>
mask {
mask-type: alpha;
}
.decal {
stroke: none;
}
</style>
<defs id="Masks" stroke="none">
<mask id="HelmetsMask"> <use href="#Helmets"/> </mask>
<mask id="CollarMask"> <use href="#Collar"/> </mask>
<mask id="ShouldersMask"> <use href="#Shoulders"/> </mask>
<mask id="ChestMask"> <use href="#Chest"/> </mask>
<mask id="BicepsMask"> <use href="#Biceps"/> </mask>
<mask id="GauntletsMask"> <use href="#Gauntlets"/> </mask>
<mask id="WaistMask"> <use href="#Waist"/> </mask>
<mask id="GroinMask"> <use href="#Groin"/> </mask>
<mask id="ThighsMask"> <use href="#Thighs"/> </mask>
<mask id="KneesMask"> <use href="#Knees"/> </mask>
<mask id="ShinsMask"> <use href="#Shins"/> </mask>
<mask id="FootMask"> <use href="#Foot"/> </mask>
</defs>
<defs id="Decals"/><metadata><rdf:rdf xmlns:rdf="http://www.w3.org/1999/02/22-rdf-syntax-ns#" xmlns:rdfs="http://www.w3.org/2000/01/rdf-schema#" xmlns:dc="http://purl.org/dc/elements/1.1/"><rdf:description><dc:creator>MandoCreator</dc:creator><dc:publisher>https://www.mandocreator.com</dc:publisher><dc:description>Your Beskar'gam - created by MandoCreator</dc:description><dc:format>image/svg+xml</dc:format><dc:type>Image</dc:type><dc:title>MandoCreator - Ner Berskar'gam</dc:title><dc:date>2022-01-02T16:22:17.610Z</dc:date></rdf:description></rdf:rdf></metadata><g id="Main-Body" fill="white" stroke="black">
<g id="Extras_Back">
<g id="Back"><g id="NO-CAPES_Back" class="option" style="display: inherit;">
</g>
</g>
</g>
<g id="Extras-BackDecals" mask="url(#BackMask)">
</g>
<g id="Suit">
<g id="Neck-Seal">
<path id="Plain-Neck-Seal" class="option" d="M97.69,6.07l2.94,6.84l-0.21,6.78l-15.43,1.59v0.01l-0.03,0l-0.03,0v-0.01 l-15.34-1.59l-0.21-6.78l2.94-6.84L85,6.73L97.69,6.07" fill="rgb(96, 61, 32)" style="display: inherit;"/></g>
<g id="Flight-Suit" fill="rgb(210, 164, 125)">
<path d="M73.36,158.45l-1.49,8.72l-11.03,53.11c0,0-4.93,2.96-7.47,3.46c-2.53,0.5-7.73-0.44-7.73-0.44l3.85-43 l2.9-18.36l0.66-7.82c0,0-2.53-22.78-1.7-34.14c0.82-11.36,6.66-34.01,6.66-34.01l26.98,0.58l26.97-0.58 c0,0,5.83,22.66,6.66,34.01c0.83,11.36-1.7,34.14-1.7,34.14l0.66,7.82l2.9,18.36l3.85,43c0,0-5.32,1.19-7.85,0.69 c-2.53-0.5-7.34-3.71-7.34-3.71L98.1,167.16l-1.49-8.72l-11.62-30.33L73.36,158.45z"/>
<g>
<path d="M129.41,43.33l11.98,41.65l1.04,21.47l-9.55,1.83l-6.05-20.21l-13.65-33.95l0.69-15.55l2.31-3.72 L129.41,43.33z"/>
<path d="M40.59,43.3l13.19-8.45l2.31,3.72l0.52,16.04L43.17,88.07l-6.05,20.21l-9.55-1.83l1.03-21.47L40.59,43.3z"/>
</g>
</g>
<g id="Sleeves" class="toggle" fill="rgb(96, 61, 32)">
<g>
<path d="M112.2,56.12l2.68,5.9c0,0,4.24-3.2,7.06-4.8s4.38-2.62,6.92-3.6c2.54-0.98,5.08-1.47,5.08-1.47l-6.07-12.25 l-5.79-9.67l-11.58,5.14L112.2,56.12z"/>
<path d="M113.61,59.24c-0.2-0.24,5.08-4.5,8.61-6.34c3.53-1.84,10.25-3.69,10.25-3.69"/>
</g>
<g>
<path d="M57.8,56.12l-2.68,5.9c0,0-4.24-3.2-7.06-4.8c-2.82-1.59-4.38-2.62-6.92-3.6c-2.54-0.98-5.08-1.47-5.08-1.47 l6.07-12.25l5.79-9.67l11.58,5.14L57.8,56.12z"/>
<path d="M56.39,59.24c0.2-0.24-5.08-4.5-8.61-6.34c-3.53-1.84-10.25-3.69-10.25-3.69"/>
</g>
</g>
</g>
<g id="Boots"><g id="Gunslinger_Boots" class="option" style="display: inherit;">
<g id="Main_Gunslinger-Boot" fill="rgb(0, 0, 0)">
<path d="M107.7,226.61c0.04,0.2,0.73,3.41,4.27,4.29c1.18,0.3,3.21-0.33,4.48-0.98c1.74-0.89,3.57-1.58,5.44-2.12 l0.06,0.08c0.03,0.04,0.06,0.08,0.09,0.12c0.58,0.81,1.21,1.57,1.89,2.26l0.05,0.05l0.03,0.03c0.07,0.07,0.14,0.14,0.21,0.2 c0.4,0.38,0.81,0.74,1.23,1.07l0.12,0.09l0.1,0.07c0.03,0.02,0.06,0.04,0.09,0.06c0.07,0.05,0.13,0.1,0.2,0.14 c0.88,0.62,2.06,1.56,3.23,1.39c1.11-0.16,2.35-0.6,3.28-1.04c0.78-0.37,1.59-0.87,2.13-1.4c0.16-0.12,0.29-0.26,0.39-0.44 c2.57,1,5.36,1.38,6.73,4.22c0.3,0.62,0.55,1.35,0.49,2.04c-0.08,0.89-1.06,1-1.82,1.2c-1.9,0.51-3.53,0.89-5.72,1.34 c-2.5,0.52-4.76,0.83-7.29,0.72c-1.89-0.08-3.49-0.18-5.14-1.19c-0.66-0.41-1.34-0.82-1.92-1.35c-1.28-1.19-2.11-2.43-3.77-3.15 c-1.2-0.52-2.44-0.96-3.71-1.27c-1.8-0.45-3.74-0.76-4.69-2.54C107.42,229.16,107.51,227.91,107.7,226.61L107.7,226.61"/>
<path d="M62.28,226.61c-0.04,0.2-0.73,3.41-4.27,4.29c-1.18,0.3-3.2-0.33-4.48-0.98c-1.74-0.89-3.57-1.58-5.44-2.12 l-0.05,0.08c-0.03,0.04-0.06,0.08-0.09,0.12c-0.58,0.81-1.21,1.57-1.89,2.26l-0.05,0.05l-0.03,0.03 c-0.07,0.07-0.14,0.14-0.21,0.2c-0.4,0.38-0.81,0.74-1.23,1.07l-0.12,0.09l-0.1,0.07c-0.03,0.02-0.06,0.04-0.09,0.06 c-0.07,0.05-0.13,0.1-0.2,0.14c-0.88,0.62-2.06,1.56-3.23,1.39c-1.1-0.16-2.35-0.6-3.28-1.04c-0.78-0.37-1.59-0.87-2.13-1.4 c-0.16-0.12-0.29-0.26-0.39-0.44c-2.57,1-5.36,1.38-6.73,4.22c-0.3,0.62-0.55,1.35-0.48,2.04c0.08,0.89,1.06,1,1.82,1.2 c1.9,0.51,3.53,0.89,5.72,1.34c2.5,0.52,4.76,0.83,7.29,0.72c1.89-0.08,3.49-0.18,5.14-1.19c0.66-0.41,1.35-0.82,1.92-1.35 c1.28-1.19,2.11-2.43,3.77-3.15c1.2-0.52,2.44-0.96,3.71-1.27c1.8-0.45,3.74-0.76,4.69-2.54 C62.56,229.16,62.48,227.91,62.28,226.61L62.28,226.61"/>
</g>
<g id="Bottom_Gunslinger-Boot" fill="rgb(0, 0, 0)">
<path d="M107.64,229.04c0.08,0.49,0.24,0.98,0.51,1.49c0.95,1.78,2.89,2.09,4.69,2.54c1.27,0.32,2.51,0.75,3.71,1.27 c1.66,0.72,2.48,1.96,3.77,3.15c0.57,0.53,1.25,0.94,1.92,1.35c1.65,1.01,3.25,1.11,5.14,1.19c2.53,0.1,4.78-0.2,7.29-0.72 c2.19-0.46,3.82-0.84,5.72-1.34c0.61-0.16,1.36-0.27,1.67-0.76l0,0l0.36,0.8l0.21,1.64c0,0-2.03,1.09-4.2,1.57 c-2.16,0.48-6.53,1.15-6.53,1.15l-0.3-0.71l-0.98,0.21l0.05,0.7l-2.38,0.13l-0.51-0.69l-0.79,0.02l0.12,0.61 c0,0-1.47-0.02-2.29-0.51c-0.15-0.23-0.46-0.61-0.46-0.61l-0.56-0.31l0.07,0.58l-2.04-0.73l-0.1-0.79l-0.59-0.34l-0.03,0.57 l-1.46-1.12l-0.16-0.69l-3.64-2.55l-0.57,1.33l-2.55-0.55l-0.08-0.55l-0.65-0.27l-0.45,0.42l-1.71-0.7l-0.04-0.51l-0.56-0.19 l-0.06,0.37l-1.62-1.12l-0.31-2.23l-0.07-2.42L107.64,229.04L107.64,229.04"/>
<path d="M62.35,229.04c-0.08,0.49-0.24,0.98-0.51,1.49c-0.95,1.78-2.89,2.09-4.69,2.54 c-1.27,0.32-2.51,0.75-3.71,1.27c-1.66,0.72-2.48,1.96-3.77,3.15c-0.57,0.53-1.25,0.94-1.92,1.35c-1.65,1.01-3.25,1.11-5.14,1.19 c-2.53,0.1-4.78-0.2-7.29-0.72c-2.19-0.46-3.83-0.84-5.72-1.34c-0.61-0.16-1.36-0.27-1.67-0.76l0,0l-0.36,0.8l-0.21,1.64 c0,0,2.03,1.09,4.2,1.57c2.16,0.48,6.53,1.15,6.53,1.15l0.3-0.71l0.98,0.21l-0.05,0.7l2.38,0.13l0.51-0.69l0.8,0.02l-0.12,0.61 c0,0,1.47-0.02,2.29-0.51c0.15-0.23,0.46-0.61,0.46-0.61l0.56-0.31l-0.07,0.58l2.04-0.73l0.1-0.79l0.59-0.34l0.02,0.57l1.46-1.12 l0.16-0.69l3.64-2.55l0.57,1.33l2.55-0.55l0.08-0.55l0.65-0.27l0.45,0.42l1.71-0.7l0.04-0.51l0.56-0.19l0.07,0.37l1.62-1.12 l0.31-2.23l0.07-2.42L62.35,229.04L62.35,229.04"/>
</g>
<g id="Top_Gunslinger-Boot" fill="rgb(118, 14, 14)">
<path d="M121.87,227.77c-2.17-3.11-3.64-6.92-4.16-10.29l0,0l0.61-0.05l0.02,0l0.07-0.01l0.2-0.02l0.31-0.03 l0.13-0.02c0.35-0.04,0.7-0.09,1.04-0.14l0.54-0.1l0.11-0.03l0.04-0.01l0.08-0.02l0.37-0.09l0.33-0.08l0.06-0.01 c1.15-0.29,2.31-0.64,2.31-0.64c0.32,1.48,0.47,3.17,1.09,4.56c0.98,2.18,2.78,3.85,4.46,5.51c1.15,1.14,2.28,2.44,3.66,3.31 c0.58,0.37,1.21,0.66,1.84,0.9c-0.49,0.67-1.54,1.37-2.53,1.84c-0.93,0.44-2.17,0.88-3.28,1.04c-1.17,0.17-2.35-0.77-3.23-1.39 c-1.53-1.07-2.89-2.53-4.06-4.19L121.87,227.77"/>
<path d="M48.12,227.77c2.17-3.11,3.64-6.92,4.16-10.29l0,0l-0.61-0.05l-0.02,0l-0.08-0.01l-0.2-0.02l-0.31-0.03 l-0.13-0.02c-0.35-0.04-0.7-0.09-1.04-0.14l-0.54-0.1l-0.11-0.03l-0.04-0.01l-0.08-0.02l-0.37-0.09l-0.33-0.08l-0.06-0.01 c-1.15-0.29-2.31-0.64-2.31-0.64c-0.32,1.48-0.47,3.17-1.09,4.56c-0.98,2.18-2.78,3.85-4.46,5.51c-1.15,1.14-2.28,2.44-3.66,3.31 c-0.58,0.37-1.21,0.66-1.84,0.9c0.49,0.67,1.53,1.37,2.53,1.84c0.93,0.44,2.17,0.88,3.28,1.04c1.17,0.17,2.35-0.77,3.23-1.39 c1.53-1.07,2.89-2.53,4.06-4.19L48.12,227.77"/>
</g>
<g id="Side_Gunslinger-Boot" fill="rgb(118, 14, 14)">
<path d="M121.89,227.8c-1.87,0.54-3.7,1.24-5.44,2.12c-1.27,0.65-3.3,1.27-4.48,0.98c-3.66-0.92-4.27-4.3-4.27-4.3 c0.11-0.74,0.25-1.5,0.3-2.3c0.1-1.54-0.11-8.21,0.02-8.14c2.94,1.56,8.18,1.45,9.67,1.33l0,0 C118.23,220.86,119.71,224.69,121.89,227.8"/>
<path d="M48.09,227.8c1.87,0.54,3.7,1.24,5.44,2.12c1.27,0.65,3.3,1.27,4.48,0.98c3.66-0.92,4.27-4.3,4.27-4.3 c-0.11-0.74-0.25-1.5-0.3-2.3c-0.1-1.54,0.11-8.21-0.02-8.14c-2.94,1.56-8.18,1.45-9.67,1.33l0,0 C51.76,220.86,50.28,224.69,48.09,227.8"/>
</g>
</g></g>
<g id="Gloves">
<g id="Left-Glove">
<g id="Fingerless_Left_Glove" class="option" style="display: inherit;">
<g id="Fingers_Fingerless_Left_Glove" fill="rgb(118, 14, 14)">
<path d="M138.6,124.11c-0.54-0.03-1.05-0.01-1.58,0.1c-0.36,0.08-0.72,0.16-1.04,0.35 c-0.99,0.57-0.72,1.81,0.16,2.28c1.03,0.55,2.66,0.01,3.13-1.05C139.46,125.35,138.86,124.53,138.6,124.11"/>
<path d="M136.79,125.19c-0.54-0.03-1.05-0.02-1.59,0.1c-0.36,0.08-0.72,0.16-1.04,0.35 c-0.99,0.57-0.72,1.81,0.16,2.28c1.03,0.55,2.66,0.01,3.13-1.05C137.65,126.43,137.05,125.61,136.79,125.19"/>
<path d="M135.51,126.62c-0.54,0.05-1.21,0.17-1.73,0.35c-0.35,0.12-0.69,0.26-0.99,0.48 c-0.9,0.7-0.47,1.89,0.47,2.24c1.1,0.41,2.64-0.35,2.96-1.46C136.36,127.76,135.51,126.62,135.51,126.62z"/>
<path d="M129.95,119.82c-0.3,1.34-0.55,2.07-0.55,2.07s-1.38,2.79-1.14,3.43c0.24,0.64,1.45,1.21,2.15,0.87 c0.86-0.42,1.93-2.39,2.61-3.77c0.25-0.51,0.48-1.1,0.68-1.64C130.94,121.18,129.95,119.82,129.95,119.82L129.95,119.82z"/>
<path d="M135.64,126.41c-0.2,0.34-0.43,0.7-0.68,1.08c-1.36,2.05-3.46,3.81-2.07,5.37 c1.29,1.46,4.22-2.37,4.22-2.37l1.36-1.77C136.2,128.19,135.64,126.42,135.64,126.41z"/>
</g>
<path id="Glove_Fingerless_Left_Glove" d="M138.46,128.72l1.51-1.96c0,0,3.3-5.41,3.47-6.46 c0.13-0.8,0.02-3.47,0.02-3.47l-1.03-10.37l-5.24,0.44l-4.31,1.39l-0.32,1.77c0,0-1.56,2.15-1.97,3.69 c-0.29,1.09-0.13,3.68-0.49,5.43c-0.05,0.23-0.1,0.44-0.14,0.65l0,0c0,0,0.99,1.37,3.74,0.96c0.35-0.96,0.58-1.78,0.58-1.78 s0.95,0.32,1.43,0.7c1.61,1.24,0.91,4.96,0.91,4.96s-0.37,0.74-0.98,1.75C135.64,126.42,136.2,128.19,138.46,128.72z" fill="rgb(0, 0, 0)"/>
</g></g>
<g id="Right-Glove">
<g id="Fingerless_Right_Glove" class="option" style="display: inherit;">
<g id="Fingers_Fingerless_Right_Glove" fill="rgb(118, 14, 14)">
<path d="M31.4,124.11c0.54-0.03,1.05-0.01,1.58,0.1c0.36,0.08,0.72,0.16,1.04,0.35c0.99,0.57,0.72,1.81-0.16,2.28 c-1.03,0.55-2.66,0.01-3.13-1.05C30.53,125.35,31.14,124.53,31.4,124.11"/>
<path d="M33.21,125.19c0.54-0.03,1.05-0.02,1.58,0.1c0.36,0.08,0.72,0.16,1.04,0.35c0.99,0.57,0.72,1.81-0.16,2.28 c-1.03,0.55-2.66,0.01-3.13-1.05C32.35,126.43,32.95,125.61,33.21,125.19"/>
<path d="M34.49,126.62c0.54,0.05,1.21,0.17,1.73,0.35c0.35,0.12,0.69,0.26,0.99,0.48c0.9,0.7,0.47,1.89-0.47,2.24 c-1.1,0.41-2.64-0.35-2.96-1.46C33.64,127.76,34.49,126.62,34.49,126.62z"/>
<path d="M40.05,119.82c0.3,1.34,0.55,2.07,0.55,2.07s1.38,2.79,1.14,3.43c-0.24,0.64-1.45,1.21-2.15,0.87 c-0.86-0.42-1.93-2.39-2.61-3.77c-0.25-0.51-0.48-1.1-0.68-1.64C39.06,121.18,40.05,119.82,40.05,119.82L40.05,119.82z"/>
<path d="M34.36,126.41c0.2,0.34,0.43,0.7,0.68,1.08c1.36,2.05,3.46,3.81,2.08,5.37c-1.29,1.46-4.22-2.37-4.22-2.37 l-1.36-1.77C33.8,128.19,34.36,126.42,34.36,126.41z"/>
</g>
<path id="Glove_Fingerless_Right_Glove" d="M31.54,128.72l-1.51-1.96c0,0-3.3-5.41-3.47-6.46 c-0.13-0.8-0.02-3.47-0.02-3.47l1.03-10.37l5.24,0.44l4.31,1.39l0.32,1.77c0,0,1.56,2.15,1.97,3.69 c0.29,1.09,0.13,3.68,0.49,5.43c0.05,0.23,0.1,0.44,0.14,0.65l0,0c0,0-0.99,1.37-3.74,0.96c-0.35-0.96-0.58-1.78-0.58-1.78 s-0.95,0.32-1.43,0.7c-1.61,1.24-0.91,4.96-0.91,4.96s0.37,0.74,0.98,1.75C34.36,126.42,33.8,128.19,31.54,128.72z" fill="rgb(0, 0, 0)"/>
</g></g>
</g>
<g id="Biceps">
<g id="Left-Biceps">
<g id="None_Biceps_Left" class="option" style="display: inherit;">
</g></g>
<g id="Right-Biceps">
<g id="None_Biceps_Right" class="option" style="display: inherit;">
</g></g>
</g>
<g id="BicepsDecals" mask="url(#BicepsMask)">
</g>
<path id="Vest" d="M85,20.92c8.5-0.01,15.43-4.3,15.63-8.01l0.15,0.02l18.38,5.42l13.31,23.94l-2.86,1.16l-13.42-8.6 l-2.31,3.72l-1.54,47.4c0,0-8.72,4.71-13.53,5.35c-3.44,0.45-8.63,0.68-13.79,0.67c-5.16,0.01-10.35-0.22-13.79-0.67 c-4.81-0.63-13.53-5.35-13.53-5.35l-1.54-47.4l-2.31-3.72l-13.42,8.6l-2.86-1.16l13.31-23.94l18.38-5.42l0.15-0.02 C69.57,16.62,76.5,20.92,85,20.92" fill="rgb(96, 61, 32)"/>
<g id="SuitDecals" mask="url(#SuitMask)">
</g>
<g class="swappable" id="Chest"><g id="Chest_Heavy">
<g id="Abdomen_Heavy">
<g id="Under-Plates_Abdomen_Heavy" fill="rgb(96, 61, 32)">
<rect x="73.86" y="69.99" width="22.29" height="2.83"/>
<rect x="73.86" y="72.82" width="22.29" height="2.83"/>
<rect x="73.86" y="75.65" width="22.29" height="2.83"/>
<rect x="73.86" y="78.48" width="22.29" height="2.83"/>
<rect x="73.86" y="81.31" width="22.29" height="2.83"/>
</g>
<g id="Abdomen-Plate_Heavy" fill="rgb(85, 82, 77)">
<path d="M78.16,60.86l-11.11,4.69L66,63.03l12.15-5.13V60.86z"/>
<path d="M70.94,74.95l-3.9-9.4l11.11-4.69l3.48,9.89L70.94,74.95z"/>
<path d="M66,63.03l-4.67,0.81l6.89,16.28l4.7-0.93L66,63.03z"/>
<path d="M91.84,60.86l11.11,4.69l1.04-2.52L91.84,57.9V60.86z"/>
<path d="M99.06,74.95l3.9-9.4l-11.11-4.69l-3.48,9.89L99.06,74.95z"/>
<path d="M104,63.03l4.67,0.81l-6.89,16.28l-4.7-0.93L104,63.03z"/>
<rect x="78.19" y="57.9" width="13.61" height="2.96"/>
<path d="M81.63,70.75l-3.48-9.89h13.69l-3.48,9.89H81.63z"/>
</g>
</g>
<g id="Neck-Armor_Heavy">
<g id="Neck-Plate_Heavy" fill="rgb(85, 82, 77)">
<path d="M69.69,11.62l-9.62,2.1c0,0,0.44,1.7,0.92,3.57c0.69,2.66,3.35,4.31,6.04,3.72h0 c1.26-0.27,2.35-1.05,3.03-2.15s0.88-2.42,0.56-3.67C70.13,13.33,69.69,11.62,69.69,11.62z"/>
<path d="M100.31,11.62l9.62,2.1c0,0-0.44,1.7-0.92,3.57c-0.68,2.66-3.35,4.31-6.04,3.72h0 c-1.26-0.27-2.35-1.05-3.03-2.15s-0.88-2.42-0.56-3.67C99.87,13.33,100.31,11.62,100.31,11.62z"/>
</g>
<g id="Secondary_Neck-Plate_Heavy" fill="rgb(118, 114, 107)">
<path d="M67.3,11.8l-4.84,1.06c0,0,0.35,1.36,0.69,2.67c0.34,1.34,1.69,2.16,3.04,1.87c0,0,0,0,0,0 c0.63-0.14,1.18-0.53,1.52-1.08c0.34-0.55,0.44-1.22,0.28-1.85C67.65,13.16,67.3,11.8,67.3,11.8z"/>
<path d="M102.7,11.8l4.84,1.06c0,0-0.35,1.36-0.69,2.67c-0.34,1.34-1.69,2.16-3.04,1.87c0,0,0,0,0,0 c-0.63-0.14-1.18-0.53-1.52-1.08c-0.34-0.55-0.44-1.22-0.28-1.85C102.35,13.16,102.7,11.8,102.7,11.8z"/>
</g>
</g>
<g id="Full-Chest_Heavy">
<path id="Under-Plate_Chest_Heavy" d="M90.5,54.56H79.5l-2.76,2.36v1.58l1.45-0.6h13.61l1.45,0.61v-1.59 L90.5,54.56z" fill="rgb(118, 114, 107)"/>
<g id="Chest-Plate_Heavy" fill="rgb(85, 82, 77)">
<path d="M65.78,61.66l9.75-5.63l1.32-2.67l2.6,0.35h11.11l2.6-0.35l1.32,2.67l9.75,5.63l4.53,0.99l-0.11,1.65 l-4.85-0.84l-10.54-4.37v-2.17l-2.76-2.36H79.5l-2.76,2.36v2.17l-10.54,4.37l-4.85,0.84l-0.11-1.65L65.78,61.66z"/>
<path d="M108.75,62.64l5.64-14.4l0.83,2.95l-1.79,10.71L108.75,62.64z"/>
<path d="M54.78,51.19l0.83-2.95l5.64,14.4l-4.68-0.74L54.78,51.19z"/>
<path d="M61.09,42.62v-6.02l-0.46-10.79l2.81-3.1l8.51-1.76l2.2,2.57h21.69l2.2-2.57l8.51,1.76l2.81,3.1 l-0.45,10.53l-0.01-0.02v6.31L93.15,53.36l-2.6,0.35H79.45l-2.6-0.35L61.09,42.62z"/>
<path d="M108.91,36.61v6.02l5.49,5.61L108.91,36.61z"/>
<path d="M76.85,53.36L61.09,42.62l-5.49,5.61l5.64,14.4l4.53-0.99l9.75-5.63L76.85,53.36z"/>
<path d="M114.4,48.24l-5.64,14.4l-4.53-0.99l-9.75-5.63l-1.32-2.67l15.75-10.74L114.4,48.24z"/>
<path d="M113.43,61.9l-0.19,1.15l-4.61,1.24l0.12-1.65L113.43,61.9z"/>
<path d="M61.09,36.61v6.02l-5.49,5.61L61.09,36.61z"/>
<path d="M60.63,25.82c-0.06,5.53-0.71,11.07-2.28,16.61l2.74-5.82L60.63,25.82z"/>
<path d="M109.38,25.82c0.06,5.53,0.72,11.07,2.28,16.61l-2.74-5.82L109.38,25.82z"/>
<path d="M61.25,62.64l0.11,1.65l-4.61-1.24l-0.19-1.15L61.25,62.64z"/>
</g>
<g id="Accents_Chest-Plate_Heavy" class="toggle" style="display: none;"/>
</g>
<g id="Iron-Heart_Heavy">
<path id="Heart_Heavy" d="M85,31.46l3.24,2.99v5.86L85,43.28l-3.24-2.98v-5.86L85,31.46z" fill="rgb(118, 14, 14)"/><g id="Center_Heart_Heavy" class="option" fill="rgb(85, 82, 77)" style="display: inherit;">
<rect x="83.82" y="34.53" width="2.36" height="2.84"/>
<rect x="83.82" y="37.37" width="0.39" height="2.84"/>
<rect x="85.39" y="37.37" width="0.39" height="2.84"/>
<rect x="85.79" y="37.37" width="0.39" height="2.84"/>
<rect x="84.6" y="37.37" width="0.39" height="2.84"/>
<rect x="85" y="37.37" width="0.39" height="2.84"/>
<rect x="84.21" y="37.37" width="0.39" height="2.84"/>
</g>
</g>
</g></g>
<g id="ChestDecals" mask="url(#ChestMask)">
</g>
<g id="Chest-Attachments"><g id="No-Device_Accessories_Chest" class="option" style="display: inherit;">
</g>
</g>
<g id="Collar"><g id="None_Collar" class="option" style="display: inherit;">
</g>
</g>
<g id="CollarDecals" mask="url(#CollarMask)">
</g>
<g id="Helmets" class="swappable" transform="translate(45,-52)"><g id="Helmet_Heavy">
<g id="Left-Earcap_Heavy" class="toggle">
<g id="Ear-Cap_Left_Heavy" fill="rgb(85, 82, 77)">
<path d="M54.94,25.01c1.66,2.23,2.81,4.85,3.28,7.69l0,0h3.59l-0.51-7.69H54.94z"/>
<path d="M61.31,25.01l1.84,1.03l0.34,5.52l-1.67,1.15L61.31,25.01z"/>
<path d="M60.03,32.71l0.34,9.18l0.65,1.08l-0.26-10.25H60.03z"/>
<path d="M61,42.11l0.5-0.75l-0.2-8.66h-0.54L61,42.11z"/>
<path d="M61.38,35.9l0.44-0.37v-2.46l-0.51-0.36L61.38,35.9z"/>
<path d="M58.94,49.14l1.59-0.02v-6.17h0.5l-0.65-1.08l-0.34-9.18h-1.8c0.16,0.95,0.24,1.92,0.24,2.9L58.94,49.14z"/>
<rect x="58.6" y="39.07" width="1.43" height="0.22"/>
<rect x="58.6" y="37.31" width="1.43" height="0.22"/>
<rect x="58.52" y="36.71" width="1.43" height="0.22"/>
<rect x="58.52" y="36.11" width="1.43" height="0.22"/>
<rect x="58.47" y="35.52" width="1.43" height="0.22"/>
<rect x="58.47" y="34.92" width="1.43" height="0.22"/>
</g></g>
<g id="Right-Earcap_Heavy" class="toggle">
<g id="Ear-Cap_Right_Heavy" fill="rgb(85, 82, 77)">
<path d="M25.04,25.01c-1.66,2.23-2.81,4.85-3.28,7.69l0,0h-3.59l0.51-7.69H25.04z"/>
<path d="M18.68,25.01l-1.84,1.03l-0.34,5.52l1.67,1.15L18.68,25.01z"/>
<path d="M19.95,32.71l-0.34,9.18l-0.65,1.08l0.25-10.25H19.95z"/>
<path d="M18.99,42.11l-0.5-0.75l0.2-8.66h0.54L18.99,42.11z"/>
<path d="M18.61,35.9l-0.44-0.37v-2.46l0.51-0.36L18.61,35.9z"/>
<path d="M21.05,49.14l-1.59-0.02v-6.17h-0.49l0.65-1.08l0.34-9.18h1.8c-0.16,0.95-0.24,1.92-0.24,2.9L21.05,49.14z"/>
<rect x="19.95" y="39.07" width="1.43" height="0.22"/>
<rect x="19.95" y="37.31" width="1.43" height="0.22"/>
<rect x="20.04" y="36.71" width="1.43" height="0.22"/>
<rect x="20.04" y="36.11" width="1.43" height="0.22"/>
<rect x="20.08" y="35.52" width="1.43" height="0.22"/>
<rect x="20.08" y="34.92" width="1.43" height="0.22"/>
</g></g>
<g id="Helmet_Pieces_Heavy">
<g id="Face_Heavy" fill="rgb(118, 114, 107)">
<path d="M25.69,45c2.36,1.56,5.22,3.52,6.16,4.47c1.16,1.17,2.84,8.76,3.8,13.48l-2.03-0.54l-9.73-12.64L25.69,45z"/>
<path d="M54.29,45c-2.36,1.56-5.22,3.52-6.16,4.47c-1.16,1.17-2.84,8.76-3.8,13.48l2.03-0.54l9.73-12.64L54.29,45z"/>
</g>
<g id="Cheeks_Heavy" fill="rgb(85, 82, 77)">
<path d="M25.69,45l-1.8,4.78l-2.95,2.3l1.28-9.31L25.69,45z"/>
<g>
<path d="M54.29,45l1.8,4.78l2.95,2.3l-1.28-9.31L54.29,45z"/>
<path d="M59.04,52.07l-9.91,14.34l-2.76-4.01l9.72-12.63L59.04,52.07z"/>
<path d="M46.38,62.41l-2.05,0.54l-0.73,3.77l5.54-0.31L46.38,62.41z"/>
</g>
<path d="M20.94,52.07l9.91,14.34l2.76-4.01l-9.72-12.63L20.94,52.07z"/>
<path d="M33.61,62.41l2.05,0.54l0.73,3.77l-5.53-0.31L33.61,62.41z"/>
</g>
<path fill="rgb(118, 14, 14)" id="Visor_Heavy" d="M42.24,63.37l1.36,3.35h-7.21l1.36-3.35l-1.28-16.74l0.26-3.53c0,0-4.8-0.86-6.61-1.37 c-1.8-0.51-6.16-1.95-6.23-1.97l0.02-1.41l16.08,0.71l16.1-0.71v1.41c0,0-4.42,1.46-6.23,1.97c-1.81,0.51-6.61,1.37-6.61,1.37 l0.26,3.53L42.24,63.37z"/>
<g id="Eyes_Heavy" fill="rgb(85, 82, 77)">
<path d="M58.47,35.61l0.58,16.47l-1.28-9.31c0,0-7.93,5-9.63,6.71c-1.7,1.71-4.53,17.26-4.53,17.26l-1.36-3.35 l1.28-16.74c0,0,6.08-2.57,7.44-3.32c1.36-0.75,6.16-3.49,6.16-3.49l-0.08-1.51l-17.05,0.75l-17.05-0.75l-0.08,1.51 c0,0,4.8,2.74,6.16,3.49c1.36,0.75,7.44,3.32,7.44,3.32l1.28,16.74l-1.36,3.35c0,0-2.83-15.54-4.53-17.26 c-1.7-1.71-9.63-6.71-9.63-6.71l-1.28,9.31l0.58-16.47H58.47z"/>
<path d="M22.87,39.82l1.02-0.06c0,0,4.42,1.46,6.23,1.97c1.81,0.51,6.61,1.37,6.61,1.37l-0.26,3.53 c0,0-6.08-2.57-7.44-3.32C27.67,42.56,22.87,39.82,22.87,39.82z"/>
<path d="M57.12,39.82l-1.02-0.06c0,0-4.42,1.46-6.23,1.97c-1.81,0.51-6.61,1.37-6.61,1.37l0.26,3.53 c0,0,6.08-2.57,7.44-3.32C52.32,42.56,57.12,39.82,57.12,39.82z"/>
<path d="M23.89,39.76v-1.41l-0.94-0.04l-0.08,1.51L23.89,39.76z"/>
<path d="M56.1,39.76v-1.41l0.94-0.04l0.08,1.51L56.1,39.76z"/>
</g>
<path id="Dome_Heavy" d="M58.47,35.61H21.52c0-9.96,8.28-18.05,18.47-18.05C50.19,17.56,58.47,25.65,58.47,35.61z" fill="rgb(118, 114, 107)"/>
<rect id="Ridge_Heavy" class="toggle" x="39.36" y="16.96" width="1.26" height="18.65" fill="rgb(85, 82, 77)"/>
<g id="Accents_Heavy" class="toggle" fill="rgb(118, 114, 107)">
<path d="M32.19,34.14l-0.99-1.8h1.99L32.19,34.14z"/>
<path d="M35.61,34.14l-0.99-1.8h1.99L35.61,34.14z"/>
</g>
</g>
</g></g>
<g id="HelmetsDecals" mask="url(#HelmetsMask)"/>
<g id="Shoulders">
<g id="Left-Shoulder"><g id="Heavy-Bell_Shoulder_Left" class="option" style="display: inherit;">
<path id="Bottom_Heavy-Bell_Shoulder_Left" d="M134.61,36.51l1.4,4.86c-2.24,1.48-4.16,2.44-5.75,3.05 c-1.43,0.53-3.01,0.43-4.37-0.26c-1.36-0.69-2.36-1.92-2.77-3.39c-0.01,0-0.01,0-0.01,0L134.61,36.51z" fill="rgb(118, 114, 107)"/>
<path id="Main_Heavy-Bell_Shoulder_Left" d="M109.45,14.02L109.45,14.02c10.96-2.48,21.37,2.17,23.25,10.39 c1.41,6.16,2.62,11.46,2.62,11.46c-4.75,4.52-12.82,5.9-20.34,5.84C110.99,32.62,109.87,23.62,109.45,14.02" fill="rgb(174, 70, 6)"/>
<g id="Trim_Heavy-Bell_Shoulder_Left" class="toggle" fill="rgb(85, 82, 77)">
<path d="M124.45,40.27c0.37,1.13,0.88,2.18,1.93,2.74c1.11,0.59,2.39,0.47,3.58,0.09c1.55-0.49,3.6-1.67,5.92-3.11 l0.36,1.25c-2.68,1.96-5.1,3.09-6.86,3.66c-1.2,0.38-2.65,0.15-3.75-0.44c-1.11-0.59-1.92-1.6-2.26-2.81 c-0.15-0.52-0.25-0.88-0.25-0.88L124.45,40.27z"/>
<path d="M111.31,13.45c0.5,8.79,1.54,17.37,5.22,25.78c6.65,0.05,13.73-2.16,18.56-5.52l0.44,1.94 c-5.06,4.85-13.04,6.12-20.56,6.06c-3.99-9.09-5.1-18.32-5.53-27.91C109.45,13.81,110.76,13.54,111.31,13.45z"/>
</g>
</g></g>
<g id="Right-Shoulder"><g id="Heavy-Bell_Shoulder_Right" class="option" style="display: inherit;">
<path id="Bottom_Heavy-Bell_Shoulder_Right" d="M35.39,36.51l-1.4,4.86c2.25,1.48,4.16,2.44,5.75,3.05 c1.43,0.53,3.01,0.43,4.37-0.26c1.36-0.69,2.36-1.92,2.78-3.39c0.01,0,0.01,0,0.01,0L35.39,36.51z" fill="rgb(118, 114, 107)"/>
<path id="Main_Heavy-Bell_Shoulder_Right" d="M60.55,14.02L60.55,14.02c-10.96-2.48-21.37,2.17-23.24,10.39 c-1.41,6.16-2.62,11.46-2.62,11.46c4.75,4.52,12.81,5.9,20.34,5.84C59.01,32.62,60.13,23.62,60.55,14.02" fill="rgb(174, 70, 6)"/>
<g id="Trim_Heavy-Bell_Shoulder_Right" class="toggle" fill="rgb(85, 82, 77)">
<path d="M45.55,40.27c-0.37,1.13-0.88,2.18-1.93,2.74c-1.1,0.59-2.39,0.47-3.58,0.09c-1.55-0.49-3.6-1.67-5.92-3.11 l-0.36,1.25c2.68,1.96,5.09,3.09,6.86,3.66c1.2,0.38,2.65,0.15,3.75-0.44c1.11-0.59,1.92-1.6,2.26-2.81 c0.15-0.52,0.25-0.88,0.25-0.88L45.55,40.27z"/>
<path d="M58.69,13.45c-0.5,8.79-1.54,17.37-5.22,25.78c-6.65,0.05-13.73-2.16-18.56-5.52l-0.44,1.94 c5.06,4.85,13.04,6.12,20.56,6.06c3.99-9.09,5.1-18.32,5.53-27.91C60.55,13.81,59.24,13.54,58.69,13.45z"/>
</g>
</g></g>
</g>
<g id="ShouldersDecals" mask="url(#ShouldersMask)">
</g>
<g id="Gauntlets">
<g id="Left-Gauntlets"><g id="Heavy_Gauntlet_Left" class="option" style="display: inherit;">
<g id="Top-2_Heavy_Gauntlet_Left" fill="rgb(118, 14, 14)">
<path d="M140.68,79.64l1.74,0.13l1.43,8.11l-1.48,1.23L140.68,79.64z"/>
<path d="M142.25,88.39l1.82,10.57l-0.95,1.28l1.11,6.22l-0.44,0.32l-3.07-17.02L142.25,88.39z"/>
<ellipse cx="142.26" cy="85.76" rx="0.38" ry="0.38"/>
</g>
<g id="Top-1_Heavy_Gauntlet_Left" fill="rgb(118, 114, 107)">
<path d="M139.42,107.96l4.36-1.17l-3.07-17.02l1.54-1.38l-1.66-9.27l-6.59-0.67L139.42,107.96z"/>
<path d="M138.89,78.94l1.82,10.82"/>
</g>
<g id="Accent-Top_Heavy_Gauntlet_Left" fill="rgb(118, 14, 14)">
<path d="M142.53,104.17l-2.77,0.56l0.42,2.15l2.77-0.65L142.53,104.17z"/>
<path d="M140.78,95.16l-2.77,0.56l1.62,8.4l2.77-0.56L140.78,95.16z"/>
<path d="M138.29,79.56l-3.13-0.24l1.64,9.21l2.91-0.59L138.29,79.56z"/>
</g>
<path id="Bottom_Heavy_Gauntlet_Left" d="M134.08,78.88c-3.37,0.13-6.88,1.57-9.06,4.4 c-0.71,0.92-0.92,2.12-0.58,3.22c1.64,5.35,7.01,22.84,7.01,22.84l7.98-1.39L134.08,78.88z" fill="rgb(118, 14, 14)"/>
<g id="Accent-Bottom_Heavy_Gauntlet_Left" fill="rgb(85, 82, 77)">
<path d="M139.42,107.96l-7.98,1.39l-0.43-1.41l8.13-1.52L139.42,107.96z"/>
<path d="M134.44,80.86c-4.35,0.43-7.98,2.01-9.69,6.7l-0.32-1.04c-0.27-0.87-0.19-1.8,0.2-2.61l0.41-0.65 c2.19-2.81,5.68-4.24,9.03-4.37L134.44,80.86z"/>
<path d="M133.31,79.53l-3.52,0.69l2.77,13.89l3.52-0.69L133.31,79.53z"/>
<path d="M132.9,79.88l-2.59,0.51l2.56,12.85l2.59-0.51L132.9,79.88z"/>
<path d="M130.3,80.39l-0.51-0.17"/>
<path d="M133.31,79.53l-0.41,0.35"/>
<path d="M136.08,93.42l-0.62-0.7"/>
<path d="M132.56,94.12l0.37-0.89"/>
</g><g id="No-Device_Attachment_Heavy_Gauntlet_Left" class="option" style="display: inherit;">
</g>
</g></g>
<g id="Right-Gauntlets"><g id="Heavy_Gauntlet_Right" class="option" style="display: inherit;">
<g id="Top-2_Heavy_Gauntlet_Right" fill="rgb(118, 14, 14)">
<path d="M29.5,79.64l-1.74,0.13l-1.43,8.11l1.48,1.23L29.5,79.64z"/>
<path d="M27.93,88.39l-1.82,10.57l0.95,1.28l-1.11,6.22l0.44,0.32l3.07-17.02L27.93,88.39z"/>
<ellipse cx="27.92" cy="85.76" rx="0.38" ry="0.38"/>
</g>
<g id="Top-1_Heavy_Gauntlet_Right" fill="rgb(118, 114, 107)">
<path d="M30.76,107.96l-4.36-1.17l3.07-17.02l-1.54-1.38l1.66-9.27l6.59-0.67L30.76,107.96z"/>
<path d="M31.29,78.94l-1.82,10.82"/>
</g>
<g id="Accent-Top_Heavy_Gauntlet_Right" fill="rgb(118, 14, 14)">
<path d="M27.66,104.17l2.77,0.56l-0.42,2.15l-2.77-0.65L27.66,104.17z"/>
<path d="M29.4,95.16l2.77,0.56l-1.62,8.4l-2.77-0.56L29.4,95.16z"/>
<path d="M31.89,79.56l3.13-0.24l-1.64,9.21l-2.91-0.59L31.89,79.56z"/>
</g>
<path id="Bottom_Heavy_Gauntlet_Right" d="M36.11,78.88c3.37,0.13,6.88,1.57,9.06,4.4 c0.71,0.92,0.92,2.12,0.58,3.22c-1.64,5.35-7.01,22.84-7.01,22.84l-7.98-1.39L36.11,78.88z" fill="rgb(118, 14, 14)"/>
<g id="Accent-Bottom_Heavy_Gauntlet_Right" fill="rgb(85, 82, 77)">
<path d="M30.76,107.96l7.98,1.39l0.43-1.41l-8.13-1.52L30.76,107.96z"/>
<path d="M35.74,80.86c4.35,0.43,7.98,2.01,9.69,6.7l0.32-1.04c0.27-0.87,0.19-1.8-0.2-2.61l-0.41-0.65 c-2.19-2.81-5.68-4.24-9.03-4.37L35.74,80.86z"/>
<path d="M36.88,79.53l3.52,0.69l-2.77,13.89l-3.52-0.69L36.88,79.53z"/>
<path d="M37.29,79.88l2.59,0.51l-2.56,12.85l-2.59-0.51L37.29,79.88z"/>
<path d="M39.88,80.39l0.51-0.17"/>
<path d="M36.88,79.53l0.41,0.35"/>
<path d="M34.1,93.42l0.62-0.7"/>
<path d="M37.62,94.12l-0.37-0.89"/>
</g><g id="No-Device_Attachment_Heavy_Gauntlet_Right" class="option" style="display: inherit;">
</g>
</g></g>
</g>
<g id="GauntletsDecals" mask="url(#GauntletsMask)">
</g>
<g id="Shins">
<g id="Left-Shin"><g id="Heavy-Shnees_Shin_Left" class="option" style="display: inherit;">
<g id="Shin_Heavy-Shnees-Shin_Left" fill="rgb(118, 114, 107)">
<path d="M112.07,224.31l4.68-6.1l8.52-1.02l-6.09-55.58l-24.29,3.02l12.33,51.48l0.09,5.64L112.07,224.31"/>
<path d="M98.68,163.41l-2.62-2.14h-1.73c0,0-0.8,4.95-0.63,7.41c0.28,3.98,4.34,9.06,4.34,9.06l2.69,1.26l3.01-6.94 L98.68,163.41"/>
<path d="M116.83,168.97l1.64-8.34c0,0,2.41,4.71,2.64,7.17c0.41,4.36-0.46,7.23-0.46,7.23L116.83,168.97"/>
<path d="M116.75,218.21l8.52-1.02l-2.11-4.26l-5.82,0.52L116.75,218.21"/>
<path d="M120.15,213.19l-6.83-36.52"/>
</g>
<g id="Knee_Heavy-Shnees-Shin_Left" fill="rgb(174, 70, 6)">
<path d="M113.99,153.2l-13.68,2.29l-2.04,9.89l10.06,12.11l9.04-1.28l2.9-14.95L113.99,153.2"/>
<path d="M100.31,155.49l2.93,3.55l10.59-1.66l0.16-4.18L100.31,155.49"/>
<path d="M103.24,159.04l-4.97,6.31l2.03-9.86L103.24,159.04"/>
<path d="M113.83,157.38l6.44,3.88l-6.28-8.06L113.83,157.38"/>
<path d="M113.83,157.38l3.54,18.83l2.9-14.95L113.83,157.38"/>
<path d="M103.24,159.04l-4.97,6.31l10.06,12.15L103.24,159.04"/>
</g>
<g id="Straps_Heavy-Shnees-Shin_Left" class="toggle" fill="rgb(139, 87, 42)">
<path d="M99.72,186.35l5.22-0.86l0.54,2.35l-5.22,0.86L99.72,186.35"/>
<path d="M100.07,186.1l1.11-0.18l0.64,2.78l-1.11,0.18L100.07,186.1"/>
<path d="M105.1,209.05l5.22-0.86l0.54,2.35l-5.22,0.86L105.1,209.05"/>
<path d="M105.44,208.8l1.1-0.18l0.64,2.78l-1.11,0.18L105.44,208.8"/>
</g>
</g></g>
<g id="Right-Shin"><g id="Heavy-Shnees_Shin_Right" class="option" style="display: inherit;">
<g id="Shin_Heavy-Shnees-Shin_Right" fill="rgb(118, 114, 107)">
<path d="M57.82,224.31l-4.68-6.1l-8.52-1.02l6.09-55.58l24.29,3.02l-12.33,51.48l-0.09,5.64L57.82,224.31"/>
<path d="M71.22,163.41l2.62-2.14h1.73c0,0,0.8,4.95,0.63,7.41c-0.28,3.98-4.34,9.06-4.34,9.06L69.18,179l-3.01-6.94 L71.22,163.41"/>
<path d="M53.06,168.97l-1.64-8.34c0,0-2.41,4.71-2.64,7.17c-0.41,4.36,0.46,7.23,0.46,7.23L53.06,168.97"/>
<path d="M53.14,218.21l-8.52-1.02l2.11-4.26l5.82,0.52L53.14,218.21"/>
<path d="M49.74,213.19l6.84-36.52"/>
</g>
<g id="Knee_Heavy-Shnees-Shin_Right" fill="rgb(174, 70, 6)">
<path d="M55.9,153.2l13.68,2.29l2.04,9.89l-10.06,12.11l-9.04-1.28l-2.9-14.95L55.9,153.2"/>
<path d="M69.58,155.49l-2.93,3.55l-10.59-1.66l-0.16-4.18L69.58,155.49"/>
<path d="M66.65,159.04l4.97,6.31l-2.04-9.86L66.65,159.04"/>
<path d="M56.06,157.38l-6.44,3.88l6.28-8.06L56.06,157.38"/>
<path d="M56.06,157.38l-3.54,18.83l-2.9-14.95L56.06,157.38"/>
<path d="M66.65,159.04l4.97,6.31l-10.06,12.15L66.65,159.04"/>
</g>
<g id="Straps_Heavy-Shnees-Shin_Right" class="toggle" fill="rgb(139, 87, 42)">
<path d="M70.17,186.35l-5.22-0.86l-0.54,2.35l5.22,0.86L70.17,186.35"/>
<path d="M69.82,186.1l-1.1-0.18l-0.64,2.78l1.11,0.18L69.82,186.1"/>
<path d="M64.8,209.05l-5.22-0.86l-0.54,2.35l5.22,0.86L64.8,209.05"/>
<path d="M64.45,208.8l-1.11-0.18l-0.64,2.78l1.1,0.18L64.45,208.8"/>
</g>
</g></g>
</g>
<g id="ShinsDecals" mask="url(#ShinsMask)">
</g>
<g id="Foot">
<g id="Left-Ankle"><g id="Heavy_Ankle_Left" class="option" style="display: inherit;">
<path id="Plate_Heavy-Ankle_Left" d="M107.19,218.98l0.36,3.6l7.43,9.26l7.24-3.25l7.88-2.03l-5.95-10.52 c-3.01-0.42-6.51-0.06-10.55,1.15l-2.25,1.97L107.19,218.98" fill="rgb(118, 14, 14)"/>
<path id="Trim_Heavy-Ankle_Left" d="M113.6,217.2l0.85,1.02l-2.65,2.25l-3-0.13l0.11,1.46l6.44,7.92l6.46-3.01 l7.78-1.84l0.81,1.62l-8.16,2.1l-7.24,3.25l-7.43-9.26l-0.36-3.6l4.16,0.18L113.6,217.2" fill="rgb(85, 82, 77)"/>
</g></g>
<g id="Left-Toe">
<g id="Armored_Toe_Left" class="option" style="display: inherit;">
<g id="Plate_Armored_Toe_Left" fill="rgb(118, 14, 14)">
<path d="M119.07,233.15l9.63,5.32l7.27,0.49l5.83-1.47c1.22-1.01,1.71-3.29,0.66-5.55l-8.21-3.88l-6.44,1.61 L119.07,233.15"/>
<path d="M127.13,229.95c0,0,7.51,2.19,8.45,3.48c1.04,1.44,0.39,5.53,0.39,5.53"/>
</g>
<g id="Trim_Armored_Toe_Left" fill="rgb(85, 82, 77)">
<path d="M133.13,227.42l-7.73,1.86l-6.52,3.94l1.35,0.74l6.91-4.02l7.7-1.8L133.13,227.42"/>
<path d="M125.39,229.29l1.74,0.66"/>
</g>
</g></g>
<g id="Right-Ankle"><g id="Heavy_Ankle_Right" class="option" style="display: inherit;">
<path id="Plate_Heavy-Ankle_Right" d="M62.68,218.98l-0.36,3.6l-7.43,9.26l-7.24-3.25l-7.88-2.03l5.95-10.52 c3-0.42,6.51-0.06,10.55,1.15l2.25,1.97L62.68,218.98" fill="rgb(118, 14, 14)"/>
<path id="Trim_Heavy-Ankle_Right" d="M56.27,217.2l-0.85,1.02l2.65,2.25l3.01-0.13l-0.11,1.46l-6.44,7.92 l-6.46-3.01l-7.78-1.84l-0.81,1.62l8.16,2.1l7.24,3.25l7.43-9.26l0.36-3.6l-4.16,0.18L56.27,217.2" fill="rgb(85, 82, 77)"/>
</g></g>
<g id="Right-Toe">
<g id="Armored_Toe_Right" class="option" style="display: inherit;">
<g id="Plate_Armored_Toe_Right" fill="rgb(118, 14, 14)">
<path d="M50.81,233.15l-9.63,5.32l-7.27,0.49l-5.83-1.47c-1.22-1.01-1.71-3.29-0.66-5.55l8.21-3.88l6.44,1.61 L50.81,233.15"/>
<path d="M42.74,229.95c0,0-7.51,2.19-8.45,3.48c-1.04,1.44-0.39,5.53-0.39,5.53"/>
</g>
<g id="Trim_Armored_Toe_Right" fill="rgb(85, 82, 77)">
<path d="M36.75,227.42l7.73,1.86l6.52,3.94l-1.35,0.74l-6.91-4.02l-7.7-1.8L36.75,227.42"/>
<path d="M44.48,229.29l-1.74,0.66"/>
</g>
</g></g>
</g>
<g id="FootDecals" mask="url(#FootMask)">
</g>
<g id="Knees">
<g id="Left-Knee"><g id="Heavy_Knee_Left" class="option" style="display: inherit;">
<g id="Missiles_Heavy-Knee_Left" class="toggle" style="">
<path id="Base_Missiles_Heavy-Knee_Left" d="M118.65,160.1l1.78,9.57l2.09-1.68c0.34-0.27,0.51-0.71,0.43-1.14 c-0.21-1.3-0.68-4.13-0.92-5.62c-0.09-0.56-0.57-0.98-1.14-1.01L118.65,160.1z" fill="rgb(118, 114, 107)"/>
<g id="Missile-2_Missiles_Heavy-Knee_Left" fill="rgb(235, 137, 4)">
<path d="M121.04,165.37c-0.55,0.15-0.88,0.71-0.73,1.26s0.72,0.88,1.28,0.73c0.56-0.15,0.88-0.71,0.73-1.26 C122.16,165.55,121.59,165.22,121.04,165.37z"/>
<path d="M121.14,165.69c-0.37,0.1-0.59,0.48-0.49,0.85c0.1,0.37,0.49,0.59,0.86,0.49c0.37-0.1,0.59-0.48,0.49-0.85 C121.89,165.82,121.51,165.6,121.14,165.69z"/>
</g>
<g id="Missile-1_Missiles_Heavy-Knee_Left" fill="rgb(118, 14, 14)">
<path d="M120.28,160.95c-0.55,0.15-0.88,0.71-0.73,1.26c0.15,0.55,0.73,0.88,1.28,0.73 c0.56-0.15,0.88-0.71,0.73-1.26C121.41,161.13,120.83,160.8,120.28,160.95z"/>
<path d="M120.38,161.27c-0.37,0.1-0.59,0.48-0.49,0.85c0.1,0.37,0.49,0.59,0.86,0.49c0.37-0.1,0.59-0.48,0.49-0.85 C121.14,161.39,120.75,161.17,120.38,161.27z"/>
</g>
</g>
<path id="Plate-2_Heavy-Knee_Left" d="M116.81,155.76l-2.86-1.72l-14.26,2.44l-2.07,2.56l2.79,14.21l5.62,0.13 l8.01-1.37l5.57-2L116.81,155.76z" fill="rgb(118, 114, 107)"/>
<g id="Plate-1_Heavy-Knee_Left" fill="rgb(235, 137, 4)">
<path d="M116.12,156.54l-2.63-1.66l-13.05,2.23l-1.88,2.44l2.7,13.71l4.78,0.12l8.01-1.37l4.78-1.75L116.12,156.54z "/>
<path d="M111.54,158.46l-8.01,1.37l2.49,13.54l4.15-0.16l3.86-1.21L111.54,158.46z"/>
<path d="M103.54,159.83l-3.1-2.72l-1.88,2.44L103.54,159.83z"/>
<path d="M111.54,158.46l1.94-3.58l2.63,1.66L111.54,158.46z"/>
</g>
<g id="Trim_Heavy-Knee_Left" fill="rgb(118, 14, 14)">
<path d="M97.66,163.92l-0.44,1.08l1.58,8.58l0.62-0.11L97.66,163.92z"/>
<path d="M112.41,167.96l-6.28,1.07l0.62,3.35l6.29-1.08L112.41,167.96z"/>
<path d="M98.28,162.37l-0.88,0.15l2.02,10.95l1.02-0.18l-0.01-0.04l-0.02,0L98.28,162.37z"/>
<path d="M117.66,160.09l1.94,9.91l-0.18,0.06l1.03-0.18l-1.83-9.96L117.66,160.09z"/>
</g>
</g></g>
<g id="Right-Knee"><g id="Heavy_Knee_Right" class="option" style="display: inherit;">
<g id="Missiles_Heavy-Knee_Right" class="toggle" style="">
<path id="Base_Missiles_Heavy-Knee_Right" d="M51.24,160.1l-1.78,9.57l-2.09-1.68c-0.34-0.27-0.51-0.71-0.43-1.14 c0.21-1.3,0.68-4.13,0.92-5.62c0.09-0.56,0.57-0.98,1.14-1.01L51.24,160.1z" fill="rgb(118, 114, 107)"/>
<g id="Missile-2_Missiles_Heavy-Knee_Right" fill="rgb(235, 137, 4)">
<path d="M48.85,165.37c0.55,0.15,0.88,0.71,0.73,1.26c-0.15,0.55-0.72,0.88-1.28,0.73 c-0.55-0.15-0.88-0.71-0.73-1.26C47.73,165.55,48.3,165.22,48.85,165.37z"/>
<path d="M48.76,165.69c0.37,0.1,0.59,0.48,0.49,0.85c-0.1,0.37-0.49,0.59-0.86,0.49c-0.37-0.1-0.59-0.48-0.49-0.85 S48.38,165.6,48.76,165.69z"/>
</g>
<g id="Missile-1_Missiles_Heavy-Knee_Right" fill="rgb(118, 14, 14)">
<path d="M49.61,160.95c0.56,0.15,0.88,0.71,0.73,1.26c-0.15,0.55-0.73,0.88-1.28,0.73 c-0.55-0.15-0.88-0.71-0.73-1.26C48.49,161.13,49.06,160.8,49.61,160.95z"/>
<path d="M49.52,161.27c0.37,0.1,0.59,0.48,0.49,0.85c-0.1,0.37-0.49,0.59-0.86,0.49c-0.37-0.1-0.59-0.48-0.49-0.85 C48.76,161.39,49.14,161.17,49.52,161.27z"/>
</g>
</g>
<path id="Plate-2_Heavy-Knee_Right" d="M53.08,155.76l2.86-1.72l14.26,2.44l2.07,2.56l-2.79,14.21l-5.62,0.13 l-8.01-1.37l-5.57-2L53.08,155.76z" fill="rgb(118, 114, 107)"/>
<g id="Plate-1_Heavy-Knee_Right" fill="rgb(235, 137, 4)">
<path d="M53.77,156.54l2.63-1.66l13.05,2.23l1.88,2.44l-2.7,13.71l-4.78,0.12l-8.01-1.37l-4.78-1.75L53.77,156.54z"/>
<path d="M58.35,158.46l8.01,1.37l-2.49,13.54l-4.15-0.16l-3.86-1.21L58.35,158.46z"/>
<path d="M66.35,159.83l3.1-2.72l1.88,2.44L66.35,159.83z"/>
<path d="M58.35,158.46l-1.94-3.58l-2.63,1.66L58.35,158.46z"/>
</g>
<g id="Trim_Heavy-Knee_Right" fill="rgb(118, 14, 14)">
<path d="M72.23,163.92l0.44,1.08l-1.58,8.58l-0.62-0.11L72.23,163.92z"/>
<path d="M57.49,167.96l6.28,1.07l-0.62,3.35l-6.28-1.08L57.49,167.96z"/>
<path d="M71.61,162.37l0.88,0.15l-2.02,10.95l-1.03-0.18l0.01-0.04l0.02,0L71.61,162.37z"/>
<path d="M52.23,160.09L50.28,170l0.18,0.06l-1.03-0.18l1.83-9.96L52.23,160.09z"/>
</g>
</g></g>
</g>
<g id="KneesDecals" mask="url(#KneesMask)">
</g>
<g id="Thighs">
<g id="Left-Thigh"><g id="Heavy_Thigh_Left" class="option" style="display: inherit;">
<g id="Thigh_Heavy-Thigh_Left" fill="rgb(85, 82, 77)">
<path d="M97.62,118.12l-5.78,7.32l6.6,26.24l4.49,1.59l-3.13-29.91L97.62,118.12"/>
<path d="M112.37,116.59l7.17,5.98l-1.03,27.03l-4.06,2.47l-3.13-29.91L112.37,116.59"/>
<path d="M112.37,116.59l-14.76,1.52l2.19,5.24l11.51-1.19L112.37,116.59"/>
<path d="M111.32,122.17l-11.51,1.19l3.13,29.91l11.51-1.19L111.32,122.17"/>
</g>
<g id="Trim_Heavy-Thigh_Left" fill="rgb(118, 14, 14)">
<path d="M112.95,114.3l-16.38,1.69l1.04,2.13l14.76-1.52L112.95,114.3"/>
<path d="M119.26,120.01l-6.31-5.72l-0.58,2.3l7.17,5.98L119.26,120.01"/>
<path d="M91.59,122.87l4.99-6.88l1.04,2.13l-5.78,7.32L91.59,122.87"/>
</g>
</g></g>
<g id="Right-Thigh"><g id="Heavy_Thigh_Right" class="option" style="display: inherit;">
<g id="Thigh_Heavy-Thigh_Right" fill="rgb(85, 82, 77)">
<path d="M72.28,118.12l5.78,7.32l-6.6,26.24l-4.49,1.59l3.13-29.91L72.28,118.12"/>
<path d="M57.52,116.59l-7.17,5.98l1.03,27.03l4.06,2.47l3.13-29.91L57.52,116.59"/>
<path d="M57.52,116.59l14.76,1.52l-2.19,5.24l-11.51-1.19L57.52,116.59"/>
<path d="M58.58,122.17l11.51,1.19l-3.13,29.91l-11.51-1.19L58.58,122.17"/>
</g>
<g id="Trim_Heavy-Thigh_Right" fill="rgb(118, 14, 14)">
<path d="M56.94,114.3l16.38,1.69l-1.04,2.13l-14.76-1.52L56.94,114.3"/>
<path d="M50.63,120.01l6.31-5.72l0.58,2.3l-7.17,5.98L50.63,120.01"/>
<path d="M78.31,122.87l-4.99-6.88l-1.04,2.13l5.78,7.32L78.31,122.87"/>
</g>
</g></g>
</g>
<g id="ThighsDecals" mask="url(#ThighsMask)">
</g>
<g id="Groin"><g id="Basic_Groin" class="option" style="display: inherit;">
<path id="Groin-Plate_Basic" d="M78.67,122.29L68.22,99.4h33.42l-10.45,22.89l-6.26,5.46L78.67,122.29z" fill="rgb(118, 14, 14)"/>
<path id="Trauma-Plating_Groin" class="toggle" style="" d="M79.77,120.38l-8.61-18.86H98.7l-8.61,18.86l-5.16,4.49L79.77,120.38z" fill="rgb(118, 114, 107)"/>
</g>
</g>
<g id="GroinDecals" mask="url(#GroinMask)">
</g>
<g id="Waist">
<g id="Accessories_Waist">
<g id="Kama" class="toggle" style="display:none"/>
<g id="Loin-Cloth" class="toggle" style="display:none"/>
<g id="Left-Holster" class="toggle" style=""><g id="Belt-Holster_Left" class="option" style="display: inherit;">
<g id="Weapon_Belt-Holster-Left">
<g id="Main_Weapon_Belt-Holster-Left" fill="rgb(85, 82, 77)">
<path d="M116.79,99.11l-0.24-3.6l0.62-0.04l-0.15-2.26l-0.62,0.04l-0.08-1.18c-0.03-0.38,0.46-0.73,1.1-0.77 c1.45-0.1,3.93-0.26,5.37-0.36c0.63-0.04,1.17,0.23,1.19,0.62l0.08,1.18l-0.62,0.04l0.15,2.26l0.62-0.04l0.24,3.6l-1.46,0.1 l0.67,9.95l-4.73,0.31l-0.67-9.95L116.79,99.11z"/>
<path d="M123.79,98.11l-0.84,0.06l0.8,11.96l-4.73,0.31l-0.8-11.96l-0.84,0.06l-0.18-2.73l6.41-0.42L123.79,98.11 z"/>
<path d="M122.05,91.78l-3.8,0.25l0.25,3.69l3.8-0.25L122.05,91.78z"/>
<path d="M119.38,99.49l-0.62,0.04l0.63,9.4l0.62-0.04L119.38,99.49z"/>
<path d="M120.82,97.23l-0.62,0.04l0.63,9.4l0.62-0.04L120.82,97.23z"/>
<path d="M122.56,99.28l-0.62,0.04l0.63,9.4l0.62-0.04L122.56,99.28z"/>
</g>
<g id="Accent_Weapon_Belt-Holster-Left" fill="rgb(118, 114, 107)">
<path d="M119.09,96.06l0.03,0.38l2.68-0.18l-0.03-0.38L119.09,96.06z"/>
<path d="M119.11,96.44l0.03,0.38l2.68-0.18l-0.03-0.38L119.11,96.44z"/>
<path d="M119.06,95.68l0.02,0.38l2.68-0.18l-0.03-0.38L119.06,95.68z"/>
<path d="M118.75,91.05l0.03,0.38l2.68-0.18l-0.03-0.38L118.75,91.05z"/>
<path d="M118.88,91.99l-0.62,0.04l0.25,3.69l0.62-0.04L118.88,91.99z"/>
<path d="M122.05,91.78l-0.62,0.04l0.25,3.69l0.62-0.04L122.05,91.78z"/>
<path d="M121.93,99.32l-0.94,0.06l0.63,9.4l0.94-0.06L121.93,99.32z"/>
<path d="M120.33,99.42l-0.94,0.06l0.63,9.4l0.94-0.06L120.33,99.42z"/>
</g>
</g>
<path id="Holster_Belt-Holster-Left" d="M118.4,112.89l-2.47-14.99l8.29,10.56l0.79,20.68 c-1.44,1.89-3.04,2.08-4.84,0.36L118.4,112.89z" fill="rgb(139, 87, 42)"/>
</g>
</g>
<g id="Right-Holster" class="toggle" style=""><g id="Belt-Holster_Right" class="option" style="display: inherit;">
<g id="Weapon_Belt-Holster-Right">
<g id="Main_Weapon_Belt-Holster-Right" fill="rgb(85, 82, 77)">
<path d="M53.1,99.11l0.24-3.6l-0.62-0.04l0.15-2.26l0.62,0.04l0.08-1.18c0.03-0.38-0.47-0.73-1.1-0.77 c-1.45-0.1-3.93-0.26-5.37-0.36c-0.63-0.04-1.17,0.23-1.19,0.62l-0.08,1.18l0.62,0.04l-0.15,2.26L45.68,95l-0.24,3.6l1.46,0.1 l-0.67,9.95l4.73,0.31l0.67-9.95L53.1,99.11z"/>
<path d="M46.1,98.11l0.84,0.06l-0.8,11.96l4.73,0.31l0.8-11.96l0.84,0.06l0.18-2.73l-6.41-0.42L46.1,98.11z"/>
<path d="M47.84,91.78l3.8,0.25l-0.25,3.69l-3.8-0.25L47.84,91.78z"/>
<path d="M50.51,99.49l0.62,0.04l-0.63,9.4l-0.62-0.04L50.51,99.49z"/>
<path d="M49.07,97.23l0.62,0.04l-0.63,9.4l-0.62-0.04L49.07,97.23z"/>
<path d="M47.33,99.28l0.62,0.04l-0.63,9.4l-0.62-0.04L47.33,99.28z"/>
</g>
<g id="Accent_Weapon_Belt-Holster-Right" fill="rgb(118, 114, 107)">
<path d="M50.8,96.06l-0.03,0.38l-2.68-0.18l0.02-0.38L50.8,96.06z"/>
<path d="M50.78,96.44l-0.03,0.38l-2.68-0.18l0.03-0.38L50.78,96.44z"/>
<path d="M50.83,95.68l-0.02,0.38l-2.68-0.18l0.03-0.38L50.83,95.68z"/>
<path d="M51.14,91.05l-0.02,0.38l-2.68-0.18l0.03-0.38L51.14,91.05z"/>
<path d="M51.01,91.99l0.62,0.04l-0.25,3.69l-0.62-0.04L51.01,91.99z"/>
<path d="M47.84,91.78l0.62,0.04l-0.25,3.69l-0.62-0.04L47.84,91.78z"/>
<path d="M47.96,99.32l0.94,0.06l-0.63,9.4l-0.94-0.06L47.96,99.32z"/>
<path d="M49.56,99.42l0.94,0.06l-0.63,9.4l-0.94-0.06L49.56,99.42z"/>
</g>
</g>
<path id="Holster_Belt-Holster-Right" d="M51.49,112.89l2.47-14.99l-8.29,10.56l-0.79,20.68 c1.44,1.89,3.04,2.08,4.84,0.36L51.49,112.89z" fill="rgb(139, 87, 42)"/>
</g>
</g>
<g id="Left-Trophy" class="toggle" style="display:none"/>
<g id="Right-Trophy" class="toggle" style="display:none"/>
</g>
<g id="Under-Belt"><g id="Girth-Belt" class="option" fill="rgb(139, 87, 42)" style="display: inherit;">
<path d="M84.93,84.93c-9.33,0-27.98-2.25-27.98-2.25l0.61-1.91c0,0,18.19,1.5,27.37,2.25 c9.13-0.75,27.37-2.25,27.37-2.25l0.6,1.91C112.91,82.68,94.25,84.93,84.93,84.93z"/>
<path d="M84.93,86.84c-9.52,0-28.56-2.25-28.56-2.25l0.58-1.91c0,0,23.31,1.88,27.98,2.25 c4.66-0.38,27.98-2.25,27.98-2.25l0.58,1.91C113.49,84.59,94.45,86.84,84.93,86.84z"/>
<path d="M84.93,88.75c-9.67,0-28.99-2.25-28.99-2.25l0.43-1.91c0,0,23.8,1.88,28.56,2.25 c4.76-0.38,28.56-2.25,28.56-2.25l0.43,1.91C113.92,86.49,94.6,88.75,84.93,88.75z"/>
<path d="M84.93,90.65c-9.79,0-29.36-2.25-29.36-2.25l0.37-1.91c0,0,24.16,1.88,28.99,2.25 c4.83-0.38,28.99-2.25,28.99-2.25l0.37,1.91C114.29,88.4,94.72,90.65,84.93,90.65z"/>
<path d="M84.93,92.56c-9.9,0-29.69-2.25-29.69-2.25l0.33-1.91c0,0,24.47,1.88,29.36,2.25 c4.89-0.38,29.36-2.25,29.36-2.25l0.33,1.91C114.62,90.31,94.83,92.56,84.93,92.56z"/>
<path d="M84.93,94.47c-10,0-30-2.25-30-2.25l0.31-1.91c0,0,24.74,1.88,29.69,2.25c4.95-0.38,29.69-2.25,29.69-2.25 l0.31,1.91C114.93,92.21,94.93,94.47,84.93,94.47z"/>
<path d="M84.93,96.37c-10.1,0-30.31-2.25-30.31-2.25l0.31-1.91c0,0,25,1.88,30,2.25c5-0.38,30-2.25,30-2.25 l0.31,1.91C115.24,94.12,95.03,96.37,84.93,96.37z"/>
<path d="M84.93,98.28c-10.21,0-30.62-2.25-30.62-2.25l0.32-1.91c0,0,25.26,1.88,30.31,2.25 c5.05-0.38,30.31-2.25,30.31-2.25l0.32,1.91C115.55,96.03,95.14,98.28,84.93,98.28z"/>
<path d="M84.93,100.19c-10.32,0-30.97-2.25-30.97-2.25l0.34-1.91c0,0,25.52,1.88,30.62,2.25 c5.1-0.38,30.62-2.25,30.62-2.25l0.35,1.91C115.9,97.93,95.25,100.19,84.93,100.19z"/>
<path d="M84.93,102.09c-10.45,0-31.36-2.25-31.36-2.25l0.39-1.91c0,0,25.81,1.88,30.97,2.25 c5.16-0.38,30.97-2.25,30.97-2.25l0.39,1.91C116.29,99.84,95.38,102.09,84.93,102.09z"/>
</g>
</g>
<g id="Belt"><g id="Pouch-Belt-2" class="option" style="display: inherit;">
<path id="Main_Pouch-Belt-2" d="M115.21,92.95c-6.82,0.61-22.4,2.83-30.27,2.83c-7.94,0-23.52-2.23-30.26-2.82 l1.01-7.93c5.53,0.49,21.56,2.74,29.26,2.74c7.47,0,23.17-2.23,29.07-2.76L115.21,92.95z" fill="rgb(210, 164, 125)"/>
<rect id="Buckle_Pouch-Belt-2" x="79.37" y="87.01" width="11.28" height="9.21" fill="rgb(0, 0, 0)"/>
<g id="Pouches_Pouch-Belt-2" fill="rgb(139, 87, 42)">
<g>
<path d="M52.22,84.29l0.55-0.85l2.83,0.09l0.35,1.06L52.22,84.29z"/>
<path d="M55.93,84.69c0.01-0.07-0.01-0.13-0.06-0.18c-0.04-0.05-0.11-0.08-0.17-0.08 c-0.85-0.03-3.48-0.13-3.48-0.13l-0.5,11.17c0.11,0.28,1.53,0.46,2.68,0.49c0.5,0.01,0.91-0.38,0.92-0.88 C55.4,91.61,55.53,88.14,55.93,84.69z"/>
</g>
<g>
<path d="M117.67,84.29l-0.55-0.85l-2.83,0.09l-0.35,1.06L117.67,84.29z"/>
<path d="M113.96,84.69c-0.01-0.07,0.01-0.13,0.06-0.18c0.04-0.05,0.11-0.08,0.18-0.08 c0.85-0.03,3.48-0.13,3.48-0.13l0.5,11.17c-0.11,0.28-1.53,0.46-2.68,0.49c-0.5,0.01-0.91-0.38-0.92-0.88 C114.49,91.61,114.36,88.14,113.96,84.69z"/>
</g>
</g>
</g></g>
</g>
<g id="WaistDecals" mask="url(#WaistMask)">
</g>
<g id="Extras_Front">
<g id="Front"><g id="None_Front" class="option" style="display: inherit;">
</g>
</g>
</g>
<g id="Extras-FrontDecals" mask="url(#FrontMask)">
</g>
</g>
</svg>