<?xml version='1.0' encoding='UTF-8'?><svg version='1.1' xmlns='http://www.w3.org/2000/svg'><metadata><rdf:rdf xmlns:rdf="http://www.w3.org/1999/02/22-rdf-syntax-ns#" xmlns:rdfs="http://www.w3.org/2000/01/rdf-schema#" xmlns:dc="http://purl.org/dc/elements/1.1/"> <rdf:description> <dc:creator>MandoCreator</dc:creator> <dc:publisher>https://www.mandocreator.com</dc:publisher> <dc:description>Your Beskar'gam - created by MandoCreator</dc:description> <dc:format>image/svg+xml</dc:format> <dc:type>Image</dc:type> <dc:title>MandoCreator - Ner Berskar'gam</dc:title> <dc:date>2021-10-08T16:41:50.627Z</dc:date> </rdf:description> </rdf:rdf></metadata><svg version="1.1" id="Male" xmlns="http://www.w3.org/2000/svg" xmlns:xlink="http://www.w3.org/1999/xlink" x="0px" y="0px" viewBox="0 -55 169 300" style="fill: white; fill-rule: evenodd; stroke: black; stroke-width: 0.2px; pointer-events: none; position: relative; height: 100%;">
<g id="Extras_Back">
<g id="Back"><g id="NO-CAPES_Back" class="option" style="display: inherit;">
</g>
</g>
</g>
<g id="Suit">
<g id="Neck-Seal">
<g id="Standard-Neck-Seal" class="option" style="fill: rgb(0, 0, 0); display: inherit;">
<path d="M98,7.5c0-0.9-0.9-1.6-2.1-1.6c0,0-7.8,0.9-11.6,0.9c-3.9,0-11.6-0.9-11.6-0.9c-1.1,0-2.1,0.7-2.1,1.6 s0.9,1.6,2.1,1.6c0,0,7.8,0.9,11.6,0.9C88.2,10,96,9.2,96,9.2C97.1,9.2,98,8.4,98,7.5z"/>
<path d="M98.7,9.4c0-0.9-1-1.7-2.2-1.7c0,0-8.1,0.9-12.2,0.9c-4.1,0-12.2-0.9-12.2-0.9c-1.2,0-2.2,0.8-2.2,1.7 c0,0.9,1,1.7,2.2,1.7c0,0,8.1,0.9,12.2,0.9c4.1,0,12.2-0.9,12.2-0.9C97.8,11.1,98.7,10.4,98.7,9.4z"/>
<path d="M99.5,11.8c0-1-1-1.8-2.3-1.8c0,0-8.6,0.9-12.9,0.9C80,10.9,71.4,10,71.4,10c-1.3,0-2.3,0.8-2.3,1.8 s1,1.8,2.3,1.8c0,0,8.6,0.9,12.9,0.9c4.3,0,12.9-0.9,12.9-0.9C98.5,13.6,99.5,12.8,99.5,11.8z"/>
<path d="M100.3,13.9c0-1-1.1-1.9-2.4-1.9c0,0-9,1-13.5,1s-13.5-1-13.5-1c-1.3,0-2.4,0.8-2.4,1.9s1.1,1.9,2.4,1.9 c0,0,9,1,13.5,1s13.5-1,13.5-1C99.2,15.8,100.3,15,100.3,13.9z"/>
<path d="M101,16.1c0-0.8-1.1-1.4-2.5-1.4c0,0-9.4,0.7-14.2,0.7c-4.8,0-14.2-0.7-14.2-0.7c-1.4,0-2.5,0.6-2.5,1.4 c0,0.8,1.1,1.4,2.5,1.4c0,0,9.4,0.8,14.2,0.8c4.8,0,14.2-0.8,14.2-0.8C99.9,17.5,101,16.9,101,16.1z"/>
<path d="M101,18.4c0-0.8-1.1-1.4-2.5-1.4c0,0-9.4,0.7-14.2,0.7c-4.8,0-14.2-0.7-14.2-0.7c-1.4,0-2.5,0.6-2.5,1.4 c0,0.8,1.1,1.4,2.5,1.4c0,0,9.4,1.4,14.2,1.4c4.8,0,14.2-1.4,14.2-1.4C99.9,19.9,101,19.2,101,18.4z"/>
</g>
</g>
<g id="Flight-Suit" style="fill: rgb(68, 68, 68);">
<path d="M72.8,158.4l-1.5,8.7l-11,53.1c0,0-4.9,3-7.4,3.5s-7.7-0.4-7.7-0.4l3.8-43l2.9-18.4l0.7-7.8 c0,0-2.5-22.8-1.7-34.1c0.8-11.4,6.6-34,6.6-34l26.8,0.6l26.8-0.6c0,0,5.8,22.6,6.6,34c0.8,11.4-1.7,34.1-1.7,34.1l0.7,7.8 l2.9,18.4l3.8,43c0,0-5.3,1.2-7.8,0.7s-7.3-3.7-7.3-3.7l-11-53.1l-1.5-8.7l-11.6-30.3L72.8,158.4z"/>
<g>
<path d="M128.5,43.3l11.9,41.6l1,21.5l-9.5,1.8l-6-20.2l-13.6-33.9l0.7-15.5l2.3-3.7L128.5,43.3z"/>
<path d="M40.3,43.3l13.1-8.4l2.3,3.7l0.5,16L42.8,88l-6,20.2l-9.5-1.8l1-21.5L40.3,43.3z"/>
</g>
</g>
<g id="Sleeves" class="toggle" style="fill: rgb(255, 255, 255); display: none;"/>
</g>
<g id="Boots">
<g id="Gunslinger_Boots" class="option" style="display: inherit;">
<g id="Main_Gunslinger-Boot" style="fill: rgb(5, 21, 72);">
<path d="M106.9,226.5c0,0.2,0.7,3.4,4.2,4.3c1.2,0.3,3.2-0.3,4.5-1c1.7-0.9,3.5-1.6,5.4-2.1l0.2,0.2 c0.6,0.8,1.2,1.6,1.9,2.3l0.3,0.3c0.4,0.4,0.8,0.7,1.2,1.1l0.3,0.3c0.1,0,0.1,0.1,0.2,0.1c0.9,0.6,2,1.6,3.2,1.4 c1.1-0.2,2.3-0.6,3.3-1c0.8-0.4,1.6-0.9,2.1-1.4c0.2-0.1,0.3-0.3,0.4-0.4c2.5,1,5.3,1.4,6.7,4.2c0.3,0.6,0.5,1.4,0.5,2 c-0.1,0.9-1,1-1.8,1.2c-1.9,0.5-3.5,0.9-5.7,1.3c-2.5,0.5-4.7,0.8-7.2,0.7c-1.9-0.1-3.5-0.2-5.1-1.2c-0.7-0.4-1.3-0.8-1.9-1.4 c-1.3-1.2-2.1-2.4-3.7-3.1c-1.2-0.5-2.4-1-3.7-1.3c-1.8-0.4-3.7-0.8-4.7-2.5C106.7,229.1,106.7,227.8,106.9,226.5"/>
<path d="M61.8,226.5c0,0.2-0.7,3.4-4.2,4.3c-1.2,0.3-3.2-0.3-4.5-1c-1.7-0.9-3.5-1.6-5.4-2.1l-0.2,0.2 c-0.6,0.8-1.2,1.6-1.9,2.3l-0.3,0.3c-0.4,0.4-0.8,0.7-1.2,1.1l-0.3,0.3c-0.1,0-0.1,0.1-0.2,0.1c-0.9,0.6-2,1.6-3.2,1.4 c-1.1-0.2-2.3-0.6-3.3-1c-0.8-0.4-1.6-0.9-2.1-1.4c-0.2-0.1-0.3-0.3-0.4-0.4c-2.5,1-5.3,1.4-6.7,4.2c-0.3,0.6-0.5,1.4-0.5,2 c0.1,0.9,1.1,1,1.8,1.2c1.9,0.5,3.5,0.9,5.7,1.3c2.5,0.5,4.7,0.8,7.2,0.7c1.9-0.1,3.5-0.2,5.1-1.2c0.7-0.4,1.3-0.8,1.9-1.4 c1.3-1.2,2.1-2.4,3.7-3.1c1.2-0.5,2.4-1,3.7-1.3c1.8-0.4,3.7-0.8,4.7-2.5C62.1,229.1,62,227.8,61.8,226.5"/>
</g>
<g id="Bottom_Gunslinger-Boot" style="fill: rgb(64, 34, 7);">
<path d="M106.9,229c0.1,0.5,0.2,1,0.5,1.5c0.9,1.8,2.9,2.1,4.7,2.5c1.3,0.3,2.5,0.8,3.7,1.3c1.6,0.7,2.5,2,3.7,3.1 c0.6,0.5,1.2,0.9,1.9,1.4c1.6,1,3.2,1.1,5.1,1.2c2.5,0.1,4.8-0.2,7.2-0.7c2.2-0.5,3.8-0.8,5.7-1.3c0.6-0.2,1.3-0.3,1.7-0.8 l0.4,0.8l0.2,1.6c0,0-2,1.1-4.2,1.6s-6.5,1.2-6.5,1.2l-0.3-0.7l-1,0.2v0.7l-2.4,0.1l-0.5-0.7H126l0.1,0.6c0,0-1.5,0-2.3-0.5 c-0.2-0.2-0.5-0.6-0.5-0.6l-0.6-0.3l0.1,0.6l-2-0.7l-0.1-0.8l-0.6-0.3v0.6l-1.4-1.1l-0.2-0.7l-3.6-2.5l-0.6,1.3l-2.5-0.6 l-0.1-0.5l-0.6-0.3l-0.4,0.4l-1.7-0.7v-0.5l-0.6-0.2l-0.1,0.4l-1.6-1.1l-0.3-2.2l-0.1-2.4L106.9,229"/>
<path d="M61.9,229c-0.1,0.5-0.2,1-0.5,1.5c-0.9,1.8-2.9,2.1-4.7,2.5c-1.3,0.3-2.5,0.8-3.7,1.3 c-1.7,0.7-2.5,2-3.7,3.1c-0.6,0.5-1.2,0.9-1.9,1.4c-1.6,1-3.2,1.1-5.1,1.2c-2.5,0.1-4.8-0.2-7.2-0.7c-2.2-0.5-3.8-0.8-5.7-1.3 c-0.6-0.2-1.4-0.3-1.7-0.8l-0.4,0.8l-0.2,1.6c0,0,2,1.1,4.2,1.6c2.1,0.5,6.5,1.2,6.5,1.2l0.3-0.7l1,0.2v0.7l2.4,0.1L42,242h0.8 l-0.1,0.6c0,0,1.5,0,2.3-0.5c0.2-0.2,0.5-0.6,0.5-0.6l0.6-0.3l-0.1,0.6l2-0.7l0.1-0.8l0.6-0.3v0.6l1.4-1.1l0.2-0.7l3.6-2.5 l0.6,1.3L57,237l0.1-0.5l0.6-0.3l0.4,0.4l1.7-0.7v-0.5l0.6-0.2l0.1,0.4l1.6-1.1l0.3-2.2l0.1-2.4L61.9,229"/>
</g>
<g id="Top_Gunslinger-Boot" style="fill: rgb(5, 21, 72);">
<path d="M121,227.7c-2.2-3.1-3.6-6.9-4.1-10.3l0.6-0.1h0.7c0.4,0,0.7-0.1,1-0.1l0.5-0.1h0.2l0.4-0.1l0.3-0.1h0.1 c1.1-0.3,2.3-0.6,2.3-0.6c0.3,1.5,0.5,3.2,1.1,4.6c1,2.2,2.8,3.8,4.4,5.5c1.1,1.1,2.3,2.4,3.6,3.3c0.6,0.4,1.2,0.7,1.8,0.9 c-0.5,0.7-1.5,1.4-2.5,1.8c-0.9,0.4-2.2,0.9-3.3,1c-1.2,0.2-2.3-0.8-3.2-1.4C123.5,230.8,122.2,229.4,121,227.7"/>
<path d="M47.7,227.7c2.2-3.1,3.6-6.9,4.1-10.3l-0.6-0.1h-0.7c-0.4,0-0.7-0.1-1-0.1l-0.5-0.1h-0.2l-0.4-0.1l-0.3-0.1 H48c-1.1-0.3-2.3-0.6-2.3-0.6c-0.3,1.5-0.5,3.2-1.1,4.6c-1,2.2-2.8,3.8-4.4,5.5c-1.1,1.1-2.3,2.4-3.6,3.3 c-0.6,0.4-1.2,0.7-1.8,0.9c0.5,0.7,1.5,1.4,2.5,1.8c0.9,0.4,2.2,0.9,3.3,1c1.2,0.2,2.3-0.8,3.2-1.4 C45.2,230.8,46.5,229.4,47.7,227.7"/>
</g>
<g id="Side_Gunslinger-Boot" style="fill: rgb(11, 96, 125);">
<path d="M121,227.7c-1.9,0.5-3.7,1.2-5.4,2.1c-1.3,0.6-3.3,1.3-4.5,1c-3.6-0.9-4.2-4.3-4.2-4.3 c0.1-0.7,0.3-1.5,0.3-2.3c0.1-1.5-0.1-8.2,0-8.1c2.9,1.6,8.1,1.5,9.6,1.3C117.4,220.8,118.9,224.6,121,227.7"/>
<path d="M47.7,227.7c1.9,0.5,3.7,1.2,5.4,2.1c1.3,0.6,3.3,1.3,4.5,1c3.6-0.9,4.2-4.3,4.2-4.3 c-0.1-0.7-0.3-1.5-0.3-2.3c-0.1-1.5,0.1-8.2,0-8.1c-2.9,1.6-8.1,1.5-9.6,1.3C51.3,220.8,49.9,224.6,47.7,227.7"/>
</g>
</g>
</g>
<g id="Gloves">
<g id="Left-Glove">
<g id="Fingerless_Left_Glove" class="option" style="display: inherit;">
<g id="Fingers_Fingerless_Left_Glove" style="fill: rgb(239, 169, 100);">
<path d="M137.6,124.1c-0.5,0-1,0-1.6,0.1c-0.4,0.1-0.7,0.2-1,0.3c-1,0.6-0.7,1.8,0.2,2.3c1,0.6,2.6,0,3.1-1.1 C138.5,125.3,137.9,124.5,137.6,124.1"/>
<path d="M135.8,125.2c-0.5,0-1,0-1.6,0.1c-0.4,0.1-0.7,0.2-1,0.3c-1,0.6-0.7,1.8,0.2,2.3c1,0.5,2.6,0,3.1-1.1 C136.7,126.4,136.1,125.6,135.8,125.2"/>
<path d="M134.6,126.6c-0.5,0-1.2,0.2-1.7,0.3c-0.3,0.1-0.7,0.3-1,0.5c-0.9,0.7-0.5,1.9,0.5,2.2 c1.1,0.4,2.6-0.3,2.9-1.5C135.4,127.7,134.6,126.6,134.6,126.6z"/>
<path d="M129,119.8c-0.3,1.3-0.5,2.1-0.5,2.1s-1.4,2.8-1.1,3.4c0.2,0.6,1.4,1.2,2.1,0.9c0.9-0.4,1.9-2.4,2.6-3.8 c0.2-0.5,0.5-1.1,0.7-1.6C130,121.2,129,119.8,129,119.8z"/>
<path d="M134.7,126.4c-0.2,0.3-0.4,0.7-0.7,1.1c-1.4,2-3.4,3.8-2.1,5.4c1.3,1.5,4.2-2.4,4.2-2.4l1.4-1.8 C135.3,128.2,134.7,126.4,134.7,126.4z"/>
</g>
<path id="Glove_Fingerless_Left_Glove" d="M137.5,128.7l1.5-2c0,0,3.3-5.4,3.4-6.5c0.1-0.8,0-3.5,0-3.5l-1-10.4 l-5.2,0.4l-4.3,1.4l-0.3,1.8c0,0-1.6,2.1-2,3.7c-0.3,1.1-0.1,3.7-0.5,5.4c0,0.2-0.1,0.4-0.1,0.6c0,0,1,1.4,3.7,1 c0.3-1,0.6-1.8,0.6-1.8s0.9,0.3,1.4,0.7c1.6,1.2,0.9,5,0.9,5s-0.4,0.7-1,1.7C134.7,126.4,135.3,128.2,137.5,128.7z" style="fill: rgb(19, 6, 61);"/>
</g>
</g>
<g id="Right-Glove">
<g id="Fingerless_Right_Glove" class="option" style="display: inherit;">
<g id="Fingers_Fingerless_Right_Glove" style="fill: rgb(239, 169, 100);">
<path d="M31.1,124.1c0.5,0,1,0,1.6,0.1c0.4,0.1,0.7,0.2,1,0.3c1,0.6,0.7,1.8-0.2,2.3c-1,0.6-2.6,0-3.1-1.1 C30.3,125.3,30.9,124.5,31.1,124.1"/>
<path d="M32.9,125.2c0.5,0,1,0,1.6,0.1c0.4,0.1,0.7,0.2,1,0.3c1,0.6,0.7,1.8-0.2,2.3c-1,0.5-2.6,0-3.1-1.1 C32.1,126.4,32.7,125.6,32.9,125.2"/>
<path d="M34.2,126.6c0.5,0,1.2,0.2,1.7,0.3c0.3,0.1,0.7,0.3,1,0.5c0.9,0.7,0.5,1.9-0.5,2.2 c-1.1,0.4-2.6-0.3-2.9-1.5C33.3,127.7,34.2,126.6,34.2,126.6z"/>
<path d="M39.7,119.8c0.3,1.3,0.5,2.1,0.5,2.1s1.4,2.8,1.1,3.4c-0.2,0.6-1.4,1.2-2.1,0.9c-0.9-0.4-1.9-2.4-2.6-3.8 c-0.2-0.5-0.5-1.1-0.7-1.6C38.7,121.2,39.7,119.8,39.7,119.8z"/>
<path d="M34.1,126.4c0.2,0.3,0.4,0.7,0.7,1.1c1.4,2,3.4,3.8,2.1,5.4c-1.3,1.5-4.2-2.4-4.2-2.4l-1.4-1.8 C33.5,128.2,34.1,126.4,34.1,126.4z"/>
</g>
<path id="Glove_Fingerless_Right_Glove" d="M31.3,128.7l-1.5-2c0,0-3.3-5.4-3.4-6.5c-0.1-0.8,0-3.5,0-3.5l1-10.4 l5.2,0.4l4.3,1.4l0.3,1.8c0,0,1.5,2.1,2,3.7c0.3,1.1,0.1,3.7,0.5,5.4c0,0.2,0.1,0.4,0.1,0.6c0,0-1,1.4-3.7,1 c-0.3-1-0.6-1.8-0.6-1.8s-0.9,0.3-1.4,0.7c-1.6,1.2-0.9,5-0.9,5s0.4,0.7,1,1.7C34.1,126.4,33.5,128.2,31.3,128.7z" style="fill: rgb(19, 6, 61);"/>
</g>
</g>
</g>
<g id="Biceps">
<g id="Left-Biceps">
<g id="None_Biceps_Left" class="option" style="display: inherit;">
</g>
</g>
<g id="Right-Biceps">
<g id="None_Biceps_Right" class="option" style="display: inherit;">
</g>
</g>
</g>
<g id="Vest" style="fill: rgb(19, 6, 61);">
<path d="M84.4,20.9c8.4,0,15.3-4.3,15.5-8h0.1l18.3,5.4l13.2,23.9l-2.8,1.2l-13.3-8.6l-2.3,3.7l-1.5,47.4 c0,0-8.7,4.7-13.4,5.3c-3.4,0.5-8.6,0.7-13.7,0.7s-10.3-0.2-13.7-0.7c-4.8-0.6-13.4-5.3-13.4-5.3l-1.5-47.4l-2.3-3.7l-13.3,8.6 l-2.8-1.2l13.2-23.9L69,12.9h0.1C69,16.6,75.9,20.9,84.4,20.9"/>
</g>
<g class="swappable" id="Chest">
<g id="Chest_Legacy" style="visibility: visible;">
<g id="Abdomen_Legacy">
<path id="Plate-4_Upper-Armor_Legacy" d="M95,72.9l-1.4-1.3l-9.1-1.3l-9.1,1.3L74,72.9l-17.3-2.7l0.6,7.5L84.6,82 l27.2-4.3l0.6-7.5L95,72.9" style="fill: rgb(5, 21, 72);"/>
<path id="Plate-3_Upper-Armor_Legacy" d="M95.4,66.2l-1.5-1.3l-9.4-1.3l-9.4,1.3l-1.5,1.3l-17.8-2.7l0.6,7.5 l28.2,4.3l28.1-4.3l0.6-7.5L95.4,66.2" style="fill: rgb(5, 21, 72);"/>
<path id="Plate-2_Upper-Armor_Legacy" d="M95.8,59.3L94.3,58l-9.8-1.3L74.7,58l-1.5,1.3l-18.4-2.7l0.6,7.5l29.1,4.3 l29-4.3l0.6-7.5L95.8,59.3" style="fill: rgb(5, 21, 72);"/>
<path id="Plate-1_Upper-Armor_Legacy" d="M96.2,51.7l-1.6-1.4l-10.2-1.4l-10.1,1.3l-1.6,1.4H53.5l0.7,5.1l30.3,4.5 l30.2-4.5l0.7-5.1L96.2,51.7" style="fill: rgb(5, 21, 72);"/>
<g id="Trauma-Plates_Abdomen_Legacy" class="toggle" style="">
<path id="Trauma-Plate-4_Abdomen_Legacy" class="toggle" d="M84.5,75.3l26.4-4l-0.4,5l-26,4.1l-26.1-4.1l-0.4-5L84.5,75.3" style="fill: rgb(11, 96, 125);"/>
<path id="Trauma-Plate-3_Abdomen_Legacy" class="toggle" d="M84.5,68.4l27.3-4l-0.5,5.6l-26.9,4.1l-27-4.1l-0.5-5.6 L84.5,68.4" style="fill: rgb(11, 96, 125);"/>
<path id="Trauma-Plate-2_Abdomen_Legacy" class="toggle" d="M84.5,61.3l28.3-4.2l-0.5,6.2l-27.8,4.1l-27.8-4.2L56.2,57 L84.5,61.3" style="fill: rgb(11, 96, 125);"/>
<path id="Trauma-Plate-1_Abdomen_Legacy" class="toggle" d="M55.1,52h17.7l1.6-1.2l10-1.2l10,1.2L96,52h17.7l-0.4,3.1 l-28.9,4.3l-29-4.3L55.1,52" style="fill: rgb(11, 96, 125);"/>
</g>
</g>
<g id="Chest-Plates_Legacy">
<g id="Left-Chest_Legacy">
<path id="Chest_Left_Legacy" d="M84.5,27.6v22l10,1.2l1.6,1.2h19.3l1.4-0.9l0.6-13.2l-5-13.6L84.5,27.6" style="fill: rgb(5, 21, 72);"/>
<path id="Trauma-Plating_Left-Chest_Legacy" class="toggle" style="fill: rgb(11, 96, 125);" d="M111.3,27l3.8,11.1l-0.6,11.6l-17.7,0.1l-2.4-3.3H86 l2.8-2.6L89,32.6l-2.8-2.7L111.3,27"/>
</g>
<g id="Right-Chest_Legacy">
<path id="Chest_Right_Legacy" d="M84.5,27.6v22l-10,1.2L72.9,52H53.5l-1.4-0.9l-0.6-13.2l5-13.6L84.5,27.6" style="fill: rgb(5, 21, 72);"/>
<path id="Trauma-Plating_Right-Chest_Legacy" class="toggle" style="fill: rgb(11, 96, 125);" d="M57.6,27l-3.8,11.2l0.6,11.6l17.7,0.1l2.4-3.3h8.4 L80.1,44l-0.2-11.3l2.8-2.7L57.6,27"/>
</g>
</g>
<g id="Iron-Heart_Legacy">
<path id="Heart_Legacy" d="M81.8,42.4v-9.1l2.7-2.1l2.7,2.1v9.1l-2.7,2.7L81.8,42.4" style="fill: rgb(19, 6, 61);"/>
<g id="None_Heart_Legacy" class="option" style="display: inherit;">
</g>
</g>
<g id="Neck-Armor_Legacy">
<path id="Neck-Plate_Legacy" d="M73.8,26.3l-17.4-2l1.4-9.6l11.5-3.5c0,0,1.5,2.6,2.6,3.5c1.1,0.9,2.6,2,4.1,2.6 c1.5,0.7,3.4,1.1,5.2,1.4c2,0.3,5,0.3,7,0c1.8-0.3,3.9-0.7,5.4-1.4c1.4-0.6,2.7-1.7,3.9-2.6c1.1-0.9,2.6-3.5,2.6-3.5l11.5,3.4 l0.9,9.6l-16.9,2l-11.1,1.3L73.8,26.3" style="fill: rgb(5, 21, 72);"/>
<path id="Trauma-Plates_Neck_Legacy" class="toggle" style="display: none; fill: rgb(255, 255, 255);" d="M82.7,25.2l-9-1.1l-14.8-2.3l0.7-5.5l8.1-2.5c0,0,3,2.6,4.1,3.5 c1.1,0.9,2.6,2,4.1,2.6c1.5,0.7,3.4,1.1,5.2,1.4c0.5,0.1,1,0.1,1.6,0.2V25.2 M86.3,21.5c0.6,0,1.3-0.1,1.8-0.2 c1.8-0.3,3.9-0.7,5.4-1.4c1.4-0.6,2.7-1.7,3.9-2.6c1.1-0.9,4-3.5,4-3.5l8.2,2.5l0.5,5.8l-14.6,2l-9.2,1.1V21.5"/>
</g>
</g>
</g>
<g id="Chest-Attachments">
<g id="Bandoleer_Accessories_Chest" class="option" style="display: inherit;">
<g id="Strap_Bandoleer_Accessories_Chest" style="fill: rgb(139, 87, 42);">
<path d="M112.3,15l-6.6-3.2L64.2,87.1l6.6,3.6L112.3,15"/>
<path d="M110.6,13.8l-2.5-1.2l-8.3,15l2.4,1.3L110.6,13.8"/>
<path d="M98.8,35.4l-2.7-1.5L83.4,57l2.7,1.5L98.8,35.4"/>
<path d="M99.1,36.3l-3.9-2.1l-1.3,2.3l3.9,2.1L99.1,36.3"/>
<path d="M97.5,39.1L93.6,37l-1.3,2.3l3.9,2.1L97.5,39.1"/>
<path d="M96,41.9l-3.9-2.1l-1.3,2.3l3.9,2.1L96,41.9"/>
<path d="M94.4,44.7l-3.9-2.1l-1.3,2.3l3.9,2.1L94.4,44.7"/>
<path d="M92.9,47.5L89,45.4l-1.3,2.3l3.9,2.1L92.9,47.5"/>
<path d="M89.8,53.1L85.9,51l-1.3,2.3l3.9,2.1L89.8,53.1"/>
<path d="M91.4,50.3l-3.9-2.1l-1.3,2.3l3.9,2.1L91.4,50.3"/>
<path d="M88.3,55.9l-3.9-2.1l-1.3,2.3l3.9,2.1L88.3,55.9"/>
</g>
<g id="Ammo_Bandoleer_Accessories_Chest" style="fill: rgb(163, 163, 163);">
<g>
<g>
<path d="M98.9,36.6l1.6,0.9c0.2,0.1,0.2,0.3,0.1,0.5c-0.2,0.3-0.5,0.9-0.7,1.2c-0.1,0.2-0.3,0.2-0.5,0.1L98,38.4 L98.9,36.6"/>
<path d="M100.1,37.2L99,38.9l0.1,0.1L100.1,37.2"/>
<path d="M99.8,37.1l-1.1,1.7l0.1,0.1L99.8,37.1"/>
</g>
<g>
<path d="M95.1,34.4l-1,1.8l-1.6-0.9c-0.2-0.1-0.2-0.3-0.1-0.5c0.2-0.3,0.5-0.9,0.7-1.2c0.1-0.2,0.3-0.2,0.5-0.1 L95.1,34.4"/>
<path d="M93.8,33.8l-1.1,1.7l0.1,0.1L93.8,33.8"/>
</g>
</g>
<g>
<g>
<path d="M95.8,42.2l1.6,0.9c0.2,0.1,0.2,0.3,0.1,0.5c-0.2,0.3-0.5,0.9-0.7,1.2c-0.1,0.2-0.3,0.2-0.5,0.1L94.7,44 L95.8,42.2"/>
<path d="M97,42.8l-1.1,1.7l0.1,0.1L97,42.8"/>
<path d="M96.7,42.7l-1.1,1.7l0.1,0.1L96.7,42.7"/>
</g>
<g>
<path d="M92,40l-1,1.8l-1.6-0.9c-0.2-0.1-0.2-0.3-0.1-0.5c0.2-0.3,0.5-0.9,0.7-1.2c0.1-0.2,0.3-0.2,0.5-0.1L92,40"/>
<path d="M90.8,39.4l-1.1,1.7l0.1,0.1L90.8,39.4"/>
</g>
</g>
<g>
<g>
<path d="M94.3,45l1.6,0.9c0.2,0.1,0.2,0.3,0.1,0.5c-0.2,0.3-0.5,0.9-0.7,1.2c-0.1,0.2-0.3,0.2-0.5,0.1l-1.6-0.9 L94.3,45"/>
<path d="M95.5,45.6l-1.1,1.7l0.1,0.1L95.5,45.6"/>
<path d="M95.2,45.5l-1.1,1.7l0.1,0.1L95.2,45.5"/>
</g>
<g>
<path d="M90.4,42.8l-1,1.8l-1.6-0.9c-0.2-0.1-0.2-0.3-0.1-0.5c0.2-0.3,0.5-0.9,0.7-1.2c0.1-0.2,0.3-0.2,0.5-0.1 L90.4,42.8"/>
<path d="M89.2,42.2l-1.1,1.7l0.1,0.1L89.2,42.2"/>
</g>
</g>
<g>
<g>
<path d="M92.8,47.8l1.6,0.9c0.2,0.1,0.2,0.3,0.1,0.5c-0.2,0.3-0.5,0.9-0.7,1.2c-0.1,0.2-0.3,0.2-0.5,0.1l-1.6-0.9 L92.8,47.8"/>
<path d="M93.9,48.4l-1.1,1.7l0.1,0.1L93.9,48.4"/>
<path d="M93.6,48.3L92.5,50l0.1,0.1L93.6,48.3"/>
</g>
<g>
<path d="M88.9,45.6l-1,1.8l-1.6-0.9c-0.2-0.1-0.2-0.3-0.1-0.5c0.2-0.3,0.5-0.9,0.7-1.2c0.1-0.2,0.3-0.2,0.5-0.1 L88.9,45.6"/>
<path d="M87.7,45l-1.1,1.7l0.1,0.1L87.7,45"/>
</g>
</g>
</g>
<g id="Buckles_Bandoleer_Accessories_Chest" style="fill: rgb(255, 215, 0);">
<g>
<path d="M103.3,27.4l-2.9-1.6l-1.6,2.9l2.9,1.6L103.3,27.4"/>
<path d="M102.6,27.9l-2.2-1.2l-1.6,2.9l2.2,1.2L102.6,27.9"/>
</g>
<path d="M103.3,23.9l-1.8-1l1.6-2.9l3.7,2l-1.6,2.9L103.3,23.9l0.4-0.7l1.1,0.6l0.9-1.6l-2.1-1.1l-0.9,1.6l1,0.6"/>
</g>
</g>
</g>
<g id="Collar">
<g id="Cloth-Wrap-Right_Collar" class="option" style="display: inherit;">
<g id="Main_Cloth-Wrap-Right_Collar" style="fill: rgb(89, 10, 10);">
<path d="M94.3,21.9c5-1.6,5.9-4.1,6.2-6.6c0.1-1-1.3-3.7,0.2-4.4c1.7-0.8,5.8,0.4,7.4,0.8c1.2,0.3,2.3,0.6,3.6,0.6 c2.9,0,5.2,2,5.5,3.4c0.4,2-3.2,2.8-4.9,4.3c-4.2,3.9-5.7,9.1-14.6,10.6c-4.1,0.7-8.1-0.3-11.9-1.1c-9.8-2.2-15.1-4.1-21.4-8.9 c-2.8-2.1-6.9-3.9-6.8-6.7c0-0.1,2-1.3,2.2-1.4c1.8-0.4,3.3-1.2,5.2-1.2c1.2,0,1,1,1.1,1.4c0.3,1.7,1.9,3,3.9,4.4 C75.1,20.5,87.1,21.6,94.3,21.9"/>
<path d="M94.3,21.9c1.3,0,2.5,0.3,3.5,0.3c4.5,0.3,6.2-0.8,7-2.9"/>
<path d="M108.4,11.7c1.3,2.1,1.1,4.7,0.1,6.3"/>
<path d="M70.3,17.8c3.4,4.7,8.5,6.1,14,6.7"/>
<path d="M61.1,12.1c0.2,1.2,0.9,1.6,1.8,2.4c0.5,0.5,1.1,0.8,1.5,1.3c0.1,0.2,0.2,0.4,0.3,0.7"/>
</g>
<path id="Buckle_Cloth-Wrap-Right_Collar" d="M71.4,17l-2.9-2.1l-5,7l2.9,2.1L71.4,17" style="fill: rgb(255, 215, 0);"/>
</g>
</g>
<svg version="1.1" id="Helmets" xmlns="http://www.w3.org/2000/svg" y="-54px" height="85px" viewBox="0 0 80 80" class="swappable">
<g id="Helmet_Ramikadyc" style="visibility: visible;">
<g id="Left-Earcap_Ramikadyc" class="toggle">
<path id="Ear-Cap_Left_Ramikadyc" d="M56,35.7l2.7,1c0,0,0.7,3.4,0.8,6.3s-0.8,6.2-0.8,6.2L57,49.9V38L56,35.7z" style="fill: rgb(11, 96, 125);"/>
</g>
<g id="Right-Earcap_Ramikadyc" class="toggle">
<g id="Sub-Antenna_Right_Ramikadyc" class="option" style="display: inherit;">
<g id="Shaft_Sub-Antenna_Right_Ramikadyc" style="fill: rgb(8, 203, 51);">
<path d="M22.3,34.9l0.2-21.4H23l0.2,21.4H22.3z"/>
<path d="M22.2,15.4l0.2-1.3H23l0.2,1.3H22.2z"/>
</g>
<g id="Base_Sub-Antenna_Right_Ramikadyc" style="fill: rgb(5, 21, 72);">
<path d="M24,34.9h-2.7c0,0-0.6,7.1,1.3,7.1S24,34.9,24,34.9z"/>
<path d="M21.9,34.9l0.3-0.6H23l0.3,0.6H21.9z"/>
</g>
</g>
<path id="Ear-Cap_Right_Ramikadyc" d="M24,35.7l-2.7,1c0,0-0.7,3.4-0.8,6.3s0.8,6.2,0.8,6.2L23,50V38L24,35.7z" style="fill: rgb(11, 96, 125);"/>
</g>
<g id="Helmet_Pieces_Ramikadyc">
<g id="Mouth_Ramikadyc" style="fill: rgb(5, 21, 72);">
<path d="M36.8,67.3c0,0,0.1-2.7-0.2-4.1c-0.3-1.3-0.7-2.9-0.7-2.9l3.9-1.6h0.1l3.9,1.6c0,0-0.4,1.5-0.7,2.9 c-0.3,1.3-0.2,4.1-0.2,4.1H36.8z"/>
<path d="M39.9,58.7v6.4"/>
<path d="M36.8,67.3v-0.9l3-1.2l3,1.2v0.9H36.8z"/>
</g>
<g id="Face_Ramikadyc" style="fill: rgb(5, 21, 72);">
<path d="M43.8,60.4H44c4.3-4.7,7.1-9.3,8.2-13.7l4.2-3.7l0.6-1.3v10.5c0,0-3.1,6.6-6.5,9.8c-2.1,2-7.5,5.3-7.5,5.3 s-0.1-2.7,0.2-4.1C43.4,61.9,43.8,60.4,43.8,60.4z"/>
<path d="M36,60.4h-0.2c-4.3-4.7-7.1-9.3-8.2-13.7L23.3,43l-0.6-1.3v10.5c0,0,3.1,6.6,6.5,9.8 c2.2,2.1,7.5,5.4,7.5,5.4h0.1c0,0,0.1-2.7-0.2-4.1C36.4,61.9,36,60.4,36,60.4z"/>
</g>
<g id="Cheeks-2_Ramikadyc" style="fill: rgb(5, 21, 72);">
<path d="M25.4,49l7.9,9.5c0,0,1.4,1.9,1,4C34,64.7,33,64.8,33,64.8l-2.1-0.7L23,55.2c0,0-1.1-1.1-1-3.4 c0.1-1.1,2.1-3,2.1-3S24.8,48.4,25.4,49z"/>
<path d="M22.1,51.4c0,0,0.4-0.9,0.9-0.9c0.5,0.1,4.1,4.2,4.1,4.2s4.3,4.6,4.5,5c0.7,1.2,0.6,2.5,0.5,3 c-0.3,1.1-1.2,1.3-1.2,1.3L23,55.2C23,55.2,21.6,53.5,22.1,51.4z"/>
<path d="M22.3,51.7c0.1-0.4,0.3-0.8,0.6-0.9c0.4-0.1,3.5,3.6,3.5,3.6s3.5,3.8,3.7,4.1c0.6,1,0.5,2.1,0.4,2.5 c-0.2,0.9-1,1.1-1,1.1L23,54.7C23,54.7,22,53.1,22.3,51.7z"/>
<path d="M54.6,49l-7.9,9.5c0,0-1.4,1.9-1,4c0.3,2.1,1.4,2.3,1.4,2.3l2.1-0.7l7.9-8.9c0,0,1.1-1.1,1-3.4 c-0.1-1.1-2.1-3-2.1-3S55.2,48.4,54.6,49z"/>
<path d="M57.9,51.4c0,0-0.4-0.9-0.9-0.9c-0.5,0.1-4.1,4.2-4.1,4.2s-4.3,4.6-4.5,5c-0.7,1.2-0.6,2.5-0.5,3 c0.3,1.1,1.2,1.3,1.2,1.3l7.9-8.9C57,55.2,58.4,53.5,57.9,51.4z"/>
<path d="M57.7,51.7c-0.1-0.4-0.3-0.8-0.6-0.9c-0.4-0.1-3.5,3.6-3.5,3.6s-3.5,3.8-3.7,4.1c-0.6,1-0.5,2.1-0.4,2.5 c0.2,0.9,1,1.1,1,1.1l6.5-7.5C57,54.7,58,53.1,57.7,51.7z"/>
</g>
<g id="Cheeks-1_Ramikadyc" style="fill: rgb(11, 96, 125);">
<path d="M28.1,58.6c0.8-0.3,1.9,0.7,2.5,2.2s0.4,2.9-0.4,3.2c-0.8,0.3-1.9-0.7-2.5-2.2 C27.1,60.2,27.3,58.8,28.1,58.6z"/>
<path d="M28.2,59c0.6-0.2,1.6,0.6,2.1,1.9c0.5,1.3,0.4,2.5-0.3,2.7c-0.6,0.2-1.6-0.6-2.1-1.9S27.5,59.2,28.2,59z"/>
<path d="M28.5,60c0.4-0.1,0.9,0.3,1.1,1.1c0.3,0.7,0.2,1.4-0.1,1.5c-0.4,0.1-0.9-0.3-1.1-1.1 C28.1,60.8,28.1,60.1,28.5,60z"/>
<path d="M28.6,60.4c0.2-0.1,0.6,0.2,0.8,0.7c0.2,0.5,0.1,0.9-0.1,1c-0.2,0.1-0.6-0.2-0.8-0.7 C28.3,61,28.4,60.5,28.6,60.4z"/>
<path d="M30.1,58c0.9,1,1.4,1.6,1.5,1.7c0.7,1.2,0.6,2.5,0.5,3c-0.2,0.6-0.6,1.2-1.2,1.3L30,63.9 c0.2,0,0.4-0.1,0.5-0.3c0.5-0.5,0.6-1.7,0.1-3c-0.6-1.5-1.7-2.4-2.5-2.2L30.1,58z"/>
<path d="M51.9,58.6c-0.8-0.3-1.9,0.7-2.5,2.2c-0.6,1.5-0.4,2.9,0.4,3.2c0.8,0.3,1.9-0.7,2.5-2.2 C52.9,60.2,52.7,58.8,51.9,58.6z"/>
<path d="M51.8,59c-0.6-0.2-1.6,0.6-2.1,1.9c-0.5,1.3-0.4,2.5,0.3,2.7c0.6,0.2,1.6-0.6,2.1-1.9S52.5,59.2,51.8,59z"/>
<path d="M51.5,60c-0.4-0.1-0.9,0.3-1.1,1.1c-0.3,0.7-0.2,1.4,0.1,1.5c0.4,0.1,0.9-0.3,1.1-1.1 C51.9,60.8,51.9,60.1,51.5,60z"/>
<path d="M51.4,60.4c-0.2-0.1-0.6,0.2-0.8,0.7c-0.2,0.5-0.1,0.9,0.1,1c0.2,0.1,0.6-0.2,0.8-0.7 C51.7,61,51.6,60.5,51.4,60.4z"/>
<path d="M49.9,58c-0.9,1-1.4,1.6-1.5,1.7c-0.7,1.2-0.6,2.5-0.5,3c0.2,0.6,0.6,1.2,1.2,1.3l0.9-0.1 c-0.2,0-0.4-0.1-0.5-0.3c-0.5-0.5-0.6-1.7-0.1-3c0.6-1.5,1.7-2.4,2.5-2.2L49.9,58z"/>
</g>
<path id="Visor_Ramikadyc" d="M39.7,58.1v-0.9l-1.5-3L38,45.5l-3.1-1.3l-1.2,0.5l-8.3-4.6L24,35.3 c5,2.9,15.9,6.8,15.9,6.8s11-3.9,15.9-6.8l-1.2,4.8l-8.3,4.6L45,44.1l-3.1,1.3l-0.2,8.7l-1.5,3V58l3.9,2.3h-0.2L40,58.7l-4,1.7 h-0.2L39.7,58.1z" style="fill: rgb(8, 203, 51);"/>
<g id="Eyes_Ramikadyc" style="fill: rgb(11, 96, 125);">
<path d="M55.9,35.3L57,38l0.1,3.7L56.5,43l-4.2,3.7c-1.1,4.4-4,9-8.2,13.7L40.2,58v-0.8l1.5-3l0.2-8.7l3.1-1.3 l1.2,0.5l8.3-4.6L55.9,35.3z"/>
<path d="M23.9,35.3L22.8,38l-0.1,3.7l0.6,1.3l4.2,3.7c1.1,4.4,4,9,8.2,13.7l3.8-2.3v-0.8l-1.5-3l-0.2-8.7l-3.1-1.3 l-1.2,0.5l-8.3-4.6L23.9,35.3z"/>
</g>
<g id="Dome-2_Ramikadyc" style="fill: rgb(11, 96, 125);">
<path d="M44.2,40.5L42,38.6l-0.3-2.8l2.9-2.6l2.8-9.5h1.8l0.5-2.8l-1.4-1l0.5-1.2c0,0,5.5,4.2,6.1,5.2 c0.5,1,0.9,10.9,0.8,11.4c0,0,0,0.1-0.1,0.2C52.6,37.1,47.7,39.1,44.2,40.5z"/>
<path d="M24.3,35.5c0-0.1-0.1-0.1-0.1-0.2c-0.1-0.5,0.3-10.4,0.8-11.4s6.1-5.2,6.1-5.2l0.5,1.2l-1.4,1l0.5,2.8h1.8 l2.8,9.5l2.9,2.6l-0.3,2.8l-2.2,1.9C32.1,39.2,27.3,37.2,24.3,35.5z"/>
</g>
<g id="Dome-1_Ramikadyc" style="fill: rgb(5, 21, 72);">
<path d="M24.9,24c-0.5,1.4-0.8,10.8-0.7,11.3c0,0,0,0.1,0.1,0.2c0.1,0-1.4,0.6-1.4,0.6C23.2,30.9,23.6,26,24.9,24z"/>
<path d="M54.9,24c0.5,1.4,0.8,10.8,0.7,11.3c0,0,0,0.1-0.1,0.2c-0.1,0,1.4,0.6,1.4,0.6C56.6,30.9,56.2,26,54.9,24z"/>
<path d="M35.6,40.5l2.2-1.9l0.3-2.8l-2.9-2.6l-2.8-9.5h-1.8L30.1,21l1.4-1L31,18.8c3.7-1.8,8.1-2.1,8.8-2.1h0.1 c0.7,0,5.1,0.3,8.8,2.1L48.3,20l1.4,1l-0.5,2.8h-1.8l-2.8,9.5l-2.9,2.6l0.3,2.8l2.2,1.9c-1.2,0.4-2.2,0.7-3,1L40,42h-0.2 l-1.3-0.4C37.8,41.3,36.8,41,35.6,40.5z"/>
</g>
</g>
</g>
</svg>
<g id="Shoulders">
<g id="Left-Shoulder">
<g id="Legacy-x2_Shoulder_Left" class="option" style="display: inherit;">
<path id="Plate-2_Shoulder_Left_Legacy-x2" d="M115.3,14.9l-5.8,8.7l5.9,8.3l9.3-2.3l5.9,3.6L135,32L115.3,14.9" style="fill: rgb(15, 168, 220);"/>
<path id="Trauma-Plate-2_Shoulder_Legacy-x2_Left" class="toggle" style="display: none; fill: rgb(255, 255, 255);" d="M130.9,31.4l2.8-0.7l-17-14.9l-5.2,7.7l4.6,6.4 l8.6-2.2L130.9,31.4"/>
<path id="Plate-1_Shoulder_Left_Legacy-x2" d="M108.2,10.4l-2.6,10.1l8.3,5.9l8.1-5.2l6.7,1.5l3.8-2.5L108.2,10.4" style="fill: rgb(14, 118, 153);"/>
<path id="Trauma-Plate-1_Shoulder_Legacy-x2_Left" class="toggle" style="display: none; fill: rgb(255, 255, 255);" d="M128.3,20.9l2.4-1.6l-21-8.5l-2.3,9l6.4,4.6l7.4-4.9 L128.3,20.9"/>
</g>
</g>
<g id="Right-Shoulder">
<g id="Legacy-x3_Shoulder_Right" class="option" style="display: inherit;">
<path id="Plate-3_Shoulder_Right_Legacy-x3" d="M49.7,19.5L57,27l-4.2,9.2l-9.6-0.5l-5.1,4.7l-4.5-0.3L49.7,19.5" style="fill: rgb(0, 190, 255);"/>
<path id="Trauma-Plate-3_Shoulder_Legacy-x3_Right" class="toggle" style="display: none; fill: rgb(255, 255, 255);" d="M37.5,38.6l-2.9-0.2l14-17.8l6.5,6.7l-3.3,7.2 L43,33.9L37.5,38.6"/>
<path id="Plate-2_Shoulder_Right_Legacy-x3" d="M53.7,14.9l5.8,8.7l-5.9,8.3l-9.3-2.3l-6,3.6L33.9,32L53.7,14.9" style="fill: rgb(11, 141, 185);"/>
<path id="Trauma-Plate-2_Shoulder_Legacy-x3_Right" class="toggle" style="display: none; fill: rgb(255, 255, 255);" d="M38.1,31.4l-2.8-0.7l17-14.9l5.2,7.7l-4.6,6.4 l-8.6-2.2L38.1,31.4"/>
<path id="Plate-1_Shoulder_Right_Legacy-x3" d="M60.8,10.4l2.6,10.1l-8.3,5.9L47,21.2l-6.7,1.5l-3.8-2.5L60.8,10.4" style="fill: rgb(11, 96, 125);"/>
<path id="Trauma-Plate-1_Shoulder_Legacy-x3_Right" class="toggle" style="display: none; fill: rgb(255, 255, 255);" d="M40.6,20.9l-2.4-1.6l21-8.5l2.3,9L55,24.4l-7.4-4.9 L40.6,20.9"/>
</g>
</g>
</g>
<g id="Gauntlets">
<g id="Left-Gauntlets">
<g id="Gunslinger_Gauntlet_Left" class="option" style="display: inherit;">
<g id="Accent-Top_Gunslinger_Gauntlet_Left" style="fill: rgb(255, 0, 0);">
<path d="M139,79.8l0.6,5.6l-2.8,0.8l-0.7-5.3L139,79.8"/>
<path d="M137.7,100.6l0.6,2.9l-2.5,0.5l-0.6-2.9L137.7,100.6"/>
</g>
<path id="Top_Gunslinger_Gauntlet_Left" d="M139,79.8l1.3-0.5l2.3,26.3l-6.2,1.3l-0.8-4.1l0.2,1.2l2.5-0.5l-0.6-2.9 l-2.5,0.5l-3.8-18.5L139,79.8l-2.9,1.1l0.7,5.3l2.8-0.8L139,79.8" style="fill: rgb(11, 96, 125);"/>
<g id="Accent-Bottom_Gunslinger_Gauntlet_Left" style="fill: rgb(5, 21, 72);">
<path d="M127.7,91.2l-0.7-2.3l-1.6,0.5l0.7,2.3L127.7,91.2"/>
<path d="M128.6,93.8l-0.7-2.3l-1.6,0.5l0.7,2.3L128.6,93.8"/>
<path d="M135.2,101.2l-5.6,1.2l0.9,2.8l5.3-1.1L135.2,101.2"/>
</g>
<path id="Bottom_Gunslinger_Gauntlet_Left" d="M135.7,103.6l-0.5-2.4l-5.6,1.2l0.9,2.8l5.3-1.1l0.6,2.9 c0,0-2,0.3-3.4,0.6c-0.9,0.2-1.8-0.4-2.1-1.3c-1.6-4.8-6.3-19.4-6.3-19.4l6.8-3.8L135.7,103.6 M128.6,93.8l-0.7-2.3l-1.6,0.5 l0.7,2.3L128.6,93.8 M127.7,91.2l-0.7-2.3l-1.6,0.5l0.7,2.3L127.7,91.2" style="fill: rgb(11, 96, 125);"/>
<g id="No-Device_Attachment_Gunslinger_Gauntlet_Left" class="option" style="display: inherit;">
</g>
</g>
</g>
<g id="Right-Gauntlets">
<g id="Gunslinger_Gauntlet_Right" class="option" style="display: inherit;">
<g id="Accent-Top_Gunslinger_Gauntlet_Right" style="fill: rgb(8, 203, 51);">
<path d="M30,79.8l-0.6,5.6l2.8,0.8l0.7-5.3L30,79.8"/>
<path d="M31.4,100.6l-0.6,2.9l2.5,0.5l0.6-2.9L31.4,100.6"/>
</g>
<path id="Top_Gunslinger_Gauntlet_Right" d="M30,79.8l-1.3-0.5l-2.3,26.3l6.2,1.3l0.8-4.1l-0.2,1.2l-2.5-0.5l0.6-2.9 l2.5,0.5l3.8-18.5L30,79.8l2.9,1.1l-0.7,5.3l-2.8-0.8L30,79.8" style="fill: rgb(11, 96, 125);"/>
<g id="Accent-Bottom_Gunslinger_Gauntlet_Right" style="fill: rgb(5, 21, 72);">
<path d="M41.3,91.2l0.7-2.3l1.6,0.5l-0.7,2.3L41.3,91.2"/>
<path d="M40.5,93.8l0.7-2.3l1.6,0.5l-0.7,2.3L40.5,93.8"/>
<path d="M33.9,101.2l5.6,1.2l-0.9,2.8l-5.3-1.1L33.9,101.2"/>
</g>
<path id="Bottom_Gunslinger_Gauntlet_Right" d="M33.4,103.6l0.5-2.4l5.6,1.2l-0.9,2.8l-5.3-1.1l-0.6,2.9 c0,0,2,0.3,3.4,0.6c0.9,0.2,1.8-0.4,2.1-1.3c1.6-4.8,6.3-19.4,6.3-19.4l-6.8-3.8L33.4,103.6 M40.5,93.8l0.7-2.3l1.6,0.5l-0.7,2.3 L40.5,93.8 M41.3,91.2l0.7-2.3l1.6,0.5l-0.7,2.3L41.3,91.2" style="fill: rgb(11, 96, 125);"/>
<g id="Flamethrower_Attachment_Gunslinger_Gauntlet_Right" class="option" style="display: inherit;">
<g id="Tubes_Flamethrower_Attachment_Gunslinger_Gauntlet_Right" style="fill: rgb(255, 255, 0);">
<path d="M27.2,80.9L28,81l-2.1,25.2l-0.8-0.1L27.2,80.9"/>
<path d="M25.3,80.7l0.8,0.1l-1.5,18l-0.8-0.1L25.3,80.7"/>
<path d="M26.9,82.4l1.1,0.1l-0.5,6l-1.1-0.1L26.9,82.4"/>
<path d="M25,82.3l1.1,0.1l-0.5,6l-1.1-0.1L25,82.3"/>
</g>
<g id="Main_Flamethrower_Attachment_Gunslinger_Gauntlet_Right" style="fill: rgb(163, 163, 163);">
<path d="M24.9,80.7l3.4,0.3l-0.1,1.6l-3.4-0.3L24.9,80.7"/>
<path d="M24.2,88.2l3.5,0.3l-0.1,1L24,89.2L24.2,88.2"/>
<path d="M24.3,89.2l3.3,0.3V90l-3.3-0.3V89.2"/>
<path d="M27.5,87.9L28,88l-0.2,2.9l-0.5-0.1L27.5,87.9"/>
</g>
<g id="Accent_Flamethrower_Attachment_Gunslinger_Gauntlet_Right" style="fill: rgb(8, 203, 51);">
<path d="M23.8,98.7l0.9,0.1v1.2l-1.2-0.1L23.8,98.7"/>
<path d="M24,92.3l1.6,0.1l-0.2,1.9l-1.6-0.1L24,92.3"/>
<path d="M24,94.2l1.1,0.1L25,96.2l-1.1-0.1L24,94.2"/>
<path d="M25.2,102.8l1.1,0.1l-0.2,2.6l-1.1-0.1L25.2,102.8"/>
<path d="M25.9,94.4l1.1,0.1l-0.3,3.6L25.6,98L25.9,94.4"/>
<path d="M24.9,104.1l1.6,0.1v0.5l-1.6-0.1V104.1"/>
</g>
<path id="Base_Flamethrower_Attachment_Gunslinger_Gauntlet_Right" d="M28,88l0.7-7.9l-1,0.3l-1.1,13.4l0.9,0.5 l0.3-3.4l-0.5-0.1l0.2-2.9L28,88" style="fill: rgb(11, 96, 125);"/>
</g>
</g>
</g>
</g>
<g id="Shins">
<g id="Left-Shin">
<g id="Basic-Shnees_Shin_Left" class="option" style="display: inherit;">
<path id="Shin_Basic-Shnees-Shin_Left" d="M99.3,162.6c-0.2-2.2,1.3-4.1,3.5-4.4c2.7-0.3,6.2-0.8,8.8-1.1 c2.1-0.3,4.1,1.1,4.5,3.2c0.9,4.6,2.4,11.9,3.6,11.7l4.9,46.1l-9.9,1.2l-3.1,3.5l-4.6-0.9l-9.5-47 C100,174.6,99.7,167.2,99.3,162.6" style="fill: rgb(11, 96, 125);"/>
<g id="Straps_Basic-Shnees-Shin_Left" class="toggle" style="fill: rgb(139, 87, 42);">
<path d="M98.6,182.1l5.1-0.9l0.5,2.3l-5.1,0.9L98.6,182.1"/>
<path d="M99,181.8l1.1-0.2l0.6,2.8l-1.1,0.2L99,181.8"/>
<path d="M103.2,204.8l5.1-0.9l0.5,2.3l-5.1,0.9L103.2,204.8"/>
<path d="M103.6,204.5l1.1-0.2l0.6,2.8l-1.1,0.2L103.6,204.5"/>
</g>
<g id="Accent_Basic-Shnees-Shin_Left" class="toggle" style="fill: rgb(255, 255, 255); display: none;"/>
</g>
</g>
<g id="Right-Shin">
<g id="Basic-Shnees_Shin_Right" class="option" style="display: inherit;">
<path id="Shin_Basic-Shnees-Shin_Right" d="M69.5,162.6c0.2-2.2-1.3-4.1-3.5-4.4c-2.7-0.3-6.2-0.8-8.8-1.1 c-2.1-0.3-4.1,1.1-4.5,3.2c-0.9,4.6-2.4,11.9-3.6,11.7l-4.9,46.1l9.9,1.2l3.1,3.5l4.6-0.9l9.5-47 C68.8,174.6,69.1,167.2,69.5,162.6" style="fill: rgb(11, 96, 125);"/>
<g id="Straps_Basic-Shnees-Shin_Right" class="toggle" style="fill: rgb(139, 87, 42);">
<path d="M70.1,182.1l-5.1-0.9l-0.5,2.3l5.1,0.9L70.1,182.1"/>
<path d="M69.8,181.8l-1.1-0.2l-0.6,2.8l1.1,0.2L69.8,181.8"/>
<path d="M65.5,204.8l-5.1-0.9l-0.5,2.3l5.1,0.9L65.5,204.8"/>
<path d="M65.2,204.5l-1.1-0.2l-0.6,2.8l1.1,0.2L65.2,204.5"/>
</g>
<g id="Accent_Basic-Shnees-Shin_Right" class="toggle" style="fill: rgb(255, 255, 255); display: none;"/>
</g>
</g>
</g>
<g id="Foot">
<g id="Left-Ankle">
<g id="None_Ankle_Left" class="option" style="display: inherit;">
</g>
</g>
<g id="Left-Toe">
<g id="None_Toe_Left" class="option" style="display: inherit;">
</g>
</g>
<g id="Right-Ankle">
<g id="None_Ankle_Right" class="option" style="display: inherit;">
</g>
</g>
<g id="Right-Toe">
<g id="None_Toe_Right" class="option" style="display: inherit;">
</g>
</g>
</g>
<g id="Knees">
<g id="Left-Knee">
<g id="None-(Nih-Plates)_Knee_Left" class="option" style="display: inherit;">
</g>
</g>
<g id="Right-Knee">
<g id="None-(Nih-Plates)_Knee_Right" class="option" style="display: inherit;">
</g>
</g>
</g>
<g id="Thighs">
<g id="Left-Thigh">
<g id="Legacy_Thigh_Left" class="option" style="display: inherit;">
<path id="Plate-3_Legacy-Thigh_Left" d="M97.1,140l1.8,10.6l10.3,1.6l8.3-3.6l0.4-10.8l-9.4,4.4L97.1,140" style="fill: rgb(11, 96, 125);"/>
<path id="Plate-2_Legacy-Thigh_Left" d="M94.9,129.8l1.7,10.1l11.9,2.3l10-4.7l0.5-12.3l-11.3,7.2L94.9,129.8" style="fill: rgb(11, 96, 125);"/>
<path id="Plate-1_Legacy-Thigh_Left" d="M120,115.2l-8.8-7.7l-11.7,1.9l-6.7,11.1l1.7,9.2l13.2,2.7l11.8-7.5 L120,115.2" style="fill: rgb(11, 96, 125);"/>
<path id="Trauma-Plate-3_Legacy-Thigh_Left" class="toggle" style="display: none; fill: rgb(255, 255, 255);" d="M115.9,141.1l-6.7,3.2c-0.3,0.1-0.7,0.2-1,0.1l-8.7-1.7 l1,6l8.5,1.3l6.7-2.9L115.9,141.1"/>
<path id="Trauma-Plate-2_Legacy-Thigh_Left" class="toggle" style="display: none; fill: rgb(255, 255, 255);" d="M116.9,129l-8.3,5.3c-0.4,0.2-0.8,0.3-1.2,0.2l-10.1-2 l1,5.5l10.1,1.9l8.4-3.9L116.9,129"/>
<path id="Trauma-Plate-1_Legacy-Thigh_Left" class="toggle" style="display: none; fill: rgb(255, 255, 255);" d="M100.6,111.5l-5.8,9.6l1.3,6.8l11.3,2.3l10.3-6.6l0.4-7.3 l-7.3-6.4L100.6,111.5"/>
<g id="Ridge_Legacy-Thigh_Left" class="toggle" style="fill: rgb(5, 21, 72);">
<path d="M110.4,130.6l0.5,10.4l-2.4,1.1l-3.1-0.6l-1.4-9.9l3.7,0.8L110.4,130.6"/>
<path d="M110.9,141.1l0.6,10.1l-2.3,1l-2.7-0.4l-1.2-10.2l3.1,0.6L110.9,141.1"/>
<path d="M103.9,131.7l-2.9-22.5l4-2.1l4.3,0.7l1.1,22.8l-2.8,1.8L103.9,131.7"/>
<path d="M105.1,107.1l2.6,25.3"/>
<path d="M107.7,132.4l0.8,9.8"/>
<path d="M108.5,142.2l0.7,10"/>
</g>
</g>
</g>
<g id="Right-Thigh">
<g id="Legacy_Thigh_Right" class="option" style="display: inherit;">
<path id="Plate-3_Legacy-Thigh_Right" d="M71.6,140l-1.8,10.6l-10.2,1.6l-8.3-3.6l-0.4-10.8l9.4,4.4L71.6,140" style="fill: rgb(11, 96, 125);"/>
<path id="Plate-2_Legacy-Thigh_Right" d="M73.9,129.8l-1.8,10.1l-11.8,2.3l-10-4.7l-0.5-12.3l11.3,7.2L73.9,129.8" style="fill: rgb(11, 96, 125);"/>
<path id="Plate-1_Legacy-Thigh_Right" d="M48.8,115.2l8.8-7.7l11.7,1.9l6.7,11.1l-1.7,9.2l-13.2,2.7l-11.8-7.5 L48.8,115.2" style="fill: rgb(11, 96, 125);"/>
<path id="Trauma-Plate-3_Legacy-Thigh_Right" class="toggle" style="fill: rgb(5, 21, 72);" d="M52.9,141.1l6.7,3.2c0.3,0.1,0.7,0.2,1,0.1l8.7-1.7l-1,6 l-8.5,1.3l-6.7-2.9L52.9,141.1"/>
<path id="Trauma-Plate-2_Legacy-Thigh_Right" class="toggle" style="fill: rgb(5, 21, 72);" d="M51.9,129l8.3,5.3c0.4,0.2,0.8,0.3,1.2,0.2l10.1-2 l-0.9,5.5l-10.1,1.9l-8.4-3.9L51.9,129"/>
<path id="Trauma-Plate-1_Legacy-Thigh_Right" class="toggle" style="fill: rgb(5, 21, 72);" d="M68.2,111.5l5.8,9.6l-1.3,6.8l-11.3,2.3l-10.3-6.6 l-0.4-7.3l7.3-6.4L68.2,111.5"/>
<g id="Ridge_Legacy-Thigh_Right" class="toggle" style="display: none; fill: rgb(255, 255, 255);"/>
</g>
</g>
</g>
<g id="Groin">
<g id="None_Groin" class="option" style="display: inherit;">
</g>
</g>
<g id="Waist">
<g id="Accessories_Waist">
<g id="Kama" class="toggle" style="display:none"/>
<g id="Loin-Cloth" class="toggle" style="display:none"/>
<g id="Left-Holster" class="toggle" style="display:none"/>
<g id="Right-Holster" class="toggle" style="">
<g id="Thigh-Plate-Holster_Right" class="option" style="display: inherit;">
<g id="Weapon_Thigh-Plate-Holster-Right">
<g id="Main_Weapon_Thigh-Plate-Holster-Right" style="fill: rgb(163, 163, 163);">
<path d="M52.6,113.4l-0.2-3.6h-0.6l-0.1-2.3h0.6l-0.1-1.2c0-0.4-0.6-0.7-1.2-0.6c-1.4,0.1-3.9,0.3-5.3,0.3 c-0.6,0-1.1,0.4-1.1,0.8l0.1,1.2h0.6l0.1,2.3h-0.6l0.2,3.6l1.5-0.1l0.7,9.9l4.7-0.3l-0.6-9.9L52.6,113.4z"/>
<path d="M45.5,113.4l0.8-0.1l0.8,12l4.7-0.3L51,113l0.8-0.1l-0.2-2.7l-6.4,0.4L45.5,113.4z"/>
<path d="M46.4,106.9l3.8-0.2l0.2,3.7l-3.8,0.2L46.4,106.9z"/>
<path d="M50.1,114.1h0.6l0.6,9.4h-0.6L50.1,114.1z"/>
<path d="M48.3,112.1h0.6l0.9,13.2h-0.6L48.3,112.1z"/>
<path d="M46.9,114.4h0.6l0.7,10.4h-0.6L46.9,114.4z"/>
</g>
<g id="Accent_Weapon_Thigh-Plate-Holster-Right" style="fill: rgb(5, 21, 72);">
<path d="M49.1,114.2l1-0.1l0.6,9.4l-1,0.1L49.1,114.2z"/>
<path d="M47.5,114.3l1-0.1l0.7,10.4l-1,0.1L47.5,114.3z"/>
<path d="M49.6,106.7h0.6l0.2,3.7h-0.6L49.6,106.7z"/>
<path d="M46.4,106.9H47l0.2,3.7h-0.6L46.4,106.9z"/>
<path d="M49.9,110.7v0.4l-2.7,0.2v-0.4L49.9,110.7z"/>
<path d="M49.9,111.1v0.4l-2.7,0.2v-0.4L49.9,111.1z"/>
<path d="M49.9,110.3v0.4l-2.7,0.2v-0.4L49.9,110.3z"/>
<path d="M49.6,105.7v0.4l-2.7,0.2v-0.4L49.6,105.7z"/>
</g>
</g>
<path id="Holster_Thigh-Plate-Holster-Right" d="M46.2,124.6l3.3-0.2l1.9-6.8l1-0.1l2,30.2c0,0-2.8,0.2-4.8,0.3 c-0.5,0-1-0.1-1.4-0.5c-0.4-0.3-0.6-0.8-0.6-1.3C47.2,140.7,46.2,124.6,46.2,124.6z" style="fill: rgb(11, 96, 125);"/>
</g>
</g>
</g>
<g id="Under-Belt">
<g id="Girth-Belt" class="option" style="fill: rgb(89, 10, 10); display: inherit;">
<path d="M84.4,84.5c-9.3,0-27.8-2.2-27.8-2.2l0.6-1.9c0,0,18.1,1.5,27.2,2.2c9.1-0.8,27.2-2.2,27.2-2.2l0.6,1.9 C112.2,82.2,93.6,84.5,84.4,84.5z"/>
<path d="M84.4,86.4c-9.5,0-28.4-2.2-28.4-2.2l0.6-1.9c0,0,23.2,1.9,27.8,2.2c4.6-0.4,27.8-2.2,27.8-2.2l0.6,1.9 C112.7,84.1,93.8,86.4,84.4,86.4z"/>
<path d="M84.4,88.3c-9.6,0-28.8-2.2-28.8-2.2l0.4-1.9c0,0,23.7,1.9,28.4,2.2c4.7-0.4,28.4-2.2,28.4-2.2l0.4,1.9 C113.2,86.1,94,88.3,84.4,88.3z"/>
<path d="M84.4,90.2c-9.7,0-29.2-2.2-29.2-2.2l0.4-1.9c0,0,24,1.9,28.8,2.2c4.8-0.4,28.8-2.2,28.8-2.2l0.4,1.9 C113.5,88,94.1,90.2,84.4,90.2z"/>
<path d="M84.4,92.1c-9.8,0-29.5-2.2-29.5-2.2l0.3-1.9c0,0,24.3,1.9,29.2,2.2c4.9-0.4,29.2-2.2,29.2-2.2l0.3,1.9 C113.9,89.9,94.2,92.1,84.4,92.1z"/>
<path d="M84.4,94c-9.9,0-29.8-2.2-29.8-2.2l0.3-1.9c0,0,24.6,1.9,29.5,2.2c4.9-0.4,29.5-2.2,29.5-2.2l0.3,1.9 C114.2,91.8,94.3,94,84.4,94z"/>
<path d="M84.4,95.9c-10,0-30.1-2.2-30.1-2.2l0.3-1.9c0,0,24.8,1.9,29.8,2.2c5-0.4,29.8-2.2,29.8-2.2l0.3,1.9 C114.5,93.7,94.4,95.9,84.4,95.9z"/>
<path d="M84.4,97.8c-10.1,0-30.4-2.2-30.4-2.2l0.3-1.9c0,0,25.1,1.9,30.1,2.2c5-0.4,30.1-2.2,30.1-2.2l0.3,1.9 C114.8,95.6,94.5,97.8,84.4,97.8z"/>
<path d="M84.4,99.7c-10.3,0-30.8-2.2-30.8-2.2l0.3-1.9c0,0,25.4,1.9,30.4,2.2c5.1-0.4,30.4-2.2,30.4-2.2l0.3,1.9 C115.1,97.5,94.6,99.7,84.4,99.7z"/>
<path d="M84.4,101.6c-10.4,0-31.2-2.2-31.2-2.2l0.4-1.9c0,0,25.6,1.9,30.8,2.2c5.1-0.4,30.8-2.2,30.8-2.2l0.4,1.9 C115.5,99.4,94.8,101.6,84.4,101.6z"/>
</g>
</g>
<g id="Belt">
<g id="Basic-Belt" class="option" style="display: inherit;">
<path id="Main_Basic-Belt" d="M114.5,92.5c-6.8,0.6-22.3,2.8-30.1,2.8c-7.9,0-23.4-2.2-30.1-2.8l1-7.9 c5.5,0.5,21.4,2.7,29.1,2.7c7.4,0,23-2.2,28.9-2.8L114.5,92.5z" style="fill: rgb(139, 87, 42);"/>
<rect id="Buckle_Basic-Belt" x="78.8" y="86.6" width="11.2" height="9.2" style="fill: rgb(255, 215, 0);"/>
</g>
</g>
</g>
<g id="Extras_Front">
<g id="Front">
<g id="None_Front" class="option" style="display: inherit;">
</g>
</g>
</g>
</svg></svg>