<?xml version='1.0' encoding='UTF-8'?>
<svg version="1.1" id="Male-Body" xmlns="http://www.w3.org/2000/svg" xmlns:serif="http://www.serif.com/" viewBox="0 -55 170 300" style="stroke-width: 0.2px; fill-rule: evenodd; stroke-linejoin: round;" width="170" height="300">
<style>
mask {
mask-type: alpha;
}
.decal {
stroke: none;
}
</style>
<defs id="Masks" stroke="none">
<mask id="HelmetsMask"> <use href="#Helmets"/> </mask>
<mask id="CollarMask"> <use href="#Collar"/> </mask>
<mask id="ShouldersMask"> <use href="#Shoulders"/> </mask>
<mask id="ChestMask"> <use href="#Chest"/> </mask>
<mask id="BicepsMask"> <use href="#Biceps"/> </mask>
<mask id="GauntletsMask"> <use href="#Gauntlets"/> </mask>
<mask id="WaistMask"> <use href="#Waist"/> </mask>
<mask id="GroinMask"> <use href="#Groin"/> </mask>
<mask id="ThighsMask"> <use href="#Thighs"/> </mask>
<mask id="KneesMask"> <use href="#Knees"/> </mask>
<mask id="ShinsMask"> <use href="#Shins"/> </mask>
<mask id="FootMask"> <use href="#Foot"/> </mask>
</defs>
<defs id="Decals"/><metadata><rdf:rdf xmlns:rdf="http://www.w3.org/1999/02/22-rdf-syntax-ns#" xmlns:rdfs="http://www.w3.org/2000/01/rdf-schema#" xmlns:dc="http://purl.org/dc/elements/1.1/"><rdf:description><dc:creator>MandoCreator</dc:creator><dc:publisher>https://www.mandocreator.com</dc:publisher><dc:description>Your Beskar'gam - created by MandoCreator</dc:description><dc:format>image/svg+xml</dc:format><dc:type>Image</dc:type><dc:title>MandoCreator - Ner Berskar'gam</dc:title><dc:date>2022-01-02T16:22:24.555Z</dc:date></rdf:description></rdf:rdf></metadata><g id="Main-Body" fill="white" stroke="black">
<g id="Extras_Back">
<g id="Back"><g id="NO-CAPES_Back" class="option" style="display: inherit;">
</g>
</g>
</g>
<g id="Extras-BackDecals" mask="url(#BackMask)">
</g>
<g id="Suit">
<g id="Neck-Seal"><g id="Standard-Neck-Seal" class="option" fill="rgb(93, 84, 84)" style="display: inherit;">
<path d="M98.75,7.5c0-0.9-0.93-1.62-2.07-1.62c0,0-7.8,0.85-11.7,0.85s-11.7-0.85-11.7-0.85 c-1.14,0-2.07,0.73-2.07,1.62s0.93,1.62,2.07,1.62c0,0,7.8,0.85,11.7,0.85s11.7-0.85,11.7-0.85C97.83,9.13,98.75,8.4,98.75,7.5z"/>
<path d="M99.45,9.4c0-0.94-0.97-1.71-2.17-1.71c0,0-8.2,0.9-12.29,0.9S72.69,7.7,72.69,7.7 c-1.2,0-2.17,0.76-2.17,1.71s0.97,1.71,2.17,1.71c0,0,8.2,0.9,12.29,0.9s12.29-0.9,12.29-0.9C98.48,11.11,99.45,10.34,99.45,9.4z "/>
<path d="M100.24,11.76c0-0.99-1.03-1.8-2.29-1.8c0,0-8.64,0.95-12.96,0.95S72.02,9.96,72.02,9.96 c-1.26,0-2.29,0.81-2.29,1.8s1.03,1.8,2.29,1.8c0,0,8.64,0.95,12.97,0.95s12.96-0.95,12.96-0.95 C99.21,13.56,100.24,12.75,100.24,11.76z"/>
<path d="M101,13.92c0-1.04-1.08-1.89-2.41-1.89c0,0-9.08,0.99-13.61,0.99s-13.61-0.99-13.61-0.99 c-1.33,0-2.41,0.85-2.41,1.89c0,1.04,1.08,1.89,2.41,1.89c0,0,9.08,0.99,13.61,0.99s13.61-0.99,13.61-0.99 C99.93,15.81,101,14.96,101,13.92z"/>
<path d="M101.76,16.04c0-0.79-1.13-1.43-2.52-1.43c0,0-9.51,0.75-14.26,0.75s-14.26-0.75-14.26-0.75 c-1.39,0-2.52,0.64-2.52,1.43c0,0.79,1.13,1.43,2.52,1.43c0,0,9.51,0.75,14.26,0.75s14.26-0.75,14.26-0.75 C100.63,17.47,101.76,16.83,101.76,16.04z"/>
<path d="M101.76,18.42c0-0.79-1.13-1.43-2.52-1.43c0,0-9.51,0.75-14.26,0.75s-14.26-0.75-14.26-0.75 c-1.39,0-2.52,0.64-2.52,1.43c0,0.79,1.13,1.43,2.52,1.43c0,0,9.51,1.44,14.26,1.44s14.26-1.44,14.26-1.44 C100.63,19.84,101.76,19.21,101.76,18.42z"/>
</g>
</g>
<g id="Flight-Suit" fill="rgb(93, 84, 84)">
<path d="M73.36,158.45l-1.49,8.72l-11.03,53.11c0,0-4.93,2.96-7.47,3.46c-2.53,0.5-7.73-0.44-7.73-0.44l3.85-43 l2.9-18.36l0.66-7.82c0,0-2.53-22.78-1.7-34.14c0.82-11.36,6.66-34.01,6.66-34.01l26.98,0.58l26.97-0.58 c0,0,5.83,22.66,6.66,34.01c0.83,11.36-1.7,34.14-1.7,34.14l0.66,7.82l2.9,18.36l3.85,43c0,0-5.32,1.19-7.85,0.69 c-2.53-0.5-7.34-3.71-7.34-3.71L98.1,167.16l-1.49-8.72l-11.62-30.33L73.36,158.45z"/>
<g>
<path d="M129.41,43.33l11.98,41.65l1.04,21.47l-9.55,1.83l-6.05-20.21l-13.65-33.95l0.69-15.55l2.31-3.72 L129.41,43.33z"/>
<path d="M40.59,43.3l13.19-8.45l2.31,3.72l0.52,16.04L43.17,88.07l-6.05,20.21l-9.55-1.83l1.03-21.47L40.59,43.3z"/>
</g>
</g>
<g id="Sleeves" class="toggle" fill="rgb(93, 84, 84)">
<g>
<path d="M112.2,56.12l2.68,5.9c0,0,4.24-3.2,7.06-4.8s4.38-2.62,6.92-3.6c2.54-0.98,5.08-1.47,5.08-1.47l-6.07-12.25 l-5.79-9.67l-11.58,5.14L112.2,56.12z"/>
<path d="M113.61,59.24c-0.2-0.24,5.08-4.5,8.61-6.34c3.53-1.84,10.25-3.69,10.25-3.69"/>
</g>
<g>
<path d="M57.8,56.12l-2.68,5.9c0,0-4.24-3.2-7.06-4.8c-2.82-1.59-4.38-2.62-6.92-3.6c-2.54-0.98-5.08-1.47-5.08-1.47 l6.07-12.25l5.79-9.67l11.58,5.14L57.8,56.12z"/>
<path d="M56.39,59.24c0.2-0.24-5.08-4.5-8.61-6.34c-3.53-1.84-10.25-3.69-10.25-3.69"/>
</g>
</g>
</g>
<g id="Boots">
<g id="Tall_Boots" class="option" style="display: inherit;">
<g id="Bottom_Tall-Boot" fill="rgb(235, 183, 139)">
<path d="M107.62,230.35c0.02,0.13,0.06,0.26,0.1,0.4c0.96,1.77,3.59,2.37,5.38,2.79c1.27,0.3,2.5,0.72,3.7,1.22 c1.66,0.7,2.49,1.93,3.79,3.1c0.58,0.52,1.26,0.93,1.92,1.32c1.65,0.99,3.25,1.07,5.13,1.12c2.52,0.07,4.75-0.27,7.23-0.82 c2.17-0.48,3.79-0.89,5.67-1.42c0.56-0.16,1.25-0.27,1.59-0.69l0.28,0.63l0.21,1.64c0,0-2.03,1.09-4.2,1.57 c-2.16,0.48-6.53,1.15-6.53,1.15l-0.3-0.71l-0.98,0.21l0.05,0.7l-2.38,0.13l-0.51-0.69l-0.79,0.02l0.12,0.61 c0,0-1.47-0.02-2.29-0.51c-0.15-0.23-0.46-0.61-0.46-0.61l-0.56-0.31l0.07,0.58l-2.04-0.73l-0.1-0.79l-0.59-0.34l-0.03,0.57 l-1.46-1.12l-0.16-0.69l-3.14-1.64l-1.07,0.43l-2.55-0.55l-0.08-0.55l-0.65-0.27l-0.45,0.42l-1.71-0.7l-0.04-0.51l-0.56-0.19 l-0.06,0.37l-1.62-1.12L107.62,230.35z M107.56,229.7L107.56,229.7L107.56,229.7L107.56,229.7z"/>
<path d="M62.37,230.35c-0.02,0.13-0.06,0.26-0.1,0.4c-0.97,1.77-3.59,2.37-5.38,2.79c-1.27,0.3-2.5,0.72-3.7,1.22 c-1.66,0.7-2.49,1.93-3.79,3.1c-0.58,0.52-1.26,0.93-1.92,1.32c-1.65,0.99-3.25,1.07-5.13,1.12c-2.52,0.07-4.75-0.27-7.23-0.82 c-2.17-0.48-3.79-0.89-5.67-1.42c-0.56-0.16-1.25-0.27-1.59-0.69l-0.28,0.63l-0.21,1.64c0,0,2.03,1.09,4.2,1.57 c2.16,0.48,6.53,1.15,6.53,1.15l0.3-0.71l0.98,0.21l-0.05,0.7l2.38,0.13l0.51-0.69l0.8,0.02l-0.12,0.61c0,0,1.47-0.02,2.29-0.51 c0.15-0.23,0.46-0.61,0.46-0.61l0.56-0.31l-0.07,0.58l2.04-0.73l0.1-0.79l0.59-0.34l0.02,0.57l1.46-1.12l0.16-0.69l3.14-1.64 l1.07,0.43l2.55-0.55l0.08-0.55l0.65-0.27l0.45,0.42l1.71-0.7l0.04-0.51l0.56-0.19l0.07,0.37l1.62-1.12L62.37,230.35z M62.43,229.7L62.43,229.7L62.43,229.7L62.43,229.7z"/>
</g>
<g id="Main_Tall-Boot" fill="rgb(163, 163, 163)">
<path d="M107.64,216.98c-1.45-4.23-2.54-10.99-3.41-14.07c-0.65-2.31-3.63-14.87-3.14-16.45 c0.5-1.6,19.67-4.86,20.29-3.42c0.94,2.2,2.03,23.99,2.2,27.2c0.12,2.35,0.47,4.66,0.47,7.01l0,0.01 c0.25,1.28,0.46,2.66,0.99,3.81c1.01,2.17,0.97,3.11,2.65,4.75c1.16,1.13,4.16,3.11,5.54,3.97c0.58,0.36,1.21,0.64,1.85,0.88 l0.06,0.02c2.55,0.95,5.3,1.3,6.68,4.11c0.3,0.61,0.56,1.34,0.51,2.04c-0.07,0.89-1.04,1.01-1.79,1.23 c-1.88,0.53-3.5,0.94-5.67,1.42c-2.48,0.55-4.71,0.89-7.23,0.82c-1.88-0.05-3.47-0.13-5.13-1.12c-0.67-0.4-1.35-0.8-1.92-1.32 c-1.29-1.17-2.13-2.4-3.79-3.1c-1.2-0.51-2.43-0.92-3.7-1.22c-1.8-0.43-4.42-1.02-5.38-2.79c-0.37-1.33,0.01-1.98,0.13-3.12 l0.06-0.49c0.1-0.74,0.23-1.5,0.27-2.31c0.08-1.54-0.31-3.06-0.41-4.59c-0.06-0.87-0.1-1.74-0.12-2.61 C107.65,217.52,107.61,217.19,107.64,216.98z"/>
<path d="M62.35,216.98c1.45-4.23,2.54-10.99,3.41-14.07c0.65-2.31,3.63-14.87,3.14-16.45 c-0.5-1.6-19.67-4.86-20.29-3.42c-0.94,2.2-2.03,23.99-2.2,27.2c-0.12,2.35-0.47,4.66-0.47,7.01l0.01,0.01 c-0.25,1.28-0.46,2.66-0.99,3.81c-1.01,2.17-0.97,3.11-2.65,4.75c-1.16,1.13-4.16,3.11-5.54,3.97c-0.59,0.36-1.21,0.64-1.85,0.88 l-0.06,0.02c-2.55,0.95-5.3,1.3-6.68,4.11c-0.3,0.61-0.56,1.34-0.51,2.04c0.07,0.89,1.04,1.01,1.79,1.23 c1.88,0.53,3.5,0.94,5.67,1.42c2.48,0.55,4.72,0.89,7.23,0.82c1.88-0.05,3.47-0.13,5.13-1.12c0.67-0.4,1.35-0.8,1.92-1.32 c1.29-1.17,2.13-2.4,3.79-3.1c1.2-0.51,2.43-0.92,3.7-1.22c1.8-0.43,4.42-1.02,5.38-2.79c0.37-1.33-0.01-1.98-0.13-3.12 l-0.06-0.49c-0.1-0.74-0.23-1.5-0.27-2.31c-0.08-1.54,0.31-3.06,0.41-4.59c0.06-0.87,0.1-1.74,0.12-2.61 C62.33,217.52,62.37,217.19,62.35,216.98z"/>
</g>
</g></g>
<g id="Gloves">
<g id="Left-Glove"><g id="Basic_Left_Glove" class="option" fill="rgb(93, 84, 84)" style="display: inherit;">
<path d="M138.6,124.11c-0.54-0.03-1.05-0.01-1.58,0.1c-0.36,0.08-0.72,0.16-1.04,0.35 c-0.99,0.57-0.72,1.81,0.16,2.28c1.03,0.55,2.66,0.01,3.13-1.05C139.46,125.35,138.86,124.53,138.6,124.11"/>
<path d="M136.79,125.19c-0.54-0.03-1.05-0.02-1.59,0.1c-0.36,0.08-0.72,0.16-1.04,0.35 c-0.99,0.57-0.72,1.81,0.16,2.28c1.03,0.55,2.66,0.01,3.13-1.05C137.65,126.43,137.05,125.61,136.79,125.19"/>
<path d="M135.49,126.65c-0.54,0.05-1.19,0.13-1.7,0.31c-0.35,0.12-0.69,0.26-0.99,0.48c-0.9,0.7-0.47,1.89,0.47,2.24 c1.1,0.41,2.64-0.35,2.96-1.46C136.36,127.76,135.49,126.65,135.49,126.65z"/>
<path d="M132.55,110.05c0,0-1.56,2.15-1.97,3.69c-0.29,1.09-0.13,3.68-0.49,5.43c-0.36,1.74-0.69,2.71-0.69,2.71 s-1.38,2.79-1.14,3.43c0.24,0.64,1.45,1.21,2.15,0.87c0.86-0.42,1.93-2.39,2.61-3.77c0.69-1.41,1.25-3.41,1.25-3.41 s0.95,0.32,1.43,0.7c1.61,1.24,0.91,4.96,0.91,4.96s-0.66,1.33-1.66,2.83c-1.36,2.05-3.46,3.81-2.07,5.37 c1.29,1.46,4.22-2.37,4.22-2.37l2.87-3.73c0,0,3.3-5.41,3.47-6.46c0.13-0.8,0.02-3.47,0.02-3.47l-1.03-10.37l-5.24,0.44 l-4.31,1.39L132.55,110.05"/>
</g>
</g>
<g id="Right-Glove"><g id="Basic_Right_Glove" class="option" fill="rgb(93, 84, 84)" style="display: inherit;">
<path d="M31.4,124.11c0.54-0.03,1.05-0.01,1.58,0.1c0.36,0.08,0.72,0.16,1.04,0.35c0.99,0.57,0.72,1.81-0.16,2.28 c-1.03,0.55-2.66,0.01-3.13-1.05C30.53,125.35,31.14,124.53,31.4,124.11"/>
<path d="M33.21,125.19c0.54-0.03,1.05-0.02,1.58,0.1c0.36,0.08,0.72,0.16,1.04,0.35c0.99,0.57,0.72,1.81-0.16,2.28 c-1.03,0.55-2.66,0.01-3.13-1.05C32.35,126.43,32.95,125.61,33.21,125.19"/>
<path d="M34.51,126.65c0.54,0.05,1.19,0.13,1.7,0.31c0.35,0.12,0.69,0.26,0.99,0.48c0.9,0.7,0.47,1.89-0.47,2.24 c-1.1,0.41-2.64-0.35-2.96-1.46C33.64,127.76,34.51,126.65,34.51,126.65z"/>
<path d="M37.45,110.05c0,0,1.56,2.15,1.97,3.69c0.29,1.09,0.13,3.68,0.49,5.43c0.36,1.74,0.69,2.71,0.69,2.71 s1.38,2.79,1.14,3.43c-0.24,0.64-1.45,1.21-2.15,0.87c-0.86-0.42-1.93-2.39-2.61-3.77C36.29,121,35.73,119,35.73,119 s-0.95,0.32-1.43,0.7c-1.61,1.24-0.91,4.96-0.91,4.96s0.66,1.33,1.66,2.83c1.36,2.05,3.46,3.81,2.08,5.37 c-1.29,1.46-4.22-2.37-4.22-2.37l-2.87-3.73c0,0-3.3-5.41-3.47-6.46c-0.13-0.8-0.02-3.47-0.02-3.47l1.03-10.37l5.24,0.44 l4.31,1.39L37.45,110.05"/>
</g>
</g>
</g>
<g id="Biceps">
<g id="Left-Biceps"><g id="Basic_Biceps_Left" class="option" style="display: inherit;">
<path id="Main_Basic_Biceps_Left" d="M134.37,52.38c-1.14-2.74-6.21-14.78-6.21-14.78s-8.34,3.42-10.42,4.28 c-0.59,0.24-0.87,0.91-0.63,1.5c0.98,2.36,3.38,8.14,4.87,11.74c0.34,0.81,0.99,1.46,1.81,1.8c0.82,0.34,1.74,0.34,2.56,0 c2.45-1.01,5.73-2.35,7.4-3.04C134.33,53.63,134.61,52.96,134.37,52.38z" fill="rgb(126, 192, 242)"/>
<path id="Strap_Basic_Biceps_Left" d="M119.35,48.7l-5.85,2.4l-0.14,4.29l7.49-3.07L119.35,48.7" fill="rgb(98, 60, 28)"/>
<path id="Trauma-Plate_Basic_Biceps_Left" class="toggle" style="" d="M134.34,51.81l-5.29-12.74l-10.16,4.17l4.67,11.24 c0.17,0.4,0.49,0.72,0.89,0.88c0.4,0.17,0.85,0.17,1.26,0L134.34,51.81" fill="rgb(163, 163, 163)"/>
</g>
</g>
<g id="Right-Biceps"><g id="Basic_Biceps_Right" class="option" style="display: inherit;">
<path id="Main_Basic_Biceps_Right" d="M35.65,52.38c1.14-2.74,6.22-14.78,6.22-14.78s8.34,3.42,10.42,4.28 c0.59,0.24,0.87,0.91,0.63,1.5c-0.98,2.36-3.38,8.14-4.87,11.74c-0.34,0.81-0.99,1.46-1.81,1.8c-0.82,0.34-1.74,0.34-2.56,0 c-2.45-1.01-5.73-2.35-7.4-3.04C35.69,53.63,35.41,52.96,35.65,52.38z" fill="rgb(126, 192, 242)"/>
<path id="Strap_Basic_Biceps_Right" d="M50.68,48.7l5.85,2.4l0.14,4.29l-7.49-3.07L50.68,48.7" fill="rgb(98, 60, 28)"/>
<path id="Trauma-Plate_Basic_Biceps_Right" class="toggle" style="" d="M35.69,51.81l5.29-12.74l10.16,4.17l-4.66,11.24 c-0.17,0.4-0.49,0.72-0.89,0.88s-0.85,0.17-1.26,0L35.69,51.81" fill="rgb(163, 163, 163)"/>
</g>
</g>
</g>
<g id="BicepsDecals" mask="url(#BicepsMask)">
</g>
<path id="Vest" d="M85,20.92c8.5-0.01,15.43-4.3,15.63-8.01l0.15,0.02l18.38,5.42l13.31,23.94l-2.86,1.16l-13.42-8.6 l-2.31,3.72l-1.54,47.4c0,0-8.72,4.71-13.53,5.35c-3.44,0.45-8.63,0.68-13.79,0.67c-5.16,0.01-10.35-0.22-13.79-0.67 c-4.81-0.63-13.53-5.35-13.53-5.35l-1.54-47.4l-2.31-3.72l-13.42,8.6l-2.86-1.16l13.31-23.94l18.38-5.42l0.15-0.02 C69.57,16.62,76.5,20.92,85,20.92" fill="rgb(93, 84, 84)"/>
<g id="SuitDecals" mask="url(#SuitMask)">
</g>
<g class="swappable" id="Chest"><g id="Chest_Gunslinger">
<g id="Abdomen_Gunslinger">
<g id="Left_Abdomen_Gunslinger" fill="rgb(218, 218, 218)">
<path d="M99.07,74.44l7.25-12.98l-3.77-5.3l-0.3-0.64l-4.12,0.51l-1.69,20L99.07,74.44z"/>
<path d="M99.07,74.44l7.25-12.98l1.9,2.67l2.51-1.99l-0.67,8.89L99.07,74.44z"/>
</g>
<g id="Right_Abdomen_Gunslinger" fill="rgb(218, 218, 218)">
<path d="M70.93,74.44l-7.25-12.98l-1.9,2.67l-2.51-1.99l0.67,8.89L70.93,74.44z"/>
<path d="M70.93,74.44l-7.25-12.98l3.77-5.3l0.3-0.64l4.12,0.51l1.69,20L70.93,74.44z"/>
</g>
<path id="Center_Abdomen_Gunslinger" d="M85,51.76l13.13,4.27l-1.69,20l-2.01,1.21L85,76.74l-9.43,0.51l-2.01-1.21 l-1.69-20L85,51.76z" fill="rgb(163, 163, 163)"/>
</g>
<g id="Chest-Plates_Gunslinger">
<g id="Left-Chest_Gunslinger" fill="rgb(163, 163, 163)">
<path d="M85.76,29.31v-3.08l2.54-2.52l24.4-2.75l2.19,13.55l-3.63,27.22l-3.03,2.41l-5.67-7.97l-1.59-3.38 l-15.13-4.59l3.93-3.91V32.92L85.76,29.31z"/>
<path d="M100.96,52.78l11.15-6.55l2.77-11.71l-2.45,12.59l-9.88,9.05L100.96,52.78z"/>
<path d="M102.25,55.52l-4.12,0.51L85,51.76v-3.78l15.96,4.79L102.25,55.52z"/>
</g>
<g id="Right-Chest_Gunslinger" fill="rgb(163, 163, 163)">
<path d="M84.24,29.31v-3.08l-2.54-2.52l-24.4-2.75L55.12,34.5l3.63,27.22l3.03,2.41l5.67-7.97l1.59-3.38l15.13-4.59 l-3.93-3.91V32.92L84.24,29.31z"/>
<path d="M69.04,52.78l-11.15-6.55l-2.77-11.71l2.45,12.59l9.88,9.05L69.04,52.78z"/>
<path d="M67.75,55.52l4.12,0.51L85,51.76v-3.78l-15.96,4.79L67.75,55.52z"/>
</g>
</g>
<g id="Iron-Heart_Gunslinger">
<path id="Under-Heart_Gunslinger" d="M84.17,48.19l-3.93-3.91V32.92l4.01-3.61v-3.08h1.51v3.08l4.01,3.61v11.36 l-3.93,3.91L85,47.98L84.17,48.19z" fill="rgb(93, 84, 84)"/>
<path id="Heart_Gunslinger" d="M82.1,43.35v-9.4l2.9-2.88l2.9,2.88v9.4L85,46.23L82.1,43.35z" fill="rgb(126, 192, 242)"/><rect id="Center_Heart_Gunslinger" class="option" x="84.14" y="34.52" width="1.72" height="8.25" fill="rgb(163, 163, 163)" style="display: inherit;"/>
</g>
</g></g>
<g id="ChestDecals" mask="url(#ChestMask)">
</g>
<g id="Chest-Attachments"><g id="Bandoleer_Accessories_Chest" class="option" style="display: inherit;">
<g id="Strap_Bandoleer_Accessories_Chest" fill="rgb(98, 60, 28)">
<path d="M113.05,15.37l-6.61-3.15L64.67,87.5l6.61,3.62L113.05,15.37"/>
<path d="M111.26,14.16l-2.51-1.17l-8.34,15.03l2.41,1.32L111.26,14.16"/>
<path d="M99.44,35.85l-2.76-1.51L83.86,57.44l2.76,1.51L99.44,35.85"/>
<path d="M99.71,36.72l-3.92-2.15l-1.28,2.32l3.92,2.15L99.71,36.72"/>
<path d="M98.15,39.53l-3.92-2.15l-1.28,2.32l3.92,2.15L98.15,39.53"/>
<path d="M96.6,42.33l-3.92-2.15L91.4,42.5l3.92,2.15L96.6,42.33"/>
<path d="M95.04,45.14l-3.92-2.15l-1.28,2.32l3.92,2.15L95.04,45.14"/>
<path d="M93.48,47.94l-3.92-2.15l-1.29,2.32l3.92,2.15L93.48,47.94"/>
<path d="M90.37,53.55l-3.92-2.15l-1.29,2.32l3.92,2.15L90.37,53.55"/>
<path d="M91.93,50.75l-3.92-2.15l-1.29,2.32l3.92,2.15L91.93,50.75"/>
<path d="M88.82,56.36l-3.92-2.15l-1.28,2.31l3.92,2.15L88.82,56.36"/>
</g>
<g id="Ammo_Bandoleer_Accessories_Chest" fill="rgb(176, 176, 176)">
<g>
<g>
<path d="M99.57,36.97l1.6,0.88c0.17,0.09,0.23,0.31,0.14,0.48c-0.18,0.33-0.47,0.85-0.66,1.18 c-0.1,0.17-0.31,0.23-0.48,0.14l-1.6-0.88L99.57,36.97z"/>
<path d="M100.75,37.61l-0.13-0.07l-1,1.8l0.13,0.07L100.75,37.61z"/>
<path d="M100.47,37.46l-0.13-0.07l-1,1.8l0.14,0.07L100.47,37.46z"/>
</g>
<g>
<path d="M95.65,34.82l-1,1.8l-1.6-0.88c-0.17-0.09-0.23-0.31-0.14-0.48c0.18-0.33,0.47-0.85,0.66-1.19 c0.09-0.17,0.31-0.23,0.48-0.14L95.65,34.82z"/>
<path d="M94.44,34.15l-0.13-0.07l-1,1.8l0.14,0.07L94.44,34.15z"/>
</g>
</g>
<g>
<g>
<path d="M96.45,42.6l1.6,0.88c0.17,0.09,0.23,0.31,0.14,0.48c-0.18,0.33-0.47,0.85-0.66,1.19 c-0.09,0.17-0.31,0.23-0.48,0.14l-1.6-0.88L96.45,42.6z"/>
<path d="M97.63,43.24l-0.13-0.07l-1,1.8l0.13,0.07L97.63,43.24z"/>
<path d="M97.35,43.09l-0.13-0.07l-1,1.8l0.13,0.07L97.35,43.09z"/>
</g>
<g>
<path d="M92.53,40.45l-1,1.8l-1.6-0.88c-0.17-0.09-0.23-0.31-0.14-0.48c0.18-0.33,0.47-0.85,0.66-1.19 c0.1-0.17,0.31-0.23,0.48-0.14L92.53,40.45z"/>
<path d="M91.32,39.78l-0.13-0.07l-1,1.8l0.13,0.07L91.32,39.78z"/>
</g>
</g>
<g>
<g>
<path d="M94.9,45.38l1.6,0.88c0.17,0.09,0.23,0.31,0.14,0.48c-0.18,0.33-0.47,0.85-0.66,1.18 c-0.09,0.17-0.31,0.23-0.48,0.14l-1.6-0.88L94.9,45.38z"/>
<path d="M96.08,46.03l-0.13-0.07l-1,1.8l0.13,0.07L96.08,46.03z"/>
<path d="M95.8,45.88l-0.13-0.07l-1,1.8l0.13,0.07L95.8,45.88z"/>
</g>
<g>
<path d="M90.98,43.24l-1,1.8l-1.6-0.88c-0.17-0.09-0.23-0.31-0.14-0.48c0.18-0.33,0.47-0.85,0.66-1.19 c0.1-0.17,0.31-0.23,0.48-0.14L90.98,43.24z"/>
<path d="M89.77,42.57l-0.13-0.07l-1,1.8l0.13,0.07L89.77,42.57z"/>
</g>
</g>
<g>
<g>
<path d="M93.34,48.21l1.6,0.88c0.17,0.09,0.23,0.31,0.14,0.48c-0.18,0.33-0.47,0.85-0.66,1.19 c-0.09,0.17-0.31,0.23-0.48,0.14l-1.6-0.88L93.34,48.21z"/>
<path d="M94.52,48.85l-0.13-0.07l-1,1.8l0.13,0.07L94.52,48.85z"/>
<path d="M94.24,48.7l-0.13-0.07l-1,1.8l0.13,0.07L94.24,48.7z"/>
</g>
<g>
<path d="M89.42,46.06l-1,1.8l-1.6-0.88c-0.17-0.09-0.23-0.31-0.14-0.48c0.18-0.33,0.47-0.85,0.66-1.18 c0.1-0.17,0.31-0.23,0.48-0.14L89.42,46.06z"/>
<path d="M88.21,45.39l-0.13-0.07l-1,1.8l0.13,0.07L88.21,45.39z"/>
</g>
</g>
</g>
<g id="Buckles_Bandoleer_Accessories_Chest" fill="rgb(210, 172, 25)">
<g>
<path d="M104,27.77l-2.88-1.58l-1.63,2.93l2.88,1.58L104,27.77z"/>
<path d="M103.26,28.27l-2.17-1.19l-1.63,2.93l2.17,1.19L103.26,28.27z"/>
</g>
<path d="M104,24.34l-1.86-1.01l1.61-2.92l3.76,2.05l-1.61,2.92L104,24.34l0.36-0.65l1.06,0.58l0.89-1.61l-2.07-1.13 l-0.89,1.61l1.01,0.55"/>
</g>
</g></g>
<g id="Collar"><g id="Cloth-Wrap-Left_Collar" class="option" style="display: inherit;">
<g id="Main_Cloth-Wrap-Left_Collar" fill="rgb(190, 152, 118)">
<path d="M75.09,22.25c-5-1.56-5.91-4.07-6.21-6.59c-0.12-1.03,1.36-3.72-0.17-4.41c-1.73-0.78-5.81,0.44-7.49,0.8 c-1.25,0.27-2.36,0.58-3.64,0.59c-2.94,0.03-5.28,1.99-5.54,3.45c-0.37,2.04,3.27,2.78,4.97,4.33 c4.26,3.88,5.74,9.13,14.69,10.57c4.11,0.66,8.18-0.27,11.99-1.12c9.86-2.19,15.23-4.07,21.57-8.93 c2.77-2.13,6.95-3.86,6.85-6.71c0-0.12-2.02-1.31-2.22-1.36c-1.77-0.44-3.29-1.17-5.24-1.21c-1.17-0.02-0.98,0.98-1.06,1.43 c-0.33,1.74-1.93,3.05-3.93,4.36C94.37,20.92,82.32,21.99,75.09,22.25z"/>
<path d="M75.09,22.25c-1.32,0.05-2.48,0.25-3.49,0.32c-4.58,0.28-6.21-0.83-7.1-2.86"/>
<path d="M60.86,12.11c-1.32,2.14-1.15,4.67-0.1,6.33"/>
<path d="M99.25,18.23c-3.43,4.66-8.51,6.13-14.08,6.7"/>
<path d="M108.53,12.49c-0.2,1.18-0.91,1.62-1.78,2.41c-0.5,0.46-1.11,0.78-1.51,1.35c-0.15,0.2-0.22,0.44-0.31,0.67"/>
</g>
<path id="Buckle_Cloth-Wrap-Left_Collar" d="M98.07,17.35l2.92-2.08l5.06,7.02l-2.91,2.08L98.07,17.35z" fill="rgb(210, 172, 25)"/>
</g></g>
<g id="CollarDecals" mask="url(#CollarMask)">
</g>
<g id="Helmets" class="swappable" transform="translate(45,-52)"><g id="Helmet_Gunslinger">
<g id="Left-Earcap_Gunslinger" class="toggle"><g id="Ear-Cap_Left_Gunslinger" fill="rgb(126, 192, 242)">
<path d="M59.92,40.84l-0.66,0.28l-0.14,0.68h1.26L59.92,40.84z"/>
<path d="M60.29,35.29l-0.41-0.88l-1.2-0.33v2.89h1.61V35.29z"/>
<path d="M58.24,42.77l1.98-0.16l0.07,2.89l-1.61,0.71l0.44,11.49l-0.44,0.31L58.24,42.77z"/>
<path d="M59.83,45.71l0.09,9.74l-0.81,2.27l-0.44-11.49L59.83,45.71z"/>
<path d="M60.78,42.61l-0.85-1.77l-0.66,0.28l-0.25,1.19l-0.34,0.05v-1.37l1.61-0.65l0.79,2.28H60.78z"/>
<path d="M60.29,40.33v-3.36h-1.61v4.01L60.29,40.33z"/>
<path d="M60.29,35.29l0.61,1.68l0.18,5.64l-0.79-2.28V35.29z"/>
<rect x="58.68" y="35.97" width="1.2" height="1"/>
<path d="M59.02,42.31h1.62l-0.25-0.51h-1.26L59.02,42.31z"/>
<path d="M60.22,42.61l-0.34-0.3h-0.86l-0.34,0.05l-0.44,0.41L60.22,42.61z"/>
<path d="M58.68,34.6l-0.94-0.07l0.02,0.77l0.47,7.48l0.45-0.41V34.6z"/>
</g>
</g>
<g id="Right-Earcap_Gunslinger" class="toggle"><g id="Range-Finder_Right_Gunslinger" class="option" style="display: inherit;">
<path id="Shaft_Right_Range-Finder_Gunslinger" d="M22.48,9.72l1.08,0.07l-1.61,26.85h-1.1L22.48,9.72z" fill="rgb(141, 141, 141)"/>
<path id="Finder_Right_Range-Finder_Gunslinger" d="M30.81,7.55h-5.96l0.24-0.74l6.96-0.65L30.81,7.55" fill="rgb(7, 168, 42)"/>
<g id="Cover_Right_Range-Finder_Gunslinger" fill="rgb(126, 192, 242)">
<path d="M21.62,8.59l2.84,0.19l0.63-1.96l7.48-0.7l0.15-0.76l-10.68-0.4L21,6.27L21.62,8.59"/>
<path d="M22.38,8.64l1.41,0.09L23.72,9.8l-1.4-0.09L22.38,8.64"/>
</g>
</g>
<g id="Ear-Cap_Right_Gunslinger" fill="rgb(126, 192, 242)">
<path d="M20.08,40.87l0.66,0.28l0.14,0.68h-1.26L20.08,40.87z"/>
<path d="M19.71,35.32l0.41-0.88l1.2-0.33V37h-1.61V35.32z"/>
<path d="M21.76,42.79l-1.98-0.16l-0.07,2.89l1.61,0.72l-0.44,11.49l0.44,0.31L21.76,42.79z"/>
<path d="M20.17,45.73l-0.09,9.74l0.81,2.27l0.44-11.49L20.17,45.73z"/>
<path d="M19.22,42.64l0.85-1.77l0.66,0.28l0.25,1.19l0.34,0.05v-1.37l-1.61-0.65l-0.79,2.28H19.22z"/>
<path d="M19.71,40.35V37h1.61v4.01L19.71,40.35z"/>
<path d="M19.71,35.32L19.1,37l-0.18,5.64l0.79-2.28V35.32z"/>
<rect x="20.12" y="36" width="1.2" height="1"/>
<path d="M20.98,42.33h-1.61l0.25-0.51h1.26L20.98,42.33z"/>
<path d="M19.78,42.64l0.34-0.3h0.86l0.34,0.05l0.44,0.41L19.78,42.64z"/>
<path d="M21.32,34.62l0.94-0.07l-0.02,0.77l-0.47,7.47l-0.45-0.41V34.62z"/>
</g>
</g>
<g id="Helmet_Pieces_Gunslinger">
<g id="Face_Gunslinger" fill="rgb(202, 202, 202)">
<path d="M23.18,59.57l2.42-9.55l0.01,0c0.18,0.01,3.1,0.32,5.98,4.61c2,2.99,2.57,11.45,2.57,11.45L23.18,59.57z"/>
<path d="M56.8,59.57l-2.42-9.55l-0.01,0c-0.18,0.01-3.1,0.32-5.98,4.61c-2,2.99-2.57,11.45-2.57,11.45L56.8,59.57z"/>
</g>
<g id="Cheeks_Gunslinger" fill="rgb(163, 163, 163)">
<path d="M21.77,42.33l-0.45,15.93l1.86,1.31l2.42-9.55L21.77,42.33z"/>
<path d="M58.21,42.33l0.45,15.93l-1.86,1.31l-2.42-9.55L58.21,42.33z"/>
<path d="M21.79,42.34c0.32,0.08,5.51,1.37,8.64,6.39c3.12,5.02,4.47,16.59,4.55,17.31l0,0.03h-0.82 c0,0-0.56-8.46-2.57-11.45c-2.97-4.43-5.99-4.61-5.99-4.61l-3.82-7.68L21.79,42.34z"/>
<path d="M58.19,42.34c-0.32,0.08-5.51,1.37-8.64,6.39c-3.12,5.02-4.47,16.59-4.55,17.31l0,0.03h0.82 c0,0,0.56-8.46,2.57-11.45c2.97-4.43,5.99-4.61,5.99-4.61l3.83-7.68L58.19,42.34z"/>
</g>
<path fill="rgb(0, 0, 0)" id="Visor_Gunslinger" d="M22.72,37.76l17.27,0.93l17.27-0.93v1.43l-13.48,3.15l-0.94,21.71h-5.7L36.2,42.33 l-13.48-3.15V37.76z"/>
<g id="Eyes_Gunslinger" fill="rgb(126, 192, 242)">
<path d="M22.72,37.76v1.43l13.48,3.15l0.94,21.71l-2.16,2.03c0,0-1.33-12.16-4.55-17.34 c-3.22-5.18-8.65-6.4-8.65-6.4l0.47-7.02h35.5l0.47,7.02c0,0-5.43,1.21-8.65,6.4c-3.22,5.18-4.55,17.34-4.55,17.34l-2.16-2.03 l0.94-21.71l13.48-3.15v-1.43l-17.27,0.93L22.72,37.76z"/>
<rect x="22.21" y="35.77" width="35.56" height="0.46"/>
</g>
<path id="Dome_Gunslinger" d="M57.74,35.32h-35.5c0-9.07,7.95-16.43,17.75-16.43C49.79,18.89,57.74,26.25,57.74,35.32 z" fill="rgb(163, 163, 163)"/>
<path id="Ridge-2_Gunslinger" d="M37.94,37.13l-1.56-1.81V19.23c0,0,1.1-0.58,3.6-0.53l0.03,0 c2.48-0.05,3.58,0.53,3.58,0.53v16.09l-1.56,1.81H37.94z" fill="rgb(121, 187, 246)"/>
<path id="Ridge-1_Gunslinger" d="M38.47,34.92l-0.28-0.28V18.78c0,0,0.55-0.14,1.8-0.08l0.03,0 c1.23-0.05,1.77,0.09,1.77,0.09v15.85l-0.28,0.28H38.47z" fill="rgb(218, 218, 218)"/>
</g>
</g></g>
<g id="HelmetsDecals" mask="url(#HelmetsMask)"/>
<g id="Shoulders">
<g id="Left-Shoulder"><g id="Gunslinger-Bell_Shoulder_Left" class="option" style="display: inherit;">
<path id="Main_Gunslinger-Bell_Shoulder_Left" d="M113.87,16.41c6.16-0.15,19.92,4.76,19.37,22.26l-0.07,3.45 l-11.98,4.89l-10.5-13.96l0-16.64L113.87,16.41z" fill="rgb(163, 163, 163)"/>
<path id="Ridge_Gunslinger-Bell_Shoulder_Left" class="toggle" d="M110.68,16.41L110.68,16.41l0-2.02 c13.11-0.07,25.51,5.55,24.56,27.14l-2.01,0.47c-0.02-0.25-0.04-0.51-0.06-0.75l0.06-2.59c0.55-17.49-13.2-22.4-19.37-22.26 h-0.68C111.83,16.22,110.9,16.27,110.68,16.41L110.68,16.41L110.68,16.41z" fill="rgb(126, 192, 242)"/>
<g id="Trim_Gunslinger-Bell_Shoulder_Left" class="toggle" fill="rgb(126, 192, 242)">
<rect x="110.68" y="15.63" width="3.19" height="17.45"/>
<path d="M113.87,32l-3.19,1.05l10.51,13.97l2.55-1.9L113.87,32z"/>
<path d="M122.26,43.14l-1.11,3.88l12.58-5.13v-3.42L122.26,43.14z"/>
</g>
</g></g>
<g id="Right-Shoulder"><g id="Gunslinger-Bell_Shoulder_Right" class="option" style="display: inherit;">
<path id="Main_Gunslinger-Bell_Shoulder_Right" d="M56.13,16.41c-6.16-0.15-19.92,4.76-19.37,22.26l0.08,3.45 l11.98,4.89l10.5-13.96l0-16.64L56.13,16.41z" fill="rgb(0, 0, 0)"/>
<path id="Ridge_Gunslinger-Bell_Shoulder_Right" class="toggle" d="M59.32,16.41L59.32,16.41l0-2.02 c-13.11-0.07-25.51,5.55-24.56,27.14l2.01,0.47c0.02-0.25,0.04-0.51,0.06-0.75l-0.06-2.59c-0.55-17.49,13.2-22.4,19.37-22.26 h0.68C58.17,16.22,59.1,16.27,59.32,16.41L59.32,16.41L59.32,16.41z" fill="rgb(126, 192, 242)"/>
<g id="Trim_Gunslinger-Bell_Shoulder_Right" class="toggle" fill="rgb(126, 192, 242)">
<rect x="56.13" y="15.63" width="3.19" height="17.45"/>
<path d="M56.13,32l3.19,1.05L48.81,47.02l-2.55-1.9L56.13,32z"/>
<path d="M47.74,43.14l1.12,3.88l-12.58-5.13v-3.42L47.74,43.14z"/>
</g>
</g></g>
</g>
<g id="ShouldersDecals" mask="url(#ShouldersMask)">
</g>
<g id="Gauntlets">
<g id="Left-Gauntlets"><g id="Gunslinger_Gauntlet_Left" class="option" style="display: inherit;">
<g id="Accent-Top_Gunslinger_Gauntlet_Left" fill="rgb(199, 197, 197)">
<path d="M139.9,80.56l0.62,5.62l-2.85,0.79l-0.66-5.33L139.9,80.56z"/>
<path d="M138.55,101.39l0.57,2.87l-2.51,0.54l-0.6-2.86L138.55,101.39z"/>
</g>
<path id="Top_Gunslinger_Gauntlet_Left" d="M139.9,80.56l1.3-0.49l2.29,26.33l-6.27,1.32l-0.85-4.08l0.24,1.15 l2.51-0.54l-0.57-2.87l-2.54,0.54l-3.85-18.47L139.9,80.56l-2.89,1.08l0.66,5.33l2.85-0.79L139.9,80.56z" fill="rgb(163, 163, 163)"/>
<g id="Accent-Bottom_Gunslinger_Gauntlet_Left" fill="rgb(199, 197, 197)">
<path d="M128.55,91.98l-0.74-2.3l-1.62,0.52l0.74,2.3L128.55,91.98z"/>
<path d="M129.4,94.59l-0.74-2.3l-1.62,0.52l0.74,2.3L129.4,94.59z"/>
<path d="M136.01,101.93l-5.61,1.2l0.9,2.8l5.3-1.13L136.01,101.93z"/>
</g>
<path id="Bottom_Gunslinger_Gauntlet_Left" d="M136.52,104.38l-0.51-2.45l-5.61,1.2l0.9,2.8l5.3-1.13l0.61,2.93 c0,0-1.97,0.34-3.45,0.6c-0.92,0.16-1.82-0.38-2.11-1.26c-1.57-4.84-6.31-19.4-6.31-19.4l6.89-3.82L136.52,104.38z M129.4,94.59 l-0.74-2.3l-1.62,0.52l0.74,2.3L129.4,94.59z M128.55,91.98l-0.74-2.3l-1.62,0.52l0.74,2.3L128.55,91.98z" fill="rgb(163, 163, 163)"/>
<g id="Whistling-Birds_Attachment_Gunslinger_Gauntlet_Left" class="option" style="display: inherit;">
<path id="Head_Whistling-Birds_Attachment_Gunslinger_Gauntlet_Left" d="M145.65,95.95l-2.61,5.33l-0.44-5.07 L145.65,95.95z" fill="rgb(204, 203, 203)"/>
<g id="Birds_Whistling-Birds_Attachment_Gunslinger_Gauntlet_Left" fill="rgb(0, 133, 255)">
<g>
<path d="M143.13,96.54c0.12-0.01,0.24,0.24,0.27,0.56s-0.05,0.58-0.17,0.6c-0.12,0.01-0.24-0.24-0.27-0.56 C142.94,96.82,143.02,96.55,143.13,96.54z"/>
<path d="M143.28,98.15c0.12-0.01,0.24,0.24,0.27,0.56c0.03,0.32-0.05,0.58-0.17,0.6 c-0.12,0.01-0.24-0.24-0.27-0.56S143.16,98.17,143.28,98.15z"/>
<path d="M143.96,96.47c0.12-0.01,0.24,0.24,0.27,0.56c0.03,0.32-0.05,0.58-0.17,0.6 c-0.12,0.01-0.24-0.24-0.27-0.56C143.77,96.75,143.84,96.48,143.96,96.47z"/>
<path d="M143.32,100.71c-0.04-0.1-0.06-0.21-0.07-0.34c-0.03-0.32,0.05-0.58,0.17-0.6 c0.08-0.01,0.17,0.11,0.22,0.3L143.32,100.71z M144.08,99.16c-0.07-0.1-0.13-0.27-0.15-0.48c-0.03-0.32,0.05-0.58,0.17-0.6 c0.11-0.01,0.23,0.21,0.26,0.5L144.08,99.16z M144.87,97.55c-0.11-0.01-0.22-0.26-0.25-0.56c-0.03-0.32,0.05-0.58,0.17-0.59 c0.12-0.01,0.24,0.24,0.27,0.56c0.01,0.07,0.01,0.14,0,0.21L144.87,97.55z"/>
</g>
</g>
<g id="Base_Whistling-Birds_Attachment_Gunslinger_Gauntlet_Left" fill="rgb(163, 163, 163)">
<path d="M144.13,80.67l-2.05,0.18l0.08,0.9l2.05-0.18L144.13,80.67z"/>
<path d="M144.4,81.55l-2.24,0.19l1.25,14.4l2.23-0.19L144.4,81.55z"/>
<path d="M144.71,81.68l-0.29,0.02l1.08,12.44l0.29-0.03L144.71,81.68z"/>
<path d="M144.04,81.58l-0.29,0.03l1.17,13.5l0.29-0.03L144.04,81.58z"/>
</g>
<g id="Accent_Whistling-Birds_Attachment_Gunslinger_Gauntlet_Left" fill="rgb(126, 192, 242)">
<path d="M142.07,80.62l-0.81,0.07l1.27,14.63l0.82-0.07L142.07,80.62z"/>
<path d="M145.74,95.04l-3.21,0.28l0.08,0.9l3.21-0.28L145.74,95.04z"/>
<path d="M143.43,80.73l-1.34,0.12l0.18,2.1l1.35-0.11L143.43,80.73z"/>
<path d="M143.29,82.85l-1.02,0.09l0.43,4.99l0.86-1.96L143.29,82.85z"/>
</g>
</g></g></g>
<g id="Right-Gauntlets"><g id="Gunslinger_Gauntlet_Right" class="option" style="display: inherit;">
<g id="Accent-Top_Gunslinger_Gauntlet_Right" fill="rgb(199, 197, 197)">
<path d="M30.21,80.56l-0.62,5.62l2.85,0.79l0.66-5.33L30.21,80.56z"/>
<path d="M31.56,101.39l-0.57,2.87l2.51,0.54l0.6-2.86L31.56,101.39z"/>
</g>
<path id="Top_Gunslinger_Gauntlet_Right" d="M30.21,80.56l-1.3-0.49l-2.29,26.33l6.27,1.32l0.85-4.08l-0.24,1.15 l-2.51-0.54l0.57-2.87l2.54,0.54l3.85-18.47L30.21,80.56l2.89,1.08l-0.66,5.33l-2.85-0.79L30.21,80.56z" fill="rgb(163, 163, 163)"/>
<g id="Accent-Bottom_Gunslinger_Gauntlet_Right" fill="rgb(199, 197, 197)">
<path d="M41.56,91.98l0.74-2.3l1.62,0.52l-0.74,2.3L41.56,91.98z"/>
<path d="M40.71,94.59l0.74-2.3l1.62,0.52l-0.74,2.3L40.71,94.59z"/>
<path d="M34.1,101.93l5.61,1.2l-0.9,2.8l-5.3-1.13L34.1,101.93z"/>
</g>
<path id="Bottom_Gunslinger_Gauntlet_Right" d="M33.59,104.38l0.51-2.45l5.61,1.2l-0.9,2.8l-5.3-1.13l-0.61,2.93 c0,0,1.97,0.34,3.45,0.6c0.92,0.16,1.82-0.38,2.11-1.26c1.57-4.84,6.31-19.4,6.31-19.4l-6.89-3.82L33.59,104.38z M40.71,94.59 l0.74-2.3l1.62,0.52l-0.74,2.3L40.71,94.59z M41.56,91.98l0.74-2.3l1.62,0.52l-0.74,2.3L41.56,91.98z" fill="rgb(163, 163, 163)"/><g id="Flamethrower_Attachment_Gunslinger_Gauntlet_Right" class="option" style="display: inherit;">
<g id="Tubes_Flamethrower_Attachment_Gunslinger_Gauntlet_Right" fill="rgb(209, 209, 209)">
<path d="M27.35,81.61l0.83,0.07l-2.1,25.17l-0.83-0.07L27.35,81.61z"/>
<path d="M25.44,81.45l0.83,0.07l-1.51,18.05l-0.83-0.07L25.44,81.45z"/>
<path d="M27.06,83.17l1.14,0.09l-0.5,6l-1.14-0.09L27.06,83.17z"/>
<path d="M25.16,83.02l1.14,0.1l-0.5,6l-1.14-0.09L25.16,83.02z"/>
</g>
<g id="Main_Flamethrower_Attachment_Gunslinger_Gauntlet_Right" fill="rgb(163, 163, 163)">
<path d="M25.09,81.42l3.42,0.28l-0.13,1.58L24.96,83L25.09,81.42z"/>
<path d="M24.38,88.99l3.57,0.3l-0.08,0.96l-3.57-0.29L24.38,88.99z"/>
<path d="M24.45,89.96l3.28,0.27l-0.04,0.48l-3.28-0.27L24.45,89.96z"/>
<path d="M27.64,88.66l0.55,0.06l-0.25,2.93l-0.55-0.06L27.64,88.66z"/>
</g>
<g id="Accent_Flamethrower_Attachment_Gunslinger_Gauntlet_Right" fill="rgb(0, 0, 0)">
<path d="M23.91,99.5l0.89,0.07l0.04,1.25l-1.17-0.1L23.91,99.5z"/>
<path d="M24.1,93.06l1.58,0.13l-0.16,1.91l-1.58-0.13L24.1,93.06z"/>
<path d="M24.16,94.98l1.14,0.1l-0.16,1.91L24,96.89L24.16,94.98z"/>
<path d="M25.36,103.59l1.14,0.09l-0.22,2.62l-1.14-0.09L25.36,103.59z"/>
<path d="M26.06,95.14l1.14,0.1l-0.3,3.56l-1.14-0.09L26.06,95.14z"/>
<path d="M25.03,104.88l1.58,0.13l-0.04,0.51l-1.58-0.13L25.03,104.88z"/>
</g>
<path id="Base_Flamethrower_Attachment_Gunslinger_Gauntlet_Right" d="M28.19,88.72l0.68-7.94l-0.98,0.29 L26.74,94.5l0.91,0.51l0.29-3.36l-0.55-0.06l0.25-2.93L28.19,88.72z" fill="rgb(163, 163, 163)"/>
</g></g></g>
</g>
<g id="GauntletsDecals" mask="url(#GauntletsMask)">
</g>
<g id="Shins">
<g id="Left-Shin"><g id="Basic_Shin_Left" class="option" style="display: inherit;">
<path id="Shin_Basic-Shin_Left" d="M121.62,179.69l-5.07-5.47l-10.06,1.36l-3.67,8.71l6.88,29.05 c4.47,1.82,10.9,0.87,14.37-2.3L121.62,179.69" fill="rgb(218, 218, 218)"/>
<path id="Trauma-Plating_Basic-Shin_Left" class="toggle" style="display:none" d="M122.31,210.31l-2.33-29.91l-4.07-4.4l-8.22,1.11 l-3.08,7.32l6.54,27.63C114.73,213.18,119.4,212.5,122.31,210.31" fill="rgb(255, 255, 255)"/>
<g id="Ridge_Basic-Shin_Left" class="toggle" style="display:none" fill="rgb(255, 255, 255)"/>
</g>
</g>
<g id="Right-Shin"><g id="Basic_Shin_Right" class="option" style="display: inherit;">
<path id="Shin_Basic-Shin_Right" d="M48.3,179.69l5.07-5.47l10.06,1.36l3.67,8.71l-6.88,29.05 c-4.47,1.82-10.9,0.87-14.36-2.3L48.3,179.69" fill="rgb(218, 218, 218)"/>
<path id="Trauma-Plating_Basic-Shin_Right" class="toggle" style="display:none" d="M47.62,210.31l2.33-29.91l4.07-4.4l8.22,1.11l3.08,7.32 l-6.54,27.63C55.2,213.18,50.53,212.5,47.62,210.31" fill="rgb(255, 255, 255)"/>
<g id="Ridge_Basic-Shin_Right" class="toggle" style="display:none" fill="rgb(255, 255, 255)"/>
</g>
</g>
</g>
<g id="ShinsDecals" mask="url(#ShinsMask)">
</g>
<g id="Foot">
<g id="Left-Ankle"><g id="Basic_Ankle_Left" class="option" style="display: inherit;">
<path id="Main_Basic-Ankle_Left" d="M132.53,229.62l-7.84-13.73c-4.32-0.22-8.38,0.42-12.17,2.03 c-0.9,0.39-1.58,1.15-1.88,2.09c-0.01,0-0.01,0-0.01,0c-0.51,1.63-0.02,3.4,1.27,4.52c2.45,2.24,6.47,5.71,8.94,6.56 C126.66,233.08,132.53,229.62,132.53,229.62" fill="rgb(218, 218, 218)"/>
<path id="Trauma-Plate_Basic-Ankle_Left" class="toggle" style="display:none" d="M125.65,217.57c-3.86-0.07-9.61,0.68-12.99,2.23l-0.34,1.08 c-0.22,0.71-0.02,1.49,0.54,2.01c2.21,2.08,6.19,5.71,8.63,6.54c3.28,1.12,8.24-0.66,10.12-1.42L125.65,217.57" fill="rgb(255, 255, 255)"/>
</g>
</g>
<g id="Left-Toe"><g id="None_Toe_Left" class="option" style="display: inherit;">
</g>
</g>
<g id="Right-Ankle"><g id="Basic_Ankle_Right" class="option" style="display: inherit;">
<path id="Main_Basic-Ankle_Right" d="M37.34,229.62l7.84-13.73c4.31-0.22,8.38,0.42,12.17,2.03 c0.9,0.39,1.58,1.15,1.88,2.09c0.01,0,0.01,0,0.01,0c0.51,1.63,0.02,3.4-1.27,4.52c-2.46,2.24-6.47,5.71-8.94,6.56 C43.21,233.08,37.34,229.62,37.34,229.62" fill="rgb(218, 218, 218)"/>
<path id="Trauma-Plate_Basic-Ankle_Right" class="toggle" style="display:none" d="M44.22,217.57c3.85-0.07,9.61,0.68,12.99,2.23l0.34,1.08 c0.22,0.71,0.02,1.49-0.55,2.01c-2.21,2.08-6.19,5.71-8.63,6.54c-3.28,1.12-8.24-0.66-10.12-1.42L44.22,217.57" fill="rgb(255, 255, 255)"/>
</g>
</g>
<g id="Right-Toe"><g id="None_Toe_Right" class="option" style="display: inherit;">
</g>
</g>
</g>
<g id="FootDecals" mask="url(#FootMask)">
</g>
<g id="Knees">
<g id="Left-Knee"><g id="Basic_Knee_Left" class="option" style="display: inherit;">
<g id="Missiles_Basic-Knee_Left" class="toggle" style="">
<path id="Base_Missiles_Basic-Knee_Left" d="M117.84,156.71c0.01,0.04,0.02,0.08,0.02,0.12 c0.19,1.94,0.54,6.05,0.4,9.6l2.31-1.38c0.37-0.22,0.6-0.63,0.59-1.06c-0.03-1.32-0.09-4.18-0.13-5.69 c-0.01-0.57-0.42-1.05-0.98-1.16L117.84,156.71z" fill="rgb(163, 163, 163)"/>
<g id="Missile-2_Missiles_Basic-Knee_Left" fill="rgb(134, 52, 52)">
<path d="M119.46,162.27c-0.57,0.07-0.97,0.58-0.9,1.15c0.07,0.57,0.59,0.97,1.16,0.9c0.57-0.07,0.97-0.58,0.9-1.15 C120.55,162.6,120.03,162.2,119.46,162.27z"/>
<path d="M119.51,162.6c-0.38,0.04-0.65,0.39-0.61,0.77c0.05,0.38,0.4,0.65,0.78,0.61 c0.38-0.05,0.65-0.39,0.61-0.77C120.25,162.83,119.9,162.55,119.51,162.6z"/>
</g>
<g id="Missile-1_Missiles_Basic-Knee_Left" fill="rgb(123, 190, 120)">
<path d="M119.33,157.78c-0.57,0.07-0.97,0.58-0.9,1.15c0.07,0.57,0.59,0.97,1.16,0.9s0.97-0.58,0.9-1.15 C120.42,158.12,119.9,157.71,119.33,157.78z"/>
<path d="M119.38,158.12c-0.38,0.04-0.65,0.39-0.6,0.77c0.05,0.38,0.4,0.65,0.78,0.61 c0.38-0.05,0.65-0.39,0.61-0.77C120.11,158.34,119.76,158.07,119.38,158.12z"/>
</g>
</g>
<g id="Knee_Basic-Knee_Left" fill="rgb(218, 218, 218)">
<path d="M96.42,158.84l1.43-0.23c0,0,1.08,6.92,1.56,9.99c0.12,0.79-0.42,1.54-1.21,1.66c0,0,0,0,0,0L96.42,158.84z "/>
<path d="M97.81,158.32l0.82,5.14c1.05-0.59,3.7,0.5,4.57,3.58c1.59,5.67,2.97,6.97,7.95,6.46 c3.87-0.4,6.64-2.2,6.96-4.87c0.46-3.85,0-9.43-0.23-11.79c-0.03-0.29-0.18-0.56-0.41-0.74c-0.23-0.18-0.53-0.26-0.82-0.23 C112.43,156.41,97.81,158.32,97.81,158.32z"/>
<path d="M97.31,158.39l0.49-0.07l0.92,5.56l-0.49,0.07L97.31,158.39z"/>
</g>
</g>
</g>
<g id="Right-Knee"><g id="Basic_Knee_Right" class="option" style="display: inherit;">
<g id="Missiles_Basic-Knee_Right" class="toggle" style="">
<path id="Base_Missiles_Basic-Knee_Right" d="M52.05,156.71c-0.01,0.04-0.02,0.08-0.02,0.12 c-0.19,1.94-0.54,6.05-0.4,9.6l-2.31-1.38c-0.37-0.22-0.6-0.63-0.59-1.06c0.03-1.32,0.09-4.18,0.13-5.69 c0.01-0.57,0.42-1.05,0.98-1.16L52.05,156.71z" fill="rgb(126, 192, 242)"/>
<g id="Missile-2_Missiles_Basic-Knee_Right" fill="rgb(194, 118, 118)">
<path d="M50.43,162.27c0.57,0.07,0.97,0.58,0.9,1.15c-0.07,0.57-0.59,0.97-1.16,0.9c-0.57-0.07-0.97-0.58-0.9-1.15 C49.34,162.6,49.86,162.2,50.43,162.27z"/>
<path d="M50.38,162.6c0.38,0.04,0.65,0.39,0.61,0.77c-0.05,0.38-0.4,0.65-0.78,0.61 c-0.38-0.05-0.65-0.39-0.61-0.77C49.65,162.83,50,162.55,50.38,162.6z"/>
</g>
<g id="Missile-1_Missiles_Basic-Knee_Right" fill="rgb(107, 129, 76)">
<path d="M50.56,157.78c0.57,0.07,0.97,0.58,0.9,1.15c-0.07,0.57-0.59,0.97-1.16,0.9s-0.97-0.58-0.9-1.15 C49.47,158.12,49.99,157.71,50.56,157.78z"/>
<path d="M50.51,158.12c0.38,0.04,0.65,0.39,0.61,0.77s-0.4,0.65-0.78,0.61c-0.38-0.05-0.65-0.39-0.61-0.77 S50.13,158.07,50.51,158.12z"/>
</g>
</g>
<g id="Knee_Basic-Knee_Right" fill="rgb(126, 192, 242)">
<path d="M73.47,158.84l-1.43-0.23c0,0-1.08,6.92-1.56,9.99c-0.12,0.79,0.42,1.54,1.21,1.66c0,0,0,0,0,0 L73.47,158.84z"/>
<path d="M72.09,158.32l-0.82,5.14c-1.05-0.59-3.7,0.5-4.57,3.58c-1.59,5.67-2.97,6.97-7.95,6.46 c-3.87-0.4-6.64-2.2-6.96-4.87c-0.46-3.85,0-9.43,0.23-11.79c0.03-0.29,0.18-0.56,0.41-0.74c0.23-0.18,0.53-0.26,0.82-0.23 C57.46,156.41,72.09,158.32,72.09,158.32z"/>
<path d="M72.58,158.39l-0.49-0.07l-0.92,5.56l0.49,0.07L72.58,158.39z"/>
</g>
</g>
</g>
</g>
<g id="KneesDecals" mask="url(#KneesMask)">
</g>
<g id="Thighs">
<g id="Left-Thigh"><g id="Basic_Thigh_Left" class="option" style="display: inherit;">
<path id="Thigh_Basic-Thigh_Left" d="M120.21,115.6c0,0-5.03-6.43-7.59-7.49c-2.43-1.01-5.69-0.58-7.78,1.09 c-3.19,2.54-10.51,8.04-11.35,14.16c-0.93,6.83,4.08,21.95,5.78,26.84c0.58,1.66,2.77,2.41,4.44,2.48 c3.1,0.12,11.57-0.15,13.59-4.69C120.05,141.81,120.21,115.6,120.21,115.6" fill="rgb(126, 192, 242)"/>
<path id="Trauma-Plate_Basic-Thigh_Left" class="toggle" style="" d="M118.5,116.19c-0.75-0.93-2.56-3.1-4.3-4.77 c-0.83-0.79-1.62-1.49-2.25-1.75c-1.9-0.79-4.44-0.45-6.06,0.85c-1.85,1.47-5.15,3.97-7.66,7.02c-1.52,1.85-2.77,3.9-3.07,6.05 c-0.9,6.64,4.05,21.31,5.7,26.06c0.14,0.42,0.54,0.67,0.95,0.87c0.61,0.3,1.33,0.45,1.94,0.47c1.73,0.07,5.27,0.02,8.23-0.96 c1.63-0.54,3.12-1.33,3.75-2.73c0.78-1.75,1.3-5.22,1.7-9.2C118.31,129.59,118.47,118.81,118.5,116.19" fill="rgb(163, 163, 163)"/>
<g id="Ridge_Basic-Thigh_Left" class="toggle" style="" fill="rgb(126, 192, 242)">
<path d="M111.72,107.57l-3.48-0.89l-3.64,1.99l1.18,44.01c2.4,0.46,2.43,0.55,4.54-0.08L111.72,107.57"/>
<path d="M108.28,106.69l-0.1,46.36"/>
</g>
</g>
</g>
<g id="Right-Thigh"><g id="Basic_Thigh_Right" class="option" style="display: inherit;">
<path id="Thigh_Basic-Thigh_Right" d="M49.69,115.6c0,0,5.03-6.43,7.59-7.49c2.43-1.01,5.69-0.58,7.78,1.09 c3.19,2.54,10.51,8.04,11.35,14.16c0.93,6.83-4.08,21.95-5.78,26.84c-0.58,1.66-2.77,2.41-4.44,2.48 c-3.1,0.12-11.57-0.15-13.59-4.69C49.85,141.81,49.69,115.6,49.69,115.6" fill="rgb(126, 192, 242)"/>
<path id="Trauma-Plate_Basic-Thigh_Right" class="toggle" style="" d="M51.39,116.19c0.75-0.93,2.56-3.1,4.3-4.77 c0.83-0.79,1.62-1.49,2.25-1.75c1.9-0.79,4.44-0.45,6.06,0.85c1.85,1.47,5.15,3.97,7.66,7.02c1.52,1.85,2.77,3.9,3.07,6.05 c0.9,6.64-4.05,21.31-5.7,26.06c-0.14,0.42-0.54,0.67-0.95,0.87c-0.61,0.3-1.33,0.45-1.94,0.47c-1.73,0.07-5.27,0.02-8.23-0.96 c-1.63-0.54-3.12-1.33-3.75-2.73c-0.78-1.75-1.3-5.22-1.7-9.2C51.59,129.59,51.42,118.81,51.39,116.19" fill="rgb(163, 163, 163)"/>
<g id="Ridge_Basic-Thigh_Right" class="toggle" style="" fill="rgb(126, 192, 242)">
<path d="M58.17,107.57l3.48-0.89l3.64,1.99l-1.18,44.01c-2.4,0.46-2.43,0.55-4.54-0.08L58.17,107.57"/>
<path d="M61.62,106.69l0.1,46.36"/>
</g>
</g>
</g>
</g>
<g id="ThighsDecals" mask="url(#ThighsMask)">
</g>
<g id="Groin"><g id="Basic_Groin" class="option" style="display: inherit;">
<path id="Groin-Plate_Basic" d="M78.67,122.29L68.22,99.4h33.42l-10.45,22.89l-6.26,5.46L78.67,122.29z" fill="rgb(126, 192, 242)"/>
<path id="Trauma-Plating_Groin" class="toggle" style="" d="M79.77,120.38l-8.61-18.86H98.7l-8.61,18.86l-5.16,4.49L79.77,120.38z" fill="rgb(163, 163, 163)"/>
</g>
</g>
<g id="GroinDecals" mask="url(#GroinMask)">
</g>
<g id="Waist">
<g id="Accessories_Waist">
<g id="Kama" class="toggle" style="display:none"/>
<g id="Loin-Cloth" class="toggle" style="display:none"/>
<g id="Left-Holster" class="toggle" style=""><g id="Belt-Holster_Left" class="option" style="display: inherit;">
<g id="Weapon_Belt-Holster-Left">
<g id="Main_Weapon_Belt-Holster-Left" fill="rgb(199, 198, 198)">
<path d="M116.79,99.11l-0.24-3.6l0.62-0.04l-0.15-2.26l-0.62,0.04l-0.08-1.18c-0.03-0.38,0.46-0.73,1.1-0.77 c1.45-0.1,3.93-0.26,5.37-0.36c0.63-0.04,1.17,0.23,1.19,0.62l0.08,1.18l-0.62,0.04l0.15,2.26l0.62-0.04l0.24,3.6l-1.46,0.1 l0.67,9.95l-4.73,0.31l-0.67-9.95L116.79,99.11z"/>
<path d="M123.79,98.11l-0.84,0.06l0.8,11.96l-4.73,0.31l-0.8-11.96l-0.84,0.06l-0.18-2.73l6.41-0.42L123.79,98.11 z"/>
<path d="M122.05,91.78l-3.8,0.25l0.25,3.69l3.8-0.25L122.05,91.78z"/>
<path d="M119.38,99.49l-0.62,0.04l0.63,9.4l0.62-0.04L119.38,99.49z"/>
<path d="M120.82,97.23l-0.62,0.04l0.63,9.4l0.62-0.04L120.82,97.23z"/>
<path d="M122.56,99.28l-0.62,0.04l0.63,9.4l0.62-0.04L122.56,99.28z"/>
</g>
<g id="Accent_Weapon_Belt-Holster-Left" fill="rgb(0, 0, 0)">
<path d="M119.09,96.06l0.03,0.38l2.68-0.18l-0.03-0.38L119.09,96.06z"/>
<path d="M119.11,96.44l0.03,0.38l2.68-0.18l-0.03-0.38L119.11,96.44z"/>
<path d="M119.06,95.68l0.02,0.38l2.68-0.18l-0.03-0.38L119.06,95.68z"/>
<path d="M118.75,91.05l0.03,0.38l2.68-0.18l-0.03-0.38L118.75,91.05z"/>
<path d="M118.88,91.99l-0.62,0.04l0.25,3.69l0.62-0.04L118.88,91.99z"/>
<path d="M122.05,91.78l-0.62,0.04l0.25,3.69l0.62-0.04L122.05,91.78z"/>
<path d="M121.93,99.32l-0.94,0.06l0.63,9.4l0.94-0.06L121.93,99.32z"/>
<path d="M120.33,99.42l-0.94,0.06l0.63,9.4l0.94-0.06L120.33,99.42z"/>
</g>
</g>
<path id="Holster_Belt-Holster-Left" d="M118.4,112.89l-2.47-14.99l8.29,10.56l0.79,20.68 c-1.44,1.89-3.04,2.08-4.84,0.36L118.4,112.89z" fill="rgb(98, 60, 28)"/>
</g>
</g>
<g id="Right-Holster" class="toggle" style=""><g id="Belt-Holster_Right" class="option" style="display: inherit;">
<g id="Weapon_Belt-Holster-Right">
<g id="Main_Weapon_Belt-Holster-Right" fill="rgb(199, 198, 198)">
<path d="M53.1,99.11l0.24-3.6l-0.62-0.04l0.15-2.26l0.62,0.04l0.08-1.18c0.03-0.38-0.47-0.73-1.1-0.77 c-1.45-0.1-3.93-0.26-5.37-0.36c-0.63-0.04-1.17,0.23-1.19,0.62l-0.08,1.18l0.62,0.04l-0.15,2.26L45.68,95l-0.24,3.6l1.46,0.1 l-0.67,9.95l4.73,0.31l0.67-9.95L53.1,99.11z"/>
<path d="M46.1,98.11l0.84,0.06l-0.8,11.96l4.73,0.31l0.8-11.96l0.84,0.06l0.18-2.73l-6.41-0.42L46.1,98.11z"/>
<path d="M47.84,91.78l3.8,0.25l-0.25,3.69l-3.8-0.25L47.84,91.78z"/>
<path d="M50.51,99.49l0.62,0.04l-0.63,9.4l-0.62-0.04L50.51,99.49z"/>
<path d="M49.07,97.23l0.62,0.04l-0.63,9.4l-0.62-0.04L49.07,97.23z"/>
<path d="M47.33,99.28l0.62,0.04l-0.63,9.4l-0.62-0.04L47.33,99.28z"/>
</g>
<g id="Accent_Weapon_Belt-Holster-Right" fill="rgb(0, 0, 0)">
<path d="M50.8,96.06l-0.03,0.38l-2.68-0.18l0.02-0.38L50.8,96.06z"/>
<path d="M50.78,96.44l-0.03,0.38l-2.68-0.18l0.03-0.38L50.78,96.44z"/>
<path d="M50.83,95.68l-0.02,0.38l-2.68-0.18l0.03-0.38L50.83,95.68z"/>
<path d="M51.14,91.05l-0.02,0.38l-2.68-0.18l0.03-0.38L51.14,91.05z"/>
<path d="M51.01,91.99l0.62,0.04l-0.25,3.69l-0.62-0.04L51.01,91.99z"/>
<path d="M47.84,91.78l0.62,0.04l-0.25,3.69l-0.62-0.04L47.84,91.78z"/>
<path d="M47.96,99.32l0.94,0.06l-0.63,9.4l-0.94-0.06L47.96,99.32z"/>
<path d="M49.56,99.42l0.94,0.06l-0.63,9.4l-0.94-0.06L49.56,99.42z"/>
</g>
</g>
<path id="Holster_Belt-Holster-Right" d="M51.49,112.89l2.47-14.99l-8.29,10.56l-0.79,20.68 c1.44,1.89,3.04,2.08,4.84,0.36L51.49,112.89z" fill="rgb(98, 60, 28)"/>
</g>
</g>
<g id="Left-Trophy" class="toggle" style="display:none"/>
<g id="Right-Trophy" class="toggle" style="display:none"/>
</g>
<g id="Under-Belt"><g id="Girth-Belt" class="option" fill="rgb(93, 84, 84)" style="display: inherit;">
<path d="M84.93,84.93c-9.33,0-27.98-2.25-27.98-2.25l0.61-1.91c0,0,18.19,1.5,27.37,2.25 c9.13-0.75,27.37-2.25,27.37-2.25l0.6,1.91C112.91,82.68,94.25,84.93,84.93,84.93z"/>
<path d="M84.93,86.84c-9.52,0-28.56-2.25-28.56-2.25l0.58-1.91c0,0,23.31,1.88,27.98,2.25 c4.66-0.38,27.98-2.25,27.98-2.25l0.58,1.91C113.49,84.59,94.45,86.84,84.93,86.84z"/>
<path d="M84.93,88.75c-9.67,0-28.99-2.25-28.99-2.25l0.43-1.91c0,0,23.8,1.88,28.56,2.25 c4.76-0.38,28.56-2.25,28.56-2.25l0.43,1.91C113.92,86.49,94.6,88.75,84.93,88.75z"/>
<path d="M84.93,90.65c-9.79,0-29.36-2.25-29.36-2.25l0.37-1.91c0,0,24.16,1.88,28.99,2.25 c4.83-0.38,28.99-2.25,28.99-2.25l0.37,1.91C114.29,88.4,94.72,90.65,84.93,90.65z"/>
<path d="M84.93,92.56c-9.9,0-29.69-2.25-29.69-2.25l0.33-1.91c0,0,24.47,1.88,29.36,2.25 c4.89-0.38,29.36-2.25,29.36-2.25l0.33,1.91C114.62,90.31,94.83,92.56,84.93,92.56z"/>
<path d="M84.93,94.47c-10,0-30-2.25-30-2.25l0.31-1.91c0,0,24.74,1.88,29.69,2.25c4.95-0.38,29.69-2.25,29.69-2.25 l0.31,1.91C114.93,92.21,94.93,94.47,84.93,94.47z"/>
<path d="M84.93,96.37c-10.1,0-30.31-2.25-30.31-2.25l0.31-1.91c0,0,25,1.88,30,2.25c5-0.38,30-2.25,30-2.25 l0.31,1.91C115.24,94.12,95.03,96.37,84.93,96.37z"/>
<path d="M84.93,98.28c-10.21,0-30.62-2.25-30.62-2.25l0.32-1.91c0,0,25.26,1.88,30.31,2.25 c5.05-0.38,30.31-2.25,30.31-2.25l0.32,1.91C115.55,96.03,95.14,98.28,84.93,98.28z"/>
<path d="M84.93,100.19c-10.32,0-30.97-2.25-30.97-2.25l0.34-1.91c0,0,25.52,1.88,30.62,2.25 c5.1-0.38,30.62-2.25,30.62-2.25l0.35,1.91C115.9,97.93,95.25,100.19,84.93,100.19z"/>
<path d="M84.93,102.09c-10.45,0-31.36-2.25-31.36-2.25l0.39-1.91c0,0,25.81,1.88,30.97,2.25 c5.16-0.38,30.97-2.25,30.97-2.25l0.39,1.91C116.29,99.84,95.38,102.09,84.93,102.09z"/>
</g>
</g>
<g id="Belt"><g id="Pouch-Belt-6" class="option" style="display: inherit;">
<path id="Main_Pouch-Belt-6" d="M115.21,92.95c-6.82,0.61-22.4,2.83-30.27,2.83c-7.94,0-23.52-2.23-30.26-2.82 l1.01-7.93c5.53,0.49,21.56,2.74,29.26,2.74c7.47,0,23.17-2.23,29.07-2.76L115.21,92.95z" fill="rgb(163, 163, 163)"/>
<rect id="Buckle_Pouch-Belt-6" x="79.37" y="87.01" width="11.28" height="9.21" fill="rgb(126, 192, 242)"/>
<g id="Pouches_Pouch-Belt-6" fill="rgb(98, 60, 28)">
<g>
<g>
<g>
<path d="M70.81,84.98c-0.29-0.02-0.58,0.03-0.84,0.13c-0.71,0.28-2.1,0.82-2.1,0.82l8.08,0.46l2.19-0.94 C78.13,85.46,72.44,85.09,70.81,84.98z"/>
<path d="M78.41,85.73c0.01-0.08-0.03-0.17-0.1-0.22c-0.07-0.05-0.16-0.06-0.24-0.03 c-0.7,0.3-2.14,0.91-2.14,0.91l-1.05,12.41c0.72-0.42,1.44-0.69,2.15-0.84c0.41-0.08,0.7-0.43,0.71-0.85 C77.88,93.32,78.03,89.51,78.41,85.73z"/>
<path d="M75.94,86.4l-8.08-0.46c-0.05,1.89-0.23,3.77-0.33,5.65c-0.11,2.08-0.15,4.18-0.34,6.28 c-0.01,0.15,0.04,0.3,0.14,0.41c0.1,0.11,0.25,0.18,0.4,0.18c2.32-0.01,4.63,0.13,6.93,0.4c0.14,0.02,0.29-0.02,0.4-0.12 c0.11-0.09,0.18-0.22,0.19-0.37c0.1-1.47,0.37-5.34,0.37-5.34L75.94,86.4z"/>
<path d="M75.94,86.4l-8.08-0.46c0,0-0.19,1.59-0.38,3.14c-0.09,0.75,0.13,1.51,0.62,2.09 c0.49,0.58,1.2,0.94,1.96,0.98c0.96,0.06,2.01,0.12,2.97,0.17c0.76,0.04,1.51-0.23,2.07-0.75c0.55-0.52,0.86-1.25,0.86-2.01 C75.95,87.99,75.94,86.4,75.94,86.4z"/>
<path d="M71.64,90.75c0.29,0.02,0.51,0.26,0.49,0.55c-0.02,0.28-0.26,0.5-0.55,0.49 c-0.29-0.02-0.51-0.26-0.49-0.55C71.11,90.96,71.36,90.74,71.64,90.75z"/>
</g>
</g>
<g>
<g>
<path d="M59.65,83.47c-0.31-0.02-0.62,0.03-0.91,0.16c-0.67,0.29-1.86,0.81-1.86,0.81l7.38,0.42l2-0.95 C66.26,83.91,61.24,83.57,59.65,83.47z"/>
<path d="M66.52,84.19c0.01-0.09-0.03-0.17-0.1-0.22c-0.07-0.05-0.17-0.06-0.24-0.02 c-0.66,0.31-1.91,0.9-1.91,0.9l-1.02,12.42c0.65-0.41,1.29-0.68,1.93-0.85c0.39-0.09,0.68-0.44,0.69-0.84 C65.99,91.78,66.15,87.98,66.52,84.19z"/>
<path d="M64.26,84.85l-7.38-0.42c-0.06,1.89-0.23,3.77-0.33,5.65c-0.11,2.08-0.16,4.17-0.34,6.28 c-0.01,0.15,0.04,0.3,0.14,0.41s0.25,0.18,0.4,0.17c2.08-0.01,4.15,0.11,6.22,0.36c0.14,0.02,0.29-0.02,0.4-0.12 c0.11-0.09,0.18-0.23,0.19-0.37c0.1-1.47,0.37-5.33,0.37-5.33L64.26,84.85z"/>
<path d="M64.26,84.85l-7.38-0.42c0,0-0.18,1.6-0.36,3.15c-0.09,0.75,0.14,1.51,0.63,2.08 c0.49,0.58,1.2,0.93,1.96,0.97c0.73,0.04,1.51,0.08,2.23,0.13c0.76,0.04,1.51-0.23,2.06-0.75c0.55-0.52,0.87-1.25,0.86-2 C64.26,86.46,64.26,84.85,64.26,84.85z"/>
<path d="M60.31,89.23c0.26,0.01,0.46,0.26,0.44,0.54c-0.02,0.28-0.24,0.5-0.5,0.49 c-0.26-0.01-0.46-0.26-0.44-0.54C59.83,89.44,60.05,89.22,60.31,89.23z"/>
</g>
</g>
<g>
<path d="M52.22,84.29l0.55-0.85l2.83,0.09l0.35,1.06L52.22,84.29z"/>
<path d="M55.93,84.69c0.01-0.07-0.01-0.13-0.06-0.18c-0.04-0.05-0.11-0.08-0.17-0.08 c-0.85-0.03-3.48-0.13-3.48-0.13l-0.5,11.17c0.11,0.28,1.53,0.46,2.68,0.49c0.5,0.01,0.91-0.38,0.92-0.88 C55.4,91.61,55.53,88.14,55.93,84.69z"/>
</g>
</g>
<g>
<g>
<g>
<path d="M99.08,84.98c0.29-0.02,0.58,0.03,0.85,0.13c0.71,0.28,2.1,0.82,2.1,0.82l-8.08,0.46l-2.19-0.94 C91.76,85.46,97.45,85.09,99.08,84.98z"/>
<path d="M91.48,85.73c-0.01-0.08,0.03-0.17,0.1-0.22c0.07-0.05,0.16-0.06,0.24-0.03c0.7,0.3,2.14,0.91,2.14,0.91 L95,98.81c-0.72-0.42-1.44-0.69-2.15-0.84c-0.41-0.08-0.7-0.43-0.71-0.85C92.01,93.32,91.86,89.51,91.48,85.73z"/>
<path d="M93.95,86.4l8.08-0.46c0.05,1.89,0.23,3.77,0.33,5.65c0.11,2.08,0.15,4.18,0.34,6.28 c0.01,0.15-0.04,0.3-0.14,0.41c-0.1,0.11-0.25,0.18-0.4,0.18c-2.32-0.01-4.63,0.13-6.93,0.4c-0.14,0.02-0.29-0.02-0.4-0.12 c-0.11-0.09-0.18-0.22-0.19-0.37c-0.1-1.47-0.37-5.34-0.37-5.34L93.95,86.4z"/>
<path d="M93.95,86.4l8.08-0.46c0,0,0.19,1.59,0.38,3.14c0.09,0.75-0.14,1.51-0.62,2.09 c-0.49,0.58-1.2,0.94-1.96,0.98c-0.96,0.06-2.01,0.12-2.97,0.17c-0.76,0.04-1.51-0.23-2.06-0.75 c-0.55-0.52-0.87-1.25-0.86-2.01C93.94,87.99,93.95,86.4,93.95,86.4z"/>
<path d="M98.25,90.75c-0.29,0.02-0.51,0.26-0.49,0.55c0.02,0.28,0.26,0.5,0.55,0.49 c0.29-0.02,0.51-0.26,0.49-0.55C98.78,90.96,98.54,90.74,98.25,90.75z"/>
</g>
</g>
<g>
<g>
<path d="M110.24,83.47c0.31-0.02,0.62,0.03,0.91,0.16c0.67,0.29,1.86,0.81,1.86,0.81l-7.38,0.42l-2-0.95 C103.63,83.91,108.65,83.57,110.24,83.47z"/>
<path d="M103.37,84.19c-0.01-0.09,0.03-0.17,0.1-0.22c0.07-0.05,0.17-0.06,0.24-0.02 c0.66,0.31,1.91,0.9,1.91,0.9l1.02,12.42c-0.65-0.41-1.29-0.68-1.93-0.85c-0.39-0.09-0.68-0.44-0.69-0.84 C103.9,91.78,103.74,87.98,103.37,84.19z"/>
<path d="M105.63,84.85l7.38-0.42c0.06,1.89,0.23,3.77,0.33,5.65c0.11,2.08,0.16,4.17,0.34,6.28 c0.01,0.15-0.04,0.3-0.14,0.41c-0.1,0.11-0.25,0.18-0.4,0.17c-2.08-0.01-4.15,0.11-6.22,0.36c-0.14,0.02-0.29-0.02-0.4-0.12 c-0.11-0.09-0.18-0.23-0.19-0.37c-0.1-1.47-0.37-5.33-0.37-5.33L105.63,84.85z"/>
<path d="M105.63,84.85l7.38-0.42c0,0,0.18,1.6,0.36,3.15c0.09,0.75-0.14,1.51-0.63,2.08 c-0.49,0.58-1.2,0.93-1.96,0.97c-0.72,0.04-1.5,0.08-2.23,0.13c-0.76,0.04-1.51-0.23-2.06-0.75c-0.55-0.52-0.87-1.25-0.86-2 C105.63,86.46,105.63,84.85,105.63,84.85z"/>
<path d="M109.58,89.23c-0.26,0.01-0.46,0.26-0.44,0.54c0.02,0.28,0.24,0.5,0.5,0.49 c0.26-0.01,0.46-0.26,0.44-0.54C110.07,89.44,109.84,89.22,109.58,89.23z"/>
</g>
</g>
<g>
<path d="M117.67,84.29l-0.55-0.85l-2.83,0.09l-0.35,1.06L117.67,84.29z"/>
<path d="M113.96,84.69c-0.01-0.07,0.01-0.13,0.06-0.18c0.04-0.05,0.11-0.08,0.18-0.08 c0.85-0.03,3.48-0.13,3.48-0.13l0.5,11.17c-0.11,0.28-1.53,0.46-2.68,0.49c-0.5,0.01-0.91-0.38-0.92-0.88 C114.49,91.61,114.36,88.14,113.96,84.69z"/>
</g>
</g>
</g>
</g></g>
</g>
<g id="WaistDecals" mask="url(#WaistMask)">
</g>
<g id="Extras_Front">
<g id="Front"><g id="None_Front" class="option" style="display: inherit;">
</g>
</g>
</g>
<g id="Extras-FrontDecals" mask="url(#FrontMask)">
</g>
</g>
</svg>