<?xml version='1.0' encoding='UTF-8'?><svg version='1.1' xmlns='http://www.w3.org/2000/svg'><metadata><rdf:rdf xmlns:rdf="http://www.w3.org/1999/02/22-rdf-syntax-ns#" xmlns:rdfs="http://www.w3.org/2000/01/rdf-schema#" xmlns:dc="http://purl.org/dc/elements/1.1/"> <rdf:description> <dc:creator>MandoCreator</dc:creator> <dc:publisher>https://www.mandocreator.com</dc:publisher> <dc:description>Your Beskar'gam - created by MandoCreator</dc:description> <dc:format>image/svg+xml</dc:format> <dc:type>Image</dc:type> <dc:title>MandoCreator - Ner Berskar'gam</dc:title> <dc:date>2021-10-08T16:42:52.892Z</dc:date> </rdf:description> </rdf:rdf></metadata><svg version="1.1" id="Male" xmlns="http://www.w3.org/2000/svg" xmlns:xlink="http://www.w3.org/1999/xlink" x="0px" y="0px" viewBox="0 -55 169 300" style="fill: white; fill-rule: evenodd; stroke: black; stroke-width: 0.2px; pointer-events: none; position: relative; height: 100%;">
<g id="Extras_Back">
<g id="Back"><g id="NO-CAPES_Back" class="option" style="display: inherit;">
</g>
</g>
</g>
<g id="Suit">
<g id="Neck-Seal">
<g id="Standard-Neck-Seal" class="option" style="fill: rgb(90, 90, 90); display: inherit;">
<path d="M98,7.5c0-0.9-0.9-1.6-2.1-1.6c0,0-7.8,0.9-11.6,0.9c-3.9,0-11.6-0.9-11.6-0.9c-1.1,0-2.1,0.7-2.1,1.6 s0.9,1.6,2.1,1.6c0,0,7.8,0.9,11.6,0.9C88.2,10,96,9.2,96,9.2C97.1,9.2,98,8.4,98,7.5z"/>
<path d="M98.7,9.4c0-0.9-1-1.7-2.2-1.7c0,0-8.1,0.9-12.2,0.9c-4.1,0-12.2-0.9-12.2-0.9c-1.2,0-2.2,0.8-2.2,1.7 c0,0.9,1,1.7,2.2,1.7c0,0,8.1,0.9,12.2,0.9c4.1,0,12.2-0.9,12.2-0.9C97.8,11.1,98.7,10.4,98.7,9.4z"/>
<path d="M99.5,11.8c0-1-1-1.8-2.3-1.8c0,0-8.6,0.9-12.9,0.9C80,10.9,71.4,10,71.4,10c-1.3,0-2.3,0.8-2.3,1.8 s1,1.8,2.3,1.8c0,0,8.6,0.9,12.9,0.9c4.3,0,12.9-0.9,12.9-0.9C98.5,13.6,99.5,12.8,99.5,11.8z"/>
<path d="M100.3,13.9c0-1-1.1-1.9-2.4-1.9c0,0-9,1-13.5,1s-13.5-1-13.5-1c-1.3,0-2.4,0.8-2.4,1.9s1.1,1.9,2.4,1.9 c0,0,9,1,13.5,1s13.5-1,13.5-1C99.2,15.8,100.3,15,100.3,13.9z"/>
<path d="M101,16.1c0-0.8-1.1-1.4-2.5-1.4c0,0-9.4,0.7-14.2,0.7c-4.8,0-14.2-0.7-14.2-0.7c-1.4,0-2.5,0.6-2.5,1.4 c0,0.8,1.1,1.4,2.5,1.4c0,0,9.4,0.8,14.2,0.8c4.8,0,14.2-0.8,14.2-0.8C99.9,17.5,101,16.9,101,16.1z"/>
<path d="M101,18.4c0-0.8-1.1-1.4-2.5-1.4c0,0-9.4,0.7-14.2,0.7c-4.8,0-14.2-0.7-14.2-0.7c-1.4,0-2.5,0.6-2.5,1.4 c0,0.8,1.1,1.4,2.5,1.4c0,0,9.4,1.4,14.2,1.4c4.8,0,14.2-1.4,14.2-1.4C99.9,19.9,101,19.2,101,18.4z"/>
</g>
</g>
<g id="Flight-Suit" style="fill: rgb(90, 90, 90);">
<path d="M72.8,158.4l-1.5,8.7l-11,53.1c0,0-4.9,3-7.4,3.5s-7.7-0.4-7.7-0.4l3.8-43l2.9-18.4l0.7-7.8 c0,0-2.5-22.8-1.7-34.1c0.8-11.4,6.6-34,6.6-34l26.8,0.6l26.8-0.6c0,0,5.8,22.6,6.6,34c0.8,11.4-1.7,34.1-1.7,34.1l0.7,7.8 l2.9,18.4l3.8,43c0,0-5.3,1.2-7.8,0.7s-7.3-3.7-7.3-3.7l-11-53.1l-1.5-8.7l-11.6-30.3L72.8,158.4z"/>
<g>
<path d="M128.5,43.3l11.9,41.6l1,21.5l-9.5,1.8l-6-20.2l-13.6-33.9l0.7-15.5l2.3-3.7L128.5,43.3z"/>
<path d="M40.3,43.3l13.1-8.4l2.3,3.7l0.5,16L42.8,88l-6,20.2l-9.5-1.8l1-21.5L40.3,43.3z"/>
</g>
</g>
<g id="Sleeves" class="toggle" style="fill: rgb(51, 51, 51);">
<g>
<path d="M111.4,56.1l2.7,5.9c0,0,4.2-3.2,7-4.8c2.8-1.6,4.3-2.6,6.9-3.6c2.5-1,5-1.5,5-1.5l-6-12.2l-5.8-9.7 l-11.5,5.1L111.4,56.1z"/>
<path d="M112.8,59.2c-0.2-0.2,5-4.5,8.6-6.3c3.5-1.8,10.2-3.7,10.2-3.7"/>
</g>
<g>
<path d="M57.3,56.1L54.6,62c0,0-4.2-3.2-7-4.8c-2.8-1.6-4.4-2.6-6.9-3.6s-5-1.5-5-1.5l6-12.2l5.8-9.7L59,35.4 L57.3,56.1z"/>
<path d="M55.9,59.2c0.2-0.2-5-4.5-8.6-6.3c-3.5-1.8-10.2-3.7-10.2-3.7"/>
</g>
</g>
</g>
<g id="Boots">
<g id="Gunslinger_Boots" class="option" style="display: inherit;">
<g id="Main_Gunslinger-Boot" style="fill: rgb(90, 71, 54);">
<path d="M106.9,226.5c0,0.2,0.7,3.4,4.2,4.3c1.2,0.3,3.2-0.3,4.5-1c1.7-0.9,3.5-1.6,5.4-2.1l0.2,0.2 c0.6,0.8,1.2,1.6,1.9,2.3l0.3,0.3c0.4,0.4,0.8,0.7,1.2,1.1l0.3,0.3c0.1,0,0.1,0.1,0.2,0.1c0.9,0.6,2,1.6,3.2,1.4 c1.1-0.2,2.3-0.6,3.3-1c0.8-0.4,1.6-0.9,2.1-1.4c0.2-0.1,0.3-0.3,0.4-0.4c2.5,1,5.3,1.4,6.7,4.2c0.3,0.6,0.5,1.4,0.5,2 c-0.1,0.9-1,1-1.8,1.2c-1.9,0.5-3.5,0.9-5.7,1.3c-2.5,0.5-4.7,0.8-7.2,0.7c-1.9-0.1-3.5-0.2-5.1-1.2c-0.7-0.4-1.3-0.8-1.9-1.4 c-1.3-1.2-2.1-2.4-3.7-3.1c-1.2-0.5-2.4-1-3.7-1.3c-1.8-0.4-3.7-0.8-4.7-2.5C106.7,229.1,106.7,227.8,106.9,226.5"/>
<path d="M61.8,226.5c0,0.2-0.7,3.4-4.2,4.3c-1.2,0.3-3.2-0.3-4.5-1c-1.7-0.9-3.5-1.6-5.4-2.1l-0.2,0.2 c-0.6,0.8-1.2,1.6-1.9,2.3l-0.3,0.3c-0.4,0.4-0.8,0.7-1.2,1.1l-0.3,0.3c-0.1,0-0.1,0.1-0.2,0.1c-0.9,0.6-2,1.6-3.2,1.4 c-1.1-0.2-2.3-0.6-3.3-1c-0.8-0.4-1.6-0.9-2.1-1.4c-0.2-0.1-0.3-0.3-0.4-0.4c-2.5,1-5.3,1.4-6.7,4.2c-0.3,0.6-0.5,1.4-0.5,2 c0.1,0.9,1.1,1,1.8,1.2c1.9,0.5,3.5,0.9,5.7,1.3c2.5,0.5,4.7,0.8,7.2,0.7c1.9-0.1,3.5-0.2,5.1-1.2c0.7-0.4,1.3-0.8,1.9-1.4 c1.3-1.2,2.1-2.4,3.7-3.1c1.2-0.5,2.4-1,3.7-1.3c1.8-0.4,3.7-0.8,4.7-2.5C62.1,229.1,62,227.8,61.8,226.5"/>
</g>
<g id="Bottom_Gunslinger-Boot" style="fill: rgb(51, 51, 51);">
<path d="M106.9,229c0.1,0.5,0.2,1,0.5,1.5c0.9,1.8,2.9,2.1,4.7,2.5c1.3,0.3,2.5,0.8,3.7,1.3c1.6,0.7,2.5,2,3.7,3.1 c0.6,0.5,1.2,0.9,1.9,1.4c1.6,1,3.2,1.1,5.1,1.2c2.5,0.1,4.8-0.2,7.2-0.7c2.2-0.5,3.8-0.8,5.7-1.3c0.6-0.2,1.3-0.3,1.7-0.8 l0.4,0.8l0.2,1.6c0,0-2,1.1-4.2,1.6s-6.5,1.2-6.5,1.2l-0.3-0.7l-1,0.2v0.7l-2.4,0.1l-0.5-0.7H126l0.1,0.6c0,0-1.5,0-2.3-0.5 c-0.2-0.2-0.5-0.6-0.5-0.6l-0.6-0.3l0.1,0.6l-2-0.7l-0.1-0.8l-0.6-0.3v0.6l-1.4-1.1l-0.2-0.7l-3.6-2.5l-0.6,1.3l-2.5-0.6 l-0.1-0.5l-0.6-0.3l-0.4,0.4l-1.7-0.7v-0.5l-0.6-0.2l-0.1,0.4l-1.6-1.1l-0.3-2.2l-0.1-2.4L106.9,229"/>
<path d="M61.9,229c-0.1,0.5-0.2,1-0.5,1.5c-0.9,1.8-2.9,2.1-4.7,2.5c-1.3,0.3-2.5,0.8-3.7,1.3 c-1.7,0.7-2.5,2-3.7,3.1c-0.6,0.5-1.2,0.9-1.9,1.4c-1.6,1-3.2,1.1-5.1,1.2c-2.5,0.1-4.8-0.2-7.2-0.7c-2.2-0.5-3.8-0.8-5.7-1.3 c-0.6-0.2-1.4-0.3-1.7-0.8l-0.4,0.8l-0.2,1.6c0,0,2,1.1,4.2,1.6c2.1,0.5,6.5,1.2,6.5,1.2l0.3-0.7l1,0.2v0.7l2.4,0.1L42,242h0.8 l-0.1,0.6c0,0,1.5,0,2.3-0.5c0.2-0.2,0.5-0.6,0.5-0.6l0.6-0.3l-0.1,0.6l2-0.7l0.1-0.8l0.6-0.3v0.6l1.4-1.1l0.2-0.7l3.6-2.5 l0.6,1.3L57,237l0.1-0.5l0.6-0.3l0.4,0.4l1.7-0.7v-0.5l0.6-0.2l0.1,0.4l1.6-1.1l0.3-2.2l0.1-2.4L61.9,229"/>
</g>
<g id="Top_Gunslinger-Boot" style="fill: rgb(90, 71, 54);">
<path d="M121,227.7c-2.2-3.1-3.6-6.9-4.1-10.3l0.6-0.1h0.7c0.4,0,0.7-0.1,1-0.1l0.5-0.1h0.2l0.4-0.1l0.3-0.1h0.1 c1.1-0.3,2.3-0.6,2.3-0.6c0.3,1.5,0.5,3.2,1.1,4.6c1,2.2,2.8,3.8,4.4,5.5c1.1,1.1,2.3,2.4,3.6,3.3c0.6,0.4,1.2,0.7,1.8,0.9 c-0.5,0.7-1.5,1.4-2.5,1.8c-0.9,0.4-2.2,0.9-3.3,1c-1.2,0.2-2.3-0.8-3.2-1.4C123.5,230.8,122.2,229.4,121,227.7"/>
<path d="M47.7,227.7c2.2-3.1,3.6-6.9,4.1-10.3l-0.6-0.1h-0.7c-0.4,0-0.7-0.1-1-0.1l-0.5-0.1h-0.2l-0.4-0.1l-0.3-0.1 H48c-1.1-0.3-2.3-0.6-2.3-0.6c-0.3,1.5-0.5,3.2-1.1,4.6c-1,2.2-2.8,3.8-4.4,5.5c-1.1,1.1-2.3,2.4-3.6,3.3 c-0.6,0.4-1.2,0.7-1.8,0.9c0.5,0.7,1.5,1.4,2.5,1.8c0.9,0.4,2.2,0.9,3.3,1c1.2,0.2,2.3-0.8,3.2-1.4 C45.2,230.8,46.5,229.4,47.7,227.7"/>
</g>
<g id="Side_Gunslinger-Boot" style="fill: rgb(90, 71, 54);">
<path d="M121,227.7c-1.9,0.5-3.7,1.2-5.4,2.1c-1.3,0.6-3.3,1.3-4.5,1c-3.6-0.9-4.2-4.3-4.2-4.3 c0.1-0.7,0.3-1.5,0.3-2.3c0.1-1.5-0.1-8.2,0-8.1c2.9,1.6,8.1,1.5,9.6,1.3C117.4,220.8,118.9,224.6,121,227.7"/>
<path d="M47.7,227.7c1.9,0.5,3.7,1.2,5.4,2.1c1.3,0.6,3.3,1.3,4.5,1c3.6-0.9,4.2-4.3,4.2-4.3 c-0.1-0.7-0.3-1.5-0.3-2.3c-0.1-1.5,0.1-8.2,0-8.1c-2.9,1.6-8.1,1.5-9.6,1.3C51.3,220.8,49.9,224.6,47.7,227.7"/>
</g>
</g>
</g>
<g id="Gloves">
<g id="Left-Glove">
<g id="Basic_Left_Glove" class="option" style="fill: rgb(90, 71, 54); display: inherit;">
<path d="M137.6,124.1c-0.5,0-1,0-1.6,0.1c-0.4,0.1-0.7,0.2-1,0.3c-1,0.6-0.7,1.8,0.2,2.3c1,0.6,2.6,0,3.1-1.1 C138.5,125.3,137.9,124.5,137.6,124.1"/>
<path d="M135.8,125.2c-0.5,0-1,0-1.6,0.1c-0.4,0.1-0.7,0.2-1,0.3c-1,0.6-0.7,1.8,0.2,2.3c1,0.5,2.6,0,3.1-1.1 C136.7,126.4,136.1,125.6,135.8,125.2"/>
<path d="M134.5,126.6c-0.5,0-1.2,0.1-1.7,0.3c-0.3,0.1-0.7,0.3-1,0.5c-0.9,0.7-0.5,1.9,0.5,2.2 c1.1,0.4,2.6-0.3,2.9-1.5C135.4,127.7,134.5,126.6,134.5,126.6z"/>
<path d="M131.6,110c0,0-1.6,2.1-2,3.7c-0.3,1.1-0.1,3.7-0.5,5.4c-0.4,1.7-0.7,2.7-0.7,2.7s-1.4,2.8-1.1,3.4 c0.2,0.6,1.4,1.2,2.1,0.9c0.9-0.4,1.9-2.4,2.6-3.8c0.7-1.4,1.2-3.4,1.2-3.4s0.9,0.3,1.4,0.7c1.6,1.2,0.9,5,0.9,5 s-0.7,1.3-1.7,2.8c-1.4,2-3.4,3.8-2.1,5.4c1.3,1.5,4.2-2.4,4.2-2.4l2.9-3.7c0,0,3.3-5.4,3.4-6.5c0.1-0.8,0-3.5,0-3.5l-1-10.4 l-5.2,0.4l-4.3,1.4L131.6,110"/>
</g>
</g>
<g id="Right-Glove">
<g id="Basic_Right_Glove" class="option" style="fill: rgb(90, 71, 54); display: inherit;">
<path d="M31.1,124.1c0.5,0,1,0,1.6,0.1c0.4,0.1,0.7,0.2,1,0.3c1,0.6,0.7,1.8-0.2,2.3c-1,0.6-2.6,0-3.1-1.1 C30.3,125.3,30.9,124.5,31.1,124.1"/>
<path d="M32.9,125.2c0.5,0,1,0,1.6,0.1c0.4,0.1,0.7,0.2,1,0.3c1,0.6,0.7,1.8-0.2,2.3c-1,0.5-2.6,0-3.1-1.1 C32.1,126.4,32.7,125.6,32.9,125.2"/>
<path d="M34.2,126.6c0.5,0,1.2,0.1,1.7,0.3c0.3,0.1,0.7,0.3,1,0.5c0.9,0.7,0.5,1.9-0.5,2.2c-1.1,0.4-2.6-0.3-2.9-1.5 C33.3,127.7,34.2,126.6,34.2,126.6z"/>
<path d="M37.1,110c0,0,1.5,2.1,2,3.7c0.3,1.1,0.1,3.7,0.5,5.4c0.4,1.7,0.7,2.7,0.7,2.7s1.4,2.8,1.1,3.4 c-0.2,0.6-1.4,1.2-2.1,0.9c-0.9-0.4-1.9-2.4-2.6-3.8c-0.7-1.4-1.2-3.4-1.2-3.4s-0.9,0.3-1.4,0.7c-1.6,1.2-0.9,5-0.9,5 s0.7,1.3,1.7,2.8c1.4,2,3.4,3.8,2.1,5.4c-1.3,1.5-4.2-2.4-4.2-2.4l-2.9-3.7c0,0-3.3-5.4-3.4-6.5c-0.1-0.8,0-3.5,0-3.5l1-10.4 l5.2,0.4l4.3,1.4L37.1,110"/>
</g>
</g>
</g>
<g id="Biceps">
<g id="Left-Biceps">
<g id="Basic_Biceps_Left" class="option" style="display: inherit;">
<path id="Main_Basic_Biceps_Left" d="M133.5,52c-1.1-2.7-6.2-14.8-6.2-14.8s-8.3,3.4-10.4,4.3 c-0.6,0.2-0.9,0.9-0.6,1.5c1,2.4,3.4,8.1,4.8,11.7c0.3,0.8,1,1.5,1.8,1.8c0.8,0.3,1.7,0.3,2.5,0c2.4-1,5.7-2.4,7.4-3 C133.5,53.2,133.8,52.6,133.5,52" style="fill: rgb(122, 122, 122);"/>
<path id="Strap_Basic_Biceps_Left" d="M118.6,48.3l-5.8,2.4l-0.1,4.3l7.4-3.1L118.6,48.3" style="fill: rgb(90, 71, 54);"/>
<path id="Trauma-Plate_Basic_Biceps_Left" class="toggle" style="display: none; fill: rgb(255, 255, 255);" d="M133.5,51.4l-5.3-12.7l-10.1,4.2l4.6,11.2 c0.2,0.4,0.5,0.7,0.9,0.9s0.8,0.2,1.2,0L133.5,51.4"/>
</g>
</g>
<g id="Right-Biceps">
<g id="Basic_Biceps_Right" class="option" style="display: inherit;">
<path id="Main_Basic_Biceps_Right" d="M35.4,52c1.2-2.8,6.2-14.8,6.2-14.8s8.3,3.4,10.4,4.3c0.6,0.2,0.9,0.9,0.6,1.5 c-1,2.4-3.4,8.1-4.8,11.7c-0.3,0.8-1,1.5-1.8,1.8s-1.7,0.3-2.5,0c-2.4-1-5.7-2.4-7.4-3C35.5,53.2,35.2,52.6,35.4,52" style="fill: rgb(80, 121, 196);"/>
<path id="Strap_Basic_Biceps_Right" d="M50.4,48.3l5.8,2.4l0.1,4.3l-7.4-3.1L50.4,48.3" style="fill: rgb(90, 71, 54);"/>
<path id="Trauma-Plate_Basic_Biceps_Right" class="toggle" style="display: none; fill: rgb(255, 255, 255);" d="M35.5,51.4l5.3-12.7l10.1,4.2l-4.6,11.2 c-0.2,0.4-0.5,0.7-0.9,0.9c-0.4,0.2-0.8,0.2-1.2,0L35.5,51.4"/>
</g>
</g>
</g>
<g id="Vest" style="fill: rgb(51, 51, 51);">
<path d="M84.4,20.9c8.4,0,15.3-4.3,15.5-8h0.1l18.3,5.4l13.2,23.9l-2.8,1.2l-13.3-8.6l-2.3,3.7l-1.5,47.4 c0,0-8.7,4.7-13.4,5.3c-3.4,0.5-8.6,0.7-13.7,0.7s-10.3-0.2-13.7-0.7c-4.8-0.6-13.4-5.3-13.4-5.3l-1.5-47.4l-2.3-3.7l-13.3,8.6 l-2.8-1.2l13.2-23.9L69,12.9h0.1C69,16.6,75.9,20.9,84.4,20.9"/>
</g>
<g class="swappable" id="Chest">
<g id="Chest_Heavy" style="visibility: visible;">
<g id="Abdomen_Heavy">
<g id="Under-Plates_Abdomen_Heavy" style="fill: rgb(122, 122, 122);">
<path d="M73.4,72.4v-2.8h22.1v2.8H73.4"/>
<path d="M73.4,75.2v-2.8h22.1v2.8H73.4"/>
<path d="M73.4,78.1v-2.9h22.1V78L73.4,78.1"/>
<path d="M73.4,80.9v-2.8h22.1v2.8H73.4"/>
<path d="M73.4,83.7v-2.8h22.1v2.8H73.4"/>
</g>
<g id="Abdomen-Plate_Heavy" style="fill: rgb(80, 121, 196);">
<path d="M77.7,60.4l-11,4.7l-1-2.5l12.1-5.1L77.7,60.4"/>
<path d="M70.5,74.5l-3.9-9.4l11-4.7l3.5,9.9L70.5,74.5"/>
<path d="M65.6,62.6L61,63.4l6.8,16.3l4.7-0.9L65.6,62.6"/>
<path d="M91.3,60.4l11,4.7l1-2.5l-12.1-5.1L91.3,60.4"/>
<path d="M98.4,74.5l3.9-9.4l-11-4.7l-3.5,9.9L98.4,74.5"/>
<path d="M103.3,62.6l4.6,0.8l-6.8,16.3l-4.7-0.9L103.3,62.6"/>
<path d="M77.7,60.4v-3h13.5v3H77.7"/>
<path d="M81.1,70.3l-3.5-9.9h13.6l-3.5,9.9H81.1"/>
</g>
</g>
<g id="Neck-Armor_Heavy">
<g id="Neck-Plate_Heavy" style="fill: rgb(80, 121, 196);">
<path d="M69.3,11.2l-9.6,2.1c0,0,1.1,4.3,1.7,6.8c0.2,0.9,1.1,1.4,2,1.2c1.7-0.4,4.5-1,6.3-1.4 c0.4-0.1,0.8-0.4,1.1-0.8c0.2-0.4,0.3-0.9,0.2-1.3C70.3,15.4,69.3,11.2,69.3,11.2"/>
<path d="M99.7,11.2l9.6,2.1c0,0-1.1,4.3-1.7,6.8c-0.2,0.9-1.1,1.4-2,1.2c-1.7-0.4-4.5-1-6.3-1.4 c-0.4-0.1-0.8-0.4-1.1-0.8c-0.2-0.4-0.3-0.9-0.2-1.3C98.6,15.4,99.7,11.2,99.7,11.2"/>
</g>
<g id="Secondary_Neck-Plate_Heavy" style="fill: rgb(122, 122, 122);">
<path d="M66.9,11.4l-4.8,1.1c0,0,0.7,2.9,1.1,4.3c0.1,0.4,0.5,0.7,1,0.6c0.9-0.2,2.3-0.5,3.2-0.7 c0.2,0,0.4-0.2,0.5-0.4c0.1-0.2,0.2-0.4,0.1-0.6C67.6,14.2,66.9,11.4,66.9,11.4"/>
<path d="M102.1,11.4l4.8,1.1c0,0-0.7,2.9-1.1,4.3c-0.1,0.4-0.5,0.7-1,0.6c-0.9-0.2-2.3-0.5-3.2-0.7 c-0.2,0-0.4-0.2-0.5-0.4c-0.1-0.2-0.2-0.4-0.1-0.6C101.3,14.2,102.1,11.4,102.1,11.4"/>
</g>
</g>
<g id="Full-Chest_Heavy">
<path id="Under-Plate_Chest_Heavy" d="M89.9,54.1H79l-2.7,2.4v1.6l1.4-0.6h13.5l1.4,0.6v-1.6L89.9,54.1" style="fill: rgb(122, 122, 122);"/>
<g id="Chest-Plate_Heavy" style="fill: rgb(80, 121, 196);">
<path d="M65.4,61.2l9.7-5.6l1.3-2.7l2.6,0.3h11l2.6-0.3l1.3,2.7l9.7,5.6l4.5,1l-0.1,1.7l-4.8-0.8l-10.5-4.4v-2.2 L90,54.1H79l-2.7,2.4v2.2l-10.5,4.4L61,63.9l-0.1-1.7L65.4,61.2"/>
<path d="M108.1,62.2l5.6-14.4l0.8,2.9l-1.8,10.7L108.1,62.2"/>
<path d="M54.4,50.8l0.8-2.9l5.6,14.4l-4.7-0.7L54.4,50.8"/>
<path d="M60.7,42.2v-6l-0.5-10.8l2.8-3.1l8.5-1.8l2.2,2.6h21.6l2.2-2.6l8.5,1.8l2.8,3.1l-0.4,10.5v6.3L92.7,52.9 l-2.6,0.3h-11l-2.6-0.3L60.7,42.2"/>
<path d="M108.2,36.2v6l5.5,5.6L108.2,36.2"/>
<path d="M76.4,53L60.7,42.2l-5.5,5.6l5.6,14.4l4.5-1l9.7-5.6L76.4,53"/>
<path d="M113.7,47.8l-5.6,14.4l-4.5-1l-9.7-5.6l-1.3-2.7l15.7-10.7L113.7,47.8"/>
<path d="M112.7,61.5l-0.2,1.1l-4.6,1.2l0.1-1.7L112.7,61.5"/>
<path d="M60.7,36.2v6l-5.5,5.6L60.7,36.2"/>
<path d="M60.3,25.4C60.2,30.9,59.6,36.5,58,42l2.7-5.8L60.3,25.4"/>
<path d="M108.7,25.4c0.1,5.5,0.7,11.1,2.3,16.6l-2.7-5.8L108.7,25.4"/>
<path d="M60.9,62.2l0.1,1.7l-4.6-1.2l-0.2-1.1L60.9,62.2"/>
</g>
<g id="Accents_Chest-Plate_Heavy" class="toggle">
<g id="Accent-3_Accents_Chest-Plate_Heavy" style="fill: rgb(122, 122, 122);">
<path d="M97.3,36.1l-0.6-1.8h2.6l-0.6,1.8H97.3"/>
<path d="M97.3,39.5l-0.6-1.8h2.6l-0.6,1.8H97.3"/>
<path d="M100.5,25.4h-4.9v0.5h4.9V25.4"/>
<path d="M100.5,27.1h-4.9v0.5h4.9V27.1"/>
</g>
<path id="Accent-2_Accents_Chest-Plate_Heavy" d="M69.8,19.8c0,0-3.5,0.2-5,0.3c-0.2,0-0.3,0.1-0.4,0.2 c-0.1,0.1-0.2,0.3-0.1,0.4c0.1,1.5,0.4,5.5,0.5,7.1c0,0.3,0.3,0.6,0.6,0.6c1.1-0.1,3.3-0.2,4.4-0.3c0.2,0,0.3-0.1,0.4-0.2 c0.1-0.1,0.2-0.3,0.1-0.4C70.2,25.5,69.8,19.8,69.8,19.8" style="fill: rgb(80, 121, 196);"/>
<g id="Accent-1_Accents_Chest-Plate_Heavy" style="fill: rgb(122, 122, 122);">
<path d="M69.2,20.4l-4.3,0.3l0.5,7.1l4.3-0.3L69.2,20.4"/>
<path d="M68.7,20.9l-3.2,0.3l0.1,1l3.3-0.2L68.7,20.9"/>
<path d="M66,22.1h-0.4l0.4,5.6h0.4L66,22.1"/>
<path d="M66.5,22.1h-0.4l0.4,5.6h0.4L66.5,22.1"/>
<path d="M68.8,22h-0.4l0.4,5.6h0.4L68.8,22"/>
<path d="M68.4,22H68l0.4,5.6h0.4L68.4,22"/>
<path d="M67.4,22.1H67l0.4,5.6h0.4L67.4,22.1"/>
<path d="M67.9,22h-0.4l0.4,5.6h0.4L67.9,22"/>
<path d="M66.9,22.1h-0.4l0.4,5.6h0.4L66.9,22.1"/>
</g>
</g>
</g>
<g id="Iron-Heart_Heavy">
<path id="Heart_Heavy" d="M84.5,31.1l3.2,3V40l-3.2,3l-3.2-3v-5.9L84.5,31.1" style="fill: rgb(122, 122, 122);"/>
<g id="Center_Heart_Heavy" class="option" style="fill: rgb(80, 121, 196); display: inherit;">
<rect x="83.3" y="34.1" width="2.3" height="2.8"/>
<rect x="83.3" y="37" width="0.4" height="2.8"/>
<rect x="84.9" y="37" width="0.4" height="2.8"/>
<rect x="85.2" y="37" width="0.4" height="2.8"/>
<rect x="84.1" y="37" width="0.4" height="2.8"/>
<rect x="84.5" y="37" width="0.4" height="2.8"/>
<rect x="83.7" y="37" width="0.4" height="2.8"/>
</g>
</g>
</g>
</g>
<g id="Chest-Attachments">
<g id="Bandoleer_Accessories_Chest" class="option" style="display: inherit;">
<g id="Strap_Bandoleer_Accessories_Chest" style="fill: rgb(90, 71, 54);">
<path d="M112.3,15l-6.6-3.2L64.2,87.1l6.6,3.6L112.3,15"/>
<path d="M110.6,13.8l-2.5-1.2l-8.3,15l2.4,1.3L110.6,13.8"/>
<path d="M98.8,35.4l-2.7-1.5L83.4,57l2.7,1.5L98.8,35.4"/>
<path d="M99.1,36.3l-3.9-2.1l-1.3,2.3l3.9,2.1L99.1,36.3"/>
<path d="M97.5,39.1L93.6,37l-1.3,2.3l3.9,2.1L97.5,39.1"/>
<path d="M96,41.9l-3.9-2.1l-1.3,2.3l3.9,2.1L96,41.9"/>
<path d="M94.4,44.7l-3.9-2.1l-1.3,2.3l3.9,2.1L94.4,44.7"/>
<path d="M92.9,47.5L89,45.4l-1.3,2.3l3.9,2.1L92.9,47.5"/>
<path d="M89.8,53.1L85.9,51l-1.3,2.3l3.9,2.1L89.8,53.1"/>
<path d="M91.4,50.3l-3.9-2.1l-1.3,2.3l3.9,2.1L91.4,50.3"/>
<path d="M88.3,55.9l-3.9-2.1l-1.3,2.3l3.9,2.1L88.3,55.9"/>
</g>
<g id="Ammo_Bandoleer_Accessories_Chest" style="fill: rgb(51, 51, 51);">
<g>
<g>
<path d="M98.9,36.6l1.6,0.9c0.2,0.1,0.2,0.3,0.1,0.5c-0.2,0.3-0.5,0.9-0.7,1.2c-0.1,0.2-0.3,0.2-0.5,0.1L98,38.4 L98.9,36.6"/>
<path d="M100.1,37.2L99,38.9l0.1,0.1L100.1,37.2"/>
<path d="M99.8,37.1l-1.1,1.7l0.1,0.1L99.8,37.1"/>
</g>
<g>
<path d="M95.1,34.4l-1,1.8l-1.6-0.9c-0.2-0.1-0.2-0.3-0.1-0.5c0.2-0.3,0.5-0.9,0.7-1.2c0.1-0.2,0.3-0.2,0.5-0.1 L95.1,34.4"/>
<path d="M93.8,33.8l-1.1,1.7l0.1,0.1L93.8,33.8"/>
</g>
</g>
<g>
<g>
<path d="M95.8,42.2l1.6,0.9c0.2,0.1,0.2,0.3,0.1,0.5c-0.2,0.3-0.5,0.9-0.7,1.2c-0.1,0.2-0.3,0.2-0.5,0.1L94.7,44 L95.8,42.2"/>
<path d="M97,42.8l-1.1,1.7l0.1,0.1L97,42.8"/>
<path d="M96.7,42.7l-1.1,1.7l0.1,0.1L96.7,42.7"/>
</g>
<g>
<path d="M92,40l-1,1.8l-1.6-0.9c-0.2-0.1-0.2-0.3-0.1-0.5c0.2-0.3,0.5-0.9,0.7-1.2c0.1-0.2,0.3-0.2,0.5-0.1L92,40"/>
<path d="M90.8,39.4l-1.1,1.7l0.1,0.1L90.8,39.4"/>
</g>
</g>
<g>
<g>
<path d="M94.3,45l1.6,0.9c0.2,0.1,0.2,0.3,0.1,0.5c-0.2,0.3-0.5,0.9-0.7,1.2c-0.1,0.2-0.3,0.2-0.5,0.1l-1.6-0.9 L94.3,45"/>
<path d="M95.5,45.6l-1.1,1.7l0.1,0.1L95.5,45.6"/>
<path d="M95.2,45.5l-1.1,1.7l0.1,0.1L95.2,45.5"/>
</g>
<g>
<path d="M90.4,42.8l-1,1.8l-1.6-0.9c-0.2-0.1-0.2-0.3-0.1-0.5c0.2-0.3,0.5-0.9,0.7-1.2c0.1-0.2,0.3-0.2,0.5-0.1 L90.4,42.8"/>
<path d="M89.2,42.2l-1.1,1.7l0.1,0.1L89.2,42.2"/>
</g>
</g>
<g>
<g>
<path d="M92.8,47.8l1.6,0.9c0.2,0.1,0.2,0.3,0.1,0.5c-0.2,0.3-0.5,0.9-0.7,1.2c-0.1,0.2-0.3,0.2-0.5,0.1l-1.6-0.9 L92.8,47.8"/>
<path d="M93.9,48.4l-1.1,1.7l0.1,0.1L93.9,48.4"/>
<path d="M93.6,48.3L92.5,50l0.1,0.1L93.6,48.3"/>
</g>
<g>
<path d="M88.9,45.6l-1,1.8l-1.6-0.9c-0.2-0.1-0.2-0.3-0.1-0.5c0.2-0.3,0.5-0.9,0.7-1.2c0.1-0.2,0.3-0.2,0.5-0.1 L88.9,45.6"/>
<path d="M87.7,45l-1.1,1.7l0.1,0.1L87.7,45"/>
</g>
</g>
</g>
<g id="Buckles_Bandoleer_Accessories_Chest" style="fill: rgb(163, 163, 163);">
<g>
<path d="M103.3,27.4l-2.9-1.6l-1.6,2.9l2.9,1.6L103.3,27.4"/>
<path d="M102.6,27.9l-2.2-1.2l-1.6,2.9l2.2,1.2L102.6,27.9"/>
</g>
<path d="M103.3,23.9l-1.8-1l1.6-2.9l3.7,2l-1.6,2.9L103.3,23.9l0.4-0.7l1.1,0.6l0.9-1.6l-2.1-1.1l-0.9,1.6l1,0.6"/>
</g>
</g>
</g>
<g id="Collar">
<g id="None_Collar" class="option" style="display: inherit;">
</g>
</g>
<svg version="1.1" id="Helmets" xmlns="http://www.w3.org/2000/svg" y="-54px" height="85px" viewBox="0 0 80 80" class="swappable">
<g id="Helmet_McQuarrie" style="visibility: visible;">
<g id="Left-Earcap_McQuarrie" class="toggle" style="display: none;"/>
<g id="Right-Earcap_McQuarrie" class="toggle" style="">
<path id="Base_Earcap_Right_McQuarrie" d="M19.8,34.9c0-0.3,0.2-0.5,0.5-0.5h1v3.8h-1.5V34.9z" style="fill: rgb(122, 122, 122);"/>
<rect id="Shaft_Earcap_Right_McQuarrie" x="20.2" y="8" width="1.1" height="26.4" style="fill: rgb(51, 51, 51);"/>
<g id="Finder_Earcap_Right_McQuarrie" style="fill: rgb(80, 121, 196);">
<rect x="13.2" y="9.4" width="7" height="2.3"/>
<path d="M13.6,9h6.7v0.5h-7L13.6,9z"/>
<path d="M14.7,12.8h5.5v-1.1h-7L14.7,12.8z"/>
</g>
<path id="Accent_Earcap_Right_McQuarrie" d="M13.9,10.6c0-0.1,0-0.1,0.1-0.2c0.1-0.1,0.1-0.1,0.2-0.1h5.2 c0.1,0,0.1,0,0.2,0.1c0.1,0.1,0.1,0.1,0.1,0.2c0,0.1,0,0.1-0.1,0.2c-0.1,0.1-0.1,0.1-0.2,0.1h-5.2c-0.1,0-0.1,0-0.2-0.1 C13.9,10.7,13.9,10.7,13.9,10.6z" style="fill: rgb(122, 122, 122);"/>
</g>
<g id="Helmet_Pieces_McQuarrie">
<path id="Mouth-2_McQuarrie" d="M40,52.1l8.6,0.8l1.2,11.8c0,0-6.5,0.8-9.8,0.8s-9.8-0.8-9.8-0.8l1.2-11.8L40,52.1z" style="fill: rgb(122, 122, 122);"/>
<g id="Mouth-1_McQuarrie" style="fill: rgb(81, 81, 81);">
<g>
<path d="M34.3,57.7c2.3-0.3,4.3,1.1,4.4,3.1c0.1,2-1.6,3.8-3.9,4.1c-2.3,0.3-4.3-1.1-4.4-3.1 C30.3,59.9,32,58,34.3,57.7z"/>
<path d="M33,59.4c2.1-1.2,4.8-0.8,6.1,0.9c1.2,1.7,0.5,4.1-1.6,5.4c-2.1,1.2-4.8,0.8-6.1-0.9 C30.2,63,30.9,60.6,33,59.4z"/>
<path d="M33.2,59.6c2.1-1.2,4.7-0.8,5.9,0.9c1.2,1.7,0.5,4.1-1.6,5.4c-2.1,1.2-4.7,0.8-5.9-0.9 C30.4,63.2,31.1,60.8,33.2,59.6z"/>
<path d="M33.5,60.3c2.1-1.3,4.7-0.9,5.9,0.9c1.2,1.8,0.5,4.2-1.6,5.5c-2.1,1.3-4.7,0.9-5.9-0.9 C30.7,64,31.4,61.5,33.5,60.3z"/>
<path d="M33.8,60.7c1.8-1.1,4.1-0.7,5.1,0.8s0.4,3.6-1.3,4.7c-1.8,1.1-4.1,0.7-5.1-0.8C31.4,63.9,32,61.8,33.8,60.7 z"/>
<path d="M33.6,60.6c1.6-1,3.7-0.6,4.7,0.7c0.9,1.3,0.4,3.2-1.2,4.1c-1.6,1-3.7,0.6-4.7-0.7 C31.5,63.4,32,61.6,33.6,60.6z"/>
<path d="M34.1,61.1c1.2-0.7,2.8-0.5,3.5,0.5c0.7,1,0.3,2.4-0.9,3.1c-1.2,0.7-2.8,0.5-3.5-0.5 C32.5,63.2,32.9,61.8,34.1,61.1z"/>
</g>
<g>
<path d="M45.7,57.7c-2.3-0.3-4.3,1.1-4.4,3.1c-0.1,2,1.6,3.8,3.9,4.1c2.3,0.3,4.3-1.1,4.4-3.1 C49.7,59.9,48,58,45.7,57.7z"/>
<path d="M47,59.4c-2.1-1.2-4.8-0.8-6.1,0.9c-1.2,1.7-0.5,4.1,1.6,5.4c2.1,1.2,4.8,0.8,6.1-0.9 C49.8,63,49.1,60.6,47,59.4z"/>
<path d="M46.8,59.6c-2.1-1.2-4.7-0.8-5.9,0.9c-1.2,1.7-0.5,4.1,1.6,5.4c2.1,1.2,4.7,0.8,5.9-0.9 C49.6,63.2,48.9,60.8,46.8,59.6z"/>
<path d="M46.5,60.3c-2.1-1.3-4.7-0.9-5.9,0.9c-1.2,1.8-0.5,4.2,1.6,5.5c2.1,1.3,4.7,0.9,5.9-0.9 C49.3,64,48.6,61.5,46.5,60.3z"/>
<path d="M46.2,60.7c-1.8-1.1-4.1-0.7-5.1,0.8s-0.4,3.6,1.3,4.7c1.8,1.1,4.1,0.7,5.1-0.8 C48.6,63.9,48,61.8,46.2,60.7z"/>
<path d="M46.4,60.6c-1.6-1-3.7-0.6-4.7,0.7c-0.9,1.3-0.4,3.2,1.2,4.1c1.6,1,3.7,0.6,4.7-0.7 C48.6,63.4,48,61.6,46.4,60.6z"/>
<path d="M45.9,61.1c-1.2-0.7-2.8-0.5-3.5,0.5c-0.7,1-0.3,2.4,0.9,3.1c1.2,0.7,2.8,0.5,3.5-0.5 C47.6,63.2,47.2,61.8,45.9,61.1z"/>
</g>
<g>
<rect x="35.9" y="52.1" width="8.3" height="3.2"/>
<rect x="36.3" y="55.3" width="7.4" height="0.8"/>
<rect x="35.9" y="56.1" width="8.3" height="1.6"/>
</g>
</g>
<path id="Nose-2_McQuarrie" d="M40,41.5c0.4,0,0.9,1.6,2.2,1.9v9.5c0,0-0.4-0.2-0.9-0.3c-0.4-0.1-1.2,0-1.3,0h-1.3 c-0.4,0.1-0.9,0.3-0.9,0.3v-9.5C39.1,43.1,39.6,41.5,40,41.5z" style="fill: rgb(80, 121, 196);"/>
<path id="Nose-1_McQuarrie" d="M39.4,44.8c0-0.3,0.3-0.6,0.6-0.6s0.6,0.3,0.6,0.6v7h-1.2V44.8z" style="fill: rgb(80, 121, 196);"/>
<g id="Face-2_McQuarrie" style="fill: rgb(80, 121, 196);">
<path d="M51.7,64.3c0,0,3.4-1,5.2-1.5c1.9-0.5,2.4-1.7,2.4-1.7V48.6l-6.1,3.2C50.2,57.2,51.6,64.1,51.7,64.3z"/>
<path d="M28.3,64.3c0,0-3.4-1-5.2-1.5c-1.9-0.5-2.4-1.7-2.4-1.7V48.6l6.1,3.2C29.8,57.2,28.4,64.1,28.3,64.3z"/>
<rect x="59.3" y="41.3" width="1.5" height="19.4"/>
<rect x="19.2" y="41.3" width="1.5" height="19.4"/>
</g>
<ellipse id="Face-1_McQuarrie" cx="27.1" cy="59.9" rx="0.5" ry="0.8" style="fill: rgb(122, 122, 122);"/>
<g id="Cheeks_McQuarrie" style="fill: rgb(122, 122, 122);">
<path d="M53.1,51.8l6.1-3.2v-6.8c-0.8,0.3-1.7,0.6-2.3,0.9c-1.4,0.7-3.7,2-4.5,2.6c-0.8,0.6-0.8,1.5-0.8,1.5 L53.1,51.8z"/>
<path d="M51.7,46.8c0,0.1-1.3,4.2-1.5,5.7c-0.6,5.6,0.7,12.4,0.7,12.4l0.8-0.6c0,0-1.5-7,1.5-12.5L51.7,46.8z"/>
<path d="M26.9,51.8l-6.1-3.2v-6.8c0.8,0.3,1.7,0.6,2.3,0.9c1.4,0.7,3.7,2,4.5,2.6c0.8,0.6,0.8,1.5,0.8,1.5L26.9,51.8 z"/>
<path d="M28.3,46.8c0,0.1,1.3,4.2,1.5,5.7c0.6,5.6-0.7,12.4-0.7,12.4l-0.8-0.6c0,0,1.5-7-1.5-12.5L28.3,46.8z"/>
</g>
<g id="Eyes_McQuarrie" style="fill: rgb(122, 122, 122);">
<g>
<path d="M51.7,46.8l-9.5-2.6v8.7c0,0,1.1,0.8,2.1,0.8c1.1,0,2.9-0.8,3.5-0.2c0.7,0.6,0.9,2.2,0.8,3.8 c-0.1,1.6,0.6,6.1,1,7.6l0.6,0.2l0.5-0.2v-0.1c-0.1-0.3-1.3-7-0.7-12.4C50.3,51.1,51.5,47.3,51.7,46.8z M51.7,46.8L51.7,46.8z"/>
<path d="M28.4,46.8l9.5-2.6v8.7c0,0-1.1,0.8-2.1,0.8c-1.1,0-2.9-0.8-3.5-0.2c-0.7,0.6-0.9,2.2-0.8,3.8 c0.1,1.6-0.6,6.1-1,7.6l-0.6,0.2l-0.5-0.2v-0.1c0.1-0.3,1.3-7,0.7-12.4C29.7,51.1,28.5,47.3,28.4,46.8z M28.3,46.8L28.3,46.8z"/>
</g>
<path d="M37.8,43.4v0.8l-9.5,2.6c0,0,0-0.9-0.8-1.5c-0.8-0.6-3.1-2-4.5-2.6c-1.2-0.6-4.1-1.4-4.1-1.4v-3H61v3 c0,0-2.9,0.8-4.1,1.4c-1.4,0.7-3.7,2-4.5,2.6c-0.8,0.6-0.8,1.5-0.8,1.5l-9.5-2.6v-0.8c3.4,0.2,17.3-3.1,17.3-3.1s0.7-0.2,0.7-0.8 S59.4,39,59.4,39l-10.1,0.8L40,40.3l-9.4-0.4l-10.1-0.8c0,0-0.7-0.1-0.7,0.5c0,0.6,0.7,0.8,0.7,0.8S34.4,43.6,37.8,43.4 M42,43.4 c0.1,0,0.1,0,0.2,0.1C42.1,43.4,42,43.4,42,43.4 M38,43.4c-0.1,0-0.1,0-0.2,0.1C37.9,43.4,38,43.4,38,43.4 M38.2,43.3 C38.2,43.3,38.1,43.3,38.2,43.3 M39.3,42.3C39.3,42.3,39.2,42.3,39.3,42.3C39.2,42.3,39.3,42.3,39.3,42.3 M39.5,42 c0,0.1-0.1,0.1-0.1,0.2C39.4,42.1,39.4,42.1,39.5,42 M40.5,42c0.1,0.1,0.1,0.2,0.1,0.2C40.6,42.1,40.6,42,40.5,42 M39.8,41.7 L39.8,41.7C39.7,41.8,39.7,41.7,39.8,41.7 M40.3,41.7l0.1,0.1C40.3,41.8,40.3,41.7,40.3,41.7 M39.9,41.5 C39.9,41.5,39.9,41.6,39.9,41.5C39.9,41.6,39.9,41.5,39.9,41.5 M40.1,41.5C40.1,41.5,40.1,41.6,40.1,41.5 C40.1,41.6,40.1,41.5,40.1,41.5"/>
</g>
<path id="Visor_McQuarrie" d="M40,40.3l9.4-0.4l10.1-0.8c0,0,0.7-0.1,0.7,0.5c0,0.6-0.7,0.8-0.7,0.8 s-13.8,3.3-17.3,3.1c-0.1,0-0.2,0-0.2-0.1c0,0-0.1,0-0.1-0.1c-0.3-0.2-0.6-0.4-0.9-0.7c0-0.1-0.1-0.1-0.1-0.2 c-0.1-0.1-0.1-0.1-0.2-0.2c0-0.1-0.1-0.1-0.1-0.2l-0.1-0.1c0,0,0-0.1-0.1-0.1l-0.2-0.2c0,0-0.1-0.1-0.2-0.1s-0.1,0-0.2,0.1 L39.4,42c0,0.1-0.1,0.1-0.1,0.2c0,0.1-0.1,0.1-0.2,0.2c0,0.1-0.1,0.1-0.1,0.2c-0.2,0.3-0.5,0.6-0.9,0.7c0,0-0.1,0-0.1,0.1 c-0.1,0-0.1,0.1-0.2,0.1c-3.4,0.2-17.3-3.1-17.3-3.1s-0.7-0.2-0.7-0.8c0-0.6,0.7-0.5,0.7-0.5l10.1,0.8L40,40.3z" style="fill: rgb(56, 56, 56);"/>
<path id="Dome-2_McQuarrie" d="M21.4,34.6c0-9.5,8.3-17.2,18.6-17.2s18.6,7.7,18.6,17.2v3.6H21.4V34.6z" style="fill: rgb(80, 121, 196);"/>
<path id="Dome-1_McQuarrie" d="M40,36.3l-0.8-3.4h1.6L40,36.3z" style="fill: rgb(122, 122, 122);"/>
</g>
</g>
</svg>
<g id="Shoulders">
<g id="Left-Shoulder">
<g id="Legacy-x2_Shoulder_Left" class="option" style="display: inherit;">
<path id="Plate-2_Shoulder_Left_Legacy-x2" d="M115.3,14.9l-5.8,8.7l5.9,8.3l9.3-2.3l5.9,3.6L135,32L115.3,14.9" style="fill: rgb(122, 122, 122);"/>
<path id="Trauma-Plate-2_Shoulder_Legacy-x2_Left" class="toggle" style="fill: rgb(80, 121, 196);" d="M130.9,31.4l2.8-0.7l-17-14.9l-5.2,7.7l4.6,6.4 l8.6-2.2L130.9,31.4"/>
<path id="Plate-1_Shoulder_Left_Legacy-x2" d="M108.2,10.4l-2.6,10.1l8.3,5.9l8.1-5.2l6.7,1.5l3.8-2.5L108.2,10.4" style="fill: rgb(122, 122, 122);"/>
<path id="Trauma-Plate-1_Shoulder_Legacy-x2_Left" class="toggle" style="fill: rgb(80, 121, 196);" d="M128.3,20.9l2.4-1.6l-21-8.5l-2.3,9l6.4,4.6l7.4-4.9 L128.3,20.9"/>
</g>
</g>
<g id="Right-Shoulder">
<g id="Heavy-Bell_Shoulder_Right" class="option" style="display: inherit;">
<path id="Bottom_Heavy-Bell_Shoulder_Right" d="M35.2,36.1L33.8,41c2.7,1.8,5,2.8,6.7,3.4c1.2,0.4,2.5,0.3,3.6-0.3 c1.1-0.6,1.9-1.6,2.2-2.8c0.1-0.5,0.2-0.9,0.2-0.9L35.2,36.1" style="fill: rgb(122, 122, 122);"/>
<path id="Main_Heavy-Bell_Shoulder_Right" d="M60.2,13.6C49.3,11.2,38.9,15.8,37.1,24c-1.4,6.2-2.6,11.5-2.6,11.5 c4.7,4.5,12.7,5.9,20.2,5.8C58.6,32.2,59.8,23.2,60.2,13.6" style="fill: rgb(122, 122, 122);"/>
<g id="Trim_Heavy-Bell_Shoulder_Right" class="toggle" style="fill: rgb(80, 121, 196);">
<path d="M45.3,39.9c-0.4,1.1-0.9,2.2-1.9,2.7c-1.1,0.6-2.4,0.5-3.6,0.1c-1.5-0.5-3.6-1.7-5.9-3.1l-0.4,1.2 c2.7,2,5.1,3.1,6.8,3.7c1.2,0.4,2.6,0.1,3.7-0.4c1.1-0.6,1.9-1.6,2.2-2.8c0.1-0.5,0.2-0.9,0.2-0.9L45.3,39.9"/>
<path d="M58.3,13.1c-0.5,8.8-1.5,17.4-5.2,25.8c-6.6,0.1-13.6-2.2-18.4-5.5l-0.4,1.9c5,4.8,13,6.1,20.4,6.1 c4-9.1,5.1-18.3,5.5-27.9C60.2,13.4,58.9,13.1,58.3,13.1"/>
</g>
</g>
</g>
</g>
<g id="Gauntlets">
<g id="Left-Gauntlets">
<g id="Gunslinger_Gauntlet_Left" class="option" style="display: inherit;">
<g id="Accent-Top_Gunslinger_Gauntlet_Left" style="fill: rgb(122, 122, 122);">
<path d="M139,79.8l0.6,5.6l-2.8,0.8l-0.7-5.3L139,79.8"/>
<path d="M137.7,100.6l0.6,2.9l-2.5,0.5l-0.6-2.9L137.7,100.6"/>
</g>
<path id="Top_Gunslinger_Gauntlet_Left" d="M139,79.8l1.3-0.5l2.3,26.3l-6.2,1.3l-0.8-4.1l0.2,1.2l2.5-0.5l-0.6-2.9 l-2.5,0.5l-3.8-18.5L139,79.8l-2.9,1.1l0.7,5.3l2.8-0.8L139,79.8" style="fill: rgb(80, 121, 196);"/>
<g id="Accent-Bottom_Gunslinger_Gauntlet_Left" style="fill: rgb(122, 122, 122);">
<path d="M127.7,91.2l-0.7-2.3l-1.6,0.5l0.7,2.3L127.7,91.2"/>
<path d="M128.6,93.8l-0.7-2.3l-1.6,0.5l0.7,2.3L128.6,93.8"/>
<path d="M135.2,101.2l-5.6,1.2l0.9,2.8l5.3-1.1L135.2,101.2"/>
</g>
<path id="Bottom_Gunslinger_Gauntlet_Left" d="M135.7,103.6l-0.5-2.4l-5.6,1.2l0.9,2.8l5.3-1.1l0.6,2.9 c0,0-2,0.3-3.4,0.6c-0.9,0.2-1.8-0.4-2.1-1.3c-1.6-4.8-6.3-19.4-6.3-19.4l6.8-3.8L135.7,103.6 M128.6,93.8l-0.7-2.3l-1.6,0.5 l0.7,2.3L128.6,93.8 M127.7,91.2l-0.7-2.3l-1.6,0.5l0.7,2.3L127.7,91.2" style="fill: rgb(80, 121, 196);"/>
<g id="Flamethrower_Attachment_Gunslinger_Gauntlet_Left" class="option" style="display: inherit;">
<g id="Tubes_Flamethrower_Attachment_Gunslinger_Gauntlet_Left" style="fill: rgb(51, 51, 51);">
<path d="M141.9,80.9l-0.8,0.1l2.1,25.2l0.8-0.1L141.9,80.9"/>
<path d="M143.8,80.7l-0.8,0.1l1.5,18l0.8-0.1L143.8,80.7"/>
<path d="M142.2,82.4l-1.1,0.1l0.5,6l1.1-0.1L142.2,82.4"/>
<path d="M144,82.3l-1.1,0.1l0.5,6l1.1-0.1L144,82.3"/>
</g>
<g id="Main_Flamethrower_Attachment_Gunslinger_Gauntlet_Left" style="fill: rgb(122, 122, 122);">
<path d="M144.1,80.7l-3.4,0.3l0.1,1.6l3.4-0.3L144.1,80.7"/>
<path d="M144.8,88.2l-3.6,0.3l0.1,1l3.6-0.3L144.8,88.2"/>
<path d="M144.7,89.2l-3.3,0.3V90l3.3-0.3V89.2"/>
<path d="M141.6,87.9l-0.5,0.1l0.2,2.9l0.5-0.1L141.6,87.9"/>
</g>
<g id="Accent_Flamethrower_Attachment_Gunslinger_Gauntlet_Left" style="fill: rgb(122, 122, 122);">
<path d="M145.3,98.7l-0.9,0.1v1.2l1.2-0.1L145.3,98.7"/>
<path d="M145.1,92.3l-1.6,0.1l0.2,1.9l1.6-0.1L145.1,92.3"/>
<path d="M145,94.2l-1.1,0.1l0.2,1.9l1.1-0.1L145,94.2"/>
<path d="M143.8,102.8l-1.1,0.1l0.2,2.6l1.1-0.1L143.8,102.8"/>
<path d="M143.1,94.4l-1.1,0.1l0.3,3.6l1.1-0.1L143.1,94.4"/>
<path d="M144.2,104.1l-1.6,0.1v0.5l1.6-0.1V104.1"/>
</g>
<path id="Base_Flamethrower_Attachment_Gunslinger_Gauntlet_Left" d="M141,88l-0.7-7.9l1,0.3l1.1,13.4l-0.9,0.5 l-0.3-3.4l0.5-0.1l-0.2-2.9L141,88" style="fill: rgb(122, 122, 122);"/>
</g>
</g>
</g>
<g id="Right-Gauntlets">
<g id="Gunslinger_Gauntlet_Right" class="option" style="display: inherit;">
<g id="Accent-Top_Gunslinger_Gauntlet_Right" style="fill: rgb(122, 122, 122);">
<path d="M30,79.8l-0.6,5.6l2.8,0.8l0.7-5.3L30,79.8"/>
<path d="M31.4,100.6l-0.6,2.9l2.5,0.5l0.6-2.9L31.4,100.6"/>
</g>
<path id="Top_Gunslinger_Gauntlet_Right" d="M30,79.8l-1.3-0.5l-2.3,26.3l6.2,1.3l0.8-4.1l-0.2,1.2l-2.5-0.5l0.6-2.9 l2.5,0.5l3.8-18.5L30,79.8l2.9,1.1l-0.7,5.3l-2.8-0.8L30,79.8" style="fill: rgb(80, 121, 196);"/>
<g id="Accent-Bottom_Gunslinger_Gauntlet_Right" style="fill: rgb(122, 122, 122);">
<path d="M41.3,91.2l0.7-2.3l1.6,0.5l-0.7,2.3L41.3,91.2"/>
<path d="M40.5,93.8l0.7-2.3l1.6,0.5l-0.7,2.3L40.5,93.8"/>
<path d="M33.9,101.2l5.6,1.2l-0.9,2.8l-5.3-1.1L33.9,101.2"/>
</g>
<path id="Bottom_Gunslinger_Gauntlet_Right" d="M33.4,103.6l0.5-2.4l5.6,1.2l-0.9,2.8l-5.3-1.1l-0.6,2.9 c0,0,2,0.3,3.4,0.6c0.9,0.2,1.8-0.4,2.1-1.3c1.6-4.8,6.3-19.4,6.3-19.4l-6.8-3.8L33.4,103.6 M40.5,93.8l0.7-2.3l1.6,0.5l-0.7,2.3 L40.5,93.8 M41.3,91.2l0.7-2.3l1.6,0.5l-0.7,2.3L41.3,91.2" style="fill: rgb(80, 121, 196);"/>
<g id="No-Device_Attachment_Gunslinger_Gauntlet_Right" class="option" style="display: inherit;">
</g>
</g>
</g>
</g>
<g id="Shins">
<g id="Left-Shin">
<g id="Basic-Round_Shin_Left" class="option" style="display: inherit;">
<path id="Shin_Basic-Round-Shin_Left" d="M121.5,180.7c-0.2-2.1-2.4-8.2-10.4-6.9c-9.7,1.6-8.4,9.7-8.3,10.4 c1,5.1,5.5,28.3,5.5,28.3c4.4,2,10.8,1.3,14.4-1.7C122.6,210.8,121.9,186.7,121.5,180.7" style="fill: rgb(80, 121, 196);"/>
<path id="Trauma-Plating_Basic-Round-Shin_Left" class="toggle" style="display: none; fill: rgb(255, 255, 255);" d="M120.7,209.9c-0.1-4.5-0.7-23.8-1.1-29 c-0.1-0.9-0.7-3-2.5-4.2c-1.3-0.9-3.1-1.4-5.7-0.9c-3.2,0.5-4.9,1.8-5.9,3.3c-1.3,2.1-0.9,4.6-0.9,4.9l5.3,27.3 C113.4,212.4,117.8,211.9,120.7,209.9"/>
<g id="Ridge_Basic-Round-Shin_Left" class="toggle" style="fill: rgb(122, 122, 122);">
<path d="M115.4,173.7l-3.5-0.5l-3.5,1.3l5.6,39.1c2.4,0.2,2.5,0.3,4.5-0.6L115.4,173.7"/>
<path d="M111.8,173.2l4.4,40.6"/>
</g>
</g>
</g>
<g id="Right-Shin">
<g id="Pockets_Shin_Right" class="option" style="display: inherit;">
<g id="Accent-2_Pockets-Shin_Right" style="fill: rgb(61, 61, 61);">
<path d="M53.3,182.8c-0.3-0.6-0.7-0.6-1.1-0.1l-1,10.8l1.1,0.1L53.3,182.8"/>
<path d="M59.8,184.6c-0.4-0.5-0.9-0.6-1.4-0.1L57.3,197l1.4,0.1L59.8,184.6"/>
</g>
<g id="Accent-1_Pockets-Shin_Right" style="fill: rgb(122, 122, 122);">
<path d="M55.3,180.9c-0.4-0.6-0.8-0.6-1.4-0.1l-1.1,12.5l1.4,0.1L55.3,180.9"/>
<path d="M61.5,185.4c-0.4-0.7-0.9-0.7-1.4-0.1L59,197.9l1.4,0.1L61.5,185.4"/>
</g>
<g id="Shin_Pockets-Shin_Right" style="fill: rgb(90, 71, 54);">
<path d="M57.1,186c-2.3,0.3-4.6,0.1-6.8-0.5l-1.8,22.3c2.3,0.8,3.6,1,5.8,0.5L57.1,186"/>
<path d="M63.2,186.5c-2.1,0.4-4.2,0.2-6.1-0.5l-2.7,22.3c2,0.9,3.7,1,5.8,0.5L63.2,186.5"/>
</g>
</g>
</g>
</g>
<g id="Foot">
<g id="Left-Ankle">
<g id="Basic_Ankle_Left" class="option" style="display: inherit;">
<path id="Main_Basic-Ankle_Left" d="M131.7,229.1l-7.8-13.7c-4.6-0.2-8.9,0.5-12.9,2.4c-0.4,0.2-0.7,0.5-0.8,0.9 c-0.1,0.3-0.2,0.6-0.3,0.9c-0.5,1.5,0,3.1,1.1,4.2c2.4,2.2,6.6,5.9,9.1,6.8C125.8,232.6,131.7,229.1,131.7,229.1" style="fill: rgb(80, 121, 196);"/>
<path id="Trauma-Plate_Basic-Ankle_Left" class="toggle" style="display: none; fill: rgb(255, 255, 255);" d="M124.8,217.1c-3.8-0.1-9.5,0.7-12.9,2.2l-0.3,1.1 c-0.2,0.7,0,1.5,0.5,2c2.2,2.1,6.2,5.7,8.6,6.5c3.3,1.1,8.2-0.7,10.1-1.4L124.8,217.1"/>
</g>
</g>
<g id="Left-Toe">
<g id="None_Toe_Left" class="option" style="display: inherit;">
</g>
</g>
<g id="Right-Ankle">
<g id="Basic_Ankle_Right" class="option" style="display: inherit;">
<path id="Main_Basic-Ankle_Right" d="M37.1,229.1l7.8-13.7c4.6-0.2,8.9,0.5,12.9,2.4c0.4,0.2,0.7,0.5,0.8,0.9 c0.1,0.3,0.2,0.6,0.3,0.9c0.5,1.5,0,3.1-1.1,4.2c-2.4,2.2-6.6,5.9-9.1,6.8C42.9,232.6,37.1,229.1,37.1,229.1" style="fill: rgb(80, 121, 196);"/>
<path id="Trauma-Plate_Basic-Ankle_Right" class="toggle" style="display: none; fill: rgb(255, 255, 255);" d="M43.9,217.1c3.8-0.1,9.5,0.7,12.9,2.2l0.3,1.1 c0.2,0.7,0,1.5-0.5,2c-2.2,2.1-6.2,5.7-8.6,6.5c-3.3,1.1-8.2-0.7-10.1-1.4L43.9,217.1"/>
</g>
</g>
<g id="Right-Toe">
<g id="None_Toe_Right" class="option" style="display: inherit;">
</g>
</g>
</g>
<g id="Knees">
<g id="Left-Knee">
<g id="None-(Nih-Plates)_Knee_Left" class="option" style="display: inherit;">
</g>
</g>
<g id="Right-Knee">
<g id="None-(Nih-Plates)_Knee_Right" class="option" style="display: inherit;">
</g>
</g>
</g>
<g id="Thighs">
<g id="Left-Thigh">
<g id="Heavy_Thigh_Left" class="option" style="display: inherit;">
<g id="Thigh_Heavy-Thigh_Left" style="fill: rgb(80, 121, 196);">
<path d="M97,117.7l-5.7,7.3l6.6,26.2l4.5,1.6l-3.1-29.9L97,117.7"/>
<path d="M111.6,116.1l7.1,6l-1,27l-4,2.5l-3.1-29.9L111.6,116.1"/>
<path d="M111.6,116.1L97,117.7l2.2,5.2l11.4-1.2L111.6,116.1"/>
<path d="M110.6,121.7l-11.4,1.2l3.1,29.9l11.4-1.2L110.6,121.7"/>
</g>
<g id="Trim_Heavy-Thigh_Left" style="fill: rgb(122, 122, 122);">
<path d="M112.2,113.8l-16.3,1.7l1,2.1l14.7-1.5L112.2,113.8"/>
<path d="M118.5,119.6l-6.3-5.7l-0.6,2.3l7.1,6L118.5,119.6"/>
<path d="M91,122.4l5-6.9l1,2.1l-5.7,7.3L91,122.4"/>
</g>
</g>
</g>
<g id="Right-Thigh">
<g id="Heavy_Thigh_Right" class="option" style="display: inherit;">
<g id="Thigh_Heavy-Thigh_Right" style="fill: rgb(80, 121, 196);">
<path d="M71.8,117.7l5.7,7.3L71,151.2l-4.5,1.6l3.1-29.9L71.8,117.7"/>
<path d="M57.1,116.1l-7.1,6l1,27l4,2.5l3.1-29.9L57.1,116.1"/>
<path d="M57.1,116.1l14.7,1.5l-2.2,5.2l-11.4-1.2L57.1,116.1"/>
<path d="M58.2,121.7l11.4,1.2l-3.1,29.9l-11.4-1.2L58.2,121.7"/>
</g>
<g id="Trim_Heavy-Thigh_Right" style="fill: rgb(122, 122, 122);">
<path d="M56.6,113.8l16.3,1.7l-1,2.1l-14.7-1.5L56.6,113.8"/>
<path d="M50.3,119.6l6.3-5.7l0.6,2.3l-7.1,6L50.3,119.6"/>
<path d="M77.8,122.4l-5-6.9l-1,2.1l5.7,7.3L77.8,122.4"/>
</g>
</g>
</g>
</g>
<g id="Groin">
<g id="Basic_Groin" class="option" style="display: inherit;">
<path id="Groin-Plate_Groin" d="M78.1,121.8L67.7,98.9H101l-10.4,22.9l-6.2,5.5L78.1,121.8z" style="fill: rgb(80, 121, 196);"/>
<path id="Trauma-Plating_Groin" class="toggle" style="display: none; fill: rgb(255, 255, 255);" d="M79.2,119.9L70.6,101H98l-8.6,18.9l-5.1,4.5L79.2,119.9z"/>
</g>
</g>
<g id="Waist">
<g id="Accessories_Waist">
<g id="Kama" class="toggle" style="display:none"/>
<g id="Loin-Cloth" class="toggle" style="display:none"/>
<g id="Left-Holster" class="toggle" style="display:none"/>
<g id="Right-Holster" class="toggle" style="display:none"/>
</g>
<g id="Under-Belt">
<g id="Girth-Belt" class="option" style="fill: rgb(51, 51, 51); display: inherit;">
<path d="M84.4,84.5c-9.3,0-27.8-2.2-27.8-2.2l0.6-1.9c0,0,18.1,1.5,27.2,2.2c9.1-0.8,27.2-2.2,27.2-2.2l0.6,1.9 C112.2,82.2,93.6,84.5,84.4,84.5z"/>
<path d="M84.4,86.4c-9.5,0-28.4-2.2-28.4-2.2l0.6-1.9c0,0,23.2,1.9,27.8,2.2c4.6-0.4,27.8-2.2,27.8-2.2l0.6,1.9 C112.7,84.1,93.8,86.4,84.4,86.4z"/>
<path d="M84.4,88.3c-9.6,0-28.8-2.2-28.8-2.2l0.4-1.9c0,0,23.7,1.9,28.4,2.2c4.7-0.4,28.4-2.2,28.4-2.2l0.4,1.9 C113.2,86.1,94,88.3,84.4,88.3z"/>
<path d="M84.4,90.2c-9.7,0-29.2-2.2-29.2-2.2l0.4-1.9c0,0,24,1.9,28.8,2.2c4.8-0.4,28.8-2.2,28.8-2.2l0.4,1.9 C113.5,88,94.1,90.2,84.4,90.2z"/>
<path d="M84.4,92.1c-9.8,0-29.5-2.2-29.5-2.2l0.3-1.9c0,0,24.3,1.9,29.2,2.2c4.9-0.4,29.2-2.2,29.2-2.2l0.3,1.9 C113.9,89.9,94.2,92.1,84.4,92.1z"/>
<path d="M84.4,94c-9.9,0-29.8-2.2-29.8-2.2l0.3-1.9c0,0,24.6,1.9,29.5,2.2c4.9-0.4,29.5-2.2,29.5-2.2l0.3,1.9 C114.2,91.8,94.3,94,84.4,94z"/>
<path d="M84.4,95.9c-10,0-30.1-2.2-30.1-2.2l0.3-1.9c0,0,24.8,1.9,29.8,2.2c5-0.4,29.8-2.2,29.8-2.2l0.3,1.9 C114.5,93.7,94.4,95.9,84.4,95.9z"/>
<path d="M84.4,97.8c-10.1,0-30.4-2.2-30.4-2.2l0.3-1.9c0,0,25.1,1.9,30.1,2.2c5-0.4,30.1-2.2,30.1-2.2l0.3,1.9 C114.8,95.6,94.5,97.8,84.4,97.8z"/>
<path d="M84.4,99.7c-10.3,0-30.8-2.2-30.8-2.2l0.3-1.9c0,0,25.4,1.9,30.4,2.2c5.1-0.4,30.4-2.2,30.4-2.2l0.3,1.9 C115.1,97.5,94.6,99.7,84.4,99.7z"/>
<path d="M84.4,101.6c-10.4,0-31.2-2.2-31.2-2.2l0.4-1.9c0,0,25.6,1.9,30.8,2.2c5.1-0.4,30.8-2.2,30.8-2.2l0.4,1.9 C115.5,99.4,94.8,101.6,84.4,101.6z"/>
</g>
</g>
<g id="Belt">
<g id="Pouch-Belt-4" class="option" style="display: inherit;">
<path id="Main_Pouch-Belt-4" d="M114.5,92.5c-6.8,0.6-22.3,2.8-30.1,2.8c-7.9,0-23.4-2.2-30.1-2.8l1-7.9 c5.5,0.5,21.4,2.7,29.1,2.7c7.4,0,23-2.2,28.9-2.8L114.5,92.5z" style="fill: rgb(90, 71, 54);"/>
<rect id="Buckle_Pouch-Belt-4" x="78.8" y="86.6" width="11.2" height="9.2" style="fill: rgb(163, 163, 163);"/>
<g id="Pouches_Pouch-Belt-4" style="fill: rgb(59, 59, 59);">
<g>
<g>
<path d="M59.3,83c-0.3,0-0.6,0-0.9,0.2c-0.7,0.3-1.8,0.8-1.8,0.8l7.3,0.4l2-0.9C65.8,83.5,60.8,83.1,59.3,83z"/>
<path d="M66.1,83.8c0-0.1,0-0.2-0.1-0.2c-0.1-0.1-0.2-0.1-0.2,0c-0.7,0.3-1.9,0.9-1.9,0.9l-1,12.4 c0.6-0.4,1.3-0.7,1.9-0.8c0.4-0.1,0.7-0.4,0.7-0.8C65.6,91.3,65.7,87.5,66.1,83.8z"/>
<path d="M63.8,84.4L56.5,84c-0.1,1.9-0.2,3.8-0.3,5.7c-0.1,2.1-0.2,4.2-0.3,6.3c0,0.2,0,0.3,0.1,0.4 s0.2,0.2,0.4,0.2c2.1,0,4.1,0.1,6.2,0.4c0.1,0,0.3,0,0.4-0.1s0.2-0.2,0.2-0.4c0.1-1.5,0.4-5.3,0.4-5.3L63.8,84.4z"/>
<path d="M63.8,84.4L56.5,84c0,0-0.2,1.6-0.4,3.2c-0.1,0.8,0.1,1.5,0.6,2.1c0.5,0.6,1.2,0.9,1.9,1 c0.7,0,1.5,0.1,2.2,0.1c0.8,0,1.5-0.2,2-0.7s0.9-1.2,0.9-2C63.8,86,63.8,84.4,63.8,84.4z"/>
<path d="M59.9,88.8c0.3,0,0.5,0.3,0.4,0.5c0,0.3-0.2,0.5-0.5,0.5s-0.5-0.3-0.4-0.5C59.4,89,59.6,88.8,59.9,88.8z"/>
</g>
</g>
<g>
<path d="M51.9,83.9l0.5-0.9l2.8,0.1l0.3,1.1L51.9,83.9z"/>
<path d="M55.6,84.3c0-0.1,0-0.1-0.1-0.2c0-0.1-0.1-0.1-0.2-0.1c-0.8,0-3.5-0.1-3.5-0.1l-0.5,11.2 c0.1,0.3,1.5,0.5,2.7,0.5c0.5,0,0.9-0.4,0.9-0.9C55,91.2,55.2,87.7,55.6,84.3z"/>
</g>
<g>
<g>
<path d="M109.5,83c0.3,0,0.6,0,0.9,0.2c0.7,0.3,1.8,0.8,1.8,0.8l-7.3,0.4l-2-0.9C103,83.5,107.9,83.1,109.5,83z"/>
<path d="M102.7,83.8c0-0.1,0-0.2,0.1-0.2c0.1,0,0.2-0.1,0.2,0c0.7,0.3,1.9,0.9,1.9,0.9l1,12.4 c-0.6-0.4-1.3-0.7-1.9-0.8c-0.4-0.1-0.7-0.4-0.7-0.8C103.2,91.3,103.1,87.5,102.7,83.8z"/>
<path d="M104.9,84.4l7.3-0.4c0.1,1.9,0.2,3.8,0.3,5.7c0.1,2.1,0.2,4.2,0.3,6.3c0,0.2,0,0.3-0.1,0.4 c-0.1,0.1-0.2,0.2-0.4,0.2c-2.1,0-4.1,0.1-6.2,0.4c-0.1,0-0.3,0-0.4-0.1c-0.1-0.1-0.2-0.2-0.2-0.4c-0.1-1.5-0.4-5.3-0.4-5.3 L104.9,84.4z"/>
<path d="M104.9,84.4l7.3-0.4c0,0,0.2,1.6,0.4,3.2c0.1,0.8-0.1,1.5-0.6,2.1c-0.5,0.6-1.2,0.9-1.9,1 c-0.7,0-1.5,0.1-2.2,0.1c-0.8,0-1.5-0.2-2-0.7s-0.9-1.2-0.9-2C104.9,86,104.9,84.4,104.9,84.4z"/>
<path d="M108.9,88.8c-0.3,0-0.5,0.3-0.4,0.5c0,0.3,0.2,0.5,0.5,0.5s0.5-0.3,0.4-0.5 C109.3,89,109.1,88.8,108.9,88.8z"/>
</g>
</g>
<g>
<path d="M116.9,83.9l-0.5-0.9l-2.8,0.1l-0.3,1.1L116.9,83.9z"/>
<path d="M113.2,84.3c0-0.1,0-0.1,0.1-0.2c0-0.1,0.1-0.1,0.2-0.1c0.8,0,3.5-0.1,3.5-0.1l0.5,11.2 c-0.1,0.3-1.5,0.5-2.7,0.5c-0.5,0-0.9-0.4-0.9-0.9C113.7,91.2,113.6,87.7,113.2,84.3z"/>
</g>
</g>
</g>
</g>
</g>
<g id="Extras_Front">
<g id="Front">
<g id="None_Front" class="option" style="display: inherit;">
</g>
</g>
</g>
</svg></svg>