<?xml version='1.0' encoding='UTF-8'?><svg version='1.1' xmlns='http://www.w3.org/2000/svg'><metadata><rdf:rdf xmlns:rdf="http://www.w3.org/1999/02/22-rdf-syntax-ns#" xmlns:rdfs="http://www.w3.org/2000/01/rdf-schema#" xmlns:dc="http://purl.org/dc/elements/1.1/"> <rdf:description> <dc:creator>MandoCreator</dc:creator> <dc:publisher>https://www.mandocreator.com</dc:publisher> <dc:description>Your Beskar'gam - created by MandoCreator</dc:description> <dc:format>image/svg+xml</dc:format> <dc:type>Image</dc:type> <dc:title>MandoCreator - Ner Berskar'gam</dc:title> <dc:date>2021-10-08T16:45:11.423Z</dc:date> </rdf:description> </rdf:rdf></metadata><svg version="1.1" id="Male" xmlns="http://www.w3.org/2000/svg" xmlns:xlink="http://www.w3.org/1999/xlink" x="0px" y="0px" viewBox="0 -55 169 300" style="fill: white; fill-rule: evenodd; stroke: black; stroke-width: 0.2px; pointer-events: none; position: relative; height: 100%;">
<g id="Extras_Back">
<g id="Back"><g id="NO-CAPES_Back" class="option" style="display: inherit;">
</g>
</g>
</g>
<g id="Suit">
<g id="Neck-Seal">
<g id="Standard-Neck-Seal" class="option" style="fill: rgb(0, 0, 0); display: inherit;">
<path d="M98,7.5c0-0.9-0.9-1.6-2.1-1.6c0,0-7.8,0.9-11.6,0.9c-3.9,0-11.6-0.9-11.6-0.9c-1.1,0-2.1,0.7-2.1,1.6 s0.9,1.6,2.1,1.6c0,0,7.8,0.9,11.6,0.9C88.2,10,96,9.2,96,9.2C97.1,9.2,98,8.4,98,7.5z"/>
<path d="M98.7,9.4c0-0.9-1-1.7-2.2-1.7c0,0-8.1,0.9-12.2,0.9c-4.1,0-12.2-0.9-12.2-0.9c-1.2,0-2.2,0.8-2.2,1.7 c0,0.9,1,1.7,2.2,1.7c0,0,8.1,0.9,12.2,0.9c4.1,0,12.2-0.9,12.2-0.9C97.8,11.1,98.7,10.4,98.7,9.4z"/>
<path d="M99.5,11.8c0-1-1-1.8-2.3-1.8c0,0-8.6,0.9-12.9,0.9C80,10.9,71.4,10,71.4,10c-1.3,0-2.3,0.8-2.3,1.8 s1,1.8,2.3,1.8c0,0,8.6,0.9,12.9,0.9c4.3,0,12.9-0.9,12.9-0.9C98.5,13.6,99.5,12.8,99.5,11.8z"/>
<path d="M100.3,13.9c0-1-1.1-1.9-2.4-1.9c0,0-9,1-13.5,1s-13.5-1-13.5-1c-1.3,0-2.4,0.8-2.4,1.9s1.1,1.9,2.4,1.9 c0,0,9,1,13.5,1s13.5-1,13.5-1C99.2,15.8,100.3,15,100.3,13.9z"/>
<path d="M101,16.1c0-0.8-1.1-1.4-2.5-1.4c0,0-9.4,0.7-14.2,0.7c-4.8,0-14.2-0.7-14.2-0.7c-1.4,0-2.5,0.6-2.5,1.4 c0,0.8,1.1,1.4,2.5,1.4c0,0,9.4,0.8,14.2,0.8c4.8,0,14.2-0.8,14.2-0.8C99.9,17.5,101,16.9,101,16.1z"/>
<path d="M101,18.4c0-0.8-1.1-1.4-2.5-1.4c0,0-9.4,0.7-14.2,0.7c-4.8,0-14.2-0.7-14.2-0.7c-1.4,0-2.5,0.6-2.5,1.4 c0,0.8,1.1,1.4,2.5,1.4c0,0,9.4,1.4,14.2,1.4c4.8,0,14.2-1.4,14.2-1.4C99.9,19.9,101,19.2,101,18.4z"/>
</g>
</g>
<g id="Flight-Suit" style="fill: rgb(42, 48, 51);">
<path d="M72.8,158.4l-1.5,8.7l-11,53.1c0,0-4.9,3-7.4,3.5s-7.7-0.4-7.7-0.4l3.8-43l2.9-18.4l0.7-7.8 c0,0-2.5-22.8-1.7-34.1c0.8-11.4,6.6-34,6.6-34l26.8,0.6l26.8-0.6c0,0,5.8,22.6,6.6,34c0.8,11.4-1.7,34.1-1.7,34.1l0.7,7.8 l2.9,18.4l3.8,43c0,0-5.3,1.2-7.8,0.7s-7.3-3.7-7.3-3.7l-11-53.1l-1.5-8.7l-11.6-30.3L72.8,158.4z"/>
<g>
<path d="M128.5,43.3l11.9,41.6l1,21.5l-9.5,1.8l-6-20.2l-13.6-33.9l0.7-15.5l2.3-3.7L128.5,43.3z"/>
<path d="M40.3,43.3l13.1-8.4l2.3,3.7l0.5,16L42.8,88l-6,20.2l-9.5-1.8l1-21.5L40.3,43.3z"/>
</g>
</g>
<g id="Sleeves" class="toggle" style="fill: rgb(255, 255, 255); display: none;"/>
</g>
<g id="Boots">
<g id="Tall_Boots" class="option" style="display: inherit;">
<g id="Bottom_Tall-Boot" style="fill: rgb(0, 0, 0);">
<path d="M106.9,230.3c0,0.1,0.1,0.3,0.1,0.4c1,1.8,3.6,2.4,5.3,2.8c1.3,0.3,2.5,0.7,3.7,1.2c1.6,0.7,2.5,1.9,3.8,3.1 c0.6,0.5,1.3,0.9,1.9,1.3c1.6,1,3.2,1.1,5.1,1.1c2.5,0.1,4.7-0.3,7.2-0.8c2.2-0.5,3.8-0.9,5.6-1.4c0.6-0.2,1.2-0.3,1.6-0.7 l0.3,0.6l0.2,1.6c0,0-2,1.1-4.2,1.6s-6.5,1.2-6.5,1.2l-0.3-0.7l-1,0.2v0.7l-2.4,0.1l-0.5-0.7H126l0.1,0.6c0,0-1.5,0-2.3-0.5 c-0.2-0.2-0.5-0.6-0.5-0.6l-0.6-0.3l0.1,0.6l-2-0.7l-0.1-0.8l-0.6-0.3v0.6l-1.4-1.1l-0.2-0.7l-3.1-1.6l-1.1,0.4l-2.5-0.6 l-0.1-0.5l-0.6-0.3l-0.4,0.4l-1.7-0.7v-0.5l-0.6-0.2l-0.1,0.4l-1.6-1.1L106.9,230.3z"/>
<path d="M61.9,230.3c0,0.1-0.1,0.3-0.1,0.4c-1,1.8-3.6,2.4-5.3,2.8c-1.3,0.3-2.5,0.7-3.7,1.2 c-1.6,0.7-2.5,1.9-3.8,3.1c-0.6,0.5-1.3,0.9-1.9,1.3c-1.6,1-3.2,1.1-5.1,1.1c-2.5,0.1-4.7-0.3-7.2-0.8c-2.2-0.5-3.8-0.9-5.6-1.4 c-0.6-0.2-1.2-0.3-1.6-0.7l-0.3,0.6l-0.2,1.6c0,0,2,1.1,4.2,1.6c2.1,0.5,6.5,1.2,6.5,1.2l0.3-0.7l1,0.2v0.7l2.4,0.1l0.5-0.7h0.8 l-0.1,0.6c0,0,1.5,0,2.3-0.5c0.2-0.2,0.5-0.6,0.5-0.6l0.6-0.3l-0.1,0.6l2-0.7l0.1-0.8l0.6-0.3v0.6l1.4-1.1l0.2-0.7l3.1-1.6 l1.1,0.4l2.5-0.6l0.1-0.5l0.6-0.3l0.4,0.4l1.7-0.7v-0.5l0.6-0.2l0.1,0.4l1.6-1.1L61.9,230.3z"/>
</g>
<g id="Main_Tall-Boot" style="fill: rgb(42, 48, 51);">
<path d="M106.9,216.9c-1.4-4.2-2.5-11-3.4-14.1c-0.6-2.3-3.6-14.9-3.1-16.4c0.5-1.6,19.5-4.9,20.2-3.4 c0.9,2.2,2,24,2.2,27.2c0.1,2.3,0.5,4.7,0.5,7c0.2,1.3,0.5,2.7,1,3.8c1,2.2,1,3.1,2.6,4.7c1.2,1.1,4.1,3.1,5.5,4 c0.6,0.4,1.2,0.6,1.8,0.9h0.1c2.5,0.9,5.3,1.3,6.6,4.1c0.3,0.6,0.6,1.3,0.5,2c-0.1,0.9-1,1-1.8,1.2c-1.9,0.5-3.5,0.9-5.6,1.4 c-2.5,0.6-4.7,0.9-7.2,0.8c-1.9-0.1-3.5-0.1-5.1-1.1c-0.7-0.4-1.3-0.8-1.9-1.3c-1.3-1.2-2.1-2.4-3.8-3.1 c-1.2-0.5-2.4-0.9-3.7-1.2c-1.8-0.4-4.4-1-5.3-2.8c-0.4-1.3,0-2,0.1-3.1l0.1-0.5c0.1-0.7,0.2-1.5,0.3-2.3 c0.1-1.5-0.3-3.1-0.4-4.6c-0.1-0.9-0.1-1.7-0.1-2.6C106.9,217.4,106.8,217.1,106.9,216.9z"/>
<path d="M61.9,216.9c1.4-4.2,2.5-11,3.4-14.1c0.6-2.3,3.6-14.9,3.1-16.4c-0.5-1.6-19.5-4.9-20.2-3.4 c-0.9,2.2-2,24-2.2,27.2c-0.1,2.3-0.5,4.7-0.5,7c-0.2,1.3-0.5,2.7-1,3.8c-1,2.2-1,3.1-2.6,4.7c-1.2,1.1-4.1,3.1-5.5,4 c-0.6,0.4-1.2,0.6-1.8,0.9h-0.1c-2.5,0.9-5.3,1.3-6.6,4.1c-0.3,0.6-0.6,1.3-0.5,2c0.1,0.9,1,1,1.8,1.2c1.9,0.5,3.5,0.9,5.6,1.4 c2.5,0.6,4.7,0.9,7.2,0.8c1.9-0.1,3.5-0.1,5.1-1.1c0.7-0.4,1.3-0.8,1.9-1.3c1.3-1.2,2.1-2.4,3.8-3.1c1.2-0.5,2.4-0.9,3.7-1.2 c1.8-0.4,4.4-1,5.3-2.8c0.4-1.3,0-2-0.1-3.1l-0.1-0.5c-0.1-0.7-0.2-1.5-0.3-2.3c-0.1-1.5,0.3-3.1,0.4-4.6 c0.1-0.9,0.1-1.7,0.1-2.6C61.9,217.4,61.9,217.1,61.9,216.9z"/>
</g>
</g>
</g>
<g id="Gloves">
<g id="Left-Glove">
<g id="Basic_Left_Glove" class="option" style="fill: rgb(42, 48, 51); display: inherit;">
<path d="M137.6,124.1c-0.5,0-1,0-1.6,0.1c-0.4,0.1-0.7,0.2-1,0.3c-1,0.6-0.7,1.8,0.2,2.3c1,0.6,2.6,0,3.1-1.1 C138.5,125.3,137.9,124.5,137.6,124.1"/>
<path d="M135.8,125.2c-0.5,0-1,0-1.6,0.1c-0.4,0.1-0.7,0.2-1,0.3c-1,0.6-0.7,1.8,0.2,2.3c1,0.5,2.6,0,3.1-1.1 C136.7,126.4,136.1,125.6,135.8,125.2"/>
<path d="M134.5,126.6c-0.5,0-1.2,0.1-1.7,0.3c-0.3,0.1-0.7,0.3-1,0.5c-0.9,0.7-0.5,1.9,0.5,2.2 c1.1,0.4,2.6-0.3,2.9-1.5C135.4,127.7,134.5,126.6,134.5,126.6z"/>
<path d="M131.6,110c0,0-1.6,2.1-2,3.7c-0.3,1.1-0.1,3.7-0.5,5.4c-0.4,1.7-0.7,2.7-0.7,2.7s-1.4,2.8-1.1,3.4 c0.2,0.6,1.4,1.2,2.1,0.9c0.9-0.4,1.9-2.4,2.6-3.8c0.7-1.4,1.2-3.4,1.2-3.4s0.9,0.3,1.4,0.7c1.6,1.2,0.9,5,0.9,5 s-0.7,1.3-1.7,2.8c-1.4,2-3.4,3.8-2.1,5.4c1.3,1.5,4.2-2.4,4.2-2.4l2.9-3.7c0,0,3.3-5.4,3.4-6.5c0.1-0.8,0-3.5,0-3.5l-1-10.4 l-5.2,0.4l-4.3,1.4L131.6,110"/>
</g>
</g>
<g id="Right-Glove">
<g id="Basic_Right_Glove" class="option" style="fill: rgb(42, 48, 51); display: inherit;">
<path d="M31.1,124.1c0.5,0,1,0,1.6,0.1c0.4,0.1,0.7,0.2,1,0.3c1,0.6,0.7,1.8-0.2,2.3c-1,0.6-2.6,0-3.1-1.1 C30.3,125.3,30.9,124.5,31.1,124.1"/>
<path d="M32.9,125.2c0.5,0,1,0,1.6,0.1c0.4,0.1,0.7,0.2,1,0.3c1,0.6,0.7,1.8-0.2,2.3c-1,0.5-2.6,0-3.1-1.1 C32.1,126.4,32.7,125.6,32.9,125.2"/>
<path d="M34.2,126.6c0.5,0,1.2,0.1,1.7,0.3c0.3,0.1,0.7,0.3,1,0.5c0.9,0.7,0.5,1.9-0.5,2.2c-1.1,0.4-2.6-0.3-2.9-1.5 C33.3,127.7,34.2,126.6,34.2,126.6z"/>
<path d="M37.1,110c0,0,1.5,2.1,2,3.7c0.3,1.1,0.1,3.7,0.5,5.4c0.4,1.7,0.7,2.7,0.7,2.7s1.4,2.8,1.1,3.4 c-0.2,0.6-1.4,1.2-2.1,0.9c-0.9-0.4-1.9-2.4-2.6-3.8c-0.7-1.4-1.2-3.4-1.2-3.4s-0.9,0.3-1.4,0.7c-1.6,1.2-0.9,5-0.9,5 s0.7,1.3,1.7,2.8c1.4,2,3.4,3.8,2.1,5.4c-1.3,1.5-4.2-2.4-4.2-2.4l-2.9-3.7c0,0-3.3-5.4-3.4-6.5c-0.1-0.8,0-3.5,0-3.5l1-10.4 l5.2,0.4l4.3,1.4L37.1,110"/>
</g>
</g>
</g>
<g id="Biceps">
<g id="Left-Biceps">
<g id="None_Biceps_Left" class="option" style="display: inherit;">
</g>
</g>
<g id="Right-Biceps">
<g id="None_Biceps_Right" class="option" style="display: inherit;">
</g>
</g>
</g>
<g id="Vest" style="fill: rgb(57, 63, 74);">
<path d="M84.4,20.9c8.4,0,15.3-4.3,15.5-8h0.1l18.3,5.4l13.2,23.9l-2.8,1.2l-13.3-8.6l-2.3,3.7l-1.5,47.4 c0,0-8.7,4.7-13.4,5.3c-3.4,0.5-8.6,0.7-13.7,0.7s-10.3-0.2-13.7-0.7c-4.8-0.6-13.4-5.3-13.4-5.3l-1.5-47.4l-2.3-3.7l-13.3,8.6 l-2.8-1.2l13.2-23.9L69,12.9h0.1C69,16.6,75.9,20.9,84.4,20.9"/>
</g>
<g class="swappable" id="Chest">
<g id="Chest_Gunslinger" style="visibility: visible;">
<g id="Abdomen_Gunslinger">
<g id="Left_Abdomen_Gunslinger" style="fill: rgb(57, 85, 110);">
<path d="M98.4,74l7.2-13l-3.7-5.3l-0.3-0.6l-4.1,0.5l-1.7,20L98.4,74"/>
<path d="M98.4,74l7.2-13l1.9,2.7l2.5-2l-0.7,8.9L98.4,74"/>
</g>
<g id="Right_Abdomen_Gunslinger" style="fill: rgb(57, 85, 110);">
<path d="M70.5,74l-7.2-13l-1.9,2.7l-2.5-2l0.7,8.9L70.5,74"/>
<path d="M70.5,74l-7.2-13l3.7-5.3l0.3-0.6l4.1,0.5l1.7,20L70.5,74"/>
</g>
<path id="Center_Abdomen_Gunslinger" d="M84.5,51.4l13,4.3l-1.7,20l-2,1.2l-9.4-0.5L75,76.9l-2-1.2l-1.7-20 L84.5,51.4" style="fill: rgb(0, 133, 255);"/>
</g>
<g id="Chest-Plates_Gunslinger">
<g id="Left-Chest_Gunslinger" style="fill: rgb(51, 48, 181);">
<path d="M85.2,28.9v-3.1l2.5-2.5l24.2-2.8l2.2,13.5l-3.6,27.2l-3,2.4l-5.6-8l-1.6-3.4l-15-4.6l3.9-3.9V32.5 L85.2,28.9"/>
<path d="M100.3,52.4l11.1-6.5l2.8-11.7l-2.4,12.6l-9.8,9L100.3,52.4"/>
<path d="M101.6,55.1l-4.1,0.5l-13-4.3v-3.8l15.9,4.8L101.6,55.1"/>
</g>
<g id="Right-Chest_Gunslinger" style="fill: rgb(51, 48, 181);">
<path d="M83.7,28.9v-3.1l-2.5-2.5L57,20.6l-2.2,13.5l3.6,27.2l3,2.4l5.6-8l1.6-3.4l15-4.6l-3.9-3.9V32.5L83.7,28.9"/>
<path d="M68.6,52.4l-11.1-6.5l-2.8-11.7l2.4,12.6l9.8,9L68.6,52.4"/>
<path d="M67.3,55.1l4.1,0.5l13-4.3v-3.8l-15.9,4.8L67.3,55.1"/>
</g>
</g>
<g id="Iron-Heart_Gunslinger">
<path id="Under-Heart_Gunslinger" d="M83.6,47.8l-3.9-3.9V32.5l4-3.6v-3.1h1.5v3.1l4,3.6v11.4l-3.9,3.9l-0.8-0.2 L83.6,47.8" style="fill: rgb(0, 133, 255);"/>
<path id="Heart_Gunslinger" d="M81.6,42.9v-9.4l2.9-2.9l2.9,2.9v9.4l-2.9,2.9L81.6,42.9" style="fill: rgb(0, 133, 255);"/>
<rect id="Center_Heart_Gunslinger" class="option" x="83.6" y="34.1" width="1.7" height="8.2" style="fill: rgb(0, 133, 255); display: inherit;"/>
</g>
</g>
</g>
<g id="Chest-Attachments">
<g id="No-Device_Accessories_Chest" class="option" style="display: inherit;">
</g>
</g>
<g id="Collar">
<g id="None_Collar" class="option" style="display: inherit;">
</g>
</g>
<svg version="1.1" id="Helmets" xmlns="http://www.w3.org/2000/svg" y="-54px" height="85px" viewBox="0 0 80 80" class="swappable">
<g id="Helmet_Neo" style="visibility: visible;">
<g id="Mask-Of-Mandalor_Neo">
<g id="Mask-Of-Mandalor_Neo" class="toggle" style="display:none"/>
</g>
<g id="Helmet_Pieces_Neo">
<path id="Main_Neo" d="M14.2,71.1l-1.4-3.8c0,0,9.1-2.5,11.5-16.7c0.4-2.2,1.2-17.4,1.2-20.8c0-7,5.9-13.1,14.4-13.1 c8.7,0,14.4,6.1,14.4,13.1c0,3.4,0.9,18.6,1.2,20.8C57.9,64.7,67,67.3,67,67.3l-1.4,3.8H14.2z" style="fill: rgb(51, 48, 181);"/>
<path id="Stripe_Neo" d="M31.3,28.2v-9c0,0,2.8-2.5,8.7-2.6c5.8,0,8.7,2.5,8.7,2.5v9.1c-2.4-2-5.5-3.6-8.7-3.6 c-0.4,0-0.8,0-1.3,0.1c-2.4,0.3-4.6,1.4-6.5,2.8C31.9,27.8,31.6,28,31.3,28.2z" style="fill: rgb(0, 133, 255);"/>
<path id="Chin-2_Neo" d="M40,78l-25.7-6.9c7.7-1.8,11.2-7.9,11.2-14.3s1-20.2,1-20.2h27.1c0,0,1,13.7,1,20.2 S58,69.3,65.8,71.1L40,78z" style="fill: rgb(57, 85, 110);"/>
<g id="Chin-1_Neo" style="fill: rgb(0, 133, 255);">
<path d="M46.3,61.9H33.7c0,0-6.2-10.4-6.7-21.5c2.9,11.1,13,18.8,13,18.8s10.1-7.6,12.9-18.8 C52.5,51.5,46.3,61.9,46.3,61.9z"/>
<path d="M33.1,64.5L32.5,67h15l-0.6-2.6L33.1,64.5L33.1,64.5z"/>
<path d="M33.7,61.9l-0.6,2.6h13.8l-0.6-2.6H33.7z"/>
<path d="M32.5,67l-0.6,2.6h16.2L47.5,67H32.5z"/>
<path d="M31.9,69.6l-0.6,2.6h17.4l-0.6-2.6H31.9z"/>
<path d="M31.3,72.1l-0.6,2.6h18.6l-0.6-2.6H31.3z"/>
<path d="M30.7,74.7l-0.2,0.7L40,78l9.5-2.5l-0.2-0.7H30.7V74.7z"/>
<rect x="39.3" y="61.9" width="1.3" height="16.1"/>
</g>
<path id="Face_Neo" d="M40,24.5c7.2,0,13.8,8.2,13.6,12.5C52.8,51.5,40,61.9,40,61.9s-12.8-10.4-13.6-25 C26.2,32.7,32.8,24.5,40,24.5z" style="fill: rgb(51, 48, 181);"/>
<path id="Visor_Neo" d="M39.2,55.8l-2-17.6l-8.7-1.6l-0.3-1.1c3.7-1.9,7.8-2.3,11.7-2.3s8.1,0.5,11.7,2.3l-0.3,1.1 l-8.7,1.6l-2,17.6H39.2z" style="fill: rgb(0, 0, 0);"/>
</g>
</g>
</svg>
<g id="Shoulders">
<g id="Left-Shoulder">
<g id="Classic_Shoulder_Left" class="option" style="display: inherit;">
<path id="Main_Shoulder_Classic_Left" d="M116.5,13.4L114,24.8l2,6.5l13.4,6.8l2.3-3.5L116.5,13.4" style="fill: rgb(51, 48, 181);"/>
<path id="Trauma-Plates_Shoulder_Classic_Left" class="toggle" style="display: none; fill: rgb(255, 255, 255);" d="M115.7,24.7l1.7,5.4l11.4,5.8l1.9-3l-12.8-18 L115.7,24.7"/>
</g>
</g>
<g id="Right-Shoulder">
<g id="Classic_Shoulder_Right" class="option" style="display: inherit;">
<path id="Main_Shoulder_Classic_Right" d="M52.5,13.4L55,24.8l-2,6.5l-13.4,6.8l-2.3-3.5L52.5,13.4" style="fill: rgb(51, 48, 181);"/>
<path id="Trauma-Plates_Shoulder_Classic_Right" class="toggle" style="display: none; fill: rgb(255, 255, 255);" d="M53.2,24.7l-1.7,5.4l-11.4,5.8l-1.9-3l12.8-18 L53.2,24.7"/>
</g>
</g>
</g>
<g id="Gauntlets">
<g id="Left-Gauntlets">
<g id="Gunslinger_Gauntlet_Left" class="option" style="display: inherit;">
<g id="Accent-Top_Gunslinger_Gauntlet_Left" style="fill: rgb(0, 133, 255);">
<path d="M139,79.8l0.6,5.6l-2.8,0.8l-0.7-5.3L139,79.8"/>
<path d="M137.7,100.6l0.6,2.9l-2.5,0.5l-0.6-2.9L137.7,100.6"/>
</g>
<path id="Top_Gunslinger_Gauntlet_Left" d="M139,79.8l1.3-0.5l2.3,26.3l-6.2,1.3l-0.8-4.1l0.2,1.2l2.5-0.5l-0.6-2.9 l-2.5,0.5l-3.8-18.5L139,79.8l-2.9,1.1l0.7,5.3l2.8-0.8L139,79.8" style="fill: rgb(51, 48, 181);"/>
<g id="Accent-Bottom_Gunslinger_Gauntlet_Left" style="fill: rgb(0, 133, 255);">
<path d="M127.7,91.2l-0.7-2.3l-1.6,0.5l0.7,2.3L127.7,91.2"/>
<path d="M128.6,93.8l-0.7-2.3l-1.6,0.5l0.7,2.3L128.6,93.8"/>
<path d="M135.2,101.2l-5.6,1.2l0.9,2.8l5.3-1.1L135.2,101.2"/>
</g>
<path id="Bottom_Gunslinger_Gauntlet_Left" d="M135.7,103.6l-0.5-2.4l-5.6,1.2l0.9,2.8l5.3-1.1l0.6,2.9 c0,0-2,0.3-3.4,0.6c-0.9,0.2-1.8-0.4-2.1-1.3c-1.6-4.8-6.3-19.4-6.3-19.4l6.8-3.8L135.7,103.6 M128.6,93.8l-0.7-2.3l-1.6,0.5 l0.7,2.3L128.6,93.8 M127.7,91.2l-0.7-2.3l-1.6,0.5l0.7,2.3L127.7,91.2" style="fill: rgb(51, 48, 181);"/>
<g id="No-Device_Attachment_Gunslinger_Gauntlet_Left" class="option" style="display: inherit;">
</g>
</g>
</g>
<g id="Right-Gauntlets">
<g id="Gunslinger_Gauntlet_Right" class="option" style="display: inherit;">
<g id="Accent-Top_Gunslinger_Gauntlet_Right" style="fill: rgb(0, 133, 255);">
<path d="M30,79.8l-0.6,5.6l2.8,0.8l0.7-5.3L30,79.8"/>
<path d="M31.4,100.6l-0.6,2.9l2.5,0.5l0.6-2.9L31.4,100.6"/>
</g>
<path id="Top_Gunslinger_Gauntlet_Right" d="M30,79.8l-1.3-0.5l-2.3,26.3l6.2,1.3l0.8-4.1l-0.2,1.2l-2.5-0.5l0.6-2.9 l2.5,0.5l3.8-18.5L30,79.8l2.9,1.1l-0.7,5.3l-2.8-0.8L30,79.8" style="fill: rgb(51, 48, 181);"/>
<g id="Accent-Bottom_Gunslinger_Gauntlet_Right" style="fill: rgb(0, 133, 255);">
<path d="M41.3,91.2l0.7-2.3l1.6,0.5l-0.7,2.3L41.3,91.2"/>
<path d="M40.5,93.8l0.7-2.3l1.6,0.5l-0.7,2.3L40.5,93.8"/>
<path d="M33.9,101.2l5.6,1.2l-0.9,2.8l-5.3-1.1L33.9,101.2"/>
</g>
<path id="Bottom_Gunslinger_Gauntlet_Right" d="M33.4,103.6l0.5-2.4l5.6,1.2l-0.9,2.8l-5.3-1.1l-0.6,2.9 c0,0,2,0.3,3.4,0.6c0.9,0.2,1.8-0.4,2.1-1.3c1.6-4.8,6.3-19.4,6.3-19.4l-6.8-3.8L33.4,103.6 M40.5,93.8l0.7-2.3l1.6,0.5l-0.7,2.3 L40.5,93.8 M41.3,91.2l0.7-2.3l1.6,0.5l-0.7,2.3L41.3,91.2" style="fill: rgb(51, 48, 181);"/>
<g id="No-Device_Attachment_Gunslinger_Gauntlet_Right" class="option" style="display: inherit;">
</g>
</g>
</g>
</g>
<g id="Shins">
<g id="Left-Shin">
<g id="Basic-Shnees_Shin_Left" class="option" style="display: inherit;">
<path id="Shin_Basic-Shnees-Shin_Left" d="M99.3,162.6c-0.2-2.2,1.3-4.1,3.5-4.4c2.7-0.3,6.2-0.8,8.8-1.1 c2.1-0.3,4.1,1.1,4.5,3.2c0.9,4.6,2.4,11.9,3.6,11.7l4.9,46.1l-9.9,1.2l-3.1,3.5l-4.6-0.9l-9.5-47 C100,174.6,99.7,167.2,99.3,162.6" style="fill: rgb(51, 48, 181);"/>
<g id="Straps_Basic-Shnees-Shin_Left" class="toggle" style="fill: rgb(0, 133, 255);">
<path d="M98.6,182.1l5.1-0.9l0.5,2.3l-5.1,0.9L98.6,182.1"/>
<path d="M99,181.8l1.1-0.2l0.6,2.8l-1.1,0.2L99,181.8"/>
<path d="M103.2,204.8l5.1-0.9l0.5,2.3l-5.1,0.9L103.2,204.8"/>
<path d="M103.6,204.5l1.1-0.2l0.6,2.8l-1.1,0.2L103.6,204.5"/>
</g>
<g id="Accent_Basic-Shnees-Shin_Left" class="toggle" style="fill: rgb(0, 133, 255);">
<path d="M111.4,156.8l-3.8-0.3l-3.8,1.1l11.5,61.6l4.6-0.6L111.4,156.8"/>
<path d="M107.7,156.6l10.2,62.3"/>
</g>
</g>
</g>
<g id="Right-Shin">
<g id="Basic-Shnees_Shin_Right" class="option" style="display: inherit;">
<path id="Shin_Basic-Shnees-Shin_Right" d="M69.5,162.6c0.2-2.2-1.3-4.1-3.5-4.4c-2.7-0.3-6.2-0.8-8.8-1.1 c-2.1-0.3-4.1,1.1-4.5,3.2c-0.9,4.6-2.4,11.9-3.6,11.7l-4.9,46.1l9.9,1.2l3.1,3.5l4.6-0.9l9.5-47 C68.8,174.6,69.1,167.2,69.5,162.6" style="fill: rgb(51, 48, 181);"/>
<g id="Straps_Basic-Shnees-Shin_Right" class="toggle" style="fill: rgb(0, 133, 255);">
<path d="M70.1,182.1l-5.1-0.9l-0.5,2.3l5.1,0.9L70.1,182.1"/>
<path d="M69.8,181.8l-1.1-0.2l-0.6,2.8l1.1,0.2L69.8,181.8"/>
<path d="M65.5,204.8l-5.1-0.9l-0.5,2.3l5.1,0.9L65.5,204.8"/>
<path d="M65.2,204.5l-1.1-0.2l-0.6,2.8l1.1,0.2L65.2,204.5"/>
</g>
<g id="Accent_Basic-Shnees-Shin_Right" class="toggle" style="fill: rgb(0, 133, 255);">
<path d="M57.3,156.8l3.8-0.3l3.8,1.1l-11.5,61.6l-4.6-0.6L57.3,156.8"/>
<path d="M61.1,156.6l-10.2,62.3"/>
</g>
</g>
</g>
</g>
<g id="Foot">
<g id="Left-Ankle">
<g id="None_Ankle_Left" class="option" style="display: inherit;">
</g>
</g>
<g id="Left-Toe">
<g id="Armored_Toe_Left" class="option" style="display: inherit;">
<g id="Plate_Armored_Toe_Left" style="fill: rgb(51, 48, 181);">
<path d="M118.3,232.6l9.6,5.3l7.2,0.5l5.8-1.5c1.2-1,1.7-3.3,0.7-5.5l-8.2-3.9l-6.4,1.7L118.3,232.6"/>
<path d="M126.3,229.4c0,0,7.5,2.2,8.4,3.5c1,1.4,0.4,5.5,0.4,5.5"/>
</g>
<g id="Trim_Armored_Toe_Left" style="fill: rgb(0, 133, 255);">
<path d="M132.3,226.9l-7.7,1.9l-6.5,3.9l1.3,0.7l6.9-4l7.6-1.8L132.3,226.9"/>
<path d="M124.6,228.8l1.7,0.7"/>
</g>
</g>
</g>
<g id="Right-Ankle">
<g id="None_Ankle_Right" class="option" style="display: inherit;">
</g>
</g>
<g id="Right-Toe">
<g id="Armored_Toe_Right" class="option" style="display: inherit;">
<g id="Plate_Armored_Toe_Right" style="fill: rgb(51, 48, 181);">
<path d="M50.5,232.6l-9.6,5.3l-7.2,0.5l-5.8-1.5c-1.2-1-1.7-3.3-0.7-5.5l8.2-3.9l6.4,1.6L50.5,232.6"/>
<path d="M42.4,229.4c0,0-7.5,2.2-8.4,3.5c-1,1.4-0.4,5.5-0.4,5.5"/>
</g>
<g id="Trim_Armored_Toe_Right" style="fill: rgb(0, 133, 255);">
<path d="M36.5,226.9l7.7,1.9l6.5,3.9l-1.3,0.7l-6.9-4l-7.6-1.8L36.5,226.9"/>
<path d="M44.2,228.8l-1.7,0.7"/>
</g>
</g>
</g>
</g>
<g id="Knees">
<g id="Left-Knee">
<g id="None-(Nih-Plates)_Knee_Left" class="option" style="display: inherit;">
</g>
</g>
<g id="Right-Knee">
<g id="None-(Nih-Plates)_Knee_Right" class="option" style="display: inherit;">
</g>
</g>
</g>
<g id="Thighs">
<g id="Left-Thigh">
<g id="Heavy_Thigh_Left" class="option" style="display: inherit;">
<g id="Thigh_Heavy-Thigh_Left" style="fill: rgb(51, 48, 181);">
<path d="M97,117.7l-5.7,7.3l6.6,26.2l4.5,1.6l-3.1-29.9L97,117.7"/>
<path d="M111.6,116.1l7.1,6l-1,27l-4,2.5l-3.1-29.9L111.6,116.1"/>
<path d="M111.6,116.1L97,117.7l2.2,5.2l11.4-1.2L111.6,116.1"/>
<path d="M110.6,121.7l-11.4,1.2l3.1,29.9l11.4-1.2L110.6,121.7"/>
</g>
<g id="Trim_Heavy-Thigh_Left" style="fill: rgb(0, 133, 255);">
<path d="M112.2,113.8l-16.3,1.7l1,2.1l14.7-1.5L112.2,113.8"/>
<path d="M118.5,119.6l-6.3-5.7l-0.6,2.3l7.1,6L118.5,119.6"/>
<path d="M91,122.4l5-6.9l1,2.1l-5.7,7.3L91,122.4"/>
</g>
</g>
</g>
<g id="Right-Thigh">
<g id="Basic_Thigh_Right" class="option" style="display: inherit;">
<path id="Thigh_Basic-Thigh_Right" d="M49.3,115.2c0,0,5-6.4,7.5-7.5c2.4-1,5.7-0.6,7.7,1.1 c3.2,2.5,10.4,8,11.3,14.2c0.9,6.8-4.1,21.9-5.7,26.8c-0.6,1.7-2.7,2.4-4.4,2.5c-3.1,0.1-11.5-0.1-13.5-4.7 C49.5,141.3,49.3,115.2,49.3,115.2" style="fill: rgb(51, 48, 181);"/>
<path id="Trauma-Plate_Basic-Thigh_Right" class="toggle" style="display: none; fill: rgb(255, 255, 255);" d="M51,115.7c0.7-0.9,2.5-3.1,4.3-4.8c0.8-0.8,1.6-1.5,2.2-1.7 c1.9-0.8,4.4-0.4,6,0.8c1.8,1.5,5.1,4,7.6,7c1.5,1.8,2.8,3.9,3,6.1c0.9,6.6-4,21.3-5.7,26c-0.1,0.4-0.5,0.7-0.9,0.9 c-0.6,0.3-1.3,0.4-1.9,0.5c-1.7,0.1-5.2,0-8.2-1c-1.6-0.5-3.1-1.3-3.7-2.7c-0.8-1.8-1.3-5.2-1.7-9.2 C51.2,129.1,51.1,118.4,51,115.7"/>
<g id="Ridge_Basic-Thigh_Right" class="toggle" style="fill: rgb(0, 133, 255);">
<path d="M57.8,107.1l3.5-0.9l3.6,2l-1.2,44c-2.4,0.5-2.4,0.5-4.5-0.1L57.8,107.1"/>
<path d="M61.2,106.2l0.1,46.3"/>
</g>
</g>
</g>
</g>
<g id="Groin">
<g id="None_Groin" class="option" style="display: inherit;">
</g>
</g>
<g id="Waist">
<g id="Accessories_Waist">
<g id="Kama" class="toggle" style="display:none"/>
<g id="Loin-Cloth" class="toggle" style="display:none"/>
<g id="Left-Holster" class="toggle" style="display:none"/>
<g id="Right-Holster" class="toggle" style="display:none"/>
</g>
<g id="Under-Belt">
<g id="Girth-Belt" class="option" style="fill: rgb(42, 48, 51); display: inherit;">
<path d="M84.4,84.5c-9.3,0-27.8-2.2-27.8-2.2l0.6-1.9c0,0,18.1,1.5,27.2,2.2c9.1-0.8,27.2-2.2,27.2-2.2l0.6,1.9 C112.2,82.2,93.6,84.5,84.4,84.5z"/>
<path d="M84.4,86.4c-9.5,0-28.4-2.2-28.4-2.2l0.6-1.9c0,0,23.2,1.9,27.8,2.2c4.6-0.4,27.8-2.2,27.8-2.2l0.6,1.9 C112.7,84.1,93.8,86.4,84.4,86.4z"/>
<path d="M84.4,88.3c-9.6,0-28.8-2.2-28.8-2.2l0.4-1.9c0,0,23.7,1.9,28.4,2.2c4.7-0.4,28.4-2.2,28.4-2.2l0.4,1.9 C113.2,86.1,94,88.3,84.4,88.3z"/>
<path d="M84.4,90.2c-9.7,0-29.2-2.2-29.2-2.2l0.4-1.9c0,0,24,1.9,28.8,2.2c4.8-0.4,28.8-2.2,28.8-2.2l0.4,1.9 C113.5,88,94.1,90.2,84.4,90.2z"/>
<path d="M84.4,92.1c-9.8,0-29.5-2.2-29.5-2.2l0.3-1.9c0,0,24.3,1.9,29.2,2.2c4.9-0.4,29.2-2.2,29.2-2.2l0.3,1.9 C113.9,89.9,94.2,92.1,84.4,92.1z"/>
<path d="M84.4,94c-9.9,0-29.8-2.2-29.8-2.2l0.3-1.9c0,0,24.6,1.9,29.5,2.2c4.9-0.4,29.5-2.2,29.5-2.2l0.3,1.9 C114.2,91.8,94.3,94,84.4,94z"/>
<path d="M84.4,95.9c-10,0-30.1-2.2-30.1-2.2l0.3-1.9c0,0,24.8,1.9,29.8,2.2c5-0.4,29.8-2.2,29.8-2.2l0.3,1.9 C114.5,93.7,94.4,95.9,84.4,95.9z"/>
<path d="M84.4,97.8c-10.1,0-30.4-2.2-30.4-2.2l0.3-1.9c0,0,25.1,1.9,30.1,2.2c5-0.4,30.1-2.2,30.1-2.2l0.3,1.9 C114.8,95.6,94.5,97.8,84.4,97.8z"/>
<path d="M84.4,99.7c-10.3,0-30.8-2.2-30.8-2.2l0.3-1.9c0,0,25.4,1.9,30.4,2.2c5.1-0.4,30.4-2.2,30.4-2.2l0.3,1.9 C115.1,97.5,94.6,99.7,84.4,99.7z"/>
<path d="M84.4,101.6c-10.4,0-31.2-2.2-31.2-2.2l0.4-1.9c0,0,25.6,1.9,30.8,2.2c5.1-0.4,30.8-2.2,30.8-2.2l0.4,1.9 C115.5,99.4,94.8,101.6,84.4,101.6z"/>
</g>
</g>
<g id="Belt">
<g id="Pouch-Belt-Full" class="option" style="display: inherit;">
<path id="Main_Pouch-Belt-Full" d="M114.5,92.5c-6.8,0.6-22.3,2.8-30.1,2.8c-7.9,0-23.4-2.2-30.1-2.8l1-7.9 c5.5,0.5,21.4,2.7,29.1,2.7c7.4,0,23-2.2,28.9-2.8L114.5,92.5z" style="fill: rgb(42, 48, 51);"/>
<g id="Pouches_Pouch-Belt-Full" style="fill: rgb(57, 85, 110);">
<g>
<g>
<g>
<path d="M70.3,84.6c-0.3,0-0.6,0-0.8,0.1c-0.7,0.3-2.1,0.8-2.1,0.8l8,0.5l2.2-0.9C77.6,85,72,84.7,70.3,84.6z"/>
<path d="M77.9,85.3c0-0.1,0-0.2-0.1-0.2c-0.1-0.1-0.2-0.1-0.2,0c-0.7,0.3-2.1,0.9-2.1,0.9l-1,12.4 c0.7-0.4,1.4-0.7,2.1-0.8c0.4-0.1,0.7-0.4,0.7-0.8C77.4,92.9,77.5,89.1,77.9,85.3z"/>
<path d="M75.4,86l-8-0.5c0,1.9-0.2,3.8-0.3,5.7c-0.1,2.1-0.2,4.2-0.3,6.3c0,0.2,0,0.3,0.1,0.4s0.2,0.2,0.4,0.2 c2.3,0,4.6,0.1,6.9,0.4c0.1,0,0.3,0,0.4-0.1s0.2-0.2,0.2-0.4c0.1-1.5,0.4-5.3,0.4-5.3L75.4,86z"/>
<path d="M75.4,86l-8-0.5c0,0-0.2,1.6-0.4,3.1c-0.1,0.8,0.1,1.5,0.6,2.1c0.5,0.6,1.2,0.9,1.9,1 c0.9,0.1,2,0.1,3,0.2c0.8,0,1.5-0.2,2.1-0.8c0.5-0.5,0.9-1.3,0.9-2C75.4,87.6,75.4,86,75.4,86z"/>
<path d="M71.2,90.3c0.3,0,0.5,0.3,0.5,0.5c0,0.3-0.3,0.5-0.5,0.5c-0.3,0-0.5-0.3-0.5-0.5 C70.6,90.5,70.9,90.3,71.2,90.3z"/>
</g>
</g>
<g>
<g>
<path d="M59.3,83c-0.3,0-0.6,0-0.9,0.2c-0.7,0.3-1.8,0.8-1.8,0.8l7.3,0.4l2-0.9C65.8,83.5,60.8,83.1,59.3,83z"/>
<path d="M66.1,83.8c0-0.1,0-0.2-0.1-0.2c-0.1-0.1-0.2-0.1-0.2,0c-0.7,0.3-1.9,0.9-1.9,0.9l-1,12.4 c0.6-0.4,1.3-0.7,1.9-0.8c0.4-0.1,0.7-0.4,0.7-0.8C65.6,91.3,65.7,87.5,66.1,83.8z"/>
<path d="M63.8,84.4L56.5,84c-0.1,1.9-0.2,3.8-0.3,5.7c-0.1,2.1-0.2,4.2-0.3,6.3c0,0.2,0,0.3,0.1,0.4 s0.2,0.2,0.4,0.2c2.1,0,4.1,0.1,6.2,0.4c0.1,0,0.3,0,0.4-0.1s0.2-0.2,0.2-0.4c0.1-1.5,0.4-5.3,0.4-5.3L63.8,84.4z"/>
<path d="M63.8,84.4L56.5,84c0,0-0.2,1.6-0.4,3.2c-0.1,0.8,0.1,1.5,0.6,2.1c0.5,0.6,1.2,0.9,1.9,1 c0.7,0,1.5,0.1,2.2,0.1c0.8,0,1.5-0.2,2-0.7s0.9-1.2,0.9-2C63.8,86,63.8,84.4,63.8,84.4z"/>
<path d="M59.9,88.8c0.3,0,0.5,0.3,0.4,0.5c0,0.3-0.2,0.5-0.5,0.5s-0.5-0.3-0.4-0.5C59.4,89,59.6,88.8,59.9,88.8z "/>
</g>
</g>
<g>
<path d="M51.9,83.9l0.5-0.9l2.8,0.1l0.3,1.1L51.9,83.9z"/>
<path d="M55.6,84.3c0-0.1,0-0.1-0.1-0.2c0-0.1-0.1-0.1-0.2-0.1c-0.8,0-3.5-0.1-3.5-0.1l-0.5,11.2 c0.1,0.3,1.5,0.5,2.7,0.5c0.5,0,0.9-0.4,0.9-0.9C55,91.2,55.2,87.7,55.6,84.3z"/>
</g>
</g>
<g>
<g>
<g>
<path d="M98.4,84.6c0.3,0,0.6,0,0.8,0.1c0.7,0.3,2.1,0.8,2.1,0.8l-8,0.5l-2.2-0.9C91.2,85,96.8,84.7,98.4,84.6z"/>
<path d="M90.9,85.3c0-0.1,0-0.2,0.1-0.2c0.1-0.1,0.2-0.1,0.2,0c0.7,0.3,2.1,0.9,2.1,0.9l1,12.4 c-0.7-0.4-1.4-0.7-2.1-0.8c-0.4-0.1-0.7-0.4-0.7-0.8C91.4,92.9,91.3,89.1,90.9,85.3z"/>
<path d="M93.3,86l8-0.5c0.1,1.9,0.2,3.8,0.3,5.7c0.1,2.1,0.2,4.2,0.3,6.3c0,0.2,0,0.3-0.1,0.4 c-0.1,0.1-0.2,0.2-0.4,0.2c-2.3,0-4.6,0.1-6.9,0.4c-0.1,0-0.3,0-0.4-0.1s-0.2-0.2-0.2-0.4c-0.1-1.5-0.4-5.3-0.4-5.3L93.3,86z "/>
<path d="M93.3,86l8-0.5c0,0,0.2,1.6,0.4,3.1c0.1,0.8-0.1,1.5-0.6,2.1c-0.5,0.6-1.2,0.9-1.9,1 c-0.9,0.1-2,0.1-3,0.2c-0.8,0-1.5-0.2-2.1-0.8c-0.6-0.5-0.9-1.3-0.9-2C93.3,87.6,93.3,86,93.3,86z"/>
<path d="M97.6,90.3c-0.3,0-0.5,0.3-0.5,0.5c0,0.3,0.3,0.5,0.5,0.5c0.3,0,0.5-0.3,0.5-0.5 C98.1,90.5,97.9,90.3,97.6,90.3z"/>
</g>
</g>
<g>
<g>
<path d="M109.5,83c0.3,0,0.6,0,0.9,0.2c0.7,0.3,1.8,0.8,1.8,0.8l-7.3,0.4l-2-0.9C103,83.5,107.9,83.1,109.5,83z"/>
<path d="M102.7,83.8c0-0.1,0-0.2,0.1-0.2c0.1,0,0.2-0.1,0.2,0c0.7,0.3,1.9,0.9,1.9,0.9l1,12.4 c-0.6-0.4-1.3-0.7-1.9-0.8c-0.4-0.1-0.7-0.4-0.7-0.8C103.2,91.3,103.1,87.5,102.7,83.8z"/>
<path d="M104.9,84.4l7.3-0.4c0.1,1.9,0.2,3.8,0.3,5.7c0.1,2.1,0.2,4.2,0.3,6.3c0,0.2,0,0.3-0.1,0.4 c-0.1,0.1-0.2,0.2-0.4,0.2c-2.1,0-4.1,0.1-6.2,0.4c-0.1,0-0.3,0-0.4-0.1c-0.1-0.1-0.2-0.2-0.2-0.4c-0.1-1.5-0.4-5.3-0.4-5.3 L104.9,84.4z"/>
<path d="M104.9,84.4l7.3-0.4c0,0,0.2,1.6,0.4,3.2c0.1,0.8-0.1,1.5-0.6,2.1c-0.5,0.6-1.2,0.9-1.9,1 c-0.7,0-1.5,0.1-2.2,0.1c-0.8,0-1.5-0.2-2-0.7s-0.9-1.2-0.9-2C104.9,86,104.9,84.4,104.9,84.4z"/>
<path d="M108.9,88.8c-0.3,0-0.5,0.3-0.4,0.5c0,0.3,0.2,0.5,0.5,0.5s0.5-0.3,0.4-0.5 C109.3,89.1,109.1,88.8,108.9,88.8z"/>
</g>
</g>
<g>
<path d="M116.9,83.9l-0.5-0.9l-2.8,0.1l-0.3,1.1L116.9,83.9z"/>
<path d="M113.2,84.3c0-0.1,0-0.1,0.1-0.2c0-0.1,0.1-0.1,0.2-0.1c0.8,0,3.5-0.1,3.5-0.1l0.5,11.2 c-0.1,0.3-1.5,0.5-2.7,0.5c-0.5,0-0.9-0.4-0.9-0.9C113.7,91.2,113.6,87.7,113.2,84.3z"/>
</g>
</g>
<path d="M88,85.2l1.1,1.1L80,86.1l0.7-1L88,85.2z"/>
<path d="M80,86.1l9.1,0.2c-0.1,2-0.1,3.9-0.1,5.9c-0.1,2.2-0.2,4.4-0.1,6.6c0,0.2-0.1,0.3-0.2,0.4 c-0.1,0.1-0.3,0.2-0.4,0.1c-2.6-0.2-5.3-0.2-7.9-0.1c-0.1,0-0.3,0-0.4-0.1s-0.2-0.2-0.2-0.4v-5.6L80,86.1z"/>
<path d="M80,86.1l9.1,0.2c0,0,0.1,1.7,0.2,3.4c0,0.8-0.2,1.5-0.8,2c-0.5,0.5-1.3,0.8-2,0.8c-1.3,0-2.8-0.1-4-0.1 c-0.8,0-1.5-0.3-2-0.9s-0.8-1.3-0.7-2.1C79.8,87.9,80,86.1,80,86.1z"/>
<path d="M84.4,91c-0.3,0-0.6,0.2-0.6,0.5s0.3,0.5,0.6,0.6c0.3,0,0.6-0.2,0.6-0.5C85,91.3,84.7,91,84.4,91z"/>
</g>
</g>
</g>
</g>
<g id="Extras_Front">
<g id="Front">
<g id="None_Front" class="option" style="display: inherit;">
</g>
</g>
</g>
</svg></svg>