<?xml version='1.0' encoding='UTF-8'?>
<svg version="1.1" id="Male-Body" xmlns="http://www.w3.org/2000/svg" xmlns:serif="http://www.serif.com/" viewBox="0 -55 170 300" style="stroke-width: 0.2px; fill-rule: evenodd; stroke-linejoin: round;" width="170" height="300">
<style>
mask {
mask-type: alpha;
}
.decal {
stroke: none;
}
</style>
<defs id="Masks" stroke="none">
<mask id="HelmetsMask"> <use href="#Helmets"/> </mask>
<mask id="CollarMask"> <use href="#Collar"/> </mask>
<mask id="ShouldersMask"> <use href="#Shoulders"/> </mask>
<mask id="ChestMask"> <use href="#Chest"/> </mask>
<mask id="BicepsMask"> <use href="#Biceps"/> </mask>
<mask id="GauntletsMask"> <use href="#Gauntlets"/> </mask>
<mask id="WaistMask"> <use href="#Waist"/> </mask>
<mask id="GroinMask"> <use href="#Groin"/> </mask>
<mask id="ThighsMask"> <use href="#Thighs"/> </mask>
<mask id="KneesMask"> <use href="#Knees"/> </mask>
<mask id="ShinsMask"> <use href="#Shins"/> </mask>
<mask id="FootMask"> <use href="#Foot"/> </mask>
</defs>
<defs id="Decals"/><metadata><rdf:rdf xmlns:rdf="http://www.w3.org/1999/02/22-rdf-syntax-ns#" xmlns:rdfs="http://www.w3.org/2000/01/rdf-schema#" xmlns:dc="http://purl.org/dc/elements/1.1/"><rdf:description><dc:creator>MandoCreator</dc:creator><dc:publisher>https://www.mandocreator.com</dc:publisher><dc:description>Your Beskar'gam - created by MandoCreator</dc:description><dc:format>image/svg+xml</dc:format><dc:type>Image</dc:type><dc:title>MandoCreator - Ner Berskar'gam</dc:title><dc:date>2022-01-02T16:23:07.360Z</dc:date></rdf:description></rdf:rdf></metadata><g id="Main-Body" fill="white" stroke="black">
<g id="Extras_Back">
<g id="Back"><g id="NO-CAPES_Back" class="option" style="display: inherit;">
</g>
</g>
</g>
<g id="Extras-BackDecals" mask="url(#BackMask)">
</g>
<g id="Suit">
<g id="Neck-Seal"><g id="Standard-Neck-Seal" class="option" fill="rgb(0, 0, 0)" style="display: inherit;">
<path d="M98.75,7.5c0-0.9-0.93-1.62-2.07-1.62c0,0-7.8,0.85-11.7,0.85s-11.7-0.85-11.7-0.85 c-1.14,0-2.07,0.73-2.07,1.62s0.93,1.62,2.07,1.62c0,0,7.8,0.85,11.7,0.85s11.7-0.85,11.7-0.85C97.83,9.13,98.75,8.4,98.75,7.5z"/>
<path d="M99.45,9.4c0-0.94-0.97-1.71-2.17-1.71c0,0-8.2,0.9-12.29,0.9S72.69,7.7,72.69,7.7 c-1.2,0-2.17,0.76-2.17,1.71s0.97,1.71,2.17,1.71c0,0,8.2,0.9,12.29,0.9s12.29-0.9,12.29-0.9C98.48,11.11,99.45,10.34,99.45,9.4z "/>
<path d="M100.24,11.76c0-0.99-1.03-1.8-2.29-1.8c0,0-8.64,0.95-12.96,0.95S72.02,9.96,72.02,9.96 c-1.26,0-2.29,0.81-2.29,1.8s1.03,1.8,2.29,1.8c0,0,8.64,0.95,12.97,0.95s12.96-0.95,12.96-0.95 C99.21,13.56,100.24,12.75,100.24,11.76z"/>
<path d="M101,13.92c0-1.04-1.08-1.89-2.41-1.89c0,0-9.08,0.99-13.61,0.99s-13.61-0.99-13.61-0.99 c-1.33,0-2.41,0.85-2.41,1.89c0,1.04,1.08,1.89,2.41,1.89c0,0,9.08,0.99,13.61,0.99s13.61-0.99,13.61-0.99 C99.93,15.81,101,14.96,101,13.92z"/>
<path d="M101.76,16.04c0-0.79-1.13-1.43-2.52-1.43c0,0-9.51,0.75-14.26,0.75s-14.26-0.75-14.26-0.75 c-1.39,0-2.52,0.64-2.52,1.43c0,0.79,1.13,1.43,2.52,1.43c0,0,9.51,0.75,14.26,0.75s14.26-0.75,14.26-0.75 C100.63,17.47,101.76,16.83,101.76,16.04z"/>
<path d="M101.76,18.42c0-0.79-1.13-1.43-2.52-1.43c0,0-9.51,0.75-14.26,0.75s-14.26-0.75-14.26-0.75 c-1.39,0-2.52,0.64-2.52,1.43c0,0.79,1.13,1.43,2.52,1.43c0,0,9.51,1.44,14.26,1.44s14.26-1.44,14.26-1.44 C100.63,19.84,101.76,19.21,101.76,18.42z"/>
</g>
</g>
<g id="Flight-Suit" fill="rgb(42, 48, 51)">
<path d="M73.36,158.45l-1.49,8.72l-11.03,53.11c0,0-4.93,2.96-7.47,3.46c-2.53,0.5-7.73-0.44-7.73-0.44l3.85-43 l2.9-18.36l0.66-7.82c0,0-2.53-22.78-1.7-34.14c0.82-11.36,6.66-34.01,6.66-34.01l26.98,0.58l26.97-0.58 c0,0,5.83,22.66,6.66,34.01c0.83,11.36-1.7,34.14-1.7,34.14l0.66,7.82l2.9,18.36l3.85,43c0,0-5.32,1.19-7.85,0.69 c-2.53-0.5-7.34-3.71-7.34-3.71L98.1,167.16l-1.49-8.72l-11.62-30.33L73.36,158.45z"/>
<g>
<path d="M129.41,43.33l11.98,41.65l1.04,21.47l-9.55,1.83l-6.05-20.21l-13.65-33.95l0.69-15.55l2.31-3.72 L129.41,43.33z"/>
<path d="M40.59,43.3l13.19-8.45l2.31,3.72l0.52,16.04L43.17,88.07l-6.05,20.21l-9.55-1.83l1.03-21.47L40.59,43.3z"/>
</g>
</g>
<g id="Sleeves" class="toggle" style="display: none;" fill="rgb(255, 255, 255)"/>
</g>
<g id="Boots">
<g id="Tall_Boots" class="option" style="display: inherit;">
<g id="Bottom_Tall-Boot" fill="rgb(0, 0, 0)">
<path d="M107.62,230.35c0.02,0.13,0.06,0.26,0.1,0.4c0.96,1.77,3.59,2.37,5.38,2.79c1.27,0.3,2.5,0.72,3.7,1.22 c1.66,0.7,2.49,1.93,3.79,3.1c0.58,0.52,1.26,0.93,1.92,1.32c1.65,0.99,3.25,1.07,5.13,1.12c2.52,0.07,4.75-0.27,7.23-0.82 c2.17-0.48,3.79-0.89,5.67-1.42c0.56-0.16,1.25-0.27,1.59-0.69l0.28,0.63l0.21,1.64c0,0-2.03,1.09-4.2,1.57 c-2.16,0.48-6.53,1.15-6.53,1.15l-0.3-0.71l-0.98,0.21l0.05,0.7l-2.38,0.13l-0.51-0.69l-0.79,0.02l0.12,0.61 c0,0-1.47-0.02-2.29-0.51c-0.15-0.23-0.46-0.61-0.46-0.61l-0.56-0.31l0.07,0.58l-2.04-0.73l-0.1-0.79l-0.59-0.34l-0.03,0.57 l-1.46-1.12l-0.16-0.69l-3.14-1.64l-1.07,0.43l-2.55-0.55l-0.08-0.55l-0.65-0.27l-0.45,0.42l-1.71-0.7l-0.04-0.51l-0.56-0.19 l-0.06,0.37l-1.62-1.12L107.62,230.35z M107.56,229.7L107.56,229.7L107.56,229.7L107.56,229.7z"/>
<path d="M62.37,230.35c-0.02,0.13-0.06,0.26-0.1,0.4c-0.97,1.77-3.59,2.37-5.38,2.79c-1.27,0.3-2.5,0.72-3.7,1.22 c-1.66,0.7-2.49,1.93-3.79,3.1c-0.58,0.52-1.26,0.93-1.92,1.32c-1.65,0.99-3.25,1.07-5.13,1.12c-2.52,0.07-4.75-0.27-7.23-0.82 c-2.17-0.48-3.79-0.89-5.67-1.42c-0.56-0.16-1.25-0.27-1.59-0.69l-0.28,0.63l-0.21,1.64c0,0,2.03,1.09,4.2,1.57 c2.16,0.48,6.53,1.15,6.53,1.15l0.3-0.71l0.98,0.21l-0.05,0.7l2.38,0.13l0.51-0.69l0.8,0.02l-0.12,0.61c0,0,1.47-0.02,2.29-0.51 c0.15-0.23,0.46-0.61,0.46-0.61l0.56-0.31l-0.07,0.58l2.04-0.73l0.1-0.79l0.59-0.34l0.02,0.57l1.46-1.12l0.16-0.69l3.14-1.64 l1.07,0.43l2.55-0.55l0.08-0.55l0.65-0.27l0.45,0.42l1.71-0.7l0.04-0.51l0.56-0.19l0.07,0.37l1.62-1.12L62.37,230.35z M62.43,229.7L62.43,229.7L62.43,229.7L62.43,229.7z"/>
</g>
<g id="Main_Tall-Boot" fill="rgb(42, 48, 51)">
<path d="M107.64,216.98c-1.45-4.23-2.54-10.99-3.41-14.07c-0.65-2.31-3.63-14.87-3.14-16.45 c0.5-1.6,19.67-4.86,20.29-3.42c0.94,2.2,2.03,23.99,2.2,27.2c0.12,2.35,0.47,4.66,0.47,7.01l0,0.01 c0.25,1.28,0.46,2.66,0.99,3.81c1.01,2.17,0.97,3.11,2.65,4.75c1.16,1.13,4.16,3.11,5.54,3.97c0.58,0.36,1.21,0.64,1.85,0.88 l0.06,0.02c2.55,0.95,5.3,1.3,6.68,4.11c0.3,0.61,0.56,1.34,0.51,2.04c-0.07,0.89-1.04,1.01-1.79,1.23 c-1.88,0.53-3.5,0.94-5.67,1.42c-2.48,0.55-4.71,0.89-7.23,0.82c-1.88-0.05-3.47-0.13-5.13-1.12c-0.67-0.4-1.35-0.8-1.92-1.32 c-1.29-1.17-2.13-2.4-3.79-3.1c-1.2-0.51-2.43-0.92-3.7-1.22c-1.8-0.43-4.42-1.02-5.38-2.79c-0.37-1.33,0.01-1.98,0.13-3.12 l0.06-0.49c0.1-0.74,0.23-1.5,0.27-2.31c0.08-1.54-0.31-3.06-0.41-4.59c-0.06-0.87-0.1-1.74-0.12-2.61 C107.65,217.52,107.61,217.19,107.64,216.98z"/>
<path d="M62.35,216.98c1.45-4.23,2.54-10.99,3.41-14.07c0.65-2.31,3.63-14.87,3.14-16.45 c-0.5-1.6-19.67-4.86-20.29-3.42c-0.94,2.2-2.03,23.99-2.2,27.2c-0.12,2.35-0.47,4.66-0.47,7.01l0.01,0.01 c-0.25,1.28-0.46,2.66-0.99,3.81c-1.01,2.17-0.97,3.11-2.65,4.75c-1.16,1.13-4.16,3.11-5.54,3.97c-0.59,0.36-1.21,0.64-1.85,0.88 l-0.06,0.02c-2.55,0.95-5.3,1.3-6.68,4.11c-0.3,0.61-0.56,1.34-0.51,2.04c0.07,0.89,1.04,1.01,1.79,1.23 c1.88,0.53,3.5,0.94,5.67,1.42c2.48,0.55,4.72,0.89,7.23,0.82c1.88-0.05,3.47-0.13,5.13-1.12c0.67-0.4,1.35-0.8,1.92-1.32 c1.29-1.17,2.13-2.4,3.79-3.1c1.2-0.51,2.43-0.92,3.7-1.22c1.8-0.43,4.42-1.02,5.38-2.79c0.37-1.33-0.01-1.98-0.13-3.12 l-0.06-0.49c-0.1-0.74-0.23-1.5-0.27-2.31c-0.08-1.54,0.31-3.06,0.41-4.59c0.06-0.87,0.1-1.74,0.12-2.61 C62.33,217.52,62.37,217.19,62.35,216.98z"/>
</g>
</g></g>
<g id="Gloves">
<g id="Left-Glove"><g id="Basic_Left_Glove" class="option" fill="rgb(42, 48, 51)" style="display: inherit;">
<path d="M138.6,124.11c-0.54-0.03-1.05-0.01-1.58,0.1c-0.36,0.08-0.72,0.16-1.04,0.35 c-0.99,0.57-0.72,1.81,0.16,2.28c1.03,0.55,2.66,0.01,3.13-1.05C139.46,125.35,138.86,124.53,138.6,124.11"/>
<path d="M136.79,125.19c-0.54-0.03-1.05-0.02-1.59,0.1c-0.36,0.08-0.72,0.16-1.04,0.35 c-0.99,0.57-0.72,1.81,0.16,2.28c1.03,0.55,2.66,0.01,3.13-1.05C137.65,126.43,137.05,125.61,136.79,125.19"/>
<path d="M135.49,126.65c-0.54,0.05-1.19,0.13-1.7,0.31c-0.35,0.12-0.69,0.26-0.99,0.48c-0.9,0.7-0.47,1.89,0.47,2.24 c1.1,0.41,2.64-0.35,2.96-1.46C136.36,127.76,135.49,126.65,135.49,126.65z"/>
<path d="M132.55,110.05c0,0-1.56,2.15-1.97,3.69c-0.29,1.09-0.13,3.68-0.49,5.43c-0.36,1.74-0.69,2.71-0.69,2.71 s-1.38,2.79-1.14,3.43c0.24,0.64,1.45,1.21,2.15,0.87c0.86-0.42,1.93-2.39,2.61-3.77c0.69-1.41,1.25-3.41,1.25-3.41 s0.95,0.32,1.43,0.7c1.61,1.24,0.91,4.96,0.91,4.96s-0.66,1.33-1.66,2.83c-1.36,2.05-3.46,3.81-2.07,5.37 c1.29,1.46,4.22-2.37,4.22-2.37l2.87-3.73c0,0,3.3-5.41,3.47-6.46c0.13-0.8,0.02-3.47,0.02-3.47l-1.03-10.37l-5.24,0.44 l-4.31,1.39L132.55,110.05"/>
</g>
</g>
<g id="Right-Glove"><g id="Basic_Right_Glove" class="option" fill="rgb(42, 48, 51)" style="display: inherit;">
<path d="M31.4,124.11c0.54-0.03,1.05-0.01,1.58,0.1c0.36,0.08,0.72,0.16,1.04,0.35c0.99,0.57,0.72,1.81-0.16,2.28 c-1.03,0.55-2.66,0.01-3.13-1.05C30.53,125.35,31.14,124.53,31.4,124.11"/>
<path d="M33.21,125.19c0.54-0.03,1.05-0.02,1.58,0.1c0.36,0.08,0.72,0.16,1.04,0.35c0.99,0.57,0.72,1.81-0.16,2.28 c-1.03,0.55-2.66,0.01-3.13-1.05C32.35,126.43,32.95,125.61,33.21,125.19"/>
<path d="M34.51,126.65c0.54,0.05,1.19,0.13,1.7,0.31c0.35,0.12,0.69,0.26,0.99,0.48c0.9,0.7,0.47,1.89-0.47,2.24 c-1.1,0.41-2.64-0.35-2.96-1.46C33.64,127.76,34.51,126.65,34.51,126.65z"/>
<path d="M37.45,110.05c0,0,1.56,2.15,1.97,3.69c0.29,1.09,0.13,3.68,0.49,5.43c0.36,1.74,0.69,2.71,0.69,2.71 s1.38,2.79,1.14,3.43c-0.24,0.64-1.45,1.21-2.15,0.87c-0.86-0.42-1.93-2.39-2.61-3.77C36.29,121,35.73,119,35.73,119 s-0.95,0.32-1.43,0.7c-1.61,1.24-0.91,4.96-0.91,4.96s0.66,1.33,1.66,2.83c1.36,2.05,3.46,3.81,2.08,5.37 c-1.29,1.46-4.22-2.37-4.22-2.37l-2.87-3.73c0,0-3.3-5.41-3.47-6.46c-0.13-0.8-0.02-3.47-0.02-3.47l1.03-10.37l5.24,0.44 l4.31,1.39L37.45,110.05"/>
</g>
</g>
</g>
<g id="Biceps">
<g id="Left-Biceps">
<g id="None_Biceps_Left" class="option" style="display: inherit;">
</g></g>
<g id="Right-Biceps">
<g id="None_Biceps_Right" class="option" style="display: inherit;">
</g></g>
</g>
<g id="BicepsDecals" mask="url(#BicepsMask)">
</g>
<path id="Vest" d="M85,20.92c8.5-0.01,15.43-4.3,15.63-8.01l0.15,0.02l18.38,5.42l13.31,23.94l-2.86,1.16l-13.42-8.6 l-2.31,3.72l-1.54,47.4c0,0-8.72,4.71-13.53,5.35c-3.44,0.45-8.63,0.68-13.79,0.67c-5.16,0.01-10.35-0.22-13.79-0.67 c-4.81-0.63-13.53-5.35-13.53-5.35l-1.54-47.4l-2.31-3.72l-13.42,8.6l-2.86-1.16l13.31-23.94l18.38-5.42l0.15-0.02 C69.57,16.62,76.5,20.92,85,20.92" fill="rgb(57, 63, 74)"/>
<g id="SuitDecals" mask="url(#SuitMask)">
</g>
<g class="swappable" id="Chest"><g id="Chest_Gunslinger">
<g id="Abdomen_Gunslinger">
<g id="Left_Abdomen_Gunslinger" fill="rgb(57, 85, 110)">
<path d="M99.07,74.44l7.25-12.98l-3.77-5.3l-0.3-0.64l-4.12,0.51l-1.69,20L99.07,74.44z"/>
<path d="M99.07,74.44l7.25-12.98l1.9,2.67l2.51-1.99l-0.67,8.89L99.07,74.44z"/>
</g>
<g id="Right_Abdomen_Gunslinger" fill="rgb(57, 85, 110)">
<path d="M70.93,74.44l-7.25-12.98l-1.9,2.67l-2.51-1.99l0.67,8.89L70.93,74.44z"/>
<path d="M70.93,74.44l-7.25-12.98l3.77-5.3l0.3-0.64l4.12,0.51l1.69,20L70.93,74.44z"/>
</g>
<path id="Center_Abdomen_Gunslinger" d="M85,51.76l13.13,4.27l-1.69,20l-2.01,1.21L85,76.74l-9.43,0.51l-2.01-1.21 l-1.69-20L85,51.76z" fill="rgb(0, 133, 255)"/>
</g>
<g id="Chest-Plates_Gunslinger">
<g id="Left-Chest_Gunslinger" fill="rgb(51, 48, 181)">
<path d="M85.76,29.31v-3.08l2.54-2.52l24.4-2.75l2.19,13.55l-3.63,27.22l-3.03,2.41l-5.67-7.97l-1.59-3.38 l-15.13-4.59l3.93-3.91V32.92L85.76,29.31z"/>
<path d="M100.96,52.78l11.15-6.55l2.77-11.71l-2.45,12.59l-9.88,9.05L100.96,52.78z"/>
<path d="M102.25,55.52l-4.12,0.51L85,51.76v-3.78l15.96,4.79L102.25,55.52z"/>
</g>
<g id="Right-Chest_Gunslinger" fill="rgb(51, 48, 181)">
<path d="M84.24,29.31v-3.08l-2.54-2.52l-24.4-2.75L55.12,34.5l3.63,27.22l3.03,2.41l5.67-7.97l1.59-3.38l15.13-4.59 l-3.93-3.91V32.92L84.24,29.31z"/>
<path d="M69.04,52.78l-11.15-6.55l-2.77-11.71l2.45,12.59l9.88,9.05L69.04,52.78z"/>
<path d="M67.75,55.52l4.12,0.51L85,51.76v-3.78l-15.96,4.79L67.75,55.52z"/>
</g>
</g>
<g id="Iron-Heart_Gunslinger">
<path id="Under-Heart_Gunslinger" d="M84.17,48.19l-3.93-3.91V32.92l4.01-3.61v-3.08h1.51v3.08l4.01,3.61v11.36 l-3.93,3.91L85,47.98L84.17,48.19z" fill="rgb(0, 133, 255)"/>
<path id="Heart_Gunslinger" d="M82.1,43.35v-9.4l2.9-2.88l2.9,2.88v9.4L85,46.23L82.1,43.35z" fill="rgb(0, 133, 255)"/><rect id="Center_Heart_Gunslinger" class="option" x="84.14" y="34.52" width="1.72" height="8.25" fill="rgb(0, 133, 255)" style="display: inherit;"/>
</g>
</g></g>
<g id="ChestDecals" mask="url(#ChestMask)">
</g>
<g id="Chest-Attachments"><g id="No-Device_Accessories_Chest" class="option" style="display: inherit;">
</g>
</g>
<g id="Collar"><g id="None_Collar" class="option" style="display: inherit;">
</g>
</g>
<g id="CollarDecals" mask="url(#CollarMask)">
</g>
<g id="Helmets" class="swappable" transform="translate(45,-52)"><g id="Helmet_Neo">
<g id="Mask-Of-Mandalor_Neo">
<g id="Mask-Of-Mandalor_Neo" class="toggle" style="display:none"/>
</g>
<g id="Helmet_Pieces_Neo">
<path id="Main_Neo" d="M14.27,71.08l-1.37-3.81c0,0,9.06-2.54,11.5-16.68c0.38-2.17,1.24-17.39,1.24-20.8 c0-7.02,5.93-13.12,14.37-13.12c8.7,0,14.37,6.12,14.37,13.12c0,3.41,0.86,18.63,1.24,20.8c2.44,14.14,11.5,16.68,11.5,16.68 l-1.37,3.81H14.27z" fill="rgb(51, 48, 181)"/>
<path id="Stripe_Neo" d="M31.35,28.24v-9.01c0,0,2.83-2.54,8.65-2.56c5.77-0.02,8.65,2.49,8.65,2.49v9.08 c-2.4-2.04-5.46-3.57-8.65-3.57c-0.42,0-0.84,0.03-1.26,0.08c-2.4,0.29-4.64,1.38-6.53,2.8C31.92,27.77,31.64,28,31.35,28.24 L31.35,28.24z" fill="rgb(0, 133, 255)"/>
<path id="Chin-2_Neo" d="M39.98,78l-25.71-6.92c7.72-1.8,11.19-7.87,11.19-14.31s0.99-20.16,0.99-20.16h27.11 c0,0,0.99,13.71,0.99,20.16s3.47,12.51,11.19,14.31L40.02,78L40,78L39.98,78z" fill="rgb(57, 85, 110)"/>
<g id="Chin-1_Neo" fill="rgb(0, 133, 255)">
<path d="M46.25,61.88H33.75c0,0-6.21-10.37-6.65-21.54l0,0C29.87,51.51,40,59.15,40,59.15s10.13-7.64,12.9-18.81 l0,0C52.46,51.51,46.25,61.88,46.25,61.88z"/>
<path d="M33.1,64.46l-0.6,2.59h15l-0.6-2.59H33.1z"/>
<path d="M33.7,61.88l-0.6,2.59h13.8l-0.6-2.59H33.7z"/>
<path d="M32.5,67.05l-0.6,2.59h16.2l-0.6-2.59H32.5z"/>
<path d="M31.91,69.56l-0.6,2.59h17.38l-0.6-2.59H31.91z"/>
<path d="M31.31,72.15l-0.6,2.58h18.58l-0.6-2.58H31.31z"/>
<path d="M30.71,74.74l-0.17,0.73L40,78l9.46-2.54l-0.17-0.73H30.71z"/>
<rect x="39.34" y="61.88" width="1.31" height="16.12"/>
</g>
<path id="Face_Neo" d="M40,24.47c7.21,0,13.77,8.24,13.55,12.47C52.8,51.47,40,61.88,40,61.88 S27.2,51.47,26.45,36.94C26.23,32.71,32.79,24.47,40,24.47z" fill="rgb(51, 48, 181)"/>
<path fill="rgb(0, 0, 0)" id="Visor_Neo" d="M39.18,55.84l-1.96-17.59l-8.66-1.65l-0.25-1.07c3.66-1.86,7.8-2.31,11.7-2.31 s8.07,0.47,11.7,2.31l-0.26,1.07l-8.66,1.65l-1.96,17.59H39.18z"/>
</g>
</g></g>
<g id="HelmetsDecals" mask="url(#HelmetsMask)"/>
<g id="Shoulders">
<g id="Left-Shoulder"><g id="Classic_Shoulder_Left" class="option" style="display: inherit;">
<path id="Main_Shoulder_Classic_Left" d="M117.21,13.84l-2.52,11.33l2.02,6.52l13.49,6.79l2.27-3.46L117.21,13.84z " fill="rgb(51, 48, 181)"/>
<path id="Trauma-Plates_Shoulder_Classic_Left" class="toggle" style="display:none" d="M116.44,25.1l1.67,5.41l11.49,5.78l1.94-2.96 l-12.93-17.99L116.44,25.1z" fill="rgb(255, 255, 255)"/>
</g>
</g>
<g id="Right-Shoulder"><g id="Classic_Shoulder_Right" class="option" style="display: inherit;">
<path id="Main_Shoulder_Classic_Right" d="M52.79,13.84l2.52,11.33l-2.02,6.52l-13.49,6.79l-2.27-3.46L52.79,13.84 z" fill="rgb(51, 48, 181)"/>
<path id="Trauma-Plates_Shoulder_Classic_Right" class="toggle" style="display:none" d="M53.56,25.1l-1.67,5.41L40.4,36.29l-1.94-2.96 l12.93-17.99L53.56,25.1z" fill="rgb(255, 255, 255)"/>
</g>
</g>
</g>
<g id="ShouldersDecals" mask="url(#ShouldersMask)">
</g>
<g id="Gauntlets">
<g id="Left-Gauntlets"><g id="Gunslinger_Gauntlet_Left" class="option" style="display: inherit;">
<g id="Accent-Top_Gunslinger_Gauntlet_Left" fill="rgb(0, 133, 255)">
<path d="M139.9,80.56l0.62,5.62l-2.85,0.79l-0.66-5.33L139.9,80.56z"/>
<path d="M138.55,101.39l0.57,2.87l-2.51,0.54l-0.6-2.86L138.55,101.39z"/>
</g>
<path id="Top_Gunslinger_Gauntlet_Left" d="M139.9,80.56l1.3-0.49l2.29,26.33l-6.27,1.32l-0.85-4.08l0.24,1.15 l2.51-0.54l-0.57-2.87l-2.54,0.54l-3.85-18.47L139.9,80.56l-2.89,1.08l0.66,5.33l2.85-0.79L139.9,80.56z" fill="rgb(51, 48, 181)"/>
<g id="Accent-Bottom_Gunslinger_Gauntlet_Left" fill="rgb(0, 133, 255)">
<path d="M128.55,91.98l-0.74-2.3l-1.62,0.52l0.74,2.3L128.55,91.98z"/>
<path d="M129.4,94.59l-0.74-2.3l-1.62,0.52l0.74,2.3L129.4,94.59z"/>
<path d="M136.01,101.93l-5.61,1.2l0.9,2.8l5.3-1.13L136.01,101.93z"/>
</g>
<path id="Bottom_Gunslinger_Gauntlet_Left" d="M136.52,104.38l-0.51-2.45l-5.61,1.2l0.9,2.8l5.3-1.13l0.61,2.93 c0,0-1.97,0.34-3.45,0.6c-0.92,0.16-1.82-0.38-2.11-1.26c-1.57-4.84-6.31-19.4-6.31-19.4l6.89-3.82L136.52,104.38z M129.4,94.59 l-0.74-2.3l-1.62,0.52l0.74,2.3L129.4,94.59z M128.55,91.98l-0.74-2.3l-1.62,0.52l0.74,2.3L128.55,91.98z" fill="rgb(51, 48, 181)"/><g id="No-Device_Attachment_Gunslinger_Gauntlet_Left" class="option" style="display: inherit;">
</g>
</g></g>
<g id="Right-Gauntlets"><g id="Gunslinger_Gauntlet_Right" class="option" style="display: inherit;">
<g id="Accent-Top_Gunslinger_Gauntlet_Right" fill="rgb(0, 133, 255)">
<path d="M30.21,80.56l-0.62,5.62l2.85,0.79l0.66-5.33L30.21,80.56z"/>
<path d="M31.56,101.39l-0.57,2.87l2.51,0.54l0.6-2.86L31.56,101.39z"/>
</g>
<path id="Top_Gunslinger_Gauntlet_Right" d="M30.21,80.56l-1.3-0.49l-2.29,26.33l6.27,1.32l0.85-4.08l-0.24,1.15 l-2.51-0.54l0.57-2.87l2.54,0.54l3.85-18.47L30.21,80.56l2.89,1.08l-0.66,5.33l-2.85-0.79L30.21,80.56z" fill="rgb(51, 48, 181)"/>
<g id="Accent-Bottom_Gunslinger_Gauntlet_Right" fill="rgb(0, 133, 255)">
<path d="M41.56,91.98l0.74-2.3l1.62,0.52l-0.74,2.3L41.56,91.98z"/>
<path d="M40.71,94.59l0.74-2.3l1.62,0.52l-0.74,2.3L40.71,94.59z"/>
<path d="M34.1,101.93l5.61,1.2l-0.9,2.8l-5.3-1.13L34.1,101.93z"/>
</g>
<path id="Bottom_Gunslinger_Gauntlet_Right" d="M33.59,104.38l0.51-2.45l5.61,1.2l-0.9,2.8l-5.3-1.13l-0.61,2.93 c0,0,1.97,0.34,3.45,0.6c0.92,0.16,1.82-0.38,2.11-1.26c1.57-4.84,6.31-19.4,6.31-19.4l-6.89-3.82L33.59,104.38z M40.71,94.59 l0.74-2.3l1.62,0.52l-0.74,2.3L40.71,94.59z M41.56,91.98l0.74-2.3l1.62,0.52l-0.74,2.3L41.56,91.98z" fill="rgb(51, 48, 181)"/><g id="No-Device_Attachment_Gunslinger_Gauntlet_Right" class="option" style="display: inherit;">
</g>
</g></g>
</g>
<g id="GauntletsDecals" mask="url(#GauntletsMask)">
</g>
<g id="Shins">
<g id="Left-Shin"><g id="Basic-Shnees_Shin_Left" class="option" style="display: inherit;">
<path id="Shin_Basic-Shnees-Shin_Left" d="M99.91,163.03c-0.2-2.15,1.34-4.08,3.5-4.35 c2.69-0.35,6.23-0.8,8.89-1.14c2.12-0.27,4.09,1.15,4.48,3.24c0.88,4.63,2.45,11.9,3.65,11.72l4.97,46.08l-9.94,1.23l-3.07,3.51 l-4.62-0.93l-9.52-47.03C100.66,175.08,100.36,167.72,99.91,163.03" fill="rgb(51, 48, 181)"/>
<g id="Straps_Basic-Shnees-Shin_Left" class="toggle" fill="rgb(0, 133, 255)">
<path d="M99.3,182.55l5.15-0.86l0.54,2.35l-5.15,0.86L99.3,182.55"/>
<path d="M99.64,182.3l1.09-0.18l0.64,2.78l-1.09,0.18L99.64,182.3"/>
<path d="M103.92,205.24l5.15-0.86l0.54,2.35l-5.15,0.86L103.92,205.24"/>
<path d="M104.26,204.99l1.09-0.18l0.64,2.78l-1.09,0.18L104.26,204.99"/>
</g>
<g id="Accent_Basic-Shnees-Shin_Left" class="toggle" fill="rgb(0, 133, 255)">
<path d="M112.18,157.29l-3.8-0.25l-3.81,1.06l11.57,61.61l4.61-0.57L112.18,157.29"/>
<path d="M108.38,157.04l10.23,62.37"/>
</g>
</g></g>
<g id="Right-Shin"><g id="Basic-Shnees_Shin_Right" class="option" style="display: inherit;">
<path id="Shin_Basic-Shnees-Shin_Right" d="M69.98,163.03c0.2-2.15-1.34-4.08-3.5-4.35 c-2.69-0.35-6.23-0.8-8.89-1.14c-2.12-0.27-4.09,1.15-4.48,3.24c-0.88,4.63-2.45,11.9-3.65,11.72l-4.97,46.08l9.94,1.23 l3.07,3.51l4.62-0.93l9.52-47.03C69.23,175.08,69.54,167.72,69.98,163.03" fill="rgb(51, 48, 181)"/>
<g id="Straps_Basic-Shnees-Shin_Right" class="toggle" fill="rgb(0, 133, 255)">
<path d="M70.59,182.55l-5.15-0.86l-0.54,2.35l5.15,0.86L70.59,182.55"/>
<path d="M70.25,182.3l-1.09-0.18l-0.64,2.78l1.09,0.18L70.25,182.3"/>
<path d="M65.97,205.24l-5.15-0.86l-0.54,2.35l5.15,0.86L65.97,205.24"/>
<path d="M65.63,204.99l-1.09-0.18l-0.64,2.78l1.09,0.18L65.63,204.99"/>
</g>
<g id="Accent_Basic-Shnees-Shin_Right" class="toggle" fill="rgb(0, 133, 255)">
<path d="M57.71,157.29l3.81-0.25l3.81,1.06l-11.57,61.61l-4.61-0.57L57.71,157.29"/>
<path d="M61.51,157.04l-10.23,62.37"/>
</g>
</g></g>
</g>
<g id="ShinsDecals" mask="url(#ShinsMask)">
</g>
<g id="Foot">
<g id="Left-Ankle">
<g id="None_Ankle_Left" class="option" style="display: inherit;">
</g></g>
<g id="Left-Toe">
<g id="Armored_Toe_Left" class="option" style="display: inherit;">
<g id="Plate_Armored_Toe_Left" fill="rgb(51, 48, 181)">
<path d="M119.07,233.15l9.63,5.32l7.27,0.49l5.83-1.47c1.22-1.01,1.71-3.29,0.66-5.55l-8.21-3.88l-6.44,1.61 L119.07,233.15"/>
<path d="M127.13,229.95c0,0,7.51,2.19,8.45,3.48c1.04,1.44,0.39,5.53,0.39,5.53"/>
</g>
<g id="Trim_Armored_Toe_Left" fill="rgb(0, 133, 255)">
<path d="M133.13,227.42l-7.73,1.86l-6.52,3.94l1.35,0.74l6.91-4.02l7.7-1.8L133.13,227.42"/>
<path d="M125.39,229.29l1.74,0.66"/>
</g>
</g></g>
<g id="Right-Ankle">
<g id="None_Ankle_Right" class="option" style="display: inherit;">
</g></g>
<g id="Right-Toe">
<g id="Armored_Toe_Right" class="option" style="display: inherit;">
<g id="Plate_Armored_Toe_Right" fill="rgb(51, 48, 181)">
<path d="M50.81,233.15l-9.63,5.32l-7.27,0.49l-5.83-1.47c-1.22-1.01-1.71-3.29-0.66-5.55l8.21-3.88l6.44,1.61 L50.81,233.15"/>
<path d="M42.74,229.95c0,0-7.51,2.19-8.45,3.48c-1.04,1.44-0.39,5.53-0.39,5.53"/>
</g>
<g id="Trim_Armored_Toe_Right" fill="rgb(0, 133, 255)">
<path d="M36.75,227.42l7.73,1.86l6.52,3.94l-1.35,0.74l-6.91-4.02l-7.7-1.8L36.75,227.42"/>
<path d="M44.48,229.29l-1.74,0.66"/>
</g>
</g></g>
</g>
<g id="FootDecals" mask="url(#FootMask)">
</g>
<g id="Knees">
<g id="Left-Knee">
<g id="None-(Nih-Plates)_Knee_Left" class="option" style="display: inherit;">
</g></g>
<g id="Right-Knee">
<g id="None-(Nih-Plates)_Knee_Right" class="option" style="display: inherit;">
</g></g>
</g>
<g id="KneesDecals" mask="url(#KneesMask)">
</g>
<g id="Thighs">
<g id="Left-Thigh"><g id="Heavy_Thigh_Left" class="option" style="display: inherit;">
<g id="Thigh_Heavy-Thigh_Left" fill="rgb(51, 48, 181)">
<path d="M97.62,118.12l-5.78,7.32l6.6,26.24l4.49,1.59l-3.13-29.91L97.62,118.12"/>
<path d="M112.37,116.59l7.17,5.98l-1.03,27.03l-4.06,2.47l-3.13-29.91L112.37,116.59"/>
<path d="M112.37,116.59l-14.76,1.52l2.19,5.24l11.51-1.19L112.37,116.59"/>
<path d="M111.32,122.17l-11.51,1.19l3.13,29.91l11.51-1.19L111.32,122.17"/>
</g>
<g id="Trim_Heavy-Thigh_Left" fill="rgb(0, 133, 255)">
<path d="M112.95,114.3l-16.38,1.69l1.04,2.13l14.76-1.52L112.95,114.3"/>
<path d="M119.26,120.01l-6.31-5.72l-0.58,2.3l7.17,5.98L119.26,120.01"/>
<path d="M91.59,122.87l4.99-6.88l1.04,2.13l-5.78,7.32L91.59,122.87"/>
</g>
</g></g>
<g id="Right-Thigh"><g id="Basic_Thigh_Right" class="option" style="display: inherit;">
<path id="Thigh_Basic-Thigh_Right" d="M49.69,115.6c0,0,5.03-6.43,7.59-7.49c2.43-1.01,5.69-0.58,7.78,1.09 c3.19,2.54,10.51,8.04,11.35,14.16c0.93,6.83-4.08,21.95-5.78,26.84c-0.58,1.66-2.77,2.41-4.44,2.48 c-3.1,0.12-11.57-0.15-13.59-4.69C49.85,141.81,49.69,115.6,49.69,115.6" fill="rgb(51, 48, 181)"/>
<path id="Trauma-Plate_Basic-Thigh_Right" class="toggle" style="display:none" d="M51.39,116.19c0.75-0.93,2.56-3.1,4.3-4.77 c0.83-0.79,1.62-1.49,2.25-1.75c1.9-0.79,4.44-0.45,6.06,0.85c1.85,1.47,5.15,3.97,7.66,7.02c1.52,1.85,2.77,3.9,3.07,6.05 c0.9,6.64-4.05,21.31-5.7,26.06c-0.14,0.42-0.54,0.67-0.95,0.87c-0.61,0.3-1.33,0.45-1.94,0.47c-1.73,0.07-5.27,0.02-8.23-0.96 c-1.63-0.54-3.12-1.33-3.75-2.73c-0.78-1.75-1.3-5.22-1.7-9.2C51.59,129.59,51.42,118.81,51.39,116.19" fill="rgb(255, 255, 255)"/>
<g id="Ridge_Basic-Thigh_Right" class="toggle" style="" fill="rgb(0, 133, 255)">
<path d="M58.17,107.57l3.48-0.89l3.64,1.99l-1.18,44.01c-2.4,0.46-2.43,0.55-4.54-0.08L58.17,107.57"/>
<path d="M61.62,106.69l0.1,46.36"/>
</g>
</g>
</g>
</g>
<g id="ThighsDecals" mask="url(#ThighsMask)">
</g>
<g id="Groin">
<g id="None_Groin" class="option" style="display: inherit;">
</g></g>
<g id="GroinDecals" mask="url(#GroinMask)">
</g>
<g id="Waist">
<g id="Accessories_Waist">
<g id="Kama" class="toggle" style="display:none"/>
<g id="Loin-Cloth" class="toggle" style="display:none"/>
<g id="Left-Holster" class="toggle" style="display:none"/>
<g id="Right-Holster" class="toggle" style="display:none"/>
<g id="Left-Trophy" class="toggle" style="display:none"/>
<g id="Right-Trophy" class="toggle" style="display:none"/>
</g>
<g id="Under-Belt"><g id="Girth-Belt" class="option" fill="rgb(42, 48, 51)" style="display: inherit;">
<path d="M84.93,84.93c-9.33,0-27.98-2.25-27.98-2.25l0.61-1.91c0,0,18.19,1.5,27.37,2.25 c9.13-0.75,27.37-2.25,27.37-2.25l0.6,1.91C112.91,82.68,94.25,84.93,84.93,84.93z"/>
<path d="M84.93,86.84c-9.52,0-28.56-2.25-28.56-2.25l0.58-1.91c0,0,23.31,1.88,27.98,2.25 c4.66-0.38,27.98-2.25,27.98-2.25l0.58,1.91C113.49,84.59,94.45,86.84,84.93,86.84z"/>
<path d="M84.93,88.75c-9.67,0-28.99-2.25-28.99-2.25l0.43-1.91c0,0,23.8,1.88,28.56,2.25 c4.76-0.38,28.56-2.25,28.56-2.25l0.43,1.91C113.92,86.49,94.6,88.75,84.93,88.75z"/>
<path d="M84.93,90.65c-9.79,0-29.36-2.25-29.36-2.25l0.37-1.91c0,0,24.16,1.88,28.99,2.25 c4.83-0.38,28.99-2.25,28.99-2.25l0.37,1.91C114.29,88.4,94.72,90.65,84.93,90.65z"/>
<path d="M84.93,92.56c-9.9,0-29.69-2.25-29.69-2.25l0.33-1.91c0,0,24.47,1.88,29.36,2.25 c4.89-0.38,29.36-2.25,29.36-2.25l0.33,1.91C114.62,90.31,94.83,92.56,84.93,92.56z"/>
<path d="M84.93,94.47c-10,0-30-2.25-30-2.25l0.31-1.91c0,0,24.74,1.88,29.69,2.25c4.95-0.38,29.69-2.25,29.69-2.25 l0.31,1.91C114.93,92.21,94.93,94.47,84.93,94.47z"/>
<path d="M84.93,96.37c-10.1,0-30.31-2.25-30.31-2.25l0.31-1.91c0,0,25,1.88,30,2.25c5-0.38,30-2.25,30-2.25 l0.31,1.91C115.24,94.12,95.03,96.37,84.93,96.37z"/>
<path d="M84.93,98.28c-10.21,0-30.62-2.25-30.62-2.25l0.32-1.91c0,0,25.26,1.88,30.31,2.25 c5.05-0.38,30.31-2.25,30.31-2.25l0.32,1.91C115.55,96.03,95.14,98.28,84.93,98.28z"/>
<path d="M84.93,100.19c-10.32,0-30.97-2.25-30.97-2.25l0.34-1.91c0,0,25.52,1.88,30.62,2.25 c5.1-0.38,30.62-2.25,30.62-2.25l0.35,1.91C115.9,97.93,95.25,100.19,84.93,100.19z"/>
<path d="M84.93,102.09c-10.45,0-31.36-2.25-31.36-2.25l0.39-1.91c0,0,25.81,1.88,30.97,2.25 c5.16-0.38,30.97-2.25,30.97-2.25l0.39,1.91C116.29,99.84,95.38,102.09,84.93,102.09z"/>
</g>
</g>
<g id="Belt">
<g id="Pouch-Belt-Full" class="option" style="display: inherit;">
<path id="Main_Pouch-Belt-Full" d="M115.21,92.96c-6.82,0.61-22.4,2.82-30.27,2.82c-7.94,0-23.52-2.23-30.26-2.82 l1.01-7.93c5.53,0.49,21.56,2.74,29.26,2.74c7.47,0,23.17-2.23,29.07-2.76L115.21,92.96z" fill="rgb(42, 48, 51)"/>
<g id="Pouches_Pouch-Belt-Full" fill="rgb(57, 85, 110)">
<g>
<g>
<g>
<path d="M70.81,84.99c-0.29-0.02-0.58,0.03-0.84,0.13c-0.71,0.28-2.1,0.82-2.1,0.82l8.08,0.46l2.19-0.93 C78.13,85.47,72.44,85.1,70.81,84.99z"/>
<path d="M78.41,85.74c0.01-0.09-0.03-0.17-0.1-0.22c-0.07-0.05-0.16-0.06-0.24-0.03 c-0.7,0.3-2.14,0.91-2.14,0.91l-1.05,12.41c0.72-0.42,1.44-0.69,2.15-0.84c0.41-0.08,0.7-0.43,0.71-0.85 C77.88,93.32,78.03,89.52,78.41,85.74z"/>
<path d="M75.94,86.4l-8.08-0.46c-0.05,1.89-0.23,3.77-0.33,5.65c-0.11,2.08-0.15,4.18-0.34,6.28 c-0.01,0.15,0.04,0.3,0.14,0.41c0.1,0.11,0.25,0.17,0.4,0.17c2.32-0.01,4.63,0.13,6.93,0.4c0.14,0.02,0.29-0.03,0.4-0.12 c0.11-0.09,0.18-0.23,0.19-0.37c0.1-1.47,0.37-5.34,0.37-5.34L75.94,86.4z"/>
<path d="M75.94,86.4l-8.08-0.46c0,0-0.19,1.59-0.38,3.14c-0.09,0.75,0.13,1.51,0.62,2.09 c0.49,0.58,1.2,0.94,1.96,0.98c0.96,0.05,2.01,0.11,2.97,0.17c0.76,0.04,1.51-0.23,2.07-0.75c0.55-0.52,0.86-1.25,0.86-2.01 C75.95,88,75.94,86.4,75.94,86.4z"/>
<path d="M71.64,90.76c0.29,0.02,0.51,0.26,0.49,0.55c-0.02,0.29-0.26,0.5-0.55,0.49 c-0.29-0.02-0.51-0.26-0.49-0.55S71.36,90.75,71.64,90.76z"/>
</g>
</g>
<g>
<g>
<path d="M59.65,83.48c-0.31-0.02-0.62,0.03-0.91,0.16c-0.67,0.29-1.86,0.81-1.86,0.81l7.38,0.42l2-0.95 C66.26,83.92,61.24,83.58,59.65,83.48z"/>
<path d="M66.52,84.2c0.01-0.09-0.03-0.17-0.1-0.22c-0.07-0.05-0.17-0.06-0.24-0.02c-0.66,0.31-1.91,0.9-1.91,0.9 l-1.02,12.42c0.65-0.41,1.29-0.68,1.93-0.85c0.39-0.09,0.68-0.44,0.69-0.84C65.99,91.79,66.15,87.99,66.52,84.2z"/>
<path d="M64.26,84.86l-7.38-0.42c-0.06,1.89-0.23,3.77-0.33,5.65c-0.11,2.08-0.16,4.17-0.34,6.28 c-0.01,0.15,0.04,0.3,0.14,0.41c0.1,0.11,0.25,0.17,0.4,0.17c2.08-0.01,4.15,0.11,6.22,0.36c0.14,0.02,0.29-0.02,0.4-0.12 c0.11-0.09,0.18-0.23,0.19-0.37c0.1-1.47,0.37-5.34,0.37-5.34L64.26,84.86z"/>
<path d="M64.26,84.86l-7.38-0.42c0,0-0.18,1.6-0.36,3.15c-0.09,0.75,0.14,1.5,0.63,2.08 c0.49,0.58,1.2,0.93,1.96,0.97c0.73,0.04,1.51,0.09,2.23,0.13c0.76,0.04,1.51-0.23,2.06-0.75c0.55-0.52,0.87-1.24,0.86-2 C64.26,86.47,64.26,84.86,64.26,84.86z"/>
<path d="M60.31,89.24c0.26,0.01,0.46,0.26,0.44,0.54c-0.02,0.29-0.24,0.51-0.5,0.49 c-0.26-0.01-0.46-0.26-0.44-0.54C59.83,89.44,60.05,89.22,60.31,89.24z"/>
</g>
</g>
<g>
<path d="M52.22,84.3l0.55-0.85l2.83,0.09l0.35,1.06L52.22,84.3z"/>
<path d="M55.93,84.7c0.01-0.07-0.01-0.13-0.06-0.18s-0.11-0.08-0.17-0.08c-0.85-0.03-3.48-0.13-3.48-0.13 l-0.5,11.17c0.11,0.28,1.53,0.46,2.68,0.49c0.5,0.01,0.91-0.38,0.92-0.88C55.4,91.61,55.53,88.15,55.93,84.7z"/>
</g>
</g>
<g>
<g>
<g>
<path d="M99.08,84.99c0.29-0.02,0.58,0.03,0.85,0.13c0.71,0.28,2.1,0.82,2.1,0.82l-8.08,0.46l-2.19-0.93 C91.76,85.47,97.45,85.1,99.08,84.99z"/>
<path d="M91.48,85.74c-0.01-0.09,0.03-0.17,0.1-0.22c0.07-0.05,0.16-0.06,0.24-0.03c0.7,0.3,2.14,0.91,2.14,0.91 L95,98.82c-0.72-0.42-1.44-0.69-2.15-0.84c-0.41-0.08-0.7-0.43-0.71-0.85C92.01,93.32,91.86,89.52,91.48,85.74z"/>
<path d="M93.95,86.4l8.08-0.46c0.05,1.89,0.23,3.77,0.33,5.65c0.11,2.08,0.15,4.18,0.34,6.28 c0.01,0.15-0.04,0.3-0.14,0.41c-0.1,0.11-0.25,0.17-0.4,0.17c-2.32-0.01-4.63,0.13-6.93,0.4c-0.14,0.02-0.29-0.03-0.4-0.12 c-0.11-0.09-0.18-0.23-0.19-0.37c-0.1-1.47-0.37-5.34-0.37-5.34L93.95,86.4z"/>
<path d="M93.95,86.4l8.08-0.46c0,0,0.19,1.59,0.38,3.14c0.09,0.75-0.14,1.51-0.62,2.09 c-0.49,0.58-1.2,0.94-1.96,0.98c-0.96,0.05-2.01,0.11-2.97,0.17c-0.76,0.04-1.51-0.23-2.06-0.75s-0.87-1.25-0.86-2.01 C93.94,88,93.95,86.4,93.95,86.4z"/>
<path d="M98.25,90.76c-0.29,0.02-0.51,0.26-0.49,0.55c0.02,0.29,0.26,0.5,0.55,0.49 c0.29-0.02,0.51-0.26,0.49-0.55C98.78,90.96,98.54,90.75,98.25,90.76z"/>
</g>
</g>
<g>
<g>
<path d="M110.24,83.48c0.31-0.02,0.62,0.03,0.91,0.16c0.67,0.29,1.86,0.81,1.86,0.81l-7.38,0.42l-2-0.95 C103.63,83.92,108.65,83.58,110.24,83.48z"/>
<path d="M103.37,84.2c-0.01-0.09,0.03-0.17,0.1-0.22c0.07-0.05,0.17-0.06,0.24-0.02c0.66,0.31,1.91,0.9,1.91,0.9 l1.02,12.42c-0.65-0.41-1.29-0.68-1.93-0.85c-0.39-0.09-0.68-0.44-0.69-0.84C103.9,91.79,103.74,87.99,103.37,84.2z"/>
<path d="M105.63,84.86l7.38-0.42c0.06,1.89,0.23,3.77,0.33,5.65c0.11,2.08,0.16,4.17,0.34,6.28 c0.01,0.15-0.04,0.3-0.14,0.41c-0.1,0.11-0.25,0.17-0.4,0.17c-2.08-0.01-4.15,0.11-6.22,0.36c-0.14,0.02-0.29-0.02-0.4-0.12 c-0.11-0.09-0.18-0.23-0.19-0.37c-0.1-1.47-0.37-5.34-0.37-5.34L105.63,84.86z"/>
<path d="M105.63,84.86l7.38-0.42c0,0,0.18,1.6,0.36,3.15c0.09,0.75-0.14,1.5-0.63,2.08 c-0.49,0.58-1.2,0.93-1.96,0.97c-0.72,0.04-1.5,0.09-2.23,0.13c-0.76,0.04-1.51-0.23-2.06-0.75c-0.55-0.52-0.87-1.24-0.86-2 C105.63,86.47,105.63,84.86,105.63,84.86z"/>
<path d="M109.58,89.24c-0.26,0.01-0.46,0.26-0.44,0.54c0.02,0.29,0.24,0.51,0.5,0.49s0.46-0.26,0.44-0.54 C110.07,89.44,109.84,89.22,109.58,89.24z"/>
</g>
</g>
<g>
<path d="M117.67,84.3l-0.55-0.85l-2.83,0.09l-0.35,1.06L117.67,84.3z"/>
<path d="M113.96,84.7c-0.01-0.07,0.01-0.13,0.06-0.18s0.11-0.08,0.18-0.08c0.85-0.03,3.48-0.13,3.48-0.13 l0.5,11.17c-0.11,0.28-1.53,0.46-2.68,0.49c-0.5,0.01-0.91-0.38-0.92-0.88C114.49,91.61,114.36,88.15,113.96,84.7z"/>
</g>
</g>
<path d="M88.56,85.67l1.11,1.08l-9.15-0.17l0.71-1L88.56,85.67z"/>
<path d="M80.52,86.58l9.12,0.17c-0.1,1.97-0.06,3.93-0.11,5.9c-0.06,2.18-0.18,4.37-0.15,6.57 c0,0.15-0.06,0.3-0.17,0.4c-0.11,0.1-0.26,0.16-0.41,0.15c-2.65-0.2-5.31-0.25-7.97-0.15c-0.14,0-0.28-0.05-0.39-0.15 c-0.1-0.1-0.16-0.24-0.16-0.38c0.01-1.51,0.03-5.6,0.03-5.6L80.52,86.58z"/>
<path d="M80.52,86.58l9.12,0.17c0,0,0.08,1.74,0.17,3.4c0.04,0.76-0.25,1.5-0.78,2.05 c-0.53,0.55-1.27,0.85-2.04,0.83c-1.28-0.02-2.79-0.05-4.07-0.08c-0.77-0.01-1.49-0.35-2.01-0.91c-0.51-0.57-0.76-1.32-0.7-2.08 C80.36,88.31,80.52,86.58,80.52,86.58z"/>
<path d="M84.98,91.45c-0.32-0.01-0.59,0.23-0.6,0.53c0,0.3,0.25,0.54,0.58,0.55c0.32,0.01,0.59-0.23,0.6-0.53 C85.56,91.7,85.3,91.46,84.98,91.45z"/>
</g>
</g></g>
</g>
<g id="WaistDecals" mask="url(#WaistMask)">
</g>
<g id="Extras_Front">
<g id="Front"><g id="None_Front" class="option" style="display: inherit;">
</g>
</g>
</g>
<g id="Extras-FrontDecals" mask="url(#FrontMask)">
</g>
</g>
</svg>