<?xml version='1.0' encoding='UTF-8'?>
<svg version="1.1" id="Male-Body" xmlns="http://www.w3.org/2000/svg" xmlns:serif="http://www.serif.com/" viewBox="0 -55 170 300" style="stroke-width: 0.2px; fill-rule: evenodd; stroke-linejoin: round;" width="170" height="300">
<style>
mask {
mask-type: alpha;
}
.decal {
stroke: none;
}
</style>
<defs id="Masks" stroke="none">
<mask id="HelmetsMask"> <use href="#Helmets"/> </mask>
<mask id="CollarMask"> <use href="#Collar"/> </mask>
<mask id="ShouldersMask"> <use href="#Shoulders"/> </mask>
<mask id="ChestMask"> <use href="#Chest"/> </mask>
<mask id="BicepsMask"> <use href="#Biceps"/> </mask>
<mask id="GauntletsMask"> <use href="#Gauntlets"/> </mask>
<mask id="WaistMask"> <use href="#Waist"/> </mask>
<mask id="GroinMask"> <use href="#Groin"/> </mask>
<mask id="ThighsMask"> <use href="#Thighs"/> </mask>
<mask id="KneesMask"> <use href="#Knees"/> </mask>
<mask id="ShinsMask"> <use href="#Shins"/> </mask>
<mask id="FootMask"> <use href="#Foot"/> </mask>
</defs>
<defs id="Decals"/><metadata><rdf:rdf xmlns:rdf="http://www.w3.org/1999/02/22-rdf-syntax-ns#" xmlns:rdfs="http://www.w3.org/2000/01/rdf-schema#" xmlns:dc="http://purl.org/dc/elements/1.1/"><rdf:description><dc:creator>MandoCreator</dc:creator><dc:publisher>https://www.mandocreator.com</dc:publisher><dc:description>Your Beskar'gam - created by MandoCreator</dc:description><dc:format>image/svg+xml</dc:format><dc:type>Image</dc:type><dc:title>MandoCreator - Ner Berskar'gam</dc:title><dc:date>2022-01-02T16:23:31.096Z</dc:date></rdf:description></rdf:rdf></metadata><g id="Main-Body" fill="white" stroke="black">
<g id="Extras_Back">
<g id="Back"><path id="Full-Cape_Back" class="option" d="M68.3,16.3c-11.77,4.4-24.85,25.6-26.46,41.8c-1.01,10.2-6.03,20.5-5.53,30.7 c0.5,10.3-4.73,21-5.13,31.2c-0.3,9.3-3.12,13.5-4.73,22.7c-2.41,13.7-5.03,22.7-7.14,36.5c-1.71,10.9-6.84,19.9-9.25,23.3 c-0.2,0.3,14.99-0.1,18.01-0.5c9.96-1.6,17.5-2.1,27.36,0.3c10.66,2.6,21.23,4.2,32.09,1.8c10.56-2.3,20.42-7.8,31.18-8.8 c8.35-0.8,16.6,1.9,24.65,3.8c2.01,0.5,4.83,1.7,7.04,1.5c0.1,0-0.71-4.9-0.8-5.4c-1.01-5.1-3.42-10-6.24-14.4 c-7.14-11.2-4.63-23.4-5.93-36.6c-1.21-12.8,0.1-25.6-2.11-38.4c-1.91-11.3-8.65-21.8-10.36-33.2c-2.01-13.4-6.54-27.7-10.66-40.7 C109.44,16.1,80.07,11.9,68.3,16.3z" fill="rgb(128, 128, 128)" style="display: inherit;"/></g>
</g>
<g id="Extras-BackDecals" mask="url(#BackMask)">
</g>
<g id="Suit">
<g id="Neck-Seal"><g id="Standard-Neck-Seal" class="option" fill="rgb(64, 64, 64)" style="display: inherit;">
<path d="M98.75,7.5c0-0.9-0.93-1.62-2.07-1.62c0,0-7.8,0.85-11.7,0.85s-11.7-0.85-11.7-0.85 c-1.14,0-2.07,0.73-2.07,1.62s0.93,1.62,2.07,1.62c0,0,7.8,0.85,11.7,0.85s11.7-0.85,11.7-0.85C97.83,9.13,98.75,8.4,98.75,7.5z"/>
<path d="M99.45,9.4c0-0.94-0.97-1.71-2.17-1.71c0,0-8.2,0.9-12.29,0.9S72.69,7.7,72.69,7.7 c-1.2,0-2.17,0.76-2.17,1.71s0.97,1.71,2.17,1.71c0,0,8.2,0.9,12.29,0.9s12.29-0.9,12.29-0.9C98.48,11.11,99.45,10.34,99.45,9.4z "/>
<path d="M100.24,11.76c0-0.99-1.03-1.8-2.29-1.8c0,0-8.64,0.95-12.96,0.95S72.02,9.96,72.02,9.96 c-1.26,0-2.29,0.81-2.29,1.8s1.03,1.8,2.29,1.8c0,0,8.64,0.95,12.97,0.95s12.96-0.95,12.96-0.95 C99.21,13.56,100.24,12.75,100.24,11.76z"/>
<path d="M101,13.92c0-1.04-1.08-1.89-2.41-1.89c0,0-9.08,0.99-13.61,0.99s-13.61-0.99-13.61-0.99 c-1.33,0-2.41,0.85-2.41,1.89c0,1.04,1.08,1.89,2.41,1.89c0,0,9.08,0.99,13.61,0.99s13.61-0.99,13.61-0.99 C99.93,15.81,101,14.96,101,13.92z"/>
<path d="M101.76,16.04c0-0.79-1.13-1.43-2.52-1.43c0,0-9.51,0.75-14.26,0.75s-14.26-0.75-14.26-0.75 c-1.39,0-2.52,0.64-2.52,1.43c0,0.79,1.13,1.43,2.52,1.43c0,0,9.51,0.75,14.26,0.75s14.26-0.75,14.26-0.75 C100.63,17.47,101.76,16.83,101.76,16.04z"/>
<path d="M101.76,18.42c0-0.79-1.13-1.43-2.52-1.43c0,0-9.51,0.75-14.26,0.75s-14.26-0.75-14.26-0.75 c-1.39,0-2.52,0.64-2.52,1.43c0,0.79,1.13,1.43,2.52,1.43c0,0,9.51,1.44,14.26,1.44s14.26-1.44,14.26-1.44 C100.63,19.84,101.76,19.21,101.76,18.42z"/>
</g>
</g>
<g id="Flight-Suit" fill="rgb(64, 64, 64)">
<path d="M73.36,158.45l-1.49,8.72l-11.03,53.11c0,0-4.93,2.96-7.47,3.46c-2.53,0.5-7.73-0.44-7.73-0.44l3.85-43 l2.9-18.36l0.66-7.82c0,0-2.53-22.78-1.7-34.14c0.82-11.36,6.66-34.01,6.66-34.01l26.98,0.58l26.97-0.58 c0,0,5.83,22.66,6.66,34.01c0.83,11.36-1.7,34.14-1.7,34.14l0.66,7.82l2.9,18.36l3.85,43c0,0-5.32,1.19-7.85,0.69 c-2.53-0.5-7.34-3.71-7.34-3.71L98.1,167.16l-1.49-8.72l-11.62-30.33L73.36,158.45z"/>
<g>
<path d="M129.41,43.33l11.98,41.65l1.04,21.47l-9.55,1.83l-6.05-20.21l-13.65-33.95l0.69-15.55l2.31-3.72 L129.41,43.33z"/>
<path d="M40.59,43.3l13.19-8.45l2.31,3.72l0.52,16.04L43.17,88.07l-6.05,20.21l-9.55-1.83l1.03-21.47L40.59,43.3z"/>
</g>
</g>
<g id="Sleeves" class="toggle" fill="rgb(64, 64, 64)">
<g>
<path d="M112.2,56.12l2.68,5.9c0,0,4.24-3.2,7.06-4.8s4.38-2.62,6.92-3.6c2.54-0.98,5.08-1.47,5.08-1.47l-6.07-12.25 l-5.79-9.67l-11.58,5.14L112.2,56.12z"/>
<path d="M113.61,59.24c-0.2-0.24,5.08-4.5,8.61-6.34c3.53-1.84,10.25-3.69,10.25-3.69"/>
</g>
<g>
<path d="M57.8,56.12l-2.68,5.9c0,0-4.24-3.2-7.06-4.8c-2.82-1.59-4.38-2.62-6.92-3.6c-2.54-0.98-5.08-1.47-5.08-1.47 l6.07-12.25l5.79-9.67l11.58,5.14L57.8,56.12z"/>
<path d="M56.39,59.24c0.2-0.24-5.08-4.5-8.61-6.34c-3.53-1.84-10.25-3.69-10.25-3.69"/>
</g>
</g>
</g>
<g id="Boots"><g id="Gunslinger_Boots" class="option" style="display: inherit;">
<g id="Main_Gunslinger-Boot" fill="rgb(196, 202, 206)">
<path d="M107.7,226.61c0.04,0.2,0.73,3.41,4.27,4.29c1.18,0.3,3.21-0.33,4.48-0.98c1.74-0.89,3.57-1.58,5.44-2.12 l0.06,0.08c0.03,0.04,0.06,0.08,0.09,0.12c0.58,0.81,1.21,1.57,1.89,2.26l0.05,0.05l0.03,0.03c0.07,0.07,0.14,0.14,0.21,0.2 c0.4,0.38,0.81,0.74,1.23,1.07l0.12,0.09l0.1,0.07c0.03,0.02,0.06,0.04,0.09,0.06c0.07,0.05,0.13,0.1,0.2,0.14 c0.88,0.62,2.06,1.56,3.23,1.39c1.11-0.16,2.35-0.6,3.28-1.04c0.78-0.37,1.59-0.87,2.13-1.4c0.16-0.12,0.29-0.26,0.39-0.44 c2.57,1,5.36,1.38,6.73,4.22c0.3,0.62,0.55,1.35,0.49,2.04c-0.08,0.89-1.06,1-1.82,1.2c-1.9,0.51-3.53,0.89-5.72,1.34 c-2.5,0.52-4.76,0.83-7.29,0.72c-1.89-0.08-3.49-0.18-5.14-1.19c-0.66-0.41-1.34-0.82-1.92-1.35c-1.28-1.19-2.11-2.43-3.77-3.15 c-1.2-0.52-2.44-0.96-3.71-1.27c-1.8-0.45-3.74-0.76-4.69-2.54C107.42,229.16,107.51,227.91,107.7,226.61L107.7,226.61"/>
<path d="M62.28,226.61c-0.04,0.2-0.73,3.41-4.27,4.29c-1.18,0.3-3.2-0.33-4.48-0.98c-1.74-0.89-3.57-1.58-5.44-2.12 l-0.05,0.08c-0.03,0.04-0.06,0.08-0.09,0.12c-0.58,0.81-1.21,1.57-1.89,2.26l-0.05,0.05l-0.03,0.03 c-0.07,0.07-0.14,0.14-0.21,0.2c-0.4,0.38-0.81,0.74-1.23,1.07l-0.12,0.09l-0.1,0.07c-0.03,0.02-0.06,0.04-0.09,0.06 c-0.07,0.05-0.13,0.1-0.2,0.14c-0.88,0.62-2.06,1.56-3.23,1.39c-1.1-0.16-2.35-0.6-3.28-1.04c-0.78-0.37-1.59-0.87-2.13-1.4 c-0.16-0.12-0.29-0.26-0.39-0.44c-2.57,1-5.36,1.38-6.73,4.22c-0.3,0.62-0.55,1.35-0.48,2.04c0.08,0.89,1.06,1,1.82,1.2 c1.9,0.51,3.53,0.89,5.72,1.34c2.5,0.52,4.76,0.83,7.29,0.72c1.89-0.08,3.49-0.18,5.14-1.19c0.66-0.41,1.35-0.82,1.92-1.35 c1.28-1.19,2.11-2.43,3.77-3.15c1.2-0.52,2.44-0.96,3.71-1.27c1.8-0.45,3.74-0.76,4.69-2.54 C62.56,229.16,62.48,227.91,62.28,226.61L62.28,226.61"/>
</g>
<g id="Bottom_Gunslinger-Boot" fill="rgb(64, 64, 64)">
<path d="M107.64,229.04c0.08,0.49,0.24,0.98,0.51,1.49c0.95,1.78,2.89,2.09,4.69,2.54c1.27,0.32,2.51,0.75,3.71,1.27 c1.66,0.72,2.48,1.96,3.77,3.15c0.57,0.53,1.25,0.94,1.92,1.35c1.65,1.01,3.25,1.11,5.14,1.19c2.53,0.1,4.78-0.2,7.29-0.72 c2.19-0.46,3.82-0.84,5.72-1.34c0.61-0.16,1.36-0.27,1.67-0.76l0,0l0.36,0.8l0.21,1.64c0,0-2.03,1.09-4.2,1.57 c-2.16,0.48-6.53,1.15-6.53,1.15l-0.3-0.71l-0.98,0.21l0.05,0.7l-2.38,0.13l-0.51-0.69l-0.79,0.02l0.12,0.61 c0,0-1.47-0.02-2.29-0.51c-0.15-0.23-0.46-0.61-0.46-0.61l-0.56-0.31l0.07,0.58l-2.04-0.73l-0.1-0.79l-0.59-0.34l-0.03,0.57 l-1.46-1.12l-0.16-0.69l-3.64-2.55l-0.57,1.33l-2.55-0.55l-0.08-0.55l-0.65-0.27l-0.45,0.42l-1.71-0.7l-0.04-0.51l-0.56-0.19 l-0.06,0.37l-1.62-1.12l-0.31-2.23l-0.07-2.42L107.64,229.04L107.64,229.04"/>
<path d="M62.35,229.04c-0.08,0.49-0.24,0.98-0.51,1.49c-0.95,1.78-2.89,2.09-4.69,2.54 c-1.27,0.32-2.51,0.75-3.71,1.27c-1.66,0.72-2.48,1.96-3.77,3.15c-0.57,0.53-1.25,0.94-1.92,1.35c-1.65,1.01-3.25,1.11-5.14,1.19 c-2.53,0.1-4.78-0.2-7.29-0.72c-2.19-0.46-3.83-0.84-5.72-1.34c-0.61-0.16-1.36-0.27-1.67-0.76l0,0l-0.36,0.8l-0.21,1.64 c0,0,2.03,1.09,4.2,1.57c2.16,0.48,6.53,1.15,6.53,1.15l0.3-0.71l0.98,0.21l-0.05,0.7l2.38,0.13l0.51-0.69l0.8,0.02l-0.12,0.61 c0,0,1.47-0.02,2.29-0.51c0.15-0.23,0.46-0.61,0.46-0.61l0.56-0.31l-0.07,0.58l2.04-0.73l0.1-0.79l0.59-0.34l0.02,0.57l1.46-1.12 l0.16-0.69l3.64-2.55l0.57,1.33l2.55-0.55l0.08-0.55l0.65-0.27l0.45,0.42l1.71-0.7l0.04-0.51l0.56-0.19l0.07,0.37l1.62-1.12 l0.31-2.23l0.07-2.42L62.35,229.04L62.35,229.04"/>
</g>
<g id="Top_Gunslinger-Boot" fill="rgb(215, 190, 105)">
<path d="M121.87,227.77c-2.17-3.11-3.64-6.92-4.16-10.29l0,0l0.61-0.05l0.02,0l0.07-0.01l0.2-0.02l0.31-0.03 l0.13-0.02c0.35-0.04,0.7-0.09,1.04-0.14l0.54-0.1l0.11-0.03l0.04-0.01l0.08-0.02l0.37-0.09l0.33-0.08l0.06-0.01 c1.15-0.29,2.31-0.64,2.31-0.64c0.32,1.48,0.47,3.17,1.09,4.56c0.98,2.18,2.78,3.85,4.46,5.51c1.15,1.14,2.28,2.44,3.66,3.31 c0.58,0.37,1.21,0.66,1.84,0.9c-0.49,0.67-1.54,1.37-2.53,1.84c-0.93,0.44-2.17,0.88-3.28,1.04c-1.17,0.17-2.35-0.77-3.23-1.39 c-1.53-1.07-2.89-2.53-4.06-4.19L121.87,227.77"/>
<path d="M48.12,227.77c2.17-3.11,3.64-6.92,4.16-10.29l0,0l-0.61-0.05l-0.02,0l-0.08-0.01l-0.2-0.02l-0.31-0.03 l-0.13-0.02c-0.35-0.04-0.7-0.09-1.04-0.14l-0.54-0.1l-0.11-0.03l-0.04-0.01l-0.08-0.02l-0.37-0.09l-0.33-0.08l-0.06-0.01 c-1.15-0.29-2.31-0.64-2.31-0.64c-0.32,1.48-0.47,3.17-1.09,4.56c-0.98,2.18-2.78,3.85-4.46,5.51c-1.15,1.14-2.28,2.44-3.66,3.31 c-0.58,0.37-1.21,0.66-1.84,0.9c0.49,0.67,1.53,1.37,2.53,1.84c0.93,0.44,2.17,0.88,3.28,1.04c1.17,0.17,2.35-0.77,3.23-1.39 c1.53-1.07,2.89-2.53,4.06-4.19L48.12,227.77"/>
</g>
<g id="Side_Gunslinger-Boot" fill="rgb(169, 169, 169)">
<path d="M121.89,227.8c-1.87,0.54-3.7,1.24-5.44,2.12c-1.27,0.65-3.3,1.27-4.48,0.98c-3.66-0.92-4.27-4.3-4.27-4.3 c0.11-0.74,0.25-1.5,0.3-2.3c0.1-1.54-0.11-8.21,0.02-8.14c2.94,1.56,8.18,1.45,9.67,1.33l0,0 C118.23,220.86,119.71,224.69,121.89,227.8"/>
<path d="M48.09,227.8c1.87,0.54,3.7,1.24,5.44,2.12c1.27,0.65,3.3,1.27,4.48,0.98c3.66-0.92,4.27-4.3,4.27-4.3 c-0.11-0.74-0.25-1.5-0.3-2.3c-0.1-1.54,0.11-8.21-0.02-8.14c-2.94,1.56-8.18,1.45-9.67,1.33l0,0 C51.76,220.86,50.28,224.69,48.09,227.8"/>
</g>
</g></g>
<g id="Gloves">
<g id="Left-Glove"><g id="Basic_Left_Glove" class="option" fill="rgb(64, 64, 64)" style="display: inherit;">
<path d="M138.6,124.11c-0.54-0.03-1.05-0.01-1.58,0.1c-0.36,0.08-0.72,0.16-1.04,0.35 c-0.99,0.57-0.72,1.81,0.16,2.28c1.03,0.55,2.66,0.01,3.13-1.05C139.46,125.35,138.86,124.53,138.6,124.11"/>
<path d="M136.79,125.19c-0.54-0.03-1.05-0.02-1.59,0.1c-0.36,0.08-0.72,0.16-1.04,0.35 c-0.99,0.57-0.72,1.81,0.16,2.28c1.03,0.55,2.66,0.01,3.13-1.05C137.65,126.43,137.05,125.61,136.79,125.19"/>
<path d="M135.49,126.65c-0.54,0.05-1.19,0.13-1.7,0.31c-0.35,0.12-0.69,0.26-0.99,0.48c-0.9,0.7-0.47,1.89,0.47,2.24 c1.1,0.41,2.64-0.35,2.96-1.46C136.36,127.76,135.49,126.65,135.49,126.65z"/>
<path d="M132.55,110.05c0,0-1.56,2.15-1.97,3.69c-0.29,1.09-0.13,3.68-0.49,5.43c-0.36,1.74-0.69,2.71-0.69,2.71 s-1.38,2.79-1.14,3.43c0.24,0.64,1.45,1.21,2.15,0.87c0.86-0.42,1.93-2.39,2.61-3.77c0.69-1.41,1.25-3.41,1.25-3.41 s0.95,0.32,1.43,0.7c1.61,1.24,0.91,4.96,0.91,4.96s-0.66,1.33-1.66,2.83c-1.36,2.05-3.46,3.81-2.07,5.37 c1.29,1.46,4.22-2.37,4.22-2.37l2.87-3.73c0,0,3.3-5.41,3.47-6.46c0.13-0.8,0.02-3.47,0.02-3.47l-1.03-10.37l-5.24,0.44 l-4.31,1.39L132.55,110.05"/>
</g>
</g>
<g id="Right-Glove"><g id="Basic_Right_Glove" class="option" fill="rgb(64, 64, 64)" style="display: inherit;">
<path d="M31.4,124.11c0.54-0.03,1.05-0.01,1.58,0.1c0.36,0.08,0.72,0.16,1.04,0.35c0.99,0.57,0.72,1.81-0.16,2.28 c-1.03,0.55-2.66,0.01-3.13-1.05C30.53,125.35,31.14,124.53,31.4,124.11"/>
<path d="M33.21,125.19c0.54-0.03,1.05-0.02,1.58,0.1c0.36,0.08,0.72,0.16,1.04,0.35c0.99,0.57,0.72,1.81-0.16,2.28 c-1.03,0.55-2.66,0.01-3.13-1.05C32.35,126.43,32.95,125.61,33.21,125.19"/>
<path d="M34.51,126.65c0.54,0.05,1.19,0.13,1.7,0.31c0.35,0.12,0.69,0.26,0.99,0.48c0.9,0.7,0.47,1.89-0.47,2.24 c-1.1,0.41-2.64-0.35-2.96-1.46C33.64,127.76,34.51,126.65,34.51,126.65z"/>
<path d="M37.45,110.05c0,0,1.56,2.15,1.97,3.69c0.29,1.09,0.13,3.68,0.49,5.43c0.36,1.74,0.69,2.71,0.69,2.71 s1.38,2.79,1.14,3.43c-0.24,0.64-1.45,1.21-2.15,0.87c-0.86-0.42-1.93-2.39-2.61-3.77C36.29,121,35.73,119,35.73,119 s-0.95,0.32-1.43,0.7c-1.61,1.24-0.91,4.96-0.91,4.96s0.66,1.33,1.66,2.83c1.36,2.05,3.46,3.81,2.08,5.37 c-1.29,1.46-4.22-2.37-4.22-2.37l-2.87-3.73c0,0-3.3-5.41-3.47-6.46c-0.13-0.8-0.02-3.47-0.02-3.47l1.03-10.37l5.24,0.44 l4.31,1.39L37.45,110.05"/>
</g>
</g>
</g>
<g id="Biceps">
<g id="Left-Biceps"><g id="Full-Band_Biceps_Left" class="option" style="display: inherit;">
<path id="Main_Full-Band_Biceps_Left" d="M114.12,60.46l-0.85-2.32l0.45-13.76c0,0,1.06-0.36,2.62-0.89 c7.17-2.42,14.97,1.25,17.67,8.32c0.4,1.06,0.66,1.73,0.66,1.73L114.12,60.46" fill="rgb(196, 202, 206)"/>
<g id="Trim_Full-Band_Biceps_Left" fill="rgb(215, 190, 105)">
<path d="M130.31,49.15c1.11,0,2.02,0.87,2.02,1.93c0,1.07-0.9,1.93-2.02,1.93c-1.11,0-2.02-0.86-2.02-1.93 C128.29,50.02,129.2,49.15,130.31,49.15"/>
<path d="M134.67,53.53l0.47,1.29c0.13,0.36,0.11,0.76-0.05,1.1c-0.17,0.35-0.47,0.61-0.83,0.73 c-3.77,1.26-14.16,4.74-17.85,5.98c-0.74,0.25-1.54-0.14-1.8-0.86l-0.49-1.32L134.67,53.53"/>
</g>
</g></g>
<g id="Right-Biceps"><g id="Full-Band_Biceps_Right" class="option" style="display: inherit;">
<path id="Main_Full-Band_Biceps_Right" d="M55.91,60.46l0.85-2.32l-0.45-13.76c0,0-1.06-0.36-2.62-0.89 c-7.17-2.42-14.97,1.25-17.67,8.32c-0.4,1.06-0.66,1.73-0.66,1.73L55.91,60.46" fill="rgb(196, 202, 206)"/>
<g id="Trim_Full-Band_Biceps_Right" fill="rgb(215, 190, 105)">
<path d="M39.71,49.15c-1.11,0-2.02,0.87-2.02,1.93c0,1.07,0.9,1.93,2.02,1.93c1.11,0,2.02-0.86,2.02-1.93 C41.73,50.02,40.82,49.15,39.71,49.15"/>
<path d="M35.36,53.53l-0.47,1.29c-0.13,0.36-0.11,0.76,0.06,1.1c0.17,0.35,0.47,0.61,0.83,0.73 c3.77,1.26,14.16,4.74,17.85,5.98c0.74,0.25,1.54-0.14,1.8-0.86l0.49-1.32L35.36,53.53"/>
</g>
</g></g>
</g>
<g id="BicepsDecals" mask="url(#BicepsMask)">
</g>
<path id="Vest" d="M85,20.92c8.5-0.01,15.43-4.3,15.63-8.01l0.15,0.02l18.38,5.42l13.31,23.94l-2.86,1.16l-13.42-8.6 l-2.31,3.72l-1.54,47.4c0,0-8.72,4.71-13.53,5.35c-3.44,0.45-8.63,0.68-13.79,0.67c-5.16,0.01-10.35-0.22-13.79-0.67 c-4.81-0.63-13.53-5.35-13.53-5.35l-1.54-47.4l-2.31-3.72l-13.42,8.6l-2.86-1.16l13.31-23.94l18.38-5.42l0.15-0.02 C69.57,16.62,76.5,20.92,85,20.92" fill="rgb(64, 64, 64)"/>
<g id="SuitDecals" mask="url(#SuitMask)">
</g>
<g class="swappable" id="Chest"><g id="Chest_Heavy">
<g id="Abdomen_Heavy">
<g id="Under-Plates_Abdomen_Heavy" fill="rgb(215, 190, 105)">
<rect x="73.86" y="69.99" width="22.29" height="2.83"/>
<rect x="73.86" y="72.82" width="22.29" height="2.83"/>
<rect x="73.86" y="75.65" width="22.29" height="2.83"/>
<rect x="73.86" y="78.48" width="22.29" height="2.83"/>
<rect x="73.86" y="81.31" width="22.29" height="2.83"/>
</g>
<g id="Abdomen-Plate_Heavy" fill="rgb(169, 169, 169)">
<path d="M78.16,60.86l-11.11,4.69L66,63.03l12.15-5.13V60.86z"/>
<path d="M70.94,74.95l-3.9-9.4l11.11-4.69l3.48,9.89L70.94,74.95z"/>
<path d="M66,63.03l-4.67,0.81l6.89,16.28l4.7-0.93L66,63.03z"/>
<path d="M91.84,60.86l11.11,4.69l1.04-2.52L91.84,57.9V60.86z"/>
<path d="M99.06,74.95l3.9-9.4l-11.11-4.69l-3.48,9.89L99.06,74.95z"/>
<path d="M104,63.03l4.67,0.81l-6.89,16.28l-4.7-0.93L104,63.03z"/>
<rect x="78.19" y="57.9" width="13.61" height="2.96"/>
<path d="M81.63,70.75l-3.48-9.89h13.69l-3.48,9.89H81.63z"/>
</g>
</g>
<g id="Neck-Armor_Heavy">
<g id="Neck-Plate_Heavy" fill="rgb(196, 202, 206)">
<path d="M69.69,11.62l-9.62,2.1c0,0,0.44,1.7,0.92,3.57c0.69,2.66,3.35,4.31,6.04,3.72h0 c1.26-0.27,2.35-1.05,3.03-2.15s0.88-2.42,0.56-3.67C70.13,13.33,69.69,11.62,69.69,11.62z"/>
<path d="M100.31,11.62l9.62,2.1c0,0-0.44,1.7-0.92,3.57c-0.68,2.66-3.35,4.31-6.04,3.72h0 c-1.26-0.27-2.35-1.05-3.03-2.15s-0.88-2.42-0.56-3.67C99.87,13.33,100.31,11.62,100.31,11.62z"/>
</g>
<g id="Secondary_Neck-Plate_Heavy" fill="rgb(215, 190, 105)">
<path d="M67.3,11.8l-4.84,1.06c0,0,0.35,1.36,0.69,2.67c0.34,1.34,1.69,2.16,3.04,1.87c0,0,0,0,0,0 c0.63-0.14,1.18-0.53,1.52-1.08c0.34-0.55,0.44-1.22,0.28-1.85C67.65,13.16,67.3,11.8,67.3,11.8z"/>
<path d="M102.7,11.8l4.84,1.06c0,0-0.35,1.36-0.69,2.67c-0.34,1.34-1.69,2.16-3.04,1.87c0,0,0,0,0,0 c-0.63-0.14-1.18-0.53-1.52-1.08c-0.34-0.55-0.44-1.22-0.28-1.85C102.35,13.16,102.7,11.8,102.7,11.8z"/>
</g>
</g>
<g id="Full-Chest_Heavy">
<path id="Under-Plate_Chest_Heavy" d="M90.5,54.56H79.5l-2.76,2.36v1.58l1.45-0.6h13.61l1.45,0.61v-1.59 L90.5,54.56z" fill="rgb(215, 190, 105)"/>
<g id="Chest-Plate_Heavy" fill="rgb(196, 202, 206)">
<path d="M65.78,61.66l9.75-5.63l1.32-2.67l2.6,0.35h11.11l2.6-0.35l1.32,2.67l9.75,5.63l4.53,0.99l-0.11,1.65 l-4.85-0.84l-10.54-4.37v-2.17l-2.76-2.36H79.5l-2.76,2.36v2.17l-10.54,4.37l-4.85,0.84l-0.11-1.65L65.78,61.66z"/>
<path d="M108.75,62.64l5.64-14.4l0.83,2.95l-1.79,10.71L108.75,62.64z"/>
<path d="M54.78,51.19l0.83-2.95l5.64,14.4l-4.68-0.74L54.78,51.19z"/>
<path d="M61.09,42.62v-6.02l-0.46-10.79l2.81-3.1l8.51-1.76l2.2,2.57h21.69l2.2-2.57l8.51,1.76l2.81,3.1 l-0.45,10.53l-0.01-0.02v6.31L93.15,53.36l-2.6,0.35H79.45l-2.6-0.35L61.09,42.62z"/>
<path d="M108.91,36.61v6.02l5.49,5.61L108.91,36.61z"/>
<path d="M76.85,53.36L61.09,42.62l-5.49,5.61l5.64,14.4l4.53-0.99l9.75-5.63L76.85,53.36z"/>
<path d="M114.4,48.24l-5.64,14.4l-4.53-0.99l-9.75-5.63l-1.32-2.67l15.75-10.74L114.4,48.24z"/>
<path d="M113.43,61.9l-0.19,1.15l-4.61,1.24l0.12-1.65L113.43,61.9z"/>
<path d="M61.09,36.61v6.02l-5.49,5.61L61.09,36.61z"/>
<path d="M60.63,25.82c-0.06,5.53-0.71,11.07-2.28,16.61l2.74-5.82L60.63,25.82z"/>
<path d="M109.38,25.82c0.06,5.53,0.72,11.07,2.28,16.61l-2.74-5.82L109.38,25.82z"/>
<path d="M61.25,62.64l0.11,1.65l-4.61-1.24l-0.19-1.15L61.25,62.64z"/>
</g>
<g id="Accents_Chest-Plate_Heavy" class="toggle">
<g id="Accent-3_Accents_Chest-Plate_Heavy" fill="rgb(255, 255, 255)">
<path d="M97.88,36.45l-0.58-1.79h2.63l-0.57,1.79H97.88z"/>
<path d="M97.88,39.92l-0.58-1.79h2.63l-0.57,1.79H97.88z"/>
<rect x="96.19" y="25.8" width="4.93" height="0.54"/>
<rect x="96.19" y="27.52" width="4.93" height="0.54"/>
</g>
<path id="Accent-2_Accents_Chest-Plate_Heavy" d="M70.47,23.02c-0.12-1.57-1.48-2.76-3.06-2.66c0,0,0,0,0,0 c-0.73,0.05-1.42,0.39-1.9,0.94c-0.48,0.56-0.72,1.28-0.67,2.01c0.06,0.86,0.14,1.8,0.2,2.66c0.12,1.57,1.48,2.76,3.06,2.66h0 c0.73-0.05,1.42-0.39,1.9-0.94c0.48-0.55,0.72-1.28,0.67-2.01C70.6,24.82,70.53,23.88,70.47,23.02z" fill="rgb(255, 255, 255)"/>
<g id="Accent-1_Accents_Chest-Plate_Heavy" fill="rgb(255, 255, 255)">
<path d="M69.65,20.78l-4.33,0.28l0.54,7.14l4.33-0.28L69.65,20.78z"/>
<path d="M69.18,21.34l-3.31,0.21l0.08,1.02l3.3-0.21L69.18,21.34z"/>
<path d="M66.4,22.55l-0.45,0.03l0.42,5.59l0.45-0.03L66.4,22.55z"/>
<path d="M66.88,22.51l-0.45,0.03l0.42,5.6l0.45-0.03L66.88,22.51z"/>
<path d="M69.25,22.36l-0.45,0.03l0.42,5.59l0.45-0.03L69.25,22.36z"/>
<path d="M68.78,22.39l-0.45,0.03l0.42,5.6l0.45-0.03L68.78,22.39z"/>
<path d="M67.83,22.45l-0.45,0.03l0.42,5.6l0.45-0.03L67.83,22.45z"/>
<path d="M68.3,22.42l-0.45,0.03l0.42,5.6l0.45-0.03L68.3,22.42z"/>
<path d="M67.35,22.49l-0.45,0.03l0.42,5.59l0.45-0.03L67.35,22.49z"/>
</g>
</g>
</g>
<g id="Iron-Heart_Heavy">
<path id="Heart_Heavy" d="M85,31.46l3.24,2.99v5.86L85,43.28l-3.24-2.98v-5.86L85,31.46z" fill="rgb(215, 190, 105)"/><g id="Center_Heart_Heavy" class="option" fill="rgb(196, 202, 206)" style="display: inherit;">
<rect x="83.82" y="34.53" width="2.36" height="2.84"/>
<rect x="83.82" y="37.37" width="0.39" height="2.84"/>
<rect x="85.39" y="37.37" width="0.39" height="2.84"/>
<rect x="85.79" y="37.37" width="0.39" height="2.84"/>
<rect x="84.6" y="37.37" width="0.39" height="2.84"/>
<rect x="85" y="37.37" width="0.39" height="2.84"/>
<rect x="84.21" y="37.37" width="0.39" height="2.84"/>
</g>
</g>
</g></g>
<g id="ChestDecals" mask="url(#ChestMask)">
</g>
<g id="Chest-Attachments"><g id="Bandoleer_Accessories_Chest" class="option" style="display: inherit;">
<g id="Strap_Bandoleer_Accessories_Chest" fill="rgb(64, 64, 64)">
<path d="M113.05,15.37l-6.61-3.15L64.67,87.5l6.61,3.62L113.05,15.37"/>
<path d="M111.26,14.16l-2.51-1.17l-8.34,15.03l2.41,1.32L111.26,14.16"/>
<path d="M99.44,35.85l-2.76-1.51L83.86,57.44l2.76,1.51L99.44,35.85"/>
<path d="M99.71,36.72l-3.92-2.15l-1.28,2.32l3.92,2.15L99.71,36.72"/>
<path d="M98.15,39.53l-3.92-2.15l-1.28,2.32l3.92,2.15L98.15,39.53"/>
<path d="M96.6,42.33l-3.92-2.15L91.4,42.5l3.92,2.15L96.6,42.33"/>
<path d="M95.04,45.14l-3.92-2.15l-1.28,2.32l3.92,2.15L95.04,45.14"/>
<path d="M93.48,47.94l-3.92-2.15l-1.29,2.32l3.92,2.15L93.48,47.94"/>
<path d="M90.37,53.55l-3.92-2.15l-1.29,2.32l3.92,2.15L90.37,53.55"/>
<path d="M91.93,50.75l-3.92-2.15l-1.29,2.32l3.92,2.15L91.93,50.75"/>
<path d="M88.82,56.36l-3.92-2.15l-1.28,2.31l3.92,2.15L88.82,56.36"/>
</g>
<g id="Ammo_Bandoleer_Accessories_Chest" fill="rgb(196, 202, 206)">
<g>
<g>
<path d="M99.57,36.97l1.6,0.88c0.17,0.09,0.23,0.31,0.14,0.48c-0.18,0.33-0.47,0.85-0.66,1.18 c-0.1,0.17-0.31,0.23-0.48,0.14l-1.6-0.88L99.57,36.97z"/>
<path d="M100.75,37.61l-0.13-0.07l-1,1.8l0.13,0.07L100.75,37.61z"/>
<path d="M100.47,37.46l-0.13-0.07l-1,1.8l0.14,0.07L100.47,37.46z"/>
</g>
<g>
<path d="M95.65,34.82l-1,1.8l-1.6-0.88c-0.17-0.09-0.23-0.31-0.14-0.48c0.18-0.33,0.47-0.85,0.66-1.19 c0.09-0.17,0.31-0.23,0.48-0.14L95.65,34.82z"/>
<path d="M94.44,34.15l-0.13-0.07l-1,1.8l0.14,0.07L94.44,34.15z"/>
</g>
</g>
<g>
<g>
<path d="M96.45,42.6l1.6,0.88c0.17,0.09,0.23,0.31,0.14,0.48c-0.18,0.33-0.47,0.85-0.66,1.19 c-0.09,0.17-0.31,0.23-0.48,0.14l-1.6-0.88L96.45,42.6z"/>
<path d="M97.63,43.24l-0.13-0.07l-1,1.8l0.13,0.07L97.63,43.24z"/>
<path d="M97.35,43.09l-0.13-0.07l-1,1.8l0.13,0.07L97.35,43.09z"/>
</g>
<g>
<path d="M92.53,40.45l-1,1.8l-1.6-0.88c-0.17-0.09-0.23-0.31-0.14-0.48c0.18-0.33,0.47-0.85,0.66-1.19 c0.1-0.17,0.31-0.23,0.48-0.14L92.53,40.45z"/>
<path d="M91.32,39.78l-0.13-0.07l-1,1.8l0.13,0.07L91.32,39.78z"/>
</g>
</g>
<g>
<g>
<path d="M94.9,45.38l1.6,0.88c0.17,0.09,0.23,0.31,0.14,0.48c-0.18,0.33-0.47,0.85-0.66,1.18 c-0.09,0.17-0.31,0.23-0.48,0.14l-1.6-0.88L94.9,45.38z"/>
<path d="M96.08,46.03l-0.13-0.07l-1,1.8l0.13,0.07L96.08,46.03z"/>
<path d="M95.8,45.88l-0.13-0.07l-1,1.8l0.13,0.07L95.8,45.88z"/>
</g>
<g>
<path d="M90.98,43.24l-1,1.8l-1.6-0.88c-0.17-0.09-0.23-0.31-0.14-0.48c0.18-0.33,0.47-0.85,0.66-1.19 c0.1-0.17,0.31-0.23,0.48-0.14L90.98,43.24z"/>
<path d="M89.77,42.57l-0.13-0.07l-1,1.8l0.13,0.07L89.77,42.57z"/>
</g>
</g>
<g>
<g>
<path d="M93.34,48.21l1.6,0.88c0.17,0.09,0.23,0.31,0.14,0.48c-0.18,0.33-0.47,0.85-0.66,1.19 c-0.09,0.17-0.31,0.23-0.48,0.14l-1.6-0.88L93.34,48.21z"/>
<path d="M94.52,48.85l-0.13-0.07l-1,1.8l0.13,0.07L94.52,48.85z"/>
<path d="M94.24,48.7l-0.13-0.07l-1,1.8l0.13,0.07L94.24,48.7z"/>
</g>
<g>
<path d="M89.42,46.06l-1,1.8l-1.6-0.88c-0.17-0.09-0.23-0.31-0.14-0.48c0.18-0.33,0.47-0.85,0.66-1.18 c0.1-0.17,0.31-0.23,0.48-0.14L89.42,46.06z"/>
<path d="M88.21,45.39l-0.13-0.07l-1,1.8l0.13,0.07L88.21,45.39z"/>
</g>
</g>
</g>
<g id="Buckles_Bandoleer_Accessories_Chest" fill="rgb(215, 190, 105)">
<g>
<path d="M104,27.77l-2.88-1.58l-1.63,2.93l2.88,1.58L104,27.77z"/>
<path d="M103.26,28.27l-2.17-1.19l-1.63,2.93l2.17,1.19L103.26,28.27z"/>
</g>
<path d="M104,24.34l-1.86-1.01l1.61-2.92l3.76,2.05l-1.61,2.92L104,24.34l0.36-0.65l1.06,0.58l0.89-1.61l-2.07-1.13 l-0.89,1.61l1.01,0.55"/>
</g>
</g></g>
<g id="Collar"><g id="Cloth-Wrap-Right_Collar" class="option" style="display: inherit;">
<g id="Main_Cloth-Wrap-Right_Collar" fill="rgb(105, 105, 105)">
<path d="M94.88,22.25c5-1.56,5.91-4.07,6.21-6.59c0.12-1.03-1.36-3.72,0.17-4.41c1.73-0.78,5.81,0.44,7.49,0.8 c1.25,0.27,2.36,0.58,3.63,0.59c2.94,0.03,5.28,1.99,5.54,3.45c0.37,2.04-3.27,2.78-4.97,4.33c-4.26,3.88-5.74,9.13-14.69,10.57 c-4.11,0.66-8.18-0.27-11.99-1.12c-9.86-2.19-15.23-4.07-21.57-8.93c-2.77-2.13-6.95-3.86-6.85-6.71 c0.01-0.12,2.02-1.31,2.22-1.36c1.78-0.44,3.29-1.17,5.24-1.21c1.17-0.02,0.98,0.98,1.06,1.43c0.33,1.74,1.93,3.05,3.93,4.36 C75.6,20.92,87.64,21.99,94.88,22.25z"/>
<path d="M94.88,22.25c1.32,0.05,2.48,0.25,3.5,0.32c4.57,0.28,6.21-0.83,7.09-2.86"/>
<path d="M109.1,12.11c1.32,2.14,1.15,4.67,0.1,6.33"/>
<path d="M70.71,18.23c3.43,4.66,8.51,6.13,14.08,6.7"/>
<path d="M61.44,12.49c0.2,1.18,0.91,1.62,1.78,2.41c0.5,0.46,1.12,0.78,1.52,1.35c0.14,0.2,0.22,0.44,0.31,0.67"/>
</g>
<path id="Buckle_Cloth-Wrap-Right_Collar" d="M71.89,17.35l-2.91-2.08l-5.06,7.02l2.91,2.08L71.89,17.35z" fill="rgb(215, 190, 105)"/>
</g></g>
<g id="CollarDecals" mask="url(#CollarMask)">
</g>
<g id="Helmets" class="swappable" transform="translate(45,-52)"><g id="Helmet_Gunslinger">
<g id="Left-Earcap_Gunslinger" class="toggle"><g id="Ear-Cap_Left_Gunslinger" fill="rgb(215, 190, 105)">
<path d="M59.92,40.84l-0.66,0.28l-0.14,0.68h1.26L59.92,40.84z"/>
<path d="M60.29,35.29l-0.41-0.88l-1.2-0.33v2.89h1.61V35.29z"/>
<path d="M58.24,42.77l1.98-0.16l0.07,2.89l-1.61,0.71l0.44,11.49l-0.44,0.31L58.24,42.77z"/>
<path d="M59.83,45.71l0.09,9.74l-0.81,2.27l-0.44-11.49L59.83,45.71z"/>
<path d="M60.78,42.61l-0.85-1.77l-0.66,0.28l-0.25,1.19l-0.34,0.05v-1.37l1.61-0.65l0.79,2.28H60.78z"/>
<path d="M60.29,40.33v-3.36h-1.61v4.01L60.29,40.33z"/>
<path d="M60.29,35.29l0.61,1.68l0.18,5.64l-0.79-2.28V35.29z"/>
<rect x="58.68" y="35.97" width="1.2" height="1"/>
<path d="M59.02,42.31h1.62l-0.25-0.51h-1.26L59.02,42.31z"/>
<path d="M60.22,42.61l-0.34-0.3h-0.86l-0.34,0.05l-0.44,0.41L60.22,42.61z"/>
<path d="M58.68,34.6l-0.94-0.07l0.02,0.77l0.47,7.48l0.45-0.41V34.6z"/>
</g>
</g>
<g id="Right-Earcap_Gunslinger" class="toggle"><g id="Ear-Cap_Right_Gunslinger" fill="rgb(215, 190, 105)">
<path d="M20.08,40.87l0.66,0.28l0.14,0.68h-1.26L20.08,40.87z"/>
<path d="M19.71,35.32l0.41-0.88l1.2-0.33V37h-1.61V35.32z"/>
<path d="M21.76,42.79l-1.98-0.16l-0.07,2.89l1.61,0.72l-0.44,11.49l0.44,0.31L21.76,42.79z"/>
<path d="M20.17,45.73l-0.09,9.74l0.81,2.27l0.44-11.49L20.17,45.73z"/>
<path d="M19.22,42.64l0.85-1.77l0.66,0.28l0.25,1.19l0.34,0.05v-1.37l-1.61-0.65l-0.79,2.28H19.22z"/>
<path d="M19.71,40.35V37h1.61v4.01L19.71,40.35z"/>
<path d="M19.71,35.32L19.1,37l-0.18,5.64l0.79-2.28V35.32z"/>
<rect x="20.12" y="36" width="1.2" height="1"/>
<path d="M20.98,42.33h-1.61l0.25-0.51h1.26L20.98,42.33z"/>
<path d="M19.78,42.64l0.34-0.3h0.86l0.34,0.05l0.44,0.41L19.78,42.64z"/>
<path d="M21.32,34.62l0.94-0.07l-0.02,0.77l-0.47,7.47l-0.45-0.41V34.62z"/>
</g>
</g>
<g id="Helmet_Pieces_Gunslinger">
<g id="Face_Gunslinger" fill="rgb(196, 202, 206)">
<path d="M23.18,59.57l2.42-9.55l0.01,0c0.18,0.01,3.1,0.32,5.98,4.61c2,2.99,2.57,11.45,2.57,11.45L23.18,59.57z"/>
<path d="M56.8,59.57l-2.42-9.55l-0.01,0c-0.18,0.01-3.1,0.32-5.98,4.61c-2,2.99-2.57,11.45-2.57,11.45L56.8,59.57z"/>
</g>
<g id="Cheeks_Gunslinger" fill="rgb(169, 169, 169)">
<path d="M21.77,42.33l-0.45,15.93l1.86,1.31l2.42-9.55L21.77,42.33z"/>
<path d="M58.21,42.33l0.45,15.93l-1.86,1.31l-2.42-9.55L58.21,42.33z"/>
<path d="M21.79,42.34c0.32,0.08,5.51,1.37,8.64,6.39c3.12,5.02,4.47,16.59,4.55,17.31l0,0.03h-0.82 c0,0-0.56-8.46-2.57-11.45c-2.97-4.43-5.99-4.61-5.99-4.61l-3.82-7.68L21.79,42.34z"/>
<path d="M58.19,42.34c-0.32,0.08-5.51,1.37-8.64,6.39c-3.12,5.02-4.47,16.59-4.55,17.31l0,0.03h0.82 c0,0,0.56-8.46,2.57-11.45c2.97-4.43,5.99-4.61,5.99-4.61l3.83-7.68L58.19,42.34z"/>
</g>
<path fill="rgb(3, 2, 2)" id="Visor_Gunslinger" d="M22.72,37.76l17.27,0.93l17.27-0.93v1.43l-13.48,3.15l-0.94,21.71h-5.7L36.2,42.33 l-13.48-3.15V37.76z"/>
<g id="Eyes_Gunslinger" fill="rgb(196, 202, 206)">
<path d="M22.72,37.76v1.43l13.48,3.15l0.94,21.71l-2.16,2.03c0,0-1.33-12.16-4.55-17.34 c-3.22-5.18-8.65-6.4-8.65-6.4l0.47-7.02h35.5l0.47,7.02c0,0-5.43,1.21-8.65,6.4c-3.22,5.18-4.55,17.34-4.55,17.34l-2.16-2.03 l0.94-21.71l13.48-3.15v-1.43l-17.27,0.93L22.72,37.76z"/>
<rect x="22.21" y="35.77" width="35.56" height="0.46"/>
</g>
<path id="Dome_Gunslinger" d="M57.74,35.32h-35.5c0-9.07,7.95-16.43,17.75-16.43C49.79,18.89,57.74,26.25,57.74,35.32 z" fill="rgb(196, 202, 206)"/>
<path id="Ridge-2_Gunslinger" d="M37.94,37.13l-1.56-1.81V19.23c0,0,1.1-0.58,3.6-0.53l0.03,0 c2.48-0.05,3.58,0.53,3.58,0.53v16.09l-1.56,1.81H37.94z" fill="rgb(215, 190, 105)"/>
<path id="Ridge-1_Gunslinger" d="M38.47,34.92l-0.28-0.28V18.78c0,0,0.55-0.14,1.8-0.08l0.03,0 c1.23-0.05,1.77,0.09,1.77,0.09v15.85l-0.28,0.28H38.47z" fill="rgb(169, 169, 169)"/>
</g>
</g></g>
<g id="HelmetsDecals" mask="url(#HelmetsMask)"/>
<g id="Shoulders">
<g id="Left-Shoulder"><g id="Legacy-x3_Shoulder_Left" class="option" style="display: inherit;">
<path id="Plate-3_Shoulder_Left_Legacy-x3" d="M119.95,19.89l-7.33,7.47l4.29,9.25l9.66-0.51l5.11,4.66l4.55-0.32 L119.95,19.89z" fill="rgb(215, 190, 105)"/>
<path id="Trauma-Plate-3_Shoulder_Legacy-x3_Left" class="toggle" style="" d="M132.3,39.03l2.94-0.21L121.2,21.04l-6.54,6.67 l3.32,7.16l8.89-0.55L132.3,39.03z" fill="rgb(128, 128, 128)"/>
<path id="Plate-2_Shoulder_Left_Legacy-x3" d="M115.99,15.27l-5.8,8.69l5.95,8.29l9.39-2.29l5.9,3.63l4.41-1.15 L115.99,15.27z" fill="rgb(215, 190, 105)"/>
<path id="Trauma-Plate-2_Shoulder_Legacy-x3_Left" class="toggle" style="" d="M131.69,31.78l2.85-0.74l-17.1-14.9l-5.19,7.75 l4.6,6.43l8.64-2.17L131.69,31.78z" fill="rgb(169, 169, 169)"/>
<path id="Plate-1_Shoulder_Left_Legacy-x3" d="M108.85,10.82l-2.61,10.1l8.36,5.89l8.12-5.22l6.77,1.51l3.79-2.53 L108.85,10.82z" fill="rgb(215, 190, 105)"/>
<path id="Trauma-Plate-1_Shoulder_Legacy-x3_Left" class="toggle" style="" d="M129.14,21.3l2.45-1.64L110.5,11.2l-2.33,9.02 l6.47,4.56l7.43-4.88L129.14,21.3z" fill="rgb(196, 202, 206)"/>
</g></g>
<g id="Right-Shoulder"><g id="Pauldron_Shoulder_Right" class="option" style="display: inherit;">
<path id="Main_Pauldron_Shoulder_Right" d="M68.5,15.95L40.6,29.09L27.16,15.16l36.11-4.34L68.5,15.95z" fill="rgb(215, 190, 105)"/>
<g id="Plate_Pauldron_Shoulder_Right" fill="rgb(196, 202, 206)">
<path d="M29.72,15.42l11.26,11.62l24.6-11.58l-3.99-3.92L29.72,15.42z"/>
<path d="M29.24,14.91L61,11.09l-0.36-0.41l-31.6,3.68L29.24,14.91z"/>
</g>
</g></g>
</g>
<g id="ShouldersDecals" mask="url(#ShouldersMask)">
</g>
<g id="Gauntlets">
<g id="Left-Gauntlets"><g id="Heavy_Gauntlet_Left" class="option" style="display: inherit;">
<g id="Top-2_Heavy_Gauntlet_Left" fill="rgb(215, 190, 105)">
<path d="M140.68,79.64l1.74,0.13l1.43,8.11l-1.48,1.23L140.68,79.64z"/>
<path d="M142.25,88.39l1.82,10.57l-0.95,1.28l1.11,6.22l-0.44,0.32l-3.07-17.02L142.25,88.39z"/>
<ellipse cx="142.26" cy="85.76" rx="0.38" ry="0.38"/>
</g>
<g id="Top-1_Heavy_Gauntlet_Left" fill="rgb(196, 202, 206)">
<path d="M139.42,107.96l4.36-1.17l-3.07-17.02l1.54-1.38l-1.66-9.27l-6.59-0.67L139.42,107.96z"/>
<path d="M138.89,78.94l1.82,10.82"/>
</g>
<g id="Accent-Top_Heavy_Gauntlet_Left" fill="rgb(215, 190, 105)">
<path d="M142.53,104.17l-2.77,0.56l0.42,2.15l2.77-0.65L142.53,104.17z"/>
<path d="M140.78,95.16l-2.77,0.56l1.62,8.4l2.77-0.56L140.78,95.16z"/>
<path d="M138.29,79.56l-3.13-0.24l1.64,9.21l2.91-0.59L138.29,79.56z"/>
</g>
<path id="Bottom_Heavy_Gauntlet_Left" d="M134.08,78.88c-3.37,0.13-6.88,1.57-9.06,4.4 c-0.71,0.92-0.92,2.12-0.58,3.22c1.64,5.35,7.01,22.84,7.01,22.84l7.98-1.39L134.08,78.88z" fill="rgb(196, 202, 206)"/>
<g id="Accent-Bottom_Heavy_Gauntlet_Left" fill="rgb(215, 190, 105)">
<path d="M139.42,107.96l-7.98,1.39l-0.43-1.41l8.13-1.52L139.42,107.96z"/>
<path d="M134.44,80.86c-4.35,0.43-7.98,2.01-9.69,6.7l-0.32-1.04c-0.27-0.87-0.19-1.8,0.2-2.61l0.41-0.65 c2.19-2.81,5.68-4.24,9.03-4.37L134.44,80.86z"/>
<path d="M133.31,79.53l-3.52,0.69l2.77,13.89l3.52-0.69L133.31,79.53z"/>
<path d="M132.9,79.88l-2.59,0.51l2.56,12.85l2.59-0.51L132.9,79.88z"/>
<path d="M130.3,80.39l-0.51-0.17"/>
<path d="M133.31,79.53l-0.41,0.35"/>
<path d="M136.08,93.42l-0.62-0.7"/>
<path d="M132.56,94.12l0.37-0.89"/>
</g><g id="Flamethrower_Attachment_Heavy_Gauntlet_Left" class="option" style="display: inherit;">
<g id="Tubes_Flamethrower_Attachment_Heavy_Gauntlet_Left" fill="rgb(196, 202, 206)">
<path d="M142.18,79.84l-0.82,0.14l4.36,24.89l0.82-0.14L142.18,79.84z"/>
<path d="M144.06,79.51l-0.82,0.14l3.12,17.84l0.82-0.14L144.06,79.51z"/>
<path d="M142.71,81.35l-1.23,0.21l1.04,5.93l1.24-0.21L142.71,81.35z"/>
<path d="M144.49,81.04l-1.13,0.19l1.04,5.93l1.13-0.2L144.49,81.04z"/>
</g>
<g id="Main_Flamethrower_Attachment_Heavy_Gauntlet_Left" fill="rgb(215, 190, 105)">
<path d="M144.34,79.07l-3.38,0.58l0.34,1.94l3.38-0.58L144.34,79.07z"/>
<path d="M145.8,86.93l-3.53,0.61l0.17,0.95l3.53-0.61L145.8,86.93z"/>
<path d="M145.82,87.9l-3.24,0.56l0.08,0.48l3.24-0.56L145.82,87.9z"/>
<path d="M142.52,86.88L141.98,87l0.51,2.89l0.54-0.11L142.52,86.88z"/>
</g>
<g id="Accent_Flamethrower_Attachment_Heavy_Gauntlet_Left" fill="rgb(215, 190, 105)">
<path d="M147.21,97.35l-0.88,0.15l0.08,1.24l1.15-0.2L147.21,97.35z"/>
<path d="M146.44,90.95l-1.56,0.27l0.33,1.89l1.56-0.27L146.44,90.95z"/>
<path d="M146.56,92.87l-1.13,0.2l0.33,1.89l1.13-0.19L146.56,92.87z"/>
<path d="M146.14,101.55l-1.13,0.2l0.45,2.59l1.13-0.19L146.14,101.55z"/>
<path d="M144.67,93.2l-1.13,0.19l0.62,3.52l1.13-0.2L144.67,93.2z"/>
<path d="M146.58,102.81l-1.56,0.27l0.09,0.5l1.56-0.27L146.58,102.81z"/>
</g>
<path id="Base_Flamethrower_Attachment_Heavy_Gauntlet_Left" d="M141.98,87l-1.39-7.85l1.01,0.21l2.35,13.27 l-0.87,0.59l-0.59-3.32l0.54-0.11l-0.51-2.89L141.98,87z" fill="rgb(215, 190, 105)"/>
</g></g></g>
<g id="Right-Gauntlets"><g id="Heavy_Gauntlet_Right" class="option" style="display: inherit;">
<g id="Top-2_Heavy_Gauntlet_Right" fill="rgb(215, 190, 105)">
<path d="M29.5,79.64l-1.74,0.13l-1.43,8.11l1.48,1.23L29.5,79.64z"/>
<path d="M27.93,88.39l-1.82,10.57l0.95,1.28l-1.11,6.22l0.44,0.32l3.07-17.02L27.93,88.39z"/>
<ellipse cx="27.92" cy="85.76" rx="0.38" ry="0.38"/>
</g>
<g id="Top-1_Heavy_Gauntlet_Right" fill="rgb(196, 202, 206)">
<path d="M30.76,107.96l-4.36-1.17l3.07-17.02l-1.54-1.38l1.66-9.27l6.59-0.67L30.76,107.96z"/>
<path d="M31.29,78.94l-1.82,10.82"/>
</g>
<g id="Accent-Top_Heavy_Gauntlet_Right" fill="rgb(215, 190, 105)">
<path d="M27.66,104.17l2.77,0.56l-0.42,2.15l-2.77-0.65L27.66,104.17z"/>
<path d="M29.4,95.16l2.77,0.56l-1.62,8.4l-2.77-0.56L29.4,95.16z"/>
<path d="M31.89,79.56l3.13-0.24l-1.64,9.21l-2.91-0.59L31.89,79.56z"/>
</g>
<path id="Bottom_Heavy_Gauntlet_Right" d="M36.11,78.88c3.37,0.13,6.88,1.57,9.06,4.4 c0.71,0.92,0.92,2.12,0.58,3.22c-1.64,5.35-7.01,22.84-7.01,22.84l-7.98-1.39L36.11,78.88z" fill="rgb(196, 202, 206)"/>
<g id="Accent-Bottom_Heavy_Gauntlet_Right" fill="rgb(215, 190, 105)">
<path d="M30.76,107.96l7.98,1.39l0.43-1.41l-8.13-1.52L30.76,107.96z"/>
<path d="M35.74,80.86c4.35,0.43,7.98,2.01,9.69,6.7l0.32-1.04c0.27-0.87,0.19-1.8-0.2-2.61l-0.41-0.65 c-2.19-2.81-5.68-4.24-9.03-4.37L35.74,80.86z"/>
<path d="M36.88,79.53l3.52,0.69l-2.77,13.89l-3.52-0.69L36.88,79.53z"/>
<path d="M37.29,79.88l2.59,0.51l-2.56,12.85l-2.59-0.51L37.29,79.88z"/>
<path d="M39.88,80.39l0.51-0.17"/>
<path d="M36.88,79.53l0.41,0.35"/>
<path d="M34.1,93.42l0.62-0.7"/>
<path d="M37.62,94.12l-0.37-0.89"/>
</g>
<g id="Whistling-Birds_Attachment_Heavy_Gauntlet_Right" class="option" style="display: inherit;">
<path id="Head_Whistling-Birds_Attachment_Heavy_Gauntlet_Right" d="M23.97,93.43l2.14,5.53l0.88-5.01 L23.97,93.43z" fill="rgb(215, 190, 105)"/>
<g id="Birds_Whistling-Birds_Attachment_Heavy_Gauntlet_Right" fill="rgb(7, 0, 255)">
<g>
<path d="M26.42,94.23c-0.12-0.02-0.26,0.22-0.31,0.53c-0.06,0.31,0,0.59,0.11,0.61c0.12,0.02,0.26-0.22,0.31-0.53 C26.59,94.52,26.54,94.25,26.42,94.23z"/>
<path d="M26.14,95.83c-0.12-0.02-0.26,0.22-0.31,0.53c-0.05,0.32,0,0.59,0.12,0.61c0.12,0.02,0.26-0.22,0.31-0.53 C26.31,96.12,26.26,95.85,26.14,95.83z"/>
<path d="M25.61,94.09c-0.12-0.02-0.26,0.22-0.31,0.53c-0.06,0.31,0,0.59,0.11,0.61c0.12,0.02,0.26-0.22,0.31-0.53 C25.77,94.38,25.72,94.11,25.61,94.09z"/>
<path d="M25.87,98.37c0.04-0.09,0.08-0.21,0.1-0.33c0.06-0.31,0-0.59-0.11-0.61c-0.08-0.02-0.18,0.1-0.24,0.28 L25.87,98.37z M25.25,96.76c0.08-0.09,0.15-0.26,0.19-0.47c0.06-0.32,0-0.59-0.11-0.61c-0.11-0.02-0.24,0.19-0.3,0.48 L25.25,96.76z M24.61,95.09c0.11,0,0.24-0.24,0.3-0.53c0.06-0.31,0-0.59-0.11-0.61c-0.12-0.02-0.26,0.22-0.31,0.53 c-0.01,0.07-0.02,0.14-0.02,0.21L24.61,95.09z"/>
</g>
</g>
<g id="Base_Whistling-Birds_Attachment_Heavy_Gauntlet_Right" fill="rgb(196, 202, 206)">
<path d="M26.81,78.33l2.02,0.35l-0.16,0.89l-2.02-0.35L26.81,78.33z"/>
<path d="M26.46,79.19l2.21,0.38l-2.5,14.24l-2.21-0.38L26.46,79.19z"/>
<path d="M26.15,79.29l0.29,0.05l-2.16,12.3l-0.29-0.05L26.15,79.29z"/>
<path d="M26.82,79.25l0.29,0.05l-2.34,13.35l-0.29-0.05L26.82,79.25z"/>
</g>
<g id="Accent_Whistling-Birds_Attachment_Heavy_Gauntlet_Right" fill="rgb(215, 190, 105)">
<path d="M28.87,78.46l0.81,0.14l-2.54,14.46l-0.81-0.14L28.87,78.46z"/>
<path d="M23.96,92.51l3.18,0.55l-0.16,0.89L23.8,93.4L23.96,92.51z"/>
<path d="M27.5,78.45l1.33,0.23l-0.36,2.07l-1.33-0.23L27.5,78.45z"/>
<path d="M27.45,80.58l1.01,0.18l-0.86,4.93l-0.69-2.02L27.45,80.58z"/>
</g>
</g></g></g>
</g>
<g id="GauntletsDecals" mask="url(#GauntletsMask)">
</g>
<g id="Shins">
<g id="Left-Shin"><g id="Heavy-Shnees_Shin_Left" class="option" style="display: inherit;">
<g id="Shin_Heavy-Shnees-Shin_Left" fill="rgb(196, 202, 206)">
<path d="M112.07,224.31l4.68-6.1l8.52-1.02l-6.09-55.58l-24.29,3.02l12.33,51.48l0.09,5.64L112.07,224.31"/>
<path d="M98.68,163.41l-2.62-2.14h-1.73c0,0-0.8,4.95-0.63,7.41c0.28,3.98,4.34,9.06,4.34,9.06l2.69,1.26l3.01-6.94 L98.68,163.41"/>
<path d="M116.83,168.97l1.64-8.34c0,0,2.41,4.71,2.64,7.17c0.41,4.36-0.46,7.23-0.46,7.23L116.83,168.97"/>
<path d="M116.75,218.21l8.52-1.02l-2.11-4.26l-5.82,0.52L116.75,218.21"/>
<path d="M120.15,213.19l-6.83-36.52"/>
</g>
<g id="Knee_Heavy-Shnees-Shin_Left" fill="rgb(215, 190, 105)">
<path d="M113.99,153.2l-13.68,2.29l-2.04,9.89l10.06,12.11l9.04-1.28l2.9-14.95L113.99,153.2"/>
<path d="M100.31,155.49l2.93,3.55l10.59-1.66l0.16-4.18L100.31,155.49"/>
<path d="M103.24,159.04l-4.97,6.31l2.03-9.86L103.24,159.04"/>
<path d="M113.83,157.38l6.44,3.88l-6.28-8.06L113.83,157.38"/>
<path d="M113.83,157.38l3.54,18.83l2.9-14.95L113.83,157.38"/>
<path d="M103.24,159.04l-4.97,6.31l10.06,12.15L103.24,159.04"/>
</g>
<g id="Straps_Heavy-Shnees-Shin_Left" class="toggle" fill="rgb(64, 64, 64)">
<path d="M99.72,186.35l5.22-0.86l0.54,2.35l-5.22,0.86L99.72,186.35"/>
<path d="M100.07,186.1l1.11-0.18l0.64,2.78l-1.11,0.18L100.07,186.1"/>
<path d="M105.1,209.05l5.22-0.86l0.54,2.35l-5.22,0.86L105.1,209.05"/>
<path d="M105.44,208.8l1.1-0.18l0.64,2.78l-1.11,0.18L105.44,208.8"/>
</g>
</g></g>
<g id="Right-Shin"><g id="Heavy-Shnees_Shin_Right" class="option" style="display: inherit;">
<g id="Shin_Heavy-Shnees-Shin_Right" fill="rgb(196, 202, 206)">
<path d="M57.82,224.31l-4.68-6.1l-8.52-1.02l6.09-55.58l24.29,3.02l-12.33,51.48l-0.09,5.64L57.82,224.31"/>
<path d="M71.22,163.41l2.62-2.14h1.73c0,0,0.8,4.95,0.63,7.41c-0.28,3.98-4.34,9.06-4.34,9.06L69.18,179l-3.01-6.94 L71.22,163.41"/>
<path d="M53.06,168.97l-1.64-8.34c0,0-2.41,4.71-2.64,7.17c-0.41,4.36,0.46,7.23,0.46,7.23L53.06,168.97"/>
<path d="M53.14,218.21l-8.52-1.02l2.11-4.26l5.82,0.52L53.14,218.21"/>
<path d="M49.74,213.19l6.84-36.52"/>
</g>
<g id="Knee_Heavy-Shnees-Shin_Right" fill="rgb(215, 190, 105)">
<path d="M55.9,153.2l13.68,2.29l2.04,9.89l-10.06,12.11l-9.04-1.28l-2.9-14.95L55.9,153.2"/>
<path d="M69.58,155.49l-2.93,3.55l-10.59-1.66l-0.16-4.18L69.58,155.49"/>
<path d="M66.65,159.04l4.97,6.31l-2.04-9.86L66.65,159.04"/>
<path d="M56.06,157.38l-6.44,3.88l6.28-8.06L56.06,157.38"/>
<path d="M56.06,157.38l-3.54,18.83l-2.9-14.95L56.06,157.38"/>
<path d="M66.65,159.04l4.97,6.31l-10.06,12.15L66.65,159.04"/>
</g>
<g id="Straps_Heavy-Shnees-Shin_Right" class="toggle" fill="rgb(64, 64, 64)">
<path d="M70.17,186.35l-5.22-0.86l-0.54,2.35l5.22,0.86L70.17,186.35"/>
<path d="M69.82,186.1l-1.1-0.18l-0.64,2.78l1.11,0.18L69.82,186.1"/>
<path d="M64.8,209.05l-5.22-0.86l-0.54,2.35l5.22,0.86L64.8,209.05"/>
<path d="M64.45,208.8l-1.11-0.18l-0.64,2.78l1.1,0.18L64.45,208.8"/>
</g>
</g></g>
</g>
<g id="ShinsDecals" mask="url(#ShinsMask)">
</g>
<g id="Foot">
<g id="Left-Ankle"><g id="Legacy_Ankle_Left" class="option" style="display: inherit;">
<path id="Plate-2_Legacy-Ankle_Left" d="M126.71,222.74l4.34,3.89l2.99,3.74l-4.78,1.55l-10.95-2.26l-4.01-5.27 L126.71,222.74" fill="rgb(215, 190, 105)"/>
<path id="Plate-1_Legacy-Ankle_Left" d="M107,215.4c0,0,4.37,1.94,10.84,1.71c4.44-0.16,6.24-1.26,6.24-1.26 l3.76,6.93l-0.97,3.82l-15.84-1.24l-3.9-3.29L107,215.4" fill="rgb(215, 190, 105)"/>
<path id="Trauma-Plate-2_Legacy-Ankle_Left" class="toggle" style="" d="M127.64,223.58l3.39,3.04l1.75,2.18l-3.64,1.18 l-9.65-1.99l-1.58-2.08l8.96,0.7L127.64,223.58" fill="rgb(169, 169, 169)"/>
<path id="Trauma-Plate-1_Legacy-Ankle_Left" class="toggle" style="" d="M108.66,217.83l0.06,3.17l3.15,2.54l13.92,1.09 l0.99-3.82l-1.77-3.27c-1.17,0.33-4.74,1.36-7.08,1.44C114.21,219.12,110.73,218.37,108.66,217.83" fill="rgb(196, 202, 206)"/>
</g></g>
<g id="Left-Toe">
<g id="Armored_Toe_Left" class="option" style="display: inherit;">
<g id="Plate_Armored_Toe_Left" fill="rgb(196, 202, 206)">
<path d="M119.07,233.15l9.63,5.32l7.27,0.49l5.83-1.47c1.22-1.01,1.71-3.29,0.66-5.55l-8.21-3.88l-6.44,1.61 L119.07,233.15"/>
<path d="M127.13,229.95c0,0,7.51,2.19,8.45,3.48c1.04,1.44,0.39,5.53,0.39,5.53"/>
</g>
<g id="Trim_Armored_Toe_Left" fill="rgb(215, 190, 105)">
<path d="M133.13,227.42l-7.73,1.86l-6.52,3.94l1.35,0.74l6.91-4.02l7.7-1.8L133.13,227.42"/>
<path d="M125.39,229.29l1.74,0.66"/>
</g>
</g></g>
<g id="Right-Ankle"><g id="Legacy_Ankle_Right" class="option" style="display: inherit;">
<path id="Plate-2_Legacy-Ankle_Right" d="M43.17,222.74l-4.34,3.89l-2.99,3.74l4.78,1.55l10.95-2.26l4-5.27 L43.17,222.74" fill="rgb(215, 190, 105)"/>
<path id="Plate-1_Legacy-Ankle_Right" d="M62.87,215.4c0,0-4.37,1.94-10.84,1.71c-4.44-0.16-6.24-1.26-6.24-1.26 l-3.76,6.93L43,226.6l15.84-1.24l3.9-3.29L62.87,215.4" fill="rgb(215, 190, 105)"/>
<path id="Trauma-Plate-2_Legacy-Ankle_Right" class="toggle" style="" d="M42.23,223.58l-3.39,3.04l-1.75,2.18l3.64,1.18 l9.65-1.99l1.58-2.08L43,226.6L42.23,223.58" fill="rgb(169, 169, 169)"/>
<path id="Trauma-Plate-1_Legacy-Ankle_Right" class="toggle" style="" d="M61.21,217.83L61.15,221L58,223.54l-13.92,1.09 l-0.99-3.82l1.77-3.27c1.17,0.33,4.74,1.36,7.08,1.44C55.66,219.12,59.14,218.37,61.21,217.83" fill="rgb(196, 202, 206)"/>
</g></g>
<g id="Right-Toe">
<g id="Armored_Toe_Right" class="option" style="display: inherit;">
<g id="Plate_Armored_Toe_Right" fill="rgb(196, 202, 206)">
<path d="M50.81,233.15l-9.63,5.32l-7.27,0.49l-5.83-1.47c-1.22-1.01-1.71-3.29-0.66-5.55l8.21-3.88l6.44,1.61 L50.81,233.15"/>
<path d="M42.74,229.95c0,0-7.51,2.19-8.45,3.48c-1.04,1.44-0.39,5.53-0.39,5.53"/>
</g>
<g id="Trim_Armored_Toe_Right" fill="rgb(215, 190, 105)">
<path d="M36.75,227.42l7.73,1.86l6.52,3.94l-1.35,0.74l-6.91-4.02l-7.7-1.8L36.75,227.42"/>
<path d="M44.48,229.29l-1.74,0.66"/>
</g>
</g></g>
</g>
<g id="FootDecals" mask="url(#FootMask)">
</g>
<g id="Knees">
<g id="Left-Knee">
<g id="None-(Nih-Plates)_Knee_Left" class="option" style="display: inherit;">
</g></g>
<g id="Right-Knee">
<g id="None-(Nih-Plates)_Knee_Right" class="option" style="display: inherit;">
</g></g>
</g>
<g id="KneesDecals" mask="url(#KneesMask)">
</g>
<g id="Thighs">
<g id="Left-Thigh"><g id="Legacy_Thigh_Left" class="option" style="display: inherit;">
<path id="Plate-3_Legacy-Thigh_Left" d="M97.79,140.5l1.83,10.6l10.33,1.6l8.34-3.62l0.4-10.82l-9.49,4.43 L97.79,140.5" fill="rgb(215, 190, 105)"/>
<path id="Plate-2_Legacy-Thigh_Left" d="M95.49,130.29l1.76,10.11l11.94,2.28l10.04-4.69l0.49-12.31l-11.34,7.2 L95.49,130.29" fill="rgb(215, 190, 105)"/>
<path id="Plate-1_Legacy-Thigh_Left" d="M120.79,115.62l-8.83-7.68l-11.8,1.93l-6.77,11.14l1.7,9.2l13.28,2.67 l11.87-7.53L120.79,115.62" fill="rgb(215, 190, 105)"/>
<path id="Trauma-Plate-3_Legacy-Thigh_Left" class="toggle" style="" d="M116.67,141.54l-6.78,3.16 c-0.32,0.15-0.67,0.19-1.01,0.13l-8.71-1.66l1.03,5.96l8.52,1.32l6.73-2.92L116.67,141.54" fill="rgb(196, 202, 206)"/>
<path id="Trauma-Plate-2_Legacy-Thigh_Left" class="toggle" style="" d="M117.68,129.46l-8.4,5.33 c-0.37,0.24-0.81,0.32-1.23,0.24l-10.17-2.04l0.96,5.49l10.13,1.94l8.42-3.94L117.68,129.46" fill="rgb(196, 202, 206)"/>
<path id="Trauma-Plate-1_Legacy-Thigh_Left" class="toggle" style="" d="M101.24,111.91l-5.83,9.58l1.26,6.82l11.37,2.28 l10.38-6.59l0.42-7.34l-7.39-6.43L101.24,111.91" fill="rgb(196, 202, 206)"/>
<g id="Ridge_Legacy-Thigh_Left" class="toggle" style="display:none" fill="rgb(255, 255, 255)"/>
</g></g>
<g id="Right-Thigh"><g id="Legacy_Thigh_Right" class="option" style="display: inherit;">
<path id="Plate-3_Legacy-Thigh_Right" d="M72.11,140.5l-1.83,10.6l-10.33,1.6l-8.34-3.62l-0.4-10.82l9.49,4.43 L72.11,140.5" fill="rgb(215, 190, 105)"/>
<path id="Plate-2_Legacy-Thigh_Right" d="M74.4,130.29l-1.76,10.11l-11.94,2.28l-10.04-4.69l-0.49-12.31l11.34,7.2 L74.4,130.29" fill="rgb(215, 190, 105)"/>
<path id="Plate-1_Legacy-Thigh_Right" d="M49.1,115.62l8.83-7.68l11.8,1.93l6.77,11.14l-1.7,9.2l-13.28,2.67 l-11.87-7.53L49.1,115.62" fill="rgb(215, 190, 105)"/>
<path id="Trauma-Plate-3_Legacy-Thigh_Right" class="toggle" style="" d="M53.22,141.54l6.78,3.16c0.32,0.15,0.67,0.19,1.01,0.13 l8.71-1.66l-1.03,5.96l-8.52,1.32l-6.73-2.92L53.22,141.54" fill="rgb(196, 202, 206)"/>
<path id="Trauma-Plate-2_Legacy-Thigh_Right" class="toggle" style="" d="M52.21,129.46l8.4,5.33c0.37,0.24,0.81,0.32,1.23,0.24 l10.17-2.04l-0.96,5.49l-10.13,1.94l-8.42-3.94L52.21,129.46" fill="rgb(196, 202, 206)"/>
<path id="Trauma-Plate-1_Legacy-Thigh_Right" class="toggle" style="" d="M68.65,111.91l5.83,9.58l-1.26,6.82l-11.37,2.28 L51.47,124l-0.42-7.34l7.39-6.43L68.65,111.91" fill="rgb(196, 202, 206)"/>
<g id="Ridge_Legacy-Thigh_Right" class="toggle" style="display:none" fill="rgb(255, 255, 255)"/>
</g></g>
</g>
<g id="ThighsDecals" mask="url(#ThighsMask)">
</g>
<g id="Groin"><g id="Basic_Groin" class="option" style="display: inherit;">
<path id="Groin-Plate_Basic" d="M78.67,122.29L68.22,99.4h33.42l-10.45,22.89l-6.26,5.46L78.67,122.29z" fill="rgb(215, 190, 105)"/>
<path id="Trauma-Plating_Groin" class="toggle" style="" d="M79.77,120.38l-8.61-18.86H98.7l-8.61,18.86l-5.16,4.49L79.77,120.38z" fill="rgb(196, 202, 206)"/>
</g>
</g>
<g id="GroinDecals" mask="url(#GroinMask)">
</g>
<g id="Waist">
<g id="Accessories_Waist">
<g id="Kama" class="toggle" style="display:none"/>
<g id="Loin-Cloth" class="toggle" style="display:none"/>
<g id="Left-Holster" class="toggle" style=""><g id="Hanging-Holster_Left" class="option" style="display: inherit;">
<g id="Weapon_Hanging-Holster-Left">
<g id="Main_Weapon_Hanging-Holster-Left" fill="rgb(196, 202, 206)">
<path d="M117.12,122.65l0.17-3.6l0.62,0.03l0.11-2.26l-0.62-0.03l0.05-1.18c0.02-0.38,0.54-0.67,1.18-0.64 c1.45,0.07,3.93,0.18,5.38,0.25c0.63,0.03,1.13,0.36,1.11,0.75l-0.06,1.18l-0.62-0.03l-0.11,2.26l0.62,0.03l-0.17,3.6 l-1.47-0.07l-0.46,9.96l-4.74-0.22l0.46-9.96L117.12,122.65z"/>
<path d="M124.19,122.45l-0.84-0.04l-0.56,11.97l-4.74-0.22l0.56-11.98l-0.84-0.04l0.13-2.73l6.42,0.29 L124.19,122.45z"/>
<path d="M123.18,115.96l-3.8-0.17l-0.17,3.7l3.8,0.17L123.18,115.96z"/>
<path d="M119.65,123.32l-0.62-0.03l-0.44,9.41l0.62,0.03L119.65,123.32z"/>
<path d="M121.34,121.25l-0.62-0.03l-0.44,9.41l0.62,0.03L121.34,121.25z"/>
<path d="M122.83,123.47l-0.62-0.03l-0.44,9.41l0.62,0.03L122.83,123.47z"/>
</g>
<g id="Accent_Weapon_Hanging-Holster-Left" fill="rgb(215, 190, 105)">
<path d="M119.75,119.89l-0.02,0.38l2.68,0.12l0.02-0.38L119.75,119.89z"/>
<path d="M119.73,120.26l-0.02,0.38l2.68,0.12l0.02-0.38L119.73,120.26z"/>
<path d="M119.76,119.51l-0.02,0.38l2.68,0.12l0.02-0.38L119.76,119.51z"/>
<path d="M119.98,114.87l-0.02,0.38l2.68,0.12l0.02-0.38L119.98,114.87z"/>
<path d="M120,115.82l-0.62-0.03l-0.17,3.7l0.62,0.03L120,115.82z"/>
<path d="M123.18,115.96l-0.62-0.03l-0.17,3.7l0.62,0.03L123.18,115.96z"/>
<path d="M122.21,123.44l-0.95-0.04l-0.44,9.42l0.95,0.04L122.21,123.44z"/>
<path d="M120.6,123.36l-0.95-0.04l-0.44,9.41l0.95,0.04L120.6,123.36z"/>
</g>
</g>
<path id="Holster_Hanging-Holster-Left" d="M117.16,136.53l-0.76-15.17l7.05,11.42l-1.56,20.64 c-1.64,1.71-3.26,1.73-4.85-0.18L117.16,136.53z" fill="rgb(64, 64, 64)"/>
<g id="Straps_Hanging-Holster-Left" fill="rgb(64, 64, 64)">
<path d="M90.19,96.9c7.71,11,15.47,20.31,26.2,24.47l0.13,2.6c-13.34-5.59-20.49-15.06-28.38-27.07H90.19z"/>
<path d="M117.12,139.62c-7.21,5.49-15.01,8.47-24.34,8.98l0.67,2.06c8.08-0.73,15.62-3.7,23.68-8.87V139.62z"/>
<path d="M117.12,141.79l0.02-2.17c1.87,0.83,4.05,0.89,5.77,0.28l-0.17,2.21 C120.89,142.59,118.79,142.62,117.12,141.79z"/>
</g>
<g id="Buckle_Hanging-Holster-Left" fill="rgb(215, 190, 105)">
<path d="M100.26,148.49l-1.01,0.15l0.05,0.33l1.01-0.15L100.26,148.49"/>
<path d="M97.5,108l-0.7-0.92l-0.27,0.2l0.7,0.92L97.5,108"/>
<path d="M97.23,108.21l-1.15,0.92l-2.7-3.31l2.6-2.1l2.7,3.31L97.49,108l-0.58-0.76l0.58-0.47l-1.49-1.83 l-1.43,1.15l1.49,1.83l0.59-0.47L97.23,108.21"/>
<path d="M100.22,148.49l-0.8,0.12l-0.12-0.78l-1.94,0.41l0.27,1.81l1.94-0.41l-0.1-0.7l0.8-0.12l0.21,1.39 l-3.52,0.75l-0.49-3.28l3.52-0.75L100.22,148.49"/>
</g>
</g></g>
<g id="Right-Holster" class="toggle" style=""><g id="Hanging-Holster_Right" class="option" style="display: inherit;">
<g id="Weapon_Hanging-Holster-Right">
<g id="Main_Weapon_Hanging-Holster-Right" fill="rgb(196, 202, 206)">
<path d="M52.77,122.65l-0.17-3.6l-0.62,0.03l-0.11-2.26l0.62-0.03l-0.05-1.18c-0.02-0.38-0.54-0.67-1.18-0.64 c-1.45,0.07-3.93,0.18-5.38,0.25c-0.63,0.03-1.13,0.36-1.11,0.75l0.06,1.18l0.62-0.03l0.11,2.26l-0.62,0.03l0.17,3.6 l1.47-0.07l0.46,9.96l4.74-0.22l-0.46-9.96L52.77,122.65z"/>
<path d="M45.7,122.45l0.84-0.04l0.56,11.97l4.74-0.22l-0.56-11.98l0.84-0.04L52,119.42l-6.42,0.29L45.7,122.45z"/>
<path d="M46.72,115.96l3.8-0.17l0.17,3.7l-3.8,0.17L46.72,115.96z"/>
<path d="M50.24,123.32l0.62-0.03l0.44,9.41l-0.62,0.03L50.24,123.32z"/>
<path d="M48.55,121.25l0.62-0.03l0.44,9.41l-0.62,0.03L48.55,121.25z"/>
<path d="M47.06,123.47l0.62-0.03l0.44,9.41l-0.62,0.03L47.06,123.47z"/>
</g>
<g id="Accent_Weapon_Hanging-Holster-Right" fill="rgb(215, 190, 105)">
<path d="M50.15,119.89l0.02,0.38l-2.68,0.12l-0.02-0.38L50.15,119.89z"/>
<path d="M50.16,120.26l0.02,0.38l-2.68,0.12l-0.02-0.38L50.16,120.26z"/>
<path d="M50.13,119.51l0.02,0.38l-2.68,0.12l-0.02-0.38L50.13,119.51z"/>
<path d="M49.91,114.87l0.02,0.38l-2.68,0.12L47.23,115L49.91,114.87z"/>
<path d="M49.89,115.82l0.62-0.03l0.17,3.7l-0.62,0.03L49.89,115.82z"/>
<path d="M46.72,115.96l0.62-0.03l0.17,3.7l-0.62,0.03L46.72,115.96z"/>
<path d="M47.69,123.44l0.95-0.04l0.44,9.42l-0.95,0.04L47.69,123.44z"/>
<path d="M49.29,123.36l0.95-0.04l0.44,9.41l-0.95,0.04L49.29,123.36z"/>
</g>
</g>
<path id="Holster_Hanging-Holster-Right" d="M52.74,136.53l0.76-15.17l-7.05,11.42l1.56,20.64 c1.64,1.71,3.26,1.73,4.85-0.18L52.74,136.53z" fill="rgb(64, 64, 64)"/>
<g id="Straps_Hanging-Holster-Right" fill="rgb(64, 64, 64)">
<path d="M79.7,96.9c-7.71,11-15.47,20.31-26.2,24.47l-0.13,2.6c13.34-5.59,20.49-15.06,28.38-27.07H79.7z"/>
<path d="M52.78,139.62c7.21,5.49,15.01,8.47,24.34,8.98l-0.67,2.06c-8.08-0.73-15.62-3.7-23.68-8.87V139.62z"/>
<path d="M52.78,141.79l-0.02-2.17c-1.87,0.83-4.05,0.89-5.77,0.28l0.17,2.21C49,142.59,51.1,142.62,52.78,141.79z"/>
</g>
<g id="Buckle_Hanging-Holster-Right" fill="rgb(215, 190, 105)">
<path d="M69.64,148.49l1.01,0.15l-0.05,0.33l-1.01-0.15L69.64,148.49"/>
<path d="M72.39,108l0.7-0.92l0.27,0.2l-0.7,0.92L72.39,108"/>
<path d="M72.66,108.21l1.15,0.92l2.7-3.31l-2.6-2.1l-2.7,3.31L72.4,108l0.58-0.76l-0.58-0.47l1.49-1.83l1.43,1.15 l-1.49,1.83l-0.59-0.47L72.66,108.21"/>
<path d="M69.67,148.49l0.8,0.12l0.12-0.78l1.94,0.41l-0.27,1.81l-1.94-0.41l0.1-0.7l-0.8-0.12l-0.21,1.39 l3.52,0.75l0.49-3.28l-3.52-0.75L69.67,148.49"/>
</g>
</g></g>
<g id="Left-Trophy" class="toggle" style="display:none"/>
<g id="Right-Trophy" class="toggle" style="display:none"/>
</g>
<g id="Under-Belt"><g id="Girth-Belt" class="option" fill="rgb(105, 105, 105)" style="display: inherit;">
<path d="M84.93,84.93c-9.33,0-27.98-2.25-27.98-2.25l0.61-1.91c0,0,18.19,1.5,27.37,2.25 c9.13-0.75,27.37-2.25,27.37-2.25l0.6,1.91C112.91,82.68,94.25,84.93,84.93,84.93z"/>
<path d="M84.93,86.84c-9.52,0-28.56-2.25-28.56-2.25l0.58-1.91c0,0,23.31,1.88,27.98,2.25 c4.66-0.38,27.98-2.25,27.98-2.25l0.58,1.91C113.49,84.59,94.45,86.84,84.93,86.84z"/>
<path d="M84.93,88.75c-9.67,0-28.99-2.25-28.99-2.25l0.43-1.91c0,0,23.8,1.88,28.56,2.25 c4.76-0.38,28.56-2.25,28.56-2.25l0.43,1.91C113.92,86.49,94.6,88.75,84.93,88.75z"/>
<path d="M84.93,90.65c-9.79,0-29.36-2.25-29.36-2.25l0.37-1.91c0,0,24.16,1.88,28.99,2.25 c4.83-0.38,28.99-2.25,28.99-2.25l0.37,1.91C114.29,88.4,94.72,90.65,84.93,90.65z"/>
<path d="M84.93,92.56c-9.9,0-29.69-2.25-29.69-2.25l0.33-1.91c0,0,24.47,1.88,29.36,2.25 c4.89-0.38,29.36-2.25,29.36-2.25l0.33,1.91C114.62,90.31,94.83,92.56,84.93,92.56z"/>
<path d="M84.93,94.47c-10,0-30-2.25-30-2.25l0.31-1.91c0,0,24.74,1.88,29.69,2.25c4.95-0.38,29.69-2.25,29.69-2.25 l0.31,1.91C114.93,92.21,94.93,94.47,84.93,94.47z"/>
<path d="M84.93,96.37c-10.1,0-30.31-2.25-30.31-2.25l0.31-1.91c0,0,25,1.88,30,2.25c5-0.38,30-2.25,30-2.25 l0.31,1.91C115.24,94.12,95.03,96.37,84.93,96.37z"/>
<path d="M84.93,98.28c-10.21,0-30.62-2.25-30.62-2.25l0.32-1.91c0,0,25.26,1.88,30.31,2.25 c5.05-0.38,30.31-2.25,30.31-2.25l0.32,1.91C115.55,96.03,95.14,98.28,84.93,98.28z"/>
<path d="M84.93,100.19c-10.32,0-30.97-2.25-30.97-2.25l0.34-1.91c0,0,25.52,1.88,30.62,2.25 c5.1-0.38,30.62-2.25,30.62-2.25l0.35,1.91C115.9,97.93,95.25,100.19,84.93,100.19z"/>
<path d="M84.93,102.09c-10.45,0-31.36-2.25-31.36-2.25l0.39-1.91c0,0,25.81,1.88,30.97,2.25 c5.16-0.38,30.97-2.25,30.97-2.25l0.39,1.91C116.29,99.84,95.38,102.09,84.93,102.09z"/>
</g>
</g>
<g id="Belt"><g id="Pouch-Belt-6" class="option" style="display: inherit;">
<path id="Main_Pouch-Belt-6" d="M115.21,92.95c-6.82,0.61-22.4,2.83-30.27,2.83c-7.94,0-23.52-2.23-30.26-2.82 l1.01-7.93c5.53,0.49,21.56,2.74,29.26,2.74c7.47,0,23.17-2.23,29.07-2.76L115.21,92.95z" fill="rgb(196, 202, 206)"/>
<rect id="Buckle_Pouch-Belt-6" x="79.37" y="87.01" width="11.28" height="9.21" fill="rgb(215, 190, 105)"/>
<g id="Pouches_Pouch-Belt-6" fill="rgb(64, 64, 64)">
<g>
<g>
<g>
<path d="M70.81,84.98c-0.29-0.02-0.58,0.03-0.84,0.13c-0.71,0.28-2.1,0.82-2.1,0.82l8.08,0.46l2.19-0.94 C78.13,85.46,72.44,85.09,70.81,84.98z"/>
<path d="M78.41,85.73c0.01-0.08-0.03-0.17-0.1-0.22c-0.07-0.05-0.16-0.06-0.24-0.03 c-0.7,0.3-2.14,0.91-2.14,0.91l-1.05,12.41c0.72-0.42,1.44-0.69,2.15-0.84c0.41-0.08,0.7-0.43,0.71-0.85 C77.88,93.32,78.03,89.51,78.41,85.73z"/>
<path d="M75.94,86.4l-8.08-0.46c-0.05,1.89-0.23,3.77-0.33,5.65c-0.11,2.08-0.15,4.18-0.34,6.28 c-0.01,0.15,0.04,0.3,0.14,0.41c0.1,0.11,0.25,0.18,0.4,0.18c2.32-0.01,4.63,0.13,6.93,0.4c0.14,0.02,0.29-0.02,0.4-0.12 c0.11-0.09,0.18-0.22,0.19-0.37c0.1-1.47,0.37-5.34,0.37-5.34L75.94,86.4z"/>
<path d="M75.94,86.4l-8.08-0.46c0,0-0.19,1.59-0.38,3.14c-0.09,0.75,0.13,1.51,0.62,2.09 c0.49,0.58,1.2,0.94,1.96,0.98c0.96,0.06,2.01,0.12,2.97,0.17c0.76,0.04,1.51-0.23,2.07-0.75c0.55-0.52,0.86-1.25,0.86-2.01 C75.95,87.99,75.94,86.4,75.94,86.4z"/>
<path d="M71.64,90.75c0.29,0.02,0.51,0.26,0.49,0.55c-0.02,0.28-0.26,0.5-0.55,0.49 c-0.29-0.02-0.51-0.26-0.49-0.55C71.11,90.96,71.36,90.74,71.64,90.75z"/>
</g>
</g>
<g>
<g>
<path d="M59.65,83.47c-0.31-0.02-0.62,0.03-0.91,0.16c-0.67,0.29-1.86,0.81-1.86,0.81l7.38,0.42l2-0.95 C66.26,83.91,61.24,83.57,59.65,83.47z"/>
<path d="M66.52,84.19c0.01-0.09-0.03-0.17-0.1-0.22c-0.07-0.05-0.17-0.06-0.24-0.02 c-0.66,0.31-1.91,0.9-1.91,0.9l-1.02,12.42c0.65-0.41,1.29-0.68,1.93-0.85c0.39-0.09,0.68-0.44,0.69-0.84 C65.99,91.78,66.15,87.98,66.52,84.19z"/>
<path d="M64.26,84.85l-7.38-0.42c-0.06,1.89-0.23,3.77-0.33,5.65c-0.11,2.08-0.16,4.17-0.34,6.28 c-0.01,0.15,0.04,0.3,0.14,0.41s0.25,0.18,0.4,0.17c2.08-0.01,4.15,0.11,6.22,0.36c0.14,0.02,0.29-0.02,0.4-0.12 c0.11-0.09,0.18-0.23,0.19-0.37c0.1-1.47,0.37-5.33,0.37-5.33L64.26,84.85z"/>
<path d="M64.26,84.85l-7.38-0.42c0,0-0.18,1.6-0.36,3.15c-0.09,0.75,0.14,1.51,0.63,2.08 c0.49,0.58,1.2,0.93,1.96,0.97c0.73,0.04,1.51,0.08,2.23,0.13c0.76,0.04,1.51-0.23,2.06-0.75c0.55-0.52,0.87-1.25,0.86-2 C64.26,86.46,64.26,84.85,64.26,84.85z"/>
<path d="M60.31,89.23c0.26,0.01,0.46,0.26,0.44,0.54c-0.02,0.28-0.24,0.5-0.5,0.49 c-0.26-0.01-0.46-0.26-0.44-0.54C59.83,89.44,60.05,89.22,60.31,89.23z"/>
</g>
</g>
<g>
<path d="M52.22,84.29l0.55-0.85l2.83,0.09l0.35,1.06L52.22,84.29z"/>
<path d="M55.93,84.69c0.01-0.07-0.01-0.13-0.06-0.18c-0.04-0.05-0.11-0.08-0.17-0.08 c-0.85-0.03-3.48-0.13-3.48-0.13l-0.5,11.17c0.11,0.28,1.53,0.46,2.68,0.49c0.5,0.01,0.91-0.38,0.92-0.88 C55.4,91.61,55.53,88.14,55.93,84.69z"/>
</g>
</g>
<g>
<g>
<g>
<path d="M99.08,84.98c0.29-0.02,0.58,0.03,0.85,0.13c0.71,0.28,2.1,0.82,2.1,0.82l-8.08,0.46l-2.19-0.94 C91.76,85.46,97.45,85.09,99.08,84.98z"/>
<path d="M91.48,85.73c-0.01-0.08,0.03-0.17,0.1-0.22c0.07-0.05,0.16-0.06,0.24-0.03c0.7,0.3,2.14,0.91,2.14,0.91 L95,98.81c-0.72-0.42-1.44-0.69-2.15-0.84c-0.41-0.08-0.7-0.43-0.71-0.85C92.01,93.32,91.86,89.51,91.48,85.73z"/>
<path d="M93.95,86.4l8.08-0.46c0.05,1.89,0.23,3.77,0.33,5.65c0.11,2.08,0.15,4.18,0.34,6.28 c0.01,0.15-0.04,0.3-0.14,0.41c-0.1,0.11-0.25,0.18-0.4,0.18c-2.32-0.01-4.63,0.13-6.93,0.4c-0.14,0.02-0.29-0.02-0.4-0.12 c-0.11-0.09-0.18-0.22-0.19-0.37c-0.1-1.47-0.37-5.34-0.37-5.34L93.95,86.4z"/>
<path d="M93.95,86.4l8.08-0.46c0,0,0.19,1.59,0.38,3.14c0.09,0.75-0.14,1.51-0.62,2.09 c-0.49,0.58-1.2,0.94-1.96,0.98c-0.96,0.06-2.01,0.12-2.97,0.17c-0.76,0.04-1.51-0.23-2.06-0.75 c-0.55-0.52-0.87-1.25-0.86-2.01C93.94,87.99,93.95,86.4,93.95,86.4z"/>
<path d="M98.25,90.75c-0.29,0.02-0.51,0.26-0.49,0.55c0.02,0.28,0.26,0.5,0.55,0.49 c0.29-0.02,0.51-0.26,0.49-0.55C98.78,90.96,98.54,90.74,98.25,90.75z"/>
</g>
</g>
<g>
<g>
<path d="M110.24,83.47c0.31-0.02,0.62,0.03,0.91,0.16c0.67,0.29,1.86,0.81,1.86,0.81l-7.38,0.42l-2-0.95 C103.63,83.91,108.65,83.57,110.24,83.47z"/>
<path d="M103.37,84.19c-0.01-0.09,0.03-0.17,0.1-0.22c0.07-0.05,0.17-0.06,0.24-0.02 c0.66,0.31,1.91,0.9,1.91,0.9l1.02,12.42c-0.65-0.41-1.29-0.68-1.93-0.85c-0.39-0.09-0.68-0.44-0.69-0.84 C103.9,91.78,103.74,87.98,103.37,84.19z"/>
<path d="M105.63,84.85l7.38-0.42c0.06,1.89,0.23,3.77,0.33,5.65c0.11,2.08,0.16,4.17,0.34,6.28 c0.01,0.15-0.04,0.3-0.14,0.41c-0.1,0.11-0.25,0.18-0.4,0.17c-2.08-0.01-4.15,0.11-6.22,0.36c-0.14,0.02-0.29-0.02-0.4-0.12 c-0.11-0.09-0.18-0.23-0.19-0.37c-0.1-1.47-0.37-5.33-0.37-5.33L105.63,84.85z"/>
<path d="M105.63,84.85l7.38-0.42c0,0,0.18,1.6,0.36,3.15c0.09,0.75-0.14,1.51-0.63,2.08 c-0.49,0.58-1.2,0.93-1.96,0.97c-0.72,0.04-1.5,0.08-2.23,0.13c-0.76,0.04-1.51-0.23-2.06-0.75c-0.55-0.52-0.87-1.25-0.86-2 C105.63,86.46,105.63,84.85,105.63,84.85z"/>
<path d="M109.58,89.23c-0.26,0.01-0.46,0.26-0.44,0.54c0.02,0.28,0.24,0.5,0.5,0.49 c0.26-0.01,0.46-0.26,0.44-0.54C110.07,89.44,109.84,89.22,109.58,89.23z"/>
</g>
</g>
<g>
<path d="M117.67,84.29l-0.55-0.85l-2.83,0.09l-0.35,1.06L117.67,84.29z"/>
<path d="M113.96,84.69c-0.01-0.07,0.01-0.13,0.06-0.18c0.04-0.05,0.11-0.08,0.18-0.08 c0.85-0.03,3.48-0.13,3.48-0.13l0.5,11.17c-0.11,0.28-1.53,0.46-2.68,0.49c-0.5,0.01-0.91-0.38-0.92-0.88 C114.49,91.61,114.36,88.14,113.96,84.69z"/>
</g>
</g>
</g>
</g></g>
</g>
<g id="WaistDecals" mask="url(#WaistMask)">
</g>
<g id="Extras_Front">
<g id="Front"><g id="None_Front" class="option" style="display: inherit;">
</g>
</g>
</g>
<g id="Extras-FrontDecals" mask="url(#FrontMask)">
</g>
</g>
</svg>