<?xml version='1.0' encoding='UTF-8'?>
<svg version="1.1" id="Male-Body" xmlns="http://www.w3.org/2000/svg" xmlns:serif="http://www.serif.com/" viewBox="0 -55 170 300" style="stroke-width: 0.2px; fill-rule: evenodd; stroke-linejoin: round;" width="170" height="300">
<style>
mask {
mask-type: alpha;
}
.decal {
stroke: none;
}
</style>
<defs id="Masks" stroke="none">
<mask id="HelmetsMask"> <use href="#Helmets"/> </mask>
<mask id="CollarMask"> <use href="#Collar"/> </mask>
<mask id="ShouldersMask"> <use href="#Shoulders"/> </mask>
<mask id="ChestMask"> <use href="#Chest"/> </mask>
<mask id="BicepsMask"> <use href="#Biceps"/> </mask>
<mask id="GauntletsMask"> <use href="#Gauntlets"/> </mask>
<mask id="WaistMask"> <use href="#Waist"/> </mask>
<mask id="GroinMask"> <use href="#Groin"/> </mask>
<mask id="ThighsMask"> <use href="#Thighs"/> </mask>
<mask id="KneesMask"> <use href="#Knees"/> </mask>
<mask id="ShinsMask"> <use href="#Shins"/> </mask>
<mask id="FootMask"> <use href="#Foot"/> </mask>
</defs>
<defs id="Decals"/><metadata><rdf:rdf xmlns:rdf="http://www.w3.org/1999/02/22-rdf-syntax-ns#" xmlns:rdfs="http://www.w3.org/2000/01/rdf-schema#" xmlns:dc="http://purl.org/dc/elements/1.1/"><rdf:description><dc:creator>MandoCreator</dc:creator><dc:publisher>https://www.mandocreator.com</dc:publisher><dc:description>Your Beskar'gam - created by MandoCreator</dc:description><dc:format>image/svg+xml</dc:format><dc:type>Image</dc:type><dc:title>MandoCreator - Ner Berskar'gam</dc:title><dc:date>2022-01-02T16:23:40.131Z</dc:date></rdf:description></rdf:rdf></metadata><g id="Main-Body" fill="white" stroke="black">
<g id="Extras_Back">
<g id="Back"><g id="NO-CAPES_Back" class="option" style="display: inherit;">
</g>
</g>
</g>
<g id="Extras-BackDecals" mask="url(#BackMask)">
</g>
<g id="Suit">
<g id="Neck-Seal"><g id="Standard-Neck-Seal" class="option" fill="rgb(55, 66, 76)" style="display: inherit;">
<path d="M98.75,7.5c0-0.9-0.93-1.62-2.07-1.62c0,0-7.8,0.85-11.7,0.85s-11.7-0.85-11.7-0.85 c-1.14,0-2.07,0.73-2.07,1.62s0.93,1.62,2.07,1.62c0,0,7.8,0.85,11.7,0.85s11.7-0.85,11.7-0.85C97.83,9.13,98.75,8.4,98.75,7.5z"/>
<path d="M99.45,9.4c0-0.94-0.97-1.71-2.17-1.71c0,0-8.2,0.9-12.29,0.9S72.69,7.7,72.69,7.7 c-1.2,0-2.17,0.76-2.17,1.71s0.97,1.71,2.17,1.71c0,0,8.2,0.9,12.29,0.9s12.29-0.9,12.29-0.9C98.48,11.11,99.45,10.34,99.45,9.4z "/>
<path d="M100.24,11.76c0-0.99-1.03-1.8-2.29-1.8c0,0-8.64,0.95-12.96,0.95S72.02,9.96,72.02,9.96 c-1.26,0-2.29,0.81-2.29,1.8s1.03,1.8,2.29,1.8c0,0,8.64,0.95,12.97,0.95s12.96-0.95,12.96-0.95 C99.21,13.56,100.24,12.75,100.24,11.76z"/>
<path d="M101,13.92c0-1.04-1.08-1.89-2.41-1.89c0,0-9.08,0.99-13.61,0.99s-13.61-0.99-13.61-0.99 c-1.33,0-2.41,0.85-2.41,1.89c0,1.04,1.08,1.89,2.41,1.89c0,0,9.08,0.99,13.61,0.99s13.61-0.99,13.61-0.99 C99.93,15.81,101,14.96,101,13.92z"/>
<path d="M101.76,16.04c0-0.79-1.13-1.43-2.52-1.43c0,0-9.51,0.75-14.26,0.75s-14.26-0.75-14.26-0.75 c-1.39,0-2.52,0.64-2.52,1.43c0,0.79,1.13,1.43,2.52,1.43c0,0,9.51,0.75,14.26,0.75s14.26-0.75,14.26-0.75 C100.63,17.47,101.76,16.83,101.76,16.04z"/>
<path d="M101.76,18.42c0-0.79-1.13-1.43-2.52-1.43c0,0-9.51,0.75-14.26,0.75s-14.26-0.75-14.26-0.75 c-1.39,0-2.52,0.64-2.52,1.43c0,0.79,1.13,1.43,2.52,1.43c0,0,9.51,1.44,14.26,1.44s14.26-1.44,14.26-1.44 C100.63,19.84,101.76,19.21,101.76,18.42z"/>
</g>
</g>
<g id="Flight-Suit" fill="rgb(55, 66, 76)">
<path d="M73.36,158.45l-1.49,8.72l-11.03,53.11c0,0-4.93,2.96-7.47,3.46c-2.53,0.5-7.73-0.44-7.73-0.44l3.85-43 l2.9-18.36l0.66-7.82c0,0-2.53-22.78-1.7-34.14c0.82-11.36,6.66-34.01,6.66-34.01l26.98,0.58l26.97-0.58 c0,0,5.83,22.66,6.66,34.01c0.83,11.36-1.7,34.14-1.7,34.14l0.66,7.82l2.9,18.36l3.85,43c0,0-5.32,1.19-7.85,0.69 c-2.53-0.5-7.34-3.71-7.34-3.71L98.1,167.16l-1.49-8.72l-11.62-30.33L73.36,158.45z"/>
<g>
<path d="M129.41,43.33l11.98,41.65l1.04,21.47l-9.55,1.83l-6.05-20.21l-13.65-33.95l0.69-15.55l2.31-3.72 L129.41,43.33z"/>
<path d="M40.59,43.3l13.19-8.45l2.31,3.72l0.52,16.04L43.17,88.07l-6.05,20.21l-9.55-1.83l1.03-21.47L40.59,43.3z"/>
</g>
</g>
<g id="Sleeves" class="toggle" style="display: none;" fill="rgb(255, 255, 255)"/>
</g>
<g id="Boots"><g id="Basic_Boots" class="option" style="display: inherit;">
<g id="Main_Basic-Boot" fill="rgb(48, 48, 48)">
<path d="M109.1,216.81c1.46,0.01,3.24,0.93,4.53,1.15c1.38,0.23,2.88,0.21,4.34,0.07l0.59-0.06l0.02,0l0.07-0.01 l0.19-0.03l0.3-0.04l0.12-0.02c0.35-0.05,0.68-0.1,1.01-0.16l0.53-0.1l0.11-0.03l0.04-0.01l0.08-0.02l0.36-0.09l0.32-0.09 l0.05-0.01c1.12-0.3,2.24-0.66,2.24-0.66c0.33,1.45,0.5,3.11,1.12,4.46c0.99,2.13,0.95,3.05,2.61,4.66 c1.14,1.1,4.08,3.05,5.44,3.89c0.57,0.36,1.19,0.63,1.81,0.86l0.06,0.02c2.5,0.93,5.2,1.28,6.56,4.03c0.3,0.6,0.55,1.32,0.5,2 c-0.06,0.87-1.02,0.99-1.76,1.2c-1.84,0.52-3.43,0.92-5.56,1.39c-2.43,0.54-4.63,0.88-7.1,0.81c-1.84-0.05-3.41-0.13-5.03-1.1 c-0.65-0.39-1.32-0.79-1.89-1.3c-1.27-1.15-2.09-2.36-3.71-3.04c-1.18-0.5-2.39-0.91-3.63-1.2c-1.76-0.42-4.34-1-5.28-2.74 c-0.37-1.3,0.01-1.94,0.13-3.06l0.06-0.48c0.1-0.73,0.23-1.48,0.26-2.26c0.08-1.51-0.3-3.01-0.4-4.51 c-0.06-0.85-0.1-1.71-0.11-2.56c0-0.14-0.08-0.75,0.06-0.8c0.19-0.08,0.4-0.12,0.62-0.14L109.1,216.81z"/>
<path d="M60.93,216.81c-1.46,0.01-3.24,0.93-4.53,1.15c-1.38,0.23-2.88,0.21-4.34,0.07l-0.59-0.06l-0.02,0 l-0.07-0.01l-0.19-0.03l-0.3-0.04l-0.12-0.02c-0.34-0.05-0.68-0.1-1.01-0.16l-0.53-0.1l-0.11-0.03l-0.04-0.01l-0.08-0.02 l-0.36-0.09l-0.32-0.09l-0.05-0.01c-1.12-0.3-2.24-0.66-2.24-0.66c-0.33,1.45-0.5,3.11-1.12,4.46c-0.99,2.13-0.95,3.05-2.6,4.66 c-1.14,1.1-4.08,3.05-5.44,3.89c-0.57,0.36-1.19,0.63-1.81,0.86l-0.06,0.02c-2.5,0.93-5.2,1.28-6.56,4.03 c-0.3,0.6-0.55,1.32-0.5,2c0.06,0.87,1.02,0.99,1.76,1.2c1.84,0.52,3.43,0.92,5.56,1.39c2.43,0.54,4.63,0.88,7.1,0.81 c1.84-0.05,3.41-0.13,5.03-1.1c0.65-0.39,1.32-0.79,1.89-1.3c1.27-1.15,2.09-2.36,3.72-3.04c1.18-0.5,2.39-0.91,3.63-1.2 c1.76-0.42,4.33-1,5.28-2.74c0.37-1.3-0.01-1.94-0.13-3.06l-0.06-0.48c-0.1-0.73-0.23-1.48-0.26-2.26 c-0.08-1.51,0.3-3.01,0.4-4.51c0.06-0.85,0.1-1.71,0.11-2.56c0-0.14,0.08-0.75-0.06-0.8c-0.19-0.08-0.4-0.12-0.62-0.14 L60.93,216.81z"/>
</g>
<g id="Bottom_Basic-Boot" fill="rgb(55, 54, 54)">
<path d="M108.15,230.64c0.47,0.87,1.35,1.44,2.33,1.86c0.89,0.45,1.95,0.64,2.96,0.88c0.14,0.03,0.27,0.07,0.41,0.1 c0.2,0.05,0.4,0.11,0.6,0.16c0.06,0.02,0.12,0.04,0.18,0.05l0.1,0.03c0.07,0.02,0.13,0.04,0.19,0.06 c0.03,0.01,0.06,0.02,0.08,0.03c0.11,0.04,0.22,0.07,0.33,0.11c0.04,0.01,0.08,0.03,0.12,0.04l0.06,0.02 c0.17,0.06,0.33,0.12,0.5,0.18c0.04,0.01,0.07,0.03,0.11,0.04c0.15,0.06,0.3,0.11,0.45,0.17l0.12,0.05 c0.09,0.04,0.18,0.07,0.27,0.11c0.04,0.02,0.08,0.03,0.12,0.05c0.27,0.11,0.51,0.24,0.74,0.38l0.03,0.02 c0.02,0.01,0.04,0.02,0.05,0.03c0.07,0.04,0.14,0.09,0.21,0.14l0.05,0.03c0.01,0.01,0.03,0.02,0.04,0.03 c0.07,0.05,0.14,0.1,0.2,0.15l0.06,0.04l0.09,0.07c0.28,0.23,0.54,0.47,0.8,0.73l0.07,0.07c0.14,0.14,0.28,0.28,0.42,0.43 c0.15,0.15,0.29,0.3,0.45,0.45c0.15,0.15,0.31,0.31,0.48,0.46l0.06,0.05c0.05,0.04,0.1,0.09,0.15,0.13 c0.01,0.01,0.02,0.01,0.03,0.02c0.08,0.07,0.17,0.13,0.25,0.2c0.06,0.04,0.11,0.09,0.17,0.13l0.03,0.02 c0.07,0.05,0.15,0.1,0.22,0.15c0.03,0.02,0.06,0.04,0.09,0.06c0.11,0.07,0.22,0.14,0.33,0.21c0.08,0.05,0.15,0.09,0.23,0.14 l0.09,0.06l0.25,0.15l0.11,0.07l0.08,0.04l0.08,0.04c0.11,0.06,0.22,0.12,0.34,0.17c0.05,0.02,0.11,0.05,0.16,0.07l0.05,0.02 c0.34,0.15,0.68,0.26,1.02,0.35l0.06,0.01l0.08,0.02c0.03,0.01,0.05,0.01,0.07,0.02c0.07,0.02,0.14,0.03,0.21,0.04 c0.05,0.01,0.11,0.02,0.16,0.03l0.13,0.02l0.04,0.01c0.04,0.01,0.07,0.01,0.11,0.02c0.06,0.01,0.12,0.02,0.18,0.02 c0.09,0.01,0.17,0.02,0.26,0.03c0.02,0,0.04,0,0.07,0.01c0.21,0.02,0.43,0.04,0.65,0.05c0.12,0.01,0.24,0.01,0.36,0.02l0.11,0 c0.23,0.01,0.46,0.02,0.7,0.02c0.15,0,0.31,0.01,0.46,0.01c0.06,0,0.11,0,0.17,0c0.08,0,0.16,0,0.23,0c0.06,0,0.11,0,0.17,0 l0.06,0c0.28-0.01,0.56-0.02,0.83-0.03c0.04,0,0.08,0,0.12-0.01l0.11-0.01c0.03,0,0.07-0.01,0.1-0.01 c0.4-0.03,0.81-0.07,1.21-0.11l0.11-0.01c0.1-0.01,0.2-0.02,0.3-0.04c0.04-0.01,0.09-0.01,0.13-0.02l0.11-0.01 c0.08-0.01,0.17-0.02,0.25-0.04c0.35-0.05,0.7-0.11,1.06-0.18c0.08-0.01,0.16-0.03,0.24-0.04l0.1-0.02 c0.04-0.01,0.07-0.01,0.11-0.02l0.11-0.02c0.04-0.01,0.07-0.01,0.11-0.02l0.08-0.02c0.09-0.02,0.17-0.04,0.26-0.05l0.11-0.02 c0.1-0.02,0.2-0.04,0.3-0.07c0.09-0.02,0.18-0.04,0.26-0.06l0.03,0c0.56-0.12,1.08-0.24,1.58-0.36l0.19-0.04 c0.14-0.03,0.28-0.07,0.42-0.1l0.17-0.04l0.08-0.02c0.2-0.05,0.39-0.1,0.58-0.15c0.12-0.03,0.23-0.06,0.35-0.09 c0.33-0.09,0.67-0.17,1-0.26l0.15-0.04c0.06-0.01,0.11-0.03,0.17-0.04l0.06-0.02c0.26-0.07,0.52-0.14,0.79-0.22l0.06-0.02 l0.09-0.02l0.28-0.07l0.09-0.03l0.14-0.04l0.06-0.02l0.11-0.04l0.1-0.03l0.04-0.02l0.05-0.02l0.03-0.01l0.05-0.02l0.05-0.03 l0.02-0.01l0.05-0.03l0.06-0.04l0.06-0.04l0.05-0.04c0.09-0.07,0.16-0.15,0.22-0.24l0,0c0,0,0.49,0.73,0.53,1.99 c-1.1,1.59-4.6,2.12-9.43,2.76c-4.8,0.64-7.76,0.51-9.77-0.35c-2.01-0.86-5.53-4.94-8.05-5.15c-2.52-0.22-5.5-1.54-6.72-2.26 c-0.64-0.37-0.45-3-0.45-3L108.15,230.64z"/>
<path d="M61.87,230.64c-0.47,0.87-1.35,1.44-2.33,1.86c-0.89,0.45-1.95,0.64-2.95,0.88 c-0.14,0.03-0.27,0.07-0.41,0.1c-0.2,0.05-0.4,0.11-0.6,0.16c-0.06,0.02-0.12,0.04-0.18,0.05l-0.1,0.03 c-0.07,0.02-0.13,0.04-0.19,0.06c-0.03,0.01-0.06,0.02-0.08,0.03c-0.11,0.04-0.22,0.07-0.33,0.11c-0.04,0.01-0.08,0.03-0.12,0.04 l-0.06,0.02c-0.17,0.06-0.33,0.12-0.5,0.18c-0.04,0.01-0.07,0.03-0.11,0.04c-0.15,0.06-0.3,0.11-0.45,0.17l-0.12,0.05 c-0.09,0.04-0.18,0.07-0.27,0.11c-0.04,0.02-0.08,0.03-0.12,0.05c-0.27,0.11-0.51,0.24-0.74,0.38l-0.03,0.02 c-0.02,0.01-0.04,0.02-0.05,0.03c-0.07,0.04-0.14,0.09-0.21,0.14l-0.05,0.03c-0.01,0.01-0.03,0.02-0.04,0.03 c-0.07,0.05-0.14,0.1-0.2,0.15l-0.06,0.04l-0.09,0.07c-0.28,0.23-0.54,0.47-0.8,0.73l-0.07,0.07c-0.14,0.14-0.28,0.28-0.42,0.43 c-0.15,0.15-0.29,0.3-0.45,0.45c-0.15,0.15-0.31,0.31-0.48,0.46l-0.06,0.05c-0.05,0.04-0.1,0.09-0.15,0.13 c-0.01,0.01-0.02,0.01-0.03,0.02c-0.08,0.07-0.17,0.13-0.25,0.2c-0.06,0.04-0.11,0.09-0.17,0.13l-0.03,0.02 c-0.07,0.05-0.15,0.1-0.22,0.15c-0.03,0.02-0.06,0.04-0.09,0.06c-0.11,0.07-0.22,0.14-0.33,0.21c-0.08,0.05-0.15,0.09-0.23,0.14 l-0.1,0.06l-0.24,0.15l-0.11,0.07l-0.08,0.04l-0.08,0.04c-0.11,0.06-0.22,0.12-0.34,0.17c-0.05,0.02-0.11,0.05-0.16,0.07 l-0.05,0.02c-0.34,0.15-0.67,0.26-1.02,0.35l-0.06,0.01l-0.08,0.02c-0.02,0.01-0.05,0.01-0.07,0.02 c-0.07,0.02-0.14,0.03-0.21,0.04c-0.06,0.01-0.11,0.02-0.16,0.03l-0.13,0.02l-0.04,0.01c-0.04,0.01-0.07,0.01-0.11,0.02 c-0.06,0.01-0.12,0.02-0.18,0.02c-0.09,0.01-0.17,0.02-0.26,0.03c-0.02,0-0.05,0-0.07,0.01c-0.22,0.02-0.43,0.04-0.65,0.05 c-0.12,0.01-0.24,0.01-0.36,0.02l-0.1,0c-0.23,0.01-0.47,0.02-0.7,0.02c-0.15,0-0.31,0.01-0.46,0.01c-0.06,0-0.11,0-0.17,0 c-0.08,0-0.16,0-0.23,0c-0.06,0-0.11,0-0.17,0l-0.06,0c-0.28-0.01-0.56-0.02-0.83-0.03c-0.04,0-0.08,0-0.12-0.01l-0.11-0.01 c-0.03,0-0.07-0.01-0.1-0.01c-0.4-0.03-0.81-0.07-1.21-0.11l-0.11-0.01c-0.1-0.01-0.2-0.02-0.3-0.04 c-0.04-0.01-0.09-0.01-0.13-0.02l-0.11-0.01c-0.08-0.01-0.17-0.02-0.25-0.04c-0.35-0.05-0.7-0.11-1.06-0.18 c-0.08-0.01-0.16-0.03-0.24-0.04l-0.1-0.02c-0.04-0.01-0.07-0.01-0.11-0.02l-0.11-0.02c-0.04-0.01-0.07-0.01-0.11-0.02 l-0.08-0.02c-0.09-0.02-0.17-0.04-0.26-0.05l-0.11-0.02c-0.1-0.02-0.2-0.04-0.3-0.07c-0.09-0.02-0.17-0.04-0.26-0.06l-0.03,0 c-0.56-0.12-1.08-0.24-1.58-0.36l-0.19-0.04c-0.14-0.03-0.28-0.07-0.42-0.1l-0.17-0.04l-0.08-0.02c-0.2-0.05-0.39-0.1-0.58-0.15 c-0.12-0.03-0.23-0.06-0.35-0.09c-0.34-0.09-0.67-0.17-1-0.26l-0.15-0.04c-0.06-0.01-0.11-0.03-0.17-0.04l-0.06-0.02 c-0.26-0.07-0.52-0.14-0.79-0.22l-0.06-0.02l-0.09-0.02l-0.28-0.07l-0.09-0.03L29,237.65l-0.06-0.02l-0.11-0.04l-0.1-0.03 l-0.04-0.02l-0.05-0.02l-0.03-0.01l-0.05-0.02l-0.05-0.03l-0.02-0.01l-0.05-0.03l-0.06-0.04l-0.06-0.04l-0.05-0.04 c-0.09-0.07-0.16-0.15-0.22-0.24l0,0c0,0-0.49,0.73-0.53,1.99c1.1,1.59,4.6,2.12,9.43,2.76c4.8,0.64,7.76,0.51,9.77-0.35 c2.01-0.86,5.53-4.94,8.05-5.15c2.52-0.22,5.49-1.54,6.72-2.26c0.64-0.37,0.45-3,0.45-3L61.87,230.64z"/>
</g>
<g id="Top_Basic-Boot" fill="rgb(66, 63, 63)">
<path d="M122,217.29c0.67,3.26,1.7,6.09,3.88,8.84c3.4,4.27,9.2,4.62,13.21,8.09c1.03,0.89,0.98,2.32,1.15,3.64 c-1.66,0.47-3.13,0.84-4.99,1.26c-0.13-1.31,0.1-2.78-0.99-3.72c-4.01-3.47-10.32-3.34-13.72-7.61 c-2.22-2.79-2.23-6.39-2.87-9.74c0.1-0.01,0.2-0.02,0.3-0.03l0.59-0.06l0.02,0l0.07-0.01l0.19-0.03l0.3-0.04l0.12-0.02 c0.35-0.05,0.68-0.1,1.01-0.16l0.53-0.1l0.11-0.03l0.04-0.01l0.08-0.02l0.36-0.09l0.32-0.09l0.05-0.01 C121.85,217.33,121.93,217.31,122,217.29z"/>
<path d="M48.02,217.29c-0.67,3.26-1.7,6.09-3.88,8.84c-3.4,4.27-9.2,4.62-13.21,8.09c-1.03,0.89-0.98,2.32-1.15,3.64 c1.66,0.47,3.13,0.84,4.99,1.26c0.13-1.31-0.1-2.78,0.99-3.72c4.01-3.47,10.32-3.34,13.72-7.61c2.22-2.79,2.23-6.39,2.87-9.74 c-0.1-0.01-0.2-0.02-0.3-0.03l-0.59-0.06l-0.02,0l-0.07-0.01l-0.19-0.03l-0.3-0.04l-0.12-0.02c-0.34-0.05-0.68-0.1-1.01-0.16 l-0.53-0.1l-0.11-0.03l-0.04-0.01l-0.08-0.02l-0.36-0.09l-0.32-0.09l-0.05-0.01C48.17,217.33,48.1,217.31,48.02,217.29z"/>
</g>
<g id="Side_Basic-Boot" fill="rgb(39, 39, 39)">
<path d="M109.49,216.83c1.38,0.15,2.96,0.92,4.14,1.12c0.06,0.01,0.13,0.02,0.19,0.03c0.02,0.41,0.01,0.82,0.02,1.18 c0.05,2.04-0.21,10.76-0.61,10.75c-0.4-0.02-1.58-0.23-1.88-0.55c-0.2-0.21-0.24-0.71-0.3-0.98c-0.21-0.87-0.4-1.73-0.53-2.61 c-0.18-1.19-0.32-2.36-0.4-3.55C109.98,220.42,109.7,218.62,109.49,216.83z"/>
<path d="M60.53,216.83c-1.38,0.15-2.96,0.92-4.14,1.12c-0.06,0.01-0.13,0.02-0.19,0.03 c-0.02,0.41-0.01,0.82-0.02,1.18c-0.05,2.04,0.21,10.76,0.61,10.75c0.4-0.02,1.58-0.23,1.88-0.55c0.2-0.21,0.24-0.71,0.3-0.98 c0.21-0.87,0.4-1.73,0.53-2.61c0.18-1.19,0.32-2.36,0.4-3.55C60.05,220.42,60.32,218.62,60.53,216.83z"/>
</g>
</g>
</g>
<g id="Gloves">
<g id="Left-Glove"><g id="Basic_Left_Glove" class="option" fill="rgb(93, 93, 93)" style="display: inherit;">
<path d="M138.6,124.11c-0.54-0.03-1.05-0.01-1.58,0.1c-0.36,0.08-0.72,0.16-1.04,0.35 c-0.99,0.57-0.72,1.81,0.16,2.28c1.03,0.55,2.66,0.01,3.13-1.05C139.46,125.35,138.86,124.53,138.6,124.11"/>
<path d="M136.79,125.19c-0.54-0.03-1.05-0.02-1.59,0.1c-0.36,0.08-0.72,0.16-1.04,0.35 c-0.99,0.57-0.72,1.81,0.16,2.28c1.03,0.55,2.66,0.01,3.13-1.05C137.65,126.43,137.05,125.61,136.79,125.19"/>
<path d="M135.49,126.65c-0.54,0.05-1.19,0.13-1.7,0.31c-0.35,0.12-0.69,0.26-0.99,0.48c-0.9,0.7-0.47,1.89,0.47,2.24 c1.1,0.41,2.64-0.35,2.96-1.46C136.36,127.76,135.49,126.65,135.49,126.65z"/>
<path d="M132.55,110.05c0,0-1.56,2.15-1.97,3.69c-0.29,1.09-0.13,3.68-0.49,5.43c-0.36,1.74-0.69,2.71-0.69,2.71 s-1.38,2.79-1.14,3.43c0.24,0.64,1.45,1.21,2.15,0.87c0.86-0.42,1.93-2.39,2.61-3.77c0.69-1.41,1.25-3.41,1.25-3.41 s0.95,0.32,1.43,0.7c1.61,1.24,0.91,4.96,0.91,4.96s-0.66,1.33-1.66,2.83c-1.36,2.05-3.46,3.81-2.07,5.37 c1.29,1.46,4.22-2.37,4.22-2.37l2.87-3.73c0,0,3.3-5.41,3.47-6.46c0.13-0.8,0.02-3.47,0.02-3.47l-1.03-10.37l-5.24,0.44 l-4.31,1.39L132.55,110.05"/>
</g>
</g>
<g id="Right-Glove"><g id="Basic_Right_Glove" class="option" fill="rgb(93, 93, 93)" style="display: inherit;">
<path d="M31.4,124.11c0.54-0.03,1.05-0.01,1.58,0.1c0.36,0.08,0.72,0.16,1.04,0.35c0.99,0.57,0.72,1.81-0.16,2.28 c-1.03,0.55-2.66,0.01-3.13-1.05C30.53,125.35,31.14,124.53,31.4,124.11"/>
<path d="M33.21,125.19c0.54-0.03,1.05-0.02,1.58,0.1c0.36,0.08,0.72,0.16,1.04,0.35c0.99,0.57,0.72,1.81-0.16,2.28 c-1.03,0.55-2.66,0.01-3.13-1.05C32.35,126.43,32.95,125.61,33.21,125.19"/>
<path d="M34.51,126.65c0.54,0.05,1.19,0.13,1.7,0.31c0.35,0.12,0.69,0.26,0.99,0.48c0.9,0.7,0.47,1.89-0.47,2.24 c-1.1,0.41-2.64-0.35-2.96-1.46C33.64,127.76,34.51,126.65,34.51,126.65z"/>
<path d="M37.45,110.05c0,0,1.56,2.15,1.97,3.69c0.29,1.09,0.13,3.68,0.49,5.43c0.36,1.74,0.69,2.71,0.69,2.71 s1.38,2.79,1.14,3.43c-0.24,0.64-1.45,1.21-2.15,0.87c-0.86-0.42-1.93-2.39-2.61-3.77C36.29,121,35.73,119,35.73,119 s-0.95,0.32-1.43,0.7c-1.61,1.24-0.91,4.96-0.91,4.96s0.66,1.33,1.66,2.83c1.36,2.05,3.46,3.81,2.08,5.37 c-1.29,1.46-4.22-2.37-4.22-2.37l-2.87-3.73c0,0-3.3-5.41-3.47-6.46c-0.13-0.8-0.02-3.47-0.02-3.47l1.03-10.37l5.24,0.44 l4.31,1.39L37.45,110.05"/>
</g>
</g>
</g>
<g id="Biceps">
<g id="Left-Biceps">
<g id="None_Biceps_Left" class="option" style="display: inherit;">
</g></g>
<g id="Right-Biceps">
<g id="None_Biceps_Right" class="option" style="display: inherit;">
</g></g>
</g>
<g id="BicepsDecals" mask="url(#BicepsMask)">
</g>
<path id="Vest" d="M85,20.92c8.5-0.01,15.43-4.3,15.63-8.01l0.15,0.02l18.38,5.42l13.31,23.94l-2.86,1.16l-13.42-8.6 l-2.31,3.72l-1.54,47.4c0,0-8.72,4.71-13.53,5.35c-3.44,0.45-8.63,0.68-13.79,0.67c-5.16,0.01-10.35-0.22-13.79-0.67 c-4.81-0.63-13.53-5.35-13.53-5.35l-1.54-47.4l-2.31-3.72l-13.42,8.6l-2.86-1.16l13.31-23.94l18.38-5.42l0.15-0.02 C69.57,16.62,76.5,20.92,85,20.92" fill="rgb(36, 36, 36)"/>
<g id="SuitDecals" mask="url(#SuitMask)">
</g>
<g class="swappable" id="Chest"><g id="Chest_Galaxy">
<g id="Abdomen_Galaxy">
<path id="Abdomen-Plate_Galaxy" d="M78.03,73.41l-2.08,1.5l-10.56-1.5l-0.77-5.8l5-0.1l3.03-4.92l1.37-4.53 l10.95-9.96L85,48.11l0.02-0.02l10.95,9.96l1.37,4.53l3.03,4.92l5,0.1l-0.77,5.8l-10.56,1.5l-2.08-1.5H78.03z" fill="rgb(76, 109, 139)"/>
<path id="Trauma-Plate_Abdomen_Galaxy" class="toggle" style="display:none" d="M84.98,50.38l-9.46,8.61l-1.3,4.29l-3.63,5.89l-4.03,0.08 l0.35,2.66l8.6,1.22l1.97-1.42h15.04l1.97,1.42l8.6-1.22l0.35-2.66l-4.03-0.08l-3.63-5.89l-1.3-4.29l-9.46-8.61L85,50.4 L84.98,50.38z" fill="rgb(255, 255, 255)"/>
</g>
<g id="Full-Chest_Galaxy">
<path id="Chest-Plate_Galaxy" d="M80.61,33.64l-0.02,10.15l3.21,3.22L72.55,57.6l-1.46,4.89l-2.38,3.9h-4.12 l-2-2.9l-2.55-14.21l-3.73-5.81l4.73-15.2l5.46-0.69l0.77-3.36l5.84-0.71l1.85,3h20.1l1.85-3l5.84,0.71l0.77,3.36l5.46,0.69 l4.73,15.2l-3.73,5.81l-2.55,14.21l-2,2.9h-4.12l-2.38-3.9l-1.46-4.89l-11.25-10.6l3.21-3.22l-0.02-10.15L85,30.24L80.61,33.64z" fill="rgb(76, 109, 139)"/>
<path id="Trauma-Plating_Left-Chest_Galaxy" class="toggle" style="display:none" d="M96,28.19H85.12l5.97,4.62l0.02,11.67l-2.48,2.49 l10.31,9.72l1.53,5.11l1.77,2.9h2.27l1.29-1.87l2.54-14.19l3.49-5.43l-4.17-13.42l-5.55-0.7l-0.77-3.36l-3.57-0.43L96,28.19z" fill="rgb(255, 255, 255)"/>
<path id="Trauma-Plating_Right-Chest_Galaxy" class="toggle" style="display:none" d="M72.23,25.31l-3.57,0.43l-0.77,3.36l-5.55,0.7 l-4.17,13.42l3.49,5.43l2.54,14.19l1.29,1.87h2.27l1.77-2.9l1.53-5.11l10.31-9.72l-2.48-2.49l0.02-11.67l5.97-4.62H74 L72.23,25.31z" fill="rgb(255, 255, 255)"/>
<g id="Accents_Chest-Plate_Galaxy" class="toggle" fill="rgb(44, 119, 54)">
<rect x="96.12" y="31.44" width="9.25" height="1.22"/>
<rect x="96.12" y="33.6" width="9.25" height="1.22"/>
</g>
</g>
<g id="Iron-Heart_Galaxy">
<path id="Heart_Galaxy" d="M82.3,43.49v-9.13l2.7-2.1l2.7,2.1v9.13L85,46.2L82.3,43.49z" fill="rgb(255, 255, 255)"/><rect id="Center_Heart_Galaxy" class="option" x="84.07" y="35.76" width="1.87" height="6.25" fill="rgb(255, 255, 255)" style="display: inherit;"/>
</g>
<g id="Neck-Armor_Galaxy">
<g id="Neck-Plate_Galaxy" fill="rgb(76, 109, 139)">
<path d="M82.75,25.51l-7.39,0.12l-1.82-2.97l-7.05,0.84l-0.7,3.07l-4.52,0.56l-3.33-11.42l11.55-3.44 c0,0,1.53,2.58,2.64,3.49c1.14,0.93,2.66,2.02,4.08,2.64c1.56,0.68,3.46,1.13,5.27,1.42c0.19,0.03,0.38,0.06,0.59,0.08 L82.75,25.51z"/>
<path d="M87.25,25.51l7.39,0.12l1.82-2.97l7.05,0.84l0.7,3.07l4.52,0.56l3.33-11.42l-11.55-3.44 c0,0-1.53,2.58-2.64,3.49c-1.14,0.93-2.66,2.02-4.08,2.64c-1.56,0.68-3.46,1.13-5.27,1.42c-0.19,0.03-0.38,0.06-0.59,0.08 L87.25,25.51z"/>
</g>
<g id="Trauma-Plates_Neck_Galaxy" class="toggle" style="display:none" fill="rgb(255, 255, 255)"/>
</g>
</g></g>
<g id="ChestDecals" mask="url(#ChestMask)">
</g>
<g id="Chest-Attachments">
<g id="Pilot-Box_Accessories_Chest" class="option" style="display: inherit;">
<g id="Main_Pilot-Box_Accessories_Chest" fill="rgb(137, 137, 137)">
<rect x="75.59" y="28.49" width="4.65" height="7.46"/>
<rect x="72.76" y="41.32" width="24.5" height="0.83"/>
<path d="M97.26,26.65c0-0.26-0.1-0.51-0.29-0.69c-0.18-0.18-0.43-0.29-0.69-0.29H73.74c-0.26,0-0.51,0.1-0.69,0.29 c-0.18,0.18-0.29,0.43-0.29,0.69v14.67h24.5V26.65z"/>
<path d="M97.26,42.15h-24.5l1.51,2.23h21.49L97.26,42.15z"/>
<rect x="74.65" y="44.1" width="8.02" height="7.69"/>
<rect x="72.79" y="45.63" width="1.86" height="4.63"/>
<rect x="95.35" y="45.63" width="1.86" height="4.63"/>
<rect x="87.37" y="44.1" width="8.01" height="7.69"/>
<rect x="82.67" y="44.1" width="1.07" height="7.69"/>
<rect x="86.3" y="44.1" width="1.07" height="7.69"/>
</g>
<g id="Parts-2_Pilot-Box_Accessories_Chest" fill="rgb(109, 109, 109)">
<rect x="70.94" y="45.83" width="1.86" height="4.22"/>
<rect x="97.21" y="45.83" width="1.86" height="4.22"/>
<rect x="83.74" y="43.88" width="2.55" height="8.13"/>
<path d="M89.04,27.55H74.65v9.33h14.39V27.55z M80.25,28.49h-4.65v7.46h4.65V28.49z"/>
</g>
<g id="Parts-1_Pilot-Box_Accessories_Chest" fill="rgb(123, 123, 123)">
<ellipse cx="77.92" cy="30.56" rx="1.14" ry="1.13"/>
<ellipse cx="77.92" cy="33.83" rx="1.14" ry="1.13"/>
<g>
<g>
<path d="M70.94,46.29l-4.35,0.08c-0.62,0-1.08-0.02-1.32-0.32c-0.16-0.2-0.18-0.48-0.19-0.81 c-0.02-0.62,0.1-1.36,0.29-2.2c1.16-5.05,4.88-13.12,5.32-21.94c0.32-6.47-1.72-16.7-1.72-16.7c-0.18-0.88-1.04-1.46-1.93-1.28 c-0.89,0.18-1.47,1.03-1.29,1.92c0,0,1.97,9.74,1.66,15.9c-0.3,5.94-2.17,11.52-3.64,16c-1.06,3.25-1.91,5.97-1.97,7.91 c-0.05,1.5,0.34,2.65,1.1,3.45c0.74,0.78,1.91,1.32,3.72,1.32c0.03,0,4.32-0.08,4.32-0.08V46.29z"/>
<path d="M66.77,11.19l3.26-0.27"/>
<path d="M66.48,9.24l3.27-0.29"/>
<path d="M67.05,13.47l3.26-0.27"/>
<path d="M67.29,15.93l3.26-0.27"/>
<path d="M67.45,18.36l3.26-0.27"/>
<path d="M67.45,20.33l3.26,0.05"/>
<path d="M67.32,22.28l3.25,0.45"/>
<path d="M67.08,24.29l3.22,0.6"/>
<path d="M66.74,26.37l3.15,0.92"/>
<path d="M66.26,28.58l3.15,0.88"/>
<path d="M65.78,30.46l3.17,0.78"/>
<path d="M65.19,32.52l3.2,0.67"/>
<path d="M64.6,34.41l3.15,0.85"/>
<path d="M63.99,36.31l3.12,0.96"/>
<path d="M63.27,38.5l3.16,0.84"/>
<path d="M62.62,40.63l3.14,0.9"/>
<path d="M62.04,42.96l3.33,0.09"/>
<path d="M61.81,45.52l3.32-1.17"/>
<path d="M62.62,47.99l2.47-2.46"/>
<path d="M64.7,49.38l0.67-3.23"/>
<path d="M66.94,49.63L67,46.37"/>
<path d="M69.05,49.59v-3.26"/>
</g>
<g>
<path d="M99.06,46.29l4.35,0.08c0.62,0,1.08-0.02,1.32-0.32c0.16-0.2,0.18-0.48,0.19-0.81 c0.02-0.62-0.1-1.36-0.29-2.2c-1.16-5.05-4.88-13.12-5.32-21.94c-0.32-6.47,1.72-16.7,1.72-16.7c0.18-0.88,1.04-1.46,1.93-1.28 c0.89,0.18,1.47,1.03,1.29,1.92c0,0-1.97,9.74-1.66,15.9c0.3,5.94,2.17,11.52,3.64,16c1.07,3.25,1.91,5.97,1.97,7.91 c0.05,1.5-0.34,2.65-1.1,3.45c-0.74,0.78-1.91,1.32-3.72,1.32c-0.03,0-4.32-0.08-4.32-0.08V46.29z"/>
<path d="M103.23,11.19l-3.26-0.27"/>
<path d="M103.52,9.24l-3.27-0.29"/>
<path d="M102.95,13.47l-3.26-0.27"/>
<path d="M102.71,15.93l-3.26-0.27"/>
<path d="M102.55,18.36l-3.26-0.27"/>
<path d="M102.55,20.33l-3.26,0.05"/>
<path d="M102.68,22.28l-3.25,0.45"/>
<path d="M102.92,24.29l-3.22,0.6"/>
<path d="M103.26,26.37l-3.15,0.92"/>
<path d="M103.74,28.58l-3.15,0.88"/>
<path d="M104.22,30.46l-3.17,0.78"/>
<path d="M104.81,32.52l-3.2,0.67"/>
<path d="M105.4,34.41l-3.15,0.85"/>
<path d="M106.01,36.31l-3.12,0.96"/>
<path d="M106.73,38.5l-3.16,0.84"/>
<path d="M107.38,40.63l-3.14,0.9"/>
<path d="M107.96,42.96l-3.33,0.09"/>
<path d="M108.19,45.52l-3.32-1.17"/>
<path d="M107.38,47.99l-2.47-2.46"/>
<path d="M105.3,49.38l-0.67-3.23"/>
<path d="M103.06,49.63L103,46.37"/>
<path d="M100.95,49.59v-3.26"/>
</g>
</g>
<rect x="80.99" y="47.2" width="2.22" height="1.48"/>
<rect x="86.79" y="47.2" width="2.22" height="1.48"/>
<path d="M70.28,4.22c0-0.62-0.51-1.13-1.13-1.13h-2.56c-0.62,0-1.13,0.5-1.13,1.13v2.25c0,0.62,0.51,1.12,1.13,1.12 h2.56c0.62,0,1.13-0.5,1.13-1.12V4.22z"/>
<rect x="66.59" y="3.1" width="0.35" height="4.5"/>
<path d="M99.72,4.22c0-0.62,0.51-1.13,1.13-1.13h2.56c0.62,0,1.13,0.5,1.13,1.13v2.25c0,0.62-0.51,1.12-1.13,1.12 h-2.56c-0.62,0-1.13-0.5-1.13-1.12V4.22z"/>
<rect x="103.07" y="3.1" width="0.35" height="4.5"/>
</g>
<g id="Buttons-2_Pilot-Box_Accessories_Chest" fill="rgb(211, 0, 0)">
<ellipse cx="80.78" cy="38.97" rx="0.56" ry="0.56"/>
<rect x="92.25" y="33.19" width="1.51" height="3.69"/>
<rect x="82.86" y="28.49" width="5.24" height="1.17"/>
<rect x="85.95" y="29.94" width="2.14" height="1.17"/>
<ellipse cx="84.79" cy="38.97" rx="0.56" ry="0.56"/>
</g>
<g id="Buttons-1_Pilot-Box_Accessories_Chest" fill="rgb(8, 203, 51)">
<rect x="92.25" y="27.55" width="1.51" height="3.69"/>
<rect x="82.86" y="29.94" width="2.14" height="1.17"/>
<ellipse cx="78.89" cy="38.97" rx="0.56" ry="0.56"/>
<ellipse cx="82.71" cy="38.97" rx="0.56" ry="0.56"/>
</g>
</g></g>
<g id="Collar"><g id="None_Collar" class="option" style="display: inherit;">
</g>
</g>
<g id="CollarDecals" mask="url(#CollarMask)">
</g>
<g id="Helmets" class="swappable" transform="translate(45,-52)"><g id="Helmet_Guardian">
<g id="Left-Earcap_Guardian" class="toggle" fill="rgb(74, 74, 74)">
<path d="M59.23,32.43l0.4,0.4l-0.03,8.2h-1.81v-1.41h1.44V32.43"/>
<path d="M57.79,43.61h1.06v16.61h-1.06V43.61"/>
<path d="M58.85,43.61h0.76v1.25h-0.76V43.61"/>
<path d="M57.45,32.43h1.78v7.2h-1.78V32.43"/>
<path d="M58.17,34.42h1.23v1.29h-1.23V34.42"/>
<path d="M58.34,39.95h0.89v0.72h-0.89V39.95"/>
<path d="M58.34,39.95h0.89v0.24h-0.89V39.95"/>
<path d="M59.63,34.89l0.44,0.44v6.39h-0.44V34.89"/>
<path d="M57.79,41.02h1.82v2.6h-1.82V41.02"/>
</g>
<g id="Right-Earcap_Guardian" class="toggle" fill="rgb(74, 74, 74)">
<path d="M20.77,32.43l-0.4,0.4l0.03,8.2h1.81v-1.41h-1.44V32.43"/>
<path d="M22.21,43.61h-1.06v16.61h1.06V43.61"/>
<path d="M21.15,43.61h-0.76v1.25h0.76V43.61"/>
<path d="M22.55,32.43h-1.78v7.2h1.78V32.43"/>
<path d="M21.83,34.42H20.6v1.29h1.23V34.42"/>
<path d="M21.66,39.95h-0.89v0.72h0.89V39.95"/>
<path d="M21.66,39.95h-0.89v0.24h0.89V39.95"/>
<path d="M20.37,34.89l-0.44,0.44v6.39h0.44V34.89"/>
<path d="M22.21,41.02h-1.82v2.6h1.82V41.02"/>
</g>
<g id="Helmet_Pieces_Guardian">
<g id="Face_Guardian" fill="rgb(96, 96, 96)">
<path d="M25.66,48.81l7.66,6.75l1.82,11.17l-10.47-4.86L25.66,48.81z"/>
<path d="M54.39,48.81l-7.66,6.75l-1.82,11.17l10.47-4.86L54.39,48.81z"/>
</g>
<g id="Cheeks_Guardian" fill="rgb(223, 223, 223)">
<path d="M25.66,48.81l-0.99,13.06l-1.98-0.6V41.93L25.66,48.81z"/>
<path d="M22.95,42.54c0.4,0.76,1.36,2.17,3.51,3.79c3.22,2.42,5.85,3.04,5.85,3.04l1.01,6.19l-7.66-6.75L22.95,42.54 z"/>
<path d="M54.39,48.81l0.99,13.06l1.98-0.6V41.93L54.39,48.81z"/>
<path d="M57.1,42.54c-0.4,0.76-1.36,2.17-3.51,3.79c-3.22,2.42-5.85,3.04-5.85,3.04l-1.01,6.19l7.66-6.75L57.1,42.54 z"/>
</g>
<path fill="rgb(21, 20, 20)" id="Visor_Guardian" d="M36.36,66.97l1.69-2.69l-1.38-22.63l-13.45-2.98v-1.28h13.73l1,1.01h4.16l1-1.01h13.73 v1.28l-13.45,2.98l-1.38,22.63l1.69,2.69c0,0-2.45,0.3-3.67,0.3C38.8,67.27,36.36,66.97,36.36,66.97z"/>
<path id="Dome_Guardian" d="M22.32,35.36c0-9.83,7.93-17.81,17.7-17.81c9.77,0,17.7,7.98,17.7,17.81H22.32z" fill="rgb(37, 36, 36)"/>
<g id="Eyes_Guardian" fill="rgb(120, 168, 212)">
<rect x="39.46" y="25.65" width="1.14" height="12.75"/>
<path d="M39.46,25.39V38.4h-1.51l-1-1.01H23.22v1.28l13.45,2.98l1.38,22.63l-1.83,2.91l-1.04-0.22l-2.86-17.6 c0,0-2.64-0.62-5.85-3.04c-3.25-2.44-3.78-4.4-3.78-4.4v19.34l-0.66-0.67V33.79h3.4l6.14-8.4H39.46z"/>
<path d="M40.6,25.39V38.4h1.51l1-1.01h13.73v1.28l-13.45,2.98l-1.38,22.63l1.83,2.91l1.04-0.22l2.86-17.6 c0,0,2.64-0.62,5.85-3.04c3.25-2.44,3.78-4.4,3.78-4.4v19.34l0.66-0.67V33.79h-3.4l-6.14-8.4H40.6z"/>
</g>
</g>
</g></g>
<g id="HelmetsDecals" mask="url(#HelmetsMask)"/>
<g id="Shoulders">
<g id="Left-Shoulder"><g id="Classic_Shoulder_Left" class="option" style="display: inherit;">
<path id="Main_Shoulder_Classic_Left" d="M117.21,13.84l-2.52,11.33l2.02,6.52l13.49,6.79l2.27-3.46L117.21,13.84z " fill="rgb(7, 50, 90)"/>
<path id="Trauma-Plates_Shoulder_Classic_Left" class="toggle" style="" d="M116.44,25.1l1.67,5.41l11.49,5.78l1.94-2.96 l-12.93-17.99L116.44,25.1z" fill="rgb(76, 109, 139)"/>
</g>
</g>
<g id="Right-Shoulder"><g id="Classic_Shoulder_Right" class="option" style="display: inherit;">
<path id="Main_Shoulder_Classic_Right" d="M52.79,13.84l2.52,11.33l-2.02,6.52l-13.49,6.79l-2.27-3.46L52.79,13.84 z" fill="rgb(7, 50, 90)"/>
<path id="Trauma-Plates_Shoulder_Classic_Right" class="toggle" style="" d="M53.56,25.1l-1.67,5.41L40.4,36.29l-1.94-2.96 l12.93-17.99L53.56,25.1z" fill="rgb(76, 109, 139)"/>
</g>
</g>
</g>
<g id="ShouldersDecals" mask="url(#ShouldersMask)">
</g>
<g id="Gauntlets">
<g id="Left-Gauntlets"><g id="Gunslinger_Gauntlet_Left" class="option" style="display: inherit;">
<g id="Accent-Top_Gunslinger_Gauntlet_Left" fill="rgb(80, 80, 80)">
<path d="M139.9,80.56l0.62,5.62l-2.85,0.79l-0.66-5.33L139.9,80.56z"/>
<path d="M138.55,101.39l0.57,2.87l-2.51,0.54l-0.6-2.86L138.55,101.39z"/>
</g>
<path id="Top_Gunslinger_Gauntlet_Left" d="M139.9,80.56l1.3-0.49l2.29,26.33l-6.27,1.32l-0.85-4.08l0.24,1.15 l2.51-0.54l-0.57-2.87l-2.54,0.54l-3.85-18.47L139.9,80.56l-2.89,1.08l0.66,5.33l2.85-0.79L139.9,80.56z" fill="rgb(93, 93, 93)"/>
<g id="Accent-Bottom_Gunslinger_Gauntlet_Left" fill="rgb(80, 80, 80)">
<path d="M128.55,91.98l-0.74-2.3l-1.62,0.52l0.74,2.3L128.55,91.98z"/>
<path d="M129.4,94.59l-0.74-2.3l-1.62,0.52l0.74,2.3L129.4,94.59z"/>
<path d="M136.01,101.93l-5.61,1.2l0.9,2.8l5.3-1.13L136.01,101.93z"/>
</g>
<path id="Bottom_Gunslinger_Gauntlet_Left" d="M136.52,104.38l-0.51-2.45l-5.61,1.2l0.9,2.8l5.3-1.13l0.61,2.93 c0,0-1.97,0.34-3.45,0.6c-0.92,0.16-1.82-0.38-2.11-1.26c-1.57-4.84-6.31-19.4-6.31-19.4l6.89-3.82L136.52,104.38z M129.4,94.59 l-0.74-2.3l-1.62,0.52l0.74,2.3L129.4,94.59z M128.55,91.98l-0.74-2.3l-1.62,0.52l0.74,2.3L128.55,91.98z" fill="rgb(93, 93, 93)"/><g id="No-Device_Attachment_Gunslinger_Gauntlet_Left" class="option" style="display: inherit;">
</g>
</g></g>
<g id="Right-Gauntlets"><g id="Gunslinger_Gauntlet_Right" class="option" style="display: inherit;">
<g id="Accent-Top_Gunslinger_Gauntlet_Right" fill="rgb(80, 80, 80)">
<path d="M30.21,80.56l-0.62,5.62l2.85,0.79l0.66-5.33L30.21,80.56z"/>
<path d="M31.56,101.39l-0.57,2.87l2.51,0.54l0.6-2.86L31.56,101.39z"/>
</g>
<path id="Top_Gunslinger_Gauntlet_Right" d="M30.21,80.56l-1.3-0.49l-2.29,26.33l6.27,1.32l0.85-4.08l-0.24,1.15 l-2.51-0.54l0.57-2.87l2.54,0.54l3.85-18.47L30.21,80.56l2.89,1.08l-0.66,5.33l-2.85-0.79L30.21,80.56z" fill="rgb(93, 93, 93)"/>
<g id="Accent-Bottom_Gunslinger_Gauntlet_Right" fill="rgb(80, 80, 80)">
<path d="M41.56,91.98l0.74-2.3l1.62,0.52l-0.74,2.3L41.56,91.98z"/>
<path d="M40.71,94.59l0.74-2.3l1.62,0.52l-0.74,2.3L40.71,94.59z"/>
<path d="M34.1,101.93l5.61,1.2l-0.9,2.8l-5.3-1.13L34.1,101.93z"/>
</g>
<path id="Bottom_Gunslinger_Gauntlet_Right" d="M33.59,104.38l0.51-2.45l5.61,1.2l-0.9,2.8l-5.3-1.13l-0.61,2.93 c0,0,1.97,0.34,3.45,0.6c0.92,0.16,1.82-0.38,2.11-1.26c1.57-4.84,6.31-19.4,6.31-19.4l-6.89-3.82L33.59,104.38z M40.71,94.59 l0.74-2.3l1.62,0.52l-0.74,2.3L40.71,94.59z M41.56,91.98l0.74-2.3l1.62,0.52l-0.74,2.3L41.56,91.98z" fill="rgb(93, 93, 93)"/><g id="No-Device_Attachment_Gunslinger_Gauntlet_Right" class="option" style="display: inherit;">
</g>
</g></g>
</g>
<g id="GauntletsDecals" mask="url(#GauntletsMask)">
</g>
<g id="Shins">
<g id="Left-Shin"><g id="Full_Shin_Left" class="option" style="display: inherit;">
<path id="Shin_Full-Shin_Left" d="M102.49,175.8c10.97-2.98,18.29-1.11,18.29-1.11l4.35,42.35 c0,0-4.31,1.17-9.01,1.31c-3.44,0.1-8.96-0.97-8.96-0.97l-7.9-36C99.27,181.38,102.89,180.58,102.49,175.8" fill="rgb(137, 137, 137)"/>
<g id="Accent_Full-Shin_Left" class="toggle" fill="rgb(113, 113, 113)">
<path d="M100.16,185.33l6.08-0.75l0.41,1.58l-6.12,0.76L100.16,185.33"/>
<path d="M100.67,187.53l4.15-0.52l0.41,1.58l-4.2,0.53L100.67,187.53"/>
</g>
<g id="Ridge_Full-Shin_Left" class="toggle" fill="rgb(96, 118, 137)">
<path d="M116.97,173.79l-3.93-0.29l-4.03,0.56l8.19,44.25c1.96-0.02,3.4-0.28,5.63-0.74L116.97,173.79"/>
<path d="M113.04,173.5l7.28,44.54"/>
</g>
</g></g>
<g id="Right-Shin"><g id="Full_Shin_Right" class="option" style="display: inherit;">
<path id="Shin_Full-Shin_Right" d="M67.41,175.8c-10.97-2.98-18.29-1.11-18.29-1.11l-4.35,42.35 c0,0,4.31,1.17,9.01,1.31c3.44,0.1,8.96-0.97,8.96-0.97l7.9-36C70.62,181.38,67,180.58,67.41,175.8" fill="rgb(137, 137, 137)"/>
<g id="Accent_Full-Shin_Right" class="toggle" fill="rgb(113, 113, 113)">
<path d="M69.73,185.33l-6.08-0.75l-0.41,1.58l6.12,0.76L69.73,185.33"/>
<path d="M69.23,187.53l-4.15-0.52l-0.41,1.58l4.2,0.53L69.23,187.53"/>
</g>
<g id="Ridge_Full-Shin_Right" class="toggle" fill="rgb(96, 118, 137)">
<path d="M52.92,173.79l3.93-0.29l4.03,0.56L52.7,218.3c-1.95-0.02-3.4-0.28-5.63-0.74L52.92,173.79"/>
<path d="M56.85,173.5l-7.28,44.54"/>
</g>
</g></g>
</g>
<g id="ShinsDecals" mask="url(#ShinsMask)">
</g>
<g id="Foot">
<g id="Left-Ankle">
<g id="None_Ankle_Left" class="option" style="display: inherit;">
</g></g>
<g id="Left-Toe"><g id="None_Toe_Left" class="option" style="display: inherit;">
</g>
</g>
<g id="Right-Ankle">
<g id="None_Ankle_Right" class="option" style="display: inherit;">
</g></g>
<g id="Right-Toe"><g id="None_Toe_Right" class="option" style="display: inherit;">
</g>
</g>
</g>
<g id="FootDecals" mask="url(#FootMask)">
</g>
<g id="Knees">
<g id="Left-Knee">
<g id="None-(Nih-Plates)_Knee_Left" class="option" style="display: inherit;">
</g></g>
<g id="Right-Knee">
<g id="None-(Nih-Plates)_Knee_Right" class="option" style="display: inherit;">
</g></g>
</g>
<g id="KneesDecals" mask="url(#KneesMask)">
</g>
<g id="Thighs">
<g id="Left-Thigh"><g id="Pocket_Thigh_Left" class="option" fill="rgb(53, 64, 74)" style="display: inherit;">
<path d="M118.69,124.47c0.55,6.45,1.32,12.57,2.29,18.39c0.2,1.16-0.11,2.35-0.83,3.27c-0.73,0.93-1.82,1.5-3,1.59 c-5.35,0.43-10.77,1.25-16.24,2.29c-0.92,0.18-1.87-0.03-2.64-0.56c-0.76-0.54-1.27-1.36-1.41-2.28 c-0.92-6.1-2.78-18.4-3.5-23.17c-0.16-1.08,0.58-2.09,1.67-2.26c2.42-0.38,6.21-0.97,6.21-0.97L118.69,124.47"/>
<path d="M116.17,118.36c0.76-0.12,1.5,0.3,1.78,1.01c0.92,2.45,1.72,6.36,1.1,8.36c-0.8,2.59-8.94,17.56-10.96,21.25 c-0.28,0.52-0.8,0.86-1.38,0.93c-1.16,0.14-3.16,0.37-4.49,0.52c-0.73,0.08-1.4-0.43-1.51-1.15c-0.67-4.44-2.86-19-3.7-24.61 c-0.2-1.36-1.18-2.47-2.51-2.85l0,0C94.5,121.82,111.39,119.12,116.17,118.36"/>
<path id="Stitch_Left" d="M115.92,118.39c1.72-0.23,2.97,6.8,2.41,8.62c-0.72,2.34-8.84,17.84-10.67,21.18 c-0.25,0.47-0.72,0.78-1.25,0.84l-3.5,0.5c-0.66,0.08-1.27-0.38-1.37-1.04c-0.6-4.01-2.96-19.62-3.75-24.68 c-0.28-1.79-2.19-2.17-2.19-2.17"/>
<path d="M94.96,121.74l21.05-3.36"/>
</g></g>
<g id="Right-Thigh"><g id="Pocket_Thigh_Right" class="option" fill="rgb(53, 64, 74)" style="display: inherit;">
<path d="M51.2,124.47c-0.55,6.45-1.32,12.57-2.29,18.39c-0.2,1.16,0.1,2.35,0.83,3.27c0.73,0.93,1.82,1.5,2.99,1.59 c5.35,0.43,10.77,1.25,16.24,2.29c0.92,0.18,1.87-0.03,2.64-0.56c0.76-0.54,1.27-1.36,1.41-2.28c0.92-6.1,2.78-18.4,3.5-23.17 c0.16-1.08-0.58-2.09-1.67-2.26c-2.42-0.38-6.21-0.97-6.21-0.97L51.2,124.47"/>
<path d="M53.73,118.36c-0.76-0.12-1.5,0.3-1.78,1.01c-0.92,2.45-1.72,6.36-1.1,8.36c0.8,2.59,8.94,17.56,10.96,21.25 c0.28,0.52,0.8,0.86,1.38,0.93c1.16,0.14,3.16,0.37,4.48,0.52c0.74,0.08,1.4-0.43,1.51-1.15c0.67-4.44,2.86-19,3.7-24.61 c0.2-1.36,1.18-2.47,2.51-2.85l0,0C75.39,121.82,58.5,119.12,53.73,118.36"/>
<path id="Stitch_Right" d="M53.97,118.39c-1.72-0.23-2.97,6.8-2.41,8.62c0.72,2.34,8.84,17.84,10.67,21.18 c0.25,0.47,0.72,0.78,1.25,0.84l3.5,0.5c0.66,0.08,1.27-0.38,1.37-1.04c0.6-4.01,2.97-19.62,3.75-24.68 c0.28-1.79,2.19-2.17,2.19-2.17"/>
<path d="M74.93,121.74l-21.05-3.36"/>
</g></g>
</g>
<g id="ThighsDecals" mask="url(#ThighsMask)">
</g>
<g id="Groin">
<g id="None_Groin" class="option" style="display: inherit;">
</g></g>
<g id="GroinDecals" mask="url(#GroinMask)">
</g>
<g id="Waist">
<g id="Accessories_Waist">
<g id="Kama" class="toggle" style="display:none"/>
<g id="Loin-Cloth" class="toggle" style="display:none"/>
<g id="Left-Holster" class="toggle" style="display:none"/>
<g id="Right-Holster" class="toggle" style=""><g id="Belt-Holster_Right" class="option" style="display: inherit;">
<g id="Weapon_Belt-Holster-Right">
<g id="Main_Weapon_Belt-Holster-Right" fill="rgb(125, 123, 123)">
<path d="M53.1,99.11l0.24-3.6l-0.62-0.04l0.15-2.26l0.62,0.04l0.08-1.18c0.03-0.38-0.47-0.73-1.1-0.77 c-1.45-0.1-3.93-0.26-5.37-0.36c-0.63-0.04-1.17,0.23-1.19,0.62l-0.08,1.18l0.62,0.04l-0.15,2.26L45.68,95l-0.24,3.6l1.46,0.1 l-0.67,9.95l4.73,0.31l0.67-9.95L53.1,99.11z"/>
<path d="M46.1,98.11l0.84,0.06l-0.8,11.96l4.73,0.31l0.8-11.96l0.84,0.06l0.18-2.73l-6.41-0.42L46.1,98.11z"/>
<path d="M47.84,91.78l3.8,0.25l-0.25,3.69l-3.8-0.25L47.84,91.78z"/>
<path d="M50.51,99.49l0.62,0.04l-0.63,9.4l-0.62-0.04L50.51,99.49z"/>
<path d="M49.07,97.23l0.62,0.04l-0.63,9.4l-0.62-0.04L49.07,97.23z"/>
<path d="M47.33,99.28l0.62,0.04l-0.63,9.4l-0.62-0.04L47.33,99.28z"/>
</g>
<g id="Accent_Weapon_Belt-Holster-Right" fill="rgb(117, 114, 114)">
<path d="M50.8,96.06l-0.03,0.38l-2.68-0.18l0.02-0.38L50.8,96.06z"/>
<path d="M50.78,96.44l-0.03,0.38l-2.68-0.18l0.03-0.38L50.78,96.44z"/>
<path d="M50.83,95.68l-0.02,0.38l-2.68-0.18l0.03-0.38L50.83,95.68z"/>
<path d="M51.14,91.05l-0.02,0.38l-2.68-0.18l0.03-0.38L51.14,91.05z"/>
<path d="M51.01,91.99l0.62,0.04l-0.25,3.69l-0.62-0.04L51.01,91.99z"/>
<path d="M47.84,91.78l0.62,0.04l-0.25,3.69l-0.62-0.04L47.84,91.78z"/>
<path d="M47.96,99.32l0.94,0.06l-0.63,9.4l-0.94-0.06L47.96,99.32z"/>
<path d="M49.56,99.42l0.94,0.06l-0.63,9.4l-0.94-0.06L49.56,99.42z"/>
</g>
</g>
<path id="Holster_Belt-Holster-Right" d="M51.49,112.89l2.47-14.99l-8.29,10.56l-0.79,20.68 c1.44,1.89,3.04,2.08,4.84,0.36L51.49,112.89z" fill="rgb(142, 141, 141)"/>
</g>
</g>
<g id="Left-Trophy" class="toggle" style="display:none"/>
<g id="Right-Trophy" class="toggle" style="display:none"/>
</g>
<g id="Under-Belt"><g id="Girth-Belt" class="option" fill="rgb(171, 171, 171)" style="display: inherit;">
<path d="M84.93,84.93c-9.33,0-27.98-2.25-27.98-2.25l0.61-1.91c0,0,18.19,1.5,27.37,2.25 c9.13-0.75,27.37-2.25,27.37-2.25l0.6,1.91C112.91,82.68,94.25,84.93,84.93,84.93z"/>
<path d="M84.93,86.84c-9.52,0-28.56-2.25-28.56-2.25l0.58-1.91c0,0,23.31,1.88,27.98,2.25 c4.66-0.38,27.98-2.25,27.98-2.25l0.58,1.91C113.49,84.59,94.45,86.84,84.93,86.84z"/>
<path d="M84.93,88.75c-9.67,0-28.99-2.25-28.99-2.25l0.43-1.91c0,0,23.8,1.88,28.56,2.25 c4.76-0.38,28.56-2.25,28.56-2.25l0.43,1.91C113.92,86.49,94.6,88.75,84.93,88.75z"/>
<path d="M84.93,90.65c-9.79,0-29.36-2.25-29.36-2.25l0.37-1.91c0,0,24.16,1.88,28.99,2.25 c4.83-0.38,28.99-2.25,28.99-2.25l0.37,1.91C114.29,88.4,94.72,90.65,84.93,90.65z"/>
<path d="M84.93,92.56c-9.9,0-29.69-2.25-29.69-2.25l0.33-1.91c0,0,24.47,1.88,29.36,2.25 c4.89-0.38,29.36-2.25,29.36-2.25l0.33,1.91C114.62,90.31,94.83,92.56,84.93,92.56z"/>
<path d="M84.93,94.47c-10,0-30-2.25-30-2.25l0.31-1.91c0,0,24.74,1.88,29.69,2.25c4.95-0.38,29.69-2.25,29.69-2.25 l0.31,1.91C114.93,92.21,94.93,94.47,84.93,94.47z"/>
<path d="M84.93,96.37c-10.1,0-30.31-2.25-30.31-2.25l0.31-1.91c0,0,25,1.88,30,2.25c5-0.38,30-2.25,30-2.25 l0.31,1.91C115.24,94.12,95.03,96.37,84.93,96.37z"/>
<path d="M84.93,98.28c-10.21,0-30.62-2.25-30.62-2.25l0.32-1.91c0,0,25.26,1.88,30.31,2.25 c5.05-0.38,30.31-2.25,30.31-2.25l0.32,1.91C115.55,96.03,95.14,98.28,84.93,98.28z"/>
<path d="M84.93,100.19c-10.32,0-30.97-2.25-30.97-2.25l0.34-1.91c0,0,25.52,1.88,30.62,2.25 c5.1-0.38,30.62-2.25,30.62-2.25l0.35,1.91C115.9,97.93,95.25,100.19,84.93,100.19z"/>
<path d="M84.93,102.09c-10.45,0-31.36-2.25-31.36-2.25l0.39-1.91c0,0,25.81,1.88,30.97,2.25 c5.16-0.38,30.97-2.25,30.97-2.25l0.39,1.91C116.29,99.84,95.38,102.09,84.93,102.09z"/>
</g>
</g>
<g id="Belt"><g id="Pouch-Belt-2" class="option" style="display: inherit;">
<path id="Main_Pouch-Belt-2" d="M115.21,92.95c-6.82,0.61-22.4,2.83-30.27,2.83c-7.94,0-23.52-2.23-30.26-2.82 l1.01-7.93c5.53,0.49,21.56,2.74,29.26,2.74c7.47,0,23.17-2.23,29.07-2.76L115.21,92.95z" fill="rgb(163, 163, 163)"/>
<rect id="Buckle_Pouch-Belt-2" x="79.37" y="87.01" width="11.28" height="9.21" fill="rgb(142, 140, 140)"/>
<g id="Pouches_Pouch-Belt-2" fill="rgb(163, 163, 163)">
<g>
<path d="M52.22,84.29l0.55-0.85l2.83,0.09l0.35,1.06L52.22,84.29z"/>
<path d="M55.93,84.69c0.01-0.07-0.01-0.13-0.06-0.18c-0.04-0.05-0.11-0.08-0.17-0.08 c-0.85-0.03-3.48-0.13-3.48-0.13l-0.5,11.17c0.11,0.28,1.53,0.46,2.68,0.49c0.5,0.01,0.91-0.38,0.92-0.88 C55.4,91.61,55.53,88.14,55.93,84.69z"/>
</g>
<g>
<path d="M117.67,84.29l-0.55-0.85l-2.83,0.09l-0.35,1.06L117.67,84.29z"/>
<path d="M113.96,84.69c-0.01-0.07,0.01-0.13,0.06-0.18c0.04-0.05,0.11-0.08,0.18-0.08 c0.85-0.03,3.48-0.13,3.48-0.13l0.5,11.17c-0.11,0.28-1.53,0.46-2.68,0.49c-0.5,0.01-0.91-0.38-0.92-0.88 C114.49,91.61,114.36,88.14,113.96,84.69z"/>
</g>
</g>
</g></g>
</g>
<g id="WaistDecals" mask="url(#WaistMask)">
</g>
<g id="Extras_Front">
<g id="Front"><g id="None_Front" class="option" style="display: inherit;">
</g>
</g>
</g>
<g id="Extras-FrontDecals" mask="url(#FrontMask)">
</g>
</g>
</svg>