<?xml version='1.0' encoding='UTF-8'?><svg version='1.1' xmlns='http://www.w3.org/2000/svg'><metadata><rdf:rdf xmlns:rdf="http://www.w3.org/1999/02/22-rdf-syntax-ns#" xmlns:rdfs="http://www.w3.org/2000/01/rdf-schema#" xmlns:dc="http://purl.org/dc/elements/1.1/"> <rdf:description> <dc:creator>MandoCreator</dc:creator> <dc:publisher>https://www.mandocreator.com</dc:publisher> <dc:description>Your Beskar'gam - created by MandoCreator</dc:description> <dc:format>image/svg+xml</dc:format> <dc:type>Image</dc:type> <dc:title>MandoCreator - Ner Berskar'gam</dc:title> <dc:date>2021-10-08T16:48:47.269Z</dc:date> </rdf:description> </rdf:rdf></metadata><svg version="1.1" id="Male" xmlns="http://www.w3.org/2000/svg" xmlns:xlink="http://www.w3.org/1999/xlink" x="0px" y="0px" viewBox="0 -55 169 300" style="fill: white; fill-rule: evenodd; stroke: black; stroke-width: 0.2px; pointer-events: none; position: relative; height: 100%;">
<g id="Extras_Back">
<g id="Back"><g id="NO-CAPES_Back" class="option" style="display: inherit;">
</g>
</g>
</g>
<g id="Suit">
<g id="Neck-Seal">
<g id="Standard-Neck-Seal" class="option" style="fill: rgb(55, 66, 76); display: inherit;">
<path d="M98,7.5c0-0.9-0.9-1.6-2.1-1.6c0,0-7.8,0.9-11.6,0.9c-3.9,0-11.6-0.9-11.6-0.9c-1.1,0-2.1,0.7-2.1,1.6 s0.9,1.6,2.1,1.6c0,0,7.8,0.9,11.6,0.9C88.2,10,96,9.2,96,9.2C97.1,9.2,98,8.4,98,7.5z"/>
<path d="M98.7,9.4c0-0.9-1-1.7-2.2-1.7c0,0-8.1,0.9-12.2,0.9c-4.1,0-12.2-0.9-12.2-0.9c-1.2,0-2.2,0.8-2.2,1.7 c0,0.9,1,1.7,2.2,1.7c0,0,8.1,0.9,12.2,0.9c4.1,0,12.2-0.9,12.2-0.9C97.8,11.1,98.7,10.4,98.7,9.4z"/>
<path d="M99.5,11.8c0-1-1-1.8-2.3-1.8c0,0-8.6,0.9-12.9,0.9C80,10.9,71.4,10,71.4,10c-1.3,0-2.3,0.8-2.3,1.8 s1,1.8,2.3,1.8c0,0,8.6,0.9,12.9,0.9c4.3,0,12.9-0.9,12.9-0.9C98.5,13.6,99.5,12.8,99.5,11.8z"/>
<path d="M100.3,13.9c0-1-1.1-1.9-2.4-1.9c0,0-9,1-13.5,1s-13.5-1-13.5-1c-1.3,0-2.4,0.8-2.4,1.9s1.1,1.9,2.4,1.9 c0,0,9,1,13.5,1s13.5-1,13.5-1C99.2,15.8,100.3,15,100.3,13.9z"/>
<path d="M101,16.1c0-0.8-1.1-1.4-2.5-1.4c0,0-9.4,0.7-14.2,0.7c-4.8,0-14.2-0.7-14.2-0.7c-1.4,0-2.5,0.6-2.5,1.4 c0,0.8,1.1,1.4,2.5,1.4c0,0,9.4,0.8,14.2,0.8c4.8,0,14.2-0.8,14.2-0.8C99.9,17.5,101,16.9,101,16.1z"/>
<path d="M101,18.4c0-0.8-1.1-1.4-2.5-1.4c0,0-9.4,0.7-14.2,0.7c-4.8,0-14.2-0.7-14.2-0.7c-1.4,0-2.5,0.6-2.5,1.4 c0,0.8,1.1,1.4,2.5,1.4c0,0,9.4,1.4,14.2,1.4c4.8,0,14.2-1.4,14.2-1.4C99.9,19.9,101,19.2,101,18.4z"/>
</g>
</g>
<g id="Flight-Suit" style="fill: rgb(55, 66, 76);">
<path d="M72.8,158.4l-1.5,8.7l-11,53.1c0,0-4.9,3-7.4,3.5s-7.7-0.4-7.7-0.4l3.8-43l2.9-18.4l0.7-7.8 c0,0-2.5-22.8-1.7-34.1c0.8-11.4,6.6-34,6.6-34l26.8,0.6l26.8-0.6c0,0,5.8,22.6,6.6,34c0.8,11.4-1.7,34.1-1.7,34.1l0.7,7.8 l2.9,18.4l3.8,43c0,0-5.3,1.2-7.8,0.7s-7.3-3.7-7.3-3.7l-11-53.1l-1.5-8.7l-11.6-30.3L72.8,158.4z"/>
<g>
<path d="M128.5,43.3l11.9,41.6l1,21.5l-9.5,1.8l-6-20.2l-13.6-33.9l0.7-15.5l2.3-3.7L128.5,43.3z"/>
<path d="M40.3,43.3l13.1-8.4l2.3,3.7l0.5,16L42.8,88l-6,20.2l-9.5-1.8l1-21.5L40.3,43.3z"/>
</g>
</g>
<g id="Sleeves" class="toggle" style="fill: rgb(255, 255, 255); display: none;"/>
</g>
<g id="Boots">
<g id="Basic_Boots" class="option" style="display: inherit;">
<g id="Main_Basic-Boot" style="fill: rgb(48, 48, 48);">
<path d="M108.3,216.7c1.4,0,3.2,0.9,4.5,1.1c1.4,0.2,2.9,0.2,4.3,0.1l0.6-0.1h0.7c0.3,0,0.7-0.1,1-0.2l0.5-0.1h0.2 l0.4-0.1l0.3-0.1h0.1c1.1-0.3,2.2-0.7,2.2-0.7c0.3,1.4,0.5,3.1,1.1,4.5c1,2.1,0.9,3.1,2.6,4.7c1.1,1.1,4.1,3.1,5.4,3.9 c0.6,0.4,1.2,0.6,1.8,0.9h0.1c2.5,0.9,5.2,1.3,6.5,4c0.3,0.6,0.5,1.3,0.5,2c-0.1,0.9-1,1-1.7,1.2c-1.8,0.5-3.4,0.9-5.5,1.4 c-2.4,0.5-4.6,0.9-7.1,0.8c-1.8-0.1-3.4-0.1-5-1.1c-0.6-0.4-1.3-0.8-1.9-1.3c-1.3-1.1-2.1-2.4-3.7-3c-1.2-0.5-2.4-0.9-3.6-1.2 c-1.8-0.4-4.3-1-5.2-2.7c-0.4-1.3,0-1.9,0.1-3.1l0.1-0.5c0.1-0.7,0.2-1.5,0.3-2.3c0.1-1.5-0.3-3-0.4-4.5 c-0.1-0.9-0.1-1.7-0.1-2.6c0-0.1-0.1-0.8,0.1-0.8c0.2-0.1,0.4-0.1,0.6-0.1L108.3,216.7z"/>
<path d="M60.5,216.7c-1.4,0-3.2,0.9-4.5,1.1c-1.4,0.2-2.9,0.2-4.3,0.1l-0.6-0.1h-0.7c-0.3,0-0.7-0.1-1-0.2l-0.5-0.1 h-0.2l-0.4-0.1l-0.3-0.1h-0.1c-1.1-0.3-2.2-0.7-2.2-0.7c-0.3,1.4-0.5,3.1-1.1,4.5c-1,2.1-0.9,3.1-2.6,4.7 c-1.1,1.1-4.1,3.1-5.4,3.9c-0.6,0.4-1.2,0.6-1.8,0.9h-0.1c-2.5,0.9-5.2,1.3-6.5,4c-0.3,0.6-0.5,1.3-0.5,2c0.1,0.9,1,1,1.7,1.2 c1.8,0.5,3.4,0.9,5.5,1.4c2.4,0.5,4.6,0.9,7.1,0.8c1.8-0.1,3.4-0.1,5-1.1c0.6-0.4,1.3-0.8,1.9-1.3c1.3-1.1,2.1-2.4,3.7-3 c1.2-0.5,2.4-0.9,3.6-1.2c1.8-0.4,4.3-1,5.2-2.7c0.4-1.3,0-1.9-0.1-3.1l-0.1-0.5c-0.1-0.7-0.2-1.5-0.3-2.3 c-0.1-1.5,0.3-3,0.4-4.5c0.1-0.9,0.1-1.7,0.1-2.6c0-0.1,0.1-0.8-0.1-0.8c-0.2-0.1-0.4-0.1-0.6-0.1L60.5,216.7z"/>
</g>
<g id="Bottom_Basic-Boot" style="fill: rgb(55, 54, 54);">
<path d="M107.4,230.6c0.5,0.9,1.3,1.4,2.3,1.9c0.9,0.4,1.9,0.6,2.9,0.9c0.1,0,0.3,0.1,0.4,0.1 c0.2,0.1,0.4,0.1,0.6,0.2c0.1,0,0.1,0,0.2,0.1h0.1c0.1,0,0.1,0,0.2,0.1h0.1c0.1,0,0.2,0.1,0.3,0.1h0.2c0.2,0.1,0.3,0.1,0.5,0.2 h0.1c0.1,0.1,0.3,0.1,0.4,0.2h0.1c0.1,0,0.2,0.1,0.3,0.1h0.1c0.3,0.1,0.5,0.2,0.7,0.4h0.1c0.1,0,0.1,0.1,0.2,0.1 c0.1,0,0.1,0.1,0.2,0.1h0.1l0.1,0.1c0.3,0.2,0.5,0.5,0.8,0.7l1.5,1.5c0.1,0,0.1,0.1,0.2,0.1c0.1,0.1,0.2,0.1,0.3,0.2 c0.1,0,0.1,0.1,0.2,0.1c0.1,0.1,0.1,0.1,0.2,0.2c0,0,0.1,0,0.1,0.1c0.1,0.1,0.2,0.1,0.3,0.2c0.1,0,0.2,0.1,0.2,0.1l0.1,0.1 l0.2,0.1l0.1,0.1h0.2c0.1,0.1,0.2,0.1,0.3,0.2c0.1,0,0.1,0,0.2,0.1h0.1c0.3,0.1,0.7,0.3,1,0.3h1.5c0.2,0,0.4,0,0.7,0.1h3.5 c0.4,0,0.8-0.1,1.2-0.1h0.8c0.3-0.1,0.7-0.1,1-0.2h0.7c0.1,0,0.2,0,0.3-0.1h0.1c0.1,0,0.2,0,0.3-0.1c0.1,0,0.2,0,0.3-0.1 c0.6-0.1,1.1-0.2,1.6-0.4h0.2c0.1,0,0.3-0.1,0.4-0.1h0.3c0.2,0,0.4-0.1,0.6-0.1c0.1,0,0.2-0.1,0.3-0.1c0.3-0.1,0.7-0.2,1-0.3h0.5 c0.3-0.1,0.5-0.1,0.8-0.2h0.2l0.3-0.1h1.1c0.1-0.1,0.2-0.2,0.2-0.2s0.5,0.7,0.5,2c-1.1,1.6-4.6,2.1-9.4,2.8 c-4.8,0.6-7.7,0.5-9.7-0.3c-2-0.9-5.5-4.9-8-5.2c-2.5-0.2-5.5-1.5-6.7-2.3c-0.6-0.4-0.4-3-0.4-3L107.4,230.6z"/>
<path d="M61.4,230.6c-0.5,0.9-1.3,1.4-2.3,1.9c-0.9,0.4-1.9,0.6-2.9,0.9c-0.1,0-0.3,0.1-0.4,0.1 c-0.2,0.1-0.4,0.1-0.6,0.2c-0.1,0-0.1,0-0.2,0.1h-0.1c-0.1,0-0.1,0-0.2,0.1h-0.1c-0.1,0-0.2,0.1-0.3,0.1h-0.2 c-0.2,0.1-0.3,0.1-0.5,0.2h-0.1c-0.1,0.1-0.3,0.1-0.4,0.2H53c-0.1,0-0.2,0.1-0.3,0.1h-0.1c-0.3,0.1-0.5,0.2-0.7,0.4h-0.1 c-0.1,0-0.1,0.1-0.2,0.1c-0.1,0-0.1,0.1-0.2,0.1h-0.1l-0.1,0.1c-0.3,0.2-0.5,0.5-0.8,0.7l-1.5,1.5c-0.1,0-0.1,0.1-0.2,0.1 c-0.1,0.1-0.2,0.1-0.3,0.2c-0.1,0-0.1,0.1-0.2,0.1c-0.1,0.1-0.1,0.1-0.2,0.2c0,0-0.1,0-0.1,0.1c-0.1,0.1-0.2,0.1-0.3,0.2 c-0.1,0-0.2,0.1-0.2,0.1l-0.1,0.1l-0.2,0.1l-0.1,0.1h-0.2c-0.1,0.1-0.2,0.1-0.3,0.2c-0.1,0-0.1,0-0.2,0.1h-0.1 c-0.3,0.1-0.7,0.3-1,0.3h-1.5c-0.2,0-0.4,0-0.6,0.1h-3.5c-0.4,0-0.8-0.1-1.2-0.1h-0.8c-0.3-0.1-0.7-0.1-1-0.2h-0.7 c-0.1,0-0.2,0-0.3-0.1h-0.1c-0.1,0-0.2,0-0.3-0.1c-0.1,0-0.2,0-0.3-0.1c-0.6-0.1-1.1-0.2-1.6-0.4h-0.2c-0.1,0-0.3-0.1-0.4-0.1 h-0.3c-0.2,0-0.4-0.1-0.6-0.1c-0.1,0-0.2-0.1-0.3-0.1c-0.3-0.1-0.7-0.2-1-0.3H30c-0.3-0.1-0.5-0.1-0.8-0.2H29l-0.3-0.1h-1 c-0.1-0.1-0.2-0.2-0.2-0.2s-0.5,0.7-0.5,2c1.1,1.6,4.6,2.1,9.4,2.8c4.8,0.6,7.7,0.5,9.7-0.3c2-0.9,5.5-4.9,8-5.2 c2.5-0.2,5.5-1.5,6.7-2.3c0.6-0.4,0.4-3,0.4-3L61.4,230.6z"/>
</g>
<g id="Top_Basic-Boot" style="fill: rgb(66, 63, 63);">
<path d="M121.1,217.2c0.7,3.3,1.7,6.1,3.9,8.8c3.4,4.3,9.1,4.6,13.1,8.1c1,0.9,1,2.3,1.1,3.6c-1.7,0.5-3.1,0.8-5,1.3 c-0.1-1.3,0.1-2.8-1-3.7c-4-3.5-10.3-3.3-13.6-7.6c-2.2-2.8-2.2-6.4-2.9-9.7h0.3l0.6-0.1h0.7c0.3,0,0.7-0.1,1-0.2l0.5-0.1h0.2 l0.4-0.1l0.3-0.1h0.1C121,217.3,121.1,217.2,121.1,217.2z"/>
<path d="M47.6,217.2c-0.7,3.3-1.7,6.1-3.9,8.8c-3.4,4.3-9.1,4.6-13.1,8.1c-1,0.9-1,2.3-1.1,3.6 c1.6,0.5,3.1,0.8,5,1.3c0.1-1.3-0.1-2.8,1-3.7c4-3.5,10.3-3.3,13.6-7.6c2.2-2.8,2.2-6.4,2.9-9.7h-0.3l-0.6-0.1h-0.7 c-0.3,0-0.7-0.1-1-0.2l-0.5-0.1h-0.2l-0.4-0.1l-0.3-0.1h-0.1C47.8,217.3,47.7,217.2,47.6,217.2z"/>
</g>
<g id="Side_Basic-Boot" style="fill: rgb(39, 39, 39);">
<path d="M108.7,216.8c1.4,0.1,2.9,0.9,4.1,1.1h0.2v1.2c0,2-0.2,10.8-0.6,10.7c-0.4,0-1.6-0.2-1.9-0.5 c-0.2-0.2-0.2-0.7-0.3-1c-0.2-0.9-0.4-1.7-0.5-2.6c-0.2-1.2-0.3-2.4-0.4-3.5C109.2,220.3,108.9,218.6,108.7,216.8z"/>
<path d="M60.1,216.8c-1.4,0.1-2.9,0.9-4.1,1.1h-0.2v1.2c0,2,0.2,10.8,0.6,10.7c0.4,0,1.6-0.2,1.9-0.5 c0.2-0.2,0.2-0.7,0.3-1c0.2-0.9,0.4-1.7,0.5-2.6c0.2-1.2,0.3-2.4,0.4-3.5C59.6,220.3,59.9,218.6,60.1,216.8z"/>
</g>
</g>
</g>
<g id="Gloves">
<g id="Left-Glove">
<g id="Basic_Left_Glove" class="option" style="fill: rgb(93, 93, 93); display: inherit;">
<path d="M137.6,124.1c-0.5,0-1,0-1.6,0.1c-0.4,0.1-0.7,0.2-1,0.3c-1,0.6-0.7,1.8,0.2,2.3c1,0.6,2.6,0,3.1-1.1 C138.5,125.3,137.9,124.5,137.6,124.1"/>
<path d="M135.8,125.2c-0.5,0-1,0-1.6,0.1c-0.4,0.1-0.7,0.2-1,0.3c-1,0.6-0.7,1.8,0.2,2.3c1,0.5,2.6,0,3.1-1.1 C136.7,126.4,136.1,125.6,135.8,125.2"/>
<path d="M134.5,126.6c-0.5,0-1.2,0.1-1.7,0.3c-0.3,0.1-0.7,0.3-1,0.5c-0.9,0.7-0.5,1.9,0.5,2.2 c1.1,0.4,2.6-0.3,2.9-1.5C135.4,127.7,134.5,126.6,134.5,126.6z"/>
<path d="M131.6,110c0,0-1.6,2.1-2,3.7c-0.3,1.1-0.1,3.7-0.5,5.4c-0.4,1.7-0.7,2.7-0.7,2.7s-1.4,2.8-1.1,3.4 c0.2,0.6,1.4,1.2,2.1,0.9c0.9-0.4,1.9-2.4,2.6-3.8c0.7-1.4,1.2-3.4,1.2-3.4s0.9,0.3,1.4,0.7c1.6,1.2,0.9,5,0.9,5 s-0.7,1.3-1.7,2.8c-1.4,2-3.4,3.8-2.1,5.4c1.3,1.5,4.2-2.4,4.2-2.4l2.9-3.7c0,0,3.3-5.4,3.4-6.5c0.1-0.8,0-3.5,0-3.5l-1-10.4 l-5.2,0.4l-4.3,1.4L131.6,110"/>
</g>
</g>
<g id="Right-Glove">
<g id="Basic_Right_Glove" class="option" style="fill: rgb(93, 93, 93); display: inherit;">
<path d="M31.1,124.1c0.5,0,1,0,1.6,0.1c0.4,0.1,0.7,0.2,1,0.3c1,0.6,0.7,1.8-0.2,2.3c-1,0.6-2.6,0-3.1-1.1 C30.3,125.3,30.9,124.5,31.1,124.1"/>
<path d="M32.9,125.2c0.5,0,1,0,1.6,0.1c0.4,0.1,0.7,0.2,1,0.3c1,0.6,0.7,1.8-0.2,2.3c-1,0.5-2.6,0-3.1-1.1 C32.1,126.4,32.7,125.6,32.9,125.2"/>
<path d="M34.2,126.6c0.5,0,1.2,0.1,1.7,0.3c0.3,0.1,0.7,0.3,1,0.5c0.9,0.7,0.5,1.9-0.5,2.2c-1.1,0.4-2.6-0.3-2.9-1.5 C33.3,127.7,34.2,126.6,34.2,126.6z"/>
<path d="M37.1,110c0,0,1.5,2.1,2,3.7c0.3,1.1,0.1,3.7,0.5,5.4c0.4,1.7,0.7,2.7,0.7,2.7s1.4,2.8,1.1,3.4 c-0.2,0.6-1.4,1.2-2.1,0.9c-0.9-0.4-1.9-2.4-2.6-3.8c-0.7-1.4-1.2-3.4-1.2-3.4s-0.9,0.3-1.4,0.7c-1.6,1.2-0.9,5-0.9,5 s0.7,1.3,1.7,2.8c1.4,2,3.4,3.8,2.1,5.4c-1.3,1.5-4.2-2.4-4.2-2.4l-2.9-3.7c0,0-3.3-5.4-3.4-6.5c-0.1-0.8,0-3.5,0-3.5l1-10.4 l5.2,0.4l4.3,1.4L37.1,110"/>
</g>
</g>
</g>
<g id="Biceps">
<g id="Left-Biceps">
<g id="None_Biceps_Left" class="option" style="display: inherit;">
</g>
</g>
<g id="Right-Biceps">
<g id="None_Biceps_Right" class="option" style="display: inherit;">
</g>
</g>
</g>
<g id="Vest" style="fill: rgb(36, 36, 36);">
<path d="M84.4,20.9c8.4,0,15.3-4.3,15.5-8h0.1l18.3,5.4l13.2,23.9l-2.8,1.2l-13.3-8.6l-2.3,3.7l-1.5,47.4 c0,0-8.7,4.7-13.4,5.3c-3.4,0.5-8.6,0.7-13.7,0.7s-10.3-0.2-13.7-0.7c-4.8-0.6-13.4-5.3-13.4-5.3l-1.5-47.4l-2.3-3.7l-13.3,8.6 l-2.8-1.2l13.2-23.9L69,12.9h0.1C69,16.6,75.9,20.9,84.4,20.9"/>
</g>
<g class="swappable" id="Chest">
<g id="Chest_Galaxy" style="visibility: visible;">
<g id="Abdomen_Galaxy">
<path id="Abdomen-Plate_Galaxy" d="M77.5,73l-2.1,1.5L65,73l-0.8-5.8l5-0.1l3-4.9l1.4-4.5l10.9-10l10.9,10l1.4,4.5 l3,4.9l5,0.1L104,73l-10.5,1.5L91.4,73H77.5" style="fill: rgb(76, 109, 139);"/>
<path id="Trauma-Plate_Abdomen_Galaxy" class="toggle" style="display: none; fill: rgb(255, 255, 255);" d="M84.4,50L75,58.6l-1.3,4.3l-3.6,5.9l-4,0.1l0.4,2.7l8.5,1.2 l2-1.4h14.9l2,1.4l8.5-1.2l0.4-2.7l-4-0.1l-3.6-5.9l-1.3-4.3L84.4,50"/>
</g>
<g id="Full-Chest_Galaxy">
<path id="Chest-Plate_Galaxy" d="M80.1,33.2v10.1l3.2,3.2L72.1,57.2l-1.5,4.9L68.2,66h-4.1l-2-2.9l-2.5-14.2 l-3.7-5.8l4.7-15.2l5.4-0.7l0.8-3.4l5.8-0.7l1.8,3h20l1.8-3l5.8,0.7l0.8,3.4l5.4,0.7l4.7,15.2l-3.7,5.8l-2.5,14.2l-2,2.9h-4.1 l-2.4-3.9l-1.5-4.9L85.5,46.6l3.2-3.2V33.3l-4.4-3.4L80.1,33.2" style="fill: rgb(76, 109, 139);"/>
<path id="Trauma-Plating_Left-Chest_Galaxy" class="toggle" style="display: none; fill: rgb(255, 255, 255);" d="M95.4,27.8H84.6l5.9,4.6v11.7L88,46.6l10.2,9.7l1.5,5.1 l1.8,2.9h2.3l1.3-1.9l2.5-14.2l3.5-5.4L107,29.4l-5.5-0.7l-0.8-3.4l-3.5-0.4L95.4,27.8"/>
<path id="Trauma-Plating_Right-Chest_Galaxy" class="toggle" style="display: none; fill: rgb(255, 255, 255);" d="M71.8,24.9l-3.5,0.4l-0.8,3.4L62,29.4l-4.1,13.4l3.5,5.4 l2.5,14.2l1.3,1.9h2.3l1.8-2.9l1.5-5.1L81,46.6l-2.5-2.5V32.4l5.9-4.6H73.5L71.8,24.9"/>
<g id="Accents_Chest-Plate_Galaxy" class="toggle" style="fill: rgb(44, 119, 54);">
<path d="M104.7,31h-9.2v1.2h9.2V31"/>
<path d="M104.7,33.2h-9.2v1.2h9.2V33.2"/>
</g>
</g>
<g id="Iron-Heart_Galaxy">
<path id="Heart_Galaxy" d="M81.8,43.1V34l2.7-2.1l2.7,2.1v9.1l-2.7,2.7L81.8,43.1" style="fill: rgb(255, 255, 255);"/>
<path id="Center_Heart_Galaxy" class="option" d="M85.4,35.4h-1.9v6.2h1.9V35.4" style="fill: rgb(255, 255, 255); display: inherit;"/>
</g>
<g id="Neck-Armor_Galaxy">
<g id="Neck-Plate_Galaxy" style="fill: rgb(76, 109, 139);">
<path d="M82.2,25.1l-7.3,0.1l-1.8-3l-7,0.8l-0.7,3.2l-4.5,0.6l-3.3-11.4L69.1,12c0,0,1.5,2.6,2.6,3.5 c1.1,0.9,2.6,2,4.1,2.6c1.5,0.7,3.4,1.1,5.2,1.4c0.2,0,0.4,0.1,0.6,0.1L82.2,25.1"/>
<path d="M86.7,25.1l7.3,0.1l1.8-3l7,0.8l0.7,3.1l4.5,0.6l3.3-11.4l-11.5-3.4c0,0-1.5,2.6-2.6,3.5 c-1.1,0.9-2.6,2-4.1,2.6c-1.5,0.7-3.4,1.1-5.2,1.4c-0.2,0-0.4,0.1-0.6,0.1L86.7,25.1"/>
</g>
<g id="Trauma-Plates_Neck_Galaxy" class="toggle" style="display: none; fill: rgb(255, 255, 255);"/>
</g>
</g>
</g>
<g id="Chest-Attachments">
<g id="Pilot-Box_Accessories_Chest" class="option" style="display: inherit;">
<g id="Main_Pilot-Box_Accessories_Chest" style="fill: rgb(137, 137, 137);">
<path d="M79.7,28.1h-4.6v7.5h4.6V28.1"/>
<path d="M96.7,40.9H72.3v0.8h24.3L96.7,40.9"/>
<path d="M96.7,26.3c0-0.3-0.1-0.5-0.3-0.7c-0.2-0.2-0.4-0.3-0.7-0.3H73.3c-0.3,0-0.5,0.1-0.7,0.3 c-0.2,0.2-0.3,0.4-0.3,0.7V41h24.3L96.7,26.3"/>
<path d="M96.7,41.7H72.3l1.5,2.2h21.3L96.7,41.7"/>
<path d="M82.2,43.7h-8v7.7h8V43.7"/>
<path d="M74.2,45.2h-1.8v4.6h1.8V45.2"/>
<path d="M94.8,45.2h1.8v4.6h-1.8V45.2"/>
<path d="M86.8,43.7h8v7.7h-8V43.7"/>
<path d="M82.2,51.4v-7.7h1.1v7.7H82.2"/>
<path d="M86.8,51.4v-7.7h-1.1v7.7H86.8"/>
</g>
<g id="Parts-2_Pilot-Box_Accessories_Chest" style="fill: rgb(109, 109, 109);">
<path d="M72.3,45.4h-1.8v4.2h1.8V45.4"/>
<path d="M96.6,45.4h1.8v4.2h-1.8V45.4"/>
<path d="M83.2,51.6v-8.1h2.5v8.1H83.2"/>
<path d="M88.5,27.2H74.2v9.3h14.3V27.2 M79.7,28.1h-4.6v7.5h4.6V28.1"/>
</g>
<g id="Parts-1_Pilot-Box_Accessories_Chest" style="fill: rgb(123, 123, 123);">
<path d="M77.4,29c0.6,0,1.1,0.5,1.1,1.1s-0.5,1.1-1.1,1.1s-1.1-0.5-1.1-1.1S76.8,29,77.4,29"/>
<path d="M77.4,32.3c0.6,0,1.1,0.5,1.1,1.1c0,0.6-0.5,1.1-1.1,1.1s-1.1-0.5-1.1-1.1C76.3,32.8,76.8,32.3,77.4,32.3"/>
<g>
<g>
<path d="M70.5,45.9L66.2,46c-0.6,0-1.1,0-1.3-0.3c-0.2-0.2-0.2-0.5-0.2-0.8c0-0.6,0.1-1.4,0.3-2.2 c1.2-5,4.8-13.1,5.3-21.9c0.3-6.5-1.7-16.7-1.7-16.7c-0.2-0.9-1-1.5-1.9-1.3c-0.9,0.2-1.5,1-1.3,1.9c0,0,2,9.7,1.6,15.9 c-0.3,5.9-2.2,11.5-3.6,16c-1.1,3.2-1.9,6-2,7.9c0,1.5,0.3,2.6,1.1,3.4c0.7,0.8,1.9,1.3,3.7,1.3l4.3-0.1V45.9"/>
<path d="M66.4,10.8l3.2-0.3"/>
<path d="M66.1,8.8l3.2-0.3"/>
<path d="M66.6,13.1l3.2-0.3"/>
<path d="M66.9,15.5l3.2-0.3"/>
<path d="M67,18l3.2-0.3"/>
<path d="M67,19.9l3.2,0.1"/>
<path d="M66.9,21.9l3.2,0.5"/>
<path d="M66.7,23.9l3.2,0.6"/>
<path d="M66.3,26l3.1,0.9"/>
<path d="M65.8,28.2l3.1,0.9"/>
<path d="M65.4,30.1l3.1,0.8"/>
<path d="M64.8,32.1l3.2,0.7"/>
<path d="M64.2,34l3.1,0.8"/>
<path d="M63.6,35.9l3.1,1"/>
<path d="M62.9,38.1l3.1,0.8"/>
<path d="M62.2,40.2l3.1,0.9"/>
<path d="M61.7,42.6l3.3,0.1"/>
<path d="M61.4,45.1l3.3-1.2"/>
<path d="M62.2,47.6l2.5-2.5"/>
<path d="M64.3,49l0.7-3.2"/>
<path d="M66.5,49.2l0.1-3.3"/>
<path d="M68.6,49.2v-3.3"/>
</g>
<g>
<path d="M98.4,45.9l4.3,0.1c0.6,0,1.1,0,1.3-0.3c0.2-0.2,0.2-0.5,0.2-0.8c0-0.6-0.1-1.4-0.3-2.2 c-1.2-5-4.8-13.1-5.3-21.9c-0.3-6.5,1.7-16.7,1.7-16.7c0.2-0.9,1-1.5,1.9-1.3c0.9,0.2,1.5,1,1.3,1.9c0,0-2,9.7-1.6,15.9 c0.3,5.9,2.2,11.5,3.6,16c1.1,3.2,1.9,6,2,7.9c0,1.5-0.3,2.6-1.1,3.4c-0.7,0.8-1.9,1.3-3.7,1.3l-4.3-0.1V45.9"/>
<path d="M102.6,10.8l-3.2-0.3"/>
<path d="M102.9,8.8l-3.2-0.3"/>
<path d="M102.3,13.1l-3.2-0.3"/>
<path d="M102.1,15.5l-3.2-0.3"/>
<path d="M101.9,18l-3.2-0.3"/>
<path d="M101.9,19.9L98.7,20"/>
<path d="M102,21.9l-3.2,0.5"/>
<path d="M102.3,23.9l-3.2,0.6"/>
<path d="M102.6,26l-3.1,0.9"/>
<path d="M103.1,28.2l-3.1,0.9"/>
<path d="M103.6,30.1l-3.1,0.8"/>
<path d="M104.2,32.1l-3.2,0.7"/>
<path d="M104.7,34l-3.1,0.8"/>
<path d="M105.3,35.9l-3.1,1"/>
<path d="M106.1,38.1l-3.1,0.8"/>
<path d="M106.7,40.2l-3.1,0.9"/>
<path d="M107.3,42.6l-3.3,0.1"/>
<path d="M107.5,45.1l-3.3-1.2"/>
<path d="M106.7,47.6l-2.5-2.5"/>
<path d="M104.6,49l-0.7-3.2"/>
<path d="M102.4,49.2l-0.1-3.3"/>
<path d="M100.3,49.2v-3.3"/>
</g>
</g>
<path d="M82.7,46.8h-2.2v1.5h2.2V46.8"/>
<path d="M86.3,46.8h2.2v1.5h-2.2V46.8"/>
<path d="M69.8,3.8c0-0.6-0.5-1.1-1.1-1.1h-2.5c-0.6,0-1.1,0.5-1.1,1.1V6c0,0.6,0.5,1.1,1.1,1.1h2.5 c0.6,0,1.1-0.5,1.1-1.1V3.8"/>
<path d="M66.5,2.7h-0.3v4.5h0.3V2.7"/>
<path d="M99.1,3.8c0-0.6,0.5-1.1,1.1-1.1h2.5c0.6,0,1.1,0.5,1.1,1.1V6c0,0.6-0.5,1.1-1.1,1.1h-2.5 c-0.6,0-1.1-0.5-1.1-1.1V3.8"/>
<path d="M102.4,2.7h0.3v4.5h-0.3V2.7"/>
</g>
<g id="Buttons-2_Pilot-Box_Accessories_Chest" style="fill: rgb(211, 0, 0);">
<path d="M80.3,38c0.3,0,0.6,0.3,0.6,0.6c0,0.3-0.3,0.6-0.6,0.6c-0.3,0-0.6-0.3-0.6-0.6C79.7,38.3,80,38,80.3,38"/>
<path d="M93.2,32.8h-1.5v3.7h1.5V32.8"/>
<path d="M87.5,28.1h-5.2v1.2h5.2V28.1"/>
<path d="M87.5,29.5h-2.1v1.2h2.1V29.5"/>
<path d="M84.3,38c0.3,0,0.6,0.3,0.6,0.6c0,0.3-0.3,0.6-0.6,0.6c-0.3,0-0.6-0.3-0.6-0.6C83.7,38.3,84,38,84.3,38"/>
</g>
<g id="Buttons-1_Pilot-Box_Accessories_Chest" style="fill: rgb(8, 203, 51);">
<path d="M93.2,27.2h-1.5v3.7h1.5V27.2"/>
<path d="M84.5,29.5h-2.1v1.2h2.1V29.5"/>
<path d="M78.4,38c0.3,0,0.6,0.3,0.6,0.6c0,0.3-0.3,0.6-0.6,0.6c-0.3,0-0.6-0.3-0.6-0.6C77.8,38.3,78.1,38,78.4,38"/>
<path d="M82.2,38c0.3,0,0.6,0.3,0.6,0.6c0,0.3-0.3,0.6-0.6,0.6c-0.3,0-0.6-0.3-0.6-0.6C81.6,38.3,81.9,38,82.2,38"/>
</g>
</g>
</g>
<g id="Collar">
<g id="None_Collar" class="option" style="display: inherit;">
</g>
</g>
<svg version="1.1" id="Helmets" xmlns="http://www.w3.org/2000/svg" y="-54px" height="85px" viewBox="0 0 80 80" class="swappable">
<g id="Helmet_Guardian" style="visibility: visible;">
<g id="Left-Earcap_Guardian" class="toggle" style="fill: rgb(74, 74, 74);">
<path d="M59.2,32.4l0.4,0.4V41h-1.8v-1.4h1.4V32.4"/>
<path d="M57.8,43.6h1.1v16.6h-1.1V43.6"/>
<path d="M58.9,43.6h0.8v1.2h-0.8V43.6"/>
<path d="M57.5,32.4h1.8v7.2h-1.8V32.4"/>
<path d="M58.2,34.4h1.2v1.3h-1.2V34.4"/>
<path d="M58.4,40h0.9v0.7h-0.9V40"/>
<path d="M58.4,40h0.9v0.2h-0.9V40"/>
<path d="M59.6,34.9l0.4,0.4v6.4h-0.4V34.9"/>
<path d="M57.8,41h1.8v2.6h-1.8V41"/>
</g>
<g id="Right-Earcap_Guardian" class="toggle" style="fill: rgb(74, 74, 74);">
<path d="M20.8,32.4l-0.4,0.4V41h1.8v-1.4h-1.4V32.4"/>
<path d="M22.2,43.6h-1.1v16.6h1.1V43.6"/>
<path d="M21.1,43.6h-0.8v1.2h0.8V43.6"/>
<path d="M22.5,32.4h-1.8v7.2h1.8V32.4"/>
<path d="M21.8,34.4h-1.2v1.3h1.2V34.4"/>
<path d="M21.6,40h-0.9v0.7h0.9V40"/>
<path d="M21.6,40h-0.9v0.2h0.9V40"/>
<path d="M20.4,34.9L20,35.3v6.4h0.4V34.9"/>
<path d="M22.2,41h-1.8v2.6h1.8V41"/>
</g>
<g id="Helmet_Pieces_Guardian">
<g id="Face_Guardian" style="fill: rgb(96, 96, 96);">
<path d="M25.6,48.8l7.7,6.7l1.8,11.2l-10.5-4.9L25.6,48.8z"/>
<path d="M54.4,48.8l-7.7,6.7l-1.8,11.2l10.5-4.9L54.4,48.8z"/>
</g>
<g id="Cheeks_Guardian" style="fill: rgb(223, 223, 223);">
<path d="M25.6,48.8l-1,13.1l-2-0.6V41.9L25.6,48.8z"/>
<path d="M22.9,42.5c0.4,0.8,1.4,2.2,3.5,3.8c3.2,2.4,5.9,3,5.9,3l1,6.2l-7.7-6.7L22.9,42.5z"/>
<path d="M54.4,48.8l1,13.1l2-0.6V41.9L54.4,48.8z"/>
<path d="M57.1,42.5c-0.4,0.8-1.4,2.2-3.5,3.8c-3.2,2.4-5.9,3-5.9,3l-1,6.2l7.7-6.7L57.1,42.5z"/>
</g>
<path id="Visor_Guardian" d="M36.4,67l1.7-2.7l-1.4-22.6l-13.5-3v-1.3h13.7l1,1h4.2l1-1h13.7v1.3l-13.5,3L42,64.3 l1.7,2.7c0,0-2.4,0.3-3.7,0.3C38.8,67.3,36.4,67,36.4,67z" style="fill: rgb(21, 20, 20);"/>
<path id="Dome_Guardian" d="M22.3,35.4c0-9.8,7.9-17.8,17.7-17.8s17.7,8,17.7,17.8H22.3z" style="fill: rgb(37, 36, 36);"/>
<g id="Eyes_Guardian" style="fill: rgb(120, 168, 212);">
<rect x="39.5" y="25.6" width="1.1" height="12.7"/>
<path d="M39.5,25.4v13H38l-1-1H23.2v1.3l13.5,3L38,64.3l-1.8,2.9l-1-0.2l-2.9-17.6c0,0-2.6-0.6-5.9-3 C23.1,44,22.6,42,22.6,42v19.3L22,60.6V33.8h3.4l6.1-8.4H39.5z"/>
<path d="M40.6,25.4v13h1.5l1-1h13.7v1.3l-13.5,3L42,64.3l1.8,2.9l1-0.2l2.9-17.6c0,0,2.6-0.6,5.9-3 c3.3-2.4,3.8-4.4,3.8-4.4v19.3l0.7-0.7V33.8h-3.4l-6.1-8.4H40.6z"/>
</g>
</g>
</g>
</svg>
<g id="Shoulders">
<g id="Left-Shoulder">
<g id="Classic_Shoulder_Left" class="option" style="display: inherit;">
<path id="Main_Shoulder_Classic_Left" d="M116.5,13.4L114,24.8l2,6.5l13.4,6.8l2.3-3.5L116.5,13.4" style="fill: rgb(7, 50, 90);"/>
<path id="Trauma-Plates_Shoulder_Classic_Left" class="toggle" style="fill: rgb(76, 109, 139);" d="M115.7,24.7l1.7,5.4l11.4,5.8l1.9-3l-12.8-18 L115.7,24.7"/>
</g>
</g>
<g id="Right-Shoulder">
<g id="Classic_Shoulder_Right" class="option" style="display: inherit;">
<path id="Main_Shoulder_Classic_Right" d="M52.5,13.4L55,24.8l-2,6.5l-13.4,6.8l-2.3-3.5L52.5,13.4" style="fill: rgb(7, 50, 90);"/>
<path id="Trauma-Plates_Shoulder_Classic_Right" class="toggle" style="fill: rgb(76, 109, 139);" d="M53.2,24.7l-1.7,5.4l-11.4,5.8l-1.9-3l12.8-18 L53.2,24.7"/>
</g>
</g>
</g>
<g id="Gauntlets">
<g id="Left-Gauntlets">
<g id="Gunslinger_Gauntlet_Left" class="option" style="display: inherit;">
<g id="Accent-Top_Gunslinger_Gauntlet_Left" style="fill: rgb(80, 80, 80);">
<path d="M139,79.8l0.6,5.6l-2.8,0.8l-0.7-5.3L139,79.8"/>
<path d="M137.7,100.6l0.6,2.9l-2.5,0.5l-0.6-2.9L137.7,100.6"/>
</g>
<path id="Top_Gunslinger_Gauntlet_Left" d="M139,79.8l1.3-0.5l2.3,26.3l-6.2,1.3l-0.8-4.1l0.2,1.2l2.5-0.5l-0.6-2.9 l-2.5,0.5l-3.8-18.5L139,79.8l-2.9,1.1l0.7,5.3l2.8-0.8L139,79.8" style="fill: rgb(93, 93, 93);"/>
<g id="Accent-Bottom_Gunslinger_Gauntlet_Left" style="fill: rgb(80, 80, 80);">
<path d="M127.7,91.2l-0.7-2.3l-1.6,0.5l0.7,2.3L127.7,91.2"/>
<path d="M128.6,93.8l-0.7-2.3l-1.6,0.5l0.7,2.3L128.6,93.8"/>
<path d="M135.2,101.2l-5.6,1.2l0.9,2.8l5.3-1.1L135.2,101.2"/>
</g>
<path id="Bottom_Gunslinger_Gauntlet_Left" d="M135.7,103.6l-0.5-2.4l-5.6,1.2l0.9,2.8l5.3-1.1l0.6,2.9 c0,0-2,0.3-3.4,0.6c-0.9,0.2-1.8-0.4-2.1-1.3c-1.6-4.8-6.3-19.4-6.3-19.4l6.8-3.8L135.7,103.6 M128.6,93.8l-0.7-2.3l-1.6,0.5 l0.7,2.3L128.6,93.8 M127.7,91.2l-0.7-2.3l-1.6,0.5l0.7,2.3L127.7,91.2" style="fill: rgb(93, 93, 93);"/>
<g id="No-Device_Attachment_Gunslinger_Gauntlet_Left" class="option" style="display: inherit;">
</g>
</g>
</g>
<g id="Right-Gauntlets">
<g id="Gunslinger_Gauntlet_Right" class="option" style="display: inherit;">
<g id="Accent-Top_Gunslinger_Gauntlet_Right" style="fill: rgb(80, 80, 80);">
<path d="M30,79.8l-0.6,5.6l2.8,0.8l0.7-5.3L30,79.8"/>
<path d="M31.4,100.6l-0.6,2.9l2.5,0.5l0.6-2.9L31.4,100.6"/>
</g>
<path id="Top_Gunslinger_Gauntlet_Right" d="M30,79.8l-1.3-0.5l-2.3,26.3l6.2,1.3l0.8-4.1l-0.2,1.2l-2.5-0.5l0.6-2.9 l2.5,0.5l3.8-18.5L30,79.8l2.9,1.1l-0.7,5.3l-2.8-0.8L30,79.8" style="fill: rgb(93, 93, 93);"/>
<g id="Accent-Bottom_Gunslinger_Gauntlet_Right" style="fill: rgb(80, 80, 80);">
<path d="M41.3,91.2l0.7-2.3l1.6,0.5l-0.7,2.3L41.3,91.2"/>
<path d="M40.5,93.8l0.7-2.3l1.6,0.5l-0.7,2.3L40.5,93.8"/>
<path d="M33.9,101.2l5.6,1.2l-0.9,2.8l-5.3-1.1L33.9,101.2"/>
</g>
<path id="Bottom_Gunslinger_Gauntlet_Right" d="M33.4,103.6l0.5-2.4l5.6,1.2l-0.9,2.8l-5.3-1.1l-0.6,2.9 c0,0,2,0.3,3.4,0.6c0.9,0.2,1.8-0.4,2.1-1.3c1.6-4.8,6.3-19.4,6.3-19.4l-6.8-3.8L33.4,103.6 M40.5,93.8l0.7-2.3l1.6,0.5l-0.7,2.3 L40.5,93.8 M41.3,91.2l0.7-2.3l1.6,0.5l-0.7,2.3L41.3,91.2" style="fill: rgb(93, 93, 93);"/>
<g id="No-Device_Attachment_Gunslinger_Gauntlet_Right" class="option" style="display: inherit;">
</g>
</g>
</g>
</g>
<g id="Shins">
<g id="Left-Shin">
<g id="Full_Shin_Left" class="option" style="display: inherit;">
<path id="Shin_Full-Shin_Left" d="M101.8,175.3c10.9-3,18.2-1.1,18.2-1.1l4.3,42.3c0,0-4.3,1.2-8.9,1.3 c-3.4,0.1-8.9-1-8.9-1l-7.8-36C98.6,180.9,102.2,180.1,101.8,175.3" style="fill: rgb(137, 137, 137);"/>
<g id="Accent_Full-Shin_Left" class="toggle" style="fill: rgb(113, 113, 113);">
<path d="M99.5,184.8l6-0.8l0.4,1.6l-6.1,0.8L99.5,184.8"/>
<path d="M100,187l4.1-0.5l0.4,1.6l-4.2,0.5L100,187"/>
</g>
<g id="Ridge_Full-Shin_Left" class="toggle" style="fill: rgb(96, 118, 137);">
<path d="M116.2,173.3l-3.9-0.3l-4,0.6l8.1,44.2c1.9,0,3.4-0.3,5.6-0.7L116.2,173.3"/>
<path d="M112.3,173l7.2,44.5"/>
</g>
</g>
</g>
<g id="Right-Shin">
<g id="Full_Shin_Right" class="option" style="display: inherit;">
<path id="Shin_Full-Shin_Right" d="M67,175.3c-10.9-3-18.2-1.1-18.2-1.1l-4.3,42.3c0,0,4.3,1.2,8.9,1.3 c3.4,0.1,8.9-1,8.9-1l7.8-36C70.2,180.9,66.6,180.1,67,175.3" style="fill: rgb(137, 137, 137);"/>
<g id="Accent_Full-Shin_Right" class="toggle" style="fill: rgb(113, 113, 113);">
<path d="M69.3,184.8l-6-0.8l-0.4,1.6l6.1,0.8L69.3,184.8"/>
<path d="M68.8,187l-4.1-0.5l-0.4,1.6l4.2,0.5L68.8,187"/>
</g>
<g id="Ridge_Full-Shin_Right" class="toggle" style="fill: rgb(96, 118, 137);">
<path d="M52.6,173.3l3.9-0.3l4,0.6l-8.1,44.2c-1.9,0-3.4-0.3-5.6-0.7L52.6,173.3"/>
<path d="M56.5,173l-7.2,44.5"/>
</g>
</g>
</g>
</g>
<g id="Foot">
<g id="Left-Ankle">
<g id="None_Ankle_Left" class="option" style="display: inherit;">
</g>
</g>
<g id="Left-Toe">
<g id="None_Toe_Left" class="option" style="display: inherit;">
</g>
</g>
<g id="Right-Ankle">
<g id="None_Ankle_Right" class="option" style="display: inherit;">
</g>
</g>
<g id="Right-Toe">
<g id="None_Toe_Right" class="option" style="display: inherit;">
</g>
</g>
</g>
<g id="Knees">
<g id="Left-Knee">
<g id="None-(Nih-Plates)_Knee_Left" class="option" style="display: inherit;">
</g>
</g>
<g id="Right-Knee">
<g id="None-(Nih-Plates)_Knee_Right" class="option" style="display: inherit;">
</g>
</g>
</g>
<g id="Thighs">
<g id="Left-Thigh">
<g id="Pocket_Thigh_Left" class="option" style="fill: rgb(53, 64, 74); display: inherit;">
<path d="M117.9,124c0.5,6.5,1.3,12.6,2.3,18.4c0.2,1.2-0.1,2.3-0.8,3.3c-0.7,0.9-1.8,1.5-3,1.6 c-5.3,0.4-10.7,1.2-16.1,2.3c-0.9,0.2-1.9,0-2.6-0.6c-0.8-0.5-1.3-1.4-1.4-2.3c-0.9-6.1-2.8-18.4-3.5-23.2 c-0.2-1.1,0.6-2.1,1.7-2.3c2.4-0.4,6.2-1,6.2-1L117.9,124"/>
<path d="M115.4,117.9c0.8-0.1,1.5,0.3,1.8,1c0.9,2.4,1.7,6.4,1.1,8.4c-0.8,2.6-8.9,17.5-10.9,21.2 c-0.3,0.5-0.8,0.9-1.4,0.9c-1.2,0.1-3.1,0.4-4.5,0.5c-0.7,0.1-1.4-0.4-1.5-1.2c-0.7-4.4-2.8-19-3.7-24.6 c-0.2-1.4-1.2-2.5-2.5-2.9C93.9,121.4,110.7,118.7,115.4,117.9"/>
<path id="Stitch_Left" d="M115.2,117.9c1.7-0.2,2.9,6.8,2.4,8.6c-0.7,2.3-8.8,17.8-10.6,21.2 c-0.3,0.5-0.7,0.8-1.2,0.8l-3.5,0.5c-0.7,0.1-1.3-0.4-1.4-1c-0.6-4-2.9-19.6-3.7-24.7c-0.3-1.8-2.2-2.2-2.2-2.2"/>
<path d="M94.3,121.3l20.9-3.4"/>
</g>
</g>
<g id="Right-Thigh">
<g id="Pocket_Thigh_Right" class="option" style="fill: rgb(53, 64, 74); display: inherit;">
<path d="M50.9,124c-0.5,6.5-1.3,12.6-2.3,18.4c-0.2,1.2,0.1,2.3,0.8,3.3c0.7,0.9,1.8,1.5,3,1.6 c5.3,0.4,10.7,1.2,16.1,2.3c0.9,0.2,1.9,0,2.6-0.6c0.7-0.6,1.3-1.4,1.4-2.3c0.9-6.1,2.8-18.4,3.5-23.2c0.2-1.1-0.6-2.1-1.7-2.3 c-2.4-0.4-6.2-1-6.2-1L50.9,124"/>
<path d="M53.4,117.9c-0.8-0.1-1.5,0.3-1.8,1c-0.9,2.4-1.7,6.4-1.1,8.4c0.8,2.6,8.9,17.5,10.9,21.2 c0.3,0.5,0.8,0.9,1.4,0.9c1.2,0.1,3.1,0.4,4.5,0.5c0.7,0.1,1.4-0.4,1.5-1.2c0.7-4.4,2.8-19,3.7-24.6c0.2-1.4,1.2-2.5,2.5-2.9 C74.9,121.4,58.1,118.7,53.4,117.9"/>
<path id="Stitch_Right" d="M53.6,117.9c-1.7-0.2-2.9,6.8-2.4,8.6c0.7,2.3,8.8,17.8,10.6,21.2 c0.3,0.5,0.7,0.8,1.2,0.8l3.5,0.5c0.7,0.1,1.3-0.4,1.4-1c0.6-4,2.9-19.6,3.7-24.7c0.3-1.8,2.2-2.2,2.2-2.2"/>
<path d="M74.4,121.3l-20.9-3.4"/>
</g>
</g>
</g>
<g id="Groin">
<g id="None_Groin" class="option" style="display: inherit;">
</g>
</g>
<g id="Waist">
<g id="Accessories_Waist">
<g id="Kama" class="toggle" style="display:none"/>
<g id="Loin-Cloth" class="toggle" style="display:none"/>
<g id="Left-Holster" class="toggle" style="display:none"/>
<g id="Right-Holster" class="toggle" style="">
<g id="Belt-Holster_Right" class="option" style="display: inherit;">
<g id="Weapon_Belt-Holster-Right">
<g id="Main_Weapon_Belt-Holster-Right" style="fill: rgb(125, 123, 123);">
<path d="M52.7,98.7l0.2-3.6h-0.6l0.2-2.3h0.6l0.1-1.2c0-0.4-0.5-0.7-1.1-0.8c-1.4-0.1-3.9-0.3-5.3-0.4 c-0.6,0-1.2,0.2-1.2,0.6l-0.1,1.2h0.6l-0.2,2.3h-0.6l-0.2,3.6l1.5,0.1l-0.7,9.9l4.7,0.3l0.7-9.9L52.7,98.7z"/>
<path d="M45.8,97.7l0.8,0.1l-0.8,12l4.7,0.3l0.8-12l0.8,0.1l0.2-2.7l-6.4-0.4L45.8,97.7z"/>
<path d="M47.5,91.3l3.8,0.3l-0.2,3.7L47.3,95L47.5,91.3z"/>
<path d="M50.2,99h0.6l-0.6,9.4h-0.6L50.2,99z"/>
<path d="M48.7,96.8h0.6l-0.6,9.4h-0.6L48.7,96.8z"/>
<path d="M47,98.8h0.6l-0.6,9.4h-0.6L47,98.8z"/>
</g>
<g id="Accent_Weapon_Belt-Holster-Right" style="fill: rgb(117, 114, 114);">
<path d="M50.5,95.6V96l-2.7-0.2v-0.4L50.5,95.6z"/>
<path d="M50.4,96v0.4l-2.7-0.2v-0.4L50.4,96z"/>
<path d="M50.5,95.2v0.4l-2.7-0.2V95L50.5,95.2z"/>
<path d="M50.8,90.6V91l-2.7-0.2v-0.4L50.8,90.6z"/>
<path d="M50.7,91.6h0.6l-0.2,3.7h-0.6L50.7,91.6z"/>
<path d="M47.5,91.3h0.6L47.9,95h-0.6L47.5,91.3z"/>
<path d="M47.6,98.9l0.9,0.1l-0.6,9.4l-0.9-0.1L47.6,98.9z"/>
<path d="M49.2,99l0.9,0.1l-0.6,9.4l-0.9-0.1L49.2,99z"/>
</g>
</g>
<path id="Holster_Belt-Holster-Right" d="M51.1,112.4l2.5-15L45.4,108l-0.8,20.7c1.4,1.9,3,2.1,4.8,0.4L51.1,112.4z " style="fill: rgb(142, 141, 141);"/>
</g>
</g>
</g>
<g id="Under-Belt">
<g id="Girth-Belt" class="option" style="fill: rgb(171, 171, 171); display: inherit;">
<path d="M84.4,84.5c-9.3,0-27.8-2.2-27.8-2.2l0.6-1.9c0,0,18.1,1.5,27.2,2.2c9.1-0.8,27.2-2.2,27.2-2.2l0.6,1.9 C112.2,82.2,93.6,84.5,84.4,84.5z"/>
<path d="M84.4,86.4c-9.5,0-28.4-2.2-28.4-2.2l0.6-1.9c0,0,23.2,1.9,27.8,2.2c4.6-0.4,27.8-2.2,27.8-2.2l0.6,1.9 C112.7,84.1,93.8,86.4,84.4,86.4z"/>
<path d="M84.4,88.3c-9.6,0-28.8-2.2-28.8-2.2l0.4-1.9c0,0,23.7,1.9,28.4,2.2c4.7-0.4,28.4-2.2,28.4-2.2l0.4,1.9 C113.2,86.1,94,88.3,84.4,88.3z"/>
<path d="M84.4,90.2c-9.7,0-29.2-2.2-29.2-2.2l0.4-1.9c0,0,24,1.9,28.8,2.2c4.8-0.4,28.8-2.2,28.8-2.2l0.4,1.9 C113.5,88,94.1,90.2,84.4,90.2z"/>
<path d="M84.4,92.1c-9.8,0-29.5-2.2-29.5-2.2l0.3-1.9c0,0,24.3,1.9,29.2,2.2c4.9-0.4,29.2-2.2,29.2-2.2l0.3,1.9 C113.9,89.9,94.2,92.1,84.4,92.1z"/>
<path d="M84.4,94c-9.9,0-29.8-2.2-29.8-2.2l0.3-1.9c0,0,24.6,1.9,29.5,2.2c4.9-0.4,29.5-2.2,29.5-2.2l0.3,1.9 C114.2,91.8,94.3,94,84.4,94z"/>
<path d="M84.4,95.9c-10,0-30.1-2.2-30.1-2.2l0.3-1.9c0,0,24.8,1.9,29.8,2.2c5-0.4,29.8-2.2,29.8-2.2l0.3,1.9 C114.5,93.7,94.4,95.9,84.4,95.9z"/>
<path d="M84.4,97.8c-10.1,0-30.4-2.2-30.4-2.2l0.3-1.9c0,0,25.1,1.9,30.1,2.2c5-0.4,30.1-2.2,30.1-2.2l0.3,1.9 C114.8,95.6,94.5,97.8,84.4,97.8z"/>
<path d="M84.4,99.7c-10.3,0-30.8-2.2-30.8-2.2l0.3-1.9c0,0,25.4,1.9,30.4,2.2c5.1-0.4,30.4-2.2,30.4-2.2l0.3,1.9 C115.1,97.5,94.6,99.7,84.4,99.7z"/>
<path d="M84.4,101.6c-10.4,0-31.2-2.2-31.2-2.2l0.4-1.9c0,0,25.6,1.9,30.8,2.2c5.1-0.4,30.8-2.2,30.8-2.2l0.4,1.9 C115.5,99.4,94.8,101.6,84.4,101.6z"/>
</g>
</g>
<g id="Belt">
<g id="Pouch-Belt-2" class="option" style="display: inherit;">
<path id="Main_Pouch-Belt-2" d="M114.5,92.5c-6.8,0.6-22.3,2.8-30.1,2.8c-7.9,0-23.4-2.2-30.1-2.8l1-7.9 c5.5,0.5,21.4,2.7,29.1,2.7c7.4,0,23-2.2,28.9-2.8L114.5,92.5z" style="fill: rgb(163, 163, 163);"/>
<rect id="Buckle_Pouch-Belt-2" x="78.8" y="86.6" width="11.2" height="9.2" style="fill: rgb(142, 140, 140);"/>
<g id="Pouches_Pouch-Belt-2" style="fill: rgb(163, 163, 163);">
<g>
<path d="M51.9,83.9l0.5-0.9l2.8,0.1l0.3,1.1L51.9,83.9z"/>
<path d="M55.6,84.3c0-0.1,0-0.1-0.1-0.2c0-0.1-0.1-0.1-0.2-0.1c-0.8,0-3.5-0.1-3.5-0.1l-0.5,11.2 c0.1,0.3,1.5,0.5,2.7,0.5c0.5,0,0.9-0.4,0.9-0.9C55,91.2,55.2,87.7,55.6,84.3z"/>
</g>
<g>
<path d="M116.9,83.9l-0.5-0.9l-2.8,0.1l-0.3,1.1L116.9,83.9z"/>
<path d="M113.2,84.3c0-0.1,0-0.1,0.1-0.2c0-0.1,0.1-0.1,0.2-0.1c0.8,0,3.5-0.1,3.5-0.1l0.5,11.2 c-0.1,0.3-1.5,0.5-2.7,0.5c-0.5,0-0.9-0.4-0.9-0.9C113.7,91.2,113.6,87.7,113.2,84.3z"/>
</g>
</g>
</g>
</g>
</g>
<g id="Extras_Front">
<g id="Front">
<g id="None_Front" class="option" style="display: inherit;">
</g>
</g>
</g>
</svg></svg>