<?xml version='1.0' encoding='UTF-8'?><svg version='1.1' xmlns='http://www.w3.org/2000/svg'><metadata><rdf:rdf xmlns:rdf="http://www.w3.org/1999/02/22-rdf-syntax-ns#" xmlns:rdfs="http://www.w3.org/2000/01/rdf-schema#" xmlns:dc="http://purl.org/dc/elements/1.1/"> <rdf:description> <dc:creator>MandoCreator</dc:creator> <dc:publisher>https://www.mandocreator.com</dc:publisher> <dc:description>Your Beskar'gam - created by MandoCreator</dc:description> <dc:format>image/svg+xml</dc:format> <dc:type>Image</dc:type> <dc:title>MandoCreator - Ner Berskar'gam</dc:title> <dc:date>2021-10-08T17:01:52.917Z</dc:date> </rdf:description> </rdf:rdf></metadata><svg version="1.1" id="Male" xmlns="http://www.w3.org/2000/svg" xmlns:xlink="http://www.w3.org/1999/xlink" x="0px" y="0px" viewBox="0 -55 169 300" style="fill: white; fill-rule: evenodd; stroke: black; stroke-width: 0.2px; pointer-events: none; position: relative; height: 100%;">
<g id="Extras_Back">
<g id="Back"><path id="Full-Cape_Back" class="option" d="M67.9,16.3c-11.7,4.4-24.7,25.6-26.3,41.8c-1,10.2-6,20.5-5.5,30.7 c0.5,10.3-4.7,21-5.1,31.2c-0.3,9.3-3.1,13.5-4.7,22.7c-2.4,13.7-5,22.7-7.1,36.5c-1.7,10.9-6.8,19.9-9.2,23.3 c-0.2,0.3,14.9-0.1,17.9-0.5c9.9-1.6,17.4-2.1,27.2,0.3c10.6,2.6,21.1,4.2,31.9,1.8c10.5-2.3,20.3-7.8,31-8.8 c8.3-0.8,16.5,1.9,24.5,3.8c2,0.5,4.8,1.7,7,1.5c0.1,0-0.7-4.9-0.8-5.4c-1-5.1-3.4-10-6.2-14.4c-7.1-11.2-4.6-23.4-5.9-36.6 c-1.2-12.8,0.1-25.6-2.1-38.4c-1.9-11.3-8.6-21.8-10.3-33.2c-2-13.4-6.5-27.7-10.6-40.7C108.8,16.1,79.6,11.9,67.9,16.3z" style="fill: rgb(95, 57, 24); display: inherit;"/>
</g>
</g>
<g id="Suit">
<g id="Neck-Seal">
<g id="Standard-Neck-Seal" class="option" style="fill: rgb(117, 67, 24); display: inherit;">
<path d="M98,7.5c0-0.9-0.9-1.6-2.1-1.6c0,0-7.8,0.9-11.6,0.9c-3.9,0-11.6-0.9-11.6-0.9c-1.1,0-2.1,0.7-2.1,1.6 s0.9,1.6,2.1,1.6c0,0,7.8,0.9,11.6,0.9C88.2,10,96,9.2,96,9.2C97.1,9.2,98,8.4,98,7.5z"/>
<path d="M98.7,9.4c0-0.9-1-1.7-2.2-1.7c0,0-8.1,0.9-12.2,0.9c-4.1,0-12.2-0.9-12.2-0.9c-1.2,0-2.2,0.8-2.2,1.7 c0,0.9,1,1.7,2.2,1.7c0,0,8.1,0.9,12.2,0.9c4.1,0,12.2-0.9,12.2-0.9C97.8,11.1,98.7,10.4,98.7,9.4z"/>
<path d="M99.5,11.8c0-1-1-1.8-2.3-1.8c0,0-8.6,0.9-12.9,0.9C80,10.9,71.4,10,71.4,10c-1.3,0-2.3,0.8-2.3,1.8 s1,1.8,2.3,1.8c0,0,8.6,0.9,12.9,0.9c4.3,0,12.9-0.9,12.9-0.9C98.5,13.6,99.5,12.8,99.5,11.8z"/>
<path d="M100.3,13.9c0-1-1.1-1.9-2.4-1.9c0,0-9,1-13.5,1s-13.5-1-13.5-1c-1.3,0-2.4,0.8-2.4,1.9s1.1,1.9,2.4,1.9 c0,0,9,1,13.5,1s13.5-1,13.5-1C99.2,15.8,100.3,15,100.3,13.9z"/>
<path d="M101,16.1c0-0.8-1.1-1.4-2.5-1.4c0,0-9.4,0.7-14.2,0.7c-4.8,0-14.2-0.7-14.2-0.7c-1.4,0-2.5,0.6-2.5,1.4 c0,0.8,1.1,1.4,2.5,1.4c0,0,9.4,0.8,14.2,0.8c4.8,0,14.2-0.8,14.2-0.8C99.9,17.5,101,16.9,101,16.1z"/>
<path d="M101,18.4c0-0.8-1.1-1.4-2.5-1.4c0,0-9.4,0.7-14.2,0.7c-4.8,0-14.2-0.7-14.2-0.7c-1.4,0-2.5,0.6-2.5,1.4 c0,0.8,1.1,1.4,2.5,1.4c0,0,9.4,1.4,14.2,1.4c4.8,0,14.2-1.4,14.2-1.4C99.9,19.9,101,19.2,101,18.4z"/>
</g>
</g>
<g id="Flight-Suit" style="fill: rgb(0, 0, 0);">
<path d="M72.8,158.4l-1.5,8.7l-11,53.1c0,0-4.9,3-7.4,3.5s-7.7-0.4-7.7-0.4l3.8-43l2.9-18.4l0.7-7.8 c0,0-2.5-22.8-1.7-34.1c0.8-11.4,6.6-34,6.6-34l26.8,0.6l26.8-0.6c0,0,5.8,22.6,6.6,34c0.8,11.4-1.7,34.1-1.7,34.1l0.7,7.8 l2.9,18.4l3.8,43c0,0-5.3,1.2-7.8,0.7s-7.3-3.7-7.3-3.7l-11-53.1l-1.5-8.7l-11.6-30.3L72.8,158.4z"/>
<g>
<path d="M128.5,43.3l11.9,41.6l1,21.5l-9.5,1.8l-6-20.2l-13.6-33.9l0.7-15.5l2.3-3.7L128.5,43.3z"/>
<path d="M40.3,43.3l13.1-8.4l2.3,3.7l0.5,16L42.8,88l-6,20.2l-9.5-1.8l1-21.5L40.3,43.3z"/>
</g>
</g>
<g id="Sleeves" class="toggle" style="fill: rgb(168, 30, 30);">
<g>
<path d="M111.4,56.1l2.7,5.9c0,0,4.2-3.2,7-4.8c2.8-1.6,4.3-2.6,6.9-3.6c2.5-1,5-1.5,5-1.5l-6-12.2l-5.8-9.7 l-11.5,5.1L111.4,56.1z"/>
<path d="M112.8,59.2c-0.2-0.2,5-4.5,8.6-6.3c3.5-1.8,10.2-3.7,10.2-3.7"/>
</g>
<g>
<path d="M57.3,56.1L54.6,62c0,0-4.2-3.2-7-4.8c-2.8-1.6-4.4-2.6-6.9-3.6s-5-1.5-5-1.5l6-12.2l5.8-9.7L59,35.4 L57.3,56.1z"/>
<path d="M55.9,59.2c0.2-0.2-5-4.5-8.6-6.3c-3.5-1.8-10.2-3.7-10.2-3.7"/>
</g>
</g>
</g>
<g id="Boots">
<g id="Gunslinger_Boots" class="option" style="display: inherit;">
<g id="Main_Gunslinger-Boot" style="fill: rgb(59, 59, 59);">
<path d="M106.9,226.5c0,0.2,0.7,3.4,4.2,4.3c1.2,0.3,3.2-0.3,4.5-1c1.7-0.9,3.5-1.6,5.4-2.1l0.2,0.2 c0.6,0.8,1.2,1.6,1.9,2.3l0.3,0.3c0.4,0.4,0.8,0.7,1.2,1.1l0.3,0.3c0.1,0,0.1,0.1,0.2,0.1c0.9,0.6,2,1.6,3.2,1.4 c1.1-0.2,2.3-0.6,3.3-1c0.8-0.4,1.6-0.9,2.1-1.4c0.2-0.1,0.3-0.3,0.4-0.4c2.5,1,5.3,1.4,6.7,4.2c0.3,0.6,0.5,1.4,0.5,2 c-0.1,0.9-1,1-1.8,1.2c-1.9,0.5-3.5,0.9-5.7,1.3c-2.5,0.5-4.7,0.8-7.2,0.7c-1.9-0.1-3.5-0.2-5.1-1.2c-0.7-0.4-1.3-0.8-1.9-1.4 c-1.3-1.2-2.1-2.4-3.7-3.1c-1.2-0.5-2.4-1-3.7-1.3c-1.8-0.4-3.7-0.8-4.7-2.5C106.7,229.1,106.7,227.8,106.9,226.5"/>
<path d="M61.8,226.5c0,0.2-0.7,3.4-4.2,4.3c-1.2,0.3-3.2-0.3-4.5-1c-1.7-0.9-3.5-1.6-5.4-2.1l-0.2,0.2 c-0.6,0.8-1.2,1.6-1.9,2.3l-0.3,0.3c-0.4,0.4-0.8,0.7-1.2,1.1l-0.3,0.3c-0.1,0-0.1,0.1-0.2,0.1c-0.9,0.6-2,1.6-3.2,1.4 c-1.1-0.2-2.3-0.6-3.3-1c-0.8-0.4-1.6-0.9-2.1-1.4c-0.2-0.1-0.3-0.3-0.4-0.4c-2.5,1-5.3,1.4-6.7,4.2c-0.3,0.6-0.5,1.4-0.5,2 c0.1,0.9,1.1,1,1.8,1.2c1.9,0.5,3.5,0.9,5.7,1.3c2.5,0.5,4.7,0.8,7.2,0.7c1.9-0.1,3.5-0.2,5.1-1.2c0.7-0.4,1.3-0.8,1.9-1.4 c1.3-1.2,2.1-2.4,3.7-3.1c1.2-0.5,2.4-1,3.7-1.3c1.8-0.4,3.7-0.8,4.7-2.5C62.1,229.1,62,227.8,61.8,226.5"/>
</g>
<g id="Bottom_Gunslinger-Boot" style="fill: rgb(127, 32, 32);">
<path d="M106.9,229c0.1,0.5,0.2,1,0.5,1.5c0.9,1.8,2.9,2.1,4.7,2.5c1.3,0.3,2.5,0.8,3.7,1.3c1.6,0.7,2.5,2,3.7,3.1 c0.6,0.5,1.2,0.9,1.9,1.4c1.6,1,3.2,1.1,5.1,1.2c2.5,0.1,4.8-0.2,7.2-0.7c2.2-0.5,3.8-0.8,5.7-1.3c0.6-0.2,1.3-0.3,1.7-0.8 l0.4,0.8l0.2,1.6c0,0-2,1.1-4.2,1.6s-6.5,1.2-6.5,1.2l-0.3-0.7l-1,0.2v0.7l-2.4,0.1l-0.5-0.7H126l0.1,0.6c0,0-1.5,0-2.3-0.5 c-0.2-0.2-0.5-0.6-0.5-0.6l-0.6-0.3l0.1,0.6l-2-0.7l-0.1-0.8l-0.6-0.3v0.6l-1.4-1.1l-0.2-0.7l-3.6-2.5l-0.6,1.3l-2.5-0.6 l-0.1-0.5l-0.6-0.3l-0.4,0.4l-1.7-0.7v-0.5l-0.6-0.2l-0.1,0.4l-1.6-1.1l-0.3-2.2l-0.1-2.4L106.9,229"/>
<path d="M61.9,229c-0.1,0.5-0.2,1-0.5,1.5c-0.9,1.8-2.9,2.1-4.7,2.5c-1.3,0.3-2.5,0.8-3.7,1.3 c-1.7,0.7-2.5,2-3.7,3.1c-0.6,0.5-1.2,0.9-1.9,1.4c-1.6,1-3.2,1.1-5.1,1.2c-2.5,0.1-4.8-0.2-7.2-0.7c-2.2-0.5-3.8-0.8-5.7-1.3 c-0.6-0.2-1.4-0.3-1.7-0.8l-0.4,0.8l-0.2,1.6c0,0,2,1.1,4.2,1.6c2.1,0.5,6.5,1.2,6.5,1.2l0.3-0.7l1,0.2v0.7l2.4,0.1L42,242h0.8 l-0.1,0.6c0,0,1.5,0,2.3-0.5c0.2-0.2,0.5-0.6,0.5-0.6l0.6-0.3l-0.1,0.6l2-0.7l0.1-0.8l0.6-0.3v0.6l1.4-1.1l0.2-0.7l3.6-2.5 l0.6,1.3L57,237l0.1-0.5l0.6-0.3l0.4,0.4l1.7-0.7v-0.5l0.6-0.2l0.1,0.4l1.6-1.1l0.3-2.2l0.1-2.4L61.9,229"/>
</g>
<g id="Top_Gunslinger-Boot" style="fill: rgb(0, 0, 0);">
<path d="M121,227.7c-2.2-3.1-3.6-6.9-4.1-10.3l0.6-0.1h0.7c0.4,0,0.7-0.1,1-0.1l0.5-0.1h0.2l0.4-0.1l0.3-0.1h0.1 c1.1-0.3,2.3-0.6,2.3-0.6c0.3,1.5,0.5,3.2,1.1,4.6c1,2.2,2.8,3.8,4.4,5.5c1.1,1.1,2.3,2.4,3.6,3.3c0.6,0.4,1.2,0.7,1.8,0.9 c-0.5,0.7-1.5,1.4-2.5,1.8c-0.9,0.4-2.2,0.9-3.3,1c-1.2,0.2-2.3-0.8-3.2-1.4C123.5,230.8,122.2,229.4,121,227.7"/>
<path d="M47.7,227.7c2.2-3.1,3.6-6.9,4.1-10.3l-0.6-0.1h-0.7c-0.4,0-0.7-0.1-1-0.1l-0.5-0.1h-0.2l-0.4-0.1l-0.3-0.1 H48c-1.1-0.3-2.3-0.6-2.3-0.6c-0.3,1.5-0.5,3.2-1.1,4.6c-1,2.2-2.8,3.8-4.4,5.5c-1.1,1.1-2.3,2.4-3.6,3.3 c-0.6,0.4-1.2,0.7-1.8,0.9c0.5,0.7,1.5,1.4,2.5,1.8c0.9,0.4,2.2,0.9,3.3,1c1.2,0.2,2.3-0.8,3.2-1.4 C45.2,230.8,46.5,229.4,47.7,227.7"/>
</g>
<g id="Side_Gunslinger-Boot" style="fill: rgb(176, 40, 40);">
<path d="M121,227.7c-1.9,0.5-3.7,1.2-5.4,2.1c-1.3,0.6-3.3,1.3-4.5,1c-3.6-0.9-4.2-4.3-4.2-4.3 c0.1-0.7,0.3-1.5,0.3-2.3c0.1-1.5-0.1-8.2,0-8.1c2.9,1.6,8.1,1.5,9.6,1.3C117.4,220.8,118.9,224.6,121,227.7"/>
<path d="M47.7,227.7c1.9,0.5,3.7,1.2,5.4,2.1c1.3,0.6,3.3,1.3,4.5,1c3.6-0.9,4.2-4.3,4.2-4.3 c-0.1-0.7-0.3-1.5-0.3-2.3c-0.1-1.5,0.1-8.2,0-8.1c-2.9,1.6-8.1,1.5-9.6,1.3C51.3,220.8,49.9,224.6,47.7,227.7"/>
</g>
</g>
</g>
<g id="Gloves">
<g id="Left-Glove">
<g id="Fingerless_Left_Glove" class="option" style="display: inherit;">
<g id="Fingers_Fingerless_Left_Glove" style="fill: rgb(238, 160, 89);">
<path d="M137.6,124.1c-0.5,0-1,0-1.6,0.1c-0.4,0.1-0.7,0.2-1,0.3c-1,0.6-0.7,1.8,0.2,2.3c1,0.6,2.6,0,3.1-1.1 C138.5,125.3,137.9,124.5,137.6,124.1"/>
<path d="M135.8,125.2c-0.5,0-1,0-1.6,0.1c-0.4,0.1-0.7,0.2-1,0.3c-1,0.6-0.7,1.8,0.2,2.3c1,0.5,2.6,0,3.1-1.1 C136.7,126.4,136.1,125.6,135.8,125.2"/>
<path d="M134.6,126.6c-0.5,0-1.2,0.2-1.7,0.3c-0.3,0.1-0.7,0.3-1,0.5c-0.9,0.7-0.5,1.9,0.5,2.2 c1.1,0.4,2.6-0.3,2.9-1.5C135.4,127.7,134.6,126.6,134.6,126.6z"/>
<path d="M129,119.8c-0.3,1.3-0.5,2.1-0.5,2.1s-1.4,2.8-1.1,3.4c0.2,0.6,1.4,1.2,2.1,0.9c0.9-0.4,1.9-2.4,2.6-3.8 c0.2-0.5,0.5-1.1,0.7-1.6C130,121.2,129,119.8,129,119.8z"/>
<path d="M134.7,126.4c-0.2,0.3-0.4,0.7-0.7,1.1c-1.4,2-3.4,3.8-2.1,5.4c1.3,1.5,4.2-2.4,4.2-2.4l1.4-1.8 C135.3,128.2,134.7,126.4,134.7,126.4z"/>
</g>
<path id="Glove_Fingerless_Left_Glove" d="M137.5,128.7l1.5-2c0,0,3.3-5.4,3.4-6.5c0.1-0.8,0-3.5,0-3.5l-1-10.4 l-5.2,0.4l-4.3,1.4l-0.3,1.8c0,0-1.6,2.1-2,3.7c-0.3,1.1-0.1,3.7-0.5,5.4c0,0.2-0.1,0.4-0.1,0.6c0,0,1,1.4,3.7,1 c0.3-1,0.6-1.8,0.6-1.8s0.9,0.3,1.4,0.7c1.6,1.2,0.9,5,0.9,5s-0.4,0.7-1,1.7C134.7,126.4,135.3,128.2,137.5,128.7z" style="fill: rgb(100, 58, 21);"/>
</g>
</g>
<g id="Right-Glove">
<g id="Fingerless_Right_Glove" class="option" style="display: inherit;">
<g id="Fingers_Fingerless_Right_Glove" style="fill: rgb(238, 160, 89);">
<path d="M31.1,124.1c0.5,0,1,0,1.6,0.1c0.4,0.1,0.7,0.2,1,0.3c1,0.6,0.7,1.8-0.2,2.3c-1,0.6-2.6,0-3.1-1.1 C30.3,125.3,30.9,124.5,31.1,124.1"/>
<path d="M32.9,125.2c0.5,0,1,0,1.6,0.1c0.4,0.1,0.7,0.2,1,0.3c1,0.6,0.7,1.8-0.2,2.3c-1,0.5-2.6,0-3.1-1.1 C32.1,126.4,32.7,125.6,32.9,125.2"/>
<path d="M34.2,126.6c0.5,0,1.2,0.2,1.7,0.3c0.3,0.1,0.7,0.3,1,0.5c0.9,0.7,0.5,1.9-0.5,2.2 c-1.1,0.4-2.6-0.3-2.9-1.5C33.3,127.7,34.2,126.6,34.2,126.6z"/>
<path d="M39.7,119.8c0.3,1.3,0.5,2.1,0.5,2.1s1.4,2.8,1.1,3.4c-0.2,0.6-1.4,1.2-2.1,0.9c-0.9-0.4-1.9-2.4-2.6-3.8 c-0.2-0.5-0.5-1.1-0.7-1.6C38.7,121.2,39.7,119.8,39.7,119.8z"/>
<path d="M34.1,126.4c0.2,0.3,0.4,0.7,0.7,1.1c1.4,2,3.4,3.8,2.1,5.4c-1.3,1.5-4.2-2.4-4.2-2.4l-1.4-1.8 C33.5,128.2,34.1,126.4,34.1,126.4z"/>
</g>
<path id="Glove_Fingerless_Right_Glove" d="M31.3,128.7l-1.5-2c0,0-3.3-5.4-3.4-6.5c-0.1-0.8,0-3.5,0-3.5l1-10.4 l5.2,0.4l4.3,1.4l0.3,1.8c0,0,1.5,2.1,2,3.7c0.3,1.1,0.1,3.7,0.5,5.4c0,0.2,0.1,0.4,0.1,0.6c0,0-1,1.4-3.7,1 c-0.3-1-0.6-1.8-0.6-1.8s-0.9,0.3-1.4,0.7c-1.6,1.2-0.9,5-0.9,5s0.4,0.7,1,1.7C34.1,126.4,33.5,128.2,31.3,128.7z" style="fill: rgb(100, 58, 21);"/>
</g>
</g>
</g>
<g id="Biceps">
<g id="Left-Biceps">
<g id="Basic_Biceps_Left" class="option" style="display: inherit;">
<path id="Main_Basic_Biceps_Left" d="M133.5,52c-1.1-2.7-6.2-14.8-6.2-14.8s-8.3,3.4-10.4,4.3 c-0.6,0.2-0.9,0.9-0.6,1.5c1,2.4,3.4,8.1,4.8,11.7c0.3,0.8,1,1.5,1.8,1.8c0.8,0.3,1.7,0.3,2.5,0c2.4-1,5.7-2.4,7.4-3 C133.5,53.2,133.8,52.6,133.5,52" style="fill: rgb(139, 30, 30);"/>
<path id="Strap_Basic_Biceps_Left" d="M118.6,48.3l-5.8,2.4l-0.1,4.3l7.4-3.1L118.6,48.3" style="fill: rgb(108, 64, 25);"/>
<path id="Trauma-Plate_Basic_Biceps_Left" class="toggle" style="fill: rgb(0, 0, 0);" d="M133.5,51.4l-5.3-12.7l-10.1,4.2l4.6,11.2 c0.2,0.4,0.5,0.7,0.9,0.9s0.8,0.2,1.2,0L133.5,51.4"/>
</g>
</g>
<g id="Right-Biceps">
<g id="Basic_Biceps_Right" class="option" style="display: inherit;">
<path id="Main_Basic_Biceps_Right" d="M35.4,52c1.2-2.8,6.2-14.8,6.2-14.8s8.3,3.4,10.4,4.3c0.6,0.2,0.9,0.9,0.6,1.5 c-1,2.4-3.4,8.1-4.8,11.7c-0.3,0.8-1,1.5-1.8,1.8s-1.7,0.3-2.5,0c-2.4-1-5.7-2.4-7.4-3C35.5,53.2,35.2,52.6,35.4,52" style="fill: rgb(139, 30, 30);"/>
<path id="Strap_Basic_Biceps_Right" d="M50.4,48.3l5.8,2.4l0.1,4.3l-7.4-3.1L50.4,48.3" style="fill: rgb(108, 64, 25);"/>
<path id="Trauma-Plate_Basic_Biceps_Right" class="toggle" style="fill: rgb(0, 0, 0);" d="M35.5,51.4l5.3-12.7l10.1,4.2l-4.6,11.2 c-0.2,0.4-0.5,0.7-0.9,0.9c-0.4,0.2-0.8,0.2-1.2,0L35.5,51.4"/>
</g>
</g>
</g>
<g id="Vest" style="fill: rgb(113, 15, 15);">
<path d="M84.4,20.9c8.4,0,15.3-4.3,15.5-8h0.1l18.3,5.4l13.2,23.9l-2.8,1.2l-13.3-8.6l-2.3,3.7l-1.5,47.4 c0,0-8.7,4.7-13.4,5.3c-3.4,0.5-8.6,0.7-13.7,0.7s-10.3-0.2-13.7-0.7c-4.8-0.6-13.4-5.3-13.4-5.3l-1.5-47.4l-2.3-3.7l-13.3,8.6 l-2.8-1.2l13.2-23.9L69,12.9h0.1C69,16.6,75.9,20.9,84.4,20.9"/>
</g>
<g class="swappable" id="Chest">
<g id="Chest_Heavy" style="visibility: visible;">
<g id="Abdomen_Heavy">
<g id="Under-Plates_Abdomen_Heavy" style="fill: rgb(92, 23, 23);">
<path d="M73.4,72.4v-2.8h22.1v2.8H73.4"/>
<path d="M73.4,75.2v-2.8h22.1v2.8H73.4"/>
<path d="M73.4,78.1v-2.9h22.1V78L73.4,78.1"/>
<path d="M73.4,80.9v-2.8h22.1v2.8H73.4"/>
<path d="M73.4,83.7v-2.8h22.1v2.8H73.4"/>
</g>
<g id="Abdomen-Plate_Heavy" style="fill: rgb(55, 55, 55);">
<path d="M77.7,60.4l-11,4.7l-1-2.5l12.1-5.1L77.7,60.4"/>
<path d="M70.5,74.5l-3.9-9.4l11-4.7l3.5,9.9L70.5,74.5"/>
<path d="M65.6,62.6L61,63.4l6.8,16.3l4.7-0.9L65.6,62.6"/>
<path d="M91.3,60.4l11,4.7l1-2.5l-12.1-5.1L91.3,60.4"/>
<path d="M98.4,74.5l3.9-9.4l-11-4.7l-3.5,9.9L98.4,74.5"/>
<path d="M103.3,62.6l4.6,0.8l-6.8,16.3l-4.7-0.9L103.3,62.6"/>
<path d="M77.7,60.4v-3h13.5v3H77.7"/>
<path d="M81.1,70.3l-3.5-9.9h13.6l-3.5,9.9H81.1"/>
</g>
</g>
<g id="Neck-Armor_Heavy">
<g id="Neck-Plate_Heavy" style="fill: rgb(0, 0, 0);">
<path d="M69.3,11.2l-9.6,2.1c0,0,1.1,4.3,1.7,6.8c0.2,0.9,1.1,1.4,2,1.2c1.7-0.4,4.5-1,6.3-1.4 c0.4-0.1,0.8-0.4,1.1-0.8c0.2-0.4,0.3-0.9,0.2-1.3C70.3,15.4,69.3,11.2,69.3,11.2"/>
<path d="M99.7,11.2l9.6,2.1c0,0-1.1,4.3-1.7,6.8c-0.2,0.9-1.1,1.4-2,1.2c-1.7-0.4-4.5-1-6.3-1.4 c-0.4-0.1-0.8-0.4-1.1-0.8c-0.2-0.4-0.3-0.9-0.2-1.3C98.6,15.4,99.7,11.2,99.7,11.2"/>
</g>
<g id="Secondary_Neck-Plate_Heavy" style="fill: rgb(132, 30, 30);">
<path d="M66.9,11.4l-4.8,1.1c0,0,0.7,2.9,1.1,4.3c0.1,0.4,0.5,0.7,1,0.6c0.9-0.2,2.3-0.5,3.2-0.7 c0.2,0,0.4-0.2,0.5-0.4c0.1-0.2,0.2-0.4,0.1-0.6C67.6,14.2,66.9,11.4,66.9,11.4"/>
<path d="M102.1,11.4l4.8,1.1c0,0-0.7,2.9-1.1,4.3c-0.1,0.4-0.5,0.7-1,0.6c-0.9-0.2-2.3-0.5-3.2-0.7 c-0.2,0-0.4-0.2-0.5-0.4c-0.1-0.2-0.2-0.4-0.1-0.6C101.3,14.2,102.1,11.4,102.1,11.4"/>
</g>
</g>
<g id="Full-Chest_Heavy">
<path id="Under-Plate_Chest_Heavy" d="M89.9,54.1H79l-2.7,2.4v1.6l1.4-0.6h13.5l1.4,0.6v-1.6L89.9,54.1" style="fill: rgb(131, 32, 32);"/>
<g id="Chest-Plate_Heavy" style="fill: rgb(36, 36, 36);">
<path d="M65.4,61.2l9.7-5.6l1.3-2.7l2.6,0.3h11l2.6-0.3l1.3,2.7l9.7,5.6l4.5,1l-0.1,1.7l-4.8-0.8l-10.5-4.4v-2.2 L90,54.1H79l-2.7,2.4v2.2l-10.5,4.4L61,63.9l-0.1-1.7L65.4,61.2"/>
<path d="M108.1,62.2l5.6-14.4l0.8,2.9l-1.8,10.7L108.1,62.2"/>
<path d="M54.4,50.8l0.8-2.9l5.6,14.4l-4.7-0.7L54.4,50.8"/>
<path d="M60.7,42.2v-6l-0.5-10.8l2.8-3.1l8.5-1.8l2.2,2.6h21.6l2.2-2.6l8.5,1.8l2.8,3.1l-0.4,10.5v6.3L92.7,52.9 l-2.6,0.3h-11l-2.6-0.3L60.7,42.2"/>
<path d="M108.2,36.2v6l5.5,5.6L108.2,36.2"/>
<path d="M76.4,53L60.7,42.2l-5.5,5.6l5.6,14.4l4.5-1l9.7-5.6L76.4,53"/>
<path d="M113.7,47.8l-5.6,14.4l-4.5-1l-9.7-5.6l-1.3-2.7l15.7-10.7L113.7,47.8"/>
<path d="M112.7,61.5l-0.2,1.1l-4.6,1.2l0.1-1.7L112.7,61.5"/>
<path d="M60.7,36.2v6l-5.5,5.6L60.7,36.2"/>
<path d="M60.3,25.4C60.2,30.9,59.6,36.5,58,42l2.7-5.8L60.3,25.4"/>
<path d="M108.7,25.4c0.1,5.5,0.7,11.1,2.3,16.6l-2.7-5.8L108.7,25.4"/>
<path d="M60.9,62.2l0.1,1.7l-4.6-1.2l-0.2-1.1L60.9,62.2"/>
</g>
<g id="Accents_Chest-Plate_Heavy" class="toggle">
<g id="Accent-3_Accents_Chest-Plate_Heavy" style="fill: rgb(132, 24, 24);">
<path d="M97.3,36.1l-0.6-1.8h2.6l-0.6,1.8H97.3"/>
<path d="M97.3,39.5l-0.6-1.8h2.6l-0.6,1.8H97.3"/>
<path d="M100.5,25.4h-4.9v0.5h4.9V25.4"/>
<path d="M100.5,27.1h-4.9v0.5h4.9V27.1"/>
</g>
<path id="Accent-2_Accents_Chest-Plate_Heavy" d="M69.8,19.8c0,0-3.5,0.2-5,0.3c-0.2,0-0.3,0.1-0.4,0.2 c-0.1,0.1-0.2,0.3-0.1,0.4c0.1,1.5,0.4,5.5,0.5,7.1c0,0.3,0.3,0.6,0.6,0.6c1.1-0.1,3.3-0.2,4.4-0.3c0.2,0,0.3-0.1,0.4-0.2 c0.1-0.1,0.2-0.3,0.1-0.4C70.2,25.5,69.8,19.8,69.8,19.8" style="fill: rgb(136, 27, 27);"/>
<g id="Accent-1_Accents_Chest-Plate_Heavy" style="fill: rgb(124, 25, 25);">
<path d="M69.2,20.4l-4.3,0.3l0.5,7.1l4.3-0.3L69.2,20.4"/>
<path d="M68.7,20.9l-3.2,0.3l0.1,1l3.3-0.2L68.7,20.9"/>
<path d="M66,22.1h-0.4l0.4,5.6h0.4L66,22.1"/>
<path d="M66.5,22.1h-0.4l0.4,5.6h0.4L66.5,22.1"/>
<path d="M68.8,22h-0.4l0.4,5.6h0.4L68.8,22"/>
<path d="M68.4,22H68l0.4,5.6h0.4L68.4,22"/>
<path d="M67.4,22.1H67l0.4,5.6h0.4L67.4,22.1"/>
<path d="M67.9,22h-0.4l0.4,5.6h0.4L67.9,22"/>
<path d="M66.9,22.1h-0.4l0.4,5.6h0.4L66.9,22.1"/>
</g>
</g>
</g>
<g id="Iron-Heart_Heavy">
<path id="Heart_Heavy" d="M84.5,31.1l3.2,3V40l-3.2,3l-3.2-3v-5.9L84.5,31.1" style="fill: rgb(141, 29, 29);"/>
<g id="Center_Heart_Heavy" class="option" style="fill: rgb(73, 73, 73); display: inherit;">
<rect x="83.3" y="34.1" width="2.3" height="2.8"/>
<rect x="83.3" y="37" width="0.4" height="2.8"/>
<rect x="84.9" y="37" width="0.4" height="2.8"/>
<rect x="85.2" y="37" width="0.4" height="2.8"/>
<rect x="84.1" y="37" width="0.4" height="2.8"/>
<rect x="84.5" y="37" width="0.4" height="2.8"/>
<rect x="83.7" y="37" width="0.4" height="2.8"/>
</g>
</g>
</g>
</g>
<g id="Chest-Attachments">
<g id="Bandoleer_Accessories_Chest" class="option" style="display: inherit;">
<g id="Strap_Bandoleer_Accessories_Chest" style="fill: rgb(54, 54, 54);">
<path d="M112.3,15l-6.6-3.2L64.2,87.1l6.6,3.6L112.3,15"/>
<path d="M110.6,13.8l-2.5-1.2l-8.3,15l2.4,1.3L110.6,13.8"/>
<path d="M98.8,35.4l-2.7-1.5L83.4,57l2.7,1.5L98.8,35.4"/>
<path d="M99.1,36.3l-3.9-2.1l-1.3,2.3l3.9,2.1L99.1,36.3"/>
<path d="M97.5,39.1L93.6,37l-1.3,2.3l3.9,2.1L97.5,39.1"/>
<path d="M96,41.9l-3.9-2.1l-1.3,2.3l3.9,2.1L96,41.9"/>
<path d="M94.4,44.7l-3.9-2.1l-1.3,2.3l3.9,2.1L94.4,44.7"/>
<path d="M92.9,47.5L89,45.4l-1.3,2.3l3.9,2.1L92.9,47.5"/>
<path d="M89.8,53.1L85.9,51l-1.3,2.3l3.9,2.1L89.8,53.1"/>
<path d="M91.4,50.3l-3.9-2.1l-1.3,2.3l3.9,2.1L91.4,50.3"/>
<path d="M88.3,55.9l-3.9-2.1l-1.3,2.3l3.9,2.1L88.3,55.9"/>
</g>
<g id="Ammo_Bandoleer_Accessories_Chest" style="fill: rgb(219, 188, 26);">
<g>
<g>
<path d="M98.9,36.6l1.6,0.9c0.2,0.1,0.2,0.3,0.1,0.5c-0.2,0.3-0.5,0.9-0.7,1.2c-0.1,0.2-0.3,0.2-0.5,0.1L98,38.4 L98.9,36.6"/>
<path d="M100.1,37.2L99,38.9l0.1,0.1L100.1,37.2"/>
<path d="M99.8,37.1l-1.1,1.7l0.1,0.1L99.8,37.1"/>
</g>
<g>
<path d="M95.1,34.4l-1,1.8l-1.6-0.9c-0.2-0.1-0.2-0.3-0.1-0.5c0.2-0.3,0.5-0.9,0.7-1.2c0.1-0.2,0.3-0.2,0.5-0.1 L95.1,34.4"/>
<path d="M93.8,33.8l-1.1,1.7l0.1,0.1L93.8,33.8"/>
</g>
</g>
<g>
<g>
<path d="M95.8,42.2l1.6,0.9c0.2,0.1,0.2,0.3,0.1,0.5c-0.2,0.3-0.5,0.9-0.7,1.2c-0.1,0.2-0.3,0.2-0.5,0.1L94.7,44 L95.8,42.2"/>
<path d="M97,42.8l-1.1,1.7l0.1,0.1L97,42.8"/>
<path d="M96.7,42.7l-1.1,1.7l0.1,0.1L96.7,42.7"/>
</g>
<g>
<path d="M92,40l-1,1.8l-1.6-0.9c-0.2-0.1-0.2-0.3-0.1-0.5c0.2-0.3,0.5-0.9,0.7-1.2c0.1-0.2,0.3-0.2,0.5-0.1L92,40"/>
<path d="M90.8,39.4l-1.1,1.7l0.1,0.1L90.8,39.4"/>
</g>
</g>
<g>
<g>
<path d="M94.3,45l1.6,0.9c0.2,0.1,0.2,0.3,0.1,0.5c-0.2,0.3-0.5,0.9-0.7,1.2c-0.1,0.2-0.3,0.2-0.5,0.1l-1.6-0.9 L94.3,45"/>
<path d="M95.5,45.6l-1.1,1.7l0.1,0.1L95.5,45.6"/>
<path d="M95.2,45.5l-1.1,1.7l0.1,0.1L95.2,45.5"/>
</g>
<g>
<path d="M90.4,42.8l-1,1.8l-1.6-0.9c-0.2-0.1-0.2-0.3-0.1-0.5c0.2-0.3,0.5-0.9,0.7-1.2c0.1-0.2,0.3-0.2,0.5-0.1 L90.4,42.8"/>
<path d="M89.2,42.2l-1.1,1.7l0.1,0.1L89.2,42.2"/>
</g>
</g>
<g>
<g>
<path d="M92.8,47.8l1.6,0.9c0.2,0.1,0.2,0.3,0.1,0.5c-0.2,0.3-0.5,0.9-0.7,1.2c-0.1,0.2-0.3,0.2-0.5,0.1l-1.6-0.9 L92.8,47.8"/>
<path d="M93.9,48.4l-1.1,1.7l0.1,0.1L93.9,48.4"/>
<path d="M93.6,48.3L92.5,50l0.1,0.1L93.6,48.3"/>
</g>
<g>
<path d="M88.9,45.6l-1,1.8l-1.6-0.9c-0.2-0.1-0.2-0.3-0.1-0.5c0.2-0.3,0.5-0.9,0.7-1.2c0.1-0.2,0.3-0.2,0.5-0.1 L88.9,45.6"/>
<path d="M87.7,45l-1.1,1.7l0.1,0.1L87.7,45"/>
</g>
</g>
</g>
<g id="Buckles_Bandoleer_Accessories_Chest" style="fill: rgb(154, 154, 154);">
<g>
<path d="M103.3,27.4l-2.9-1.6l-1.6,2.9l2.9,1.6L103.3,27.4"/>
<path d="M102.6,27.9l-2.2-1.2l-1.6,2.9l2.2,1.2L102.6,27.9"/>
</g>
<path d="M103.3,23.9l-1.8-1l1.6-2.9l3.7,2l-1.6,2.9L103.3,23.9l0.4-0.7l1.1,0.6l0.9-1.6l-2.1-1.1l-0.9,1.6l1,0.6"/>
</g>
</g>
</g>
<g id="Collar">
<g id="None_Collar" class="option" style="display: inherit;">
</g>
</g>
<svg version="1.1" id="Helmets" xmlns="http://www.w3.org/2000/svg" y="-54px" height="85px" viewBox="0 0 80 80" class="swappable">
<g id="Helmet_Recon" style="visibility: visible;">
<g id="Left-Earcap_Recon">
<g id="Ear-Cap_Left_Recon" style="fill: rgb(112, 27, 27);">
<path d="M59.1,34.4l1.5,0.8l-0.7,1.3h-0.8V34.4z"/>
<path d="M60.6,35.2l1,13.3l-1.4-0.2l-0.3-11.9L60.6,35.2z"/>
<path d="M60.2,48.3h-1.1l-0.3-11.9h1.1L60.2,48.3z"/>
<path d="M61.1,48.5v1.4h-2v-1.5h1.1L61.1,48.5z"/>
<rect x="59.1" y="48.3" width="0.7" height="1.6"/>
<path d="M61.1,50.3v1.3l-1.9,0.2v-1.5H61.1z"/>
<path d="M59.8,50.3v1.4l-0.7,0.1v-1.5H59.8z"/>
<path d="M60.8,49.9v0.4h-1.7v-0.4H60.8z"/>
<rect x="59.1" y="49.9" width="0.6" height="0.4"/>
<path d="M60.6,51.6h1.1l0.1,4.6l-1.2,1.3V51.6z"/>
<path d="M60.5,57.6l-1.2,0.9l-0.1-6.6l1.4-0.1L60.5,57.6L60.5,57.6z"/>
<path d="M58.9,40.9h0.6v2.3H59L58.9,40.9z"/>
</g>
</g>
<g id="Right-Earcap_Recon">
<g id="Sensor-Stalk_Right_Recon" class="option" style="display: inherit;">
<g id="Sensor_Sensor-Stalk_Right_Recon" style="fill: rgb(143, 33, 33);">
<path d="M12.5,32.3L18,8.6h0.5l-0.7,23.7H12.5z"/>
<path d="M12.9,32.3h-0.3L18,8.6h0.3L12.9,32.3z"/>
<path d="M15.4,32.3L17,18.1h1.2l-0.4,14.2H15.4z"/>
<path d="M18.2,18.5h-0.9l-1.5,13.9h-0.3L17,18.1h1.2V18.5z"/>
<path d="M12.5,37.5l3.6,9h1.4v-9H12.5z"/>
<path d="M16.6,46.6l-3.6-9h-0.4l3.6,9H16.6z"/>
<path d="M15.6,37.5l1,5.6h1v-5.6H15.6z"/>
<path d="M16.8,42.8l-0.9-5.2h-0.3l1,5.6h1v-0.4H16.8z"/>
</g>
<g id="Shaft_Sensor-Stalk_Right_Recon" style="fill: rgb(0, 0, 0);">
<rect x="12.5" y="32.3" width="5.2" height="0.6"/>
<rect x="12.6" y="36.9" width="5" height="0.6"/>
<path d="M17.7,32.9h-5.2l0.2,0.4h4.9L17.7,32.9z"/>
<path d="M17.6,36.9h-5l0.2-0.4h4.8V36.9z"/>
<path d="M19.2,8.6h-0.7l-1,33h1.7V8.6z"/>
<rect x="18.3" y="40.2" width="0.8" height="2.9"/>
<path d="M18.3,43.1c-0.5,0-0.9-0.6-0.9-1.4s0.4-1.4,0.8-1.4L18.3,43.1L18.3,43.1z"/>
</g>
</g>
<g id="Ear-Cap_Right_Recon" style="fill: rgb(111, 20, 20);">
<path d="M20.9,34.4l-1.5,0.8l0.7,1.3h0.8V34.4z"/>
<path d="M19.4,35.2l-1,13.3l1.4-0.2L20,36.4L19.4,35.2z"/>
<path d="M19.8,48.3h1.1l0.3-11.9H20L19.8,48.3z"/>
<path d="M18.9,48.5v1.4h2v-1.5h-1.1L18.9,48.5z"/>
<rect x="20.1" y="48.3" width="0.7" height="1.6"/>
<path d="M18.9,50.3v1.3l1.9,0.2v-1.5H18.9z"/>
<path d="M20.1,50.3v1.4l0.7,0.1v-1.5H20.1z"/>
<path d="M19.1,49.9v0.4h1.7v-0.4H19.1z"/>
<rect x="20.2" y="49.9" width="0.6" height="0.4"/>
<path d="M19.4,51.6h-1.1l-0.1,4.6l1.2,1.3V51.6z"/>
<path d="M19.4,57.6l1.2,0.9l0.1-6.6l-1.4-0.1v5.8H19.4z"/>
<rect x="20.4" y="40.9" width="0.6" height="2.3"/>
</g>
</g>
<g id="Helmet_Pieces_Recon">
<g id="Face_Recon" style="fill: rgb(146, 37, 37);">
<path d="M22.9,58.7l0.8-6.9l0.8-0.3l0.7-5.2c0,0,4.5,3.1,6.3,5.2c2,2.3,4.1,15,4.1,15L22.9,58.7z"/>
<path d="M57,58.7l-0.8-6.9l-0.8-0.3l-0.7-5.2c0,0-4.5,3.1-6.3,5.2c-2,2.3-4.1,15-4.1,15L57,58.7z"/>
</g>
<g id="Vents_Recon" style="fill: rgb(0, 0, 0);">
<g>
<path d="M26,53.3l-1.2-0.9l-0.4,0.2v0.5l1.1,1.1v-0.6L26,53.3z"/>
<path d="M23.7,51.7l0.6,0.8l0.4-0.2l1.2,0.9l-0.6,0.3l1.8,1.2l1.7-0.8c-1.6-0.7-3-1.5-4.3-2.5L23.7,51.7z"/>
<path d="M27.1,54.7c-0.8,1.7-1.1,3.7-0.9,5.9l1.5,0.9l1-7.7L27.1,54.7z"/>
<path d="M27.6,54.9l0.8-0.4L27.5,61l-0.9-0.5v-0.2h0.8v-0.4h-0.8v-0.4h0.9v-0.4h-0.9v-0.4h1v-0.4h-1v-0.4h1.1v-0.4 h-1l0.1-0.4h1v-0.4h-0.9l0.1-0.4v-0.1h0.9v-0.4h-0.8l0.1-0.2l0.1-0.3H28v-0.4H27.6z"/>
<path d="M26.3,60.7l-3.3-2l0.8-6.9l0.6,0.8v0.5l1.1,1.1v-0.6l1.8,1.2C26.3,56.4,26,58.4,26.3,60.7z"/>
<path d="M24.6,52.8l0.8,0.8l0.6-0.3l-1-0.7L24.6,52.8z"/>
<path d="M24.6,53.1v-0.3l0.8,0.8v0.3L24.6,53.1z"/>
<path d="M24.3,53.1h0.3"/>
<path d="M25,58.8l-1.1-0.6v0.3l1.1,0.6V58.8z"/>
<path d="M27.6,54.9H28v0.4h-0.8l0.1-0.3L27.6,54.9z"/>
<path d="M27.1,55.8L27,56.2h0.9v-0.4H27.1z"/>
<path d="M26.9,56.6l-0.1,0.3V57h1v-0.4H26.9z"/>
<path d="M26.7,57.4v0.4h1.1v-0.4H26.7z"/>
<rect x="26.6" y="58.2" width="1" height="0.4"/>
<rect x="26.6" y="59.1" width="0.9" height="0.4"/>
<rect x="26.6" y="59.9" width="0.8" height="0.4"/>
</g>
<g>
<path d="M54,53.3l1.2-0.9l0.4,0.2v0.5l-1.1,1.1v-0.6L54,53.3z"/>
<path d="M56.2,51.7l-0.6,0.8l-0.4-0.2l-1.2,1l0.6,0.3l-1.8,1.2L51.1,54c1.6-0.7,3-1.5,4.3-2.5L56.2,51.7z"/>
<path d="M52.8,54.7c0.8,1.7,1.1,3.7,0.9,5.9l-1.5,0.9l-1-7.7L52.8,54.7z"/>
<path d="M52.4,54.9l-0.8-0.4l0.9,6.5l0.9-0.5v-0.2h-0.8v-0.4h0.8v-0.4h-0.9v-0.4h0.9v-0.4h-1v-0.4h1v-0.4h-1.1 v-0.4h1L53.2,57h-1v-0.4h0.9L53,56.2v-0.1h-0.9v-0.4h0.8l-0.1-0.2l-0.1-0.3h-0.8v-0.4h0.5V54.9z"/>
<path d="M53.7,60.7l3.3-2l-0.8-6.9l-0.6,0.8v0.5l-1.1,1.1v-0.6l-1.8,1.2C53.6,56.4,53.9,58.4,53.7,60.7z"/>
<path d="M55.4,52.8l-0.8,0.8L54,53.3l0.9-0.7L55.4,52.8z"/>
<path d="M55.4,53.1v-0.3l-0.8,0.8v0.3L55.4,53.1z"/>
<path d="M55.7,53.1h-0.3"/>
<path d="M54.9,58.8l1.1-0.6v0.3l-1.1,0.6V58.8z"/>
<path d="M52.4,54.9h-0.5v0.4h0.8L52.4,54.9L52.4,54.9z"/>
<path d="M52.8,55.8l0.1,0.4H52v-0.4H52.8z"/>
<path d="M53.1,56.6l0.1,0.3V57h-1v-0.4H53.1z"/>
<path d="M53.2,57.4v0.4h-1.1v-0.4H53.2z"/>
<rect x="52.3" y="58.2" width="1" height="0.4"/>
<rect x="52.5" y="59.1" width="0.9" height="0.4"/>
<rect x="52.6" y="59.9" width="0.8" height="0.4"/>
</g>
</g>
<g id="Cheeks_Recon" style="fill: rgb(199, 41, 41);">
<path d="M24.7,42.7l0.5,3.5l-0.7,5.2l-0.8,0.3L24.7,42.7z"/>
<path d="M24.7,42.7c0,0,5.4,3.9,7.1,6.7c2.2,3.6,4.3,16.2,4.4,16.9h-0.7c0,0-2-12.7-4.1-15 c-1.8-2.1-6.3-5.2-6.3-5.2L24.7,42.7z"/>
<path d="M26.2,44.8l0.1,0.6l1.2,0.9l-0.1-0.7L26.2,44.8z"/>
<path d="M55.2,42.7l-0.5,3.5l0.7,5.2l0.8,0.3L55.2,42.7z"/>
<path d="M55.2,42.7c0,0-5.4,3.9-7.1,6.7c-2.2,3.6-4.3,16.2-4.4,16.9h0.7c0,0,2-12.7,4.1-15c1.8-2.1,6.3-5.2,6.3-5.2 L55.2,42.7z"/>
</g>
<path id="Visor_Recon" d="M38.9,66.4l-1.4-22l-0.7-0.2l-8.9-2.8L27,39.1h0.3c2.2,0.4,4.5,0.7,7,0.9l2,1.3 c1.2,0.2,2.4,0.3,3.6,0.3c1.2,0,2.4-0.1,3.6-0.3l2-1.3c2.5-0.2,4.8-0.5,7-0.9h0.3L52,41.4l-8.9,2.8l-0.7,0.2l-1.4,22H38.9z" style="fill: rgb(0, 0, 0);"/>
<g id="Eyes-2_Recon" style="fill: rgb(110, 18, 18);">
<path d="M26.2,38.9l0.8,2.2l9.9,3.1l1.4,22.2h-2c0,0-2.1-13.3-4.4-17c-1.8-2.9-7.1-6.7-7.1-6.7l1-3.9L26.2,38.9z"/>
<path d="M27,39.1l0.9,2.3l-1-0.3l-0.8-2.2L27,39.1z"/>
<path d="M36.9,44.2l0.7,0.2l1.4,22h-0.7L36.9,44.2z"/>
<path d="M53.8,38.9L53,41.1l-9.9,3.1l-1.4,22.2h2c0,0,2.1-13.3,4.4-17c1.8-2.9,7.1-6.7,7.1-6.7l-1-3.9L53.8,38.9z"/>
<path d="M52.9,39.1L52,41.4l1-0.3l0.8-2.2L52.9,39.1z"/>
<path d="M43.1,44.2l-0.7,0.2l-1.4,22h0.7L43.1,44.2z"/>
<path d="M39.9,40.4c-5.5-0.2-10.1-0.7-14.2-1.6h28.4C50.1,39.7,45.5,40.3,39.9,40.4z"/>
<path d="M39.9,41.8c-1.2,0-2.4-0.1-3.6-0.3l-2-1.3c1.8,0.2,3.7,0.3,5.7,0.3h0.1c2-0.1,3.8-0.2,5.6-0.3l-2,1.3 C42.4,41.6,41.2,41.7,39.9,41.8z"/>
</g>
<g id="Eyes-1_Recon" style="fill: rgb(206, 26, 26);">
<path d="M24.6,38.8h0.7l-1.1,3.9l-1.8,16h-1.8C21.2,51.7,22.4,45.1,24.6,38.8z"/>
<path d="M25.7,38.8l-1,3.9l-1.8,16h-0.5l1.8-16l1.1-3.9H25.7z"/>
<path d="M55.4,38.8h-0.7l1.1,3.9l1.8,16h1.8C58.8,51.7,57.5,45.1,55.4,38.8z"/>
<path d="M54.2,38.8l1,3.9l1.8,16h0.5l-1.8-16l-1.1-3.9H54.2z"/>
<rect x="20.3" y="34.9" width="39.3" height="3.1"/>
<path d="M37.4,36.5l2.1-0.6v1.2L37.4,36.5z"/>
<path d="M42.5,36.5l-2.1-0.6v1.2L42.5,36.5z"/>
<path d="M24.6,38.8c-2.1,6.2-3.4,12.8-3.9,19.8L21.1,38h37.8l0.4,20.6c-0.6-7-1.8-13.6-3.9-19.8H24.6z"/>
<path d="M23.2,43.3l1-0.6"/>
<path d="M24.7,42.7h-0.6"/>
<path d="M56.7,43.3l-1-0.6"/>
<path d="M55.2,42.7h0.6"/>
</g>
<g id="Dome-2_Recon" style="fill: rgb(0, 0, 0);">
<path d="M40,19.2v15.7H20.9C20.9,29,28.5,19.2,40,19.2z"/>
<path d="M40,19.2v15.7h19.1C59.1,29,51.5,19.2,40,19.2z"/>
<path d="M38.1,35V18.7l1.9-0.1l1.9,0.1V35H38.1z"/>
</g>
<g id="Dome-1_Recon" style="fill: rgb(142, 28, 28);">
<path d="M38.1,34.9V18.2c-3,0.4-5.8,1.3-8.3,2.8v13.9H38.1z"/>
<path d="M41.9,34.9V18.2c3,0.4,5.8,1.3,8.3,2.8v13.9H41.9z"/>
</g>
</g>
<g id="Macrobinoculars_Brow_Recon" class="toggle" style="">
<g id="Arms_Macrobinoculars_Brow_Recon" style="fill: rgb(0, 0, 0);">
<path d="M22.3,27.8l-0.6-0.2l-4,9.5v0.4h0.5L22.3,27.8z"/>
<rect x="18.9" y="38.4" width="1" height="0.9"/>
<rect x="18.2" y="38.4" width="0.5" height="0.9"/>
<rect x="18.2" y="39.3" width="0.5" height="1.6"/>
<rect x="17.7" y="37.5" width="0.5" height="3.4"/>
<path d="M17.7,35.4l-0.5,0.3v2.1l0.5-0.4V35.4z"/>
<path d="M17.7,37.5l-0.8,0.1v2.5l0.8,0.8V37.5z"/>
<rect x="18.7" y="38.4" width="0.2" height="0.9"/>
<path d="M17.7,35.4L18,35l0.7-0.2l-1,2.3V35.4z"/>
<path d="M18,35v-0.4l-0.8,0.5v0.6l0.5-0.3L18,35z"/>
<path d="M18,35v-0.9l0.7-0.7v1.4L18,35z"/>
<rect x="18.2" y="37.5" width="1.1" height="0.9"/>
<path d="M19.3,37.5h-1.1l1.1,0.9V37.5z"/>
<path d="M18.5,36.7l0.8,0.3v0.5h-1.1L18.5,36.7z"/>
<path d="M18.7,40.9v-1.6h0.5l-0.1,1.6H18.7z"/>
<path d="M18.7,33.4l2.8-6.8v0.9h0.1l-3,7.1v-1.2H18.7z"/>
<path d="M19.9,30.8L19,32.9v0.5l0.9-2.1V30.8z"/>
<path d="M21.2,27.8l-0.9,2.1v0.5l0.9-2.1V27.8z"/>
<path d="M57.7,27.8l0.6-0.2l4,9.5v0.4h-0.5L57.7,27.8z"/>
<rect x="59.9" y="38.4" width="1" height="0.9"/>
<rect x="61.2" y="38.4" width="0.5" height="0.9"/>
<rect x="61.2" y="39.3" width="0.5" height="1.6"/>
<rect x="61.7" y="37.5" width="0.5" height="3.4"/>
<path d="M62.2,35.4l0.5,0.3v2.1l-0.5-0.4V35.4z"/>
<path d="M62.2,37.5l0.8,0.1v2.5l-0.8,0.8V37.5z"/>
<rect x="61" y="38.4" width="0.2" height="0.9"/>
<path d="M62.2,35.4L62,35l-0.7-0.2l1,2.3L62.2,35.4z"/>
<path d="M62,35v-0.4l0.8,0.5v0.6l-0.5-0.3L62,35z"/>
<path d="M62,35v-0.9l-0.7-0.7v1.4L62,35z"/>
<rect x="60.6" y="37.5" width="1.1" height="0.9"/>
<path d="M60.6,37.5h1.1l-1.1,0.9V37.5z"/>
<path d="M61.4,36.7L60.6,37v0.5h1.1L61.4,36.7z"/>
<path d="M61.2,40.9v-1.6h-0.5l0.1,1.6H61.2z"/>
<path d="M61.2,33.4l-2.8-6.8v0.9h-0.1l3,7.1L61.2,33.4L61.2,33.4z"/>
<path d="M60,30.8l0.9,2.1v0.5L60,31.3V30.8z"/>
<path d="M58.7,27.8l0.9,2.1v0.5l-0.9-2.1V27.8z"/>
</g>
<g id="Main_Macrobinoculars_Brow_Recon" style="fill: rgb(68, 68, 68);">
<rect x="25.6" y="17.1" width="28.8" height="1.2"/>
<path d="M30.1,24.3v-1.8l1.3-1.4v1.8L30.1,24.3z"/>
<path d="M30.1,22.5v1.8h-6.4l0.8-1.8H30.1z"/>
<g>
<rect x="24.8" y="22.8" width="0.8" height="0.6"/>
<rect x="24.8" y="23.4" width="0.8" height="0.7"/>
</g>
<g>
<rect x="26.1" y="22.8" width="0.8" height="0.6"/>
<rect x="26.1" y="23.4" width="0.8" height="0.7"/>
</g>
<g>
<rect x="27.4" y="22.8" width="0.8" height="0.6"/>
<rect x="27.4" y="23.4" width="0.8" height="0.7"/>
</g>
<g>
<rect x="28.7" y="22.8" width="0.8" height="0.6"/>
<rect x="28.7" y="23.4" width="0.8" height="0.7"/>
</g>
<path d="M29.1,24.3l-3.5,3.1h-1.9v-3.1H29.1z"/>
<path d="M24.8,27.4l-1,0.9l-2.2-0.7l1.5-3.3h0.6v3.1H24.8z"/>
<path d="M21.5,27.6v-2.3l4.1-8v1.2l-1.2,4.2l-0.8,1.8H23L21.5,27.6z"/>
<path d="M21.7,24.7v1.9l3.6-8.1v-0.8L21.7,24.7z"/>
<path d="M22.5,23.2l1.3-4.7l1.1,0.3c0,0,0,1.3-0.3,2.5c-0.2,0.7-0.9,2.1-0.9,2.1L22.5,23.2z"/>
<path d="M23.8,18.6c0.2,0.1,0.1,1.1-0.3,2.4s-0.8,2.3-1,2.2c-0.2-0.1-0.1-1.1,0.3-2.4 C23.1,19.5,23.6,18.5,23.8,18.6z"/>
<path d="M23.5,19.4c0.1,0,0,0.7-0.2,1.5c-0.2,0.8-0.5,1.4-0.6,1.4c-0.1,0,0-0.7,0.2-1.5 C23.1,20,23.4,19.4,23.5,19.4z"/>
<path d="M23.9,18.9l1,0.3"/>
<path d="M23.9,19.3l1,0.3"/>
<path d="M23.9,19.6l1,0.3"/>
<path d="M23.8,19.9l1,0.3"/>
<path d="M23.7,20.2l1.1,0.2"/>
<path d="M23.6,20.6l1.1,0.3"/>
<path d="M23.6,20.8l1.1,0.3"/>
<path d="M23.5,21.3l1.1,0.3"/>
<path d="M23.4,21.5l1.1,0.3"/>
<path d="M23.2,21.9l1,0.3"/>
<path d="M23.2,22.2l1,0.3"/>
<path d="M23,22.5l1,0.3"/>
<path d="M23,22.6l1,0.3"/>
<path d="M22.8,22.9l1,0.3"/>
<path d="M22.7,23.1l1,0.3"/>
<path d="M49.9,24.3v-1.8l-1.3-1.4v1.8L49.9,24.3z"/>
<path d="M49.9,22.5v1.8h6.4l-0.8-1.8H49.9z"/>
<path d="M50.9,24.3l3.5,3.1h1.9v-3.1H50.9z"/>
<path d="M55.2,27.4l1,0.9l2.2-0.7l-1.5-3.3h-0.6v3.1H55.2z"/>
<path d="M58.4,27.6v-2.3l-4.1-8v1.2l1.2,4.2l0.8,1.8h0.6L58.4,27.6z"/>
<path d="M58.2,24.7v1.9l-1.3-2.9h-0.6l-0.6-1.4l-1.1-3.8v-0.8L58.2,24.7z"/>
<path d="M25.6,18.3h28.8l1.2,4.2H50l-1.3-1.4H31.3L30,22.5h-5.6L25.6,18.3z"/>
<path d="M31.3,21.1h17.3v1.8l-0.4-0.4H31.8l-0.4,0.4L31.3,21.1z"/>
<path d="M55,23.1h-4.4v0.6h4.7L55,23.1z"/>
<path d="M55.3,19.5l0.2,0.5v0.5L55.3,20V19.5z"/>
<path d="M55.7,20.2l0.2,0.5v0.5l-0.2-0.6V20.2z"/>
<path d="M56,21l0.2,0.5V22L56,21.5V21z"/>
<path d="M56.4,21.8l0.2,0.5v0.5l-0.2-0.6V21.8z"/>
<rect x="51.5" y="16.5" width="2.6" height="0.6"/>
<path d="M51.5,16.7l-0.3,0.2v0.3h0.3V16.7z"/>
<path d="M54,16.7l0.3,0.2v0.3H54V16.7z"/>
</g>
<path id="Visor_Macrobinoculars_Brow_Recon" d="M53.6,17.4c0.1,0,0.1,0,0.2,0.1c0.1,0.1,0.1,0.1,0.1,0.2v0.1 c0,0.1,0,0.1-0.1,0.2H26.3c-0.1,0-0.1,0-0.2-0.1S26,17.8,26,17.7v-0.1c0-0.1,0-0.1,0.1-0.2s0.1-0.1,0.2-0.1h27.3V17.4z" style="fill: rgb(255, 214, 0);"/>
</g>
</g>
</svg>
<g id="Shoulders">
<g id="Left-Shoulder">
<g id="Legacy-x2_Shoulder_Left" class="option" style="display: inherit;">
<path id="Plate-2_Shoulder_Left_Legacy-x2" d="M115.3,14.9l-5.8,8.7l5.9,8.3l9.3-2.3l5.9,3.6L135,32L115.3,14.9" style="fill: rgb(159, 33, 33);"/>
<path id="Trauma-Plate-2_Shoulder_Legacy-x2_Left" class="toggle" style="fill: rgb(0, 0, 0);" d="M130.9,31.4l2.8-0.7l-17-14.9l-5.2,7.7l4.6,6.4 l8.6-2.2L130.9,31.4"/>
<path id="Plate-1_Shoulder_Left_Legacy-x2" d="M108.2,10.4l-2.6,10.1l8.3,5.9l8.1-5.2l6.7,1.5l3.8-2.5L108.2,10.4" style="fill: rgb(140, 25, 25);"/>
<path id="Trauma-Plate-1_Shoulder_Legacy-x2_Left" class="toggle" style="fill: rgb(0, 0, 0);" d="M128.3,20.9l2.4-1.6l-21-8.5l-2.3,9l6.4,4.6l7.4-4.9 L128.3,20.9"/>
</g>
</g>
<g id="Right-Shoulder">
<g id="Legacy-x3_Shoulder_Right" class="option" style="display: inherit;">
<path id="Plate-3_Shoulder_Right_Legacy-x3" d="M49.7,19.5L57,27l-4.2,9.2l-9.6-0.5l-5.1,4.7l-4.5-0.3L49.7,19.5" style="fill: rgb(146, 37, 186);"/>
<path id="Trauma-Plate-3_Shoulder_Legacy-x3_Right" class="toggle" style="fill: rgb(0, 0, 0);" d="M37.5,38.6l-2.9-0.2l14-17.8l6.5,6.7l-3.3,7.2 L43,33.9L37.5,38.6"/>
<path id="Plate-2_Shoulder_Right_Legacy-x3" d="M53.7,14.9l5.8,8.7l-5.9,8.3l-9.3-2.3l-6,3.6L33.9,32L53.7,14.9" style="fill: rgb(122, 30, 172);"/>
<path id="Trauma-Plate-2_Shoulder_Legacy-x3_Right" class="toggle" style="fill: rgb(0, 0, 0);" d="M38.1,31.4l-2.8-0.7l17-14.9l5.2,7.7l-4.6,6.4 l-8.6-2.2L38.1,31.4"/>
<path id="Plate-1_Shoulder_Right_Legacy-x3" d="M60.8,10.4l2.6,10.1l-8.3,5.9L47,21.2l-6.7,1.5l-3.8-2.5L60.8,10.4" style="fill: rgb(126, 39, 161);"/>
<path id="Trauma-Plate-1_Shoulder_Legacy-x3_Right" class="toggle" style="fill: rgb(0, 0, 0);" d="M40.6,20.9l-2.4-1.6l21-8.5l2.3,9L55,24.4l-7.4-4.9 L40.6,20.9"/>
</g>
</g>
</g>
<g id="Gauntlets">
<g id="Left-Gauntlets">
<g id="Heavy_Gauntlet_Left" class="option" style="display: inherit;">
<g id="Top-2_Heavy_Gauntlet_Left" style="fill: rgb(0, 0, 0);">
<path d="M139.8,78.9l1.7,0.1l1.4,8.1l-1.5,1.2L139.8,78.9"/>
<path d="M141.4,87.6l1.8,10.6l-0.9,1.3l1.1,6.2L143,106l-3.1-17L141.4,87.6"/>
<path d="M141.4,84.6c0.2,0,0.4,0.2,0.4,0.4s-0.2,0.4-0.4,0.4c-0.2,0-0.4-0.2-0.4-0.4S141.2,84.6,141.4,84.6"/>
</g>
<g id="Top-1_Heavy_Gauntlet_Left" style="fill: rgb(71, 71, 71);">
<path d="M138.5,107.2l4.3-1.2l-3.1-17l1.5-1.4l-1.6-9.3l-6.6-0.7L138.5,107.2"/>
<path d="M138,78.2l1.8,10.8"/>
</g>
<g id="Accent-Top_Heavy_Gauntlet_Left" style="fill: rgb(132, 28, 28);">
<path d="M141.6,103.4l-2.8,0.6l0.4,2.1l2.8-0.7L141.6,103.4"/>
<path d="M139.9,94.4l-2.8,0.6l1.6,8.4l2.8-0.6L139.9,94.4"/>
<path d="M137.4,78.8l-3.1-0.2l1.6,9.2l2.9-0.6L137.4,78.8"/>
</g>
<path id="Bottom_Heavy_Gauntlet_Left" d="M133.2,78.1c-3.4,0.1-6.8,1.6-9,4.4c-0.7,0.9-0.9,2.1-0.6,3.2 c1.6,5.3,7,22.8,7,22.8l7.9-1.4L133.2,78.1" style="fill: rgb(44, 44, 44);"/>
<g id="Accent-Bottom_Heavy_Gauntlet_Left" style="fill: rgb(126, 31, 31);">
<path d="M138.5,107.2l-7.9,1.4l-0.4-1.4l8.1-1.5L138.5,107.2"/>
<path d="M133.6,80.1c-4.3,0.4-7.9,2-9.6,6.7l-0.3-1c-0.3-0.9-0.2-1.8,0.2-2.6l0.4-0.7c2.2-2.8,5.6-4.2,9-4.4 L133.6,80.1"/>
<path d="M132.5,78.8l-3.5,0.7l2.8,13.9l3.5-0.7L132.5,78.8"/>
<path d="M132.1,79.1l-2.6,0.5l2.5,12.8l2.6-0.5L132.1,79.1"/>
<path d="M129.5,79.6l-0.5-0.2"/>
<path d="M132.5,78.8l-0.4,0.3"/>
<path d="M135.2,92.7l-0.6-0.7"/>
<path d="M131.7,93.4l0.4-0.9"/>
</g>
<g id="No-Device_Attachment_Heavy_Gauntlet_Left" class="option" style="display: inherit;">
</g>
</g>
</g>
<g id="Right-Gauntlets">
<g id="Heavy_Gauntlet_Right" class="option" style="display: inherit;">
<g id="Top-2_Heavy_Gauntlet_Right" style="fill: rgb(0, 0, 0);">
<path d="M29.3,78.9L27.6,79l-1.4,8.1l1.5,1.2L29.3,78.9"/>
<path d="M27.8,87.6L26,98.2l0.9,1.3l-1.1,6.2l0.4,0.3l3.1-17L27.8,87.6"/>
<path d="M27.7,84.6c-0.2,0-0.4,0.2-0.4,0.4s0.2,0.4,0.4,0.4c0.2,0,0.4-0.2,0.4-0.4S28,84.6,27.7,84.6"/>
</g>
<g id="Top-1_Heavy_Gauntlet_Right" style="fill: rgb(71, 71, 71);">
<path d="M30.6,107.2l-4.3-1.2l3.1-17l-1.5-1.4l1.6-9.3l6.6-0.7L30.6,107.2"/>
<path d="M31.1,78.2L29.3,89"/>
</g>
<g id="Accent-Top_Heavy_Gauntlet_Right" style="fill: rgb(132, 28, 28);">
<path d="M27.5,103.4l2.8,0.6l-0.4,2.1l-2.8-0.7L27.5,103.4"/>
<path d="M29.2,94.4L32,95l-1.6,8.4l-2.8-0.6L29.2,94.4"/>
<path d="M31.7,78.8l3.1-0.2l-1.6,9.2l-2.9-0.6L31.7,78.8"/>
</g>
<path id="Bottom_Heavy_Gauntlet_Right" d="M35.9,78.1c3.3,0.1,6.8,1.6,9,4.4c0.7,0.9,0.9,2.1,0.6,3.2 c-1.6,5.3-7,22.8-7,22.8l-7.9-1.4L35.9,78.1" style="fill: rgb(44, 44, 44);"/>
<g id="Accent-Bottom_Heavy_Gauntlet_Right" style="fill: rgb(126, 31, 31);">
<path d="M30.6,107.2l7.9,1.4l0.4-1.4l-8.1-1.5L30.6,107.2"/>
<path d="M35.5,80.1c4.3,0.4,7.9,2,9.6,6.7l0.3-1c0.3-0.9,0.2-1.8-0.2-2.6l-0.4-0.7c-2.2-2.8-5.6-4.2-9-4.4 L35.5,80.1"/>
<path d="M36.6,78.8l3.5,0.7l-2.8,13.9l-3.5-0.7L36.6,78.8"/>
<path d="M37.1,79.1l2.6,0.5l-2.5,12.8l-2.6-0.5L37.1,79.1"/>
<path d="M39.6,79.6l0.5-0.2"/>
<path d="M36.6,78.8l0.4,0.3"/>
<path d="M33.9,92.7l0.6-0.7"/>
<path d="M37.4,93.4L37,92.5"/>
</g>
<g id="No-Device_Attachment_Heavy_Gauntlet_Right" class="option" style="display: inherit;">
</g>
</g>
</g>
</g>
<g id="Shins">
<g id="Left-Shin">
<g id="Legacy_Shin_Left" class="option" style="display: inherit;">
<path id="Plate-3_Legacy-Shin_Left" d="M105.6,197.1l4.1,15.4c0,0,4.9,1,7.5,0.7c2.6-0.3,6.2-1.7,6.2-1.7l-1.5-16.5 l-7,4.4L105.6,197.1" style="fill: rgb(127, 23, 23);"/>
<path id="Plate-2_Legacy-Shin_Left" d="M102.5,187.6l2.4,9.3l9.9,2.3l7.7-4.8l-0.8-9.4l-8.6,4.4L102.5,187.6" style="fill: rgb(126, 20, 20);"/>
<path id="Plate-1_Legacy-Shin_Left" d="M106.1,174.5l-5.9,6.5l1.7,6.5l11.2,2l9.2-4.7l-0.6-8l-7.2-3.5L106.1,174.5" style="fill: rgb(141, 34, 34);"/>
<path id="Trauma-Plate-3_Legacy-Shin_Left" class="toggle" style="fill: rgb(54, 54, 54);" d="M120.4,197.8l-4.7,2.9c-0.4,0.2-0.8,0.3-1.3,0.2l-6.5-1.5 L111,211c1.5,0.3,4.2,0.6,6,0.4c1.5-0.2,3.4-0.8,4.6-1.2L120.4,197.8"/>
<path id="Trauma-Plate-2_Legacy-Shin_Left" class="toggle" style="fill: rgb(46, 46, 46);" d="M120.2,187.7l-6.4,3.3c-0.3,0.2-0.7,0.2-1.1,0.2l-8-1.4 l1.5,5.8l8.2,1.9l6.2-3.8L120.2,187.7"/>
<path id="Trauma-Plate-1_Legacy-Shin_Left" class="toggle" style="fill: rgb(56, 56, 56);" d="M107,176.1l-4.9,5.4l1.2,4.5l9.6,1.7l7.7-4l-0.5-5.9 l-5.9-2.8L107,176.1"/>
<g id="Ridge_Legacy-Shin_Left" class="toggle" style="fill: rgb(71, 21, 21);">
<path d="M114.9,213.2h0.6h-0.9H114.9"/>
<path d="M116.1,188l1.1,9.8l-2.5,1.5l-3.6-0.8l-2-9.6l3.9,0.7L116.1,188"/>
<path d="M117.3,197.8l1.8,15c-1.1,0.2-2.4,0.4-3.5,0.4h-1.1l-3.1-14.7l3.6,0.8L117.3,197.8"/>
<path d="M106.1,174.6l4-1.7l4.3,0.4v0.1l1.7,14.6l-3.1,1.6l-3.9-0.7L106.1,174.6"/>
<path d="M110.1,172.9l3,16.7"/>
<path d="M113.1,189.6l1.7,9.7"/>
<path d="M114.8,199.3l2.3,13.8"/>
</g>
</g>
</g>
<g id="Right-Shin">
<g id="Legacy_Shin_Right" class="option" style="display: inherit;">
<path id="Plate-3_Legacy-Shin_Right" d="M63.2,197.1l-4.1,15.4c0,0-4.9,1-7.5,0.7c-2.6-0.3-6.2-1.7-6.2-1.7l1.5-16.5 l7,4.4L63.2,197.1" style="fill: rgb(127, 23, 23);"/>
<path id="Plate-2_Legacy-Shin_Right" d="M66.2,187.6l-2.4,9.3l-9.9,2.3l-7.7-4.8L47,185l8.6,4.4L66.2,187.6" style="fill: rgb(126, 20, 20);"/>
<path id="Plate-1_Legacy-Shin_Right" d="M62.7,174.5l5.9,6.5l-1.7,6.5l-11.2,2l-9.2-4.7l0.6-8l7.2-3.5L62.7,174.5" style="fill: rgb(141, 34, 34);"/>
<path id="Trauma-Plate-3_Legacy-Shin_Right" class="toggle" style="fill: rgb(54, 54, 54);" d="M48.4,197.8l4.7,2.9c0.4,0.2,0.8,0.3,1.3,0.2l6.5-1.5 L57.8,211c-1.5,0.3-4.2,0.6-6,0.4c-1.5-0.2-3.4-0.8-4.6-1.2L48.4,197.8"/>
<path id="Trauma-Plate-2_Legacy-Shin_Right" class="toggle" style="fill: rgb(46, 46, 46);" d="M48.6,187.7L55,191c0.3,0.2,0.7,0.2,1.1,0.2l8-1.4 l-1.5,5.8l-8.2,1.9l-6.2-3.8L48.6,187.7"/>
<path id="Trauma-Plate-1_Legacy-Shin_Right" class="toggle" style="fill: rgb(56, 56, 56);" d="M61.8,176.1l4.9,5.4l-1.2,4.5l-9.6,1.7l-7.7-4l0.5-5.9 l5.9-2.8L61.8,176.1"/>
<g id="Ridge_Legacy-Shin_Right" class="toggle" style="fill: rgb(71, 21, 21);">
<path d="M53.9,213.2h-0.6h0.9H53.9"/>
<path d="M52.6,188l-1.1,9.8l2.5,1.5l3.6-0.8l2-9.6l-3.9,0.7L52.6,188"/>
<path d="M51.5,197.8l-1.8,15c1.1,0.2,2.4,0.4,3.5,0.4h1.1l3.1-14.7l-3.6,0.8L51.5,197.8"/>
<path d="M62.6,174.6l-4-1.7l-4.3,0.4v0.1L52.6,188l3.1,1.6l3.9-0.7L62.6,174.6"/>
<path d="M58.7,172.9l-3,16.7"/>
<path d="M55.7,189.6l-1.7,9.7"/>
<path d="M54,199.3l-2.3,13.8"/>
</g>
</g>
</g>
</g>
<g id="Foot">
<g id="Left-Ankle">
<g id="Heavy_Ankle_Left" class="option" style="display: inherit;">
<path id="Plate_Heavy-Ankle_Left" d="M106.5,218.5l0.4,3.6l7.4,9.3l7.2-3.2l7.8-2l-5.9-10.5c-3-0.4-6.5-0.1-10.5,1.2 l-2.2,2L106.5,218.5" style="fill: rgb(41, 41, 41);"/>
<path id="Trim_Heavy-Ankle_Left" d="M112.9,216.7l0.8,1l-2.6,2.2l-3-0.1l0.1,1.5l6.4,7.9l6.4-3l7.7-1.8l0.8,1.6 l-8.1,2.1l-7.2,3.2l-7.4-9.3l-0.4-3.6l4.1,0.2L112.9,216.7" style="fill: rgb(152, 35, 35);"/>
</g>
</g>
<g id="Left-Toe">
<g id="None_Toe_Left" class="option" style="display: inherit;">
</g>
</g>
<g id="Right-Ankle">
<g id="Heavy_Ankle_Right" class="option" style="display: inherit;">
<path id="Plate_Heavy-Ankle_Right" d="M62.3,218.5l-0.4,3.6l-7.4,9.3l-7.2-3.2l-7.8-2l5.9-10.5 c3-0.4,6.5-0.1,10.5,1.2l2.2,2L62.3,218.5" style="fill: rgb(41, 41, 41);"/>
<path id="Trim_Heavy-Ankle_Right" d="M55.9,216.7l-0.8,1l2.6,2.2l3-0.1l-0.1,1.5l-6.4,7.9l-6.4-3l-7.7-1.8l-0.8,1.6 l8.1,2.1l7.2,3.2L62,222l0.4-3.6l-4.1,0.2L55.9,216.7" style="fill: rgb(152, 35, 35);"/>
</g>
</g>
<g id="Right-Toe">
<g id="None_Toe_Right" class="option" style="display: inherit;">
</g>
</g>
</g>
<g id="Knees">
<g id="Left-Knee">
<g id="Legacy_Knee_Left" class="option" style="display: inherit;">
<g id="Missiles_Legacy-Knee_Left" class="toggle" style="display:none"/>
<path id="Plate-2_Legacy-Knee_Left" d="M116.5,162.4l-4-2.8l-8.9,1.4l-3.5,3.9l2.9,9.6h7.1l6.7-2.1L116.5,162.4z" style="fill: rgb(49, 49, 49);"/>
<path id="Plate-1_Legacy-Knee_Left" d="M117.9,155.9l-5.1-3.6l-11.4,1.8l-4.4,5.1l3.7,12.3l9.3-0.1l8.3-2.6 L117.9,155.9z" style="fill: rgb(124, 35, 35);"/>
</g>
</g>
<g id="Right-Knee">
<g id="Legacy_Knee_Right" class="option" style="display: inherit;">
<g id="Missiles_Legacy-Knee_Right" class="toggle" style="display:none"/>
<path id="Plate-2_Legacy-Knee_Right" d="M52.2,162.4l4-2.8l8.9,1.4l3.5,3.9l-2.9,9.6h-7.1l-6.7-2.1L52.2,162.4z" style="fill: rgb(49, 49, 49);"/>
<path id="Plate-1_Legacy-Knee_Right" d="M50.9,155.9l5.1-3.6l11.4,1.8l4.4,5.1l-3.7,12.3l-9.3-0.1l-8.3-2.6 L50.9,155.9z" style="fill: rgb(124, 35, 35);"/>
</g>
</g>
</g>
<g id="Thighs">
<g id="Left-Thigh">
<g id="Heavy_Thigh_Left" class="option" style="display: inherit;">
<g id="Thigh_Heavy-Thigh_Left" style="fill: rgb(55, 55, 55);">
<path d="M97,117.7l-5.7,7.3l6.6,26.2l4.5,1.6l-3.1-29.9L97,117.7"/>
<path d="M111.6,116.1l7.1,6l-1,27l-4,2.5l-3.1-29.9L111.6,116.1"/>
<path d="M111.6,116.1L97,117.7l2.2,5.2l11.4-1.2L111.6,116.1"/>
<path d="M110.6,121.7l-11.4,1.2l3.1,29.9l11.4-1.2L110.6,121.7"/>
</g>
<g id="Trim_Heavy-Thigh_Left" style="fill: rgb(137, 28, 28);">
<path d="M112.2,113.8l-16.3,1.7l1,2.1l14.7-1.5L112.2,113.8"/>
<path d="M118.5,119.6l-6.3-5.7l-0.6,2.3l7.1,6L118.5,119.6"/>
<path d="M91,122.4l5-6.9l1,2.1l-5.7,7.3L91,122.4"/>
</g>
</g>
</g>
<g id="Right-Thigh">
<g id="Heavy_Thigh_Right" class="option" style="display: inherit;">
<g id="Thigh_Heavy-Thigh_Right" style="fill: rgb(55, 55, 55);">
<path d="M71.8,117.7l5.7,7.3L71,151.2l-4.5,1.6l3.1-29.9L71.8,117.7"/>
<path d="M57.1,116.1l-7.1,6l1,27l4,2.5l3.1-29.9L57.1,116.1"/>
<path d="M57.1,116.1l14.7,1.5l-2.2,5.2l-11.4-1.2L57.1,116.1"/>
<path d="M58.2,121.7l11.4,1.2l-3.1,29.9l-11.4-1.2L58.2,121.7"/>
</g>
<g id="Trim_Heavy-Thigh_Right" style="fill: rgb(137, 28, 28);">
<path d="M56.6,113.8l16.3,1.7l-1,2.1l-14.7-1.5L56.6,113.8"/>
<path d="M50.3,119.6l6.3-5.7l0.6,2.3l-7.1,6L50.3,119.6"/>
<path d="M77.8,122.4l-5-6.9l-1,2.1l5.7,7.3L77.8,122.4"/>
</g>
</g>
</g>
</g>
<g id="Groin">
<g id="Basic_Groin" class="option" style="display: inherit;">
<path id="Groin-Plate_Groin" d="M78.1,121.8L67.7,98.9H101l-10.4,22.9l-6.2,5.5L78.1,121.8z" style="fill: rgb(137, 28, 28);"/>
<path id="Trauma-Plating_Groin" class="toggle" style="fill: rgb(39, 39, 39);" d="M79.2,119.9L70.6,101H98l-8.6,18.9l-5.1,4.5L79.2,119.9z"/>
</g>
</g>
<g id="Waist">
<g id="Accessories_Waist">
<g id="Kama" class="toggle" style="">
<g id="Clean_Kama" class="option" style="display: inherit;">
<g id="Trim_Kama-Clean" style="fill: rgb(129, 28, 28);">
<path d="M100.7,83.2l3.6,57.2l26.3,17.5l-19.9-77.3L100.7,83.2z"/>
<path d="M68.1,83.2l-3.6,57.2l-26.3,17.5l19.9-77.3L68.1,83.2z"/>
</g>
<g id="Main_Kama-Clean" style="fill: rgb(0, 0, 0);">
<path d="M102.6,83l3.5,55.3l23.7,16.3l-19.1-74.2L102.6,83z"/>
<path d="M66.2,83l-3.5,55.3L39,154.6l19.1-74.2L66.2,83z"/>
</g>
</g>
</g>
<g id="Loin-Cloth" class="toggle" style="display:none"/>
<g id="Left-Holster" class="toggle" style="">
<g id="Belt-Holster_Left" class="option" style="display: inherit;">
<g id="Weapon_Belt-Holster-Left">
<g id="Main_Weapon_Belt-Holster-Left" style="fill: rgb(77, 77, 77);">
<path d="M116,98.7l-0.2-3.6h0.6l-0.2-2.3h-0.6l-0.1-1.2c0-0.4,0.5-0.7,1.1-0.8c1.4-0.1,3.9-0.3,5.3-0.4 c0.6,0,1.2,0.2,1.2,0.6l0.1,1.2h-0.6l0.2,2.3h0.6l0.2,3.6l-1.5,0.1l0.7,9.9l-4.7,0.3l-0.7-9.9L116,98.7z"/>
<path d="M123,97.7l-0.8,0.1l0.8,12l-4.7,0.3l-0.8-12l-0.8,0.1l-0.2-2.7l6.4-0.4L123,97.7z"/>
<path d="M121.3,91.3l-3.8,0.3l0.2,3.7l3.8-0.3L121.3,91.3z"/>
<path d="M118.6,99H118l0.6,9.4h0.6L118.6,99z"/>
<path d="M120,96.8h-0.6l0.6,9.4h0.6L120,96.8z"/>
<path d="M121.8,98.8h-0.6l0.6,9.4h0.6L121.8,98.8z"/>
</g>
<g id="Accent_Weapon_Belt-Holster-Left" style="fill: rgb(0, 0, 0);">
<path d="M118.3,95.6V96l2.7-0.2v-0.4L118.3,95.6z"/>
<path d="M118.3,96v0.4l2.7-0.2v-0.4L118.3,96z"/>
<path d="M118.3,95.2v0.4l2.7-0.2V95L118.3,95.2z"/>
<path d="M118,90.6V91l2.7-0.2v-0.4L118,90.6z"/>
<path d="M118.1,91.6h-0.6l0.2,3.7h0.6L118.1,91.6z"/>
<path d="M121.3,91.3h-0.6l0.2,3.7h0.6L121.3,91.3z"/>
<path d="M121.1,98.9l-0.9,0.1l0.6,9.4l0.9-0.1L121.1,98.9z"/>
<path d="M119.5,99l-0.9,0.1l0.6,9.4l0.9-0.1L119.5,99z"/>
</g>
</g>
<path id="Holster_Belt-Holster-Left" d="M117.6,112.4l-2.5-15l8.2,10.6l0.8,20.7c-1.4,1.9-3,2.1-4.8,0.4 L117.6,112.4z" style="fill: rgb(111, 69, 33);"/>
</g>
</g>
<g id="Right-Holster" class="toggle" style="">
<g id="Belt-Holster_Right" class="option" style="display: inherit;">
<g id="Weapon_Belt-Holster-Right">
<g id="Main_Weapon_Belt-Holster-Right" style="fill: rgb(77, 77, 77);">
<path d="M52.7,98.7l0.2-3.6h-0.6l0.2-2.3h0.6l0.1-1.2c0-0.4-0.5-0.7-1.1-0.8c-1.4-0.1-3.9-0.3-5.3-0.4 c-0.6,0-1.2,0.2-1.2,0.6l-0.1,1.2h0.6l-0.2,2.3h-0.6l-0.2,3.6l1.5,0.1l-0.7,9.9l4.7,0.3l0.7-9.9L52.7,98.7z"/>
<path d="M45.8,97.7l0.8,0.1l-0.8,12l4.7,0.3l0.8-12l0.8,0.1l0.2-2.7l-6.4-0.4L45.8,97.7z"/>
<path d="M47.5,91.3l3.8,0.3l-0.2,3.7L47.3,95L47.5,91.3z"/>
<path d="M50.2,99h0.6l-0.6,9.4h-0.6L50.2,99z"/>
<path d="M48.7,96.8h0.6l-0.6,9.4h-0.6L48.7,96.8z"/>
<path d="M47,98.8h0.6l-0.6,9.4h-0.6L47,98.8z"/>
</g>
<g id="Accent_Weapon_Belt-Holster-Right" style="fill: rgb(0, 0, 0);">
<path d="M50.5,95.6V96l-2.7-0.2v-0.4L50.5,95.6z"/>
<path d="M50.4,96v0.4l-2.7-0.2v-0.4L50.4,96z"/>
<path d="M50.5,95.2v0.4l-2.7-0.2V95L50.5,95.2z"/>
<path d="M50.8,90.6V91l-2.7-0.2v-0.4L50.8,90.6z"/>
<path d="M50.7,91.6h0.6l-0.2,3.7h-0.6L50.7,91.6z"/>
<path d="M47.5,91.3h0.6L47.9,95h-0.6L47.5,91.3z"/>
<path d="M47.6,98.9l0.9,0.1l-0.6,9.4l-0.9-0.1L47.6,98.9z"/>
<path d="M49.2,99l0.9,0.1l-0.6,9.4l-0.9-0.1L49.2,99z"/>
</g>
</g>
<path id="Holster_Belt-Holster-Right" d="M51.1,112.4l2.5-15L45.4,108l-0.8,20.7c1.4,1.9,3,2.1,4.8,0.4L51.1,112.4z " style="fill: rgb(111, 69, 33);"/>
</g>
</g>
</g>
<g id="Under-Belt">
<g id="Girth-Belt" class="option" style="fill: rgb(88, 30, 30); display: inherit;">
<path d="M84.4,84.5c-9.3,0-27.8-2.2-27.8-2.2l0.6-1.9c0,0,18.1,1.5,27.2,2.2c9.1-0.8,27.2-2.2,27.2-2.2l0.6,1.9 C112.2,82.2,93.6,84.5,84.4,84.5z"/>
<path d="M84.4,86.4c-9.5,0-28.4-2.2-28.4-2.2l0.6-1.9c0,0,23.2,1.9,27.8,2.2c4.6-0.4,27.8-2.2,27.8-2.2l0.6,1.9 C112.7,84.1,93.8,86.4,84.4,86.4z"/>
<path d="M84.4,88.3c-9.6,0-28.8-2.2-28.8-2.2l0.4-1.9c0,0,23.7,1.9,28.4,2.2c4.7-0.4,28.4-2.2,28.4-2.2l0.4,1.9 C113.2,86.1,94,88.3,84.4,88.3z"/>
<path d="M84.4,90.2c-9.7,0-29.2-2.2-29.2-2.2l0.4-1.9c0,0,24,1.9,28.8,2.2c4.8-0.4,28.8-2.2,28.8-2.2l0.4,1.9 C113.5,88,94.1,90.2,84.4,90.2z"/>
<path d="M84.4,92.1c-9.8,0-29.5-2.2-29.5-2.2l0.3-1.9c0,0,24.3,1.9,29.2,2.2c4.9-0.4,29.2-2.2,29.2-2.2l0.3,1.9 C113.9,89.9,94.2,92.1,84.4,92.1z"/>
<path d="M84.4,94c-9.9,0-29.8-2.2-29.8-2.2l0.3-1.9c0,0,24.6,1.9,29.5,2.2c4.9-0.4,29.5-2.2,29.5-2.2l0.3,1.9 C114.2,91.8,94.3,94,84.4,94z"/>
<path d="M84.4,95.9c-10,0-30.1-2.2-30.1-2.2l0.3-1.9c0,0,24.8,1.9,29.8,2.2c5-0.4,29.8-2.2,29.8-2.2l0.3,1.9 C114.5,93.7,94.4,95.9,84.4,95.9z"/>
<path d="M84.4,97.8c-10.1,0-30.4-2.2-30.4-2.2l0.3-1.9c0,0,25.1,1.9,30.1,2.2c5-0.4,30.1-2.2,30.1-2.2l0.3,1.9 C114.8,95.6,94.5,97.8,84.4,97.8z"/>
<path d="M84.4,99.7c-10.3,0-30.8-2.2-30.8-2.2l0.3-1.9c0,0,25.4,1.9,30.4,2.2c5.1-0.4,30.4-2.2,30.4-2.2l0.3,1.9 C115.1,97.5,94.6,99.7,84.4,99.7z"/>
<path d="M84.4,101.6c-10.4,0-31.2-2.2-31.2-2.2l0.4-1.9c0,0,25.6,1.9,30.8,2.2c5.1-0.4,30.8-2.2,30.8-2.2l0.4,1.9 C115.5,99.4,94.8,101.6,84.4,101.6z"/>
</g>
</g>
<g id="Belt">
<g id="Pouch-Belt-6" class="option" style="display: inherit;">
<path id="Main_Pouch-Belt-6" d="M114.5,92.5c-6.8,0.6-22.3,2.8-30.1,2.8c-7.9,0-23.4-2.2-30.1-2.8l1-7.9 c5.5,0.5,21.4,2.7,29.1,2.7c7.4,0,23-2.2,28.9-2.8L114.5,92.5z" style="fill: rgb(0, 0, 0);"/>
<rect id="Buckle_Pouch-Belt-6" x="78.8" y="86.6" width="11.2" height="9.2" style="fill: rgb(114, 21, 21);"/>
<g id="Pouches_Pouch-Belt-6" style="fill: rgb(107, 64, 27);">
<g>
<g>
<g>
<path d="M70.3,84.5c-0.3,0-0.6,0-0.8,0.1c-0.7,0.3-2.1,0.8-2.1,0.8l8,0.5l2.2-0.9C77.6,85,72,84.7,70.3,84.5z"/>
<path d="M77.9,85.3c0-0.1,0-0.2-0.1-0.2c-0.1,0-0.2-0.1-0.2,0c-0.7,0.3-2.1,0.9-2.1,0.9l-1,12.4 c0.7-0.4,1.4-0.7,2.1-0.8c0.4-0.1,0.7-0.4,0.7-0.8C77.4,92.9,77.5,89.1,77.9,85.3z"/>
<path d="M75.4,86l-8-0.5c0,1.9-0.2,3.8-0.3,5.7c-0.1,2.1-0.2,4.2-0.3,6.3c0,0.2,0,0.3,0.1,0.4s0.2,0.2,0.4,0.2 c2.3,0,4.6,0.1,6.9,0.4c0.1,0,0.3,0,0.4-0.1s0.2-0.2,0.2-0.4c0.1-1.5,0.4-5.3,0.4-5.3L75.4,86z"/>
<path d="M75.4,86l-8-0.5c0,0-0.2,1.6-0.4,3.1c-0.1,0.8,0.1,1.5,0.6,2.1c0.5,0.6,1.2,0.9,1.9,1 c0.9,0.1,2,0.1,3,0.2c0.8,0,1.5-0.2,2.1-0.8c0.5-0.5,0.9-1.3,0.9-2C75.4,87.6,75.4,86,75.4,86z"/>
<path d="M71.2,90.3c0.3,0,0.5,0.3,0.5,0.5c0,0.3-0.3,0.5-0.5,0.5c-0.3,0-0.5-0.3-0.5-0.5 C70.6,90.5,70.9,90.3,71.2,90.3z"/>
</g>
</g>
<g>
<g>
<path d="M59.3,83c-0.3,0-0.6,0-0.9,0.2c-0.7,0.3-1.8,0.8-1.8,0.8l7.3,0.4l2-0.9C65.8,83.5,60.8,83.1,59.3,83z"/>
<path d="M66.1,83.8c0-0.1,0-0.2-0.1-0.2c-0.1-0.1-0.2-0.1-0.2,0c-0.7,0.3-1.9,0.9-1.9,0.9l-1,12.4 c0.6-0.4,1.3-0.7,1.9-0.8c0.4-0.1,0.7-0.4,0.7-0.8C65.6,91.3,65.7,87.5,66.1,83.8z"/>
<path d="M63.8,84.4L56.5,84c-0.1,1.9-0.2,3.8-0.3,5.7c-0.1,2.1-0.2,4.2-0.3,6.3c0,0.2,0,0.3,0.1,0.4 s0.2,0.2,0.4,0.2c2.1,0,4.1,0.1,6.2,0.4c0.1,0,0.3,0,0.4-0.1s0.2-0.2,0.2-0.4c0.1-1.5,0.4-5.3,0.4-5.3L63.8,84.4z"/>
<path d="M63.8,84.4L56.5,84c0,0-0.2,1.6-0.4,3.2c-0.1,0.8,0.1,1.5,0.6,2.1c0.5,0.6,1.2,0.9,1.9,1 c0.7,0,1.5,0.1,2.2,0.1c0.8,0,1.5-0.2,2-0.7s0.9-1.2,0.9-2C63.8,86,63.8,84.4,63.8,84.4z"/>
<path d="M59.9,88.8c0.3,0,0.5,0.3,0.4,0.5c0,0.3-0.2,0.5-0.5,0.5s-0.5-0.3-0.4-0.5C59.4,89,59.6,88.8,59.9,88.8z "/>
</g>
</g>
<g>
<path d="M51.9,83.9l0.5-0.9l2.8,0.1l0.3,1.1L51.9,83.9z"/>
<path d="M55.6,84.3c0-0.1,0-0.1-0.1-0.2c0-0.1-0.1-0.1-0.2-0.1c-0.8,0-3.5-0.1-3.5-0.1l-0.5,11.2 c0.1,0.3,1.5,0.5,2.7,0.5c0.5,0,0.9-0.4,0.9-0.9C55,91.2,55.2,87.7,55.6,84.3z"/>
</g>
</g>
<g>
<g>
<g>
<path d="M98.4,84.5c0.3,0,0.6,0,0.8,0.1c0.7,0.3,2.1,0.8,2.1,0.8l-8,0.5L91.1,85C91.2,85,96.8,84.7,98.4,84.5z"/>
<path d="M90.9,85.3c0-0.1,0-0.2,0.1-0.2s0.2-0.1,0.2,0c0.7,0.3,2.1,0.9,2.1,0.9l1,12.4c-0.7-0.4-1.4-0.7-2.1-0.8 c-0.4-0.1-0.7-0.4-0.7-0.8C91.4,92.9,91.3,89.1,90.9,85.3z"/>
<path d="M93.3,86l8-0.5c0.1,1.9,0.2,3.8,0.3,5.7c0.1,2.1,0.2,4.2,0.3,6.3c0,0.2,0,0.3-0.1,0.4 c-0.1,0.1-0.2,0.2-0.4,0.2c-2.3,0-4.6,0.1-6.9,0.4c-0.1,0-0.3,0-0.4-0.1s-0.2-0.2-0.2-0.4c-0.1-1.5-0.4-5.3-0.4-5.3L93.3,86z "/>
<path d="M93.3,86l8-0.5c0,0,0.2,1.6,0.4,3.1c0.1,0.8-0.1,1.5-0.6,2.1c-0.5,0.6-1.2,0.9-1.9,1 c-0.9,0.1-2,0.1-3,0.2c-0.8,0-1.5-0.2-2.1-0.8c-0.6-0.5-0.9-1.3-0.9-2C93.3,87.6,93.3,86,93.3,86z"/>
<path d="M97.6,90.3c-0.3,0-0.5,0.3-0.5,0.5c0,0.3,0.3,0.5,0.5,0.5c0.3,0,0.5-0.3,0.5-0.5 C98.1,90.5,97.9,90.3,97.6,90.3z"/>
</g>
</g>
<g>
<g>
<path d="M109.5,83c0.3,0,0.6,0,0.9,0.2c0.7,0.3,1.8,0.8,1.8,0.8l-7.3,0.4l-2-0.9C103,83.5,107.9,83.1,109.5,83z"/>
<path d="M102.7,83.8c0-0.1,0-0.2,0.1-0.2c0.1,0,0.2-0.1,0.2,0c0.7,0.3,1.9,0.9,1.9,0.9l1,12.4 c-0.6-0.4-1.3-0.7-1.9-0.8c-0.4-0.1-0.7-0.4-0.7-0.8C103.2,91.3,103.1,87.5,102.7,83.8z"/>
<path d="M104.9,84.4l7.3-0.4c0.1,1.9,0.2,3.8,0.3,5.7c0.1,2.1,0.2,4.2,0.3,6.3c0,0.2,0,0.3-0.1,0.4 c-0.1,0.1-0.2,0.2-0.4,0.2c-2.1,0-4.1,0.1-6.2,0.4c-0.1,0-0.3,0-0.4-0.1c-0.1-0.1-0.2-0.2-0.2-0.4c-0.1-1.5-0.4-5.3-0.4-5.3 L104.9,84.4z"/>
<path d="M104.9,84.4l7.3-0.4c0,0,0.2,1.6,0.4,3.2c0.1,0.8-0.1,1.5-0.6,2.1c-0.5,0.6-1.2,0.9-1.9,1 c-0.7,0-1.5,0.1-2.2,0.1c-0.8,0-1.5-0.2-2-0.7s-0.9-1.2-0.9-2C104.9,86,104.9,84.4,104.9,84.4z"/>
<path d="M108.9,88.8c-0.3,0-0.5,0.3-0.4,0.5c0,0.3,0.2,0.5,0.5,0.5s0.5-0.3,0.4-0.5 C109.3,89,109.1,88.8,108.9,88.8z"/>
</g>
</g>
<g>
<path d="M116.9,83.9l-0.5-0.9l-2.8,0.1l-0.3,1.1L116.9,83.9z"/>
<path d="M113.2,84.3c0-0.1,0-0.1,0.1-0.2c0-0.1,0.1-0.1,0.2-0.1c0.8,0,3.5-0.1,3.5-0.1l0.5,11.2 c-0.1,0.3-1.5,0.5-2.7,0.5c-0.5,0-0.9-0.4-0.9-0.9C113.7,91.2,113.6,87.7,113.2,84.3z"/>
</g>
</g>
</g>
</g>
</g>
</g>
<g id="Extras_Front">
<g id="Front">
<g id="None_Front" class="option" style="display: inherit;">
</g>
</g>
</g>
</svg></svg>