<?xml version='1.0' encoding='UTF-8'?>
<svg version="1.1" id="Male-Body" xmlns="http://www.w3.org/2000/svg" xmlns:serif="http://www.serif.com/" viewBox="0 -55 170 300" style="stroke-width: 0.2px; fill-rule: evenodd; stroke-linejoin: round;" width="170" height="300">
<style>
mask {
mask-type: alpha;
}
.decal {
stroke: none;
}
</style>
<defs id="Masks" stroke="none">
<mask id="HelmetsMask"> <use href="#Helmets"/> </mask>
<mask id="CollarMask"> <use href="#Collar"/> </mask>
<mask id="ShouldersMask"> <use href="#Shoulders"/> </mask>
<mask id="ChestMask"> <use href="#Chest"/> </mask>
<mask id="BicepsMask"> <use href="#Biceps"/> </mask>
<mask id="GauntletsMask"> <use href="#Gauntlets"/> </mask>
<mask id="WaistMask"> <use href="#Waist"/> </mask>
<mask id="GroinMask"> <use href="#Groin"/> </mask>
<mask id="ThighsMask"> <use href="#Thighs"/> </mask>
<mask id="KneesMask"> <use href="#Knees"/> </mask>
<mask id="ShinsMask"> <use href="#Shins"/> </mask>
<mask id="FootMask"> <use href="#Foot"/> </mask>
</defs>
<defs id="Decals"/><metadata><rdf:rdf xmlns:rdf="http://www.w3.org/1999/02/22-rdf-syntax-ns#" xmlns:rdfs="http://www.w3.org/2000/01/rdf-schema#" xmlns:dc="http://purl.org/dc/elements/1.1/"><rdf:description><dc:creator>MandoCreator</dc:creator><dc:publisher>https://www.mandocreator.com</dc:publisher><dc:description>Your Beskar'gam - created by MandoCreator</dc:description><dc:format>image/svg+xml</dc:format><dc:type>Image</dc:type><dc:title>MandoCreator - Ner Berskar'gam</dc:title><dc:date>2022-01-02T16:23:55.489Z</dc:date></rdf:description></rdf:rdf></metadata><g id="Main-Body" fill="white" stroke="black">
<g id="Extras_Back">
<g id="Back"><path id="Full-Cape_Back" class="option" d="M68.3,16.3c-11.77,4.4-24.85,25.6-26.46,41.8c-1.01,10.2-6.03,20.5-5.53,30.7 c0.5,10.3-4.73,21-5.13,31.2c-0.3,9.3-3.12,13.5-4.73,22.7c-2.41,13.7-5.03,22.7-7.14,36.5c-1.71,10.9-6.84,19.9-9.25,23.3 c-0.2,0.3,14.99-0.1,18.01-0.5c9.96-1.6,17.5-2.1,27.36,0.3c10.66,2.6,21.23,4.2,32.09,1.8c10.56-2.3,20.42-7.8,31.18-8.8 c8.35-0.8,16.6,1.9,24.65,3.8c2.01,0.5,4.83,1.7,7.04,1.5c0.1,0-0.71-4.9-0.8-5.4c-1.01-5.1-3.42-10-6.24-14.4 c-7.14-11.2-4.63-23.4-5.93-36.6c-1.21-12.8,0.1-25.6-2.11-38.4c-1.91-11.3-8.65-21.8-10.36-33.2c-2.01-13.4-6.54-27.7-10.66-40.7 C109.44,16.1,80.07,11.9,68.3,16.3z" fill="rgb(95, 57, 24)" style="display: inherit;"/></g>
</g>
<g id="Extras-BackDecals" mask="url(#BackMask)">
</g>
<g id="Suit">
<g id="Neck-Seal"><g id="Standard-Neck-Seal" class="option" fill="rgb(117, 67, 24)" style="display: inherit;">
<path d="M98.75,7.5c0-0.9-0.93-1.62-2.07-1.62c0,0-7.8,0.85-11.7,0.85s-11.7-0.85-11.7-0.85 c-1.14,0-2.07,0.73-2.07,1.62s0.93,1.62,2.07,1.62c0,0,7.8,0.85,11.7,0.85s11.7-0.85,11.7-0.85C97.83,9.13,98.75,8.4,98.75,7.5z"/>
<path d="M99.45,9.4c0-0.94-0.97-1.71-2.17-1.71c0,0-8.2,0.9-12.29,0.9S72.69,7.7,72.69,7.7 c-1.2,0-2.17,0.76-2.17,1.71s0.97,1.71,2.17,1.71c0,0,8.2,0.9,12.29,0.9s12.29-0.9,12.29-0.9C98.48,11.11,99.45,10.34,99.45,9.4z "/>
<path d="M100.24,11.76c0-0.99-1.03-1.8-2.29-1.8c0,0-8.64,0.95-12.96,0.95S72.02,9.96,72.02,9.96 c-1.26,0-2.29,0.81-2.29,1.8s1.03,1.8,2.29,1.8c0,0,8.64,0.95,12.97,0.95s12.96-0.95,12.96-0.95 C99.21,13.56,100.24,12.75,100.24,11.76z"/>
<path d="M101,13.92c0-1.04-1.08-1.89-2.41-1.89c0,0-9.08,0.99-13.61,0.99s-13.61-0.99-13.61-0.99 c-1.33,0-2.41,0.85-2.41,1.89c0,1.04,1.08,1.89,2.41,1.89c0,0,9.08,0.99,13.61,0.99s13.61-0.99,13.61-0.99 C99.93,15.81,101,14.96,101,13.92z"/>
<path d="M101.76,16.04c0-0.79-1.13-1.43-2.52-1.43c0,0-9.51,0.75-14.26,0.75s-14.26-0.75-14.26-0.75 c-1.39,0-2.52,0.64-2.52,1.43c0,0.79,1.13,1.43,2.52,1.43c0,0,9.51,0.75,14.26,0.75s14.26-0.75,14.26-0.75 C100.63,17.47,101.76,16.83,101.76,16.04z"/>
<path d="M101.76,18.42c0-0.79-1.13-1.43-2.52-1.43c0,0-9.51,0.75-14.26,0.75s-14.26-0.75-14.26-0.75 c-1.39,0-2.52,0.64-2.52,1.43c0,0.79,1.13,1.43,2.52,1.43c0,0,9.51,1.44,14.26,1.44s14.26-1.44,14.26-1.44 C100.63,19.84,101.76,19.21,101.76,18.42z"/>
</g>
</g>
<g id="Flight-Suit" fill="rgb(0, 0, 0)">
<path d="M73.36,158.45l-1.49,8.72l-11.03,53.11c0,0-4.93,2.96-7.47,3.46c-2.53,0.5-7.73-0.44-7.73-0.44l3.85-43 l2.9-18.36l0.66-7.82c0,0-2.53-22.78-1.7-34.14c0.82-11.36,6.66-34.01,6.66-34.01l26.98,0.58l26.97-0.58 c0,0,5.83,22.66,6.66,34.01c0.83,11.36-1.7,34.14-1.7,34.14l0.66,7.82l2.9,18.36l3.85,43c0,0-5.32,1.19-7.85,0.69 c-2.53-0.5-7.34-3.71-7.34-3.71L98.1,167.16l-1.49-8.72l-11.62-30.33L73.36,158.45z"/>
<g>
<path d="M129.41,43.33l11.98,41.65l1.04,21.47l-9.55,1.83l-6.05-20.21l-13.65-33.95l0.69-15.55l2.31-3.72 L129.41,43.33z"/>
<path d="M40.59,43.3l13.19-8.45l2.31,3.72l0.52,16.04L43.17,88.07l-6.05,20.21l-9.55-1.83l1.03-21.47L40.59,43.3z"/>
</g>
</g>
<g id="Sleeves" class="toggle" fill="rgb(168, 30, 30)">
<g>
<path d="M112.2,56.12l2.68,5.9c0,0,4.24-3.2,7.06-4.8s4.38-2.62,6.92-3.6c2.54-0.98,5.08-1.47,5.08-1.47l-6.07-12.25 l-5.79-9.67l-11.58,5.14L112.2,56.12z"/>
<path d="M113.61,59.24c-0.2-0.24,5.08-4.5,8.61-6.34c3.53-1.84,10.25-3.69,10.25-3.69"/>
</g>
<g>
<path d="M57.8,56.12l-2.68,5.9c0,0-4.24-3.2-7.06-4.8c-2.82-1.59-4.38-2.62-6.92-3.6c-2.54-0.98-5.08-1.47-5.08-1.47 l6.07-12.25l5.79-9.67l11.58,5.14L57.8,56.12z"/>
<path d="M56.39,59.24c0.2-0.24-5.08-4.5-8.61-6.34c-3.53-1.84-10.25-3.69-10.25-3.69"/>
</g>
</g>
</g>
<g id="Boots"><g id="Gunslinger_Boots" class="option" style="display: inherit;">
<g id="Main_Gunslinger-Boot" fill="rgb(59, 59, 59)">
<path d="M107.7,226.61c0.04,0.2,0.73,3.41,4.27,4.29c1.18,0.3,3.21-0.33,4.48-0.98c1.74-0.89,3.57-1.58,5.44-2.12 l0.06,0.08c0.03,0.04,0.06,0.08,0.09,0.12c0.58,0.81,1.21,1.57,1.89,2.26l0.05,0.05l0.03,0.03c0.07,0.07,0.14,0.14,0.21,0.2 c0.4,0.38,0.81,0.74,1.23,1.07l0.12,0.09l0.1,0.07c0.03,0.02,0.06,0.04,0.09,0.06c0.07,0.05,0.13,0.1,0.2,0.14 c0.88,0.62,2.06,1.56,3.23,1.39c1.11-0.16,2.35-0.6,3.28-1.04c0.78-0.37,1.59-0.87,2.13-1.4c0.16-0.12,0.29-0.26,0.39-0.44 c2.57,1,5.36,1.38,6.73,4.22c0.3,0.62,0.55,1.35,0.49,2.04c-0.08,0.89-1.06,1-1.82,1.2c-1.9,0.51-3.53,0.89-5.72,1.34 c-2.5,0.52-4.76,0.83-7.29,0.72c-1.89-0.08-3.49-0.18-5.14-1.19c-0.66-0.41-1.34-0.82-1.92-1.35c-1.28-1.19-2.11-2.43-3.77-3.15 c-1.2-0.52-2.44-0.96-3.71-1.27c-1.8-0.45-3.74-0.76-4.69-2.54C107.42,229.16,107.51,227.91,107.7,226.61L107.7,226.61"/>
<path d="M62.28,226.61c-0.04,0.2-0.73,3.41-4.27,4.29c-1.18,0.3-3.2-0.33-4.48-0.98c-1.74-0.89-3.57-1.58-5.44-2.12 l-0.05,0.08c-0.03,0.04-0.06,0.08-0.09,0.12c-0.58,0.81-1.21,1.57-1.89,2.26l-0.05,0.05l-0.03,0.03 c-0.07,0.07-0.14,0.14-0.21,0.2c-0.4,0.38-0.81,0.74-1.23,1.07l-0.12,0.09l-0.1,0.07c-0.03,0.02-0.06,0.04-0.09,0.06 c-0.07,0.05-0.13,0.1-0.2,0.14c-0.88,0.62-2.06,1.56-3.23,1.39c-1.1-0.16-2.35-0.6-3.28-1.04c-0.78-0.37-1.59-0.87-2.13-1.4 c-0.16-0.12-0.29-0.26-0.39-0.44c-2.57,1-5.36,1.38-6.73,4.22c-0.3,0.62-0.55,1.35-0.48,2.04c0.08,0.89,1.06,1,1.82,1.2 c1.9,0.51,3.53,0.89,5.72,1.34c2.5,0.52,4.76,0.83,7.29,0.72c1.89-0.08,3.49-0.18,5.14-1.19c0.66-0.41,1.35-0.82,1.92-1.35 c1.28-1.19,2.11-2.43,3.77-3.15c1.2-0.52,2.44-0.96,3.71-1.27c1.8-0.45,3.74-0.76,4.69-2.54 C62.56,229.16,62.48,227.91,62.28,226.61L62.28,226.61"/>
</g>
<g id="Bottom_Gunslinger-Boot" fill="rgb(127, 32, 32)">
<path d="M107.64,229.04c0.08,0.49,0.24,0.98,0.51,1.49c0.95,1.78,2.89,2.09,4.69,2.54c1.27,0.32,2.51,0.75,3.71,1.27 c1.66,0.72,2.48,1.96,3.77,3.15c0.57,0.53,1.25,0.94,1.92,1.35c1.65,1.01,3.25,1.11,5.14,1.19c2.53,0.1,4.78-0.2,7.29-0.72 c2.19-0.46,3.82-0.84,5.72-1.34c0.61-0.16,1.36-0.27,1.67-0.76l0,0l0.36,0.8l0.21,1.64c0,0-2.03,1.09-4.2,1.57 c-2.16,0.48-6.53,1.15-6.53,1.15l-0.3-0.71l-0.98,0.21l0.05,0.7l-2.38,0.13l-0.51-0.69l-0.79,0.02l0.12,0.61 c0,0-1.47-0.02-2.29-0.51c-0.15-0.23-0.46-0.61-0.46-0.61l-0.56-0.31l0.07,0.58l-2.04-0.73l-0.1-0.79l-0.59-0.34l-0.03,0.57 l-1.46-1.12l-0.16-0.69l-3.64-2.55l-0.57,1.33l-2.55-0.55l-0.08-0.55l-0.65-0.27l-0.45,0.42l-1.71-0.7l-0.04-0.51l-0.56-0.19 l-0.06,0.37l-1.62-1.12l-0.31-2.23l-0.07-2.42L107.64,229.04L107.64,229.04"/>
<path d="M62.35,229.04c-0.08,0.49-0.24,0.98-0.51,1.49c-0.95,1.78-2.89,2.09-4.69,2.54 c-1.27,0.32-2.51,0.75-3.71,1.27c-1.66,0.72-2.48,1.96-3.77,3.15c-0.57,0.53-1.25,0.94-1.92,1.35c-1.65,1.01-3.25,1.11-5.14,1.19 c-2.53,0.1-4.78-0.2-7.29-0.72c-2.19-0.46-3.83-0.84-5.72-1.34c-0.61-0.16-1.36-0.27-1.67-0.76l0,0l-0.36,0.8l-0.21,1.64 c0,0,2.03,1.09,4.2,1.57c2.16,0.48,6.53,1.15,6.53,1.15l0.3-0.71l0.98,0.21l-0.05,0.7l2.38,0.13l0.51-0.69l0.8,0.02l-0.12,0.61 c0,0,1.47-0.02,2.29-0.51c0.15-0.23,0.46-0.61,0.46-0.61l0.56-0.31l-0.07,0.58l2.04-0.73l0.1-0.79l0.59-0.34l0.02,0.57l1.46-1.12 l0.16-0.69l3.64-2.55l0.57,1.33l2.55-0.55l0.08-0.55l0.65-0.27l0.45,0.42l1.71-0.7l0.04-0.51l0.56-0.19l0.07,0.37l1.62-1.12 l0.31-2.23l0.07-2.42L62.35,229.04L62.35,229.04"/>
</g>
<g id="Top_Gunslinger-Boot" fill="rgb(0, 0, 0)">
<path d="M121.87,227.77c-2.17-3.11-3.64-6.92-4.16-10.29l0,0l0.61-0.05l0.02,0l0.07-0.01l0.2-0.02l0.31-0.03 l0.13-0.02c0.35-0.04,0.7-0.09,1.04-0.14l0.54-0.1l0.11-0.03l0.04-0.01l0.08-0.02l0.37-0.09l0.33-0.08l0.06-0.01 c1.15-0.29,2.31-0.64,2.31-0.64c0.32,1.48,0.47,3.17,1.09,4.56c0.98,2.18,2.78,3.85,4.46,5.51c1.15,1.14,2.28,2.44,3.66,3.31 c0.58,0.37,1.21,0.66,1.84,0.9c-0.49,0.67-1.54,1.37-2.53,1.84c-0.93,0.44-2.17,0.88-3.28,1.04c-1.17,0.17-2.35-0.77-3.23-1.39 c-1.53-1.07-2.89-2.53-4.06-4.19L121.87,227.77"/>
<path d="M48.12,227.77c2.17-3.11,3.64-6.92,4.16-10.29l0,0l-0.61-0.05l-0.02,0l-0.08-0.01l-0.2-0.02l-0.31-0.03 l-0.13-0.02c-0.35-0.04-0.7-0.09-1.04-0.14l-0.54-0.1l-0.11-0.03l-0.04-0.01l-0.08-0.02l-0.37-0.09l-0.33-0.08l-0.06-0.01 c-1.15-0.29-2.31-0.64-2.31-0.64c-0.32,1.48-0.47,3.17-1.09,4.56c-0.98,2.18-2.78,3.85-4.46,5.51c-1.15,1.14-2.28,2.44-3.66,3.31 c-0.58,0.37-1.21,0.66-1.84,0.9c0.49,0.67,1.53,1.37,2.53,1.84c0.93,0.44,2.17,0.88,3.28,1.04c1.17,0.17,2.35-0.77,3.23-1.39 c1.53-1.07,2.89-2.53,4.06-4.19L48.12,227.77"/>
</g>
<g id="Side_Gunslinger-Boot" fill="rgb(176, 40, 40)">
<path d="M121.89,227.8c-1.87,0.54-3.7,1.24-5.44,2.12c-1.27,0.65-3.3,1.27-4.48,0.98c-3.66-0.92-4.27-4.3-4.27-4.3 c0.11-0.74,0.25-1.5,0.3-2.3c0.1-1.54-0.11-8.21,0.02-8.14c2.94,1.56,8.18,1.45,9.67,1.33l0,0 C118.23,220.86,119.71,224.69,121.89,227.8"/>
<path d="M48.09,227.8c1.87,0.54,3.7,1.24,5.44,2.12c1.27,0.65,3.3,1.27,4.48,0.98c3.66-0.92,4.27-4.3,4.27-4.3 c-0.11-0.74-0.25-1.5-0.3-2.3c-0.1-1.54,0.11-8.21-0.02-8.14c-2.94,1.56-8.18,1.45-9.67,1.33l0,0 C51.76,220.86,50.28,224.69,48.09,227.8"/>
</g>
</g></g>
<g id="Gloves">
<g id="Left-Glove">
<g id="Fingerless_Left_Glove" class="option" style="display: inherit;">
<g id="Fingers_Fingerless_Left_Glove" fill="rgb(238, 160, 89)">
<path d="M138.6,124.11c-0.54-0.03-1.05-0.01-1.58,0.1c-0.36,0.08-0.72,0.16-1.04,0.35 c-0.99,0.57-0.72,1.81,0.16,2.28c1.03,0.55,2.66,0.01,3.13-1.05C139.46,125.35,138.86,124.53,138.6,124.11"/>
<path d="M136.79,125.19c-0.54-0.03-1.05-0.02-1.59,0.1c-0.36,0.08-0.72,0.16-1.04,0.35 c-0.99,0.57-0.72,1.81,0.16,2.28c1.03,0.55,2.66,0.01,3.13-1.05C137.65,126.43,137.05,125.61,136.79,125.19"/>
<path d="M135.51,126.62c-0.54,0.05-1.21,0.17-1.73,0.35c-0.35,0.12-0.69,0.26-0.99,0.48 c-0.9,0.7-0.47,1.89,0.47,2.24c1.1,0.41,2.64-0.35,2.96-1.46C136.36,127.76,135.51,126.62,135.51,126.62z"/>
<path d="M129.95,119.82c-0.3,1.34-0.55,2.07-0.55,2.07s-1.38,2.79-1.14,3.43c0.24,0.64,1.45,1.21,2.15,0.87 c0.86-0.42,1.93-2.39,2.61-3.77c0.25-0.51,0.48-1.1,0.68-1.64C130.94,121.18,129.95,119.82,129.95,119.82L129.95,119.82z"/>
<path d="M135.64,126.41c-0.2,0.34-0.43,0.7-0.68,1.08c-1.36,2.05-3.46,3.81-2.07,5.37 c1.29,1.46,4.22-2.37,4.22-2.37l1.36-1.77C136.2,128.19,135.64,126.42,135.64,126.41z"/>
</g>
<path id="Glove_Fingerless_Left_Glove" d="M138.46,128.72l1.51-1.96c0,0,3.3-5.41,3.47-6.46 c0.13-0.8,0.02-3.47,0.02-3.47l-1.03-10.37l-5.24,0.44l-4.31,1.39l-0.32,1.77c0,0-1.56,2.15-1.97,3.69 c-0.29,1.09-0.13,3.68-0.49,5.43c-0.05,0.23-0.1,0.44-0.14,0.65l0,0c0,0,0.99,1.37,3.74,0.96c0.35-0.96,0.58-1.78,0.58-1.78 s0.95,0.32,1.43,0.7c1.61,1.24,0.91,4.96,0.91,4.96s-0.37,0.74-0.98,1.75C135.64,126.42,136.2,128.19,138.46,128.72z" fill="rgb(100, 58, 21)"/>
</g></g>
<g id="Right-Glove">
<g id="Fingerless_Right_Glove" class="option" style="display: inherit;">
<g id="Fingers_Fingerless_Right_Glove" fill="rgb(238, 160, 89)">
<path d="M31.4,124.11c0.54-0.03,1.05-0.01,1.58,0.1c0.36,0.08,0.72,0.16,1.04,0.35c0.99,0.57,0.72,1.81-0.16,2.28 c-1.03,0.55-2.66,0.01-3.13-1.05C30.53,125.35,31.14,124.53,31.4,124.11"/>
<path d="M33.21,125.19c0.54-0.03,1.05-0.02,1.58,0.1c0.36,0.08,0.72,0.16,1.04,0.35c0.99,0.57,0.72,1.81-0.16,2.28 c-1.03,0.55-2.66,0.01-3.13-1.05C32.35,126.43,32.95,125.61,33.21,125.19"/>
<path d="M34.49,126.62c0.54,0.05,1.21,0.17,1.73,0.35c0.35,0.12,0.69,0.26,0.99,0.48c0.9,0.7,0.47,1.89-0.47,2.24 c-1.1,0.41-2.64-0.35-2.96-1.46C33.64,127.76,34.49,126.62,34.49,126.62z"/>
<path d="M40.05,119.82c0.3,1.34,0.55,2.07,0.55,2.07s1.38,2.79,1.14,3.43c-0.24,0.64-1.45,1.21-2.15,0.87 c-0.86-0.42-1.93-2.39-2.61-3.77c-0.25-0.51-0.48-1.1-0.68-1.64C39.06,121.18,40.05,119.82,40.05,119.82L40.05,119.82z"/>
<path d="M34.36,126.41c0.2,0.34,0.43,0.7,0.68,1.08c1.36,2.05,3.46,3.81,2.08,5.37c-1.29,1.46-4.22-2.37-4.22-2.37 l-1.36-1.77C33.8,128.19,34.36,126.42,34.36,126.41z"/>
</g>
<path id="Glove_Fingerless_Right_Glove" d="M31.54,128.72l-1.51-1.96c0,0-3.3-5.41-3.47-6.46 c-0.13-0.8-0.02-3.47-0.02-3.47l1.03-10.37l5.24,0.44l4.31,1.39l0.32,1.77c0,0,1.56,2.15,1.97,3.69 c0.29,1.09,0.13,3.68,0.49,5.43c0.05,0.23,0.1,0.44,0.14,0.65l0,0c0,0-0.99,1.37-3.74,0.96c-0.35-0.96-0.58-1.78-0.58-1.78 s-0.95,0.32-1.43,0.7c-1.61,1.24-0.91,4.96-0.91,4.96s0.37,0.74,0.98,1.75C34.36,126.42,33.8,128.19,31.54,128.72z" fill="rgb(100, 58, 21)"/>
</g></g>
</g>
<g id="Biceps">
<g id="Left-Biceps"><g id="Basic_Biceps_Left" class="option" style="display: inherit;">
<path id="Main_Basic_Biceps_Left" d="M134.37,52.38c-1.14-2.74-6.21-14.78-6.21-14.78s-8.34,3.42-10.42,4.28 c-0.59,0.24-0.87,0.91-0.63,1.5c0.98,2.36,3.38,8.14,4.87,11.74c0.34,0.81,0.99,1.46,1.81,1.8c0.82,0.34,1.74,0.34,2.56,0 c2.45-1.01,5.73-2.35,7.4-3.04C134.33,53.63,134.61,52.96,134.37,52.38z" fill="rgb(139, 30, 30)"/>
<path id="Strap_Basic_Biceps_Left" d="M119.35,48.7l-5.85,2.4l-0.14,4.29l7.49-3.07L119.35,48.7" fill="rgb(108, 64, 25)"/>
<path id="Trauma-Plate_Basic_Biceps_Left" class="toggle" style="" d="M134.34,51.81l-5.29-12.74l-10.16,4.17l4.67,11.24 c0.17,0.4,0.49,0.72,0.89,0.88c0.4,0.17,0.85,0.17,1.26,0L134.34,51.81" fill="rgb(0, 0, 0)"/>
</g>
</g>
<g id="Right-Biceps"><g id="Basic_Biceps_Right" class="option" style="display: inherit;">
<path id="Main_Basic_Biceps_Right" d="M35.65,52.38c1.14-2.74,6.22-14.78,6.22-14.78s8.34,3.42,10.42,4.28 c0.59,0.24,0.87,0.91,0.63,1.5c-0.98,2.36-3.38,8.14-4.87,11.74c-0.34,0.81-0.99,1.46-1.81,1.8c-0.82,0.34-1.74,0.34-2.56,0 c-2.45-1.01-5.73-2.35-7.4-3.04C35.69,53.63,35.41,52.96,35.65,52.38z" fill="rgb(139, 30, 30)"/>
<path id="Strap_Basic_Biceps_Right" d="M50.68,48.7l5.85,2.4l0.14,4.29l-7.49-3.07L50.68,48.7" fill="rgb(108, 64, 25)"/>
<path id="Trauma-Plate_Basic_Biceps_Right" class="toggle" style="" d="M35.69,51.81l5.29-12.74l10.16,4.17l-4.66,11.24 c-0.17,0.4-0.49,0.72-0.89,0.88s-0.85,0.17-1.26,0L35.69,51.81" fill="rgb(0, 0, 0)"/>
</g>
</g>
</g>
<g id="BicepsDecals" mask="url(#BicepsMask)">
</g>
<path id="Vest" d="M85,20.92c8.5-0.01,15.43-4.3,15.63-8.01l0.15,0.02l18.38,5.42l13.31,23.94l-2.86,1.16l-13.42-8.6 l-2.31,3.72l-1.54,47.4c0,0-8.72,4.71-13.53,5.35c-3.44,0.45-8.63,0.68-13.79,0.67c-5.16,0.01-10.35-0.22-13.79-0.67 c-4.81-0.63-13.53-5.35-13.53-5.35l-1.54-47.4l-2.31-3.72l-13.42,8.6l-2.86-1.16l13.31-23.94l18.38-5.42l0.15-0.02 C69.57,16.62,76.5,20.92,85,20.92" fill="rgb(113, 15, 15)"/>
<g id="SuitDecals" mask="url(#SuitMask)">
</g>
<g class="swappable" id="Chest"><g id="Chest_Heavy">
<g id="Abdomen_Heavy">
<g id="Under-Plates_Abdomen_Heavy" fill="rgb(92, 23, 23)">
<rect x="73.86" y="69.99" width="22.29" height="2.83"/>
<rect x="73.86" y="72.82" width="22.29" height="2.83"/>
<rect x="73.86" y="75.65" width="22.29" height="2.83"/>
<rect x="73.86" y="78.48" width="22.29" height="2.83"/>
<rect x="73.86" y="81.31" width="22.29" height="2.83"/>
</g>
<g id="Abdomen-Plate_Heavy" fill="rgb(55, 55, 55)">
<path d="M78.16,60.86l-11.11,4.69L66,63.03l12.15-5.13V60.86z"/>
<path d="M70.94,74.95l-3.9-9.4l11.11-4.69l3.48,9.89L70.94,74.95z"/>
<path d="M66,63.03l-4.67,0.81l6.89,16.28l4.7-0.93L66,63.03z"/>
<path d="M91.84,60.86l11.11,4.69l1.04-2.52L91.84,57.9V60.86z"/>
<path d="M99.06,74.95l3.9-9.4l-11.11-4.69l-3.48,9.89L99.06,74.95z"/>
<path d="M104,63.03l4.67,0.81l-6.89,16.28l-4.7-0.93L104,63.03z"/>
<rect x="78.19" y="57.9" width="13.61" height="2.96"/>
<path d="M81.63,70.75l-3.48-9.89h13.69l-3.48,9.89H81.63z"/>
</g>
</g>
<g id="Neck-Armor_Heavy">
<g id="Neck-Plate_Heavy" fill="rgb(0, 0, 0)">
<path d="M69.69,11.62l-9.62,2.1c0,0,0.44,1.7,0.92,3.57c0.69,2.66,3.35,4.31,6.04,3.72h0 c1.26-0.27,2.35-1.05,3.03-2.15s0.88-2.42,0.56-3.67C70.13,13.33,69.69,11.62,69.69,11.62z"/>
<path d="M100.31,11.62l9.62,2.1c0,0-0.44,1.7-0.92,3.57c-0.68,2.66-3.35,4.31-6.04,3.72h0 c-1.26-0.27-2.35-1.05-3.03-2.15s-0.88-2.42-0.56-3.67C99.87,13.33,100.31,11.62,100.31,11.62z"/>
</g>
<g id="Secondary_Neck-Plate_Heavy" fill="rgb(132, 30, 30)">
<path d="M67.3,11.8l-4.84,1.06c0,0,0.35,1.36,0.69,2.67c0.34,1.34,1.69,2.16,3.04,1.87c0,0,0,0,0,0 c0.63-0.14,1.18-0.53,1.52-1.08c0.34-0.55,0.44-1.22,0.28-1.85C67.65,13.16,67.3,11.8,67.3,11.8z"/>
<path d="M102.7,11.8l4.84,1.06c0,0-0.35,1.36-0.69,2.67c-0.34,1.34-1.69,2.16-3.04,1.87c0,0,0,0,0,0 c-0.63-0.14-1.18-0.53-1.52-1.08c-0.34-0.55-0.44-1.22-0.28-1.85C102.35,13.16,102.7,11.8,102.7,11.8z"/>
</g>
</g>
<g id="Full-Chest_Heavy">
<path id="Under-Plate_Chest_Heavy" d="M90.5,54.56H79.5l-2.76,2.36v1.58l1.45-0.6h13.61l1.45,0.61v-1.59 L90.5,54.56z" fill="rgb(131, 32, 32)"/>
<g id="Chest-Plate_Heavy" fill="rgb(36, 36, 36)">
<path d="M65.78,61.66l9.75-5.63l1.32-2.67l2.6,0.35h11.11l2.6-0.35l1.32,2.67l9.75,5.63l4.53,0.99l-0.11,1.65 l-4.85-0.84l-10.54-4.37v-2.17l-2.76-2.36H79.5l-2.76,2.36v2.17l-10.54,4.37l-4.85,0.84l-0.11-1.65L65.78,61.66z"/>
<path d="M108.75,62.64l5.64-14.4l0.83,2.95l-1.79,10.71L108.75,62.64z"/>
<path d="M54.78,51.19l0.83-2.95l5.64,14.4l-4.68-0.74L54.78,51.19z"/>
<path d="M61.09,42.62v-6.02l-0.46-10.79l2.81-3.1l8.51-1.76l2.2,2.57h21.69l2.2-2.57l8.51,1.76l2.81,3.1 l-0.45,10.53l-0.01-0.02v6.31L93.15,53.36l-2.6,0.35H79.45l-2.6-0.35L61.09,42.62z"/>
<path d="M108.91,36.61v6.02l5.49,5.61L108.91,36.61z"/>
<path d="M76.85,53.36L61.09,42.62l-5.49,5.61l5.64,14.4l4.53-0.99l9.75-5.63L76.85,53.36z"/>
<path d="M114.4,48.24l-5.64,14.4l-4.53-0.99l-9.75-5.63l-1.32-2.67l15.75-10.74L114.4,48.24z"/>
<path d="M113.43,61.9l-0.19,1.15l-4.61,1.24l0.12-1.65L113.43,61.9z"/>
<path d="M61.09,36.61v6.02l-5.49,5.61L61.09,36.61z"/>
<path d="M60.63,25.82c-0.06,5.53-0.71,11.07-2.28,16.61l2.74-5.82L60.63,25.82z"/>
<path d="M109.38,25.82c0.06,5.53,0.72,11.07,2.28,16.61l-2.74-5.82L109.38,25.82z"/>
<path d="M61.25,62.64l0.11,1.65l-4.61-1.24l-0.19-1.15L61.25,62.64z"/>
</g>
<g id="Accents_Chest-Plate_Heavy" class="toggle">
<g id="Accent-3_Accents_Chest-Plate_Heavy" fill="rgb(132, 24, 24)">
<path d="M97.88,36.45l-0.58-1.79h2.63l-0.57,1.79H97.88z"/>
<path d="M97.88,39.92l-0.58-1.79h2.63l-0.57,1.79H97.88z"/>
<rect x="96.19" y="25.8" width="4.93" height="0.54"/>
<rect x="96.19" y="27.52" width="4.93" height="0.54"/>
</g>
<path id="Accent-2_Accents_Chest-Plate_Heavy" d="M70.47,23.02c-0.12-1.57-1.48-2.76-3.06-2.66c0,0,0,0,0,0 c-0.73,0.05-1.42,0.39-1.9,0.94c-0.48,0.56-0.72,1.28-0.67,2.01c0.06,0.86,0.14,1.8,0.2,2.66c0.12,1.57,1.48,2.76,3.06,2.66h0 c0.73-0.05,1.42-0.39,1.9-0.94c0.48-0.55,0.72-1.28,0.67-2.01C70.6,24.82,70.53,23.88,70.47,23.02z" fill="rgb(136, 27, 27)"/>
<g id="Accent-1_Accents_Chest-Plate_Heavy" fill="rgb(124, 25, 25)">
<path d="M69.65,20.78l-4.33,0.28l0.54,7.14l4.33-0.28L69.65,20.78z"/>
<path d="M69.18,21.34l-3.31,0.21l0.08,1.02l3.3-0.21L69.18,21.34z"/>
<path d="M66.4,22.55l-0.45,0.03l0.42,5.59l0.45-0.03L66.4,22.55z"/>
<path d="M66.88,22.51l-0.45,0.03l0.42,5.6l0.45-0.03L66.88,22.51z"/>
<path d="M69.25,22.36l-0.45,0.03l0.42,5.59l0.45-0.03L69.25,22.36z"/>
<path d="M68.78,22.39l-0.45,0.03l0.42,5.6l0.45-0.03L68.78,22.39z"/>
<path d="M67.83,22.45l-0.45,0.03l0.42,5.6l0.45-0.03L67.83,22.45z"/>
<path d="M68.3,22.42l-0.45,0.03l0.42,5.6l0.45-0.03L68.3,22.42z"/>
<path d="M67.35,22.49l-0.45,0.03l0.42,5.59l0.45-0.03L67.35,22.49z"/>
</g>
</g>
</g>
<g id="Iron-Heart_Heavy">
<path id="Heart_Heavy" d="M85,31.46l3.24,2.99v5.86L85,43.28l-3.24-2.98v-5.86L85,31.46z" fill="rgb(141, 29, 29)"/><g id="Center_Heart_Heavy" class="option" fill="rgb(73, 73, 73)" style="display: inherit;">
<rect x="83.82" y="34.53" width="2.36" height="2.84"/>
<rect x="83.82" y="37.37" width="0.39" height="2.84"/>
<rect x="85.39" y="37.37" width="0.39" height="2.84"/>
<rect x="85.79" y="37.37" width="0.39" height="2.84"/>
<rect x="84.6" y="37.37" width="0.39" height="2.84"/>
<rect x="85" y="37.37" width="0.39" height="2.84"/>
<rect x="84.21" y="37.37" width="0.39" height="2.84"/>
</g>
</g>
</g></g>
<g id="ChestDecals" mask="url(#ChestMask)">
</g>
<g id="Chest-Attachments"><g id="Bandoleer_Accessories_Chest" class="option" style="display: inherit;">
<g id="Strap_Bandoleer_Accessories_Chest" fill="rgb(54, 54, 54)">
<path d="M113.05,15.37l-6.61-3.15L64.67,87.5l6.61,3.62L113.05,15.37"/>
<path d="M111.26,14.16l-2.51-1.17l-8.34,15.03l2.41,1.32L111.26,14.16"/>
<path d="M99.44,35.85l-2.76-1.51L83.86,57.44l2.76,1.51L99.44,35.85"/>
<path d="M99.71,36.72l-3.92-2.15l-1.28,2.32l3.92,2.15L99.71,36.72"/>
<path d="M98.15,39.53l-3.92-2.15l-1.28,2.32l3.92,2.15L98.15,39.53"/>
<path d="M96.6,42.33l-3.92-2.15L91.4,42.5l3.92,2.15L96.6,42.33"/>
<path d="M95.04,45.14l-3.92-2.15l-1.28,2.32l3.92,2.15L95.04,45.14"/>
<path d="M93.48,47.94l-3.92-2.15l-1.29,2.32l3.92,2.15L93.48,47.94"/>
<path d="M90.37,53.55l-3.92-2.15l-1.29,2.32l3.92,2.15L90.37,53.55"/>
<path d="M91.93,50.75l-3.92-2.15l-1.29,2.32l3.92,2.15L91.93,50.75"/>
<path d="M88.82,56.36l-3.92-2.15l-1.28,2.31l3.92,2.15L88.82,56.36"/>
</g>
<g id="Ammo_Bandoleer_Accessories_Chest" fill="rgb(219, 188, 26)">
<g>
<g>
<path d="M99.57,36.97l1.6,0.88c0.17,0.09,0.23,0.31,0.14,0.48c-0.18,0.33-0.47,0.85-0.66,1.18 c-0.1,0.17-0.31,0.23-0.48,0.14l-1.6-0.88L99.57,36.97z"/>
<path d="M100.75,37.61l-0.13-0.07l-1,1.8l0.13,0.07L100.75,37.61z"/>
<path d="M100.47,37.46l-0.13-0.07l-1,1.8l0.14,0.07L100.47,37.46z"/>
</g>
<g>
<path d="M95.65,34.82l-1,1.8l-1.6-0.88c-0.17-0.09-0.23-0.31-0.14-0.48c0.18-0.33,0.47-0.85,0.66-1.19 c0.09-0.17,0.31-0.23,0.48-0.14L95.65,34.82z"/>
<path d="M94.44,34.15l-0.13-0.07l-1,1.8l0.14,0.07L94.44,34.15z"/>
</g>
</g>
<g>
<g>
<path d="M96.45,42.6l1.6,0.88c0.17,0.09,0.23,0.31,0.14,0.48c-0.18,0.33-0.47,0.85-0.66,1.19 c-0.09,0.17-0.31,0.23-0.48,0.14l-1.6-0.88L96.45,42.6z"/>
<path d="M97.63,43.24l-0.13-0.07l-1,1.8l0.13,0.07L97.63,43.24z"/>
<path d="M97.35,43.09l-0.13-0.07l-1,1.8l0.13,0.07L97.35,43.09z"/>
</g>
<g>
<path d="M92.53,40.45l-1,1.8l-1.6-0.88c-0.17-0.09-0.23-0.31-0.14-0.48c0.18-0.33,0.47-0.85,0.66-1.19 c0.1-0.17,0.31-0.23,0.48-0.14L92.53,40.45z"/>
<path d="M91.32,39.78l-0.13-0.07l-1,1.8l0.13,0.07L91.32,39.78z"/>
</g>
</g>
<g>
<g>
<path d="M94.9,45.38l1.6,0.88c0.17,0.09,0.23,0.31,0.14,0.48c-0.18,0.33-0.47,0.85-0.66,1.18 c-0.09,0.17-0.31,0.23-0.48,0.14l-1.6-0.88L94.9,45.38z"/>
<path d="M96.08,46.03l-0.13-0.07l-1,1.8l0.13,0.07L96.08,46.03z"/>
<path d="M95.8,45.88l-0.13-0.07l-1,1.8l0.13,0.07L95.8,45.88z"/>
</g>
<g>
<path d="M90.98,43.24l-1,1.8l-1.6-0.88c-0.17-0.09-0.23-0.31-0.14-0.48c0.18-0.33,0.47-0.85,0.66-1.19 c0.1-0.17,0.31-0.23,0.48-0.14L90.98,43.24z"/>
<path d="M89.77,42.57l-0.13-0.07l-1,1.8l0.13,0.07L89.77,42.57z"/>
</g>
</g>
<g>
<g>
<path d="M93.34,48.21l1.6,0.88c0.17,0.09,0.23,0.31,0.14,0.48c-0.18,0.33-0.47,0.85-0.66,1.19 c-0.09,0.17-0.31,0.23-0.48,0.14l-1.6-0.88L93.34,48.21z"/>
<path d="M94.52,48.85l-0.13-0.07l-1,1.8l0.13,0.07L94.52,48.85z"/>
<path d="M94.24,48.7l-0.13-0.07l-1,1.8l0.13,0.07L94.24,48.7z"/>
</g>
<g>
<path d="M89.42,46.06l-1,1.8l-1.6-0.88c-0.17-0.09-0.23-0.31-0.14-0.48c0.18-0.33,0.47-0.85,0.66-1.18 c0.1-0.17,0.31-0.23,0.48-0.14L89.42,46.06z"/>
<path d="M88.21,45.39l-0.13-0.07l-1,1.8l0.13,0.07L88.21,45.39z"/>
</g>
</g>
</g>
<g id="Buckles_Bandoleer_Accessories_Chest" fill="rgb(154, 154, 154)">
<g>
<path d="M104,27.77l-2.88-1.58l-1.63,2.93l2.88,1.58L104,27.77z"/>
<path d="M103.26,28.27l-2.17-1.19l-1.63,2.93l2.17,1.19L103.26,28.27z"/>
</g>
<path d="M104,24.34l-1.86-1.01l1.61-2.92l3.76,2.05l-1.61,2.92L104,24.34l0.36-0.65l1.06,0.58l0.89-1.61l-2.07-1.13 l-0.89,1.61l1.01,0.55"/>
</g>
</g></g>
<g id="Collar"><g id="None_Collar" class="option" style="display: inherit;">
</g>
</g>
<g id="CollarDecals" mask="url(#CollarMask)">
</g>
<g id="Helmets" class="swappable" transform="translate(45,-52)"><g id="Helmet_Recon">
<g id="Left-Earcap_Recon"><g id="Ear-Cap_Left_Recon" fill="rgb(112, 27, 27)">
<path d="M59.05,34.42l1.5,0.77l-0.67,1.25h-0.81L59.05,34.42z"/>
<path d="M60.55,35.19l1.02,13.31l-1.41-0.16l-0.28-11.89L60.55,35.19z"/>
<path d="M60.16,48.34h-1.11l-0.27-11.89h1.1L60.16,48.34z"/>
<path d="M61.06,48.5v1.4H59.1l-0.04-1.54l1.1-0.02L61.06,48.5z"/>
<path d="M59.8,48.34v1.56h-0.7l-0.04-1.56H59.8z"/>
<path d="M61.06,50.3v1.35l-1.92,0.19v-1.51h0.66L61.06,50.3z"/>
<path d="M59.8,50.33v1.44l-0.66,0.07v-1.51H59.8z"/>
<path d="M60.82,49.9v0.4l-1.02,0.03h-0.7L59.1,49.9H60.82z"/>
<rect x="59.1" y="49.9" width="0.58" height="0.43"/>
<path d="M61.06,51.65h0.56l0.1,4.63l-1.22,1.32v-5.88L61.06,51.65z"/>
<path d="M60.49,57.59l-1.2,0.9l-0.15-6.65l1.35-0.14V57.59z"/>
<path d="M58.88,40.91h0.59v2.33h-0.53L58.88,40.91z"/>
</g>
</g>
<g id="Right-Earcap_Recon"><g id="Sensor-Stalk_Right_Recon" class="option" style="display: inherit;">
<g id="Sensor_Sensor-Stalk_Right_Recon" fill="rgb(143, 33, 33)">
<path d="M12.57,32.31l5.46-23.69h0.47l-0.74,23.69H12.57z"/>
<path d="M12.89,32.31h-0.31l5.46-23.69h0.31L12.89,32.31z"/>
<path d="M15.46,32.31l1.58-14.22h1.16l-0.45,14.22H15.46z"/>
<path d="M18.19,18.46h-0.93l-1.54,13.86h-0.25l1.58-14.22h1.16L18.19,18.46z"/>
<path d="M12.57,37.53l3.62,9.05h1.42v-9.05H12.57z"/>
<path d="M16.58,46.57l-3.62-9.05h-0.39l3.62,9.05H16.58z"/>
<path d="M15.6,37.53l0.99,5.6h1.03v-5.6H15.6z"/>
<path d="M16.78,42.78l-0.93-5.25H15.6l0.99,5.6h1.03v-0.35H16.78z"/>
</g>
<g id="Shaft_Sensor-Stalk_Right_Recon" fill="rgb(0, 0, 0)">
<path d="M17.75,32.31h-5.18v0.58h5.16L17.75,32.31z"/>
<path d="M17.59,37.53h-5.02v-0.58h5.04L17.59,37.53z"/>
<path d="M17.74,32.9h-5.16l0.21,0.43h4.93L17.74,32.9z"/>
<path d="M17.61,36.94h-5.04l0.21-0.43h4.83L17.61,36.94z"/>
<path d="M19.12,8.62H18.5l-1.03,33.02h1.65V8.62z"/>
<rect x="18.33" y="40.21" width="0.79" height="2.86"/>
<path d="M18.33,43.07c-0.01,0-0.02,0-0.04,0c-0.46,0-0.83-0.64-0.83-1.43c0-0.79,0.37-1.43,0.83-1.43 c0.01,0,0.02,0,0.04,0V43.07z"/>
</g>
</g><g id="Ear-Cap_Right_Recon" fill="rgb(111, 20, 20)">
<path d="M20.89,34.42l-1.5,0.77l0.67,1.25h0.81L20.89,34.42z"/>
<path d="M19.39,35.19L18.37,48.5l1.41-0.16l0.28-11.89L19.39,35.19z"/>
<path d="M19.78,48.34h1.11l0.27-11.89h-1.1L19.78,48.34z"/>
<path d="M18.88,48.5v1.4h1.96l0.04-1.54l-1.1-0.02L18.88,48.5z"/>
<path d="M20.14,48.34v1.56h0.7l0.04-1.56H20.14z"/>
<path d="M18.88,50.3v1.35l1.92,0.19v-1.51h-0.66L18.88,50.3z"/>
<path d="M20.14,50.33v1.44l0.66,0.07v-1.51H20.14z"/>
<path d="M19.11,49.9v0.4l1.02,0.03h0.69l0.01-0.43H19.11z"/>
<rect x="20.26" y="49.9" width="0.58" height="0.43"/>
<path d="M18.88,51.65h-0.56l-0.1,4.63l1.22,1.32v-5.88L18.88,51.65z"/>
<path d="M19.45,57.59l1.2,0.9l0.15-6.65l-1.35-0.14V57.59z"/>
<path d="M21.06,40.91h-0.59v2.33h0.53L21.06,40.91z"/>
</g>
</g>
<g id="Helmet_Pieces_Recon">
<g id="Face_Recon" fill="rgb(146, 37, 37)">
<path d="M22.95,58.65l0.78-6.92l0.8-0.31l0.72-5.18c0,0,4.47,3.09,6.25,5.15c2.03,2.35,4.07,15.01,4.07,15.01 L22.95,58.65z"/>
<path d="M56.99,58.65l-0.78-6.92l-0.8-0.31l-0.72-5.18c0,0-4.47,3.09-6.25,5.15c-2.03,2.35-4.07,15.01-4.07,15.01 L56.99,58.65z"/>
</g>
<g id="Vents_Recon" fill="rgb(0, 0, 0)">
<g>
<path d="M25.99,53.31l-1.23-0.9l-0.45,0.15l-0.03,0.52l1.11,1.07v-0.59L25.99,53.31z"/>
<path d="M23.74,51.72l0.58,0.84l0.45-0.15l1.23,0.9l-0.6,0.25l1.75,1.18l1.67-0.85c-1.6-0.7-3.04-1.52-4.28-2.48 L23.74,51.72z"/>
<path d="M27.15,54.74c-0.81,1.67-1.09,3.66-0.87,5.95l1.51,0.93l1.03-7.72L27.15,54.74z"/>
<path d="M27.58,54.93l0.79-0.4l-0.86,6.48l-0.88-0.54l-0.01-0.17h0.76v-0.4h-0.78l-0.01-0.2l0-0.22h0.93v-0.4 h-0.93l0-0.12l0.01-0.31h1.04v-0.4h-1.01v-0.01l0.05-0.41h1.08v-0.4h-1.02l0.08-0.43h0.99v-0.4h-0.9l0.09-0.37l0.02-0.06h0.9 v-0.4h-0.77l0.05-0.15l0.11-0.27h0.76v-0.4H27.58z"/>
<path d="M26.28,60.69l-3.32-2.04l0.78-6.92l0.58,0.84l-0.04,0.51l1.12,1.08v-0.59l1.75,1.18 c-0.8,1.67-1.09,3.64-0.87,5.92L26.28,60.69z"/>
<path d="M24.6,52.78l0.8,0.78l0.6-0.25l-0.94-0.69L24.6,52.78z"/>
<path d="M24.6,53.09v-0.31l0.8,0.78v0.28L24.6,53.09z"/>
<path d="M24.28,53.08l0.32,0.02"/>
<path d="M25.05,58.83l-1.14-0.65v0.32l1.14,0.65V58.83z"/>
<path d="M27.58,54.93h0.47v0.4h-0.76l0.14-0.32l0,0L27.58,54.93z"/>
<path d="M27.12,55.76l-0.13,0.4h0.9v-0.4H27.12z"/>
<path d="M26.88,56.59l-0.07,0.28l-0.02,0.12h0.99v-0.4H26.88z"/>
<path d="M26.71,57.42l-0.02,0.12l-0.03,0.28h1.08v-0.4H26.71z"/>
<path d="M26.61,58.25l-0.02,0.4h1.04v-0.4H26.61z"/>
<path d="M26.58,59.07l0,0.4h0.93v-0.4H26.58z"/>
<path d="M26.59,59.9l0.03,0.4h0.76v-0.4H26.59z"/>
</g>
<g>
<path d="M53.95,53.31l1.23-0.9l0.45,0.15l0.03,0.52l-1.11,1.07v-0.59L53.95,53.31z"/>
<path d="M56.2,51.72l-0.58,0.84l-0.45-0.15l-1.23,0.9l0.6,0.25l-1.75,1.18l-1.67-0.85c1.6-0.7,3.04-1.52,4.28-2.48 L56.2,51.72z"/>
<path d="M52.79,54.74c0.81,1.67,1.09,3.66,0.87,5.95l-1.51,0.93l-1.03-7.72L52.79,54.74z"/>
<path d="M52.36,54.93l-0.79-0.4l0.86,6.48l0.88-0.54l0.01-0.17h-0.76v-0.4h0.78l0.01-0.2l0-0.22h-0.93v-0.4h0.93 l0-0.12l-0.02-0.31h-1.03v-0.4h1.01v-0.01l-0.05-0.41h-1.08v-0.4h1.02l-0.08-0.43h-0.99v-0.4h0.9l-0.09-0.37l-0.02-0.06h-0.9 v-0.4h0.77l-0.05-0.15l-0.11-0.27h-0.76v-0.4H52.36z"/>
<path d="M53.66,60.69l3.33-2.04l-0.78-6.92l-0.58,0.84l0.04,0.51l-1.12,1.08v-0.59l-1.75,1.18 c0.8,1.67,1.09,3.64,0.87,5.92L53.66,60.69z"/>
<path d="M55.34,52.78l-0.8,0.78l-0.6-0.25l0.94-0.69L55.34,52.78z"/>
<path d="M55.34,53.09v-0.31l-0.8,0.78v0.28L55.34,53.09z"/>
<path d="M55.66,53.08l-0.32,0.02"/>
<path d="M54.89,58.83l1.14-0.65v0.32l-1.14,0.65V58.83z"/>
<path d="M52.36,54.93h-0.47v0.4h0.76l-0.14-0.32l0,0L52.36,54.93z"/>
<path d="M52.82,55.76l0.13,0.4h-0.9v-0.4H52.82z"/>
<path d="M53.06,56.59l0.07,0.28l0.02,0.12h-0.99v-0.4H53.06z"/>
<path d="M53.23,57.42l0.02,0.12l0.03,0.28h-1.08v-0.4H53.23z"/>
<path d="M53.33,58.25l0.02,0.4h-1.03v-0.4H53.33z"/>
<path d="M53.36,59.07l0,0.4h-0.93v-0.4H53.36z"/>
<path d="M53.35,59.9l-0.02,0.4h-0.76v-0.4H53.35z"/>
</g>
</g>
<g id="Cheeks_Recon" fill="rgb(199, 41, 41)">
<path d="M24.76,42.7l0.5,3.54l-0.72,5.18l-0.8,0.31L24.76,42.7z"/>
<path d="M24.76,42.7c0,0,5.37,3.85,7.13,6.73c2.19,3.56,4.26,16.16,4.39,16.95l0.01,0.04h-0.69 c0,0-2.04-12.66-4.07-15.01c-1.79-2.07-6.25-5.15-6.25-5.15L24.76,42.7z"/>
<path d="M26.25,44.85l0.13,0.63l1.17,0.9l-0.08-0.66L26.25,44.85z"/>
<path d="M55.18,42.7l-0.5,3.54l0.72,5.18l0.8,0.31L55.18,42.7z"/>
<path d="M55.18,42.7c0,0-5.37,3.85-7.13,6.73c-2.19,3.56-4.26,16.16-4.39,16.95l-0.01,0.04h0.69 c0,0,2.04-12.66,4.07-15.01c1.79-2.07,6.25-5.15,6.25-5.15L55.18,42.7z"/>
</g>
<path fill="rgb(0, 0, 0)" id="Visor_Recon" d="M38.94,66.41l-1.37-22.04l-0.7-0.17l-8.9-2.78l-0.9-2.27l0.29,0.01 c2.17,0.39,4.47,0.71,6.97,0.94l0,0l2.05,1.35c1.16,0.21,2.36,0.3,3.58,0.31h0.03H40c1.22-0.02,2.42-0.11,3.58-0.31l2.05-1.35l0,0 c2.5-0.23,4.8-0.55,6.96-0.94l0.29-0.01l-0.9,2.27l-8.9,2.78l-0.7,0.17L41,66.41H38.94z"/>
<g id="Eyes-2_Recon" fill="rgb(110, 18, 18)">
<path d="M26.16,38.93l0.79,2.17l9.91,3.1l1.41,22.22h-1.99c0,0-2.14-13.31-4.39-16.98 c-1.76-2.87-7.13-6.73-7.13-6.73l1-3.85L26.16,38.93z"/>
<path d="M27.05,39.1l0.92,2.31l-1.01-0.31l-0.79-2.17L27.05,39.1z"/>
<path d="M36.86,44.19l0.7,0.17l1.37,22.04h-0.66L36.86,44.19z"/>
<path d="M53.78,38.93l-0.79,2.17l-9.91,3.1l-1.41,22.22h1.99c0,0,2.14-13.31,4.39-16.98 c1.76-2.87,7.13-6.73,7.13-6.73l-1-3.85L53.78,38.93z"/>
<path d="M52.9,39.1l-0.92,2.31l1.01-0.31l0.79-2.17L52.9,39.1z"/>
<path d="M43.08,44.19l-0.7,0.17L41,66.41h0.66L43.08,44.19z"/>
<path d="M39.91,40.42c-5.46-0.15-10.04-0.74-14.14-1.57h28.41c-4.11,0.83-8.72,1.42-14.21,1.57L39.91,40.42z"/>
<path d="M39.94,41.75c-1.22-0.02-2.42-0.11-3.58-0.31l-2.05-1.35l0,0c1.78,0.16,3.66,0.28,5.66,0.33l0.09,0 c1.96-0.06,3.81-0.17,5.56-0.33l0,0l-2.05,1.35c-1.17,0.21-2.38,0.3-3.61,0.31H39.94z"/>
</g>
<g id="Eyes-1_Recon" fill="rgb(206, 26, 26)">
<path d="M24.57,38.85h0.69L24.2,42.7l-1.76,15.96h-1.78c0.55-6.99,1.81-13.59,3.89-19.74L24.57,38.85z"/>
<path d="M25.76,38.85l-1,3.85l-1.81,15.96h-0.52L24.2,42.7l1.06-3.85H25.76z"/>
<path d="M55.37,38.85h-0.69l1.06,3.85l1.76,15.96h1.78c-0.55-6.99-1.81-13.59-3.89-19.74L55.37,38.85z"/>
<path d="M54.18,38.85l1,3.85l1.81,15.96h0.52L55.74,42.7l-1.06-3.85H54.18z"/>
<rect x="20.33" y="34.94" width="39.28" height="3.12"/>
<path d="M37.44,36.49l2.05-0.6v1.2L37.44,36.49z"/>
<path d="M42.5,36.49l-2.05-0.6v1.2L42.5,36.49z"/>
<path d="M24.57,38.85c-2.09,6.16-3.36,12.79-3.91,19.81l0.45-20.59h37.74l0.45,20.59 c-0.55-7.02-1.82-13.64-3.91-19.81H24.57z"/>
<path d="M23.21,43.31l0.98-0.61"/>
<path d="M24.76,42.7H24.2"/>
<path d="M56.73,43.31l-0.98-0.61"/>
<path d="M55.18,42.7h0.57"/>
</g>
<g id="Dome-2_Recon" fill="rgb(0, 0, 0)">
<path d="M39.97,19.24v15.7h-19.1C20.87,29.05,28.47,19.24,39.97,19.24z"/>
<path d="M39.97,19.24v15.7h19.1C59.07,29.05,51.47,19.24,39.97,19.24z"/>
<path d="M38.05,34.94V18.66l1.92-0.1l1.92,0.1v16.27H38.05z"/>
</g>
<g id="Dome-1_Recon" fill="rgb(142, 28, 28)">
<path d="M38.05,34.94V18.18c-2.96,0.39-5.75,1.3-8.32,2.84v13.91H38.05z"/>
<path d="M41.89,34.94V18.18c2.96,0.39,5.75,1.3,8.32,2.84v13.91H41.89z"/>
</g>
</g>
<g id="Macrobinoculars_Brow_Recon" class="toggle" style="">
<g id="Arms_Macrobinoculars_Brow_Recon" fill="rgb(0, 0, 0)">
<path d="M22.29,27.79l-0.6-0.17l-3.95,9.47l0,0.38l0.51,0.01L22.29,27.79z"/>
<rect x="18.97" y="38.37" width="1.04" height="0.94"/>
<rect x="18.23" y="38.37" width="0.5" height="0.94"/>
<rect x="18.23" y="39.31" width="0.5" height="1.61"/>
<rect x="17.74" y="37.48" width="0.49" height="3.44"/>
<path d="M17.74,35.44l-0.54,0.31v2.15l0.54-0.41V35.44z"/>
<path d="M17.74,37.48l-0.79,0.11l-0.01,2.53l0.8,0.81V37.48z"/>
<rect x="18.73" y="38.37" width="0.24" height="0.94"/>
<path d="M17.74,35.44l0.24-0.42l0.72-0.24l-0.97,2.32L17.74,35.44z"/>
<path d="M17.98,35.01v-0.4L17.2,35.1v0.65l0.54-0.31L17.98,35.01z"/>
<path d="M17.98,35.01V34.1l0.72-0.7v1.36L17.98,35.01z"/>
<path d="M18.22,37.48h1.11l-0.05,0.89h-1.06L18.22,37.48z"/>
<path d="M19.33,37.48h-1.11l1.06,0.89L19.33,37.48z"/>
<path d="M18.56,36.74l0.78,0.27v0.46h-1.08L18.56,36.74z"/>
<path d="M18.73,40.92v-1.61h0.48l-0.12,1.61H18.73z"/>
<path d="M18.73,33.4l2.79-6.76l0.05,0.93l0.12,0.04l-2.96,7.1V33.4z"/>
<path d="M19.96,30.81l-0.88,2.09v0.54l0.89-2.12L19.96,30.81z"/>
<path d="M21.24,27.76l-0.88,2.09v0.54l0.89-2.12L21.24,27.76z"/>
<path d="M57.65,27.79l0.6-0.17l3.95,9.47l0,0.38l-0.51,0.01L57.65,27.79z"/>
<rect x="59.93" y="38.37" width="1.04" height="0.94"/>
<rect x="61.21" y="38.37" width="0.5" height="0.94"/>
<rect x="61.21" y="39.31" width="0.5" height="1.61"/>
<rect x="61.71" y="37.48" width="0.49" height="3.44"/>
<path d="M62.2,35.44l0.53,0.31v2.15l-0.53-0.41V35.44z"/>
<path d="M62.2,37.48l0.78,0.11L63,40.12l-0.8,0.81V37.48z"/>
<rect x="60.97" y="38.37" width="0.24" height="0.94"/>
<path d="M62.2,35.44l-0.24-0.42l-0.72-0.24l0.97,2.32L62.2,35.44z"/>
<path d="M61.96,35.01v-0.4l0.78,0.48v0.65l-0.53-0.31L61.96,35.01z"/>
<path d="M61.96,35.01V34.1l-0.72-0.7v1.36L61.96,35.01z"/>
<path d="M61.72,37.48H60.6l0.05,0.89h1.06L61.72,37.48z"/>
<path d="M60.6,37.48h1.11l-1.06,0.89L60.6,37.48z"/>
<path d="M61.38,36.74l-0.78,0.27v0.46h1.08L61.38,36.74z"/>
<path d="M61.21,40.92v-1.61h-0.49l0.12,1.61H61.21z"/>
<path d="M61.21,33.4l-2.79-6.76l-0.05,0.93l-0.12,0.04l2.96,7.1V33.4z"/>
<path d="M59.98,30.81l0.88,2.09v0.54l-0.89-2.12L59.98,30.81z"/>
<path d="M58.7,27.76l0.88,2.09v0.54l-0.89-2.12L58.7,27.76z"/>
</g>
<g id="Main_Macrobinoculars_Brow_Recon" fill="rgb(68, 68, 68)">
<rect x="25.59" y="17.15" width="28.76" height="1.18"/>
<path d="M30.08,24.31l-0.01-1.83l1.27-1.37l0,1.8L30.08,24.31z"/>
<path d="M30.07,22.48l0.01,1.83h-6.44l0.79-1.83H30.07z"/>
<g>
<rect x="24.77" y="22.79" width="0.79" height="0.6"/>
<rect x="24.77" y="23.4" width="0.79" height="0.74"/>
</g>
<g>
<rect x="26.07" y="22.79" width="0.79" height="0.6"/>
<rect x="26.07" y="23.4" width="0.79" height="0.74"/>
</g>
<g>
<rect x="27.38" y="22.79" width="0.79" height="0.6"/>
<rect x="27.38" y="23.4" width="0.79" height="0.74"/>
</g>
<g>
<rect x="28.68" y="22.79" width="0.79" height="0.6"/>
<rect x="28.68" y="23.4" width="0.79" height="0.74"/>
</g>
<path d="M29.08,24.31l-3.51,3.05h-1.93v-3.05H29.08z"/>
<path d="M24.77,27.36l-0.97,0.88l-2.24-0.67l1.51-3.27h0.56v3.05H24.77z"/>
<path d="M21.56,27.58l-0.05-0.93V25.2l4.07-8.05v1.18l-1.16,4.15l-0.79,1.83h-0.56L21.56,27.58z"/>
<path d="M21.76,24.71v1.93l3.55-8.12v-0.75L21.76,24.71z"/>
<path d="M22.52,23.24l1.29-4.65l1.1,0.33c0,0,0.04,1.34-0.29,2.51c-0.2,0.69-0.89,2.07-0.89,2.07L22.52,23.24z"/>
<path d="M23.83,18.59c0.2,0.06,0.08,1.15-0.27,2.43c-0.35,1.28-0.81,2.28-1.01,2.22c-0.2-0.06-0.08-1.14,0.27-2.43 C23.16,19.52,23.62,18.53,23.83,18.59z"/>
<path d="M23.56,19.43c0.12,0.03,0.03,0.72-0.19,1.53c-0.22,0.81-0.5,1.44-0.62,1.41c-0.12-0.03-0.03-0.72,0.19-1.53 C23.16,20.03,23.44,19.4,23.56,19.43z"/>
<path d="M23.92,18.95l0.99,0.27"/>
<path d="M23.9,19.32l1,0.27"/>
<path d="M23.87,19.59l1.02,0.27"/>
<path d="M23.81,19.93l1.04,0.26"/>
<path d="M23.76,20.19l1.06,0.24"/>
<path d="M23.66,20.62l1.08,0.33"/>
<path d="M23.6,20.84l1.09,0.31"/>
<path d="M23.48,21.28l1.09,0.31"/>
<path d="M23.42,21.48l1.08,0.32"/>
<path d="M23.26,21.95l1.04,0.31"/>
<path d="M23.18,22.16l1.04,0.29"/>
<path d="M23.05,22.5l1.01,0.3"/>
<path d="M22.98,22.65l1.01,0.3"/>
<path d="M22.85,22.9l1.01,0.31"/>
<path d="M22.75,23.07l1.04,0.29"/>
<path d="M49.86,24.31l0.01-1.83l-1.27-1.37l0.01,1.8L49.86,24.31z"/>
<path d="M49.87,22.48l-0.01,1.83h6.44l-0.79-1.83H49.87z"/>
<path d="M50.86,24.31l3.51,3.05h1.93v-3.05H50.86z"/>
<path d="M55.17,27.36l0.97,0.88l2.24-0.67l-1.51-3.27H56.3v3.05H55.17z"/>
<path d="M58.38,27.58l0.05-0.93V25.2l-4.07-8.05v1.18l1.16,4.15l0.79,1.83h0.56L58.38,27.58z"/>
<path d="M58.18,24.71v1.93l-1.28-2.92h-0.6l-0.59-1.36l-1.09-3.84v-0.75L58.18,24.71z"/>
<path d="M25.59,18.33h28.76l1.16,4.15h-5.64l-1.27-1.37H31.34l-1.27,1.37h-5.64L25.59,18.33z"/>
<path d="M31.34,21.11H48.6l0.01,1.8l-0.45-0.43H31.78l-0.45,0.43L31.34,21.11z"/>
<path d="M55.01,23.07h-4.38v0.65h4.72L55.01,23.07z"/>
<path d="M55.26,19.49l0.22,0.52v0.55L55.26,20L55.26,19.49z"/>
<path d="M55.64,20.25l0.22,0.52v0.55l-0.23-0.56L55.64,20.25z"/>
<path d="M56.01,21.01l0.22,0.52v0.55L56,21.52L56.01,21.01z"/>
<path d="M56.38,21.76l0.22,0.52v0.55l-0.23-0.56L56.38,21.76z"/>
<rect x="51.46" y="16.55" width="2.55" height="0.6"/>
<path d="M51.46,16.67l-0.35,0.2v0.28h0.35V16.67z"/>
<path d="M54,16.67l0.35,0.2v0.28H54V16.67z"/>
</g>
<path fill="rgb(255, 214, 0)" id="Visor_Macrobinoculars_Brow_Recon" d="M53.58,17.43c0.07,0,0.14,0.03,0.19,0.08 c0.05,0.05,0.08,0.12,0.08,0.19c0,0.02,0,0.05,0,0.07c0,0.07-0.03,0.14-0.08,0.19c-0.05,0.05-0.12,0.08-0.19,0.08H26.36 c-0.07,0-0.14-0.03-0.19-0.08c-0.05-0.05-0.08-0.12-0.08-0.19c0-0.02,0-0.05,0-0.07c0-0.07,0.03-0.14,0.08-0.19 c0.05-0.05,0.12-0.08,0.19-0.08H53.58z"/>
</g>
</g></g>
<g id="HelmetsDecals" mask="url(#HelmetsMask)"/>
<g id="Shoulders">
<g id="Left-Shoulder"><g id="Legacy-x2_Shoulder_Left" class="option" style="display: inherit;">
<path id="Plate-2_Shoulder_Left_Legacy-x2" d="M115.99,15.27l-5.8,8.69l5.95,8.29l9.39-2.29l5.9,3.63l4.41-1.15 L115.99,15.27z" fill="rgb(159, 33, 33)"/>
<path id="Trauma-Plate-2_Shoulder_Legacy-x2_Left" class="toggle" style="" d="M131.69,31.78l2.85-0.74l-17.1-14.9l-5.19,7.75 l4.6,6.43l8.64-2.17L131.69,31.78z" fill="rgb(0, 0, 0)"/>
<path id="Plate-1_Shoulder_Left_Legacy-x2" d="M108.85,10.82l-2.61,10.1l8.36,5.89l8.12-5.22l6.77,1.51l3.79-2.53 L108.85,10.82z" fill="rgb(140, 25, 25)"/>
<path id="Trauma-Plate-1_Shoulder_Legacy-x2_Left" class="toggle" style="" d="M129.14,21.3l2.45-1.64L110.5,11.2l-2.33,9.02 l6.47,4.56l7.43-4.88L129.14,21.3z" fill="rgb(0, 0, 0)"/>
</g></g>
<g id="Right-Shoulder"><g id="Legacy-x3_Shoulder_Right" class="option" style="display: inherit;">
<path id="Plate-3_Shoulder_Right_Legacy-x3" d="M50.05,19.89l7.33,7.47l-4.29,9.25l-9.66-0.51l-5.11,4.66 l-4.55-0.32L50.05,19.89z" fill="rgb(146, 37, 186)"/>
<path id="Trauma-Plate-3_Shoulder_Legacy-x3_Right" class="toggle" style="" d="M37.7,39.03l-2.94-0.21L48.8,21.04l6.54,6.67 l-3.32,7.16l-8.89-0.55L37.7,39.03z" fill="rgb(0, 0, 0)"/>
<path id="Plate-2_Shoulder_Right_Legacy-x3" d="M54.01,15.27l5.8,8.69l-5.95,8.29l-9.39-2.29l-5.9,3.63l-4.41-1.15 L54.01,15.27z" fill="rgb(122, 30, 172)"/>
<path id="Trauma-Plate-2_Shoulder_Legacy-x3_Right" class="toggle" style="" d="M38.31,31.78l-2.85-0.74l17.1-14.9l5.19,7.75 l-4.6,6.43l-8.64-2.17L38.31,31.78z" fill="rgb(0, 0, 0)"/>
<path id="Plate-1_Shoulder_Right_Legacy-x3" d="M61.15,10.82l2.61,10.1l-8.36,5.89l-8.12-5.22l-6.77,1.51 l-3.79-2.53L61.15,10.82z" fill="rgb(126, 39, 161)"/>
<path id="Trauma-Plate-1_Shoulder_Legacy-x3_Right" class="toggle" style="" d="M40.86,21.3l-2.45-1.64l21.09-8.46l2.33,9.02 l-6.47,4.56l-7.44-4.88L40.86,21.3z" fill="rgb(0, 0, 0)"/>
</g></g>
</g>
<g id="ShouldersDecals" mask="url(#ShouldersMask)">
</g>
<g id="Gauntlets">
<g id="Left-Gauntlets"><g id="Heavy_Gauntlet_Left" class="option" style="display: inherit;">
<g id="Top-2_Heavy_Gauntlet_Left" fill="rgb(0, 0, 0)">
<path d="M140.68,79.64l1.74,0.13l1.43,8.11l-1.48,1.23L140.68,79.64z"/>
<path d="M142.25,88.39l1.82,10.57l-0.95,1.28l1.11,6.22l-0.44,0.32l-3.07-17.02L142.25,88.39z"/>
<ellipse cx="142.26" cy="85.76" rx="0.38" ry="0.38"/>
</g>
<g id="Top-1_Heavy_Gauntlet_Left" fill="rgb(71, 71, 71)">
<path d="M139.42,107.96l4.36-1.17l-3.07-17.02l1.54-1.38l-1.66-9.27l-6.59-0.67L139.42,107.96z"/>
<path d="M138.89,78.94l1.82,10.82"/>
</g>
<g id="Accent-Top_Heavy_Gauntlet_Left" fill="rgb(132, 28, 28)">
<path d="M142.53,104.17l-2.77,0.56l0.42,2.15l2.77-0.65L142.53,104.17z"/>
<path d="M140.78,95.16l-2.77,0.56l1.62,8.4l2.77-0.56L140.78,95.16z"/>
<path d="M138.29,79.56l-3.13-0.24l1.64,9.21l2.91-0.59L138.29,79.56z"/>
</g>
<path id="Bottom_Heavy_Gauntlet_Left" d="M134.08,78.88c-3.37,0.13-6.88,1.57-9.06,4.4 c-0.71,0.92-0.92,2.12-0.58,3.22c1.64,5.35,7.01,22.84,7.01,22.84l7.98-1.39L134.08,78.88z" fill="rgb(44, 44, 44)"/>
<g id="Accent-Bottom_Heavy_Gauntlet_Left" fill="rgb(126, 31, 31)">
<path d="M139.42,107.96l-7.98,1.39l-0.43-1.41l8.13-1.52L139.42,107.96z"/>
<path d="M134.44,80.86c-4.35,0.43-7.98,2.01-9.69,6.7l-0.32-1.04c-0.27-0.87-0.19-1.8,0.2-2.61l0.41-0.65 c2.19-2.81,5.68-4.24,9.03-4.37L134.44,80.86z"/>
<path d="M133.31,79.53l-3.52,0.69l2.77,13.89l3.52-0.69L133.31,79.53z"/>
<path d="M132.9,79.88l-2.59,0.51l2.56,12.85l2.59-0.51L132.9,79.88z"/>
<path d="M130.3,80.39l-0.51-0.17"/>
<path d="M133.31,79.53l-0.41,0.35"/>
<path d="M136.08,93.42l-0.62-0.7"/>
<path d="M132.56,94.12l0.37-0.89"/>
</g><g id="No-Device_Attachment_Heavy_Gauntlet_Left" class="option" style="display: inherit;">
</g>
</g></g>
<g id="Right-Gauntlets"><g id="Heavy_Gauntlet_Right" class="option" style="display: inherit;">
<g id="Top-2_Heavy_Gauntlet_Right" fill="rgb(0, 0, 0)">
<path d="M29.5,79.64l-1.74,0.13l-1.43,8.11l1.48,1.23L29.5,79.64z"/>
<path d="M27.93,88.39l-1.82,10.57l0.95,1.28l-1.11,6.22l0.44,0.32l3.07-17.02L27.93,88.39z"/>
<ellipse cx="27.92" cy="85.76" rx="0.38" ry="0.38"/>
</g>
<g id="Top-1_Heavy_Gauntlet_Right" fill="rgb(71, 71, 71)">
<path d="M30.76,107.96l-4.36-1.17l3.07-17.02l-1.54-1.38l1.66-9.27l6.59-0.67L30.76,107.96z"/>
<path d="M31.29,78.94l-1.82,10.82"/>
</g>
<g id="Accent-Top_Heavy_Gauntlet_Right" fill="rgb(132, 28, 28)">
<path d="M27.66,104.17l2.77,0.56l-0.42,2.15l-2.77-0.65L27.66,104.17z"/>
<path d="M29.4,95.16l2.77,0.56l-1.62,8.4l-2.77-0.56L29.4,95.16z"/>
<path d="M31.89,79.56l3.13-0.24l-1.64,9.21l-2.91-0.59L31.89,79.56z"/>
</g>
<path id="Bottom_Heavy_Gauntlet_Right" d="M36.11,78.88c3.37,0.13,6.88,1.57,9.06,4.4 c0.71,0.92,0.92,2.12,0.58,3.22c-1.64,5.35-7.01,22.84-7.01,22.84l-7.98-1.39L36.11,78.88z" fill="rgb(44, 44, 44)"/>
<g id="Accent-Bottom_Heavy_Gauntlet_Right" fill="rgb(126, 31, 31)">
<path d="M30.76,107.96l7.98,1.39l0.43-1.41l-8.13-1.52L30.76,107.96z"/>
<path d="M35.74,80.86c4.35,0.43,7.98,2.01,9.69,6.7l0.32-1.04c0.27-0.87,0.19-1.8-0.2-2.61l-0.41-0.65 c-2.19-2.81-5.68-4.24-9.03-4.37L35.74,80.86z"/>
<path d="M36.88,79.53l3.52,0.69l-2.77,13.89l-3.52-0.69L36.88,79.53z"/>
<path d="M37.29,79.88l2.59,0.51l-2.56,12.85l-2.59-0.51L37.29,79.88z"/>
<path d="M39.88,80.39l0.51-0.17"/>
<path d="M36.88,79.53l0.41,0.35"/>
<path d="M34.1,93.42l0.62-0.7"/>
<path d="M37.62,94.12l-0.37-0.89"/>
</g><g id="No-Device_Attachment_Heavy_Gauntlet_Right" class="option" style="display: inherit;">
</g>
</g></g>
</g>
<g id="GauntletsDecals" mask="url(#GauntletsMask)">
</g>
<g id="Shins">
<g id="Left-Shin"><g id="Legacy_Shin_Left" class="option" style="display: inherit;">
<path id="Plate-3_Legacy-Shin_Left" d="M106.28,197.61l4.11,15.38c0,0,4.92,0.96,7.57,0.65 c2.65-0.31,6.2-1.73,6.2-1.73l-1.54-16.54l-7.09,4.38L106.28,197.61" fill="rgb(127, 23, 23)"/>
<path id="Plate-2_Legacy-Shin_Left" d="M103.21,188.12l2.4,9.33l9.92,2.29l7.71-4.76l-0.77-9.42l-8.66,4.43 L103.21,188.12" fill="rgb(126, 20, 20)"/>
<path id="Plate-1_Legacy-Shin_Left" d="M106.81,174.99l-5.99,6.53l1.7,6.48l11.29,2l9.26-4.74l-0.62-7.98 l-7.29-3.49L106.81,174.99" fill="rgb(141, 34, 34)"/>
<path id="Trauma-Plate-3_Legacy-Shin_Left" class="toggle" style="" d="M121.19,198.24l-4.76,2.94 c-0.38,0.24-0.84,0.31-1.28,0.21l-6.5-1.5l3.11,11.63c1.5,0.25,4.28,0.65,6.01,0.44c1.54-0.18,3.41-0.77,4.59-1.18L121.19,198.24 " fill="rgb(54, 54, 54)"/>
<path id="Trauma-Plate-2_Legacy-Shin_Left" class="toggle" style="" d="M120.98,188.23l-6.39,3.27 c-0.33,0.17-0.71,0.23-1.08,0.16l-8.01-1.42l1.49,5.8l8.23,1.9l6.23-3.85L120.98,188.23" fill="rgb(46, 46, 46)"/>
<path id="Trauma-Plate-1_Legacy-Shin_Left" class="toggle" style="" d="M107.66,176.57l-4.95,5.41l1.19,4.54l9.65,1.71l7.75-3.96 l-0.46-5.89l-5.94-2.85L107.66,176.57" fill="rgb(56, 56, 56)"/>
<g id="Ridge_Legacy-Shin_Left" class="toggle" style="" fill="rgb(71, 21, 21)">
<path d="M115.66,213.72l0.59,0.02c-0.32,0-0.63-0.01-0.93-0.05L115.66,213.72"/>
<path d="M116.89,188.48l1.15,9.78l-2.5,1.55l-3.59-0.83l-2.06-9.61l3.93,0.7L116.89,188.48"/>
<path d="M118.04,198.25l1.76,15.04c-1.13,0.24-2.37,0.44-3.54,0.45l-0.59-0.02l-0.34-0.02l-0.23-0.02l-3.15-14.71 l3.59,0.83L118.04,198.25"/>
<path d="M106.82,175.04l-0.01-0.05l4.01-1.6l4.34,0.4l0.01,0.06l-0.01,0l-0.02,0l0.02,0l0.01,0l1.71,14.63 l-3.08,1.57l-3.93-0.7L106.82,175.04"/>
<path d="M110.83,173.38l2.99,16.67"/>
<path d="M113.81,190.05l1.72,9.75"/>
<path d="M115.53,199.8l2.28,13.84"/>
</g>
</g></g>
<g id="Right-Shin"><g id="Legacy_Shin_Right" class="option" style="display: inherit;">
<path id="Plate-3_Legacy-Shin_Right" d="M63.61,197.61l-4.11,15.38c0,0-4.92,0.96-7.57,0.65 c-2.65-0.31-6.2-1.73-6.2-1.73l1.55-16.54l7.09,4.38L63.61,197.61" fill="rgb(127, 23, 23)"/>
<path id="Plate-2_Legacy-Shin_Right" d="M66.68,188.12l-2.4,9.33l-9.92,2.29l-7.71-4.76l0.77-9.42l8.66,4.43 L66.68,188.12" fill="rgb(126, 20, 20)"/>
<path id="Plate-1_Legacy-Shin_Right" d="M63.08,174.99l5.99,6.53l-1.7,6.48l-11.29,2l-9.26-4.74l0.62-7.98 l7.29-3.49L63.08,174.99" fill="rgb(141, 34, 34)"/>
<path id="Trauma-Plate-3_Legacy-Shin_Right" class="toggle" style="" d="M48.71,198.24l4.76,2.94c0.38,0.24,0.84,0.31,1.28,0.21 l6.5-1.5l-3.11,11.63c-1.5,0.25-4.28,0.65-6.01,0.44c-1.54-0.18-3.41-0.77-4.59-1.18L48.71,198.24" fill="rgb(54, 54, 54)"/>
<path id="Trauma-Plate-2_Legacy-Shin_Right" class="toggle" style="" d="M48.91,188.23l6.39,3.27c0.33,0.17,0.71,0.23,1.08,0.16 l8.01-1.42l-1.49,5.8l-8.23,1.9l-6.23-3.85L48.91,188.23" fill="rgb(46, 46, 46)"/>
<path id="Trauma-Plate-1_Legacy-Shin_Right" class="toggle" style="" d="M62.23,176.57l4.95,5.41L66,186.52l-9.65,1.71 l-7.75-3.96l0.46-5.89l5.94-2.85L62.23,176.57" fill="rgb(56, 56, 56)"/>
<g id="Ridge_Legacy-Shin_Right" class="toggle" style="" fill="rgb(71, 21, 21)">
<path d="M54.23,213.72l-0.59,0.02c0.32,0,0.63-0.01,0.94-0.05L54.23,213.72"/>
<path d="M53,188.48l-1.15,9.78l2.5,1.55l3.59-0.83l2.06-9.61l-3.93,0.7L53,188.48"/>
<path d="M51.86,198.25l-1.76,15.04c1.13,0.24,2.37,0.44,3.54,0.45l0.59-0.02l0.34-0.02l0.23-0.02l3.15-14.71 l-3.59,0.83L51.86,198.25"/>
<path d="M63.07,175.04l0.01-0.05l-4.01-1.6l-4.34,0.4l-0.01,0.06l0.01,0l0.02,0l-0.02,0l-0.01,0L53,188.48 l3.08,1.57l3.93-0.7L63.07,175.04"/>
<path d="M59.06,173.38l-2.99,16.67"/>
<path d="M56.08,190.05l-1.72,9.75"/>
<path d="M54.36,199.8l-2.28,13.84"/>
</g>
</g></g>
</g>
<g id="ShinsDecals" mask="url(#ShinsMask)">
</g>
<g id="Foot">
<g id="Left-Ankle"><g id="Heavy_Ankle_Left" class="option" style="display: inherit;">
<path id="Plate_Heavy-Ankle_Left" d="M107.19,218.98l0.36,3.6l7.43,9.26l7.24-3.25l7.88-2.03l-5.95-10.52 c-3.01-0.42-6.51-0.06-10.55,1.15l-2.25,1.97L107.19,218.98" fill="rgb(41, 41, 41)"/>
<path id="Trim_Heavy-Ankle_Left" d="M113.6,217.2l0.85,1.02l-2.65,2.25l-3-0.13l0.11,1.46l6.44,7.92l6.46-3.01 l7.78-1.84l0.81,1.62l-8.16,2.1l-7.24,3.25l-7.43-9.26l-0.36-3.6l4.16,0.18L113.6,217.2" fill="rgb(152, 35, 35)"/>
</g></g>
<g id="Left-Toe"><g id="None_Toe_Left" class="option" style="display: inherit;">
</g>
</g>
<g id="Right-Ankle"><g id="Heavy_Ankle_Right" class="option" style="display: inherit;">
<path id="Plate_Heavy-Ankle_Right" d="M62.68,218.98l-0.36,3.6l-7.43,9.26l-7.24-3.25l-7.88-2.03l5.95-10.52 c3-0.42,6.51-0.06,10.55,1.15l2.25,1.97L62.68,218.98" fill="rgb(41, 41, 41)"/>
<path id="Trim_Heavy-Ankle_Right" d="M56.27,217.2l-0.85,1.02l2.65,2.25l3.01-0.13l-0.11,1.46l-6.44,7.92 l-6.46-3.01l-7.78-1.84l-0.81,1.62l8.16,2.1l7.24,3.25l7.43-9.26l0.36-3.6l-4.16,0.18L56.27,217.2" fill="rgb(152, 35, 35)"/>
</g></g>
<g id="Right-Toe"><g id="None_Toe_Right" class="option" style="display: inherit;">
</g>
</g>
</g>
<g id="FootDecals" mask="url(#FootMask)">
</g>
<g id="Knees">
<g id="Left-Knee"><g id="Legacy_Knee_Left" class="option" style="display: inherit;">
<g id="Missiles_Legacy-Knee_Left" class="toggle" style="display:none"/>
<path id="Plate-2_Legacy-Knee_Left" d="M117.29,162.86l-4.01-2.79l-8.96,1.38l-3.49,3.94l2.88,9.64h7.1l6.7-2.13 L117.29,162.86z" fill="rgb(49, 49, 49)"/>
<path id="Plate-1_Legacy-Knee_Left" d="M118.65,156.34l-5.14-3.57l-11.49,1.78l-4.48,5.06l3.69,12.35l9.36-0.08 l8.32-2.65L118.65,156.34z" fill="rgb(124, 35, 35)"/>
</g></g>
<g id="Right-Knee"><g id="Legacy_Knee_Right" class="option" style="display: inherit;">
<g id="Missiles_Legacy-Knee_Right" class="toggle" style="display:none"/>
<path id="Plate-2_Legacy-Knee_Right" d="M52.6,162.86l4.01-2.79l8.97,1.38l3.49,3.94l-2.88,9.64h-7.1l-6.7-2.13 L52.6,162.86z" fill="rgb(49, 49, 49)"/>
<path id="Plate-1_Legacy-Knee_Right" d="M51.24,156.34l5.14-3.57l11.49,1.78l4.48,5.06l-3.69,12.35l-9.36-0.08 l-8.32-2.65L51.24,156.34z" fill="rgb(124, 35, 35)"/>
</g></g>
</g>
<g id="KneesDecals" mask="url(#KneesMask)">
</g>
<g id="Thighs">
<g id="Left-Thigh"><g id="Heavy_Thigh_Left" class="option" style="display: inherit;">
<g id="Thigh_Heavy-Thigh_Left" fill="rgb(55, 55, 55)">
<path d="M97.62,118.12l-5.78,7.32l6.6,26.24l4.49,1.59l-3.13-29.91L97.62,118.12"/>
<path d="M112.37,116.59l7.17,5.98l-1.03,27.03l-4.06,2.47l-3.13-29.91L112.37,116.59"/>
<path d="M112.37,116.59l-14.76,1.52l2.19,5.24l11.51-1.19L112.37,116.59"/>
<path d="M111.32,122.17l-11.51,1.19l3.13,29.91l11.51-1.19L111.32,122.17"/>
</g>
<g id="Trim_Heavy-Thigh_Left" fill="rgb(137, 28, 28)">
<path d="M112.95,114.3l-16.38,1.69l1.04,2.13l14.76-1.52L112.95,114.3"/>
<path d="M119.26,120.01l-6.31-5.72l-0.58,2.3l7.17,5.98L119.26,120.01"/>
<path d="M91.59,122.87l4.99-6.88l1.04,2.13l-5.78,7.32L91.59,122.87"/>
</g>
</g></g>
<g id="Right-Thigh"><g id="Heavy_Thigh_Right" class="option" style="display: inherit;">
<g id="Thigh_Heavy-Thigh_Right" fill="rgb(55, 55, 55)">
<path d="M72.28,118.12l5.78,7.32l-6.6,26.24l-4.49,1.59l3.13-29.91L72.28,118.12"/>
<path d="M57.52,116.59l-7.17,5.98l1.03,27.03l4.06,2.47l3.13-29.91L57.52,116.59"/>
<path d="M57.52,116.59l14.76,1.52l-2.19,5.24l-11.51-1.19L57.52,116.59"/>
<path d="M58.58,122.17l11.51,1.19l-3.13,29.91l-11.51-1.19L58.58,122.17"/>
</g>
<g id="Trim_Heavy-Thigh_Right" fill="rgb(137, 28, 28)">
<path d="M56.94,114.3l16.38,1.69l-1.04,2.13l-14.76-1.52L56.94,114.3"/>
<path d="M50.63,120.01l6.31-5.72l0.58,2.3l-7.17,5.98L50.63,120.01"/>
<path d="M78.31,122.87l-4.99-6.88l-1.04,2.13l5.78,7.32L78.31,122.87"/>
</g>
</g></g>
</g>
<g id="ThighsDecals" mask="url(#ThighsMask)">
</g>
<g id="Groin"><g id="Basic_Groin" class="option" style="display: inherit;">
<path id="Groin-Plate_Basic" d="M78.67,122.29L68.22,99.4h33.42l-10.45,22.89l-6.26,5.46L78.67,122.29z" fill="rgb(137, 28, 28)"/>
<path id="Trauma-Plating_Groin" class="toggle" style="" d="M79.77,120.38l-8.61-18.86H98.7l-8.61,18.86l-5.16,4.49L79.77,120.38z" fill="rgb(39, 39, 39)"/>
</g>
</g>
<g id="GroinDecals" mask="url(#GroinMask)">
</g>
<g id="Waist">
<g id="Accessories_Waist">
<g id="Kama" class="toggle" style="">
<g id="Clean_Kama" class="option" style="display: inherit;">
<g id="Trim_Kama-Clean" fill="rgb(129, 28, 28)">
<path d="M101.37,83.6l3.59,57.21l26.42,17.47l-20.04-77.38L101.37,83.6z"/>
<path d="M68.55,83.6l-3.59,57.21l-26.42,17.47l20.04-77.38L68.55,83.6z"/>
</g>
<g id="Main_Kama-Clean" fill="rgb(0, 0, 0)">
<path d="M103.25,83.48l3.47,55.33l23.83,16.29l-19.22-74.21L103.25,83.48z"/>
<path d="M66.67,83.48l-3.47,55.33L39.36,155.1l19.22-74.21L66.67,83.48z"/>
</g>
</g></g>
<g id="Loin-Cloth" class="toggle" style="display:none"/>
<g id="Left-Holster" class="toggle" style=""><g id="Belt-Holster_Left" class="option" style="display: inherit;">
<g id="Weapon_Belt-Holster-Left">
<g id="Main_Weapon_Belt-Holster-Left" fill="rgb(77, 77, 77)">
<path d="M116.79,99.11l-0.24-3.6l0.62-0.04l-0.15-2.26l-0.62,0.04l-0.08-1.18c-0.03-0.38,0.46-0.73,1.1-0.77 c1.45-0.1,3.93-0.26,5.37-0.36c0.63-0.04,1.17,0.23,1.19,0.62l0.08,1.18l-0.62,0.04l0.15,2.26l0.62-0.04l0.24,3.6l-1.46,0.1 l0.67,9.95l-4.73,0.31l-0.67-9.95L116.79,99.11z"/>
<path d="M123.79,98.11l-0.84,0.06l0.8,11.96l-4.73,0.31l-0.8-11.96l-0.84,0.06l-0.18-2.73l6.41-0.42L123.79,98.11 z"/>
<path d="M122.05,91.78l-3.8,0.25l0.25,3.69l3.8-0.25L122.05,91.78z"/>
<path d="M119.38,99.49l-0.62,0.04l0.63,9.4l0.62-0.04L119.38,99.49z"/>
<path d="M120.82,97.23l-0.62,0.04l0.63,9.4l0.62-0.04L120.82,97.23z"/>
<path d="M122.56,99.28l-0.62,0.04l0.63,9.4l0.62-0.04L122.56,99.28z"/>
</g>
<g id="Accent_Weapon_Belt-Holster-Left" fill="rgb(0, 0, 0)">
<path d="M119.09,96.06l0.03,0.38l2.68-0.18l-0.03-0.38L119.09,96.06z"/>
<path d="M119.11,96.44l0.03,0.38l2.68-0.18l-0.03-0.38L119.11,96.44z"/>
<path d="M119.06,95.68l0.02,0.38l2.68-0.18l-0.03-0.38L119.06,95.68z"/>
<path d="M118.75,91.05l0.03,0.38l2.68-0.18l-0.03-0.38L118.75,91.05z"/>
<path d="M118.88,91.99l-0.62,0.04l0.25,3.69l0.62-0.04L118.88,91.99z"/>
<path d="M122.05,91.78l-0.62,0.04l0.25,3.69l0.62-0.04L122.05,91.78z"/>
<path d="M121.93,99.32l-0.94,0.06l0.63,9.4l0.94-0.06L121.93,99.32z"/>
<path d="M120.33,99.42l-0.94,0.06l0.63,9.4l0.94-0.06L120.33,99.42z"/>
</g>
</g>
<path id="Holster_Belt-Holster-Left" d="M118.4,112.89l-2.47-14.99l8.29,10.56l0.79,20.68 c-1.44,1.89-3.04,2.08-4.84,0.36L118.4,112.89z" fill="rgb(111, 69, 33)"/>
</g>
</g>
<g id="Right-Holster" class="toggle" style=""><g id="Belt-Holster_Right" class="option" style="display: inherit;">
<g id="Weapon_Belt-Holster-Right">
<g id="Main_Weapon_Belt-Holster-Right" fill="rgb(77, 77, 77)">
<path d="M53.1,99.11l0.24-3.6l-0.62-0.04l0.15-2.26l0.62,0.04l0.08-1.18c0.03-0.38-0.47-0.73-1.1-0.77 c-1.45-0.1-3.93-0.26-5.37-0.36c-0.63-0.04-1.17,0.23-1.19,0.62l-0.08,1.18l0.62,0.04l-0.15,2.26L45.68,95l-0.24,3.6l1.46,0.1 l-0.67,9.95l4.73,0.31l0.67-9.95L53.1,99.11z"/>
<path d="M46.1,98.11l0.84,0.06l-0.8,11.96l4.73,0.31l0.8-11.96l0.84,0.06l0.18-2.73l-6.41-0.42L46.1,98.11z"/>
<path d="M47.84,91.78l3.8,0.25l-0.25,3.69l-3.8-0.25L47.84,91.78z"/>
<path d="M50.51,99.49l0.62,0.04l-0.63,9.4l-0.62-0.04L50.51,99.49z"/>
<path d="M49.07,97.23l0.62,0.04l-0.63,9.4l-0.62-0.04L49.07,97.23z"/>
<path d="M47.33,99.28l0.62,0.04l-0.63,9.4l-0.62-0.04L47.33,99.28z"/>
</g>
<g id="Accent_Weapon_Belt-Holster-Right" fill="rgb(0, 0, 0)">
<path d="M50.8,96.06l-0.03,0.38l-2.68-0.18l0.02-0.38L50.8,96.06z"/>
<path d="M50.78,96.44l-0.03,0.38l-2.68-0.18l0.03-0.38L50.78,96.44z"/>
<path d="M50.83,95.68l-0.02,0.38l-2.68-0.18l0.03-0.38L50.83,95.68z"/>
<path d="M51.14,91.05l-0.02,0.38l-2.68-0.18l0.03-0.38L51.14,91.05z"/>
<path d="M51.01,91.99l0.62,0.04l-0.25,3.69l-0.62-0.04L51.01,91.99z"/>
<path d="M47.84,91.78l0.62,0.04l-0.25,3.69l-0.62-0.04L47.84,91.78z"/>
<path d="M47.96,99.32l0.94,0.06l-0.63,9.4l-0.94-0.06L47.96,99.32z"/>
<path d="M49.56,99.42l0.94,0.06l-0.63,9.4l-0.94-0.06L49.56,99.42z"/>
</g>
</g>
<path id="Holster_Belt-Holster-Right" d="M51.49,112.89l2.47-14.99l-8.29,10.56l-0.79,20.68 c1.44,1.89,3.04,2.08,4.84,0.36L51.49,112.89z" fill="rgb(111, 69, 33)"/>
</g>
</g>
<g id="Left-Trophy" class="toggle" style="display:none"/>
<g id="Right-Trophy" class="toggle" style="display:none"/>
</g>
<g id="Under-Belt"><g id="Girth-Belt" class="option" fill="rgb(88, 30, 30)" style="display: inherit;">
<path d="M84.93,84.93c-9.33,0-27.98-2.25-27.98-2.25l0.61-1.91c0,0,18.19,1.5,27.37,2.25 c9.13-0.75,27.37-2.25,27.37-2.25l0.6,1.91C112.91,82.68,94.25,84.93,84.93,84.93z"/>
<path d="M84.93,86.84c-9.52,0-28.56-2.25-28.56-2.25l0.58-1.91c0,0,23.31,1.88,27.98,2.25 c4.66-0.38,27.98-2.25,27.98-2.25l0.58,1.91C113.49,84.59,94.45,86.84,84.93,86.84z"/>
<path d="M84.93,88.75c-9.67,0-28.99-2.25-28.99-2.25l0.43-1.91c0,0,23.8,1.88,28.56,2.25 c4.76-0.38,28.56-2.25,28.56-2.25l0.43,1.91C113.92,86.49,94.6,88.75,84.93,88.75z"/>
<path d="M84.93,90.65c-9.79,0-29.36-2.25-29.36-2.25l0.37-1.91c0,0,24.16,1.88,28.99,2.25 c4.83-0.38,28.99-2.25,28.99-2.25l0.37,1.91C114.29,88.4,94.72,90.65,84.93,90.65z"/>
<path d="M84.93,92.56c-9.9,0-29.69-2.25-29.69-2.25l0.33-1.91c0,0,24.47,1.88,29.36,2.25 c4.89-0.38,29.36-2.25,29.36-2.25l0.33,1.91C114.62,90.31,94.83,92.56,84.93,92.56z"/>
<path d="M84.93,94.47c-10,0-30-2.25-30-2.25l0.31-1.91c0,0,24.74,1.88,29.69,2.25c4.95-0.38,29.69-2.25,29.69-2.25 l0.31,1.91C114.93,92.21,94.93,94.47,84.93,94.47z"/>
<path d="M84.93,96.37c-10.1,0-30.31-2.25-30.31-2.25l0.31-1.91c0,0,25,1.88,30,2.25c5-0.38,30-2.25,30-2.25 l0.31,1.91C115.24,94.12,95.03,96.37,84.93,96.37z"/>
<path d="M84.93,98.28c-10.21,0-30.62-2.25-30.62-2.25l0.32-1.91c0,0,25.26,1.88,30.31,2.25 c5.05-0.38,30.31-2.25,30.31-2.25l0.32,1.91C115.55,96.03,95.14,98.28,84.93,98.28z"/>
<path d="M84.93,100.19c-10.32,0-30.97-2.25-30.97-2.25l0.34-1.91c0,0,25.52,1.88,30.62,2.25 c5.1-0.38,30.62-2.25,30.62-2.25l0.35,1.91C115.9,97.93,95.25,100.19,84.93,100.19z"/>
<path d="M84.93,102.09c-10.45,0-31.36-2.25-31.36-2.25l0.39-1.91c0,0,25.81,1.88,30.97,2.25 c5.16-0.38,30.97-2.25,30.97-2.25l0.39,1.91C116.29,99.84,95.38,102.09,84.93,102.09z"/>
</g>
</g>
<g id="Belt"><g id="Pouch-Belt-6" class="option" style="display: inherit;">
<path id="Main_Pouch-Belt-6" d="M115.21,92.95c-6.82,0.61-22.4,2.83-30.27,2.83c-7.94,0-23.52-2.23-30.26-2.82 l1.01-7.93c5.53,0.49,21.56,2.74,29.26,2.74c7.47,0,23.17-2.23,29.07-2.76L115.21,92.95z" fill="rgb(0, 0, 0)"/>
<rect id="Buckle_Pouch-Belt-6" x="79.37" y="87.01" width="11.28" height="9.21" fill="rgb(114, 21, 21)"/>
<g id="Pouches_Pouch-Belt-6" fill="rgb(107, 64, 27)">
<g>
<g>
<g>
<path d="M70.81,84.98c-0.29-0.02-0.58,0.03-0.84,0.13c-0.71,0.28-2.1,0.82-2.1,0.82l8.08,0.46l2.19-0.94 C78.13,85.46,72.44,85.09,70.81,84.98z"/>
<path d="M78.41,85.73c0.01-0.08-0.03-0.17-0.1-0.22c-0.07-0.05-0.16-0.06-0.24-0.03 c-0.7,0.3-2.14,0.91-2.14,0.91l-1.05,12.41c0.72-0.42,1.44-0.69,2.15-0.84c0.41-0.08,0.7-0.43,0.71-0.85 C77.88,93.32,78.03,89.51,78.41,85.73z"/>
<path d="M75.94,86.4l-8.08-0.46c-0.05,1.89-0.23,3.77-0.33,5.65c-0.11,2.08-0.15,4.18-0.34,6.28 c-0.01,0.15,0.04,0.3,0.14,0.41c0.1,0.11,0.25,0.18,0.4,0.18c2.32-0.01,4.63,0.13,6.93,0.4c0.14,0.02,0.29-0.02,0.4-0.12 c0.11-0.09,0.18-0.22,0.19-0.37c0.1-1.47,0.37-5.34,0.37-5.34L75.94,86.4z"/>
<path d="M75.94,86.4l-8.08-0.46c0,0-0.19,1.59-0.38,3.14c-0.09,0.75,0.13,1.51,0.62,2.09 c0.49,0.58,1.2,0.94,1.96,0.98c0.96,0.06,2.01,0.12,2.97,0.17c0.76,0.04,1.51-0.23,2.07-0.75c0.55-0.52,0.86-1.25,0.86-2.01 C75.95,87.99,75.94,86.4,75.94,86.4z"/>
<path d="M71.64,90.75c0.29,0.02,0.51,0.26,0.49,0.55c-0.02,0.28-0.26,0.5-0.55,0.49 c-0.29-0.02-0.51-0.26-0.49-0.55C71.11,90.96,71.36,90.74,71.64,90.75z"/>
</g>
</g>
<g>
<g>
<path d="M59.65,83.47c-0.31-0.02-0.62,0.03-0.91,0.16c-0.67,0.29-1.86,0.81-1.86,0.81l7.38,0.42l2-0.95 C66.26,83.91,61.24,83.57,59.65,83.47z"/>
<path d="M66.52,84.19c0.01-0.09-0.03-0.17-0.1-0.22c-0.07-0.05-0.17-0.06-0.24-0.02 c-0.66,0.31-1.91,0.9-1.91,0.9l-1.02,12.42c0.65-0.41,1.29-0.68,1.93-0.85c0.39-0.09,0.68-0.44,0.69-0.84 C65.99,91.78,66.15,87.98,66.52,84.19z"/>
<path d="M64.26,84.85l-7.38-0.42c-0.06,1.89-0.23,3.77-0.33,5.65c-0.11,2.08-0.16,4.17-0.34,6.28 c-0.01,0.15,0.04,0.3,0.14,0.41s0.25,0.18,0.4,0.17c2.08-0.01,4.15,0.11,6.22,0.36c0.14,0.02,0.29-0.02,0.4-0.12 c0.11-0.09,0.18-0.23,0.19-0.37c0.1-1.47,0.37-5.33,0.37-5.33L64.26,84.85z"/>
<path d="M64.26,84.85l-7.38-0.42c0,0-0.18,1.6-0.36,3.15c-0.09,0.75,0.14,1.51,0.63,2.08 c0.49,0.58,1.2,0.93,1.96,0.97c0.73,0.04,1.51,0.08,2.23,0.13c0.76,0.04,1.51-0.23,2.06-0.75c0.55-0.52,0.87-1.25,0.86-2 C64.26,86.46,64.26,84.85,64.26,84.85z"/>
<path d="M60.31,89.23c0.26,0.01,0.46,0.26,0.44,0.54c-0.02,0.28-0.24,0.5-0.5,0.49 c-0.26-0.01-0.46-0.26-0.44-0.54C59.83,89.44,60.05,89.22,60.31,89.23z"/>
</g>
</g>
<g>
<path d="M52.22,84.29l0.55-0.85l2.83,0.09l0.35,1.06L52.22,84.29z"/>
<path d="M55.93,84.69c0.01-0.07-0.01-0.13-0.06-0.18c-0.04-0.05-0.11-0.08-0.17-0.08 c-0.85-0.03-3.48-0.13-3.48-0.13l-0.5,11.17c0.11,0.28,1.53,0.46,2.68,0.49c0.5,0.01,0.91-0.38,0.92-0.88 C55.4,91.61,55.53,88.14,55.93,84.69z"/>
</g>
</g>
<g>
<g>
<g>
<path d="M99.08,84.98c0.29-0.02,0.58,0.03,0.85,0.13c0.71,0.28,2.1,0.82,2.1,0.82l-8.08,0.46l-2.19-0.94 C91.76,85.46,97.45,85.09,99.08,84.98z"/>
<path d="M91.48,85.73c-0.01-0.08,0.03-0.17,0.1-0.22c0.07-0.05,0.16-0.06,0.24-0.03c0.7,0.3,2.14,0.91,2.14,0.91 L95,98.81c-0.72-0.42-1.44-0.69-2.15-0.84c-0.41-0.08-0.7-0.43-0.71-0.85C92.01,93.32,91.86,89.51,91.48,85.73z"/>
<path d="M93.95,86.4l8.08-0.46c0.05,1.89,0.23,3.77,0.33,5.65c0.11,2.08,0.15,4.18,0.34,6.28 c0.01,0.15-0.04,0.3-0.14,0.41c-0.1,0.11-0.25,0.18-0.4,0.18c-2.32-0.01-4.63,0.13-6.93,0.4c-0.14,0.02-0.29-0.02-0.4-0.12 c-0.11-0.09-0.18-0.22-0.19-0.37c-0.1-1.47-0.37-5.34-0.37-5.34L93.95,86.4z"/>
<path d="M93.95,86.4l8.08-0.46c0,0,0.19,1.59,0.38,3.14c0.09,0.75-0.14,1.51-0.62,2.09 c-0.49,0.58-1.2,0.94-1.96,0.98c-0.96,0.06-2.01,0.12-2.97,0.17c-0.76,0.04-1.51-0.23-2.06-0.75 c-0.55-0.52-0.87-1.25-0.86-2.01C93.94,87.99,93.95,86.4,93.95,86.4z"/>
<path d="M98.25,90.75c-0.29,0.02-0.51,0.26-0.49,0.55c0.02,0.28,0.26,0.5,0.55,0.49 c0.29-0.02,0.51-0.26,0.49-0.55C98.78,90.96,98.54,90.74,98.25,90.75z"/>
</g>
</g>
<g>
<g>
<path d="M110.24,83.47c0.31-0.02,0.62,0.03,0.91,0.16c0.67,0.29,1.86,0.81,1.86,0.81l-7.38,0.42l-2-0.95 C103.63,83.91,108.65,83.57,110.24,83.47z"/>
<path d="M103.37,84.19c-0.01-0.09,0.03-0.17,0.1-0.22c0.07-0.05,0.17-0.06,0.24-0.02 c0.66,0.31,1.91,0.9,1.91,0.9l1.02,12.42c-0.65-0.41-1.29-0.68-1.93-0.85c-0.39-0.09-0.68-0.44-0.69-0.84 C103.9,91.78,103.74,87.98,103.37,84.19z"/>
<path d="M105.63,84.85l7.38-0.42c0.06,1.89,0.23,3.77,0.33,5.65c0.11,2.08,0.16,4.17,0.34,6.28 c0.01,0.15-0.04,0.3-0.14,0.41c-0.1,0.11-0.25,0.18-0.4,0.17c-2.08-0.01-4.15,0.11-6.22,0.36c-0.14,0.02-0.29-0.02-0.4-0.12 c-0.11-0.09-0.18-0.23-0.19-0.37c-0.1-1.47-0.37-5.33-0.37-5.33L105.63,84.85z"/>
<path d="M105.63,84.85l7.38-0.42c0,0,0.18,1.6,0.36,3.15c0.09,0.75-0.14,1.51-0.63,2.08 c-0.49,0.58-1.2,0.93-1.96,0.97c-0.72,0.04-1.5,0.08-2.23,0.13c-0.76,0.04-1.51-0.23-2.06-0.75c-0.55-0.52-0.87-1.25-0.86-2 C105.63,86.46,105.63,84.85,105.63,84.85z"/>
<path d="M109.58,89.23c-0.26,0.01-0.46,0.26-0.44,0.54c0.02,0.28,0.24,0.5,0.5,0.49 c0.26-0.01,0.46-0.26,0.44-0.54C110.07,89.44,109.84,89.22,109.58,89.23z"/>
</g>
</g>
<g>
<path d="M117.67,84.29l-0.55-0.85l-2.83,0.09l-0.35,1.06L117.67,84.29z"/>
<path d="M113.96,84.69c-0.01-0.07,0.01-0.13,0.06-0.18c0.04-0.05,0.11-0.08,0.18-0.08 c0.85-0.03,3.48-0.13,3.48-0.13l0.5,11.17c-0.11,0.28-1.53,0.46-2.68,0.49c-0.5,0.01-0.91-0.38-0.92-0.88 C114.49,91.61,114.36,88.14,113.96,84.69z"/>
</g>
</g>
</g>
</g></g>
</g>
<g id="WaistDecals" mask="url(#WaistMask)">
</g>
<g id="Extras_Front">
<g id="Front"><g id="None_Front" class="option" style="display: inherit;">
</g>
</g>
</g>
<g id="Extras-FrontDecals" mask="url(#FrontMask)">
</g>
</g>
</svg>