<?xml version='1.0' encoding='UTF-8'?>
<svg version="1.1" id="Male-Body" xmlns="http://www.w3.org/2000/svg" xmlns:serif="http://www.serif.com/" viewBox="0 -55 170 300" style="stroke-width: 0.2px; fill-rule: evenodd; stroke-linejoin: round;" width="170" height="300">
<style>
mask {
mask-type: alpha;
}
.decal {
stroke: none;
}
</style>
<defs id="Masks" stroke="none">
<mask id="HelmetsMask"> <use href="#Helmets"/> </mask>
<mask id="CollarMask"> <use href="#Collar"/> </mask>
<mask id="ShouldersMask"> <use href="#Shoulders"/> </mask>
<mask id="ChestMask"> <use href="#Chest"/> </mask>
<mask id="BicepsMask"> <use href="#Biceps"/> </mask>
<mask id="GauntletsMask"> <use href="#Gauntlets"/> </mask>
<mask id="WaistMask"> <use href="#Waist"/> </mask>
<mask id="GroinMask"> <use href="#Groin"/> </mask>
<mask id="ThighsMask"> <use href="#Thighs"/> </mask>
<mask id="KneesMask"> <use href="#Knees"/> </mask>
<mask id="ShinsMask"> <use href="#Shins"/> </mask>
<mask id="FootMask"> <use href="#Foot"/> </mask>
</defs>
<defs id="Decals"/><metadata><rdf:rdf xmlns:rdf="http://www.w3.org/1999/02/22-rdf-syntax-ns#" xmlns:rdfs="http://www.w3.org/2000/01/rdf-schema#" xmlns:dc="http://purl.org/dc/elements/1.1/"><rdf:description><dc:creator>MandoCreator</dc:creator><dc:publisher>https://www.mandocreator.com</dc:publisher><dc:description>Your Beskar'gam - created by MandoCreator</dc:description><dc:format>image/svg+xml</dc:format><dc:type>Image</dc:type><dc:title>MandoCreator - Ner Berskar'gam</dc:title><dc:date>2022-01-02T16:24:11.382Z</dc:date></rdf:description></rdf:rdf></metadata><g id="Main-Body" fill="white" stroke="black">
<g id="Extras_Back">
<g id="Back"><path id="Torn-Full-Cape_Back" class="option" d="M68.3,16.3c-11.77,4.4-24.85,25.6-26.46,41.8 c-1.01,10.2-6.03,20.5-5.53,30.7c0.5,10.3-4.73,21-5.13,31.2c-0.3,9.3-3.12,13.5-4.73,22.7c-2.41,13.7-5.03,22.7-7.14,36.5 c-1.71,10.9-6.84,19.9-9.25,23.3c-0.1,0.1,2.52-1.2,5.63-1.2c0.91,0,5.53-6.7,5.53-6.7s5.73,4.7,6.94,7.4 c1.51-1,2.72-15.2,4.53-15.7c0.91-0.3,2.62,17.8,2.62,17.8s2.72-5.4,3.82-5.4c2.31,0,6.44,2,8.75,2.3c2.41,0.3,5.03-3.8,7.74-3.1 c4.12,1,8.25,0.9,12.37,1.5c2.92,0.4,5.83,6,8.75,6c3.62,0,3.12-8.4,6.84-9.2c3.12-0.7,7.44,6.8,7.44,6.8s1-24.9,4.12-26 c4.12-1.3,19.51,18.8,23.74,18.4c1.31-0.1,2.92-12.7,4.12-12.7c2.72,0.1,5.03,13,7.74,13.5c3.32,0.6,5.03-5.6,8.25-4.8 c0.9,0.2,3.52,7.6,4.53,7.8c2.01,0.5,4.83,1.7,7.04,1.5c0.1,0-0.7-4.9-0.8-5.4c-0.5-2.3-1.21-4.6-2.21-6.8 c-1.11-2.6-2.51-5.2-4.02-7.6c-7.14-11.2-4.63-23.4-5.94-36.6c-1.21-12.8,0.1-25.6-2.11-38.4c-1.91-11.3-8.65-21.8-10.36-33.2 C123.12,59.3,118.6,45,114.47,32C109.44,16.1,80.07,11.9,68.3,16.3z M71.62,186c-0.9,2.4-1.31,4.9-1.01,7.5 c0.1,1.2,0.5,2.4,1.01,3.4c0.1,0.1,0.1,0.4,0.2,0.3C76.25,193.3,71.62,186,71.62,186z M37.12,161.8c-0.4,7.7-1.11,15.5-1.11,23.2 c0,1.4,0,2.9,0.2,4.3c0,0.2,0.2,2.3,0.4,2.3c2.62-0.5,1.41-7.7,2.01-9.9C40.64,174.1,37.12,161.8,37.12,161.8z M129.36,188.6 c-0.2,2.8,0.6,2.5,1.31,1.1c0.7-1.4,1.31-3.9,0.6-5.5L129.36,188.6z M117.89,164.2c-0.6,4.6,0.4,8.6,0.71,13.2 c0.1,1.5,0.1,3,0.1,4.5v1.5c0,0.3-0.2,1,0,0.8c3.52-3.6,3.12-10.7,2.01-15.2L117.89,164.2z M75.85,177.9c0,1.2,0,2.4,0.1,3.6 c0.3,2.4,1.71-1.4,1.71-2.3c0-1.3-0.81-2.8-1.21-4.1L75.85,177.9z" fill="rgb(14, 17, 14)" style="display: inherit;"/></g>
</g>
<g id="Extras-BackDecals" mask="url(#BackMask)">
</g>
<g id="Suit">
<g id="Neck-Seal"><g id="Standard-Neck-Seal" class="option" fill="rgb(15, 19, 14)" style="display: inherit;">
<path d="M98.75,7.5c0-0.9-0.93-1.62-2.07-1.62c0,0-7.8,0.85-11.7,0.85s-11.7-0.85-11.7-0.85 c-1.14,0-2.07,0.73-2.07,1.62s0.93,1.62,2.07,1.62c0,0,7.8,0.85,11.7,0.85s11.7-0.85,11.7-0.85C97.83,9.13,98.75,8.4,98.75,7.5z"/>
<path d="M99.45,9.4c0-0.94-0.97-1.71-2.17-1.71c0,0-8.2,0.9-12.29,0.9S72.69,7.7,72.69,7.7 c-1.2,0-2.17,0.76-2.17,1.71s0.97,1.71,2.17,1.71c0,0,8.2,0.9,12.29,0.9s12.29-0.9,12.29-0.9C98.48,11.11,99.45,10.34,99.45,9.4z "/>
<path d="M100.24,11.76c0-0.99-1.03-1.8-2.29-1.8c0,0-8.64,0.95-12.96,0.95S72.02,9.96,72.02,9.96 c-1.26,0-2.29,0.81-2.29,1.8s1.03,1.8,2.29,1.8c0,0,8.64,0.95,12.97,0.95s12.96-0.95,12.96-0.95 C99.21,13.56,100.24,12.75,100.24,11.76z"/>
<path d="M101,13.92c0-1.04-1.08-1.89-2.41-1.89c0,0-9.08,0.99-13.61,0.99s-13.61-0.99-13.61-0.99 c-1.33,0-2.41,0.85-2.41,1.89c0,1.04,1.08,1.89,2.41,1.89c0,0,9.08,0.99,13.61,0.99s13.61-0.99,13.61-0.99 C99.93,15.81,101,14.96,101,13.92z"/>
<path d="M101.76,16.04c0-0.79-1.13-1.43-2.52-1.43c0,0-9.51,0.75-14.26,0.75s-14.26-0.75-14.26-0.75 c-1.39,0-2.52,0.64-2.52,1.43c0,0.79,1.13,1.43,2.52,1.43c0,0,9.51,0.75,14.26,0.75s14.26-0.75,14.26-0.75 C100.63,17.47,101.76,16.83,101.76,16.04z"/>
<path d="M101.76,18.42c0-0.79-1.13-1.43-2.52-1.43c0,0-9.51,0.75-14.26,0.75s-14.26-0.75-14.26-0.75 c-1.39,0-2.52,0.64-2.52,1.43c0,0.79,1.13,1.43,2.52,1.43c0,0,9.51,1.44,14.26,1.44s14.26-1.44,14.26-1.44 C100.63,19.84,101.76,19.21,101.76,18.42z"/>
</g>
</g>
<g id="Flight-Suit" fill="rgb(11, 16, 11)">
<path d="M73.36,158.45l-1.49,8.72l-11.03,53.11c0,0-4.93,2.96-7.47,3.46c-2.53,0.5-7.73-0.44-7.73-0.44l3.85-43 l2.9-18.36l0.66-7.82c0,0-2.53-22.78-1.7-34.14c0.82-11.36,6.66-34.01,6.66-34.01l26.98,0.58l26.97-0.58 c0,0,5.83,22.66,6.66,34.01c0.83,11.36-1.7,34.14-1.7,34.14l0.66,7.82l2.9,18.36l3.85,43c0,0-5.32,1.19-7.85,0.69 c-2.53-0.5-7.34-3.71-7.34-3.71L98.1,167.16l-1.49-8.72l-11.62-30.33L73.36,158.45z"/>
<g>
<path d="M129.41,43.33l11.98,41.65l1.04,21.47l-9.55,1.83l-6.05-20.21l-13.65-33.95l0.69-15.55l2.31-3.72 L129.41,43.33z"/>
<path d="M40.59,43.3l13.19-8.45l2.31,3.72l0.52,16.04L43.17,88.07l-6.05,20.21l-9.55-1.83l1.03-21.47L40.59,43.3z"/>
</g>
</g>
<g id="Sleeves" class="toggle" fill="rgb(17, 23, 17)">
<g>
<path d="M112.2,56.12l2.68,5.9c0,0,4.24-3.2,7.06-4.8s4.38-2.62,6.92-3.6c2.54-0.98,5.08-1.47,5.08-1.47l-6.07-12.25 l-5.79-9.67l-11.58,5.14L112.2,56.12z"/>
<path d="M113.61,59.24c-0.2-0.24,5.08-4.5,8.61-6.34c3.53-1.84,10.25-3.69,10.25-3.69"/>
</g>
<g>
<path d="M57.8,56.12l-2.68,5.9c0,0-4.24-3.2-7.06-4.8c-2.82-1.59-4.38-2.62-6.92-3.6c-2.54-0.98-5.08-1.47-5.08-1.47 l6.07-12.25l5.79-9.67l11.58,5.14L57.8,56.12z"/>
<path d="M56.39,59.24c0.2-0.24-5.08-4.5-8.61-6.34c-3.53-1.84-10.25-3.69-10.25-3.69"/>
</g>
</g>
</g>
<g id="Boots"><g id="Basic_Boots" class="option" style="display: inherit;">
<g id="Main_Basic-Boot" fill="rgb(20, 25, 19)">
<path d="M109.1,216.81c1.46,0.01,3.24,0.93,4.53,1.15c1.38,0.23,2.88,0.21,4.34,0.07l0.59-0.06l0.02,0l0.07-0.01 l0.19-0.03l0.3-0.04l0.12-0.02c0.35-0.05,0.68-0.1,1.01-0.16l0.53-0.1l0.11-0.03l0.04-0.01l0.08-0.02l0.36-0.09l0.32-0.09 l0.05-0.01c1.12-0.3,2.24-0.66,2.24-0.66c0.33,1.45,0.5,3.11,1.12,4.46c0.99,2.13,0.95,3.05,2.61,4.66 c1.14,1.1,4.08,3.05,5.44,3.89c0.57,0.36,1.19,0.63,1.81,0.86l0.06,0.02c2.5,0.93,5.2,1.28,6.56,4.03c0.3,0.6,0.55,1.32,0.5,2 c-0.06,0.87-1.02,0.99-1.76,1.2c-1.84,0.52-3.43,0.92-5.56,1.39c-2.43,0.54-4.63,0.88-7.1,0.81c-1.84-0.05-3.41-0.13-5.03-1.1 c-0.65-0.39-1.32-0.79-1.89-1.3c-1.27-1.15-2.09-2.36-3.71-3.04c-1.18-0.5-2.39-0.91-3.63-1.2c-1.76-0.42-4.34-1-5.28-2.74 c-0.37-1.3,0.01-1.94,0.13-3.06l0.06-0.48c0.1-0.73,0.23-1.48,0.26-2.26c0.08-1.51-0.3-3.01-0.4-4.51 c-0.06-0.85-0.1-1.71-0.11-2.56c0-0.14-0.08-0.75,0.06-0.8c0.19-0.08,0.4-0.12,0.62-0.14L109.1,216.81z"/>
<path d="M60.93,216.81c-1.46,0.01-3.24,0.93-4.53,1.15c-1.38,0.23-2.88,0.21-4.34,0.07l-0.59-0.06l-0.02,0 l-0.07-0.01l-0.19-0.03l-0.3-0.04l-0.12-0.02c-0.34-0.05-0.68-0.1-1.01-0.16l-0.53-0.1l-0.11-0.03l-0.04-0.01l-0.08-0.02 l-0.36-0.09l-0.32-0.09l-0.05-0.01c-1.12-0.3-2.24-0.66-2.24-0.66c-0.33,1.45-0.5,3.11-1.12,4.46c-0.99,2.13-0.95,3.05-2.6,4.66 c-1.14,1.1-4.08,3.05-5.44,3.89c-0.57,0.36-1.19,0.63-1.81,0.86l-0.06,0.02c-2.5,0.93-5.2,1.28-6.56,4.03 c-0.3,0.6-0.55,1.32-0.5,2c0.06,0.87,1.02,0.99,1.76,1.2c1.84,0.52,3.43,0.92,5.56,1.39c2.43,0.54,4.63,0.88,7.1,0.81 c1.84-0.05,3.41-0.13,5.03-1.1c0.65-0.39,1.32-0.79,1.89-1.3c1.27-1.15,2.09-2.36,3.72-3.04c1.18-0.5,2.39-0.91,3.63-1.2 c1.76-0.42,4.33-1,5.28-2.74c0.37-1.3-0.01-1.94-0.13-3.06l-0.06-0.48c-0.1-0.73-0.23-1.48-0.26-2.26 c-0.08-1.51,0.3-3.01,0.4-4.51c0.06-0.85,0.1-1.71,0.11-2.56c0-0.14,0.08-0.75-0.06-0.8c-0.19-0.08-0.4-0.12-0.62-0.14 L60.93,216.81z"/>
</g>
<g id="Bottom_Basic-Boot" fill="rgb(25, 30, 23)">
<path d="M108.15,230.64c0.47,0.87,1.35,1.44,2.33,1.86c0.89,0.45,1.95,0.64,2.96,0.88c0.14,0.03,0.27,0.07,0.41,0.1 c0.2,0.05,0.4,0.11,0.6,0.16c0.06,0.02,0.12,0.04,0.18,0.05l0.1,0.03c0.07,0.02,0.13,0.04,0.19,0.06 c0.03,0.01,0.06,0.02,0.08,0.03c0.11,0.04,0.22,0.07,0.33,0.11c0.04,0.01,0.08,0.03,0.12,0.04l0.06,0.02 c0.17,0.06,0.33,0.12,0.5,0.18c0.04,0.01,0.07,0.03,0.11,0.04c0.15,0.06,0.3,0.11,0.45,0.17l0.12,0.05 c0.09,0.04,0.18,0.07,0.27,0.11c0.04,0.02,0.08,0.03,0.12,0.05c0.27,0.11,0.51,0.24,0.74,0.38l0.03,0.02 c0.02,0.01,0.04,0.02,0.05,0.03c0.07,0.04,0.14,0.09,0.21,0.14l0.05,0.03c0.01,0.01,0.03,0.02,0.04,0.03 c0.07,0.05,0.14,0.1,0.2,0.15l0.06,0.04l0.09,0.07c0.28,0.23,0.54,0.47,0.8,0.73l0.07,0.07c0.14,0.14,0.28,0.28,0.42,0.43 c0.15,0.15,0.29,0.3,0.45,0.45c0.15,0.15,0.31,0.31,0.48,0.46l0.06,0.05c0.05,0.04,0.1,0.09,0.15,0.13 c0.01,0.01,0.02,0.01,0.03,0.02c0.08,0.07,0.17,0.13,0.25,0.2c0.06,0.04,0.11,0.09,0.17,0.13l0.03,0.02 c0.07,0.05,0.15,0.1,0.22,0.15c0.03,0.02,0.06,0.04,0.09,0.06c0.11,0.07,0.22,0.14,0.33,0.21c0.08,0.05,0.15,0.09,0.23,0.14 l0.09,0.06l0.25,0.15l0.11,0.07l0.08,0.04l0.08,0.04c0.11,0.06,0.22,0.12,0.34,0.17c0.05,0.02,0.11,0.05,0.16,0.07l0.05,0.02 c0.34,0.15,0.68,0.26,1.02,0.35l0.06,0.01l0.08,0.02c0.03,0.01,0.05,0.01,0.07,0.02c0.07,0.02,0.14,0.03,0.21,0.04 c0.05,0.01,0.11,0.02,0.16,0.03l0.13,0.02l0.04,0.01c0.04,0.01,0.07,0.01,0.11,0.02c0.06,0.01,0.12,0.02,0.18,0.02 c0.09,0.01,0.17,0.02,0.26,0.03c0.02,0,0.04,0,0.07,0.01c0.21,0.02,0.43,0.04,0.65,0.05c0.12,0.01,0.24,0.01,0.36,0.02l0.11,0 c0.23,0.01,0.46,0.02,0.7,0.02c0.15,0,0.31,0.01,0.46,0.01c0.06,0,0.11,0,0.17,0c0.08,0,0.16,0,0.23,0c0.06,0,0.11,0,0.17,0 l0.06,0c0.28-0.01,0.56-0.02,0.83-0.03c0.04,0,0.08,0,0.12-0.01l0.11-0.01c0.03,0,0.07-0.01,0.1-0.01 c0.4-0.03,0.81-0.07,1.21-0.11l0.11-0.01c0.1-0.01,0.2-0.02,0.3-0.04c0.04-0.01,0.09-0.01,0.13-0.02l0.11-0.01 c0.08-0.01,0.17-0.02,0.25-0.04c0.35-0.05,0.7-0.11,1.06-0.18c0.08-0.01,0.16-0.03,0.24-0.04l0.1-0.02 c0.04-0.01,0.07-0.01,0.11-0.02l0.11-0.02c0.04-0.01,0.07-0.01,0.11-0.02l0.08-0.02c0.09-0.02,0.17-0.04,0.26-0.05l0.11-0.02 c0.1-0.02,0.2-0.04,0.3-0.07c0.09-0.02,0.18-0.04,0.26-0.06l0.03,0c0.56-0.12,1.08-0.24,1.58-0.36l0.19-0.04 c0.14-0.03,0.28-0.07,0.42-0.1l0.17-0.04l0.08-0.02c0.2-0.05,0.39-0.1,0.58-0.15c0.12-0.03,0.23-0.06,0.35-0.09 c0.33-0.09,0.67-0.17,1-0.26l0.15-0.04c0.06-0.01,0.11-0.03,0.17-0.04l0.06-0.02c0.26-0.07,0.52-0.14,0.79-0.22l0.06-0.02 l0.09-0.02l0.28-0.07l0.09-0.03l0.14-0.04l0.06-0.02l0.11-0.04l0.1-0.03l0.04-0.02l0.05-0.02l0.03-0.01l0.05-0.02l0.05-0.03 l0.02-0.01l0.05-0.03l0.06-0.04l0.06-0.04l0.05-0.04c0.09-0.07,0.16-0.15,0.22-0.24l0,0c0,0,0.49,0.73,0.53,1.99 c-1.1,1.59-4.6,2.12-9.43,2.76c-4.8,0.64-7.76,0.51-9.77-0.35c-2.01-0.86-5.53-4.94-8.05-5.15c-2.52-0.22-5.5-1.54-6.72-2.26 c-0.64-0.37-0.45-3-0.45-3L108.15,230.64z"/>
<path d="M61.87,230.64c-0.47,0.87-1.35,1.44-2.33,1.86c-0.89,0.45-1.95,0.64-2.95,0.88 c-0.14,0.03-0.27,0.07-0.41,0.1c-0.2,0.05-0.4,0.11-0.6,0.16c-0.06,0.02-0.12,0.04-0.18,0.05l-0.1,0.03 c-0.07,0.02-0.13,0.04-0.19,0.06c-0.03,0.01-0.06,0.02-0.08,0.03c-0.11,0.04-0.22,0.07-0.33,0.11c-0.04,0.01-0.08,0.03-0.12,0.04 l-0.06,0.02c-0.17,0.06-0.33,0.12-0.5,0.18c-0.04,0.01-0.07,0.03-0.11,0.04c-0.15,0.06-0.3,0.11-0.45,0.17l-0.12,0.05 c-0.09,0.04-0.18,0.07-0.27,0.11c-0.04,0.02-0.08,0.03-0.12,0.05c-0.27,0.11-0.51,0.24-0.74,0.38l-0.03,0.02 c-0.02,0.01-0.04,0.02-0.05,0.03c-0.07,0.04-0.14,0.09-0.21,0.14l-0.05,0.03c-0.01,0.01-0.03,0.02-0.04,0.03 c-0.07,0.05-0.14,0.1-0.2,0.15l-0.06,0.04l-0.09,0.07c-0.28,0.23-0.54,0.47-0.8,0.73l-0.07,0.07c-0.14,0.14-0.28,0.28-0.42,0.43 c-0.15,0.15-0.29,0.3-0.45,0.45c-0.15,0.15-0.31,0.31-0.48,0.46l-0.06,0.05c-0.05,0.04-0.1,0.09-0.15,0.13 c-0.01,0.01-0.02,0.01-0.03,0.02c-0.08,0.07-0.17,0.13-0.25,0.2c-0.06,0.04-0.11,0.09-0.17,0.13l-0.03,0.02 c-0.07,0.05-0.15,0.1-0.22,0.15c-0.03,0.02-0.06,0.04-0.09,0.06c-0.11,0.07-0.22,0.14-0.33,0.21c-0.08,0.05-0.15,0.09-0.23,0.14 l-0.1,0.06l-0.24,0.15l-0.11,0.07l-0.08,0.04l-0.08,0.04c-0.11,0.06-0.22,0.12-0.34,0.17c-0.05,0.02-0.11,0.05-0.16,0.07 l-0.05,0.02c-0.34,0.15-0.67,0.26-1.02,0.35l-0.06,0.01l-0.08,0.02c-0.02,0.01-0.05,0.01-0.07,0.02 c-0.07,0.02-0.14,0.03-0.21,0.04c-0.06,0.01-0.11,0.02-0.16,0.03l-0.13,0.02l-0.04,0.01c-0.04,0.01-0.07,0.01-0.11,0.02 c-0.06,0.01-0.12,0.02-0.18,0.02c-0.09,0.01-0.17,0.02-0.26,0.03c-0.02,0-0.05,0-0.07,0.01c-0.22,0.02-0.43,0.04-0.65,0.05 c-0.12,0.01-0.24,0.01-0.36,0.02l-0.1,0c-0.23,0.01-0.47,0.02-0.7,0.02c-0.15,0-0.31,0.01-0.46,0.01c-0.06,0-0.11,0-0.17,0 c-0.08,0-0.16,0-0.23,0c-0.06,0-0.11,0-0.17,0l-0.06,0c-0.28-0.01-0.56-0.02-0.83-0.03c-0.04,0-0.08,0-0.12-0.01l-0.11-0.01 c-0.03,0-0.07-0.01-0.1-0.01c-0.4-0.03-0.81-0.07-1.21-0.11l-0.11-0.01c-0.1-0.01-0.2-0.02-0.3-0.04 c-0.04-0.01-0.09-0.01-0.13-0.02l-0.11-0.01c-0.08-0.01-0.17-0.02-0.25-0.04c-0.35-0.05-0.7-0.11-1.06-0.18 c-0.08-0.01-0.16-0.03-0.24-0.04l-0.1-0.02c-0.04-0.01-0.07-0.01-0.11-0.02l-0.11-0.02c-0.04-0.01-0.07-0.01-0.11-0.02 l-0.08-0.02c-0.09-0.02-0.17-0.04-0.26-0.05l-0.11-0.02c-0.1-0.02-0.2-0.04-0.3-0.07c-0.09-0.02-0.17-0.04-0.26-0.06l-0.03,0 c-0.56-0.12-1.08-0.24-1.58-0.36l-0.19-0.04c-0.14-0.03-0.28-0.07-0.42-0.1l-0.17-0.04l-0.08-0.02c-0.2-0.05-0.39-0.1-0.58-0.15 c-0.12-0.03-0.23-0.06-0.35-0.09c-0.34-0.09-0.67-0.17-1-0.26l-0.15-0.04c-0.06-0.01-0.11-0.03-0.17-0.04l-0.06-0.02 c-0.26-0.07-0.52-0.14-0.79-0.22l-0.06-0.02l-0.09-0.02l-0.28-0.07l-0.09-0.03L29,237.65l-0.06-0.02l-0.11-0.04l-0.1-0.03 l-0.04-0.02l-0.05-0.02l-0.03-0.01l-0.05-0.02l-0.05-0.03l-0.02-0.01l-0.05-0.03l-0.06-0.04l-0.06-0.04l-0.05-0.04 c-0.09-0.07-0.16-0.15-0.22-0.24l0,0c0,0-0.49,0.73-0.53,1.99c1.1,1.59,4.6,2.12,9.43,2.76c4.8,0.64,7.76,0.51,9.77-0.35 c2.01-0.86,5.53-4.94,8.05-5.15c2.52-0.22,5.49-1.54,6.72-2.26c0.64-0.37,0.45-3,0.45-3L61.87,230.64z"/>
</g>
<g id="Top_Basic-Boot" fill="rgb(25, 30, 23)">
<path d="M122,217.29c0.67,3.26,1.7,6.09,3.88,8.84c3.4,4.27,9.2,4.62,13.21,8.09c1.03,0.89,0.98,2.32,1.15,3.64 c-1.66,0.47-3.13,0.84-4.99,1.26c-0.13-1.31,0.1-2.78-0.99-3.72c-4.01-3.47-10.32-3.34-13.72-7.61 c-2.22-2.79-2.23-6.39-2.87-9.74c0.1-0.01,0.2-0.02,0.3-0.03l0.59-0.06l0.02,0l0.07-0.01l0.19-0.03l0.3-0.04l0.12-0.02 c0.35-0.05,0.68-0.1,1.01-0.16l0.53-0.1l0.11-0.03l0.04-0.01l0.08-0.02l0.36-0.09l0.32-0.09l0.05-0.01 C121.85,217.33,121.93,217.31,122,217.29z"/>
<path d="M48.02,217.29c-0.67,3.26-1.7,6.09-3.88,8.84c-3.4,4.27-9.2,4.62-13.21,8.09c-1.03,0.89-0.98,2.32-1.15,3.64 c1.66,0.47,3.13,0.84,4.99,1.26c0.13-1.31-0.1-2.78,0.99-3.72c4.01-3.47,10.32-3.34,13.72-7.61c2.22-2.79,2.23-6.39,2.87-9.74 c-0.1-0.01-0.2-0.02-0.3-0.03l-0.59-0.06l-0.02,0l-0.07-0.01l-0.19-0.03l-0.3-0.04l-0.12-0.02c-0.34-0.05-0.68-0.1-1.01-0.16 l-0.53-0.1l-0.11-0.03l-0.04-0.01l-0.08-0.02l-0.36-0.09l-0.32-0.09l-0.05-0.01C48.17,217.33,48.1,217.31,48.02,217.29z"/>
</g>
<g id="Side_Basic-Boot" fill="rgb(25, 30, 23)">
<path d="M109.49,216.83c1.38,0.15,2.96,0.92,4.14,1.12c0.06,0.01,0.13,0.02,0.19,0.03c0.02,0.41,0.01,0.82,0.02,1.18 c0.05,2.04-0.21,10.76-0.61,10.75c-0.4-0.02-1.58-0.23-1.88-0.55c-0.2-0.21-0.24-0.71-0.3-0.98c-0.21-0.87-0.4-1.73-0.53-2.61 c-0.18-1.19-0.32-2.36-0.4-3.55C109.98,220.42,109.7,218.62,109.49,216.83z"/>
<path d="M60.53,216.83c-1.38,0.15-2.96,0.92-4.14,1.12c-0.06,0.01-0.13,0.02-0.19,0.03 c-0.02,0.41-0.01,0.82-0.02,1.18c-0.05,2.04,0.21,10.76,0.61,10.75c0.4-0.02,1.58-0.23,1.88-0.55c0.2-0.21,0.24-0.71,0.3-0.98 c0.21-0.87,0.4-1.73,0.53-2.61c0.18-1.19,0.32-2.36,0.4-3.55C60.05,220.42,60.32,218.62,60.53,216.83z"/>
</g>
</g>
</g>
<g id="Gloves">
<g id="Left-Glove">
<g id="Fingerless_Left_Glove" class="option" style="display: inherit;">
<g id="Fingers_Fingerless_Left_Glove" fill="rgb(154, 107, 65)">
<path d="M138.6,124.11c-0.54-0.03-1.05-0.01-1.58,0.1c-0.36,0.08-0.72,0.16-1.04,0.35 c-0.99,0.57-0.72,1.81,0.16,2.28c1.03,0.55,2.66,0.01,3.13-1.05C139.46,125.35,138.86,124.53,138.6,124.11"/>
<path d="M136.79,125.19c-0.54-0.03-1.05-0.02-1.59,0.1c-0.36,0.08-0.72,0.16-1.04,0.35 c-0.99,0.57-0.72,1.81,0.16,2.28c1.03,0.55,2.66,0.01,3.13-1.05C137.65,126.43,137.05,125.61,136.79,125.19"/>
<path d="M135.51,126.62c-0.54,0.05-1.21,0.17-1.73,0.35c-0.35,0.12-0.69,0.26-0.99,0.48 c-0.9,0.7-0.47,1.89,0.47,2.24c1.1,0.41,2.64-0.35,2.96-1.46C136.36,127.76,135.51,126.62,135.51,126.62z"/>
<path d="M129.95,119.82c-0.3,1.34-0.55,2.07-0.55,2.07s-1.38,2.79-1.14,3.43c0.24,0.64,1.45,1.21,2.15,0.87 c0.86-0.42,1.93-2.39,2.61-3.77c0.25-0.51,0.48-1.1,0.68-1.64C130.94,121.18,129.95,119.82,129.95,119.82L129.95,119.82z"/>
<path d="M135.64,126.41c-0.2,0.34-0.43,0.7-0.68,1.08c-1.36,2.05-3.46,3.81-2.07,5.37 c1.29,1.46,4.22-2.37,4.22-2.37l1.36-1.77C136.2,128.19,135.64,126.42,135.64,126.41z"/>
</g>
<path id="Glove_Fingerless_Left_Glove" d="M138.46,128.72l1.51-1.96c0,0,3.3-5.41,3.47-6.46 c0.13-0.8,0.02-3.47,0.02-3.47l-1.03-10.37l-5.24,0.44l-4.31,1.39l-0.32,1.77c0,0-1.56,2.15-1.97,3.69 c-0.29,1.09-0.13,3.68-0.49,5.43c-0.05,0.23-0.1,0.44-0.14,0.65l0,0c0,0,0.99,1.37,3.74,0.96c0.35-0.96,0.58-1.78,0.58-1.78 s0.95,0.32,1.43,0.7c1.61,1.24,0.91,4.96,0.91,4.96s-0.37,0.74-0.98,1.75C135.64,126.42,136.2,128.19,138.46,128.72z" fill="rgb(22, 22, 22)"/>
</g></g>
<g id="Right-Glove"><g id="Basic_Right_Glove" class="option" fill="rgb(53, 60, 68)" style="display: inherit;">
<path d="M31.4,124.11c0.54-0.03,1.05-0.01,1.58,0.1c0.36,0.08,0.72,0.16,1.04,0.35c0.99,0.57,0.72,1.81-0.16,2.28 c-1.03,0.55-2.66,0.01-3.13-1.05C30.53,125.35,31.14,124.53,31.4,124.11"/>
<path d="M33.21,125.19c0.54-0.03,1.05-0.02,1.58,0.1c0.36,0.08,0.72,0.16,1.04,0.35c0.99,0.57,0.72,1.81-0.16,2.28 c-1.03,0.55-2.66,0.01-3.13-1.05C32.35,126.43,32.95,125.61,33.21,125.19"/>
<path d="M34.51,126.65c0.54,0.05,1.19,0.13,1.7,0.31c0.35,0.12,0.69,0.26,0.99,0.48c0.9,0.7,0.47,1.89-0.47,2.24 c-1.1,0.41-2.64-0.35-2.96-1.46C33.64,127.76,34.51,126.65,34.51,126.65z"/>
<path d="M37.45,110.05c0,0,1.56,2.15,1.97,3.69c0.29,1.09,0.13,3.68,0.49,5.43c0.36,1.74,0.69,2.71,0.69,2.71 s1.38,2.79,1.14,3.43c-0.24,0.64-1.45,1.21-2.15,0.87c-0.86-0.42-1.93-2.39-2.61-3.77C36.29,121,35.73,119,35.73,119 s-0.95,0.32-1.43,0.7c-1.61,1.24-0.91,4.96-0.91,4.96s0.66,1.33,1.66,2.83c1.36,2.05,3.46,3.81,2.08,5.37 c-1.29,1.46-4.22-2.37-4.22-2.37l-2.87-3.73c0,0-3.3-5.41-3.47-6.46c-0.13-0.8-0.02-3.47-0.02-3.47l1.03-10.37l5.24,0.44 l4.31,1.39L37.45,110.05"/>
</g>
</g>
</g>
<g id="Biceps">
<g id="Left-Biceps"><g id="Basic_Biceps_Left" class="option" style="display: inherit;">
<path id="Main_Basic_Biceps_Left" d="M134.37,52.38c-1.14-2.74-6.21-14.78-6.21-14.78s-8.34,3.42-10.42,4.28 c-0.59,0.24-0.87,0.91-0.63,1.5c0.98,2.36,3.38,8.14,4.87,11.74c0.34,0.81,0.99,1.46,1.81,1.8c0.82,0.34,1.74,0.34,2.56,0 c2.45-1.01,5.73-2.35,7.4-3.04C134.33,53.63,134.61,52.96,134.37,52.38z" fill="rgb(15, 20, 12)"/>
<path id="Strap_Basic_Biceps_Left" d="M119.35,48.7l-5.85,2.4l-0.14,4.29l7.49-3.07L119.35,48.7" fill="rgb(25, 30, 25)"/>
<path id="Trauma-Plate_Basic_Biceps_Left" class="toggle" style="" d="M134.34,51.81l-5.29-12.74l-10.16,4.17l4.67,11.24 c0.17,0.4,0.49,0.72,0.89,0.88c0.4,0.17,0.85,0.17,1.26,0L134.34,51.81" fill="rgb(26, 36, 22)"/>
</g>
</g>
<g id="Right-Biceps"><g id="Full-Band_Biceps_Right" class="option" style="display: inherit;">
<path id="Main_Full-Band_Biceps_Right" d="M55.91,60.46l0.85-2.32l-0.45-13.76c0,0-1.06-0.36-2.62-0.89 c-7.17-2.42-14.97,1.25-17.67,8.32c-0.4,1.06-0.66,1.73-0.66,1.73L55.91,60.46" fill="rgb(71, 80, 89)"/>
<g id="Trim_Full-Band_Biceps_Right" fill="rgb(57, 64, 71)">
<path d="M39.71,49.15c-1.11,0-2.02,0.87-2.02,1.93c0,1.07,0.9,1.93,2.02,1.93c1.11,0,2.02-0.86,2.02-1.93 C41.73,50.02,40.82,49.15,39.71,49.15"/>
<path d="M35.36,53.53l-0.47,1.29c-0.13,0.36-0.11,0.76,0.06,1.1c0.17,0.35,0.47,0.61,0.83,0.73 c3.77,1.26,14.16,4.74,17.85,5.98c0.74,0.25,1.54-0.14,1.8-0.86l0.49-1.32L35.36,53.53"/>
</g>
</g></g>
</g>
<g id="BicepsDecals" mask="url(#BicepsMask)">
</g>
<path id="Vest" d="M85,20.92c8.5-0.01,15.43-4.3,15.63-8.01l0.15,0.02l18.38,5.42l13.31,23.94l-2.86,1.16l-13.42-8.6 l-2.31,3.72l-1.54,47.4c0,0-8.72,4.71-13.53,5.35c-3.44,0.45-8.63,0.68-13.79,0.67c-5.16,0.01-10.35-0.22-13.79-0.67 c-4.81-0.63-13.53-5.35-13.53-5.35l-1.54-47.4l-2.31-3.72l-13.42,8.6l-2.86-1.16l13.31-23.94l18.38-5.42l0.15-0.02 C69.57,16.62,76.5,20.92,85,20.92" fill="rgb(11, 15, 11)"/>
<g id="SuitDecals" mask="url(#SuitMask)">
</g>
<g class="swappable" id="Chest"><g id="Chest_Heavy">
<g id="Abdomen_Heavy">
<g id="Under-Plates_Abdomen_Heavy" fill="rgb(9, 13, 10)">
<rect x="73.86" y="69.99" width="22.29" height="2.83"/>
<rect x="73.86" y="72.82" width="22.29" height="2.83"/>
<rect x="73.86" y="75.65" width="22.29" height="2.83"/>
<rect x="73.86" y="78.48" width="22.29" height="2.83"/>
<rect x="73.86" y="81.31" width="22.29" height="2.83"/>
</g>
<g id="Abdomen-Plate_Heavy" fill="rgb(10, 17, 7)">
<path d="M78.16,60.86l-11.11,4.69L66,63.03l12.15-5.13V60.86z"/>
<path d="M70.94,74.95l-3.9-9.4l11.11-4.69l3.48,9.89L70.94,74.95z"/>
<path d="M66,63.03l-4.67,0.81l6.89,16.28l4.7-0.93L66,63.03z"/>
<path d="M91.84,60.86l11.11,4.69l1.04-2.52L91.84,57.9V60.86z"/>
<path d="M99.06,74.95l3.9-9.4l-11.11-4.69l-3.48,9.89L99.06,74.95z"/>
<path d="M104,63.03l4.67,0.81l-6.89,16.28l-4.7-0.93L104,63.03z"/>
<rect x="78.19" y="57.9" width="13.61" height="2.96"/>
<path d="M81.63,70.75l-3.48-9.89h13.69l-3.48,9.89H81.63z"/>
</g>
</g>
<g id="Neck-Armor_Heavy">
<g id="Neck-Plate_Heavy" fill="rgb(15, 25, 15)">
<path d="M69.69,11.62l-9.62,2.1c0,0,0.44,1.7,0.92,3.57c0.69,2.66,3.35,4.31,6.04,3.72h0 c1.26-0.27,2.35-1.05,3.03-2.15s0.88-2.42,0.56-3.67C70.13,13.33,69.69,11.62,69.69,11.62z"/>
<path d="M100.31,11.62l9.62,2.1c0,0-0.44,1.7-0.92,3.57c-0.68,2.66-3.35,4.31-6.04,3.72h0 c-1.26-0.27-2.35-1.05-3.03-2.15s-0.88-2.42-0.56-3.67C99.87,13.33,100.31,11.62,100.31,11.62z"/>
</g>
<g id="Secondary_Neck-Plate_Heavy" fill="rgb(27, 11, 11)">
<path d="M67.3,11.8l-4.84,1.06c0,0,0.35,1.36,0.69,2.67c0.34,1.34,1.69,2.16,3.04,1.87c0,0,0,0,0,0 c0.63-0.14,1.18-0.53,1.52-1.08c0.34-0.55,0.44-1.22,0.28-1.85C67.65,13.16,67.3,11.8,67.3,11.8z"/>
<path d="M102.7,11.8l4.84,1.06c0,0-0.35,1.36-0.69,2.67c-0.34,1.34-1.69,2.16-3.04,1.87c0,0,0,0,0,0 c-0.63-0.14-1.18-0.53-1.52-1.08c-0.34-0.55-0.44-1.22-0.28-1.85C102.35,13.16,102.7,11.8,102.7,11.8z"/>
</g>
</g>
<g id="Full-Chest_Heavy">
<path id="Under-Plate_Chest_Heavy" d="M90.5,54.56H79.5l-2.76,2.36v1.58l1.45-0.6h13.61l1.45,0.61v-1.59 L90.5,54.56z" fill="rgb(9, 13, 10)"/>
<g id="Chest-Plate_Heavy" fill="rgb(11, 20, 11)">
<path d="M65.78,61.66l9.75-5.63l1.32-2.67l2.6,0.35h11.11l2.6-0.35l1.32,2.67l9.75,5.63l4.53,0.99l-0.11,1.65 l-4.85-0.84l-10.54-4.37v-2.17l-2.76-2.36H79.5l-2.76,2.36v2.17l-10.54,4.37l-4.85,0.84l-0.11-1.65L65.78,61.66z"/>
<path d="M108.75,62.64l5.64-14.4l0.83,2.95l-1.79,10.71L108.75,62.64z"/>
<path d="M54.78,51.19l0.83-2.95l5.64,14.4l-4.68-0.74L54.78,51.19z"/>
<path d="M61.09,42.62v-6.02l-0.46-10.79l2.81-3.1l8.51-1.76l2.2,2.57h21.69l2.2-2.57l8.51,1.76l2.81,3.1 l-0.45,10.53l-0.01-0.02v6.31L93.15,53.36l-2.6,0.35H79.45l-2.6-0.35L61.09,42.62z"/>
<path d="M108.91,36.61v6.02l5.49,5.61L108.91,36.61z"/>
<path d="M76.85,53.36L61.09,42.62l-5.49,5.61l5.64,14.4l4.53-0.99l9.75-5.63L76.85,53.36z"/>
<path d="M114.4,48.24l-5.64,14.4l-4.53-0.99l-9.75-5.63l-1.32-2.67l15.75-10.74L114.4,48.24z"/>
<path d="M113.43,61.9l-0.19,1.15l-4.61,1.24l0.12-1.65L113.43,61.9z"/>
<path d="M61.09,36.61v6.02l-5.49,5.61L61.09,36.61z"/>
<path d="M60.63,25.82c-0.06,5.53-0.71,11.07-2.28,16.61l2.74-5.82L60.63,25.82z"/>
<path d="M109.38,25.82c0.06,5.53,0.72,11.07,2.28,16.61l-2.74-5.82L109.38,25.82z"/>
<path d="M61.25,62.64l0.11,1.65l-4.61-1.24l-0.19-1.15L61.25,62.64z"/>
</g>
<g id="Accents_Chest-Plate_Heavy" class="toggle">
<g id="Accent-3_Accents_Chest-Plate_Heavy" fill="rgb(85, 0, 0)">
<path d="M97.88,36.45l-0.58-1.79h2.63l-0.57,1.79H97.88z"/>
<path d="M97.88,39.92l-0.58-1.79h2.63l-0.57,1.79H97.88z"/>
<rect x="96.19" y="25.8" width="4.93" height="0.54"/>
<rect x="96.19" y="27.52" width="4.93" height="0.54"/>
</g>
<path id="Accent-2_Accents_Chest-Plate_Heavy" d="M70.47,23.02c-0.12-1.57-1.48-2.76-3.06-2.66c0,0,0,0,0,0 c-0.73,0.05-1.42,0.39-1.9,0.94c-0.48,0.56-0.72,1.28-0.67,2.01c0.06,0.86,0.14,1.8,0.2,2.66c0.12,1.57,1.48,2.76,3.06,2.66h0 c0.73-0.05,1.42-0.39,1.9-0.94c0.48-0.55,0.72-1.28,0.67-2.01C70.6,24.82,70.53,23.88,70.47,23.02z" fill="rgb(8, 14, 9)"/>
<g id="Accent-1_Accents_Chest-Plate_Heavy" fill="rgb(18, 27, 19)">
<path d="M69.65,20.78l-4.33,0.28l0.54,7.14l4.33-0.28L69.65,20.78z"/>
<path d="M69.18,21.34l-3.31,0.21l0.08,1.02l3.3-0.21L69.18,21.34z"/>
<path d="M66.4,22.55l-0.45,0.03l0.42,5.59l0.45-0.03L66.4,22.55z"/>
<path d="M66.88,22.51l-0.45,0.03l0.42,5.6l0.45-0.03L66.88,22.51z"/>
<path d="M69.25,22.36l-0.45,0.03l0.42,5.59l0.45-0.03L69.25,22.36z"/>
<path d="M68.78,22.39l-0.45,0.03l0.42,5.6l0.45-0.03L68.78,22.39z"/>
<path d="M67.83,22.45l-0.45,0.03l0.42,5.6l0.45-0.03L67.83,22.45z"/>
<path d="M68.3,22.42l-0.45,0.03l0.42,5.6l0.45-0.03L68.3,22.42z"/>
<path d="M67.35,22.49l-0.45,0.03l0.42,5.59l0.45-0.03L67.35,22.49z"/>
</g>
</g>
</g>
<g id="Iron-Heart_Heavy">
<path id="Heart_Heavy" d="M85,31.46l3.24,2.99v5.86L85,43.28l-3.24-2.98v-5.86L85,31.46z" fill="rgb(9, 16, 8)"/><g id="Center_Heart_Heavy" class="option" fill="rgb(57, 1, 1)" style="display: inherit;">
<rect x="83.82" y="34.53" width="2.36" height="2.84"/>
<rect x="83.82" y="37.37" width="0.39" height="2.84"/>
<rect x="85.39" y="37.37" width="0.39" height="2.84"/>
<rect x="85.79" y="37.37" width="0.39" height="2.84"/>
<rect x="84.6" y="37.37" width="0.39" height="2.84"/>
<rect x="85" y="37.37" width="0.39" height="2.84"/>
<rect x="84.21" y="37.37" width="0.39" height="2.84"/>
</g>
</g>
</g></g>
<g id="ChestDecals" mask="url(#ChestMask)">
</g>
<g id="Chest-Attachments"><g id="Bandoleer_Accessories_Chest" class="option" style="display: inherit;">
<g id="Strap_Bandoleer_Accessories_Chest" fill="rgb(20, 15, 14)">
<path d="M113.05,15.37l-6.61-3.15L64.67,87.5l6.61,3.62L113.05,15.37"/>
<path d="M111.26,14.16l-2.51-1.17l-8.34,15.03l2.41,1.32L111.26,14.16"/>
<path d="M99.44,35.85l-2.76-1.51L83.86,57.44l2.76,1.51L99.44,35.85"/>
<path d="M99.71,36.72l-3.92-2.15l-1.28,2.32l3.92,2.15L99.71,36.72"/>
<path d="M98.15,39.53l-3.92-2.15l-1.28,2.32l3.92,2.15L98.15,39.53"/>
<path d="M96.6,42.33l-3.92-2.15L91.4,42.5l3.92,2.15L96.6,42.33"/>
<path d="M95.04,45.14l-3.92-2.15l-1.28,2.32l3.92,2.15L95.04,45.14"/>
<path d="M93.48,47.94l-3.92-2.15l-1.29,2.32l3.92,2.15L93.48,47.94"/>
<path d="M90.37,53.55l-3.92-2.15l-1.29,2.32l3.92,2.15L90.37,53.55"/>
<path d="M91.93,50.75l-3.92-2.15l-1.29,2.32l3.92,2.15L91.93,50.75"/>
<path d="M88.82,56.36l-3.92-2.15l-1.28,2.31l3.92,2.15L88.82,56.36"/>
</g>
<g id="Ammo_Bandoleer_Accessories_Chest" fill="rgb(117, 117, 117)">
<g>
<g>
<path d="M99.57,36.97l1.6,0.88c0.17,0.09,0.23,0.31,0.14,0.48c-0.18,0.33-0.47,0.85-0.66,1.18 c-0.1,0.17-0.31,0.23-0.48,0.14l-1.6-0.88L99.57,36.97z"/>
<path d="M100.75,37.61l-0.13-0.07l-1,1.8l0.13,0.07L100.75,37.61z"/>
<path d="M100.47,37.46l-0.13-0.07l-1,1.8l0.14,0.07L100.47,37.46z"/>
</g>
<g>
<path d="M95.65,34.82l-1,1.8l-1.6-0.88c-0.17-0.09-0.23-0.31-0.14-0.48c0.18-0.33,0.47-0.85,0.66-1.19 c0.09-0.17,0.31-0.23,0.48-0.14L95.65,34.82z"/>
<path d="M94.44,34.15l-0.13-0.07l-1,1.8l0.14,0.07L94.44,34.15z"/>
</g>
</g>
<g>
<g>
<path d="M96.45,42.6l1.6,0.88c0.17,0.09,0.23,0.31,0.14,0.48c-0.18,0.33-0.47,0.85-0.66,1.19 c-0.09,0.17-0.31,0.23-0.48,0.14l-1.6-0.88L96.45,42.6z"/>
<path d="M97.63,43.24l-0.13-0.07l-1,1.8l0.13,0.07L97.63,43.24z"/>
<path d="M97.35,43.09l-0.13-0.07l-1,1.8l0.13,0.07L97.35,43.09z"/>
</g>
<g>
<path d="M92.53,40.45l-1,1.8l-1.6-0.88c-0.17-0.09-0.23-0.31-0.14-0.48c0.18-0.33,0.47-0.85,0.66-1.19 c0.1-0.17,0.31-0.23,0.48-0.14L92.53,40.45z"/>
<path d="M91.32,39.78l-0.13-0.07l-1,1.8l0.13,0.07L91.32,39.78z"/>
</g>
</g>
<g>
<g>
<path d="M94.9,45.38l1.6,0.88c0.17,0.09,0.23,0.31,0.14,0.48c-0.18,0.33-0.47,0.85-0.66,1.18 c-0.09,0.17-0.31,0.23-0.48,0.14l-1.6-0.88L94.9,45.38z"/>
<path d="M96.08,46.03l-0.13-0.07l-1,1.8l0.13,0.07L96.08,46.03z"/>
<path d="M95.8,45.88l-0.13-0.07l-1,1.8l0.13,0.07L95.8,45.88z"/>
</g>
<g>
<path d="M90.98,43.24l-1,1.8l-1.6-0.88c-0.17-0.09-0.23-0.31-0.14-0.48c0.18-0.33,0.47-0.85,0.66-1.19 c0.1-0.17,0.31-0.23,0.48-0.14L90.98,43.24z"/>
<path d="M89.77,42.57l-0.13-0.07l-1,1.8l0.13,0.07L89.77,42.57z"/>
</g>
</g>
<g>
<g>
<path d="M93.34,48.21l1.6,0.88c0.17,0.09,0.23,0.31,0.14,0.48c-0.18,0.33-0.47,0.85-0.66,1.19 c-0.09,0.17-0.31,0.23-0.48,0.14l-1.6-0.88L93.34,48.21z"/>
<path d="M94.52,48.85l-0.13-0.07l-1,1.8l0.13,0.07L94.52,48.85z"/>
<path d="M94.24,48.7l-0.13-0.07l-1,1.8l0.13,0.07L94.24,48.7z"/>
</g>
<g>
<path d="M89.42,46.06l-1,1.8l-1.6-0.88c-0.17-0.09-0.23-0.31-0.14-0.48c0.18-0.33,0.47-0.85,0.66-1.18 c0.1-0.17,0.31-0.23,0.48-0.14L89.42,46.06z"/>
<path d="M88.21,45.39l-0.13-0.07l-1,1.8l0.13,0.07L88.21,45.39z"/>
</g>
</g>
</g>
<g id="Buckles_Bandoleer_Accessories_Chest" fill="rgb(117, 117, 117)">
<g>
<path d="M104,27.77l-2.88-1.58l-1.63,2.93l2.88,1.58L104,27.77z"/>
<path d="M103.26,28.27l-2.17-1.19l-1.63,2.93l2.17,1.19L103.26,28.27z"/>
</g>
<path d="M104,24.34l-1.86-1.01l1.61-2.92l3.76,2.05l-1.61,2.92L104,24.34l0.36-0.65l1.06,0.58l0.89-1.61l-2.07-1.13 l-0.89,1.61l1.01,0.55"/>
</g>
</g></g>
<g id="Collar"><g id="Cloth-Wrap-Right_Collar" class="option" style="display: inherit;">
<g id="Main_Cloth-Wrap-Right_Collar" fill="rgb(13, 16, 13)">
<path d="M94.88,22.25c5-1.56,5.91-4.07,6.21-6.59c0.12-1.03-1.36-3.72,0.17-4.41c1.73-0.78,5.81,0.44,7.49,0.8 c1.25,0.27,2.36,0.58,3.63,0.59c2.94,0.03,5.28,1.99,5.54,3.45c0.37,2.04-3.27,2.78-4.97,4.33c-4.26,3.88-5.74,9.13-14.69,10.57 c-4.11,0.66-8.18-0.27-11.99-1.12c-9.86-2.19-15.23-4.07-21.57-8.93c-2.77-2.13-6.95-3.86-6.85-6.71 c0.01-0.12,2.02-1.31,2.22-1.36c1.78-0.44,3.29-1.17,5.24-1.21c1.17-0.02,0.98,0.98,1.06,1.43c0.33,1.74,1.93,3.05,3.93,4.36 C75.6,20.92,87.64,21.99,94.88,22.25z"/>
<path d="M94.88,22.25c1.32,0.05,2.48,0.25,3.5,0.32c4.57,0.28,6.21-0.83,7.09-2.86"/>
<path d="M109.1,12.11c1.32,2.14,1.15,4.67,0.1,6.33"/>
<path d="M70.71,18.23c3.43,4.66,8.51,6.13,14.08,6.7"/>
<path d="M61.44,12.49c0.2,1.18,0.91,1.62,1.78,2.41c0.5,0.46,1.12,0.78,1.52,1.35c0.14,0.2,0.22,0.44,0.31,0.67"/>
</g>
<path id="Buckle_Cloth-Wrap-Right_Collar" d="M71.89,17.35l-2.91-2.08l-5.06,7.02l2.91,2.08L71.89,17.35z" fill="rgb(86, 86, 86)"/>
</g></g>
<g id="CollarDecals" mask="url(#CollarMask)">
</g>
<g id="Helmets" class="swappable" transform="translate(45,-52)"><g id="Helmet_Recon">
<g id="Left-Earcap_Recon">
<g id="Module_Left_Recon" class="option" style="display: inherit;">
<g id="Main_Module_Left_Recon" fill="rgb(24, 42, 24)">
<rect x="60.51" y="39.13" width="2" height="2.66"/>
<rect x="63.13" y="37.72" width="0.73" height="0.47"/>
<rect x="64.2" y="37.72" width="0.73" height="0.47"/>
<path d="M66.76,40.29v-0.73h-0.47v0.73H66.76z"/>
<path d="M66.76,41.36v-0.73h-0.47v0.73H66.76z"/>
<rect x="63.13" y="42.73" width="0.73" height="0.47"/>
<rect x="64.2" y="42.73" width="0.73" height="0.47"/>
<ellipse cx="64.03" cy="40.46" rx="2.46" ry="2.46"/>
</g>
<g id="Inside_Module_Left_Recon" fill="rgb(92, 16, 16)">
<ellipse cx="64.03" cy="40.46" rx="1.94" ry="1.92"/>
<ellipse cx="64.03" cy="40.46" rx="1.15" ry="1.13"/>
<ellipse cx="64.03" cy="40.46" rx="0.73" ry="0.72"/>
<ellipse cx="64.03" cy="40.46" rx="0.38" ry="0.37"/>
</g>
</g><g id="Ear-Cap_Left_Recon" fill="rgb(18, 30, 18)">
<path d="M59.05,34.42l1.5,0.77l-0.67,1.25h-0.81L59.05,34.42z"/>
<path d="M60.55,35.19l1.02,13.31l-1.41-0.16l-0.28-11.89L60.55,35.19z"/>
<path d="M60.16,48.34h-1.11l-0.27-11.89h1.1L60.16,48.34z"/>
<path d="M61.06,48.5v1.4H59.1l-0.04-1.54l1.1-0.02L61.06,48.5z"/>
<path d="M59.8,48.34v1.56h-0.7l-0.04-1.56H59.8z"/>
<path d="M61.06,50.3v1.35l-1.92,0.19v-1.51h0.66L61.06,50.3z"/>
<path d="M59.8,50.33v1.44l-0.66,0.07v-1.51H59.8z"/>
<path d="M60.82,49.9v0.4l-1.02,0.03h-0.7L59.1,49.9H60.82z"/>
<rect x="59.1" y="49.9" width="0.58" height="0.43"/>
<path d="M61.06,51.65h0.56l0.1,4.63l-1.22,1.32v-5.88L61.06,51.65z"/>
<path d="M60.49,57.59l-1.2,0.9l-0.15-6.65l1.35-0.14V57.59z"/>
<path d="M58.88,40.91h0.59v2.33h-0.53L58.88,40.91z"/>
</g>
</g>
<g id="Right-Earcap_Recon"><g id="Range-Finder_Right_Recon" class="option" style="display: inherit;">
<g id="Finder_Range-Finder_Right_Recon" fill="rgb(18, 30, 18)">
<path d="M21.13,11.57H19.1l-0.56-1.83l0.86-2.08h14.21v1.07C29.16,8.78,24.62,8.6,21.13,11.57z"/>
<path d="M20.19,7.66l-0.94,2.18l0.61,1.73H19.1l-0.56-1.83l0.86-2.08H20.19z"/>
<path d="M33.16,8.73L33.16,8.73v0.6h-7.54C28,8.74,30.59,8.76,33.16,8.73z"/>
<path d="M25.62,9.33h6.96l-0.89,0.71h-6.47l-0.46-0.46l0-0.01C25.04,9.48,25.33,9.4,25.62,9.33z"/>
</g>
<path id="Shaft_Range-Finder_Right_Recon" d="M20.19,11.57h-0.57L18.8,38.14h0.57L20.19,11.57z" fill="rgb(43, 61, 43)"/>
<g id="Base_Range-Finder_Right_Recon" fill="rgb(18, 30, 18)">
<path d="M18.97,32.77l-1.79,1.07l-0.13,3.3l1.78,0.08L18.97,32.77z"/>
<path d="M17.39,37.15l-0.17,5.09h0.57l0.22-5.06L17.39,37.15z"/>
<path d="M17.37,37.79l-1.04,0.8l-0.06,2.72l0.95,0.93L17.37,37.79z"/>
<path d="M17.12,35.35l-0.3,0.17v2.69l0.55-0.42v-0.63l-0.32-0.01L17.12,35.35z"/>
<path d="M17.79,42.24l0.22-5.06l0.82,0.03l-0.03,0.92h0.57v4.1H17.79z"/>
<path d="M17.97,38.21h0.83l0.03-0.99h-0.82L17.97,38.21z"/>
<path d="M17.91,39.49h1.46v0.55h-1.48L17.91,39.49z"/>
<path d="M17.86,40.59l0.02-0.55h1.48v0.53L17.86,40.59z"/>
<path d="M18.58,38.21v1.28h-0.67l0.05-1.28H18.58z"/>
</g>
</g>
<g id="Ear-Cap_Right_Recon" fill="rgb(18, 30, 18)">
<path d="M20.89,34.42l-1.5,0.77l0.67,1.25h0.81L20.89,34.42z"/>
<path d="M19.39,35.19L18.37,48.5l1.41-0.16l0.28-11.89L19.39,35.19z"/>
<path d="M19.78,48.34h1.11l0.27-11.89h-1.1L19.78,48.34z"/>
<path d="M18.88,48.5v1.4h1.96l0.04-1.54l-1.1-0.02L18.88,48.5z"/>
<path d="M20.14,48.34v1.56h0.7l0.04-1.56H20.14z"/>
<path d="M18.88,50.3v1.35l1.92,0.19v-1.51h-0.66L18.88,50.3z"/>
<path d="M20.14,50.33v1.44l0.66,0.07v-1.51H20.14z"/>
<path d="M19.11,49.9v0.4l1.02,0.03h0.69l0.01-0.43H19.11z"/>
<rect x="20.26" y="49.9" width="0.58" height="0.43"/>
<path d="M18.88,51.65h-0.56l-0.1,4.63l1.22,1.32v-5.88L18.88,51.65z"/>
<path d="M19.45,57.59l1.2,0.9l0.15-6.65l-1.35-0.14V57.59z"/>
<path d="M21.06,40.91h-0.59v2.33h0.53L21.06,40.91z"/>
</g>
</g>
<g id="Helmet_Pieces_Recon">
<g id="Face_Recon" fill="rgb(14, 23, 14)">
<path d="M22.95,58.65l0.78-6.92l0.8-0.31l0.72-5.18c0,0,4.47,3.09,6.25,5.15c2.03,2.35,4.07,15.01,4.07,15.01 L22.95,58.65z"/>
<path d="M56.99,58.65l-0.78-6.92l-0.8-0.31l-0.72-5.18c0,0-4.47,3.09-6.25,5.15c-2.03,2.35-4.07,15.01-4.07,15.01 L56.99,58.65z"/>
</g>
<g id="Vents_Recon" fill="rgb(12, 20, 12)">
<g>
<path d="M25.99,53.31l-1.23-0.9l-0.45,0.15l-0.03,0.52l1.11,1.07v-0.59L25.99,53.31z"/>
<path d="M23.74,51.72l0.58,0.84l0.45-0.15l1.23,0.9l-0.6,0.25l1.75,1.18l1.67-0.85c-1.6-0.7-3.04-1.52-4.28-2.48 L23.74,51.72z"/>
<path d="M27.15,54.74c-0.81,1.67-1.09,3.66-0.87,5.95l1.51,0.93l1.03-7.72L27.15,54.74z"/>
<path d="M27.58,54.93l0.79-0.4l-0.86,6.48l-0.88-0.54l-0.01-0.17h0.76v-0.4h-0.78l-0.01-0.2l0-0.22h0.93v-0.4 h-0.93l0-0.12l0.01-0.31h1.04v-0.4h-1.01v-0.01l0.05-0.41h1.08v-0.4h-1.02l0.08-0.43h0.99v-0.4h-0.9l0.09-0.37l0.02-0.06h0.9 v-0.4h-0.77l0.05-0.15l0.11-0.27h0.76v-0.4H27.58z"/>
<path d="M26.28,60.69l-3.32-2.04l0.78-6.92l0.58,0.84l-0.04,0.51l1.12,1.08v-0.59l1.75,1.18 c-0.8,1.67-1.09,3.64-0.87,5.92L26.28,60.69z"/>
<path d="M24.6,52.78l0.8,0.78l0.6-0.25l-0.94-0.69L24.6,52.78z"/>
<path d="M24.6,53.09v-0.31l0.8,0.78v0.28L24.6,53.09z"/>
<path d="M24.28,53.08l0.32,0.02"/>
<path d="M25.05,58.83l-1.14-0.65v0.32l1.14,0.65V58.83z"/>
<path d="M27.58,54.93h0.47v0.4h-0.76l0.14-0.32l0,0L27.58,54.93z"/>
<path d="M27.12,55.76l-0.13,0.4h0.9v-0.4H27.12z"/>
<path d="M26.88,56.59l-0.07,0.28l-0.02,0.12h0.99v-0.4H26.88z"/>
<path d="M26.71,57.42l-0.02,0.12l-0.03,0.28h1.08v-0.4H26.71z"/>
<path d="M26.61,58.25l-0.02,0.4h1.04v-0.4H26.61z"/>
<path d="M26.58,59.07l0,0.4h0.93v-0.4H26.58z"/>
<path d="M26.59,59.9l0.03,0.4h0.76v-0.4H26.59z"/>
</g>
<g>
<path d="M53.95,53.31l1.23-0.9l0.45,0.15l0.03,0.52l-1.11,1.07v-0.59L53.95,53.31z"/>
<path d="M56.2,51.72l-0.58,0.84l-0.45-0.15l-1.23,0.9l0.6,0.25l-1.75,1.18l-1.67-0.85c1.6-0.7,3.04-1.52,4.28-2.48 L56.2,51.72z"/>
<path d="M52.79,54.74c0.81,1.67,1.09,3.66,0.87,5.95l-1.51,0.93l-1.03-7.72L52.79,54.74z"/>
<path d="M52.36,54.93l-0.79-0.4l0.86,6.48l0.88-0.54l0.01-0.17h-0.76v-0.4h0.78l0.01-0.2l0-0.22h-0.93v-0.4h0.93 l0-0.12l-0.02-0.31h-1.03v-0.4h1.01v-0.01l-0.05-0.41h-1.08v-0.4h1.02l-0.08-0.43h-0.99v-0.4h0.9l-0.09-0.37l-0.02-0.06h-0.9 v-0.4h0.77l-0.05-0.15l-0.11-0.27h-0.76v-0.4H52.36z"/>
<path d="M53.66,60.69l3.33-2.04l-0.78-6.92l-0.58,0.84l0.04,0.51l-1.12,1.08v-0.59l-1.75,1.18 c0.8,1.67,1.09,3.64,0.87,5.92L53.66,60.69z"/>
<path d="M55.34,52.78l-0.8,0.78l-0.6-0.25l0.94-0.69L55.34,52.78z"/>
<path d="M55.34,53.09v-0.31l-0.8,0.78v0.28L55.34,53.09z"/>
<path d="M55.66,53.08l-0.32,0.02"/>
<path d="M54.89,58.83l1.14-0.65v0.32l-1.14,0.65V58.83z"/>
<path d="M52.36,54.93h-0.47v0.4h0.76l-0.14-0.32l0,0L52.36,54.93z"/>
<path d="M52.82,55.76l0.13,0.4h-0.9v-0.4H52.82z"/>
<path d="M53.06,56.59l0.07,0.28l0.02,0.12h-0.99v-0.4H53.06z"/>
<path d="M53.23,57.42l0.02,0.12l0.03,0.28h-1.08v-0.4H53.23z"/>
<path d="M53.33,58.25l0.02,0.4h-1.03v-0.4H53.33z"/>
<path d="M53.36,59.07l0,0.4h-0.93v-0.4H53.36z"/>
<path d="M53.35,59.9l-0.02,0.4h-0.76v-0.4H53.35z"/>
</g>
</g>
<g id="Cheeks_Recon" fill="rgb(12, 23, 12)">
<path d="M24.76,42.7l0.5,3.54l-0.72,5.18l-0.8,0.31L24.76,42.7z"/>
<path d="M24.76,42.7c0,0,5.37,3.85,7.13,6.73c2.19,3.56,4.26,16.16,4.39,16.95l0.01,0.04h-0.69 c0,0-2.04-12.66-4.07-15.01c-1.79-2.07-6.25-5.15-6.25-5.15L24.76,42.7z"/>
<path d="M26.25,44.85l0.13,0.63l1.17,0.9l-0.08-0.66L26.25,44.85z"/>
<path d="M55.18,42.7l-0.5,3.54l0.72,5.18l0.8,0.31L55.18,42.7z"/>
<path d="M55.18,42.7c0,0-5.37,3.85-7.13,6.73c-2.19,3.56-4.26,16.16-4.39,16.95l-0.01,0.04h0.69 c0,0,2.04-12.66,4.07-15.01c1.79-2.07,6.25-5.15,6.25-5.15L55.18,42.7z"/>
</g>
<path fill="rgb(0, 0, 0)" id="Visor_Recon" d="M38.94,66.41l-1.37-22.04l-0.7-0.17l-8.9-2.78l-0.9-2.27l0.29,0.01 c2.17,0.39,4.47,0.71,6.97,0.94l0,0l2.05,1.35c1.16,0.21,2.36,0.3,3.58,0.31h0.03H40c1.22-0.02,2.42-0.11,3.58-0.31l2.05-1.35l0,0 c2.5-0.23,4.8-0.55,6.96-0.94l0.29-0.01l-0.9,2.27l-8.9,2.78l-0.7,0.17L41,66.41H38.94z"/>
<g id="Eyes-2_Recon" fill="rgb(17, 29, 16)">
<path d="M26.16,38.93l0.79,2.17l9.91,3.1l1.41,22.22h-1.99c0,0-2.14-13.31-4.39-16.98 c-1.76-2.87-7.13-6.73-7.13-6.73l1-3.85L26.16,38.93z"/>
<path d="M27.05,39.1l0.92,2.31l-1.01-0.31l-0.79-2.17L27.05,39.1z"/>
<path d="M36.86,44.19l0.7,0.17l1.37,22.04h-0.66L36.86,44.19z"/>
<path d="M53.78,38.93l-0.79,2.17l-9.91,3.1l-1.41,22.22h1.99c0,0,2.14-13.31,4.39-16.98 c1.76-2.87,7.13-6.73,7.13-6.73l-1-3.85L53.78,38.93z"/>
<path d="M52.9,39.1l-0.92,2.31l1.01-0.31l0.79-2.17L52.9,39.1z"/>
<path d="M43.08,44.19l-0.7,0.17L41,66.41h0.66L43.08,44.19z"/>
<path d="M39.91,40.42c-5.46-0.15-10.04-0.74-14.14-1.57h28.41c-4.11,0.83-8.72,1.42-14.21,1.57L39.91,40.42z"/>
<path d="M39.94,41.75c-1.22-0.02-2.42-0.11-3.58-0.31l-2.05-1.35l0,0c1.78,0.16,3.66,0.28,5.66,0.33l0.09,0 c1.96-0.06,3.81-0.17,5.56-0.33l0,0l-2.05,1.35c-1.17,0.21-2.38,0.3-3.61,0.31H39.94z"/>
</g>
<g id="Eyes-1_Recon" fill="rgb(14, 21, 14)">
<path d="M24.57,38.85h0.69L24.2,42.7l-1.76,15.96h-1.78c0.55-6.99,1.81-13.59,3.89-19.74L24.57,38.85z"/>
<path d="M25.76,38.85l-1,3.85l-1.81,15.96h-0.52L24.2,42.7l1.06-3.85H25.76z"/>
<path d="M55.37,38.85h-0.69l1.06,3.85l1.76,15.96h1.78c-0.55-6.99-1.81-13.59-3.89-19.74L55.37,38.85z"/>
<path d="M54.18,38.85l1,3.85l1.81,15.96h0.52L55.74,42.7l-1.06-3.85H54.18z"/>
<rect x="20.33" y="34.94" width="39.28" height="3.12"/>
<path d="M37.44,36.49l2.05-0.6v1.2L37.44,36.49z"/>
<path d="M42.5,36.49l-2.05-0.6v1.2L42.5,36.49z"/>
<path d="M24.57,38.85c-2.09,6.16-3.36,12.79-3.91,19.81l0.45-20.59h37.74l0.45,20.59 c-0.55-7.02-1.82-13.64-3.91-19.81H24.57z"/>
<path d="M23.21,43.31l0.98-0.61"/>
<path d="M24.76,42.7H24.2"/>
<path d="M56.73,43.31l-0.98-0.61"/>
<path d="M55.18,42.7h0.57"/>
</g>
<g id="Dome-2_Recon" fill="rgb(17, 23, 17)">
<path d="M39.97,19.24v15.7h-19.1C20.87,29.05,28.47,19.24,39.97,19.24z"/>
<path d="M39.97,19.24v15.7h19.1C59.07,29.05,51.47,19.24,39.97,19.24z"/>
<path d="M38.05,34.94V18.66l1.92-0.1l1.92,0.1v16.27H38.05z"/>
</g>
<g id="Dome-1_Recon" fill="rgb(13, 18, 13)">
<path d="M38.05,34.94V18.18c-2.96,0.39-5.75,1.3-8.32,2.84v13.91H38.05z"/>
<path d="M41.89,34.94V18.18c2.96,0.39,5.75,1.3,8.32,2.84v13.91H41.89z"/>
</g>
</g>
<g id="Macrobinoculars_Brow_Recon" class="toggle" style="">
<g id="Arms_Macrobinoculars_Brow_Recon" fill="rgb(33, 42, 33)">
<path d="M22.29,27.79l-0.6-0.17l-3.95,9.47l0,0.38l0.51,0.01L22.29,27.79z"/>
<rect x="18.97" y="38.37" width="1.04" height="0.94"/>
<rect x="18.23" y="38.37" width="0.5" height="0.94"/>
<rect x="18.23" y="39.31" width="0.5" height="1.61"/>
<rect x="17.74" y="37.48" width="0.49" height="3.44"/>
<path d="M17.74,35.44l-0.54,0.31v2.15l0.54-0.41V35.44z"/>
<path d="M17.74,37.48l-0.79,0.11l-0.01,2.53l0.8,0.81V37.48z"/>
<rect x="18.73" y="38.37" width="0.24" height="0.94"/>
<path d="M17.74,35.44l0.24-0.42l0.72-0.24l-0.97,2.32L17.74,35.44z"/>
<path d="M17.98,35.01v-0.4L17.2,35.1v0.65l0.54-0.31L17.98,35.01z"/>
<path d="M17.98,35.01V34.1l0.72-0.7v1.36L17.98,35.01z"/>
<path d="M18.22,37.48h1.11l-0.05,0.89h-1.06L18.22,37.48z"/>
<path d="M19.33,37.48h-1.11l1.06,0.89L19.33,37.48z"/>
<path d="M18.56,36.74l0.78,0.27v0.46h-1.08L18.56,36.74z"/>
<path d="M18.73,40.92v-1.61h0.48l-0.12,1.61H18.73z"/>
<path d="M18.73,33.4l2.79-6.76l0.05,0.93l0.12,0.04l-2.96,7.1V33.4z"/>
<path d="M19.96,30.81l-0.88,2.09v0.54l0.89-2.12L19.96,30.81z"/>
<path d="M21.24,27.76l-0.88,2.09v0.54l0.89-2.12L21.24,27.76z"/>
<path d="M57.65,27.79l0.6-0.17l3.95,9.47l0,0.38l-0.51,0.01L57.65,27.79z"/>
<rect x="59.93" y="38.37" width="1.04" height="0.94"/>
<rect x="61.21" y="38.37" width="0.5" height="0.94"/>
<rect x="61.21" y="39.31" width="0.5" height="1.61"/>
<rect x="61.71" y="37.48" width="0.49" height="3.44"/>
<path d="M62.2,35.44l0.53,0.31v2.15l-0.53-0.41V35.44z"/>
<path d="M62.2,37.48l0.78,0.11L63,40.12l-0.8,0.81V37.48z"/>
<rect x="60.97" y="38.37" width="0.24" height="0.94"/>
<path d="M62.2,35.44l-0.24-0.42l-0.72-0.24l0.97,2.32L62.2,35.44z"/>
<path d="M61.96,35.01v-0.4l0.78,0.48v0.65l-0.53-0.31L61.96,35.01z"/>
<path d="M61.96,35.01V34.1l-0.72-0.7v1.36L61.96,35.01z"/>
<path d="M61.72,37.48H60.6l0.05,0.89h1.06L61.72,37.48z"/>
<path d="M60.6,37.48h1.11l-1.06,0.89L60.6,37.48z"/>
<path d="M61.38,36.74l-0.78,0.27v0.46h1.08L61.38,36.74z"/>
<path d="M61.21,40.92v-1.61h-0.49l0.12,1.61H61.21z"/>
<path d="M61.21,33.4l-2.79-6.76l-0.05,0.93l-0.12,0.04l2.96,7.1V33.4z"/>
<path d="M59.98,30.81l0.88,2.09v0.54l-0.89-2.12L59.98,30.81z"/>
<path d="M58.7,27.76l0.88,2.09v0.54l-0.89-2.12L58.7,27.76z"/>
</g>
<g id="Main_Macrobinoculars_Brow_Recon" fill="rgb(15, 24, 15)">
<rect x="25.59" y="17.15" width="28.76" height="1.18"/>
<path d="M30.08,24.31l-0.01-1.83l1.27-1.37l0,1.8L30.08,24.31z"/>
<path d="M30.07,22.48l0.01,1.83h-6.44l0.79-1.83H30.07z"/>
<g>
<rect x="24.77" y="22.79" width="0.79" height="0.6"/>
<rect x="24.77" y="23.4" width="0.79" height="0.74"/>
</g>
<g>
<rect x="26.07" y="22.79" width="0.79" height="0.6"/>
<rect x="26.07" y="23.4" width="0.79" height="0.74"/>
</g>
<g>
<rect x="27.38" y="22.79" width="0.79" height="0.6"/>
<rect x="27.38" y="23.4" width="0.79" height="0.74"/>
</g>
<g>
<rect x="28.68" y="22.79" width="0.79" height="0.6"/>
<rect x="28.68" y="23.4" width="0.79" height="0.74"/>
</g>
<path d="M29.08,24.31l-3.51,3.05h-1.93v-3.05H29.08z"/>
<path d="M24.77,27.36l-0.97,0.88l-2.24-0.67l1.51-3.27h0.56v3.05H24.77z"/>
<path d="M21.56,27.58l-0.05-0.93V25.2l4.07-8.05v1.18l-1.16,4.15l-0.79,1.83h-0.56L21.56,27.58z"/>
<path d="M21.76,24.71v1.93l3.55-8.12v-0.75L21.76,24.71z"/>
<path d="M22.52,23.24l1.29-4.65l1.1,0.33c0,0,0.04,1.34-0.29,2.51c-0.2,0.69-0.89,2.07-0.89,2.07L22.52,23.24z"/>
<path d="M23.83,18.59c0.2,0.06,0.08,1.15-0.27,2.43c-0.35,1.28-0.81,2.28-1.01,2.22c-0.2-0.06-0.08-1.14,0.27-2.43 C23.16,19.52,23.62,18.53,23.83,18.59z"/>
<path d="M23.56,19.43c0.12,0.03,0.03,0.72-0.19,1.53c-0.22,0.81-0.5,1.44-0.62,1.41c-0.12-0.03-0.03-0.72,0.19-1.53 C23.16,20.03,23.44,19.4,23.56,19.43z"/>
<path d="M23.92,18.95l0.99,0.27"/>
<path d="M23.9,19.32l1,0.27"/>
<path d="M23.87,19.59l1.02,0.27"/>
<path d="M23.81,19.93l1.04,0.26"/>
<path d="M23.76,20.19l1.06,0.24"/>
<path d="M23.66,20.62l1.08,0.33"/>
<path d="M23.6,20.84l1.09,0.31"/>
<path d="M23.48,21.28l1.09,0.31"/>
<path d="M23.42,21.48l1.08,0.32"/>
<path d="M23.26,21.95l1.04,0.31"/>
<path d="M23.18,22.16l1.04,0.29"/>
<path d="M23.05,22.5l1.01,0.3"/>
<path d="M22.98,22.65l1.01,0.3"/>
<path d="M22.85,22.9l1.01,0.31"/>
<path d="M22.75,23.07l1.04,0.29"/>
<path d="M49.86,24.31l0.01-1.83l-1.27-1.37l0.01,1.8L49.86,24.31z"/>
<path d="M49.87,22.48l-0.01,1.83h6.44l-0.79-1.83H49.87z"/>
<path d="M50.86,24.31l3.51,3.05h1.93v-3.05H50.86z"/>
<path d="M55.17,27.36l0.97,0.88l2.24-0.67l-1.51-3.27H56.3v3.05H55.17z"/>
<path d="M58.38,27.58l0.05-0.93V25.2l-4.07-8.05v1.18l1.16,4.15l0.79,1.83h0.56L58.38,27.58z"/>
<path d="M58.18,24.71v1.93l-1.28-2.92h-0.6l-0.59-1.36l-1.09-3.84v-0.75L58.18,24.71z"/>
<path d="M25.59,18.33h28.76l1.16,4.15h-5.64l-1.27-1.37H31.34l-1.27,1.37h-5.64L25.59,18.33z"/>
<path d="M31.34,21.11H48.6l0.01,1.8l-0.45-0.43H31.78l-0.45,0.43L31.34,21.11z"/>
<path d="M55.01,23.07h-4.38v0.65h4.72L55.01,23.07z"/>
<path d="M55.26,19.49l0.22,0.52v0.55L55.26,20L55.26,19.49z"/>
<path d="M55.64,20.25l0.22,0.52v0.55l-0.23-0.56L55.64,20.25z"/>
<path d="M56.01,21.01l0.22,0.52v0.55L56,21.52L56.01,21.01z"/>
<path d="M56.38,21.76l0.22,0.52v0.55l-0.23-0.56L56.38,21.76z"/>
<rect x="51.46" y="16.55" width="2.55" height="0.6"/>
<path d="M51.46,16.67l-0.35,0.2v0.28h0.35V16.67z"/>
<path d="M54,16.67l0.35,0.2v0.28H54V16.67z"/>
</g>
<path fill="rgb(35, 51, 82)" id="Visor_Macrobinoculars_Brow_Recon" d="M53.58,17.43c0.07,0,0.14,0.03,0.19,0.08 c0.05,0.05,0.08,0.12,0.08,0.19c0,0.02,0,0.05,0,0.07c0,0.07-0.03,0.14-0.08,0.19c-0.05,0.05-0.12,0.08-0.19,0.08H26.36 c-0.07,0-0.14-0.03-0.19-0.08c-0.05-0.05-0.08-0.12-0.08-0.19c0-0.02,0-0.05,0-0.07c0-0.07,0.03-0.14,0.08-0.19 c0.05-0.05,0.12-0.08,0.19-0.08H53.58z"/>
</g>
</g></g>
<g id="HelmetsDecals" mask="url(#HelmetsMask)"/>
<g id="Shoulders">
<g id="Left-Shoulder"><g id="Legacy-x2_Shoulder_Left" class="option" style="display: inherit;">
<path id="Plate-2_Shoulder_Left_Legacy-x2" d="M115.99,15.27l-5.8,8.69l5.95,8.29l9.39-2.29l5.9,3.63l4.41-1.15 L115.99,15.27z" fill="rgb(15, 20, 12)"/>
<path id="Trauma-Plate-2_Shoulder_Legacy-x2_Left" class="toggle" style="" d="M131.69,31.78l2.85-0.74l-17.1-14.9l-5.19,7.75 l4.6,6.43l8.64-2.17L131.69,31.78z" fill="rgb(23, 31, 20)"/>
<path id="Plate-1_Shoulder_Left_Legacy-x2" d="M108.85,10.82l-2.61,10.1l8.36,5.89l8.12-5.22l6.77,1.51l3.79-2.53 L108.85,10.82z" fill="rgb(17, 22, 17)"/>
<path id="Trauma-Plate-1_Shoulder_Legacy-x2_Left" class="toggle" style="" d="M129.14,21.3l2.45-1.64L110.5,11.2l-2.33,9.02 l6.47,4.56l7.43-4.88L129.14,21.3z" fill="rgb(20, 27, 18)"/>
</g></g>
<g id="Right-Shoulder"><g id="Gunslinger-Bell_Shoulder_Right" class="option" style="display: inherit;">
<path id="Main_Gunslinger-Bell_Shoulder_Right" d="M56.13,16.41c-6.16-0.15-19.92,4.76-19.37,22.26l0.08,3.45 l11.98,4.89l10.5-13.96l0-16.64L56.13,16.41z" fill="rgb(71, 80, 89)"/>
<path id="Ridge_Gunslinger-Bell_Shoulder_Right" class="toggle" d="M59.32,16.41L59.32,16.41l0-2.02 c-13.11-0.07-25.51,5.55-24.56,27.14l2.01,0.47c0.02-0.25,0.04-0.51,0.06-0.75l-0.06-2.59c-0.55-17.49,13.2-22.4,19.37-22.26 h0.68C58.17,16.22,59.1,16.27,59.32,16.41L59.32,16.41L59.32,16.41z" fill="rgb(22, 37, 21)"/>
<g id="Trim_Gunslinger-Bell_Shoulder_Right" class="toggle" fill="rgb(57, 64, 71)">
<rect x="56.13" y="15.63" width="3.19" height="17.45"/>
<path d="M56.13,32l3.19,1.05L48.81,47.02l-2.55-1.9L56.13,32z"/>
<path d="M47.74,43.14l1.12,3.88l-12.58-5.13v-3.42L47.74,43.14z"/>
</g>
</g></g>
</g>
<g id="ShouldersDecals" mask="url(#ShouldersMask)">
</g>
<g id="Gauntlets">
<g id="Left-Gauntlets"><g id="Gunslinger_Gauntlet_Left" class="option" style="display: inherit;">
<g id="Accent-Top_Gunslinger_Gauntlet_Left" fill="rgb(57, 64, 71)">
<path d="M139.9,80.56l0.62,5.62l-2.85,0.79l-0.66-5.33L139.9,80.56z"/>
<path d="M138.55,101.39l0.57,2.87l-2.51,0.54l-0.6-2.86L138.55,101.39z"/>
</g>
<path id="Top_Gunslinger_Gauntlet_Left" d="M139.9,80.56l1.3-0.49l2.29,26.33l-6.27,1.32l-0.85-4.08l0.24,1.15 l2.51-0.54l-0.57-2.87l-2.54,0.54l-3.85-18.47L139.9,80.56l-2.89,1.08l0.66,5.33l2.85-0.79L139.9,80.56z" fill="rgb(71, 80, 89)"/>
<g id="Accent-Bottom_Gunslinger_Gauntlet_Left" fill="rgb(48, 54, 59)">
<path d="M128.55,91.98l-0.74-2.3l-1.62,0.52l0.74,2.3L128.55,91.98z"/>
<path d="M129.4,94.59l-0.74-2.3l-1.62,0.52l0.74,2.3L129.4,94.59z"/>
<path d="M136.01,101.93l-5.61,1.2l0.9,2.8l5.3-1.13L136.01,101.93z"/>
</g>
<path id="Bottom_Gunslinger_Gauntlet_Left" d="M136.52,104.38l-0.51-2.45l-5.61,1.2l0.9,2.8l5.3-1.13l0.61,2.93 c0,0-1.97,0.34-3.45,0.6c-0.92,0.16-1.82-0.38-2.11-1.26c-1.57-4.84-6.31-19.4-6.31-19.4l6.89-3.82L136.52,104.38z M129.4,94.59 l-0.74-2.3l-1.62,0.52l0.74,2.3L129.4,94.59z M128.55,91.98l-0.74-2.3l-1.62,0.52l0.74,2.3L128.55,91.98z" fill="rgb(57, 64, 71)"/><g id="Flamethrower_Attachment_Gunslinger_Gauntlet_Left" class="option" style="display: inherit;">
<g id="Tubes_Flamethrower_Attachment_Gunslinger_Gauntlet_Left" fill="rgb(103, 103, 103)">
<path d="M142.76,81.61l-0.83,0.07l2.1,25.17l0.83-0.07L142.76,81.61z"/>
<path d="M144.67,81.45l-0.83,0.07l1.51,18.05l0.83-0.07L144.67,81.45z"/>
<path d="M143.05,83.17l-1.14,0.09l0.5,6l1.14-0.09L143.05,83.17z"/>
<path d="M144.96,83.02l-1.14,0.1l0.5,6l1.14-0.09L144.96,83.02z"/>
</g>
<g id="Main_Flamethrower_Attachment_Gunslinger_Gauntlet_Left" fill="rgb(81, 81, 81)">
<path d="M145.02,81.42l-3.42,0.28l0.13,1.58l3.42-0.28L145.02,81.42z"/>
<path d="M145.73,88.99l-3.57,0.3l0.08,0.96l3.57-0.29L145.73,88.99z"/>
<path d="M145.66,89.96l-3.28,0.27l0.04,0.48l3.28-0.27L145.66,89.96z"/>
<path d="M142.47,88.66l-0.55,0.06l0.25,2.93l0.55-0.06L142.47,88.66z"/>
</g>
<g id="Accent_Flamethrower_Attachment_Gunslinger_Gauntlet_Left" fill="rgb(88, 88, 88)">
<path d="M146.2,99.5l-0.89,0.07l-0.03,1.25l1.17-0.1L146.2,99.5z"/>
<path d="M146.01,93.06l-1.58,0.13l0.16,1.91l1.58-0.13L146.01,93.06z"/>
<path d="M145.96,94.98l-1.14,0.1l0.16,1.91l1.14-0.09L145.96,94.98z"/>
<path d="M144.76,103.59l-1.14,0.09l0.22,2.62l1.14-0.09L144.76,103.59z"/>
<path d="M144.05,95.14l-1.14,0.1l0.3,3.56l1.14-0.09L144.05,95.14z"/>
<path d="M145.08,104.88l-1.58,0.13l0.04,0.51l1.58-0.13L145.08,104.88z"/>
</g>
<path id="Base_Flamethrower_Attachment_Gunslinger_Gauntlet_Left" d="M141.92,88.72l-0.68-7.94l0.98,0.29 l1.15,13.43l-0.92,0.51l-0.29-3.36l0.55-0.06l-0.25-2.93L141.92,88.72z" fill="rgb(80, 80, 80)"/>
</g></g></g>
<g id="Right-Gauntlets"><g id="Gunslinger_Gauntlet_Right" class="option" style="display: inherit;">
<g id="Accent-Top_Gunslinger_Gauntlet_Right" fill="rgb(57, 64, 71)">
<path d="M30.21,80.56l-0.62,5.62l2.85,0.79l0.66-5.33L30.21,80.56z"/>
<path d="M31.56,101.39l-0.57,2.87l2.51,0.54l0.6-2.86L31.56,101.39z"/>
</g>
<path id="Top_Gunslinger_Gauntlet_Right" d="M30.21,80.56l-1.3-0.49l-2.29,26.33l6.27,1.32l0.85-4.08l-0.24,1.15 l-2.51-0.54l0.57-2.87l2.54,0.54l3.85-18.47L30.21,80.56l2.89,1.08l-0.66,5.33l-2.85-0.79L30.21,80.56z" fill="rgb(71, 80, 89)"/>
<g id="Accent-Bottom_Gunslinger_Gauntlet_Right" fill="rgb(48, 54, 59)">
<path d="M41.56,91.98l0.74-2.3l1.62,0.52l-0.74,2.3L41.56,91.98z"/>
<path d="M40.71,94.59l0.74-2.3l1.62,0.52l-0.74,2.3L40.71,94.59z"/>
<path d="M34.1,101.93l5.61,1.2l-0.9,2.8l-5.3-1.13L34.1,101.93z"/>
</g>
<path id="Bottom_Gunslinger_Gauntlet_Right" d="M33.59,104.38l0.51-2.45l5.61,1.2l-0.9,2.8l-5.3-1.13l-0.61,2.93 c0,0,1.97,0.34,3.45,0.6c0.92,0.16,1.82-0.38,2.11-1.26c1.57-4.84,6.31-19.4,6.31-19.4l-6.89-3.82L33.59,104.38z M40.71,94.59 l0.74-2.3l1.62,0.52l-0.74,2.3L40.71,94.59z M41.56,91.98l0.74-2.3l1.62,0.52l-0.74,2.3L41.56,91.98z" fill="rgb(57, 64, 71)"/><g id="Missle_Attachment_Gunslinger_Gauntlet_Right" class="option" style="display: inherit;">
<g id="Head_Missle_Attachment_Gunslinger_Gauntlet_Right" fill="rgb(81, 81, 81)">
<path d="M25.11,99.64l2.27-4.28l-3.76-0.42L25.11,99.64z"/>
<path d="M26.07,95.61c-0.08-0.01-0.16,0.16-0.18,0.38c-0.02,0.22,0.03,0.4,0.11,0.41 c0.08,0.01,0.16-0.16,0.18-0.38C26.2,95.81,26.15,95.62,26.07,95.61z"/>
<path d="M25.85,96.77c-0.07-0.01-0.13,0.13-0.15,0.3c-0.01,0.17,0.03,0.32,0.09,0.33c0.07,0.01,0.13-0.13,0.15-0.3 C25.95,96.93,25.91,96.78,25.85,96.77z"/>
<path d="M25.72,97.83c-0.06-0.01-0.12,0.12-0.13,0.28c-0.01,0.16,0.02,0.3,0.08,0.3c0.06,0.01,0.12-0.12,0.13-0.28 C25.81,97.98,25.78,97.84,25.72,97.83z"/>
<path d="M26.68,95.68c-0.08-0.01-0.16,0.16-0.18,0.38c-0.02,0.22,0.03,0.4,0.11,0.41 c0.08,0.01,0.16-0.16,0.18-0.38C26.81,95.88,26.76,95.69,26.68,95.68z"/>
<path d="M24.24,95.41c-0.08-0.01-0.17,0.16-0.18,0.38c-0.02,0.22,0.03,0.4,0.11,0.41 c0.08,0.01,0.16-0.16,0.18-0.38C24.38,95.6,24.32,95.42,24.24,95.41z"/>
<path d="M24.85,95.48c-0.08-0.01-0.16,0.16-0.18,0.38c-0.02,0.22,0.03,0.4,0.12,0.41 c0.08,0.01,0.16-0.16,0.18-0.38C24.99,95.67,24.93,95.49,24.85,95.48z"/>
<path d="M24.87,96.66c-0.07-0.01-0.13,0.13-0.15,0.3c-0.02,0.18,0.03,0.32,0.09,0.33c0.07,0.01,0.13-0.13,0.15-0.3 C24.98,96.82,24.94,96.67,24.87,96.66z"/>
<path d="M24.82,97.73c-0.06-0.01-0.12,0.12-0.14,0.28c-0.01,0.16,0.02,0.3,0.09,0.3c0.06,0.01,0.12-0.12,0.13-0.28 C24.92,97.88,24.88,97.74,24.82,97.73z"/>
<path d="M25.46,95.55c-0.08-0.01-0.16,0.16-0.18,0.38c-0.02,0.22,0.03,0.4,0.11,0.41 c0.08,0.01,0.16-0.16,0.18-0.38C25.59,95.74,25.54,95.56,25.46,95.55z"/>
<path d="M25.36,96.72c-0.07-0.01-0.13,0.13-0.15,0.3c-0.01,0.18,0.03,0.32,0.09,0.33c0.07,0.01,0.13-0.13,0.15-0.3 C25.47,96.87,25.42,96.72,25.36,96.72z"/>
<path d="M25.27,97.79c-0.06-0.01-0.12,0.12-0.14,0.28c-0.01,0.16,0.02,0.3,0.09,0.3c0.06,0.01,0.12-0.12,0.13-0.28 C25.37,97.93,25.33,97.79,25.27,97.79z"/>
<path d="M24.34,97.24c0.06-0.01,0.12-0.14,0.13-0.3c0.01-0.17-0.03-0.32-0.09-0.33c-0.07-0.01-0.13,0.12-0.15,0.29 L24.34,97.24z M26.43,97.15c0.01-0.17-0.03-0.31-0.09-0.32c-0.07-0.01-0.13,0.13-0.15,0.3c-0.01,0.16,0.02,0.3,0.08,0.33 L26.43,97.15z"/>
</g>
<g id="Main_Missle_Attachment_Gunslinger_Gauntlet_Right" fill="rgb(63, 63, 63)">
<path d="M24.12,94.36l2.84,0.32l-0.05,0.62l-2.84-0.32L24.12,94.36z"/>
<path d="M25.25,81.25l2.84,0.32l-0.05,0.62l-2.85-0.32L25.25,81.25z"/>
<path d="M26.03,79.03l1.67,0.19l-0.05,0.62l-1.68-0.19L26.03,79.03z"/>
<path d="M25.26,79.57l3.12,0.35l-0.14,1.66l-3.12-0.35L25.26,79.57z"/>
<path d="M24.94,81.84l3.36,0.38l-1.07,12.5l-3.36-0.38L24.94,81.84z"/>
<path d="M27.61,88.81l0.55,0.06l-0.25,2.93l-0.55-0.06L27.61,88.81z"/>
</g>
<g id="Accent_Missle_Attachment_Gunslinger_Gauntlet_Right" fill="rgb(71, 70, 70)">
<path d="M25.04,100.43l0.45-1.08l-0.7-0.08L25.04,100.43z"/>
<path d="M24.88,99l0.56,0.06l0.05,0.29l-0.7-0.08L24.88,99z"/>
<path d="M25.92,78.14l2.05,0.23l-0.07,0.87L25.84,79L25.92,78.14z"/>
<path d="M26.3,77.72l1.36,0.15l0.31,0.5l-2.05-0.23L26.3,77.72z"/>
<path d="M25.95,81.95l0.57,0.06l-1.07,12.5l-0.57-0.07L25.95,81.95z"/>
<path d="M26.72,82.04l0.57,0.06l-1.07,12.5l-0.57-0.06L26.72,82.04z"/>
<path d="M24.68,82.13l0.26-0.3l-1.07,12.5l-0.2-0.35L24.68,82.13z"/>
<path d="M25.17,81.86l0.57,0.07l-1.07,12.5l-0.57-0.06L25.17,81.86z"/>
<path d="M27.5,82.13l0.35,0.04l-1.07,12.5l-0.35-0.04L27.5,82.13z"/>
</g>
<path id="Base_Missle_Attachment_Gunslinger_Gauntlet_Right" d="M27.86,81.23l0.98-0.29l-1.22,14.23l-0.92-0.51 L27.86,81.23z M27.61,88.81l0.55,0.06l-0.25,2.93l-0.55-0.06L27.61,88.81z" fill="rgb(76, 76, 76)"/>
</g></g></g>
</g>
<g id="GauntletsDecals" mask="url(#GauntletsMask)">
</g>
<g id="Shins">
<g id="Left-Shin"><g id="Heavy-Shnees_Shin_Left" class="option" style="display: inherit;">
<g id="Shin_Heavy-Shnees-Shin_Left" fill="rgb(19, 25, 17)">
<path d="M112.07,224.31l4.68-6.1l8.52-1.02l-6.09-55.58l-24.29,3.02l12.33,51.48l0.09,5.64L112.07,224.31"/>
<path d="M98.68,163.41l-2.62-2.14h-1.73c0,0-0.8,4.95-0.63,7.41c0.28,3.98,4.34,9.06,4.34,9.06l2.69,1.26l3.01-6.94 L98.68,163.41"/>
<path d="M116.83,168.97l1.64-8.34c0,0,2.41,4.71,2.64,7.17c0.41,4.36-0.46,7.23-0.46,7.23L116.83,168.97"/>
<path d="M116.75,218.21l8.52-1.02l-2.11-4.26l-5.82,0.52L116.75,218.21"/>
<path d="M120.15,213.19l-6.83-36.52"/>
</g>
<g id="Knee_Heavy-Shnees-Shin_Left" fill="rgb(15, 20, 12)">
<path d="M113.99,153.2l-13.68,2.29l-2.04,9.89l10.06,12.11l9.04-1.28l2.9-14.95L113.99,153.2"/>
<path d="M100.31,155.49l2.93,3.55l10.59-1.66l0.16-4.18L100.31,155.49"/>
<path d="M103.24,159.04l-4.97,6.31l2.03-9.86L103.24,159.04"/>
<path d="M113.83,157.38l6.44,3.88l-6.28-8.06L113.83,157.38"/>
<path d="M113.83,157.38l3.54,18.83l2.9-14.95L113.83,157.38"/>
<path d="M103.24,159.04l-4.97,6.31l10.06,12.15L103.24,159.04"/>
</g>
<g id="Straps_Heavy-Shnees-Shin_Left" class="toggle" fill="rgb(20, 18, 17)">
<path d="M99.72,186.35l5.22-0.86l0.54,2.35l-5.22,0.86L99.72,186.35"/>
<path d="M100.07,186.1l1.11-0.18l0.64,2.78l-1.11,0.18L100.07,186.1"/>
<path d="M105.1,209.05l5.22-0.86l0.54,2.35l-5.22,0.86L105.1,209.05"/>
<path d="M105.44,208.8l1.1-0.18l0.64,2.78l-1.11,0.18L105.44,208.8"/>
</g>
</g></g>
<g id="Right-Shin"><g id="Heavy-Shnees_Shin_Right" class="option" style="display: inherit;">
<g id="Shin_Heavy-Shnees-Shin_Right" fill="rgb(19, 25, 17)">
<path d="M57.82,224.31l-4.68-6.1l-8.52-1.02l6.09-55.58l24.29,3.02l-12.33,51.48l-0.09,5.64L57.82,224.31"/>
<path d="M71.22,163.41l2.62-2.14h1.73c0,0,0.8,4.95,0.63,7.41c-0.28,3.98-4.34,9.06-4.34,9.06L69.18,179l-3.01-6.94 L71.22,163.41"/>
<path d="M53.06,168.97l-1.64-8.34c0,0-2.41,4.71-2.64,7.17c-0.41,4.36,0.46,7.23,0.46,7.23L53.06,168.97"/>
<path d="M53.14,218.21l-8.52-1.02l2.11-4.26l5.82,0.52L53.14,218.21"/>
<path d="M49.74,213.19l6.84-36.52"/>
</g>
<g id="Knee_Heavy-Shnees-Shin_Right" fill="rgb(15, 20, 12)">
<path d="M55.9,153.2l13.68,2.29l2.04,9.89l-10.06,12.11l-9.04-1.28l-2.9-14.95L55.9,153.2"/>
<path d="M69.58,155.49l-2.93,3.55l-10.59-1.66l-0.16-4.18L69.58,155.49"/>
<path d="M66.65,159.04l4.97,6.31l-2.04-9.86L66.65,159.04"/>
<path d="M56.06,157.38l-6.44,3.88l6.28-8.06L56.06,157.38"/>
<path d="M56.06,157.38l-3.54,18.83l-2.9-14.95L56.06,157.38"/>
<path d="M66.65,159.04l4.97,6.31l-10.06,12.15L66.65,159.04"/>
</g>
<g id="Straps_Heavy-Shnees-Shin_Right" class="toggle" fill="rgb(20, 18, 17)">
<path d="M70.17,186.35l-5.22-0.86l-0.54,2.35l5.22,0.86L70.17,186.35"/>
<path d="M69.82,186.1l-1.1-0.18l-0.64,2.78l1.11,0.18L69.82,186.1"/>
<path d="M64.8,209.05l-5.22-0.86l-0.54,2.35l5.22,0.86L64.8,209.05"/>
<path d="M64.45,208.8l-1.11-0.18l-0.64,2.78l1.1,0.18L64.45,208.8"/>
</g>
</g></g>
</g>
<g id="ShinsDecals" mask="url(#ShinsMask)">
</g>
<g id="Foot">
<g id="Left-Ankle"><g id="Legacy_Ankle_Left" class="option" style="display: inherit;">
<path id="Plate-2_Legacy-Ankle_Left" d="M126.71,222.74l4.34,3.89l2.99,3.74l-4.78,1.55l-10.95-2.26l-4.01-5.27 L126.71,222.74" fill="rgb(14, 20, 12)"/>
<path id="Plate-1_Legacy-Ankle_Left" d="M107,215.4c0,0,4.37,1.94,10.84,1.71c4.44-0.16,6.24-1.26,6.24-1.26 l3.76,6.93l-0.97,3.82l-15.84-1.24l-3.9-3.29L107,215.4" fill="rgb(14, 20, 12)"/>
<path id="Trauma-Plate-2_Legacy-Ankle_Left" class="toggle" style="" d="M127.64,223.58l3.39,3.04l1.75,2.18l-3.64,1.18 l-9.65-1.99l-1.58-2.08l8.96,0.7L127.64,223.58" fill="rgb(25, 30, 23)"/>
<path id="Trauma-Plate-1_Legacy-Ankle_Left" class="toggle" style="" d="M108.66,217.83l0.06,3.17l3.15,2.54l13.92,1.09 l0.99-3.82l-1.77-3.27c-1.17,0.33-4.74,1.36-7.08,1.44C114.21,219.12,110.73,218.37,108.66,217.83" fill="rgb(25, 30, 23)"/>
</g></g>
<g id="Left-Toe">
<g id="Armored_Toe_Left" class="option" style="display: inherit;">
<g id="Plate_Armored_Toe_Left" fill="rgb(25, 30, 23)">
<path d="M119.07,233.15l9.63,5.32l7.27,0.49l5.83-1.47c1.22-1.01,1.71-3.29,0.66-5.55l-8.21-3.88l-6.44,1.61 L119.07,233.15"/>
<path d="M127.13,229.95c0,0,7.51,2.19,8.45,3.48c1.04,1.44,0.39,5.53,0.39,5.53"/>
</g>
<g id="Trim_Armored_Toe_Left" fill="rgb(14, 20, 12)">
<path d="M133.13,227.42l-7.73,1.86l-6.52,3.94l1.35,0.74l6.91-4.02l7.7-1.8L133.13,227.42"/>
<path d="M125.39,229.29l1.74,0.66"/>
</g>
</g></g>
<g id="Right-Ankle"><g id="Legacy_Ankle_Right" class="option" style="display: inherit;">
<path id="Plate-2_Legacy-Ankle_Right" d="M43.17,222.74l-4.34,3.89l-2.99,3.74l4.78,1.55l10.95-2.26l4-5.27 L43.17,222.74" fill="rgb(14, 20, 12)"/>
<path id="Plate-1_Legacy-Ankle_Right" d="M62.87,215.4c0,0-4.37,1.94-10.84,1.71c-4.44-0.16-6.24-1.26-6.24-1.26 l-3.76,6.93L43,226.6l15.84-1.24l3.9-3.29L62.87,215.4" fill="rgb(14, 20, 12)"/>
<path id="Trauma-Plate-2_Legacy-Ankle_Right" class="toggle" style="" d="M42.23,223.58l-3.39,3.04l-1.75,2.18l3.64,1.18 l9.65-1.99l1.58-2.08L43,226.6L42.23,223.58" fill="rgb(25, 30, 23)"/>
<path id="Trauma-Plate-1_Legacy-Ankle_Right" class="toggle" style="" d="M61.21,217.83L61.15,221L58,223.54l-13.92,1.09 l-0.99-3.82l1.77-3.27c1.17,0.33,4.74,1.36,7.08,1.44C55.66,219.12,59.14,218.37,61.21,217.83" fill="rgb(25, 30, 23)"/>
</g></g>
<g id="Right-Toe">
<g id="Armored_Toe_Right" class="option" style="display: inherit;">
<g id="Plate_Armored_Toe_Right" fill="rgb(25, 30, 23)">
<path d="M50.81,233.15l-9.63,5.32l-7.27,0.49l-5.83-1.47c-1.22-1.01-1.71-3.29-0.66-5.55l8.21-3.88l6.44,1.61 L50.81,233.15"/>
<path d="M42.74,229.95c0,0-7.51,2.19-8.45,3.48c-1.04,1.44-0.39,5.53-0.39,5.53"/>
</g>
<g id="Trim_Armored_Toe_Right" fill="rgb(14, 20, 12)">
<path d="M36.75,227.42l7.73,1.86l6.52,3.94l-1.35,0.74l-6.91-4.02l-7.7-1.8L36.75,227.42"/>
<path d="M44.48,229.29l-1.74,0.66"/>
</g>
</g></g>
</g>
<g id="FootDecals" mask="url(#FootMask)">
</g>
<g id="Knees">
<g id="Left-Knee">
<g id="None-(Nih-Plates)_Knee_Left" class="option" style="display: inherit;">
</g></g>
<g id="Right-Knee">
<g id="None-(Nih-Plates)_Knee_Right" class="option" style="display: inherit;">
</g></g>
</g>
<g id="KneesDecals" mask="url(#KneesMask)">
</g>
<g id="Thighs">
<g id="Left-Thigh"><g id="Basic_Thigh_Left" class="option" style="display: inherit;">
<path id="Thigh_Basic-Thigh_Left" d="M120.21,115.6c0,0-5.03-6.43-7.59-7.49c-2.43-1.01-5.69-0.58-7.78,1.09 c-3.19,2.54-10.51,8.04-11.35,14.16c-0.93,6.83,4.08,21.95,5.78,26.84c0.58,1.66,2.77,2.41,4.44,2.48 c3.1,0.12,11.57-0.15,13.59-4.69C120.05,141.81,120.21,115.6,120.21,115.6" fill="rgb(15, 20, 12)"/>
<path id="Trauma-Plate_Basic-Thigh_Left" class="toggle" style="" d="M118.5,116.19c-0.75-0.93-2.56-3.1-4.3-4.77 c-0.83-0.79-1.62-1.49-2.25-1.75c-1.9-0.79-4.44-0.45-6.06,0.85c-1.85,1.47-5.15,3.97-7.66,7.02c-1.52,1.85-2.77,3.9-3.07,6.05 c-0.9,6.64,4.05,21.31,5.7,26.06c0.14,0.42,0.54,0.67,0.95,0.87c0.61,0.3,1.33,0.45,1.94,0.47c1.73,0.07,5.27,0.02,8.23-0.96 c1.63-0.54,3.12-1.33,3.75-2.73c0.78-1.75,1.3-5.22,1.7-9.2C118.31,129.59,118.47,118.81,118.5,116.19" fill="rgb(19, 25, 17)"/>
<g id="Ridge_Basic-Thigh_Left" class="toggle" style="" fill="rgb(15, 20, 12)">
<path d="M111.72,107.57l-3.48-0.89l-3.64,1.99l1.18,44.01c2.4,0.46,2.43,0.55,4.54-0.08L111.72,107.57"/>
<path d="M108.28,106.69l-0.1,46.36"/>
</g>
</g>
</g>
<g id="Right-Thigh"><g id="Basic_Thigh_Right" class="option" style="display: inherit;">
<path id="Thigh_Basic-Thigh_Right" d="M49.69,115.6c0,0,5.03-6.43,7.59-7.49c2.43-1.01,5.69-0.58,7.78,1.09 c3.19,2.54,10.51,8.04,11.35,14.16c0.93,6.83-4.08,21.95-5.78,26.84c-0.58,1.66-2.77,2.41-4.44,2.48 c-3.1,0.12-11.57-0.15-13.59-4.69C49.85,141.81,49.69,115.6,49.69,115.6" fill="rgb(15, 20, 12)"/>
<path id="Trauma-Plate_Basic-Thigh_Right" class="toggle" style="" d="M51.39,116.19c0.75-0.93,2.56-3.1,4.3-4.77 c0.83-0.79,1.62-1.49,2.25-1.75c1.9-0.79,4.44-0.45,6.06,0.85c1.85,1.47,5.15,3.97,7.66,7.02c1.52,1.85,2.77,3.9,3.07,6.05 c0.9,6.64-4.05,21.31-5.7,26.06c-0.14,0.42-0.54,0.67-0.95,0.87c-0.61,0.3-1.33,0.45-1.94,0.47c-1.73,0.07-5.27,0.02-8.23-0.96 c-1.63-0.54-3.12-1.33-3.75-2.73c-0.78-1.75-1.3-5.22-1.7-9.2C51.59,129.59,51.42,118.81,51.39,116.19" fill="rgb(19, 25, 17)"/>
<g id="Ridge_Basic-Thigh_Right" class="toggle" style="" fill="rgb(15, 20, 12)">
<path d="M58.17,107.57l3.48-0.89l3.64,1.99l-1.18,44.01c-2.4,0.46-2.43,0.55-4.54-0.08L58.17,107.57"/>
<path d="M61.62,106.69l0.1,46.36"/>
</g>
</g>
</g>
</g>
<g id="ThighsDecals" mask="url(#ThighsMask)">
</g>
<g id="Groin"><g id="Basic_Groin" class="option" style="display: inherit;">
<path id="Groin-Plate_Basic" d="M78.67,122.29L68.22,99.4h33.42l-10.45,22.89l-6.26,5.46L78.67,122.29z" fill="rgb(20, 20, 20)"/>
<path id="Trauma-Plating_Groin" class="toggle" style="" d="M79.77,120.38l-8.61-18.86H98.7l-8.61,18.86l-5.16,4.49L79.77,120.38z" fill="rgb(19, 25, 17)"/>
</g>
</g>
<g id="GroinDecals" mask="url(#GroinMask)">
</g>
<g id="Waist">
<g id="Accessories_Waist">
<g id="Kama" class="toggle" style=""><g id="Tattered_Kama" class="option" style="display: inherit;">
<g id="Main_Kama-Tattered" fill="rgb(12, 17, 12)">
<path d="M111.48,81.04c2.28-0.5,3.36,12.05,4.7,18.11c0.61,2.75,0.69,5.53,1.41,8.28 c1.24,4.78,3.46,9.54,4.5,14.23c0.83,3.75,0.3,7.62,1.22,11.39c0.69,2.85,2.14,5.32,3.1,8.04c1.07,3.05,1.74,6.1,2.52,9.22 c0.47,1.91,1.03,3.74,1.65,5.61c0.21,0.63,0.39,1.27,0.55,1.91c0.05,0.2,0.1,0.39,0.14,0.59c0.03,0.12,0.17,0.44,0.08,0.36 c-0.65-0.57-1-1.65-1.61-2.32c-1.18-1.3-2.66-2.28-3.77-3.64c-0.43-0.53-0.77-1.11-1.07-1.72c-0.03-0.05-0.22-0.52-0.25-0.51 c-2.29,0.48-4.56,1.34-6.5-0.59c-1.54-1.53-2.87-4.83-3.66-6.88c-0.33-0.86,0.11-5.91-0.47-6.38c-0.43-0.35-0.83,4.2-1.35,3.89 c-3.28-1.93-7.95-3.08-7.95-3.08s-0.36-6.44-0.1-10.13c0.24-3.31-0.23-6.19-0.72-9.43c-0.63-4.19-0.56-8.5-0.27-12.71 C104.08,98.46,98.82,83.81,111.48,81.04z M118.99,143c-0.4,1.7-0.44,3.65,0.53,5.18c0.32,0.51,1.14,1.33,1.85,1.11 c2.99-0.92-0.68-5.5-1.63-6.52L118.99,143z M110.22,130.56c-0.54,0.33-1.01,0.71-1.4,1.21c-1.42,1.79,2.47,0.9,1.8-1.28 L110.22,130.56z"/>
<path d="M58.44,81.04c-2.28-0.5-3.36,12.05-4.7,18.11c-0.61,2.75-0.69,5.53-1.41,8.28 c-1.24,4.78-3.47,9.54-4.5,14.23c-0.83,3.75-0.3,7.62-1.22,11.39c-0.69,2.85-2.14,5.32-3.1,8.04c-1.07,3.05-1.74,6.1-2.52,9.22 c-0.47,1.91-1.03,3.74-1.65,5.61c-0.21,0.63-0.39,1.27-0.55,1.91c-0.05,0.2-0.1,0.39-0.14,0.59c-0.03,0.12-0.17,0.44-0.08,0.36 c0.65-0.57,1-1.65,1.61-2.32c1.18-1.3,3.01-0.24,4.13-1.6c0.43-0.53,1-1.77,1.31-2.38c0.03-0.05,0.81-1.55,0.84-1.55 c2.28,0.48,0.85,2.18,2.8,0.26c1.54-1.53,5.4-6.03,6.19-8.07c0.33-0.86-0.3-2.65,0.28-3.12c0.43-0.35,1.02,0.94,1.54,0.63 c3.28-1.93,7.36-5.54,7.36-5.54s0.95-3.98,0.69-7.67c-0.24-3.31,0.23-6.19,0.72-9.43c0.63-4.19,0.56-8.5,0.27-12.71 C65.84,98.46,71.1,83.81,58.44,81.04z M50.1,144.15c0.4,1.7,0.35,1.39-0.62,2.93c-0.32,0.51-0.22,2.43-0.93,2.21 c-2.99-0.92,0.67-5.5,1.63-6.52L50.1,144.15z M57.19,136.25c0.54,0.33,2.26-0.1,2.66,0.4c1.42,1.79-3.92,3.34-3.25,1.16 L57.19,136.25z"/>
</g>
</g>
</g>
<g id="Loin-Cloth" class="toggle" style="display:none"/>
<g id="Left-Holster" class="toggle" style="display:none"/>
<g id="Right-Holster" class="toggle" style="">
<g id="Thigh-Plate-Holster_Right" class="option" style="display: inherit;">
<g id="Weapon_Thigh-Plate-Holster-Right">
<g id="Main_Weapon_Thigh-Plate-Holster-Right" fill="rgb(73, 73, 73)">
<path d="M52.93,113.88l-0.24-3.6l-0.62,0.04l-0.15-2.26l0.62-0.04l-0.08-1.18c-0.03-0.38-0.56-0.66-1.19-0.62 c-1.45,0.09-3.93,0.25-5.37,0.35c-0.63,0.04-1.12,0.39-1.1,0.77l0.08,1.18l0.62-0.04l0.15,2.26l-0.62,0.04l0.24,3.6l1.46-0.09 l0.65,9.95l4.73-0.31l-0.65-9.95L52.93,113.88z"/>
<path d="M45.85,113.81l0.84-0.06l0.79,11.96l4.73-0.31l-0.79-11.96l0.84-0.05l-0.18-2.73l-6.42,0.42L45.85,113.81 z"/>
<path d="M46.74,107.31l3.8-0.25l0.24,3.69l-3.8,0.25L46.74,107.31z"/>
<path d="M50.41,114.6l0.62-0.04l0.62,9.4L51.03,124L50.41,114.6z"/>
<path d="M48.68,112.55l0.62-0.04l0.87,13.21l-0.62,0.04L48.68,112.55z"/>
<path d="M47.23,114.8l0.62-0.04l0.69,10.44l-0.62,0.04L47.23,114.8z"/>
</g>
<g id="Accent_Weapon_Thigh-Plate-Holster-Right" fill="rgb(41, 40, 40)">
<path d="M49.44,114.66l0.97-0.06l0.62,9.4l-0.97,0.06L49.44,114.66z"/>
<path d="M47.85,114.76l0.97-0.06l0.69,10.44l-0.97,0.06L47.85,114.76z"/>
<path d="M49.92,107.1l0.62-0.04l0.24,3.69l-0.62,0.04L49.92,107.1z"/>
<path d="M46.74,107.31l0.62-0.04l0.24,3.69L46.98,111L46.74,107.31z"/>
<path d="M50.25,111.17l0.03,0.38l-2.68,0.17l-0.02-0.38L50.25,111.17z"/>
<path d="M50.27,111.54l0.03,0.38l-2.68,0.17l-0.03-0.38L50.27,111.54z"/>
<path d="M50.22,110.79l0.02,0.38l-2.68,0.17l-0.03-0.38L50.22,110.79z"/>
<path d="M49.92,106.15l0.03,0.38l-2.68,0.17l-0.02-0.38L49.92,106.15z"/>
</g>
</g>
<path id="Holster_Thigh-Plate-Holster-Right" d="M46.48,125.08l3.36-0.23l1.88-6.79l1.02-0.07l2.06,30.17 c0,0,0,0,0,0c-3.71,0.25-6.92-2.55-7.17-6.26C47.15,134.94,46.48,125.08,46.48,125.08z" fill="rgb(14, 17, 12)"/>
</g></g>
<g id="Left-Trophy" class="toggle" style="display:none"/>
<g id="Right-Trophy" class="toggle" style="display:none"/>
</g>
<g id="Under-Belt"><g id="Girth-Belt" class="option" fill="rgb(9, 15, 8)" style="display: inherit;">
<path d="M84.93,84.93c-9.33,0-27.98-2.25-27.98-2.25l0.61-1.91c0,0,18.19,1.5,27.37,2.25 c9.13-0.75,27.37-2.25,27.37-2.25l0.6,1.91C112.91,82.68,94.25,84.93,84.93,84.93z"/>
<path d="M84.93,86.84c-9.52,0-28.56-2.25-28.56-2.25l0.58-1.91c0,0,23.31,1.88,27.98,2.25 c4.66-0.38,27.98-2.25,27.98-2.25l0.58,1.91C113.49,84.59,94.45,86.84,84.93,86.84z"/>
<path d="M84.93,88.75c-9.67,0-28.99-2.25-28.99-2.25l0.43-1.91c0,0,23.8,1.88,28.56,2.25 c4.76-0.38,28.56-2.25,28.56-2.25l0.43,1.91C113.92,86.49,94.6,88.75,84.93,88.75z"/>
<path d="M84.93,90.65c-9.79,0-29.36-2.25-29.36-2.25l0.37-1.91c0,0,24.16,1.88,28.99,2.25 c4.83-0.38,28.99-2.25,28.99-2.25l0.37,1.91C114.29,88.4,94.72,90.65,84.93,90.65z"/>
<path d="M84.93,92.56c-9.9,0-29.69-2.25-29.69-2.25l0.33-1.91c0,0,24.47,1.88,29.36,2.25 c4.89-0.38,29.36-2.25,29.36-2.25l0.33,1.91C114.62,90.31,94.83,92.56,84.93,92.56z"/>
<path d="M84.93,94.47c-10,0-30-2.25-30-2.25l0.31-1.91c0,0,24.74,1.88,29.69,2.25c4.95-0.38,29.69-2.25,29.69-2.25 l0.31,1.91C114.93,92.21,94.93,94.47,84.93,94.47z"/>
<path d="M84.93,96.37c-10.1,0-30.31-2.25-30.31-2.25l0.31-1.91c0,0,25,1.88,30,2.25c5-0.38,30-2.25,30-2.25 l0.31,1.91C115.24,94.12,95.03,96.37,84.93,96.37z"/>
<path d="M84.93,98.28c-10.21,0-30.62-2.25-30.62-2.25l0.32-1.91c0,0,25.26,1.88,30.31,2.25 c5.05-0.38,30.31-2.25,30.31-2.25l0.32,1.91C115.55,96.03,95.14,98.28,84.93,98.28z"/>
<path d="M84.93,100.19c-10.32,0-30.97-2.25-30.97-2.25l0.34-1.91c0,0,25.52,1.88,30.62,2.25 c5.1-0.38,30.62-2.25,30.62-2.25l0.35,1.91C115.9,97.93,95.25,100.19,84.93,100.19z"/>
<path d="M84.93,102.09c-10.45,0-31.36-2.25-31.36-2.25l0.39-1.91c0,0,25.81,1.88,30.97,2.25 c5.16-0.38,30.97-2.25,30.97-2.25l0.39,1.91C116.29,99.84,95.38,102.09,84.93,102.09z"/>
</g>
</g>
<g id="Belt"><g id="Pouch-Belt-4" class="option" style="display: inherit;">
<path id="Main_Pouch-Belt-4" d="M115.21,92.95c-6.82,0.61-22.4,2.83-30.27,2.83c-7.94,0-23.52-2.23-30.26-2.82 l1.01-7.93c5.53,0.49,21.56,2.74,29.26,2.74c7.47,0,23.17-2.23,29.07-2.76L115.21,92.95z" fill="rgb(10, 10, 9)"/>
<rect id="Buckle_Pouch-Belt-4" x="79.37" y="87.01" width="11.28" height="9.21" fill="rgb(71, 80, 89)"/>
<g id="Pouches_Pouch-Belt-4" fill="rgb(25, 19, 17)">
<g>
<g>
<path d="M59.65,83.47c-0.31-0.02-0.62,0.03-0.91,0.16c-0.67,0.29-1.86,0.81-1.86,0.81l7.38,0.42l2-0.95 C66.26,83.91,61.24,83.57,59.65,83.47z"/>
<path d="M66.52,84.19c0.01-0.09-0.03-0.17-0.1-0.22c-0.07-0.05-0.17-0.06-0.24-0.02c-0.66,0.31-1.91,0.9-1.91,0.9 l-1.02,12.42c0.65-0.41,1.29-0.68,1.93-0.85c0.39-0.09,0.68-0.44,0.69-0.84C65.99,91.78,66.15,87.98,66.52,84.19z"/>
<path d="M64.26,84.85l-7.38-0.42c-0.06,1.89-0.23,3.77-0.33,5.65c-0.11,2.08-0.16,4.17-0.34,6.28 c-0.01,0.15,0.04,0.3,0.14,0.41s0.25,0.18,0.4,0.17c2.08-0.01,4.15,0.11,6.22,0.36c0.14,0.02,0.29-0.02,0.4-0.12 c0.11-0.09,0.18-0.23,0.19-0.37c0.1-1.47,0.37-5.33,0.37-5.33L64.26,84.85z"/>
<path d="M64.26,84.85l-7.38-0.42c0,0-0.18,1.6-0.36,3.15c-0.09,0.75,0.14,1.51,0.63,2.08 c0.49,0.58,1.2,0.93,1.96,0.97c0.73,0.04,1.51,0.08,2.23,0.13c0.76,0.04,1.51-0.23,2.06-0.75c0.55-0.52,0.87-1.25,0.86-2 C64.26,86.46,64.26,84.85,64.26,84.85z"/>
<path d="M60.31,89.23c0.26,0.01,0.46,0.26,0.44,0.54c-0.02,0.28-0.24,0.5-0.5,0.49 c-0.26-0.01-0.46-0.26-0.44-0.54C59.83,89.44,60.05,89.22,60.31,89.23z"/>
</g>
</g>
<g>
<path d="M52.22,84.29l0.55-0.85l2.83,0.09l0.35,1.06L52.22,84.29z"/>
<path d="M55.93,84.69c0.01-0.07-0.01-0.13-0.06-0.18c-0.04-0.05-0.11-0.08-0.17-0.08 c-0.85-0.03-3.48-0.13-3.48-0.13l-0.5,11.17c0.11,0.28,1.53,0.46,2.68,0.49c0.5,0.01,0.91-0.38,0.92-0.88 C55.4,91.61,55.53,88.14,55.93,84.69z"/>
</g>
<g>
<g>
<path d="M110.24,83.47c0.31-0.02,0.62,0.03,0.91,0.16c0.67,0.29,1.86,0.81,1.86,0.81l-7.38,0.42l-2-0.95 C103.63,83.91,108.65,83.57,110.24,83.47z"/>
<path d="M103.37,84.19c-0.01-0.09,0.03-0.17,0.1-0.22c0.07-0.05,0.17-0.06,0.24-0.02c0.66,0.31,1.91,0.9,1.91,0.9 l1.02,12.42c-0.65-0.41-1.29-0.68-1.93-0.85c-0.39-0.09-0.68-0.44-0.69-0.84C103.9,91.78,103.74,87.98,103.37,84.19z"/>
<path d="M105.63,84.85l7.38-0.42c0.06,1.89,0.23,3.77,0.33,5.65c0.11,2.08,0.16,4.17,0.34,6.28 c0.01,0.15-0.04,0.3-0.14,0.41c-0.1,0.11-0.25,0.18-0.4,0.17c-2.08-0.01-4.15,0.11-6.22,0.36c-0.14,0.02-0.29-0.02-0.4-0.12 c-0.11-0.09-0.18-0.23-0.19-0.37c-0.1-1.47-0.37-5.33-0.37-5.33L105.63,84.85z"/>
<path d="M105.63,84.85l7.38-0.42c0,0,0.18,1.6,0.36,3.15c0.09,0.75-0.14,1.51-0.63,2.08 c-0.49,0.58-1.2,0.93-1.96,0.97c-0.72,0.04-1.5,0.08-2.23,0.13c-0.76,0.04-1.51-0.23-2.06-0.75c-0.55-0.52-0.87-1.25-0.86-2 C105.63,86.46,105.63,84.85,105.63,84.85z"/>
<path d="M109.58,89.23c-0.26,0.01-0.46,0.26-0.44,0.54c0.02,0.28,0.24,0.5,0.5,0.49 c0.26-0.01,0.46-0.26,0.44-0.54C110.07,89.44,109.84,89.22,109.58,89.23z"/>
</g>
</g>
<g>
<path d="M117.67,84.29l-0.55-0.85l-2.83,0.09l-0.35,1.06L117.67,84.29z"/>
<path d="M113.96,84.69c-0.01-0.07,0.01-0.13,0.06-0.18c0.04-0.05,0.11-0.08,0.18-0.08 c0.85-0.03,3.48-0.13,3.48-0.13l0.5,11.17c-0.11,0.28-1.53,0.46-2.68,0.49c-0.5,0.01-0.91-0.38-0.92-0.88 C114.49,91.61,114.36,88.14,113.96,84.69z"/>
</g>
</g>
</g></g>
</g>
<g id="WaistDecals" mask="url(#WaistMask)">
</g>
<g id="Extras_Front">
<g id="Front"><g id="None_Front" class="option" style="display: inherit;">
</g>
</g>
</g>
<g id="Extras-FrontDecals" mask="url(#FrontMask)">
</g>
</g>
</svg>