<?xml version='1.0' encoding='UTF-8'?>
<svg version="1.1" id="Male-Body" xmlns="http://www.w3.org/2000/svg" xmlns:serif="http://www.serif.com/" viewBox="0 -55 170 300" style="stroke-width: 0.2px; fill-rule: evenodd; stroke-linejoin: round;" width="170" height="300">
<style>
mask {
mask-type: alpha;
}
.decal {
stroke: none;
}
</style>
<defs id="Masks" stroke="none">
<mask id="HelmetsMask"> <use href="#Helmets"/> </mask>
<mask id="CollarMask"> <use href="#Collar"/> </mask>
<mask id="ShouldersMask"> <use href="#Shoulders"/> </mask>
<mask id="ChestMask"> <use href="#Chest"/> </mask>
<mask id="BicepsMask"> <use href="#Biceps"/> </mask>
<mask id="GauntletsMask"> <use href="#Gauntlets"/> </mask>
<mask id="WaistMask"> <use href="#Waist"/> </mask>
<mask id="GroinMask"> <use href="#Groin"/> </mask>
<mask id="ThighsMask"> <use href="#Thighs"/> </mask>
<mask id="KneesMask"> <use href="#Knees"/> </mask>
<mask id="ShinsMask"> <use href="#Shins"/> </mask>
<mask id="FootMask"> <use href="#Foot"/> </mask>
</defs>
<defs id="Decals"/><metadata><rdf:rdf xmlns:rdf="http://www.w3.org/1999/02/22-rdf-syntax-ns#" xmlns:rdfs="http://www.w3.org/2000/01/rdf-schema#" xmlns:dc="http://purl.org/dc/elements/1.1/"><rdf:description><dc:creator>MandoCreator</dc:creator><dc:publisher>https://www.mandocreator.com</dc:publisher><dc:description>Your Beskar'gam - created by MandoCreator</dc:description><dc:format>image/svg+xml</dc:format><dc:type>Image</dc:type><dc:title>MandoCreator - Ner Berskar'gam</dc:title><dc:date>2022-01-02T16:24:18.591Z</dc:date></rdf:description></rdf:rdf></metadata><g id="Main-Body" fill="white" stroke="black">
<g id="Extras_Back">
<g id="Back"><g id="NO-CAPES_Back" class="option" style="display: inherit;">
</g>
</g>
</g>
<g id="Extras-BackDecals" mask="url(#BackMask)">
</g>
<g id="Suit">
<g id="Neck-Seal"><g id="Standard-Neck-Seal" class="option" fill="rgb(90, 77, 50)" style="display: inherit;">
<path d="M98.75,7.5c0-0.9-0.93-1.62-2.07-1.62c0,0-7.8,0.85-11.7,0.85s-11.7-0.85-11.7-0.85 c-1.14,0-2.07,0.73-2.07,1.62s0.93,1.62,2.07,1.62c0,0,7.8,0.85,11.7,0.85s11.7-0.85,11.7-0.85C97.83,9.13,98.75,8.4,98.75,7.5z"/>
<path d="M99.45,9.4c0-0.94-0.97-1.71-2.17-1.71c0,0-8.2,0.9-12.29,0.9S72.69,7.7,72.69,7.7 c-1.2,0-2.17,0.76-2.17,1.71s0.97,1.71,2.17,1.71c0,0,8.2,0.9,12.29,0.9s12.29-0.9,12.29-0.9C98.48,11.11,99.45,10.34,99.45,9.4z "/>
<path d="M100.24,11.76c0-0.99-1.03-1.8-2.29-1.8c0,0-8.64,0.95-12.96,0.95S72.02,9.96,72.02,9.96 c-1.26,0-2.29,0.81-2.29,1.8s1.03,1.8,2.29,1.8c0,0,8.64,0.95,12.97,0.95s12.96-0.95,12.96-0.95 C99.21,13.56,100.24,12.75,100.24,11.76z"/>
<path d="M101,13.92c0-1.04-1.08-1.89-2.41-1.89c0,0-9.08,0.99-13.61,0.99s-13.61-0.99-13.61-0.99 c-1.33,0-2.41,0.85-2.41,1.89c0,1.04,1.08,1.89,2.41,1.89c0,0,9.08,0.99,13.61,0.99s13.61-0.99,13.61-0.99 C99.93,15.81,101,14.96,101,13.92z"/>
<path d="M101.76,16.04c0-0.79-1.13-1.43-2.52-1.43c0,0-9.51,0.75-14.26,0.75s-14.26-0.75-14.26-0.75 c-1.39,0-2.52,0.64-2.52,1.43c0,0.79,1.13,1.43,2.52,1.43c0,0,9.51,0.75,14.26,0.75s14.26-0.75,14.26-0.75 C100.63,17.47,101.76,16.83,101.76,16.04z"/>
<path d="M101.76,18.42c0-0.79-1.13-1.43-2.52-1.43c0,0-9.51,0.75-14.26,0.75s-14.26-0.75-14.26-0.75 c-1.39,0-2.52,0.64-2.52,1.43c0,0.79,1.13,1.43,2.52,1.43c0,0,9.51,1.44,14.26,1.44s14.26-1.44,14.26-1.44 C100.63,19.84,101.76,19.21,101.76,18.42z"/>
</g>
</g>
<g id="Flight-Suit" fill="rgb(55, 47, 35)">
<path d="M73.36,158.45l-1.49,8.72l-11.03,53.11c0,0-4.93,2.96-7.47,3.46c-2.53,0.5-7.73-0.44-7.73-0.44l3.85-43 l2.9-18.36l0.66-7.82c0,0-2.53-22.78-1.7-34.14c0.82-11.36,6.66-34.01,6.66-34.01l26.98,0.58l26.97-0.58 c0,0,5.83,22.66,6.66,34.01c0.83,11.36-1.7,34.14-1.7,34.14l0.66,7.82l2.9,18.36l3.85,43c0,0-5.32,1.19-7.85,0.69 c-2.53-0.5-7.34-3.71-7.34-3.71L98.1,167.16l-1.49-8.72l-11.62-30.33L73.36,158.45z"/>
<g>
<path d="M129.41,43.33l11.98,41.65l1.04,21.47l-9.55,1.83l-6.05-20.21l-13.65-33.95l0.69-15.55l2.31-3.72 L129.41,43.33z"/>
<path d="M40.59,43.3l13.19-8.45l2.31,3.72l0.52,16.04L43.17,88.07l-6.05,20.21l-9.55-1.83l1.03-21.47L40.59,43.3z"/>
</g>
</g>
<g id="Sleeves" class="toggle" fill="rgb(94, 67, 43)">
<g>
<path d="M112.2,56.12l2.68,5.9c0,0,4.24-3.2,7.06-4.8s4.38-2.62,6.92-3.6c2.54-0.98,5.08-1.47,5.08-1.47l-6.07-12.25 l-5.79-9.67l-11.58,5.14L112.2,56.12z"/>
<path d="M113.61,59.24c-0.2-0.24,5.08-4.5,8.61-6.34c3.53-1.84,10.25-3.69,10.25-3.69"/>
</g>
<g>
<path d="M57.8,56.12l-2.68,5.9c0,0-4.24-3.2-7.06-4.8c-2.82-1.59-4.38-2.62-6.92-3.6c-2.54-0.98-5.08-1.47-5.08-1.47 l6.07-12.25l5.79-9.67l11.58,5.14L57.8,56.12z"/>
<path d="M56.39,59.24c0.2-0.24-5.08-4.5-8.61-6.34c-3.53-1.84-10.25-3.69-10.25-3.69"/>
</g>
</g>
</g>
<g id="Boots"><g id="Gunslinger_Boots" class="option" style="display: inherit;">
<g id="Main_Gunslinger-Boot" fill="rgb(76, 57, 41)">
<path d="M107.7,226.61c0.04,0.2,0.73,3.41,4.27,4.29c1.18,0.3,3.21-0.33,4.48-0.98c1.74-0.89,3.57-1.58,5.44-2.12 l0.06,0.08c0.03,0.04,0.06,0.08,0.09,0.12c0.58,0.81,1.21,1.57,1.89,2.26l0.05,0.05l0.03,0.03c0.07,0.07,0.14,0.14,0.21,0.2 c0.4,0.38,0.81,0.74,1.23,1.07l0.12,0.09l0.1,0.07c0.03,0.02,0.06,0.04,0.09,0.06c0.07,0.05,0.13,0.1,0.2,0.14 c0.88,0.62,2.06,1.56,3.23,1.39c1.11-0.16,2.35-0.6,3.28-1.04c0.78-0.37,1.59-0.87,2.13-1.4c0.16-0.12,0.29-0.26,0.39-0.44 c2.57,1,5.36,1.38,6.73,4.22c0.3,0.62,0.55,1.35,0.49,2.04c-0.08,0.89-1.06,1-1.82,1.2c-1.9,0.51-3.53,0.89-5.72,1.34 c-2.5,0.52-4.76,0.83-7.29,0.72c-1.89-0.08-3.49-0.18-5.14-1.19c-0.66-0.41-1.34-0.82-1.92-1.35c-1.28-1.19-2.11-2.43-3.77-3.15 c-1.2-0.52-2.44-0.96-3.71-1.27c-1.8-0.45-3.74-0.76-4.69-2.54C107.42,229.16,107.51,227.91,107.7,226.61L107.7,226.61"/>
<path d="M62.28,226.61c-0.04,0.2-0.73,3.41-4.27,4.29c-1.18,0.3-3.2-0.33-4.48-0.98c-1.74-0.89-3.57-1.58-5.44-2.12 l-0.05,0.08c-0.03,0.04-0.06,0.08-0.09,0.12c-0.58,0.81-1.21,1.57-1.89,2.26l-0.05,0.05l-0.03,0.03 c-0.07,0.07-0.14,0.14-0.21,0.2c-0.4,0.38-0.81,0.74-1.23,1.07l-0.12,0.09l-0.1,0.07c-0.03,0.02-0.06,0.04-0.09,0.06 c-0.07,0.05-0.13,0.1-0.2,0.14c-0.88,0.62-2.06,1.56-3.23,1.39c-1.1-0.16-2.35-0.6-3.28-1.04c-0.78-0.37-1.59-0.87-2.13-1.4 c-0.16-0.12-0.29-0.26-0.39-0.44c-2.57,1-5.36,1.38-6.73,4.22c-0.3,0.62-0.55,1.35-0.48,2.04c0.08,0.89,1.06,1,1.82,1.2 c1.9,0.51,3.53,0.89,5.72,1.34c2.5,0.52,4.76,0.83,7.29,0.72c1.89-0.08,3.49-0.18,5.14-1.19c0.66-0.41,1.35-0.82,1.92-1.35 c1.28-1.19,2.11-2.43,3.77-3.15c1.2-0.52,2.44-0.96,3.71-1.27c1.8-0.45,3.74-0.76,4.69-2.54 C62.56,229.16,62.48,227.91,62.28,226.61L62.28,226.61"/>
</g>
<g id="Bottom_Gunslinger-Boot" fill="rgb(0, 0, 0)">
<path d="M107.64,229.04c0.08,0.49,0.24,0.98,0.51,1.49c0.95,1.78,2.89,2.09,4.69,2.54c1.27,0.32,2.51,0.75,3.71,1.27 c1.66,0.72,2.48,1.96,3.77,3.15c0.57,0.53,1.25,0.94,1.92,1.35c1.65,1.01,3.25,1.11,5.14,1.19c2.53,0.1,4.78-0.2,7.29-0.72 c2.19-0.46,3.82-0.84,5.72-1.34c0.61-0.16,1.36-0.27,1.67-0.76l0,0l0.36,0.8l0.21,1.64c0,0-2.03,1.09-4.2,1.57 c-2.16,0.48-6.53,1.15-6.53,1.15l-0.3-0.71l-0.98,0.21l0.05,0.7l-2.38,0.13l-0.51-0.69l-0.79,0.02l0.12,0.61 c0,0-1.47-0.02-2.29-0.51c-0.15-0.23-0.46-0.61-0.46-0.61l-0.56-0.31l0.07,0.58l-2.04-0.73l-0.1-0.79l-0.59-0.34l-0.03,0.57 l-1.46-1.12l-0.16-0.69l-3.64-2.55l-0.57,1.33l-2.55-0.55l-0.08-0.55l-0.65-0.27l-0.45,0.42l-1.71-0.7l-0.04-0.51l-0.56-0.19 l-0.06,0.37l-1.62-1.12l-0.31-2.23l-0.07-2.42L107.64,229.04L107.64,229.04"/>
<path d="M62.35,229.04c-0.08,0.49-0.24,0.98-0.51,1.49c-0.95,1.78-2.89,2.09-4.69,2.54 c-1.27,0.32-2.51,0.75-3.71,1.27c-1.66,0.72-2.48,1.96-3.77,3.15c-0.57,0.53-1.25,0.94-1.92,1.35c-1.65,1.01-3.25,1.11-5.14,1.19 c-2.53,0.1-4.78-0.2-7.29-0.72c-2.19-0.46-3.83-0.84-5.72-1.34c-0.61-0.16-1.36-0.27-1.67-0.76l0,0l-0.36,0.8l-0.21,1.64 c0,0,2.03,1.09,4.2,1.57c2.16,0.48,6.53,1.15,6.53,1.15l0.3-0.71l0.98,0.21l-0.05,0.7l2.38,0.13l0.51-0.69l0.8,0.02l-0.12,0.61 c0,0,1.47-0.02,2.29-0.51c0.15-0.23,0.46-0.61,0.46-0.61l0.56-0.31l-0.07,0.58l2.04-0.73l0.1-0.79l0.59-0.34l0.02,0.57l1.46-1.12 l0.16-0.69l3.64-2.55l0.57,1.33l2.55-0.55l0.08-0.55l0.65-0.27l0.45,0.42l1.71-0.7l0.04-0.51l0.56-0.19l0.07,0.37l1.62-1.12 l0.31-2.23l0.07-2.42L62.35,229.04L62.35,229.04"/>
</g>
<g id="Top_Gunslinger-Boot" fill="rgb(55, 47, 35)">
<path d="M121.87,227.77c-2.17-3.11-3.64-6.92-4.16-10.29l0,0l0.61-0.05l0.02,0l0.07-0.01l0.2-0.02l0.31-0.03 l0.13-0.02c0.35-0.04,0.7-0.09,1.04-0.14l0.54-0.1l0.11-0.03l0.04-0.01l0.08-0.02l0.37-0.09l0.33-0.08l0.06-0.01 c1.15-0.29,2.31-0.64,2.31-0.64c0.32,1.48,0.47,3.17,1.09,4.56c0.98,2.18,2.78,3.85,4.46,5.51c1.15,1.14,2.28,2.44,3.66,3.31 c0.58,0.37,1.21,0.66,1.84,0.9c-0.49,0.67-1.54,1.37-2.53,1.84c-0.93,0.44-2.17,0.88-3.28,1.04c-1.17,0.17-2.35-0.77-3.23-1.39 c-1.53-1.07-2.89-2.53-4.06-4.19L121.87,227.77"/>
<path d="M48.12,227.77c2.17-3.11,3.64-6.92,4.16-10.29l0,0l-0.61-0.05l-0.02,0l-0.08-0.01l-0.2-0.02l-0.31-0.03 l-0.13-0.02c-0.35-0.04-0.7-0.09-1.04-0.14l-0.54-0.1l-0.11-0.03l-0.04-0.01l-0.08-0.02l-0.37-0.09l-0.33-0.08l-0.06-0.01 c-1.15-0.29-2.31-0.64-2.31-0.64c-0.32,1.48-0.47,3.17-1.09,4.56c-0.98,2.18-2.78,3.85-4.46,5.51c-1.15,1.14-2.28,2.44-3.66,3.31 c-0.58,0.37-1.21,0.66-1.84,0.9c0.49,0.67,1.53,1.37,2.53,1.84c0.93,0.44,2.17,0.88,3.28,1.04c1.17,0.17,2.35-0.77,3.23-1.39 c1.53-1.07,2.89-2.53,4.06-4.19L48.12,227.77"/>
</g>
<g id="Side_Gunslinger-Boot" fill="rgb(94, 67, 43)">
<path d="M121.89,227.8c-1.87,0.54-3.7,1.24-5.44,2.12c-1.27,0.65-3.3,1.27-4.48,0.98c-3.66-0.92-4.27-4.3-4.27-4.3 c0.11-0.74,0.25-1.5,0.3-2.3c0.1-1.54-0.11-8.21,0.02-8.14c2.94,1.56,8.18,1.45,9.67,1.33l0,0 C118.23,220.86,119.71,224.69,121.89,227.8"/>
<path d="M48.09,227.8c1.87,0.54,3.7,1.24,5.44,2.12c1.27,0.65,3.3,1.27,4.48,0.98c3.66-0.92,4.27-4.3,4.27-4.3 c-0.11-0.74-0.25-1.5-0.3-2.3c-0.1-1.54,0.11-8.21-0.02-8.14c-2.94,1.56-8.18,1.45-9.67,1.33l0,0 C51.76,220.86,50.28,224.69,48.09,227.8"/>
</g>
</g></g>
<g id="Gloves">
<g id="Left-Glove"><g id="Basic_Left_Glove" class="option" fill="rgb(55, 47, 35)" style="display: inherit;">
<path d="M138.6,124.11c-0.54-0.03-1.05-0.01-1.58,0.1c-0.36,0.08-0.72,0.16-1.04,0.35 c-0.99,0.57-0.72,1.81,0.16,2.28c1.03,0.55,2.66,0.01,3.13-1.05C139.46,125.35,138.86,124.53,138.6,124.11"/>
<path d="M136.79,125.19c-0.54-0.03-1.05-0.02-1.59,0.1c-0.36,0.08-0.72,0.16-1.04,0.35 c-0.99,0.57-0.72,1.81,0.16,2.28c1.03,0.55,2.66,0.01,3.13-1.05C137.65,126.43,137.05,125.61,136.79,125.19"/>
<path d="M135.49,126.65c-0.54,0.05-1.19,0.13-1.7,0.31c-0.35,0.12-0.69,0.26-0.99,0.48c-0.9,0.7-0.47,1.89,0.47,2.24 c1.1,0.41,2.64-0.35,2.96-1.46C136.36,127.76,135.49,126.65,135.49,126.65z"/>
<path d="M132.55,110.05c0,0-1.56,2.15-1.97,3.69c-0.29,1.09-0.13,3.68-0.49,5.43c-0.36,1.74-0.69,2.71-0.69,2.71 s-1.38,2.79-1.14,3.43c0.24,0.64,1.45,1.21,2.15,0.87c0.86-0.42,1.93-2.39,2.61-3.77c0.69-1.41,1.25-3.41,1.25-3.41 s0.95,0.32,1.43,0.7c1.61,1.24,0.91,4.96,0.91,4.96s-0.66,1.33-1.66,2.83c-1.36,2.05-3.46,3.81-2.07,5.37 c1.29,1.46,4.22-2.37,4.22-2.37l2.87-3.73c0,0,3.3-5.41,3.47-6.46c0.13-0.8,0.02-3.47,0.02-3.47l-1.03-10.37l-5.24,0.44 l-4.31,1.39L132.55,110.05"/>
</g>
</g>
<g id="Right-Glove"><g id="Basic_Right_Glove" class="option" fill="rgb(55, 47, 35)" style="display: inherit;">
<path d="M31.4,124.11c0.54-0.03,1.05-0.01,1.58,0.1c0.36,0.08,0.72,0.16,1.04,0.35c0.99,0.57,0.72,1.81-0.16,2.28 c-1.03,0.55-2.66,0.01-3.13-1.05C30.53,125.35,31.14,124.53,31.4,124.11"/>
<path d="M33.21,125.19c0.54-0.03,1.05-0.02,1.58,0.1c0.36,0.08,0.72,0.16,1.04,0.35c0.99,0.57,0.72,1.81-0.16,2.28 c-1.03,0.55-2.66,0.01-3.13-1.05C32.35,126.43,32.95,125.61,33.21,125.19"/>
<path d="M34.51,126.65c0.54,0.05,1.19,0.13,1.7,0.31c0.35,0.12,0.69,0.26,0.99,0.48c0.9,0.7,0.47,1.89-0.47,2.24 c-1.1,0.41-2.64-0.35-2.96-1.46C33.64,127.76,34.51,126.65,34.51,126.65z"/>
<path d="M37.45,110.05c0,0,1.56,2.15,1.97,3.69c0.29,1.09,0.13,3.68,0.49,5.43c0.36,1.74,0.69,2.71,0.69,2.71 s1.38,2.79,1.14,3.43c-0.24,0.64-1.45,1.21-2.15,0.87c-0.86-0.42-1.93-2.39-2.61-3.77C36.29,121,35.73,119,35.73,119 s-0.95,0.32-1.43,0.7c-1.61,1.24-0.91,4.96-0.91,4.96s0.66,1.33,1.66,2.83c1.36,2.05,3.46,3.81,2.08,5.37 c-1.29,1.46-4.22-2.37-4.22-2.37l-2.87-3.73c0,0-3.3-5.41-3.47-6.46c-0.13-0.8-0.02-3.47-0.02-3.47l1.03-10.37l5.24,0.44 l4.31,1.39L37.45,110.05"/>
</g>
</g>
</g>
<g id="Biceps">
<g id="Left-Biceps"><g id="Basic_Biceps_Left" class="option" style="display: inherit;">
<path id="Main_Basic_Biceps_Left" d="M134.37,52.38c-1.14-2.74-6.21-14.78-6.21-14.78s-8.34,3.42-10.42,4.28 c-0.59,0.24-0.87,0.91-0.63,1.5c0.98,2.36,3.38,8.14,4.87,11.74c0.34,0.81,0.99,1.46,1.81,1.8c0.82,0.34,1.74,0.34,2.56,0 c2.45-1.01,5.73-2.35,7.4-3.04C134.33,53.63,134.61,52.96,134.37,52.38z" fill="rgb(63, 31, 28)"/>
<path id="Strap_Basic_Biceps_Left" d="M119.35,48.7l-5.85,2.4l-0.14,4.29l7.49-3.07L119.35,48.7" fill="rgb(60, 40, 11)"/>
<path id="Trauma-Plate_Basic_Biceps_Left" class="toggle" style="" d="M134.34,51.81l-5.29-12.74l-10.16,4.17l4.67,11.24 c0.17,0.4,0.49,0.72,0.89,0.88c0.4,0.17,0.85,0.17,1.26,0L134.34,51.81" fill="rgb(96, 46, 41)"/>
</g>
</g>
<g id="Right-Biceps">
<g id="None_Biceps_Right" class="option" style="display: inherit;">
</g></g>
</g>
<g id="BicepsDecals" mask="url(#BicepsMask)">
</g>
<path id="Vest" d="M85,20.92c8.5-0.01,15.43-4.3,15.63-8.01l0.15,0.02l18.38,5.42l13.31,23.94l-2.86,1.16l-13.42-8.6 l-2.31,3.72l-1.54,47.4c0,0-8.72,4.71-13.53,5.35c-3.44,0.45-8.63,0.68-13.79,0.67c-5.16,0.01-10.35-0.22-13.79-0.67 c-4.81-0.63-13.53-5.35-13.53-5.35l-1.54-47.4l-2.31-3.72l-13.42,8.6l-2.86-1.16l13.31-23.94l18.38-5.42l0.15-0.02 C69.57,16.62,76.5,20.92,85,20.92" fill="rgb(90, 77, 50)"/>
<g id="SuitDecals" mask="url(#SuitMask)">
</g>
<g class="swappable" id="Chest"><g id="Chest_Classic">
<g id="Abdomen_Classic">
<path id="Abdomen-Plate_Classic" d="M71.44,79.87l-7.32-3.02l-0.66-6.74l5.72-1.86l4.84-9.65l10.95-3.49 l10.95,3.49l4.84,9.65l5.72,1.86l-0.66,6.74l-7.32,3.02l-13.54-0.35L71.44,79.87z" fill="rgb(63, 31, 28)"/>
<path id="Trauma-Plate_Abdomen_Classic" class="toggle" style="" d="M94.77,59.94l-9.79-3.12l-9.79,3.12l-4.53,9.03 c-0.2,0.39-0.54,0.69-0.96,0.82l-4.47,1.45l0.44,4.47l6.09,2.51l13.18-0.34c0.03,0,0.06,0,0.09,0l13.18,0.34l6.09-2.51l0.44-4.47 l-4.47-1.45c-0.42-0.14-0.76-0.43-0.96-0.82L94.77,59.94z" fill="rgb(96, 46, 41)"/>
</g>
<g id="Iron-Heart_Classic">
<path id="Heart_Classic" d="M82.3,43.04V33.9l2.7-2.1l2.7,2.1v9.13L85,45.75L82.3,43.04z" fill="rgb(96, 46, 41)"/><rect id="Center_Heart_Classic" class="option" x="84.07" y="35.31" width="1.87" height="6.25" fill="rgb(113, 41, 34)" style="display: inherit;"/>
</g>
<g id="Chest-Plates_Classic">
<g id="Left-Chest_Classic">
<path id="Chest_Left_Classic" d="M109.54,25.87l-22.45,2.67l-0.22,2.09l2.86,2.67l-0.22,11.27l-2.53,2.44v3.72 l9.68,2.67l3.85,8.72l4.29,3.49l4.73-23.94l2.53-1.28L109.54,25.87z" fill="rgb(63, 31, 28)"/>
<path id="Trauma-Plating_Left-Chest_Classic" class="toggle" style="" d="M88.58,30.03l0.01-0.07l19.7-2.35l2.07,11.91l-2.18,1.1 l-4.37,22.12l-1.95-1.59l-4-9.05l-9.25-2.55v-1.86l2.52-2.43l0.25-12.62L88.58,30.03z" fill="rgb(96, 46, 41)"/>
</g>
<g id="Right-Chest_Classic">
<path id="Chest_Right_Classic" d="M60.46,25.87l22.45,2.67l0.22,2.09l-2.86,2.67l0.22,11.27l2.53,2.44v3.72 l-9.68,2.67l-3.85,8.72l-4.29,3.49l-4.73-23.94l-2.53-1.28L60.46,25.87z" fill="rgb(96, 46, 41)"/>
<path id="Trauma-Plating_Right-Chest_Classic" class="toggle" style="display:none" d="M81.47,30.03l-0.01-0.07l-19.7-2.35l-2.08,11.91 l2.18,1.1l4.37,22.12l1.95-1.59l4-9.05l9.25-2.55v-1.86l-2.52-2.43l-0.25-12.62L81.47,30.03z" fill="rgb(255, 255, 255)"/>
</g>
</g>
<g id="Neck-Armor_Classic">
<path id="Neck-Plate_Classic" d="M74.44,24.48l-13.97-1.51l-2.53-7.71l11.55-3.44c0,0,1.53,2.58,2.64,3.49 c1.14,0.93,2.66,2.02,4.08,2.64c1.56,0.68,3.46,1.13,5.27,1.42c2.04,0.33,5.01,0.33,7.04,0c1.81-0.29,3.91-0.75,5.47-1.42 c1.43-0.62,2.75-1.71,3.89-2.64c1.11-0.91,2.64-3.49,2.64-3.49l11.55,3.44l-2.53,7.71l-13.97,1.51L85,25.87L74.44,24.48z" fill="rgb(96, 46, 41)"/>
<path id="Trauma-Plates_Neck_Classic" class="toggle" style="display:none" d="M82.99,24.39l-8.55-1.13l-12.86-2.43l-1.51-4.61l8.22-2.45 c0,0,2.42,2.53,3.53,3.44c1.14,0.93,2.97,1.71,4.4,2.33c1.56,0.68,3.46,1.13,5.27,1.42c0.46,0.08,0.97,0.13,1.51,0.17V24.39z M87.01,21.13c0.54-0.04,1.05-0.1,1.51-0.17c1.81-0.29,3.91-0.75,5.47-1.42c1.43-0.62,3.25-1.59,4.39-2.52 c1.11-0.91,2.88-3.39,2.88-3.39l8.68,2.59l-1.52,4.64l-12.86,2.41l-8.55,1.13V21.13z" fill="rgb(255, 255, 255)"/>
</g>
</g></g>
<g id="ChestDecals" mask="url(#ChestMask)">
</g>
<g id="Chest-Attachments"><g id="No-Device_Accessories_Chest" class="option" style="display: inherit;">
</g>
</g>
<g id="Collar"><g id="None_Collar" class="option" style="display: inherit;">
</g>
</g>
<g id="CollarDecals" mask="url(#CollarMask)">
</g>
<g id="Helmets" class="swappable" transform="translate(45,-52)"><g id="Helmet_McQuarrie">
<g id="Left-Earcap_McQuarrie" class="toggle">
<path id="Base_Earcap_Left_McQuarrie" d="M60.16,35.97c0-0.85-0.69-1.54-1.54-1.54c0,0,0,0,0,0v3.83h1.55V35.97z" fill="rgb(96, 46, 41)"/>
<rect id="Shaft_Earcap_Left_McQuarrie" x="58.61" y="8.01" width="1.12" height="26.41" fill="rgb(96, 46, 41)"/>
<g id="Finder_Earcap_Left_McQuarrie" fill="rgb(47, 81, 50)">
<rect x="59.74" y="9.43" width="7" height="2.29"/>
<path d="M66.39,8.97h-6.65v0.47h7L66.39,8.97z"/>
<path d="M65.23,12.78h-5.5v-1.06h7L65.23,12.78z"/>
</g>
<path id="Accent_Earcap_Left_McQuarrie" d="M66.1,10.76c-0.05-0.28-0.29-0.48-0.57-0.48 c-1.21,0.01-3.98,0.01-4.88,0.01c-0.16,0-0.28,0.13-0.28,0.28c0,0,0,0,0,0.01c0,0.08,0.03,0.15,0.08,0.2 c0.05,0.05,0.13,0.08,0.2,0.08c1.05,0,4.69,0,5.34,0c0.03,0,0.05-0.01,0.07-0.03C66.1,10.86,66.1,10.86,66.1,10.76z" fill="rgb(41, 91, 96)"/>
</g>
<g id="Right-Earcap_McQuarrie" class="toggle" style="display:none"/>
<g id="Helmet_Pieces_McQuarrie">
<path id="Mouth-2_McQuarrie" d="M39.95,52.08l8.57,0.83l1.25,11.77c0,0-6.52,0.79-9.76,0.79 c-3.25,0-9.76-0.79-9.76-0.79L31.5,52.9L39.95,52.08z" fill="rgb(96, 46, 41)"/>
<g id="Mouth-1_McQuarrie" fill="rgb(54, 50, 92)">
<g>
<path d="M34.34,57.74c2.3-0.28,4.29,1.11,4.44,3.11c0.15,2-1.61,3.85-3.91,4.13c-2.3,0.28-4.29-1.11-4.44-3.11 C30.29,59.87,32.04,58.02,34.34,57.74z"/>
<path d="M33.05,59.42c2.12-1.23,4.84-0.84,6.08,0.88s0.53,4.12-1.59,5.35c-2.12,1.23-4.84,0.84-6.08-0.88 C30.22,63.05,30.93,60.65,33.05,59.42z"/>
<path d="M33.19,59.6c2.07-1.23,4.73-0.84,5.94,0.88c1.21,1.72,0.52,4.12-1.55,5.35c-2.07,1.23-4.73,0.84-5.94-0.88 C30.43,63.23,31.13,60.83,33.19,59.6z"/>
<path d="M33.48,60.29c2.07-1.26,4.73-0.85,5.94,0.9c1.21,1.75,0.52,4.2-1.55,5.46c-2.07,1.26-4.72,0.85-5.93-0.9 C30.72,63.99,31.42,61.54,33.48,60.29z"/>
<path d="M33.79,60.68c1.77-1.08,4.06-0.73,5.1,0.77c1.04,1.51,0.44,3.6-1.33,4.69c-1.77,1.08-4.06,0.73-5.09-0.77 C31.42,63.85,32.02,61.76,33.79,60.68z"/>
<path d="M33.63,60.6c1.62-0.95,3.7-0.65,4.65,0.68c0.95,1.32,0.4,3.17-1.21,4.12c-1.62,0.95-3.7,0.65-4.65-0.68 C31.47,63.4,32.01,61.55,33.63,60.6z"/>
<path d="M34.1,61.11c1.22-0.71,2.79-0.48,3.5,0.51c0.71,0.99,0.3,2.37-0.91,3.08c-1.22,0.71-2.79,0.48-3.5-0.51 C32.47,63.2,32.88,61.82,34.1,61.11z"/>
</g>
<g>
<path d="M45.68,57.74c-2.3-0.28-4.29,1.11-4.44,3.11c-0.15,2,1.61,3.85,3.91,4.13c2.3,0.28,4.29-1.11,4.44-3.11 C49.74,59.87,47.98,58.02,45.68,57.74z"/>
<path d="M46.97,59.42c-2.11-1.23-4.84-0.84-6.08,0.88c-1.24,1.72-0.53,4.12,1.59,5.35 c2.11,1.23,4.84,0.84,6.08-0.88C49.8,63.05,49.09,60.65,46.97,59.42z"/>
<path d="M46.83,59.6c-2.07-1.23-4.73-0.84-5.94,0.88c-1.21,1.72-0.52,4.12,1.55,5.35c2.07,1.23,4.73,0.84,5.94-0.88 C49.59,63.23,48.9,60.83,46.83,59.6z"/>
<path d="M46.54,60.29c-2.06-1.26-4.72-0.85-5.94,0.9c-1.21,1.75-0.52,4.2,1.55,5.46c2.06,1.26,4.72,0.85,5.93-0.9 C49.3,63.99,48.61,61.54,46.54,60.29z"/>
<path d="M46.23,60.68c-1.77-1.08-4.06-0.73-5.1,0.77c-1.04,1.51-0.44,3.6,1.33,4.69c1.77,1.08,4.06,0.73,5.1-0.77 C48.6,63.85,48.01,61.76,46.23,60.68z"/>
<path d="M46.39,60.6c-1.62-0.95-3.7-0.65-4.65,0.68c-0.95,1.32-0.4,3.17,1.21,4.12c1.62,0.95,3.7,0.65,4.65-0.68 C48.56,63.4,48.01,61.55,46.39,60.6z"/>
<path d="M45.93,61.11c-1.22-0.71-2.79-0.48-3.5,0.51c-0.71,0.99-0.3,2.37,0.91,3.08c1.22,0.71,2.79,0.48,3.5-0.51 C47.55,63.2,47.15,61.82,45.93,61.11z"/>
</g>
<g>
<rect x="35.88" y="52.08" width="8.26" height="3.23"/>
<rect x="36.31" y="55.31" width="7.4" height="0.81"/>
<rect x="35.88" y="56.15" width="8.26" height="1.56"/>
</g>
</g>
<path id="Nose-2_McQuarrie" d="M40.02,41.51c0.45,0.02,0.92,1.64,2.17,1.93v9.45c0,0-0.43-0.22-0.87-0.29 c-0.41-0.08-1.21-0.03-1.3-0.03v0l0,0l-0.01,0v0c-0.09-0.01-0.89-0.05-1.3,0.03c-0.44,0.08-0.87,0.29-0.87,0.29v-9.45 C39.09,43.15,39.56,41.53,40.02,41.51L40.02,41.51C40.01,41.51,40.01,41.51,40.02,41.51C40.01,41.51,40.01,41.51,40.02,41.51 L40.02,41.51z" fill="rgb(54, 50, 92)"/>
<path id="Nose-1_McQuarrie" d="M39.4,44.81c0-0.31,0.28-0.57,0.62-0.57c0.34,0,0.62,0.26,0.62,0.57v7.01H39.4V44.81 L39.4,44.81z" fill="rgb(47, 81, 50)"/>
<g id="Face-2_McQuarrie" fill="rgb(47, 81, 50)">
<path d="M51.66,64.34c0,0,3.38-1.02,5.24-1.5c1.85-0.48,2.38-1.66,2.38-1.66V48.61l-6.14,3.21l-0.01,0l0,0.01 C50.21,57.21,51.62,64.12,51.66,64.34L51.66,64.34z"/>
<path d="M28.36,64.34c0,0-3.38-1.02-5.24-1.5c-1.85-0.48-2.38-1.66-2.38-1.66V48.61l6.14,3.21l0.01,0l0,0.01 C29.81,57.21,28.41,64.12,28.36,64.34L28.36,64.34z"/>
<rect x="59.28" y="41.29" width="1.54" height="19.35"/>
<rect x="19.2" y="41.29" width="1.55" height="19.35"/>
</g>
<ellipse id="Face-1_McQuarrie" cx="27.13" cy="59.89" rx="0.55" ry="0.82" fill="rgb(41, 91, 96)"/>
<g id="Cheeks_McQuarrie" fill="rgb(38, 62, 40)">
<path d="M53.13,51.82l6.14-3.21v-6.82c-0.8,0.27-1.72,0.61-2.32,0.89c-1.4,0.67-3.71,2.04-4.52,2.65 c-0.81,0.61-0.77,1.5-0.77,1.5L53.13,51.82z"/>
<path d="M51.67,46.84c-0.02,0.06-1.34,4.19-1.51,5.68c-0.61,5.56,0.67,12.37,0.67,12.37l0.84-0.56 c0,0-1.5-7.04,1.46-12.51l-1.46-4.96C51.67,46.87,51.66,46.86,51.67,46.84z"/>
<path d="M26.89,51.82l-6.14-3.21v-6.82c0.8,0.27,1.72,0.61,2.32,0.89c1.4,0.67,3.71,2.04,4.52,2.65 c0.81,0.61,0.77,1.5,0.77,1.5L26.89,51.82z"/>
<path d="M28.36,46.84c0.02,0.06,1.34,4.19,1.51,5.68c0.61,5.56-0.67,12.37-0.67,12.37l-0.84-0.56 c0,0,1.5-7.04-1.46-12.51l1.46-4.96C28.36,46.87,28.36,46.86,28.36,46.84z"/>
</g>
<g id="Eyes_McQuarrie" fill="rgb(87, 34, 29)">
<g>
<path d="M51.65,46.83l-9.46-2.59v8.65c0,0,1.09,0.81,2.14,0.84c1.08,0.04,2.88-0.79,3.53-0.21 c0.66,0.57,0.87,2.22,0.79,3.79c-0.08,1.58,0.59,6.1,1,7.58l0.65,0.19l0.52-0.19l0-0.07c-0.06-0.35-1.26-6.95-0.66-12.36 C50.31,51.06,51.49,47.33,51.65,46.83z M51.67,46.8L51.67,46.8L51.67,46.8L51.67,46.8z M51.67,46.78 C51.67,46.78,51.67,46.78,51.67,46.78c0,0.01,0,0.01,0,0.01V46.78z"/>
<path d="M28.38,46.83l9.46-2.59v8.65c0,0-1.09,0.81-2.14,0.84c-1.08,0.04-2.88-0.79-3.53-0.21 c-0.66,0.57-0.87,2.22-0.79,3.79c0.08,1.58-0.59,6.1-1,7.58l-0.65,0.19l-0.52-0.19l0-0.07c0.06-0.35,1.26-6.95,0.66-12.36 C29.71,51.06,28.53,47.33,28.38,46.83z M28.36,46.8L28.36,46.8L28.36,46.8L28.36,46.8z M28.36,46.78 C28.36,46.78,28.36,46.78,28.36,46.78c0,0.01,0,0.01,0,0.01V46.78z"/>
</g>
<path d="M37.84,43.44v0.8l-9.48,2.6c0,0,0.04-0.9-0.77-1.5c-0.81-0.61-3.12-1.97-4.52-2.65 c-1.23-0.59-4.09-1.4-4.09-1.4v-3.04h42.08v3.04c0,0-2.87,0.8-4.1,1.4c-1.4,0.67-3.71,2.04-4.52,2.65 c-0.81,0.61-0.77,1.5-0.77,1.5l-9.48-2.6v-0.8l0.01,0c3.44,0.2,17.26-3.06,17.26-3.06s0.69-0.21,0.69-0.78 c-0.02-0.57-0.69-0.45-0.69-0.45L49.4,39.9l-9.38,0.38l-9.38-0.38l-10.06-0.75c0,0-0.67-0.12-0.69,0.45 c0,0.57,0.69,0.78,0.69,0.78S34.38,43.63,37.84,43.44L37.84,43.44 M41.98,43.38c0.06,0.02,0.13,0.04,0.19,0.06 C42.11,43.42,42.05,43.4,41.98,43.38 M38.04,43.38c-0.06,0.02-0.13,0.04-0.19,0.06C37.91,43.42,37.98,43.4,38.04,43.38 M38.05,43.37L38.05,43.37L38.05,43.37L38.05,43.37 M41.97,43.37L41.97,43.37L41.97,43.37L41.97,43.37 M38.06,43.37L38.06,43.37 L38.06,43.37L38.06,43.37 M41.96,43.37L41.96,43.37L41.96,43.37L41.96,43.37 M41.94,43.36l0.01,0L41.94,43.36L41.94,43.36 M38.08,43.36L38.08,43.36L38.08,43.36L38.08,43.36 M38.1,43.35c-0.01,0-0.01,0-0.02,0.01L38.1,43.35 M41.92,43.35l0.02,0.01 C41.93,43.36,41.92,43.35,41.92,43.35 M38.12,43.35L38.12,43.35L38.12,43.35L38.12,43.35 M41.9,43.34l0.01,0.01L41.9,43.34 L41.9,43.34 M38.13,43.34L38.13,43.34L38.13,43.34L38.13,43.34 M41.89,43.34l0.01,0L41.89,43.34L41.89,43.34 M38.16,43.33 c-0.01,0-0.01,0.01-0.02,0.01L38.16,43.33 M41.87,43.33l0.02,0.01C41.88,43.33,41.87,43.33,41.87,43.33 M38.17,43.32L38.17,43.32 L38.17,43.32L38.17,43.32 M41.85,43.32l0.01,0.01L41.85,43.32L41.85,43.32 M38.18,43.32L38.18,43.32L38.18,43.32L38.18,43.32 M41.83,43.31l0.01,0.01L41.83,43.31L41.83,43.31 M38.21,43.3c-0.01,0-0.01,0-0.02,0.01L38.21,43.3 M41.81,43.3l0.02,0.01 C41.83,43.31,41.82,43.31,41.81,43.3 M38.22,43.3L38.22,43.3L38.22,43.3L38.22,43.3 M41.8,43.3l0.01,0.01L41.8,43.3L41.8,43.3 M41.79,43.29L41.79,43.29L41.79,43.29L41.79,43.29 M38.23,43.29L38.23,43.29L38.23,43.29L38.23,43.29 M38.25,43.28L38.25,43.28 L38.25,43.28L38.25,43.28 M41.77,43.28L41.77,43.28L41.77,43.28L41.77,43.28 M38.26,43.28L38.26,43.28L38.26,43.28L38.26,43.28 M41.76,43.28L41.76,43.28L41.76,43.28 M41.74,43.26L41.74,43.26L41.74,43.26 M38.28,43.26L38.28,43.26L38.28,43.26L38.28,43.26 M38.3,43.26L38.3,43.26L38.3,43.26L38.3,43.26 M41.73,43.26L41.73,43.26L41.73,43.26 M39.01,42.64L39.01,42.64L39.01,42.64 L39.01,42.64 M41.01,42.64L41.01,42.64L41.01,42.64 M39.03,42.62L39.03,42.62L39.03,42.62L39.03,42.62 M40.99,42.62L40.99,42.62 L40.99,42.62L40.99,42.62 M39.05,42.6L39.05,42.6L39.05,42.6L39.05,42.6 M40.97,42.59l0.02,0.02L40.97,42.59L40.97,42.59 M40.95,42.57l0.01,0.01L40.95,42.57L40.95,42.57 M39.06,42.58L39.06,42.58L39.06,42.58L39.06,42.58 M39.08,42.56L39.08,42.56 L39.08,42.56L39.08,42.56 M40.94,42.55l0.01,0.01L40.94,42.55L40.94,42.55 M39.1,42.54L39.1,42.54L39.1,42.54L39.1,42.54 M40.92,42.53l0.01,0.01L40.92,42.53L40.92,42.53 M40.9,42.51l0.01,0.01L40.9,42.51L40.9,42.51 M39.12,42.52L39.12,42.52 L39.12,42.52L39.12,42.52 M39.13,42.49L39.13,42.49L39.13,42.49L39.13,42.49 M40.89,42.49l0.01,0.01L40.89,42.49L40.89,42.49 M39.15,42.47L39.15,42.47L39.15,42.47L39.15,42.47 M40.87,42.47l0.01,0.01L40.87,42.47L40.87,42.47 M40.86,42.45l0.01,0.01 L40.86,42.45L40.86,42.45 M39.16,42.45L39.16,42.45L39.16,42.45L39.16,42.45 M39.18,42.43l-0.01,0.01L39.18,42.43L39.18,42.43 M40.84,42.43l0.01,0.01L40.84,42.43L40.84,42.43 M39.2,42.41l-0.01,0.01L39.2,42.41L39.2,42.41 M40.82,42.4l0.01,0.02 L40.82,42.4L40.82,42.4 M39.21,42.39L39.21,42.39L39.21,42.39L39.21,42.39 M40.8,42.38l0.01,0.02L40.8,42.38L40.8,42.38 M39.28,42.3c-0.02,0.03-0.04,0.05-0.06,0.08l0.02-0.02c0.01-0.01,0.01-0.02,0.02-0.03L39.28,42.3 M40.76,42.33 c0.01,0.01,0.01,0.02,0.02,0.03l0.02,0.02c-0.02-0.03-0.04-0.05-0.06-0.08L40.76,42.33 M39.29,42.29l-0.01,0.01L39.29,42.29 L39.29,42.29 M40.73,42.28l0.01,0.02L40.73,42.28L40.73,42.28 M39.32,42.25L39.32,42.25L39.32,42.25L39.32,42.25L39.32,42.25 M40.71,42.25L40.71,42.25L40.71,42.25L40.71,42.25L40.71,42.25 M39.35,42.21L39.35,42.21l0.02-0.03L39.35,42.21 M40.66,42.18 l0.02,0.03l-0.01-0.01L40.66,42.18 M39.51,41.97c-0.05,0.06-0.09,0.13-0.14,0.2c0.03-0.04,0.06-0.09,0.09-0.13 C39.48,42.02,39.49,42,39.51,41.97 M40.51,41.97c0.02,0.02,0.03,0.05,0.05,0.07c0.03,0.04,0.06,0.09,0.09,0.13 C40.61,42.1,40.56,42.04,40.51,41.97 M39.53,41.94l-0.02,0.03L39.53,41.94L39.53,41.94 M40.49,41.95l0.02,0.02L40.49,41.95 L40.49,41.95 M39.56,41.91l-0.01,0.01L39.56,41.91L39.56,41.91 M40.47,41.92L40.47,41.92L40.47,41.92L40.47,41.92 M39.57,41.89 l-0.01,0.01L39.57,41.89L39.57,41.89 M40.45,41.89L40.45,41.89L40.45,41.89L40.45,41.89 M39.6,41.86l-0.01,0.01L39.6,41.86 L39.6,41.86 M40.43,41.87L40.43,41.87L40.43,41.87L40.43,41.87 M39.62,41.82c0,0.01-0.01,0.01-0.01,0.02l-0.01,0.01 C39.61,41.84,39.62,41.83,39.62,41.82l0.01-0.01L39.62,41.82 M40.39,41.81L40.39,41.81c0.01,0.02,0.02,0.03,0.03,0.04l-0.01-0.01 c0-0.01-0.01-0.01-0.01-0.02L40.39,41.81 M39.75,41.67c-0.04,0.04-0.08,0.09-0.11,0.14C39.67,41.76,39.71,41.72,39.75,41.67 L39.75,41.67 M40.27,41.67L40.27,41.67c0.04,0.05,0.08,0.09,0.11,0.14C40.35,41.76,40.31,41.71,40.27,41.67 M39.85,41.58 c-0.03,0.02-0.06,0.05-0.09,0.09C39.78,41.64,39.81,41.61,39.85,41.58 M40.18,41.58c0.03,0.03,0.06,0.06,0.09,0.09 C40.24,41.63,40.21,41.6,40.18,41.58 M39.85,41.58L39.85,41.58L39.85,41.58L39.85,41.58L39.85,41.58 M40.17,41.58L40.17,41.58 L40.17,41.58L40.17,41.58L40.17,41.58 M39.86,41.57L39.86,41.57L39.86,41.57L39.86,41.57 M40.16,41.57L40.16,41.57L40.16,41.57 L40.16,41.57 M39.91,41.54c-0.02,0.01-0.03,0.02-0.05,0.03C39.88,41.56,39.9,41.55,39.91,41.54 M40.11,41.54 c0.02,0.01,0.03,0.02,0.05,0.03C40.14,41.56,40.13,41.55,40.11,41.54 M39.92,41.54L39.92,41.54L39.92,41.54 M40.11,41.54 L40.11,41.54L40.11,41.54L40.11,41.54"/>
</g>
<path fill="rgb(0, 0, 0)" id="Visor_McQuarrie" d="M40.01,40.27l9.38-0.38l10.06-0.75c0,0,0.67-0.12,0.69,0.45c0,0.57-0.69,0.78-0.69,0.78 s-13.82,3.26-17.26,3.06l-0.01,0l-0.01,0c-0.08-0.02-0.15-0.04-0.23-0.07c-0.05-0.02-0.09-0.04-0.14-0.06 c-0.34-0.17-0.62-0.44-0.85-0.72c-0.04-0.05-0.08-0.1-0.12-0.16c-0.05-0.07-0.1-0.14-0.15-0.21c-0.04-0.06-0.08-0.12-0.13-0.18 c-0.03-0.04-0.06-0.08-0.09-0.13c-0.03-0.03-0.05-0.07-0.08-0.1c-0.04-0.05-0.08-0.1-0.12-0.14c-0.03-0.03-0.07-0.07-0.11-0.1 c-0.05-0.03-0.1-0.06-0.16-0.07c-0.06,0-0.12,0.03-0.16,0.07c-0.04,0.03-0.07,0.06-0.11,0.1c-0.04,0.05-0.08,0.09-0.12,0.14 c-0.03,0.03-0.05,0.07-0.07,0.1c-0.03,0.04-0.06,0.08-0.09,0.13c-0.04,0.06-0.08,0.12-0.13,0.18c-0.05,0.07-0.1,0.14-0.15,0.21 c-0.04,0.05-0.08,0.11-0.12,0.16c-0.23,0.28-0.51,0.55-0.85,0.72c-0.04,0.02-0.09,0.04-0.14,0.06c-0.07,0.03-0.15,0.05-0.23,0.07 l-0.01,0l-0.01,0c-3.44,0.2-17.26-3.06-17.26-3.06s-0.69-0.21-0.69-0.78c0.02-0.57,0.69-0.45,0.69-0.45l10.06,0.75L40.01,40.27z"/>
<path id="Dome-2_McQuarrie" d="M21.41,34.62c0-9.51,8.34-17.23,18.6-17.23s18.6,7.72,18.6,17.23v3.64h-37.2V34.62z" fill="rgb(72, 29, 25)"/>
<path id="Dome-1_McQuarrie" d="M40.01,36.31l-0.78-3.38h1.55L40.01,36.31z" fill="rgb(41, 91, 96)"/>
</g>
</g></g>
<g id="HelmetsDecals" mask="url(#HelmetsMask)"/>
<g id="Shoulders">
<g id="Left-Shoulder"><g id="Legacy-x3_Shoulder_Left" class="option" style="display: inherit;">
<path id="Plate-3_Shoulder_Left_Legacy-x3" d="M119.95,19.89l-7.33,7.47l4.29,9.25l9.66-0.51l5.11,4.66l4.55-0.32 L119.95,19.89z" fill="rgb(96, 46, 41)"/>
<path id="Trauma-Plate-3_Shoulder_Legacy-x3_Left" class="toggle" style="display:none" d="M132.3,39.03l2.94-0.21L121.2,21.04l-6.54,6.67 l3.32,7.16l8.89-0.55L132.3,39.03z" fill="rgb(255, 255, 255)"/>
<path id="Plate-2_Shoulder_Left_Legacy-x3" d="M115.99,15.27l-5.8,8.69l5.95,8.29l9.39-2.29l5.9,3.63l4.41-1.15 L115.99,15.27z" fill="rgb(47, 81, 50)"/>
<path id="Trauma-Plate-2_Shoulder_Legacy-x3_Left" class="toggle" style="" d="M131.69,31.78l2.85-0.74l-17.1-14.9l-5.19,7.75 l4.6,6.43l8.64-2.17L131.69,31.78z" fill="rgb(85, 37, 33)"/>
<path id="Plate-1_Shoulder_Left_Legacy-x3" d="M108.85,10.82l-2.61,10.1l8.36,5.89l8.12-5.22l6.77,1.51l3.79-2.53 L108.85,10.82z" fill="rgb(96, 46, 41)"/>
<path id="Trauma-Plate-1_Shoulder_Legacy-x3_Left" class="toggle" style="display:none" d="M129.14,21.3l2.45-1.64L110.5,11.2l-2.33,9.02 l6.47,4.56l7.43-4.88L129.14,21.3z" fill="rgb(255, 255, 255)"/>
</g></g>
<g id="Right-Shoulder"><g id="Legacy-x2_Shoulder_Right" class="option" style="display: inherit;">
<path id="Plate-2_Shoulder_Right_Legacy-x2" d="M54.01,15.27l5.8,8.69l-5.95,8.29l-9.39-2.29l-5.9,3.63l-4.41-1.15 L54.01,15.27z" fill="rgb(38, 62, 40)"/>
<path id="Trauma-Plate-2_Shoulder_Legacy-x2_Right" class="toggle" style="display:none" d="M38.31,31.78l-2.85-0.74l17.1-14.9l5.19,7.75 l-4.6,6.43l-8.64-2.17L38.31,31.78z" fill="rgb(255, 255, 255)"/>
<path id="Plate-1_Shoulder_Right_Legacy-x2" d="M61.15,10.82l2.61,10.1l-8.36,5.89l-8.12-5.22l-6.77,1.51 l-3.79-2.53L61.15,10.82z" fill="rgb(47, 81, 50)"/>
<path id="Trauma-Plate-1_Shoulder_Legacy-x2_Right" class="toggle" style="display:none" d="M40.86,21.3l-2.45-1.64l21.09-8.46l2.33,9.02 l-6.47,4.56l-7.44-4.88L40.86,21.3z" fill="rgb(255, 255, 255)"/>
</g></g>
</g>
<g id="ShouldersDecals" mask="url(#ShouldersMask)">
</g>
<g id="Gauntlets">
<g id="Left-Gauntlets"><g id="Heavy_Gauntlet_Left" class="option" style="display: inherit;">
<g id="Top-2_Heavy_Gauntlet_Left" fill="rgb(47, 81, 50)">
<path d="M140.68,79.64l1.74,0.13l1.43,8.11l-1.48,1.23L140.68,79.64z"/>
<path d="M142.25,88.39l1.82,10.57l-0.95,1.28l1.11,6.22l-0.44,0.32l-3.07-17.02L142.25,88.39z"/>
<ellipse cx="142.26" cy="85.76" rx="0.38" ry="0.38"/>
</g>
<g id="Top-1_Heavy_Gauntlet_Left" fill="rgb(96, 46, 41)">
<path d="M139.42,107.96l4.36-1.17l-3.07-17.02l1.54-1.38l-1.66-9.27l-6.59-0.67L139.42,107.96z"/>
<path d="M138.89,78.94l1.82,10.82"/>
</g>
<g id="Accent-Top_Heavy_Gauntlet_Left" fill="rgb(76, 28, 23)">
<path d="M142.53,104.17l-2.77,0.56l0.42,2.15l2.77-0.65L142.53,104.17z"/>
<path d="M140.78,95.16l-2.77,0.56l1.62,8.4l2.77-0.56L140.78,95.16z"/>
<path d="M138.29,79.56l-3.13-0.24l1.64,9.21l2.91-0.59L138.29,79.56z"/>
</g>
<path id="Bottom_Heavy_Gauntlet_Left" d="M134.08,78.88c-3.37,0.13-6.88,1.57-9.06,4.4 c-0.71,0.92-0.92,2.12-0.58,3.22c1.64,5.35,7.01,22.84,7.01,22.84l7.98-1.39L134.08,78.88z" fill="rgb(96, 46, 41)"/>
<g id="Accent-Bottom_Heavy_Gauntlet_Left" fill="rgb(54, 50, 92)">
<path d="M139.42,107.96l-7.98,1.39l-0.43-1.41l8.13-1.52L139.42,107.96z"/>
<path d="M134.44,80.86c-4.35,0.43-7.98,2.01-9.69,6.7l-0.32-1.04c-0.27-0.87-0.19-1.8,0.2-2.61l0.41-0.65 c2.19-2.81,5.68-4.24,9.03-4.37L134.44,80.86z"/>
<path d="M133.31,79.53l-3.52,0.69l2.77,13.89l3.52-0.69L133.31,79.53z"/>
<path d="M132.9,79.88l-2.59,0.51l2.56,12.85l2.59-0.51L132.9,79.88z"/>
<path d="M130.3,80.39l-0.51-0.17"/>
<path d="M133.31,79.53l-0.41,0.35"/>
<path d="M136.08,93.42l-0.62-0.7"/>
<path d="M132.56,94.12l0.37-0.89"/>
</g><g id="Flamethrower_Attachment_Heavy_Gauntlet_Left" class="option" style="display: inherit;">
<g id="Tubes_Flamethrower_Attachment_Heavy_Gauntlet_Left" fill="rgb(0, 0, 0)">
<path d="M142.18,79.84l-0.82,0.14l4.36,24.89l0.82-0.14L142.18,79.84z"/>
<path d="M144.06,79.51l-0.82,0.14l3.12,17.84l0.82-0.14L144.06,79.51z"/>
<path d="M142.71,81.35l-1.23,0.21l1.04,5.93l1.24-0.21L142.71,81.35z"/>
<path d="M144.49,81.04l-1.13,0.19l1.04,5.93l1.13-0.2L144.49,81.04z"/>
</g>
<g id="Main_Flamethrower_Attachment_Heavy_Gauntlet_Left" fill="rgb(96, 46, 41)">
<path d="M144.34,79.07l-3.38,0.58l0.34,1.94l3.38-0.58L144.34,79.07z"/>
<path d="M145.8,86.93l-3.53,0.61l0.17,0.95l3.53-0.61L145.8,86.93z"/>
<path d="M145.82,87.9l-3.24,0.56l0.08,0.48l3.24-0.56L145.82,87.9z"/>
<path d="M142.52,86.88L141.98,87l0.51,2.89l0.54-0.11L142.52,86.88z"/>
</g>
<g id="Accent_Flamethrower_Attachment_Heavy_Gauntlet_Left" fill="rgb(54, 50, 92)">
<path d="M147.21,97.35l-0.88,0.15l0.08,1.24l1.15-0.2L147.21,97.35z"/>
<path d="M146.44,90.95l-1.56,0.27l0.33,1.89l1.56-0.27L146.44,90.95z"/>
<path d="M146.56,92.87l-1.13,0.2l0.33,1.89l1.13-0.19L146.56,92.87z"/>
<path d="M146.14,101.55l-1.13,0.2l0.45,2.59l1.13-0.19L146.14,101.55z"/>
<path d="M144.67,93.2l-1.13,0.19l0.62,3.52l1.13-0.2L144.67,93.2z"/>
<path d="M146.58,102.81l-1.56,0.27l0.09,0.5l1.56-0.27L146.58,102.81z"/>
</g>
<path id="Base_Flamethrower_Attachment_Heavy_Gauntlet_Left" d="M141.98,87l-1.39-7.85l1.01,0.21l2.35,13.27 l-0.87,0.59l-0.59-3.32l0.54-0.11l-0.51-2.89L141.98,87z" fill="rgb(38, 62, 40)"/>
</g></g></g>
<g id="Right-Gauntlets"><g id="Heavy_Gauntlet_Right" class="option" style="display: inherit;">
<g id="Top-2_Heavy_Gauntlet_Right" fill="rgb(47, 81, 50)">
<path d="M29.5,79.64l-1.74,0.13l-1.43,8.11l1.48,1.23L29.5,79.64z"/>
<path d="M27.93,88.39l-1.82,10.57l0.95,1.28l-1.11,6.22l0.44,0.32l3.07-17.02L27.93,88.39z"/>
<ellipse cx="27.92" cy="85.76" rx="0.38" ry="0.38"/>
</g>
<g id="Top-1_Heavy_Gauntlet_Right" fill="rgb(96, 46, 41)">
<path d="M30.76,107.96l-4.36-1.17l3.07-17.02l-1.54-1.38l1.66-9.27l6.59-0.67L30.76,107.96z"/>
<path d="M31.29,78.94l-1.82,10.82"/>
</g>
<g id="Accent-Top_Heavy_Gauntlet_Right" fill="rgb(76, 28, 23)">
<path d="M27.66,104.17l2.77,0.56l-0.42,2.15l-2.77-0.65L27.66,104.17z"/>
<path d="M29.4,95.16l2.77,0.56l-1.62,8.4l-2.77-0.56L29.4,95.16z"/>
<path d="M31.89,79.56l3.13-0.24l-1.64,9.21l-2.91-0.59L31.89,79.56z"/>
</g>
<path id="Bottom_Heavy_Gauntlet_Right" d="M36.11,78.88c3.37,0.13,6.88,1.57,9.06,4.4 c0.71,0.92,0.92,2.12,0.58,3.22c-1.64,5.35-7.01,22.84-7.01,22.84l-7.98-1.39L36.11,78.88z" fill="rgb(96, 46, 41)"/>
<g id="Accent-Bottom_Heavy_Gauntlet_Right" fill="rgb(54, 50, 92)">
<path d="M30.76,107.96l7.98,1.39l0.43-1.41l-8.13-1.52L30.76,107.96z"/>
<path d="M35.74,80.86c4.35,0.43,7.98,2.01,9.69,6.7l0.32-1.04c0.27-0.87,0.19-1.8-0.2-2.61l-0.41-0.65 c-2.19-2.81-5.68-4.24-9.03-4.37L35.74,80.86z"/>
<path d="M36.88,79.53l3.52,0.69l-2.77,13.89l-3.52-0.69L36.88,79.53z"/>
<path d="M37.29,79.88l2.59,0.51l-2.56,12.85l-2.59-0.51L37.29,79.88z"/>
<path d="M39.88,80.39l0.51-0.17"/>
<path d="M36.88,79.53l0.41,0.35"/>
<path d="M34.1,93.42l0.62-0.7"/>
<path d="M37.62,94.12l-0.37-0.89"/>
</g>
<g id="Whistling-Birds_Attachment_Heavy_Gauntlet_Right" class="option" style="display: inherit;">
<path id="Head_Whistling-Birds_Attachment_Heavy_Gauntlet_Right" d="M23.97,93.43l2.14,5.53l0.88-5.01 L23.97,93.43z" fill="rgb(96, 46, 41)"/>
<g id="Birds_Whistling-Birds_Attachment_Heavy_Gauntlet_Right" fill="rgb(24, 190, 223)">
<g>
<path d="M26.42,94.23c-0.12-0.02-0.26,0.22-0.31,0.53c-0.06,0.31,0,0.59,0.11,0.61c0.12,0.02,0.26-0.22,0.31-0.53 C26.59,94.52,26.54,94.25,26.42,94.23z"/>
<path d="M26.14,95.83c-0.12-0.02-0.26,0.22-0.31,0.53c-0.05,0.32,0,0.59,0.12,0.61c0.12,0.02,0.26-0.22,0.31-0.53 C26.31,96.12,26.26,95.85,26.14,95.83z"/>
<path d="M25.61,94.09c-0.12-0.02-0.26,0.22-0.31,0.53c-0.06,0.31,0,0.59,0.11,0.61c0.12,0.02,0.26-0.22,0.31-0.53 C25.77,94.38,25.72,94.11,25.61,94.09z"/>
<path d="M25.87,98.37c0.04-0.09,0.08-0.21,0.1-0.33c0.06-0.31,0-0.59-0.11-0.61c-0.08-0.02-0.18,0.1-0.24,0.28 L25.87,98.37z M25.25,96.76c0.08-0.09,0.15-0.26,0.19-0.47c0.06-0.32,0-0.59-0.11-0.61c-0.11-0.02-0.24,0.19-0.3,0.48 L25.25,96.76z M24.61,95.09c0.11,0,0.24-0.24,0.3-0.53c0.06-0.31,0-0.59-0.11-0.61c-0.12-0.02-0.26,0.22-0.31,0.53 c-0.01,0.07-0.02,0.14-0.02,0.21L24.61,95.09z"/>
</g>
</g>
<g id="Base_Whistling-Birds_Attachment_Heavy_Gauntlet_Right" fill="rgb(38, 62, 40)">
<path d="M26.81,78.33l2.02,0.35l-0.16,0.89l-2.02-0.35L26.81,78.33z"/>
<path d="M26.46,79.19l2.21,0.38l-2.5,14.24l-2.21-0.38L26.46,79.19z"/>
<path d="M26.15,79.29l0.29,0.05l-2.16,12.3l-0.29-0.05L26.15,79.29z"/>
<path d="M26.82,79.25l0.29,0.05l-2.34,13.35l-0.29-0.05L26.82,79.25z"/>
</g>
<g id="Accent_Whistling-Birds_Attachment_Heavy_Gauntlet_Right" fill="rgb(54, 50, 92)">
<path d="M28.87,78.46l0.81,0.14l-2.54,14.46l-0.81-0.14L28.87,78.46z"/>
<path d="M23.96,92.51l3.18,0.55l-0.16,0.89L23.8,93.4L23.96,92.51z"/>
<path d="M27.5,78.45l1.33,0.23l-0.36,2.07l-1.33-0.23L27.5,78.45z"/>
<path d="M27.45,80.58l1.01,0.18l-0.86,4.93l-0.69-2.02L27.45,80.58z"/>
</g>
</g></g></g>
</g>
<g id="GauntletsDecals" mask="url(#GauntletsMask)">
</g>
<g id="Shins">
<g id="Left-Shin"><g id="Heavy-Shnees_Shin_Left" class="option" style="display: inherit;">
<g id="Shin_Heavy-Shnees-Shin_Left" fill="rgb(96, 46, 41)">
<path d="M112.07,224.31l4.68-6.1l8.52-1.02l-6.09-55.58l-24.29,3.02l12.33,51.48l0.09,5.64L112.07,224.31"/>
<path d="M98.68,163.41l-2.62-2.14h-1.73c0,0-0.8,4.95-0.63,7.41c0.28,3.98,4.34,9.06,4.34,9.06l2.69,1.26l3.01-6.94 L98.68,163.41"/>
<path d="M116.83,168.97l1.64-8.34c0,0,2.41,4.71,2.64,7.17c0.41,4.36-0.46,7.23-0.46,7.23L116.83,168.97"/>
<path d="M116.75,218.21l8.52-1.02l-2.11-4.26l-5.82,0.52L116.75,218.21"/>
<path d="M120.15,213.19l-6.83-36.52"/>
</g>
<g id="Knee_Heavy-Shnees-Shin_Left" fill="rgb(47, 81, 50)">
<path d="M113.99,153.2l-13.68,2.29l-2.04,9.89l10.06,12.11l9.04-1.28l2.9-14.95L113.99,153.2"/>
<path d="M100.31,155.49l2.93,3.55l10.59-1.66l0.16-4.18L100.31,155.49"/>
<path d="M103.24,159.04l-4.97,6.31l2.03-9.86L103.24,159.04"/>
<path d="M113.83,157.38l6.44,3.88l-6.28-8.06L113.83,157.38"/>
<path d="M113.83,157.38l3.54,18.83l2.9-14.95L113.83,157.38"/>
<path d="M103.24,159.04l-4.97,6.31l10.06,12.15L103.24,159.04"/>
</g>
<g id="Straps_Heavy-Shnees-Shin_Left" class="toggle" fill="rgb(60, 40, 11)">
<path d="M99.72,186.35l5.22-0.86l0.54,2.35l-5.22,0.86L99.72,186.35"/>
<path d="M100.07,186.1l1.11-0.18l0.64,2.78l-1.11,0.18L100.07,186.1"/>
<path d="M105.1,209.05l5.22-0.86l0.54,2.35l-5.22,0.86L105.1,209.05"/>
<path d="M105.44,208.8l1.1-0.18l0.64,2.78l-1.11,0.18L105.44,208.8"/>
</g>
</g></g>
<g id="Right-Shin"><g id="Heavy-Shnees_Shin_Right" class="option" style="display: inherit;">
<g id="Shin_Heavy-Shnees-Shin_Right" fill="rgb(96, 46, 41)">
<path d="M57.82,224.31l-4.68-6.1l-8.52-1.02l6.09-55.58l24.29,3.02l-12.33,51.48l-0.09,5.64L57.82,224.31"/>
<path d="M71.22,163.41l2.62-2.14h1.73c0,0,0.8,4.95,0.63,7.41c-0.28,3.98-4.34,9.06-4.34,9.06L69.18,179l-3.01-6.94 L71.22,163.41"/>
<path d="M53.06,168.97l-1.64-8.34c0,0-2.41,4.71-2.64,7.17c-0.41,4.36,0.46,7.23,0.46,7.23L53.06,168.97"/>
<path d="M53.14,218.21l-8.52-1.02l2.11-4.26l5.82,0.52L53.14,218.21"/>
<path d="M49.74,213.19l6.84-36.52"/>
</g>
<g id="Knee_Heavy-Shnees-Shin_Right" fill="rgb(96, 46, 41)">
<path d="M55.9,153.2l13.68,2.29l2.04,9.89l-10.06,12.11l-9.04-1.28l-2.9-14.95L55.9,153.2"/>
<path d="M69.58,155.49l-2.93,3.55l-10.59-1.66l-0.16-4.18L69.58,155.49"/>
<path d="M66.65,159.04l4.97,6.31l-2.04-9.86L66.65,159.04"/>
<path d="M56.06,157.38l-6.44,3.88l6.28-8.06L56.06,157.38"/>
<path d="M56.06,157.38l-3.54,18.83l-2.9-14.95L56.06,157.38"/>
<path d="M66.65,159.04l4.97,6.31l-10.06,12.15L66.65,159.04"/>
</g>
<g id="Straps_Heavy-Shnees-Shin_Right" class="toggle" fill="rgb(60, 40, 11)">
<path d="M70.17,186.35l-5.22-0.86l-0.54,2.35l5.22,0.86L70.17,186.35"/>
<path d="M69.82,186.1l-1.1-0.18l-0.64,2.78l1.11,0.18L69.82,186.1"/>
<path d="M64.8,209.05l-5.22-0.86l-0.54,2.35l5.22,0.86L64.8,209.05"/>
<path d="M64.45,208.8l-1.11-0.18l-0.64,2.78l1.1,0.18L64.45,208.8"/>
</g>
</g></g>
</g>
<g id="ShinsDecals" mask="url(#ShinsMask)">
</g>
<g id="Foot">
<g id="Left-Ankle"><g id="Legacy_Ankle_Left" class="option" style="display: inherit;">
<path id="Plate-2_Legacy-Ankle_Left" d="M126.71,222.74l4.34,3.89l2.99,3.74l-4.78,1.55l-10.95-2.26l-4.01-5.27 L126.71,222.74" fill="rgb(47, 81, 50)"/>
<path id="Plate-1_Legacy-Ankle_Left" d="M107,215.4c0,0,4.37,1.94,10.84,1.71c4.44-0.16,6.24-1.26,6.24-1.26 l3.76,6.93l-0.97,3.82l-15.84-1.24l-3.9-3.29L107,215.4" fill="rgb(96, 46, 41)"/>
<path id="Trauma-Plate-2_Legacy-Ankle_Left" class="toggle" style="display:none" d="M127.64,223.58l3.39,3.04l1.75,2.18l-3.64,1.18 l-9.65-1.99l-1.58-2.08l8.96,0.7L127.64,223.58" fill="rgb(255, 255, 255)"/>
<path id="Trauma-Plate-1_Legacy-Ankle_Left" class="toggle" style="display:none" d="M108.66,217.83l0.06,3.17l3.15,2.54l13.92,1.09 l0.99-3.82l-1.77-3.27c-1.17,0.33-4.74,1.36-7.08,1.44C114.21,219.12,110.73,218.37,108.66,217.83" fill="rgb(255, 255, 255)"/>
</g></g>
<g id="Left-Toe"><g id="None_Toe_Left" class="option" style="display: inherit;">
</g>
</g>
<g id="Right-Ankle"><g id="Legacy_Ankle_Right" class="option" style="display: inherit;">
<path id="Plate-2_Legacy-Ankle_Right" d="M43.17,222.74l-4.34,3.89l-2.99,3.74l4.78,1.55l10.95-2.26l4-5.27 L43.17,222.74" fill="rgb(47, 81, 50)"/>
<path id="Plate-1_Legacy-Ankle_Right" d="M62.87,215.4c0,0-4.37,1.94-10.84,1.71c-4.44-0.16-6.24-1.26-6.24-1.26 l-3.76,6.93L43,226.6l15.84-1.24l3.9-3.29L62.87,215.4" fill="rgb(96, 46, 41)"/>
<path id="Trauma-Plate-2_Legacy-Ankle_Right" class="toggle" style="display:none" d="M42.23,223.58l-3.39,3.04l-1.75,2.18l3.64,1.18 l9.65-1.99l1.58-2.08L43,226.6L42.23,223.58" fill="rgb(255, 255, 255)"/>
<path id="Trauma-Plate-1_Legacy-Ankle_Right" class="toggle" style="display:none" d="M61.21,217.83L61.15,221L58,223.54l-13.92,1.09 l-0.99-3.82l1.77-3.27c1.17,0.33,4.74,1.36,7.08,1.44C55.66,219.12,59.14,218.37,61.21,217.83" fill="rgb(255, 255, 255)"/>
</g></g>
<g id="Right-Toe"><g id="None_Toe_Right" class="option" style="display: inherit;">
</g>
</g>
</g>
<g id="FootDecals" mask="url(#FootMask)">
</g>
<g id="Knees">
<g id="Left-Knee">
<g id="None-(Nih-Plates)_Knee_Left" class="option" style="display: inherit;">
</g></g>
<g id="Right-Knee">
<g id="None-(Nih-Plates)_Knee_Right" class="option" style="display: inherit;">
</g></g>
</g>
<g id="KneesDecals" mask="url(#KneesMask)">
</g>
<g id="Thighs">
<g id="Left-Thigh"><g id="Legacy_Thigh_Left" class="option" style="display: inherit;">
<path id="Plate-3_Legacy-Thigh_Left" d="M97.79,140.5l1.83,10.6l10.33,1.6l8.34-3.62l0.4-10.82l-9.49,4.43 L97.79,140.5" fill="rgb(47, 81, 50)"/>
<path id="Plate-2_Legacy-Thigh_Left" d="M95.49,130.29l1.76,10.11l11.94,2.28l10.04-4.69l0.49-12.31l-11.34,7.2 L95.49,130.29" fill="rgb(47, 81, 50)"/>
<path id="Plate-1_Legacy-Thigh_Left" d="M120.79,115.62l-8.83-7.68l-11.8,1.93l-6.77,11.14l1.7,9.2l13.28,2.67 l11.87-7.53L120.79,115.62" fill="rgb(96, 46, 41)"/>
<path id="Trauma-Plate-3_Legacy-Thigh_Left" class="toggle" style="display:none" d="M116.67,141.54l-6.78,3.16 c-0.32,0.15-0.67,0.19-1.01,0.13l-8.71-1.66l1.03,5.96l8.52,1.32l6.73-2.92L116.67,141.54" fill="rgb(255, 255, 255)"/>
<path id="Trauma-Plate-2_Legacy-Thigh_Left" class="toggle" style="" d="M117.68,129.46l-8.4,5.33 c-0.37,0.24-0.81,0.32-1.23,0.24l-10.17-2.04l0.96,5.49l10.13,1.94l8.42-3.94L117.68,129.46" fill="rgb(85, 37, 33)"/>
<path id="Trauma-Plate-1_Legacy-Thigh_Left" class="toggle" style="display:none" d="M101.24,111.91l-5.83,9.58l1.26,6.82l11.37,2.28 l10.38-6.59l0.42-7.34l-7.39-6.43L101.24,111.91" fill="rgb(255, 255, 255)"/>
<g id="Ridge_Legacy-Thigh_Left" class="toggle" style="display:none" fill="rgb(255, 255, 255)"/>
</g></g>
<g id="Right-Thigh"><g id="Pocket_Thigh_Right" class="option" fill="rgb(60, 40, 11)" style="display: inherit;">
<path d="M51.2,124.47c-0.55,6.45-1.32,12.57-2.29,18.39c-0.2,1.16,0.1,2.35,0.83,3.27c0.73,0.93,1.82,1.5,2.99,1.59 c5.35,0.43,10.77,1.25,16.24,2.29c0.92,0.18,1.87-0.03,2.64-0.56c0.76-0.54,1.27-1.36,1.41-2.28c0.92-6.1,2.78-18.4,3.5-23.17 c0.16-1.08-0.58-2.09-1.67-2.26c-2.42-0.38-6.21-0.97-6.21-0.97L51.2,124.47"/>
<path d="M53.73,118.36c-0.76-0.12-1.5,0.3-1.78,1.01c-0.92,2.45-1.72,6.36-1.1,8.36c0.8,2.59,8.94,17.56,10.96,21.25 c0.28,0.52,0.8,0.86,1.38,0.93c1.16,0.14,3.16,0.37,4.48,0.52c0.74,0.08,1.4-0.43,1.51-1.15c0.67-4.44,2.86-19,3.7-24.61 c0.2-1.36,1.18-2.47,2.51-2.85l0,0C75.39,121.82,58.5,119.12,53.73,118.36"/>
<path id="Stitch_Right" d="M53.97,118.39c-1.72-0.23-2.97,6.8-2.41,8.62c0.72,2.34,8.84,17.84,10.67,21.18 c0.25,0.47,0.72,0.78,1.25,0.84l3.5,0.5c0.66,0.08,1.27-0.38,1.37-1.04c0.6-4.01,2.97-19.62,3.75-24.68 c0.28-1.79,2.19-2.17,2.19-2.17"/>
<path d="M74.93,121.74l-21.05-3.36"/>
</g></g>
</g>
<g id="ThighsDecals" mask="url(#ThighsMask)">
</g>
<g id="Groin">
<g id="None_Groin" class="option" style="display: inherit;">
</g></g>
<g id="GroinDecals" mask="url(#GroinMask)">
</g>
<g id="Waist">
<g id="Accessories_Waist">
<g id="Kama" class="toggle" style="display:none"/>
<g id="Loin-Cloth" class="toggle" style=""><path id="Tattered_Loin-Cloth" class="option" d="M97.67,87.11c-0.07,2.63-0.2,5.26-0.01,7.89c0.17,2.31,0.64,4.68,0.62,7 c-0.02,1.83-0.58,3.58-0.71,5.39c-0.21,2.98,0.1,6.18,0.44,9.14c0.68,5.81-1.9,25.36-1.9,25.36l-5.23-4.74l-3.53,8.59l-2.96-5.51 l-2.68,4.43l-2.04-0.78l-1.4,5.97l-2.35-4.59l-1.5-4.99c0,0-0.42-2.44-1.3-6.72c-0.38-1.84-1.32-3.66-1.38-5.55 c-0.16-4.71,1.54-9.42,1.71-14.13c0.13-3.76-0.93-7.42-1.26-11.14c-0.29-3.24-0.8-8.41,1.47-11.09 C75.98,88.87,97.67,87.11,97.67,87.11z M81.13,135.73c-0.13,0.59-0.27,1.18-0.38,1.78c-0.06,0.36-0.12,0.73-0.14,1.1 c-0.03,0.5,0.02,1.05,0.23,1.51c0.02,0.04,0.34-0.13,0.37-0.15c0.35-0.23,0.6-0.57,0.72-0.97c0.3-0.93,0.48-2.63-0.41-3.34 L81.13,135.73z M94.48,129.13c-0.62,0.35-1.47,0.75-1.92,1.31c-0.34,0.42-0.58,0.86-0.68,1.39c-0.07,0.35-0.12,0.71-0.15,1.07 c-0.09,1.32,0.71,1.77,1.75,0.82C94.41,132.87,95.47,130.21,94.48,129.13z" fill="rgb(94, 67, 43)" style="display: inherit;"/>
</g>
<g id="Left-Holster" class="toggle" style="">
<g id="Thigh-Plate-Holster_Left" class="option" style="display: inherit;">
<g id="Weapon_Thigh-Plate-Holster-Left">
<g id="Main_Weapon_Thigh-Plate-Holster-Left" fill="rgb(40, 40, 47)">
<path d="M116.96,113.88l0.24-3.6l0.62,0.04l0.15-2.26l-0.62-0.04l0.08-1.18c0.03-0.38,0.56-0.66,1.19-0.62 c1.45,0.09,3.93,0.25,5.37,0.35c0.63,0.04,1.12,0.39,1.1,0.77l-0.08,1.18l-0.62-0.04l-0.15,2.26l0.62,0.04l-0.24,3.6 l-1.46-0.09l-0.65,9.95l-4.73-0.31l0.65-9.95L116.96,113.88z"/>
<path d="M124.04,113.81l-0.84-0.06l-0.79,11.96l-4.73-0.31l0.79-11.96l-0.84-0.05l0.18-2.73l6.42,0.42 L124.04,113.81z"/>
<path d="M123.15,107.31l-3.8-0.25l-0.24,3.69l3.8,0.25L123.15,107.31z"/>
<path d="M119.48,114.6l-0.62-0.04l-0.62,9.4l0.62,0.04L119.48,114.6z"/>
<path d="M121.21,112.55l-0.62-0.04l-0.87,13.21l0.62,0.04L121.21,112.55z"/>
<path d="M122.66,114.8l-0.62-0.04l-0.69,10.44l0.62,0.04L122.66,114.8z"/>
</g>
<g id="Accent_Weapon_Thigh-Plate-Holster-Left" fill="rgb(96, 46, 41)">
<path d="M120.45,114.66l-0.96-0.06l-0.62,9.4l0.97,0.06L120.45,114.66z"/>
<path d="M122.04,114.76l-0.97-0.06l-0.69,10.44l0.97,0.06L122.04,114.76z"/>
<path d="M119.98,107.1l-0.62-0.04l-0.24,3.69l0.62,0.04L119.98,107.1z"/>
<path d="M123.15,107.31l-0.62-0.04l-0.24,3.69l0.62,0.04L123.15,107.31z"/>
<path d="M119.65,111.17l-0.03,0.38l2.68,0.17l0.02-0.38L119.65,111.17z"/>
<path d="M119.62,111.54l-0.03,0.38l2.68,0.17l0.03-0.38L119.62,111.54z"/>
<path d="M119.67,110.79l-0.02,0.38l2.68,0.17l0.03-0.38L119.67,110.79z"/>
<path d="M119.97,106.15l-0.02,0.38l2.68,0.17l0.02-0.38L119.97,106.15z"/>
</g>
</g>
<path id="Holster_Thigh-Plate-Holster-Left" d="M123.41,125.08l-3.36-0.23l-1.88-6.79l-1.02-0.07l-2.06,30.17 c0,0,0,0,0,0c3.71,0.25,6.92-2.55,7.17-6.26C122.74,134.94,123.41,125.08,123.41,125.08z" fill="rgb(84, 57, 16)"/>
</g></g>
<g id="Right-Holster" class="toggle" style=""><g id="Hanging-Holster_Right" class="option" style="display: inherit;">
<g id="Weapon_Hanging-Holster-Right">
<g id="Main_Weapon_Hanging-Holster-Right" fill="rgb(40, 40, 47)">
<path d="M52.77,122.65l-0.17-3.6l-0.62,0.03l-0.11-2.26l0.62-0.03l-0.05-1.18c-0.02-0.38-0.54-0.67-1.18-0.64 c-1.45,0.07-3.93,0.18-5.38,0.25c-0.63,0.03-1.13,0.36-1.11,0.75l0.06,1.18l0.62-0.03l0.11,2.26l-0.62,0.03l0.17,3.6 l1.47-0.07l0.46,9.96l4.74-0.22l-0.46-9.96L52.77,122.65z"/>
<path d="M45.7,122.45l0.84-0.04l0.56,11.97l4.74-0.22l-0.56-11.98l0.84-0.04L52,119.42l-6.42,0.29L45.7,122.45z"/>
<path d="M46.72,115.96l3.8-0.17l0.17,3.7l-3.8,0.17L46.72,115.96z"/>
<path d="M50.24,123.32l0.62-0.03l0.44,9.41l-0.62,0.03L50.24,123.32z"/>
<path d="M48.55,121.25l0.62-0.03l0.44,9.41l-0.62,0.03L48.55,121.25z"/>
<path d="M47.06,123.47l0.62-0.03l0.44,9.41l-0.62,0.03L47.06,123.47z"/>
</g>
<g id="Accent_Weapon_Hanging-Holster-Right" fill="rgb(96, 46, 41)">
<path d="M50.15,119.89l0.02,0.38l-2.68,0.12l-0.02-0.38L50.15,119.89z"/>
<path d="M50.16,120.26l0.02,0.38l-2.68,0.12l-0.02-0.38L50.16,120.26z"/>
<path d="M50.13,119.51l0.02,0.38l-2.68,0.12l-0.02-0.38L50.13,119.51z"/>
<path d="M49.91,114.87l0.02,0.38l-2.68,0.12L47.23,115L49.91,114.87z"/>
<path d="M49.89,115.82l0.62-0.03l0.17,3.7l-0.62,0.03L49.89,115.82z"/>
<path d="M46.72,115.96l0.62-0.03l0.17,3.7l-0.62,0.03L46.72,115.96z"/>
<path d="M47.69,123.44l0.95-0.04l0.44,9.42l-0.95,0.04L47.69,123.44z"/>
<path d="M49.29,123.36l0.95-0.04l0.44,9.41l-0.95,0.04L49.29,123.36z"/>
</g>
</g>
<path id="Holster_Hanging-Holster-Right" d="M52.74,136.53l0.76-15.17l-7.05,11.42l1.56,20.64 c1.64,1.71,3.26,1.73,4.85-0.18L52.74,136.53z" fill="rgb(84, 57, 16)"/>
<g id="Straps_Hanging-Holster-Right" fill="rgb(60, 40, 11)">
<path d="M79.7,96.9c-7.71,11-15.47,20.31-26.2,24.47l-0.13,2.6c13.34-5.59,20.49-15.06,28.38-27.07H79.7z"/>
<path d="M52.78,139.62c7.21,5.49,15.01,8.47,24.34,8.98l-0.67,2.06c-8.08-0.73-15.62-3.7-23.68-8.87V139.62z"/>
<path d="M52.78,141.79l-0.02-2.17c-1.87,0.83-4.05,0.89-5.77,0.28l0.17,2.21C49,142.59,51.1,142.62,52.78,141.79z"/>
</g>
<g id="Buckle_Hanging-Holster-Right" fill="rgb(89, 89, 89)">
<path d="M69.64,148.49l1.01,0.15l-0.05,0.33l-1.01-0.15L69.64,148.49"/>
<path d="M72.39,108l0.7-0.92l0.27,0.2l-0.7,0.92L72.39,108"/>
<path d="M72.66,108.21l1.15,0.92l2.7-3.31l-2.6-2.1l-2.7,3.31L72.4,108l0.58-0.76l-0.58-0.47l1.49-1.83l1.43,1.15 l-1.49,1.83l-0.59-0.47L72.66,108.21"/>
<path d="M69.67,148.49l0.8,0.12l0.12-0.78l1.94,0.41l-0.27,1.81l-1.94-0.41l0.1-0.7l-0.8-0.12l-0.21,1.39 l3.52,0.75l0.49-3.28l-3.52-0.75L69.67,148.49"/>
</g>
</g></g>
<g id="Left-Trophy" class="toggle" style="display:none"/>
<g id="Right-Trophy" class="toggle" style="display:none"/>
</g>
<g id="Under-Belt"><g id="Girth-Belt" class="option" fill="rgb(96, 46, 41)" style="display: inherit;">
<path d="M84.93,84.93c-9.33,0-27.98-2.25-27.98-2.25l0.61-1.91c0,0,18.19,1.5,27.37,2.25 c9.13-0.75,27.37-2.25,27.37-2.25l0.6,1.91C112.91,82.68,94.25,84.93,84.93,84.93z"/>
<path d="M84.93,86.84c-9.52,0-28.56-2.25-28.56-2.25l0.58-1.91c0,0,23.31,1.88,27.98,2.25 c4.66-0.38,27.98-2.25,27.98-2.25l0.58,1.91C113.49,84.59,94.45,86.84,84.93,86.84z"/>
<path d="M84.93,88.75c-9.67,0-28.99-2.25-28.99-2.25l0.43-1.91c0,0,23.8,1.88,28.56,2.25 c4.76-0.38,28.56-2.25,28.56-2.25l0.43,1.91C113.92,86.49,94.6,88.75,84.93,88.75z"/>
<path d="M84.93,90.65c-9.79,0-29.36-2.25-29.36-2.25l0.37-1.91c0,0,24.16,1.88,28.99,2.25 c4.83-0.38,28.99-2.25,28.99-2.25l0.37,1.91C114.29,88.4,94.72,90.65,84.93,90.65z"/>
<path d="M84.93,92.56c-9.9,0-29.69-2.25-29.69-2.25l0.33-1.91c0,0,24.47,1.88,29.36,2.25 c4.89-0.38,29.36-2.25,29.36-2.25l0.33,1.91C114.62,90.31,94.83,92.56,84.93,92.56z"/>
<path d="M84.93,94.47c-10,0-30-2.25-30-2.25l0.31-1.91c0,0,24.74,1.88,29.69,2.25c4.95-0.38,29.69-2.25,29.69-2.25 l0.31,1.91C114.93,92.21,94.93,94.47,84.93,94.47z"/>
<path d="M84.93,96.37c-10.1,0-30.31-2.25-30.31-2.25l0.31-1.91c0,0,25,1.88,30,2.25c5-0.38,30-2.25,30-2.25 l0.31,1.91C115.24,94.12,95.03,96.37,84.93,96.37z"/>
<path d="M84.93,98.28c-10.21,0-30.62-2.25-30.62-2.25l0.32-1.91c0,0,25.26,1.88,30.31,2.25 c5.05-0.38,30.31-2.25,30.31-2.25l0.32,1.91C115.55,96.03,95.14,98.28,84.93,98.28z"/>
<path d="M84.93,100.19c-10.32,0-30.97-2.25-30.97-2.25l0.34-1.91c0,0,25.52,1.88,30.62,2.25 c5.1-0.38,30.62-2.25,30.62-2.25l0.35,1.91C115.9,97.93,95.25,100.19,84.93,100.19z"/>
<path d="M84.93,102.09c-10.45,0-31.36-2.25-31.36-2.25l0.39-1.91c0,0,25.81,1.88,30.97,2.25 c5.16-0.38,30.97-2.25,30.97-2.25l0.39,1.91C116.29,99.84,95.38,102.09,84.93,102.09z"/>
</g>
</g>
<g id="Belt"><g id="Pouch-Belt-6" class="option" style="display: inherit;">
<path id="Main_Pouch-Belt-6" d="M115.21,92.95c-6.82,0.61-22.4,2.83-30.27,2.83c-7.94,0-23.52-2.23-30.26-2.82 l1.01-7.93c5.53,0.49,21.56,2.74,29.26,2.74c7.47,0,23.17-2.23,29.07-2.76L115.21,92.95z" fill="rgb(84, 57, 16)"/>
<rect id="Buckle_Pouch-Belt-6" x="79.37" y="87.01" width="11.28" height="9.21" fill="rgb(84, 84, 84)"/>
<g id="Pouches_Pouch-Belt-6" fill="rgb(60, 40, 11)">
<g>
<g>
<g>
<path d="M70.81,84.98c-0.29-0.02-0.58,0.03-0.84,0.13c-0.71,0.28-2.1,0.82-2.1,0.82l8.08,0.46l2.19-0.94 C78.13,85.46,72.44,85.09,70.81,84.98z"/>
<path d="M78.41,85.73c0.01-0.08-0.03-0.17-0.1-0.22c-0.07-0.05-0.16-0.06-0.24-0.03 c-0.7,0.3-2.14,0.91-2.14,0.91l-1.05,12.41c0.72-0.42,1.44-0.69,2.15-0.84c0.41-0.08,0.7-0.43,0.71-0.85 C77.88,93.32,78.03,89.51,78.41,85.73z"/>
<path d="M75.94,86.4l-8.08-0.46c-0.05,1.89-0.23,3.77-0.33,5.65c-0.11,2.08-0.15,4.18-0.34,6.28 c-0.01,0.15,0.04,0.3,0.14,0.41c0.1,0.11,0.25,0.18,0.4,0.18c2.32-0.01,4.63,0.13,6.93,0.4c0.14,0.02,0.29-0.02,0.4-0.12 c0.11-0.09,0.18-0.22,0.19-0.37c0.1-1.47,0.37-5.34,0.37-5.34L75.94,86.4z"/>
<path d="M75.94,86.4l-8.08-0.46c0,0-0.19,1.59-0.38,3.14c-0.09,0.75,0.13,1.51,0.62,2.09 c0.49,0.58,1.2,0.94,1.96,0.98c0.96,0.06,2.01,0.12,2.97,0.17c0.76,0.04,1.51-0.23,2.07-0.75c0.55-0.52,0.86-1.25,0.86-2.01 C75.95,87.99,75.94,86.4,75.94,86.4z"/>
<path d="M71.64,90.75c0.29,0.02,0.51,0.26,0.49,0.55c-0.02,0.28-0.26,0.5-0.55,0.49 c-0.29-0.02-0.51-0.26-0.49-0.55C71.11,90.96,71.36,90.74,71.64,90.75z"/>
</g>
</g>
<g>
<g>
<path d="M59.65,83.47c-0.31-0.02-0.62,0.03-0.91,0.16c-0.67,0.29-1.86,0.81-1.86,0.81l7.38,0.42l2-0.95 C66.26,83.91,61.24,83.57,59.65,83.47z"/>
<path d="M66.52,84.19c0.01-0.09-0.03-0.17-0.1-0.22c-0.07-0.05-0.17-0.06-0.24-0.02 c-0.66,0.31-1.91,0.9-1.91,0.9l-1.02,12.42c0.65-0.41,1.29-0.68,1.93-0.85c0.39-0.09,0.68-0.44,0.69-0.84 C65.99,91.78,66.15,87.98,66.52,84.19z"/>
<path d="M64.26,84.85l-7.38-0.42c-0.06,1.89-0.23,3.77-0.33,5.65c-0.11,2.08-0.16,4.17-0.34,6.28 c-0.01,0.15,0.04,0.3,0.14,0.41s0.25,0.18,0.4,0.17c2.08-0.01,4.15,0.11,6.22,0.36c0.14,0.02,0.29-0.02,0.4-0.12 c0.11-0.09,0.18-0.23,0.19-0.37c0.1-1.47,0.37-5.33,0.37-5.33L64.26,84.85z"/>
<path d="M64.26,84.85l-7.38-0.42c0,0-0.18,1.6-0.36,3.15c-0.09,0.75,0.14,1.51,0.63,2.08 c0.49,0.58,1.2,0.93,1.96,0.97c0.73,0.04,1.51,0.08,2.23,0.13c0.76,0.04,1.51-0.23,2.06-0.75c0.55-0.52,0.87-1.25,0.86-2 C64.26,86.46,64.26,84.85,64.26,84.85z"/>
<path d="M60.31,89.23c0.26,0.01,0.46,0.26,0.44,0.54c-0.02,0.28-0.24,0.5-0.5,0.49 c-0.26-0.01-0.46-0.26-0.44-0.54C59.83,89.44,60.05,89.22,60.31,89.23z"/>
</g>
</g>
<g>
<path d="M52.22,84.29l0.55-0.85l2.83,0.09l0.35,1.06L52.22,84.29z"/>
<path d="M55.93,84.69c0.01-0.07-0.01-0.13-0.06-0.18c-0.04-0.05-0.11-0.08-0.17-0.08 c-0.85-0.03-3.48-0.13-3.48-0.13l-0.5,11.17c0.11,0.28,1.53,0.46,2.68,0.49c0.5,0.01,0.91-0.38,0.92-0.88 C55.4,91.61,55.53,88.14,55.93,84.69z"/>
</g>
</g>
<g>
<g>
<g>
<path d="M99.08,84.98c0.29-0.02,0.58,0.03,0.85,0.13c0.71,0.28,2.1,0.82,2.1,0.82l-8.08,0.46l-2.19-0.94 C91.76,85.46,97.45,85.09,99.08,84.98z"/>
<path d="M91.48,85.73c-0.01-0.08,0.03-0.17,0.1-0.22c0.07-0.05,0.16-0.06,0.24-0.03c0.7,0.3,2.14,0.91,2.14,0.91 L95,98.81c-0.72-0.42-1.44-0.69-2.15-0.84c-0.41-0.08-0.7-0.43-0.71-0.85C92.01,93.32,91.86,89.51,91.48,85.73z"/>
<path d="M93.95,86.4l8.08-0.46c0.05,1.89,0.23,3.77,0.33,5.65c0.11,2.08,0.15,4.18,0.34,6.28 c0.01,0.15-0.04,0.3-0.14,0.41c-0.1,0.11-0.25,0.18-0.4,0.18c-2.32-0.01-4.63,0.13-6.93,0.4c-0.14,0.02-0.29-0.02-0.4-0.12 c-0.11-0.09-0.18-0.22-0.19-0.37c-0.1-1.47-0.37-5.34-0.37-5.34L93.95,86.4z"/>
<path d="M93.95,86.4l8.08-0.46c0,0,0.19,1.59,0.38,3.14c0.09,0.75-0.14,1.51-0.62,2.09 c-0.49,0.58-1.2,0.94-1.96,0.98c-0.96,0.06-2.01,0.12-2.97,0.17c-0.76,0.04-1.51-0.23-2.06-0.75 c-0.55-0.52-0.87-1.25-0.86-2.01C93.94,87.99,93.95,86.4,93.95,86.4z"/>
<path d="M98.25,90.75c-0.29,0.02-0.51,0.26-0.49,0.55c0.02,0.28,0.26,0.5,0.55,0.49 c0.29-0.02,0.51-0.26,0.49-0.55C98.78,90.96,98.54,90.74,98.25,90.75z"/>
</g>
</g>
<g>
<g>
<path d="M110.24,83.47c0.31-0.02,0.62,0.03,0.91,0.16c0.67,0.29,1.86,0.81,1.86,0.81l-7.38,0.42l-2-0.95 C103.63,83.91,108.65,83.57,110.24,83.47z"/>
<path d="M103.37,84.19c-0.01-0.09,0.03-0.17,0.1-0.22c0.07-0.05,0.17-0.06,0.24-0.02 c0.66,0.31,1.91,0.9,1.91,0.9l1.02,12.42c-0.65-0.41-1.29-0.68-1.93-0.85c-0.39-0.09-0.68-0.44-0.69-0.84 C103.9,91.78,103.74,87.98,103.37,84.19z"/>
<path d="M105.63,84.85l7.38-0.42c0.06,1.89,0.23,3.77,0.33,5.65c0.11,2.08,0.16,4.17,0.34,6.28 c0.01,0.15-0.04,0.3-0.14,0.41c-0.1,0.11-0.25,0.18-0.4,0.17c-2.08-0.01-4.15,0.11-6.22,0.36c-0.14,0.02-0.29-0.02-0.4-0.12 c-0.11-0.09-0.18-0.23-0.19-0.37c-0.1-1.47-0.37-5.33-0.37-5.33L105.63,84.85z"/>
<path d="M105.63,84.85l7.38-0.42c0,0,0.18,1.6,0.36,3.15c0.09,0.75-0.14,1.51-0.63,2.08 c-0.49,0.58-1.2,0.93-1.96,0.97c-0.72,0.04-1.5,0.08-2.23,0.13c-0.76,0.04-1.51-0.23-2.06-0.75c-0.55-0.52-0.87-1.25-0.86-2 C105.63,86.46,105.63,84.85,105.63,84.85z"/>
<path d="M109.58,89.23c-0.26,0.01-0.46,0.26-0.44,0.54c0.02,0.28,0.24,0.5,0.5,0.49 c0.26-0.01,0.46-0.26,0.44-0.54C110.07,89.44,109.84,89.22,109.58,89.23z"/>
</g>
</g>
<g>
<path d="M117.67,84.29l-0.55-0.85l-2.83,0.09l-0.35,1.06L117.67,84.29z"/>
<path d="M113.96,84.69c-0.01-0.07,0.01-0.13,0.06-0.18c0.04-0.05,0.11-0.08,0.18-0.08 c0.85-0.03,3.48-0.13,3.48-0.13l0.5,11.17c-0.11,0.28-1.53,0.46-2.68,0.49c-0.5,0.01-0.91-0.38-0.92-0.88 C114.49,91.61,114.36,88.14,113.96,84.69z"/>
</g>
</g>
</g>
</g></g>
</g>
<g id="WaistDecals" mask="url(#WaistMask)">
</g>
<g id="Extras_Front">
<g id="Front"><g id="None_Front" class="option" style="display: inherit;">
</g>
</g>
</g>
<g id="Extras-FrontDecals" mask="url(#FrontMask)">
</g>
</g>
</svg>