<?xml version='1.0' encoding='UTF-8'?><svg version='1.1' xmlns='http://www.w3.org/2000/svg'><metadata><rdf:rdf xmlns:rdf="http://www.w3.org/1999/02/22-rdf-syntax-ns#" xmlns:rdfs="http://www.w3.org/2000/01/rdf-schema#" xmlns:dc="http://purl.org/dc/elements/1.1/"> <rdf:description> <dc:creator>MandoCreator</dc:creator> <dc:publisher>https://www.mandocreator.com</dc:publisher> <dc:description>Your Beskar'gam - created by MandoCreator</dc:description> <dc:format>image/svg+xml</dc:format> <dc:type>Image</dc:type> <dc:title>MandoCreator - Ner Berskar'gam</dc:title> <dc:date>2021-10-08T16:52:25.542Z</dc:date> </rdf:description> </rdf:rdf></metadata><svg version="1.1" id="Male" xmlns="http://www.w3.org/2000/svg" xmlns:xlink="http://www.w3.org/1999/xlink" x="0px" y="0px" viewBox="0 -55 169 300" style="fill: white; fill-rule: evenodd; stroke: black; stroke-width: 0.2px; pointer-events: none; position: relative; height: 100%;">
<g id="Extras_Back">
<g id="Back"><g id="NO-CAPES_Back" class="option" style="display: inherit;">
</g>
</g>
</g>
<g id="Suit">
<g id="Neck-Seal">
<g id="Standard-Neck-Seal" class="option" style="fill: rgb(90, 77, 50); display: inherit;">
<path d="M98,7.5c0-0.9-0.9-1.6-2.1-1.6c0,0-7.8,0.9-11.6,0.9c-3.9,0-11.6-0.9-11.6-0.9c-1.1,0-2.1,0.7-2.1,1.6 s0.9,1.6,2.1,1.6c0,0,7.8,0.9,11.6,0.9C88.2,10,96,9.2,96,9.2C97.1,9.2,98,8.4,98,7.5z"/>
<path d="M98.7,9.4c0-0.9-1-1.7-2.2-1.7c0,0-8.1,0.9-12.2,0.9c-4.1,0-12.2-0.9-12.2-0.9c-1.2,0-2.2,0.8-2.2,1.7 c0,0.9,1,1.7,2.2,1.7c0,0,8.1,0.9,12.2,0.9c4.1,0,12.2-0.9,12.2-0.9C97.8,11.1,98.7,10.4,98.7,9.4z"/>
<path d="M99.5,11.8c0-1-1-1.8-2.3-1.8c0,0-8.6,0.9-12.9,0.9C80,10.9,71.4,10,71.4,10c-1.3,0-2.3,0.8-2.3,1.8 s1,1.8,2.3,1.8c0,0,8.6,0.9,12.9,0.9c4.3,0,12.9-0.9,12.9-0.9C98.5,13.6,99.5,12.8,99.5,11.8z"/>
<path d="M100.3,13.9c0-1-1.1-1.9-2.4-1.9c0,0-9,1-13.5,1s-13.5-1-13.5-1c-1.3,0-2.4,0.8-2.4,1.9s1.1,1.9,2.4,1.9 c0,0,9,1,13.5,1s13.5-1,13.5-1C99.2,15.8,100.3,15,100.3,13.9z"/>
<path d="M101,16.1c0-0.8-1.1-1.4-2.5-1.4c0,0-9.4,0.7-14.2,0.7c-4.8,0-14.2-0.7-14.2-0.7c-1.4,0-2.5,0.6-2.5,1.4 c0,0.8,1.1,1.4,2.5,1.4c0,0,9.4,0.8,14.2,0.8c4.8,0,14.2-0.8,14.2-0.8C99.9,17.5,101,16.9,101,16.1z"/>
<path d="M101,18.4c0-0.8-1.1-1.4-2.5-1.4c0,0-9.4,0.7-14.2,0.7c-4.8,0-14.2-0.7-14.2-0.7c-1.4,0-2.5,0.6-2.5,1.4 c0,0.8,1.1,1.4,2.5,1.4c0,0,9.4,1.4,14.2,1.4c4.8,0,14.2-1.4,14.2-1.4C99.9,19.9,101,19.2,101,18.4z"/>
</g>
</g>
<g id="Flight-Suit" style="fill: rgb(55, 47, 35);">
<path d="M72.8,158.4l-1.5,8.7l-11,53.1c0,0-4.9,3-7.4,3.5s-7.7-0.4-7.7-0.4l3.8-43l2.9-18.4l0.7-7.8 c0,0-2.5-22.8-1.7-34.1c0.8-11.4,6.6-34,6.6-34l26.8,0.6l26.8-0.6c0,0,5.8,22.6,6.6,34c0.8,11.4-1.7,34.1-1.7,34.1l0.7,7.8 l2.9,18.4l3.8,43c0,0-5.3,1.2-7.8,0.7s-7.3-3.7-7.3-3.7l-11-53.1l-1.5-8.7l-11.6-30.3L72.8,158.4z"/>
<g>
<path d="M128.5,43.3l11.9,41.6l1,21.5l-9.5,1.8l-6-20.2l-13.6-33.9l0.7-15.5l2.3-3.7L128.5,43.3z"/>
<path d="M40.3,43.3l13.1-8.4l2.3,3.7l0.5,16L42.8,88l-6,20.2l-9.5-1.8l1-21.5L40.3,43.3z"/>
</g>
</g>
<g id="Sleeves" class="toggle" style="fill: rgb(94, 67, 43);">
<g>
<path d="M111.4,56.1l2.7,5.9c0,0,4.2-3.2,7-4.8c2.8-1.6,4.3-2.6,6.9-3.6c2.5-1,5-1.5,5-1.5l-6-12.2l-5.8-9.7 l-11.5,5.1L111.4,56.1z"/>
<path d="M112.8,59.2c-0.2-0.2,5-4.5,8.6-6.3c3.5-1.8,10.2-3.7,10.2-3.7"/>
</g>
<g>
<path d="M57.3,56.1L54.6,62c0,0-4.2-3.2-7-4.8c-2.8-1.6-4.4-2.6-6.9-3.6s-5-1.5-5-1.5l6-12.2l5.8-9.7L59,35.4 L57.3,56.1z"/>
<path d="M55.9,59.2c0.2-0.2-5-4.5-8.6-6.3c-3.5-1.8-10.2-3.7-10.2-3.7"/>
</g>
</g>
</g>
<g id="Boots">
<g id="Gunslinger_Boots" class="option" style="display: inherit;">
<g id="Main_Gunslinger-Boot" style="fill: rgb(76, 57, 41);">
<path d="M106.9,226.5c0,0.2,0.7,3.4,4.2,4.3c1.2,0.3,3.2-0.3,4.5-1c1.7-0.9,3.5-1.6,5.4-2.1l0.2,0.2 c0.6,0.8,1.2,1.6,1.9,2.3l0.3,0.3c0.4,0.4,0.8,0.7,1.2,1.1l0.3,0.3c0.1,0,0.1,0.1,0.2,0.1c0.9,0.6,2,1.6,3.2,1.4 c1.1-0.2,2.3-0.6,3.3-1c0.8-0.4,1.6-0.9,2.1-1.4c0.2-0.1,0.3-0.3,0.4-0.4c2.5,1,5.3,1.4,6.7,4.2c0.3,0.6,0.5,1.4,0.5,2 c-0.1,0.9-1,1-1.8,1.2c-1.9,0.5-3.5,0.9-5.7,1.3c-2.5,0.5-4.7,0.8-7.2,0.7c-1.9-0.1-3.5-0.2-5.1-1.2c-0.7-0.4-1.3-0.8-1.9-1.4 c-1.3-1.2-2.1-2.4-3.7-3.1c-1.2-0.5-2.4-1-3.7-1.3c-1.8-0.4-3.7-0.8-4.7-2.5C106.7,229.1,106.7,227.8,106.9,226.5"/>
<path d="M61.8,226.5c0,0.2-0.7,3.4-4.2,4.3c-1.2,0.3-3.2-0.3-4.5-1c-1.7-0.9-3.5-1.6-5.4-2.1l-0.2,0.2 c-0.6,0.8-1.2,1.6-1.9,2.3l-0.3,0.3c-0.4,0.4-0.8,0.7-1.2,1.1l-0.3,0.3c-0.1,0-0.1,0.1-0.2,0.1c-0.9,0.6-2,1.6-3.2,1.4 c-1.1-0.2-2.3-0.6-3.3-1c-0.8-0.4-1.6-0.9-2.1-1.4c-0.2-0.1-0.3-0.3-0.4-0.4c-2.5,1-5.3,1.4-6.7,4.2c-0.3,0.6-0.5,1.4-0.5,2 c0.1,0.9,1.1,1,1.8,1.2c1.9,0.5,3.5,0.9,5.7,1.3c2.5,0.5,4.7,0.8,7.2,0.7c1.9-0.1,3.5-0.2,5.1-1.2c0.7-0.4,1.3-0.8,1.9-1.4 c1.3-1.2,2.1-2.4,3.7-3.1c1.2-0.5,2.4-1,3.7-1.3c1.8-0.4,3.7-0.8,4.7-2.5C62.1,229.1,62,227.8,61.8,226.5"/>
</g>
<g id="Bottom_Gunslinger-Boot" style="fill: rgb(0, 0, 0);">
<path d="M106.9,229c0.1,0.5,0.2,1,0.5,1.5c0.9,1.8,2.9,2.1,4.7,2.5c1.3,0.3,2.5,0.8,3.7,1.3c1.6,0.7,2.5,2,3.7,3.1 c0.6,0.5,1.2,0.9,1.9,1.4c1.6,1,3.2,1.1,5.1,1.2c2.5,0.1,4.8-0.2,7.2-0.7c2.2-0.5,3.8-0.8,5.7-1.3c0.6-0.2,1.3-0.3,1.7-0.8 l0.4,0.8l0.2,1.6c0,0-2,1.1-4.2,1.6s-6.5,1.2-6.5,1.2l-0.3-0.7l-1,0.2v0.7l-2.4,0.1l-0.5-0.7H126l0.1,0.6c0,0-1.5,0-2.3-0.5 c-0.2-0.2-0.5-0.6-0.5-0.6l-0.6-0.3l0.1,0.6l-2-0.7l-0.1-0.8l-0.6-0.3v0.6l-1.4-1.1l-0.2-0.7l-3.6-2.5l-0.6,1.3l-2.5-0.6 l-0.1-0.5l-0.6-0.3l-0.4,0.4l-1.7-0.7v-0.5l-0.6-0.2l-0.1,0.4l-1.6-1.1l-0.3-2.2l-0.1-2.4L106.9,229"/>
<path d="M61.9,229c-0.1,0.5-0.2,1-0.5,1.5c-0.9,1.8-2.9,2.1-4.7,2.5c-1.3,0.3-2.5,0.8-3.7,1.3 c-1.7,0.7-2.5,2-3.7,3.1c-0.6,0.5-1.2,0.9-1.9,1.4c-1.6,1-3.2,1.1-5.1,1.2c-2.5,0.1-4.8-0.2-7.2-0.7c-2.2-0.5-3.8-0.8-5.7-1.3 c-0.6-0.2-1.4-0.3-1.7-0.8l-0.4,0.8l-0.2,1.6c0,0,2,1.1,4.2,1.6c2.1,0.5,6.5,1.2,6.5,1.2l0.3-0.7l1,0.2v0.7l2.4,0.1L42,242h0.8 l-0.1,0.6c0,0,1.5,0,2.3-0.5c0.2-0.2,0.5-0.6,0.5-0.6l0.6-0.3l-0.1,0.6l2-0.7l0.1-0.8l0.6-0.3v0.6l1.4-1.1l0.2-0.7l3.6-2.5 l0.6,1.3L57,237l0.1-0.5l0.6-0.3l0.4,0.4l1.7-0.7v-0.5l0.6-0.2l0.1,0.4l1.6-1.1l0.3-2.2l0.1-2.4L61.9,229"/>
</g>
<g id="Top_Gunslinger-Boot" style="fill: rgb(55, 47, 35);">
<path d="M121,227.7c-2.2-3.1-3.6-6.9-4.1-10.3l0.6-0.1h0.7c0.4,0,0.7-0.1,1-0.1l0.5-0.1h0.2l0.4-0.1l0.3-0.1h0.1 c1.1-0.3,2.3-0.6,2.3-0.6c0.3,1.5,0.5,3.2,1.1,4.6c1,2.2,2.8,3.8,4.4,5.5c1.1,1.1,2.3,2.4,3.6,3.3c0.6,0.4,1.2,0.7,1.8,0.9 c-0.5,0.7-1.5,1.4-2.5,1.8c-0.9,0.4-2.2,0.9-3.3,1c-1.2,0.2-2.3-0.8-3.2-1.4C123.5,230.8,122.2,229.4,121,227.7"/>
<path d="M47.7,227.7c2.2-3.1,3.6-6.9,4.1-10.3l-0.6-0.1h-0.7c-0.4,0-0.7-0.1-1-0.1l-0.5-0.1h-0.2l-0.4-0.1l-0.3-0.1 H48c-1.1-0.3-2.3-0.6-2.3-0.6c-0.3,1.5-0.5,3.2-1.1,4.6c-1,2.2-2.8,3.8-4.4,5.5c-1.1,1.1-2.3,2.4-3.6,3.3 c-0.6,0.4-1.2,0.7-1.8,0.9c0.5,0.7,1.5,1.4,2.5,1.8c0.9,0.4,2.2,0.9,3.3,1c1.2,0.2,2.3-0.8,3.2-1.4 C45.2,230.8,46.5,229.4,47.7,227.7"/>
</g>
<g id="Side_Gunslinger-Boot" style="fill: rgb(94, 67, 43);">
<path d="M121,227.7c-1.9,0.5-3.7,1.2-5.4,2.1c-1.3,0.6-3.3,1.3-4.5,1c-3.6-0.9-4.2-4.3-4.2-4.3 c0.1-0.7,0.3-1.5,0.3-2.3c0.1-1.5-0.1-8.2,0-8.1c2.9,1.6,8.1,1.5,9.6,1.3C117.4,220.8,118.9,224.6,121,227.7"/>
<path d="M47.7,227.7c1.9,0.5,3.7,1.2,5.4,2.1c1.3,0.6,3.3,1.3,4.5,1c3.6-0.9,4.2-4.3,4.2-4.3 c-0.1-0.7-0.3-1.5-0.3-2.3c-0.1-1.5,0.1-8.2,0-8.1c-2.9,1.6-8.1,1.5-9.6,1.3C51.3,220.8,49.9,224.6,47.7,227.7"/>
</g>
</g>
</g>
<g id="Gloves">
<g id="Left-Glove">
<g id="Basic_Left_Glove" class="option" style="fill: rgb(55, 47, 35); display: inherit;">
<path d="M137.6,124.1c-0.5,0-1,0-1.6,0.1c-0.4,0.1-0.7,0.2-1,0.3c-1,0.6-0.7,1.8,0.2,2.3c1,0.6,2.6,0,3.1-1.1 C138.5,125.3,137.9,124.5,137.6,124.1"/>
<path d="M135.8,125.2c-0.5,0-1,0-1.6,0.1c-0.4,0.1-0.7,0.2-1,0.3c-1,0.6-0.7,1.8,0.2,2.3c1,0.5,2.6,0,3.1-1.1 C136.7,126.4,136.1,125.6,135.8,125.2"/>
<path d="M134.5,126.6c-0.5,0-1.2,0.1-1.7,0.3c-0.3,0.1-0.7,0.3-1,0.5c-0.9,0.7-0.5,1.9,0.5,2.2 c1.1,0.4,2.6-0.3,2.9-1.5C135.4,127.7,134.5,126.6,134.5,126.6z"/>
<path d="M131.6,110c0,0-1.6,2.1-2,3.7c-0.3,1.1-0.1,3.7-0.5,5.4c-0.4,1.7-0.7,2.7-0.7,2.7s-1.4,2.8-1.1,3.4 c0.2,0.6,1.4,1.2,2.1,0.9c0.9-0.4,1.9-2.4,2.6-3.8c0.7-1.4,1.2-3.4,1.2-3.4s0.9,0.3,1.4,0.7c1.6,1.2,0.9,5,0.9,5 s-0.7,1.3-1.7,2.8c-1.4,2-3.4,3.8-2.1,5.4c1.3,1.5,4.2-2.4,4.2-2.4l2.9-3.7c0,0,3.3-5.4,3.4-6.5c0.1-0.8,0-3.5,0-3.5l-1-10.4 l-5.2,0.4l-4.3,1.4L131.6,110"/>
</g>
</g>
<g id="Right-Glove">
<g id="Basic_Right_Glove" class="option" style="fill: rgb(55, 47, 35); display: inherit;">
<path d="M31.1,124.1c0.5,0,1,0,1.6,0.1c0.4,0.1,0.7,0.2,1,0.3c1,0.6,0.7,1.8-0.2,2.3c-1,0.6-2.6,0-3.1-1.1 C30.3,125.3,30.9,124.5,31.1,124.1"/>
<path d="M32.9,125.2c0.5,0,1,0,1.6,0.1c0.4,0.1,0.7,0.2,1,0.3c1,0.6,0.7,1.8-0.2,2.3c-1,0.5-2.6,0-3.1-1.1 C32.1,126.4,32.7,125.6,32.9,125.2"/>
<path d="M34.2,126.6c0.5,0,1.2,0.1,1.7,0.3c0.3,0.1,0.7,0.3,1,0.5c0.9,0.7,0.5,1.9-0.5,2.2c-1.1,0.4-2.6-0.3-2.9-1.5 C33.3,127.7,34.2,126.6,34.2,126.6z"/>
<path d="M37.1,110c0,0,1.5,2.1,2,3.7c0.3,1.1,0.1,3.7,0.5,5.4c0.4,1.7,0.7,2.7,0.7,2.7s1.4,2.8,1.1,3.4 c-0.2,0.6-1.4,1.2-2.1,0.9c-0.9-0.4-1.9-2.4-2.6-3.8c-0.7-1.4-1.2-3.4-1.2-3.4s-0.9,0.3-1.4,0.7c-1.6,1.2-0.9,5-0.9,5 s0.7,1.3,1.7,2.8c1.4,2,3.4,3.8,2.1,5.4c-1.3,1.5-4.2-2.4-4.2-2.4l-2.9-3.7c0,0-3.3-5.4-3.4-6.5c-0.1-0.8,0-3.5,0-3.5l1-10.4 l5.2,0.4l4.3,1.4L37.1,110"/>
</g>
</g>
</g>
<g id="Biceps">
<g id="Left-Biceps">
<g id="Basic_Biceps_Left" class="option" style="display: inherit;">
<path id="Main_Basic_Biceps_Left" d="M133.5,52c-1.1-2.7-6.2-14.8-6.2-14.8s-8.3,3.4-10.4,4.3 c-0.6,0.2-0.9,0.9-0.6,1.5c1,2.4,3.4,8.1,4.8,11.7c0.3,0.8,1,1.5,1.8,1.8c0.8,0.3,1.7,0.3,2.5,0c2.4-1,5.7-2.4,7.4-3 C133.5,53.2,133.8,52.6,133.5,52" style="fill: rgb(63, 31, 28);"/>
<path id="Strap_Basic_Biceps_Left" d="M118.6,48.3l-5.8,2.4l-0.1,4.3l7.4-3.1L118.6,48.3" style="fill: rgb(60, 40, 11);"/>
<path id="Trauma-Plate_Basic_Biceps_Left" class="toggle" style="fill: rgb(96, 46, 41);" d="M133.5,51.4l-5.3-12.7l-10.1,4.2l4.6,11.2 c0.2,0.4,0.5,0.7,0.9,0.9s0.8,0.2,1.2,0L133.5,51.4"/>
</g>
</g>
<g id="Right-Biceps">
<g id="None_Biceps_Right" class="option" style="display: inherit;">
</g>
</g>
</g>
<g id="Vest" style="fill: rgb(90, 77, 50);">
<path d="M84.4,20.9c8.4,0,15.3-4.3,15.5-8h0.1l18.3,5.4l13.2,23.9l-2.8,1.2l-13.3-8.6l-2.3,3.7l-1.5,47.4 c0,0-8.7,4.7-13.4,5.3c-3.4,0.5-8.6,0.7-13.7,0.7s-10.3-0.2-13.7-0.7c-4.8-0.6-13.4-5.3-13.4-5.3l-1.5-47.4l-2.3-3.7l-13.3,8.6 l-2.8-1.2l13.2-23.9L69,12.9h0.1C69,16.6,75.9,20.9,84.4,20.9"/>
</g>
<g class="swappable" id="Chest">
<g id="Chest_Classic" style="visibility: visible;">
<g id="Abdomen_Classic">
<path id="Abdomen-Plate_Classic" d="M71,79.4l-7.3-3L63,69.7l5.7-1.9l4.8-9.6l10.9-3.5l10.9,3.5l4.8,9.6l5.7,1.9 l-0.7,6.7l-7.3,3l-13.4-0.3L71,79.4" style="fill: rgb(63, 31, 28);"/>
<path id="Trauma-Plate_Abdomen_Classic" class="toggle" style="fill: rgb(96, 46, 41);" d="M94.2,59.5l-9.7-3.1l-9.7,3.1l-4.5,9c-0.2,0.4-0.5,0.7-1,0.8 l-4.4,1.5l0.4,4.5l6,2.5l13.1-0.3h0.1l13.1,0.3l6-2.5l0.4-4.5l-4.4-1.5c-0.4-0.1-0.8-0.4-1-0.8L94.2,59.5"/>
</g>
<g id="Iron-Heart_Classic">
<path id="Heart_Classic" d="M81.8,42.6v-9.1l2.7-2.1l2.7,2.1v9.1l-2.7,2.7L81.8,42.6" style="fill: rgb(96, 46, 41);"/>
<path id="Center_Heart_Classic" class="option" d="M85.4,34.9h-1.9v6.3h1.9V34.9" style="fill: rgb(113, 41, 34); display: inherit;"/>
</g>
<g id="Chest-Plates_Classic">
<g id="Left-Chest_Classic">
<path id="Chest_Left_Classic" d="M108.9,25.5l-22.3,2.7l-0.3,2l2.8,2.7L89,44.2l-2.5,2.4v3.7l9.6,2.7l3.8,8.7 l4.3,3.5l4.7-23.9l2.5-1.3L108.9,25.5" style="fill: rgb(63, 31, 28);"/>
<path id="Trauma-Plating_Left-Chest_Classic" class="toggle" style="fill: rgb(96, 46, 41);" d="M88,29.6l19.6-2.4l2.1,11.9l-2.2,1.1l-4.3,22.1l-1.9-1.6 l-4-9l-9.2-2.6v-1.9l2.5-2.4l0.2-12.6L88,29.6"/>
</g>
<g id="Right-Chest_Classic">
<path id="Chest_Right_Classic" d="M60.1,25.5l22.3,2.7l0.2,2.1L79.8,33L80,44.2l2.5,2.4v3.7L72.9,53l-3.8,8.7 l-4.3,3.5l-4.7-23.9L57.6,40L60.1,25.5" style="fill: rgb(96, 46, 41);"/>
<path id="Trauma-Plating_Right-Chest_Classic" class="toggle" style="display: none; fill: rgb(255, 255, 255);" d="M81,29.6l-19.6-2.4l-2.1,11.9l2.2,1.1l4.3,22.1l1.9-1.6 l4-9l9.2-2.6v-1.9l-2.5-2.4l-0.2-12.6L81,29.6"/>
</g>
</g>
<g id="Neck-Armor_Classic">
<path id="Neck-Plate_Classic" d="M74,24.1l-13.9-1.5l-2.5-7.7l11.5-3.4c0,0,1.5,2.6,2.6,3.5c1.1,0.9,2.6,2,4.1,2.6 c1.5,0.7,3.4,1.1,5.2,1.4c2,0.3,5,0.3,7,0c1.8-0.3,3.9-0.7,5.4-1.4c1.4-0.6,2.7-1.7,3.9-2.6c1.1-0.9,2.6-3.5,2.6-3.5l11.5,3.4 l-2.5,7.7L95,24.1l-10.5,1.4L74,24.1" style="fill: rgb(96, 46, 41);"/>
<path id="Trauma-Plates_Neck_Classic" class="toggle" style="display: none; fill: rgb(255, 255, 255);" d="M82.5,24L74,22.9l-12.8-2.4l-1.5-4.6l8.2-2.5 c0,0,2.4,2.5,3.5,3.4c1.1,0.9,3,1.7,4.4,2.3c1.5,0.7,3.4,1.1,5.2,1.4c0.5,0.1,1,0.1,1.5,0.2V24 M86.5,20.7c0.5,0,1-0.1,1.5-0.2 c1.8-0.3,3.9-0.7,5.4-1.4c1.4-0.6,3.2-1.6,4.4-2.5c1.1-0.9,2.9-3.4,2.9-3.4l8.6,2.6l-1.5,4.6L95,22.9L86.5,24V20.7"/>
</g>
</g>
</g>
<g id="Chest-Attachments">
<g id="No-Device_Accessories_Chest" class="option" style="display: inherit;">
</g>
</g>
<g id="Collar">
<g id="None_Collar" class="option" style="display: inherit;">
</g>
</g>
<svg version="1.1" id="Helmets" xmlns="http://www.w3.org/2000/svg" y="-54px" height="85px" viewBox="0 0 80 80" class="swappable">
<g id="Helmet_McQuarrie" style="visibility: visible;">
<g id="Left-Earcap_McQuarrie" class="toggle">
<path id="Base_Earcap_Left_McQuarrie" d="M60.2,34.9c0-0.3-0.2-0.5-0.5-0.5h-1v3.8h1.5V34.9z" style="fill: rgb(96, 46, 41);"/>
<rect id="Shaft_Earcap_Left_McQuarrie" x="58.6" y="8" width="1.1" height="26.4" style="fill: rgb(96, 46, 41);"/>
<g id="Finder_Earcap_Left_McQuarrie" style="fill: rgb(47, 81, 50);">
<rect x="59.8" y="9.4" width="7" height="2.3"/>
<path d="M66.4,9h-6.7v0.5h7L66.4,9z"/>
<path d="M65.3,12.8h-5.5v-1.1h7L65.3,12.8z"/>
</g>
<path id="Accent_Earcap_Left_McQuarrie" d="M66.1,10.6c0-0.1,0-0.1-0.1-0.2c-0.1-0.1-0.1-0.1-0.2-0.1h-5.2 c-0.1,0-0.1,0-0.2,0.1c-0.1,0.1-0.1,0.1-0.1,0.2c0,0.1,0,0.1,0.1,0.2c0.1,0.1,0.1,0.1,0.2,0.1h5.2c0.1,0,0.1,0,0.2-0.1 C66.1,10.7,66.1,10.7,66.1,10.6z" style="fill: rgb(41, 91, 96);"/>
</g>
<g id="Right-Earcap_McQuarrie" class="toggle" style="display:none"/>
<g id="Helmet_Pieces_McQuarrie">
<path id="Mouth-2_McQuarrie" d="M40,52.1l8.6,0.8l1.2,11.8c0,0-6.5,0.8-9.8,0.8s-9.8-0.8-9.8-0.8l1.2-11.8L40,52.1z" style="fill: rgb(96, 46, 41);"/>
<g id="Mouth-1_McQuarrie" style="fill: rgb(54, 50, 92);">
<g>
<path d="M34.3,57.7c2.3-0.3,4.3,1.1,4.4,3.1c0.1,2-1.6,3.8-3.9,4.1c-2.3,0.3-4.3-1.1-4.4-3.1 C30.3,59.9,32,58,34.3,57.7z"/>
<path d="M33,59.4c2.1-1.2,4.8-0.8,6.1,0.9c1.2,1.7,0.5,4.1-1.6,5.4c-2.1,1.2-4.8,0.8-6.1-0.9 C30.2,63,30.9,60.6,33,59.4z"/>
<path d="M33.2,59.6c2.1-1.2,4.7-0.8,5.9,0.9c1.2,1.7,0.5,4.1-1.6,5.4c-2.1,1.2-4.7,0.8-5.9-0.9 C30.4,63.2,31.1,60.8,33.2,59.6z"/>
<path d="M33.5,60.3c2.1-1.3,4.7-0.9,5.9,0.9c1.2,1.8,0.5,4.2-1.6,5.5c-2.1,1.3-4.7,0.9-5.9-0.9 C30.7,64,31.4,61.5,33.5,60.3z"/>
<path d="M33.8,60.7c1.8-1.1,4.1-0.7,5.1,0.8s0.4,3.6-1.3,4.7c-1.8,1.1-4.1,0.7-5.1-0.8C31.4,63.9,32,61.8,33.8,60.7 z"/>
<path d="M33.6,60.6c1.6-1,3.7-0.6,4.7,0.7c0.9,1.3,0.4,3.2-1.2,4.1c-1.6,1-3.7,0.6-4.7-0.7 C31.5,63.4,32,61.6,33.6,60.6z"/>
<path d="M34.1,61.1c1.2-0.7,2.8-0.5,3.5,0.5c0.7,1,0.3,2.4-0.9,3.1c-1.2,0.7-2.8,0.5-3.5-0.5 C32.5,63.2,32.9,61.8,34.1,61.1z"/>
</g>
<g>
<path d="M45.7,57.7c-2.3-0.3-4.3,1.1-4.4,3.1c-0.1,2,1.6,3.8,3.9,4.1c2.3,0.3,4.3-1.1,4.4-3.1 C49.7,59.9,48,58,45.7,57.7z"/>
<path d="M47,59.4c-2.1-1.2-4.8-0.8-6.1,0.9c-1.2,1.7-0.5,4.1,1.6,5.4c2.1,1.2,4.8,0.8,6.1-0.9 C49.8,63,49.1,60.6,47,59.4z"/>
<path d="M46.8,59.6c-2.1-1.2-4.7-0.8-5.9,0.9c-1.2,1.7-0.5,4.1,1.6,5.4c2.1,1.2,4.7,0.8,5.9-0.9 C49.6,63.2,48.9,60.8,46.8,59.6z"/>
<path d="M46.5,60.3c-2.1-1.3-4.7-0.9-5.9,0.9c-1.2,1.8-0.5,4.2,1.6,5.5c2.1,1.3,4.7,0.9,5.9-0.9 C49.3,64,48.6,61.5,46.5,60.3z"/>
<path d="M46.2,60.7c-1.8-1.1-4.1-0.7-5.1,0.8s-0.4,3.6,1.3,4.7c1.8,1.1,4.1,0.7,5.1-0.8 C48.6,63.9,48,61.8,46.2,60.7z"/>
<path d="M46.4,60.6c-1.6-1-3.7-0.6-4.7,0.7c-0.9,1.3-0.4,3.2,1.2,4.1c1.6,1,3.7,0.6,4.7-0.7 C48.6,63.4,48,61.6,46.4,60.6z"/>
<path d="M45.9,61.1c-1.2-0.7-2.8-0.5-3.5,0.5c-0.7,1-0.3,2.4,0.9,3.1c1.2,0.7,2.8,0.5,3.5-0.5 C47.6,63.2,47.2,61.8,45.9,61.1z"/>
</g>
<g>
<rect x="35.9" y="52.1" width="8.3" height="3.2"/>
<rect x="36.3" y="55.3" width="7.4" height="0.8"/>
<rect x="35.9" y="56.1" width="8.3" height="1.6"/>
</g>
</g>
<path id="Nose-2_McQuarrie" d="M40,41.5c0.4,0,0.9,1.6,2.2,1.9v9.5c0,0-0.4-0.2-0.9-0.3c-0.4-0.1-1.2,0-1.3,0h-1.3 c-0.4,0.1-0.9,0.3-0.9,0.3v-9.5C39.1,43.1,39.6,41.5,40,41.5z" style="fill: rgb(54, 50, 92);"/>
<path id="Nose-1_McQuarrie" d="M39.4,44.8c0-0.3,0.3-0.6,0.6-0.6s0.6,0.3,0.6,0.6v7h-1.2V44.8z" style="fill: rgb(47, 81, 50);"/>
<g id="Face-2_McQuarrie" style="fill: rgb(47, 81, 50);">
<path d="M51.7,64.3c0,0,3.4-1,5.2-1.5c1.9-0.5,2.4-1.7,2.4-1.7V48.6l-6.1,3.2C50.2,57.2,51.6,64.1,51.7,64.3z"/>
<path d="M28.3,64.3c0,0-3.4-1-5.2-1.5c-1.9-0.5-2.4-1.7-2.4-1.7V48.6l6.1,3.2C29.8,57.2,28.4,64.1,28.3,64.3z"/>
<rect x="59.3" y="41.3" width="1.5" height="19.4"/>
<rect x="19.2" y="41.3" width="1.5" height="19.4"/>
</g>
<ellipse id="Face-1_McQuarrie" cx="27.1" cy="59.9" rx="0.5" ry="0.8" style="fill: rgb(41, 91, 96);"/>
<g id="Cheeks_McQuarrie" style="fill: rgb(38, 62, 40);">
<path d="M53.1,51.8l6.1-3.2v-6.8c-0.8,0.3-1.7,0.6-2.3,0.9c-1.4,0.7-3.7,2-4.5,2.6c-0.8,0.6-0.8,1.5-0.8,1.5 L53.1,51.8z"/>
<path d="M51.7,46.8c0,0.1-1.3,4.2-1.5,5.7c-0.6,5.6,0.7,12.4,0.7,12.4l0.8-0.6c0,0-1.5-7,1.5-12.5L51.7,46.8z"/>
<path d="M26.9,51.8l-6.1-3.2v-6.8c0.8,0.3,1.7,0.6,2.3,0.9c1.4,0.7,3.7,2,4.5,2.6c0.8,0.6,0.8,1.5,0.8,1.5L26.9,51.8 z"/>
<path d="M28.3,46.8c0,0.1,1.3,4.2,1.5,5.7c0.6,5.6-0.7,12.4-0.7,12.4l-0.8-0.6c0,0,1.5-7-1.5-12.5L28.3,46.8z"/>
</g>
<g id="Eyes_McQuarrie" style="fill: rgb(87, 34, 29);">
<g>
<path d="M51.7,46.8l-9.5-2.6v8.7c0,0,1.1,0.8,2.1,0.8c1.1,0,2.9-0.8,3.5-0.2c0.7,0.6,0.9,2.2,0.8,3.8 c-0.1,1.6,0.6,6.1,1,7.6l0.6,0.2l0.5-0.2v-0.1c-0.1-0.3-1.3-7-0.7-12.4C50.3,51.1,51.5,47.3,51.7,46.8z M51.7,46.8L51.7,46.8z"/>
<path d="M28.4,46.8l9.5-2.6v8.7c0,0-1.1,0.8-2.1,0.8c-1.1,0-2.9-0.8-3.5-0.2c-0.7,0.6-0.9,2.2-0.8,3.8 c0.1,1.6-0.6,6.1-1,7.6l-0.6,0.2l-0.5-0.2v-0.1c0.1-0.3,1.3-7,0.7-12.4C29.7,51.1,28.5,47.3,28.4,46.8z M28.3,46.8L28.3,46.8z"/>
</g>
<path d="M37.8,43.4v0.8l-9.5,2.6c0,0,0-0.9-0.8-1.5c-0.8-0.6-3.1-2-4.5-2.6c-1.2-0.6-4.1-1.4-4.1-1.4v-3H61v3 c0,0-2.9,0.8-4.1,1.4c-1.4,0.7-3.7,2-4.5,2.6c-0.8,0.6-0.8,1.5-0.8,1.5l-9.5-2.6v-0.8c3.4,0.2,17.3-3.1,17.3-3.1s0.7-0.2,0.7-0.8 S59.4,39,59.4,39l-10.1,0.8L40,40.3l-9.4-0.4l-10.1-0.8c0,0-0.7-0.1-0.7,0.5c0,0.6,0.7,0.8,0.7,0.8S34.4,43.6,37.8,43.4 M42,43.4 c0.1,0,0.1,0,0.2,0.1C42.1,43.4,42,43.4,42,43.4 M38,43.4c-0.1,0-0.1,0-0.2,0.1C37.9,43.4,38,43.4,38,43.4 M38.2,43.3 C38.2,43.3,38.1,43.3,38.2,43.3 M39.3,42.3C39.3,42.3,39.2,42.3,39.3,42.3C39.2,42.3,39.3,42.3,39.3,42.3 M39.5,42 c0,0.1-0.1,0.1-0.1,0.2C39.4,42.1,39.4,42.1,39.5,42 M40.5,42c0.1,0.1,0.1,0.2,0.1,0.2C40.6,42.1,40.6,42,40.5,42 M39.8,41.7 L39.8,41.7C39.7,41.8,39.7,41.7,39.8,41.7 M40.3,41.7l0.1,0.1C40.3,41.8,40.3,41.7,40.3,41.7 M39.9,41.5 C39.9,41.5,39.9,41.6,39.9,41.5C39.9,41.6,39.9,41.5,39.9,41.5 M40.1,41.5C40.1,41.5,40.1,41.6,40.1,41.5 C40.1,41.6,40.1,41.5,40.1,41.5"/>
</g>
<path id="Visor_McQuarrie" d="M40,40.3l9.4-0.4l10.1-0.8c0,0,0.7-0.1,0.7,0.5c0,0.6-0.7,0.8-0.7,0.8 s-13.8,3.3-17.3,3.1c-0.1,0-0.2,0-0.2-0.1c0,0-0.1,0-0.1-0.1c-0.3-0.2-0.6-0.4-0.9-0.7c0-0.1-0.1-0.1-0.1-0.2 c-0.1-0.1-0.1-0.1-0.2-0.2c0-0.1-0.1-0.1-0.1-0.2l-0.1-0.1c0,0,0-0.1-0.1-0.1l-0.2-0.2c0,0-0.1-0.1-0.2-0.1s-0.1,0-0.2,0.1 L39.4,42c0,0.1-0.1,0.1-0.1,0.2c0,0.1-0.1,0.1-0.2,0.2c0,0.1-0.1,0.1-0.1,0.2c-0.2,0.3-0.5,0.6-0.9,0.7c0,0-0.1,0-0.1,0.1 c-0.1,0-0.1,0.1-0.2,0.1c-3.4,0.2-17.3-3.1-17.3-3.1s-0.7-0.2-0.7-0.8c0-0.6,0.7-0.5,0.7-0.5l10.1,0.8L40,40.3z" style="fill: rgb(0, 0, 0);"/>
<path id="Dome-2_McQuarrie" d="M21.4,34.6c0-9.5,8.3-17.2,18.6-17.2s18.6,7.7,18.6,17.2v3.6H21.4V34.6z" style="fill: rgb(72, 29, 25);"/>
<path id="Dome-1_McQuarrie" d="M40,36.3l-0.8-3.4h1.6L40,36.3z" style="fill: rgb(41, 91, 96);"/>
</g>
</g>
</svg>
<g id="Shoulders">
<g id="Left-Shoulder">
<g id="Legacy-x3_Shoulder_Left" class="option" style="display: inherit;">
<path id="Plate-3_Shoulder_Left_Legacy-x3" d="M119.2,19.5l-7.3,7.5l4.3,9.2l9.6-0.5l5.1,4.7l4.5-0.3L119.2,19.5" style="fill: rgb(96, 46, 41);"/>
<path id="Trauma-Plate-3_Shoulder_Legacy-x3_Left" class="toggle" style="display: none; fill: rgb(255, 255, 255);" d="M131.5,38.6l2.9-0.2l-13.9-17.8l-6.5,6.7l3.3,7.2 l8.8-0.6L131.5,38.6"/>
<path id="Plate-2_Shoulder_Left_Legacy-x3" d="M115.3,14.9l-5.8,8.7l5.9,8.3l9.3-2.3l5.9,3.6L135,32L115.3,14.9" style="fill: rgb(47, 81, 50);"/>
<path id="Trauma-Plate-2_Shoulder_Legacy-x3_Left" class="toggle" style="fill: rgb(85, 37, 33);" d="M130.9,31.4l2.8-0.7l-17-14.9l-5.2,7.7l4.6,6.4 l8.6-2.2L130.9,31.4"/>
<path id="Plate-1_Shoulder_Left_Legacy-x3" d="M108.2,10.4l-2.6,10.1l8.3,5.9l8.1-5.2l6.7,1.5l3.8-2.5L108.2,10.4" style="fill: rgb(96, 46, 41);"/>
<path id="Trauma-Plate-1_Shoulder_Legacy-x3_Left" class="toggle" style="display: none; fill: rgb(255, 255, 255);" d="M128.3,20.9l2.4-1.6l-21-8.5l-2.3,9l6.4,4.6l7.4-4.9 L128.3,20.9"/>
</g>
</g>
<g id="Right-Shoulder">
<g id="Legacy-x2_Shoulder_Right" class="option" style="display: inherit;">
<path id="Plate-2_Shoulder_Right_Legacy-x2" d="M53.7,14.9l5.8,8.7l-5.9,8.3l-9.3-2.3l-6,3.6L33.9,32L53.7,14.9" style="fill: rgb(38, 62, 40);"/>
<path id="Trauma-Plate-2_Shoulder_Legacy-x2_Right" class="toggle" style="display: none; fill: rgb(255, 255, 255);" d="M38.1,31.4l-2.8-0.7l17-14.9l5.2,7.7l-4.6,6.4 l-8.6-2.2L38.1,31.4"/>
<path id="Plate-1_Shoulder_Right_Legacy-x2" d="M60.8,10.4l2.6,10.1l-8.3,5.9L47,21.2l-6.7,1.5l-3.8-2.5L60.8,10.4" style="fill: rgb(47, 81, 50);"/>
<path id="Trauma-Plate-1_Shoulder_Legacy-x2_Right" class="toggle" style="display: none; fill: rgb(255, 255, 255);" d="M40.6,20.9l-2.4-1.6l21-8.5l2.3,9L55,24.4l-7.4-4.9 L40.6,20.9"/>
</g>
</g>
</g>
<g id="Gauntlets">
<g id="Left-Gauntlets">
<g id="Heavy_Gauntlet_Left" class="option" style="display: inherit;">
<g id="Top-2_Heavy_Gauntlet_Left" style="fill: rgb(47, 81, 50);">
<path d="M139.8,78.9l1.7,0.1l1.4,8.1l-1.5,1.2L139.8,78.9"/>
<path d="M141.4,87.6l1.8,10.6l-0.9,1.3l1.1,6.2L143,106l-3.1-17L141.4,87.6"/>
<path d="M141.4,84.6c0.2,0,0.4,0.2,0.4,0.4s-0.2,0.4-0.4,0.4c-0.2,0-0.4-0.2-0.4-0.4S141.2,84.6,141.4,84.6"/>
</g>
<g id="Top-1_Heavy_Gauntlet_Left" style="fill: rgb(96, 46, 41);">
<path d="M138.5,107.2l4.3-1.2l-3.1-17l1.5-1.4l-1.6-9.3l-6.6-0.7L138.5,107.2"/>
<path d="M138,78.2l1.8,10.8"/>
</g>
<g id="Accent-Top_Heavy_Gauntlet_Left" style="fill: rgb(76, 28, 23);">
<path d="M141.6,103.4l-2.8,0.6l0.4,2.1l2.8-0.7L141.6,103.4"/>
<path d="M139.9,94.4l-2.8,0.6l1.6,8.4l2.8-0.6L139.9,94.4"/>
<path d="M137.4,78.8l-3.1-0.2l1.6,9.2l2.9-0.6L137.4,78.8"/>
</g>
<path id="Bottom_Heavy_Gauntlet_Left" d="M133.2,78.1c-3.4,0.1-6.8,1.6-9,4.4c-0.7,0.9-0.9,2.1-0.6,3.2 c1.6,5.3,7,22.8,7,22.8l7.9-1.4L133.2,78.1" style="fill: rgb(96, 46, 41);"/>
<g id="Accent-Bottom_Heavy_Gauntlet_Left" style="fill: rgb(54, 50, 92);">
<path d="M138.5,107.2l-7.9,1.4l-0.4-1.4l8.1-1.5L138.5,107.2"/>
<path d="M133.6,80.1c-4.3,0.4-7.9,2-9.6,6.7l-0.3-1c-0.3-0.9-0.2-1.8,0.2-2.6l0.4-0.7c2.2-2.8,5.6-4.2,9-4.4 L133.6,80.1"/>
<path d="M132.5,78.8l-3.5,0.7l2.8,13.9l3.5-0.7L132.5,78.8"/>
<path d="M132.1,79.1l-2.6,0.5l2.5,12.8l2.6-0.5L132.1,79.1"/>
<path d="M129.5,79.6l-0.5-0.2"/>
<path d="M132.5,78.8l-0.4,0.3"/>
<path d="M135.2,92.7l-0.6-0.7"/>
<path d="M131.7,93.4l0.4-0.9"/>
</g>
<g id="Flamethrower_Attachment_Heavy_Gauntlet_Left" class="option" style="display: inherit;">
<g id="Tubes_Flamethrower_Attachment_Heavy_Gauntlet_Left" style="fill: rgb(0, 0, 0);">
<path d="M141.3,79.1l-0.8,0.1l4.3,24.9l0.8-0.1L141.3,79.1"/>
<path d="M143.2,78.8l-0.8,0.1l3.1,17.8l0.8-0.1L143.2,78.8"/>
<path d="M141.8,80.6l-1.2,0.2l1,5.9l1.2-0.2L141.8,80.6"/>
<path d="M143.6,80.3l-1.1,0.2l1,5.9l1.1-0.2L143.6,80.3"/>
</g>
<g id="Main_Flamethrower_Attachment_Heavy_Gauntlet_Left" style="fill: rgb(96, 46, 41);">
<path d="M143.4,78.3l-3.4,0.6l0.3,1.9l3.4-0.6L143.4,78.3"/>
<path d="M144.9,86.2l-3.5,0.6l0.2,0.9l3.5-0.6L144.9,86.2"/>
<path d="M144.9,87.1l-3.2,0.6l0.1,0.5l3.2-0.6L144.9,87.1"/>
<path d="M141.6,86.1l-0.5,0.1l0.5,2.9l0.5-0.1L141.6,86.1"/>
</g>
<g id="Accent_Flamethrower_Attachment_Heavy_Gauntlet_Left" style="fill: rgb(54, 50, 92);">
<path d="M146.3,96.6l-0.9,0.2l0.1,1.2l1.1-0.2L146.3,96.6"/>
<path d="M145.5,90.2l-1.6,0.3l0.3,1.9l1.6-0.3L145.5,90.2"/>
<path d="M145.6,92.1l-1.1,0.2l0.3,1.9l1.1-0.2L145.6,92.1"/>
<path d="M145.2,100.8l-1.1,0.2l0.4,2.6l1.1-0.2L145.2,100.8"/>
<path d="M143.8,92.4l-1.1,0.2l0.6,3.5l1.1-0.2L143.8,92.4"/>
<path d="M145.7,102l-1.6,0.3l0.1,0.5l1.6-0.3L145.7,102"/>
</g>
<path id="Base_Flamethrower_Attachment_Heavy_Gauntlet_Left" d="M141.1,86.2l-1.4-7.8l1,0.2l2.3,13.3l-0.9,0.6 l-0.6-3.3l0.5-0.1l-0.5-2.9H141.1" style="fill: rgb(38, 62, 40);"/>
</g>
</g>
</g>
<g id="Right-Gauntlets">
<g id="Heavy_Gauntlet_Right" class="option" style="display: inherit;">
<g id="Top-2_Heavy_Gauntlet_Right" style="fill: rgb(47, 81, 50);">
<path d="M29.3,78.9L27.6,79l-1.4,8.1l1.5,1.2L29.3,78.9"/>
<path d="M27.8,87.6L26,98.2l0.9,1.3l-1.1,6.2l0.4,0.3l3.1-17L27.8,87.6"/>
<path d="M27.7,84.6c-0.2,0-0.4,0.2-0.4,0.4s0.2,0.4,0.4,0.4c0.2,0,0.4-0.2,0.4-0.4S28,84.6,27.7,84.6"/>
</g>
<g id="Top-1_Heavy_Gauntlet_Right" style="fill: rgb(96, 46, 41);">
<path d="M30.6,107.2l-4.3-1.2l3.1-17l-1.5-1.4l1.6-9.3l6.6-0.7L30.6,107.2"/>
<path d="M31.1,78.2L29.3,89"/>
</g>
<g id="Accent-Top_Heavy_Gauntlet_Right" style="fill: rgb(76, 28, 23);">
<path d="M27.5,103.4l2.8,0.6l-0.4,2.1l-2.8-0.7L27.5,103.4"/>
<path d="M29.2,94.4L32,95l-1.6,8.4l-2.8-0.6L29.2,94.4"/>
<path d="M31.7,78.8l3.1-0.2l-1.6,9.2l-2.9-0.6L31.7,78.8"/>
</g>
<path id="Bottom_Heavy_Gauntlet_Right" d="M35.9,78.1c3.3,0.1,6.8,1.6,9,4.4c0.7,0.9,0.9,2.1,0.6,3.2 c-1.6,5.3-7,22.8-7,22.8l-7.9-1.4L35.9,78.1" style="fill: rgb(96, 46, 41);"/>
<g id="Accent-Bottom_Heavy_Gauntlet_Right" style="fill: rgb(54, 50, 92);">
<path d="M30.6,107.2l7.9,1.4l0.4-1.4l-8.1-1.5L30.6,107.2"/>
<path d="M35.5,80.1c4.3,0.4,7.9,2,9.6,6.7l0.3-1c0.3-0.9,0.2-1.8-0.2-2.6l-0.4-0.7c-2.2-2.8-5.6-4.2-9-4.4 L35.5,80.1"/>
<path d="M36.6,78.8l3.5,0.7l-2.8,13.9l-3.5-0.7L36.6,78.8"/>
<path d="M37.1,79.1l2.6,0.5l-2.5,12.8l-2.6-0.5L37.1,79.1"/>
<path d="M39.6,79.6l0.5-0.2"/>
<path d="M36.6,78.8l0.4,0.3"/>
<path d="M33.9,92.7l0.6-0.7"/>
<path d="M37.4,93.4L37,92.5"/>
</g>
<g id="Whistling-Birds_Attachment_Heavy_Gauntlet_Right" class="option" style="display: inherit;">
<path id="Head_Whistling-Birds_Attachment_Heavy_Gauntlet_Right" d="M23.8,92.7l2.1,5.5l0.9-5L23.8,92.7" style="fill: rgb(96, 46, 41);"/>
<g id="Birds_Whistling-Birds_Attachment_Heavy_Gauntlet_Right" style="fill: rgb(24, 190, 223);">
<path d="M26.3,93.5c-0.1,0-0.3,0.2-0.3,0.5c-0.1,0.3,0,0.6,0.1,0.6s0.3-0.2,0.3-0.5C26.4,93.8,26.4,93.5,26.3,93.5 "/>
<path d="M26,95.1c-0.1,0-0.3,0.2-0.3,0.5c-0.1,0.3,0,0.6,0.1,0.6c0.1,0,0.3-0.2,0.3-0.5 C26.2,95.4,26.1,95.1,26,95.1"/>
<path d="M25.5,93.3c-0.1,0-0.3,0.2-0.3,0.5c-0.1,0.3,0,0.6,0.1,0.6c0.1,0,0.3-0.2,0.3-0.5 C25.6,93.6,25.6,93.4,25.5,93.3"/>
<path d="M25.7,97.6c0-0.1,0.1-0.2,0.1-0.3c0.1-0.3,0-0.6-0.1-0.6c-0.1,0-0.2,0.1-0.2,0.3L25.7,97.6"/>
<path d="M25.1,96c0.1-0.1,0.2-0.3,0.2-0.5c0.1-0.3,0-0.6-0.1-0.6c-0.1,0-0.2,0.2-0.3,0.5L25.1,96"/>
<path d="M24.5,94.3c0.1,0,0.2-0.2,0.3-0.5c0.1-0.3,0-0.6-0.1-0.6c-0.1,0-0.3,0.2-0.3,0.5v0.2L24.5,94.3"/>
</g>
<g id="Base_Whistling-Birds_Attachment_Heavy_Gauntlet_Right" style="fill: rgb(38, 62, 40);">
<path d="M26.6,77.6l2,0.4l-0.2,0.9l-2-0.4L26.6,77.6"/>
<path d="M26.3,78.4l2.2,0.4L26,93.1l-2.2-0.4L26.3,78.4"/>
<path d="M26,78.5l0.3,0.1l-2.1,12.3l-0.3-0.1L26,78.5"/>
<path d="M26.7,78.5l0.3,0.1l-2.3,13.3l-0.3-0.1L26.7,78.5"/>
</g>
<g id="Accent_Whistling-Birds_Attachment_Heavy_Gauntlet_Right" style="fill: rgb(54, 50, 92);">
<path d="M28.7,77.7l0.8,0.1L27,92.3l-0.8-0.1L28.7,77.7"/>
<path d="M23.8,91.8l3.2,0.6l-0.2,0.9l-3.2-0.6L23.8,91.8"/>
<path d="M27.3,77.7l1.3,0.2L28.2,80l-1.3-0.2L27.3,77.7"/>
<path d="M27.3,79.8l1,0.2l-0.9,4.9l-0.7-2L27.3,79.8"/>
</g>
</g>
</g>
</g>
</g>
<g id="Shins">
<g id="Left-Shin">
<g id="Heavy-Shnees_Shin_Left" class="option" style="display: inherit;">
<g id="Shin_Heavy-Shnees-Shin_Left" style="fill: rgb(96, 46, 41);">
<path d="M111.3,223.8l4.7-6.1l8.5-1l-6.1-55.6l-24.1,3l12.2,51.5l0.1,5.6L111.3,223.8"/>
<path d="M98,162.9l-2.6-2.1h-1.7c0,0-0.8,4.9-0.6,7.4c0.3,4,4.3,9.1,4.3,9.1l2.7,1.3l3-6.9L98,162.9"/>
<path d="M116.1,168.5l1.6-8.3c0,0,2.4,4.7,2.6,7.2c0.4,4.4-0.5,7.2-0.5,7.2L116.1,168.5"/>
<path d="M116,217.7l8.5-1l-2.1-4.3l-5.8,0.5L116,217.7"/>
<path d="M119.4,212.7l-6.8-36.5"/>
</g>
<g id="Knee_Heavy-Shnees-Shin_Left" style="fill: rgb(47, 81, 50);">
<path d="M113.2,152.7L99.6,155l-2,9.9l10,12.1l9-1.3l2.9-14.9L113.2,152.7"/>
<path d="M99.7,155l2.9,3.5l10.5-1.7l0.2-4.2L99.7,155"/>
<path d="M102.6,158.6l-4.9,6.3l2-9.9L102.6,158.6"/>
<path d="M113.1,156.9l6.4,3.9l-6.2-8.1L113.1,156.9"/>
<path d="M113.1,156.9l3.5,18.8l2.9-14.9L113.1,156.9"/>
<path d="M102.6,158.6l-4.9,6.3l10,12.1L102.6,158.6"/>
</g>
<g id="Straps_Heavy-Shnees-Shin_Left" class="toggle" style="fill: rgb(60, 40, 11);">
<path d="M99.1,185.9l5.2-0.9l0.5,2.3l-5.2,0.9L99.1,185.9"/>
<path d="M99.4,185.6l1.1-0.2l0.6,2.8l-1.1,0.2L99.4,185.6"/>
<path d="M104.4,208.6l5.2-0.9l0.5,2.3l-5.2,0.9L104.4,208.6"/>
<path d="M104.7,208.3l1.1-0.2l0.6,2.8l-1.1,0.2L104.7,208.3"/>
</g>
</g>
</g>
<g id="Right-Shin">
<g id="Heavy-Shnees_Shin_Right" class="option" style="display: inherit;">
<g id="Shin_Heavy-Shnees-Shin_Right" style="fill: rgb(96, 46, 41);">
<path d="M57.4,223.8l-4.7-6.1l-8.5-1l6.1-55.6l24.1,3l-12.3,51.5l-0.1,5.6L57.4,223.8"/>
<path d="M70.7,162.9l2.6-2.1H75c0,0,0.8,4.9,0.6,7.4c-0.3,4-4.3,9.1-4.3,9.1l-2.7,1.3l-3-6.9L70.7,162.9"/>
<path d="M52.7,168.5l-1.6-8.3c0,0-2.4,4.7-2.6,7.2c-0.4,4.4,0.5,7.2,0.5,7.2L52.7,168.5"/>
<path d="M52.8,217.7l-8.5-1l2.1-4.3l5.8,0.5L52.8,217.7"/>
<path d="M49.4,212.7l6.8-36.5"/>
</g>
<g id="Knee_Heavy-Shnees-Shin_Right" style="fill: rgb(96, 46, 41);">
<path d="M55.5,152.7l13.6,2.3l2,9.9l-10,12.1l-9-1.3l-2.9-14.9L55.5,152.7"/>
<path d="M69.1,155l-2.9,3.5l-10.5-1.7l-0.2-4.2L69.1,155"/>
<path d="M66.2,158.6l4.9,6.3l-2-9.9L66.2,158.6"/>
<path d="M55.7,156.9l-6.4,3.9l6.2-8.1L55.7,156.9"/>
<path d="M55.7,156.9l-3.5,18.8l-2.9-14.9L55.7,156.9"/>
<path d="M66.2,158.6l4.9,6.3l-10,12.1L66.2,158.6"/>
</g>
<g id="Straps_Heavy-Shnees-Shin_Right" class="toggle" style="fill: rgb(60, 40, 11);">
<path d="M69.7,185.9l-5.2-0.9l-0.5,2.3l5.2,0.9L69.7,185.9"/>
<path d="M69.4,185.6l-1.1-0.2l-0.6,2.8l1.1,0.2L69.4,185.6"/>
<path d="M64.4,208.6l-5.2-0.9l-0.5,2.3l5.2,0.9L64.4,208.6"/>
<path d="M64,208.3l-1.1-0.2l-0.6,2.8l1.1,0.2L64,208.3"/>
</g>
</g>
</g>
</g>
<g id="Foot">
<g id="Left-Ankle">
<g id="Legacy_Ankle_Left" class="option" style="display: inherit;">
<path id="Plate-2_Legacy-Ankle_Left" d="M125.9,222.2l4.3,3.9l3,3.7l-4.8,1.5l-10.9-2.3l-4-5.3L125.9,222.2" style="fill: rgb(47, 81, 50);"/>
<path id="Plate-1_Legacy-Ankle_Left" d="M106.3,214.9c0,0,4.3,1.9,10.8,1.7c4.4-0.2,6.2-1.3,6.2-1.3l3.7,6.9l-1,3.8 l-15.7-1.2l-3.9-3.3L106.3,214.9" style="fill: rgb(96, 46, 41);"/>
<path id="Trauma-Plate-2_Legacy-Ankle_Left" class="toggle" style="display: none; fill: rgb(255, 255, 255);" d="M126.8,223.1l3.4,3l1.7,2.2l-3.6,1.2l-9.6-2l-1.6-2.1 l8.9,0.7L126.8,223.1"/>
<path id="Trauma-Plate-1_Legacy-Ankle_Left" class="toggle" style="display: none; fill: rgb(255, 255, 255);" d="M107.9,217.3l0.1,3.2l3.1,2.5l13.8,1.1l1-3.8l-1.8-3.3 c-1.2,0.3-4.7,1.4-7,1.4C113.5,218.6,110,217.9,107.9,217.3"/>
</g>
</g>
<g id="Left-Toe">
<g id="None_Toe_Left" class="option" style="display: inherit;">
</g>
</g>
<g id="Right-Ankle">
<g id="Legacy_Ankle_Right" class="option" style="display: inherit;">
<path id="Plate-2_Legacy-Ankle_Right" d="M42.9,222.2l-4.3,3.9l-3,3.7l4.8,1.5l10.9-2.3l4-5.3L42.9,222.2" style="fill: rgb(47, 81, 50);"/>
<path id="Plate-1_Legacy-Ankle_Right" d="M62.4,214.9c0,0-4.3,1.9-10.8,1.7c-4.4-0.2-6.2-1.3-6.2-1.3l-3.7,6.9l1,3.8 l15.7-1.2l3.9-3.3L62.4,214.9" style="fill: rgb(96, 46, 41);"/>
<path id="Trauma-Plate-2_Legacy-Ankle_Right" class="toggle" style="display: none; fill: rgb(255, 255, 255);" d="M41.9,223.1l-3.4,3l-1.7,2.2l3.6,1.2l9.6-2l1.6-2.1 l-8.9,0.7L41.9,223.1"/>
<path id="Trauma-Plate-1_Legacy-Ankle_Right" class="toggle" style="display: none; fill: rgb(255, 255, 255);" d="M60.8,217.3l-0.1,3.2l-3.1,2.5l-13.8,1.1l-1-3.8l1.8-3.3 c1.2,0.3,4.7,1.4,7,1.4C55.3,218.6,58.7,217.9,60.8,217.3"/>
</g>
</g>
<g id="Right-Toe">
<g id="None_Toe_Right" class="option" style="display: inherit;">
</g>
</g>
</g>
<g id="Knees">
<g id="Left-Knee">
<g id="None-(Nih-Plates)_Knee_Left" class="option" style="display: inherit;">
</g>
</g>
<g id="Right-Knee">
<g id="None-(Nih-Plates)_Knee_Right" class="option" style="display: inherit;">
</g>
</g>
</g>
<g id="Thighs">
<g id="Left-Thigh">
<g id="Legacy_Thigh_Left" class="option" style="display: inherit;">
<path id="Plate-3_Legacy-Thigh_Left" d="M97.1,140l1.8,10.6l10.3,1.6l8.3-3.6l0.4-10.8l-9.4,4.4L97.1,140" style="fill: rgb(47, 81, 50);"/>
<path id="Plate-2_Legacy-Thigh_Left" d="M94.9,129.8l1.7,10.1l11.9,2.3l10-4.7l0.5-12.3l-11.3,7.2L94.9,129.8" style="fill: rgb(47, 81, 50);"/>
<path id="Plate-1_Legacy-Thigh_Left" d="M120,115.2l-8.8-7.7l-11.7,1.9l-6.7,11.1l1.7,9.2l13.2,2.7l11.8-7.5 L120,115.2" style="fill: rgb(96, 46, 41);"/>
<path id="Trauma-Plate-3_Legacy-Thigh_Left" class="toggle" style="display: none; fill: rgb(255, 255, 255);" d="M115.9,141.1l-6.7,3.2c-0.3,0.1-0.7,0.2-1,0.1l-8.7-1.7 l1,6l8.5,1.3l6.7-2.9L115.9,141.1"/>
<path id="Trauma-Plate-2_Legacy-Thigh_Left" class="toggle" style="fill: rgb(85, 37, 33);" d="M116.9,129l-8.3,5.3c-0.4,0.2-0.8,0.3-1.2,0.2l-10.1-2 l1,5.5l10.1,1.9l8.4-3.9L116.9,129"/>
<path id="Trauma-Plate-1_Legacy-Thigh_Left" class="toggle" style="display: none; fill: rgb(255, 255, 255);" d="M100.6,111.5l-5.8,9.6l1.3,6.8l11.3,2.3l10.3-6.6l0.4-7.3 l-7.3-6.4L100.6,111.5"/>
<g id="Ridge_Legacy-Thigh_Left" class="toggle" style="display: none; fill: rgb(255, 255, 255);"/>
</g>
</g>
<g id="Right-Thigh">
<g id="Pocket_Thigh_Right" class="option" style="fill: rgb(60, 40, 11); display: inherit;">
<path d="M50.9,124c-0.5,6.5-1.3,12.6-2.3,18.4c-0.2,1.2,0.1,2.3,0.8,3.3c0.7,0.9,1.8,1.5,3,1.6 c5.3,0.4,10.7,1.2,16.1,2.3c0.9,0.2,1.9,0,2.6-0.6c0.7-0.6,1.3-1.4,1.4-2.3c0.9-6.1,2.8-18.4,3.5-23.2c0.2-1.1-0.6-2.1-1.7-2.3 c-2.4-0.4-6.2-1-6.2-1L50.9,124"/>
<path d="M53.4,117.9c-0.8-0.1-1.5,0.3-1.8,1c-0.9,2.4-1.7,6.4-1.1,8.4c0.8,2.6,8.9,17.5,10.9,21.2 c0.3,0.5,0.8,0.9,1.4,0.9c1.2,0.1,3.1,0.4,4.5,0.5c0.7,0.1,1.4-0.4,1.5-1.2c0.7-4.4,2.8-19,3.7-24.6c0.2-1.4,1.2-2.5,2.5-2.9 C74.9,121.4,58.1,118.7,53.4,117.9"/>
<path id="Stitch_Right" d="M53.6,117.9c-1.7-0.2-2.9,6.8-2.4,8.6c0.7,2.3,8.8,17.8,10.6,21.2 c0.3,0.5,0.7,0.8,1.2,0.8l3.5,0.5c0.7,0.1,1.3-0.4,1.4-1c0.6-4,2.9-19.6,3.7-24.7c0.3-1.8,2.2-2.2,2.2-2.2"/>
<path d="M74.4,121.3l-20.9-3.4"/>
</g>
</g>
</g>
<g id="Groin">
<g id="None_Groin" class="option" style="display: inherit;">
</g>
</g>
<g id="Waist">
<g id="Accessories_Waist">
<g id="Kama" class="toggle" style="display:none"/>
<g id="Loin-Cloth" class="toggle" style="">
<path id="Tattered_Loin-Cloth" class="option" d="M97,86.7c-0.1,2.6-0.2,5.3,0,7.9c0.2,2.3,0.6,4.7,0.6,7 c0,1.8-0.6,3.6-0.7,5.4c-0.2,3,0.1,6.2,0.4,9.1c0.7,5.8-1.9,25.3-1.9,25.3l-5.2-4.7l-3.5,8.6l-2.9-5.5l-2.7,4.4l-2-0.8l-1.4,6 l-2.3-4.6l-1.5-5c0,0-0.4-2.4-1.3-6.7c-0.4-1.8-1.3-3.7-1.4-5.5c-0.2-4.7,1.5-9.4,1.7-14.1c0.1-3.8-0.9-7.4-1.3-11.1 c-0.3-3.2-0.8-8.4,1.5-11.1C75.5,88.4,97,86.7,97,86.7z M80.6,135.3c-0.1,0.6-0.3,1.2-0.4,1.8c-0.1,0.4-0.1,0.7-0.1,1.1 c0,0.5,0,1,0.2,1.5c0,0,0.3-0.1,0.4-0.2c0.4-0.2,0.6-0.6,0.7-1c0.3-0.9,0.5-2.6-0.4-3.3L80.6,135.3z M93.9,128.7 c-0.6,0.3-1.5,0.8-1.9,1.3c-0.3,0.4-0.6,0.9-0.7,1.4c-0.1,0.4-0.1,0.7-0.1,1.1c-0.1,1.3,0.7,1.8,1.7,0.8 C93.8,132.4,94.8,129.8,93.9,128.7z" style="fill: rgb(94, 67, 43); display: inherit;"/>
</g>
<g id="Left-Holster" class="toggle" style="">
<g id="Thigh-Plate-Holster_Left" class="option" style="display: inherit;">
<g id="Weapon_Thigh-Plate-Holster-Left">
<g id="Main_Weapon_Thigh-Plate-Holster-Left" style="fill: rgb(40, 40, 47);">
<path d="M116.2,113.4l0.2-3.6h0.6l0.1-2.3h-0.6l0.1-1.2c0-0.4,0.6-0.7,1.2-0.6c1.4,0.1,3.9,0.3,5.3,0.3 c0.6,0,1.1,0.4,1.1,0.8l-0.1,1.2h-0.6l-0.1,2.3h0.6l-0.2,3.6l-1.5-0.1l-0.7,9.9l-4.7-0.3l0.7-9.9L116.2,113.4z"/>
<path d="M123.2,113.4l-0.8-0.1l-0.8,12l-4.7-0.3l0.8-12l-0.8-0.1l0.2-2.7l6.4,0.4L123.2,113.4z"/>
<path d="M122.3,106.9l-3.8-0.2l-0.2,3.7l3.8,0.2L122.3,106.9z"/>
<path d="M118.7,114.1h-0.6l-0.6,9.4h0.6L118.7,114.1z"/>
<path d="M120.4,112.1h-0.6l-0.9,13.2h0.6L120.4,112.1z"/>
<path d="M121.9,114.4h-0.6l-0.7,10.4h0.6L121.9,114.4z"/>
</g>
<g id="Accent_Weapon_Thigh-Plate-Holster-Left" style="fill: rgb(96, 46, 41);">
<path d="M119.7,114.2l-1-0.1l-0.6,9.4l1,0.1L119.7,114.2z"/>
<path d="M121.2,114.3l-1-0.1l-0.7,10.4l1,0.1L121.2,114.3z"/>
<path d="M119.2,106.7h-0.6l-0.2,3.7h0.6L119.2,106.7z"/>
<path d="M122.3,106.9h-0.6l-0.2,3.7h0.6L122.3,106.9z"/>
<path d="M118.9,110.7v0.4l2.7,0.2v-0.4L118.9,110.7z"/>
<path d="M118.8,111.1v0.4l2.7,0.2v-0.4L118.8,111.1z"/>
<path d="M118.9,110.3v0.4l2.7,0.2v-0.4L118.9,110.3z"/>
<path d="M119.2,105.7v0.4l2.7,0.2v-0.4L119.2,105.7z"/>
</g>
</g>
<path id="Holster_Thigh-Plate-Holster-Left" d="M122.6,124.6l-3.3-0.2l-1.9-6.8l-1-0.1l-2,30.2c0,0,2.8,0.2,4.8,0.3 c0.5,0,1-0.1,1.4-0.5c0.4-0.3,0.6-0.8,0.6-1.3C121.5,140.7,122.6,124.6,122.6,124.6z" style="fill: rgb(84, 57, 16);"/>
</g>
</g>
<g id="Right-Holster" class="toggle" style="">
<g id="Hanging-Holster_Right" class="option" style="display: inherit;">
<g id="Weapon_Hanging-Holster-Right">
<g id="Main_Weapon_Hanging-Holster-Right" style="fill: rgb(40, 40, 47);">
<path d="M52.4,122.2l-0.2-3.6h-0.6l-0.1-2.3h0.6l-0.1-1.2c0-0.4-0.5-0.7-1.2-0.6c-1.4,0.1-3.9,0.2-5.3,0.2 c-0.6,0-1.1,0.4-1.1,0.7l0.1,1.2h0.6l0.1,2.3h-0.6l0.2,3.6l1.5-0.1l0.5,10l4.7-0.2l-0.5-10H52.4z"/>
<path d="M45.4,122h0.8l0.6,12l4.7-0.2l-0.6-12h0.8l-0.1-2.7l-6.4,0.3L45.4,122z"/>
<path d="M46.4,115.5l3.8-0.2l0.2,3.7l-3.8,0.2L46.4,115.5z"/>
<path d="M49.9,122.9h0.6l0.5,9.3h-0.6L49.9,122.9z"/>
<path d="M48.2,120.8h0.6l0.4,9.4h-0.6L48.2,120.8z"/>
<path d="M46.7,123h0.6l0.4,9.4h-0.6L46.7,123z"/>
</g>
<g id="Accent_Weapon_Hanging-Holster-Right" style="fill: rgb(96, 46, 41);">
<path d="M49.8,119.4v0.4l-2.7,0.1v-0.4L49.8,119.4z"/>
<path d="M49.8,119.8v0.4l-2.7,0.1v-0.4L49.8,119.8z"/>
<path d="M49.8,119.1v0.4l-2.7,0.1v-0.4L49.8,119.1z"/>
<path d="M49.6,114.4v0.4l-2.7,0.1v-0.4L49.6,114.4z"/>
<path d="M49.6,115.4h0.6l0.2,3.7h-0.6L49.6,115.4z"/>
<path d="M46.4,115.5H47l0.2,3.7h-0.6L46.4,115.5z"/>
<path d="M47.4,123h0.9l0.4,9.4h-0.9L47.4,123z"/>
<path d="M49,122.9h0.9l0.4,9.4h-0.9L49,122.9z"/>
</g>
</g>
<path id="Holster_Hanging-Holster-Right" d="M52.4,136.1l0.8-15.2l-7,11.4l1.6,20.6c1.6,1.7,3.2,1.7,4.8-0.2 L52.4,136.1z" style="fill: rgb(84, 57, 16);"/>
<g id="Straps_Hanging-Holster-Right" style="fill: rgb(60, 40, 11);">
<path d="M79.2,96.5c-7.7,11-15.4,20.3-26,24.5l-0.1,2.6c13.3-5.6,20.4-15.1,28.2-27.1H79.2z"/>
<path d="M52.4,139.2c7.2,5.5,14.9,8.5,24.2,9l-0.7,2.1c-8-0.7-15.5-3.7-23.5-8.9V139.2z"/>
<path d="M52.4,141.3v-2.2c-1.9,0.8-4,0.9-5.7,0.3l0.2,2.2C48.7,142.1,50.8,142.1,52.4,141.3z"/>
</g>
<g id="Buckle_Hanging-Holster-Right" style="fill: rgb(89, 89, 89);">
<path d="M69.2,148l1,0.1v0.3l-1-0.2V148"/>
<path d="M71.9,107.6l0.7-0.9l0.3,0.2l-0.7,0.9L71.9,107.6"/>
<path d="M72.2,107.8l1.1,0.9l2.7-3.3l-2.6-2.1l-2.7,3.3l1.2,1l0.6-0.8l-0.6-0.5l1.5-1.8l1.4,1.2l-1.5,1.8l-0.6-0.5 L72.2,107.8"/>
<path d="M69.2,148l0.8,0.1l0.1-0.8l1.9,0.4l-0.3,1.8l-1.9-0.4l0.1-0.7l-0.8-0.1l-0.2,1.4l3.5,0.7l0.5-3.3l-3.5-0.7 L69.2,148"/>
</g>
</g>
</g>
</g>
<g id="Under-Belt">
<g id="Girth-Belt" class="option" style="fill: rgb(96, 46, 41); display: inherit;">
<path d="M84.4,84.5c-9.3,0-27.8-2.2-27.8-2.2l0.6-1.9c0,0,18.1,1.5,27.2,2.2c9.1-0.8,27.2-2.2,27.2-2.2l0.6,1.9 C112.2,82.2,93.6,84.5,84.4,84.5z"/>
<path d="M84.4,86.4c-9.5,0-28.4-2.2-28.4-2.2l0.6-1.9c0,0,23.2,1.9,27.8,2.2c4.6-0.4,27.8-2.2,27.8-2.2l0.6,1.9 C112.7,84.1,93.8,86.4,84.4,86.4z"/>
<path d="M84.4,88.3c-9.6,0-28.8-2.2-28.8-2.2l0.4-1.9c0,0,23.7,1.9,28.4,2.2c4.7-0.4,28.4-2.2,28.4-2.2l0.4,1.9 C113.2,86.1,94,88.3,84.4,88.3z"/>
<path d="M84.4,90.2c-9.7,0-29.2-2.2-29.2-2.2l0.4-1.9c0,0,24,1.9,28.8,2.2c4.8-0.4,28.8-2.2,28.8-2.2l0.4,1.9 C113.5,88,94.1,90.2,84.4,90.2z"/>
<path d="M84.4,92.1c-9.8,0-29.5-2.2-29.5-2.2l0.3-1.9c0,0,24.3,1.9,29.2,2.2c4.9-0.4,29.2-2.2,29.2-2.2l0.3,1.9 C113.9,89.9,94.2,92.1,84.4,92.1z"/>
<path d="M84.4,94c-9.9,0-29.8-2.2-29.8-2.2l0.3-1.9c0,0,24.6,1.9,29.5,2.2c4.9-0.4,29.5-2.2,29.5-2.2l0.3,1.9 C114.2,91.8,94.3,94,84.4,94z"/>
<path d="M84.4,95.9c-10,0-30.1-2.2-30.1-2.2l0.3-1.9c0,0,24.8,1.9,29.8,2.2c5-0.4,29.8-2.2,29.8-2.2l0.3,1.9 C114.5,93.7,94.4,95.9,84.4,95.9z"/>
<path d="M84.4,97.8c-10.1,0-30.4-2.2-30.4-2.2l0.3-1.9c0,0,25.1,1.9,30.1,2.2c5-0.4,30.1-2.2,30.1-2.2l0.3,1.9 C114.8,95.6,94.5,97.8,84.4,97.8z"/>
<path d="M84.4,99.7c-10.3,0-30.8-2.2-30.8-2.2l0.3-1.9c0,0,25.4,1.9,30.4,2.2c5.1-0.4,30.4-2.2,30.4-2.2l0.3,1.9 C115.1,97.5,94.6,99.7,84.4,99.7z"/>
<path d="M84.4,101.6c-10.4,0-31.2-2.2-31.2-2.2l0.4-1.9c0,0,25.6,1.9,30.8,2.2c5.1-0.4,30.8-2.2,30.8-2.2l0.4,1.9 C115.5,99.4,94.8,101.6,84.4,101.6z"/>
</g>
</g>
<g id="Belt">
<g id="Pouch-Belt-6" class="option" style="display: inherit;">
<path id="Main_Pouch-Belt-6" d="M114.5,92.5c-6.8,0.6-22.3,2.8-30.1,2.8c-7.9,0-23.4-2.2-30.1-2.8l1-7.9 c5.5,0.5,21.4,2.7,29.1,2.7c7.4,0,23-2.2,28.9-2.8L114.5,92.5z" style="fill: rgb(84, 57, 16);"/>
<rect id="Buckle_Pouch-Belt-6" x="78.8" y="86.6" width="11.2" height="9.2" style="fill: rgb(84, 84, 84);"/>
<g id="Pouches_Pouch-Belt-6" style="fill: rgb(60, 40, 11);">
<g>
<g>
<g>
<path d="M70.3,84.5c-0.3,0-0.6,0-0.8,0.1c-0.7,0.3-2.1,0.8-2.1,0.8l8,0.5l2.2-0.9C77.6,85,72,84.7,70.3,84.5z"/>
<path d="M77.9,85.3c0-0.1,0-0.2-0.1-0.2c-0.1,0-0.2-0.1-0.2,0c-0.7,0.3-2.1,0.9-2.1,0.9l-1,12.4 c0.7-0.4,1.4-0.7,2.1-0.8c0.4-0.1,0.7-0.4,0.7-0.8C77.4,92.9,77.5,89.1,77.9,85.3z"/>
<path d="M75.4,86l-8-0.5c0,1.9-0.2,3.8-0.3,5.7c-0.1,2.1-0.2,4.2-0.3,6.3c0,0.2,0,0.3,0.1,0.4s0.2,0.2,0.4,0.2 c2.3,0,4.6,0.1,6.9,0.4c0.1,0,0.3,0,0.4-0.1s0.2-0.2,0.2-0.4c0.1-1.5,0.4-5.3,0.4-5.3L75.4,86z"/>
<path d="M75.4,86l-8-0.5c0,0-0.2,1.6-0.4,3.1c-0.1,0.8,0.1,1.5,0.6,2.1c0.5,0.6,1.2,0.9,1.9,1 c0.9,0.1,2,0.1,3,0.2c0.8,0,1.5-0.2,2.1-0.8c0.5-0.5,0.9-1.3,0.9-2C75.4,87.6,75.4,86,75.4,86z"/>
<path d="M71.2,90.3c0.3,0,0.5,0.3,0.5,0.5c0,0.3-0.3,0.5-0.5,0.5c-0.3,0-0.5-0.3-0.5-0.5 C70.6,90.5,70.9,90.3,71.2,90.3z"/>
</g>
</g>
<g>
<g>
<path d="M59.3,83c-0.3,0-0.6,0-0.9,0.2c-0.7,0.3-1.8,0.8-1.8,0.8l7.3,0.4l2-0.9C65.8,83.5,60.8,83.1,59.3,83z"/>
<path d="M66.1,83.8c0-0.1,0-0.2-0.1-0.2c-0.1-0.1-0.2-0.1-0.2,0c-0.7,0.3-1.9,0.9-1.9,0.9l-1,12.4 c0.6-0.4,1.3-0.7,1.9-0.8c0.4-0.1,0.7-0.4,0.7-0.8C65.6,91.3,65.7,87.5,66.1,83.8z"/>
<path d="M63.8,84.4L56.5,84c-0.1,1.9-0.2,3.8-0.3,5.7c-0.1,2.1-0.2,4.2-0.3,6.3c0,0.2,0,0.3,0.1,0.4 s0.2,0.2,0.4,0.2c2.1,0,4.1,0.1,6.2,0.4c0.1,0,0.3,0,0.4-0.1s0.2-0.2,0.2-0.4c0.1-1.5,0.4-5.3,0.4-5.3L63.8,84.4z"/>
<path d="M63.8,84.4L56.5,84c0,0-0.2,1.6-0.4,3.2c-0.1,0.8,0.1,1.5,0.6,2.1c0.5,0.6,1.2,0.9,1.9,1 c0.7,0,1.5,0.1,2.2,0.1c0.8,0,1.5-0.2,2-0.7s0.9-1.2,0.9-2C63.8,86,63.8,84.4,63.8,84.4z"/>
<path d="M59.9,88.8c0.3,0,0.5,0.3,0.4,0.5c0,0.3-0.2,0.5-0.5,0.5s-0.5-0.3-0.4-0.5C59.4,89,59.6,88.8,59.9,88.8z "/>
</g>
</g>
<g>
<path d="M51.9,83.9l0.5-0.9l2.8,0.1l0.3,1.1L51.9,83.9z"/>
<path d="M55.6,84.3c0-0.1,0-0.1-0.1-0.2c0-0.1-0.1-0.1-0.2-0.1c-0.8,0-3.5-0.1-3.5-0.1l-0.5,11.2 c0.1,0.3,1.5,0.5,2.7,0.5c0.5,0,0.9-0.4,0.9-0.9C55,91.2,55.2,87.7,55.6,84.3z"/>
</g>
</g>
<g>
<g>
<g>
<path d="M98.4,84.5c0.3,0,0.6,0,0.8,0.1c0.7,0.3,2.1,0.8,2.1,0.8l-8,0.5L91.1,85C91.2,85,96.8,84.7,98.4,84.5z"/>
<path d="M90.9,85.3c0-0.1,0-0.2,0.1-0.2s0.2-0.1,0.2,0c0.7,0.3,2.1,0.9,2.1,0.9l1,12.4c-0.7-0.4-1.4-0.7-2.1-0.8 c-0.4-0.1-0.7-0.4-0.7-0.8C91.4,92.9,91.3,89.1,90.9,85.3z"/>
<path d="M93.3,86l8-0.5c0.1,1.9,0.2,3.8,0.3,5.7c0.1,2.1,0.2,4.2,0.3,6.3c0,0.2,0,0.3-0.1,0.4 c-0.1,0.1-0.2,0.2-0.4,0.2c-2.3,0-4.6,0.1-6.9,0.4c-0.1,0-0.3,0-0.4-0.1s-0.2-0.2-0.2-0.4c-0.1-1.5-0.4-5.3-0.4-5.3L93.3,86z "/>
<path d="M93.3,86l8-0.5c0,0,0.2,1.6,0.4,3.1c0.1,0.8-0.1,1.5-0.6,2.1c-0.5,0.6-1.2,0.9-1.9,1 c-0.9,0.1-2,0.1-3,0.2c-0.8,0-1.5-0.2-2.1-0.8c-0.6-0.5-0.9-1.3-0.9-2C93.3,87.6,93.3,86,93.3,86z"/>
<path d="M97.6,90.3c-0.3,0-0.5,0.3-0.5,0.5c0,0.3,0.3,0.5,0.5,0.5c0.3,0,0.5-0.3,0.5-0.5 C98.1,90.5,97.9,90.3,97.6,90.3z"/>
</g>
</g>
<g>
<g>
<path d="M109.5,83c0.3,0,0.6,0,0.9,0.2c0.7,0.3,1.8,0.8,1.8,0.8l-7.3,0.4l-2-0.9C103,83.5,107.9,83.1,109.5,83z"/>
<path d="M102.7,83.8c0-0.1,0-0.2,0.1-0.2c0.1,0,0.2-0.1,0.2,0c0.7,0.3,1.9,0.9,1.9,0.9l1,12.4 c-0.6-0.4-1.3-0.7-1.9-0.8c-0.4-0.1-0.7-0.4-0.7-0.8C103.2,91.3,103.1,87.5,102.7,83.8z"/>
<path d="M104.9,84.4l7.3-0.4c0.1,1.9,0.2,3.8,0.3,5.7c0.1,2.1,0.2,4.2,0.3,6.3c0,0.2,0,0.3-0.1,0.4 c-0.1,0.1-0.2,0.2-0.4,0.2c-2.1,0-4.1,0.1-6.2,0.4c-0.1,0-0.3,0-0.4-0.1c-0.1-0.1-0.2-0.2-0.2-0.4c-0.1-1.5-0.4-5.3-0.4-5.3 L104.9,84.4z"/>
<path d="M104.9,84.4l7.3-0.4c0,0,0.2,1.6,0.4,3.2c0.1,0.8-0.1,1.5-0.6,2.1c-0.5,0.6-1.2,0.9-1.9,1 c-0.7,0-1.5,0.1-2.2,0.1c-0.8,0-1.5-0.2-2-0.7s-0.9-1.2-0.9-2C104.9,86,104.9,84.4,104.9,84.4z"/>
<path d="M108.9,88.8c-0.3,0-0.5,0.3-0.4,0.5c0,0.3,0.2,0.5,0.5,0.5s0.5-0.3,0.4-0.5 C109.3,89,109.1,88.8,108.9,88.8z"/>
</g>
</g>
<g>
<path d="M116.9,83.9l-0.5-0.9l-2.8,0.1l-0.3,1.1L116.9,83.9z"/>
<path d="M113.2,84.3c0-0.1,0-0.1,0.1-0.2c0-0.1,0.1-0.1,0.2-0.1c0.8,0,3.5-0.1,3.5-0.1l0.5,11.2 c-0.1,0.3-1.5,0.5-2.7,0.5c-0.5,0-0.9-0.4-0.9-0.9C113.7,91.2,113.6,87.7,113.2,84.3z"/>
</g>
</g>
</g>
</g>
</g>
</g>
<g id="Extras_Front">
<g id="Front">
<g id="None_Front" class="option" style="display: inherit;">
</g>
</g>
</g>
</svg></svg>