<?xml version='1.0' encoding='UTF-8'?>
<svg version="1.1" id="Male-Body" xmlns="http://www.w3.org/2000/svg" xmlns:serif="http://www.serif.com/" viewBox="0 -55 170 300" style="stroke-width: 0.2px; fill-rule: evenodd; stroke-linejoin: round;" width="170" height="300">
<style>
mask {
mask-type: alpha;
}
.decal {
stroke: none;
}
</style>
<defs id="Masks" stroke="none">
<mask id="HelmetsMask"> <use href="#Helmets"/> </mask>
<mask id="CollarMask"> <use href="#Collar"/> </mask>
<mask id="ShouldersMask"> <use href="#Shoulders"/> </mask>
<mask id="ChestMask"> <use href="#Chest"/> </mask>
<mask id="BicepsMask"> <use href="#Biceps"/> </mask>
<mask id="GauntletsMask"> <use href="#Gauntlets"/> </mask>
<mask id="WaistMask"> <use href="#Waist"/> </mask>
<mask id="GroinMask"> <use href="#Groin"/> </mask>
<mask id="ThighsMask"> <use href="#Thighs"/> </mask>
<mask id="KneesMask"> <use href="#Knees"/> </mask>
<mask id="ShinsMask"> <use href="#Shins"/> </mask>
<mask id="FootMask"> <use href="#Foot"/> </mask>
</defs>
<defs id="Decals"><path serif:id="Stripe 1" id="Stripe-1" d="M32.78 0h30.78v100H32.78z"/><path serif:id="Stripe 3" id="Stripe-3" d="M34.61 0h30.78v100H34.61zM75.39 0h13.3v100h-13.3zM11.31 0h13.3v100h-13.3z"/><path serif:id="Beskar'ta" id="Beskar-ta" d="M48.63 2.75 29.88 18.87v62.27l18.75 16.12 18.75-16.12V18.87L48.63 2.75z"/><circle id="Circle" cx="50" cy="50" r="48.32"/></defs><metadata><rdf:rdf xmlns:rdf="http://www.w3.org/1999/02/22-rdf-syntax-ns#" xmlns:rdfs="http://www.w3.org/2000/01/rdf-schema#" xmlns:dc="http://purl.org/dc/elements/1.1/"><rdf:description><dc:creator>MandoCreator</dc:creator><dc:publisher>https://www.mandocreator.com</dc:publisher><dc:description>Your Beskar'gam - created by MandoCreator</dc:description><dc:format>image/svg+xml</dc:format><dc:type>Image</dc:type><dc:title>MandoCreator - Ner Berskar'gam</dc:title><dc:date>2022-01-02T16:36:54.480Z</dc:date></rdf:description></rdf:rdf></metadata><g id="Main-Body" fill="white" stroke="black">
<g id="Extras_Back">
<g id="Back"><g id="NO-CAPES_Back" class="option" style="display: inherit;">
</g>
</g>
</g>
<g id="Extras-BackDecals" mask="url(#BackMask)">
</g>
<g id="Suit">
<g id="Neck-Seal"><g id="Standard-Neck-Seal" class="option" fill="#A6A6A6" style="display: inherit;">
<path d="M98.75,7.5c0-0.9-0.93-1.62-2.07-1.62c0,0-7.8,0.85-11.7,0.85s-11.7-0.85-11.7-0.85 c-1.14,0-2.07,0.73-2.07,1.62s0.93,1.62,2.07,1.62c0,0,7.8,0.85,11.7,0.85s11.7-0.85,11.7-0.85C97.83,9.13,98.75,8.4,98.75,7.5z"/>
<path d="M99.45,9.4c0-0.94-0.97-1.71-2.17-1.71c0,0-8.2,0.9-12.29,0.9S72.69,7.7,72.69,7.7 c-1.2,0-2.17,0.76-2.17,1.71s0.97,1.71,2.17,1.71c0,0,8.2,0.9,12.29,0.9s12.29-0.9,12.29-0.9C98.48,11.11,99.45,10.34,99.45,9.4z "/>
<path d="M100.24,11.76c0-0.99-1.03-1.8-2.29-1.8c0,0-8.64,0.95-12.96,0.95S72.02,9.96,72.02,9.96 c-1.26,0-2.29,0.81-2.29,1.8s1.03,1.8,2.29,1.8c0,0,8.64,0.95,12.97,0.95s12.96-0.95,12.96-0.95 C99.21,13.56,100.24,12.75,100.24,11.76z"/>
<path d="M101,13.92c0-1.04-1.08-1.89-2.41-1.89c0,0-9.08,0.99-13.61,0.99s-13.61-0.99-13.61-0.99 c-1.33,0-2.41,0.85-2.41,1.89c0,1.04,1.08,1.89,2.41,1.89c0,0,9.08,0.99,13.61,0.99s13.61-0.99,13.61-0.99 C99.93,15.81,101,14.96,101,13.92z"/>
<path d="M101.76,16.04c0-0.79-1.13-1.43-2.52-1.43c0,0-9.51,0.75-14.26,0.75s-14.26-0.75-14.26-0.75 c-1.39,0-2.52,0.64-2.52,1.43c0,0.79,1.13,1.43,2.52,1.43c0,0,9.51,0.75,14.26,0.75s14.26-0.75,14.26-0.75 C100.63,17.47,101.76,16.83,101.76,16.04z"/>
<path d="M101.76,18.42c0-0.79-1.13-1.43-2.52-1.43c0,0-9.51,0.75-14.26,0.75s-14.26-0.75-14.26-0.75 c-1.39,0-2.52,0.64-2.52,1.43c0,0.79,1.13,1.43,2.52,1.43c0,0,9.51,1.44,14.26,1.44s14.26-1.44,14.26-1.44 C100.63,19.84,101.76,19.21,101.76,18.42z"/>
</g>
</g>
<g id="Flight-Suit" fill="#A6A6A6">
<path d="M73.36,158.45l-1.49,8.72l-11.03,53.11c0,0-4.93,2.96-7.47,3.46c-2.53,0.5-7.73-0.44-7.73-0.44l3.85-43 l2.9-18.36l0.66-7.82c0,0-2.53-22.78-1.7-34.14c0.82-11.36,6.66-34.01,6.66-34.01l26.98,0.58l26.97-0.58 c0,0,5.83,22.66,6.66,34.01c0.83,11.36-1.7,34.14-1.7,34.14l0.66,7.82l2.9,18.36l3.85,43c0,0-5.32,1.19-7.85,0.69 c-2.53-0.5-7.34-3.71-7.34-3.71L98.1,167.16l-1.49-8.72l-11.62-30.33L73.36,158.45z"/>
<g>
<path d="M129.41,43.33l11.98,41.65l1.04,21.47l-9.55,1.83l-6.05-20.21l-13.65-33.95l0.69-15.55l2.31-3.72 L129.41,43.33z"/>
<path d="M40.59,43.3l13.19-8.45l2.31,3.72l0.52,16.04L43.17,88.07l-6.05,20.21l-9.55-1.83l1.03-21.47L40.59,43.3z"/>
</g>
</g>
<g id="Sleeves" class="toggle" fill="#B3B3B3">
<g>
<path d="M112.2,56.12l2.68,5.9c0,0,4.24-3.2,7.06-4.8s4.38-2.62,6.92-3.6c2.54-0.98,5.08-1.47,5.08-1.47l-6.07-12.25 l-5.79-9.67l-11.58,5.14L112.2,56.12z"/>
<path d="M113.61,59.24c-0.2-0.24,5.08-4.5,8.61-6.34c3.53-1.84,10.25-3.69,10.25-3.69"/>
</g>
<g>
<path d="M57.8,56.12l-2.68,5.9c0,0-4.24-3.2-7.06-4.8c-2.82-1.59-4.38-2.62-6.92-3.6c-2.54-0.98-5.08-1.47-5.08-1.47 l6.07-12.25l5.79-9.67l11.58,5.14L57.8,56.12z"/>
<path d="M56.39,59.24c0.2-0.24-5.08-4.5-8.61-6.34c-3.53-1.84-10.25-3.69-10.25-3.69"/>
</g>
</g>
</g>
<g id="Boots"><g id="Basic_Boots" class="option" style="display: inherit;">
<g id="Main_Basic-Boot" fill="#A6A6A6">
<path d="M109.1,216.81c1.46,0.01,3.24,0.93,4.53,1.15c1.38,0.23,2.88,0.21,4.34,0.07l0.59-0.06l0.02,0l0.07-0.01 l0.19-0.03l0.3-0.04l0.12-0.02c0.35-0.05,0.68-0.1,1.01-0.16l0.53-0.1l0.11-0.03l0.04-0.01l0.08-0.02l0.36-0.09l0.32-0.09 l0.05-0.01c1.12-0.3,2.24-0.66,2.24-0.66c0.33,1.45,0.5,3.11,1.12,4.46c0.99,2.13,0.95,3.05,2.61,4.66 c1.14,1.1,4.08,3.05,5.44,3.89c0.57,0.36,1.19,0.63,1.81,0.86l0.06,0.02c2.5,0.93,5.2,1.28,6.56,4.03c0.3,0.6,0.55,1.32,0.5,2 c-0.06,0.87-1.02,0.99-1.76,1.2c-1.84,0.52-3.43,0.92-5.56,1.39c-2.43,0.54-4.63,0.88-7.1,0.81c-1.84-0.05-3.41-0.13-5.03-1.1 c-0.65-0.39-1.32-0.79-1.89-1.3c-1.27-1.15-2.09-2.36-3.71-3.04c-1.18-0.5-2.39-0.91-3.63-1.2c-1.76-0.42-4.34-1-5.28-2.74 c-0.37-1.3,0.01-1.94,0.13-3.06l0.06-0.48c0.1-0.73,0.23-1.48,0.26-2.26c0.08-1.51-0.3-3.01-0.4-4.51 c-0.06-0.85-0.1-1.71-0.11-2.56c0-0.14-0.08-0.75,0.06-0.8c0.19-0.08,0.4-0.12,0.62-0.14L109.1,216.81z"/>
<path d="M60.93,216.81c-1.46,0.01-3.24,0.93-4.53,1.15c-1.38,0.23-2.88,0.21-4.34,0.07l-0.59-0.06l-0.02,0 l-0.07-0.01l-0.19-0.03l-0.3-0.04l-0.12-0.02c-0.34-0.05-0.68-0.1-1.01-0.16l-0.53-0.1l-0.11-0.03l-0.04-0.01l-0.08-0.02 l-0.36-0.09l-0.32-0.09l-0.05-0.01c-1.12-0.3-2.24-0.66-2.24-0.66c-0.33,1.45-0.5,3.11-1.12,4.46c-0.99,2.13-0.95,3.05-2.6,4.66 c-1.14,1.1-4.08,3.05-5.44,3.89c-0.57,0.36-1.19,0.63-1.81,0.86l-0.06,0.02c-2.5,0.93-5.2,1.28-6.56,4.03 c-0.3,0.6-0.55,1.32-0.5,2c0.06,0.87,1.02,0.99,1.76,1.2c1.84,0.52,3.43,0.92,5.56,1.39c2.43,0.54,4.63,0.88,7.1,0.81 c1.84-0.05,3.41-0.13,5.03-1.1c0.65-0.39,1.32-0.79,1.89-1.3c1.27-1.15,2.09-2.36,3.72-3.04c1.18-0.5,2.39-0.91,3.63-1.2 c1.76-0.42,4.33-1,5.28-2.74c0.37-1.3-0.01-1.94-0.13-3.06l-0.06-0.48c-0.1-0.73-0.23-1.48-0.26-2.26 c-0.08-1.51,0.3-3.01,0.4-4.51c0.06-0.85,0.1-1.71,0.11-2.56c0-0.14,0.08-0.75-0.06-0.8c-0.19-0.08-0.4-0.12-0.62-0.14 L60.93,216.81z"/>
</g>
<g id="Bottom_Basic-Boot" fill="#A6A6A6">
<path d="M108.15,230.64c0.47,0.87,1.35,1.44,2.33,1.86c0.89,0.45,1.95,0.64,2.96,0.88c0.14,0.03,0.27,0.07,0.41,0.1 c0.2,0.05,0.4,0.11,0.6,0.16c0.06,0.02,0.12,0.04,0.18,0.05l0.1,0.03c0.07,0.02,0.13,0.04,0.19,0.06 c0.03,0.01,0.06,0.02,0.08,0.03c0.11,0.04,0.22,0.07,0.33,0.11c0.04,0.01,0.08,0.03,0.12,0.04l0.06,0.02 c0.17,0.06,0.33,0.12,0.5,0.18c0.04,0.01,0.07,0.03,0.11,0.04c0.15,0.06,0.3,0.11,0.45,0.17l0.12,0.05 c0.09,0.04,0.18,0.07,0.27,0.11c0.04,0.02,0.08,0.03,0.12,0.05c0.27,0.11,0.51,0.24,0.74,0.38l0.03,0.02 c0.02,0.01,0.04,0.02,0.05,0.03c0.07,0.04,0.14,0.09,0.21,0.14l0.05,0.03c0.01,0.01,0.03,0.02,0.04,0.03 c0.07,0.05,0.14,0.1,0.2,0.15l0.06,0.04l0.09,0.07c0.28,0.23,0.54,0.47,0.8,0.73l0.07,0.07c0.14,0.14,0.28,0.28,0.42,0.43 c0.15,0.15,0.29,0.3,0.45,0.45c0.15,0.15,0.31,0.31,0.48,0.46l0.06,0.05c0.05,0.04,0.1,0.09,0.15,0.13 c0.01,0.01,0.02,0.01,0.03,0.02c0.08,0.07,0.17,0.13,0.25,0.2c0.06,0.04,0.11,0.09,0.17,0.13l0.03,0.02 c0.07,0.05,0.15,0.1,0.22,0.15c0.03,0.02,0.06,0.04,0.09,0.06c0.11,0.07,0.22,0.14,0.33,0.21c0.08,0.05,0.15,0.09,0.23,0.14 l0.09,0.06l0.25,0.15l0.11,0.07l0.08,0.04l0.08,0.04c0.11,0.06,0.22,0.12,0.34,0.17c0.05,0.02,0.11,0.05,0.16,0.07l0.05,0.02 c0.34,0.15,0.68,0.26,1.02,0.35l0.06,0.01l0.08,0.02c0.03,0.01,0.05,0.01,0.07,0.02c0.07,0.02,0.14,0.03,0.21,0.04 c0.05,0.01,0.11,0.02,0.16,0.03l0.13,0.02l0.04,0.01c0.04,0.01,0.07,0.01,0.11,0.02c0.06,0.01,0.12,0.02,0.18,0.02 c0.09,0.01,0.17,0.02,0.26,0.03c0.02,0,0.04,0,0.07,0.01c0.21,0.02,0.43,0.04,0.65,0.05c0.12,0.01,0.24,0.01,0.36,0.02l0.11,0 c0.23,0.01,0.46,0.02,0.7,0.02c0.15,0,0.31,0.01,0.46,0.01c0.06,0,0.11,0,0.17,0c0.08,0,0.16,0,0.23,0c0.06,0,0.11,0,0.17,0 l0.06,0c0.28-0.01,0.56-0.02,0.83-0.03c0.04,0,0.08,0,0.12-0.01l0.11-0.01c0.03,0,0.07-0.01,0.1-0.01 c0.4-0.03,0.81-0.07,1.21-0.11l0.11-0.01c0.1-0.01,0.2-0.02,0.3-0.04c0.04-0.01,0.09-0.01,0.13-0.02l0.11-0.01 c0.08-0.01,0.17-0.02,0.25-0.04c0.35-0.05,0.7-0.11,1.06-0.18c0.08-0.01,0.16-0.03,0.24-0.04l0.1-0.02 c0.04-0.01,0.07-0.01,0.11-0.02l0.11-0.02c0.04-0.01,0.07-0.01,0.11-0.02l0.08-0.02c0.09-0.02,0.17-0.04,0.26-0.05l0.11-0.02 c0.1-0.02,0.2-0.04,0.3-0.07c0.09-0.02,0.18-0.04,0.26-0.06l0.03,0c0.56-0.12,1.08-0.24,1.58-0.36l0.19-0.04 c0.14-0.03,0.28-0.07,0.42-0.1l0.17-0.04l0.08-0.02c0.2-0.05,0.39-0.1,0.58-0.15c0.12-0.03,0.23-0.06,0.35-0.09 c0.33-0.09,0.67-0.17,1-0.26l0.15-0.04c0.06-0.01,0.11-0.03,0.17-0.04l0.06-0.02c0.26-0.07,0.52-0.14,0.79-0.22l0.06-0.02 l0.09-0.02l0.28-0.07l0.09-0.03l0.14-0.04l0.06-0.02l0.11-0.04l0.1-0.03l0.04-0.02l0.05-0.02l0.03-0.01l0.05-0.02l0.05-0.03 l0.02-0.01l0.05-0.03l0.06-0.04l0.06-0.04l0.05-0.04c0.09-0.07,0.16-0.15,0.22-0.24l0,0c0,0,0.49,0.73,0.53,1.99 c-1.1,1.59-4.6,2.12-9.43,2.76c-4.8,0.64-7.76,0.51-9.77-0.35c-2.01-0.86-5.53-4.94-8.05-5.15c-2.52-0.22-5.5-1.54-6.72-2.26 c-0.64-0.37-0.45-3-0.45-3L108.15,230.64z"/>
<path d="M61.87,230.64c-0.47,0.87-1.35,1.44-2.33,1.86c-0.89,0.45-1.95,0.64-2.95,0.88 c-0.14,0.03-0.27,0.07-0.41,0.1c-0.2,0.05-0.4,0.11-0.6,0.16c-0.06,0.02-0.12,0.04-0.18,0.05l-0.1,0.03 c-0.07,0.02-0.13,0.04-0.19,0.06c-0.03,0.01-0.06,0.02-0.08,0.03c-0.11,0.04-0.22,0.07-0.33,0.11c-0.04,0.01-0.08,0.03-0.12,0.04 l-0.06,0.02c-0.17,0.06-0.33,0.12-0.5,0.18c-0.04,0.01-0.07,0.03-0.11,0.04c-0.15,0.06-0.3,0.11-0.45,0.17l-0.12,0.05 c-0.09,0.04-0.18,0.07-0.27,0.11c-0.04,0.02-0.08,0.03-0.12,0.05c-0.27,0.11-0.51,0.24-0.74,0.38l-0.03,0.02 c-0.02,0.01-0.04,0.02-0.05,0.03c-0.07,0.04-0.14,0.09-0.21,0.14l-0.05,0.03c-0.01,0.01-0.03,0.02-0.04,0.03 c-0.07,0.05-0.14,0.1-0.2,0.15l-0.06,0.04l-0.09,0.07c-0.28,0.23-0.54,0.47-0.8,0.73l-0.07,0.07c-0.14,0.14-0.28,0.28-0.42,0.43 c-0.15,0.15-0.29,0.3-0.45,0.45c-0.15,0.15-0.31,0.31-0.48,0.46l-0.06,0.05c-0.05,0.04-0.1,0.09-0.15,0.13 c-0.01,0.01-0.02,0.01-0.03,0.02c-0.08,0.07-0.17,0.13-0.25,0.2c-0.06,0.04-0.11,0.09-0.17,0.13l-0.03,0.02 c-0.07,0.05-0.15,0.1-0.22,0.15c-0.03,0.02-0.06,0.04-0.09,0.06c-0.11,0.07-0.22,0.14-0.33,0.21c-0.08,0.05-0.15,0.09-0.23,0.14 l-0.1,0.06l-0.24,0.15l-0.11,0.07l-0.08,0.04l-0.08,0.04c-0.11,0.06-0.22,0.12-0.34,0.17c-0.05,0.02-0.11,0.05-0.16,0.07 l-0.05,0.02c-0.34,0.15-0.67,0.26-1.02,0.35l-0.06,0.01l-0.08,0.02c-0.02,0.01-0.05,0.01-0.07,0.02 c-0.07,0.02-0.14,0.03-0.21,0.04c-0.06,0.01-0.11,0.02-0.16,0.03l-0.13,0.02l-0.04,0.01c-0.04,0.01-0.07,0.01-0.11,0.02 c-0.06,0.01-0.12,0.02-0.18,0.02c-0.09,0.01-0.17,0.02-0.26,0.03c-0.02,0-0.05,0-0.07,0.01c-0.22,0.02-0.43,0.04-0.65,0.05 c-0.12,0.01-0.24,0.01-0.36,0.02l-0.1,0c-0.23,0.01-0.47,0.02-0.7,0.02c-0.15,0-0.31,0.01-0.46,0.01c-0.06,0-0.11,0-0.17,0 c-0.08,0-0.16,0-0.23,0c-0.06,0-0.11,0-0.17,0l-0.06,0c-0.28-0.01-0.56-0.02-0.83-0.03c-0.04,0-0.08,0-0.12-0.01l-0.11-0.01 c-0.03,0-0.07-0.01-0.1-0.01c-0.4-0.03-0.81-0.07-1.21-0.11l-0.11-0.01c-0.1-0.01-0.2-0.02-0.3-0.04 c-0.04-0.01-0.09-0.01-0.13-0.02l-0.11-0.01c-0.08-0.01-0.17-0.02-0.25-0.04c-0.35-0.05-0.7-0.11-1.06-0.18 c-0.08-0.01-0.16-0.03-0.24-0.04l-0.1-0.02c-0.04-0.01-0.07-0.01-0.11-0.02l-0.11-0.02c-0.04-0.01-0.07-0.01-0.11-0.02 l-0.08-0.02c-0.09-0.02-0.17-0.04-0.26-0.05l-0.11-0.02c-0.1-0.02-0.2-0.04-0.3-0.07c-0.09-0.02-0.17-0.04-0.26-0.06l-0.03,0 c-0.56-0.12-1.08-0.24-1.58-0.36l-0.19-0.04c-0.14-0.03-0.28-0.07-0.42-0.1l-0.17-0.04l-0.08-0.02c-0.2-0.05-0.39-0.1-0.58-0.15 c-0.12-0.03-0.23-0.06-0.35-0.09c-0.34-0.09-0.67-0.17-1-0.26l-0.15-0.04c-0.06-0.01-0.11-0.03-0.17-0.04l-0.06-0.02 c-0.26-0.07-0.52-0.14-0.79-0.22l-0.06-0.02l-0.09-0.02l-0.28-0.07l-0.09-0.03L29,237.65l-0.06-0.02l-0.11-0.04l-0.1-0.03 l-0.04-0.02l-0.05-0.02l-0.03-0.01l-0.05-0.02l-0.05-0.03l-0.02-0.01l-0.05-0.03l-0.06-0.04l-0.06-0.04l-0.05-0.04 c-0.09-0.07-0.16-0.15-0.22-0.24l0,0c0,0-0.49,0.73-0.53,1.99c1.1,1.59,4.6,2.12,9.43,2.76c4.8,0.64,7.76,0.51,9.77-0.35 c2.01-0.86,5.53-4.94,8.05-5.15c2.52-0.22,5.49-1.54,6.72-2.26c0.64-0.37,0.45-3,0.45-3L61.87,230.64z"/>
</g>
<g id="Top_Basic-Boot" fill="#A6A6A6">
<path d="M122,217.29c0.67,3.26,1.7,6.09,3.88,8.84c3.4,4.27,9.2,4.62,13.21,8.09c1.03,0.89,0.98,2.32,1.15,3.64 c-1.66,0.47-3.13,0.84-4.99,1.26c-0.13-1.31,0.1-2.78-0.99-3.72c-4.01-3.47-10.32-3.34-13.72-7.61 c-2.22-2.79-2.23-6.39-2.87-9.74c0.1-0.01,0.2-0.02,0.3-0.03l0.59-0.06l0.02,0l0.07-0.01l0.19-0.03l0.3-0.04l0.12-0.02 c0.35-0.05,0.68-0.1,1.01-0.16l0.53-0.1l0.11-0.03l0.04-0.01l0.08-0.02l0.36-0.09l0.32-0.09l0.05-0.01 C121.85,217.33,121.93,217.31,122,217.29z"/>
<path d="M48.02,217.29c-0.67,3.26-1.7,6.09-3.88,8.84c-3.4,4.27-9.2,4.62-13.21,8.09c-1.03,0.89-0.98,2.32-1.15,3.64 c1.66,0.47,3.13,0.84,4.99,1.26c0.13-1.31-0.1-2.78,0.99-3.72c4.01-3.47,10.32-3.34,13.72-7.61c2.22-2.79,2.23-6.39,2.87-9.74 c-0.1-0.01-0.2-0.02-0.3-0.03l-0.59-0.06l-0.02,0l-0.07-0.01l-0.19-0.03l-0.3-0.04l-0.12-0.02c-0.34-0.05-0.68-0.1-1.01-0.16 l-0.53-0.1l-0.11-0.03l-0.04-0.01l-0.08-0.02l-0.36-0.09l-0.32-0.09l-0.05-0.01C48.17,217.33,48.1,217.31,48.02,217.29z"/>
</g>
<g id="Side_Basic-Boot" fill="#A6A6A6">
<path d="M109.49,216.83c1.38,0.15,2.96,0.92,4.14,1.12c0.06,0.01,0.13,0.02,0.19,0.03c0.02,0.41,0.01,0.82,0.02,1.18 c0.05,2.04-0.21,10.76-0.61,10.75c-0.4-0.02-1.58-0.23-1.88-0.55c-0.2-0.21-0.24-0.71-0.3-0.98c-0.21-0.87-0.4-1.73-0.53-2.61 c-0.18-1.19-0.32-2.36-0.4-3.55C109.98,220.42,109.7,218.62,109.49,216.83z"/>
<path d="M60.53,216.83c-1.38,0.15-2.96,0.92-4.14,1.12c-0.06,0.01-0.13,0.02-0.19,0.03 c-0.02,0.41-0.01,0.82-0.02,1.18c-0.05,2.04,0.21,10.76,0.61,10.75c0.4-0.02,1.58-0.23,1.88-0.55c0.2-0.21,0.24-0.71,0.3-0.98 c0.21-0.87,0.4-1.73,0.53-2.61c0.18-1.19,0.32-2.36,0.4-3.55C60.05,220.42,60.32,218.62,60.53,216.83z"/>
</g>
</g>
</g>
<g id="Gloves">
<g id="Left-Glove"><g id="Basic_Left_Glove" class="option" fill="#A6A6A6" style="display: inherit;">
<path d="M138.6,124.11c-0.54-0.03-1.05-0.01-1.58,0.1c-0.36,0.08-0.72,0.16-1.04,0.35 c-0.99,0.57-0.72,1.81,0.16,2.28c1.03,0.55,2.66,0.01,3.13-1.05C139.46,125.35,138.86,124.53,138.6,124.11"/>
<path d="M136.79,125.19c-0.54-0.03-1.05-0.02-1.59,0.1c-0.36,0.08-0.72,0.16-1.04,0.35 c-0.99,0.57-0.72,1.81,0.16,2.28c1.03,0.55,2.66,0.01,3.13-1.05C137.65,126.43,137.05,125.61,136.79,125.19"/>
<path d="M135.49,126.65c-0.54,0.05-1.19,0.13-1.7,0.31c-0.35,0.12-0.69,0.26-0.99,0.48c-0.9,0.7-0.47,1.89,0.47,2.24 c1.1,0.41,2.64-0.35,2.96-1.46C136.36,127.76,135.49,126.65,135.49,126.65z"/>
<path d="M132.55,110.05c0,0-1.56,2.15-1.97,3.69c-0.29,1.09-0.13,3.68-0.49,5.43c-0.36,1.74-0.69,2.71-0.69,2.71 s-1.38,2.79-1.14,3.43c0.24,0.64,1.45,1.21,2.15,0.87c0.86-0.42,1.93-2.39,2.61-3.77c0.69-1.41,1.25-3.41,1.25-3.41 s0.95,0.32,1.43,0.7c1.61,1.24,0.91,4.96,0.91,4.96s-0.66,1.33-1.66,2.83c-1.36,2.05-3.46,3.81-2.07,5.37 c1.29,1.46,4.22-2.37,4.22-2.37l2.87-3.73c0,0,3.3-5.41,3.47-6.46c0.13-0.8,0.02-3.47,0.02-3.47l-1.03-10.37l-5.24,0.44 l-4.31,1.39L132.55,110.05"/>
</g>
</g>
<g id="Right-Glove"><g id="Basic_Right_Glove" class="option" fill="#A6A6A6" style="display: inherit;">
<path d="M31.4,124.11c0.54-0.03,1.05-0.01,1.58,0.1c0.36,0.08,0.72,0.16,1.04,0.35c0.99,0.57,0.72,1.81-0.16,2.28 c-1.03,0.55-2.66,0.01-3.13-1.05C30.53,125.35,31.14,124.53,31.4,124.11"/>
<path d="M33.21,125.19c0.54-0.03,1.05-0.02,1.58,0.1c0.36,0.08,0.72,0.16,1.04,0.35c0.99,0.57,0.72,1.81-0.16,2.28 c-1.03,0.55-2.66,0.01-3.13-1.05C32.35,126.43,32.95,125.61,33.21,125.19"/>
<path d="M34.51,126.65c0.54,0.05,1.19,0.13,1.7,0.31c0.35,0.12,0.69,0.26,0.99,0.48c0.9,0.7,0.47,1.89-0.47,2.24 c-1.1,0.41-2.64-0.35-2.96-1.46C33.64,127.76,34.51,126.65,34.51,126.65z"/>
<path d="M37.45,110.05c0,0,1.56,2.15,1.97,3.69c0.29,1.09,0.13,3.68,0.49,5.43c0.36,1.74,0.69,2.71,0.69,2.71 s1.38,2.79,1.14,3.43c-0.24,0.64-1.45,1.21-2.15,0.87c-0.86-0.42-1.93-2.39-2.61-3.77C36.29,121,35.73,119,35.73,119 s-0.95,0.32-1.43,0.7c-1.61,1.24-0.91,4.96-0.91,4.96s0.66,1.33,1.66,2.83c1.36,2.05,3.46,3.81,2.08,5.37 c-1.29,1.46-4.22-2.37-4.22-2.37l-2.87-3.73c0,0-3.3-5.41-3.47-6.46c-0.13-0.8-0.02-3.47-0.02-3.47l1.03-10.37l5.24,0.44 l4.31,1.39L37.45,110.05"/>
</g>
</g>
</g>
<g id="Biceps">
<g id="Left-Biceps">
<g id="None_Biceps_Left" class="option" style="display: inherit;">
</g></g>
<g id="Right-Biceps">
<g id="None_Biceps_Right" class="option" style="display: inherit;">
</g></g>
</g>
<g id="BicepsDecals" mask="url(#BicepsMask)">
</g>
<path id="Vest" d="M85,20.92c8.5-0.01,15.43-4.3,15.63-8.01l0.15,0.02l18.38,5.42l13.31,23.94l-2.86,1.16l-13.42-8.6 l-2.31,3.72l-1.54,47.4c0,0-8.72,4.71-13.53,5.35c-3.44,0.45-8.63,0.68-13.79,0.67c-5.16,0.01-10.35-0.22-13.79-0.67 c-4.81-0.63-13.53-5.35-13.53-5.35l-1.54-47.4l-2.31-3.72l-13.42,8.6l-2.86-1.16l13.31-23.94l18.38-5.42l0.15-0.02 C69.57,16.62,76.5,20.92,85,20.92" fill="#A6A6A6"/>
<g id="SuitDecals" mask="url(#SuitMask)">
</g>
<g class="swappable" id="Chest"><g id="Chest_Classic">
<g id="Abdomen_Classic">
<path id="Abdomen-Plate_Classic" d="M71.44,79.87l-7.32-3.02l-0.66-6.74l5.72-1.86l4.84-9.65l10.95-3.49 l10.95,3.49l4.84,9.65l5.72,1.86l-0.66,6.74l-7.32,3.02l-13.54-0.35L71.44,79.87z" fill="#FF2727"/>
<path id="Trauma-Plate_Abdomen_Classic" class="toggle" style="display:none" d="M94.77,59.94l-9.79-3.12l-9.79,3.12l-4.53,9.03 c-0.2,0.39-0.54,0.69-0.96,0.82l-4.47,1.45l0.44,4.47l6.09,2.51l13.18-0.34c0.03,0,0.06,0,0.09,0l13.18,0.34l6.09-2.51l0.44-4.47 l-4.47-1.45c-0.42-0.14-0.76-0.43-0.96-0.82L94.77,59.94z"/>
</g>
<g id="Iron-Heart_Classic">
<path id="Heart_Classic" d="M82.3,43.04V33.9l2.7-2.1l2.7,2.1v9.13L85,45.75L82.3,43.04z" fill="#FF2727"/><rect id="Center_Heart_Classic" class="option" x="84.07" y="35.31" width="1.87" height="6.25" style="display: inherit;"/>
</g>
<g id="Chest-Plates_Classic">
<g id="Left-Chest_Classic">
<path id="Chest_Left_Classic" d="M109.54,25.87l-22.45,2.67l-0.22,2.09l2.86,2.67l-0.22,11.27l-2.53,2.44v3.72 l9.68,2.67l3.85,8.72l4.29,3.49l4.73-23.94l2.53-1.28L109.54,25.87z" fill="#FF2727"/>
<path id="Trauma-Plating_Left-Chest_Classic" class="toggle" style="display:none" d="M88.58,30.03l0.01-0.07l19.7-2.35l2.07,11.91l-2.18,1.1 l-4.37,22.12l-1.95-1.59l-4-9.05l-9.25-2.55v-1.86l2.52-2.43l0.25-12.62L88.58,30.03z"/>
</g>
<g id="Right-Chest_Classic">
<path id="Chest_Right_Classic" d="M60.46,25.87l22.45,2.67l0.22,2.09l-2.86,2.67l0.22,11.27l2.53,2.44v3.72 l-9.68,2.67l-3.85,8.72l-4.29,3.49l-4.73-23.94l-2.53-1.28L60.46,25.87z" fill="#FF2727"/>
<path id="Trauma-Plating_Right-Chest_Classic" class="toggle" style="display:none" d="M81.47,30.03l-0.01-0.07l-19.7-2.35l-2.08,11.91 l2.18,1.1l4.37,22.12l1.95-1.59l4-9.05l9.25-2.55v-1.86l-2.52-2.43l-0.25-12.62L81.47,30.03z"/>
</g>
</g>
<g id="Neck-Armor_Classic">
<path id="Neck-Plate_Classic" d="M74.44,24.48l-13.97-1.51l-2.53-7.71l11.55-3.44c0,0,1.53,2.58,2.64,3.49 c1.14,0.93,2.66,2.02,4.08,2.64c1.56,0.68,3.46,1.13,5.27,1.42c2.04,0.33,5.01,0.33,7.04,0c1.81-0.29,3.91-0.75,5.47-1.42 c1.43-0.62,2.75-1.71,3.89-2.64c1.11-0.91,2.64-3.49,2.64-3.49l11.55,3.44l-2.53,7.71l-13.97,1.51L85,25.87L74.44,24.48z" fill="#FF2727"/>
<path id="Trauma-Plates_Neck_Classic" class="toggle" style="display:none" d="M82.99,24.39l-8.55-1.13l-12.86-2.43l-1.51-4.61l8.22-2.45 c0,0,2.42,2.53,3.53,3.44c1.14,0.93,2.97,1.71,4.4,2.33c1.56,0.68,3.46,1.13,5.27,1.42c0.46,0.08,0.97,0.13,1.51,0.17V24.39z M87.01,21.13c0.54-0.04,1.05-0.1,1.51-0.17c1.81-0.29,3.91-0.75,5.47-1.42c1.43-0.62,3.25-1.59,4.39-2.52 c1.11-0.91,2.88-3.39,2.88-3.39l8.68,2.59l-1.52,4.64l-12.86,2.41l-8.55,1.13V21.13z"/>
</g>
</g></g>
<g id="ChestDecals" mask="url(#ChestMask)">
<use class="decal" href="#Stripe-1" id="Stripe-1__13" transform="translate(85, 40) rotate(-0) scale(0.452427, 0.279906) translate(-50, -50)" fill="#000000"/><use class="decal" href="#Stripe-1" id="Stripe-1__19" transform="translate(72, 28) rotate(-81) scale(0.13, 0.23) translate(-50, -50)" fill="#000000"/><use class="decal" href="#Stripe-1" id="Stripe-1__20" transform="translate(100, 28) rotate(82) scale(0.12, 0.21) translate(-50, -50)" fill="#000000"/><use class="decal" href="#Circle" id="Circle__21" transform="translate(85, 68) rotate(0) scale(0.53, 0.32) translate(-50, -50)" fill="#000000"/><use class="decal" href="#Circle" id="Circle__22" transform="translate(85, 62) rotate(0) scale(0.5, 0.32) translate(-50, -50)" fill="#FF2727"/><use class="decal" href="#Stripe-1" id="Stripe-1__12" transform="translate(85, 62) rotate(0) scale(0.23, 0.38) translate(-50, -50)" fill="#000000"/><use class="decal" href="#Circle" id="Circle__25" transform="translate(106.925, 38.0261) rotate(-13.3989) scale(0.395335, 0.150274) translate(-50, -50)" fill="#000000"/><use class="decal" href="#Stripe-1" id="Stripe-1__26" transform="translate(104.151, 34.7894) rotate(0) scale(0.746744, 0.127155) translate(-50, -50)" fill="#FF2727"/><use class="decal" href="#Circle" id="Circle__27" transform="translate(51.2086, 38.0261) rotate(5.74196) scale(0.645021, 0.191888) translate(-50, -50)" fill="#000000"/><use class="decal" href="#Stripe-1" id="Stripe-1__28" transform="translate(67, 36) rotate(0) scale(0.79, 0.13) translate(-50, -50)" fill="#FF2727"/><use class="decal" href="#Beskar-ta" id="Beskar-ta__18" transform="translate(85, 39) rotate(0) scale(0.175614, 0.190917) translate(-50, -50)" fill="#FF2727"/></g>
<g id="Chest-Attachments"><g id="No-Device_Accessories_Chest" class="option" style="display: inherit;">
</g>
</g>
<g id="Collar"><g id="None_Collar" class="option" style="display: inherit;">
</g>
</g>
<g id="CollarDecals" mask="url(#CollarMask)">
</g>
<g id="Helmets" class="swappable" transform="translate(45,-52)"><g id="Helmet_Classic">
<g id="Left-Earcap_Classic" class="toggle"><path id="Ear-Cap_Left_Classic" d="M60.03,57.18l1.74-2.57l-1.74-17.81l-2.43-1.53L60.03,57.18z" fill="#787878"/>
</g>
<g id="Right-Earcap_Classic" class="toggle"><g id="Range-Finder_Right_Classic" class="option" style="display: inherit;">
<path id="Shaft_Right_Range-Finder_Classic" d="M22.48,9.72l1.08,0.07l-1.61,26.85h-1.1L22.48,9.72z" fill="#787878"/>
<path id="Finder_Right_Range-Finder_Classic" d="M30.81,7.55h-5.96l0.24-0.74l6.96-0.65L30.81,7.55" fill="#787878"/>
<g id="Cover_Right_Range-Finder_Classic" fill="#787878">
<path d="M21.62,8.59l2.84,0.19l0.63-1.96l7.48-0.7l0.15-0.76l-10.68-0.4L21,6.27L21.62,8.59"/>
<path d="M22.38,8.64l1.41,0.09L23.72,9.8l-1.4-0.09L22.38,8.64"/>
</g>
</g>
<path id="Ear-Cap_Right_Classic" d="M19.97,57.18l-1.74-2.57l1.74-17.81l2.43-1.53L19.97,57.18z" fill="#787878"/>
</g>
<g id="Helmet_Pieces_Classic">
<g id="Face_Classic" fill="#FF2727">
<path d="M22.24,58.73c0,0,0.61-4.18,1.53-6.26c0.94-2.11,2.73-4.44,4.76-4.08c1.62,0.29,4.83,7.93,5.07,17.33 C33.44,65.57,22.24,58.73,22.24,58.73z"/>
<path d="M57.74,58.73c0,0-0.61-4.18-1.53-6.26c-0.94-2.11-2.73-4.44-4.76-4.08c-1.62,0.29-4.84,7.93-5.07,17.33 C46.53,65.57,57.74,58.73,57.74,58.73z"/>
</g>
<g id="Cheeks_Classic" fill="#000000">
<path d="M22.24,58.73v0.1l-2.44-0.19l1.76-16.29c0.61,0.19,5.65,1.77,7.36,3.35c1.82,1.69,3.01,4.31,3.59,6.77 c0.63,2.68,0.95,9.62,1.05,12.23c-0.43-8.92-3.47-16.03-5.03-16.31c-2.03-0.36-3.82,1.97-4.76,4.08 C22.85,54.55,22.24,58.73,22.24,58.73z"/>
<path d="M46.42,64.7c0.1-2.61,0.43-9.55,1.06-12.23c0.58-2.46,1.77-5.08,3.59-6.77c1.68-1.57,6.63-3.12,7.36-3.35 l1.76,16.28l-2.44,0.19v-0.1c0,0-0.61-4.18-1.53-6.26c-0.94-2.11-2.73-4.44-4.76-4.08C49.88,48.67,46.85,55.78,46.42,64.7z"/>
</g>
<path id="Eyes_Classic" d="M46.38,65.72H33.6c0,0-0.31-9.91-1.09-13.25c-0.58-2.46-1.77-5.08-3.59-6.77 c-1.82-1.69-7.33-3.37-7.33-3.37l0.65-6.29c0,0,5.69,0.74,8.55,0.92c2.69,0.17,8.13,0.21,9.2,0.22c1.07-0.01,6.51-0.05,9.2-0.22 c2.86-0.18,8.55-0.92,8.55-0.92l0.65,6.29c0,0-5.51,1.68-7.33,3.37c-1.82,1.69-3.01,4.31-3.59,6.77 C46.69,55.8,46.38,65.7,46.38,65.72z" fill="#787878"/>
<g fill="#000000" id="Visors_Classic"><path fill="#000000" id="Basic_Visor_Classic" class="option" d="M43.42,65.72h-6.87V42.33c0,0-3.82-0.35-5.67-0.78 c-2.26-0.52-7.89-2.33-7.89-2.33l0.08-1.31c0,0,5.19,0.89,7.81,1.17c2.57,0.27,6.07,0.65,9.11,0.65s6.54-0.37,9.11-0.65 c2.62-0.28,7.81-1.17,7.81-1.17l0.08,1.31c0,0-5.63,1.81-7.89,2.33c-1.86,0.42-5.67,0.78-5.67,0.78V65.72z" style="display: inherit;"/>
</g>
<path id="Dome_Classic" d="M22.24,36.05l0-0.01v-0.11c0.06-9.27,7.88-16.81,17.57-17v0h0.12l0.07,0l0.07,0h0.12v0 c9.69,0.19,17.5,7.72,17.56,17v0.11l0,0.01c-0.75,0.1-5.9,0.74-8.55,0.91c-2.69,0.17-8.13,0.21-9.2,0.22 c-1.07-0.01-6.51-0.05-9.2-0.22C28.14,36.79,22.99,36.15,22.24,36.05z" fill="#FF2727"/>
</g>
</g></g>
<g id="HelmetsDecals" mask="url(#HelmetsMask)"><use class="decal" href="#Stripe-3" id="Stripe-3__1" transform="translate(84.7142, -41.1718) rotate(0) scale(0.295914, 0.532646) translate(-50, -50)" fill="#000000"/></g>
<g id="Shoulders">
<g id="Left-Shoulder"><g id="Classic_Shoulder_Left" class="option" style="display: inherit;">
<path id="Main_Shoulder_Classic_Left" d="M117.21,13.84l-2.52,11.33l2.02,6.52l13.49,6.79l2.27-3.46L117.21,13.84z " fill="#FF2727"/>
<path id="Trauma-Plates_Shoulder_Classic_Left" class="toggle" style="display:none" d="M116.44,25.1l1.67,5.41l11.49,5.78l1.94-2.96 l-12.93-17.99L116.44,25.1z"/>
</g>
</g>
<g id="Right-Shoulder"><g id="Classic_Shoulder_Right" class="option" style="display: inherit;">
<path id="Main_Shoulder_Classic_Right" d="M52.79,13.84l2.52,11.33l-2.02,6.52l-13.49,6.79l-2.27-3.46L52.79,13.84 z" fill="#FF2727"/>
<path id="Trauma-Plates_Shoulder_Classic_Right" class="toggle" style="display:none" d="M53.56,25.1l-1.67,5.41L40.4,36.29l-1.94-2.96 l12.93-17.99L53.56,25.1z"/>
</g>
</g>
</g>
<g id="ShouldersDecals" mask="url(#ShouldersMask)">
</g>
<g id="Gauntlets">
<g id="Left-Gauntlets"><g id="Basic_Gauntlet_Left" class="option" style="display: inherit;">
<path id="Top-2_Basic_Gauntlet_Left" d="M145.21,108.31l1.36-2.17l-3.89-18.32l-0.65,2.21l1.85,8.35l-0.72,2.07 L145.21,108.31z" fill="#FF2727"/>
<path id="Top-1_Basic_Gauntlet_Left" d="M142.68,87.82l-0.65,2.21l1.85,8.35l-0.72,2.07l2.05,7.86l-0.9,1.43 l0.47,5.09l-1.57,0.41l-2.13-7.67l-1.46-0.54l-6.74-22.45l8.91-0.93L142.68,87.82z" fill="#FF2727"/>
<g id="Accent-Bottom_Basic_Gauntlet_Left" fill="#FF2727">
<path d="M129.49,91.34l-1.97,0.65l0.97,2.92l1.97-0.65L129.49,91.34z"/>
<path d="M131.16,96.45l-1.97,0.65l0.97,2.92l1.97-0.65L131.16,96.45z"/>
<path d="M132.91,101.68l-1.97,0.65l0.97,2.92l1.97-0.65L132.91,101.68z"/>
</g>
<path id="Bottom_Basic_Gauntlet_Left" d="M127.53,91.98l-0.73-2.22l6.19-4.8l6.63,22.08l-6.74,1.23l-2.71-8.25 l1.96-0.65l-0.97-2.92l-1.95,0.64l-0.72-2.19l1.97-0.65l-0.97-2.92L127.53,91.98z M132.91,101.68l-1.98,0.65l0.96,2.92l1.99-0.65 L132.91,101.68z" fill="#FF2727"/><g id="Missle_Attachment_Basic_Gauntlet_Left" class="option" style="display: inherit;">
<g id="Head_Missle_Attachment_Basic_Gauntlet_Left" fill="#E4FF00">
<path d="M147.9,102.14l-2.78-3.97l3.68-0.88L147.9,102.14z"/>
<path d="M146.45,98.26c0.08-0.02,0.18,0.14,0.23,0.35c0.04,0.21,0.02,0.4-0.06,0.42 c-0.08,0.02-0.18-0.14-0.23-0.35C146.34,98.47,146.37,98.28,146.45,98.26z"/>
<path d="M146.81,99.38c0.06-0.01,0.15,0.11,0.18,0.28c0.04,0.17,0.01,0.32-0.05,0.34 c-0.06,0.01-0.15-0.11-0.18-0.28C146.72,99.55,146.74,99.39,146.81,99.38z"/>
<path d="M147.07,100.42c0.06-0.01,0.13,0.1,0.17,0.26c0.03,0.16,0.01,0.3-0.05,0.31c-0.06,0.01-0.13-0.1-0.17-0.26 C146.99,100.57,147.01,100.43,147.07,100.42z"/>
<path d="M145.85,98.4c0.08-0.02,0.18,0.14,0.23,0.35c0.04,0.21,0.02,0.4-0.06,0.42c-0.08,0.02-0.18-0.14-0.23-0.35 C145.74,98.61,145.77,98.42,145.85,98.4z"/>
<path d="M148.24,97.83c0.08-0.02,0.18,0.14,0.23,0.35c0.05,0.22,0.02,0.4-0.06,0.42 c-0.08,0.02-0.18-0.14-0.23-0.35C148.13,98.04,148.15,97.85,148.24,97.83z"/>
<path d="M147.64,97.97c0.08-0.02,0.18,0.14,0.23,0.35c0.05,0.21,0.02,0.4-0.06,0.42 c-0.08,0.02-0.18-0.14-0.23-0.35C147.53,98.18,147.56,97.99,147.64,97.97z"/>
<path d="M147.76,99.15c0.06-0.01,0.15,0.11,0.18,0.28c0.04,0.17,0.01,0.32-0.05,0.34 c-0.07,0.02-0.15-0.11-0.18-0.28C147.68,99.32,147.7,99.17,147.76,99.15z"/>
<path d="M147.95,100.21c0.06-0.01,0.13,0.1,0.17,0.26c0.03,0.16,0.01,0.3-0.05,0.31c-0.06,0.01-0.13-0.1-0.17-0.26 C147.87,100.36,147.89,100.22,147.95,100.21z"/>
<path d="M147.04,98.12c0.08-0.02,0.18,0.14,0.23,0.35c0.04,0.21,0.02,0.4-0.06,0.42 c-0.08,0.02-0.18-0.14-0.23-0.35C146.93,98.32,146.96,98.14,147.04,98.12z"/>
<path d="M147.29,99.26c0.07-0.01,0.15,0.11,0.18,0.28c0.04,0.17,0.01,0.32-0.05,0.34 c-0.06,0.01-0.15-0.11-0.18-0.28C147.2,99.43,147.22,99.28,147.29,99.26z"/>
<path d="M147.51,100.32c0.06-0.01,0.13,0.1,0.17,0.26c0.03,0.16,0.01,0.3-0.05,0.31c-0.06,0.01-0.14-0.1-0.17-0.26 C147.43,100.47,147.45,100.33,147.51,100.32z"/>
<path d="M148.36,99.66c-0.06-0.01-0.13-0.13-0.17-0.28c-0.04-0.17-0.01-0.32,0.05-0.34 c0.06-0.02,0.14,0.11,0.18,0.27L148.36,99.66z M146.28,99.82c-0.03-0.17-0.01-0.31,0.05-0.33c0.07-0.02,0.15,0.11,0.18,0.28 c0.03,0.16,0.02,0.3-0.04,0.33L146.28,99.82z"/>
</g>
<g id="Main_Missle_Attachment_Basic_Gauntlet_Left" fill="#787878">
<path d="M148.22,96.78l-2.78,0.66l0.13,0.61l2.79-0.66L148.22,96.78z"/>
<path d="M145.49,83.9l-2.79,0.66l0.13,0.61l2.78-0.66L145.49,83.9z"/>
<path d="M144.44,81.79l-1.64,0.39l0.13,0.61l1.64-0.39L144.44,81.79z"/>
<path d="M145.28,82.23l-3.05,0.73l0.35,1.63l3.05-0.73L145.28,82.23z"/>
<path d="M145.87,84.45l-3.29,0.78l2.6,12.27l3.29-0.78L145.87,84.45z"/>
<path d="M144.08,91.7l-0.54,0.13l0.61,2.88l0.54-0.13L144.08,91.7z"/>
</g>
<g id="Accent_Missle_Attachment_Basic_Gauntlet_Left" fill="#E4FF00">
<path d="M148.06,102.92l-0.58-1.02l0.69-0.16L148.06,102.92z"/>
<path d="M148.04,101.47l-0.55,0.13l-0.01,0.29l0.69-0.16L148.04,101.47z"/>
<path d="M144.45,80.89l-2.01,0.48l0.18,0.85l2.01-0.48L144.45,80.89z"/>
<path d="M144.02,80.53l-1.34,0.32l-0.24,0.53l2.01-0.48L144.02,80.53z"/>
<path d="M144.89,84.68l-0.56,0.13l2.6,12.27l0.56-0.13L144.89,84.68z"/>
<path d="M144.13,84.86L143.57,85l2.6,12.27l0.56-0.13L144.13,84.86z"/>
<path d="M146.17,84.71l-0.29-0.26l2.6,12.27l0.15-0.37L146.17,84.71z"/>
<path d="M145.65,84.5l-0.56,0.13l2.6,12.27l0.56-0.13L145.65,84.5z"/>
<path d="M143.37,85.04l-0.35,0.08l2.6,12.27l0.34-0.08L143.37,85.04z"/>
</g>
<path id="Base_Missle_Attachment_Basic_Gauntlet_Left" d="M142.9,84.2l-1.01-0.17L144.85,98l0.85-0.61L142.9,84.2 z M144.08,91.7l-0.54,0.13l0.61,2.88l0.54-0.13L144.08,91.7z" fill="#787878"/>
</g></g>
</g>
<g id="Right-Gauntlets"><g id="Basic_Gauntlet_Right" class="option" style="display: inherit;">
<path id="Top-2_Basic_Gauntlet_Right" d="M24.75,108.31l-1.36-2.17l3.89-18.32l0.65,2.21l-1.85,8.35l0.72,2.07 L24.75,108.31z" fill="#FF2727"/>
<path id="Top-1_Basic_Gauntlet_Right" d="M27.28,87.82l0.65,2.21l-1.85,8.35l0.72,2.07l-2.05,7.86l0.9,1.43 l-0.47,5.09l1.57,0.41l2.13-7.67l1.46-0.54l6.74-22.45l-8.91-0.93L27.28,87.82z" fill="#FF2727"/>
<g id="Accent-Bottom_Basic_Gauntlet_Right" fill="#FF2727">
<path d="M40.47,91.34l1.97,0.65l-0.97,2.92l-1.97-0.65L40.47,91.34z"/>
<path d="M38.79,96.45l1.97,0.65l-0.97,2.92l-1.97-0.65L38.79,96.45z"/>
<path d="M37.05,101.68l1.97,0.65l-0.97,2.92l-1.97-0.65L37.05,101.68z"/>
</g>
<path id="Bottom_Basic_Gauntlet_Right" d="M42.43,91.98l0.73-2.22l-6.19-4.8l-6.63,22.08l6.74,1.23l2.71-8.25 l-1.96-0.65l0.97-2.92l1.95,0.64l0.72-2.19l-1.97-0.65l0.97-2.92L42.43,91.98z M37.05,101.68l1.98,0.65l-0.96,2.92l-1.99-0.65 L37.05,101.68z" fill="#FF2727"/><g id="No-Device_Attachment_Basic_Gauntlet_Right" class="option" style="display: inherit;">
</g>
</g>
</g>
</g>
<g id="GauntletsDecals" mask="url(#GauntletsMask)">
</g>
<g id="Shins">
<g id="Left-Shin"><g id="Basic_Shin_Left" class="option" style="display: inherit;">
<path id="Shin_Basic-Shin_Left" d="M121.62,179.69l-5.07-5.47l-10.06,1.36l-3.67,8.71l6.88,29.05 c4.47,1.82,10.9,0.87,14.37-2.3L121.62,179.69" fill="#FF2727"/>
<path id="Trauma-Plating_Basic-Shin_Left" class="toggle" style="display:none" d="M122.31,210.31l-2.33-29.91l-4.07-4.4l-8.22,1.11 l-3.08,7.32l6.54,27.63C114.73,213.18,119.4,212.5,122.31,210.31"/>
<g id="Ridge_Basic-Shin_Left" class="toggle" style="display:none"/>
</g>
</g>
<g id="Right-Shin"><g id="Basic_Shin_Right" class="option" style="display: inherit;">
<path id="Shin_Basic-Shin_Right" d="M48.3,179.69l5.07-5.47l10.06,1.36l3.67,8.71l-6.88,29.05 c-4.47,1.82-10.9,0.87-14.36-2.3L48.3,179.69" fill="#FF2727"/>
<path id="Trauma-Plating_Basic-Shin_Right" class="toggle" style="display:none" d="M47.62,210.31l2.33-29.91l4.07-4.4l8.22,1.11l3.08,7.32 l-6.54,27.63C55.2,213.18,50.53,212.5,47.62,210.31"/>
<g id="Ridge_Basic-Shin_Right" class="toggle" style="display:none"/>
</g>
</g>
</g>
<g id="ShinsDecals" mask="url(#ShinsMask)">
<use class="decal" href="#Stripe-1" id="Stripe-1__10" transform="translate(112.119, 161.416) rotate(-3.00253) scale(0.374825, 1.12447) translate(-50, -50)" fill="#000000"/><use class="decal" href="#Stripe-1" id="Stripe-1__11" transform="translate(58.8541, 152.21) rotate(3.26575) scale(0.401128, 1.40066) translate(-50, -50)" fill="#000000"/></g>
<g id="Foot">
<g id="Left-Ankle">
<g id="None_Ankle_Left" class="option" style="display: inherit;">
</g></g>
<g id="Left-Toe"><g id="None_Toe_Left" class="option" style="display: inherit;">
</g>
</g>
<g id="Right-Ankle">
<g id="None_Ankle_Right" class="option" style="display: inherit;">
</g></g>
<g id="Right-Toe"><g id="None_Toe_Right" class="option" style="display: inherit;">
</g>
</g>
</g>
<g id="FootDecals" mask="url(#FootMask)">
</g>
<g id="Knees">
<g id="Left-Knee"><g id="Basic_Knee_Left" class="option" style="display: inherit;">
<g id="Missiles_Basic-Knee_Left" class="toggle" style="display:none"/>
<g id="Knee_Basic-Knee_Left" fill="#FF2727">
<path d="M96.42,158.84l1.43-0.23c0,0,1.08,6.92,1.56,9.99c0.12,0.79-0.42,1.54-1.21,1.66c0,0,0,0,0,0L96.42,158.84z "/>
<path d="M97.81,158.32l0.82,5.14c1.05-0.59,3.7,0.5,4.57,3.58c1.59,5.67,2.97,6.97,7.95,6.46 c3.87-0.4,6.64-2.2,6.96-4.87c0.46-3.85,0-9.43-0.23-11.79c-0.03-0.29-0.18-0.56-0.41-0.74c-0.23-0.18-0.53-0.26-0.82-0.23 C112.43,156.41,97.81,158.32,97.81,158.32z"/>
<path d="M97.31,158.39l0.49-0.07l0.92,5.56l-0.49,0.07L97.31,158.39z"/>
</g>
</g>
</g>
<g id="Right-Knee"><g id="Basic_Knee_Right" class="option" style="display: inherit;">
<g id="Missiles_Basic-Knee_Right" class="toggle" style="display:none"/>
<g id="Knee_Basic-Knee_Right" fill="#FF2727">
<path d="M73.47,158.84l-1.43-0.23c0,0-1.08,6.92-1.56,9.99c-0.12,0.79,0.42,1.54,1.21,1.66c0,0,0,0,0,0 L73.47,158.84z"/>
<path d="M72.09,158.32l-0.82,5.14c-1.05-0.59-3.7,0.5-4.57,3.58c-1.59,5.67-2.97,6.97-7.95,6.46 c-3.87-0.4-6.64-2.2-6.96-4.87c-0.46-3.85,0-9.43,0.23-11.79c0.03-0.29,0.18-0.56,0.41-0.74c0.23-0.18,0.53-0.26,0.82-0.23 C57.46,156.41,72.09,158.32,72.09,158.32z"/>
<path d="M72.58,158.39l-0.49-0.07l-0.92,5.56l0.49,0.07L72.58,158.39z"/>
</g>
</g>
</g>
</g>
<g id="KneesDecals" mask="url(#KneesMask)">
<use class="decal" href="#Stripe-1" id="Stripe-1__7" transform="translate(108.831, 140.374) rotate(-5.81724) scale(0.380591, 0.862494) translate(-50, -50)" fill="#000000"/><use class="decal" href="#Stripe-1" id="Stripe-1__9" transform="translate(60.1693, 135.113) rotate(2.88618) scale(0.387977, 1.11132) translate(-50, -50)" fill="#000000"/></g>
<g id="Thighs">
<g id="Left-Thigh"><g id="Basic_Thigh_Left" class="option" style="display: inherit;">
<path id="Thigh_Basic-Thigh_Left" d="M120.21,115.6c0,0-5.03-6.43-7.59-7.49c-2.43-1.01-5.69-0.58-7.78,1.09 c-3.19,2.54-10.51,8.04-11.35,14.16c-0.93,6.83,4.08,21.95,5.78,26.84c0.58,1.66,2.77,2.41,4.44,2.48 c3.1,0.12,11.57-0.15,13.59-4.69C120.05,141.81,120.21,115.6,120.21,115.6" fill="#FF2727"/>
<path id="Trauma-Plate_Basic-Thigh_Left" class="toggle" style="display:none" d="M118.5,116.19c-0.75-0.93-2.56-3.1-4.3-4.77 c-0.83-0.79-1.62-1.49-2.25-1.75c-1.9-0.79-4.44-0.45-6.06,0.85c-1.85,1.47-5.15,3.97-7.66,7.02c-1.52,1.85-2.77,3.9-3.07,6.05 c-0.9,6.64,4.05,21.31,5.7,26.06c0.14,0.42,0.54,0.67,0.95,0.87c0.61,0.3,1.33,0.45,1.94,0.47c1.73,0.07,5.27,0.02,8.23-0.96 c1.63-0.54,3.12-1.33,3.75-2.73c0.78-1.75,1.3-5.22,1.7-9.2C118.31,129.59,118.47,118.81,118.5,116.19"/>
<g id="Ridge_Basic-Thigh_Left" class="toggle" style="display:none"/>
</g>
</g>
<g id="Right-Thigh"><g id="Basic_Thigh_Right" class="option" style="display: inherit;">
<path id="Thigh_Basic-Thigh_Right" d="M49.69,115.6c0,0,5.03-6.43,7.59-7.49c2.43-1.01,5.69-0.58,7.78,1.09 c3.19,2.54,10.51,8.04,11.35,14.16c0.93,6.83-4.08,21.95-5.78,26.84c-0.58,1.66-2.77,2.41-4.44,2.48 c-3.1,0.12-11.57-0.15-13.59-4.69C49.85,141.81,49.69,115.6,49.69,115.6" fill="#FF2727"/>
<path id="Trauma-Plate_Basic-Thigh_Right" class="toggle" style="display:none" d="M51.39,116.19c0.75-0.93,2.56-3.1,4.3-4.77 c0.83-0.79,1.62-1.49,2.25-1.75c1.9-0.79,4.44-0.45,6.06,0.85c1.85,1.47,5.15,3.97,7.66,7.02c1.52,1.85,2.77,3.9,3.07,6.05 c0.9,6.64-4.05,21.31-5.7,26.06c-0.14,0.42-0.54,0.67-0.95,0.87c-0.61,0.3-1.33,0.45-1.94,0.47c-1.73,0.07-5.27,0.02-8.23-0.96 c-1.63-0.54-3.12-1.33-3.75-2.73c-0.78-1.75-1.3-5.22-1.7-9.2C51.59,129.59,51.42,118.81,51.39,116.19"/>
<g id="Ridge_Basic-Thigh_Right" class="toggle" style="display:none"/>
</g>
</g>
</g>
<g id="ThighsDecals" mask="url(#ThighsMask)">
<use class="decal" href="#Stripe-1" id="Stripe-1__5" transform="translate(104.556, 104.206) rotate(-5.61436) scale(0.416472, 1.21873) translate(-50, -50)" fill="#000000"/><use class="decal" href="#Stripe-1" id="Stripe-1__6" transform="translate(65.7588, 97.6303) rotate(6.22291) scale(0.416472, 1.32394) translate(-50, -50)" fill="#000000"/></g>
<g id="Groin"><g id="Basic_Groin" class="option" style="display: inherit;">
<path id="Groin-Plate_Basic" d="M78.67,122.29L68.22,99.4h33.42l-10.45,22.89l-6.26,5.46L78.67,122.29z" fill="#FF2727"/>
<path id="Trauma-Plating_Groin" class="toggle" style="display:none" d="M79.77,120.38l-8.61-18.86H98.7l-8.61,18.86l-5.16,4.49L79.77,120.38z"/>
</g>
</g>
<g id="GroinDecals" mask="url(#GroinMask)">
</g>
<g id="Waist">
<g id="Accessories_Waist">
<g id="Kama" class="toggle" style="display:none"/>
<g id="Loin-Cloth" class="toggle" style="display:none"/>
<g id="Left-Holster" class="toggle" style="display:none"/>
<g id="Right-Holster" class="toggle" style="display:none"/>
<g id="Left-Trophy" class="toggle" style="display:none"/>
<g id="Right-Trophy" class="toggle" style="display:none"/>
</g>
<g id="Under-Belt"><g id="Girth-Belt" class="option" fill="#8B572A" style="display: inherit;">
<path d="M84.93,84.93c-9.33,0-27.98-2.25-27.98-2.25l0.61-1.91c0,0,18.19,1.5,27.37,2.25 c9.13-0.75,27.37-2.25,27.37-2.25l0.6,1.91C112.91,82.68,94.25,84.93,84.93,84.93z"/>
<path d="M84.93,86.84c-9.52,0-28.56-2.25-28.56-2.25l0.58-1.91c0,0,23.31,1.88,27.98,2.25 c4.66-0.38,27.98-2.25,27.98-2.25l0.58,1.91C113.49,84.59,94.45,86.84,84.93,86.84z"/>
<path d="M84.93,88.75c-9.67,0-28.99-2.25-28.99-2.25l0.43-1.91c0,0,23.8,1.88,28.56,2.25 c4.76-0.38,28.56-2.25,28.56-2.25l0.43,1.91C113.92,86.49,94.6,88.75,84.93,88.75z"/>
<path d="M84.93,90.65c-9.79,0-29.36-2.25-29.36-2.25l0.37-1.91c0,0,24.16,1.88,28.99,2.25 c4.83-0.38,28.99-2.25,28.99-2.25l0.37,1.91C114.29,88.4,94.72,90.65,84.93,90.65z"/>
<path d="M84.93,92.56c-9.9,0-29.69-2.25-29.69-2.25l0.33-1.91c0,0,24.47,1.88,29.36,2.25 c4.89-0.38,29.36-2.25,29.36-2.25l0.33,1.91C114.62,90.31,94.83,92.56,84.93,92.56z"/>
<path d="M84.93,94.47c-10,0-30-2.25-30-2.25l0.31-1.91c0,0,24.74,1.88,29.69,2.25c4.95-0.38,29.69-2.25,29.69-2.25 l0.31,1.91C114.93,92.21,94.93,94.47,84.93,94.47z"/>
<path d="M84.93,96.37c-10.1,0-30.31-2.25-30.31-2.25l0.31-1.91c0,0,25,1.88,30,2.25c5-0.38,30-2.25,30-2.25 l0.31,1.91C115.24,94.12,95.03,96.37,84.93,96.37z"/>
<path d="M84.93,98.28c-10.21,0-30.62-2.25-30.62-2.25l0.32-1.91c0,0,25.26,1.88,30.31,2.25 c5.05-0.38,30.31-2.25,30.31-2.25l0.32,1.91C115.55,96.03,95.14,98.28,84.93,98.28z"/>
<path d="M84.93,100.19c-10.32,0-30.97-2.25-30.97-2.25l0.34-1.91c0,0,25.52,1.88,30.62,2.25 c5.1-0.38,30.62-2.25,30.62-2.25l0.35,1.91C115.9,97.93,95.25,100.19,84.93,100.19z"/>
<path d="M84.93,102.09c-10.45,0-31.36-2.25-31.36-2.25l0.39-1.91c0,0,25.81,1.88,30.97,2.25 c5.16-0.38,30.97-2.25,30.97-2.25l0.39,1.91C116.29,99.84,95.38,102.09,84.93,102.09z"/>
</g>
</g>
<g id="Belt"><g id="Basic-Belt" class="option" style="display: inherit;">
<path id="Main_Basic-Belt" d="M115.21,92.95c-6.82,0.61-22.4,2.83-30.27,2.83c-7.94,0-23.52-2.23-30.26-2.82 l1.01-7.93c5.53,0.49,21.56,2.74,29.26,2.74c7.47,0,23.17-2.23,29.07-2.76L115.21,92.95z" fill="#8B572A"/>
<rect id="Buckle_Basic-Belt" x="79.37" y="87.01" width="11.28" height="9.21" fill="#787878"/>
</g>
</g>
</g>
<g id="WaistDecals" mask="url(#WaistMask)">
</g>
<g id="Extras_Front">
<g id="Front"><g id="None_Front" class="option" style="display: inherit;">
</g>
</g>
</g>
<g id="Extras-FrontDecals" mask="url(#FrontMask)">
</g>
</g>
</svg>