<?xml version='1.0' encoding='UTF-8'?>
<svg version="1.1" id="Male-Body" xmlns="http://www.w3.org/2000/svg" xmlns:serif="http://www.serif.com/" viewBox="0 -55 170 300" style="stroke-width: 0.2px; fill-rule: evenodd; stroke-linejoin: round;" width="170" height="300">
<style>
mask {
mask-type: alpha;
}
.decal {
stroke: none;
}
</style>
<defs id="Masks" stroke="none">
<mask id="HelmetsMask"> <use href="#Helmets"/> </mask>
<mask id="CollarMask"> <use href="#Collar"/> </mask>
<mask id="ShouldersMask"> <use href="#Shoulders"/> </mask>
<mask id="ChestMask"> <use href="#Chest"/> </mask>
<mask id="BicepsMask"> <use href="#Biceps"/> </mask>
<mask id="GauntletsMask"> <use href="#Gauntlets"/> </mask>
<mask id="WaistMask"> <use href="#Waist"/> </mask>
<mask id="GroinMask"> <use href="#Groin"/> </mask>
<mask id="ThighsMask"> <use href="#Thighs"/> </mask>
<mask id="KneesMask"> <use href="#Knees"/> </mask>
<mask id="ShinsMask"> <use href="#Shins"/> </mask>
<mask id="FootMask"> <use href="#Foot"/> </mask>
</defs>
<defs id="Decals"/><metadata><rdf:rdf xmlns:rdf="http://www.w3.org/1999/02/22-rdf-syntax-ns#" xmlns:rdfs="http://www.w3.org/2000/01/rdf-schema#" xmlns:dc="http://purl.org/dc/elements/1.1/"><rdf:description><dc:creator>MandoCreator</dc:creator><dc:publisher>https://www.mandocreator.com</dc:publisher><dc:description>Your Beskar'gam - created by MandoCreator</dc:description><dc:format>image/svg+xml</dc:format><dc:type>Image</dc:type><dc:title>MandoCreator - Ner Berskar'gam</dc:title><dc:date>2022-01-02T16:40:42.442Z</dc:date></rdf:description></rdf:rdf></metadata><g id="Main-Body" fill="white" stroke="black">
<g id="Extras_Back">
<g id="Back"><g id="NO-CAPES_Back" class="option" style="display: inherit;">
</g>
</g>
</g>
<g id="Extras-BackDecals" mask="url(#BackMask)">
</g>
<g id="Suit">
<g id="Neck-Seal"><g id="Standard-Neck-Seal" class="option" fill="rgb(52, 68, 83)" style="display: inherit;">
<path d="M98.75,7.5c0-0.9-0.93-1.62-2.07-1.62c0,0-7.8,0.85-11.7,0.85s-11.7-0.85-11.7-0.85 c-1.14,0-2.07,0.73-2.07,1.62s0.93,1.62,2.07,1.62c0,0,7.8,0.85,11.7,0.85s11.7-0.85,11.7-0.85C97.83,9.13,98.75,8.4,98.75,7.5z"/>
<path d="M99.45,9.4c0-0.94-0.97-1.71-2.17-1.71c0,0-8.2,0.9-12.29,0.9S72.69,7.7,72.69,7.7 c-1.2,0-2.17,0.76-2.17,1.71s0.97,1.71,2.17,1.71c0,0,8.2,0.9,12.29,0.9s12.29-0.9,12.29-0.9C98.48,11.11,99.45,10.34,99.45,9.4z "/>
<path d="M100.24,11.76c0-0.99-1.03-1.8-2.29-1.8c0,0-8.64,0.95-12.96,0.95S72.02,9.96,72.02,9.96 c-1.26,0-2.29,0.81-2.29,1.8s1.03,1.8,2.29,1.8c0,0,8.64,0.95,12.97,0.95s12.96-0.95,12.96-0.95 C99.21,13.56,100.24,12.75,100.24,11.76z"/>
<path d="M101,13.92c0-1.04-1.08-1.89-2.41-1.89c0,0-9.08,0.99-13.61,0.99s-13.61-0.99-13.61-0.99 c-1.33,0-2.41,0.85-2.41,1.89c0,1.04,1.08,1.89,2.41,1.89c0,0,9.08,0.99,13.61,0.99s13.61-0.99,13.61-0.99 C99.93,15.81,101,14.96,101,13.92z"/>
<path d="M101.76,16.04c0-0.79-1.13-1.43-2.52-1.43c0,0-9.51,0.75-14.26,0.75s-14.26-0.75-14.26-0.75 c-1.39,0-2.52,0.64-2.52,1.43c0,0.79,1.13,1.43,2.52,1.43c0,0,9.51,0.75,14.26,0.75s14.26-0.75,14.26-0.75 C100.63,17.47,101.76,16.83,101.76,16.04z"/>
<path d="M101.76,18.42c0-0.79-1.13-1.43-2.52-1.43c0,0-9.51,0.75-14.26,0.75s-14.26-0.75-14.26-0.75 c-1.39,0-2.52,0.64-2.52,1.43c0,0.79,1.13,1.43,2.52,1.43c0,0,9.51,1.44,14.26,1.44s14.26-1.44,14.26-1.44 C100.63,19.84,101.76,19.21,101.76,18.42z"/>
</g>
</g>
<g id="Flight-Suit" fill="rgb(52, 68, 83)">
<path d="M73.36,158.45l-1.49,8.72l-11.03,53.11c0,0-4.93,2.96-7.47,3.46c-2.53,0.5-7.73-0.44-7.73-0.44l3.85-43 l2.9-18.36l0.66-7.82c0,0-2.53-22.78-1.7-34.14c0.82-11.36,6.66-34.01,6.66-34.01l26.98,0.58l26.97-0.58 c0,0,5.83,22.66,6.66,34.01c0.83,11.36-1.7,34.14-1.7,34.14l0.66,7.82l2.9,18.36l3.85,43c0,0-5.32,1.19-7.85,0.69 c-2.53-0.5-7.34-3.71-7.34-3.71L98.1,167.16l-1.49-8.72l-11.62-30.33L73.36,158.45z"/>
<g>
<path d="M129.41,43.33l11.98,41.65l1.04,21.47l-9.55,1.83l-6.05-20.21l-13.65-33.95l0.69-15.55l2.31-3.72 L129.41,43.33z"/>
<path d="M40.59,43.3l13.19-8.45l2.31,3.72l0.52,16.04L43.17,88.07l-6.05,20.21l-9.55-1.83l1.03-21.47L40.59,43.3z"/>
</g>
</g>
<g id="Sleeves" class="toggle" fill="rgb(52, 68, 83)">
<g>
<path d="M112.2,56.12l2.68,5.9c0,0,4.24-3.2,7.06-4.8s4.38-2.62,6.92-3.6c2.54-0.98,5.08-1.47,5.08-1.47l-6.07-12.25 l-5.79-9.67l-11.58,5.14L112.2,56.12z"/>
<path d="M113.61,59.24c-0.2-0.24,5.08-4.5,8.61-6.34c3.53-1.84,10.25-3.69,10.25-3.69"/>
</g>
<g>
<path d="M57.8,56.12l-2.68,5.9c0,0-4.24-3.2-7.06-4.8c-2.82-1.59-4.38-2.62-6.92-3.6c-2.54-0.98-5.08-1.47-5.08-1.47 l6.07-12.25l5.79-9.67l11.58,5.14L57.8,56.12z"/>
<path d="M56.39,59.24c0.2-0.24-5.08-4.5-8.61-6.34c-3.53-1.84-10.25-3.69-10.25-3.69"/>
</g>
</g>
</g>
<g id="Boots"><g id="Basic_Boots" class="option" style="display: inherit;">
<g id="Main_Basic-Boot" fill="rgb(42, 41, 41)">
<path d="M109.1,216.81c1.46,0.01,3.24,0.93,4.53,1.15c1.38,0.23,2.88,0.21,4.34,0.07l0.59-0.06l0.02,0l0.07-0.01 l0.19-0.03l0.3-0.04l0.12-0.02c0.35-0.05,0.68-0.1,1.01-0.16l0.53-0.1l0.11-0.03l0.04-0.01l0.08-0.02l0.36-0.09l0.32-0.09 l0.05-0.01c1.12-0.3,2.24-0.66,2.24-0.66c0.33,1.45,0.5,3.11,1.12,4.46c0.99,2.13,0.95,3.05,2.61,4.66 c1.14,1.1,4.08,3.05,5.44,3.89c0.57,0.36,1.19,0.63,1.81,0.86l0.06,0.02c2.5,0.93,5.2,1.28,6.56,4.03c0.3,0.6,0.55,1.32,0.5,2 c-0.06,0.87-1.02,0.99-1.76,1.2c-1.84,0.52-3.43,0.92-5.56,1.39c-2.43,0.54-4.63,0.88-7.1,0.81c-1.84-0.05-3.41-0.13-5.03-1.1 c-0.65-0.39-1.32-0.79-1.89-1.3c-1.27-1.15-2.09-2.36-3.71-3.04c-1.18-0.5-2.39-0.91-3.63-1.2c-1.76-0.42-4.34-1-5.28-2.74 c-0.37-1.3,0.01-1.94,0.13-3.06l0.06-0.48c0.1-0.73,0.23-1.48,0.26-2.26c0.08-1.51-0.3-3.01-0.4-4.51 c-0.06-0.85-0.1-1.71-0.11-2.56c0-0.14-0.08-0.75,0.06-0.8c0.19-0.08,0.4-0.12,0.62-0.14L109.1,216.81z"/>
<path d="M60.93,216.81c-1.46,0.01-3.24,0.93-4.53,1.15c-1.38,0.23-2.88,0.21-4.34,0.07l-0.59-0.06l-0.02,0 l-0.07-0.01l-0.19-0.03l-0.3-0.04l-0.12-0.02c-0.34-0.05-0.68-0.1-1.01-0.16l-0.53-0.1l-0.11-0.03l-0.04-0.01l-0.08-0.02 l-0.36-0.09l-0.32-0.09l-0.05-0.01c-1.12-0.3-2.24-0.66-2.24-0.66c-0.33,1.45-0.5,3.11-1.12,4.46c-0.99,2.13-0.95,3.05-2.6,4.66 c-1.14,1.1-4.08,3.05-5.44,3.89c-0.57,0.36-1.19,0.63-1.81,0.86l-0.06,0.02c-2.5,0.93-5.2,1.28-6.56,4.03 c-0.3,0.6-0.55,1.32-0.5,2c0.06,0.87,1.02,0.99,1.76,1.2c1.84,0.52,3.43,0.92,5.56,1.39c2.43,0.54,4.63,0.88,7.1,0.81 c1.84-0.05,3.41-0.13,5.03-1.1c0.65-0.39,1.32-0.79,1.89-1.3c1.27-1.15,2.09-2.36,3.72-3.04c1.18-0.5,2.39-0.91,3.63-1.2 c1.76-0.42,4.33-1,5.28-2.74c0.37-1.3-0.01-1.94-0.13-3.06l-0.06-0.48c-0.1-0.73-0.23-1.48-0.26-2.26 c-0.08-1.51,0.3-3.01,0.4-4.51c0.06-0.85,0.1-1.71,0.11-2.56c0-0.14,0.08-0.75-0.06-0.8c-0.19-0.08-0.4-0.12-0.62-0.14 L60.93,216.81z"/>
</g>
<g id="Bottom_Basic-Boot" fill="rgb(0, 0, 0)">
<path d="M108.15,230.64c0.47,0.87,1.35,1.44,2.33,1.86c0.89,0.45,1.95,0.64,2.96,0.88c0.14,0.03,0.27,0.07,0.41,0.1 c0.2,0.05,0.4,0.11,0.6,0.16c0.06,0.02,0.12,0.04,0.18,0.05l0.1,0.03c0.07,0.02,0.13,0.04,0.19,0.06 c0.03,0.01,0.06,0.02,0.08,0.03c0.11,0.04,0.22,0.07,0.33,0.11c0.04,0.01,0.08,0.03,0.12,0.04l0.06,0.02 c0.17,0.06,0.33,0.12,0.5,0.18c0.04,0.01,0.07,0.03,0.11,0.04c0.15,0.06,0.3,0.11,0.45,0.17l0.12,0.05 c0.09,0.04,0.18,0.07,0.27,0.11c0.04,0.02,0.08,0.03,0.12,0.05c0.27,0.11,0.51,0.24,0.74,0.38l0.03,0.02 c0.02,0.01,0.04,0.02,0.05,0.03c0.07,0.04,0.14,0.09,0.21,0.14l0.05,0.03c0.01,0.01,0.03,0.02,0.04,0.03 c0.07,0.05,0.14,0.1,0.2,0.15l0.06,0.04l0.09,0.07c0.28,0.23,0.54,0.47,0.8,0.73l0.07,0.07c0.14,0.14,0.28,0.28,0.42,0.43 c0.15,0.15,0.29,0.3,0.45,0.45c0.15,0.15,0.31,0.31,0.48,0.46l0.06,0.05c0.05,0.04,0.1,0.09,0.15,0.13 c0.01,0.01,0.02,0.01,0.03,0.02c0.08,0.07,0.17,0.13,0.25,0.2c0.06,0.04,0.11,0.09,0.17,0.13l0.03,0.02 c0.07,0.05,0.15,0.1,0.22,0.15c0.03,0.02,0.06,0.04,0.09,0.06c0.11,0.07,0.22,0.14,0.33,0.21c0.08,0.05,0.15,0.09,0.23,0.14 l0.09,0.06l0.25,0.15l0.11,0.07l0.08,0.04l0.08,0.04c0.11,0.06,0.22,0.12,0.34,0.17c0.05,0.02,0.11,0.05,0.16,0.07l0.05,0.02 c0.34,0.15,0.68,0.26,1.02,0.35l0.06,0.01l0.08,0.02c0.03,0.01,0.05,0.01,0.07,0.02c0.07,0.02,0.14,0.03,0.21,0.04 c0.05,0.01,0.11,0.02,0.16,0.03l0.13,0.02l0.04,0.01c0.04,0.01,0.07,0.01,0.11,0.02c0.06,0.01,0.12,0.02,0.18,0.02 c0.09,0.01,0.17,0.02,0.26,0.03c0.02,0,0.04,0,0.07,0.01c0.21,0.02,0.43,0.04,0.65,0.05c0.12,0.01,0.24,0.01,0.36,0.02l0.11,0 c0.23,0.01,0.46,0.02,0.7,0.02c0.15,0,0.31,0.01,0.46,0.01c0.06,0,0.11,0,0.17,0c0.08,0,0.16,0,0.23,0c0.06,0,0.11,0,0.17,0 l0.06,0c0.28-0.01,0.56-0.02,0.83-0.03c0.04,0,0.08,0,0.12-0.01l0.11-0.01c0.03,0,0.07-0.01,0.1-0.01 c0.4-0.03,0.81-0.07,1.21-0.11l0.11-0.01c0.1-0.01,0.2-0.02,0.3-0.04c0.04-0.01,0.09-0.01,0.13-0.02l0.11-0.01 c0.08-0.01,0.17-0.02,0.25-0.04c0.35-0.05,0.7-0.11,1.06-0.18c0.08-0.01,0.16-0.03,0.24-0.04l0.1-0.02 c0.04-0.01,0.07-0.01,0.11-0.02l0.11-0.02c0.04-0.01,0.07-0.01,0.11-0.02l0.08-0.02c0.09-0.02,0.17-0.04,0.26-0.05l0.11-0.02 c0.1-0.02,0.2-0.04,0.3-0.07c0.09-0.02,0.18-0.04,0.26-0.06l0.03,0c0.56-0.12,1.08-0.24,1.58-0.36l0.19-0.04 c0.14-0.03,0.28-0.07,0.42-0.1l0.17-0.04l0.08-0.02c0.2-0.05,0.39-0.1,0.58-0.15c0.12-0.03,0.23-0.06,0.35-0.09 c0.33-0.09,0.67-0.17,1-0.26l0.15-0.04c0.06-0.01,0.11-0.03,0.17-0.04l0.06-0.02c0.26-0.07,0.52-0.14,0.79-0.22l0.06-0.02 l0.09-0.02l0.28-0.07l0.09-0.03l0.14-0.04l0.06-0.02l0.11-0.04l0.1-0.03l0.04-0.02l0.05-0.02l0.03-0.01l0.05-0.02l0.05-0.03 l0.02-0.01l0.05-0.03l0.06-0.04l0.06-0.04l0.05-0.04c0.09-0.07,0.16-0.15,0.22-0.24l0,0c0,0,0.49,0.73,0.53,1.99 c-1.1,1.59-4.6,2.12-9.43,2.76c-4.8,0.64-7.76,0.51-9.77-0.35c-2.01-0.86-5.53-4.94-8.05-5.15c-2.52-0.22-5.5-1.54-6.72-2.26 c-0.64-0.37-0.45-3-0.45-3L108.15,230.64z"/>
<path d="M61.87,230.64c-0.47,0.87-1.35,1.44-2.33,1.86c-0.89,0.45-1.95,0.64-2.95,0.88 c-0.14,0.03-0.27,0.07-0.41,0.1c-0.2,0.05-0.4,0.11-0.6,0.16c-0.06,0.02-0.12,0.04-0.18,0.05l-0.1,0.03 c-0.07,0.02-0.13,0.04-0.19,0.06c-0.03,0.01-0.06,0.02-0.08,0.03c-0.11,0.04-0.22,0.07-0.33,0.11c-0.04,0.01-0.08,0.03-0.12,0.04 l-0.06,0.02c-0.17,0.06-0.33,0.12-0.5,0.18c-0.04,0.01-0.07,0.03-0.11,0.04c-0.15,0.06-0.3,0.11-0.45,0.17l-0.12,0.05 c-0.09,0.04-0.18,0.07-0.27,0.11c-0.04,0.02-0.08,0.03-0.12,0.05c-0.27,0.11-0.51,0.24-0.74,0.38l-0.03,0.02 c-0.02,0.01-0.04,0.02-0.05,0.03c-0.07,0.04-0.14,0.09-0.21,0.14l-0.05,0.03c-0.01,0.01-0.03,0.02-0.04,0.03 c-0.07,0.05-0.14,0.1-0.2,0.15l-0.06,0.04l-0.09,0.07c-0.28,0.23-0.54,0.47-0.8,0.73l-0.07,0.07c-0.14,0.14-0.28,0.28-0.42,0.43 c-0.15,0.15-0.29,0.3-0.45,0.45c-0.15,0.15-0.31,0.31-0.48,0.46l-0.06,0.05c-0.05,0.04-0.1,0.09-0.15,0.13 c-0.01,0.01-0.02,0.01-0.03,0.02c-0.08,0.07-0.17,0.13-0.25,0.2c-0.06,0.04-0.11,0.09-0.17,0.13l-0.03,0.02 c-0.07,0.05-0.15,0.1-0.22,0.15c-0.03,0.02-0.06,0.04-0.09,0.06c-0.11,0.07-0.22,0.14-0.33,0.21c-0.08,0.05-0.15,0.09-0.23,0.14 l-0.1,0.06l-0.24,0.15l-0.11,0.07l-0.08,0.04l-0.08,0.04c-0.11,0.06-0.22,0.12-0.34,0.17c-0.05,0.02-0.11,0.05-0.16,0.07 l-0.05,0.02c-0.34,0.15-0.67,0.26-1.02,0.35l-0.06,0.01l-0.08,0.02c-0.02,0.01-0.05,0.01-0.07,0.02 c-0.07,0.02-0.14,0.03-0.21,0.04c-0.06,0.01-0.11,0.02-0.16,0.03l-0.13,0.02l-0.04,0.01c-0.04,0.01-0.07,0.01-0.11,0.02 c-0.06,0.01-0.12,0.02-0.18,0.02c-0.09,0.01-0.17,0.02-0.26,0.03c-0.02,0-0.05,0-0.07,0.01c-0.22,0.02-0.43,0.04-0.65,0.05 c-0.12,0.01-0.24,0.01-0.36,0.02l-0.1,0c-0.23,0.01-0.47,0.02-0.7,0.02c-0.15,0-0.31,0.01-0.46,0.01c-0.06,0-0.11,0-0.17,0 c-0.08,0-0.16,0-0.23,0c-0.06,0-0.11,0-0.17,0l-0.06,0c-0.28-0.01-0.56-0.02-0.83-0.03c-0.04,0-0.08,0-0.12-0.01l-0.11-0.01 c-0.03,0-0.07-0.01-0.1-0.01c-0.4-0.03-0.81-0.07-1.21-0.11l-0.11-0.01c-0.1-0.01-0.2-0.02-0.3-0.04 c-0.04-0.01-0.09-0.01-0.13-0.02l-0.11-0.01c-0.08-0.01-0.17-0.02-0.25-0.04c-0.35-0.05-0.7-0.11-1.06-0.18 c-0.08-0.01-0.16-0.03-0.24-0.04l-0.1-0.02c-0.04-0.01-0.07-0.01-0.11-0.02l-0.11-0.02c-0.04-0.01-0.07-0.01-0.11-0.02 l-0.08-0.02c-0.09-0.02-0.17-0.04-0.26-0.05l-0.11-0.02c-0.1-0.02-0.2-0.04-0.3-0.07c-0.09-0.02-0.17-0.04-0.26-0.06l-0.03,0 c-0.56-0.12-1.08-0.24-1.58-0.36l-0.19-0.04c-0.14-0.03-0.28-0.07-0.42-0.1l-0.17-0.04l-0.08-0.02c-0.2-0.05-0.39-0.1-0.58-0.15 c-0.12-0.03-0.23-0.06-0.35-0.09c-0.34-0.09-0.67-0.17-1-0.26l-0.15-0.04c-0.06-0.01-0.11-0.03-0.17-0.04l-0.06-0.02 c-0.26-0.07-0.52-0.14-0.79-0.22l-0.06-0.02l-0.09-0.02l-0.28-0.07l-0.09-0.03L29,237.65l-0.06-0.02l-0.11-0.04l-0.1-0.03 l-0.04-0.02l-0.05-0.02l-0.03-0.01l-0.05-0.02l-0.05-0.03l-0.02-0.01l-0.05-0.03l-0.06-0.04l-0.06-0.04l-0.05-0.04 c-0.09-0.07-0.16-0.15-0.22-0.24l0,0c0,0-0.49,0.73-0.53,1.99c1.1,1.59,4.6,2.12,9.43,2.76c4.8,0.64,7.76,0.51,9.77-0.35 c2.01-0.86,5.53-4.94,8.05-5.15c2.52-0.22,5.49-1.54,6.72-2.26c0.64-0.37,0.45-3,0.45-3L61.87,230.64z"/>
</g>
<g id="Top_Basic-Boot" fill="rgb(52, 68, 83)">
<path d="M122,217.29c0.67,3.26,1.7,6.09,3.88,8.84c3.4,4.27,9.2,4.62,13.21,8.09c1.03,0.89,0.98,2.32,1.15,3.64 c-1.66,0.47-3.13,0.84-4.99,1.26c-0.13-1.31,0.1-2.78-0.99-3.72c-4.01-3.47-10.32-3.34-13.72-7.61 c-2.22-2.79-2.23-6.39-2.87-9.74c0.1-0.01,0.2-0.02,0.3-0.03l0.59-0.06l0.02,0l0.07-0.01l0.19-0.03l0.3-0.04l0.12-0.02 c0.35-0.05,0.68-0.1,1.01-0.16l0.53-0.1l0.11-0.03l0.04-0.01l0.08-0.02l0.36-0.09l0.32-0.09l0.05-0.01 C121.85,217.33,121.93,217.31,122,217.29z"/>
<path d="M48.02,217.29c-0.67,3.26-1.7,6.09-3.88,8.84c-3.4,4.27-9.2,4.62-13.21,8.09c-1.03,0.89-0.98,2.32-1.15,3.64 c1.66,0.47,3.13,0.84,4.99,1.26c0.13-1.31-0.1-2.78,0.99-3.72c4.01-3.47,10.32-3.34,13.72-7.61c2.22-2.79,2.23-6.39,2.87-9.74 c-0.1-0.01-0.2-0.02-0.3-0.03l-0.59-0.06l-0.02,0l-0.07-0.01l-0.19-0.03l-0.3-0.04l-0.12-0.02c-0.34-0.05-0.68-0.1-1.01-0.16 l-0.53-0.1l-0.11-0.03l-0.04-0.01l-0.08-0.02l-0.36-0.09l-0.32-0.09l-0.05-0.01C48.17,217.33,48.1,217.31,48.02,217.29z"/>
</g>
<g id="Side_Basic-Boot" fill="rgb(52, 68, 83)">
<path d="M109.49,216.83c1.38,0.15,2.96,0.92,4.14,1.12c0.06,0.01,0.13,0.02,0.19,0.03c0.02,0.41,0.01,0.82,0.02,1.18 c0.05,2.04-0.21,10.76-0.61,10.75c-0.4-0.02-1.58-0.23-1.88-0.55c-0.2-0.21-0.24-0.71-0.3-0.98c-0.21-0.87-0.4-1.73-0.53-2.61 c-0.18-1.19-0.32-2.36-0.4-3.55C109.98,220.42,109.7,218.62,109.49,216.83z"/>
<path d="M60.53,216.83c-1.38,0.15-2.96,0.92-4.14,1.12c-0.06,0.01-0.13,0.02-0.19,0.03 c-0.02,0.41-0.01,0.82-0.02,1.18c-0.05,2.04,0.21,10.76,0.61,10.75c0.4-0.02,1.58-0.23,1.88-0.55c0.2-0.21,0.24-0.71,0.3-0.98 c0.21-0.87,0.4-1.73,0.53-2.61c0.18-1.19,0.32-2.36,0.4-3.55C60.05,220.42,60.32,218.62,60.53,216.83z"/>
</g>
</g>
</g>
<g id="Gloves">
<g id="Left-Glove"><g id="Basic_Left_Glove" class="option" fill="rgb(52, 68, 83)" style="display: inherit;">
<path d="M138.6,124.11c-0.54-0.03-1.05-0.01-1.58,0.1c-0.36,0.08-0.72,0.16-1.04,0.35 c-0.99,0.57-0.72,1.81,0.16,2.28c1.03,0.55,2.66,0.01,3.13-1.05C139.46,125.35,138.86,124.53,138.6,124.11"/>
<path d="M136.79,125.19c-0.54-0.03-1.05-0.02-1.59,0.1c-0.36,0.08-0.72,0.16-1.04,0.35 c-0.99,0.57-0.72,1.81,0.16,2.28c1.03,0.55,2.66,0.01,3.13-1.05C137.65,126.43,137.05,125.61,136.79,125.19"/>
<path d="M135.49,126.65c-0.54,0.05-1.19,0.13-1.7,0.31c-0.35,0.12-0.69,0.26-0.99,0.48c-0.9,0.7-0.47,1.89,0.47,2.24 c1.1,0.41,2.64-0.35,2.96-1.46C136.36,127.76,135.49,126.65,135.49,126.65z"/>
<path d="M132.55,110.05c0,0-1.56,2.15-1.97,3.69c-0.29,1.09-0.13,3.68-0.49,5.43c-0.36,1.74-0.69,2.71-0.69,2.71 s-1.38,2.79-1.14,3.43c0.24,0.64,1.45,1.21,2.15,0.87c0.86-0.42,1.93-2.39,2.61-3.77c0.69-1.41,1.25-3.41,1.25-3.41 s0.95,0.32,1.43,0.7c1.61,1.24,0.91,4.96,0.91,4.96s-0.66,1.33-1.66,2.83c-1.36,2.05-3.46,3.81-2.07,5.37 c1.29,1.46,4.22-2.37,4.22-2.37l2.87-3.73c0,0,3.3-5.41,3.47-6.46c0.13-0.8,0.02-3.47,0.02-3.47l-1.03-10.37l-5.24,0.44 l-4.31,1.39L132.55,110.05"/>
</g>
</g>
<g id="Right-Glove"><g id="Basic_Right_Glove" class="option" fill="rgb(52, 68, 83)" style="display: inherit;">
<path d="M31.4,124.11c0.54-0.03,1.05-0.01,1.58,0.1c0.36,0.08,0.72,0.16,1.04,0.35c0.99,0.57,0.72,1.81-0.16,2.28 c-1.03,0.55-2.66,0.01-3.13-1.05C30.53,125.35,31.14,124.53,31.4,124.11"/>
<path d="M33.21,125.19c0.54-0.03,1.05-0.02,1.58,0.1c0.36,0.08,0.72,0.16,1.04,0.35c0.99,0.57,0.72,1.81-0.16,2.28 c-1.03,0.55-2.66,0.01-3.13-1.05C32.35,126.43,32.95,125.61,33.21,125.19"/>
<path d="M34.51,126.65c0.54,0.05,1.19,0.13,1.7,0.31c0.35,0.12,0.69,0.26,0.99,0.48c0.9,0.7,0.47,1.89-0.47,2.24 c-1.1,0.41-2.64-0.35-2.96-1.46C33.64,127.76,34.51,126.65,34.51,126.65z"/>
<path d="M37.45,110.05c0,0,1.56,2.15,1.97,3.69c0.29,1.09,0.13,3.68,0.49,5.43c0.36,1.74,0.69,2.71,0.69,2.71 s1.38,2.79,1.14,3.43c-0.24,0.64-1.45,1.21-2.15,0.87c-0.86-0.42-1.93-2.39-2.61-3.77C36.29,121,35.73,119,35.73,119 s-0.95,0.32-1.43,0.7c-1.61,1.24-0.91,4.96-0.91,4.96s0.66,1.33,1.66,2.83c1.36,2.05,3.46,3.81,2.08,5.37 c-1.29,1.46-4.22-2.37-4.22-2.37l-2.87-3.73c0,0-3.3-5.41-3.47-6.46c-0.13-0.8-0.02-3.47-0.02-3.47l1.03-10.37l5.24,0.44 l4.31,1.39L37.45,110.05"/>
</g>
</g>
</g>
<g id="Biceps">
<g id="Left-Biceps"><g id="Basic_Biceps_Left" class="option" style="display: inherit;">
<path id="Main_Basic_Biceps_Left" d="M134.37,52.38c-1.14-2.74-6.21-14.78-6.21-14.78s-8.34,3.42-10.42,4.28 c-0.59,0.24-0.87,0.91-0.63,1.5c0.98,2.36,3.38,8.14,4.87,11.74c0.34,0.81,0.99,1.46,1.81,1.8c0.82,0.34,1.74,0.34,2.56,0 c2.45-1.01,5.73-2.35,7.4-3.04C134.33,53.63,134.61,52.96,134.37,52.38z" fill="rgb(1, 17, 61)"/>
<path id="Strap_Basic_Biceps_Left" d="M119.35,48.7l-5.85,2.4l-0.14,4.29l7.49-3.07L119.35,48.7" fill="rgb(78, 47, 16)"/>
<path id="Trauma-Plate_Basic_Biceps_Left" class="toggle" style="" d="M134.34,51.81l-5.29-12.74l-10.16,4.17l4.67,11.24 c0.17,0.4,0.49,0.72,0.89,0.88c0.4,0.17,0.85,0.17,1.26,0L134.34,51.81" fill="rgb(136, 163, 236)"/>
</g>
</g>
<g id="Right-Biceps"><g id="Basic_Biceps_Right" class="option" style="display: inherit;">
<path id="Main_Basic_Biceps_Right" d="M35.65,52.38c1.14-2.74,6.22-14.78,6.22-14.78s8.34,3.42,10.42,4.28 c0.59,0.24,0.87,0.91,0.63,1.5c-0.98,2.36-3.38,8.14-4.87,11.74c-0.34,0.81-0.99,1.46-1.81,1.8c-0.82,0.34-1.74,0.34-2.56,0 c-2.45-1.01-5.73-2.35-7.4-3.04C35.69,53.63,35.41,52.96,35.65,52.38z" fill="rgb(1, 17, 61)"/>
<path id="Strap_Basic_Biceps_Right" d="M50.68,48.7l5.85,2.4l0.14,4.29l-7.49-3.07L50.68,48.7" fill="rgb(76, 44, 12)"/>
<path id="Trauma-Plate_Basic_Biceps_Right" class="toggle" style="" d="M35.69,51.81l5.29-12.74l10.16,4.17l-4.66,11.24 c-0.17,0.4-0.49,0.72-0.89,0.88s-0.85,0.17-1.26,0L35.69,51.81" fill="rgb(136, 163, 236)"/>
</g>
</g>
</g>
<g id="BicepsDecals" mask="url(#BicepsMask)">
</g>
<path id="Vest" d="M85,20.92c8.5-0.01,15.43-4.3,15.63-8.01l0.15,0.02l18.38,5.42l13.31,23.94l-2.86,1.16l-13.42-8.6 l-2.31,3.72l-1.54,47.4c0,0-8.72,4.71-13.53,5.35c-3.44,0.45-8.63,0.68-13.79,0.67c-5.16,0.01-10.35-0.22-13.79-0.67 c-4.81-0.63-13.53-5.35-13.53-5.35l-1.54-47.4l-2.31-3.72l-13.42,8.6l-2.86-1.16l13.31-23.94l18.38-5.42l0.15-0.02 C69.57,16.62,76.5,20.92,85,20.92" fill="rgb(52, 68, 83)"/>
<g id="SuitDecals" mask="url(#SuitMask)">
</g>
<g class="swappable" id="Chest"><g id="Chest_Galaxy">
<g id="Abdomen_Galaxy">
<path id="Abdomen-Plate_Galaxy" d="M78.03,73.41l-2.08,1.5l-10.56-1.5l-0.77-5.8l5-0.1l3.03-4.92l1.37-4.53 l10.95-9.96L85,48.11l0.02-0.02l10.95,9.96l1.37,4.53l3.03,4.92l5,0.1l-0.77,5.8l-10.56,1.5l-2.08-1.5H78.03z" fill="rgb(4, 198, 255)"/>
<path id="Trauma-Plate_Abdomen_Galaxy" class="toggle" style="" d="M84.98,50.38l-9.46,8.61l-1.3,4.29l-3.63,5.89l-4.03,0.08 l0.35,2.66l8.6,1.22l1.97-1.42h15.04l1.97,1.42l8.6-1.22l0.35-2.66l-4.03-0.08l-3.63-5.89l-1.3-4.29l-9.46-8.61L85,50.4 L84.98,50.38z" fill="rgb(2, 29, 105)"/>
</g>
<g id="Full-Chest_Galaxy">
<path id="Chest-Plate_Galaxy" d="M80.61,33.64l-0.02,10.15l3.21,3.22L72.55,57.6l-1.46,4.89l-2.38,3.9h-4.12 l-2-2.9l-2.55-14.21l-3.73-5.81l4.73-15.2l5.46-0.69l0.77-3.36l5.84-0.71l1.85,3h20.1l1.85-3l5.84,0.71l0.77,3.36l5.46,0.69 l4.73,15.2l-3.73,5.81l-2.55,14.21l-2,2.9h-4.12l-2.38-3.9l-1.46-4.89l-11.25-10.6l3.21-3.22l-0.02-10.15L85,30.24L80.61,33.64z" fill="rgb(4, 198, 255)"/>
<path id="Trauma-Plating_Left-Chest_Galaxy" class="toggle" style="" d="M96,28.19H85.12l5.97,4.62l0.02,11.67l-2.48,2.49 l10.31,9.72l1.53,5.11l1.77,2.9h2.27l1.29-1.87l2.54-14.19l3.49-5.43l-4.17-13.42l-5.55-0.7l-0.77-3.36l-3.57-0.43L96,28.19z" fill="rgb(1, 17, 61)"/>
<path id="Trauma-Plating_Right-Chest_Galaxy" class="toggle" style="" d="M72.23,25.31l-3.57,0.43l-0.77,3.36l-5.55,0.7 l-4.17,13.42l3.49,5.43l2.54,14.19l1.29,1.87h2.27l1.77-2.9l1.53-5.11l10.31-9.72l-2.48-2.49l0.02-11.67l5.97-4.62H74 L72.23,25.31z" fill="rgb(1, 17, 61)"/>
<g id="Accents_Chest-Plate_Galaxy" class="toggle" fill="rgb(255, 126, 0)">
<rect x="96.12" y="31.44" width="9.25" height="1.22"/>
<rect x="96.12" y="33.6" width="9.25" height="1.22"/>
</g>
</g>
<g id="Iron-Heart_Galaxy">
<path id="Heart_Galaxy" d="M82.3,43.49v-9.13l2.7-2.1l2.7,2.1v9.13L85,46.2L82.3,43.49z" fill="rgb(4, 198, 255)"/><rect id="Center_Heart_Galaxy" class="option" x="84.07" y="35.76" width="1.87" height="6.25" fill="rgb(255, 126, 0)" style="display: inherit;"/>
</g>
<g id="Neck-Armor_Galaxy">
<g id="Neck-Plate_Galaxy" fill="rgb(4, 198, 255)">
<path d="M82.75,25.51l-7.39,0.12l-1.82-2.97l-7.05,0.84l-0.7,3.07l-4.52,0.56l-3.33-11.42l11.55-3.44 c0,0,1.53,2.58,2.64,3.49c1.14,0.93,2.66,2.02,4.08,2.64c1.56,0.68,3.46,1.13,5.27,1.42c0.19,0.03,0.38,0.06,0.59,0.08 L82.75,25.51z"/>
<path d="M87.25,25.51l7.39,0.12l1.82-2.97l7.05,0.84l0.7,3.07l4.52,0.56l3.33-11.42l-11.55-3.44 c0,0-1.53,2.58-2.64,3.49c-1.14,0.93-2.66,2.02-4.08,2.64c-1.56,0.68-3.46,1.13-5.27,1.42c-0.19,0.03-0.38,0.06-0.59,0.08 L87.25,25.51z"/>
</g>
<g id="Trauma-Plates_Neck_Galaxy" class="toggle" style="display:none" fill="rgb(255, 255, 255)"/>
</g>
</g></g>
<g id="ChestDecals" mask="url(#ChestMask)">
</g>
<g id="Chest-Attachments"><g id="No-Device_Accessories_Chest" class="option" style="display: inherit;">
</g>
</g>
<g id="Collar"><g id="Cloth-Wrap-Right_Collar" class="option" style="display: inherit;">
<g id="Main_Cloth-Wrap-Right_Collar" fill="rgb(52, 1, 63)">
<path d="M94.88,22.25c5-1.56,5.91-4.07,6.21-6.59c0.12-1.03-1.36-3.72,0.17-4.41c1.73-0.78,5.81,0.44,7.49,0.8 c1.25,0.27,2.36,0.58,3.63,0.59c2.94,0.03,5.28,1.99,5.54,3.45c0.37,2.04-3.27,2.78-4.97,4.33c-4.26,3.88-5.74,9.13-14.69,10.57 c-4.11,0.66-8.18-0.27-11.99-1.12c-9.86-2.19-15.23-4.07-21.57-8.93c-2.77-2.13-6.95-3.86-6.85-6.71 c0.01-0.12,2.02-1.31,2.22-1.36c1.78-0.44,3.29-1.17,5.24-1.21c1.17-0.02,0.98,0.98,1.06,1.43c0.33,1.74,1.93,3.05,3.93,4.36 C75.6,20.92,87.64,21.99,94.88,22.25z"/>
<path d="M94.88,22.25c1.32,0.05,2.48,0.25,3.5,0.32c4.57,0.28,6.21-0.83,7.09-2.86"/>
<path d="M109.1,12.11c1.32,2.14,1.15,4.67,0.1,6.33"/>
<path d="M70.71,18.23c3.43,4.66,8.51,6.13,14.08,6.7"/>
<path d="M61.44,12.49c0.2,1.18,0.91,1.62,1.78,2.41c0.5,0.46,1.12,0.78,1.52,1.35c0.14,0.2,0.22,0.44,0.31,0.67"/>
</g>
<path id="Buckle_Cloth-Wrap-Right_Collar" d="M71.89,17.35l-2.91-2.08l-5.06,7.02l2.91,2.08L71.89,17.35z" fill="rgb(48, 49, 49)"/>
</g></g>
<g id="CollarDecals" mask="url(#CollarMask)">
</g>
<g id="Helmets" class="swappable" transform="translate(45,-52)"><g id="Helmet_Ramikadyc">
<g id="Left-Earcap_Ramikadyc" class="toggle"><g id="Sensor-Stalk_Left_Ramikadyc" class="option" style="display: inherit;">
<g id="Sensor_Left_Sensor-Stalk_Ramikadyc" fill="rgb(255, 126, 0)">
<path d="M62.08,48.08l4.66-7.98l-5.74,0.04v7.94H62.08z"/>
<path d="M60.85,16.74L66.74,35h-5.74L60.85,16.74z"/>
</g>
<g id="Shaft_Left_Sensor-Stalk_Ramikadyc" fill="rgb(1, 17, 61)">
<path d="M67.78,35l-6.94-21.42l0.01,3.16L66.74,35h-4.9v1.14h5.93V35z"/>
<path d="M67.78,40.08v-1.14h-5.93v1.14h4.9l-4.67,8h1.02L67.78,40.08z"/>
<path d="M60.17,32.48l1.68-1.18v10.45h-1.68V32.48z"/>
<rect x="59.64" y="41.75" width="2.44" height="2.28"/>
<rect x="59.25" y="41.35" width="0.39" height="3.31"/>
</g>
</g><path id="Ear-Cap_Left_Ramikadyc" d="M55.98,35.66l2.72,1.01c0,0,0.74,3.43,0.81,6.29c0.06,2.86-0.78,6.19-0.78,6.19 l-1.7,0.79l-0.05-11.99L55.98,35.66z" fill="rgb(42, 41, 41)"/>
</g>
<g id="Right-Earcap_Ramikadyc" class="toggle"><g id="Sensor-Stalk_Right_Ramikadyc" class="option" style="display: inherit;">
<g id="Sensor_Right_Sensor-Stalk_Ramikadyc" fill="rgb(255, 126, 0)">
<path d="M17.92,48.08l-4.66-7.98l5.74,0.04v7.94H17.92z"/>
<path d="M19.15,16.74L13.26,35h5.74L19.15,16.74z"/>
</g>
<g id="Shaft_Right_Sensor-Stalk_Ramikadyc" fill="rgb(1, 17, 61)">
<path d="M12.23,35l6.94-21.42l-0.01,3.16L13.26,35h4.9v1.14h-5.93V35z"/>
<path d="M12.23,40.08v-1.14h5.93v1.14h-4.9l4.67,8H16.9L12.23,40.08z"/>
<path d="M19.83,32.48l-1.68-1.18v10.45h1.68V32.48z"/>
<rect x="17.92" y="41.75" width="2.44" height="2.28"/>
<rect x="20.36" y="41.35" width="0.39" height="3.31"/>
</g>
</g><path id="Ear-Cap_Right_Ramikadyc" d="M24.02,35.66l-2.72,1.01c0,0-0.74,3.43-0.81,6.29 c-0.06,2.86,0.77,6.19,0.77,6.19l1.7,0.79l0.05-11.99L24.02,35.66z" fill="rgb(42, 41, 41)"/>
</g>
<g id="Helmet_Pieces_Ramikadyc">
<g id="Mouth_Ramikadyc" fill="rgb(2, 29, 105)">
<path d="M36.83,67.32c0,0,0.09-2.75-0.19-4.09c-0.28-1.34-0.65-2.87-0.65-2.87l3.89-1.61h0.05l3.89,1.61 c0,0-0.37,1.53-0.65,2.87c-0.28,1.34-0.19,4.09-0.19,4.09H36.83z"/>
<path d="M39.9,58.75v6.41"/>
<path d="M36.83,67.32l0.01-0.93l3.03-1.21v-0.02l0.03,0.01l0.03-0.01v0.02l3.03,1.21l0.01,0.93H36.83z"/>
</g>
<g id="Face_Ramikadyc" fill="rgb(2, 29, 105)">
<path d="M43.81,60.35l0.2,0.03c4.27-4.69,7.12-9.26,8.22-13.69l4.24-3.7l0.57-1.31v-0.03l0,0v10.48 c0,0-3.12,6.56-6.46,9.75c-2.22,2.12-7.53,5.43-7.53,5.43h-0.07c0,0-0.09-2.75,0.19-4.09C43.44,61.88,43.81,60.35,43.81,60.35z"/>
<path d="M35.99,60.35l-0.2,0.03c-4.27-4.69-7.12-9.26-8.22-13.69l-4.24-3.7l-0.57-1.31v-0.03l0,0v10.48 c0,0,3.12,6.56,6.46,9.75c2.22,2.12,7.53,5.43,7.53,5.43h0.07c0,0,0.09-2.75-0.19-4.09C36.36,61.88,35.99,60.35,35.99,60.35z"/>
</g>
<g id="Cheeks-2_Ramikadyc" fill="rgb(52, 68, 83)">
<path d="M25.45,49.03l7.87,9.53c0,0,1.4,1.86,1.05,3.98c-0.35,2.12-1.36,2.26-1.36,2.26l-2.12-0.72l-7.85-8.92 c0,0-1.15-1.11-0.97-3.41c0.09-1.14,2.13-2.98,2.13-2.98S24.83,48.37,25.45,49.03z"/>
<path d="M22.16,51.4c0,0,0.35-0.91,0.88-0.85c0.53,0.06,4.06,4.18,4.06,4.18s4.28,4.62,4.5,5 c0.68,1.17,0.64,2.49,0.5,3.04c-0.28,1.11-1.2,1.33-1.2,1.33l-7.85-8.92C23.05,55.17,21.62,53.54,22.16,51.4z"/>
<path d="M22.36,51.75c0.09-0.35,0.27-0.8,0.62-0.86c0.44-0.07,3.49,3.57,3.49,3.57s3.46,3.77,3.65,4.09 c0.57,0.97,0.53,2.07,0.41,2.53c-0.23,0.93-1,1.11-1,1.11l-6.48-7.49C23.06,54.69,22.03,53.06,22.36,51.75z"/>
<path d="M54.56,49.03l-7.87,9.53c0,0-1.4,1.86-1.05,3.98c0.35,2.12,1.36,2.26,1.36,2.26l2.12-0.72l7.85-8.92 c0,0,1.15-1.11,0.97-3.41c-0.09-1.14-2.13-2.98-2.13-2.98S55.18,48.37,54.56,49.03z"/>
<path d="M57.85,51.4c0,0-0.35-0.91-0.88-0.85c-0.53,0.06-4.06,4.18-4.06,4.18s-4.28,4.62-4.5,5 c-0.68,1.17-0.63,2.49-0.5,3.04c0.28,1.11,1.2,1.33,1.2,1.33l7.85-8.92C56.96,55.17,58.39,53.54,57.85,51.4z"/>
<path d="M57.65,51.75c-0.09-0.35-0.27-0.8-0.62-0.86c-0.44-0.07-3.49,3.57-3.49,3.57s-3.46,3.77-3.65,4.09 c-0.57,0.97-0.53,2.07-0.41,2.53c0.23,0.93,1,1.11,1,1.11l6.48-7.49C56.95,54.69,57.98,53.06,57.65,51.75z"/>
</g>
<g id="Cheeks-1_Ramikadyc" fill="rgb(255, 126, 0)">
<path d="M28.12,58.56c0.79-0.28,1.91,0.7,2.48,2.17c0.58,1.47,0.4,2.89-0.39,3.17c-0.79,0.28-1.91-0.7-2.48-2.17 S27.33,58.83,28.12,58.56z"/>
<path d="M28.19,58.96c0.64-0.22,1.56,0.62,2.06,1.89c0.49,1.26,0.38,2.47-0.26,2.69c-0.64,0.22-1.56-0.62-2.06-1.89 C27.44,60.39,27.55,59.18,28.19,58.96z"/>
<path d="M28.51,59.97c0.36-0.12,0.87,0.35,1.15,1.05c0.28,0.71,0.21,1.38-0.15,1.5c-0.36,0.12-0.87-0.35-1.15-1.05 C28.09,60.77,28.15,60.1,28.51,59.97z"/>
<path d="M28.63,60.44c0.24-0.08,0.58,0.23,0.76,0.7c0.18,0.47,0.14,0.92-0.1,1c-0.24,0.08-0.58-0.23-0.76-0.7 S28.39,60.52,28.63,60.44z"/>
<path d="M30.09,57.99c0.9,0.99,1.42,1.57,1.51,1.73c0.68,1.17,0.64,2.49,0.5,3.04c-0.15,0.61-0.57,1.17-1.2,1.33 l-0.9-0.15c0.21-0.04,0.39-0.12,0.55-0.25c0.5-0.51,0.55-1.72,0.07-2.96c-0.58-1.47-1.69-2.44-2.48-2.17L30.09,57.99z"/>
<path d="M51.88,58.56c-0.79-0.28-1.9,0.7-2.48,2.17c-0.58,1.47-0.4,2.89,0.39,3.17c0.79,0.28,1.9-0.7,2.48-2.17 S52.68,58.83,51.88,58.56z"/>
<path d="M51.81,58.96c-0.64-0.22-1.56,0.62-2.06,1.89s-0.38,2.47,0.26,2.69c0.64,0.22,1.56-0.62,2.06-1.89 S52.45,59.18,51.81,58.96z"/>
<path d="M51.5,59.97c-0.36-0.12-0.87,0.35-1.15,1.05c-0.28,0.71-0.21,1.38,0.15,1.5c0.36,0.12,0.87-0.35,1.15-1.05 C51.92,60.77,51.85,60.1,51.5,59.97z"/>
<path d="M51.38,60.44c-0.24-0.08-0.58,0.23-0.76,0.7c-0.18,0.47-0.14,0.92,0.1,1c0.24,0.08,0.58-0.23,0.76-0.7 C51.66,60.97,51.61,60.52,51.38,60.44z"/>
<path d="M49.92,57.99c-0.9,0.99-1.42,1.57-1.51,1.73c-0.68,1.17-0.63,2.49-0.5,3.04c0.15,0.61,0.57,1.17,1.2,1.33 l0.9-0.15c-0.21-0.04-0.39-0.12-0.55-0.25c-0.5-0.51-0.55-1.72-0.07-2.96c0.58-1.47,1.69-2.44,2.48-2.17L49.92,57.99z"/>
</g>
<path fill="rgb(255, 126, 0)" id="Visor_Ramikadyc" d="M39.66,58.08v-0.89l-1.53-2.96l-0.24-8.75l-3.12-1.34l-1.24,0.52l-8.31-4.57l-1.2-4.78 C29,38.21,39.9,42.11,39.9,42.11s10.94-3.93,15.88-6.79l-1.2,4.78l-8.31,4.57l-1.24-0.52l-3.12,1.34l-0.24,8.75l-1.53,2.96v0.89 l3.88,2.3l-0.2-0.03l-3.91-1.61l-3.91,1.61h-0.2L39.66,58.08z M39.9,57.94L39.9,57.94z"/>
<g id="Eyes_Ramikadyc" fill="rgb(1, 17, 61)">
<path d="M55.85,35.33l1.14,2.62l0.05,3.7l-0.57,1.31l-4.24,3.7c-1.1,4.43-3.95,9-8.22,13.69l-3.83-2.35l0-0.01 l0.03,0.01v-0.81l1.53-2.96l0.24-8.75l3.12-1.34l1.24,0.52l8.31-4.57L55.85,35.33z M55.84,35.32l-0.04,0.02L55.84,35.32 L55.84,35.32z"/>
<path d="M23.95,35.33l-1.14,2.62l-0.05,3.7l0.57,1.31l4.24,3.7c1.1,4.43,3.95,9,8.22,13.69l3.83-2.35l0-0.01 l-0.03,0.01v-0.81l-1.53-2.96l-0.24-8.75l-3.12-1.34l-1.24,0.52l-8.31-4.57L23.95,35.33z M23.96,35.32L24,35.35L23.96,35.32 L23.96,35.32z"/>
</g>
<g id="Dome-2_Ramikadyc" fill="rgb(1, 17, 61)">
<path d="M44.15,40.51L42,38.63l-0.26-2.78l2.9-2.63l2.79-9.5l1.76,0.05L49.65,21l-1.4-1.02l0.52-1.22 c0,0,5.53,4.19,6.05,5.16c0.52,0.97,0.88,10.91,0.77,11.39c-0.01,0.03-0.04,0.08-0.08,0.15C52.54,37.14,47.67,39.15,44.15,40.51z "/>
<path d="M24.28,35.47c-0.05-0.07-0.07-0.12-0.08-0.15c-0.11-0.48,0.26-10.42,0.77-11.39 c0.52-0.97,6.05-5.16,6.05-5.16l0.52,1.22L30.14,21l0.47,2.78l1.76-0.05l2.79,9.5l2.9,2.63l-0.26,2.78l-2.15,1.88 C32.13,39.15,27.27,37.15,24.28,35.47z"/>
</g>
<g id="Dome-1_Ramikadyc" fill="rgb(52, 68, 83)">
<path d="M24.93,24.02c-0.5,1.4-0.84,10.83-0.73,11.3c0.01,0.03,0.03,0.08,0.08,0.15c0.05,0.03-1.37,0.6-1.37,0.6 C23.21,30.9,23.59,25.99,24.93,24.02L24.93,24.02z"/>
<path d="M54.88,24.02c0.5,1.4,0.84,10.83,0.73,11.3c-0.01,0.03-0.03,0.08-0.08,0.15c-0.05,0.03,1.37,0.6,1.37,0.6 C56.6,30.9,56.22,25.99,54.88,24.02L54.88,24.02z"/>
<path d="M35.64,40.51l2.15-1.88l0.26-2.78l-2.9-2.63l-2.79-9.5l-1.76,0.05L30.14,21l1.4-1.02l-0.52-1.22 c3.73-1.78,8.1-2.06,8.82-2.09v-0.01l0.09,0c0.01,0,0.01,0,0.01,0v0.01c0.73,0.03,5.09,0.31,8.82,2.09l-0.52,1.22l1.4,1.02 l-0.47,2.78l-1.76-0.05l-2.79,9.5l-2.9,2.63L42,38.63l2.15,1.88c-1.17,0.45-2.19,0.84-2.93,1.12l-1.27,0.41v0.03l-0.05-0.02 l-0.05,0.02v-0.03l-1.29-0.42C37.81,41.34,36.8,40.96,35.64,40.51z"/>
</g>
</g>
</g></g>
<g id="HelmetsDecals" mask="url(#HelmetsMask)"/>
<g id="Shoulders">
<g id="Left-Shoulder"><g id="Legacy-x3_Shoulder_Left" class="option" style="display: inherit;">
<path id="Plate-3_Shoulder_Left_Legacy-x3" d="M119.95,19.89l-7.33,7.47l4.29,9.25l9.66-0.51l5.11,4.66l4.55-0.32 L119.95,19.89z" fill="rgb(1, 17, 61)"/>
<path id="Trauma-Plate-3_Shoulder_Legacy-x3_Left" class="toggle" style="" d="M132.3,39.03l2.94-0.21L121.2,21.04l-6.54,6.67 l3.32,7.16l8.89-0.55L132.3,39.03z" fill="rgb(136, 163, 236)"/>
<path id="Plate-2_Shoulder_Left_Legacy-x3" d="M115.99,15.27l-5.8,8.69l5.95,8.29l9.39-2.29l5.9,3.63l4.41-1.15 L115.99,15.27z" fill="rgb(1, 17, 61)"/>
<path id="Trauma-Plate-2_Shoulder_Legacy-x3_Left" class="toggle" style="" d="M131.69,31.78l2.85-0.74l-17.1-14.9l-5.19,7.75 l4.6,6.43l8.64-2.17L131.69,31.78z" fill="rgb(78, 97, 150)"/>
<path id="Plate-1_Shoulder_Left_Legacy-x3" d="M108.85,10.82l-2.61,10.1l8.36,5.89l8.12-5.22l6.77,1.51l3.79-2.53 L108.85,10.82z" fill="rgb(1, 17, 61)"/>
<path id="Trauma-Plate-1_Shoulder_Legacy-x3_Left" class="toggle" style="" d="M129.14,21.3l2.45-1.64L110.5,11.2l-2.33,9.02 l6.47,4.56l7.43-4.88L129.14,21.3z" fill="rgb(45, 59, 97)"/>
</g></g>
<g id="Right-Shoulder"><g id="Pauldron_Shoulder_Right" class="option" style="display: inherit;">
<path id="Main_Pauldron_Shoulder_Right" d="M68.5,15.95L40.6,29.09L27.16,15.16l36.11-4.34L68.5,15.95z" fill="rgb(1, 17, 61)"/>
<g id="Plate_Pauldron_Shoulder_Right" fill="rgb(45, 59, 97)">
<path d="M29.72,15.42l11.26,11.62l24.6-11.58l-3.99-3.92L29.72,15.42z"/>
<path d="M29.24,14.91L61,11.09l-0.36-0.41l-31.6,3.68L29.24,14.91z"/>
</g>
</g></g>
</g>
<g id="ShouldersDecals" mask="url(#ShouldersMask)">
</g>
<g id="Gauntlets">
<g id="Left-Gauntlets"><g id="Basic_Gauntlet_Left" class="option" style="display: inherit;">
<path id="Top-2_Basic_Gauntlet_Left" d="M145.21,108.31l1.36-2.17l-3.89-18.32l-0.65,2.21l1.85,8.35l-0.72,2.07 L145.21,108.31z" fill="rgb(255, 126, 0)"/>
<path id="Top-1_Basic_Gauntlet_Left" d="M142.68,87.82l-0.65,2.21l1.85,8.35l-0.72,2.07l2.05,7.86l-0.9,1.43 l0.47,5.09l-1.57,0.41l-2.13-7.67l-1.46-0.54l-6.74-22.45l8.91-0.93L142.68,87.82z" fill="rgb(163, 213, 228)"/>
<g id="Accent-Bottom_Basic_Gauntlet_Left" fill="rgb(255, 126, 0)">
<path d="M129.49,91.34l-1.97,0.65l0.97,2.92l1.97-0.65L129.49,91.34z"/>
<path d="M131.16,96.45l-1.97,0.65l0.97,2.92l1.97-0.65L131.16,96.45z"/>
<path d="M132.91,101.68l-1.97,0.65l0.97,2.92l1.97-0.65L132.91,101.68z"/>
</g>
<path id="Bottom_Basic_Gauntlet_Left" d="M127.53,91.98l-0.73-2.22l6.19-4.8l6.63,22.08l-6.74,1.23l-2.71-8.25 l1.96-0.65l-0.97-2.92l-1.95,0.64l-0.72-2.19l1.97-0.65l-0.97-2.92L127.53,91.98z M132.91,101.68l-1.98,0.65l0.96,2.92l1.99-0.65 L132.91,101.68z" fill="rgb(1, 17, 61)"/>
<g id="Whistling-Birds_Attachment_Basic_Gauntlet_Left" class="option" style="display: inherit;">
<path id="Head_Whistling-Birds_Attachment_Basic_Gauntlet_Left" d="M148.09,98.4l-1.93,5.61l-1.06-4.98 L148.09,98.4z" fill="rgb(1, 17, 61)"/>
<g id="Birds_Whistling-Birds_Attachment_Basic_Gauntlet_Left" fill="rgb(201, 3, 251)">
<g>
<path d="M145.66,99.29c0.12-0.02,0.27,0.21,0.33,0.52c0.07,0.31,0.02,0.59-0.09,0.61 c-0.12,0.03-0.27-0.21-0.33-0.52C145.5,99.59,145.54,99.31,145.66,99.29z"/>
<path d="M146,100.87c0.12-0.03,0.27,0.21,0.33,0.52c0.07,0.31,0.03,0.58-0.09,0.61 c-0.12,0.03-0.27-0.21-0.33-0.52C145.84,101.17,145.88,100.9,146,100.87z"/>
<path d="M146.47,99.12c0.12-0.02,0.27,0.21,0.33,0.52c0.07,0.31,0.03,0.59-0.09,0.61 c-0.12,0.03-0.27-0.21-0.33-0.52C146.31,99.42,146.35,99.14,146.47,99.12z"/>
<path d="M146.36,103.4c-0.05-0.09-0.09-0.2-0.11-0.33c-0.07-0.31-0.03-0.59,0.09-0.61 c0.08-0.02,0.18,0.09,0.26,0.27L146.36,103.4z M146.92,101.77c-0.08-0.09-0.16-0.26-0.2-0.46c-0.07-0.31-0.02-0.58,0.09-0.61 c0.11-0.02,0.25,0.18,0.32,0.47L146.92,101.77z M147.51,100.08c-0.11,0-0.25-0.23-0.32-0.52c-0.07-0.31-0.03-0.58,0.09-0.61 c0.12-0.03,0.27,0.21,0.33,0.52c0.02,0.07,0.02,0.14,0.03,0.21L147.51,100.08z"/>
</g>
</g>
<g id="Base_Whistling-Birds_Attachment_Basic_Gauntlet_Left" fill="rgb(4, 198, 255)">
<path d="M144.7,83.41l-2.01,0.42l0.19,0.88l2.01-0.42L144.7,83.41z"/>
<path d="M145.07,84.25l-2.2,0.46l3.01,14.14l2.19-0.46L145.07,84.25z"/>
<path d="M145.39,84.34l-0.29,0.06l2.6,12.22l0.29-0.06L145.39,84.34z"/>
<path d="M144.72,84.33l-0.29,0.06l2.83,13.26l0.29-0.06L144.72,84.33z"/>
</g>
<g id="Accent_Whistling-Birds_Attachment_Basic_Gauntlet_Left" fill="rgb(2, 29, 105)">
<path d="M142.64,83.62l-0.8,0.17l3.06,14.36l0.8-0.17L142.64,83.62z"/>
<path d="M148.06,97.48l-3.16,0.66l0.19,0.88l3.16-0.66L148.06,97.48z"/>
<path d="M144.01,83.56l-1.32,0.28l0.44,2.06l1.32-0.28L144.01,83.56z"/>
<path d="M144.13,85.68l-1,0.21l1.04,4.9l0.61-2.05L144.13,85.68z"/>
</g>
</g></g>
</g>
<g id="Right-Gauntlets"><g id="Basic_Gauntlet_Right" class="option" style="display: inherit;">
<path id="Top-2_Basic_Gauntlet_Right" d="M24.75,108.31l-1.36-2.17l3.89-18.32l0.65,2.21l-1.85,8.35l0.72,2.07 L24.75,108.31z" fill="rgb(255, 126, 0)"/>
<path id="Top-1_Basic_Gauntlet_Right" d="M27.28,87.82l0.65,2.21l-1.85,8.35l0.72,2.07l-2.05,7.86l0.9,1.43 l-0.47,5.09l1.57,0.41l2.13-7.67l1.46-0.54l6.74-22.45l-8.91-0.93L27.28,87.82z" fill="rgb(163, 213, 228)"/>
<g id="Accent-Bottom_Basic_Gauntlet_Right" fill="rgb(255, 126, 0)">
<path d="M40.47,91.34l1.97,0.65l-0.97,2.92l-1.97-0.65L40.47,91.34z"/>
<path d="M38.79,96.45l1.97,0.65l-0.97,2.92l-1.97-0.65L38.79,96.45z"/>
<path d="M37.05,101.68l1.97,0.65l-0.97,2.92l-1.97-0.65L37.05,101.68z"/>
</g>
<path id="Bottom_Basic_Gauntlet_Right" d="M42.43,91.98l0.73-2.22l-6.19-4.8l-6.63,22.08l6.74,1.23l2.71-8.25 l-1.96-0.65l0.97-2.92l1.95,0.64l0.72-2.19l-1.97-0.65l0.97-2.92L42.43,91.98z M37.05,101.68l1.98,0.65l-0.96,2.92l-1.99-0.65 L37.05,101.68z" fill="rgb(1, 17, 61)"/><g id="Flamethrower_Attachment_Basic_Gauntlet_Right" class="option" style="display: inherit;">
<g id="Tubes_Flamethrower_Attachment_Basic_Gauntlet_Right" fill="rgb(101, 6, 109)">
<path d="M26.5,84.51l0.82,0.17l-5.18,24.73l-0.82-0.17L26.5,84.51z"/>
<path d="M24.63,84.13l0.82,0.17l-3.71,17.73l-0.82-0.17L24.63,84.13z"/>
<path d="M26.02,86.03l1.12,0.23l-1.23,5.89l-1.12-0.23L26.02,86.03z"/>
<path d="M24.15,85.64l1.12,0.23l-1.23,5.89l-1.12-0.23L24.15,85.64z"/>
</g>
<g id="Main_Flamethrower_Attachment_Basic_Gauntlet_Right" fill="rgb(1, 17, 61)">
<path d="M24.28,84.05l3.36,0.69l-0.32,1.55l-3.36-0.7L24.28,84.05z"/>
<path d="M22.65,91.48l3.51,0.73l-0.2,0.94l-3.51-0.73L22.65,91.48z"/>
<path d="M22.59,92.45l3.22,0.67l-0.1,0.48l-3.22-0.67L22.59,92.45z"/>
<path d="M25.92,91.54l0.54,0.13l-0.61,2.88l-0.54-0.13L25.92,91.54z"/>
</g>
<g id="Accent_Flamethrower_Attachment_Basic_Gauntlet_Right" fill="rgb(4, 198, 255)">
<path d="M20.89,101.85l0.87,0.18l-0.12,1.24l-1.14-0.24L20.89,101.85z"/>
<path d="M21.87,95.48l1.55,0.32l-0.39,1.88l-1.55-0.32L21.87,95.48z"/>
<path d="M21.69,97.4l1.12,0.23l-0.39,1.88l-1.12-0.23L21.69,97.4z"/>
<path d="M21.82,106.08l1.12,0.23l-0.54,2.57l-1.12-0.23L21.82,106.08z"/>
<path d="M23.56,97.79l1.12,0.23l-0.73,3.5l-1.12-0.23L23.56,97.79z"/>
<path d="M21.34,107.33l1.55,0.32l-0.11,0.5l-1.55-0.32L21.34,107.33z"/>
</g>
<path id="Base_Flamethrower_Attachment_Basic_Gauntlet_Right" d="M26.46,91.67l1.65-7.8l-1.01,0.17l-2.79,13.19 l0.84,0.61l0.7-3.3l-0.54-0.13l0.61-2.88L26.46,91.67z" fill="rgb(2, 29, 105)"/>
</g></g>
</g>
</g>
<g id="GauntletsDecals" mask="url(#GauntletsMask)">
</g>
<g id="Shins">
<g id="Left-Shin"><g id="Basic_Shin_Left" class="option" style="display: inherit;">
<path id="Shin_Basic-Shin_Left" d="M121.62,179.69l-5.07-5.47l-10.06,1.36l-3.67,8.71l6.88,29.05 c4.47,1.82,10.9,0.87,14.37-2.3L121.62,179.69" fill="rgb(1, 17, 61)"/>
<path id="Trauma-Plating_Basic-Shin_Left" class="toggle" style="" d="M122.31,210.31l-2.33-29.91l-4.07-4.4l-8.22,1.11 l-3.08,7.32l6.54,27.63C114.73,213.18,119.4,212.5,122.31,210.31" fill="rgb(143, 230, 255)"/>
<g id="Ridge_Basic-Shin_Left" class="toggle" style="" fill="rgb(4, 198, 255)">
<path d="M115.16,174.21l-3.57-0.34l-3.48,1.48l7.13,38.91c2.44,0.09,2.49,0.17,4.47-0.78L115.16,174.21"/>
<path d="M111.58,173.87l6.04,40.39"/>
</g>
</g>
</g>
<g id="Right-Shin"><g id="Basic_Shin_Right" class="option" style="display: inherit;">
<path id="Shin_Basic-Shin_Right" d="M48.3,179.69l5.07-5.47l10.06,1.36l3.67,8.71l-6.88,29.05 c-4.47,1.82-10.9,0.87-14.36-2.3L48.3,179.69" fill="rgb(1, 17, 61)"/>
<path id="Trauma-Plating_Basic-Shin_Right" class="toggle" style="" d="M47.62,210.31l2.33-29.91l4.07-4.4l8.22,1.11l3.08,7.32 l-6.54,27.63C55.2,213.18,50.53,212.5,47.62,210.31" fill="rgb(143, 230, 255)"/>
<g id="Ridge_Basic-Shin_Right" class="toggle" style="" fill="rgb(4, 198, 255)">
<path d="M54.77,174.21l3.57-0.34l3.48,1.48l-7.13,38.91c-2.44,0.09-2.49,0.17-4.47-0.78L54.77,174.21"/>
<path d="M58.34,173.87l-6.05,40.39"/>
</g>
</g>
</g>
</g>
<g id="ShinsDecals" mask="url(#ShinsMask)">
</g>
<g id="Foot">
<g id="Left-Ankle"><g id="Legacy_Ankle_Left" class="option" style="display: inherit;">
<path id="Plate-2_Legacy-Ankle_Left" d="M126.71,222.74l4.34,3.89l2.99,3.74l-4.78,1.55l-10.95-2.26l-4.01-5.27 L126.71,222.74" fill="rgb(1, 17, 61)"/>
<path id="Plate-1_Legacy-Ankle_Left" d="M107,215.4c0,0,4.37,1.94,10.84,1.71c4.44-0.16,6.24-1.26,6.24-1.26 l3.76,6.93l-0.97,3.82l-15.84-1.24l-3.9-3.29L107,215.4" fill="rgb(1, 17, 61)"/>
<path id="Trauma-Plate-2_Legacy-Ankle_Left" class="toggle" style="" d="M127.64,223.58l3.39,3.04l1.75,2.18l-3.64,1.18 l-9.65-1.99l-1.58-2.08l8.96,0.7L127.64,223.58" fill="rgb(142, 246, 255)"/>
<path id="Trauma-Plate-1_Legacy-Ankle_Left" class="toggle" style="" d="M108.66,217.83l0.06,3.17l3.15,2.54l13.92,1.09 l0.99-3.82l-1.77-3.27c-1.17,0.33-4.74,1.36-7.08,1.44C114.21,219.12,110.73,218.37,108.66,217.83" fill="rgb(142, 246, 255)"/>
</g></g>
<g id="Left-Toe"><g id="None_Toe_Left" class="option" style="display: inherit;">
</g>
</g>
<g id="Right-Ankle"><g id="Legacy_Ankle_Right" class="option" style="display: inherit;">
<path id="Plate-2_Legacy-Ankle_Right" d="M43.17,222.74l-4.34,3.89l-2.99,3.74l4.78,1.55l10.95-2.26l4-5.27 L43.17,222.74" fill="rgb(1, 17, 61)"/>
<path id="Plate-1_Legacy-Ankle_Right" d="M62.87,215.4c0,0-4.37,1.94-10.84,1.71c-4.44-0.16-6.24-1.26-6.24-1.26 l-3.76,6.93L43,226.6l15.84-1.24l3.9-3.29L62.87,215.4" fill="rgb(1, 17, 61)"/>
<path id="Trauma-Plate-2_Legacy-Ankle_Right" class="toggle" style="" d="M42.23,223.58l-3.39,3.04l-1.75,2.18l3.64,1.18 l9.65-1.99l1.58-2.08L43,226.6L42.23,223.58" fill="rgb(143, 230, 255)"/>
<path id="Trauma-Plate-1_Legacy-Ankle_Right" class="toggle" style="" d="M61.21,217.83L61.15,221L58,223.54l-13.92,1.09 l-0.99-3.82l1.77-3.27c1.17,0.33,4.74,1.36,7.08,1.44C55.66,219.12,59.14,218.37,61.21,217.83" fill="rgb(143, 230, 255)"/>
</g></g>
<g id="Right-Toe"><g id="None_Toe_Right" class="option" style="display: inherit;">
</g>
</g>
</g>
<g id="FootDecals" mask="url(#FootMask)">
</g>
<g id="Knees">
<g id="Left-Knee"><g id="Legacy_Knee_Left" class="option" style="display: inherit;">
<g id="Missiles_Legacy-Knee_Left" class="toggle" style="display:none"/>
<path id="Plate-2_Legacy-Knee_Left" d="M117.29,162.86l-4.01-2.79l-8.96,1.38l-3.49,3.94l2.88,9.64h7.1l6.7-2.13 L117.29,162.86z" fill="rgb(4, 198, 255)"/>
<path id="Plate-1_Legacy-Knee_Left" d="M118.65,156.34l-5.14-3.57l-11.49,1.78l-4.48,5.06l3.69,12.35l9.36-0.08 l8.32-2.65L118.65,156.34z" fill="rgb(109, 141, 231)"/>
</g></g>
<g id="Right-Knee"><g id="Legacy_Knee_Right" class="option" style="display: inherit;">
<g id="Missiles_Legacy-Knee_Right" class="toggle" style="display:none"/>
<path id="Plate-2_Legacy-Knee_Right" d="M52.6,162.86l4.01-2.79l8.97,1.38l3.49,3.94l-2.88,9.64h-7.1l-6.7-2.13 L52.6,162.86z" fill="rgb(4, 198, 255)"/>
<path id="Plate-1_Legacy-Knee_Right" d="M51.24,156.34l5.14-3.57l11.49,1.78l4.48,5.06l-3.69,12.35l-9.36-0.08 l-8.32-2.65L51.24,156.34z" fill="rgb(109, 141, 231)"/>
</g></g>
</g>
<g id="KneesDecals" mask="url(#KneesMask)">
</g>
<g id="Thighs">
<g id="Left-Thigh"><g id="Basic_Thigh_Left" class="option" style="display: inherit;">
<path id="Thigh_Basic-Thigh_Left" d="M120.21,115.6c0,0-5.03-6.43-7.59-7.49c-2.43-1.01-5.69-0.58-7.78,1.09 c-3.19,2.54-10.51,8.04-11.35,14.16c-0.93,6.83,4.08,21.95,5.78,26.84c0.58,1.66,2.77,2.41,4.44,2.48 c3.1,0.12,11.57-0.15,13.59-4.69C120.05,141.81,120.21,115.6,120.21,115.6" fill="rgb(1, 17, 61)"/>
<path id="Trauma-Plate_Basic-Thigh_Left" class="toggle" style="" d="M118.5,116.19c-0.75-0.93-2.56-3.1-4.3-4.77 c-0.83-0.79-1.62-1.49-2.25-1.75c-1.9-0.79-4.44-0.45-6.06,0.85c-1.85,1.47-5.15,3.97-7.66,7.02c-1.52,1.85-2.77,3.9-3.07,6.05 c-0.9,6.64,4.05,21.31,5.7,26.06c0.14,0.42,0.54,0.67,0.95,0.87c0.61,0.3,1.33,0.45,1.94,0.47c1.73,0.07,5.27,0.02,8.23-0.96 c1.63-0.54,3.12-1.33,3.75-2.73c0.78-1.75,1.3-5.22,1.7-9.2C118.31,129.59,118.47,118.81,118.5,116.19" fill="rgb(7, 50, 170)"/>
<g id="Ridge_Basic-Thigh_Left" class="toggle" style="" fill="rgb(4, 198, 255)">
<path d="M111.72,107.57l-3.48-0.89l-3.64,1.99l1.18,44.01c2.4,0.46,2.43,0.55,4.54-0.08L111.72,107.57"/>
<path d="M108.28,106.69l-0.1,46.36"/>
</g>
</g>
</g>
<g id="Right-Thigh"><g id="Basic_Thigh_Right" class="option" style="display: inherit;">
<path id="Thigh_Basic-Thigh_Right" d="M49.69,115.6c0,0,5.03-6.43,7.59-7.49c2.43-1.01,5.69-0.58,7.78,1.09 c3.19,2.54,10.51,8.04,11.35,14.16c0.93,6.83-4.08,21.95-5.78,26.84c-0.58,1.66-2.77,2.41-4.44,2.48 c-3.1,0.12-11.57-0.15-13.59-4.69C49.85,141.81,49.69,115.6,49.69,115.6" fill="rgb(1, 17, 61)"/>
<path id="Trauma-Plate_Basic-Thigh_Right" class="toggle" style="" d="M51.39,116.19c0.75-0.93,2.56-3.1,4.3-4.77 c0.83-0.79,1.62-1.49,2.25-1.75c1.9-0.79,4.44-0.45,6.06,0.85c1.85,1.47,5.15,3.97,7.66,7.02c1.52,1.85,2.77,3.9,3.07,6.05 c0.9,6.64-4.05,21.31-5.7,26.06c-0.14,0.42-0.54,0.67-0.95,0.87c-0.61,0.3-1.33,0.45-1.94,0.47c-1.73,0.07-5.27,0.02-8.23-0.96 c-1.63-0.54-3.12-1.33-3.75-2.73c-0.78-1.75-1.3-5.22-1.7-9.2C51.59,129.59,51.42,118.81,51.39,116.19" fill="rgb(7, 50, 170)"/>
<g id="Ridge_Basic-Thigh_Right" class="toggle" style="" fill="rgb(4, 198, 255)">
<path d="M58.17,107.57l3.48-0.89l3.64,1.99l-1.18,44.01c-2.4,0.46-2.43,0.55-4.54-0.08L58.17,107.57"/>
<path d="M61.62,106.69l0.1,46.36"/>
</g>
</g>
</g>
</g>
<g id="ThighsDecals" mask="url(#ThighsMask)">
</g>
<g id="Groin"><g id="Basic_Groin" class="option" style="display: inherit;">
<path id="Groin-Plate_Basic" d="M78.67,122.29L68.22,99.4h33.42l-10.45,22.89l-6.26,5.46L78.67,122.29z" fill="rgb(1, 17, 61)"/>
<path id="Trauma-Plating_Groin" class="toggle" style="display:none" d="M79.77,120.38l-8.61-18.86H98.7l-8.61,18.86l-5.16,4.49L79.77,120.38z" fill="rgb(255, 255, 255)"/>
</g>
</g>
<g id="GroinDecals" mask="url(#GroinMask)">
</g>
<g id="Waist">
<g id="Accessories_Waist">
<g id="Kama" class="toggle" style="">
<g id="Clean_Kama" class="option" style="display: inherit;">
<g id="Trim_Kama-Clean" fill="rgb(209, 70, 217)">
<path d="M101.37,83.6l3.59,57.21l26.42,17.47l-20.04-77.38L101.37,83.6z"/>
<path d="M68.55,83.6l-3.59,57.21l-26.42,17.47l20.04-77.38L68.55,83.6z"/>
</g>
<g id="Main_Kama-Clean" fill="rgb(45, 59, 97)">
<path d="M103.25,83.48l3.47,55.33l23.83,16.29l-19.22-74.21L103.25,83.48z"/>
<path d="M66.67,83.48l-3.47,55.33L39.36,155.1l19.22-74.21L66.67,83.48z"/>
</g>
</g></g>
<g id="Loin-Cloth" class="toggle" style="">
<g id="Clean_Loin-Cloth" class="option" style="display: inherit;">
<path id="Trim_Loin-Cloth-Clean" d="M97.6,87.28H72.32v44.75l12.64,12.57l12.64-12.57V87.28z" fill="rgb(232, 81, 227)"/>
<path id="Main_Loin-Cloth-Clean" d="M95.98,91.99H73.94v39.01l11.02,10.96l11.02-10.96V91.99z" fill="rgb(52, 68, 83)"/>
</g></g>
<g id="Left-Holster" class="toggle" style="display:none"/>
<g id="Right-Holster" class="toggle" style="display:none"/>
<g id="Left-Trophy" class="toggle" style="display:none"/>
<g id="Right-Trophy" class="toggle" style="display:none"/>
</g>
<g id="Under-Belt">
<g id="Sash" class="option" fill="rgb(249, 136, 198)" style="display: inherit;">
<path d="M56.68,79.7c2.57-0.54,6.55,1.03,9.91,1.3c3.6,0.29,7.2,0.03,10.79,0.27c2.1,0.14,4.17,0.66,6.25,0.94 c4.01,0.53,8.02,0.25,12.02-0.26c1.05-0.14,2.13-0.16,3.17-0.37c2.62-0.54,6.03-1.14,8.28-2.19c2-0.5,4.01-0.58,5.89-0.12 c1.91,0.47,0.57,4.25,0.66,5.8c0.09,1.64,1.27,8.06,1.98,9.56c0.78,1.66,1.4,3.47-0.88,4.56c-1.91,0.91-3.95,0.09-5.89-0.17 c-2.29-0.3-4.57-0.15-6.83,0.29c-2.77,0.54-5.51,1.53-8.33,1.79c-3.78,0.35-7.58-0.34-11.36-0.29c-2.17,0.03-4.26,0.73-6.43,0.56 c-3.64-0.29-6.95-1.77-10.48-2.11c-1.78-0.17-3.55,0.23-5.32,0.24c-1.22,0-2.36-0.33-3.54-0.62c-1.17-0.28-2.27-0.17-2.91-1.27 c-0.48-0.83,0.54-3.07,1.03-3.78c1.26-1.81,1.6-8.21,1.14-10.26C55.43,81.83,54.9,80.08,56.68,79.7z"/>
<path d="M54.09,94.91c4.02-0.01,7.54-0.09,11.16,1.3c12.27,4.7,11.99,4.06,17.21,4.59 c7.68,0.78,10.74,0.49,13.92-0.22c1.28-0.29,2.57-0.7,3.72-1.28c2.04-1.03,4.03-2.09,5.85-3.53c2.21-1.75,6.07-2.92,9.17-2.78 c0,0-0.6-2.02-1.46-7.99c-0.22-1.55,0.76-3.24-0.01-5.33c-0.33-0.9-3.38-0.65-5.45-0.49c-4.09,0.33-5.9,3.28-9.05,5.62 c-1.84,1.37-4.02,2.99-6.74,3.86c-4.28,1.38-10.94,2.01-23.58-2.18c-4.12-1.36-7.61-3.95-13.05-3.12c0,0,0.2,2.78,0.2,4.17 C55.98,92,54.09,94.91,54.09,94.91z"/>
</g></g>
<g id="Belt"><g id="Pouch-Belt-4" class="option" style="display: inherit;">
<path id="Main_Pouch-Belt-4" d="M115.21,92.95c-6.82,0.61-22.4,2.83-30.27,2.83c-7.94,0-23.52-2.23-30.26-2.82 l1.01-7.93c5.53,0.49,21.56,2.74,29.26,2.74c7.47,0,23.17-2.23,29.07-2.76L115.21,92.95z" fill="rgb(46, 24, 3)"/>
<rect id="Buckle_Pouch-Belt-4" x="79.37" y="87.01" width="11.28" height="9.21" fill="rgb(37, 37, 37)"/>
<g id="Pouches_Pouch-Belt-4" fill="rgb(80, 41, 4)">
<g>
<g>
<path d="M59.65,83.47c-0.31-0.02-0.62,0.03-0.91,0.16c-0.67,0.29-1.86,0.81-1.86,0.81l7.38,0.42l2-0.95 C66.26,83.91,61.24,83.57,59.65,83.47z"/>
<path d="M66.52,84.19c0.01-0.09-0.03-0.17-0.1-0.22c-0.07-0.05-0.17-0.06-0.24-0.02c-0.66,0.31-1.91,0.9-1.91,0.9 l-1.02,12.42c0.65-0.41,1.29-0.68,1.93-0.85c0.39-0.09,0.68-0.44,0.69-0.84C65.99,91.78,66.15,87.98,66.52,84.19z"/>
<path d="M64.26,84.85l-7.38-0.42c-0.06,1.89-0.23,3.77-0.33,5.65c-0.11,2.08-0.16,4.17-0.34,6.28 c-0.01,0.15,0.04,0.3,0.14,0.41s0.25,0.18,0.4,0.17c2.08-0.01,4.15,0.11,6.22,0.36c0.14,0.02,0.29-0.02,0.4-0.12 c0.11-0.09,0.18-0.23,0.19-0.37c0.1-1.47,0.37-5.33,0.37-5.33L64.26,84.85z"/>
<path d="M64.26,84.85l-7.38-0.42c0,0-0.18,1.6-0.36,3.15c-0.09,0.75,0.14,1.51,0.63,2.08 c0.49,0.58,1.2,0.93,1.96,0.97c0.73,0.04,1.51,0.08,2.23,0.13c0.76,0.04,1.51-0.23,2.06-0.75c0.55-0.52,0.87-1.25,0.86-2 C64.26,86.46,64.26,84.85,64.26,84.85z"/>
<path d="M60.31,89.23c0.26,0.01,0.46,0.26,0.44,0.54c-0.02,0.28-0.24,0.5-0.5,0.49 c-0.26-0.01-0.46-0.26-0.44-0.54C59.83,89.44,60.05,89.22,60.31,89.23z"/>
</g>
</g>
<g>
<path d="M52.22,84.29l0.55-0.85l2.83,0.09l0.35,1.06L52.22,84.29z"/>
<path d="M55.93,84.69c0.01-0.07-0.01-0.13-0.06-0.18c-0.04-0.05-0.11-0.08-0.17-0.08 c-0.85-0.03-3.48-0.13-3.48-0.13l-0.5,11.17c0.11,0.28,1.53,0.46,2.68,0.49c0.5,0.01,0.91-0.38,0.92-0.88 C55.4,91.61,55.53,88.14,55.93,84.69z"/>
</g>
<g>
<g>
<path d="M110.24,83.47c0.31-0.02,0.62,0.03,0.91,0.16c0.67,0.29,1.86,0.81,1.86,0.81l-7.38,0.42l-2-0.95 C103.63,83.91,108.65,83.57,110.24,83.47z"/>
<path d="M103.37,84.19c-0.01-0.09,0.03-0.17,0.1-0.22c0.07-0.05,0.17-0.06,0.24-0.02c0.66,0.31,1.91,0.9,1.91,0.9 l1.02,12.42c-0.65-0.41-1.29-0.68-1.93-0.85c-0.39-0.09-0.68-0.44-0.69-0.84C103.9,91.78,103.74,87.98,103.37,84.19z"/>
<path d="M105.63,84.85l7.38-0.42c0.06,1.89,0.23,3.77,0.33,5.65c0.11,2.08,0.16,4.17,0.34,6.28 c0.01,0.15-0.04,0.3-0.14,0.41c-0.1,0.11-0.25,0.18-0.4,0.17c-2.08-0.01-4.15,0.11-6.22,0.36c-0.14,0.02-0.29-0.02-0.4-0.12 c-0.11-0.09-0.18-0.23-0.19-0.37c-0.1-1.47-0.37-5.33-0.37-5.33L105.63,84.85z"/>
<path d="M105.63,84.85l7.38-0.42c0,0,0.18,1.6,0.36,3.15c0.09,0.75-0.14,1.51-0.63,2.08 c-0.49,0.58-1.2,0.93-1.96,0.97c-0.72,0.04-1.5,0.08-2.23,0.13c-0.76,0.04-1.51-0.23-2.06-0.75c-0.55-0.52-0.87-1.25-0.86-2 C105.63,86.46,105.63,84.85,105.63,84.85z"/>
<path d="M109.58,89.23c-0.26,0.01-0.46,0.26-0.44,0.54c0.02,0.28,0.24,0.5,0.5,0.49 c0.26-0.01,0.46-0.26,0.44-0.54C110.07,89.44,109.84,89.22,109.58,89.23z"/>
</g>
</g>
<g>
<path d="M117.67,84.29l-0.55-0.85l-2.83,0.09l-0.35,1.06L117.67,84.29z"/>
<path d="M113.96,84.69c-0.01-0.07,0.01-0.13,0.06-0.18c0.04-0.05,0.11-0.08,0.18-0.08 c0.85-0.03,3.48-0.13,3.48-0.13l0.5,11.17c-0.11,0.28-1.53,0.46-2.68,0.49c-0.5,0.01-0.91-0.38-0.92-0.88 C114.49,91.61,114.36,88.14,113.96,84.69z"/>
</g>
</g>
</g></g>
</g>
<g id="WaistDecals" mask="url(#WaistMask)">
</g>
<g id="Extras_Front">
<g id="Front"><g id="None_Front" class="option" style="display: inherit;">
</g>
</g>
</g>
<g id="Extras-FrontDecals" mask="url(#FrontMask)">
</g>
</g>
</svg>