<?xml version='1.0' encoding='UTF-8'?><svg version='1.1' xmlns='http://www.w3.org/2000/svg'><metadata><rdf:rdf xmlns:rdf="http://www.w3.org/1999/02/22-rdf-syntax-ns#" xmlns:rdfs="http://www.w3.org/2000/01/rdf-schema#" xmlns:dc="http://purl.org/dc/elements/1.1/"> <rdf:description> <dc:creator>MandoCreator</dc:creator> <dc:publisher>https://www.mandocreator.com</dc:publisher> <dc:description>Your Beskar'gam - created by MandoCreator</dc:description> <dc:format>image/svg+xml</dc:format> <dc:type>Image</dc:type> <dc:title>MandoCreator - Ner Berskar'gam</dc:title> <dc:date>2021-10-08T16:59:36.846Z</dc:date> </rdf:description> </rdf:rdf></metadata><svg version="1.1" id="Male" xmlns="http://www.w3.org/2000/svg" xmlns:xlink="http://www.w3.org/1999/xlink" x="0px" y="0px" viewBox="0 -55 169 300" style="fill: white; fill-rule: evenodd; stroke: black; stroke-width: 0.2px; pointer-events: none; position: relative; height: 100%;">
<g id="Extras_Back">
<g id="Back"><g id="NO-CAPES_Back" class="option" style="display: inherit;">
</g>
</g>
</g>
<g id="Suit">
<g id="Neck-Seal">
<g id="Standard-Neck-Seal" class="option" style="fill: rgb(52, 68, 83); display: inherit;">
<path d="M98,7.5c0-0.9-0.9-1.6-2.1-1.6c0,0-7.8,0.9-11.6,0.9c-3.9,0-11.6-0.9-11.6-0.9c-1.1,0-2.1,0.7-2.1,1.6 s0.9,1.6,2.1,1.6c0,0,7.8,0.9,11.6,0.9C88.2,10,96,9.2,96,9.2C97.1,9.2,98,8.4,98,7.5z"/>
<path d="M98.7,9.4c0-0.9-1-1.7-2.2-1.7c0,0-8.1,0.9-12.2,0.9c-4.1,0-12.2-0.9-12.2-0.9c-1.2,0-2.2,0.8-2.2,1.7 c0,0.9,1,1.7,2.2,1.7c0,0,8.1,0.9,12.2,0.9c4.1,0,12.2-0.9,12.2-0.9C97.8,11.1,98.7,10.4,98.7,9.4z"/>
<path d="M99.5,11.8c0-1-1-1.8-2.3-1.8c0,0-8.6,0.9-12.9,0.9C80,10.9,71.4,10,71.4,10c-1.3,0-2.3,0.8-2.3,1.8 s1,1.8,2.3,1.8c0,0,8.6,0.9,12.9,0.9c4.3,0,12.9-0.9,12.9-0.9C98.5,13.6,99.5,12.8,99.5,11.8z"/>
<path d="M100.3,13.9c0-1-1.1-1.9-2.4-1.9c0,0-9,1-13.5,1s-13.5-1-13.5-1c-1.3,0-2.4,0.8-2.4,1.9s1.1,1.9,2.4,1.9 c0,0,9,1,13.5,1s13.5-1,13.5-1C99.2,15.8,100.3,15,100.3,13.9z"/>
<path d="M101,16.1c0-0.8-1.1-1.4-2.5-1.4c0,0-9.4,0.7-14.2,0.7c-4.8,0-14.2-0.7-14.2-0.7c-1.4,0-2.5,0.6-2.5,1.4 c0,0.8,1.1,1.4,2.5,1.4c0,0,9.4,0.8,14.2,0.8c4.8,0,14.2-0.8,14.2-0.8C99.9,17.5,101,16.9,101,16.1z"/>
<path d="M101,18.4c0-0.8-1.1-1.4-2.5-1.4c0,0-9.4,0.7-14.2,0.7c-4.8,0-14.2-0.7-14.2-0.7c-1.4,0-2.5,0.6-2.5,1.4 c0,0.8,1.1,1.4,2.5,1.4c0,0,9.4,1.4,14.2,1.4c4.8,0,14.2-1.4,14.2-1.4C99.9,19.9,101,19.2,101,18.4z"/>
</g>
</g>
<g id="Flight-Suit" style="fill: rgb(52, 68, 83);">
<path d="M72.8,158.4l-1.5,8.7l-11,53.1c0,0-4.9,3-7.4,3.5s-7.7-0.4-7.7-0.4l3.8-43l2.9-18.4l0.7-7.8 c0,0-2.5-22.8-1.7-34.1c0.8-11.4,6.6-34,6.6-34l26.8,0.6l26.8-0.6c0,0,5.8,22.6,6.6,34c0.8,11.4-1.7,34.1-1.7,34.1l0.7,7.8 l2.9,18.4l3.8,43c0,0-5.3,1.2-7.8,0.7s-7.3-3.7-7.3-3.7l-11-53.1l-1.5-8.7l-11.6-30.3L72.8,158.4z"/>
<g>
<path d="M128.5,43.3l11.9,41.6l1,21.5l-9.5,1.8l-6-20.2l-13.6-33.9l0.7-15.5l2.3-3.7L128.5,43.3z"/>
<path d="M40.3,43.3l13.1-8.4l2.3,3.7l0.5,16L42.8,88l-6,20.2l-9.5-1.8l1-21.5L40.3,43.3z"/>
</g>
</g>
<g id="Sleeves" class="toggle" style="fill: rgb(52, 68, 83);">
<g>
<path d="M111.4,56.1l2.7,5.9c0,0,4.2-3.2,7-4.8c2.8-1.6,4.3-2.6,6.9-3.6c2.5-1,5-1.5,5-1.5l-6-12.2l-5.8-9.7 l-11.5,5.1L111.4,56.1z"/>
<path d="M112.8,59.2c-0.2-0.2,5-4.5,8.6-6.3c3.5-1.8,10.2-3.7,10.2-3.7"/>
</g>
<g>
<path d="M57.3,56.1L54.6,62c0,0-4.2-3.2-7-4.8c-2.8-1.6-4.4-2.6-6.9-3.6s-5-1.5-5-1.5l6-12.2l5.8-9.7L59,35.4 L57.3,56.1z"/>
<path d="M55.9,59.2c0.2-0.2-5-4.5-8.6-6.3c-3.5-1.8-10.2-3.7-10.2-3.7"/>
</g>
</g>
</g>
<g id="Boots">
<g id="Basic_Boots" class="option" style="display: inherit;">
<g id="Main_Basic-Boot" style="fill: rgb(42, 41, 41);">
<path d="M108.3,216.7c1.4,0,3.2,0.9,4.5,1.1c1.4,0.2,2.9,0.2,4.3,0.1l0.6-0.1h0.7c0.3,0,0.7-0.1,1-0.2l0.5-0.1h0.2 l0.4-0.1l0.3-0.1h0.1c1.1-0.3,2.2-0.7,2.2-0.7c0.3,1.4,0.5,3.1,1.1,4.5c1,2.1,0.9,3.1,2.6,4.7c1.1,1.1,4.1,3.1,5.4,3.9 c0.6,0.4,1.2,0.6,1.8,0.9h0.1c2.5,0.9,5.2,1.3,6.5,4c0.3,0.6,0.5,1.3,0.5,2c-0.1,0.9-1,1-1.7,1.2c-1.8,0.5-3.4,0.9-5.5,1.4 c-2.4,0.5-4.6,0.9-7.1,0.8c-1.8-0.1-3.4-0.1-5-1.1c-0.6-0.4-1.3-0.8-1.9-1.3c-1.3-1.1-2.1-2.4-3.7-3c-1.2-0.5-2.4-0.9-3.6-1.2 c-1.8-0.4-4.3-1-5.2-2.7c-0.4-1.3,0-1.9,0.1-3.1l0.1-0.5c0.1-0.7,0.2-1.5,0.3-2.3c0.1-1.5-0.3-3-0.4-4.5 c-0.1-0.9-0.1-1.7-0.1-2.6c0-0.1-0.1-0.8,0.1-0.8c0.2-0.1,0.4-0.1,0.6-0.1L108.3,216.7z"/>
<path d="M60.5,216.7c-1.4,0-3.2,0.9-4.5,1.1c-1.4,0.2-2.9,0.2-4.3,0.1l-0.6-0.1h-0.7c-0.3,0-0.7-0.1-1-0.2l-0.5-0.1 h-0.2l-0.4-0.1l-0.3-0.1h-0.1c-1.1-0.3-2.2-0.7-2.2-0.7c-0.3,1.4-0.5,3.1-1.1,4.5c-1,2.1-0.9,3.1-2.6,4.7 c-1.1,1.1-4.1,3.1-5.4,3.9c-0.6,0.4-1.2,0.6-1.8,0.9h-0.1c-2.5,0.9-5.2,1.3-6.5,4c-0.3,0.6-0.5,1.3-0.5,2c0.1,0.9,1,1,1.7,1.2 c1.8,0.5,3.4,0.9,5.5,1.4c2.4,0.5,4.6,0.9,7.1,0.8c1.8-0.1,3.4-0.1,5-1.1c0.6-0.4,1.3-0.8,1.9-1.3c1.3-1.1,2.1-2.4,3.7-3 c1.2-0.5,2.4-0.9,3.6-1.2c1.8-0.4,4.3-1,5.2-2.7c0.4-1.3,0-1.9-0.1-3.1l-0.1-0.5c-0.1-0.7-0.2-1.5-0.3-2.3 c-0.1-1.5,0.3-3,0.4-4.5c0.1-0.9,0.1-1.7,0.1-2.6c0-0.1,0.1-0.8-0.1-0.8c-0.2-0.1-0.4-0.1-0.6-0.1L60.5,216.7z"/>
</g>
<g id="Bottom_Basic-Boot" style="fill: rgb(0, 0, 0);">
<path d="M107.4,230.6c0.5,0.9,1.3,1.4,2.3,1.9c0.9,0.4,1.9,0.6,2.9,0.9c0.1,0,0.3,0.1,0.4,0.1 c0.2,0.1,0.4,0.1,0.6,0.2c0.1,0,0.1,0,0.2,0.1h0.1c0.1,0,0.1,0,0.2,0.1h0.1c0.1,0,0.2,0.1,0.3,0.1h0.2c0.2,0.1,0.3,0.1,0.5,0.2 h0.1c0.1,0.1,0.3,0.1,0.4,0.2h0.1c0.1,0,0.2,0.1,0.3,0.1h0.1c0.3,0.1,0.5,0.2,0.7,0.4h0.1c0.1,0,0.1,0.1,0.2,0.1 c0.1,0,0.1,0.1,0.2,0.1h0.1l0.1,0.1c0.3,0.2,0.5,0.5,0.8,0.7l1.5,1.5c0.1,0,0.1,0.1,0.2,0.1c0.1,0.1,0.2,0.1,0.3,0.2 c0.1,0,0.1,0.1,0.2,0.1c0.1,0.1,0.1,0.1,0.2,0.2c0,0,0.1,0,0.1,0.1c0.1,0.1,0.2,0.1,0.3,0.2c0.1,0,0.2,0.1,0.2,0.1l0.1,0.1 l0.2,0.1l0.1,0.1h0.2c0.1,0.1,0.2,0.1,0.3,0.2c0.1,0,0.1,0,0.2,0.1h0.1c0.3,0.1,0.7,0.3,1,0.3h1.5c0.2,0,0.4,0,0.7,0.1h3.5 c0.4,0,0.8-0.1,1.2-0.1h0.8c0.3-0.1,0.7-0.1,1-0.2h0.7c0.1,0,0.2,0,0.3-0.1h0.1c0.1,0,0.2,0,0.3-0.1c0.1,0,0.2,0,0.3-0.1 c0.6-0.1,1.1-0.2,1.6-0.4h0.2c0.1,0,0.3-0.1,0.4-0.1h0.3c0.2,0,0.4-0.1,0.6-0.1c0.1,0,0.2-0.1,0.3-0.1c0.3-0.1,0.7-0.2,1-0.3h0.5 c0.3-0.1,0.5-0.1,0.8-0.2h0.2l0.3-0.1h1.1c0.1-0.1,0.2-0.2,0.2-0.2s0.5,0.7,0.5,2c-1.1,1.6-4.6,2.1-9.4,2.8 c-4.8,0.6-7.7,0.5-9.7-0.3c-2-0.9-5.5-4.9-8-5.2c-2.5-0.2-5.5-1.5-6.7-2.3c-0.6-0.4-0.4-3-0.4-3L107.4,230.6z"/>
<path d="M61.4,230.6c-0.5,0.9-1.3,1.4-2.3,1.9c-0.9,0.4-1.9,0.6-2.9,0.9c-0.1,0-0.3,0.1-0.4,0.1 c-0.2,0.1-0.4,0.1-0.6,0.2c-0.1,0-0.1,0-0.2,0.1h-0.1c-0.1,0-0.1,0-0.2,0.1h-0.1c-0.1,0-0.2,0.1-0.3,0.1h-0.2 c-0.2,0.1-0.3,0.1-0.5,0.2h-0.1c-0.1,0.1-0.3,0.1-0.4,0.2H53c-0.1,0-0.2,0.1-0.3,0.1h-0.1c-0.3,0.1-0.5,0.2-0.7,0.4h-0.1 c-0.1,0-0.1,0.1-0.2,0.1c-0.1,0-0.1,0.1-0.2,0.1h-0.1l-0.1,0.1c-0.3,0.2-0.5,0.5-0.8,0.7l-1.5,1.5c-0.1,0-0.1,0.1-0.2,0.1 c-0.1,0.1-0.2,0.1-0.3,0.2c-0.1,0-0.1,0.1-0.2,0.1c-0.1,0.1-0.1,0.1-0.2,0.2c0,0-0.1,0-0.1,0.1c-0.1,0.1-0.2,0.1-0.3,0.2 c-0.1,0-0.2,0.1-0.2,0.1l-0.1,0.1l-0.2,0.1l-0.1,0.1h-0.2c-0.1,0.1-0.2,0.1-0.3,0.2c-0.1,0-0.1,0-0.2,0.1h-0.1 c-0.3,0.1-0.7,0.3-1,0.3h-1.5c-0.2,0-0.4,0-0.6,0.1h-3.5c-0.4,0-0.8-0.1-1.2-0.1h-0.8c-0.3-0.1-0.7-0.1-1-0.2h-0.7 c-0.1,0-0.2,0-0.3-0.1h-0.1c-0.1,0-0.2,0-0.3-0.1c-0.1,0-0.2,0-0.3-0.1c-0.6-0.1-1.1-0.2-1.6-0.4h-0.2c-0.1,0-0.3-0.1-0.4-0.1 h-0.3c-0.2,0-0.4-0.1-0.6-0.1c-0.1,0-0.2-0.1-0.3-0.1c-0.3-0.1-0.7-0.2-1-0.3H30c-0.3-0.1-0.5-0.1-0.8-0.2H29l-0.3-0.1h-1 c-0.1-0.1-0.2-0.2-0.2-0.2s-0.5,0.7-0.5,2c1.1,1.6,4.6,2.1,9.4,2.8c4.8,0.6,7.7,0.5,9.7-0.3c2-0.9,5.5-4.9,8-5.2 c2.5-0.2,5.5-1.5,6.7-2.3c0.6-0.4,0.4-3,0.4-3L61.4,230.6z"/>
</g>
<g id="Top_Basic-Boot" style="fill: rgb(52, 68, 83);">
<path d="M121.1,217.2c0.7,3.3,1.7,6.1,3.9,8.8c3.4,4.3,9.1,4.6,13.1,8.1c1,0.9,1,2.3,1.1,3.6c-1.7,0.5-3.1,0.8-5,1.3 c-0.1-1.3,0.1-2.8-1-3.7c-4-3.5-10.3-3.3-13.6-7.6c-2.2-2.8-2.2-6.4-2.9-9.7h0.3l0.6-0.1h0.7c0.3,0,0.7-0.1,1-0.2l0.5-0.1h0.2 l0.4-0.1l0.3-0.1h0.1C121,217.3,121.1,217.2,121.1,217.2z"/>
<path d="M47.6,217.2c-0.7,3.3-1.7,6.1-3.9,8.8c-3.4,4.3-9.1,4.6-13.1,8.1c-1,0.9-1,2.3-1.1,3.6 c1.6,0.5,3.1,0.8,5,1.3c0.1-1.3-0.1-2.8,1-3.7c4-3.5,10.3-3.3,13.6-7.6c2.2-2.8,2.2-6.4,2.9-9.7h-0.3l-0.6-0.1h-0.7 c-0.3,0-0.7-0.1-1-0.2l-0.5-0.1h-0.2l-0.4-0.1l-0.3-0.1h-0.1C47.8,217.3,47.7,217.2,47.6,217.2z"/>
</g>
<g id="Side_Basic-Boot" style="fill: rgb(52, 68, 83);">
<path d="M108.7,216.8c1.4,0.1,2.9,0.9,4.1,1.1h0.2v1.2c0,2-0.2,10.8-0.6,10.7c-0.4,0-1.6-0.2-1.9-0.5 c-0.2-0.2-0.2-0.7-0.3-1c-0.2-0.9-0.4-1.7-0.5-2.6c-0.2-1.2-0.3-2.4-0.4-3.5C109.2,220.3,108.9,218.6,108.7,216.8z"/>
<path d="M60.1,216.8c-1.4,0.1-2.9,0.9-4.1,1.1h-0.2v1.2c0,2,0.2,10.8,0.6,10.7c0.4,0,1.6-0.2,1.9-0.5 c0.2-0.2,0.2-0.7,0.3-1c0.2-0.9,0.4-1.7,0.5-2.6c0.2-1.2,0.3-2.4,0.4-3.5C59.6,220.3,59.9,218.6,60.1,216.8z"/>
</g>
</g>
</g>
<g id="Gloves">
<g id="Left-Glove">
<g id="Basic_Left_Glove" class="option" style="fill: rgb(52, 68, 83); display: inherit;">
<path d="M137.6,124.1c-0.5,0-1,0-1.6,0.1c-0.4,0.1-0.7,0.2-1,0.3c-1,0.6-0.7,1.8,0.2,2.3c1,0.6,2.6,0,3.1-1.1 C138.5,125.3,137.9,124.5,137.6,124.1"/>
<path d="M135.8,125.2c-0.5,0-1,0-1.6,0.1c-0.4,0.1-0.7,0.2-1,0.3c-1,0.6-0.7,1.8,0.2,2.3c1,0.5,2.6,0,3.1-1.1 C136.7,126.4,136.1,125.6,135.8,125.2"/>
<path d="M134.5,126.6c-0.5,0-1.2,0.1-1.7,0.3c-0.3,0.1-0.7,0.3-1,0.5c-0.9,0.7-0.5,1.9,0.5,2.2 c1.1,0.4,2.6-0.3,2.9-1.5C135.4,127.7,134.5,126.6,134.5,126.6z"/>
<path d="M131.6,110c0,0-1.6,2.1-2,3.7c-0.3,1.1-0.1,3.7-0.5,5.4c-0.4,1.7-0.7,2.7-0.7,2.7s-1.4,2.8-1.1,3.4 c0.2,0.6,1.4,1.2,2.1,0.9c0.9-0.4,1.9-2.4,2.6-3.8c0.7-1.4,1.2-3.4,1.2-3.4s0.9,0.3,1.4,0.7c1.6,1.2,0.9,5,0.9,5 s-0.7,1.3-1.7,2.8c-1.4,2-3.4,3.8-2.1,5.4c1.3,1.5,4.2-2.4,4.2-2.4l2.9-3.7c0,0,3.3-5.4,3.4-6.5c0.1-0.8,0-3.5,0-3.5l-1-10.4 l-5.2,0.4l-4.3,1.4L131.6,110"/>
</g>
</g>
<g id="Right-Glove">
<g id="Basic_Right_Glove" class="option" style="fill: rgb(52, 68, 83); display: inherit;">
<path d="M31.1,124.1c0.5,0,1,0,1.6,0.1c0.4,0.1,0.7,0.2,1,0.3c1,0.6,0.7,1.8-0.2,2.3c-1,0.6-2.6,0-3.1-1.1 C30.3,125.3,30.9,124.5,31.1,124.1"/>
<path d="M32.9,125.2c0.5,0,1,0,1.6,0.1c0.4,0.1,0.7,0.2,1,0.3c1,0.6,0.7,1.8-0.2,2.3c-1,0.5-2.6,0-3.1-1.1 C32.1,126.4,32.7,125.6,32.9,125.2"/>
<path d="M34.2,126.6c0.5,0,1.2,0.1,1.7,0.3c0.3,0.1,0.7,0.3,1,0.5c0.9,0.7,0.5,1.9-0.5,2.2c-1.1,0.4-2.6-0.3-2.9-1.5 C33.3,127.7,34.2,126.6,34.2,126.6z"/>
<path d="M37.1,110c0,0,1.5,2.1,2,3.7c0.3,1.1,0.1,3.7,0.5,5.4c0.4,1.7,0.7,2.7,0.7,2.7s1.4,2.8,1.1,3.4 c-0.2,0.6-1.4,1.2-2.1,0.9c-0.9-0.4-1.9-2.4-2.6-3.8c-0.7-1.4-1.2-3.4-1.2-3.4s-0.9,0.3-1.4,0.7c-1.6,1.2-0.9,5-0.9,5 s0.7,1.3,1.7,2.8c1.4,2,3.4,3.8,2.1,5.4c-1.3,1.5-4.2-2.4-4.2-2.4l-2.9-3.7c0,0-3.3-5.4-3.4-6.5c-0.1-0.8,0-3.5,0-3.5l1-10.4 l5.2,0.4l4.3,1.4L37.1,110"/>
</g>
</g>
</g>
<g id="Biceps">
<g id="Left-Biceps">
<g id="Basic_Biceps_Left" class="option" style="display: inherit;">
<path id="Main_Basic_Biceps_Left" d="M133.5,52c-1.1-2.7-6.2-14.8-6.2-14.8s-8.3,3.4-10.4,4.3 c-0.6,0.2-0.9,0.9-0.6,1.5c1,2.4,3.4,8.1,4.8,11.7c0.3,0.8,1,1.5,1.8,1.8c0.8,0.3,1.7,0.3,2.5,0c2.4-1,5.7-2.4,7.4-3 C133.5,53.2,133.8,52.6,133.5,52" style="fill: rgb(1, 17, 61);"/>
<path id="Strap_Basic_Biceps_Left" d="M118.6,48.3l-5.8,2.4l-0.1,4.3l7.4-3.1L118.6,48.3" style="fill: rgb(78, 47, 16);"/>
<path id="Trauma-Plate_Basic_Biceps_Left" class="toggle" style="fill: rgb(136, 163, 236);" d="M133.5,51.4l-5.3-12.7l-10.1,4.2l4.6,11.2 c0.2,0.4,0.5,0.7,0.9,0.9s0.8,0.2,1.2,0L133.5,51.4"/>
</g>
</g>
<g id="Right-Biceps">
<g id="Basic_Biceps_Right" class="option" style="display: inherit;">
<path id="Main_Basic_Biceps_Right" d="M35.4,52c1.2-2.8,6.2-14.8,6.2-14.8s8.3,3.4,10.4,4.3c0.6,0.2,0.9,0.9,0.6,1.5 c-1,2.4-3.4,8.1-4.8,11.7c-0.3,0.8-1,1.5-1.8,1.8s-1.7,0.3-2.5,0c-2.4-1-5.7-2.4-7.4-3C35.5,53.2,35.2,52.6,35.4,52" style="fill: rgb(1, 17, 61);"/>
<path id="Strap_Basic_Biceps_Right" d="M50.4,48.3l5.8,2.4l0.1,4.3l-7.4-3.1L50.4,48.3" style="fill: rgb(76, 44, 12);"/>
<path id="Trauma-Plate_Basic_Biceps_Right" class="toggle" style="fill: rgb(136, 163, 236);" d="M35.5,51.4l5.3-12.7l10.1,4.2l-4.6,11.2 c-0.2,0.4-0.5,0.7-0.9,0.9c-0.4,0.2-0.8,0.2-1.2,0L35.5,51.4"/>
</g>
</g>
</g>
<g id="Vest" style="fill: rgb(52, 68, 83);">
<path d="M84.4,20.9c8.4,0,15.3-4.3,15.5-8h0.1l18.3,5.4l13.2,23.9l-2.8,1.2l-13.3-8.6l-2.3,3.7l-1.5,47.4 c0,0-8.7,4.7-13.4,5.3c-3.4,0.5-8.6,0.7-13.7,0.7s-10.3-0.2-13.7-0.7c-4.8-0.6-13.4-5.3-13.4-5.3l-1.5-47.4l-2.3-3.7l-13.3,8.6 l-2.8-1.2l13.2-23.9L69,12.9h0.1C69,16.6,75.9,20.9,84.4,20.9"/>
</g>
<g class="swappable" id="Chest">
<g id="Chest_Galaxy" style="visibility: visible;">
<g id="Abdomen_Galaxy">
<path id="Abdomen-Plate_Galaxy" d="M77.5,73l-2.1,1.5L65,73l-0.8-5.8l5-0.1l3-4.9l1.4-4.5l10.9-10l10.9,10l1.4,4.5 l3,4.9l5,0.1L104,73l-10.5,1.5L91.4,73H77.5" style="fill: rgb(4, 198, 255);"/>
<path id="Trauma-Plate_Abdomen_Galaxy" class="toggle" style="fill: rgb(2, 29, 105);" d="M84.4,50L75,58.6l-1.3,4.3l-3.6,5.9l-4,0.1l0.4,2.7l8.5,1.2 l2-1.4h14.9l2,1.4l8.5-1.2l0.4-2.7l-4-0.1l-3.6-5.9l-1.3-4.3L84.4,50"/>
</g>
<g id="Full-Chest_Galaxy">
<path id="Chest-Plate_Galaxy" d="M80.1,33.2v10.1l3.2,3.2L72.1,57.2l-1.5,4.9L68.2,66h-4.1l-2-2.9l-2.5-14.2 l-3.7-5.8l4.7-15.2l5.4-0.7l0.8-3.4l5.8-0.7l1.8,3h20l1.8-3l5.8,0.7l0.8,3.4l5.4,0.7l4.7,15.2l-3.7,5.8l-2.5,14.2l-2,2.9h-4.1 l-2.4-3.9l-1.5-4.9L85.5,46.6l3.2-3.2V33.3l-4.4-3.4L80.1,33.2" style="fill: rgb(4, 198, 255);"/>
<path id="Trauma-Plating_Left-Chest_Galaxy" class="toggle" style="fill: rgb(1, 17, 61);" d="M95.4,27.8H84.6l5.9,4.6v11.7L88,46.6l10.2,9.7l1.5,5.1 l1.8,2.9h2.3l1.3-1.9l2.5-14.2l3.5-5.4L107,29.4l-5.5-0.7l-0.8-3.4l-3.5-0.4L95.4,27.8"/>
<path id="Trauma-Plating_Right-Chest_Galaxy" class="toggle" style="fill: rgb(1, 17, 61);" d="M71.8,24.9l-3.5,0.4l-0.8,3.4L62,29.4l-4.1,13.4l3.5,5.4 l2.5,14.2l1.3,1.9h2.3l1.8-2.9l1.5-5.1L81,46.6l-2.5-2.5V32.4l5.9-4.6H73.5L71.8,24.9"/>
<g id="Accents_Chest-Plate_Galaxy" class="toggle" style="fill: rgb(255, 126, 0);">
<path d="M104.7,31h-9.2v1.2h9.2V31"/>
<path d="M104.7,33.2h-9.2v1.2h9.2V33.2"/>
</g>
</g>
<g id="Iron-Heart_Galaxy">
<path id="Heart_Galaxy" d="M81.8,43.1V34l2.7-2.1l2.7,2.1v9.1l-2.7,2.7L81.8,43.1" style="fill: rgb(4, 198, 255);"/>
<path id="Center_Heart_Galaxy" class="option" d="M85.4,35.4h-1.9v6.2h1.9V35.4" style="fill: rgb(255, 126, 0); display: inherit;"/>
</g>
<g id="Neck-Armor_Galaxy">
<g id="Neck-Plate_Galaxy" style="fill: rgb(4, 198, 255);">
<path d="M82.2,25.1l-7.3,0.1l-1.8-3l-7,0.8l-0.7,3.2l-4.5,0.6l-3.3-11.4L69.1,12c0,0,1.5,2.6,2.6,3.5 c1.1,0.9,2.6,2,4.1,2.6c1.5,0.7,3.4,1.1,5.2,1.4c0.2,0,0.4,0.1,0.6,0.1L82.2,25.1"/>
<path d="M86.7,25.1l7.3,0.1l1.8-3l7,0.8l0.7,3.1l4.5,0.6l3.3-11.4l-11.5-3.4c0,0-1.5,2.6-2.6,3.5 c-1.1,0.9-2.6,2-4.1,2.6c-1.5,0.7-3.4,1.1-5.2,1.4c-0.2,0-0.4,0.1-0.6,0.1L86.7,25.1"/>
</g>
<g id="Trauma-Plates_Neck_Galaxy" class="toggle" style="display: none; fill: rgb(255, 255, 255);"/>
</g>
</g>
</g>
<g id="Chest-Attachments">
<g id="No-Device_Accessories_Chest" class="option" style="display: inherit;">
</g>
</g>
<g id="Collar">
<g id="Cloth-Wrap-Right_Collar" class="option" style="display: inherit;">
<g id="Main_Cloth-Wrap-Right_Collar" style="fill: rgb(52, 1, 63);">
<path d="M94.3,21.9c5-1.6,5.9-4.1,6.2-6.6c0.1-1-1.3-3.7,0.2-4.4c1.7-0.8,5.8,0.4,7.4,0.8c1.2,0.3,2.3,0.6,3.6,0.6 c2.9,0,5.2,2,5.5,3.4c0.4,2-3.2,2.8-4.9,4.3c-4.2,3.9-5.7,9.1-14.6,10.6c-4.1,0.7-8.1-0.3-11.9-1.1c-9.8-2.2-15.1-4.1-21.4-8.9 c-2.8-2.1-6.9-3.9-6.8-6.7c0-0.1,2-1.3,2.2-1.4c1.8-0.4,3.3-1.2,5.2-1.2c1.2,0,1,1,1.1,1.4c0.3,1.7,1.9,3,3.9,4.4 C75.1,20.5,87.1,21.6,94.3,21.9"/>
<path d="M94.3,21.9c1.3,0,2.5,0.3,3.5,0.3c4.5,0.3,6.2-0.8,7-2.9"/>
<path d="M108.4,11.7c1.3,2.1,1.1,4.7,0.1,6.3"/>
<path d="M70.3,17.8c3.4,4.7,8.5,6.1,14,6.7"/>
<path d="M61.1,12.1c0.2,1.2,0.9,1.6,1.8,2.4c0.5,0.5,1.1,0.8,1.5,1.3c0.1,0.2,0.2,0.4,0.3,0.7"/>
</g>
<path id="Buckle_Cloth-Wrap-Right_Collar" d="M71.4,17l-2.9-2.1l-5,7l2.9,2.1L71.4,17" style="fill: rgb(48, 49, 49);"/>
</g>
</g>
<svg version="1.1" id="Helmets" xmlns="http://www.w3.org/2000/svg" y="-54px" height="85px" viewBox="0 0 80 80" class="swappable">
<g id="Helmet_Ramikadyc" style="visibility: visible;">
<g id="Left-Earcap_Ramikadyc" class="toggle">
<g id="Sensor-Stalk_Left_Ramikadyc" class="option" style="display: inherit;">
<g id="Sensor_Left_Sensor-Stalk_Ramikadyc" style="fill: rgb(255, 126, 0);">
<path d="M62.1,48.1l4.7-8h-5.7V48L62.1,48.1L62.1,48.1z"/>
<path d="M60.9,16.7L66.8,35H61L60.9,16.7z"/>
</g>
<g id="Shaft_Left_Sensor-Stalk_Ramikadyc" style="fill: rgb(1, 17, 61);">
<path d="M67.8,35l-6.9-21.4v3.2L66.8,35h-4.9v1.1h5.9V35z"/>
<path d="M67.8,40.1V39h-5.9v1.1h4.9l-4.7,8h1L67.8,40.1z"/>
<path d="M60.2,32.5l1.7-1.2v10.5h-1.7V32.5z"/>
<rect x="59.7" y="41.7" width="2.4" height="2.3"/>
<rect x="59.3" y="41.4" width="0.4" height="3.3"/>
</g>
</g>
<path id="Ear-Cap_Left_Ramikadyc" d="M56,35.7l2.7,1c0,0,0.7,3.4,0.8,6.3s-0.8,6.2-0.8,6.2L57,49.9V38L56,35.7z" style="fill: rgb(42, 41, 41);"/>
</g>
<g id="Right-Earcap_Ramikadyc" class="toggle">
<g id="Sensor-Stalk_Right_Ramikadyc" class="option" style="display: inherit;">
<g id="Sensor_Right_Sensor-Stalk_Ramikadyc" style="fill: rgb(255, 126, 0);">
<path d="M17.9,48.1l-4.7-8h5.7V48L17.9,48.1L17.9,48.1z"/>
<path d="M19.1,16.7L13.2,35H19L19.1,16.7z"/>
</g>
<g id="Shaft_Right_Sensor-Stalk_Ramikadyc" style="fill: rgb(1, 17, 61);">
<path d="M12.2,35l6.9-21.4v3.2L13.2,35h4.9v1.1h-5.9V35z"/>
<path d="M12.2,40.1V39h5.9v1.1h-4.9l4.7,8h-1L12.2,40.1z"/>
<path d="M19.8,32.5l-1.7-1.2v10.5h1.7V32.5z"/>
<rect x="17.9" y="41.7" width="2.4" height="2.3"/>
<rect x="20.3" y="41.4" width="0.4" height="3.3"/>
</g>
</g>
<path id="Ear-Cap_Right_Ramikadyc" d="M24,35.7l-2.7,1c0,0-0.7,3.4-0.8,6.3s0.8,6.2,0.8,6.2L23,50V38L24,35.7z" style="fill: rgb(42, 41, 41);"/>
</g>
<g id="Helmet_Pieces_Ramikadyc">
<g id="Mouth_Ramikadyc" style="fill: rgb(2, 29, 105);">
<path d="M36.8,67.3c0,0,0.1-2.7-0.2-4.1c-0.3-1.3-0.7-2.9-0.7-2.9l3.9-1.6h0.1l3.9,1.6c0,0-0.4,1.5-0.7,2.9 c-0.3,1.3-0.2,4.1-0.2,4.1H36.8z"/>
<path d="M39.9,58.7v6.4"/>
<path d="M36.8,67.3v-0.9l3-1.2l3,1.2v0.9H36.8z"/>
</g>
<g id="Face_Ramikadyc" style="fill: rgb(2, 29, 105);">
<path d="M43.8,60.4H44c4.3-4.7,7.1-9.3,8.2-13.7l4.2-3.7l0.6-1.3v10.5c0,0-3.1,6.6-6.5,9.8c-2.1,2-7.5,5.3-7.5,5.3 s-0.1-2.7,0.2-4.1C43.4,61.9,43.8,60.4,43.8,60.4z"/>
<path d="M36,60.4h-0.2c-4.3-4.7-7.1-9.3-8.2-13.7L23.3,43l-0.6-1.3v10.5c0,0,3.1,6.6,6.5,9.8 c2.2,2.1,7.5,5.4,7.5,5.4h0.1c0,0,0.1-2.7-0.2-4.1C36.4,61.9,36,60.4,36,60.4z"/>
</g>
<g id="Cheeks-2_Ramikadyc" style="fill: rgb(52, 68, 83);">
<path d="M25.4,49l7.9,9.5c0,0,1.4,1.9,1,4C34,64.7,33,64.8,33,64.8l-2.1-0.7L23,55.2c0,0-1.1-1.1-1-3.4 c0.1-1.1,2.1-3,2.1-3S24.8,48.4,25.4,49z"/>
<path d="M22.1,51.4c0,0,0.4-0.9,0.9-0.9c0.5,0.1,4.1,4.2,4.1,4.2s4.3,4.6,4.5,5c0.7,1.2,0.6,2.5,0.5,3 c-0.3,1.1-1.2,1.3-1.2,1.3L23,55.2C23,55.2,21.6,53.5,22.1,51.4z"/>
<path d="M22.3,51.7c0.1-0.4,0.3-0.8,0.6-0.9c0.4-0.1,3.5,3.6,3.5,3.6s3.5,3.8,3.7,4.1c0.6,1,0.5,2.1,0.4,2.5 c-0.2,0.9-1,1.1-1,1.1L23,54.7C23,54.7,22,53.1,22.3,51.7z"/>
<path d="M54.6,49l-7.9,9.5c0,0-1.4,1.9-1,4c0.3,2.1,1.4,2.3,1.4,2.3l2.1-0.7l7.9-8.9c0,0,1.1-1.1,1-3.4 c-0.1-1.1-2.1-3-2.1-3S55.2,48.4,54.6,49z"/>
<path d="M57.9,51.4c0,0-0.4-0.9-0.9-0.9c-0.5,0.1-4.1,4.2-4.1,4.2s-4.3,4.6-4.5,5c-0.7,1.2-0.6,2.5-0.5,3 c0.3,1.1,1.2,1.3,1.2,1.3l7.9-8.9C57,55.2,58.4,53.5,57.9,51.4z"/>
<path d="M57.7,51.7c-0.1-0.4-0.3-0.8-0.6-0.9c-0.4-0.1-3.5,3.6-3.5,3.6s-3.5,3.8-3.7,4.1c-0.6,1-0.5,2.1-0.4,2.5 c0.2,0.9,1,1.1,1,1.1l6.5-7.5C57,54.7,58,53.1,57.7,51.7z"/>
</g>
<g id="Cheeks-1_Ramikadyc" style="fill: rgb(255, 126, 0);">
<path d="M28.1,58.6c0.8-0.3,1.9,0.7,2.5,2.2s0.4,2.9-0.4,3.2c-0.8,0.3-1.9-0.7-2.5-2.2 C27.1,60.2,27.3,58.8,28.1,58.6z"/>
<path d="M28.2,59c0.6-0.2,1.6,0.6,2.1,1.9c0.5,1.3,0.4,2.5-0.3,2.7c-0.6,0.2-1.6-0.6-2.1-1.9S27.5,59.2,28.2,59z"/>
<path d="M28.5,60c0.4-0.1,0.9,0.3,1.1,1.1c0.3,0.7,0.2,1.4-0.1,1.5c-0.4,0.1-0.9-0.3-1.1-1.1 C28.1,60.8,28.1,60.1,28.5,60z"/>
<path d="M28.6,60.4c0.2-0.1,0.6,0.2,0.8,0.7c0.2,0.5,0.1,0.9-0.1,1c-0.2,0.1-0.6-0.2-0.8-0.7 C28.3,61,28.4,60.5,28.6,60.4z"/>
<path d="M30.1,58c0.9,1,1.4,1.6,1.5,1.7c0.7,1.2,0.6,2.5,0.5,3c-0.2,0.6-0.6,1.2-1.2,1.3L30,63.9 c0.2,0,0.4-0.1,0.5-0.3c0.5-0.5,0.6-1.7,0.1-3c-0.6-1.5-1.7-2.4-2.5-2.2L30.1,58z"/>
<path d="M51.9,58.6c-0.8-0.3-1.9,0.7-2.5,2.2c-0.6,1.5-0.4,2.9,0.4,3.2c0.8,0.3,1.9-0.7,2.5-2.2 C52.9,60.2,52.7,58.8,51.9,58.6z"/>
<path d="M51.8,59c-0.6-0.2-1.6,0.6-2.1,1.9c-0.5,1.3-0.4,2.5,0.3,2.7c0.6,0.2,1.6-0.6,2.1-1.9S52.5,59.2,51.8,59z"/>
<path d="M51.5,60c-0.4-0.1-0.9,0.3-1.1,1.1c-0.3,0.7-0.2,1.4,0.1,1.5c0.4,0.1,0.9-0.3,1.1-1.1 C51.9,60.8,51.9,60.1,51.5,60z"/>
<path d="M51.4,60.4c-0.2-0.1-0.6,0.2-0.8,0.7c-0.2,0.5-0.1,0.9,0.1,1c0.2,0.1,0.6-0.2,0.8-0.7 C51.7,61,51.6,60.5,51.4,60.4z"/>
<path d="M49.9,58c-0.9,1-1.4,1.6-1.5,1.7c-0.7,1.2-0.6,2.5-0.5,3c0.2,0.6,0.6,1.2,1.2,1.3l0.9-0.1 c-0.2,0-0.4-0.1-0.5-0.3c-0.5-0.5-0.6-1.7-0.1-3c0.6-1.5,1.7-2.4,2.5-2.2L49.9,58z"/>
</g>
<path id="Visor_Ramikadyc" d="M39.7,58.1v-0.9l-1.5-3L38,45.5l-3.1-1.3l-1.2,0.5l-8.3-4.6L24,35.3 c5,2.9,15.9,6.8,15.9,6.8s11-3.9,15.9-6.8l-1.2,4.8l-8.3,4.6L45,44.1l-3.1,1.3l-0.2,8.7l-1.5,3V58l3.9,2.3h-0.2L40,58.7l-4,1.7 h-0.2L39.7,58.1z" style="fill: rgb(255, 126, 0);"/>
<g id="Eyes_Ramikadyc" style="fill: rgb(1, 17, 61);">
<path d="M55.9,35.3L57,38l0.1,3.7L56.5,43l-4.2,3.7c-1.1,4.4-4,9-8.2,13.7L40.2,58v-0.8l1.5-3l0.2-8.7l3.1-1.3 l1.2,0.5l8.3-4.6L55.9,35.3z"/>
<path d="M23.9,35.3L22.8,38l-0.1,3.7l0.6,1.3l4.2,3.7c1.1,4.4,4,9,8.2,13.7l3.8-2.3v-0.8l-1.5-3l-0.2-8.7l-3.1-1.3 l-1.2,0.5l-8.3-4.6L23.9,35.3z"/>
</g>
<g id="Dome-2_Ramikadyc" style="fill: rgb(1, 17, 61);">
<path d="M44.2,40.5L42,38.6l-0.3-2.8l2.9-2.6l2.8-9.5h1.8l0.5-2.8l-1.4-1l0.5-1.2c0,0,5.5,4.2,6.1,5.2 c0.5,1,0.9,10.9,0.8,11.4c0,0,0,0.1-0.1,0.2C52.6,37.1,47.7,39.1,44.2,40.5z"/>
<path d="M24.3,35.5c0-0.1-0.1-0.1-0.1-0.2c-0.1-0.5,0.3-10.4,0.8-11.4s6.1-5.2,6.1-5.2l0.5,1.2l-1.4,1l0.5,2.8h1.8 l2.8,9.5l2.9,2.6l-0.3,2.8l-2.2,1.9C32.1,39.2,27.3,37.2,24.3,35.5z"/>
</g>
<g id="Dome-1_Ramikadyc" style="fill: rgb(52, 68, 83);">
<path d="M24.9,24c-0.5,1.4-0.8,10.8-0.7,11.3c0,0,0,0.1,0.1,0.2c0.1,0-1.4,0.6-1.4,0.6C23.2,30.9,23.6,26,24.9,24z"/>
<path d="M54.9,24c0.5,1.4,0.8,10.8,0.7,11.3c0,0,0,0.1-0.1,0.2c-0.1,0,1.4,0.6,1.4,0.6C56.6,30.9,56.2,26,54.9,24z"/>
<path d="M35.6,40.5l2.2-1.9l0.3-2.8l-2.9-2.6l-2.8-9.5h-1.8L30.1,21l1.4-1L31,18.8c3.7-1.8,8.1-2.1,8.8-2.1h0.1 c0.7,0,5.1,0.3,8.8,2.1L48.3,20l1.4,1l-0.5,2.8h-1.8l-2.8,9.5l-2.9,2.6l0.3,2.8l2.2,1.9c-1.2,0.4-2.2,0.7-3,1L40,42h-0.2 l-1.3-0.4C37.8,41.3,36.8,41,35.6,40.5z"/>
</g>
</g>
</g>
</svg>
<g id="Shoulders">
<g id="Left-Shoulder">
<g id="Legacy-x3_Shoulder_Left" class="option" style="display: inherit;">
<path id="Plate-3_Shoulder_Left_Legacy-x3" d="M119.2,19.5l-7.3,7.5l4.3,9.2l9.6-0.5l5.1,4.7l4.5-0.3L119.2,19.5" style="fill: rgb(1, 17, 61);"/>
<path id="Trauma-Plate-3_Shoulder_Legacy-x3_Left" class="toggle" style="fill: rgb(136, 163, 236);" d="M131.5,38.6l2.9-0.2l-13.9-17.8l-6.5,6.7l3.3,7.2 l8.8-0.6L131.5,38.6"/>
<path id="Plate-2_Shoulder_Left_Legacy-x3" d="M115.3,14.9l-5.8,8.7l5.9,8.3l9.3-2.3l5.9,3.6L135,32L115.3,14.9" style="fill: rgb(1, 17, 61);"/>
<path id="Trauma-Plate-2_Shoulder_Legacy-x3_Left" class="toggle" style="fill: rgb(78, 97, 150);" d="M130.9,31.4l2.8-0.7l-17-14.9l-5.2,7.7l4.6,6.4 l8.6-2.2L130.9,31.4"/>
<path id="Plate-1_Shoulder_Left_Legacy-x3" d="M108.2,10.4l-2.6,10.1l8.3,5.9l8.1-5.2l6.7,1.5l3.8-2.5L108.2,10.4" style="fill: rgb(1, 17, 61);"/>
<path id="Trauma-Plate-1_Shoulder_Legacy-x3_Left" class="toggle" style="fill: rgb(45, 59, 97);" d="M128.3,20.9l2.4-1.6l-21-8.5l-2.3,9l6.4,4.6l7.4-4.9 L128.3,20.9"/>
</g>
</g>
<g id="Right-Shoulder">
<g id="Pauldron_Shoulder_Right" class="option" style="display: inherit;">
<path id="Main_Pauldron_Shoulder_Right" d="M68.1,15.6L40.4,28.7L27,14.8l35.9-4.3L68.1,15.6" style="fill: rgb(1, 17, 61);"/>
<g id="Plate_Pauldron_Shoulder_Right" style="fill: rgb(45, 59, 97);">
<path d="M29.5,15l11.2,11.6L65.1,15l-4-3.9L29.5,15"/>
<path d="M29.1,14.5l31.6-3.8l-0.4-0.4L28.9,14L29.1,14.5"/>
</g>
</g>
</g>
</g>
<g id="Gauntlets">
<g id="Left-Gauntlets">
<g id="Basic_Gauntlet_Left" class="option" style="display: inherit;">
<path id="Top-2_Basic_Gauntlet_Left" d="M144.3,107.5l1.4-2.2L141.8,87l-0.6,2.2l1.8,8.3l-0.7,2.1L144.3,107.5" style="fill: rgb(255, 126, 0);"/>
<path id="Top-1_Basic_Gauntlet_Left" d="M141.8,87.1l-0.6,2.2l1.8,8.3l-0.7,2.1l2,7.9l-0.9,1.4l0.5,5.1l-1.6,0.4 l-2.1-7.7l-1.5-0.5L132,83.9l8.9-0.9L141.8,87.1" style="fill: rgb(163, 213, 228);"/>
<g id="Accent-Bottom_Basic_Gauntlet_Left" style="fill: rgb(255, 126, 0);">
<path d="M128.7,90.6l-2,0.6l1,2.9l2-0.6L128.7,90.6"/>
<path d="M130.3,95.7l-2,0.6l1,2.9l2-0.6L130.3,95.7"/>
<path d="M132.1,100.9l-2,0.6l1,2.9l2-0.6L132.1,100.9"/>
</g>
<path id="Bottom_Basic_Gauntlet_Left" d="M126.7,91.2L126,89l6.2-4.8l6.6,22.1l-6.7,1.2l-2.7-8.2l2-0.6l-1-2.9 l-1.9,0.6l-0.7-2.2l2-0.6l-1-2.9L126.7,91.2 M132.1,100.9l-2,0.6l1,2.9l2-0.7L132.1,100.9" style="fill: rgb(1, 17, 61);"/>
<g id="Whistling-Birds_Attachment_Basic_Gauntlet_Left" class="option" style="display: inherit;">
<path id="Head_Whistling-Birds_Attachment_Basic_Gauntlet_Left" d="M147.2,97.6l-1.9,5.6l-1.1-5L147.2,97.6" style="fill: rgb(1, 17, 61);"/>
<g id="Birds_Whistling-Birds_Attachment_Basic_Gauntlet_Left" style="fill: rgb(201, 3, 251);">
<path d="M144.7,98.5c0.1,0,0.3,0.2,0.3,0.5c0.1,0.3,0,0.6-0.1,0.6c-0.1,0-0.3-0.2-0.3-0.5 C144.6,98.8,144.6,98.6,144.7,98.5"/>
<path d="M145.1,100.1c0.1,0,0.3,0.2,0.3,0.5c0.1,0.3,0,0.6-0.1,0.6c-0.1,0-0.3-0.2-0.3-0.5 C144.9,100.4,145,100.1,145.1,100.1"/>
<path d="M145.5,98.4c0.1,0,0.3,0.2,0.3,0.5c0.1,0.3,0,0.6-0.1,0.6c-0.1,0-0.3-0.2-0.3-0.5S145.4,98.4,145.5,98.4"/>
<path d="M145.4,102.6c0-0.1-0.1-0.2-0.1-0.3c-0.1-0.3,0-0.6,0.1-0.6c0.1,0,0.2,0.1,0.3,0.3L145.4,102.6"/>
<path d="M146,101c-0.1-0.1-0.2-0.3-0.2-0.5c-0.1-0.3,0-0.6,0.1-0.6c0.1,0,0.2,0.2,0.3,0.5L146,101"/>
<path d="M146.6,99.3c-0.1,0-0.3-0.2-0.3-0.5c-0.1-0.3,0-0.6,0.1-0.6c0.1,0,0.3,0.2,0.3,0.5v0.2L146.6,99.3"/>
</g>
<g id="Base_Whistling-Birds_Attachment_Basic_Gauntlet_Left" style="fill: rgb(4, 198, 255);">
<path d="M143.8,82.7l-2,0.4L142,84l2-0.4L143.8,82.7"/>
<path d="M144.2,83.5L142,84l3,14.1l2.2-0.5L144.2,83.5"/>
<path d="M144.5,83.6l-0.3,0.1l2.6,12.2l0.3-0.1L144.5,83.6"/>
<path d="M143.8,83.6l-0.3,0.1l2.8,13.3l0.3-0.1L143.8,83.6"/>
</g>
<g id="Accent_Whistling-Birds_Attachment_Basic_Gauntlet_Left" style="fill: rgb(2, 29, 105);">
<path d="M141.7,82.9l-0.8,0.2l3,14.4l0.8-0.2L141.7,82.9"/>
<path d="M147.1,96.7l-3.1,0.7l0.2,0.9l3.1-0.7L147.1,96.7"/>
<path d="M143.1,82.8l-1.3,0.3l0.4,2.1l1.3-0.3L143.1,82.8"/>
<path d="M143.2,84.9l-1,0.2l1,4.9l0.6-2L143.2,84.9"/>
</g>
</g>
</g>
</g>
<g id="Right-Gauntlets">
<g id="Basic_Gauntlet_Right" class="option" style="display: inherit;">
<path id="Top-2_Basic_Gauntlet_Right" d="M24.6,107.5l-1.4-2.2L27.1,87l0.6,2.2l-1.8,8.3l0.7,2.1L24.6,107.5" style="fill: rgb(255, 126, 0);"/>
<path id="Top-1_Basic_Gauntlet_Right" d="M27.1,87.1l0.6,2.2l-1.8,8.3l0.7,2.1l-2,7.9l0.9,1.4l-0.5,5.1l1.6,0.4 l2.1-7.7l1.5-0.5l6.7-22.4L28,83L27.1,87.1" style="fill: rgb(163, 213, 228);"/>
<g id="Accent-Bottom_Basic_Gauntlet_Right" style="fill: rgb(255, 126, 0);">
<path d="M40.2,90.6l2,0.6l-1,2.9l-2-0.6L40.2,90.6"/>
<path d="M38.6,95.7l2,0.6l-1,2.9l-2-0.6L38.6,95.7"/>
<path d="M36.8,100.9l2,0.6l-1,2.9l-2-0.6L36.8,100.9"/>
</g>
<path id="Bottom_Basic_Gauntlet_Right" d="M42.2,91.2l0.7-2.2l-6.2-4.8l-6.6,22.1l6.7,1.2l2.7-8.2l-2-0.6l1-2.9 l1.9,0.6l0.7-2.2l-2-0.6l1-2.9L42.2,91.2 M36.8,100.9l2,0.6l-1,2.9l-2-0.7L36.8,100.9" style="fill: rgb(1, 17, 61);"/>
<g id="Flamethrower_Attachment_Basic_Gauntlet_Right" class="option" style="display: inherit;">
<g id="Tubes_Flamethrower_Attachment_Basic_Gauntlet_Right" style="fill: rgb(101, 6, 109);">
<path d="M26.3,83.8l0.8,0.2L22,108.6l-0.8-0.2L26.3,83.8"/>
<path d="M24.5,83.4l0.8,0.2l-3.7,17.7l-0.8-0.2L24.5,83.4"/>
<path d="M25.9,85.3l1.1,0.2l-1.2,5.9l-1.1-0.2L25.9,85.3"/>
<path d="M24,84.9l1.1,0.2L23.9,91l-1.1-0.2L24,84.9"/>
</g>
<g id="Main_Flamethrower_Attachment_Basic_Gauntlet_Right" style="fill: rgb(1, 17, 61);">
<path d="M24.1,83.3l3.3,0.7l-0.3,1.5l-3.3-0.7L24.1,83.3"/>
<path d="M22.5,90.7l3.5,0.7l-0.2,0.9l-3.5-0.7L22.5,90.7"/>
<path d="M22.5,91.7l3.2,0.7l-0.1,0.5l-3.2-0.7L22.5,91.7"/>
<path d="M25.8,90.8l0.5,0.1l-0.6,2.9l-0.5-0.1L25.8,90.8"/>
</g>
<g id="Accent_Flamethrower_Attachment_Basic_Gauntlet_Right" style="fill: rgb(4, 198, 255);">
<path d="M20.8,101.1l0.9,0.2l-0.1,1.2l-1.1-0.2L20.8,101.1"/>
<path d="M21.7,94.7l1.5,0.3l-0.4,1.9l-1.5-0.3L21.7,94.7"/>
<path d="M21.6,96.6l1.1,0.2l-0.4,1.9l-1.1-0.2L21.6,96.6"/>
<path d="M21.7,105.3l1.1,0.2l-0.5,2.6l-1.1-0.2L21.7,105.3"/>
<path d="M23.4,97l1.1,0.2l-0.7,3.5l-1.1-0.2L23.4,97"/>
<path d="M21.2,106.6l1.5,0.3l-0.1,0.5l-1.5-0.3L21.2,106.6"/>
</g>
<path id="Base_Flamethrower_Attachment_Basic_Gauntlet_Right" d="M26.3,90.9l1.6-7.8l-1,0.2l-2.8,13.2l0.8,0.6 l0.7-3.3l-0.5-0.1l0.6-2.9L26.3,90.9" style="fill: rgb(2, 29, 105);"/>
</g>
</g>
</g>
</g>
<g id="Shins">
<g id="Left-Shin">
<g id="Basic_Shin_Left" class="option" style="display: inherit;">
<path id="Shin_Basic-Shin_Left" d="M120.8,179.2l-5-5.5l-10,1.4l-3.7,8.7l6.8,29c4.4,1.8,10.8,0.9,14.3-2.3 L120.8,179.2" style="fill: rgb(1, 17, 61);"/>
<path id="Trauma-Plating_Basic-Shin_Left" class="toggle" style="fill: rgb(143, 230, 255);" d="M121.5,209.8l-2.3-29.9l-4-4.4l-8.2,1.1l-3.1,7.3l6.5,27.6 C114,212.7,118.6,212,121.5,209.8"/>
<g id="Ridge_Basic-Shin_Left" class="toggle" style="fill: rgb(4, 198, 255);">
<path d="M114.4,173.7l-3.6-0.3l-3.5,1.5l7.1,38.9c2.4,0.1,2.5,0.2,4.4-0.8L114.4,173.7"/>
<path d="M110.9,173.4l6,40.4"/>
</g>
</g>
</g>
<g id="Right-Shin">
<g id="Basic_Shin_Right" class="option" style="display: inherit;">
<path id="Shin_Basic-Shin_Right" d="M48,179.2l5-5.5l10,1.4l3.7,8.7l-6.8,29c-4.4,1.8-10.8,0.9-14.3-2.3L48,179.2" style="fill: rgb(1, 17, 61);"/>
<path id="Trauma-Plating_Basic-Shin_Right" class="toggle" style="fill: rgb(143, 230, 255);" d="M47.3,209.8l2.3-29.9l4-4.4l8.2,1.1l3.1,7.3l-6.5,27.6 C54.8,212.7,50.2,212,47.3,209.8"/>
<g id="Ridge_Basic-Shin_Right" class="toggle" style="fill: rgb(4, 198, 255);">
<path d="M54.4,173.7l3.6-0.3l3.5,1.5l-7.1,38.9c-2.4,0.1-2.5,0.2-4.4-0.8L54.4,173.7"/>
<path d="M57.9,173.4l-6,40.4"/>
</g>
</g>
</g>
</g>
<g id="Foot">
<g id="Left-Ankle">
<g id="Legacy_Ankle_Left" class="option" style="display: inherit;">
<path id="Plate-2_Legacy-Ankle_Left" d="M125.9,222.2l4.3,3.9l3,3.7l-4.8,1.5l-10.9-2.3l-4-5.3L125.9,222.2" style="fill: rgb(1, 17, 61);"/>
<path id="Plate-1_Legacy-Ankle_Left" d="M106.3,214.9c0,0,4.3,1.9,10.8,1.7c4.4-0.2,6.2-1.3,6.2-1.3l3.7,6.9l-1,3.8 l-15.7-1.2l-3.9-3.3L106.3,214.9" style="fill: rgb(1, 17, 61);"/>
<path id="Trauma-Plate-2_Legacy-Ankle_Left" class="toggle" style="fill: rgb(142, 246, 255);" d="M126.8,223.1l3.4,3l1.7,2.2l-3.6,1.2l-9.6-2l-1.6-2.1 l8.9,0.7L126.8,223.1"/>
<path id="Trauma-Plate-1_Legacy-Ankle_Left" class="toggle" style="fill: rgb(142, 246, 255);" d="M107.9,217.3l0.1,3.2l3.1,2.5l13.8,1.1l1-3.8l-1.8-3.3 c-1.2,0.3-4.7,1.4-7,1.4C113.5,218.6,110,217.9,107.9,217.3"/>
</g>
</g>
<g id="Left-Toe">
<g id="None_Toe_Left" class="option" style="display: inherit;">
</g>
</g>
<g id="Right-Ankle">
<g id="Legacy_Ankle_Right" class="option" style="display: inherit;">
<path id="Plate-2_Legacy-Ankle_Right" d="M42.9,222.2l-4.3,3.9l-3,3.7l4.8,1.5l10.9-2.3l4-5.3L42.9,222.2" style="fill: rgb(1, 17, 61);"/>
<path id="Plate-1_Legacy-Ankle_Right" d="M62.4,214.9c0,0-4.3,1.9-10.8,1.7c-4.4-0.2-6.2-1.3-6.2-1.3l-3.7,6.9l1,3.8 l15.7-1.2l3.9-3.3L62.4,214.9" style="fill: rgb(1, 17, 61);"/>
<path id="Trauma-Plate-2_Legacy-Ankle_Right" class="toggle" style="fill: rgb(143, 230, 255);" d="M41.9,223.1l-3.4,3l-1.7,2.2l3.6,1.2l9.6-2l1.6-2.1 l-8.9,0.7L41.9,223.1"/>
<path id="Trauma-Plate-1_Legacy-Ankle_Right" class="toggle" style="fill: rgb(143, 230, 255);" d="M60.8,217.3l-0.1,3.2l-3.1,2.5l-13.8,1.1l-1-3.8l1.8-3.3 c1.2,0.3,4.7,1.4,7,1.4C55.3,218.6,58.7,217.9,60.8,217.3"/>
</g>
</g>
<g id="Right-Toe">
<g id="None_Toe_Right" class="option" style="display: inherit;">
</g>
</g>
</g>
<g id="Knees">
<g id="Left-Knee">
<g id="Legacy_Knee_Left" class="option" style="display: inherit;">
<g id="Missiles_Legacy-Knee_Left" class="toggle" style="display:none"/>
<path id="Plate-2_Legacy-Knee_Left" d="M116.5,162.4l-4-2.8l-8.9,1.4l-3.5,3.9l2.9,9.6h7.1l6.7-2.1L116.5,162.4z" style="fill: rgb(4, 198, 255);"/>
<path id="Plate-1_Legacy-Knee_Left" d="M117.9,155.9l-5.1-3.6l-11.4,1.8l-4.4,5.1l3.7,12.3l9.3-0.1l8.3-2.6 L117.9,155.9z" style="fill: rgb(109, 141, 231);"/>
</g>
</g>
<g id="Right-Knee">
<g id="Legacy_Knee_Right" class="option" style="display: inherit;">
<g id="Missiles_Legacy-Knee_Right" class="toggle" style="display:none"/>
<path id="Plate-2_Legacy-Knee_Right" d="M52.2,162.4l4-2.8l8.9,1.4l3.5,3.9l-2.9,9.6h-7.1l-6.7-2.1L52.2,162.4z" style="fill: rgb(4, 198, 255);"/>
<path id="Plate-1_Legacy-Knee_Right" d="M50.9,155.9l5.1-3.6l11.4,1.8l4.4,5.1l-3.7,12.3l-9.3-0.1l-8.3-2.6 L50.9,155.9z" style="fill: rgb(109, 141, 231);"/>
</g>
</g>
</g>
<g id="Thighs">
<g id="Left-Thigh">
<g id="Basic_Thigh_Left" class="option" style="display: inherit;">
<path id="Thigh_Basic-Thigh_Left" d="M119.4,115.2c0,0-5-6.4-7.5-7.5c-2.4-1-5.7-0.6-7.7,1.1 c-3.2,2.5-10.4,8-11.3,14.2c-0.9,6.8,4.1,21.9,5.7,26.8c0.6,1.7,2.7,2.4,4.4,2.5c3.1,0.1,11.5-0.1,13.5-4.7 C119.3,141.3,119.4,115.2,119.4,115.2" style="fill: rgb(1, 17, 61);"/>
<path id="Trauma-Plate_Basic-Thigh_Left" class="toggle" style="fill: rgb(7, 50, 170);" d="M117.7,115.7c-0.7-0.9-2.5-3.1-4.3-4.8 c-0.8-0.8-1.6-1.5-2.2-1.7c-1.9-0.8-4.4-0.4-6,0.8c-1.8,1.5-5.1,4-7.6,7c-1.5,1.8-2.8,3.9-3,6.1c-0.9,6.6,4,21.3,5.7,26 c0.1,0.4,0.5,0.7,0.9,0.9c0.6,0.3,1.3,0.4,1.9,0.5c1.7,0.1,5.2,0,8.2-1c1.6-0.5,3.1-1.3,3.7-2.7c0.8-1.8,1.3-5.2,1.7-9.2 C117.5,129.1,117.7,118.4,117.7,115.7"/>
<g id="Ridge_Basic-Thigh_Left" class="toggle" style="fill: rgb(4, 198, 255);">
<path d="M111,107.1l-3.5-0.9l-3.6,2l1.2,44c2.4,0.5,2.4,0.5,4.5-0.1L111,107.1"/>
<path d="M107.6,106.2l-0.1,46.3"/>
</g>
</g>
</g>
<g id="Right-Thigh">
<g id="Basic_Thigh_Right" class="option" style="display: inherit;">
<path id="Thigh_Basic-Thigh_Right" d="M49.3,115.2c0,0,5-6.4,7.5-7.5c2.4-1,5.7-0.6,7.7,1.1 c3.2,2.5,10.4,8,11.3,14.2c0.9,6.8-4.1,21.9-5.7,26.8c-0.6,1.7-2.7,2.4-4.4,2.5c-3.1,0.1-11.5-0.1-13.5-4.7 C49.5,141.3,49.3,115.2,49.3,115.2" style="fill: rgb(1, 17, 61);"/>
<path id="Trauma-Plate_Basic-Thigh_Right" class="toggle" style="fill: rgb(7, 50, 170);" d="M51,115.7c0.7-0.9,2.5-3.1,4.3-4.8c0.8-0.8,1.6-1.5,2.2-1.7 c1.9-0.8,4.4-0.4,6,0.8c1.8,1.5,5.1,4,7.6,7c1.5,1.8,2.8,3.9,3,6.1c0.9,6.6-4,21.3-5.7,26c-0.1,0.4-0.5,0.7-0.9,0.9 c-0.6,0.3-1.3,0.4-1.9,0.5c-1.7,0.1-5.2,0-8.2-1c-1.6-0.5-3.1-1.3-3.7-2.7c-0.8-1.8-1.3-5.2-1.7-9.2 C51.2,129.1,51.1,118.4,51,115.7"/>
<g id="Ridge_Basic-Thigh_Right" class="toggle" style="fill: rgb(4, 198, 255);">
<path d="M57.8,107.1l3.5-0.9l3.6,2l-1.2,44c-2.4,0.5-2.4,0.5-4.5-0.1L57.8,107.1"/>
<path d="M61.2,106.2l0.1,46.3"/>
</g>
</g>
</g>
</g>
<g id="Groin">
<g id="Basic_Groin" class="option" style="display: inherit;">
<path id="Groin-Plate_Groin" d="M78.1,121.8L67.7,98.9H101l-10.4,22.9l-6.2,5.5L78.1,121.8z" style="fill: rgb(1, 17, 61);"/>
<path id="Trauma-Plating_Groin" class="toggle" style="display: none; fill: rgb(255, 255, 255);" d="M79.2,119.9L70.6,101H98l-8.6,18.9l-5.1,4.5L79.2,119.9z"/>
</g>
</g>
<g id="Waist">
<g id="Accessories_Waist">
<g id="Kama" class="toggle" style="">
<g id="Clean_Kama" class="option" style="display: inherit;">
<g id="Trim_Kama-Clean" style="fill: rgb(209, 70, 217);">
<path d="M100.7,83.2l3.6,57.2l26.3,17.5l-19.9-77.3L100.7,83.2z"/>
<path d="M68.1,83.2l-3.6,57.2l-26.3,17.5l19.9-77.3L68.1,83.2z"/>
</g>
<g id="Main_Kama-Clean" style="fill: rgb(45, 59, 97);">
<path d="M102.6,83l3.5,55.3l23.7,16.3l-19.1-74.2L102.6,83z"/>
<path d="M66.2,83l-3.5,55.3L39,154.6l19.1-74.2L66.2,83z"/>
</g>
</g>
</g>
<g id="Loin-Cloth" class="toggle" style="">
<g id="Clean_Loin-Cloth" class="option" style="display: inherit;">
<path id="Trim_Loin-Cloth-Clean" d="M97,86.8H71.8v44.7l12.6,12.6L97,131.6V86.8z" style="fill: rgb(232, 81, 227);"/>
<path id="Main_Loin-Cloth-Clean" d="M95.3,91.5H73.4v39l11,11l11-11L95.3,91.5z" style="fill: rgb(52, 68, 83);"/>
</g>
</g>
<g id="Left-Holster" class="toggle" style="display:none"/>
<g id="Right-Holster" class="toggle" style="display:none"/>
</g>
<g id="Under-Belt">
<g id="Sash" class="option" style="fill: rgb(249, 136, 198); display: inherit;">
<path d="M56.3,79.3c2.6-0.5,6.5,1,9.8,1.3c3.6,0.3,7.2,0,10.7,0.3c2.1,0.1,4.1,0.7,6.2,0.9c4,0.5,8,0.2,11.9-0.3 c1-0.1,2.1-0.2,3.2-0.4c2.6-0.5,6-1.1,8.2-2.2c2-0.5,4-0.6,5.8-0.1c1.9,0.5,0.6,4.3,0.7,5.8c0.1,1.6,1.3,8.1,2,9.5 c0.8,1.7,1.4,3.5-0.9,4.6c-1.9,0.9-3.9,0.1-5.9-0.2c-2.3-0.3-4.5-0.2-6.8,0.3c-2.8,0.5-5.5,1.5-8.3,1.8 c-3.8,0.4-7.5-0.3-11.3-0.3c-2.2,0-4.2,0.7-6.4,0.6c-3.6-0.3-6.9-1.8-10.4-2.1C63,98.6,61.3,99,59.5,99c-1.2,0-2.3-0.3-3.5-0.6 c-1.2-0.3-2.3-0.2-2.9-1.3c-0.5-0.8,0.5-3.1,1-3.8c1.2-1.8,1.6-8.2,1.1-10.3C55.1,81.4,54.5,79.6,56.3,79.3z"/>
<path d="M53.7,94.5c4,0,7.5-0.1,11.1,1.3c12.2,4.7,11.9,4.1,17.1,4.6c7.6,0.8,10.7,0.5,13.8-0.2 c1.3-0.3,2.5-0.7,3.7-1.3c2-1,4-2.1,5.8-3.5c2.2-1.7,6-2.9,9.1-2.8c0,0-0.6-2-1.4-8c-0.2-1.5,0.8-3.2,0-5.3 c-0.3-0.9-3.4-0.7-5.4-0.5c-4.1,0.3-5.9,3.3-9,5.6c-1.8,1.4-4,3-6.7,3.9c-4.3,1.4-10.9,2-23.4-2.2c-4.1-1.4-7.6-3.9-13-3.1 c0,0,0.2,2.8,0.2,4.2C55.6,91.6,53.7,94.5,53.7,94.5z"/>
</g>
</g>
<g id="Belt">
<g id="Pouch-Belt-4" class="option" style="display: inherit;">
<path id="Main_Pouch-Belt-4" d="M114.5,92.5c-6.8,0.6-22.3,2.8-30.1,2.8c-7.9,0-23.4-2.2-30.1-2.8l1-7.9 c5.5,0.5,21.4,2.7,29.1,2.7c7.4,0,23-2.2,28.9-2.8L114.5,92.5z" style="fill: rgb(46, 24, 3);"/>
<rect id="Buckle_Pouch-Belt-4" x="78.8" y="86.6" width="11.2" height="9.2" style="fill: rgb(37, 37, 37);"/>
<g id="Pouches_Pouch-Belt-4" style="fill: rgb(80, 41, 4);">
<g>
<g>
<path d="M59.3,83c-0.3,0-0.6,0-0.9,0.2c-0.7,0.3-1.8,0.8-1.8,0.8l7.3,0.4l2-0.9C65.8,83.5,60.8,83.1,59.3,83z"/>
<path d="M66.1,83.8c0-0.1,0-0.2-0.1-0.2c-0.1-0.1-0.2-0.1-0.2,0c-0.7,0.3-1.9,0.9-1.9,0.9l-1,12.4 c0.6-0.4,1.3-0.7,1.9-0.8c0.4-0.1,0.7-0.4,0.7-0.8C65.6,91.3,65.7,87.5,66.1,83.8z"/>
<path d="M63.8,84.4L56.5,84c-0.1,1.9-0.2,3.8-0.3,5.7c-0.1,2.1-0.2,4.2-0.3,6.3c0,0.2,0,0.3,0.1,0.4 s0.2,0.2,0.4,0.2c2.1,0,4.1,0.1,6.2,0.4c0.1,0,0.3,0,0.4-0.1s0.2-0.2,0.2-0.4c0.1-1.5,0.4-5.3,0.4-5.3L63.8,84.4z"/>
<path d="M63.8,84.4L56.5,84c0,0-0.2,1.6-0.4,3.2c-0.1,0.8,0.1,1.5,0.6,2.1c0.5,0.6,1.2,0.9,1.9,1 c0.7,0,1.5,0.1,2.2,0.1c0.8,0,1.5-0.2,2-0.7s0.9-1.2,0.9-2C63.8,86,63.8,84.4,63.8,84.4z"/>
<path d="M59.9,88.8c0.3,0,0.5,0.3,0.4,0.5c0,0.3-0.2,0.5-0.5,0.5s-0.5-0.3-0.4-0.5C59.4,89,59.6,88.8,59.9,88.8z"/>
</g>
</g>
<g>
<path d="M51.9,83.9l0.5-0.9l2.8,0.1l0.3,1.1L51.9,83.9z"/>
<path d="M55.6,84.3c0-0.1,0-0.1-0.1-0.2c0-0.1-0.1-0.1-0.2-0.1c-0.8,0-3.5-0.1-3.5-0.1l-0.5,11.2 c0.1,0.3,1.5,0.5,2.7,0.5c0.5,0,0.9-0.4,0.9-0.9C55,91.2,55.2,87.7,55.6,84.3z"/>
</g>
<g>
<g>
<path d="M109.5,83c0.3,0,0.6,0,0.9,0.2c0.7,0.3,1.8,0.8,1.8,0.8l-7.3,0.4l-2-0.9C103,83.5,107.9,83.1,109.5,83z"/>
<path d="M102.7,83.8c0-0.1,0-0.2,0.1-0.2c0.1,0,0.2-0.1,0.2,0c0.7,0.3,1.9,0.9,1.9,0.9l1,12.4 c-0.6-0.4-1.3-0.7-1.9-0.8c-0.4-0.1-0.7-0.4-0.7-0.8C103.2,91.3,103.1,87.5,102.7,83.8z"/>
<path d="M104.9,84.4l7.3-0.4c0.1,1.9,0.2,3.8,0.3,5.7c0.1,2.1,0.2,4.2,0.3,6.3c0,0.2,0,0.3-0.1,0.4 c-0.1,0.1-0.2,0.2-0.4,0.2c-2.1,0-4.1,0.1-6.2,0.4c-0.1,0-0.3,0-0.4-0.1c-0.1-0.1-0.2-0.2-0.2-0.4c-0.1-1.5-0.4-5.3-0.4-5.3 L104.9,84.4z"/>
<path d="M104.9,84.4l7.3-0.4c0,0,0.2,1.6,0.4,3.2c0.1,0.8-0.1,1.5-0.6,2.1c-0.5,0.6-1.2,0.9-1.9,1 c-0.7,0-1.5,0.1-2.2,0.1c-0.8,0-1.5-0.2-2-0.7s-0.9-1.2-0.9-2C104.9,86,104.9,84.4,104.9,84.4z"/>
<path d="M108.9,88.8c-0.3,0-0.5,0.3-0.4,0.5c0,0.3,0.2,0.5,0.5,0.5s0.5-0.3,0.4-0.5 C109.3,89,109.1,88.8,108.9,88.8z"/>
</g>
</g>
<g>
<path d="M116.9,83.9l-0.5-0.9l-2.8,0.1l-0.3,1.1L116.9,83.9z"/>
<path d="M113.2,84.3c0-0.1,0-0.1,0.1-0.2c0-0.1,0.1-0.1,0.2-0.1c0.8,0,3.5-0.1,3.5-0.1l0.5,11.2 c-0.1,0.3-1.5,0.5-2.7,0.5c-0.5,0-0.9-0.4-0.9-0.9C113.7,91.2,113.6,87.7,113.2,84.3z"/>
</g>
</g>
</g>
</g>
</g>
<g id="Extras_Front">
<g id="Front">
<g id="None_Front" class="option" style="display: inherit;">
</g>
</g>
</g>
</svg></svg>