<?xml version='1.0' encoding='UTF-8'?><svg version='1.1' xmlns='http://www.w3.org/2000/svg'><metadata><rdf:rdf xmlns:rdf="http://www.w3.org/1999/02/22-rdf-syntax-ns#" xmlns:rdfs="http://www.w3.org/2000/01/rdf-schema#" xmlns:dc="http://purl.org/dc/elements/1.1/"> <rdf:description> <dc:creator>MandoCreator</dc:creator> <dc:publisher>https://www.mandocreator.com</dc:publisher> <dc:description>Your Beskar'gam - created by MandoCreator</dc:description> <dc:format>image/svg+xml</dc:format> <dc:type>Image</dc:type> <dc:title>MandoCreator - Ner Berskar'gam</dc:title> <dc:date>2021-10-08T16:23:19.206Z</dc:date> </rdf:description> </rdf:rdf></metadata><svg version="1.1" id="Female" xmlns="http://www.w3.org/2000/svg" viewBox="0 -55 169 300" style="fill: white; fill-rule: evenodd; stroke: black; stroke-width: 0.2px; pointer-events: none; position: relative; height: 100%;">
<g id="Extras_Back">
<g id="Back"><path id="Short-Cape-Left_Back" class="option" d="M104,28.7c-1.3-3.8-2.5-7.5-2.5-7.5c0.5-1,4.1-1,5.1-0.9 c2.4,0.1,5.7,1.2,7.2,3c0.8,1,2.5,1.1,3.1,2.3c0,0.1,0.6,1.1,0.5,1.2c0,0,0.3,2.1,0.6,4.5c2.4,1.9,4.6,4.5,6,7.4 c3.7,7.4,7.3,15.8,10.2,23.8c2.4,6.8,6.5,13.5,9,20.2c2.8,7.6,4.2,12.9,6.6,20.7c2.5,8,5.6,15.1,10.3,21c1.8,2.3,4.9,4.2,6.1,7.3 c0.1,0.3,1.2,3.2,1.1,3.2c-0.9,0.4-2.3,0.1-3.2,0.1c-3.7,0.1-11.5-4.3-15-2.6c-4.5,2.2-4,11.1-8.2,14.1 c-4.3,3.1-11.6-4.6-16.6-4.6c-4.6,0-3.5,12.1-7.5,14.6c-1.2,0.8-9.4,0.9-9.3,0.7c0.5-2.5,1.4-8.8,0.5-15.9 c-1.1-8.8-1.3-14.8-2.4-23.7c-0.7-5.9-0.1-9-1.4-14.8c-1.4-6.4-0.7-13.8-2.5-20.2c-1.7-6.2-1.1-13.4-2.2-19.9 c-1.7-10.3-0.2-29.3,4.1-33.8C103.9,28.8,104,28.7,104,28.7z" style="fill: rgb(79, 79, 79); display: inherit;"/>
</g>
</g>
<g id="Suit">
<g id="Neck-Seal">
<g id="Standard-Neck-Seal" class="option" style="fill: rgb(36, 36, 36); display: inherit;">
<path d="M95.2,8.5c0-0.9-0.7-1.7-1.6-1.7c0,0-6.1,0.9-9.1,0.9c-3,0-9.1-0.9-9.1-0.9c-0.9,0-1.6,0.7-1.6,1.7 c0,0.9,0.7,1.6,1.6,1.6c0,0,6.1,0.9,9.1,0.9c3,0,9.1-0.9,9.1-0.9C94.4,10.1,95.2,9.4,95.2,8.5z"/>
<path d="M95.7,10.4c0-1-0.8-1.7-1.7-1.7c0,0-6.4,0.9-9.5,0.9s-9.5-0.9-9.5-0.9c-0.9,0-1.7,0.8-1.7,1.7 c0,1,0.8,1.7,1.7,1.7c0,0,6.4,0.9,9.5,0.9s9.5-0.9,9.5-0.9C95,12.1,95.7,11.3,95.7,10.4z"/>
<path d="M96.3,12.8c0-1-0.8-1.8-1.8-1.8c0,0-6.7,1-10.1,1c-3.4,0-10.1-1-10.1-1c-1,0-1.8,0.8-1.8,1.8 s0.8,1.8,1.8,1.8c0,0,6.7,1,10.1,1c3.4,0,10.1-1,10.1-1C95.5,14.6,96.3,13.8,96.3,12.8z"/>
<path d="M96.9,15c0-1.1-0.8-1.9-1.9-1.9c0,0-7,1-10.6,1c-3.5,0-10.6-1-10.6-1c-1,0-1.9,0.9-1.9,1.9 c0,1.1,0.8,1.9,1.9,1.9c0,0,7,1,10.6,1c3.5,0,10.6-1,10.6-1C96.1,16.9,96.9,16,96.9,15z"/>
<path d="M97.5,17.1c0-0.8-0.9-1.5-2-1.5c0,0-7.4,0.8-11.1,0.8c-3.7,0-11.1-0.8-11.1-0.8c-1.1,0-2,0.6-2,1.5 c0,0.8,0.9,1.5,2,1.5c0,0,7.4,0.8,11.1,0.8c3.7,0,11.1-0.8,11.1-0.8C96.6,18.6,97.5,17.9,97.5,17.1z"/>
<path d="M97.5,19.6c0-0.8-0.9-1.5-2-1.5c0,0-7.4,0.8-11.1,0.8c-3.7,0-11.1-0.8-11.1-0.8c-1.1,0-2,0.6-2,1.5 c0,0.8,0.9,1.4,2,1.4c0,0,7.4,1.5,11.1,1.5c3.7,0,11.1-1.5,11.1-1.5C96.6,21,97.5,20.4,97.5,19.6z"/>
</g>
</g>
<g id="Flight-Suit" style="fill: rgb(36, 36, 36);">
<path d="M38.9,64l5.1-18.4l11.8-8l1.8,16.1c0,0-5.1,9.7-6.9,14.2c-1.8,4.6-5,15.1-5.4,16.5l-2.8,24.4l-8.1-2.6 c0,0-0.3-16.9,0.4-24C35.5,76,38.9,64,38.9,64z"/>
<path d="M130.1,64l-5.1-18.5l-11.7-7.9l-1.9,16.2c0,0,5.1,9.6,6.8,14.1c1.8,4.6,5,15.1,5.4,16.5l2.8,24.4l8.1-2.6 c0,0,0.3-16.9-0.4-24C133.5,76,130.1,64,130.1,64z"/>
<path d="M84.5,116.1c-1,0.1-1.9,0.5-2.2,1.2c-2.9,6.2-8.9,34.4-10.7,39.6c-0.9,2.8-1.7,18.3-3.3,27.3 c-1.9,10.8-8.2,37.3-8.2,37.3l-10.9-1.1c0,0-1.4-26.6-1-36.3c0.3-7.4,3.3-21.8,3.3-21.8s0.7-5.3,0.7-7.9c0.1-9.6,0.9-31,2.8-43.3 c1.5-9.7,10.6-30.1,10.6-30.1s11.9,4.7,18.8,4.7c7,0,18.9-4.8,18.9-4.8s8.6,20.5,10.1,30.2c1.9,12.3,3.2,33.7,3.2,43.3 c0,2.7,0.7,7.9,0.7,7.9s3,14.5,3.3,21.8c0.4,9.7-1,36.3-1,36.3l-10.9,1.1c0,0-6.3-26.5-8.2-37.3c-1.6-9-2.3-24.5-3.3-27.3 c-1.7-5.2-7.7-33.4-10.7-39.6C86.5,116.6,85.6,116.2,84.5,116.1L84.5,116.1z"/>
</g>
<g id="Sleeves" class="toggle" style="fill: rgb(36, 36, 36);">
<path d="M42.6,45.6l0.8,0.3l12.4-8.3c0,0,0.4,8.8,1.4,14.1c0.1,0.7,0.4,1.7,0.6,2.7l-1.6,5.3c0,0-5.6-2.2-8.1-3.6 c-2.4-1.4-6.7-5-6.7-5L42.6,45.6z"/>
<path d="M111.3,54.4c0.3-1.1,0.5-2,0.6-2.7c1-5.3,1.4-14.1,1.4-14.1l12.4,8.3l0.8-0.3l1.2,5.5c0,0-4.3,3.6-6.7,5 c-2.5,1.4-8.1,3.6-8.1,3.6L111.3,54.4z"/>
</g>
</g>
<g id="Boots">
<g id="Tall_Boots" class="option" style="display: inherit;">
<g id="Bottom_Tall-Boot" style="fill: rgb(23, 23, 23);">
<path d="M62.5,229.5c0,0.1,0,0.3-0.1,0.4c-0.9,1.8-3.2,2.4-4.8,2.8c-1.1,0.3-2.2,0.7-3.3,1.2c-1.5,0.7-2.2,2-3.4,3.2 c-0.5,0.5-1.1,0.9-1.7,1.3c-1.5,1-2.9,1.1-4.5,1.1c-2.2,0.1-4.2-0.3-6.4-0.8c-1.9-0.5-3.4-0.9-5-1.4c-0.5-0.2-1.1-0.3-1.4-0.7 l-0.3,0.6l-0.2,1.7c0,0,1.8,1.1,3.7,1.6c1.9,0.5,5.8,1.2,5.8,1.2l0.3-0.7l0.9,0.2l0,0.7l2.1,0.1l0.4-0.7l0.7,0l-0.1,0.6 c0,0,1.3,0,2-0.5c0.1-0.2,0.4-0.6,0.4-0.6l0.5-0.3l-0.1,0.6l1.8-0.7l0.1-0.8l0.5-0.3l0,0.6l1.3-1.1L52,238l2.8-1.7l0.9,0.4 l2.3-0.6l0.1-0.6l0.6-0.3l0.4,0.4l1.5-0.7l0-0.5l0.5-0.2l0.1,0.4l1.4-1.1L62.5,229.5z M62.5,228.9L62.5,228.9L62.5,228.9 L62.5,228.9z"/>
<path d="M106.6,229.5c0,0.1,0,0.3,0.1,0.4c0.9,1.8,3.2,2.4,4.8,2.8c1.1,0.3,2.2,0.7,3.3,1.2c1.5,0.7,2.2,2,3.4,3.2 c0.5,0.5,1.1,0.9,1.7,1.3c1.5,1,2.9,1.1,4.5,1.1c2.2,0.1,4.2-0.3,6.4-0.8c1.9-0.5,3.4-0.9,5-1.4c0.5-0.2,1.1-0.3,1.4-0.7l0.3,0.6 l0.2,1.7c0,0-1.8,1.1-3.7,1.6c-1.9,0.5-5.8,1.2-5.8,1.2l-0.3-0.7l-0.9,0.2l0,0.7l-2.1,0.1l-0.4-0.7l-0.7,0l0.1,0.6 c0,0-1.3,0-2-0.5c-0.1-0.2-0.4-0.6-0.4-0.6l-0.5-0.3l0.1,0.6l-1.8-0.7l-0.1-0.8l-0.5-0.3l0,0.6l-1.3-1.1l-0.1-0.7l-2.8-1.7 l-0.9,0.4l-2.3-0.6l-0.1-0.6l-0.6-0.3l-0.4,0.4l-1.5-0.7l0-0.5l-0.5-0.2l-0.1,0.4l-1.4-1.1L106.6,229.5z M106.5,228.9 L106.5,228.9L106.5,228.9L106.5,228.9z"/>
</g>
<g id="Main_Tall-Boot" style="fill: rgb(54, 53, 52);">
<path d="M62.5,216c1.3-4.3,2.2-11.2,3-14.3c0.6-2.3,3.2-15.1,2.8-16.7c-0.4-1.6-19.6-4.8-20.1-3.4 c-0.8,2.2,0.3,24.3,0.2,27.5c-0.1,2.4,0.2,7.4,0.2,7.4c-0.2,1.3-0.4,2.7-0.9,3.9c-0.9,2.2-1.5,2.9-2.9,4.6c-1,1.1-3,3.1-4.2,3.9 c-0.5,0.4-2.3,1.7-2.3,1.7c-2.3,1-4.8,0.6-6,3.5c-0.3,0.6-0.5,1.4-0.5,2.1c0.1,0.9,0.9,1,1.6,1.2c1.7,0.5,3.1,1,5,1.4 c2.2,0.6,4.2,0.9,6.4,0.8c1.7-0.1,3.1-0.1,4.5-1.1c0.6-0.4,1.2-0.8,1.7-1.3c1.1-1.2,1.9-2.4,3.4-3.2c1.1-0.5,2.2-0.9,3.3-1.2 c1.6-0.4,3.9-1,4.8-2.8c0.3-1.3,0-2-0.1-3.2l-0.1-0.5c-0.1-0.8-0.2-1.5-0.2-2.3c-0.1-1.6,0.3-3.1,0.4-4.7 c0.1-0.9,0.1-1.8,0.1-2.7C62.5,216.5,62.5,216.2,62.5,216z"/>
<path d="M106.6,216c-1.3-4.3-2.2-11.2-3-14.3c-0.6-2.3-3.2-15.1-2.8-16.7c0.4-1.6,19.6-4.8,20.1-3.4 c0.8,2.2-0.3,24.3-0.2,27.5c0.1,2.4-0.2,7.4-0.2,7.4c0.2,1.3,0.4,2.7,0.9,3.9c0.9,2.2,1.5,2.9,2.9,4.6c1,1.1,3,3.1,4.2,3.9 c0.5,0.4,2.3,1.7,2.3,1.7c2.3,1,4.8,0.6,6,3.5c0.3,0.6,0.5,1.4,0.5,2.1c-0.1,0.9-0.9,1-1.6,1.2c-1.7,0.5-3.1,1-5,1.4 c-2.2,0.6-4.2,0.9-6.4,0.8c-1.7-0.1-3.1-0.1-4.5-1.1c-0.6-0.4-1.2-0.8-1.7-1.3c-1.1-1.2-1.9-2.4-3.4-3.2 c-1.1-0.5-2.2-0.9-3.3-1.2c-1.6-0.4-3.9-1-4.8-2.8c-0.3-1.3,0-2,0.1-3.2l0.1-0.5c0.1-0.8,0.2-1.5,0.2-2.3 c0.1-1.6-0.3-3.1-0.4-4.7c0-0.9-0.1-1.8-0.1-2.7C106.6,216.5,106.6,216.2,106.6,216z"/>
</g>
</g>
</g>
<g id="Gloves">
<g id="Left-Glove">
<g id="Basic_Left_Glove" class="option" style="fill: rgb(54, 53, 52); display: inherit;">
<path d="M131.4,123c-0.5,0-0.9,0-1.3,0.1c-0.3,0.1-0.6,0.2-0.9,0.3c-0.8,0.5-0.6,1.7,0.1,2.2c0.9,0.5,2.2,0,2.6-1 C132.1,124.2,131.6,123.4,131.4,123"/>
<path d="M129.9,124c-0.5,0-0.9,0-1.3,0.1c-0.3,0.1-0.6,0.2-0.9,0.3c-0.8,0.5-0.6,1.7,0.1,2.2c0.9,0.5,2.2,0,2.6-1 C130.6,125.2,130.1,124.4,129.9,124"/>
<path d="M128.8,125.4c-0.4,0-1,0.1-1.4,0.3c-0.3,0.1-0.6,0.2-0.8,0.5c-0.8,0.7-0.4,1.8,0.4,2.1 c0.9,0.4,2.2-0.3,2.5-1.4C129.5,126.5,128.8,125.4,128.8,125.4z"/>
<path d="M126.3,109.6c0,0-1.3,2-1.6,3.5c-0.2,1-0.1,3.5-0.4,5.2c-0.3,1.7-0.6,2.6-0.6,2.6s-1.2,2.7-0.9,3.3 c0.2,0.6,1.2,1.2,1.8,0.8c0.7-0.4,1.6-2.3,2.2-3.6c0.6-1.3,1-3.2,1-3.2s0.8,0.3,1.2,0.7c1.3,1.2,0.8,4.7,0.8,4.7 s-0.6,1.3-1.4,2.7c-1.1,1.9-2.9,3.6-1.7,5.1c1.1,1.4,3.5-2.3,3.5-2.3l2.4-3.5c0,0,2.8-5.1,2.9-6.1c0.1-0.8,0-3.3,0-3.3l-0.9-9.9 l-4.4,0.4l-3.6,1.3L126.3,109.6"/>
</g>
</g>
<g id="Right-Glove">
<g id="Basic_Right_Glove" class="option" style="fill: rgb(54, 53, 52); display: inherit;">
<path d="M37.6,123c0.5,0,0.9,0,1.3,0.1c0.3,0.1,0.6,0.2,0.9,0.3c0.8,0.5,0.6,1.7-0.1,2.2c-0.9,0.5-2.2,0-2.6-1 C36.9,124.2,37.4,123.4,37.6,123"/>
<path d="M39.2,124c0.5,0,0.9,0,1.3,0.1c0.3,0.1,0.6,0.2,0.9,0.3c0.8,0.5,0.6,1.7-0.1,2.2c-0.9,0.5-2.2,0-2.6-1 C38.4,125.2,38.9,124.4,39.2,124"/>
<path d="M40.3,125.4c0.5,0,1,0.1,1.4,0.3c0.3,0.1,0.6,0.2,0.8,0.5c0.8,0.7,0.4,1.8-0.4,2.1c-0.9,0.4-2.2-0.3-2.5-1.4 C39.5,126.5,40.3,125.4,40.3,125.4z"/>
<path d="M42.7,109.6c0,0,1.3,2,1.6,3.5c0.2,1,0.1,3.5,0.4,5.2c0.3,1.7,0.6,2.6,0.6,2.6s1.1,2.7,0.9,3.3 c-0.2,0.6-1.2,1.2-1.8,0.8c-0.7-0.4-1.6-2.3-2.2-3.6c-0.6-1.3-1-3.2-1-3.2s-0.8,0.3-1.2,0.7c-1.3,1.2-0.8,4.7-0.8,4.7 s0.6,1.3,1.4,2.7c1.1,1.9,2.9,3.6,1.7,5.1c-1.1,1.4-3.5-2.3-3.5-2.3l-2.4-3.5c0,0-2.8-5.1-2.9-6.1c-0.1-0.8,0-3.3,0-3.3l0.9-9.9 l4.4,0.4l3.6,1.3L42.7,109.6"/>
</g>
</g>
</g>
<g id="Biceps">
<g id="Left-Biceps">
<g id="Full-Band_Biceps_Left" class="option" style="display: inherit;">
<path id="Main_Full-Band_Biceps_Left" d="M112,58.7l-0.7-2L108,46.2c0,0,12.4-4.2,15.9-5.4 c0.5-0.2,1.1,0.1,1.3,0.6c1.1,2.8,4.3,11.3,4.3,11.3L112,58.7" style="fill: rgb(43, 218, 227);"/>
<g id="Trim_Full-Band_Biceps_Left" style="fill: rgb(176, 74, 212);">
<path d="M125.7,49c0.9,0,1.7,0.7,1.7,1.6c0,0.9-0.8,1.6-1.7,1.6c-0.9,0-1.7-0.7-1.7-1.6C124,49.8,124.8,49,125.7,49 "/>
<path d="M129.4,52.8l0.4,1.1c0.1,0.3,0.1,0.6,0,0.9c-0.1,0.3-0.4,0.5-0.7,0.6c-3.2,1.1-12,4-15.1,5.1 c-0.6,0.2-1.3-0.1-1.5-0.7l-0.4-1.1L129.4,52.8"/>
</g>
</g>
</g>
<g id="Right-Biceps">
<g id="Full-Band_Biceps_Right" class="option" style="display: inherit;">
<path id="Main_Full-Band_Biceps_Right" d="M57,58.7l0.7-2l3.3-10.4c0,0-12.4-4.2-15.9-5.4 c-0.5-0.2-1.1,0.1-1.3,0.6c-1.1,2.8-4.3,11.3-4.3,11.3L57,58.7" style="fill: rgb(43, 218, 227);"/>
<g id="Trim_Full-Band_Biceps_Right" style="fill: rgb(176, 74, 212);">
<path d="M43.3,49c-0.9,0-1.7,0.7-1.7,1.6c0,0.9,0.8,1.6,1.7,1.6c0.9,0,1.7-0.7,1.7-1.6C45,49.8,44.3,49,43.3,49"/>
<path d="M39.7,52.8l-0.4,1.1c-0.1,0.3-0.1,0.6,0,0.9c0.1,0.3,0.4,0.5,0.7,0.6c3.2,1.1,12,4,15.1,5.1 c0.6,0.2,1.3-0.1,1.5-0.7l0.4-1.1L39.7,52.8"/>
</g>
</g>
</g>
</g>
<path id="Vest" d="M90.9,86.3c-4.2,0.9-8.6,0.9-12.8,0c-4.2-0.9-12.5-5.2-12.5-5.2s-7.2-22.8-8.5-29.4 c-1-5.3-1.4-14.1-1.4-14.1L43.4,46l-2.6-1.1c0,0,7.4-16.4,12.3-21.1c4.4-4.3,17-7.3,17-7.3s5.5,6.1,14.6,6.1 c8.6,0,14.6-6.1,14.6-6.1s12.5,3.1,17,7.3c4.9,4.7,12.3,21.1,12.3,21.1l-2.6,1.1l-12.4-8.3c0,0-0.4,8.8-1.4,14.1 c-1.3,6.6-8.5,29.4-8.5,29.4S95.1,85.4,90.9,86.3z" style="fill: rgb(54, 53, 52);"/>
<g class="swappable" id="Chest">
<g id="Chest_Galaxy" style="visibility: visible;">
<g id="Abdomen_Galaxy">
<path id="Abdomen-Plate_Galaxy" d="M77.9,74.5l-2,1.4l-10-1.4l-0.7-5.5l4.7-0.1l2.9-4.7l1.3-4.3l10.4-9.5l0,0l0,0 l10.4,9.5l1.3,4.3l2.9,4.7l4.7,0.1l-0.7,5.5l-10,1.4l-2-1.4H77.9z" style="fill: rgb(176, 74, 212);"/>
<path id="Trauma-Plate_Abdomen_Galaxy" class="toggle" style="fill: rgb(43, 218, 227);" d="M84.5,52.5l-9,8.2l-1.2,4.1l-3.4,5.6L67,70.5l0.3,2.5l8.2,1.2 l1.9-1.4h14.2l1.9,1.4l8.2-1.2l0.3-2.5l-3.8-0.1l-3.4-5.6l-1.2-4.1L84.5,52.5L84.5,52.5L84.5,52.5z"/>
</g>
<g id="Full-Chest_Galaxy">
<path id="Chest-Plate_Galaxy" d="M80.3,36.5l0,9.7l3,3.1L72.7,59.4L71.3,64l-2.3,3.7h-3.9L63.3,65l-2.4-13.5 l-3.5-5.5l4.5-14.5l5.2-0.7l0.7-3.2l5.5-0.7l1.7,2.9h19l1.7-2.9l5.5,0.7l0.7,3.2l5.2,0.7l4.5,14.5l-3.5,5.5L105.7,65l-1.9,2.8 h-3.9L97.7,64l-1.4-4.7L85.6,49.3l3-3.1l0-9.7l-4.2-3.2L80.3,36.5z" style="fill: rgb(176, 74, 212);"/>
<path id="Trauma-Plating_Left-Chest_Galaxy" class="toggle" style="fill: rgb(43, 218, 227);" d="M94.9,31.4H84.6l5.7,4.4l0,11.1l-2.3,2.4l9.8,9.3 l1.4,4.9l1.7,2.8h2.1l1.2-1.8l2.4-13.5l3.3-5.2l-4-12.8l-5.3-0.7L100,29l-3.4-0.4L94.9,31.4z"/>
<path id="Trauma-Plating_Right-Chest_Galaxy" class="toggle" style="fill: rgb(43, 218, 227);" d="M72.4,28.6L69,29l-0.7,3.2L63,32.9l-4,12.8l3.3,5.2 l2.4,13.5l1.2,1.8h2.1l1.7-2.8l1.4-4.9l9.8-9.3l-2.3-2.4l0-11.1l5.7-4.4H74.1L72.4,28.6z"/>
<g id="Accents_Chest-Plate_Galaxy" class="toggle" style="fill: rgb(176, 74, 212);">
<rect x="95" y="34.4" width="8.8" height="1.2"/>
<rect x="95" y="36.5" width="8.8" height="1.2"/>
</g>
</g>
<g id="Iron-Heart_Galaxy">
<path id="Heart_Galaxy" d="M81.9,45.9v-8.7l2.6-2l2.6,2v8.7l-2.6,2.6L81.9,45.9z" style="fill: rgb(176, 74, 212);"/>
<rect id="Center_Heart_Galaxy" class="option" x="83.6" y="38.6" width="1.8" height="6" style="fill: rgb(43, 218, 227); display: inherit;"/>
</g>
<g id="Neck-Armor_Galaxy">
<g id="Neck-Plate_Galaxy" style="fill: rgb(176, 74, 212);">
<path d="M82.4,28.8l-7,0.1l-1.7-2.8L67,26.9l-0.7,2.9L62,30.3l-3.2-10.9l10.9-3.3c0,0,1.4,2.5,2.5,3.3 c1.1,0.9,2.5,1.9,3.9,2.5c1.5,0.6,3.3,1.1,5,1.4c0.2,0,0.4,0.1,0.6,0.1L82.4,28.8z"/>
<path d="M86.6,28.8l7,0.1l1.7-2.8l6.7,0.8l0.7,2.9l4.3,0.5l3.2-10.9l-10.9-3.3c0,0-1.4,2.5-2.5,3.3 c-1.1,0.9-2.5,1.9-3.9,2.5c-1.5,0.6-3.3,1.1-5,1.4c-0.2,0-0.4,0.1-0.6,0.1L86.6,28.8z"/>
</g>
<g id="Trauma-Plates_Neck_Galaxy" class="toggle" style="display: none; fill: rgb(255, 255, 255);"/>
</g>
</g>
</g>
<g id="Chest-Attachments">
<g id="No-Device_Accessories_Chest" class="option" style="display: inherit;">
</g>
</g>
<g id="Collar">
<g id="Cloth-Wrap-Right_Collar" class="option" style="display: inherit;">
<g id="Main_Cloth-Wrap-Right_Collar" style="fill: rgb(79, 79, 79);">
<path d="M94.6,26c4.5-1.4,5.3-3.7,5.6-6c0.1-0.9-1.2-3.4,0.2-4c1.6-0.7,5.3,0.4,6.8,0.7c1.1,0.2,2.1,1.4,3.3,1.4 c2.7,0,4.8,2.9,5,4.3c0.3,1.9-3,0.5-4.5,2c-3.9,3.5-5.2,8.3-13.3,9.6c-3.7,0.6-7.4-0.2-10.9-1c-8.9-2-13.8-3.7-19.5-8.1 c-2.5-1.9-6.3-3.5-6.2-6.1c0-0.1,1.8-1.2,2-1.2c1.6-0.4,3-1.1,4.7-1.1c1.1,0,0.9,0.9,1,1.3c0.3,1.6,1.7,2.8,3.6,4 C77.2,24.8,88.1,25.8,94.6,26z"/>
<path d="M94.6,26c1.2,0,2.2,0.2,3.2,0.3c4.1,0.3,5.6-0.8,6.4-2.6"/>
<path d="M107.5,16.8c1.2,2,1,4.3,0.1,5.8"/>
<path d="M72.8,22.4c3.1,4.2,7.7,5.6,12.7,6.1"/>
<path d="M64.3,17.2c0.2,1.1,0.8,1.5,1.6,2.2c0.5,0.4,1,0.7,1.4,1.2c0.1,0.2,0.2,0.4,0.3,0.6"/>
</g>
<path id="Buckle_Cloth-Wrap-Right_Collar" d="M73.8,21.6l-2.6-1.9l-4.6,6.4l2.6,1.9L73.8,21.6z" style="fill: rgb(186, 186, 186);"/>
</g>
</g>
<svg version="1.1" id="Helmets" xmlns="http://www.w3.org/2000/svg" y="-54px" height="85px" viewBox="0 0 80 80" class="swappable">
<g id="Helmet_Nite" style="visibility: visible;">
<g id="Left-Earcap_Nite" class="toggle">
<g id="Ear-Cap_Left_Nite" style="fill: rgb(176, 74, 212);">
<path d="M59.9,57l1.7-2.6l-1.7-17.8l-2.4-1.5L59.9,57z"/>
<path d="M58.1,41.4l2-2.1"/>
</g>
</g>
<g id="Right-Earcap_Nite" class="toggle">
<g id="Range-Finder_Right_Nite" class="option" style="display: inherit;">
<path id="Shaft_Right_Range-Finder_Nite" d="M22.5,9.7l1.1,0.1L22,36.7h-1.1L22.5,9.7z" style="fill: rgb(79, 79, 79);"/>
<path id="Finder_Right_Range-Finder_Nite" d="M30.8,7.6h-6L25,6.9l7-0.7L30.8,7.6" style="fill: rgb(79, 79, 79);"/>
<g id="Cover_Right_Range-Finder_Nite" style="fill: rgb(176, 74, 212);">
<path d="M21.6,8.6l2.8,0.2l0.6-2l7.5-0.7l0.1-0.8L22,5l-1,1.3L21.6,8.6"/>
<path d="M22.4,8.6l1.4,0.1l-0.1,1.1l-1.4-0.1L22.4,8.6"/>
</g>
</g>
<g id="Ear-Cap_Right_Nite" style="fill: rgb(176, 74, 212);">
<path d="M20.1,57l-1.7-2.6l1.7-17.8l2.4-1.5L20.1,57z"/>
<path d="M21.9,41.4l-2-2.1"/>
</g>
</g>
<g id="Helmet_Pieces_Nite">
<g id="Face_Nite" style="fill: rgb(176, 74, 212);">
<path d="M21.3,45c0.2,0.1,5,2.6,7.7,6.1c4.7,6.3,7.6,13.7,7.9,14.5c-1.6-0.1-3-0.3-3.6-0.5 c-2.9-1.1-11.2-6.4-11.2-6.4L20,57L21.3,45"/>
<path d="M58.7,45c-0.2,0.1-5,2.6-7.7,6.1c-4.7,6.3-7.6,13.7-7.9,14.5c1.6-0.1,3-0.3,3.6-0.5 c2.9-1.1,11.2-6.4,11.2-6.4L60,57L58.7,45"/>
</g>
<g id="Cheeks_Nite" style="fill: rgb(43, 218, 227);">
<path d="M21.3,45l0.5-4.3c0,0,5.4,3.2,7.2,4.9c1.8,1.7,4.4,4.3,4.9,6.8c0.8,3.3,3.1,13.2,3.1,13.2h-0.1 c-0.3-0.8-3.2-8.2-7.9-14.5C26.4,47.7,21.7,45.2,21.3,45"/>
<path d="M58.7,45l-0.5-4.3c0,0-5.4,3.2-7.2,4.9c-1.8,1.7-4.4,4.3-4.9,6.8C45.4,55.7,43,65.6,43,65.6h0.1 c0.3-0.8,3.2-8.2,7.9-14.5C53.6,47.7,58.3,45.2,58.7,45"/>
</g>
<path id="Visor_Nite" d="M38.8,65.6l-2.3-22c0,0-4.1-0.4-6-0.7C25.9,42,23,38.3,23,38.3s5.2-0.5,7.8-0.2 c7.1,0.8,7.9,4,9.1,5.2c1.2-1.2,2-4.5,9.1-5.2c2.6-0.3,7.8,0.2,7.8,0.2S54,42,49.4,42.8c-1.9,0.4-6,0.7-6,0.7l-2.3,22L38.8,65.6" style="fill: rgb(228, 12, 221);"/>
<path id="Eyes_Nite" d="M40,36.6c0,0,6.5,0,9.2-0.2c2.9-0.2,8.5-0.5,8.5-0.5l0.5,4.7c0,0-5.4,3.2-7.2,4.9 s-4.4,4.3-4.9,6.8C45.4,55.7,43,65.6,43,65.6h-1.8l2.3-22c0,0,4.1-0.4,6-0.7c4.6-0.9,7.5-4.6,7.5-4.6s-5.2-0.5-7.8-0.2 c-7.1,0.8-7.9,4-9.1,5.2c-1.2-1.2-2-4.5-9.1-5.2c-2.6-0.3-7.8,0.2-7.8,0.2s2.9,3.7,7.5,4.6c1.9,0.4,6,0.7,6,0.7l2.3,22h-2 c0,0-2.3-9.9-3.1-13.2c-0.6-2.5-3.1-5.1-4.9-6.8c-1.8-1.7-7.2-4.9-7.2-4.9l0.5-4.7c0,0,5.7,0.3,8.5,0.5 C33.5,36.6,38.9,36.6,40,36.6" style="fill: rgb(176, 74, 212);"/>
<path id="Dome_Nite" d="M22.3,35.9v-0.1c0.1-9.3,7.9-16.8,17.6-17h0.4c9.7,0.2,17.5,7.7,17.6,17v0.1 c-0.4,0-5.8,0.3-8.5,0.5c-2.7,0.2-8.1,0.2-9.2,0.2c-1.1,0-6.5,0-9.2-0.2C28,36.2,22.3,35.9,22.3,35.9z" style="fill: rgb(43, 218, 227);"/>
</g>
</g>
</svg>
<g id="Shoulders">
<g id="Left-Shoulder">
<g id="Gunslinger-Bell_Shoulder_Left" class="option" style="display: inherit;">
<path id="Main_Gunslinger-Bell_Shoulder_Left" d="M109.6,18.6c6.2-0.2,20.1,4.8,19.6,22.6l-0.1,3.5l-12.1,5 l-10.6-14.2l0-16.9L109.6,18.6z" style="fill: rgb(43, 218, 227);"/>
<path id="Ridge_Gunslinger-Bell_Shoulder_Left" class="toggle" d="M106.3,18.6L106.3,18.6l0-2.1 c13.2-0.1,25.8,5.6,24.8,27.6l-2,0.5c0-0.3,0-0.5-0.1-0.8l0.1-2.6c0.6-17.8-13.3-22.8-19.6-22.6l-0.7,0 C107.5,18.4,106.6,18.5,106.3,18.6L106.3,18.6L106.3,18.6z" style="fill: rgb(176, 74, 212);"/>
<g id="Trim_Gunslinger-Bell_Shoulder_Left" class="toggle" style="fill: rgb(176, 74, 212);">
<rect x="106.3" y="17.8" width="3.2" height="17.7"/>
<path d="M109.6,34.4l-3.2,1.1L117,49.7l2.6-1.9L109.6,34.4z"/>
<path d="M118,45.8l-1.1,3.9l12.7-5.2V41L118,45.8z"/>
</g>
</g>
</g>
<g id="Right-Shoulder">
<g id="Classic_Shoulder_Right" class="option" style="display: inherit;">
<path id="Main_Shoulder_Classic_Right" d="M55.2,18.6l2.5,11.5l-2,6.6l-13.6,6.9l-2.3-3.5L55.2,18.6z" style="fill: rgb(43, 218, 227);"/>
<path id="Trauma-Plates_Shoulder_Classic_Right" class="toggle" style="display: none; fill: rgb(255, 255, 255);" d="M56,30l-1.7,5.5l-11.6,5.9l-2-3l13.1-18.3L56,30z"/>
</g>
</g>
</g>
<g id="Gauntlets">
<g id="Left-Gauntlets">
<g id="Basic_Gauntlet_Left" class="option" style="display: inherit;">
<path id="Top-2_Basic_Gauntlet_Left" d="M138.2,110.9l1.6-2.1l-2.4-18.9l-0.8,2.2l1.2,8.6l-0.9,2L138.2,110.9z" style="fill: rgb(176, 74, 212);"/>
<path id="Top-1_Basic_Gauntlet_Left" d="M137.4,89.9l-0.8,2.2l1.2,8.6l-0.9,2l1.4,8.1l-1,1.4l0,5.2l-1.6,0.3 l-1.5-7.9l-1.4-0.7l-4.9-23.3l9.1-0.2L137.4,89.9z" style="fill: rgb(43, 218, 227);"/>
<g id="Accent-Bottom_Basic_Gauntlet_Left" style="fill: rgb(176, 74, 212);">
<path d="M123.8,92.4l-2,0.5l0.7,3l2-0.5L123.8,92.4z"/>
<path d="M125.1,97.7l-2,0.5l0.7,3l2-0.5L125.1,97.7z"/>
<path d="M126.4,103.1l-2,0.5l0.7,3l2-0.5L126.4,103.1z"/>
</g>
<path id="Bottom_Basic_Gauntlet_Left" d="M121.8,92.8l-0.6-2.3l6.6-4.3l4.8,22.9l-6.9,0.7l-2-8.6l2-0.5l-0.7-3 l-2,0.5l-0.5-2.3l2-0.5l-0.7-3L121.8,92.8z M126.4,103.1l-2,0.5l0.7,3l2.1-0.5L126.4,103.1z" style="fill: rgb(43, 218, 227);"/>
<g id="Whistling-Birds_Attachment_Basic_Gauntlet_Left" class="option" style="display: inherit;">
<path id="Head_Whistling-Birds_Attachment_Basic_Gauntlet_Left" d="M142,101l-2.4,5.5l-0.7-5.1L142,101z" style="fill: rgb(176, 74, 212);"/>
<g id="Birds_Whistling-Birds_Attachment_Basic_Gauntlet_Left" style="fill: rgb(0, 0, 0);">
<g>
<path d="M139.4,101.7c0.1,0,0.3,0.2,0.3,0.6s0,0.6-0.1,0.6c-0.1,0-0.3-0.2-0.3-0.6S139.3,101.8,139.4,101.7z"/>
<path d="M139.6,103.4c0.1,0,0.3,0.2,0.3,0.6c0,0.3,0,0.6-0.1,0.6c-0.1,0-0.3-0.2-0.3-0.6 C139.5,103.7,139.5,103.4,139.6,103.4z"/>
<path d="M140.3,101.6c0.1,0,0.3,0.2,0.3,0.6c0,0.3,0,0.6-0.1,0.6c-0.1,0-0.3-0.2-0.3-0.6S140.2,101.7,140.3,101.6 z"/>
<path d="M139.8,106c0-0.1-0.1-0.2-0.1-0.3c0-0.3,0-0.6,0.1-0.6c0.1,0,0.2,0.1,0.2,0.3L139.8,106z M140.5,104.4 c-0.1-0.1-0.1-0.3-0.2-0.5c0-0.3,0-0.6,0.1-0.6c0.1,0,0.2,0.2,0.3,0.5L140.5,104.4z M141.2,102.7c-0.1,0-0.2-0.2-0.3-0.6 c0-0.3,0-0.6,0.1-0.6c0.1,0,0.3,0.2,0.3,0.6c0,0.1,0,0.1,0,0.2L141.2,102.7z"/>
</g>
</g>
<g id="Base_Whistling-Birds_Attachment_Basic_Gauntlet_Left" style="fill: rgb(176, 74, 212);">
<path d="M139.8,85.6l-2.1,0.3l0.1,0.9l2.1-0.3L139.8,85.6z"/>
<path d="M140.1,86.5l-2.2,0.3l1.9,14.6l2.2-0.3L140.1,86.5z"/>
<path d="M140.4,86.6l-0.3,0l1.6,12.6l0.3,0L140.4,86.6z"/>
<path d="M139.7,86.5l-0.3,0l1.7,13.7l0.3,0L139.7,86.5z"/>
</g>
<g id="Accent_Whistling-Birds_Attachment_Basic_Gauntlet_Left" style="fill: rgb(176, 74, 212);">
<path d="M137.7,85.6l-0.8,0.1l1.9,14.8l0.8-0.1L137.7,85.6z"/>
<path d="M142,100.1l-3.2,0.4l0.1,0.9l3.2-0.4L142,100.1z"/>
<path d="M139.1,85.7l-1.4,0.2L138,88l1.4-0.2L139.1,85.7z"/>
<path d="M139,87.8l-1,0.1l0.6,5.1l0.8-2L139,87.8z"/>
</g>
</g>
</g>
</g>
<g id="Right-Gauntlets">
<g id="Basic_Gauntlet_Right" class="option" style="display: inherit;">
<path id="Top-2_Basic_Gauntlet_Right" d="M30.7,110.9l-1.6-2.1l2.4-18.9l0.8,2.2l-1.2,8.6l0.9,2L30.7,110.9z" style="fill: rgb(176, 74, 212);"/>
<path id="Top-1_Basic_Gauntlet_Right" d="M31.6,89.9l0.8,2.2l-1.2,8.6l0.9,2l-1.4,8.1l1,1.4l0,5.2l1.6,0.3l1.5-7.9 l1.4-0.7l4.9-23.3l-9.1-0.2L31.6,89.9z" style="fill: rgb(43, 218, 227);"/>
<g id="Accent-Bottom_Basic_Gauntlet_Right" style="fill: rgb(176, 74, 212);">
<path d="M45.2,92.3l2,0.5l-0.7,3l-2-0.5L45.2,92.3z"/>
<path d="M43.9,97.7l2,0.5l-0.7,3l-2-0.5L43.9,97.7z"/>
<path d="M42.6,103.1l2,0.5l-0.7,3l-2-0.5L42.6,103.1z"/>
</g>
<path id="Bottom_Basic_Gauntlet_Right" d="M47.2,92.8l0.5-2.3l-6.6-4.3l-4.8,22.9l6.9,0.7l2-8.6l-2-0.5l0.7-3 l2,0.5l0.5-2.3l-2-0.5l0.7-3L47.2,92.8z M42.6,103.1l2,0.5l-0.7,3l-2.1-0.5L42.6,103.1z" style="fill: rgb(43, 218, 227);"/>
<g id="No-Device_Attachment_Basic_Gauntlet_Right" class="option" style="display: inherit;">
</g>
</g>
</g>
</g>
<g id="Shins">
<g id="Left-Shin">
<g id="Basic_Shin_Left" class="option" style="display: inherit;">
<path id="Shin_Basic-Shin_Left" d="M121.9,182.7l-4.6-6l-10.3,0.5l-4.5,8.5l4.3,30c4.3,2.3,10.9,1.9,14.7-1 L121.9,182.7" style="fill: rgb(43, 218, 227);"/>
<path id="Trauma-Plating_Basic-Shin_Left" class="toggle" style="display: none; fill: rgb(255, 255, 255);" d="M119.7,213.8l0.4-30.5l-3.7-4.8l-8.4,0.4l-3.8,7.1 l4.1,28.6C111.8,216,116.6,215.8,119.7,213.8"/>
<g id="Ridge_Basic-Shin_Left" class="toggle" style="fill: rgb(176, 74, 212);">
<path d="M115.8,176.6l-3.6-0.7l-3.6,1.2l3.6,40c2.5,0.3,2.5,0.4,4.6-0.4L115.8,176.6"/>
<path d="M112.3,175.9l2.4,41.4"/>
</g>
</g>
</g>
<g id="Right-Shin">
<g id="Basic_Shin_Right" class="option" style="display: inherit;">
<path id="Shin_Basic-Shin_Right" d="M47.2,182.7l4.6-6l10.3,0.5l4.5,8.5l-4.3,30c-4.3,2.3-10.9,1.9-14.7-1 L47.2,182.7" style="fill: rgb(43, 218, 227);"/>
<path id="Trauma-Plating_Basic-Shin_Right" class="toggle" style="display: none; fill: rgb(255, 255, 255);" d="M49.3,213.8l-0.4-30.5l3.7-4.8l8.4,0.4l3.8,7.1l-4.1,28.6 C57.2,216,52.4,215.8,49.3,213.8"/>
<g id="Ridge_Basic-Shin_Right" class="toggle" style="fill: rgb(176, 74, 212);">
<path d="M53.2,176.6l3.6-0.7l3.6,1.2l-3.6,40c-2.5,0.3-2.5,0.4-4.6-0.4L53.2,176.6"/>
<path d="M56.8,175.9l-2.4,41.4"/>
</g>
</g>
</g>
</g>
<g id="Foot">
<g id="Left-Ankle">
<g id="Legacy_Ankle_Left" class="option" style="display: inherit;">
<path id="Plate-2_Legacy-Ankle_Left" d="M122.9,223.8l3.7,3.3l2.5,3.2l-4,1.3l-9.3-1.9l-3.4-4.5L122.9,223.8" style="fill: rgb(176, 74, 212);"/>
<path id="Plate-1_Legacy-Ankle_Left" d="M106.3,217.6c0,0,3.7,1.7,9.2,1.5c3.8-0.1,5.3-1.1,5.3-1.1l3.2,5.9 l-0.8,3.3l-13.4-1.1l-3.3-2.8L106.3,217.6" style="fill: rgb(43, 218, 227);"/>
<path id="Trauma-Plate-2_Legacy-Ankle_Left" class="toggle" style="display: none; fill: rgb(255, 255, 255);" d="M123.7,224.5l2.9,2.6l1.5,1.9l-3.1,1l-8.2-1.7l-1.3-1.8 l7.6,0.6L123.7,224.5"/>
<path id="Trauma-Plate-1_Legacy-Ankle_Left" class="toggle" style="display: none; fill: rgb(255, 255, 255);" d="M107.7,219.6l0.1,2.7l2.7,2.2l11.8,0.9l0.8-3.3l-1.5-2.8 c-1,0.3-4,1.2-6,1.2C112.4,220.7,109.4,220.1,107.7,219.6"/>
</g>
</g>
<g id="Left-Toe">
<g id="None_Toe_Left" class="option" style="display: inherit;">
</g>
</g>
<g id="Right-Ankle">
<g id="Legacy_Ankle_Right" class="option" style="display: inherit;">
<path id="Plate-2_Legacy-Ankle_Right" d="M46.1,223.8l-3.7,3.3l-2.5,3.2l4,1.3l9.3-1.9l3.4-4.5L46.1,223.8" style="fill: rgb(176, 74, 212);"/>
<path id="Plate-1_Legacy-Ankle_Right" d="M62.8,217.6c0,0-3.7,1.7-9.2,1.5c-3.8-0.1-5.3-1.1-5.3-1.1l-3.2,5.9 l0.8,3.3l13.4-1.1l3.3-2.8L62.8,217.6" style="fill: rgb(43, 218, 227);"/>
<path id="Trauma-Plate-2_Legacy-Ankle_Right" class="toggle" style="display: none; fill: rgb(255, 255, 255);" d="M45.3,224.5l-2.9,2.6L41,229l3.1,1l8.2-1.7l1.3-1.8 l-7.6,0.6L45.3,224.5"/>
<path id="Trauma-Plate-1_Legacy-Ankle_Right" class="toggle" style="display: none; fill: rgb(255, 255, 255);" d="M61.4,219.6l-0.1,2.7l-2.7,2.2l-11.8,0.9l-0.8-3.3 l1.5-2.8c1,0.3,4,1.2,6,1.2C56.7,220.7,59.6,220.1,61.4,219.6"/>
</g>
</g>
<g id="Right-Toe">
<g id="None_Toe_Right" class="option" style="display: inherit;">
</g>
</g>
</g>
<g id="Knees">
<g id="Left-Knee">
<g id="Basic_Knee_Left" class="option" style="display: inherit;">
<g id="Missiles_Basic-Knee_Left" class="toggle" style="display:none"/>
<g id="Knee_Basic-Knee_Left" style="fill: rgb(43, 218, 227);">
<path d="M96.6,160.5l1.4-0.2c0,0,1.1,7.1,1.6,10.2c0.1,0.8-0.4,1.6-1.2,1.7c0,0,0,0,0,0L96.6,160.5z"/>
<path d="M98,160l0.8,5.2c1.1-0.6,3.7,0.5,4.6,3.6c1.6,5.8,3,7.1,8,6.6c3.9-0.4,6.7-2.2,7-4.9c0.5-4,0-9.8-0.2-12.1 c0-0.3-0.2-0.5-0.4-0.7c-0.2-0.2-0.5-0.2-0.7-0.2C113,158,98,160,98,160z"/>
<path d="M97.5,160L98,160l0.9,5.7l-0.5,0.1L97.5,160z"/>
</g>
</g>
</g>
<g id="Right-Knee">
<g id="Basic_Knee_Right" class="option" style="display: inherit;">
<g id="Missiles_Basic-Knee_Right" class="toggle" style="">
<path id="Base_Missiles_Basic-Knee_Right" d="M50.8,158.3c0,0,0,0.1,0,0.1c-0.2,2-0.5,6.2-0.4,9.8l-2.3-1.4 c-0.4-0.2-0.6-0.6-0.6-1.1c0-1.3,0.1-4.3,0.1-5.8c0-0.6,0.4-1.1,1-1.2L50.8,158.3z" style="fill: rgb(176, 74, 212);"/>
<g id="Missile-2_Missiles_Basic-Knee_Right" style="fill: rgb(0, 0, 0);">
<path d="M49.1,164c0.6,0.1,1,0.6,0.9,1.2c-0.1,0.6-0.6,1-1.2,0.9c-0.6-0.1-1-0.6-0.9-1.2 C48,164.3,48.6,163.9,49.1,164z"/>
<path d="M49.1,164.3c0.4,0,0.7,0.4,0.6,0.8c0,0.4-0.4,0.7-0.8,0.6c-0.4,0-0.7-0.4-0.6-0.8 C48.3,164.5,48.7,164.3,49.1,164.3z"/>
</g>
<g id="Missile-1_Missiles_Basic-Knee_Right" style="fill: rgb(0, 0, 0);">
<path d="M49.3,159.4c0.6,0.1,1,0.6,0.9,1.2c-0.1,0.6-0.6,1-1.2,0.9s-1-0.6-0.9-1.2 C48.2,159.7,48.7,159.3,49.3,159.4z"/>
<path d="M49.2,159.7c0.4,0,0.7,0.4,0.6,0.8c0,0.4-0.4,0.7-0.8,0.6c-0.4,0-0.7-0.4-0.6-0.8 C48.5,160,48.8,159.7,49.2,159.7z"/>
</g>
</g>
<g id="Knee_Basic-Knee_Right" style="fill: rgb(43, 218, 227);">
<path d="M72.4,160.5l-1.4-0.2c0,0-1.1,7.1-1.6,10.2c-0.1,0.8,0.4,1.6,1.2,1.7c0,0,0,0,0,0L72.4,160.5z"/>
<path d="M71,160l-0.8,5.2c-1.1-0.6-3.7,0.5-4.6,3.6c-1.6,5.8-3,7.1-8,6.6c-3.9-0.4-6.7-2.2-7-4.9 c-0.5-4,0-9.8,0.2-12.1c0-0.3,0.2-0.5,0.4-0.7c0.2-0.2,0.5-0.2,0.7-0.2C56,158,71,160,71,160z"/>
<path d="M71.5,160L71,160l-0.9,5.7l0.5,0.1L71.5,160z"/>
</g>
</g>
</g>
</g>
<g id="Thighs">
<g id="Left-Thigh">
<g id="Pocket_Thigh_Left" class="option" style="fill: rgb(79, 79, 79); display: inherit;">
<path d="M116.7,125.8c0.6,6.6,1.3,12.8,2.3,18.7c0.2,1.2-0.1,2.4-0.8,3.3c-0.7,0.9-1.8,1.5-3,1.6 c-5.4,0.4-10.9,1.3-16.4,2.3c-0.9,0.2-1.9,0-2.7-0.6c-0.8-0.5-1.3-1.4-1.4-2.3c-0.9-6.2-2.8-18.7-3.5-23.6 c-0.2-1.1,0.6-2.1,1.7-2.3c2.4-0.4,6.3-1,6.3-1L116.7,125.8"/>
<path d="M114.1,119.6c0.8-0.1,1.5,0.3,1.8,1c0.9,2.5,1.7,6.5,1.1,8.5c-0.8,2.6-9,17.8-11.1,21.6 c-0.3,0.5-0.8,0.9-1.4,0.9c-1.2,0.1-3.2,0.4-4.5,0.5c-0.7,0.1-1.4-0.4-1.5-1.2c-0.7-4.5-2.9-19.3-3.7-25 c-0.2-1.4-1.2-2.5-2.5-2.9l0,0C92.2,123.1,109.3,120.4,114.1,119.6"/>
<path id="Stitch_Left" d="M113.9,119.6c1.7-0.2,3,6.9,2.4,8.8c-0.7,2.4-8.9,18.1-10.8,21.5c-0.3,0.5-0.7,0.8-1.3,0.9 l-3.5,0.5c-0.7,0.1-1.3-0.4-1.4-1.1c-0.6-4.1-3-19.9-3.8-25.1c-0.3-1.8-2.2-2.2-2.2-2.2"/>
<path d="M92.7,123.1l21.3-3.4"/>
</g>
</g>
<g id="Right-Thigh">
<g id="Pocket_Thigh_Right" class="option" style="fill: rgb(79, 79, 79); display: inherit;">
<path d="M52.3,125.8c-0.6,6.6-1.3,12.8-2.3,18.7c-0.2,1.2,0.1,2.4,0.8,3.3c0.7,0.9,1.8,1.5,3,1.6 c5.4,0.4,10.9,1.3,16.4,2.3c0.9,0.2,1.9,0,2.7-0.6c0.8-0.5,1.3-1.4,1.4-2.3c0.9-6.2,2.8-18.7,3.5-23.6c0.2-1.1-0.6-2.1-1.7-2.3 c-2.4-0.4-6.3-1-6.3-1L52.3,125.8"/>
<path d="M54.9,119.6c-0.8-0.1-1.5,0.3-1.8,1c-0.9,2.5-1.7,6.5-1.1,8.5c0.8,2.6,9,17.8,11.1,21.6 c0.3,0.5,0.8,0.9,1.4,0.9c1.2,0.1,3.2,0.4,4.5,0.5c0.7,0.1,1.4-0.4,1.5-1.2c0.7-4.5,2.9-19.3,3.7-25c0.2-1.4,1.2-2.5,2.5-2.9l0,0 C76.8,123.1,59.7,120.4,54.9,119.6"/>
<path id="Stitch_Right" d="M55.1,119.6c-1.7-0.2-3,6.9-2.4,8.8c0.7,2.4,8.9,18.1,10.8,21.5c0.3,0.5,0.7,0.8,1.3,0.9 l3.5,0.5c0.7,0.1,1.3-0.4,1.4-1.1c0.6-4.1,3-19.9,3.8-25.1c0.3-1.8,2.2-2.2,2.2-2.2"/>
<path d="M76.3,123.1L55,119.6"/>
</g>
</g>
</g>
<g id="Groin">
<g id="None_Groin" class="option" style="display: inherit;">
</g>
</g>
<g id="Waist">
<g id="Accessories_Waist">
<g id="Kama" class="toggle" style="">
<g id="Clean_Kama" class="option" style="display: inherit;">
<g id="Trim_Kama-Clean" style="fill: rgb(176, 74, 212);">
<path d="M97.7,87.6l7.6,57.8l30.7,13.2l-27.7-66.3l-0.9-8.1L97.7,87.6z"/>
<path d="M71.3,87.6l-7.6,57.8l-30.7,13.2l27.7-66.3l0.9-8.1L71.3,87.6z"/>
</g>
<g id="Main_Kama-Clean" style="fill: rgb(36, 36, 36);">
<path d="M99.6,87.4l7.3,55.9l27.7,12.3l-26.5-63.2l-0.9-7.9L99.6,87.4z"/>
<path d="M69.5,87.4l-7.3,55.9l-27.7,12.3l26.5-63.2l0.9-8.1L69.5,87.4z"/>
</g>
</g>
</g>
<g id="Loin-Cloth" class="toggle" style="display:none"/>
<g id="Left-Holster" class="toggle" style="display:none"/>
<g id="Right-Holster" class="toggle" style="display:none"/>
</g>
<g id="Under-Belt">
<g id="Girth-Belt" class="option" style="fill: rgb(36, 36, 36); display: inherit;">
<path d="M84.5,80.1c-7.2,0-21.5-1.8-21.5-1.8l0.5-1.5c0,0,14,1.2,21,1.8c7-0.6,21-1.8,21-1.8l0.5,1.5 C106,78.3,91.7,80.1,84.5,80.1z"/>
<path d="M84.5,81.6c-7.3,0-22-1.8-22-1.8l0.4-1.5c0,0,17.9,1.5,21.5,1.8c3.6-0.3,21.5-1.8,21.5-1.8l0.4,1.5 C106.5,79.8,91.9,81.6,84.5,81.6z"/>
<path d="M84.5,83.2c-7.4,0-22.3-1.8-22.3-1.8l0.3-1.5c0,0,18.3,1.5,22,1.8c3.7-0.3,22-1.8,22-1.8l0.3,1.5 C106.8,81.4,92,83.2,84.5,83.2z"/>
<path d="M84.5,84.7C77,84.7,62,82.9,62,82.9l0.3-1.5c0,0,18.6,1.5,22.3,1.8c3.7-0.3,22.3-1.8,22.3-1.8l0.3,1.5 C107.1,82.9,92.1,84.7,84.5,84.7z"/>
<path d="M84.5,86.3c-7.6,0-22.8-1.8-22.8-1.8l0.3-1.5c0,0,18.8,1.5,22.6,1.8c3.8-0.3,22.6-1.8,22.6-1.8l0.3,1.5 C107.4,84.4,92.1,86.3,84.5,86.3z"/>
<path d="M84.5,87.8c-7.7,0-23.1-1.8-23.1-1.8l0.2-1.5c0,0,19,1.5,22.8,1.8c3.8-0.3,22.8-1.8,22.8-1.8l0.2,1.5 C107.6,86,92.2,87.8,84.5,87.8z"/>
<path d="M84.5,89.4c-7.8,0-23.3-1.8-23.3-1.8l0.2-1.5c0,0,19.2,1.5,23.1,1.8c3.8-0.3,23.1-1.8,23.1-1.8l0.2,1.5 C107.8,87.5,92.3,89.4,84.5,89.4z"/>
<path d="M84.5,90.9c-7.8,0-23.5-1.8-23.5-1.8l0.2-1.5c0,0,19.4,1.5,23.3,1.8c3.9-0.3,23.3-1.8,23.3-1.8l0.2,1.5 C108.1,89.1,92.4,90.9,84.5,90.9z"/>
<path d="M84.5,92.5c-7.9,0-23.8-1.8-23.8-1.8l0.3-1.5c0,0,19.6,1.5,23.5,1.8c3.9-0.3,23.5-1.8,23.5-1.8l0.3,1.5 C108.3,90.6,92.5,92.5,84.5,92.5z"/>
<path d="M84.5,94c-8,0-24.1-1.8-24.1-1.8l0.3-1.5c0,0,19.8,1.5,23.8,1.8c4-0.3,23.8-1.8,23.8-1.8l0.3,1.5 C108.6,92.2,92.6,94,84.5,94z"/>
</g>
</g>
<g id="Belt">
<g id="Pouch-Belt-Full" class="option" style="display: inherit;">
<path id="Main_Pouch-Belt-Full" d="M108.2,87.6c-5.3,0.5-17.5,2.2-23.6,2.2c-6.2,0-18.4-1.8-23.6-2.2l0.8-6.2 c4.3,0.4,16.8,2.2,22.8,2.2c5.8,0,18.1-1.8,22.7-2.2L108.2,87.6z" style="fill: rgb(54, 53, 52);"/>
<g id="Pouches_Pouch-Belt-Full" style="fill: rgb(79, 79, 79);">
<g>
<g>
<g>
<path d="M75.3,81.4c-1.4-0.1-2.8,0.1-4.1,0.6l0,0l6.3,0.4l1.7-0.7C79.3,81.7,77.1,81.5,75.3,81.4z"/>
<path d="M79.5,81.9c0-0.1,0-0.1-0.1-0.2c-0.1,0-0.1-0.1-0.2,0c-0.6,0.2-1.7,0.7-1.7,0.7l-0.8,9.8 c0.5-0.3,1-0.5,1.5-0.6c0.4-0.1,0.7-0.5,0.8-0.9C79.1,87.7,79.2,84.8,79.5,81.9z"/>
<path d="M77.6,82.4l-6.3-0.4c0,1.5-0.2,3-0.3,4.4c-0.1,1.6-0.1,3.2-0.3,4.8c0,0.1,0,0.3,0.1,0.4 c0.1,0.1,0.2,0.2,0.4,0.2c1.8,0,3.5,0.1,5.2,0.3c0.1,0,0.3,0,0.4-0.1C77,92,77,91.9,77,91.7c0.1-1.2,0.3-4.1,0.3-4.1 L77.6,82.4z"/>
<path d="M77.6,82.4l-6.3-0.4c0,0-0.1,0.6-0.2,1.3c-0.1,0.9,0.2,1.8,0.7,2.5c0.6,0.7,1.4,1.1,2.3,1.2c0,0,0,0,0,0 c0.9,0.1,1.8-0.3,2.4-0.9c0.7-0.6,1-1.5,1-2.4C77.6,83,77.6,82.4,77.6,82.4z"/>
<path d="M74.2,85.8c0.2,0,0.4,0.2,0.4,0.4c0,0.2-0.2,0.4-0.4,0.4s-0.4-0.2-0.4-0.4S74,85.8,74.2,85.8z"/>
</g>
</g>
<g>
<g>
<path d="M66.4,80.2c-1.3-0.1-2.6,0.1-3.7,0.7c0,0,0,0,0,0l5.8,0.3l1.6-0.7C70,80.5,68,80.3,66.4,80.2z"/>
<path d="M70.2,80.7c0-0.1,0-0.1-0.1-0.2c-0.1,0-0.1,0-0.2,0c-0.5,0.2-1.5,0.7-1.5,0.7L67.6,91 c0.4-0.3,0.9-0.5,1.3-0.6c0.4-0.1,0.7-0.5,0.7-0.9C69.8,86.5,69.9,83.6,70.2,80.7z"/>
<path d="M68.4,81.2l-5.8-0.3c0,1.5-0.2,3-0.3,4.4c-0.1,1.6-0.1,3.2-0.3,4.8c0,0.1,0,0.3,0.1,0.4 c0.1,0.1,0.2,0.2,0.4,0.2c1.6,0,3.1,0.1,4.7,0.3c0.1,0,0.3,0,0.4-0.1c0.1-0.1,0.2-0.2,0.2-0.4c0.1-1.2,0.3-4.1,0.3-4.1 L68.4,81.2z"/>
<path d="M68.4,81.2l-5.8-0.3c0,0-0.1,0.7-0.2,1.6c-0.1,0.8,0.2,1.6,0.7,2.3c0.5,0.6,1.3,1,2.1,1.1c0,0,0,0,0,0 c0.8,0,1.6-0.2,2.2-0.8c0.6-0.6,0.9-1.4,0.9-2.2C68.4,81.9,68.4,81.2,68.4,81.2z"/>
<path d="M65.3,84.6c0.2,0,0.4,0.2,0.3,0.4s-0.2,0.4-0.4,0.4c-0.2,0-0.4-0.2-0.3-0.4S65.1,84.6,65.3,84.6z"/>
</g>
</g>
<g>
<path d="M59,80.8l0.4-0.7l2.2,0.1l0.3,0.8L59,80.8z"/>
<path d="M61.9,81.1c0-0.1,0-0.1,0-0.2c0,0-0.1-0.1-0.1-0.1c-0.7,0-2.7-0.1-2.7-0.1l-0.4,8.8 c0.1,0.3,1.7,0.4,2.6,0.4c0.1,0,0.2-0.1,0.2-0.2C61.5,86.8,61.6,84,61.9,81.1z"/>
</g>
</g>
<g>
<g>
<g>
<path d="M93.9,81.4c1.4-0.1,2.8,0.1,4.1,0.6l0,0l-6.3,0.4l-1.7-0.7C89.9,81.7,92.1,81.5,93.9,81.4z"/>
<path d="M89.7,81.9c0-0.1,0-0.1,0.1-0.2c0.1,0,0.1-0.1,0.2,0c0.6,0.2,1.7,0.7,1.7,0.7l0.8,9.8 c-0.5-0.3-1-0.5-1.5-0.6c-0.4-0.1-0.7-0.5-0.8-0.9C90.1,87.7,90,84.8,89.7,81.9z"/>
<path d="M91.6,82.4l6.3-0.4c0,1.5,0.2,3,0.3,4.4c0.1,1.6,0.1,3.2,0.3,4.8c0,0.1,0,0.3-0.1,0.4 c-0.1,0.1-0.2,0.2-0.4,0.2c-1.8,0-3.5,0.1-5.2,0.3c-0.1,0-0.3,0-0.4-0.1c-0.1-0.1-0.2-0.2-0.2-0.4c-0.1-1.2-0.3-4.1-0.3-4.1 L91.6,82.4z"/>
<path d="M91.6,82.4l6.3-0.4c0,0,0.1,0.6,0.2,1.3c0.1,0.9-0.2,1.8-0.7,2.5c-0.6,0.7-1.4,1.1-2.3,1.2c0,0,0,0,0,0 c-0.9,0.1-1.8-0.3-2.4-0.9c-0.7-0.6-1-1.5-1-2.4C91.6,83,91.6,82.4,91.6,82.4z"/>
<path d="M95,85.8c-0.2,0-0.4,0.2-0.4,0.4c0,0.2,0.2,0.4,0.4,0.4s0.4-0.2,0.4-0.4S95.2,85.8,95,85.8z"/>
</g>
</g>
<g>
<g>
<path d="M102.8,80.2c1.3-0.1,2.6,0.1,3.7,0.7l0,0l-5.8,0.3l-1.6-0.7C99.2,80.5,101.2,80.3,102.8,80.2z"/>
<path d="M99,80.7c0-0.1,0-0.1,0.1-0.2c0.1,0,0.1,0,0.2,0c0.5,0.2,1.5,0.7,1.5,0.7l0.8,9.8 c-0.4-0.3-0.9-0.5-1.3-0.6c-0.4-0.1-0.7-0.5-0.7-0.9C99.4,86.5,99.3,83.6,99,80.7z"/>
<path d="M100.7,81.2l5.8-0.3c0,1.5,0.2,3,0.3,4.4c0.1,1.6,0.1,3.2,0.3,4.8c0,0.1,0,0.3-0.1,0.4 c-0.1,0.1-0.2,0.2-0.4,0.2c-1.6,0-3.1,0.1-4.7,0.3c-0.1,0-0.3,0-0.4-0.1c-0.1-0.1-0.2-0.2-0.2-0.4c-0.1-1.2-0.3-4.1-0.3-4.1 L100.7,81.2z"/>
<path d="M100.7,81.2l5.8-0.3c0,0,0.1,0.7,0.2,1.6c0.1,0.8-0.2,1.6-0.7,2.3c-0.5,0.6-1.3,1-2.1,1.1c0,0,0,0,0,0 c-0.8,0-1.6-0.2-2.2-0.8c-0.6-0.6-0.9-1.4-0.9-2.2C100.7,81.9,100.7,81.2,100.7,81.2z"/>
<path d="M103.8,84.6c-0.2,0-0.4,0.2-0.3,0.4c0,0.2,0.2,0.4,0.4,0.4c0.2,0,0.4-0.2,0.3-0.4S104,84.6,103.8,84.6z"/>
</g>
</g>
<g>
<path d="M110.1,80.8l-0.4-0.7l-2.2,0.1l-0.3,0.8L110.1,80.8z"/>
<path d="M107.2,81.1c0-0.1,0-0.1,0-0.2c0,0,0.1-0.1,0.1-0.1c0.7,0,2.7-0.1,2.7-0.1l0.4,8.8 c-0.1,0.3-1.7,0.4-2.6,0.4c-0.1,0-0.2-0.1-0.2-0.2C107.7,86.8,107.6,84,107.2,81.1z"/>
</g>
</g>
<path d="M87.4,81.8l0.9,0.9l-7.1-0.1l0.6-0.8L87.4,81.8z"/>
<path d="M81.1,82.6l7.1,0.1c-0.1,1.5,0,3.1-0.1,4.6c0,1.7-0.1,3.4-0.1,5.1c0,0.1-0.1,0.3-0.2,0.4s-0.2,0.1-0.4,0.1 c-2-0.1-4-0.2-6.1-0.1c-0.1,0-0.3,0-0.4-0.1c-0.1-0.1-0.2-0.2-0.2-0.4c0-1.3,0-4.3,0-4.3L81.1,82.6z"/>
<path d="M81.1,82.6l7.1,0.1c0,0,0,0.5,0.1,1.1c0,1-0.3,2-1,2.7c-0.7,0.7-1.7,1.1-2.7,1.1c0,0,0,0,0,0 c-1,0-2-0.5-2.6-1.2c-0.7-0.8-1-1.7-0.9-2.8C81.1,83,81.1,82.6,81.1,82.6z"/>
<path d="M84.6,86.4c-0.3,0-0.5,0.2-0.5,0.4c0,0.2,0.2,0.4,0.5,0.4c0.3,0,0.5-0.2,0.5-0.4 C85.1,86.6,84.9,86.4,84.6,86.4z"/>
</g>
</g>
</g>
</g>
<g id="Extras_Front">
<g id="Front">
<g id="None_Front" class="option" style="display: inherit;">
</g>
</g>
</g>
</svg></svg>