<?xml version='1.0' encoding='UTF-8'?>
<svg version="1.1" id="Female-Body" xmlns="http://www.w3.org/2000/svg" xmlns:serif="http://www.serif.com/" viewBox="0 -55 170 300" style="fill-rule: evenodd; stroke-width: 0.2px; stroke-linejoin: round;" width="170" height="300">
<style>
mask {
mask-type: alpha;
}
.decal {
stroke: none;
}
</style>
<defs id="Masks" stroke="none">
<mask id="HelmetsMask"> <use href="#Helmets"/> </mask>
<mask id="CollarMask"> <use href="#Collar"/> </mask>
<mask id="ShouldersMask"> <use href="#Shoulders"/> </mask>
<mask id="ChestMask"> <use href="#Chest"/> </mask>
<mask id="BicepsMask"> <use href="#Biceps"/> </mask>
<mask id="GauntletsMask"> <use href="#Gauntlets"/> </mask>
<mask id="WaistMask"> <use href="#Waist"/> </mask>
<mask id="GroinMask"> <use href="#Groin"/> </mask>
<mask id="ThighsMask"> <use href="#Thighs"/> </mask>
<mask id="KneesMask"> <use href="#Knees"/> </mask>
<mask id="ShinsMask"> <use href="#Shins"/> </mask>
<mask id="FootMask"> <use href="#Foot"/> </mask>
</defs>
<defs id="Decals"/><metadata><rdf:rdf xmlns:rdf="http://www.w3.org/1999/02/22-rdf-syntax-ns#" xmlns:rdfs="http://www.w3.org/2000/01/rdf-schema#" xmlns:dc="http://purl.org/dc/elements/1.1/"><rdf:description><dc:creator>MandoCreator</dc:creator><dc:publisher>https://www.mandocreator.com</dc:publisher><dc:description>Your Beskar'gam - created by MandoCreator</dc:description><dc:format>image/svg+xml</dc:format><dc:type>Image</dc:type><dc:title>MandoCreator - Ner Berskar'gam</dc:title><dc:date>2022-01-02T16:19:56.887Z</dc:date></rdf:description></rdf:rdf></metadata><g id="Main-Body" fill="white" stroke="black">
<g id="Extras_Back">
<g id="Back"><g id="NO-CAPES_Back" class="option" style="display: inherit;">
</g>
</g>
</g>
<g id="Extras-BackDecals" mask="url(#BackMask)">
</g>
<g id="Suit">
<g id="Neck-Seal"><g id="Standard-Neck-Seal" class="option" fill="rgb(39, 36, 36)" style="display: inherit;">
<path d="M95.96,3.46c0-0.93-0.74-1.69-1.65-1.69c0,0-6.22,0.89-9.33,0.89c-3.11,0-9.33-0.89-9.33-0.89 c-0.91,0-1.65,0.76-1.65,1.69c0,0.93,0.74,1.69,1.65,1.69c0,0,6.22,0.89,9.33,0.89c3.11,0,9.33-0.89,9.33-0.89 C95.22,5.15,95.96,4.39,95.96,3.46z"/>
<path d="M96.51,5.43c0-0.98-0.78-1.77-1.73-1.77c0,0-6.53,0.93-9.8,0.93s-9.8-0.93-9.8-0.93 c-0.96,0-1.73,0.79-1.73,1.77c0,0.98,0.78,1.77,1.73,1.77c0,0,6.53,0.93,9.8,0.93s9.8-0.93,9.8-0.93 C95.74,7.21,96.51,6.41,96.51,5.43z"/>
<path d="M97.14,7.88c0-1.03-0.82-1.87-1.83-1.87c0,0-6.89,0.98-10.33,0.98c-3.44,0-10.33-0.98-10.33-0.98 c-1.01,0-1.83,0.84-1.83,1.87s0.82,1.87,1.83,1.87c0,0,6.89,0.98,10.33,0.98c3.44,0,10.33-0.98,10.33-0.98 C96.32,9.75,97.14,8.91,97.14,7.88z"/>
<path d="M97.75,10.13c0-1.08-0.86-1.96-1.92-1.96c0,0-7.23,1.03-10.85,1.03c-3.62,0-10.85-1.03-10.85-1.03 c-1.06,0-1.92,0.88-1.92,1.96c0,1.08,0.86,1.96,1.92,1.96c0,0,7.23,1.03,10.85,1.03c3.62,0,10.85-1.03,10.85-1.03 C96.89,12.09,97.75,11.21,97.75,10.13z"/>
<path d="M98.36,12.33c0-0.82-0.9-1.48-2.01-1.48c0,0-7.58,0.78-11.36,0.78s-11.36-0.78-11.36-0.78 c-1.11,0-2.01,0.66-2.01,1.48c0,0.82,0.9,1.48,2.01,1.48c0,0,7.58,0.78,11.36,0.78s11.36-0.78,11.36-0.78 C97.46,13.81,98.36,13.14,98.36,12.33z"/>
<path d="M98.36,14.8c0-0.82-0.9-1.48-2.01-1.48c0,0-7.58,0.78-11.36,0.78s-11.36-0.78-11.36-0.78 c-1.11,0-2.01,0.66-2.01,1.48c0,0.82,0.9,1.48,2.01,1.48c0,0,7.58,1.5,11.36,1.5s11.36-1.5,11.36-1.5 C97.46,16.28,98.36,15.62,98.36,14.8z"/>
</g>
</g>
<g id="Flight-Suit" fill="rgb(39, 36, 36)">
<path d="M38.1,60.17l5.2-18.8l12.15-8.13l1.9,16.49c0,0-5.25,9.95-7.06,14.51c-1.86,4.7-5.09,15.42-5.5,16.81 l-2.88,24.91l-8.36-2.66c0,0-0.3-17.29,0.46-24.47C34.68,72.42,38.1,60.17,38.1,60.17z"/>
<path d="M131.9,60.17l-5.22-18.86l-12.06-8.07l-1.92,16.59c0,0,5.2,9.85,7.01,14.41c1.86,4.7,5.09,15.42,5.5,16.81 l2.88,24.91l8.36-2.66c0,0,0.3-17.29-0.46-24.47C135.32,72.42,131.9,60.17,131.9,60.17z"/>
<path d="M84.99,113.44c-1.03,0.1-1.95,0.5-2.29,1.22c-3,6.3-9.17,35.13-10.95,40.44c-0.97,2.89-1.74,18.7-3.38,27.92 c-1.96,11.01-8.39,38.11-8.39,38.11l-11.15-1.15c0,0-1.44-27.22-1.04-37.12c0.3-7.53,3.42-22.31,3.42-22.31s0.67-5.4,0.69-8.12 c0.06-9.82,0.93-31.66,2.88-44.2C56.3,98.31,65.7,77.5,65.7,77.5s12.18,4.76,19.34,4.76c7.16,0,19.44-4.86,19.44-4.86 s8.88,20.92,10.42,30.83c1.95,12.54,3.24,34.38,3.3,44.2c0.02,2.72,0.69,8.12,0.69,8.12s3.12,14.79,3.42,22.31 c0.4,9.91-1.04,37.12-1.04,37.12l-11.15,1.15c0,0-6.43-27.1-8.39-38.11c-1.64-9.22-2.41-25.03-3.38-27.92 c-1.78-5.31-7.96-34.13-10.95-40.44c-0.35-0.73-1.3-1.14-2.34-1.23L84.99,113.44z"/>
</g>
<g id="Sleeves" class="toggle" style="display: none;" fill="rgb(255, 255, 255)"/>
</g>
<g id="Boots"><g id="Gunslinger_Boots" class="option" style="display: inherit;">
<g id="Main_Gunslinger-Boot" fill="rgb(0, 0, 0)">
<path d="M62.27,227.49c-0.04,0.18-0.66,3.1-3.88,3.9c-1.07,0.27-2.91-0.3-4.07-0.89c-1.58-0.8-3.24-1.43-4.94-1.93 l-0.05,0.07c-0.03,0.04-0.05,0.07-0.08,0.11c-0.53,0.74-1.1,1.43-1.72,2.05l-0.05,0.05l-0.03,0.03 c-0.06,0.06-0.12,0.12-0.19,0.18c-0.36,0.35-0.73,0.67-1.12,0.97l-0.11,0.08l-0.09,0.07c-0.03,0.02-0.05,0.04-0.08,0.06 c-0.06,0.04-0.12,0.09-0.18,0.13c-0.8,0.56-1.87,1.42-2.94,1.26c-1-0.15-2.13-0.55-2.97-0.95c-0.71-0.34-1.44-0.79-1.94-1.27 c-0.14-0.11-0.27-0.24-0.36-0.4c-2.33,0.91-4.87,1.25-6.11,3.84c-0.27,0.56-0.5,1.23-0.44,1.86c0.07,0.81,0.96,0.91,1.65,1.09 c1.72,0.46,3.21,0.81,5.2,1.22c2.27,0.47,4.32,0.75,6.62,0.66c1.72-0.07,3.17-0.16,4.67-1.08c0.6-0.37,1.22-0.74,1.74-1.23 c1.17-1.08,1.91-2.21,3.42-2.86c1.09-0.48,2.21-0.87,3.37-1.16c1.64-0.41,3.4-0.69,4.26-2.31 C62.53,229.81,62.45,228.67,62.27,227.49L62.27,227.49"/>
<path d="M107.8,227.49c0.04,0.18,0.66,3.1,3.88,3.9c1.08,0.27,2.91-0.3,4.07-0.89c1.58-0.8,3.25-1.43,4.94-1.93 l0.05,0.07c0.03,0.04,0.05,0.07,0.08,0.11c0.53,0.74,1.1,1.43,1.72,2.05l0.05,0.05l0.03,0.03c0.06,0.06,0.12,0.12,0.19,0.18 c0.36,0.35,0.73,0.67,1.12,0.97l0.11,0.08l0.09,0.07c0.03,0.02,0.05,0.04,0.08,0.06c0.06,0.04,0.12,0.09,0.18,0.13 c0.8,0.56,1.87,1.42,2.94,1.26c1-0.15,2.13-0.55,2.97-0.95c0.71-0.34,1.44-0.79,1.94-1.27c0.14-0.11,0.27-0.24,0.36-0.4 c2.33,0.91,4.87,1.25,6.11,3.84c0.27,0.56,0.5,1.23,0.44,1.86c-0.07,0.81-0.96,0.91-1.65,1.09c-1.72,0.46-3.21,0.81-5.2,1.22 c-2.27,0.47-4.32,0.75-6.62,0.66c-1.72-0.07-3.17-0.16-4.67-1.08c-0.6-0.37-1.22-0.74-1.74-1.23c-1.17-1.08-1.91-2.21-3.42-2.86 c-1.09-0.48-2.21-0.87-3.37-1.16c-1.64-0.41-3.4-0.69-4.26-2.31C107.55,229.81,107.62,228.67,107.8,227.49L107.8,227.49"/>
</g>
<g id="Bottom_Gunslinger-Boot" fill="rgb(58, 36, 18)">
<path d="M62.33,229.7c-0.07,0.44-0.22,0.89-0.46,1.35c-0.86,1.62-2.62,1.9-4.26,2.31c-1.16,0.29-2.28,0.68-3.37,1.16 c-1.51,0.65-2.26,1.78-3.42,2.86c-0.52,0.48-1.14,0.86-1.74,1.23c-1.5,0.92-2.96,1.01-4.67,1.08c-2.3,0.1-4.35-0.18-6.62-0.66 c-1.99-0.41-3.48-0.76-5.2-1.22c-0.55-0.15-1.23-0.24-1.52-0.69l0,0l-0.33,0.73l-0.19,1.49c0,0,1.85,0.99,3.81,1.43 c1.97,0.44,5.93,1.05,5.93,1.05l0.27-0.65l0.89,0.19l-0.04,0.64l2.16,0.12l0.46-0.62l0.72,0.02l-0.11,0.55 c0,0,1.34-0.02,2.08-0.46c0.14-0.21,0.41-0.55,0.41-0.55l0.51-0.28l-0.07,0.52l1.86-0.67l0.09-0.72l0.53-0.31l0.02,0.52 l1.32-1.02l0.14-0.63l3.31-2.32l0.51,1.21l2.32-0.5l0.08-0.5l0.59-0.24l0.41,0.38l1.56-0.64l0.03-0.46l0.5-0.18l0.06,0.34 l1.48-1.01l0.28-2.02l0.06-2.2L62.33,229.7L62.33,229.7"/>
<path d="M107.74,229.7c0.07,0.44,0.22,0.89,0.46,1.35c0.86,1.62,2.62,1.9,4.26,2.31c1.16,0.29,2.28,0.68,3.37,1.16 c1.51,0.65,2.26,1.78,3.42,2.86c0.52,0.48,1.14,0.86,1.74,1.23c1.5,0.92,2.96,1.01,4.67,1.08c2.3,0.1,4.35-0.18,6.62-0.66 c1.99-0.41,3.48-0.76,5.2-1.22c0.55-0.15,1.23-0.24,1.52-0.69l0,0l0.33,0.73l0.19,1.49c0,0-1.85,0.99-3.81,1.43 c-1.97,0.44-5.93,1.05-5.93,1.05l-0.27-0.65l-0.89,0.19l0.04,0.64l-2.16,0.12l-0.46-0.62l-0.72,0.02l0.11,0.55 c0,0-1.34-0.02-2.08-0.46c-0.14-0.21-0.41-0.55-0.41-0.55l-0.51-0.28l0.07,0.52l-1.86-0.67l-0.09-0.72l-0.53-0.31l-0.02,0.52 l-1.32-1.02l-0.14-0.63l-3.31-2.32l-0.51,1.21l-2.32-0.5l-0.08-0.5l-0.59-0.24l-0.41,0.38l-1.56-0.64l-0.03-0.46l-0.5-0.18 l-0.06,0.34l-1.48-1.01l-0.28-2.02l-0.06-2.2L107.74,229.7L107.74,229.7"/>
</g>
<g id="Top_Gunslinger-Boot" fill="rgb(39, 36, 36)">
<path d="M49.4,228.54c1.98-2.82,3.31-6.29,3.78-9.35l0,0l-0.55-0.05l-0.02,0l-0.07-0.01l-0.18-0.02l-0.28-0.03 l-0.12-0.02c-0.32-0.04-0.64-0.08-0.95-0.13l-0.49-0.09l-0.1-0.02l-0.03-0.01l-0.08-0.02l-0.34-0.08l-0.3-0.08l-0.05-0.01 c-1.05-0.26-0.91-0.48-0.91-0.48c-0.29,1.35-0.92,2.78-1.49,4.04c-0.89,1.98-2.73,3.69-4.25,5.2c-1.05,1.04-2.57,2.02-3.82,2.82 c-0.53,0.34-1.1,0.6-1.68,0.82c0.44,0.61,1.4,1.24,2.3,1.67c0.84,0.4,1.97,0.8,2.97,0.95c1.07,0.15,2.14-0.7,2.94-1.26 c1.39-0.98,2.63-2.3,3.69-3.8L49.4,228.54"/>
<path d="M120.67,228.54c-1.97-2.82-3.31-6.29-3.78-9.35l0,0l0.55-0.05l0.02,0l0.07-0.01l0.18-0.02l0.28-0.03 l0.11-0.02c0.32-0.04,0.64-0.08,0.95-0.13l0.49-0.09l0.1-0.02l0.04-0.01l0.08-0.02l0.34-0.08l0.3-0.08l0.05-0.01 c1.05-0.26,0.91-0.48,0.91-0.48c0.29,1.35,0.92,2.78,1.49,4.04c0.89,1.98,2.73,3.69,4.25,5.2c1.05,1.04,2.57,2.02,3.82,2.82 c0.53,0.34,1.1,0.6,1.68,0.82c-0.44,0.61-1.4,1.24-2.3,1.67c-0.84,0.4-1.97,0.8-2.97,0.95c-1.07,0.15-2.14-0.7-2.94-1.26 c-1.39-0.98-2.63-2.3-3.68-3.8L120.67,228.54"/>
</g>
<g id="Side_Gunslinger-Boot" fill="rgb(39, 36, 36)">
<path d="M49.38,228.58c1.7,0.49,3.36,1.12,4.94,1.93c1.16,0.59,3,1.15,4.07,0.89c3.33-0.83,3.88-3.91,3.88-3.91 c-0.1-0.67-0.84-3.25-1.06-3.94c-0.48-1.54-0.43-5.45-0.55-5.39c-2.67,1.41-6.12,1.16-7.48,1.05l0,0 C52.71,222.26,51.37,225.74,49.38,228.58"/>
<path d="M120.69,228.58c-1.7,0.49-3.36,1.12-4.94,1.93c-1.16,0.59-2.99,1.15-4.07,0.89 c-3.32-0.83-3.88-3.91-3.88-3.91c0.1-0.67,0.84-3.25,1.06-3.94c0.48-1.54,0.43-5.45,0.55-5.39c2.67,1.41,6.12,1.16,7.48,1.05l0,0 C117.36,222.26,118.71,225.74,120.69,228.58"/>
</g>
</g></g>
<g id="Gloves">
<g id="Left-Glove"><g id="Basic_Left_Glove" class="option" fill="rgb(39, 36, 36)" style="display: inherit;">
<path d="M133.16,120.46c-0.46-0.03-0.9-0.01-1.36,0.09c-0.31,0.07-0.62,0.16-0.9,0.34 c-0.85,0.55-0.62,1.76,0.14,2.21c0.89,0.53,2.29,0.01,2.69-1.02C133.9,121.66,133.39,120.86,133.16,120.46"/>
<path d="M131.6,121.51c-0.46-0.02-0.9-0.02-1.36,0.09c-0.31,0.07-0.62,0.16-0.9,0.34c-0.85,0.55-0.62,1.76,0.14,2.21 c0.89,0.53,2.29,0.01,2.69-1.02C132.34,122.71,131.83,121.91,131.6,121.51"/>
<path d="M130.49,122.93c-0.46,0.05-1.02,0.12-1.46,0.3c-0.3,0.12-0.59,0.25-0.85,0.47c-0.78,0.68-0.4,1.83,0.4,2.17 c0.94,0.39,2.27-0.34,2.55-1.42C131.24,124.01,130.49,122.93,130.49,122.93z"/>
<path d="M127.97,106.79c0,0-1.34,2.09-1.69,3.59c-0.25,1.06-0.11,3.58-0.43,5.28c-0.31,1.7-0.59,2.64-0.59,2.64 s-1.18,2.71-0.98,3.34c0.21,0.62,1.25,1.18,1.84,0.85c0.74-0.41,1.66-2.32,2.24-3.67c0.59-1.37,1.08-3.32,1.08-3.32 s0.81,0.32,1.23,0.68c1.38,1.2,0.78,4.82,0.78,4.82s-0.57,1.29-1.43,2.75c-1.17,1.99-2.97,3.7-1.78,5.22 c1.11,1.42,3.63-2.31,3.63-2.31l2.47-3.62c0,0,2.84-5.26,2.98-6.28c0.11-0.78,0.01-3.38,0.01-3.38l-0.89-10.08l-4.5,0.42 l-3.7,1.36L127.97,106.79"/>
</g>
</g>
<g id="Right-Glove"><g id="Basic_Right_Glove" class="option" fill="rgb(39, 36, 36)" style="display: inherit;">
<path d="M36.86,120.46c0.46-0.03,0.9-0.01,1.36,0.09c0.31,0.07,0.62,0.16,0.9,0.34c0.85,0.55,0.62,1.76-0.14,2.21 c-0.89,0.53-2.29,0.01-2.69-1.02C36.12,121.66,36.64,120.86,36.86,120.46"/>
<path d="M38.42,121.51c0.46-0.02,0.9-0.02,1.36,0.09c0.31,0.07,0.62,0.16,0.9,0.34c0.85,0.55,0.62,1.76-0.14,2.21 c-0.89,0.53-2.29,0.01-2.69-1.02C37.68,122.71,38.2,121.91,38.42,121.51"/>
<path d="M39.54,122.93c0.46,0.05,1.02,0.12,1.46,0.3c0.3,0.12,0.6,0.25,0.85,0.47c0.78,0.68,0.4,1.83-0.4,2.17 c-0.94,0.39-2.27-0.34-2.55-1.42C38.78,124.01,39.54,122.93,39.54,122.93z"/>
<path d="M42.06,106.79c0,0,1.34,2.09,1.69,3.59c0.25,1.06,0.11,3.58,0.43,5.28c0.31,1.7,0.59,2.64,0.59,2.64 s1.18,2.71,0.98,3.34c-0.21,0.62-1.24,1.18-1.84,0.85c-0.74-0.41-1.66-2.32-2.24-3.67c-0.59-1.37-1.08-3.32-1.08-3.32 s-0.81,0.32-1.23,0.68c-1.38,1.2-0.78,4.82-0.78,4.82s0.57,1.29,1.43,2.75c1.17,1.99,2.97,3.7,1.78,5.22 c-1.11,1.42-3.63-2.31-3.63-2.31l-2.47-3.62c0,0-2.84-5.26-2.98-6.28c-0.11-0.78-0.01-3.38-0.01-3.38l0.89-10.08l4.5,0.42 l3.7,1.36L42.06,106.79"/>
</g>
</g>
</g>
<g id="Biceps">
<g id="Left-Biceps"><g id="Basic_Biceps_Left" class="option" style="display: inherit;">
<path id="Main_Basic_Biceps_Left" d="M133.33,53.8c-1.18-2.85-6.45-15.35-6.45-15.35s-8.66,3.56-10.82,4.44 c-0.61,0.25-0.9,0.95-0.65,1.56c1.02,2.45,3.51,8.45,5.06,12.19c0.35,0.85,1.03,1.52,1.88,1.87c0.85,0.35,1.81,0.35,2.65,0 c2.54-1.04,5.95-2.44,7.68-3.15C133.29,55.1,133.58,54.41,133.33,53.8z" fill="rgb(0, 0, 0)"/>
<path id="Strap_Basic_Biceps_Left" d="M117.73,49.98l-4.71,1.93l1.11,3.94l5.16-2.12L117.73,49.98" fill="rgb(0, 0, 0)"/>
<path id="Trauma-Plate_Basic_Biceps_Left" class="toggle" style="" d="M133.29,53.21l-5.5-13.24l-10.55,4.33l4.84,11.67 c0.17,0.42,0.5,0.75,0.92,0.92c0.42,0.17,0.89,0.17,1.31,0L133.29,53.21" fill="rgb(79, 7, 7)"/>
</g>
</g>
<g id="Right-Biceps"><g id="Basic_Biceps_Right" class="option" style="display: inherit;">
<path id="Main_Basic_Biceps_Right" d="M36.74,53.8c1.18-2.85,6.46-15.35,6.46-15.35s8.66,3.56,10.82,4.44 c0.61,0.25,0.9,0.95,0.65,1.56c-1.02,2.45-3.51,8.45-5.06,12.19c-0.35,0.85-1.03,1.52-1.88,1.87c-0.85,0.35-1.8,0.35-2.65,0 c-2.54-1.04-5.95-2.44-7.68-3.15C36.78,55.1,36.49,54.41,36.74,53.8z" fill="rgb(0, 0, 0)"/>
<path id="Strap_Basic_Biceps_Right" d="M52.35,49.98l4.71,1.93l-1.11,3.94l-5.16-2.12L52.35,49.98" fill="rgb(0, 0, 0)"/>
<path id="Trauma-Plate_Basic_Biceps_Right" class="toggle" style="" d="M36.78,53.21l5.49-13.24l10.55,4.33l-4.84,11.67 c-0.17,0.42-0.5,0.75-0.92,0.92c-0.42,0.17-0.89,0.17-1.31,0L36.78,53.21" fill="rgb(79, 7, 7)"/>
</g>
</g>
</g>
<g id="BicepsDecals" mask="url(#BicepsMask)">
</g>
<path id="Vest" d="M91.61,82.96c-4.3,0.88-8.84,0.88-13.14,0c-4.33-0.88-12.83-5.29-12.83-5.29s-7.42-23.26-8.75-30.06 c-1.06-5.39-1.42-14.37-1.42-14.37l-12.73,8.52l-2.71-1.15c0,0,7.62-16.73,12.62-21.57c4.53-4.39,17.42-7.5,17.42-7.5 s5.68,6.2,14.97,6.25c8.84,0.04,14.97-6.25,14.97-6.25s12.89,3.12,17.42,7.5c5.01,4.85,12.62,21.57,12.62,21.57l-2.71,1.15 l-12.73-8.52c0,0-0.36,8.98-1.42,14.37c-1.33,6.79-8.76,30.06-8.76,30.06S95.93,82.08,91.61,82.96z" fill="rgb(39, 36, 36)"/>
<g id="SuitDecals" mask="url(#SuitMask)">
</g>
<g class="swappable" id="Chest"><g id="Chest_Gunslinger">
<g id="Abdomen_Gunslinger">
<g id="Left_Abdomen_Gunslinger" fill="rgb(79, 7, 7)">
<path d="M97.34,66.97l6.35-11.37l-3.3-4.64l-0.26-0.56l-3.61,0.45l-1.48,17.52L97.34,66.97z"/>
<path d="M97.34,66.97l6.35-11.37l1.67,2.34l2.2-1.75l-0.58,7.79L97.34,66.97z"/>
</g>
<g id="Right_Abdomen_Gunslinger" fill="rgb(79, 7, 7)">
<path d="M72.69,66.97L66.34,55.6l-1.67,2.34l-2.2-1.75l0.58,7.79L72.69,66.97z"/>
<path d="M72.69,66.97L66.34,55.6l3.3-4.64l0.26-0.56l3.61,0.45L75,68.37L72.69,66.97z"/>
</g>
<path id="Center_Abdomen_Gunslinger" d="M85.02,47.12l11.5,3.74l-1.48,17.52l-1.76,1.06l-8.26-0.45l-8.26,0.45 L75,68.37l-1.48-17.52L85.02,47.12z" fill="rgb(0, 0, 0)"/>
</g>
<g id="Chest-Plates_Gunslinger">
<g id="Left-Chest_Gunslinger" fill="rgb(0, 0, 0)">
<path d="M85.68,27.45v-2.7l2.22-2.21l21.37-2.41l1.92,11.86l-3.18,23.84l-2.65,2.11l-4.97-6.98L99,48l-13.25-4.02 l3.45-3.42v-9.95L85.68,27.45z"/>
<path d="M99,48l9.76-5.73l2.43-10.25l-2.15,11.03l-8.65,7.92L99,48z"/>
<path d="M100.12,50.4l-3.61,0.45l-11.5-3.74V43.8L99,48L100.12,50.4z"/>
</g>
<g id="Right-Chest_Gunslinger" fill="rgb(0, 0, 0)">
<path d="M84.35,27.45v-2.7l-2.22-2.21l-21.37-2.41l-1.92,11.86l3.18,23.84l2.65,2.11l4.97-6.98L71.04,48l13.25-4.02 l-3.45-3.42v-9.95L84.35,27.45z"/>
<path d="M71.04,48l-9.76-5.73l-2.43-10.25l2.15,11.03l8.65,7.92L71.04,48z"/>
<path d="M69.91,50.4l3.61,0.45l11.5-3.74V43.8L71.04,48L69.91,50.4z"/>
</g>
</g>
<g id="Iron-Heart_Gunslinger">
<path id="Under-Heart_Gunslinger" d="M84.29,43.98l-3.45-3.42v-9.95l3.51-3.16v-2.7h1.33v2.7l3.51,3.16v9.95 l-3.45,3.42l-0.73-0.18L84.29,43.98z" fill="rgb(79, 7, 7)"/>
<path id="Heart_Gunslinger" d="M82.48,39.74v-8.23l2.54-2.53l2.54,2.53v8.23l-2.54,2.53L82.48,39.74z" fill="rgb(0, 0, 0)"/><rect id="Center_Heart_Gunslinger" class="option" x="84.26" y="32.01" width="1.5" height="7.22" fill="rgb(79, 7, 7)" style="display: inherit;"/>
</g>
</g></g>
<g id="ChestDecals" mask="url(#ChestMask)">
</g>
<g id="Chest-Attachments"><g id="No-Device_Accessories_Chest" class="option" style="display: inherit;">
</g>
</g>
<g id="Collar"><g id="None_Collar" class="option" style="display: inherit;">
</g>
</g>
<g id="CollarDecals" mask="url(#CollarMask)">
</g>
<g id="Helmets" class="swappable" transform="translate(45,-52)"><g id="Helmet_Executioner">
<g id="Left-Earcap_Executioner" class="toggle">
<g id="Ear-Cap_Left_Executioner">
<path id="Base_Ear-Cap_Left_Executioner" d="M59.32,61.29l2.09-1.41h-1.64V36.13h-0.45V61.29z" fill="rgb(79, 7, 7)"/>
<rect id="Middle_Ear-Cap_Left_Executioner" x="59.78" y="41.28" width="1.11" height="18.59" fill="rgb(0, 0, 0)"/>
<path id="Top_Ear-Cap_Left_Executioner" d="M59.78,36.13l1.5,1.5v3.66h-1.5V36.13z" fill="rgb(0, 0, 0)"/>
</g>
</g>
<g id="Right-Earcap_Executioner" class="toggle">
<g id="Ear-Cap_Right_Executioner">
<path id="Base_Ear-Cap_Right_Executioner" d="M21.91,61.29l-2.09-1.41h1.64V36.13h0.45V61.29z" fill="rgb(79, 7, 7)"/>
<rect id="Middle_Ear-Cap_Right_Executioner" x="20.34" y="41.28" width="1.11" height="18.59" fill="rgb(0, 0, 0)"/>
<path id="Top_Ear-Cap_Right_Executioner" d="M21.45,36.13l-1.5,1.5v3.66h1.5V36.13z" fill="rgb(0, 0, 0)"/>
</g>
<g id="Range-Finder_Right_Executioner" class="option" style="display: inherit;">
<path id="Shaft_Right_Range-Finder_Executioner" d="M20.28,10.6l1.08,0l0.03,26.9l-1.1,0.07L20.28,10.6z" fill="rgb(0, 0, 0)"/>
<path id="Finder_Right_Range-Finder_Executioner" d="M28.46,7.93l-5.95,0.36l0.19-0.75l6.91-1.07L28.46,7.93" fill="rgb(79, 7, 7)"/>
<g id="Cover_Right_Range-Finder_Executioner" fill="rgb(0, 0, 0)">
<path d="M19.35,9.52l2.84,0.01l0.51-1.99l7.43-1.16l0.1-0.77L19.55,5.87l-0.96,1.38L19.35,9.52"/>
<path d="M20.12,9.52l1.41,0.01l0,1.07l-1.41,0L20.12,9.52"/>
</g>
</g>
</g>
<g id="Helmet_Pieces_Executioner">
<g id="Face_Executioner" fill="rgb(56, 53, 53)">
<path d="M34.19,66.91l-11.48-5.2l0.01-0.03c0.11-0.57,1.91-9.8,4.7-12.06c2.48-2.01,4.41,0.11,4.71,0.46l0.04,0.05 l0,0l0.7,3.81c0.86,5.63,1.29,12.3,1.33,12.92L34.19,66.91"/>
<path d="M47.04,66.91l11.48-5.2l-0.01-0.03c-0.11-0.57-1.91-9.8-4.7-12.06c-2.48-2.01-4.42,0.11-4.71,0.46 l-0.04,0.05l0,0l-0.7,3.81c-0.86,5.63-1.29,12.3-1.33,12.92L47.04,66.91"/>
</g>
<g id="Cheeks_Executioner" fill="rgb(0, 0, 0)">
<path d="M21.91,42.24c0,0,7.06,0.75,9.17,4.6c0.4,0.72,0.75,1.88,1.07,3.28c0,0-2.06-2.69-4.75-0.5 c-2.88,2.34-4.7,12.09-4.7,12.09l-0.79-0.42V42.24"/>
<path d="M59.32,42.24c0,0-7.06,0.75-9.17,4.6c-0.4,0.72-0.75,1.88-1.07,3.28c0,0,2.06-2.69,4.75-0.5 c2.88,2.34,4.7,12.09,4.7,12.09l0.79-0.42V42.24"/>
</g>
<path id="Chin_Executioner" d="M36.2,67.23l-2.01-0.33l0.26-0.93l2.77-2.31h6.79l2.77,2.31l0.26,0.93l-2.01,0.33H36.2 z" fill="rgb(0, 0, 0)"/>
<g id="Eyes_Executioner" fill="rgb(79, 7, 7)">
<path d="M34.18,66.86c-0.06-0.95-1.06-16.29-3.1-20.02c-2.11-3.85-9.17-4.6-9.17-4.6v-6.25 c0-0.37,0.29-0.68,0.66-0.69c2.66-0.13,12.67-0.62,18.05-0.62s15.39,0.49,18.05,0.62c0.37,0.02,0.66,0.33,0.66,0.69 c0,1.73,0,6.25,0,6.25s-7.06,0.75-9.17,4.6c-2.04,3.73-3.04,19.07-3.1,20.02l0,0.05l-0.26-0.93l-2.77-2.31h-6.79l-2.77,2.31 l-0.26,0.93L34.18,66.86"/>
<path d="M41.36,45.53l1.12,3.55c-0.28,0.12-0.56,0.22-0.83,0.28l-0.68-2.9c0,0-0.23-0.16-0.35-0.16 s-0.35,0.16-0.35,0.16l-0.68,2.9c-0.27-0.06-0.55-0.15-0.83-0.28l1.12-3.55H41.36z"/>
</g>
<g fill="rgb(0, 0, 0)" id="Visor_Executioner">
<g>
<path d="M39.83,57.68h-0.6v5.99h0.6V57.68"/>
<path d="M37.78,57.68h-0.6v5.99h0.6V57.68"/>
<path d="M41.4,57.68h0.6v5.99h-0.6V57.68"/>
<path d="M43.45,57.68h0.61v5.99h-0.61V57.68"/>
</g>
<path d="M38.75,49.09c-0.91-0.4-1.52-1.08-1.86-1.98c0,0,1.3-4.22,1.92-5.35c0.33-0.6,1.21-1.44,1.81-1.59 c0.62,0.15,1.48,0.99,1.81,1.59c0.62,1.13,1.92,5.35,1.92,5.35c-0.35,0.9-0.95,1.57-1.87,1.98l-1.12-3.55h-1.5L38.75,49.09"/>
<path d="M22.52,36.85c0,0,13.86-0.42,18.09-0.42s18.09,0.42,18.09,0.42v1.02l-13.1,2.8l-4.16-2.7 c0,0-0.55-0.1-0.82-0.1c-0.27,0-0.82,0.1-0.82,0.1l-4.17,2.7l-13.1-2.8V36.85"/>
</g>
<path id="Dome-2_Executioner" d="M22.54,35.3c0.02-9.63,8.11-17.44,18.08-17.44s18.06,7.81,18.08,17.44 c-0.01,0-0.02,0-0.03,0c-2.65-0.13-12.67-0.62-18.05-0.62s-15.39,0.49-18.05,0.62C22.56,35.3,22.55,35.3,22.54,35.3" fill="rgb(0, 0, 0)"/>
<g id="Dome-1_Executioner" fill="rgb(130, 3, 3)">
<path d="M37.56,32.85l2.26-0.54v1.09L37.56,32.85"/>
<path d="M43.67,32.85l-2.26-0.54v1.09L43.67,32.85"/>
</g>
</g>
</g></g>
<g id="HelmetsDecals" mask="url(#HelmetsMask)"/>
<g id="Shoulders">
<g id="Left-Shoulder"><g id="Legacy-x2_Shoulder_Left" class="option" style="display: inherit;">
<path id="Plate-2_Shoulder_Left_Legacy-x2" d="M112.95,15.27l-6.03,9.03l6.18,8.61l9.75-2.38l6.12,3.77l4.58-1.2 L112.95,15.27z" fill="rgb(0, 0, 0)"/>
<path id="Trauma-Plate-2_Shoulder_Legacy-x2_Left" class="toggle" style="" d="M129.25,32.41l2.96-0.77l-17.76-15.47l-5.39,8.05 l4.77,6.67l8.97-2.26L129.25,32.41z" fill="rgb(79, 7, 7)"/>
<path id="Plate-1_Shoulder_Left_Legacy-x2" d="M105.53,10.64l-2.71,10.49l8.68,6.12l8.43-5.43l7.03,1.57l3.93-2.63 L105.53,10.64z" fill="rgb(0, 0, 0)"/>
<path id="Trauma-Plate-1_Shoulder_Legacy-x2_Left" class="toggle" style="" d="M126.6,21.52l2.54-1.7l-21.9-8.79l-2.42,9.37 l6.72,4.74l7.72-5.07L126.6,21.52z" fill="rgb(79, 7, 7)"/>
</g></g>
<g id="Right-Shoulder"><g id="Legacy-x3_Shoulder_Right" class="option" style="display: inherit;">
<path id="Plate-3_Shoulder_Right_Legacy-x3" d="M53.01,20.06l7.61,7.75l-4.46,9.61L46.13,36.9l-5.31,4.84 l-4.72-0.33L53.01,20.06z" fill="rgb(0, 0, 0)"/>
<path id="Trauma-Plate-3_Shoulder_Legacy-x3_Right" class="toggle" style="" d="M40.19,39.93l-3.05-0.21l14.58-18.47l6.8,6.92 l-3.45,7.43l-9.24-0.57L40.19,39.93z" fill="rgb(79, 7, 7)"/>
<path id="Plate-2_Shoulder_Right_Legacy-x3" d="M57.12,15.27l6.03,9.03l-6.18,8.61l-9.75-2.38l-6.12,3.77 l-4.58-1.2L57.12,15.27z" fill="rgb(0, 0, 0)"/>
<path id="Trauma-Plate-2_Shoulder_Legacy-x3_Right" class="toggle" style="" d="M40.82,32.41l-2.96-0.77l17.76-15.47l5.39,8.05 l-4.77,6.67l-8.97-2.26L40.82,32.41z" fill="rgb(79, 7, 7)"/>
<path id="Plate-1_Shoulder_Right_Legacy-x3" d="M64.54,10.64l2.71,10.49l-8.68,6.12l-8.43-5.43l-7.03,1.57 l-3.93-2.63L64.54,10.64z" fill="rgb(0, 0, 0)"/>
<path id="Trauma-Plate-1_Shoulder_Legacy-x3_Right" class="toggle" style="" d="M43.46,21.52l-2.54-1.7l21.9-8.79l2.42,9.37 l-6.72,4.74l-7.72-5.07L43.46,21.52z" fill="rgb(79, 7, 7)"/>
</g></g>
</g>
<g id="ShouldersDecals" mask="url(#ShouldersMask)">
</g>
<g id="Gauntlets">
<g id="Left-Gauntlets"><g id="Basic_Gauntlet_Left" class="option" style="display: inherit;">
<path id="Top-2_Basic_Gauntlet_Left" d="M140.21,108.05l1.6-2.13l-2.46-19.29l-0.86,2.24l1.2,8.8l-0.93,2.08 L140.21,108.05z" fill="rgb(0, 0, 0)"/>
<path id="Top-1_Basic_Gauntlet_Left" d="M139.34,86.62l-0.86,2.24l1.2,8.8l-0.93,2.08l1.45,8.31l-1.05,1.41 l0.05,5.31l-1.66,0.29l-1.54-8.11l-1.47-0.68l-5.06-23.8l9.3-0.21L139.34,86.62z" fill="rgb(79, 7, 7)"/>
<g id="Accent-Bottom_Basic_Gauntlet_Left" fill="rgb(0, 0, 0)">
<path d="M125.39,89.15l-2.1,0.5l0.75,3.1l2.09-0.5L125.39,89.15z"/>
<path d="M126.69,94.58l-2.09,0.5l0.75,3.1l2.1-0.5L126.69,94.58z"/>
<path d="M128.05,100.14l-2.1,0.5l0.75,3.1l2.1-0.5L128.05,100.14z"/>
</g>
<path id="Bottom_Basic_Gauntlet_Left" d="M123.31,89.65l-0.57-2.36l6.82-4.44l4.97,23.41l-7.08,0.7l-2.1-8.77 l2.09-0.5l-0.75-3.1l-2.08,0.5l-0.56-2.33l2.09-0.5l-0.75-3.1L123.31,89.65z M128.05,100.14l-2.1,0.51l0.74,3.1l2.11-0.51 L128.05,100.14z" fill="rgb(79, 7, 7)"/><g id="No-Device_Attachment_Basic_Gauntlet_Left" class="option" style="display: inherit;">
</g>
</g>
</g>
<g id="Right-Gauntlets"><g id="Basic_Gauntlet_Right" class="option" style="display: inherit;">
<path id="Top-2_Basic_Gauntlet_Right" d="M29.77,108.05l-1.6-2.13l2.46-19.29l0.86,2.24l-1.2,8.8l0.93,2.08 L29.77,108.05z" fill="rgb(0, 0, 0)"/>
<path id="Top-1_Basic_Gauntlet_Right" d="M30.63,86.62l0.86,2.24l-1.2,8.8l0.93,2.08l-1.45,8.31l1.05,1.41 l-0.05,5.31l1.66,0.29l1.54-8.11l1.47-0.68l5.05-23.8l-9.3-0.21L30.63,86.62z" fill="rgb(79, 7, 7)"/>
<g id="Accent-Bottom_Basic_Gauntlet_Right" fill="rgb(0, 0, 0)">
<path d="M44.58,89.14l2.1,0.5l-0.75,3.1l-2.1-0.5L44.58,89.14z"/>
<path d="M43.29,94.58l2.09,0.5l-0.75,3.1l-2.1-0.5L43.29,94.58z"/>
<path d="M41.93,100.14l2.1,0.5l-0.75,3.1l-2.1-0.5L41.93,100.14z"/>
</g>
<path id="Bottom_Basic_Gauntlet_Right" d="M46.66,89.64l0.56-2.36l-6.82-4.44l-4.96,23.41l7.08,0.7l2.1-8.77 l-2.09-0.5l0.75-3.1l2.08,0.5l0.56-2.33l-2.09-0.5l0.75-3.1L46.66,89.64z M41.93,100.14l2.1,0.5l-0.74,3.1l-2.11-0.51 L41.93,100.14z" fill="rgb(79, 7, 7)"/><g id="Flamethrower_Attachment_Basic_Gauntlet_Right" class="option" style="display: inherit;">
<g id="Tubes_Flamethrower_Attachment_Basic_Gauntlet_Right" fill="rgb(142, 136, 136)">
<path d="M29.54,83.27l0.86,0.11l-3.23,26.03l-0.86-0.11L29.54,83.27z"/>
<path d="M27.57,83.03l0.86,0.11l-2.32,18.66l-0.86-0.11L27.57,83.03z"/>
<path d="M29.18,84.88l1.18,0.14l-0.77,6.2l-1.18-0.15L29.18,84.88z"/>
<path d="M27.21,84.64l1.18,0.15l-0.77,6.2l-1.18-0.14L27.21,84.64z"/>
</g>
<g id="Main_Flamethrower_Attachment_Basic_Gauntlet_Right" fill="rgb(0, 0, 0)">
<path d="M27.2,82.98l3.53,0.43l-0.2,1.63L27,84.62L27.2,82.98z"/>
<path d="M26.15,90.81l3.69,0.45l-0.12,0.99l-3.7-0.45L26.15,90.81z"/>
<path d="M26.18,91.82l3.39,0.42l-0.06,0.5l-3.39-0.42L26.18,91.82z"/>
<path d="M29.55,90.6l0.57,0.09l-0.38,3.03l-0.57-0.09L29.55,90.6z"/>
</g>
<g id="Accent_Flamethrower_Attachment_Basic_Gauntlet_Right" fill="rgb(0, 0, 0)">
<path d="M25.22,101.69l0.92,0.11l-0.02,1.29l-1.21-0.15L25.22,101.69z"/>
<path d="M25.69,95.01l1.63,0.2l-0.24,1.97l-1.63-0.2L25.69,95.01z"/>
<path d="M25.67,97.02l1.18,0.15l-0.24,1.97l-1.18-0.15L25.67,97.02z"/>
<path d="M26.55,105.99l1.18,0.14l-0.34,2.71l-1.18-0.15L26.55,105.99z"/>
<path d="M27.64,97.26l1.18,0.14l-0.46,3.68l-1.18-0.14L27.64,97.26z"/>
<path d="M26.16,107.32l1.63,0.2l-0.07,0.53l-1.63-0.2L26.16,107.32z"/>
</g>
<path id="Base_Flamethrower_Attachment_Basic_Gauntlet_Right" d="M30.11,90.68l1.04-8.21l-1.03,0.26l-1.76,13.89 l0.93,0.56l0.44-3.47l-0.57-0.09l0.38-3.03L30.11,90.68z" fill="rgb(139, 87, 42)"/>
</g></g>
</g>
</g>
<g id="GauntletsDecals" mask="url(#GauntletsMask)">
</g>
<g id="Shins">
<g id="Left-Shin"><g id="Legacy_Shin_Left" class="option" style="display: inherit;">
<path id="Plate-3_Legacy-Shin_Left" d="M105.29,198.57l3.46,16.16c0,0,5.05,1.25,7.82,1.07 c2.77-0.19,6.52-1.47,6.52-1.47l-0.74-17.24l-7.58,4.18L105.29,198.57" fill="rgb(0, 0, 0)"/>
<path id="Plate-2_Legacy-Shin_Left" d="M102.6,188.57l2,9.8l10.17,2.89l8.24-4.54l-0.3-9.81l-9.21,4.15 L102.6,188.57" fill="rgb(0, 0, 0)"/>
<path id="Plate-1_Legacy-Shin_Left" d="M107.02,175.14l-6.55,6.46l1.42,6.81l11.61,2.66l9.85-4.44l-0.22-8.3 l-7.38-4L107.02,175.14" fill="rgb(0, 0, 0)"/>
<path id="Trauma-Plate-3_Legacy-Shin_Left" class="toggle" style="" d="M120.72,199.99l-5.09,2.8c-0.41,0.23-0.89,0.28-1.34,0.15 l-6.66-1.89l2.62,12.22c1.54,0.34,4.4,0.89,6.21,0.77c1.61-0.11,3.57-0.62,4.82-0.99L120.72,199.99" fill="rgb(79, 7, 7)"/>
<path id="Trauma-Plate-2_Legacy-Shin_Left" class="toggle" style="" d="M121.03,189.6l-6.8,3.06c-0.35,0.16-0.75,0.2-1.12,0.11 l-8.23-1.88l1.24,6.09l8.44,2.4l6.66-3.67L121.03,189.6" fill="rgb(79, 7, 7)"/>
<path id="Trauma-Plate-1_Legacy-Shin_Left" class="toggle" style="" d="M107.82,176.82l-5.42,5.35l1,4.77l9.92,2.27l8.24-3.71 l-0.17-6.13l-6.01-3.26L107.82,176.82" fill="rgb(79, 7, 7)"/>
<g id="Ridge_Legacy-Shin_Left" class="toggle" style="" fill="rgb(39, 35, 35)">
<path d="M114.18,215.77l0.61,0.06c-0.33-0.01-0.65-0.04-0.97-0.1L114.18,215.77"/>
<path d="M116.77,189.65l0.68,10.2l-2.68,1.48l-3.68-1.04l-1.63-10.08l4.04,0.92L116.77,189.65"/>
<path d="M117.45,199.85l1.05,15.69c-1.19,0.18-2.48,0.34-3.7,0.28l-0.61-0.06l-0.35-0.04l-0.23-0.03l-2.5-15.41 l3.68,1.04L117.45,199.85"/>
<path d="M107.03,175.19l-0.01-0.05l4.25-1.46l4.48,0.64l0,0.06l-0.01,0l-0.02,0l0.02,0l0.01,0l1.02,15.26 l-3.27,1.47l-4.04-0.92L107.03,175.19"/>
<path d="M111.27,173.68l2.23,17.44"/>
<path d="M113.5,191.12l1.27,10.2"/>
<path d="M114.77,201.32l1.64,14.47"/>
</g>
</g></g>
<g id="Right-Shin"><g id="Legacy_Shin_Right" class="option" style="display: inherit;">
<path id="Plate-3_Legacy-Shin_Right" d="M64.71,198.57l-3.46,16.16c0,0-5.05,1.25-7.82,1.07 c-2.77-0.19-6.52-1.47-6.52-1.47l0.74-17.24l7.58,4.18L64.71,198.57" fill="rgb(0, 0, 0)"/>
<path id="Plate-2_Legacy-Shin_Right" d="M67.4,188.57l-2,9.8l-10.17,2.89l-8.24-4.54l0.3-9.81l9.21,4.15 L67.4,188.57" fill="rgb(0, 0, 0)"/>
<path id="Plate-1_Legacy-Shin_Right" d="M62.98,175.14l6.55,6.46l-1.42,6.81l-11.61,2.66l-9.85-4.44l0.22-8.31 l7.38-4L62.98,175.14" fill="rgb(0, 0, 0)"/>
<path id="Trauma-Plate-3_Legacy-Shin_Right" class="toggle" style="" d="M49.28,199.99l5.09,2.8c0.41,0.23,0.89,0.28,1.34,0.15 l6.66-1.89l-2.62,12.22c-1.54,0.34-4.4,0.89-6.21,0.77c-1.61-0.11-3.57-0.62-4.82-0.99L49.28,199.99" fill="rgb(79, 7, 7)"/>
<path id="Trauma-Plate-2_Legacy-Shin_Right" class="toggle" style="" d="M48.97,189.6l6.8,3.06c0.35,0.16,0.75,0.2,1.12,0.11 l8.23-1.88l-1.24,6.09l-8.44,2.4l-6.66-3.67L48.97,189.6" fill="rgb(79, 7, 7)"/>
<path id="Trauma-Plate-1_Legacy-Shin_Right" class="toggle" style="" d="M62.19,176.82l5.42,5.35l-1,4.77l-9.92,2.27l-8.24-3.71 l0.17-6.13l6.01-3.26L62.19,176.82" fill="rgb(79, 7, 7)"/>
<g id="Ridge_Legacy-Shin_Right" class="toggle" style="" fill="rgb(39, 35, 35)">
<path d="M55.82,215.77l-0.61,0.06c0.33-0.01,0.65-0.04,0.97-0.1L55.82,215.77"/>
<path d="M53.23,189.65l-0.68,10.2l2.68,1.48l3.68-1.04l1.63-10.08l-4.04,0.92L53.23,189.65"/>
<path d="M52.55,199.85l-1.05,15.69c1.19,0.18,2.48,0.34,3.7,0.28l0.61-0.06l0.35-0.04l0.24-0.03l2.5-15.41 l-3.68,1.04L52.55,199.85"/>
<path d="M62.97,175.19l0.01-0.06l-4.25-1.46l-4.48,0.64l0,0.06l0.01,0l0.02,0l-0.02,0l-0.01,0l-1.02,15.26 l3.27,1.47l4.04-0.92L62.97,175.19"/>
<path d="M58.73,173.68l-2.23,17.44"/>
<path d="M56.5,191.12l-1.27,10.2"/>
<path d="M55.23,201.32l-1.64,14.47"/>
</g>
</g></g>
</g>
<g id="ShinsDecals" mask="url(#ShinsMask)">
</g>
<g id="Foot">
<g id="Left-Ankle"><g id="Legacy_Ankle_Left" class="option" style="display: inherit;">
<path id="Plate-2_Legacy-Ankle_Left" d="M124.5,223.42l3.77,3.39l2.6,3.25l-4.16,1.34l-9.52-1.97l-3.48-4.58 L124.5,223.42" fill="rgb(0, 0, 0)"/>
<path id="Plate-1_Legacy-Ankle_Left" d="M107.38,217.05c0,0,3.8,1.69,9.42,1.49c3.86-0.14,5.42-1.1,5.42-1.1 l3.27,6.02l-0.85,3.32l-13.76-1.08l-3.39-2.85L107.38,217.05" fill="rgb(0, 0, 0)"/>
<path id="Trauma-Plate-2_Legacy-Ankle_Left" class="toggle" style="" d="M125.31,224.15l2.94,2.64l1.52,1.89l-3.16,1.02 l-8.38-1.73l-1.38-1.81l7.79,0.61L125.31,224.15" fill="rgb(79, 7, 7)"/>
<path id="Trauma-Plate-1_Legacy-Ankle_Left" class="toggle" style="" d="M108.82,219.15l0.06,2.76l2.74,2.21l12.1,0.95l0.86-3.32 l-1.54-2.84c-1.02,0.29-4.12,1.18-6.16,1.26C113.64,220.28,110.62,219.62,108.82,219.15" fill="rgb(79, 7, 7)"/>
</g></g>
<g id="Left-Toe"><g id="None_Toe_Left" class="option" style="display: inherit;">
</g>
</g>
<g id="Right-Ankle"><g id="Legacy_Ankle_Right" class="option" style="display: inherit;">
<path id="Plate-2_Legacy-Ankle_Right" d="M45.56,223.42l-3.77,3.39l-2.6,3.25l4.16,1.34l9.52-1.97l3.48-4.58 L45.56,223.42" fill="rgb(0, 0, 0)"/>
<path id="Plate-1_Legacy-Ankle_Right" d="M62.68,217.05c0,0-3.8,1.69-9.42,1.49c-3.86-0.14-5.43-1.1-5.43-1.1 l-3.27,6.02l0.85,3.32l13.76-1.08l3.39-2.85L62.68,217.05" fill="rgb(0, 0, 0)"/>
<path id="Trauma-Plate-2_Legacy-Ankle_Right" class="toggle" style="" d="M44.75,224.15l-2.94,2.64l-1.52,1.89l3.16,1.02 l8.38-1.73l1.38-1.81l-7.79,0.61L44.75,224.15" fill="rgb(79, 7, 7)"/>
<path id="Trauma-Plate-1_Legacy-Ankle_Right" class="toggle" style="" d="M61.24,219.15l-0.06,2.76l-2.74,2.21l-12.1,0.95 l-0.86-3.32l1.54-2.84c1.02,0.29,4.12,1.18,6.16,1.26C56.42,220.28,59.44,219.62,61.24,219.15" fill="rgb(79, 7, 7)"/>
</g></g>
<g id="Right-Toe"><g id="None_Toe_Right" class="option" style="display: inherit;">
</g>
</g>
</g>
<g id="FootDecals" mask="url(#FootMask)">
</g>
<g id="Knees">
<g id="Left-Knee"><g id="Basic_Knee_Left" class="option" style="display: inherit;">
<g id="Missiles_Basic-Knee_Left" class="toggle" style="">
<path id="Base_Missiles_Basic-Knee_Left" d="M119.65,156.53c0.01,0.04,0.02,0.09,0.02,0.13 c0.2,2.01,0.56,6.29,0.42,9.97l2.39-1.43c0.39-0.23,0.62-0.65,0.61-1.1c-0.03-1.37-0.1-4.35-0.13-5.91 c-0.01-0.59-0.44-1.09-1.02-1.21L119.65,156.53z" fill="rgb(79, 7, 7)"/>
<g id="Missile-2_Missiles_Basic-Knee_Left" fill="rgb(57, 57, 57)">
<path d="M121.33,162.29c-0.59,0.07-1.01,0.6-0.93,1.19c0.07,0.59,0.62,1.01,1.21,0.94 c0.59-0.07,1.01-0.61,0.93-1.19C122.46,162.64,121.92,162.22,121.33,162.29z"/>
<path d="M121.39,162.64c-0.4,0.05-0.68,0.41-0.63,0.8c0.05,0.39,0.42,0.68,0.81,0.63c0.4-0.05,0.68-0.41,0.63-0.8 C122.15,162.88,121.78,162.6,121.39,162.64z"/>
</g>
<g id="Missile-1_Missiles_Basic-Knee_Left" fill="rgb(57, 57, 57)">
<path d="M121.19,157.64c-0.59,0.07-1.01,0.6-0.93,1.19c0.07,0.59,0.62,1.01,1.21,0.94 c0.59-0.07,1.01-0.61,0.93-1.19C122.33,157.99,121.79,157.57,121.19,157.64z"/>
<path d="M121.25,157.99c-0.4,0.05-0.68,0.41-0.63,0.8c0.05,0.4,0.41,0.68,0.81,0.63c0.4-0.05,0.68-0.41,0.63-0.8 C122.01,158.22,121.65,157.94,121.25,157.99z"/>
</g>
</g>
<g id="Knee_Basic-Knee_Left" fill="rgb(0, 0, 0)">
<path d="M97.4,158.73l1.49-0.24c0,0,1.12,7.19,1.62,10.38c0.13,0.82-0.43,1.6-1.25,1.73h0L97.4,158.73z"/>
<path d="M98.84,158.2l0.85,5.33c1.09-0.61,3.84,0.51,4.74,3.72c1.65,5.89,3.08,7.24,8.25,6.71 c4.02-0.41,6.89-2.29,7.22-5.05c0.49-4.07-0.01-9.98-0.26-12.36c-0.03-0.27-0.17-0.52-0.38-0.7c-0.22-0.17-0.49-0.25-0.77-0.21 C114.3,156.18,98.84,158.2,98.84,158.2z"/>
<path d="M98.33,158.27l0.51-0.08l0.95,5.77l-0.51,0.08L98.33,158.27z"/>
</g>
</g>
</g>
<g id="Right-Knee"><g id="Basic_Knee_Right" class="option" style="display: inherit;">
<g id="Missiles_Basic-Knee_Right" class="toggle" style="">
<path id="Base_Missiles_Basic-Knee_Right" d="M50.35,156.53c-0.01,0.04-0.02,0.09-0.02,0.13 c-0.2,2.01-0.56,6.29-0.42,9.97l-2.39-1.43c-0.39-0.23-0.62-0.65-0.61-1.1c0.03-1.37,0.1-4.35,0.13-5.91 c0.01-0.59,0.44-1.09,1.02-1.21L50.35,156.53z" fill="rgb(79, 7, 7)"/>
<g id="Missile-2_Missiles_Basic-Knee_Right" fill="rgb(57, 57, 57)">
<path d="M48.67,162.29c0.59,0.07,1.01,0.6,0.93,1.19c-0.08,0.59-0.62,1.01-1.21,0.94 c-0.59-0.07-1.01-0.61-0.93-1.19C47.54,162.64,48.08,162.22,48.67,162.29z"/>
<path d="M48.62,162.64c0.4,0.05,0.68,0.41,0.63,0.8c-0.05,0.39-0.42,0.68-0.81,0.63c-0.4-0.05-0.68-0.41-0.63-0.8 C47.85,162.88,48.22,162.6,48.62,162.64z"/>
</g>
<g id="Missile-1_Missiles_Basic-Knee_Right" fill="rgb(57, 57, 57)">
<path d="M48.81,157.64c0.59,0.07,1.01,0.6,0.93,1.19c-0.08,0.59-0.62,1.01-1.21,0.94 c-0.59-0.07-1.01-0.61-0.93-1.19C47.67,157.99,48.21,157.57,48.81,157.64z"/>
<path d="M48.75,157.99c0.4,0.05,0.68,0.41,0.63,0.8c-0.05,0.4-0.42,0.68-0.81,0.63c-0.4-0.05-0.68-0.41-0.63-0.8 C47.99,158.22,48.35,157.94,48.75,157.99z"/>
</g>
</g>
<g id="Knee_Basic-Knee_Right" fill="rgb(0, 0, 0)">
<path d="M72.6,158.73l-1.49-0.24c0,0-1.12,7.19-1.62,10.38c-0.13,0.82,0.43,1.6,1.25,1.73h0L72.6,158.73z"/>
<path d="M71.16,158.2l-0.85,5.33c-1.09-0.61-3.84,0.51-4.74,3.72c-1.65,5.89-3.08,7.24-8.25,6.71 c-4.02-0.41-6.89-2.29-7.22-5.05c-0.49-4.07,0.01-9.98,0.26-12.36c0.03-0.27,0.17-0.52,0.38-0.7c0.22-0.17,0.49-0.25,0.77-0.21 C55.7,156.18,71.16,158.2,71.16,158.2z"/>
<path d="M71.67,158.27l-0.51-0.08l-0.95,5.77l0.51,0.08L71.67,158.27z"/>
</g>
</g>
</g>
</g>
<g id="KneesDecals" mask="url(#KneesMask)">
</g>
<g id="Thighs">
<g id="Left-Thigh"><g id="Basic_Thigh_Left" class="option" style="display: inherit;">
<path id="Thigh_Basic-Thigh_Left" d="M119.66,114.13c0,0-5.22-6.67-7.89-7.78c-2.53-1.05-5.91-0.6-8.08,1.13 c-3.31,2.64-10.92,8.35-11.78,14.71c-0.96,7.1,4.24,22.8,6,27.87c0.6,1.72,2.87,2.51,4.61,2.57c3.22,0.12,12.01-0.15,14.11-4.87 C119.49,141.34,119.66,114.13,119.66,114.13" fill="rgb(0, 0, 0)"/>
<path id="Trauma-Plate_Basic-Thigh_Left" class="toggle" style="" d="M117.89,114.74c-0.78-0.97-2.65-3.22-4.46-4.95 c-0.86-0.82-1.68-1.54-2.34-1.82c-1.97-0.82-4.61-0.47-6.3,0.88c-1.92,1.53-5.35,4.12-7.95,7.29c-1.58,1.92-2.88,4.05-3.18,6.29 c-0.94,6.9,4.2,22.13,5.92,27.06c0.15,0.43,0.56,0.7,0.99,0.91c0.64,0.31,1.38,0.46,2.02,0.49c1.8,0.07,5.47,0.02,8.54-1 c1.7-0.56,3.24-1.38,3.89-2.83c0.81-1.82,1.35-5.42,1.77-9.56C117.68,128.66,117.86,117.46,117.89,114.74" fill="rgb(79, 7, 7)"/>
<g id="Ridge_Basic-Thigh_Left" class="toggle" style="" fill="rgb(39, 35, 35)">
<path d="M110.85,105.79l-3.61-0.92l-3.78,2.07l1.23,45.7c2.49,0.48,2.53,0.57,4.71-0.08L110.85,105.79"/>
<path d="M107.27,104.87l-0.1,48.14"/>
</g>
</g>
</g>
<g id="Right-Thigh"><g id="Basic_Thigh_Right" class="option" style="display: inherit;">
<path id="Thigh_Basic-Thigh_Right" d="M50.34,114.13c0,0,5.22-6.67,7.89-7.78c2.53-1.05,5.91-0.6,8.08,1.13 c3.31,2.64,10.92,8.35,11.78,14.71c0.96,7.1-4.24,22.8-6,27.87c-0.6,1.72-2.87,2.51-4.61,2.57c-3.22,0.12-12.01-0.15-14.11-4.87 C50.51,141.34,50.34,114.13,50.34,114.13" fill="rgb(0, 0, 0)"/>
<path id="Trauma-Plate_Basic-Thigh_Right" class="toggle" style="" d="M52.11,114.74c0.78-0.97,2.65-3.22,4.46-4.95 c0.86-0.82,1.68-1.54,2.33-1.82c1.97-0.82,4.61-0.47,6.3,0.88c1.92,1.53,5.35,4.12,7.95,7.29c1.58,1.92,2.88,4.05,3.18,6.29 c0.94,6.9-4.2,22.13-5.92,27.06c-0.15,0.43-0.56,0.7-0.99,0.91c-0.64,0.31-1.38,0.46-2.02,0.49c-1.8,0.07-5.47,0.02-8.54-1 c-1.7-0.56-3.24-1.38-3.89-2.83c-0.81-1.82-1.35-5.42-1.77-9.56C52.32,128.66,52.14,117.46,52.11,114.74" fill="rgb(79, 7, 7)"/>
<g id="Ridge_Basic-Thigh_Right" class="toggle" style="" fill="rgb(39, 35, 35)">
<path d="M59.15,105.79l3.61-0.92l3.78,2.07l-1.23,45.7c-2.49,0.48-2.53,0.57-4.71-0.08L59.15,105.79"/>
<path d="M62.73,104.87l0.1,48.14"/>
</g>
</g>
</g>
</g>
<g id="ThighsDecals" mask="url(#ThighsMask)">
</g>
<g id="Groin"><g id="Basic_Groin" class="option" style="display: inherit;">
<path id="Groin-Plate_Basic" d="M78.57,104.6L67.72,82.91h34.71L91.58,104.6c0,0-4.33,5.17-6.5,5.17 C82.91,109.76,78.57,104.6,78.57,104.6z" fill="rgb(0, 0, 0)"/>
<path id="Trauma-Plating_Groin" class="toggle" style="display:none" d="M90.42,103.84l9.8-19.57H69.93l9.79,19.57c0.43,0.5,2.16,2.47,3.82,3.72 c0.58,0.44,1.1,0.84,1.53,0.84c0.44,0,0.95-0.4,1.53-0.84C88.26,106.32,89.99,104.34,90.42,103.84" fill="rgb(255, 255, 255)"/>
</g>
</g>
<g id="GroinDecals" mask="url(#GroinMask)">
</g>
<g id="Waist">
<g id="Accessories_Waist">
<g id="Kama" class="toggle" style=""><g id="Tattered_Kama" class="option" style="display: inherit;">
<g id="Main_Kama-Tattered" fill="rgb(0, 0, 0)">
<path d="M105.73,79.21c1.46-0.33,0.81,5.35,4.07,9.76c1.99,2.69,4.66,7.14,5.19,9.61 c0.63,2.94,2.52,5.91,3.26,8.85c1.29,5.11,3.04,10.08,4.12,15.1c0.86,4.02,0.57,8.28,1.53,12.31c0.72,3.04,0.26,5.69,1.26,8.6 c1.11,3.26-1.13,6.52-0.32,9.87c0.49,2.04,0.09,4,0.73,6c0.22,0.68,0.4,1.35,0.57,2.04c0.05,0.21,0.1,0.42,0.15,0.63 c0.03,0.13,0.17,0.47,0.08,0.38c-0.67-0.61-1.04-1.76-1.67-2.48c-1.22-1.39-2.76-2.43-3.92-3.9c-0.45-0.57-0.8-1.19-1.11-1.84 c-0.03-0.06-0.23-0.55-0.26-0.55c-2.37,0.51-4.74,1.43-6.75-0.63c-1.6-1.64-2.99-5.17-3.81-7.36 c-0.34-0.92,0.12-6.32-0.49-6.83c-0.45-0.37-0.86,4.49-1.4,4.16c-3.41-2.06-8.25-3.29-8.25-3.29s-0.38-6.89-0.1-10.83 c0.25-3.54-0.24-6.62-0.75-10.08c-0.66-4.48-0.58-9.09-0.28-13.59C98.05,97.84,92.59,82.18,105.73,79.21z M113.54,145.48 c-0.42,1.82-0.46,3.9,0.55,5.54c0.34,0.55,1.18,1.42,1.92,1.19c3.1-0.98-0.7-5.88-1.7-6.97L113.54,145.48z M104.43,132.18 c-0.56,0.35-1.04,0.76-1.45,1.3c-1.47,1.91,2.57,0.96,1.87-1.37L104.43,132.18z"/>
<path d="M64.35,79.21c-1.46-0.33-1.17,5.1-4.07,9.76c-1.91,3.07-4.66,7.14-5.19,9.61 c-0.63,2.94-2.52,5.91-3.26,8.85c-1.29,5.11-3.04,10.08-4.12,15.1c-0.86,4.02-0.57,8.28-1.53,12.31 c-0.72,3.04-0.26,5.69-1.26,8.6c-1.12,3.26,1.13,6.52,0.32,9.87c-0.49,2.04-0.09,4-0.73,6c-0.22,0.68-0.4,1.35-0.57,2.04 c-0.05,0.21-0.1,0.42-0.15,0.63c-0.03,0.13-0.17,0.47-0.08,0.38c0.67-0.61,1.04-1.76,1.67-2.48c1.22-1.39,2.76-2.43,3.92-3.9 c0.45-0.57,0.8-1.19,1.11-1.84c0.03-0.06,0.23-0.55,0.26-0.55c2.37,0.51,4.73,1.43,6.76-0.63c1.6-1.64,2.99-5.17,3.81-7.36 c0.34-0.92-0.12-6.32,0.49-6.83c0.45-0.37,0.86,4.49,1.41,4.16c3.41-2.06,8.25-3.29,8.25-3.29s0.38-6.89,0.1-10.83 c-0.25-3.54,0.24-6.62,0.75-10.08c0.66-4.48,0.58-9.09,0.28-13.59C72.03,97.84,77.49,82.18,64.35,79.21z M56.54,145.48 c0.42,1.82,0.46,3.9-0.55,5.54c-0.34,0.55-1.18,1.42-1.92,1.19c-3.1-0.98,0.7-5.88,1.7-6.97L56.54,145.48z M65.65,132.18 c0.56,0.35,1.04,0.76,1.45,1.3c1.47,1.91-2.57,0.96-1.87-1.37L65.65,132.18z"/>
</g>
</g>
</g>
<g id="Loin-Cloth" class="toggle" style="display:none"/>
<g id="Left-Holster" class="toggle" style="display:none"/>
<g id="Right-Holster" class="toggle" style=""><g id="Hanging-Holster_Right" class="option" style="display: inherit;">
<g id="Weapon_Hanging-Holster-Right">
<g id="Main_Weapon_Hanging-Holster-Right" fill="rgb(163, 163, 163)">
<path d="M51.58,115.51l-0.17-3.74l-0.65,0.03l-0.11-2.35l0.65-0.03l-0.06-1.22c-0.02-0.4-0.56-0.69-1.22-0.66 c-1.51,0.07-4.08,0.19-5.58,0.26c-0.66,0.03-1.17,0.38-1.16,0.77l0.06,1.22l0.65-0.03l0.11,2.35l-0.65,0.03l0.17,3.74 l1.52-0.07l0.48,10.35l4.92-0.23l-0.48-10.35L51.58,115.51z"/>
<path d="M44.24,115.3l0.87-0.04l0.58,12.43l4.92-0.23l-0.58-12.44l0.87-0.04l-0.13-2.84l-6.67,0.31L44.24,115.3z"/>
<path d="M45.29,108.56l3.95-0.18l0.18,3.84l-3.95,0.18L45.29,108.56z"/>
<path d="M48.96,116.2l0.65-0.03l0.45,9.78l-0.65,0.03L48.96,116.2z"/>
<path d="M47.2,114.05l0.65-0.03l0.45,9.78l-0.65,0.03L47.2,114.05z"/>
<path d="M45.65,116.36l0.65-0.03l0.45,9.78l-0.65,0.03L45.65,116.36z"/>
</g>
<g id="Accent_Weapon_Hanging-Holster-Right" fill="rgb(0, 0, 0)">
<path d="M48.85,112.64l0.02,0.39l-2.78,0.13l-0.02-0.39L48.85,112.64z"/>
<path d="M48.87,113.03l0.02,0.39l-2.78,0.13l-0.02-0.39L48.87,113.03z"/>
<path d="M48.84,112.25l0.02,0.39l-2.78,0.13l-0.02-0.39L48.84,112.25z"/>
<path d="M48.61,107.43l0.02,0.39l-2.78,0.13l-0.02-0.39L48.61,107.43z"/>
<path d="M48.59,108.41l0.65-0.03l0.18,3.84l-0.65,0.03L48.59,108.41z"/>
<path d="M45.29,108.56l0.65-0.03l0.18,3.84l-0.65,0.03L45.29,108.56z"/>
<path d="M46.3,116.33l0.98-0.04l0.45,9.78l-0.98,0.04L46.3,116.33z"/>
<path d="M47.97,116.25l0.98-0.05l0.45,9.78l-0.98,0.04L47.97,116.25z"/>
</g>
</g>
<path id="Holster_Hanging-Holster-Right" d="M51.54,129.93l0.79-15.75l-7.32,11.86l1.62,21.43 c1.71,1.78,3.39,1.79,5.04-0.19L51.54,129.93z" fill="rgb(76, 45, 19)"/>
<g id="Straps_Hanging-Holster-Right" fill="rgb(76, 45, 19)">
<path d="M79.54,88.76c-8.01,11.42-16.07,21.09-27.21,25.41l-0.13,2.7c13.85-5.81,21.28-15.64,29.47-28.11H79.54z"/>
<path d="M51.59,133.13c7.49,5.7,15.58,8.8,25.28,9.32l-0.69,2.14c-8.39-0.76-16.22-3.85-24.59-9.21V133.13z"/>
<path d="M51.59,135.38l-0.02-2.25c-1.94,0.86-4.21,0.92-5.99,0.29l0.17,2.3 C47.67,136.21,49.85,136.24,51.59,135.38z"/>
</g>
<g id="Buckle_Hanging-Holster-Right" fill="rgb(0, 0, 0)">
<path d="M69.09,142.34l1.05,0.16l-0.05,0.34l-1.05-0.16L69.09,142.34"/>
<path d="M71.96,100.3l0.73-0.96l0.28,0.21l-0.73,0.96L71.96,100.3"/>
<path d="M72.23,100.51l1.19,0.96l2.8-3.44l-2.7-2.18l-2.8,3.44l1.24,1l0.6-0.79l-0.61-0.49l1.54-1.9l1.49,1.2 l-1.55,1.9l-0.61-0.49L72.23,100.51"/>
<path d="M69.13,142.34l0.83,0.12l0.12-0.81l2.01,0.43l-0.28,1.88l-2.01-0.43l0.11-0.73l-0.83-0.12l-0.22,1.44 l3.66,0.78l0.51-3.41l-3.66-0.78L69.13,142.34"/>
</g>
</g></g>
<g id="Left-Trophy" class="toggle" style="display:none"/>
<g id="Right-Trophy" class="toggle" style="display:none"/>
</g>
<g id="Under-Belt"><g id="Girth-Belt" class="option" fill="rgb(47, 25, 5)" style="display: inherit;">
<path d="M85.04,76.62c-7.36,0-22.09-1.86-22.09-1.86l0.48-1.58c0,0,14.37,1.24,21.61,1.86 c7.21-0.62,21.61-1.86,21.61-1.86l0.48,1.58C107.13,74.76,92.4,76.62,85.04,76.62z"/>
<path d="M85.04,78.2c-7.52,0-22.55-1.86-22.55-1.86l0.46-1.58c0,0,18.41,1.55,22.09,1.86 c3.68-0.31,22.09-1.86,22.09-1.86l0.46,1.58C107.59,76.34,92.56,78.2,85.04,78.2z"/>
<path d="M85.04,79.78c-7.63,0-22.9-1.86-22.9-1.86l0.34-1.58c0,0,18.79,1.55,22.55,1.86 c3.76-0.31,22.55-1.86,22.55-1.86l0.34,1.58C107.94,77.92,92.67,79.78,85.04,79.78z"/>
<path d="M85.04,81.36c-7.73,0-23.18-1.86-23.18-1.86l0.29-1.58c0,0,19.08,1.55,22.9,1.86 c3.82-0.31,22.9-1.86,22.9-1.86l0.29,1.58C108.22,79.49,92.77,81.36,85.04,81.36z"/>
<path d="M85.04,82.94c-7.81,0-23.44-1.86-23.44-1.86l0.26-1.58c0,0,19.32,1.55,23.18,1.86 c3.86-0.31,23.18-1.86,23.18-1.86l0.26,1.58C108.49,81.07,92.86,82.94,85.04,82.94z"/>
<path d="M85.04,84.52c-7.9,0-23.69-1.86-23.69-1.86l0.25-1.58c0,0,19.54,1.55,23.44,1.86 c3.91-0.31,23.44-1.86,23.44-1.86l0.25,1.58C108.73,82.65,92.94,84.52,85.04,84.52z"/>
<path d="M85.04,86.1c-7.98,0-23.93-1.86-23.93-1.86l0.24-1.58c0,0,19.74,1.55,23.69,1.86 c3.95-0.31,23.69-1.86,23.69-1.86l0.24,1.58C108.97,84.23,93.02,86.1,85.04,86.1z"/>
<path d="M85.04,87.68c-8.06,0-24.18-1.86-24.18-1.86l0.25-1.58c0,0,19.94,1.55,23.93,1.86 c3.99-0.31,23.93-1.86,23.93-1.86l0.25,1.58C109.22,85.81,93.1,87.68,85.04,87.68z"/>
<path d="M85.04,89.25c-8.15,0-24.45-1.86-24.45-1.86l0.27-1.58c0,0,20.15,1.55,24.18,1.86 c4.03-0.31,24.18-1.86,24.18-1.86l0.27,1.58C109.49,87.39,93.19,89.25,85.04,89.25z"/>
<path d="M85.04,90.83c-8.25,0-24.76-1.86-24.76-1.86l0.31-1.58c0,0,20.38,1.55,24.45,1.86 c4.08-0.31,24.45-1.86,24.45-1.86l0.31,1.58C109.8,88.97,93.29,90.83,85.04,90.83z"/>
</g>
</g>
<g id="Belt"><g id="Pouch-Belt-6" class="option" style="display: inherit;">
<path id="Main_Pouch-Belt-6" d="M109.38,84.25c-5.47,0.49-17.98,2.27-24.29,2.27c-6.38,0-18.88-1.79-24.28-2.26 l0.81-6.37c4.44,0.39,17.3,2.2,23.48,2.2c5.99,0,18.59-1.79,23.33-2.22L109.38,84.25z" fill="rgb(0, 0, 0)"/>
<rect id="Buckle_Pouch-Belt-6" x="80.61" y="79.49" width="9.05" height="7.39" fill="rgb(79, 7, 7)"/>
<g id="Pouches_Pouch-Belt-6" fill="rgb(97, 55, 19)">
<g>
<g>
<g>
<path d="M75.55,77.98c-1.42-0.09-2.85,0.13-4.17,0.65l0,0L77.86,79l1.76-0.75 C79.62,78.25,77.35,78.1,75.55,77.98z"/>
<path d="M79.85,78.48c0.01-0.07-0.02-0.14-0.08-0.18c-0.06-0.04-0.14-0.05-0.2-0.02 c-0.57,0.24-1.7,0.73-1.7,0.73l-0.84,9.96c0.71-0.41,1.42-0.64,2.11-0.75c0.1-0.01,0.17-0.1,0.18-0.19 C79.41,84.83,79.53,81.65,79.85,78.48z"/>
<path d="M77.86,79l-6.48-0.37c-0.04,1.51-0.18,3.02-0.26,4.54c-0.09,1.75-0.13,3.52-0.3,5.29 c0,0.06,0.01,0.12,0.05,0.16c0.04,0.04,0.1,0.07,0.15,0.07c2.02-0.01,4.03,0.1,6.04,0.35c0.06,0.01,0.11-0.01,0.16-0.04 c0.04-0.04,0.07-0.09,0.08-0.14c0.06-0.92,0.31-4.51,0.31-4.51L77.86,79z"/>
<path d="M77.86,79l-6.48-0.37c0,0-0.07,0.58-0.16,1.34c-0.11,0.91,0.16,1.83,0.76,2.53 c0.59,0.7,1.45,1.13,2.37,1.19c0,0,0,0,0,0c0.92,0.05,1.82-0.28,2.49-0.91c0.67-0.63,1.04-1.51,1.04-2.43 C77.87,79.58,77.86,79,77.86,79z"/>
<path d="M74.42,82.49c0.23,0.01,0.41,0.21,0.39,0.44c-0.01,0.23-0.21,0.4-0.44,0.39 c-0.23-0.01-0.41-0.21-0.39-0.44C73.99,82.65,74.19,82.48,74.42,82.49z"/>
</g>
</g>
<g>
<g>
<path d="M66.42,76.75c-1.32-0.09-2.64,0.14-3.85,0.67h0l5.92,0.34L70.1,77C70.1,77,68.06,76.86,66.42,76.75z"/>
<path d="M70.3,77.24c0.01-0.07-0.03-0.14-0.09-0.19c-0.06-0.04-0.14-0.05-0.21-0.02 c-0.53,0.25-1.52,0.72-1.52,0.72l-0.82,9.96c0.65-0.41,1.29-0.65,1.92-0.76c0.1-0.02,0.17-0.1,0.17-0.19 C69.87,83.59,69.99,80.41,70.3,77.24z"/>
<path d="M68.49,77.76l-5.92-0.34c-0.04,1.51-0.18,3.02-0.26,4.54c-0.09,1.75-0.13,3.51-0.3,5.28 c-0.01,0.06,0.01,0.12,0.05,0.16c0.04,0.04,0.1,0.07,0.15,0.07c1.83-0.02,3.66,0.08,5.47,0.31c0.06,0.01,0.11-0.01,0.16-0.04 s0.07-0.09,0.08-0.14c0.06-0.93,0.31-4.51,0.31-4.51L68.49,77.76z"/>
<path d="M68.49,77.76l-5.92-0.34c0,0-0.08,0.74-0.19,1.64c-0.1,0.83,0.16,1.67,0.7,2.31 c0.54,0.64,1.33,1.03,2.17,1.08c0,0,0,0,0,0c0.84,0.05,1.67-0.25,2.28-0.83c0.61-0.58,0.96-1.38,0.96-2.22 C68.49,78.5,68.49,77.76,68.49,77.76z"/>
<path d="M65.32,81.27c0.21,0.01,0.37,0.21,0.36,0.44c-0.01,0.23-0.19,0.4-0.4,0.39s-0.37-0.21-0.36-0.44 C64.93,81.43,65.11,81.26,65.32,81.27z"/>
</g>
</g>
<g>
<path d="M58.83,77.31l0.44-0.68l2.27,0.07l0.28,0.85L58.83,77.31z"/>
<path d="M61.81,77.64c0.01-0.06-0.01-0.11-0.05-0.16c-0.04-0.04-0.09-0.07-0.15-0.07 c-0.69-0.03-2.78-0.11-2.78-0.11l-0.4,8.96c0.11,0.27,1.76,0.43,2.69,0.39c0.11-0.01,0.19-0.09,0.19-0.2 C61.37,83.51,61.47,80.57,61.81,77.64z"/>
</g>
</g>
<g>
<g>
<g>
<path d="M94.63,77.98c1.42-0.09,2.85,0.13,4.17,0.65l0,0L92.32,79l-1.76-0.75 C90.56,78.25,92.83,78.1,94.63,77.98z"/>
<path d="M90.33,78.48c-0.01-0.07,0.02-0.14,0.08-0.18c0.06-0.04,0.14-0.05,0.2-0.02c0.57,0.24,1.7,0.73,1.7,0.73 l0.84,9.96c-0.71-0.41-1.42-0.64-2.11-0.75c-0.1-0.01-0.17-0.1-0.18-0.19C90.77,84.83,90.66,81.65,90.33,78.48z"/>
<path d="M92.32,79l6.48-0.37c0.04,1.51,0.18,3.02,0.26,4.54c0.09,1.75,0.13,3.52,0.3,5.29 c0,0.06-0.01,0.12-0.05,0.16c-0.04,0.04-0.1,0.07-0.15,0.07c-2.02-0.01-4.03,0.1-6.04,0.35c-0.06,0.01-0.11-0.01-0.16-0.04 c-0.04-0.04-0.07-0.09-0.08-0.14c-0.06-0.92-0.31-4.51-0.31-4.51L92.32,79z"/>
<path d="M92.32,79l6.48-0.37c0,0,0.07,0.58,0.16,1.34c0.11,0.91-0.16,1.83-0.76,2.53 c-0.59,0.7-1.45,1.13-2.37,1.19c0,0,0,0,0,0c-0.92,0.05-1.82-0.28-2.49-0.91c-0.67-0.63-1.04-1.51-1.04-2.43 C92.31,79.58,92.32,79,92.32,79z"/>
<path d="M95.76,82.49c-0.23,0.01-0.41,0.21-0.39,0.44c0.01,0.23,0.21,0.4,0.44,0.39 c0.23-0.01,0.41-0.21,0.39-0.44C96.19,82.65,96,82.48,95.76,82.49z"/>
</g>
</g>
<g>
<g>
<path d="M103.76,76.75c1.32-0.09,2.64,0.14,3.85,0.67h0l-5.92,0.34L100.08,77 C100.08,77,102.13,76.86,103.76,76.75z"/>
<path d="M99.88,77.24c-0.01-0.07,0.03-0.14,0.09-0.19c0.06-0.04,0.14-0.05,0.21-0.02 c0.53,0.25,1.52,0.72,1.52,0.72l0.82,9.96c-0.65-0.41-1.29-0.65-1.92-0.76c-0.1-0.02-0.17-0.1-0.17-0.19 C100.31,83.59,100.19,80.41,99.88,77.24z"/>
<path d="M101.69,77.76l5.92-0.34c0.04,1.51,0.18,3.02,0.26,4.54c0.09,1.75,0.13,3.51,0.3,5.28 c0,0.06-0.01,0.12-0.05,0.16c-0.04,0.04-0.1,0.07-0.15,0.07c-1.83-0.02-3.66,0.08-5.47,0.31c-0.06,0.01-0.11-0.01-0.16-0.04 s-0.07-0.09-0.08-0.14c-0.06-0.93-0.31-4.51-0.31-4.51L101.69,77.76z"/>
<path d="M101.69,77.76l5.92-0.34c0,0,0.08,0.74,0.19,1.64c0.09,0.83-0.16,1.67-0.7,2.31 c-0.54,0.64-1.33,1.03-2.17,1.08c0,0,0,0,0,0c-0.84,0.05-1.67-0.25-2.28-0.83c-0.61-0.58-0.96-1.38-0.96-2.22 C101.69,78.5,101.69,77.76,101.69,77.76z"/>
<path d="M104.86,81.27c-0.21,0.01-0.37,0.21-0.36,0.44c0.01,0.23,0.19,0.4,0.4,0.39s0.37-0.21,0.36-0.44 C105.25,81.43,105.07,81.26,104.86,81.27z"/>
</g>
</g>
<g>
<path d="M111.35,77.31l-0.44-0.68l-2.27,0.07l-0.28,0.85L111.35,77.31z"/>
<path d="M108.38,77.64c-0.01-0.06,0.01-0.11,0.05-0.16c0.04-0.04,0.09-0.07,0.15-0.07 c0.69-0.03,2.78-0.11,2.78-0.11l0.4,8.96c-0.11,0.27-1.75,0.43-2.68,0.39c-0.11-0.01-0.19-0.09-0.19-0.2 C108.81,83.51,108.71,80.57,108.38,77.64z"/>
</g>
</g>
</g>
</g></g>
</g>
<g id="WaistDecals" mask="url(#WaistMask)">
</g>
<g id="Extras_Front">
<g id="Front"><g id="None_Front" class="option" style="display: inherit;">
</g>
</g>
</g>
<g id="Extras-FrontDecals" mask="url(#FrontMask)">
</g>
</g>
</svg>