<?xml version='1.0' encoding='UTF-8'?><svg version='1.1' xmlns='http://www.w3.org/2000/svg'><metadata><rdf:rdf xmlns:rdf="http://www.w3.org/1999/02/22-rdf-syntax-ns#" xmlns:rdfs="http://www.w3.org/2000/01/rdf-schema#" xmlns:dc="http://purl.org/dc/elements/1.1/"> <rdf:description> <dc:creator>MandoCreator</dc:creator> <dc:publisher>https://www.mandocreator.com</dc:publisher> <dc:description>Your Beskar'gam - created by MandoCreator</dc:description> <dc:format>image/svg+xml</dc:format> <dc:type>Image</dc:type> <dc:title>MandoCreator - Ner Berskar'gam</dc:title> <dc:date>2021-10-08T16:27:08.462Z</dc:date> </rdf:description> </rdf:rdf></metadata><svg version="1.1" id="Female" xmlns="http://www.w3.org/2000/svg" viewBox="0 -55 169 300" style="fill: white; fill-rule: evenodd; stroke: black; stroke-width: 0.2px; pointer-events: none; position: relative; height: 100%;">
<g id="Extras_Back">
<g id="Back"><g id="NO-CAPES_Back" class="option" style="display: inherit;">
</g>
</g>
</g>
<g id="Suit">
<g id="Neck-Seal">
<g id="Standard-Neck-Seal" class="option" style="fill: rgb(126, 126, 126); display: inherit;">
<path d="M95.2,8.5c0-0.9-0.7-1.7-1.6-1.7c0,0-6.1,0.9-9.1,0.9c-3,0-9.1-0.9-9.1-0.9c-0.9,0-1.6,0.7-1.6,1.7 c0,0.9,0.7,1.6,1.6,1.6c0,0,6.1,0.9,9.1,0.9c3,0,9.1-0.9,9.1-0.9C94.4,10.1,95.2,9.4,95.2,8.5z"/>
<path d="M95.7,10.4c0-1-0.8-1.7-1.7-1.7c0,0-6.4,0.9-9.5,0.9s-9.5-0.9-9.5-0.9c-0.9,0-1.7,0.8-1.7,1.7 c0,1,0.8,1.7,1.7,1.7c0,0,6.4,0.9,9.5,0.9s9.5-0.9,9.5-0.9C95,12.1,95.7,11.3,95.7,10.4z"/>
<path d="M96.3,12.8c0-1-0.8-1.8-1.8-1.8c0,0-6.7,1-10.1,1c-3.4,0-10.1-1-10.1-1c-1,0-1.8,0.8-1.8,1.8 s0.8,1.8,1.8,1.8c0,0,6.7,1,10.1,1c3.4,0,10.1-1,10.1-1C95.5,14.6,96.3,13.8,96.3,12.8z"/>
<path d="M96.9,15c0-1.1-0.8-1.9-1.9-1.9c0,0-7,1-10.6,1c-3.5,0-10.6-1-10.6-1c-1,0-1.9,0.9-1.9,1.9 c0,1.1,0.8,1.9,1.9,1.9c0,0,7,1,10.6,1c3.5,0,10.6-1,10.6-1C96.1,16.9,96.9,16,96.9,15z"/>
<path d="M97.5,17.1c0-0.8-0.9-1.5-2-1.5c0,0-7.4,0.8-11.1,0.8c-3.7,0-11.1-0.8-11.1-0.8c-1.1,0-2,0.6-2,1.5 c0,0.8,0.9,1.5,2,1.5c0,0,7.4,0.8,11.1,0.8c3.7,0,11.1-0.8,11.1-0.8C96.6,18.6,97.5,17.9,97.5,17.1z"/>
<path d="M97.5,19.6c0-0.8-0.9-1.5-2-1.5c0,0-7.4,0.8-11.1,0.8c-3.7,0-11.1-0.8-11.1-0.8c-1.1,0-2,0.6-2,1.5 c0,0.8,0.9,1.4,2,1.4c0,0,7.4,1.5,11.1,1.5c3.7,0,11.1-1.5,11.1-1.5C96.6,21,97.5,20.4,97.5,19.6z"/>
</g>
</g>
<g id="Flight-Suit" style="fill: rgb(110, 110, 110);">
<path d="M38.9,64l5.1-18.4l11.8-8l1.8,16.1c0,0-5.1,9.7-6.9,14.2c-1.8,4.6-5,15.1-5.4,16.5l-2.8,24.4l-8.1-2.6 c0,0-0.3-16.9,0.4-24C35.5,76,38.9,64,38.9,64z"/>
<path d="M130.1,64l-5.1-18.5l-11.7-7.9l-1.9,16.2c0,0,5.1,9.6,6.8,14.1c1.8,4.6,5,15.1,5.4,16.5l2.8,24.4l8.1-2.6 c0,0,0.3-16.9-0.4-24C133.5,76,130.1,64,130.1,64z"/>
<path d="M84.5,116.1c-1,0.1-1.9,0.5-2.2,1.2c-2.9,6.2-8.9,34.4-10.7,39.6c-0.9,2.8-1.7,18.3-3.3,27.3 c-1.9,10.8-8.2,37.3-8.2,37.3l-10.9-1.1c0,0-1.4-26.6-1-36.3c0.3-7.4,3.3-21.8,3.3-21.8s0.7-5.3,0.7-7.9c0.1-9.6,0.9-31,2.8-43.3 c1.5-9.7,10.6-30.1,10.6-30.1s11.9,4.7,18.8,4.7c7,0,18.9-4.8,18.9-4.8s8.6,20.5,10.1,30.2c1.9,12.3,3.2,33.7,3.2,43.3 c0,2.7,0.7,7.9,0.7,7.9s3,14.5,3.3,21.8c0.4,9.7-1,36.3-1,36.3l-10.9,1.1c0,0-6.3-26.5-8.2-37.3c-1.6-9-2.3-24.5-3.3-27.3 c-1.7-5.2-7.7-33.4-10.7-39.6C86.5,116.6,85.6,116.2,84.5,116.1L84.5,116.1z"/>
</g>
<g id="Sleeves" class="toggle" style="fill: rgb(140, 140, 140);">
<path d="M42.6,45.6l0.8,0.3l12.4-8.3c0,0,0.4,8.8,1.4,14.1c0.1,0.7,0.4,1.7,0.6,2.7l-1.6,5.3c0,0-5.6-2.2-8.1-3.6 c-2.4-1.4-6.7-5-6.7-5L42.6,45.6z"/>
<path d="M111.3,54.4c0.3-1.1,0.5-2,0.6-2.7c1-5.3,1.4-14.1,1.4-14.1l12.4,8.3l0.8-0.3l1.2,5.5c0,0-4.3,3.6-6.7,5 c-2.5,1.4-8.1,3.6-8.1,3.6L111.3,54.4z"/>
</g>
</g>
<g id="Boots">
<g id="Basic_Boots" class="option" style="display: inherit;">
<g id="Main_Basic-Boot" style="fill: rgb(76, 76, 76);">
<path d="M60.9,218.4c-0.2-0.1-2.3,1.3-3.4,1.4c-1.3,0.2-2.6,0.2-4,0.1l-0.5-0.1l0,0l-0.1,0l-0.2,0l-0.3,0l-0.1,0 c-0.3,0-0.6-0.1-0.9-0.1l-0.5-0.1l-0.1,0l0,0l-0.1,0l-0.3-0.1l-0.3-0.1l0,0c-1-0.3-0.8-0.8-0.8-0.8c0,1.4-1.5,5.9-5.1,9.5 c-1.1,1.1-3.8,2.4-6.2,3.4c-2.1,0.9-4.7,1.2-6,3.7c-0.3,0.6-0.5,1.2-0.5,1.8c0.1,0.8,0.9,0.9,1.6,1.1c1.7,0.5,3.1,0.8,5.1,1.3 c2.2,0.5,4.2,0.8,6.5,0.7c1.7,0,3.1-0.1,4.6-1c0.6-0.4,1.2-0.7,1.7-1.2c1.2-1.1,1.9-2.2,3.4-2.8c1.1-0.5,2.2-0.8,3.3-1.1 c1.6-0.4,4-0.9,4.8-2.5c0.3-1.2-1.1-3.7-1.2-5.5C61.1,224.6,61,218.4,60.9,218.4z"/>
<path d="M108.2,218.4c0.2-0.1,2.3,1.3,3.4,1.4c1.3,0.2,2.6,0.2,4,0.1l0.5-0.1l0,0l0.1,0l0.2,0l0.3,0l0.1,0 c0.3,0,0.6-0.1,0.9-0.1l0.5-0.1l0.1,0l0,0l0.1,0l0.3-0.1l0.3-0.1l0,0c1-0.3,0.8-0.8,0.8-0.8c0,1.4,1.5,5.9,5.1,9.5 c1.1,1.1,3.8,2.4,6.2,3.4c2.1,0.9,4.7,1.2,6,3.7c0.3,0.6,0.5,1.2,0.5,1.8c-0.1,0.8-0.9,0.9-1.6,1.1c-1.7,0.5-3.1,0.8-5.1,1.3 c-2.2,0.5-4.2,0.8-6.5,0.7c-1.7,0-3.1-0.1-4.6-1c-0.6-0.4-1.2-0.7-1.7-1.2c-1.2-1.1-1.9-2.2-3.4-2.8c-1.1-0.5-2.2-0.8-3.3-1.1 c-1.6-0.4-4-0.9-4.8-2.5c-0.3-1.2,1.1-3.7,1.2-5.5C107.9,224.6,108.1,218.4,108.2,218.4z"/>
</g>
<g id="Bottom_Basic-Boot" style="fill: rgb(49, 49, 49);">
<path d="M62.4,231.5c-0.4,0.8-1.2,1.3-2.1,1.7c-0.8,0.4-1.8,0.6-2.7,0.8c-0.1,0-0.2,0.1-0.4,0.1 c-0.2,0-0.4,0.1-0.5,0.2c-0.1,0-0.1,0-0.2,0l-0.1,0c-0.1,0-0.1,0-0.2,0.1c0,0,0,0-0.1,0c-0.1,0-0.2,0.1-0.3,0.1c0,0-0.1,0-0.1,0 l-0.1,0c-0.2,0.1-0.3,0.1-0.5,0.2c0,0-0.1,0-0.1,0c-0.1,0.1-0.3,0.1-0.4,0.2l-0.1,0c-0.1,0-0.2,0.1-0.2,0.1c0,0-0.1,0-0.1,0 c-0.2,0.1-0.5,0.2-0.7,0.3l0,0c0,0,0,0,0,0c-0.1,0-0.1,0.1-0.2,0.1l0,0c0,0,0,0,0,0c-0.1,0-0.1,0.1-0.2,0.1l-0.1,0l-0.1,0.1 c-0.3,0.2-0.5,0.4-0.7,0.7l-0.1,0.1c-0.1,0.1-0.3,0.3-0.4,0.4c-0.1,0.1-0.3,0.3-0.4,0.4c-0.1,0.1-0.3,0.3-0.4,0.4l-0.1,0 c0,0-0.1,0.1-0.1,0.1c0,0,0,0,0,0c-0.1,0.1-0.2,0.1-0.2,0.2c-0.1,0-0.1,0.1-0.2,0.1l0,0c-0.1,0-0.1,0.1-0.2,0.1 c0,0-0.1,0-0.1,0.1c-0.1,0.1-0.2,0.1-0.3,0.2c-0.1,0-0.1,0.1-0.2,0.1l-0.1,0.1l-0.2,0.1l-0.1,0.1l-0.1,0l-0.1,0 c-0.1,0.1-0.2,0.1-0.3,0.2c0,0-0.1,0-0.1,0.1l0,0c-0.3,0.1-0.6,0.2-0.9,0.3l-0.1,0l-0.1,0c0,0,0,0-0.1,0c-0.1,0-0.1,0-0.2,0 c-0.1,0-0.1,0-0.2,0l-0.1,0l0,0c0,0-0.1,0-0.1,0c-0.1,0-0.1,0-0.2,0c-0.1,0-0.2,0-0.2,0c0,0,0,0-0.1,0c-0.2,0-0.4,0-0.6,0 c-0.1,0-0.2,0-0.3,0l-0.1,0c-0.2,0-0.4,0-0.6,0c-0.1,0-0.3,0-0.4,0c0,0-0.1,0-0.2,0c-0.1,0-0.1,0-0.2,0c-0.1,0-0.1,0-0.2,0 l-0.1,0c-0.3,0-0.5,0-0.8,0c0,0-0.1,0-0.1,0l-0.1,0c0,0-0.1,0-0.1,0c-0.4,0-0.7-0.1-1.1-0.1l-0.1,0c-0.1,0-0.2,0-0.3,0 c0,0-0.1,0-0.1,0l-0.1,0c-0.1,0-0.2,0-0.2,0c-0.3,0-0.6-0.1-1-0.2c-0.1,0-0.1,0-0.2,0l-0.1,0c0,0-0.1,0-0.1,0l-0.1,0 c0,0-0.1,0-0.1,0l-0.1,0c-0.1,0-0.2,0-0.2,0l-0.1,0c-0.1,0-0.2,0-0.3-0.1c-0.1,0-0.2,0-0.2-0.1l0,0c-0.5-0.1-1-0.2-1.4-0.3 l-0.2,0c-0.1,0-0.3-0.1-0.4-0.1l-0.2,0l-0.1,0c-0.2,0-0.4-0.1-0.5-0.1c-0.1,0-0.2-0.1-0.3-0.1c-0.3-0.1-0.6-0.2-0.9-0.2l-0.1,0 c-0.1,0-0.1,0-0.2,0l-0.1,0c-0.2-0.1-0.5-0.1-0.7-0.2l-0.1,0l-0.1,0l-0.3-0.1l-0.1,0l-0.1,0l-0.1,0l-0.1,0l-0.1,0l0,0l0,0l0,0 l0,0l0,0l0,0l0,0l-0.1,0l-0.1,0l0,0c-0.1-0.1-0.1-0.1-0.2-0.2l0,0c0,0-0.4,0.7-0.5,1.8c1,1.5,4.2,1.9,8.6,2.5 c4.4,0.6,7.1,0.5,8.9-0.3c1.8-0.8,5-4.5,7.3-4.7c2.3-0.2,5-1.4,6.1-2.1c0.6-0.3,0.4-2.8,0.4-2.8L62.4,231.5z"/>
<path d="M106.6,231.5c0.4,0.8,1.2,1.3,2.1,1.7c0.8,0.4,1.8,0.6,2.7,0.8c0.1,0,0.2,0.1,0.4,0.1c0.2,0,0.4,0.1,0.5,0.2 c0.1,0,0.1,0,0.2,0l0.1,0c0.1,0,0.1,0,0.2,0.1c0,0,0.1,0,0.1,0c0.1,0,0.2,0.1,0.3,0.1c0,0,0.1,0,0.1,0l0.1,0 c0.2,0.1,0.3,0.1,0.5,0.2c0,0,0.1,0,0.1,0c0.1,0.1,0.3,0.1,0.4,0.2l0.1,0c0.1,0,0.2,0.1,0.2,0.1c0,0,0.1,0,0.1,0 c0.2,0.1,0.5,0.2,0.7,0.3l0,0c0,0,0,0,0,0c0.1,0,0.1,0.1,0.2,0.1l0,0c0,0,0,0,0,0c0.1,0,0.1,0.1,0.2,0.1l0.1,0l0.1,0.1 c0.3,0.2,0.5,0.4,0.7,0.7l0.1,0.1c0.1,0.1,0.3,0.3,0.4,0.4c0.1,0.1,0.3,0.3,0.4,0.4c0.1,0.1,0.3,0.3,0.4,0.4l0.1,0 c0,0,0.1,0.1,0.1,0.1c0,0,0,0,0,0c0.1,0.1,0.2,0.1,0.2,0.2c0.1,0,0.1,0.1,0.2,0.1l0,0c0.1,0,0.1,0.1,0.2,0.1c0,0,0.1,0,0.1,0.1 c0.1,0.1,0.2,0.1,0.3,0.2c0.1,0,0.1,0.1,0.2,0.1l0.1,0.1l0.2,0.1l0.1,0.1l0.1,0l0.1,0c0.1,0.1,0.2,0.1,0.3,0.2c0,0,0.1,0,0.1,0.1 l0,0c0.3,0.1,0.6,0.2,0.9,0.3l0.1,0l0.1,0c0,0,0,0,0.1,0c0.1,0,0.1,0,0.2,0c0,0,0.1,0,0.1,0l0.1,0l0,0c0,0,0.1,0,0.1,0 c0.1,0,0.1,0,0.2,0c0.1,0,0.2,0,0.2,0c0,0,0,0,0.1,0c0.2,0,0.4,0,0.6,0c0.1,0,0.2,0,0.3,0l0.1,0c0.2,0,0.4,0,0.6,0 c0.1,0,0.3,0,0.4,0c0.1,0,0.1,0,0.2,0c0.1,0,0.1,0,0.2,0c0.1,0,0.1,0,0.2,0l0.1,0c0.3,0,0.5,0,0.8,0c0,0,0.1,0,0.1,0l0.1,0 c0,0,0.1,0,0.1,0c0.4,0,0.7-0.1,1.1-0.1l0.1,0c0.1,0,0.2,0,0.3,0c0,0,0.1,0,0.1,0l0.1,0c0.1,0,0.2,0,0.2,0c0.3,0,0.6-0.1,1-0.2 c0.1,0,0.1,0,0.2,0l0.1,0c0,0,0.1,0,0.1,0l0.1,0c0,0,0.1,0,0.1,0l0.1,0c0.1,0,0.2,0,0.2,0l0.1,0c0.1,0,0.2,0,0.3-0.1 c0.1,0,0.2,0,0.2-0.1l0,0c0.5-0.1,1-0.2,1.4-0.3l0.2,0c0.1,0,0.3-0.1,0.4-0.1l0.2,0l0.1,0c0.2,0,0.4-0.1,0.5-0.1 c0.1,0,0.2-0.1,0.3-0.1c0.3-0.1,0.6-0.2,0.9-0.2l0.1,0c0.1,0,0.1,0,0.2,0l0.1,0c0.2-0.1,0.5-0.1,0.7-0.2l0.1,0l0.1,0l0.3-0.1 l0.1,0l0.1,0l0.1,0l0.1,0l0.1,0l0,0l0,0l0,0l0,0l0,0l0,0l0,0l0.1,0l0.1,0l0,0c0.1-0.1,0.1-0.1,0.2-0.2l0,0c0,0,0.4,0.7,0.5,1.8 c-1,1.5-4.2,1.9-8.6,2.5c-4.4,0.6-7.1,0.5-8.9-0.3c-1.8-0.8-5-4.5-7.3-4.7c-2.3-0.2-5-1.4-6.1-2.1c-0.6-0.3-0.4-2.8-0.4-2.8 L106.6,231.5z"/>
</g>
<g id="Top_Basic-Boot" style="fill: rgb(255, 214, 0);">
<path d="M49.8,219.2c-0.6,3-1.6,5.6-3.5,8.1c-3.1,3.9-8.4,4.2-12.1,7.4c-0.9,0.8-0.9,2.1-1,3.3 c1.5,0.4,2.9,0.8,4.6,1.2c0.1-1.2-0.1-2.5,0.9-3.4c3.7-3.2,9.4-3.1,12.5-7c2-2.6,2-5.9,2.6-8.9c-0.1,0-0.2,0-0.3,0l-0.5-0.1l0,0 l-0.1,0l-0.2,0l-0.3,0l-0.1,0c-0.3,0-0.6-0.1-0.9-0.1l-0.5-0.1l-0.1,0l0,0l-0.1,0l-0.3-0.1l-0.3-0.1l0,0 C49.9,219.3,49.9,219.3,49.8,219.2z"/>
<path d="M119.3,219.2c0.6,3,1.6,5.6,3.5,8.1c3.1,3.9,8.4,4.2,12.1,7.4c0.9,0.8,0.9,2.1,1,3.3 c-1.5,0.4-2.9,0.8-4.6,1.2c-0.1-1.2,0.1-2.5-0.9-3.4c-3.7-3.2-9.4-3.1-12.5-7c-2-2.6-2-5.9-2.6-8.9c0.1,0,0.2,0,0.3,0l0.5-0.1 l0,0l0.1,0l0.2,0l0.3,0l0.1,0c0.3,0,0.6-0.1,0.9-0.1l0.5-0.1l0.1,0l0,0l0.1,0l0.3-0.1l0.3-0.1l0,0 C119.1,219.3,119.2,219.3,119.3,219.2z"/>
</g>
<g id="Side_Basic-Boot" style="fill: rgb(255, 214, 0);">
<path d="M60.3,218.6c-1.2,0.5-1.8,1-2.9,1.2c-0.1,0-0.1,0-0.2,0c0,0.4,0,0.8,0,1.1c0,1.9,0.2,9.9,0.6,9.9 c0.4,0,1.4-0.2,1.7-0.5c0.2-0.2,0.2-0.7,0.3-0.9c0.2-0.8,0.4-1.6,0.5-2.4C60.5,225.9,60.3,220.3,60.3,218.6z"/>
<path d="M108.7,218.6c1.2,0.5,1.8,1,2.9,1.2c0.1,0,0.1,0,0.2,0c0,0.4,0,0.8,0,1.1c0,1.9-0.2,9.9-0.6,9.9 c-0.4,0-1.4-0.2-1.7-0.5c-0.2-0.2-0.2-0.7-0.3-0.9c-0.2-0.8-0.4-1.6-0.5-2.4C108.6,225.9,108.8,220.3,108.7,218.6z"/>
</g>
</g>
</g>
<g id="Gloves">
<g id="Left-Glove">
<g id="Basic_Left_Glove" class="option" style="fill: rgb(84, 84, 84); display: inherit;">
<path d="M131.4,123c-0.5,0-0.9,0-1.3,0.1c-0.3,0.1-0.6,0.2-0.9,0.3c-0.8,0.5-0.6,1.7,0.1,2.2c0.9,0.5,2.2,0,2.6-1 C132.1,124.2,131.6,123.4,131.4,123"/>
<path d="M129.9,124c-0.5,0-0.9,0-1.3,0.1c-0.3,0.1-0.6,0.2-0.9,0.3c-0.8,0.5-0.6,1.7,0.1,2.2c0.9,0.5,2.2,0,2.6-1 C130.6,125.2,130.1,124.4,129.9,124"/>
<path d="M128.8,125.4c-0.4,0-1,0.1-1.4,0.3c-0.3,0.1-0.6,0.2-0.8,0.5c-0.8,0.7-0.4,1.8,0.4,2.1 c0.9,0.4,2.2-0.3,2.5-1.4C129.5,126.5,128.8,125.4,128.8,125.4z"/>
<path d="M126.3,109.6c0,0-1.3,2-1.6,3.5c-0.2,1-0.1,3.5-0.4,5.2c-0.3,1.7-0.6,2.6-0.6,2.6s-1.2,2.7-0.9,3.3 c0.2,0.6,1.2,1.2,1.8,0.8c0.7-0.4,1.6-2.3,2.2-3.6c0.6-1.3,1-3.2,1-3.2s0.8,0.3,1.2,0.7c1.3,1.2,0.8,4.7,0.8,4.7 s-0.6,1.3-1.4,2.7c-1.1,1.9-2.9,3.6-1.7,5.1c1.1,1.4,3.5-2.3,3.5-2.3l2.4-3.5c0,0,2.8-5.1,2.9-6.1c0.1-0.8,0-3.3,0-3.3l-0.9-9.9 l-4.4,0.4l-3.6,1.3L126.3,109.6"/>
</g>
</g>
<g id="Right-Glove">
<g id="Basic_Right_Glove" class="option" style="fill: rgb(84, 84, 84); display: inherit;">
<path d="M37.6,123c0.5,0,0.9,0,1.3,0.1c0.3,0.1,0.6,0.2,0.9,0.3c0.8,0.5,0.6,1.7-0.1,2.2c-0.9,0.5-2.2,0-2.6-1 C36.9,124.2,37.4,123.4,37.6,123"/>
<path d="M39.2,124c0.5,0,0.9,0,1.3,0.1c0.3,0.1,0.6,0.2,0.9,0.3c0.8,0.5,0.6,1.7-0.1,2.2c-0.9,0.5-2.2,0-2.6-1 C38.4,125.2,38.9,124.4,39.2,124"/>
<path d="M40.3,125.4c0.5,0,1,0.1,1.4,0.3c0.3,0.1,0.6,0.2,0.8,0.5c0.8,0.7,0.4,1.8-0.4,2.1c-0.9,0.4-2.2-0.3-2.5-1.4 C39.5,126.5,40.3,125.4,40.3,125.4z"/>
<path d="M42.7,109.6c0,0,1.3,2,1.6,3.5c0.2,1,0.1,3.5,0.4,5.2c0.3,1.7,0.6,2.6,0.6,2.6s1.1,2.7,0.9,3.3 c-0.2,0.6-1.2,1.2-1.8,0.8c-0.7-0.4-1.6-2.3-2.2-3.6c-0.6-1.3-1-3.2-1-3.2s-0.8,0.3-1.2,0.7c-1.3,1.2-0.8,4.7-0.8,4.7 s0.6,1.3,1.4,2.7c1.1,1.9,2.9,3.6,1.7,5.1c-1.1,1.4-3.5-2.3-3.5-2.3l-2.4-3.5c0,0-2.8-5.1-2.9-6.1c-0.1-0.8,0-3.3,0-3.3l0.9-9.9 l4.4,0.4l3.6,1.3L42.7,109.6"/>
</g>
</g>
</g>
<g id="Biceps">
<g id="Left-Biceps">
<g id="Basic_Biceps_Left" class="option" style="display: inherit;">
<path id="Main_Basic_Biceps_Left" d="M131.5,57.7c-1.2-2.8-6.3-15-6.3-15s-8.4,3.5-10.5,4.3 c-0.6,0.2-0.9,0.9-0.6,1.5c1,2.4,3.4,8.3,4.9,11.9c0.3,0.8,1,1.5,1.8,1.8c0.8,0.3,1.8,0.3,2.6,0c2.5-1,5.8-2.4,7.5-3.1 C131.5,59,131.8,58.3,131.5,57.7z" style="fill: rgb(255, 214, 0);"/>
<path id="Strap_Basic_Biceps_Left" d="M116.4,54l-4.6,1.9l1.1,3.9l5-2.1L116.4,54" style="fill: rgb(164, 106, 57);"/>
<path id="Trauma-Plate_Basic_Biceps_Left" class="toggle" style="fill: rgb(163, 163, 163);" d="M131.5,57.2l-5.3-13l-10.3,4.2l4.7,11.4 c0.2,0.4,0.5,0.7,0.9,0.9c0.4,0.2,0.9,0.2,1.3,0L131.5,57.2"/>
</g>
</g>
<g id="Right-Biceps">
<g id="Basic_Biceps_Right" class="option" style="display: inherit;">
<path id="Main_Basic_Biceps_Right" d="M37.5,57.7c1.2-2.8,6.3-15,6.3-15s8.4,3.5,10.5,4.3c0.6,0.2,0.9,0.9,0.6,1.5 c-1,2.4-3.4,8.3-4.9,11.9c-0.3,0.8-1,1.5-1.8,1.8c-0.8,0.3-1.8,0.3-2.6,0c-2.5-1-5.8-2.4-7.5-3.1C37.6,59,37.3,58.3,37.5,57.7z" style="fill: rgb(255, 214, 0);"/>
<path id="Strap_Basic_Biceps_Right" d="M52.7,54l4.6,1.9l-1.1,3.9l-5-2.1L52.7,54" style="fill: rgb(164, 106, 57);"/>
<path id="Trauma-Plate_Basic_Biceps_Right" class="toggle" style="fill: rgb(163, 163, 163);" d="M37.6,57.2l5.3-13l10.3,4.2l-4.7,11.4 c-0.2,0.4-0.5,0.7-0.9,0.9c-0.4,0.2-0.9,0.2-1.3,0L37.6,57.2"/>
</g>
</g>
</g>
<path id="Vest" d="M90.9,86.3c-4.2,0.9-8.6,0.9-12.8,0c-4.2-0.9-12.5-5.2-12.5-5.2s-7.2-22.8-8.5-29.4 c-1-5.3-1.4-14.1-1.4-14.1L43.4,46l-2.6-1.1c0,0,7.4-16.4,12.3-21.1c4.4-4.3,17-7.3,17-7.3s5.5,6.1,14.6,6.1 c8.6,0,14.6-6.1,14.6-6.1s12.5,3.1,17,7.3c4.9,4.7,12.3,21.1,12.3,21.1l-2.6,1.1l-12.4-8.3c0,0-0.4,8.8-1.4,14.1 c-1.3,6.6-8.5,29.4-8.5,29.4S95.1,85.4,90.9,86.3z" style="fill: rgb(89, 89, 89);"/>
<g class="swappable" id="Chest">
<g id="Chest_Galaxy" style="visibility: visible;">
<g id="Abdomen_Galaxy">
<path id="Abdomen-Plate_Galaxy" d="M77.9,74.5l-2,1.4l-10-1.4l-0.7-5.5l4.7-0.1l2.9-4.7l1.3-4.3l10.4-9.5l0,0l0,0 l10.4,9.5l1.3,4.3l2.9,4.7l4.7,0.1l-0.7,5.5l-10,1.4l-2-1.4H77.9z" style="fill: rgb(255, 214, 0);"/>
<path id="Trauma-Plate_Abdomen_Galaxy" class="toggle" style="fill: rgb(163, 163, 163);" d="M84.5,52.5l-9,8.2l-1.2,4.1l-3.4,5.6L67,70.5l0.3,2.5l8.2,1.2 l1.9-1.4h14.2l1.9,1.4l8.2-1.2l0.3-2.5l-3.8-0.1l-3.4-5.6l-1.2-4.1L84.5,52.5L84.5,52.5L84.5,52.5z"/>
</g>
<g id="Full-Chest_Galaxy">
<path id="Chest-Plate_Galaxy" d="M80.3,36.5l0,9.7l3,3.1L72.7,59.4L71.3,64l-2.3,3.7h-3.9L63.3,65l-2.4-13.5 l-3.5-5.5l4.5-14.5l5.2-0.7l0.7-3.2l5.5-0.7l1.7,2.9h19l1.7-2.9l5.5,0.7l0.7,3.2l5.2,0.7l4.5,14.5l-3.5,5.5L105.7,65l-1.9,2.8 h-3.9L97.7,64l-1.4-4.7L85.6,49.3l3-3.1l0-9.7l-4.2-3.2L80.3,36.5z" style="fill: rgb(255, 214, 0);"/>
<path id="Trauma-Plating_Left-Chest_Galaxy" class="toggle" style="fill: rgb(163, 163, 163);" d="M94.9,31.4H84.6l5.7,4.4l0,11.1l-2.3,2.4l9.8,9.3 l1.4,4.9l1.7,2.8h2.1l1.2-1.8l2.4-13.5l3.3-5.2l-4-12.8l-5.3-0.7L100,29l-3.4-0.4L94.9,31.4z"/>
<path id="Trauma-Plating_Right-Chest_Galaxy" class="toggle" style="fill: rgb(163, 163, 163);" d="M72.4,28.6L69,29l-0.7,3.2L63,32.9l-4,12.8l3.3,5.2 l2.4,13.5l1.2,1.8h2.1l1.7-2.8l1.4-4.9l9.8-9.3l-2.3-2.4l0-11.1l5.7-4.4H74.1L72.4,28.6z"/>
<g id="Accents_Chest-Plate_Galaxy" class="toggle" style="fill: rgb(255, 214, 0);">
<rect x="95" y="34.4" width="8.8" height="1.2"/>
<rect x="95" y="36.5" width="8.8" height="1.2"/>
</g>
</g>
<g id="Iron-Heart_Galaxy">
<path id="Heart_Galaxy" d="M81.9,45.9v-8.7l2.6-2l2.6,2v8.7l-2.6,2.6L81.9,45.9z" style="fill: rgb(77, 127, 173);"/>
<rect id="Center_Heart_Galaxy" class="option" x="83.6" y="38.6" width="1.8" height="6" style="fill: rgb(255, 214, 0); display: inherit;"/>
</g>
<g id="Neck-Armor_Galaxy">
<g id="Neck-Plate_Galaxy" style="fill: rgb(255, 214, 0);">
<path d="M82.4,28.8l-7,0.1l-1.7-2.8L67,26.9l-0.7,2.9L62,30.3l-3.2-10.9l10.9-3.3c0,0,1.4,2.5,2.5,3.3 c1.1,0.9,2.5,1.9,3.9,2.5c1.5,0.6,3.3,1.1,5,1.4c0.2,0,0.4,0.1,0.6,0.1L82.4,28.8z"/>
<path d="M86.6,28.8l7,0.1l1.7-2.8l6.7,0.8l0.7,2.9l4.3,0.5l3.2-10.9l-10.9-3.3c0,0-1.4,2.5-2.5,3.3 c-1.1,0.9-2.5,1.9-3.9,2.5c-1.5,0.6-3.3,1.1-5,1.4c-0.2,0-0.4,0.1-0.6,0.1L86.6,28.8z"/>
</g>
<g id="Trauma-Plates_Neck_Galaxy" class="toggle" style="fill: rgb(77, 127, 173);">
<path d="M99.9,18.1c-0.6,0.9-1.5,2.1-2.2,2.7c-1.2,1-2.8,2.1-4.2,2.8c-1.4,0.6-3.1,1.1-4.7,1.4l-0.3,2.4l4.3,0.1 l1.8-2.9l8.8,1.1l0.7,2.9l1.8,0.2l2.3-8L99.9,18.1z"/>
<path d="M69.1,18.1l-8.3,2.5l2.3,8l1.8-0.2l0.7-2.9l8.8-1.1l1.8,2.9l4.3-0.1l-0.3-2.4c-1.7-0.3-3.3-0.7-4.7-1.4 c-1.5-0.6-3.1-1.8-4.2-2.8C70.6,20.2,69.7,18.9,69.1,18.1z"/>
</g>
</g>
</g>
</g>
<g id="Chest-Attachments">
<g id="Bandoleer_Accessories_Chest" class="option" style="display: inherit;">
<g id="Strap_Bandoleer_Accessories_Chest" style="fill: rgb(164, 106, 57);">
<path d="M112.6,19.9l-6.7-3.3l-37,67l6.7,3.7L112.6,19.9"/>
<path d="M110.8,18.7l-2.5-1.2l-8.4,15.3l2.4,1.3L110.8,18.7"/>
<path d="M98.8,40.7L96,39.2l-13,23.5l2.8,1.5L98.8,40.7"/>
<path d="M99.1,41.6l-4-2.2l-1.3,2.4l4,2.2L99.1,41.6"/>
<path d="M97.5,44.5l-4-2.2l-1.3,2.4l4,2.2L97.5,44.5"/>
<path d="M95.9,47.3l-4-2.2l-1.3,2.4l4,2.2L95.9,47.3"/>
<path d="M94.4,50.2l-4-2.2l-1.3,2.4l4,2.2L94.4,50.2"/>
<path d="M92.8,53l-4-2.2l-1.3,2.4l4,2.2L92.8,53"/>
<path d="M89.6,58.7l-4-2.2l-1.3,2.4l4,2.2L89.6,58.7"/>
<path d="M91.2,55.9l-4-2.2L86,56.1l4,2.2L91.2,55.9"/>
<path d="M88.1,61.6l-4-2.2l-1.3,2.4l4,2.2L88.1,61.6"/>
</g>
<g id="Ammo_Bandoleer_Accessories_Chest" style="fill: rgb(163, 163, 163);">
<g>
<g>
<path d="M98.9,41.9l1.6,0.9c0.2,0.1,0.2,0.3,0.1,0.5c-0.2,0.3-0.5,0.9-0.7,1.2c-0.1,0.2-0.3,0.2-0.5,0.1l-1.6-0.9 L98.9,41.9z"/>
<path d="M100.1,42.5l-0.1-0.1l-1,1.8l0.1,0.1L100.1,42.5z"/>
<path d="M99.9,42.4l-0.1-0.1l-1,1.8l0.1,0.1L99.9,42.4z"/>
</g>
<g>
<path d="M95,39.7l-1,1.8l-1.6-0.9c-0.2-0.1-0.2-0.3-0.1-0.5c0.2-0.3,0.5-0.9,0.7-1.2c0.1-0.2,0.3-0.2,0.5-0.1 L95,39.7z"/>
<path d="M93.8,39l-0.1-0.1l-1,1.8l0.1,0.1L93.8,39z"/>
</g>
</g>
<g>
<g>
<path d="M95.8,47.6l1.6,0.9c0.2,0.1,0.2,0.3,0.1,0.5c-0.2,0.3-0.5,0.9-0.7,1.2c-0.1,0.2-0.3,0.2-0.5,0.1l-1.6-0.9 L95.8,47.6z"/>
<path d="M97,48.3l-0.1-0.1l-1,1.8l0.1,0.1L97,48.3z"/>
<path d="M96.7,48.1L96.6,48l-1,1.8l0.1,0.1L96.7,48.1z"/>
</g>
<g>
<path d="M91.8,45.4l-1,1.8l-1.6-0.9C89,46.3,89,46,89.1,45.9c0.2-0.3,0.5-0.9,0.7-1.2c0.1-0.2,0.3-0.2,0.5-0.1 L91.8,45.4z"/>
<path d="M90.6,44.7l-0.1-0.1l-1,1.8l0.1,0.1L90.6,44.7z"/>
</g>
</g>
<g>
<g>
<path d="M94.2,50.4l1.6,0.9c0.2,0.1,0.2,0.3,0.1,0.5c-0.2,0.3-0.5,0.9-0.7,1.2c-0.1,0.2-0.3,0.2-0.5,0.1l-1.6-0.9 L94.2,50.4z"/>
<path d="M95.4,51.1L95.3,51l-1,1.8l0.1,0.1L95.4,51.1z"/>
<path d="M95.1,50.9L95,50.9l-1,1.8l0.1,0.1L95.1,50.9z"/>
</g>
<g>
<path d="M90.3,48.3l-1,1.8l-1.6-0.9c-0.2-0.1-0.2-0.3-0.1-0.5c0.2-0.3,0.5-0.9,0.7-1.2c0.1-0.2,0.3-0.2,0.5-0.1 L90.3,48.3z"/>
<path d="M89,47.6l-0.1-0.1l-1,1.8l0.1,0.1L89,47.6z"/>
</g>
</g>
<g>
<g>
<path d="M92.6,53.3l1.6,0.9c0.2,0.1,0.2,0.3,0.1,0.5c-0.2,0.3-0.5,0.9-0.7,1.2c-0.1,0.2-0.3,0.2-0.5,0.1l-1.6-0.9 L92.6,53.3z"/>
<path d="M93.8,54l-0.1-0.1l-1,1.8l0.1,0.1L93.8,54z"/>
<path d="M93.6,53.8l-0.1-0.1l-1,1.8l0.1,0.1L93.6,53.8z"/>
</g>
<g>
<path d="M88.7,51.1l-1,1.8l-1.6-0.9c-0.2-0.1-0.2-0.3-0.1-0.5c0.2-0.3,0.5-0.9,0.7-1.2c0.1-0.2,0.3-0.2,0.5-0.1 L88.7,51.1z"/>
<path d="M87.5,50.5l-0.1-0.1l-1,1.8l0.1,0.1L87.5,50.5z"/>
</g>
</g>
</g>
<g id="Buckles_Bandoleer_Accessories_Chest" style="fill: rgb(203, 185, 92);">
<g>
<path d="M103.4,32.5l-2.9-1.6l-1.6,3l2.9,1.6L103.4,32.5z"/>
<path d="M102.7,33l-2.2-1.2l-1.6,3L101,36L102.7,33z"/>
</g>
<path d="M103.4,29l-1.9-1l1.6-3l3.8,2.1l-1.6,3L103.4,29l0.4-0.7l1.1,0.6l0.9-1.6l-2.1-1.2l-0.9,1.6l1,0.6"/>
</g>
</g>
</g>
<g id="Collar">
<g id="None_Collar" class="option" style="display: inherit;">
</g>
</g>
<svg version="1.1" id="Helmets" xmlns="http://www.w3.org/2000/svg" y="-54px" height="85px" viewBox="0 0 80 80" class="swappable">
<g id="Helmet_Ironside" style="visibility: visible;">
<g id="Left-Earcap_Ironside" class="toggle">
<g id="Ear-Cap_Left_Ironside" style="fill: rgb(255, 214, 0);">
<path d="M57.7,33.2H59l0.6,1.6v3.6h-1.3v1.3h-0.7L57.7,33.2z"/>
<path d="M59.2,38.5v3.7l-0.7-2.4h-0.2v-1.3H59.2z"/>
</g>
</g>
<g id="Right-Earcap_Ironside" class="toggle">
<g id="Main-Antenna_Right_Ironside" class="option" style="display: inherit;">
<path id="Shaft_Main-Antenna_Right_Ironside" d="M19.6,29.8l0.3-24.4c0,0,0-0.6,0.4-0.6c0.4,0,0.4,0.6,0.4,0.6 L21,29.8H19.6z" style="fill: rgb(77, 127, 173);"/>
<g id="Base_Main-Antenna_Right_Ironside" style="fill: rgb(255, 214, 0);">
<path d="M21.9,33.6h-3.5c0,0-0.7,8.2,1.7,8.2S21.9,33.6,21.9,33.6z"/>
<path d="M18.7,33.2l0.6-3.4h1.6l0.6,3.4H18.7z"/>
<rect x="18.9" y="33.2" width="2.5" height="0.4"/>
<rect x="20" y="30.4" width="0.4" height="2.4"/>
<path d="M21.1,30.3l-0.4,0.1l0.4,2.4l0.4-0.1L21.1,30.3z"/>
<path d="M19.3,30.3l0.4,0.1l-0.4,2.4l-0.4-0.1L19.3,30.3z"/>
</g>
</g>
<g id="Ear-Cap_Right_Ironside" style="fill: rgb(255, 214, 0);">
<path d="M22.3,33.2H21l-0.6,1.6v3.6h1.3v1.3h0.7L22.3,33.2z"/>
<path d="M20.8,38.5v3.7l0.7-2.4h0.2v-1.3H20.8z"/>
</g>
</g>
<g id="Helmet_Pieces_Ironside">
<g id="Face-2_Ironside" style="fill: rgb(255, 214, 0);">
<path d="M22.5,40.8l-2.5,9l0.7-0.4l2.2-8L22.5,40.8z"/>
<path d="M20,49.8l13.3,7.7l-0.2-0.8l-12.5-7.3L20,49.8z"/>
<path d="M22.3,40.6l0.1,0.2l-2.5,9l13.3,7.7l1.5,7.7l-3.6-1.7L29.2,60l-11.4-7.1l3.7-13.1h0.8V40.6z"/>
<path d="M29.3,60.1L17.9,53l0.8,1.4L29.8,61L29.3,60.1z"/>
<path d="M21.1,55.7v1l9.3,5.5l-0.7-1.3L21.1,55.7z"/>
<path d="M57.5,40.8l2.5,9l-0.7-0.4l-2.2-8L57.5,40.8z"/>
<path d="M60,49.8l-13.3,7.7l0.2-0.8l12.5-7.3L60,49.8z"/>
<path d="M57.7,40.6l-0.1,0.2l2.5,9l-13.3,7.7l-1.5,7.7l3.6-1.7l1.9-3.5l11.4-7.1l-3.7-13.1h-0.8V40.6z"/>
<path d="M50.7,60.1L62.1,53l-0.8,1.4L50.2,61L50.7,60.1z"/>
<path d="M58.9,55.7v1l-9.3,5.5l0.7-1.3L58.9,55.7z"/>
</g>
<g id="Face-1_Ironside" style="fill: rgb(163, 163, 163);">
<path d="M20.7,49.5l12.5,7.3l-2-10.1L24,43.3L20.7,49.5z"/>
<path d="M59.3,49.5l-12.5,7.3l2-10.1l7.1-3.4L59.3,49.5z"/>
</g>
<g id="Cheeks_Ironside" style="fill: rgb(77, 127, 173);">
<path d="M22.3,40.6l1.7,2.7l7.1,3.4l-0.2-1.2L22.3,40.6z"/>
<path d="M22.9,41.5l-2.2,8l3.3-6.2L22.9,41.5z"/>
<path d="M57.7,40.6L56,43.3l-7.1,3.4l0.2-1.2L57.7,40.6z"/>
<path d="M57.1,41.5l2.2,8L56,43.3L57.1,41.5z"/>
</g>
<path id="Visor_Ironside" d="M36.7,65.3l1.7-2.2l-1.2-23.3l-14.3-2.3v-0.9h34.2v0.9l-14.3,2.3l-1.2,23.3l1.7,2.2 H36.7z" style="fill: rgb(0, 0, 0);"/>
<g id="Eyes-2_Ironside" style="fill: rgb(77, 127, 173);">
<path d="M31.8,46.9h1.5L35,55v7.7L31.8,46.9z"/>
<path d="M48.2,46.9h-1.5L45.1,55v7.7L48.2,46.9z"/>
<g>
<g>
<path d="M33.4,47.4L32,47.7l0.1,0.5l1.4-0.3L33.4,47.4z"/>
<path d="M33.6,48.7L32.2,49l0.1,0.5l1.4-0.3L33.6,48.7z"/>
<path d="M33.9,50l-1.4,0.3l0.1,0.5l1.4-0.3L33.9,50z"/>
<path d="M34.1,51.3l-1.4,0.3l0.1,0.5l1.4-0.3L34.1,51.3z"/>
</g>
<g>
<path d="M46.6,47.4l1.4,0.3l-0.1,0.5L46.5,48L46.6,47.4z"/>
<path d="M46.4,48.7l1.4,0.3l-0.1,0.5l-1.4-0.3L46.4,48.7z"/>
<path d="M46.1,50l1.4,0.3l-0.1,0.5L46,50.5L46.1,50z"/>
<path d="M45.9,51.3l1.4,0.3l-0.1,0.5l-1.4-0.3L45.9,51.3z"/>
</g>
</g>
<g>
<path d="M35.8,33.7l1.5-0.5v1L35.8,33.7z"/>
<path d="M44.3,33.7l-1.5-0.5v1L44.3,33.7z"/>
</g>
</g>
<g id="Eyes-1_Ironside" style="fill: rgb(255, 214, 0);">
<path d="M22.9,36.6v0.9l-0.6,0.4v-1.6L22.9,36.6z"/>
<path d="M22.9,37.5l14.3,2.3l-0.5,0.4l-14.4-2.3L22.9,37.5z"/>
<path d="M37.2,39.8l1.2,23.3h-0.5l-1.1-22.9L37.2,39.8z"/>
<path d="M22.3,37.9v2.7l8.6,4.9l3.9,19.8l0.8,0.7l2.3-2.9l-1.1-22.9L22.3,37.9z M31.8,46.9h1.5L35,55v7.7L31.8,46.9 z"/>
<path d="M30.9,45.5l3.9,19.8l0.8,0.7l-4.1-21L30.9,45.5z"/>
<path d="M37.9,63.1L35.6,66h0.6l2.3-2.9H37.9z"/>
<path d="M31.4,45l-9.1-5.2v0.8l8.6,4.9L31.4,45z"/>
<path d="M57.7,37.9v2.7l-8.6,4.9l-3.9,19.8L44.4,66l-2.3-2.9l1.1-22.9L57.7,37.9z M48.2,46.9h-1.5L45.1,55v7.7 L48.2,46.9z"/>
<path d="M57.1,36.6v0.9l0.6,0.4v-1.6L57.1,36.6z"/>
<path d="M57.1,37.5l-14.3,2.3l0.5,0.4l14.4-2.3L57.1,37.5z"/>
<path d="M42.8,39.8l-1.2,23.3h0.5l1.1-22.9L42.8,39.8z"/>
<path d="M49.1,45.5l-3.9,19.8L44.4,66l4.1-21L49.1,45.5z"/>
<path d="M42.1,63.1l2.3,2.9h-0.6l-2.3-2.9H42.1z"/>
<path d="M48.6,45l9.1-5.2v0.8l-8.6,4.9L48.6,45z"/>
<path d="M45,31.5l2.2,2.4h10.6v1.9l-17.7-0.1l-17.7,0.1v-1.9H33l2.2-2.4H45z M35.8,33.7l1.5-0.5v1L35.8,33.7z M44.3,33.7l-1.5-0.5v1L44.3,33.7z"/>
<path d="M22.3,36.2v-0.4l17.6-0.1h0.2l17.6,0.1v0.4H22.3z"/>
<path d="M22.9,36.6l-0.6-0.4h35.3L57,36.6H22.9z"/>
</g>
<g id="Dome-2_Ironside" style="fill: rgb(255, 214, 0);">
<path d="M33,33.9H22.3c0-6.5,3.7-12.1,9.1-15.1v1.6l0.7-0.4v-1.5c2.4-1.1,5-1.8,7.8-1.8c2.8,0,5.5,0.6,7.8,1.8V20 l0.7,0.4v-1.6c5.4,2.9,9.1,8.6,9.1,15.1H47.2L45,31.5h-9.9L33,33.9z"/>
<path d="M32.2,19.1V20l-0.7,0.4v-0.9l0.1-0.1L32.2,19.1z"/>
<path d="M48.4,19.4l0.1,0.1v0.9L47.8,20v-0.9L48.4,19.4z"/>
</g>
<path id="Dome-1_Ironside" d="M23.7,33.9c0-8.7,7.3-15.8,16.3-15.8s16.3,7.1,16.3,15.8h-9.1L45,31.5h-9.9L33,33.9 H23.7z" style="fill: rgb(77, 127, 173);"/>
</g>
</g>
</svg>
<g id="Shoulders">
<g id="Left-Shoulder">
<g id="Classic_Shoulder_Left" class="option" style="display: inherit;">
<path id="Main_Shoulder_Classic_Left" d="M113.9,18.6l-2.5,11.5l2,6.6l13.6,6.9l2.3-3.5L113.9,18.6z" style="fill: rgb(255, 214, 0);"/>
<path id="Trauma-Plates_Shoulder_Classic_Left" class="toggle" style="fill: rgb(77, 127, 173);" d="M113.1,30l1.7,5.5l11.6,5.9l2-3l-13.1-18.3L113.1,30z "/>
</g>
</g>
<g id="Right-Shoulder">
<g id="Classic_Shoulder_Right" class="option" style="display: inherit;">
<path id="Main_Shoulder_Classic_Right" d="M55.2,18.6l2.5,11.5l-2,6.6l-13.6,6.9l-2.3-3.5L55.2,18.6z" style="fill: rgb(255, 214, 0);"/>
<path id="Trauma-Plates_Shoulder_Classic_Right" class="toggle" style="fill: rgb(77, 127, 173);" d="M56,30l-1.7,5.5l-11.6,5.9l-2-3l13.1-18.3L56,30z"/>
</g>
</g>
</g>
<g id="Gauntlets">
<g id="Left-Gauntlets">
<g id="Basic_Gauntlet_Left" class="option" style="display: inherit;">
<path id="Top-2_Basic_Gauntlet_Left" d="M138.2,110.9l1.6-2.1l-2.4-18.9l-0.8,2.2l1.2,8.6l-0.9,2L138.2,110.9z" style="fill: rgb(255, 214, 0);"/>
<path id="Top-1_Basic_Gauntlet_Left" d="M137.4,89.9l-0.8,2.2l1.2,8.6l-0.9,2l1.4,8.1l-1,1.4l0,5.2l-1.6,0.3 l-1.5-7.9l-1.4-0.7l-4.9-23.3l9.1-0.2L137.4,89.9z" style="fill: rgb(77, 127, 173);"/>
<g id="Accent-Bottom_Basic_Gauntlet_Left" style="fill: rgb(255, 214, 0);">
<path d="M123.8,92.4l-2,0.5l0.7,3l2-0.5L123.8,92.4z"/>
<path d="M125.1,97.7l-2,0.5l0.7,3l2-0.5L125.1,97.7z"/>
<path d="M126.4,103.1l-2,0.5l0.7,3l2-0.5L126.4,103.1z"/>
</g>
<path id="Bottom_Basic_Gauntlet_Left" d="M121.8,92.8l-0.6-2.3l6.6-4.3l4.8,22.9l-6.9,0.7l-2-8.6l2-0.5l-0.7-3 l-2,0.5l-0.5-2.3l2-0.5l-0.7-3L121.8,92.8z M126.4,103.1l-2,0.5l0.7,3l2.1-0.5L126.4,103.1z" style="fill: rgb(77, 127, 173);"/>
<g id="Whistling-Birds_Attachment_Basic_Gauntlet_Left" class="option" style="display: inherit;">
<path id="Head_Whistling-Birds_Attachment_Basic_Gauntlet_Left" d="M142,101l-2.4,5.5l-0.7-5.1L142,101z" style="fill: rgb(255, 214, 0);"/>
<g id="Birds_Whistling-Birds_Attachment_Basic_Gauntlet_Left" style="fill: rgb(77, 127, 173);">
<g>
<path d="M139.4,101.7c0.1,0,0.3,0.2,0.3,0.6s0,0.6-0.1,0.6c-0.1,0-0.3-0.2-0.3-0.6S139.3,101.8,139.4,101.7z"/>
<path d="M139.6,103.4c0.1,0,0.3,0.2,0.3,0.6c0,0.3,0,0.6-0.1,0.6c-0.1,0-0.3-0.2-0.3-0.6 C139.5,103.7,139.5,103.4,139.6,103.4z"/>
<path d="M140.3,101.6c0.1,0,0.3,0.2,0.3,0.6c0,0.3,0,0.6-0.1,0.6c-0.1,0-0.3-0.2-0.3-0.6S140.2,101.7,140.3,101.6 z"/>
<path d="M139.8,106c0-0.1-0.1-0.2-0.1-0.3c0-0.3,0-0.6,0.1-0.6c0.1,0,0.2,0.1,0.2,0.3L139.8,106z M140.5,104.4 c-0.1-0.1-0.1-0.3-0.2-0.5c0-0.3,0-0.6,0.1-0.6c0.1,0,0.2,0.2,0.3,0.5L140.5,104.4z M141.2,102.7c-0.1,0-0.2-0.2-0.3-0.6 c0-0.3,0-0.6,0.1-0.6c0.1,0,0.3,0.2,0.3,0.6c0,0.1,0,0.1,0,0.2L141.2,102.7z"/>
</g>
</g>
<g id="Base_Whistling-Birds_Attachment_Basic_Gauntlet_Left" style="fill: rgb(163, 163, 163);">
<path d="M139.8,85.6l-2.1,0.3l0.1,0.9l2.1-0.3L139.8,85.6z"/>
<path d="M140.1,86.5l-2.2,0.3l1.9,14.6l2.2-0.3L140.1,86.5z"/>
<path d="M140.4,86.6l-0.3,0l1.6,12.6l0.3,0L140.4,86.6z"/>
<path d="M139.7,86.5l-0.3,0l1.7,13.7l0.3,0L139.7,86.5z"/>
</g>
<g id="Accent_Whistling-Birds_Attachment_Basic_Gauntlet_Left" style="fill: rgb(163, 163, 163);">
<path d="M137.7,85.6l-0.8,0.1l1.9,14.8l0.8-0.1L137.7,85.6z"/>
<path d="M142,100.1l-3.2,0.4l0.1,0.9l3.2-0.4L142,100.1z"/>
<path d="M139.1,85.7l-1.4,0.2L138,88l1.4-0.2L139.1,85.7z"/>
<path d="M139,87.8l-1,0.1l0.6,5.1l0.8-2L139,87.8z"/>
</g>
</g>
</g>
</g>
<g id="Right-Gauntlets">
<g id="Basic_Gauntlet_Right" class="option" style="display: inherit;">
<path id="Top-2_Basic_Gauntlet_Right" d="M30.7,110.9l-1.6-2.1l2.4-18.9l0.8,2.2l-1.2,8.6l0.9,2L30.7,110.9z" style="fill: rgb(255, 214, 0);"/>
<path id="Top-1_Basic_Gauntlet_Right" d="M31.6,89.9l0.8,2.2l-1.2,8.6l0.9,2l-1.4,8.1l1,1.4l0,5.2l1.6,0.3l1.5-7.9 l1.4-0.7l4.9-23.3l-9.1-0.2L31.6,89.9z" style="fill: rgb(77, 127, 173);"/>
<g id="Accent-Bottom_Basic_Gauntlet_Right" style="fill: rgb(255, 214, 0);">
<path d="M45.2,92.3l2,0.5l-0.7,3l-2-0.5L45.2,92.3z"/>
<path d="M43.9,97.7l2,0.5l-0.7,3l-2-0.5L43.9,97.7z"/>
<path d="M42.6,103.1l2,0.5l-0.7,3l-2-0.5L42.6,103.1z"/>
</g>
<path id="Bottom_Basic_Gauntlet_Right" d="M47.2,92.8l0.5-2.3l-6.6-4.3l-4.8,22.9l6.9,0.7l2-8.6l-2-0.5l0.7-3 l2,0.5l0.5-2.3l-2-0.5l0.7-3L47.2,92.8z M42.6,103.1l2,0.5l-0.7,3l-2.1-0.5L42.6,103.1z" style="fill: rgb(77, 127, 173);"/>
<g id="Flamethrower_Attachment_Basic_Gauntlet_Right" class="option" style="display: inherit;">
<g id="Tubes_Flamethrower_Attachment_Basic_Gauntlet_Right" style="fill: rgb(163, 163, 163);">
<path d="M30.5,86.6l0.8,0.1l-3.1,25.5l-0.8-0.1L30.5,86.6z"/>
<path d="M28.6,86.4l0.8,0.1l-2.3,18.3l-0.8-0.1L28.6,86.4z"/>
<path d="M30.2,88.2l1.2,0.1l-0.8,6.1l-1.2-0.1L30.2,88.2z"/>
<path d="M28.2,87.9l1.2,0.1l-0.8,6.1L27.5,94L28.2,87.9z"/>
</g>
<g id="Main_Flamethrower_Attachment_Basic_Gauntlet_Right" style="fill: rgb(255, 214, 0);">
<path d="M28.2,86.3l3.4,0.4l-0.2,1.6L28,87.9L28.2,86.3z"/>
<path d="M27.2,94l3.6,0.4l-0.1,1l-3.6-0.4L27.2,94z"/>
<path d="M27.2,95l3.3,0.4l-0.1,0.5l-3.3-0.4L27.2,95z"/>
<path d="M30.5,93.8l0.6,0.1l-0.4,3l-0.6-0.1L30.5,93.8z"/>
</g>
<g id="Accent_Flamethrower_Attachment_Basic_Gauntlet_Right" style="fill: rgb(255, 214, 0);">
<path d="M26.3,104.6l0.9,0.1l0,1.3l-1.2-0.1L26.3,104.6z"/>
<path d="M26.8,98.1l1.6,0.2l-0.2,1.9l-1.6-0.2L26.8,98.1z"/>
<path d="M26.8,100.1l1.2,0.1l-0.2,1.9l-1.2-0.1L26.8,100.1z"/>
<path d="M27.6,108.8l1.2,0.1l-0.3,2.7l-1.2-0.1L27.6,108.8z"/>
<path d="M28.7,100.3l1.2,0.1l-0.4,3.6l-1.2-0.1L28.7,100.3z"/>
<path d="M27.2,110.1l1.6,0.2l-0.1,0.5l-1.6-0.2L27.2,110.1z"/>
</g>
<path id="Base_Flamethrower_Attachment_Basic_Gauntlet_Right" d="M31.1,93.9l1-8l-1,0.3l-1.7,13.6l0.9,0.6 l0.4-3.4l-0.6-0.1l0.4-3L31.1,93.9z" style="fill: rgb(77, 127, 173);"/>
</g>
</g>
</g>
</g>
<g id="Shins">
<g id="Left-Shin">
<g id="Basic_Shin_Left" class="option" style="display: inherit;">
<path id="Shin_Basic-Shin_Left" d="M121.9,182.7l-4.6-6l-10.3,0.5l-4.5,8.5l4.3,30c4.3,2.3,10.9,1.9,14.7-1 L121.9,182.7" style="fill: rgb(255, 214, 0);"/>
<path id="Trauma-Plating_Basic-Shin_Left" class="toggle" style="fill: rgb(163, 163, 163);" d="M119.7,213.8l0.4-30.5l-3.7-4.8l-8.4,0.4l-3.8,7.1 l4.1,28.6C111.8,216,116.6,215.8,119.7,213.8"/>
<g id="Ridge_Basic-Shin_Left" class="toggle" style="display: none; fill: rgb(255, 255, 255);"/>
</g>
</g>
<g id="Right-Shin">
<g id="Basic_Shin_Right" class="option" style="display: inherit;">
<path id="Shin_Basic-Shin_Right" d="M47.2,182.7l4.6-6l10.3,0.5l4.5,8.5l-4.3,30c-4.3,2.3-10.9,1.9-14.7-1 L47.2,182.7" style="fill: rgb(255, 214, 0);"/>
<path id="Trauma-Plating_Basic-Shin_Right" class="toggle" style="fill: rgb(163, 163, 163);" d="M49.3,213.8l-0.4-30.5l3.7-4.8l8.4,0.4l3.8,7.1l-4.1,28.6 C57.2,216,52.4,215.8,49.3,213.8"/>
<g id="Ridge_Basic-Shin_Right" class="toggle" style="display: none; fill: rgb(255, 255, 255);"/>
</g>
</g>
</g>
<g id="Foot">
<g id="Left-Ankle">
<g id="Heavy_Ankle_Left" class="option" style="display: inherit;">
<path id="Plate_Heavy-Ankle_Left" d="M106.6,220.2l0.3,3.1l6.3,7.9l6.1-2.8l6.7-1.7l-5-9c-2.5-0.4-5.5,0-8.9,1 l-1.9,1.7L106.6,220.2" style="fill: rgb(77, 127, 173);"/>
<path id="Trim_Heavy-Ankle_Left" d="M112,218.7l0.7,0.9l-2.2,1.9l-2.5-0.1l0.1,1.2l5.4,6.7l5.5-2.6l6.6-1.6 l0.7,1.4l-6.9,1.8l-6.1,2.8l-6.3-7.9l-0.3-3.1l3.5,0.2L112,218.7" style="fill: rgb(255, 214, 0);"/>
</g>
</g>
<g id="Left-Toe">
<g id="Armored_Toe_Left" class="option" style="display: inherit;">
<g id="Plate_Armored_Toe_Left" style="fill: rgb(77, 127, 173);">
<path d="M114.5,233.2l9.7,5.4l7.3,0.5l5.9-1.5c1.2-1,1.7-3.3,0.7-5.6l-8.3-3.9l-6.5,1.6L114.5,233.2"/>
<path d="M122.6,229.9c0,0,7.6,2.2,8.5,3.5c1,1.5,0.4,5.6,0.4,5.6"/>
</g>
<g id="Trim_Armored_Toe_Left" style="fill: rgb(255, 214, 0);">
<path d="M128.7,227.4l-7.8,1.9l-6.6,4l1.4,0.8l7-4.1l7.8-1.8L128.7,227.4"/>
<path d="M120.9,229.2l1.8,0.7"/>
</g>
</g>
</g>
<g id="Right-Ankle">
<g id="Heavy_Ankle_Right" class="option" style="display: inherit;">
<path id="Plate_Heavy-Ankle_Right" d="M62.5,220.2l-0.3,3.1l-6.3,7.9l-6.1-2.8l-6.7-1.7l5-9c2.5-0.4,5.5,0,8.9,1 l1.9,1.7L62.5,220.2" style="fill: rgb(77, 127, 173);"/>
<path id="Trim_Heavy-Ankle_Right" d="M57,218.7l-0.7,0.9l2.2,1.9l2.5-0.1l-0.1,1.2l-5.4,6.7l-5.5-2.6l-6.6-1.6 l-0.7,1.4l6.9,1.8l6.1,2.8l6.3-7.9l0.3-3.1l-3.5,0.2L57,218.7" style="fill: rgb(255, 214, 0);"/>
</g>
</g>
<g id="Right-Toe">
<g id="Armored_Toe_Right" class="option" style="display: inherit;">
<g id="Plate_Armored_Toe_Right" style="fill: rgb(77, 127, 173);">
<path d="M54.5,233.2l-9.7,5.4l-7.3,0.5l-5.9-1.5c-1.2-1-1.7-3.3-0.7-5.6l8.3-3.9l6.5,1.6L54.5,233.2"/>
<path d="M46.4,229.9c0,0-7.6,2.2-8.5,3.5c-1,1.5-0.4,5.6-0.4,5.6"/>
</g>
<g id="Trim_Armored_Toe_Right" style="fill: rgb(255, 214, 0);">
<path d="M40.3,227.4l7.8,1.9l6.6,4l-1.4,0.8l-7-4.1l-7.8-1.8L40.3,227.4"/>
<path d="M48.1,229.2l-1.8,0.7"/>
</g>
</g>
</g>
</g>
<g id="Knees">
<g id="Left-Knee">
<g id="Galaxy_Knee_Left" class="option" style="display: inherit;">
<g id="Missiles_Galaxy-Knee_Left" class="toggle" style="">
<path id="Base_Missiles_Galaxy-Knee_Left" d="M118.3,162.1l-3.2,9.4l2.7-0.5c0.4-0.1,0.8-0.4,0.9-0.8 c0.5-1.3,1.4-4,2-5.4c0.2-0.5,0-1.2-0.5-1.5L118.3,162.1z" style="fill: rgb(255, 214, 0);"/>
<g id="Missile-2_Missiles_Galaxy-Knee_Left" style="fill: rgb(255, 0, 0);">
<path d="M117.8,167.9c-0.6-0.1-1.1,0.2-1.3,0.8c-0.1,0.6,0.2,1.1,0.8,1.3c0.6,0.1,1.1-0.2,1.3-0.8 C118.7,168.6,118.3,168.1,117.8,167.9z"/>
<path d="M117.7,168.3c-0.4-0.1-0.8,0.1-0.9,0.5c-0.1,0.4,0.1,0.8,0.5,0.9c0.4,0.1,0.8-0.1,0.9-0.5 C118.3,168.7,118.1,168.4,117.7,168.3z"/>
</g>
<g id="Missile-1_Missiles_Galaxy-Knee_Left" style="fill: rgb(255, 0, 0);">
<path d="M119.3,163.6c-0.6-0.1-1.1,0.2-1.3,0.8c-0.1,0.6,0.2,1.1,0.8,1.3c0.6,0.1,1.1-0.2,1.3-0.8 C120.2,164.3,119.8,163.8,119.3,163.6z"/>
<path d="M119.2,164c-0.4-0.1-0.8,0.1-0.9,0.5c-0.1,0.4,0.1,0.8,0.5,0.9c0.4,0.1,0.8-0.1,0.9-0.5 S119.6,164.1,119.2,164z"/>
</g>
</g>
<g id="Strap_Galaxy-Knee_Left" style="fill: rgb(164, 106, 57);">
<path d="M97.7,163.2l2.8-0.4l0.4,2.6l-2.8,0.4L97.7,163.2z"/>
<path d="M96.3,163.7l1.5-0.2l0.3,2l-1.5,0.2L96.3,163.7z"/>
</g>
<path id="Knee_Galaxy-Knee_Left" d="M114.4,173.4l4-12l-4.3-4.9l-12.5,1.9l-2.6,6l7.4,10.3L114.4,173.4z" style="fill: rgb(77, 127, 173);"/>
<g id="Trim_Galaxy-Knee_Left" style="fill: rgb(255, 214, 0);">
<path d="M105.6,157.8l4.8-0.7l0.5,3.2l-4.8,0.7L105.6,157.8z"/>
<path d="M99.1,164.3c4.5,0.3,9,10.1,9,10.1l-1.6,0.2L99.1,164.3z"/>
<path d="M118.5,161.4c-4.2,1.6-5.6,12.3-5.6,12.3l1.6-0.2L118.5,161.4z"/>
</g>
</g>
</g>
<g id="Right-Knee">
<g id="Galaxy_Knee_Right" class="option" style="display: inherit;">
<g id="Missiles_Galaxy-Knee_Right" class="toggle" style="">
<path id="Base_Missiles_Galaxy-Knee_Right" d="M50.7,162.1l3.2,9.4l-2.7-0.5c-0.4-0.1-0.8-0.4-0.9-0.8 c-0.5-1.3-1.4-4-2-5.4c-0.2-0.5,0-1.2,0.5-1.5L50.7,162.1z" style="fill: rgb(255, 214, 0);"/>
<g id="Missile-2_Missiles_Galaxy-Knee_Right" style="fill: rgb(255, 0, 0);">
<path d="M51.2,167.9c0.6-0.1,1.1,0.2,1.3,0.8c0.1,0.6-0.2,1.1-0.8,1.3c-0.6,0.1-1.1-0.2-1.3-0.8 C50.3,168.6,50.7,168.1,51.2,167.9z"/>
<path d="M51.3,168.3c0.4-0.1,0.8,0.1,0.9,0.5c0.1,0.4-0.1,0.8-0.5,0.9c-0.4,0.1-0.8-0.1-0.9-0.5 C50.7,168.7,50.9,168.4,51.3,168.3z"/>
</g>
<g id="Missile-1_Missiles_Galaxy-Knee_Right" style="fill: rgb(255, 0, 0);">
<path d="M49.7,163.6c0.6-0.1,1.1,0.2,1.3,0.8c0.1,0.6-0.2,1.1-0.8,1.3c-0.6,0.1-1.1-0.2-1.3-0.8 C48.8,164.3,49.2,163.8,49.7,163.6z"/>
<path d="M49.8,164c0.4-0.1,0.8,0.1,0.9,0.5c0.1,0.4-0.1,0.8-0.5,0.9c-0.4,0.1-0.8-0.1-0.9-0.5 C49.2,164.4,49.4,164.1,49.8,164z"/>
</g>
</g>
<g id="Strap_Galaxy-Knee_Right" style="fill: rgb(164, 106, 57);">
<path d="M71.3,163.2l-2.8-0.4l-0.4,2.6l2.8,0.4L71.3,163.2z"/>
<path d="M72.7,163.7l-1.5-0.2l-0.3,2l1.5,0.2L72.7,163.7z"/>
</g>
<path id="Knee_Galaxy-Knee_Right" d="M54.6,173.4l-4-12l4.3-4.9l12.5,1.9l2.6,6l-7.4,10.3L54.6,173.4z" style="fill: rgb(77, 127, 173);"/>
<g id="Trim_Galaxy-Knee_Right" style="fill: rgb(255, 214, 0);">
<path d="M63.4,157.8l-4.8-0.7l-0.5,3.2l4.8,0.7L63.4,157.8z"/>
<path d="M69.9,164.3c-4.5,0.3-9,10.1-9,10.1l1.6,0.2L69.9,164.3z"/>
<path d="M50.5,161.4c4.2,1.6,5.6,12.3,5.6,12.3l-1.6-0.2L50.5,161.4z"/>
</g>
</g>
</g>
</g>
<g id="Thighs">
<g id="Left-Thigh">
<g id="Basic_Thigh_Left" class="option" style="display: inherit;">
<path id="Thigh_Basic-Thigh_Left" d="M118.2,116.8c0,0-5.1-6.5-7.7-7.6c-2.5-1-5.8-0.6-7.9,1.1 c-3.2,2.6-10.6,8.2-11.5,14.4c-0.9,6.9,4.1,22.3,5.8,27.3c0.6,1.7,2.8,2.5,4.5,2.5c3.1,0.1,11.7-0.1,13.7-4.8 C118.1,143.5,118.2,116.8,118.2,116.8" style="fill: rgb(255, 214, 0);"/>
<path id="Trauma-Plate_Basic-Thigh_Left" class="toggle" style="fill: rgb(163, 163, 163);" d="M116.5,117.4c-0.8-0.9-2.6-3.2-4.3-4.8 c-0.8-0.8-1.6-1.5-2.3-1.8c-1.9-0.8-4.5-0.5-6.1,0.9c-1.9,1.5-5.2,4-7.7,7.1c-1.5,1.9-2.8,4-3.1,6.2c-0.9,6.8,4.1,21.7,5.8,26.5 c0.1,0.4,0.5,0.7,1,0.9c0.6,0.3,1.3,0.5,2,0.5c1.8,0.1,5.3,0,8.3-1c1.7-0.5,3.2-1.3,3.8-2.8c0.8-1.8,1.3-5.3,1.7-9.4 C116.3,131,116.5,120.1,116.5,117.4"/>
<g id="Ridge_Basic-Thigh_Left" class="toggle" style="display: none; fill: rgb(255, 255, 255);"/>
</g>
</g>
<g id="Right-Thigh">
<g id="Basic_Thigh_Right" class="option" style="display: inherit;">
<path id="Thigh_Basic-Thigh_Right" d="M50.8,116.8c0,0,5.1-6.5,7.7-7.6c2.5-1,5.8-0.6,7.9,1.1 c3.2,2.6,10.6,8.2,11.5,14.4c0.9,6.9-4.1,22.3-5.8,27.3c-0.6,1.7-2.8,2.5-4.5,2.5c-3.1,0.1-11.7-0.1-13.7-4.8 C50.9,143.5,50.8,116.8,50.8,116.8" style="fill: rgb(255, 214, 0);"/>
<path id="Trauma-Plate_Basic-Thigh_Right" class="toggle" style="fill: rgb(163, 163, 163);" d="M52.5,117.4c0.8-0.9,2.6-3.2,4.3-4.8 c0.8-0.8,1.6-1.5,2.3-1.8c1.9-0.8,4.5-0.5,6.1,0.9c1.9,1.5,5.2,4,7.7,7.1c1.5,1.9,2.8,4,3.1,6.2c0.9,6.8-4.1,21.7-5.8,26.5 c-0.1,0.4-0.5,0.7-1,0.9c-0.6,0.3-1.3,0.5-2,0.5c-1.8,0.1-5.3,0-8.3-1c-1.7-0.5-3.2-1.3-3.8-2.8c-0.8-1.8-1.3-5.3-1.7-9.4 C52.7,131,52.5,120.1,52.5,117.4"/>
<g id="Ridge_Basic-Thigh_Right" class="toggle" style="display: none; fill: rgb(255, 255, 255);"/>
</g>
</g>
</g>
<g id="Groin">
<g id="Basic_Groin" class="option" style="display: inherit;">
<path id="Groin-Plate_Basic" d="M78.2,107.5L67.7,86.2h33.8l-10.6,21.2c0,0-4.2,5.1-6.3,5.1 C82.5,112.5,78.2,107.5,78.2,107.5z" style="fill: rgb(255, 214, 0);"/>
<path id="Trauma-Plating_Groin" class="toggle" style="fill: rgb(77, 127, 173);" d="M89.8,106.7l9.5-19.2H69.8l9.5,19.2c0.4,0.5,2.1,2.4,3.7,3.6 c0.6,0.4,1.1,0.8,1.5,0.8c0.4,0,0.9-0.4,1.5-0.8C87.7,109.2,89.4,107.2,89.8,106.7"/>
</g>
</g>
<g id="Waist">
<g id="Accessories_Waist">
<g id="Kama" class="toggle" style="">
<g id="Clean_Kama" class="option" style="display: inherit;">
<g id="Trim_Kama-Clean" style="fill: rgb(255, 214, 0);">
<path d="M97.7,87.6l7.6,57.8l30.7,13.2l-27.7-66.3l-0.9-8.1L97.7,87.6z"/>
<path d="M71.3,87.6l-7.6,57.8l-30.7,13.2l27.7-66.3l0.9-8.1L71.3,87.6z"/>
</g>
<g id="Main_Kama-Clean" style="fill: rgb(77, 127, 173);">
<path d="M99.6,87.4l7.3,55.9l27.7,12.3l-26.5-63.2l-0.9-7.9L99.6,87.4z"/>
<path d="M69.5,87.4l-7.3,55.9l-27.7,12.3l26.5-63.2l0.9-8.1L69.5,87.4z"/>
</g>
</g>
</g>
<g id="Loin-Cloth" class="toggle" style="">
<g id="Clean_Loin-Cloth" class="option" style="display: inherit;">
<path id="Trim_Loin-Cloth-Clean" d="M94.9,86.1H74.2v45.5l10.4,12.8l10.4-12.8V86.1z" style="fill: rgb(255, 214, 0);"/>
<path id="Main_Loin-Cloth-Clean" d="M93.6,90.9H75.5v39.7l9,11.1l9-11.1V90.9z" style="fill: rgb(77, 127, 173);"/>
</g>
</g>
<g id="Left-Holster" class="toggle" style="">
<g id="Belt-Holster_Left" class="option" style="display: inherit;">
<g id="Weapon_Belt-Holster-Left">
<g id="Main_Weapon_Belt-Holster-Left" style="fill: rgb(98, 98, 98);">
<path d="M108.8,93l-0.2-3.7l0.6,0L109,87l-0.6,0l-0.1-1.2c0-0.4,0.5-0.7,1.1-0.8c1.5-0.1,4-0.3,5.4-0.4 c0.6,0,1.2,0.2,1.2,0.6l0.1,1.2l-0.6,0l0.2,2.3l0.6,0l0.2,3.7l-1.5,0.1l0.7,10.1l-4.8,0.3l-0.7-10.1L108.8,93z"/>
<path d="M115.8,92L115,92l0.8,12.2l-4.8,0.3l-0.8-12.2l-0.8,0.1l-0.2-2.8l6.5-0.4L115.8,92z"/>
<path d="M114.1,85.5l-3.8,0.3l0.2,3.8l3.8-0.3L114.1,85.5z"/>
<path d="M111.4,93.4l-0.6,0l0.6,9.6l0.6,0L111.4,93.4z"/>
<path d="M112.8,91.1l-0.6,0l0.6,9.6l0.6,0L112.8,91.1z"/>
<path d="M114.6,93.2l-0.6,0l0.6,9.6l0.6,0L114.6,93.2z"/>
</g>
<g id="Accent_Weapon_Belt-Holster-Left" style="fill: rgb(66, 66, 66);">
<path d="M111.1,89.9l0,0.4l2.7-0.2l0-0.4L111.1,89.9z"/>
<path d="M111.1,90.3l0,0.4l2.7-0.2l0-0.4L111.1,90.3z"/>
<path d="M111.1,89.5l0,0.4l2.7-0.2l0-0.4L111.1,89.5z"/>
<path d="M110.7,84.8l0,0.4l2.7-0.2l0-0.4L110.7,84.8z"/>
<path d="M110.9,85.7l-0.6,0l0.2,3.8l0.6,0L110.9,85.7z"/>
<path d="M114.1,85.5l-0.6,0l0.2,3.8l0.6,0L114.1,85.5z"/>
<path d="M114,93.2l-1,0.1l0.6,9.6l1-0.1L114,93.2z"/>
<path d="M112.3,93.3l-1,0.1l0.6,9.6l1-0.1L112.3,93.3z"/>
</g>
</g>
<path id="Holster_Belt-Holster-Left" d="M110.4,107l-2.5-15.2l8.4,10.7l0.8,21c-1.5,1.9-3.1,2.1-4.9,0.4 L110.4,107z" style="fill: rgb(77, 127, 173);"/>
</g>
</g>
<g id="Right-Holster" class="toggle" style="">
<g id="Belt-Holster_Right" class="option" style="display: inherit;">
<g id="Weapon_Belt-Holster-Right">
<g id="Main_Weapon_Belt-Holster-Right" style="fill: rgb(98, 98, 98);">
<path d="M60.2,93l0.2-3.7l-0.6,0L60,87l0.6,0l0.1-1.2c0-0.4-0.5-0.7-1.1-0.8c-1.5-0.1-4-0.3-5.4-0.4 c-0.6,0-1.2,0.2-1.2,0.6l-0.1,1.2l0.6,0l-0.2,2.3l-0.6,0l-0.2,3.7l1.5,0.1l-0.7,10.1l4.8,0.3l0.7-10.1L60.2,93z"/>
<path d="M53.1,92L54,92l-0.8,12.2l4.8,0.3l0.8-12.2l0.9,0.1l0.2-2.8l-6.5-0.4L53.1,92z"/>
<path d="M54.9,85.5l3.8,0.3l-0.2,3.8l-3.8-0.3L54.9,85.5z"/>
<path d="M57.6,93.4l0.6,0l-0.6,9.6l-0.6,0L57.6,93.4z"/>
<path d="M56.1,91.1l0.6,0l-0.6,9.6l-0.6,0L56.1,91.1z"/>
<path d="M54.4,93.2l0.6,0l-0.6,9.6l-0.6,0L54.4,93.2z"/>
</g>
<g id="Accent_Weapon_Belt-Holster-Right" style="fill: rgb(66, 66, 66);">
<path d="M57.9,89.9l0,0.4l-2.7-0.2l0-0.4L57.9,89.9z"/>
<path d="M57.9,90.3l0,0.4l-2.7-0.2l0-0.4L57.9,90.3z"/>
<path d="M57.9,89.5l0,0.4l-2.7-0.2l0-0.4L57.9,89.5z"/>
<path d="M58.2,84.8l0,0.4L55.5,85l0-0.4L58.2,84.8z"/>
<path d="M58.1,85.7l0.6,0l-0.2,3.8l-0.6,0L58.1,85.7z"/>
<path d="M54.9,85.5l0.6,0l-0.2,3.8l-0.6,0L54.9,85.5z"/>
<path d="M55,93.2l1,0.1l-0.6,9.6l-1-0.1L55,93.2z"/>
<path d="M56.6,93.3l1,0.1l-0.6,9.6l-1-0.1L56.6,93.3z"/>
</g>
</g>
<path id="Holster_Belt-Holster-Right" d="M58.6,107l2.5-15.2l-8.4,10.7l-0.8,21c1.5,1.9,3.1,2.1,4.9,0.4L58.6,107 z" style="fill: rgb(77, 127, 173);"/>
</g>
</g>
</g>
<g id="Under-Belt">
<g id="Girth-Belt" class="option" style="fill: rgb(80, 80, 80); display: inherit;">
<path d="M84.5,80.1c-7.2,0-21.5-1.8-21.5-1.8l0.5-1.5c0,0,14,1.2,21,1.8c7-0.6,21-1.8,21-1.8l0.5,1.5 C106,78.3,91.7,80.1,84.5,80.1z"/>
<path d="M84.5,81.6c-7.3,0-22-1.8-22-1.8l0.4-1.5c0,0,17.9,1.5,21.5,1.8c3.6-0.3,21.5-1.8,21.5-1.8l0.4,1.5 C106.5,79.8,91.9,81.6,84.5,81.6z"/>
<path d="M84.5,83.2c-7.4,0-22.3-1.8-22.3-1.8l0.3-1.5c0,0,18.3,1.5,22,1.8c3.7-0.3,22-1.8,22-1.8l0.3,1.5 C106.8,81.4,92,83.2,84.5,83.2z"/>
<path d="M84.5,84.7C77,84.7,62,82.9,62,82.9l0.3-1.5c0,0,18.6,1.5,22.3,1.8c3.7-0.3,22.3-1.8,22.3-1.8l0.3,1.5 C107.1,82.9,92.1,84.7,84.5,84.7z"/>
<path d="M84.5,86.3c-7.6,0-22.8-1.8-22.8-1.8l0.3-1.5c0,0,18.8,1.5,22.6,1.8c3.8-0.3,22.6-1.8,22.6-1.8l0.3,1.5 C107.4,84.4,92.1,86.3,84.5,86.3z"/>
<path d="M84.5,87.8c-7.7,0-23.1-1.8-23.1-1.8l0.2-1.5c0,0,19,1.5,22.8,1.8c3.8-0.3,22.8-1.8,22.8-1.8l0.2,1.5 C107.6,86,92.2,87.8,84.5,87.8z"/>
<path d="M84.5,89.4c-7.8,0-23.3-1.8-23.3-1.8l0.2-1.5c0,0,19.2,1.5,23.1,1.8c3.8-0.3,23.1-1.8,23.1-1.8l0.2,1.5 C107.8,87.5,92.3,89.4,84.5,89.4z"/>
<path d="M84.5,90.9c-7.8,0-23.5-1.8-23.5-1.8l0.2-1.5c0,0,19.4,1.5,23.3,1.8c3.9-0.3,23.3-1.8,23.3-1.8l0.2,1.5 C108.1,89.1,92.4,90.9,84.5,90.9z"/>
<path d="M84.5,92.5c-7.9,0-23.8-1.8-23.8-1.8l0.3-1.5c0,0,19.6,1.5,23.5,1.8c3.9-0.3,23.5-1.8,23.5-1.8l0.3,1.5 C108.3,90.6,92.5,92.5,84.5,92.5z"/>
<path d="M84.5,94c-8,0-24.1-1.8-24.1-1.8l0.3-1.5c0,0,19.8,1.5,23.8,1.8c4-0.3,23.8-1.8,23.8-1.8l0.3,1.5 C108.6,92.2,92.6,94,84.5,94z"/>
</g>
</g>
<g id="Belt">
<g id="Pouch-Belt-6" class="option" style="display: inherit;">
<path id="Main_Pouch-Belt-6" d="M108.2,87.6c-5.3,0.5-17.5,2.2-23.6,2.2c-6.2,0-18.4-1.8-23.6-2.2l0.8-6.2 c4.3,0.4,16.8,2.2,22.8,2.2c5.8,0,18.1-1.8,22.7-2.2L108.2,87.6z" style="fill: rgb(164, 106, 57);"/>
<rect id="Buckle_Pouch-Belt-6" x="80.2" y="82.9" width="8.8" height="7.2" style="fill: rgb(203, 185, 92);"/>
<g id="Pouches_Pouch-Belt-6" style="fill: rgb(164, 106, 57);">
<g>
<g>
<g>
<path d="M75.3,81.4c-1.4-0.1-2.8,0.1-4.1,0.6l0,0l6.3,0.4l1.7-0.7C79.3,81.7,77.1,81.5,75.3,81.4z"/>
<path d="M79.5,81.9c0-0.1,0-0.1-0.1-0.2c-0.1,0-0.1-0.1-0.2,0c-0.6,0.2-1.7,0.7-1.7,0.7l-0.8,9.8 c0.7-0.4,1.4-0.6,2.1-0.7c0.1,0,0.2-0.1,0.2-0.2C79.1,88.1,79.2,85,79.5,81.9z"/>
<path d="M77.6,82.4L71.2,82c0,1.5-0.2,3-0.3,4.4c-0.1,1.7-0.1,3.4-0.3,5.2c0,0.1,0,0.1,0.1,0.2 c0,0,0.1,0.1,0.2,0.1c2,0,3.9,0.1,5.9,0.3c0.1,0,0.1,0,0.2,0c0,0,0.1-0.1,0.1-0.1c0.1-0.9,0.3-4.4,0.3-4.4L77.6,82.4z"/>
<path d="M77.6,82.4L71.2,82c0,0-0.1,0.6-0.2,1.3c-0.1,0.9,0.2,1.8,0.7,2.5c0.6,0.7,1.4,1.1,2.3,1.2c0,0,0,0,0,0 c0.9,0.1,1.8-0.3,2.4-0.9c0.7-0.6,1-1.5,1-2.4C77.6,83,77.6,82.4,77.6,82.4z"/>
<path d="M74.2,85.8c0.2,0,0.4,0.2,0.4,0.4s-0.2,0.4-0.4,0.4s-0.4-0.2-0.4-0.4S74,85.8,74.2,85.8z"/>
</g>
</g>
<g>
<g>
<path d="M66.4,80.2c-1.3-0.1-2.6,0.1-3.7,0.7c0,0,0,0,0,0l5.8,0.3l1.6-0.7C70,80.5,68,80.3,66.4,80.2z"/>
<path d="M70.2,80.7c0-0.1,0-0.1-0.1-0.2c-0.1,0-0.1,0-0.2,0c-0.5,0.2-1.5,0.7-1.5,0.7L67.6,91 c0.6-0.4,1.3-0.6,1.9-0.7c0.1,0,0.2-0.1,0.2-0.2C69.8,86.9,69.9,83.8,70.2,80.7z"/>
<path d="M68.4,81.2l-5.8-0.3c0,1.5-0.2,3-0.3,4.4c-0.1,1.7-0.1,3.4-0.3,5.2c0,0.1,0,0.1,0.1,0.2 c0,0,0.1,0.1,0.1,0.1c1.8,0,3.6,0.1,5.3,0.3c0.1,0,0.1,0,0.2,0c0,0,0.1-0.1,0.1-0.1c0.1-0.9,0.3-4.4,0.3-4.4L68.4,81.2z"/>
<path d="M68.4,81.2l-5.8-0.3c0,0-0.1,0.7-0.2,1.6c-0.1,0.8,0.2,1.6,0.7,2.3c0.5,0.6,1.3,1,2.1,1.1c0,0,0,0,0,0 c0.8,0,1.6-0.2,2.2-0.8c0.6-0.6,0.9-1.3,0.9-2.2C68.4,81.9,68.4,81.2,68.4,81.2z"/>
<path d="M65.3,84.6c0.2,0,0.4,0.2,0.3,0.4s-0.2,0.4-0.4,0.4c-0.2,0-0.4-0.2-0.3-0.4S65.1,84.6,65.3,84.6z"/>
</g>
</g>
<g>
<path d="M59,80.8l0.4-0.7l2.2,0.1l0.3,0.8L59,80.8z"/>
<path d="M61.9,81.1c0-0.1,0-0.1,0-0.2c0,0-0.1-0.1-0.1-0.1c-0.7,0-2.7-0.1-2.7-0.1l-0.4,8.8 c0.1,0.3,1.7,0.4,2.6,0.4c0.1,0,0.2-0.1,0.2-0.2C61.5,86.8,61.6,84,61.9,81.1z"/>
</g>
</g>
<g>
<g>
<g>
<path d="M93.9,81.4c1.4-0.1,2.8,0.1,4.1,0.6l0,0l-6.3,0.4l-1.7-0.7C89.9,81.7,92.1,81.5,93.9,81.4z"/>
<path d="M89.7,81.9c0-0.1,0-0.1,0.1-0.2c0.1,0,0.1-0.1,0.2,0c0.6,0.2,1.7,0.7,1.7,0.7l0.8,9.8 c-0.7-0.4-1.4-0.6-2.1-0.7c-0.1,0-0.2-0.1-0.2-0.2C90.1,88.1,90,85,89.7,81.9z"/>
<path d="M91.6,82.4l6.3-0.4c0,1.5,0.2,3,0.3,4.4c0.1,1.7,0.1,3.4,0.3,5.2c0,0.1,0,0.1-0.1,0.2 c0,0-0.1,0.1-0.1,0.1c-2,0-3.9,0.1-5.9,0.3c-0.1,0-0.1,0-0.2,0c0,0-0.1-0.1-0.1-0.1c-0.1-0.9-0.3-4.4-0.3-4.4L91.6,82.4z"/>
<path d="M91.6,82.4l6.3-0.4c0,0,0.1,0.6,0.2,1.3c0.1,0.9-0.2,1.8-0.7,2.5c-0.6,0.7-1.4,1.1-2.3,1.2c0,0,0,0,0,0 c-0.9,0.1-1.8-0.3-2.4-0.9c-0.7-0.6-1-1.5-1-2.4C91.6,83,91.6,82.4,91.6,82.4z"/>
<path d="M95,85.8c-0.2,0-0.4,0.2-0.4,0.4s0.2,0.4,0.4,0.4s0.4-0.2,0.4-0.4S95.2,85.8,95,85.8z"/>
</g>
</g>
<g>
<g>
<path d="M102.8,80.2c1.3-0.1,2.6,0.1,3.7,0.7l0,0l-5.8,0.3l-1.6-0.7C99.2,80.5,101.2,80.3,102.8,80.2z"/>
<path d="M99,80.7c0-0.1,0-0.1,0.1-0.2c0.1,0,0.1,0,0.2,0c0.5,0.2,1.5,0.7,1.5,0.7l0.8,9.8 c-0.6-0.4-1.3-0.6-1.9-0.7c-0.1,0-0.2-0.1-0.2-0.2C99.4,86.9,99.3,83.8,99,80.7z"/>
<path d="M100.7,81.2l5.8-0.3c0,1.5,0.2,3,0.3,4.4c0.1,1.7,0.1,3.4,0.3,5.2c0,0.1,0,0.1-0.1,0.2 c0,0-0.1,0.1-0.2,0.1c-1.8,0-3.6,0.1-5.3,0.3c-0.1,0-0.1,0-0.2,0c0,0-0.1-0.1-0.1-0.1c-0.1-0.9-0.3-4.4-0.3-4.4L100.7,81.2z"/>
<path d="M100.7,81.2l5.8-0.3c0,0,0.1,0.7,0.2,1.6c0.1,0.8-0.2,1.6-0.7,2.3c-0.5,0.6-1.3,1-2.1,1.1c0,0,0,0,0,0 c-0.8,0-1.6-0.2-2.2-0.8c-0.6-0.6-0.9-1.3-0.9-2.2C100.7,81.9,100.7,81.2,100.7,81.2z"/>
<path d="M103.8,84.6c-0.2,0-0.4,0.2-0.3,0.4c0,0.2,0.2,0.4,0.4,0.4c0.2,0,0.4-0.2,0.3-0.4S104,84.6,103.8,84.6z"/>
</g>
</g>
<g>
<path d="M110.1,80.8l-0.4-0.7l-2.2,0.1l-0.3,0.8L110.1,80.8z"/>
<path d="M107.2,81.1c0-0.1,0-0.1,0-0.2c0,0,0.1-0.1,0.1-0.1c0.7,0,2.7-0.1,2.7-0.1l0.4,8.8 c-0.1,0.3-1.7,0.4-2.6,0.4c-0.1,0-0.2-0.1-0.2-0.2C107.7,86.8,107.6,84,107.2,81.1z"/>
</g>
</g>
</g>
</g>
</g>
</g>
<g id="Extras_Front">
<g id="Front">
<g id="None_Front" class="option" style="display: inherit;">
</g>
</g>
</g>
</svg></svg>