<?xml version='1.0' encoding='UTF-8'?>
<svg version="1.1" id="Female-Body" xmlns="http://www.w3.org/2000/svg" xmlns:serif="http://www.serif.com/" viewBox="0 -55 170 300" style="fill-rule: evenodd; stroke-width: 0.2px; stroke-linejoin: round;" width="170" height="300">
<style>
mask {
mask-type: alpha;
}
.decal {
stroke: none;
}
</style>
<defs id="Masks" stroke="none">
<mask id="HelmetsMask"> <use href="#Helmets"/> </mask>
<mask id="CollarMask"> <use href="#Collar"/> </mask>
<mask id="ShouldersMask"> <use href="#Shoulders"/> </mask>
<mask id="ChestMask"> <use href="#Chest"/> </mask>
<mask id="BicepsMask"> <use href="#Biceps"/> </mask>
<mask id="GauntletsMask"> <use href="#Gauntlets"/> </mask>
<mask id="WaistMask"> <use href="#Waist"/> </mask>
<mask id="GroinMask"> <use href="#Groin"/> </mask>
<mask id="ThighsMask"> <use href="#Thighs"/> </mask>
<mask id="KneesMask"> <use href="#Knees"/> </mask>
<mask id="ShinsMask"> <use href="#Shins"/> </mask>
<mask id="FootMask"> <use href="#Foot"/> </mask>
</defs>
<defs id="Decals"/><metadata><rdf:rdf xmlns:rdf="http://www.w3.org/1999/02/22-rdf-syntax-ns#" xmlns:rdfs="http://www.w3.org/2000/01/rdf-schema#" xmlns:dc="http://purl.org/dc/elements/1.1/"><rdf:description><dc:creator>MandoCreator</dc:creator><dc:publisher>https://www.mandocreator.com</dc:publisher><dc:description>Your Beskar'gam - created by MandoCreator</dc:description><dc:format>image/svg+xml</dc:format><dc:type>Image</dc:type><dc:title>MandoCreator - Ner Berskar'gam</dc:title><dc:date>2022-01-02T16:20:27.060Z</dc:date></rdf:description></rdf:rdf></metadata><g id="Main-Body" fill="white" stroke="black">
<g id="Extras_Back">
<g id="Back"><g id="NO-CAPES_Back" class="option" style="display: inherit;">
</g>
</g>
</g>
<g id="Extras-BackDecals" mask="url(#BackMask)">
</g>
<g id="Suit">
<g id="Neck-Seal">
<path id="Plain-Neck-Seal" class="option" d="M95.11,1.97l3.79,11.37l-1.61,2.77l-12.25,2.82l-12.32-2.82l-1.46-3.4 l3.63-10.74L85,2.66L95.11,1.97" fill="rgb(34, 34, 34)" style="display: inherit;"/></g>
<g id="Flight-Suit" fill="rgb(34, 34, 34)">
<path d="M38.1,60.17l5.2-18.8l12.15-8.13l1.9,16.49c0,0-5.25,9.95-7.06,14.51c-1.86,4.7-5.09,15.42-5.5,16.81 l-2.88,24.91l-8.36-2.66c0,0-0.3-17.29,0.46-24.47C34.68,72.42,38.1,60.17,38.1,60.17z"/>
<path d="M131.9,60.17l-5.22-18.86l-12.06-8.07l-1.92,16.59c0,0,5.2,9.85,7.01,14.41c1.86,4.7,5.09,15.42,5.5,16.81 l2.88,24.91l8.36-2.66c0,0,0.3-17.29-0.46-24.47C135.32,72.42,131.9,60.17,131.9,60.17z"/>
<path d="M84.99,113.44c-1.03,0.1-1.95,0.5-2.29,1.22c-3,6.3-9.17,35.13-10.95,40.44c-0.97,2.89-1.74,18.7-3.38,27.92 c-1.96,11.01-8.39,38.11-8.39,38.11l-11.15-1.15c0,0-1.44-27.22-1.04-37.12c0.3-7.53,3.42-22.31,3.42-22.31s0.67-5.4,0.69-8.12 c0.06-9.82,0.93-31.66,2.88-44.2C56.3,98.31,65.7,77.5,65.7,77.5s12.18,4.76,19.34,4.76c7.16,0,19.44-4.86,19.44-4.86 s8.88,20.92,10.42,30.83c1.95,12.54,3.24,34.38,3.3,44.2c0.02,2.72,0.69,8.12,0.69,8.12s3.12,14.79,3.42,22.31 c0.4,9.91-1.04,37.12-1.04,37.12l-11.15,1.15c0,0-6.43-27.1-8.39-38.11c-1.64-9.22-2.41-25.03-3.38-27.92 c-1.78-5.31-7.96-34.13-10.95-40.44c-0.35-0.73-1.3-1.14-2.34-1.23L84.99,113.44z"/>
</g>
<g id="Sleeves" class="toggle" fill="rgb(34, 34, 34)">
<path d="M41.92,41.42l0.81,0.34l12.73-8.52c0,0,0.36,8.98,1.42,14.37c0.15,0.75,0.37,1.69,0.64,2.79l-1.69,5.45 c0,0-5.75-2.25-8.27-3.72C45.11,50.7,40.7,47,40.7,47L41.92,41.42z"/>
<path d="M112.55,50.4c0.28-1.1,0.5-2.04,0.64-2.79c1.06-5.39,1.42-14.37,1.42-14.37l12.73,8.52l0.81-0.34l1.22,5.58 c0,0-4.4,3.7-6.85,5.13c-2.52,1.48-8.28,3.72-8.28,3.72L112.55,50.4z"/>
</g>
</g>
<g id="Boots"><g id="Basic_Boots" class="option" style="display: inherit;">
<g id="Main_Basic-Boot" fill="rgb(112, 112, 112)">
<path d="M60.73,217.89c-0.18-0.07-2.31,1.28-3.52,1.48c-1.29,0.22-2.7,0.2-4.07,0.06l-0.56-0.06l-0.02,0l-0.07-0.01 l-0.18-0.02l-0.28-0.04l-0.12-0.02c-0.32-0.04-0.64-0.09-0.95-0.14l-0.49-0.1l-0.1-0.03l-0.04-0.01l-0.08-0.02l-0.34-0.08 l-0.3-0.08l-0.05-0.01c-1.05-0.28-0.85-0.78-0.85-0.78c0,1.45-1.51,5.98-5.27,9.68c-1.14,1.13-3.92,2.45-6.33,3.5 c-2.21,0.97-4.87,1.2-6.15,3.78c-0.28,0.56-0.52,1.24-0.47,1.88c0.06,0.82,0.95,0.93,1.65,1.13c1.73,0.49,3.22,0.86,5.22,1.31 c2.28,0.51,4.34,0.82,6.65,0.76c1.73-0.05,3.2-0.12,4.72-1.03c0.61-0.37,1.24-0.74,1.77-1.22c1.19-1.08,1.96-2.21,3.48-2.85 c1.1-0.47,2.24-0.85,3.41-1.13c1.65-0.39,4.06-0.94,4.95-2.57c0.34-1.22-1.15-3.83-1.26-5.59 C60.99,224.26,60.85,217.94,60.73,217.89z"/>
<path d="M109.34,217.89c0.18-0.07,2.31,1.28,3.52,1.48c1.29,0.22,2.7,0.2,4.07,0.06l0.55-0.06l0.02,0l0.07-0.01 l0.18-0.02l0.28-0.04l0.12-0.02c0.32-0.04,0.64-0.09,0.95-0.14l0.49-0.1l0.1-0.03l0.04-0.01l0.08-0.02l0.34-0.08l0.3-0.08 l0.05-0.01c1.05-0.28,0.85-0.78,0.85-0.78c0,1.45,1.51,5.98,5.27,9.68c1.14,1.13,3.92,2.45,6.33,3.5 c2.21,0.97,4.87,1.2,6.15,3.78c0.28,0.56,0.52,1.24,0.47,1.88c-0.06,0.82-0.95,0.93-1.65,1.13c-1.73,0.49-3.22,0.86-5.21,1.31 c-2.28,0.51-4.34,0.82-6.65,0.76c-1.73-0.05-3.2-0.12-4.72-1.03c-0.61-0.37-1.24-0.74-1.77-1.22c-1.19-1.08-1.96-2.21-3.48-2.85 c-1.11-0.47-2.24-0.85-3.41-1.13c-1.65-0.39-4.07-0.94-4.95-2.57c-0.34-1.22,1.15-3.83,1.26-5.59 C109.07,224.26,109.21,217.94,109.34,217.89z"/>
</g>
<g id="Bottom_Basic-Boot" fill="rgb(112, 112, 112)">
<path d="M62.34,231.27c-0.44,0.81-1.26,1.35-2.18,1.74c-0.84,0.42-1.82,0.6-2.77,0.82 c-0.13,0.03-0.26,0.06-0.38,0.09c-0.19,0.05-0.38,0.1-0.56,0.15c-0.06,0.02-0.11,0.03-0.17,0.05l-0.1,0.03 c-0.06,0.02-0.12,0.04-0.18,0.06c-0.03,0.01-0.05,0.02-0.08,0.02c-0.1,0.03-0.2,0.07-0.31,0.1c-0.04,0.01-0.07,0.02-0.11,0.04 l-0.05,0.02c-0.16,0.05-0.31,0.11-0.47,0.17c-0.03,0.01-0.07,0.03-0.1,0.04c-0.14,0.05-0.28,0.11-0.42,0.16l-0.11,0.04 c-0.08,0.03-0.17,0.07-0.25,0.1c-0.04,0.01-0.07,0.03-0.11,0.05c-0.25,0.11-0.48,0.22-0.7,0.35l-0.03,0.02 c-0.02,0.01-0.03,0.02-0.05,0.03c-0.07,0.04-0.13,0.08-0.2,0.13l-0.04,0.03c-0.01,0.01-0.03,0.02-0.04,0.03 c-0.06,0.05-0.13,0.09-0.19,0.14l-0.05,0.04l-0.08,0.07c-0.26,0.21-0.51,0.44-0.75,0.68l-0.07,0.07c-0.13,0.13-0.26,0.26-0.4,0.4 c-0.14,0.14-0.28,0.28-0.42,0.42c-0.14,0.14-0.29,0.29-0.45,0.43l-0.05,0.05c-0.05,0.04-0.1,0.08-0.14,0.12 c-0.01,0.01-0.02,0.01-0.03,0.02c-0.08,0.06-0.16,0.13-0.24,0.19c-0.05,0.04-0.11,0.08-0.16,0.12l-0.03,0.02 c-0.07,0.05-0.14,0.1-0.21,0.14c-0.03,0.02-0.06,0.04-0.09,0.06c-0.1,0.07-0.21,0.13-0.31,0.2c-0.07,0.04-0.14,0.09-0.22,0.13 l-0.09,0.05l-0.23,0.14l-0.11,0.06l-0.07,0.04l-0.07,0.04c-0.11,0.06-0.21,0.11-0.32,0.16c-0.05,0.02-0.1,0.05-0.15,0.07 l-0.05,0.02c-0.32,0.14-0.63,0.24-0.95,0.32l-0.06,0.01l-0.07,0.02c-0.02,0-0.05,0.01-0.07,0.02c-0.06,0.01-0.13,0.03-0.2,0.04 c-0.05,0.01-0.1,0.02-0.15,0.03l-0.12,0.02l-0.04,0.01c-0.03,0.01-0.07,0.01-0.1,0.02c-0.06,0.01-0.11,0.02-0.17,0.02 c-0.08,0.01-0.16,0.02-0.24,0.03c-0.02,0-0.04,0.01-0.06,0.01c-0.2,0.02-0.41,0.04-0.61,0.05c-0.11,0.01-0.23,0.01-0.34,0.02 l-0.1,0c-0.22,0.01-0.44,0.02-0.66,0.02c-0.14,0-0.29,0.01-0.43,0.01c-0.05,0-0.1,0-0.16,0c-0.07,0-0.15,0-0.22,0 c-0.05,0-0.11,0-0.16,0l-0.05,0c-0.26-0.01-0.52-0.01-0.78-0.03c-0.03,0-0.07,0-0.11-0.01l-0.1-0.01c-0.03,0-0.07,0-0.1-0.01 c-0.38-0.03-0.76-0.06-1.13-0.11l-0.1-0.01c-0.09-0.01-0.19-0.02-0.28-0.04c-0.04-0.01-0.08-0.01-0.12-0.02l-0.1-0.01 c-0.08-0.01-0.15-0.02-0.23-0.03c-0.33-0.05-0.66-0.11-0.99-0.17c-0.07-0.01-0.15-0.03-0.22-0.04l-0.1-0.02 c-0.03-0.01-0.07-0.01-0.1-0.02l-0.1-0.02c-0.03-0.01-0.07-0.01-0.1-0.02l-0.07-0.01c-0.08-0.02-0.16-0.03-0.24-0.05l-0.1-0.02 c-0.1-0.02-0.19-0.04-0.28-0.06c-0.08-0.02-0.16-0.04-0.25-0.05l-0.02-0.01c-0.52-0.12-1.01-0.23-1.48-0.34l-0.18-0.04 c-0.13-0.03-0.26-0.06-0.39-0.09l-0.16-0.04l-0.07-0.02c-0.18-0.04-0.37-0.09-0.55-0.14c-0.11-0.03-0.22-0.06-0.33-0.08 c-0.32-0.08-0.63-0.16-0.94-0.25l-0.14-0.04c-0.05-0.01-0.1-0.03-0.16-0.04l-0.06-0.02c-0.24-0.07-0.49-0.13-0.74-0.2l-0.06-0.02 L32,237.96l-0.26-0.07l-0.09-0.02l-0.13-0.04l-0.05-0.02l-0.11-0.04l-0.09-0.03l-0.04-0.02l-0.05-0.02l-0.02-0.01l-0.05-0.02 l-0.05-0.02l-0.02-0.01l-0.05-0.03l-0.06-0.03l-0.05-0.04l-0.05-0.04c-0.08-0.07-0.15-0.14-0.21-0.23l0,0c0,0-0.46,0.68-0.5,1.86 c1.04,1.49,4.31,1.99,8.84,2.59c4.5,0.6,7.28,0.48,9.16-0.32c1.88-0.81,5.18-4.63,7.54-4.83c2.36-0.2,5.15-1.45,6.3-2.12 c0.6-0.35,0.42-2.81,0.42-2.81L62.34,231.27z"/>
<path d="M107.72,231.27c0.44,0.81,1.26,1.35,2.18,1.74c0.84,0.42,1.82,0.6,2.77,0.82c0.13,0.03,0.25,0.06,0.38,0.09 c0.19,0.05,0.38,0.1,0.56,0.15c0.06,0.02,0.11,0.03,0.17,0.05l0.1,0.03c0.06,0.02,0.12,0.04,0.18,0.06 c0.03,0.01,0.05,0.02,0.08,0.02c0.1,0.03,0.2,0.07,0.31,0.1c0.04,0.01,0.07,0.02,0.11,0.04l0.05,0.02 c0.16,0.05,0.31,0.11,0.47,0.17c0.03,0.01,0.07,0.03,0.1,0.04c0.14,0.05,0.28,0.11,0.42,0.16l0.11,0.04 c0.08,0.03,0.17,0.07,0.25,0.1c0.04,0.01,0.07,0.03,0.11,0.05c0.25,0.11,0.48,0.22,0.69,0.35l0.03,0.02 c0.02,0.01,0.03,0.02,0.05,0.03c0.07,0.04,0.13,0.08,0.2,0.13l0.04,0.03c0.01,0.01,0.03,0.02,0.04,0.03 c0.06,0.05,0.13,0.09,0.19,0.14l0.05,0.04l0.08,0.07c0.26,0.21,0.51,0.44,0.75,0.68l0.07,0.07c0.13,0.13,0.26,0.26,0.39,0.4 c0.14,0.14,0.28,0.28,0.42,0.42c0.15,0.14,0.29,0.29,0.45,0.43l0.05,0.05c0.05,0.04,0.1,0.08,0.15,0.12 c0.01,0.01,0.02,0.01,0.03,0.02c0.08,0.06,0.16,0.13,0.24,0.19c0.05,0.04,0.11,0.08,0.16,0.12l0.03,0.02 c0.07,0.05,0.14,0.1,0.21,0.14c0.03,0.02,0.06,0.04,0.09,0.06c0.1,0.07,0.2,0.13,0.31,0.2c0.07,0.04,0.14,0.09,0.21,0.13 l0.09,0.05l0.23,0.14l0.11,0.06l0.07,0.04l0.07,0.04c0.11,0.06,0.21,0.11,0.32,0.16c0.05,0.02,0.1,0.05,0.15,0.07l0.05,0.02 c0.32,0.14,0.63,0.24,0.95,0.32l0.06,0.01l0.07,0.02c0.02,0,0.05,0.01,0.07,0.02c0.07,0.01,0.13,0.03,0.2,0.04 c0.05,0.01,0.1,0.02,0.15,0.03l0.12,0.02l0.04,0.01c0.03,0.01,0.07,0.01,0.1,0.02c0.06,0.01,0.11,0.02,0.17,0.02 c0.08,0.01,0.16,0.02,0.24,0.03c0.02,0,0.04,0.01,0.06,0.01c0.2,0.02,0.41,0.04,0.61,0.05c0.11,0.01,0.23,0.01,0.34,0.02l0.1,0 c0.22,0.01,0.44,0.02,0.66,0.02c0.14,0,0.29,0.01,0.43,0.01c0.05,0,0.1,0,0.16,0c0.07,0,0.15,0,0.22,0c0.05,0,0.11,0,0.16,0 l0.05,0c0.26-0.01,0.52-0.01,0.78-0.03c0.04,0,0.07,0,0.11-0.01l0.1-0.01c0.03,0,0.07,0,0.1-0.01c0.38-0.03,0.76-0.06,1.13-0.11 l0.1-0.01c0.09-0.01,0.19-0.02,0.28-0.04c0.04-0.01,0.08-0.01,0.12-0.02l0.1-0.01c0.08-0.01,0.15-0.02,0.23-0.03 c0.33-0.05,0.66-0.11,0.99-0.17c0.07-0.01,0.15-0.03,0.22-0.04l0.1-0.02c0.03-0.01,0.07-0.01,0.1-0.02l0.1-0.02 c0.03-0.01,0.07-0.01,0.1-0.02l0.07-0.01c0.08-0.02,0.16-0.03,0.24-0.05l0.1-0.02c0.09-0.02,0.19-0.04,0.28-0.06 c0.08-0.02,0.16-0.04,0.25-0.05l0.02-0.01c0.52-0.12,1.01-0.23,1.48-0.34l0.18-0.04c0.13-0.03,0.26-0.06,0.39-0.09l0.16-0.04 l0.07-0.02c0.19-0.04,0.37-0.09,0.55-0.14c0.11-0.03,0.22-0.06,0.32-0.08c0.31-0.08,0.63-0.16,0.94-0.25l0.14-0.04 c0.05-0.01,0.1-0.03,0.16-0.04l0.06-0.02c0.24-0.07,0.49-0.13,0.74-0.2l0.06-0.02l0.09-0.02l0.26-0.07l0.09-0.02l0.13-0.04 l0.05-0.02l0.11-0.04l0.09-0.03l0.04-0.02l0.05-0.02l0.03-0.01l0.05-0.02l0.05-0.02l0.02-0.01l0.05-0.03l0.05-0.03l0.05-0.04 l0.05-0.04c0.08-0.07,0.15-0.14,0.21-0.23l0,0c0,0,0.46,0.68,0.5,1.86c-1.04,1.49-4.31,1.99-8.84,2.59 c-4.5,0.6-7.28,0.48-9.16-0.32c-1.88-0.81-5.18-4.63-7.55-4.83c-2.36-0.2-5.15-1.45-6.3-2.12c-0.6-0.35-0.42-2.81-0.42-2.81 L107.72,231.27z"/>
</g>
<g id="Top_Basic-Boot" fill="rgb(78, 136, 208)">
<path d="M49.35,218.75c-0.62,3.05-1.6,5.71-3.64,8.28c-3.18,4.01-8.62,4.33-12.38,7.58 c-0.97,0.83-0.92,2.18-1.07,3.41c1.56,0.44,2.93,0.78,4.68,1.18c0.12-1.23-0.1-2.6,0.93-3.49c3.76-3.25,9.68-3.13,12.86-7.13 c2.08-2.62,2.09-5.99,2.69-9.13c-0.09-0.01-0.19-0.02-0.28-0.02l-0.56-0.06l-0.02,0l-0.07-0.01l-0.18-0.02l-0.28-0.04l-0.12-0.02 c-0.32-0.04-0.64-0.09-0.95-0.14l-0.49-0.1l-0.1-0.03l-0.04-0.01l-0.08-0.02l-0.34-0.08l-0.3-0.08l-0.05-0.01 C49.49,218.79,49.42,218.77,49.35,218.75z"/>
<path d="M120.71,218.75c0.63,3.05,1.6,5.71,3.64,8.28c3.18,4.01,8.62,4.33,12.38,7.58c0.96,0.83,0.92,2.18,1.07,3.41 c-1.56,0.44-2.93,0.78-4.68,1.18c-0.12-1.23,0.1-2.6-0.93-3.49c-3.76-3.25-9.68-3.13-12.86-7.13c-2.08-2.62-2.09-5.99-2.69-9.13 c0.09-0.01,0.19-0.02,0.28-0.02l0.55-0.06l0.02,0l0.07-0.01l0.18-0.02l0.28-0.04l0.12-0.02c0.32-0.04,0.64-0.09,0.95-0.14 l0.49-0.1l0.1-0.03l0.04-0.01l0.08-0.02l0.34-0.08l0.3-0.08l0.05-0.01C120.57,218.79,120.64,218.77,120.71,218.75z"/>
</g>
<g id="Side_Basic-Boot" fill="rgb(112, 112, 112)">
<path d="M60.15,218.12c-1.21,0.53-1.84,1.07-2.95,1.25c-0.06,0.01-0.12,0.02-0.18,0.03 c-0.02,0.38-0.01,0.77-0.02,1.11c-0.04,1.92,0.2,10.09,0.58,10.08c0.38-0.01,1.48-0.22,1.76-0.51c0.19-0.2,0.22-0.67,0.28-0.92 c0.19-0.81,0.37-1.63,0.5-2.45C60.29,225.59,60.12,219.79,60.15,218.12z"/>
<path d="M109.91,218.12c1.21,0.53,1.85,1.07,2.95,1.25c0.06,0.01,0.12,0.02,0.18,0.03c0.02,0.38,0.01,0.77,0.02,1.11 c0.04,1.92-0.2,10.09-0.57,10.08c-0.38-0.01-1.48-0.22-1.76-0.51c-0.19-0.2-0.22-0.67-0.28-0.92c-0.19-0.81-0.37-1.63-0.5-2.45 C109.77,225.59,109.95,219.79,109.91,218.12z"/>
</g>
</g>
</g>
<g id="Gloves">
<g id="Left-Glove"><g id="Basic_Left_Glove" class="option" fill="rgb(112, 112, 112)" style="display: inherit;">
<path d="M133.16,120.46c-0.46-0.03-0.9-0.01-1.36,0.09c-0.31,0.07-0.62,0.16-0.9,0.34 c-0.85,0.55-0.62,1.76,0.14,2.21c0.89,0.53,2.29,0.01,2.69-1.02C133.9,121.66,133.39,120.86,133.16,120.46"/>
<path d="M131.6,121.51c-0.46-0.02-0.9-0.02-1.36,0.09c-0.31,0.07-0.62,0.16-0.9,0.34c-0.85,0.55-0.62,1.76,0.14,2.21 c0.89,0.53,2.29,0.01,2.69-1.02C132.34,122.71,131.83,121.91,131.6,121.51"/>
<path d="M130.49,122.93c-0.46,0.05-1.02,0.12-1.46,0.3c-0.3,0.12-0.59,0.25-0.85,0.47c-0.78,0.68-0.4,1.83,0.4,2.17 c0.94,0.39,2.27-0.34,2.55-1.42C131.24,124.01,130.49,122.93,130.49,122.93z"/>
<path d="M127.97,106.79c0,0-1.34,2.09-1.69,3.59c-0.25,1.06-0.11,3.58-0.43,5.28c-0.31,1.7-0.59,2.64-0.59,2.64 s-1.18,2.71-0.98,3.34c0.21,0.62,1.25,1.18,1.84,0.85c0.74-0.41,1.66-2.32,2.24-3.67c0.59-1.37,1.08-3.32,1.08-3.32 s0.81,0.32,1.23,0.68c1.38,1.2,0.78,4.82,0.78,4.82s-0.57,1.29-1.43,2.75c-1.17,1.99-2.97,3.7-1.78,5.22 c1.11,1.42,3.63-2.31,3.63-2.31l2.47-3.62c0,0,2.84-5.26,2.98-6.28c0.11-0.78,0.01-3.38,0.01-3.38l-0.89-10.08l-4.5,0.42 l-3.7,1.36L127.97,106.79"/>
</g>
</g>
<g id="Right-Glove"><g id="Basic_Right_Glove" class="option" fill="rgb(112, 112, 112)" style="display: inherit;">
<path d="M36.86,120.46c0.46-0.03,0.9-0.01,1.36,0.09c0.31,0.07,0.62,0.16,0.9,0.34c0.85,0.55,0.62,1.76-0.14,2.21 c-0.89,0.53-2.29,0.01-2.69-1.02C36.12,121.66,36.64,120.86,36.86,120.46"/>
<path d="M38.42,121.51c0.46-0.02,0.9-0.02,1.36,0.09c0.31,0.07,0.62,0.16,0.9,0.34c0.85,0.55,0.62,1.76-0.14,2.21 c-0.89,0.53-2.29,0.01-2.69-1.02C37.68,122.71,38.2,121.91,38.42,121.51"/>
<path d="M39.54,122.93c0.46,0.05,1.02,0.12,1.46,0.3c0.3,0.12,0.6,0.25,0.85,0.47c0.78,0.68,0.4,1.83-0.4,2.17 c-0.94,0.39-2.27-0.34-2.55-1.42C38.78,124.01,39.54,122.93,39.54,122.93z"/>
<path d="M42.06,106.79c0,0,1.34,2.09,1.69,3.59c0.25,1.06,0.11,3.58,0.43,5.28c0.31,1.7,0.59,2.64,0.59,2.64 s1.18,2.71,0.98,3.34c-0.21,0.62-1.24,1.18-1.84,0.85c-0.74-0.41-1.66-2.32-2.24-3.67c-0.59-1.37-1.08-3.32-1.08-3.32 s-0.81,0.32-1.23,0.68c-1.38,1.2-0.78,4.82-0.78,4.82s0.57,1.29,1.43,2.75c1.17,1.99,2.97,3.7,1.78,5.22 c-1.11,1.42-3.63-2.31-3.63-2.31l-2.47-3.62c0,0-2.84-5.26-2.98-6.28c-0.11-0.78-0.01-3.38-0.01-3.38l0.89-10.08l4.5,0.42 l3.7,1.36L42.06,106.79"/>
</g>
</g>
</g>
<g id="Biceps">
<g id="Left-Biceps"><g id="Full-Band_Biceps_Left" class="option" style="display: inherit;">
<path id="Main_Full-Band_Biceps_Left" d="M113.29,54.73l-0.74-2.02l-3.43-10.67c0,0,12.7-4.29,16.3-5.51 c0.52-0.18,1.09,0.09,1.29,0.6c1.1,2.89,4.43,11.57,4.43,11.57L113.29,54.73" fill="rgb(112, 112, 112)"/>
<g id="Trim_Full-Band_Biceps_Left" fill="rgb(78, 136, 208)">
<path d="M127.36,44.91c0.97,0,1.75,0.75,1.75,1.68c0,0.93-0.78,1.68-1.75,1.68c-0.97,0-1.75-0.75-1.75-1.68 C125.61,45.66,126.39,44.91,127.36,44.91"/>
<path d="M131.14,48.72l0.41,1.12c0.12,0.31,0.1,0.66-0.05,0.96c-0.15,0.3-0.41,0.53-0.72,0.63 c-3.28,1.1-12.3,4.12-15.5,5.2c-0.64,0.21-1.33-0.12-1.57-0.75l-0.42-1.15L131.14,48.72"/>
</g>
</g></g>
<g id="Right-Biceps"><g id="Full-Band_Biceps_Right" class="option" style="display: inherit;">
<path id="Main_Full-Band_Biceps_Right" d="M56.78,54.73l0.74-2.02l3.43-10.67c0,0-12.7-4.29-16.3-5.51 c-0.52-0.18-1.09,0.09-1.29,0.6c-1.1,2.89-4.43,11.57-4.43,11.57L56.78,54.73" fill="rgb(112, 112, 112)"/>
<g id="Trim_Full-Band_Biceps_Right" fill="rgb(78, 136, 208)">
<path d="M42.71,44.91c-0.97,0-1.75,0.75-1.75,1.68c0,0.93,0.79,1.68,1.75,1.68c0.97,0,1.75-0.75,1.75-1.68 C44.47,45.66,43.68,44.91,42.71,44.91"/>
<path d="M38.93,48.72l-0.41,1.12c-0.11,0.31-0.1,0.66,0.05,0.96s0.41,0.53,0.72,0.63c3.28,1.1,12.3,4.12,15.51,5.2 c0.64,0.21,1.33-0.12,1.56-0.75l0.42-1.15L38.93,48.72"/>
</g>
</g></g>
</g>
<g id="BicepsDecals" mask="url(#BicepsMask)">
</g>
<path id="Vest" d="M91.61,82.96c-4.3,0.88-8.84,0.88-13.14,0c-4.33-0.88-12.83-5.29-12.83-5.29s-7.42-23.26-8.75-30.06 c-1.06-5.39-1.42-14.37-1.42-14.37l-12.73,8.52l-2.71-1.15c0,0,7.62-16.73,12.62-21.57c4.53-4.39,17.42-7.5,17.42-7.5 s5.68,6.2,14.97,6.25c8.84,0.04,14.97-6.25,14.97-6.25s12.89,3.12,17.42,7.5c5.01,4.85,12.62,21.57,12.62,21.57l-2.71,1.15 l-12.73-8.52c0,0-0.36,8.98-1.42,14.37c-1.33,6.79-8.76,30.06-8.76,30.06S95.93,82.08,91.61,82.96z" fill="rgb(34, 34, 34)"/>
<g id="SuitDecals" mask="url(#SuitMask)">
</g>
<g class="swappable" id="Chest"><g id="Chest_Galaxy">
<g id="Abdomen_Galaxy">
<path id="Abdomen-Plate_Galaxy" d="M78.22,70.87l-2.02,1.46l-10.28-1.46l-0.75-5.65l4.87-0.1l2.95-4.79l1.34-4.41 l10.66-9.7L85,46.24l0.02-0.02l10.66,9.7l1.34,4.41l2.95,4.79l4.87,0.1l-0.75,5.65L93.8,72.33l-2.02-1.46H78.22z" fill="rgb(112, 112, 112)"/>
<path id="Trauma-Plate_Abdomen_Galaxy" class="toggle" style="display:none" d="M84.98,48.45l-9.21,8.38l-1.27,4.18l-3.53,5.74l-3.92,0.08 l0.34,2.59l8.37,1.19l1.91-1.38h14.64l1.91,1.38l8.37-1.19l0.34-2.59l-3.92-0.08l-3.53-5.74l-1.27-4.18l-9.21-8.38L85,48.47 L84.98,48.45z" fill="rgb(255, 255, 255)"/>
</g>
<g id="Full-Chest_Galaxy">
<path id="Chest-Plate_Galaxy" d="M80.72,32.14l-0.02,9.88l3.12,3.14L72.88,55.48l-1.42,4.76l-2.32,3.79h-4.01 l-1.95-2.83L60.7,47.37l-3.63-5.65l4.61-14.81l5.31-0.67l0.75-3.27l5.69-0.69l1.8,2.92h19.57l1.8-2.92l5.69,0.69l0.75,3.27 l5.31,0.67l4.61,14.81l-3.63,5.65l-2.48,13.84l-1.95,2.83h-4.01l-2.32-3.79l-1.42-4.76L86.18,45.16l3.12-3.14l-0.02-9.88 L85,28.83L80.72,32.14z" fill="rgb(112, 112, 112)"/>
<path id="Trauma-Plating_Left-Chest_Galaxy" class="toggle" style="display:none" d="M95.71,26.84H85.12l5.81,4.5l0.02,11.36l-2.42,2.42 l10.04,9.47l1.49,4.98l1.73,2.82H104l1.25-1.82l2.47-13.81l3.4-5.29l-4.06-13.06l-5.4-0.68l-0.75-3.27l-3.48-0.42L95.71,26.84z" fill="rgb(255, 255, 255)"/>
<path id="Trauma-Plating_Right-Chest_Galaxy" class="toggle" style="display:none" d="M72.56,24.04l-3.48,0.42l-0.75,3.27l-5.4,0.68 l-4.07,13.06l3.4,5.29l2.47,13.81L66,62.39h2.21l1.73-2.82l1.49-4.98l10.04-9.47l-2.42-2.42l0.02-11.36l5.81-4.5H74.29 L72.56,24.04z" fill="rgb(255, 255, 255)"/>
<g id="Accents_Chest-Plate_Galaxy" class="toggle" fill="rgb(184, 108, 0)">
<rect x="95.82" y="30" width="9.01" height="1.19"/>
<rect x="95.82" y="32.1" width="9.01" height="1.19"/>
</g>
</g>
<g id="Iron-Heart_Galaxy">
<path id="Heart_Galaxy" d="M82.38,41.74v-8.89L85,30.8l2.62,2.05v8.89L85,44.38L82.38,41.74z" fill="rgb(78, 136, 208)"/>
<g id="None_Heart_Galaxy" class="option" style="display: inherit;">
</g></g>
<g id="Neck-Armor_Galaxy">
<g id="Neck-Plate_Galaxy" fill="rgb(112, 112, 112)">
<path d="M82.81,24.23l-7.2,0.12l-1.77-2.89l-6.87,0.81l-0.68,2.99l-4.4,0.54l-3.24-11.12l11.25-3.35 c0,0,1.49,2.51,2.57,3.39c1.11,0.91,2.59,1.97,3.98,2.57c1.52,0.66,3.37,1.1,5.13,1.39c0.18,0.03,0.37,0.06,0.57,0.08 L82.81,24.23z"/>
<path d="M87.19,24.23l7.2,0.12l1.77-2.89l6.87,0.81l0.68,2.99l4.4,0.54l3.25-11.12l-11.25-3.35 c0,0-1.49,2.51-2.57,3.39c-1.11,0.91-2.59,1.97-3.98,2.57c-1.52,0.66-3.37,1.1-5.13,1.39c-0.18,0.03-0.37,0.06-0.57,0.08 L87.19,24.23z"/>
</g>
<g id="Trauma-Plates_Neck_Galaxy" class="toggle" style="display:none" fill="rgb(255, 255, 255)"/>
</g>
</g></g>
<g id="ChestDecals" mask="url(#ChestMask)">
</g>
<g id="Chest-Attachments"><g id="No-Device_Accessories_Chest" class="option" style="display: inherit;">
</g>
</g>
<g id="Collar"><g id="None_Collar" class="option" style="display: inherit;">
</g>
</g>
<g id="CollarDecals" mask="url(#CollarMask)">
</g>
<g id="Helmets" class="swappable" transform="translate(45,-52)"><g id="Helmet_RC">
<g id="Left-Earcap_RC" class="toggle"><g id="Ear-Cap_Left_RC" fill="rgb(112, 112, 112)">
<path d="M56.6,29l0.72,0.79v9.87l-0.72,0.79V29z"/>
<path d="M57.31,30.21L57.31,30.21c0.15,0,0.29,0.06,0.4,0.16c0.11,0.11,0.16,0.25,0.16,0.4c0,1.5,0,5.56,0,7.05 c0,0.15-0.06,0.29-0.16,0.4c-0.11,0.11-0.25,0.16-0.4,0.16l0,0V30.21z"/>
<path d="M57.87,31.48L57.87,31.48c0.09,0,0.17,0.03,0.23,0.09c0.06,0.06,0.1,0.14,0.1,0.23v4.99 c0,0.09-0.03,0.17-0.1,0.23c-0.06,0.06-0.14,0.1-0.23,0.1l0,0V31.48z"/>
</g>
</g>
<g id="Right-Earcap_RC" class="toggle"><g id="Range-Finder_Right_RC" class="option" style="display: inherit;">
<path id="Shaft_Right_Range-Finder_RC" d="M22.49,8.37l1.08,0.02l-0.38,26.9l-1.1,0.05L22.49,8.37z" fill="rgb(112, 112, 112)"/>
<path id="Finder_Right_Range-Finder_RC" d="M30.71,5.82l-5.95,0.27l0.2-0.75l6.92-0.97L30.71,5.82" fill="rgb(112, 112, 112)"/>
<g id="Cover_Right_Range-Finder_RC" fill="rgb(112, 112, 112)">
<path d="M21.59,7.28l2.84,0.05l0.54-1.99l7.44-1.04l0.11-0.77l-10.69,0.1l-0.98,1.36L21.59,7.28"/>
<path d="M22.35,7.29l1.41,0.03l-0.02,1.07l-1.41-0.03L22.35,7.29"/>
</g>
</g>
<g id="Ear-Cap_Right_RC" fill="rgb(112, 112, 112)">
<path d="M23.4,29l-0.72,0.79v9.87l0.72,0.79V29z"/>
<path d="M22.69,30.21L22.69,30.21c-0.15,0-0.29,0.06-0.4,0.16c-0.11,0.11-0.17,0.25-0.17,0.4c0,1.5,0,5.56,0,7.05 c0,0.15,0.06,0.29,0.17,0.4c0.1,0.11,0.25,0.16,0.4,0.16l0,0V30.21z"/>
<path d="M22.13,31.48L22.13,31.48c-0.09,0-0.17,0.03-0.23,0.09c-0.06,0.06-0.09,0.14-0.09,0.23v4.99 c0,0.09,0.03,0.17,0.09,0.23c0.06,0.06,0.14,0.1,0.23,0.1l0,0V31.48z"/>
</g>
</g>
<g id="Helmet_Pieces_RC">
<g id="Sides_RC" fill="rgb(78, 136, 208)">
<path d="M22.48,49.1l-0.54-4.81l1.41-16.06h0.5l0.05,4.66l0.39,0.01l-0.45,10.76l2.64,3.46L22.48,49.1z"/>
<path d="M23.29,28.91h-0.53l-0.38,10.32L23.29,28.91z"/>
<path d="M57.54,49.1l0.54-4.81l-1.41-16.06h-0.5l-0.05,4.66l-0.39,0.01l0.45,10.76l-2.64,3.46L57.54,49.1z"/>
<path d="M56.72,28.91h0.53l0.38,10.32L56.72,28.91z"/>
</g>
<g id="Mouth-4_RC" fill="rgb(112, 112, 112)">
<path d="M37.55,55.14l-1.43,8.07c-3.11-0.17-5.96-1.19-8.45-3.36l3.53-0.72L37.55,55.14z"/>
<path d="M36.11,66.29c-3.55-0.14-6.49-1.02-8.45-3.08v-3.36c2.49,2.17,5.34,3.19,8.45,3.36V66.29z"/>
<path d="M42.47,55.14l1.43,8.07c3.11-0.17,5.96-1.19,8.45-3.36l-3.53-0.72L42.47,55.14z"/>
<path d="M43.91,66.29c3.55-0.14,6.49-1.02,8.45-3.08v-3.36c-2.49,2.17-5.34,3.19-8.45,3.36V66.29z"/>
</g>
<g id="Mouth-3_RC" fill="rgb(112, 112, 112)">
<path d="M39.21,61.08c-1.66,0-3.05,1.13-3.09,2.37v0.11c0-0.04,0-0.07,0-0.11V63.2l1.52-8.7h4.75l1.52,8.7v0.25 c0,0.04,0,0.07,0,0.11v-0.11c-0.04-1.23-1.43-2.37-3.09-2.37H39.21z"/>
<path d="M39.98,62.59c-1.21,0-2.22,0.4-2.19,1.69c0.02,0.82,0.02,1.99,0.01,2.91h-1.69c0,0,0.05-2.12,0-3.63 c-0.04-1.27,1.38-2.47,3.09-2.47h1.61c1.71,0,3.13,1.2,3.09,2.47c-0.05,1.51,0,3.63,0,3.63h-1.69c-0.01-0.91-0.01-2.08,0.01-2.91 c0.03-1.29-0.98-1.69-2.19-1.69H39.98z"/>
<path d="M37.8,66.29c0-0.7,0-1.43-0.01-2c-0.03-1.29,0.98-1.69,2.19-1.69h0.06c1.21,0,2.22,0.4,2.19,1.69 c-0.01,0.57-0.02,1.3-0.01,2H37.8z"/>
</g>
<g id="Mouth-2_RC" fill="rgb(184, 108, 0)">
<rect x="38.54" y="63.27" width="2.95" height="3.5"/>
<rect x="38.54" y="63.61" width="2.95" height="3.16"/>
<rect x="38.69" y="63.77" width="2.64" height="2.84"/>
<path d="M38.93,63.77v2.84"/>
<path d="M38.69,63.77v2.84"/>
<path d="M41.33,63.77v2.84"/>
<path d="M39.17,63.77v2.84"/>
<path d="M39.41,63.77v2.84"/>
<path d="M39.65,63.77v2.84"/>
<path d="M39.89,63.77v2.84"/>
<path d="M40.13,63.77v2.84"/>
<path d="M41.09,63.77v2.84"/>
<path d="M40.85,63.77v2.84"/>
<path d="M40.61,63.77v2.84"/>
<path d="M40.37,63.77v2.84"/>
</g>
<g id="Mouth-1_RC" fill="rgb(184, 108, 0)">
<path d="M29.1,62.07c0.5-0.39,1.32-0.18,1.83,0.47c0.51,0.65,0.51,1.5,0.01,1.89c-0.5,0.39-1.32,0.18-1.83-0.47 C28.6,63.31,28.59,62.46,29.1,62.07z"/>
<path d="M29.42,62.27c0.43-0.34,1.13-0.18,1.55,0.37c0.42,0.54,0.41,1.26-0.02,1.6c-0.43,0.34-1.13,0.17-1.55-0.37 C28.98,63.32,28.99,62.61,29.42,62.27z"/>
<path d="M50.92,62.07c-0.5-0.39-1.32-0.18-1.83,0.47c-0.51,0.65-0.51,1.5-0.01,1.89s1.32,0.18,1.83-0.47 C51.42,63.31,51.43,62.46,50.92,62.07z"/>
<path d="M50.6,62.27c-0.43-0.34-1.13-0.18-1.55,0.37s-0.41,1.26,0.02,1.6c0.44,0.34,1.13,0.17,1.55-0.37 C51.04,63.32,51.03,62.61,50.6,62.27z"/>
</g>
<g id="Face-3_RC" fill="rgb(112, 112, 112)">
<path d="M27.66,59.85v3.36l-0.41-0.26v-3.62L27.66,59.85z"/>
<path d="M26.49,47.11l-4,1.98c0.55,2.27,1.38,4.44,2.41,6.56l4.01-1.63L26.49,47.11z"/>
<path d="M31.67,56.54l-4.45,2.74c-0.99-1.06-1.75-2.28-2.32-3.62l4.01-1.63l2.92,0.27v0.01 C31.88,55.58,31.69,56.44,31.67,56.54z"/>
<path d="M23.53,52.49c0.4,1.07,0.86,2.13,1.36,3.17c0.58,1.34,1.33,2.56,2.32,3.62l0.04,3.67 c0,0-1.02-1.79-1.56-3.03C25.15,58.67,23.53,52.49,23.53,52.49L23.53,52.49z"/>
<path d="M52.36,59.85v3.36l0.41-0.26v-3.62L52.36,59.85z"/>
<path d="M53.53,47.11l4,1.98c-0.55,2.27-1.38,4.44-2.41,6.56l-4.01-1.63L53.53,47.11z"/>
<path d="M48.35,56.54l4.45,2.74c0.99-1.06,1.74-2.28,2.32-3.62l-4.01-1.63L48.2,54.3v0.01 C48.14,55.58,48.33,56.44,48.35,56.54z"/>
<path d="M56.49,52.49c-0.4,1.07-0.86,2.13-1.36,3.17c-0.58,1.34-1.33,2.56-2.32,3.62l-0.04,3.67 c0,0,1.01-1.79,1.56-3.03C54.88,58.67,56.49,52.49,56.49,52.49L56.49,52.49z"/>
</g>
<g id="Face-2_RC" fill="rgb(112, 112, 112)">
<path d="M26.49,47.11c0.14-0.01,2.33-0.16,3.84,2.35c1.04,1.73,1.39,3.41,1.48,4.7l0.01,0.13v0l-2.92-0.27 L26.49,47.11L26.49,47.11z"/>
<path d="M53.53,47.11c-0.14-0.01-2.33-0.16-3.84,2.35c-1.04,1.73-1.39,3.41-1.48,4.7L48.2,54.3v0l2.92-0.27 L53.53,47.11L53.53,47.11z"/>
</g>
<g id="Face-1_RC" fill="rgb(112, 112, 112)">
<path d="M26.33,49.18c0.16-0.08,0.26-0.21,0.22-0.29c-0.04-0.08-0.2-0.08-0.36,0l-2.46,1.22 c-0.16,0.08-0.26,0.21-0.23,0.29c0.04,0.08,0.2,0.08,0.36-0.01L26.33,49.18z"/>
<path d="M26.09,48.68c0.16-0.08,0.26-0.21,0.23-0.29c-0.04-0.08-0.2-0.08-0.36,0l-2.46,1.22 c-0.16,0.08-0.26,0.21-0.22,0.29c0.04,0.08,0.2,0.08,0.36-0.01L26.09,48.68z"/>
<path d="M25.84,48.19c0.16-0.08,0.26-0.21,0.22-0.29c-0.04-0.08-0.2-0.08-0.36,0l-2.46,1.22 c-0.16,0.08-0.26,0.21-0.22,0.29c0.04,0.08,0.2,0.08,0.36,0L25.84,48.19z"/>
<path d="M23.5,45.7c0.99-0.51,2.19,1.81,2.19,1.81l-2.32,1.15C23.37,48.66,22.57,46.18,23.5,45.7z"/>
<path d="M53.69,49.18c-0.16-0.08-0.26-0.21-0.22-0.29c0.04-0.08,0.2-0.08,0.36,0l2.46,1.22 c0.16,0.08,0.26,0.21,0.23,0.29c-0.04,0.08-0.2,0.08-0.37-0.01L53.69,49.18z"/>
<path d="M53.93,48.68c-0.16-0.08-0.26-0.21-0.22-0.29c0.04-0.08,0.2-0.08,0.37,0l2.46,1.22 c0.16,0.08,0.26,0.21,0.22,0.29c-0.04,0.08-0.2,0.08-0.37-0.01L53.93,48.68z"/>
<path d="M54.18,48.19c-0.16-0.08-0.26-0.21-0.22-0.29c0.04-0.08,0.2-0.08,0.36,0l2.46,1.22 c0.16,0.08,0.26,0.21,0.22,0.29c-0.04,0.08-0.2,0.08-0.36,0L54.18,48.19z"/>
<path d="M56.52,45.7c-0.99-0.51-2.19,1.81-2.19,1.81l2.32,1.15C56.65,48.66,57.45,46.18,56.52,45.7z"/>
</g>
<g id="Cheeks_RC" fill="rgb(112, 112, 112)">
<path d="M31.67,56.54c0.05-0.2,0.8-3.54-1.33-7.07c-1.56-2.59-3.85-2.35-3.85-2.35l-2.64-3.46l0.01,0 c0.2,0.02,3.5,0.47,6.26,4.01c2.86,3.65,1.54,8.88,1.54,8.88L31.67,56.54z"/>
<path d="M48.35,56.54c-0.05-0.2-0.8-3.54,1.33-7.07c1.56-2.59,3.85-2.35,3.85-2.35l2.64-3.46l-0.01,0 c-0.2,0.02-3.5,0.47-6.26,4.01c-2.86,3.65-1.54,8.88-1.54,8.88L48.35,56.54z"/>
</g>
<path fill="rgb(0, 145, 244)" id="Visor-2_RC" d="M37.63,54.5l-0.09,0.64l-6.36,3.99l-3.53,0.72l-0.45-0.57l4.45-2.73l6.54-4.62l1.8,0.01 l1.81-0.01l6.54,4.62l4.45,2.73l-0.45,0.57l-3.53-0.72l-6.36-3.99l-0.09-0.64H37.63z"/>
<path fill="rgb(0, 145, 244)" id="Visor-1_RC" d="M38.21,51.93l-1.62-11.65l-9.32-1.93c-0.57-0.19-1.12-0.63-1.14-1.08l0.08-1.61 c0.04-0.45,0.82-0.75,1.16-0.75h25.28c0.34,0,1.12,0.3,1.16,0.75l0.08,1.61c-0.01,0.45-0.57,0.9-1.14,1.08l-9.32,1.93l-1.62,11.65 H38.21z"/>
<g id="Eyes_RC" fill="rgb(112, 112, 112)">
<path d="M27.37,34.9c-0.34,0-1.12,0.3-1.16,0.75l-0.08,1.61c0.02,0.51,0.72,1.01,1.36,1.14l-1.23-0.25 c-0.51-0.11-0.87-0.58-0.84-1.1c0.03-0.44,0.07-0.97,0.09-1.39c0.03-0.43,0.38-0.76,0.81-0.76H27.37z"/>
<path d="M52.65,34.9c0.34,0,1.12,0.3,1.16,0.75l0.08,1.61c-0.02,0.51-0.72,1.01-1.36,1.14l1.22-0.25 c0.51-0.11,0.87-0.58,0.84-1.1c-0.03-0.44-0.07-0.97-0.09-1.39c-0.03-0.43-0.38-0.76-0.81-0.76H52.65z"/>
<g>
<path d="M51.1,32.9h4.62l0.45,10.76c0,0-3.42,0.35-6.28,4.01c-2.86,3.65-1.54,8.88-1.54,8.88l-6.54-4.62 l1.62-11.65c0,0,7.66-1.58,10.33-2.12c0.51-0.11,0.87-0.58,0.84-1.1c-0.03-0.44-0.07-0.97-0.09-1.39 c-0.03-0.43-0.38-0.76-0.81-0.76H26.33c-0.43,0-0.78,0.33-0.81,0.76c-0.03,0.42-0.06,0.95-0.09,1.39 c-0.03,0.52,0.32,0.99,0.84,1.1c2.66,0.55,10.33,2.12,10.33,2.12l1.62,11.65l-6.54,4.62c0,0,1.32-5.23-1.54-8.88 c-2.86-3.65-6.27-4.01-6.27-4.01L24.3,32.9h4.62l0.79,1.12h20.62L51.1,32.9z"/>
</g>
</g>
<g id="Brow_RC" fill="rgb(112, 112, 112)">
<path d="M29.7,34.02l-0.79-1.13l0.64-1.11l10.46,0.03l10.46-0.03l0.64,1.11l-0.79,1.13H29.7z"/>
<ellipse cx="40.02" cy="32.9" rx="0.56" ry="0.56"/>
<ellipse cx="31.37" cy="32.9" rx="0.56" ry="0.56"/>
<ellipse cx="48.65" cy="32.9" rx="0.56" ry="0.56"/>
</g>
<g id="Dome-2_RC" fill="rgb(78, 136, 208)">
<path d="M27.9,30.27v2.62h-3.99c0,0-0.12-3.47-0.03-5.45c0.03-0.7,0.35-1.66,0.98-2.71L27.9,30.27z"/>
<path d="M28.42,30.14v2.75H27.9v-2.62L25,24.99l0.31-0.5L28.42,30.14z"/>
<path d="M52.12,30.27v2.62h3.99c0,0,0.12-3.47,0.03-5.45c-0.03-0.7-0.35-1.66-0.98-2.71L52.12,30.27z"/>
<path d="M51.6,30.14v2.75h0.52v-2.62l2.9-5.28l-0.31-0.5L51.6,30.14z"/>
</g>
<g id="Dome-1_RC" fill="rgb(112, 112, 112)">
<path d="M28.91,32.89h-0.49v-2.75l-3.25-5.91c2.13-3.2,6.95-6.99,14.82-7h0.03c7.87,0.01,12.69,3.8,14.82,7 l-3.25,5.91v2.75h-0.49l-0.64-1.11l-10.46,0.03l-10.46-0.03L28.91,32.89z"/>
<path d="M30.8,29.24c0.02-0.13-0.07-0.26-0.2-0.28c-0.13-0.02-0.26,0.07-0.28,0.2l-0.3,2.01 c-0.02,0.13,0.07,0.26,0.2,0.28c0.13,0.02,0.26-0.07,0.28-0.21L30.8,29.24z"/>
<path d="M49.22,29.24c-0.02-0.13,0.07-0.26,0.21-0.28c0.13-0.02,0.26,0.07,0.28,0.2l0.3,2.01 c0.02,0.13-0.07,0.26-0.21,0.28c-0.13,0.02-0.26-0.07-0.28-0.21L49.22,29.24z"/>
<path d="M37.08,31.8c-0.01-0.04-0.01-0.08-0.01-0.12c0-0.31,0.25-0.56,0.56-0.56c0.31,0,0.56,0.25,0.56,0.56 c0,0.04,0,0.09-0.01,0.13L37.08,31.8z"/>
<path d="M42.94,31.8c0.01-0.04,0.01-0.08,0.01-0.12c0-0.31-0.25-0.56-0.56-0.56c-0.31,0-0.56,0.25-0.56,0.56 c0,0.04,0,0.09,0.01,0.13L42.94,31.8z"/>
</g>
</g>
</g></g>
<g id="HelmetsDecals" mask="url(#HelmetsMask)"/>
<g id="Shoulders">
<g id="Left-Shoulder"><g id="Classic_Shoulder_Left" class="option" style="display: inherit;">
<path id="Main_Shoulder_Classic_Left" d="M115.19,13.78l-2.62,11.77l2.09,6.77l14.01,7.05l2.36-3.6L115.19,13.78z" fill="rgb(112, 112, 112)"/>
<path id="Trauma-Plates_Shoulder_Classic_Left" class="toggle" style="display:none" d="M114.4,25.47l1.74,5.62l11.93,6l2.02-3.08 l-13.43-18.68L114.4,25.47z" fill="rgb(255, 255, 255)"/>
</g>
</g>
<g id="Right-Shoulder"><g id="Classic_Shoulder_Right" class="option" style="display: inherit;">
<path id="Main_Shoulder_Classic_Right" d="M54.88,13.78l2.62,11.77l-2.09,6.77l-14.01,7.05l-2.36-3.6L54.88,13.78z " fill="rgb(112, 112, 112)"/>
<path id="Trauma-Plates_Shoulder_Classic_Right" class="toggle" style="display:none" d="M55.67,25.47l-1.74,5.62l-11.93,6l-2.02-3.08 l13.43-18.68L55.67,25.47z" fill="rgb(255, 255, 255)"/>
</g>
</g>
</g>
<g id="ShouldersDecals" mask="url(#ShouldersMask)">
</g>
<g id="Gauntlets">
<g id="Left-Gauntlets"><g id="Gunslinger_Gauntlet_Left" class="option" style="display: inherit;">
<g id="Accent-Top_Gunslinger_Gauntlet_Left" fill="rgb(78, 136, 208)">
<path d="M136.82,78.71l0.16,5.87l-3.02,0.58l-0.23-5.57L136.82,78.71z"/>
<path d="M133.63,100.15l0.34,3.02l-2.65,0.34l-0.37-3.01L133.63,100.15z"/>
</g>
<path id="Top_Gunslinger_Gauntlet_Left" d="M136.82,78.71l1.38-0.39l0.12,27.45l-6.61,0.83l-0.53-4.3l0.15,1.22 l2.65-0.34l-0.34-3.02l-2.68,0.35l-2.4-19.44L136.82,78.71l-3.09,0.88l0.23,5.57l3.02-0.58L136.82,78.71z" fill="rgb(112, 112, 112)"/>
<g id="Accent-Bottom_Gunslinger_Gauntlet_Left" fill="rgb(78, 136, 208)">
<path d="M124.09,89.56l-0.57-2.44l-1.72,0.4l0.57,2.44L124.09,89.56z"/>
<path d="M124.74,92.34l-0.57-2.45l-1.73,0.4l0.57,2.44L124.74,92.34z"/>
<path d="M130.96,100.5l-5.9,0.77l0.7,2.97l5.58-0.72L130.96,100.5z"/>
</g>
<path id="Bottom_Gunslinger_Gauntlet_Left" d="M131.28,103.07l-0.32-2.58l-5.9,0.77l0.7,2.97l5.58-0.72l0.38,3.08 c0,0-2.07,0.19-3.62,0.33c-0.97,0.09-1.86-0.55-2.08-1.49c-1.21-5.14-4.86-20.61-4.86-20.61l7.45-3.37L131.28,103.07z M124.74,92.34l-0.57-2.45l-1.73,0.4l0.57,2.44L124.74,92.34z M124.09,89.56l-0.57-2.44l-1.72,0.4l0.57,2.44L124.09,89.56z" fill="rgb(112, 112, 112)"/><g id="No-Device_Attachment_Gunslinger_Gauntlet_Left" class="option" style="display: inherit;">
</g>
</g></g>
<g id="Right-Gauntlets"><g id="Gunslinger_Gauntlet_Right" class="option" style="display: inherit;">
<g id="Accent-Top_Gunslinger_Gauntlet_Right" fill="rgb(78, 136, 208)">
<path d="M33.12,78.71l-0.16,5.87l3.02,0.58l0.23-5.57L33.12,78.71z"/>
<path d="M36.31,100.15l-0.34,3.02l2.65,0.34l0.37-3.01L36.31,100.15z"/>
</g>
<path id="Top_Gunslinger_Gauntlet_Right" d="M33.12,78.71l-1.38-0.39l-0.12,27.45l6.61,0.83l0.53-4.3l-0.15,1.22 l-2.65-0.34l0.34-3.02l2.67,0.35l2.4-19.44L33.12,78.71l3.09,0.88l-0.23,5.57l-3.02-0.58L33.12,78.71z" fill="rgb(112, 112, 112)"/>
<g id="Accent-Bottom_Gunslinger_Gauntlet_Right" fill="rgb(78, 136, 208)">
<path d="M45.85,89.56l0.57-2.44l1.72,0.4l-0.57,2.44L45.85,89.56z"/>
<path d="M45.2,92.34l0.57-2.45l1.72,0.4l-0.57,2.44L45.2,92.34z"/>
<path d="M38.99,100.5l5.91,0.77l-0.7,2.97l-5.58-0.72L38.99,100.5z"/>
</g>
<path id="Bottom_Gunslinger_Gauntlet_Right" d="M38.67,103.07l0.32-2.58l5.91,0.77l-0.7,2.97l-5.58-0.72 l-0.38,3.08c0,0,2.07,0.19,3.62,0.33c0.97,0.09,1.85-0.55,2.08-1.49c1.21-5.14,4.86-20.61,4.86-20.61l-7.45-3.37L38.67,103.07z M45.2,92.34l0.57-2.45l1.72,0.4l-0.57,2.44L45.2,92.34z M45.85,89.56l0.57-2.44l1.72,0.4l-0.57,2.44L45.85,89.56z" fill="rgb(112, 112, 112)"/><g id="No-Device_Attachment_Gunslinger_Gauntlet_Right" class="option" style="display: inherit;">
</g>
</g></g>
</g>
<g id="GauntletsDecals" mask="url(#GauntletsMask)">
</g>
<g id="Shins">
<g id="Left-Shin"><g id="Basic_Shin_Left" class="option" style="display: inherit;">
<path id="Shin_Basic-Shin_Left" d="M123.38,181.46l-4.73-6.13l-10.54,0.47l-4.62,8.67l4.39,30.69 c4.45,2.3,11.19,1.91,15.07-1.05L123.38,181.46" fill="rgb(112, 112, 112)"/>
<path id="Trauma-Plating_Basic-Shin_Left" class="toggle" style="display:none" d="M121.21,213.2l0.4-31.15l-3.8-4.92l-8.61,0.38l-3.88,7.28 l4.17,29.18C113.1,215.46,117.99,215.19,121.21,213.2" fill="rgb(255, 255, 255)"/>
<g id="Ridge_Basic-Shin_Left" class="toggle" style="display:none" fill="rgb(255, 255, 255)"/>
</g>
</g>
<g id="Right-Shin"><g id="Basic_Shin_Right" class="option" style="display: inherit;">
<path id="Shin_Basic-Shin_Right" d="M46.67,181.46l4.73-6.13l10.53,0.47l4.62,8.67l-4.39,30.69 c-4.45,2.3-11.19,1.91-15.07-1.05L46.67,181.46" fill="rgb(112, 112, 112)"/>
<path id="Trauma-Plating_Basic-Shin_Right" class="toggle" style="display:none" d="M48.84,213.2l-0.4-31.15l3.8-4.92l8.61,0.38l3.88,7.28 l-4.17,29.18C56.95,215.46,52.05,215.19,48.84,213.2" fill="rgb(255, 255, 255)"/>
<g id="Ridge_Basic-Shin_Right" class="toggle" style="display:none" fill="rgb(255, 255, 255)"/>
</g>
</g>
</g>
<g id="ShinsDecals" mask="url(#ShinsMask)">
</g>
<g id="Foot">
<g id="Left-Ankle"><g id="Heavy_Ankle_Left" class="option" style="display: inherit;">
<path id="Plate_Heavy-Ankle_Left" d="M107.71,219.76l0.31,3.13l6.46,8.04l6.29-2.82l6.85-1.76l-5.17-9.15 c-2.61-0.36-5.65-0.05-9.17,1l-1.95,1.71L107.71,219.76" fill="rgb(112, 112, 112)"/>
<path id="Trim_Heavy-Ankle_Left" d="M113.28,218.22l0.74,0.89l-2.3,1.95l-2.61-0.11l0.09,1.27l5.6,6.88l5.61-2.61 l6.76-1.6l0.7,1.41l-7.09,1.83l-6.29,2.82l-6.46-8.04l-0.31-3.13l3.61,0.16L113.28,218.22" fill="rgb(78, 136, 208)"/>
</g></g>
<g id="Left-Toe"><g id="None_Toe_Left" class="option" style="display: inherit;">
</g>
</g>
<g id="Right-Ankle"><g id="Heavy_Ankle_Right" class="option" style="display: inherit;">
<path id="Plate_Heavy-Ankle_Right" d="M62.35,219.76l-0.31,3.13l-6.46,8.04l-6.29-2.82l-6.85-1.76l5.17-9.15 c2.61-0.36,5.65-0.05,9.17,1l1.95,1.71L62.35,219.76" fill="rgb(112, 112, 112)"/>
<path id="Trim_Heavy-Ankle_Right" d="M56.78,218.22l-0.74,0.89l2.3,1.95l2.61-0.11l-0.09,1.27l-5.6,6.88 l-5.62-2.61l-6.76-1.6l-0.7,1.41l7.1,1.83l6.29,2.82l6.46-8.04l0.31-3.13l-3.61,0.16L56.78,218.22" fill="rgb(78, 136, 208)"/>
</g></g>
<g id="Right-Toe"><g id="None_Toe_Right" class="option" style="display: inherit;">
</g>
</g>
</g>
<g id="FootDecals" mask="url(#FootMask)">
</g>
<g id="Knees">
<g id="Left-Knee"><g id="Heavy_Knee_Left" class="option" style="display: inherit;">
<g id="Missiles_Heavy-Knee_Left" class="toggle" style="display:none"/>
<path id="Plate-2_Heavy-Knee_Left" d="M118.09,155.54l-2.97-1.79l-14.81,2.53l-2.15,2.66l2.9,14.76l5.83,0.13 l8.31-1.42l5.78-2.08L118.09,155.54z" fill="rgb(78, 136, 208)"/>
<g id="Plate-1_Heavy-Knee_Left" fill="rgb(112, 112, 112)">
<path d="M117.37,156.35l-2.73-1.73l-13.56,2.32l-1.95,2.53l2.8,14.24l4.96,0.13l8.31-1.42l4.96-1.82L117.37,156.35z "/>
<path d="M112.62,158.35l-8.31,1.42l2.59,14.07l4.31-0.16l4-1.26L112.62,158.35z"/>
<path d="M104.31,159.77l-3.22-2.83l-1.95,2.53L104.31,159.77z"/>
<path d="M112.62,158.35l2.02-3.72l2.73,1.73L112.62,158.35z"/>
</g>
<g id="Trim_Heavy-Knee_Left" fill="rgb(184, 108, 0)">
<path d="M98.2,164.01l-0.46,1.12l1.64,8.91l0.64-0.11L98.2,164.01z"/>
<path d="M113.51,168.21l-6.53,1.12l0.64,3.48l6.53-1.12L113.51,168.21z"/>
<path d="M98.85,162.4l-0.91,0.16l2.09,11.37l1.06-0.18l-0.01-0.05h-0.02L98.85,162.4z"/>
<path d="M118.97,160.04l2.02,10.29l-0.19,0.07l1.07-0.18l-1.9-10.34L118.97,160.04z"/>
</g>
</g></g>
<g id="Right-Knee"><g id="Heavy_Knee_Right" class="option" style="display: inherit;">
<g id="Missiles_Heavy-Knee_Right" class="toggle" style="display:none"/>
<path id="Plate-2_Heavy-Knee_Right" d="M51.91,155.54l2.97-1.79l14.81,2.53l2.15,2.66l-2.9,14.76l-5.83,0.13 l-8.32-1.42l-5.78-2.08L51.91,155.54z" fill="rgb(78, 136, 208)"/>
<g id="Plate-1_Heavy-Knee_Right" fill="rgb(112, 112, 112)">
<path d="M52.63,156.35l2.73-1.73l13.56,2.32l1.95,2.53l-2.8,14.24l-4.96,0.13l-8.32-1.42l-4.96-1.82L52.63,156.35z"/>
<path d="M57.38,158.35l8.31,1.42l-2.59,14.07l-4.31-0.16l-4.01-1.26L57.38,158.35z"/>
<path d="M65.69,159.77l3.22-2.83l1.95,2.53L65.69,159.77z"/>
<path d="M57.38,158.35l-2.02-3.72l-2.73,1.73L57.38,158.35z"/>
</g>
<g id="Trim_Heavy-Knee_Right" fill="rgb(184, 108, 0)">
<path d="M71.8,164.01l0.46,1.12l-1.64,8.91l-0.64-0.11L71.8,164.01z"/>
<path d="M56.49,168.21l6.53,1.12l-0.64,3.48l-6.53-1.12L56.49,168.21z"/>
<path d="M71.15,162.4l0.91,0.16l-2.09,11.37l-1.06-0.18l0.01-0.05h0.02L71.15,162.4z"/>
<path d="M51.03,160.04l-2.02,10.29l0.19,0.07l-1.07-0.18l1.9-10.34L51.03,160.04z"/>
</g>
</g></g>
</g>
<g id="KneesDecals" mask="url(#KneesMask)">
</g>
<g id="Thighs">
<g id="Left-Thigh"><g id="Basic_Thigh_Left" class="option" style="display: inherit;">
<path id="Thigh_Basic-Thigh_Left" d="M119.66,114.13c0,0-5.22-6.67-7.89-7.78c-2.53-1.05-5.91-0.6-8.08,1.13 c-3.31,2.64-10.92,8.35-11.78,14.71c-0.96,7.1,4.24,22.8,6,27.87c0.6,1.72,2.87,2.51,4.61,2.57c3.22,0.12,12.01-0.15,14.11-4.87 C119.49,141.34,119.66,114.13,119.66,114.13" fill="rgb(112, 112, 112)"/>
<path id="Trauma-Plate_Basic-Thigh_Left" class="toggle" style="display:none" d="M117.89,114.74c-0.78-0.97-2.65-3.22-4.46-4.95 c-0.86-0.82-1.68-1.54-2.34-1.82c-1.97-0.82-4.61-0.47-6.3,0.88c-1.92,1.53-5.35,4.12-7.95,7.29c-1.58,1.92-2.88,4.05-3.18,6.29 c-0.94,6.9,4.2,22.13,5.92,27.06c0.15,0.43,0.56,0.7,0.99,0.91c0.64,0.31,1.38,0.46,2.02,0.49c1.8,0.07,5.47,0.02,8.54-1 c1.7-0.56,3.24-1.38,3.89-2.83c0.81-1.82,1.35-5.42,1.77-9.56C117.68,128.66,117.86,117.46,117.89,114.74" fill="rgb(255, 255, 255)"/>
<g id="Ridge_Basic-Thigh_Left" class="toggle" style="display:none" fill="rgb(255, 255, 255)"/>
</g>
</g>
<g id="Right-Thigh"><g id="Basic_Thigh_Right" class="option" style="display: inherit;">
<path id="Thigh_Basic-Thigh_Right" d="M50.34,114.13c0,0,5.22-6.67,7.89-7.78c2.53-1.05,5.91-0.6,8.08,1.13 c3.31,2.64,10.92,8.35,11.78,14.71c0.96,7.1-4.24,22.8-6,27.87c-0.6,1.72-2.87,2.51-4.61,2.57c-3.22,0.12-12.01-0.15-14.11-4.87 C50.51,141.34,50.34,114.13,50.34,114.13" fill="rgb(112, 112, 112)"/>
<path id="Trauma-Plate_Basic-Thigh_Right" class="toggle" style="display:none" d="M52.11,114.74c0.78-0.97,2.65-3.22,4.46-4.95 c0.86-0.82,1.68-1.54,2.33-1.82c1.97-0.82,4.61-0.47,6.3,0.88c1.92,1.53,5.35,4.12,7.95,7.29c1.58,1.92,2.88,4.05,3.18,6.29 c0.94,6.9-4.2,22.13-5.92,27.06c-0.15,0.43-0.56,0.7-0.99,0.91c-0.64,0.31-1.38,0.46-2.02,0.49c-1.8,0.07-5.47,0.02-8.54-1 c-1.7-0.56-3.24-1.38-3.89-2.83c-0.81-1.82-1.35-5.42-1.77-9.56C52.32,128.66,52.14,117.46,52.11,114.74" fill="rgb(255, 255, 255)"/>
<g id="Ridge_Basic-Thigh_Right" class="toggle" style="display:none" fill="rgb(255, 255, 255)"/>
</g>
</g>
</g>
<g id="ThighsDecals" mask="url(#ThighsMask)">
</g>
<g id="Groin">
<g id="None_Groin" class="option" style="display: inherit;">
</g></g>
<g id="GroinDecals" mask="url(#GroinMask)">
</g>
<g id="Waist">
<g id="Accessories_Waist">
<g id="Kama" class="toggle" style="display:none"/>
<g id="Loin-Cloth" class="toggle" style="display:none"/>
<g id="Left-Holster" class="toggle" style="display:none"/>
<g id="Right-Holster" class="toggle" style=""><g id="Belt-Holster_Right" class="option" style="display: inherit;">
<g id="Weapon_Belt-Holster-Right">
<g id="Main_Weapon_Belt-Holster-Right" fill="rgb(87, 87, 87)">
<path d="M60.06,89.79l0.25-3.73l-0.65-0.04l0.16-2.35l0.65,0.04l0.08-1.22c0.03-0.4-0.48-0.75-1.14-0.8 c-1.5-0.1-4.08-0.27-5.58-0.37c-0.66-0.04-1.21,0.24-1.24,0.64l-0.08,1.22l0.65,0.04L53,85.57l-0.65-0.04l-0.25,3.73l1.52,0.1 L52.93,99.7l4.91,0.33l0.69-10.33L60.06,89.79z"/>
<path d="M52.79,88.76l0.87,0.06l-0.83,12.42l4.92,0.33l0.83-12.42l0.87,0.06l0.19-2.83l-6.66-0.44L52.79,88.76z"/>
<path d="M54.59,82.18l3.94,0.26l-0.26,3.83l-3.94-0.26L54.59,82.18z"/>
<path d="M57.37,90.19l0.65,0.04l-0.65,9.77l-0.65-0.04L57.37,90.19z"/>
<path d="M55.87,87.85l0.65,0.04l-0.65,9.76l-0.65-0.04L55.87,87.85z"/>
<path d="M54.07,89.97l0.65,0.04l-0.65,9.76l-0.65-0.04L54.07,89.97z"/>
</g>
<g id="Accent_Weapon_Belt-Holster-Right" fill="rgb(184, 108, 0)">
<path d="M57.67,86.63l-0.03,0.39l-2.78-0.18l0.03-0.39L57.67,86.63z"/>
<path d="M57.64,87.02l-0.03,0.39l-2.78-0.18l0.03-0.39L57.64,87.02z"/>
<path d="M57.7,86.24l-0.03,0.39l-2.78-0.18l0.03-0.39L57.7,86.24z"/>
<path d="M58.02,81.43l-0.03,0.39l-2.78-0.18l0.03-0.39L58.02,81.43z"/>
<path d="M57.89,82.4l0.65,0.04l-0.26,3.83l-0.65-0.04L57.89,82.4z"/>
<path d="M54.59,82.18l0.65,0.04l-0.26,3.83l-0.65-0.04L54.59,82.18z"/>
<path d="M54.72,90.01l0.98,0.06l-0.66,9.77l-0.98-0.07L54.72,90.01z"/>
<path d="M56.38,90.12l0.98,0.06l-0.65,9.77l-0.98-0.07L56.38,90.12z"/>
</g>
</g>
<path id="Holster_Belt-Holster-Right" d="M58.39,104.11l2.57-15.56l-8.61,10.96l-0.82,21.48 c1.49,1.96,3.16,2.16,5.03,0.37L58.39,104.11z" fill="rgb(34, 34, 34)"/>
</g>
</g>
<g id="Left-Trophy" class="toggle" style="display:none"/>
<g id="Right-Trophy" class="toggle" style="display:none"/>
</g>
<g id="Under-Belt"><g id="Girth-Belt" class="option" fill="rgb(112, 112, 112)" style="display: inherit;">
<path d="M85.04,76.62c-7.36,0-22.09-1.86-22.09-1.86l0.48-1.58c0,0,14.37,1.24,21.61,1.86 c7.21-0.62,21.61-1.86,21.61-1.86l0.48,1.58C107.13,74.76,92.4,76.62,85.04,76.62z"/>
<path d="M85.04,78.2c-7.52,0-22.55-1.86-22.55-1.86l0.46-1.58c0,0,18.41,1.55,22.09,1.86 c3.68-0.31,22.09-1.86,22.09-1.86l0.46,1.58C107.59,76.34,92.56,78.2,85.04,78.2z"/>
<path d="M85.04,79.78c-7.63,0-22.9-1.86-22.9-1.86l0.34-1.58c0,0,18.79,1.55,22.55,1.86 c3.76-0.31,22.55-1.86,22.55-1.86l0.34,1.58C107.94,77.92,92.67,79.78,85.04,79.78z"/>
<path d="M85.04,81.36c-7.73,0-23.18-1.86-23.18-1.86l0.29-1.58c0,0,19.08,1.55,22.9,1.86 c3.82-0.31,22.9-1.86,22.9-1.86l0.29,1.58C108.22,79.49,92.77,81.36,85.04,81.36z"/>
<path d="M85.04,82.94c-7.81,0-23.44-1.86-23.44-1.86l0.26-1.58c0,0,19.32,1.55,23.18,1.86 c3.86-0.31,23.18-1.86,23.18-1.86l0.26,1.58C108.49,81.07,92.86,82.94,85.04,82.94z"/>
<path d="M85.04,84.52c-7.9,0-23.69-1.86-23.69-1.86l0.25-1.58c0,0,19.54,1.55,23.44,1.86 c3.91-0.31,23.44-1.86,23.44-1.86l0.25,1.58C108.73,82.65,92.94,84.52,85.04,84.52z"/>
<path d="M85.04,86.1c-7.98,0-23.93-1.86-23.93-1.86l0.24-1.58c0,0,19.74,1.55,23.69,1.86 c3.95-0.31,23.69-1.86,23.69-1.86l0.24,1.58C108.97,84.23,93.02,86.1,85.04,86.1z"/>
<path d="M85.04,87.68c-8.06,0-24.18-1.86-24.18-1.86l0.25-1.58c0,0,19.94,1.55,23.93,1.86 c3.99-0.31,23.93-1.86,23.93-1.86l0.25,1.58C109.22,85.81,93.1,87.68,85.04,87.68z"/>
<path d="M85.04,89.25c-8.15,0-24.45-1.86-24.45-1.86l0.27-1.58c0,0,20.15,1.55,24.18,1.86 c4.03-0.31,24.18-1.86,24.18-1.86l0.27,1.58C109.49,87.39,93.19,89.25,85.04,89.25z"/>
<path d="M85.04,90.83c-8.25,0-24.76-1.86-24.76-1.86l0.31-1.58c0,0,20.38,1.55,24.45,1.86 c4.08-0.31,24.45-1.86,24.45-1.86l0.31,1.58C109.8,88.97,93.29,90.83,85.04,90.83z"/>
</g>
</g>
<g id="Belt"><g id="Pouch-Belt-4" class="option" style="display: inherit;">
<path id="Main_Pouch-Belt-4" d="M109.38,84.25c-5.47,0.49-17.98,2.27-24.29,2.27c-6.38,0-18.88-1.79-24.28-2.26 l0.81-6.37c4.44,0.39,17.3,2.2,23.48,2.2c5.99,0,18.59-1.79,23.33-2.22L109.38,84.25z" fill="rgb(34, 34, 34)"/>
<rect id="Buckle_Pouch-Belt-4" x="80.61" y="79.49" width="9.05" height="7.39" fill="rgb(163, 163, 163)"/>
<g id="Pouches_Pouch-Belt-4" fill="rgb(34, 34, 34)">
<g>
<g>
<path d="M66.42,76.75c-1.32-0.09-2.64,0.14-3.85,0.67h0l5.92,0.34L70.1,77C70.1,77,68.06,76.86,66.42,76.75z"/>
<path d="M70.3,77.24c0.01-0.07-0.03-0.14-0.09-0.19c-0.06-0.04-0.14-0.05-0.21-0.02 c-0.53,0.25-1.52,0.72-1.52,0.72s-0.64,7.72-0.79,9.57c-0.01,0.08,0.03,0.15,0.09,0.19c0.06,0.04,0.14,0.04,0.21,0.01 c0.54-0.29,1.06-0.47,1.59-0.56c0.1-0.02,0.17-0.1,0.17-0.19C69.87,83.59,69.99,80.41,70.3,77.24z"/>
<path d="M68.49,77.76l-5.92-0.34c-0.04,1.51-0.18,3.02-0.26,4.54c-0.09,1.75-0.13,3.51-0.3,5.28 c-0.01,0.06,0.01,0.12,0.05,0.16c0.04,0.04,0.1,0.07,0.15,0.07c1.83-0.02,3.66,0.08,5.47,0.31c0.06,0.01,0.11-0.01,0.16-0.04 s0.07-0.09,0.08-0.14c0.06-0.93,0.31-4.51,0.31-4.51L68.49,77.76z"/>
<path d="M68.49,77.76l-5.92-0.34c0,0-0.08,0.74-0.19,1.64c-0.1,0.83,0.16,1.67,0.7,2.31 c0.54,0.64,1.33,1.03,2.17,1.08c0,0,0,0,0,0c0.84,0.05,1.67-0.25,2.28-0.83c0.61-0.58,0.96-1.38,0.96-2.22 C68.49,78.5,68.49,77.76,68.49,77.76z"/>
<path d="M65.32,81.27c0.21,0.01,0.37,0.21,0.36,0.44c-0.01,0.23-0.19,0.4-0.4,0.39s-0.37-0.21-0.36-0.44 C64.93,81.43,65.11,81.26,65.32,81.27z"/>
</g>
</g>
<g>
<path d="M58.83,77.31l0.44-0.68l2.27,0.07l0.28,0.85L58.83,77.31z"/>
<path d="M61.81,77.64c0.01-0.06-0.01-0.11-0.05-0.16c-0.04-0.04-0.09-0.07-0.15-0.07 c-0.69-0.03-2.78-0.11-2.78-0.11l-0.4,8.96c0.11,0.27,1.76,0.43,2.69,0.39c0.11-0.01,0.19-0.09,0.19-0.2 C61.37,83.51,61.47,80.57,61.81,77.64z"/>
</g>
<g>
<g>
<path d="M103.76,76.75c1.32-0.09,2.64,0.14,3.85,0.67h0l-5.92,0.34L100.08,77 C100.08,77,102.13,76.86,103.76,76.75z"/>
<path d="M99.88,77.24c-0.01-0.07,0.03-0.14,0.09-0.19c0.06-0.04,0.14-0.05,0.21-0.02 c0.53,0.25,1.52,0.72,1.52,0.72s0.64,7.72,0.79,9.57c0.01,0.08-0.03,0.15-0.09,0.19c-0.06,0.04-0.14,0.04-0.21,0.01 c-0.54-0.29-1.06-0.47-1.59-0.56c-0.1-0.02-0.17-0.1-0.17-0.19C100.31,83.59,100.19,80.41,99.88,77.24z"/>
<path d="M101.69,77.76l5.92-0.34c0.04,1.51,0.18,3.02,0.26,4.54c0.09,1.75,0.13,3.51,0.3,5.28 c0,0.06-0.01,0.12-0.05,0.16c-0.04,0.04-0.1,0.07-0.15,0.07c-1.83-0.02-3.66,0.08-5.47,0.31c-0.06,0.01-0.11-0.01-0.16-0.04 s-0.07-0.09-0.08-0.14c-0.06-0.93-0.31-4.51-0.31-4.51L101.69,77.76z"/>
<path d="M101.69,77.76l5.92-0.34c0,0,0.08,0.74,0.19,1.64c0.09,0.83-0.16,1.67-0.7,2.31 c-0.54,0.64-1.33,1.03-2.17,1.08c0,0,0,0,0,0c-0.84,0.05-1.67-0.25-2.28-0.83c-0.61-0.58-0.96-1.38-0.96-2.22 C101.69,78.5,101.69,77.76,101.69,77.76z"/>
<path d="M104.86,81.27c-0.21,0.01-0.37,0.21-0.36,0.44c0.01,0.23,0.19,0.4,0.4,0.39s0.37-0.21,0.36-0.44 C105.25,81.43,105.07,81.26,104.86,81.27z"/>
</g>
</g>
<g>
<path d="M111.35,77.31l-0.44-0.68l-2.27,0.07l-0.28,0.85L111.35,77.31z"/>
<path d="M108.38,77.64c-0.01-0.06,0.01-0.11,0.05-0.16c0.04-0.04,0.09-0.07,0.15-0.07 c0.69-0.03,2.78-0.11,2.78-0.11l0.4,8.96c-0.11,0.27-1.75,0.43-2.68,0.39c-0.11-0.01-0.19-0.09-0.19-0.2 C108.81,83.51,108.71,80.57,108.38,77.64z"/>
</g>
</g>
</g></g>
</g>
<g id="WaistDecals" mask="url(#WaistMask)">
</g>
<g id="Extras_Front">
<g id="Front"><g id="None_Front" class="option" style="display: inherit;">
</g>
</g>
</g>
<g id="Extras-FrontDecals" mask="url(#FrontMask)">
</g>
</g>
</svg>