<?xml version='1.0' encoding='UTF-8'?><svg version='1.1' xmlns='http://www.w3.org/2000/svg'><metadata><rdf:rdf xmlns:rdf="http://www.w3.org/1999/02/22-rdf-syntax-ns#" xmlns:rdfs="http://www.w3.org/2000/01/rdf-schema#" xmlns:dc="http://purl.org/dc/elements/1.1/"> <rdf:description> <dc:creator>MandoCreator</dc:creator> <dc:publisher>https://www.mandocreator.com</dc:publisher> <dc:description>Your Beskar'gam - created by MandoCreator</dc:description> <dc:format>image/svg+xml</dc:format> <dc:type>Image</dc:type> <dc:title>MandoCreator - Ner Berskar'gam</dc:title> <dc:date>2021-10-08T16:30:25.356Z</dc:date> </rdf:description> </rdf:rdf></metadata><svg version="1.1" id="Female" xmlns="http://www.w3.org/2000/svg" viewBox="0 -55 169 300" style="fill: white; fill-rule: evenodd; stroke: black; stroke-width: 0.2px; pointer-events: none; position: relative; height: 100%;">
<g id="Extras_Back">
<g id="Back">
<path id="Torn-Full-Cape_Back" class="option" d="M67.8,17.9C55.9,22.4,42.7,44,41,60.4c-1,10.4-6.1,20.9-5.6,31.2 c0.5,10.5-4.8,21.3-5.2,31.8c-0.3,9.4-3.1,13.7-4.7,23c-2.4,13.9-5.1,23.1-7.3,37.1c-1.7,11.1-6.9,20.3-9.4,23.7 c-0.1,0.1,2.5-1.2,5.7-1.3c0.9,0,5.6-6.8,5.6-6.8s5.8,4.8,7,7.5c1.6-1,2.8-15.4,4.5-16c0.9-0.3,2.7,18.1,2.7,18.1s2.8-5.5,3.9-5.5 c2.3,0,6.5,2,8.8,2.3c2.5,0.3,5.1-3.9,7.8-3.2c4.2,1,8.4,0.9,12.5,1.5c2.9,0.4,5.9,6.1,8.9,6.1c3.7,0,3.1-8.6,6.9-9.4 c3.2-0.7,7.6,6.9,7.6,6.9s1-25.4,4.2-26.4c4.1-1.4,19.7,19.1,24,18.7c1.3-0.1,2.9-12.9,4.2-12.9c2.7,0.1,5.1,13.2,7.8,13.7 c3.4,0.6,5-5.7,8.4-4.9c0.9,0.2,3.6,7.7,4.5,7.9c2.1,0.5,4.9,1.7,7.1,1.6c0.1,0-0.7-5-0.8-5.5c-0.5-2.4-1.2-4.7-2.2-7 c-1.1-2.7-2.5-5.3-4.1-7.7c-7.2-11.4-4.7-23.8-6-37.2c-1.3-13,0.1-26-2.1-39c-1.9-11.5-8.7-22.2-10.4-33.8 c-2-13.6-6.6-28.2-10.7-41.4C109.4,17.6,79.7,13.4,67.8,17.9z M71.1,190.4c-1,2.5-1.3,5-1.1,7.7c0.1,1.2,0.5,2.4,1.1,3.5 c0.1,0.1,0.1,0.4,0.2,0.3C75.8,197.9,71.1,190.4,71.1,190.4z M36.2,165.8c-0.4,7.9-1.1,15.8-1.1,23.6c0,1.5,0,2.9,0.2,4.4 c0,0.2,0.2,2.4,0.4,2.4c2.7-0.5,1.4-7.8,2-10.1C39.8,178.3,36.2,165.8,36.2,165.8z M129.5,193.1c-0.2,2.8,0.6,2.5,1.4,1.1 c0.7-1.4,1.3-4,0.6-5.6L129.5,193.1z M117.9,168.3c-0.7,4.7,0.4,8.7,0.7,13.4c0.1,1.5,0.1,3,0.1,4.5c0,0.5,0,1,0,1.5 c0,0.3-0.2,1,0,0.8c3.6-3.7,3.2-10.9,2-15.5L117.9,168.3z M75.3,182.2c0,1.2,0,2.5,0.1,3.7c0.3,2.4,1.7-1.4,1.7-2.4 c0-1.3-0.9-2.9-1.2-4.2L75.3,182.2z" style="fill: rgb(20, 18, 14); display: inherit;"/></g>
</g>
<g id="Suit">
<g id="Neck-Seal">
<g id="Standard-Neck-Seal" class="option" style="fill: rgb(43, 28, 23); display: inherit;">
<path d="M95.2,8.5c0-0.9-0.7-1.7-1.6-1.7c0,0-6.1,0.9-9.1,0.9c-3,0-9.1-0.9-9.1-0.9c-0.9,0-1.6,0.7-1.6,1.7 c0,0.9,0.7,1.6,1.6,1.6c0,0,6.1,0.9,9.1,0.9c3,0,9.1-0.9,9.1-0.9C94.4,10.1,95.2,9.4,95.2,8.5z"/>
<path d="M95.7,10.4c0-1-0.8-1.7-1.7-1.7c0,0-6.4,0.9-9.5,0.9s-9.5-0.9-9.5-0.9c-0.9,0-1.7,0.8-1.7,1.7 c0,1,0.8,1.7,1.7,1.7c0,0,6.4,0.9,9.5,0.9s9.5-0.9,9.5-0.9C95,12.1,95.7,11.3,95.7,10.4z"/>
<path d="M96.3,12.8c0-1-0.8-1.8-1.8-1.8c0,0-6.7,1-10.1,1c-3.4,0-10.1-1-10.1-1c-1,0-1.8,0.8-1.8,1.8 s0.8,1.8,1.8,1.8c0,0,6.7,1,10.1,1c3.4,0,10.1-1,10.1-1C95.5,14.6,96.3,13.8,96.3,12.8z"/>
<path d="M96.9,15c0-1.1-0.8-1.9-1.9-1.9c0,0-7,1-10.6,1c-3.5,0-10.6-1-10.6-1c-1,0-1.9,0.9-1.9,1.9 c0,1.1,0.8,1.9,1.9,1.9c0,0,7,1,10.6,1c3.5,0,10.6-1,10.6-1C96.1,16.9,96.9,16,96.9,15z"/>
<path d="M97.5,17.1c0-0.8-0.9-1.5-2-1.5c0,0-7.4,0.8-11.1,0.8c-3.7,0-11.1-0.8-11.1-0.8c-1.1,0-2,0.6-2,1.5 c0,0.8,0.9,1.5,2,1.5c0,0,7.4,0.8,11.1,0.8c3.7,0,11.1-0.8,11.1-0.8C96.6,18.6,97.5,17.9,97.5,17.1z"/>
<path d="M97.5,19.6c0-0.8-0.9-1.5-2-1.5c0,0-7.4,0.8-11.1,0.8c-3.7,0-11.1-0.8-11.1-0.8c-1.1,0-2,0.6-2,1.5 c0,0.8,0.9,1.4,2,1.4c0,0,7.4,1.5,11.1,1.5c3.7,0,11.1-1.5,11.1-1.5C96.6,21,97.5,20.4,97.5,19.6z"/>
</g>
</g>
<g id="Flight-Suit" style="fill: rgb(43, 28, 23);">
<path d="M38.9,64l5.1-18.4l11.8-8l1.8,16.1c0,0-5.1,9.7-6.9,14.2c-1.8,4.6-5,15.1-5.4,16.5l-2.8,24.4l-8.1-2.6 c0,0-0.3-16.9,0.4-24C35.5,76,38.9,64,38.9,64z"/>
<path d="M130.1,64l-5.1-18.5l-11.7-7.9l-1.9,16.2c0,0,5.1,9.6,6.8,14.1c1.8,4.6,5,15.1,5.4,16.5l2.8,24.4l8.1-2.6 c0,0,0.3-16.9-0.4-24C133.5,76,130.1,64,130.1,64z"/>
<path d="M84.5,116.1c-1,0.1-1.9,0.5-2.2,1.2c-2.9,6.2-8.9,34.4-10.7,39.6c-0.9,2.8-1.7,18.3-3.3,27.3 c-1.9,10.8-8.2,37.3-8.2,37.3l-10.9-1.1c0,0-1.4-26.6-1-36.3c0.3-7.4,3.3-21.8,3.3-21.8s0.7-5.3,0.7-7.9c0.1-9.6,0.9-31,2.8-43.3 c1.5-9.7,10.6-30.1,10.6-30.1s11.9,4.7,18.8,4.7c7,0,18.9-4.8,18.9-4.8s8.6,20.5,10.1,30.2c1.9,12.3,3.2,33.7,3.2,43.3 c0,2.7,0.7,7.9,0.7,7.9s3,14.5,3.3,21.8c0.4,9.7-1,36.3-1,36.3l-10.9,1.1c0,0-6.3-26.5-8.2-37.3c-1.6-9-2.3-24.5-3.3-27.3 c-1.7-5.2-7.7-33.4-10.7-39.6C86.5,116.6,85.6,116.2,84.5,116.1L84.5,116.1z"/>
</g>
<g id="Sleeves" class="toggle" style="fill: rgb(34, 22, 18);">
<path d="M42.6,45.6l0.8,0.3l12.4-8.3c0,0,0.4,8.8,1.4,14.1c0.1,0.7,0.4,1.7,0.6,2.7l-1.6,5.3c0,0-5.6-2.2-8.1-3.6 c-2.4-1.4-6.7-5-6.7-5L42.6,45.6z"/>
<path d="M111.3,54.4c0.3-1.1,0.5-2,0.6-2.7c1-5.3,1.4-14.1,1.4-14.1l12.4,8.3l0.8-0.3l1.2,5.5c0,0-4.3,3.6-6.7,5 c-2.5,1.4-8.1,3.6-8.1,3.6L111.3,54.4z"/>
</g>
</g>
<g id="Boots">
<g id="Gunslinger_Boots" class="option" style="display: inherit;">
<g id="Main_Gunslinger-Boot" style="fill: rgb(130, 115, 93);">
<path d="M62.4,227.8c0,0.2-0.6,3-3.8,3.8c-1,0.3-2.8-0.3-4-0.9c-1.5-0.8-3.2-1.4-4.8-1.9l0,0.1c0,0,0,0.1-0.1,0.1 c-0.5,0.7-1.1,1.4-1.7,2l0,0l0,0c-0.1,0.1-0.1,0.1-0.2,0.2c-0.4,0.3-0.7,0.7-1.1,1l-0.1,0.1l-0.1,0.1c0,0-0.1,0-0.1,0.1 c-0.1,0-0.1,0.1-0.2,0.1c-0.8,0.6-1.8,1.4-2.9,1.2c-1-0.1-2.1-0.5-2.9-0.9c-0.7-0.3-1.4-0.8-1.9-1.2c-0.1-0.1-0.3-0.2-0.3-0.4 c-2.3,0.9-4.7,1.2-5.9,3.8c-0.3,0.5-0.5,1.2-0.4,1.8c0.1,0.8,0.9,0.9,1.6,1.1c1.7,0.4,3.1,0.8,5.1,1.2c2.2,0.5,4.2,0.7,6.4,0.6 c1.7-0.1,3.1-0.2,4.5-1.1c0.6-0.4,1.2-0.7,1.7-1.2c1.1-1.1,1.9-2.2,3.3-2.8c1.1-0.5,2.2-0.9,3.3-1.1c1.6-0.4,3.3-0.7,4.1-2.3 C62.6,230.1,62.6,228.9,62.4,227.8L62.4,227.8"/>
<path d="M106.7,227.8c0,0.2,0.6,3,3.8,3.8c1,0.3,2.8-0.3,4-0.9c1.5-0.8,3.2-1.4,4.8-1.9l0,0.1c0,0,0,0.1,0.1,0.1 c0.5,0.7,1.1,1.4,1.7,2l0,0l0,0c0.1,0.1,0.1,0.1,0.2,0.2c0.4,0.3,0.7,0.7,1.1,1l0.1,0.1l0.1,0.1c0,0,0.1,0,0.1,0.1 c0.1,0,0.1,0.1,0.2,0.1c0.8,0.6,1.8,1.4,2.9,1.2c1-0.1,2.1-0.5,2.9-0.9c0.7-0.3,1.4-0.8,1.9-1.2c0.1-0.1,0.3-0.2,0.3-0.4 c2.3,0.9,4.7,1.2,5.9,3.8c0.3,0.5,0.5,1.2,0.4,1.8c-0.1,0.8-0.9,0.9-1.6,1.1c-1.7,0.4-3.1,0.8-5.1,1.2c-2.2,0.5-4.2,0.7-6.4,0.6 c-1.7-0.1-3.1-0.2-4.5-1.1c-0.6-0.4-1.2-0.7-1.7-1.2c-1.1-1.1-1.9-2.2-3.3-2.8c-1.1-0.5-2.2-0.9-3.3-1.1 c-1.6-0.4-3.3-0.7-4.1-2.3C106.4,230.1,106.5,228.9,106.7,227.8L106.7,227.8"/>
</g>
<g id="Bottom_Gunslinger-Boot" style="fill: rgb(130, 115, 93);">
<path d="M62.4,230c-0.1,0.4-0.2,0.9-0.5,1.3c-0.8,1.6-2.6,1.9-4.1,2.3c-1.1,0.3-2.2,0.7-3.3,1.1 c-1.5,0.6-2.2,1.7-3.3,2.8c-0.5,0.5-1.1,0.8-1.7,1.2c-1.5,0.9-2.9,1-4.5,1.1c-2.2,0.1-4.2-0.2-6.4-0.6c-1.9-0.4-3.4-0.7-5.1-1.2 c-0.5-0.1-1.2-0.2-1.5-0.7l0,0l-0.3,0.7l-0.2,1.5c0,0,1.8,1,3.7,1.4c1.9,0.4,5.8,1,5.8,1l0.3-0.6l0.9,0.2l0,0.6l2.1,0.1l0.4-0.6 l0.7,0l-0.1,0.5c0,0,1.3,0,2-0.4c0.1-0.2,0.4-0.5,0.4-0.5l0.5-0.3l-0.1,0.5l1.8-0.7l0.1-0.7l0.5-0.3l0,0.5l1.3-1l0.1-0.6l3.2-2.3 l0.5,1.2l2.3-0.5l0.1-0.5l0.6-0.2l0.4,0.4l1.5-0.6l0-0.5l0.5-0.2l0.1,0.3l1.4-1l0.3-2l0.1-2.2L62.4,230L62.4,230"/>
<path d="M106.6,230c0.1,0.4,0.2,0.9,0.5,1.3c0.8,1.6,2.6,1.9,4.1,2.3c1.1,0.3,2.2,0.7,3.3,1.1 c1.5,0.6,2.2,1.7,3.3,2.8c0.5,0.5,1.1,0.8,1.7,1.2c1.5,0.9,2.9,1,4.5,1.1c2.2,0.1,4.2-0.2,6.4-0.6c1.9-0.4,3.4-0.7,5.1-1.2 c0.5-0.1,1.2-0.2,1.5-0.7l0,0l0.3,0.7l0.2,1.5c0,0-1.8,1-3.7,1.4c-1.9,0.4-5.8,1-5.8,1l-0.3-0.6l-0.9,0.2l0,0.6l-2.1,0.1 l-0.4-0.6l-0.7,0l0.1,0.5c0,0-1.3,0-2-0.4c-0.1-0.2-0.4-0.5-0.4-0.5l-0.5-0.3l0.1,0.5l-1.8-0.7l-0.1-0.7l-0.5-0.3l0,0.5l-1.3-1 l-0.1-0.6l-3.2-2.3l-0.5,1.2l-2.3-0.5l-0.1-0.5l-0.6-0.2l-0.4,0.4l-1.5-0.6l0-0.5l-0.5-0.2l-0.1,0.3l-1.4-1l-0.3-2l-0.1-2.2 L106.6,230L106.6,230"/>
</g>
<g id="Top_Gunslinger-Boot" style="fill: rgb(103, 90, 72);">
<path d="M49.9,228.8c1.9-2.8,3.2-6.2,3.7-9.1l0,0l-0.5,0l0,0l-0.1,0l-0.2,0l-0.3,0l-0.1,0c-0.3,0-0.6-0.1-0.9-0.1 l-0.5-0.1l-0.1,0l0,0l-0.1,0l-0.3-0.1l-0.3-0.1l0,0c-1-0.3-0.9-0.5-0.9-0.5c-0.3,1.3-0.9,2.7-1.5,4c-0.9,1.9-2.7,3.6-4.1,5.1 c-1,1-2.5,2-3.7,2.8c-0.5,0.3-1.1,0.6-1.6,0.8c0.4,0.6,1.4,1.2,2.2,1.6c0.8,0.4,1.9,0.8,2.9,0.9c1,0.1,2.1-0.7,2.9-1.2 C47.6,231.6,48.8,230.3,49.9,228.8L49.9,228.8"/>
<path d="M119.2,228.8c-1.9-2.8-3.2-6.2-3.7-9.1l0,0l0.5,0l0,0l0.1,0l0.2,0l0.3,0l0.1,0c0.3,0,0.6-0.1,0.9-0.1 l0.5-0.1l0.1,0l0,0l0.1,0l0.3-0.1l0.3-0.1l0,0c1-0.3,0.9-0.5,0.9-0.5c0.3,1.3,0.9,2.7,1.5,4c0.9,1.9,2.7,3.6,4.1,5.1 c1,1,2.5,2,3.7,2.8c0.5,0.3,1.1,0.6,1.6,0.8c-0.4,0.6-1.4,1.2-2.2,1.6c-0.8,0.4-1.9,0.8-2.9,0.9c-1,0.1-2.1-0.7-2.9-1.2 C121.5,231.6,120.3,230.3,119.2,228.8L119.2,228.8"/>
</g>
<g id="Side_Gunslinger-Boot" style="fill: rgb(130, 115, 93);">
<path d="M49.8,228.9c1.7,0.5,3.3,1.1,4.8,1.9c1.1,0.6,2.9,1.1,4,0.9c3.2-0.8,3.8-3.8,3.8-3.8c-0.1-0.7-0.8-3.2-1-3.9 c-0.5-1.5-0.4-5.3-0.5-5.3c-2.6,1.4-6,1.1-7.3,1l0,0C53.1,222.7,51.8,226.1,49.8,228.9"/>
<path d="M119.2,228.9c-1.7,0.5-3.3,1.1-4.8,1.9c-1.1,0.6-2.9,1.1-4,0.9c-3.2-0.8-3.8-3.8-3.8-3.8 c0.1-0.7,0.8-3.2,1-3.9c0.5-1.5,0.4-5.3,0.5-5.3c2.6,1.4,6,1.1,7.3,1l0,0C116,222.7,117.3,226.1,119.2,228.9"/>
</g>
</g>
</g>
<g id="Gloves">
<g id="Left-Glove">
<g id="Fingerless_Left_Glove" class="option" style="display: inherit;">
<g id="Fingers_Fingerless_Left_Glove" style="fill: rgb(87, 59, 49);">
<path d="M131.4,123c-0.5,0-0.9,0-1.3,0.1c-0.3,0.1-0.6,0.2-0.9,0.3c-0.8,0.5-0.6,1.7,0.1,2.2c0.9,0.5,2.2,0,2.6-1 C132.1,124.2,131.6,123.4,131.4,123"/>
<path d="M129.9,124c-0.5,0-0.9,0-1.3,0.1c-0.3,0.1-0.6,0.2-0.9,0.3c-0.8,0.5-0.6,1.7,0.1,2.2c0.9,0.5,2.2,0,2.6-1 C130.6,125.2,130.1,124.4,129.9,124"/>
<path d="M128.8,125.4c-0.4,0-1,0.2-1.4,0.3c-0.3,0.1-0.6,0.2-0.8,0.5c-0.8,0.7-0.4,1.8,0.4,2.1 c0.9,0.4,2.2-0.3,2.5-1.4C129.5,126.5,128.8,125.4,128.8,125.4z"/>
<path d="M124.1,118.9c-0.3,1.3-0.5,2-0.5,2s-1.2,2.7-0.9,3.3c0.2,0.6,1.2,1.2,1.8,0.8c0.7-0.4,1.6-2.3,2.2-3.6 c0.2-0.5,0.4-1,0.6-1.6C125,120.2,124.1,118.9,124.1,118.9L124.1,118.9z"/>
<path d="M128.9,125.2c-0.2,0.3-0.4,0.7-0.6,1c-1.1,1.9-2.9,3.6-1.7,5.1c1.1,1.4,3.5-2.3,3.5-2.3l1.1-1.7 C129.4,126.9,128.9,125.2,128.9,125.2z"/>
</g>
<path id="Glove_Fingerless_Left_Glove" d="M131.3,127.4l1.3-1.9c0,0,2.8-5.1,2.9-6.1c0.1-0.8,0-3.3,0-3.3l-0.9-9.9 l-4.4,0.4l-3.6,1.3l-0.3,1.7c0,0-1.3,2-1.6,3.5c-0.2,1-0.1,3.5-0.4,5.2c0,0.2-0.1,0.4-0.1,0.6l0,0c0,0,0.8,1.3,3.1,0.9 c0.3-0.9,0.5-1.7,0.5-1.7s0.8,0.3,1.2,0.7c1.3,1.2,0.8,4.7,0.8,4.7s-0.3,0.7-0.8,1.7C128.9,125.2,129.4,126.9,131.3,127.4z" style="fill: rgb(25, 17, 14);"/>
</g>
</g>
<g id="Right-Glove">
<g id="Fingerless_Right_Glove" class="option" style="display: inherit;">
<g id="Fingers_Fingerless_Right_Glove" style="fill: rgb(87, 59, 49);">
<path d="M37.6,123c0.5,0,0.9,0,1.3,0.1c0.3,0.1,0.6,0.2,0.9,0.3c0.8,0.5,0.6,1.7-0.1,2.2c-0.9,0.5-2.2,0-2.6-1 C36.9,124.2,37.4,123.4,37.6,123"/>
<path d="M39.2,124c0.5,0,0.9,0,1.3,0.1c0.3,0.1,0.6,0.2,0.9,0.3c0.8,0.5,0.6,1.7-0.1,2.2c-0.9,0.5-2.2,0-2.6-1 C38.4,125.2,38.9,124.4,39.2,124"/>
<path d="M40.2,125.4c0.5,0,1,0.2,1.4,0.3c0.3,0.1,0.6,0.2,0.8,0.5c0.8,0.7,0.4,1.8-0.4,2.1 c-0.9,0.4-2.2-0.3-2.5-1.4C39.5,126.5,40.2,125.4,40.2,125.4z"/>
<path d="M44.9,118.9c0.3,1.3,0.5,2,0.5,2s1.1,2.7,0.9,3.3c-0.2,0.6-1.2,1.2-1.8,0.8c-0.7-0.4-1.6-2.3-2.2-3.6 c-0.2-0.5-0.4-1-0.6-1.6C44.1,120.2,44.9,118.9,44.9,118.9L44.9,118.9z"/>
<path d="M40.1,125.2c0.2,0.3,0.4,0.7,0.6,1c1.1,1.9,2.9,3.6,1.7,5.1c-1.1,1.4-3.5-2.3-3.5-2.3l-1.1-1.7 C39.7,126.9,40.1,125.2,40.1,125.2z"/>
</g>
<path id="Glove_Fingerless_Right_Glove" d="M37.8,127.4l-1.3-1.9c0,0-2.8-5.1-2.9-6.1c-0.1-0.8,0-3.3,0-3.3 l0.9-9.9l4.4,0.4l3.6,1.3l0.3,1.7c0,0,1.3,2,1.6,3.5c0.2,1,0.1,3.5,0.4,5.2c0,0.2,0.1,0.4,0.1,0.6l0,0c0,0-0.8,1.3-3.1,0.9 c-0.3-0.9-0.5-1.7-0.5-1.7s-0.8,0.3-1.2,0.7c-1.3,1.2-0.8,4.7-0.8,4.7s0.3,0.7,0.8,1.7C40.1,125.2,39.7,126.9,37.8,127.4z" style="fill: rgb(25, 17, 14);"/>
</g>
</g>
</g>
<g id="Biceps">
<g id="Left-Biceps">
<g id="Basic_Biceps_Left" class="option" style="display: inherit;">
<path id="Main_Basic_Biceps_Left" d="M131.5,57.7c-1.2-2.8-6.3-15-6.3-15s-8.4,3.5-10.5,4.3 c-0.6,0.2-0.9,0.9-0.6,1.5c1,2.4,3.4,8.3,4.9,11.9c0.3,0.8,1,1.5,1.8,1.8c0.8,0.3,1.8,0.3,2.6,0c2.5-1,5.8-2.4,7.5-3.1 C131.5,59,131.8,58.3,131.5,57.7z" style="fill: rgb(34, 22, 18);"/>
<path id="Strap_Basic_Biceps_Left" d="M116.4,54l-4.6,1.9l1.1,3.9l5-2.1L116.4,54" style="fill: rgb(34, 22, 18);"/>
<path id="Trauma-Plate_Basic_Biceps_Left" class="toggle" style="display: none; fill: rgb(255, 255, 255);" d="M131.5,57.2l-5.3-13l-10.3,4.2l4.7,11.4 c0.2,0.4,0.5,0.7,0.9,0.9c0.4,0.2,0.9,0.2,1.3,0L131.5,57.2"/>
</g>
</g>
<g id="Right-Biceps">
<g id="Basic_Biceps_Right" class="option" style="display: inherit;">
<path id="Main_Basic_Biceps_Right" d="M37.5,57.7c1.2-2.8,6.3-15,6.3-15s8.4,3.5,10.5,4.3c0.6,0.2,0.9,0.9,0.6,1.5 c-1,2.4-3.4,8.3-4.9,11.9c-0.3,0.8-1,1.5-1.8,1.8c-0.8,0.3-1.8,0.3-2.6,0c-2.5-1-5.8-2.4-7.5-3.1C37.6,59,37.3,58.3,37.5,57.7z" style="fill: rgb(34, 22, 18);"/>
<path id="Strap_Basic_Biceps_Right" d="M52.7,54l4.6,1.9l-1.1,3.9l-5-2.1L52.7,54" style="fill: rgb(34, 22, 18);"/>
<path id="Trauma-Plate_Basic_Biceps_Right" class="toggle" style="display: none; fill: rgb(255, 255, 255);" d="M37.6,57.2l5.3-13l10.3,4.2l-4.7,11.4 c-0.2,0.4-0.5,0.7-0.9,0.9c-0.4,0.2-0.9,0.2-1.3,0L37.6,57.2"/>
</g>
</g>
</g>
<path id="Vest" d="M90.9,86.3c-4.2,0.9-8.6,0.9-12.8,0c-4.2-0.9-12.5-5.2-12.5-5.2s-7.2-22.8-8.5-29.4 c-1-5.3-1.4-14.1-1.4-14.1L43.4,46l-2.6-1.1c0,0,7.4-16.4,12.3-21.1c4.4-4.3,17-7.3,17-7.3s5.5,6.1,14.6,6.1 c8.6,0,14.6-6.1,14.6-6.1s12.5,3.1,17,7.3c4.9,4.7,12.3,21.1,12.3,21.1l-2.6,1.1l-12.4-8.3c0,0-0.4,8.8-1.4,14.1 c-1.3,6.6-8.5,29.4-8.5,29.4S95.1,85.4,90.9,86.3z" style="fill: rgb(43, 28, 23);"/>
<g class="swappable" id="Chest">
<g id="Chest_Gunslinger" style="visibility: visible;">
<g id="Abdomen_Gunslinger">
<g id="Left_Abdomen_Gunslinger" style="fill: rgb(157, 157, 157);">
<path d="M96.5,71.6l6.2-11.1l-3.2-4.5l-0.3-0.5l-3.5,0.4L94.3,73L96.5,71.6z"/>
<path d="M96.5,71.6l6.2-11.1l1.6,2.3l2.1-1.7l-0.6,7.6L96.5,71.6z"/>
</g>
<g id="Right_Abdomen_Gunslinger" style="fill: rgb(157, 157, 157);">
<path d="M72.5,71.6l-6.2-11.1l-1.6,2.3l-2.1-1.7l0.6,7.6L72.5,71.6z"/>
<path d="M72.5,71.6l-6.2-11.1l3.2-4.5l0.3-0.5l3.5,0.4L74.8,73L72.5,71.6z"/>
</g>
<path id="Center_Abdomen_Gunslinger" d="M84.5,52.2l11.2,3.7L94.3,73l-1.7,1l-8-0.4l-8,0.4l-1.7-1l-1.4-17.2 L84.5,52.2z" style="fill: rgb(150, 150, 150);"/>
</g>
<g id="Chest-Plates_Gunslinger">
<g id="Left-Chest_Gunslinger" style="fill: rgb(150, 150, 150);">
<path d="M85.2,32.9v-2.6l2.2-2.2l20.8-2.4l1.9,11.6l-3.1,23.3l-2.6,2.1l-4.8-6.8L98.1,53l-12.9-3.9l3.4-3.4V36 L85.2,32.9z"/>
<path d="M98.1,53l9.5-5.6l2.4-10l-2.1,10.8l-8.4,7.8L98.1,53z"/>
<path d="M99.2,55.4l-3.5,0.4l-11.2-3.7v-3.2L98.1,53L99.2,55.4z"/>
</g>
<g id="Right-Chest_Gunslinger" style="fill: rgb(150, 150, 150);">
<path d="M83.9,32.9v-2.6l-2.2-2.2l-20.8-2.4L59,37.4l3.1,23.3l2.6,2.1l4.8-6.8l1.4-2.9l12.9-3.9l-3.4-3.4V36 L83.9,32.9z"/>
<path d="M70.9,53l-9.5-5.6l-2.4-10l2.1,10.8l8.4,7.8L70.9,53z"/>
<path d="M69.8,55.4l3.5,0.4l11.2-3.7v-3.2L70.9,53L69.8,55.4z"/>
</g>
</g>
<g id="Iron-Heart_Gunslinger">
<path id="Under-Heart_Gunslinger" d="M83.8,49.1l-3.4-3.4V36l3.4-3.1v-2.6h1.3v2.6l3.4,3.1v9.7l-3.4,3.4l-0.7-0.2 L83.8,49.1z" style="fill: rgb(109, 107, 112);"/>
<path id="Heart_Gunslinger" d="M82,45v-8.1l2.5-2.5l2.5,2.5V45l-2.5,2.5L82,45z" style="fill: rgb(163, 163, 168);"/>
<rect id="Center_Heart_Gunslinger" class="option" x="83.8" y="37.4" width="1.5" height="7.1" style="fill: rgb(163, 163, 168); display: inherit;"/>
</g>
</g>
</g>
<g id="Chest-Attachments">
<g id="No-Device_Accessories_Chest" class="option" style="display: inherit;">
</g>
</g>
<g id="Collar">
<g id="None_Collar" class="option" style="display: inherit;">
</g>
</g>
<svg version="1.1" id="Helmets" xmlns="http://www.w3.org/2000/svg" y="-54px" height="85px" viewBox="0 0 80 80" class="swappable">
<g id="Helmet_Gunslinger" style="visibility: visible;">
<g id="Left-Earcap_Gunslinger" class="toggle">
<g id="Ear-Cap_Left_Gunslinger" style="fill: rgb(142, 142, 146);">
<path d="M59.9,40.8l-0.7,0.3l-0.1,0.7h1.3L59.9,40.8z"/>
<path d="M60.3,35.3l-0.4-0.9l-1.2-0.3V37h1.6V35.3z"/>
<path d="M58.3,42.8l2-0.2l0.1,2.9l-1.6,0.7l0.4,11.5L58.7,58L58.3,42.8z"/>
<path d="M59.9,45.7l0.1,9.7l-0.8,2.3l-0.4-11.5L59.9,45.7z"/>
<path d="M60.8,42.6l-0.9-1.8l-0.7,0.3L59,42.3h-0.3V41l1.6-0.7l0.8,2.3H60.8z"/>
<path d="M60.3,40.3V37h-1.6v4L60.3,40.3z"/>
<path d="M60.3,35.3l0.6,1.7l0.2,5.6l-0.8-2.3V35.3z"/>
<rect x="58.7" y="36" width="1.2" height="1"/>
<path d="M59,42.3h1.6l-0.2-0.5h-1.3L59,42.3z"/>
<path d="M60.2,42.6l-0.3-0.3h-1.2l-0.4,0.4L60.2,42.6z"/>
<path d="M58.7,34.6l-0.9-0.1v0.8l0.5,7.5l0.5-0.4L58.7,34.6L58.7,34.6z"/>
</g>
</g>
<g id="Right-Earcap_Gunslinger" class="toggle">
<g id="Ear-Cap_Right_Gunslinger" style="fill: rgb(142, 142, 146);">
<path d="M20.1,40.9l0.7,0.3l0.1,0.7h-1.3L20.1,40.9z"/>
<path d="M19.7,35.3l0.4-0.9l1.2-0.3V37h-1.6V35.3z"/>
<path d="M21.7,42.8l-2-0.2l-0.1,2.9l1.6,0.7l-0.4,11.5l0.4,0.3L21.7,42.8z"/>
<path d="M20.1,45.7L20,55.4l0.8,2.3l0.4-11.5L20.1,45.7z"/>
<path d="M19.2,42.6l0.9-1.8l0.7,0.3l0.3,1.2h0.3V41l-1.6-0.7L19,42.6H19.2z"/>
<path d="M19.7,40.4V37h1.6v4L19.7,40.4z"/>
<path d="M19.7,35.3L19.1,37l-0.2,5.6l0.8-2.3V35.3z"/>
<rect x="20.1" y="36" width="1.2" height="1"/>
<path d="M21,42.3h-1.6l0.2-0.5h1.3L21,42.3z"/>
<path d="M19.8,42.6l0.3-0.3h1.2l0.4,0.4L19.8,42.6z"/>
<path d="M21.3,34.6l0.9-0.1v0.8l-0.5,7.5l-0.5-0.4L21.3,34.6L21.3,34.6z"/>
</g>
</g>
<g id="Helmet_Pieces_Gunslinger">
<g id="Face_Gunslinger" style="fill: rgb(133, 133, 133);">
<path d="M23.2,59.6l2.4-9.6c0.2,0,3.1,0.3,6,4.6c2,3,2.6,11.4,2.6,11.4L23.2,59.6z"/>
<path d="M56.8,59.6L54.4,50c-0.2,0-3.1,0.3-6,4.6c-2,3-2.6,11.4-2.6,11.4L56.8,59.6z"/>
</g>
<g id="Cheeks_Gunslinger" style="fill: rgb(119, 119, 119);">
<path d="M21.8,42.3l-0.5,15.9l1.9,1.3l2.4-9.6L21.8,42.3z"/>
<path d="M58.2,42.3l0.5,15.9l-1.9,1.3L54.4,50L58.2,42.3z"/>
<path d="M21.8,42.3c0.3,0.1,5.5,1.4,8.6,6.4S34.9,65.3,35,66h-0.8c0,0-0.6-8.5-2.6-11.4c-3-4.4-6-4.6-6-4.6 L21.8,42.3z"/>
<path d="M58.2,42.3c-0.3,0.1-5.5,1.4-8.6,6.4c-3.1,5-4.5,16.6-4.6,17.3h0.8c0,0,0.6-8.5,2.6-11.4c3-4.4,6-4.6,6-4.6 L58.2,42.3z"/>
</g>
<path id="Visor_Gunslinger" d="M22.7,37.8L40,38.7l17.3-0.9v1.4l-13.5,3.1l-1,21.7h-5.7l-0.9-21.7l-13.5-3.1V37.8z" style="fill: rgb(0, 0, 0);"/>
<g id="Eyes_Gunslinger" style="fill: rgb(142, 142, 146);">
<path d="M22.7,37.8v1.4l13.5,3.1L37.1,64l-2.2,2c0,0-1.3-12.2-4.6-17.3c-3.2-5.2-8.7-6.4-8.7-6.4l0.5-7h35.5l0.5,7 c0,0-5.4,1.2-8.7,6.4C46.3,53.9,45,66.1,45,66.1l-2.2-2l0.9-21.7l13.5-3.1v-1.4L40,38.7L22.7,37.8z"/>
<rect x="22.2" y="35.8" width="35.6" height="0.5"/>
</g>
<path id="Dome_Gunslinger" d="M57.8,35.3H22.2c0-9.1,8-16.4,17.8-16.4S57.8,26.2,57.8,35.3z" style="fill: rgb(130, 130, 133);"/>
<path id="Ridge-2_Gunslinger" d="M37.9,37.1l-1.6-1.8V19.2c0,0,1.1-0.6,3.6-0.5c2.5,0,3.6,0.5,3.6,0.5v16.1L42,37.1 H37.9z" style="fill: rgb(142, 142, 146);"/>
<path id="Ridge-1_Gunslinger" d="M38.5,34.9l-0.3-0.3V18.8c0,0,0.6-0.1,1.8-0.1s1.8,0.1,1.8,0.1v15.9L41.5,35 L38.5,34.9L38.5,34.9z" style="fill: rgb(150, 150, 150);"/>
</g>
</g>
</svg>
<g id="Shoulders">
<g id="Left-Shoulder">
<g id="Gunslinger-Bell_Shoulder_Left" class="option" style="display: inherit;">
<path id="Main_Gunslinger-Bell_Shoulder_Left" d="M109.6,18.6c6.2-0.2,20.1,4.8,19.6,22.6l-0.1,3.5l-12.1,5 l-10.6-14.2l0-16.9L109.6,18.6z" style="fill: rgb(142, 142, 146);"/>
<path id="Ridge_Gunslinger-Bell_Shoulder_Left" class="toggle" d="M106.3,18.6L106.3,18.6l0-2.1 c13.2-0.1,25.8,5.6,24.8,27.6l-2,0.5c0-0.3,0-0.5-0.1-0.8l0.1-2.6c0.6-17.8-13.3-22.8-19.6-22.6l-0.7,0 C107.5,18.4,106.6,18.5,106.3,18.6L106.3,18.6L106.3,18.6z" style="fill: rgb(157, 157, 157);"/>
<g id="Trim_Gunslinger-Bell_Shoulder_Left" class="toggle" style="fill: rgb(133, 133, 133);">
<rect x="106.3" y="17.8" width="3.2" height="17.7"/>
<path d="M109.6,34.4l-3.2,1.1L117,49.7l2.6-1.9L109.6,34.4z"/>
<path d="M118,45.8l-1.1,3.9l12.7-5.2V41L118,45.8z"/>
</g>
</g>
</g>
<g id="Right-Shoulder">
<g id="Gunslinger-Bell_Shoulder_Right" class="option" style="display: inherit;">
<path id="Main_Gunslinger-Bell_Shoulder_Right" d="M59.5,18.6c-6.2-0.2-20.1,4.8-19.6,22.6l0.1,3.5l12.1,5 l10.6-14.2l0-16.9L59.5,18.6z" style="fill: rgb(142, 142, 146);"/>
<path id="Ridge_Gunslinger-Bell_Shoulder_Right" class="toggle" d="M62.7,18.6L62.7,18.6l0-2.1 c-13.2-0.1-25.8,5.6-24.8,27.6l2,0.5c0-0.3,0-0.5,0.1-0.8l-0.1-2.6c-0.6-17.8,13.3-22.8,19.6-22.6l0.7,0 C61.6,18.4,62.5,18.5,62.7,18.6L62.7,18.6L62.7,18.6z" style="fill: rgb(157, 157, 157);"/>
<g id="Trim_Gunslinger-Bell_Shoulder_Right" class="toggle" style="fill: rgb(133, 133, 133);">
<rect x="59.5" y="17.8" width="3.2" height="17.7"/>
<path d="M59.5,34.4l3.2,1.1L52.1,49.7l-2.6-1.9L59.5,34.4z"/>
<path d="M51,45.8l1.1,3.9l-12.7-5.2V41L51,45.8z"/>
</g>
</g>
</g>
</g>
<g id="Gauntlets">
<g id="Left-Gauntlets">
<g id="Gunslinger_Gauntlet_Left" class="option" style="display: inherit;">
<g id="Accent-Top_Gunslinger_Gauntlet_Left" style="fill: rgb(157, 157, 157);">
<path d="M134.9,82.1l0.2,5.7l-2.9,0.6l-0.2-5.5L134.9,82.1z"/>
<path d="M131.8,103.1l0.3,3l-2.6,0.3l-0.4-3L131.8,103.1z"/>
</g>
<path id="Top_Gunslinger_Gauntlet_Left" d="M134.9,82.1l1.3-0.4l0.1,26.9l-6.4,0.8l-0.5-4.2l0.1,1.2l2.6-0.3 l-0.3-3l-2.6,0.3l-2.3-19L134.9,82.1l-3,0.9l0.2,5.5l2.9-0.6L134.9,82.1z" style="fill: rgb(150, 150, 150);"/>
<g id="Accent-Bottom_Gunslinger_Gauntlet_Left" style="fill: rgb(157, 157, 157);">
<path d="M122.5,92.8l-0.6-2.4l-1.7,0.4l0.6,2.4L122.5,92.8z"/>
<path d="M123.2,95.5l-0.6-2.4l-1.7,0.4l0.6,2.4L123.2,95.5z"/>
<path d="M129.2,103.5l-5.7,0.8l0.7,2.9l5.4-0.7L129.2,103.5z"/>
</g>
<path id="Bottom_Gunslinger_Gauntlet_Left" d="M129.5,106l-0.3-2.5l-5.7,0.8l0.7,2.9l5.4-0.7l0.4,3 c0,0-2,0.2-3.5,0.3c-0.9,0.1-1.8-0.5-2-1.5c-1.2-5-4.7-20.2-4.7-20.2l7.3-3.3L129.5,106z M123.2,95.5l-0.6-2.4l-1.7,0.4l0.6,2.4 L123.2,95.5z M122.5,92.8l-0.6-2.4l-1.7,0.4l0.6,2.4L122.5,92.8z" style="fill: rgb(133, 133, 133);"/>
<g id="No-Device_Attachment_Gunslinger_Gauntlet_Left" class="option" style="display: inherit;">
</g>
</g>
</g>
<g id="Right-Gauntlets">
<g id="Gunslinger_Gauntlet_Right" class="option" style="display: inherit;">
<g id="Accent-Top_Gunslinger_Gauntlet_Right" style="fill: rgb(157, 157, 157);">
<path d="M34,82.1l-0.2,5.7l2.9,0.6L37,83L34,82.1z"/>
<path d="M37.1,103.1l-0.3,3l2.6,0.3l0.4-3L37.1,103.1z"/>
</g>
<path id="Top_Gunslinger_Gauntlet_Right" d="M34,82.1l-1.3-0.4l-0.1,26.9l6.4,0.8l0.5-4.2l-0.1,1.2l-2.6-0.3l0.3-3 l2.6,0.3l2.3-19L34,82.1l3,0.9l-0.2,5.5l-2.9-0.6L34,82.1z" style="fill: rgb(150, 150, 150);"/>
<g id="Accent-Bottom_Gunslinger_Gauntlet_Right" style="fill: rgb(157, 157, 157);">
<path d="M46.4,92.8l0.6-2.4l1.7,0.4l-0.6,2.4L46.4,92.8z"/>
<path d="M45.8,95.5l0.6-2.4l1.7,0.4l-0.6,2.4L45.8,95.5z"/>
<path d="M39.7,103.5l5.7,0.8l-0.7,2.9l-5.4-0.7L39.7,103.5z"/>
</g>
<path id="Bottom_Gunslinger_Gauntlet_Right" d="M39.4,106l0.3-2.5l5.7,0.8l-0.7,2.9l-5.4-0.7l-0.4,3 c0,0,2,0.2,3.5,0.3c0.9,0.1,1.8-0.5,2-1.5c1.2-5,4.7-20.2,4.7-20.2L42,84.8L39.4,106z M45.8,95.5l0.6-2.4l1.7,0.4l-0.6,2.4 L45.8,95.5z M46.4,92.8l0.6-2.4l1.7,0.4l-0.6,2.4L46.4,92.8z" style="fill: rgb(133, 133, 133);"/>
<g id="No-Device_Attachment_Gunslinger_Gauntlet_Right" class="option" style="display: inherit;">
</g>
</g>
</g>
</g>
<g id="Shins">
<g id="Left-Shin">
<g id="Wraps_Shin_Left" class="option" style="fill: rgb(43, 28, 23); display: inherit;">
<path d="M123.3,219.3c-6.4,1.8-12.5,1.9-18.3,0.4l-1.9-10.5l19.4-0.2L123.3,219.3"/>
<path d="M123.1,211.5c-6.3,2.3-12.7,3.3-19.2,2.8l-1.6-10.4l20-3.2L123.1,211.5"/>
<path d="M122.9,205.6c-10.8,0.9-18.7,3.4-20.3,1.2l-1.3-10.6l20.7,0.5L122.9,205.6"/>
<path d="M122.7,199.5c0,0-7.1,0.8-10.7,0.7c-3.6-0.1-10.9-1.3-10.9-1.3l-0.5-10.1l21,0L122.7,199.5"/>
<path d="M122,190.4c0,0-7.2,1.4-10.8,1.7c-3.7,0.3-10.7,0.1-10.7,0.1l-0.8-10l21.5-2.5L122,190.4"/>
<path d="M121.1,179.1l0.8,8c0,0-7.8-1.7-11.7-1.9c-3.8-0.2-10.7,0.7-10.7,0.7L99,176c0,0,8.3-1.3,12.2-1.1 c3.8,0.2,9.5,1.6,9.5,1.6L121.1,179.1"/>
</g>
</g>
<g id="Right-Shin">
<g id="Full_Shin_Right" class="option" style="display: inherit;">
<path id="Shin_Full-Shin_Right" d="M66.6,174.6c-11.2-2.4-18.5-0.1-18.5-0.1L46,217.7c0,0,4.4,1,9.2,0.8 c3.5-0.1,9-1.5,9-1.5l6-37C70.2,180.1,66.5,179.5,66.6,174.6" style="fill: rgb(37, 28, 26);"/>
<g id="Accent_Full-Shin_Right" class="toggle" style="fill: rgb(34, 22, 18);">
<path d="M69.5,184.1l-6.2-0.4l-0.3,1.6l6.2,0.4L69.5,184.1"/>
<path d="M69.1,186.4l-4.2-0.3l-0.3,1.6l4.3,0.3L69.1,186.4"/>
</g>
<g id="Ridge_Full-Shin_Right" class="toggle" style="fill: rgb(53, 35, 29);">
<path d="M51.9,173.3l3.9-0.5l4.1,0.3l-5.9,45.4c-2,0.1-3.4-0.1-5.7-0.4L51.9,173.3"/>
<path d="M55.9,172.8l-4.9,45.6"/>
</g>
</g>
</g>
</g>
<g id="Foot">
<g id="Left-Ankle">
<g id="Basic_Ankle_Left" class="option" style="display: inherit;">
<path id="Main_Basic-Ankle_Left" d="M128.8,229.3l-6.6-11.7c-3.4-0.2-6.7,0.3-9.7,1.5c-1.1,0.5-2,1.4-2.3,2.5 c0,0,0,0,0,0c-0.3,1,0,2.2,0.8,2.9c2,1.9,5.7,5.2,8,6C123.8,232.2,128.8,229.3,128.8,229.3" style="fill: rgb(89, 78, 62);"/>
<path id="Trauma-Plate_Basic-Ankle_Left" class="toggle" style="display: none; fill: rgb(255, 255, 255);" d="M123,219c-3.3-0.1-8.1,0.6-11,1.9l-0.3,0.9 c-0.2,0.6,0,1.3,0.5,1.7c1.9,1.8,5.2,4.9,7.3,5.6c2.8,1,7-0.6,8.6-1.2L123,219"/>
</g>
</g>
<g id="Left-Toe">
<g id="None_Toe_Left" class="option" style="display: inherit;">
</g>
</g>
<g id="Right-Ankle">
<g id="Basic_Ankle_Right" class="option" style="display: inherit;">
<path id="Main_Basic-Ankle_Right" d="M40.3,229.3l6.6-11.7c3.4-0.2,6.7,0.3,9.7,1.5c1.1,0.5,2,1.4,2.3,2.5 c0,0,0,0,0,0c0.3,1,0,2.2-0.8,2.9c-2,1.9-5.7,5.2-8,6C45.2,232.2,40.3,229.3,40.3,229.3" style="fill: rgb(89, 78, 62);"/>
<path id="Trauma-Plate_Basic-Ankle_Right" class="toggle" style="display: none; fill: rgb(255, 255, 255);" d="M46.1,219c3.3-0.1,8.1,0.6,11,1.9l0.3,0.9 c0.2,0.6,0,1.3-0.5,1.7c-1.9,1.8-5.2,4.9-7.3,5.6c-2.8,1-7-0.6-8.6-1.2L46.1,219"/>
</g>
</g>
<g id="Right-Toe">
<g id="None_Toe_Right" class="option" style="display: inherit;">
</g>
</g>
</g>
<g id="Knees">
<g id="Left-Knee">
<g id="Basic_Knee_Left" class="option" style="display: inherit;">
<g id="Missiles_Basic-Knee_Left" class="toggle" style="display:none"/>
<g id="Knee_Basic-Knee_Left" style="fill: rgb(133, 133, 133);">
<path d="M96.6,160.5l1.4-0.2c0,0,1.1,7.1,1.6,10.2c0.1,0.8-0.4,1.6-1.2,1.7c0,0,0,0,0,0L96.6,160.5z"/>
<path d="M98,160l0.8,5.2c1.1-0.6,3.7,0.5,4.6,3.6c1.6,5.8,3,7.1,8,6.6c3.9-0.4,6.7-2.2,7-4.9c0.5-4,0-9.8-0.2-12.1 c0-0.3-0.2-0.5-0.4-0.7c-0.2-0.2-0.5-0.2-0.7-0.2C113,158,98,160,98,160z"/>
<path d="M97.5,160L98,160l0.9,5.7l-0.5,0.1L97.5,160z"/>
</g>
</g>
</g>
<g id="Right-Knee">
<g id="None-(Nih-Plates)_Knee_Right" class="option" style="display: inherit;">
</g>
</g>
</g>
<g id="Thighs">
<g id="Left-Thigh">
<g id="Basic_Thigh_Left" class="option" style="display: inherit;">
<path id="Thigh_Basic-Thigh_Left" d="M118.2,116.8c0,0-5.1-6.5-7.7-7.6c-2.5-1-5.8-0.6-7.9,1.1 c-3.2,2.6-10.6,8.2-11.5,14.4c-0.9,6.9,4.1,22.3,5.8,27.3c0.6,1.7,2.8,2.5,4.5,2.5c3.1,0.1,11.7-0.1,13.7-4.8 C118.1,143.5,118.2,116.8,118.2,116.8" style="fill: rgb(150, 150, 150);"/>
<path id="Trauma-Plate_Basic-Thigh_Left" class="toggle" style="display: none; fill: rgb(255, 255, 255);" d="M116.5,117.4c-0.8-0.9-2.6-3.2-4.3-4.8 c-0.8-0.8-1.6-1.5-2.3-1.8c-1.9-0.8-4.5-0.5-6.1,0.9c-1.9,1.5-5.2,4-7.7,7.1c-1.5,1.9-2.8,4-3.1,6.2c-0.9,6.8,4.1,21.7,5.8,26.5 c0.1,0.4,0.5,0.7,1,0.9c0.6,0.3,1.3,0.5,2,0.5c1.8,0.1,5.3,0,8.3-1c1.7-0.5,3.2-1.3,3.8-2.8c0.8-1.8,1.3-5.3,1.7-9.4 C116.3,131,116.5,120.1,116.5,117.4"/>
<g id="Ridge_Basic-Thigh_Left" class="toggle" style="display: none; fill: rgb(255, 255, 255);"/>
</g>
</g>
<g id="Right-Thigh">
<g id="Heavy_Thigh_Right" class="option" style="display: inherit;">
<g id="Thigh_Heavy-Thigh_Right" style="fill: rgb(133, 133, 133);">
<path d="M73.6,119.4l5.8,7.4l-6.7,26.7l-4.5,1.6l3.2-30.4L73.6,119.4"/>
<path d="M58.7,117.8l-7.2,6.1l1,27.5l4.1,2.5l3.2-30.4L58.7,117.8"/>
<path d="M58.7,117.8l14.9,1.5l-2.2,5.3l-11.6-1.2L58.7,117.8"/>
<path d="M59.8,123.5l11.6,1.2l-3.2,30.4l-11.6-1.2L59.8,123.5"/>
</g>
<g id="Trim_Heavy-Thigh_Right" style="fill: rgb(133, 133, 133);">
<path d="M58.1,115.5l16.6,1.7l-1.1,2.2l-14.9-1.5L58.1,115.5"/>
<path d="M51.7,121.3l6.4-5.8l0.6,2.3l-7.2,6.1L51.7,121.3"/>
<path d="M79.7,124.2l-5-7l-1.1,2.2l5.8,7.4L79.7,124.2"/>
</g>
</g>
</g>
</g>
<g id="Groin">
<g id="None_Groin" class="option" style="display: inherit;">
</g>
</g>
<g id="Waist">
<g id="Accessories_Waist">
<g id="Kama" class="toggle" style="display:none"/>
<g id="Loin-Cloth" class="toggle" style="display:none"/>
<g id="Left-Holster" class="toggle" style="display:none"/>
<g id="Right-Holster" class="toggle" style="display:none"/>
</g>
<g id="Under-Belt">
<g id="Girth-Belt" class="option" style="fill: rgb(59, 38, 32); display: inherit;">
<path d="M84.5,80.1c-7.2,0-21.5-1.8-21.5-1.8l0.5-1.5c0,0,14,1.2,21,1.8c7-0.6,21-1.8,21-1.8l0.5,1.5 C106,78.3,91.7,80.1,84.5,80.1z"/>
<path d="M84.5,81.6c-7.3,0-22-1.8-22-1.8l0.4-1.5c0,0,17.9,1.5,21.5,1.8c3.6-0.3,21.5-1.8,21.5-1.8l0.4,1.5 C106.5,79.8,91.9,81.6,84.5,81.6z"/>
<path d="M84.5,83.2c-7.4,0-22.3-1.8-22.3-1.8l0.3-1.5c0,0,18.3,1.5,22,1.8c3.7-0.3,22-1.8,22-1.8l0.3,1.5 C106.8,81.4,92,83.2,84.5,83.2z"/>
<path d="M84.5,84.7C77,84.7,62,82.9,62,82.9l0.3-1.5c0,0,18.6,1.5,22.3,1.8c3.7-0.3,22.3-1.8,22.3-1.8l0.3,1.5 C107.1,82.9,92.1,84.7,84.5,84.7z"/>
<path d="M84.5,86.3c-7.6,0-22.8-1.8-22.8-1.8l0.3-1.5c0,0,18.8,1.5,22.6,1.8c3.8-0.3,22.6-1.8,22.6-1.8l0.3,1.5 C107.4,84.4,92.1,86.3,84.5,86.3z"/>
<path d="M84.5,87.8c-7.7,0-23.1-1.8-23.1-1.8l0.2-1.5c0,0,19,1.5,22.8,1.8c3.8-0.3,22.8-1.8,22.8-1.8l0.2,1.5 C107.6,86,92.2,87.8,84.5,87.8z"/>
<path d="M84.5,89.4c-7.8,0-23.3-1.8-23.3-1.8l0.2-1.5c0,0,19.2,1.5,23.1,1.8c3.8-0.3,23.1-1.8,23.1-1.8l0.2,1.5 C107.8,87.5,92.3,89.4,84.5,89.4z"/>
<path d="M84.5,90.9c-7.8,0-23.5-1.8-23.5-1.8l0.2-1.5c0,0,19.4,1.5,23.3,1.8c3.9-0.3,23.3-1.8,23.3-1.8l0.2,1.5 C108.1,89.1,92.4,90.9,84.5,90.9z"/>
<path d="M84.5,92.5c-7.9,0-23.8-1.8-23.8-1.8l0.3-1.5c0,0,19.6,1.5,23.5,1.8c3.9-0.3,23.5-1.8,23.5-1.8l0.3,1.5 C108.3,90.6,92.5,92.5,84.5,92.5z"/>
<path d="M84.5,94c-8,0-24.1-1.8-24.1-1.8l0.3-1.5c0,0,19.8,1.5,23.8,1.8c4-0.3,23.8-1.8,23.8-1.8l0.3,1.5 C108.6,92.2,92.6,94,84.5,94z"/>
</g>
</g>
<g id="Belt">
<g id="Pouch-Belt-4" class="option" style="display: inherit;">
<path id="Main_Pouch-Belt-4" d="M108.2,87.6c-5.3,0.5-17.5,2.2-23.6,2.2c-6.2,0-18.4-1.8-23.6-2.2l0.8-6.2 c4.3,0.4,16.8,2.2,22.8,2.2c5.8,0,18.1-1.8,22.7-2.2L108.2,87.6z" style="fill: rgb(34, 22, 18);"/>
<rect id="Buckle_Pouch-Belt-4" x="80.2" y="82.9" width="8.8" height="7.2" style="fill: rgb(109, 107, 112);"/>
<g id="Pouches_Pouch-Belt-4" style="fill: rgb(62, 41, 34);">
<g>
<g>
<path d="M66.4,80.2c-1.3-0.1-2.6,0.1-3.7,0.7c0,0,0,0,0,0l5.8,0.3l1.6-0.7C70,80.5,68,80.3,66.4,80.2z"/>
<path d="M70.2,80.7c0-0.1,0-0.1-0.1-0.2c-0.1,0-0.1,0-0.2,0c-0.5,0.2-1.5,0.7-1.5,0.7s-0.6,7.6-0.8,9.4 c0,0.1,0,0.1,0.1,0.2c0.1,0,0.1,0,0.2,0c0.5-0.3,1-0.5,1.5-0.5c0.1,0,0.2-0.1,0.2-0.2C69.8,86.9,69.9,83.8,70.2,80.7z"/>
<path d="M68.4,81.2l-5.8-0.3c0,1.5-0.2,3-0.3,4.4c-0.1,1.7-0.1,3.4-0.3,5.2c0,0.1,0,0.1,0.1,0.2 c0,0,0.1,0.1,0.1,0.1c1.8,0,3.6,0.1,5.3,0.3c0.1,0,0.1,0,0.2,0c0,0,0.1-0.1,0.1-0.1c0.1-0.9,0.3-4.4,0.3-4.4L68.4,81.2z"/>
<path d="M68.4,81.2l-5.8-0.3c0,0-0.1,0.7-0.2,1.6c-0.1,0.8,0.2,1.6,0.7,2.3c0.5,0.6,1.3,1,2.1,1.1c0,0,0,0,0,0 c0.8,0,1.6-0.2,2.2-0.8c0.6-0.6,0.9-1.3,0.9-2.2C68.4,81.9,68.4,81.2,68.4,81.2z"/>
<path d="M65.3,84.6c0.2,0,0.4,0.2,0.3,0.4s-0.2,0.4-0.4,0.4c-0.2,0-0.4-0.2-0.3-0.4S65.1,84.6,65.3,84.6z"/>
</g>
</g>
<g>
<path d="M59,80.8l0.4-0.7l2.2,0.1l0.3,0.8L59,80.8z"/>
<path d="M61.9,81.1c0-0.1,0-0.1,0-0.2c0,0-0.1-0.1-0.1-0.1c-0.7,0-2.7-0.1-2.7-0.1l-0.4,8.8 c0.1,0.3,1.7,0.4,2.6,0.4c0.1,0,0.2-0.1,0.2-0.2C61.5,86.8,61.6,84,61.9,81.1z"/>
</g>
<g>
<g>
<path d="M102.8,80.2c1.3-0.1,2.6,0.1,3.7,0.7l0,0l-5.8,0.3l-1.6-0.7C99.2,80.5,101.2,80.3,102.8,80.2z"/>
<path d="M99,80.7c0-0.1,0-0.1,0.1-0.2c0.1,0,0.1,0,0.2,0c0.5,0.2,1.5,0.7,1.5,0.7s0.6,7.6,0.8,9.4 c0,0.1,0,0.1-0.1,0.2c-0.1,0-0.1,0-0.2,0c-0.5-0.3-1-0.5-1.5-0.5c-0.1,0-0.2-0.1-0.2-0.2C99.4,86.9,99.3,83.8,99,80.7z"/>
<path d="M100.7,81.2l5.8-0.3c0,1.5,0.2,3,0.3,4.4c0.1,1.7,0.1,3.4,0.3,5.2c0,0.1,0,0.1-0.1,0.2 c0,0-0.1,0.1-0.2,0.1c-1.8,0-3.6,0.1-5.3,0.3c-0.1,0-0.1,0-0.2,0c0,0-0.1-0.1-0.1-0.1c-0.1-0.9-0.3-4.4-0.3-4.4L100.7,81.2z"/>
<path d="M100.7,81.2l5.8-0.3c0,0,0.1,0.7,0.2,1.6c0.1,0.8-0.2,1.6-0.7,2.3c-0.5,0.6-1.3,1-2.1,1.1c0,0,0,0,0,0 c-0.8,0-1.6-0.2-2.2-0.8c-0.6-0.6-0.9-1.3-0.9-2.2C100.7,81.9,100.7,81.2,100.7,81.2z"/>
<path d="M103.8,84.6c-0.2,0-0.4,0.2-0.3,0.4c0,0.2,0.2,0.4,0.4,0.4c0.2,0,0.4-0.2,0.3-0.4S104,84.6,103.8,84.6z"/>
</g>
</g>
<g>
<path d="M110.1,80.8l-0.4-0.7l-2.2,0.1l-0.3,0.8L110.1,80.8z"/>
<path d="M107.2,81.1c0-0.1,0-0.1,0-0.2c0,0,0.1-0.1,0.1-0.1c0.7,0,2.7-0.1,2.7-0.1l0.4,8.8 c-0.1,0.3-1.7,0.4-2.6,0.4c-0.1,0-0.2-0.1-0.2-0.2C107.7,86.8,107.6,84,107.2,81.1z"/>
</g>
</g>
</g>
</g>
</g>
<g id="Extras_Front">
<g id="Front">
<g id="None_Front" class="option" style="display: inherit;">
</g>
</g>
</g>
</svg></svg>