<?xml version='1.0' encoding='UTF-8'?>
<svg version="1.1" id="Female-Body" xmlns="http://www.w3.org/2000/svg" xmlns:serif="http://www.serif.com/" viewBox="0 -55 170 300" style="fill-rule: evenodd; stroke-width: 0.2px; stroke-linejoin: round;" width="170" height="300">
<style>
mask {
mask-type: alpha;
}
.decal {
stroke: none;
}
</style>
<defs id="Masks" stroke="none">
<mask id="HelmetsMask"> <use href="#Helmets"/> </mask>
<mask id="CollarMask"> <use href="#Collar"/> </mask>
<mask id="ShouldersMask"> <use href="#Shoulders"/> </mask>
<mask id="ChestMask"> <use href="#Chest"/> </mask>
<mask id="BicepsMask"> <use href="#Biceps"/> </mask>
<mask id="GauntletsMask"> <use href="#Gauntlets"/> </mask>
<mask id="WaistMask"> <use href="#Waist"/> </mask>
<mask id="GroinMask"> <use href="#Groin"/> </mask>
<mask id="ThighsMask"> <use href="#Thighs"/> </mask>
<mask id="KneesMask"> <use href="#Knees"/> </mask>
<mask id="ShinsMask"> <use href="#Shins"/> </mask>
<mask id="FootMask"> <use href="#Foot"/> </mask>
</defs>
<defs id="Decals"/><metadata><rdf:rdf xmlns:rdf="http://www.w3.org/1999/02/22-rdf-syntax-ns#" xmlns:rdfs="http://www.w3.org/2000/01/rdf-schema#" xmlns:dc="http://purl.org/dc/elements/1.1/"><rdf:description><dc:creator>MandoCreator</dc:creator><dc:publisher>https://www.mandocreator.com</dc:publisher><dc:description>Your Beskar'gam - created by MandoCreator</dc:description><dc:format>image/svg+xml</dc:format><dc:type>Image</dc:type><dc:title>MandoCreator - Ner Berskar'gam</dc:title><dc:date>2022-01-02T16:20:47.604Z</dc:date></rdf:description></rdf:rdf></metadata><g id="Main-Body" fill="white" stroke="black">
<g id="Extras_Back">
<g id="Back"><g id="NO-CAPES_Back" class="option" style="display: inherit;">
</g>
</g>
</g>
<g id="Extras-BackDecals" mask="url(#BackMask)">
</g>
<g id="Suit">
<g id="Neck-Seal"><g id="Standard-Neck-Seal" class="option" fill="rgb(0, 0, 0)" style="display: inherit;">
<path d="M95.96,3.46c0-0.93-0.74-1.69-1.65-1.69c0,0-6.22,0.89-9.33,0.89c-3.11,0-9.33-0.89-9.33-0.89 c-0.91,0-1.65,0.76-1.65,1.69c0,0.93,0.74,1.69,1.65,1.69c0,0,6.22,0.89,9.33,0.89c3.11,0,9.33-0.89,9.33-0.89 C95.22,5.15,95.96,4.39,95.96,3.46z"/>
<path d="M96.51,5.43c0-0.98-0.78-1.77-1.73-1.77c0,0-6.53,0.93-9.8,0.93s-9.8-0.93-9.8-0.93 c-0.96,0-1.73,0.79-1.73,1.77c0,0.98,0.78,1.77,1.73,1.77c0,0,6.53,0.93,9.8,0.93s9.8-0.93,9.8-0.93 C95.74,7.21,96.51,6.41,96.51,5.43z"/>
<path d="M97.14,7.88c0-1.03-0.82-1.87-1.83-1.87c0,0-6.89,0.98-10.33,0.98c-3.44,0-10.33-0.98-10.33-0.98 c-1.01,0-1.83,0.84-1.83,1.87s0.82,1.87,1.83,1.87c0,0,6.89,0.98,10.33,0.98c3.44,0,10.33-0.98,10.33-0.98 C96.32,9.75,97.14,8.91,97.14,7.88z"/>
<path d="M97.75,10.13c0-1.08-0.86-1.96-1.92-1.96c0,0-7.23,1.03-10.85,1.03c-3.62,0-10.85-1.03-10.85-1.03 c-1.06,0-1.92,0.88-1.92,1.96c0,1.08,0.86,1.96,1.92,1.96c0,0,7.23,1.03,10.85,1.03c3.62,0,10.85-1.03,10.85-1.03 C96.89,12.09,97.75,11.21,97.75,10.13z"/>
<path d="M98.36,12.33c0-0.82-0.9-1.48-2.01-1.48c0,0-7.58,0.78-11.36,0.78s-11.36-0.78-11.36-0.78 c-1.11,0-2.01,0.66-2.01,1.48c0,0.82,0.9,1.48,2.01,1.48c0,0,7.58,0.78,11.36,0.78s11.36-0.78,11.36-0.78 C97.46,13.81,98.36,13.14,98.36,12.33z"/>
<path d="M98.36,14.8c0-0.82-0.9-1.48-2.01-1.48c0,0-7.58,0.78-11.36,0.78s-11.36-0.78-11.36-0.78 c-1.11,0-2.01,0.66-2.01,1.48c0,0.82,0.9,1.48,2.01,1.48c0,0,7.58,1.5,11.36,1.5s11.36-1.5,11.36-1.5 C97.46,16.28,98.36,15.62,98.36,14.8z"/>
</g>
</g>
<g id="Flight-Suit" fill="rgb(43, 43, 49)">
<path d="M38.1,60.17l5.2-18.8l12.15-8.13l1.9,16.49c0,0-5.25,9.95-7.06,14.51c-1.86,4.7-5.09,15.42-5.5,16.81 l-2.88,24.91l-8.36-2.66c0,0-0.3-17.29,0.46-24.47C34.68,72.42,38.1,60.17,38.1,60.17z"/>
<path d="M131.9,60.17l-5.22-18.86l-12.06-8.07l-1.92,16.59c0,0,5.2,9.85,7.01,14.41c1.86,4.7,5.09,15.42,5.5,16.81 l2.88,24.91l8.36-2.66c0,0,0.3-17.29-0.46-24.47C135.32,72.42,131.9,60.17,131.9,60.17z"/>
<path d="M84.99,113.44c-1.03,0.1-1.95,0.5-2.29,1.22c-3,6.3-9.17,35.13-10.95,40.44c-0.97,2.89-1.74,18.7-3.38,27.92 c-1.96,11.01-8.39,38.11-8.39,38.11l-11.15-1.15c0,0-1.44-27.22-1.04-37.12c0.3-7.53,3.42-22.31,3.42-22.31s0.67-5.4,0.69-8.12 c0.06-9.82,0.93-31.66,2.88-44.2C56.3,98.31,65.7,77.5,65.7,77.5s12.18,4.76,19.34,4.76c7.16,0,19.44-4.86,19.44-4.86 s8.88,20.92,10.42,30.83c1.95,12.54,3.24,34.38,3.3,44.2c0.02,2.72,0.69,8.12,0.69,8.12s3.12,14.79,3.42,22.31 c0.4,9.91-1.04,37.12-1.04,37.12l-11.15,1.15c0,0-6.43-27.1-8.39-38.11c-1.64-9.22-2.41-25.03-3.38-27.92 c-1.78-5.31-7.96-34.13-10.95-40.44c-0.35-0.73-1.3-1.14-2.34-1.23L84.99,113.44z"/>
</g>
<g id="Sleeves" class="toggle" style="display: none;" fill="rgb(255, 255, 255)"/>
</g>
<g id="Boots">
<g id="Tall_Boots" class="option" style="display: inherit;">
<g id="Bottom_Tall-Boot" fill="rgb(11, 11, 11)">
<path d="M62.38,229.28c-0.02,0.13-0.05,0.27-0.09,0.42c-0.88,1.83-3.26,2.46-4.9,2.9c-1.16,0.31-2.28,0.75-3.37,1.27 c-1.51,0.73-2.27,2-3.44,3.22c-0.52,0.54-1.15,0.96-1.75,1.38c-1.5,1.03-2.95,1.11-4.66,1.16c-2.29,0.07-4.32-0.28-6.58-0.85 c-1.98-0.5-3.45-0.92-5.16-1.47c-0.51-0.17-1.14-0.28-1.44-0.71l-0.26,0.65l-0.19,1.7c0,0,1.85,1.13,3.82,1.63 c1.97,0.5,5.94,1.2,5.94,1.2l0.27-0.74l0.89,0.21l-0.04,0.73l2.16,0.14l0.46-0.71l0.72,0.02l-0.11,0.63c0,0,1.34-0.02,2.08-0.53 c0.14-0.24,0.41-0.63,0.41-0.63l0.51-0.32l-0.07,0.6l1.86-0.76l0.09-0.82l0.54-0.36l0.02,0.6l1.33-1.17l0.14-0.72l2.85-1.7 l0.97,0.44l2.32-0.57l0.08-0.57l0.59-0.28l0.41,0.43l1.56-0.73l0.03-0.53l0.51-0.2l0.06,0.38l1.48-1.16L62.38,229.28z M62.44,228.61L62.44,228.61L62.44,228.61L62.44,228.61z"/>
<path d="M107.68,229.28c0.02,0.13,0.05,0.27,0.09,0.42c0.88,1.83,3.26,2.46,4.9,2.9c1.15,0.31,2.28,0.75,3.37,1.27 c1.51,0.73,2.27,2,3.44,3.22c0.52,0.54,1.15,0.96,1.75,1.38c1.5,1.03,2.95,1.11,4.66,1.16c2.29,0.07,4.32-0.28,6.58-0.85 c1.98-0.5,3.45-0.92,5.16-1.47c0.51-0.17,1.14-0.28,1.44-0.71l0.26,0.65l0.19,1.7c0,0-1.85,1.13-3.82,1.63 c-1.97,0.5-5.94,1.2-5.94,1.2l-0.27-0.74l-0.89,0.21l0.04,0.73l-2.16,0.14l-0.46-0.71l-0.72,0.02l0.11,0.63 c0,0-1.34-0.02-2.08-0.53c-0.14-0.24-0.41-0.63-0.41-0.63l-0.51-0.32l0.07,0.6l-1.86-0.76l-0.09-0.82l-0.54-0.36l-0.02,0.6 l-1.33-1.17l-0.14-0.72l-2.85-1.7l-0.97,0.44l-2.32-0.57l-0.08-0.57l-0.59-0.28l-0.41,0.43l-1.56-0.73l-0.03-0.53l-0.51-0.2 l-0.06,0.38l-1.48-1.16L107.68,229.28z M107.62,228.61L107.62,228.61L107.62,228.61L107.62,228.61z"/>
</g>
<g id="Main_Tall-Boot" fill="rgb(15, 15, 15)">
<path d="M62.37,215.4c1.32-4.39,2.31-11.41,3.1-14.61c0.59-2.4,3.31-15.44,2.86-17.08 c-0.45-1.66-20.1-4.93-20.66-3.44c-0.86,2.29,0.36,24.81,0.21,28.13c-0.11,2.44,0.19,7.55,0.19,7.55 c-0.23,1.33-0.42,2.76-0.9,3.96c-0.91,2.25-1.49,2.97-3.03,4.68c-1.06,1.17-3.06,3.14-4.32,4.03c-0.53,0.38-2.39,1.74-2.39,1.74 c-2.32,0.98-4.88,0.64-6.14,3.55c-0.27,0.64-0.51,1.4-0.46,2.12c0.06,0.92,0.94,1.05,1.63,1.27c1.71,0.55,3.18,0.97,5.16,1.47 c2.26,0.58,4.29,0.93,6.58,0.85c1.71-0.05,3.16-0.13,4.66-1.16c0.6-0.41,1.23-0.83,1.75-1.38c1.17-1.22,1.93-2.49,3.44-3.22 c1.09-0.53,2.21-0.96,3.37-1.27c1.63-0.44,4.02-1.06,4.9-2.9c0.34-1.38-0.01-2.06-0.12-3.24l-0.05-0.51 c-0.09-0.77-0.21-1.56-0.25-2.4c-0.07-1.6,0.28-3.18,0.37-4.77c0.05-0.9,0.09-1.81,0.11-2.71 C62.36,215.96,62.39,215.62,62.37,215.4z"/>
<path d="M107.7,215.4c-1.32-4.39-2.31-11.41-3.1-14.61c-0.59-2.4-3.31-15.44-2.86-17.08 c0.45-1.66,20.1-4.93,20.66-3.44c0.86,2.29-0.36,24.81-0.21,28.13c0.11,2.44-0.19,7.55-0.19,7.55c0.23,1.33,0.42,2.76,0.9,3.96 c0.91,2.25,1.49,2.97,3.03,4.68c1.06,1.17,3.06,3.14,4.32,4.03c0.53,0.38,2.39,1.74,2.39,1.74c2.32,0.98,4.88,0.64,6.15,3.55 c0.27,0.64,0.51,1.4,0.46,2.12c-0.06,0.92-0.94,1.05-1.63,1.27c-1.71,0.55-3.18,0.97-5.16,1.47c-2.26,0.58-4.29,0.93-6.58,0.85 c-1.71-0.05-3.16-0.13-4.66-1.16c-0.61-0.41-1.23-0.83-1.75-1.38c-1.18-1.22-1.94-2.49-3.44-3.22c-1.09-0.53-2.21-0.96-3.37-1.27 c-1.63-0.44-4.02-1.06-4.9-2.9c-0.34-1.38,0.01-2.06,0.12-3.24l0.05-0.51c0.09-0.77,0.21-1.56,0.25-2.4 c0.07-1.6-0.28-3.18-0.37-4.77c-0.05-0.9-0.09-1.81-0.11-2.71C107.71,215.96,107.68,215.62,107.7,215.4z"/>
</g>
</g></g>
<g id="Gloves">
<g id="Left-Glove">
<g id="Fingerless_Left_Glove" class="option" style="display: inherit;">
<g id="Fingers_Fingerless_Left_Glove" fill="rgb(97, 8, 25)">
<path d="M133.16,120.46c-0.46-0.03-0.9-0.01-1.36,0.09c-0.31,0.07-0.62,0.16-0.9,0.34 c-0.85,0.55-0.62,1.76,0.14,2.21c0.89,0.53,2.29,0.01,2.69-1.02C133.9,121.66,133.39,120.86,133.16,120.46"/>
<path d="M131.6,121.51c-0.46-0.02-0.9-0.02-1.36,0.09c-0.31,0.07-0.62,0.16-0.9,0.34 c-0.85,0.55-0.62,1.76,0.14,2.21c0.89,0.53,2.29,0.01,2.69-1.02C132.34,122.71,131.83,121.91,131.6,121.51"/>
<path d="M130.51,122.89c-0.46,0.05-1.04,0.16-1.48,0.34c-0.3,0.12-0.59,0.25-0.85,0.47 c-0.78,0.68-0.4,1.83,0.4,2.17c0.94,0.39,2.27-0.34,2.55-1.42C131.24,124.01,130.51,122.89,130.51,122.89z"/>
<path d="M125.73,116.29c-0.26,1.3-0.47,2.01-0.47,2.01s-1.18,2.71-0.98,3.34c0.21,0.62,1.25,1.18,1.84,0.85 c0.74-0.41,1.66-2.32,2.24-3.67c0.21-0.5,0.41-1.07,0.58-1.59C126.58,117.61,125.73,116.29,125.73,116.29L125.73,116.29z"/>
<path d="M130.61,122.69c-0.17,0.33-0.37,0.68-0.59,1.05c-1.17,1.99-2.97,3.7-1.78,5.22 c1.11,1.42,3.63-2.31,3.63-2.31l1.17-1.72C131.1,124.42,130.62,122.7,130.61,122.69z"/>
</g>
<path id="Glove_Fingerless_Left_Glove" d="M133.04,124.93l1.3-1.91c0,0,2.84-5.26,2.98-6.28 c0.11-0.78,0.01-3.38,0.01-3.38l-0.89-10.08l-4.5,0.42l-3.7,1.36l-0.28,1.72c0,0-1.34,2.09-1.69,3.59 c-0.25,1.06-0.11,3.58-0.43,5.28c-0.04,0.22-0.08,0.43-0.12,0.63l0,0c0,0,0.85,1.33,3.22,0.93c0.3-0.93,0.5-1.73,0.5-1.73 s0.81,0.32,1.23,0.68c1.38,1.2,0.78,4.82,0.78,4.82s-0.32,0.72-0.84,1.7C130.62,122.7,131.1,124.42,133.04,124.93z" fill="rgb(0, 0, 0)"/>
</g></g>
<g id="Right-Glove">
<g id="Fingerless_Right_Glove" class="option" style="display: inherit;">
<g id="Fingers_Fingerless_Right_Glove" fill="rgb(97, 8, 25)">
<path d="M36.86,120.46c0.46-0.03,0.9-0.01,1.36,0.09c0.31,0.07,0.62,0.16,0.9,0.34c0.85,0.55,0.62,1.76-0.14,2.21 c-0.89,0.53-2.29,0.01-2.69-1.02C36.12,121.66,36.64,120.86,36.86,120.46"/>
<path d="M38.42,121.51c0.46-0.02,0.9-0.02,1.36,0.09c0.31,0.07,0.62,0.16,0.9,0.34c0.85,0.55,0.62,1.76-0.14,2.21 c-0.89,0.53-2.29,0.01-2.69-1.02C37.68,122.71,38.2,121.91,38.42,121.51"/>
<path d="M39.52,122.89c0.46,0.05,1.04,0.16,1.48,0.34c0.3,0.12,0.6,0.25,0.85,0.47c0.78,0.68,0.4,1.83-0.4,2.17 c-0.94,0.39-2.27-0.34-2.55-1.42C38.78,124.01,39.52,122.89,39.52,122.89z"/>
<path d="M44.29,116.29c0.26,1.3,0.47,2.01,0.47,2.01s1.18,2.71,0.98,3.34c-0.21,0.62-1.24,1.18-1.84,0.85 c-0.74-0.41-1.66-2.32-2.24-3.67c-0.21-0.5-0.41-1.07-0.58-1.59C43.45,117.61,44.29,116.29,44.29,116.29L44.29,116.29z"/>
<path d="M39.41,122.69c0.17,0.33,0.37,0.68,0.59,1.05c1.17,1.99,2.97,3.7,1.78,5.22c-1.11,1.42-3.63-2.31-3.63-2.31 l-1.17-1.72C38.92,124.42,39.41,122.7,39.41,122.69z"/>
</g>
<path id="Glove_Fingerless_Right_Glove" d="M36.98,124.93l-1.3-1.91c0,0-2.84-5.26-2.98-6.28 c-0.11-0.78-0.01-3.38-0.01-3.38l0.89-10.08l4.5,0.42l3.7,1.36l0.28,1.72c0,0,1.34,2.09,1.69,3.59c0.25,1.06,0.11,3.58,0.43,5.28 c0.04,0.22,0.08,0.43,0.12,0.63l0,0c0,0-0.85,1.33-3.22,0.93c-0.3-0.93-0.5-1.73-0.5-1.73s-0.81,0.32-1.23,0.68 c-1.38,1.2-0.78,4.82-0.78,4.82s0.32,0.72,0.84,1.7C39.41,122.7,38.92,124.42,36.98,124.93z" fill="rgb(0, 0, 0)"/>
</g></g>
</g>
<g id="Biceps">
<g id="Left-Biceps">
<g id="None_Biceps_Left" class="option" style="display: inherit;">
</g></g>
<g id="Right-Biceps">
<g id="None_Biceps_Right" class="option" style="display: inherit;">
</g></g>
</g>
<g id="BicepsDecals" mask="url(#BicepsMask)">
</g>
<path id="Vest" d="M91.61,82.96c-4.3,0.88-8.84,0.88-13.14,0c-4.33-0.88-12.83-5.29-12.83-5.29s-7.42-23.26-8.75-30.06 c-1.06-5.39-1.42-14.37-1.42-14.37l-12.73,8.52l-2.71-1.15c0,0,7.62-16.73,12.62-21.57c4.53-4.39,17.42-7.5,17.42-7.5 s5.68,6.2,14.97,6.25c8.84,0.04,14.97-6.25,14.97-6.25s12.89,3.12,17.42,7.5c5.01,4.85,12.62,21.57,12.62,21.57l-2.71,1.15 l-12.73-8.52c0,0-0.36,8.98-1.42,14.37c-1.33,6.79-8.76,30.06-8.76,30.06S95.93,82.08,91.61,82.96z" fill="rgb(0, 0, 0)"/>
<g id="SuitDecals" mask="url(#SuitMask)">
</g>
<g class="swappable" id="Chest"><g id="Chest_Classic">
<g id="Abdomen_Classic">
<path id="Abdomen-Plate_Classic" d="M70.92,71.85c3.28,0.68,9.37,1.06,14.06,1.06c4.68,0,10.77-0.38,14.05-1.06 c2.08-0.43,5.83-9.75,5.83-9.75l-5.45-3.73l-4.05-8.7l-10.39-2.54l-10.39,2.54l-4.05,8.7l-5.45,3.73 C65.09,62.09,68.84,71.41,70.92,71.85" fill="rgb(91, 24, 28)"/>
<path id="Trauma-Plate_Abdomen_Classic" class="toggle" style="display:none" d="M94.52,50.62l-9.55-2.34l-9.55,2.34l-3.82,8.2 c-0.08,0.18-0.22,0.34-0.39,0.46l-4.7,3.22c0.6,1.41,1.92,4.39,3.23,6.47c0.35,0.55,0.69,1.04,1.02,1.4 c0.15,0.16,0.39,0.35,0.43,0.38c3.23,0.66,9.18,1.02,13.77,1.02s10.53-0.36,13.77-1.02c0.04-0.03,0.29-0.22,0.43-0.38 c0.33-0.36,0.67-0.85,1.02-1.4c1.31-2.08,2.63-5.06,3.23-6.47l-4.7-3.22c-0.17-0.12-0.31-0.27-0.39-0.46L94.52,50.62z" fill="rgb(255, 255, 255)"/>
</g>
<g id="Iron-Heart_Classic">
<path id="Heart_Classic" d="M82.2,36.92V27.8l2.8-2.1l2.8,2.1v9.12L85,39.63L82.2,36.92z" fill="rgb(91, 24, 28)"/><rect id="Center_Heart_Classic" class="option" x="83.98" y="28.64" width="2.03" height="8.06" fill="rgb(186, 24, 41)" style="display: inherit;"/>
</g>
<g id="Left-Chest_Classic">
<path id="Chest_Left_Classic" d="M109.15,26.3c-3.86-3.73-21.93-3.85-21.93-3.85l-0.23,2.09l2.97,2.67l-0.23,11.26 l-2.63,2.44v3.72l10.06,2.67l4,8.71l4.46,3.48c0,0,4.66-10.65,5.22-16.59C111.21,38.95,112.53,29.55,109.15,26.3" fill="rgb(91, 24, 28)"/>
<path id="Trauma-Plating_Left-Chest_Classic" class="toggle" style="display:none" d="M88.28,23.59l-0.06,0.51l2.55,2.29 c0.24,0.22,0.38,0.52,0.37,0.84l-0.23,11.26c-0.01,0.3-0.14,0.58-0.36,0.78l-2.27,2.11v2.38l9.19,2.44 c0.34,0.09,0.62,0.32,0.76,0.63l3.89,8.46l3,2.35c1.26-3.04,4.11-10.34,4.54-14.86c0.22-2.32,0.78-6.57,0.47-10.29 c-0.18-2.22-0.63-4.26-1.82-5.41c-1.05-1.01-3.28-1.66-5.84-2.17C97.32,23.9,90.8,23.65,88.28,23.59z" fill="rgb(255, 255, 255)"/>
</g>
<g id="Right-Chest_Classic">
<path id="Chest_Right_Classic" d="M60.85,26.3c3.86-3.73,21.93-3.85,21.93-3.85l0.23,2.09l-2.97,2.67l0.23,11.26 l2.63,2.44v3.72l-10.06,2.67l-4,8.71l-4.46,3.48c0,0-4.66-10.65-5.22-16.59C58.79,38.95,57.47,29.55,60.85,26.3" fill="rgb(91, 24, 28)"/>
<path id="Trauma-Plating_Right-Chest_Classic" class="toggle" style="display:none" d="M81.72,23.59c-2.52,0.06-9.04,0.31-14.2,1.33 c-2.57,0.51-4.8,1.16-5.84,2.17c-1.19,1.15-1.64,3.18-1.82,5.41c-0.31,3.72,0.25,7.97,0.47,10.29 c0.43,4.52,3.28,11.82,4.54,14.86l3-2.35l3.89-8.46c0.14-0.31,0.42-0.54,0.76-0.63l9.19-2.44v-2.38l-2.27-2.11 c-0.22-0.21-0.35-0.49-0.36-0.78l-0.23-11.26c-0.01-0.32,0.13-0.62,0.37-0.84l2.55-2.29L81.72,23.59z" fill="rgb(255, 255, 255)"/>
</g>
<g id="Neck-Armor_Classic">
<path id="Neck-Plate_Classic" d="M85,20.79c-7.14,0-21.41-1.52-21.41-1.52l-2.21-5.78l10.08-2.58 c0,0,1.33,1.93,2.3,2.61c0.99,0.7,2.32,1.52,3.56,1.98c1.36,0.51,3.02,0.85,4.6,1.07c1.78,0.25,4.37,0.25,6.14,0 c1.58-0.22,3.41-0.56,4.77-1.07c1.24-0.47,2.4-1.28,3.39-1.98c0.97-0.68,2.3-2.61,2.3-2.61l10.08,2.58l-2.21,5.78 C106.41,19.27,92.14,20.79,85,20.79z" fill="rgb(91, 24, 28)"/>
<path id="Trauma-Plates_Neck_Classic" class="toggle" style="display:none" d="M83.8,19.66c-6.32-0.12-16.56-1.14-19.35-1.42l-1.52-3.97 l8.05-2.06c0.53,0.69,1.4,1.74,2.09,2.23c1.07,0.75,2.49,1.62,3.83,2.12c1.44,0.54,3.19,0.9,4.86,1.13 c0.61,0.08,1.31,0.14,2.04,0.17V19.66z M86.2,17.86c0.73-0.03,1.43-0.09,2.04-0.17c1.67-0.23,3.59-0.6,5.03-1.13 c1.34-0.5,2.59-1.37,3.66-2.12c0.69-0.49,1.56-1.54,2.09-2.23l8.05,2.06l-1.52,3.97c-2.79,0.29-13.03,1.3-19.35,1.42V17.86z" fill="rgb(255, 255, 255)"/>
</g>
</g></g>
<g id="ChestDecals" mask="url(#ChestMask)">
</g>
<g id="Chest-Attachments"><g id="No-Device_Accessories_Chest" class="option" style="display: inherit;">
</g>
</g>
<g id="Collar"><g id="None_Collar" class="option" style="display: inherit;">
</g>
</g>
<g id="CollarDecals" mask="url(#CollarMask)">
</g>
<g id="Helmets" class="swappable" transform="translate(45,-52)"><g id="Helmet_Classic">
<g id="Left-Earcap_Classic" class="toggle"><path id="Ear-Cap_Left_Classic" d="M60.03,57.18l1.74-2.57l-1.74-17.81l-2.43-1.53L60.03,57.18z" fill="rgb(246, 160, 0)"/>
</g>
<g id="Right-Earcap_Classic" class="toggle"><g id="Range-Finder_Right_Classic" class="option" style="display: inherit;">
<path id="Shaft_Right_Range-Finder_Classic" d="M22.48,9.72l1.08,0.07l-1.61,26.85h-1.1L22.48,9.72z" fill="rgb(0, 80, 137)"/>
<path id="Finder_Right_Range-Finder_Classic" d="M30.81,7.55h-5.96l0.24-0.74l6.96-0.65L30.81,7.55" fill="rgb(12, 12, 10)"/>
<g id="Cover_Right_Range-Finder_Classic" fill="rgb(12, 12, 10)">
<path d="M21.62,8.59l2.84,0.19l0.63-1.96l7.48-0.7l0.15-0.76l-10.68-0.4L21,6.27L21.62,8.59"/>
<path d="M22.38,8.64l1.41,0.09L23.72,9.8l-1.4-0.09L22.38,8.64"/>
</g>
</g>
<path id="Ear-Cap_Right_Classic" d="M19.97,57.18l-1.74-2.57l1.74-17.81l2.43-1.53L19.97,57.18z" fill="rgb(246, 160, 0)"/>
</g>
<g id="Helmet_Pieces_Classic">
<g id="Face_Classic" fill="rgb(91, 24, 28)">
<path d="M22.24,58.73c0,0,0.61-4.18,1.53-6.26c0.94-2.11,2.73-4.44,4.76-4.08c1.62,0.29,4.83,7.93,5.07,17.33 C33.44,65.57,22.24,58.73,22.24,58.73z"/>
<path d="M57.74,58.73c0,0-0.61-4.18-1.53-6.26c-0.94-2.11-2.73-4.44-4.76-4.08c-1.62,0.29-4.84,7.93-5.07,17.33 C46.53,65.57,57.74,58.73,57.74,58.73z"/>
</g>
<g id="Cheeks_Classic" fill="rgb(12, 12, 10)">
<path d="M22.24,58.73v0.1l-2.44-0.19l1.76-16.29c0.61,0.19,5.65,1.77,7.36,3.35c1.82,1.69,3.01,4.31,3.59,6.77 c0.63,2.68,0.95,9.62,1.05,12.23c-0.43-8.92-3.47-16.03-5.03-16.31c-2.03-0.36-3.82,1.97-4.76,4.08 C22.85,54.55,22.24,58.73,22.24,58.73z"/>
<path d="M46.42,64.7c0.1-2.61,0.43-9.55,1.06-12.23c0.58-2.46,1.77-5.08,3.59-6.77c1.68-1.57,6.63-3.12,7.36-3.35 l1.76,16.28l-2.44,0.19v-0.1c0,0-0.61-4.18-1.53-6.26c-0.94-2.11-2.73-4.44-4.76-4.08C49.88,48.67,46.85,55.78,46.42,64.7z"/>
</g>
<path id="Eyes_Classic" d="M46.38,65.72H33.6c0,0-0.31-9.91-1.09-13.25c-0.58-2.46-1.77-5.08-3.59-6.77 c-1.82-1.69-7.33-3.37-7.33-3.37l0.65-6.29c0,0,5.69,0.74,8.55,0.92c2.69,0.17,8.13,0.21,9.2,0.22c1.07-0.01,6.51-0.05,9.2-0.22 c2.86-0.18,8.55-0.92,8.55-0.92l0.65,6.29c0,0-5.51,1.68-7.33,3.37c-1.82,1.69-3.01,4.31-3.59,6.77 C46.69,55.8,46.38,65.7,46.38,65.72z" fill="rgb(0, 80, 137)"/>
<g fill="#000000" id="Visors_Classic"><path fill="rgb(0, 0, 0)" id="Basic_Visor_Classic" class="option" d="M43.42,65.72h-6.87V42.33c0,0-3.82-0.35-5.67-0.78 c-2.26-0.52-7.89-2.33-7.89-2.33l0.08-1.31c0,0,5.19,0.89,7.81,1.17c2.57,0.27,6.07,0.65,9.11,0.65s6.54-0.37,9.11-0.65 c2.62-0.28,7.81-1.17,7.81-1.17l0.08,1.31c0,0-5.63,1.81-7.89,2.33c-1.86,0.42-5.67,0.78-5.67,0.78V65.72z" style="display: inherit;"/>
</g>
<path id="Dome_Classic" d="M22.24,36.05l0-0.01v-0.11c0.06-9.27,7.88-16.81,17.57-17v0h0.12l0.07,0l0.07,0h0.12v0 c9.69,0.19,17.5,7.72,17.56,17v0.11l0,0.01c-0.75,0.1-5.9,0.74-8.55,0.91c-2.69,0.17-8.13,0.21-9.2,0.22 c-1.07-0.01-6.51-0.05-9.2-0.22C28.14,36.79,22.99,36.15,22.24,36.05z" fill="rgb(91, 24, 28)"/>
</g>
</g></g>
<g id="HelmetsDecals" mask="url(#HelmetsMask)"/>
<g id="Shoulders">
<g id="Left-Shoulder"><g id="Classic_Shoulder_Left" class="option" style="display: inherit;">
<path id="Main_Shoulder_Classic_Left" d="M115.19,13.78l-2.62,11.77l2.09,6.77l14.01,7.05l2.36-3.6L115.19,13.78z" fill="rgb(246, 160, 0)"/>
<path id="Trauma-Plates_Shoulder_Classic_Left" class="toggle" style="display:none" d="M114.4,25.47l1.74,5.62l11.93,6l2.02-3.08 l-13.43-18.68L114.4,25.47z" fill="rgb(255, 255, 255)"/>
</g>
</g>
<g id="Right-Shoulder"><g id="Classic_Shoulder_Right" class="option" style="display: inherit;">
<path id="Main_Shoulder_Classic_Right" d="M54.88,13.78l2.62,11.77l-2.09,6.77l-14.01,7.05l-2.36-3.6L54.88,13.78z " fill="rgb(91, 24, 28)"/>
<path id="Trauma-Plates_Shoulder_Classic_Right" class="toggle" style="display:none" d="M55.67,25.47l-1.74,5.62l-11.93,6l-2.02-3.08 l13.43-18.68L55.67,25.47z" fill="rgb(255, 255, 255)"/>
</g>
</g>
</g>
<g id="ShouldersDecals" mask="url(#ShouldersMask)">
</g>
<g id="Gauntlets">
<g id="Left-Gauntlets"><g id="Basic_Gauntlet_Left" class="option" style="display: inherit;">
<path id="Top-2_Basic_Gauntlet_Left" d="M140.21,108.05l1.6-2.13l-2.46-19.29l-0.86,2.24l1.2,8.8l-0.93,2.08 L140.21,108.05z" fill="rgb(91, 24, 28)"/>
<path id="Top-1_Basic_Gauntlet_Left" d="M139.34,86.62l-0.86,2.24l1.2,8.8l-0.93,2.08l1.45,8.31l-1.05,1.41 l0.05,5.31l-1.66,0.29l-1.54-8.11l-1.47-0.68l-5.06-23.8l9.3-0.21L139.34,86.62z" fill="rgb(246, 160, 0)"/>
<g id="Accent-Bottom_Basic_Gauntlet_Left" fill="rgb(91, 24, 28)">
<path d="M125.39,89.15l-2.1,0.5l0.75,3.1l2.09-0.5L125.39,89.15z"/>
<path d="M126.69,94.58l-2.09,0.5l0.75,3.1l2.1-0.5L126.69,94.58z"/>
<path d="M128.05,100.14l-2.1,0.5l0.75,3.1l2.1-0.5L128.05,100.14z"/>
</g>
<path id="Bottom_Basic_Gauntlet_Left" d="M123.31,89.65l-0.57-2.36l6.82-4.44l4.97,23.41l-7.08,0.7l-2.1-8.77 l2.09-0.5l-0.75-3.1l-2.08,0.5l-0.56-2.33l2.09-0.5l-0.75-3.1L123.31,89.65z M128.05,100.14l-2.1,0.51l0.74,3.1l2.11-0.51 L128.05,100.14z" fill="rgb(91, 24, 28)"/><g id="Flamethrower_Attachment_Basic_Gauntlet_Left" class="option" style="display: inherit;">
<g id="Tubes_Flamethrower_Attachment_Basic_Gauntlet_Left" fill="rgb(155, 155, 155)">
<path d="M140.43,83.27l-0.86,0.11l3.24,26.03l0.86-0.11L140.43,83.27z"/>
<path d="M142.4,83.03l-0.86,0.11l2.33,18.66l0.86-0.11L142.4,83.03z"/>
<path d="M140.8,84.88l-1.18,0.15l0.77,6.2l1.18-0.15L140.8,84.88z"/>
<path d="M142.77,84.64l-1.18,0.15l0.77,6.2l1.18-0.14L142.77,84.64z"/>
</g>
<g id="Main_Flamethrower_Attachment_Basic_Gauntlet_Left" fill="rgb(155, 155, 155)">
<path d="M142.77,82.98l-3.53,0.43l0.2,1.63l3.53-0.44L142.77,82.98z"/>
<path d="M143.83,90.81l-3.7,0.46l0.12,0.99l3.7-0.46L143.83,90.81z"/>
<path d="M143.8,91.82l-3.39,0.42l0.06,0.5l3.39-0.42L143.8,91.82z"/>
<path d="M140.43,90.6l-0.57,0.09l0.38,3.03l0.57-0.09L140.43,90.6z"/>
</g>
<g id="Accent_Flamethrower_Attachment_Basic_Gauntlet_Left" fill="rgb(155, 155, 155)">
<path d="M144.76,101.68l-0.92,0.11l0.02,1.29l1.21-0.15L144.76,101.68z"/>
<path d="M144.29,95.01l-1.63,0.2l0.25,1.97l1.63-0.2L144.29,95.01z"/>
<path d="M144.31,97.01l-1.18,0.15l0.25,1.97l1.18-0.15L144.31,97.01z"/>
<path d="M143.43,105.99l-1.18,0.15l0.34,2.71l1.18-0.15L143.43,105.99z"/>
<path d="M142.34,97.26l-1.18,0.14l0.46,3.68l1.18-0.15L142.34,97.26z"/>
<path d="M143.82,107.32l-1.63,0.2l0.07,0.53l1.63-0.2L143.82,107.32z"/>
</g>
<path id="Base_Flamethrower_Attachment_Basic_Gauntlet_Left" d="M139.86,90.68l-1.04-8.21l1.03,0.26l1.76,13.89 l-0.93,0.56l-0.44-3.47l0.57-0.09l-0.38-3.03L139.86,90.68z" fill="rgb(91, 24, 28)"/>
</g></g>
</g>
<g id="Right-Gauntlets"><g id="Basic_Gauntlet_Right" class="option" style="display: inherit;">
<path id="Top-2_Basic_Gauntlet_Right" d="M29.77,108.05l-1.6-2.13l2.46-19.29l0.86,2.24l-1.2,8.8l0.93,2.08 L29.77,108.05z" fill="rgb(0, 80, 137)"/>
<path id="Top-1_Basic_Gauntlet_Right" d="M30.63,86.62l0.86,2.24l-1.2,8.8l0.93,2.08l-1.45,8.31l1.05,1.41 l-0.05,5.31l1.66,0.29l1.54-8.11l1.47-0.68l5.05-23.8l-9.3-0.21L30.63,86.62z" fill="rgb(91, 24, 28)"/>
<g id="Accent-Bottom_Basic_Gauntlet_Right" fill="rgb(91, 24, 28)">
<path d="M44.58,89.14l2.1,0.5l-0.75,3.1l-2.1-0.5L44.58,89.14z"/>
<path d="M43.29,94.58l2.09,0.5l-0.75,3.1l-2.1-0.5L43.29,94.58z"/>
<path d="M41.93,100.14l2.1,0.5l-0.75,3.1l-2.1-0.5L41.93,100.14z"/>
</g>
<path id="Bottom_Basic_Gauntlet_Right" d="M46.66,89.64l0.56-2.36l-6.82-4.44l-4.96,23.41l7.08,0.7l2.1-8.77 l-2.09-0.5l0.75-3.1l2.08,0.5l0.56-2.33l-2.09-0.5l0.75-3.1L46.66,89.64z M41.93,100.14l2.1,0.5l-0.74,3.1l-2.11-0.51 L41.93,100.14z" fill="rgb(91, 24, 28)"/><g id="No-Device_Attachment_Basic_Gauntlet_Right" class="option" style="display: inherit;">
</g>
</g>
</g>
</g>
<g id="GauntletsDecals" mask="url(#GauntletsMask)">
</g>
<g id="Shins">
<g id="Left-Shin"><g id="Basic_Shin_Left" class="option" style="display: inherit;">
<path id="Shin_Basic-Shin_Left" d="M123.38,181.46l-4.73-6.13l-10.54,0.47l-4.62,8.67l4.39,30.69 c4.45,2.3,11.19,1.91,15.07-1.05L123.38,181.46" fill="rgb(246, 160, 0)"/>
<path id="Trauma-Plating_Basic-Shin_Left" class="toggle" style="display:none" d="M121.21,213.2l0.4-31.15l-3.8-4.92l-8.61,0.38l-3.88,7.28 l4.17,29.18C113.1,215.46,117.99,215.19,121.21,213.2" fill="rgb(255, 255, 255)"/>
<g id="Ridge_Basic-Shin_Left" class="toggle" style="display:none" fill="rgb(255, 255, 255)"/>
</g>
</g>
<g id="Right-Shin"><g id="Basic_Shin_Right" class="option" style="display: inherit;">
<path id="Shin_Basic-Shin_Right" d="M46.67,181.46l4.73-6.13l10.53,0.47l4.62,8.67l-4.39,30.69 c-4.45,2.3-11.19,1.91-15.07-1.05L46.67,181.46" fill="rgb(91, 24, 28)"/>
<path id="Trauma-Plating_Basic-Shin_Right" class="toggle" style="display:none" d="M48.84,213.2l-0.4-31.15l3.8-4.92l8.61,0.38l3.88,7.28 l-4.17,29.18C56.95,215.46,52.05,215.19,48.84,213.2" fill="rgb(255, 255, 255)"/>
<g id="Ridge_Basic-Shin_Right" class="toggle" style="display:none" fill="rgb(255, 255, 255)"/>
</g>
</g>
</g>
<g id="ShinsDecals" mask="url(#ShinsMask)">
</g>
<g id="Foot">
<g id="Left-Ankle">
<g id="None_Ankle_Left" class="option" style="display: inherit;">
</g></g>
<g id="Left-Toe"><g id="None_Toe_Left" class="option" style="display: inherit;">
</g>
</g>
<g id="Right-Ankle">
<g id="None_Ankle_Right" class="option" style="display: inherit;">
</g></g>
<g id="Right-Toe"><g id="None_Toe_Right" class="option" style="display: inherit;">
</g>
</g>
</g>
<g id="FootDecals" mask="url(#FootMask)">
</g>
<g id="Knees">
<g id="Left-Knee"><g id="Basic_Knee_Left" class="option" style="display: inherit;">
<g id="Missiles_Basic-Knee_Left" class="toggle" style="display:none"/>
<g id="Knee_Basic-Knee_Left" fill="rgb(91, 24, 28)">
<path d="M97.4,158.73l1.49-0.24c0,0,1.12,7.19,1.62,10.38c0.13,0.82-0.43,1.6-1.25,1.73h0L97.4,158.73z"/>
<path d="M98.84,158.2l0.85,5.33c1.09-0.61,3.84,0.51,4.74,3.72c1.65,5.89,3.08,7.24,8.25,6.71 c4.02-0.41,6.89-2.29,7.22-5.05c0.49-4.07-0.01-9.98-0.26-12.36c-0.03-0.27-0.17-0.52-0.38-0.7c-0.22-0.17-0.49-0.25-0.77-0.21 C114.3,156.18,98.84,158.2,98.84,158.2z"/>
<path d="M98.33,158.27l0.51-0.08l0.95,5.77l-0.51,0.08L98.33,158.27z"/>
</g>
</g>
</g>
<g id="Right-Knee"><g id="Basic_Knee_Right" class="option" style="display: inherit;">
<g id="Missiles_Basic-Knee_Right" class="toggle" style="display:none"/>
<g id="Knee_Basic-Knee_Right" fill="rgb(0, 80, 137)">
<path d="M72.6,158.73l-1.49-0.24c0,0-1.12,7.19-1.62,10.38c-0.13,0.82,0.43,1.6,1.25,1.73h0L72.6,158.73z"/>
<path d="M71.16,158.2l-0.85,5.33c-1.09-0.61-3.84,0.51-4.74,3.72c-1.65,5.89-3.08,7.24-8.25,6.71 c-4.02-0.41-6.89-2.29-7.22-5.05c-0.49-4.07,0.01-9.98,0.26-12.36c0.03-0.27,0.17-0.52,0.38-0.7c0.22-0.17,0.49-0.25,0.77-0.21 C55.7,156.18,71.16,158.2,71.16,158.2z"/>
<path d="M71.67,158.27l-0.51-0.08l-0.95,5.77l0.51,0.08L71.67,158.27z"/>
</g>
</g>
</g>
</g>
<g id="KneesDecals" mask="url(#KneesMask)">
</g>
<g id="Thighs">
<g id="Left-Thigh">
<g id="None_Thigh_Left" class="option" style="display: inherit;">
</g></g>
<g id="Right-Thigh"><g id="Basic_Thigh_Right" class="option" style="display: inherit;">
<path id="Thigh_Basic-Thigh_Right" d="M50.34,114.13c0,0,5.22-6.67,7.89-7.78c2.53-1.05,5.91-0.6,8.08,1.13 c3.31,2.64,10.92,8.35,11.78,14.71c0.96,7.1-4.24,22.8-6,27.87c-0.6,1.72-2.87,2.51-4.61,2.57c-3.22,0.12-12.01-0.15-14.11-4.87 C50.51,141.34,50.34,114.13,50.34,114.13" fill="rgb(0, 80, 137)"/>
<path id="Trauma-Plate_Basic-Thigh_Right" class="toggle" style="display:none" d="M52.11,114.74c0.78-0.97,2.65-3.22,4.46-4.95 c0.86-0.82,1.68-1.54,2.33-1.82c1.97-0.82,4.61-0.47,6.3,0.88c1.92,1.53,5.35,4.12,7.95,7.29c1.58,1.92,2.88,4.05,3.18,6.29 c0.94,6.9-4.2,22.13-5.92,27.06c-0.15,0.43-0.56,0.7-0.99,0.91c-0.64,0.31-1.38,0.46-2.02,0.49c-1.8,0.07-5.47,0.02-8.54-1 c-1.7-0.56-3.24-1.38-3.89-2.83c-0.81-1.82-1.35-5.42-1.77-9.56C52.32,128.66,52.14,117.46,52.11,114.74" fill="rgb(255, 255, 255)"/>
<g id="Ridge_Basic-Thigh_Right" class="toggle" style="display:none" fill="rgb(255, 255, 255)"/>
</g>
</g>
</g>
<g id="ThighsDecals" mask="url(#ThighsMask)">
</g>
<g id="Groin">
<g id="None_Groin" class="option" style="display: inherit;">
</g></g>
<g id="GroinDecals" mask="url(#GroinMask)">
</g>
<g id="Waist">
<g id="Accessories_Waist">
<g id="Kama" class="toggle" style="">
<g id="Clean_Kama" class="option" style="display: inherit;">
<g id="Trim_Kama-Clean" fill="rgb(91, 24, 28)">
<path d="M98.61,84.3l7.8,59.01l31.5,13.51l-28.5-67.71l-0.97-8.31L98.61,84.3z"/>
<path d="M71.49,84.3l-7.8,59.01l-31.5,13.51l28.5-67.71l0.91-8.31L71.49,84.3z"/>
</g>
<g id="Main_Kama-Clean" fill="rgb(60, 60, 60)">
<path d="M100.56,84.05l7.55,57.08l28.5,12.58l-27.19-64.6l-0.93-8.04L100.56,84.05z"/>
<path d="M69.54,84.05l-7.55,57.08l-28.5,12.58l27.19-64.6l0.91-8.31L69.54,84.05z"/>
</g>
</g></g>
<g id="Loin-Cloth" class="toggle" style="">
<g id="Clean_Loin-Cloth" class="option" style="display: inherit;">
<path id="Trim_Loin-Cloth-Clean" d="M95.69,82.77H74.4v46.47l10.65,13.05l10.65-13.05V82.77z" fill="rgb(91, 24, 28)"/>
<path id="Main_Loin-Cloth-Clean" d="M94.33,87.66H75.77v40.5l9.28,11.38l9.28-11.38V87.66z" fill="rgb(60, 60, 60)"/>
</g></g>
<g id="Left-Holster" class="toggle" style="display:none"/>
<g id="Right-Holster" class="toggle" style=""><g id="Belt-Holster_Right" class="option" style="display: inherit;">
<g id="Weapon_Belt-Holster-Right">
<g id="Main_Weapon_Belt-Holster-Right" fill="rgb(119, 119, 119)">
<path d="M60.06,89.79l0.25-3.73l-0.65-0.04l0.16-2.35l0.65,0.04l0.08-1.22c0.03-0.4-0.48-0.75-1.14-0.8 c-1.5-0.1-4.08-0.27-5.58-0.37c-0.66-0.04-1.21,0.24-1.24,0.64l-0.08,1.22l0.65,0.04L53,85.57l-0.65-0.04l-0.25,3.73l1.52,0.1 L52.93,99.7l4.91,0.33l0.69-10.33L60.06,89.79z"/>
<path d="M52.79,88.76l0.87,0.06l-0.83,12.42l4.92,0.33l0.83-12.42l0.87,0.06l0.19-2.83l-6.66-0.44L52.79,88.76z"/>
<path d="M54.59,82.18l3.94,0.26l-0.26,3.83l-3.94-0.26L54.59,82.18z"/>
<path d="M57.37,90.19l0.65,0.04l-0.65,9.77l-0.65-0.04L57.37,90.19z"/>
<path d="M55.87,87.85l0.65,0.04l-0.65,9.76l-0.65-0.04L55.87,87.85z"/>
<path d="M54.07,89.97l0.65,0.04l-0.65,9.76l-0.65-0.04L54.07,89.97z"/>
</g>
<g id="Accent_Weapon_Belt-Holster-Right" fill="rgb(0, 0, 0)">
<path d="M57.67,86.63l-0.03,0.39l-2.78-0.18l0.03-0.39L57.67,86.63z"/>
<path d="M57.64,87.02l-0.03,0.39l-2.78-0.18l0.03-0.39L57.64,87.02z"/>
<path d="M57.7,86.24l-0.03,0.39l-2.78-0.18l0.03-0.39L57.7,86.24z"/>
<path d="M58.02,81.43l-0.03,0.39l-2.78-0.18l0.03-0.39L58.02,81.43z"/>
<path d="M57.89,82.4l0.65,0.04l-0.26,3.83l-0.65-0.04L57.89,82.4z"/>
<path d="M54.59,82.18l0.65,0.04l-0.26,3.83l-0.65-0.04L54.59,82.18z"/>
<path d="M54.72,90.01l0.98,0.06l-0.66,9.77l-0.98-0.07L54.72,90.01z"/>
<path d="M56.38,90.12l0.98,0.06l-0.65,9.77l-0.98-0.07L56.38,90.12z"/>
</g>
</g>
<path id="Holster_Belt-Holster-Right" d="M58.39,104.11l2.57-15.56l-8.61,10.96l-0.82,21.48 c1.49,1.96,3.16,2.16,5.03,0.37L58.39,104.11z" fill="rgb(68, 40, 16)"/>
</g>
</g>
<g id="Left-Trophy" class="toggle" style="display:none"/>
<g id="Right-Trophy" class="toggle" style="display:none"/>
</g>
<g id="Under-Belt">
<g id="Sash" class="option" fill="rgb(91, 24, 28)" style="display: inherit;">
<path d="M62.79,72.48c2.02-0.45,5.16,0.85,7.8,1.08c2.83,0.24,5.67,0.03,8.5,0.22c1.66,0.12,3.28,0.55,4.93,0.77 c3.16,0.44,6.32,0.21,9.47-0.21c0.83-0.11,1.68-0.13,2.5-0.31c2.06-0.45,4.75-0.95,6.52-1.82c1.57-0.41,3.16-0.48,4.63-0.1 c1.5,0.39,0.45,3.52,0.52,4.81c0.07,1.36,1,6.67,1.56,7.91c0.62,1.38,1.1,2.88-0.7,3.78c-1.5,0.76-3.11,0.07-4.64-0.14 c-1.81-0.25-3.6-0.13-5.38,0.24c-2.18,0.45-4.34,1.27-6.56,1.49c-2.98,0.29-5.97-0.28-8.95-0.24c-1.71,0.03-3.35,0.61-5.07,0.46 c-2.87-0.24-5.47-1.46-8.26-1.75c-1.4-0.14-2.79,0.19-4.19,0.2c-0.96,0-1.86-0.27-2.79-0.51c-0.92-0.23-1.79-0.14-2.29-1.05 c-0.38-0.69,0.43-2.55,0.81-3.13c0.99-1.5,1.26-6.8,0.9-8.5C61.81,74.25,61.39,72.79,62.79,72.48z"/>
<path d="M60.75,85.08c3.17-0.01,5.94-0.07,8.79,1.08c9.66,3.89,9.45,3.36,13.55,3.8c6.05,0.65,8.46,0.41,10.96-0.18 c1.01-0.24,2.02-0.58,2.93-1.06c1.61-0.85,3.18-1.73,4.61-2.92c1.74-1.45,4.78-2.42,7.22-2.3c0,0-0.47-1.67-1.15-6.62 c-0.17-1.28,0.6-2.68-0.01-4.42c-0.26-0.75-2.66-0.54-4.29-0.4c-3.22,0.28-4.64,2.71-7.13,4.66c-1.45,1.13-3.17,2.47-5.31,3.2 c-3.37,1.14-8.62,1.66-18.57-1.8c-3.25-1.13-6-3.27-10.28-2.58c0,0,0.15,2.3,0.16,3.45C62.24,82.67,60.75,85.08,60.75,85.08z"/>
</g></g>
<g id="Belt"><g id="Pouch-Belt-4" class="option" style="display: inherit;">
<path id="Main_Pouch-Belt-4" d="M109.38,84.25c-5.47,0.49-17.98,2.27-24.29,2.27c-6.38,0-18.88-1.79-24.28-2.26 l0.81-6.37c4.44,0.39,17.3,2.2,23.48,2.2c5.99,0,18.59-1.79,23.33-2.22L109.38,84.25z" fill="rgb(80, 49, 22)"/>
<rect id="Buckle_Pouch-Belt-4" x="80.61" y="79.49" width="9.05" height="7.39" fill="rgb(80, 49, 22)"/>
<g id="Pouches_Pouch-Belt-4" fill="rgb(70, 37, 8)">
<g>
<g>
<path d="M66.42,76.75c-1.32-0.09-2.64,0.14-3.85,0.67h0l5.92,0.34L70.1,77C70.1,77,68.06,76.86,66.42,76.75z"/>
<path d="M70.3,77.24c0.01-0.07-0.03-0.14-0.09-0.19c-0.06-0.04-0.14-0.05-0.21-0.02 c-0.53,0.25-1.52,0.72-1.52,0.72s-0.64,7.72-0.79,9.57c-0.01,0.08,0.03,0.15,0.09,0.19c0.06,0.04,0.14,0.04,0.21,0.01 c0.54-0.29,1.06-0.47,1.59-0.56c0.1-0.02,0.17-0.1,0.17-0.19C69.87,83.59,69.99,80.41,70.3,77.24z"/>
<path d="M68.49,77.76l-5.92-0.34c-0.04,1.51-0.18,3.02-0.26,4.54c-0.09,1.75-0.13,3.51-0.3,5.28 c-0.01,0.06,0.01,0.12,0.05,0.16c0.04,0.04,0.1,0.07,0.15,0.07c1.83-0.02,3.66,0.08,5.47,0.31c0.06,0.01,0.11-0.01,0.16-0.04 s0.07-0.09,0.08-0.14c0.06-0.93,0.31-4.51,0.31-4.51L68.49,77.76z"/>
<path d="M68.49,77.76l-5.92-0.34c0,0-0.08,0.74-0.19,1.64c-0.1,0.83,0.16,1.67,0.7,2.31 c0.54,0.64,1.33,1.03,2.17,1.08c0,0,0,0,0,0c0.84,0.05,1.67-0.25,2.28-0.83c0.61-0.58,0.96-1.38,0.96-2.22 C68.49,78.5,68.49,77.76,68.49,77.76z"/>
<path d="M65.32,81.27c0.21,0.01,0.37,0.21,0.36,0.44c-0.01,0.23-0.19,0.4-0.4,0.39s-0.37-0.21-0.36-0.44 C64.93,81.43,65.11,81.26,65.32,81.27z"/>
</g>
</g>
<g>
<path d="M58.83,77.31l0.44-0.68l2.27,0.07l0.28,0.85L58.83,77.31z"/>
<path d="M61.81,77.64c0.01-0.06-0.01-0.11-0.05-0.16c-0.04-0.04-0.09-0.07-0.15-0.07 c-0.69-0.03-2.78-0.11-2.78-0.11l-0.4,8.96c0.11,0.27,1.76,0.43,2.69,0.39c0.11-0.01,0.19-0.09,0.19-0.2 C61.37,83.51,61.47,80.57,61.81,77.64z"/>
</g>
<g>
<g>
<path d="M103.76,76.75c1.32-0.09,2.64,0.14,3.85,0.67h0l-5.92,0.34L100.08,77 C100.08,77,102.13,76.86,103.76,76.75z"/>
<path d="M99.88,77.24c-0.01-0.07,0.03-0.14,0.09-0.19c0.06-0.04,0.14-0.05,0.21-0.02 c0.53,0.25,1.52,0.72,1.52,0.72s0.64,7.72,0.79,9.57c0.01,0.08-0.03,0.15-0.09,0.19c-0.06,0.04-0.14,0.04-0.21,0.01 c-0.54-0.29-1.06-0.47-1.59-0.56c-0.1-0.02-0.17-0.1-0.17-0.19C100.31,83.59,100.19,80.41,99.88,77.24z"/>
<path d="M101.69,77.76l5.92-0.34c0.04,1.51,0.18,3.02,0.26,4.54c0.09,1.75,0.13,3.51,0.3,5.28 c0,0.06-0.01,0.12-0.05,0.16c-0.04,0.04-0.1,0.07-0.15,0.07c-1.83-0.02-3.66,0.08-5.47,0.31c-0.06,0.01-0.11-0.01-0.16-0.04 s-0.07-0.09-0.08-0.14c-0.06-0.93-0.31-4.51-0.31-4.51L101.69,77.76z"/>
<path d="M101.69,77.76l5.92-0.34c0,0,0.08,0.74,0.19,1.64c0.09,0.83-0.16,1.67-0.7,2.31 c-0.54,0.64-1.33,1.03-2.17,1.08c0,0,0,0,0,0c-0.84,0.05-1.67-0.25-2.28-0.83c-0.61-0.58-0.96-1.38-0.96-2.22 C101.69,78.5,101.69,77.76,101.69,77.76z"/>
<path d="M104.86,81.27c-0.21,0.01-0.37,0.21-0.36,0.44c0.01,0.23,0.19,0.4,0.4,0.39s0.37-0.21,0.36-0.44 C105.25,81.43,105.07,81.26,104.86,81.27z"/>
</g>
</g>
<g>
<path d="M111.35,77.31l-0.44-0.68l-2.27,0.07l-0.28,0.85L111.35,77.31z"/>
<path d="M108.38,77.64c-0.01-0.06,0.01-0.11,0.05-0.16c0.04-0.04,0.09-0.07,0.15-0.07 c0.69-0.03,2.78-0.11,2.78-0.11l0.4,8.96c-0.11,0.27-1.75,0.43-2.68,0.39c-0.11-0.01-0.19-0.09-0.19-0.2 C108.81,83.51,108.71,80.57,108.38,77.64z"/>
</g>
</g>
</g></g>
</g>
<g id="WaistDecals" mask="url(#WaistMask)">
</g>
<g id="Extras_Front">
<g id="Front"><g id="None_Front" class="option" style="display: inherit;">
</g>
</g>
</g>
<g id="Extras-FrontDecals" mask="url(#FrontMask)">
</g>
</g>
</svg>