<?xml version='1.0' encoding='UTF-8'?><svg version='1.1' xmlns='http://www.w3.org/2000/svg'><metadata><rdf:rdf xmlns:rdf="http://www.w3.org/1999/02/22-rdf-syntax-ns#" xmlns:rdfs="http://www.w3.org/2000/01/rdf-schema#" xmlns:dc="http://purl.org/dc/elements/1.1/"> <rdf:description> <dc:creator>MandoCreator</dc:creator> <dc:publisher>https://www.mandocreator.com</dc:publisher> <dc:description>Your Beskar'gam - created by MandoCreator</dc:description> <dc:format>image/svg+xml</dc:format> <dc:type>Image</dc:type> <dc:title>MandoCreator - Ner Berskar'gam</dc:title> <dc:date>2021-10-08T16:31:56.253Z</dc:date> </rdf:description> </rdf:rdf></metadata><svg version="1.1" id="Female" xmlns="http://www.w3.org/2000/svg" viewBox="0 -55 169 300" style="fill: white; fill-rule: evenodd; stroke: black; stroke-width: 0.2px; pointer-events: none; position: relative; height: 100%;">
<g id="Extras_Back">
<g id="Back"><g id="NO-CAPES_Back" class="option" style="display: inherit;">
</g>
</g>
</g>
<g id="Suit">
<g id="Neck-Seal">
<g id="Standard-Neck-Seal" class="option" style="fill: rgb(41, 35, 35); display: inherit;">
<path d="M95.2,8.5c0-0.9-0.7-1.7-1.6-1.7c0,0-6.1,0.9-9.1,0.9c-3,0-9.1-0.9-9.1-0.9c-0.9,0-1.6,0.7-1.6,1.7 c0,0.9,0.7,1.6,1.6,1.6c0,0,6.1,0.9,9.1,0.9c3,0,9.1-0.9,9.1-0.9C94.4,10.1,95.2,9.4,95.2,8.5z"/>
<path d="M95.7,10.4c0-1-0.8-1.7-1.7-1.7c0,0-6.4,0.9-9.5,0.9s-9.5-0.9-9.5-0.9c-0.9,0-1.7,0.8-1.7,1.7 c0,1,0.8,1.7,1.7,1.7c0,0,6.4,0.9,9.5,0.9s9.5-0.9,9.5-0.9C95,12.1,95.7,11.3,95.7,10.4z"/>
<path d="M96.3,12.8c0-1-0.8-1.8-1.8-1.8c0,0-6.7,1-10.1,1c-3.4,0-10.1-1-10.1-1c-1,0-1.8,0.8-1.8,1.8 s0.8,1.8,1.8,1.8c0,0,6.7,1,10.1,1c3.4,0,10.1-1,10.1-1C95.5,14.6,96.3,13.8,96.3,12.8z"/>
<path d="M96.9,15c0-1.1-0.8-1.9-1.9-1.9c0,0-7,1-10.6,1c-3.5,0-10.6-1-10.6-1c-1,0-1.9,0.9-1.9,1.9 c0,1.1,0.8,1.9,1.9,1.9c0,0,7,1,10.6,1c3.5,0,10.6-1,10.6-1C96.1,16.9,96.9,16,96.9,15z"/>
<path d="M97.5,17.1c0-0.8-0.9-1.5-2-1.5c0,0-7.4,0.8-11.1,0.8c-3.7,0-11.1-0.8-11.1-0.8c-1.1,0-2,0.6-2,1.5 c0,0.8,0.9,1.5,2,1.5c0,0,7.4,0.8,11.1,0.8c3.7,0,11.1-0.8,11.1-0.8C96.6,18.6,97.5,17.9,97.5,17.1z"/>
<path d="M97.5,19.6c0-0.8-0.9-1.5-2-1.5c0,0-7.4,0.8-11.1,0.8c-3.7,0-11.1-0.8-11.1-0.8c-1.1,0-2,0.6-2,1.5 c0,0.8,0.9,1.4,2,1.4c0,0,7.4,1.5,11.1,1.5c3.7,0,11.1-1.5,11.1-1.5C96.6,21,97.5,20.4,97.5,19.6z"/>
</g>
</g>
<g id="Flight-Suit" style="fill: rgb(41, 35, 35);">
<path d="M38.9,64l5.1-18.4l11.8-8l1.8,16.1c0,0-5.1,9.7-6.9,14.2c-1.8,4.6-5,15.1-5.4,16.5l-2.8,24.4l-8.1-2.6 c0,0-0.3-16.9,0.4-24C35.5,76,38.9,64,38.9,64z"/>
<path d="M130.1,64l-5.1-18.5l-11.7-7.9l-1.9,16.2c0,0,5.1,9.6,6.8,14.1c1.8,4.6,5,15.1,5.4,16.5l2.8,24.4l8.1-2.6 c0,0,0.3-16.9-0.4-24C133.5,76,130.1,64,130.1,64z"/>
<path d="M84.5,116.1c-1,0.1-1.9,0.5-2.2,1.2c-2.9,6.2-8.9,34.4-10.7,39.6c-0.9,2.8-1.7,18.3-3.3,27.3 c-1.9,10.8-8.2,37.3-8.2,37.3l-10.9-1.1c0,0-1.4-26.6-1-36.3c0.3-7.4,3.3-21.8,3.3-21.8s0.7-5.3,0.7-7.9c0.1-9.6,0.9-31,2.8-43.3 c1.5-9.7,10.6-30.1,10.6-30.1s11.9,4.7,18.8,4.7c7,0,18.9-4.8,18.9-4.8s8.6,20.5,10.1,30.2c1.9,12.3,3.2,33.7,3.2,43.3 c0,2.7,0.7,7.9,0.7,7.9s3,14.5,3.3,21.8c0.4,9.7-1,36.3-1,36.3l-10.9,1.1c0,0-6.3-26.5-8.2-37.3c-1.6-9-2.3-24.5-3.3-27.3 c-1.7-5.2-7.7-33.4-10.7-39.6C86.5,116.6,85.6,116.2,84.5,116.1L84.5,116.1z"/>
</g>
<g id="Sleeves" class="toggle" style="fill: rgb(41, 35, 35);">
<path d="M42.6,45.6l0.8,0.3l12.4-8.3c0,0,0.4,8.8,1.4,14.1c0.1,0.7,0.4,1.7,0.6,2.7l-1.6,5.3c0,0-5.6-2.2-8.1-3.6 c-2.4-1.4-6.7-5-6.7-5L42.6,45.6z"/>
<path d="M111.3,54.4c0.3-1.1,0.5-2,0.6-2.7c1-5.3,1.4-14.1,1.4-14.1l12.4,8.3l0.8-0.3l1.2,5.5c0,0-4.3,3.6-6.7,5 c-2.5,1.4-8.1,3.6-8.1,3.6L111.3,54.4z"/>
</g>
</g>
<g id="Boots">
<g id="Basic_Boots" class="option" style="display: inherit;">
<g id="Main_Basic-Boot" style="fill: rgb(153, 44, 197);">
<path d="M60.9,218.4c-0.2-0.1-2.3,1.3-3.4,1.4c-1.3,0.2-2.6,0.2-4,0.1l-0.5-0.1l0,0l-0.1,0l-0.2,0l-0.3,0l-0.1,0 c-0.3,0-0.6-0.1-0.9-0.1l-0.5-0.1l-0.1,0l0,0l-0.1,0l-0.3-0.1l-0.3-0.1l0,0c-1-0.3-0.8-0.8-0.8-0.8c0,1.4-1.5,5.9-5.1,9.5 c-1.1,1.1-3.8,2.4-6.2,3.4c-2.1,0.9-4.7,1.2-6,3.7c-0.3,0.6-0.5,1.2-0.5,1.8c0.1,0.8,0.9,0.9,1.6,1.1c1.7,0.5,3.1,0.8,5.1,1.3 c2.2,0.5,4.2,0.8,6.5,0.7c1.7,0,3.1-0.1,4.6-1c0.6-0.4,1.2-0.7,1.7-1.2c1.2-1.1,1.9-2.2,3.4-2.8c1.1-0.5,2.2-0.8,3.3-1.1 c1.6-0.4,4-0.9,4.8-2.5c0.3-1.2-1.1-3.7-1.2-5.5C61.1,224.6,61,218.4,60.9,218.4z"/>
<path d="M108.2,218.4c0.2-0.1,2.3,1.3,3.4,1.4c1.3,0.2,2.6,0.2,4,0.1l0.5-0.1l0,0l0.1,0l0.2,0l0.3,0l0.1,0 c0.3,0,0.6-0.1,0.9-0.1l0.5-0.1l0.1,0l0,0l0.1,0l0.3-0.1l0.3-0.1l0,0c1-0.3,0.8-0.8,0.8-0.8c0,1.4,1.5,5.9,5.1,9.5 c1.1,1.1,3.8,2.4,6.2,3.4c2.1,0.9,4.7,1.2,6,3.7c0.3,0.6,0.5,1.2,0.5,1.8c-0.1,0.8-0.9,0.9-1.6,1.1c-1.7,0.5-3.1,0.8-5.1,1.3 c-2.2,0.5-4.2,0.8-6.5,0.7c-1.7,0-3.1-0.1-4.6-1c-0.6-0.4-1.2-0.7-1.7-1.2c-1.2-1.1-1.9-2.2-3.4-2.8c-1.1-0.5-2.2-0.8-3.3-1.1 c-1.6-0.4-4-0.9-4.8-2.5c-0.3-1.2,1.1-3.7,1.2-5.5C107.9,224.6,108.1,218.4,108.2,218.4z"/>
</g>
<g id="Bottom_Basic-Boot" style="fill: rgb(111, 103, 103);">
<path d="M62.4,231.5c-0.4,0.8-1.2,1.3-2.1,1.7c-0.8,0.4-1.8,0.6-2.7,0.8c-0.1,0-0.2,0.1-0.4,0.1 c-0.2,0-0.4,0.1-0.5,0.2c-0.1,0-0.1,0-0.2,0l-0.1,0c-0.1,0-0.1,0-0.2,0.1c0,0,0,0-0.1,0c-0.1,0-0.2,0.1-0.3,0.1c0,0-0.1,0-0.1,0 l-0.1,0c-0.2,0.1-0.3,0.1-0.5,0.2c0,0-0.1,0-0.1,0c-0.1,0.1-0.3,0.1-0.4,0.2l-0.1,0c-0.1,0-0.2,0.1-0.2,0.1c0,0-0.1,0-0.1,0 c-0.2,0.1-0.5,0.2-0.7,0.3l0,0c0,0,0,0,0,0c-0.1,0-0.1,0.1-0.2,0.1l0,0c0,0,0,0,0,0c-0.1,0-0.1,0.1-0.2,0.1l-0.1,0l-0.1,0.1 c-0.3,0.2-0.5,0.4-0.7,0.7l-0.1,0.1c-0.1,0.1-0.3,0.3-0.4,0.4c-0.1,0.1-0.3,0.3-0.4,0.4c-0.1,0.1-0.3,0.3-0.4,0.4l-0.1,0 c0,0-0.1,0.1-0.1,0.1c0,0,0,0,0,0c-0.1,0.1-0.2,0.1-0.2,0.2c-0.1,0-0.1,0.1-0.2,0.1l0,0c-0.1,0-0.1,0.1-0.2,0.1 c0,0-0.1,0-0.1,0.1c-0.1,0.1-0.2,0.1-0.3,0.2c-0.1,0-0.1,0.1-0.2,0.1l-0.1,0.1l-0.2,0.1l-0.1,0.1l-0.1,0l-0.1,0 c-0.1,0.1-0.2,0.1-0.3,0.2c0,0-0.1,0-0.1,0.1l0,0c-0.3,0.1-0.6,0.2-0.9,0.3l-0.1,0l-0.1,0c0,0,0,0-0.1,0c-0.1,0-0.1,0-0.2,0 c-0.1,0-0.1,0-0.2,0l-0.1,0l0,0c0,0-0.1,0-0.1,0c-0.1,0-0.1,0-0.2,0c-0.1,0-0.2,0-0.2,0c0,0,0,0-0.1,0c-0.2,0-0.4,0-0.6,0 c-0.1,0-0.2,0-0.3,0l-0.1,0c-0.2,0-0.4,0-0.6,0c-0.1,0-0.3,0-0.4,0c0,0-0.1,0-0.2,0c-0.1,0-0.1,0-0.2,0c-0.1,0-0.1,0-0.2,0 l-0.1,0c-0.3,0-0.5,0-0.8,0c0,0-0.1,0-0.1,0l-0.1,0c0,0-0.1,0-0.1,0c-0.4,0-0.7-0.1-1.1-0.1l-0.1,0c-0.1,0-0.2,0-0.3,0 c0,0-0.1,0-0.1,0l-0.1,0c-0.1,0-0.2,0-0.2,0c-0.3,0-0.6-0.1-1-0.2c-0.1,0-0.1,0-0.2,0l-0.1,0c0,0-0.1,0-0.1,0l-0.1,0 c0,0-0.1,0-0.1,0l-0.1,0c-0.1,0-0.2,0-0.2,0l-0.1,0c-0.1,0-0.2,0-0.3-0.1c-0.1,0-0.2,0-0.2-0.1l0,0c-0.5-0.1-1-0.2-1.4-0.3 l-0.2,0c-0.1,0-0.3-0.1-0.4-0.1l-0.2,0l-0.1,0c-0.2,0-0.4-0.1-0.5-0.1c-0.1,0-0.2-0.1-0.3-0.1c-0.3-0.1-0.6-0.2-0.9-0.2l-0.1,0 c-0.1,0-0.1,0-0.2,0l-0.1,0c-0.2-0.1-0.5-0.1-0.7-0.2l-0.1,0l-0.1,0l-0.3-0.1l-0.1,0l-0.1,0l-0.1,0l-0.1,0l-0.1,0l0,0l0,0l0,0 l0,0l0,0l0,0l0,0l-0.1,0l-0.1,0l0,0c-0.1-0.1-0.1-0.1-0.2-0.2l0,0c0,0-0.4,0.7-0.5,1.8c1,1.5,4.2,1.9,8.6,2.5 c4.4,0.6,7.1,0.5,8.9-0.3c1.8-0.8,5-4.5,7.3-4.7c2.3-0.2,5-1.4,6.1-2.1c0.6-0.3,0.4-2.8,0.4-2.8L62.4,231.5z"/>
<path d="M106.6,231.5c0.4,0.8,1.2,1.3,2.1,1.7c0.8,0.4,1.8,0.6,2.7,0.8c0.1,0,0.2,0.1,0.4,0.1c0.2,0,0.4,0.1,0.5,0.2 c0.1,0,0.1,0,0.2,0l0.1,0c0.1,0,0.1,0,0.2,0.1c0,0,0.1,0,0.1,0c0.1,0,0.2,0.1,0.3,0.1c0,0,0.1,0,0.1,0l0.1,0 c0.2,0.1,0.3,0.1,0.5,0.2c0,0,0.1,0,0.1,0c0.1,0.1,0.3,0.1,0.4,0.2l0.1,0c0.1,0,0.2,0.1,0.2,0.1c0,0,0.1,0,0.1,0 c0.2,0.1,0.5,0.2,0.7,0.3l0,0c0,0,0,0,0,0c0.1,0,0.1,0.1,0.2,0.1l0,0c0,0,0,0,0,0c0.1,0,0.1,0.1,0.2,0.1l0.1,0l0.1,0.1 c0.3,0.2,0.5,0.4,0.7,0.7l0.1,0.1c0.1,0.1,0.3,0.3,0.4,0.4c0.1,0.1,0.3,0.3,0.4,0.4c0.1,0.1,0.3,0.3,0.4,0.4l0.1,0 c0,0,0.1,0.1,0.1,0.1c0,0,0,0,0,0c0.1,0.1,0.2,0.1,0.2,0.2c0.1,0,0.1,0.1,0.2,0.1l0,0c0.1,0,0.1,0.1,0.2,0.1c0,0,0.1,0,0.1,0.1 c0.1,0.1,0.2,0.1,0.3,0.2c0.1,0,0.1,0.1,0.2,0.1l0.1,0.1l0.2,0.1l0.1,0.1l0.1,0l0.1,0c0.1,0.1,0.2,0.1,0.3,0.2c0,0,0.1,0,0.1,0.1 l0,0c0.3,0.1,0.6,0.2,0.9,0.3l0.1,0l0.1,0c0,0,0,0,0.1,0c0.1,0,0.1,0,0.2,0c0,0,0.1,0,0.1,0l0.1,0l0,0c0,0,0.1,0,0.1,0 c0.1,0,0.1,0,0.2,0c0.1,0,0.2,0,0.2,0c0,0,0,0,0.1,0c0.2,0,0.4,0,0.6,0c0.1,0,0.2,0,0.3,0l0.1,0c0.2,0,0.4,0,0.6,0 c0.1,0,0.3,0,0.4,0c0.1,0,0.1,0,0.2,0c0.1,0,0.1,0,0.2,0c0.1,0,0.1,0,0.2,0l0.1,0c0.3,0,0.5,0,0.8,0c0,0,0.1,0,0.1,0l0.1,0 c0,0,0.1,0,0.1,0c0.4,0,0.7-0.1,1.1-0.1l0.1,0c0.1,0,0.2,0,0.3,0c0,0,0.1,0,0.1,0l0.1,0c0.1,0,0.2,0,0.2,0c0.3,0,0.6-0.1,1-0.2 c0.1,0,0.1,0,0.2,0l0.1,0c0,0,0.1,0,0.1,0l0.1,0c0,0,0.1,0,0.1,0l0.1,0c0.1,0,0.2,0,0.2,0l0.1,0c0.1,0,0.2,0,0.3-0.1 c0.1,0,0.2,0,0.2-0.1l0,0c0.5-0.1,1-0.2,1.4-0.3l0.2,0c0.1,0,0.3-0.1,0.4-0.1l0.2,0l0.1,0c0.2,0,0.4-0.1,0.5-0.1 c0.1,0,0.2-0.1,0.3-0.1c0.3-0.1,0.6-0.2,0.9-0.2l0.1,0c0.1,0,0.1,0,0.2,0l0.1,0c0.2-0.1,0.5-0.1,0.7-0.2l0.1,0l0.1,0l0.3-0.1 l0.1,0l0.1,0l0.1,0l0.1,0l0.1,0l0,0l0,0l0,0l0,0l0,0l0,0l0,0l0.1,0l0.1,0l0,0c0.1-0.1,0.1-0.1,0.2-0.2l0,0c0,0,0.4,0.7,0.5,1.8 c-1,1.5-4.2,1.9-8.6,2.5c-4.4,0.6-7.1,0.5-8.9-0.3c-1.8-0.8-5-4.5-7.3-4.7c-2.3-0.2-5-1.4-6.1-2.1c-0.6-0.3-0.4-2.8-0.4-2.8 L106.6,231.5z"/>
</g>
<g id="Top_Basic-Boot" style="fill: rgb(111, 103, 103);">
<path d="M49.8,219.2c-0.6,3-1.6,5.6-3.5,8.1c-3.1,3.9-8.4,4.2-12.1,7.4c-0.9,0.8-0.9,2.1-1,3.3 c1.5,0.4,2.9,0.8,4.6,1.2c0.1-1.2-0.1-2.5,0.9-3.4c3.7-3.2,9.4-3.1,12.5-7c2-2.6,2-5.9,2.6-8.9c-0.1,0-0.2,0-0.3,0l-0.5-0.1l0,0 l-0.1,0l-0.2,0l-0.3,0l-0.1,0c-0.3,0-0.6-0.1-0.9-0.1l-0.5-0.1l-0.1,0l0,0l-0.1,0l-0.3-0.1l-0.3-0.1l0,0 C49.9,219.3,49.9,219.3,49.8,219.2z"/>
<path d="M119.3,219.2c0.6,3,1.6,5.6,3.5,8.1c3.1,3.9,8.4,4.2,12.1,7.4c0.9,0.8,0.9,2.1,1,3.3 c-1.5,0.4-2.9,0.8-4.6,1.2c-0.1-1.2,0.1-2.5-0.9-3.4c-3.7-3.2-9.4-3.1-12.5-7c-2-2.6-2-5.9-2.6-8.9c0.1,0,0.2,0,0.3,0l0.5-0.1 l0,0l0.1,0l0.2,0l0.3,0l0.1,0c0.3,0,0.6-0.1,0.9-0.1l0.5-0.1l0.1,0l0,0l0.1,0l0.3-0.1l0.3-0.1l0,0 C119.1,219.3,119.2,219.3,119.3,219.2z"/>
</g>
<g id="Side_Basic-Boot" style="fill: rgb(111, 103, 103);">
<path d="M60.3,218.6c-1.2,0.5-1.8,1-2.9,1.2c-0.1,0-0.1,0-0.2,0c0,0.4,0,0.8,0,1.1c0,1.9,0.2,9.9,0.6,9.9 c0.4,0,1.4-0.2,1.7-0.5c0.2-0.2,0.2-0.7,0.3-0.9c0.2-0.8,0.4-1.6,0.5-2.4C60.5,225.9,60.3,220.3,60.3,218.6z"/>
<path d="M108.7,218.6c1.2,0.5,1.8,1,2.9,1.2c0.1,0,0.1,0,0.2,0c0,0.4,0,0.8,0,1.1c0,1.9-0.2,9.9-0.6,9.9 c-0.4,0-1.4-0.2-1.7-0.5c-0.2-0.2-0.2-0.7-0.3-0.9c-0.2-0.8-0.4-1.6-0.5-2.4C108.6,225.9,108.8,220.3,108.7,218.6z"/>
</g>
</g>
</g>
<g id="Gloves">
<g id="Left-Glove">
<g id="Basic_Left_Glove" class="option" style="fill: rgb(41, 35, 35); display: inherit;">
<path d="M131.4,123c-0.5,0-0.9,0-1.3,0.1c-0.3,0.1-0.6,0.2-0.9,0.3c-0.8,0.5-0.6,1.7,0.1,2.2c0.9,0.5,2.2,0,2.6-1 C132.1,124.2,131.6,123.4,131.4,123"/>
<path d="M129.9,124c-0.5,0-0.9,0-1.3,0.1c-0.3,0.1-0.6,0.2-0.9,0.3c-0.8,0.5-0.6,1.7,0.1,2.2c0.9,0.5,2.2,0,2.6-1 C130.6,125.2,130.1,124.4,129.9,124"/>
<path d="M128.8,125.4c-0.4,0-1,0.1-1.4,0.3c-0.3,0.1-0.6,0.2-0.8,0.5c-0.8,0.7-0.4,1.8,0.4,2.1 c0.9,0.4,2.2-0.3,2.5-1.4C129.5,126.5,128.8,125.4,128.8,125.4z"/>
<path d="M126.3,109.6c0,0-1.3,2-1.6,3.5c-0.2,1-0.1,3.5-0.4,5.2c-0.3,1.7-0.6,2.6-0.6,2.6s-1.2,2.7-0.9,3.3 c0.2,0.6,1.2,1.2,1.8,0.8c0.7-0.4,1.6-2.3,2.2-3.6c0.6-1.3,1-3.2,1-3.2s0.8,0.3,1.2,0.7c1.3,1.2,0.8,4.7,0.8,4.7 s-0.6,1.3-1.4,2.7c-1.1,1.9-2.9,3.6-1.7,5.1c1.1,1.4,3.5-2.3,3.5-2.3l2.4-3.5c0,0,2.8-5.1,2.9-6.1c0.1-0.8,0-3.3,0-3.3l-0.9-9.9 l-4.4,0.4l-3.6,1.3L126.3,109.6"/>
</g>
</g>
<g id="Right-Glove">
<g id="Basic_Right_Glove" class="option" style="fill: rgb(41, 35, 35); display: inherit;">
<path d="M37.6,123c0.5,0,0.9,0,1.3,0.1c0.3,0.1,0.6,0.2,0.9,0.3c0.8,0.5,0.6,1.7-0.1,2.2c-0.9,0.5-2.2,0-2.6-1 C36.9,124.2,37.4,123.4,37.6,123"/>
<path d="M39.2,124c0.5,0,0.9,0,1.3,0.1c0.3,0.1,0.6,0.2,0.9,0.3c0.8,0.5,0.6,1.7-0.1,2.2c-0.9,0.5-2.2,0-2.6-1 C38.4,125.2,38.9,124.4,39.2,124"/>
<path d="M40.3,125.4c0.5,0,1,0.1,1.4,0.3c0.3,0.1,0.6,0.2,0.8,0.5c0.8,0.7,0.4,1.8-0.4,2.1c-0.9,0.4-2.2-0.3-2.5-1.4 C39.5,126.5,40.3,125.4,40.3,125.4z"/>
<path d="M42.7,109.6c0,0,1.3,2,1.6,3.5c0.2,1,0.1,3.5,0.4,5.2c0.3,1.7,0.6,2.6,0.6,2.6s1.1,2.7,0.9,3.3 c-0.2,0.6-1.2,1.2-1.8,0.8c-0.7-0.4-1.6-2.3-2.2-3.6c-0.6-1.3-1-3.2-1-3.2s-0.8,0.3-1.2,0.7c-1.3,1.2-0.8,4.7-0.8,4.7 s0.6,1.3,1.4,2.7c1.1,1.9,2.9,3.6,1.7,5.1c-1.1,1.4-3.5-2.3-3.5-2.3l-2.4-3.5c0,0-2.8-5.1-2.9-6.1c-0.1-0.8,0-3.3,0-3.3l0.9-9.9 l4.4,0.4l3.6,1.3L42.7,109.6"/>
</g>
</g>
</g>
<g id="Biceps">
<g id="Left-Biceps">
<g id="Basic_Biceps_Left" class="option" style="display: inherit;">
<path id="Main_Basic_Biceps_Left" d="M131.5,57.7c-1.2-2.8-6.3-15-6.3-15s-8.4,3.5-10.5,4.3 c-0.6,0.2-0.9,0.9-0.6,1.5c1,2.4,3.4,8.3,4.9,11.9c0.3,0.8,1,1.5,1.8,1.8c0.8,0.3,1.8,0.3,2.6,0c2.5-1,5.8-2.4,7.5-3.1 C131.5,59,131.8,58.3,131.5,57.7z" style="fill: rgb(222, 90, 0);"/>
<path id="Strap_Basic_Biceps_Left" d="M116.4,54l-4.6,1.9l1.1,3.9l5-2.1L116.4,54" style="fill: rgb(153, 44, 197);"/>
<path id="Trauma-Plate_Basic_Biceps_Left" class="toggle" style="display: none; fill: rgb(255, 255, 255);" d="M131.5,57.2l-5.3-13l-10.3,4.2l4.7,11.4 c0.2,0.4,0.5,0.7,0.9,0.9c0.4,0.2,0.9,0.2,1.3,0L131.5,57.2"/>
</g>
</g>
<g id="Right-Biceps">
<g id="Basic_Biceps_Right" class="option" style="display: inherit;">
<path id="Main_Basic_Biceps_Right" d="M37.5,57.7c1.2-2.8,6.3-15,6.3-15s8.4,3.5,10.5,4.3c0.6,0.2,0.9,0.9,0.6,1.5 c-1,2.4-3.4,8.3-4.9,11.9c-0.3,0.8-1,1.5-1.8,1.8c-0.8,0.3-1.8,0.3-2.6,0c-2.5-1-5.8-2.4-7.5-3.1C37.6,59,37.3,58.3,37.5,57.7z" style="fill: rgb(222, 90, 0);"/>
<path id="Strap_Basic_Biceps_Right" d="M52.7,54l4.6,1.9l-1.1,3.9l-5-2.1L52.7,54" style="fill: rgb(153, 44, 197);"/>
<path id="Trauma-Plate_Basic_Biceps_Right" class="toggle" style="display: none; fill: rgb(255, 255, 255);" d="M37.6,57.2l5.3-13l10.3,4.2l-4.7,11.4 c-0.2,0.4-0.5,0.7-0.9,0.9c-0.4,0.2-0.9,0.2-1.3,0L37.6,57.2"/>
</g>
</g>
</g>
<path id="Vest" d="M90.9,86.3c-4.2,0.9-8.6,0.9-12.8,0c-4.2-0.9-12.5-5.2-12.5-5.2s-7.2-22.8-8.5-29.4 c-1-5.3-1.4-14.1-1.4-14.1L43.4,46l-2.6-1.1c0,0,7.4-16.4,12.3-21.1c4.4-4.3,17-7.3,17-7.3s5.5,6.1,14.6,6.1 c8.6,0,14.6-6.1,14.6-6.1s12.5,3.1,17,7.3c4.9,4.7,12.3,21.1,12.3,21.1l-2.6,1.1l-12.4-8.3c0,0-0.4,8.8-1.4,14.1 c-1.3,6.6-8.5,29.4-8.5,29.4S95.1,85.4,90.9,86.3z" style="fill: rgb(41, 35, 35);"/>
<g class="swappable" id="Chest">
<g id="Chest_Galaxy" style="visibility: visible;">
<g id="Abdomen_Galaxy">
<path id="Abdomen-Plate_Galaxy" d="M77.9,74.5l-2,1.4l-10-1.4l-0.7-5.5l4.7-0.1l2.9-4.7l1.3-4.3l10.4-9.5l0,0l0,0 l10.4,9.5l1.3,4.3l2.9,4.7l4.7,0.1l-0.7,5.5l-10,1.4l-2-1.4H77.9z" style="fill: rgb(111, 103, 103);"/>
<path id="Trauma-Plate_Abdomen_Galaxy" class="toggle" style="display: none; fill: rgb(255, 255, 255);" d="M84.5,52.5l-9,8.2l-1.2,4.1l-3.4,5.6L67,70.5l0.3,2.5l8.2,1.2 l1.9-1.4h14.2l1.9,1.4l8.2-1.2l0.3-2.5l-3.8-0.1l-3.4-5.6l-1.2-4.1L84.5,52.5L84.5,52.5L84.5,52.5z"/>
</g>
<g id="Full-Chest_Galaxy">
<path id="Chest-Plate_Galaxy" d="M80.3,36.5l0,9.7l3,3.1L72.7,59.4L71.3,64l-2.3,3.7h-3.9L63.3,65l-2.4-13.5 l-3.5-5.5l4.5-14.5l5.2-0.7l0.7-3.2l5.5-0.7l1.7,2.9h19l1.7-2.9l5.5,0.7l0.7,3.2l5.2,0.7l4.5,14.5l-3.5,5.5L105.7,65l-1.9,2.8 h-3.9L97.7,64l-1.4-4.7L85.6,49.3l3-3.1l0-9.7l-4.2-3.2L80.3,36.5z" style="fill: rgb(153, 44, 197);"/>
<path id="Trauma-Plating_Left-Chest_Galaxy" class="toggle" style="display: none; fill: rgb(255, 255, 255);" d="M94.9,31.4H84.6l5.7,4.4l0,11.1l-2.3,2.4l9.8,9.3 l1.4,4.9l1.7,2.8h2.1l1.2-1.8l2.4-13.5l3.3-5.2l-4-12.8l-5.3-0.7L100,29l-3.4-0.4L94.9,31.4z"/>
<path id="Trauma-Plating_Right-Chest_Galaxy" class="toggle" style="display: none; fill: rgb(255, 255, 255);" d="M72.4,28.6L69,29l-0.7,3.2L63,32.9l-4,12.8l3.3,5.2 l2.4,13.5l1.2,1.8h2.1l1.7-2.8l1.4-4.9l9.8-9.3l-2.3-2.4l0-11.1l5.7-4.4H74.1L72.4,28.6z"/>
<g id="Accents_Chest-Plate_Galaxy" class="toggle" style="fill: rgb(111, 103, 103);">
<rect x="95" y="34.4" width="8.8" height="1.2"/>
<rect x="95" y="36.5" width="8.8" height="1.2"/>
</g>
</g>
<g id="Iron-Heart_Galaxy">
<path id="Heart_Galaxy" d="M81.9,45.9v-8.7l2.6-2l2.6,2v8.7l-2.6,2.6L81.9,45.9z" style="fill: rgb(111, 103, 103);"/>
<rect id="Center_Heart_Galaxy" class="option" x="83.6" y="38.6" width="1.8" height="6" style="fill: rgb(221, 83, 0); display: inherit;"/>
</g>
<g id="Neck-Armor_Galaxy">
<g id="Neck-Plate_Galaxy" style="fill: rgb(153, 44, 197);">
<path d="M82.4,28.8l-7,0.1l-1.7-2.8L67,26.9l-0.7,2.9L62,30.3l-3.2-10.9l10.9-3.3c0,0,1.4,2.5,2.5,3.3 c1.1,0.9,2.5,1.9,3.9,2.5c1.5,0.6,3.3,1.1,5,1.4c0.2,0,0.4,0.1,0.6,0.1L82.4,28.8z"/>
<path d="M86.6,28.8l7,0.1l1.7-2.8l6.7,0.8l0.7,2.9l4.3,0.5l3.2-10.9l-10.9-3.3c0,0-1.4,2.5-2.5,3.3 c-1.1,0.9-2.5,1.9-3.9,2.5c-1.5,0.6-3.3,1.1-5,1.4c-0.2,0-0.4,0.1-0.6,0.1L86.6,28.8z"/>
</g>
<g id="Trauma-Plates_Neck_Galaxy" class="toggle" style="display: none; fill: rgb(255, 255, 255);"/>
</g>
</g>
</g>
<g id="Chest-Attachments">
<g id="Bandoleer_Accessories_Chest" class="option" style="display: inherit;">
<g id="Strap_Bandoleer_Accessories_Chest" style="fill: rgb(111, 103, 103);">
<path d="M112.6,19.9l-6.7-3.3l-37,67l6.7,3.7L112.6,19.9"/>
<path d="M110.8,18.7l-2.5-1.2l-8.4,15.3l2.4,1.3L110.8,18.7"/>
<path d="M98.8,40.7L96,39.2l-13,23.5l2.8,1.5L98.8,40.7"/>
<path d="M99.1,41.6l-4-2.2l-1.3,2.4l4,2.2L99.1,41.6"/>
<path d="M97.5,44.5l-4-2.2l-1.3,2.4l4,2.2L97.5,44.5"/>
<path d="M95.9,47.3l-4-2.2l-1.3,2.4l4,2.2L95.9,47.3"/>
<path d="M94.4,50.2l-4-2.2l-1.3,2.4l4,2.2L94.4,50.2"/>
<path d="M92.8,53l-4-2.2l-1.3,2.4l4,2.2L92.8,53"/>
<path d="M89.6,58.7l-4-2.2l-1.3,2.4l4,2.2L89.6,58.7"/>
<path d="M91.2,55.9l-4-2.2L86,56.1l4,2.2L91.2,55.9"/>
<path d="M88.1,61.6l-4-2.2l-1.3,2.4l4,2.2L88.1,61.6"/>
</g>
<g id="Ammo_Bandoleer_Accessories_Chest" style="fill: rgb(255, 104, 0);">
<g>
<g>
<path d="M98.9,41.9l1.6,0.9c0.2,0.1,0.2,0.3,0.1,0.5c-0.2,0.3-0.5,0.9-0.7,1.2c-0.1,0.2-0.3,0.2-0.5,0.1l-1.6-0.9 L98.9,41.9z"/>
<path d="M100.1,42.5l-0.1-0.1l-1,1.8l0.1,0.1L100.1,42.5z"/>
<path d="M99.9,42.4l-0.1-0.1l-1,1.8l0.1,0.1L99.9,42.4z"/>
</g>
<g>
<path d="M95,39.7l-1,1.8l-1.6-0.9c-0.2-0.1-0.2-0.3-0.1-0.5c0.2-0.3,0.5-0.9,0.7-1.2c0.1-0.2,0.3-0.2,0.5-0.1 L95,39.7z"/>
<path d="M93.8,39l-0.1-0.1l-1,1.8l0.1,0.1L93.8,39z"/>
</g>
</g>
<g>
<g>
<path d="M95.8,47.6l1.6,0.9c0.2,0.1,0.2,0.3,0.1,0.5c-0.2,0.3-0.5,0.9-0.7,1.2c-0.1,0.2-0.3,0.2-0.5,0.1l-1.6-0.9 L95.8,47.6z"/>
<path d="M97,48.3l-0.1-0.1l-1,1.8l0.1,0.1L97,48.3z"/>
<path d="M96.7,48.1L96.6,48l-1,1.8l0.1,0.1L96.7,48.1z"/>
</g>
<g>
<path d="M91.8,45.4l-1,1.8l-1.6-0.9C89,46.3,89,46,89.1,45.9c0.2-0.3,0.5-0.9,0.7-1.2c0.1-0.2,0.3-0.2,0.5-0.1 L91.8,45.4z"/>
<path d="M90.6,44.7l-0.1-0.1l-1,1.8l0.1,0.1L90.6,44.7z"/>
</g>
</g>
<g>
<g>
<path d="M94.2,50.4l1.6,0.9c0.2,0.1,0.2,0.3,0.1,0.5c-0.2,0.3-0.5,0.9-0.7,1.2c-0.1,0.2-0.3,0.2-0.5,0.1l-1.6-0.9 L94.2,50.4z"/>
<path d="M95.4,51.1L95.3,51l-1,1.8l0.1,0.1L95.4,51.1z"/>
<path d="M95.1,50.9L95,50.9l-1,1.8l0.1,0.1L95.1,50.9z"/>
</g>
<g>
<path d="M90.3,48.3l-1,1.8l-1.6-0.9c-0.2-0.1-0.2-0.3-0.1-0.5c0.2-0.3,0.5-0.9,0.7-1.2c0.1-0.2,0.3-0.2,0.5-0.1 L90.3,48.3z"/>
<path d="M89,47.6l-0.1-0.1l-1,1.8l0.1,0.1L89,47.6z"/>
</g>
</g>
<g>
<g>
<path d="M92.6,53.3l1.6,0.9c0.2,0.1,0.2,0.3,0.1,0.5c-0.2,0.3-0.5,0.9-0.7,1.2c-0.1,0.2-0.3,0.2-0.5,0.1l-1.6-0.9 L92.6,53.3z"/>
<path d="M93.8,54l-0.1-0.1l-1,1.8l0.1,0.1L93.8,54z"/>
<path d="M93.6,53.8l-0.1-0.1l-1,1.8l0.1,0.1L93.6,53.8z"/>
</g>
<g>
<path d="M88.7,51.1l-1,1.8l-1.6-0.9c-0.2-0.1-0.2-0.3-0.1-0.5c0.2-0.3,0.5-0.9,0.7-1.2c0.1-0.2,0.3-0.2,0.5-0.1 L88.7,51.1z"/>
<path d="M87.5,50.5l-0.1-0.1l-1,1.8l0.1,0.1L87.5,50.5z"/>
</g>
</g>
</g>
<g id="Buckles_Bandoleer_Accessories_Chest" style="fill: rgb(153, 44, 197);">
<g>
<path d="M103.4,32.5l-2.9-1.6l-1.6,3l2.9,1.6L103.4,32.5z"/>
<path d="M102.7,33l-2.2-1.2l-1.6,3L101,36L102.7,33z"/>
</g>
<path d="M103.4,29l-1.9-1l1.6-3l3.8,2.1l-1.6,3L103.4,29l0.4-0.7l1.1,0.6l0.9-1.6l-2.1-1.2l-0.9,1.6l1,0.6"/>
</g>
</g>
</g>
<g id="Collar">
<g id="None_Collar" class="option" style="display: inherit;">
</g>
</g>
<svg version="1.1" id="Helmets" xmlns="http://www.w3.org/2000/svg" y="-54px" height="85px" viewBox="0 0 80 80" class="swappable">
<g id="Helmet_Classic" style="visibility: visible;">
<g id="Left-Earcap_Classic" class="toggle">
<path id="Ear-Cap_Left_Classic" d="M60.1,57.2l1.7-2.6l-1.7-17.8l-2.4-1.5L60.1,57.2z" style="fill: rgb(153, 44, 197);"/>
</g>
<g id="Right-Earcap_Classic" class="toggle">
<path id="Ear-Cap_Right_Classic" d="M19.9,57.2l-1.7-2.6l1.7-17.8l2.4-1.5L19.9,57.2z" style="fill: rgb(153, 44, 197);"/>
</g>
<g id="Helmet_Pieces_Classic">
<g id="Face_Classic" style="fill: rgb(153, 44, 197);">
<path d="M22.2,58.7c0,0,0.6-4.2,1.5-6.3c0.9-2.1,2.7-4.4,4.8-4.1c1.6,0.3,4.8,7.9,5.1,17.3 C33.4,65.6,22.2,58.7,22.2,58.7z"/>
<path d="M57.8,58.7c0,0-0.6-4.2-1.5-6.3c-0.9-2.1-2.7-4.4-4.8-4.1c-1.6,0.3-4.8,7.9-5.1,17.3 C46.5,65.6,57.8,58.7,57.8,58.7z"/>
</g>
<g id="Cheeks_Classic" style="fill: rgb(111, 103, 103);">
<path d="M22.2,58.7l-2.4-0.1l1.8-16.3c0.6,0.2,5.7,1.8,7.4,3.4c1.8,1.7,3,4.3,3.6,6.8c0.6,2.7,1,9.6,1.1,12.2 c-0.4-8.9-3.5-16-5-16.3c-2-0.4-3.8,2-4.8,4.1C22.8,54.5,22.2,58.7,22.2,58.7z"/>
<path d="M46.4,64.7c0.1-2.6,0.4-9.6,1.1-12.2c0.6-2.5,1.8-5.1,3.6-6.8c1.7-1.6,6.6-3.1,7.4-3.3l1.8,16.3l-2.4,0.2 v-0.1c0,0-0.6-4.2-1.5-6.3c-0.9-2.1-2.7-4.4-4.8-4.1C49.9,48.7,46.9,55.8,46.4,64.7z"/>
</g>
<path id="Eyes_Classic" d="M46.4,65.7H33.6c0,0-0.3-9.9-1.1-13.3c-0.6-2.5-1.8-5.1-3.6-6.8c-1.8-1.7-7.3-3.4-7.3-3.4 l0.7-6.3c0,0,5.7,0.7,8.6,0.9C33.6,37,39,37,40.1,37c1.1,0,6.5,0,9.2-0.2c2.9-0.2,8.6-0.9,8.6-0.9l0.7,6.3c0,0-5.5,1.7-7.3,3.4 c-1.8,1.7-3,4.3-3.6,6.8C46.7,55.8,46.4,65.7,46.4,65.7z" style="fill: rgb(153, 44, 197);"/>
<g id="Visors_Classic">
<path id="Basic_Visor_Classic" class="option" d="M43.4,65.7h-6.9V42.3c0,0-3.8-0.4-5.7-0.8C28.6,41,23,39.2,23,39.2l0.1-1.3 c0,0,5.2,0.9,7.8,1.2c2.6,0.3,6.1,0.6,9.1,0.6s6.5-0.4,9.1-0.6c2.6-0.3,7.8-1.2,7.8-1.2l0.1,1.3c0,0-5.6,1.8-7.9,2.3 c-1.9,0.4-5.7,0.8-5.7,0.8V65.7z" style="fill: rgb(0, 0, 0); display: inherit;"/>
</g>
<path id="Dome_Classic" d="M22.2,36.1L22.2,36.1c0.1-9.4,7.9-16.9,17.6-17.1h0.4c9.7,0.2,17.5,7.7,17.6,17v0.1 c-0.8,0.1-5.9,0.7-8.6,0.9s-8.1,0.2-9.2,0.2s-6.5,0-9.2-0.2S23,36.1,22.2,36.1z" style="fill: rgb(111, 103, 103);"/>
</g>
</g>
</svg>
<g id="Shoulders">
<g id="Left-Shoulder">
<g id="Classic_Shoulder_Left" class="option" style="display: inherit;">
<path id="Main_Shoulder_Classic_Left" d="M113.9,18.6l-2.5,11.5l2,6.6l13.6,6.9l2.3-3.5L113.9,18.6z" style="fill: rgb(153, 44, 197);"/>
<path id="Trauma-Plates_Shoulder_Classic_Left" class="toggle" style="display: none; fill: rgb(255, 255, 255);" d="M113.1,30l1.7,5.5l11.6,5.9l2-3l-13.1-18.3L113.1,30z "/>
</g>
</g>
<g id="Right-Shoulder">
<g id="Classic_Shoulder_Right" class="option" style="display: inherit;">
<path id="Main_Shoulder_Classic_Right" d="M55.2,18.6l2.5,11.5l-2,6.6l-13.6,6.9l-2.3-3.5L55.2,18.6z" style="fill: rgb(153, 44, 197);"/>
<path id="Trauma-Plates_Shoulder_Classic_Right" class="toggle" style="display: none; fill: rgb(255, 255, 255);" d="M56,30l-1.7,5.5l-11.6,5.9l-2-3l13.1-18.3L56,30z"/>
</g>
</g>
</g>
<g id="Gauntlets">
<g id="Left-Gauntlets">
<g id="Heavy_Gauntlet_Left" class="option" style="display: inherit;">
<g id="Top-2_Heavy_Gauntlet_Left" style="fill: rgb(153, 44, 197);">
<path d="M136.7,80.1l1.7,0.3l0.8,8.3l-1.6,1.1L136.7,80.1z"/>
<path d="M137.5,89.1l1,10.9l-1.1,1.2l0.6,6.4l-0.5,0.3l-1.7-17.5L137.5,89.1z"/>
<path d="M137.8,86c0.2,0,0.4,0.2,0.3,0.4s-0.2,0.4-0.4,0.3c-0.2,0-0.4-0.2-0.3-0.4C137.4,86.2,137.6,86,137.8,86z"/>
</g>
<g id="Top-1_Heavy_Gauntlet_Left" style="fill: rgb(153, 44, 197);">
<path d="M133,108.7l4.5-0.8l-1.7-17.5l1.7-1.3l-0.9-9.5l-6.6-1.2L133,108.7z"/>
<path d="M134.9,79.2l0.9,11.1"/>
</g>
<g id="Accent-Top_Heavy_Gauntlet_Left" style="fill: rgb(111, 103, 103);">
<path d="M136.5,105.1l-2.8,0.3l0.2,2.2l2.8-0.4L136.5,105.1z"/>
<path d="M135.5,95.8l-2.8,0.3l0.9,8.6l2.8-0.3L135.5,95.8z"/>
<path d="M134.3,79.8l-3.1-0.5l0.9,9.5l3-0.4L134.3,79.8z"/>
</g>
<path id="Bottom_Heavy_Gauntlet_Left" d="M130.1,78.8c-3.4-0.2-7.1,1-9.5,3.7c-0.8,0.9-1.1,2.1-0.9,3.2 c1.2,5.6,5.2,23.7,5.2,23.7l8.2-0.7L130.1,78.8z" style="fill: rgb(111, 103, 103);"/>
<g id="Accent-Bottom_Heavy_Gauntlet_Left" style="fill: rgb(111, 103, 103);">
<path d="M133,108.7l-8.2,0.7l-0.3-1.5l8.3-0.9L133,108.7z"/>
<path d="M130.3,80.8c-4.4,0.1-8.2,1.4-10.3,6l-0.2-1.1c-0.2-0.9,0-1.8,0.4-2.6l0.5-0.6c2.4-2.7,6.1-3.8,9.5-3.7 L130.3,80.8z"/>
<path d="M129.2,79.4l-3.6,0.4l1.6,14.3l3.6-0.4L129.2,79.4z"/>
<path d="M128.8,79.7l-2.7,0.3l1.5,13.2l2.7-0.3L128.8,79.7z"/>
<path d="M126.1,80l-0.5-0.2"/>
<path d="M129.2,79.4l-0.4,0.3"/>
<path d="M130.9,93.7l-0.6-0.8"/>
<path d="M127.3,94.1l0.4-0.9"/>
</g>
<g id="No-Device_Attachment_Heavy_Gauntlet_Left" class="option" style="display: inherit;">
</g>
</g>
</g>
<g id="Right-Gauntlets">
<g id="Heavy_Gauntlet_Right" class="option" style="display: inherit;">
<g id="Top-2_Heavy_Gauntlet_Right" style="fill: rgb(153, 44, 197);">
<path d="M32.4,80.1l-1.7,0.3l-0.8,8.3l1.6,1.1L32.4,80.1z"/>
<path d="M31.6,89.1l-1,10.9l1.1,1.2l-0.6,6.4l0.5,0.3l1.7-17.5L31.6,89.1z"/>
<path d="M31.3,86c-0.2,0-0.4,0.2-0.3,0.4c0,0.2,0.2,0.4,0.4,0.3c0.2,0,0.4-0.2,0.3-0.4C31.7,86.2,31.5,86,31.3,86z"/>
</g>
<g id="Top-1_Heavy_Gauntlet_Right" style="fill: rgb(153, 44, 197);">
<path d="M36,108.7l-4.5-0.8l1.7-17.5l-1.7-1.3l0.9-9.5l6.6-1.2L36,108.7z"/>
<path d="M34.2,79.2l-0.9,11.1"/>
</g>
<g id="Accent-Top_Heavy_Gauntlet_Right" style="fill: rgb(111, 103, 103);">
<path d="M32.6,105.1l2.8,0.3l-0.2,2.2l-2.8-0.4L32.6,105.1z"/>
<path d="M33.6,95.8l2.8,0.3l-0.9,8.6l-2.8-0.3L33.6,95.8z"/>
<path d="M34.8,79.8l3.1-0.5l-0.9,9.5l-3-0.4L34.8,79.8z"/>
</g>
<path id="Bottom_Heavy_Gauntlet_Right" d="M39,78.8c3.4-0.2,7.1,1,9.5,3.7c0.8,0.9,1.1,2.1,0.9,3.2 c-1.2,5.6-5.2,23.7-5.2,23.7l-8.2-0.7L39,78.8z" style="fill: rgb(111, 103, 103);"/>
<g id="Accent-Bottom_Heavy_Gauntlet_Right" style="fill: rgb(111, 103, 103);">
<path d="M36,108.7l8.2,0.7l0.3-1.5l-8.3-0.9L36,108.7z"/>
<path d="M38.8,80.8c4.4,0.1,8.2,1.4,10.3,6l0.2-1.1c0.2-0.9,0-1.8-0.4-2.6l-0.5-0.6c-2.4-2.7-6.1-3.8-9.5-3.7 L38.8,80.8z"/>
<path d="M39.8,79.4l3.6,0.4l-1.6,14.3l-3.6-0.4L39.8,79.4z"/>
<path d="M40.3,79.7l2.7,0.3l-1.5,13.2l-2.7-0.3L40.3,79.7z"/>
<path d="M42.9,80l0.5-0.2"/>
<path d="M39.8,79.4l0.4,0.3"/>
<path d="M38.2,93.7l0.6-0.8"/>
<path d="M41.8,94.1l-0.4-0.9"/>
</g>
<g id="No-Device_Attachment_Heavy_Gauntlet_Right" class="option" style="display: inherit;">
</g>
</g>
</g>
</g>
<g id="Shins">
<g id="Left-Shin">
<g id="Legacy_Shin_Left" class="option" style="display: inherit;">
<path id="Plate-3_Legacy-Shin_Left" d="M104.2,199.5l3.4,15.8c0,0,4.9,1.2,7.6,1c2.7-0.2,6.3-1.4,6.3-1.4 l-0.7-16.9l-7.4,4.1L104.2,199.5" style="fill: rgb(153, 44, 197);"/>
<path id="Plate-2_Legacy-Shin_Left" d="M101.6,189.7l1.9,9.6l9.9,2.8l8-4.4l-0.3-9.6l-9,4.1L101.6,189.7" style="fill: rgb(111, 103, 103);"/>
<path id="Plate-1_Legacy-Shin_Left" d="M105.9,176.5l-6.4,6.3l1.4,6.7l11.3,2.6l9.6-4.3l-0.2-8.1l-7.2-3.9 L105.9,176.5" style="fill: rgb(153, 44, 197);"/>
<path id="Trauma-Plate-3_Legacy-Shin_Left" class="toggle" style="display: none; fill: rgb(255, 255, 255);" d="M119.3,200.9l-5,2.7c-0.4,0.2-0.9,0.3-1.3,0.1l-6.5-1.9 l2.5,12c1.5,0.3,4.3,0.9,6,0.8c1.6-0.1,3.5-0.6,4.7-1L119.3,200.9"/>
<path id="Trauma-Plate-2_Legacy-Shin_Left" class="toggle" style="display: none; fill: rgb(255, 255, 255);" d="M119.6,190.7l-6.6,3c-0.3,0.2-0.7,0.2-1.1,0.1l-8-1.8 l1.2,6l8.2,2.3l6.5-3.6L119.6,190.7"/>
<path id="Trauma-Plate-1_Legacy-Shin_Left" class="toggle" style="display: none; fill: rgb(255, 255, 255);" d="M106.7,178.2l-5.3,5.2l1,4.7l9.7,2.2l8-3.6l-0.2-6 l-5.9-3.2L106.7,178.2"/>
<g id="Ridge_Legacy-Shin_Left" class="toggle" style="display: none; fill: rgb(255, 255, 255);"/>
</g>
</g>
<g id="Right-Shin">
<g id="Legacy_Shin_Right" class="option" style="display: inherit;">
<path id="Plate-3_Legacy-Shin_Right" d="M64.8,199.5l-3.4,15.8c0,0-4.9,1.2-7.6,1c-2.7-0.2-6.3-1.4-6.3-1.4 l0.7-16.9l7.4,4.1L64.8,199.5" style="fill: rgb(153, 44, 197);"/>
<path id="Plate-2_Legacy-Shin_Right" d="M67.4,189.7l-1.9,9.6l-9.9,2.8l-8-4.4l0.3-9.6l9,4.1L67.4,189.7" style="fill: rgb(111, 103, 103);"/>
<path id="Plate-1_Legacy-Shin_Right" d="M63.1,176.5l6.4,6.3l-1.4,6.7l-11.3,2.6l-9.6-4.3l0.2-8.1l7.2-3.9 L63.1,176.5" style="fill: rgb(153, 44, 197);"/>
<path id="Trauma-Plate-3_Legacy-Shin_Right" class="toggle" style="display: none; fill: rgb(255, 255, 255);" d="M49.7,200.9l5,2.7c0.4,0.2,0.9,0.3,1.3,0.1l6.5-1.9 l-2.5,12c-1.5,0.3-4.3,0.9-6,0.8c-1.6-0.1-3.5-0.6-4.7-1L49.7,200.9"/>
<path id="Trauma-Plate-2_Legacy-Shin_Right" class="toggle" style="display: none; fill: rgb(255, 255, 255);" d="M49.4,190.7l6.6,3c0.3,0.2,0.7,0.2,1.1,0.1l8-1.8l-1.2,6 l-8.2,2.3l-6.5-3.6L49.4,190.7"/>
<path id="Trauma-Plate-1_Legacy-Shin_Right" class="toggle" style="display: none; fill: rgb(255, 255, 255);" d="M62.3,178.2l5.3,5.2l-1,4.7l-9.7,2.2l-8-3.6l0.2-6 l5.9-3.2L62.3,178.2"/>
<g id="Ridge_Legacy-Shin_Right" class="toggle" style="display: none; fill: rgb(255, 255, 255);"/>
</g>
</g>
</g>
<g id="Foot">
<g id="Left-Ankle">
<g id="Heavy_Ankle_Left" class="option" style="display: inherit;">
<path id="Plate_Heavy-Ankle_Left" d="M106.6,220.2l0.3,3.1l6.3,7.9l6.1-2.8l6.7-1.7l-5-9c-2.5-0.4-5.5,0-8.9,1 l-1.9,1.7L106.6,220.2" style="fill: rgb(111, 103, 103);"/>
<path id="Trim_Heavy-Ankle_Left" d="M112,218.7l0.7,0.9l-2.2,1.9l-2.5-0.1l0.1,1.2l5.4,6.7l5.5-2.6l6.6-1.6 l0.7,1.4l-6.9,1.8l-6.1,2.8l-6.3-7.9l-0.3-3.1l3.5,0.2L112,218.7" style="fill: rgb(153, 44, 197);"/>
</g>
</g>
<g id="Left-Toe">
<g id="None_Toe_Left" class="option" style="display: inherit;">
</g>
</g>
<g id="Right-Ankle">
<g id="Heavy_Ankle_Right" class="option" style="display: inherit;">
<path id="Plate_Heavy-Ankle_Right" d="M62.5,220.2l-0.3,3.1l-6.3,7.9l-6.1-2.8l-6.7-1.7l5-9c2.5-0.4,5.5,0,8.9,1 l1.9,1.7L62.5,220.2" style="fill: rgb(111, 103, 103);"/>
<path id="Trim_Heavy-Ankle_Right" d="M57,218.7l-0.7,0.9l2.2,1.9l2.5-0.1l-0.1,1.2l-5.4,6.7l-5.5-2.6l-6.6-1.6 l-0.7,1.4l6.9,1.8l6.1,2.8l6.3-7.9l0.3-3.1l-3.5,0.2L57,218.7" style="fill: rgb(153, 44, 197);"/>
</g>
</g>
<g id="Right-Toe">
<g id="None_Toe_Right" class="option" style="display: inherit;">
</g>
</g>
</g>
<g id="Knees">
<g id="Left-Knee">
<g id="Basic_Knee_Left" class="option" style="display: inherit;">
<g id="Missiles_Basic-Knee_Left" class="toggle" style="display:none"/>
<g id="Knee_Basic-Knee_Left" style="fill: rgb(153, 44, 197);">
<path d="M96.6,160.5l1.4-0.2c0,0,1.1,7.1,1.6,10.2c0.1,0.8-0.4,1.6-1.2,1.7c0,0,0,0,0,0L96.6,160.5z"/>
<path d="M98,160l0.8,5.2c1.1-0.6,3.7,0.5,4.6,3.6c1.6,5.8,3,7.1,8,6.6c3.9-0.4,6.7-2.2,7-4.9c0.5-4,0-9.8-0.2-12.1 c0-0.3-0.2-0.5-0.4-0.7c-0.2-0.2-0.5-0.2-0.7-0.2C113,158,98,160,98,160z"/>
<path d="M97.5,160L98,160l0.9,5.7l-0.5,0.1L97.5,160z"/>
</g>
</g>
</g>
<g id="Right-Knee">
<g id="Basic_Knee_Right" class="option" style="display: inherit;">
<g id="Missiles_Basic-Knee_Right" class="toggle" style="display:none"/>
<g id="Knee_Basic-Knee_Right" style="fill: rgb(153, 44, 197);">
<path d="M72.4,160.5l-1.4-0.2c0,0-1.1,7.1-1.6,10.2c-0.1,0.8,0.4,1.6,1.2,1.7c0,0,0,0,0,0L72.4,160.5z"/>
<path d="M71,160l-0.8,5.2c-1.1-0.6-3.7,0.5-4.6,3.6c-1.6,5.8-3,7.1-8,6.6c-3.9-0.4-6.7-2.2-7-4.9 c-0.5-4,0-9.8,0.2-12.1c0-0.3,0.2-0.5,0.4-0.7c0.2-0.2,0.5-0.2,0.7-0.2C56,158,71,160,71,160z"/>
<path d="M71.5,160L71,160l-0.9,5.7l0.5,0.1L71.5,160z"/>
</g>
</g>
</g>
</g>
<g id="Thighs">
<g id="Left-Thigh">
<g id="Legacy_Thigh_Left" class="option" style="display: inherit;">
<path id="Plate-3_Legacy-Thigh_Left" d="M95.6,142.1l1.8,10.8l10.4,1.6l8.4-3.7l0.4-11l-9.6,4.5L95.6,142.1" style="fill: rgb(111, 103, 103);"/>
<path id="Plate-2_Legacy-Thigh_Left" d="M93.2,131.7L95,142l12.1,2.3l10.1-4.8l0.5-12.5l-11.5,7.3L93.2,131.7" style="fill: rgb(153, 44, 197);"/>
<path id="Plate-1_Legacy-Thigh_Left" d="M118.8,116.8l-8.9-7.8L98,111l-6.8,11.3l1.7,9.4l13.4,2.7l12-7.7 L118.8,116.8" style="fill: rgb(111, 103, 103);"/>
<path id="Trauma-Plate-3_Legacy-Thigh_Left" class="toggle" style="display: none; fill: rgb(255, 255, 255);" d="M114.7,143.2l-6.8,3.2c-0.3,0.2-0.7,0.2-1,0.1l-8.8-1.7 l1,6.1l8.6,1.3l6.8-3L114.7,143.2"/>
<path id="Trauma-Plate-2_Legacy-Thigh_Left" class="toggle" style="display: none; fill: rgb(255, 255, 255);" d="M115.7,130.9l-8.5,5.4c-0.4,0.2-0.8,0.3-1.2,0.2 l-10.3-2.1l1,5.6l10.2,2l8.5-4L115.7,130.9"/>
<path id="Trauma-Plate-1_Legacy-Thigh_Left" class="toggle" style="display: none; fill: rgb(255, 255, 255);" d="M99.1,113.1l-5.9,9.7l1.3,6.9l11.5,2.3l10.5-6.7l0.4-7.5 l-7.5-6.5L99.1,113.1"/>
<g id="Ridge_Legacy-Thigh_Left" class="toggle" style="fill: rgb(153, 44, 197);">
<path d="M109.1,132.6l0.5,10.6l-2.5,1.2l-3.2-0.6l-1.4-10.1l3.8,0.8L109.1,132.6"/>
<path d="M109.6,143.2l0.7,10.3l-2.4,1l-2.7-0.4l-1.2-10.4l3.2,0.6L109.6,143.2"/>
<path d="M102.5,133.6l-2.9-22.9l4.1-2.1l4.3,0.7l1.1,23.2l-2.8,1.8L102.5,133.6"/>
<path d="M103.6,108.6l2.6,25.7"/>
<path d="M106.3,134.4l0.8,10"/>
<path d="M107.1,144.3l0.8,10.2"/>
</g>
</g>
</g>
<g id="Right-Thigh">
<g id="Legacy_Thigh_Right" class="option" style="display: inherit;">
<path id="Plate-3_Legacy-Thigh_Right" d="M73.4,142.1l-1.8,10.8l-10.4,1.6l-8.4-3.7l-0.4-11l9.6,4.5L73.4,142.1" style="fill: rgb(111, 103, 103);"/>
<path id="Plate-2_Legacy-Thigh_Right" d="M75.8,131.7L74,142l-12.1,2.3l-10.1-4.8l-0.5-12.5l11.5,7.3L75.8,131.7" style="fill: rgb(153, 44, 197);"/>
<path id="Plate-1_Legacy-Thigh_Right" d="M50.2,116.8l8.9-7.8l11.9,2l6.8,11.3l-1.7,9.4l-13.4,2.7l-12-7.7 L50.2,116.8" style="fill: rgb(111, 103, 103);"/>
<path id="Trauma-Plate-3_Legacy-Thigh_Right" class="toggle" style="display: none; fill: rgb(255, 255, 255);" d="M54.3,143.2l6.8,3.2c0.3,0.2,0.7,0.2,1,0.1l8.8-1.7 l-1,6.1l-8.6,1.3l-6.8-3L54.3,143.2"/>
<path id="Trauma-Plate-2_Legacy-Thigh_Right" class="toggle" style="display: none; fill: rgb(255, 255, 255);" d="M53.3,130.9l8.5,5.4c0.4,0.2,0.8,0.3,1.2,0.2l10.3-2.1 l-1,5.6l-10.2,2l-8.5-4L53.3,130.9"/>
<path id="Trauma-Plate-1_Legacy-Thigh_Right" class="toggle" style="display: none; fill: rgb(255, 255, 255);" d="M69.9,113.1l5.9,9.7l-1.3,6.9L63.1,132l-10.5-6.7 l-0.4-7.5l7.5-6.5L69.9,113.1"/>
<g id="Ridge_Legacy-Thigh_Right" class="toggle" style="fill: rgb(153, 44, 197);">
<path d="M59.9,132.6l-0.5,10.6l2.5,1.2l3.2-0.6l1.4-10.1l-3.8,0.8L59.9,132.6"/>
<path d="M59.4,143.2l-0.7,10.3l2.4,1l2.7-0.4l1.2-10.4l-3.2,0.6L59.4,143.2"/>
<path d="M66.5,133.6l2.9-22.9l-4.1-2.1l-4.3,0.7l-1.1,23.2l2.8,1.8L66.5,133.6"/>
<path d="M65.4,108.6l-2.6,25.7"/>
<path d="M62.7,134.4l-0.8,10"/>
<path d="M61.9,144.3l-0.8,10.2"/>
</g>
</g>
</g>
</g>
<g id="Groin">
<g id="Basic_Groin" class="option" style="display: inherit;">
<path id="Groin-Plate_Groin" d="M78.2,107.5L67.7,86.2h33.8l-10.6,21.2c0,0-4.2,5.1-6.3,5.1 C82.5,112.5,78.2,107.5,78.2,107.5z" style="fill: rgb(163, 163, 163);"/>
<path id="Trauma-Plating_Groin" class="toggle" style="display: none; fill: rgb(255, 255, 255);" d="M89.8,106.7l9.5-19.2H69.8l9.5,19.2c0.4,0.5,2.1,2.4,3.7,3.6 c0.6,0.4,1.1,0.8,1.5,0.8c0.4,0,0.9-0.4,1.5-0.8C87.7,109.2,89.4,107.2,89.8,106.7"/>
</g>
</g>
<g id="Waist">
<g id="Accessories_Waist">
<g id="Kama" class="toggle" style="">
<g id="Clean_Kama" class="option" style="display: inherit;">
<g id="Trim_Kama-Clean" style="fill: rgb(153, 44, 197);">
<path d="M97.7,87.6l7.6,57.8l30.7,13.2l-27.7-66.3l-0.9-8.1L97.7,87.6z"/>
<path d="M71.3,87.6l-7.6,57.8l-30.7,13.2l27.7-66.3l0.9-8.1L71.3,87.6z"/>
</g>
<g id="Main_Kama-Clean" style="fill: rgb(111, 103, 103);">
<path d="M99.6,87.4l7.3,55.9l27.7,12.3l-26.5-63.2l-0.9-7.9L99.6,87.4z"/>
<path d="M69.5,87.4l-7.3,55.9l-27.7,12.3l26.5-63.2l0.9-8.1L69.5,87.4z"/>
</g>
</g>
</g>
<g id="Loin-Cloth" class="toggle" style="">
<g id="Clean_Loin-Cloth" class="option" style="display: inherit;">
<path id="Trim_Loin-Cloth-Clean" d="M94.9,86.1H74.2v45.5l10.4,12.8l10.4-12.8V86.1z" style="fill: rgb(153, 44, 197);"/>
<path id="Main_Loin-Cloth-Clean" d="M93.6,90.9H75.5v39.7l9,11.1l9-11.1V90.9z" style="fill: rgb(111, 103, 103);"/>
</g>
</g>
<g id="Left-Holster" class="toggle" style="">
<g id="Hanging-Holster_Left" class="option" style="display: inherit;">
<g id="Weapon_Hanging-Holster-Left">
<g id="Main_Weapon_Hanging-Holster-Left" style="fill: rgb(153, 44, 197);">
<path d="M117,118.2l0.2-3.7l0.6,0l0.1-2.3l-0.6,0l0.1-1.2c0-0.4,0.6-0.7,1.2-0.7c1.5,0.1,4,0.2,5.4,0.3 c0.6,0,1.1,0.4,1.1,0.8l-0.1,1.2l-0.6,0l-0.1,2.3l0.6,0l-0.2,3.7l-1.5-0.1l-0.5,10.1l-4.8-0.2l0.5-10.1L117,118.2z"/>
<path d="M124.2,118l-0.9,0l-0.6,12.2l-4.8-0.2l0.6-12.2l-0.8,0l0.1-2.8l6.5,0.3L124.2,118z"/>
<path d="M123.1,111.4l-3.8-0.2l-0.2,3.8l3.8,0.2L123.1,111.4z"/>
<path d="M119.6,118.8l-0.6,0l-0.4,9.6l0.6,0L119.6,118.8z"/>
<path d="M121.3,116.7l-0.6,0l-0.4,9.6l0.6,0L121.3,116.7z"/>
<path d="M122.8,119l-0.6,0l-0.4,9.6l0.6,0L122.8,119z"/>
</g>
<g id="Accent_Weapon_Hanging-Holster-Left" style="fill: rgb(221, 83, 0);">
<path d="M119.7,115.3l0,0.4l2.7,0.1l0-0.4L119.7,115.3z"/>
<path d="M119.6,115.7l0,0.4l2.7,0.1l0-0.4L119.6,115.7z"/>
<path d="M119.7,115l0,0.4l2.7,0.1l0-0.4L119.7,115z"/>
<path d="M119.9,110.2l0,0.4l2.7,0.1l0-0.4L119.9,110.2z"/>
<path d="M119.9,111.2l-0.6,0l-0.2,3.8l0.6,0L119.9,111.2z"/>
<path d="M123.1,111.4l-0.6,0l-0.2,3.8l0.6,0L123.1,111.4z"/>
<path d="M122.2,119l-1,0l-0.4,9.6l1,0L122.2,119z"/>
<path d="M120.5,118.9l-1,0l-0.4,9.6l1,0L120.5,118.9z"/>
</g>
</g>
<path id="Holster_Hanging-Holster-Left" d="M117,132.3l-0.8-15.4l7.1,11.6l-1.6,21c-1.7,1.7-3.3,1.8-4.9-0.2 L117,132.3z" style="fill: rgb(111, 103, 103);"/>
<g id="Straps_Hanging-Holster-Left" style="fill: rgb(111, 103, 103);">
<path d="M89.8,92c7.8,11.2,15.6,20.6,26.5,24.9l0.1,2.6c-13.5-5.7-20.7-15.3-28.7-27.5H89.8z"/>
<path d="M117,135.4c-7.3,5.6-15.2,8.6-24.6,9.1l0.7,2.1c8.2-0.7,15.8-3.8,23.9-9V135.4z"/>
<path d="M117,137.6l0-2.2c1.9,0.8,4.1,0.9,5.8,0.3l-0.2,2.3C120.8,138.4,118.7,138.5,117,137.6z"/>
</g>
<g id="Buckle_Hanging-Holster-Left" style="fill: rgb(153, 44, 197);">
<path d="M100,144.4l-1,0.2l0.1,0.3l1-0.2L100,144.4"/>
<path d="M97.2,103.3l-0.7-0.9l-0.3,0.2l0.7,0.9L97.2,103.3"/>
<path d="M96.9,103.5l-1.2,0.9L93,101l2.6-2.1l2.7,3.4l-1.2,1l-0.6-0.8l0.6-0.5l-1.5-1.9l-1.4,1.2l1.5,1.9l0.6-0.5 L96.9,103.5"/>
<path d="M99.9,144.4l-0.8,0.1l-0.1-0.8l-2,0.4l0.3,1.8l2-0.4l-0.1-0.7l0.8-0.1l0.2,1.4l-3.6,0.8l-0.5-3.3l3.6-0.8 L99.9,144.4"/>
</g>
</g>
</g>
<g id="Right-Holster" class="toggle" style="">
<g id="Hanging-Holster_Right" class="option" style="display: inherit;">
<g id="Weapon_Hanging-Holster-Right">
<g id="Main_Weapon_Hanging-Holster-Right" style="fill: rgb(153, 44, 197);">
<path d="M52,118.2l-0.2-3.7l-0.6,0l-0.1-2.3l0.6,0l-0.1-1.2c0-0.4-0.6-0.7-1.2-0.7c-1.5,0.1-4,0.2-5.4,0.3 c-0.6,0-1.1,0.4-1.1,0.8l0.1,1.2l0.6,0l0.1,2.3l-0.6,0l0.2,3.7l1.5-0.1l0.5,10.1l4.8-0.2l-0.5-10.1L52,118.2z"/>
<path d="M44.8,118l0.9,0l0.6,12.2l4.8-0.2l-0.6-12.2l0.8,0l-0.1-2.8l-6.5,0.3L44.8,118z"/>
<path d="M45.9,111.4l3.8-0.2l0.2,3.8l-3.8,0.2L45.9,111.4z"/>
<path d="M49.4,118.8l0.6,0l0.4,9.6l-0.6,0L49.4,118.8z"/>
<path d="M47.7,116.7l0.6,0l0.4,9.6l-0.6,0L47.7,116.7z"/>
<path d="M46.2,119l0.6,0l0.4,9.6l-0.6,0L46.2,119z"/>
</g>
<g id="Accent_Weapon_Hanging-Holster-Right" style="fill: rgb(221, 83, 0);">
<path d="M49.3,115.3l0,0.4l-2.7,0.1l0-0.4L49.3,115.3z"/>
<path d="M49.3,115.7l0,0.4l-2.7,0.1l0-0.4L49.3,115.7z"/>
<path d="M49.3,115l0,0.4l-2.7,0.1l0-0.4L49.3,115z"/>
<path d="M49.1,110.2l0,0.4l-2.7,0.1l0-0.4L49.1,110.2z"/>
<path d="M49.1,111.2l0.6,0l0.2,3.8l-0.6,0L49.1,111.2z"/>
<path d="M45.9,111.4l0.6,0l0.2,3.8l-0.6,0L45.9,111.4z"/>
<path d="M46.8,119l1,0l0.4,9.6l-1,0L46.8,119z"/>
<path d="M48.5,118.9l1,0l0.4,9.6l-1,0L48.5,118.9z"/>
</g>
</g>
<path id="Holster_Hanging-Holster-Right" d="M51.9,132.3l0.8-15.4l-7.1,11.6l1.6,21c1.7,1.7,3.3,1.8,4.9-0.2 L51.9,132.3z" style="fill: rgb(111, 103, 103);"/>
<g id="Straps_Hanging-Holster-Right" style="fill: rgb(111, 103, 103);">
<path d="M79.2,92c-7.8,11.2-15.6,20.6-26.5,24.9l-0.1,2.6c13.5-5.7,20.7-15.3,28.7-27.5H79.2z"/>
<path d="M52,135.4c7.3,5.6,15.2,8.6,24.6,9.1l-0.7,2.1c-8.2-0.7-15.8-3.8-23.9-9V135.4z"/>
<path d="M52,137.6l0-2.2c-1.9,0.8-4.1,0.9-5.8,0.3l0.2,2.3C48.2,138.4,50.3,138.5,52,137.6z"/>
</g>
<g id="Buckle_Hanging-Holster-Right" style="fill: rgb(153, 44, 197);">
<path d="M69,144.4l1,0.2l-0.1,0.3l-1-0.2L69,144.4"/>
<path d="M71.8,103.3l0.7-0.9l0.3,0.2l-0.7,0.9L71.8,103.3"/>
<path d="M72.1,103.5l1.2,0.9L76,101l-2.6-2.1l-2.7,3.4l1.2,1l0.6-0.8l-0.6-0.5l1.5-1.9l1.4,1.2l-1.5,1.9l-0.6-0.5 L72.1,103.5"/>
<path d="M69.1,144.4l0.8,0.1l0.1-0.8l2,0.4l-0.3,1.8l-2-0.4l0.1-0.7l-0.8-0.1l-0.2,1.4l3.6,0.8l0.5-3.3l-3.6-0.8 L69.1,144.4"/>
</g>
</g>
</g>
</g>
<g id="Under-Belt">
<g id="Girth-Belt" class="option" style="fill: rgb(111, 103, 103); display: inherit;">
<path d="M84.5,80.1c-7.2,0-21.5-1.8-21.5-1.8l0.5-1.5c0,0,14,1.2,21,1.8c7-0.6,21-1.8,21-1.8l0.5,1.5 C106,78.3,91.7,80.1,84.5,80.1z"/>
<path d="M84.5,81.6c-7.3,0-22-1.8-22-1.8l0.4-1.5c0,0,17.9,1.5,21.5,1.8c3.6-0.3,21.5-1.8,21.5-1.8l0.4,1.5 C106.5,79.8,91.9,81.6,84.5,81.6z"/>
<path d="M84.5,83.2c-7.4,0-22.3-1.8-22.3-1.8l0.3-1.5c0,0,18.3,1.5,22,1.8c3.7-0.3,22-1.8,22-1.8l0.3,1.5 C106.8,81.4,92,83.2,84.5,83.2z"/>
<path d="M84.5,84.7C77,84.7,62,82.9,62,82.9l0.3-1.5c0,0,18.6,1.5,22.3,1.8c3.7-0.3,22.3-1.8,22.3-1.8l0.3,1.5 C107.1,82.9,92.1,84.7,84.5,84.7z"/>
<path d="M84.5,86.3c-7.6,0-22.8-1.8-22.8-1.8l0.3-1.5c0,0,18.8,1.5,22.6,1.8c3.8-0.3,22.6-1.8,22.6-1.8l0.3,1.5 C107.4,84.4,92.1,86.3,84.5,86.3z"/>
<path d="M84.5,87.8c-7.7,0-23.1-1.8-23.1-1.8l0.2-1.5c0,0,19,1.5,22.8,1.8c3.8-0.3,22.8-1.8,22.8-1.8l0.2,1.5 C107.6,86,92.2,87.8,84.5,87.8z"/>
<path d="M84.5,89.4c-7.8,0-23.3-1.8-23.3-1.8l0.2-1.5c0,0,19.2,1.5,23.1,1.8c3.8-0.3,23.1-1.8,23.1-1.8l0.2,1.5 C107.8,87.5,92.3,89.4,84.5,89.4z"/>
<path d="M84.5,90.9c-7.8,0-23.5-1.8-23.5-1.8l0.2-1.5c0,0,19.4,1.5,23.3,1.8c3.9-0.3,23.3-1.8,23.3-1.8l0.2,1.5 C108.1,89.1,92.4,90.9,84.5,90.9z"/>
<path d="M84.5,92.5c-7.9,0-23.8-1.8-23.8-1.8l0.3-1.5c0,0,19.6,1.5,23.5,1.8c3.9-0.3,23.5-1.8,23.5-1.8l0.3,1.5 C108.3,90.6,92.5,92.5,84.5,92.5z"/>
<path d="M84.5,94c-8,0-24.1-1.8-24.1-1.8l0.3-1.5c0,0,19.8,1.5,23.8,1.8c4-0.3,23.8-1.8,23.8-1.8l0.3,1.5 C108.6,92.2,92.6,94,84.5,94z"/>
</g>
</g>
<g id="Belt">
<g id="Pouch-Belt-4" class="option" style="display: inherit;">
<path id="Main_Pouch-Belt-4" d="M108.2,87.6c-5.3,0.5-17.5,2.2-23.6,2.2c-6.2,0-18.4-1.8-23.6-2.2l0.8-6.2 c4.3,0.4,16.8,2.2,22.8,2.2c5.8,0,18.1-1.8,22.7-2.2L108.2,87.6z" style="fill: rgb(111, 103, 103);"/>
<rect id="Buckle_Pouch-Belt-4" x="80.2" y="82.9" width="8.8" height="7.2" style="fill: rgb(153, 44, 197);"/>
<g id="Pouches_Pouch-Belt-4" style="fill: rgb(153, 44, 197);">
<g>
<g>
<path d="M66.4,80.2c-1.3-0.1-2.6,0.1-3.7,0.7c0,0,0,0,0,0l5.8,0.3l1.6-0.7C70,80.5,68,80.3,66.4,80.2z"/>
<path d="M70.2,80.7c0-0.1,0-0.1-0.1-0.2c-0.1,0-0.1,0-0.2,0c-0.5,0.2-1.5,0.7-1.5,0.7s-0.6,7.6-0.8,9.4 c0,0.1,0,0.1,0.1,0.2c0.1,0,0.1,0,0.2,0c0.5-0.3,1-0.5,1.5-0.5c0.1,0,0.2-0.1,0.2-0.2C69.8,86.9,69.9,83.8,70.2,80.7z"/>
<path d="M68.4,81.2l-5.8-0.3c0,1.5-0.2,3-0.3,4.4c-0.1,1.7-0.1,3.4-0.3,5.2c0,0.1,0,0.1,0.1,0.2 c0,0,0.1,0.1,0.1,0.1c1.8,0,3.6,0.1,5.3,0.3c0.1,0,0.1,0,0.2,0c0,0,0.1-0.1,0.1-0.1c0.1-0.9,0.3-4.4,0.3-4.4L68.4,81.2z"/>
<path d="M68.4,81.2l-5.8-0.3c0,0-0.1,0.7-0.2,1.6c-0.1,0.8,0.2,1.6,0.7,2.3c0.5,0.6,1.3,1,2.1,1.1c0,0,0,0,0,0 c0.8,0,1.6-0.2,2.2-0.8c0.6-0.6,0.9-1.3,0.9-2.2C68.4,81.9,68.4,81.2,68.4,81.2z"/>
<path d="M65.3,84.6c0.2,0,0.4,0.2,0.3,0.4s-0.2,0.4-0.4,0.4c-0.2,0-0.4-0.2-0.3-0.4S65.1,84.6,65.3,84.6z"/>
</g>
</g>
<g>
<path d="M59,80.8l0.4-0.7l2.2,0.1l0.3,0.8L59,80.8z"/>
<path d="M61.9,81.1c0-0.1,0-0.1,0-0.2c0,0-0.1-0.1-0.1-0.1c-0.7,0-2.7-0.1-2.7-0.1l-0.4,8.8 c0.1,0.3,1.7,0.4,2.6,0.4c0.1,0,0.2-0.1,0.2-0.2C61.5,86.8,61.6,84,61.9,81.1z"/>
</g>
<g>
<g>
<path d="M102.8,80.2c1.3-0.1,2.6,0.1,3.7,0.7l0,0l-5.8,0.3l-1.6-0.7C99.2,80.5,101.2,80.3,102.8,80.2z"/>
<path d="M99,80.7c0-0.1,0-0.1,0.1-0.2c0.1,0,0.1,0,0.2,0c0.5,0.2,1.5,0.7,1.5,0.7s0.6,7.6,0.8,9.4 c0,0.1,0,0.1-0.1,0.2c-0.1,0-0.1,0-0.2,0c-0.5-0.3-1-0.5-1.5-0.5c-0.1,0-0.2-0.1-0.2-0.2C99.4,86.9,99.3,83.8,99,80.7z"/>
<path d="M100.7,81.2l5.8-0.3c0,1.5,0.2,3,0.3,4.4c0.1,1.7,0.1,3.4,0.3,5.2c0,0.1,0,0.1-0.1,0.2 c0,0-0.1,0.1-0.2,0.1c-1.8,0-3.6,0.1-5.3,0.3c-0.1,0-0.1,0-0.2,0c0,0-0.1-0.1-0.1-0.1c-0.1-0.9-0.3-4.4-0.3-4.4L100.7,81.2z"/>
<path d="M100.7,81.2l5.8-0.3c0,0,0.1,0.7,0.2,1.6c0.1,0.8-0.2,1.6-0.7,2.3c-0.5,0.6-1.3,1-2.1,1.1c0,0,0,0,0,0 c-0.8,0-1.6-0.2-2.2-0.8c-0.6-0.6-0.9-1.3-0.9-2.2C100.7,81.9,100.7,81.2,100.7,81.2z"/>
<path d="M103.8,84.6c-0.2,0-0.4,0.2-0.3,0.4c0,0.2,0.2,0.4,0.4,0.4c0.2,0,0.4-0.2,0.3-0.4S104,84.6,103.8,84.6z"/>
</g>
</g>
<g>
<path d="M110.1,80.8l-0.4-0.7l-2.2,0.1l-0.3,0.8L110.1,80.8z"/>
<path d="M107.2,81.1c0-0.1,0-0.1,0-0.2c0,0,0.1-0.1,0.1-0.1c0.7,0,2.7-0.1,2.7-0.1l0.4,8.8 c-0.1,0.3-1.7,0.4-2.6,0.4c-0.1,0-0.2-0.1-0.2-0.2C107.7,86.8,107.6,84,107.2,81.1z"/>
</g>
</g>
</g>
</g>
</g>
<g id="Extras_Front">
<g id="Front">
<g id="None_Front" class="option" style="display: inherit;">
</g>
</g>
</g>
</svg></svg>