<?xml version='1.0' encoding='UTF-8'?><svg version='1.1' xmlns='http://www.w3.org/2000/svg'><metadata><rdf:rdf xmlns:rdf="http://www.w3.org/1999/02/22-rdf-syntax-ns#" xmlns:rdfs="http://www.w3.org/2000/01/rdf-schema#" xmlns:dc="http://purl.org/dc/elements/1.1/"> <rdf:description> <dc:creator>MandoCreator</dc:creator> <dc:publisher>https://www.mandocreator.com</dc:publisher> <dc:description>Your Beskar'gam - created by MandoCreator</dc:description> <dc:format>image/svg+xml</dc:format> <dc:type>Image</dc:type> <dc:title>MandoCreator - Ner Berskar'gam</dc:title> <dc:date>2021-10-08T16:33:01.170Z</dc:date> </rdf:description> </rdf:rdf></metadata><svg version="1.1" id="Female" xmlns="http://www.w3.org/2000/svg" viewBox="0 -55 169 300" style="fill: white; fill-rule: evenodd; stroke: black; stroke-width: 0.2px; pointer-events: none; position: relative; height: 100%;">
<g id="Extras_Back">
<g id="Back"><g id="NO-CAPES_Back" class="option" style="display: inherit;">
</g>
</g>
</g>
<g id="Suit">
<g id="Neck-Seal">
<path id="Plain-Neck-Seal" class="option" d="M94.3,7L98,18.1l-1.6,2.7l-11.9,2.8l-12-2.8l-1.4-3.3L74.7,7l9.8,0.7L94.3,7" style="fill: rgb(0, 0, 0); display: inherit;"/>
</g>
<g id="Flight-Suit" style="fill: rgb(0, 0, 0);">
<path d="M38.9,64l5.1-18.4l11.8-8l1.8,16.1c0,0-5.1,9.7-6.9,14.2c-1.8,4.6-5,15.1-5.4,16.5l-2.8,24.4l-8.1-2.6 c0,0-0.3-16.9,0.4-24C35.5,76,38.9,64,38.9,64z"/>
<path d="M130.1,64l-5.1-18.5l-11.7-7.9l-1.9,16.2c0,0,5.1,9.6,6.8,14.1c1.8,4.6,5,15.1,5.4,16.5l2.8,24.4l8.1-2.6 c0,0,0.3-16.9-0.4-24C133.5,76,130.1,64,130.1,64z"/>
<path d="M84.5,116.1c-1,0.1-1.9,0.5-2.2,1.2c-2.9,6.2-8.9,34.4-10.7,39.6c-0.9,2.8-1.7,18.3-3.3,27.3 c-1.9,10.8-8.2,37.3-8.2,37.3l-10.9-1.1c0,0-1.4-26.6-1-36.3c0.3-7.4,3.3-21.8,3.3-21.8s0.7-5.3,0.7-7.9c0.1-9.6,0.9-31,2.8-43.3 c1.5-9.7,10.6-30.1,10.6-30.1s11.9,4.7,18.8,4.7c7,0,18.9-4.8,18.9-4.8s8.6,20.5,10.1,30.2c1.9,12.3,3.2,33.7,3.2,43.3 c0,2.7,0.7,7.9,0.7,7.9s3,14.5,3.3,21.8c0.4,9.7-1,36.3-1,36.3l-10.9,1.1c0,0-6.3-26.5-8.2-37.3c-1.6-9-2.3-24.5-3.3-27.3 c-1.7-5.2-7.7-33.4-10.7-39.6C86.5,116.6,85.6,116.2,84.5,116.1L84.5,116.1z"/>
</g>
<g id="Sleeves" class="toggle" style="display: none; fill: rgb(255, 255, 255);"/>
</g>
<g id="Boots">
<g id="Tall_Boots" class="option" style="display: inherit;">
<g id="Bottom_Tall-Boot" style="fill: rgb(0, 0, 0);">
<path d="M62.5,229.5c0,0.1,0,0.3-0.1,0.4c-0.9,1.8-3.2,2.4-4.8,2.8c-1.1,0.3-2.2,0.7-3.3,1.2c-1.5,0.7-2.2,2-3.4,3.2 c-0.5,0.5-1.1,0.9-1.7,1.3c-1.5,1-2.9,1.1-4.5,1.1c-2.2,0.1-4.2-0.3-6.4-0.8c-1.9-0.5-3.4-0.9-5-1.4c-0.5-0.2-1.1-0.3-1.4-0.7 l-0.3,0.6l-0.2,1.7c0,0,1.8,1.1,3.7,1.6c1.9,0.5,5.8,1.2,5.8,1.2l0.3-0.7l0.9,0.2l0,0.7l2.1,0.1l0.4-0.7l0.7,0l-0.1,0.6 c0,0,1.3,0,2-0.5c0.1-0.2,0.4-0.6,0.4-0.6l0.5-0.3l-0.1,0.6l1.8-0.7l0.1-0.8l0.5-0.3l0,0.6l1.3-1.1L52,238l2.8-1.7l0.9,0.4 l2.3-0.6l0.1-0.6l0.6-0.3l0.4,0.4l1.5-0.7l0-0.5l0.5-0.2l0.1,0.4l1.4-1.1L62.5,229.5z M62.5,228.9L62.5,228.9L62.5,228.9 L62.5,228.9z"/>
<path d="M106.6,229.5c0,0.1,0,0.3,0.1,0.4c0.9,1.8,3.2,2.4,4.8,2.8c1.1,0.3,2.2,0.7,3.3,1.2c1.5,0.7,2.2,2,3.4,3.2 c0.5,0.5,1.1,0.9,1.7,1.3c1.5,1,2.9,1.1,4.5,1.1c2.2,0.1,4.2-0.3,6.4-0.8c1.9-0.5,3.4-0.9,5-1.4c0.5-0.2,1.1-0.3,1.4-0.7l0.3,0.6 l0.2,1.7c0,0-1.8,1.1-3.7,1.6c-1.9,0.5-5.8,1.2-5.8,1.2l-0.3-0.7l-0.9,0.2l0,0.7l-2.1,0.1l-0.4-0.7l-0.7,0l0.1,0.6 c0,0-1.3,0-2-0.5c-0.1-0.2-0.4-0.6-0.4-0.6l-0.5-0.3l0.1,0.6l-1.8-0.7l-0.1-0.8l-0.5-0.3l0,0.6l-1.3-1.1l-0.1-0.7l-2.8-1.7 l-0.9,0.4l-2.3-0.6l-0.1-0.6l-0.6-0.3l-0.4,0.4l-1.5-0.7l0-0.5l-0.5-0.2l-0.1,0.4l-1.4-1.1L106.6,229.5z M106.5,228.9 L106.5,228.9L106.5,228.9L106.5,228.9z"/>
</g>
<g id="Main_Tall-Boot" style="fill: rgb(0, 0, 0);">
<path d="M62.5,216c1.3-4.3,2.2-11.2,3-14.3c0.6-2.3,3.2-15.1,2.8-16.7c-0.4-1.6-19.6-4.8-20.1-3.4 c-0.8,2.2,0.3,24.3,0.2,27.5c-0.1,2.4,0.2,7.4,0.2,7.4c-0.2,1.3-0.4,2.7-0.9,3.9c-0.9,2.2-1.5,2.9-2.9,4.6c-1,1.1-3,3.1-4.2,3.9 c-0.5,0.4-2.3,1.7-2.3,1.7c-2.3,1-4.8,0.6-6,3.5c-0.3,0.6-0.5,1.4-0.5,2.1c0.1,0.9,0.9,1,1.6,1.2c1.7,0.5,3.1,1,5,1.4 c2.2,0.6,4.2,0.9,6.4,0.8c1.7-0.1,3.1-0.1,4.5-1.1c0.6-0.4,1.2-0.8,1.7-1.3c1.1-1.2,1.9-2.4,3.4-3.2c1.1-0.5,2.2-0.9,3.3-1.2 c1.6-0.4,3.9-1,4.8-2.8c0.3-1.3,0-2-0.1-3.2l-0.1-0.5c-0.1-0.8-0.2-1.5-0.2-2.3c-0.1-1.6,0.3-3.1,0.4-4.7 c0.1-0.9,0.1-1.8,0.1-2.7C62.5,216.5,62.5,216.2,62.5,216z"/>
<path d="M106.6,216c-1.3-4.3-2.2-11.2-3-14.3c-0.6-2.3-3.2-15.1-2.8-16.7c0.4-1.6,19.6-4.8,20.1-3.4 c0.8,2.2-0.3,24.3-0.2,27.5c0.1,2.4-0.2,7.4-0.2,7.4c0.2,1.3,0.4,2.7,0.9,3.9c0.9,2.2,1.5,2.9,2.9,4.6c1,1.1,3,3.1,4.2,3.9 c0.5,0.4,2.3,1.7,2.3,1.7c2.3,1,4.8,0.6,6,3.5c0.3,0.6,0.5,1.4,0.5,2.1c-0.1,0.9-0.9,1-1.6,1.2c-1.7,0.5-3.1,1-5,1.4 c-2.2,0.6-4.2,0.9-6.4,0.8c-1.7-0.1-3.1-0.1-4.5-1.1c-0.6-0.4-1.2-0.8-1.7-1.3c-1.1-1.2-1.9-2.4-3.4-3.2 c-1.1-0.5-2.2-0.9-3.3-1.2c-1.6-0.4-3.9-1-4.8-2.8c-0.3-1.3,0-2,0.1-3.2l0.1-0.5c0.1-0.8,0.2-1.5,0.2-2.3 c0.1-1.6-0.3-3.1-0.4-4.7c0-0.9-0.1-1.8-0.1-2.7C106.6,216.5,106.6,216.2,106.6,216z"/>
</g>
</g>
</g>
<g id="Gloves">
<g id="Left-Glove">
<g id="Basic_Left_Glove" class="option" style="fill: rgb(44, 4, 4); display: inherit;">
<path d="M131.4,123c-0.5,0-0.9,0-1.3,0.1c-0.3,0.1-0.6,0.2-0.9,0.3c-0.8,0.5-0.6,1.7,0.1,2.2c0.9,0.5,2.2,0,2.6-1 C132.1,124.2,131.6,123.4,131.4,123"/>
<path d="M129.9,124c-0.5,0-0.9,0-1.3,0.1c-0.3,0.1-0.6,0.2-0.9,0.3c-0.8,0.5-0.6,1.7,0.1,2.2c0.9,0.5,2.2,0,2.6-1 C130.6,125.2,130.1,124.4,129.9,124"/>
<path d="M128.8,125.4c-0.4,0-1,0.1-1.4,0.3c-0.3,0.1-0.6,0.2-0.8,0.5c-0.8,0.7-0.4,1.8,0.4,2.1 c0.9,0.4,2.2-0.3,2.5-1.4C129.5,126.5,128.8,125.4,128.8,125.4z"/>
<path d="M126.3,109.6c0,0-1.3,2-1.6,3.5c-0.2,1-0.1,3.5-0.4,5.2c-0.3,1.7-0.6,2.6-0.6,2.6s-1.2,2.7-0.9,3.3 c0.2,0.6,1.2,1.2,1.8,0.8c0.7-0.4,1.6-2.3,2.2-3.6c0.6-1.3,1-3.2,1-3.2s0.8,0.3,1.2,0.7c1.3,1.2,0.8,4.7,0.8,4.7 s-0.6,1.3-1.4,2.7c-1.1,1.9-2.9,3.6-1.7,5.1c1.1,1.4,3.5-2.3,3.5-2.3l2.4-3.5c0,0,2.8-5.1,2.9-6.1c0.1-0.8,0-3.3,0-3.3l-0.9-9.9 l-4.4,0.4l-3.6,1.3L126.3,109.6"/>
</g>
</g>
<g id="Right-Glove">
<g id="Basic_Right_Glove" class="option" style="fill: rgb(44, 4, 4); display: inherit;">
<path d="M37.6,123c0.5,0,0.9,0,1.3,0.1c0.3,0.1,0.6,0.2,0.9,0.3c0.8,0.5,0.6,1.7-0.1,2.2c-0.9,0.5-2.2,0-2.6-1 C36.9,124.2,37.4,123.4,37.6,123"/>
<path d="M39.2,124c0.5,0,0.9,0,1.3,0.1c0.3,0.1,0.6,0.2,0.9,0.3c0.8,0.5,0.6,1.7-0.1,2.2c-0.9,0.5-2.2,0-2.6-1 C38.4,125.2,38.9,124.4,39.2,124"/>
<path d="M40.3,125.4c0.5,0,1,0.1,1.4,0.3c0.3,0.1,0.6,0.2,0.8,0.5c0.8,0.7,0.4,1.8-0.4,2.1c-0.9,0.4-2.2-0.3-2.5-1.4 C39.5,126.5,40.3,125.4,40.3,125.4z"/>
<path d="M42.7,109.6c0,0,1.3,2,1.6,3.5c0.2,1,0.1,3.5,0.4,5.2c0.3,1.7,0.6,2.6,0.6,2.6s1.1,2.7,0.9,3.3 c-0.2,0.6-1.2,1.2-1.8,0.8c-0.7-0.4-1.6-2.3-2.2-3.6c-0.6-1.3-1-3.2-1-3.2s-0.8,0.3-1.2,0.7c-1.3,1.2-0.8,4.7-0.8,4.7 s0.6,1.3,1.4,2.7c1.1,1.9,2.9,3.6,1.7,5.1c-1.1,1.4-3.5-2.3-3.5-2.3l-2.4-3.5c0,0-2.8-5.1-2.9-6.1c-0.1-0.8,0-3.3,0-3.3l0.9-9.9 l4.4,0.4l3.6,1.3L42.7,109.6"/>
</g>
</g>
</g>
<g id="Biceps">
<g id="Left-Biceps">
<g id="None_Biceps_Left" class="option" style="display: inherit;">
</g>
</g>
<g id="Right-Biceps">
<g id="None_Biceps_Right" class="option" style="display: inherit;">
</g>
</g>
</g>
<path id="Vest" d="M90.9,86.3c-4.2,0.9-8.6,0.9-12.8,0c-4.2-0.9-12.5-5.2-12.5-5.2s-7.2-22.8-8.5-29.4 c-1-5.3-1.4-14.1-1.4-14.1L43.4,46l-2.6-1.1c0,0,7.4-16.4,12.3-21.1c4.4-4.3,17-7.3,17-7.3s5.5,6.1,14.6,6.1 c8.6,0,14.6-6.1,14.6-6.1s12.5,3.1,17,7.3c4.9,4.7,12.3,21.1,12.3,21.1l-2.6,1.1l-12.4-8.3c0,0-0.4,8.8-1.4,14.1 c-1.3,6.6-8.5,29.4-8.5,29.4S95.1,85.4,90.9,86.3z" style="fill: rgb(102, 16, 16);"/>
<g class="swappable" id="Chest">
<g id="Chest_Gunslinger" style="visibility: visible;">
<g id="Abdomen_Gunslinger">
<g id="Left_Abdomen_Gunslinger" style="fill: rgb(130, 129, 129);">
<path d="M96.5,71.6l6.2-11.1l-3.2-4.5l-0.3-0.5l-3.5,0.4L94.3,73L96.5,71.6z"/>
<path d="M96.5,71.6l6.2-11.1l1.6,2.3l2.1-1.7l-0.6,7.6L96.5,71.6z"/>
</g>
<g id="Right_Abdomen_Gunslinger" style="fill: rgb(130, 129, 129);">
<path d="M72.5,71.6l-6.2-11.1l-1.6,2.3l-2.1-1.7l0.6,7.6L72.5,71.6z"/>
<path d="M72.5,71.6l-6.2-11.1l3.2-4.5l0.3-0.5l3.5,0.4L74.8,73L72.5,71.6z"/>
</g>
<path id="Center_Abdomen_Gunslinger" d="M84.5,52.2l11.2,3.7L94.3,73l-1.7,1l-8-0.4l-8,0.4l-1.7-1l-1.4-17.2 L84.5,52.2z" style="fill: rgb(137, 135, 135);"/>
</g>
<g id="Chest-Plates_Gunslinger">
<g id="Left-Chest_Gunslinger" style="fill: rgb(105, 105, 105);">
<path d="M85.2,32.9v-2.6l2.2-2.2l20.8-2.4l1.9,11.6l-3.1,23.3l-2.6,2.1l-4.8-6.8L98.1,53l-12.9-3.9l3.4-3.4V36 L85.2,32.9z"/>
<path d="M98.1,53l9.5-5.6l2.4-10l-2.1,10.8l-8.4,7.8L98.1,53z"/>
<path d="M99.2,55.4l-3.5,0.4l-11.2-3.7v-3.2L98.1,53L99.2,55.4z"/>
</g>
<g id="Right-Chest_Gunslinger" style="fill: rgb(105, 105, 105);">
<path d="M83.9,32.9v-2.6l-2.2-2.2l-20.8-2.4L59,37.4l3.1,23.3l2.6,2.1l4.8-6.8l1.4-2.9l12.9-3.9l-3.4-3.4V36 L83.9,32.9z"/>
<path d="M70.9,53l-9.5-5.6l-2.4-10l2.1,10.8l8.4,7.8L70.9,53z"/>
<path d="M69.8,55.4l3.5,0.4l11.2-3.7v-3.2L70.9,53L69.8,55.4z"/>
</g>
</g>
<g id="Iron-Heart_Gunslinger">
<path id="Under-Heart_Gunslinger" d="M83.8,49.1l-3.4-3.4V36l3.4-3.1v-2.6h1.3v2.6l3.4,3.1v9.7l-3.4,3.4l-0.7-0.2 L83.8,49.1z" style="fill: rgb(0, 0, 0);"/>
<path id="Heart_Gunslinger" d="M82,45v-8.1l2.5-2.5l2.5,2.5V45l-2.5,2.5L82,45z" style="fill: rgb(140, 29, 29);"/>
<g id="None_Heart_Gunslinger" class="option" style="display: inherit;">
</g>
</g>
</g>
</g>
<g id="Chest-Attachments">
<g id="No-Device_Accessories_Chest" class="option" style="display: inherit;">
</g>
</g>
<g id="Collar">
<g id="None_Collar" class="option" style="display: inherit;">
</g>
</g>
<svg version="1.1" id="Helmets" xmlns="http://www.w3.org/2000/svg" y="-54px" height="85px" viewBox="0 0 80 80" class="swappable">
<g id="Helmet_Heavy" style="visibility: visible;">
<g id="Left-Earcap_Heavy" class="toggle">
<g id="Ear-Cap_Left_Heavy" style="fill: rgb(141, 70, 8);">
<path d="M55,25c1.7,2.2,2.8,4.9,3.3,7.7h3.6L61.3,25H55z"/>
<path d="M61.3,25l1.8,1l0.3,5.5l-1.7,1.1L61.3,25z"/>
<path d="M60,32.7l0.3,9.2L61,43l-0.3-10.3H60z"/>
<path d="M61,42.1l0.5-0.7l-0.2-8.7h-0.5L61,42.1z"/>
<path d="M61.4,35.9l0.4-0.4V33l-0.5-0.4L61.4,35.9z"/>
<path d="M59,49.1h1.6V43H61l-0.7-1.1L60,32.7h-1.8c0.2,0.9,0.2,1.9,0.2,2.9L59,49.1z"/>
<rect x="58.6" y="39.1" width="1.4" height="0.2"/>
<rect x="58.6" y="37.3" width="1.4" height="0.2"/>
<rect x="58.5" y="36.7" width="1.4" height="0.2"/>
<rect x="58.5" y="36.1" width="1.4" height="0.2"/>
<rect x="58.5" y="35.5" width="1.4" height="0.2"/>
<rect x="58.5" y="34.9" width="1.4" height="0.2"/>
</g>
</g>
<g id="Right-Earcap_Heavy" class="toggle">
<g id="Ear-Cap_Right_Heavy" style="fill: rgb(141, 70, 8);">
<path d="M25,25c-1.7,2.2-2.8,4.9-3.3,7.7h-3.6l0.5-7.7H25z"/>
<path d="M18.7,25l-1.8,1l-0.3,5.5l1.7,1.1L18.7,25z"/>
<path d="M19.9,32.7l-0.3,9.2L18.9,43l0.3-10.3H19.9z"/>
<path d="M19,42.1l-0.5-0.7l0.2-8.7h0.5L19,42.1z"/>
<path d="M18.6,35.9l-0.4-0.4V33l0.5-0.4L18.6,35.9z"/>
<path d="M21,49.1h-1.6V43h-0.5l0.7-1.1l0.3-9.2h1.8c-0.2,0.9-0.2,1.9-0.2,2.9L21,49.1z"/>
<rect x="19.9" y="39.1" width="1.4" height="0.2"/>
<rect x="19.9" y="37.3" width="1.4" height="0.2"/>
<rect x="20" y="36.7" width="1.4" height="0.2"/>
<rect x="20" y="36.1" width="1.4" height="0.2"/>
<rect x="20.1" y="35.5" width="1.4" height="0.2"/>
<rect x="20.1" y="34.9" width="1.4" height="0.2"/>
</g>
</g>
<g id="Helmet_Pieces_Heavy">
<g id="Face_Heavy" style="fill: rgb(102, 16, 16);">
<path d="M25.7,45c2.4,1.6,5.2,3.5,6.2,4.5c1.2,1.2,2.8,8.8,3.8,13.5l-2-0.5L24,49.9L25.7,45z"/>
<path d="M54.3,45c-2.4,1.6-5.2,3.5-6.2,4.5c-1.2,1.2-2.8,8.8-3.8,13.5l2-0.5L56,49.9L54.3,45z"/>
</g>
<g id="Cheeks_Heavy" style="fill: rgb(130, 129, 129);">
<path d="M25.7,45l-1.8,4.8L21,52.1l1.3-9.3L25.7,45z"/>
<g>
<path d="M54.3,45l1.8,4.8l2.9,2.3l-1.3-9.3L54.3,45z"/>
<path d="M59.1,52.1l-9.9,14.3l-2.8-4l9.7-12.6L59.1,52.1z"/>
<path d="M46.4,62.4l-2,0.5l-0.7,3.8l5.5-0.3L46.4,62.4z"/>
</g>
<path d="M20.9,52.1l9.9,14.3l2.8-4l-9.7-12.6L20.9,52.1z"/>
<path d="M33.6,62.4l2,0.5l0.7,3.8l-5.5-0.3L33.6,62.4z"/>
</g>
<path id="Visor_Heavy" d="M42.2,63.4l1.4,3.4h-7.2l1.4-3.4l-1.3-16.7l0.3-3.5c0,0-4.8-0.9-6.6-1.4 c-1.8-0.5-6.2-2-6.2-2v-1.4l16,0.7l16.1-0.7v1.4c0,0-4.4,1.5-6.2,2c-1.8,0.5-6.6,1.4-6.6,1.4l0.3,3.5L42.2,63.4z" style="fill: rgb(0, 0, 0);"/>
<g id="Eyes_Heavy" style="fill: rgb(105, 105, 105);">
<path d="M58.5,35.6l0.6,16.5l-1.3-9.3c0,0-7.9,5-9.6,6.7s-4.5,17.3-4.5,17.3l-1.4-3.4l1.3-16.7c0,0,6.1-2.6,7.4-3.3 c1.4-0.8,6.2-3.5,6.2-3.5l-0.1-1.5L40,39.1l-17.1-0.8l-0.1,1.5c0,0,4.8,2.7,6.2,3.5s7.4,3.3,7.4,3.3l1.3,16.7l-1.4,3.4 c0,0-2.8-15.5-4.5-17.3c-1.7-1.7-9.6-6.7-9.6-6.7L20.9,52l0.6-16.5L58.5,35.6L58.5,35.6z"/>
<path d="M22.9,39.8l1-0.1c0,0,4.4,1.5,6.2,2c1.8,0.5,6.6,1.4,6.6,1.4l-0.3,3.5c0,0-6.1-2.6-7.4-3.3 S22.9,39.8,22.9,39.8z"/>
<path d="M57.1,39.8l-1-0.1c0,0-4.4,1.5-6.2,2c-1.8,0.5-6.6,1.4-6.6,1.4l0.3,3.5c0,0,6.1-2.6,7.4-3.3 S57.1,39.8,57.1,39.8z"/>
<path d="M23.9,39.8v-1.4H23l-0.1,1.5L23.9,39.8z"/>
<path d="M56.1,39.8v-1.4H57l0.1,1.5L56.1,39.8z"/>
</g>
<path id="Dome_Heavy" d="M58.5,35.6h-37c0-10,8.3-18.1,18.5-18.1C50.2,17.6,58.5,25.6,58.5,35.6z" style="fill: rgb(102, 16, 16);"/>
<rect id="Ridge_Heavy" class="toggle" x="39.4" y="17" width="1.3" height="18.6" style="fill: rgb(130, 129, 129);"/>
<g id="Accents_Heavy" class="toggle" style="fill: rgb(181, 186, 38);">
<path d="M32.2,34.1l-1-1.8h2L32.2,34.1z"/>
<path d="M35.6,34.1l-1-1.8h2L35.6,34.1z"/>
</g>
</g>
</g>
</svg>
<g id="Shoulders">
<g id="Left-Shoulder">
<g id="Classic_Shoulder_Left" class="option" style="display: inherit;">
<path id="Main_Shoulder_Classic_Left" d="M113.9,18.6l-2.5,11.5l2,6.6l13.6,6.9l2.3-3.5L113.9,18.6z" style="fill: rgb(130, 129, 129);"/>
<path id="Trauma-Plates_Shoulder_Classic_Left" class="toggle" style="display: none; fill: rgb(255, 255, 255);" d="M113.1,30l1.7,5.5l11.6,5.9l2-3l-13.1-18.3L113.1,30z "/>
</g>
</g>
<g id="Right-Shoulder">
<g id="Legacy-x2_Shoulder_Right" class="option" style="display: inherit;">
<path id="Plate-2_Shoulder_Right_Legacy-x2" d="M57.4,20l5.9,8.8l-6,8.4L47.7,35l-6,3.7l-4.5-1.2L57.4,20z" style="fill: rgb(0, 0, 0);"/>
<path id="Trauma-Plate-2_Shoulder_Legacy-x2_Right" class="toggle" style="fill: rgb(130, 129, 129);" d="M41.5,36.8l-2.9-0.8l17.3-15.1l5.2,7.9l-4.6,6.5 l-8.7-2.2L41.5,36.8z"/>
<path id="Plate-1_Shoulder_Right_Legacy-x2" d="M64.6,15.5l2.6,10.3l-8.5,6l-8.2-5.3L43.7,28l-3.8-2.6L64.6,15.5z" style="fill: rgb(181, 187, 12);"/>
<path id="Trauma-Plate-1_Shoulder_Legacy-x2_Right" class="toggle" style="fill: rgb(95, 94, 94);" d="M44.1,26.1l-2.5-1.7l21.3-8.6l2.4,9.2l-6.5,4.6 l-7.5-5L44.1,26.1z"/>
</g>
</g>
</g>
<g id="Gauntlets">
<g id="Left-Gauntlets">
<g id="Gunslinger_Gauntlet_Left" class="option" style="display: inherit;">
<g id="Accent-Top_Gunslinger_Gauntlet_Left" style="fill: rgb(181, 187, 12);">
<path d="M134.9,82.1l0.2,5.7l-2.9,0.6l-0.2-5.5L134.9,82.1z"/>
<path d="M131.8,103.1l0.3,3l-2.6,0.3l-0.4-3L131.8,103.1z"/>
</g>
<path id="Top_Gunslinger_Gauntlet_Left" d="M134.9,82.1l1.3-0.4l0.1,26.9l-6.4,0.8l-0.5-4.2l0.1,1.2l2.6-0.3 l-0.3-3l-2.6,0.3l-2.3-19L134.9,82.1l-3,0.9l0.2,5.5l2.9-0.6L134.9,82.1z" style="fill: rgb(130, 129, 129);"/>
<g id="Accent-Bottom_Gunslinger_Gauntlet_Left" style="fill: rgb(140, 29, 29);">
<path d="M122.5,92.8l-0.6-2.4l-1.7,0.4l0.6,2.4L122.5,92.8z"/>
<path d="M123.2,95.5l-0.6-2.4l-1.7,0.4l0.6,2.4L123.2,95.5z"/>
<path d="M129.2,103.5l-5.7,0.8l0.7,2.9l5.4-0.7L129.2,103.5z"/>
</g>
<path id="Bottom_Gunslinger_Gauntlet_Left" d="M129.5,106l-0.3-2.5l-5.7,0.8l0.7,2.9l5.4-0.7l0.4,3 c0,0-2,0.2-3.5,0.3c-0.9,0.1-1.8-0.5-2-1.5c-1.2-5-4.7-20.2-4.7-20.2l7.3-3.3L129.5,106z M123.2,95.5l-0.6-2.4l-1.7,0.4l0.6,2.4 L123.2,95.5z M122.5,92.8l-0.6-2.4l-1.7,0.4l0.6,2.4L122.5,92.8z" style="fill: rgb(130, 129, 129);"/>
<g id="Whistling-Birds_Attachment_Gunslinger_Gauntlet_Left" class="option" style="display: inherit;">
<path id="Head_Whistling-Birds_Attachment_Gunslinger_Gauntlet_Left" d="M139.4,98.2l-3.1,5.2l0-5.2L139.4,98.2z" style="fill: rgb(203, 8, 8);"/>
<g id="Birds_Whistling-Birds_Attachment_Gunslinger_Gauntlet_Left" style="fill: rgb(232, 239, 21);">
<g>
<path d="M136.9,98.6c0.1,0,0.2,0.3,0.2,0.6c0,0.3-0.1,0.6-0.2,0.6c-0.1,0-0.2-0.3-0.2-0.6 C136.6,98.9,136.7,98.6,136.9,98.6z"/>
<path d="M136.9,100.2c0.1,0,0.2,0.3,0.2,0.6c0,0.3-0.1,0.6-0.2,0.6c-0.1,0-0.2-0.3-0.2-0.6 C136.6,100.5,136.7,100.2,136.9,100.2z"/>
<path d="M137.7,98.6c0.1,0,0.2,0.3,0.2,0.6c0,0.3-0.1,0.6-0.2,0.6c-0.1,0-0.2-0.3-0.2-0.6 C137.5,98.9,137.6,98.6,137.7,98.6z"/>
<path d="M136.7,102.8c0-0.1,0-0.2,0-0.4c0-0.3,0.1-0.6,0.2-0.6c0.1,0,0.2,0.1,0.2,0.3L136.7,102.8z M137.6,101.3 c-0.1-0.1-0.1-0.3-0.1-0.5c0-0.3,0.1-0.6,0.2-0.6c0.1,0,0.2,0.2,0.2,0.5L137.6,101.3z M138.5,99.8c-0.1,0-0.2-0.3-0.2-0.6 c0-0.3,0.1-0.6,0.2-0.6c0.1,0,0.2,0.3,0.2,0.6c0,0.1,0,0.1,0,0.2L138.5,99.8z"/>
</g>
</g>
<g id="Base_Whistling-Birds_Attachment_Gunslinger_Gauntlet_Left" style="fill: rgb(140, 29, 29);">
<path d="M139.2,82.6l-2.1,0l0,0.9l2.1,0L139.2,82.6z"/>
<path d="M139.4,83.5l-2.3,0l0.1,14.7l2.3,0L139.4,83.5z"/>
<path d="M139.7,83.7l-0.3,0l0.1,12.7l0.3,0L139.7,83.7z"/>
<path d="M139,83.5l-0.3,0l0.1,13.8l0.3,0L139,83.5z"/>
</g>
<g id="Accent_Whistling-Birds_Attachment_Gunslinger_Gauntlet_Left" style="fill: rgb(102, 16, 16);">
<path d="M137.1,82.4l-0.8,0l0.1,14.9l0.8,0L137.1,82.4z"/>
<path d="M139.6,97.3l-3.3,0l0,0.9l3.3,0L139.6,97.3z"/>
<path d="M138.5,82.6l-1.4,0l0,2.1l1.4,0L138.5,82.6z"/>
<path d="M138.2,84.7l-1,0l0,5.1l1-1.9L138.2,84.7z"/>
</g>
</g>
</g>
</g>
<g id="Right-Gauntlets">
<g id="Heavy_Gauntlet_Right" class="option" style="display: inherit;">
<g id="Top-2_Heavy_Gauntlet_Right" style="fill: rgb(105, 105, 105);">
<path d="M32.4,80.1l-1.7,0.3l-0.8,8.3l1.6,1.1L32.4,80.1z"/>
<path d="M31.6,89.1l-1,10.9l1.1,1.2l-0.6,6.4l0.5,0.3l1.7-17.5L31.6,89.1z"/>
<path d="M31.3,86c-0.2,0-0.4,0.2-0.3,0.4c0,0.2,0.2,0.4,0.4,0.3c0.2,0,0.4-0.2,0.3-0.4C31.7,86.2,31.5,86,31.3,86z"/>
</g>
<g id="Top-1_Heavy_Gauntlet_Right" style="fill: rgb(140, 29, 29);">
<path d="M36,108.7l-4.5-0.8l1.7-17.5l-1.7-1.3l0.9-9.5l6.6-1.2L36,108.7z"/>
<path d="M34.2,79.2l-0.9,11.1"/>
</g>
<g id="Accent-Top_Heavy_Gauntlet_Right" style="fill: rgb(181, 187, 12);">
<path d="M32.6,105.1l2.8,0.3l-0.2,2.2l-2.8-0.4L32.6,105.1z"/>
<path d="M33.6,95.8l2.8,0.3l-0.9,8.6l-2.8-0.3L33.6,95.8z"/>
<path d="M34.8,79.8l3.1-0.5l-0.9,9.5l-3-0.4L34.8,79.8z"/>
</g>
<path id="Bottom_Heavy_Gauntlet_Right" d="M39,78.8c3.4-0.2,7.1,1,9.5,3.7c0.8,0.9,1.1,2.1,0.9,3.2 c-1.2,5.6-5.2,23.7-5.2,23.7l-8.2-0.7L39,78.8z" style="fill: rgb(105, 105, 105);"/>
<g id="Accent-Bottom_Heavy_Gauntlet_Right" style="fill: rgb(26, 1, 1);">
<path d="M36,108.7l8.2,0.7l0.3-1.5l-8.3-0.9L36,108.7z"/>
<path d="M38.8,80.8c4.4,0.1,8.2,1.4,10.3,6l0.2-1.1c0.2-0.9,0-1.8-0.4-2.6l-0.5-0.6c-2.4-2.7-6.1-3.8-9.5-3.7 L38.8,80.8z"/>
<path d="M39.8,79.4l3.6,0.4l-1.6,14.3l-3.6-0.4L39.8,79.4z"/>
<path d="M40.3,79.7l2.7,0.3l-1.5,13.2l-2.7-0.3L40.3,79.7z"/>
<path d="M42.9,80l0.5-0.2"/>
<path d="M39.8,79.4l0.4,0.3"/>
<path d="M38.2,93.7l0.6-0.8"/>
<path d="M41.8,94.1l-0.4-0.9"/>
</g>
<g id="No-Device_Attachment_Heavy_Gauntlet_Right" class="option" style="display: inherit;">
</g>
</g>
</g>
</g>
<g id="Shins">
<g id="Left-Shin">
<g id="Legacy_Shin_Left" class="option" style="display: inherit;">
<path id="Plate-3_Legacy-Shin_Left" d="M104.2,199.5l3.4,15.8c0,0,4.9,1.2,7.6,1c2.7-0.2,6.3-1.4,6.3-1.4 l-0.7-16.9l-7.4,4.1L104.2,199.5" style="fill: rgb(102, 16, 16);"/>
<path id="Plate-2_Legacy-Shin_Left" d="M101.6,189.7l1.9,9.6l9.9,2.8l8-4.4l-0.3-9.6l-9,4.1L101.6,189.7" style="fill: rgb(0, 0, 0);"/>
<path id="Plate-1_Legacy-Shin_Left" d="M105.9,176.5l-6.4,6.3l1.4,6.7l11.3,2.6l9.6-4.3l-0.2-8.1l-7.2-3.9 L105.9,176.5" style="fill: rgb(140, 29, 29);"/>
<path id="Trauma-Plate-3_Legacy-Shin_Left" class="toggle" style="display: none; fill: rgb(255, 255, 255);" d="M119.3,200.9l-5,2.7c-0.4,0.2-0.9,0.3-1.3,0.1l-6.5-1.9 l2.5,12c1.5,0.3,4.3,0.9,6,0.8c1.6-0.1,3.5-0.6,4.7-1L119.3,200.9"/>
<path id="Trauma-Plate-2_Legacy-Shin_Left" class="toggle" style="fill: rgb(102, 16, 16);" d="M119.6,190.7l-6.6,3c-0.3,0.2-0.7,0.2-1.1,0.1l-8-1.8 l1.2,6l8.2,2.3l6.5-3.6L119.6,190.7"/>
<path id="Trauma-Plate-1_Legacy-Shin_Left" class="toggle" style="fill: rgb(102, 16, 16);" d="M106.7,178.2l-5.3,5.2l1,4.7l9.7,2.2l8-3.6l-0.2-6 l-5.9-3.2L106.7,178.2"/>
<g id="Ridge_Legacy-Shin_Left" class="toggle" style="display: none; fill: rgb(255, 255, 255);"/>
</g>
</g>
<g id="Right-Shin">
<g id="Legacy_Shin_Right" class="option" style="display: inherit;">
<path id="Plate-3_Legacy-Shin_Right" d="M64.8,199.5l-3.4,15.8c0,0-4.9,1.2-7.6,1c-2.7-0.2-6.3-1.4-6.3-1.4 l0.7-16.9l7.4,4.1L64.8,199.5" style="fill: rgb(0, 0, 0);"/>
<path id="Plate-2_Legacy-Shin_Right" d="M67.4,189.7l-1.9,9.6l-9.9,2.8l-8-4.4l0.3-9.6l9,4.1L67.4,189.7" style="fill: rgb(130, 129, 129);"/>
<path id="Plate-1_Legacy-Shin_Right" d="M63.1,176.5l6.4,6.3l-1.4,6.7l-11.3,2.6l-9.6-4.3l0.2-8.1l7.2-3.9 L63.1,176.5" style="fill: rgb(140, 29, 29);"/>
<path id="Trauma-Plate-3_Legacy-Shin_Right" class="toggle" style="fill: rgb(102, 16, 16);" d="M49.7,200.9l5,2.7c0.4,0.2,0.9,0.3,1.3,0.1l6.5-1.9 l-2.5,12c-1.5,0.3-4.3,0.9-6,0.8c-1.6-0.1-3.5-0.6-4.7-1L49.7,200.9"/>
<path id="Trauma-Plate-2_Legacy-Shin_Right" class="toggle" style="fill: rgb(102, 16, 16);" d="M49.4,190.7l6.6,3c0.3,0.2,0.7,0.2,1.1,0.1l8-1.8l-1.2,6 l-8.2,2.3l-6.5-3.6L49.4,190.7"/>
<path id="Trauma-Plate-1_Legacy-Shin_Right" class="toggle" style="fill: rgb(102, 16, 16);" d="M62.3,178.2l5.3,5.2l-1,4.7l-9.7,2.2l-8-3.6l0.2-6 l5.9-3.2L62.3,178.2"/>
<g id="Ridge_Legacy-Shin_Right" class="toggle" style="display: none; fill: rgb(255, 255, 255);"/>
</g>
</g>
</g>
<g id="Foot">
<g id="Left-Ankle">
<g id="Heavy_Ankle_Left" class="option" style="display: inherit;">
<path id="Plate_Heavy-Ankle_Left" d="M106.6,220.2l0.3,3.1l6.3,7.9l6.1-2.8l6.7-1.7l-5-9c-2.5-0.4-5.5,0-8.9,1 l-1.9,1.7L106.6,220.2" style="fill: rgb(102, 16, 16);"/>
<path id="Trim_Heavy-Ankle_Left" d="M112,218.7l0.7,0.9l-2.2,1.9l-2.5-0.1l0.1,1.2l5.4,6.7l5.5-2.6l6.6-1.6 l0.7,1.4l-6.9,1.8l-6.1,2.8l-6.3-7.9l-0.3-3.1l3.5,0.2L112,218.7" style="fill: rgb(140, 29, 29);"/>
</g>
</g>
<g id="Left-Toe">
<g id="None_Toe_Left" class="option" style="display: inherit;">
</g>
</g>
<g id="Right-Ankle">
<g id="Heavy_Ankle_Right" class="option" style="display: inherit;">
<path id="Plate_Heavy-Ankle_Right" d="M62.5,220.2l-0.3,3.1l-6.3,7.9l-6.1-2.8l-6.7-1.7l5-9c2.5-0.4,5.5,0,8.9,1 l1.9,1.7L62.5,220.2" style="fill: rgb(102, 16, 16);"/>
<path id="Trim_Heavy-Ankle_Right" d="M57,218.7l-0.7,0.9l2.2,1.9l2.5-0.1l-0.1,1.2l-5.4,6.7l-5.5-2.6l-6.6-1.6 l-0.7,1.4l6.9,1.8l6.1,2.8l6.3-7.9l0.3-3.1l-3.5,0.2L57,218.7" style="fill: rgb(140, 29, 29);"/>
</g>
</g>
<g id="Right-Toe">
<g id="Spikes_Toe_Right" class="option" style="fill: rgb(141, 70, 8); display: inherit;">
<path d="M41.2,240c-2.9-0.5-5.8-1.2-8.7-2.1c-0.2-0.1-0.5,0-0.6,0.1c-0.2,0.1-0.3,0.3-0.3,0.6l0,0 c0,0.6,0.3,1.2,0.9,1.4c1.9,0.7,4.2,1.3,6.7,1.7c0.5,0.1,1-0.1,1.4-0.4C41,240.9,41.2,240.5,41.2,240C41.2,240,41.2,240,41.2,240 "/>
<path d="M36.3,241.9c0,0,2.8-0.3,3.9-0.4c0.3,0,0.6-0.3,0.5-0.7c-0.1-0.6-0.5-0.9-1.3-0.8c-0.1,0-0.2,0-0.3,0.1 C38.7,240.4,36.3,241.9,36.3,241.9"/>
<path d="M29.2,239.9c0,0,2.5-0.2,3.5-0.3c0.2,0,0.4-0.1,0.5-0.3c0.1-0.2,0.1-0.4,0.1-0.5c-0.2-0.3-0.5-0.5-1.1-0.4 c-0.1,0-0.2,0-0.3,0.1C31.5,238.6,29.2,239.9,29.2,239.9"/>
</g>
</g>
</g>
<g id="Knees">
<g id="Left-Knee">
<g id="Basic_Knee_Left" class="option" style="display: inherit;">
<g id="Missiles_Basic-Knee_Left" class="toggle" style="">
<path id="Base_Missiles_Basic-Knee_Left" d="M118.2,158.3c0,0,0,0.1,0,0.1c0.2,2,0.5,6.2,0.4,9.8l2.3-1.4 c0.4-0.2,0.6-0.6,0.6-1.1c0-1.3-0.1-4.3-0.1-5.8c0-0.6-0.4-1.1-1-1.2L118.2,158.3z" style="fill: rgb(102, 16, 16);"/>
<g id="Missile-2_Missiles_Basic-Knee_Left" style="fill: rgb(181, 187, 12);">
<path d="M119.9,164c-0.6,0.1-1,0.6-0.9,1.2c0.1,0.6,0.6,1,1.2,0.9c0.6-0.1,1-0.6,0.9-1.2 C121,164.3,120.4,163.9,119.9,164z"/>
<path d="M119.9,164.3c-0.4,0-0.7,0.4-0.6,0.8c0,0.4,0.4,0.7,0.8,0.6c0.4,0,0.7-0.4,0.6-0.8 C120.7,164.5,120.3,164.3,119.9,164.3z"/>
</g>
<g id="Missile-1_Missiles_Basic-Knee_Left" style="fill: rgb(181, 187, 12);">
<path d="M119.7,159.4c-0.6,0.1-1,0.6-0.9,1.2c0.1,0.6,0.6,1,1.2,0.9c0.6-0.1,1-0.6,0.9-1.2 C120.8,159.7,120.3,159.3,119.7,159.4z"/>
<path d="M119.8,159.7c-0.4,0-0.7,0.4-0.6,0.8c0,0.4,0.4,0.7,0.8,0.6c0.4,0,0.7-0.4,0.6-0.8 C120.5,160,120.2,159.7,119.8,159.7z"/>
</g>
</g>
<g id="Knee_Basic-Knee_Left" style="fill: rgb(102, 16, 16);">
<path d="M96.6,160.5l1.4-0.2c0,0,1.1,7.1,1.6,10.2c0.1,0.8-0.4,1.6-1.2,1.7c0,0,0,0,0,0L96.6,160.5z"/>
<path d="M98,160l0.8,5.2c1.1-0.6,3.7,0.5,4.6,3.6c1.6,5.8,3,7.1,8,6.6c3.9-0.4,6.7-2.2,7-4.9c0.5-4,0-9.8-0.2-12.1 c0-0.3-0.2-0.5-0.4-0.7c-0.2-0.2-0.5-0.2-0.7-0.2C113,158,98,160,98,160z"/>
<path d="M97.5,160L98,160l0.9,5.7l-0.5,0.1L97.5,160z"/>
</g>
</g>
</g>
<g id="Right-Knee">
<g id="Legacy_Knee_Right" class="option" style="display: inherit;">
<g id="Missiles_Legacy-Knee_Right" class="toggle" style="display:none"/>
<path id="Plate-2_Legacy-Knee_Right" d="M51.8,164.6l4.1-2.8l9.1,1.4l3.5,4l-2.9,9.8h-7.2l-6.8-2.2L51.8,164.6z" style="fill: rgb(102, 16, 16);"/>
<path id="Plate-1_Legacy-Knee_Right" d="M50.4,157.9l5.2-3.6l11.6,1.8l4.5,5.1l-3.7,12.6l-9.5-0.1l-8.4-2.7 L50.4,157.9z" style="fill: rgb(101, 18, 18);"/>
</g>
</g>
</g>
<g id="Thighs">
<g id="Left-Thigh">
<g id="Legacy_Thigh_Left" class="option" style="display: inherit;">
<path id="Plate-3_Legacy-Thigh_Left" d="M95.6,142.1l1.8,10.8l10.4,1.6l8.4-3.7l0.4-11l-9.6,4.5L95.6,142.1" style="fill: rgb(102, 16, 16);"/>
<path id="Plate-2_Legacy-Thigh_Left" d="M93.2,131.7L95,142l12.1,2.3l10.1-4.8l0.5-12.5l-11.5,7.3L93.2,131.7" style="fill: rgb(130, 129, 129);"/>
<path id="Plate-1_Legacy-Thigh_Left" d="M118.8,116.8l-8.9-7.8L98,111l-6.8,11.3l1.7,9.4l13.4,2.7l12-7.7 L118.8,116.8" style="fill: rgb(0, 0, 0);"/>
<path id="Trauma-Plate-3_Legacy-Thigh_Left" class="toggle" style="display: none; fill: rgb(255, 255, 255);" d="M114.7,143.2l-6.8,3.2c-0.3,0.2-0.7,0.2-1,0.1l-8.8-1.7 l1,6.1l8.6,1.3l6.8-3L114.7,143.2"/>
<path id="Trauma-Plate-2_Legacy-Thigh_Left" class="toggle" style="fill: rgb(102, 16, 16);" d="M115.7,130.9l-8.5,5.4c-0.4,0.2-0.8,0.3-1.2,0.2 l-10.3-2.1l1,5.6l10.2,2l8.5-4L115.7,130.9"/>
<path id="Trauma-Plate-1_Legacy-Thigh_Left" class="toggle" style="fill: rgb(102, 16, 16);" d="M99.1,113.1l-5.9,9.7l1.3,6.9l11.5,2.3l10.5-6.7l0.4-7.5 l-7.5-6.5L99.1,113.1"/>
<g id="Ridge_Legacy-Thigh_Left" class="toggle" style="display: none; fill: rgb(255, 255, 255);"/>
</g>
</g>
<g id="Right-Thigh">
<g id="Legacy_Thigh_Right" class="option" style="display: inherit;">
<path id="Plate-3_Legacy-Thigh_Right" d="M73.4,142.1l-1.8,10.8l-10.4,1.6l-8.4-3.7l-0.4-11l9.6,4.5L73.4,142.1" style="fill: rgb(0, 0, 0);"/>
<path id="Plate-2_Legacy-Thigh_Right" d="M75.8,131.7L74,142l-12.1,2.3l-10.1-4.8l-0.5-12.5l11.5,7.3L75.8,131.7" style="fill: rgb(0, 0, 0);"/>
<path id="Plate-1_Legacy-Thigh_Right" d="M50.2,116.8l8.9-7.8l11.9,2l6.8,11.3l-1.7,9.4l-13.4,2.7l-12-7.7 L50.2,116.8" style="fill: rgb(102, 16, 16);"/>
<path id="Trauma-Plate-3_Legacy-Thigh_Right" class="toggle" style="fill: rgb(102, 16, 16);" d="M54.3,143.2l6.8,3.2c0.3,0.2,0.7,0.2,1,0.1l8.8-1.7 l-1,6.1l-8.6,1.3l-6.8-3L54.3,143.2"/>
<path id="Trauma-Plate-2_Legacy-Thigh_Right" class="toggle" style="fill: rgb(102, 16, 16);" d="M53.3,130.9l8.5,5.4c0.4,0.2,0.8,0.3,1.2,0.2l10.3-2.1 l-1,5.6l-10.2,2l-8.5-4L53.3,130.9"/>
<path id="Trauma-Plate-1_Legacy-Thigh_Right" class="toggle" style="display: none; fill: rgb(255, 255, 255);" d="M69.9,113.1l5.9,9.7l-1.3,6.9L63.1,132l-10.5-6.7 l-0.4-7.5l7.5-6.5L69.9,113.1"/>
<g id="Ridge_Legacy-Thigh_Right" class="toggle" style="display: none; fill: rgb(255, 255, 255);"/>
</g>
</g>
</g>
<g id="Groin">
<g id="Basic_Groin" class="option" style="display: inherit;">
<path id="Groin-Plate_Basic" d="M78.2,107.5L67.7,86.2h33.8l-10.6,21.2c0,0-4.2,5.1-6.3,5.1 C82.5,112.5,78.2,107.5,78.2,107.5z" style="fill: rgb(140, 29, 29);"/>
<path id="Trauma-Plating_Groin" class="toggle" style="fill: rgb(102, 16, 16);" d="M89.8,106.7l9.5-19.2H69.8l9.5,19.2c0.4,0.5,2.1,2.4,3.7,3.6 c0.6,0.4,1.1,0.8,1.5,0.8c0.4,0,0.9-0.4,1.5-0.8C87.7,109.2,89.4,107.2,89.8,106.7"/>
</g>
</g>
<g id="Waist">
<g id="Accessories_Waist">
<g id="Kama" class="toggle" style="display:none"/>
<g id="Loin-Cloth" class="toggle" style="display:none"/>
<g id="Left-Holster" class="toggle" style="display:none"/>
<g id="Right-Holster" class="toggle" style="">
<g id="Hanging-Holster_Right" class="option" style="display: inherit;">
<g id="Weapon_Hanging-Holster-Right">
<g id="Main_Weapon_Hanging-Holster-Right" style="fill: rgb(163, 163, 163);">
<path d="M52,118.2l-0.2-3.7l-0.6,0l-0.1-2.3l0.6,0l-0.1-1.2c0-0.4-0.6-0.7-1.2-0.7c-1.5,0.1-4,0.2-5.4,0.3 c-0.6,0-1.1,0.4-1.1,0.8l0.1,1.2l0.6,0l0.1,2.3l-0.6,0l0.2,3.7l1.5-0.1l0.5,10.1l4.8-0.2l-0.5-10.1L52,118.2z"/>
<path d="M44.8,118l0.9,0l0.6,12.2l4.8-0.2l-0.6-12.2l0.8,0l-0.1-2.8l-6.5,0.3L44.8,118z"/>
<path d="M45.9,111.4l3.8-0.2l0.2,3.8l-3.8,0.2L45.9,111.4z"/>
<path d="M49.4,118.8l0.6,0l0.4,9.6l-0.6,0L49.4,118.8z"/>
<path d="M47.7,116.7l0.6,0l0.4,9.6l-0.6,0L47.7,116.7z"/>
<path d="M46.2,119l0.6,0l0.4,9.6l-0.6,0L46.2,119z"/>
</g>
<g id="Accent_Weapon_Hanging-Holster-Right" style="fill: rgb(102, 16, 16);">
<path d="M49.3,115.3l0,0.4l-2.7,0.1l0-0.4L49.3,115.3z"/>
<path d="M49.3,115.7l0,0.4l-2.7,0.1l0-0.4L49.3,115.7z"/>
<path d="M49.3,115l0,0.4l-2.7,0.1l0-0.4L49.3,115z"/>
<path d="M49.1,110.2l0,0.4l-2.7,0.1l0-0.4L49.1,110.2z"/>
<path d="M49.1,111.2l0.6,0l0.2,3.8l-0.6,0L49.1,111.2z"/>
<path d="M45.9,111.4l0.6,0l0.2,3.8l-0.6,0L45.9,111.4z"/>
<path d="M46.8,119l1,0l0.4,9.6l-1,0L46.8,119z"/>
<path d="M48.5,118.9l1,0l0.4,9.6l-1,0L48.5,118.9z"/>
</g>
</g>
<path id="Holster_Hanging-Holster-Right" d="M51.9,132.3l0.8-15.4l-7.1,11.6l1.6,21c1.7,1.7,3.3,1.8,4.9-0.2 L51.9,132.3z" style="fill: rgb(0, 0, 0);"/>
<g id="Straps_Hanging-Holster-Right" style="fill: rgb(141, 70, 8);">
<path d="M79.2,92c-7.8,11.2-15.6,20.6-26.5,24.9l-0.1,2.6c13.5-5.7,20.7-15.3,28.7-27.5H79.2z"/>
<path d="M52,135.4c7.3,5.6,15.2,8.6,24.6,9.1l-0.7,2.1c-8.2-0.7-15.8-3.8-23.9-9V135.4z"/>
<path d="M52,137.6l0-2.2c-1.9,0.8-4.1,0.9-5.8,0.3l0.2,2.3C48.2,138.4,50.3,138.5,52,137.6z"/>
</g>
<g id="Buckle_Hanging-Holster-Right" style="fill: rgb(121, 124, 39);">
<path d="M69,144.4l1,0.2l-0.1,0.3l-1-0.2L69,144.4"/>
<path d="M71.8,103.3l0.7-0.9l0.3,0.2l-0.7,0.9L71.8,103.3"/>
<path d="M72.1,103.5l1.2,0.9L76,101l-2.6-2.1l-2.7,3.4l1.2,1l0.6-0.8l-0.6-0.5l1.5-1.9l1.4,1.2l-1.5,1.9l-0.6-0.5 L72.1,103.5"/>
<path d="M69.1,144.4l0.8,0.1l0.1-0.8l2,0.4l-0.3,1.8l-2-0.4l0.1-0.7l-0.8-0.1l-0.2,1.4l3.6,0.8l0.5-3.3l-3.6-0.8 L69.1,144.4"/>
</g>
</g>
</g>
</g>
<g id="Under-Belt">
<g id="Girth-Belt" class="option" style="fill: rgb(163, 163, 163); display: inherit;">
<path d="M84.5,80.1c-7.2,0-21.5-1.8-21.5-1.8l0.5-1.5c0,0,14,1.2,21,1.8c7-0.6,21-1.8,21-1.8l0.5,1.5 C106,78.3,91.7,80.1,84.5,80.1z"/>
<path d="M84.5,81.6c-7.3,0-22-1.8-22-1.8l0.4-1.5c0,0,17.9,1.5,21.5,1.8c3.6-0.3,21.5-1.8,21.5-1.8l0.4,1.5 C106.5,79.8,91.9,81.6,84.5,81.6z"/>
<path d="M84.5,83.2c-7.4,0-22.3-1.8-22.3-1.8l0.3-1.5c0,0,18.3,1.5,22,1.8c3.7-0.3,22-1.8,22-1.8l0.3,1.5 C106.8,81.4,92,83.2,84.5,83.2z"/>
<path d="M84.5,84.7C77,84.7,62,82.9,62,82.9l0.3-1.5c0,0,18.6,1.5,22.3,1.8c3.7-0.3,22.3-1.8,22.3-1.8l0.3,1.5 C107.1,82.9,92.1,84.7,84.5,84.7z"/>
<path d="M84.5,86.3c-7.6,0-22.8-1.8-22.8-1.8l0.3-1.5c0,0,18.8,1.5,22.6,1.8c3.8-0.3,22.6-1.8,22.6-1.8l0.3,1.5 C107.4,84.4,92.1,86.3,84.5,86.3z"/>
<path d="M84.5,87.8c-7.7,0-23.1-1.8-23.1-1.8l0.2-1.5c0,0,19,1.5,22.8,1.8c3.8-0.3,22.8-1.8,22.8-1.8l0.2,1.5 C107.6,86,92.2,87.8,84.5,87.8z"/>
<path d="M84.5,89.4c-7.8,0-23.3-1.8-23.3-1.8l0.2-1.5c0,0,19.2,1.5,23.1,1.8c3.8-0.3,23.1-1.8,23.1-1.8l0.2,1.5 C107.8,87.5,92.3,89.4,84.5,89.4z"/>
<path d="M84.5,90.9c-7.8,0-23.5-1.8-23.5-1.8l0.2-1.5c0,0,19.4,1.5,23.3,1.8c3.9-0.3,23.3-1.8,23.3-1.8l0.2,1.5 C108.1,89.1,92.4,90.9,84.5,90.9z"/>
<path d="M84.5,92.5c-7.9,0-23.8-1.8-23.8-1.8l0.3-1.5c0,0,19.6,1.5,23.5,1.8c3.9-0.3,23.5-1.8,23.5-1.8l0.3,1.5 C108.3,90.6,92.5,92.5,84.5,92.5z"/>
<path d="M84.5,94c-8,0-24.1-1.8-24.1-1.8l0.3-1.5c0,0,19.8,1.5,23.8,1.8c4-0.3,23.8-1.8,23.8-1.8l0.3,1.5 C108.6,92.2,92.6,94,84.5,94z"/>
</g>
</g>
<g id="Belt">
<g id="Pouch-Belt-2" class="option" style="display: inherit;">
<path id="Main_Pouch-Belt-2" d="M108.2,87.6c-5.3,0.5-17.5,2.2-23.6,2.2c-6.2,0-18.4-1.8-23.6-2.2l0.8-6.2 c4.3,0.4,16.8,2.2,22.8,2.2c5.8,0,18.1-1.8,22.7-2.2L108.2,87.6z" style="fill: rgb(0, 0, 0);"/>
<rect id="Buckle_Pouch-Belt-2" x="80.2" y="82.9" width="8.8" height="7.2" style="fill: rgb(130, 129, 129);"/>
<g id="Pouches_Pouch-Belt-2" style="fill: rgb(26, 1, 1);">
<g>
<path d="M59,80.8l0.4-0.7l2.2,0.1l0.3,0.8L59,80.8z"/>
<path d="M61.9,81.1c0-0.1,0-0.1,0-0.2c0,0-0.1-0.1-0.1-0.1c-0.7,0-2.7-0.1-2.7-0.1l-0.4,8.8 c0.1,0.3,1.7,0.4,2.6,0.4c0.1,0,0.2-0.1,0.2-0.2C61.5,86.8,61.6,84,61.9,81.1z"/>
</g>
<g>
<path d="M110.1,80.8l-0.4-0.7l-2.2,0.1l-0.3,0.8L110.1,80.8z"/>
<path d="M107.2,81.1c0-0.1,0-0.1,0-0.2c0,0,0.1-0.1,0.1-0.1c0.7,0,2.7-0.1,2.7-0.1l0.4,8.8 c-0.1,0.3-1.7,0.4-2.6,0.4c-0.1,0-0.2-0.1-0.2-0.2C107.7,86.8,107.6,84,107.2,81.1z"/>
</g>
</g>
</g>
</g>
</g>
<g id="Extras_Front">
<g id="Front">
<g id="Shoulder-Cape-Left_Front" class="option" style="fill: rgb(44, 4, 4); display: inherit;">
<path d="M104.5,59.2c-1-5.7-7.3-37.7,4.4-42.3c2.2-0.9,6.8,0.5,7.8,0.6c2.4,0.1,12.5,10.1,13.7,12.1 c1.5,2.5,2.3,4.6,4,7.4c4.6,7.7,7.7,13.3,10.1,20.9c2.2,7,5,14.6,7.5,21.3c2.8,7.6,4.2,12.9,6.6,20.7c1.3,4.2,3.3,13,5.2,21 c1.7,7.3,5.1,13.2,0.9,15.9c-4.2,2.7-10.1,9.4-14.3,12.4c-4.3,3.1-20.7,1.2-24.7,3.7c-1.2,0.8-9.4,0.9-9.3,0.7 c0.5-2.5-1.6-8.8-2.5-15.9c-1.1-8.8-2.3-14.8-3.4-23.7c-0.7-5.9-0.1-9-1.4-14.8c-1.4-6.4-1.7-13.8-3.5-20.2 C104,72.8,105.6,65.6,104.5,59.2z"/>
<path d="M142.6,101.7c-0.9-3.6-2.3-8.8-0.7-12.4c1.2-2.8,6.4,3.2,6.8,4.5c1,3.3-0.2,6.9-0.6,10.2 c-0.4,3.7-0.3,7.3,0.4,10.9c0.9,4.4,1.9,9,3.6,13.2c2,4.8,5.3,9.2,5.5,14.5"/>
<path d="M136.3,143.5c-0.8,0.8-1.8,1.1-2.9,1c-5.6-0.6-6.4-10.1-6.1-14.3c0.5-6.9,1.9-13.5,1.4-20.4 c-0.7-9.4-4.3-19.7-5.7-29.2c-1.1-7.2-0.7-14.7-2.3-21.8c-1.1-4.6-9.4-23.7-12-27.3"/>
<path d="M126.2,46.2c3.1,7.9,6,15.1,6.9,23.7c0.5,4.8,0.8,9.8,0.8,14.6c-0.1,3.6-0.7,7.2-0.1,10.8 c1.2,7.7,5.7,14.5,7.2,22.2"/>
<path d="M156.2,109.7c0.2,9.9,4.5,18.6,7.1,27.9"/>
<path d="M128.2,26.9c1.9,3.2,1.9,6.9,2.6,10.3c0.7,3.5,0.6,7.3,1.9,10.6c1.3,3.3,3.7,6,5.5,9.1 c2.8,4.9,3.9,10.3,4.4,15.9"/>
</g>
</g>
</g>
</svg></svg>