<?xml version='1.0' encoding='UTF-8'?><svg version='1.1' xmlns='http://www.w3.org/2000/svg'><metadata><rdf:rdf xmlns:rdf="http://www.w3.org/1999/02/22-rdf-syntax-ns#" xmlns:rdfs="http://www.w3.org/2000/01/rdf-schema#" xmlns:dc="http://purl.org/dc/elements/1.1/"> <rdf:description> <dc:creator>MandoCreator</dc:creator> <dc:publisher>https://www.mandocreator.com</dc:publisher> <dc:description>Your Beskar'gam - created by MandoCreator</dc:description> <dc:format>image/svg+xml</dc:format> <dc:type>Image</dc:type> <dc:title>MandoCreator - Ner Berskar'gam</dc:title> <dc:date>2021-10-08T16:34:15.509Z</dc:date> </rdf:description> </rdf:rdf></metadata><svg version="1.1" id="Female" xmlns="http://www.w3.org/2000/svg" viewBox="0 -55 169 300" style="fill: white; fill-rule: evenodd; stroke: black; stroke-width: 0.2px; pointer-events: none; position: relative; height: 100%;">
<g id="Extras_Back">
<g id="Back">
<path id="Torn-Full-Cape_Back" class="option" d="M67.8,17.9C55.9,22.4,42.7,44,41,60.4c-1,10.4-6.1,20.9-5.6,31.2 c0.5,10.5-4.8,21.3-5.2,31.8c-0.3,9.4-3.1,13.7-4.7,23c-2.4,13.9-5.1,23.1-7.3,37.1c-1.7,11.1-6.9,20.3-9.4,23.7 c-0.1,0.1,2.5-1.2,5.7-1.3c0.9,0,5.6-6.8,5.6-6.8s5.8,4.8,7,7.5c1.6-1,2.8-15.4,4.5-16c0.9-0.3,2.7,18.1,2.7,18.1s2.8-5.5,3.9-5.5 c2.3,0,6.5,2,8.8,2.3c2.5,0.3,5.1-3.9,7.8-3.2c4.2,1,8.4,0.9,12.5,1.5c2.9,0.4,5.9,6.1,8.9,6.1c3.7,0,3.1-8.6,6.9-9.4 c3.2-0.7,7.6,6.9,7.6,6.9s1-25.4,4.2-26.4c4.1-1.4,19.7,19.1,24,18.7c1.3-0.1,2.9-12.9,4.2-12.9c2.7,0.1,5.1,13.2,7.8,13.7 c3.4,0.6,5-5.7,8.4-4.9c0.9,0.2,3.6,7.7,4.5,7.9c2.1,0.5,4.9,1.7,7.1,1.6c0.1,0-0.7-5-0.8-5.5c-0.5-2.4-1.2-4.7-2.2-7 c-1.1-2.7-2.5-5.3-4.1-7.7c-7.2-11.4-4.7-23.8-6-37.2c-1.3-13,0.1-26-2.1-39c-1.9-11.5-8.7-22.2-10.4-33.8 c-2-13.6-6.6-28.2-10.7-41.4C109.4,17.6,79.7,13.4,67.8,17.9z M71.1,190.4c-1,2.5-1.3,5-1.1,7.7c0.1,1.2,0.5,2.4,1.1,3.5 c0.1,0.1,0.1,0.4,0.2,0.3C75.8,197.9,71.1,190.4,71.1,190.4z M36.2,165.8c-0.4,7.9-1.1,15.8-1.1,23.6c0,1.5,0,2.9,0.2,4.4 c0,0.2,0.2,2.4,0.4,2.4c2.7-0.5,1.4-7.8,2-10.1C39.8,178.3,36.2,165.8,36.2,165.8z M129.5,193.1c-0.2,2.8,0.6,2.5,1.4,1.1 c0.7-1.4,1.3-4,0.6-5.6L129.5,193.1z M117.9,168.3c-0.7,4.7,0.4,8.7,0.7,13.4c0.1,1.5,0.1,3,0.1,4.5c0,0.5,0,1,0,1.5 c0,0.3-0.2,1,0,0.8c3.6-3.7,3.2-10.9,2-15.5L117.9,168.3z M75.3,182.2c0,1.2,0,2.5,0.1,3.7c0.3,2.4,1.7-1.4,1.7-2.4 c0-1.3-0.9-2.9-1.2-4.2L75.3,182.2z" style="fill: rgb(171, 162, 108); display: inherit;"/></g>
</g>
<g id="Suit">
<g id="Neck-Seal">
<g id="Standard-Neck-Seal" class="option" style="fill: rgb(31, 31, 31); display: inherit;">
<path d="M95.2,8.5c0-0.9-0.7-1.7-1.6-1.7c0,0-6.1,0.9-9.1,0.9c-3,0-9.1-0.9-9.1-0.9c-0.9,0-1.6,0.7-1.6,1.7 c0,0.9,0.7,1.6,1.6,1.6c0,0,6.1,0.9,9.1,0.9c3,0,9.1-0.9,9.1-0.9C94.4,10.1,95.2,9.4,95.2,8.5z"/>
<path d="M95.7,10.4c0-1-0.8-1.7-1.7-1.7c0,0-6.4,0.9-9.5,0.9s-9.5-0.9-9.5-0.9c-0.9,0-1.7,0.8-1.7,1.7 c0,1,0.8,1.7,1.7,1.7c0,0,6.4,0.9,9.5,0.9s9.5-0.9,9.5-0.9C95,12.1,95.7,11.3,95.7,10.4z"/>
<path d="M96.3,12.8c0-1-0.8-1.8-1.8-1.8c0,0-6.7,1-10.1,1c-3.4,0-10.1-1-10.1-1c-1,0-1.8,0.8-1.8,1.8 s0.8,1.8,1.8,1.8c0,0,6.7,1,10.1,1c3.4,0,10.1-1,10.1-1C95.5,14.6,96.3,13.8,96.3,12.8z"/>
<path d="M96.9,15c0-1.1-0.8-1.9-1.9-1.9c0,0-7,1-10.6,1c-3.5,0-10.6-1-10.6-1c-1,0-1.9,0.9-1.9,1.9 c0,1.1,0.8,1.9,1.9,1.9c0,0,7,1,10.6,1c3.5,0,10.6-1,10.6-1C96.1,16.9,96.9,16,96.9,15z"/>
<path d="M97.5,17.1c0-0.8-0.9-1.5-2-1.5c0,0-7.4,0.8-11.1,0.8c-3.7,0-11.1-0.8-11.1-0.8c-1.1,0-2,0.6-2,1.5 c0,0.8,0.9,1.5,2,1.5c0,0,7.4,0.8,11.1,0.8c3.7,0,11.1-0.8,11.1-0.8C96.6,18.6,97.5,17.9,97.5,17.1z"/>
<path d="M97.5,19.6c0-0.8-0.9-1.5-2-1.5c0,0-7.4,0.8-11.1,0.8c-3.7,0-11.1-0.8-11.1-0.8c-1.1,0-2,0.6-2,1.5 c0,0.8,0.9,1.4,2,1.4c0,0,7.4,1.5,11.1,1.5c3.7,0,11.1-1.5,11.1-1.5C96.6,21,97.5,20.4,97.5,19.6z"/>
</g>
</g>
<g id="Flight-Suit" style="fill: rgb(31, 31, 31);">
<path d="M38.9,64l5.1-18.4l11.8-8l1.8,16.1c0,0-5.1,9.7-6.9,14.2c-1.8,4.6-5,15.1-5.4,16.5l-2.8,24.4l-8.1-2.6 c0,0-0.3-16.9,0.4-24C35.5,76,38.9,64,38.9,64z"/>
<path d="M130.1,64l-5.1-18.5l-11.7-7.9l-1.9,16.2c0,0,5.1,9.6,6.8,14.1c1.8,4.6,5,15.1,5.4,16.5l2.8,24.4l8.1-2.6 c0,0,0.3-16.9-0.4-24C133.5,76,130.1,64,130.1,64z"/>
<path d="M84.5,116.1c-1,0.1-1.9,0.5-2.2,1.2c-2.9,6.2-8.9,34.4-10.7,39.6c-0.9,2.8-1.7,18.3-3.3,27.3 c-1.9,10.8-8.2,37.3-8.2,37.3l-10.9-1.1c0,0-1.4-26.6-1-36.3c0.3-7.4,3.3-21.8,3.3-21.8s0.7-5.3,0.7-7.9c0.1-9.6,0.9-31,2.8-43.3 c1.5-9.7,10.6-30.1,10.6-30.1s11.9,4.7,18.8,4.7c7,0,18.9-4.8,18.9-4.8s8.6,20.5,10.1,30.2c1.9,12.3,3.2,33.7,3.2,43.3 c0,2.7,0.7,7.9,0.7,7.9s3,14.5,3.3,21.8c0.4,9.7-1,36.3-1,36.3l-10.9,1.1c0,0-6.3-26.5-8.2-37.3c-1.6-9-2.3-24.5-3.3-27.3 c-1.7-5.2-7.7-33.4-10.7-39.6C86.5,116.6,85.6,116.2,84.5,116.1L84.5,116.1z"/>
</g>
<g id="Sleeves" class="toggle" style="fill: rgb(98, 83, 71);">
<path d="M42.6,45.6l0.8,0.3l12.4-8.3c0,0,0.4,8.8,1.4,14.1c0.1,0.7,0.4,1.7,0.6,2.7l-1.6,5.3c0,0-5.6-2.2-8.1-3.6 c-2.4-1.4-6.7-5-6.7-5L42.6,45.6z"/>
<path d="M111.3,54.4c0.3-1.1,0.5-2,0.6-2.7c1-5.3,1.4-14.1,1.4-14.1l12.4,8.3l0.8-0.3l1.2,5.5c0,0-4.3,3.6-6.7,5 c-2.5,1.4-8.1,3.6-8.1,3.6L111.3,54.4z"/>
</g>
</g>
<g id="Boots">
<g id="Gunslinger_Boots" class="option" style="display: inherit;">
<g id="Main_Gunslinger-Boot" style="fill: rgb(48, 47, 47);">
<path d="M62.4,227.8c0,0.2-0.6,3-3.8,3.8c-1,0.3-2.8-0.3-4-0.9c-1.5-0.8-3.2-1.4-4.8-1.9l0,0.1c0,0,0,0.1-0.1,0.1 c-0.5,0.7-1.1,1.4-1.7,2l0,0l0,0c-0.1,0.1-0.1,0.1-0.2,0.2c-0.4,0.3-0.7,0.7-1.1,1l-0.1,0.1l-0.1,0.1c0,0-0.1,0-0.1,0.1 c-0.1,0-0.1,0.1-0.2,0.1c-0.8,0.6-1.8,1.4-2.9,1.2c-1-0.1-2.1-0.5-2.9-0.9c-0.7-0.3-1.4-0.8-1.9-1.2c-0.1-0.1-0.3-0.2-0.3-0.4 c-2.3,0.9-4.7,1.2-5.9,3.8c-0.3,0.5-0.5,1.2-0.4,1.8c0.1,0.8,0.9,0.9,1.6,1.1c1.7,0.4,3.1,0.8,5.1,1.2c2.2,0.5,4.2,0.7,6.4,0.6 c1.7-0.1,3.1-0.2,4.5-1.1c0.6-0.4,1.2-0.7,1.7-1.2c1.1-1.1,1.9-2.2,3.3-2.8c1.1-0.5,2.2-0.9,3.3-1.1c1.6-0.4,3.3-0.7,4.1-2.3 C62.6,230.1,62.6,228.9,62.4,227.8L62.4,227.8"/>
<path d="M106.7,227.8c0,0.2,0.6,3,3.8,3.8c1,0.3,2.8-0.3,4-0.9c1.5-0.8,3.2-1.4,4.8-1.9l0,0.1c0,0,0,0.1,0.1,0.1 c0.5,0.7,1.1,1.4,1.7,2l0,0l0,0c0.1,0.1,0.1,0.1,0.2,0.2c0.4,0.3,0.7,0.7,1.1,1l0.1,0.1l0.1,0.1c0,0,0.1,0,0.1,0.1 c0.1,0,0.1,0.1,0.2,0.1c0.8,0.6,1.8,1.4,2.9,1.2c1-0.1,2.1-0.5,2.9-0.9c0.7-0.3,1.4-0.8,1.9-1.2c0.1-0.1,0.3-0.2,0.3-0.4 c2.3,0.9,4.7,1.2,5.9,3.8c0.3,0.5,0.5,1.2,0.4,1.8c-0.1,0.8-0.9,0.9-1.6,1.1c-1.7,0.4-3.1,0.8-5.1,1.2c-2.2,0.5-4.2,0.7-6.4,0.6 c-1.7-0.1-3.1-0.2-4.5-1.1c-0.6-0.4-1.2-0.7-1.7-1.2c-1.1-1.1-1.9-2.2-3.3-2.8c-1.1-0.5-2.2-0.9-3.3-1.1 c-1.6-0.4-3.3-0.7-4.1-2.3C106.4,230.1,106.5,228.9,106.7,227.8L106.7,227.8"/>
</g>
<g id="Bottom_Gunslinger-Boot" style="fill: rgb(100, 86, 58);">
<path d="M62.4,230c-0.1,0.4-0.2,0.9-0.5,1.3c-0.8,1.6-2.6,1.9-4.1,2.3c-1.1,0.3-2.2,0.7-3.3,1.1 c-1.5,0.6-2.2,1.7-3.3,2.8c-0.5,0.5-1.1,0.8-1.7,1.2c-1.5,0.9-2.9,1-4.5,1.1c-2.2,0.1-4.2-0.2-6.4-0.6c-1.9-0.4-3.4-0.7-5.1-1.2 c-0.5-0.1-1.2-0.2-1.5-0.7l0,0l-0.3,0.7l-0.2,1.5c0,0,1.8,1,3.7,1.4c1.9,0.4,5.8,1,5.8,1l0.3-0.6l0.9,0.2l0,0.6l2.1,0.1l0.4-0.6 l0.7,0l-0.1,0.5c0,0,1.3,0,2-0.4c0.1-0.2,0.4-0.5,0.4-0.5l0.5-0.3l-0.1,0.5l1.8-0.7l0.1-0.7l0.5-0.3l0,0.5l1.3-1l0.1-0.6l3.2-2.3 l0.5,1.2l2.3-0.5l0.1-0.5l0.6-0.2l0.4,0.4l1.5-0.6l0-0.5l0.5-0.2l0.1,0.3l1.4-1l0.3-2l0.1-2.2L62.4,230L62.4,230"/>
<path d="M106.6,230c0.1,0.4,0.2,0.9,0.5,1.3c0.8,1.6,2.6,1.9,4.1,2.3c1.1,0.3,2.2,0.7,3.3,1.1 c1.5,0.6,2.2,1.7,3.3,2.8c0.5,0.5,1.1,0.8,1.7,1.2c1.5,0.9,2.9,1,4.5,1.1c2.2,0.1,4.2-0.2,6.4-0.6c1.9-0.4,3.4-0.7,5.1-1.2 c0.5-0.1,1.2-0.2,1.5-0.7l0,0l0.3,0.7l0.2,1.5c0,0-1.8,1-3.7,1.4c-1.9,0.4-5.8,1-5.8,1l-0.3-0.6l-0.9,0.2l0,0.6l-2.1,0.1 l-0.4-0.6l-0.7,0l0.1,0.5c0,0-1.3,0-2-0.4c-0.1-0.2-0.4-0.5-0.4-0.5l-0.5-0.3l0.1,0.5l-1.8-0.7l-0.1-0.7l-0.5-0.3l0,0.5l-1.3-1 l-0.1-0.6l-3.2-2.3l-0.5,1.2l-2.3-0.5l-0.1-0.5l-0.6-0.2l-0.4,0.4l-1.5-0.6l0-0.5l-0.5-0.2l-0.1,0.3l-1.4-1l-0.3-2l-0.1-2.2 L106.6,230L106.6,230"/>
</g>
<g id="Top_Gunslinger-Boot" style="fill: rgb(34, 34, 34);">
<path d="M49.9,228.8c1.9-2.8,3.2-6.2,3.7-9.1l0,0l-0.5,0l0,0l-0.1,0l-0.2,0l-0.3,0l-0.1,0c-0.3,0-0.6-0.1-0.9-0.1 l-0.5-0.1l-0.1,0l0,0l-0.1,0l-0.3-0.1l-0.3-0.1l0,0c-1-0.3-0.9-0.5-0.9-0.5c-0.3,1.3-0.9,2.7-1.5,4c-0.9,1.9-2.7,3.6-4.1,5.1 c-1,1-2.5,2-3.7,2.8c-0.5,0.3-1.1,0.6-1.6,0.8c0.4,0.6,1.4,1.2,2.2,1.6c0.8,0.4,1.9,0.8,2.9,0.9c1,0.1,2.1-0.7,2.9-1.2 C47.6,231.6,48.8,230.3,49.9,228.8L49.9,228.8"/>
<path d="M119.2,228.8c-1.9-2.8-3.2-6.2-3.7-9.1l0,0l0.5,0l0,0l0.1,0l0.2,0l0.3,0l0.1,0c0.3,0,0.6-0.1,0.9-0.1 l0.5-0.1l0.1,0l0,0l0.1,0l0.3-0.1l0.3-0.1l0,0c1-0.3,0.9-0.5,0.9-0.5c0.3,1.3,0.9,2.7,1.5,4c0.9,1.9,2.7,3.6,4.1,5.1 c1,1,2.5,2,3.7,2.8c0.5,0.3,1.1,0.6,1.6,0.8c-0.4,0.6-1.4,1.2-2.2,1.6c-0.8,0.4-1.9,0.8-2.9,0.9c-1,0.1-2.1-0.7-2.9-1.2 C121.5,231.6,120.3,230.3,119.2,228.8L119.2,228.8"/>
</g>
<g id="Side_Gunslinger-Boot" style="fill: rgb(34, 34, 34);">
<path d="M49.8,228.9c1.7,0.5,3.3,1.1,4.8,1.9c1.1,0.6,2.9,1.1,4,0.9c3.2-0.8,3.8-3.8,3.8-3.8c-0.1-0.7-0.8-3.2-1-3.9 c-0.5-1.5-0.4-5.3-0.5-5.3c-2.6,1.4-6,1.1-7.3,1l0,0C53.1,222.7,51.8,226.1,49.8,228.9"/>
<path d="M119.2,228.9c-1.7,0.5-3.3,1.1-4.8,1.9c-1.1,0.6-2.9,1.1-4,0.9c-3.2-0.8-3.8-3.8-3.8-3.8 c0.1-0.7,0.8-3.2,1-3.9c0.5-1.5,0.4-5.3,0.5-5.3c2.6,1.4,6,1.1,7.3,1l0,0C116,222.7,117.3,226.1,119.2,228.9"/>
</g>
</g>
</g>
<g id="Gloves">
<g id="Left-Glove">
<g id="Fingerless_Left_Glove" class="option" style="display: inherit;">
<g id="Fingers_Fingerless_Left_Glove" style="fill: rgb(64, 37, 14);">
<path d="M131.4,123c-0.5,0-0.9,0-1.3,0.1c-0.3,0.1-0.6,0.2-0.9,0.3c-0.8,0.5-0.6,1.7,0.1,2.2c0.9,0.5,2.2,0,2.6-1 C132.1,124.2,131.6,123.4,131.4,123"/>
<path d="M129.9,124c-0.5,0-0.9,0-1.3,0.1c-0.3,0.1-0.6,0.2-0.9,0.3c-0.8,0.5-0.6,1.7,0.1,2.2c0.9,0.5,2.2,0,2.6-1 C130.6,125.2,130.1,124.4,129.9,124"/>
<path d="M128.8,125.4c-0.4,0-1,0.2-1.4,0.3c-0.3,0.1-0.6,0.2-0.8,0.5c-0.8,0.7-0.4,1.8,0.4,2.1 c0.9,0.4,2.2-0.3,2.5-1.4C129.5,126.5,128.8,125.4,128.8,125.4z"/>
<path d="M124.1,118.9c-0.3,1.3-0.5,2-0.5,2s-1.2,2.7-0.9,3.3c0.2,0.6,1.2,1.2,1.8,0.8c0.7-0.4,1.6-2.3,2.2-3.6 c0.2-0.5,0.4-1,0.6-1.6C125,120.2,124.1,118.9,124.1,118.9L124.1,118.9z"/>
<path d="M128.9,125.2c-0.2,0.3-0.4,0.7-0.6,1c-1.1,1.9-2.9,3.6-1.7,5.1c1.1,1.4,3.5-2.3,3.5-2.3l1.1-1.7 C129.4,126.9,128.9,125.2,128.9,125.2z"/>
</g>
<path id="Glove_Fingerless_Left_Glove" d="M131.3,127.4l1.3-1.9c0,0,2.8-5.1,2.9-6.1c0.1-0.8,0-3.3,0-3.3l-0.9-9.9 l-4.4,0.4l-3.6,1.3l-0.3,1.7c0,0-1.3,2-1.6,3.5c-0.2,1-0.1,3.5-0.4,5.2c0,0.2-0.1,0.4-0.1,0.6l0,0c0,0,0.8,1.3,3.1,0.9 c0.3-0.9,0.5-1.7,0.5-1.7s0.8,0.3,1.2,0.7c1.3,1.2,0.8,4.7,0.8,4.7s-0.3,0.7-0.8,1.7C128.9,125.2,129.4,126.9,131.3,127.4z" style="fill: rgb(12, 12, 12);"/>
</g>
</g>
<g id="Right-Glove">
<g id="Fingerless_Right_Glove" class="option" style="display: inherit;">
<g id="Fingers_Fingerless_Right_Glove" style="fill: rgb(64, 37, 14);">
<path d="M37.6,123c0.5,0,0.9,0,1.3,0.1c0.3,0.1,0.6,0.2,0.9,0.3c0.8,0.5,0.6,1.7-0.1,2.2c-0.9,0.5-2.2,0-2.6-1 C36.9,124.2,37.4,123.4,37.6,123"/>
<path d="M39.2,124c0.5,0,0.9,0,1.3,0.1c0.3,0.1,0.6,0.2,0.9,0.3c0.8,0.5,0.6,1.7-0.1,2.2c-0.9,0.5-2.2,0-2.6-1 C38.4,125.2,38.9,124.4,39.2,124"/>
<path d="M40.2,125.4c0.5,0,1,0.2,1.4,0.3c0.3,0.1,0.6,0.2,0.8,0.5c0.8,0.7,0.4,1.8-0.4,2.1 c-0.9,0.4-2.2-0.3-2.5-1.4C39.5,126.5,40.2,125.4,40.2,125.4z"/>
<path d="M44.9,118.9c0.3,1.3,0.5,2,0.5,2s1.1,2.7,0.9,3.3c-0.2,0.6-1.2,1.2-1.8,0.8c-0.7-0.4-1.6-2.3-2.2-3.6 c-0.2-0.5-0.4-1-0.6-1.6C44.1,120.2,44.9,118.9,44.9,118.9L44.9,118.9z"/>
<path d="M40.1,125.2c0.2,0.3,0.4,0.7,0.6,1c1.1,1.9,2.9,3.6,1.7,5.1c-1.1,1.4-3.5-2.3-3.5-2.3l-1.1-1.7 C39.7,126.9,40.1,125.2,40.1,125.2z"/>
</g>
<path id="Glove_Fingerless_Right_Glove" d="M37.8,127.4l-1.3-1.9c0,0-2.8-5.1-2.9-6.1c-0.1-0.8,0-3.3,0-3.3 l0.9-9.9l4.4,0.4l3.6,1.3l0.3,1.7c0,0,1.3,2,1.6,3.5c0.2,1,0.1,3.5,0.4,5.2c0,0.2,0.1,0.4,0.1,0.6l0,0c0,0-0.8,1.3-3.1,0.9 c-0.3-0.9-0.5-1.7-0.5-1.7s-0.8,0.3-1.2,0.7c-1.3,1.2-0.8,4.7-0.8,4.7s0.3,0.7,0.8,1.7C40.1,125.2,39.7,126.9,37.8,127.4z" style="fill: rgb(12, 12, 12);"/>
</g>
</g>
</g>
<g id="Biceps">
<g id="Left-Biceps">
<g id="None_Biceps_Left" class="option" style="display: inherit;">
</g>
</g>
<g id="Right-Biceps">
<g id="None_Biceps_Right" class="option" style="display: inherit;">
</g>
</g>
</g>
<path id="Vest" d="M90.9,86.3c-4.2,0.9-8.6,0.9-12.8,0c-4.2-0.9-12.5-5.2-12.5-5.2s-7.2-22.8-8.5-29.4 c-1-5.3-1.4-14.1-1.4-14.1L43.4,46l-2.6-1.1c0,0,7.4-16.4,12.3-21.1c4.4-4.3,17-7.3,17-7.3s5.5,6.1,14.6,6.1 c8.6,0,14.6-6.1,14.6-6.1s12.5,3.1,17,7.3c4.9,4.7,12.3,21.1,12.3,21.1l-2.6,1.1l-12.4-8.3c0,0-0.4,8.8-1.4,14.1 c-1.3,6.6-8.5,29.4-8.5,29.4S95.1,85.4,90.9,86.3z" style="fill: rgb(118, 101, 87);"/>
<g class="swappable" id="Chest">
<g id="Chest_Galaxy" style="visibility: visible;">
<g id="Abdomen_Galaxy">
<path id="Abdomen-Plate_Galaxy" d="M77.9,74.5l-2,1.4l-10-1.4l-0.7-5.5l4.7-0.1l2.9-4.7l1.3-4.3l10.4-9.5l0,0l0,0 l10.4,9.5l1.3,4.3l2.9,4.7l4.7,0.1l-0.7,5.5l-10,1.4l-2-1.4H77.9z" style="fill: rgb(78, 77, 77);"/>
<path id="Trauma-Plate_Abdomen_Galaxy" class="toggle" style="fill: rgb(85, 114, 92);" d="M84.5,52.5l-9,8.2l-1.2,4.1l-3.4,5.6L67,70.5l0.3,2.5l8.2,1.2 l1.9-1.4h14.2l1.9,1.4l8.2-1.2l0.3-2.5l-3.8-0.1l-3.4-5.6l-1.2-4.1L84.5,52.5L84.5,52.5L84.5,52.5z"/>
</g>
<g id="Full-Chest_Galaxy">
<path id="Chest-Plate_Galaxy" d="M80.3,36.5l0,9.7l3,3.1L72.7,59.4L71.3,64l-2.3,3.7h-3.9L63.3,65l-2.4-13.5 l-3.5-5.5l4.5-14.5l5.2-0.7l0.7-3.2l5.5-0.7l1.7,2.9h19l1.7-2.9l5.5,0.7l0.7,3.2l5.2,0.7l4.5,14.5l-3.5,5.5L105.7,65l-1.9,2.8 h-3.9L97.7,64l-1.4-4.7L85.6,49.3l3-3.1l0-9.7l-4.2-3.2L80.3,36.5z" style="fill: rgb(78, 81, 79);"/>
<path id="Trauma-Plating_Left-Chest_Galaxy" class="toggle" style="fill: rgb(85, 114, 92);" d="M94.9,31.4H84.6l5.7,4.4l0,11.1l-2.3,2.4l9.8,9.3 l1.4,4.9l1.7,2.8h2.1l1.2-1.8l2.4-13.5l3.3-5.2l-4-12.8l-5.3-0.7L100,29l-3.4-0.4L94.9,31.4z"/>
<path id="Trauma-Plating_Right-Chest_Galaxy" class="toggle" style="fill: rgb(85, 114, 92);" d="M72.4,28.6L69,29l-0.7,3.2L63,32.9l-4,12.8l3.3,5.2 l2.4,13.5l1.2,1.8h2.1l1.7-2.8l1.4-4.9l9.8-9.3l-2.3-2.4l0-11.1l5.7-4.4H74.1L72.4,28.6z"/>
<g id="Accents_Chest-Plate_Galaxy" class="toggle" style="display: none; fill: rgb(255, 255, 255);"/>
</g>
<g id="Iron-Heart_Galaxy">
<path id="Heart_Galaxy" d="M81.9,45.9v-8.7l2.6-2l2.6,2v8.7l-2.6,2.6L81.9,45.9z" style="fill: rgb(149, 149, 149);"/>
<rect id="Center_Heart_Galaxy" class="option" x="83.6" y="38.6" width="1.8" height="6" style="fill: rgb(89, 89, 89); display: inherit;"/>
</g>
<g id="Neck-Armor_Galaxy">
<g id="Neck-Plate_Galaxy" style="fill: rgb(49, 44, 44);">
<path d="M82.4,28.8l-7,0.1l-1.7-2.8L67,26.9l-0.7,2.9L62,30.3l-3.2-10.9l10.9-3.3c0,0,1.4,2.5,2.5,3.3 c1.1,0.9,2.5,1.9,3.9,2.5c1.5,0.6,3.3,1.1,5,1.4c0.2,0,0.4,0.1,0.6,0.1L82.4,28.8z"/>
<path d="M86.6,28.8l7,0.1l1.7-2.8l6.7,0.8l0.7,2.9l4.3,0.5l3.2-10.9l-10.9-3.3c0,0-1.4,2.5-2.5,3.3 c-1.1,0.9-2.5,1.9-3.9,2.5c-1.5,0.6-3.3,1.1-5,1.4c-0.2,0-0.4,0.1-0.6,0.1L86.6,28.8z"/>
</g>
<g id="Trauma-Plates_Neck_Galaxy" class="toggle" style="fill: rgb(85, 114, 92);">
<path d="M99.9,18.1c-0.6,0.9-1.5,2.1-2.2,2.7c-1.2,1-2.8,2.1-4.2,2.8c-1.4,0.6-3.1,1.1-4.7,1.4l-0.3,2.4l4.3,0.1 l1.8-2.9l8.8,1.1l0.7,2.9l1.8,0.2l2.3-8L99.9,18.1z"/>
<path d="M69.1,18.1l-8.3,2.5l2.3,8l1.8-0.2l0.7-2.9l8.8-1.1l1.8,2.9l4.3-0.1l-0.3-2.4c-1.7-0.3-3.3-0.7-4.7-1.4 c-1.5-0.6-3.1-1.8-4.2-2.8C70.6,20.2,69.7,18.9,69.1,18.1z"/>
</g>
</g>
</g>
</g>
<g id="Chest-Attachments">
<g id="Bandoleer_Accessories_Chest" class="option" style="display: inherit;">
<g id="Strap_Bandoleer_Accessories_Chest" style="fill: rgb(71, 50, 31);">
<path d="M112.6,19.9l-6.7-3.3l-37,67l6.7,3.7L112.6,19.9"/>
<path d="M110.8,18.7l-2.5-1.2l-8.4,15.3l2.4,1.3L110.8,18.7"/>
<path d="M98.8,40.7L96,39.2l-13,23.5l2.8,1.5L98.8,40.7"/>
<path d="M99.1,41.6l-4-2.2l-1.3,2.4l4,2.2L99.1,41.6"/>
<path d="M97.5,44.5l-4-2.2l-1.3,2.4l4,2.2L97.5,44.5"/>
<path d="M95.9,47.3l-4-2.2l-1.3,2.4l4,2.2L95.9,47.3"/>
<path d="M94.4,50.2l-4-2.2l-1.3,2.4l4,2.2L94.4,50.2"/>
<path d="M92.8,53l-4-2.2l-1.3,2.4l4,2.2L92.8,53"/>
<path d="M89.6,58.7l-4-2.2l-1.3,2.4l4,2.2L89.6,58.7"/>
<path d="M91.2,55.9l-4-2.2L86,56.1l4,2.2L91.2,55.9"/>
<path d="M88.1,61.6l-4-2.2l-1.3,2.4l4,2.2L88.1,61.6"/>
</g>
<g id="Ammo_Bandoleer_Accessories_Chest" style="fill: rgb(138, 124, 50);">
<g>
<g>
<path d="M98.9,41.9l1.6,0.9c0.2,0.1,0.2,0.3,0.1,0.5c-0.2,0.3-0.5,0.9-0.7,1.2c-0.1,0.2-0.3,0.2-0.5,0.1l-1.6-0.9 L98.9,41.9z"/>
<path d="M100.1,42.5l-0.1-0.1l-1,1.8l0.1,0.1L100.1,42.5z"/>
<path d="M99.9,42.4l-0.1-0.1l-1,1.8l0.1,0.1L99.9,42.4z"/>
</g>
<g>
<path d="M95,39.7l-1,1.8l-1.6-0.9c-0.2-0.1-0.2-0.3-0.1-0.5c0.2-0.3,0.5-0.9,0.7-1.2c0.1-0.2,0.3-0.2,0.5-0.1 L95,39.7z"/>
<path d="M93.8,39l-0.1-0.1l-1,1.8l0.1,0.1L93.8,39z"/>
</g>
</g>
<g>
<g>
<path d="M95.8,47.6l1.6,0.9c0.2,0.1,0.2,0.3,0.1,0.5c-0.2,0.3-0.5,0.9-0.7,1.2c-0.1,0.2-0.3,0.2-0.5,0.1l-1.6-0.9 L95.8,47.6z"/>
<path d="M97,48.3l-0.1-0.1l-1,1.8l0.1,0.1L97,48.3z"/>
<path d="M96.7,48.1L96.6,48l-1,1.8l0.1,0.1L96.7,48.1z"/>
</g>
<g>
<path d="M91.8,45.4l-1,1.8l-1.6-0.9C89,46.3,89,46,89.1,45.9c0.2-0.3,0.5-0.9,0.7-1.2c0.1-0.2,0.3-0.2,0.5-0.1 L91.8,45.4z"/>
<path d="M90.6,44.7l-0.1-0.1l-1,1.8l0.1,0.1L90.6,44.7z"/>
</g>
</g>
<g>
<g>
<path d="M94.2,50.4l1.6,0.9c0.2,0.1,0.2,0.3,0.1,0.5c-0.2,0.3-0.5,0.9-0.7,1.2c-0.1,0.2-0.3,0.2-0.5,0.1l-1.6-0.9 L94.2,50.4z"/>
<path d="M95.4,51.1L95.3,51l-1,1.8l0.1,0.1L95.4,51.1z"/>
<path d="M95.1,50.9L95,50.9l-1,1.8l0.1,0.1L95.1,50.9z"/>
</g>
<g>
<path d="M90.3,48.3l-1,1.8l-1.6-0.9c-0.2-0.1-0.2-0.3-0.1-0.5c0.2-0.3,0.5-0.9,0.7-1.2c0.1-0.2,0.3-0.2,0.5-0.1 L90.3,48.3z"/>
<path d="M89,47.6l-0.1-0.1l-1,1.8l0.1,0.1L89,47.6z"/>
</g>
</g>
<g>
<g>
<path d="M92.6,53.3l1.6,0.9c0.2,0.1,0.2,0.3,0.1,0.5c-0.2,0.3-0.5,0.9-0.7,1.2c-0.1,0.2-0.3,0.2-0.5,0.1l-1.6-0.9 L92.6,53.3z"/>
<path d="M93.8,54l-0.1-0.1l-1,1.8l0.1,0.1L93.8,54z"/>
<path d="M93.6,53.8l-0.1-0.1l-1,1.8l0.1,0.1L93.6,53.8z"/>
</g>
<g>
<path d="M88.7,51.1l-1,1.8l-1.6-0.9c-0.2-0.1-0.2-0.3-0.1-0.5c0.2-0.3,0.5-0.9,0.7-1.2c0.1-0.2,0.3-0.2,0.5-0.1 L88.7,51.1z"/>
<path d="M87.5,50.5l-0.1-0.1l-1,1.8l0.1,0.1L87.5,50.5z"/>
</g>
</g>
</g>
<g id="Buckles_Bandoleer_Accessories_Chest" style="fill: rgb(105, 105, 105);">
<g>
<path d="M103.4,32.5l-2.9-1.6l-1.6,3l2.9,1.6L103.4,32.5z"/>
<path d="M102.7,33l-2.2-1.2l-1.6,3L101,36L102.7,33z"/>
</g>
<path d="M103.4,29l-1.9-1l1.6-3l3.8,2.1l-1.6,3L103.4,29l0.4-0.7l1.1,0.6l0.9-1.6l-2.1-1.2l-0.9,1.6l1,0.6"/>
</g>
</g>
</g>
<g id="Collar">
<g id="Cloth-Wrap-Left_Collar" class="option" style="display: inherit;">
<g id="Main_Cloth-Wrap-Left_Collar" style="fill: rgb(171, 162, 108);">
<path d="M74.4,26c-4.5-1.4-5.3-3.7-5.6-6c-0.1-0.9,1.2-3.4-0.2-4c-1.6-0.7-5.3,0.4-6.8,0.7c-1.1,0.2-2.1,1.4-3.3,1.4 c-2.7,0-4.8,2.9-5,4.3c-0.3,1.9,3,0.5,4.5,2c3.9,3.5,5.2,8.3,13.3,9.6c3.7,0.6,7.4-0.2,10.9-1c8.9-2,13.8-3.7,19.5-8.1 c2.5-1.9,6.3-3.5,6.2-6.1c0-0.1-1.8-1.2-2-1.2c-1.6-0.4-3-1.1-4.7-1.1c-1.1,0-0.9,0.9-1,1.3c-0.3,1.6-1.7,2.8-3.6,4 C91.8,24.8,80.9,25.8,74.4,26z"/>
<path d="M74.4,26c-1.2,0-2.2,0.2-3.2,0.3c-4.1,0.3-5.6-0.8-6.4-2.6"/>
<path d="M61.5,16.8c-1.2,2-1,4.3-0.1,5.8"/>
<path d="M96.2,22.4c-3.1,4.2-7.7,5.6-12.7,6.1"/>
<path d="M104.7,17.2c-0.2,1.1-0.8,1.5-1.6,2.2c-0.5,0.4-1,0.7-1.4,1.2c-0.1,0.2-0.2,0.4-0.3,0.6"/>
</g>
<path id="Buckle_Cloth-Wrap-Left_Collar" d="M95.2,21.6l2.6-1.9l4.6,6.4L99.8,28L95.2,21.6z" style="fill: rgb(49, 49, 49);"/>
</g>
</g>
<svg version="1.1" id="Helmets" xmlns="http://www.w3.org/2000/svg" y="-54px" height="85px" viewBox="0 0 80 80" class="swappable">
<g id="Helmet_Stalker-Medium" style="visibility: visible;">
<g id="Left-Earcap_Stalker-Medium" class="toggle">
<g id="Range-Finder_Left_Stalker-Medium" class="option" style="display: inherit;">
<path id="Shaft_Left_Range-Finder_Stalker-Medium" d="M57.9,9.7l-1.1,0.1l1.6,26.9h1.1L57.9,9.7z" style="fill: rgb(119, 119, 119);"/>
<path id="Finder_Left_Range-Finder_Stalker-Medium" d="M49.6,7.6h6l-0.2-0.7l-7-0.7L49.6,7.6" style="fill: rgb(130, 127, 127);"/>
<g id="Cover_Left_Range-Finder_Stalker-Medium" style="fill: rgb(98, 97, 97);">
<path d="M58.8,8.6L56,8.8l-0.6-2l-7.5-0.7l-0.1-0.8L58.4,5l1,1.3L58.8,8.6"/>
<path d="M58,8.6l-1.4,0.1l0.1,1.1l1.4-0.1L58,8.6"/>
</g>
</g>
<g id="Ear-Cap_Left_Stalker-Medium" style="fill: rgb(81, 108, 87);">
<path d="M57.6,31l2.4,1.7L60.9,43l-2.1,2.1L57.6,31z"/>
<path d="M58.6,37.7c0-0.1,0.1-0.2,0.2-0.2l1-0.1c0.1,0,0.2,0.1,0.2,0.2c0,0.1-0.1,0.2-0.2,0.2l-1,0.1 C58.7,37.9,58.6,37.8,58.6,37.7z"/>
</g>
</g>
<g id="Right-Earcap_Stalker-Medium" class="toggle">
<g id="Main-Antenna_Right_Stalker-Medium" class="option" style="display: inherit;">
<path id="Shaft_Main-Antenna_Right_Stalker-Medium" d="M19.9,28.7l0.3-25c0,0,0-0.7,0.4-0.7S21,3.7,21,3.7l0.3,25 H19.9z" style="fill: rgb(92, 89, 89);"/>
<g id="Base_Main-Antenna_Right_Stalker-Medium" style="fill: rgb(115, 115, 115);">
<path d="M22.3,32.6h-3.6c0,0-0.8,8.4,1.8,8.4C23,41.1,22.3,32.6,22.3,32.6z"/>
<rect x="19.3" y="32.2" width="2.5" height="0.4"/>
<path d="M19.1,32.2l0.6-3.5h1.6l0.6,3.5H19.1z"/>
<rect x="20.3" y="29.3" width="0.4" height="2.5"/>
<path d="M21.5,29.2l-0.4,0.1l0.4,2.4l0.4-0.1L21.5,29.2z"/>
<path d="M19.6,29.2l0.4,0.1l-0.4,2.4l-0.4-0.1L19.6,29.2z"/>
</g>
</g>
<g id="Ear-Cap_Right_Stalker-Medium" style="fill: rgb(81, 108, 87);">
<path d="M22.4,31L20,32.6L19.1,43l2.1,2.1L22.4,31z"/>
<path d="M21.4,37.7c0-0.1-0.1-0.2-0.2-0.2l-1-0.1c-0.1,0-0.2,0.1-0.2,0.2c0,0.1,0.1,0.2,0.2,0.2l1,0.1 C21.3,37.9,21.4,37.8,21.4,37.7z"/>
</g>
</g>
<g id="Helmet_Pieces_Stalker-Medium">
<g id="Dome-2_Stalker-Medium" style="fill: rgb(71, 70, 70);">
<path d="M33,20.3c0-0.1-6.5,1.5-8.9,7.9c-0.4,1.1-0.8,3.2-1,4.2c0.1-0.2,0.2-0.4,0.3-0.5c0.5-0.6,1.2-1.5,1.9-2.1 c1-1,2.8-2.3,4-3.6c1.2-1.3,2.5-3.2,3.1-4.2C32.8,21.5,32.9,20.8,33,20.3z"/>
<path d="M47.1,20.3c0-0.1,6.5,1.5,8.9,7.9c0.4,1.1,0.8,3.2,1,4.2c-0.1-0.2-0.2-0.4-0.3-0.5c-0.5-0.6-1.2-1.5-1.9-2.1 c-1-1-2.8-2.3-4-3.6c-1.2-1.3-2.5-3.2-3.1-4.2C47.4,21.5,47.2,20.8,47.1,20.3z"/>
<g>
<path d="M56.9,29.7l0.8,0.9L59,45.5l-0.7,1L56.9,29.7z"/>
<path d="M56.1,28.5l0.8,0.9l1.6,17.3l-0.6,1L56.1,28.5z"/>
</g>
<g>
<path d="M23.2,29.7l-0.8,0.9L21,45.5l0.7,1L23.2,29.7z"/>
<path d="M24,28.5l-0.8,0.9l-1.6,17.3l0.6,1L24,28.5z"/>
</g>
</g>
<g id="Dome-1_Stalker-Medium" style="fill: rgb(100, 100, 100);">
<g>
<path d="M33.1,20.2c-0.1,0.5-0.3,1.2-0.6,1.7c-0.1,0.1-0.1,0.2-0.2,0.3c-0.4,0.1-0.8,0.2-1.2,0.4 C30.2,23,29,23.9,29,23.9V22c0,0,1-0.5,1.9-1C31.6,20.7,32.5,20.4,33.1,20.2z"/>
<path d="M32.4,22.2c-0.7,1.1-1.9,2.8-3,4c-0.1,0.1-0.2,0.3-0.4,0.4v-2.7c0,0,0.9-0.8,1.9-1.2 C31.4,22.5,31.9,22.3,32.4,22.2z"/>
</g>
<g>
<path d="M47.1,20.2c0.1,0.5,0.3,1.2,0.6,1.7c0.1,0.1,0.1,0.2,0.2,0.3c0.4,0.1,0.8,0.2,1.2,0.4 c0.8,0.4,2.1,1.2,2.1,1.2V22c0,0-1-0.5-1.9-1C48.5,20.7,47.6,20.4,47.1,20.2z"/>
<path d="M47.8,22.2c0.7,1.1,1.9,2.8,3,4c0.1,0.1,0.2,0.3,0.4,0.4v-2.7c0,0-0.9-0.8-1.9-1.2 C48.7,22.5,48.2,22.3,47.8,22.2z"/>
</g>
</g>
<g id="Face-2_Stalker-Medium" style="fill: rgb(85, 114, 92);">
<path d="M23.7,51.1l-0.1-3.4L21.2,51c0,0-0.1,2.9,0.3,4c0.4,1.2,1.3,2.1,2.2,3c1,1,12.1,8.5,12.1,8.5l-1.9-8.3L32,59 l-1.6-0.8l-2.1-1.6l-2.2-2.1l-1.7-1.9l-0.8-1.2v-0.3H23.7z"/>
<path d="M56.5,51.1l0.1-3.4l2.3,3.3c0,0,0.1,2.9-0.3,4c-0.4,1.2-1.3,2.1-2.2,3c-1,1-12.1,8.5-12.1,8.5l1.9-8.3 l1.8,0.7l1.6-0.8l2.1-1.6l2.2-2.1l1.7-1.9l0.8-1.2L56.5,51.1L56.5,51.1z"/>
</g>
<g id="Face-1_Stalker-Medium" style="fill: rgb(100, 98, 98);">
<g>
<path d="M23.7,51.1v0.3l0.8,1.2l1.7,1.9l2.2,2.1l2.1,1.6L32,59l1.8-0.7l-0.3-1.1L30,48.5L25.5,45l-1.9,2.7 L23.7,51.1z"/>
<g>
<path d="M29.9,55.5c-0.1-0.1-0.1-0.2,0-0.3l1.3-1c0.1-0.1,0.2-0.1,0.3,0c0.1,0.1,0.1,0.2,0,0.3l-1.3,1 C30.1,55.6,29.9,55.6,29.9,55.5"/>
<path d="M30.7,56.8c-0.1-0.1-0.1-0.2,0-0.3l1.1-0.9c0.1-0.1,0.2-0.1,0.3,0c0.1,0.1,0.1,0.2,0,0.3l-1.1,1 C30.9,56.9,30.8,56.9,30.7,56.8"/>
</g>
</g>
<g>
<path d="M56.5,51.1v0.3l-0.8,1.2L54,54.5l-2.2,2.1l-2.1,1.6L48.1,59l-1.8-0.7l0.3-1.1l3.6-8.7l4.6-3.5l1.9,2.7 L56.5,51.1z"/>
<g>
<path d="M50.3,55.5c0.1-0.1,0.1-0.2,0-0.3l-1.3-1c-0.1-0.1-0.2-0.1-0.3,0c-0.1,0.1-0.1,0.2,0,0.3l1.3,1 C50,55.6,50.2,55.6,50.3,55.5"/>
<path d="M49.4,56.8c0.1-0.1,0.1-0.2,0-0.3l-1.1-0.9c-0.1-0.1-0.2-0.1-0.3,0c-0.1,0.1-0.1,0.2,0,0.3l1.1,0.9 C49.2,56.9,49.4,56.9,49.4,56.8"/>
</g>
</g>
</g>
<g id="Cheeks_Stalker-Medium" style="fill: rgb(88, 88, 88);">
<g>
<path d="M46.5,57.2L45.7,57L50,44.7l0.2,0.6v3.2L46.5,57.2z"/>
<path d="M50.1,48.5l-0.2-3.8l1.7-0.9l2.9-2l2.6-2.3l0.3-0.3L54.7,45L50.1,48.5z"/>
<path d="M58.9,51l-4.2-6l2.8-5.8l0.5-0.6L58.9,51z"/>
<path d="M44.3,66.5h-0.2l1.5-9.6l0.9,0.2L44.3,66.5z"/>
</g>
<g>
<path d="M21.2,51l4.2-6l-2.8-5.8l-0.5-0.6L21.2,51z"/>
<path d="M33.6,57.2l0.9-0.2l-4.3-12.3L30,48.5L33.6,57.2z"/>
<path d="M30,48.5l0.2-3.8l-1.7-0.9l-2.9-2L23,39.5l-0.3-0.3l2.8,5.8L30,48.5z"/>
<path d="M35.8,66.5H36L34.5,57l-0.9,0.2L35.8,66.5z"/>
</g>
</g>
<path id="Visor_Stalker-Medium" d="M41.8,66.8h-3.5l-0.4-25.4c0,0-3.7-0.8-3.8-0.8c-0.1,0-5.2-1.2-5.2-1.2l-4.5-1.5 L23,37.1l0.1-1.4l4.3,0.7l5.4,0.7l5,0.3l2,0.1h0.5l2-0.1l5-0.3l5.4-0.7l4.3-0.7l0.1,1.4l-1.5,0.8l-4.5,1.5c0,0-5.1,1.2-5.2,1.2 c-0.1,0-3.8,0.8-3.8,0.8L41.8,66.8z" style="fill: rgb(54, 48, 48);"/>
<g id="Eyes_Stalker-Medium">
<g id="Main_Eyes_Stalker-Medium" style="fill: rgb(72, 93, 77);">
<path d="M57.5,33.4c0,0-0.5-1-0.9-1.5c-0.5-0.6-1.2-1.5-1.9-2.1c-1-1-2.8-2.3-4-3.6c-1.2-1.3-2.5-3.2-3.1-4.2 c-0.4-0.6-0.6-1.6-0.6-2c0-0.1,0.2-0.3,0.2-0.3s-2.1-0.9-2.8-1c-0.9-0.2-3.2-0.5-3.2-0.5h-2c0,0-2.5,0.3-3.4,0.5 c-0.7,0.2-2.8,1-2.8,1s0.2,0.2,0.2,0.3c-0.1,0.4-0.3,1.4-0.6,2c-0.6,1-1.9,2.9-3.1,4.2c-1.2,1.3-3,2.6-4,3.6 c-0.7,0.7-1.4,1.5-1.9,2.1c-0.4,0.5-0.9,1.5-0.9,1.5L22,38.2l0.2,0.4l0.8,0.9l2.6,2.3l2.9,2l1.7,0.9L34.5,57l1.5,9.6l0.6,0.2h7 l0.6-0.2l1.5-9.6L50,44.7l1.7-0.9l2.9-2l2.6-2.3l0.8-0.9l0.2-0.4L57.5,33.4 M41.8,66.8h-3.5l-0.4-25.4c0,0-3.7-0.8-3.8-0.8 c-0.1,0-5.2-1.2-5.2-1.2l-4.5-1.5L23,37.1l0.1-1.4l4.3,0.7l5.4,0.7l5,0.3l2,0.1h0.5l2-0.1l5-0.3l5.4-0.7l4.3-0.7l0.1,1.4 l-1.5,0.8l-4.5,1.5c0,0-5.1,1.2-5.2,1.2c-0.1,0-3.8,0.8-3.8,0.8L41.8,66.8"/>
<path d="M32.5,20.4l0.3-0.6l0.1-0.1l0.2,0.3L33,20.3L32.5,20.4"/>
<path d="M47.6,20.4l-0.3-0.6l-0.1-0.1c0,0-0.2,0.2-0.2,0.3s0.1,0.3,0.1,0.3L47.6,20.4"/>
</g>
<g id="Trim_Eyes_Stalker-Medium" style="fill: rgb(85, 114, 92);">
<path d="M35,37.3l-0.4-0.9L32,35.8l1.1-15.6l0.1-0.3L33,19.6l2.7-1l1.1-0.2v16.3h6.6V18.5l1.2,0.2l2.6,1L47,20 l1.1,15.9l-2.6,0.5l-0.4,0.9l-5,0.3L35,37.3z"/>
<path d="M43.4,34.8h-6.6l2.5,0.8v-0.4h1.6v0.4L43.4,34.8z"/>
<g>
<path d="M44.9,40.8l-2.7,0.6l-0.4,25.4h1.7l0.6-0.2l1.5-9.6l1.1-3.2l-2.3-2.4L44.9,40.8z"/>
<path d="M35.2,40.8l2.7,0.6l0.4,25.4h-1.7L36,66.6L34.5,57l-1.1-3.2l2.3-2.4L35.2,40.8z"/>
</g>
</g>
<path id="Center_Eyes_Stalker-Medium" d="M43.4,18.5c0,0-1.6-0.3-3.3-0.3c-1.7,0-3.3,0.3-3.3,0.3v16.3h6.6V18.5z" style="fill: rgb(77, 76, 76);"/>
</g>
</g>
</g>
</svg>
<g id="Shoulders">
<g id="Left-Shoulder">
<g id="Gunslinger-Bell_Shoulder_Left" class="option" style="display: inherit;">
<path id="Main_Gunslinger-Bell_Shoulder_Left" d="M109.6,18.6c6.2-0.2,20.1,4.8,19.6,22.6l-0.1,3.5l-12.1,5 l-10.6-14.2l0-16.9L109.6,18.6z" style="fill: rgb(85, 114, 92);"/>
<path id="Ridge_Gunslinger-Bell_Shoulder_Left" class="toggle" d="M106.3,18.6L106.3,18.6l0-2.1 c13.2-0.1,25.8,5.6,24.8,27.6l-2,0.5c0-0.3,0-0.5-0.1-0.8l0.1-2.6c0.6-17.8-13.3-22.8-19.6-22.6l-0.7,0 C107.5,18.4,106.6,18.5,106.3,18.6L106.3,18.6L106.3,18.6z" style="display: none; fill: rgb(255, 255, 255);"/>
<g id="Trim_Gunslinger-Bell_Shoulder_Left" class="toggle" style="fill: rgb(73, 73, 73);">
<rect x="106.3" y="17.8" width="3.2" height="17.7"/>
<path d="M109.6,34.4l-3.2,1.1L117,49.7l2.6-1.9L109.6,34.4z"/>
<path d="M118,45.8l-1.1,3.9l12.7-5.2V41L118,45.8z"/>
</g>
</g>
</g>
<g id="Right-Shoulder">
<g id="Gunslinger-Bell_Shoulder_Right" class="option" style="display: inherit;">
<path id="Main_Gunslinger-Bell_Shoulder_Right" d="M59.5,18.6c-6.2-0.2-20.1,4.8-19.6,22.6l0.1,3.5l12.1,5 l10.6-14.2l0-16.9L59.5,18.6z" style="fill: rgb(85, 114, 92);"/>
<path id="Ridge_Gunslinger-Bell_Shoulder_Right" class="toggle" d="M62.7,18.6L62.7,18.6l0-2.1 c-13.2-0.1-25.8,5.6-24.8,27.6l2,0.5c0-0.3,0-0.5,0.1-0.8l-0.1-2.6c-0.6-17.8,13.3-22.8,19.6-22.6l0.7,0 C61.6,18.4,62.5,18.5,62.7,18.6L62.7,18.6L62.7,18.6z" style="display: none; fill: rgb(255, 255, 255);"/>
<g id="Trim_Gunslinger-Bell_Shoulder_Right" class="toggle" style="fill: rgb(73, 73, 73);">
<rect x="59.5" y="17.8" width="3.2" height="17.7"/>
<path d="M59.5,34.4l3.2,1.1L52.1,49.7l-2.6-1.9L59.5,34.4z"/>
<path d="M51,45.8l1.1,3.9l-12.7-5.2V41L51,45.8z"/>
</g>
</g>
</g>
</g>
<g id="Gauntlets">
<g id="Left-Gauntlets">
<g id="Basic_Gauntlet_Left" class="option" style="display: inherit;">
<path id="Top-2_Basic_Gauntlet_Left" d="M138.2,110.9l1.6-2.1l-2.4-18.9l-0.8,2.2l1.2,8.6l-0.9,2L138.2,110.9z" style="fill: rgb(59, 36, 36);"/>
<path id="Top-1_Basic_Gauntlet_Left" d="M137.4,89.9l-0.8,2.2l1.2,8.6l-0.9,2l1.4,8.1l-1,1.4l0,5.2l-1.6,0.3 l-1.5-7.9l-1.4-0.7l-4.9-23.3l9.1-0.2L137.4,89.9z" style="fill: rgb(93, 92, 92);"/>
<g id="Accent-Bottom_Basic_Gauntlet_Left" style="fill: rgb(73, 72, 72);">
<path d="M123.8,92.4l-2,0.5l0.7,3l2-0.5L123.8,92.4z"/>
<path d="M125.1,97.7l-2,0.5l0.7,3l2-0.5L125.1,97.7z"/>
<path d="M126.4,103.1l-2,0.5l0.7,3l2-0.5L126.4,103.1z"/>
</g>
<path id="Bottom_Basic_Gauntlet_Left" d="M121.8,92.8l-0.6-2.3l6.6-4.3l4.8,22.9l-6.9,0.7l-2-8.6l2-0.5l-0.7-3 l-2,0.5l-0.5-2.3l2-0.5l-0.7-3L121.8,92.8z M126.4,103.1l-2,0.5l0.7,3l2.1-0.5L126.4,103.1z" style="fill: rgb(93, 92, 92);"/>
<g id="No-Device_Attachment_Basic_Gauntlet_Left" class="option" style="display: inherit;">
</g>
</g>
</g>
<g id="Right-Gauntlets">
<g id="Heavy_Gauntlet_Right" class="option" style="display: inherit;">
<g id="Top-2_Heavy_Gauntlet_Right" style="fill: rgb(71, 71, 71);">
<path d="M32.4,80.1l-1.7,0.3l-0.8,8.3l1.6,1.1L32.4,80.1z"/>
<path d="M31.6,89.1l-1,10.9l1.1,1.2l-0.6,6.4l0.5,0.3l1.7-17.5L31.6,89.1z"/>
<path d="M31.3,86c-0.2,0-0.4,0.2-0.3,0.4c0,0.2,0.2,0.4,0.4,0.3c0.2,0,0.4-0.2,0.3-0.4C31.7,86.2,31.5,86,31.3,86z"/>
</g>
<g id="Top-1_Heavy_Gauntlet_Right" style="fill: rgb(85, 85, 85);">
<path d="M36,108.7l-4.5-0.8l1.7-17.5l-1.7-1.3l0.9-9.5l6.6-1.2L36,108.7z"/>
<path d="M34.2,79.2l-0.9,11.1"/>
</g>
<g id="Accent-Top_Heavy_Gauntlet_Right" style="fill: rgb(65, 65, 65);">
<path d="M32.6,105.1l2.8,0.3l-0.2,2.2l-2.8-0.4L32.6,105.1z"/>
<path d="M33.6,95.8l2.8,0.3l-0.9,8.6l-2.8-0.3L33.6,95.8z"/>
<path d="M34.8,79.8l3.1-0.5l-0.9,9.5l-3-0.4L34.8,79.8z"/>
</g>
<path id="Bottom_Heavy_Gauntlet_Right" d="M39,78.8c3.4-0.2,7.1,1,9.5,3.7c0.8,0.9,1.1,2.1,0.9,3.2 c-1.2,5.6-5.2,23.7-5.2,23.7l-8.2-0.7L39,78.8z" style="fill: rgb(103, 84, 68);"/>
<g id="Accent-Bottom_Heavy_Gauntlet_Right" style="fill: rgb(91, 91, 91);">
<path d="M36,108.7l8.2,0.7l0.3-1.5l-8.3-0.9L36,108.7z"/>
<path d="M38.8,80.8c4.4,0.1,8.2,1.4,10.3,6l0.2-1.1c0.2-0.9,0-1.8-0.4-2.6l-0.5-0.6c-2.4-2.7-6.1-3.8-9.5-3.7 L38.8,80.8z"/>
<path d="M39.8,79.4l3.6,0.4l-1.6,14.3l-3.6-0.4L39.8,79.4z"/>
<path d="M40.3,79.7l2.7,0.3l-1.5,13.2l-2.7-0.3L40.3,79.7z"/>
<path d="M42.9,80l0.5-0.2"/>
<path d="M39.8,79.4l0.4,0.3"/>
<path d="M38.2,93.7l0.6-0.8"/>
<path d="M41.8,94.1l-0.4-0.9"/>
</g>
<g id="Flamethrower_Attachment_Heavy_Gauntlet_Right" class="option" style="display: inherit;">
<g id="Tubes_Flamethrower_Attachment_Heavy_Gauntlet_Right" style="fill: rgb(50, 50, 50);">
<path d="M30.9,80.4l0.8,0.1l-2.3,25.6l-0.8-0.1L30.9,80.4z"/>
<path d="M29,80.2l0.8,0.1l-1.7,18.3l-0.8-0.1L29,80.2z"/>
<path d="M30.5,82l1.3,0.1l-0.6,6.1L30,88.1L30.5,82z"/>
<path d="M28.7,81.8l1.2,0.1L29.3,88l-1.2-0.1L28.7,81.8z"/>
</g>
<g id="Main_Flamethrower_Attachment_Heavy_Gauntlet_Right" style="fill: rgb(85, 85, 85);">
<path d="M28.7,79.8l3.5,0.3l-0.2,2l-3.5-0.3L28.7,79.8z"/>
<path d="M27.9,87.9l3.6,0.3l-0.1,1l-3.6-0.3L27.9,87.9z"/>
<path d="M27.9,88.9l3.3,0.3l0,0.5l-3.3-0.3L27.9,88.9z"/>
<path d="M31.2,87.6l0.6,0.1l-0.3,3l-0.6-0.1L31.2,87.6z"/>
</g>
<g id="Accent_Flamethrower_Attachment_Heavy_Gauntlet_Right" style="fill: rgb(93, 91, 91);">
<path d="M27.3,98.6l0.9,0.1l0,1.3l-1.2-0.1L27.3,98.6z"/>
<path d="M27.5,92l1.6,0.1L29,94.1L27.4,94L27.5,92z"/>
<path d="M27.6,94l1.2,0.1L28.6,96l-1.2-0.1L27.6,94z"/>
<path d="M28.7,102.7l1.2,0.1l-0.2,2.7l-1.2-0.1L28.7,102.7z"/>
<path d="M29.5,94.2l1.2,0.1l-0.3,3.6l-1.2-0.1L29.5,94.2z"/>
<path d="M28.4,104.1l1.6,0.1l0,0.5l-1.6-0.1L28.4,104.1z"/>
</g>
<path id="Base_Flamethrower_Attachment_Heavy_Gauntlet_Right" d="M31.7,87.7l0.7-8.1l-1,0.3l-1.3,13.6l0.9,0.5 l0.3-3.4l-0.6-0.1l0.3-3L31.7,87.7z" style="fill: rgb(42, 42, 42);"/>
</g>
</g>
</g>
</g>
<g id="Shins">
<g id="Left-Shin">
<g id="Full_Shin_Left" class="option" style="display: inherit;">
<path id="Shin_Full-Shin_Left" d="M102.3,174.6c11.2-2.4,18.5-0.1,18.5-0.1l2.1,43.2c0,0-4.4,1-9.2,0.8 c-3.5-0.1-9-1.5-9-1.5l-6-37C98.8,180.1,102.5,179.5,102.3,174.6" style="fill: rgb(85, 114, 92);"/>
<g id="Accent_Full-Shin_Left" class="toggle" style="fill: rgb(38, 38, 38);">
<path d="M99.5,184.1l6.2-0.4l0.3,1.6l-6.2,0.4L99.5,184.1"/>
<path d="M99.9,186.4l4.2-0.3l0.3,1.6l-4.3,0.3L99.9,186.4"/>
</g>
<g id="Ridge_Full-Shin_Left" class="toggle" style="fill: rgb(81, 99, 85);">
<path d="M117.1,173.3l-3.9-0.5l-4.1,0.3l5.9,45.4c2,0.1,3.4-0.1,5.7-0.4L117.1,173.3"/>
<path d="M113.1,172.8l4.9,45.6"/>
</g>
</g>
</g>
<g id="Right-Shin">
<g id="Full_Shin_Right" class="option" style="display: inherit;">
<path id="Shin_Full-Shin_Right" d="M66.6,174.6c-11.2-2.4-18.5-0.1-18.5-0.1L46,217.7c0,0,4.4,1,9.2,0.8 c3.5-0.1,9-1.5,9-1.5l6-37C70.2,180.1,66.5,179.5,66.6,174.6" style="fill: rgb(85, 114, 92);"/>
<g id="Accent_Full-Shin_Right" class="toggle" style="fill: rgb(38, 38, 38);">
<path d="M69.5,184.1l-6.2-0.4l-0.3,1.6l6.2,0.4L69.5,184.1"/>
<path d="M69.1,186.4l-4.2-0.3l-0.3,1.6l4.3,0.3L69.1,186.4"/>
</g>
<g id="Ridge_Full-Shin_Right" class="toggle" style="fill: rgb(81, 99, 85);">
<path d="M51.9,173.3l3.9-0.5l4.1,0.3l-5.9,45.4c-2,0.1-3.4-0.1-5.7-0.4L51.9,173.3"/>
<path d="M55.9,172.8l-4.9,45.6"/>
</g>
</g>
</g>
</g>
<g id="Foot">
<g id="Left-Ankle">
<g id="None_Ankle_Left" class="option" style="display: inherit;">
</g>
</g>
<g id="Left-Toe">
<g id="Spikes_Toe_Left" class="option" style="fill: rgb(110, 109, 109); display: inherit;">
<path d="M127.8,240c2.9-0.5,5.8-1.2,8.7-2.1c0.2-0.1,0.5,0,0.6,0.1c0.2,0.1,0.3,0.3,0.3,0.6l0,0 c0,0.6-0.3,1.2-0.9,1.4c-1.9,0.7-4.2,1.3-6.7,1.7c-0.5,0.1-1-0.1-1.4-0.4C128,240.9,127.8,240.5,127.8,240 C127.8,240,127.8,240,127.8,240"/>
<path d="M132.7,241.9c0,0-2.8-0.3-3.9-0.4c-0.3,0-0.6-0.3-0.5-0.7c0.1-0.6,0.5-0.9,1.3-0.8c0.1,0,0.2,0,0.3,0.1 C130.3,240.4,132.7,241.9,132.7,241.9"/>
<path d="M139.8,239.9c0,0-2.5-0.2-3.5-0.3c-0.2,0-0.4-0.1-0.5-0.3c-0.1-0.2-0.1-0.4-0.1-0.5c0.2-0.3,0.5-0.5,1.1-0.4 c0.1,0,0.2,0,0.3,0.1C137.5,238.6,139.8,239.9,139.8,239.9"/>
</g>
</g>
<g id="Right-Ankle">
<g id="None_Ankle_Right" class="option" style="display: inherit;">
</g>
</g>
<g id="Right-Toe">
<g id="Spikes_Toe_Right" class="option" style="fill: rgb(110, 109, 109); display: inherit;">
<path d="M41.2,240c-2.9-0.5-5.8-1.2-8.7-2.1c-0.2-0.1-0.5,0-0.6,0.1c-0.2,0.1-0.3,0.3-0.3,0.6l0,0 c0,0.6,0.3,1.2,0.9,1.4c1.9,0.7,4.2,1.3,6.7,1.7c0.5,0.1,1-0.1,1.4-0.4C41,240.9,41.2,240.5,41.2,240C41.2,240,41.2,240,41.2,240 "/>
<path d="M36.3,241.9c0,0,2.8-0.3,3.9-0.4c0.3,0,0.6-0.3,0.5-0.7c-0.1-0.6-0.5-0.9-1.3-0.8c-0.1,0-0.2,0-0.3,0.1 C38.7,240.4,36.3,241.9,36.3,241.9"/>
<path d="M29.2,239.9c0,0,2.5-0.2,3.5-0.3c0.2,0,0.4-0.1,0.5-0.3c0.1-0.2,0.1-0.4,0.1-0.5c-0.2-0.3-0.5-0.5-1.1-0.4 c-0.1,0-0.2,0-0.3,0.1C31.5,238.6,29.2,239.9,29.2,239.9"/>
</g>
</g>
</g>
<g id="Knees">
<g id="Left-Knee">
<g id="Heavy_Knee_Left" class="option" style="display: inherit;">
<g id="Missiles_Heavy-Knee_Left" class="toggle" style="">
<path id="Base_Missiles_Heavy-Knee_Left" d="M118.6,161.8l1.8,9.7l2.1-1.7c0.3-0.3,0.5-0.7,0.4-1.2 c-0.2-1.3-0.7-4.2-0.9-5.7c-0.1-0.6-0.6-1-1.2-1L118.6,161.8z" style="fill: rgb(87, 87, 87);"/>
<g id="Missile-2_Missiles_Heavy-Knee_Left" style="fill: rgb(171, 96, 96);">
<path d="M121,167.1c-0.6,0.1-0.9,0.7-0.7,1.3s0.7,0.9,1.3,0.7c0.6-0.1,0.9-0.7,0.7-1.3S121.5,167,121,167.1z"/>
<path d="M121.1,167.5c-0.4,0.1-0.6,0.5-0.5,0.9c0.1,0.4,0.5,0.6,0.9,0.5c0.4-0.1,0.6-0.5,0.5-0.9 C121.8,167.6,121.5,167.4,121.1,167.5z"/>
</g>
<g id="Missile-1_Missiles_Heavy-Knee_Left" style="fill: rgb(140, 165, 165);">
<path d="M120.2,162.6c-0.6,0.1-0.9,0.7-0.7,1.3c0.2,0.6,0.7,0.9,1.3,0.7c0.6-0.1,0.9-0.7,0.7-1.3 C121.3,162.8,120.8,162.5,120.2,162.6z"/>
<path d="M120.3,163c-0.4,0.1-0.6,0.5-0.5,0.9c0.1,0.4,0.5,0.6,0.9,0.5c0.4-0.1,0.6-0.5,0.5-0.9 C121.1,163.1,120.7,162.9,120.3,163z"/>
</g>
</g>
<path id="Plate-2_Heavy-Knee_Left" d="M116.7,157.3l-2.9-1.7l-14.4,2.5l-2.1,2.6l2.8,14.4l5.7,0.1l8.1-1.4l5.6-2 L116.7,157.3z" style="fill: rgb(79, 78, 78);"/>
<g id="Plate-1_Heavy-Knee_Left" style="fill: rgb(70, 84, 66);">
<path d="M116,158.1l-2.7-1.7l-13.2,2.3l-1.9,2.5l2.7,13.9l4.8,0.1l8.1-1.4l4.8-1.8L116,158.1z"/>
<path d="M111.4,160.1l-8.1,1.4l2.5,13.8l4.2-0.2l3.9-1.2L111.4,160.1z"/>
<path d="M103.3,161.5l-3.1-2.8l-1.9,2.5L103.3,161.5z"/>
<path d="M111.4,160.1l2-3.6l2.7,1.7L111.4,160.1z"/>
</g>
<g id="Trim_Heavy-Knee_Left" style="fill: rgb(85, 114, 92);">
<path d="M97.4,165.6l-0.4,1.1l1.6,8.7l0.6-0.1L97.4,165.6z"/>
<path d="M112.3,169.8l-6.4,1.1l0.6,3.4l6.4-1.1L112.3,169.8z"/>
<path d="M98,164.1l-0.9,0.2l2,11.1l1-0.2l0,0l0,0L98,164.1z"/>
<path d="M117.6,161.8l2,10.1l-0.2,0.1l1-0.2l-1.9-10.1L117.6,161.8z"/>
</g>
</g>
</g>
<g id="Right-Knee">
<g id="Heavy_Knee_Right" class="option" style="display: inherit;">
<g id="Missiles_Heavy-Knee_Right" class="toggle" style="">
<path id="Base_Missiles_Heavy-Knee_Right" d="M50.4,161.8l-1.8,9.7l-2.1-1.7c-0.3-0.3-0.5-0.7-0.4-1.2 c0.2-1.3,0.7-4.2,0.9-5.7c0.1-0.6,0.6-1,1.2-1L50.4,161.8z" style="fill: rgb(87, 87, 87);"/>
<g id="Missile-2_Missiles_Heavy-Knee_Right" style="fill: rgb(171, 96, 96);">
<path d="M48,167.1c0.6,0.1,0.9,0.7,0.7,1.3s-0.7,0.9-1.3,0.7c-0.6-0.1-0.9-0.7-0.7-1.3S47.5,167,48,167.1z"/>
<path d="M47.9,167.5c0.4,0.1,0.6,0.5,0.5,0.9c-0.1,0.4-0.5,0.6-0.9,0.5c-0.4-0.1-0.6-0.5-0.5-0.9 C47.2,167.6,47.5,167.4,47.9,167.5z"/>
</g>
<g id="Missile-1_Missiles_Heavy-Knee_Right" style="fill: rgb(140, 165, 165);">
<path d="M48.8,162.6c0.6,0.1,0.9,0.7,0.7,1.3c-0.2,0.6-0.7,0.9-1.3,0.7c-0.6-0.1-0.9-0.7-0.7-1.3 C47.7,162.8,48.2,162.5,48.8,162.6z"/>
<path d="M48.7,163c0.4,0.1,0.6,0.5,0.5,0.9c-0.1,0.4-0.5,0.6-0.9,0.5c-0.4-0.1-0.6-0.5-0.5-0.9 C47.9,163.1,48.3,162.9,48.7,163z"/>
</g>
</g>
<path id="Plate-2_Heavy-Knee_Right" d="M52.3,157.3l2.9-1.7l14.4,2.5l2.1,2.6l-2.8,14.4l-5.7,0.1l-8.1-1.4l-5.6-2 L52.3,157.3z" style="fill: rgb(79, 78, 78);"/>
<g id="Plate-1_Heavy-Knee_Right" style="fill: rgb(70, 84, 66);">
<path d="M53,158.1l2.7-1.7l13.2,2.3l1.9,2.5L68,175.1l-4.8,0.1l-8.1-1.4l-4.8-1.8L53,158.1z"/>
<path d="M57.6,160.1l8.1,1.4l-2.5,13.8l-4.2-0.2l-3.9-1.2L57.6,160.1z"/>
<path d="M65.7,161.5l3.1-2.8l1.9,2.5L65.7,161.5z"/>
<path d="M57.6,160.1l-2-3.6l-2.7,1.7L57.6,160.1z"/>
</g>
<g id="Trim_Heavy-Knee_Right" style="fill: rgb(85, 114, 92);">
<path d="M71.6,165.6l0.4,1.1l-1.6,8.7l-0.6-0.1L71.6,165.6z"/>
<path d="M56.7,169.8l6.4,1.1l-0.6,3.4l-6.4-1.1L56.7,169.8z"/>
<path d="M71,164.1l0.9,0.2l-2,11.1l-1-0.2l0,0l0,0L71,164.1z"/>
<path d="M51.4,161.8l-2,10.1l0.2,0.1l-1-0.2l1.9-10.1L51.4,161.8z"/>
</g>
</g>
</g>
</g>
<g id="Thighs">
<g id="Left-Thigh">
<g id="Basic_Thigh_Left" class="option" style="display: inherit;">
<path id="Thigh_Basic-Thigh_Left" d="M118.2,116.8c0,0-5.1-6.5-7.7-7.6c-2.5-1-5.8-0.6-7.9,1.1 c-3.2,2.6-10.6,8.2-11.5,14.4c-0.9,6.9,4.1,22.3,5.8,27.3c0.6,1.7,2.8,2.5,4.5,2.5c3.1,0.1,11.7-0.1,13.7-4.8 C118.1,143.5,118.2,116.8,118.2,116.8" style="fill: rgb(60, 60, 60);"/>
<path id="Trauma-Plate_Basic-Thigh_Left" class="toggle" style="fill: rgb(85, 114, 92);" d="M116.5,117.4c-0.8-0.9-2.6-3.2-4.3-4.8 c-0.8-0.8-1.6-1.5-2.3-1.8c-1.9-0.8-4.5-0.5-6.1,0.9c-1.9,1.5-5.2,4-7.7,7.1c-1.5,1.9-2.8,4-3.1,6.2c-0.9,6.8,4.1,21.7,5.8,26.5 c0.1,0.4,0.5,0.7,1,0.9c0.6,0.3,1.3,0.5,2,0.5c1.8,0.1,5.3,0,8.3-1c1.7-0.5,3.2-1.3,3.8-2.8c0.8-1.8,1.3-5.3,1.7-9.4 C116.3,131,116.5,120.1,116.5,117.4"/>
<g id="Ridge_Basic-Thigh_Left" class="toggle" style="fill: rgb(87, 105, 91);">
<path d="M109.7,108.6l-3.5-0.9l-3.7,2l1.2,44.7c2.4,0.5,2.5,0.6,4.6-0.1L109.7,108.6"/>
<path d="M106.2,107.7l-0.1,47.1"/>
</g>
</g>
</g>
<g id="Right-Thigh">
<g id="Basic_Thigh_Right" class="option" style="display: inherit;">
<path id="Thigh_Basic-Thigh_Right" d="M50.8,116.8c0,0,5.1-6.5,7.7-7.6c2.5-1,5.8-0.6,7.9,1.1 c3.2,2.6,10.6,8.2,11.5,14.4c0.9,6.9-4.1,22.3-5.8,27.3c-0.6,1.7-2.8,2.5-4.5,2.5c-3.1,0.1-11.7-0.1-13.7-4.8 C50.9,143.5,50.8,116.8,50.8,116.8" style="fill: rgb(60, 60, 60);"/>
<path id="Trauma-Plate_Basic-Thigh_Right" class="toggle" style="fill: rgb(85, 114, 92);" d="M52.5,117.4c0.8-0.9,2.6-3.2,4.3-4.8 c0.8-0.8,1.6-1.5,2.3-1.8c1.9-0.8,4.5-0.5,6.1,0.9c1.9,1.5,5.2,4,7.7,7.1c1.5,1.9,2.8,4,3.1,6.2c0.9,6.8-4.1,21.7-5.8,26.5 c-0.1,0.4-0.5,0.7-1,0.9c-0.6,0.3-1.3,0.5-2,0.5c-1.8,0.1-5.3,0-8.3-1c-1.7-0.5-3.2-1.3-3.8-2.8c-0.8-1.8-1.3-5.3-1.7-9.4 C52.7,131,52.5,120.1,52.5,117.4"/>
<g id="Ridge_Basic-Thigh_Right" class="toggle" style="fill: rgb(87, 105, 91);">
<path d="M59.3,108.6l3.5-0.9l3.7,2l-1.2,44.7c-2.4,0.5-2.5,0.6-4.6-0.1L59.3,108.6"/>
<path d="M62.8,107.7l0.1,47.1"/>
</g>
</g>
</g>
</g>
<g id="Groin">
<g id="Basic_Groin" class="option" style="display: inherit;">
<path id="Groin-Plate_Groin" d="M78.2,107.5L67.7,86.2h33.8l-10.6,21.2c0,0-4.2,5.1-6.3,5.1 C82.5,112.5,78.2,107.5,78.2,107.5z" style="fill: rgb(73, 73, 73);"/>
<path id="Trauma-Plating_Groin" class="toggle" style="fill: rgb(85, 114, 92);" d="M89.8,106.7l9.5-19.2H69.8l9.5,19.2c0.4,0.5,2.1,2.4,3.7,3.6 c0.6,0.4,1.1,0.8,1.5,0.8c0.4,0,0.9-0.4,1.5-0.8C87.7,109.2,89.4,107.2,89.8,106.7"/>
</g>
</g>
<g id="Waist">
<g id="Accessories_Waist">
<g id="Kama" class="toggle" style="">
<g id="Tattered_Kama" class="option" style="display: inherit;">
<g id="Main_Kama-Tattered" style="fill: rgb(82, 95, 85);">
<path d="M104.7,82.6c1.4-0.3,0.8,5.2,4,9.6c1.9,2.6,4.5,7,5.1,9.4c0.6,2.9,2.5,5.8,3.2,8.7c1.3,5,3,9.9,4,14.8 c0.8,3.9,0.6,8.1,1.5,12.1c0.7,3,0.3,5.6,1.2,8.4c1.1,3.2-1.1,6.4-0.3,9.7c0.5,2,0.1,3.9,0.7,5.9c0.2,0.7,0.4,1.3,0.6,2 c0.1,0.2,0.1,0.4,0.1,0.6c0,0.1,0.2,0.5,0.1,0.4c-0.7-0.6-1-1.7-1.6-2.4c-1.2-1.4-2.7-2.4-3.8-3.8c-0.4-0.6-0.8-1.2-1.1-1.8 c0-0.1-0.2-0.5-0.2-0.5c-2.3,0.5-4.6,1.4-6.6-0.6c-1.6-1.6-2.9-5.1-3.7-7.2c-0.3-0.9,0.1-6.2-0.5-6.7c-0.4-0.4-0.8,4.4-1.4,4.1 c-3.3-2-8-3.2-8-3.2s-0.4-6.7-0.1-10.6c0.2-3.5-0.2-6.5-0.7-9.9c-0.6-4.4-0.6-8.9-0.3-13.3C97.2,100.9,91.9,85.5,104.7,82.6z M112.3,147.5c-0.4,1.8-0.4,3.8,0.5,5.4c0.3,0.5,1.2,1.4,1.9,1.2c3-1-0.7-5.8-1.7-6.8L112.3,147.5z M103.4,134.5 c-0.5,0.3-1,0.8-1.4,1.3c-1.4,1.9,2.5,0.9,1.8-1.3L103.4,134.5z"/>
<path d="M64.4,82.6c-1.4-0.3-1.1,5-4,9.6c-1.9,3-4.5,7-5,9.4c-0.6,2.9-2.5,5.8-3.2,8.7c-1.3,5-3,9.9-4,14.8 c-0.8,3.9-0.6,8.1-1.5,12.1c-0.7,3-0.3,5.6-1.2,8.4c-1.1,3.2,1.1,6.4,0.3,9.7c-0.5,2-0.1,3.9-0.7,5.9c-0.2,0.7-0.4,1.3-0.6,2 c0,0.2-0.1,0.4-0.1,0.6c0,0.1-0.2,0.5-0.1,0.4c0.7-0.6,1-1.7,1.6-2.4c1.2-1.4,2.7-2.4,3.8-3.8c0.4-0.6,0.8-1.2,1.1-1.8 c0-0.1,0.2-0.5,0.2-0.5c2.3,0.5,4.6,1.4,6.6-0.6c1.6-1.6,2.9-5.1,3.7-7.2c0.3-0.9-0.1-6.2,0.5-6.7c0.4-0.4,0.8,4.4,1.4,4.1 c3.3-2,8-3.2,8-3.2s0.4-6.7,0.1-10.6c-0.2-3.5,0.2-6.5,0.7-9.9c0.6-4.4,0.6-8.9,0.3-13.3C71.9,100.9,77.2,85.5,64.4,82.6z M56.8,147.5c0.4,1.8,0.4,3.8-0.5,5.4c-0.3,0.5-1.2,1.4-1.9,1.2c-3-1,0.7-5.8,1.7-6.8L56.8,147.5z M65.7,134.5 c0.5,0.3,1,0.8,1.4,1.3c1.4,1.9-2.5,0.9-1.8-1.3L65.7,134.5z"/>
</g>
</g>
</g>
<g id="Loin-Cloth" class="toggle" style="">
<path id="Tattered_Loin-Cloth" class="option" d="M95,85.9c-0.1,2.7-0.2,5.3,0,8c0.1,2.3,0.5,4.8,0.5,7.1 c0,1.9-0.5,3.6-0.6,5.5c-0.2,3,0.1,6.3,0.4,9.3c0.6,5.9-1.6,25.8-1.6,25.8l-4.3-4.8l-2.9,8.7l-2.4-5.6l-2.2,4.5l-2.3-0.9 l-1.1,7.5l-2.3-5.9l-0.3-5.1c0,0-0.3-2.5-1.1-6.8c-0.3-1.9-1.1-3.7-1.1-5.6c-0.1-4.8,1.3-9.6,1.4-14.4c0.1-3.8-0.8-7.5-1-11.3 c-0.2-3.3-0.7-8.6,1.2-11.3C77.2,87.7,95,85.9,95,85.9z M81.4,135.4c-0.1,0.6-0.2,1.2-0.3,1.8c-0.1,0.4-0.1,0.7-0.1,1.1 c0,0.5,0,1.1,0.2,1.5c0,0,0.3-0.1,0.3-0.2c0.3-0.2,0.5-0.6,0.6-1c0.2-0.9,0.4-2.7-0.3-3.4L81.4,135.4z M92.3,128.7 c-0.5,0.4-1.2,0.8-1.6,1.3c-0.3,0.4-0.5,0.9-0.6,1.4c-0.1,0.4-0.1,0.7-0.1,1.1c-0.1,1.3,0.6,1.8,1.4,0.8 C92.3,132.5,93.2,129.8,92.3,128.7z" style="fill: rgb(82, 95, 85); display: inherit;"/>
</g>
<g id="Left-Holster" class="toggle" style="">
<g id="Hanging-Holster_Left" class="option" style="display: inherit;">
<g id="Weapon_Hanging-Holster-Left">
<g id="Main_Weapon_Hanging-Holster-Left" style="fill: rgb(47, 43, 43);">
<path d="M117,118.2l0.2-3.7l0.6,0l0.1-2.3l-0.6,0l0.1-1.2c0-0.4,0.6-0.7,1.2-0.7c1.5,0.1,4,0.2,5.4,0.3 c0.6,0,1.1,0.4,1.1,0.8l-0.1,1.2l-0.6,0l-0.1,2.3l0.6,0l-0.2,3.7l-1.5-0.1l-0.5,10.1l-4.8-0.2l0.5-10.1L117,118.2z"/>
<path d="M124.2,118l-0.9,0l-0.6,12.2l-4.8-0.2l0.6-12.2l-0.8,0l0.1-2.8l6.5,0.3L124.2,118z"/>
<path d="M123.1,111.4l-3.8-0.2l-0.2,3.8l3.8,0.2L123.1,111.4z"/>
<path d="M119.6,118.8l-0.6,0l-0.4,9.6l0.6,0L119.6,118.8z"/>
<path d="M121.3,116.7l-0.6,0l-0.4,9.6l0.6,0L121.3,116.7z"/>
<path d="M122.8,119l-0.6,0l-0.4,9.6l0.6,0L122.8,119z"/>
</g>
<g id="Accent_Weapon_Hanging-Holster-Left" style="fill: rgb(124, 121, 121);">
<path d="M119.7,115.3l0,0.4l2.7,0.1l0-0.4L119.7,115.3z"/>
<path d="M119.6,115.7l0,0.4l2.7,0.1l0-0.4L119.6,115.7z"/>
<path d="M119.7,115l0,0.4l2.7,0.1l0-0.4L119.7,115z"/>
<path d="M119.9,110.2l0,0.4l2.7,0.1l0-0.4L119.9,110.2z"/>
<path d="M119.9,111.2l-0.6,0l-0.2,3.8l0.6,0L119.9,111.2z"/>
<path d="M123.1,111.4l-0.6,0l-0.2,3.8l0.6,0L123.1,111.4z"/>
<path d="M122.2,119l-1,0l-0.4,9.6l1,0L122.2,119z"/>
<path d="M120.5,118.9l-1,0l-0.4,9.6l1,0L120.5,118.9z"/>
</g>
</g>
<path id="Holster_Hanging-Holster-Left" d="M117,132.3l-0.8-15.4l7.1,11.6l-1.6,21c-1.7,1.7-3.3,1.8-4.9-0.2 L117,132.3z" style="fill: rgb(93, 55, 21);"/>
<g id="Straps_Hanging-Holster-Left" style="fill: rgb(98, 68, 41);">
<path d="M89.8,92c7.8,11.2,15.6,20.6,26.5,24.9l0.1,2.6c-13.5-5.7-20.7-15.3-28.7-27.5H89.8z"/>
<path d="M117,135.4c-7.3,5.6-15.2,8.6-24.6,9.1l0.7,2.1c8.2-0.7,15.8-3.8,23.9-9V135.4z"/>
<path d="M117,137.6l0-2.2c1.9,0.8,4.1,0.9,5.8,0.3l-0.2,2.3C120.8,138.4,118.7,138.5,117,137.6z"/>
</g>
<g id="Buckle_Hanging-Holster-Left" style="fill: rgb(91, 90, 90);">
<path d="M100,144.4l-1,0.2l0.1,0.3l1-0.2L100,144.4"/>
<path d="M97.2,103.3l-0.7-0.9l-0.3,0.2l0.7,0.9L97.2,103.3"/>
<path d="M96.9,103.5l-1.2,0.9L93,101l2.6-2.1l2.7,3.4l-1.2,1l-0.6-0.8l0.6-0.5l-1.5-1.9l-1.4,1.2l1.5,1.9l0.6-0.5 L96.9,103.5"/>
<path d="M99.9,144.4l-0.8,0.1l-0.1-0.8l-2,0.4l0.3,1.8l2-0.4l-0.1-0.7l0.8-0.1l0.2,1.4l-3.6,0.8l-0.5-3.3l3.6-0.8 L99.9,144.4"/>
</g>
</g>
</g>
<g id="Right-Holster" class="toggle" style="">
<g id="Hanging-Holster_Right" class="option" style="display: inherit;">
<g id="Weapon_Hanging-Holster-Right">
<g id="Main_Weapon_Hanging-Holster-Right" style="fill: rgb(47, 43, 43);">
<path d="M52,118.2l-0.2-3.7l-0.6,0l-0.1-2.3l0.6,0l-0.1-1.2c0-0.4-0.6-0.7-1.2-0.7c-1.5,0.1-4,0.2-5.4,0.3 c-0.6,0-1.1,0.4-1.1,0.8l0.1,1.2l0.6,0l0.1,2.3l-0.6,0l0.2,3.7l1.5-0.1l0.5,10.1l4.8-0.2l-0.5-10.1L52,118.2z"/>
<path d="M44.8,118l0.9,0l0.6,12.2l4.8-0.2l-0.6-12.2l0.8,0l-0.1-2.8l-6.5,0.3L44.8,118z"/>
<path d="M45.9,111.4l3.8-0.2l0.2,3.8l-3.8,0.2L45.9,111.4z"/>
<path d="M49.4,118.8l0.6,0l0.4,9.6l-0.6,0L49.4,118.8z"/>
<path d="M47.7,116.7l0.6,0l0.4,9.6l-0.6,0L47.7,116.7z"/>
<path d="M46.2,119l0.6,0l0.4,9.6l-0.6,0L46.2,119z"/>
</g>
<g id="Accent_Weapon_Hanging-Holster-Right" style="fill: rgb(124, 121, 121);">
<path d="M49.3,115.3l0,0.4l-2.7,0.1l0-0.4L49.3,115.3z"/>
<path d="M49.3,115.7l0,0.4l-2.7,0.1l0-0.4L49.3,115.7z"/>
<path d="M49.3,115l0,0.4l-2.7,0.1l0-0.4L49.3,115z"/>
<path d="M49.1,110.2l0,0.4l-2.7,0.1l0-0.4L49.1,110.2z"/>
<path d="M49.1,111.2l0.6,0l0.2,3.8l-0.6,0L49.1,111.2z"/>
<path d="M45.9,111.4l0.6,0l0.2,3.8l-0.6,0L45.9,111.4z"/>
<path d="M46.8,119l1,0l0.4,9.6l-1,0L46.8,119z"/>
<path d="M48.5,118.9l1,0l0.4,9.6l-1,0L48.5,118.9z"/>
</g>
</g>
<path id="Holster_Hanging-Holster-Right" d="M51.9,132.3l0.8-15.4l-7.1,11.6l1.6,21c1.7,1.7,3.3,1.8,4.9-0.2 L51.9,132.3z" style="fill: rgb(93, 55, 21);"/>
<g id="Straps_Hanging-Holster-Right" style="fill: rgb(98, 68, 41);">
<path d="M79.2,92c-7.8,11.2-15.6,20.6-26.5,24.9l-0.1,2.6c13.5-5.7,20.7-15.3,28.7-27.5H79.2z"/>
<path d="M52,135.4c7.3,5.6,15.2,8.6,24.6,9.1l-0.7,2.1c-8.2-0.7-15.8-3.8-23.9-9V135.4z"/>
<path d="M52,137.6l0-2.2c-1.9,0.8-4.1,0.9-5.8,0.3l0.2,2.3C48.2,138.4,50.3,138.5,52,137.6z"/>
</g>
<g id="Buckle_Hanging-Holster-Right" style="fill: rgb(91, 90, 90);">
<path d="M69,144.4l1,0.2l-0.1,0.3l-1-0.2L69,144.4"/>
<path d="M71.8,103.3l0.7-0.9l0.3,0.2l-0.7,0.9L71.8,103.3"/>
<path d="M72.1,103.5l1.2,0.9L76,101l-2.6-2.1l-2.7,3.4l1.2,1l0.6-0.8l-0.6-0.5l1.5-1.9l1.4,1.2l-1.5,1.9l-0.6-0.5 L72.1,103.5"/>
<path d="M69.1,144.4l0.8,0.1l0.1-0.8l2,0.4l-0.3,1.8l-2-0.4l0.1-0.7l-0.8-0.1l-0.2,1.4l3.6,0.8l0.5-3.3l-3.6-0.8 L69.1,144.4"/>
</g>
</g>
</g>
</g>
<g id="Under-Belt">
<g id="Sash" class="option" style="fill: rgb(82, 95, 85); display: inherit;">
<path d="M62.9,76c2-0.4,5,0.8,7.6,1.1c2.8,0.2,5.5,0,8.3,0.2c1.6,0.1,3.2,0.5,4.8,0.8c3.1,0.4,6.1,0.2,9.2-0.2 c0.8-0.1,1.6-0.1,2.4-0.3c2-0.4,4.6-0.9,6.3-1.8c1.5-0.4,3.1-0.5,4.5-0.1c1.5,0.4,0.4,3.4,0.5,4.7c0.1,1.3,1,6.5,1.5,7.7 c0.6,1.3,1.1,2.8-0.7,3.7c-1.5,0.7-3,0.1-4.5-0.1c-1.8-0.2-3.5-0.1-5.2,0.2c-2.1,0.4-4.2,1.2-6.4,1.5c-2.9,0.3-5.8-0.3-8.7-0.2 c-1.7,0-3.3,0.6-4.9,0.4c-2.8-0.2-5.3-1.4-8-1.7c-1.4-0.1-2.7,0.2-4.1,0.2c-0.9,0-1.8-0.3-2.7-0.5c-0.9-0.2-1.7-0.1-2.2-1 c-0.4-0.7,0.4-2.5,0.8-3.1c1-1.5,1.2-6.7,0.9-8.3C61.9,77.8,61.5,76.3,62.9,76z"/>
<path d="M60.9,88.4c3.1,0,5.8-0.1,8.6,1.1c9.4,3.8,9.2,3.3,13.2,3.7c5.9,0.6,8.2,0.4,10.7-0.2c1-0.2,2-0.6,2.9-1 c1.6-0.8,3.1-1.7,4.5-2.9c1.7-1.4,4.6-2.4,7-2.3c0,0-0.5-1.6-1.1-6.5c-0.2-1.3,0.6-2.6,0-4.3c-0.3-0.7-2.6-0.5-4.2-0.4 c-3.1,0.3-4.5,2.7-6.9,4.6c-1.4,1.1-3.1,2.4-5.2,3.1c-3.3,1.1-8.4,1.6-18.1-1.8c-3.2-1.1-5.8-3.2-10-2.5c0,0,0.2,2.3,0.2,3.4 C62.3,86,60.9,88.4,60.9,88.4z"/>
</g>
</g>
<g id="Belt">
<g id="Pouch-Belt-6" class="option" style="display: inherit;">
<path id="Main_Pouch-Belt-6" d="M108.2,87.6c-5.3,0.5-17.5,2.2-23.6,2.2c-6.2,0-18.4-1.8-23.6-2.2l0.8-6.2 c4.3,0.4,16.8,2.2,22.8,2.2c5.8,0,18.1-1.8,22.7-2.2L108.2,87.6z" style="fill: rgb(42, 42, 42);"/>
<rect id="Buckle_Pouch-Belt-6" x="80.2" y="82.9" width="8.8" height="7.2" style="fill: rgb(83, 83, 83);"/>
<g id="Pouches_Pouch-Belt-6" style="fill: rgb(132, 106, 83);">
<g>
<g>
<g>
<path d="M75.3,81.4c-1.4-0.1-2.8,0.1-4.1,0.6l0,0l6.3,0.4l1.7-0.7C79.3,81.7,77.1,81.5,75.3,81.4z"/>
<path d="M79.5,81.9c0-0.1,0-0.1-0.1-0.2c-0.1,0-0.1-0.1-0.2,0c-0.6,0.2-1.7,0.7-1.7,0.7l-0.8,9.8 c0.7-0.4,1.4-0.6,2.1-0.7c0.1,0,0.2-0.1,0.2-0.2C79.1,88.1,79.2,85,79.5,81.9z"/>
<path d="M77.6,82.4L71.2,82c0,1.5-0.2,3-0.3,4.4c-0.1,1.7-0.1,3.4-0.3,5.2c0,0.1,0,0.1,0.1,0.2 c0,0,0.1,0.1,0.2,0.1c2,0,3.9,0.1,5.9,0.3c0.1,0,0.1,0,0.2,0c0,0,0.1-0.1,0.1-0.1c0.1-0.9,0.3-4.4,0.3-4.4L77.6,82.4z"/>
<path d="M77.6,82.4L71.2,82c0,0-0.1,0.6-0.2,1.3c-0.1,0.9,0.2,1.8,0.7,2.5c0.6,0.7,1.4,1.1,2.3,1.2c0,0,0,0,0,0 c0.9,0.1,1.8-0.3,2.4-0.9c0.7-0.6,1-1.5,1-2.4C77.6,83,77.6,82.4,77.6,82.4z"/>
<path d="M74.2,85.8c0.2,0,0.4,0.2,0.4,0.4s-0.2,0.4-0.4,0.4s-0.4-0.2-0.4-0.4S74,85.8,74.2,85.8z"/>
</g>
</g>
<g>
<g>
<path d="M66.4,80.2c-1.3-0.1-2.6,0.1-3.7,0.7c0,0,0,0,0,0l5.8,0.3l1.6-0.7C70,80.5,68,80.3,66.4,80.2z"/>
<path d="M70.2,80.7c0-0.1,0-0.1-0.1-0.2c-0.1,0-0.1,0-0.2,0c-0.5,0.2-1.5,0.7-1.5,0.7L67.6,91 c0.6-0.4,1.3-0.6,1.9-0.7c0.1,0,0.2-0.1,0.2-0.2C69.8,86.9,69.9,83.8,70.2,80.7z"/>
<path d="M68.4,81.2l-5.8-0.3c0,1.5-0.2,3-0.3,4.4c-0.1,1.7-0.1,3.4-0.3,5.2c0,0.1,0,0.1,0.1,0.2 c0,0,0.1,0.1,0.1,0.1c1.8,0,3.6,0.1,5.3,0.3c0.1,0,0.1,0,0.2,0c0,0,0.1-0.1,0.1-0.1c0.1-0.9,0.3-4.4,0.3-4.4L68.4,81.2z"/>
<path d="M68.4,81.2l-5.8-0.3c0,0-0.1,0.7-0.2,1.6c-0.1,0.8,0.2,1.6,0.7,2.3c0.5,0.6,1.3,1,2.1,1.1c0,0,0,0,0,0 c0.8,0,1.6-0.2,2.2-0.8c0.6-0.6,0.9-1.3,0.9-2.2C68.4,81.9,68.4,81.2,68.4,81.2z"/>
<path d="M65.3,84.6c0.2,0,0.4,0.2,0.3,0.4s-0.2,0.4-0.4,0.4c-0.2,0-0.4-0.2-0.3-0.4S65.1,84.6,65.3,84.6z"/>
</g>
</g>
<g>
<path d="M59,80.8l0.4-0.7l2.2,0.1l0.3,0.8L59,80.8z"/>
<path d="M61.9,81.1c0-0.1,0-0.1,0-0.2c0,0-0.1-0.1-0.1-0.1c-0.7,0-2.7-0.1-2.7-0.1l-0.4,8.8 c0.1,0.3,1.7,0.4,2.6,0.4c0.1,0,0.2-0.1,0.2-0.2C61.5,86.8,61.6,84,61.9,81.1z"/>
</g>
</g>
<g>
<g>
<g>
<path d="M93.9,81.4c1.4-0.1,2.8,0.1,4.1,0.6l0,0l-6.3,0.4l-1.7-0.7C89.9,81.7,92.1,81.5,93.9,81.4z"/>
<path d="M89.7,81.9c0-0.1,0-0.1,0.1-0.2c0.1,0,0.1-0.1,0.2,0c0.6,0.2,1.7,0.7,1.7,0.7l0.8,9.8 c-0.7-0.4-1.4-0.6-2.1-0.7c-0.1,0-0.2-0.1-0.2-0.2C90.1,88.1,90,85,89.7,81.9z"/>
<path d="M91.6,82.4l6.3-0.4c0,1.5,0.2,3,0.3,4.4c0.1,1.7,0.1,3.4,0.3,5.2c0,0.1,0,0.1-0.1,0.2 c0,0-0.1,0.1-0.1,0.1c-2,0-3.9,0.1-5.9,0.3c-0.1,0-0.1,0-0.2,0c0,0-0.1-0.1-0.1-0.1c-0.1-0.9-0.3-4.4-0.3-4.4L91.6,82.4z"/>
<path d="M91.6,82.4l6.3-0.4c0,0,0.1,0.6,0.2,1.3c0.1,0.9-0.2,1.8-0.7,2.5c-0.6,0.7-1.4,1.1-2.3,1.2c0,0,0,0,0,0 c-0.9,0.1-1.8-0.3-2.4-0.9c-0.7-0.6-1-1.5-1-2.4C91.6,83,91.6,82.4,91.6,82.4z"/>
<path d="M95,85.8c-0.2,0-0.4,0.2-0.4,0.4s0.2,0.4,0.4,0.4s0.4-0.2,0.4-0.4S95.2,85.8,95,85.8z"/>
</g>
</g>
<g>
<g>
<path d="M102.8,80.2c1.3-0.1,2.6,0.1,3.7,0.7l0,0l-5.8,0.3l-1.6-0.7C99.2,80.5,101.2,80.3,102.8,80.2z"/>
<path d="M99,80.7c0-0.1,0-0.1,0.1-0.2c0.1,0,0.1,0,0.2,0c0.5,0.2,1.5,0.7,1.5,0.7l0.8,9.8 c-0.6-0.4-1.3-0.6-1.9-0.7c-0.1,0-0.2-0.1-0.2-0.2C99.4,86.9,99.3,83.8,99,80.7z"/>
<path d="M100.7,81.2l5.8-0.3c0,1.5,0.2,3,0.3,4.4c0.1,1.7,0.1,3.4,0.3,5.2c0,0.1,0,0.1-0.1,0.2 c0,0-0.1,0.1-0.2,0.1c-1.8,0-3.6,0.1-5.3,0.3c-0.1,0-0.1,0-0.2,0c0,0-0.1-0.1-0.1-0.1c-0.1-0.9-0.3-4.4-0.3-4.4L100.7,81.2z"/>
<path d="M100.7,81.2l5.8-0.3c0,0,0.1,0.7,0.2,1.6c0.1,0.8-0.2,1.6-0.7,2.3c-0.5,0.6-1.3,1-2.1,1.1c0,0,0,0,0,0 c-0.8,0-1.6-0.2-2.2-0.8c-0.6-0.6-0.9-1.3-0.9-2.2C100.7,81.9,100.7,81.2,100.7,81.2z"/>
<path d="M103.8,84.6c-0.2,0-0.4,0.2-0.3,0.4c0,0.2,0.2,0.4,0.4,0.4c0.2,0,0.4-0.2,0.3-0.4S104,84.6,103.8,84.6z"/>
</g>
</g>
<g>
<path d="M110.1,80.8l-0.4-0.7l-2.2,0.1l-0.3,0.8L110.1,80.8z"/>
<path d="M107.2,81.1c0-0.1,0-0.1,0-0.2c0,0,0.1-0.1,0.1-0.1c0.7,0,2.7-0.1,2.7-0.1l0.4,8.8 c-0.1,0.3-1.7,0.4-2.6,0.4c-0.1,0-0.2-0.1-0.2-0.2C107.7,86.8,107.6,84,107.2,81.1z"/>
</g>
</g>
</g>
</g>
</g>
</g>
<g id="Extras_Front">
<g id="Front">
<g id="None_Front" class="option" style="display: inherit;">
</g>
</g>
</g>
</svg></svg>