<?xml version='1.0' encoding='UTF-8'?>
<svg version="1.1" id="Female-Body" xmlns="http://www.w3.org/2000/svg" xmlns:serif="http://www.serif.com/" viewBox="0 -55 170 300" style="fill-rule: evenodd; stroke-width: 0.2px; stroke-linejoin: round;" width="170" height="300">
<style>
mask {
mask-type: alpha;
}
.decal {
stroke: none;
}
</style>
<defs id="Masks" stroke="none">
<mask id="HelmetsMask"> <use href="#Helmets"/> </mask>
<mask id="CollarMask"> <use href="#Collar"/> </mask>
<mask id="ShouldersMask"> <use href="#Shoulders"/> </mask>
<mask id="ChestMask"> <use href="#Chest"/> </mask>
<mask id="BicepsMask"> <use href="#Biceps"/> </mask>
<mask id="GauntletsMask"> <use href="#Gauntlets"/> </mask>
<mask id="WaistMask"> <use href="#Waist"/> </mask>
<mask id="GroinMask"> <use href="#Groin"/> </mask>
<mask id="ThighsMask"> <use href="#Thighs"/> </mask>
<mask id="KneesMask"> <use href="#Knees"/> </mask>
<mask id="ShinsMask"> <use href="#Shins"/> </mask>
<mask id="FootMask"> <use href="#Foot"/> </mask>
</defs>
<defs id="Decals"/><metadata><rdf:rdf xmlns:rdf="http://www.w3.org/1999/02/22-rdf-syntax-ns#" xmlns:rdfs="http://www.w3.org/2000/01/rdf-schema#" xmlns:dc="http://purl.org/dc/elements/1.1/"><rdf:description><dc:creator>MandoCreator</dc:creator><dc:publisher>https://www.mandocreator.com</dc:publisher><dc:description>Your Beskar'gam - created by MandoCreator</dc:description><dc:format>image/svg+xml</dc:format><dc:type>Image</dc:type><dc:title>MandoCreator - Ner Berskar'gam</dc:title><dc:date>2022-01-02T16:21:07.684Z</dc:date></rdf:description></rdf:rdf></metadata><g id="Main-Body" fill="white" stroke="black">
<g id="Extras_Back">
<g id="Back"><path id="Torn-Full-Cape_Back" class="option" d="M67.82,13.09c-12.2,4.58-25.78,26.64-27.46,43.43 c-1.06,10.59-6.25,21.35-5.77,31.89c0.49,10.69-4.93,21.78-5.33,32.46c-0.36,9.62-3.22,14.02-4.87,23.54 c-2.48,14.24-5.22,23.63-7.45,37.88c-1.77,11.33-7.12,20.69-9.63,24.23c-0.09,0.13,2.56-1.22,5.84-1.28 c0.96-0.02,5.74-6.99,5.74-6.99s5.95,4.92,7.17,7.7c1.6-1.02,2.83-15.76,4.66-16.34c0.97-0.3,2.72,18.52,2.72,18.52 s2.86-5.57,3.96-5.59c2.35-0.04,6.65,2.09,9.06,2.35c2.56,0.27,5.19-3.94,8-3.26c4.31,1.05,8.58,0.97,12.87,1.52 c3.03,0.39,6.06,6.26,9.11,6.25c3.76-0.01,3.23-8.76,7.06-9.6c3.29-0.72,7.77,7.08,7.77,7.08s1.03-25.9,4.28-26.96 c4.25-1.39,20.24,19.49,24.69,19.08c1.31-0.12,3-13.21,4.3-13.18c2.82,0.06,5.22,13.48,8,14.01c3.49,0.66,5.18-5.84,8.61-4.99 c0.97,0.24,3.71,7.88,4.67,8.1c2.12,0.49,5.07,1.75,7.26,1.61c0.06,0-0.7-5.08-0.81-5.62c-0.49-2.43-1.28-4.81-2.26-7.11 c-1.17-2.74-2.62-5.38-4.2-7.86c-7.37-11.59-4.83-24.32-6.18-38.02c-1.31-13.29,0.06-26.6-2.19-39.86 c-1.99-11.73-8.97-22.64-10.72-34.48c-2.05-13.89-6.82-28.76-11.03-42.25C110.54,12.8,80.02,8.51,67.82,13.09z M71.28,189.33 c-0.98,2.52-1.37,5.14-1.09,7.83c0.12,1.22,0.48,2.48,1.09,3.55c0.06,0.1,0.09,0.39,0.18,0.31 C76.04,196.96,71.28,189.33,71.28,189.33z M35.42,164.2c-0.42,8.04-1.18,16.11-1.18,24.15c0,1.51,0.02,3.01,0.16,4.51 c0.02,0.24,0.25,2.44,0.38,2.42c2.75-0.55,1.41-8,2.06-10.31C39.08,176.95,35.42,164.2,35.42,164.2z M131.24,192.06 c-0.24,2.91,0.64,2.59,1.39,1.13c0.75-1.46,1.37-4.05,0.58-5.69L131.24,192.06z M119.28,166.74c-0.68,4.82,0.37,8.92,0.72,13.67 c0.12,1.54,0.12,3.1,0.14,4.65c0.01,0.52,0.03,1.04,0.02,1.56c0,0.26-0.19,0.99-0.01,0.8c3.65-3.79,3.24-11.1,2.1-15.79 L119.28,166.74z M75.59,180.96c-0.04,1.24-0.01,2.52,0.15,3.75c0.33,2.48,1.74-1.42,1.76-2.4c0.03-1.37-0.89-2.96-1.22-4.28 L75.59,180.96z" fill="rgb(171, 162, 108)" style="display: inherit;"/></g>
</g>
<g id="Extras-BackDecals" mask="url(#BackMask)">
</g>
<g id="Suit">
<g id="Neck-Seal"><g id="Standard-Neck-Seal" class="option" fill="rgb(31, 31, 31)" style="display: inherit;">
<path d="M95.96,3.46c0-0.93-0.74-1.69-1.65-1.69c0,0-6.22,0.89-9.33,0.89c-3.11,0-9.33-0.89-9.33-0.89 c-0.91,0-1.65,0.76-1.65,1.69c0,0.93,0.74,1.69,1.65,1.69c0,0,6.22,0.89,9.33,0.89c3.11,0,9.33-0.89,9.33-0.89 C95.22,5.15,95.96,4.39,95.96,3.46z"/>
<path d="M96.51,5.43c0-0.98-0.78-1.77-1.73-1.77c0,0-6.53,0.93-9.8,0.93s-9.8-0.93-9.8-0.93 c-0.96,0-1.73,0.79-1.73,1.77c0,0.98,0.78,1.77,1.73,1.77c0,0,6.53,0.93,9.8,0.93s9.8-0.93,9.8-0.93 C95.74,7.21,96.51,6.41,96.51,5.43z"/>
<path d="M97.14,7.88c0-1.03-0.82-1.87-1.83-1.87c0,0-6.89,0.98-10.33,0.98c-3.44,0-10.33-0.98-10.33-0.98 c-1.01,0-1.83,0.84-1.83,1.87s0.82,1.87,1.83,1.87c0,0,6.89,0.98,10.33,0.98c3.44,0,10.33-0.98,10.33-0.98 C96.32,9.75,97.14,8.91,97.14,7.88z"/>
<path d="M97.75,10.13c0-1.08-0.86-1.96-1.92-1.96c0,0-7.23,1.03-10.85,1.03c-3.62,0-10.85-1.03-10.85-1.03 c-1.06,0-1.92,0.88-1.92,1.96c0,1.08,0.86,1.96,1.92,1.96c0,0,7.23,1.03,10.85,1.03c3.62,0,10.85-1.03,10.85-1.03 C96.89,12.09,97.75,11.21,97.75,10.13z"/>
<path d="M98.36,12.33c0-0.82-0.9-1.48-2.01-1.48c0,0-7.58,0.78-11.36,0.78s-11.36-0.78-11.36-0.78 c-1.11,0-2.01,0.66-2.01,1.48c0,0.82,0.9,1.48,2.01,1.48c0,0,7.58,0.78,11.36,0.78s11.36-0.78,11.36-0.78 C97.46,13.81,98.36,13.14,98.36,12.33z"/>
<path d="M98.36,14.8c0-0.82-0.9-1.48-2.01-1.48c0,0-7.58,0.78-11.36,0.78s-11.36-0.78-11.36-0.78 c-1.11,0-2.01,0.66-2.01,1.48c0,0.82,0.9,1.48,2.01,1.48c0,0,7.58,1.5,11.36,1.5s11.36-1.5,11.36-1.5 C97.46,16.28,98.36,15.62,98.36,14.8z"/>
</g>
</g>
<g id="Flight-Suit" fill="rgb(31, 31, 31)">
<path d="M38.1,60.17l5.2-18.8l12.15-8.13l1.9,16.49c0,0-5.25,9.95-7.06,14.51c-1.86,4.7-5.09,15.42-5.5,16.81 l-2.88,24.91l-8.36-2.66c0,0-0.3-17.29,0.46-24.47C34.68,72.42,38.1,60.17,38.1,60.17z"/>
<path d="M131.9,60.17l-5.22-18.86l-12.06-8.07l-1.92,16.59c0,0,5.2,9.85,7.01,14.41c1.86,4.7,5.09,15.42,5.5,16.81 l2.88,24.91l8.36-2.66c0,0,0.3-17.29-0.46-24.47C135.32,72.42,131.9,60.17,131.9,60.17z"/>
<path d="M84.99,113.44c-1.03,0.1-1.95,0.5-2.29,1.22c-3,6.3-9.17,35.13-10.95,40.44c-0.97,2.89-1.74,18.7-3.38,27.92 c-1.96,11.01-8.39,38.11-8.39,38.11l-11.15-1.15c0,0-1.44-27.22-1.04-37.12c0.3-7.53,3.42-22.31,3.42-22.31s0.67-5.4,0.69-8.12 c0.06-9.82,0.93-31.66,2.88-44.2C56.3,98.31,65.7,77.5,65.7,77.5s12.18,4.76,19.34,4.76c7.16,0,19.44-4.86,19.44-4.86 s8.88,20.92,10.42,30.83c1.95,12.54,3.24,34.38,3.3,44.2c0.02,2.72,0.69,8.12,0.69,8.12s3.12,14.79,3.42,22.31 c0.4,9.91-1.04,37.12-1.04,37.12l-11.15,1.15c0,0-6.43-27.1-8.39-38.11c-1.64-9.22-2.41-25.03-3.38-27.92 c-1.78-5.31-7.96-34.13-10.95-40.44c-0.35-0.73-1.3-1.14-2.34-1.23L84.99,113.44z"/>
</g>
<g id="Sleeves" class="toggle" fill="rgb(98, 83, 71)">
<path d="M41.92,41.42l0.81,0.34l12.73-8.52c0,0,0.36,8.98,1.42,14.37c0.15,0.75,0.37,1.69,0.64,2.79l-1.69,5.45 c0,0-5.75-2.25-8.27-3.72C45.11,50.7,40.7,47,40.7,47L41.92,41.42z"/>
<path d="M112.55,50.4c0.28-1.1,0.5-2.04,0.64-2.79c1.06-5.39,1.42-14.37,1.42-14.37l12.73,8.52l0.81-0.34l1.22,5.58 c0,0-4.4,3.7-6.85,5.13c-2.52,1.48-8.28,3.72-8.28,3.72L112.55,50.4z"/>
</g>
</g>
<g id="Boots"><g id="Gunslinger_Boots" class="option" style="display: inherit;">
<g id="Main_Gunslinger-Boot" fill="rgb(48, 47, 47)">
<path d="M62.27,227.49c-0.04,0.18-0.66,3.1-3.88,3.9c-1.07,0.27-2.91-0.3-4.07-0.89c-1.58-0.8-3.24-1.43-4.94-1.93 l-0.05,0.07c-0.03,0.04-0.05,0.07-0.08,0.11c-0.53,0.74-1.1,1.43-1.72,2.05l-0.05,0.05l-0.03,0.03 c-0.06,0.06-0.12,0.12-0.19,0.18c-0.36,0.35-0.73,0.67-1.12,0.97l-0.11,0.08l-0.09,0.07c-0.03,0.02-0.05,0.04-0.08,0.06 c-0.06,0.04-0.12,0.09-0.18,0.13c-0.8,0.56-1.87,1.42-2.94,1.26c-1-0.15-2.13-0.55-2.97-0.95c-0.71-0.34-1.44-0.79-1.94-1.27 c-0.14-0.11-0.27-0.24-0.36-0.4c-2.33,0.91-4.87,1.25-6.11,3.84c-0.27,0.56-0.5,1.23-0.44,1.86c0.07,0.81,0.96,0.91,1.65,1.09 c1.72,0.46,3.21,0.81,5.2,1.22c2.27,0.47,4.32,0.75,6.62,0.66c1.72-0.07,3.17-0.16,4.67-1.08c0.6-0.37,1.22-0.74,1.74-1.23 c1.17-1.08,1.91-2.21,3.42-2.86c1.09-0.48,2.21-0.87,3.37-1.16c1.64-0.41,3.4-0.69,4.26-2.31 C62.53,229.81,62.45,228.67,62.27,227.49L62.27,227.49"/>
<path d="M107.8,227.49c0.04,0.18,0.66,3.1,3.88,3.9c1.08,0.27,2.91-0.3,4.07-0.89c1.58-0.8,3.25-1.43,4.94-1.93 l0.05,0.07c0.03,0.04,0.05,0.07,0.08,0.11c0.53,0.74,1.1,1.43,1.72,2.05l0.05,0.05l0.03,0.03c0.06,0.06,0.12,0.12,0.19,0.18 c0.36,0.35,0.73,0.67,1.12,0.97l0.11,0.08l0.09,0.07c0.03,0.02,0.05,0.04,0.08,0.06c0.06,0.04,0.12,0.09,0.18,0.13 c0.8,0.56,1.87,1.42,2.94,1.26c1-0.15,2.13-0.55,2.97-0.95c0.71-0.34,1.44-0.79,1.94-1.27c0.14-0.11,0.27-0.24,0.36-0.4 c2.33,0.91,4.87,1.25,6.11,3.84c0.27,0.56,0.5,1.23,0.44,1.86c-0.07,0.81-0.96,0.91-1.65,1.09c-1.72,0.46-3.21,0.81-5.2,1.22 c-2.27,0.47-4.32,0.75-6.62,0.66c-1.72-0.07-3.17-0.16-4.67-1.08c-0.6-0.37-1.22-0.74-1.74-1.23c-1.17-1.08-1.91-2.21-3.42-2.86 c-1.09-0.48-2.21-0.87-3.37-1.16c-1.64-0.41-3.4-0.69-4.26-2.31C107.55,229.81,107.62,228.67,107.8,227.49L107.8,227.49"/>
</g>
<g id="Bottom_Gunslinger-Boot" fill="rgb(100, 86, 58)">
<path d="M62.33,229.7c-0.07,0.44-0.22,0.89-0.46,1.35c-0.86,1.62-2.62,1.9-4.26,2.31c-1.16,0.29-2.28,0.68-3.37,1.16 c-1.51,0.65-2.26,1.78-3.42,2.86c-0.52,0.48-1.14,0.86-1.74,1.23c-1.5,0.92-2.96,1.01-4.67,1.08c-2.3,0.1-4.35-0.18-6.62-0.66 c-1.99-0.41-3.48-0.76-5.2-1.22c-0.55-0.15-1.23-0.24-1.52-0.69l0,0l-0.33,0.73l-0.19,1.49c0,0,1.85,0.99,3.81,1.43 c1.97,0.44,5.93,1.05,5.93,1.05l0.27-0.65l0.89,0.19l-0.04,0.64l2.16,0.12l0.46-0.62l0.72,0.02l-0.11,0.55 c0,0,1.34-0.02,2.08-0.46c0.14-0.21,0.41-0.55,0.41-0.55l0.51-0.28l-0.07,0.52l1.86-0.67l0.09-0.72l0.53-0.31l0.02,0.52 l1.32-1.02l0.14-0.63l3.31-2.32l0.51,1.21l2.32-0.5l0.08-0.5l0.59-0.24l0.41,0.38l1.56-0.64l0.03-0.46l0.5-0.18l0.06,0.34 l1.48-1.01l0.28-2.02l0.06-2.2L62.33,229.7L62.33,229.7"/>
<path d="M107.74,229.7c0.07,0.44,0.22,0.89,0.46,1.35c0.86,1.62,2.62,1.9,4.26,2.31c1.16,0.29,2.28,0.68,3.37,1.16 c1.51,0.65,2.26,1.78,3.42,2.86c0.52,0.48,1.14,0.86,1.74,1.23c1.5,0.92,2.96,1.01,4.67,1.08c2.3,0.1,4.35-0.18,6.62-0.66 c1.99-0.41,3.48-0.76,5.2-1.22c0.55-0.15,1.23-0.24,1.52-0.69l0,0l0.33,0.73l0.19,1.49c0,0-1.85,0.99-3.81,1.43 c-1.97,0.44-5.93,1.05-5.93,1.05l-0.27-0.65l-0.89,0.19l0.04,0.64l-2.16,0.12l-0.46-0.62l-0.72,0.02l0.11,0.55 c0,0-1.34-0.02-2.08-0.46c-0.14-0.21-0.41-0.55-0.41-0.55l-0.51-0.28l0.07,0.52l-1.86-0.67l-0.09-0.72l-0.53-0.31l-0.02,0.52 l-1.32-1.02l-0.14-0.63l-3.31-2.32l-0.51,1.21l-2.32-0.5l-0.08-0.5l-0.59-0.24l-0.41,0.38l-1.56-0.64l-0.03-0.46l-0.5-0.18 l-0.06,0.34l-1.48-1.01l-0.28-2.02l-0.06-2.2L107.74,229.7L107.74,229.7"/>
</g>
<g id="Top_Gunslinger-Boot" fill="rgb(34, 34, 34)">
<path d="M49.4,228.54c1.98-2.82,3.31-6.29,3.78-9.35l0,0l-0.55-0.05l-0.02,0l-0.07-0.01l-0.18-0.02l-0.28-0.03 l-0.12-0.02c-0.32-0.04-0.64-0.08-0.95-0.13l-0.49-0.09l-0.1-0.02l-0.03-0.01l-0.08-0.02l-0.34-0.08l-0.3-0.08l-0.05-0.01 c-1.05-0.26-0.91-0.48-0.91-0.48c-0.29,1.35-0.92,2.78-1.49,4.04c-0.89,1.98-2.73,3.69-4.25,5.2c-1.05,1.04-2.57,2.02-3.82,2.82 c-0.53,0.34-1.1,0.6-1.68,0.82c0.44,0.61,1.4,1.24,2.3,1.67c0.84,0.4,1.97,0.8,2.97,0.95c1.07,0.15,2.14-0.7,2.94-1.26 c1.39-0.98,2.63-2.3,3.69-3.8L49.4,228.54"/>
<path d="M120.67,228.54c-1.97-2.82-3.31-6.29-3.78-9.35l0,0l0.55-0.05l0.02,0l0.07-0.01l0.18-0.02l0.28-0.03 l0.11-0.02c0.32-0.04,0.64-0.08,0.95-0.13l0.49-0.09l0.1-0.02l0.04-0.01l0.08-0.02l0.34-0.08l0.3-0.08l0.05-0.01 c1.05-0.26,0.91-0.48,0.91-0.48c0.29,1.35,0.92,2.78,1.49,4.04c0.89,1.98,2.73,3.69,4.25,5.2c1.05,1.04,2.57,2.02,3.82,2.82 c0.53,0.34,1.1,0.6,1.68,0.82c-0.44,0.61-1.4,1.24-2.3,1.67c-0.84,0.4-1.97,0.8-2.97,0.95c-1.07,0.15-2.14-0.7-2.94-1.26 c-1.39-0.98-2.63-2.3-3.68-3.8L120.67,228.54"/>
</g>
<g id="Side_Gunslinger-Boot" fill="rgb(34, 34, 34)">
<path d="M49.38,228.58c1.7,0.49,3.36,1.12,4.94,1.93c1.16,0.59,3,1.15,4.07,0.89c3.33-0.83,3.88-3.91,3.88-3.91 c-0.1-0.67-0.84-3.25-1.06-3.94c-0.48-1.54-0.43-5.45-0.55-5.39c-2.67,1.41-6.12,1.16-7.48,1.05l0,0 C52.71,222.26,51.37,225.74,49.38,228.58"/>
<path d="M120.69,228.58c-1.7,0.49-3.36,1.12-4.94,1.93c-1.16,0.59-2.99,1.15-4.07,0.89 c-3.32-0.83-3.88-3.91-3.88-3.91c0.1-0.67,0.84-3.25,1.06-3.94c0.48-1.54,0.43-5.45,0.55-5.39c2.67,1.41,6.12,1.16,7.48,1.05l0,0 C117.36,222.26,118.71,225.74,120.69,228.58"/>
</g>
</g></g>
<g id="Gloves">
<g id="Left-Glove">
<g id="Fingerless_Left_Glove" class="option" style="display: inherit;">
<g id="Fingers_Fingerless_Left_Glove" fill="rgb(64, 37, 14)">
<path d="M133.16,120.46c-0.46-0.03-0.9-0.01-1.36,0.09c-0.31,0.07-0.62,0.16-0.9,0.34 c-0.85,0.55-0.62,1.76,0.14,2.21c0.89,0.53,2.29,0.01,2.69-1.02C133.9,121.66,133.39,120.86,133.16,120.46"/>
<path d="M131.6,121.51c-0.46-0.02-0.9-0.02-1.36,0.09c-0.31,0.07-0.62,0.16-0.9,0.34 c-0.85,0.55-0.62,1.76,0.14,2.21c0.89,0.53,2.29,0.01,2.69-1.02C132.34,122.71,131.83,121.91,131.6,121.51"/>
<path d="M130.51,122.89c-0.46,0.05-1.04,0.16-1.48,0.34c-0.3,0.12-0.59,0.25-0.85,0.47 c-0.78,0.68-0.4,1.83,0.4,2.17c0.94,0.39,2.27-0.34,2.55-1.42C131.24,124.01,130.51,122.89,130.51,122.89z"/>
<path d="M125.73,116.29c-0.26,1.3-0.47,2.01-0.47,2.01s-1.18,2.71-0.98,3.34c0.21,0.62,1.25,1.18,1.84,0.85 c0.74-0.41,1.66-2.32,2.24-3.67c0.21-0.5,0.41-1.07,0.58-1.59C126.58,117.61,125.73,116.29,125.73,116.29L125.73,116.29z"/>
<path d="M130.61,122.69c-0.17,0.33-0.37,0.68-0.59,1.05c-1.17,1.99-2.97,3.7-1.78,5.22 c1.11,1.42,3.63-2.31,3.63-2.31l1.17-1.72C131.1,124.42,130.62,122.7,130.61,122.69z"/>
</g>
<path id="Glove_Fingerless_Left_Glove" d="M133.04,124.93l1.3-1.91c0,0,2.84-5.26,2.98-6.28 c0.11-0.78,0.01-3.38,0.01-3.38l-0.89-10.08l-4.5,0.42l-3.7,1.36l-0.28,1.72c0,0-1.34,2.09-1.69,3.59 c-0.25,1.06-0.11,3.58-0.43,5.28c-0.04,0.22-0.08,0.43-0.12,0.63l0,0c0,0,0.85,1.33,3.22,0.93c0.3-0.93,0.5-1.73,0.5-1.73 s0.81,0.32,1.23,0.68c1.38,1.2,0.78,4.82,0.78,4.82s-0.32,0.72-0.84,1.7C130.62,122.7,131.1,124.42,133.04,124.93z" fill="rgb(12, 12, 12)"/>
</g></g>
<g id="Right-Glove">
<g id="Fingerless_Right_Glove" class="option" style="display: inherit;">
<g id="Fingers_Fingerless_Right_Glove" fill="rgb(64, 37, 14)">
<path d="M36.86,120.46c0.46-0.03,0.9-0.01,1.36,0.09c0.31,0.07,0.62,0.16,0.9,0.34c0.85,0.55,0.62,1.76-0.14,2.21 c-0.89,0.53-2.29,0.01-2.69-1.02C36.12,121.66,36.64,120.86,36.86,120.46"/>
<path d="M38.42,121.51c0.46-0.02,0.9-0.02,1.36,0.09c0.31,0.07,0.62,0.16,0.9,0.34c0.85,0.55,0.62,1.76-0.14,2.21 c-0.89,0.53-2.29,0.01-2.69-1.02C37.68,122.71,38.2,121.91,38.42,121.51"/>
<path d="M39.52,122.89c0.46,0.05,1.04,0.16,1.48,0.34c0.3,0.12,0.6,0.25,0.85,0.47c0.78,0.68,0.4,1.83-0.4,2.17 c-0.94,0.39-2.27-0.34-2.55-1.42C38.78,124.01,39.52,122.89,39.52,122.89z"/>
<path d="M44.29,116.29c0.26,1.3,0.47,2.01,0.47,2.01s1.18,2.71,0.98,3.34c-0.21,0.62-1.24,1.18-1.84,0.85 c-0.74-0.41-1.66-2.32-2.24-3.67c-0.21-0.5-0.41-1.07-0.58-1.59C43.45,117.61,44.29,116.29,44.29,116.29L44.29,116.29z"/>
<path d="M39.41,122.69c0.17,0.33,0.37,0.68,0.59,1.05c1.17,1.99,2.97,3.7,1.78,5.22c-1.11,1.42-3.63-2.31-3.63-2.31 l-1.17-1.72C38.92,124.42,39.41,122.7,39.41,122.69z"/>
</g>
<path id="Glove_Fingerless_Right_Glove" d="M36.98,124.93l-1.3-1.91c0,0-2.84-5.26-2.98-6.28 c-0.11-0.78-0.01-3.38-0.01-3.38l0.89-10.08l4.5,0.42l3.7,1.36l0.28,1.72c0,0,1.34,2.09,1.69,3.59c0.25,1.06,0.11,3.58,0.43,5.28 c0.04,0.22,0.08,0.43,0.12,0.63l0,0c0,0-0.85,1.33-3.22,0.93c-0.3-0.93-0.5-1.73-0.5-1.73s-0.81,0.32-1.23,0.68 c-1.38,1.2-0.78,4.82-0.78,4.82s0.32,0.72,0.84,1.7C39.41,122.7,38.92,124.42,36.98,124.93z" fill="rgb(12, 12, 12)"/>
</g></g>
</g>
<g id="Biceps">
<g id="Left-Biceps">
<g id="None_Biceps_Left" class="option" style="display: inherit;">
</g></g>
<g id="Right-Biceps">
<g id="None_Biceps_Right" class="option" style="display: inherit;">
</g></g>
</g>
<g id="BicepsDecals" mask="url(#BicepsMask)">
</g>
<path id="Vest" d="M91.61,82.96c-4.3,0.88-8.84,0.88-13.14,0c-4.33-0.88-12.83-5.29-12.83-5.29s-7.42-23.26-8.75-30.06 c-1.06-5.39-1.42-14.37-1.42-14.37l-12.73,8.52l-2.71-1.15c0,0,7.62-16.73,12.62-21.57c4.53-4.39,17.42-7.5,17.42-7.5 s5.68,6.2,14.97,6.25c8.84,0.04,14.97-6.25,14.97-6.25s12.89,3.12,17.42,7.5c5.01,4.85,12.62,21.57,12.62,21.57l-2.71,1.15 l-12.73-8.52c0,0-0.36,8.98-1.42,14.37c-1.33,6.79-8.76,30.06-8.76,30.06S95.93,82.08,91.61,82.96z" fill="rgb(118, 101, 87)"/>
<g id="SuitDecals" mask="url(#SuitMask)">
</g>
<g class="swappable" id="Chest"><g id="Chest_Galaxy">
<g id="Abdomen_Galaxy">
<path id="Abdomen-Plate_Galaxy" d="M78.22,70.87l-2.02,1.46l-10.28-1.46l-0.75-5.65l4.87-0.1l2.95-4.79l1.34-4.41 l10.66-9.7L85,46.24l0.02-0.02l10.66,9.7l1.34,4.41l2.95,4.79l4.87,0.1l-0.75,5.65L93.8,72.33l-2.02-1.46H78.22z" fill="rgb(78, 77, 77)"/>
<path id="Trauma-Plate_Abdomen_Galaxy" class="toggle" style="" d="M84.98,48.45l-9.21,8.38l-1.27,4.18l-3.53,5.74l-3.92,0.08 l0.34,2.59l8.37,1.19l1.91-1.38h14.64l1.91,1.38l8.37-1.19l0.34-2.59l-3.92-0.08l-3.53-5.74l-1.27-4.18l-9.21-8.38L85,48.47 L84.98,48.45z" fill="rgb(85, 114, 92)"/>
</g>
<g id="Full-Chest_Galaxy">
<path id="Chest-Plate_Galaxy" d="M80.72,32.14l-0.02,9.88l3.12,3.14L72.88,55.48l-1.42,4.76l-2.32,3.79h-4.01 l-1.95-2.83L60.7,47.37l-3.63-5.65l4.61-14.81l5.31-0.67l0.75-3.27l5.69-0.69l1.8,2.92h19.57l1.8-2.92l5.69,0.69l0.75,3.27 l5.31,0.67l4.61,14.81l-3.63,5.65l-2.48,13.84l-1.95,2.83h-4.01l-2.32-3.79l-1.42-4.76L86.18,45.16l3.12-3.14l-0.02-9.88 L85,28.83L80.72,32.14z" fill="rgb(78, 81, 79)"/>
<path id="Trauma-Plating_Left-Chest_Galaxy" class="toggle" style="" d="M95.71,26.84H85.12l5.81,4.5l0.02,11.36l-2.42,2.42 l10.04,9.47l1.49,4.98l1.73,2.82H104l1.25-1.82l2.47-13.81l3.4-5.29l-4.06-13.06l-5.4-0.68l-0.75-3.27l-3.48-0.42L95.71,26.84z" fill="rgb(85, 114, 92)"/>
<path id="Trauma-Plating_Right-Chest_Galaxy" class="toggle" style="" d="M72.56,24.04l-3.48,0.42l-0.75,3.27l-5.4,0.68 l-4.07,13.06l3.4,5.29l2.47,13.81L66,62.39h2.21l1.73-2.82l1.49-4.98l10.04-9.47l-2.42-2.42l0.02-11.36l5.81-4.5H74.29 L72.56,24.04z" fill="rgb(85, 114, 92)"/>
<g id="Accents_Chest-Plate_Galaxy" class="toggle" style="display: none;" fill="rgb(255, 255, 255)"/>
</g>
<g id="Iron-Heart_Galaxy">
<path id="Heart_Galaxy" d="M82.38,41.74v-8.89L85,30.8l2.62,2.05v8.89L85,44.38L82.38,41.74z" fill="rgb(149, 149, 149)"/><rect id="Center_Heart_Galaxy" class="option" x="84.09" y="34.21" width="1.82" height="6.09" fill="rgb(89, 89, 89)" style="display: inherit;"/>
</g>
<g id="Neck-Armor_Galaxy">
<g id="Neck-Plate_Galaxy" fill="rgb(49, 44, 44)">
<path d="M82.81,24.23l-7.2,0.12l-1.77-2.89l-6.87,0.81l-0.68,2.99l-4.4,0.54l-3.24-11.12l11.25-3.35 c0,0,1.49,2.51,2.57,3.39c1.11,0.91,2.59,1.97,3.98,2.57c1.52,0.66,3.37,1.1,5.13,1.39c0.18,0.03,0.37,0.06,0.57,0.08 L82.81,24.23z"/>
<path d="M87.19,24.23l7.2,0.12l1.77-2.89l6.87,0.81l0.68,2.99l4.4,0.54l3.25-11.12l-11.25-3.35 c0,0-1.49,2.51-2.57,3.39c-1.11,0.91-2.59,1.97-3.98,2.57c-1.52,0.66-3.37,1.1-5.13,1.39c-0.18,0.03-0.37,0.06-0.57,0.08 L87.19,24.23z"/>
</g>
<g id="Trauma-Plates_Neck_Galaxy" class="toggle" style="" fill="rgb(85, 114, 92)">
<path d="M100.82,13.27c-0.61,0.91-1.51,2.14-2.24,2.73c-1.21,0.99-2.84,2.15-4.36,2.81 c-1.45,0.63-3.18,1.08-4.87,1.39l-0.3,2.42l4.42,0.07l1.83-2.99l9.08,1.08l0.68,3l1.85,0.23l2.4-8.21L100.82,13.27z"/>
<path d="M69.18,13.27l-8.49,2.53l2.4,8.21l1.85-0.23l0.68-3l9.08-1.08l1.83,2.99l4.42-0.07l-0.3-2.42 c-1.7-0.31-3.42-0.76-4.87-1.39c-1.52-0.66-3.15-1.82-4.36-2.81C70.69,15.4,69.79,14.17,69.18,13.27z"/>
</g>
</g>
</g></g>
<g id="ChestDecals" mask="url(#ChestMask)">
</g>
<g id="Chest-Attachments"><g id="Bandoleer_Accessories_Chest" class="option" style="display: inherit;">
<g id="Strap_Bandoleer_Accessories_Chest" fill="rgb(71, 50, 31)">
<path d="M113.84,15.17L107,11.85L69.01,80.32l6.86,3.76L113.84,15.17"/>
<path d="M111.97,13.92l-2.6-1.21l-8.66,15.61l2.51,1.37L111.97,13.92"/>
<path d="M99.7,36.44l-2.86-1.57l-13.31,24l2.87,1.57L99.7,36.44"/>
<path d="M99.98,37.35l-4.07-2.23l-1.33,2.4l4.07,2.23L99.98,37.35"/>
<path d="M98.36,40.26l-4.07-2.23l-1.33,2.41l4.07,2.23L98.36,40.26"/>
<path d="M96.75,43.17l-4.07-2.23l-1.33,2.4l4.07,2.23L96.75,43.17"/>
<path d="M95.13,46.09l-4.07-2.23l-1.33,2.4l4.07,2.23L95.13,46.09"/>
<path d="M93.52,49l-4.07-2.23l-1.33,2.4l4.07,2.23L93.52,49"/>
<path d="M90.28,54.82l-4.07-2.23L84.88,55l4.07,2.23L90.28,54.82"/>
<path d="M91.9,51.91l-4.07-2.23l-1.33,2.4l4.07,2.23L91.9,51.91"/>
<path d="M88.67,57.74l-4.07-2.23l-1.33,2.4l4.07,2.23L88.67,57.74"/>
</g>
<g id="Ammo_Bandoleer_Accessories_Chest" fill="rgb(138, 124, 50)">
<g>
<g>
<path d="M99.83,37.6l1.67,0.91c0.18,0.1,0.24,0.32,0.14,0.5c-0.19,0.34-0.49,0.89-0.68,1.23 c-0.1,0.18-0.32,0.24-0.5,0.14l-1.67-0.91L99.83,37.6z"/>
<path d="M101.06,38.27l-0.14-0.08l-1.04,1.87l0.14,0.08L101.06,38.27z"/>
<path d="M100.77,38.11l-0.14-0.08l-1.04,1.87l0.14,0.08L100.77,38.11z"/>
</g>
<g>
<path d="M95.77,35.37l-1.04,1.87l-1.67-0.91c-0.18-0.1-0.24-0.32-0.14-0.5c0.19-0.34,0.49-0.89,0.68-1.23 c0.1-0.18,0.32-0.24,0.5-0.14L95.77,35.37z"/>
<path d="M94.51,34.68l-0.14-0.08l-1.04,1.87l0.14,0.08L94.51,34.68z"/>
</g>
</g>
<g>
<g>
<path d="M96.6,43.45l1.67,0.91c0.18,0.1,0.24,0.32,0.14,0.5c-0.19,0.34-0.49,0.89-0.68,1.23 c-0.1,0.18-0.32,0.24-0.5,0.14l-1.67-0.91L96.6,43.45z"/>
<path d="M97.82,44.12l-0.14-0.08l-1.04,1.87l0.14,0.08L97.82,44.12z"/>
<path d="M97.53,43.96l-0.14-0.08l-1.04,1.87l0.14,0.08L97.53,43.96z"/>
</g>
<g>
<path d="M92.53,41.22l-1.04,1.87l-1.67-0.91c-0.18-0.1-0.24-0.32-0.14-0.5c0.19-0.34,0.49-0.89,0.68-1.23 c0.1-0.18,0.32-0.24,0.5-0.14L92.53,41.22z"/>
<path d="M91.27,40.53l-0.14-0.08l-1.04,1.87l0.14,0.08L91.27,40.53z"/>
</g>
</g>
<g>
<g>
<path d="M94.99,46.34l1.67,0.91c0.18,0.1,0.24,0.32,0.14,0.5c-0.19,0.34-0.49,0.89-0.68,1.23 c-0.1,0.18-0.32,0.24-0.5,0.14l-1.67-0.91L94.99,46.34z"/>
<path d="M96.21,47.02l-0.14-0.08l-1.04,1.87l0.14,0.08L96.21,47.02z"/>
<path d="M95.92,46.86l-0.14-0.08l-1.04,1.87l0.14,0.08L95.92,46.86z"/>
</g>
<g>
<path d="M90.92,44.11l-1.04,1.87l-1.67-0.91c-0.18-0.1-0.24-0.32-0.14-0.5c0.19-0.34,0.49-0.89,0.68-1.23 c0.1-0.18,0.32-0.24,0.5-0.14L90.92,44.11z"/>
<path d="M89.66,43.42l-0.14-0.08l-1.04,1.87l0.14,0.08L89.66,43.42z"/>
</g>
</g>
<g>
<g>
<path d="M93.36,49.27l1.67,0.91c0.18,0.1,0.24,0.32,0.14,0.5c-0.19,0.34-0.49,0.89-0.68,1.23 c-0.1,0.18-0.32,0.24-0.5,0.14l-1.67-0.91L93.36,49.27z"/>
<path d="M94.59,49.95l-0.14-0.08l-1.04,1.87l0.14,0.08L94.59,49.95z"/>
<path d="M94.3,49.79l-0.14-0.08l-1.04,1.87l0.14,0.08L94.3,49.79z"/>
</g>
<g>
<path d="M89.3,47.04l-1.04,1.87L86.59,48c-0.18-0.1-0.24-0.32-0.15-0.5c0.19-0.34,0.49-0.89,0.68-1.23 c0.1-0.18,0.32-0.24,0.5-0.14L89.3,47.04z"/>
<path d="M88.04,46.35l-0.14-0.08l-1.04,1.87L87,48.22L88.04,46.35z"/>
</g>
</g>
</g>
<g id="Buckles_Bandoleer_Accessories_Chest" fill="rgb(105, 105, 105)">
<g>
<path d="M104.43,28.05l-2.99-1.64l-1.69,3.05l2.99,1.64L104.43,28.05z"/>
<path d="M103.67,28.57l-2.26-1.24l-1.69,3.05l2.26,1.24L103.67,28.57z"/>
</g>
<path d="M104.44,24.49l-1.93-1.05l1.67-3.03l3.9,2.13l-1.67,3.03L104.44,24.49l0.38-0.68l1.1,0.6l0.92-1.67 l-2.15-1.17l-0.92,1.67l1.05,0.58"/>
</g>
</g></g>
<g id="Collar"><g id="Cloth-Wrap-Left_Collar" class="option" style="display: inherit;">
<g id="Main_Cloth-Wrap-Left_Collar" fill="rgb(171, 162, 108)">
<path d="M74.59,21.42c-4.65-1.45-5.5-3.78-5.78-6.13c-0.11-0.96,1.26-3.46-0.16-4.1c-1.61-0.73-5.4,0.41-6.97,0.75 c-1.16,0.25-2.19,1.42-3.38,1.43c-2.74,0.03-4.91,3-5.16,4.36c-0.35,1.9,3.04,0.56,4.62,2c3.96,3.61,5.34,8.5,13.67,9.83 c3.82,0.61,7.61-0.25,11.16-1.04c9.17-2.03,14.17-3.78,20.06-8.31c2.58-1.98,6.47-3.59,6.37-6.24c0-0.11-1.88-1.22-2.06-1.27 c-1.65-0.41-3.06-1.09-4.88-1.12c-1.09-0.02-0.91,0.91-0.99,1.34c-0.31,1.62-1.79,2.84-3.66,4.05 C92.53,20.18,81.33,21.17,74.59,21.42z"/>
<path d="M74.59,21.42c-1.23,0.05-2.31,0.24-3.25,0.29c-4.26,0.26-5.78-0.77-6.6-2.66"/>
<path d="M61.36,11.99c-1.23,1.99-1.07,4.34-0.09,5.89"/>
<path d="M97.07,17.68c-3.19,4.34-7.92,5.71-13.09,6.23"/>
<path d="M105.7,12.34c-0.19,1.1-0.85,1.51-1.66,2.24c-0.47,0.43-1.04,0.73-1.41,1.25c-0.14,0.19-0.21,0.41-0.29,0.62 "/>
</g>
<path id="Buckle_Cloth-Wrap-Left_Collar" d="M95.98,16.86l2.71-1.93l4.71,6.53l-2.71,1.93L95.98,16.86z" fill="rgb(49, 49, 49)"/>
</g></g>
<g id="CollarDecals" mask="url(#CollarMask)">
</g>
<g id="Helmets" class="swappable" transform="translate(45,-52)"><g id="Helmet_Stalker-Medium">
<g id="Left-Earcap_Stalker-Medium" class="toggle"><g id="Range-Finder_Left_Stalker-Medium" class="option" style="display: inherit;">
<path id="Shaft_Left_Range-Finder_Stalker-Medium" d="M57.92,9.72l-1.08,0.07l1.61,26.85h1.1L57.92,9.72z" fill="rgb(119, 119, 119)"/>
<path id="Finder_Left_Range-Finder_Stalker-Medium" d="M49.59,7.55h5.96l-0.24-0.74l-6.96-0.65L49.59,7.55" fill="rgb(130, 127, 127)"/>
<g id="Cover_Left_Range-Finder_Stalker-Medium" fill="rgb(98, 97, 97)">
<path d="M58.77,8.59l-2.83,0.19l-0.63-1.96l-7.48-0.7l-0.15-0.76l10.68-0.4l1.04,1.32L58.77,8.59"/>
<path d="M58.01,8.64l-1.41,0.09l0.07,1.07l1.41-0.09L58.01,8.64"/>
</g>
</g>
<g id="Ear-Cap_Left_Stalker-Medium" fill="rgb(81, 108, 87)">
<path d="M57.56,30.96l2.4,1.65l0.94,10.41l-2.07,2.06L57.56,30.96z"/>
<path d="M58.6,37.7c-0.01-0.11,0.07-0.21,0.18-0.22l0.97-0.09c0.11-0.01,0.21,0.07,0.22,0.18 c0.01,0.11-0.07,0.21-0.18,0.22l-0.97,0.09C58.71,37.89,58.61,37.81,58.6,37.7z"/>
</g>
</g>
<g id="Right-Earcap_Stalker-Medium" class="toggle"><g id="Main-Antenna_Right_Stalker-Medium" class="option" style="display: inherit;">
<path id="Shaft_Main-Antenna_Right_Stalker-Medium" d="M19.93,28.7l0.26-25.04c0,0-0.01-0.66,0.36-0.66 c0.37,0,0.36,0.66,0.36,0.66l0.26,25.04H19.93z" fill="rgb(92, 89, 89)"/>
<g id="Base_Main-Antenna_Right_Stalker-Medium" fill="rgb(115, 115, 115)">
<path d="M22.35,32.65h-3.59c0,0-0.77,8.43,1.77,8.43S22.35,32.65,22.35,32.65z"/>
<rect x="19.29" y="32.23" width="2.51" height="0.41"/>
<path d="M19.1,32.23l0.61-3.53l0.84,0.01l0.84-0.01L22,32.23H19.1z"/>
<rect x="20.35" y="29.31" width="0.4" height="2.47"/>
<path d="M21.48,29.22l-0.4,0.06l0.39,2.44l0.4-0.06L21.48,29.22z"/>
<path d="M19.62,29.22l0.4,0.06l-0.39,2.44l-0.4-0.06L19.62,29.22z"/>
</g>
</g><g id="Ear-Cap_Right_Stalker-Medium" fill="rgb(81, 108, 87)">
<path d="M22.44,30.96l-2.4,1.65L19.1,43.02l2.07,2.06L22.44,30.96z"/>
<path d="M21.4,37.7c0.01-0.11-0.07-0.21-0.18-0.22l-0.97-0.09c-0.11-0.01-0.21,0.07-0.22,0.18 c-0.01,0.11,0.07,0.21,0.18,0.22l0.97,0.09C21.29,37.89,21.39,37.81,21.4,37.7z"/>
</g>
</g>
<g id="Helmet_Pieces_Stalker-Medium">
<g id="Dome-2_Stalker-Medium" fill="rgb(71, 70, 70)">
<path d="M33.06,20.32l-0.02-0.06c0,0-6.45,1.52-8.89,7.94c-0.43,1.13-0.81,3.23-0.97,4.19 c0.12-0.19,0.23-0.37,0.34-0.5c0.46-0.6,1.2-1.48,1.89-2.15c0.98-0.95,2.81-2.27,4-3.57c1.18-1.29,2.48-3.19,3.1-4.23 C32.78,21.49,32.95,20.79,33.06,20.32z"/>
<path d="M47.08,20.32l0.02-0.06c0,0,6.45,1.52,8.89,7.94c0.43,1.13,0.81,3.23,0.97,4.19 c-0.12-0.19-0.24-0.37-0.34-0.5c-0.46-0.6-1.21-1.48-1.89-2.15c-0.98-0.95-2.81-2.27-3.99-3.57c-1.18-1.29-2.48-3.19-3.1-4.23 C47.36,21.49,47.18,20.79,47.08,20.32z"/>
<g>
<path d="M56.86,29.69l0.84,0.86l1.35,14.93l-0.67,1L56.86,29.69z"/>
<path d="M56.05,28.55l0.8,0.86l1.56,17.34l-0.63,0.99L56.05,28.55z"/>
</g>
<g>
<path d="M23.25,29.69l-0.84,0.86l-1.35,14.93l0.67,1L23.25,29.69z"/>
<path d="M24.06,28.55l-0.8,0.86l-1.56,17.34l0.63,0.99L24.06,28.55z"/>
</g>
</g>
<g id="Dome-1_Stalker-Medium" fill="rgb(100, 100, 100)">
<g>
<path d="M33.07,20.22c-0.1,0.47-0.28,1.24-0.57,1.72c-0.06,0.1-0.13,0.21-0.2,0.33c-0.39,0.08-0.84,0.2-1.22,0.37 c-0.83,0.38-2.06,1.23-2.06,1.23v-1.85c0,0,0.97-0.54,1.94-1C31.61,20.71,32.54,20.39,33.07,20.22z"/>
<path d="M32.36,22.16c-0.66,1.07-1.87,2.8-2.97,4.01c-0.12,0.13-0.25,0.26-0.38,0.4v-2.69c0,0,0.87-0.76,1.92-1.18 C31.43,22.5,31.95,22.31,32.36,22.16z"/>
</g>
<g>
<path d="M47.08,20.22c0.1,0.47,0.28,1.24,0.57,1.72c0.06,0.1,0.13,0.21,0.2,0.33c0.39,0.08,0.85,0.2,1.22,0.37 c0.83,0.38,2.06,1.23,2.06,1.23v-1.85c0,0-0.97-0.54-1.94-1C48.53,20.71,47.6,20.39,47.08,20.22z"/>
<path d="M47.79,22.16c0.66,1.07,1.87,2.8,2.97,4.01c0.12,0.13,0.25,0.26,0.38,0.4v-2.69c0,0-0.87-0.76-1.92-1.18 C48.72,22.5,48.19,22.31,47.79,22.16z"/>
</g>
</g>
<g id="Face-2_Stalker-Medium" fill="rgb(85, 114, 92)">
<path d="M23.68,51.12l-0.13-3.41l-2.31,3.27c0,0-0.12,2.86,0.29,4.04c0.4,1.17,1.31,2.13,2.15,3.04 c0.95,1.03,12.12,8.49,12.12,8.49l-1.92-8.26L32.03,59l-1.61-0.79l-2.06-1.61l-2.16-2.12l-1.7-1.93l-0.82-1.17V51.12z"/>
<path d="M56.45,51.12l0.13-3.41l2.31,3.27c0,0,0.12,2.86-0.29,4.04c-0.4,1.17-1.31,2.13-2.15,3.04 c-0.95,1.03-12.12,8.49-12.12,8.49l1.92-8.26L48.1,59l1.61-0.79l2.06-1.61l2.16-2.12l1.7-1.93l0.82-1.17V51.12z"/>
</g>
<g id="Face-1_Stalker-Medium" fill="rgb(100, 98, 98)">
<g>
<path d="M23.68,51.12v0.25l0.82,1.17l1.7,1.93l2.16,2.12l2.06,1.61L32.03,59l1.85-0.72l-0.25-1.09l-3.58-8.74 l-4.56-3.47l-1.93,2.73L23.68,51.12z"/>
<g>
<path d="M29.89,55.5c-0.07-0.09-0.06-0.22,0.04-0.29l1.31-1.03c0.09-0.07,0.22-0.06,0.29,0.03 c0.07,0.09,0.06,0.22-0.03,0.29l-1.31,1.03C30.09,55.6,29.96,55.59,29.89,55.5"/>
<path d="M30.69,56.84c-0.07-0.09-0.06-0.22,0.03-0.29l1.11-0.87c0.09-0.07,0.22-0.06,0.29,0.04 c0.07,0.09,0.06,0.22-0.03,0.29l-1.11,0.87C30.89,56.95,30.76,56.93,30.69,56.84"/>
</g>
</g>
<g>
<path d="M56.45,51.12v0.25l-0.82,1.17l-1.7,1.93l-2.16,2.12l-2.06,1.61L48.1,59l-1.85-0.72l0.25-1.09l3.58-8.74 l4.56-3.47l1.93,2.73L56.45,51.12z"/>
<g>
<path d="M50.24,55.5c0.07-0.09,0.06-0.22-0.04-0.29l-1.31-1.03c-0.09-0.07-0.22-0.06-0.29,0.03 c-0.07,0.09-0.06,0.22,0.03,0.29l1.31,1.03C50.04,55.6,50.17,55.59,50.24,55.5"/>
<path d="M49.44,56.84c0.07-0.09,0.06-0.22-0.03-0.29l-1.11-0.87c-0.09-0.07-0.22-0.06-0.29,0.04 c-0.07,0.09-0.05,0.22,0.03,0.29l1.11,0.87C49.23,56.95,49.36,56.93,49.44,56.84"/>
</g>
</g>
</g>
<g id="Cheeks_Stalker-Medium" fill="rgb(88, 88, 88)">
<g>
<path d="M46.51,57.19l-0.86-0.23l4.27-12.28l0.17,0.57v3.2L46.51,57.19z"/>
<path d="M50.09,48.45l-0.17-3.77l1.73-0.94l2.92-1.99l2.58-2.29l0.27-0.31l-2.77,5.83L50.09,48.45z"/>
<path d="M58.88,50.97l-4.23-6l2.77-5.83l0.49-0.58L58.88,50.97z"/>
<path d="M44.33,66.54l-0.16,0.05l1.47-9.63l0.86,0.23L44.33,66.54z"/>
</g>
<g>
<path d="M21.24,50.97l4.23-6l-2.77-5.83l-0.49-0.58L21.24,50.97z"/>
<path d="M33.62,57.19l0.86-0.23l-4.27-12.28l-0.17,3.77L33.62,57.19z"/>
<path d="M30.04,48.45l0.17-3.77l-1.73-0.94l-2.92-1.99l-2.58-2.29l-0.27-0.31l2.77,5.83L30.04,48.45z"/>
<path d="M35.8,66.54l0.16,0.05l-1.47-9.63l-0.86,0.23L35.8,66.54z"/>
</g>
</g>
<path fill="rgb(54, 48, 48)" id="Visor_Stalker-Medium" d="M41.83,66.78H38.3l-0.38-25.45c0,0-3.7-0.78-3.8-0.78c-0.1,0-5.17-1.18-5.17-1.18 l-4.47-1.53l-1.49-0.76l0.1-1.35l4.31,0.7l5.35,0.68l5.01,0.32l2.05,0.14h0.51l2.05-0.14l5.01-0.32l5.35-0.68l4.31-0.7l0.1,1.35 l-1.49,0.76l-4.47,1.53c0,0-5.07,1.18-5.17,1.18c-0.1,0-3.8,0.78-3.8,0.78L41.83,66.78z"/>
<g id="Eyes_Stalker-Medium">
<g id="Main_Eyes_Stalker-Medium" fill="rgb(72, 93, 77)">
<path d="M57.51,33.36c0,0-0.54-1.02-0.89-1.47c-0.46-0.6-1.21-1.48-1.89-2.15c-0.98-0.95-2.81-2.27-3.99-3.57 c-1.18-1.29-2.48-3.19-3.1-4.23c-0.36-0.6-0.55-1.61-0.63-1.99c-0.02-0.1,0.17-0.26,0.17-0.26s-2.1-0.87-2.82-1.03 c-0.89-0.2-3.23-0.47-3.23-0.47l-1.99-0.01c0,0-2.45,0.28-3.36,0.48c-0.73,0.16-2.82,1.03-2.82,1.03s0.19,0.16,0.17,0.26 c-0.08,0.37-0.27,1.39-0.63,1.99c-0.62,1.04-1.93,2.94-3.1,4.23c-1.18,1.3-3.01,2.62-3.99,3.57c-0.68,0.67-1.42,1.55-1.89,2.15 c-0.35,0.46-0.89,1.47-0.89,1.47l-0.6,4.83l0.2,0.38l0.76,0.9l2.58,2.29l2.92,1.99l1.73,0.93l4.27,12.28l1.47,9.63l0.64,0.2 h6.95l0.64-0.2l1.47-9.63l4.27-12.28l1.73-0.93l2.92-1.99l2.58-2.29l0.76-0.9l0.2-0.38L57.51,33.36 M41.83,66.78H38.3 l-0.38-25.45c0,0-3.7-0.78-3.8-0.78c-0.1,0-5.17-1.18-5.17-1.18l-4.47-1.53l-1.49-0.76l0.1-1.35l4.31,0.7l5.35,0.68l5.01,0.32 l2.05,0.14h0.51l2.05-0.14l5.01-0.32l5.35-0.68l4.31-0.7l0.1,1.35l-1.49,0.76l-4.47,1.53c0,0-5.07,1.18-5.17,1.18 c-0.1,0-3.8,0.78-3.8,0.78L41.83,66.78"/>
<path d="M32.5,20.41l0.32-0.62l0.14-0.1l0.17,0.26l-0.06,0.27L32.5,20.41"/>
<path d="M47.63,20.41l-0.32-0.62l-0.14-0.1c0,0-0.16,0.16-0.17,0.26s0.1,0.31,0.1,0.31L47.63,20.41"/>
</g>
<g id="Trim_Eyes_Stalker-Medium" fill="rgb(85, 114, 92)">
<path d="M35.02,37.26l-0.37-0.9l-2.63-0.52l1.05-15.62l0.06-0.27l-0.17-0.25l2.73-1.02l1.09-0.2v16.27h6.59V18.48 l1.18,0.23l2.63,0.98l-0.18,0.26l1.1,15.89l-2.62,0.52l-0.37,0.9l-5.03,0.31L35.02,37.26z"/>
<path d="M43.36,34.75h-6.59l2.5,0.76v-0.38h1.58v0.38L43.36,34.75z"/>
<g>
<path d="M44.94,40.77l-2.74,0.57l-0.38,25.45h1.71l0.64-0.2l1.47-9.63l1.11-3.18l-2.26-2.35L44.94,40.77z"/>
<path d="M35.16,40.77l2.74,0.57l0.38,25.45h-1.71l-0.64-0.2l-1.47-9.63l-1.11-3.18l2.26-2.35L35.16,40.77z"/>
</g>
</g>
<path id="Center_Eyes_Stalker-Medium" d="M43.36,18.48c0,0-1.59-0.3-3.3-0.3c-1.7,0-3.29,0.3-3.29,0.3v16.27h6.59 V18.48z" fill="rgb(77, 76, 76)"/>
</g>
</g>
</g></g>
<g id="HelmetsDecals" mask="url(#HelmetsMask)"/>
<g id="Shoulders">
<g id="Left-Shoulder"><g id="Gunslinger-Bell_Shoulder_Left" class="option" style="display: inherit;">
<path id="Main_Gunslinger-Bell_Shoulder_Left" d="M110.74,13.82c6.4-0.15,20.68,4.95,20.11,23.11l-0.08,3.59 l-12.44,5.07L107.43,31.1l0-17.28L110.74,13.82z" fill="rgb(85, 114, 92)"/>
<path id="Ridge_Gunslinger-Bell_Shoulder_Left" class="toggle" d="M107.43,13.82L107.43,13.82l0-2.1 c13.61-0.07,26.49,5.76,25.51,28.19l-2.09,0.49c-0.02-0.26-0.04-0.53-0.06-0.78l0.06-2.69c0.57-18.16-13.71-23.26-20.11-23.11 h-0.7C108.62,13.62,107.66,13.67,107.43,13.82L107.43,13.82L107.43,13.82z" style="display: none;" fill="rgb(255, 255, 255)"/>
<g id="Trim_Gunslinger-Bell_Shoulder_Left" class="toggle" fill="rgb(73, 73, 73)">
<rect x="107.43" y="13.01" width="3.31" height="18.12"/>
<path d="M110.74,30.01l-3.31,1.09l10.92,14.51l2.65-1.97L110.74,30.01z"/>
<path d="M119.45,41.58l-1.16,4.03l13.06-5.33v-3.56L119.45,41.58z"/>
</g>
</g></g>
<g id="Right-Shoulder"><g id="Gunslinger-Bell_Shoulder_Right" class="option" style="display: inherit;">
<path id="Main_Gunslinger-Bell_Shoulder_Right" d="M59.33,13.82c-6.4-0.15-20.68,4.95-20.11,23.11l0.08,3.59 l12.44,5.07L62.64,31.1l0-17.28L59.33,13.82z" fill="rgb(85, 114, 92)"/>
<path id="Ridge_Gunslinger-Bell_Shoulder_Right" class="toggle" d="M62.63,13.82L62.63,13.82l0-2.1 c-13.61-0.07-26.49,5.76-25.51,28.19l2.09,0.49c0.02-0.26,0.04-0.53,0.06-0.78l-0.06-2.69c-0.57-18.16,13.71-23.26,20.11-23.11 h0.71C61.45,13.62,62.41,13.67,62.63,13.82L62.63,13.82L62.63,13.82z" style="display: none;" fill="rgb(255, 255, 255)"/>
<g id="Trim_Gunslinger-Bell_Shoulder_Right" class="toggle" fill="rgb(73, 73, 73)">
<rect x="59.33" y="13.01" width="3.31" height="18.12"/>
<path d="M59.33,30.01l3.31,1.09L51.72,45.61l-2.65-1.97L59.33,30.01z"/>
<path d="M50.62,41.58l1.16,4.03l-13.06-5.33v-3.56L50.62,41.58z"/>
</g>
</g></g>
</g>
<g id="ShouldersDecals" mask="url(#ShouldersMask)">
</g>
<g id="Gauntlets">
<g id="Left-Gauntlets"><g id="Basic_Gauntlet_Left" class="option" style="display: inherit;">
<path id="Top-2_Basic_Gauntlet_Left" d="M140.21,108.05l1.6-2.13l-2.46-19.29l-0.86,2.24l1.2,8.8l-0.93,2.08 L140.21,108.05z" fill="rgb(59, 36, 36)"/>
<path id="Top-1_Basic_Gauntlet_Left" d="M139.34,86.62l-0.86,2.24l1.2,8.8l-0.93,2.08l1.45,8.31l-1.05,1.41 l0.05,5.31l-1.66,0.29l-1.54-8.11l-1.47-0.68l-5.06-23.8l9.3-0.21L139.34,86.62z" fill="rgb(93, 92, 92)"/>
<g id="Accent-Bottom_Basic_Gauntlet_Left" fill="rgb(73, 72, 72)">
<path d="M125.39,89.15l-2.1,0.5l0.75,3.1l2.09-0.5L125.39,89.15z"/>
<path d="M126.69,94.58l-2.09,0.5l0.75,3.1l2.1-0.5L126.69,94.58z"/>
<path d="M128.05,100.14l-2.1,0.5l0.75,3.1l2.1-0.5L128.05,100.14z"/>
</g>
<path id="Bottom_Basic_Gauntlet_Left" d="M123.31,89.65l-0.57-2.36l6.82-4.44l4.97,23.41l-7.08,0.7l-2.1-8.77 l2.09-0.5l-0.75-3.1l-2.08,0.5l-0.56-2.33l2.09-0.5l-0.75-3.1L123.31,89.65z M128.05,100.14l-2.1,0.51l0.74,3.1l2.11-0.51 L128.05,100.14z" fill="rgb(93, 92, 92)"/><g id="No-Device_Attachment_Basic_Gauntlet_Left" class="option" style="display: inherit;">
</g>
</g>
</g>
<g id="Right-Gauntlets"><g id="Heavy_Gauntlet_Right" class="option" style="display: inherit;">
<g id="Top-2_Heavy_Gauntlet_Right" fill="rgb(71, 71, 71)">
<path d="M31.48,76.62l-1.79,0.28l-0.78,8.51l1.63,1.15L31.48,76.62z"/>
<path d="M30.61,85.82l-0.98,11.09l1.1,1.25l-0.62,6.53l0.49,0.3l1.72-17.87L30.61,85.82z"/>
<path d="M30.33,82.71c-0.22,0.02-0.38,0.21-0.36,0.42c0.02,0.21,0.21,0.37,0.42,0.36c0.22-0.02,0.38-0.21,0.36-0.42 C30.74,82.85,30.55,82.69,30.33,82.71z"/>
</g>
<g id="Top-1_Heavy_Gauntlet_Right" fill="rgb(85, 85, 85)">
<path d="M35.21,105.83l-4.61-0.85l1.72-17.87l-1.71-1.29l0.92-9.74l6.77-1.25L35.21,105.83z"/>
<path d="M33.28,75.76l-0.96,11.35"/>
</g>
<g id="Accent-Top_Heavy_Gauntlet_Right" fill="rgb(65, 65, 65)">
<path d="M31.67,102.17l2.92,0.35l-0.25,2.26l-2.93-0.44L31.67,102.17z"/>
<path d="M32.71,92.7l2.92,0.35l-0.96,8.83l-2.92-0.35L32.71,92.7z"/>
<path d="M33.94,76.34l3.22-0.51l-0.91,9.67l-3.06-0.36L33.94,76.34z"/>
</g>
<path id="Bottom_Heavy_Gauntlet_Right" d="M38.25,75.29c3.5-0.15,7.25,1.05,9.76,3.79 c0.81,0.89,1.14,2.11,0.88,3.29c-1.24,5.67-5.3,24.23-5.3,24.23l-8.38-0.76L38.25,75.29z" fill="rgb(103, 84, 68)"/>
<g id="Accent-Bottom_Heavy_Gauntlet_Right" fill="rgb(91, 91, 91)">
<path d="M35.21,105.83l8.38,0.76l0.33-1.5l-8.54-0.89L35.21,105.83z"/>
<path d="M38.04,77.36c4.54,0.08,8.44,1.41,10.6,6.11l0.24-1.11c0.2-0.92,0.04-1.88-0.43-2.68l-0.48-0.64 c-2.51-2.72-6.24-3.91-9.72-3.75L38.04,77.36z"/>
<path d="M39.1,75.89l3.7,0.42l-1.68,14.61l-3.7-0.42L39.1,75.89z"/>
<path d="M39.56,76.22l2.73,0.31l-1.55,13.51L38,89.73L39.56,76.22z"/>
<path d="M42.28,76.53l0.52-0.22"/>
<path d="M39.1,75.89l0.46,0.33"/>
<path d="M37.42,90.5L38,89.73"/>
<path d="M41.12,90.92l-0.46-0.89"/>
</g><g id="Flamethrower_Attachment_Heavy_Gauntlet_Right" class="option" style="display: inherit;">
<g id="Tubes_Flamethrower_Attachment_Heavy_Gauntlet_Right" fill="rgb(50, 50, 50)">
<path d="M29.95,76.96l0.86,0.08l-2.38,26.12l-0.86-0.08L29.95,76.96z"/>
<path d="M27.97,76.78l0.86,0.08l-1.71,18.73l-0.86-0.08L27.97,76.78z"/>
<path d="M29.53,78.57l1.3,0.12l-0.57,6.22l-1.3-0.12L29.53,78.57z"/>
<path d="M27.66,78.4l1.19,0.11l-0.57,6.22l-1.19-0.11L27.66,78.4z"/>
</g>
<g id="Main_Flamethrower_Attachment_Heavy_Gauntlet_Right" fill="rgb(85, 85, 85)">
<path d="M27.64,76.35l3.55,0.32L31,78.7l-3.55-0.32L27.64,76.35z"/>
<path d="M26.81,84.6l3.71,0.33l-0.09,1l-3.71-0.33L26.81,84.6z"/>
<path d="M26.87,85.61l3.4,0.31l-0.05,0.5l-3.4-0.31L26.87,85.61z"/>
<path d="M30.2,84.28l0.57,0.07l-0.28,3.04l-0.57-0.07L30.2,84.28z"/>
</g>
<g id="Accent_Flamethrower_Attachment_Heavy_Gauntlet_Right" fill="rgb(93, 91, 91)">
<path d="M26.24,95.5l0.92,0.08l0.03,1.29l-1.21-0.11L26.24,95.5z"/>
<path d="M26.49,88.82l1.64,0.15l-0.18,1.98l-1.64-0.15L26.49,88.82z"/>
<path d="M26.53,90.82l1.19,0.11l-0.18,1.98l-1.19-0.11L26.53,90.82z"/>
<path d="M27.71,99.77l1.19,0.11l-0.25,2.72l-1.19-0.11L27.71,99.77z"/>
<path d="M28.51,91l1.19,0.11l-0.34,3.7l-1.19-0.11L28.51,91z"/>
<path d="M27.36,101.11l1.64,0.15l-0.05,0.53l-1.64-0.15L27.36,101.11z"/>
</g>
<path id="Base_Flamethrower_Attachment_Heavy_Gauntlet_Right" d="M30.77,84.35l0.77-8.24l-1.02,0.3l-1.3,13.94 l0.95,0.54l0.32-3.49l-0.57-0.07l0.28-3.04L30.77,84.35z" fill="rgb(42, 42, 42)"/>
</g></g></g>
</g>
<g id="GauntletsDecals" mask="url(#GauntletsMask)">
</g>
<g id="Shins">
<g id="Left-Shin"><g id="Full_Shin_Left" class="option" style="display: inherit;">
<path id="Shin_Full-Shin_Left" d="M103.34,173.15c11.54-2.49,19.03-0.14,19.03-0.14l2.15,44.16 c0,0-4.54,0.98-9.41,0.86c-3.57-0.08-9.24-1.5-9.24-1.5l-6.18-37.76C99.69,178.77,103.49,178.13,103.34,173.15" fill="rgb(85, 114, 92)"/>
<g id="Accent_Full-Shin_Left" class="toggle" fill="rgb(38, 38, 38)">
<path d="M100.4,182.9l6.35-0.45l0.33,1.66l-6.39,0.45L100.4,182.9"/>
<path d="M100.8,185.22l4.34-0.31l0.33,1.66l-4.38,0.32L100.8,185.22"/>
</g>
<g id="Ridge_Full-Shin_Left" class="toggle" fill="rgb(81, 99, 85)">
<path d="M118.47,171.86l-4.06-0.51l-4.21,0.35l6.03,46.34c2.03,0.09,3.54-0.11,5.88-0.46L118.47,171.86"/>
<path d="M114.41,171.35l5.07,46.58"/>
</g>
</g></g>
<g id="Right-Shin"><g id="Full_Shin_Right" class="option" style="display: inherit;">
<path id="Shin_Full-Shin_Right" d="M66.64,173.15c-11.54-2.49-19.03-0.14-19.03-0.14l-2.16,44.16 c0,0,4.54,0.98,9.41,0.86c3.57-0.08,9.24-1.5,9.24-1.5l6.19-37.76C70.29,178.77,66.49,178.13,66.64,173.15" fill="rgb(85, 114, 92)"/>
<g id="Accent_Full-Shin_Right" class="toggle" fill="rgb(38, 38, 38)">
<path d="M69.58,182.91l-6.35-0.45l-0.33,1.66l6.39,0.45L69.58,182.91"/>
<path d="M69.18,185.22l-4.34-0.31l-0.33,1.66l4.38,0.32L69.18,185.22"/>
</g>
<g id="Ridge_Full-Shin_Right" class="toggle" fill="rgb(81, 99, 85)">
<path d="M51.51,171.86l4.06-0.51l4.21,0.35l-6.03,46.33c-2.03,0.08-3.54-0.11-5.88-0.46L51.51,171.86"/>
<path d="M55.57,171.35l-5.07,46.58"/>
</g>
</g></g>
</g>
<g id="ShinsDecals" mask="url(#ShinsMask)">
</g>
<g id="Foot">
<g id="Left-Ankle">
<g id="None_Ankle_Left" class="option" style="display: inherit;">
</g></g>
<g id="Left-Toe"><g id="Spikes_Toe_Left" class="option" fill="rgb(110, 109, 109)" style="display: inherit;">
<path d="M129.45,239.91c3.23-0.56,6.5-1.35,9.8-2.35c0.03-0.01,0.07,0,0.1,0.02c0.03,0.02,0.04,0.05,0.05,0.09 c0,0.18,0.01,0.52,0.02,0.86c0.02,0.62-0.35,1.19-0.93,1.43c-1.96,0.75-4.3,1.31-6.94,1.71c-0.51,0.08-1.04-0.07-1.44-0.4 C129.71,240.91,129.47,240.43,129.45,239.91C129.45,239.91,129.45,239.91,129.45,239.91"/>
<path d="M134.47,241.93c0,0-2.92-0.33-4.02-0.45c-0.33-0.04-0.58-0.34-0.55-0.67c0.09-0.63,0.52-0.93,1.35-0.87 c0.11,0.01,0.21,0.04,0.3,0.1C132.08,240.36,134.47,241.93,134.47,241.93"/>
<path d="M141.77,239.8c0,0-2.55-0.22-3.57-0.31c-0.18-0.01-0.35-0.11-0.45-0.26c-0.1-0.15-0.13-0.34-0.08-0.52 c0.18-0.36,0.52-0.54,1.1-0.5c0.1,0,0.19,0.03,0.28,0.08C139.49,238.51,141.77,239.8,141.77,239.8"/>
</g></g>
<g id="Right-Ankle">
<g id="None_Ankle_Right" class="option" style="display: inherit;">
</g></g>
<g id="Right-Toe"><g id="Spikes_Toe_Right" class="option" fill="rgb(110, 109, 109)" style="display: inherit;">
<path d="M40.55,239.91c-2.97-0.51-5.96-1.22-8.98-2.11c-0.23-0.07-0.48-0.02-0.67,0.12 c-0.19,0.14-0.31,0.36-0.32,0.6c0,0,0,0,0,0c-0.02,0.62,0.35,1.19,0.93,1.43c1.96,0.75,4.3,1.31,6.94,1.71 c0.51,0.08,1.04-0.07,1.44-0.4C40.29,240.91,40.53,240.43,40.55,239.91C40.55,239.91,40.55,239.91,40.55,239.91"/>
<path d="M35.53,241.93c0,0,2.92-0.33,4.02-0.45c0.33-0.04,0.58-0.34,0.55-0.67c-0.09-0.63-0.52-0.93-1.35-0.87 c-0.11,0.01-0.21,0.04-0.3,0.1C37.92,240.36,35.53,241.93,35.53,241.93"/>
<path d="M28.23,239.8c0,0,2.55-0.22,3.57-0.31c0.18-0.01,0.35-0.11,0.45-0.26c0.1-0.15,0.13-0.34,0.08-0.52 c-0.18-0.36-0.52-0.54-1.1-0.5c-0.1,0-0.19,0.03-0.28,0.08C30.51,238.51,28.23,239.8,28.23,239.8"/>
</g></g>
</g>
<g id="FootDecals" mask="url(#FootMask)">
</g>
<g id="Knees">
<g id="Left-Knee"><g id="Heavy_Knee_Left" class="option" style="display: inherit;">
<g id="Missiles_Heavy-Knee_Left" class="toggle" style="">
<path id="Base_Missiles_Heavy-Knee_Left" d="M120,160.04l1.85,9.94l2.17-1.75c0.35-0.28,0.52-0.73,0.45-1.18 c-0.22-1.35-0.7-4.29-0.96-5.84c-0.1-0.58-0.59-1.02-1.18-1.05L120,160.04z" fill="rgb(87, 87, 87)"/>
<g id="Missile-2_Missiles_Heavy-Knee_Left" fill="rgb(171, 96, 96)">
<path d="M122.48,165.52c-0.57,0.15-0.91,0.74-0.76,1.31s0.75,0.91,1.33,0.76c0.58-0.15,0.92-0.74,0.76-1.31 S123.05,165.37,122.48,165.52z"/>
<path d="M122.58,165.85c-0.39,0.1-0.62,0.5-0.51,0.88c0.11,0.38,0.51,0.61,0.89,0.51s0.62-0.5,0.51-0.88 C123.37,165.98,122.97,165.75,122.58,165.85z"/>
</g>
<g id="Missile-1_Missiles_Heavy-Knee_Left" fill="rgb(140, 165, 165)">
<path d="M121.69,160.93c-0.58,0.15-0.92,0.74-0.76,1.31c0.16,0.57,0.75,0.91,1.33,0.76 c0.58-0.15,0.92-0.74,0.76-1.31C122.86,161.11,122.27,160.77,121.69,160.93z"/>
<path d="M121.79,161.26c-0.39,0.1-0.62,0.5-0.51,0.88c0.11,0.39,0.51,0.61,0.89,0.51c0.39-0.1,0.62-0.5,0.51-0.88 C122.58,161.39,122.18,161.16,121.79,161.26z"/>
</g>
</g>
<path id="Plate-2_Heavy-Knee_Left" d="M118.09,155.54l-2.97-1.79l-14.81,2.53l-2.15,2.66l2.9,14.76l5.83,0.13 l8.31-1.42l5.78-2.08L118.09,155.54z" fill="rgb(79, 78, 78)"/>
<g id="Plate-1_Heavy-Knee_Left" fill="rgb(70, 84, 66)">
<path d="M117.37,156.35l-2.73-1.73l-13.56,2.32l-1.95,2.53l2.8,14.24l4.96,0.13l8.31-1.42l4.96-1.82L117.37,156.35z "/>
<path d="M112.62,158.35l-8.31,1.42l2.59,14.07l4.31-0.16l4-1.26L112.62,158.35z"/>
<path d="M104.31,159.77l-3.22-2.83l-1.95,2.53L104.31,159.77z"/>
<path d="M112.62,158.35l2.02-3.72l2.73,1.73L112.62,158.35z"/>
</g>
<g id="Trim_Heavy-Knee_Left" fill="rgb(85, 114, 92)">
<path d="M98.2,164.01l-0.46,1.12l1.64,8.91l0.64-0.11L98.2,164.01z"/>
<path d="M113.51,168.21l-6.53,1.12l0.64,3.48l6.53-1.12L113.51,168.21z"/>
<path d="M98.85,162.4l-0.91,0.16l2.09,11.37l1.06-0.18l-0.01-0.05h-0.02L98.85,162.4z"/>
<path d="M118.97,160.04l2.02,10.29l-0.19,0.07l1.07-0.18l-1.9-10.34L118.97,160.04z"/>
</g>
</g></g>
<g id="Right-Knee"><g id="Heavy_Knee_Right" class="option" style="display: inherit;">
<g id="Missiles_Heavy-Knee_Right" class="toggle" style="">
<path id="Base_Missiles_Heavy-Knee_Right" d="M50,160.04l-1.85,9.94l-2.17-1.75c-0.35-0.28-0.52-0.73-0.45-1.18 c0.22-1.35,0.7-4.29,0.96-5.84c0.1-0.58,0.59-1.02,1.18-1.05L50,160.04z" fill="rgb(87, 87, 87)"/>
<g id="Missile-2_Missiles_Heavy-Knee_Right" fill="rgb(171, 96, 96)">
<path d="M47.52,165.52c0.58,0.15,0.92,0.74,0.76,1.31c-0.16,0.57-0.75,0.91-1.33,0.76 c-0.58-0.15-0.92-0.74-0.76-1.31S46.95,165.37,47.52,165.52z"/>
<path d="M47.42,165.85c0.39,0.1,0.62,0.5,0.51,0.88c-0.1,0.38-0.51,0.61-0.89,0.51c-0.39-0.1-0.62-0.5-0.51-0.88 C46.63,165.98,47.03,165.75,47.42,165.85z"/>
</g>
<g id="Missile-1_Missiles_Heavy-Knee_Right" fill="rgb(140, 165, 165)">
<path d="M48.31,160.93c0.58,0.15,0.92,0.74,0.76,1.31c-0.16,0.57-0.75,0.91-1.33,0.76 c-0.58-0.15-0.92-0.74-0.76-1.31C47.14,161.11,47.73,160.77,48.31,160.93z"/>
<path d="M48.21,161.26c0.39,0.1,0.62,0.5,0.51,0.88c-0.11,0.39-0.51,0.61-0.89,0.51c-0.39-0.1-0.62-0.5-0.51-0.88 C47.42,161.39,47.82,161.16,48.21,161.26z"/>
</g>
</g>
<path id="Plate-2_Heavy-Knee_Right" d="M51.91,155.54l2.97-1.79l14.81,2.53l2.15,2.66l-2.9,14.76l-5.83,0.13 l-8.32-1.42l-5.78-2.08L51.91,155.54z" fill="rgb(79, 78, 78)"/>
<g id="Plate-1_Heavy-Knee_Right" fill="rgb(70, 84, 66)">
<path d="M52.63,156.35l2.73-1.73l13.56,2.32l1.95,2.53l-2.8,14.24l-4.96,0.13l-8.32-1.42l-4.96-1.82L52.63,156.35z"/>
<path d="M57.38,158.35l8.31,1.42l-2.59,14.07l-4.31-0.16l-4.01-1.26L57.38,158.35z"/>
<path d="M65.69,159.77l3.22-2.83l1.95,2.53L65.69,159.77z"/>
<path d="M57.38,158.35l-2.02-3.72l-2.73,1.73L57.38,158.35z"/>
</g>
<g id="Trim_Heavy-Knee_Right" fill="rgb(85, 114, 92)">
<path d="M71.8,164.01l0.46,1.12l-1.64,8.91l-0.64-0.11L71.8,164.01z"/>
<path d="M56.49,168.21l6.53,1.12l-0.64,3.48l-6.53-1.12L56.49,168.21z"/>
<path d="M71.15,162.4l0.91,0.16l-2.09,11.37l-1.06-0.18l0.01-0.05h0.02L71.15,162.4z"/>
<path d="M51.03,160.04l-2.02,10.29l0.19,0.07l-1.07-0.18l1.9-10.34L51.03,160.04z"/>
</g>
</g></g>
</g>
<g id="KneesDecals" mask="url(#KneesMask)">
</g>
<g id="Thighs">
<g id="Left-Thigh"><g id="Basic_Thigh_Left" class="option" style="display: inherit;">
<path id="Thigh_Basic-Thigh_Left" d="M119.66,114.13c0,0-5.22-6.67-7.89-7.78c-2.53-1.05-5.91-0.6-8.08,1.13 c-3.31,2.64-10.92,8.35-11.78,14.71c-0.96,7.1,4.24,22.8,6,27.87c0.6,1.72,2.87,2.51,4.61,2.57c3.22,0.12,12.01-0.15,14.11-4.87 C119.49,141.34,119.66,114.13,119.66,114.13" fill="rgb(60, 60, 60)"/>
<path id="Trauma-Plate_Basic-Thigh_Left" class="toggle" style="" d="M117.89,114.74c-0.78-0.97-2.65-3.22-4.46-4.95 c-0.86-0.82-1.68-1.54-2.34-1.82c-1.97-0.82-4.61-0.47-6.3,0.88c-1.92,1.53-5.35,4.12-7.95,7.29c-1.58,1.92-2.88,4.05-3.18,6.29 c-0.94,6.9,4.2,22.13,5.92,27.06c0.15,0.43,0.56,0.7,0.99,0.91c0.64,0.31,1.38,0.46,2.02,0.49c1.8,0.07,5.47,0.02,8.54-1 c1.7-0.56,3.24-1.38,3.89-2.83c0.81-1.82,1.35-5.42,1.77-9.56C117.68,128.66,117.86,117.46,117.89,114.74" fill="rgb(85, 114, 92)"/>
<g id="Ridge_Basic-Thigh_Left" class="toggle" style="" fill="rgb(87, 105, 91)">
<path d="M110.85,105.79l-3.61-0.92l-3.78,2.07l1.23,45.7c2.49,0.48,2.53,0.57,4.71-0.08L110.85,105.79"/>
<path d="M107.27,104.87l-0.1,48.14"/>
</g>
</g>
</g>
<g id="Right-Thigh"><g id="Basic_Thigh_Right" class="option" style="display: inherit;">
<path id="Thigh_Basic-Thigh_Right" d="M50.34,114.13c0,0,5.22-6.67,7.89-7.78c2.53-1.05,5.91-0.6,8.08,1.13 c3.31,2.64,10.92,8.35,11.78,14.71c0.96,7.1-4.24,22.8-6,27.87c-0.6,1.72-2.87,2.51-4.61,2.57c-3.22,0.12-12.01-0.15-14.11-4.87 C50.51,141.34,50.34,114.13,50.34,114.13" fill="rgb(60, 60, 60)"/>
<path id="Trauma-Plate_Basic-Thigh_Right" class="toggle" style="" d="M52.11,114.74c0.78-0.97,2.65-3.22,4.46-4.95 c0.86-0.82,1.68-1.54,2.33-1.82c1.97-0.82,4.61-0.47,6.3,0.88c1.92,1.53,5.35,4.12,7.95,7.29c1.58,1.92,2.88,4.05,3.18,6.29 c0.94,6.9-4.2,22.13-5.92,27.06c-0.15,0.43-0.56,0.7-0.99,0.91c-0.64,0.31-1.38,0.46-2.02,0.49c-1.8,0.07-5.47,0.02-8.54-1 c-1.7-0.56-3.24-1.38-3.89-2.83c-0.81-1.82-1.35-5.42-1.77-9.56C52.32,128.66,52.14,117.46,52.11,114.74" fill="rgb(85, 114, 92)"/>
<g id="Ridge_Basic-Thigh_Right" class="toggle" style="" fill="rgb(87, 105, 91)">
<path d="M59.15,105.79l3.61-0.92l3.78,2.07l-1.23,45.7c-2.49,0.48-2.53,0.57-4.71-0.08L59.15,105.79"/>
<path d="M62.73,104.87l0.1,48.14"/>
</g>
</g>
</g>
</g>
<g id="ThighsDecals" mask="url(#ThighsMask)">
</g>
<g id="Groin"><g id="Basic_Groin" class="option" style="display: inherit;">
<path id="Groin-Plate_Basic" d="M78.57,104.6L67.72,82.91h34.71L91.58,104.6c0,0-4.33,5.17-6.5,5.17 C82.91,109.76,78.57,104.6,78.57,104.6z" fill="rgb(73, 73, 73)"/>
<path id="Trauma-Plating_Groin" class="toggle" style="" d="M90.42,103.84l9.8-19.57H69.93l9.79,19.57c0.43,0.5,2.16,2.47,3.82,3.72 c0.58,0.44,1.1,0.84,1.53,0.84c0.44,0,0.95-0.4,1.53-0.84C88.26,106.32,89.99,104.34,90.42,103.84" fill="rgb(85, 114, 92)"/>
</g>
</g>
<g id="GroinDecals" mask="url(#GroinMask)">
</g>
<g id="Waist">
<g id="Accessories_Waist">
<g id="Kama" class="toggle" style=""><g id="Tattered_Kama" class="option" style="display: inherit;">
<g id="Main_Kama-Tattered" fill="rgb(82, 95, 85)">
<path d="M105.73,79.21c1.46-0.33,0.81,5.35,4.07,9.76c1.99,2.69,4.66,7.14,5.19,9.61 c0.63,2.94,2.52,5.91,3.26,8.85c1.29,5.11,3.04,10.08,4.12,15.1c0.86,4.02,0.57,8.28,1.53,12.31c0.72,3.04,0.26,5.69,1.26,8.6 c1.11,3.26-1.13,6.52-0.32,9.87c0.49,2.04,0.09,4,0.73,6c0.22,0.68,0.4,1.35,0.57,2.04c0.05,0.21,0.1,0.42,0.15,0.63 c0.03,0.13,0.17,0.47,0.08,0.38c-0.67-0.61-1.04-1.76-1.67-2.48c-1.22-1.39-2.76-2.43-3.92-3.9c-0.45-0.57-0.8-1.19-1.11-1.84 c-0.03-0.06-0.23-0.55-0.26-0.55c-2.37,0.51-4.74,1.43-6.75-0.63c-1.6-1.64-2.99-5.17-3.81-7.36 c-0.34-0.92,0.12-6.32-0.49-6.83c-0.45-0.37-0.86,4.49-1.4,4.16c-3.41-2.06-8.25-3.29-8.25-3.29s-0.38-6.89-0.1-10.83 c0.25-3.54-0.24-6.62-0.75-10.08c-0.66-4.48-0.58-9.09-0.28-13.59C98.05,97.84,92.59,82.18,105.73,79.21z M113.54,145.48 c-0.42,1.82-0.46,3.9,0.55,5.54c0.34,0.55,1.18,1.42,1.92,1.19c3.1-0.98-0.7-5.88-1.7-6.97L113.54,145.48z M104.43,132.18 c-0.56,0.35-1.04,0.76-1.45,1.3c-1.47,1.91,2.57,0.96,1.87-1.37L104.43,132.18z"/>
<path d="M64.35,79.21c-1.46-0.33-1.17,5.1-4.07,9.76c-1.91,3.07-4.66,7.14-5.19,9.61 c-0.63,2.94-2.52,5.91-3.26,8.85c-1.29,5.11-3.04,10.08-4.12,15.1c-0.86,4.02-0.57,8.28-1.53,12.31 c-0.72,3.04-0.26,5.69-1.26,8.6c-1.12,3.26,1.13,6.52,0.32,9.87c-0.49,2.04-0.09,4-0.73,6c-0.22,0.68-0.4,1.35-0.57,2.04 c-0.05,0.21-0.1,0.42-0.15,0.63c-0.03,0.13-0.17,0.47-0.08,0.38c0.67-0.61,1.04-1.76,1.67-2.48c1.22-1.39,2.76-2.43,3.92-3.9 c0.45-0.57,0.8-1.19,1.11-1.84c0.03-0.06,0.23-0.55,0.26-0.55c2.37,0.51,4.73,1.43,6.76-0.63c1.6-1.64,2.99-5.17,3.81-7.36 c0.34-0.92-0.12-6.32,0.49-6.83c0.45-0.37,0.86,4.49,1.41,4.16c3.41-2.06,8.25-3.29,8.25-3.29s0.38-6.89,0.1-10.83 c-0.25-3.54,0.24-6.62,0.75-10.08c0.66-4.48,0.58-9.09,0.28-13.59C72.03,97.84,77.49,82.18,64.35,79.21z M56.54,145.48 c0.42,1.82,0.46,3.9-0.55,5.54c-0.34,0.55-1.18,1.42-1.92,1.19c-3.1-0.98,0.7-5.88,1.7-6.97L56.54,145.48z M65.65,132.18 c0.56,0.35,1.04,0.76,1.45,1.3c1.47,1.91-2.57,0.96-1.87-1.37L65.65,132.18z"/>
</g>
</g>
</g>
<g id="Loin-Cloth" class="toggle" style=""><path id="Tattered_Loin-Cloth" class="option" d="M95.75,82.6c-0.06,2.73-0.17,5.46-0.01,8.19 c0.14,2.4,0.54,4.86,0.52,7.26c-0.01,1.9-0.49,3.72-0.6,5.6c-0.18,3.09,0.08,6.42,0.38,9.5c0.57,6.04-1.6,26.33-1.6,26.33 l-4.4-4.92l-2.98,8.92l-2.49-5.72l-2.26,4.6l-2.38-0.93l-1.16,7.63l-2.33-6.06l-0.28-5.18c0,0-0.35-2.54-1.1-6.98 c-0.32-1.91-1.11-3.8-1.16-5.76c-0.14-4.89,1.29-9.78,1.43-14.67c0.11-3.91-0.78-7.71-1.06-11.57 c-0.25-3.37-0.67-8.74,1.24-11.52C77.48,84.43,95.75,82.6,95.75,82.6z M81.82,133.08c-0.11,0.61-0.23,1.23-0.32,1.85 c-0.05,0.38-0.1,0.76-0.11,1.14c-0.02,0.51,0.02,1.09,0.2,1.56c0.02,0.04,0.28-0.14,0.31-0.16c0.3-0.24,0.5-0.59,0.61-1.01 c0.25-0.97,0.4-2.74-0.35-3.47L81.82,133.08z M93.06,126.22c-0.53,0.36-1.24,0.78-1.62,1.36c-0.28,0.43-0.49,0.89-0.57,1.44 c-0.06,0.37-0.11,0.74-0.12,1.11c-0.07,1.37,0.6,1.84,1.47,0.86C93,130.11,93.9,127.35,93.06,126.22z" fill="rgb(82, 95, 85)" style="display: inherit;"/>
</g>
<g id="Left-Holster" class="toggle" style=""><g id="Hanging-Holster_Left" class="option" style="display: inherit;">
<g id="Weapon_Hanging-Holster-Left">
<g id="Main_Weapon_Hanging-Holster-Left" fill="rgb(47, 43, 43)">
<path d="M118.4,115.51l0.17-3.74l0.65,0.03l0.11-2.35l-0.65-0.03l0.06-1.22c0.02-0.4,0.57-0.69,1.22-0.66 c1.5,0.07,4.08,0.19,5.59,0.26c0.66,0.03,1.17,0.38,1.15,0.77l-0.06,1.22l-0.65-0.03l-0.11,2.35l0.65,0.03l-0.17,3.74 l-1.52-0.07l-0.48,10.35l-4.92-0.23l0.48-10.35L118.4,115.51z"/>
<path d="M125.74,115.3l-0.87-0.04l-0.58,12.43l-4.92-0.23l0.58-12.44l-0.87-0.04l0.13-2.84l6.67,0.31 L125.74,115.3z"/>
<path d="M124.69,108.56l-3.95-0.18l-0.18,3.84l3.95,0.18L124.69,108.56z"/>
<path d="M121.03,116.2l-0.65-0.03l-0.45,9.78l0.65,0.03L121.03,116.2z"/>
<path d="M122.78,114.05l-0.65-0.03l-0.45,9.78l0.65,0.03L122.78,114.05z"/>
<path d="M124.33,116.36l-0.65-0.03l-0.45,9.78l0.65,0.03L124.33,116.36z"/>
</g>
<g id="Accent_Weapon_Hanging-Holster-Left" fill="rgb(124, 121, 121)">
<path d="M121.13,112.64l-0.02,0.39l2.78,0.13l0.02-0.39L121.13,112.64z"/>
<path d="M121.11,113.03l-0.02,0.39l2.78,0.13l0.02-0.39L121.11,113.03z"/>
<path d="M121.15,112.25l-0.02,0.39l2.78,0.13l0.02-0.39L121.15,112.25z"/>
<path d="M121.37,107.43l-0.02,0.39l2.78,0.13l0.02-0.39L121.37,107.43z"/>
<path d="M121.39,108.41l-0.65-0.03l-0.18,3.84l0.65,0.03L121.39,108.41z"/>
<path d="M124.69,108.56l-0.65-0.03l-0.18,3.84l0.65,0.03L124.69,108.56z"/>
<path d="M123.68,116.33l-0.98-0.04l-0.46,9.78l0.98,0.04L123.68,116.33z"/>
<path d="M122.02,116.25l-0.98-0.05l-0.45,9.78l0.98,0.04L122.02,116.25z"/>
</g>
</g>
<path id="Holster_Hanging-Holster-Left" d="M118.44,129.93l-0.79-15.75l7.32,11.86l-1.62,21.43 c-1.71,1.78-3.39,1.79-5.04-0.19L118.44,129.93z" fill="rgb(93, 55, 21)"/>
<g id="Straps_Hanging-Holster-Left" fill="rgb(98, 68, 41)">
<path d="M90.44,88.76c8.01,11.42,16.07,21.09,27.21,25.41l0.14,2.7c-13.85-5.81-21.28-15.64-29.47-28.11H90.44z"/>
<path d="M118.4,133.13c-7.49,5.7-15.58,8.8-25.28,9.32l0.69,2.14c8.39-0.76,16.22-3.85,24.59-9.21V133.13z"/>
<path d="M118.4,135.38l0.02-2.25c1.95,0.86,4.21,0.92,5.99,0.29l-0.17,2.3 C122.32,136.21,120.14,136.24,118.4,135.38z"/>
</g>
<g id="Buckle_Hanging-Holster-Left" fill="rgb(91, 90, 90)">
<path d="M100.89,142.34l-1.05,0.16l0.05,0.34l1.05-0.16L100.89,142.34"/>
<path d="M98.03,100.3l-0.73-0.96l-0.28,0.21l0.73,0.96L98.03,100.3"/>
<path d="M97.75,100.51l-1.19,0.96l-2.8-3.44l2.7-2.18l2.8,3.44l-1.24,1l-0.6-0.79l0.61-0.49l-1.55-1.9l-1.49,1.2 l1.55,1.9l0.61-0.49L97.75,100.51"/>
<path d="M100.85,142.34l-0.83,0.12l-0.12-0.81l-2.02,0.43l0.28,1.88l2.01-0.43l-0.11-0.73l0.83-0.12l0.22,1.44 l-3.66,0.78l-0.51-3.41l3.66-0.78L100.85,142.34"/>
</g>
</g></g>
<g id="Right-Holster" class="toggle" style=""><g id="Hanging-Holster_Right" class="option" style="display: inherit;">
<g id="Weapon_Hanging-Holster-Right">
<g id="Main_Weapon_Hanging-Holster-Right" fill="rgb(47, 43, 43)">
<path d="M51.58,115.51l-0.17-3.74l-0.65,0.03l-0.11-2.35l0.65-0.03l-0.06-1.22c-0.02-0.4-0.56-0.69-1.22-0.66 c-1.51,0.07-4.08,0.19-5.58,0.26c-0.66,0.03-1.17,0.38-1.16,0.77l0.06,1.22l0.65-0.03l0.11,2.35l-0.65,0.03l0.17,3.74 l1.52-0.07l0.48,10.35l4.92-0.23l-0.48-10.35L51.58,115.51z"/>
<path d="M44.24,115.3l0.87-0.04l0.58,12.43l4.92-0.23l-0.58-12.44l0.87-0.04l-0.13-2.84l-6.67,0.31L44.24,115.3z"/>
<path d="M45.29,108.56l3.95-0.18l0.18,3.84l-3.95,0.18L45.29,108.56z"/>
<path d="M48.96,116.2l0.65-0.03l0.45,9.78l-0.65,0.03L48.96,116.2z"/>
<path d="M47.2,114.05l0.65-0.03l0.45,9.78l-0.65,0.03L47.2,114.05z"/>
<path d="M45.65,116.36l0.65-0.03l0.45,9.78l-0.65,0.03L45.65,116.36z"/>
</g>
<g id="Accent_Weapon_Hanging-Holster-Right" fill="rgb(124, 121, 121)">
<path d="M48.85,112.64l0.02,0.39l-2.78,0.13l-0.02-0.39L48.85,112.64z"/>
<path d="M48.87,113.03l0.02,0.39l-2.78,0.13l-0.02-0.39L48.87,113.03z"/>
<path d="M48.84,112.25l0.02,0.39l-2.78,0.13l-0.02-0.39L48.84,112.25z"/>
<path d="M48.61,107.43l0.02,0.39l-2.78,0.13l-0.02-0.39L48.61,107.43z"/>
<path d="M48.59,108.41l0.65-0.03l0.18,3.84l-0.65,0.03L48.59,108.41z"/>
<path d="M45.29,108.56l0.65-0.03l0.18,3.84l-0.65,0.03L45.29,108.56z"/>
<path d="M46.3,116.33l0.98-0.04l0.45,9.78l-0.98,0.04L46.3,116.33z"/>
<path d="M47.97,116.25l0.98-0.05l0.45,9.78l-0.98,0.04L47.97,116.25z"/>
</g>
</g>
<path id="Holster_Hanging-Holster-Right" d="M51.54,129.93l0.79-15.75l-7.32,11.86l1.62,21.43 c1.71,1.78,3.39,1.79,5.04-0.19L51.54,129.93z" fill="rgb(93, 55, 21)"/>
<g id="Straps_Hanging-Holster-Right" fill="rgb(98, 68, 41)">
<path d="M79.54,88.76c-8.01,11.42-16.07,21.09-27.21,25.41l-0.13,2.7c13.85-5.81,21.28-15.64,29.47-28.11H79.54z"/>
<path d="M51.59,133.13c7.49,5.7,15.58,8.8,25.28,9.32l-0.69,2.14c-8.39-0.76-16.22-3.85-24.59-9.21V133.13z"/>
<path d="M51.59,135.38l-0.02-2.25c-1.94,0.86-4.21,0.92-5.99,0.29l0.17,2.3 C47.67,136.21,49.85,136.24,51.59,135.38z"/>
</g>
<g id="Buckle_Hanging-Holster-Right" fill="rgb(91, 90, 90)">
<path d="M69.09,142.34l1.05,0.16l-0.05,0.34l-1.05-0.16L69.09,142.34"/>
<path d="M71.96,100.3l0.73-0.96l0.28,0.21l-0.73,0.96L71.96,100.3"/>
<path d="M72.23,100.51l1.19,0.96l2.8-3.44l-2.7-2.18l-2.8,3.44l1.24,1l0.6-0.79l-0.61-0.49l1.54-1.9l1.49,1.2 l-1.55,1.9l-0.61-0.49L72.23,100.51"/>
<path d="M69.13,142.34l0.83,0.12l0.12-0.81l2.01,0.43l-0.28,1.88l-2.01-0.43l0.11-0.73l-0.83-0.12l-0.22,1.44 l3.66,0.78l0.51-3.41l-3.66-0.78L69.13,142.34"/>
</g>
</g></g>
<g id="Left-Trophy" class="toggle" style="display:none"/>
<g id="Right-Trophy" class="toggle" style="display:none"/>
</g>
<g id="Under-Belt">
<g id="Sash" class="option" fill="rgb(82, 95, 85)" style="display: inherit;">
<path d="M62.79,72.48c2.02-0.45,5.16,0.85,7.8,1.08c2.83,0.24,5.67,0.03,8.5,0.22c1.66,0.12,3.28,0.55,4.93,0.77 c3.16,0.44,6.32,0.21,9.47-0.21c0.83-0.11,1.68-0.13,2.5-0.31c2.06-0.45,4.75-0.95,6.52-1.82c1.57-0.41,3.16-0.48,4.63-0.1 c1.5,0.39,0.45,3.52,0.52,4.81c0.07,1.36,1,6.67,1.56,7.91c0.62,1.38,1.1,2.88-0.7,3.78c-1.5,0.76-3.11,0.07-4.64-0.14 c-1.81-0.25-3.6-0.13-5.38,0.24c-2.18,0.45-4.34,1.27-6.56,1.49c-2.98,0.29-5.97-0.28-8.95-0.24c-1.71,0.03-3.35,0.61-5.07,0.46 c-2.87-0.24-5.47-1.46-8.26-1.75c-1.4-0.14-2.79,0.19-4.19,0.2c-0.96,0-1.86-0.27-2.79-0.51c-0.92-0.23-1.79-0.14-2.29-1.05 c-0.38-0.69,0.43-2.55,0.81-3.13c0.99-1.5,1.26-6.8,0.9-8.5C61.81,74.25,61.39,72.79,62.79,72.48z"/>
<path d="M60.75,85.08c3.17-0.01,5.94-0.07,8.79,1.08c9.66,3.89,9.45,3.36,13.55,3.8c6.05,0.65,8.46,0.41,10.96-0.18 c1.01-0.24,2.02-0.58,2.93-1.06c1.61-0.85,3.18-1.73,4.61-2.92c1.74-1.45,4.78-2.42,7.22-2.3c0,0-0.47-1.67-1.15-6.62 c-0.17-1.28,0.6-2.68-0.01-4.42c-0.26-0.75-2.66-0.54-4.29-0.4c-3.22,0.28-4.64,2.71-7.13,4.66c-1.45,1.13-3.17,2.47-5.31,3.2 c-3.37,1.14-8.62,1.66-18.57-1.8c-3.25-1.13-6-3.27-10.28-2.58c0,0,0.15,2.3,0.16,3.45C62.24,82.67,60.75,85.08,60.75,85.08z"/>
</g></g>
<g id="Belt"><g id="Pouch-Belt-6" class="option" style="display: inherit;">
<path id="Main_Pouch-Belt-6" d="M109.38,84.25c-5.47,0.49-17.98,2.27-24.29,2.27c-6.38,0-18.88-1.79-24.28-2.26 l0.81-6.37c4.44,0.39,17.3,2.2,23.48,2.2c5.99,0,18.59-1.79,23.33-2.22L109.38,84.25z" fill="rgb(42, 42, 42)"/>
<rect id="Buckle_Pouch-Belt-6" x="80.61" y="79.49" width="9.05" height="7.39" fill="rgb(83, 83, 83)"/>
<g id="Pouches_Pouch-Belt-6" fill="rgb(132, 106, 83)">
<g>
<g>
<g>
<path d="M75.55,77.98c-1.42-0.09-2.85,0.13-4.17,0.65l0,0L77.86,79l1.76-0.75 C79.62,78.25,77.35,78.1,75.55,77.98z"/>
<path d="M79.85,78.48c0.01-0.07-0.02-0.14-0.08-0.18c-0.06-0.04-0.14-0.05-0.2-0.02 c-0.57,0.24-1.7,0.73-1.7,0.73l-0.84,9.96c0.71-0.41,1.42-0.64,2.11-0.75c0.1-0.01,0.17-0.1,0.18-0.19 C79.41,84.83,79.53,81.65,79.85,78.48z"/>
<path d="M77.86,79l-6.48-0.37c-0.04,1.51-0.18,3.02-0.26,4.54c-0.09,1.75-0.13,3.52-0.3,5.29 c0,0.06,0.01,0.12,0.05,0.16c0.04,0.04,0.1,0.07,0.15,0.07c2.02-0.01,4.03,0.1,6.04,0.35c0.06,0.01,0.11-0.01,0.16-0.04 c0.04-0.04,0.07-0.09,0.08-0.14c0.06-0.92,0.31-4.51,0.31-4.51L77.86,79z"/>
<path d="M77.86,79l-6.48-0.37c0,0-0.07,0.58-0.16,1.34c-0.11,0.91,0.16,1.83,0.76,2.53 c0.59,0.7,1.45,1.13,2.37,1.19c0,0,0,0,0,0c0.92,0.05,1.82-0.28,2.49-0.91c0.67-0.63,1.04-1.51,1.04-2.43 C77.87,79.58,77.86,79,77.86,79z"/>
<path d="M74.42,82.49c0.23,0.01,0.41,0.21,0.39,0.44c-0.01,0.23-0.21,0.4-0.44,0.39 c-0.23-0.01-0.41-0.21-0.39-0.44C73.99,82.65,74.19,82.48,74.42,82.49z"/>
</g>
</g>
<g>
<g>
<path d="M66.42,76.75c-1.32-0.09-2.64,0.14-3.85,0.67h0l5.92,0.34L70.1,77C70.1,77,68.06,76.86,66.42,76.75z"/>
<path d="M70.3,77.24c0.01-0.07-0.03-0.14-0.09-0.19c-0.06-0.04-0.14-0.05-0.21-0.02 c-0.53,0.25-1.52,0.72-1.52,0.72l-0.82,9.96c0.65-0.41,1.29-0.65,1.92-0.76c0.1-0.02,0.17-0.1,0.17-0.19 C69.87,83.59,69.99,80.41,70.3,77.24z"/>
<path d="M68.49,77.76l-5.92-0.34c-0.04,1.51-0.18,3.02-0.26,4.54c-0.09,1.75-0.13,3.51-0.3,5.28 c-0.01,0.06,0.01,0.12,0.05,0.16c0.04,0.04,0.1,0.07,0.15,0.07c1.83-0.02,3.66,0.08,5.47,0.31c0.06,0.01,0.11-0.01,0.16-0.04 s0.07-0.09,0.08-0.14c0.06-0.93,0.31-4.51,0.31-4.51L68.49,77.76z"/>
<path d="M68.49,77.76l-5.92-0.34c0,0-0.08,0.74-0.19,1.64c-0.1,0.83,0.16,1.67,0.7,2.31 c0.54,0.64,1.33,1.03,2.17,1.08c0,0,0,0,0,0c0.84,0.05,1.67-0.25,2.28-0.83c0.61-0.58,0.96-1.38,0.96-2.22 C68.49,78.5,68.49,77.76,68.49,77.76z"/>
<path d="M65.32,81.27c0.21,0.01,0.37,0.21,0.36,0.44c-0.01,0.23-0.19,0.4-0.4,0.39s-0.37-0.21-0.36-0.44 C64.93,81.43,65.11,81.26,65.32,81.27z"/>
</g>
</g>
<g>
<path d="M58.83,77.31l0.44-0.68l2.27,0.07l0.28,0.85L58.83,77.31z"/>
<path d="M61.81,77.64c0.01-0.06-0.01-0.11-0.05-0.16c-0.04-0.04-0.09-0.07-0.15-0.07 c-0.69-0.03-2.78-0.11-2.78-0.11l-0.4,8.96c0.11,0.27,1.76,0.43,2.69,0.39c0.11-0.01,0.19-0.09,0.19-0.2 C61.37,83.51,61.47,80.57,61.81,77.64z"/>
</g>
</g>
<g>
<g>
<g>
<path d="M94.63,77.98c1.42-0.09,2.85,0.13,4.17,0.65l0,0L92.32,79l-1.76-0.75 C90.56,78.25,92.83,78.1,94.63,77.98z"/>
<path d="M90.33,78.48c-0.01-0.07,0.02-0.14,0.08-0.18c0.06-0.04,0.14-0.05,0.2-0.02c0.57,0.24,1.7,0.73,1.7,0.73 l0.84,9.96c-0.71-0.41-1.42-0.64-2.11-0.75c-0.1-0.01-0.17-0.1-0.18-0.19C90.77,84.83,90.66,81.65,90.33,78.48z"/>
<path d="M92.32,79l6.48-0.37c0.04,1.51,0.18,3.02,0.26,4.54c0.09,1.75,0.13,3.52,0.3,5.29 c0,0.06-0.01,0.12-0.05,0.16c-0.04,0.04-0.1,0.07-0.15,0.07c-2.02-0.01-4.03,0.1-6.04,0.35c-0.06,0.01-0.11-0.01-0.16-0.04 c-0.04-0.04-0.07-0.09-0.08-0.14c-0.06-0.92-0.31-4.51-0.31-4.51L92.32,79z"/>
<path d="M92.32,79l6.48-0.37c0,0,0.07,0.58,0.16,1.34c0.11,0.91-0.16,1.83-0.76,2.53 c-0.59,0.7-1.45,1.13-2.37,1.19c0,0,0,0,0,0c-0.92,0.05-1.82-0.28-2.49-0.91c-0.67-0.63-1.04-1.51-1.04-2.43 C92.31,79.58,92.32,79,92.32,79z"/>
<path d="M95.76,82.49c-0.23,0.01-0.41,0.21-0.39,0.44c0.01,0.23,0.21,0.4,0.44,0.39 c0.23-0.01,0.41-0.21,0.39-0.44C96.19,82.65,96,82.48,95.76,82.49z"/>
</g>
</g>
<g>
<g>
<path d="M103.76,76.75c1.32-0.09,2.64,0.14,3.85,0.67h0l-5.92,0.34L100.08,77 C100.08,77,102.13,76.86,103.76,76.75z"/>
<path d="M99.88,77.24c-0.01-0.07,0.03-0.14,0.09-0.19c0.06-0.04,0.14-0.05,0.21-0.02 c0.53,0.25,1.52,0.72,1.52,0.72l0.82,9.96c-0.65-0.41-1.29-0.65-1.92-0.76c-0.1-0.02-0.17-0.1-0.17-0.19 C100.31,83.59,100.19,80.41,99.88,77.24z"/>
<path d="M101.69,77.76l5.92-0.34c0.04,1.51,0.18,3.02,0.26,4.54c0.09,1.75,0.13,3.51,0.3,5.28 c0,0.06-0.01,0.12-0.05,0.16c-0.04,0.04-0.1,0.07-0.15,0.07c-1.83-0.02-3.66,0.08-5.47,0.31c-0.06,0.01-0.11-0.01-0.16-0.04 s-0.07-0.09-0.08-0.14c-0.06-0.93-0.31-4.51-0.31-4.51L101.69,77.76z"/>
<path d="M101.69,77.76l5.92-0.34c0,0,0.08,0.74,0.19,1.64c0.09,0.83-0.16,1.67-0.7,2.31 c-0.54,0.64-1.33,1.03-2.17,1.08c0,0,0,0,0,0c-0.84,0.05-1.67-0.25-2.28-0.83c-0.61-0.58-0.96-1.38-0.96-2.22 C101.69,78.5,101.69,77.76,101.69,77.76z"/>
<path d="M104.86,81.27c-0.21,0.01-0.37,0.21-0.36,0.44c0.01,0.23,0.19,0.4,0.4,0.39s0.37-0.21,0.36-0.44 C105.25,81.43,105.07,81.26,104.86,81.27z"/>
</g>
</g>
<g>
<path d="M111.35,77.31l-0.44-0.68l-2.27,0.07l-0.28,0.85L111.35,77.31z"/>
<path d="M108.38,77.64c-0.01-0.06,0.01-0.11,0.05-0.16c0.04-0.04,0.09-0.07,0.15-0.07 c0.69-0.03,2.78-0.11,2.78-0.11l0.4,8.96c-0.11,0.27-1.75,0.43-2.68,0.39c-0.11-0.01-0.19-0.09-0.19-0.2 C108.81,83.51,108.71,80.57,108.38,77.64z"/>
</g>
</g>
</g>
</g></g>
</g>
<g id="WaistDecals" mask="url(#WaistMask)">
</g>
<g id="Extras_Front">
<g id="Front"><g id="None_Front" class="option" style="display: inherit;">
</g>
</g>
</g>
<g id="Extras-FrontDecals" mask="url(#FrontMask)">
</g>
</g>
</svg>