<?xml version='1.0' encoding='UTF-8'?>
<svg version="1.1" id="Female-Body" xmlns="http://www.w3.org/2000/svg" xmlns:serif="http://www.serif.com/" viewBox="0 -55 170 300" style="fill-rule: evenodd; stroke-width: 0.2px; stroke-linejoin: round;" width="170" height="300">
<style>
mask {
mask-type: alpha;
}
.decal {
stroke: none;
}
</style>
<defs id="Masks" stroke="none">
<mask id="HelmetsMask"> <use href="#Helmets"/> </mask>
<mask id="CollarMask"> <use href="#Collar"/> </mask>
<mask id="ShouldersMask"> <use href="#Shoulders"/> </mask>
<mask id="ChestMask"> <use href="#Chest"/> </mask>
<mask id="BicepsMask"> <use href="#Biceps"/> </mask>
<mask id="GauntletsMask"> <use href="#Gauntlets"/> </mask>
<mask id="WaistMask"> <use href="#Waist"/> </mask>
<mask id="GroinMask"> <use href="#Groin"/> </mask>
<mask id="ThighsMask"> <use href="#Thighs"/> </mask>
<mask id="KneesMask"> <use href="#Knees"/> </mask>
<mask id="ShinsMask"> <use href="#Shins"/> </mask>
<mask id="FootMask"> <use href="#Foot"/> </mask>
</defs>
<defs id="Decals"/><metadata><rdf:rdf xmlns:rdf="http://www.w3.org/1999/02/22-rdf-syntax-ns#" xmlns:rdfs="http://www.w3.org/2000/01/rdf-schema#" xmlns:dc="http://purl.org/dc/elements/1.1/"><rdf:description><dc:creator>MandoCreator</dc:creator><dc:publisher>https://www.mandocreator.com</dc:publisher><dc:description>Your Beskar'gam - created by MandoCreator</dc:description><dc:format>image/svg+xml</dc:format><dc:type>Image</dc:type><dc:title>MandoCreator - Ner Berskar'gam</dc:title><dc:date>2022-01-02T16:21:19.923Z</dc:date></rdf:description></rdf:rdf></metadata><g id="Main-Body" fill="white" stroke="black">
<g id="Extras_Back">
<g id="Back"><g id="NO-CAPES_Back" class="option" style="display: inherit;">
</g>
</g>
</g>
<g id="Extras-BackDecals" mask="url(#BackMask)">
</g>
<g id="Suit">
<g id="Neck-Seal"><g id="Standard-Neck-Seal" class="option" fill="rgb(25, 30, 33)" style="display: inherit;">
<path d="M95.96,3.46c0-0.93-0.74-1.69-1.65-1.69c0,0-6.22,0.89-9.33,0.89c-3.11,0-9.33-0.89-9.33-0.89 c-0.91,0-1.65,0.76-1.65,1.69c0,0.93,0.74,1.69,1.65,1.69c0,0,6.22,0.89,9.33,0.89c3.11,0,9.33-0.89,9.33-0.89 C95.22,5.15,95.96,4.39,95.96,3.46z"/>
<path d="M96.51,5.43c0-0.98-0.78-1.77-1.73-1.77c0,0-6.53,0.93-9.8,0.93s-9.8-0.93-9.8-0.93 c-0.96,0-1.73,0.79-1.73,1.77c0,0.98,0.78,1.77,1.73,1.77c0,0,6.53,0.93,9.8,0.93s9.8-0.93,9.8-0.93 C95.74,7.21,96.51,6.41,96.51,5.43z"/>
<path d="M97.14,7.88c0-1.03-0.82-1.87-1.83-1.87c0,0-6.89,0.98-10.33,0.98c-3.44,0-10.33-0.98-10.33-0.98 c-1.01,0-1.83,0.84-1.83,1.87s0.82,1.87,1.83,1.87c0,0,6.89,0.98,10.33,0.98c3.44,0,10.33-0.98,10.33-0.98 C96.32,9.75,97.14,8.91,97.14,7.88z"/>
<path d="M97.75,10.13c0-1.08-0.86-1.96-1.92-1.96c0,0-7.23,1.03-10.85,1.03c-3.62,0-10.85-1.03-10.85-1.03 c-1.06,0-1.92,0.88-1.92,1.96c0,1.08,0.86,1.96,1.92,1.96c0,0,7.23,1.03,10.85,1.03c3.62,0,10.85-1.03,10.85-1.03 C96.89,12.09,97.75,11.21,97.75,10.13z"/>
<path d="M98.36,12.33c0-0.82-0.9-1.48-2.01-1.48c0,0-7.58,0.78-11.36,0.78s-11.36-0.78-11.36-0.78 c-1.11,0-2.01,0.66-2.01,1.48c0,0.82,0.9,1.48,2.01,1.48c0,0,7.58,0.78,11.36,0.78s11.36-0.78,11.36-0.78 C97.46,13.81,98.36,13.14,98.36,12.33z"/>
<path d="M98.36,14.8c0-0.82-0.9-1.48-2.01-1.48c0,0-7.58,0.78-11.36,0.78s-11.36-0.78-11.36-0.78 c-1.11,0-2.01,0.66-2.01,1.48c0,0.82,0.9,1.48,2.01,1.48c0,0,7.58,1.5,11.36,1.5s11.36-1.5,11.36-1.5 C97.46,16.28,98.36,15.62,98.36,14.8z"/>
</g>
</g>
<g id="Flight-Suit" fill="rgb(53, 56, 58)">
<path d="M38.1,60.17l5.2-18.8l12.15-8.13l1.9,16.49c0,0-5.25,9.95-7.06,14.51c-1.86,4.7-5.09,15.42-5.5,16.81 l-2.88,24.91l-8.36-2.66c0,0-0.3-17.29,0.46-24.47C34.68,72.42,38.1,60.17,38.1,60.17z"/>
<path d="M131.9,60.17l-5.22-18.86l-12.06-8.07l-1.92,16.59c0,0,5.2,9.85,7.01,14.41c1.86,4.7,5.09,15.42,5.5,16.81 l2.88,24.91l8.36-2.66c0,0,0.3-17.29-0.46-24.47C135.32,72.42,131.9,60.17,131.9,60.17z"/>
<path d="M84.99,113.44c-1.03,0.1-1.95,0.5-2.29,1.22c-3,6.3-9.17,35.13-10.95,40.44c-0.97,2.89-1.74,18.7-3.38,27.92 c-1.96,11.01-8.39,38.11-8.39,38.11l-11.15-1.15c0,0-1.44-27.22-1.04-37.12c0.3-7.53,3.42-22.31,3.42-22.31s0.67-5.4,0.69-8.12 c0.06-9.82,0.93-31.66,2.88-44.2C56.3,98.31,65.7,77.5,65.7,77.5s12.18,4.76,19.34,4.76c7.16,0,19.44-4.86,19.44-4.86 s8.88,20.92,10.42,30.83c1.95,12.54,3.24,34.38,3.3,44.2c0.02,2.72,0.69,8.12,0.69,8.12s3.12,14.79,3.42,22.31 c0.4,9.91-1.04,37.12-1.04,37.12l-11.15,1.15c0,0-6.43-27.1-8.39-38.11c-1.64-9.22-2.41-25.03-3.38-27.92 c-1.78-5.31-7.96-34.13-10.95-40.44c-0.35-0.73-1.3-1.14-2.34-1.23L84.99,113.44z"/>
</g>
<g id="Sleeves" class="toggle" fill="rgb(25, 30, 33)">
<path d="M41.92,41.42l0.81,0.34l12.73-8.52c0,0,0.36,8.98,1.42,14.37c0.15,0.75,0.37,1.69,0.64,2.79l-1.69,5.45 c0,0-5.75-2.25-8.27-3.72C45.11,50.7,40.7,47,40.7,47L41.92,41.42z"/>
<path d="M112.55,50.4c0.28-1.1,0.5-2.04,0.64-2.79c1.06-5.39,1.42-14.37,1.42-14.37l12.73,8.52l0.81-0.34l1.22,5.58 c0,0-4.4,3.7-6.85,5.13c-2.52,1.48-8.28,3.72-8.28,3.72L112.55,50.4z"/>
</g>
</g>
<g id="Boots"><g id="Basic_Boots" class="option" style="display: inherit;">
<g id="Main_Basic-Boot" fill="rgb(44, 42, 42)">
<path d="M60.73,217.89c-0.18-0.07-2.31,1.28-3.52,1.48c-1.29,0.22-2.7,0.2-4.07,0.06l-0.56-0.06l-0.02,0l-0.07-0.01 l-0.18-0.02l-0.28-0.04l-0.12-0.02c-0.32-0.04-0.64-0.09-0.95-0.14l-0.49-0.1l-0.1-0.03l-0.04-0.01l-0.08-0.02l-0.34-0.08 l-0.3-0.08l-0.05-0.01c-1.05-0.28-0.85-0.78-0.85-0.78c0,1.45-1.51,5.98-5.27,9.68c-1.14,1.13-3.92,2.45-6.33,3.5 c-2.21,0.97-4.87,1.2-6.15,3.78c-0.28,0.56-0.52,1.24-0.47,1.88c0.06,0.82,0.95,0.93,1.65,1.13c1.73,0.49,3.22,0.86,5.22,1.31 c2.28,0.51,4.34,0.82,6.65,0.76c1.73-0.05,3.2-0.12,4.72-1.03c0.61-0.37,1.24-0.74,1.77-1.22c1.19-1.08,1.96-2.21,3.48-2.85 c1.1-0.47,2.24-0.85,3.41-1.13c1.65-0.39,4.06-0.94,4.95-2.57c0.34-1.22-1.15-3.83-1.26-5.59 C60.99,224.26,60.85,217.94,60.73,217.89z"/>
<path d="M109.34,217.89c0.18-0.07,2.31,1.28,3.52,1.48c1.29,0.22,2.7,0.2,4.07,0.06l0.55-0.06l0.02,0l0.07-0.01 l0.18-0.02l0.28-0.04l0.12-0.02c0.32-0.04,0.64-0.09,0.95-0.14l0.49-0.1l0.1-0.03l0.04-0.01l0.08-0.02l0.34-0.08l0.3-0.08 l0.05-0.01c1.05-0.28,0.85-0.78,0.85-0.78c0,1.45,1.51,5.98,5.27,9.68c1.14,1.13,3.92,2.45,6.33,3.5 c2.21,0.97,4.87,1.2,6.15,3.78c0.28,0.56,0.52,1.24,0.47,1.88c-0.06,0.82-0.95,0.93-1.65,1.13c-1.73,0.49-3.22,0.86-5.21,1.31 c-2.28,0.51-4.34,0.82-6.65,0.76c-1.73-0.05-3.2-0.12-4.72-1.03c-0.61-0.37-1.24-0.74-1.77-1.22c-1.19-1.08-1.96-2.21-3.48-2.85 c-1.11-0.47-2.24-0.85-3.41-1.13c-1.65-0.39-4.07-0.94-4.95-2.57c-0.34-1.22,1.15-3.83,1.26-5.59 C109.07,224.26,109.21,217.94,109.34,217.89z"/>
</g>
<g id="Bottom_Basic-Boot" fill="rgb(31, 27, 27)">
<path d="M62.34,231.27c-0.44,0.81-1.26,1.35-2.18,1.74c-0.84,0.42-1.82,0.6-2.77,0.82 c-0.13,0.03-0.26,0.06-0.38,0.09c-0.19,0.05-0.38,0.1-0.56,0.15c-0.06,0.02-0.11,0.03-0.17,0.05l-0.1,0.03 c-0.06,0.02-0.12,0.04-0.18,0.06c-0.03,0.01-0.05,0.02-0.08,0.02c-0.1,0.03-0.2,0.07-0.31,0.1c-0.04,0.01-0.07,0.02-0.11,0.04 l-0.05,0.02c-0.16,0.05-0.31,0.11-0.47,0.17c-0.03,0.01-0.07,0.03-0.1,0.04c-0.14,0.05-0.28,0.11-0.42,0.16l-0.11,0.04 c-0.08,0.03-0.17,0.07-0.25,0.1c-0.04,0.01-0.07,0.03-0.11,0.05c-0.25,0.11-0.48,0.22-0.7,0.35l-0.03,0.02 c-0.02,0.01-0.03,0.02-0.05,0.03c-0.07,0.04-0.13,0.08-0.2,0.13l-0.04,0.03c-0.01,0.01-0.03,0.02-0.04,0.03 c-0.06,0.05-0.13,0.09-0.19,0.14l-0.05,0.04l-0.08,0.07c-0.26,0.21-0.51,0.44-0.75,0.68l-0.07,0.07c-0.13,0.13-0.26,0.26-0.4,0.4 c-0.14,0.14-0.28,0.28-0.42,0.42c-0.14,0.14-0.29,0.29-0.45,0.43l-0.05,0.05c-0.05,0.04-0.1,0.08-0.14,0.12 c-0.01,0.01-0.02,0.01-0.03,0.02c-0.08,0.06-0.16,0.13-0.24,0.19c-0.05,0.04-0.11,0.08-0.16,0.12l-0.03,0.02 c-0.07,0.05-0.14,0.1-0.21,0.14c-0.03,0.02-0.06,0.04-0.09,0.06c-0.1,0.07-0.21,0.13-0.31,0.2c-0.07,0.04-0.14,0.09-0.22,0.13 l-0.09,0.05l-0.23,0.14l-0.11,0.06l-0.07,0.04l-0.07,0.04c-0.11,0.06-0.21,0.11-0.32,0.16c-0.05,0.02-0.1,0.05-0.15,0.07 l-0.05,0.02c-0.32,0.14-0.63,0.24-0.95,0.32l-0.06,0.01l-0.07,0.02c-0.02,0-0.05,0.01-0.07,0.02c-0.06,0.01-0.13,0.03-0.2,0.04 c-0.05,0.01-0.1,0.02-0.15,0.03l-0.12,0.02l-0.04,0.01c-0.03,0.01-0.07,0.01-0.1,0.02c-0.06,0.01-0.11,0.02-0.17,0.02 c-0.08,0.01-0.16,0.02-0.24,0.03c-0.02,0-0.04,0.01-0.06,0.01c-0.2,0.02-0.41,0.04-0.61,0.05c-0.11,0.01-0.23,0.01-0.34,0.02 l-0.1,0c-0.22,0.01-0.44,0.02-0.66,0.02c-0.14,0-0.29,0.01-0.43,0.01c-0.05,0-0.1,0-0.16,0c-0.07,0-0.15,0-0.22,0 c-0.05,0-0.11,0-0.16,0l-0.05,0c-0.26-0.01-0.52-0.01-0.78-0.03c-0.03,0-0.07,0-0.11-0.01l-0.1-0.01c-0.03,0-0.07,0-0.1-0.01 c-0.38-0.03-0.76-0.06-1.13-0.11l-0.1-0.01c-0.09-0.01-0.19-0.02-0.28-0.04c-0.04-0.01-0.08-0.01-0.12-0.02l-0.1-0.01 c-0.08-0.01-0.15-0.02-0.23-0.03c-0.33-0.05-0.66-0.11-0.99-0.17c-0.07-0.01-0.15-0.03-0.22-0.04l-0.1-0.02 c-0.03-0.01-0.07-0.01-0.1-0.02l-0.1-0.02c-0.03-0.01-0.07-0.01-0.1-0.02l-0.07-0.01c-0.08-0.02-0.16-0.03-0.24-0.05l-0.1-0.02 c-0.1-0.02-0.19-0.04-0.28-0.06c-0.08-0.02-0.16-0.04-0.25-0.05l-0.02-0.01c-0.52-0.12-1.01-0.23-1.48-0.34l-0.18-0.04 c-0.13-0.03-0.26-0.06-0.39-0.09l-0.16-0.04l-0.07-0.02c-0.18-0.04-0.37-0.09-0.55-0.14c-0.11-0.03-0.22-0.06-0.33-0.08 c-0.32-0.08-0.63-0.16-0.94-0.25l-0.14-0.04c-0.05-0.01-0.1-0.03-0.16-0.04l-0.06-0.02c-0.24-0.07-0.49-0.13-0.74-0.2l-0.06-0.02 L32,237.96l-0.26-0.07l-0.09-0.02l-0.13-0.04l-0.05-0.02l-0.11-0.04l-0.09-0.03l-0.04-0.02l-0.05-0.02l-0.02-0.01l-0.05-0.02 l-0.05-0.02l-0.02-0.01l-0.05-0.03l-0.06-0.03l-0.05-0.04l-0.05-0.04c-0.08-0.07-0.15-0.14-0.21-0.23l0,0c0,0-0.46,0.68-0.5,1.86 c1.04,1.49,4.31,1.99,8.84,2.59c4.5,0.6,7.28,0.48,9.16-0.32c1.88-0.81,5.18-4.63,7.54-4.83c2.36-0.2,5.15-1.45,6.3-2.12 c0.6-0.35,0.42-2.81,0.42-2.81L62.34,231.27z"/>
<path d="M107.72,231.27c0.44,0.81,1.26,1.35,2.18,1.74c0.84,0.42,1.82,0.6,2.77,0.82c0.13,0.03,0.25,0.06,0.38,0.09 c0.19,0.05,0.38,0.1,0.56,0.15c0.06,0.02,0.11,0.03,0.17,0.05l0.1,0.03c0.06,0.02,0.12,0.04,0.18,0.06 c0.03,0.01,0.05,0.02,0.08,0.02c0.1,0.03,0.2,0.07,0.31,0.1c0.04,0.01,0.07,0.02,0.11,0.04l0.05,0.02 c0.16,0.05,0.31,0.11,0.47,0.17c0.03,0.01,0.07,0.03,0.1,0.04c0.14,0.05,0.28,0.11,0.42,0.16l0.11,0.04 c0.08,0.03,0.17,0.07,0.25,0.1c0.04,0.01,0.07,0.03,0.11,0.05c0.25,0.11,0.48,0.22,0.69,0.35l0.03,0.02 c0.02,0.01,0.03,0.02,0.05,0.03c0.07,0.04,0.13,0.08,0.2,0.13l0.04,0.03c0.01,0.01,0.03,0.02,0.04,0.03 c0.06,0.05,0.13,0.09,0.19,0.14l0.05,0.04l0.08,0.07c0.26,0.21,0.51,0.44,0.75,0.68l0.07,0.07c0.13,0.13,0.26,0.26,0.39,0.4 c0.14,0.14,0.28,0.28,0.42,0.42c0.15,0.14,0.29,0.29,0.45,0.43l0.05,0.05c0.05,0.04,0.1,0.08,0.15,0.12 c0.01,0.01,0.02,0.01,0.03,0.02c0.08,0.06,0.16,0.13,0.24,0.19c0.05,0.04,0.11,0.08,0.16,0.12l0.03,0.02 c0.07,0.05,0.14,0.1,0.21,0.14c0.03,0.02,0.06,0.04,0.09,0.06c0.1,0.07,0.2,0.13,0.31,0.2c0.07,0.04,0.14,0.09,0.21,0.13 l0.09,0.05l0.23,0.14l0.11,0.06l0.07,0.04l0.07,0.04c0.11,0.06,0.21,0.11,0.32,0.16c0.05,0.02,0.1,0.05,0.15,0.07l0.05,0.02 c0.32,0.14,0.63,0.24,0.95,0.32l0.06,0.01l0.07,0.02c0.02,0,0.05,0.01,0.07,0.02c0.07,0.01,0.13,0.03,0.2,0.04 c0.05,0.01,0.1,0.02,0.15,0.03l0.12,0.02l0.04,0.01c0.03,0.01,0.07,0.01,0.1,0.02c0.06,0.01,0.11,0.02,0.17,0.02 c0.08,0.01,0.16,0.02,0.24,0.03c0.02,0,0.04,0.01,0.06,0.01c0.2,0.02,0.41,0.04,0.61,0.05c0.11,0.01,0.23,0.01,0.34,0.02l0.1,0 c0.22,0.01,0.44,0.02,0.66,0.02c0.14,0,0.29,0.01,0.43,0.01c0.05,0,0.1,0,0.16,0c0.07,0,0.15,0,0.22,0c0.05,0,0.11,0,0.16,0 l0.05,0c0.26-0.01,0.52-0.01,0.78-0.03c0.04,0,0.07,0,0.11-0.01l0.1-0.01c0.03,0,0.07,0,0.1-0.01c0.38-0.03,0.76-0.06,1.13-0.11 l0.1-0.01c0.09-0.01,0.19-0.02,0.28-0.04c0.04-0.01,0.08-0.01,0.12-0.02l0.1-0.01c0.08-0.01,0.15-0.02,0.23-0.03 c0.33-0.05,0.66-0.11,0.99-0.17c0.07-0.01,0.15-0.03,0.22-0.04l0.1-0.02c0.03-0.01,0.07-0.01,0.1-0.02l0.1-0.02 c0.03-0.01,0.07-0.01,0.1-0.02l0.07-0.01c0.08-0.02,0.16-0.03,0.24-0.05l0.1-0.02c0.09-0.02,0.19-0.04,0.28-0.06 c0.08-0.02,0.16-0.04,0.25-0.05l0.02-0.01c0.52-0.12,1.01-0.23,1.48-0.34l0.18-0.04c0.13-0.03,0.26-0.06,0.39-0.09l0.16-0.04 l0.07-0.02c0.19-0.04,0.37-0.09,0.55-0.14c0.11-0.03,0.22-0.06,0.32-0.08c0.31-0.08,0.63-0.16,0.94-0.25l0.14-0.04 c0.05-0.01,0.1-0.03,0.16-0.04l0.06-0.02c0.24-0.07,0.49-0.13,0.74-0.2l0.06-0.02l0.09-0.02l0.26-0.07l0.09-0.02l0.13-0.04 l0.05-0.02l0.11-0.04l0.09-0.03l0.04-0.02l0.05-0.02l0.03-0.01l0.05-0.02l0.05-0.02l0.02-0.01l0.05-0.03l0.05-0.03l0.05-0.04 l0.05-0.04c0.08-0.07,0.15-0.14,0.21-0.23l0,0c0,0,0.46,0.68,0.5,1.86c-1.04,1.49-4.31,1.99-8.84,2.59 c-4.5,0.6-7.28,0.48-9.16-0.32c-1.88-0.81-5.18-4.63-7.55-4.83c-2.36-0.2-5.15-1.45-6.3-2.12c-0.6-0.35-0.42-2.81-0.42-2.81 L107.72,231.27z"/>
</g>
<g id="Top_Basic-Boot" fill="rgb(35, 30, 30)">
<path d="M49.35,218.75c-0.62,3.05-1.6,5.71-3.64,8.28c-3.18,4.01-8.62,4.33-12.38,7.58 c-0.97,0.83-0.92,2.18-1.07,3.41c1.56,0.44,2.93,0.78,4.68,1.18c0.12-1.23-0.1-2.6,0.93-3.49c3.76-3.25,9.68-3.13,12.86-7.13 c2.08-2.62,2.09-5.99,2.69-9.13c-0.09-0.01-0.19-0.02-0.28-0.02l-0.56-0.06l-0.02,0l-0.07-0.01l-0.18-0.02l-0.28-0.04l-0.12-0.02 c-0.32-0.04-0.64-0.09-0.95-0.14l-0.49-0.1l-0.1-0.03l-0.04-0.01l-0.08-0.02l-0.34-0.08l-0.3-0.08l-0.05-0.01 C49.49,218.79,49.42,218.77,49.35,218.75z"/>
<path d="M120.71,218.75c0.63,3.05,1.6,5.71,3.64,8.28c3.18,4.01,8.62,4.33,12.38,7.58c0.96,0.83,0.92,2.18,1.07,3.41 c-1.56,0.44-2.93,0.78-4.68,1.18c-0.12-1.23,0.1-2.6-0.93-3.49c-3.76-3.25-9.68-3.13-12.86-7.13c-2.08-2.62-2.09-5.99-2.69-9.13 c0.09-0.01,0.19-0.02,0.28-0.02l0.55-0.06l0.02,0l0.07-0.01l0.18-0.02l0.28-0.04l0.12-0.02c0.32-0.04,0.64-0.09,0.95-0.14 l0.49-0.1l0.1-0.03l0.04-0.01l0.08-0.02l0.34-0.08l0.3-0.08l0.05-0.01C120.57,218.79,120.64,218.77,120.71,218.75z"/>
</g>
<g id="Side_Basic-Boot" fill="rgb(26, 19, 19)">
<path d="M60.15,218.12c-1.21,0.53-1.84,1.07-2.95,1.25c-0.06,0.01-0.12,0.02-0.18,0.03 c-0.02,0.38-0.01,0.77-0.02,1.11c-0.04,1.92,0.2,10.09,0.58,10.08c0.38-0.01,1.48-0.22,1.76-0.51c0.19-0.2,0.22-0.67,0.28-0.92 c0.19-0.81,0.37-1.63,0.5-2.45C60.29,225.59,60.12,219.79,60.15,218.12z"/>
<path d="M109.91,218.12c1.21,0.53,1.85,1.07,2.95,1.25c0.06,0.01,0.12,0.02,0.18,0.03c0.02,0.38,0.01,0.77,0.02,1.11 c0.04,1.92-0.2,10.09-0.57,10.08c-0.38-0.01-1.48-0.22-1.76-0.51c-0.19-0.2-0.22-0.67-0.28-0.92c-0.19-0.81-0.37-1.63-0.5-2.45 C109.77,225.59,109.95,219.79,109.91,218.12z"/>
</g>
</g>
</g>
<g id="Gloves">
<g id="Left-Glove"><g id="Basic_Left_Glove" class="option" fill="rgb(36, 30, 26)" style="display: inherit;">
<path d="M133.16,120.46c-0.46-0.03-0.9-0.01-1.36,0.09c-0.31,0.07-0.62,0.16-0.9,0.34 c-0.85,0.55-0.62,1.76,0.14,2.21c0.89,0.53,2.29,0.01,2.69-1.02C133.9,121.66,133.39,120.86,133.16,120.46"/>
<path d="M131.6,121.51c-0.46-0.02-0.9-0.02-1.36,0.09c-0.31,0.07-0.62,0.16-0.9,0.34c-0.85,0.55-0.62,1.76,0.14,2.21 c0.89,0.53,2.29,0.01,2.69-1.02C132.34,122.71,131.83,121.91,131.6,121.51"/>
<path d="M130.49,122.93c-0.46,0.05-1.02,0.12-1.46,0.3c-0.3,0.12-0.59,0.25-0.85,0.47c-0.78,0.68-0.4,1.83,0.4,2.17 c0.94,0.39,2.27-0.34,2.55-1.42C131.24,124.01,130.49,122.93,130.49,122.93z"/>
<path d="M127.97,106.79c0,0-1.34,2.09-1.69,3.59c-0.25,1.06-0.11,3.58-0.43,5.28c-0.31,1.7-0.59,2.64-0.59,2.64 s-1.18,2.71-0.98,3.34c0.21,0.62,1.25,1.18,1.84,0.85c0.74-0.41,1.66-2.32,2.24-3.67c0.59-1.37,1.08-3.32,1.08-3.32 s0.81,0.32,1.23,0.68c1.38,1.2,0.78,4.82,0.78,4.82s-0.57,1.29-1.43,2.75c-1.17,1.99-2.97,3.7-1.78,5.22 c1.11,1.42,3.63-2.31,3.63-2.31l2.47-3.62c0,0,2.84-5.26,2.98-6.28c0.11-0.78,0.01-3.38,0.01-3.38l-0.89-10.08l-4.5,0.42 l-3.7,1.36L127.97,106.79"/>
</g>
</g>
<g id="Right-Glove"><g id="Basic_Right_Glove" class="option" fill="rgb(38, 35, 34)" style="display: inherit;">
<path d="M36.86,120.46c0.46-0.03,0.9-0.01,1.36,0.09c0.31,0.07,0.62,0.16,0.9,0.34c0.85,0.55,0.62,1.76-0.14,2.21 c-0.89,0.53-2.29,0.01-2.69-1.02C36.12,121.66,36.64,120.86,36.86,120.46"/>
<path d="M38.42,121.51c0.46-0.02,0.9-0.02,1.36,0.09c0.31,0.07,0.62,0.16,0.9,0.34c0.85,0.55,0.62,1.76-0.14,2.21 c-0.89,0.53-2.29,0.01-2.69-1.02C37.68,122.71,38.2,121.91,38.42,121.51"/>
<path d="M39.54,122.93c0.46,0.05,1.02,0.12,1.46,0.3c0.3,0.12,0.6,0.25,0.85,0.47c0.78,0.68,0.4,1.83-0.4,2.17 c-0.94,0.39-2.27-0.34-2.55-1.42C38.78,124.01,39.54,122.93,39.54,122.93z"/>
<path d="M42.06,106.79c0,0,1.34,2.09,1.69,3.59c0.25,1.06,0.11,3.58,0.43,5.28c0.31,1.7,0.59,2.64,0.59,2.64 s1.18,2.71,0.98,3.34c-0.21,0.62-1.24,1.18-1.84,0.85c-0.74-0.41-1.66-2.32-2.24-3.67c-0.59-1.37-1.08-3.32-1.08-3.32 s-0.81,0.32-1.23,0.68c-1.38,1.2-0.78,4.82-0.78,4.82s0.57,1.29,1.43,2.75c1.17,1.99,2.97,3.7,1.78,5.22 c-1.11,1.42-3.63-2.31-3.63-2.31l-2.47-3.62c0,0-2.84-5.26-2.98-6.28c-0.11-0.78-0.01-3.38-0.01-3.38l0.89-10.08l4.5,0.42 l3.7,1.36L42.06,106.79"/>
</g>
</g>
</g>
<g id="Biceps">
<g id="Left-Biceps">
<g id="None_Biceps_Left" class="option" style="display: inherit;">
</g></g>
<g id="Right-Biceps">
<g id="None_Biceps_Right" class="option" style="display: inherit;">
</g></g>
</g>
<g id="BicepsDecals" mask="url(#BicepsMask)">
</g>
<path id="Vest" d="M91.61,82.96c-4.3,0.88-8.84,0.88-13.14,0c-4.33-0.88-12.83-5.29-12.83-5.29s-7.42-23.26-8.75-30.06 c-1.06-5.39-1.42-14.37-1.42-14.37l-12.73,8.52l-2.71-1.15c0,0,7.62-16.73,12.62-21.57c4.53-4.39,17.42-7.5,17.42-7.5 s5.68,6.2,14.97,6.25c8.84,0.04,14.97-6.25,14.97-6.25s12.89,3.12,17.42,7.5c5.01,4.85,12.62,21.57,12.62,21.57l-2.71,1.15 l-12.73-8.52c0,0-0.36,8.98-1.42,14.37c-1.33,6.79-8.76,30.06-8.76,30.06S95.93,82.08,91.61,82.96z" fill="rgb(32, 28, 26)"/>
<g id="SuitDecals" mask="url(#SuitMask)">
</g>
<g class="swappable" id="Chest"><g id="Chest_Heavy">
<g id="Abdomen_Heavy">
<g id="Under-Plates_Abdomen_Heavy" fill="rgb(85, 82, 82)">
<rect x="74.96" y="63.98" width="20.11" height="2.55"/>
<rect x="74.96" y="66.53" width="20.11" height="2.55"/>
<rect x="74.96" y="69.09" width="20.11" height="2.55"/>
<rect x="74.96" y="71.64" width="20.11" height="2.55"/>
<rect x="74.96" y="74.19" width="20.11" height="2.55"/>
</g>
<g id="Abdomen-Plate_Heavy" fill="rgb(47, 46, 46)">
<path d="M78.84,55.74l-10.02,4.23l-0.94-2.27l10.96-4.63V55.74z"/>
<path d="M72.34,68.46l-3.51-8.48l10.02-4.23l3.14,8.92L72.34,68.46z"/>
<path d="M67.88,57.7l-4.22,0.73l6.21,14.69l4.24-0.83L67.88,57.7z"/>
<path d="M91.19,55.74l10.02,4.23l0.94-2.27l-10.96-4.63V55.74z"/>
<path d="M97.7,68.46l3.51-8.48l-10.02-4.23l-3.14,8.92L97.7,68.46z"/>
<path d="M102.15,57.7l4.22,0.73l-6.21,14.69l-4.24-0.83L102.15,57.7z"/>
<rect x="78.88" y="53.08" width="12.28" height="2.67"/>
<path d="M81.98,64.66l-3.14-8.92h12.35l-3.14,8.92H81.98z"/>
</g>
</g>
<g id="Neck-Armor_Heavy">
<g id="Neck-Plate_Heavy" fill="rgb(23, 18, 16)">
<path d="M71.21,11.33l-8.68,1.89c0,0,0.4,1.54,0.83,3.22c0.62,2.4,3.02,3.88,5.45,3.35c0,0,0,0,0,0 c1.14-0.25,2.12-0.95,2.73-1.94c0.61-0.99,0.79-2.19,0.5-3.31C71.6,12.86,71.21,11.33,71.21,11.33z"/>
<path d="M98.83,11.33l8.68,1.89c0,0-0.4,1.54-0.83,3.22c-0.62,2.4-3.03,3.88-5.45,3.35c0,0,0,0,0,0 c-1.14-0.25-2.12-0.95-2.73-1.94c-0.61-0.99-0.79-2.19-0.5-3.31C98.43,12.86,98.83,11.33,98.83,11.33z"/>
</g>
<g id="Secondary_Neck-Plate_Heavy" fill="rgb(28, 25, 25)">
<path d="M69.05,11.48l-4.37,0.95c0,0,0.32,1.23,0.62,2.41c0.31,1.21,1.52,1.95,2.74,1.69h0 c0.57-0.12,1.07-0.48,1.38-0.98c0.31-0.5,0.4-1.1,0.25-1.67C69.36,12.71,69.05,11.48,69.05,11.48z"/>
<path d="M100.99,11.48l4.37,0.95c0,0-0.32,1.23-0.62,2.41c-0.31,1.21-1.52,1.95-2.74,1.69h0 c-0.57-0.12-1.07-0.48-1.38-0.98c-0.31-0.5-0.4-1.1-0.25-1.67C100.67,12.71,100.99,11.48,100.99,11.48z"/>
</g>
</g>
<g id="Full-Chest_Heavy">
<path id="Under-Plate_Chest_Heavy" d="M89.97,50.06h-9.92l-2.49,2.13v1.42l1.31-0.54h12.28l1.31,0.55v-1.44 L89.97,50.06z" fill="rgb(145, 33, 0)"/>
<g id="Chest-Plate_Heavy" fill="rgb(47, 46, 46)">
<path d="M67.67,56.46l8.79-5.08l1.19-2.41l2.34,0.31h10.02l2.35-0.31l1.19,2.41l8.79,5.08l4.09,0.89l-0.1,1.49 l-4.37-0.76l-9.51-3.94v-1.96l-2.49-2.13h-9.92l-2.49,2.13v1.96l-9.5,3.94l-4.37,0.76l-0.1-1.49L67.67,56.46z"/>
<path d="M106.44,57.35l5.09-13l0.75,2.66l-1.61,9.67L106.44,57.35z"/>
<path d="M57.75,47.02l0.75-2.66l5.09,13l-4.23-0.67L57.75,47.02z"/>
<path d="M63.45,39.29v-5.43l-0.42-9.74l2.54-2.79l7.68-1.59l1.99,2.32H94.8l1.99-2.32l7.68,1.59l2.54,2.79 l-0.41,9.5l-0.01-0.02v5.69l-14.21,9.69l-2.35,0.31H80.01l-2.34-0.31L63.45,39.29z"/>
<path d="M106.58,33.87v5.43l4.95,5.06L106.58,33.87z"/>
<path d="M77.66,48.98l-14.21-9.69l-4.95,5.06l5.09,13l4.09-0.89l8.79-5.08L77.66,48.98z"/>
<path d="M111.54,44.36l-5.09,13l-4.09-0.89l-8.79-5.08l-1.19-2.41l14.21-9.69L111.54,44.36z"/>
<path d="M110.67,56.69l-0.17,1.04l-4.16,1.12l0.1-1.49L110.67,56.69z"/>
<path d="M63.45,33.87v5.43l-4.95,5.06L63.45,33.87z"/>
<path d="M63.03,24.13c-0.05,4.99-0.64,9.99-2.06,14.98l2.48-5.25L63.03,24.13z"/>
<path d="M107.01,24.13c0.05,4.99,0.64,9.99,2.06,14.98l-2.48-5.25L107.01,24.13z"/>
<path d="M63.59,57.35l0.1,1.49l-4.16-1.12l-0.17-1.04L63.59,57.35z"/>
</g>
<g id="Accents_Chest-Plate_Heavy" class="toggle">
<g id="Accent-3_Accents_Chest-Plate_Heavy" fill="rgb(145, 33, 0)">
<path d="M96.64,33.73l-0.52-1.62h2.37l-0.52,1.62H96.64z"/>
<path d="M96.64,36.86l-0.52-1.62h2.37l-0.52,1.62H96.64z"/>
<rect x="95.11" y="24.12" width="4.45" height="0.49"/>
<rect x="95.11" y="25.67" width="4.45" height="0.49"/>
</g>
<path id="Accent-2_Accents_Chest-Plate_Heavy" d="M71.9,21.57c-0.11-1.4-1.32-2.46-2.72-2.37c0,0,0,0,0,0 c-0.67,0.04-1.29,0.35-1.73,0.86s-0.66,1.17-0.61,1.84c0.06,0.77,0.12,1.63,0.18,2.4c0.11,1.4,1.32,2.46,2.72,2.37c0,0,0,0,0,0 c0.67-0.04,1.29-0.35,1.73-0.86c0.44-0.51,0.66-1.17,0.61-1.84C72.03,23.2,71.96,22.35,71.9,21.57z" fill="rgb(30, 36, 43)"/>
<g id="Accent-1_Accents_Chest-Plate_Heavy" fill="rgb(45, 46, 47)">
<path d="M71.17,19.59l-3.91,0.25l0.49,6.44l3.91-0.25L71.17,19.59z"/>
<path d="M70.74,20.09l-2.98,0.19l0.07,0.92l2.98-0.19L70.74,20.09z"/>
<path d="M68.24,21.18l-0.41,0.03l0.38,5.05l0.41-0.03L68.24,21.18z"/>
<path d="M68.67,21.15l-0.41,0.03l0.38,5.05l0.41-0.03L68.67,21.15z"/>
<path d="M70.81,21.01l-0.41,0.03l0.38,5.05l0.41-0.03L70.81,21.01z"/>
<path d="M70.38,21.04l-0.41,0.03l0.38,5.05l0.41-0.03L70.38,21.04z"/>
<path d="M69.53,21.1l-0.41,0.03l0.38,5.05l0.41-0.03L69.53,21.1z"/>
<path d="M69.95,21.07l-0.41,0.03l0.38,5.05l0.41-0.03L69.95,21.07z"/>
<path d="M69.1,21.12l-0.41,0.03l0.38,5.05l0.41-0.03L69.1,21.12z"/>
</g>
</g>
</g>
<g id="Iron-Heart_Heavy">
<path id="Heart_Heavy" d="M85.02,29.22l2.92,2.69v5.28l-2.92,2.69L82.1,37.2v-5.28L85.02,29.22z" fill="rgb(45, 46, 47)"/><g id="Center_Heart_Heavy" class="option" fill="rgb(36, 30, 26)" style="display: inherit;">
<rect x="83.95" y="31.99" width="2.13" height="2.56"/>
<rect x="83.95" y="34.55" width="0.36" height="2.56"/>
<rect x="85.37" y="34.55" width="0.36" height="2.56"/>
<rect x="85.72" y="34.55" width="0.36" height="2.56"/>
<rect x="84.66" y="34.55" width="0.36" height="2.56"/>
<rect x="85.01" y="34.55" width="0.36" height="2.56"/>
<rect x="84.3" y="34.55" width="0.36" height="2.56"/>
</g>
</g>
</g></g>
<g id="ChestDecals" mask="url(#ChestMask)">
</g>
<g id="Chest-Attachments">
<g id="Pilot-Box_Accessories_Chest" class="option" style="display: inherit;">
<g id="Main_Pilot-Box_Accessories_Chest" fill="rgb(29, 25, 23)">
<rect x="75.28" y="29.02" width="4.83" height="7.74"/>
<rect x="72.34" y="42.34" width="25.44" height="0.86"/>
<path d="M97.78,27.11c0-0.27-0.11-0.53-0.3-0.72c-0.19-0.19-0.45-0.3-0.72-0.3h-23.4c-0.27,0-0.53,0.11-0.72,0.3 c-0.19,0.19-0.3,0.45-0.3,0.72v15.23h25.44V27.11z"/>
<path d="M97.78,43.2H72.34l1.56,2.31h22.31L97.78,43.2z"/>
<rect x="74.3" y="45.22" width="8.33" height="7.99"/>
<rect x="72.37" y="46.82" width="1.93" height="4.81"/>
<rect x="95.79" y="46.82" width="1.93" height="4.81"/>
<rect x="87.51" y="45.22" width="8.32" height="7.99"/>
<rect x="82.63" y="45.22" width="1.11" height="7.99"/>
<rect x="86.39" y="45.22" width="1.11" height="7.99"/>
</g>
<g id="Parts-2_Pilot-Box_Accessories_Chest" fill="rgb(39, 43, 48)">
<rect x="70.44" y="47.03" width="1.93" height="4.38"/>
<rect x="97.72" y="47.03" width="1.93" height="4.38"/>
<rect x="83.74" y="45" width="2.65" height="8.44"/>
<path d="M89.24,28.04H74.3v9.69h14.94V28.04z M80.11,29.02h-4.83v7.74h4.83V29.02z"/>
</g>
<g id="Parts-1_Pilot-Box_Accessories_Chest" fill="rgb(85, 82, 82)">
<ellipse cx="77.69" cy="31.17" rx="1.18" ry="1.17"/>
<ellipse cx="77.69" cy="34.56" rx="1.18" ry="1.17"/>
<g>
<g>
<path d="M70.44,47.51l-4.51,0.08c-0.64,0-1.12-0.02-1.37-0.33c-0.17-0.21-0.19-0.5-0.2-0.84 c-0.02-0.65,0.1-1.41,0.3-2.28c1.2-5.24,5.07-13.63,5.52-22.78c0.34-6.72-1.78-17.34-1.78-17.34c-0.18-0.92-1.08-1.51-2-1.33 c-0.92,0.18-1.52,1.08-1.34,1.99c0,0,2.04,10.11,1.72,16.51c-0.31,6.17-2.25,11.96-3.78,16.62c-1.11,3.37-1.98,6.2-2.05,8.22 c-0.05,1.56,0.35,2.75,1.15,3.58c0.77,0.81,1.98,1.37,3.86,1.37c0.03,0,4.48-0.08,4.48-0.08V47.51z"/>
<path d="M66.11,11.05l3.39-0.28"/>
<path d="M65.82,9.03l3.39-0.3"/>
<path d="M66.41,13.42l3.38-0.29"/>
<path d="M66.65,15.97l3.39-0.28"/>
<path d="M66.82,18.5l3.39-0.28"/>
<path d="M66.82,20.55l3.39,0.06"/>
<path d="M66.69,22.58l3.38,0.47"/>
<path d="M66.44,24.66l3.35,0.63"/>
<path d="M66.08,26.82l3.27,0.96"/>
<path d="M65.59,29.11l3.27,0.91"/>
<path d="M65.09,31.07l3.29,0.81"/>
<path d="M64.47,33.2l3.33,0.69"/>
<path d="M63.86,35.17l3.27,0.88"/>
<path d="M63.22,37.14l3.24,1"/>
<path d="M62.49,39.41l3.28,0.87"/>
<path d="M61.81,41.63l3.26,0.94"/>
<path d="M61.21,44.05l3.45,0.09"/>
<path d="M60.96,46.71l3.45-1.22"/>
<path d="M61.81,49.26l2.56-2.56"/>
<path d="M63.97,50.72l0.69-3.35"/>
<path d="M66.29,50.98l0.07-3.4"/>
<path d="M68.48,50.93v-3.39"/>
</g>
<g>
<path d="M99.65,47.51l4.51,0.08c0.64,0,1.12-0.02,1.37-0.33c0.17-0.21,0.19-0.5,0.2-0.84 c0.02-0.65-0.1-1.41-0.3-2.28c-1.2-5.24-5.07-13.63-5.52-22.78c-0.34-6.72,1.78-17.34,1.78-17.34c0.18-0.92,1.08-1.51,2-1.33 c0.92,0.18,1.52,1.08,1.34,1.99c0,0-2.04,10.11-1.72,16.51c0.31,6.17,2.25,11.96,3.78,16.62c1.11,3.37,1.98,6.2,2.05,8.22 c0.05,1.56-0.35,2.75-1.15,3.58c-0.77,0.81-1.98,1.37-3.86,1.37c-0.03,0-4.48-0.08-4.48-0.08V47.51z"/>
<path d="M103.98,11.05l-3.39-0.28"/>
<path d="M104.28,9.03l-3.39-0.3"/>
<path d="M103.69,13.42l-3.38-0.29"/>
<path d="M103.44,15.97l-3.39-0.28"/>
<path d="M103.27,18.5l-3.39-0.28"/>
<path d="M103.27,20.55l-3.39,0.06"/>
<path d="M103.41,22.58l-3.38,0.47"/>
<path d="M103.65,24.66l-3.35,0.63"/>
<path d="M104.01,26.82l-3.27,0.96"/>
<path d="M104.51,29.11l-3.27,0.91"/>
<path d="M105.01,31.07l-3.29,0.81"/>
<path d="M105.62,33.2l-3.33,0.69"/>
<path d="M106.23,35.17l-3.27,0.88"/>
<path d="M106.87,37.14l-3.24,1"/>
<path d="M107.61,39.41l-3.28,0.87"/>
<path d="M108.29,41.63l-3.26,0.94"/>
<path d="M108.89,44.05l-3.45,0.09"/>
<path d="M109.13,46.71l-3.45-1.22"/>
<path d="M108.29,49.26l-2.56-2.56"/>
<path d="M106.13,50.72l-0.69-3.35"/>
<path d="M103.8,50.98l-0.07-3.4"/>
<path d="M101.61,50.93v-3.39"/>
</g>
</g>
<rect x="80.88" y="48.45" width="2.3" height="1.53"/>
<rect x="86.91" y="48.45" width="2.3" height="1.53"/>
<path d="M69.76,3.82c0-0.64-0.53-1.17-1.18-1.17h-2.66c-0.65,0-1.18,0.52-1.18,1.17v2.34c0,0.64,0.53,1.17,1.18,1.17 h2.66c0.65,0,1.18-0.52,1.18-1.17V3.82z"/>
<rect x="65.93" y="2.65" width="0.36" height="4.68"/>
<path d="M100.34,3.82c0-0.64,0.53-1.17,1.18-1.17h2.66c0.65,0,1.18,0.52,1.18,1.17v2.34c0,0.64-0.53,1.17-1.18,1.17 h-2.66c-0.65,0-1.18-0.52-1.18-1.17V3.82z"/>
<rect x="103.81" y="2.65" width="0.36" height="4.68"/>
</g>
<g id="Buttons-2_Pilot-Box_Accessories_Chest" fill="rgb(41, 84, 116)">
<ellipse cx="80.67" cy="39.9" rx="0.59" ry="0.58"/>
<rect x="92.58" y="33.9" width="1.57" height="3.83"/>
<rect x="82.82" y="29.02" width="5.44" height="1.22"/>
<rect x="86.04" y="30.53" width="2.22" height="1.22"/>
<ellipse cx="84.83" cy="39.9" rx="0.59" ry="0.58"/>
</g>
<g id="Buttons-1_Pilot-Box_Accessories_Chest" fill="rgb(52, 46, 44)">
<rect x="92.58" y="28.04" width="1.57" height="3.83"/>
<rect x="82.82" y="30.53" width="2.22" height="1.22"/>
<ellipse cx="78.71" cy="39.9" rx="0.59" ry="0.58"/>
<ellipse cx="82.68" cy="39.9" rx="0.59" ry="0.58"/>
</g>
</g></g>
<g id="Collar"><g id="None_Collar" class="option" style="display: inherit;">
</g>
</g>
<g id="CollarDecals" mask="url(#CollarMask)">
</g>
<g id="Helmets" class="swappable" transform="translate(45,-52)"><g id="Helmet_Tracker">
<g id="Left-Earcap_Tracker" class="toggle">
<g id="Ear-Cap_Left_Tracker" fill="rgb(95, 93, 93)">
<path d="M57.17,37.8h1.76v19.63h-1.76V37.8"/>
<path d="M58.24,58.64h0.52l0.85-0.79v-0.42h-1.37V58.64"/>
<path d="M58.24,44.58h0.85v2.54h-0.85V44.58"/>
</g></g>
<g id="Right-Earcap_Tracker" class="toggle">
<g id="Ear-Cap_Right_Tracker" fill="rgb(95, 93, 93)">
<path d="M22.75,37.8h-1.76v19.63h1.76V37.8"/>
<path d="M21.67,58.64h-0.52l-0.85-0.79v-0.42h1.37V58.64"/>
<path d="M21.67,44.58h-0.85v2.54h0.85V44.58"/>
</g></g>
<g id="Helmet_Pieces_Tracker">
<g id="Face_Tracker" fill="rgb(62, 62, 62)">
<path d="M44.22,65.81l5.06-14.85l6.09-4.1l1.86,11.96l-0.93-0.07c0,0-2.55,0.86-5.76,2.93 C48.58,62.95,44.22,65.81,44.22,65.81"/>
<path d="M35.69,65.81l-5.07-14.85l-6.09-4.1l-1.86,11.96l0.93-0.07c0,0,2.55,0.86,5.76,2.93 C31.33,62.95,35.69,65.81,35.69,65.81"/>
</g>
<g id="Cheeks_Tracker" fill="rgb(37, 38, 39)">
<path d="M57.24,43.36c-0.16,0.08-0.34,0.16-0.54,0.23l-1.33,3.27l1.86,11.96V43.36L57.24,43.36"/>
<path d="M56.71,43.58c-0.19,0.07-0.41,0.12-0.64,0.17c-1.8,0.34-4.55,0.66-4.55,0.66l-2.23,6.54l6.03-4.08 L56.71,43.58L56.71,43.58"/>
<path d="M22.67,43.36c0.16,0.08,0.34,0.16,0.54,0.23l1.33,3.27l-1.86,11.96V43.36L22.67,43.36"/>
<path d="M23.21,43.58c0.2,0.07,0.41,0.12,0.64,0.17c1.8,0.34,4.55,0.66,4.55,0.66l2.23,6.54l-6.03-4.08L23.21,43.58 L23.21,43.58"/>
</g>
<path fill="rgb(16, 22, 25)" id="Visor_Tracker" d="M37.69,67.49l-1.23-25.83l-3.38-3.09l-10.16-0.03l-0.26-2.22 c0.74-1.12,2.46-1.69,5.48-2.22c1.46-0.26,6.64-0.39,11.83-0.39h0.12c5.14,0,10.26,0.14,11.71,0.39c3.01,0.53,4.74,1.1,5.48,2.22 L57,38.54l-10.16,0.03l-3.38,3.09l-1.23,25.83H37.69"/>
<g id="Eyes_Tracker" fill="rgb(41, 84, 116)">
<path d="M58.26,42.62c-0.21,0.22-0.54,0.5-1.02,0.74l0,0v15.46h1.02V42.62L58.26,42.62"/>
<path d="M21.66,42.62c0.21,0.22,0.54,0.5,1.02,0.74l0,0v15.46h-1.02V42.62L21.66,42.62"/>
<path d="M39.84,33.7c-5.14,0-10.25,0.14-11.71,0.39c-3.02,0.53-4.74,1.1-5.48,2.22l0.26,2.22l-1.18,0.03l-0.3-2.13 L21.52,36c0.49-0.98,3.29-3.03,18.16-2.69h0.56C55.11,32.97,57.9,35.02,58.4,36l0.08,0.44l-0.3,2.13L57,38.54l0.26-2.22 c-0.74-1.12-2.46-1.69-5.48-2.22c-1.46-0.26-6.64-0.39-11.83-0.39H39.84"/>
<path d="M43.52,27.29l-2.57-2.39v-7.16h1.65c0,0,0.26,1.36,2.9,2.32c2.64,0.95,10.62,3.15,12.39,10.84 c0.84,3.66,0.67,5.53,0.67,5.53l-0.01,5.82c0,0-0.68,1.16-2.48,1.5c-1.8,0.34-4.55,0.66-4.55,0.66l-7.29,21.39l-2,1.68 l1.23-25.83l3.58-3.27l8.15,0.11l2.99,0.07l0.32-2.26c-0.08-0.74-1.54-3.41-18.53-3c-17-0.41-18.45,2.26-18.53,3l0.32,2.26 l2.99-0.07l8.15-0.11l3.58,3.27l1.23,25.83l-2-1.68l-7.3-21.39c0,0-2.75-0.32-4.55-0.66s-2.49-1.5-2.49-1.5l-0.01-5.82 c0,0-0.17-1.87,0.67-5.53c1.77-7.69,9.76-9.89,12.39-10.84c2.64-0.95,2.9-2.32,2.9-2.32h1.65v7.16l-2.57,2.39H43.52"/>
<path d="M22.65,36.32l-1.19-0.01"/>
<path d="M57.26,36.32l1.19-0.01"/>
</g>
<g id="Dome-2_Tracker" fill="rgb(193, 95, 30)">
<path d="M42.99,18.46c0.38,0.47,1.11,1.09,2.51,1.6c1.68,0.61,5.53,1.72,8.56,4.44l0,0 C50.63,18.85,43,18.46,42.99,18.46"/>
<path d="M36.93,18.46c-0.38,0.47-1.11,1.09-2.51,1.6c-1.68,0.61-5.53,1.72-8.56,4.44l0,0 C29.29,18.85,36.92,18.46,36.93,18.46"/>
</g>
<path id="Dome-1_Tracker" d="M36.4,27.29l2.57-2.39v-6.57l0.99,0.02l0.99-0.02v6.57l2.57,2.39H36.4" fill="rgb(193, 95, 30)"/>
</g>
</g></g>
<g id="HelmetsDecals" mask="url(#HelmetsMask)"/>
<g id="Shoulders">
<g id="Left-Shoulder"><g id="Classic_Shoulder_Left" class="option" style="display: inherit;">
<path id="Main_Shoulder_Classic_Left" d="M115.19,13.78l-2.62,11.77l2.09,6.77l14.01,7.05l2.36-3.6L115.19,13.78z" fill="rgb(41, 84, 116)"/>
<path id="Trauma-Plates_Shoulder_Classic_Left" class="toggle" style="display:none" d="M114.4,25.47l1.74,5.62l11.93,6l2.02-3.08 l-13.43-18.68L114.4,25.47z" fill="rgb(255, 255, 255)"/>
</g>
</g>
<g id="Right-Shoulder"><g id="Gunslinger-Bell_Shoulder_Right" class="option" style="display: inherit;">
<path id="Main_Gunslinger-Bell_Shoulder_Right" d="M59.33,13.82c-6.4-0.15-20.68,4.95-20.11,23.11l0.08,3.59 l12.44,5.07L62.64,31.1l0-17.28L59.33,13.82z" fill="rgb(47, 46, 46)"/>
<path id="Ridge_Gunslinger-Bell_Shoulder_Right" class="toggle" d="M62.63,13.82L62.63,13.82l0-2.1 c-13.61-0.07-26.49,5.76-25.51,28.19l2.09,0.49c0.02-0.26,0.04-0.53,0.06-0.78l-0.06-2.69c-0.57-18.16,13.71-23.26,20.11-23.11 h0.71C61.45,13.62,62.41,13.67,62.63,13.82L62.63,13.82L62.63,13.82z" fill="rgb(193, 95, 30)"/>
<g id="Trim_Gunslinger-Bell_Shoulder_Right" class="toggle" fill="rgb(47, 46, 46)">
<rect x="59.33" y="13.01" width="3.31" height="18.12"/>
<path d="M59.33,30.01l3.31,1.09L51.72,45.61l-2.65-1.97L59.33,30.01z"/>
<path d="M50.62,41.58l1.16,4.03l-13.06-5.33v-3.56L50.62,41.58z"/>
</g>
</g></g>
</g>
<g id="ShouldersDecals" mask="url(#ShouldersMask)">
</g>
<g id="Gauntlets">
<g id="Left-Gauntlets"><g id="Heavy_Gauntlet_Left" class="option" style="display: inherit;">
<g id="Top-2_Heavy_Gauntlet_Left" fill="rgb(41, 41, 41)">
<path d="M138.59,76.62l1.79,0.28l0.78,8.51l-1.63,1.15L138.59,76.62z"/>
<path d="M139.46,85.82l0.98,11.09l-1.1,1.25l0.62,6.53l-0.49,0.3l-1.72-17.87L139.46,85.82z"/>
<path d="M139.73,82.71c0.22,0.02,0.38,0.21,0.36,0.42c-0.02,0.21-0.21,0.37-0.42,0.36 c-0.22-0.02-0.38-0.21-0.36-0.42C139.33,82.85,139.52,82.69,139.73,82.71z"/>
</g>
<g id="Top-1_Heavy_Gauntlet_Left" fill="rgb(62, 62, 62)">
<path d="M134.86,105.83l4.61-0.85l-1.72-17.87l1.71-1.29l-0.92-9.74l-6.76-1.25L134.86,105.83z"/>
<path d="M136.79,75.76l0.96,11.35"/>
</g>
<g id="Accent-Top_Heavy_Gauntlet_Left" fill="rgb(41, 41, 41)">
<path d="M138.4,102.17l-2.92,0.35l0.25,2.26l2.93-0.44L138.4,102.17z"/>
<path d="M137.36,92.7l-2.92,0.35l0.96,8.83l2.92-0.35L137.36,92.7z"/>
<path d="M136.12,76.34l-3.22-0.51l0.91,9.67l3.06-0.36L136.12,76.34z"/>
</g>
<path id="Bottom_Heavy_Gauntlet_Left" d="M131.82,75.29c-3.5-0.15-7.25,1.05-9.76,3.79 c-0.81,0.89-1.14,2.11-0.88,3.29c1.24,5.67,5.3,24.23,5.3,24.23l8.38-0.76L131.82,75.29z" fill="rgb(52, 53, 54)"/>
<g id="Accent-Bottom_Heavy_Gauntlet_Left" fill="rgb(29, 30, 30)">
<path d="M134.86,105.83l-8.38,0.76l-0.33-1.5l8.54-0.89L134.86,105.83z"/>
<path d="M132.02,77.36c-4.54,0.08-8.44,1.41-10.6,6.11l-0.24-1.11c-0.2-0.92-0.04-1.88,0.43-2.68l0.48-0.64 c2.51-2.72,6.24-3.91,9.72-3.75L132.02,77.36z"/>
<path d="M130.96,75.89l-3.7,0.42l1.68,14.61l3.7-0.42L130.96,75.89z"/>
<path d="M130.51,76.22l-2.73,0.31l1.55,13.51l2.73-0.31L130.51,76.22z"/>
<path d="M127.78,76.53l-0.52-0.22"/>
<path d="M130.96,75.89l-0.46,0.33"/>
<path d="M132.64,90.5l-0.58-0.77"/>
<path d="M128.95,90.92l0.46-0.89"/>
</g><g id="Flamethrower_Attachment_Heavy_Gauntlet_Left" class="option" style="display: inherit;">
<g id="Tubes_Flamethrower_Attachment_Heavy_Gauntlet_Left" fill="rgb(67, 67, 67)">
<path d="M140.12,76.96l-0.86,0.08l2.38,26.12l0.86-0.08L140.12,76.96z"/>
<path d="M142.09,76.78l-0.86,0.08l1.71,18.73l0.86-0.08L142.09,76.78z"/>
<path d="M140.54,78.57l-1.3,0.12l0.57,6.22l1.3-0.12L140.54,78.57z"/>
<path d="M142.4,78.4l-1.19,0.11l0.57,6.22l1.19-0.11L142.4,78.4z"/>
</g>
<g id="Main_Flamethrower_Attachment_Heavy_Gauntlet_Left" fill="rgb(50, 51, 53)">
<path d="M142.43,76.35l-3.55,0.32l0.18,2.04l3.55-0.32L142.43,76.35z"/>
<path d="M143.26,84.6l-3.71,0.33l0.09,1l3.71-0.33L143.26,84.6z"/>
<path d="M143.19,85.61l-3.4,0.31l0.04,0.5l3.4-0.31L143.19,85.61z"/>
<path d="M139.87,84.28l-0.57,0.07l0.28,3.04l0.57-0.07L139.87,84.28z"/>
</g>
<g id="Accent_Flamethrower_Attachment_Heavy_Gauntlet_Left" fill="rgb(39, 45, 53)">
<path d="M143.83,95.5l-0.92,0.08l-0.03,1.29l1.21-0.11L143.83,95.5z"/>
<path d="M143.58,88.82l-1.64,0.15l0.18,1.98l1.64-0.15L143.58,88.82z"/>
<path d="M143.54,90.82l-1.19,0.11l0.18,1.98l1.19-0.11L143.54,90.82z"/>
<path d="M142.36,99.77l-1.19,0.11l0.25,2.72l1.19-0.11L142.36,99.77z"/>
<path d="M141.56,91l-1.19,0.11l0.34,3.7l1.19-0.11L141.56,91z"/>
<path d="M142.71,101.11l-1.64,0.15l0.05,0.53l1.64-0.15L142.71,101.11z"/>
</g>
<path id="Base_Flamethrower_Attachment_Heavy_Gauntlet_Left" d="M139.3,84.35l-0.77-8.24l1.02,0.3l1.3,13.94 l-0.95,0.54l-0.32-3.49l0.57-0.07l-0.28-3.04L139.3,84.35z" fill="rgb(41, 41, 41)"/>
</g></g></g>
<g id="Right-Gauntlets"><g id="Heavy_Gauntlet_Right" class="option" style="display: inherit;">
<g id="Top-2_Heavy_Gauntlet_Right" fill="rgb(29, 25, 23)">
<path d="M31.48,76.62l-1.79,0.28l-0.78,8.51l1.63,1.15L31.48,76.62z"/>
<path d="M30.61,85.82l-0.98,11.09l1.1,1.25l-0.62,6.53l0.49,0.3l1.72-17.87L30.61,85.82z"/>
<path d="M30.33,82.71c-0.22,0.02-0.38,0.21-0.36,0.42c0.02,0.21,0.21,0.37,0.42,0.36c0.22-0.02,0.38-0.21,0.36-0.42 C30.74,82.85,30.55,82.69,30.33,82.71z"/>
</g>
<g id="Top-1_Heavy_Gauntlet_Right" fill="rgb(29, 29, 29)">
<path d="M35.21,105.83l-4.61-0.85l1.72-17.87l-1.71-1.29l0.92-9.74l6.77-1.25L35.21,105.83z"/>
<path d="M33.28,75.76l-0.96,11.35"/>
</g>
<g id="Accent-Top_Heavy_Gauntlet_Right" fill="rgb(75, 74, 74)">
<path d="M31.67,102.17l2.92,0.35l-0.25,2.26l-2.93-0.44L31.67,102.17z"/>
<path d="M32.71,92.7l2.92,0.35l-0.96,8.83l-2.92-0.35L32.71,92.7z"/>
<path d="M33.94,76.34l3.22-0.51l-0.91,9.67l-3.06-0.36L33.94,76.34z"/>
</g>
<path id="Bottom_Heavy_Gauntlet_Right" d="M38.25,75.29c3.5-0.15,7.25,1.05,9.76,3.79 c0.81,0.89,1.14,2.11,0.88,3.29c-1.24,5.67-5.3,24.23-5.3,24.23l-8.38-0.76L38.25,75.29z" fill="rgb(44, 44, 44)"/>
<g id="Accent-Bottom_Heavy_Gauntlet_Right" fill="rgb(52, 52, 52)">
<path d="M35.21,105.83l8.38,0.76l0.33-1.5l-8.54-0.89L35.21,105.83z"/>
<path d="M38.04,77.36c4.54,0.08,8.44,1.41,10.6,6.11l0.24-1.11c0.2-0.92,0.04-1.88-0.43-2.68l-0.48-0.64 c-2.51-2.72-6.24-3.91-9.72-3.75L38.04,77.36z"/>
<path d="M39.1,75.89l3.7,0.42l-1.68,14.61l-3.7-0.42L39.1,75.89z"/>
<path d="M39.56,76.22l2.73,0.31l-1.55,13.51L38,89.73L39.56,76.22z"/>
<path d="M42.28,76.53l0.52-0.22"/>
<path d="M39.1,75.89l0.46,0.33"/>
<path d="M37.42,90.5L38,89.73"/>
<path d="M41.12,90.92l-0.46-0.89"/>
</g><g id="No-Device_Attachment_Heavy_Gauntlet_Right" class="option" style="display: inherit;">
</g>
</g></g>
</g>
<g id="GauntletsDecals" mask="url(#GauntletsMask)">
</g>
<g id="Shins">
<g id="Left-Shin"><g id="Wraps_Shin_Left" class="option" fill="rgb(34, 30, 28)" style="display: inherit;">
<path d="M124.88,218.82c-6.62,1.84-12.87,1.94-18.76,0.43l-1.92-10.77l19.97-0.18L124.88,218.82"/>
<path d="M124.66,210.82c-6.5,2.39-13.08,3.38-19.74,2.9l-1.69-10.65l20.5-3.25L124.66,210.82"/>
<path d="M124.46,204.87c-11.09,0.97-19.19,3.46-20.89,1.22l-1.33-10.81l21.3,0.53L124.46,204.87"/>
<path d="M124.22,198.6c0,0-7.3,0.82-10.96,0.72c-3.7-0.1-11.24-1.3-11.24-1.3l-0.49-10.29l21.6,0.04L124.22,198.6"/>
<path d="M123.53,189.3c0,0-7.38,1.46-11.13,1.77c-3.79,0.32-11.01,0.15-11.01,0.15l-0.77-10.18l22.05-2.55 L123.53,189.3"/>
<path d="M122.63,177.71l0.84,8.18c0,0-8.06-1.74-12.05-1.93c-3.94-0.18-10.98,0.75-10.98,0.75l-0.52-10.14 c0,0,8.53-1.35,12.57-1.16c3.85,0.18,9.81,1.63,9.81,1.63L122.63,177.71"/>
</g></g>
<g id="Right-Shin"><g id="Wraps_Shin_Right" class="option" fill="rgb(34, 30, 28)" style="display: inherit;">
<path d="M44.79,218.83c6.62,1.84,12.87,1.93,18.76,0.42l1.91-10.77l-19.97-0.17L44.79,218.83"/>
<path d="M45,210.83c6.51,2.39,13.08,3.37,19.74,2.89l1.68-10.65l-20.51-3.24L45,210.83"/>
<path d="M45.21,204.87c11.09,0.96,19.19,3.45,20.89,1.21l1.32-10.81l-21.3,0.54L45.21,204.87"/>
<path d="M45.44,198.61c0,0,7.3,0.81,10.96,0.72c3.7-0.1,11.24-1.3,11.24-1.3l0.48-10.29l-21.6,0.05L45.44,198.61"/>
<path d="M46.12,189.3c0,0,7.38,1.46,11.14,1.77c3.79,0.31,11.01,0.14,11.01,0.14l0.77-10.19l-22.05-2.53L46.12,189.3 "/>
<path d="M47.02,177.72l-0.84,8.18c0,0,8.06-1.75,12.05-1.94c3.94-0.19,10.98,0.75,10.98,0.75l0.52-10.14 c0,0-8.53-1.35-12.57-1.16c-3.85,0.18-9.81,1.63-9.81,1.63L47.02,177.72"/>
</g></g>
</g>
<g id="ShinsDecals" mask="url(#ShinsMask)">
</g>
<g id="Foot">
<g id="Left-Ankle"><g id="Basic_Ankle_Left" class="option" style="display: inherit;">
<path id="Main_Basic-Ankle_Left" d="M130.52,229.01l-6.81-11.93c-3.54-0.18-6.89,0.31-10.03,1.54 c-1.11,0.45-1.96,1.37-2.32,2.51c-0.02-0.01-0.02-0.01-0.02-0.01c-0.34,1.09-0.02,2.28,0.83,3.05c2.05,1.91,5.89,5.32,8.2,6.11 C125.42,232.02,130.52,229.01,130.52,229.01" fill="rgb(85, 82, 82)"/>
<path id="Trauma-Plate_Basic-Ankle_Left" class="toggle" style="display:none" d="M124.54,218.54c-3.35-0.06-8.35,0.59-11.29,1.94l-0.3,0.94 c-0.19,0.62-0.01,1.29,0.47,1.75c1.92,1.8,5.38,4.96,7.5,5.69c2.85,0.98,7.16-0.57,8.8-1.24L124.54,218.54" fill="rgb(255, 255, 255)"/>
</g>
</g>
<g id="Left-Toe"><g id="Spikes_Toe_Left" class="option" fill="rgb(98, 97, 97)" style="display: inherit;">
<path d="M129.45,239.91c3.23-0.56,6.5-1.35,9.8-2.35c0.03-0.01,0.07,0,0.1,0.02c0.03,0.02,0.04,0.05,0.05,0.09 c0,0.18,0.01,0.52,0.02,0.86c0.02,0.62-0.35,1.19-0.93,1.43c-1.96,0.75-4.3,1.31-6.94,1.71c-0.51,0.08-1.04-0.07-1.44-0.4 C129.71,240.91,129.47,240.43,129.45,239.91C129.45,239.91,129.45,239.91,129.45,239.91"/>
<path d="M134.47,241.93c0,0-2.92-0.33-4.02-0.45c-0.33-0.04-0.58-0.34-0.55-0.67c0.09-0.63,0.52-0.93,1.35-0.87 c0.11,0.01,0.21,0.04,0.3,0.1C132.08,240.36,134.47,241.93,134.47,241.93"/>
<path d="M141.77,239.8c0,0-2.55-0.22-3.57-0.31c-0.18-0.01-0.35-0.11-0.45-0.26c-0.1-0.15-0.13-0.34-0.08-0.52 c0.18-0.36,0.52-0.54,1.1-0.5c0.1,0,0.19,0.03,0.28,0.08C139.49,238.51,141.77,239.8,141.77,239.8"/>
</g></g>
<g id="Right-Ankle"><g id="Basic_Ankle_Right" class="option" style="display: inherit;">
<path id="Main_Basic-Ankle_Right" d="M39.54,229.01l6.81-11.93c3.54-0.18,6.89,0.31,10.03,1.54 c1.11,0.45,1.96,1.37,2.32,2.51c0.02-0.01,0.02-0.01,0.02-0.01c0.34,1.09,0.02,2.28-0.83,3.05c-2.05,1.91-5.89,5.32-8.2,6.11 C44.64,232.02,39.54,229.01,39.54,229.01" fill="rgb(85, 82, 82)"/>
<path id="Trauma-Plate_Basic-Ankle_Right" class="toggle" style="display:none" d="M45.52,218.54c3.35-0.06,8.35,0.59,11.29,1.94l0.3,0.94 c0.2,0.62,0.01,1.29-0.47,1.75c-1.92,1.8-5.38,4.96-7.5,5.69c-2.86,0.98-7.16-0.57-8.8-1.24L45.52,218.54" fill="rgb(255, 255, 255)"/>
</g>
</g>
<g id="Right-Toe"><g id="Spikes_Toe_Right" class="option" fill="rgb(98, 97, 97)" style="display: inherit;">
<path d="M40.55,239.91c-2.97-0.51-5.96-1.22-8.98-2.11c-0.23-0.07-0.48-0.02-0.67,0.12 c-0.19,0.14-0.31,0.36-0.32,0.6c0,0,0,0,0,0c-0.02,0.62,0.35,1.19,0.93,1.43c1.96,0.75,4.3,1.31,6.94,1.71 c0.51,0.08,1.04-0.07,1.44-0.4C40.29,240.91,40.53,240.43,40.55,239.91C40.55,239.91,40.55,239.91,40.55,239.91"/>
<path d="M35.53,241.93c0,0,2.92-0.33,4.02-0.45c0.33-0.04,0.58-0.34,0.55-0.67c-0.09-0.63-0.52-0.93-1.35-0.87 c-0.11,0.01-0.21,0.04-0.3,0.1C37.92,240.36,35.53,241.93,35.53,241.93"/>
<path d="M28.23,239.8c0,0,2.55-0.22,3.57-0.31c0.18-0.01,0.35-0.11,0.45-0.26c0.1-0.15,0.13-0.34,0.08-0.52 c-0.18-0.36-0.52-0.54-1.1-0.5c-0.1,0-0.19,0.03-0.28,0.08C30.51,238.51,28.23,239.8,28.23,239.8"/>
</g></g>
</g>
<g id="FootDecals" mask="url(#FootMask)">
</g>
<g id="Knees">
<g id="Left-Knee"><g id="Basic_Knee_Left" class="option" style="display: inherit;">
<g id="Missiles_Basic-Knee_Left" class="toggle" style="">
<path id="Base_Missiles_Basic-Knee_Left" d="M119.65,156.53c0.01,0.04,0.02,0.09,0.02,0.13 c0.2,2.01,0.56,6.29,0.42,9.97l2.39-1.43c0.39-0.23,0.62-0.65,0.61-1.1c-0.03-1.37-0.1-4.35-0.13-5.91 c-0.01-0.59-0.44-1.09-1.02-1.21L119.65,156.53z" fill="rgb(85, 82, 82)"/>
<g id="Missile-2_Missiles_Basic-Knee_Left" fill="rgb(145, 33, 0)">
<path d="M121.33,162.29c-0.59,0.07-1.01,0.6-0.93,1.19c0.07,0.59,0.62,1.01,1.21,0.94 c0.59-0.07,1.01-0.61,0.93-1.19C122.46,162.64,121.92,162.22,121.33,162.29z"/>
<path d="M121.39,162.64c-0.4,0.05-0.68,0.41-0.63,0.8c0.05,0.39,0.42,0.68,0.81,0.63c0.4-0.05,0.68-0.41,0.63-0.8 C122.15,162.88,121.78,162.6,121.39,162.64z"/>
</g>
<g id="Missile-1_Missiles_Basic-Knee_Left" fill="rgb(145, 33, 0)">
<path d="M121.19,157.64c-0.59,0.07-1.01,0.6-0.93,1.19c0.07,0.59,0.62,1.01,1.21,0.94 c0.59-0.07,1.01-0.61,0.93-1.19C122.33,157.99,121.79,157.57,121.19,157.64z"/>
<path d="M121.25,157.99c-0.4,0.05-0.68,0.41-0.63,0.8c0.05,0.4,0.41,0.68,0.81,0.63c0.4-0.05,0.68-0.41,0.63-0.8 C122.01,158.22,121.65,157.94,121.25,157.99z"/>
</g>
</g>
<g id="Knee_Basic-Knee_Left" fill="rgb(85, 82, 82)">
<path d="M97.4,158.73l1.49-0.24c0,0,1.12,7.19,1.62,10.38c0.13,0.82-0.43,1.6-1.25,1.73h0L97.4,158.73z"/>
<path d="M98.84,158.2l0.85,5.33c1.09-0.61,3.84,0.51,4.74,3.72c1.65,5.89,3.08,7.24,8.25,6.71 c4.02-0.41,6.89-2.29,7.22-5.05c0.49-4.07-0.01-9.98-0.26-12.36c-0.03-0.27-0.17-0.52-0.38-0.7c-0.22-0.17-0.49-0.25-0.77-0.21 C114.3,156.18,98.84,158.2,98.84,158.2z"/>
<path d="M98.33,158.27l0.51-0.08l0.95,5.77l-0.51,0.08L98.33,158.27z"/>
</g>
</g>
</g>
<g id="Right-Knee"><g id="Basic_Knee_Right" class="option" style="display: inherit;">
<g id="Missiles_Basic-Knee_Right" class="toggle" style="">
<path id="Base_Missiles_Basic-Knee_Right" d="M50.35,156.53c-0.01,0.04-0.02,0.09-0.02,0.13 c-0.2,2.01-0.56,6.29-0.42,9.97l-2.39-1.43c-0.39-0.23-0.62-0.65-0.61-1.1c0.03-1.37,0.1-4.35,0.13-5.91 c0.01-0.59,0.44-1.09,1.02-1.21L50.35,156.53z" fill="rgb(85, 82, 82)"/>
<g id="Missile-2_Missiles_Basic-Knee_Right" fill="rgb(145, 33, 0)">
<path d="M48.67,162.29c0.59,0.07,1.01,0.6,0.93,1.19c-0.08,0.59-0.62,1.01-1.21,0.94 c-0.59-0.07-1.01-0.61-0.93-1.19C47.54,162.64,48.08,162.22,48.67,162.29z"/>
<path d="M48.62,162.64c0.4,0.05,0.68,0.41,0.63,0.8c-0.05,0.39-0.42,0.68-0.81,0.63c-0.4-0.05-0.68-0.41-0.63-0.8 C47.85,162.88,48.22,162.6,48.62,162.64z"/>
</g>
<g id="Missile-1_Missiles_Basic-Knee_Right" fill="rgb(145, 33, 0)">
<path d="M48.81,157.64c0.59,0.07,1.01,0.6,0.93,1.19c-0.08,0.59-0.62,1.01-1.21,0.94 c-0.59-0.07-1.01-0.61-0.93-1.19C47.67,157.99,48.21,157.57,48.81,157.64z"/>
<path d="M48.75,157.99c0.4,0.05,0.68,0.41,0.63,0.8c-0.05,0.4-0.42,0.68-0.81,0.63c-0.4-0.05-0.68-0.41-0.63-0.8 C47.99,158.22,48.35,157.94,48.75,157.99z"/>
</g>
</g>
<g id="Knee_Basic-Knee_Right" fill="rgb(85, 82, 82)">
<path d="M72.6,158.73l-1.49-0.24c0,0-1.12,7.19-1.62,10.38c-0.13,0.82,0.43,1.6,1.25,1.73h0L72.6,158.73z"/>
<path d="M71.16,158.2l-0.85,5.33c-1.09-0.61-3.84,0.51-4.74,3.72c-1.65,5.89-3.08,7.24-8.25,6.71 c-4.02-0.41-6.89-2.29-7.22-5.05c-0.49-4.07,0.01-9.98,0.26-12.36c0.03-0.27,0.17-0.52,0.38-0.7c0.22-0.17,0.49-0.25,0.77-0.21 C55.7,156.18,71.16,158.2,71.16,158.2z"/>
<path d="M71.67,158.27l-0.51-0.08l-0.95,5.77l0.51,0.08L71.67,158.27z"/>
</g>
</g>
</g>
</g>
<g id="KneesDecals" mask="url(#KneesMask)">
</g>
<g id="Thighs">
<g id="Left-Thigh"><g id="Basic_Thigh_Left" class="option" style="display: inherit;">
<path id="Thigh_Basic-Thigh_Left" d="M119.66,114.13c0,0-5.22-6.67-7.89-7.78c-2.53-1.05-5.91-0.6-8.08,1.13 c-3.31,2.64-10.92,8.35-11.78,14.71c-0.96,7.1,4.24,22.8,6,27.87c0.6,1.72,2.87,2.51,4.61,2.57c3.22,0.12,12.01-0.15,14.11-4.87 C119.49,141.34,119.66,114.13,119.66,114.13" fill="rgb(44, 44, 44)"/>
<path id="Trauma-Plate_Basic-Thigh_Left" class="toggle" style="display:none" d="M117.89,114.74c-0.78-0.97-2.65-3.22-4.46-4.95 c-0.86-0.82-1.68-1.54-2.34-1.82c-1.97-0.82-4.61-0.47-6.3,0.88c-1.92,1.53-5.35,4.12-7.95,7.29c-1.58,1.92-2.88,4.05-3.18,6.29 c-0.94,6.9,4.2,22.13,5.92,27.06c0.15,0.43,0.56,0.7,0.99,0.91c0.64,0.31,1.38,0.46,2.02,0.49c1.8,0.07,5.47,0.02,8.54-1 c1.7-0.56,3.24-1.38,3.89-2.83c0.81-1.82,1.35-5.42,1.77-9.56C117.68,128.66,117.86,117.46,117.89,114.74" fill="rgb(255, 255, 255)"/>
<g id="Ridge_Basic-Thigh_Left" class="toggle" style="" fill="rgb(145, 33, 0)">
<path d="M110.85,105.79l-3.61-0.92l-3.78,2.07l1.23,45.7c2.49,0.48,2.53,0.57,4.71-0.08L110.85,105.79"/>
<path d="M107.27,104.87l-0.1,48.14"/>
</g>
</g>
</g>
<g id="Right-Thigh"><g id="Basic_Thigh_Right" class="option" style="display: inherit;">
<path id="Thigh_Basic-Thigh_Right" d="M50.34,114.13c0,0,5.22-6.67,7.89-7.78c2.53-1.05,5.91-0.6,8.08,1.13 c3.31,2.64,10.92,8.35,11.78,14.71c0.96,7.1-4.24,22.8-6,27.87c-0.6,1.72-2.87,2.51-4.61,2.57c-3.22,0.12-12.01-0.15-14.11-4.87 C50.51,141.34,50.34,114.13,50.34,114.13" fill="rgb(44, 44, 44)"/>
<path id="Trauma-Plate_Basic-Thigh_Right" class="toggle" style="display:none" d="M52.11,114.74c0.78-0.97,2.65-3.22,4.46-4.95 c0.86-0.82,1.68-1.54,2.33-1.82c1.97-0.82,4.61-0.47,6.3,0.88c1.92,1.53,5.35,4.12,7.95,7.29c1.58,1.92,2.88,4.05,3.18,6.29 c0.94,6.9-4.2,22.13-5.92,27.06c-0.15,0.43-0.56,0.7-0.99,0.91c-0.64,0.31-1.38,0.46-2.02,0.49c-1.8,0.07-5.47,0.02-8.54-1 c-1.7-0.56-3.24-1.38-3.89-2.83c-0.81-1.82-1.35-5.42-1.77-9.56C52.32,128.66,52.14,117.46,52.11,114.74" fill="rgb(255, 255, 255)"/>
<g id="Ridge_Basic-Thigh_Right" class="toggle" style="" fill="rgb(145, 33, 0)">
<path d="M59.15,105.79l3.61-0.92l3.78,2.07l-1.23,45.7c-2.49,0.48-2.53,0.57-4.71-0.08L59.15,105.79"/>
<path d="M62.73,104.87l0.1,48.14"/>
</g>
</g>
</g>
</g>
<g id="ThighsDecals" mask="url(#ThighsMask)">
</g>
<g id="Groin"><g id="Basic_Groin" class="option" style="display: inherit;">
<path id="Groin-Plate_Basic" d="M78.57,104.6L67.72,82.91h34.71L91.58,104.6c0,0-4.33,5.17-6.5,5.17 C82.91,109.76,78.57,104.6,78.57,104.6z" fill="rgb(85, 82, 82)"/>
<path id="Trauma-Plating_Groin" class="toggle" style="display:none" d="M90.42,103.84l9.8-19.57H69.93l9.79,19.57c0.43,0.5,2.16,2.47,3.82,3.72 c0.58,0.44,1.1,0.84,1.53,0.84c0.44,0,0.95-0.4,1.53-0.84C88.26,106.32,89.99,104.34,90.42,103.84" fill="rgb(255, 255, 255)"/>
</g>
</g>
<g id="GroinDecals" mask="url(#GroinMask)">
</g>
<g id="Waist">
<g id="Accessories_Waist">
<g id="Kama" class="toggle" style="display:none"/>
<g id="Loin-Cloth" class="toggle" style="display:none"/>
<g id="Left-Holster" class="toggle" style="display:none"/>
<g id="Right-Holster" class="toggle" style=""><g id="Hanging-Holster_Right" class="option" style="display: inherit;">
<g id="Weapon_Hanging-Holster-Right">
<g id="Main_Weapon_Hanging-Holster-Right" fill="rgb(75, 71, 71)">
<path d="M51.58,115.51l-0.17-3.74l-0.65,0.03l-0.11-2.35l0.65-0.03l-0.06-1.22c-0.02-0.4-0.56-0.69-1.22-0.66 c-1.51,0.07-4.08,0.19-5.58,0.26c-0.66,0.03-1.17,0.38-1.16,0.77l0.06,1.22l0.65-0.03l0.11,2.35l-0.65,0.03l0.17,3.74 l1.52-0.07l0.48,10.35l4.92-0.23l-0.48-10.35L51.58,115.51z"/>
<path d="M44.24,115.3l0.87-0.04l0.58,12.43l4.92-0.23l-0.58-12.44l0.87-0.04l-0.13-2.84l-6.67,0.31L44.24,115.3z"/>
<path d="M45.29,108.56l3.95-0.18l0.18,3.84l-3.95,0.18L45.29,108.56z"/>
<path d="M48.96,116.2l0.65-0.03l0.45,9.78l-0.65,0.03L48.96,116.2z"/>
<path d="M47.2,114.05l0.65-0.03l0.45,9.78l-0.65,0.03L47.2,114.05z"/>
<path d="M45.65,116.36l0.65-0.03l0.45,9.78l-0.65,0.03L45.65,116.36z"/>
</g>
<g id="Accent_Weapon_Hanging-Holster-Right" fill="rgb(99, 95, 95)">
<path d="M48.85,112.64l0.02,0.39l-2.78,0.13l-0.02-0.39L48.85,112.64z"/>
<path d="M48.87,113.03l0.02,0.39l-2.78,0.13l-0.02-0.39L48.87,113.03z"/>
<path d="M48.84,112.25l0.02,0.39l-2.78,0.13l-0.02-0.39L48.84,112.25z"/>
<path d="M48.61,107.43l0.02,0.39l-2.78,0.13l-0.02-0.39L48.61,107.43z"/>
<path d="M48.59,108.41l0.65-0.03l0.18,3.84l-0.65,0.03L48.59,108.41z"/>
<path d="M45.29,108.56l0.65-0.03l0.18,3.84l-0.65,0.03L45.29,108.56z"/>
<path d="M46.3,116.33l0.98-0.04l0.45,9.78l-0.98,0.04L46.3,116.33z"/>
<path d="M47.97,116.25l0.98-0.05l0.45,9.78l-0.98,0.04L47.97,116.25z"/>
</g>
</g>
<path id="Holster_Hanging-Holster-Right" d="M51.54,129.93l0.79-15.75l-7.32,11.86l1.62,21.43 c1.71,1.78,3.39,1.79,5.04-0.19L51.54,129.93z" fill="rgb(47, 46, 46)"/>
<g id="Straps_Hanging-Holster-Right" fill="rgb(29, 25, 23)">
<path d="M79.54,88.76c-8.01,11.42-16.07,21.09-27.21,25.41l-0.13,2.7c13.85-5.81,21.28-15.64,29.47-28.11H79.54z"/>
<path d="M51.59,133.13c7.49,5.7,15.58,8.8,25.28,9.32l-0.69,2.14c-8.39-0.76-16.22-3.85-24.59-9.21V133.13z"/>
<path d="M51.59,135.38l-0.02-2.25c-1.94,0.86-4.21,0.92-5.99,0.29l0.17,2.3 C47.67,136.21,49.85,136.24,51.59,135.38z"/>
</g>
<g id="Buckle_Hanging-Holster-Right" fill="rgb(47, 46, 46)">
<path d="M69.09,142.34l1.05,0.16l-0.05,0.34l-1.05-0.16L69.09,142.34"/>
<path d="M71.96,100.3l0.73-0.96l0.28,0.21l-0.73,0.96L71.96,100.3"/>
<path d="M72.23,100.51l1.19,0.96l2.8-3.44l-2.7-2.18l-2.8,3.44l1.24,1l0.6-0.79l-0.61-0.49l1.54-1.9l1.49,1.2 l-1.55,1.9l-0.61-0.49L72.23,100.51"/>
<path d="M69.13,142.34l0.83,0.12l0.12-0.81l2.01,0.43l-0.28,1.88l-2.01-0.43l0.11-0.73l-0.83-0.12l-0.22,1.44 l3.66,0.78l0.51-3.41l-3.66-0.78L69.13,142.34"/>
</g>
</g></g>
<g id="Left-Trophy" class="toggle" style="display:none"/>
<g id="Right-Trophy" class="toggle" style="display:none"/>
</g>
<g id="Under-Belt"><g id="Girth-Belt" class="option" fill="rgb(41, 84, 116)" style="display: inherit;">
<path d="M85.04,76.62c-7.36,0-22.09-1.86-22.09-1.86l0.48-1.58c0,0,14.37,1.24,21.61,1.86 c7.21-0.62,21.61-1.86,21.61-1.86l0.48,1.58C107.13,74.76,92.4,76.62,85.04,76.62z"/>
<path d="M85.04,78.2c-7.52,0-22.55-1.86-22.55-1.86l0.46-1.58c0,0,18.41,1.55,22.09,1.86 c3.68-0.31,22.09-1.86,22.09-1.86l0.46,1.58C107.59,76.34,92.56,78.2,85.04,78.2z"/>
<path d="M85.04,79.78c-7.63,0-22.9-1.86-22.9-1.86l0.34-1.58c0,0,18.79,1.55,22.55,1.86 c3.76-0.31,22.55-1.86,22.55-1.86l0.34,1.58C107.94,77.92,92.67,79.78,85.04,79.78z"/>
<path d="M85.04,81.36c-7.73,0-23.18-1.86-23.18-1.86l0.29-1.58c0,0,19.08,1.55,22.9,1.86 c3.82-0.31,22.9-1.86,22.9-1.86l0.29,1.58C108.22,79.49,92.77,81.36,85.04,81.36z"/>
<path d="M85.04,82.94c-7.81,0-23.44-1.86-23.44-1.86l0.26-1.58c0,0,19.32,1.55,23.18,1.86 c3.86-0.31,23.18-1.86,23.18-1.86l0.26,1.58C108.49,81.07,92.86,82.94,85.04,82.94z"/>
<path d="M85.04,84.52c-7.9,0-23.69-1.86-23.69-1.86l0.25-1.58c0,0,19.54,1.55,23.44,1.86 c3.91-0.31,23.44-1.86,23.44-1.86l0.25,1.58C108.73,82.65,92.94,84.52,85.04,84.52z"/>
<path d="M85.04,86.1c-7.98,0-23.93-1.86-23.93-1.86l0.24-1.58c0,0,19.74,1.55,23.69,1.86 c3.95-0.31,23.69-1.86,23.69-1.86l0.24,1.58C108.97,84.23,93.02,86.1,85.04,86.1z"/>
<path d="M85.04,87.68c-8.06,0-24.18-1.86-24.18-1.86l0.25-1.58c0,0,19.94,1.55,23.93,1.86 c3.99-0.31,23.93-1.86,23.93-1.86l0.25,1.58C109.22,85.81,93.1,87.68,85.04,87.68z"/>
<path d="M85.04,89.25c-8.15,0-24.45-1.86-24.45-1.86l0.27-1.58c0,0,20.15,1.55,24.18,1.86 c4.03-0.31,24.18-1.86,24.18-1.86l0.27,1.58C109.49,87.39,93.19,89.25,85.04,89.25z"/>
<path d="M85.04,90.83c-8.25,0-24.76-1.86-24.76-1.86l0.31-1.58c0,0,20.38,1.55,24.45,1.86 c4.08-0.31,24.45-1.86,24.45-1.86l0.31,1.58C109.8,88.97,93.29,90.83,85.04,90.83z"/>
</g>
</g>
<g id="Belt">
<g id="Pouch-Belt-Full" class="option" style="display: inherit;">
<path id="Main_Pouch-Belt-Full" d="M109.38,84.26c-5.47,0.49-17.98,2.27-24.29,2.27c-6.38,0-18.88-1.79-24.28-2.26 l0.81-6.37c4.44,0.39,17.3,2.2,23.48,2.2c5.99,0,18.59-1.79,23.33-2.22L109.38,84.26z" fill="rgb(23, 20, 20)"/>
<g id="Pouches_Pouch-Belt-Full" fill="rgb(39, 34, 31)">
<g>
<g>
<g>
<path d="M75.55,77.99c-1.42-0.09-2.85,0.13-4.17,0.65l0,0L77.86,79l1.76-0.75 C79.62,78.25,77.35,78.1,75.55,77.99z"/>
<path d="M79.85,78.49c0.01-0.07-0.02-0.14-0.08-0.19c-0.06-0.04-0.14-0.05-0.2-0.02 c-0.57,0.24-1.7,0.73-1.7,0.73l-0.84,9.96c0.51-0.29,1.02-0.5,1.53-0.63c0.44-0.11,0.76-0.5,0.77-0.95 C79.42,84.41,79.55,81.44,79.85,78.49z"/>
<path d="M77.86,79l-6.48-0.37c-0.04,1.51-0.18,3.02-0.26,4.54c-0.08,1.65-0.12,3.3-0.27,4.96 c-0.01,0.14,0.03,0.28,0.13,0.38c0.09,0.1,0.23,0.16,0.37,0.16c1.81,0,3.62,0.1,5.41,0.31c0.14,0.02,0.27-0.02,0.38-0.11 c0.11-0.09,0.17-0.21,0.18-0.35c0.09-1.23,0.29-4.2,0.29-4.2L77.86,79z"/>
<path d="M77.86,79l-6.48-0.37c0,0-0.07,0.58-0.16,1.34c-0.11,0.91,0.16,1.83,0.76,2.53 c0.59,0.7,1.45,1.13,2.37,1.18c0,0,0,0,0,0c0.92,0.05,1.82-0.28,2.49-0.91c0.67-0.63,1.04-1.51,1.04-2.43 C77.87,79.59,77.86,79,77.86,79z"/>
<path d="M74.42,82.5c0.23,0.01,0.41,0.21,0.39,0.44c-0.01,0.23-0.21,0.4-0.44,0.39 c-0.23-0.01-0.41-0.21-0.39-0.44C73.99,82.66,74.19,82.49,74.42,82.5z"/>
</g>
</g>
<g>
<g>
<path d="M66.42,76.76c-1.32-0.09-2.64,0.14-3.85,0.67h0l5.92,0.34L70.1,77C70.1,77,68.06,76.87,66.42,76.76z"/>
<path d="M70.3,77.25c0.01-0.07-0.03-0.14-0.09-0.19c-0.06-0.04-0.14-0.05-0.21-0.02 c-0.53,0.25-1.52,0.72-1.52,0.72l-0.82,9.96c0.46-0.29,0.91-0.49,1.37-0.63c0.43-0.12,0.72-0.5,0.74-0.94 C69.89,83.18,70.01,80.21,70.3,77.25z"/>
<path d="M68.49,77.76l-5.92-0.34c-0.04,1.51-0.18,3.02-0.26,4.54c-0.09,1.65-0.13,3.3-0.27,4.96 c-0.01,0.14,0.03,0.28,0.13,0.38c0.1,0.1,0.23,0.16,0.37,0.16c1.62-0.01,3.24,0.08,4.84,0.28c0.14,0.02,0.27-0.02,0.38-0.11 c0.11-0.09,0.17-0.22,0.18-0.35c0.08-1.23,0.29-4.2,0.29-4.2L68.49,77.76z"/>
<path d="M68.49,77.76l-5.92-0.34c0,0-0.08,0.74-0.19,1.64c-0.1,0.83,0.16,1.67,0.7,2.31 c0.54,0.64,1.33,1.03,2.17,1.08c0,0,0,0,0,0c0.84,0.05,1.67-0.25,2.28-0.83c0.61-0.58,0.96-1.38,0.96-2.22 C68.49,78.51,68.49,77.76,68.49,77.76z"/>
<path d="M65.32,81.28c0.21,0.01,0.37,0.21,0.36,0.44c-0.01,0.23-0.19,0.41-0.4,0.39s-0.37-0.21-0.36-0.44 C64.93,81.44,65.11,81.27,65.32,81.28z"/>
</g>
</g>
<g>
<path d="M58.83,77.31l0.44-0.68l2.27,0.08l0.28,0.85L58.83,77.31z"/>
<path d="M61.81,77.65c0.01-0.06-0.01-0.11-0.05-0.16c-0.04-0.04-0.09-0.07-0.15-0.07 c-0.69-0.03-2.78-0.11-2.78-0.11l-0.4,8.96c0.11,0.27,1.76,0.43,2.69,0.39c0.11-0.01,0.19-0.09,0.19-0.2 C61.37,83.52,61.47,80.58,61.81,77.65z"/>
</g>
</g>
<g>
<g>
<g>
<path d="M94.63,77.99c1.42-0.09,2.85,0.13,4.17,0.65l0,0L92.32,79l-1.76-0.75 C90.56,78.25,92.83,78.1,94.63,77.99z"/>
<path d="M90.33,78.49c-0.01-0.07,0.02-0.14,0.08-0.19c0.06-0.04,0.14-0.05,0.2-0.02c0.57,0.24,1.7,0.73,1.7,0.73 l0.84,9.96c-0.51-0.29-1.02-0.5-1.53-0.63c-0.44-0.11-0.76-0.5-0.77-0.95C90.76,84.41,90.64,81.44,90.33,78.49z"/>
<path d="M92.32,79l6.48-0.37c0.04,1.51,0.18,3.02,0.26,4.54c0.08,1.65,0.12,3.3,0.27,4.96 c0.01,0.14-0.03,0.28-0.13,0.38c-0.09,0.1-0.23,0.16-0.37,0.16c-1.81,0-3.62,0.1-5.41,0.31c-0.14,0.02-0.27-0.02-0.38-0.11 c-0.11-0.09-0.17-0.21-0.18-0.35c-0.09-1.23-0.29-4.2-0.29-4.2L92.32,79z"/>
<path d="M92.32,79l6.48-0.37c0,0,0.07,0.58,0.16,1.34c0.11,0.91-0.16,1.83-0.76,2.53 c-0.59,0.7-1.45,1.13-2.37,1.18c0,0,0,0,0,0c-0.92,0.05-1.82-0.28-2.49-0.91c-0.67-0.63-1.04-1.51-1.04-2.43 C92.31,79.59,92.32,79,92.32,79z"/>
<path d="M95.76,82.5c-0.23,0.01-0.41,0.21-0.39,0.44c0.01,0.23,0.21,0.4,0.44,0.39 c0.23-0.01,0.41-0.21,0.39-0.44C96.19,82.66,96,82.49,95.76,82.5z"/>
</g>
</g>
<g>
<g>
<path d="M103.76,76.76c1.32-0.09,2.64,0.14,3.85,0.67h0l-5.92,0.34L100.08,77 C100.08,77,102.13,76.87,103.76,76.76z"/>
<path d="M99.88,77.25c-0.01-0.07,0.03-0.14,0.09-0.19c0.06-0.04,0.14-0.05,0.21-0.02 c0.53,0.25,1.52,0.72,1.52,0.72l0.82,9.96c-0.46-0.29-0.91-0.49-1.37-0.63c-0.43-0.12-0.72-0.5-0.74-0.94 C100.29,83.18,100.17,80.21,99.88,77.25z"/>
<path d="M101.69,77.76l5.92-0.34c0.04,1.51,0.18,3.02,0.26,4.54c0.08,1.65,0.13,3.3,0.27,4.96 c0.01,0.14-0.04,0.28-0.13,0.38c-0.1,0.1-0.23,0.16-0.37,0.16c-1.62-0.01-3.24,0.08-4.84,0.28 c-0.14,0.02-0.27-0.02-0.38-0.11c-0.11-0.09-0.17-0.22-0.18-0.35c-0.08-1.23-0.29-4.2-0.29-4.2L101.69,77.76z"/>
<path d="M101.69,77.76l5.92-0.34c0,0,0.08,0.74,0.19,1.64c0.09,0.83-0.16,1.67-0.7,2.31 c-0.54,0.64-1.33,1.03-2.17,1.08c0,0,0,0,0,0c-0.84,0.05-1.67-0.25-2.28-0.83c-0.61-0.58-0.96-1.38-0.96-2.22 C101.69,78.51,101.69,77.76,101.69,77.76z"/>
<path d="M104.86,81.28c-0.21,0.01-0.37,0.21-0.36,0.44c0.01,0.23,0.19,0.41,0.4,0.39s0.37-0.21,0.36-0.44 C105.25,81.44,105.07,81.27,104.86,81.28z"/>
</g>
</g>
<g>
<path d="M111.35,77.31l-0.44-0.68l-2.27,0.08l-0.28,0.85L111.35,77.31z"/>
<path d="M108.38,77.65c-0.01-0.06,0.01-0.11,0.05-0.16c0.04-0.04,0.09-0.07,0.15-0.07 c0.69-0.03,2.78-0.11,2.78-0.11l0.4,8.96c-0.11,0.27-1.75,0.43-2.68,0.39c-0.11-0.01-0.19-0.09-0.19-0.2 C108.81,83.52,108.71,80.58,108.38,77.65z"/>
</g>
</g>
<path d="M87.99,78.41l0.89,0.87l-7.34-0.14l0.57-0.8L87.99,78.41z"/>
<path d="M81.54,79.14l7.32,0.14c-0.08,1.58-0.05,3.15-0.09,4.74c-0.05,1.73-0.14,3.46-0.12,5.2 c0,0.14-0.06,0.28-0.16,0.37c-0.1,0.1-0.24,0.15-0.38,0.14c-2.08-0.15-4.16-0.19-6.25-0.12c-0.14,0-0.27-0.05-0.37-0.14 c-0.1-0.09-0.15-0.23-0.15-0.36c0.01-1.27,0.03-4.41,0.03-4.41L81.54,79.14z"/>
<path d="M81.54,79.14l7.32,0.14c0,0,0.02,0.46,0.05,1.1c0.05,1.03-0.33,2.03-1.06,2.77 c-0.72,0.74-1.72,1.15-2.76,1.13c0,0,0,0,0,0c-1.04-0.02-2.02-0.47-2.71-1.23s-1.03-1.79-0.94-2.81 C81.5,79.6,81.54,79.14,81.54,79.14z"/>
<path d="M85.12,83.05c-0.26-0.01-0.47,0.18-0.48,0.42c0,0.24,0.2,0.44,0.46,0.44c0.26,0,0.47-0.18,0.48-0.42 C85.58,83.25,85.38,83.06,85.12,83.05z"/>
</g>
</g></g>
</g>
<g id="WaistDecals" mask="url(#WaistMask)">
</g>
<g id="Extras_Front">
<g id="Front">
<g id="Shoulder-Cape-Left_Front" class="option" fill="rgb(25, 30, 33)" style="display: inherit;">
<path d="M105.52,55.25c-0.99-5.87-7.46-38.46,4.54-43.23c2.26-0.9,7.01,0.52,8.06,0.58 c2.44,0.15,12.89,10.36,14.11,12.36c1.54,2.52,2.37,4.73,4.09,7.57c4.76,7.85,7.87,13.56,10.34,21.37 c2.27,7.2,5.1,14.87,7.67,21.73c2.91,7.76,4.29,13.2,6.8,21.11c1.36,4.28,3.36,13.24,5.33,21.47c1.78,7.47,5.23,13.48,0.94,16.22 c-4.32,2.76-10.37,9.62-14.65,12.71c-4.44,3.2-21.28,1.27-25.39,3.8c-1.27,0.78-9.64,0.94-9.59,0.71 c0.54-2.53-1.66-9.03-2.58-16.2c-1.16-9.02-2.41-15.15-3.46-24.21c-0.7-6.05-0.14-9.16-1.41-15.08 c-1.41-6.58-1.77-14.14-3.56-20.59C104.99,69.2,106.63,61.87,105.52,55.25z"/>
<path d="M144.73,98.73c-0.92-3.67-2.34-8.95-0.73-12.63c1.26-2.89,6.55,3.29,6.96,4.61 c1.04,3.34-0.23,7.03-0.59,10.39c-0.4,3.73-0.34,7.48,0.38,11.18c0.89,4.53,1.96,9.17,3.75,13.44c2.04,4.88,5.4,9.4,5.65,14.83"/>
<path d="M138.26,141.39c-0.85,0.81-1.81,1.1-2.98,0.97c-5.77-0.64-6.53-10.3-6.23-14.62c0.5-7,1.98-13.77,1.43-20.85 c-0.74-9.59-4.42-20.12-5.88-29.87c-1.1-7.36-0.71-15.02-2.38-22.27c-1.09-4.72-9.66-24.23-12.32-27.88"/>
<path d="M127.88,42.05c3.17,8.08,6.21,15.46,7.1,24.19c0.5,4.95,0.85,9.99,0.77,14.96 c-0.05,3.65-0.68,7.35-0.09,10.99c1.27,7.84,5.82,14.81,7.36,22.65"/>
<path d="M158.64,106.91c0.21,10.1,4.57,18.96,7.32,28.51"/>
<path d="M129.95,22.3c1.95,3.3,1.97,7.1,2.7,10.56c0.75,3.54,0.59,7.42,1.99,10.81c1.39,3.36,3.78,6.17,5.6,9.28 c2.93,4.99,3.97,10.51,4.48,16.2"/>
</g></g>
</g>
<g id="Extras-FrontDecals" mask="url(#FrontMask)">
</g>
</g>
</svg>