<?xml version='1.0' encoding='UTF-8'?>
<svg version="1.1" id="Female-Body" xmlns="http://www.w3.org/2000/svg" xmlns:serif="http://www.serif.com/" viewBox="0 -55 170 300" style="fill-rule: evenodd; stroke-width: 0.2px; stroke-linejoin: round;" width="170" height="300">
<style>
mask {
mask-type: alpha;
}
.decal {
stroke: none;
}
</style>
<defs id="Masks" stroke="none">
<mask id="HelmetsMask"> <use href="#Helmets"/> </mask>
<mask id="CollarMask"> <use href="#Collar"/> </mask>
<mask id="ShouldersMask"> <use href="#Shoulders"/> </mask>
<mask id="ChestMask"> <use href="#Chest"/> </mask>
<mask id="BicepsMask"> <use href="#Biceps"/> </mask>
<mask id="GauntletsMask"> <use href="#Gauntlets"/> </mask>
<mask id="WaistMask"> <use href="#Waist"/> </mask>
<mask id="GroinMask"> <use href="#Groin"/> </mask>
<mask id="ThighsMask"> <use href="#Thighs"/> </mask>
<mask id="KneesMask"> <use href="#Knees"/> </mask>
<mask id="ShinsMask"> <use href="#Shins"/> </mask>
<mask id="FootMask"> <use href="#Foot"/> </mask>
</defs>
<defs id="Decals"/><metadata><rdf:rdf xmlns:rdf="http://www.w3.org/1999/02/22-rdf-syntax-ns#" xmlns:rdfs="http://www.w3.org/2000/01/rdf-schema#" xmlns:dc="http://purl.org/dc/elements/1.1/"><rdf:description><dc:creator>MandoCreator</dc:creator><dc:publisher>https://www.mandocreator.com</dc:publisher><dc:description>Your Beskar'gam - created by MandoCreator</dc:description><dc:format>image/svg+xml</dc:format><dc:type>Image</dc:type><dc:title>MandoCreator - Ner Berskar'gam</dc:title><dc:date>2022-01-02T16:22:13.712Z</dc:date></rdf:description></rdf:rdf></metadata><g id="Main-Body" fill="white" stroke="black">
<g id="Extras_Back">
<g id="Back"><path id="Torn-Full-Cape_Back" class="option" d="M67.82,13.09c-12.2,4.58-25.78,26.64-27.46,43.43 c-1.06,10.59-6.25,21.35-5.77,31.89c0.49,10.69-4.93,21.78-5.33,32.46c-0.36,9.62-3.22,14.02-4.87,23.54 c-2.48,14.24-5.22,23.63-7.45,37.88c-1.77,11.33-7.12,20.69-9.63,24.23c-0.09,0.13,2.56-1.22,5.84-1.28 c0.96-0.02,5.74-6.99,5.74-6.99s5.95,4.92,7.17,7.7c1.6-1.02,2.83-15.76,4.66-16.34c0.97-0.3,2.72,18.52,2.72,18.52 s2.86-5.57,3.96-5.59c2.35-0.04,6.65,2.09,9.06,2.35c2.56,0.27,5.19-3.94,8-3.26c4.31,1.05,8.58,0.97,12.87,1.52 c3.03,0.39,6.06,6.26,9.11,6.25c3.76-0.01,3.23-8.76,7.06-9.6c3.29-0.72,7.77,7.08,7.77,7.08s1.03-25.9,4.28-26.96 c4.25-1.39,20.24,19.49,24.69,19.08c1.31-0.12,3-13.21,4.3-13.18c2.82,0.06,5.22,13.48,8,14.01c3.49,0.66,5.18-5.84,8.61-4.99 c0.97,0.24,3.71,7.88,4.67,8.1c2.12,0.49,5.07,1.75,7.26,1.61c0.06,0-0.7-5.08-0.81-5.62c-0.49-2.43-1.28-4.81-2.26-7.11 c-1.17-2.74-2.62-5.38-4.2-7.86c-7.37-11.59-4.83-24.32-6.18-38.02c-1.31-13.29,0.06-26.6-2.19-39.86 c-1.99-11.73-8.97-22.64-10.72-34.48c-2.05-13.89-6.82-28.76-11.03-42.25C110.54,12.8,80.02,8.51,67.82,13.09z M71.28,189.33 c-0.98,2.52-1.37,5.14-1.09,7.83c0.12,1.22,0.48,2.48,1.09,3.55c0.06,0.1,0.09,0.39,0.18,0.31 C76.04,196.96,71.28,189.33,71.28,189.33z M35.42,164.2c-0.42,8.04-1.18,16.11-1.18,24.15c0,1.51,0.02,3.01,0.16,4.51 c0.02,0.24,0.25,2.44,0.38,2.42c2.75-0.55,1.41-8,2.06-10.31C39.08,176.95,35.42,164.2,35.42,164.2z M131.24,192.06 c-0.24,2.91,0.64,2.59,1.39,1.13c0.75-1.46,1.37-4.05,0.58-5.69L131.24,192.06z M119.28,166.74c-0.68,4.82,0.37,8.92,0.72,13.67 c0.12,1.54,0.12,3.1,0.14,4.65c0.01,0.52,0.03,1.04,0.02,1.56c0,0.26-0.19,0.99-0.01,0.8c3.65-3.79,3.24-11.1,2.1-15.79 L119.28,166.74z M75.59,180.96c-0.04,1.24-0.01,2.52,0.15,3.75c0.33,2.48,1.74-1.42,1.76-2.4c0.03-1.37-0.89-2.96-1.22-4.28 L75.59,180.96z" fill="rgb(23, 23, 23)" style="display: inherit;"/></g>
</g>
<g id="Extras-BackDecals" mask="url(#BackMask)">
</g>
<g id="Suit">
<g id="Neck-Seal"><g id="Standard-Neck-Seal" class="option" fill="rgb(20, 20, 20)" style="display: inherit;">
<path d="M95.96,3.46c0-0.93-0.74-1.69-1.65-1.69c0,0-6.22,0.89-9.33,0.89c-3.11,0-9.33-0.89-9.33-0.89 c-0.91,0-1.65,0.76-1.65,1.69c0,0.93,0.74,1.69,1.65,1.69c0,0,6.22,0.89,9.33,0.89c3.11,0,9.33-0.89,9.33-0.89 C95.22,5.15,95.96,4.39,95.96,3.46z"/>
<path d="M96.51,5.43c0-0.98-0.78-1.77-1.73-1.77c0,0-6.53,0.93-9.8,0.93s-9.8-0.93-9.8-0.93 c-0.96,0-1.73,0.79-1.73,1.77c0,0.98,0.78,1.77,1.73,1.77c0,0,6.53,0.93,9.8,0.93s9.8-0.93,9.8-0.93 C95.74,7.21,96.51,6.41,96.51,5.43z"/>
<path d="M97.14,7.88c0-1.03-0.82-1.87-1.83-1.87c0,0-6.89,0.98-10.33,0.98c-3.44,0-10.33-0.98-10.33-0.98 c-1.01,0-1.83,0.84-1.83,1.87s0.82,1.87,1.83,1.87c0,0,6.89,0.98,10.33,0.98c3.44,0,10.33-0.98,10.33-0.98 C96.32,9.75,97.14,8.91,97.14,7.88z"/>
<path d="M97.75,10.13c0-1.08-0.86-1.96-1.92-1.96c0,0-7.23,1.03-10.85,1.03c-3.62,0-10.85-1.03-10.85-1.03 c-1.06,0-1.92,0.88-1.92,1.96c0,1.08,0.86,1.96,1.92,1.96c0,0,7.23,1.03,10.85,1.03c3.62,0,10.85-1.03,10.85-1.03 C96.89,12.09,97.75,11.21,97.75,10.13z"/>
<path d="M98.36,12.33c0-0.82-0.9-1.48-2.01-1.48c0,0-7.58,0.78-11.36,0.78s-11.36-0.78-11.36-0.78 c-1.11,0-2.01,0.66-2.01,1.48c0,0.82,0.9,1.48,2.01,1.48c0,0,7.58,0.78,11.36,0.78s11.36-0.78,11.36-0.78 C97.46,13.81,98.36,13.14,98.36,12.33z"/>
<path d="M98.36,14.8c0-0.82-0.9-1.48-2.01-1.48c0,0-7.58,0.78-11.36,0.78s-11.36-0.78-11.36-0.78 c-1.11,0-2.01,0.66-2.01,1.48c0,0.82,0.9,1.48,2.01,1.48c0,0,7.58,1.5,11.36,1.5s11.36-1.5,11.36-1.5 C97.46,16.28,98.36,15.62,98.36,14.8z"/>
</g>
</g>
<g id="Flight-Suit" fill="rgb(11, 11, 11)">
<path d="M38.1,60.17l5.2-18.8l12.15-8.13l1.9,16.49c0,0-5.25,9.95-7.06,14.51c-1.86,4.7-5.09,15.42-5.5,16.81 l-2.88,24.91l-8.36-2.66c0,0-0.3-17.29,0.46-24.47C34.68,72.42,38.1,60.17,38.1,60.17z"/>
<path d="M131.9,60.17l-5.22-18.86l-12.06-8.07l-1.92,16.59c0,0,5.2,9.85,7.01,14.41c1.86,4.7,5.09,15.42,5.5,16.81 l2.88,24.91l8.36-2.66c0,0,0.3-17.29-0.46-24.47C135.32,72.42,131.9,60.17,131.9,60.17z"/>
<path d="M84.99,113.44c-1.03,0.1-1.95,0.5-2.29,1.22c-3,6.3-9.17,35.13-10.95,40.44c-0.97,2.89-1.74,18.7-3.38,27.92 c-1.96,11.01-8.39,38.11-8.39,38.11l-11.15-1.15c0,0-1.44-27.22-1.04-37.12c0.3-7.53,3.42-22.31,3.42-22.31s0.67-5.4,0.69-8.12 c0.06-9.82,0.93-31.66,2.88-44.2C56.3,98.31,65.7,77.5,65.7,77.5s12.18,4.76,19.34,4.76c7.16,0,19.44-4.86,19.44-4.86 s8.88,20.92,10.42,30.83c1.95,12.54,3.24,34.38,3.3,44.2c0.02,2.72,0.69,8.12,0.69,8.12s3.12,14.79,3.42,22.31 c0.4,9.91-1.04,37.12-1.04,37.12l-11.15,1.15c0,0-6.43-27.1-8.39-38.11c-1.64-9.22-2.41-25.03-3.38-27.92 c-1.78-5.31-7.96-34.13-10.95-40.44c-0.35-0.73-1.3-1.14-2.34-1.23L84.99,113.44z"/>
</g>
<g id="Sleeves" class="toggle" fill="rgb(16, 16, 16)">
<path d="M41.92,41.42l0.81,0.34l12.73-8.52c0,0,0.36,8.98,1.42,14.37c0.15,0.75,0.37,1.69,0.64,2.79l-1.69,5.45 c0,0-5.75-2.25-8.27-3.72C45.11,50.7,40.7,47,40.7,47L41.92,41.42z"/>
<path d="M112.55,50.4c0.28-1.1,0.5-2.04,0.64-2.79c1.06-5.39,1.42-14.37,1.42-14.37l12.73,8.52l0.81-0.34l1.22,5.58 c0,0-4.4,3.7-6.85,5.13c-2.52,1.48-8.28,3.72-8.28,3.72L112.55,50.4z"/>
</g>
</g>
<g id="Boots">
<g id="Tall_Boots" class="option" style="display: inherit;">
<g id="Bottom_Tall-Boot" fill="rgb(19, 19, 19)">
<path d="M62.38,229.28c-0.02,0.13-0.05,0.27-0.09,0.42c-0.88,1.83-3.26,2.46-4.9,2.9c-1.16,0.31-2.28,0.75-3.37,1.27 c-1.51,0.73-2.27,2-3.44,3.22c-0.52,0.54-1.15,0.96-1.75,1.38c-1.5,1.03-2.95,1.11-4.66,1.16c-2.29,0.07-4.32-0.28-6.58-0.85 c-1.98-0.5-3.45-0.92-5.16-1.47c-0.51-0.17-1.14-0.28-1.44-0.71l-0.26,0.65l-0.19,1.7c0,0,1.85,1.13,3.82,1.63 c1.97,0.5,5.94,1.2,5.94,1.2l0.27-0.74l0.89,0.21l-0.04,0.73l2.16,0.14l0.46-0.71l0.72,0.02l-0.11,0.63c0,0,1.34-0.02,2.08-0.53 c0.14-0.24,0.41-0.63,0.41-0.63l0.51-0.32l-0.07,0.6l1.86-0.76l0.09-0.82l0.54-0.36l0.02,0.6l1.33-1.17l0.14-0.72l2.85-1.7 l0.97,0.44l2.32-0.57l0.08-0.57l0.59-0.28l0.41,0.43l1.56-0.73l0.03-0.53l0.51-0.2l0.06,0.38l1.48-1.16L62.38,229.28z M62.44,228.61L62.44,228.61L62.44,228.61L62.44,228.61z"/>
<path d="M107.68,229.28c0.02,0.13,0.05,0.27,0.09,0.42c0.88,1.83,3.26,2.46,4.9,2.9c1.15,0.31,2.28,0.75,3.37,1.27 c1.51,0.73,2.27,2,3.44,3.22c0.52,0.54,1.15,0.96,1.75,1.38c1.5,1.03,2.95,1.11,4.66,1.16c2.29,0.07,4.32-0.28,6.58-0.85 c1.98-0.5,3.45-0.92,5.16-1.47c0.51-0.17,1.14-0.28,1.44-0.71l0.26,0.65l0.19,1.7c0,0-1.85,1.13-3.82,1.63 c-1.97,0.5-5.94,1.2-5.94,1.2l-0.27-0.74l-0.89,0.21l0.04,0.73l-2.16,0.14l-0.46-0.71l-0.72,0.02l0.11,0.63 c0,0-1.34-0.02-2.08-0.53c-0.14-0.24-0.41-0.63-0.41-0.63l-0.51-0.32l0.07,0.6l-1.86-0.76l-0.09-0.82l-0.54-0.36l-0.02,0.6 l-1.33-1.17l-0.14-0.72l-2.85-1.7l-0.97,0.44l-2.32-0.57l-0.08-0.57l-0.59-0.28l-0.41,0.43l-1.56-0.73l-0.03-0.53l-0.51-0.2 l-0.06,0.38l-1.48-1.16L107.68,229.28z M107.62,228.61L107.62,228.61L107.62,228.61L107.62,228.61z"/>
</g>
<g id="Main_Tall-Boot" fill="rgb(39, 39, 39)">
<path d="M62.37,215.4c1.32-4.39,2.31-11.41,3.1-14.61c0.59-2.4,3.31-15.44,2.86-17.08 c-0.45-1.66-20.1-4.93-20.66-3.44c-0.86,2.29,0.36,24.81,0.21,28.13c-0.11,2.44,0.19,7.55,0.19,7.55 c-0.23,1.33-0.42,2.76-0.9,3.96c-0.91,2.25-1.49,2.97-3.03,4.68c-1.06,1.17-3.06,3.14-4.32,4.03c-0.53,0.38-2.39,1.74-2.39,1.74 c-2.32,0.98-4.88,0.64-6.14,3.55c-0.27,0.64-0.51,1.4-0.46,2.12c0.06,0.92,0.94,1.05,1.63,1.27c1.71,0.55,3.18,0.97,5.16,1.47 c2.26,0.58,4.29,0.93,6.58,0.85c1.71-0.05,3.16-0.13,4.66-1.16c0.6-0.41,1.23-0.83,1.75-1.38c1.17-1.22,1.93-2.49,3.44-3.22 c1.09-0.53,2.21-0.96,3.37-1.27c1.63-0.44,4.02-1.06,4.9-2.9c0.34-1.38-0.01-2.06-0.12-3.24l-0.05-0.51 c-0.09-0.77-0.21-1.56-0.25-2.4c-0.07-1.6,0.28-3.18,0.37-4.77c0.05-0.9,0.09-1.81,0.11-2.71 C62.36,215.96,62.39,215.62,62.37,215.4z"/>
<path d="M107.7,215.4c-1.32-4.39-2.31-11.41-3.1-14.61c-0.59-2.4-3.31-15.44-2.86-17.08 c0.45-1.66,20.1-4.93,20.66-3.44c0.86,2.29-0.36,24.81-0.21,28.13c0.11,2.44-0.19,7.55-0.19,7.55c0.23,1.33,0.42,2.76,0.9,3.96 c0.91,2.25,1.49,2.97,3.03,4.68c1.06,1.17,3.06,3.14,4.32,4.03c0.53,0.38,2.39,1.74,2.39,1.74c2.32,0.98,4.88,0.64,6.15,3.55 c0.27,0.64,0.51,1.4,0.46,2.12c-0.06,0.92-0.94,1.05-1.63,1.27c-1.71,0.55-3.18,0.97-5.16,1.47c-2.26,0.58-4.29,0.93-6.58,0.85 c-1.71-0.05-3.16-0.13-4.66-1.16c-0.61-0.41-1.23-0.83-1.75-1.38c-1.18-1.22-1.94-2.49-3.44-3.22c-1.09-0.53-2.21-0.96-3.37-1.27 c-1.63-0.44-4.02-1.06-4.9-2.9c-0.34-1.38,0.01-2.06,0.12-3.24l0.05-0.51c0.09-0.77,0.21-1.56,0.25-2.4 c0.07-1.6-0.28-3.18-0.37-4.77c-0.05-0.9-0.09-1.81-0.11-2.71C107.71,215.96,107.68,215.62,107.7,215.4z"/>
</g>
</g></g>
<g id="Gloves">
<g id="Left-Glove"><g id="Basic_Left_Glove" class="option" fill="rgb(10, 10, 10)" style="display: inherit;">
<path d="M133.16,120.46c-0.46-0.03-0.9-0.01-1.36,0.09c-0.31,0.07-0.62,0.16-0.9,0.34 c-0.85,0.55-0.62,1.76,0.14,2.21c0.89,0.53,2.29,0.01,2.69-1.02C133.9,121.66,133.39,120.86,133.16,120.46"/>
<path d="M131.6,121.51c-0.46-0.02-0.9-0.02-1.36,0.09c-0.31,0.07-0.62,0.16-0.9,0.34c-0.85,0.55-0.62,1.76,0.14,2.21 c0.89,0.53,2.29,0.01,2.69-1.02C132.34,122.71,131.83,121.91,131.6,121.51"/>
<path d="M130.49,122.93c-0.46,0.05-1.02,0.12-1.46,0.3c-0.3,0.12-0.59,0.25-0.85,0.47c-0.78,0.68-0.4,1.83,0.4,2.17 c0.94,0.39,2.27-0.34,2.55-1.42C131.24,124.01,130.49,122.93,130.49,122.93z"/>
<path d="M127.97,106.79c0,0-1.34,2.09-1.69,3.59c-0.25,1.06-0.11,3.58-0.43,5.28c-0.31,1.7-0.59,2.64-0.59,2.64 s-1.18,2.71-0.98,3.34c0.21,0.62,1.25,1.18,1.84,0.85c0.74-0.41,1.66-2.32,2.24-3.67c0.59-1.37,1.08-3.32,1.08-3.32 s0.81,0.32,1.23,0.68c1.38,1.2,0.78,4.82,0.78,4.82s-0.57,1.29-1.43,2.75c-1.17,1.99-2.97,3.7-1.78,5.22 c1.11,1.42,3.63-2.31,3.63-2.31l2.47-3.62c0,0,2.84-5.26,2.98-6.28c0.11-0.78,0.01-3.38,0.01-3.38l-0.89-10.08l-4.5,0.42 l-3.7,1.36L127.97,106.79"/>
</g>
</g>
<g id="Right-Glove"><g id="Basic_Right_Glove" class="option" fill="rgb(10, 10, 10)" style="display: inherit;">
<path d="M36.86,120.46c0.46-0.03,0.9-0.01,1.36,0.09c0.31,0.07,0.62,0.16,0.9,0.34c0.85,0.55,0.62,1.76-0.14,2.21 c-0.89,0.53-2.29,0.01-2.69-1.02C36.12,121.66,36.64,120.86,36.86,120.46"/>
<path d="M38.42,121.51c0.46-0.02,0.9-0.02,1.36,0.09c0.31,0.07,0.62,0.16,0.9,0.34c0.85,0.55,0.62,1.76-0.14,2.21 c-0.89,0.53-2.29,0.01-2.69-1.02C37.68,122.71,38.2,121.91,38.42,121.51"/>
<path d="M39.54,122.93c0.46,0.05,1.02,0.12,1.46,0.3c0.3,0.12,0.6,0.25,0.85,0.47c0.78,0.68,0.4,1.83-0.4,2.17 c-0.94,0.39-2.27-0.34-2.55-1.42C38.78,124.01,39.54,122.93,39.54,122.93z"/>
<path d="M42.06,106.79c0,0,1.34,2.09,1.69,3.59c0.25,1.06,0.11,3.58,0.43,5.28c0.31,1.7,0.59,2.64,0.59,2.64 s1.18,2.71,0.98,3.34c-0.21,0.62-1.24,1.18-1.84,0.85c-0.74-0.41-1.66-2.32-2.24-3.67c-0.59-1.37-1.08-3.32-1.08-3.32 s-0.81,0.32-1.23,0.68c-1.38,1.2-0.78,4.82-0.78,4.82s0.57,1.29,1.43,2.75c1.17,1.99,2.97,3.7,1.78,5.22 c-1.11,1.42-3.63-2.31-3.63-2.31l-2.47-3.62c0,0-2.84-5.26-2.98-6.28c-0.11-0.78-0.01-3.38-0.01-3.38l0.89-10.08l4.5,0.42 l3.7,1.36L42.06,106.79"/>
</g>
</g>
</g>
<g id="Biceps">
<g id="Left-Biceps"><g id="Basic_Biceps_Left" class="option" style="display: inherit;">
<path id="Main_Basic_Biceps_Left" d="M133.33,53.8c-1.18-2.85-6.45-15.35-6.45-15.35s-8.66,3.56-10.82,4.44 c-0.61,0.25-0.9,0.95-0.65,1.56c1.02,2.45,3.51,8.45,5.06,12.19c0.35,0.85,1.03,1.52,1.88,1.87c0.85,0.35,1.81,0.35,2.65,0 c2.54-1.04,5.95-2.44,7.68-3.15C133.29,55.1,133.58,54.41,133.33,53.8z" fill="rgb(20, 20, 20)"/>
<path id="Strap_Basic_Biceps_Left" d="M117.73,49.98l-4.71,1.93l1.11,3.94l5.16-2.12L117.73,49.98" fill="rgb(68, 67, 67)"/>
<path id="Trauma-Plate_Basic_Biceps_Left" class="toggle" style="" d="M133.29,53.21l-5.5-13.24l-10.55,4.33l4.84,11.67 c0.17,0.42,0.5,0.75,0.92,0.92c0.42,0.17,0.89,0.17,1.31,0L133.29,53.21" fill="rgb(30, 30, 30)"/>
</g>
</g>
<g id="Right-Biceps"><g id="Basic_Biceps_Right" class="option" style="display: inherit;">
<path id="Main_Basic_Biceps_Right" d="M36.74,53.8c1.18-2.85,6.46-15.35,6.46-15.35s8.66,3.56,10.82,4.44 c0.61,0.25,0.9,0.95,0.65,1.56c-1.02,2.45-3.51,8.45-5.06,12.19c-0.35,0.85-1.03,1.52-1.88,1.87c-0.85,0.35-1.8,0.35-2.65,0 c-2.54-1.04-5.95-2.44-7.68-3.15C36.78,55.1,36.49,54.41,36.74,53.8z" fill="rgb(20, 20, 20)"/>
<path id="Strap_Basic_Biceps_Right" d="M52.35,49.98l4.71,1.93l-1.11,3.94l-5.16-2.12L52.35,49.98" fill="rgb(68, 67, 67)"/>
<path id="Trauma-Plate_Basic_Biceps_Right" class="toggle" style="" d="M36.78,53.21l5.49-13.24l10.55,4.33l-4.84,11.67 c-0.17,0.42-0.5,0.75-0.92,0.92c-0.42,0.17-0.89,0.17-1.31,0L36.78,53.21" fill="rgb(30, 30, 30)"/>
</g>
</g>
</g>
<g id="BicepsDecals" mask="url(#BicepsMask)">
</g>
<path id="Vest" d="M91.61,82.96c-4.3,0.88-8.84,0.88-13.14,0c-4.33-0.88-12.83-5.29-12.83-5.29s-7.42-23.26-8.75-30.06 c-1.06-5.39-1.42-14.37-1.42-14.37l-12.73,8.52l-2.71-1.15c0,0,7.62-16.73,12.62-21.57c4.53-4.39,17.42-7.5,17.42-7.5 s5.68,6.2,14.97,6.25c8.84,0.04,14.97-6.25,14.97-6.25s12.89,3.12,17.42,7.5c5.01,4.85,12.62,21.57,12.62,21.57l-2.71,1.15 l-12.73-8.52c0,0-0.36,8.98-1.42,14.37c-1.33,6.79-8.76,30.06-8.76,30.06S95.93,82.08,91.61,82.96z" fill="rgb(17, 17, 17)"/>
<g id="SuitDecals" mask="url(#SuitMask)">
</g>
<g class="swappable" id="Chest"><g id="Chest_Gunslinger">
<g id="Abdomen_Gunslinger">
<g id="Left_Abdomen_Gunslinger" fill="rgb(245, 106, 10)">
<path d="M97.34,66.97l6.35-11.37l-3.3-4.64l-0.26-0.56l-3.61,0.45l-1.48,17.52L97.34,66.97z"/>
<path d="M97.34,66.97l6.35-11.37l1.67,2.34l2.2-1.75l-0.58,7.79L97.34,66.97z"/>
</g>
<g id="Right_Abdomen_Gunslinger" fill="rgb(245, 106, 10)">
<path d="M72.69,66.97L66.34,55.6l-1.67,2.34l-2.2-1.75l0.58,7.79L72.69,66.97z"/>
<path d="M72.69,66.97L66.34,55.6l3.3-4.64l0.26-0.56l3.61,0.45L75,68.37L72.69,66.97z"/>
</g>
<path id="Center_Abdomen_Gunslinger" d="M85.02,47.12l11.5,3.74l-1.48,17.52l-1.76,1.06l-8.26-0.45l-8.26,0.45 L75,68.37l-1.48-17.52L85.02,47.12z" fill="rgb(30, 30, 30)"/>
</g>
<g id="Chest-Plates_Gunslinger">
<g id="Left-Chest_Gunslinger" fill="rgb(30, 30, 30)">
<path d="M85.68,27.45v-2.7l2.22-2.21l21.37-2.41l1.92,11.86l-3.18,23.84l-2.65,2.11l-4.97-6.98L99,48l-13.25-4.02 l3.45-3.42v-9.95L85.68,27.45z"/>
<path d="M99,48l9.76-5.73l2.43-10.25l-2.15,11.03l-8.65,7.92L99,48z"/>
<path d="M100.12,50.4l-3.61,0.45l-11.5-3.74V43.8L99,48L100.12,50.4z"/>
</g>
<g id="Right-Chest_Gunslinger" fill="rgb(30, 30, 30)">
<path d="M84.35,27.45v-2.7l-2.22-2.21l-21.37-2.41l-1.92,11.86l3.18,23.84l2.65,2.11l4.97-6.98L71.04,48l13.25-4.02 l-3.45-3.42v-9.95L84.35,27.45z"/>
<path d="M71.04,48l-9.76-5.73l-2.43-10.25l2.15,11.03l8.65,7.92L71.04,48z"/>
<path d="M69.91,50.4l3.61,0.45l11.5-3.74V43.8L71.04,48L69.91,50.4z"/>
</g>
</g>
<g id="Iron-Heart_Gunslinger">
<path id="Under-Heart_Gunslinger" d="M84.29,43.98l-3.45-3.42v-9.95l3.51-3.16v-2.7h1.33v2.7l3.51,3.16v9.95 l-3.45,3.42l-0.73-0.18L84.29,43.98z" fill="rgb(28, 28, 28)"/>
<path id="Heart_Gunslinger" d="M82.48,39.74v-8.23l2.54-2.53l2.54,2.53v8.23l-2.54,2.53L82.48,39.74z" fill="rgb(33, 33, 33)"/><rect id="Center_Heart_Gunslinger" class="option" x="84.26" y="32.01" width="1.5" height="7.22" fill="rgb(245, 106, 10)" style="display: inherit;"/>
</g>
</g></g>
<g id="ChestDecals" mask="url(#ChestMask)">
</g>
<g id="Chest-Attachments"><g id="No-Device_Accessories_Chest" class="option" style="display: inherit;">
</g>
</g>
<g id="Collar"><g id="Cloth-Wrap-Right_Collar" class="option" style="display: inherit;">
<g id="Main_Cloth-Wrap-Right_Collar" fill="rgb(23, 23, 23)">
<path d="M95.41,21.42c4.65-1.45,5.5-3.78,5.78-6.13c0.11-0.96-1.26-3.46,0.16-4.1c1.61-0.73,5.4,0.41,6.97,0.75 c1.16,0.25,2.19,1.42,3.38,1.43c2.74,0.03,4.91,3,5.16,4.36c0.35,1.9-3.04,0.56-4.62,2c-3.96,3.61-5.34,8.5-13.67,9.83 c-3.82,0.61-7.61-0.25-11.16-1.04c-9.17-2.03-14.17-3.78-20.06-8.31c-2.58-1.98-6.47-3.59-6.37-6.24c0-0.11,1.88-1.22,2.06-1.27 c1.65-0.41,3.06-1.09,4.88-1.12c1.09-0.02,0.91,0.91,0.99,1.34c0.31,1.62,1.79,2.84,3.66,4.05 C77.47,20.18,88.67,21.17,95.41,21.42z"/>
<path d="M95.41,21.42c1.23,0.05,2.31,0.24,3.25,0.29c4.26,0.26,5.78-0.77,6.6-2.66"/>
<path d="M108.64,11.99c1.23,1.99,1.07,4.34,0.09,5.89"/>
<path d="M72.93,17.68c3.19,4.34,7.92,5.71,13.09,6.23"/>
<path d="M64.3,12.34c0.19,1.1,0.85,1.51,1.66,2.24c0.47,0.43,1.04,0.73,1.41,1.25c0.14,0.19,0.21,0.41,0.29,0.62"/>
</g>
<path id="Buckle_Cloth-Wrap-Right_Collar" d="M74.02,16.86l-2.71-1.93l-4.71,6.53l2.71,1.93L74.02,16.86z" fill="rgb(144, 143, 143)"/>
</g></g>
<g id="CollarDecals" mask="url(#CollarMask)">
</g>
<g id="Helmets" class="swappable" transform="translate(45,-52)"><g id="Helmet_Stalker-Medium">
<g id="Left-Earcap_Stalker-Medium" class="toggle"><g id="Ear-Cap_Left_Stalker-Medium" fill="rgb(245, 106, 10)">
<path d="M57.56,30.96l2.4,1.65l0.94,10.41l-2.07,2.06L57.56,30.96z"/>
<path d="M58.6,37.7c-0.01-0.11,0.07-0.21,0.18-0.22l0.97-0.09c0.11-0.01,0.21,0.07,0.22,0.18 c0.01,0.11-0.07,0.21-0.18,0.22l-0.97,0.09C58.71,37.89,58.61,37.81,58.6,37.7z"/>
</g>
</g>
<g id="Right-Earcap_Stalker-Medium" class="toggle"><g id="Ear-Cap_Right_Stalker-Medium" fill="rgb(245, 106, 10)">
<path d="M22.44,30.96l-2.4,1.65L19.1,43.02l2.07,2.06L22.44,30.96z"/>
<path d="M21.4,37.7c0.01-0.11-0.07-0.21-0.18-0.22l-0.97-0.09c-0.11-0.01-0.21,0.07-0.22,0.18 c-0.01,0.11,0.07,0.21,0.18,0.22l0.97,0.09C21.29,37.89,21.39,37.81,21.4,37.7z"/>
</g>
</g>
<g id="Helmet_Pieces_Stalker-Medium">
<g id="Dome-2_Stalker-Medium" fill="rgb(30, 30, 30)">
<path d="M33.06,20.32l-0.02-0.06c0,0-6.45,1.52-8.89,7.94c-0.43,1.13-0.81,3.23-0.97,4.19 c0.12-0.19,0.23-0.37,0.34-0.5c0.46-0.6,1.2-1.48,1.89-2.15c0.98-0.95,2.81-2.27,4-3.57c1.18-1.29,2.48-3.19,3.1-4.23 C32.78,21.49,32.95,20.79,33.06,20.32z"/>
<path d="M47.08,20.32l0.02-0.06c0,0,6.45,1.52,8.89,7.94c0.43,1.13,0.81,3.23,0.97,4.19 c-0.12-0.19-0.24-0.37-0.34-0.5c-0.46-0.6-1.21-1.48-1.89-2.15c-0.98-0.95-2.81-2.27-3.99-3.57c-1.18-1.29-2.48-3.19-3.1-4.23 C47.36,21.49,47.18,20.79,47.08,20.32z"/>
<g>
<path d="M56.86,29.69l0.84,0.86l1.35,14.93l-0.67,1L56.86,29.69z"/>
<path d="M56.05,28.55l0.8,0.86l1.56,17.34l-0.63,0.99L56.05,28.55z"/>
</g>
<g>
<path d="M23.25,29.69l-0.84,0.86l-1.35,14.93l0.67,1L23.25,29.69z"/>
<path d="M24.06,28.55l-0.8,0.86l-1.56,17.34l0.63,0.99L24.06,28.55z"/>
</g>
</g>
<g id="Dome-1_Stalker-Medium" fill="rgb(245, 106, 10)">
<g>
<path d="M33.07,20.22c-0.1,0.47-0.28,1.24-0.57,1.72c-0.06,0.1-0.13,0.21-0.2,0.33c-0.39,0.08-0.84,0.2-1.22,0.37 c-0.83,0.38-2.06,1.23-2.06,1.23v-1.85c0,0,0.97-0.54,1.94-1C31.61,20.71,32.54,20.39,33.07,20.22z"/>
<path d="M32.36,22.16c-0.66,1.07-1.87,2.8-2.97,4.01c-0.12,0.13-0.25,0.26-0.38,0.4v-2.69c0,0,0.87-0.76,1.92-1.18 C31.43,22.5,31.95,22.31,32.36,22.16z"/>
</g>
<g>
<path d="M47.08,20.22c0.1,0.47,0.28,1.24,0.57,1.72c0.06,0.1,0.13,0.21,0.2,0.33c0.39,0.08,0.85,0.2,1.22,0.37 c0.83,0.38,2.06,1.23,2.06,1.23v-1.85c0,0-0.97-0.54-1.94-1C48.53,20.71,47.6,20.39,47.08,20.22z"/>
<path d="M47.79,22.16c0.66,1.07,1.87,2.8,2.97,4.01c0.12,0.13,0.25,0.26,0.38,0.4v-2.69c0,0-0.87-0.76-1.92-1.18 C48.72,22.5,48.19,22.31,47.79,22.16z"/>
</g>
</g>
<g id="Face-2_Stalker-Medium" fill="rgb(30, 30, 30)">
<path d="M23.68,51.12l-0.13-3.41l-2.31,3.27c0,0-0.12,2.86,0.29,4.04c0.4,1.17,1.31,2.13,2.15,3.04 c0.95,1.03,12.12,8.49,12.12,8.49l-1.92-8.26L32.03,59l-1.61-0.79l-2.06-1.61l-2.16-2.12l-1.7-1.93l-0.82-1.17V51.12z"/>
<path d="M56.45,51.12l0.13-3.41l2.31,3.27c0,0,0.12,2.86-0.29,4.04c-0.4,1.17-1.31,2.13-2.15,3.04 c-0.95,1.03-12.12,8.49-12.12,8.49l1.92-8.26L48.1,59l1.61-0.79l2.06-1.61l2.16-2.12l1.7-1.93l0.82-1.17V51.12z"/>
</g>
<g id="Face-1_Stalker-Medium" fill="rgb(15, 15, 15)">
<g>
<path d="M23.68,51.12v0.25l0.82,1.17l1.7,1.93l2.16,2.12l2.06,1.61L32.03,59l1.85-0.72l-0.25-1.09l-3.58-8.74 l-4.56-3.47l-1.93,2.73L23.68,51.12z"/>
<g>
<path d="M29.89,55.5c-0.07-0.09-0.06-0.22,0.04-0.29l1.31-1.03c0.09-0.07,0.22-0.06,0.29,0.03 c0.07,0.09,0.06,0.22-0.03,0.29l-1.31,1.03C30.09,55.6,29.96,55.59,29.89,55.5"/>
<path d="M30.69,56.84c-0.07-0.09-0.06-0.22,0.03-0.29l1.11-0.87c0.09-0.07,0.22-0.06,0.29,0.04 c0.07,0.09,0.06,0.22-0.03,0.29l-1.11,0.87C30.89,56.95,30.76,56.93,30.69,56.84"/>
</g>
</g>
<g>
<path d="M56.45,51.12v0.25l-0.82,1.17l-1.7,1.93l-2.16,2.12l-2.06,1.61L48.1,59l-1.85-0.72l0.25-1.09l3.58-8.74 l4.56-3.47l1.93,2.73L56.45,51.12z"/>
<g>
<path d="M50.24,55.5c0.07-0.09,0.06-0.22-0.04-0.29l-1.31-1.03c-0.09-0.07-0.22-0.06-0.29,0.03 c-0.07,0.09-0.06,0.22,0.03,0.29l1.31,1.03C50.04,55.6,50.17,55.59,50.24,55.5"/>
<path d="M49.44,56.84c0.07-0.09,0.06-0.22-0.03-0.29l-1.11-0.87c-0.09-0.07-0.22-0.06-0.29,0.04 c-0.07,0.09-0.05,0.22,0.03,0.29l1.11,0.87C49.23,56.95,49.36,56.93,49.44,56.84"/>
</g>
</g>
</g>
<g id="Cheeks_Stalker-Medium" fill="rgb(245, 106, 10)">
<g>
<path d="M46.51,57.19l-0.86-0.23l4.27-12.28l0.17,0.57v3.2L46.51,57.19z"/>
<path d="M50.09,48.45l-0.17-3.77l1.73-0.94l2.92-1.99l2.58-2.29l0.27-0.31l-2.77,5.83L50.09,48.45z"/>
<path d="M58.88,50.97l-4.23-6l2.77-5.83l0.49-0.58L58.88,50.97z"/>
<path d="M44.33,66.54l-0.16,0.05l1.47-9.63l0.86,0.23L44.33,66.54z"/>
</g>
<g>
<path d="M21.24,50.97l4.23-6l-2.77-5.83l-0.49-0.58L21.24,50.97z"/>
<path d="M33.62,57.19l0.86-0.23l-4.27-12.28l-0.17,3.77L33.62,57.19z"/>
<path d="M30.04,48.45l0.17-3.77l-1.73-0.94l-2.92-1.99l-2.58-2.29l-0.27-0.31l2.77,5.83L30.04,48.45z"/>
<path d="M35.8,66.54l0.16,0.05l-1.47-9.63l-0.86,0.23L35.8,66.54z"/>
</g>
</g>
<path fill="rgb(0, 0, 0)" id="Visor_Stalker-Medium" d="M41.83,66.78H38.3l-0.38-25.45c0,0-3.7-0.78-3.8-0.78c-0.1,0-5.17-1.18-5.17-1.18 l-4.47-1.53l-1.49-0.76l0.1-1.35l4.31,0.7l5.35,0.68l5.01,0.32l2.05,0.14h0.51l2.05-0.14l5.01-0.32l5.35-0.68l4.31-0.7l0.1,1.35 l-1.49,0.76l-4.47,1.53c0,0-5.07,1.18-5.17,1.18c-0.1,0-3.8,0.78-3.8,0.78L41.83,66.78z"/>
<g id="Eyes_Stalker-Medium">
<g id="Main_Eyes_Stalker-Medium" fill="rgb(30, 30, 30)">
<path d="M57.51,33.36c0,0-0.54-1.02-0.89-1.47c-0.46-0.6-1.21-1.48-1.89-2.15c-0.98-0.95-2.81-2.27-3.99-3.57 c-1.18-1.29-2.48-3.19-3.1-4.23c-0.36-0.6-0.55-1.61-0.63-1.99c-0.02-0.1,0.17-0.26,0.17-0.26s-2.1-0.87-2.82-1.03 c-0.89-0.2-3.23-0.47-3.23-0.47l-1.99-0.01c0,0-2.45,0.28-3.36,0.48c-0.73,0.16-2.82,1.03-2.82,1.03s0.19,0.16,0.17,0.26 c-0.08,0.37-0.27,1.39-0.63,1.99c-0.62,1.04-1.93,2.94-3.1,4.23c-1.18,1.3-3.01,2.62-3.99,3.57c-0.68,0.67-1.42,1.55-1.89,2.15 c-0.35,0.46-0.89,1.47-0.89,1.47l-0.6,4.83l0.2,0.38l0.76,0.9l2.58,2.29l2.92,1.99l1.73,0.93l4.27,12.28l1.47,9.63l0.64,0.2 h6.95l0.64-0.2l1.47-9.63l4.27-12.28l1.73-0.93l2.92-1.99l2.58-2.29l0.76-0.9l0.2-0.38L57.51,33.36 M41.83,66.78H38.3 l-0.38-25.45c0,0-3.7-0.78-3.8-0.78c-0.1,0-5.17-1.18-5.17-1.18l-4.47-1.53l-1.49-0.76l0.1-1.35l4.31,0.7l5.35,0.68l5.01,0.32 l2.05,0.14h0.51l2.05-0.14l5.01-0.32l5.35-0.68l4.31-0.7l0.1,1.35l-1.49,0.76l-4.47,1.53c0,0-5.07,1.18-5.17,1.18 c-0.1,0-3.8,0.78-3.8,0.78L41.83,66.78"/>
<path d="M32.5,20.41l0.32-0.62l0.14-0.1l0.17,0.26l-0.06,0.27L32.5,20.41"/>
<path d="M47.63,20.41l-0.32-0.62l-0.14-0.1c0,0-0.16,0.16-0.17,0.26s0.1,0.31,0.1,0.31L47.63,20.41"/>
</g>
<g id="Trim_Eyes_Stalker-Medium" fill="rgb(23, 23, 23)">
<path d="M35.02,37.26l-0.37-0.9l-2.63-0.52l1.05-15.62l0.06-0.27l-0.17-0.25l2.73-1.02l1.09-0.2v16.27h6.59V18.48 l1.18,0.23l2.63,0.98l-0.18,0.26l1.1,15.89l-2.62,0.52l-0.37,0.9l-5.03,0.31L35.02,37.26z"/>
<path d="M43.36,34.75h-6.59l2.5,0.76v-0.38h1.58v0.38L43.36,34.75z"/>
<g>
<path d="M44.94,40.77l-2.74,0.57l-0.38,25.45h1.71l0.64-0.2l1.47-9.63l1.11-3.18l-2.26-2.35L44.94,40.77z"/>
<path d="M35.16,40.77l2.74,0.57l0.38,25.45h-1.71l-0.64-0.2l-1.47-9.63l-1.11-3.18l2.26-2.35L35.16,40.77z"/>
</g>
</g>
<path id="Center_Eyes_Stalker-Medium" d="M43.36,18.48c0,0-1.59-0.3-3.3-0.3c-1.7,0-3.29,0.3-3.29,0.3v16.27h6.59 V18.48z" fill="rgb(15, 15, 15)"/>
</g>
</g>
</g></g>
<g id="HelmetsDecals" mask="url(#HelmetsMask)"/>
<g id="Shoulders">
<g id="Left-Shoulder"><g id="Legacy-x3_Shoulder_Left" class="option" style="display: inherit;">
<path id="Plate-3_Shoulder_Left_Legacy-x3" d="M117.06,20.06l-7.61,7.75l4.46,9.61l10.03-0.53l5.31,4.84l4.73-0.33 L117.06,20.06z" fill="rgb(20, 19, 19)"/>
<path id="Trauma-Plate-3_Shoulder_Legacy-x3_Left" class="toggle" style="" d="M129.88,39.93l3.05-0.21l-14.58-18.47l-6.8,6.92 l3.45,7.43l9.24-0.57L129.88,39.93z" fill="rgb(30, 30, 30)"/>
<path id="Plate-2_Shoulder_Left_Legacy-x3" d="M112.95,15.27l-6.03,9.03l6.18,8.61l9.75-2.38l6.12,3.77l4.58-1.2 L112.95,15.27z" fill="rgb(245, 106, 10)"/>
<path id="Trauma-Plate-2_Shoulder_Legacy-x3_Left" class="toggle" style="" d="M129.25,32.41l2.96-0.77l-17.76-15.47l-5.39,8.05 l4.77,6.67l8.97-2.26L129.25,32.41z" fill="rgb(30, 30, 30)"/>
<path id="Plate-1_Shoulder_Left_Legacy-x3" d="M105.53,10.64l-2.71,10.49l8.68,6.12l8.43-5.43l7.03,1.57l3.93-2.63 L105.53,10.64z" fill="rgb(25, 25, 25)"/>
<path id="Trauma-Plate-1_Shoulder_Legacy-x3_Left" class="toggle" style="" d="M126.6,21.52l2.54-1.7l-21.9-8.79l-2.42,9.37 l6.72,4.74l7.72-5.07L126.6,21.52z" fill="rgb(30, 30, 30)"/>
</g></g>
<g id="Right-Shoulder"><g id="Legacy-x3_Shoulder_Right" class="option" style="display: inherit;">
<path id="Plate-3_Shoulder_Right_Legacy-x3" d="M53.01,20.06l7.61,7.75l-4.46,9.61L46.13,36.9l-5.31,4.84 l-4.72-0.33L53.01,20.06z" fill="rgb(20, 19, 19)"/>
<path id="Trauma-Plate-3_Shoulder_Legacy-x3_Right" class="toggle" style="" d="M40.19,39.93l-3.05-0.21l14.58-18.47l6.8,6.92 l-3.45,7.43l-9.24-0.57L40.19,39.93z" fill="rgb(30, 30, 30)"/>
<path id="Plate-2_Shoulder_Right_Legacy-x3" d="M57.12,15.27l6.03,9.03l-6.18,8.61l-9.75-2.38l-6.12,3.77 l-4.58-1.2L57.12,15.27z" fill="rgb(245, 106, 10)"/>
<path id="Trauma-Plate-2_Shoulder_Legacy-x3_Right" class="toggle" style="" d="M40.82,32.41l-2.96-0.77l17.76-15.47l5.39,8.05 l-4.77,6.67l-8.97-2.26L40.82,32.41z" fill="rgb(30, 30, 30)"/>
<path id="Plate-1_Shoulder_Right_Legacy-x3" d="M64.54,10.64l2.71,10.49l-8.68,6.12l-8.43-5.43l-7.03,1.57 l-3.93-2.63L64.54,10.64z" fill="rgb(25, 25, 25)"/>
<path id="Trauma-Plate-1_Shoulder_Legacy-x3_Right" class="toggle" style="" d="M43.46,21.52l-2.54-1.7l21.9-8.79l2.42,9.37 l-6.72,4.74l-7.72-5.07L43.46,21.52z" fill="rgb(30, 30, 30)"/>
</g></g>
</g>
<g id="ShouldersDecals" mask="url(#ShouldersMask)">
</g>
<g id="Gauntlets">
<g id="Left-Gauntlets"><g id="Heavy_Gauntlet_Left" class="option" style="display: inherit;">
<g id="Top-2_Heavy_Gauntlet_Left" fill="rgb(45, 44, 44)">
<path d="M138.59,76.62l1.79,0.28l0.78,8.51l-1.63,1.15L138.59,76.62z"/>
<path d="M139.46,85.82l0.98,11.09l-1.1,1.25l0.62,6.53l-0.49,0.3l-1.72-17.87L139.46,85.82z"/>
<path d="M139.73,82.71c0.22,0.02,0.38,0.21,0.36,0.42c-0.02,0.21-0.21,0.37-0.42,0.36 c-0.22-0.02-0.38-0.21-0.36-0.42C139.33,82.85,139.52,82.69,139.73,82.71z"/>
</g>
<g id="Top-1_Heavy_Gauntlet_Left" fill="rgb(30, 30, 30)">
<path d="M134.86,105.83l4.61-0.85l-1.72-17.87l1.71-1.29l-0.92-9.74l-6.76-1.25L134.86,105.83z"/>
<path d="M136.79,75.76l0.96,11.35"/>
</g>
<g id="Accent-Top_Heavy_Gauntlet_Left" fill="rgb(245, 106, 10)">
<path d="M138.4,102.17l-2.92,0.35l0.25,2.26l2.93-0.44L138.4,102.17z"/>
<path d="M137.36,92.7l-2.92,0.35l0.96,8.83l2.92-0.35L137.36,92.7z"/>
<path d="M136.12,76.34l-3.22-0.51l0.91,9.67l3.06-0.36L136.12,76.34z"/>
</g>
<path id="Bottom_Heavy_Gauntlet_Left" d="M131.82,75.29c-3.5-0.15-7.25,1.05-9.76,3.79 c-0.81,0.89-1.14,2.11-0.88,3.29c1.24,5.67,5.3,24.23,5.3,24.23l8.38-0.76L131.82,75.29z" fill="rgb(30, 30, 30)"/>
<g id="Accent-Bottom_Heavy_Gauntlet_Left" fill="rgb(245, 106, 10)">
<path d="M134.86,105.83l-8.38,0.76l-0.33-1.5l8.54-0.89L134.86,105.83z"/>
<path d="M132.02,77.36c-4.54,0.08-8.44,1.41-10.6,6.11l-0.24-1.11c-0.2-0.92-0.04-1.88,0.43-2.68l0.48-0.64 c2.51-2.72,6.24-3.91,9.72-3.75L132.02,77.36z"/>
<path d="M130.96,75.89l-3.7,0.42l1.68,14.61l3.7-0.42L130.96,75.89z"/>
<path d="M130.51,76.22l-2.73,0.31l1.55,13.51l2.73-0.31L130.51,76.22z"/>
<path d="M127.78,76.53l-0.52-0.22"/>
<path d="M130.96,75.89l-0.46,0.33"/>
<path d="M132.64,90.5l-0.58-0.77"/>
<path d="M128.95,90.92l0.46-0.89"/>
</g><g id="No-Device_Attachment_Heavy_Gauntlet_Left" class="option" style="display: inherit;">
</g>
</g></g>
<g id="Right-Gauntlets"><g id="Heavy_Gauntlet_Right" class="option" style="display: inherit;">
<g id="Top-2_Heavy_Gauntlet_Right" fill="rgb(45, 44, 44)">
<path d="M31.48,76.62l-1.79,0.28l-0.78,8.51l1.63,1.15L31.48,76.62z"/>
<path d="M30.61,85.82l-0.98,11.09l1.1,1.25l-0.62,6.53l0.49,0.3l1.72-17.87L30.61,85.82z"/>
<path d="M30.33,82.71c-0.22,0.02-0.38,0.21-0.36,0.42c0.02,0.21,0.21,0.37,0.42,0.36c0.22-0.02,0.38-0.21,0.36-0.42 C30.74,82.85,30.55,82.69,30.33,82.71z"/>
</g>
<g id="Top-1_Heavy_Gauntlet_Right" fill="rgb(30, 30, 30)">
<path d="M35.21,105.83l-4.61-0.85l1.72-17.87l-1.71-1.29l0.92-9.74l6.77-1.25L35.21,105.83z"/>
<path d="M33.28,75.76l-0.96,11.35"/>
</g>
<g id="Accent-Top_Heavy_Gauntlet_Right" fill="rgb(245, 106, 10)">
<path d="M31.67,102.17l2.92,0.35l-0.25,2.26l-2.93-0.44L31.67,102.17z"/>
<path d="M32.71,92.7l2.92,0.35l-0.96,8.83l-2.92-0.35L32.71,92.7z"/>
<path d="M33.94,76.34l3.22-0.51l-0.91,9.67l-3.06-0.36L33.94,76.34z"/>
</g>
<path id="Bottom_Heavy_Gauntlet_Right" d="M38.25,75.29c3.5-0.15,7.25,1.05,9.76,3.79 c0.81,0.89,1.14,2.11,0.88,3.29c-1.24,5.67-5.3,24.23-5.3,24.23l-8.38-0.76L38.25,75.29z" fill="rgb(30, 30, 30)"/>
<g id="Accent-Bottom_Heavy_Gauntlet_Right" fill="rgb(245, 106, 10)">
<path d="M35.21,105.83l8.38,0.76l0.33-1.5l-8.54-0.89L35.21,105.83z"/>
<path d="M38.04,77.36c4.54,0.08,8.44,1.41,10.6,6.11l0.24-1.11c0.2-0.92,0.04-1.88-0.43-2.68l-0.48-0.64 c-2.51-2.72-6.24-3.91-9.72-3.75L38.04,77.36z"/>
<path d="M39.1,75.89l3.7,0.42l-1.68,14.61l-3.7-0.42L39.1,75.89z"/>
<path d="M39.56,76.22l2.73,0.31l-1.55,13.51L38,89.73L39.56,76.22z"/>
<path d="M42.28,76.53l0.52-0.22"/>
<path d="M39.1,75.89l0.46,0.33"/>
<path d="M37.42,90.5L38,89.73"/>
<path d="M41.12,90.92l-0.46-0.89"/>
</g><g id="Flamethrower_Attachment_Heavy_Gauntlet_Right" class="option" style="display: inherit;">
<g id="Tubes_Flamethrower_Attachment_Heavy_Gauntlet_Right" fill="rgb(56, 55, 55)">
<path d="M29.95,76.96l0.86,0.08l-2.38,26.12l-0.86-0.08L29.95,76.96z"/>
<path d="M27.97,76.78l0.86,0.08l-1.71,18.73l-0.86-0.08L27.97,76.78z"/>
<path d="M29.53,78.57l1.3,0.12l-0.57,6.22l-1.3-0.12L29.53,78.57z"/>
<path d="M27.66,78.4l1.19,0.11l-0.57,6.22l-1.19-0.11L27.66,78.4z"/>
</g>
<g id="Main_Flamethrower_Attachment_Heavy_Gauntlet_Right" fill="rgb(94, 94, 94)">
<path d="M27.64,76.35l3.55,0.32L31,78.7l-3.55-0.32L27.64,76.35z"/>
<path d="M26.81,84.6l3.71,0.33l-0.09,1l-3.71-0.33L26.81,84.6z"/>
<path d="M26.87,85.61l3.4,0.31l-0.05,0.5l-3.4-0.31L26.87,85.61z"/>
<path d="M30.2,84.28l0.57,0.07l-0.28,3.04l-0.57-0.07L30.2,84.28z"/>
</g>
<g id="Accent_Flamethrower_Attachment_Heavy_Gauntlet_Right" fill="rgb(39, 38, 38)">
<path d="M26.24,95.5l0.92,0.08l0.03,1.29l-1.21-0.11L26.24,95.5z"/>
<path d="M26.49,88.82l1.64,0.15l-0.18,1.98l-1.64-0.15L26.49,88.82z"/>
<path d="M26.53,90.82l1.19,0.11l-0.18,1.98l-1.19-0.11L26.53,90.82z"/>
<path d="M27.71,99.77l1.19,0.11l-0.25,2.72l-1.19-0.11L27.71,99.77z"/>
<path d="M28.51,91l1.19,0.11l-0.34,3.7l-1.19-0.11L28.51,91z"/>
<path d="M27.36,101.11l1.64,0.15l-0.05,0.53l-1.64-0.15L27.36,101.11z"/>
</g>
<path id="Base_Flamethrower_Attachment_Heavy_Gauntlet_Right" d="M30.77,84.35l0.77-8.24l-1.02,0.3l-1.3,13.94 l0.95,0.54l0.32-3.49l-0.57-0.07l0.28-3.04L30.77,84.35z" fill="rgb(36, 36, 36)"/>
</g></g></g>
</g>
<g id="GauntletsDecals" mask="url(#GauntletsMask)">
</g>
<g id="Shins">
<g id="Left-Shin"><g id="Full_Shin_Left" class="option" style="display: inherit;">
<path id="Shin_Full-Shin_Left" d="M103.34,173.15c11.54-2.49,19.03-0.14,19.03-0.14l2.15,44.16 c0,0-4.54,0.98-9.41,0.86c-3.57-0.08-9.24-1.5-9.24-1.5l-6.18-37.76C99.69,178.77,103.49,178.13,103.34,173.15" fill="rgb(30, 30, 30)"/>
<g id="Accent_Full-Shin_Left" class="toggle" fill="rgb(245, 106, 10)">
<path d="M100.4,182.9l6.35-0.45l0.33,1.66l-6.39,0.45L100.4,182.9"/>
<path d="M100.8,185.22l4.34-0.31l0.33,1.66l-4.38,0.32L100.8,185.22"/>
</g>
<g id="Ridge_Full-Shin_Left" class="toggle" fill="rgb(245, 106, 10)">
<path d="M118.47,171.86l-4.06-0.51l-4.21,0.35l6.03,46.34c2.03,0.09,3.54-0.11,5.88-0.46L118.47,171.86"/>
<path d="M114.41,171.35l5.07,46.58"/>
</g>
</g></g>
<g id="Right-Shin"><g id="Full_Shin_Right" class="option" style="display: inherit;">
<path id="Shin_Full-Shin_Right" d="M66.64,173.15c-11.54-2.49-19.03-0.14-19.03-0.14l-2.16,44.16 c0,0,4.54,0.98,9.41,0.86c3.57-0.08,9.24-1.5,9.24-1.5l6.19-37.76C70.29,178.77,66.49,178.13,66.64,173.15" fill="rgb(30, 30, 30)"/>
<g id="Accent_Full-Shin_Right" class="toggle" fill="rgb(245, 106, 10)">
<path d="M69.58,182.91l-6.35-0.45l-0.33,1.66l6.39,0.45L69.58,182.91"/>
<path d="M69.18,185.22l-4.34-0.31l-0.33,1.66l4.38,0.32L69.18,185.22"/>
</g>
<g id="Ridge_Full-Shin_Right" class="toggle" fill="rgb(245, 106, 10)">
<path d="M51.51,171.86l4.06-0.51l4.21,0.35l-6.03,46.33c-2.03,0.08-3.54-0.11-5.88-0.46L51.51,171.86"/>
<path d="M55.57,171.35l-5.07,46.58"/>
</g>
</g></g>
</g>
<g id="ShinsDecals" mask="url(#ShinsMask)">
</g>
<g id="Foot">
<g id="Left-Ankle"><g id="Legacy_Ankle_Left" class="option" style="display: inherit;">
<path id="Plate-2_Legacy-Ankle_Left" d="M124.5,223.42l3.77,3.39l2.6,3.25l-4.16,1.34l-9.52-1.97l-3.48-4.58 L124.5,223.42" fill="rgb(245, 106, 10)"/>
<path id="Plate-1_Legacy-Ankle_Left" d="M107.38,217.05c0,0,3.8,1.69,9.42,1.49c3.86-0.14,5.42-1.1,5.42-1.1 l3.27,6.02l-0.85,3.32l-13.76-1.08l-3.39-2.85L107.38,217.05" fill="rgb(25, 25, 25)"/>
<path id="Trauma-Plate-2_Legacy-Ankle_Left" class="toggle" style="" d="M125.31,224.15l2.94,2.64l1.52,1.89l-3.16,1.02 l-8.38-1.73l-1.38-1.81l7.79,0.61L125.31,224.15" fill="rgb(30, 30, 30)"/>
<path id="Trauma-Plate-1_Legacy-Ankle_Left" class="toggle" style="" d="M108.82,219.15l0.06,2.76l2.74,2.21l12.1,0.95l0.86-3.32 l-1.54-2.84c-1.02,0.29-4.12,1.18-6.16,1.26C113.64,220.28,110.62,219.62,108.82,219.15" fill="rgb(30, 30, 30)"/>
</g></g>
<g id="Left-Toe">
<g id="Armored_Toe_Left" class="option" style="display: inherit;">
<g id="Plate_Armored_Toe_Left" fill="rgb(30, 30, 30)">
<path d="M115.81,232.98l10,5.52l7.55,0.51l6.05-1.53c1.27-1.05,1.77-3.41,0.69-5.76l-8.53-4.03l-6.69,1.67 L115.81,232.98"/>
<path d="M124.19,229.66c0,0,7.8,2.27,8.77,3.62c1.08,1.49,0.4,5.74,0.4,5.74"/>
</g>
<g id="Trim_Armored_Toe_Left" fill="rgb(245, 106, 10)">
<path d="M130.41,227.04l-8.03,1.93l-6.78,4.09l1.4,0.77l7.18-4.18l7.99-1.87L130.41,227.04"/>
<path d="M122.38,228.97l1.8,0.69"/>
</g>
</g></g>
<g id="Right-Ankle"><g id="Legacy_Ankle_Right" class="option" style="display: inherit;">
<path id="Plate-2_Legacy-Ankle_Right" d="M45.56,223.42l-3.77,3.39l-2.6,3.25l4.16,1.34l9.52-1.97l3.48-4.58 L45.56,223.42" fill="rgb(245, 106, 10)"/>
<path id="Plate-1_Legacy-Ankle_Right" d="M62.68,217.05c0,0-3.8,1.69-9.42,1.49c-3.86-0.14-5.43-1.1-5.43-1.1 l-3.27,6.02l0.85,3.32l13.76-1.08l3.39-2.85L62.68,217.05" fill="rgb(25, 25, 25)"/>
<path id="Trauma-Plate-2_Legacy-Ankle_Right" class="toggle" style="" d="M44.75,224.15l-2.94,2.64l-1.52,1.89l3.16,1.02 l8.38-1.73l1.38-1.81l-7.79,0.61L44.75,224.15" fill="rgb(30, 30, 30)"/>
<path id="Trauma-Plate-1_Legacy-Ankle_Right" class="toggle" style="" d="M61.24,219.15l-0.06,2.76l-2.74,2.21l-12.1,0.95 l-0.86-3.32l1.54-2.84c1.02,0.29,4.12,1.18,6.16,1.26C56.42,220.28,59.44,219.62,61.24,219.15" fill="rgb(30, 30, 30)"/>
</g></g>
<g id="Right-Toe">
<g id="Armored_Toe_Right" class="option" style="display: inherit;">
<g id="Plate_Armored_Toe_Right" fill="rgb(30, 30, 30)">
<path d="M54.19,232.98l-10,5.52l-7.55,0.51l-6.05-1.53c-1.27-1.05-1.77-3.41-0.69-5.76l8.53-4.03l6.69,1.67 L54.19,232.98"/>
<path d="M45.81,229.66c0,0-7.8,2.27-8.77,3.62c-1.08,1.49-0.4,5.74-0.4,5.74"/>
</g>
<g id="Trim_Armored_Toe_Right" fill="rgb(245, 106, 10)">
<path d="M39.59,227.04l8.03,1.93l6.77,4.09l-1.4,0.77l-7.18-4.18l-7.99-1.87L39.59,227.04"/>
<path d="M47.62,228.97l-1.8,0.69"/>
</g>
</g></g>
</g>
<g id="FootDecals" mask="url(#FootMask)">
</g>
<g id="Knees">
<g id="Left-Knee"><g id="Galaxy_Knee_Left" class="option" style="display: inherit;">
<g id="Missiles_Galaxy-Knee_Left" class="toggle" style="display:none"/>
<g id="Strap_Galaxy-Knee_Left" fill="rgb(65, 64, 64)">
<path d="M98.61,161.5l2.91-0.44l0.41,2.69l-2.91,0.44L98.61,161.5z"/>
<path d="M97.12,162.06l1.54-0.23l0.31,2.04l-1.54,0.23L97.12,162.06z"/>
</g>
<path id="Knee_Galaxy-Knee_Left" d="M115.76,171.95l4.15-12.31l-4.4-5.04l-12.85,1.95l-2.68,6.12l7.65,10.52 L115.76,171.95z" fill="rgb(30, 30, 30)"/>
<g id="Trim_Galaxy-Knee_Left" fill="rgb(245, 106, 10)">
<path d="M106.64,155.95l4.9-0.74l0.49,3.22l-4.9,0.74L106.64,155.95z"/>
<path d="M99.98,162.67c4.61,0.27,9.27,10.27,9.27,10.27l-1.62,0.25L99.98,162.67z"/>
<path d="M119.91,159.65c-4.32,1.62-5.77,12.55-5.77,12.55l1.62-0.25L119.91,159.65z"/>
</g>
</g></g>
<g id="Right-Knee"><g id="Galaxy_Knee_Right" class="option" style="display: inherit;">
<g id="Missiles_Galaxy-Knee_Right" class="toggle" style="display:none"/>
<g id="Strap_Galaxy-Knee_Right" fill="rgb(65, 64, 64)">
<path d="M71.39,161.5l-2.91-0.44l-0.41,2.69l2.91,0.44L71.39,161.5z"/>
<path d="M72.88,162.06l-1.54-0.23l-0.31,2.04l1.54,0.23L72.88,162.06z"/>
</g>
<path id="Knee_Galaxy-Knee_Right" d="M54.24,171.95l-4.15-12.31l4.4-5.04l12.85,1.95l2.68,6.12l-7.65,10.52 L54.24,171.95z" fill="rgb(30, 30, 30)"/>
<g id="Trim_Galaxy-Knee_Right" fill="rgb(245, 106, 10)">
<path d="M63.36,155.95l-4.9-0.74l-0.49,3.22l4.9,0.74L63.36,155.95z"/>
<path d="M70.02,162.67c-4.61,0.27-9.27,10.27-9.27,10.27l1.62,0.25L70.02,162.67z"/>
<path d="M50.09,159.65c4.32,1.62,5.77,12.55,5.77,12.55l-1.62-0.25L50.09,159.65z"/>
</g>
</g></g>
</g>
<g id="KneesDecals" mask="url(#KneesMask)">
</g>
<g id="Thighs">
<g id="Left-Thigh"><g id="Heavy_Thigh_Left" class="option" style="display: inherit;">
<g id="Thigh_Heavy-Thigh_Left" fill="rgb(30, 30, 30)">
<path d="M96.2,116.74l-6,7.6l6.86,27.25l4.66,1.65l-3.25-31.06L96.2,116.74"/>
<path d="M111.52,115.16l7.44,6.21l-1.07,28.07l-4.22,2.57l-3.25-31.06L111.52,115.16"/>
<path d="M111.52,115.16l-15.33,1.58l2.27,5.44l11.96-1.24L111.52,115.16"/>
<path d="M110.43,120.95l-11.96,1.24l3.25,31.06l11.96-1.24L110.43,120.95"/>
</g>
<g id="Trim_Heavy-Thigh_Left" fill="rgb(245, 106, 10)">
<path d="M112.12,112.78l-17.01,1.76l1.08,2.21l15.33-1.58L112.12,112.78"/>
<path d="M118.67,118.71l-6.55-5.94l-0.6,2.38l7.44,6.21L118.67,118.71"/>
<path d="M89.94,121.68l5.18-7.15l1.08,2.21l-6,7.6L89.94,121.68"/>
</g>
</g></g>
<g id="Right-Thigh"><g id="Heavy_Thigh_Right" class="option" style="display: inherit;">
<g id="Thigh_Heavy-Thigh_Right" fill="rgb(30, 30, 30)">
<path d="M73.8,116.74l6,7.6l-6.86,27.25l-4.66,1.65l3.25-31.06L73.8,116.74"/>
<path d="M58.48,115.16l-7.44,6.21l1.07,28.07l4.22,2.57l3.25-31.06L58.48,115.16"/>
<path d="M58.48,115.16l15.33,1.58l-2.27,5.44l-11.96-1.24L58.48,115.16"/>
<path d="M59.58,120.95l11.96,1.24l-3.25,31.06l-11.96-1.24L59.58,120.95"/>
</g>
<g id="Trim_Heavy-Thigh_Right" fill="rgb(245, 106, 10)">
<path d="M57.88,112.78l17.01,1.76l-1.08,2.21l-15.33-1.58L57.88,112.78"/>
<path d="M51.33,118.71l6.55-5.94l0.6,2.38l-7.44,6.21L51.33,118.71"/>
<path d="M80.06,121.68l-5.18-7.15l-1.08,2.21l6,7.6L80.06,121.68"/>
</g>
</g></g>
</g>
<g id="ThighsDecals" mask="url(#ThighsMask)">
</g>
<g id="Groin"><g id="Basic_Groin" class="option" style="display: inherit;">
<path id="Groin-Plate_Basic" d="M78.57,104.6L67.72,82.91h34.71L91.58,104.6c0,0-4.33,5.17-6.5,5.17 C82.91,109.76,78.57,104.6,78.57,104.6z" fill="rgb(0, 0, 0)"/>
<path id="Trauma-Plating_Groin" class="toggle" style="" d="M90.42,103.84l9.8-19.57H69.93l9.79,19.57c0.43,0.5,2.16,2.47,3.82,3.72 c0.58,0.44,1.1,0.84,1.53,0.84c0.44,0,0.95-0.4,1.53-0.84C88.26,106.32,89.99,104.34,90.42,103.84" fill="rgb(30, 30, 30)"/>
</g>
</g>
<g id="GroinDecals" mask="url(#GroinMask)">
</g>
<g id="Waist">
<g id="Accessories_Waist">
<g id="Kama" class="toggle" style="display:none"/>
<g id="Loin-Cloth" class="toggle" style="display:none"/>
<g id="Left-Holster" class="toggle" style="display:none"/>
<g id="Right-Holster" class="toggle" style=""><g id="Belt-Holster_Right" class="option" style="display: inherit;">
<g id="Weapon_Belt-Holster-Right">
<g id="Main_Weapon_Belt-Holster-Right" fill="rgb(49, 48, 48)">
<path d="M60.06,89.79l0.25-3.73l-0.65-0.04l0.16-2.35l0.65,0.04l0.08-1.22c0.03-0.4-0.48-0.75-1.14-0.8 c-1.5-0.1-4.08-0.27-5.58-0.37c-0.66-0.04-1.21,0.24-1.24,0.64l-0.08,1.22l0.65,0.04L53,85.57l-0.65-0.04l-0.25,3.73l1.52,0.1 L52.93,99.7l4.91,0.33l0.69-10.33L60.06,89.79z"/>
<path d="M52.79,88.76l0.87,0.06l-0.83,12.42l4.92,0.33l0.83-12.42l0.87,0.06l0.19-2.83l-6.66-0.44L52.79,88.76z"/>
<path d="M54.59,82.18l3.94,0.26l-0.26,3.83l-3.94-0.26L54.59,82.18z"/>
<path d="M57.37,90.19l0.65,0.04l-0.65,9.77l-0.65-0.04L57.37,90.19z"/>
<path d="M55.87,87.85l0.65,0.04l-0.65,9.76l-0.65-0.04L55.87,87.85z"/>
<path d="M54.07,89.97l0.65,0.04l-0.65,9.76l-0.65-0.04L54.07,89.97z"/>
</g>
<g id="Accent_Weapon_Belt-Holster-Right" fill="rgb(160, 158, 158)">
<path d="M57.67,86.63l-0.03,0.39l-2.78-0.18l0.03-0.39L57.67,86.63z"/>
<path d="M57.64,87.02l-0.03,0.39l-2.78-0.18l0.03-0.39L57.64,87.02z"/>
<path d="M57.7,86.24l-0.03,0.39l-2.78-0.18l0.03-0.39L57.7,86.24z"/>
<path d="M58.02,81.43l-0.03,0.39l-2.78-0.18l0.03-0.39L58.02,81.43z"/>
<path d="M57.89,82.4l0.65,0.04l-0.26,3.83l-0.65-0.04L57.89,82.4z"/>
<path d="M54.59,82.18l0.65,0.04l-0.26,3.83l-0.65-0.04L54.59,82.18z"/>
<path d="M54.72,90.01l0.98,0.06l-0.66,9.77l-0.98-0.07L54.72,90.01z"/>
<path d="M56.38,90.12l0.98,0.06l-0.65,9.77l-0.98-0.07L56.38,90.12z"/>
</g>
</g>
<path id="Holster_Belt-Holster-Right" d="M58.39,104.11l2.57-15.56l-8.61,10.96l-0.82,21.48 c1.49,1.96,3.16,2.16,5.03,0.37L58.39,104.11z" fill="rgb(30, 30, 30)"/>
</g>
</g>
<g id="Left-Trophy" class="toggle" style="display:none"/>
<g id="Right-Trophy" class="toggle" style="display:none"/>
</g>
<g id="Under-Belt"><g id="Girth-Belt" class="option" fill="rgb(18, 18, 18)" style="display: inherit;">
<path d="M85.04,76.62c-7.36,0-22.09-1.86-22.09-1.86l0.48-1.58c0,0,14.37,1.24,21.61,1.86 c7.21-0.62,21.61-1.86,21.61-1.86l0.48,1.58C107.13,74.76,92.4,76.62,85.04,76.62z"/>
<path d="M85.04,78.2c-7.52,0-22.55-1.86-22.55-1.86l0.46-1.58c0,0,18.41,1.55,22.09,1.86 c3.68-0.31,22.09-1.86,22.09-1.86l0.46,1.58C107.59,76.34,92.56,78.2,85.04,78.2z"/>
<path d="M85.04,79.78c-7.63,0-22.9-1.86-22.9-1.86l0.34-1.58c0,0,18.79,1.55,22.55,1.86 c3.76-0.31,22.55-1.86,22.55-1.86l0.34,1.58C107.94,77.92,92.67,79.78,85.04,79.78z"/>
<path d="M85.04,81.36c-7.73,0-23.18-1.86-23.18-1.86l0.29-1.58c0,0,19.08,1.55,22.9,1.86 c3.82-0.31,22.9-1.86,22.9-1.86l0.29,1.58C108.22,79.49,92.77,81.36,85.04,81.36z"/>
<path d="M85.04,82.94c-7.81,0-23.44-1.86-23.44-1.86l0.26-1.58c0,0,19.32,1.55,23.18,1.86 c3.86-0.31,23.18-1.86,23.18-1.86l0.26,1.58C108.49,81.07,92.86,82.94,85.04,82.94z"/>
<path d="M85.04,84.52c-7.9,0-23.69-1.86-23.69-1.86l0.25-1.58c0,0,19.54,1.55,23.44,1.86 c3.91-0.31,23.44-1.86,23.44-1.86l0.25,1.58C108.73,82.65,92.94,84.52,85.04,84.52z"/>
<path d="M85.04,86.1c-7.98,0-23.93-1.86-23.93-1.86l0.24-1.58c0,0,19.74,1.55,23.69,1.86 c3.95-0.31,23.69-1.86,23.69-1.86l0.24,1.58C108.97,84.23,93.02,86.1,85.04,86.1z"/>
<path d="M85.04,87.68c-8.06,0-24.18-1.86-24.18-1.86l0.25-1.58c0,0,19.94,1.55,23.93,1.86 c3.99-0.31,23.93-1.86,23.93-1.86l0.25,1.58C109.22,85.81,93.1,87.68,85.04,87.68z"/>
<path d="M85.04,89.25c-8.15,0-24.45-1.86-24.45-1.86l0.27-1.58c0,0,20.15,1.55,24.18,1.86 c4.03-0.31,24.18-1.86,24.18-1.86l0.27,1.58C109.49,87.39,93.19,89.25,85.04,89.25z"/>
<path d="M85.04,90.83c-8.25,0-24.76-1.86-24.76-1.86l0.31-1.58c0,0,20.38,1.55,24.45,1.86 c4.08-0.31,24.45-1.86,24.45-1.86l0.31,1.58C109.8,88.97,93.29,90.83,85.04,90.83z"/>
</g>
</g>
<g id="Belt"><g id="Pouch-Belt-4" class="option" style="display: inherit;">
<path id="Main_Pouch-Belt-4" d="M109.38,84.25c-5.47,0.49-17.98,2.27-24.29,2.27c-6.38,0-18.88-1.79-24.28-2.26 l0.81-6.37c4.44,0.39,17.3,2.2,23.48,2.2c5.99,0,18.59-1.79,23.33-2.22L109.38,84.25z" fill="rgb(18, 18, 18)"/>
<rect id="Buckle_Pouch-Belt-4" x="80.61" y="79.49" width="9.05" height="7.39" fill="rgb(122, 122, 122)"/>
<g id="Pouches_Pouch-Belt-4" fill="rgb(64, 64, 64)">
<g>
<g>
<path d="M66.42,76.75c-1.32-0.09-2.64,0.14-3.85,0.67h0l5.92,0.34L70.1,77C70.1,77,68.06,76.86,66.42,76.75z"/>
<path d="M70.3,77.24c0.01-0.07-0.03-0.14-0.09-0.19c-0.06-0.04-0.14-0.05-0.21-0.02 c-0.53,0.25-1.52,0.72-1.52,0.72s-0.64,7.72-0.79,9.57c-0.01,0.08,0.03,0.15,0.09,0.19c0.06,0.04,0.14,0.04,0.21,0.01 c0.54-0.29,1.06-0.47,1.59-0.56c0.1-0.02,0.17-0.1,0.17-0.19C69.87,83.59,69.99,80.41,70.3,77.24z"/>
<path d="M68.49,77.76l-5.92-0.34c-0.04,1.51-0.18,3.02-0.26,4.54c-0.09,1.75-0.13,3.51-0.3,5.28 c-0.01,0.06,0.01,0.12,0.05,0.16c0.04,0.04,0.1,0.07,0.15,0.07c1.83-0.02,3.66,0.08,5.47,0.31c0.06,0.01,0.11-0.01,0.16-0.04 s0.07-0.09,0.08-0.14c0.06-0.93,0.31-4.51,0.31-4.51L68.49,77.76z"/>
<path d="M68.49,77.76l-5.92-0.34c0,0-0.08,0.74-0.19,1.64c-0.1,0.83,0.16,1.67,0.7,2.31 c0.54,0.64,1.33,1.03,2.17,1.08c0,0,0,0,0,0c0.84,0.05,1.67-0.25,2.28-0.83c0.61-0.58,0.96-1.38,0.96-2.22 C68.49,78.5,68.49,77.76,68.49,77.76z"/>
<path d="M65.32,81.27c0.21,0.01,0.37,0.21,0.36,0.44c-0.01,0.23-0.19,0.4-0.4,0.39s-0.37-0.21-0.36-0.44 C64.93,81.43,65.11,81.26,65.32,81.27z"/>
</g>
</g>
<g>
<path d="M58.83,77.31l0.44-0.68l2.27,0.07l0.28,0.85L58.83,77.31z"/>
<path d="M61.81,77.64c0.01-0.06-0.01-0.11-0.05-0.16c-0.04-0.04-0.09-0.07-0.15-0.07 c-0.69-0.03-2.78-0.11-2.78-0.11l-0.4,8.96c0.11,0.27,1.76,0.43,2.69,0.39c0.11-0.01,0.19-0.09,0.19-0.2 C61.37,83.51,61.47,80.57,61.81,77.64z"/>
</g>
<g>
<g>
<path d="M103.76,76.75c1.32-0.09,2.64,0.14,3.85,0.67h0l-5.92,0.34L100.08,77 C100.08,77,102.13,76.86,103.76,76.75z"/>
<path d="M99.88,77.24c-0.01-0.07,0.03-0.14,0.09-0.19c0.06-0.04,0.14-0.05,0.21-0.02 c0.53,0.25,1.52,0.72,1.52,0.72s0.64,7.72,0.79,9.57c0.01,0.08-0.03,0.15-0.09,0.19c-0.06,0.04-0.14,0.04-0.21,0.01 c-0.54-0.29-1.06-0.47-1.59-0.56c-0.1-0.02-0.17-0.1-0.17-0.19C100.31,83.59,100.19,80.41,99.88,77.24z"/>
<path d="M101.69,77.76l5.92-0.34c0.04,1.51,0.18,3.02,0.26,4.54c0.09,1.75,0.13,3.51,0.3,5.28 c0,0.06-0.01,0.12-0.05,0.16c-0.04,0.04-0.1,0.07-0.15,0.07c-1.83-0.02-3.66,0.08-5.47,0.31c-0.06,0.01-0.11-0.01-0.16-0.04 s-0.07-0.09-0.08-0.14c-0.06-0.93-0.31-4.51-0.31-4.51L101.69,77.76z"/>
<path d="M101.69,77.76l5.92-0.34c0,0,0.08,0.74,0.19,1.64c0.09,0.83-0.16,1.67-0.7,2.31 c-0.54,0.64-1.33,1.03-2.17,1.08c0,0,0,0,0,0c-0.84,0.05-1.67-0.25-2.28-0.83c-0.61-0.58-0.96-1.38-0.96-2.22 C101.69,78.5,101.69,77.76,101.69,77.76z"/>
<path d="M104.86,81.27c-0.21,0.01-0.37,0.21-0.36,0.44c0.01,0.23,0.19,0.4,0.4,0.39s0.37-0.21,0.36-0.44 C105.25,81.43,105.07,81.26,104.86,81.27z"/>
</g>
</g>
<g>
<path d="M111.35,77.31l-0.44-0.68l-2.27,0.07l-0.28,0.85L111.35,77.31z"/>
<path d="M108.38,77.64c-0.01-0.06,0.01-0.11,0.05-0.16c0.04-0.04,0.09-0.07,0.15-0.07 c0.69-0.03,2.78-0.11,2.78-0.11l0.4,8.96c-0.11,0.27-1.75,0.43-2.68,0.39c-0.11-0.01-0.19-0.09-0.19-0.2 C108.81,83.51,108.71,80.57,108.38,77.64z"/>
</g>
</g>
</g></g>
</g>
<g id="WaistDecals" mask="url(#WaistMask)">
</g>
<g id="Extras_Front">
<g id="Front"><g id="None_Front" class="option" style="display: inherit;">
</g>
</g>
</g>
<g id="Extras-FrontDecals" mask="url(#FrontMask)">
</g>
</g>
</svg>