<?xml version='1.0' encoding='UTF-8'?><svg version='1.1' xmlns='http://www.w3.org/2000/svg'><metadata><rdf:rdf xmlns:rdf="http://www.w3.org/1999/02/22-rdf-syntax-ns#" xmlns:rdfs="http://www.w3.org/2000/01/rdf-schema#" xmlns:dc="http://purl.org/dc/elements/1.1/"> <rdf:description> <dc:creator>MandoCreator</dc:creator> <dc:publisher>https://www.mandocreator.com</dc:publisher> <dc:description>Your Beskar'gam - created by MandoCreator</dc:description> <dc:format>image/svg+xml</dc:format> <dc:type>Image</dc:type> <dc:title>MandoCreator - Ner Berskar'gam</dc:title> <dc:date>2021-10-08T16:38:32.003Z</dc:date> </rdf:description> </rdf:rdf></metadata><svg version="1.1" id="Female" xmlns="http://www.w3.org/2000/svg" viewBox="0 -55 169 300" style="fill: white; fill-rule: evenodd; stroke: black; stroke-width: 0.2px; pointer-events: none; position: relative; height: 100%;">
<g id="Extras_Back">
<g id="Back">
<path id="Torn-Full-Cape_Back" class="option" d="M67.8,17.9C55.9,22.4,42.7,44,41,60.4c-1,10.4-6.1,20.9-5.6,31.2 c0.5,10.5-4.8,21.3-5.2,31.8c-0.3,9.4-3.1,13.7-4.7,23c-2.4,13.9-5.1,23.1-7.3,37.1c-1.7,11.1-6.9,20.3-9.4,23.7 c-0.1,0.1,2.5-1.2,5.7-1.3c0.9,0,5.6-6.8,5.6-6.8s5.8,4.8,7,7.5c1.6-1,2.8-15.4,4.5-16c0.9-0.3,2.7,18.1,2.7,18.1s2.8-5.5,3.9-5.5 c2.3,0,6.5,2,8.8,2.3c2.5,0.3,5.1-3.9,7.8-3.2c4.2,1,8.4,0.9,12.5,1.5c2.9,0.4,5.9,6.1,8.9,6.1c3.7,0,3.1-8.6,6.9-9.4 c3.2-0.7,7.6,6.9,7.6,6.9s1-25.4,4.2-26.4c4.1-1.4,19.7,19.1,24,18.7c1.3-0.1,2.9-12.9,4.2-12.9c2.7,0.1,5.1,13.2,7.8,13.7 c3.4,0.6,5-5.7,8.4-4.9c0.9,0.2,3.6,7.7,4.5,7.9c2.1,0.5,4.9,1.7,7.1,1.6c0.1,0-0.7-5-0.8-5.5c-0.5-2.4-1.2-4.7-2.2-7 c-1.1-2.7-2.5-5.3-4.1-7.7c-7.2-11.4-4.7-23.8-6-37.2c-1.3-13,0.1-26-2.1-39c-1.9-11.5-8.7-22.2-10.4-33.8 c-2-13.6-6.6-28.2-10.7-41.4C109.4,17.6,79.7,13.4,67.8,17.9z M71.1,190.4c-1,2.5-1.3,5-1.1,7.7c0.1,1.2,0.5,2.4,1.1,3.5 c0.1,0.1,0.1,0.4,0.2,0.3C75.8,197.9,71.1,190.4,71.1,190.4z M36.2,165.8c-0.4,7.9-1.1,15.8-1.1,23.6c0,1.5,0,2.9,0.2,4.4 c0,0.2,0.2,2.4,0.4,2.4c2.7-0.5,1.4-7.8,2-10.1C39.8,178.3,36.2,165.8,36.2,165.8z M129.5,193.1c-0.2,2.8,0.6,2.5,1.4,1.1 c0.7-1.4,1.3-4,0.6-5.6L129.5,193.1z M117.9,168.3c-0.7,4.7,0.4,8.7,0.7,13.4c0.1,1.5,0.1,3,0.1,4.5c0,0.5,0,1,0,1.5 c0,0.3-0.2,1,0,0.8c3.6-3.7,3.2-10.9,2-15.5L117.9,168.3z M75.3,182.2c0,1.2,0,2.5,0.1,3.7c0.3,2.4,1.7-1.4,1.7-2.4 c0-1.3-0.9-2.9-1.2-4.2L75.3,182.2z" style="fill: rgb(23, 23, 23); display: inherit;"/></g>
</g>
<g id="Suit">
<g id="Neck-Seal">
<g id="Standard-Neck-Seal" class="option" style="fill: rgb(20, 20, 20); display: inherit;">
<path d="M95.2,8.5c0-0.9-0.7-1.7-1.6-1.7c0,0-6.1,0.9-9.1,0.9c-3,0-9.1-0.9-9.1-0.9c-0.9,0-1.6,0.7-1.6,1.7 c0,0.9,0.7,1.6,1.6,1.6c0,0,6.1,0.9,9.1,0.9c3,0,9.1-0.9,9.1-0.9C94.4,10.1,95.2,9.4,95.2,8.5z"/>
<path d="M95.7,10.4c0-1-0.8-1.7-1.7-1.7c0,0-6.4,0.9-9.5,0.9s-9.5-0.9-9.5-0.9c-0.9,0-1.7,0.8-1.7,1.7 c0,1,0.8,1.7,1.7,1.7c0,0,6.4,0.9,9.5,0.9s9.5-0.9,9.5-0.9C95,12.1,95.7,11.3,95.7,10.4z"/>
<path d="M96.3,12.8c0-1-0.8-1.8-1.8-1.8c0,0-6.7,1-10.1,1c-3.4,0-10.1-1-10.1-1c-1,0-1.8,0.8-1.8,1.8 s0.8,1.8,1.8,1.8c0,0,6.7,1,10.1,1c3.4,0,10.1-1,10.1-1C95.5,14.6,96.3,13.8,96.3,12.8z"/>
<path d="M96.9,15c0-1.1-0.8-1.9-1.9-1.9c0,0-7,1-10.6,1c-3.5,0-10.6-1-10.6-1c-1,0-1.9,0.9-1.9,1.9 c0,1.1,0.8,1.9,1.9,1.9c0,0,7,1,10.6,1c3.5,0,10.6-1,10.6-1C96.1,16.9,96.9,16,96.9,15z"/>
<path d="M97.5,17.1c0-0.8-0.9-1.5-2-1.5c0,0-7.4,0.8-11.1,0.8c-3.7,0-11.1-0.8-11.1-0.8c-1.1,0-2,0.6-2,1.5 c0,0.8,0.9,1.5,2,1.5c0,0,7.4,0.8,11.1,0.8c3.7,0,11.1-0.8,11.1-0.8C96.6,18.6,97.5,17.9,97.5,17.1z"/>
<path d="M97.5,19.6c0-0.8-0.9-1.5-2-1.5c0,0-7.4,0.8-11.1,0.8c-3.7,0-11.1-0.8-11.1-0.8c-1.1,0-2,0.6-2,1.5 c0,0.8,0.9,1.4,2,1.4c0,0,7.4,1.5,11.1,1.5c3.7,0,11.1-1.5,11.1-1.5C96.6,21,97.5,20.4,97.5,19.6z"/>
</g>
</g>
<g id="Flight-Suit" style="fill: rgb(11, 11, 11);">
<path d="M38.9,64l5.1-18.4l11.8-8l1.8,16.1c0,0-5.1,9.7-6.9,14.2c-1.8,4.6-5,15.1-5.4,16.5l-2.8,24.4l-8.1-2.6 c0,0-0.3-16.9,0.4-24C35.5,76,38.9,64,38.9,64z"/>
<path d="M130.1,64l-5.1-18.5l-11.7-7.9l-1.9,16.2c0,0,5.1,9.6,6.8,14.1c1.8,4.6,5,15.1,5.4,16.5l2.8,24.4l8.1-2.6 c0,0,0.3-16.9-0.4-24C133.5,76,130.1,64,130.1,64z"/>
<path d="M84.5,116.1c-1,0.1-1.9,0.5-2.2,1.2c-2.9,6.2-8.9,34.4-10.7,39.6c-0.9,2.8-1.7,18.3-3.3,27.3 c-1.9,10.8-8.2,37.3-8.2,37.3l-10.9-1.1c0,0-1.4-26.6-1-36.3c0.3-7.4,3.3-21.8,3.3-21.8s0.7-5.3,0.7-7.9c0.1-9.6,0.9-31,2.8-43.3 c1.5-9.7,10.6-30.1,10.6-30.1s11.9,4.7,18.8,4.7c7,0,18.9-4.8,18.9-4.8s8.6,20.5,10.1,30.2c1.9,12.3,3.2,33.7,3.2,43.3 c0,2.7,0.7,7.9,0.7,7.9s3,14.5,3.3,21.8c0.4,9.7-1,36.3-1,36.3l-10.9,1.1c0,0-6.3-26.5-8.2-37.3c-1.6-9-2.3-24.5-3.3-27.3 c-1.7-5.2-7.7-33.4-10.7-39.6C86.5,116.6,85.6,116.2,84.5,116.1L84.5,116.1z"/>
</g>
<g id="Sleeves" class="toggle" style="fill: rgb(16, 16, 16);">
<path d="M42.6,45.6l0.8,0.3l12.4-8.3c0,0,0.4,8.8,1.4,14.1c0.1,0.7,0.4,1.7,0.6,2.7l-1.6,5.3c0,0-5.6-2.2-8.1-3.6 c-2.4-1.4-6.7-5-6.7-5L42.6,45.6z"/>
<path d="M111.3,54.4c0.3-1.1,0.5-2,0.6-2.7c1-5.3,1.4-14.1,1.4-14.1l12.4,8.3l0.8-0.3l1.2,5.5c0,0-4.3,3.6-6.7,5 c-2.5,1.4-8.1,3.6-8.1,3.6L111.3,54.4z"/>
</g>
</g>
<g id="Boots">
<g id="Tall_Boots" class="option" style="display: inherit;">
<g id="Bottom_Tall-Boot" style="fill: rgb(19, 19, 19);">
<path d="M62.5,229.5c0,0.1,0,0.3-0.1,0.4c-0.9,1.8-3.2,2.4-4.8,2.8c-1.1,0.3-2.2,0.7-3.3,1.2c-1.5,0.7-2.2,2-3.4,3.2 c-0.5,0.5-1.1,0.9-1.7,1.3c-1.5,1-2.9,1.1-4.5,1.1c-2.2,0.1-4.2-0.3-6.4-0.8c-1.9-0.5-3.4-0.9-5-1.4c-0.5-0.2-1.1-0.3-1.4-0.7 l-0.3,0.6l-0.2,1.7c0,0,1.8,1.1,3.7,1.6c1.9,0.5,5.8,1.2,5.8,1.2l0.3-0.7l0.9,0.2l0,0.7l2.1,0.1l0.4-0.7l0.7,0l-0.1,0.6 c0,0,1.3,0,2-0.5c0.1-0.2,0.4-0.6,0.4-0.6l0.5-0.3l-0.1,0.6l1.8-0.7l0.1-0.8l0.5-0.3l0,0.6l1.3-1.1L52,238l2.8-1.7l0.9,0.4 l2.3-0.6l0.1-0.6l0.6-0.3l0.4,0.4l1.5-0.7l0-0.5l0.5-0.2l0.1,0.4l1.4-1.1L62.5,229.5z M62.5,228.9L62.5,228.9L62.5,228.9 L62.5,228.9z"/>
<path d="M106.6,229.5c0,0.1,0,0.3,0.1,0.4c0.9,1.8,3.2,2.4,4.8,2.8c1.1,0.3,2.2,0.7,3.3,1.2c1.5,0.7,2.2,2,3.4,3.2 c0.5,0.5,1.1,0.9,1.7,1.3c1.5,1,2.9,1.1,4.5,1.1c2.2,0.1,4.2-0.3,6.4-0.8c1.9-0.5,3.4-0.9,5-1.4c0.5-0.2,1.1-0.3,1.4-0.7l0.3,0.6 l0.2,1.7c0,0-1.8,1.1-3.7,1.6c-1.9,0.5-5.8,1.2-5.8,1.2l-0.3-0.7l-0.9,0.2l0,0.7l-2.1,0.1l-0.4-0.7l-0.7,0l0.1,0.6 c0,0-1.3,0-2-0.5c-0.1-0.2-0.4-0.6-0.4-0.6l-0.5-0.3l0.1,0.6l-1.8-0.7l-0.1-0.8l-0.5-0.3l0,0.6l-1.3-1.1l-0.1-0.7l-2.8-1.7 l-0.9,0.4l-2.3-0.6l-0.1-0.6l-0.6-0.3l-0.4,0.4l-1.5-0.7l0-0.5l-0.5-0.2l-0.1,0.4l-1.4-1.1L106.6,229.5z M106.5,228.9 L106.5,228.9L106.5,228.9L106.5,228.9z"/>
</g>
<g id="Main_Tall-Boot" style="fill: rgb(39, 39, 39);">
<path d="M62.5,216c1.3-4.3,2.2-11.2,3-14.3c0.6-2.3,3.2-15.1,2.8-16.7c-0.4-1.6-19.6-4.8-20.1-3.4 c-0.8,2.2,0.3,24.3,0.2,27.5c-0.1,2.4,0.2,7.4,0.2,7.4c-0.2,1.3-0.4,2.7-0.9,3.9c-0.9,2.2-1.5,2.9-2.9,4.6c-1,1.1-3,3.1-4.2,3.9 c-0.5,0.4-2.3,1.7-2.3,1.7c-2.3,1-4.8,0.6-6,3.5c-0.3,0.6-0.5,1.4-0.5,2.1c0.1,0.9,0.9,1,1.6,1.2c1.7,0.5,3.1,1,5,1.4 c2.2,0.6,4.2,0.9,6.4,0.8c1.7-0.1,3.1-0.1,4.5-1.1c0.6-0.4,1.2-0.8,1.7-1.3c1.1-1.2,1.9-2.4,3.4-3.2c1.1-0.5,2.2-0.9,3.3-1.2 c1.6-0.4,3.9-1,4.8-2.8c0.3-1.3,0-2-0.1-3.2l-0.1-0.5c-0.1-0.8-0.2-1.5-0.2-2.3c-0.1-1.6,0.3-3.1,0.4-4.7 c0.1-0.9,0.1-1.8,0.1-2.7C62.5,216.5,62.5,216.2,62.5,216z"/>
<path d="M106.6,216c-1.3-4.3-2.2-11.2-3-14.3c-0.6-2.3-3.2-15.1-2.8-16.7c0.4-1.6,19.6-4.8,20.1-3.4 c0.8,2.2-0.3,24.3-0.2,27.5c0.1,2.4-0.2,7.4-0.2,7.4c0.2,1.3,0.4,2.7,0.9,3.9c0.9,2.2,1.5,2.9,2.9,4.6c1,1.1,3,3.1,4.2,3.9 c0.5,0.4,2.3,1.7,2.3,1.7c2.3,1,4.8,0.6,6,3.5c0.3,0.6,0.5,1.4,0.5,2.1c-0.1,0.9-0.9,1-1.6,1.2c-1.7,0.5-3.1,1-5,1.4 c-2.2,0.6-4.2,0.9-6.4,0.8c-1.7-0.1-3.1-0.1-4.5-1.1c-0.6-0.4-1.2-0.8-1.7-1.3c-1.1-1.2-1.9-2.4-3.4-3.2 c-1.1-0.5-2.2-0.9-3.3-1.2c-1.6-0.4-3.9-1-4.8-2.8c-0.3-1.3,0-2,0.1-3.2l0.1-0.5c0.1-0.8,0.2-1.5,0.2-2.3 c0.1-1.6-0.3-3.1-0.4-4.7c0-0.9-0.1-1.8-0.1-2.7C106.6,216.5,106.6,216.2,106.6,216z"/>
</g>
</g>
</g>
<g id="Gloves">
<g id="Left-Glove">
<g id="Basic_Left_Glove" class="option" style="fill: rgb(10, 10, 10); display: inherit;">
<path d="M131.4,123c-0.5,0-0.9,0-1.3,0.1c-0.3,0.1-0.6,0.2-0.9,0.3c-0.8,0.5-0.6,1.7,0.1,2.2c0.9,0.5,2.2,0,2.6-1 C132.1,124.2,131.6,123.4,131.4,123"/>
<path d="M129.9,124c-0.5,0-0.9,0-1.3,0.1c-0.3,0.1-0.6,0.2-0.9,0.3c-0.8,0.5-0.6,1.7,0.1,2.2c0.9,0.5,2.2,0,2.6-1 C130.6,125.2,130.1,124.4,129.9,124"/>
<path d="M128.8,125.4c-0.4,0-1,0.1-1.4,0.3c-0.3,0.1-0.6,0.2-0.8,0.5c-0.8,0.7-0.4,1.8,0.4,2.1 c0.9,0.4,2.2-0.3,2.5-1.4C129.5,126.5,128.8,125.4,128.8,125.4z"/>
<path d="M126.3,109.6c0,0-1.3,2-1.6,3.5c-0.2,1-0.1,3.5-0.4,5.2c-0.3,1.7-0.6,2.6-0.6,2.6s-1.2,2.7-0.9,3.3 c0.2,0.6,1.2,1.2,1.8,0.8c0.7-0.4,1.6-2.3,2.2-3.6c0.6-1.3,1-3.2,1-3.2s0.8,0.3,1.2,0.7c1.3,1.2,0.8,4.7,0.8,4.7 s-0.6,1.3-1.4,2.7c-1.1,1.9-2.9,3.6-1.7,5.1c1.1,1.4,3.5-2.3,3.5-2.3l2.4-3.5c0,0,2.8-5.1,2.9-6.1c0.1-0.8,0-3.3,0-3.3l-0.9-9.9 l-4.4,0.4l-3.6,1.3L126.3,109.6"/>
</g>
</g>
<g id="Right-Glove">
<g id="Basic_Right_Glove" class="option" style="fill: rgb(10, 10, 10); display: inherit;">
<path d="M37.6,123c0.5,0,0.9,0,1.3,0.1c0.3,0.1,0.6,0.2,0.9,0.3c0.8,0.5,0.6,1.7-0.1,2.2c-0.9,0.5-2.2,0-2.6-1 C36.9,124.2,37.4,123.4,37.6,123"/>
<path d="M39.2,124c0.5,0,0.9,0,1.3,0.1c0.3,0.1,0.6,0.2,0.9,0.3c0.8,0.5,0.6,1.7-0.1,2.2c-0.9,0.5-2.2,0-2.6-1 C38.4,125.2,38.9,124.4,39.2,124"/>
<path d="M40.3,125.4c0.5,0,1,0.1,1.4,0.3c0.3,0.1,0.6,0.2,0.8,0.5c0.8,0.7,0.4,1.8-0.4,2.1c-0.9,0.4-2.2-0.3-2.5-1.4 C39.5,126.5,40.3,125.4,40.3,125.4z"/>
<path d="M42.7,109.6c0,0,1.3,2,1.6,3.5c0.2,1,0.1,3.5,0.4,5.2c0.3,1.7,0.6,2.6,0.6,2.6s1.1,2.7,0.9,3.3 c-0.2,0.6-1.2,1.2-1.8,0.8c-0.7-0.4-1.6-2.3-2.2-3.6c-0.6-1.3-1-3.2-1-3.2s-0.8,0.3-1.2,0.7c-1.3,1.2-0.8,4.7-0.8,4.7 s0.6,1.3,1.4,2.7c1.1,1.9,2.9,3.6,1.7,5.1c-1.1,1.4-3.5-2.3-3.5-2.3l-2.4-3.5c0,0-2.8-5.1-2.9-6.1c-0.1-0.8,0-3.3,0-3.3l0.9-9.9 l4.4,0.4l3.6,1.3L42.7,109.6"/>
</g>
</g>
</g>
<g id="Biceps">
<g id="Left-Biceps">
<g id="Basic_Biceps_Left" class="option" style="display: inherit;">
<path id="Main_Basic_Biceps_Left" d="M131.5,57.7c-1.2-2.8-6.3-15-6.3-15s-8.4,3.5-10.5,4.3 c-0.6,0.2-0.9,0.9-0.6,1.5c1,2.4,3.4,8.3,4.9,11.9c0.3,0.8,1,1.5,1.8,1.8c0.8,0.3,1.8,0.3,2.6,0c2.5-1,5.8-2.4,7.5-3.1 C131.5,59,131.8,58.3,131.5,57.7z" style="fill: rgb(20, 20, 20);"/>
<path id="Strap_Basic_Biceps_Left" d="M116.4,54l-4.6,1.9l1.1,3.9l5-2.1L116.4,54" style="fill: rgb(68, 67, 67);"/>
<path id="Trauma-Plate_Basic_Biceps_Left" class="toggle" style="fill: rgb(30, 30, 30);" d="M131.5,57.2l-5.3-13l-10.3,4.2l4.7,11.4 c0.2,0.4,0.5,0.7,0.9,0.9c0.4,0.2,0.9,0.2,1.3,0L131.5,57.2"/>
</g>
</g>
<g id="Right-Biceps">
<g id="Basic_Biceps_Right" class="option" style="display: inherit;">
<path id="Main_Basic_Biceps_Right" d="M37.5,57.7c1.2-2.8,6.3-15,6.3-15s8.4,3.5,10.5,4.3c0.6,0.2,0.9,0.9,0.6,1.5 c-1,2.4-3.4,8.3-4.9,11.9c-0.3,0.8-1,1.5-1.8,1.8c-0.8,0.3-1.8,0.3-2.6,0c-2.5-1-5.8-2.4-7.5-3.1C37.6,59,37.3,58.3,37.5,57.7z" style="fill: rgb(20, 20, 20);"/>
<path id="Strap_Basic_Biceps_Right" d="M52.7,54l4.6,1.9l-1.1,3.9l-5-2.1L52.7,54" style="fill: rgb(68, 67, 67);"/>
<path id="Trauma-Plate_Basic_Biceps_Right" class="toggle" style="fill: rgb(30, 30, 30);" d="M37.6,57.2l5.3-13l10.3,4.2l-4.7,11.4 c-0.2,0.4-0.5,0.7-0.9,0.9c-0.4,0.2-0.9,0.2-1.3,0L37.6,57.2"/>
</g>
</g>
</g>
<path id="Vest" d="M90.9,86.3c-4.2,0.9-8.6,0.9-12.8,0c-4.2-0.9-12.5-5.2-12.5-5.2s-7.2-22.8-8.5-29.4 c-1-5.3-1.4-14.1-1.4-14.1L43.4,46l-2.6-1.1c0,0,7.4-16.4,12.3-21.1c4.4-4.3,17-7.3,17-7.3s5.5,6.1,14.6,6.1 c8.6,0,14.6-6.1,14.6-6.1s12.5,3.1,17,7.3c4.9,4.7,12.3,21.1,12.3,21.1l-2.6,1.1l-12.4-8.3c0,0-0.4,8.8-1.4,14.1 c-1.3,6.6-8.5,29.4-8.5,29.4S95.1,85.4,90.9,86.3z" style="fill: rgb(17, 17, 17);"/>
<g class="swappable" id="Chest">
<g id="Chest_Gunslinger" style="visibility: visible;">
<g id="Abdomen_Gunslinger">
<g id="Left_Abdomen_Gunslinger" style="fill: rgb(245, 106, 10);">
<path d="M96.5,71.6l6.2-11.1l-3.2-4.5l-0.3-0.5l-3.5,0.4L94.3,73L96.5,71.6z"/>
<path d="M96.5,71.6l6.2-11.1l1.6,2.3l2.1-1.7l-0.6,7.6L96.5,71.6z"/>
</g>
<g id="Right_Abdomen_Gunslinger" style="fill: rgb(245, 106, 10);">
<path d="M72.5,71.6l-6.2-11.1l-1.6,2.3l-2.1-1.7l0.6,7.6L72.5,71.6z"/>
<path d="M72.5,71.6l-6.2-11.1l3.2-4.5l0.3-0.5l3.5,0.4L74.8,73L72.5,71.6z"/>
</g>
<path id="Center_Abdomen_Gunslinger" d="M84.5,52.2l11.2,3.7L94.3,73l-1.7,1l-8-0.4l-8,0.4l-1.7-1l-1.4-17.2 L84.5,52.2z" style="fill: rgb(30, 30, 30);"/>
</g>
<g id="Chest-Plates_Gunslinger">
<g id="Left-Chest_Gunslinger" style="fill: rgb(30, 30, 30);">
<path d="M85.2,32.9v-2.6l2.2-2.2l20.8-2.4l1.9,11.6l-3.1,23.3l-2.6,2.1l-4.8-6.8L98.1,53l-12.9-3.9l3.4-3.4V36 L85.2,32.9z"/>
<path d="M98.1,53l9.5-5.6l2.4-10l-2.1,10.8l-8.4,7.8L98.1,53z"/>
<path d="M99.2,55.4l-3.5,0.4l-11.2-3.7v-3.2L98.1,53L99.2,55.4z"/>
</g>
<g id="Right-Chest_Gunslinger" style="fill: rgb(30, 30, 30);">
<path d="M83.9,32.9v-2.6l-2.2-2.2l-20.8-2.4L59,37.4l3.1,23.3l2.6,2.1l4.8-6.8l1.4-2.9l12.9-3.9l-3.4-3.4V36 L83.9,32.9z"/>
<path d="M70.9,53l-9.5-5.6l-2.4-10l2.1,10.8l8.4,7.8L70.9,53z"/>
<path d="M69.8,55.4l3.5,0.4l11.2-3.7v-3.2L70.9,53L69.8,55.4z"/>
</g>
</g>
<g id="Iron-Heart_Gunslinger">
<path id="Under-Heart_Gunslinger" d="M83.8,49.1l-3.4-3.4V36l3.4-3.1v-2.6h1.3v2.6l3.4,3.1v9.7l-3.4,3.4l-0.7-0.2 L83.8,49.1z" style="fill: rgb(28, 28, 28);"/>
<path id="Heart_Gunslinger" d="M82,45v-8.1l2.5-2.5l2.5,2.5V45l-2.5,2.5L82,45z" style="fill: rgb(33, 33, 33);"/>
<rect id="Center_Heart_Gunslinger" class="option" x="83.8" y="37.4" width="1.5" height="7.1" style="fill: rgb(245, 106, 10); display: inherit;"/>
</g>
</g>
</g>
<g id="Chest-Attachments">
<g id="No-Device_Accessories_Chest" class="option" style="display: inherit;">
</g>
</g>
<g id="Collar">
<g id="Cloth-Wrap-Right_Collar" class="option" style="display: inherit;">
<g id="Main_Cloth-Wrap-Right_Collar" style="fill: rgb(23, 23, 23);">
<path d="M94.6,26c4.5-1.4,5.3-3.7,5.6-6c0.1-0.9-1.2-3.4,0.2-4c1.6-0.7,5.3,0.4,6.8,0.7c1.1,0.2,2.1,1.4,3.3,1.4 c2.7,0,4.8,2.9,5,4.3c0.3,1.9-3,0.5-4.5,2c-3.9,3.5-5.2,8.3-13.3,9.6c-3.7,0.6-7.4-0.2-10.9-1c-8.9-2-13.8-3.7-19.5-8.1 c-2.5-1.9-6.3-3.5-6.2-6.1c0-0.1,1.8-1.2,2-1.2c1.6-0.4,3-1.1,4.7-1.1c1.1,0,0.9,0.9,1,1.3c0.3,1.6,1.7,2.8,3.6,4 C77.2,24.8,88.1,25.8,94.6,26z"/>
<path d="M94.6,26c1.2,0,2.2,0.2,3.2,0.3c4.1,0.3,5.6-0.8,6.4-2.6"/>
<path d="M107.5,16.8c1.2,2,1,4.3,0.1,5.8"/>
<path d="M72.8,22.4c3.1,4.2,7.7,5.6,12.7,6.1"/>
<path d="M64.3,17.2c0.2,1.1,0.8,1.5,1.6,2.2c0.5,0.4,1,0.7,1.4,1.2c0.1,0.2,0.2,0.4,0.3,0.6"/>
</g>
<path id="Buckle_Cloth-Wrap-Right_Collar" d="M73.8,21.6l-2.6-1.9l-4.6,6.4l2.6,1.9L73.8,21.6z" style="fill: rgb(144, 143, 143);"/>
</g>
</g>
<svg version="1.1" id="Helmets" xmlns="http://www.w3.org/2000/svg" y="-54px" height="85px" viewBox="0 0 80 80" class="swappable">
<g id="Helmet_Stalker-Medium" style="visibility: visible;">
<g id="Left-Earcap_Stalker-Medium" class="toggle">
<g id="Ear-Cap_Left_Stalker-Medium" style="fill: rgb(245, 106, 10);">
<path d="M57.6,31l2.4,1.7L60.9,43l-2.1,2.1L57.6,31z"/>
<path d="M58.6,37.7c0-0.1,0.1-0.2,0.2-0.2l1-0.1c0.1,0,0.2,0.1,0.2,0.2c0,0.1-0.1,0.2-0.2,0.2l-1,0.1 C58.7,37.9,58.6,37.8,58.6,37.7z"/>
</g>
</g>
<g id="Right-Earcap_Stalker-Medium" class="toggle">
<g id="Ear-Cap_Right_Stalker-Medium" style="fill: rgb(245, 106, 10);">
<path d="M22.4,31L20,32.6L19.1,43l2.1,2.1L22.4,31z"/>
<path d="M21.4,37.7c0-0.1-0.1-0.2-0.2-0.2l-1-0.1c-0.1,0-0.2,0.1-0.2,0.2c0,0.1,0.1,0.2,0.2,0.2l1,0.1 C21.3,37.9,21.4,37.8,21.4,37.7z"/>
</g>
</g>
<g id="Helmet_Pieces_Stalker-Medium">
<g id="Dome-2_Stalker-Medium" style="fill: rgb(30, 30, 30);">
<path d="M33,20.3c0-0.1-6.5,1.5-8.9,7.9c-0.4,1.1-0.8,3.2-1,4.2c0.1-0.2,0.2-0.4,0.3-0.5c0.5-0.6,1.2-1.5,1.9-2.1 c1-1,2.8-2.3,4-3.6c1.2-1.3,2.5-3.2,3.1-4.2C32.8,21.5,32.9,20.8,33,20.3z"/>
<path d="M47.1,20.3c0-0.1,6.5,1.5,8.9,7.9c0.4,1.1,0.8,3.2,1,4.2c-0.1-0.2-0.2-0.4-0.3-0.5c-0.5-0.6-1.2-1.5-1.9-2.1 c-1-1-2.8-2.3-4-3.6c-1.2-1.3-2.5-3.2-3.1-4.2C47.4,21.5,47.2,20.8,47.1,20.3z"/>
<g>
<path d="M56.9,29.7l0.8,0.9L59,45.5l-0.7,1L56.9,29.7z"/>
<path d="M56.1,28.5l0.8,0.9l1.6,17.3l-0.6,1L56.1,28.5z"/>
</g>
<g>
<path d="M23.2,29.7l-0.8,0.9L21,45.5l0.7,1L23.2,29.7z"/>
<path d="M24,28.5l-0.8,0.9l-1.6,17.3l0.6,1L24,28.5z"/>
</g>
</g>
<g id="Dome-1_Stalker-Medium" style="fill: rgb(245, 106, 10);">
<g>
<path d="M33.1,20.2c-0.1,0.5-0.3,1.2-0.6,1.7c-0.1,0.1-0.1,0.2-0.2,0.3c-0.4,0.1-0.8,0.2-1.2,0.4 C30.2,23,29,23.9,29,23.9V22c0,0,1-0.5,1.9-1C31.6,20.7,32.5,20.4,33.1,20.2z"/>
<path d="M32.4,22.2c-0.7,1.1-1.9,2.8-3,4c-0.1,0.1-0.2,0.3-0.4,0.4v-2.7c0,0,0.9-0.8,1.9-1.2 C31.4,22.5,31.9,22.3,32.4,22.2z"/>
</g>
<g>
<path d="M47.1,20.2c0.1,0.5,0.3,1.2,0.6,1.7c0.1,0.1,0.1,0.2,0.2,0.3c0.4,0.1,0.8,0.2,1.2,0.4 c0.8,0.4,2.1,1.2,2.1,1.2V22c0,0-1-0.5-1.9-1C48.5,20.7,47.6,20.4,47.1,20.2z"/>
<path d="M47.8,22.2c0.7,1.1,1.9,2.8,3,4c0.1,0.1,0.2,0.3,0.4,0.4v-2.7c0,0-0.9-0.8-1.9-1.2 C48.7,22.5,48.2,22.3,47.8,22.2z"/>
</g>
</g>
<g id="Face-2_Stalker-Medium" style="fill: rgb(30, 30, 30);">
<path d="M23.7,51.1l-0.1-3.4L21.2,51c0,0-0.1,2.9,0.3,4c0.4,1.2,1.3,2.1,2.2,3c1,1,12.1,8.5,12.1,8.5l-1.9-8.3L32,59 l-1.6-0.8l-2.1-1.6l-2.2-2.1l-1.7-1.9l-0.8-1.2v-0.3H23.7z"/>
<path d="M56.5,51.1l0.1-3.4l2.3,3.3c0,0,0.1,2.9-0.3,4c-0.4,1.2-1.3,2.1-2.2,3c-1,1-12.1,8.5-12.1,8.5l1.9-8.3 l1.8,0.7l1.6-0.8l2.1-1.6l2.2-2.1l1.7-1.9l0.8-1.2L56.5,51.1L56.5,51.1z"/>
</g>
<g id="Face-1_Stalker-Medium" style="fill: rgb(15, 15, 15);">
<g>
<path d="M23.7,51.1v0.3l0.8,1.2l1.7,1.9l2.2,2.1l2.1,1.6L32,59l1.8-0.7l-0.3-1.1L30,48.5L25.5,45l-1.9,2.7 L23.7,51.1z"/>
<g>
<path d="M29.9,55.5c-0.1-0.1-0.1-0.2,0-0.3l1.3-1c0.1-0.1,0.2-0.1,0.3,0c0.1,0.1,0.1,0.2,0,0.3l-1.3,1 C30.1,55.6,29.9,55.6,29.9,55.5"/>
<path d="M30.7,56.8c-0.1-0.1-0.1-0.2,0-0.3l1.1-0.9c0.1-0.1,0.2-0.1,0.3,0c0.1,0.1,0.1,0.2,0,0.3l-1.1,1 C30.9,56.9,30.8,56.9,30.7,56.8"/>
</g>
</g>
<g>
<path d="M56.5,51.1v0.3l-0.8,1.2L54,54.5l-2.2,2.1l-2.1,1.6L48.1,59l-1.8-0.7l0.3-1.1l3.6-8.7l4.6-3.5l1.9,2.7 L56.5,51.1z"/>
<g>
<path d="M50.3,55.5c0.1-0.1,0.1-0.2,0-0.3l-1.3-1c-0.1-0.1-0.2-0.1-0.3,0c-0.1,0.1-0.1,0.2,0,0.3l1.3,1 C50,55.6,50.2,55.6,50.3,55.5"/>
<path d="M49.4,56.8c0.1-0.1,0.1-0.2,0-0.3l-1.1-0.9c-0.1-0.1-0.2-0.1-0.3,0c-0.1,0.1-0.1,0.2,0,0.3l1.1,0.9 C49.2,56.9,49.4,56.9,49.4,56.8"/>
</g>
</g>
</g>
<g id="Cheeks_Stalker-Medium" style="fill: rgb(245, 106, 10);">
<g>
<path d="M46.5,57.2L45.7,57L50,44.7l0.2,0.6v3.2L46.5,57.2z"/>
<path d="M50.1,48.5l-0.2-3.8l1.7-0.9l2.9-2l2.6-2.3l0.3-0.3L54.7,45L50.1,48.5z"/>
<path d="M58.9,51l-4.2-6l2.8-5.8l0.5-0.6L58.9,51z"/>
<path d="M44.3,66.5h-0.2l1.5-9.6l0.9,0.2L44.3,66.5z"/>
</g>
<g>
<path d="M21.2,51l4.2-6l-2.8-5.8l-0.5-0.6L21.2,51z"/>
<path d="M33.6,57.2l0.9-0.2l-4.3-12.3L30,48.5L33.6,57.2z"/>
<path d="M30,48.5l0.2-3.8l-1.7-0.9l-2.9-2L23,39.5l-0.3-0.3l2.8,5.8L30,48.5z"/>
<path d="M35.8,66.5H36L34.5,57l-0.9,0.2L35.8,66.5z"/>
</g>
</g>
<path id="Visor_Stalker-Medium" d="M41.8,66.8h-3.5l-0.4-25.4c0,0-3.7-0.8-3.8-0.8c-0.1,0-5.2-1.2-5.2-1.2l-4.5-1.5 L23,37.1l0.1-1.4l4.3,0.7l5.4,0.7l5,0.3l2,0.1h0.5l2-0.1l5-0.3l5.4-0.7l4.3-0.7l0.1,1.4l-1.5,0.8l-4.5,1.5c0,0-5.1,1.2-5.2,1.2 c-0.1,0-3.8,0.8-3.8,0.8L41.8,66.8z" style="fill: rgb(0, 0, 0);"/>
<g id="Eyes_Stalker-Medium">
<g id="Main_Eyes_Stalker-Medium" style="fill: rgb(30, 30, 30);">
<path d="M57.5,33.4c0,0-0.5-1-0.9-1.5c-0.5-0.6-1.2-1.5-1.9-2.1c-1-1-2.8-2.3-4-3.6c-1.2-1.3-2.5-3.2-3.1-4.2 c-0.4-0.6-0.6-1.6-0.6-2c0-0.1,0.2-0.3,0.2-0.3s-2.1-0.9-2.8-1c-0.9-0.2-3.2-0.5-3.2-0.5h-2c0,0-2.5,0.3-3.4,0.5 c-0.7,0.2-2.8,1-2.8,1s0.2,0.2,0.2,0.3c-0.1,0.4-0.3,1.4-0.6,2c-0.6,1-1.9,2.9-3.1,4.2c-1.2,1.3-3,2.6-4,3.6 c-0.7,0.7-1.4,1.5-1.9,2.1c-0.4,0.5-0.9,1.5-0.9,1.5L22,38.2l0.2,0.4l0.8,0.9l2.6,2.3l2.9,2l1.7,0.9L34.5,57l1.5,9.6l0.6,0.2h7 l0.6-0.2l1.5-9.6L50,44.7l1.7-0.9l2.9-2l2.6-2.3l0.8-0.9l0.2-0.4L57.5,33.4 M41.8,66.8h-3.5l-0.4-25.4c0,0-3.7-0.8-3.8-0.8 c-0.1,0-5.2-1.2-5.2-1.2l-4.5-1.5L23,37.1l0.1-1.4l4.3,0.7l5.4,0.7l5,0.3l2,0.1h0.5l2-0.1l5-0.3l5.4-0.7l4.3-0.7l0.1,1.4 l-1.5,0.8l-4.5,1.5c0,0-5.1,1.2-5.2,1.2c-0.1,0-3.8,0.8-3.8,0.8L41.8,66.8"/>
<path d="M32.5,20.4l0.3-0.6l0.1-0.1l0.2,0.3L33,20.3L32.5,20.4"/>
<path d="M47.6,20.4l-0.3-0.6l-0.1-0.1c0,0-0.2,0.2-0.2,0.3s0.1,0.3,0.1,0.3L47.6,20.4"/>
</g>
<g id="Trim_Eyes_Stalker-Medium" style="fill: rgb(23, 23, 23);">
<path d="M35,37.3l-0.4-0.9L32,35.8l1.1-15.6l0.1-0.3L33,19.6l2.7-1l1.1-0.2v16.3h6.6V18.5l1.2,0.2l2.6,1L47,20 l1.1,15.9l-2.6,0.5l-0.4,0.9l-5,0.3L35,37.3z"/>
<path d="M43.4,34.8h-6.6l2.5,0.8v-0.4h1.6v0.4L43.4,34.8z"/>
<g>
<path d="M44.9,40.8l-2.7,0.6l-0.4,25.4h1.7l0.6-0.2l1.5-9.6l1.1-3.2l-2.3-2.4L44.9,40.8z"/>
<path d="M35.2,40.8l2.7,0.6l0.4,25.4h-1.7L36,66.6L34.5,57l-1.1-3.2l2.3-2.4L35.2,40.8z"/>
</g>
</g>
<path id="Center_Eyes_Stalker-Medium" d="M43.4,18.5c0,0-1.6-0.3-3.3-0.3c-1.7,0-3.3,0.3-3.3,0.3v16.3h6.6V18.5z" style="fill: rgb(15, 15, 15);"/>
</g>
</g>
</g>
</svg>
<g id="Shoulders">
<g id="Left-Shoulder">
<g id="Legacy-x3_Shoulder_Left" class="option" style="display: inherit;">
<path id="Plate-3_Shoulder_Left_Legacy-x3" d="M115.7,24.7l-7.4,7.6l4.3,9.4l9.8-0.5l5.2,4.7l4.6-0.3L115.7,24.7z" style="fill: rgb(20, 19, 19);"/>
<path id="Trauma-Plate-3_Shoulder_Legacy-x3_Left" class="toggle" style="fill: rgb(30, 30, 30);" d="M128.2,44.2l3-0.2L117,25.9l-6.6,6.8l3.4,7.3 l9-0.6L128.2,44.2z"/>
<path id="Plate-2_Shoulder_Left_Legacy-x3" d="M111.7,20l-5.9,8.8l6,8.4l9.5-2.3l6,3.7l4.5-1.2L111.7,20z" style="fill: rgb(245, 106, 10);"/>
<path id="Trauma-Plate-2_Shoulder_Legacy-x3_Left" class="toggle" style="fill: rgb(30, 30, 30);" d="M127.6,36.8l2.9-0.8l-17.3-15.1l-5.2,7.9l4.6,6.5 l8.7-2.2L127.6,36.8z"/>
<path id="Plate-1_Shoulder_Left_Legacy-x3" d="M104.5,15.5l-2.6,10.3l8.4,6l8.2-5.3l6.8,1.5l3.8-2.6L104.5,15.5z" style="fill: rgb(25, 25, 25);"/>
<path id="Trauma-Plate-1_Shoulder_Legacy-x3_Left" class="toggle" style="fill: rgb(30, 30, 30);" d="M125,26.1l2.5-1.7l-21.3-8.6l-2.4,9.2l6.5,4.6 l7.5-5L125,26.1z"/>
</g>
</g>
<g id="Right-Shoulder">
<g id="Legacy-x3_Shoulder_Right" class="option" style="display: inherit;">
<path id="Plate-3_Shoulder_Right_Legacy-x3" d="M53.4,24.7l7.4,7.6l-4.3,9.4l-9.8-0.5l-5.2,4.7l-4.6-0.3L53.4,24.7 z" style="fill: rgb(20, 19, 19);"/>
<path id="Trauma-Plate-3_Shoulder_Legacy-x3_Right" class="toggle" style="fill: rgb(30, 30, 30);" d="M40.9,44.2l-3-0.2l14.2-18.1l6.6,6.8l-3.4,7.3 l-9-0.6L40.9,44.2z"/>
<path id="Plate-2_Shoulder_Right_Legacy-x3" d="M57.4,20l5.9,8.8l-6,8.4L47.7,35l-6,3.7l-4.5-1.2L57.4,20z" style="fill: rgb(245, 106, 10);"/>
<path id="Trauma-Plate-2_Shoulder_Legacy-x3_Right" class="toggle" style="fill: rgb(30, 30, 30);" d="M41.5,36.8l-2.9-0.8l17.3-15.1l5.2,7.9l-4.6,6.5 l-8.7-2.2L41.5,36.8z"/>
<path id="Plate-1_Shoulder_Right_Legacy-x3" d="M64.6,15.5l2.6,10.3l-8.5,6l-8.2-5.3L43.7,28l-3.8-2.6L64.6,15.5z" style="fill: rgb(25, 25, 25);"/>
<path id="Trauma-Plate-1_Shoulder_Legacy-x3_Right" class="toggle" style="fill: rgb(30, 30, 30);" d="M44.1,26.1l-2.5-1.7l21.3-8.6l2.4,9.2l-6.5,4.6 l-7.5-5L44.1,26.1z"/>
</g>
</g>
</g>
<g id="Gauntlets">
<g id="Left-Gauntlets">
<g id="Heavy_Gauntlet_Left" class="option" style="display: inherit;">
<g id="Top-2_Heavy_Gauntlet_Left" style="fill: rgb(45, 44, 44);">
<path d="M136.7,80.1l1.7,0.3l0.8,8.3l-1.6,1.1L136.7,80.1z"/>
<path d="M137.5,89.1l1,10.9l-1.1,1.2l0.6,6.4l-0.5,0.3l-1.7-17.5L137.5,89.1z"/>
<path d="M137.8,86c0.2,0,0.4,0.2,0.3,0.4s-0.2,0.4-0.4,0.3c-0.2,0-0.4-0.2-0.3-0.4C137.4,86.2,137.6,86,137.8,86z"/>
</g>
<g id="Top-1_Heavy_Gauntlet_Left" style="fill: rgb(30, 30, 30);">
<path d="M133,108.7l4.5-0.8l-1.7-17.5l1.7-1.3l-0.9-9.5l-6.6-1.2L133,108.7z"/>
<path d="M134.9,79.2l0.9,11.1"/>
</g>
<g id="Accent-Top_Heavy_Gauntlet_Left" style="fill: rgb(245, 106, 10);">
<path d="M136.5,105.1l-2.8,0.3l0.2,2.2l2.8-0.4L136.5,105.1z"/>
<path d="M135.5,95.8l-2.8,0.3l0.9,8.6l2.8-0.3L135.5,95.8z"/>
<path d="M134.3,79.8l-3.1-0.5l0.9,9.5l3-0.4L134.3,79.8z"/>
</g>
<path id="Bottom_Heavy_Gauntlet_Left" d="M130.1,78.8c-3.4-0.2-7.1,1-9.5,3.7c-0.8,0.9-1.1,2.1-0.9,3.2 c1.2,5.6,5.2,23.7,5.2,23.7l8.2-0.7L130.1,78.8z" style="fill: rgb(30, 30, 30);"/>
<g id="Accent-Bottom_Heavy_Gauntlet_Left" style="fill: rgb(245, 106, 10);">
<path d="M133,108.7l-8.2,0.7l-0.3-1.5l8.3-0.9L133,108.7z"/>
<path d="M130.3,80.8c-4.4,0.1-8.2,1.4-10.3,6l-0.2-1.1c-0.2-0.9,0-1.8,0.4-2.6l0.5-0.6c2.4-2.7,6.1-3.8,9.5-3.7 L130.3,80.8z"/>
<path d="M129.2,79.4l-3.6,0.4l1.6,14.3l3.6-0.4L129.2,79.4z"/>
<path d="M128.8,79.7l-2.7,0.3l1.5,13.2l2.7-0.3L128.8,79.7z"/>
<path d="M126.1,80l-0.5-0.2"/>
<path d="M129.2,79.4l-0.4,0.3"/>
<path d="M130.9,93.7l-0.6-0.8"/>
<path d="M127.3,94.1l0.4-0.9"/>
</g>
<g id="Missle_Attachment_Heavy_Gauntlet_Left" class="option" style="display: inherit;">
<g id="Head_Missle_Attachment_Heavy_Gauntlet_Left" style="fill: rgb(245, 106, 10);">
<path d="M140.5,98.7l-2.3-4.3l3.8-0.5L140.5,98.7z"/>
<path d="M139.5,94.6c0.1,0,0.2,0.2,0.2,0.4c0,0.2,0,0.4-0.1,0.4c-0.1,0-0.2-0.2-0.2-0.4 C139.4,94.8,139.4,94.6,139.5,94.6z"/>
<path d="M139.8,95.8c0.1,0,0.1,0.1,0.2,0.3c0,0.2,0,0.3-0.1,0.3c-0.1,0-0.1-0.1-0.2-0.3 C139.6,96,139.7,95.8,139.8,95.8z"/>
<path d="M139.9,96.9c0.1,0,0.1,0.1,0.1,0.3c0,0.2,0,0.3-0.1,0.3c-0.1,0-0.1-0.1-0.1-0.3 C139.8,97,139.8,96.9,139.9,96.9z"/>
<path d="M138.9,94.7c0.1,0,0.2,0.2,0.2,0.4s0,0.4-0.1,0.4c-0.1,0-0.2-0.2-0.2-0.4 C138.8,94.9,138.8,94.7,138.9,94.7z"/>
<path d="M141.4,94.4c0.1,0,0.2,0.2,0.2,0.4c0,0.2,0,0.4-0.1,0.4c-0.1,0-0.2-0.2-0.2-0.4 C141.2,94.6,141.3,94.4,141.4,94.4z"/>
<path d="M140.8,94.5c0.1,0,0.2,0.2,0.2,0.4c0,0.2,0,0.4-0.1,0.4c-0.1,0-0.2-0.2-0.2-0.4 C140.6,94.7,140.7,94.5,140.8,94.5z"/>
<path d="M140.7,95.7c0.1,0,0.1,0.1,0.2,0.3c0,0.2,0,0.3-0.1,0.3c-0.1,0-0.1-0.1-0.2-0.3 C140.6,95.8,140.7,95.7,140.7,95.7z"/>
<path d="M140.8,96.8c0.1,0,0.1,0.1,0.1,0.3c0,0.2,0,0.3-0.1,0.3c-0.1,0-0.1-0.1-0.1-0.3 C140.7,96.9,140.7,96.8,140.8,96.8z"/>
<path d="M140.1,94.6c0.1,0,0.2,0.2,0.2,0.4c0,0.2,0,0.4-0.1,0.4c-0.1,0-0.2-0.2-0.2-0.4S140.1,94.6,140.1,94.6z"/>
<path d="M140.2,95.8c0.1,0,0.1,0.1,0.2,0.3c0,0.2,0,0.3-0.1,0.3c-0.1,0-0.1-0.1-0.1-0.3 C140.1,95.9,140.2,95.8,140.2,95.8z"/>
<path d="M140.3,96.8c0.1,0,0.1,0.1,0.1,0.3c0,0.2,0,0.3-0.1,0.3c-0.1,0-0.1-0.1-0.1-0.3 C140.2,97,140.3,96.8,140.3,96.8z"/>
<path d="M141.3,96.3c-0.1,0-0.1-0.1-0.1-0.3c0-0.2,0-0.3,0.1-0.3c0.1,0,0.1,0.1,0.1,0.3L141.3,96.3z M139.2,96.2 c0-0.2,0-0.3,0.1-0.3c0.1,0,0.1,0.1,0.1,0.3c0,0.2,0,0.3-0.1,0.3L139.2,96.2z"/>
</g>
<g id="Main_Missle_Attachment_Heavy_Gauntlet_Left" style="fill: rgb(67, 65, 65);">
<path d="M141.5,93.4l-2.9,0.3l0.1,0.6l2.9-0.3L141.5,93.4z"/>
<path d="M140.3,80l-2.9,0.3l0.1,0.6l2.9-0.3L140.3,80z"/>
<path d="M139.5,77.8l-1.7,0.2l0.1,0.6l1.7-0.2L139.5,77.8z"/>
<path d="M140.2,78.3l-3.2,0.4l0.2,1.7l3.2-0.4L140.2,78.3z"/>
<path d="M140.6,80.6l-3.4,0.4l1.2,12.7l3.4-0.4L140.6,80.6z"/>
<path d="M137.9,87.7l-0.6,0.1l0.3,3l0.6-0.1L137.9,87.7z"/>
</g>
<g id="Accent_Missle_Attachment_Heavy_Gauntlet_Left" style="fill: rgb(24, 24, 24);">
<path d="M140.6,99.5l-0.5-1.1l0.7-0.1L140.6,99.5z"/>
<path d="M140.7,98.1l-0.6,0.1l0,0.3l0.7-0.1L140.7,98.1z"/>
<path d="M139.6,76.9l-2.1,0.2l0.1,0.9l2.1-0.2L139.6,76.9z"/>
<path d="M139.2,76.4l-1.4,0.2l-0.3,0.5l2.1-0.2L139.2,76.4z"/>
<path d="M139.6,80.7l-0.6,0.1l1.2,12.7l0.6-0.1L139.6,80.7z"/>
<path d="M138.8,80.8l-0.6,0.1l1.2,12.7l0.6-0.1L138.8,80.8z"/>
<path d="M140.8,80.9l-0.3-0.3l1.2,12.7l0.2-0.4L140.8,80.9z"/>
<path d="M140.3,80.7l-0.6,0.1l1.2,12.7l0.6-0.1L140.3,80.7z"/>
<path d="M138,80.9l-0.4,0l1.2,12.7l0.4,0L138,80.9z"/>
</g>
<path id="Base_Missle_Attachment_Heavy_Gauntlet_Left" d="M137.6,80l-1-0.3l1.3,14.5l0.9-0.5L137.6,80z M137.9,87.7l-0.6,0.1l0.3,3l0.6-0.1L137.9,87.7z" style="fill: rgb(34, 34, 34);"/>
</g>
</g>
</g>
<g id="Right-Gauntlets">
<g id="Heavy_Gauntlet_Right" class="option" style="display: inherit;">
<g id="Top-2_Heavy_Gauntlet_Right" style="fill: rgb(45, 44, 44);">
<path d="M32.4,80.1l-1.7,0.3l-0.8,8.3l1.6,1.1L32.4,80.1z"/>
<path d="M31.6,89.1l-1,10.9l1.1,1.2l-0.6,6.4l0.5,0.3l1.7-17.5L31.6,89.1z"/>
<path d="M31.3,86c-0.2,0-0.4,0.2-0.3,0.4c0,0.2,0.2,0.4,0.4,0.3c0.2,0,0.4-0.2,0.3-0.4C31.7,86.2,31.5,86,31.3,86z"/>
</g>
<g id="Top-1_Heavy_Gauntlet_Right" style="fill: rgb(30, 30, 30);">
<path d="M36,108.7l-4.5-0.8l1.7-17.5l-1.7-1.3l0.9-9.5l6.6-1.2L36,108.7z"/>
<path d="M34.2,79.2l-0.9,11.1"/>
</g>
<g id="Accent-Top_Heavy_Gauntlet_Right" style="fill: rgb(245, 106, 10);">
<path d="M32.6,105.1l2.8,0.3l-0.2,2.2l-2.8-0.4L32.6,105.1z"/>
<path d="M33.6,95.8l2.8,0.3l-0.9,8.6l-2.8-0.3L33.6,95.8z"/>
<path d="M34.8,79.8l3.1-0.5l-0.9,9.5l-3-0.4L34.8,79.8z"/>
</g>
<path id="Bottom_Heavy_Gauntlet_Right" d="M39,78.8c3.4-0.2,7.1,1,9.5,3.7c0.8,0.9,1.1,2.1,0.9,3.2 c-1.2,5.6-5.2,23.7-5.2,23.7l-8.2-0.7L39,78.8z" style="fill: rgb(30, 30, 30);"/>
<g id="Accent-Bottom_Heavy_Gauntlet_Right" style="fill: rgb(245, 106, 10);">
<path d="M36,108.7l8.2,0.7l0.3-1.5l-8.3-0.9L36,108.7z"/>
<path d="M38.8,80.8c4.4,0.1,8.2,1.4,10.3,6l0.2-1.1c0.2-0.9,0-1.8-0.4-2.6l-0.5-0.6c-2.4-2.7-6.1-3.8-9.5-3.7 L38.8,80.8z"/>
<path d="M39.8,79.4l3.6,0.4l-1.6,14.3l-3.6-0.4L39.8,79.4z"/>
<path d="M40.3,79.7l2.7,0.3l-1.5,13.2l-2.7-0.3L40.3,79.7z"/>
<path d="M42.9,80l0.5-0.2"/>
<path d="M39.8,79.4l0.4,0.3"/>
<path d="M38.2,93.7l0.6-0.8"/>
<path d="M41.8,94.1l-0.4-0.9"/>
</g>
<g id="Flamethrower_Attachment_Heavy_Gauntlet_Right" class="option" style="display: inherit;">
<g id="Tubes_Flamethrower_Attachment_Heavy_Gauntlet_Right" style="fill: rgb(56, 55, 55);">
<path d="M30.9,80.4l0.8,0.1l-2.3,25.6l-0.8-0.1L30.9,80.4z"/>
<path d="M29,80.2l0.8,0.1l-1.7,18.3l-0.8-0.1L29,80.2z"/>
<path d="M30.5,82l1.3,0.1l-0.6,6.1L30,88.1L30.5,82z"/>
<path d="M28.7,81.8l1.2,0.1L29.3,88l-1.2-0.1L28.7,81.8z"/>
</g>
<g id="Main_Flamethrower_Attachment_Heavy_Gauntlet_Right" style="fill: rgb(94, 94, 94);">
<path d="M28.7,79.8l3.5,0.3l-0.2,2l-3.5-0.3L28.7,79.8z"/>
<path d="M27.9,87.9l3.6,0.3l-0.1,1l-3.6-0.3L27.9,87.9z"/>
<path d="M27.9,88.9l3.3,0.3l0,0.5l-3.3-0.3L27.9,88.9z"/>
<path d="M31.2,87.6l0.6,0.1l-0.3,3l-0.6-0.1L31.2,87.6z"/>
</g>
<g id="Accent_Flamethrower_Attachment_Heavy_Gauntlet_Right" style="fill: rgb(39, 38, 38);">
<path d="M27.3,98.6l0.9,0.1l0,1.3l-1.2-0.1L27.3,98.6z"/>
<path d="M27.5,92l1.6,0.1L29,94.1L27.4,94L27.5,92z"/>
<path d="M27.6,94l1.2,0.1L28.6,96l-1.2-0.1L27.6,94z"/>
<path d="M28.7,102.7l1.2,0.1l-0.2,2.7l-1.2-0.1L28.7,102.7z"/>
<path d="M29.5,94.2l1.2,0.1l-0.3,3.6l-1.2-0.1L29.5,94.2z"/>
<path d="M28.4,104.1l1.6,0.1l0,0.5l-1.6-0.1L28.4,104.1z"/>
</g>
<path id="Base_Flamethrower_Attachment_Heavy_Gauntlet_Right" d="M31.7,87.7l0.7-8.1l-1,0.3l-1.3,13.6l0.9,0.5 l0.3-3.4l-0.6-0.1l0.3-3L31.7,87.7z" style="fill: rgb(36, 36, 36);"/>
</g>
</g>
</g>
</g>
<g id="Shins">
<g id="Left-Shin">
<g id="Full_Shin_Left" class="option" style="display: inherit;">
<path id="Shin_Full-Shin_Left" d="M102.3,174.6c11.2-2.4,18.5-0.1,18.5-0.1l2.1,43.2c0,0-4.4,1-9.2,0.8 c-3.5-0.1-9-1.5-9-1.5l-6-37C98.8,180.1,102.5,179.5,102.3,174.6" style="fill: rgb(30, 30, 30);"/>
<g id="Accent_Full-Shin_Left" class="toggle" style="fill: rgb(245, 106, 10);">
<path d="M99.5,184.1l6.2-0.4l0.3,1.6l-6.2,0.4L99.5,184.1"/>
<path d="M99.9,186.4l4.2-0.3l0.3,1.6l-4.3,0.3L99.9,186.4"/>
</g>
<g id="Ridge_Full-Shin_Left" class="toggle" style="fill: rgb(245, 106, 10);">
<path d="M117.1,173.3l-3.9-0.5l-4.1,0.3l5.9,45.4c2,0.1,3.4-0.1,5.7-0.4L117.1,173.3"/>
<path d="M113.1,172.8l4.9,45.6"/>
</g>
</g>
</g>
<g id="Right-Shin">
<g id="Full_Shin_Right" class="option" style="display: inherit;">
<path id="Shin_Full-Shin_Right" d="M66.6,174.6c-11.2-2.4-18.5-0.1-18.5-0.1L46,217.7c0,0,4.4,1,9.2,0.8 c3.5-0.1,9-1.5,9-1.5l6-37C70.2,180.1,66.5,179.5,66.6,174.6" style="fill: rgb(30, 30, 30);"/>
<g id="Accent_Full-Shin_Right" class="toggle" style="fill: rgb(245, 106, 10);">
<path d="M69.5,184.1l-6.2-0.4l-0.3,1.6l6.2,0.4L69.5,184.1"/>
<path d="M69.1,186.4l-4.2-0.3l-0.3,1.6l4.3,0.3L69.1,186.4"/>
</g>
<g id="Ridge_Full-Shin_Right" class="toggle" style="fill: rgb(245, 106, 10);">
<path d="M51.9,173.3l3.9-0.5l4.1,0.3l-5.9,45.4c-2,0.1-3.4-0.1-5.7-0.4L51.9,173.3"/>
<path d="M55.9,172.8l-4.9,45.6"/>
</g>
</g>
</g>
</g>
<g id="Foot">
<g id="Left-Ankle">
<g id="Legacy_Ankle_Left" class="option" style="display: inherit;">
<path id="Plate-2_Legacy-Ankle_Left" d="M122.9,223.8l3.7,3.3l2.5,3.2l-4,1.3l-9.3-1.9l-3.4-4.5L122.9,223.8" style="fill: rgb(245, 106, 10);"/>
<path id="Plate-1_Legacy-Ankle_Left" d="M106.3,217.6c0,0,3.7,1.7,9.2,1.5c3.8-0.1,5.3-1.1,5.3-1.1l3.2,5.9 l-0.8,3.3l-13.4-1.1l-3.3-2.8L106.3,217.6" style="fill: rgb(25, 25, 25);"/>
<path id="Trauma-Plate-2_Legacy-Ankle_Left" class="toggle" style="fill: rgb(30, 30, 30);" d="M123.7,224.5l2.9,2.6l1.5,1.9l-3.1,1l-8.2-1.7l-1.3-1.8 l7.6,0.6L123.7,224.5"/>
<path id="Trauma-Plate-1_Legacy-Ankle_Left" class="toggle" style="fill: rgb(30, 30, 30);" d="M107.7,219.6l0.1,2.7l2.7,2.2l11.8,0.9l0.8-3.3l-1.5-2.8 c-1,0.3-4,1.2-6,1.2C112.4,220.7,109.4,220.1,107.7,219.6"/>
</g>
</g>
<g id="Left-Toe">
<g id="Armored_Toe_Left" class="option" style="display: inherit;">
<g id="Plate_Armored_Toe_Left" style="fill: rgb(30, 30, 30);">
<path d="M114.5,233.2l9.7,5.4l7.3,0.5l5.9-1.5c1.2-1,1.7-3.3,0.7-5.6l-8.3-3.9l-6.5,1.6L114.5,233.2"/>
<path d="M122.6,229.9c0,0,7.6,2.2,8.5,3.5c1,1.5,0.4,5.6,0.4,5.6"/>
</g>
<g id="Trim_Armored_Toe_Left" style="fill: rgb(245, 106, 10);">
<path d="M128.7,227.4l-7.8,1.9l-6.6,4l1.4,0.8l7-4.1l7.8-1.8L128.7,227.4"/>
<path d="M120.9,229.2l1.8,0.7"/>
</g>
</g>
</g>
<g id="Right-Ankle">
<g id="Legacy_Ankle_Right" class="option" style="display: inherit;">
<path id="Plate-2_Legacy-Ankle_Right" d="M46.1,223.8l-3.7,3.3l-2.5,3.2l4,1.3l9.3-1.9l3.4-4.5L46.1,223.8" style="fill: rgb(245, 106, 10);"/>
<path id="Plate-1_Legacy-Ankle_Right" d="M62.8,217.6c0,0-3.7,1.7-9.2,1.5c-3.8-0.1-5.3-1.1-5.3-1.1l-3.2,5.9 l0.8,3.3l13.4-1.1l3.3-2.8L62.8,217.6" style="fill: rgb(25, 25, 25);"/>
<path id="Trauma-Plate-2_Legacy-Ankle_Right" class="toggle" style="fill: rgb(30, 30, 30);" d="M45.3,224.5l-2.9,2.6L41,229l3.1,1l8.2-1.7l1.3-1.8 l-7.6,0.6L45.3,224.5"/>
<path id="Trauma-Plate-1_Legacy-Ankle_Right" class="toggle" style="fill: rgb(30, 30, 30);" d="M61.4,219.6l-0.1,2.7l-2.7,2.2l-11.8,0.9l-0.8-3.3 l1.5-2.8c1,0.3,4,1.2,6,1.2C56.7,220.7,59.6,220.1,61.4,219.6"/>
</g>
</g>
<g id="Right-Toe">
<g id="Armored_Toe_Right" class="option" style="display: inherit;">
<g id="Plate_Armored_Toe_Right" style="fill: rgb(30, 30, 30);">
<path d="M54.5,233.2l-9.7,5.4l-7.3,0.5l-5.9-1.5c-1.2-1-1.7-3.3-0.7-5.6l8.3-3.9l6.5,1.6L54.5,233.2"/>
<path d="M46.4,229.9c0,0-7.6,2.2-8.5,3.5c-1,1.5-0.4,5.6-0.4,5.6"/>
</g>
<g id="Trim_Armored_Toe_Right" style="fill: rgb(245, 106, 10);">
<path d="M40.3,227.4l7.8,1.9l6.6,4l-1.4,0.8l-7-4.1l-7.8-1.8L40.3,227.4"/>
<path d="M48.1,229.2l-1.8,0.7"/>
</g>
</g>
</g>
</g>
<g id="Knees">
<g id="Left-Knee">
<g id="Galaxy_Knee_Left" class="option" style="display: inherit;">
<g id="Missiles_Galaxy-Knee_Left" class="toggle" style="display:none"/>
<g id="Strap_Galaxy-Knee_Left" style="fill: rgb(65, 64, 64);">
<path d="M97.7,163.2l2.8-0.4l0.4,2.6l-2.8,0.4L97.7,163.2z"/>
<path d="M96.3,163.7l1.5-0.2l0.3,2l-1.5,0.2L96.3,163.7z"/>
</g>
<path id="Knee_Galaxy-Knee_Left" d="M114.4,173.4l4-12l-4.3-4.9l-12.5,1.9l-2.6,6l7.4,10.3L114.4,173.4z" style="fill: rgb(30, 30, 30);"/>
<g id="Trim_Galaxy-Knee_Left" style="fill: rgb(245, 106, 10);">
<path d="M105.6,157.8l4.8-0.7l0.5,3.2l-4.8,0.7L105.6,157.8z"/>
<path d="M99.1,164.3c4.5,0.3,9,10.1,9,10.1l-1.6,0.2L99.1,164.3z"/>
<path d="M118.5,161.4c-4.2,1.6-5.6,12.3-5.6,12.3l1.6-0.2L118.5,161.4z"/>
</g>
</g>
</g>
<g id="Right-Knee">
<g id="Galaxy_Knee_Right" class="option" style="display: inherit;">
<g id="Missiles_Galaxy-Knee_Right" class="toggle" style="display:none"/>
<g id="Strap_Galaxy-Knee_Right" style="fill: rgb(65, 64, 64);">
<path d="M71.3,163.2l-2.8-0.4l-0.4,2.6l2.8,0.4L71.3,163.2z"/>
<path d="M72.7,163.7l-1.5-0.2l-0.3,2l1.5,0.2L72.7,163.7z"/>
</g>
<path id="Knee_Galaxy-Knee_Right" d="M54.6,173.4l-4-12l4.3-4.9l12.5,1.9l2.6,6l-7.4,10.3L54.6,173.4z" style="fill: rgb(30, 30, 30);"/>
<g id="Trim_Galaxy-Knee_Right" style="fill: rgb(245, 106, 10);">
<path d="M63.4,157.8l-4.8-0.7l-0.5,3.2l4.8,0.7L63.4,157.8z"/>
<path d="M69.9,164.3c-4.5,0.3-9,10.1-9,10.1l1.6,0.2L69.9,164.3z"/>
<path d="M50.5,161.4c4.2,1.6,5.6,12.3,5.6,12.3l-1.6-0.2L50.5,161.4z"/>
</g>
</g>
</g>
</g>
<g id="Thighs">
<g id="Left-Thigh">
<g id="Heavy_Thigh_Left" class="option" style="display: inherit;">
<g id="Thigh_Heavy-Thigh_Left" style="fill: rgb(30, 30, 30);">
<path d="M95.4,119.4l-5.8,7.4l6.7,26.7l4.5,1.6l-3.2-30.4L95.4,119.4"/>
<path d="M110.3,117.8l7.2,6.1l-1,27.5l-4.1,2.5l-3.2-30.4L110.3,117.8"/>
<path d="M110.3,117.8l-14.9,1.5l2.2,5.3l11.6-1.2L110.3,117.8"/>
<path d="M109.2,123.5l-11.6,1.2l3.2,30.4l11.6-1.2L109.2,123.5"/>
</g>
<g id="Trim_Heavy-Thigh_Left" style="fill: rgb(245, 106, 10);">
<path d="M110.9,115.5l-16.6,1.7l1.1,2.2l14.9-1.5L110.9,115.5"/>
<path d="M117.3,121.3l-6.4-5.8l-0.6,2.3l7.2,6.1L117.3,121.3"/>
<path d="M89.3,124.2l5-7l1.1,2.2l-5.8,7.4L89.3,124.2"/>
</g>
</g>
</g>
<g id="Right-Thigh">
<g id="Heavy_Thigh_Right" class="option" style="display: inherit;">
<g id="Thigh_Heavy-Thigh_Right" style="fill: rgb(30, 30, 30);">
<path d="M73.6,119.4l5.8,7.4l-6.7,26.7l-4.5,1.6l3.2-30.4L73.6,119.4"/>
<path d="M58.7,117.8l-7.2,6.1l1,27.5l4.1,2.5l3.2-30.4L58.7,117.8"/>
<path d="M58.7,117.8l14.9,1.5l-2.2,5.3l-11.6-1.2L58.7,117.8"/>
<path d="M59.8,123.5l11.6,1.2l-3.2,30.4l-11.6-1.2L59.8,123.5"/>
</g>
<g id="Trim_Heavy-Thigh_Right" style="fill: rgb(245, 106, 10);">
<path d="M58.1,115.5l16.6,1.7l-1.1,2.2l-14.9-1.5L58.1,115.5"/>
<path d="M51.7,121.3l6.4-5.8l0.6,2.3l-7.2,6.1L51.7,121.3"/>
<path d="M79.7,124.2l-5-7l-1.1,2.2l5.8,7.4L79.7,124.2"/>
</g>
</g>
</g>
</g>
<g id="Groin">
<g id="Basic_Groin" class="option" style="display: inherit;">
<path id="Groin-Plate_Basic" d="M78.2,107.5L67.7,86.2h33.8l-10.6,21.2c0,0-4.2,5.1-6.3,5.1 C82.5,112.5,78.2,107.5,78.2,107.5z" style="fill: rgb(0, 0, 0);"/>
<path id="Trauma-Plating_Groin" class="toggle" style="fill: rgb(30, 30, 30);" d="M89.8,106.7l9.5-19.2H69.8l9.5,19.2c0.4,0.5,2.1,2.4,3.7,3.6 c0.6,0.4,1.1,0.8,1.5,0.8c0.4,0,0.9-0.4,1.5-0.8C87.7,109.2,89.4,107.2,89.8,106.7"/>
</g>
</g>
<g id="Waist">
<g id="Accessories_Waist">
<g id="Kama" class="toggle" style="display:none"/>
<g id="Loin-Cloth" class="toggle" style="display:none"/>
<g id="Left-Holster" class="toggle" style="display:none"/>
<g id="Right-Holster" class="toggle" style="">
<g id="Belt-Holster_Right" class="option" style="display: inherit;">
<g id="Weapon_Belt-Holster-Right">
<g id="Main_Weapon_Belt-Holster-Right" style="fill: rgb(49, 48, 48);">
<path d="M60.2,93l0.2-3.7l-0.6,0L60,87l0.6,0l0.1-1.2c0-0.4-0.5-0.7-1.1-0.8c-1.5-0.1-4-0.3-5.4-0.4 c-0.6,0-1.2,0.2-1.2,0.6l-0.1,1.2l0.6,0l-0.2,2.3l-0.6,0l-0.2,3.7l1.5,0.1l-0.7,10.1l4.8,0.3l0.7-10.1L60.2,93z"/>
<path d="M53.1,92L54,92l-0.8,12.2l4.8,0.3l0.8-12.2l0.9,0.1l0.2-2.8l-6.5-0.4L53.1,92z"/>
<path d="M54.9,85.5l3.8,0.3l-0.2,3.8l-3.8-0.3L54.9,85.5z"/>
<path d="M57.6,93.4l0.6,0l-0.6,9.6l-0.6,0L57.6,93.4z"/>
<path d="M56.1,91.1l0.6,0l-0.6,9.6l-0.6,0L56.1,91.1z"/>
<path d="M54.4,93.2l0.6,0l-0.6,9.6l-0.6,0L54.4,93.2z"/>
</g>
<g id="Accent_Weapon_Belt-Holster-Right" style="fill: rgb(160, 158, 158);">
<path d="M57.9,89.9l0,0.4l-2.7-0.2l0-0.4L57.9,89.9z"/>
<path d="M57.9,90.3l0,0.4l-2.7-0.2l0-0.4L57.9,90.3z"/>
<path d="M57.9,89.5l0,0.4l-2.7-0.2l0-0.4L57.9,89.5z"/>
<path d="M58.2,84.8l0,0.4L55.5,85l0-0.4L58.2,84.8z"/>
<path d="M58.1,85.7l0.6,0l-0.2,3.8l-0.6,0L58.1,85.7z"/>
<path d="M54.9,85.5l0.6,0l-0.2,3.8l-0.6,0L54.9,85.5z"/>
<path d="M55,93.2l1,0.1l-0.6,9.6l-1-0.1L55,93.2z"/>
<path d="M56.6,93.3l1,0.1l-0.6,9.6l-1-0.1L56.6,93.3z"/>
</g>
</g>
<path id="Holster_Belt-Holster-Right" d="M58.6,107l2.5-15.2l-8.4,10.7l-0.8,21c1.5,1.9,3.1,2.1,4.9,0.4L58.6,107 z" style="fill: rgb(30, 30, 30);"/>
</g>
</g>
</g>
<g id="Under-Belt">
<g id="Girth-Belt" class="option" style="fill: rgb(18, 18, 18); display: inherit;">
<path d="M84.5,80.1c-7.2,0-21.5-1.8-21.5-1.8l0.5-1.5c0,0,14,1.2,21,1.8c7-0.6,21-1.8,21-1.8l0.5,1.5 C106,78.3,91.7,80.1,84.5,80.1z"/>
<path d="M84.5,81.6c-7.3,0-22-1.8-22-1.8l0.4-1.5c0,0,17.9,1.5,21.5,1.8c3.6-0.3,21.5-1.8,21.5-1.8l0.4,1.5 C106.5,79.8,91.9,81.6,84.5,81.6z"/>
<path d="M84.5,83.2c-7.4,0-22.3-1.8-22.3-1.8l0.3-1.5c0,0,18.3,1.5,22,1.8c3.7-0.3,22-1.8,22-1.8l0.3,1.5 C106.8,81.4,92,83.2,84.5,83.2z"/>
<path d="M84.5,84.7C77,84.7,62,82.9,62,82.9l0.3-1.5c0,0,18.6,1.5,22.3,1.8c3.7-0.3,22.3-1.8,22.3-1.8l0.3,1.5 C107.1,82.9,92.1,84.7,84.5,84.7z"/>
<path d="M84.5,86.3c-7.6,0-22.8-1.8-22.8-1.8l0.3-1.5c0,0,18.8,1.5,22.6,1.8c3.8-0.3,22.6-1.8,22.6-1.8l0.3,1.5 C107.4,84.4,92.1,86.3,84.5,86.3z"/>
<path d="M84.5,87.8c-7.7,0-23.1-1.8-23.1-1.8l0.2-1.5c0,0,19,1.5,22.8,1.8c3.8-0.3,22.8-1.8,22.8-1.8l0.2,1.5 C107.6,86,92.2,87.8,84.5,87.8z"/>
<path d="M84.5,89.4c-7.8,0-23.3-1.8-23.3-1.8l0.2-1.5c0,0,19.2,1.5,23.1,1.8c3.8-0.3,23.1-1.8,23.1-1.8l0.2,1.5 C107.8,87.5,92.3,89.4,84.5,89.4z"/>
<path d="M84.5,90.9c-7.8,0-23.5-1.8-23.5-1.8l0.2-1.5c0,0,19.4,1.5,23.3,1.8c3.9-0.3,23.3-1.8,23.3-1.8l0.2,1.5 C108.1,89.1,92.4,90.9,84.5,90.9z"/>
<path d="M84.5,92.5c-7.9,0-23.8-1.8-23.8-1.8l0.3-1.5c0,0,19.6,1.5,23.5,1.8c3.9-0.3,23.5-1.8,23.5-1.8l0.3,1.5 C108.3,90.6,92.5,92.5,84.5,92.5z"/>
<path d="M84.5,94c-8,0-24.1-1.8-24.1-1.8l0.3-1.5c0,0,19.8,1.5,23.8,1.8c4-0.3,23.8-1.8,23.8-1.8l0.3,1.5 C108.6,92.2,92.6,94,84.5,94z"/>
</g>
</g>
<g id="Belt">
<g id="Pouch-Belt-4" class="option" style="display: inherit;">
<path id="Main_Pouch-Belt-4" d="M108.2,87.6c-5.3,0.5-17.5,2.2-23.6,2.2c-6.2,0-18.4-1.8-23.6-2.2l0.8-6.2 c4.3,0.4,16.8,2.2,22.8,2.2c5.8,0,18.1-1.8,22.7-2.2L108.2,87.6z" style="fill: rgb(18, 18, 18);"/>
<rect id="Buckle_Pouch-Belt-4" x="80.2" y="82.9" width="8.8" height="7.2" style="fill: rgb(122, 122, 122);"/>
<g id="Pouches_Pouch-Belt-4" style="fill: rgb(64, 64, 64);">
<g>
<g>
<path d="M66.4,80.2c-1.3-0.1-2.6,0.1-3.7,0.7c0,0,0,0,0,0l5.8,0.3l1.6-0.7C70,80.5,68,80.3,66.4,80.2z"/>
<path d="M70.2,80.7c0-0.1,0-0.1-0.1-0.2c-0.1,0-0.1,0-0.2,0c-0.5,0.2-1.5,0.7-1.5,0.7s-0.6,7.6-0.8,9.4 c0,0.1,0,0.1,0.1,0.2c0.1,0,0.1,0,0.2,0c0.5-0.3,1-0.5,1.5-0.5c0.1,0,0.2-0.1,0.2-0.2C69.8,86.9,69.9,83.8,70.2,80.7z"/>
<path d="M68.4,81.2l-5.8-0.3c0,1.5-0.2,3-0.3,4.4c-0.1,1.7-0.1,3.4-0.3,5.2c0,0.1,0,0.1,0.1,0.2 c0,0,0.1,0.1,0.1,0.1c1.8,0,3.6,0.1,5.3,0.3c0.1,0,0.1,0,0.2,0c0,0,0.1-0.1,0.1-0.1c0.1-0.9,0.3-4.4,0.3-4.4L68.4,81.2z"/>
<path d="M68.4,81.2l-5.8-0.3c0,0-0.1,0.7-0.2,1.6c-0.1,0.8,0.2,1.6,0.7,2.3c0.5,0.6,1.3,1,2.1,1.1c0,0,0,0,0,0 c0.8,0,1.6-0.2,2.2-0.8c0.6-0.6,0.9-1.3,0.9-2.2C68.4,81.9,68.4,81.2,68.4,81.2z"/>
<path d="M65.3,84.6c0.2,0,0.4,0.2,0.3,0.4s-0.2,0.4-0.4,0.4c-0.2,0-0.4-0.2-0.3-0.4S65.1,84.6,65.3,84.6z"/>
</g>
</g>
<g>
<path d="M59,80.8l0.4-0.7l2.2,0.1l0.3,0.8L59,80.8z"/>
<path d="M61.9,81.1c0-0.1,0-0.1,0-0.2c0,0-0.1-0.1-0.1-0.1c-0.7,0-2.7-0.1-2.7-0.1l-0.4,8.8 c0.1,0.3,1.7,0.4,2.6,0.4c0.1,0,0.2-0.1,0.2-0.2C61.5,86.8,61.6,84,61.9,81.1z"/>
</g>
<g>
<g>
<path d="M102.8,80.2c1.3-0.1,2.6,0.1,3.7,0.7l0,0l-5.8,0.3l-1.6-0.7C99.2,80.5,101.2,80.3,102.8,80.2z"/>
<path d="M99,80.7c0-0.1,0-0.1,0.1-0.2c0.1,0,0.1,0,0.2,0c0.5,0.2,1.5,0.7,1.5,0.7s0.6,7.6,0.8,9.4 c0,0.1,0,0.1-0.1,0.2c-0.1,0-0.1,0-0.2,0c-0.5-0.3-1-0.5-1.5-0.5c-0.1,0-0.2-0.1-0.2-0.2C99.4,86.9,99.3,83.8,99,80.7z"/>
<path d="M100.7,81.2l5.8-0.3c0,1.5,0.2,3,0.3,4.4c0.1,1.7,0.1,3.4,0.3,5.2c0,0.1,0,0.1-0.1,0.2 c0,0-0.1,0.1-0.2,0.1c-1.8,0-3.6,0.1-5.3,0.3c-0.1,0-0.1,0-0.2,0c0,0-0.1-0.1-0.1-0.1c-0.1-0.9-0.3-4.4-0.3-4.4L100.7,81.2z"/>
<path d="M100.7,81.2l5.8-0.3c0,0,0.1,0.7,0.2,1.6c0.1,0.8-0.2,1.6-0.7,2.3c-0.5,0.6-1.3,1-2.1,1.1c0,0,0,0,0,0 c-0.8,0-1.6-0.2-2.2-0.8c-0.6-0.6-0.9-1.3-0.9-2.2C100.7,81.9,100.7,81.2,100.7,81.2z"/>
<path d="M103.8,84.6c-0.2,0-0.4,0.2-0.3,0.4c0,0.2,0.2,0.4,0.4,0.4c0.2,0,0.4-0.2,0.3-0.4S104,84.6,103.8,84.6z"/>
</g>
</g>
<g>
<path d="M110.1,80.8l-0.4-0.7l-2.2,0.1l-0.3,0.8L110.1,80.8z"/>
<path d="M107.2,81.1c0-0.1,0-0.1,0-0.2c0,0,0.1-0.1,0.1-0.1c0.7,0,2.7-0.1,2.7-0.1l0.4,8.8 c-0.1,0.3-1.7,0.4-2.6,0.4c-0.1,0-0.2-0.1-0.2-0.2C107.7,86.8,107.6,84,107.2,81.1z"/>
</g>
</g>
</g>
</g>
</g>
<g id="Extras_Front">
<g id="Front">
<g id="None_Front" class="option" style="display: inherit;">
</g>
</g>
</g>
</svg></svg>