<?xml version='1.0' encoding='UTF-8'?><svg xmlns="http://www.w3.org/2000/svg" version="1.1" width="1920" height="1080" viewBox="0 0 1920 1080"><svg version="2.0" id="Background" xmlns="http://www.w3.org/2000/svg" viewBox="0 0 1920 1080" style="stroke:black;stroke-width:1px;" width="1920" height="1080">
<animate href="#Mouse_Droid" attributeType="XML" attributeName="x" begin="mouseenter" restart="whenNotActive" dur="3s" from="800" to="800" values="800;500;650;-1100;-1100;1100;1100;800"/>
<animate href="#Mouse_Droid" attributeType="XML" attributeName="opacity" begin="mouseenter" restart="whenNotActive" dur="3s" from="1" to="1" values="1;1;1;1;0;0;1;1"/>
<style type="text/css">
.st0{fill:#0F0F0F;}
.st1{fill:#363636;}
.st2{fill:#2A2A2A;}
.st3{fill:#A9A9A9;}
.st4{fill:#D5D5D5;}
.st5{fill:#AEAEAE;}
.st6{fill:#AB1F1F;}
.st7{fill:#FFEA00;}
.st8{fill:#60FF00;}
.st9{fill:#787878;}
.st10{fill:#313131;}
.st11{fill:#737373;}
.st12{fill:#B5B5B5;}
.st13{fill:#9F9F9F;}
.st14{fill:#DFDFDF;}
.st15{fill:#A2A2A2;}
.st16{fill:#535353;}
.st17{fill:#919191;}
.st18{fill:#FFFFFF;}
</style>
<rect y="806.8" class="st0" width="1920" height="273.2"/>
<rect y="978" class="st1" width="423.6" height="102"/>
<rect x="1496.4" y="978" class="st1" width="423.6" height="102"/>
<path class="st2" d="M138.3,1043.7l-44.8-36.3H0v72.7h138.3V1043.7z"/>
<path class="st2" d="M1781.7,1043.7l44.8-36.3h93.5v72.7h-138.3V1043.7z"/>
<path class="st2" d="M158.3,1043.7l44.8-36.3h195.6l-56.8,72.7H158.3V1043.7z"/>
<path class="st2" d="M1761.7,1043.7l-44.8-36.3h-195.5l56.8,72.7h183.5V1043.7z"/>
<rect class="st1" width="1920" height="806.8"/>
<path class="st3" d="M960,51.2v755.6H436.4L318.7,603V248.9L432.9,51.2H960z"/>
<path class="st3" d="M960,51.2v755.6h523.6L1601.3,603V248.9L1487.1,51.2H960z"/>
<path class="st4" d="M1483.6,806.8L1601.3,603V248.9L1487.1,51.2H432.9L318.7,248.9V603l117.7,203.8H0v-51.7h347.4l-79.9-138.4 l0.3-381.3L373.7,51.2H0V0h1920v51.2h-373.7l105.9,184.2l0.3,381.3l-79.9,138.4H1920v51.7H1483.6z"/>
<g>
<g>
<rect x="136.5" y="383.9" class="st5" width="63" height="117"/>
<circle class="st6" cx="181.5" cy="413.8" r="8.2"/>
<circle class="st7" cx="158" cy="398.4" r="4.7"/>
<rect x="173.3" y="429" class="st8" width="16.3" height="58.2"/>
<path class="st9" d="M162.7,421l-16.3-12.7v26.9h16.3V421z"/>
<rect x="146.3" y="444" class="st10" width="16.3" height="28.2"/>
</g>
<g>
<rect x="1720.5" y="383.9" class="st5" width="63" height="117"/>
<circle class="st6" cx="1765.5" cy="413.8" r="8.2"/>
<circle class="st8" cx="1742" cy="398.4" r="4.7"/>
<rect x="1757.3" y="429" class="st7" width="16.3" height="8"/>
<rect x="1757.3" y="442.7" class="st7" width="16.3" height="8"/>
<rect x="1757.3" y="456.4" class="st7" width="16.3" height="8"/>
<rect x="1757.3" y="470.1" class="st7" width="16.3" height="8"/>
<rect x="1757.3" y="483.8" class="st7" width="16.3" height="8"/>
<path class="st9" d="M1746.7,421l-16.3-12.7v26.9h16.3V421z"/>
<rect x="1730.3" y="442.4" class="st10" width="16.3" height="27.6"/>
<path class="st10" d="M1746.7,478h-16.3v6.6l16.3,7V478z"/>
</g>
</g>
<path class="st11" d="M432.9,51.2L318.7,248.9h20.7l115-197.7H432.9z"/>
<path class="st11" d="M538.2,894.9L444.1,1080h30.7l63.5-143.2V894.9z"/>
<path class="st11" d="M1381.8,894.9l94.2,185.1h-30.7l-63.5-143.2V894.9z"/>
<path class="st11" d="M1487.1,51.2l114.2,197.7h-20.7l-115-197.7H1487.1z"/>
<path class="st12" d="M436.4,806.8L318.7,603h20.7l118.5,203.8H436.4z"/>
<path class="st12" d="M1483.6,806.8L1601.3,603h-20.7l-118.5,203.8H1483.6z"/>
<rect x="318.7" y="248.9" class="st13" width="20.7" height="354.1"/>
<rect x="1580.6" y="248.9" class="st13" width="20.7" height="354.1"/>
<path class="st14" d="M444.1,1080l94.1-185.1H0v38h456.9L341.8,1080H444.1z"/>
<path class="st14" d="M1475.9,1080l-94.2-185.1H1920v38h-456.9l115.1,147.1H1475.9z"/>
<path class="st15" d="M0,932.9h456.9L421.5,978H0V932.9z"/>
<path class="st15" d="M1920,932.9h-456.9l35.3,45.2H1920V932.9z"/>
<path class="st16" d="M1546.2,50.9l9.8,16.9h364V50.9H1546.2z"/>
<path class="st16" d="M373.8,50.9L364,67.8H0V50.9H373.8z"/>
<path class="st16" d="M432.7,51.2L443.5,70l1033.9,1.5l9.7-20.2H432.7z"/>
<path class="st17" d="M796.9,303.5v269.2L960,787.4l-0.1,19.5H937L765.3,582.2V293.8L935.5,71.5h24.4l0.1,19.2L796.9,303.5z"/>
<path class="st17" d="M1123.1,303.5v269.2L960,787.4v19.5h23l171.7-224.7V293.8L984.5,71.5h-24.6l0.1,19.2L1123.1,303.5z"/>
<g>
<path class="st18" d="M1880,204.2c0-9.5-7.8-17.2-17.3-17.2c-9.6,0-17.3,7.7-17.3,17.2v125.6c0,9.5,7.8,17.2,17.3,17.2 c9.6,0,17.3-7.7,17.3-17.2V204.2z"/>
<path class="st18" d="M1880,585.1c0-9.5-7.8-17.3-17.3-17.3c-9.6,0-17.3,7.8-17.3,17.3v126.2c0,9.5,7.8,17.3,17.3,17.3 c9.6,0,17.3-7.8,17.3-17.3V585.1z"/>
<path class="st18" d="M1934.6,304.3c0-9.6-7.8-17.3-17.3-17.3c-9.6,0-17.3,7.8-17.3,17.3v126.2c0,9.5,7.8,17.3,17.3,17.3 c9.6,0,17.3-7.8,17.3-17.3V304.3z"/>
<path class="st18" d="M1934.6,485.1c0-9.6-7.8-17.3-17.3-17.3c-9.6,0-17.3,7.8-17.3,17.3v126.2c0,9.5,7.8,17.3,17.3,17.3 c9.6,0,17.3-7.8,17.3-17.3V485.1z"/>
<path class="st18" d="M1880,104.4c0-9.6-7.8-17.4-17.3-17.4c-9.6,0-17.3,7.8-17.3,17.4v45.2c0,9.6,7.8,17.4,17.3,17.4 c9.6,0,17.3-7.8,17.3-17.4V104.4z"/>
<path class="st18" d="M1880,384.4c0-9.6-7.8-17.4-17.3-17.4c-9.6,0-17.3,7.8-17.3,17.4v45.2c0,9.6,7.8,17.4,17.3,17.4 c9.6,0,17.3-7.8,17.3-17.4V384.4z"/>
<path class="st18" d="M1935,666c0-9.6-7.8-17.4-17.3-17.4c-9.6,0-17.3,7.8-17.3,17.4v45.2c0,9.6,7.8,17.4,17.3,17.4 c9.6,0,17.3-7.8,17.3-17.4V666z"/>
<path class="st18" d="M1934.6,104.4c0-9.6-7.8-17.4-17.3-17.4c-9.6,0-17.3,7.8-17.3,17.4v45.2c0,9.6,7.8,17.4,17.3,17.4 c9.6,0,17.3-7.8,17.3-17.4V104.4z"/>
<path class="st18" d="M1880,484.4c0-9.6-7.8-17.4-17.3-17.4c-9.6,0-17.3,7.8-17.3,17.4v45.2c0,9.6,7.8,17.4,17.3,17.4 c9.6,0,17.3-7.8,17.3-17.4V484.4z"/>
<path class="st18" d="M1934.6,204.4c0-9.6-7.8-17.4-17.3-17.4c-9.6,0-17.3,7.8-17.3,17.4v45.2c0,9.6,7.8,17.4,17.3,17.4 c9.6,0,17.3-7.8,17.3-17.4V204.4z"/>
</g>
<g>
<path class="st18" d="M40,204.2c0-9.5,7.8-17.2,17.3-17.2c9.6,0,17.3,7.7,17.3,17.2v125.6c0,9.5-7.8,17.2-17.3,17.2 c-9.5,0-17.3-7.7-17.3-17.2V204.2z"/>
<path class="st18" d="M40,585.1c0-9.5,7.8-17.3,17.3-17.3c9.6,0,17.3,7.8,17.3,17.3v126.2c0,9.5-7.8,17.3-17.3,17.3 c-9.5,0-17.3-7.8-17.3-17.3V585.1z"/>
<path class="st18" d="M-14.6,304.3c0-9.6,7.8-17.3,17.3-17.3c9.6,0,17.3,7.8,17.3,17.3v126.2c0,9.5-7.8,17.3-17.3,17.3 c-9.6,0-17.3-7.8-17.3-17.3V304.3z"/>
<path class="st18" d="M-14.6,485.1c0-9.6,7.8-17.3,17.3-17.3c9.6,0,17.3,7.8,17.3,17.3v126.2c0,9.5-7.8,17.3-17.3,17.3 c-9.6,0-17.3-7.8-17.3-17.3V485.1z"/>
<path class="st18" d="M40,104.4C40,94.8,47.8,87,57.3,87c9.6,0,17.3,7.8,17.3,17.4v45.2c0,9.6-7.8,17.4-17.3,17.4 c-9.5,0-17.3-7.8-17.3-17.4V104.4z"/>
<path class="st18" d="M40,384.4c0-9.6,7.8-17.4,17.3-17.4c9.6,0,17.3,7.8,17.3,17.4v45.2c0,9.6-7.8,17.4-17.3,17.4 c-9.5,0-17.3-7.8-17.3-17.4V384.4z"/>
<path class="st18" d="M-15,666c0-9.6,7.8-17.4,17.3-17.4c9.6,0,17.3,7.8,17.3,17.4v45.2c0,9.6-7.8,17.4-17.3,17.4 c-9.5,0-17.3-7.8-17.3-17.4V666z"/>
<path class="st18" d="M-14.6,104.4c0-9.6,7.8-17.4,17.3-17.4c9.6,0,17.3,7.8,17.3,17.4v45.2c0,9.6-7.8,17.4-17.3,17.4 c-9.6,0-17.3-7.8-17.3-17.4V104.4z"/>
<path class="st18" d="M40,484.4c0-9.6,7.8-17.4,17.3-17.4c9.6,0,17.3,7.8,17.3,17.4v45.2c0,9.6-7.8,17.4-17.3,17.4 c-9.5,0-17.3-7.8-17.3-17.4V484.4z"/>
<path class="st18" d="M-14.6,204.4c0-9.6,7.8-17.4,17.3-17.4c9.6,0,17.3,7.8,17.3,17.4v45.2c0,9.6-7.8,17.4-17.3,17.4 c-9.6,0-17.3-7.8-17.3-17.4V204.4z"/>
</g>
<g>
<path class="st17" d="M1542.6,294.2v119.1H1192V294.2H1542.6z M1191.1,262.6L1063.4,99.2h385.3l93.9,162.6v0.8H1191.1z"/>
<g>
<path class="st17" d="M377.4,294.2v119.1H728V294.2H377.4z M728.9,262.6L856.6,99.2H471.3l-93.9,162.6v0.8H728.9z"/>
<path class="st17" d="M377.4,563.9V444.8H728v119.1H377.4z M728.9,595.5l121.7,163.3H471.3l-93.9-162.6v-0.8H728.9z"/>
</g>
<path class="st17" d="M1542.6,563.9V444.8H1192v119.1H1542.6z M1191.1,595.5l-121.7,163.3h379.3l93.9-162.6v-0.8H1191.1z"/>
</g>
<svg version="1.1" id="Mouse_Droid" xmlns="http://www.w3.org/2000/svg" viewBox="0 0 132 98" height="10%" x="800" y="765">
<style type="text/css">
.mouse0{fill:#1E1C1F;stroke:#000000;stroke-linejoin:round;stroke-miterlimit:2;}
.mouse1{fill:#423D43;stroke:#000000;stroke-linejoin:round;stroke-miterlimit:2;}
.mouse2{fill:#1E1C1F;}
.mouse3{fill:#161616;stroke:#000000;stroke-linejoin:round;stroke-miterlimit:2;}
.mouse4{fill:#969198;stroke:#000000;stroke-linejoin:round;stroke-miterlimit:2;}
.mouse5{fill:#4A4647;stroke:#000000;stroke-linejoin:round;stroke-miterlimit:2;}
.mouse6{fill:#857C7F;stroke:#000000;stroke-linejoin:round;stroke-miterlimit:2;}
.mouse7{fill:#C3BEC5;stroke:#000000;stroke-linejoin:round;stroke-miterlimit:2;}
.mouse8{fill-rule:evenodd;clip-rule:evenodd;fill:#352F33;stroke:#000000;stroke-linejoin:round;stroke-miterlimit:2;}
.mouse9{fill-rule:evenodd;clip-rule:evenodd;fill:#413B3F;stroke:#000000;stroke-linejoin:round;stroke-miterlimit:2;}
.mouse10{fill:#423B42;stroke:#000000;stroke-linejoin:round;stroke-miterlimit:2;}
.mouse11{fill:#0A080B;}
.mouse12{fill-rule:evenodd;clip-rule:evenodd;fill:#1E1C1F;}
.mouse13{fill-rule:evenodd;clip-rule:evenodd;fill:#312F32;}
.mouse14{fill-rule:evenodd;clip-rule:evenodd;fill:#0D0B0E;}
</style>
<g id="Droid">
<path class="mouse0" d="M89,80.9c0,0-1.1,3.7,0,6c0,0,6.5,9.7,9.8,9.1l11.6-7.4l0.7,0.7c0,0,3.6-5.4-9.2-14.1 C102,75.2,93.4,74,89,80.9"/>
<path class="mouse1" d="M112.1,88.3c0,4.9-4.3,8.9-9.6,8.9c-5.3,0-9.6-4-9.6-8.9c0-4.9,4.3-8.9,9.6-8.9 C107.8,79.4,112.1,83.4,112.1,88.3"/>
<path class="mouse2" d="M23,79.4c0,0-1.4,7.7-0.1,9.7c0,0,2.5,6.7,5.8,6.1l11.1-6.9l0.7,0.7c0,0,3.5-5-4.5-11.7 C36,77.3,27.3,72.5,23,79.4"/>
<path class="mouse1" d="M22.4,87.7c0,4.9,4.3,8.9,9.6,8.9c5.3,0,9.6-4,9.6-8.9c0-4.9-4.3-8.9-9.6-8.9C26.7,78.8,22.4,82.8,22.4,87.7"/>
<path class="mouse3" d="M109.3,88.4c0,3.2-2.8,5.9-6.3,5.9c-3.5,0-6.3-2.6-6.3-5.9c0-3.2,2.8-5.9,6.3-5.9 C106.4,82.5,109.3,85.1,109.3,88.4"/>
<path class="mouse3" d="M38.3,88.3c0,3.2-2.8,5.9-6.3,5.9c-3.5,0-6.3-2.6-6.3-5.9c0-3.2,2.8-5.9,6.3-5.9 C35.5,82.5,38.3,85.1,38.3,88.3"/>
<path class="mouse4" d="M1.7,63.2l-1.2-18l108.3-0.4l22.4,16.8L1.7,63.2z"/>
<path class="mouse5" d="M121.8,59.2L11.4,60.3l27.1-43.7l76.9,1.4L121.8,59.2z"/>
<path class="mouse0" d="M129.4,69.6L2.5,71.1v-4.9l126.9-1.5V69.6z"/>
<path class="mouse6" d="M32.4,11.7l6.1,4.8L11.4,60.3L8.3,46L32.4,11.7z"/>
<path class="mouse7" d="M98.6,12.7l16.8,5.3l-76.9-1.4l-6.1-4.8L98.6,12.7z"/>
<path class="mouse8" d="M1.7,63.2l129.6-1.6l0.1,4.1L1.7,67.4L1.7,63.2z"/>
<path class="mouse9" d="M1.7,70.3l129.6-1.6l0.1,4.1L1.7,74.5L1.7,70.3z"/>
<path class="mouse10" d="M124.3,72.8L6.4,74.2c0,0,7,9.3,8,9.3h9.5c0,0,7.7-6.6,14.7-0.5l51.8-1.2c0,0,4.9-5.1,11.6-5.4 c6.7-0.3,8.3,4.7,8.3,4.7l1.8-0.1L124.3,72.8z"/>
<path class="mouse11" d="M104.9,76.6l5.7,4.6C110.6,81.1,110.9,77.5,104.9,76.6"/>
<path class="mouse12" d="M52.4,2L52.8,2l-1-0.1l0-0.1l-0.3,0l-0.9-0.5l0,0.4l-0.7-0.1l0,0.2l0,0L49,1.3l0,0.4l0.4,0.1l-1.1-0.2l0,0.1 l-0.5-0.3l0,0.4l-0.7-0.1l0,0.1l-0.7-0.4l0,0.4l-0.7-0.1l-0.1,0.6l1.1,0.3l-0.9-0.2l-0.3,1.1l-2.9-0.5l-1,4.5l1.1,0.2l-0.1,3 c0,0,0.3,0.4,0.4,0.4c0,0,0.1-1.1,0.1-2c0.1,0.2,0.3,0.3,0.6,0.3l-0.1,1.6c0,0,0.4,0.4,0.5,0.3c0,0,0.1-1,0.1-2 c0.2-0.1,0.3-0.2,0.4-0.3c0.1,0.2,0.2,0.4,0.4,0.5l-0.4,2.1l-3.6,0.1l0,1.3L51,15.5l6.6,0l0-1.4l-2.5-0.6c0.2-0.9,0.5-2.6,0.6-3.1 l3.1,0.2l0-0.5L58,10.1l0.9-4.7l-1.5-0.2l-0.4,1.4l0.3-1.4l-1.5-0.2l0,0.2L55,4.9l0.3-1.6l0.5,0.1l0-1L55,2.3l0.1-0.6l-0.8,0l0,0.4 l-0.8-0.1l0,0l-0.2,0l-0.2-0.5l-0.7,0L52.4,2z M53.9,13.2l-7.6-1.9l-0.7,0c0-0.2,0.1-0.5,0.1-0.8c0.2,0.1,0.3,0.2,0.5,0.2 c0.2,0,0.4-0.1,0.5-0.2c0.1,0.4,0.5,0.7,0.9,0.7c0.5,0,0.9-0.4,0.9-0.9c0-0.1,0-0.3-0.1-0.4c0.2-0.1,0.3-0.3,0.4-0.5 c0,0.2,0.1,0.3,0.2,0.5c-0.3,0.2-0.5,0.5-0.5,0.8c0,0.5,0.4,0.9,0.9,0.9c0.5,0,0.9-0.4,0.9-0.9c0-0.2-0.1-0.4-0.2-0.5 c0.3-0.2,0.5-0.5,0.5-0.8c0-0.1,0-0.1,0-0.2l1,0.3l-0.1,0.6l-0.1,1.1l2.4,0.5l0.1-1.5l0.3,0.1l0.2,0L53.9,13.2z"/>
<path class="mouse12" d="M101.1,0.9l0.5,0.1l-1.1-0.2l0-0.1l-0.4-0.1l-1-0.6l0,0.4l-0.8-0.1l-0.1,0.3l0,0l-1-0.6l0,0.4l0.5,0.1 l-1.3-0.2l0,0.1L95.8,0l0,0.4L95,0.3l0,0.2L94.2,0l0,0.4l-0.8-0.1L93.2,1l1.2,0.3l-1.1-0.2L93,2.4l-3.3-0.7l-1.3,5.2l1.2,0.3 l-0.2,3.5c0,0,0.4,0.5,0.4,0.4c0,0,0.1-1.2,0.2-2.3c0.2,0.2,0.4,0.4,0.6,0.4l-0.1,1.8c0,0,0.5,0.5,0.6,0.4c0,0,0.1-1.2,0.2-2.3 c0.2-0.1,0.3-0.2,0.4-0.4c0.1,0.2,0.2,0.4,0.4,0.6l-0.5,2.5l-4.1,0.1l0,1.5l11.7,3.3l7.7,0.2l0-1.6l-2.9-0.8c0.2-1,0.6-3,0.7-3.6 l3.6,0.4l0-0.6l-0.8-0.1l1.1-5.5l-1.7-0.3l-0.5,1.6l0.3-1.6l-1.7-0.3L105,4.6l-0.9-0.2l0.4-1.9l0.6,0.2l0-1.2l-0.9-0.1l0.2-0.7 l-1,0l0,0.5l-1-0.2l0,0l-0.2,0l-0.2-0.6l-0.8,0L101.1,0.9z M102.6,14l-8.7-2.3l-0.8,0c0.1-0.3,0.1-0.6,0.2-0.9 c0.2,0.1,0.4,0.2,0.6,0.2c0.2,0,0.4-0.1,0.6-0.2c0.1,0.5,0.5,0.8,1,0.8c0.6,0,1.1-0.5,1-1.1c0-0.2,0-0.3-0.1-0.4 c0.2-0.1,0.4-0.3,0.5-0.6c0,0.2,0.1,0.4,0.2,0.5c-0.3,0.2-0.6,0.5-0.5,0.9c0,0.6,0.5,1,1.1,1c0.6,0,1.1-0.5,1-1.1 c0-0.2-0.1-0.4-0.2-0.6c0.3-0.2,0.6-0.5,0.5-0.9c0-0.1,0-0.1,0-0.2l1.2,0.4l-0.1,0.7l-0.1,1.2l2.7,0.7l0.1-1.8l0.3,0.1l0.2,0 L102.6,14z"/>
<path class="mouse12" d="M52,1.4l-0.7-0.2L52,1.4z"/>
<path class="mouse12" d="M47.5,1.1L47,1L47.5,1.1z"/>
<rect x="60.3" y="21.7" class="mouse13" width="5.2" height="2.4"/>
<rect x="61.2" y="22.6" class="mouse14" width="3.4" height="0.6"/>
<rect x="60.3" y="25.2" class="mouse13" width="5.2" height="2.4"/>
<rect x="61.2" y="26.1" class="mouse14" width="3.4" height="0.6"/>
<rect x="60.1" y="28.2" class="mouse13" width="5.2" height="2.4"/>
<rect x="61" y="29.1" class="mouse14" width="3.4" height="0.6"/>
<rect x="54.4" y="28" class="mouse13" width="5.2" height="2.4"/>
<rect x="55.3" y="28.9" class="mouse14" width="3.4" height="0.6"/>
<rect x="54.4" y="24.9" class="mouse13" width="5.2" height="2.4"/>
<rect x="55.3" y="25.7" class="mouse14" width="3.4" height="0.6"/>
<rect x="54.2" y="21.7" class="mouse13" width="5.2" height="2.4"/>
<rect x="55.1" y="22.6" class="mouse14" width="3.4" height="0.6"/>
<rect x="66.6" y="21.7" class="mouse13" width="5.2" height="2.4"/>
<rect x="67.5" y="22.6" class="mouse14" width="3.4" height="0.6"/>
<rect x="66.9" y="24.9" class="mouse13" width="5.2" height="2.4"/>
<rect x="67.8" y="25.7" class="mouse14" width="3.4" height="0.6"/>
<rect x="66.9" y="28.1" class="mouse13" width="5.2" height="2.4"/>
<rect x="67.8" y="29" class="mouse14" width="3.4" height="0.6"/>
<rect x="72.6" y="28.3" class="mouse13" width="5.2" height="2.4"/>
<rect x="73.5" y="29.2" class="mouse14" width="3.4" height="0.6"/>
<rect x="78.4" y="28.4" class="mouse13" width="5.2" height="2.4"/>
<rect x="79.3" y="29.3" class="mouse14" width="3.4" height="0.6"/>
<rect x="77.9" y="25.3" class="mouse13" width="5.2" height="2.4"/>
<rect x="78.8" y="26.2" class="mouse14" width="3.4" height="0.6"/>
<rect x="72.3" y="25" class="mouse13" width="5.2" height="2.4"/>
<rect x="73.2" y="25.9" class="mouse14" width="3.4" height="0.6"/>
<rect x="72.3" y="21.8" class="mouse13" width="5.2" height="2.4"/>
<rect x="73.2" y="22.7" class="mouse14" width="3.4" height="0.6"/>
<rect x="78.2" y="22" class="mouse13" width="5.2" height="2.4"/>
<rect x="79.1" y="22.9" class="mouse14" width="3.4" height="0.6"/>
<rect x="60.5" y="31.4" class="mouse13" width="5.2" height="2.4"/>
<rect x="61.4" y="32.3" class="mouse14" width="3.4" height="0.6"/>
<rect x="60.5" y="34.9" class="mouse13" width="5.2" height="2.4"/>
<rect x="61.4" y="35.7" class="mouse14" width="3.4" height="0.6"/>
<rect x="60.4" y="37.9" class="mouse13" width="5.2" height="2.4"/>
<rect x="61.3" y="38.8" class="mouse14" width="3.4" height="0.6"/>
<rect x="54.6" y="37.7" class="mouse13" width="5.2" height="2.4"/>
<rect x="55.5" y="38.6" class="mouse14" width="3.4" height="0.6"/>
<rect x="54.6" y="34.6" class="mouse13" width="5.2" height="2.4"/>
<rect x="55.5" y="35.4" class="mouse14" width="3.4" height="0.6"/>
<rect x="54.4" y="31.4" class="mouse13" width="5.2" height="2.4"/>
<rect x="55.3" y="32.3" class="mouse14" width="3.4" height="0.6"/>
<rect x="66.9" y="31.4" class="mouse13" width="5.2" height="2.4"/>
<rect x="67.8" y="32.3" class="mouse14" width="3.4" height="0.6"/>
<rect x="67.2" y="34.6" class="mouse13" width="5.2" height="2.4"/>
<rect x="68.1" y="35.4" class="mouse14" width="3.4" height="0.6"/>
<rect x="67.1" y="37.8" class="mouse13" width="5.2" height="2.4"/>
<rect x="68" y="38.7" class="mouse14" width="3.4" height="0.6"/>
<rect x="72.9" y="38" class="mouse13" width="5.2" height="2.4"/>
<rect x="73.8" y="38.9" class="mouse14" width="3.4" height="0.6"/>
<rect x="78.7" y="38.1" class="mouse13" width="5.2" height="2.4"/>
<rect x="79.6" y="39" class="mouse14" width="3.4" height="0.6"/>
<rect x="78.2" y="35" class="mouse13" width="5.2" height="2.4"/>
<rect x="79.1" y="35.9" class="mouse14" width="3.4" height="0.6"/>
<rect x="72.6" y="34.7" class="mouse13" width="5.2" height="2.4"/>
<rect x="73.5" y="35.6" class="mouse14" width="3.4" height="0.6"/>
<rect x="72.6" y="31.5" class="mouse13" width="5.2" height="2.4"/>
<rect x="73.5" y="32.4" class="mouse14" width="3.4" height="0.6"/>
<rect x="78.4" y="31.7" class="mouse13" width="5.2" height="2.4"/>
<rect x="79.3" y="32.6" class="mouse14" width="3.4" height="0.6"/>
<rect x="60.5" y="40.8" class="mouse13" width="5.2" height="2.4"/>
<rect x="61.4" y="41.7" class="mouse14" width="3.4" height="0.6"/>
<rect x="60.5" y="44.3" class="mouse13" width="5.2" height="2.4"/>
<rect x="61.4" y="45.2" class="mouse14" width="3.4" height="0.6"/>
<rect x="60.4" y="47.4" class="mouse13" width="5.2" height="2.4"/>
<rect x="61.3" y="48.2" class="mouse14" width="3.4" height="0.6"/>
<rect x="54.6" y="47.2" class="mouse13" width="5.2" height="2.4"/>
<rect x="55.5" y="48.1" class="mouse14" width="3.4" height="0.6"/>
<rect x="54.6" y="44" class="mouse13" width="5.2" height="2.4"/>
<rect x="55.5" y="44.9" class="mouse14" width="3.4" height="0.6"/>
<rect x="54.4" y="40.8" class="mouse13" width="5.2" height="2.4"/>
<rect x="55.3" y="41.7" class="mouse14" width="3.4" height="0.6"/>
<rect x="66.9" y="40.8" class="mouse13" width="5.2" height="2.4"/>
<rect x="67.8" y="41.7" class="mouse14" width="3.4" height="0.6"/>
<rect x="67.2" y="44" class="mouse13" width="5.2" height="2.4"/>
<rect x="68.1" y="44.9" class="mouse14" width="3.4" height="0.6"/>
<rect x="67.1" y="47.3" class="mouse13" width="5.2" height="2.4"/>
<rect x="68" y="48.1" class="mouse14" width="3.4" height="0.6"/>
<rect x="72.9" y="47.5" class="mouse13" width="5.2" height="2.4"/>
<rect x="73.8" y="48.4" class="mouse14" width="3.4" height="0.6"/>
<rect x="78.7" y="47.6" class="mouse13" width="5.2" height="2.4"/>
<rect x="79.6" y="48.5" class="mouse14" width="3.4" height="0.6"/>
<rect x="78.2" y="44.5" class="mouse13" width="5.2" height="2.4"/>
<rect x="79.1" y="45.3" class="mouse14" width="3.4" height="0.6"/>
<rect x="72.6" y="44.2" class="mouse13" width="5.2" height="2.4"/>
<rect x="73.5" y="45" class="mouse14" width="3.4" height="0.6"/>
<rect x="72.6" y="41" class="mouse13" width="5.2" height="2.4"/>
<rect x="73.5" y="41.8" class="mouse14" width="3.4" height="0.6"/>
<rect x="78.4" y="41.2" class="mouse13" width="5.2" height="2.4"/>
<rect x="79.3" y="42" class="mouse14" width="3.4" height="0.6"/>
<rect x="60.6" y="50" class="mouse13" width="5.2" height="2.4"/>
<rect x="61.5" y="50.8" class="mouse14" width="3.4" height="0.6"/>
<rect x="60.6" y="53.4" class="mouse13" width="5.2" height="2.4"/>
<rect x="61.5" y="54.3" class="mouse14" width="3.4" height="0.6"/>
<rect x="60.4" y="56.5" class="mouse13" width="5.2" height="2.4"/>
<rect x="61.3" y="57.4" class="mouse14" width="3.4" height="0.6"/>
<rect x="54.7" y="56.3" class="mouse13" width="5.2" height="2.4"/>
<rect x="55.6" y="57.2" class="mouse14" width="3.4" height="0.6"/>
<rect x="54.7" y="53.1" class="mouse13" width="5.2" height="2.4"/>
<rect x="55.6" y="54" class="mouse14" width="3.4" height="0.6"/>
<rect x="54.5" y="50" class="mouse13" width="5.2" height="2.4"/>
<rect x="55.4" y="50.8" class="mouse14" width="3.4" height="0.6"/>
<rect x="66.9" y="50" class="mouse13" width="5.2" height="2.4"/>
<rect x="67.8" y="50.8" class="mouse14" width="3.4" height="0.6"/>
<rect x="67.2" y="53.1" class="mouse13" width="5.2" height="2.4"/>
<rect x="68.1" y="54" class="mouse14" width="3.4" height="0.6"/>
<rect x="67.2" y="56.4" class="mouse13" width="5.2" height="2.4"/>
<rect x="68.1" y="57.2" class="mouse14" width="3.4" height="0.6"/>
<rect x="72.9" y="56.6" class="mouse13" width="5.2" height="2.4"/>
<rect x="73.8" y="57.5" class="mouse14" width="3.4" height="0.6"/>
<rect x="78.7" y="56.7" class="mouse13" width="5.2" height="2.4"/>
<rect x="79.6" y="57.6" class="mouse14" width="3.4" height="0.6"/>
<rect x="78.2" y="53.6" class="mouse13" width="5.2" height="2.4"/>
<rect x="79.2" y="54.5" class="mouse14" width="3.4" height="0.6"/>
<rect x="72.6" y="53.3" class="mouse13" width="5.2" height="2.4"/>
<rect x="73.5" y="54.2" class="mouse14" width="3.4" height="0.6"/>
<rect x="72.6" y="50.1" class="mouse13" width="5.2" height="2.4"/>
<rect x="73.5" y="51" class="mouse14" width="3.4" height="0.6"/>
<rect x="78.5" y="50.3" class="mouse13" width="5.2" height="2.4"/>
<rect x="79.4" y="51.1" class="mouse14" width="3.4" height="0.6"/>
<rect x="84.4" y="28.2" class="mouse13" width="5.2" height="2.4"/>
<rect x="85.3" y="29.1" class="mouse14" width="3.4" height="0.6"/>
<rect x="84" y="25.1" class="mouse13" width="5.2" height="2.4"/>
<rect x="84.9" y="25.9" class="mouse14" width="3.4" height="0.6"/>
<rect x="84.2" y="21.8" class="mouse13" width="5.2" height="2.4"/>
<rect x="85.1" y="22.6" class="mouse14" width="3.4" height="0.6"/>
<rect x="84.7" y="37.9" class="mouse13" width="5.2" height="2.4"/>
<rect x="85.6" y="38.8" class="mouse14" width="3.4" height="0.6"/>
<rect x="84.2" y="34.8" class="mouse13" width="5.2" height="2.4"/>
<rect x="85.1" y="35.6" class="mouse14" width="3.4" height="0.6"/>
<rect x="84.4" y="31.4" class="mouse13" width="5.2" height="2.4"/>
<rect x="85.3" y="32.3" class="mouse14" width="3.4" height="0.6"/>
<rect x="84.7" y="47.3" class="mouse13" width="5.2" height="2.4"/>
<rect x="85.6" y="48.2" class="mouse14" width="3.4" height="0.6"/>
<rect x="84.2" y="44.2" class="mouse13" width="5.2" height="2.4"/>
<rect x="85.1" y="45.1" class="mouse14" width="3.4" height="0.6"/>
<rect x="84.4" y="40.9" class="mouse13" width="5.2" height="2.4"/>
<rect x="85.3" y="41.8" class="mouse14" width="3.4" height="0.6"/>
<rect x="84.8" y="56.5" class="mouse13" width="5.2" height="2.4"/>
<rect x="85.7" y="57.3" class="mouse14" width="3.4" height="0.6"/>
<rect x="84.3" y="53.3" class="mouse13" width="5.2" height="2.4"/>
<rect x="85.2" y="54.2" class="mouse14" width="3.4" height="0.6"/>
<rect x="84.5" y="50" class="mouse13" width="5.2" height="2.4"/>
<rect x="85.4" y="50.9" class="mouse14" width="3.4" height="0.6"/>
<rect x="89.8" y="28.5" class="mouse13" width="5.2" height="2.4"/>
<rect x="90.7" y="29.4" class="mouse14" width="3.4" height="0.6"/>
<rect x="90.1" y="38.2" class="mouse13" width="5.2" height="2.4"/>
<rect x="91" y="39.1" class="mouse14" width="3.4" height="0.6"/>
<rect x="89.6" y="35.1" class="mouse13" width="5.2" height="2.4"/>
<rect x="90.5" y="35.9" class="mouse14" width="3.4" height="0.6"/>
<rect x="89.8" y="31.7" class="mouse13" width="5.2" height="2.4"/>
<rect x="90.7" y="32.6" class="mouse14" width="3.4" height="0.6"/>
<rect x="90.1" y="47.6" class="mouse13" width="5.2" height="2.4"/>
<rect x="91" y="48.5" class="mouse14" width="3.4" height="0.6"/>
<rect x="89.6" y="44.5" class="mouse13" width="5.2" height="2.4"/>
<rect x="90.5" y="45.4" class="mouse14" width="3.4" height="0.6"/>
<rect x="89.8" y="41.2" class="mouse13" width="5.2" height="2.4"/>
<rect x="90.7" y="42.1" class="mouse14" width="3.4" height="0.6"/>
<rect x="90.1" y="56.8" class="mouse13" width="5.2" height="2.4"/>
<rect x="91" y="57.6" class="mouse14" width="3.4" height="0.6"/>
<rect x="89.6" y="53.6" class="mouse13" width="5.2" height="2.4"/>
<rect x="90.5" y="54.5" class="mouse14" width="3.4" height="0.6"/>
<rect x="89.8" y="50.3" class="mouse13" width="5.2" height="2.4"/>
<rect x="90.8" y="51.2" class="mouse14" width="3.4" height="0.6"/>
<rect x="89.8" y="25.6" class="mouse13" width="5.2" height="2.4"/>
<rect x="90.7" y="26.5" class="mouse14" width="3.4" height="0.6"/>
<rect x="95.4" y="25.6" class="mouse13" width="5.2" height="2.4"/>
<rect x="96.3" y="26.5" class="mouse14" width="3.4" height="0.6"/>
<rect x="95.4" y="47.5" class="mouse13" width="5.2" height="2.4"/>
<rect x="96.3" y="48.4" class="mouse14" width="3.4" height="0.6"/>
<rect x="95.2" y="50.1" class="mouse13" width="5.2" height="2.4"/>
<rect x="96.1" y="51" class="mouse14" width="3.4" height="0.6"/>
<rect x="95.2" y="53.5" class="mouse13" width="5.2" height="2.4"/>
<rect x="96.1" y="54.4" class="mouse14" width="3.4" height="0.6"/>
<rect x="103.9" y="18.2" class="mouse14" width="0.9" height="40.8"/>
<rect x="102.5" y="18.2" class="mouse14" width="0.9" height="40.8"/>
<rect x="101" y="18.2" class="mouse14" width="0.9" height="40.8"/>
<rect x="52.8" y="18.2" class="mouse14" width="0.9" height="40.8"/>
<rect x="51.4" y="18.2" class="mouse14" width="0.9" height="40.8"/>
<rect x="49.9" y="18.2" class="mouse14" width="0.9" height="40.8"/>
</g>
</svg></svg><svg class="title" version="1.1" viewBox="0 0 420 70" xmlns="http://www.w3.org/2000/svg" preserveAspectRatio="xMinYMin" width="1920" height="90">
<polygon fill="#222" points="359.21,60 0,60 0,0 398.11,0"/>
<polygon fill="#AB1F1F" points="402.87,0 361.38,64 0,64 0,70 374.62,70 420,0"/>
<path fill="#AB1F1F" d="M55.03,42.15l1.3-1.92L54.87,25.2l-1.76-1.1c-0.26-7.65-6.76-13.81-14.81-13.96v0l-0.1,0l-0.06,0 l-0.06,0l-0.1,0v0c-8,0.15-14.47,6.24-14.8,13.82L21.2,25.2l-1.47,15.03l1.47,2.17l-0.11,1.23L22,43.7l10.48,6.1l0.12,0.07h11.09 l10.6-6.17l0.91-0.07L55.03,42.15z M23.23,43.25c0.17-1.01,0.61-3.46,1.22-4.83c0.79-1.78,2.3-3.75,4.02-3.44 c1.32,0.24,3.88,6.25,4.24,13.78L23.23,43.25z M41.04,48.87v-19c0,0,3.22-0.3,4.79-0.66c1.91-0.44,6.66-1.97,6.66-1.97l-0.07-1.11 c0,0-4.38,0.75-6.6,0.98c-2.17,0.23-5.13,0.54-7.69,0.54c-2.56,0-5.53-0.31-7.69-0.54c-2.21-0.24-6.6-0.98-6.6-0.98l-0.07,1.11 c0,0,4.75,1.53,6.66,1.97c1.57,0.36,4.79,0.66,4.79,0.66v19h-2.37l-0.15-0.09c-0.01-0.16-0.01-0.34-0.02-0.53 c0-0.06,0-0.11-0.01-0.18c0-0.03,0-0.07,0-0.1c-0.09-2.17-0.3-6.02-0.65-8.4c0-0.02-0.01-0.04-0.01-0.06 c-0.03-0.2-0.06-0.39-0.09-0.56c-0.03-0.19-0.07-0.37-0.11-0.53c-0.49-2.08-1.49-4.29-3.03-5.71c-0.09-0.09-0.2-0.17-0.31-0.26 c-0.1-0.08-0.21-0.15-0.33-0.23c-0.01-0.01-0.02-0.01-0.03-0.02c-1.91-1.24-5.53-2.35-5.53-2.35l0.16-1.56l0.41-3.73 c0.29,0.04,4.85,0.63,7.19,0.77c2.27,0.14,6.86,0.18,7.77,0.18c0.9-0.01,5.5-0.04,7.77-0.18c2.1-0.13,5.99-0.62,6.98-0.75 l0.59,5.33c-0.84,0.27-4.15,1.37-5.69,2.53c-0.11,0.08-0.2,0.16-0.29,0.24c0,0-0.01,0.01-0.01,0.01c-0.77,0.71-1.4,1.62-1.91,2.61 c-0.38,0.74-0.68,1.53-0.91,2.32c-0.08,0.26-0.15,0.52-0.21,0.78c-0.04,0.16-0.07,0.33-0.11,0.53c-0.03,0.15-0.05,0.32-0.08,0.49 c-0.01,0.04-0.01,0.08-0.02,0.13c-0.38,2.59-0.59,6.94-0.67,8.95c0,0.03,0,0.07,0,0.1c0,0.04,0,0.06,0,0.09c0,0.03,0,0.05,0,0.07 l-0.15,0.09H41.04z M43.58,48.77c0.36-7.53,2.92-13.54,4.24-13.78c1.71-0.31,3.23,1.66,4.02,3.44c0.61,1.37,1.06,3.82,1.22,4.83 L43.58,48.77z"/>
<g fill="#AAA">
<path d="M66.6,15.12l7.96,0.06l-0.05,6.68l-4.85,10.47l-0.08,11.46l-2.39-0.02l0.08-11.78l4.85-10.47l0.03-3.66 l-5.57-0.04L66.6,15.12z"/>
<path d="M77.65,27.64l2.06-12.43l0.41,0l-0.16,21.99l-2.36-4.47L77.65,27.64z M80.98,29.54l1.06-14.32l0.32,0 l1.01,14.33l-0.1,14.32l-2.39-0.02L80.98,29.54z"/>
<path d="M86.54,30.25l2.41-2.85l-0.05,6.68l-2.38-0.97L86.54,30.25z M89.99,15.28l4.61,0.03l-0.02,2.39l-2.23-0.02 l-0.19,26.26l-2.39-0.02L89.99,15.28z"/>
<path d="M97.79,15.34l2.39,0.02l-0.19,26.26l1.59,0.01l0.17-23.87l-0.79-0.96l0.01-1.43l3.98,0.03l-0.01,1.43 l-0.8,0.95l-0.17,23.87l2.23,0.02l-0.02,2.39l-8.59-0.06L97.79,15.34z"/>
<path d="M116.52,44.12l-2.39-0.02l0.08-10.66l-2.39-0.02l-0.03,3.98l-2.39-0.02l0.15-20.37l3.66,0.03l-0.01,1.43 l-1.28,0.95l-0.08,11.62l2.39,0.02l0.11-15.6l2.39,0.02L116.52,44.12z"/>
<path d="M132.35,38.98l4.87-4.8l-0.03,4.84L132.35,38.98z M138.39,39.02l4.87-4.8l-0.03,4.84L138.39,39.02z M142.19,41.6l5.57,0.04l0.03-3.66l-4.7-10.54l0.08-11.78l2.39,0.02l-0.08,11.46l4.7,10.54l-0.05,6.68l-7.96-0.06L142.19,41.6z"/>
<path d="M160.47,44.43l-2.39-0.02l0.08-10.66l-2.39-0.02l-0.03,3.98l-2.39-0.02l0.15-20.37l3.66,0.03l-0.01,1.43 l-1.28,0.95l-0.08,11.62l2.39,0.02l0.11-15.6l2.39,0.02L160.47,44.43z"/>
<path d="M171.61,44.51l-7.96-0.06l0.05-6.68l4.85-10.47l0.08-11.46l2.39,0.02l-0.08,11.78l-4.85,10.47l-0.03,3.66 l5.57,0.04L171.61,44.51z"/>
<path d="M174.91,28.34l2.06-12.43l0.41,0l-0.16,21.99l-2.36-4.47L174.91,28.34z M178.24,30.24l1.06-14.32l0.32,0 l1.01,14.33l-0.1,14.32l-2.39-0.02L178.24,30.24z"/>
<path d="M188.41,23.28l-0.15,21.36l-2.39-0.02l0.04-5.73l-1.5-0.01l0.02-2.39l1.5,0.01l0.03-4.61l-1.5-0.01 l0.02-2.39l1.5,0.01l0.04-5.19c-0.7,0.21-1.42,0.34-2.17,0.4l0.05-2.39c0.72-0.06,1.43-0.22,2.14-0.49l0.04-5.86l2.39,0.02 l-0.03,4.52c1.39-1.05,2.7-2.53,3.95-4.43l2.39,0.02C192.92,19.48,190.8,21.87,188.41,23.28z"/>
<path d="M202.78,16.47l-4.87,4.8l0.03-4.84L202.78,16.47z"/>
<path d="M205.88,28.56l2.06-12.43l0.41,0l-0.16,21.99l-2.36-4.47L205.88,28.56z M209.21,30.46l1.06-14.32l0.32,0 l1.01,14.33l-0.1,14.32l-2.39-0.02L209.21,30.46z"/>
<path d="M214.88,16.18l2.39,0.02l-0.19,26.26l1.59,0.01l0.17-23.87l-0.79-0.96l0.01-1.43l3.98,0.03l-0.01,1.43 l-0.8,0.95l-0.17,23.87l2.23,0.02l-0.02,2.39l-8.59-0.06L214.88,16.18z"/>
</g>
<g fill="#AAA">
<path d="M243.85,34.96V26.8l-3.63,6.31h-0.57l-3.63-6.31v8.16h-0.98v-9.94h1.01l3.88,6.8l3.91-6.8h0.99v9.94H243.85 z"/>
<path d="M250.4,25.02h0.83l4.13,9.94h-1.04l-1.29-3.11h-4.47l-1.27,3.11h-1.05L250.4,25.02z M252.81,31.08l-2-4.91 l-2.03,4.91H252.81z"/>
<path d="M257.77,26.84v8.12h-0.98v-9.94h0.76l6.58,8.27v-8.26h0.98v9.93h-0.85L257.77,26.84z"/>
<path d="M267.59,34.96v-9.94h3.37c0.79,0,1.49,0.13,2.08,0.39c0.59,0.26,1.09,0.62,1.48,1.06 c0.4,0.45,0.7,0.97,0.9,1.57c0.2,0.6,0.3,1.24,0.3,1.93c0,0.76-0.11,1.44-0.34,2.05c-0.22,0.61-0.54,1.13-0.96,1.57 c-0.42,0.43-0.91,0.77-1.5,1.01c-0.58,0.24-1.24,0.36-1.97,0.36H267.59z M274.75,29.98c0-0.6-0.08-1.15-0.25-1.65 c-0.17-0.5-0.41-0.93-0.73-1.29c-0.32-0.36-0.72-0.65-1.18-0.85s-1-0.3-1.61-0.3h-2.39v8.2h2.39c0.62,0,1.16-0.1,1.63-0.31 s0.87-0.5,1.18-0.87c0.32-0.37,0.56-0.8,0.72-1.3C274.67,31.11,274.75,30.57,274.75,29.98z"/>
<path d="M281.61,35.03c-0.69,0-1.32-0.14-1.9-0.43c-0.57-0.28-1.07-0.66-1.48-1.13c-0.41-0.47-0.73-1.01-0.95-1.62 c-0.22-0.61-0.34-1.23-0.34-1.86c0-0.66,0.12-1.3,0.36-1.9c0.24-0.61,0.57-1.14,0.99-1.61s0.91-0.84,1.48-1.11 c0.57-0.27,1.19-0.41,1.85-0.41c0.69,0,1.32,0.15,1.9,0.44c0.57,0.29,1.06,0.68,1.47,1.15c0.41,0.48,0.72,1.02,0.95,1.62 c0.22,0.6,0.34,1.22,0.34,1.84c0,0.66-0.12,1.3-0.36,1.9c-0.24,0.61-0.56,1.14-0.98,1.6c-0.42,0.46-0.91,0.83-1.48,1.11 C282.89,34.9,282.27,35.03,281.61,35.03z M277.92,29.99c0,0.54,0.09,1.06,0.27,1.56c0.18,0.5,0.43,0.94,0.76,1.33 c0.33,0.39,0.71,0.7,1.16,0.92c0.45,0.23,0.95,0.34,1.5,0.34c0.56,0,1.07-0.12,1.53-0.36s0.84-0.56,1.16-0.95 s0.56-0.84,0.73-1.33c0.17-0.49,0.26-1,0.26-1.51c0-0.54-0.09-1.06-0.27-1.56c-0.18-0.5-0.44-0.94-0.76-1.32 s-0.71-0.69-1.16-0.92c-0.45-0.23-0.94-0.34-1.48-0.34c-0.56,0-1.07,0.12-1.53,0.36c-0.46,0.24-0.84,0.55-1.16,0.94 s-0.56,0.84-0.73,1.33C278.01,28.98,277.92,29.48,277.92,29.99z"/>
<path d="M291.03,29.92c0-0.6,0.1-1.19,0.31-1.79c0.21-0.59,0.52-1.12,0.92-1.59c0.4-0.47,0.9-0.85,1.48-1.14 c0.59-0.29,1.25-0.44,2-0.44c0.89,0,1.65,0.2,2.27,0.6s1.09,0.92,1.39,1.57l-0.77,0.48c-0.16-0.33-0.35-0.6-0.58-0.83 c-0.23-0.22-0.47-0.41-0.73-0.55c-0.26-0.14-0.53-0.24-0.81-0.3c-0.28-0.06-0.56-0.09-0.83-0.09c-0.6,0-1.13,0.12-1.58,0.36 c-0.46,0.24-0.84,0.56-1.15,0.95c-0.31,0.39-0.55,0.83-0.71,1.32c-0.16,0.49-0.24,0.99-0.24,1.49c0,0.55,0.1,1.08,0.29,1.58 c0.19,0.5,0.45,0.95,0.78,1.34c0.33,0.39,0.72,0.7,1.18,0.92c0.45,0.23,0.94,0.34,1.48,0.34c0.28,0,0.57-0.04,0.86-0.1 c0.29-0.07,0.58-0.18,0.85-0.34c0.28-0.15,0.53-0.35,0.76-0.57c0.23-0.23,0.43-0.51,0.59-0.83l0.81,0.42 c-0.16,0.37-0.38,0.7-0.67,0.99c-0.29,0.28-0.61,0.52-0.97,0.72c-0.35,0.2-0.73,0.35-1.13,0.45c-0.4,0.1-0.79,0.15-1.17,0.15 c-0.68,0-1.31-0.15-1.88-0.45c-0.57-0.3-1.06-0.69-1.47-1.17c-0.41-0.48-0.73-1.03-0.96-1.64 C291.14,31.18,291.03,30.56,291.03,29.92z"/>
<path d="M301.29,34.96v-9.94h4.2c0.43,0,0.82,0.09,1.18,0.27s0.67,0.42,0.93,0.71s0.46,0.63,0.61,1 c0.14,0.37,0.22,0.75,0.22,1.13c0,0.36-0.05,0.71-0.16,1.04c-0.11,0.33-0.26,0.63-0.45,0.9s-0.42,0.49-0.69,0.67 c-0.27,0.18-0.57,0.31-0.91,0.37l2.44,3.84h-1.11l-2.34-3.67h-2.94v3.67H301.29z M302.27,30.43h3.25c0.29,0,0.55-0.06,0.79-0.19 c0.24-0.13,0.44-0.3,0.61-0.51s0.3-0.46,0.39-0.73c0.09-0.27,0.14-0.56,0.14-0.85c0-0.3-0.05-0.59-0.16-0.86 c-0.11-0.27-0.25-0.52-0.43-0.72s-0.4-0.37-0.64-0.49c-0.25-0.12-0.51-0.18-0.78-0.18h-3.16V30.43z"/>
<path d="M317.11,34.09v0.87h-6.68v-9.94h6.55v0.87h-5.57v3.58h4.86v0.83h-4.86v3.79H317.11z"/>
<path d="M322.04,25.02h0.83l4.13,9.94h-1.04l-1.29-3.11h-4.47l-1.27,3.11h-1.05L322.04,25.02z M324.45,31.08 l-2-4.91l-2.03,4.91H324.45z"/>
<path d="M334.5,25.89h-3.54v9.07h-0.98v-9.07h-3.54v-0.87h8.06V25.89z"/>
<path d="M339.52,35.03c-0.69,0-1.32-0.14-1.9-0.43c-0.57-0.28-1.07-0.66-1.48-1.13c-0.41-0.47-0.73-1.01-0.95-1.62 c-0.22-0.61-0.34-1.23-0.34-1.86c0-0.66,0.12-1.3,0.36-1.9c0.24-0.61,0.57-1.14,0.99-1.61s0.91-0.84,1.48-1.11 c0.57-0.27,1.19-0.41,1.85-0.41c0.69,0,1.32,0.15,1.9,0.44c0.57,0.29,1.06,0.68,1.47,1.15c0.41,0.48,0.72,1.02,0.95,1.62 c0.22,0.6,0.34,1.22,0.34,1.84c0,0.66-0.12,1.3-0.36,1.9c-0.24,0.61-0.56,1.14-0.98,1.6c-0.42,0.46-0.91,0.83-1.48,1.11 C340.8,34.9,340.19,35.03,339.52,35.03z M335.84,29.99c0,0.54,0.09,1.06,0.27,1.56c0.18,0.5,0.43,0.94,0.76,1.33 c0.33,0.39,0.71,0.7,1.16,0.92c0.45,0.23,0.95,0.34,1.5,0.34c0.56,0,1.07-0.12,1.53-0.36s0.84-0.56,1.16-0.95 s0.56-0.84,0.73-1.33c0.17-0.49,0.26-1,0.26-1.51c0-0.54-0.09-1.06-0.27-1.56c-0.18-0.5-0.44-0.94-0.76-1.32 s-0.71-0.69-1.16-0.92c-0.45-0.23-0.94-0.34-1.48-0.34c-0.56,0-1.07,0.12-1.53,0.36c-0.46,0.24-0.84,0.55-1.16,0.94 s-0.56,0.84-0.73,1.33C335.93,28.98,335.84,29.48,335.84,29.99z"/>
<path d="M346.03,34.96v-9.94h4.2c0.43,0,0.82,0.09,1.18,0.27s0.67,0.42,0.93,0.71s0.46,0.63,0.61,1 c0.14,0.37,0.22,0.75,0.22,1.13c0,0.36-0.05,0.71-0.16,1.04c-0.11,0.33-0.26,0.63-0.45,0.9s-0.42,0.49-0.69,0.67 c-0.27,0.18-0.57,0.31-0.91,0.37l2.44,3.84h-1.11l-2.34-3.67h-2.94v3.67H346.03z M347.01,30.43h3.25c0.29,0,0.55-0.06,0.79-0.19 c0.24-0.13,0.44-0.3,0.61-0.51s0.3-0.46,0.39-0.73c0.09-0.27,0.14-0.56,0.14-0.85c0-0.3-0.05-0.59-0.16-0.86 c-0.11-0.27-0.25-0.52-0.43-0.72s-0.4-0.37-0.64-0.49c-0.25-0.12-0.51-0.18-0.78-0.18h-3.16V30.43z"/>
</g>
</svg><metadata><rdf:rdf xmlns:rdf="http://www.w3.org/1999/02/22-rdf-syntax-ns#" xmlns:rdfs="http://www.w3.org/2000/01/rdf-schema#" xmlns:dc="http://purl.org/dc/elements/1.1/"> <rdf:description> <dc:creator>MandoCreator</dc:creator> <dc:publisher>https://www.mandocreator.com</dc:publisher> <dc:description>Your Beskar'gam - created by MandoCreator</dc:description> <dc:format>image/svg+xml</dc:format> <dc:type>Image</dc:type> <dc:title>MandoCreator - Ner Berskar'gam</dc:title> <dc:date>2021-10-08T16:41:54.518Z</dc:date> </rdf:description> </rdf:rdf></metadata><svg version="1.1" id="Female" xmlns="http://www.w3.org/2000/svg" viewBox="0 -55 169 300" style="fill: white; fill-rule: evenodd; stroke: black; stroke-width: 0.2px; pointer-events: none; position: relative; height: 100%;">
<g id="Extras_Back">
<g id="Back"><g id="NO-CAPES_Back" class="option" style="display: inherit;">
</g>
</g>
</g>
<g id="Suit">
<g id="Neck-Seal">

<g id="Standard-Neck-Seal" class="option" style="fill: rgb(0, 0, 0); display: inherit;">
<path d="M95.2,8.5c0-0.9-0.7-1.7-1.6-1.7c0,0-6.1,0.9-9.1,0.9c-3,0-9.1-0.9-9.1-0.9c-0.9,0-1.6,0.7-1.6,1.7 c0,0.9,0.7,1.6,1.6,1.6c0,0,6.1,0.9,9.1,0.9c3,0,9.1-0.9,9.1-0.9C94.4,10.1,95.2,9.4,95.2,8.5z"/>
<path d="M95.7,10.4c0-1-0.8-1.7-1.7-1.7c0,0-6.4,0.9-9.5,0.9s-9.5-0.9-9.5-0.9c-0.9,0-1.7,0.8-1.7,1.7 c0,1,0.8,1.7,1.7,1.7c0,0,6.4,0.9,9.5,0.9s9.5-0.9,9.5-0.9C95,12.1,95.7,11.3,95.7,10.4z"/>
<path d="M96.3,12.8c0-1-0.8-1.8-1.8-1.8c0,0-6.7,1-10.1,1c-3.4,0-10.1-1-10.1-1c-1,0-1.8,0.8-1.8,1.8 s0.8,1.8,1.8,1.8c0,0,6.7,1,10.1,1c3.4,0,10.1-1,10.1-1C95.5,14.6,96.3,13.8,96.3,12.8z"/>
<path d="M96.9,15c0-1.1-0.8-1.9-1.9-1.9c0,0-7,1-10.6,1c-3.5,0-10.6-1-10.6-1c-1,0-1.9,0.9-1.9,1.9 c0,1.1,0.8,1.9,1.9,1.9c0,0,7,1,10.6,1c3.5,0,10.6-1,10.6-1C96.1,16.9,96.9,16,96.9,15z"/>
<path d="M97.5,17.1c0-0.8-0.9-1.5-2-1.5c0,0-7.4,0.8-11.1,0.8c-3.7,0-11.1-0.8-11.1-0.8c-1.1,0-2,0.6-2,1.5 c0,0.8,0.9,1.5,2,1.5c0,0,7.4,0.8,11.1,0.8c3.7,0,11.1-0.8,11.1-0.8C96.6,18.6,97.5,17.9,97.5,17.1z"/>
<path d="M97.5,19.6c0-0.8-0.9-1.5-2-1.5c0,0-7.4,0.8-11.1,0.8c-3.7,0-11.1-0.8-11.1-0.8c-1.1,0-2,0.6-2,1.5 c0,0.8,0.9,1.4,2,1.4c0,0,7.4,1.5,11.1,1.5c3.7,0,11.1-1.5,11.1-1.5C96.6,21,97.5,20.4,97.5,19.6z"/>
</g>
</g>
<g id="Flight-Suit" style="fill: rgb(68, 68, 68);">
<path d="M38.9,64l5.1-18.4l11.8-8l1.8,16.1c0,0-5.1,9.7-6.9,14.2c-1.8,4.6-5,15.1-5.4,16.5l-2.8,24.4l-8.1-2.6 c0,0-0.3-16.9,0.4-24C35.5,76,38.9,64,38.9,64z"/>
<path d="M130.1,64l-5.1-18.5l-11.7-7.9l-1.9,16.2c0,0,5.1,9.6,6.8,14.1c1.8,4.6,5,15.1,5.4,16.5l2.8,24.4l8.1-2.6 c0,0,0.3-16.9-0.4-24C133.5,76,130.1,64,130.1,64z"/>
<path d="M84.5,116.1c-1,0.1-1.9,0.5-2.2,1.2c-2.9,6.2-8.9,34.4-10.7,39.6c-0.9,2.8-1.7,18.3-3.3,27.3 c-1.9,10.8-8.2,37.3-8.2,37.3l-10.9-1.1c0,0-1.4-26.6-1-36.3c0.3-7.4,3.3-21.8,3.3-21.8s0.7-5.3,0.7-7.9c0.1-9.6,0.9-31,2.8-43.3 c1.5-9.7,10.6-30.1,10.6-30.1s11.9,4.7,18.8,4.7c7,0,18.9-4.8,18.9-4.8s8.6,20.5,10.1,30.2c1.9,12.3,3.2,33.7,3.2,43.3 c0,2.7,0.7,7.9,0.7,7.9s3,14.5,3.3,21.8c0.4,9.7-1,36.3-1,36.3l-10.9,1.1c0,0-6.3-26.5-8.2-37.3c-1.6-9-2.3-24.5-3.3-27.3 c-1.7-5.2-7.7-33.4-10.7-39.6C86.5,116.6,85.6,116.2,84.5,116.1L84.5,116.1z"/>
</g>
<g id="Sleeves" class="toggle" style="display: none; fill: rgb(255, 255, 255);"/>
</g>
<g id="Boots">

<g id="Gunslinger_Boots" class="option" style="display: inherit;">
<g id="Main_Gunslinger-Boot" style="fill: rgb(5, 21, 72);">
<path d="M62.4,227.8c0,0.2-0.6,3-3.8,3.8c-1,0.3-2.8-0.3-4-0.9c-1.5-0.8-3.2-1.4-4.8-1.9l0,0.1c0,0,0,0.1-0.1,0.1 c-0.5,0.7-1.1,1.4-1.7,2l0,0l0,0c-0.1,0.1-0.1,0.1-0.2,0.2c-0.4,0.3-0.7,0.7-1.1,1l-0.1,0.1l-0.1,0.1c0,0-0.1,0-0.1,0.1 c-0.1,0-0.1,0.1-0.2,0.1c-0.8,0.6-1.8,1.4-2.9,1.2c-1-0.1-2.1-0.5-2.9-0.9c-0.7-0.3-1.4-0.8-1.9-1.2c-0.1-0.1-0.3-0.2-0.3-0.4 c-2.3,0.9-4.7,1.2-5.9,3.8c-0.3,0.5-0.5,1.2-0.4,1.8c0.1,0.8,0.9,0.9,1.6,1.1c1.7,0.4,3.1,0.8,5.1,1.2c2.2,0.5,4.2,0.7,6.4,0.6 c1.7-0.1,3.1-0.2,4.5-1.1c0.6-0.4,1.2-0.7,1.7-1.2c1.1-1.1,1.9-2.2,3.3-2.8c1.1-0.5,2.2-0.9,3.3-1.1c1.6-0.4,3.3-0.7,4.1-2.3 C62.6,230.1,62.6,228.9,62.4,227.8L62.4,227.8"/>
<path d="M106.7,227.8c0,0.2,0.6,3,3.8,3.8c1,0.3,2.8-0.3,4-0.9c1.5-0.8,3.2-1.4,4.8-1.9l0,0.1c0,0,0,0.1,0.1,0.1 c0.5,0.7,1.1,1.4,1.7,2l0,0l0,0c0.1,0.1,0.1,0.1,0.2,0.2c0.4,0.3,0.7,0.7,1.1,1l0.1,0.1l0.1,0.1c0,0,0.1,0,0.1,0.1 c0.1,0,0.1,0.1,0.2,0.1c0.8,0.6,1.8,1.4,2.9,1.2c1-0.1,2.1-0.5,2.9-0.9c0.7-0.3,1.4-0.8,1.9-1.2c0.1-0.1,0.3-0.2,0.3-0.4 c2.3,0.9,4.7,1.2,5.9,3.8c0.3,0.5,0.5,1.2,0.4,1.8c-0.1,0.8-0.9,0.9-1.6,1.1c-1.7,0.4-3.1,0.8-5.1,1.2c-2.2,0.5-4.2,0.7-6.4,0.6 c-1.7-0.1-3.1-0.2-4.5-1.1c-0.6-0.4-1.2-0.7-1.7-1.2c-1.1-1.1-1.9-2.2-3.3-2.8c-1.1-0.5-2.2-0.9-3.3-1.1 c-1.6-0.4-3.3-0.7-4.1-2.3C106.4,230.1,106.5,228.9,106.7,227.8L106.7,227.8"/>
</g>
<g id="Bottom_Gunslinger-Boot" style="fill: rgb(64, 34, 7);">
<path d="M62.4,230c-0.1,0.4-0.2,0.9-0.5,1.3c-0.8,1.6-2.6,1.9-4.1,2.3c-1.1,0.3-2.2,0.7-3.3,1.1 c-1.5,0.6-2.2,1.7-3.3,2.8c-0.5,0.5-1.1,0.8-1.7,1.2c-1.5,0.9-2.9,1-4.5,1.1c-2.2,0.1-4.2-0.2-6.4-0.6c-1.9-0.4-3.4-0.7-5.1-1.2 c-0.5-0.1-1.2-0.2-1.5-0.7l0,0l-0.3,0.7l-0.2,1.5c0,0,1.8,1,3.7,1.4c1.9,0.4,5.8,1,5.8,1l0.3-0.6l0.9,0.2l0,0.6l2.1,0.1l0.4-0.6 l0.7,0l-0.1,0.5c0,0,1.3,0,2-0.4c0.1-0.2,0.4-0.5,0.4-0.5l0.5-0.3l-0.1,0.5l1.8-0.7l0.1-0.7l0.5-0.3l0,0.5l1.3-1l0.1-0.6l3.2-2.3 l0.5,1.2l2.3-0.5l0.1-0.5l0.6-0.2l0.4,0.4l1.5-0.6l0-0.5l0.5-0.2l0.1,0.3l1.4-1l0.3-2l0.1-2.2L62.4,230L62.4,230"/>
<path d="M106.6,230c0.1,0.4,0.2,0.9,0.5,1.3c0.8,1.6,2.6,1.9,4.1,2.3c1.1,0.3,2.2,0.7,3.3,1.1 c1.5,0.6,2.2,1.7,3.3,2.8c0.5,0.5,1.1,0.8,1.7,1.2c1.5,0.9,2.9,1,4.5,1.1c2.2,0.1,4.2-0.2,6.4-0.6c1.9-0.4,3.4-0.7,5.1-1.2 c0.5-0.1,1.2-0.2,1.5-0.7l0,0l0.3,0.7l0.2,1.5c0,0-1.8,1-3.7,1.4c-1.9,0.4-5.8,1-5.8,1l-0.3-0.6l-0.9,0.2l0,0.6l-2.1,0.1 l-0.4-0.6l-0.7,0l0.1,0.5c0,0-1.3,0-2-0.4c-0.1-0.2-0.4-0.5-0.4-0.5l-0.5-0.3l0.1,0.5l-1.8-0.7l-0.1-0.7l-0.5-0.3l0,0.5l-1.3-1 l-0.1-0.6l-3.2-2.3l-0.5,1.2l-2.3-0.5l-0.1-0.5l-0.6-0.2l-0.4,0.4l-1.5-0.6l0-0.5l-0.5-0.2l-0.1,0.3l-1.4-1l-0.3-2l-0.1-2.2 L106.6,230L106.6,230"/>
</g>
<g id="Top_Gunslinger-Boot" style="fill: rgb(5, 21, 72);">
<path d="M49.9,228.8c1.9-2.8,3.2-6.2,3.7-9.1l0,0l-0.5,0l0,0l-0.1,0l-0.2,0l-0.3,0l-0.1,0c-0.3,0-0.6-0.1-0.9-0.1 l-0.5-0.1l-0.1,0l0,0l-0.1,0l-0.3-0.1l-0.3-0.1l0,0c-1-0.3-0.9-0.5-0.9-0.5c-0.3,1.3-0.9,2.7-1.5,4c-0.9,1.9-2.7,3.6-4.1,5.1 c-1,1-2.5,2-3.7,2.8c-0.5,0.3-1.1,0.6-1.6,0.8c0.4,0.6,1.4,1.2,2.2,1.6c0.8,0.4,1.9,0.8,2.9,0.9c1,0.1,2.1-0.7,2.9-1.2 C47.6,231.6,48.8,230.3,49.9,228.8L49.9,228.8"/>
<path d="M119.2,228.8c-1.9-2.8-3.2-6.2-3.7-9.1l0,0l0.5,0l0,0l0.1,0l0.2,0l0.3,0l0.1,0c0.3,0,0.6-0.1,0.9-0.1 l0.5-0.1l0.1,0l0,0l0.1,0l0.3-0.1l0.3-0.1l0,0c1-0.3,0.9-0.5,0.9-0.5c0.3,1.3,0.9,2.7,1.5,4c0.9,1.9,2.7,3.6,4.1,5.1 c1,1,2.5,2,3.7,2.8c0.5,0.3,1.1,0.6,1.6,0.8c-0.4,0.6-1.4,1.2-2.2,1.6c-0.8,0.4-1.9,0.8-2.9,0.9c-1,0.1-2.1-0.7-2.9-1.2 C121.5,231.6,120.3,230.3,119.2,228.8L119.2,228.8"/>
</g>
<g id="Side_Gunslinger-Boot" style="fill: rgb(11, 96, 125);">
<path d="M49.8,228.9c1.7,0.5,3.3,1.1,4.8,1.9c1.1,0.6,2.9,1.1,4,0.9c3.2-0.8,3.8-3.8,3.8-3.8c-0.1-0.7-0.8-3.2-1-3.9 c-0.5-1.5-0.4-5.3-0.5-5.3c-2.6,1.4-6,1.1-7.3,1l0,0C53.1,222.7,51.8,226.1,49.8,228.9"/>
<path d="M119.2,228.9c-1.7,0.5-3.3,1.1-4.8,1.9c-1.1,0.6-2.9,1.1-4,0.9c-3.2-0.8-3.8-3.8-3.8-3.8 c0.1-0.7,0.8-3.2,1-3.9c0.5-1.5,0.4-5.3,0.5-5.3c2.6,1.4,6,1.1,7.3,1l0,0C116,222.7,117.3,226.1,119.2,228.9"/>
</g>
</g>

</g>
<g id="Gloves">
<g id="Left-Glove">
<g id="Fingerless_Left_Glove" class="option" style="display: inherit;">
<g id="Fingers_Fingerless_Left_Glove" style="fill: rgb(239, 169, 100);">
<path d="M131.4,123c-0.5,0-0.9,0-1.3,0.1c-0.3,0.1-0.6,0.2-0.9,0.3c-0.8,0.5-0.6,1.7,0.1,2.2c0.9,0.5,2.2,0,2.6-1 C132.1,124.2,131.6,123.4,131.4,123"/>
<path d="M129.9,124c-0.5,0-0.9,0-1.3,0.1c-0.3,0.1-0.6,0.2-0.9,0.3c-0.8,0.5-0.6,1.7,0.1,2.2c0.9,0.5,2.2,0,2.6-1 C130.6,125.2,130.1,124.4,129.9,124"/>
<path d="M128.8,125.4c-0.4,0-1,0.2-1.4,0.3c-0.3,0.1-0.6,0.2-0.8,0.5c-0.8,0.7-0.4,1.8,0.4,2.1 c0.9,0.4,2.2-0.3,2.5-1.4C129.5,126.5,128.8,125.4,128.8,125.4z"/>
<path d="M124.1,118.9c-0.3,1.3-0.5,2-0.5,2s-1.2,2.7-0.9,3.3c0.2,0.6,1.2,1.2,1.8,0.8c0.7-0.4,1.6-2.3,2.2-3.6 c0.2-0.5,0.4-1,0.6-1.6C125,120.2,124.1,118.9,124.1,118.9L124.1,118.9z"/>
<path d="M128.9,125.2c-0.2,0.3-0.4,0.7-0.6,1c-1.1,1.9-2.9,3.6-1.7,5.1c1.1,1.4,3.5-2.3,3.5-2.3l1.1-1.7 C129.4,126.9,128.9,125.2,128.9,125.2z"/>
</g>
<path id="Glove_Fingerless_Left_Glove" d="M131.3,127.4l1.3-1.9c0,0,2.8-5.1,2.9-6.1c0.1-0.8,0-3.3,0-3.3l-0.9-9.9 l-4.4,0.4l-3.6,1.3l-0.3,1.7c0,0-1.3,2-1.6,3.5c-0.2,1-0.1,3.5-0.4,5.2c0,0.2-0.1,0.4-0.1,0.6l0,0c0,0,0.8,1.3,3.1,0.9 c0.3-0.9,0.5-1.7,0.5-1.7s0.8,0.3,1.2,0.7c1.3,1.2,0.8,4.7,0.8,4.7s-0.3,0.7-0.8,1.7C128.9,125.2,129.4,126.9,131.3,127.4z" style="fill: rgb(19, 6, 61);"/>
</g>

</g>
<g id="Right-Glove">
<g id="Fingerless_Right_Glove" class="option" style="display: inherit;">
<g id="Fingers_Fingerless_Right_Glove" style="fill: rgb(239, 169, 100);">
<path d="M37.6,123c0.5,0,0.9,0,1.3,0.1c0.3,0.1,0.6,0.2,0.9,0.3c0.8,0.5,0.6,1.7-0.1,2.2c-0.9,0.5-2.2,0-2.6-1 C36.9,124.2,37.4,123.4,37.6,123"/>
<path d="M39.2,124c0.5,0,0.9,0,1.3,0.1c0.3,0.1,0.6,0.2,0.9,0.3c0.8,0.5,0.6,1.7-0.1,2.2c-0.9,0.5-2.2,0-2.6-1 C38.4,125.2,38.9,124.4,39.2,124"/>
<path d="M40.2,125.4c0.5,0,1,0.2,1.4,0.3c0.3,0.1,0.6,0.2,0.8,0.5c0.8,0.7,0.4,1.8-0.4,2.1 c-0.9,0.4-2.2-0.3-2.5-1.4C39.5,126.5,40.2,125.4,40.2,125.4z"/>
<path d="M44.9,118.9c0.3,1.3,0.5,2,0.5,2s1.1,2.7,0.9,3.3c-0.2,0.6-1.2,1.2-1.8,0.8c-0.7-0.4-1.6-2.3-2.2-3.6 c-0.2-0.5-0.4-1-0.6-1.6C44.1,120.2,44.9,118.9,44.9,118.9L44.9,118.9z"/>
<path d="M40.1,125.2c0.2,0.3,0.4,0.7,0.6,1c1.1,1.9,2.9,3.6,1.7,5.1c-1.1,1.4-3.5-2.3-3.5-2.3l-1.1-1.7 C39.7,126.9,40.1,125.2,40.1,125.2z"/>
</g>
<path id="Glove_Fingerless_Right_Glove" d="M37.8,127.4l-1.3-1.9c0,0-2.8-5.1-2.9-6.1c-0.1-0.8,0-3.3,0-3.3 l0.9-9.9l4.4,0.4l3.6,1.3l0.3,1.7c0,0,1.3,2,1.6,3.5c0.2,1,0.1,3.5,0.4,5.2c0,0.2,0.1,0.4,0.1,0.6l0,0c0,0-0.8,1.3-3.1,0.9 c-0.3-0.9-0.5-1.7-0.5-1.7s-0.8,0.3-1.2,0.7c-1.3,1.2-0.8,4.7-0.8,4.7s0.3,0.7,0.8,1.7C40.1,125.2,39.7,126.9,37.8,127.4z" style="fill: rgb(19, 6, 61);"/>
</g>

</g>
</g>
<g id="Biceps">
<g id="Left-Biceps">


<g id="None_Biceps_Left" class="option" style="display: inherit;">
</g>
</g>
<g id="Right-Biceps">


<g id="None_Biceps_Right" class="option" style="display: inherit;">
</g>
</g>
</g>
<path id="Vest" d="M90.9,86.3c-4.2,0.9-8.6,0.9-12.8,0c-4.2-0.9-12.5-5.2-12.5-5.2s-7.2-22.8-8.5-29.4 c-1-5.3-1.4-14.1-1.4-14.1L43.4,46l-2.6-1.1c0,0,7.4-16.4,12.3-21.1c4.4-4.3,17-7.3,17-7.3s5.5,6.1,14.6,6.1 c8.6,0,14.6-6.1,14.6-6.1s12.5,3.1,17,7.3c4.9,4.7,12.3,21.1,12.3,21.1l-2.6,1.1l-12.4-8.3c0,0-0.4,8.8-1.4,14.1 c-1.3,6.6-8.5,29.4-8.5,29.4S95.1,85.4,90.9,86.3z" style="fill: rgb(19, 6, 61);"/>
<g class="swappable" id="Chest">

<g id="Chest_Legacy" style="visibility: visible;">
<g id="Abdomen_Legacy">
<path id="Plate-4_Upper-Armor_Legacy" d="M93.9,69.9l-1.3-1.2l-8.1-1.2l-8.1,1.2l-1.3,1.2l-15.3-2.4l0.5,6.6 l24.3,3.8l24.2-3.8l0.5-6.6L93.9,69.9z" style="fill: rgb(5, 21, 72);"/>
<path id="Plate-3_Upper-Armor_Legacy" d="M94.2,63.9l-1.3-1.2l-8.4-1.2l-8.4,1.2l-1.3,1.2l-15.8-2.4l0.5,6.6 L84.6,72l25-3.8l0.5-6.6L94.2,63.9z" style="fill: rgb(5, 21, 72);"/>
<path id="Plate-2_Upper-Armor_Legacy" d="M94.5,57.8l-1.4-1.2l-8.7-1.2l-8.7,1.2l-1.4,1.2l-16.4-2.4l0.6,6.6 l25.9,3.8l25.8-3.8l0.6-6.6L94.5,57.8z" style="fill: rgb(5, 21, 72);"/>
<path id="Plate-1_Upper-Armor_Legacy" d="M95,51l-1.4-1.3l-9.1-1.3l-9.1,1.3L74,51H57l0.6,4.5l27,4l26.9-4L112,51 H95z" style="fill: rgb(5, 21, 72);"/>
<g id="Trauma-Plates_Abdomen_Legacy" class="toggle" style="">
<path id="Trauma-Plate-4_Abdomen_Legacy" class="toggle" d="M84.6,72l23.5-3.6l-0.4,4.5l-23.2,3.6l-23.2-3.6l-0.4-4.5 L84.6,72z" style="fill: rgb(11, 96, 125);"/>
<path id="Trauma-Plate-3_Abdomen_Legacy" class="toggle" d="M84.6,65.9l24.3-3.6l-0.4,4.9l-23.9,3.6l-24-3.6l-0.4-4.9 L84.6,65.9z" style="fill: rgb(11, 96, 125);"/>
<path id="Trauma-Plate-2_Abdomen_Legacy" class="toggle" d="M84.6,59.6l25.2-3.8l-0.5,5.5l-24.7,3.6l-24.8-3.6l-0.5-5.5 L84.6,59.6z" style="fill: rgb(11, 96, 125);"/>
<path id="Trauma-Plate-1_Abdomen_Legacy" class="toggle" d="M58.4,51.3h15.7l1.4-1.1l8.9-1.1l8.9,1.1l1.4,1.1h15.8 l-0.4,2.8l-25.7,3.8l-25.8-3.8L58.4,51.3z" style="fill: rgb(11, 96, 125);"/>
</g>
</g>
<g id="Chest-Plates_Legacy">
<g id="Left-Chest_Legacy">
<path id="Chest_Left_Legacy" d="M84.5,29.7v19.5l8.9,1.1l1.4,1.1H112l1.3-0.8l0.6-11.7l-4.4-12L84.5,29.7z" style="fill: rgb(5, 21, 72);"/>
<path id="Trauma-Plating_Left-Chest_Legacy" class="toggle" style="fill: rgb(11, 96, 125);" d="M108.4,29.1l3.4,9.9l-0.6,10.3l-15.7,0.1l-2.1-2.9H86 l2.5-2.3l0.2-10l-2.5-2.4L108.4,29.1z"/>
</g>
<g id="Right-Chest_Legacy">
<path id="Chest_Right_Legacy" d="M84.5,29.7v19.5l-8.9,1.1l-1.4,1.1H57l-1.3-0.8l-0.6-11.7l4.4-12L84.5,29.7z" style="fill: rgb(5, 21, 72);"/>
<path id="Trauma-Plating_Right-Chest_Legacy" class="toggle" style="fill: rgb(11, 96, 125);" d="M60.6,29.1L57.2,39l0.6,10.3l15.7,0.1l2.1-2.9H83 l-2.5-2.3l-0.2-10l2.5-2.4L60.6,29.1z"/>
</g>
</g>
<g id="Iron-Heart_Legacy">
<path id="Heart_Legacy" d="M82.1,42.8v-8.1l2.4-1.9l2.4,1.9v8.1l-2.4,2.4L82.1,42.8z" style="fill: rgb(19, 6, 61);"/>

<g id="None_Heart_Legacy" class="option" style="display: inherit;">
</g>
</g>
<g id="Neck-Armor_Legacy">
<path id="Neck-Plate_Legacy" d="M75,28.5l-15.5-1.8l1.2-8.6L71,15.1c0,0,1.4,2.3,2.3,3.1c1,0.8,2.3,1.8,3.6,2.3 c1.4,0.6,3.1,1,4.7,1.3c1.8,0.3,4.4,0.3,6.2,0c1.6-0.3,3.5-0.7,4.8-1.3c1.3-0.6,2.4-1.5,3.4-2.3c1-0.8,2.3-3.1,2.3-3.1l10.2,3.1 l0.8,8.6l-15.1,1.7l-9.9,1.2L75,28.5" style="fill: rgb(5, 21, 72);"/>
<path id="Trauma-Plates_Neck_Legacy" class="toggle" style="display: none; fill: rgb(255, 255, 255);" d="M86,23.7c0.8,0,1.5-0.1,2.1-0.2c1.7-0.3,3.8-0.7,5.3-1.4 c1.4-0.6,2.7-1.7,3.8-2.6c0.6-0.5,1.4-1.6,2-2.4l7.9,2.4l0.6,5.9l-13.4,1.5c0,0,0,0,0,0l-8.2,1V23.7z M83,27.8l-7.7-0.9 c0,0,0,0,0,0l-13.8-1.6l0.8-5.9l7.9-2.4c0.6,0.8,1.3,1.9,2,2.4c1.1,0.9,2.6,2,4,2.6c1.5,0.7,3.3,1.1,5.1,1.4 c0.5,0.1,1.1,0.1,1.7,0.2V27.8z"/>
</g>
</g>




</g>
<g id="Chest-Attachments">

<g id="Bandoleer_Accessories_Chest" class="option" style="display: inherit;">
<g id="Strap_Bandoleer_Accessories_Chest" style="fill: rgb(139, 87, 42);">
<path d="M112.6,19.9l-6.7-3.3l-37,67l6.7,3.7L112.6,19.9"/>
<path d="M110.8,18.7l-2.5-1.2l-8.4,15.3l2.4,1.3L110.8,18.7"/>
<path d="M98.8,40.7L96,39.2l-13,23.5l2.8,1.5L98.8,40.7"/>
<path d="M99.1,41.6l-4-2.2l-1.3,2.4l4,2.2L99.1,41.6"/>
<path d="M97.5,44.5l-4-2.2l-1.3,2.4l4,2.2L97.5,44.5"/>
<path d="M95.9,47.3l-4-2.2l-1.3,2.4l4,2.2L95.9,47.3"/>
<path d="M94.4,50.2l-4-2.2l-1.3,2.4l4,2.2L94.4,50.2"/>
<path d="M92.8,53l-4-2.2l-1.3,2.4l4,2.2L92.8,53"/>
<path d="M89.6,58.7l-4-2.2l-1.3,2.4l4,2.2L89.6,58.7"/>
<path d="M91.2,55.9l-4-2.2L86,56.1l4,2.2L91.2,55.9"/>
<path d="M88.1,61.6l-4-2.2l-1.3,2.4l4,2.2L88.1,61.6"/>
</g>
<g id="Ammo_Bandoleer_Accessories_Chest" style="fill: rgb(163, 163, 163);">
<g>
<g>
<path d="M98.9,41.9l1.6,0.9c0.2,0.1,0.2,0.3,0.1,0.5c-0.2,0.3-0.5,0.9-0.7,1.2c-0.1,0.2-0.3,0.2-0.5,0.1l-1.6-0.9 L98.9,41.9z"/>
<path d="M100.1,42.5l-0.1-0.1l-1,1.8l0.1,0.1L100.1,42.5z"/>
<path d="M99.9,42.4l-0.1-0.1l-1,1.8l0.1,0.1L99.9,42.4z"/>
</g>
<g>
<path d="M95,39.7l-1,1.8l-1.6-0.9c-0.2-0.1-0.2-0.3-0.1-0.5c0.2-0.3,0.5-0.9,0.7-1.2c0.1-0.2,0.3-0.2,0.5-0.1 L95,39.7z"/>
<path d="M93.8,39l-0.1-0.1l-1,1.8l0.1,0.1L93.8,39z"/>
</g>
</g>
<g>
<g>
<path d="M95.8,47.6l1.6,0.9c0.2,0.1,0.2,0.3,0.1,0.5c-0.2,0.3-0.5,0.9-0.7,1.2c-0.1,0.2-0.3,0.2-0.5,0.1l-1.6-0.9 L95.8,47.6z"/>
<path d="M97,48.3l-0.1-0.1l-1,1.8l0.1,0.1L97,48.3z"/>
<path d="M96.7,48.1L96.6,48l-1,1.8l0.1,0.1L96.7,48.1z"/>
</g>
<g>
<path d="M91.8,45.4l-1,1.8l-1.6-0.9C89,46.3,89,46,89.1,45.9c0.2-0.3,0.5-0.9,0.7-1.2c0.1-0.2,0.3-0.2,0.5-0.1 L91.8,45.4z"/>
<path d="M90.6,44.7l-0.1-0.1l-1,1.8l0.1,0.1L90.6,44.7z"/>
</g>
</g>
<g>
<g>
<path d="M94.2,50.4l1.6,0.9c0.2,0.1,0.2,0.3,0.1,0.5c-0.2,0.3-0.5,0.9-0.7,1.2c-0.1,0.2-0.3,0.2-0.5,0.1l-1.6-0.9 L94.2,50.4z"/>
<path d="M95.4,51.1L95.3,51l-1,1.8l0.1,0.1L95.4,51.1z"/>
<path d="M95.1,50.9L95,50.9l-1,1.8l0.1,0.1L95.1,50.9z"/>
</g>
<g>
<path d="M90.3,48.3l-1,1.8l-1.6-0.9c-0.2-0.1-0.2-0.3-0.1-0.5c0.2-0.3,0.5-0.9,0.7-1.2c0.1-0.2,0.3-0.2,0.5-0.1 L90.3,48.3z"/>
<path d="M89,47.6l-0.1-0.1l-1,1.8l0.1,0.1L89,47.6z"/>
</g>
</g>
<g>
<g>
<path d="M92.6,53.3l1.6,0.9c0.2,0.1,0.2,0.3,0.1,0.5c-0.2,0.3-0.5,0.9-0.7,1.2c-0.1,0.2-0.3,0.2-0.5,0.1l-1.6-0.9 L92.6,53.3z"/>
<path d="M93.8,54l-0.1-0.1l-1,1.8l0.1,0.1L93.8,54z"/>
<path d="M93.6,53.8l-0.1-0.1l-1,1.8l0.1,0.1L93.6,53.8z"/>
</g>
<g>
<path d="M88.7,51.1l-1,1.8l-1.6-0.9c-0.2-0.1-0.2-0.3-0.1-0.5c0.2-0.3,0.5-0.9,0.7-1.2c0.1-0.2,0.3-0.2,0.5-0.1 L88.7,51.1z"/>
<path d="M87.5,50.5l-0.1-0.1l-1,1.8l0.1,0.1L87.5,50.5z"/>
</g>
</g>
</g>
<g id="Buckles_Bandoleer_Accessories_Chest" style="fill: rgb(255, 215, 0);">
<g>
<path d="M103.4,32.5l-2.9-1.6l-1.6,3l2.9,1.6L103.4,32.5z"/>
<path d="M102.7,33l-2.2-1.2l-1.6,3L101,36L102.7,33z"/>
</g>
<path d="M103.4,29l-1.9-1l1.6-3l3.8,2.1l-1.6,3L103.4,29l0.4-0.7l1.1,0.6l0.9-1.6l-2.1-1.2l-0.9,1.6l1,0.6"/>
</g>
</g>

</g>
<g id="Collar">


<g id="Cloth-Wrap-Right_Collar" class="option" style="display: inherit;">
<g id="Main_Cloth-Wrap-Right_Collar" style="fill: rgb(89, 10, 10);">
<path d="M94.6,26c4.5-1.4,5.3-3.7,5.6-6c0.1-0.9-1.2-3.4,0.2-4c1.6-0.7,5.3,0.4,6.8,0.7c1.1,0.2,2.1,1.4,3.3,1.4 c2.7,0,4.8,2.9,5,4.3c0.3,1.9-3,0.5-4.5,2c-3.9,3.5-5.2,8.3-13.3,9.6c-3.7,0.6-7.4-0.2-10.9-1c-8.9-2-13.8-3.7-19.5-8.1 c-2.5-1.9-6.3-3.5-6.2-6.1c0-0.1,1.8-1.2,2-1.2c1.6-0.4,3-1.1,4.7-1.1c1.1,0,0.9,0.9,1,1.3c0.3,1.6,1.7,2.8,3.6,4 C77.2,24.8,88.1,25.8,94.6,26z"/>
<path d="M94.6,26c1.2,0,2.2,0.2,3.2,0.3c4.1,0.3,5.6-0.8,6.4-2.6"/>
<path d="M107.5,16.8c1.2,2,1,4.3,0.1,5.8"/>
<path d="M72.8,22.4c3.1,4.2,7.7,5.6,12.7,6.1"/>
<path d="M64.3,17.2c0.2,1.1,0.8,1.5,1.6,2.2c0.5,0.4,1,0.7,1.4,1.2c0.1,0.2,0.2,0.4,0.3,0.6"/>
</g>
<path id="Buckle_Cloth-Wrap-Right_Collar" d="M73.8,21.6l-2.6-1.9l-4.6,6.4l2.6,1.9L73.8,21.6z" style="fill: rgb(255, 215, 0);"/>
</g>

</g>
<svg version="1.1" id="Helmets" xmlns="http://www.w3.org/2000/svg" y="-54px" height="85px" viewBox="0 0 80 80" class="swappable">




















<g id="Helmet_Ramikadyc" style="visibility: visible;">
<g id="Left-Earcap_Ramikadyc" class="toggle">




<path id="Ear-Cap_Left_Ramikadyc" d="M56,35.7l2.7,1c0,0,0.7,3.4,0.8,6.3s-0.8,6.2-0.8,6.2L57,49.9V38L56,35.7z" style="fill: rgb(11, 96, 125);"/>
</g>
<g id="Right-Earcap_Ramikadyc" class="toggle">
<g id="Sub-Antenna_Right_Ramikadyc" class="option" style="display: inherit;">
<g id="Shaft_Sub-Antenna_Right_Ramikadyc" style="fill: rgb(8, 203, 51);">
<path d="M22.3,34.9l0.2-21.4H23l0.2,21.4H22.3z"/>
<path d="M22.2,15.4l0.2-1.3H23l0.2,1.3H22.2z"/>
</g>
<g id="Base_Sub-Antenna_Right_Ramikadyc" style="fill: rgb(5, 21, 72);">
<path d="M24,34.9h-2.7c0,0-0.6,7.1,1.3,7.1S24,34.9,24,34.9z"/>
<path d="M21.9,34.9l0.3-0.6H23l0.3,0.6H21.9z"/>
</g>
</g>



<path id="Ear-Cap_Right_Ramikadyc" d="M24,35.7l-2.7,1c0,0-0.7,3.4-0.8,6.3s0.8,6.2,0.8,6.2L23,50V38L24,35.7z" style="fill: rgb(11, 96, 125);"/>
</g>
<g id="Helmet_Pieces_Ramikadyc">
<g id="Mouth_Ramikadyc" style="fill: rgb(5, 21, 72);">
<path d="M36.8,67.3c0,0,0.1-2.7-0.2-4.1c-0.3-1.3-0.7-2.9-0.7-2.9l3.9-1.6h0.1l3.9,1.6c0,0-0.4,1.5-0.7,2.9 c-0.3,1.3-0.2,4.1-0.2,4.1H36.8z"/>
<path d="M39.9,58.7v6.4"/>
<path d="M36.8,67.3v-0.9l3-1.2l3,1.2v0.9H36.8z"/>
</g>
<g id="Face_Ramikadyc" style="fill: rgb(5, 21, 72);">
<path d="M43.8,60.4H44c4.3-4.7,7.1-9.3,8.2-13.7l4.2-3.7l0.6-1.3v10.5c0,0-3.1,6.6-6.5,9.8c-2.1,2-7.5,5.3-7.5,5.3 s-0.1-2.7,0.2-4.1C43.4,61.9,43.8,60.4,43.8,60.4z"/>
<path d="M36,60.4h-0.2c-4.3-4.7-7.1-9.3-8.2-13.7L23.3,43l-0.6-1.3v10.5c0,0,3.1,6.6,6.5,9.8 c2.2,2.1,7.5,5.4,7.5,5.4h0.1c0,0,0.1-2.7-0.2-4.1C36.4,61.9,36,60.4,36,60.4z"/>
</g>
<g id="Cheeks-2_Ramikadyc" style="fill: rgb(5, 21, 72);">
<path d="M25.4,49l7.9,9.5c0,0,1.4,1.9,1,4C34,64.7,33,64.8,33,64.8l-2.1-0.7L23,55.2c0,0-1.1-1.1-1-3.4 c0.1-1.1,2.1-3,2.1-3S24.8,48.4,25.4,49z"/>
<path d="M22.1,51.4c0,0,0.4-0.9,0.9-0.9c0.5,0.1,4.1,4.2,4.1,4.2s4.3,4.6,4.5,5c0.7,1.2,0.6,2.5,0.5,3 c-0.3,1.1-1.2,1.3-1.2,1.3L23,55.2C23,55.2,21.6,53.5,22.1,51.4z"/>
<path d="M22.3,51.7c0.1-0.4,0.3-0.8,0.6-0.9c0.4-0.1,3.5,3.6,3.5,3.6s3.5,3.8,3.7,4.1c0.6,1,0.5,2.1,0.4,2.5 c-0.2,0.9-1,1.1-1,1.1L23,54.7C23,54.7,22,53.1,22.3,51.7z"/>
<path d="M54.6,49l-7.9,9.5c0,0-1.4,1.9-1,4c0.3,2.1,1.4,2.3,1.4,2.3l2.1-0.7l7.9-8.9c0,0,1.1-1.1,1-3.4 c-0.1-1.1-2.1-3-2.1-3S55.2,48.4,54.6,49z"/>
<path d="M57.9,51.4c0,0-0.4-0.9-0.9-0.9c-0.5,0.1-4.1,4.2-4.1,4.2s-4.3,4.6-4.5,5c-0.7,1.2-0.6,2.5-0.5,3 c0.3,1.1,1.2,1.3,1.2,1.3l7.9-8.9C57,55.2,58.4,53.5,57.9,51.4z"/>
<path d="M57.7,51.7c-0.1-0.4-0.3-0.8-0.6-0.9c-0.4-0.1-3.5,3.6-3.5,3.6s-3.5,3.8-3.7,4.1c-0.6,1-0.5,2.1-0.4,2.5 c0.2,0.9,1,1.1,1,1.1l6.5-7.5C57,54.7,58,53.1,57.7,51.7z"/>
</g>
<g id="Cheeks-1_Ramikadyc" style="fill: rgb(11, 96, 125);">
<path d="M28.1,58.6c0.8-0.3,1.9,0.7,2.5,2.2s0.4,2.9-0.4,3.2c-0.8,0.3-1.9-0.7-2.5-2.2 C27.1,60.2,27.3,58.8,28.1,58.6z"/>
<path d="M28.2,59c0.6-0.2,1.6,0.6,2.1,1.9c0.5,1.3,0.4,2.5-0.3,2.7c-0.6,0.2-1.6-0.6-2.1-1.9S27.5,59.2,28.2,59z"/>
<path d="M28.5,60c0.4-0.1,0.9,0.3,1.1,1.1c0.3,0.7,0.2,1.4-0.1,1.5c-0.4,0.1-0.9-0.3-1.1-1.1 C28.1,60.8,28.1,60.1,28.5,60z"/>
<path d="M28.6,60.4c0.2-0.1,0.6,0.2,0.8,0.7c0.2,0.5,0.1,0.9-0.1,1c-0.2,0.1-0.6-0.2-0.8-0.7 C28.3,61,28.4,60.5,28.6,60.4z"/>
<path d="M30.1,58c0.9,1,1.4,1.6,1.5,1.7c0.7,1.2,0.6,2.5,0.5,3c-0.2,0.6-0.6,1.2-1.2,1.3L30,63.9 c0.2,0,0.4-0.1,0.5-0.3c0.5-0.5,0.6-1.7,0.1-3c-0.6-1.5-1.7-2.4-2.5-2.2L30.1,58z"/>
<path d="M51.9,58.6c-0.8-0.3-1.9,0.7-2.5,2.2c-0.6,1.5-0.4,2.9,0.4,3.2c0.8,0.3,1.9-0.7,2.5-2.2 C52.9,60.2,52.7,58.8,51.9,58.6z"/>
<path d="M51.8,59c-0.6-0.2-1.6,0.6-2.1,1.9c-0.5,1.3-0.4,2.5,0.3,2.7c0.6,0.2,1.6-0.6,2.1-1.9S52.5,59.2,51.8,59z"/>
<path d="M51.5,60c-0.4-0.1-0.9,0.3-1.1,1.1c-0.3,0.7-0.2,1.4,0.1,1.5c0.4,0.1,0.9-0.3,1.1-1.1 C51.9,60.8,51.9,60.1,51.5,60z"/>
<path d="M51.4,60.4c-0.2-0.1-0.6,0.2-0.8,0.7c-0.2,0.5-0.1,0.9,0.1,1c0.2,0.1,0.6-0.2,0.8-0.7 C51.7,61,51.6,60.5,51.4,60.4z"/>
<path d="M49.9,58c-0.9,1-1.4,1.6-1.5,1.7c-0.7,1.2-0.6,2.5-0.5,3c0.2,0.6,0.6,1.2,1.2,1.3l0.9-0.1 c-0.2,0-0.4-0.1-0.5-0.3c-0.5-0.5-0.6-1.7-0.1-3c0.6-1.5,1.7-2.4,2.5-2.2L49.9,58z"/>
</g>
<path id="Visor_Ramikadyc" d="M39.7,58.1v-0.9l-1.5-3L38,45.5l-3.1-1.3l-1.2,0.5l-8.3-4.6L24,35.3 c5,2.9,15.9,6.8,15.9,6.8s11-3.9,15.9-6.8l-1.2,4.8l-8.3,4.6L45,44.1l-3.1,1.3l-0.2,8.7l-1.5,3V58l3.9,2.3h-0.2L40,58.7l-4,1.7 h-0.2L39.7,58.1z" style="fill: rgb(8, 203, 51);"/>
<g id="Eyes_Ramikadyc" style="fill: rgb(11, 96, 125);">
<path d="M55.9,35.3L57,38l0.1,3.7L56.5,43l-4.2,3.7c-1.1,4.4-4,9-8.2,13.7L40.2,58v-0.8l1.5-3l0.2-8.7l3.1-1.3 l1.2,0.5l8.3-4.6L55.9,35.3z"/>
<path d="M23.9,35.3L22.8,38l-0.1,3.7l0.6,1.3l4.2,3.7c1.1,4.4,4,9,8.2,13.7l3.8-2.3v-0.8l-1.5-3l-0.2-8.7l-3.1-1.3 l-1.2,0.5l-8.3-4.6L23.9,35.3z"/>
</g>
<g id="Dome-2_Ramikadyc" style="fill: rgb(11, 96, 125);">
<path d="M44.2,40.5L42,38.6l-0.3-2.8l2.9-2.6l2.8-9.5h1.8l0.5-2.8l-1.4-1l0.5-1.2c0,0,5.5,4.2,6.1,5.2 c0.5,1,0.9,10.9,0.8,11.4c0,0,0,0.1-0.1,0.2C52.6,37.1,47.7,39.1,44.2,40.5z"/>
<path d="M24.3,35.5c0-0.1-0.1-0.1-0.1-0.2c-0.1-0.5,0.3-10.4,0.8-11.4s6.1-5.2,6.1-5.2l0.5,1.2l-1.4,1l0.5,2.8h1.8 l2.8,9.5l2.9,2.6l-0.3,2.8l-2.2,1.9C32.1,39.2,27.3,37.2,24.3,35.5z"/>
</g>
<g id="Dome-1_Ramikadyc" style="fill: rgb(5, 21, 72);">
<path d="M24.9,24c-0.5,1.4-0.8,10.8-0.7,11.3c0,0,0,0.1,0.1,0.2c0.1,0-1.4,0.6-1.4,0.6C23.2,30.9,23.6,26,24.9,24z"/>
<path d="M54.9,24c0.5,1.4,0.8,10.8,0.7,11.3c0,0,0,0.1-0.1,0.2c-0.1,0,1.4,0.6,1.4,0.6C56.6,30.9,56.2,26,54.9,24z"/>
<path d="M35.6,40.5l2.2-1.9l0.3-2.8l-2.9-2.6l-2.8-9.5h-1.8L30.1,21l1.4-1L31,18.8c3.7-1.8,8.1-2.1,8.8-2.1h0.1 c0.7,0,5.1,0.3,8.8,2.1L48.3,20l1.4,1l-0.5,2.8h-1.8l-2.8,9.5l-2.9,2.6l0.3,2.8l2.2,1.9c-1.2,0.4-2.2,0.7-3,1L40,42h-0.2 l-1.3-0.4C37.8,41.3,36.8,41,35.6,40.5z"/>
</g>
</g>
</g>











</svg>
<g id="Shoulders">
<g id="Left-Shoulder">






<g id="Legacy-x2_Shoulder_Left" class="option" style="display: inherit;">
<path id="Plate-2_Shoulder_Left_Legacy-x2" d="M111.7,20l-5.9,8.8l6,8.4l9.5-2.3l6,3.7l4.5-1.2L111.7,20z" style="fill: rgb(15, 168, 220);"/>
<path id="Trauma-Plate-2_Shoulder_Legacy-x2_Left" class="toggle" style="display: none; fill: rgb(255, 255, 255);" d="M127.6,36.8l2.9-0.8l-17.3-15.1l-5.2,7.9l4.6,6.5 l8.7-2.2L127.6,36.8z"/>
<path id="Plate-1_Shoulder_Left_Legacy-x2" d="M104.5,15.5l-2.6,10.3l8.4,6l8.2-5.3l6.8,1.5l3.8-2.6L104.5,15.5z" style="fill: rgb(14, 118, 153);"/>
<path id="Trauma-Plate-1_Shoulder_Legacy-x2_Left" class="toggle" style="display: none; fill: rgb(255, 255, 255);" d="M125,26.1l2.5-1.7l-21.3-8.6l-2.4,9.2l6.5,4.6 l7.5-5L125,26.1z"/>
</g>

</g>
<g id="Right-Shoulder">





<g id="Legacy-x3_Shoulder_Right" class="option" style="display: inherit;">
<path id="Plate-3_Shoulder_Right_Legacy-x3" d="M53.4,24.7l7.4,7.6l-4.3,9.4l-9.8-0.5l-5.2,4.7l-4.6-0.3L53.4,24.7 z" style="fill: rgb(0, 190, 255);"/>
<path id="Trauma-Plate-3_Shoulder_Legacy-x3_Right" class="toggle" style="display: none; fill: rgb(255, 255, 255);" d="M40.9,44.2l-3-0.2l14.2-18.1l6.6,6.8l-3.4,7.3 l-9-0.6L40.9,44.2z"/>
<path id="Plate-2_Shoulder_Right_Legacy-x3" d="M57.4,20l5.9,8.8l-6,8.4L47.7,35l-6,3.7l-4.5-1.2L57.4,20z" style="fill: rgb(11, 141, 185);"/>
<path id="Trauma-Plate-2_Shoulder_Legacy-x3_Right" class="toggle" style="display: none; fill: rgb(255, 255, 255);" d="M41.5,36.8l-2.9-0.8l17.3-15.1l5.2,7.9l-4.6,6.5 l-8.7-2.2L41.5,36.8z"/>
<path id="Plate-1_Shoulder_Right_Legacy-x3" d="M64.6,15.5l2.6,10.3l-8.5,6l-8.2-5.3L43.7,28l-3.8-2.6L64.6,15.5z" style="fill: rgb(11, 96, 125);"/>
<path id="Trauma-Plate-1_Shoulder_Legacy-x3_Right" class="toggle" style="display: none; fill: rgb(255, 255, 255);" d="M44.1,26.1l-2.5-1.7l21.3-8.6l2.4,9.2l-6.5,4.6 l-7.5-5L44.1,26.1z"/>
</g>


</g>
</g>
<g id="Gauntlets">
<g id="Left-Gauntlets">


<g id="Gunslinger_Gauntlet_Left" class="option" style="display: inherit;">
<g id="Accent-Top_Gunslinger_Gauntlet_Left" style="fill: rgb(255, 0, 0);">
<path d="M134.9,82.1l0.2,5.7l-2.9,0.6l-0.2-5.5L134.9,82.1z"/>
<path d="M131.8,103.1l0.3,3l-2.6,0.3l-0.4-3L131.8,103.1z"/>
</g>
<path id="Top_Gunslinger_Gauntlet_Left" d="M134.9,82.1l1.3-0.4l0.1,26.9l-6.4,0.8l-0.5-4.2l0.1,1.2l2.6-0.3 l-0.3-3l-2.6,0.3l-2.3-19L134.9,82.1l-3,0.9l0.2,5.5l2.9-0.6L134.9,82.1z" style="fill: rgb(11, 96, 125);"/>
<g id="Accent-Bottom_Gunslinger_Gauntlet_Left" style="fill: rgb(5, 21, 72);">
<path d="M122.5,92.8l-0.6-2.4l-1.7,0.4l0.6,2.4L122.5,92.8z"/>
<path d="M123.2,95.5l-0.6-2.4l-1.7,0.4l0.6,2.4L123.2,95.5z"/>
<path d="M129.2,103.5l-5.7,0.8l0.7,2.9l5.4-0.7L129.2,103.5z"/>
</g>
<path id="Bottom_Gunslinger_Gauntlet_Left" d="M129.5,106l-0.3-2.5l-5.7,0.8l0.7,2.9l5.4-0.7l0.4,3 c0,0-2,0.2-3.5,0.3c-0.9,0.1-1.8-0.5-2-1.5c-1.2-5-4.7-20.2-4.7-20.2l7.3-3.3L129.5,106z M123.2,95.5l-0.6-2.4l-1.7,0.4l0.6,2.4 L123.2,95.5z M122.5,92.8l-0.6-2.4l-1.7,0.4l0.6,2.4L122.5,92.8z" style="fill: rgb(11, 96, 125);"/>



<g id="No-Device_Attachment_Gunslinger_Gauntlet_Left" class="option" style="display: inherit;">
</g>
</g>

</g>
<g id="Right-Gauntlets">


<g id="Gunslinger_Gauntlet_Right" class="option" style="display: inherit;">
<g id="Accent-Top_Gunslinger_Gauntlet_Right" style="fill: rgb(8, 203, 51);">
<path d="M34,82.1l-0.2,5.7l2.9,0.6L37,83L34,82.1z"/>
<path d="M37.1,103.1l-0.3,3l2.6,0.3l0.4-3L37.1,103.1z"/>
</g>
<path id="Top_Gunslinger_Gauntlet_Right" d="M34,82.1l-1.3-0.4l-0.1,26.9l6.4,0.8l0.5-4.2l-0.1,1.2l-2.6-0.3l0.3-3 l2.6,0.3l2.3-19L34,82.1l3,0.9l-0.2,5.5l-2.9-0.6L34,82.1z" style="fill: rgb(11, 96, 125);"/>
<g id="Accent-Bottom_Gunslinger_Gauntlet_Right" style="fill: rgb(5, 21, 72);">
<path d="M46.4,92.8l0.6-2.4l1.7,0.4l-0.6,2.4L46.4,92.8z"/>
<path d="M45.8,95.5l0.6-2.4l1.7,0.4l-0.6,2.4L45.8,95.5z"/>
<path d="M39.7,103.5l5.7,0.8l-0.7,2.9l-5.4-0.7L39.7,103.5z"/>
</g>
<path id="Bottom_Gunslinger_Gauntlet_Right" d="M39.4,106l0.3-2.5l5.7,0.8l-0.7,2.9l-5.4-0.7l-0.4,3 c0,0,2,0.2,3.5,0.3c0.9,0.1,1.8-0.5,2-1.5c1.2-5,4.7-20.2,4.7-20.2L42,84.8L39.4,106z M45.8,95.5l0.6-2.4l1.7,0.4l-0.6,2.4 L45.8,95.5z M46.4,92.8l0.6-2.4l1.7,0.4l-0.6,2.4L46.4,92.8z" style="fill: rgb(11, 96, 125);"/>

<g id="Flamethrower_Attachment_Gunslinger_Gauntlet_Right" class="option" style="display: inherit;">
<g id="Tubes_Flamethrower_Attachment_Gunslinger_Gauntlet_Right" style="fill: rgb(255, 255, 0);">
<path d="M31.2,83.4l0.8,0l0,25.7l-0.8,0L31.2,83.4z"/>
<path d="M29.3,83.4h0.8l0,18.4l-0.8,0L29.3,83.4z"/>
<path d="M31.1,85l1.2,0l0,6.1l-1.2,0L31.1,85z"/>
<path d="M29.1,85l1.2,0l0,6.1l-1.2,0L29.1,85z"/>
</g>
<g id="Main_Flamethrower_Attachment_Gunslinger_Gauntlet_Right" style="fill: rgb(163, 163, 163);">
<path d="M28.9,83.4l3.5,0l0,1.6l-3.5,0L28.9,83.4z"/>
<path d="M28.8,91.2l3.6,0v1l-3.6,0V91.2z"/>
<path d="M29,92.1l3.3,0l0,0.5l-3.3,0V92.1z"/>
<path d="M32.1,90.6l0.6,0l0,3l-0.6,0L32.1,90.6z"/>
</g>
<g id="Accent_Flamethrower_Attachment_Gunslinger_Gauntlet_Right" style="fill: rgb(8, 203, 51);">
<path d="M29.2,101.8l0.9,0l0.1,1.3l-1.2,0L29.2,101.8z"/>
<path d="M28.9,95.3l1.6,0l0,1.9l-1.6,0L28.9,95.3z"/>
<path d="M29.1,97.2l1.2,0l0,1.9l-1.2,0L29.1,97.2z"/>
<path d="M31,105.9l1.2,0l0,2.7l-1.2,0L31,105.9z"/>
<path d="M31,97.2l1.2,0l0,3.6l-1.2,0L31,97.2z"/>
<path d="M30.8,107.2l1.6,0l0,0.5l-1.6,0V107.2z"/>
</g>
<path id="Base_Flamethrower_Attachment_Gunslinger_Gauntlet_Right" d="M32.7,90.6l0-8.1l-1,0.4l0,13.7l1,0.4 l0-3.4l-0.6,0l0-3L32.7,90.6z" style="fill: rgb(11, 96, 125);"/>
</g>


</g>

</g>
</g>
<g id="Shins">
<g id="Left-Shin">




<g id="Basic-Shnees_Shin_Left" class="option" style="display: inherit;">
<path id="Shin_Basic-Shnees-Shin_Left" d="M100.9,162c-0.1-2.2,1.5-4.1,3.7-4.3c2.7-0.2,6.3-0.5,9-0.7 c2.2-0.2,4.1,1.4,4.4,3.5c0.7,4.7,1.9,12.2,3.1,12.1l2.9,47l-10.1,0.8l-3.3,3.4l-4.6-1.2l-7.4-48.2 C101.1,174.3,101.2,166.8,100.9,162z" style="fill: rgb(11, 96, 125);"/>
<g id="Straps_Basic-Shnees-Shin_Left" class="toggle" style="fill: rgb(139, 87, 42);">
<path d="M99.4,181.8l5.2-0.6l0.4,2.4l-5.2,0.6L99.4,181.8"/>
<path d="M99.7,181.6l1.1-0.1l0.5,2.9l-1.1,0.1L99.7,181.6"/>
<path d="M103,205.1l5.2-0.6l0.4,2.4l-5.2,0.6L103,205.1"/>
<path d="M103.3,204.8l1.1-0.1l0.5,2.9l-1.1,0.1L103.3,204.8"/>
</g>
<g id="Accent_Basic-Shnees-Shin_Left" class="toggle" style="display: none; fill: rgb(255, 255, 255);"/>
</g>




</g>
<g id="Right-Shin">




<g id="Basic-Shnees_Shin_Right" class="option" style="display: inherit;">
<path id="Shin_Basic-Shnees-Shin_Right" d="M68.2,162c0.1-2.2-1.5-4.1-3.7-4.3c-2.7-0.2-6.3-0.5-9-0.8 c-2.2-0.2-4.1,1.3-4.4,3.5c-0.7,4.7-1.9,12.2-3.1,12.1l-2.9,47l10.1,0.8l3.3,3.4l4.6-1.2l7.5-48.2 C67.9,174.3,67.9,166.8,68.2,162" style="fill: rgb(11, 96, 125);"/>
<g id="Straps_Basic-Shnees-Shin_Right" class="toggle" style="fill: rgb(139, 87, 42);">
<path d="M69.7,181.8l-5.2-0.6l-0.4,2.4l5.2,0.6L69.7,181.8"/>
<path d="M69.3,181.6l-1.1-0.1l-0.5,2.9l1.1,0.1L69.3,181.6"/>
<path d="M66,205.1l-5.2-0.6l-0.4,2.4l5.2,0.6L66,205.1"/>
<path d="M65.7,204.9l-1.1-0.1l-0.5,2.9l1.1,0.1L65.7,204.9"/>
</g>
<g id="Accent_Basic-Shnees-Shin_Right" class="toggle" style="display: none; fill: rgb(255, 255, 255);"/>
</g>




</g>
</g>
<g id="Foot">
<g id="Left-Ankle">
<g id="None_Ankle_Left" class="option" style="display: inherit;">
</g>



</g>
<g id="Left-Toe">


<g id="None_Toe_Left" class="option" style="display: inherit;">
</g>
</g>
<g id="Right-Ankle">
<g id="None_Ankle_Right" class="option" style="display: inherit;">
</g>



</g>
<g id="Right-Toe">


<g id="None_Toe_Right" class="option" style="display: inherit;">
</g>
</g>
</g>
<g id="Knees">
<g id="Left-Knee">
<g id="None-(Nih-Plates)_Knee_Left" class="option" style="display: inherit;">
</g>





</g>
<g id="Right-Knee">
<g id="None-(Nih-Plates)_Knee_Right" class="option" style="display: inherit;">
</g>





</g>
</g>
<g id="Thighs">
<g id="Left-Thigh">



<g id="Legacy_Thigh_Left" class="option" style="display: inherit;">
<path id="Plate-3_Legacy-Thigh_Left" d="M95.6,142.1l1.8,10.8l10.4,1.6l8.4-3.7l0.4-11l-9.6,4.5L95.6,142.1" style="fill: rgb(11, 96, 125);"/>
<path id="Plate-2_Legacy-Thigh_Left" d="M93.2,131.7L95,142l12.1,2.3l10.1-4.8l0.5-12.5l-11.5,7.3L93.2,131.7" style="fill: rgb(11, 96, 125);"/>
<path id="Plate-1_Legacy-Thigh_Left" d="M118.8,116.8l-8.9-7.8L98,111l-6.8,11.3l1.7,9.4l13.4,2.7l12-7.7 L118.8,116.8" style="fill: rgb(11, 96, 125);"/>
<path id="Trauma-Plate-3_Legacy-Thigh_Left" class="toggle" style="display: none; fill: rgb(255, 255, 255);" d="M114.7,143.2l-6.8,3.2c-0.3,0.2-0.7,0.2-1,0.1l-8.8-1.7 l1,6.1l8.6,1.3l6.8-3L114.7,143.2"/>
<path id="Trauma-Plate-2_Legacy-Thigh_Left" class="toggle" style="display: none; fill: rgb(255, 255, 255);" d="M115.7,130.9l-8.5,5.4c-0.4,0.2-0.8,0.3-1.2,0.2 l-10.3-2.1l1,5.6l10.2,2l8.5-4L115.7,130.9"/>
<path id="Trauma-Plate-1_Legacy-Thigh_Left" class="toggle" style="display: none; fill: rgb(255, 255, 255);" d="M99.1,113.1l-5.9,9.7l1.3,6.9l11.5,2.3l10.5-6.7l0.4-7.5 l-7.5-6.5L99.1,113.1"/>
<g id="Ridge_Legacy-Thigh_Left" class="toggle" style="fill: rgb(5, 21, 72);">
<path d="M109.1,132.6l0.5,10.6l-2.5,1.2l-3.2-0.6l-1.4-10.1l3.8,0.8L109.1,132.6"/>
<path d="M109.6,143.2l0.7,10.3l-2.4,1l-2.7-0.4l-1.2-10.4l3.2,0.6L109.6,143.2"/>
<path d="M102.5,133.6l-2.9-22.9l4.1-2.1l4.3,0.7l1.1,23.2l-2.8,1.8L102.5,133.6"/>
<path d="M103.6,108.6l2.6,25.7"/>
<path d="M106.3,134.4l0.8,10"/>
<path d="M107.1,144.3l0.8,10.2"/>
</g>
</g>

</g>
<g id="Right-Thigh">



<g id="Legacy_Thigh_Right" class="option" style="display: inherit;">
<path id="Plate-3_Legacy-Thigh_Right" d="M73.4,142.1l-1.8,10.8l-10.4,1.6l-8.4-3.7l-0.4-11l9.6,4.5L73.4,142.1" style="fill: rgb(11, 96, 125);"/>
<path id="Plate-2_Legacy-Thigh_Right" d="M75.8,131.7L74,142l-12.1,2.3l-10.1-4.8l-0.5-12.5l11.5,7.3L75.8,131.7" style="fill: rgb(11, 96, 125);"/>
<path id="Plate-1_Legacy-Thigh_Right" d="M50.2,116.8l8.9-7.8l11.9,2l6.8,11.3l-1.7,9.4l-13.4,2.7l-12-7.7 L50.2,116.8" style="fill: rgb(11, 96, 125);"/>
<path id="Trauma-Plate-3_Legacy-Thigh_Right" class="toggle" style="fill: rgb(5, 21, 72);" d="M54.3,143.2l6.8,3.2c0.3,0.2,0.7,0.2,1,0.1l8.8-1.7 l-1,6.1l-8.6,1.3l-6.8-3L54.3,143.2"/>
<path id="Trauma-Plate-2_Legacy-Thigh_Right" class="toggle" style="fill: rgb(5, 21, 72);" d="M53.3,130.9l8.5,5.4c0.4,0.2,0.8,0.3,1.2,0.2l10.3-2.1 l-1,5.6l-10.2,2l-8.5-4L53.3,130.9"/>
<path id="Trauma-Plate-1_Legacy-Thigh_Right" class="toggle" style="fill: rgb(5, 21, 72);" d="M69.9,113.1l5.9,9.7l-1.3,6.9L63.1,132l-10.5-6.7 l-0.4-7.5l7.5-6.5L69.9,113.1"/>
<g id="Ridge_Legacy-Thigh_Right" class="toggle" style="display: none; fill: rgb(255, 255, 255);"/>
</g>

</g>
</g>
<g id="Groin">
<g id="None_Groin" class="option" style="display: inherit;">
</g>

</g>
<g id="Waist">
<g id="Accessories_Waist">
<g id="Kama" class="toggle" style="display:none"/>
<g id="Loin-Cloth" class="toggle" style="display:none"/>
<g id="Left-Holster" class="toggle" style="display:none"/>
<g id="Right-Holster" class="toggle" style="">
<g id="Thigh-Plate-Holster_Right" class="option" style="display: inherit;">
<g id="Weapon_Thigh-Plate-Holster-Right">
<g id="Main_Weapon_Thigh-Plate-Holster-Right" style="fill: rgb(163, 163, 163);">
<path d="M54,111.8l-0.2-3.7l-0.6,0l-0.1-2.3l0.6,0l-0.1-1.2c0-0.4-0.6-0.7-1.2-0.6c-1.5,0.1-4,0.3-5.4,0.4 c-0.6,0-1.1,0.4-1.1,0.8l0.1,1.2l0.6,0l0.2,2.3l-0.6,0l0.2,3.7l1.5-0.1l0.7,10.1l4.8-0.3l-0.7-10.1L54,111.8z"/>
<path d="M46.9,111.7l0.9-0.1l0.8,12.2l4.8-0.3l-0.8-12.2l0.8-0.1l-0.2-2.8l-6.5,0.4L46.9,111.7z"/>
<path d="M47.8,105.1l3.8-0.3l0.2,3.8l-3.8,0.3L47.8,105.1z"/>
<path d="M51.5,112.5l0.6,0l0.6,9.6l-0.6,0L51.5,112.5z"/>
<path d="M49.7,110.5l0.6,0l0.9,13.4l-0.6,0L49.7,110.5z"/>
<path d="M48.3,112.8l0.6,0l0.7,10.6l-0.6,0L48.3,112.8z"/>
</g>
<g id="Accent_Weapon_Thigh-Plate-Holster-Right" style="fill: rgb(5, 21, 72);">
<path d="M50.5,112.6l1-0.1l0.6,9.6l-1,0.1L50.5,112.6z"/>
<path d="M48.9,112.7l1-0.1l0.7,10.6l-1,0.1L48.9,112.7z"/>
<path d="M51,104.9l0.6,0l0.2,3.8l-0.6,0L51,104.9z"/>
<path d="M47.8,105.1l0.6,0l0.2,3.8l-0.6,0L47.8,105.1z"/>
<path d="M51.3,109.1l0,0.4l-2.7,0.2l0-0.4L51.3,109.1z"/>
<path d="M51.4,109.4l0,0.4l-2.7,0.2l0-0.4L51.4,109.4z"/>
<path d="M51.3,108.7l0,0.4l-2.7,0.2l0-0.4L51.3,108.7z"/>
<path d="M51,104l0,0.4l-2.7,0.2l0-0.4L51,104z"/>
</g>
</g>
<path id="Holster_Thigh-Plate-Holster-Right" d="M47.5,123.2l3.4-0.2l1.9-6.9l1-0.1l2.1,30.7c0,0,0,0,0,0 c-1.8,0.1-3.6-0.5-4.9-1.7c-1.4-1.2-2.2-2.9-2.3-4.7C48.2,133.3,47.5,123.2,47.5,123.2z" style="fill: rgb(11, 96, 125);"/>
</g>


</g>
</g>
<g id="Under-Belt">

<g id="Girth-Belt" class="option" style="fill: rgb(89, 10, 10); display: inherit;">
<path d="M84.5,80.1c-7.2,0-21.5-1.8-21.5-1.8l0.5-1.5c0,0,14,1.2,21,1.8c7-0.6,21-1.8,21-1.8l0.5,1.5 C106,78.3,91.7,80.1,84.5,80.1z"/>
<path d="M84.5,81.6c-7.3,0-22-1.8-22-1.8l0.4-1.5c0,0,17.9,1.5,21.5,1.8c3.6-0.3,21.5-1.8,21.5-1.8l0.4,1.5 C106.5,79.8,91.9,81.6,84.5,81.6z"/>
<path d="M84.5,83.2c-7.4,0-22.3-1.8-22.3-1.8l0.3-1.5c0,0,18.3,1.5,22,1.8c3.7-0.3,22-1.8,22-1.8l0.3,1.5 C106.8,81.4,92,83.2,84.5,83.2z"/>
<path d="M84.5,84.7C77,84.7,62,82.9,62,82.9l0.3-1.5c0,0,18.6,1.5,22.3,1.8c3.7-0.3,22.3-1.8,22.3-1.8l0.3,1.5 C107.1,82.9,92.1,84.7,84.5,84.7z"/>
<path d="M84.5,86.3c-7.6,0-22.8-1.8-22.8-1.8l0.3-1.5c0,0,18.8,1.5,22.6,1.8c3.8-0.3,22.6-1.8,22.6-1.8l0.3,1.5 C107.4,84.4,92.1,86.3,84.5,86.3z"/>
<path d="M84.5,87.8c-7.7,0-23.1-1.8-23.1-1.8l0.2-1.5c0,0,19,1.5,22.8,1.8c3.8-0.3,22.8-1.8,22.8-1.8l0.2,1.5 C107.6,86,92.2,87.8,84.5,87.8z"/>
<path d="M84.5,89.4c-7.8,0-23.3-1.8-23.3-1.8l0.2-1.5c0,0,19.2,1.5,23.1,1.8c3.8-0.3,23.1-1.8,23.1-1.8l0.2,1.5 C107.8,87.5,92.3,89.4,84.5,89.4z"/>
<path d="M84.5,90.9c-7.8,0-23.5-1.8-23.5-1.8l0.2-1.5c0,0,19.4,1.5,23.3,1.8c3.9-0.3,23.3-1.8,23.3-1.8l0.2,1.5 C108.1,89.1,92.4,90.9,84.5,90.9z"/>
<path d="M84.5,92.5c-7.9,0-23.8-1.8-23.8-1.8l0.3-1.5c0,0,19.6,1.5,23.5,1.8c3.9-0.3,23.5-1.8,23.5-1.8l0.3,1.5 C108.3,90.6,92.5,92.5,84.5,92.5z"/>
<path d="M84.5,94c-8,0-24.1-1.8-24.1-1.8l0.3-1.5c0,0,19.8,1.5,23.8,1.8c4-0.3,23.8-1.8,23.8-1.8l0.3,1.5 C108.6,92.2,92.6,94,84.5,94z"/>
</g>
</g>
<g id="Belt">




<g id="Basic-Belt" class="option" style="display: inherit;">
<path id="Main_Basic-Belt" d="M108.2,87.6c-5.3,0.5-17.5,2.2-23.6,2.2c-6.2,0-18.4-1.8-23.6-2.2l0.8-6.2 c4.3,0.4,16.8,2.2,22.8,2.2c5.8,0,18.1-1.8,22.7-2.2L108.2,87.6z" style="fill: rgb(139, 87, 42);"/>
<rect id="Buckle_Basic-Belt" x="80.2" y="82.9" width="8.8" height="7.2" style="fill: rgb(255, 215, 0);"/>
</g>
</g>
</g>
<g id="Extras_Front">
<g id="Front">


<g id="None_Front" class="option" style="display: inherit;">
</g>
</g>
</g>
</svg></svg>