<?xml version='1.0' encoding='UTF-8'?>
<svg version="1.1" id="Female-Body" xmlns="http://www.w3.org/2000/svg" xmlns:serif="http://www.serif.com/" viewBox="0 -55 170 300" style="fill-rule: evenodd; stroke-width: 0.2px; stroke-linejoin: round;" width="170" height="300">
<style>
mask {
mask-type: alpha;
}
.decal {
stroke: none;
}
</style>
<defs id="Masks" stroke="none">
<mask id="HelmetsMask"> <use href="#Helmets"/> </mask>
<mask id="CollarMask"> <use href="#Collar"/> </mask>
<mask id="ShouldersMask"> <use href="#Shoulders"/> </mask>
<mask id="ChestMask"> <use href="#Chest"/> </mask>
<mask id="BicepsMask"> <use href="#Biceps"/> </mask>
<mask id="GauntletsMask"> <use href="#Gauntlets"/> </mask>
<mask id="WaistMask"> <use href="#Waist"/> </mask>
<mask id="GroinMask"> <use href="#Groin"/> </mask>
<mask id="ThighsMask"> <use href="#Thighs"/> </mask>
<mask id="KneesMask"> <use href="#Knees"/> </mask>
<mask id="ShinsMask"> <use href="#Shins"/> </mask>
<mask id="FootMask"> <use href="#Foot"/> </mask>
</defs>
<defs id="Decals"/><metadata><rdf:rdf xmlns:rdf="http://www.w3.org/1999/02/22-rdf-syntax-ns#" xmlns:rdfs="http://www.w3.org/2000/01/rdf-schema#" xmlns:dc="http://purl.org/dc/elements/1.1/"><rdf:description><dc:creator>MandoCreator</dc:creator><dc:publisher>https://www.mandocreator.com</dc:publisher><dc:description>Your Beskar'gam - created by MandoCreator</dc:description><dc:format>image/svg+xml</dc:format><dc:type>Image</dc:type><dc:title>MandoCreator - Ner Berskar'gam</dc:title><dc:date>2022-01-02T16:22:27.093Z</dc:date></rdf:description></rdf:rdf></metadata><g id="Main-Body" fill="white" stroke="black">
<g id="Extras_Back">
<g id="Back"><g id="NO-CAPES_Back" class="option" style="display: inherit;">
</g>
</g>
</g>
<g id="Extras-BackDecals" mask="url(#BackMask)">
</g>
<g id="Suit">
<g id="Neck-Seal"><g id="Standard-Neck-Seal" class="option" fill="rgb(93, 84, 84)" style="display: inherit;">
<path d="M95.96,3.46c0-0.93-0.74-1.69-1.65-1.69c0,0-6.22,0.89-9.33,0.89c-3.11,0-9.33-0.89-9.33-0.89 c-0.91,0-1.65,0.76-1.65,1.69c0,0.93,0.74,1.69,1.65,1.69c0,0,6.22,0.89,9.33,0.89c3.11,0,9.33-0.89,9.33-0.89 C95.22,5.15,95.96,4.39,95.96,3.46z"/>
<path d="M96.51,5.43c0-0.98-0.78-1.77-1.73-1.77c0,0-6.53,0.93-9.8,0.93s-9.8-0.93-9.8-0.93 c-0.96,0-1.73,0.79-1.73,1.77c0,0.98,0.78,1.77,1.73,1.77c0,0,6.53,0.93,9.8,0.93s9.8-0.93,9.8-0.93 C95.74,7.21,96.51,6.41,96.51,5.43z"/>
<path d="M97.14,7.88c0-1.03-0.82-1.87-1.83-1.87c0,0-6.89,0.98-10.33,0.98c-3.44,0-10.33-0.98-10.33-0.98 c-1.01,0-1.83,0.84-1.83,1.87s0.82,1.87,1.83,1.87c0,0,6.89,0.98,10.33,0.98c3.44,0,10.33-0.98,10.33-0.98 C96.32,9.75,97.14,8.91,97.14,7.88z"/>
<path d="M97.75,10.13c0-1.08-0.86-1.96-1.92-1.96c0,0-7.23,1.03-10.85,1.03c-3.62,0-10.85-1.03-10.85-1.03 c-1.06,0-1.92,0.88-1.92,1.96c0,1.08,0.86,1.96,1.92,1.96c0,0,7.23,1.03,10.85,1.03c3.62,0,10.85-1.03,10.85-1.03 C96.89,12.09,97.75,11.21,97.75,10.13z"/>
<path d="M98.36,12.33c0-0.82-0.9-1.48-2.01-1.48c0,0-7.58,0.78-11.36,0.78s-11.36-0.78-11.36-0.78 c-1.11,0-2.01,0.66-2.01,1.48c0,0.82,0.9,1.48,2.01,1.48c0,0,7.58,0.78,11.36,0.78s11.36-0.78,11.36-0.78 C97.46,13.81,98.36,13.14,98.36,12.33z"/>
<path d="M98.36,14.8c0-0.82-0.9-1.48-2.01-1.48c0,0-7.58,0.78-11.36,0.78s-11.36-0.78-11.36-0.78 c-1.11,0-2.01,0.66-2.01,1.48c0,0.82,0.9,1.48,2.01,1.48c0,0,7.58,1.5,11.36,1.5s11.36-1.5,11.36-1.5 C97.46,16.28,98.36,15.62,98.36,14.8z"/>
</g>
</g>
<g id="Flight-Suit" fill="rgb(93, 84, 84)">
<path d="M38.1,60.17l5.2-18.8l12.15-8.13l1.9,16.49c0,0-5.25,9.95-7.06,14.51c-1.86,4.7-5.09,15.42-5.5,16.81 l-2.88,24.91l-8.36-2.66c0,0-0.3-17.29,0.46-24.47C34.68,72.42,38.1,60.17,38.1,60.17z"/>
<path d="M131.9,60.17l-5.22-18.86l-12.06-8.07l-1.92,16.59c0,0,5.2,9.85,7.01,14.41c1.86,4.7,5.09,15.42,5.5,16.81 l2.88,24.91l8.36-2.66c0,0,0.3-17.29-0.46-24.47C135.32,72.42,131.9,60.17,131.9,60.17z"/>
<path d="M84.99,113.44c-1.03,0.1-1.95,0.5-2.29,1.22c-3,6.3-9.17,35.13-10.95,40.44c-0.97,2.89-1.74,18.7-3.38,27.92 c-1.96,11.01-8.39,38.11-8.39,38.11l-11.15-1.15c0,0-1.44-27.22-1.04-37.12c0.3-7.53,3.42-22.31,3.42-22.31s0.67-5.4,0.69-8.12 c0.06-9.82,0.93-31.66,2.88-44.2C56.3,98.31,65.7,77.5,65.7,77.5s12.18,4.76,19.34,4.76c7.16,0,19.44-4.86,19.44-4.86 s8.88,20.92,10.42,30.83c1.95,12.54,3.24,34.38,3.3,44.2c0.02,2.72,0.69,8.12,0.69,8.12s3.12,14.79,3.42,22.31 c0.4,9.91-1.04,37.12-1.04,37.12l-11.15,1.15c0,0-6.43-27.1-8.39-38.11c-1.64-9.22-2.41-25.03-3.38-27.92 c-1.78-5.31-7.96-34.13-10.95-40.44c-0.35-0.73-1.3-1.14-2.34-1.23L84.99,113.44z"/>
</g>
<g id="Sleeves" class="toggle" fill="rgb(93, 84, 84)">
<path d="M41.92,41.42l0.81,0.34l12.73-8.52c0,0,0.36,8.98,1.42,14.37c0.15,0.75,0.37,1.69,0.64,2.79l-1.69,5.45 c0,0-5.75-2.25-8.27-3.72C45.11,50.7,40.7,47,40.7,47L41.92,41.42z"/>
<path d="M112.55,50.4c0.28-1.1,0.5-2.04,0.64-2.79c1.06-5.39,1.42-14.37,1.42-14.37l12.73,8.52l0.81-0.34l1.22,5.58 c0,0-4.4,3.7-6.85,5.13c-2.52,1.48-8.28,3.72-8.28,3.72L112.55,50.4z"/>
</g>
</g>
<g id="Boots">
<g id="Tall_Boots" class="option" style="display: inherit;">
<g id="Bottom_Tall-Boot" fill="rgb(235, 183, 139)">
<path d="M62.38,229.28c-0.02,0.13-0.05,0.27-0.09,0.42c-0.88,1.83-3.26,2.46-4.9,2.9c-1.16,0.31-2.28,0.75-3.37,1.27 c-1.51,0.73-2.27,2-3.44,3.22c-0.52,0.54-1.15,0.96-1.75,1.38c-1.5,1.03-2.95,1.11-4.66,1.16c-2.29,0.07-4.32-0.28-6.58-0.85 c-1.98-0.5-3.45-0.92-5.16-1.47c-0.51-0.17-1.14-0.28-1.44-0.71l-0.26,0.65l-0.19,1.7c0,0,1.85,1.13,3.82,1.63 c1.97,0.5,5.94,1.2,5.94,1.2l0.27-0.74l0.89,0.21l-0.04,0.73l2.16,0.14l0.46-0.71l0.72,0.02l-0.11,0.63c0,0,1.34-0.02,2.08-0.53 c0.14-0.24,0.41-0.63,0.41-0.63l0.51-0.32l-0.07,0.6l1.86-0.76l0.09-0.82l0.54-0.36l0.02,0.6l1.33-1.17l0.14-0.72l2.85-1.7 l0.97,0.44l2.32-0.57l0.08-0.57l0.59-0.28l0.41,0.43l1.56-0.73l0.03-0.53l0.51-0.2l0.06,0.38l1.48-1.16L62.38,229.28z M62.44,228.61L62.44,228.61L62.44,228.61L62.44,228.61z"/>
<path d="M107.68,229.28c0.02,0.13,0.05,0.27,0.09,0.42c0.88,1.83,3.26,2.46,4.9,2.9c1.15,0.31,2.28,0.75,3.37,1.27 c1.51,0.73,2.27,2,3.44,3.22c0.52,0.54,1.15,0.96,1.75,1.38c1.5,1.03,2.95,1.11,4.66,1.16c2.29,0.07,4.32-0.28,6.58-0.85 c1.98-0.5,3.45-0.92,5.16-1.47c0.51-0.17,1.14-0.28,1.44-0.71l0.26,0.65l0.19,1.7c0,0-1.85,1.13-3.82,1.63 c-1.97,0.5-5.94,1.2-5.94,1.2l-0.27-0.74l-0.89,0.21l0.04,0.73l-2.16,0.14l-0.46-0.71l-0.72,0.02l0.11,0.63 c0,0-1.34-0.02-2.08-0.53c-0.14-0.24-0.41-0.63-0.41-0.63l-0.51-0.32l0.07,0.6l-1.86-0.76l-0.09-0.82l-0.54-0.36l-0.02,0.6 l-1.33-1.17l-0.14-0.72l-2.85-1.7l-0.97,0.44l-2.32-0.57l-0.08-0.57l-0.59-0.28l-0.41,0.43l-1.56-0.73l-0.03-0.53l-0.51-0.2 l-0.06,0.38l-1.48-1.16L107.68,229.28z M107.62,228.61L107.62,228.61L107.62,228.61L107.62,228.61z"/>
</g>
<g id="Main_Tall-Boot" fill="rgb(163, 163, 163)">
<path d="M62.37,215.4c1.32-4.39,2.31-11.41,3.1-14.61c0.59-2.4,3.31-15.44,2.86-17.08 c-0.45-1.66-20.1-4.93-20.66-3.44c-0.86,2.29,0.36,24.81,0.21,28.13c-0.11,2.44,0.19,7.55,0.19,7.55 c-0.23,1.33-0.42,2.76-0.9,3.96c-0.91,2.25-1.49,2.97-3.03,4.68c-1.06,1.17-3.06,3.14-4.32,4.03c-0.53,0.38-2.39,1.74-2.39,1.74 c-2.32,0.98-4.88,0.64-6.14,3.55c-0.27,0.64-0.51,1.4-0.46,2.12c0.06,0.92,0.94,1.05,1.63,1.27c1.71,0.55,3.18,0.97,5.16,1.47 c2.26,0.58,4.29,0.93,6.58,0.85c1.71-0.05,3.16-0.13,4.66-1.16c0.6-0.41,1.23-0.83,1.75-1.38c1.17-1.22,1.93-2.49,3.44-3.22 c1.09-0.53,2.21-0.96,3.37-1.27c1.63-0.44,4.02-1.06,4.9-2.9c0.34-1.38-0.01-2.06-0.12-3.24l-0.05-0.51 c-0.09-0.77-0.21-1.56-0.25-2.4c-0.07-1.6,0.28-3.18,0.37-4.77c0.05-0.9,0.09-1.81,0.11-2.71 C62.36,215.96,62.39,215.62,62.37,215.4z"/>
<path d="M107.7,215.4c-1.32-4.39-2.31-11.41-3.1-14.61c-0.59-2.4-3.31-15.44-2.86-17.08 c0.45-1.66,20.1-4.93,20.66-3.44c0.86,2.29-0.36,24.81-0.21,28.13c0.11,2.44-0.19,7.55-0.19,7.55c0.23,1.33,0.42,2.76,0.9,3.96 c0.91,2.25,1.49,2.97,3.03,4.68c1.06,1.17,3.06,3.14,4.32,4.03c0.53,0.38,2.39,1.74,2.39,1.74c2.32,0.98,4.88,0.64,6.15,3.55 c0.27,0.64,0.51,1.4,0.46,2.12c-0.06,0.92-0.94,1.05-1.63,1.27c-1.71,0.55-3.18,0.97-5.16,1.47c-2.26,0.58-4.29,0.93-6.58,0.85 c-1.71-0.05-3.16-0.13-4.66-1.16c-0.61-0.41-1.23-0.83-1.75-1.38c-1.18-1.22-1.94-2.49-3.44-3.22c-1.09-0.53-2.21-0.96-3.37-1.27 c-1.63-0.44-4.02-1.06-4.9-2.9c-0.34-1.38,0.01-2.06,0.12-3.24l0.05-0.51c0.09-0.77,0.21-1.56,0.25-2.4 c0.07-1.6-0.28-3.18-0.37-4.77c-0.05-0.9-0.09-1.81-0.11-2.71C107.71,215.96,107.68,215.62,107.7,215.4z"/>
</g>
</g></g>
<g id="Gloves">
<g id="Left-Glove"><g id="Basic_Left_Glove" class="option" fill="rgb(93, 84, 84)" style="display: inherit;">
<path d="M133.16,120.46c-0.46-0.03-0.9-0.01-1.36,0.09c-0.31,0.07-0.62,0.16-0.9,0.34 c-0.85,0.55-0.62,1.76,0.14,2.21c0.89,0.53,2.29,0.01,2.69-1.02C133.9,121.66,133.39,120.86,133.16,120.46"/>
<path d="M131.6,121.51c-0.46-0.02-0.9-0.02-1.36,0.09c-0.31,0.07-0.62,0.16-0.9,0.34c-0.85,0.55-0.62,1.76,0.14,2.21 c0.89,0.53,2.29,0.01,2.69-1.02C132.34,122.71,131.83,121.91,131.6,121.51"/>
<path d="M130.49,122.93c-0.46,0.05-1.02,0.12-1.46,0.3c-0.3,0.12-0.59,0.25-0.85,0.47c-0.78,0.68-0.4,1.83,0.4,2.17 c0.94,0.39,2.27-0.34,2.55-1.42C131.24,124.01,130.49,122.93,130.49,122.93z"/>
<path d="M127.97,106.79c0,0-1.34,2.09-1.69,3.59c-0.25,1.06-0.11,3.58-0.43,5.28c-0.31,1.7-0.59,2.64-0.59,2.64 s-1.18,2.71-0.98,3.34c0.21,0.62,1.25,1.18,1.84,0.85c0.74-0.41,1.66-2.32,2.24-3.67c0.59-1.37,1.08-3.32,1.08-3.32 s0.81,0.32,1.23,0.68c1.38,1.2,0.78,4.82,0.78,4.82s-0.57,1.29-1.43,2.75c-1.17,1.99-2.97,3.7-1.78,5.22 c1.11,1.42,3.63-2.31,3.63-2.31l2.47-3.62c0,0,2.84-5.26,2.98-6.28c0.11-0.78,0.01-3.38,0.01-3.38l-0.89-10.08l-4.5,0.42 l-3.7,1.36L127.97,106.79"/>
</g>
</g>
<g id="Right-Glove"><g id="Basic_Right_Glove" class="option" fill="rgb(93, 84, 84)" style="display: inherit;">
<path d="M36.86,120.46c0.46-0.03,0.9-0.01,1.36,0.09c0.31,0.07,0.62,0.16,0.9,0.34c0.85,0.55,0.62,1.76-0.14,2.21 c-0.89,0.53-2.29,0.01-2.69-1.02C36.12,121.66,36.64,120.86,36.86,120.46"/>
<path d="M38.42,121.51c0.46-0.02,0.9-0.02,1.36,0.09c0.31,0.07,0.62,0.16,0.9,0.34c0.85,0.55,0.62,1.76-0.14,2.21 c-0.89,0.53-2.29,0.01-2.69-1.02C37.68,122.71,38.2,121.91,38.42,121.51"/>
<path d="M39.54,122.93c0.46,0.05,1.02,0.12,1.46,0.3c0.3,0.12,0.6,0.25,0.85,0.47c0.78,0.68,0.4,1.83-0.4,2.17 c-0.94,0.39-2.27-0.34-2.55-1.42C38.78,124.01,39.54,122.93,39.54,122.93z"/>
<path d="M42.06,106.79c0,0,1.34,2.09,1.69,3.59c0.25,1.06,0.11,3.58,0.43,5.28c0.31,1.7,0.59,2.64,0.59,2.64 s1.18,2.71,0.98,3.34c-0.21,0.62-1.24,1.18-1.84,0.85c-0.74-0.41-1.66-2.32-2.24-3.67c-0.59-1.37-1.08-3.32-1.08-3.32 s-0.81,0.32-1.23,0.68c-1.38,1.2-0.78,4.82-0.78,4.82s0.57,1.29,1.43,2.75c1.17,1.99,2.97,3.7,1.78,5.22 c-1.11,1.42-3.63-2.31-3.63-2.31l-2.47-3.62c0,0-2.84-5.26-2.98-6.28c-0.11-0.78-0.01-3.38-0.01-3.38l0.89-10.08l4.5,0.42 l3.7,1.36L42.06,106.79"/>
</g>
</g>
</g>
<g id="Biceps">
<g id="Left-Biceps"><g id="Basic_Biceps_Left" class="option" style="display: inherit;">
<path id="Main_Basic_Biceps_Left" d="M133.33,53.8c-1.18-2.85-6.45-15.35-6.45-15.35s-8.66,3.56-10.82,4.44 c-0.61,0.25-0.9,0.95-0.65,1.56c1.02,2.45,3.51,8.45,5.06,12.19c0.35,0.85,1.03,1.52,1.88,1.87c0.85,0.35,1.81,0.35,2.65,0 c2.54-1.04,5.95-2.44,7.68-3.15C133.29,55.1,133.58,54.41,133.33,53.8z" fill="rgb(126, 192, 242)"/>
<path id="Strap_Basic_Biceps_Left" d="M117.73,49.98l-4.71,1.93l1.11,3.94l5.16-2.12L117.73,49.98" fill="rgb(98, 60, 28)"/>
<path id="Trauma-Plate_Basic_Biceps_Left" class="toggle" style="" d="M133.29,53.21l-5.5-13.24l-10.55,4.33l4.84,11.67 c0.17,0.42,0.5,0.75,0.92,0.92c0.42,0.17,0.89,0.17,1.31,0L133.29,53.21" fill="rgb(163, 163, 163)"/>
</g>
</g>
<g id="Right-Biceps"><g id="Basic_Biceps_Right" class="option" style="display: inherit;">
<path id="Main_Basic_Biceps_Right" d="M36.74,53.8c1.18-2.85,6.46-15.35,6.46-15.35s8.66,3.56,10.82,4.44 c0.61,0.25,0.9,0.95,0.65,1.56c-1.02,2.45-3.51,8.45-5.06,12.19c-0.35,0.85-1.03,1.52-1.88,1.87c-0.85,0.35-1.8,0.35-2.65,0 c-2.54-1.04-5.95-2.44-7.68-3.15C36.78,55.1,36.49,54.41,36.74,53.8z" fill="rgb(126, 192, 242)"/>
<path id="Strap_Basic_Biceps_Right" d="M52.35,49.98l4.71,1.93l-1.11,3.94l-5.16-2.12L52.35,49.98" fill="rgb(98, 60, 28)"/>
<path id="Trauma-Plate_Basic_Biceps_Right" class="toggle" style="" d="M36.78,53.21l5.49-13.24l10.55,4.33l-4.84,11.67 c-0.17,0.42-0.5,0.75-0.92,0.92c-0.42,0.17-0.89,0.17-1.31,0L36.78,53.21" fill="rgb(163, 163, 163)"/>
</g>
</g>
</g>
<g id="BicepsDecals" mask="url(#BicepsMask)">
</g>
<path id="Vest" d="M91.61,82.96c-4.3,0.88-8.84,0.88-13.14,0c-4.33-0.88-12.83-5.29-12.83-5.29s-7.42-23.26-8.75-30.06 c-1.06-5.39-1.42-14.37-1.42-14.37l-12.73,8.52l-2.71-1.15c0,0,7.62-16.73,12.62-21.57c4.53-4.39,17.42-7.5,17.42-7.5 s5.68,6.2,14.97,6.25c8.84,0.04,14.97-6.25,14.97-6.25s12.89,3.12,17.42,7.5c5.01,4.85,12.62,21.57,12.62,21.57l-2.71,1.15 l-12.73-8.52c0,0-0.36,8.98-1.42,14.37c-1.33,6.79-8.76,30.06-8.76,30.06S95.93,82.08,91.61,82.96z" fill="rgb(93, 84, 84)"/>
<g id="SuitDecals" mask="url(#SuitMask)">
</g>
<g class="swappable" id="Chest"><g id="Chest_Gunslinger">
<g id="Abdomen_Gunslinger">
<g id="Left_Abdomen_Gunslinger" fill="rgb(218, 218, 218)">
<path d="M97.34,66.97l6.35-11.37l-3.3-4.64l-0.26-0.56l-3.61,0.45l-1.48,17.52L97.34,66.97z"/>
<path d="M97.34,66.97l6.35-11.37l1.67,2.34l2.2-1.75l-0.58,7.79L97.34,66.97z"/>
</g>
<g id="Right_Abdomen_Gunslinger" fill="rgb(218, 218, 218)">
<path d="M72.69,66.97L66.34,55.6l-1.67,2.34l-2.2-1.75l0.58,7.79L72.69,66.97z"/>
<path d="M72.69,66.97L66.34,55.6l3.3-4.64l0.26-0.56l3.61,0.45L75,68.37L72.69,66.97z"/>
</g>
<path id="Center_Abdomen_Gunslinger" d="M85.02,47.12l11.5,3.74l-1.48,17.52l-1.76,1.06l-8.26-0.45l-8.26,0.45 L75,68.37l-1.48-17.52L85.02,47.12z" fill="rgb(163, 163, 163)"/>
</g>
<g id="Chest-Plates_Gunslinger">
<g id="Left-Chest_Gunslinger" fill="rgb(163, 163, 163)">
<path d="M85.68,27.45v-2.7l2.22-2.21l21.37-2.41l1.92,11.86l-3.18,23.84l-2.65,2.11l-4.97-6.98L99,48l-13.25-4.02 l3.45-3.42v-9.95L85.68,27.45z"/>
<path d="M99,48l9.76-5.73l2.43-10.25l-2.15,11.03l-8.65,7.92L99,48z"/>
<path d="M100.12,50.4l-3.61,0.45l-11.5-3.74V43.8L99,48L100.12,50.4z"/>
</g>
<g id="Right-Chest_Gunslinger" fill="rgb(163, 163, 163)">
<path d="M84.35,27.45v-2.7l-2.22-2.21l-21.37-2.41l-1.92,11.86l3.18,23.84l2.65,2.11l4.97-6.98L71.04,48l13.25-4.02 l-3.45-3.42v-9.95L84.35,27.45z"/>
<path d="M71.04,48l-9.76-5.73l-2.43-10.25l2.15,11.03l8.65,7.92L71.04,48z"/>
<path d="M69.91,50.4l3.61,0.45l11.5-3.74V43.8L71.04,48L69.91,50.4z"/>
</g>
</g>
<g id="Iron-Heart_Gunslinger">
<path id="Under-Heart_Gunslinger" d="M84.29,43.98l-3.45-3.42v-9.95l3.51-3.16v-2.7h1.33v2.7l3.51,3.16v9.95 l-3.45,3.42l-0.73-0.18L84.29,43.98z" fill="rgb(93, 84, 84)"/>
<path id="Heart_Gunslinger" d="M82.48,39.74v-8.23l2.54-2.53l2.54,2.53v8.23l-2.54,2.53L82.48,39.74z" fill="rgb(126, 192, 242)"/><rect id="Center_Heart_Gunslinger" class="option" x="84.26" y="32.01" width="1.5" height="7.22" fill="rgb(163, 163, 163)" style="display: inherit;"/>
</g>
</g></g>
<g id="ChestDecals" mask="url(#ChestMask)">
</g>
<g id="Chest-Attachments"><g id="Bandoleer_Accessories_Chest" class="option" style="display: inherit;">
<g id="Strap_Bandoleer_Accessories_Chest" fill="rgb(98, 60, 28)">
<path d="M113.84,15.17L107,11.85L69.01,80.32l6.86,3.76L113.84,15.17"/>
<path d="M111.97,13.92l-2.6-1.21l-8.66,15.61l2.51,1.37L111.97,13.92"/>
<path d="M99.7,36.44l-2.86-1.57l-13.31,24l2.87,1.57L99.7,36.44"/>
<path d="M99.98,37.35l-4.07-2.23l-1.33,2.4l4.07,2.23L99.98,37.35"/>
<path d="M98.36,40.26l-4.07-2.23l-1.33,2.41l4.07,2.23L98.36,40.26"/>
<path d="M96.75,43.17l-4.07-2.23l-1.33,2.4l4.07,2.23L96.75,43.17"/>
<path d="M95.13,46.09l-4.07-2.23l-1.33,2.4l4.07,2.23L95.13,46.09"/>
<path d="M93.52,49l-4.07-2.23l-1.33,2.4l4.07,2.23L93.52,49"/>
<path d="M90.28,54.82l-4.07-2.23L84.88,55l4.07,2.23L90.28,54.82"/>
<path d="M91.9,51.91l-4.07-2.23l-1.33,2.4l4.07,2.23L91.9,51.91"/>
<path d="M88.67,57.74l-4.07-2.23l-1.33,2.4l4.07,2.23L88.67,57.74"/>
</g>
<g id="Ammo_Bandoleer_Accessories_Chest" fill="rgb(176, 176, 176)">
<g>
<g>
<path d="M99.83,37.6l1.67,0.91c0.18,0.1,0.24,0.32,0.14,0.5c-0.19,0.34-0.49,0.89-0.68,1.23 c-0.1,0.18-0.32,0.24-0.5,0.14l-1.67-0.91L99.83,37.6z"/>
<path d="M101.06,38.27l-0.14-0.08l-1.04,1.87l0.14,0.08L101.06,38.27z"/>
<path d="M100.77,38.11l-0.14-0.08l-1.04,1.87l0.14,0.08L100.77,38.11z"/>
</g>
<g>
<path d="M95.77,35.37l-1.04,1.87l-1.67-0.91c-0.18-0.1-0.24-0.32-0.14-0.5c0.19-0.34,0.49-0.89,0.68-1.23 c0.1-0.18,0.32-0.24,0.5-0.14L95.77,35.37z"/>
<path d="M94.51,34.68l-0.14-0.08l-1.04,1.87l0.14,0.08L94.51,34.68z"/>
</g>
</g>
<g>
<g>
<path d="M96.6,43.45l1.67,0.91c0.18,0.1,0.24,0.32,0.14,0.5c-0.19,0.34-0.49,0.89-0.68,1.23 c-0.1,0.18-0.32,0.24-0.5,0.14l-1.67-0.91L96.6,43.45z"/>
<path d="M97.82,44.12l-0.14-0.08l-1.04,1.87l0.14,0.08L97.82,44.12z"/>
<path d="M97.53,43.96l-0.14-0.08l-1.04,1.87l0.14,0.08L97.53,43.96z"/>
</g>
<g>
<path d="M92.53,41.22l-1.04,1.87l-1.67-0.91c-0.18-0.1-0.24-0.32-0.14-0.5c0.19-0.34,0.49-0.89,0.68-1.23 c0.1-0.18,0.32-0.24,0.5-0.14L92.53,41.22z"/>
<path d="M91.27,40.53l-0.14-0.08l-1.04,1.87l0.14,0.08L91.27,40.53z"/>
</g>
</g>
<g>
<g>
<path d="M94.99,46.34l1.67,0.91c0.18,0.1,0.24,0.32,0.14,0.5c-0.19,0.34-0.49,0.89-0.68,1.23 c-0.1,0.18-0.32,0.24-0.5,0.14l-1.67-0.91L94.99,46.34z"/>
<path d="M96.21,47.02l-0.14-0.08l-1.04,1.87l0.14,0.08L96.21,47.02z"/>
<path d="M95.92,46.86l-0.14-0.08l-1.04,1.87l0.14,0.08L95.92,46.86z"/>
</g>
<g>
<path d="M90.92,44.11l-1.04,1.87l-1.67-0.91c-0.18-0.1-0.24-0.32-0.14-0.5c0.19-0.34,0.49-0.89,0.68-1.23 c0.1-0.18,0.32-0.24,0.5-0.14L90.92,44.11z"/>
<path d="M89.66,43.42l-0.14-0.08l-1.04,1.87l0.14,0.08L89.66,43.42z"/>
</g>
</g>
<g>
<g>
<path d="M93.36,49.27l1.67,0.91c0.18,0.1,0.24,0.32,0.14,0.5c-0.19,0.34-0.49,0.89-0.68,1.23 c-0.1,0.18-0.32,0.24-0.5,0.14l-1.67-0.91L93.36,49.27z"/>
<path d="M94.59,49.95l-0.14-0.08l-1.04,1.87l0.14,0.08L94.59,49.95z"/>
<path d="M94.3,49.79l-0.14-0.08l-1.04,1.87l0.14,0.08L94.3,49.79z"/>
</g>
<g>
<path d="M89.3,47.04l-1.04,1.87L86.59,48c-0.18-0.1-0.24-0.32-0.15-0.5c0.19-0.34,0.49-0.89,0.68-1.23 c0.1-0.18,0.32-0.24,0.5-0.14L89.3,47.04z"/>
<path d="M88.04,46.35l-0.14-0.08l-1.04,1.87L87,48.22L88.04,46.35z"/>
</g>
</g>
</g>
<g id="Buckles_Bandoleer_Accessories_Chest" fill="rgb(210, 172, 25)">
<g>
<path d="M104.43,28.05l-2.99-1.64l-1.69,3.05l2.99,1.64L104.43,28.05z"/>
<path d="M103.67,28.57l-2.26-1.24l-1.69,3.05l2.26,1.24L103.67,28.57z"/>
</g>
<path d="M104.44,24.49l-1.93-1.05l1.67-3.03l3.9,2.13l-1.67,3.03L104.44,24.49l0.38-0.68l1.1,0.6l0.92-1.67 l-2.15-1.17l-0.92,1.67l1.05,0.58"/>
</g>
</g></g>
<g id="Collar"><g id="Cloth-Wrap-Left_Collar" class="option" style="display: inherit;">
<g id="Main_Cloth-Wrap-Left_Collar" fill="rgb(190, 152, 118)">
<path d="M74.59,21.42c-4.65-1.45-5.5-3.78-5.78-6.13c-0.11-0.96,1.26-3.46-0.16-4.1c-1.61-0.73-5.4,0.41-6.97,0.75 c-1.16,0.25-2.19,1.42-3.38,1.43c-2.74,0.03-4.91,3-5.16,4.36c-0.35,1.9,3.04,0.56,4.62,2c3.96,3.61,5.34,8.5,13.67,9.83 c3.82,0.61,7.61-0.25,11.16-1.04c9.17-2.03,14.17-3.78,20.06-8.31c2.58-1.98,6.47-3.59,6.37-6.24c0-0.11-1.88-1.22-2.06-1.27 c-1.65-0.41-3.06-1.09-4.88-1.12c-1.09-0.02-0.91,0.91-0.99,1.34c-0.31,1.62-1.79,2.84-3.66,4.05 C92.53,20.18,81.33,21.17,74.59,21.42z"/>
<path d="M74.59,21.42c-1.23,0.05-2.31,0.24-3.25,0.29c-4.26,0.26-5.78-0.77-6.6-2.66"/>
<path d="M61.36,11.99c-1.23,1.99-1.07,4.34-0.09,5.89"/>
<path d="M97.07,17.68c-3.19,4.34-7.92,5.71-13.09,6.23"/>
<path d="M105.7,12.34c-0.19,1.1-0.85,1.51-1.66,2.24c-0.47,0.43-1.04,0.73-1.41,1.25c-0.14,0.19-0.21,0.41-0.29,0.62 "/>
</g>
<path id="Buckle_Cloth-Wrap-Left_Collar" d="M95.98,16.86l2.71-1.93l4.71,6.53l-2.71,1.93L95.98,16.86z" fill="rgb(210, 172, 25)"/>
</g></g>
<g id="CollarDecals" mask="url(#CollarMask)">
</g>
<g id="Helmets" class="swappable" transform="translate(45,-52)"><g id="Helmet_Gunslinger">
<g id="Left-Earcap_Gunslinger" class="toggle"><g id="Ear-Cap_Left_Gunslinger" fill="rgb(126, 192, 242)">
<path d="M59.92,40.84l-0.66,0.28l-0.14,0.68h1.26L59.92,40.84z"/>
<path d="M60.29,35.29l-0.41-0.88l-1.2-0.33v2.89h1.61V35.29z"/>
<path d="M58.24,42.77l1.98-0.16l0.07,2.89l-1.61,0.71l0.44,11.49l-0.44,0.31L58.24,42.77z"/>
<path d="M59.83,45.71l0.09,9.74l-0.81,2.27l-0.44-11.49L59.83,45.71z"/>
<path d="M60.78,42.61l-0.85-1.77l-0.66,0.28l-0.25,1.19l-0.34,0.05v-1.37l1.61-0.65l0.79,2.28H60.78z"/>
<path d="M60.29,40.33v-3.36h-1.61v4.01L60.29,40.33z"/>
<path d="M60.29,35.29l0.61,1.68l0.18,5.64l-0.79-2.28V35.29z"/>
<rect x="58.68" y="35.97" width="1.2" height="1"/>
<path d="M59.02,42.31h1.62l-0.25-0.51h-1.26L59.02,42.31z"/>
<path d="M60.22,42.61l-0.34-0.3h-0.86l-0.34,0.05l-0.44,0.41L60.22,42.61z"/>
<path d="M58.68,34.6l-0.94-0.07l0.02,0.77l0.47,7.48l0.45-0.41V34.6z"/>
</g>
</g>
<g id="Right-Earcap_Gunslinger" class="toggle"><g id="Range-Finder_Right_Gunslinger" class="option" style="display: inherit;">
<path id="Shaft_Right_Range-Finder_Gunslinger" d="M22.48,9.72l1.08,0.07l-1.61,26.85h-1.1L22.48,9.72z" fill="rgb(141, 141, 141)"/>
<path id="Finder_Right_Range-Finder_Gunslinger" d="M30.81,7.55h-5.96l0.24-0.74l6.96-0.65L30.81,7.55" fill="rgb(7, 168, 42)"/>
<g id="Cover_Right_Range-Finder_Gunslinger" fill="rgb(126, 192, 242)">
<path d="M21.62,8.59l2.84,0.19l0.63-1.96l7.48-0.7l0.15-0.76l-10.68-0.4L21,6.27L21.62,8.59"/>
<path d="M22.38,8.64l1.41,0.09L23.72,9.8l-1.4-0.09L22.38,8.64"/>
</g>
</g>
<g id="Ear-Cap_Right_Gunslinger" fill="rgb(126, 192, 242)">
<path d="M20.08,40.87l0.66,0.28l0.14,0.68h-1.26L20.08,40.87z"/>
<path d="M19.71,35.32l0.41-0.88l1.2-0.33V37h-1.61V35.32z"/>
<path d="M21.76,42.79l-1.98-0.16l-0.07,2.89l1.61,0.72l-0.44,11.49l0.44,0.31L21.76,42.79z"/>
<path d="M20.17,45.73l-0.09,9.74l0.81,2.27l0.44-11.49L20.17,45.73z"/>
<path d="M19.22,42.64l0.85-1.77l0.66,0.28l0.25,1.19l0.34,0.05v-1.37l-1.61-0.65l-0.79,2.28H19.22z"/>
<path d="M19.71,40.35V37h1.61v4.01L19.71,40.35z"/>
<path d="M19.71,35.32L19.1,37l-0.18,5.64l0.79-2.28V35.32z"/>
<rect x="20.12" y="36" width="1.2" height="1"/>
<path d="M20.98,42.33h-1.61l0.25-0.51h1.26L20.98,42.33z"/>
<path d="M19.78,42.64l0.34-0.3h0.86l0.34,0.05l0.44,0.41L19.78,42.64z"/>
<path d="M21.32,34.62l0.94-0.07l-0.02,0.77l-0.47,7.47l-0.45-0.41V34.62z"/>
</g>
</g>
<g id="Helmet_Pieces_Gunslinger">
<g id="Face_Gunslinger" fill="rgb(202, 202, 202)">
<path d="M23.18,59.57l2.42-9.55l0.01,0c0.18,0.01,3.1,0.32,5.98,4.61c2,2.99,2.57,11.45,2.57,11.45L23.18,59.57z"/>
<path d="M56.8,59.57l-2.42-9.55l-0.01,0c-0.18,0.01-3.1,0.32-5.98,4.61c-2,2.99-2.57,11.45-2.57,11.45L56.8,59.57z"/>
</g>
<g id="Cheeks_Gunslinger" fill="rgb(163, 163, 163)">
<path d="M21.77,42.33l-0.45,15.93l1.86,1.31l2.42-9.55L21.77,42.33z"/>
<path d="M58.21,42.33l0.45,15.93l-1.86,1.31l-2.42-9.55L58.21,42.33z"/>
<path d="M21.79,42.34c0.32,0.08,5.51,1.37,8.64,6.39c3.12,5.02,4.47,16.59,4.55,17.31l0,0.03h-0.82 c0,0-0.56-8.46-2.57-11.45c-2.97-4.43-5.99-4.61-5.99-4.61l-3.82-7.68L21.79,42.34z"/>
<path d="M58.19,42.34c-0.32,0.08-5.51,1.37-8.64,6.39c-3.12,5.02-4.47,16.59-4.55,17.31l0,0.03h0.82 c0,0,0.56-8.46,2.57-11.45c2.97-4.43,5.99-4.61,5.99-4.61l3.83-7.68L58.19,42.34z"/>
</g>
<path fill="rgb(0, 0, 0)" id="Visor_Gunslinger" d="M22.72,37.76l17.27,0.93l17.27-0.93v1.43l-13.48,3.15l-0.94,21.71h-5.7L36.2,42.33 l-13.48-3.15V37.76z"/>
<g id="Eyes_Gunslinger" fill="rgb(126, 192, 242)">
<path d="M22.72,37.76v1.43l13.48,3.15l0.94,21.71l-2.16,2.03c0,0-1.33-12.16-4.55-17.34 c-3.22-5.18-8.65-6.4-8.65-6.4l0.47-7.02h35.5l0.47,7.02c0,0-5.43,1.21-8.65,6.4c-3.22,5.18-4.55,17.34-4.55,17.34l-2.16-2.03 l0.94-21.71l13.48-3.15v-1.43l-17.27,0.93L22.72,37.76z"/>
<rect x="22.21" y="35.77" width="35.56" height="0.46"/>
</g>
<path id="Dome_Gunslinger" d="M57.74,35.32h-35.5c0-9.07,7.95-16.43,17.75-16.43C49.79,18.89,57.74,26.25,57.74,35.32 z" fill="rgb(163, 163, 163)"/>
<path id="Ridge-2_Gunslinger" d="M37.94,37.13l-1.56-1.81V19.23c0,0,1.1-0.58,3.6-0.53l0.03,0 c2.48-0.05,3.58,0.53,3.58,0.53v16.09l-1.56,1.81H37.94z" fill="rgb(121, 187, 246)"/>
<path id="Ridge-1_Gunslinger" d="M38.47,34.92l-0.28-0.28V18.78c0,0,0.55-0.14,1.8-0.08l0.03,0 c1.23-0.05,1.77,0.09,1.77,0.09v15.85l-0.28,0.28H38.47z" fill="rgb(218, 218, 218)"/>
</g>
</g></g>
<g id="HelmetsDecals" mask="url(#HelmetsMask)"/>
<g id="Shoulders">
<g id="Left-Shoulder"><g id="Gunslinger-Bell_Shoulder_Left" class="option" style="display: inherit;">
<path id="Main_Gunslinger-Bell_Shoulder_Left" d="M110.74,13.82c6.4-0.15,20.68,4.95,20.11,23.11l-0.08,3.59 l-12.44,5.07L107.43,31.1l0-17.28L110.74,13.82z" fill="rgb(163, 163, 163)"/>
<path id="Ridge_Gunslinger-Bell_Shoulder_Left" class="toggle" d="M107.43,13.82L107.43,13.82l0-2.1 c13.61-0.07,26.49,5.76,25.51,28.19l-2.09,0.49c-0.02-0.26-0.04-0.53-0.06-0.78l0.06-2.69c0.57-18.16-13.71-23.26-20.11-23.11 h-0.7C108.62,13.62,107.66,13.67,107.43,13.82L107.43,13.82L107.43,13.82z" fill="rgb(126, 192, 242)"/>
<g id="Trim_Gunslinger-Bell_Shoulder_Left" class="toggle" fill="rgb(126, 192, 242)">
<rect x="107.43" y="13.01" width="3.31" height="18.12"/>
<path d="M110.74,30.01l-3.31,1.09l10.92,14.51l2.65-1.97L110.74,30.01z"/>
<path d="M119.45,41.58l-1.16,4.03l13.06-5.33v-3.56L119.45,41.58z"/>
</g>
</g></g>
<g id="Right-Shoulder"><g id="Gunslinger-Bell_Shoulder_Right" class="option" style="display: inherit;">
<path id="Main_Gunslinger-Bell_Shoulder_Right" d="M59.33,13.82c-6.4-0.15-20.68,4.95-20.11,23.11l0.08,3.59 l12.44,5.07L62.64,31.1l0-17.28L59.33,13.82z" fill="rgb(0, 0, 0)"/>
<path id="Ridge_Gunslinger-Bell_Shoulder_Right" class="toggle" d="M62.63,13.82L62.63,13.82l0-2.1 c-13.61-0.07-26.49,5.76-25.51,28.19l2.09,0.49c0.02-0.26,0.04-0.53,0.06-0.78l-0.06-2.69c-0.57-18.16,13.71-23.26,20.11-23.11 h0.71C61.45,13.62,62.41,13.67,62.63,13.82L62.63,13.82L62.63,13.82z" fill="rgb(126, 192, 242)"/>
<g id="Trim_Gunslinger-Bell_Shoulder_Right" class="toggle" fill="rgb(126, 192, 242)">
<rect x="59.33" y="13.01" width="3.31" height="18.12"/>
<path d="M59.33,30.01l3.31,1.09L51.72,45.61l-2.65-1.97L59.33,30.01z"/>
<path d="M50.62,41.58l1.16,4.03l-13.06-5.33v-3.56L50.62,41.58z"/>
</g>
</g></g>
</g>
<g id="ShouldersDecals" mask="url(#ShouldersMask)">
</g>
<g id="Gauntlets">
<g id="Left-Gauntlets"><g id="Gunslinger_Gauntlet_Left" class="option" style="display: inherit;">
<g id="Accent-Top_Gunslinger_Gauntlet_Left" fill="rgb(199, 197, 197)">
<path d="M136.82,78.71l0.16,5.87l-3.02,0.58l-0.23-5.57L136.82,78.71z"/>
<path d="M133.63,100.15l0.34,3.02l-2.65,0.34l-0.37-3.01L133.63,100.15z"/>
</g>
<path id="Top_Gunslinger_Gauntlet_Left" d="M136.82,78.71l1.38-0.39l0.12,27.45l-6.61,0.83l-0.53-4.3l0.15,1.22 l2.65-0.34l-0.34-3.02l-2.68,0.35l-2.4-19.44L136.82,78.71l-3.09,0.88l0.23,5.57l3.02-0.58L136.82,78.71z" fill="rgb(163, 163, 163)"/>
<g id="Accent-Bottom_Gunslinger_Gauntlet_Left" fill="rgb(199, 197, 197)">
<path d="M124.09,89.56l-0.57-2.44l-1.72,0.4l0.57,2.44L124.09,89.56z"/>
<path d="M124.74,92.34l-0.57-2.45l-1.73,0.4l0.57,2.44L124.74,92.34z"/>
<path d="M130.96,100.5l-5.9,0.77l0.7,2.97l5.58-0.72L130.96,100.5z"/>
</g>
<path id="Bottom_Gunslinger_Gauntlet_Left" d="M131.28,103.07l-0.32-2.58l-5.9,0.77l0.7,2.97l5.58-0.72l0.38,3.08 c0,0-2.07,0.19-3.62,0.33c-0.97,0.09-1.86-0.55-2.08-1.49c-1.21-5.14-4.86-20.61-4.86-20.61l7.45-3.37L131.28,103.07z M124.74,92.34l-0.57-2.45l-1.73,0.4l0.57,2.44L124.74,92.34z M124.09,89.56l-0.57-2.44l-1.72,0.4l0.57,2.44L124.09,89.56z" fill="rgb(163, 163, 163)"/>
<g id="Whistling-Birds_Attachment_Gunslinger_Gauntlet_Left" class="option" style="display: inherit;">
<path id="Head_Whistling-Birds_Attachment_Gunslinger_Gauntlet_Left" d="M141.45,95.12l-3.16,5.29l-0.02-5.28 L141.45,95.12z" fill="rgb(204, 203, 203)"/>
<g id="Birds_Whistling-Birds_Attachment_Gunslinger_Gauntlet_Left" fill="rgb(0, 133, 255)">
<g>
<path d="M138.79,95.52c0.12,0,0.23,0.27,0.23,0.6c0,0.33-0.1,0.6-0.22,0.6c-0.12,0-0.23-0.27-0.23-0.6 C138.57,95.79,138.67,95.52,138.79,95.52z"/>
<path d="M138.8,97.2c0.12,0,0.23,0.27,0.23,0.6c0,0.33-0.1,0.6-0.22,0.6c-0.12,0-0.23-0.27-0.23-0.6 C138.57,97.47,138.68,97.2,138.8,97.2z"/>
<path d="M139.65,95.52c0.12,0,0.23,0.27,0.23,0.6c0,0.33-0.1,0.6-0.22,0.6c-0.12,0-0.23-0.27-0.23-0.6 C139.43,95.79,139.53,95.52,139.65,95.52z"/>
<path d="M138.63,99.85c-0.03-0.1-0.05-0.23-0.05-0.36c0-0.33,0.1-0.6,0.22-0.6c0.09,0,0.16,0.13,0.2,0.33 L138.63,99.85z M139.55,98.31c-0.07-0.11-0.11-0.3-0.11-0.51c0-0.33,0.1-0.6,0.22-0.6c0.12,0,0.21,0.24,0.23,0.54 L139.55,98.31z M140.5,96.71c-0.12-0.02-0.21-0.28-0.21-0.6c0-0.33,0.1-0.6,0.22-0.6c0.12,0,0.23,0.27,0.23,0.6 c0,0.08-0.01,0.15-0.01,0.22L140.5,96.71z"/>
</g>
</g>
<g id="Base_Whistling-Birds_Attachment_Gunslinger_Gauntlet_Left" fill="rgb(163, 163, 163)">
<path d="M141.18,79.18l-2.13,0.01l0,0.93l2.13-0.01L141.18,79.18z"/>
<path d="M141.38,80.11l-2.33,0.01l0.06,15.01l2.33-0.01L141.38,80.11z"/>
<path d="M141.69,80.27l-0.31,0l0.05,12.96l0.31,0L141.69,80.27z"/>
<path d="M141.01,80.11l-0.31,0l0.06,14.08l0.31,0L141.01,80.11z"/>
</g>
<g id="Accent_Whistling-Birds_Attachment_Gunslinger_Gauntlet_Left" fill="rgb(126, 192, 242)">
<path d="M139.05,78.95l-0.85,0l0.06,15.24l0.85,0L139.05,78.95z"/>
<path d="M141.62,94.19l-3.35,0.01l0,0.93l3.35-0.01L141.62,94.19z"/>
<path d="M140.45,79.18l-1.4,0.01l0.01,2.19l1.4-0.01L140.45,79.18z"/>
<path d="M140.13,81.37l-1.07,0l0.02,5.2l1.06-1.95L140.13,81.37z"/>
</g>
</g></g></g>
<g id="Right-Gauntlets"><g id="Gunslinger_Gauntlet_Right" class="option" style="display: inherit;">
<g id="Accent-Top_Gunslinger_Gauntlet_Right" fill="rgb(199, 197, 197)">
<path d="M33.12,78.71l-0.16,5.87l3.02,0.58l0.23-5.57L33.12,78.71z"/>
<path d="M36.31,100.15l-0.34,3.02l2.65,0.34l0.37-3.01L36.31,100.15z"/>
</g>
<path id="Top_Gunslinger_Gauntlet_Right" d="M33.12,78.71l-1.38-0.39l-0.12,27.45l6.61,0.83l0.53-4.3l-0.15,1.22 l-2.65-0.34l0.34-3.02l2.67,0.35l2.4-19.44L33.12,78.71l3.09,0.88l-0.23,5.57l-3.02-0.58L33.12,78.71z" fill="rgb(163, 163, 163)"/>
<g id="Accent-Bottom_Gunslinger_Gauntlet_Right" fill="rgb(199, 197, 197)">
<path d="M45.85,89.56l0.57-2.44l1.72,0.4l-0.57,2.44L45.85,89.56z"/>
<path d="M45.2,92.34l0.57-2.45l1.72,0.4l-0.57,2.44L45.2,92.34z"/>
<path d="M38.99,100.5l5.91,0.77l-0.7,2.97l-5.58-0.72L38.99,100.5z"/>
</g>
<path id="Bottom_Gunslinger_Gauntlet_Right" d="M38.67,103.07l0.32-2.58l5.91,0.77l-0.7,2.97l-5.58-0.72 l-0.38,3.08c0,0,2.07,0.19,3.62,0.33c0.97,0.09,1.85-0.55,2.08-1.49c1.21-5.14,4.86-20.61,4.86-20.61l-7.45-3.37L38.67,103.07z M45.2,92.34l0.57-2.45l1.72,0.4l-0.57,2.44L45.2,92.34z M45.85,89.56l0.57-2.44l1.72,0.4l-0.57,2.44L45.85,89.56z" fill="rgb(163, 163, 163)"/><g id="Flamethrower_Attachment_Gunslinger_Gauntlet_Right" class="option" style="display: inherit;">
<g id="Tubes_Flamethrower_Attachment_Gunslinger_Gauntlet_Right" fill="rgb(209, 209, 209)">
<path d="M30.26,80.04l0.87,0l-0.02,26.23h-0.87L30.26,80.04z"/>
<path d="M28.27,80.04l0.87,0l-0.01,18.8l-0.87,0L28.27,80.04z"/>
<path d="M30.09,81.68l1.19,0l0,6.25l-1.19,0L30.09,81.68z"/>
<path d="M28.11,81.68l1.19,0l0,6.25l-1.19,0L28.11,81.68z"/>
</g>
<g id="Main_Flamethrower_Attachment_Gunslinger_Gauntlet_Right" fill="rgb(163, 163, 163)">
<path d="M27.9,80.04l3.56,0l0,1.64l-3.56,0L27.9,80.04z"/>
<path d="M27.82,87.93l3.72,0l0,1l-3.72,0L27.82,87.93z"/>
<path d="M27.97,88.93l3.41,0v0.5l-3.41,0L27.97,88.93z"/>
<path d="M31.16,87.31l0.58,0.02l-0.01,3.05l-0.57-0.02L31.16,87.31z"/>
</g>
<g id="Accent_Flamethrower_Attachment_Gunslinger_Gauntlet_Right" fill="rgb(0, 0, 0)">
<path d="M28.23,98.84l0.93,0l0.14,1.29l-1.22,0L28.23,98.84z"/>
<path d="M27.87,92.16l1.65,0l0,1.99l-1.65,0L27.87,92.16z"/>
<path d="M28.1,94.15l1.19,0l0,1.99l-1.19,0L28.1,94.15z"/>
<path d="M30.08,102.95l1.19,0l0,2.73l-1.19,0L30.08,102.95z"/>
<path d="M30.08,94.15l1.19,0l0,3.71l-1.19,0L30.08,94.15z"/>
<path d="M29.85,104.32l1.64,0v0.53l-1.65,0L29.85,104.32z"/>
</g>
<path id="Base_Flamethrower_Attachment_Gunslinger_Gauntlet_Right" d="M31.74,87.33l0.02-8.28l-0.99,0.39 l-0.04,14l0.99,0.45l0.01-3.5l-0.57-0.02l0.01-3.05L31.74,87.33z" fill="rgb(163, 163, 163)"/>
</g></g></g>
</g>
<g id="GauntletsDecals" mask="url(#GauntletsMask)">
</g>
<g id="Shins">
<g id="Left-Shin"><g id="Basic_Shin_Left" class="option" style="display: inherit;">
<path id="Shin_Basic-Shin_Left" d="M123.38,181.46l-4.73-6.13l-10.54,0.47l-4.62,8.67l4.39,30.69 c4.45,2.3,11.19,1.91,15.07-1.05L123.38,181.46" fill="rgb(218, 218, 218)"/>
<path id="Trauma-Plating_Basic-Shin_Left" class="toggle" style="display:none" d="M121.21,213.2l0.4-31.15l-3.8-4.92l-8.61,0.38l-3.88,7.28 l4.17,29.18C113.1,215.46,117.99,215.19,121.21,213.2" fill="rgb(255, 255, 255)"/>
<g id="Ridge_Basic-Shin_Left" class="toggle" style="display:none" fill="rgb(255, 255, 255)"/>
</g>
</g>
<g id="Right-Shin"><g id="Basic_Shin_Right" class="option" style="display: inherit;">
<path id="Shin_Basic-Shin_Right" d="M46.67,181.46l4.73-6.13l10.53,0.47l4.62,8.67l-4.39,30.69 c-4.45,2.3-11.19,1.91-15.07-1.05L46.67,181.46" fill="rgb(218, 218, 218)"/>
<path id="Trauma-Plating_Basic-Shin_Right" class="toggle" style="display:none" d="M48.84,213.2l-0.4-31.15l3.8-4.92l8.61,0.38l3.88,7.28 l-4.17,29.18C56.95,215.46,52.05,215.19,48.84,213.2" fill="rgb(255, 255, 255)"/>
<g id="Ridge_Basic-Shin_Right" class="toggle" style="display:none" fill="rgb(255, 255, 255)"/>
</g>
</g>
</g>
<g id="ShinsDecals" mask="url(#ShinsMask)">
</g>
<g id="Foot">
<g id="Left-Ankle"><g id="Basic_Ankle_Left" class="option" style="display: inherit;">
<path id="Main_Basic-Ankle_Left" d="M130.52,229.01l-6.81-11.93c-3.54-0.18-6.89,0.31-10.03,1.54 c-1.11,0.45-1.96,1.37-2.32,2.51c-0.02-0.01-0.02-0.01-0.02-0.01c-0.34,1.09-0.02,2.28,0.83,3.05c2.05,1.91,5.89,5.32,8.2,6.11 C125.42,232.02,130.52,229.01,130.52,229.01" fill="rgb(218, 218, 218)"/>
<path id="Trauma-Plate_Basic-Ankle_Left" class="toggle" style="display:none" d="M124.54,218.54c-3.35-0.06-8.35,0.59-11.29,1.94l-0.3,0.94 c-0.19,0.62-0.01,1.29,0.47,1.75c1.92,1.8,5.38,4.96,7.5,5.69c2.85,0.98,7.16-0.57,8.8-1.24L124.54,218.54" fill="rgb(255, 255, 255)"/>
</g>
</g>
<g id="Left-Toe"><g id="None_Toe_Left" class="option" style="display: inherit;">
</g>
</g>
<g id="Right-Ankle"><g id="Basic_Ankle_Right" class="option" style="display: inherit;">
<path id="Main_Basic-Ankle_Right" d="M39.54,229.01l6.81-11.93c3.54-0.18,6.89,0.31,10.03,1.54 c1.11,0.45,1.96,1.37,2.32,2.51c0.02-0.01,0.02-0.01,0.02-0.01c0.34,1.09,0.02,2.28-0.83,3.05c-2.05,1.91-5.89,5.32-8.2,6.11 C44.64,232.02,39.54,229.01,39.54,229.01" fill="rgb(218, 218, 218)"/>
<path id="Trauma-Plate_Basic-Ankle_Right" class="toggle" style="display:none" d="M45.52,218.54c3.35-0.06,8.35,0.59,11.29,1.94l0.3,0.94 c0.2,0.62,0.01,1.29-0.47,1.75c-1.92,1.8-5.38,4.96-7.5,5.69c-2.86,0.98-7.16-0.57-8.8-1.24L45.52,218.54" fill="rgb(255, 255, 255)"/>
</g>
</g>
<g id="Right-Toe"><g id="None_Toe_Right" class="option" style="display: inherit;">
</g>
</g>
</g>
<g id="FootDecals" mask="url(#FootMask)">
</g>
<g id="Knees">
<g id="Left-Knee"><g id="Basic_Knee_Left" class="option" style="display: inherit;">
<g id="Missiles_Basic-Knee_Left" class="toggle" style="">
<path id="Base_Missiles_Basic-Knee_Left" d="M119.65,156.53c0.01,0.04,0.02,0.09,0.02,0.13 c0.2,2.01,0.56,6.29,0.42,9.97l2.39-1.43c0.39-0.23,0.62-0.65,0.61-1.1c-0.03-1.37-0.1-4.35-0.13-5.91 c-0.01-0.59-0.44-1.09-1.02-1.21L119.65,156.53z" fill="rgb(163, 163, 163)"/>
<g id="Missile-2_Missiles_Basic-Knee_Left" fill="rgb(134, 52, 52)">
<path d="M121.33,162.29c-0.59,0.07-1.01,0.6-0.93,1.19c0.07,0.59,0.62,1.01,1.21,0.94 c0.59-0.07,1.01-0.61,0.93-1.19C122.46,162.64,121.92,162.22,121.33,162.29z"/>
<path d="M121.39,162.64c-0.4,0.05-0.68,0.41-0.63,0.8c0.05,0.39,0.42,0.68,0.81,0.63c0.4-0.05,0.68-0.41,0.63-0.8 C122.15,162.88,121.78,162.6,121.39,162.64z"/>
</g>
<g id="Missile-1_Missiles_Basic-Knee_Left" fill="rgb(123, 190, 120)">
<path d="M121.19,157.64c-0.59,0.07-1.01,0.6-0.93,1.19c0.07,0.59,0.62,1.01,1.21,0.94 c0.59-0.07,1.01-0.61,0.93-1.19C122.33,157.99,121.79,157.57,121.19,157.64z"/>
<path d="M121.25,157.99c-0.4,0.05-0.68,0.41-0.63,0.8c0.05,0.4,0.41,0.68,0.81,0.63c0.4-0.05,0.68-0.41,0.63-0.8 C122.01,158.22,121.65,157.94,121.25,157.99z"/>
</g>
</g>
<g id="Knee_Basic-Knee_Left" fill="rgb(218, 218, 218)">
<path d="M97.4,158.73l1.49-0.24c0,0,1.12,7.19,1.62,10.38c0.13,0.82-0.43,1.6-1.25,1.73h0L97.4,158.73z"/>
<path d="M98.84,158.2l0.85,5.33c1.09-0.61,3.84,0.51,4.74,3.72c1.65,5.89,3.08,7.24,8.25,6.71 c4.02-0.41,6.89-2.29,7.22-5.05c0.49-4.07-0.01-9.98-0.26-12.36c-0.03-0.27-0.17-0.52-0.38-0.7c-0.22-0.17-0.49-0.25-0.77-0.21 C114.3,156.18,98.84,158.2,98.84,158.2z"/>
<path d="M98.33,158.27l0.51-0.08l0.95,5.77l-0.51,0.08L98.33,158.27z"/>
</g>
</g>
</g>
<g id="Right-Knee"><g id="Basic_Knee_Right" class="option" style="display: inherit;">
<g id="Missiles_Basic-Knee_Right" class="toggle" style="">
<path id="Base_Missiles_Basic-Knee_Right" d="M50.35,156.53c-0.01,0.04-0.02,0.09-0.02,0.13 c-0.2,2.01-0.56,6.29-0.42,9.97l-2.39-1.43c-0.39-0.23-0.62-0.65-0.61-1.1c0.03-1.37,0.1-4.35,0.13-5.91 c0.01-0.59,0.44-1.09,1.02-1.21L50.35,156.53z" fill="rgb(126, 192, 242)"/>
<g id="Missile-2_Missiles_Basic-Knee_Right" fill="rgb(194, 118, 118)">
<path d="M48.67,162.29c0.59,0.07,1.01,0.6,0.93,1.19c-0.08,0.59-0.62,1.01-1.21,0.94 c-0.59-0.07-1.01-0.61-0.93-1.19C47.54,162.64,48.08,162.22,48.67,162.29z"/>
<path d="M48.62,162.64c0.4,0.05,0.68,0.41,0.63,0.8c-0.05,0.39-0.42,0.68-0.81,0.63c-0.4-0.05-0.68-0.41-0.63-0.8 C47.85,162.88,48.22,162.6,48.62,162.64z"/>
</g>
<g id="Missile-1_Missiles_Basic-Knee_Right" fill="rgb(107, 129, 76)">
<path d="M48.81,157.64c0.59,0.07,1.01,0.6,0.93,1.19c-0.08,0.59-0.62,1.01-1.21,0.94 c-0.59-0.07-1.01-0.61-0.93-1.19C47.67,157.99,48.21,157.57,48.81,157.64z"/>
<path d="M48.75,157.99c0.4,0.05,0.68,0.41,0.63,0.8c-0.05,0.4-0.42,0.68-0.81,0.63c-0.4-0.05-0.68-0.41-0.63-0.8 C47.99,158.22,48.35,157.94,48.75,157.99z"/>
</g>
</g>
<g id="Knee_Basic-Knee_Right" fill="rgb(126, 192, 242)">
<path d="M72.6,158.73l-1.49-0.24c0,0-1.12,7.19-1.62,10.38c-0.13,0.82,0.43,1.6,1.25,1.73h0L72.6,158.73z"/>
<path d="M71.16,158.2l-0.85,5.33c-1.09-0.61-3.84,0.51-4.74,3.72c-1.65,5.89-3.08,7.24-8.25,6.71 c-4.02-0.41-6.89-2.29-7.22-5.05c-0.49-4.07,0.01-9.98,0.26-12.36c0.03-0.27,0.17-0.52,0.38-0.7c0.22-0.17,0.49-0.25,0.77-0.21 C55.7,156.18,71.16,158.2,71.16,158.2z"/>
<path d="M71.67,158.27l-0.51-0.08l-0.95,5.77l0.51,0.08L71.67,158.27z"/>
</g>
</g>
</g>
</g>
<g id="KneesDecals" mask="url(#KneesMask)">
</g>
<g id="Thighs">
<g id="Left-Thigh"><g id="Basic_Thigh_Left" class="option" style="display: inherit;">
<path id="Thigh_Basic-Thigh_Left" d="M119.66,114.13c0,0-5.22-6.67-7.89-7.78c-2.53-1.05-5.91-0.6-8.08,1.13 c-3.31,2.64-10.92,8.35-11.78,14.71c-0.96,7.1,4.24,22.8,6,27.87c0.6,1.72,2.87,2.51,4.61,2.57c3.22,0.12,12.01-0.15,14.11-4.87 C119.49,141.34,119.66,114.13,119.66,114.13" fill="rgb(126, 192, 242)"/>
<path id="Trauma-Plate_Basic-Thigh_Left" class="toggle" style="" d="M117.89,114.74c-0.78-0.97-2.65-3.22-4.46-4.95 c-0.86-0.82-1.68-1.54-2.34-1.82c-1.97-0.82-4.61-0.47-6.3,0.88c-1.92,1.53-5.35,4.12-7.95,7.29c-1.58,1.92-2.88,4.05-3.18,6.29 c-0.94,6.9,4.2,22.13,5.92,27.06c0.15,0.43,0.56,0.7,0.99,0.91c0.64,0.31,1.38,0.46,2.02,0.49c1.8,0.07,5.47,0.02,8.54-1 c1.7-0.56,3.24-1.38,3.89-2.83c0.81-1.82,1.35-5.42,1.77-9.56C117.68,128.66,117.86,117.46,117.89,114.74" fill="rgb(163, 163, 163)"/>
<g id="Ridge_Basic-Thigh_Left" class="toggle" style="" fill="rgb(126, 192, 242)">
<path d="M110.85,105.79l-3.61-0.92l-3.78,2.07l1.23,45.7c2.49,0.48,2.53,0.57,4.71-0.08L110.85,105.79"/>
<path d="M107.27,104.87l-0.1,48.14"/>
</g>
</g>
</g>
<g id="Right-Thigh"><g id="Basic_Thigh_Right" class="option" style="display: inherit;">
<path id="Thigh_Basic-Thigh_Right" d="M50.34,114.13c0,0,5.22-6.67,7.89-7.78c2.53-1.05,5.91-0.6,8.08,1.13 c3.31,2.64,10.92,8.35,11.78,14.71c0.96,7.1-4.24,22.8-6,27.87c-0.6,1.72-2.87,2.51-4.61,2.57c-3.22,0.12-12.01-0.15-14.11-4.87 C50.51,141.34,50.34,114.13,50.34,114.13" fill="rgb(126, 192, 242)"/>
<path id="Trauma-Plate_Basic-Thigh_Right" class="toggle" style="" d="M52.11,114.74c0.78-0.97,2.65-3.22,4.46-4.95 c0.86-0.82,1.68-1.54,2.33-1.82c1.97-0.82,4.61-0.47,6.3,0.88c1.92,1.53,5.35,4.12,7.95,7.29c1.58,1.92,2.88,4.05,3.18,6.29 c0.94,6.9-4.2,22.13-5.92,27.06c-0.15,0.43-0.56,0.7-0.99,0.91c-0.64,0.31-1.38,0.46-2.02,0.49c-1.8,0.07-5.47,0.02-8.54-1 c-1.7-0.56-3.24-1.38-3.89-2.83c-0.81-1.82-1.35-5.42-1.77-9.56C52.32,128.66,52.14,117.46,52.11,114.74" fill="rgb(163, 163, 163)"/>
<g id="Ridge_Basic-Thigh_Right" class="toggle" style="" fill="rgb(126, 192, 242)">
<path d="M59.15,105.79l3.61-0.92l3.78,2.07l-1.23,45.7c-2.49,0.48-2.53,0.57-4.71-0.08L59.15,105.79"/>
<path d="M62.73,104.87l0.1,48.14"/>
</g>
</g>
</g>
</g>
<g id="ThighsDecals" mask="url(#ThighsMask)">
</g>
<g id="Groin"><g id="Basic_Groin" class="option" style="display: inherit;">
<path id="Groin-Plate_Basic" d="M78.57,104.6L67.72,82.91h34.71L91.58,104.6c0,0-4.33,5.17-6.5,5.17 C82.91,109.76,78.57,104.6,78.57,104.6z" fill="rgb(126, 192, 242)"/>
<path id="Trauma-Plating_Groin" class="toggle" style="" d="M90.42,103.84l9.8-19.57H69.93l9.79,19.57c0.43,0.5,2.16,2.47,3.82,3.72 c0.58,0.44,1.1,0.84,1.53,0.84c0.44,0,0.95-0.4,1.53-0.84C88.26,106.32,89.99,104.34,90.42,103.84" fill="rgb(163, 163, 163)"/>
</g>
</g>
<g id="GroinDecals" mask="url(#GroinMask)">
</g>
<g id="Waist">
<g id="Accessories_Waist">
<g id="Kama" class="toggle" style="display:none"/>
<g id="Loin-Cloth" class="toggle" style="display:none"/>
<g id="Left-Holster" class="toggle" style=""><g id="Belt-Holster_Left" class="option" style="display: inherit;">
<g id="Weapon_Belt-Holster-Left">
<g id="Main_Weapon_Belt-Holster-Left" fill="rgb(199, 198, 198)">
<path d="M109.93,89.79l-0.25-3.73l0.65-0.04l-0.16-2.35l-0.65,0.04l-0.08-1.22c-0.03-0.4,0.48-0.75,1.14-0.8 c1.5-0.1,4.08-0.27,5.58-0.37c0.66-0.04,1.21,0.24,1.24,0.64l0.08,1.22l-0.65,0.04l0.16,2.35l0.65-0.04l0.25,3.73l-1.52,0.1 l0.69,10.33l-4.91,0.33l-0.69-10.33L109.93,89.79z"/>
<path d="M117.2,88.76l-0.87,0.06l0.83,12.42l-4.91,0.33l-0.83-12.42l-0.87,0.06l-0.19-2.83l6.66-0.44L117.2,88.76 z"/>
<path d="M115.39,82.18l-3.94,0.26l0.26,3.83l3.94-0.26L115.39,82.18z"/>
<path d="M112.62,90.19l-0.65,0.04l0.66,9.77l0.65-0.04L112.62,90.19z"/>
<path d="M114.12,87.85l-0.65,0.04l0.65,9.76l0.65-0.04L114.12,87.85z"/>
<path d="M115.92,89.97l-0.65,0.04l0.66,9.76l0.65-0.04L115.92,89.97z"/>
</g>
<g id="Accent_Weapon_Belt-Holster-Left" fill="rgb(0, 0, 0)">
<path d="M112.32,86.63l0.03,0.39l2.78-0.18l-0.03-0.39L112.32,86.63z"/>
<path d="M112.34,87.02l0.03,0.39l2.78-0.18l-0.03-0.39L112.34,87.02z"/>
<path d="M112.29,86.24l0.03,0.39l2.78-0.18l-0.03-0.39L112.29,86.24z"/>
<path d="M111.97,81.43l0.03,0.39l2.78-0.18l-0.03-0.39L111.97,81.43z"/>
<path d="M112.1,82.4l-0.65,0.04l0.26,3.83l0.65-0.04L112.1,82.4z"/>
<path d="M115.39,82.18l-0.65,0.04l0.26,3.83l0.65-0.04L115.39,82.18z"/>
<path d="M115.27,90.01l-0.98,0.06l0.65,9.77l0.98-0.07L115.27,90.01z"/>
<path d="M113.61,90.12l-0.98,0.06l0.65,9.77l0.98-0.07L113.61,90.12z"/>
</g>
</g>
<path id="Holster_Belt-Holster-Left" d="M111.6,104.11l-2.57-15.56l8.61,10.96l0.82,21.48 c-1.49,1.96-3.16,2.16-5.03,0.37L111.6,104.11z" fill="rgb(98, 60, 28)"/>
</g>
</g>
<g id="Right-Holster" class="toggle" style=""><g id="Belt-Holster_Right" class="option" style="display: inherit;">
<g id="Weapon_Belt-Holster-Right">
<g id="Main_Weapon_Belt-Holster-Right" fill="rgb(199, 198, 198)">
<path d="M60.06,89.79l0.25-3.73l-0.65-0.04l0.16-2.35l0.65,0.04l0.08-1.22c0.03-0.4-0.48-0.75-1.14-0.8 c-1.5-0.1-4.08-0.27-5.58-0.37c-0.66-0.04-1.21,0.24-1.24,0.64l-0.08,1.22l0.65,0.04L53,85.57l-0.65-0.04l-0.25,3.73l1.52,0.1 L52.93,99.7l4.91,0.33l0.69-10.33L60.06,89.79z"/>
<path d="M52.79,88.76l0.87,0.06l-0.83,12.42l4.92,0.33l0.83-12.42l0.87,0.06l0.19-2.83l-6.66-0.44L52.79,88.76z"/>
<path d="M54.59,82.18l3.94,0.26l-0.26,3.83l-3.94-0.26L54.59,82.18z"/>
<path d="M57.37,90.19l0.65,0.04l-0.65,9.77l-0.65-0.04L57.37,90.19z"/>
<path d="M55.87,87.85l0.65,0.04l-0.65,9.76l-0.65-0.04L55.87,87.85z"/>
<path d="M54.07,89.97l0.65,0.04l-0.65,9.76l-0.65-0.04L54.07,89.97z"/>
</g>
<g id="Accent_Weapon_Belt-Holster-Right" fill="rgb(0, 0, 0)">
<path d="M57.67,86.63l-0.03,0.39l-2.78-0.18l0.03-0.39L57.67,86.63z"/>
<path d="M57.64,87.02l-0.03,0.39l-2.78-0.18l0.03-0.39L57.64,87.02z"/>
<path d="M57.7,86.24l-0.03,0.39l-2.78-0.18l0.03-0.39L57.7,86.24z"/>
<path d="M58.02,81.43l-0.03,0.39l-2.78-0.18l0.03-0.39L58.02,81.43z"/>
<path d="M57.89,82.4l0.65,0.04l-0.26,3.83l-0.65-0.04L57.89,82.4z"/>
<path d="M54.59,82.18l0.65,0.04l-0.26,3.83l-0.65-0.04L54.59,82.18z"/>
<path d="M54.72,90.01l0.98,0.06l-0.66,9.77l-0.98-0.07L54.72,90.01z"/>
<path d="M56.38,90.12l0.98,0.06l-0.65,9.77l-0.98-0.07L56.38,90.12z"/>
</g>
</g>
<path id="Holster_Belt-Holster-Right" d="M58.39,104.11l2.57-15.56l-8.61,10.96l-0.82,21.48 c1.49,1.96,3.16,2.16,5.03,0.37L58.39,104.11z" fill="rgb(98, 60, 28)"/>
</g>
</g>
<g id="Left-Trophy" class="toggle" style="display:none"/>
<g id="Right-Trophy" class="toggle" style="display:none"/>
</g>
<g id="Under-Belt"><g id="Girth-Belt" class="option" fill="rgb(93, 84, 84)" style="display: inherit;">
<path d="M85.04,76.62c-7.36,0-22.09-1.86-22.09-1.86l0.48-1.58c0,0,14.37,1.24,21.61,1.86 c7.21-0.62,21.61-1.86,21.61-1.86l0.48,1.58C107.13,74.76,92.4,76.62,85.04,76.62z"/>
<path d="M85.04,78.2c-7.52,0-22.55-1.86-22.55-1.86l0.46-1.58c0,0,18.41,1.55,22.09,1.86 c3.68-0.31,22.09-1.86,22.09-1.86l0.46,1.58C107.59,76.34,92.56,78.2,85.04,78.2z"/>
<path d="M85.04,79.78c-7.63,0-22.9-1.86-22.9-1.86l0.34-1.58c0,0,18.79,1.55,22.55,1.86 c3.76-0.31,22.55-1.86,22.55-1.86l0.34,1.58C107.94,77.92,92.67,79.78,85.04,79.78z"/>
<path d="M85.04,81.36c-7.73,0-23.18-1.86-23.18-1.86l0.29-1.58c0,0,19.08,1.55,22.9,1.86 c3.82-0.31,22.9-1.86,22.9-1.86l0.29,1.58C108.22,79.49,92.77,81.36,85.04,81.36z"/>
<path d="M85.04,82.94c-7.81,0-23.44-1.86-23.44-1.86l0.26-1.58c0,0,19.32,1.55,23.18,1.86 c3.86-0.31,23.18-1.86,23.18-1.86l0.26,1.58C108.49,81.07,92.86,82.94,85.04,82.94z"/>
<path d="M85.04,84.52c-7.9,0-23.69-1.86-23.69-1.86l0.25-1.58c0,0,19.54,1.55,23.44,1.86 c3.91-0.31,23.44-1.86,23.44-1.86l0.25,1.58C108.73,82.65,92.94,84.52,85.04,84.52z"/>
<path d="M85.04,86.1c-7.98,0-23.93-1.86-23.93-1.86l0.24-1.58c0,0,19.74,1.55,23.69,1.86 c3.95-0.31,23.69-1.86,23.69-1.86l0.24,1.58C108.97,84.23,93.02,86.1,85.04,86.1z"/>
<path d="M85.04,87.68c-8.06,0-24.18-1.86-24.18-1.86l0.25-1.58c0,0,19.94,1.55,23.93,1.86 c3.99-0.31,23.93-1.86,23.93-1.86l0.25,1.58C109.22,85.81,93.1,87.68,85.04,87.68z"/>
<path d="M85.04,89.25c-8.15,0-24.45-1.86-24.45-1.86l0.27-1.58c0,0,20.15,1.55,24.18,1.86 c4.03-0.31,24.18-1.86,24.18-1.86l0.27,1.58C109.49,87.39,93.19,89.25,85.04,89.25z"/>
<path d="M85.04,90.83c-8.25,0-24.76-1.86-24.76-1.86l0.31-1.58c0,0,20.38,1.55,24.45,1.86 c4.08-0.31,24.45-1.86,24.45-1.86l0.31,1.58C109.8,88.97,93.29,90.83,85.04,90.83z"/>
</g>
</g>
<g id="Belt"><g id="Pouch-Belt-6" class="option" style="display: inherit;">
<path id="Main_Pouch-Belt-6" d="M109.38,84.25c-5.47,0.49-17.98,2.27-24.29,2.27c-6.38,0-18.88-1.79-24.28-2.26 l0.81-6.37c4.44,0.39,17.3,2.2,23.48,2.2c5.99,0,18.59-1.79,23.33-2.22L109.38,84.25z" fill="rgb(163, 163, 163)"/>
<rect id="Buckle_Pouch-Belt-6" x="80.61" y="79.49" width="9.05" height="7.39" fill="rgb(126, 192, 242)"/>
<g id="Pouches_Pouch-Belt-6" fill="rgb(98, 60, 28)">
<g>
<g>
<g>
<path d="M75.55,77.98c-1.42-0.09-2.85,0.13-4.17,0.65l0,0L77.86,79l1.76-0.75 C79.62,78.25,77.35,78.1,75.55,77.98z"/>
<path d="M79.85,78.48c0.01-0.07-0.02-0.14-0.08-0.18c-0.06-0.04-0.14-0.05-0.2-0.02 c-0.57,0.24-1.7,0.73-1.7,0.73l-0.84,9.96c0.71-0.41,1.42-0.64,2.11-0.75c0.1-0.01,0.17-0.1,0.18-0.19 C79.41,84.83,79.53,81.65,79.85,78.48z"/>
<path d="M77.86,79l-6.48-0.37c-0.04,1.51-0.18,3.02-0.26,4.54c-0.09,1.75-0.13,3.52-0.3,5.29 c0,0.06,0.01,0.12,0.05,0.16c0.04,0.04,0.1,0.07,0.15,0.07c2.02-0.01,4.03,0.1,6.04,0.35c0.06,0.01,0.11-0.01,0.16-0.04 c0.04-0.04,0.07-0.09,0.08-0.14c0.06-0.92,0.31-4.51,0.31-4.51L77.86,79z"/>
<path d="M77.86,79l-6.48-0.37c0,0-0.07,0.58-0.16,1.34c-0.11,0.91,0.16,1.83,0.76,2.53 c0.59,0.7,1.45,1.13,2.37,1.19c0,0,0,0,0,0c0.92,0.05,1.82-0.28,2.49-0.91c0.67-0.63,1.04-1.51,1.04-2.43 C77.87,79.58,77.86,79,77.86,79z"/>
<path d="M74.42,82.49c0.23,0.01,0.41,0.21,0.39,0.44c-0.01,0.23-0.21,0.4-0.44,0.39 c-0.23-0.01-0.41-0.21-0.39-0.44C73.99,82.65,74.19,82.48,74.42,82.49z"/>
</g>
</g>
<g>
<g>
<path d="M66.42,76.75c-1.32-0.09-2.64,0.14-3.85,0.67h0l5.92,0.34L70.1,77C70.1,77,68.06,76.86,66.42,76.75z"/>
<path d="M70.3,77.24c0.01-0.07-0.03-0.14-0.09-0.19c-0.06-0.04-0.14-0.05-0.21-0.02 c-0.53,0.25-1.52,0.72-1.52,0.72l-0.82,9.96c0.65-0.41,1.29-0.65,1.92-0.76c0.1-0.02,0.17-0.1,0.17-0.19 C69.87,83.59,69.99,80.41,70.3,77.24z"/>
<path d="M68.49,77.76l-5.92-0.34c-0.04,1.51-0.18,3.02-0.26,4.54c-0.09,1.75-0.13,3.51-0.3,5.28 c-0.01,0.06,0.01,0.12,0.05,0.16c0.04,0.04,0.1,0.07,0.15,0.07c1.83-0.02,3.66,0.08,5.47,0.31c0.06,0.01,0.11-0.01,0.16-0.04 s0.07-0.09,0.08-0.14c0.06-0.93,0.31-4.51,0.31-4.51L68.49,77.76z"/>
<path d="M68.49,77.76l-5.92-0.34c0,0-0.08,0.74-0.19,1.64c-0.1,0.83,0.16,1.67,0.7,2.31 c0.54,0.64,1.33,1.03,2.17,1.08c0,0,0,0,0,0c0.84,0.05,1.67-0.25,2.28-0.83c0.61-0.58,0.96-1.38,0.96-2.22 C68.49,78.5,68.49,77.76,68.49,77.76z"/>
<path d="M65.32,81.27c0.21,0.01,0.37,0.21,0.36,0.44c-0.01,0.23-0.19,0.4-0.4,0.39s-0.37-0.21-0.36-0.44 C64.93,81.43,65.11,81.26,65.32,81.27z"/>
</g>
</g>
<g>
<path d="M58.83,77.31l0.44-0.68l2.27,0.07l0.28,0.85L58.83,77.31z"/>
<path d="M61.81,77.64c0.01-0.06-0.01-0.11-0.05-0.16c-0.04-0.04-0.09-0.07-0.15-0.07 c-0.69-0.03-2.78-0.11-2.78-0.11l-0.4,8.96c0.11,0.27,1.76,0.43,2.69,0.39c0.11-0.01,0.19-0.09,0.19-0.2 C61.37,83.51,61.47,80.57,61.81,77.64z"/>
</g>
</g>
<g>
<g>
<g>
<path d="M94.63,77.98c1.42-0.09,2.85,0.13,4.17,0.65l0,0L92.32,79l-1.76-0.75 C90.56,78.25,92.83,78.1,94.63,77.98z"/>
<path d="M90.33,78.48c-0.01-0.07,0.02-0.14,0.08-0.18c0.06-0.04,0.14-0.05,0.2-0.02c0.57,0.24,1.7,0.73,1.7,0.73 l0.84,9.96c-0.71-0.41-1.42-0.64-2.11-0.75c-0.1-0.01-0.17-0.1-0.18-0.19C90.77,84.83,90.66,81.65,90.33,78.48z"/>
<path d="M92.32,79l6.48-0.37c0.04,1.51,0.18,3.02,0.26,4.54c0.09,1.75,0.13,3.52,0.3,5.29 c0,0.06-0.01,0.12-0.05,0.16c-0.04,0.04-0.1,0.07-0.15,0.07c-2.02-0.01-4.03,0.1-6.04,0.35c-0.06,0.01-0.11-0.01-0.16-0.04 c-0.04-0.04-0.07-0.09-0.08-0.14c-0.06-0.92-0.31-4.51-0.31-4.51L92.32,79z"/>
<path d="M92.32,79l6.48-0.37c0,0,0.07,0.58,0.16,1.34c0.11,0.91-0.16,1.83-0.76,2.53 c-0.59,0.7-1.45,1.13-2.37,1.19c0,0,0,0,0,0c-0.92,0.05-1.82-0.28-2.49-0.91c-0.67-0.63-1.04-1.51-1.04-2.43 C92.31,79.58,92.32,79,92.32,79z"/>
<path d="M95.76,82.49c-0.23,0.01-0.41,0.21-0.39,0.44c0.01,0.23,0.21,0.4,0.44,0.39 c0.23-0.01,0.41-0.21,0.39-0.44C96.19,82.65,96,82.48,95.76,82.49z"/>
</g>
</g>
<g>
<g>
<path d="M103.76,76.75c1.32-0.09,2.64,0.14,3.85,0.67h0l-5.92,0.34L100.08,77 C100.08,77,102.13,76.86,103.76,76.75z"/>
<path d="M99.88,77.24c-0.01-0.07,0.03-0.14,0.09-0.19c0.06-0.04,0.14-0.05,0.21-0.02 c0.53,0.25,1.52,0.72,1.52,0.72l0.82,9.96c-0.65-0.41-1.29-0.65-1.92-0.76c-0.1-0.02-0.17-0.1-0.17-0.19 C100.31,83.59,100.19,80.41,99.88,77.24z"/>
<path d="M101.69,77.76l5.92-0.34c0.04,1.51,0.18,3.02,0.26,4.54c0.09,1.75,0.13,3.51,0.3,5.28 c0,0.06-0.01,0.12-0.05,0.16c-0.04,0.04-0.1,0.07-0.15,0.07c-1.83-0.02-3.66,0.08-5.47,0.31c-0.06,0.01-0.11-0.01-0.16-0.04 s-0.07-0.09-0.08-0.14c-0.06-0.93-0.31-4.51-0.31-4.51L101.69,77.76z"/>
<path d="M101.69,77.76l5.92-0.34c0,0,0.08,0.74,0.19,1.64c0.09,0.83-0.16,1.67-0.7,2.31 c-0.54,0.64-1.33,1.03-2.17,1.08c0,0,0,0,0,0c-0.84,0.05-1.67-0.25-2.28-0.83c-0.61-0.58-0.96-1.38-0.96-2.22 C101.69,78.5,101.69,77.76,101.69,77.76z"/>
<path d="M104.86,81.27c-0.21,0.01-0.37,0.21-0.36,0.44c0.01,0.23,0.19,0.4,0.4,0.39s0.37-0.21,0.36-0.44 C105.25,81.43,105.07,81.26,104.86,81.27z"/>
</g>
</g>
<g>
<path d="M111.35,77.31l-0.44-0.68l-2.27,0.07l-0.28,0.85L111.35,77.31z"/>
<path d="M108.38,77.64c-0.01-0.06,0.01-0.11,0.05-0.16c0.04-0.04,0.09-0.07,0.15-0.07 c0.69-0.03,2.78-0.11,2.78-0.11l0.4,8.96c-0.11,0.27-1.75,0.43-2.68,0.39c-0.11-0.01-0.19-0.09-0.19-0.2 C108.81,83.51,108.71,80.57,108.38,77.64z"/>
</g>
</g>
</g>
</g></g>
</g>
<g id="WaistDecals" mask="url(#WaistMask)">
</g>
<g id="Extras_Front">
<g id="Front"><g id="None_Front" class="option" style="display: inherit;">
</g>
</g>
</g>
<g id="Extras-FrontDecals" mask="url(#FrontMask)">
</g>
</g>
</svg>