<?xml version='1.0' encoding='UTF-8'?>
<svg version="1.1" id="Female-Body" xmlns="http://www.w3.org/2000/svg" xmlns:serif="http://www.serif.com/" viewBox="0 -55 170 300" style="fill-rule: evenodd; stroke-width: 0.2px; stroke-linejoin: round;" width="170" height="300">
<style>
mask {
mask-type: alpha;
}
.decal {
stroke: none;
}
</style>
<defs id="Masks" stroke="none">
<mask id="HelmetsMask"> <use href="#Helmets"/> </mask>
<mask id="CollarMask"> <use href="#Collar"/> </mask>
<mask id="ShouldersMask"> <use href="#Shoulders"/> </mask>
<mask id="ChestMask"> <use href="#Chest"/> </mask>
<mask id="BicepsMask"> <use href="#Biceps"/> </mask>
<mask id="GauntletsMask"> <use href="#Gauntlets"/> </mask>
<mask id="WaistMask"> <use href="#Waist"/> </mask>
<mask id="GroinMask"> <use href="#Groin"/> </mask>
<mask id="ThighsMask"> <use href="#Thighs"/> </mask>
<mask id="KneesMask"> <use href="#Knees"/> </mask>
<mask id="ShinsMask"> <use href="#Shins"/> </mask>
<mask id="FootMask"> <use href="#Foot"/> </mask>
</defs>
<defs id="Decals"/><metadata><rdf:rdf xmlns:rdf="http://www.w3.org/1999/02/22-rdf-syntax-ns#" xmlns:rdfs="http://www.w3.org/2000/01/rdf-schema#" xmlns:dc="http://purl.org/dc/elements/1.1/"><rdf:description><dc:creator>MandoCreator</dc:creator><dc:publisher>https://www.mandocreator.com</dc:publisher><dc:description>Your Beskar'gam - created by MandoCreator</dc:description><dc:format>image/svg+xml</dc:format><dc:type>Image</dc:type><dc:title>MandoCreator - Ner Berskar'gam</dc:title><dc:date>2022-01-02T16:22:34.515Z</dc:date></rdf:description></rdf:rdf></metadata><g id="Main-Body" fill="white" stroke="black">
<g id="Extras_Back">
<g id="Back"><g id="NO-CAPES_Back" class="option" style="display: inherit;">
</g>
</g>
</g>
<g id="Extras-BackDecals" mask="url(#BackMask)">
</g>
<g id="Suit">
<g id="Neck-Seal"><g id="Standard-Neck-Seal" class="option" fill="rgb(0, 0, 0)" style="display: inherit;">
<path d="M95.96,3.46c0-0.93-0.74-1.69-1.65-1.69c0,0-6.22,0.89-9.33,0.89c-3.11,0-9.33-0.89-9.33-0.89 c-0.91,0-1.65,0.76-1.65,1.69c0,0.93,0.74,1.69,1.65,1.69c0,0,6.22,0.89,9.33,0.89c3.11,0,9.33-0.89,9.33-0.89 C95.22,5.15,95.96,4.39,95.96,3.46z"/>
<path d="M96.51,5.43c0-0.98-0.78-1.77-1.73-1.77c0,0-6.53,0.93-9.8,0.93s-9.8-0.93-9.8-0.93 c-0.96,0-1.73,0.79-1.73,1.77c0,0.98,0.78,1.77,1.73,1.77c0,0,6.53,0.93,9.8,0.93s9.8-0.93,9.8-0.93 C95.74,7.21,96.51,6.41,96.51,5.43z"/>
<path d="M97.14,7.88c0-1.03-0.82-1.87-1.83-1.87c0,0-6.89,0.98-10.33,0.98c-3.44,0-10.33-0.98-10.33-0.98 c-1.01,0-1.83,0.84-1.83,1.87s0.82,1.87,1.83,1.87c0,0,6.89,0.98,10.33,0.98c3.44,0,10.33-0.98,10.33-0.98 C96.32,9.75,97.14,8.91,97.14,7.88z"/>
<path d="M97.75,10.13c0-1.08-0.86-1.96-1.92-1.96c0,0-7.23,1.03-10.85,1.03c-3.62,0-10.85-1.03-10.85-1.03 c-1.06,0-1.92,0.88-1.92,1.96c0,1.08,0.86,1.96,1.92,1.96c0,0,7.23,1.03,10.85,1.03c3.62,0,10.85-1.03,10.85-1.03 C96.89,12.09,97.75,11.21,97.75,10.13z"/>
<path d="M98.36,12.33c0-0.82-0.9-1.48-2.01-1.48c0,0-7.58,0.78-11.36,0.78s-11.36-0.78-11.36-0.78 c-1.11,0-2.01,0.66-2.01,1.48c0,0.82,0.9,1.48,2.01,1.48c0,0,7.58,0.78,11.36,0.78s11.36-0.78,11.36-0.78 C97.46,13.81,98.36,13.14,98.36,12.33z"/>
<path d="M98.36,14.8c0-0.82-0.9-1.48-2.01-1.48c0,0-7.58,0.78-11.36,0.78s-11.36-0.78-11.36-0.78 c-1.11,0-2.01,0.66-2.01,1.48c0,0.82,0.9,1.48,2.01,1.48c0,0,7.58,1.5,11.36,1.5s11.36-1.5,11.36-1.5 C97.46,16.28,98.36,15.62,98.36,14.8z"/>
</g>
</g>
<g id="Flight-Suit" fill="rgb(68, 68, 68)">
<path d="M38.1,60.17l5.2-18.8l12.15-8.13l1.9,16.49c0,0-5.25,9.95-7.06,14.51c-1.86,4.7-5.09,15.42-5.5,16.81 l-2.88,24.91l-8.36-2.66c0,0-0.3-17.29,0.46-24.47C34.68,72.42,38.1,60.17,38.1,60.17z"/>
<path d="M131.9,60.17l-5.22-18.86l-12.06-8.07l-1.92,16.59c0,0,5.2,9.85,7.01,14.41c1.86,4.7,5.09,15.42,5.5,16.81 l2.88,24.91l8.36-2.66c0,0,0.3-17.29-0.46-24.47C135.32,72.42,131.9,60.17,131.9,60.17z"/>
<path d="M84.99,113.44c-1.03,0.1-1.95,0.5-2.29,1.22c-3,6.3-9.17,35.13-10.95,40.44c-0.97,2.89-1.74,18.7-3.38,27.92 c-1.96,11.01-8.39,38.11-8.39,38.11l-11.15-1.15c0,0-1.44-27.22-1.04-37.12c0.3-7.53,3.42-22.31,3.42-22.31s0.67-5.4,0.69-8.12 c0.06-9.82,0.93-31.66,2.88-44.2C56.3,98.31,65.7,77.5,65.7,77.5s12.18,4.76,19.34,4.76c7.16,0,19.44-4.86,19.44-4.86 s8.88,20.92,10.42,30.83c1.95,12.54,3.24,34.38,3.3,44.2c0.02,2.72,0.69,8.12,0.69,8.12s3.12,14.79,3.42,22.31 c0.4,9.91-1.04,37.12-1.04,37.12l-11.15,1.15c0,0-6.43-27.1-8.39-38.11c-1.64-9.22-2.41-25.03-3.38-27.92 c-1.78-5.31-7.96-34.13-10.95-40.44c-0.35-0.73-1.3-1.14-2.34-1.23L84.99,113.44z"/>
</g>
<g id="Sleeves" class="toggle" style="display: none;" fill="rgb(255, 255, 255)"/>
</g>
<g id="Boots"><g id="Gunslinger_Boots" class="option" style="display: inherit;">
<g id="Main_Gunslinger-Boot" fill="rgb(5, 21, 72)">
<path d="M62.27,227.49c-0.04,0.18-0.66,3.1-3.88,3.9c-1.07,0.27-2.91-0.3-4.07-0.89c-1.58-0.8-3.24-1.43-4.94-1.93 l-0.05,0.07c-0.03,0.04-0.05,0.07-0.08,0.11c-0.53,0.74-1.1,1.43-1.72,2.05l-0.05,0.05l-0.03,0.03 c-0.06,0.06-0.12,0.12-0.19,0.18c-0.36,0.35-0.73,0.67-1.12,0.97l-0.11,0.08l-0.09,0.07c-0.03,0.02-0.05,0.04-0.08,0.06 c-0.06,0.04-0.12,0.09-0.18,0.13c-0.8,0.56-1.87,1.42-2.94,1.26c-1-0.15-2.13-0.55-2.97-0.95c-0.71-0.34-1.44-0.79-1.94-1.27 c-0.14-0.11-0.27-0.24-0.36-0.4c-2.33,0.91-4.87,1.25-6.11,3.84c-0.27,0.56-0.5,1.23-0.44,1.86c0.07,0.81,0.96,0.91,1.65,1.09 c1.72,0.46,3.21,0.81,5.2,1.22c2.27,0.47,4.32,0.75,6.62,0.66c1.72-0.07,3.17-0.16,4.67-1.08c0.6-0.37,1.22-0.74,1.74-1.23 c1.17-1.08,1.91-2.21,3.42-2.86c1.09-0.48,2.21-0.87,3.37-1.16c1.64-0.41,3.4-0.69,4.26-2.31 C62.53,229.81,62.45,228.67,62.27,227.49L62.27,227.49"/>
<path d="M107.8,227.49c0.04,0.18,0.66,3.1,3.88,3.9c1.08,0.27,2.91-0.3,4.07-0.89c1.58-0.8,3.25-1.43,4.94-1.93 l0.05,0.07c0.03,0.04,0.05,0.07,0.08,0.11c0.53,0.74,1.1,1.43,1.72,2.05l0.05,0.05l0.03,0.03c0.06,0.06,0.12,0.12,0.19,0.18 c0.36,0.35,0.73,0.67,1.12,0.97l0.11,0.08l0.09,0.07c0.03,0.02,0.05,0.04,0.08,0.06c0.06,0.04,0.12,0.09,0.18,0.13 c0.8,0.56,1.87,1.42,2.94,1.26c1-0.15,2.13-0.55,2.97-0.95c0.71-0.34,1.44-0.79,1.94-1.27c0.14-0.11,0.27-0.24,0.36-0.4 c2.33,0.91,4.87,1.25,6.11,3.84c0.27,0.56,0.5,1.23,0.44,1.86c-0.07,0.81-0.96,0.91-1.65,1.09c-1.72,0.46-3.21,0.81-5.2,1.22 c-2.27,0.47-4.32,0.75-6.62,0.66c-1.72-0.07-3.17-0.16-4.67-1.08c-0.6-0.37-1.22-0.74-1.74-1.23c-1.17-1.08-1.91-2.21-3.42-2.86 c-1.09-0.48-2.21-0.87-3.37-1.16c-1.64-0.41-3.4-0.69-4.26-2.31C107.55,229.81,107.62,228.67,107.8,227.49L107.8,227.49"/>
</g>
<g id="Bottom_Gunslinger-Boot" fill="rgb(64, 34, 7)">
<path d="M62.33,229.7c-0.07,0.44-0.22,0.89-0.46,1.35c-0.86,1.62-2.62,1.9-4.26,2.31c-1.16,0.29-2.28,0.68-3.37,1.16 c-1.51,0.65-2.26,1.78-3.42,2.86c-0.52,0.48-1.14,0.86-1.74,1.23c-1.5,0.92-2.96,1.01-4.67,1.08c-2.3,0.1-4.35-0.18-6.62-0.66 c-1.99-0.41-3.48-0.76-5.2-1.22c-0.55-0.15-1.23-0.24-1.52-0.69l0,0l-0.33,0.73l-0.19,1.49c0,0,1.85,0.99,3.81,1.43 c1.97,0.44,5.93,1.05,5.93,1.05l0.27-0.65l0.89,0.19l-0.04,0.64l2.16,0.12l0.46-0.62l0.72,0.02l-0.11,0.55 c0,0,1.34-0.02,2.08-0.46c0.14-0.21,0.41-0.55,0.41-0.55l0.51-0.28l-0.07,0.52l1.86-0.67l0.09-0.72l0.53-0.31l0.02,0.52 l1.32-1.02l0.14-0.63l3.31-2.32l0.51,1.21l2.32-0.5l0.08-0.5l0.59-0.24l0.41,0.38l1.56-0.64l0.03-0.46l0.5-0.18l0.06,0.34 l1.48-1.01l0.28-2.02l0.06-2.2L62.33,229.7L62.33,229.7"/>
<path d="M107.74,229.7c0.07,0.44,0.22,0.89,0.46,1.35c0.86,1.62,2.62,1.9,4.26,2.31c1.16,0.29,2.28,0.68,3.37,1.16 c1.51,0.65,2.26,1.78,3.42,2.86c0.52,0.48,1.14,0.86,1.74,1.23c1.5,0.92,2.96,1.01,4.67,1.08c2.3,0.1,4.35-0.18,6.62-0.66 c1.99-0.41,3.48-0.76,5.2-1.22c0.55-0.15,1.23-0.24,1.52-0.69l0,0l0.33,0.73l0.19,1.49c0,0-1.85,0.99-3.81,1.43 c-1.97,0.44-5.93,1.05-5.93,1.05l-0.27-0.65l-0.89,0.19l0.04,0.64l-2.16,0.12l-0.46-0.62l-0.72,0.02l0.11,0.55 c0,0-1.34-0.02-2.08-0.46c-0.14-0.21-0.41-0.55-0.41-0.55l-0.51-0.28l0.07,0.52l-1.86-0.67l-0.09-0.72l-0.53-0.31l-0.02,0.52 l-1.32-1.02l-0.14-0.63l-3.31-2.32l-0.51,1.21l-2.32-0.5l-0.08-0.5l-0.59-0.24l-0.41,0.38l-1.56-0.64l-0.03-0.46l-0.5-0.18 l-0.06,0.34l-1.48-1.01l-0.28-2.02l-0.06-2.2L107.74,229.7L107.74,229.7"/>
</g>
<g id="Top_Gunslinger-Boot" fill="rgb(5, 21, 72)">
<path d="M49.4,228.54c1.98-2.82,3.31-6.29,3.78-9.35l0,0l-0.55-0.05l-0.02,0l-0.07-0.01l-0.18-0.02l-0.28-0.03 l-0.12-0.02c-0.32-0.04-0.64-0.08-0.95-0.13l-0.49-0.09l-0.1-0.02l-0.03-0.01l-0.08-0.02l-0.34-0.08l-0.3-0.08l-0.05-0.01 c-1.05-0.26-0.91-0.48-0.91-0.48c-0.29,1.35-0.92,2.78-1.49,4.04c-0.89,1.98-2.73,3.69-4.25,5.2c-1.05,1.04-2.57,2.02-3.82,2.82 c-0.53,0.34-1.1,0.6-1.68,0.82c0.44,0.61,1.4,1.24,2.3,1.67c0.84,0.4,1.97,0.8,2.97,0.95c1.07,0.15,2.14-0.7,2.94-1.26 c1.39-0.98,2.63-2.3,3.69-3.8L49.4,228.54"/>
<path d="M120.67,228.54c-1.97-2.82-3.31-6.29-3.78-9.35l0,0l0.55-0.05l0.02,0l0.07-0.01l0.18-0.02l0.28-0.03 l0.11-0.02c0.32-0.04,0.64-0.08,0.95-0.13l0.49-0.09l0.1-0.02l0.04-0.01l0.08-0.02l0.34-0.08l0.3-0.08l0.05-0.01 c1.05-0.26,0.91-0.48,0.91-0.48c0.29,1.35,0.92,2.78,1.49,4.04c0.89,1.98,2.73,3.69,4.25,5.2c1.05,1.04,2.57,2.02,3.82,2.82 c0.53,0.34,1.1,0.6,1.68,0.82c-0.44,0.61-1.4,1.24-2.3,1.67c-0.84,0.4-1.97,0.8-2.97,0.95c-1.07,0.15-2.14-0.7-2.94-1.26 c-1.39-0.98-2.63-2.3-3.68-3.8L120.67,228.54"/>
</g>
<g id="Side_Gunslinger-Boot" fill="rgb(11, 96, 125)">
<path d="M49.38,228.58c1.7,0.49,3.36,1.12,4.94,1.93c1.16,0.59,3,1.15,4.07,0.89c3.33-0.83,3.88-3.91,3.88-3.91 c-0.1-0.67-0.84-3.25-1.06-3.94c-0.48-1.54-0.43-5.45-0.55-5.39c-2.67,1.41-6.12,1.16-7.48,1.05l0,0 C52.71,222.26,51.37,225.74,49.38,228.58"/>
<path d="M120.69,228.58c-1.7,0.49-3.36,1.12-4.94,1.93c-1.16,0.59-2.99,1.15-4.07,0.89 c-3.32-0.83-3.88-3.91-3.88-3.91c0.1-0.67,0.84-3.25,1.06-3.94c0.48-1.54,0.43-5.45,0.55-5.39c2.67,1.41,6.12,1.16,7.48,1.05l0,0 C117.36,222.26,118.71,225.74,120.69,228.58"/>
</g>
</g></g>
<g id="Gloves">
<g id="Left-Glove">
<g id="Fingerless_Left_Glove" class="option" style="display: inherit;">
<g id="Fingers_Fingerless_Left_Glove" fill="rgb(239, 169, 100)">
<path d="M133.16,120.46c-0.46-0.03-0.9-0.01-1.36,0.09c-0.31,0.07-0.62,0.16-0.9,0.34 c-0.85,0.55-0.62,1.76,0.14,2.21c0.89,0.53,2.29,0.01,2.69-1.02C133.9,121.66,133.39,120.86,133.16,120.46"/>
<path d="M131.6,121.51c-0.46-0.02-0.9-0.02-1.36,0.09c-0.31,0.07-0.62,0.16-0.9,0.34 c-0.85,0.55-0.62,1.76,0.14,2.21c0.89,0.53,2.29,0.01,2.69-1.02C132.34,122.71,131.83,121.91,131.6,121.51"/>
<path d="M130.51,122.89c-0.46,0.05-1.04,0.16-1.48,0.34c-0.3,0.12-0.59,0.25-0.85,0.47 c-0.78,0.68-0.4,1.83,0.4,2.17c0.94,0.39,2.27-0.34,2.55-1.42C131.24,124.01,130.51,122.89,130.51,122.89z"/>
<path d="M125.73,116.29c-0.26,1.3-0.47,2.01-0.47,2.01s-1.18,2.71-0.98,3.34c0.21,0.62,1.25,1.18,1.84,0.85 c0.74-0.41,1.66-2.32,2.24-3.67c0.21-0.5,0.41-1.07,0.58-1.59C126.58,117.61,125.73,116.29,125.73,116.29L125.73,116.29z"/>
<path d="M130.61,122.69c-0.17,0.33-0.37,0.68-0.59,1.05c-1.17,1.99-2.97,3.7-1.78,5.22 c1.11,1.42,3.63-2.31,3.63-2.31l1.17-1.72C131.1,124.42,130.62,122.7,130.61,122.69z"/>
</g>
<path id="Glove_Fingerless_Left_Glove" d="M133.04,124.93l1.3-1.91c0,0,2.84-5.26,2.98-6.28 c0.11-0.78,0.01-3.38,0.01-3.38l-0.89-10.08l-4.5,0.42l-3.7,1.36l-0.28,1.72c0,0-1.34,2.09-1.69,3.59 c-0.25,1.06-0.11,3.58-0.43,5.28c-0.04,0.22-0.08,0.43-0.12,0.63l0,0c0,0,0.85,1.33,3.22,0.93c0.3-0.93,0.5-1.73,0.5-1.73 s0.81,0.32,1.23,0.68c1.38,1.2,0.78,4.82,0.78,4.82s-0.32,0.72-0.84,1.7C130.62,122.7,131.1,124.42,133.04,124.93z" fill="rgb(19, 6, 61)"/>
</g></g>
<g id="Right-Glove">
<g id="Fingerless_Right_Glove" class="option" style="display: inherit;">
<g id="Fingers_Fingerless_Right_Glove" fill="rgb(239, 169, 100)">
<path d="M36.86,120.46c0.46-0.03,0.9-0.01,1.36,0.09c0.31,0.07,0.62,0.16,0.9,0.34c0.85,0.55,0.62,1.76-0.14,2.21 c-0.89,0.53-2.29,0.01-2.69-1.02C36.12,121.66,36.64,120.86,36.86,120.46"/>
<path d="M38.42,121.51c0.46-0.02,0.9-0.02,1.36,0.09c0.31,0.07,0.62,0.16,0.9,0.34c0.85,0.55,0.62,1.76-0.14,2.21 c-0.89,0.53-2.29,0.01-2.69-1.02C37.68,122.71,38.2,121.91,38.42,121.51"/>
<path d="M39.52,122.89c0.46,0.05,1.04,0.16,1.48,0.34c0.3,0.12,0.6,0.25,0.85,0.47c0.78,0.68,0.4,1.83-0.4,2.17 c-0.94,0.39-2.27-0.34-2.55-1.42C38.78,124.01,39.52,122.89,39.52,122.89z"/>
<path d="M44.29,116.29c0.26,1.3,0.47,2.01,0.47,2.01s1.18,2.71,0.98,3.34c-0.21,0.62-1.24,1.18-1.84,0.85 c-0.74-0.41-1.66-2.32-2.24-3.67c-0.21-0.5-0.41-1.07-0.58-1.59C43.45,117.61,44.29,116.29,44.29,116.29L44.29,116.29z"/>
<path d="M39.41,122.69c0.17,0.33,0.37,0.68,0.59,1.05c1.17,1.99,2.97,3.7,1.78,5.22c-1.11,1.42-3.63-2.31-3.63-2.31 l-1.17-1.72C38.92,124.42,39.41,122.7,39.41,122.69z"/>
</g>
<path id="Glove_Fingerless_Right_Glove" d="M36.98,124.93l-1.3-1.91c0,0-2.84-5.26-2.98-6.28 c-0.11-0.78-0.01-3.38-0.01-3.38l0.89-10.08l4.5,0.42l3.7,1.36l0.28,1.72c0,0,1.34,2.09,1.69,3.59c0.25,1.06,0.11,3.58,0.43,5.28 c0.04,0.22,0.08,0.43,0.12,0.63l0,0c0,0-0.85,1.33-3.22,0.93c-0.3-0.93-0.5-1.73-0.5-1.73s-0.81,0.32-1.23,0.68 c-1.38,1.2-0.78,4.82-0.78,4.82s0.32,0.72,0.84,1.7C39.41,122.7,38.92,124.42,36.98,124.93z" fill="rgb(19, 6, 61)"/>
</g></g>
</g>
<g id="Biceps">
<g id="Left-Biceps">
<g id="None_Biceps_Left" class="option" style="display: inherit;">
</g></g>
<g id="Right-Biceps">
<g id="None_Biceps_Right" class="option" style="display: inherit;">
</g></g>
</g>
<g id="BicepsDecals" mask="url(#BicepsMask)">
</g>
<path id="Vest" d="M91.61,82.96c-4.3,0.88-8.84,0.88-13.14,0c-4.33-0.88-12.83-5.29-12.83-5.29s-7.42-23.26-8.75-30.06 c-1.06-5.39-1.42-14.37-1.42-14.37l-12.73,8.52l-2.71-1.15c0,0,7.62-16.73,12.62-21.57c4.53-4.39,17.42-7.5,17.42-7.5 s5.68,6.2,14.97,6.25c8.84,0.04,14.97-6.25,14.97-6.25s12.89,3.12,17.42,7.5c5.01,4.85,12.62,21.57,12.62,21.57l-2.71,1.15 l-12.73-8.52c0,0-0.36,8.98-1.42,14.37c-1.33,6.79-8.76,30.06-8.76,30.06S95.93,82.08,91.61,82.96z" fill="rgb(19, 6, 61)"/>
<g id="SuitDecals" mask="url(#SuitMask)">
</g>
<g class="swappable" id="Chest"><g id="Chest_Legacy">
<g id="Abdomen_Legacy">
<path id="Plate-4_Upper-Armor_Legacy" d="M94.67,66.18l-1.31-1.21l-8.36-1.21l-8.36,1.21l-1.31,1.21l-15.76-2.43 l0.54,6.79l24.93,3.86l24.83-3.86l0.54-6.79L94.67,66.18z" fill="rgb(5, 21, 72)"/>
<path id="Plate-3_Upper-Armor_Legacy" d="M94.99,60.12l-1.35-1.21l-8.64-1.22l-8.64,1.22l-1.35,1.21l-16.28-2.43 l0.56,6.79l25.76,3.86l25.65-3.86l0.56-6.79L94.99,60.12z" fill="rgb(5, 21, 72)"/>
<path id="Plate-2_Upper-Armor_Legacy" d="M95.32,53.86l-1.39-1.21l-8.92-1.22l-8.92,1.22l-1.39,1.21l-16.82-2.43 l0.58,6.79l26.61,3.86l26.5-3.86l0.58-6.79L95.32,53.86z" fill="rgb(5, 21, 72)"/>
<path id="Plate-1_Upper-Armor_Legacy" d="M95.76,46.93l-1.46-1.29l-9.3-1.29l-9.3,1.29l-1.46,1.29H56.71l0.6,4.63 l27.75,4.1l27.64-4.1l0.61-4.63H95.76z" fill="rgb(5, 21, 72)"/>
<g id="Trauma-Plates_Abdomen_Legacy" class="toggle" style="">
<path id="Trauma-Plate-4_Abdomen_Legacy" class="toggle" d="M85.06,68.34l24.15-3.64l-0.36,4.57l-23.79,3.7l-23.89-3.7 l-0.36-4.57L85.06,68.34z" fill="rgb(11, 96, 125)"/>
<path id="Trauma-Plate-3_Abdomen_Legacy" class="toggle" d="M85.06,62.08l24.99-3.64l-0.42,5.04l-24.57,3.7l-24.67-3.7 l-0.42-5.04L85.06,62.08z" fill="rgb(11, 96, 125)"/>
<path id="Trauma-Plate-2_Abdomen_Legacy" class="toggle" d="M85.06,55.67l25.86-3.84l-0.48,5.57l-25.39,3.7l-25.49-3.7 l-0.48-5.58L85.06,55.67z" fill="rgb(11, 96, 125)"/>
<path id="Trauma-Plate-1_Abdomen_Legacy" class="toggle" d="M58.17,47.22h16.18l1.46-1.1l9.17-1.08l9.18,1.08l1.46,1.1 h16.21l-0.37,2.83l-26.41,3.92l-26.52-3.92L58.17,47.22z" fill="rgb(11, 96, 125)"/>
</g>
</g>
<g id="Chest-Plates_Legacy">
<g id="Left-Chest_Legacy">
<path id="Chest_Left_Legacy" d="M85.01,25.14v19.91l9.17,1.08l1.46,1.1h17.63l1.32-0.81l0.59-11.95l-4.57-12.31 L85.01,25.14z" fill="rgb(5, 21, 72)"/>
<path id="Trauma-Plating_Left-Chest_Legacy" class="toggle" style="" d="M109.55,24.59l3.52,10.1L112.5,45.2l-16.15,0.11 l-2.17-2.97h-7.68l2.58-2.37l0.2-10.21l-2.6-2.42L109.55,24.59z" fill="rgb(11, 96, 125)"/>
</g>
<g id="Right-Chest_Legacy">
<path id="Chest_Right_Legacy" d="M84.99,25.14v19.91l-9.17,1.08l-1.46,1.1H56.72l-1.32-0.81l-0.59-11.95 l4.57-12.31L84.99,25.14z" fill="rgb(5, 21, 72)"/>
<path id="Trauma-Plating_Right-Chest_Legacy" class="toggle" style="" d="M60.45,24.59l-3.52,10.1L57.5,45.2l16.15,0.11 l2.17-2.97h7.68l-2.58-2.37l-0.2-10.21l2.6-2.42L60.45,24.59z" fill="rgb(11, 96, 125)"/>
</g>
</g>
<g id="Iron-Heart_Legacy">
<path id="Heart_Legacy" d="M82.56,38.58V30.3l2.45-1.91l2.45,1.91v8.27l-2.45,2.45L82.56,38.58z" fill="rgb(19, 6, 61)"/><g id="None_Heart_Legacy" class="option" style="display: inherit;"> </g>
</g>
<g id="Neck-Armor_Legacy">
<path id="Neck-Plate_Legacy" d="M75.29,23.97l-15.93-1.82l1.27-8.74l10.5-3.12c0,0,1.39,2.33,2.4,3.16 c1.03,0.84,2.41,1.83,3.71,2.39c1.42,0.61,3.14,1.02,4.79,1.29c1.85,0.3,4.55,0.3,6.4,0c1.65-0.26,3.55-0.67,4.97-1.29 c1.3-0.56,2.5-1.55,3.53-2.39c1.01-0.83,2.4-3.16,2.4-3.16l10.5,3.12l0.85,8.74l-15.48,1.78l-10.12,1.21L75.29,23.97" fill="rgb(5, 21, 72)"/>
<path id="Trauma-Plates_Neck_Legacy" class="toggle" style="display:none" d="M86.56,19.01c0.77-0.04,1.51-0.11,2.15-0.21 c1.79-0.29,3.86-0.75,5.4-1.42c1.44-0.63,2.8-1.71,3.95-2.65c0.65-0.53,1.45-1.61,2.03-2.45l8.08,2.4l0.58,5.99l-13.77,1.58 c0,0-0.01,0-0.01,0l-8.41,1V19.01z M83.44,23.25L75.5,22.3c0,0-0.01,0-0.01,0l-14.14-1.61l0.86-5.98l8.13-2.41 c0.57,0.84,1.38,1.91,2.03,2.45c1.15,0.93,2.69,2.02,4.13,2.65c1.55,0.67,3.43,1.13,5.22,1.42c0.52,0.08,1.1,0.15,1.72,0.19 V23.25z" fill="rgb(255, 255, 255)"/>
</g>
</g></g>
<g id="ChestDecals" mask="url(#ChestMask)">
</g>
<g id="Chest-Attachments"><g id="Bandoleer_Accessories_Chest" class="option" style="display: inherit;">
<g id="Strap_Bandoleer_Accessories_Chest" fill="rgb(139, 87, 42)">
<path d="M113.84,15.17L107,11.85L69.01,80.32l6.86,3.76L113.84,15.17"/>
<path d="M111.97,13.92l-2.6-1.21l-8.66,15.61l2.51,1.37L111.97,13.92"/>
<path d="M99.7,36.44l-2.86-1.57l-13.31,24l2.87,1.57L99.7,36.44"/>
<path d="M99.98,37.35l-4.07-2.23l-1.33,2.4l4.07,2.23L99.98,37.35"/>
<path d="M98.36,40.26l-4.07-2.23l-1.33,2.41l4.07,2.23L98.36,40.26"/>
<path d="M96.75,43.17l-4.07-2.23l-1.33,2.4l4.07,2.23L96.75,43.17"/>
<path d="M95.13,46.09l-4.07-2.23l-1.33,2.4l4.07,2.23L95.13,46.09"/>
<path d="M93.52,49l-4.07-2.23l-1.33,2.4l4.07,2.23L93.52,49"/>
<path d="M90.28,54.82l-4.07-2.23L84.88,55l4.07,2.23L90.28,54.82"/>
<path d="M91.9,51.91l-4.07-2.23l-1.33,2.4l4.07,2.23L91.9,51.91"/>
<path d="M88.67,57.74l-4.07-2.23l-1.33,2.4l4.07,2.23L88.67,57.74"/>
</g>
<g id="Ammo_Bandoleer_Accessories_Chest" fill="rgb(163, 163, 163)">
<g>
<g>
<path d="M99.83,37.6l1.67,0.91c0.18,0.1,0.24,0.32,0.14,0.5c-0.19,0.34-0.49,0.89-0.68,1.23 c-0.1,0.18-0.32,0.24-0.5,0.14l-1.67-0.91L99.83,37.6z"/>
<path d="M101.06,38.27l-0.14-0.08l-1.04,1.87l0.14,0.08L101.06,38.27z"/>
<path d="M100.77,38.11l-0.14-0.08l-1.04,1.87l0.14,0.08L100.77,38.11z"/>
</g>
<g>
<path d="M95.77,35.37l-1.04,1.87l-1.67-0.91c-0.18-0.1-0.24-0.32-0.14-0.5c0.19-0.34,0.49-0.89,0.68-1.23 c0.1-0.18,0.32-0.24,0.5-0.14L95.77,35.37z"/>
<path d="M94.51,34.68l-0.14-0.08l-1.04,1.87l0.14,0.08L94.51,34.68z"/>
</g>
</g>
<g>
<g>
<path d="M96.6,43.45l1.67,0.91c0.18,0.1,0.24,0.32,0.14,0.5c-0.19,0.34-0.49,0.89-0.68,1.23 c-0.1,0.18-0.32,0.24-0.5,0.14l-1.67-0.91L96.6,43.45z"/>
<path d="M97.82,44.12l-0.14-0.08l-1.04,1.87l0.14,0.08L97.82,44.12z"/>
<path d="M97.53,43.96l-0.14-0.08l-1.04,1.87l0.14,0.08L97.53,43.96z"/>
</g>
<g>
<path d="M92.53,41.22l-1.04,1.87l-1.67-0.91c-0.18-0.1-0.24-0.32-0.14-0.5c0.19-0.34,0.49-0.89,0.68-1.23 c0.1-0.18,0.32-0.24,0.5-0.14L92.53,41.22z"/>
<path d="M91.27,40.53l-0.14-0.08l-1.04,1.87l0.14,0.08L91.27,40.53z"/>
</g>
</g>
<g>
<g>
<path d="M94.99,46.34l1.67,0.91c0.18,0.1,0.24,0.32,0.14,0.5c-0.19,0.34-0.49,0.89-0.68,1.23 c-0.1,0.18-0.32,0.24-0.5,0.14l-1.67-0.91L94.99,46.34z"/>
<path d="M96.21,47.02l-0.14-0.08l-1.04,1.87l0.14,0.08L96.21,47.02z"/>
<path d="M95.92,46.86l-0.14-0.08l-1.04,1.87l0.14,0.08L95.92,46.86z"/>
</g>
<g>
<path d="M90.92,44.11l-1.04,1.87l-1.67-0.91c-0.18-0.1-0.24-0.32-0.14-0.5c0.19-0.34,0.49-0.89,0.68-1.23 c0.1-0.18,0.32-0.24,0.5-0.14L90.92,44.11z"/>
<path d="M89.66,43.42l-0.14-0.08l-1.04,1.87l0.14,0.08L89.66,43.42z"/>
</g>
</g>
<g>
<g>
<path d="M93.36,49.27l1.67,0.91c0.18,0.1,0.24,0.32,0.14,0.5c-0.19,0.34-0.49,0.89-0.68,1.23 c-0.1,0.18-0.32,0.24-0.5,0.14l-1.67-0.91L93.36,49.27z"/>
<path d="M94.59,49.95l-0.14-0.08l-1.04,1.87l0.14,0.08L94.59,49.95z"/>
<path d="M94.3,49.79l-0.14-0.08l-1.04,1.87l0.14,0.08L94.3,49.79z"/>
</g>
<g>
<path d="M89.3,47.04l-1.04,1.87L86.59,48c-0.18-0.1-0.24-0.32-0.15-0.5c0.19-0.34,0.49-0.89,0.68-1.23 c0.1-0.18,0.32-0.24,0.5-0.14L89.3,47.04z"/>
<path d="M88.04,46.35l-0.14-0.08l-1.04,1.87L87,48.22L88.04,46.35z"/>
</g>
</g>
</g>
<g id="Buckles_Bandoleer_Accessories_Chest" fill="rgb(255, 215, 0)">
<g>
<path d="M104.43,28.05l-2.99-1.64l-1.69,3.05l2.99,1.64L104.43,28.05z"/>
<path d="M103.67,28.57l-2.26-1.24l-1.69,3.05l2.26,1.24L103.67,28.57z"/>
</g>
<path d="M104.44,24.49l-1.93-1.05l1.67-3.03l3.9,2.13l-1.67,3.03L104.44,24.49l0.38-0.68l1.1,0.6l0.92-1.67 l-2.15-1.17l-0.92,1.67l1.05,0.58"/>
</g>
</g></g>
<g id="Collar"><g id="Cloth-Wrap-Right_Collar" class="option" style="display: inherit;">
<g id="Main_Cloth-Wrap-Right_Collar" fill="rgb(89, 10, 10)">
<path d="M95.41,21.42c4.65-1.45,5.5-3.78,5.78-6.13c0.11-0.96-1.26-3.46,0.16-4.1c1.61-0.73,5.4,0.41,6.97,0.75 c1.16,0.25,2.19,1.42,3.38,1.43c2.74,0.03,4.91,3,5.16,4.36c0.35,1.9-3.04,0.56-4.62,2c-3.96,3.61-5.34,8.5-13.67,9.83 c-3.82,0.61-7.61-0.25-11.16-1.04c-9.17-2.03-14.17-3.78-20.06-8.31c-2.58-1.98-6.47-3.59-6.37-6.24c0-0.11,1.88-1.22,2.06-1.27 c1.65-0.41,3.06-1.09,4.88-1.12c1.09-0.02,0.91,0.91,0.99,1.34c0.31,1.62,1.79,2.84,3.66,4.05 C77.47,20.18,88.67,21.17,95.41,21.42z"/>
<path d="M95.41,21.42c1.23,0.05,2.31,0.24,3.25,0.29c4.26,0.26,5.78-0.77,6.6-2.66"/>
<path d="M108.64,11.99c1.23,1.99,1.07,4.34,0.09,5.89"/>
<path d="M72.93,17.68c3.19,4.34,7.92,5.71,13.09,6.23"/>
<path d="M64.3,12.34c0.19,1.1,0.85,1.51,1.66,2.24c0.47,0.43,1.04,0.73,1.41,1.25c0.14,0.19,0.21,0.41,0.29,0.62"/>
</g>
<path id="Buckle_Cloth-Wrap-Right_Collar" d="M74.02,16.86l-2.71-1.93l-4.71,6.53l2.71,1.93L74.02,16.86z" fill="rgb(255, 215, 0)"/>
</g></g>
<g id="CollarDecals" mask="url(#CollarMask)">
</g>
<g id="Helmets" class="swappable" transform="translate(45,-52)"><g id="Helmet_Ramikadyc">
<g id="Left-Earcap_Ramikadyc" class="toggle"><path id="Ear-Cap_Left_Ramikadyc" d="M55.98,35.66l2.72,1.01c0,0,0.74,3.43,0.81,6.29c0.06,2.86-0.78,6.19-0.78,6.19 l-1.7,0.79l-0.05-11.99L55.98,35.66z" fill="rgb(11, 96, 125)"/>
</g>
<g id="Right-Earcap_Ramikadyc" class="toggle">
<g id="Sub-Antenna_Right_Ramikadyc" class="option" style="display: inherit;">
<g id="Shaft_Sub-Antenna_Right_Ramikadyc" fill="rgb(8, 203, 51)">
<path d="M22.27,34.92l0.17-21.42h0.49l0.18,21.42H22.27z"/>
<path d="M22.24,15.42l0.19-1.32l0.26,0l0.26,0l0.19,1.32H22.24z"/>
</g>
<g id="Base_Sub-Antenna_Right_Ramikadyc" fill="rgb(5, 21, 72)">
<path d="M24.05,34.92h-2.71c0,0-0.58,7.09,1.33,7.09S24.05,34.92,24.05,34.92z"/>
<path d="M21.96,34.92l0.31-0.6l0.43,0l0.43,0l0.31,0.6H21.96z"/>
</g>
</g><path id="Ear-Cap_Right_Ramikadyc" d="M24.02,35.66l-2.72,1.01c0,0-0.74,3.43-0.81,6.29 c-0.06,2.86,0.77,6.19,0.77,6.19l1.7,0.79l0.05-11.99L24.02,35.66z" fill="rgb(11, 96, 125)"/>
</g>
<g id="Helmet_Pieces_Ramikadyc">
<g id="Mouth_Ramikadyc" fill="rgb(5, 21, 72)">
<path d="M36.83,67.32c0,0,0.09-2.75-0.19-4.09c-0.28-1.34-0.65-2.87-0.65-2.87l3.89-1.61h0.05l3.89,1.61 c0,0-0.37,1.53-0.65,2.87c-0.28,1.34-0.19,4.09-0.19,4.09H36.83z"/>
<path d="M39.9,58.75v6.41"/>
<path d="M36.83,67.32l0.01-0.93l3.03-1.21v-0.02l0.03,0.01l0.03-0.01v0.02l3.03,1.21l0.01,0.93H36.83z"/>
</g>
<g id="Face_Ramikadyc" fill="rgb(5, 21, 72)">
<path d="M43.81,60.35l0.2,0.03c4.27-4.69,7.12-9.26,8.22-13.69l4.24-3.7l0.57-1.31v-0.03l0,0v10.48 c0,0-3.12,6.56-6.46,9.75c-2.22,2.12-7.53,5.43-7.53,5.43h-0.07c0,0-0.09-2.75,0.19-4.09C43.44,61.88,43.81,60.35,43.81,60.35z"/>
<path d="M35.99,60.35l-0.2,0.03c-4.27-4.69-7.12-9.26-8.22-13.69l-4.24-3.7l-0.57-1.31v-0.03l0,0v10.48 c0,0,3.12,6.56,6.46,9.75c2.22,2.12,7.53,5.43,7.53,5.43h0.07c0,0,0.09-2.75-0.19-4.09C36.36,61.88,35.99,60.35,35.99,60.35z"/>
</g>
<g id="Cheeks-2_Ramikadyc" fill="rgb(5, 21, 72)">
<path d="M25.45,49.03l7.87,9.53c0,0,1.4,1.86,1.05,3.98c-0.35,2.12-1.36,2.26-1.36,2.26l-2.12-0.72l-7.85-8.92 c0,0-1.15-1.11-0.97-3.41c0.09-1.14,2.13-2.98,2.13-2.98S24.83,48.37,25.45,49.03z"/>
<path d="M22.16,51.4c0,0,0.35-0.91,0.88-0.85c0.53,0.06,4.06,4.18,4.06,4.18s4.28,4.62,4.5,5 c0.68,1.17,0.64,2.49,0.5,3.04c-0.28,1.11-1.2,1.33-1.2,1.33l-7.85-8.92C23.05,55.17,21.62,53.54,22.16,51.4z"/>
<path d="M22.36,51.75c0.09-0.35,0.27-0.8,0.62-0.86c0.44-0.07,3.49,3.57,3.49,3.57s3.46,3.77,3.65,4.09 c0.57,0.97,0.53,2.07,0.41,2.53c-0.23,0.93-1,1.11-1,1.11l-6.48-7.49C23.06,54.69,22.03,53.06,22.36,51.75z"/>
<path d="M54.56,49.03l-7.87,9.53c0,0-1.4,1.86-1.05,3.98c0.35,2.12,1.36,2.26,1.36,2.26l2.12-0.72l7.85-8.92 c0,0,1.15-1.11,0.97-3.41c-0.09-1.14-2.13-2.98-2.13-2.98S55.18,48.37,54.56,49.03z"/>
<path d="M57.85,51.4c0,0-0.35-0.91-0.88-0.85c-0.53,0.06-4.06,4.18-4.06,4.18s-4.28,4.62-4.5,5 c-0.68,1.17-0.63,2.49-0.5,3.04c0.28,1.11,1.2,1.33,1.2,1.33l7.85-8.92C56.96,55.17,58.39,53.54,57.85,51.4z"/>
<path d="M57.65,51.75c-0.09-0.35-0.27-0.8-0.62-0.86c-0.44-0.07-3.49,3.57-3.49,3.57s-3.46,3.77-3.65,4.09 c-0.57,0.97-0.53,2.07-0.41,2.53c0.23,0.93,1,1.11,1,1.11l6.48-7.49C56.95,54.69,57.98,53.06,57.65,51.75z"/>
</g>
<g id="Cheeks-1_Ramikadyc" fill="rgb(11, 96, 125)">
<path d="M28.12,58.56c0.79-0.28,1.91,0.7,2.48,2.17c0.58,1.47,0.4,2.89-0.39,3.17c-0.79,0.28-1.91-0.7-2.48-2.17 S27.33,58.83,28.12,58.56z"/>
<path d="M28.19,58.96c0.64-0.22,1.56,0.62,2.06,1.89c0.49,1.26,0.38,2.47-0.26,2.69c-0.64,0.22-1.56-0.62-2.06-1.89 C27.44,60.39,27.55,59.18,28.19,58.96z"/>
<path d="M28.51,59.97c0.36-0.12,0.87,0.35,1.15,1.05c0.28,0.71,0.21,1.38-0.15,1.5c-0.36,0.12-0.87-0.35-1.15-1.05 C28.09,60.77,28.15,60.1,28.51,59.97z"/>
<path d="M28.63,60.44c0.24-0.08,0.58,0.23,0.76,0.7c0.18,0.47,0.14,0.92-0.1,1c-0.24,0.08-0.58-0.23-0.76-0.7 S28.39,60.52,28.63,60.44z"/>
<path d="M30.09,57.99c0.9,0.99,1.42,1.57,1.51,1.73c0.68,1.17,0.64,2.49,0.5,3.04c-0.15,0.61-0.57,1.17-1.2,1.33 l-0.9-0.15c0.21-0.04,0.39-0.12,0.55-0.25c0.5-0.51,0.55-1.72,0.07-2.96c-0.58-1.47-1.69-2.44-2.48-2.17L30.09,57.99z"/>
<path d="M51.88,58.56c-0.79-0.28-1.9,0.7-2.48,2.17c-0.58,1.47-0.4,2.89,0.39,3.17c0.79,0.28,1.9-0.7,2.48-2.17 S52.68,58.83,51.88,58.56z"/>
<path d="M51.81,58.96c-0.64-0.22-1.56,0.62-2.06,1.89s-0.38,2.47,0.26,2.69c0.64,0.22,1.56-0.62,2.06-1.89 S52.45,59.18,51.81,58.96z"/>
<path d="M51.5,59.97c-0.36-0.12-0.87,0.35-1.15,1.05c-0.28,0.71-0.21,1.38,0.15,1.5c0.36,0.12,0.87-0.35,1.15-1.05 C51.92,60.77,51.85,60.1,51.5,59.97z"/>
<path d="M51.38,60.44c-0.24-0.08-0.58,0.23-0.76,0.7c-0.18,0.47-0.14,0.92,0.1,1c0.24,0.08,0.58-0.23,0.76-0.7 C51.66,60.97,51.61,60.52,51.38,60.44z"/>
<path d="M49.92,57.99c-0.9,0.99-1.42,1.57-1.51,1.73c-0.68,1.17-0.63,2.49-0.5,3.04c0.15,0.61,0.57,1.17,1.2,1.33 l0.9-0.15c-0.21-0.04-0.39-0.12-0.55-0.25c-0.5-0.51-0.55-1.72-0.07-2.96c0.58-1.47,1.69-2.44,2.48-2.17L49.92,57.99z"/>
</g>
<path fill="rgb(8, 203, 51)" id="Visor_Ramikadyc" d="M39.66,58.08v-0.89l-1.53-2.96l-0.24-8.75l-3.12-1.34l-1.24,0.52l-8.31-4.57l-1.2-4.78 C29,38.21,39.9,42.11,39.9,42.11s10.94-3.93,15.88-6.79l-1.2,4.78l-8.31,4.57l-1.24-0.52l-3.12,1.34l-0.24,8.75l-1.53,2.96v0.89 l3.88,2.3l-0.2-0.03l-3.91-1.61l-3.91,1.61h-0.2L39.66,58.08z M39.9,57.94L39.9,57.94z"/>
<g id="Eyes_Ramikadyc" fill="rgb(11, 96, 125)">
<path d="M55.85,35.33l1.14,2.62l0.05,3.7l-0.57,1.31l-4.24,3.7c-1.1,4.43-3.95,9-8.22,13.69l-3.83-2.35l0-0.01 l0.03,0.01v-0.81l1.53-2.96l0.24-8.75l3.12-1.34l1.24,0.52l8.31-4.57L55.85,35.33z M55.84,35.32l-0.04,0.02L55.84,35.32 L55.84,35.32z"/>
<path d="M23.95,35.33l-1.14,2.62l-0.05,3.7l0.57,1.31l4.24,3.7c1.1,4.43,3.95,9,8.22,13.69l3.83-2.35l0-0.01 l-0.03,0.01v-0.81l-1.53-2.96l-0.24-8.75l-3.12-1.34l-1.24,0.52l-8.31-4.57L23.95,35.33z M23.96,35.32L24,35.35L23.96,35.32 L23.96,35.32z"/>
</g>
<g id="Dome-2_Ramikadyc" fill="rgb(11, 96, 125)">
<path d="M44.15,40.51L42,38.63l-0.26-2.78l2.9-2.63l2.79-9.5l1.76,0.05L49.65,21l-1.4-1.02l0.52-1.22 c0,0,5.53,4.19,6.05,5.16c0.52,0.97,0.88,10.91,0.77,11.39c-0.01,0.03-0.04,0.08-0.08,0.15C52.54,37.14,47.67,39.15,44.15,40.51z "/>
<path d="M24.28,35.47c-0.05-0.07-0.07-0.12-0.08-0.15c-0.11-0.48,0.26-10.42,0.77-11.39 c0.52-0.97,6.05-5.16,6.05-5.16l0.52,1.22L30.14,21l0.47,2.78l1.76-0.05l2.79,9.5l2.9,2.63l-0.26,2.78l-2.15,1.88 C32.13,39.15,27.27,37.15,24.28,35.47z"/>
</g>
<g id="Dome-1_Ramikadyc" fill="rgb(5, 21, 72)">
<path d="M24.93,24.02c-0.5,1.4-0.84,10.83-0.73,11.3c0.01,0.03,0.03,0.08,0.08,0.15c0.05,0.03-1.37,0.6-1.37,0.6 C23.21,30.9,23.59,25.99,24.93,24.02L24.93,24.02z"/>
<path d="M54.88,24.02c0.5,1.4,0.84,10.83,0.73,11.3c-0.01,0.03-0.03,0.08-0.08,0.15c-0.05,0.03,1.37,0.6,1.37,0.6 C56.6,30.9,56.22,25.99,54.88,24.02L54.88,24.02z"/>
<path d="M35.64,40.51l2.15-1.88l0.26-2.78l-2.9-2.63l-2.79-9.5l-1.76,0.05L30.14,21l1.4-1.02l-0.52-1.22 c3.73-1.78,8.1-2.06,8.82-2.09v-0.01l0.09,0c0.01,0,0.01,0,0.01,0v0.01c0.73,0.03,5.09,0.31,8.82,2.09l-0.52,1.22l1.4,1.02 l-0.47,2.78l-1.76-0.05l-2.79,9.5l-2.9,2.63L42,38.63l2.15,1.88c-1.17,0.45-2.19,0.84-2.93,1.12l-1.27,0.41v0.03l-0.05-0.02 l-0.05,0.02v-0.03l-1.29-0.42C37.81,41.34,36.8,40.96,35.64,40.51z"/>
</g>
</g>
</g></g>
<g id="HelmetsDecals" mask="url(#HelmetsMask)"/>
<g id="Shoulders">
<g id="Left-Shoulder"><g id="Legacy-x2_Shoulder_Left" class="option" style="display: inherit;">
<path id="Plate-2_Shoulder_Left_Legacy-x2" d="M112.95,15.27l-6.03,9.03l6.18,8.61l9.75-2.38l6.12,3.77l4.58-1.2 L112.95,15.27z" fill="rgb(15, 168, 220)"/>
<path id="Trauma-Plate-2_Shoulder_Legacy-x2_Left" class="toggle" style="display:none" d="M129.25,32.41l2.96-0.77l-17.76-15.47l-5.39,8.05 l4.77,6.67l8.97-2.26L129.25,32.41z" fill="rgb(255, 255, 255)"/>
<path id="Plate-1_Shoulder_Left_Legacy-x2" d="M105.53,10.64l-2.71,10.49l8.68,6.12l8.43-5.43l7.03,1.57l3.93-2.63 L105.53,10.64z" fill="rgb(14, 118, 153)"/>
<path id="Trauma-Plate-1_Shoulder_Legacy-x2_Left" class="toggle" style="display:none" d="M126.6,21.52l2.54-1.7l-21.9-8.79l-2.42,9.37 l6.72,4.74l7.72-5.07L126.6,21.52z" fill="rgb(255, 255, 255)"/>
</g></g>
<g id="Right-Shoulder"><g id="Legacy-x3_Shoulder_Right" class="option" style="display: inherit;">
<path id="Plate-3_Shoulder_Right_Legacy-x3" d="M53.01,20.06l7.61,7.75l-4.46,9.61L46.13,36.9l-5.31,4.84 l-4.72-0.33L53.01,20.06z" fill="rgb(0, 190, 255)"/>
<path id="Trauma-Plate-3_Shoulder_Legacy-x3_Right" class="toggle" style="display:none" d="M40.19,39.93l-3.05-0.21l14.58-18.47l6.8,6.92 l-3.45,7.43l-9.24-0.57L40.19,39.93z" fill="rgb(255, 255, 255)"/>
<path id="Plate-2_Shoulder_Right_Legacy-x3" d="M57.12,15.27l6.03,9.03l-6.18,8.61l-9.75-2.38l-6.12,3.77 l-4.58-1.2L57.12,15.27z" fill="rgb(11, 141, 185)"/>
<path id="Trauma-Plate-2_Shoulder_Legacy-x3_Right" class="toggle" style="display:none" d="M40.82,32.41l-2.96-0.77l17.76-15.47l5.39,8.05 l-4.77,6.67l-8.97-2.26L40.82,32.41z" fill="rgb(255, 255, 255)"/>
<path id="Plate-1_Shoulder_Right_Legacy-x3" d="M64.54,10.64l2.71,10.49l-8.68,6.12l-8.43-5.43l-7.03,1.57 l-3.93-2.63L64.54,10.64z" fill="rgb(11, 96, 125)"/>
<path id="Trauma-Plate-1_Shoulder_Legacy-x3_Right" class="toggle" style="display:none" d="M43.46,21.52l-2.54-1.7l21.9-8.79l2.42,9.37 l-6.72,4.74l-7.72-5.07L43.46,21.52z" fill="rgb(255, 255, 255)"/>
</g></g>
</g>
<g id="ShouldersDecals" mask="url(#ShouldersMask)">
</g>
<g id="Gauntlets">
<g id="Left-Gauntlets"><g id="Gunslinger_Gauntlet_Left" class="option" style="display: inherit;">
<g id="Accent-Top_Gunslinger_Gauntlet_Left" fill="rgb(255, 0, 0)">
<path d="M136.82,78.71l0.16,5.87l-3.02,0.58l-0.23-5.57L136.82,78.71z"/>
<path d="M133.63,100.15l0.34,3.02l-2.65,0.34l-0.37-3.01L133.63,100.15z"/>
</g>
<path id="Top_Gunslinger_Gauntlet_Left" d="M136.82,78.71l1.38-0.39l0.12,27.45l-6.61,0.83l-0.53-4.3l0.15,1.22 l2.65-0.34l-0.34-3.02l-2.68,0.35l-2.4-19.44L136.82,78.71l-3.09,0.88l0.23,5.57l3.02-0.58L136.82,78.71z" fill="rgb(11, 96, 125)"/>
<g id="Accent-Bottom_Gunslinger_Gauntlet_Left" fill="rgb(5, 21, 72)">
<path d="M124.09,89.56l-0.57-2.44l-1.72,0.4l0.57,2.44L124.09,89.56z"/>
<path d="M124.74,92.34l-0.57-2.45l-1.73,0.4l0.57,2.44L124.74,92.34z"/>
<path d="M130.96,100.5l-5.9,0.77l0.7,2.97l5.58-0.72L130.96,100.5z"/>
</g>
<path id="Bottom_Gunslinger_Gauntlet_Left" d="M131.28,103.07l-0.32-2.58l-5.9,0.77l0.7,2.97l5.58-0.72l0.38,3.08 c0,0-2.07,0.19-3.62,0.33c-0.97,0.09-1.86-0.55-2.08-1.49c-1.21-5.14-4.86-20.61-4.86-20.61l7.45-3.37L131.28,103.07z M124.74,92.34l-0.57-2.45l-1.73,0.4l0.57,2.44L124.74,92.34z M124.09,89.56l-0.57-2.44l-1.72,0.4l0.57,2.44L124.09,89.56z" fill="rgb(11, 96, 125)"/><g id="No-Device_Attachment_Gunslinger_Gauntlet_Left" class="option" style="display: inherit;">
</g>
</g></g>
<g id="Right-Gauntlets"><g id="Gunslinger_Gauntlet_Right" class="option" style="display: inherit;">
<g id="Accent-Top_Gunslinger_Gauntlet_Right" fill="rgb(8, 203, 51)">
<path d="M33.12,78.71l-0.16,5.87l3.02,0.58l0.23-5.57L33.12,78.71z"/>
<path d="M36.31,100.15l-0.34,3.02l2.65,0.34l0.37-3.01L36.31,100.15z"/>
</g>
<path id="Top_Gunslinger_Gauntlet_Right" d="M33.12,78.71l-1.38-0.39l-0.12,27.45l6.61,0.83l0.53-4.3l-0.15,1.22 l-2.65-0.34l0.34-3.02l2.67,0.35l2.4-19.44L33.12,78.71l3.09,0.88l-0.23,5.57l-3.02-0.58L33.12,78.71z" fill="rgb(11, 96, 125)"/>
<g id="Accent-Bottom_Gunslinger_Gauntlet_Right" fill="rgb(5, 21, 72)">
<path d="M45.85,89.56l0.57-2.44l1.72,0.4l-0.57,2.44L45.85,89.56z"/>
<path d="M45.2,92.34l0.57-2.45l1.72,0.4l-0.57,2.44L45.2,92.34z"/>
<path d="M38.99,100.5l5.91,0.77l-0.7,2.97l-5.58-0.72L38.99,100.5z"/>
</g>
<path id="Bottom_Gunslinger_Gauntlet_Right" d="M38.67,103.07l0.32-2.58l5.91,0.77l-0.7,2.97l-5.58-0.72 l-0.38,3.08c0,0,2.07,0.19,3.62,0.33c0.97,0.09,1.85-0.55,2.08-1.49c1.21-5.14,4.86-20.61,4.86-20.61l-7.45-3.37L38.67,103.07z M45.2,92.34l0.57-2.45l1.72,0.4l-0.57,2.44L45.2,92.34z M45.85,89.56l0.57-2.44l1.72,0.4l-0.57,2.44L45.85,89.56z" fill="rgb(11, 96, 125)"/><g id="Flamethrower_Attachment_Gunslinger_Gauntlet_Right" class="option" style="display: inherit;">
<g id="Tubes_Flamethrower_Attachment_Gunslinger_Gauntlet_Right" fill="rgb(255, 255, 0)">
<path d="M30.26,80.04l0.87,0l-0.02,26.23h-0.87L30.26,80.04z"/>
<path d="M28.27,80.04l0.87,0l-0.01,18.8l-0.87,0L28.27,80.04z"/>
<path d="M30.09,81.68l1.19,0l0,6.25l-1.19,0L30.09,81.68z"/>
<path d="M28.11,81.68l1.19,0l0,6.25l-1.19,0L28.11,81.68z"/>
</g>
<g id="Main_Flamethrower_Attachment_Gunslinger_Gauntlet_Right" fill="rgb(163, 163, 163)">
<path d="M27.9,80.04l3.56,0l0,1.64l-3.56,0L27.9,80.04z"/>
<path d="M27.82,87.93l3.72,0l0,1l-3.72,0L27.82,87.93z"/>
<path d="M27.97,88.93l3.41,0v0.5l-3.41,0L27.97,88.93z"/>
<path d="M31.16,87.31l0.58,0.02l-0.01,3.05l-0.57-0.02L31.16,87.31z"/>
</g>
<g id="Accent_Flamethrower_Attachment_Gunslinger_Gauntlet_Right" fill="rgb(8, 203, 51)">
<path d="M28.23,98.84l0.93,0l0.14,1.29l-1.22,0L28.23,98.84z"/>
<path d="M27.87,92.16l1.65,0l0,1.99l-1.65,0L27.87,92.16z"/>
<path d="M28.1,94.15l1.19,0l0,1.99l-1.19,0L28.1,94.15z"/>
<path d="M30.08,102.95l1.19,0l0,2.73l-1.19,0L30.08,102.95z"/>
<path d="M30.08,94.15l1.19,0l0,3.71l-1.19,0L30.08,94.15z"/>
<path d="M29.85,104.32l1.64,0v0.53l-1.65,0L29.85,104.32z"/>
</g>
<path id="Base_Flamethrower_Attachment_Gunslinger_Gauntlet_Right" d="M31.74,87.33l0.02-8.28l-0.99,0.39 l-0.04,14l0.99,0.45l0.01-3.5l-0.57-0.02l0.01-3.05L31.74,87.33z" fill="rgb(11, 96, 125)"/>
</g></g></g>
</g>
<g id="GauntletsDecals" mask="url(#GauntletsMask)">
</g>
<g id="Shins">
<g id="Left-Shin"><g id="Basic-Shnees_Shin_Left" class="option" style="display: inherit;">
<path id="Shin_Basic-Shnees-Shin_Left" d="M101.87,160.31c-0.11-2.24,1.59-4.17,3.84-4.35 c2.81-0.23,6.5-0.53,9.28-0.76c2.21-0.18,4.18,1.38,4.49,3.57c0.69,4.84,1.97,12.46,3.22,12.33l2.93,48.04l-10.37,0.81 l-3.35,3.49l-4.75-1.19L99.55,173C102.07,172.85,102.11,165.2,101.87,160.31z" fill="rgb(11, 96, 125)"/>
<g id="Straps_Basic-Shnees-Shin_Left" class="toggle" fill="rgb(139, 87, 42)">
<path d="M100.29,180.53l5.39-0.65l0.44,2.46l-5.39,0.65L100.29,180.53"/>
<path d="M100.66,180.28l1.14-0.14l0.52,2.91l-1.14,0.14L100.66,180.28"/>
<path d="M103.99,204.29l5.39-0.65l0.44,2.46l-5.39,0.65L103.99,204.29"/>
<path d="M104.36,204.05l1.14-0.14l0.52,2.91l-1.14,0.14L104.36,204.05"/>
</g>
<g id="Accent_Basic-Shnees-Shin_Left" class="toggle" style="display: none;" fill="rgb(255, 255, 255)"/>
</g></g>
<g id="Right-Shin"><g id="Basic-Shnees_Shin_Right" class="option" style="display: inherit;">
<path id="Shin_Basic-Shnees-Shin_Right" d="M68.21,160.32c0.11-2.24-1.58-4.17-3.83-4.36 c-2.81-0.23-6.5-0.54-9.27-0.77c-2.21-0.18-4.19,1.38-4.5,3.56c-0.69,4.84-1.99,12.46-3.24,12.33l-3,48.04l10.37,0.82l3.35,3.5 l4.75-1.18l7.67-49.23C68,172.86,67.97,165.22,68.21,160.32" fill="rgb(11, 96, 125)"/>
<g id="Straps_Basic-Shnees-Shin_Right" class="toggle" fill="rgb(139, 87, 42)">
<path d="M69.76,180.54l-5.39-0.66l-0.45,2.46l5.39,0.66L69.76,180.54"/>
<path d="M69.39,180.3l-1.14-0.14l-0.53,2.91l1.14,0.14L69.39,180.3"/>
<path d="M66.03,204.3l-5.39-0.66l-0.45,2.46l5.39,0.66L66.03,204.3"/>
<path d="M65.67,204.06l-1.14-0.14L64,206.84l1.14,0.14L65.67,204.06"/>
</g>
<g id="Accent_Basic-Shnees-Shin_Right" class="toggle" style="display: none;" fill="rgb(255, 255, 255)"/>
</g></g>
</g>
<g id="ShinsDecals" mask="url(#ShinsMask)">
</g>
<g id="Foot">
<g id="Left-Ankle">
<g id="None_Ankle_Left" class="option" style="display: inherit;">
</g></g>
<g id="Left-Toe"><g id="None_Toe_Left" class="option" style="display: inherit;">
</g>
</g>
<g id="Right-Ankle">
<g id="None_Ankle_Right" class="option" style="display: inherit;">
</g></g>
<g id="Right-Toe"><g id="None_Toe_Right" class="option" style="display: inherit;">
</g>
</g>
</g>
<g id="FootDecals" mask="url(#FootMask)">
</g>
<g id="Knees">
<g id="Left-Knee">
<g id="None-(Nih-Plates)_Knee_Left" class="option" style="display: inherit;">
</g></g>
<g id="Right-Knee">
<g id="None-(Nih-Plates)_Knee_Right" class="option" style="display: inherit;">
</g></g>
</g>
<g id="KneesDecals" mask="url(#KneesMask)">
</g>
<g id="Thighs">
<g id="Left-Thigh"><g id="Legacy_Thigh_Left" class="option" style="display: inherit;">
<path id="Plate-3_Legacy-Thigh_Left" d="M96.37,139.98l1.9,11l10.72,1.66l8.66-3.76l0.42-11.24l-9.86,4.6 L96.37,139.98" fill="rgb(11, 96, 125)"/>
<path id="Plate-2_Legacy-Thigh_Left" d="M93.99,129.38l1.83,10.5l12.4,2.37l10.42-4.87l0.51-12.79l-11.78,7.48 L93.99,129.38" fill="rgb(11, 96, 125)"/>
<path id="Plate-1_Legacy-Thigh_Left" d="M120.27,114.15l-9.17-7.97l-12.25,2l-7.03,11.56l1.76,9.56l13.79,2.77 l12.32-7.82L120.27,114.15" fill="rgb(11, 96, 125)"/>
<path id="Trauma-Plate-3_Legacy-Thigh_Left" class="toggle" style="display:none" d="M115.98,141.07l-7.04,3.29c-0.33,0.15-0.7,0.2-1.05,0.13 l-9.05-1.73l1.07,6.19l8.85,1.37l6.99-3.04L115.98,141.07" fill="rgb(255, 255, 255)"/>
<path id="Trauma-Plate-2_Legacy-Thigh_Left" class="toggle" style="display:none" d="M117.03,128.52l-8.72,5.54 c-0.39,0.25-0.84,0.33-1.27,0.25l-10.56-2.12l0.99,5.7l10.52,2.01l8.75-4.09L117.03,128.52" fill="rgb(255, 255, 255)"/>
<path id="Trauma-Plate-1_Legacy-Thigh_Left" class="toggle" style="display:none" d="M99.96,110.29l-6.05,9.95l1.31,7.08l11.81,2.37 l10.78-6.84l0.43-7.62l-7.67-6.67L99.96,110.29" fill="rgb(255, 255, 255)"/>
<g id="Ridge_Legacy-Thigh_Left" class="toggle" style="" fill="rgb(5, 21, 72)">
<path d="M110.27,130.23l0.48,10.84l-2.54,1.18l-3.26-0.62l-1.47-10.34l3.88,0.78L110.27,130.23"/>
<path d="M110.75,141.06l0.67,10.53l-2.43,1.05l-2.79-0.43l-1.25-10.59l3.26,0.62L110.75,141.06"/>
<path d="M103.49,131.29l-3.02-23.37l4.2-2.13l4.45,0.72l1.16,23.72l-2.9,1.84L103.49,131.29"/>
<path d="M104.67,105.78l2.7,26.29"/>
<path d="M107.37,132.07l0.85,10.18"/>
<path d="M108.21,142.25l0.78,10.4"/>
</g>
</g></g>
<g id="Right-Thigh"><g id="Legacy_Thigh_Right" class="option" style="display: inherit;">
<path id="Plate-3_Legacy-Thigh_Right" d="M73.63,139.98l-1.9,11l-10.72,1.66l-8.66-3.76l-0.42-11.24l9.86,4.6 L73.63,139.98" fill="rgb(11, 96, 125)"/>
<path id="Plate-2_Legacy-Thigh_Right" d="M76.01,129.38l-1.83,10.5l-12.4,2.37l-10.42-4.87l-0.51-12.79l11.78,7.48 L76.01,129.38" fill="rgb(11, 96, 125)"/>
<path id="Plate-1_Legacy-Thigh_Right" d="M49.73,114.15l9.17-7.97l12.25,2l7.03,11.56l-1.76,9.56l-13.79,2.77 l-12.32-7.82L49.73,114.15" fill="rgb(11, 96, 125)"/>
<path id="Trauma-Plate-3_Legacy-Thigh_Right" class="toggle" style="" d="M54.02,141.07l7.03,3.29c0.33,0.15,0.7,0.2,1.05,0.13 l9.05-1.73l-1.07,6.19l-8.85,1.37l-6.99-3.04L54.02,141.07" fill="rgb(5, 21, 72)"/>
<path id="Trauma-Plate-2_Legacy-Thigh_Right" class="toggle" style="" d="M52.97,128.52l8.72,5.54c0.39,0.25,0.84,0.33,1.28,0.25 l10.56-2.12l-0.99,5.7l-10.52,2.01l-8.75-4.09L52.97,128.52" fill="rgb(5, 21, 72)"/>
<path id="Trauma-Plate-1_Legacy-Thigh_Right" class="toggle" style="" d="M70.04,110.29l6.05,9.95l-1.31,7.08l-11.81,2.37 l-10.78-6.84l-0.43-7.62l7.67-6.67L70.04,110.29" fill="rgb(5, 21, 72)"/>
<g id="Ridge_Legacy-Thigh_Right" class="toggle" style="display:none" fill="rgb(255, 255, 255)"/>
</g></g>
</g>
<g id="ThighsDecals" mask="url(#ThighsMask)">
</g>
<g id="Groin">
<g id="None_Groin" class="option" style="display: inherit;">
</g></g>
<g id="GroinDecals" mask="url(#GroinMask)">
</g>
<g id="Waist">
<g id="Accessories_Waist">
<g id="Kama" class="toggle" style="display:none"/>
<g id="Loin-Cloth" class="toggle" style="display:none"/>
<g id="Left-Holster" class="toggle" style="display:none"/>
<g id="Right-Holster" class="toggle" style="">
<g id="Thigh-Plate-Holster_Right" class="option" style="display: inherit;">
<g id="Weapon_Thigh-Plate-Holster-Right">
<g id="Main_Weapon_Thigh-Plate-Holster-Right" fill="rgb(163, 163, 163)">
<path d="M53.7,109.03l-0.24-3.73l-0.65,0.04l-0.15-2.35l0.65-0.04l-0.08-1.22c-0.03-0.4-0.58-0.68-1.24-0.64 c-1.5,0.1-4.08,0.26-5.58,0.36c-0.66,0.04-1.17,0.4-1.14,0.8l0.08,1.22l0.65-0.04l0.15,2.35l-0.65,0.04l0.25,3.73l1.52-0.1 l0.68,10.34l4.92-0.32l-0.68-10.33L53.7,109.03z"/>
<path d="M46.36,108.96l0.87-0.06l0.82,12.42l4.92-0.32l-0.82-12.42l0.87-0.06l-0.19-2.83l-6.66,0.43L46.36,108.96 z"/>
<path d="M47.28,102.21l3.94-0.26l0.25,3.83l-3.94,0.26L47.28,102.21z"/>
<path d="M51.09,109.78l0.65-0.04l0.64,9.76l-0.65,0.04L51.09,109.78z"/>
<path d="M49.29,107.65l0.65-0.04l0.9,13.71l-0.65,0.04L49.29,107.65z"/>
<path d="M47.79,109.99l0.65-0.04l0.71,10.84l-0.65,0.04L47.79,109.99z"/>
</g>
<g id="Accent_Weapon_Thigh-Plate-Holster-Right" fill="rgb(5, 21, 72)">
<path d="M50.09,109.84l1-0.06l0.64,9.77l-1,0.07L50.09,109.84z"/>
<path d="M48.43,109.95l1.01-0.06l0.71,10.84l-1.01,0.07L48.43,109.95z"/>
<path d="M50.58,101.99l0.65-0.04l0.25,3.83l-0.65,0.04L50.58,101.99z"/>
<path d="M47.28,102.21l0.65-0.04l0.25,3.83l-0.65,0.04L47.28,102.21z"/>
<path d="M50.92,106.21l0.03,0.39l-2.78,0.18l-0.03-0.39L50.92,106.21z"/>
<path d="M50.94,106.6l0.03,0.39l-2.78,0.18l-0.02-0.39L50.94,106.6z"/>
<path d="M50.89,105.82l0.03,0.39l-2.78,0.18L48.11,106L50.89,105.82z"/>
<path d="M50.58,101.01l0.03,0.39l-2.78,0.18l-0.02-0.39L50.58,101.01z"/>
</g>
</g>
<path id="Holster_Thigh-Plate-Holster-Right" d="M47.01,120.66l3.49-0.24l1.95-7.05l1.06-0.07l2.14,31.33 c0,0,0,0,0,0c-3.85,0.26-7.18-2.65-7.45-6.5C47.7,130.9,47.01,120.66,47.01,120.66z" fill="rgb(11, 96, 125)"/>
</g></g>
<g id="Left-Trophy" class="toggle" style="display:none"/>
<g id="Right-Trophy" class="toggle" style="display:none"/>
</g>
<g id="Under-Belt"><g id="Girth-Belt" class="option" fill="rgb(89, 10, 10)" style="display: inherit;">
<path d="M85.04,76.62c-7.36,0-22.09-1.86-22.09-1.86l0.48-1.58c0,0,14.37,1.24,21.61,1.86 c7.21-0.62,21.61-1.86,21.61-1.86l0.48,1.58C107.13,74.76,92.4,76.62,85.04,76.62z"/>
<path d="M85.04,78.2c-7.52,0-22.55-1.86-22.55-1.86l0.46-1.58c0,0,18.41,1.55,22.09,1.86 c3.68-0.31,22.09-1.86,22.09-1.86l0.46,1.58C107.59,76.34,92.56,78.2,85.04,78.2z"/>
<path d="M85.04,79.78c-7.63,0-22.9-1.86-22.9-1.86l0.34-1.58c0,0,18.79,1.55,22.55,1.86 c3.76-0.31,22.55-1.86,22.55-1.86l0.34,1.58C107.94,77.92,92.67,79.78,85.04,79.78z"/>
<path d="M85.04,81.36c-7.73,0-23.18-1.86-23.18-1.86l0.29-1.58c0,0,19.08,1.55,22.9,1.86 c3.82-0.31,22.9-1.86,22.9-1.86l0.29,1.58C108.22,79.49,92.77,81.36,85.04,81.36z"/>
<path d="M85.04,82.94c-7.81,0-23.44-1.86-23.44-1.86l0.26-1.58c0,0,19.32,1.55,23.18,1.86 c3.86-0.31,23.18-1.86,23.18-1.86l0.26,1.58C108.49,81.07,92.86,82.94,85.04,82.94z"/>
<path d="M85.04,84.52c-7.9,0-23.69-1.86-23.69-1.86l0.25-1.58c0,0,19.54,1.55,23.44,1.86 c3.91-0.31,23.44-1.86,23.44-1.86l0.25,1.58C108.73,82.65,92.94,84.52,85.04,84.52z"/>
<path d="M85.04,86.1c-7.98,0-23.93-1.86-23.93-1.86l0.24-1.58c0,0,19.74,1.55,23.69,1.86 c3.95-0.31,23.69-1.86,23.69-1.86l0.24,1.58C108.97,84.23,93.02,86.1,85.04,86.1z"/>
<path d="M85.04,87.68c-8.06,0-24.18-1.86-24.18-1.86l0.25-1.58c0,0,19.94,1.55,23.93,1.86 c3.99-0.31,23.93-1.86,23.93-1.86l0.25,1.58C109.22,85.81,93.1,87.68,85.04,87.68z"/>
<path d="M85.04,89.25c-8.15,0-24.45-1.86-24.45-1.86l0.27-1.58c0,0,20.15,1.55,24.18,1.86 c4.03-0.31,24.18-1.86,24.18-1.86l0.27,1.58C109.49,87.39,93.19,89.25,85.04,89.25z"/>
<path d="M85.04,90.83c-8.25,0-24.76-1.86-24.76-1.86l0.31-1.58c0,0,20.38,1.55,24.45,1.86 c4.08-0.31,24.45-1.86,24.45-1.86l0.31,1.58C109.8,88.97,93.29,90.83,85.04,90.83z"/>
</g>
</g>
<g id="Belt"><g id="Basic-Belt" class="option" style="display: inherit;">
<path id="Main_Basic-Belt" d="M109.38,84.25c-5.47,0.49-17.98,2.27-24.29,2.27c-6.38,0-18.88-1.79-24.28-2.26 l0.81-6.37c4.44,0.39,17.3,2.2,23.48,2.2c5.99,0,18.59-1.79,23.33-2.22L109.38,84.25z" fill="rgb(139, 87, 42)"/>
<rect id="Buckle_Basic-Belt" x="80.61" y="79.49" width="9.05" height="7.39" fill="rgb(255, 215, 0)"/>
</g>
</g>
</g>
<g id="WaistDecals" mask="url(#WaistMask)">
</g>
<g id="Extras_Front">
<g id="Front"><g id="None_Front" class="option" style="display: inherit;">
</g>
</g>
</g>
<g id="Extras-FrontDecals" mask="url(#FrontMask)">
</g>
</g>
</svg>