<?xml version='1.0' encoding='UTF-8'?>
<svg version="1.1" id="Female-Body" xmlns="http://www.w3.org/2000/svg" xmlns:serif="http://www.serif.com/" viewBox="0 -55 170 300" style="fill-rule: evenodd; stroke-width: 0.2px; stroke-linejoin: round;" width="170" height="300">
<style>
mask {
mask-type: alpha;
}
.decal {
stroke: none;
}
</style>
<defs id="Masks" stroke="none">
<mask id="HelmetsMask"> <use href="#Helmets"/> </mask>
<mask id="CollarMask"> <use href="#Collar"/> </mask>
<mask id="ShouldersMask"> <use href="#Shoulders"/> </mask>
<mask id="ChestMask"> <use href="#Chest"/> </mask>
<mask id="BicepsMask"> <use href="#Biceps"/> </mask>
<mask id="GauntletsMask"> <use href="#Gauntlets"/> </mask>
<mask id="WaistMask"> <use href="#Waist"/> </mask>
<mask id="GroinMask"> <use href="#Groin"/> </mask>
<mask id="ThighsMask"> <use href="#Thighs"/> </mask>
<mask id="KneesMask"> <use href="#Knees"/> </mask>
<mask id="ShinsMask"> <use href="#Shins"/> </mask>
<mask id="FootMask"> <use href="#Foot"/> </mask>
</defs>
<defs id="Decals"/><metadata><rdf:rdf xmlns:rdf="http://www.w3.org/1999/02/22-rdf-syntax-ns#" xmlns:rdfs="http://www.w3.org/2000/01/rdf-schema#" xmlns:dc="http://purl.org/dc/elements/1.1/"><rdf:description><dc:creator>MandoCreator</dc:creator><dc:publisher>https://www.mandocreator.com</dc:publisher><dc:description>Your Beskar'gam - created by MandoCreator</dc:description><dc:format>image/svg+xml</dc:format><dc:type>Image</dc:type><dc:title>MandoCreator - Ner Berskar'gam</dc:title><dc:date>2022-01-02T16:23:00.038Z</dc:date></rdf:description></rdf:rdf></metadata><g id="Main-Body" fill="white" stroke="black">
<g id="Extras_Back">
<g id="Back"><g id="NO-CAPES_Back" class="option" style="display: inherit;">
</g>
</g>
</g>
<g id="Extras-BackDecals" mask="url(#BackMask)">
</g>
<g id="Suit">
<g id="Neck-Seal"><g id="Standard-Neck-Seal" class="option" fill="rgb(84, 84, 84)" style="display: inherit;">
<path d="M95.96,3.46c0-0.93-0.74-1.69-1.65-1.69c0,0-6.22,0.89-9.33,0.89c-3.11,0-9.33-0.89-9.33-0.89 c-0.91,0-1.65,0.76-1.65,1.69c0,0.93,0.74,1.69,1.65,1.69c0,0,6.22,0.89,9.33,0.89c3.11,0,9.33-0.89,9.33-0.89 C95.22,5.15,95.96,4.39,95.96,3.46z"/>
<path d="M96.51,5.43c0-0.98-0.78-1.77-1.73-1.77c0,0-6.53,0.93-9.8,0.93s-9.8-0.93-9.8-0.93 c-0.96,0-1.73,0.79-1.73,1.77c0,0.98,0.78,1.77,1.73,1.77c0,0,6.53,0.93,9.8,0.93s9.8-0.93,9.8-0.93 C95.74,7.21,96.51,6.41,96.51,5.43z"/>
<path d="M97.14,7.88c0-1.03-0.82-1.87-1.83-1.87c0,0-6.89,0.98-10.33,0.98c-3.44,0-10.33-0.98-10.33-0.98 c-1.01,0-1.83,0.84-1.83,1.87s0.82,1.87,1.83,1.87c0,0,6.89,0.98,10.33,0.98c3.44,0,10.33-0.98,10.33-0.98 C96.32,9.75,97.14,8.91,97.14,7.88z"/>
<path d="M97.75,10.13c0-1.08-0.86-1.96-1.92-1.96c0,0-7.23,1.03-10.85,1.03c-3.62,0-10.85-1.03-10.85-1.03 c-1.06,0-1.92,0.88-1.92,1.96c0,1.08,0.86,1.96,1.92,1.96c0,0,7.23,1.03,10.85,1.03c3.62,0,10.85-1.03,10.85-1.03 C96.89,12.09,97.75,11.21,97.75,10.13z"/>
<path d="M98.36,12.33c0-0.82-0.9-1.48-2.01-1.48c0,0-7.58,0.78-11.36,0.78s-11.36-0.78-11.36-0.78 c-1.11,0-2.01,0.66-2.01,1.48c0,0.82,0.9,1.48,2.01,1.48c0,0,7.58,0.78,11.36,0.78s11.36-0.78,11.36-0.78 C97.46,13.81,98.36,13.14,98.36,12.33z"/>
<path d="M98.36,14.8c0-0.82-0.9-1.48-2.01-1.48c0,0-7.58,0.78-11.36,0.78s-11.36-0.78-11.36-0.78 c-1.11,0-2.01,0.66-2.01,1.48c0,0.82,0.9,1.48,2.01,1.48c0,0,7.58,1.5,11.36,1.5s11.36-1.5,11.36-1.5 C97.46,16.28,98.36,15.62,98.36,14.8z"/>
</g>
</g>
<g id="Flight-Suit" fill="rgb(110, 110, 110)">
<path d="M38.1,60.17l5.2-18.8l12.15-8.13l1.9,16.49c0,0-5.25,9.95-7.06,14.51c-1.86,4.7-5.09,15.42-5.5,16.81 l-2.88,24.91l-8.36-2.66c0,0-0.3-17.29,0.46-24.47C34.68,72.42,38.1,60.17,38.1,60.17z"/>
<path d="M131.9,60.17l-5.22-18.86l-12.06-8.07l-1.92,16.59c0,0,5.2,9.85,7.01,14.41c1.86,4.7,5.09,15.42,5.5,16.81 l2.88,24.91l8.36-2.66c0,0,0.3-17.29-0.46-24.47C135.32,72.42,131.9,60.17,131.9,60.17z"/>
<path d="M84.99,113.44c-1.03,0.1-1.95,0.5-2.29,1.22c-3,6.3-9.17,35.13-10.95,40.44c-0.97,2.89-1.74,18.7-3.38,27.92 c-1.96,11.01-8.39,38.11-8.39,38.11l-11.15-1.15c0,0-1.44-27.22-1.04-37.12c0.3-7.53,3.42-22.31,3.42-22.31s0.67-5.4,0.69-8.12 c0.06-9.82,0.93-31.66,2.88-44.2C56.3,98.31,65.7,77.5,65.7,77.5s12.18,4.76,19.34,4.76c7.16,0,19.44-4.86,19.44-4.86 s8.88,20.92,10.42,30.83c1.95,12.54,3.24,34.38,3.3,44.2c0.02,2.72,0.69,8.12,0.69,8.12s3.12,14.79,3.42,22.31 c0.4,9.91-1.04,37.12-1.04,37.12l-11.15,1.15c0,0-6.43-27.1-8.39-38.11c-1.64-9.22-2.41-25.03-3.38-27.92 c-1.78-5.31-7.96-34.13-10.95-40.44c-0.35-0.73-1.3-1.14-2.34-1.23L84.99,113.44z"/>
</g>
<g id="Sleeves" class="toggle" fill="rgb(63, 63, 63)">
<path d="M41.92,41.42l0.81,0.34l12.73-8.52c0,0,0.36,8.98,1.42,14.37c0.15,0.75,0.37,1.69,0.64,2.79l-1.69,5.45 c0,0-5.75-2.25-8.27-3.72C45.11,50.7,40.7,47,40.7,47L41.92,41.42z"/>
<path d="M112.55,50.4c0.28-1.1,0.5-2.04,0.64-2.79c1.06-5.39,1.42-14.37,1.42-14.37l12.73,8.52l0.81-0.34l1.22,5.58 c0,0-4.4,3.7-6.85,5.13c-2.52,1.48-8.28,3.72-8.28,3.72L112.55,50.4z"/>
</g>
</g>
<g id="Boots"><g id="Gunslinger_Boots" class="option" style="display: inherit;">
<g id="Main_Gunslinger-Boot" fill="rgb(62, 62, 62)">
<path d="M62.27,227.49c-0.04,0.18-0.66,3.1-3.88,3.9c-1.07,0.27-2.91-0.3-4.07-0.89c-1.58-0.8-3.24-1.43-4.94-1.93 l-0.05,0.07c-0.03,0.04-0.05,0.07-0.08,0.11c-0.53,0.74-1.1,1.43-1.72,2.05l-0.05,0.05l-0.03,0.03 c-0.06,0.06-0.12,0.12-0.19,0.18c-0.36,0.35-0.73,0.67-1.12,0.97l-0.11,0.08l-0.09,0.07c-0.03,0.02-0.05,0.04-0.08,0.06 c-0.06,0.04-0.12,0.09-0.18,0.13c-0.8,0.56-1.87,1.42-2.94,1.26c-1-0.15-2.13-0.55-2.97-0.95c-0.71-0.34-1.44-0.79-1.94-1.27 c-0.14-0.11-0.27-0.24-0.36-0.4c-2.33,0.91-4.87,1.25-6.11,3.84c-0.27,0.56-0.5,1.23-0.44,1.86c0.07,0.81,0.96,0.91,1.65,1.09 c1.72,0.46,3.21,0.81,5.2,1.22c2.27,0.47,4.32,0.75,6.62,0.66c1.72-0.07,3.17-0.16,4.67-1.08c0.6-0.37,1.22-0.74,1.74-1.23 c1.17-1.08,1.91-2.21,3.42-2.86c1.09-0.48,2.21-0.87,3.37-1.16c1.64-0.41,3.4-0.69,4.26-2.31 C62.53,229.81,62.45,228.67,62.27,227.49L62.27,227.49"/>
<path d="M107.8,227.49c0.04,0.18,0.66,3.1,3.88,3.9c1.08,0.27,2.91-0.3,4.07-0.89c1.58-0.8,3.25-1.43,4.94-1.93 l0.05,0.07c0.03,0.04,0.05,0.07,0.08,0.11c0.53,0.74,1.1,1.43,1.72,2.05l0.05,0.05l0.03,0.03c0.06,0.06,0.12,0.12,0.19,0.18 c0.36,0.35,0.73,0.67,1.12,0.97l0.11,0.08l0.09,0.07c0.03,0.02,0.05,0.04,0.08,0.06c0.06,0.04,0.12,0.09,0.18,0.13 c0.8,0.56,1.87,1.42,2.94,1.26c1-0.15,2.13-0.55,2.97-0.95c0.71-0.34,1.44-0.79,1.94-1.27c0.14-0.11,0.27-0.24,0.36-0.4 c2.33,0.91,4.87,1.25,6.11,3.84c0.27,0.56,0.5,1.23,0.44,1.86c-0.07,0.81-0.96,0.91-1.65,1.09c-1.72,0.46-3.21,0.81-5.2,1.22 c-2.27,0.47-4.32,0.75-6.62,0.66c-1.72-0.07-3.17-0.16-4.67-1.08c-0.6-0.37-1.22-0.74-1.74-1.23c-1.17-1.08-1.91-2.21-3.42-2.86 c-1.09-0.48-2.21-0.87-3.37-1.16c-1.64-0.41-3.4-0.69-4.26-2.31C107.55,229.81,107.62,228.67,107.8,227.49L107.8,227.49"/>
</g>
<g id="Bottom_Gunslinger-Boot" fill="rgb(0, 0, 0)">
<path d="M62.33,229.7c-0.07,0.44-0.22,0.89-0.46,1.35c-0.86,1.62-2.62,1.9-4.26,2.31c-1.16,0.29-2.28,0.68-3.37,1.16 c-1.51,0.65-2.26,1.78-3.42,2.86c-0.52,0.48-1.14,0.86-1.74,1.23c-1.5,0.92-2.96,1.01-4.67,1.08c-2.3,0.1-4.35-0.18-6.62-0.66 c-1.99-0.41-3.48-0.76-5.2-1.22c-0.55-0.15-1.23-0.24-1.52-0.69l0,0l-0.33,0.73l-0.19,1.49c0,0,1.85,0.99,3.81,1.43 c1.97,0.44,5.93,1.05,5.93,1.05l0.27-0.65l0.89,0.19l-0.04,0.64l2.16,0.12l0.46-0.62l0.72,0.02l-0.11,0.55 c0,0,1.34-0.02,2.08-0.46c0.14-0.21,0.41-0.55,0.41-0.55l0.51-0.28l-0.07,0.52l1.86-0.67l0.09-0.72l0.53-0.31l0.02,0.52 l1.32-1.02l0.14-0.63l3.31-2.32l0.51,1.21l2.32-0.5l0.08-0.5l0.59-0.24l0.41,0.38l1.56-0.64l0.03-0.46l0.5-0.18l0.06,0.34 l1.48-1.01l0.28-2.02l0.06-2.2L62.33,229.7L62.33,229.7"/>
<path d="M107.74,229.7c0.07,0.44,0.22,0.89,0.46,1.35c0.86,1.62,2.62,1.9,4.26,2.31c1.16,0.29,2.28,0.68,3.37,1.16 c1.51,0.65,2.26,1.78,3.42,2.86c0.52,0.48,1.14,0.86,1.74,1.23c1.5,0.92,2.96,1.01,4.67,1.08c2.3,0.1,4.35-0.18,6.62-0.66 c1.99-0.41,3.48-0.76,5.2-1.22c0.55-0.15,1.23-0.24,1.52-0.69l0,0l0.33,0.73l0.19,1.49c0,0-1.85,0.99-3.81,1.43 c-1.97,0.44-5.93,1.05-5.93,1.05l-0.27-0.65l-0.89,0.19l0.04,0.64l-2.16,0.12l-0.46-0.62l-0.72,0.02l0.11,0.55 c0,0-1.34-0.02-2.08-0.46c-0.14-0.21-0.41-0.55-0.41-0.55l-0.51-0.28l0.07,0.52l-1.86-0.67l-0.09-0.72l-0.53-0.31l-0.02,0.52 l-1.32-1.02l-0.14-0.63l-3.31-2.32l-0.51,1.21l-2.32-0.5l-0.08-0.5l-0.59-0.24l-0.41,0.38l-1.56-0.64l-0.03-0.46l-0.5-0.18 l-0.06,0.34l-1.48-1.01l-0.28-2.02l-0.06-2.2L107.74,229.7L107.74,229.7"/>
</g>
<g id="Top_Gunslinger-Boot" fill="rgb(0, 0, 0)">
<path d="M49.4,228.54c1.98-2.82,3.31-6.29,3.78-9.35l0,0l-0.55-0.05l-0.02,0l-0.07-0.01l-0.18-0.02l-0.28-0.03 l-0.12-0.02c-0.32-0.04-0.64-0.08-0.95-0.13l-0.49-0.09l-0.1-0.02l-0.03-0.01l-0.08-0.02l-0.34-0.08l-0.3-0.08l-0.05-0.01 c-1.05-0.26-0.91-0.48-0.91-0.48c-0.29,1.35-0.92,2.78-1.49,4.04c-0.89,1.98-2.73,3.69-4.25,5.2c-1.05,1.04-2.57,2.02-3.82,2.82 c-0.53,0.34-1.1,0.6-1.68,0.82c0.44,0.61,1.4,1.24,2.3,1.67c0.84,0.4,1.97,0.8,2.97,0.95c1.07,0.15,2.14-0.7,2.94-1.26 c1.39-0.98,2.63-2.3,3.69-3.8L49.4,228.54"/>
<path d="M120.67,228.54c-1.97-2.82-3.31-6.29-3.78-9.35l0,0l0.55-0.05l0.02,0l0.07-0.01l0.18-0.02l0.28-0.03 l0.11-0.02c0.32-0.04,0.64-0.08,0.95-0.13l0.49-0.09l0.1-0.02l0.04-0.01l0.08-0.02l0.34-0.08l0.3-0.08l0.05-0.01 c1.05-0.26,0.91-0.48,0.91-0.48c0.29,1.35,0.92,2.78,1.49,4.04c0.89,1.98,2.73,3.69,4.25,5.2c1.05,1.04,2.57,2.02,3.82,2.82 c0.53,0.34,1.1,0.6,1.68,0.82c-0.44,0.61-1.4,1.24-2.3,1.67c-0.84,0.4-1.97,0.8-2.97,0.95c-1.07,0.15-2.14-0.7-2.94-1.26 c-1.39-0.98-2.63-2.3-3.68-3.8L120.67,228.54"/>
</g>
<g id="Side_Gunslinger-Boot" fill="rgb(0, 0, 0)">
<path d="M49.38,228.58c1.7,0.49,3.36,1.12,4.94,1.93c1.16,0.59,3,1.15,4.07,0.89c3.33-0.83,3.88-3.91,3.88-3.91 c-0.1-0.67-0.84-3.25-1.06-3.94c-0.48-1.54-0.43-5.45-0.55-5.39c-2.67,1.41-6.12,1.16-7.48,1.05l0,0 C52.71,222.26,51.37,225.74,49.38,228.58"/>
<path d="M120.69,228.58c-1.7,0.49-3.36,1.12-4.94,1.93c-1.16,0.59-2.99,1.15-4.07,0.89 c-3.32-0.83-3.88-3.91-3.88-3.91c0.1-0.67,0.84-3.25,1.06-3.94c0.48-1.54,0.43-5.45,0.55-5.39c2.67,1.41,6.12,1.16,7.48,1.05l0,0 C117.36,222.26,118.71,225.74,120.69,228.58"/>
</g>
</g></g>
<g id="Gloves">
<g id="Left-Glove"><g id="Basic_Left_Glove" class="option" fill="rgb(63, 63, 63)" style="display: inherit;">
<path d="M133.16,120.46c-0.46-0.03-0.9-0.01-1.36,0.09c-0.31,0.07-0.62,0.16-0.9,0.34 c-0.85,0.55-0.62,1.76,0.14,2.21c0.89,0.53,2.29,0.01,2.69-1.02C133.9,121.66,133.39,120.86,133.16,120.46"/>
<path d="M131.6,121.51c-0.46-0.02-0.9-0.02-1.36,0.09c-0.31,0.07-0.62,0.16-0.9,0.34c-0.85,0.55-0.62,1.76,0.14,2.21 c0.89,0.53,2.29,0.01,2.69-1.02C132.34,122.71,131.83,121.91,131.6,121.51"/>
<path d="M130.49,122.93c-0.46,0.05-1.02,0.12-1.46,0.3c-0.3,0.12-0.59,0.25-0.85,0.47c-0.78,0.68-0.4,1.83,0.4,2.17 c0.94,0.39,2.27-0.34,2.55-1.42C131.24,124.01,130.49,122.93,130.49,122.93z"/>
<path d="M127.97,106.79c0,0-1.34,2.09-1.69,3.59c-0.25,1.06-0.11,3.58-0.43,5.28c-0.31,1.7-0.59,2.64-0.59,2.64 s-1.18,2.71-0.98,3.34c0.21,0.62,1.25,1.18,1.84,0.85c0.74-0.41,1.66-2.32,2.24-3.67c0.59-1.37,1.08-3.32,1.08-3.32 s0.81,0.32,1.23,0.68c1.38,1.2,0.78,4.82,0.78,4.82s-0.57,1.29-1.43,2.75c-1.17,1.99-2.97,3.7-1.78,5.22 c1.11,1.42,3.63-2.31,3.63-2.31l2.47-3.62c0,0,2.84-5.26,2.98-6.28c0.11-0.78,0.01-3.38,0.01-3.38l-0.89-10.08l-4.5,0.42 l-3.7,1.36L127.97,106.79"/>
</g>
</g>
<g id="Right-Glove"><g id="Basic_Right_Glove" class="option" fill="rgb(63, 63, 63)" style="display: inherit;">
<path d="M36.86,120.46c0.46-0.03,0.9-0.01,1.36,0.09c0.31,0.07,0.62,0.16,0.9,0.34c0.85,0.55,0.62,1.76-0.14,2.21 c-0.89,0.53-2.29,0.01-2.69-1.02C36.12,121.66,36.64,120.86,36.86,120.46"/>
<path d="M38.42,121.51c0.46-0.02,0.9-0.02,1.36,0.09c0.31,0.07,0.62,0.16,0.9,0.34c0.85,0.55,0.62,1.76-0.14,2.21 c-0.89,0.53-2.29,0.01-2.69-1.02C37.68,122.71,38.2,121.91,38.42,121.51"/>
<path d="M39.54,122.93c0.46,0.05,1.02,0.12,1.46,0.3c0.3,0.12,0.6,0.25,0.85,0.47c0.78,0.68,0.4,1.83-0.4,2.17 c-0.94,0.39-2.27-0.34-2.55-1.42C38.78,124.01,39.54,122.93,39.54,122.93z"/>
<path d="M42.06,106.79c0,0,1.34,2.09,1.69,3.59c0.25,1.06,0.11,3.58,0.43,5.28c0.31,1.7,0.59,2.64,0.59,2.64 s1.18,2.71,0.98,3.34c-0.21,0.62-1.24,1.18-1.84,0.85c-0.74-0.41-1.66-2.32-2.24-3.67c-0.59-1.37-1.08-3.32-1.08-3.32 s-0.81,0.32-1.23,0.68c-1.38,1.2-0.78,4.82-0.78,4.82s0.57,1.29,1.43,2.75c1.17,1.99,2.97,3.7,1.78,5.22 c-1.11,1.42-3.63-2.31-3.63-2.31l-2.47-3.62c0,0-2.84-5.26-2.98-6.28c-0.11-0.78-0.01-3.38-0.01-3.38l0.89-10.08l4.5,0.42 l3.7,1.36L42.06,106.79"/>
</g>
</g>
</g>
<g id="Biceps">
<g id="Left-Biceps"><g id="Basic_Biceps_Left" class="option" style="display: inherit;">
<path id="Main_Basic_Biceps_Left" d="M133.33,53.8c-1.18-2.85-6.45-15.35-6.45-15.35s-8.66,3.56-10.82,4.44 c-0.61,0.25-0.9,0.95-0.65,1.56c1.02,2.45,3.51,8.45,5.06,12.19c0.35,0.85,1.03,1.52,1.88,1.87c0.85,0.35,1.81,0.35,2.65,0 c2.54-1.04,5.95-2.44,7.68-3.15C133.29,55.1,133.58,54.41,133.33,53.8z" fill="rgb(208, 43, 43)"/>
<path id="Strap_Basic_Biceps_Left" d="M117.73,49.98l-4.71,1.93l1.11,3.94l5.16-2.12L117.73,49.98" fill="rgb(33, 33, 33)"/>
<path id="Trauma-Plate_Basic_Biceps_Left" class="toggle" style="" d="M133.29,53.21l-5.5-13.24l-10.55,4.33l4.84,11.67 c0.17,0.42,0.5,0.75,0.92,0.92c0.42,0.17,0.89,0.17,1.31,0L133.29,53.21" fill="rgb(53, 53, 53)"/>
</g>
</g>
<g id="Right-Biceps"><g id="Basic_Biceps_Right" class="option" style="display: inherit;">
<path id="Main_Basic_Biceps_Right" d="M36.74,53.8c1.18-2.85,6.46-15.35,6.46-15.35s8.66,3.56,10.82,4.44 c0.61,0.25,0.9,0.95,0.65,1.56c-1.02,2.45-3.51,8.45-5.06,12.19c-0.35,0.85-1.03,1.52-1.88,1.87c-0.85,0.35-1.8,0.35-2.65,0 c-2.54-1.04-5.95-2.44-7.68-3.15C36.78,55.1,36.49,54.41,36.74,53.8z" fill="rgb(208, 43, 43)"/>
<path id="Strap_Basic_Biceps_Right" d="M52.35,49.98l4.71,1.93l-1.11,3.94l-5.16-2.12L52.35,49.98" fill="rgb(33, 33, 33)"/>
<path id="Trauma-Plate_Basic_Biceps_Right" class="toggle" style="" d="M36.78,53.21l5.49-13.24l10.55,4.33l-4.84,11.67 c-0.17,0.42-0.5,0.75-0.92,0.92c-0.42,0.17-0.89,0.17-1.31,0L36.78,53.21" fill="rgb(53, 53, 53)"/>
</g>
</g>
</g>
<g id="BicepsDecals" mask="url(#BicepsMask)">
</g>
<path id="Vest" d="M91.61,82.96c-4.3,0.88-8.84,0.88-13.14,0c-4.33-0.88-12.83-5.29-12.83-5.29s-7.42-23.26-8.75-30.06 c-1.06-5.39-1.42-14.37-1.42-14.37l-12.73,8.52l-2.71-1.15c0,0,7.62-16.73,12.62-21.57c4.53-4.39,17.42-7.5,17.42-7.5 s5.68,6.2,14.97,6.25c8.84,0.04,14.97-6.25,14.97-6.25s12.89,3.12,17.42,7.5c5.01,4.85,12.62,21.57,12.62,21.57l-2.71,1.15 l-12.73-8.52c0,0-0.36,8.98-1.42,14.37c-1.33,6.79-8.76,30.06-8.76,30.06S95.93,82.08,91.61,82.96z" fill="rgb(60, 60, 60)"/>
<g id="SuitDecals" mask="url(#SuitMask)">
</g>
<g class="swappable" id="Chest"><g id="Chest_Galaxy">
<g id="Abdomen_Galaxy">
<path id="Abdomen-Plate_Galaxy" d="M78.22,70.87l-2.02,1.46l-10.28-1.46l-0.75-5.65l4.87-0.1l2.95-4.79l1.34-4.41 l10.66-9.7L85,46.24l0.02-0.02l10.66,9.7l1.34,4.41l2.95,4.79l4.87,0.1l-0.75,5.65L93.8,72.33l-2.02-1.46H78.22z" fill="rgb(67, 70, 157)"/>
<path id="Trauma-Plate_Abdomen_Galaxy" class="toggle" style="" d="M84.98,48.45l-9.21,8.38l-1.27,4.18l-3.53,5.74l-3.92,0.08 l0.34,2.59l8.37,1.19l1.91-1.38h14.64l1.91,1.38l8.37-1.19l0.34-2.59l-3.92-0.08l-3.53-5.74l-1.27-4.18l-9.21-8.38L85,48.47 L84.98,48.45z" fill="rgb(53, 53, 53)"/>
</g>
<g id="Full-Chest_Galaxy">
<path id="Chest-Plate_Galaxy" d="M80.72,32.14l-0.02,9.88l3.12,3.14L72.88,55.48l-1.42,4.76l-2.32,3.79h-4.01 l-1.95-2.83L60.7,47.37l-3.63-5.65l4.61-14.81l5.31-0.67l0.75-3.27l5.69-0.69l1.8,2.92h19.57l1.8-2.92l5.69,0.69l0.75,3.27 l5.31,0.67l4.61,14.81l-3.63,5.65l-2.48,13.84l-1.95,2.83h-4.01l-2.32-3.79l-1.42-4.76L86.18,45.16l3.12-3.14l-0.02-9.88 L85,28.83L80.72,32.14z" fill="rgb(208, 43, 43)"/>
<path id="Trauma-Plating_Left-Chest_Galaxy" class="toggle" style="" d="M95.71,26.84H85.12l5.81,4.5l0.02,11.36l-2.42,2.42 l10.04,9.47l1.49,4.98l1.73,2.82H104l1.25-1.82l2.47-13.81l3.4-5.29l-4.06-13.06l-5.4-0.68l-0.75-3.27l-3.48-0.42L95.71,26.84z" fill="rgb(53, 53, 53)"/>
<path id="Trauma-Plating_Right-Chest_Galaxy" class="toggle" style="" d="M72.56,24.04l-3.48,0.42l-0.75,3.27l-5.4,0.68 l-4.07,13.06l3.4,5.29l2.47,13.81L66,62.39h2.21l1.73-2.82l1.49-4.98l10.04-9.47l-2.42-2.42l0.02-11.36l5.81-4.5H74.29 L72.56,24.04z" fill="rgb(53, 53, 53)"/>
<g id="Accents_Chest-Plate_Galaxy" class="toggle" fill="rgb(208, 43, 43)">
<rect x="95.82" y="30" width="9.01" height="1.19"/>
<rect x="95.82" y="32.1" width="9.01" height="1.19"/>
</g>
</g>
<g id="Iron-Heart_Galaxy">
<path id="Heart_Galaxy" d="M82.38,41.74v-8.89L85,30.8l2.62,2.05v8.89L85,44.38L82.38,41.74z" fill="rgb(185, 125, 74)"/><rect id="Center_Heart_Galaxy" class="option" x="84.09" y="34.21" width="1.82" height="6.09" fill="rgb(162, 139, 139)" style="display: inherit;"/>
</g>
<g id="Neck-Armor_Galaxy">
<g id="Neck-Plate_Galaxy" fill="rgb(208, 43, 43)">
<path d="M82.81,24.23l-7.2,0.12l-1.77-2.89l-6.87,0.81l-0.68,2.99l-4.4,0.54l-3.24-11.12l11.25-3.35 c0,0,1.49,2.51,2.57,3.39c1.11,0.91,2.59,1.97,3.98,2.57c1.52,0.66,3.37,1.1,5.13,1.39c0.18,0.03,0.37,0.06,0.57,0.08 L82.81,24.23z"/>
<path d="M87.19,24.23l7.2,0.12l1.77-2.89l6.87,0.81l0.68,2.99l4.4,0.54l3.25-11.12l-11.25-3.35 c0,0-1.49,2.51-2.57,3.39c-1.11,0.91-2.59,1.97-3.98,2.57c-1.52,0.66-3.37,1.1-5.13,1.39c-0.18,0.03-0.37,0.06-0.57,0.08 L87.19,24.23z"/>
</g>
<g id="Trauma-Plates_Neck_Galaxy" class="toggle" style="" fill="rgb(54, 54, 54)">
<path d="M100.82,13.27c-0.61,0.91-1.51,2.14-2.24,2.73c-1.21,0.99-2.84,2.15-4.36,2.81 c-1.45,0.63-3.18,1.08-4.87,1.39l-0.3,2.42l4.42,0.07l1.83-2.99l9.08,1.08l0.68,3l1.85,0.23l2.4-8.21L100.82,13.27z"/>
<path d="M69.18,13.27l-8.49,2.53l2.4,8.21l1.85-0.23l0.68-3l9.08-1.08l1.83,2.99l4.42-0.07l-0.3-2.42 c-1.7-0.31-3.42-0.76-4.87-1.39c-1.52-0.66-3.15-1.82-4.36-2.81C70.69,15.4,69.79,14.17,69.18,13.27z"/>
</g>
</g>
</g></g>
<g id="ChestDecals" mask="url(#ChestMask)">
</g>
<g id="Chest-Attachments"><g id="No-Device_Accessories_Chest" class="option" style="display: inherit;">
</g>
</g>
<g id="Collar"><g id="None_Collar" class="option" style="display: inherit;">
</g>
</g>
<g id="CollarDecals" mask="url(#CollarMask)">
</g>
<g id="Helmets" class="swappable" transform="translate(45,-52)"><g id="Helmet_Ramikadyc">
<g id="Left-Earcap_Ramikadyc" class="toggle"><path id="Ear-Cap_Left_Ramikadyc" d="M55.98,35.66l2.72,1.01c0,0,0.74,3.43,0.81,6.29c0.06,2.86-0.78,6.19-0.78,6.19 l-1.7,0.79l-0.05-11.99L55.98,35.66z" fill="rgb(220, 59, 59)"/>
</g>
<g id="Right-Earcap_Ramikadyc" class="toggle"><path id="Ear-Cap_Right_Ramikadyc" d="M24.02,35.66l-2.72,1.01c0,0-0.74,3.43-0.81,6.29 c-0.06,2.86,0.77,6.19,0.77,6.19l1.7,0.79l0.05-11.99L24.02,35.66z" fill="rgb(220, 59, 59)"/>
</g>
<g id="Helmet_Pieces_Ramikadyc">
<g id="Mouth_Ramikadyc" fill="rgb(53, 53, 53)">
<path d="M36.83,67.32c0,0,0.09-2.75-0.19-4.09c-0.28-1.34-0.65-2.87-0.65-2.87l3.89-1.61h0.05l3.89,1.61 c0,0-0.37,1.53-0.65,2.87c-0.28,1.34-0.19,4.09-0.19,4.09H36.83z"/>
<path d="M39.9,58.75v6.41"/>
<path d="M36.83,67.32l0.01-0.93l3.03-1.21v-0.02l0.03,0.01l0.03-0.01v0.02l3.03,1.21l0.01,0.93H36.83z"/>
</g>
<g id="Face_Ramikadyc" fill="rgb(53, 53, 53)">
<path d="M43.81,60.35l0.2,0.03c4.27-4.69,7.12-9.26,8.22-13.69l4.24-3.7l0.57-1.31v-0.03l0,0v10.48 c0,0-3.12,6.56-6.46,9.75c-2.22,2.12-7.53,5.43-7.53,5.43h-0.07c0,0-0.09-2.75,0.19-4.09C43.44,61.88,43.81,60.35,43.81,60.35z"/>
<path d="M35.99,60.35l-0.2,0.03c-4.27-4.69-7.12-9.26-8.22-13.69l-4.24-3.7l-0.57-1.31v-0.03l0,0v10.48 c0,0,3.12,6.56,6.46,9.75c2.22,2.12,7.53,5.43,7.53,5.43h0.07c0,0,0.09-2.75-0.19-4.09C36.36,61.88,35.99,60.35,35.99,60.35z"/>
</g>
<g id="Cheeks-2_Ramikadyc" fill="rgb(163, 163, 163)">
<path d="M25.45,49.03l7.87,9.53c0,0,1.4,1.86,1.05,3.98c-0.35,2.12-1.36,2.26-1.36,2.26l-2.12-0.72l-7.85-8.92 c0,0-1.15-1.11-0.97-3.41c0.09-1.14,2.13-2.98,2.13-2.98S24.83,48.37,25.45,49.03z"/>
<path d="M22.16,51.4c0,0,0.35-0.91,0.88-0.85c0.53,0.06,4.06,4.18,4.06,4.18s4.28,4.62,4.5,5 c0.68,1.17,0.64,2.49,0.5,3.04c-0.28,1.11-1.2,1.33-1.2,1.33l-7.85-8.92C23.05,55.17,21.62,53.54,22.16,51.4z"/>
<path d="M22.36,51.75c0.09-0.35,0.27-0.8,0.62-0.86c0.44-0.07,3.49,3.57,3.49,3.57s3.46,3.77,3.65,4.09 c0.57,0.97,0.53,2.07,0.41,2.53c-0.23,0.93-1,1.11-1,1.11l-6.48-7.49C23.06,54.69,22.03,53.06,22.36,51.75z"/>
<path d="M54.56,49.03l-7.87,9.53c0,0-1.4,1.86-1.05,3.98c0.35,2.12,1.36,2.26,1.36,2.26l2.12-0.72l7.85-8.92 c0,0,1.15-1.11,0.97-3.41c-0.09-1.14-2.13-2.98-2.13-2.98S55.18,48.37,54.56,49.03z"/>
<path d="M57.85,51.4c0,0-0.35-0.91-0.88-0.85c-0.53,0.06-4.06,4.18-4.06,4.18s-4.28,4.62-4.5,5 c-0.68,1.17-0.63,2.49-0.5,3.04c0.28,1.11,1.2,1.33,1.2,1.33l7.85-8.92C56.96,55.17,58.39,53.54,57.85,51.4z"/>
<path d="M57.65,51.75c-0.09-0.35-0.27-0.8-0.62-0.86c-0.44-0.07-3.49,3.57-3.49,3.57s-3.46,3.77-3.65,4.09 c-0.57,0.97-0.53,2.07-0.41,2.53c0.23,0.93,1,1.11,1,1.11l6.48-7.49C56.95,54.69,57.98,53.06,57.65,51.75z"/>
</g>
<g id="Cheeks-1_Ramikadyc" fill="rgb(163, 163, 163)">
<path d="M28.12,58.56c0.79-0.28,1.91,0.7,2.48,2.17c0.58,1.47,0.4,2.89-0.39,3.17c-0.79,0.28-1.91-0.7-2.48-2.17 S27.33,58.83,28.12,58.56z"/>
<path d="M28.19,58.96c0.64-0.22,1.56,0.62,2.06,1.89c0.49,1.26,0.38,2.47-0.26,2.69c-0.64,0.22-1.56-0.62-2.06-1.89 C27.44,60.39,27.55,59.18,28.19,58.96z"/>
<path d="M28.51,59.97c0.36-0.12,0.87,0.35,1.15,1.05c0.28,0.71,0.21,1.38-0.15,1.5c-0.36,0.12-0.87-0.35-1.15-1.05 C28.09,60.77,28.15,60.1,28.51,59.97z"/>
<path d="M28.63,60.44c0.24-0.08,0.58,0.23,0.76,0.7c0.18,0.47,0.14,0.92-0.1,1c-0.24,0.08-0.58-0.23-0.76-0.7 S28.39,60.52,28.63,60.44z"/>
<path d="M30.09,57.99c0.9,0.99,1.42,1.57,1.51,1.73c0.68,1.17,0.64,2.49,0.5,3.04c-0.15,0.61-0.57,1.17-1.2,1.33 l-0.9-0.15c0.21-0.04,0.39-0.12,0.55-0.25c0.5-0.51,0.55-1.72,0.07-2.96c-0.58-1.47-1.69-2.44-2.48-2.17L30.09,57.99z"/>
<path d="M51.88,58.56c-0.79-0.28-1.9,0.7-2.48,2.17c-0.58,1.47-0.4,2.89,0.39,3.17c0.79,0.28,1.9-0.7,2.48-2.17 S52.68,58.83,51.88,58.56z"/>
<path d="M51.81,58.96c-0.64-0.22-1.56,0.62-2.06,1.89s-0.38,2.47,0.26,2.69c0.64,0.22,1.56-0.62,2.06-1.89 S52.45,59.18,51.81,58.96z"/>
<path d="M51.5,59.97c-0.36-0.12-0.87,0.35-1.15,1.05c-0.28,0.71-0.21,1.38,0.15,1.5c0.36,0.12,0.87-0.35,1.15-1.05 C51.92,60.77,51.85,60.1,51.5,59.97z"/>
<path d="M51.38,60.44c-0.24-0.08-0.58,0.23-0.76,0.7c-0.18,0.47-0.14,0.92,0.1,1c0.24,0.08,0.58-0.23,0.76-0.7 C51.66,60.97,51.61,60.52,51.38,60.44z"/>
<path d="M49.92,57.99c-0.9,0.99-1.42,1.57-1.51,1.73c-0.68,1.17-0.63,2.49-0.5,3.04c0.15,0.61,0.57,1.17,1.2,1.33 l0.9-0.15c-0.21-0.04-0.39-0.12-0.55-0.25c-0.5-0.51-0.55-1.72-0.07-2.96c0.58-1.47,1.69-2.44,2.48-2.17L49.92,57.99z"/>
</g>
<path fill="rgb(0, 0, 0)" id="Visor_Ramikadyc" d="M39.66,58.08v-0.89l-1.53-2.96l-0.24-8.75l-3.12-1.34l-1.24,0.52l-8.31-4.57l-1.2-4.78 C29,38.21,39.9,42.11,39.9,42.11s10.94-3.93,15.88-6.79l-1.2,4.78l-8.31,4.57l-1.24-0.52l-3.12,1.34l-0.24,8.75l-1.53,2.96v0.89 l3.88,2.3l-0.2-0.03l-3.91-1.61l-3.91,1.61h-0.2L39.66,58.08z M39.9,57.94L39.9,57.94z"/>
<g id="Eyes_Ramikadyc" fill="rgb(67, 70, 157)">
<path d="M55.85,35.33l1.14,2.62l0.05,3.7l-0.57,1.31l-4.24,3.7c-1.1,4.43-3.95,9-8.22,13.69l-3.83-2.35l0-0.01 l0.03,0.01v-0.81l1.53-2.96l0.24-8.75l3.12-1.34l1.24,0.52l8.31-4.57L55.85,35.33z M55.84,35.32l-0.04,0.02L55.84,35.32 L55.84,35.32z"/>
<path d="M23.95,35.33l-1.14,2.62l-0.05,3.7l0.57,1.31l4.24,3.7c1.1,4.43,3.95,9,8.22,13.69l3.83-2.35l0-0.01 l-0.03,0.01v-0.81l-1.53-2.96l-0.24-8.75l-3.12-1.34l-1.24,0.52l-8.31-4.57L23.95,35.33z M23.96,35.32L24,35.35L23.96,35.32 L23.96,35.32z"/>
</g>
<g id="Dome-2_Ramikadyc" fill="rgb(67, 70, 157)">
<path d="M44.15,40.51L42,38.63l-0.26-2.78l2.9-2.63l2.79-9.5l1.76,0.05L49.65,21l-1.4-1.02l0.52-1.22 c0,0,5.53,4.19,6.05,5.16c0.52,0.97,0.88,10.91,0.77,11.39c-0.01,0.03-0.04,0.08-0.08,0.15C52.54,37.14,47.67,39.15,44.15,40.51z "/>
<path d="M24.28,35.47c-0.05-0.07-0.07-0.12-0.08-0.15c-0.11-0.48,0.26-10.42,0.77-11.39 c0.52-0.97,6.05-5.16,6.05-5.16l0.52,1.22L30.14,21l0.47,2.78l1.76-0.05l2.79,9.5l2.9,2.63l-0.26,2.78l-2.15,1.88 C32.13,39.15,27.27,37.15,24.28,35.47z"/>
</g>
<g id="Dome-1_Ramikadyc" fill="rgb(53, 53, 53)">
<path d="M24.93,24.02c-0.5,1.4-0.84,10.83-0.73,11.3c0.01,0.03,0.03,0.08,0.08,0.15c0.05,0.03-1.37,0.6-1.37,0.6 C23.21,30.9,23.59,25.99,24.93,24.02L24.93,24.02z"/>
<path d="M54.88,24.02c0.5,1.4,0.84,10.83,0.73,11.3c-0.01,0.03-0.03,0.08-0.08,0.15c-0.05,0.03,1.37,0.6,1.37,0.6 C56.6,30.9,56.22,25.99,54.88,24.02L54.88,24.02z"/>
<path d="M35.64,40.51l2.15-1.88l0.26-2.78l-2.9-2.63l-2.79-9.5l-1.76,0.05L30.14,21l1.4-1.02l-0.52-1.22 c3.73-1.78,8.1-2.06,8.82-2.09v-0.01l0.09,0c0.01,0,0.01,0,0.01,0v0.01c0.73,0.03,5.09,0.31,8.82,2.09l-0.52,1.22l1.4,1.02 l-0.47,2.78l-1.76-0.05l-2.79,9.5l-2.9,2.63L42,38.63l2.15,1.88c-1.17,0.45-2.19,0.84-2.93,1.12l-1.27,0.41v0.03l-0.05-0.02 l-0.05,0.02v-0.03l-1.29-0.42C37.81,41.34,36.8,40.96,35.64,40.51z"/>
</g>
</g>
</g></g>
<g id="HelmetsDecals" mask="url(#HelmetsMask)"/>
<g id="Shoulders">
<g id="Left-Shoulder"><g id="Legacy-x3_Shoulder_Left" class="option" style="display: inherit;">
<path id="Plate-3_Shoulder_Left_Legacy-x3" d="M117.06,20.06l-7.61,7.75l4.46,9.61l10.03-0.53l5.31,4.84l4.73-0.33 L117.06,20.06z" fill="rgb(208, 43, 43)"/>
<path id="Trauma-Plate-3_Shoulder_Legacy-x3_Left" class="toggle" style="" d="M129.88,39.93l3.05-0.21l-14.58-18.47l-6.8,6.92 l3.45,7.43l9.24-0.57L129.88,39.93z" fill="rgb(53, 53, 53)"/>
<path id="Plate-2_Shoulder_Left_Legacy-x3" d="M112.95,15.27l-6.03,9.03l6.18,8.61l9.75-2.38l6.12,3.77l4.58-1.2 L112.95,15.27z" fill="rgb(67, 70, 157)"/>
<path id="Trauma-Plate-2_Shoulder_Legacy-x3_Left" class="toggle" style="" d="M129.25,32.41l2.96-0.77l-17.76-15.47l-5.39,8.05 l4.77,6.67l8.97-2.26L129.25,32.41z" fill="rgb(53, 53, 53)"/>
<path id="Plate-1_Shoulder_Left_Legacy-x3" d="M105.53,10.64l-2.71,10.49l8.68,6.12l8.43-5.43l7.03,1.57l3.93-2.63 L105.53,10.64z" fill="rgb(208, 43, 43)"/>
<path id="Trauma-Plate-1_Shoulder_Legacy-x3_Left" class="toggle" style="" d="M126.6,21.52l2.54-1.7l-21.9-8.79l-2.42,9.37 l6.72,4.74l7.72-5.07L126.6,21.52z" fill="rgb(53, 53, 53)"/>
</g></g>
<g id="Right-Shoulder"><g id="Legacy-x3_Shoulder_Right" class="option" style="display: inherit;">
<path id="Plate-3_Shoulder_Right_Legacy-x3" d="M53.01,20.06l7.61,7.75l-4.46,9.61L46.13,36.9l-5.31,4.84 l-4.72-0.33L53.01,20.06z" fill="rgb(208, 43, 43)"/>
<path id="Trauma-Plate-3_Shoulder_Legacy-x3_Right" class="toggle" style="" d="M40.19,39.93l-3.05-0.21l14.58-18.47l6.8,6.92 l-3.45,7.43l-9.24-0.57L40.19,39.93z" fill="rgb(53, 53, 53)"/>
<path id="Plate-2_Shoulder_Right_Legacy-x3" d="M57.12,15.27l6.03,9.03l-6.18,8.61l-9.75-2.38l-6.12,3.77 l-4.58-1.2L57.12,15.27z" fill="rgb(67, 70, 157)"/>
<path id="Trauma-Plate-2_Shoulder_Legacy-x3_Right" class="toggle" style="" d="M40.82,32.41l-2.96-0.77l17.76-15.47l5.39,8.05 l-4.77,6.67l-8.97-2.26L40.82,32.41z" fill="rgb(53, 53, 53)"/>
<path id="Plate-1_Shoulder_Right_Legacy-x3" d="M64.54,10.64l2.71,10.49l-8.68,6.12l-8.43-5.43l-7.03,1.57 l-3.93-2.63L64.54,10.64z" fill="rgb(208, 43, 43)"/>
<path id="Trauma-Plate-1_Shoulder_Legacy-x3_Right" class="toggle" style="" d="M43.46,21.52l-2.54-1.7l21.9-8.79l2.42,9.37 l-6.72,4.74l-7.72-5.07L43.46,21.52z" fill="rgb(53, 53, 53)"/>
</g></g>
</g>
<g id="ShouldersDecals" mask="url(#ShouldersMask)">
</g>
<g id="Gauntlets">
<g id="Left-Gauntlets"><g id="Heavy_Gauntlet_Left" class="option" style="display: inherit;">
<g id="Top-2_Heavy_Gauntlet_Left" fill="rgb(67, 70, 157)">
<path d="M138.59,76.62l1.79,0.28l0.78,8.51l-1.63,1.15L138.59,76.62z"/>
<path d="M139.46,85.82l0.98,11.09l-1.1,1.25l0.62,6.53l-0.49,0.3l-1.72-17.87L139.46,85.82z"/>
<path d="M139.73,82.71c0.22,0.02,0.38,0.21,0.36,0.42c-0.02,0.21-0.21,0.37-0.42,0.36 c-0.22-0.02-0.38-0.21-0.36-0.42C139.33,82.85,139.52,82.69,139.73,82.71z"/>
</g>
<g id="Top-1_Heavy_Gauntlet_Left" fill="rgb(53, 53, 53)">
<path d="M134.86,105.83l4.61-0.85l-1.72-17.87l1.71-1.29l-0.92-9.74l-6.76-1.25L134.86,105.83z"/>
<path d="M136.79,75.76l0.96,11.35"/>
</g>
<g id="Accent-Top_Heavy_Gauntlet_Left" fill="rgb(67, 70, 157)">
<path d="M138.4,102.17l-2.92,0.35l0.25,2.26l2.93-0.44L138.4,102.17z"/>
<path d="M137.36,92.7l-2.92,0.35l0.96,8.83l2.92-0.35L137.36,92.7z"/>
<path d="M136.12,76.34l-3.22-0.51l0.91,9.67l3.06-0.36L136.12,76.34z"/>
</g>
<path id="Bottom_Heavy_Gauntlet_Left" d="M131.82,75.29c-3.5-0.15-7.25,1.05-9.76,3.79 c-0.81,0.89-1.14,2.11-0.88,3.29c1.24,5.67,5.3,24.23,5.3,24.23l8.38-0.76L131.82,75.29z" fill="rgb(53, 53, 53)"/>
<g id="Accent-Bottom_Heavy_Gauntlet_Left" fill="rgb(208, 43, 43)">
<path d="M134.86,105.83l-8.38,0.76l-0.33-1.5l8.54-0.89L134.86,105.83z"/>
<path d="M132.02,77.36c-4.54,0.08-8.44,1.41-10.6,6.11l-0.24-1.11c-0.2-0.92-0.04-1.88,0.43-2.68l0.48-0.64 c2.51-2.72,6.24-3.91,9.72-3.75L132.02,77.36z"/>
<path d="M130.96,75.89l-3.7,0.42l1.68,14.61l3.7-0.42L130.96,75.89z"/>
<path d="M130.51,76.22l-2.73,0.31l1.55,13.51l2.73-0.31L130.51,76.22z"/>
<path d="M127.78,76.53l-0.52-0.22"/>
<path d="M130.96,75.89l-0.46,0.33"/>
<path d="M132.64,90.5l-0.58-0.77"/>
<path d="M128.95,90.92l0.46-0.89"/>
</g><g id="No-Device_Attachment_Heavy_Gauntlet_Left" class="option" style="display: inherit;">
</g>
</g></g>
<g id="Right-Gauntlets"><g id="Basic_Gauntlet_Right" class="option" style="display: inherit;">
<path id="Top-2_Basic_Gauntlet_Right" d="M29.77,108.05l-1.6-2.13l2.46-19.29l0.86,2.24l-1.2,8.8l0.93,2.08 L29.77,108.05z" fill="rgb(67, 70, 157)"/>
<path id="Top-1_Basic_Gauntlet_Right" d="M30.63,86.62l0.86,2.24l-1.2,8.8l0.93,2.08l-1.45,8.31l1.05,1.41 l-0.05,5.31l1.66,0.29l1.54-8.11l1.47-0.68l5.05-23.8l-9.3-0.21L30.63,86.62z" fill="rgb(53, 53, 53)"/>
<g id="Accent-Bottom_Basic_Gauntlet_Right" fill="rgb(208, 43, 43)">
<path d="M44.58,89.14l2.1,0.5l-0.75,3.1l-2.1-0.5L44.58,89.14z"/>
<path d="M43.29,94.58l2.09,0.5l-0.75,3.1l-2.1-0.5L43.29,94.58z"/>
<path d="M41.93,100.14l2.1,0.5l-0.75,3.1l-2.1-0.5L41.93,100.14z"/>
</g>
<path id="Bottom_Basic_Gauntlet_Right" d="M46.66,89.64l0.56-2.36l-6.82-4.44l-4.96,23.41l7.08,0.7l2.1-8.77 l-2.09-0.5l0.75-3.1l2.08,0.5l0.56-2.33l-2.09-0.5l0.75-3.1L46.66,89.64z M41.93,100.14l2.1,0.5l-0.74,3.1l-2.11-0.51 L41.93,100.14z" fill="rgb(53, 53, 53)"/><g id="Flamethrower_Attachment_Basic_Gauntlet_Right" class="option" style="display: inherit;">
<g id="Tubes_Flamethrower_Attachment_Basic_Gauntlet_Right" fill="rgb(156, 156, 156)">
<path d="M29.54,83.27l0.86,0.11l-3.23,26.03l-0.86-0.11L29.54,83.27z"/>
<path d="M27.57,83.03l0.86,0.11l-2.32,18.66l-0.86-0.11L27.57,83.03z"/>
<path d="M29.18,84.88l1.18,0.14l-0.77,6.2l-1.18-0.15L29.18,84.88z"/>
<path d="M27.21,84.64l1.18,0.15l-0.77,6.2l-1.18-0.14L27.21,84.64z"/>
</g>
<g id="Main_Flamethrower_Attachment_Basic_Gauntlet_Right" fill="rgb(158, 158, 158)">
<path d="M27.2,82.98l3.53,0.43l-0.2,1.63L27,84.62L27.2,82.98z"/>
<path d="M26.15,90.81l3.69,0.45l-0.12,0.99l-3.7-0.45L26.15,90.81z"/>
<path d="M26.18,91.82l3.39,0.42l-0.06,0.5l-3.39-0.42L26.18,91.82z"/>
<path d="M29.55,90.6l0.57,0.09l-0.38,3.03l-0.57-0.09L29.55,90.6z"/>
</g>
<g id="Accent_Flamethrower_Attachment_Basic_Gauntlet_Right" fill="rgb(156, 154, 154)">
<path d="M25.22,101.69l0.92,0.11l-0.02,1.29l-1.21-0.15L25.22,101.69z"/>
<path d="M25.69,95.01l1.63,0.2l-0.24,1.97l-1.63-0.2L25.69,95.01z"/>
<path d="M25.67,97.02l1.18,0.15l-0.24,1.97l-1.18-0.15L25.67,97.02z"/>
<path d="M26.55,105.99l1.18,0.14l-0.34,2.71l-1.18-0.15L26.55,105.99z"/>
<path d="M27.64,97.26l1.18,0.14l-0.46,3.68l-1.18-0.14L27.64,97.26z"/>
<path d="M26.16,107.32l1.63,0.2l-0.07,0.53l-1.63-0.2L26.16,107.32z"/>
</g>
<path id="Base_Flamethrower_Attachment_Basic_Gauntlet_Right" d="M30.11,90.68l1.04-8.21l-1.03,0.26l-1.76,13.89 l0.93,0.56l0.44-3.47l-0.57-0.09l0.38-3.03L30.11,90.68z" fill="rgb(158, 156, 156)"/>
</g></g>
</g>
</g>
<g id="GauntletsDecals" mask="url(#GauntletsMask)">
</g>
<g id="Shins">
<g id="Left-Shin"><g id="Legacy_Shin_Left" class="option" style="display: inherit;">
<path id="Plate-3_Legacy-Shin_Left" d="M105.29,198.57l3.46,16.16c0,0,5.05,1.25,7.82,1.07 c2.77-0.19,6.52-1.47,6.52-1.47l-0.74-17.24l-7.58,4.18L105.29,198.57" fill="rgb(67, 70, 157)"/>
<path id="Plate-2_Legacy-Shin_Left" d="M102.6,188.57l2,9.8l10.17,2.89l8.24-4.54l-0.3-9.81l-9.21,4.15 L102.6,188.57" fill="rgb(208, 43, 43)"/>
<path id="Plate-1_Legacy-Shin_Left" d="M107.02,175.14l-6.55,6.46l1.42,6.81l11.61,2.66l9.85-4.44l-0.22-8.3 l-7.38-4L107.02,175.14" fill="rgb(67, 70, 157)"/>
<path id="Trauma-Plate-3_Legacy-Shin_Left" class="toggle" style="" d="M120.72,199.99l-5.09,2.8c-0.41,0.23-0.89,0.28-1.34,0.15 l-6.66-1.89l2.62,12.22c1.54,0.34,4.4,0.89,6.21,0.77c1.61-0.11,3.57-0.62,4.82-0.99L120.72,199.99" fill="rgb(53, 53, 53)"/>
<path id="Trauma-Plate-2_Legacy-Shin_Left" class="toggle" style="" d="M121.03,189.6l-6.8,3.06c-0.35,0.16-0.75,0.2-1.12,0.11 l-8.23-1.88l1.24,6.09l8.44,2.4l6.66-3.67L121.03,189.6" fill="rgb(53, 53, 53)"/>
<path id="Trauma-Plate-1_Legacy-Shin_Left" class="toggle" style="" d="M107.82,176.82l-5.42,5.35l1,4.77l9.92,2.27l8.24-3.71 l-0.17-6.13l-6.01-3.26L107.82,176.82" fill="rgb(53, 53, 53)"/>
<g id="Ridge_Legacy-Shin_Left" class="toggle" style="" fill="rgb(208, 43, 43)">
<path d="M114.18,215.77l0.61,0.06c-0.33-0.01-0.65-0.04-0.97-0.1L114.18,215.77"/>
<path d="M116.77,189.65l0.68,10.2l-2.68,1.48l-3.68-1.04l-1.63-10.08l4.04,0.92L116.77,189.65"/>
<path d="M117.45,199.85l1.05,15.69c-1.19,0.18-2.48,0.34-3.7,0.28l-0.61-0.06l-0.35-0.04l-0.23-0.03l-2.5-15.41 l3.68,1.04L117.45,199.85"/>
<path d="M107.03,175.19l-0.01-0.05l4.25-1.46l4.48,0.64l0,0.06l-0.01,0l-0.02,0l0.02,0l0.01,0l1.02,15.26 l-3.27,1.47l-4.04-0.92L107.03,175.19"/>
<path d="M111.27,173.68l2.23,17.44"/>
<path d="M113.5,191.12l1.27,10.2"/>
<path d="M114.77,201.32l1.64,14.47"/>
</g>
</g></g>
<g id="Right-Shin"><g id="Legacy_Shin_Right" class="option" style="display: inherit;">
<path id="Plate-3_Legacy-Shin_Right" d="M64.71,198.57l-3.46,16.16c0,0-5.05,1.25-7.82,1.07 c-2.77-0.19-6.52-1.47-6.52-1.47l0.74-17.24l7.58,4.18L64.71,198.57" fill="rgb(67, 70, 157)"/>
<path id="Plate-2_Legacy-Shin_Right" d="M67.4,188.57l-2,9.8l-10.17,2.89l-8.24-4.54l0.3-9.81l9.21,4.15 L67.4,188.57" fill="rgb(208, 43, 43)"/>
<path id="Plate-1_Legacy-Shin_Right" d="M62.98,175.14l6.55,6.46l-1.42,6.81l-11.61,2.66l-9.85-4.44l0.22-8.31 l7.38-4L62.98,175.14" fill="rgb(67, 70, 157)"/>
<path id="Trauma-Plate-3_Legacy-Shin_Right" class="toggle" style="" d="M49.28,199.99l5.09,2.8c0.41,0.23,0.89,0.28,1.34,0.15 l6.66-1.89l-2.62,12.22c-1.54,0.34-4.4,0.89-6.21,0.77c-1.61-0.11-3.57-0.62-4.82-0.99L49.28,199.99" fill="rgb(53, 53, 53)"/>
<path id="Trauma-Plate-2_Legacy-Shin_Right" class="toggle" style="" d="M48.97,189.6l6.8,3.06c0.35,0.16,0.75,0.2,1.12,0.11 l8.23-1.88l-1.24,6.09l-8.44,2.4l-6.66-3.67L48.97,189.6" fill="rgb(53, 53, 53)"/>
<path id="Trauma-Plate-1_Legacy-Shin_Right" class="toggle" style="" d="M62.19,176.82l5.42,5.35l-1,4.77l-9.92,2.27l-8.24-3.71 l0.17-6.13l6.01-3.26L62.19,176.82" fill="rgb(53, 53, 53)"/>
<g id="Ridge_Legacy-Shin_Right" class="toggle" style="" fill="rgb(208, 43, 43)">
<path d="M55.82,215.77l-0.61,0.06c0.33-0.01,0.65-0.04,0.97-0.1L55.82,215.77"/>
<path d="M53.23,189.65l-0.68,10.2l2.68,1.48l3.68-1.04l1.63-10.08l-4.04,0.92L53.23,189.65"/>
<path d="M52.55,199.85l-1.05,15.69c1.19,0.18,2.48,0.34,3.7,0.28l0.61-0.06l0.35-0.04l0.24-0.03l2.5-15.41 l-3.68,1.04L52.55,199.85"/>
<path d="M62.97,175.19l0.01-0.06l-4.25-1.46l-4.48,0.64l0,0.06l0.01,0l0.02,0l-0.02,0l-0.01,0l-1.02,15.26 l3.27,1.47l4.04-0.92L62.97,175.19"/>
<path d="M58.73,173.68l-2.23,17.44"/>
<path d="M56.5,191.12l-1.27,10.2"/>
<path d="M55.23,201.32l-1.64,14.47"/>
</g>
</g></g>
</g>
<g id="ShinsDecals" mask="url(#ShinsMask)">
</g>
<g id="Foot">
<g id="Left-Ankle"><g id="Legacy_Ankle_Left" class="option" style="display: inherit;">
<path id="Plate-2_Legacy-Ankle_Left" d="M124.5,223.42l3.77,3.39l2.6,3.25l-4.16,1.34l-9.52-1.97l-3.48-4.58 L124.5,223.42" fill="rgb(67, 70, 157)"/>
<path id="Plate-1_Legacy-Ankle_Left" d="M107.38,217.05c0,0,3.8,1.69,9.42,1.49c3.86-0.14,5.42-1.1,5.42-1.1 l3.27,6.02l-0.85,3.32l-13.76-1.08l-3.39-2.85L107.38,217.05" fill="rgb(208, 43, 43)"/>
<path id="Trauma-Plate-2_Legacy-Ankle_Left" class="toggle" style="" d="M125.31,224.15l2.94,2.64l1.52,1.89l-3.16,1.02 l-8.38-1.73l-1.38-1.81l7.79,0.61L125.31,224.15" fill="rgb(53, 53, 53)"/>
<path id="Trauma-Plate-1_Legacy-Ankle_Left" class="toggle" style="" d="M108.82,219.15l0.06,2.76l2.74,2.21l12.1,0.95l0.86-3.32 l-1.54-2.84c-1.02,0.29-4.12,1.18-6.16,1.26C113.64,220.28,110.62,219.62,108.82,219.15" fill="rgb(53, 53, 53)"/>
</g></g>
<g id="Left-Toe"><g id="None_Toe_Left" class="option" style="display: inherit;">
</g>
</g>
<g id="Right-Ankle"><g id="Legacy_Ankle_Right" class="option" style="display: inherit;">
<path id="Plate-2_Legacy-Ankle_Right" d="M45.56,223.42l-3.77,3.39l-2.6,3.25l4.16,1.34l9.52-1.97l3.48-4.58 L45.56,223.42" fill="rgb(67, 70, 157)"/>
<path id="Plate-1_Legacy-Ankle_Right" d="M62.68,217.05c0,0-3.8,1.69-9.42,1.49c-3.86-0.14-5.43-1.1-5.43-1.1 l-3.27,6.02l0.85,3.32l13.76-1.08l3.39-2.85L62.68,217.05" fill="rgb(208, 43, 43)"/>
<path id="Trauma-Plate-2_Legacy-Ankle_Right" class="toggle" style="" d="M44.75,224.15l-2.94,2.64l-1.52,1.89l3.16,1.02 l8.38-1.73l1.38-1.81l-7.79,0.61L44.75,224.15" fill="rgb(53, 53, 53)"/>
<path id="Trauma-Plate-1_Legacy-Ankle_Right" class="toggle" style="" d="M61.24,219.15l-0.06,2.76l-2.74,2.21l-12.1,0.95 l-0.86-3.32l1.54-2.84c1.02,0.29,4.12,1.18,6.16,1.26C56.42,220.28,59.44,219.62,61.24,219.15" fill="rgb(53, 53, 53)"/>
</g></g>
<g id="Right-Toe"><g id="None_Toe_Right" class="option" style="display: inherit;">
</g>
</g>
</g>
<g id="FootDecals" mask="url(#FootMask)">
</g>
<g id="Knees">
<g id="Left-Knee"><g id="Heavy_Knee_Left" class="option" style="display: inherit;">
<g id="Missiles_Heavy-Knee_Left" class="toggle" style="">
<path id="Base_Missiles_Heavy-Knee_Left" d="M120,160.04l1.85,9.94l2.17-1.75c0.35-0.28,0.52-0.73,0.45-1.18 c-0.22-1.35-0.7-4.29-0.96-5.84c-0.1-0.58-0.59-1.02-1.18-1.05L120,160.04z" fill="rgb(53, 53, 53)"/>
<g id="Missile-2_Missiles_Heavy-Knee_Left" fill="rgb(170, 170, 170)">
<path d="M122.48,165.52c-0.57,0.15-0.91,0.74-0.76,1.31s0.75,0.91,1.33,0.76c0.58-0.15,0.92-0.74,0.76-1.31 S123.05,165.37,122.48,165.52z"/>
<path d="M122.58,165.85c-0.39,0.1-0.62,0.5-0.51,0.88c0.11,0.38,0.51,0.61,0.89,0.51s0.62-0.5,0.51-0.88 C123.37,165.98,122.97,165.75,122.58,165.85z"/>
</g>
<g id="Missile-1_Missiles_Heavy-Knee_Left" fill="rgb(170, 170, 170)">
<path d="M121.69,160.93c-0.58,0.15-0.92,0.74-0.76,1.31c0.16,0.57,0.75,0.91,1.33,0.76 c0.58-0.15,0.92-0.74,0.76-1.31C122.86,161.11,122.27,160.77,121.69,160.93z"/>
<path d="M121.79,161.26c-0.39,0.1-0.62,0.5-0.51,0.88c0.11,0.39,0.51,0.61,0.89,0.51c0.39-0.1,0.62-0.5,0.51-0.88 C122.58,161.39,122.18,161.16,121.79,161.26z"/>
</g>
</g>
<path id="Plate-2_Heavy-Knee_Left" d="M118.09,155.54l-2.97-1.79l-14.81,2.53l-2.15,2.66l2.9,14.76l5.83,0.13 l8.31-1.42l5.78-2.08L118.09,155.54z" fill="rgb(67, 70, 157)"/>
<g id="Plate-1_Heavy-Knee_Left" fill="rgb(53, 53, 53)">
<path d="M117.37,156.35l-2.73-1.73l-13.56,2.32l-1.95,2.53l2.8,14.24l4.96,0.13l8.31-1.42l4.96-1.82L117.37,156.35z "/>
<path d="M112.62,158.35l-8.31,1.42l2.59,14.07l4.31-0.16l4-1.26L112.62,158.35z"/>
<path d="M104.31,159.77l-3.22-2.83l-1.95,2.53L104.31,159.77z"/>
<path d="M112.62,158.35l2.02-3.72l2.73,1.73L112.62,158.35z"/>
</g>
<g id="Trim_Heavy-Knee_Left" fill="rgb(208, 43, 43)">
<path d="M98.2,164.01l-0.46,1.12l1.64,8.91l0.64-0.11L98.2,164.01z"/>
<path d="M113.51,168.21l-6.53,1.12l0.64,3.48l6.53-1.12L113.51,168.21z"/>
<path d="M98.85,162.4l-0.91,0.16l2.09,11.37l1.06-0.18l-0.01-0.05h-0.02L98.85,162.4z"/>
<path d="M118.97,160.04l2.02,10.29l-0.19,0.07l1.07-0.18l-1.9-10.34L118.97,160.04z"/>
</g>
</g></g>
<g id="Right-Knee"><g id="Heavy_Knee_Right" class="option" style="display: inherit;">
<g id="Missiles_Heavy-Knee_Right" class="toggle" style="">
<path id="Base_Missiles_Heavy-Knee_Right" d="M50,160.04l-1.85,9.94l-2.17-1.75c-0.35-0.28-0.52-0.73-0.45-1.18 c0.22-1.35,0.7-4.29,0.96-5.84c0.1-0.58,0.59-1.02,1.18-1.05L50,160.04z" fill="rgb(53, 53, 53)"/>
<g id="Missile-2_Missiles_Heavy-Knee_Right" fill="rgb(170, 170, 170)">
<path d="M47.52,165.52c0.58,0.15,0.92,0.74,0.76,1.31c-0.16,0.57-0.75,0.91-1.33,0.76 c-0.58-0.15-0.92-0.74-0.76-1.31S46.95,165.37,47.52,165.52z"/>
<path d="M47.42,165.85c0.39,0.1,0.62,0.5,0.51,0.88c-0.1,0.38-0.51,0.61-0.89,0.51c-0.39-0.1-0.62-0.5-0.51-0.88 C46.63,165.98,47.03,165.75,47.42,165.85z"/>
</g>
<g id="Missile-1_Missiles_Heavy-Knee_Right" fill="rgb(170, 170, 170)">
<path d="M48.31,160.93c0.58,0.15,0.92,0.74,0.76,1.31c-0.16,0.57-0.75,0.91-1.33,0.76 c-0.58-0.15-0.92-0.74-0.76-1.31C47.14,161.11,47.73,160.77,48.31,160.93z"/>
<path d="M48.21,161.26c0.39,0.1,0.62,0.5,0.51,0.88c-0.11,0.39-0.51,0.61-0.89,0.51c-0.39-0.1-0.62-0.5-0.51-0.88 C47.42,161.39,47.82,161.16,48.21,161.26z"/>
</g>
</g>
<path id="Plate-2_Heavy-Knee_Right" d="M51.91,155.54l2.97-1.79l14.81,2.53l2.15,2.66l-2.9,14.76l-5.83,0.13 l-8.32-1.42l-5.78-2.08L51.91,155.54z" fill="rgb(67, 70, 157)"/>
<g id="Plate-1_Heavy-Knee_Right" fill="rgb(53, 53, 53)">
<path d="M52.63,156.35l2.73-1.73l13.56,2.32l1.95,2.53l-2.8,14.24l-4.96,0.13l-8.32-1.42l-4.96-1.82L52.63,156.35z"/>
<path d="M57.38,158.35l8.31,1.42l-2.59,14.07l-4.31-0.16l-4.01-1.26L57.38,158.35z"/>
<path d="M65.69,159.77l3.22-2.83l1.95,2.53L65.69,159.77z"/>
<path d="M57.38,158.35l-2.02-3.72l-2.73,1.73L57.38,158.35z"/>
</g>
<g id="Trim_Heavy-Knee_Right" fill="rgb(208, 43, 43)">
<path d="M71.8,164.01l0.46,1.12l-1.64,8.91l-0.64-0.11L71.8,164.01z"/>
<path d="M56.49,168.21l6.53,1.12l-0.64,3.48l-6.53-1.12L56.49,168.21z"/>
<path d="M71.15,162.4l0.91,0.16l-2.09,11.37l-1.06-0.18l0.01-0.05h0.02L71.15,162.4z"/>
<path d="M51.03,160.04l-2.02,10.29l0.19,0.07l-1.07-0.18l1.9-10.34L51.03,160.04z"/>
</g>
</g></g>
</g>
<g id="KneesDecals" mask="url(#KneesMask)">
</g>
<g id="Thighs">
<g id="Left-Thigh"><g id="Basic_Thigh_Left" class="option" style="display: inherit;">
<path id="Thigh_Basic-Thigh_Left" d="M119.66,114.13c0,0-5.22-6.67-7.89-7.78c-2.53-1.05-5.91-0.6-8.08,1.13 c-3.31,2.64-10.92,8.35-11.78,14.71c-0.96,7.1,4.24,22.8,6,27.87c0.6,1.72,2.87,2.51,4.61,2.57c3.22,0.12,12.01-0.15,14.11-4.87 C119.49,141.34,119.66,114.13,119.66,114.13" fill="rgb(208, 43, 43)"/>
<path id="Trauma-Plate_Basic-Thigh_Left" class="toggle" style="" d="M117.89,114.74c-0.78-0.97-2.65-3.22-4.46-4.95 c-0.86-0.82-1.68-1.54-2.34-1.82c-1.97-0.82-4.61-0.47-6.3,0.88c-1.92,1.53-5.35,4.12-7.95,7.29c-1.58,1.92-2.88,4.05-3.18,6.29 c-0.94,6.9,4.2,22.13,5.92,27.06c0.15,0.43,0.56,0.7,0.99,0.91c0.64,0.31,1.38,0.46,2.02,0.49c1.8,0.07,5.47,0.02,8.54-1 c1.7-0.56,3.24-1.38,3.89-2.83c0.81-1.82,1.35-5.42,1.77-9.56C117.68,128.66,117.86,117.46,117.89,114.74" fill="rgb(53, 53, 53)"/>
<g id="Ridge_Basic-Thigh_Left" class="toggle" style="" fill="rgb(67, 70, 157)">
<path d="M110.85,105.79l-3.61-0.92l-3.78,2.07l1.23,45.7c2.49,0.48,2.53,0.57,4.71-0.08L110.85,105.79"/>
<path d="M107.27,104.87l-0.1,48.14"/>
</g>
</g>
</g>
<g id="Right-Thigh"><g id="Basic_Thigh_Right" class="option" style="display: inherit;">
<path id="Thigh_Basic-Thigh_Right" d="M50.34,114.13c0,0,5.22-6.67,7.89-7.78c2.53-1.05,5.91-0.6,8.08,1.13 c3.31,2.64,10.92,8.35,11.78,14.71c0.96,7.1-4.24,22.8-6,27.87c-0.6,1.72-2.87,2.51-4.61,2.57c-3.22,0.12-12.01-0.15-14.11-4.87 C50.51,141.34,50.34,114.13,50.34,114.13" fill="rgb(208, 43, 43)"/>
<path id="Trauma-Plate_Basic-Thigh_Right" class="toggle" style="" d="M52.11,114.74c0.78-0.97,2.65-3.22,4.46-4.95 c0.86-0.82,1.68-1.54,2.33-1.82c1.97-0.82,4.61-0.47,6.3,0.88c1.92,1.53,5.35,4.12,7.95,7.29c1.58,1.92,2.88,4.05,3.18,6.29 c0.94,6.9-4.2,22.13-5.92,27.06c-0.15,0.43-0.56,0.7-0.99,0.91c-0.64,0.31-1.38,0.46-2.02,0.49c-1.8,0.07-5.47,0.02-8.54-1 c-1.7-0.56-3.24-1.38-3.89-2.83c-0.81-1.82-1.35-5.42-1.77-9.56C52.32,128.66,52.14,117.46,52.11,114.74" fill="rgb(53, 53, 53)"/>
<g id="Ridge_Basic-Thigh_Right" class="toggle" style="" fill="rgb(67, 70, 157)">
<path d="M59.15,105.79l3.61-0.92l3.78,2.07l-1.23,45.7c-2.49,0.48-2.53,0.57-4.71-0.08L59.15,105.79"/>
<path d="M62.73,104.87l0.1,48.14"/>
</g>
</g>
</g>
</g>
<g id="ThighsDecals" mask="url(#ThighsMask)">
</g>
<g id="Groin"><g id="Basic_Groin" class="option" style="display: inherit;">
<path id="Groin-Plate_Basic" d="M78.57,104.6L67.72,82.91h34.71L91.58,104.6c0,0-4.33,5.17-6.5,5.17 C82.91,109.76,78.57,104.6,78.57,104.6z" fill="rgb(67, 70, 157)"/>
<path id="Trauma-Plating_Groin" class="toggle" style="" d="M90.42,103.84l9.8-19.57H69.93l9.79,19.57c0.43,0.5,2.16,2.47,3.82,3.72 c0.58,0.44,1.1,0.84,1.53,0.84c0.44,0,0.95-0.4,1.53-0.84C88.26,106.32,89.99,104.34,90.42,103.84" fill="rgb(53, 53, 53)"/>
</g>
</g>
<g id="GroinDecals" mask="url(#GroinMask)">
</g>
<g id="Waist">
<g id="Accessories_Waist">
<g id="Kama" class="toggle" style="display:none"/>
<g id="Loin-Cloth" class="toggle" style="display:none"/>
<g id="Left-Holster" class="toggle" style="display:none"/>
<g id="Right-Holster" class="toggle" style=""><g id="Hanging-Holster_Right" class="option" style="display: inherit;">
<g id="Weapon_Hanging-Holster-Right">
<g id="Main_Weapon_Hanging-Holster-Right" fill="rgb(73, 73, 73)">
<path d="M51.58,115.51l-0.17-3.74l-0.65,0.03l-0.11-2.35l0.65-0.03l-0.06-1.22c-0.02-0.4-0.56-0.69-1.22-0.66 c-1.51,0.07-4.08,0.19-5.58,0.26c-0.66,0.03-1.17,0.38-1.16,0.77l0.06,1.22l0.65-0.03l0.11,2.35l-0.65,0.03l0.17,3.74 l1.52-0.07l0.48,10.35l4.92-0.23l-0.48-10.35L51.58,115.51z"/>
<path d="M44.24,115.3l0.87-0.04l0.58,12.43l4.92-0.23l-0.58-12.44l0.87-0.04l-0.13-2.84l-6.67,0.31L44.24,115.3z"/>
<path d="M45.29,108.56l3.95-0.18l0.18,3.84l-3.95,0.18L45.29,108.56z"/>
<path d="M48.96,116.2l0.65-0.03l0.45,9.78l-0.65,0.03L48.96,116.2z"/>
<path d="M47.2,114.05l0.65-0.03l0.45,9.78l-0.65,0.03L47.2,114.05z"/>
<path d="M45.65,116.36l0.65-0.03l0.45,9.78l-0.65,0.03L45.65,116.36z"/>
</g>
<g id="Accent_Weapon_Hanging-Holster-Right" fill="rgb(67, 70, 157)">
<path d="M48.85,112.64l0.02,0.39l-2.78,0.13l-0.02-0.39L48.85,112.64z"/>
<path d="M48.87,113.03l0.02,0.39l-2.78,0.13l-0.02-0.39L48.87,113.03z"/>
<path d="M48.84,112.25l0.02,0.39l-2.78,0.13l-0.02-0.39L48.84,112.25z"/>
<path d="M48.61,107.43l0.02,0.39l-2.78,0.13l-0.02-0.39L48.61,107.43z"/>
<path d="M48.59,108.41l0.65-0.03l0.18,3.84l-0.65,0.03L48.59,108.41z"/>
<path d="M45.29,108.56l0.65-0.03l0.18,3.84l-0.65,0.03L45.29,108.56z"/>
<path d="M46.3,116.33l0.98-0.04l0.45,9.78l-0.98,0.04L46.3,116.33z"/>
<path d="M47.97,116.25l0.98-0.05l0.45,9.78l-0.98,0.04L47.97,116.25z"/>
</g>
</g>
<path id="Holster_Hanging-Holster-Right" d="M51.54,129.93l0.79-15.75l-7.32,11.86l1.62,21.43 c1.71,1.78,3.39,1.79,5.04-0.19L51.54,129.93z" fill="rgb(92, 91, 91)"/>
<g id="Straps_Hanging-Holster-Right" fill="rgb(67, 66, 66)">
<path d="M79.54,88.76c-8.01,11.42-16.07,21.09-27.21,25.41l-0.13,2.7c13.85-5.81,21.28-15.64,29.47-28.11H79.54z"/>
<path d="M51.59,133.13c7.49,5.7,15.58,8.8,25.28,9.32l-0.69,2.14c-8.39-0.76-16.22-3.85-24.59-9.21V133.13z"/>
<path d="M51.59,135.38l-0.02-2.25c-1.94,0.86-4.21,0.92-5.99,0.29l0.17,2.3 C47.67,136.21,49.85,136.24,51.59,135.38z"/>
</g>
<g id="Buckle_Hanging-Holster-Right" fill="rgb(116, 116, 116)">
<path d="M69.09,142.34l1.05,0.16l-0.05,0.34l-1.05-0.16L69.09,142.34"/>
<path d="M71.96,100.3l0.73-0.96l0.28,0.21l-0.73,0.96L71.96,100.3"/>
<path d="M72.23,100.51l1.19,0.96l2.8-3.44l-2.7-2.18l-2.8,3.44l1.24,1l0.6-0.79l-0.61-0.49l1.54-1.9l1.49,1.2 l-1.55,1.9l-0.61-0.49L72.23,100.51"/>
<path d="M69.13,142.34l0.83,0.12l0.12-0.81l2.01,0.43l-0.28,1.88l-2.01-0.43l0.11-0.73l-0.83-0.12l-0.22,1.44 l3.66,0.78l0.51-3.41l-3.66-0.78L69.13,142.34"/>
</g>
</g></g>
<g id="Left-Trophy" class="toggle" style="display:none"/>
<g id="Right-Trophy" class="toggle" style="display:none"/>
</g>
<g id="Under-Belt"><g id="Girth-Belt" class="option" fill="rgb(99, 99, 99)" style="display: inherit;">
<path d="M85.04,76.62c-7.36,0-22.09-1.86-22.09-1.86l0.48-1.58c0,0,14.37,1.24,21.61,1.86 c7.21-0.62,21.61-1.86,21.61-1.86l0.48,1.58C107.13,74.76,92.4,76.62,85.04,76.62z"/>
<path d="M85.04,78.2c-7.52,0-22.55-1.86-22.55-1.86l0.46-1.58c0,0,18.41,1.55,22.09,1.86 c3.68-0.31,22.09-1.86,22.09-1.86l0.46,1.58C107.59,76.34,92.56,78.2,85.04,78.2z"/>
<path d="M85.04,79.78c-7.63,0-22.9-1.86-22.9-1.86l0.34-1.58c0,0,18.79,1.55,22.55,1.86 c3.76-0.31,22.55-1.86,22.55-1.86l0.34,1.58C107.94,77.92,92.67,79.78,85.04,79.78z"/>
<path d="M85.04,81.36c-7.73,0-23.18-1.86-23.18-1.86l0.29-1.58c0,0,19.08,1.55,22.9,1.86 c3.82-0.31,22.9-1.86,22.9-1.86l0.29,1.58C108.22,79.49,92.77,81.36,85.04,81.36z"/>
<path d="M85.04,82.94c-7.81,0-23.44-1.86-23.44-1.86l0.26-1.58c0,0,19.32,1.55,23.18,1.86 c3.86-0.31,23.18-1.86,23.18-1.86l0.26,1.58C108.49,81.07,92.86,82.94,85.04,82.94z"/>
<path d="M85.04,84.52c-7.9,0-23.69-1.86-23.69-1.86l0.25-1.58c0,0,19.54,1.55,23.44,1.86 c3.91-0.31,23.44-1.86,23.44-1.86l0.25,1.58C108.73,82.65,92.94,84.52,85.04,84.52z"/>
<path d="M85.04,86.1c-7.98,0-23.93-1.86-23.93-1.86l0.24-1.58c0,0,19.74,1.55,23.69,1.86 c3.95-0.31,23.69-1.86,23.69-1.86l0.24,1.58C108.97,84.23,93.02,86.1,85.04,86.1z"/>
<path d="M85.04,87.68c-8.06,0-24.18-1.86-24.18-1.86l0.25-1.58c0,0,19.94,1.55,23.93,1.86 c3.99-0.31,23.93-1.86,23.93-1.86l0.25,1.58C109.22,85.81,93.1,87.68,85.04,87.68z"/>
<path d="M85.04,89.25c-8.15,0-24.45-1.86-24.45-1.86l0.27-1.58c0,0,20.15,1.55,24.18,1.86 c4.03-0.31,24.18-1.86,24.18-1.86l0.27,1.58C109.49,87.39,93.19,89.25,85.04,89.25z"/>
<path d="M85.04,90.83c-8.25,0-24.76-1.86-24.76-1.86l0.31-1.58c0,0,20.38,1.55,24.45,1.86 c4.08-0.31,24.45-1.86,24.45-1.86l0.31,1.58C109.8,88.97,93.29,90.83,85.04,90.83z"/>
</g>
</g>
<g id="Belt"><g id="Pouch-Belt-4" class="option" style="display: inherit;">
<path id="Main_Pouch-Belt-4" d="M109.38,84.25c-5.47,0.49-17.98,2.27-24.29,2.27c-6.38,0-18.88-1.79-24.28-2.26 l0.81-6.37c4.44,0.39,17.3,2.2,23.48,2.2c5.99,0,18.59-1.79,23.33-2.22L109.38,84.25z" fill="rgb(62, 62, 62)"/>
<rect id="Buckle_Pouch-Belt-4" x="80.61" y="79.49" width="9.05" height="7.39" fill="rgb(165, 165, 165)"/>
<g id="Pouches_Pouch-Belt-4" fill="rgb(110, 107, 107)">
<g>
<g>
<path d="M66.42,76.75c-1.32-0.09-2.64,0.14-3.85,0.67h0l5.92,0.34L70.1,77C70.1,77,68.06,76.86,66.42,76.75z"/>
<path d="M70.3,77.24c0.01-0.07-0.03-0.14-0.09-0.19c-0.06-0.04-0.14-0.05-0.21-0.02 c-0.53,0.25-1.52,0.72-1.52,0.72s-0.64,7.72-0.79,9.57c-0.01,0.08,0.03,0.15,0.09,0.19c0.06,0.04,0.14,0.04,0.21,0.01 c0.54-0.29,1.06-0.47,1.59-0.56c0.1-0.02,0.17-0.1,0.17-0.19C69.87,83.59,69.99,80.41,70.3,77.24z"/>
<path d="M68.49,77.76l-5.92-0.34c-0.04,1.51-0.18,3.02-0.26,4.54c-0.09,1.75-0.13,3.51-0.3,5.28 c-0.01,0.06,0.01,0.12,0.05,0.16c0.04,0.04,0.1,0.07,0.15,0.07c1.83-0.02,3.66,0.08,5.47,0.31c0.06,0.01,0.11-0.01,0.16-0.04 s0.07-0.09,0.08-0.14c0.06-0.93,0.31-4.51,0.31-4.51L68.49,77.76z"/>
<path d="M68.49,77.76l-5.92-0.34c0,0-0.08,0.74-0.19,1.64c-0.1,0.83,0.16,1.67,0.7,2.31 c0.54,0.64,1.33,1.03,2.17,1.08c0,0,0,0,0,0c0.84,0.05,1.67-0.25,2.28-0.83c0.61-0.58,0.96-1.38,0.96-2.22 C68.49,78.5,68.49,77.76,68.49,77.76z"/>
<path d="M65.32,81.27c0.21,0.01,0.37,0.21,0.36,0.44c-0.01,0.23-0.19,0.4-0.4,0.39s-0.37-0.21-0.36-0.44 C64.93,81.43,65.11,81.26,65.32,81.27z"/>
</g>
</g>
<g>
<path d="M58.83,77.31l0.44-0.68l2.27,0.07l0.28,0.85L58.83,77.31z"/>
<path d="M61.81,77.64c0.01-0.06-0.01-0.11-0.05-0.16c-0.04-0.04-0.09-0.07-0.15-0.07 c-0.69-0.03-2.78-0.11-2.78-0.11l-0.4,8.96c0.11,0.27,1.76,0.43,2.69,0.39c0.11-0.01,0.19-0.09,0.19-0.2 C61.37,83.51,61.47,80.57,61.81,77.64z"/>
</g>
<g>
<g>
<path d="M103.76,76.75c1.32-0.09,2.64,0.14,3.85,0.67h0l-5.92,0.34L100.08,77 C100.08,77,102.13,76.86,103.76,76.75z"/>
<path d="M99.88,77.24c-0.01-0.07,0.03-0.14,0.09-0.19c0.06-0.04,0.14-0.05,0.21-0.02 c0.53,0.25,1.52,0.72,1.52,0.72s0.64,7.72,0.79,9.57c0.01,0.08-0.03,0.15-0.09,0.19c-0.06,0.04-0.14,0.04-0.21,0.01 c-0.54-0.29-1.06-0.47-1.59-0.56c-0.1-0.02-0.17-0.1-0.17-0.19C100.31,83.59,100.19,80.41,99.88,77.24z"/>
<path d="M101.69,77.76l5.92-0.34c0.04,1.51,0.18,3.02,0.26,4.54c0.09,1.75,0.13,3.51,0.3,5.28 c0,0.06-0.01,0.12-0.05,0.16c-0.04,0.04-0.1,0.07-0.15,0.07c-1.83-0.02-3.66,0.08-5.47,0.31c-0.06,0.01-0.11-0.01-0.16-0.04 s-0.07-0.09-0.08-0.14c-0.06-0.93-0.31-4.51-0.31-4.51L101.69,77.76z"/>
<path d="M101.69,77.76l5.92-0.34c0,0,0.08,0.74,0.19,1.64c0.09,0.83-0.16,1.67-0.7,2.31 c-0.54,0.64-1.33,1.03-2.17,1.08c0,0,0,0,0,0c-0.84,0.05-1.67-0.25-2.28-0.83c-0.61-0.58-0.96-1.38-0.96-2.22 C101.69,78.5,101.69,77.76,101.69,77.76z"/>
<path d="M104.86,81.27c-0.21,0.01-0.37,0.21-0.36,0.44c0.01,0.23,0.19,0.4,0.4,0.39s0.37-0.21,0.36-0.44 C105.25,81.43,105.07,81.26,104.86,81.27z"/>
</g>
</g>
<g>
<path d="M111.35,77.31l-0.44-0.68l-2.27,0.07l-0.28,0.85L111.35,77.31z"/>
<path d="M108.38,77.64c-0.01-0.06,0.01-0.11,0.05-0.16c0.04-0.04,0.09-0.07,0.15-0.07 c0.69-0.03,2.78-0.11,2.78-0.11l0.4,8.96c-0.11,0.27-1.75,0.43-2.68,0.39c-0.11-0.01-0.19-0.09-0.19-0.2 C108.81,83.51,108.71,80.57,108.38,77.64z"/>
</g>
</g>
</g></g>
</g>
<g id="WaistDecals" mask="url(#WaistMask)">
</g>
<g id="Extras_Front">
<g id="Front"><g id="None_Front" class="option" style="display: inherit;">
</g>
</g>
</g>
<g id="Extras-FrontDecals" mask="url(#FrontMask)">
</g>
</g>
</svg>