<?xml version='1.0' encoding='UTF-8'?><svg version='1.1' xmlns='http://www.w3.org/2000/svg'><metadata><rdf:rdf xmlns:rdf="http://www.w3.org/1999/02/22-rdf-syntax-ns#" xmlns:rdfs="http://www.w3.org/2000/01/rdf-schema#" xmlns:dc="http://purl.org/dc/elements/1.1/"> <rdf:description> <dc:creator>MandoCreator</dc:creator> <dc:publisher>https://www.mandocreator.com</dc:publisher> <dc:description>Your Beskar'gam - created by MandoCreator</dc:description> <dc:format>image/svg+xml</dc:format> <dc:type>Image</dc:type> <dc:title>MandoCreator - Ner Berskar'gam</dc:title> <dc:date>2021-10-08T16:45:41.657Z</dc:date> </rdf:description> </rdf:rdf></metadata><svg version="1.1" id="Female" xmlns="http://www.w3.org/2000/svg" viewBox="0 -55 169 300" style="fill: white; fill-rule: evenodd; stroke: black; stroke-width: 0.2px; pointer-events: none; position: relative; height: 100%;">
<g id="Extras_Back">
<g id="Back"><g id="NO-CAPES_Back" class="option" style="display: inherit;">
</g>
</g>
</g>
<g id="Suit">
<g id="Neck-Seal">
<g id="Standard-Neck-Seal" class="option" style="fill: rgb(42, 43, 49); display: inherit;">
<path d="M95.2,8.5c0-0.9-0.7-1.7-1.6-1.7c0,0-6.1,0.9-9.1,0.9c-3,0-9.1-0.9-9.1-0.9c-0.9,0-1.6,0.7-1.6,1.7 c0,0.9,0.7,1.6,1.6,1.6c0,0,6.1,0.9,9.1,0.9c3,0,9.1-0.9,9.1-0.9C94.4,10.1,95.2,9.4,95.2,8.5z"/>
<path d="M95.7,10.4c0-1-0.8-1.7-1.7-1.7c0,0-6.4,0.9-9.5,0.9s-9.5-0.9-9.5-0.9c-0.9,0-1.7,0.8-1.7,1.7 c0,1,0.8,1.7,1.7,1.7c0,0,6.4,0.9,9.5,0.9s9.5-0.9,9.5-0.9C95,12.1,95.7,11.3,95.7,10.4z"/>
<path d="M96.3,12.8c0-1-0.8-1.8-1.8-1.8c0,0-6.7,1-10.1,1c-3.4,0-10.1-1-10.1-1c-1,0-1.8,0.8-1.8,1.8 s0.8,1.8,1.8,1.8c0,0,6.7,1,10.1,1c3.4,0,10.1-1,10.1-1C95.5,14.6,96.3,13.8,96.3,12.8z"/>
<path d="M96.9,15c0-1.1-0.8-1.9-1.9-1.9c0,0-7,1-10.6,1c-3.5,0-10.6-1-10.6-1c-1,0-1.9,0.9-1.9,1.9 c0,1.1,0.8,1.9,1.9,1.9c0,0,7,1,10.6,1c3.5,0,10.6-1,10.6-1C96.1,16.9,96.9,16,96.9,15z"/>
<path d="M97.5,17.1c0-0.8-0.9-1.5-2-1.5c0,0-7.4,0.8-11.1,0.8c-3.7,0-11.1-0.8-11.1-0.8c-1.1,0-2,0.6-2,1.5 c0,0.8,0.9,1.5,2,1.5c0,0,7.4,0.8,11.1,0.8c3.7,0,11.1-0.8,11.1-0.8C96.6,18.6,97.5,17.9,97.5,17.1z"/>
<path d="M97.5,19.6c0-0.8-0.9-1.5-2-1.5c0,0-7.4,0.8-11.1,0.8c-3.7,0-11.1-0.8-11.1-0.8c-1.1,0-2,0.6-2,1.5 c0,0.8,0.9,1.4,2,1.4c0,0,7.4,1.5,11.1,1.5c3.7,0,11.1-1.5,11.1-1.5C96.6,21,97.5,20.4,97.5,19.6z"/>
</g>
</g>
<g id="Flight-Suit" style="fill: rgb(42, 43, 49);">
<path d="M38.9,64l5.1-18.4l11.8-8l1.8,16.1c0,0-5.1,9.7-6.9,14.2c-1.8,4.6-5,15.1-5.4,16.5l-2.8,24.4l-8.1-2.6 c0,0-0.3-16.9,0.4-24C35.5,76,38.9,64,38.9,64z"/>
<path d="M130.1,64l-5.1-18.5l-11.7-7.9l-1.9,16.2c0,0,5.1,9.6,6.8,14.1c1.8,4.6,5,15.1,5.4,16.5l2.8,24.4l8.1-2.6 c0,0,0.3-16.9-0.4-24C133.5,76,130.1,64,130.1,64z"/>
<path d="M84.5,116.1c-1,0.1-1.9,0.5-2.2,1.2c-2.9,6.2-8.9,34.4-10.7,39.6c-0.9,2.8-1.7,18.3-3.3,27.3 c-1.9,10.8-8.2,37.3-8.2,37.3l-10.9-1.1c0,0-1.4-26.6-1-36.3c0.3-7.4,3.3-21.8,3.3-21.8s0.7-5.3,0.7-7.9c0.1-9.6,0.9-31,2.8-43.3 c1.5-9.7,10.6-30.1,10.6-30.1s11.9,4.7,18.8,4.7c7,0,18.9-4.8,18.9-4.8s8.6,20.5,10.1,30.2c1.9,12.3,3.2,33.7,3.2,43.3 c0,2.7,0.7,7.9,0.7,7.9s3,14.5,3.3,21.8c0.4,9.7-1,36.3-1,36.3l-10.9,1.1c0,0-6.3-26.5-8.2-37.3c-1.6-9-2.3-24.5-3.3-27.3 c-1.7-5.2-7.7-33.4-10.7-39.6C86.5,116.6,85.6,116.2,84.5,116.1L84.5,116.1z"/>
</g>
<g id="Sleeves" class="toggle" style="fill: rgb(42, 43, 49);">
<path d="M42.6,45.6l0.8,0.3l12.4-8.3c0,0,0.4,8.8,1.4,14.1c0.1,0.7,0.4,1.7,0.6,2.7l-1.6,5.3c0,0-5.6-2.2-8.1-3.6 c-2.4-1.4-6.7-5-6.7-5L42.6,45.6z"/>
<path d="M111.3,54.4c0.3-1.1,0.5-2,0.6-2.7c1-5.3,1.4-14.1,1.4-14.1l12.4,8.3l0.8-0.3l1.2,5.5c0,0-4.3,3.6-6.7,5 c-2.5,1.4-8.1,3.6-8.1,3.6L111.3,54.4z"/>
</g>
</g>
<g id="Boots">
<g id="Gunslinger_Boots" class="option" style="display: inherit;">
<g id="Main_Gunslinger-Boot" style="fill: rgb(26, 26, 26);">
<path d="M62.4,227.8c0,0.2-0.6,3-3.8,3.8c-1,0.3-2.8-0.3-4-0.9c-1.5-0.8-3.2-1.4-4.8-1.9l0,0.1c0,0,0,0.1-0.1,0.1 c-0.5,0.7-1.1,1.4-1.7,2l0,0l0,0c-0.1,0.1-0.1,0.1-0.2,0.2c-0.4,0.3-0.7,0.7-1.1,1l-0.1,0.1l-0.1,0.1c0,0-0.1,0-0.1,0.1 c-0.1,0-0.1,0.1-0.2,0.1c-0.8,0.6-1.8,1.4-2.9,1.2c-1-0.1-2.1-0.5-2.9-0.9c-0.7-0.3-1.4-0.8-1.9-1.2c-0.1-0.1-0.3-0.2-0.3-0.4 c-2.3,0.9-4.7,1.2-5.9,3.8c-0.3,0.5-0.5,1.2-0.4,1.8c0.1,0.8,0.9,0.9,1.6,1.1c1.7,0.4,3.1,0.8,5.1,1.2c2.2,0.5,4.2,0.7,6.4,0.6 c1.7-0.1,3.1-0.2,4.5-1.1c0.6-0.4,1.2-0.7,1.7-1.2c1.1-1.1,1.9-2.2,3.3-2.8c1.1-0.5,2.2-0.9,3.3-1.1c1.6-0.4,3.3-0.7,4.1-2.3 C62.6,230.1,62.6,228.9,62.4,227.8L62.4,227.8"/>
<path d="M106.7,227.8c0,0.2,0.6,3,3.8,3.8c1,0.3,2.8-0.3,4-0.9c1.5-0.8,3.2-1.4,4.8-1.9l0,0.1c0,0,0,0.1,0.1,0.1 c0.5,0.7,1.1,1.4,1.7,2l0,0l0,0c0.1,0.1,0.1,0.1,0.2,0.2c0.4,0.3,0.7,0.7,1.1,1l0.1,0.1l0.1,0.1c0,0,0.1,0,0.1,0.1 c0.1,0,0.1,0.1,0.2,0.1c0.8,0.6,1.8,1.4,2.9,1.2c1-0.1,2.1-0.5,2.9-0.9c0.7-0.3,1.4-0.8,1.9-1.2c0.1-0.1,0.3-0.2,0.3-0.4 c2.3,0.9,4.7,1.2,5.9,3.8c0.3,0.5,0.5,1.2,0.4,1.8c-0.1,0.8-0.9,0.9-1.6,1.1c-1.7,0.4-3.1,0.8-5.1,1.2c-2.2,0.5-4.2,0.7-6.4,0.6 c-1.7-0.1-3.1-0.2-4.5-1.1c-0.6-0.4-1.2-0.7-1.7-1.2c-1.1-1.1-1.9-2.2-3.3-2.8c-1.1-0.5-2.2-0.9-3.3-1.1 c-1.6-0.4-3.3-0.7-4.1-2.3C106.4,230.1,106.5,228.9,106.7,227.8L106.7,227.8"/>
</g>
<g id="Bottom_Gunslinger-Boot" style="fill: rgb(26, 26, 26);">
<path d="M62.4,230c-0.1,0.4-0.2,0.9-0.5,1.3c-0.8,1.6-2.6,1.9-4.1,2.3c-1.1,0.3-2.2,0.7-3.3,1.1 c-1.5,0.6-2.2,1.7-3.3,2.8c-0.5,0.5-1.1,0.8-1.7,1.2c-1.5,0.9-2.9,1-4.5,1.1c-2.2,0.1-4.2-0.2-6.4-0.6c-1.9-0.4-3.4-0.7-5.1-1.2 c-0.5-0.1-1.2-0.2-1.5-0.7l0,0l-0.3,0.7l-0.2,1.5c0,0,1.8,1,3.7,1.4c1.9,0.4,5.8,1,5.8,1l0.3-0.6l0.9,0.2l0,0.6l2.1,0.1l0.4-0.6 l0.7,0l-0.1,0.5c0,0,1.3,0,2-0.4c0.1-0.2,0.4-0.5,0.4-0.5l0.5-0.3l-0.1,0.5l1.8-0.7l0.1-0.7l0.5-0.3l0,0.5l1.3-1l0.1-0.6l3.2-2.3 l0.5,1.2l2.3-0.5l0.1-0.5l0.6-0.2l0.4,0.4l1.5-0.6l0-0.5l0.5-0.2l0.1,0.3l1.4-1l0.3-2l0.1-2.2L62.4,230L62.4,230"/>
<path d="M106.6,230c0.1,0.4,0.2,0.9,0.5,1.3c0.8,1.6,2.6,1.9,4.1,2.3c1.1,0.3,2.2,0.7,3.3,1.1 c1.5,0.6,2.2,1.7,3.3,2.8c0.5,0.5,1.1,0.8,1.7,1.2c1.5,0.9,2.9,1,4.5,1.1c2.2,0.1,4.2-0.2,6.4-0.6c1.9-0.4,3.4-0.7,5.1-1.2 c0.5-0.1,1.2-0.2,1.5-0.7l0,0l0.3,0.7l0.2,1.5c0,0-1.8,1-3.7,1.4c-1.9,0.4-5.8,1-5.8,1l-0.3-0.6l-0.9,0.2l0,0.6l-2.1,0.1 l-0.4-0.6l-0.7,0l0.1,0.5c0,0-1.3,0-2-0.4c-0.1-0.2-0.4-0.5-0.4-0.5l-0.5-0.3l0.1,0.5l-1.8-0.7l-0.1-0.7l-0.5-0.3l0,0.5l-1.3-1 l-0.1-0.6l-3.2-2.3l-0.5,1.2l-2.3-0.5l-0.1-0.5l-0.6-0.2l-0.4,0.4l-1.5-0.6l0-0.5l-0.5-0.2l-0.1,0.3l-1.4-1l-0.3-2l-0.1-2.2 L106.6,230L106.6,230"/>
</g>
<g id="Top_Gunslinger-Boot" style="fill: rgb(26, 26, 26);">
<path d="M49.9,228.8c1.9-2.8,3.2-6.2,3.7-9.1l0,0l-0.5,0l0,0l-0.1,0l-0.2,0l-0.3,0l-0.1,0c-0.3,0-0.6-0.1-0.9-0.1 l-0.5-0.1l-0.1,0l0,0l-0.1,0l-0.3-0.1l-0.3-0.1l0,0c-1-0.3-0.9-0.5-0.9-0.5c-0.3,1.3-0.9,2.7-1.5,4c-0.9,1.9-2.7,3.6-4.1,5.1 c-1,1-2.5,2-3.7,2.8c-0.5,0.3-1.1,0.6-1.6,0.8c0.4,0.6,1.4,1.2,2.2,1.6c0.8,0.4,1.9,0.8,2.9,0.9c1,0.1,2.1-0.7,2.9-1.2 C47.6,231.6,48.8,230.3,49.9,228.8L49.9,228.8"/>
<path d="M119.2,228.8c-1.9-2.8-3.2-6.2-3.7-9.1l0,0l0.5,0l0,0l0.1,0l0.2,0l0.3,0l0.1,0c0.3,0,0.6-0.1,0.9-0.1 l0.5-0.1l0.1,0l0,0l0.1,0l0.3-0.1l0.3-0.1l0,0c1-0.3,0.9-0.5,0.9-0.5c0.3,1.3,0.9,2.7,1.5,4c0.9,1.9,2.7,3.6,4.1,5.1 c1,1,2.5,2,3.7,2.8c0.5,0.3,1.1,0.6,1.6,0.8c-0.4,0.6-1.4,1.2-2.2,1.6c-0.8,0.4-1.9,0.8-2.9,0.9c-1,0.1-2.1-0.7-2.9-1.2 C121.5,231.6,120.3,230.3,119.2,228.8L119.2,228.8"/>
</g>
<g id="Side_Gunslinger-Boot" style="fill: rgb(26, 26, 26);">
<path d="M49.8,228.9c1.7,0.5,3.3,1.1,4.8,1.9c1.1,0.6,2.9,1.1,4,0.9c3.2-0.8,3.8-3.8,3.8-3.8c-0.1-0.7-0.8-3.2-1-3.9 c-0.5-1.5-0.4-5.3-0.5-5.3c-2.6,1.4-6,1.1-7.3,1l0,0C53.1,222.7,51.8,226.1,49.8,228.9"/>
<path d="M119.2,228.9c-1.7,0.5-3.3,1.1-4.8,1.9c-1.1,0.6-2.9,1.1-4,0.9c-3.2-0.8-3.8-3.8-3.8-3.8 c0.1-0.7,0.8-3.2,1-3.9c0.5-1.5,0.4-5.3,0.5-5.3c2.6,1.4,6,1.1,7.3,1l0,0C116,222.7,117.3,226.1,119.2,228.9"/>
</g>
</g>
</g>
<g id="Gloves">
<g id="Left-Glove">
<g id="Fingerless_Left_Glove" class="option" style="display: inherit;">
<g id="Fingers_Fingerless_Left_Glove" style="fill: rgb(255, 217, 127);">
<path d="M131.4,123c-0.5,0-0.9,0-1.3,0.1c-0.3,0.1-0.6,0.2-0.9,0.3c-0.8,0.5-0.6,1.7,0.1,2.2c0.9,0.5,2.2,0,2.6-1 C132.1,124.2,131.6,123.4,131.4,123"/>
<path d="M129.9,124c-0.5,0-0.9,0-1.3,0.1c-0.3,0.1-0.6,0.2-0.9,0.3c-0.8,0.5-0.6,1.7,0.1,2.2c0.9,0.5,2.2,0,2.6-1 C130.6,125.2,130.1,124.4,129.9,124"/>
<path d="M128.8,125.4c-0.4,0-1,0.2-1.4,0.3c-0.3,0.1-0.6,0.2-0.8,0.5c-0.8,0.7-0.4,1.8,0.4,2.1 c0.9,0.4,2.2-0.3,2.5-1.4C129.5,126.5,128.8,125.4,128.8,125.4z"/>
<path d="M124.1,118.9c-0.3,1.3-0.5,2-0.5,2s-1.2,2.7-0.9,3.3c0.2,0.6,1.2,1.2,1.8,0.8c0.7-0.4,1.6-2.3,2.2-3.6 c0.2-0.5,0.4-1,0.6-1.6C125,120.2,124.1,118.9,124.1,118.9L124.1,118.9z"/>
<path d="M128.9,125.2c-0.2,0.3-0.4,0.7-0.6,1c-1.1,1.9-2.9,3.6-1.7,5.1c1.1,1.4,3.5-2.3,3.5-2.3l1.1-1.7 C129.4,126.9,128.9,125.2,128.9,125.2z"/>
</g>
<path id="Glove_Fingerless_Left_Glove" d="M131.3,127.4l1.3-1.9c0,0,2.8-5.1,2.9-6.1c0.1-0.8,0-3.3,0-3.3l-0.9-9.9 l-4.4,0.4l-3.6,1.3l-0.3,1.7c0,0-1.3,2-1.6,3.5c-0.2,1-0.1,3.5-0.4,5.2c0,0.2-0.1,0.4-0.1,0.6l0,0c0,0,0.8,1.3,3.1,0.9 c0.3-0.9,0.5-1.7,0.5-1.7s0.8,0.3,1.2,0.7c1.3,1.2,0.8,4.7,0.8,4.7s-0.3,0.7-0.8,1.7C128.9,125.2,129.4,126.9,131.3,127.4z" style="fill: rgb(70, 39, 11);"/>
</g>
</g>
<g id="Right-Glove">
<g id="Fingerless_Right_Glove" class="option" style="display: inherit;">
<g id="Fingers_Fingerless_Right_Glove" style="fill: rgb(255, 217, 127);">
<path d="M37.6,123c0.5,0,0.9,0,1.3,0.1c0.3,0.1,0.6,0.2,0.9,0.3c0.8,0.5,0.6,1.7-0.1,2.2c-0.9,0.5-2.2,0-2.6-1 C36.9,124.2,37.4,123.4,37.6,123"/>
<path d="M39.2,124c0.5,0,0.9,0,1.3,0.1c0.3,0.1,0.6,0.2,0.9,0.3c0.8,0.5,0.6,1.7-0.1,2.2c-0.9,0.5-2.2,0-2.6-1 C38.4,125.2,38.9,124.4,39.2,124"/>
<path d="M40.2,125.4c0.5,0,1,0.2,1.4,0.3c0.3,0.1,0.6,0.2,0.8,0.5c0.8,0.7,0.4,1.8-0.4,2.1 c-0.9,0.4-2.2-0.3-2.5-1.4C39.5,126.5,40.2,125.4,40.2,125.4z"/>
<path d="M44.9,118.9c0.3,1.3,0.5,2,0.5,2s1.1,2.7,0.9,3.3c-0.2,0.6-1.2,1.2-1.8,0.8c-0.7-0.4-1.6-2.3-2.2-3.6 c-0.2-0.5-0.4-1-0.6-1.6C44.1,120.2,44.9,118.9,44.9,118.9L44.9,118.9z"/>
<path d="M40.1,125.2c0.2,0.3,0.4,0.7,0.6,1c1.1,1.9,2.9,3.6,1.7,5.1c-1.1,1.4-3.5-2.3-3.5-2.3l-1.1-1.7 C39.7,126.9,40.1,125.2,40.1,125.2z"/>
</g>
<path id="Glove_Fingerless_Right_Glove" d="M37.8,127.4l-1.3-1.9c0,0-2.8-5.1-2.9-6.1c-0.1-0.8,0-3.3,0-3.3 l0.9-9.9l4.4,0.4l3.6,1.3l0.3,1.7c0,0,1.3,2,1.6,3.5c0.2,1,0.1,3.5,0.4,5.2c0,0.2,0.1,0.4,0.1,0.6l0,0c0,0-0.8,1.3-3.1,0.9 c-0.3-0.9-0.5-1.7-0.5-1.7s-0.8,0.3-1.2,0.7c-1.3,1.2-0.8,4.7-0.8,4.7s0.3,0.7,0.8,1.7C40.1,125.2,39.7,126.9,37.8,127.4z" style="fill: rgb(70, 39, 11);"/>
</g>
</g>
</g>
<g id="Biceps">
<g id="Left-Biceps">
<g id="Basic_Biceps_Left" class="option" style="display: inherit;">
<path id="Main_Basic_Biceps_Left" d="M131.5,57.7c-1.2-2.8-6.3-15-6.3-15s-8.4,3.5-10.5,4.3 c-0.6,0.2-0.9,0.9-0.6,1.5c1,2.4,3.4,8.3,4.9,11.9c0.3,0.8,1,1.5,1.8,1.8c0.8,0.3,1.8,0.3,2.6,0c2.5-1,5.8-2.4,7.5-3.1 C131.5,59,131.8,58.3,131.5,57.7z" style="fill: rgb(0, 0, 0);"/>
<path id="Strap_Basic_Biceps_Left" d="M116.4,54l-4.6,1.9l1.1,3.9l5-2.1L116.4,54" style="fill: rgb(70, 39, 11);"/>
<path id="Trauma-Plate_Basic_Biceps_Left" class="toggle" style="display: none; fill: rgb(255, 255, 255);" d="M131.5,57.2l-5.3-13l-10.3,4.2l4.7,11.4 c0.2,0.4,0.5,0.7,0.9,0.9c0.4,0.2,0.9,0.2,1.3,0L131.5,57.2"/>
</g>
</g>
<g id="Right-Biceps">
<g id="Basic_Biceps_Right" class="option" style="display: inherit;">
<path id="Main_Basic_Biceps_Right" d="M37.5,57.7c1.2-2.8,6.3-15,6.3-15s8.4,3.5,10.5,4.3c0.6,0.2,0.9,0.9,0.6,1.5 c-1,2.4-3.4,8.3-4.9,11.9c-0.3,0.8-1,1.5-1.8,1.8c-0.8,0.3-1.8,0.3-2.6,0c-2.5-1-5.8-2.4-7.5-3.1C37.6,59,37.3,58.3,37.5,57.7z" style="fill: rgb(0, 0, 0);"/>
<path id="Strap_Basic_Biceps_Right" d="M52.7,54l4.6,1.9l-1.1,3.9l-5-2.1L52.7,54" style="fill: rgb(70, 39, 11);"/>
<path id="Trauma-Plate_Basic_Biceps_Right" class="toggle" style="display: none; fill: rgb(255, 255, 255);" d="M37.6,57.2l5.3-13l10.3,4.2l-4.7,11.4 c-0.2,0.4-0.5,0.7-0.9,0.9c-0.4,0.2-0.9,0.2-1.3,0L37.6,57.2"/>
</g>
</g>
</g>
<path id="Vest" d="M90.9,86.3c-4.2,0.9-8.6,0.9-12.8,0c-4.2-0.9-12.5-5.2-12.5-5.2s-7.2-22.8-8.5-29.4 c-1-5.3-1.4-14.1-1.4-14.1L43.4,46l-2.6-1.1c0,0,7.4-16.4,12.3-21.1c4.4-4.3,17-7.3,17-7.3s5.5,6.1,14.6,6.1 c8.6,0,14.6-6.1,14.6-6.1s12.5,3.1,17,7.3c4.9,4.7,12.3,21.1,12.3,21.1l-2.6,1.1l-12.4-8.3c0,0-0.4,8.8-1.4,14.1 c-1.3,6.6-8.5,29.4-8.5,29.4S95.1,85.4,90.9,86.3z" style="fill: rgb(42, 43, 49);"/>
<g class="swappable" id="Chest">
<g id="Chest_Classic" style="visibility: visible;">
<g id="Abdomen_Classic">
<path id="Abdomen-Plate_Classic" d="M70.8,76c3.2,0.7,9.1,1,13.7,1c4.6,0,10.5-0.4,13.7-1c2-0.4,5.7-9.5,5.7-9.5 l-5.3-3.7l-3.9-8.5l-10.1-2.5l-10.1,2.5l-3.9,8.5l-5.3,3.7C65.1,66.5,68.8,75.6,70.8,76" style="fill: rgb(255, 0, 0);"/>
<path id="Trauma-Plate_Abdomen_Classic" class="toggle" style="fill: rgb(0, 0, 0);" d="M93.8,55.2L84.5,53l-9.3,2.3l-3.7,8 c-0.1,0.2-0.2,0.3-0.4,0.4l-4.6,3.2c0.6,1.4,1.9,4.3,3.1,6.3c0.3,0.5,0.7,1,1,1.4c0.1,0.2,0.4,0.3,0.4,0.4c3.1,0.6,8.9,1,13.4,1 c4.5,0,10.3-0.4,13.4-1c0,0,0.3-0.2,0.4-0.4c0.3-0.4,0.7-0.8,1-1.4c1.3-2,2.6-5,3.1-6.3l-4.6-3.2c-0.2-0.1-0.3-0.3-0.4-0.4 L93.8,55.2z"/>
</g>
<g id="Iron-Heart_Classic">
<path id="Heart_Classic" d="M81.8,41.8v-8.9l2.7-2.1l2.7,2.1v8.9l-2.7,2.6L81.8,41.8z" style="fill: rgb(255, 0, 0);"/>
<rect id="Center_Heart_Classic" class="option" x="83.5" y="33.7" width="2" height="7.9" style="fill: rgb(0, 0, 0); display: inherit;"/>
</g>
<g id="Left-Chest_Classic">
<path id="Chest_Left_Classic" d="M108,31.4c-3.8-3.7-21.3-3.8-21.3-3.8l-0.2,2l2.9,2.6l-0.2,11l-2.6,2.4v3.6 l9.8,2.6l3.9,8.5l4.3,3.4c0,0,4.5-10.4,5.1-16.2C110,43.8,111.3,34.6,108,31.4" style="fill: rgb(255, 0, 0);"/>
<path id="Trauma-Plating_Left-Chest_Classic" class="toggle" style="fill: rgb(0, 0, 0);" d="M87.7,28.8l-0.1,0.5l2.5,2.2c0.2,0.2,0.4,0.5,0.4,0.8 l-0.2,11c0,0.3-0.1,0.6-0.3,0.8l-2.2,2.1v2.3l8.9,2.4c0.3,0.1,0.6,0.3,0.7,0.6l3.8,8.3l2.9,2.3c1.2-3,4-10.1,4.4-14.5 c0.2-2.3,0.8-6.4,0.5-10.1c-0.2-2.2-0.6-4.2-1.8-5.3c-1-1-3.2-1.6-5.7-2.1C96.5,29.1,90.1,28.8,87.7,28.8z"/>
</g>
<g id="Right-Chest_Classic">
<path id="Chest_Right_Classic" d="M61,31.4c3.8-3.7,21.3-3.8,21.3-3.8l0.2,2l-2.9,2.6l0.2,11l2.6,2.4v3.6L72.7,52 l-3.9,8.5l-4.3,3.4c0,0-4.5-10.4-5.1-16.2C59,43.8,57.7,34.6,61,31.4" style="fill: rgb(255, 0, 0);"/>
<path id="Trauma-Plating_Right-Chest_Classic" class="toggle" style="fill: rgb(0, 0, 0);" d="M81.3,28.8c-2.5,0.1-8.8,0.3-13.8,1.3 c-2.5,0.5-4.7,1.1-5.7,2.1c-1.2,1.1-1.6,3.1-1.8,5.3c-0.3,3.6,0.2,7.8,0.5,10.1c0.4,4.4,3.2,11.6,4.4,14.5l2.9-2.3l3.8-8.3 c0.1-0.3,0.4-0.5,0.7-0.6l8.9-2.4v-2.3l-2.2-2.1c-0.2-0.2-0.3-0.5-0.3-0.8l-0.2-11c0-0.3,0.1-0.6,0.4-0.8l2.5-2.2L81.3,28.8z"/>
</g>
<g id="Neck-Armor_Classic">
<path id="Neck-Plate_Classic" d="M84.5,26c-6.9,0-20.8-1.5-20.8-1.5l-2.1-5.7l9.8-2.5c0,0,1.3,1.9,2.2,2.6 c1,0.7,2.3,1.5,3.5,1.9c1.3,0.5,2.9,0.8,4.5,1c1.7,0.2,4.3,0.2,6,0c1.5-0.2,3.3-0.5,4.6-1c1.2-0.5,2.3-1.3,3.3-1.9 c0.9-0.7,2.2-2.6,2.2-2.6l9.8,2.5l-2.1,5.7C105.3,24.6,91.4,26,84.5,26z" style="fill: rgb(255, 0, 0);"/>
<path id="Trauma-Plates_Neck_Classic" class="toggle" style="fill: rgb(0, 0, 0);" d="M83.3,24.9c-6.2-0.1-16.1-1.1-18.8-1.4L63,19.7l7.8-2 c0.5,0.7,1.4,1.7,2,2.2c1,0.7,2.4,1.6,3.7,2.1c1.4,0.5,3.1,0.9,4.7,1.1c0.6,0.1,1.3,0.1,2,0.2V24.9z M85.7,23.2 c0.7,0,1.4-0.1,2-0.2c1.6-0.2,3.5-0.6,4.9-1.1c1.3-0.5,2.5-1.3,3.6-2.1c0.7-0.5,1.5-1.5,2-2.2l7.8,2l-1.5,3.9 c-2.7,0.3-12.7,1.3-18.8,1.4V23.2z"/>
</g>
</g>
</g>
<g id="Chest-Attachments">
<g id="No-Device_Accessories_Chest" class="option" style="display: inherit;">
</g>
</g>
<g id="Collar">
<g id="None_Collar" class="option" style="display: inherit;">
</g>
</g>
<svg version="1.1" id="Helmets" xmlns="http://www.w3.org/2000/svg" y="-54px" height="85px" viewBox="0 0 80 80" class="swappable">
<g id="Helmet_Gunslinger" style="visibility: visible;">
<g id="Left-Earcap_Gunslinger" class="toggle">
<g id="Sub-Antenna_Left_Gunslinger" class="option" style="display: inherit;">
<g id="Shaft_Sub-Antenna_Left_Gunslinger" style="fill: rgb(45, 45, 45);">
<path d="M59.1,33.9l-0.2-22.8h-0.5l-0.2,22.8H59.1z"/>
<path d="M59.1,13.1l-0.2-1.4h-0.6l-0.2,1.4H59.1z"/>
</g>
<g id="Base_Sub-Antenna_Left_Gunslinger" style="fill: rgb(255, 0, 0);">
<path d="M57.2,33.9h2.9c0,0,0.6,7.5-1.4,7.5C56.6,41.4,57.2,33.9,57.2,33.9z"/>
<path d="M59.4,33.9l-0.3-0.6h-1l-0.3,0.6H59.4z"/>
</g>
</g>
<g id="Ear-Cap_Left_Gunslinger" style="fill: rgb(255, 0, 0);">
<path d="M59.9,40.8l-0.7,0.3l-0.1,0.7h1.3L59.9,40.8z"/>
<path d="M60.3,35.3l-0.4-0.9l-1.2-0.3V37h1.6V35.3z"/>
<path d="M58.3,42.8l2-0.2l0.1,2.9l-1.6,0.7l0.4,11.5L58.7,58L58.3,42.8z"/>
<path d="M59.9,45.7l0.1,9.7l-0.8,2.3l-0.4-11.5L59.9,45.7z"/>
<path d="M60.8,42.6l-0.9-1.8l-0.7,0.3L59,42.3h-0.3V41l1.6-0.7l0.8,2.3H60.8z"/>
<path d="M60.3,40.3V37h-1.6v4L60.3,40.3z"/>
<path d="M60.3,35.3l0.6,1.7l0.2,5.6l-0.8-2.3V35.3z"/>
<rect x="58.7" y="36" width="1.2" height="1"/>
<path d="M59,42.3h1.6l-0.2-0.5h-1.3L59,42.3z"/>
<path d="M60.2,42.6l-0.3-0.3h-1.2l-0.4,0.4L60.2,42.6z"/>
<path d="M58.7,34.6l-0.9-0.1v0.8l0.5,7.5l0.5-0.4L58.7,34.6L58.7,34.6z"/>
</g>
</g>
<g id="Right-Earcap_Gunslinger" class="toggle">
<g id="Range-Finder_Right_Gunslinger" class="option" style="display: inherit;">
<path id="Shaft_Right_Range-Finder_Gunslinger" d="M22.5,9.7l1.1,0.1L22,36.7h-1.1L22.5,9.7z" style="fill: rgb(45, 45, 45);"/>
<path id="Finder_Right_Range-Finder_Gunslinger" d="M30.8,7.6h-6L25,6.9l7-0.7L30.8,7.6" style="fill: rgb(45, 45, 45);"/>
<g id="Cover_Right_Range-Finder_Gunslinger" style="fill: rgb(255, 0, 0);">
<path d="M21.6,8.6l2.8,0.2l0.6-2l7.5-0.7l0.1-0.8L22,5l-1,1.3L21.6,8.6"/>
<path d="M22.4,8.6l1.4,0.1l-0.1,1.1l-1.4-0.1L22.4,8.6"/>
</g>
</g>
<g id="Ear-Cap_Right_Gunslinger" style="fill: rgb(255, 0, 0);">
<path d="M20.1,40.9l0.7,0.3l0.1,0.7h-1.3L20.1,40.9z"/>
<path d="M19.7,35.3l0.4-0.9l1.2-0.3V37h-1.6V35.3z"/>
<path d="M21.7,42.8l-2-0.2l-0.1,2.9l1.6,0.7l-0.4,11.5l0.4,0.3L21.7,42.8z"/>
<path d="M20.1,45.7L20,55.4l0.8,2.3l0.4-11.5L20.1,45.7z"/>
<path d="M19.2,42.6l0.9-1.8l0.7,0.3l0.3,1.2h0.3V41l-1.6-0.7L19,42.6H19.2z"/>
<path d="M19.7,40.4V37h1.6v4L19.7,40.4z"/>
<path d="M19.7,35.3L19.1,37l-0.2,5.6l0.8-2.3V35.3z"/>
<rect x="20.1" y="36" width="1.2" height="1"/>
<path d="M21,42.3h-1.6l0.2-0.5h1.3L21,42.3z"/>
<path d="M19.8,42.6l0.3-0.3h1.2l0.4,0.4L19.8,42.6z"/>
<path d="M21.3,34.6l0.9-0.1v0.8l-0.5,7.5l-0.5-0.4L21.3,34.6L21.3,34.6z"/>
</g>
</g>
<g id="Helmet_Pieces_Gunslinger">
<g id="Face_Gunslinger" style="fill: rgb(0, 0, 0);">
<path d="M23.2,59.6l2.4-9.6c0.2,0,3.1,0.3,6,4.6c2,3,2.6,11.4,2.6,11.4L23.2,59.6z"/>
<path d="M56.8,59.6L54.4,50c-0.2,0-3.1,0.3-6,4.6c-2,3-2.6,11.4-2.6,11.4L56.8,59.6z"/>
</g>
<g id="Cheeks_Gunslinger" style="fill: rgb(255, 0, 0);">
<path d="M21.8,42.3l-0.5,15.9l1.9,1.3l2.4-9.6L21.8,42.3z"/>
<path d="M58.2,42.3l0.5,15.9l-1.9,1.3L54.4,50L58.2,42.3z"/>
<path d="M21.8,42.3c0.3,0.1,5.5,1.4,8.6,6.4S34.9,65.3,35,66h-0.8c0,0-0.6-8.5-2.6-11.4c-3-4.4-6-4.6-6-4.6 L21.8,42.3z"/>
<path d="M58.2,42.3c-0.3,0.1-5.5,1.4-8.6,6.4c-3.1,5-4.5,16.6-4.6,17.3h0.8c0,0,0.6-8.5,2.6-11.4c3-4.4,6-4.6,6-4.6 L58.2,42.3z"/>
</g>
<path id="Visor_Gunslinger" d="M22.7,37.8L40,38.7l17.3-0.9v1.4l-13.5,3.1l-1,21.7h-5.7l-0.9-21.7l-13.5-3.1V37.8z" style="fill: rgb(0, 0, 0);"/>
<g id="Eyes_Gunslinger" style="fill: rgb(45, 45, 45);">
<path d="M22.7,37.8v1.4l13.5,3.1L37.1,64l-2.2,2c0,0-1.3-12.2-4.6-17.3c-3.2-5.2-8.7-6.4-8.7-6.4l0.5-7h35.5l0.5,7 c0,0-5.4,1.2-8.7,6.4C46.3,53.9,45,66.1,45,66.1l-2.2-2l0.9-21.7l13.5-3.1v-1.4L40,38.7L22.7,37.8z"/>
<rect x="22.2" y="35.8" width="35.6" height="0.5"/>
</g>
<path id="Dome_Gunslinger" d="M57.8,35.3H22.2c0-9.1,8-16.4,17.8-16.4S57.8,26.2,57.8,35.3z" style="fill: rgb(0, 0, 0);"/>
<path id="Ridge-2_Gunslinger" d="M37.9,37.1l-1.6-1.8V19.2c0,0,1.1-0.6,3.6-0.5c2.5,0,3.6,0.5,3.6,0.5v16.1L42,37.1 H37.9z" style="fill: rgb(45, 45, 45);"/>
<path id="Ridge-1_Gunslinger" d="M38.5,34.9l-0.3-0.3V18.8c0,0,0.6-0.1,1.8-0.1s1.8,0.1,1.8,0.1v15.9L41.5,35 L38.5,34.9L38.5,34.9z" style="fill: rgb(48, 48, 48);"/>
</g>
</g>
</svg>
<g id="Shoulders">
<g id="Left-Shoulder">
<g id="Legacy-x2_Shoulder_Left" class="option" style="display: inherit;">
<path id="Plate-2_Shoulder_Left_Legacy-x2" d="M111.7,20l-5.9,8.8l6,8.4l9.5-2.3l6,3.7l4.5-1.2L111.7,20z" style="fill: rgb(255, 0, 0);"/>
<path id="Trauma-Plate-2_Shoulder_Legacy-x2_Left" class="toggle" style="display: none; fill: rgb(255, 255, 255);" d="M127.6,36.8l2.9-0.8l-17.3-15.1l-5.2,7.9l4.6,6.5 l8.7-2.2L127.6,36.8z"/>
<path id="Plate-1_Shoulder_Left_Legacy-x2" d="M104.5,15.5l-2.6,10.3l8.4,6l8.2-5.3l6.8,1.5l3.8-2.6L104.5,15.5z" style="fill: rgb(0, 0, 0);"/>
<path id="Trauma-Plate-1_Shoulder_Legacy-x2_Left" class="toggle" style="display: none; fill: rgb(255, 255, 255);" d="M125,26.1l2.5-1.7l-21.3-8.6l-2.4,9.2l6.5,4.6 l7.5-5L125,26.1z"/>
</g>
</g>
<g id="Right-Shoulder">
<g id="Classic_Shoulder_Right" class="option" style="display: inherit;">
<path id="Main_Shoulder_Classic_Right" d="M55.2,18.6l2.5,11.5l-2,6.6l-13.6,6.9l-2.3-3.5L55.2,18.6z" style="fill: rgb(0, 0, 0);"/>
<path id="Trauma-Plates_Shoulder_Classic_Right" class="toggle" style="display: none; fill: rgb(255, 255, 255);" d="M56,30l-1.7,5.5l-11.6,5.9l-2-3l13.1-18.3L56,30z"/>
</g>
</g>
</g>
<g id="Gauntlets">
<g id="Left-Gauntlets">
<g id="Basic_Gauntlet_Left" class="option" style="display: inherit;">
<path id="Top-2_Basic_Gauntlet_Left" d="M138.2,110.9l1.6-2.1l-2.4-18.9l-0.8,2.2l1.2,8.6l-0.9,2L138.2,110.9z" style="fill: rgb(255, 0, 0);"/>
<path id="Top-1_Basic_Gauntlet_Left" d="M137.4,89.9l-0.8,2.2l1.2,8.6l-0.9,2l1.4,8.1l-1,1.4l0,5.2l-1.6,0.3 l-1.5-7.9l-1.4-0.7l-4.9-23.3l9.1-0.2L137.4,89.9z" style="fill: rgb(0, 0, 0);"/>
<g id="Accent-Bottom_Basic_Gauntlet_Left" style="fill: rgb(255, 0, 0);">
<path d="M123.8,92.4l-2,0.5l0.7,3l2-0.5L123.8,92.4z"/>
<path d="M125.1,97.7l-2,0.5l0.7,3l2-0.5L125.1,97.7z"/>
<path d="M126.4,103.1l-2,0.5l0.7,3l2-0.5L126.4,103.1z"/>
</g>
<path id="Bottom_Basic_Gauntlet_Left" d="M121.8,92.8l-0.6-2.3l6.6-4.3l4.8,22.9l-6.9,0.7l-2-8.6l2-0.5l-0.7-3 l-2,0.5l-0.5-2.3l2-0.5l-0.7-3L121.8,92.8z M126.4,103.1l-2,0.5l0.7,3l2.1-0.5L126.4,103.1z" style="fill: rgb(0, 0, 0);"/>
<g id="Flamethrower_Attachment_Basic_Gauntlet_Left" class="option" style="display: inherit;">
<g id="Tubes_Flamethrower_Attachment_Basic_Gauntlet_Left" style="fill: rgb(255, 172, 0);">
<path d="M138.5,86.6l-0.8,0.1l3.2,25.5l0.8-0.1L138.5,86.6z"/>
<path d="M140.4,86.4l-0.8,0.1l2.3,18.3l0.8-0.1L140.4,86.4z"/>
<path d="M138.8,88.2l-1.2,0.1l0.8,6.1l1.2-0.1L138.8,88.2z"/>
<path d="M140.7,87.9l-1.2,0.1l0.8,6.1l1.2-0.1L140.7,87.9z"/>
</g>
<g id="Main_Flamethrower_Attachment_Basic_Gauntlet_Left" style="fill: rgb(0, 0, 0);">
<path d="M140.7,86.3l-3.4,0.4l0.2,1.6l3.4-0.4L140.7,86.3z"/>
<path d="M141.8,94l-3.6,0.4l0.1,1l3.6-0.4L141.8,94z"/>
<path d="M141.7,95l-3.3,0.4l0.1,0.5l3.3-0.4L141.7,95z"/>
<path d="M138.4,93.8l-0.6,0.1l0.4,3l0.6-0.1L138.4,93.8z"/>
</g>
<g id="Accent_Flamethrower_Attachment_Basic_Gauntlet_Left" style="fill: rgb(45, 45, 45);">
<path d="M142.7,104.6l-0.9,0.1l0,1.3l1.2-0.1L142.7,104.6z"/>
<path d="M142.2,98.1l-1.6,0.2l0.2,1.9l1.6-0.2L142.2,98.1z"/>
<path d="M142.2,100.1l-1.2,0.1l0.2,1.9l1.2-0.1L142.2,100.1z"/>
<path d="M141.4,108.8l-1.2,0.1l0.3,2.7l1.2-0.1L141.4,108.8z"/>
<path d="M140.3,100.3l-1.2,0.1l0.4,3.6l1.2-0.1L140.3,100.3z"/>
<path d="M141.8,110.1l-1.6,0.2l0.1,0.5l1.6-0.2L141.8,110.1z"/>
</g>
<path id="Base_Flamethrower_Attachment_Basic_Gauntlet_Left" d="M137.9,93.9l-1-8l1,0.3l1.7,13.6l-0.9,0.6 l-0.4-3.4l0.6-0.1l-0.4-3L137.9,93.9z" style="fill: rgb(0, 0, 0);"/>
</g>
</g>
</g>
<g id="Right-Gauntlets">
<g id="Basic_Gauntlet_Right" class="option" style="display: inherit;">
<path id="Top-2_Basic_Gauntlet_Right" d="M30.7,110.9l-1.6-2.1l2.4-18.9l0.8,2.2l-1.2,8.6l0.9,2L30.7,110.9z" style="fill: rgb(255, 0, 0);"/>
<path id="Top-1_Basic_Gauntlet_Right" d="M31.6,89.9l0.8,2.2l-1.2,8.6l0.9,2l-1.4,8.1l1,1.4l0,5.2l1.6,0.3l1.5-7.9 l1.4-0.7l4.9-23.3l-9.1-0.2L31.6,89.9z" style="fill: rgb(0, 0, 0);"/>
<g id="Accent-Bottom_Basic_Gauntlet_Right" style="fill: rgb(255, 0, 0);">
<path d="M45.2,92.3l2,0.5l-0.7,3l-2-0.5L45.2,92.3z"/>
<path d="M43.9,97.7l2,0.5l-0.7,3l-2-0.5L43.9,97.7z"/>
<path d="M42.6,103.1l2,0.5l-0.7,3l-2-0.5L42.6,103.1z"/>
</g>
<path id="Bottom_Basic_Gauntlet_Right" d="M47.2,92.8l0.5-2.3l-6.6-4.3l-4.8,22.9l6.9,0.7l2-8.6l-2-0.5l0.7-3 l2,0.5l0.5-2.3l-2-0.5l0.7-3L47.2,92.8z M42.6,103.1l2,0.5l-0.7,3l-2.1-0.5L42.6,103.1z" style="fill: rgb(0, 0, 0);"/>
<g id="Whistling-Birds_Attachment_Basic_Gauntlet_Right" class="option" style="display: inherit;">
<path id="Head_Whistling-Birds_Attachment_Basic_Gauntlet_Right" d="M27,101.1l2.4,5.5l0.7-5.1L27,101.1z" style="fill: rgb(45, 45, 45);"/>
<g id="Birds_Whistling-Birds_Attachment_Basic_Gauntlet_Right" style="fill: rgb(255, 172, 0);">
<g>
<path d="M29.5,101.8c-0.1,0-0.3,0.2-0.3,0.6s0,0.6,0.1,0.6c0.1,0,0.3-0.2,0.3-0.6S29.7,101.8,29.5,101.8z"/>
<path d="M29.3,103.4c-0.1,0-0.3,0.2-0.3,0.6c0,0.3,0,0.6,0.1,0.6c0.1,0,0.3-0.2,0.3-0.6S29.4,103.4,29.3,103.4z"/>
<path d="M28.7,101.6c-0.1,0-0.3,0.2-0.3,0.6c0,0.3,0,0.6,0.1,0.6c0.1,0,0.3-0.2,0.3-0.6 C28.9,101.9,28.8,101.7,28.7,101.6z"/>
<path d="M29.2,106c0-0.1,0.1-0.2,0.1-0.3c0-0.3,0-0.6-0.1-0.6c-0.1,0-0.2,0.1-0.2,0.3L29.2,106z M28.5,104.4 c0.1-0.1,0.1-0.3,0.2-0.5c0-0.3,0-0.6-0.1-0.6c-0.1,0-0.2,0.2-0.3,0.5L28.5,104.4z M27.7,102.7c0.1,0,0.2-0.2,0.3-0.6 c0-0.3,0-0.6-0.1-0.6c-0.1,0-0.3,0.2-0.3,0.6c0,0.1,0,0.1,0,0.2L27.7,102.7z"/>
</g>
</g>
<g id="Base_Whistling-Birds_Attachment_Basic_Gauntlet_Right" style="fill: rgb(0, 0, 0);">
<path d="M29.2,85.6l2.1,0.3l-0.1,0.9l-2.1-0.3L29.2,85.6z"/>
<path d="M28.9,86.5l2.2,0.3l-1.9,14.6l-2.2-0.3L28.9,86.5z"/>
<path d="M28.6,86.6l0.3,0l-1.6,12.6l-0.3,0L28.6,86.6z"/>
<path d="M29.2,86.5l0.3,0l-1.7,13.7l-0.3,0L29.2,86.5z"/>
</g>
<g id="Accent_Whistling-Birds_Attachment_Basic_Gauntlet_Right" style="fill: rgb(45, 45, 45);">
<path d="M31.3,85.6l0.8,0.1l-1.9,14.8l-0.8-0.1L31.3,85.6z"/>
<path d="M27,100.1l3.2,0.4l-0.1,0.9l-3.2-0.4L27,100.1z"/>
<path d="M29.9,85.7l1.4,0.2L31,88l-1.4-0.2L29.9,85.7z"/>
<path d="M29.9,87.8l1,0.1L30.3,93l-0.8-2L29.9,87.8z"/>
</g>
</g>
</g>
</g>
</g>
<g id="Shins">
<g id="Left-Shin">
<g id="Basic-Shnees_Shin_Left" class="option" style="display: inherit;">
<path id="Shin_Basic-Shnees-Shin_Left" d="M100.9,162c-0.1-2.2,1.5-4.1,3.7-4.3c2.7-0.2,6.3-0.5,9-0.7 c2.2-0.2,4.1,1.4,4.4,3.5c0.7,4.7,1.9,12.2,3.1,12.1l2.9,47l-10.1,0.8l-3.3,3.4l-4.6-1.2l-7.4-48.2 C101.1,174.3,101.2,166.8,100.9,162z" style="fill: rgb(0, 0, 0);"/>
<g id="Straps_Basic-Shnees-Shin_Left" class="toggle" style="fill: rgb(255, 0, 0);">
<path d="M99.4,181.8l5.2-0.6l0.4,2.4l-5.2,0.6L99.4,181.8"/>
<path d="M99.7,181.6l1.1-0.1l0.5,2.9l-1.1,0.1L99.7,181.6"/>
<path d="M103,205.1l5.2-0.6l0.4,2.4l-5.2,0.6L103,205.1"/>
<path d="M103.3,204.8l1.1-0.1l0.5,2.9l-1.1,0.1L103.3,204.8"/>
</g>
<g id="Accent_Basic-Shnees-Shin_Left" class="toggle" style="fill: rgb(0, 0, 0);">
<path d="M113.6,156.8l-3.8-0.4l-3.9,0.9l8.8,63.1l4.7-0.4L113.6,156.8"/>
<path d="M109.7,156.3l7.4,63.8"/>
</g>
</g>
</g>
<g id="Right-Shin">
<g id="Basic_Shin_Right" class="option" style="display: inherit;">
<path id="Shin_Basic-Shin_Right" d="M47.2,182.7l4.6-6l10.3,0.5l4.5,8.5l-4.3,30c-4.3,2.3-10.9,1.9-14.7-1 L47.2,182.7" style="fill: rgb(0, 0, 0);"/>
<path id="Trauma-Plating_Basic-Shin_Right" class="toggle" style="display: none; fill: rgb(255, 255, 255);" d="M49.3,213.8l-0.4-30.5l3.7-4.8l8.4,0.4l3.8,7.1l-4.1,28.6 C57.2,216,52.4,215.8,49.3,213.8"/>
<g id="Ridge_Basic-Shin_Right" class="toggle" style="fill: rgb(255, 0, 0);">
<path d="M53.2,176.6l3.6-0.7l3.6,1.2l-3.6,40c-2.5,0.3-2.5,0.4-4.6-0.4L53.2,176.6"/>
<path d="M56.8,175.9l-2.4,41.4"/>
</g>
</g>
</g>
</g>
<g id="Foot">
<g id="Left-Ankle">
<g id="Basic_Ankle_Left" class="option" style="display: inherit;">
<path id="Main_Basic-Ankle_Left" d="M128.8,229.3l-6.6-11.7c-3.4-0.2-6.7,0.3-9.7,1.5c-1.1,0.5-2,1.4-2.3,2.5 c0,0,0,0,0,0c-0.3,1,0,2.2,0.8,2.9c2,1.9,5.7,5.2,8,6C123.8,232.2,128.8,229.3,128.8,229.3" style="fill: rgb(0, 0, 0);"/>
<path id="Trauma-Plate_Basic-Ankle_Left" class="toggle" style="display: none; fill: rgb(255, 255, 255);" d="M123,219c-3.3-0.1-8.1,0.6-11,1.9l-0.3,0.9 c-0.2,0.6,0,1.3,0.5,1.7c1.9,1.8,5.2,4.9,7.3,5.6c2.8,1,7-0.6,8.6-1.2L123,219"/>
</g>
</g>
<g id="Left-Toe">
<g id="None_Toe_Left" class="option" style="display: inherit;">
</g>
</g>
<g id="Right-Ankle">
<g id="Basic_Ankle_Right" class="option" style="display: inherit;">
<path id="Main_Basic-Ankle_Right" d="M40.3,229.3l6.6-11.7c3.4-0.2,6.7,0.3,9.7,1.5c1.1,0.5,2,1.4,2.3,2.5 c0,0,0,0,0,0c0.3,1,0,2.2-0.8,2.9c-2,1.9-5.7,5.2-8,6C45.2,232.2,40.3,229.3,40.3,229.3" style="fill: rgb(255, 0, 0);"/>
<path id="Trauma-Plate_Basic-Ankle_Right" class="toggle" style="display: none; fill: rgb(255, 255, 255);" d="M46.1,219c3.3-0.1,8.1,0.6,11,1.9l0.3,0.9 c0.2,0.6,0,1.3-0.5,1.7c-1.9,1.8-5.2,4.9-7.3,5.6c-2.8,1-7-0.6-8.6-1.2L46.1,219"/>
</g>
</g>
<g id="Right-Toe">
<g id="None_Toe_Right" class="option" style="display: inherit;">
</g>
</g>
</g>
<g id="Knees">
<g id="Left-Knee">
<g id="None-(Nih-Plates)_Knee_Left" class="option" style="display: inherit;">
</g>
</g>
<g id="Right-Knee">
<g id="Basic_Knee_Right" class="option" style="display: inherit;">
<g id="Missiles_Basic-Knee_Right" class="toggle" style="">
<path id="Base_Missiles_Basic-Knee_Right" d="M50.8,158.3c0,0,0,0.1,0,0.1c-0.2,2-0.5,6.2-0.4,9.8l-2.3-1.4 c-0.4-0.2-0.6-0.6-0.6-1.1c0-1.3,0.1-4.3,0.1-5.8c0-0.6,0.4-1.1,1-1.2L50.8,158.3z" style="fill: rgb(255, 0, 0);"/>
<g id="Missile-2_Missiles_Basic-Knee_Right" style="fill: rgb(255, 172, 0);">
<path d="M49.1,164c0.6,0.1,1,0.6,0.9,1.2c-0.1,0.6-0.6,1-1.2,0.9c-0.6-0.1-1-0.6-0.9-1.2 C48,164.3,48.6,163.9,49.1,164z"/>
<path d="M49.1,164.3c0.4,0,0.7,0.4,0.6,0.8c0,0.4-0.4,0.7-0.8,0.6c-0.4,0-0.7-0.4-0.6-0.8 C48.3,164.5,48.7,164.3,49.1,164.3z"/>
</g>
<g id="Missile-1_Missiles_Basic-Knee_Right" style="fill: rgb(255, 172, 0);">
<path d="M49.3,159.4c0.6,0.1,1,0.6,0.9,1.2c-0.1,0.6-0.6,1-1.2,0.9s-1-0.6-0.9-1.2 C48.2,159.7,48.7,159.3,49.3,159.4z"/>
<path d="M49.2,159.7c0.4,0,0.7,0.4,0.6,0.8c0,0.4-0.4,0.7-0.8,0.6c-0.4,0-0.7-0.4-0.6-0.8 C48.5,160,48.8,159.7,49.2,159.7z"/>
</g>
</g>
<g id="Knee_Basic-Knee_Right" style="fill: rgb(255, 0, 0);">
<path d="M72.4,160.5l-1.4-0.2c0,0-1.1,7.1-1.6,10.2c-0.1,0.8,0.4,1.6,1.2,1.7c0,0,0,0,0,0L72.4,160.5z"/>
<path d="M71,160l-0.8,5.2c-1.1-0.6-3.7,0.5-4.6,3.6c-1.6,5.8-3,7.1-8,6.6c-3.9-0.4-6.7-2.2-7-4.9 c-0.5-4,0-9.8,0.2-12.1c0-0.3,0.2-0.5,0.4-0.7c0.2-0.2,0.5-0.2,0.7-0.2C56,158,71,160,71,160z"/>
<path d="M71.5,160L71,160l-0.9,5.7l0.5,0.1L71.5,160z"/>
</g>
</g>
</g>
</g>
<g id="Thighs">
<g id="Left-Thigh">
<g id="Basic_Thigh_Left" class="option" style="display: inherit;">
<path id="Thigh_Basic-Thigh_Left" d="M118.2,116.8c0,0-5.1-6.5-7.7-7.6c-2.5-1-5.8-0.6-7.9,1.1 c-3.2,2.6-10.6,8.2-11.5,14.4c-0.9,6.9,4.1,22.3,5.8,27.3c0.6,1.7,2.8,2.5,4.5,2.5c3.1,0.1,11.7-0.1,13.7-4.8 C118.1,143.5,118.2,116.8,118.2,116.8" style="fill: rgb(0, 0, 0);"/>
<path id="Trauma-Plate_Basic-Thigh_Left" class="toggle" style="display: none; fill: rgb(255, 255, 255);" d="M116.5,117.4c-0.8-0.9-2.6-3.2-4.3-4.8 c-0.8-0.8-1.6-1.5-2.3-1.8c-1.9-0.8-4.5-0.5-6.1,0.9c-1.9,1.5-5.2,4-7.7,7.1c-1.5,1.9-2.8,4-3.1,6.2c-0.9,6.8,4.1,21.7,5.8,26.5 c0.1,0.4,0.5,0.7,1,0.9c0.6,0.3,1.3,0.5,2,0.5c1.8,0.1,5.3,0,8.3-1c1.7-0.5,3.2-1.3,3.8-2.8c0.8-1.8,1.3-5.3,1.7-9.4 C116.3,131,116.5,120.1,116.5,117.4"/>
<g id="Ridge_Basic-Thigh_Left" class="toggle" style="display: none; fill: rgb(255, 255, 255);"/>
</g>
</g>
<g id="Right-Thigh">
<g id="Basic_Thigh_Right" class="option" style="display: inherit;">
<path id="Thigh_Basic-Thigh_Right" d="M50.8,116.8c0,0,5.1-6.5,7.7-7.6c2.5-1,5.8-0.6,7.9,1.1 c3.2,2.6,10.6,8.2,11.5,14.4c0.9,6.9-4.1,22.3-5.8,27.3c-0.6,1.7-2.8,2.5-4.5,2.5c-3.1,0.1-11.7-0.1-13.7-4.8 C50.9,143.5,50.8,116.8,50.8,116.8" style="fill: rgb(0, 0, 0);"/>
<path id="Trauma-Plate_Basic-Thigh_Right" class="toggle" style="display: none; fill: rgb(255, 255, 255);" d="M52.5,117.4c0.8-0.9,2.6-3.2,4.3-4.8 c0.8-0.8,1.6-1.5,2.3-1.8c1.9-0.8,4.5-0.5,6.1,0.9c1.9,1.5,5.2,4,7.7,7.1c1.5,1.9,2.8,4,3.1,6.2c0.9,6.8-4.1,21.7-5.8,26.5 c-0.1,0.4-0.5,0.7-1,0.9c-0.6,0.3-1.3,0.5-2,0.5c-1.8,0.1-5.3,0-8.3-1c-1.7-0.5-3.2-1.3-3.8-2.8c-0.8-1.8-1.3-5.3-1.7-9.4 C52.7,131,52.5,120.1,52.5,117.4"/>
<g id="Ridge_Basic-Thigh_Right" class="toggle" style="fill: rgb(255, 0, 0);">
<path d="M59.3,108.6l3.5-0.9l3.7,2l-1.2,44.7c-2.4,0.5-2.5,0.6-4.6-0.1L59.3,108.6"/>
<path d="M62.8,107.7l0.1,47.1"/>
</g>
</g>
</g>
</g>
<g id="Groin">
<g id="Basic_Groin" class="option" style="display: inherit;">
<path id="Groin-Plate_Basic" d="M78.2,107.5L67.7,86.2h33.8l-10.6,21.2c0,0-4.2,5.1-6.3,5.1 C82.5,112.5,78.2,107.5,78.2,107.5z" style="fill: rgb(0, 0, 0);"/>
<path id="Trauma-Plating_Groin" class="toggle" style="display: none; fill: rgb(255, 255, 255);" d="M89.8,106.7l9.5-19.2H69.8l9.5,19.2c0.4,0.5,2.1,2.4,3.7,3.6 c0.6,0.4,1.1,0.8,1.5,0.8c0.4,0,0.9-0.4,1.5-0.8C87.7,109.2,89.4,107.2,89.8,106.7"/>
</g>
</g>
<g id="Waist">
<g id="Accessories_Waist">
<g id="Kama" class="toggle" style="display:none"/>
<g id="Loin-Cloth" class="toggle" style="display:none"/>
<g id="Left-Holster" class="toggle" style="display:none"/>
<g id="Right-Holster" class="toggle" style="">
<g id="Belt-Holster_Right" class="option" style="display: inherit;">
<g id="Weapon_Belt-Holster-Right">
<g id="Main_Weapon_Belt-Holster-Right" style="fill: rgb(45, 45, 45);">
<path d="M60.2,93l0.2-3.7l-0.6,0L60,87l0.6,0l0.1-1.2c0-0.4-0.5-0.7-1.1-0.8c-1.5-0.1-4-0.3-5.4-0.4 c-0.6,0-1.2,0.2-1.2,0.6l-0.1,1.2l0.6,0l-0.2,2.3l-0.6,0l-0.2,3.7l1.5,0.1l-0.7,10.1l4.8,0.3l0.7-10.1L60.2,93z"/>
<path d="M53.1,92L54,92l-0.8,12.2l4.8,0.3l0.8-12.2l0.9,0.1l0.2-2.8l-6.5-0.4L53.1,92z"/>
<path d="M54.9,85.5l3.8,0.3l-0.2,3.8l-3.8-0.3L54.9,85.5z"/>
<path d="M57.6,93.4l0.6,0l-0.6,9.6l-0.6,0L57.6,93.4z"/>
<path d="M56.1,91.1l0.6,0l-0.6,9.6l-0.6,0L56.1,91.1z"/>
<path d="M54.4,93.2l0.6,0l-0.6,9.6l-0.6,0L54.4,93.2z"/>
</g>
<g id="Accent_Weapon_Belt-Holster-Right" style="fill: rgb(45, 45, 45);">
<path d="M57.9,89.9l0,0.4l-2.7-0.2l0-0.4L57.9,89.9z"/>
<path d="M57.9,90.3l0,0.4l-2.7-0.2l0-0.4L57.9,90.3z"/>
<path d="M57.9,89.5l0,0.4l-2.7-0.2l0-0.4L57.9,89.5z"/>
<path d="M58.2,84.8l0,0.4L55.5,85l0-0.4L58.2,84.8z"/>
<path d="M58.1,85.7l0.6,0l-0.2,3.8l-0.6,0L58.1,85.7z"/>
<path d="M54.9,85.5l0.6,0l-0.2,3.8l-0.6,0L54.9,85.5z"/>
<path d="M55,93.2l1,0.1l-0.6,9.6l-1-0.1L55,93.2z"/>
<path d="M56.6,93.3l1,0.1l-0.6,9.6l-1-0.1L56.6,93.3z"/>
</g>
</g>
<path id="Holster_Belt-Holster-Right" d="M58.6,107l2.5-15.2l-8.4,10.7l-0.8,21c1.5,1.9,3.1,2.1,4.9,0.4L58.6,107 z" style="fill: rgb(111, 48, 0);"/>
</g>
</g>
</g>
<g id="Under-Belt">
<g id="Girth-Belt" class="option" style="fill: rgb(255, 0, 0); display: inherit;">
<path d="M84.5,80.1c-7.2,0-21.5-1.8-21.5-1.8l0.5-1.5c0,0,14,1.2,21,1.8c7-0.6,21-1.8,21-1.8l0.5,1.5 C106,78.3,91.7,80.1,84.5,80.1z"/>
<path d="M84.5,81.6c-7.3,0-22-1.8-22-1.8l0.4-1.5c0,0,17.9,1.5,21.5,1.8c3.6-0.3,21.5-1.8,21.5-1.8l0.4,1.5 C106.5,79.8,91.9,81.6,84.5,81.6z"/>
<path d="M84.5,83.2c-7.4,0-22.3-1.8-22.3-1.8l0.3-1.5c0,0,18.3,1.5,22,1.8c3.7-0.3,22-1.8,22-1.8l0.3,1.5 C106.8,81.4,92,83.2,84.5,83.2z"/>
<path d="M84.5,84.7C77,84.7,62,82.9,62,82.9l0.3-1.5c0,0,18.6,1.5,22.3,1.8c3.7-0.3,22.3-1.8,22.3-1.8l0.3,1.5 C107.1,82.9,92.1,84.7,84.5,84.7z"/>
<path d="M84.5,86.3c-7.6,0-22.8-1.8-22.8-1.8l0.3-1.5c0,0,18.8,1.5,22.6,1.8c3.8-0.3,22.6-1.8,22.6-1.8l0.3,1.5 C107.4,84.4,92.1,86.3,84.5,86.3z"/>
<path d="M84.5,87.8c-7.7,0-23.1-1.8-23.1-1.8l0.2-1.5c0,0,19,1.5,22.8,1.8c3.8-0.3,22.8-1.8,22.8-1.8l0.2,1.5 C107.6,86,92.2,87.8,84.5,87.8z"/>
<path d="M84.5,89.4c-7.8,0-23.3-1.8-23.3-1.8l0.2-1.5c0,0,19.2,1.5,23.1,1.8c3.8-0.3,23.1-1.8,23.1-1.8l0.2,1.5 C107.8,87.5,92.3,89.4,84.5,89.4z"/>
<path d="M84.5,90.9c-7.8,0-23.5-1.8-23.5-1.8l0.2-1.5c0,0,19.4,1.5,23.3,1.8c3.9-0.3,23.3-1.8,23.3-1.8l0.2,1.5 C108.1,89.1,92.4,90.9,84.5,90.9z"/>
<path d="M84.5,92.5c-7.9,0-23.8-1.8-23.8-1.8l0.3-1.5c0,0,19.6,1.5,23.5,1.8c3.9-0.3,23.5-1.8,23.5-1.8l0.3,1.5 C108.3,90.6,92.5,92.5,84.5,92.5z"/>
<path d="M84.5,94c-8,0-24.1-1.8-24.1-1.8l0.3-1.5c0,0,19.8,1.5,23.8,1.8c4-0.3,23.8-1.8,23.8-1.8l0.3,1.5 C108.6,92.2,92.6,94,84.5,94z"/>
</g>
</g>
<g id="Belt">
<g id="Pouch-Belt-6" class="option" style="display: inherit;">
<path id="Main_Pouch-Belt-6" d="M108.2,87.6c-5.3,0.5-17.5,2.2-23.6,2.2c-6.2,0-18.4-1.8-23.6-2.2l0.8-6.2 c4.3,0.4,16.8,2.2,22.8,2.2c5.8,0,18.1-1.8,22.7-2.2L108.2,87.6z" style="fill: rgb(70, 39, 11);"/>
<rect id="Buckle_Pouch-Belt-6" x="80.2" y="82.9" width="8.8" height="7.2" style="fill: rgb(128, 128, 128);"/>
<g id="Pouches_Pouch-Belt-6" style="fill: rgb(111, 51, 0);">
<g>
<g>
<g>
<path d="M75.3,81.4c-1.4-0.1-2.8,0.1-4.1,0.6l0,0l6.3,0.4l1.7-0.7C79.3,81.7,77.1,81.5,75.3,81.4z"/>
<path d="M79.5,81.9c0-0.1,0-0.1-0.1-0.2c-0.1,0-0.1-0.1-0.2,0c-0.6,0.2-1.7,0.7-1.7,0.7l-0.8,9.8 c0.7-0.4,1.4-0.6,2.1-0.7c0.1,0,0.2-0.1,0.2-0.2C79.1,88.1,79.2,85,79.5,81.9z"/>
<path d="M77.6,82.4L71.2,82c0,1.5-0.2,3-0.3,4.4c-0.1,1.7-0.1,3.4-0.3,5.2c0,0.1,0,0.1,0.1,0.2 c0,0,0.1,0.1,0.2,0.1c2,0,3.9,0.1,5.9,0.3c0.1,0,0.1,0,0.2,0c0,0,0.1-0.1,0.1-0.1c0.1-0.9,0.3-4.4,0.3-4.4L77.6,82.4z"/>
<path d="M77.6,82.4L71.2,82c0,0-0.1,0.6-0.2,1.3c-0.1,0.9,0.2,1.8,0.7,2.5c0.6,0.7,1.4,1.1,2.3,1.2c0,0,0,0,0,0 c0.9,0.1,1.8-0.3,2.4-0.9c0.7-0.6,1-1.5,1-2.4C77.6,83,77.6,82.4,77.6,82.4z"/>
<path d="M74.2,85.8c0.2,0,0.4,0.2,0.4,0.4s-0.2,0.4-0.4,0.4s-0.4-0.2-0.4-0.4S74,85.8,74.2,85.8z"/>
</g>
</g>
<g>
<g>
<path d="M66.4,80.2c-1.3-0.1-2.6,0.1-3.7,0.7c0,0,0,0,0,0l5.8,0.3l1.6-0.7C70,80.5,68,80.3,66.4,80.2z"/>
<path d="M70.2,80.7c0-0.1,0-0.1-0.1-0.2c-0.1,0-0.1,0-0.2,0c-0.5,0.2-1.5,0.7-1.5,0.7L67.6,91 c0.6-0.4,1.3-0.6,1.9-0.7c0.1,0,0.2-0.1,0.2-0.2C69.8,86.9,69.9,83.8,70.2,80.7z"/>
<path d="M68.4,81.2l-5.8-0.3c0,1.5-0.2,3-0.3,4.4c-0.1,1.7-0.1,3.4-0.3,5.2c0,0.1,0,0.1,0.1,0.2 c0,0,0.1,0.1,0.1,0.1c1.8,0,3.6,0.1,5.3,0.3c0.1,0,0.1,0,0.2,0c0,0,0.1-0.1,0.1-0.1c0.1-0.9,0.3-4.4,0.3-4.4L68.4,81.2z"/>
<path d="M68.4,81.2l-5.8-0.3c0,0-0.1,0.7-0.2,1.6c-0.1,0.8,0.2,1.6,0.7,2.3c0.5,0.6,1.3,1,2.1,1.1c0,0,0,0,0,0 c0.8,0,1.6-0.2,2.2-0.8c0.6-0.6,0.9-1.3,0.9-2.2C68.4,81.9,68.4,81.2,68.4,81.2z"/>
<path d="M65.3,84.6c0.2,0,0.4,0.2,0.3,0.4s-0.2,0.4-0.4,0.4c-0.2,0-0.4-0.2-0.3-0.4S65.1,84.6,65.3,84.6z"/>
</g>
</g>
<g>
<path d="M59,80.8l0.4-0.7l2.2,0.1l0.3,0.8L59,80.8z"/>
<path d="M61.9,81.1c0-0.1,0-0.1,0-0.2c0,0-0.1-0.1-0.1-0.1c-0.7,0-2.7-0.1-2.7-0.1l-0.4,8.8 c0.1,0.3,1.7,0.4,2.6,0.4c0.1,0,0.2-0.1,0.2-0.2C61.5,86.8,61.6,84,61.9,81.1z"/>
</g>
</g>
<g>
<g>
<g>
<path d="M93.9,81.4c1.4-0.1,2.8,0.1,4.1,0.6l0,0l-6.3,0.4l-1.7-0.7C89.9,81.7,92.1,81.5,93.9,81.4z"/>
<path d="M89.7,81.9c0-0.1,0-0.1,0.1-0.2c0.1,0,0.1-0.1,0.2,0c0.6,0.2,1.7,0.7,1.7,0.7l0.8,9.8 c-0.7-0.4-1.4-0.6-2.1-0.7c-0.1,0-0.2-0.1-0.2-0.2C90.1,88.1,90,85,89.7,81.9z"/>
<path d="M91.6,82.4l6.3-0.4c0,1.5,0.2,3,0.3,4.4c0.1,1.7,0.1,3.4,0.3,5.2c0,0.1,0,0.1-0.1,0.2 c0,0-0.1,0.1-0.1,0.1c-2,0-3.9,0.1-5.9,0.3c-0.1,0-0.1,0-0.2,0c0,0-0.1-0.1-0.1-0.1c-0.1-0.9-0.3-4.4-0.3-4.4L91.6,82.4z"/>
<path d="M91.6,82.4l6.3-0.4c0,0,0.1,0.6,0.2,1.3c0.1,0.9-0.2,1.8-0.7,2.5c-0.6,0.7-1.4,1.1-2.3,1.2c0,0,0,0,0,0 c-0.9,0.1-1.8-0.3-2.4-0.9c-0.7-0.6-1-1.5-1-2.4C91.6,83,91.6,82.4,91.6,82.4z"/>
<path d="M95,85.8c-0.2,0-0.4,0.2-0.4,0.4s0.2,0.4,0.4,0.4s0.4-0.2,0.4-0.4S95.2,85.8,95,85.8z"/>
</g>
</g>
<g>
<g>
<path d="M102.8,80.2c1.3-0.1,2.6,0.1,3.7,0.7l0,0l-5.8,0.3l-1.6-0.7C99.2,80.5,101.2,80.3,102.8,80.2z"/>
<path d="M99,80.7c0-0.1,0-0.1,0.1-0.2c0.1,0,0.1,0,0.2,0c0.5,0.2,1.5,0.7,1.5,0.7l0.8,9.8 c-0.6-0.4-1.3-0.6-1.9-0.7c-0.1,0-0.2-0.1-0.2-0.2C99.4,86.9,99.3,83.8,99,80.7z"/>
<path d="M100.7,81.2l5.8-0.3c0,1.5,0.2,3,0.3,4.4c0.1,1.7,0.1,3.4,0.3,5.2c0,0.1,0,0.1-0.1,0.2 c0,0-0.1,0.1-0.2,0.1c-1.8,0-3.6,0.1-5.3,0.3c-0.1,0-0.1,0-0.2,0c0,0-0.1-0.1-0.1-0.1c-0.1-0.9-0.3-4.4-0.3-4.4L100.7,81.2z"/>
<path d="M100.7,81.2l5.8-0.3c0,0,0.1,0.7,0.2,1.6c0.1,0.8-0.2,1.6-0.7,2.3c-0.5,0.6-1.3,1-2.1,1.1c0,0,0,0,0,0 c-0.8,0-1.6-0.2-2.2-0.8c-0.6-0.6-0.9-1.3-0.9-2.2C100.7,81.9,100.7,81.2,100.7,81.2z"/>
<path d="M103.8,84.6c-0.2,0-0.4,0.2-0.3,0.4c0,0.2,0.2,0.4,0.4,0.4c0.2,0,0.4-0.2,0.3-0.4S104,84.6,103.8,84.6z"/>
</g>
</g>
<g>
<path d="M110.1,80.8l-0.4-0.7l-2.2,0.1l-0.3,0.8L110.1,80.8z"/>
<path d="M107.2,81.1c0-0.1,0-0.1,0-0.2c0,0,0.1-0.1,0.1-0.1c0.7,0,2.7-0.1,2.7-0.1l0.4,8.8 c-0.1,0.3-1.7,0.4-2.6,0.4c-0.1,0-0.2-0.1-0.2-0.2C107.7,86.8,107.6,84,107.2,81.1z"/>
</g>
</g>
</g>
</g>
</g>
</g>
<g id="Extras_Front">
<g id="Front">
<g id="None_Front" class="option" style="display: inherit;">
</g>
</g>
</g>
</svg></svg>