<?xml version='1.0' encoding='UTF-8'?>
<svg version="1.1" id="Female-Body" xmlns="http://www.w3.org/2000/svg" xmlns:serif="http://www.serif.com/" viewBox="0 -55 170 300" style="fill-rule: evenodd; stroke-width: 0.2px; stroke-linejoin: round;" width="170" height="300">
<style>
mask {
mask-type: alpha;
}
.decal {
stroke: none;
}
</style>
<defs id="Masks" stroke="none">
<mask id="HelmetsMask"> <use href="#Helmets"/> </mask>
<mask id="CollarMask"> <use href="#Collar"/> </mask>
<mask id="ShouldersMask"> <use href="#Shoulders"/> </mask>
<mask id="ChestMask"> <use href="#Chest"/> </mask>
<mask id="BicepsMask"> <use href="#Biceps"/> </mask>
<mask id="GauntletsMask"> <use href="#Gauntlets"/> </mask>
<mask id="WaistMask"> <use href="#Waist"/> </mask>
<mask id="GroinMask"> <use href="#Groin"/> </mask>
<mask id="ThighsMask"> <use href="#Thighs"/> </mask>
<mask id="KneesMask"> <use href="#Knees"/> </mask>
<mask id="ShinsMask"> <use href="#Shins"/> </mask>
<mask id="FootMask"> <use href="#Foot"/> </mask>
</defs>
<defs id="Decals"/><metadata><rdf:rdf xmlns:rdf="http://www.w3.org/1999/02/22-rdf-syntax-ns#" xmlns:rdfs="http://www.w3.org/2000/01/rdf-schema#" xmlns:dc="http://purl.org/dc/elements/1.1/"><rdf:description><dc:creator>MandoCreator</dc:creator><dc:publisher>https://www.mandocreator.com</dc:publisher><dc:description>Your Beskar'gam - created by MandoCreator</dc:description><dc:format>image/svg+xml</dc:format><dc:type>Image</dc:type><dc:title>MandoCreator - Ner Berskar'gam</dc:title><dc:date>2022-01-02T16:23:26.574Z</dc:date></rdf:description></rdf:rdf></metadata><g id="Main-Body" fill="white" stroke="black">
<g id="Extras_Back">
<g id="Back"><path id="Torn-Short-Cape-Left_Back" class="option" d="M104.41,56.97c-1.18-5.82-1.79-26.1-9.43-28.65 c-6.75-2.25,8.49-14.62,8.49-14.62c0.36-1.08,4.21,1.55,5.12,1.57c2.12,0.03,6.7,2.18,8.4,3.49c4.68,3.63,8.03,8.54,9.68,11.29 c4.56,7.61,8.79,16.7,10.17,24.35c1.33,7.41,4.78,14.04,7.39,20.77c2.95,7.61,4.45,12.97,7.07,20.75 c2.7,8.03,5.88,15.14,10.39,20.89c1.77,2.26,4.59,4.09,5.84,7.12c0.13,0.31,1.42,6.87,1.4,6.88c-0.76,0.45-3.62-3.76-4.46-3.7 c-1.49,0.11-11.5-2.7-12.05,2.4c-0.2,1.85-1.07,6.07-1.07,6.07s-6.53,0.11-8.3-1.33l0.64,8.14c0,0-2.83-3.46-6.04-4.9 c-1.21-0.54-3.59,0.75-3.59,0.75l-3.98-4.09c0,0,1.24,9.51,1.87,12.47c0,0-9.55-4.87-10.24-3.38c-0.66,1.43,0.98,4.77-0.69,6.1 c-1.06,0.84-4.23,3.72-4.2,3.48c0.33-2.55,0.73-9.09-0.47-16.2c-1.51-8.96-2.04-15.07-3.46-24.06c-0.94-6.01-0.63-9.14-2.06-14.99 c-1.59-6.5-3.49-14.08-5.4-20.44C103.57,70.87,105.75,63.52,104.41,56.97z M125.96,122.82c0.4,1.5,1.33,2.93,2.05,4.31 c0.44,0.83,4.93,5.77,5.79,6.2c1.39,0.69-4.5-6.87-4.86-7.98c-1.12-3.48,0.27-4.65-3.14-5.97L125.96,122.82z M147.18,126.33 c-0.06,0.31-0.12,0.62-0.15,0.93c-0.28,2.41,1.72-0.13,1-0.74L147.18,126.33z M153.4,118.18c0.32,0.28,6.13,5.05,6.42,4.96 c0.28-0.09-0.86-2.14-0.98-2.32c-0.71-1.02-1.74-1.79-2.76-2.49L153.4,118.18z" fill="rgb(0, 0, 0)" style="display: inherit;"/></g>
</g>
<g id="Extras-BackDecals" mask="url(#BackMask)">
</g>
<g id="Suit">
<g id="Neck-Seal"><g id="Standard-Neck-Seal" class="option" fill="rgb(40, 40, 40)" style="display: inherit;">
<path d="M95.96,3.46c0-0.93-0.74-1.69-1.65-1.69c0,0-6.22,0.89-9.33,0.89c-3.11,0-9.33-0.89-9.33-0.89 c-0.91,0-1.65,0.76-1.65,1.69c0,0.93,0.74,1.69,1.65,1.69c0,0,6.22,0.89,9.33,0.89c3.11,0,9.33-0.89,9.33-0.89 C95.22,5.15,95.96,4.39,95.96,3.46z"/>
<path d="M96.51,5.43c0-0.98-0.78-1.77-1.73-1.77c0,0-6.53,0.93-9.8,0.93s-9.8-0.93-9.8-0.93 c-0.96,0-1.73,0.79-1.73,1.77c0,0.98,0.78,1.77,1.73,1.77c0,0,6.53,0.93,9.8,0.93s9.8-0.93,9.8-0.93 C95.74,7.21,96.51,6.41,96.51,5.43z"/>
<path d="M97.14,7.88c0-1.03-0.82-1.87-1.83-1.87c0,0-6.89,0.98-10.33,0.98c-3.44,0-10.33-0.98-10.33-0.98 c-1.01,0-1.83,0.84-1.83,1.87s0.82,1.87,1.83,1.87c0,0,6.89,0.98,10.33,0.98c3.44,0,10.33-0.98,10.33-0.98 C96.32,9.75,97.14,8.91,97.14,7.88z"/>
<path d="M97.75,10.13c0-1.08-0.86-1.96-1.92-1.96c0,0-7.23,1.03-10.85,1.03c-3.62,0-10.85-1.03-10.85-1.03 c-1.06,0-1.92,0.88-1.92,1.96c0,1.08,0.86,1.96,1.92,1.96c0,0,7.23,1.03,10.85,1.03c3.62,0,10.85-1.03,10.85-1.03 C96.89,12.09,97.75,11.21,97.75,10.13z"/>
<path d="M98.36,12.33c0-0.82-0.9-1.48-2.01-1.48c0,0-7.58,0.78-11.36,0.78s-11.36-0.78-11.36-0.78 c-1.11,0-2.01,0.66-2.01,1.48c0,0.82,0.9,1.48,2.01,1.48c0,0,7.58,0.78,11.36,0.78s11.36-0.78,11.36-0.78 C97.46,13.81,98.36,13.14,98.36,12.33z"/>
<path d="M98.36,14.8c0-0.82-0.9-1.48-2.01-1.48c0,0-7.58,0.78-11.36,0.78s-11.36-0.78-11.36-0.78 c-1.11,0-2.01,0.66-2.01,1.48c0,0.82,0.9,1.48,2.01,1.48c0,0,7.58,1.5,11.36,1.5s11.36-1.5,11.36-1.5 C97.46,16.28,98.36,15.62,98.36,14.8z"/>
</g>
</g>
<g id="Flight-Suit" fill="rgb(40, 40, 40)">
<path d="M38.1,60.17l5.2-18.8l12.15-8.13l1.9,16.49c0,0-5.25,9.95-7.06,14.51c-1.86,4.7-5.09,15.42-5.5,16.81 l-2.88,24.91l-8.36-2.66c0,0-0.3-17.29,0.46-24.47C34.68,72.42,38.1,60.17,38.1,60.17z"/>
<path d="M131.9,60.17l-5.22-18.86l-12.06-8.07l-1.92,16.59c0,0,5.2,9.85,7.01,14.41c1.86,4.7,5.09,15.42,5.5,16.81 l2.88,24.91l8.36-2.66c0,0,0.3-17.29-0.46-24.47C135.32,72.42,131.9,60.17,131.9,60.17z"/>
<path d="M84.99,113.44c-1.03,0.1-1.95,0.5-2.29,1.22c-3,6.3-9.17,35.13-10.95,40.44c-0.97,2.89-1.74,18.7-3.38,27.92 c-1.96,11.01-8.39,38.11-8.39,38.11l-11.15-1.15c0,0-1.44-27.22-1.04-37.12c0.3-7.53,3.42-22.31,3.42-22.31s0.67-5.4,0.69-8.12 c0.06-9.82,0.93-31.66,2.88-44.2C56.3,98.31,65.7,77.5,65.7,77.5s12.18,4.76,19.34,4.76c7.16,0,19.44-4.86,19.44-4.86 s8.88,20.92,10.42,30.83c1.95,12.54,3.24,34.38,3.3,44.2c0.02,2.72,0.69,8.12,0.69,8.12s3.12,14.79,3.42,22.31 c0.4,9.91-1.04,37.12-1.04,37.12l-11.15,1.15c0,0-6.43-27.1-8.39-38.11c-1.64-9.22-2.41-25.03-3.38-27.92 c-1.78-5.31-7.96-34.13-10.95-40.44c-0.35-0.73-1.3-1.14-2.34-1.23L84.99,113.44z"/>
</g>
<g id="Sleeves" class="toggle" fill="rgb(40, 40, 40)">
<path d="M41.92,41.42l0.81,0.34l12.73-8.52c0,0,0.36,8.98,1.42,14.37c0.15,0.75,0.37,1.69,0.64,2.79l-1.69,5.45 c0,0-5.75-2.25-8.27-3.72C45.11,50.7,40.7,47,40.7,47L41.92,41.42z"/>
<path d="M112.55,50.4c0.28-1.1,0.5-2.04,0.64-2.79c1.06-5.39,1.42-14.37,1.42-14.37l12.73,8.52l0.81-0.34l1.22,5.58 c0,0-4.4,3.7-6.85,5.13c-2.52,1.48-8.28,3.72-8.28,3.72L112.55,50.4z"/>
</g>
</g>
<g id="Boots"><g id="Basic_Boots" class="option" style="display: inherit;">
<g id="Main_Basic-Boot" fill="rgb(0, 0, 0)">
<path d="M60.73,217.89c-0.18-0.07-2.31,1.28-3.52,1.48c-1.29,0.22-2.7,0.2-4.07,0.06l-0.56-0.06l-0.02,0l-0.07-0.01 l-0.18-0.02l-0.28-0.04l-0.12-0.02c-0.32-0.04-0.64-0.09-0.95-0.14l-0.49-0.1l-0.1-0.03l-0.04-0.01l-0.08-0.02l-0.34-0.08 l-0.3-0.08l-0.05-0.01c-1.05-0.28-0.85-0.78-0.85-0.78c0,1.45-1.51,5.98-5.27,9.68c-1.14,1.13-3.92,2.45-6.33,3.5 c-2.21,0.97-4.87,1.2-6.15,3.78c-0.28,0.56-0.52,1.24-0.47,1.88c0.06,0.82,0.95,0.93,1.65,1.13c1.73,0.49,3.22,0.86,5.22,1.31 c2.28,0.51,4.34,0.82,6.65,0.76c1.73-0.05,3.2-0.12,4.72-1.03c0.61-0.37,1.24-0.74,1.77-1.22c1.19-1.08,1.96-2.21,3.48-2.85 c1.1-0.47,2.24-0.85,3.41-1.13c1.65-0.39,4.06-0.94,4.95-2.57c0.34-1.22-1.15-3.83-1.26-5.59 C60.99,224.26,60.85,217.94,60.73,217.89z"/>
<path d="M109.34,217.89c0.18-0.07,2.31,1.28,3.52,1.48c1.29,0.22,2.7,0.2,4.07,0.06l0.55-0.06l0.02,0l0.07-0.01 l0.18-0.02l0.28-0.04l0.12-0.02c0.32-0.04,0.64-0.09,0.95-0.14l0.49-0.1l0.1-0.03l0.04-0.01l0.08-0.02l0.34-0.08l0.3-0.08 l0.05-0.01c1.05-0.28,0.85-0.78,0.85-0.78c0,1.45,1.51,5.98,5.27,9.68c1.14,1.13,3.92,2.45,6.33,3.5 c2.21,0.97,4.87,1.2,6.15,3.78c0.28,0.56,0.52,1.24,0.47,1.88c-0.06,0.82-0.95,0.93-1.65,1.13c-1.73,0.49-3.22,0.86-5.21,1.31 c-2.28,0.51-4.34,0.82-6.65,0.76c-1.73-0.05-3.2-0.12-4.72-1.03c-0.61-0.37-1.24-0.74-1.77-1.22c-1.19-1.08-1.96-2.21-3.48-2.85 c-1.11-0.47-2.24-0.85-3.41-1.13c-1.65-0.39-4.07-0.94-4.95-2.57c-0.34-1.22,1.15-3.83,1.26-5.59 C109.07,224.26,109.21,217.94,109.34,217.89z"/>
</g>
<g id="Bottom_Basic-Boot" fill="rgb(40, 40, 40)">
<path d="M62.34,231.27c-0.44,0.81-1.26,1.35-2.18,1.74c-0.84,0.42-1.82,0.6-2.77,0.82 c-0.13,0.03-0.26,0.06-0.38,0.09c-0.19,0.05-0.38,0.1-0.56,0.15c-0.06,0.02-0.11,0.03-0.17,0.05l-0.1,0.03 c-0.06,0.02-0.12,0.04-0.18,0.06c-0.03,0.01-0.05,0.02-0.08,0.02c-0.1,0.03-0.2,0.07-0.31,0.1c-0.04,0.01-0.07,0.02-0.11,0.04 l-0.05,0.02c-0.16,0.05-0.31,0.11-0.47,0.17c-0.03,0.01-0.07,0.03-0.1,0.04c-0.14,0.05-0.28,0.11-0.42,0.16l-0.11,0.04 c-0.08,0.03-0.17,0.07-0.25,0.1c-0.04,0.01-0.07,0.03-0.11,0.05c-0.25,0.11-0.48,0.22-0.7,0.35l-0.03,0.02 c-0.02,0.01-0.03,0.02-0.05,0.03c-0.07,0.04-0.13,0.08-0.2,0.13l-0.04,0.03c-0.01,0.01-0.03,0.02-0.04,0.03 c-0.06,0.05-0.13,0.09-0.19,0.14l-0.05,0.04l-0.08,0.07c-0.26,0.21-0.51,0.44-0.75,0.68l-0.07,0.07c-0.13,0.13-0.26,0.26-0.4,0.4 c-0.14,0.14-0.28,0.28-0.42,0.42c-0.14,0.14-0.29,0.29-0.45,0.43l-0.05,0.05c-0.05,0.04-0.1,0.08-0.14,0.12 c-0.01,0.01-0.02,0.01-0.03,0.02c-0.08,0.06-0.16,0.13-0.24,0.19c-0.05,0.04-0.11,0.08-0.16,0.12l-0.03,0.02 c-0.07,0.05-0.14,0.1-0.21,0.14c-0.03,0.02-0.06,0.04-0.09,0.06c-0.1,0.07-0.21,0.13-0.31,0.2c-0.07,0.04-0.14,0.09-0.22,0.13 l-0.09,0.05l-0.23,0.14l-0.11,0.06l-0.07,0.04l-0.07,0.04c-0.11,0.06-0.21,0.11-0.32,0.16c-0.05,0.02-0.1,0.05-0.15,0.07 l-0.05,0.02c-0.32,0.14-0.63,0.24-0.95,0.32l-0.06,0.01l-0.07,0.02c-0.02,0-0.05,0.01-0.07,0.02c-0.06,0.01-0.13,0.03-0.2,0.04 c-0.05,0.01-0.1,0.02-0.15,0.03l-0.12,0.02l-0.04,0.01c-0.03,0.01-0.07,0.01-0.1,0.02c-0.06,0.01-0.11,0.02-0.17,0.02 c-0.08,0.01-0.16,0.02-0.24,0.03c-0.02,0-0.04,0.01-0.06,0.01c-0.2,0.02-0.41,0.04-0.61,0.05c-0.11,0.01-0.23,0.01-0.34,0.02 l-0.1,0c-0.22,0.01-0.44,0.02-0.66,0.02c-0.14,0-0.29,0.01-0.43,0.01c-0.05,0-0.1,0-0.16,0c-0.07,0-0.15,0-0.22,0 c-0.05,0-0.11,0-0.16,0l-0.05,0c-0.26-0.01-0.52-0.01-0.78-0.03c-0.03,0-0.07,0-0.11-0.01l-0.1-0.01c-0.03,0-0.07,0-0.1-0.01 c-0.38-0.03-0.76-0.06-1.13-0.11l-0.1-0.01c-0.09-0.01-0.19-0.02-0.28-0.04c-0.04-0.01-0.08-0.01-0.12-0.02l-0.1-0.01 c-0.08-0.01-0.15-0.02-0.23-0.03c-0.33-0.05-0.66-0.11-0.99-0.17c-0.07-0.01-0.15-0.03-0.22-0.04l-0.1-0.02 c-0.03-0.01-0.07-0.01-0.1-0.02l-0.1-0.02c-0.03-0.01-0.07-0.01-0.1-0.02l-0.07-0.01c-0.08-0.02-0.16-0.03-0.24-0.05l-0.1-0.02 c-0.1-0.02-0.19-0.04-0.28-0.06c-0.08-0.02-0.16-0.04-0.25-0.05l-0.02-0.01c-0.52-0.12-1.01-0.23-1.48-0.34l-0.18-0.04 c-0.13-0.03-0.26-0.06-0.39-0.09l-0.16-0.04l-0.07-0.02c-0.18-0.04-0.37-0.09-0.55-0.14c-0.11-0.03-0.22-0.06-0.33-0.08 c-0.32-0.08-0.63-0.16-0.94-0.25l-0.14-0.04c-0.05-0.01-0.1-0.03-0.16-0.04l-0.06-0.02c-0.24-0.07-0.49-0.13-0.74-0.2l-0.06-0.02 L32,237.96l-0.26-0.07l-0.09-0.02l-0.13-0.04l-0.05-0.02l-0.11-0.04l-0.09-0.03l-0.04-0.02l-0.05-0.02l-0.02-0.01l-0.05-0.02 l-0.05-0.02l-0.02-0.01l-0.05-0.03l-0.06-0.03l-0.05-0.04l-0.05-0.04c-0.08-0.07-0.15-0.14-0.21-0.23l0,0c0,0-0.46,0.68-0.5,1.86 c1.04,1.49,4.31,1.99,8.84,2.59c4.5,0.6,7.28,0.48,9.16-0.32c1.88-0.81,5.18-4.63,7.54-4.83c2.36-0.2,5.15-1.45,6.3-2.12 c0.6-0.35,0.42-2.81,0.42-2.81L62.34,231.27z"/>
<path d="M107.72,231.27c0.44,0.81,1.26,1.35,2.18,1.74c0.84,0.42,1.82,0.6,2.77,0.82c0.13,0.03,0.25,0.06,0.38,0.09 c0.19,0.05,0.38,0.1,0.56,0.15c0.06,0.02,0.11,0.03,0.17,0.05l0.1,0.03c0.06,0.02,0.12,0.04,0.18,0.06 c0.03,0.01,0.05,0.02,0.08,0.02c0.1,0.03,0.2,0.07,0.31,0.1c0.04,0.01,0.07,0.02,0.11,0.04l0.05,0.02 c0.16,0.05,0.31,0.11,0.47,0.17c0.03,0.01,0.07,0.03,0.1,0.04c0.14,0.05,0.28,0.11,0.42,0.16l0.11,0.04 c0.08,0.03,0.17,0.07,0.25,0.1c0.04,0.01,0.07,0.03,0.11,0.05c0.25,0.11,0.48,0.22,0.69,0.35l0.03,0.02 c0.02,0.01,0.03,0.02,0.05,0.03c0.07,0.04,0.13,0.08,0.2,0.13l0.04,0.03c0.01,0.01,0.03,0.02,0.04,0.03 c0.06,0.05,0.13,0.09,0.19,0.14l0.05,0.04l0.08,0.07c0.26,0.21,0.51,0.44,0.75,0.68l0.07,0.07c0.13,0.13,0.26,0.26,0.39,0.4 c0.14,0.14,0.28,0.28,0.42,0.42c0.15,0.14,0.29,0.29,0.45,0.43l0.05,0.05c0.05,0.04,0.1,0.08,0.15,0.12 c0.01,0.01,0.02,0.01,0.03,0.02c0.08,0.06,0.16,0.13,0.24,0.19c0.05,0.04,0.11,0.08,0.16,0.12l0.03,0.02 c0.07,0.05,0.14,0.1,0.21,0.14c0.03,0.02,0.06,0.04,0.09,0.06c0.1,0.07,0.2,0.13,0.31,0.2c0.07,0.04,0.14,0.09,0.21,0.13 l0.09,0.05l0.23,0.14l0.11,0.06l0.07,0.04l0.07,0.04c0.11,0.06,0.21,0.11,0.32,0.16c0.05,0.02,0.1,0.05,0.15,0.07l0.05,0.02 c0.32,0.14,0.63,0.24,0.95,0.32l0.06,0.01l0.07,0.02c0.02,0,0.05,0.01,0.07,0.02c0.07,0.01,0.13,0.03,0.2,0.04 c0.05,0.01,0.1,0.02,0.15,0.03l0.12,0.02l0.04,0.01c0.03,0.01,0.07,0.01,0.1,0.02c0.06,0.01,0.11,0.02,0.17,0.02 c0.08,0.01,0.16,0.02,0.24,0.03c0.02,0,0.04,0.01,0.06,0.01c0.2,0.02,0.41,0.04,0.61,0.05c0.11,0.01,0.23,0.01,0.34,0.02l0.1,0 c0.22,0.01,0.44,0.02,0.66,0.02c0.14,0,0.29,0.01,0.43,0.01c0.05,0,0.1,0,0.16,0c0.07,0,0.15,0,0.22,0c0.05,0,0.11,0,0.16,0 l0.05,0c0.26-0.01,0.52-0.01,0.78-0.03c0.04,0,0.07,0,0.11-0.01l0.1-0.01c0.03,0,0.07,0,0.1-0.01c0.38-0.03,0.76-0.06,1.13-0.11 l0.1-0.01c0.09-0.01,0.19-0.02,0.28-0.04c0.04-0.01,0.08-0.01,0.12-0.02l0.1-0.01c0.08-0.01,0.15-0.02,0.23-0.03 c0.33-0.05,0.66-0.11,0.99-0.17c0.07-0.01,0.15-0.03,0.22-0.04l0.1-0.02c0.03-0.01,0.07-0.01,0.1-0.02l0.1-0.02 c0.03-0.01,0.07-0.01,0.1-0.02l0.07-0.01c0.08-0.02,0.16-0.03,0.24-0.05l0.1-0.02c0.09-0.02,0.19-0.04,0.28-0.06 c0.08-0.02,0.16-0.04,0.25-0.05l0.02-0.01c0.52-0.12,1.01-0.23,1.48-0.34l0.18-0.04c0.13-0.03,0.26-0.06,0.39-0.09l0.16-0.04 l0.07-0.02c0.19-0.04,0.37-0.09,0.55-0.14c0.11-0.03,0.22-0.06,0.32-0.08c0.31-0.08,0.63-0.16,0.94-0.25l0.14-0.04 c0.05-0.01,0.1-0.03,0.16-0.04l0.06-0.02c0.24-0.07,0.49-0.13,0.74-0.2l0.06-0.02l0.09-0.02l0.26-0.07l0.09-0.02l0.13-0.04 l0.05-0.02l0.11-0.04l0.09-0.03l0.04-0.02l0.05-0.02l0.03-0.01l0.05-0.02l0.05-0.02l0.02-0.01l0.05-0.03l0.05-0.03l0.05-0.04 l0.05-0.04c0.08-0.07,0.15-0.14,0.21-0.23l0,0c0,0,0.46,0.68,0.5,1.86c-1.04,1.49-4.31,1.99-8.84,2.59 c-4.5,0.6-7.28,0.48-9.16-0.32c-1.88-0.81-5.18-4.63-7.55-4.83c-2.36-0.2-5.15-1.45-6.3-2.12c-0.6-0.35-0.42-2.81-0.42-2.81 L107.72,231.27z"/>
</g>
<g id="Top_Basic-Boot" fill="rgb(0, 133, 255)">
<path d="M49.35,218.75c-0.62,3.05-1.6,5.71-3.64,8.28c-3.18,4.01-8.62,4.33-12.38,7.58 c-0.97,0.83-0.92,2.18-1.07,3.41c1.56,0.44,2.93,0.78,4.68,1.18c0.12-1.23-0.1-2.6,0.93-3.49c3.76-3.25,9.68-3.13,12.86-7.13 c2.08-2.62,2.09-5.99,2.69-9.13c-0.09-0.01-0.19-0.02-0.28-0.02l-0.56-0.06l-0.02,0l-0.07-0.01l-0.18-0.02l-0.28-0.04l-0.12-0.02 c-0.32-0.04-0.64-0.09-0.95-0.14l-0.49-0.1l-0.1-0.03l-0.04-0.01l-0.08-0.02l-0.34-0.08l-0.3-0.08l-0.05-0.01 C49.49,218.79,49.42,218.77,49.35,218.75z"/>
<path d="M120.71,218.75c0.63,3.05,1.6,5.71,3.64,8.28c3.18,4.01,8.62,4.33,12.38,7.58c0.96,0.83,0.92,2.18,1.07,3.41 c-1.56,0.44-2.93,0.78-4.68,1.18c-0.12-1.23,0.1-2.6-0.93-3.49c-3.76-3.25-9.68-3.13-12.86-7.13c-2.08-2.62-2.09-5.99-2.69-9.13 c0.09-0.01,0.19-0.02,0.28-0.02l0.55-0.06l0.02,0l0.07-0.01l0.18-0.02l0.28-0.04l0.12-0.02c0.32-0.04,0.64-0.09,0.95-0.14 l0.49-0.1l0.1-0.03l0.04-0.01l0.08-0.02l0.34-0.08l0.3-0.08l0.05-0.01C120.57,218.79,120.64,218.77,120.71,218.75z"/>
</g>
<g id="Side_Basic-Boot" fill="rgb(0, 133, 255)">
<path d="M60.15,218.12c-1.21,0.53-1.84,1.07-2.95,1.25c-0.06,0.01-0.12,0.02-0.18,0.03 c-0.02,0.38-0.01,0.77-0.02,1.11c-0.04,1.92,0.2,10.09,0.58,10.08c0.38-0.01,1.48-0.22,1.76-0.51c0.19-0.2,0.22-0.67,0.28-0.92 c0.19-0.81,0.37-1.63,0.5-2.45C60.29,225.59,60.12,219.79,60.15,218.12z"/>
<path d="M109.91,218.12c1.21,0.53,1.85,1.07,2.95,1.25c0.06,0.01,0.12,0.02,0.18,0.03c0.02,0.38,0.01,0.77,0.02,1.11 c0.04,1.92-0.2,10.09-0.57,10.08c-0.38-0.01-1.48-0.22-1.76-0.51c-0.19-0.2-0.22-0.67-0.28-0.92c-0.19-0.81-0.37-1.63-0.5-2.45 C109.77,225.59,109.95,219.79,109.91,218.12z"/>
</g>
</g>
</g>
<g id="Gloves">
<g id="Left-Glove"><g id="Basic_Left_Glove" class="option" fill="rgb(40, 40, 40)" style="display: inherit;">
<path d="M133.16,120.46c-0.46-0.03-0.9-0.01-1.36,0.09c-0.31,0.07-0.62,0.16-0.9,0.34 c-0.85,0.55-0.62,1.76,0.14,2.21c0.89,0.53,2.29,0.01,2.69-1.02C133.9,121.66,133.39,120.86,133.16,120.46"/>
<path d="M131.6,121.51c-0.46-0.02-0.9-0.02-1.36,0.09c-0.31,0.07-0.62,0.16-0.9,0.34c-0.85,0.55-0.62,1.76,0.14,2.21 c0.89,0.53,2.29,0.01,2.69-1.02C132.34,122.71,131.83,121.91,131.6,121.51"/>
<path d="M130.49,122.93c-0.46,0.05-1.02,0.12-1.46,0.3c-0.3,0.12-0.59,0.25-0.85,0.47c-0.78,0.68-0.4,1.83,0.4,2.17 c0.94,0.39,2.27-0.34,2.55-1.42C131.24,124.01,130.49,122.93,130.49,122.93z"/>
<path d="M127.97,106.79c0,0-1.34,2.09-1.69,3.59c-0.25,1.06-0.11,3.58-0.43,5.28c-0.31,1.7-0.59,2.64-0.59,2.64 s-1.18,2.71-0.98,3.34c0.21,0.62,1.25,1.18,1.84,0.85c0.74-0.41,1.66-2.32,2.24-3.67c0.59-1.37,1.08-3.32,1.08-3.32 s0.81,0.32,1.23,0.68c1.38,1.2,0.78,4.82,0.78,4.82s-0.57,1.29-1.43,2.75c-1.17,1.99-2.97,3.7-1.78,5.22 c1.11,1.42,3.63-2.31,3.63-2.31l2.47-3.62c0,0,2.84-5.26,2.98-6.28c0.11-0.78,0.01-3.38,0.01-3.38l-0.89-10.08l-4.5,0.42 l-3.7,1.36L127.97,106.79"/>
</g>
</g>
<g id="Right-Glove"><g id="Basic_Right_Glove" class="option" fill="rgb(40, 40, 40)" style="display: inherit;">
<path d="M36.86,120.46c0.46-0.03,0.9-0.01,1.36,0.09c0.31,0.07,0.62,0.16,0.9,0.34c0.85,0.55,0.62,1.76-0.14,2.21 c-0.89,0.53-2.29,0.01-2.69-1.02C36.12,121.66,36.64,120.86,36.86,120.46"/>
<path d="M38.42,121.51c0.46-0.02,0.9-0.02,1.36,0.09c0.31,0.07,0.62,0.16,0.9,0.34c0.85,0.55,0.62,1.76-0.14,2.21 c-0.89,0.53-2.29,0.01-2.69-1.02C37.68,122.71,38.2,121.91,38.42,121.51"/>
<path d="M39.54,122.93c0.46,0.05,1.02,0.12,1.46,0.3c0.3,0.12,0.6,0.25,0.85,0.47c0.78,0.68,0.4,1.83-0.4,2.17 c-0.94,0.39-2.27-0.34-2.55-1.42C38.78,124.01,39.54,122.93,39.54,122.93z"/>
<path d="M42.06,106.79c0,0,1.34,2.09,1.69,3.59c0.25,1.06,0.11,3.58,0.43,5.28c0.31,1.7,0.59,2.64,0.59,2.64 s1.18,2.71,0.98,3.34c-0.21,0.62-1.24,1.18-1.84,0.85c-0.74-0.41-1.66-2.32-2.24-3.67c-0.59-1.37-1.08-3.32-1.08-3.32 s-0.81,0.32-1.23,0.68c-1.38,1.2-0.78,4.82-0.78,4.82s0.57,1.29,1.43,2.75c1.17,1.99,2.97,3.7,1.78,5.22 c-1.11,1.42-3.63-2.31-3.63-2.31l-2.47-3.62c0,0-2.84-5.26-2.98-6.28c-0.11-0.78-0.01-3.38-0.01-3.38l0.89-10.08l4.5,0.42 l3.7,1.36L42.06,106.79"/>
</g>
</g>
</g>
<g id="Biceps">
<g id="Left-Biceps"><g id="Basic_Biceps_Left" class="option" style="display: inherit;">
<path id="Main_Basic_Biceps_Left" d="M133.33,53.8c-1.18-2.85-6.45-15.35-6.45-15.35s-8.66,3.56-10.82,4.44 c-0.61,0.25-0.9,0.95-0.65,1.56c1.02,2.45,3.51,8.45,5.06,12.19c0.35,0.85,1.03,1.52,1.88,1.87c0.85,0.35,1.81,0.35,2.65,0 c2.54-1.04,5.95-2.44,7.68-3.15C133.29,55.1,133.58,54.41,133.33,53.8z" fill="rgb(0, 133, 255)"/>
<path id="Strap_Basic_Biceps_Left" d="M117.73,49.98l-4.71,1.93l1.11,3.94l5.16-2.12L117.73,49.98" fill="rgb(139, 87, 42)"/>
<path id="Trauma-Plate_Basic_Biceps_Left" class="toggle" style="" d="M133.29,53.21l-5.5-13.24l-10.55,4.33l4.84,11.67 c0.17,0.42,0.5,0.75,0.92,0.92c0.42,0.17,0.89,0.17,1.31,0L133.29,53.21" fill="rgb(0, 0, 0)"/>
</g>
</g>
<g id="Right-Biceps"><g id="Basic_Biceps_Right" class="option" style="display: inherit;">
<path id="Main_Basic_Biceps_Right" d="M36.74,53.8c1.18-2.85,6.46-15.35,6.46-15.35s8.66,3.56,10.82,4.44 c0.61,0.25,0.9,0.95,0.65,1.56c-1.02,2.45-3.51,8.45-5.06,12.19c-0.35,0.85-1.03,1.52-1.88,1.87c-0.85,0.35-1.8,0.35-2.65,0 c-2.54-1.04-5.95-2.44-7.68-3.15C36.78,55.1,36.49,54.41,36.74,53.8z" fill="rgb(0, 133, 255)"/>
<path id="Strap_Basic_Biceps_Right" d="M52.35,49.98l4.71,1.93l-1.11,3.94l-5.16-2.12L52.35,49.98" fill="rgb(139, 87, 42)"/>
<path id="Trauma-Plate_Basic_Biceps_Right" class="toggle" style="" d="M36.78,53.21l5.49-13.24l10.55,4.33l-4.84,11.67 c-0.17,0.42-0.5,0.75-0.92,0.92c-0.42,0.17-0.89,0.17-1.31,0L36.78,53.21" fill="rgb(0, 0, 0)"/>
</g>
</g>
</g>
<g id="BicepsDecals" mask="url(#BicepsMask)">
</g>
<path id="Vest" d="M91.61,82.96c-4.3,0.88-8.84,0.88-13.14,0c-4.33-0.88-12.83-5.29-12.83-5.29s-7.42-23.26-8.75-30.06 c-1.06-5.39-1.42-14.37-1.42-14.37l-12.73,8.52l-2.71-1.15c0,0,7.62-16.73,12.62-21.57c4.53-4.39,17.42-7.5,17.42-7.5 s5.68,6.2,14.97,6.25c8.84,0.04,14.97-6.25,14.97-6.25s12.89,3.12,17.42,7.5c5.01,4.85,12.62,21.57,12.62,21.57l-2.71,1.15 l-12.73-8.52c0,0-0.36,8.98-1.42,14.37c-1.33,6.79-8.76,30.06-8.76,30.06S95.93,82.08,91.61,82.96z" fill="rgb(40, 40, 40)"/>
<g id="SuitDecals" mask="url(#SuitMask)">
</g>
<g class="swappable" id="Chest"><g id="Chest_Galaxy">
<g id="Abdomen_Galaxy">
<path id="Abdomen-Plate_Galaxy" d="M78.22,70.87l-2.02,1.46l-10.28-1.46l-0.75-5.65l4.87-0.1l2.95-4.79l1.34-4.41 l10.66-9.7L85,46.24l0.02-0.02l10.66,9.7l1.34,4.41l2.95,4.79l4.87,0.1l-0.75,5.65L93.8,72.33l-2.02-1.46H78.22z" fill="rgb(0, 133, 255)"/>
<path id="Trauma-Plate_Abdomen_Galaxy" class="toggle" style="" d="M84.98,48.45l-9.21,8.38l-1.27,4.18l-3.53,5.74l-3.92,0.08 l0.34,2.59l8.37,1.19l1.91-1.38h14.64l1.91,1.38l8.37-1.19l0.34-2.59l-3.92-0.08l-3.53-5.74l-1.27-4.18l-9.21-8.38L85,48.47 L84.98,48.45z" fill="rgb(0, 0, 0)"/>
</g>
<g id="Full-Chest_Galaxy">
<path id="Chest-Plate_Galaxy" d="M80.72,32.14l-0.02,9.88l3.12,3.14L72.88,55.48l-1.42,4.76l-2.32,3.79h-4.01 l-1.95-2.83L60.7,47.37l-3.63-5.65l4.61-14.81l5.31-0.67l0.75-3.27l5.69-0.69l1.8,2.92h19.57l1.8-2.92l5.69,0.69l0.75,3.27 l5.31,0.67l4.61,14.81l-3.63,5.65l-2.48,13.84l-1.95,2.83h-4.01l-2.32-3.79l-1.42-4.76L86.18,45.16l3.12-3.14l-0.02-9.88 L85,28.83L80.72,32.14z" fill="rgb(0, 133, 255)"/>
<path id="Trauma-Plating_Left-Chest_Galaxy" class="toggle" style="" d="M95.71,26.84H85.12l5.81,4.5l0.02,11.36l-2.42,2.42 l10.04,9.47l1.49,4.98l1.73,2.82H104l1.25-1.82l2.47-13.81l3.4-5.29l-4.06-13.06l-5.4-0.68l-0.75-3.27l-3.48-0.42L95.71,26.84z" fill="rgb(0, 0, 0)"/>
<path id="Trauma-Plating_Right-Chest_Galaxy" class="toggle" style="" d="M72.56,24.04l-3.48,0.42l-0.75,3.27l-5.4,0.68 l-4.07,13.06l3.4,5.29l2.47,13.81L66,62.39h2.21l1.73-2.82l1.49-4.98l10.04-9.47l-2.42-2.42l0.02-11.36l5.81-4.5H74.29 L72.56,24.04z" fill="rgb(0, 0, 0)"/>
<g id="Accents_Chest-Plate_Galaxy" class="toggle" fill="rgb(255, 255, 255)">
<rect x="95.82" y="30" width="9.01" height="1.19"/>
<rect x="95.82" y="32.1" width="9.01" height="1.19"/>
</g>
</g>
<g id="Iron-Heart_Galaxy">
<path id="Heart_Galaxy" d="M82.38,41.74v-8.89L85,30.8l2.62,2.05v8.89L85,44.38L82.38,41.74z" fill="rgb(0, 0, 0)"/><rect id="Center_Heart_Galaxy" class="option" x="84.09" y="34.21" width="1.82" height="6.09" fill="rgb(0, 133, 255)" style="display: inherit;"/>
</g>
<g id="Neck-Armor_Galaxy">
<g id="Neck-Plate_Galaxy" fill="rgb(0, 133, 255)">
<path d="M82.81,24.23l-7.2,0.12l-1.77-2.89l-6.87,0.81l-0.68,2.99l-4.4,0.54l-3.24-11.12l11.25-3.35 c0,0,1.49,2.51,2.57,3.39c1.11,0.91,2.59,1.97,3.98,2.57c1.52,0.66,3.37,1.1,5.13,1.39c0.18,0.03,0.37,0.06,0.57,0.08 L82.81,24.23z"/>
<path d="M87.19,24.23l7.2,0.12l1.77-2.89l6.87,0.81l0.68,2.99l4.4,0.54l3.25-11.12l-11.25-3.35 c0,0-1.49,2.51-2.57,3.39c-1.11,0.91-2.59,1.97-3.98,2.57c-1.52,0.66-3.37,1.1-5.13,1.39c-0.18,0.03-0.37,0.06-0.57,0.08 L87.19,24.23z"/>
</g>
<g id="Trauma-Plates_Neck_Galaxy" class="toggle" style="" fill="rgb(0, 0, 0)">
<path d="M100.82,13.27c-0.61,0.91-1.51,2.14-2.24,2.73c-1.21,0.99-2.84,2.15-4.36,2.81 c-1.45,0.63-3.18,1.08-4.87,1.39l-0.3,2.42l4.42,0.07l1.83-2.99l9.08,1.08l0.68,3l1.85,0.23l2.4-8.21L100.82,13.27z"/>
<path d="M69.18,13.27l-8.49,2.53l2.4,8.21l1.85-0.23l0.68-3l9.08-1.08l1.83,2.99l4.42-0.07l-0.3-2.42 c-1.7-0.31-3.42-0.76-4.87-1.39c-1.52-0.66-3.15-1.82-4.36-2.81C70.69,15.4,69.79,14.17,69.18,13.27z"/>
</g>
</g>
</g></g>
<g id="ChestDecals" mask="url(#ChestMask)">
</g>
<g id="Chest-Attachments"><g id="Bandoleer_Accessories_Chest" class="option" style="display: inherit;">
<g id="Strap_Bandoleer_Accessories_Chest" fill="rgb(139, 87, 42)">
<path d="M113.84,15.17L107,11.85L69.01,80.32l6.86,3.76L113.84,15.17"/>
<path d="M111.97,13.92l-2.6-1.21l-8.66,15.61l2.51,1.37L111.97,13.92"/>
<path d="M99.7,36.44l-2.86-1.57l-13.31,24l2.87,1.57L99.7,36.44"/>
<path d="M99.98,37.35l-4.07-2.23l-1.33,2.4l4.07,2.23L99.98,37.35"/>
<path d="M98.36,40.26l-4.07-2.23l-1.33,2.41l4.07,2.23L98.36,40.26"/>
<path d="M96.75,43.17l-4.07-2.23l-1.33,2.4l4.07,2.23L96.75,43.17"/>
<path d="M95.13,46.09l-4.07-2.23l-1.33,2.4l4.07,2.23L95.13,46.09"/>
<path d="M93.52,49l-4.07-2.23l-1.33,2.4l4.07,2.23L93.52,49"/>
<path d="M90.28,54.82l-4.07-2.23L84.88,55l4.07,2.23L90.28,54.82"/>
<path d="M91.9,51.91l-4.07-2.23l-1.33,2.4l4.07,2.23L91.9,51.91"/>
<path d="M88.67,57.74l-4.07-2.23l-1.33,2.4l4.07,2.23L88.67,57.74"/>
</g>
<g id="Ammo_Bandoleer_Accessories_Chest" fill="rgb(0, 0, 0)">
<g>
<g>
<path d="M99.83,37.6l1.67,0.91c0.18,0.1,0.24,0.32,0.14,0.5c-0.19,0.34-0.49,0.89-0.68,1.23 c-0.1,0.18-0.32,0.24-0.5,0.14l-1.67-0.91L99.83,37.6z"/>
<path d="M101.06,38.27l-0.14-0.08l-1.04,1.87l0.14,0.08L101.06,38.27z"/>
<path d="M100.77,38.11l-0.14-0.08l-1.04,1.87l0.14,0.08L100.77,38.11z"/>
</g>
<g>
<path d="M95.77,35.37l-1.04,1.87l-1.67-0.91c-0.18-0.1-0.24-0.32-0.14-0.5c0.19-0.34,0.49-0.89,0.68-1.23 c0.1-0.18,0.32-0.24,0.5-0.14L95.77,35.37z"/>
<path d="M94.51,34.68l-0.14-0.08l-1.04,1.87l0.14,0.08L94.51,34.68z"/>
</g>
</g>
<g>
<g>
<path d="M96.6,43.45l1.67,0.91c0.18,0.1,0.24,0.32,0.14,0.5c-0.19,0.34-0.49,0.89-0.68,1.23 c-0.1,0.18-0.32,0.24-0.5,0.14l-1.67-0.91L96.6,43.45z"/>
<path d="M97.82,44.12l-0.14-0.08l-1.04,1.87l0.14,0.08L97.82,44.12z"/>
<path d="M97.53,43.96l-0.14-0.08l-1.04,1.87l0.14,0.08L97.53,43.96z"/>
</g>
<g>
<path d="M92.53,41.22l-1.04,1.87l-1.67-0.91c-0.18-0.1-0.24-0.32-0.14-0.5c0.19-0.34,0.49-0.89,0.68-1.23 c0.1-0.18,0.32-0.24,0.5-0.14L92.53,41.22z"/>
<path d="M91.27,40.53l-0.14-0.08l-1.04,1.87l0.14,0.08L91.27,40.53z"/>
</g>
</g>
<g>
<g>
<path d="M94.99,46.34l1.67,0.91c0.18,0.1,0.24,0.32,0.14,0.5c-0.19,0.34-0.49,0.89-0.68,1.23 c-0.1,0.18-0.32,0.24-0.5,0.14l-1.67-0.91L94.99,46.34z"/>
<path d="M96.21,47.02l-0.14-0.08l-1.04,1.87l0.14,0.08L96.21,47.02z"/>
<path d="M95.92,46.86l-0.14-0.08l-1.04,1.87l0.14,0.08L95.92,46.86z"/>
</g>
<g>
<path d="M90.92,44.11l-1.04,1.87l-1.67-0.91c-0.18-0.1-0.24-0.32-0.14-0.5c0.19-0.34,0.49-0.89,0.68-1.23 c0.1-0.18,0.32-0.24,0.5-0.14L90.92,44.11z"/>
<path d="M89.66,43.42l-0.14-0.08l-1.04,1.87l0.14,0.08L89.66,43.42z"/>
</g>
</g>
<g>
<g>
<path d="M93.36,49.27l1.67,0.91c0.18,0.1,0.24,0.32,0.14,0.5c-0.19,0.34-0.49,0.89-0.68,1.23 c-0.1,0.18-0.32,0.24-0.5,0.14l-1.67-0.91L93.36,49.27z"/>
<path d="M94.59,49.95l-0.14-0.08l-1.04,1.87l0.14,0.08L94.59,49.95z"/>
<path d="M94.3,49.79l-0.14-0.08l-1.04,1.87l0.14,0.08L94.3,49.79z"/>
</g>
<g>
<path d="M89.3,47.04l-1.04,1.87L86.59,48c-0.18-0.1-0.24-0.32-0.15-0.5c0.19-0.34,0.49-0.89,0.68-1.23 c0.1-0.18,0.32-0.24,0.5-0.14L89.3,47.04z"/>
<path d="M88.04,46.35l-0.14-0.08l-1.04,1.87L87,48.22L88.04,46.35z"/>
</g>
</g>
</g>
<g id="Buckles_Bandoleer_Accessories_Chest" fill="rgb(0, 133, 255)">
<g>
<path d="M104.43,28.05l-2.99-1.64l-1.69,3.05l2.99,1.64L104.43,28.05z"/>
<path d="M103.67,28.57l-2.26-1.24l-1.69,3.05l2.26,1.24L103.67,28.57z"/>
</g>
<path d="M104.44,24.49l-1.93-1.05l1.67-3.03l3.9,2.13l-1.67,3.03L104.44,24.49l0.38-0.68l1.1,0.6l0.92-1.67 l-2.15-1.17l-0.92,1.67l1.05,0.58"/>
</g>
</g></g>
<g id="Collar"><g id="Cloth-Wrap-Right_Collar" class="option" style="display: inherit;">
<g id="Main_Cloth-Wrap-Right_Collar" fill="rgb(0, 0, 0)">
<path d="M95.41,21.42c4.65-1.45,5.5-3.78,5.78-6.13c0.11-0.96-1.26-3.46,0.16-4.1c1.61-0.73,5.4,0.41,6.97,0.75 c1.16,0.25,2.19,1.42,3.38,1.43c2.74,0.03,4.91,3,5.16,4.36c0.35,1.9-3.04,0.56-4.62,2c-3.96,3.61-5.34,8.5-13.67,9.83 c-3.82,0.61-7.61-0.25-11.16-1.04c-9.17-2.03-14.17-3.78-20.06-8.31c-2.58-1.98-6.47-3.59-6.37-6.24c0-0.11,1.88-1.22,2.06-1.27 c1.65-0.41,3.06-1.09,4.88-1.12c1.09-0.02,0.91,0.91,0.99,1.34c0.31,1.62,1.79,2.84,3.66,4.05 C77.47,20.18,88.67,21.17,95.41,21.42z"/>
<path d="M95.41,21.42c1.23,0.05,2.31,0.24,3.25,0.29c4.26,0.26,5.78-0.77,6.6-2.66"/>
<path d="M108.64,11.99c1.23,1.99,1.07,4.34,0.09,5.89"/>
<path d="M72.93,17.68c3.19,4.34,7.92,5.71,13.09,6.23"/>
<path d="M64.3,12.34c0.19,1.1,0.85,1.51,1.66,2.24c0.47,0.43,1.04,0.73,1.41,1.25c0.14,0.19,0.21,0.41,0.29,0.62"/>
</g>
<path id="Buckle_Cloth-Wrap-Right_Collar" d="M74.02,16.86l-2.71-1.93l-4.71,6.53l2.71,1.93L74.02,16.86z" fill="rgb(0, 133, 255)"/>
</g></g>
<g id="CollarDecals" mask="url(#CollarMask)">
</g>
<g id="Helmets" class="swappable" transform="translate(45,-52)"><g id="Helmet_Classic">
<g id="Left-Earcap_Classic" class="toggle"><path id="Ear-Cap_Left_Classic" d="M60.03,57.18l1.74-2.57l-1.74-17.81l-2.43-1.53L60.03,57.18z" fill="rgb(0, 133, 255)"/>
</g>
<g id="Right-Earcap_Classic" class="toggle"><g id="Range-Finder_Right_Classic" class="option" style="display: inherit;">
<path id="Shaft_Right_Range-Finder_Classic" d="M22.48,9.72l1.08,0.07l-1.61,26.85h-1.1L22.48,9.72z" fill="rgb(0, 0, 0)"/>
<path id="Finder_Right_Range-Finder_Classic" d="M30.81,7.55h-5.96l0.24-0.74l6.96-0.65L30.81,7.55" fill="rgb(0, 0, 0)"/>
<g id="Cover_Right_Range-Finder_Classic" fill="rgb(0, 133, 255)">
<path d="M21.62,8.59l2.84,0.19l0.63-1.96l7.48-0.7l0.15-0.76l-10.68-0.4L21,6.27L21.62,8.59"/>
<path d="M22.38,8.64l1.41,0.09L23.72,9.8l-1.4-0.09L22.38,8.64"/>
</g>
</g>
<path id="Ear-Cap_Right_Classic" d="M19.97,57.18l-1.74-2.57l1.74-17.81l2.43-1.53L19.97,57.18z" fill="rgb(0, 133, 255)"/>
</g>
<g id="Helmet_Pieces_Classic">
<g id="Face_Classic" fill="rgb(0, 0, 0)">
<path d="M22.24,58.73c0,0,0.61-4.18,1.53-6.26c0.94-2.11,2.73-4.44,4.76-4.08c1.62,0.29,4.83,7.93,5.07,17.33 C33.44,65.57,22.24,58.73,22.24,58.73z"/>
<path d="M57.74,58.73c0,0-0.61-4.18-1.53-6.26c-0.94-2.11-2.73-4.44-4.76-4.08c-1.62,0.29-4.84,7.93-5.07,17.33 C46.53,65.57,57.74,58.73,57.74,58.73z"/>
</g>
<g id="Cheeks_Classic" fill="rgb(0, 0, 0)">
<path d="M22.24,58.73v0.1l-2.44-0.19l1.76-16.29c0.61,0.19,5.65,1.77,7.36,3.35c1.82,1.69,3.01,4.31,3.59,6.77 c0.63,2.68,0.95,9.62,1.05,12.23c-0.43-8.92-3.47-16.03-5.03-16.31c-2.03-0.36-3.82,1.97-4.76,4.08 C22.85,54.55,22.24,58.73,22.24,58.73z"/>
<path d="M46.42,64.7c0.1-2.61,0.43-9.55,1.06-12.23c0.58-2.46,1.77-5.08,3.59-6.77c1.68-1.57,6.63-3.12,7.36-3.35 l1.76,16.28l-2.44,0.19v-0.1c0,0-0.61-4.18-1.53-6.26c-0.94-2.11-2.73-4.44-4.76-4.08C49.88,48.67,46.85,55.78,46.42,64.7z"/>
</g>
<path id="Eyes_Classic" d="M46.38,65.72H33.6c0,0-0.31-9.91-1.09-13.25c-0.58-2.46-1.77-5.08-3.59-6.77 c-1.82-1.69-7.33-3.37-7.33-3.37l0.65-6.29c0,0,5.69,0.74,8.55,0.92c2.69,0.17,8.13,0.21,9.2,0.22c1.07-0.01,6.51-0.05,9.2-0.22 c2.86-0.18,8.55-0.92,8.55-0.92l0.65,6.29c0,0-5.51,1.68-7.33,3.37c-1.82,1.69-3.01,4.31-3.59,6.77 C46.69,55.8,46.38,65.7,46.38,65.72z" fill="rgb(0, 133, 255)"/>
<g fill="#000000" id="Visors_Classic"><path fill="rgb(6, 254, 243)" id="Basic_Visor_Classic" class="option" d="M43.42,65.72h-6.87V42.33c0,0-3.82-0.35-5.67-0.78 c-2.26-0.52-7.89-2.33-7.89-2.33l0.08-1.31c0,0,5.19,0.89,7.81,1.17c2.57,0.27,6.07,0.65,9.11,0.65s6.54-0.37,9.11-0.65 c2.62-0.28,7.81-1.17,7.81-1.17l0.08,1.31c0,0-5.63,1.81-7.89,2.33c-1.86,0.42-5.67,0.78-5.67,0.78V65.72z" style="display: inherit;"/>
</g>
<path id="Dome_Classic" d="M22.24,36.05l0-0.01v-0.11c0.06-9.27,7.88-16.81,17.57-17v0h0.12l0.07,0l0.07,0h0.12v0 c9.69,0.19,17.5,7.72,17.56,17v0.11l0,0.01c-0.75,0.1-5.9,0.74-8.55,0.91c-2.69,0.17-8.13,0.21-9.2,0.22 c-1.07-0.01-6.51-0.05-9.2-0.22C28.14,36.79,22.99,36.15,22.24,36.05z" fill="rgb(0, 0, 0)"/>
</g>
</g></g>
<g id="HelmetsDecals" mask="url(#HelmetsMask)"/>
<g id="Shoulders">
<g id="Left-Shoulder"><g id="Legacy-x3_Shoulder_Left" class="option" style="display: inherit;">
<path id="Plate-3_Shoulder_Left_Legacy-x3" d="M117.06,20.06l-7.61,7.75l4.46,9.61l10.03-0.53l5.31,4.84l4.73-0.33 L117.06,20.06z" fill="rgb(0, 133, 255)"/>
<path id="Trauma-Plate-3_Shoulder_Legacy-x3_Left" class="toggle" style="" d="M129.88,39.93l3.05-0.21l-14.58-18.47l-6.8,6.92 l3.45,7.43l9.24-0.57L129.88,39.93z" fill="rgb(0, 0, 0)"/>
<path id="Plate-2_Shoulder_Left_Legacy-x3" d="M112.95,15.27l-6.03,9.03l6.18,8.61l9.75-2.38l6.12,3.77l4.58-1.2 L112.95,15.27z" fill="rgb(0, 133, 255)"/>
<path id="Trauma-Plate-2_Shoulder_Legacy-x3_Left" class="toggle" style="" d="M129.25,32.41l2.96-0.77l-17.76-15.47l-5.39,8.05 l4.77,6.67l8.97-2.26L129.25,32.41z" fill="rgb(0, 0, 0)"/>
<path id="Plate-1_Shoulder_Left_Legacy-x3" d="M105.53,10.64l-2.71,10.49l8.68,6.12l8.43-5.43l7.03,1.57l3.93-2.63 L105.53,10.64z" fill="rgb(0, 133, 255)"/>
<path id="Trauma-Plate-1_Shoulder_Legacy-x3_Left" class="toggle" style="" d="M126.6,21.52l2.54-1.7l-21.9-8.79l-2.42,9.37 l6.72,4.74l7.72-5.07L126.6,21.52z" fill="rgb(0, 0, 0)"/>
</g></g>
<g id="Right-Shoulder"><g id="Legacy-x3_Shoulder_Right" class="option" style="display: inherit;">
<path id="Plate-3_Shoulder_Right_Legacy-x3" d="M53.01,20.06l7.61,7.75l-4.46,9.61L46.13,36.9l-5.31,4.84 l-4.72-0.33L53.01,20.06z" fill="rgb(0, 133, 255)"/>
<path id="Trauma-Plate-3_Shoulder_Legacy-x3_Right" class="toggle" style="" d="M40.19,39.93l-3.05-0.21l14.58-18.47l6.8,6.92 l-3.45,7.43l-9.24-0.57L40.19,39.93z" fill="rgb(0, 0, 0)"/>
<path id="Plate-2_Shoulder_Right_Legacy-x3" d="M57.12,15.27l6.03,9.03l-6.18,8.61l-9.75-2.38l-6.12,3.77 l-4.58-1.2L57.12,15.27z" fill="rgb(0, 133, 255)"/>
<path id="Trauma-Plate-2_Shoulder_Legacy-x3_Right" class="toggle" style="" d="M40.82,32.41l-2.96-0.77l17.76-15.47l5.39,8.05 l-4.77,6.67l-8.97-2.26L40.82,32.41z" fill="rgb(0, 0, 0)"/>
<path id="Plate-1_Shoulder_Right_Legacy-x3" d="M64.54,10.64l2.71,10.49l-8.68,6.12l-8.43-5.43l-7.03,1.57 l-3.93-2.63L64.54,10.64z" fill="rgb(0, 133, 255)"/>
<path id="Trauma-Plate-1_Shoulder_Legacy-x3_Right" class="toggle" style="" d="M43.46,21.52l-2.54-1.7l21.9-8.79l2.42,9.37 l-6.72,4.74l-7.72-5.07L43.46,21.52z" fill="rgb(0, 0, 0)"/>
</g></g>
</g>
<g id="ShouldersDecals" mask="url(#ShouldersMask)">
</g>
<g id="Gauntlets">
<g id="Left-Gauntlets"><g id="Heavy_Gauntlet_Left" class="option" style="display: inherit;">
<g id="Top-2_Heavy_Gauntlet_Left" fill="rgb(0, 0, 0)">
<path d="M138.59,76.62l1.79,0.28l0.78,8.51l-1.63,1.15L138.59,76.62z"/>
<path d="M139.46,85.82l0.98,11.09l-1.1,1.25l0.62,6.53l-0.49,0.3l-1.72-17.87L139.46,85.82z"/>
<path d="M139.73,82.71c0.22,0.02,0.38,0.21,0.36,0.42c-0.02,0.21-0.21,0.37-0.42,0.36 c-0.22-0.02-0.38-0.21-0.36-0.42C139.33,82.85,139.52,82.69,139.73,82.71z"/>
</g>
<g id="Top-1_Heavy_Gauntlet_Left" fill="rgb(0, 133, 255)">
<path d="M134.86,105.83l4.61-0.85l-1.72-17.87l1.71-1.29l-0.92-9.74l-6.76-1.25L134.86,105.83z"/>
<path d="M136.79,75.76l0.96,11.35"/>
</g>
<g id="Accent-Top_Heavy_Gauntlet_Left" fill="rgb(0, 133, 255)">
<path d="M138.4,102.17l-2.92,0.35l0.25,2.26l2.93-0.44L138.4,102.17z"/>
<path d="M137.36,92.7l-2.92,0.35l0.96,8.83l2.92-0.35L137.36,92.7z"/>
<path d="M136.12,76.34l-3.22-0.51l0.91,9.67l3.06-0.36L136.12,76.34z"/>
</g>
<path id="Bottom_Heavy_Gauntlet_Left" d="M131.82,75.29c-3.5-0.15-7.25,1.05-9.76,3.79 c-0.81,0.89-1.14,2.11-0.88,3.29c1.24,5.67,5.3,24.23,5.3,24.23l8.38-0.76L131.82,75.29z" fill="rgb(0, 0, 0)"/>
<g id="Accent-Bottom_Heavy_Gauntlet_Left" fill="rgb(0, 133, 255)">
<path d="M134.86,105.83l-8.38,0.76l-0.33-1.5l8.54-0.89L134.86,105.83z"/>
<path d="M132.02,77.36c-4.54,0.08-8.44,1.41-10.6,6.11l-0.24-1.11c-0.2-0.92-0.04-1.88,0.43-2.68l0.48-0.64 c2.51-2.72,6.24-3.91,9.72-3.75L132.02,77.36z"/>
<path d="M130.96,75.89l-3.7,0.42l1.68,14.61l3.7-0.42L130.96,75.89z"/>
<path d="M130.51,76.22l-2.73,0.31l1.55,13.51l2.73-0.31L130.51,76.22z"/>
<path d="M127.78,76.53l-0.52-0.22"/>
<path d="M130.96,75.89l-0.46,0.33"/>
<path d="M132.64,90.5l-0.58-0.77"/>
<path d="M128.95,90.92l0.46-0.89"/>
</g><g id="No-Device_Attachment_Heavy_Gauntlet_Left" class="option" style="display: inherit;">
</g>
</g></g>
<g id="Right-Gauntlets"><g id="Heavy_Gauntlet_Right" class="option" style="display: inherit;">
<g id="Top-2_Heavy_Gauntlet_Right" fill="rgb(0, 0, 0)">
<path d="M31.48,76.62l-1.79,0.28l-0.78,8.51l1.63,1.15L31.48,76.62z"/>
<path d="M30.61,85.82l-0.98,11.09l1.1,1.25l-0.62,6.53l0.49,0.3l1.72-17.87L30.61,85.82z"/>
<path d="M30.33,82.71c-0.22,0.02-0.38,0.21-0.36,0.42c0.02,0.21,0.21,0.37,0.42,0.36c0.22-0.02,0.38-0.21,0.36-0.42 C30.74,82.85,30.55,82.69,30.33,82.71z"/>
</g>
<g id="Top-1_Heavy_Gauntlet_Right" fill="rgb(0, 133, 255)">
<path d="M35.21,105.83l-4.61-0.85l1.72-17.87l-1.71-1.29l0.92-9.74l6.77-1.25L35.21,105.83z"/>
<path d="M33.28,75.76l-0.96,11.35"/>
</g>
<g id="Accent-Top_Heavy_Gauntlet_Right" fill="rgb(0, 133, 255)">
<path d="M31.67,102.17l2.92,0.35l-0.25,2.26l-2.93-0.44L31.67,102.17z"/>
<path d="M32.71,92.7l2.92,0.35l-0.96,8.83l-2.92-0.35L32.71,92.7z"/>
<path d="M33.94,76.34l3.22-0.51l-0.91,9.67l-3.06-0.36L33.94,76.34z"/>
</g>
<path id="Bottom_Heavy_Gauntlet_Right" d="M38.25,75.29c3.5-0.15,7.25,1.05,9.76,3.79 c0.81,0.89,1.14,2.11,0.88,3.29c-1.24,5.67-5.3,24.23-5.3,24.23l-8.38-0.76L38.25,75.29z" fill="rgb(0, 0, 0)"/>
<g id="Accent-Bottom_Heavy_Gauntlet_Right" fill="rgb(0, 133, 255)">
<path d="M35.21,105.83l8.38,0.76l0.33-1.5l-8.54-0.89L35.21,105.83z"/>
<path d="M38.04,77.36c4.54,0.08,8.44,1.41,10.6,6.11l0.24-1.11c0.2-0.92,0.04-1.88-0.43-2.68l-0.48-0.64 c-2.51-2.72-6.24-3.91-9.72-3.75L38.04,77.36z"/>
<path d="M39.1,75.89l3.7,0.42l-1.68,14.61l-3.7-0.42L39.1,75.89z"/>
<path d="M39.56,76.22l2.73,0.31l-1.55,13.51L38,89.73L39.56,76.22z"/>
<path d="M42.28,76.53l0.52-0.22"/>
<path d="M39.1,75.89l0.46,0.33"/>
<path d="M37.42,90.5L38,89.73"/>
<path d="M41.12,90.92l-0.46-0.89"/>
</g><g id="No-Device_Attachment_Heavy_Gauntlet_Right" class="option" style="display: inherit;">
</g>
</g></g>
</g>
<g id="GauntletsDecals" mask="url(#GauntletsMask)">
</g>
<g id="Shins">
<g id="Left-Shin"><g id="Legacy_Shin_Left" class="option" style="display: inherit;">
<path id="Plate-3_Legacy-Shin_Left" d="M105.29,198.57l3.46,16.16c0,0,5.05,1.25,7.82,1.07 c2.77-0.19,6.52-1.47,6.52-1.47l-0.74-17.24l-7.58,4.18L105.29,198.57" fill="rgb(0, 133, 255)"/>
<path id="Plate-2_Legacy-Shin_Left" d="M102.6,188.57l2,9.8l10.17,2.89l8.24-4.54l-0.3-9.81l-9.21,4.15 L102.6,188.57" fill="rgb(0, 133, 255)"/>
<path id="Plate-1_Legacy-Shin_Left" d="M107.02,175.14l-6.55,6.46l1.42,6.81l11.61,2.66l9.85-4.44l-0.22-8.3 l-7.38-4L107.02,175.14" fill="rgb(0, 133, 255)"/>
<path id="Trauma-Plate-3_Legacy-Shin_Left" class="toggle" style="" d="M120.72,199.99l-5.09,2.8c-0.41,0.23-0.89,0.28-1.34,0.15 l-6.66-1.89l2.62,12.22c1.54,0.34,4.4,0.89,6.21,0.77c1.61-0.11,3.57-0.62,4.82-0.99L120.72,199.99" fill="rgb(0, 0, 0)"/>
<path id="Trauma-Plate-2_Legacy-Shin_Left" class="toggle" style="" d="M121.03,189.6l-6.8,3.06c-0.35,0.16-0.75,0.2-1.12,0.11 l-8.23-1.88l1.24,6.09l8.44,2.4l6.66-3.67L121.03,189.6" fill="rgb(0, 0, 0)"/>
<path id="Trauma-Plate-1_Legacy-Shin_Left" class="toggle" style="" d="M107.82,176.82l-5.42,5.35l1,4.77l9.92,2.27l8.24-3.71 l-0.17-6.13l-6.01-3.26L107.82,176.82" fill="rgb(0, 0, 0)"/>
<g id="Ridge_Legacy-Shin_Left" class="toggle" style="" fill="rgb(0, 133, 255)">
<path d="M114.18,215.77l0.61,0.06c-0.33-0.01-0.65-0.04-0.97-0.1L114.18,215.77"/>
<path d="M116.77,189.65l0.68,10.2l-2.68,1.48l-3.68-1.04l-1.63-10.08l4.04,0.92L116.77,189.65"/>
<path d="M117.45,199.85l1.05,15.69c-1.19,0.18-2.48,0.34-3.7,0.28l-0.61-0.06l-0.35-0.04l-0.23-0.03l-2.5-15.41 l3.68,1.04L117.45,199.85"/>
<path d="M107.03,175.19l-0.01-0.05l4.25-1.46l4.48,0.64l0,0.06l-0.01,0l-0.02,0l0.02,0l0.01,0l1.02,15.26 l-3.27,1.47l-4.04-0.92L107.03,175.19"/>
<path d="M111.27,173.68l2.23,17.44"/>
<path d="M113.5,191.12l1.27,10.2"/>
<path d="M114.77,201.32l1.64,14.47"/>
</g>
</g></g>
<g id="Right-Shin"><g id="Legacy_Shin_Right" class="option" style="display: inherit;">
<path id="Plate-3_Legacy-Shin_Right" d="M64.71,198.57l-3.46,16.16c0,0-5.05,1.25-7.82,1.07 c-2.77-0.19-6.52-1.47-6.52-1.47l0.74-17.24l7.58,4.18L64.71,198.57" fill="rgb(0, 133, 255)"/>
<path id="Plate-2_Legacy-Shin_Right" d="M67.4,188.57l-2,9.8l-10.17,2.89l-8.24-4.54l0.3-9.81l9.21,4.15 L67.4,188.57" fill="rgb(0, 133, 255)"/>
<path id="Plate-1_Legacy-Shin_Right" d="M62.98,175.14l6.55,6.46l-1.42,6.81l-11.61,2.66l-9.85-4.44l0.22-8.31 l7.38-4L62.98,175.14" fill="rgb(0, 133, 255)"/>
<path id="Trauma-Plate-3_Legacy-Shin_Right" class="toggle" style="" d="M49.28,199.99l5.09,2.8c0.41,0.23,0.89,0.28,1.34,0.15 l6.66-1.89l-2.62,12.22c-1.54,0.34-4.4,0.89-6.21,0.77c-1.61-0.11-3.57-0.62-4.82-0.99L49.28,199.99" fill="rgb(0, 0, 0)"/>
<path id="Trauma-Plate-2_Legacy-Shin_Right" class="toggle" style="" d="M48.97,189.6l6.8,3.06c0.35,0.16,0.75,0.2,1.12,0.11 l8.23-1.88l-1.24,6.09l-8.44,2.4l-6.66-3.67L48.97,189.6" fill="rgb(0, 0, 0)"/>
<path id="Trauma-Plate-1_Legacy-Shin_Right" class="toggle" style="" d="M62.19,176.82l5.42,5.35l-1,4.77l-9.92,2.27l-8.24-3.71 l0.17-6.13l6.01-3.26L62.19,176.82" fill="rgb(0, 0, 0)"/>
<g id="Ridge_Legacy-Shin_Right" class="toggle" style="" fill="rgb(0, 133, 255)">
<path d="M55.82,215.77l-0.61,0.06c0.33-0.01,0.65-0.04,0.97-0.1L55.82,215.77"/>
<path d="M53.23,189.65l-0.68,10.2l2.68,1.48l3.68-1.04l1.63-10.08l-4.04,0.92L53.23,189.65"/>
<path d="M52.55,199.85l-1.05,15.69c1.19,0.18,2.48,0.34,3.7,0.28l0.61-0.06l0.35-0.04l0.24-0.03l2.5-15.41 l-3.68,1.04L52.55,199.85"/>
<path d="M62.97,175.19l0.01-0.06l-4.25-1.46l-4.48,0.64l0,0.06l0.01,0l0.02,0l-0.02,0l-0.01,0l-1.02,15.26 l3.27,1.47l4.04-0.92L62.97,175.19"/>
<path d="M58.73,173.68l-2.23,17.44"/>
<path d="M56.5,191.12l-1.27,10.2"/>
<path d="M55.23,201.32l-1.64,14.47"/>
</g>
</g></g>
</g>
<g id="ShinsDecals" mask="url(#ShinsMask)">
</g>
<g id="Foot">
<g id="Left-Ankle"><g id="Legacy_Ankle_Left" class="option" style="display: inherit;">
<path id="Plate-2_Legacy-Ankle_Left" d="M124.5,223.42l3.77,3.39l2.6,3.25l-4.16,1.34l-9.52-1.97l-3.48-4.58 L124.5,223.42" fill="rgb(0, 133, 255)"/>
<path id="Plate-1_Legacy-Ankle_Left" d="M107.38,217.05c0,0,3.8,1.69,9.42,1.49c3.86-0.14,5.42-1.1,5.42-1.1 l3.27,6.02l-0.85,3.32l-13.76-1.08l-3.39-2.85L107.38,217.05" fill="rgb(0, 133, 255)"/>
<path id="Trauma-Plate-2_Legacy-Ankle_Left" class="toggle" style="" d="M125.31,224.15l2.94,2.64l1.52,1.89l-3.16,1.02 l-8.38-1.73l-1.38-1.81l7.79,0.61L125.31,224.15" fill="rgb(0, 0, 0)"/>
<path id="Trauma-Plate-1_Legacy-Ankle_Left" class="toggle" style="" d="M108.82,219.15l0.06,2.76l2.74,2.21l12.1,0.95l0.86-3.32 l-1.54-2.84c-1.02,0.29-4.12,1.18-6.16,1.26C113.64,220.28,110.62,219.62,108.82,219.15" fill="rgb(0, 0, 0)"/>
</g></g>
<g id="Left-Toe"><g id="None_Toe_Left" class="option" style="display: inherit;">
</g>
</g>
<g id="Right-Ankle"><g id="Legacy_Ankle_Right" class="option" style="display: inherit;">
<path id="Plate-2_Legacy-Ankle_Right" d="M45.56,223.42l-3.77,3.39l-2.6,3.25l4.16,1.34l9.52-1.97l3.48-4.58 L45.56,223.42" fill="rgb(0, 133, 255)"/>
<path id="Plate-1_Legacy-Ankle_Right" d="M62.68,217.05c0,0-3.8,1.69-9.42,1.49c-3.86-0.14-5.43-1.1-5.43-1.1 l-3.27,6.02l0.85,3.32l13.76-1.08l3.39-2.85L62.68,217.05" fill="rgb(0, 133, 255)"/>
<path id="Trauma-Plate-2_Legacy-Ankle_Right" class="toggle" style="" d="M44.75,224.15l-2.94,2.64l-1.52,1.89l3.16,1.02 l8.38-1.73l1.38-1.81l-7.79,0.61L44.75,224.15" fill="rgb(0, 0, 0)"/>
<path id="Trauma-Plate-1_Legacy-Ankle_Right" class="toggle" style="" d="M61.24,219.15l-0.06,2.76l-2.74,2.21l-12.1,0.95 l-0.86-3.32l1.54-2.84c1.02,0.29,4.12,1.18,6.16,1.26C56.42,220.28,59.44,219.62,61.24,219.15" fill="rgb(0, 0, 0)"/>
</g></g>
<g id="Right-Toe"><g id="None_Toe_Right" class="option" style="display: inherit;">
</g>
</g>
</g>
<g id="FootDecals" mask="url(#FootMask)">
</g>
<g id="Knees">
<g id="Left-Knee"><g id="Legacy_Knee_Left" class="option" style="display: inherit;">
<g id="Missiles_Legacy-Knee_Left" class="toggle" style="">
<path id="Base_Missiles_Legacy-Knee_Left" d="M120.02,157.02l0.18,10.1l2.43-1.37c0.39-0.22,0.64-0.64,0.64-1.09 c0-1.37,0.01-4.35,0.02-5.91c0-0.59-0.41-1.1-0.99-1.23L120.02,157.02z" fill="rgb(0, 133, 255)"/>
<g id="Missile-2_Missiles_Legacy-Knee_Left" fill="rgb(145, 145, 145)">
<path d="M121.56,162.83c-0.59,0.06-1.03,0.58-0.96,1.17c0.06,0.59,0.59,1.02,1.18,0.97 c0.59-0.06,1.02-0.58,0.96-1.17C122.68,163.2,122.15,162.77,121.56,162.83z"/>
<path d="M121.6,163.18c-0.4,0.04-0.69,0.39-0.65,0.79c0.04,0.4,0.4,0.69,0.8,0.65c0.4-0.04,0.69-0.39,0.65-0.79 C122.36,163.43,122,163.14,121.6,163.18z"/>
</g>
<g id="Missile-1_Missiles_Legacy-Knee_Left" fill="rgb(145, 145, 145)">
<path d="M121.54,158.17c-0.59,0.06-1.03,0.58-0.96,1.17c0.06,0.59,0.59,1.02,1.18,0.97 c0.59-0.06,1.03-0.58,0.97-1.17C122.66,158.54,122.13,158.11,121.54,158.17z"/>
<path d="M121.58,158.52c-0.4,0.04-0.69,0.39-0.65,0.79c0.04,0.4,0.4,0.69,0.8,0.65c0.4-0.04,0.69-0.39,0.65-0.79 C122.34,158.77,121.98,158.48,121.58,158.52z"/>
</g>
</g>
<path id="Plate-2_Legacy-Knee_Left" d="M118.59,162.91l-4.16-2.89l-9.31,1.44l-3.63,4.1l2.99,10.01h7.37l6.96-2.21 L118.59,162.91z" fill="rgb(0, 133, 255)"/>
<path id="Plate-1_Legacy-Knee_Left" d="M120,156.14l-5.34-3.71l-11.94,1.84l-4.65,5.25l3.83,12.83l9.72-0.09 l8.64-2.75L120,156.14z" fill="rgb(0, 0, 0)"/>
</g></g>
<g id="Right-Knee"><g id="Legacy_Knee_Right" class="option" style="display: inherit;">
<g id="Missiles_Legacy-Knee_Right" class="toggle" style="">
<path id="Base_Missiles_Legacy-Knee_Right" d="M49.98,157.02l-0.18,10.1l-2.43-1.37 c-0.39-0.22-0.64-0.64-0.64-1.09c0-1.37-0.01-4.35-0.02-5.91c0-0.59,0.41-1.1,0.99-1.23L49.98,157.02z" fill="rgb(0, 133, 255)"/>
<g id="Missile-2_Missiles_Legacy-Knee_Right" fill="rgb(145, 145, 145)">
<path d="M48.44,162.83c0.59,0.06,1.02,0.58,0.96,1.17c-0.06,0.59-0.59,1.02-1.19,0.97 c-0.59-0.06-1.02-0.58-0.96-1.17C47.32,163.2,47.85,162.77,48.44,162.83z"/>
<path d="M48.4,163.18c0.4,0.04,0.69,0.39,0.65,0.79c-0.04,0.4-0.4,0.69-0.8,0.65c-0.4-0.04-0.69-0.39-0.65-0.79 C47.64,163.43,48,163.14,48.4,163.18z"/>
</g>
<g id="Missile-1_Missiles_Legacy-Knee_Right" fill="rgb(145, 145, 145)">
<path d="M48.47,158.17c0.59,0.06,1.03,0.58,0.96,1.17c-0.06,0.59-0.59,1.02-1.19,0.97 c-0.59-0.06-1.03-0.58-0.97-1.17C47.34,158.54,47.87,158.11,48.47,158.17z"/>
<path d="M48.42,158.52c0.4,0.04,0.69,0.39,0.65,0.79c-0.04,0.4-0.4,0.69-0.8,0.65c-0.4-0.04-0.69-0.39-0.65-0.79 C47.66,158.77,48.02,158.48,48.42,158.52z"/>
</g>
</g>
<path id="Plate-2_Legacy-Knee_Right" d="M51.41,162.91l4.17-2.89l9.31,1.44l3.63,4.1l-2.99,10.01h-7.37l-6.96-2.21 L51.41,162.91z" fill="rgb(0, 133, 255)"/>
<path id="Plate-1_Legacy-Knee_Right" d="M50,156.14l5.34-3.71l11.94,1.84l4.65,5.25l-3.83,12.83l-9.72-0.09 l-8.64-2.75L50,156.14z" fill="rgb(0, 0, 0)"/>
</g></g>
</g>
<g id="KneesDecals" mask="url(#KneesMask)">
</g>
<g id="Thighs">
<g id="Left-Thigh"><g id="Legacy_Thigh_Left" class="option" style="display: inherit;">
<path id="Plate-3_Legacy-Thigh_Left" d="M96.37,139.98l1.9,11l10.72,1.66l8.66-3.76l0.42-11.24l-9.86,4.6 L96.37,139.98" fill="rgb(0, 133, 255)"/>
<path id="Plate-2_Legacy-Thigh_Left" d="M93.99,129.38l1.83,10.5l12.4,2.37l10.42-4.87l0.51-12.79l-11.78,7.48 L93.99,129.38" fill="rgb(0, 133, 255)"/>
<path id="Plate-1_Legacy-Thigh_Left" d="M120.27,114.15l-9.17-7.97l-12.25,2l-7.03,11.56l1.76,9.56l13.79,2.77 l12.32-7.82L120.27,114.15" fill="rgb(0, 133, 255)"/>
<path id="Trauma-Plate-3_Legacy-Thigh_Left" class="toggle" style="" d="M115.98,141.07l-7.04,3.29c-0.33,0.15-0.7,0.2-1.05,0.13 l-9.05-1.73l1.07,6.19l8.85,1.37l6.99-3.04L115.98,141.07" fill="rgb(0, 0, 0)"/>
<path id="Trauma-Plate-2_Legacy-Thigh_Left" class="toggle" style="" d="M117.03,128.52l-8.72,5.54 c-0.39,0.25-0.84,0.33-1.27,0.25l-10.56-2.12l0.99,5.7l10.52,2.01l8.75-4.09L117.03,128.52" fill="rgb(0, 0, 0)"/>
<path id="Trauma-Plate-1_Legacy-Thigh_Left" class="toggle" style="" d="M99.96,110.29l-6.05,9.95l1.31,7.08l11.81,2.37 l10.78-6.84l0.43-7.62l-7.67-6.67L99.96,110.29" fill="rgb(0, 0, 0)"/>
<g id="Ridge_Legacy-Thigh_Left" class="toggle" style="" fill="rgb(0, 133, 255)">
<path d="M110.27,130.23l0.48,10.84l-2.54,1.18l-3.26-0.62l-1.47-10.34l3.88,0.78L110.27,130.23"/>
<path d="M110.75,141.06l0.67,10.53l-2.43,1.05l-2.79-0.43l-1.25-10.59l3.26,0.62L110.75,141.06"/>
<path d="M103.49,131.29l-3.02-23.37l4.2-2.13l4.45,0.72l1.16,23.72l-2.9,1.84L103.49,131.29"/>
<path d="M104.67,105.78l2.7,26.29"/>
<path d="M107.37,132.07l0.85,10.18"/>
<path d="M108.21,142.25l0.78,10.4"/>
</g>
</g></g>
<g id="Right-Thigh"><g id="Legacy_Thigh_Right" class="option" style="display: inherit;">
<path id="Plate-3_Legacy-Thigh_Right" d="M73.63,139.98l-1.9,11l-10.72,1.66l-8.66-3.76l-0.42-11.24l9.86,4.6 L73.63,139.98" fill="rgb(0, 133, 255)"/>
<path id="Plate-2_Legacy-Thigh_Right" d="M76.01,129.38l-1.83,10.5l-12.4,2.37l-10.42-4.87l-0.51-12.79l11.78,7.48 L76.01,129.38" fill="rgb(0, 133, 255)"/>
<path id="Plate-1_Legacy-Thigh_Right" d="M49.73,114.15l9.17-7.97l12.25,2l7.03,11.56l-1.76,9.56l-13.79,2.77 l-12.32-7.82L49.73,114.15" fill="rgb(0, 133, 255)"/>
<path id="Trauma-Plate-3_Legacy-Thigh_Right" class="toggle" style="" d="M54.02,141.07l7.03,3.29c0.33,0.15,0.7,0.2,1.05,0.13 l9.05-1.73l-1.07,6.19l-8.85,1.37l-6.99-3.04L54.02,141.07" fill="rgb(0, 0, 0)"/>
<path id="Trauma-Plate-2_Legacy-Thigh_Right" class="toggle" style="" d="M52.97,128.52l8.72,5.54c0.39,0.25,0.84,0.33,1.28,0.25 l10.56-2.12l-0.99,5.7l-10.52,2.01l-8.75-4.09L52.97,128.52" fill="rgb(0, 0, 0)"/>
<path id="Trauma-Plate-1_Legacy-Thigh_Right" class="toggle" style="" d="M70.04,110.29l6.05,9.95l-1.31,7.08l-11.81,2.37 l-10.78-6.84l-0.43-7.62l7.67-6.67L70.04,110.29" fill="rgb(0, 0, 0)"/>
<g id="Ridge_Legacy-Thigh_Right" class="toggle" style="" fill="rgb(0, 133, 255)">
<path d="M59.73,130.23l-0.48,10.84l2.54,1.18l3.26-0.62l1.47-10.34l-3.88,0.78L59.73,130.23"/>
<path d="M59.25,141.06l-0.67,10.53l2.43,1.05l2.79-0.43l1.25-10.59l-3.26,0.62L59.25,141.06"/>
<path d="M66.51,131.29l3.02-23.37l-4.2-2.13l-4.45,0.72l-1.16,23.72l2.9,1.84L66.51,131.29"/>
<path d="M65.33,105.78l-2.7,26.29"/>
<path d="M62.63,132.07l-0.85,10.18"/>
<path d="M61.78,142.25l-0.78,10.4"/>
</g>
</g></g>
</g>
<g id="ThighsDecals" mask="url(#ThighsMask)">
</g>
<g id="Groin"><g id="Basic_Groin" class="option" style="display: inherit;">
<path id="Groin-Plate_Basic" d="M78.57,104.6L67.72,82.91h34.71L91.58,104.6c0,0-4.33,5.17-6.5,5.17 C82.91,109.76,78.57,104.6,78.57,104.6z" fill="rgb(0, 133, 255)"/>
<path id="Trauma-Plating_Groin" class="toggle" style="" d="M90.42,103.84l9.8-19.57H69.93l9.79,19.57c0.43,0.5,2.16,2.47,3.82,3.72 c0.58,0.44,1.1,0.84,1.53,0.84c0.44,0,0.95-0.4,1.53-0.84C88.26,106.32,89.99,104.34,90.42,103.84" fill="rgb(0, 0, 0)"/>
</g>
</g>
<g id="GroinDecals" mask="url(#GroinMask)">
</g>
<g id="Waist">
<g id="Accessories_Waist">
<g id="Kama" class="toggle" style=""><g id="Tattered_Kama" class="option" style="display: inherit;">
<g id="Main_Kama-Tattered" fill="rgb(0, 0, 0)">
<path d="M105.73,79.21c1.46-0.33,0.81,5.35,4.07,9.76c1.99,2.69,4.66,7.14,5.19,9.61 c0.63,2.94,2.52,5.91,3.26,8.85c1.29,5.11,3.04,10.08,4.12,15.1c0.86,4.02,0.57,8.28,1.53,12.31c0.72,3.04,0.26,5.69,1.26,8.6 c1.11,3.26-1.13,6.52-0.32,9.87c0.49,2.04,0.09,4,0.73,6c0.22,0.68,0.4,1.35,0.57,2.04c0.05,0.21,0.1,0.42,0.15,0.63 c0.03,0.13,0.17,0.47,0.08,0.38c-0.67-0.61-1.04-1.76-1.67-2.48c-1.22-1.39-2.76-2.43-3.92-3.9c-0.45-0.57-0.8-1.19-1.11-1.84 c-0.03-0.06-0.23-0.55-0.26-0.55c-2.37,0.51-4.74,1.43-6.75-0.63c-1.6-1.64-2.99-5.17-3.81-7.36 c-0.34-0.92,0.12-6.32-0.49-6.83c-0.45-0.37-0.86,4.49-1.4,4.16c-3.41-2.06-8.25-3.29-8.25-3.29s-0.38-6.89-0.1-10.83 c0.25-3.54-0.24-6.62-0.75-10.08c-0.66-4.48-0.58-9.09-0.28-13.59C98.05,97.84,92.59,82.18,105.73,79.21z M113.54,145.48 c-0.42,1.82-0.46,3.9,0.55,5.54c0.34,0.55,1.18,1.42,1.92,1.19c3.1-0.98-0.7-5.88-1.7-6.97L113.54,145.48z M104.43,132.18 c-0.56,0.35-1.04,0.76-1.45,1.3c-1.47,1.91,2.57,0.96,1.87-1.37L104.43,132.18z"/>
<path d="M64.35,79.21c-1.46-0.33-1.17,5.1-4.07,9.76c-1.91,3.07-4.66,7.14-5.19,9.61 c-0.63,2.94-2.52,5.91-3.26,8.85c-1.29,5.11-3.04,10.08-4.12,15.1c-0.86,4.02-0.57,8.28-1.53,12.31 c-0.72,3.04-0.26,5.69-1.26,8.6c-1.12,3.26,1.13,6.52,0.32,9.87c-0.49,2.04-0.09,4-0.73,6c-0.22,0.68-0.4,1.35-0.57,2.04 c-0.05,0.21-0.1,0.42-0.15,0.63c-0.03,0.13-0.17,0.47-0.08,0.38c0.67-0.61,1.04-1.76,1.67-2.48c1.22-1.39,2.76-2.43,3.92-3.9 c0.45-0.57,0.8-1.19,1.11-1.84c0.03-0.06,0.23-0.55,0.26-0.55c2.37,0.51,4.73,1.43,6.76-0.63c1.6-1.64,2.99-5.17,3.81-7.36 c0.34-0.92-0.12-6.32,0.49-6.83c0.45-0.37,0.86,4.49,1.41,4.16c3.41-2.06,8.25-3.29,8.25-3.29s0.38-6.89,0.1-10.83 c-0.25-3.54,0.24-6.62,0.75-10.08c0.66-4.48,0.58-9.09,0.28-13.59C72.03,97.84,77.49,82.18,64.35,79.21z M56.54,145.48 c0.42,1.82,0.46,3.9-0.55,5.54c-0.34,0.55-1.18,1.42-1.92,1.19c-3.1-0.98,0.7-5.88,1.7-6.97L56.54,145.48z M65.65,132.18 c0.56,0.35,1.04,0.76,1.45,1.3c1.47,1.91-2.57,0.96-1.87-1.37L65.65,132.18z"/>
</g>
</g>
</g>
<g id="Loin-Cloth" class="toggle" style=""><path id="Tattered_Loin-Cloth" class="option" d="M95.75,82.6c-0.06,2.73-0.17,5.46-0.01,8.19 c0.14,2.4,0.54,4.86,0.52,7.26c-0.01,1.9-0.49,3.72-0.6,5.6c-0.18,3.09,0.08,6.42,0.38,9.5c0.57,6.04-1.6,26.33-1.6,26.33 l-4.4-4.92l-2.98,8.92l-2.49-5.72l-2.26,4.6l-2.38-0.93l-1.16,7.63l-2.33-6.06l-0.28-5.18c0,0-0.35-2.54-1.1-6.98 c-0.32-1.91-1.11-3.8-1.16-5.76c-0.14-4.89,1.29-9.78,1.43-14.67c0.11-3.91-0.78-7.71-1.06-11.57 c-0.25-3.37-0.67-8.74,1.24-11.52C77.48,84.43,95.75,82.6,95.75,82.6z M81.82,133.08c-0.11,0.61-0.23,1.23-0.32,1.85 c-0.05,0.38-0.1,0.76-0.11,1.14c-0.02,0.51,0.02,1.09,0.2,1.56c0.02,0.04,0.28-0.14,0.31-0.16c0.3-0.24,0.5-0.59,0.61-1.01 c0.25-0.97,0.4-2.74-0.35-3.47L81.82,133.08z M93.06,126.22c-0.53,0.36-1.24,0.78-1.62,1.36c-0.28,0.43-0.49,0.89-0.57,1.44 c-0.06,0.37-0.11,0.74-0.12,1.11c-0.07,1.37,0.6,1.84,1.47,0.86C93,130.11,93.9,127.35,93.06,126.22z" fill="rgb(0, 0, 0)" style="display: inherit;"/>
</g>
<g id="Left-Holster" class="toggle" style=""><g id="Belt-Holster_Left" class="option" style="display: inherit;">
<g id="Weapon_Belt-Holster-Left">
<g id="Main_Weapon_Belt-Holster-Left" fill="rgb(40, 40, 40)">
<path d="M109.93,89.79l-0.25-3.73l0.65-0.04l-0.16-2.35l-0.65,0.04l-0.08-1.22c-0.03-0.4,0.48-0.75,1.14-0.8 c1.5-0.1,4.08-0.27,5.58-0.37c0.66-0.04,1.21,0.24,1.24,0.64l0.08,1.22l-0.65,0.04l0.16,2.35l0.65-0.04l0.25,3.73l-1.52,0.1 l0.69,10.33l-4.91,0.33l-0.69-10.33L109.93,89.79z"/>
<path d="M117.2,88.76l-0.87,0.06l0.83,12.42l-4.91,0.33l-0.83-12.42l-0.87,0.06l-0.19-2.83l6.66-0.44L117.2,88.76 z"/>
<path d="M115.39,82.18l-3.94,0.26l0.26,3.83l3.94-0.26L115.39,82.18z"/>
<path d="M112.62,90.19l-0.65,0.04l0.66,9.77l0.65-0.04L112.62,90.19z"/>
<path d="M114.12,87.85l-0.65,0.04l0.65,9.76l0.65-0.04L114.12,87.85z"/>
<path d="M115.92,89.97l-0.65,0.04l0.66,9.76l0.65-0.04L115.92,89.97z"/>
</g>
<g id="Accent_Weapon_Belt-Holster-Left" fill="rgb(145, 145, 145)">
<path d="M112.32,86.63l0.03,0.39l2.78-0.18l-0.03-0.39L112.32,86.63z"/>
<path d="M112.34,87.02l0.03,0.39l2.78-0.18l-0.03-0.39L112.34,87.02z"/>
<path d="M112.29,86.24l0.03,0.39l2.78-0.18l-0.03-0.39L112.29,86.24z"/>
<path d="M111.97,81.43l0.03,0.39l2.78-0.18l-0.03-0.39L111.97,81.43z"/>
<path d="M112.1,82.4l-0.65,0.04l0.26,3.83l0.65-0.04L112.1,82.4z"/>
<path d="M115.39,82.18l-0.65,0.04l0.26,3.83l0.65-0.04L115.39,82.18z"/>
<path d="M115.27,90.01l-0.98,0.06l0.65,9.77l0.98-0.07L115.27,90.01z"/>
<path d="M113.61,90.12l-0.98,0.06l0.65,9.77l0.98-0.07L113.61,90.12z"/>
</g>
</g>
<path id="Holster_Belt-Holster-Left" d="M111.6,104.11l-2.57-15.56l8.61,10.96l0.82,21.48 c-1.49,1.96-3.16,2.16-5.03,0.37L111.6,104.11z" fill="rgb(139, 87, 42)"/>
</g>
</g>
<g id="Right-Holster" class="toggle" style=""><g id="Belt-Holster_Right" class="option" style="display: inherit;">
<g id="Weapon_Belt-Holster-Right">
<g id="Main_Weapon_Belt-Holster-Right" fill="rgb(40, 40, 40)">
<path d="M60.06,89.79l0.25-3.73l-0.65-0.04l0.16-2.35l0.65,0.04l0.08-1.22c0.03-0.4-0.48-0.75-1.14-0.8 c-1.5-0.1-4.08-0.27-5.58-0.37c-0.66-0.04-1.21,0.24-1.24,0.64l-0.08,1.22l0.65,0.04L53,85.57l-0.65-0.04l-0.25,3.73l1.52,0.1 L52.93,99.7l4.91,0.33l0.69-10.33L60.06,89.79z"/>
<path d="M52.79,88.76l0.87,0.06l-0.83,12.42l4.92,0.33l0.83-12.42l0.87,0.06l0.19-2.83l-6.66-0.44L52.79,88.76z"/>
<path d="M54.59,82.18l3.94,0.26l-0.26,3.83l-3.94-0.26L54.59,82.18z"/>
<path d="M57.37,90.19l0.65,0.04l-0.65,9.77l-0.65-0.04L57.37,90.19z"/>
<path d="M55.87,87.85l0.65,0.04l-0.65,9.76l-0.65-0.04L55.87,87.85z"/>
<path d="M54.07,89.97l0.65,0.04l-0.65,9.76l-0.65-0.04L54.07,89.97z"/>
</g>
<g id="Accent_Weapon_Belt-Holster-Right" fill="rgb(145, 145, 145)">
<path d="M57.67,86.63l-0.03,0.39l-2.78-0.18l0.03-0.39L57.67,86.63z"/>
<path d="M57.64,87.02l-0.03,0.39l-2.78-0.18l0.03-0.39L57.64,87.02z"/>
<path d="M57.7,86.24l-0.03,0.39l-2.78-0.18l0.03-0.39L57.7,86.24z"/>
<path d="M58.02,81.43l-0.03,0.39l-2.78-0.18l0.03-0.39L58.02,81.43z"/>
<path d="M57.89,82.4l0.65,0.04l-0.26,3.83l-0.65-0.04L57.89,82.4z"/>
<path d="M54.59,82.18l0.65,0.04l-0.26,3.83l-0.65-0.04L54.59,82.18z"/>
<path d="M54.72,90.01l0.98,0.06l-0.66,9.77l-0.98-0.07L54.72,90.01z"/>
<path d="M56.38,90.12l0.98,0.06l-0.65,9.77l-0.98-0.07L56.38,90.12z"/>
</g>
</g>
<path id="Holster_Belt-Holster-Right" d="M58.39,104.11l2.57-15.56l-8.61,10.96l-0.82,21.48 c1.49,1.96,3.16,2.16,5.03,0.37L58.39,104.11z" fill="rgb(139, 87, 42)"/>
</g>
</g>
<g id="Left-Trophy" class="toggle" style="display:none"/>
<g id="Right-Trophy" class="toggle" style="display:none"/>
</g>
<g id="Under-Belt">
<g id="Sash" class="option" fill="rgb(0, 133, 255)" style="display: inherit;">
<path d="M62.79,72.48c2.02-0.45,5.16,0.85,7.8,1.08c2.83,0.24,5.67,0.03,8.5,0.22c1.66,0.12,3.28,0.55,4.93,0.77 c3.16,0.44,6.32,0.21,9.47-0.21c0.83-0.11,1.68-0.13,2.5-0.31c2.06-0.45,4.75-0.95,6.52-1.82c1.57-0.41,3.16-0.48,4.63-0.1 c1.5,0.39,0.45,3.52,0.52,4.81c0.07,1.36,1,6.67,1.56,7.91c0.62,1.38,1.1,2.88-0.7,3.78c-1.5,0.76-3.11,0.07-4.64-0.14 c-1.81-0.25-3.6-0.13-5.38,0.24c-2.18,0.45-4.34,1.27-6.56,1.49c-2.98,0.29-5.97-0.28-8.95-0.24c-1.71,0.03-3.35,0.61-5.07,0.46 c-2.87-0.24-5.47-1.46-8.26-1.75c-1.4-0.14-2.79,0.19-4.19,0.2c-0.96,0-1.86-0.27-2.79-0.51c-0.92-0.23-1.79-0.14-2.29-1.05 c-0.38-0.69,0.43-2.55,0.81-3.13c0.99-1.5,1.26-6.8,0.9-8.5C61.81,74.25,61.39,72.79,62.79,72.48z"/>
<path d="M60.75,85.08c3.17-0.01,5.94-0.07,8.79,1.08c9.66,3.89,9.45,3.36,13.55,3.8c6.05,0.65,8.46,0.41,10.96-0.18 c1.01-0.24,2.02-0.58,2.93-1.06c1.61-0.85,3.18-1.73,4.61-2.92c1.74-1.45,4.78-2.42,7.22-2.3c0,0-0.47-1.67-1.15-6.62 c-0.17-1.28,0.6-2.68-0.01-4.42c-0.26-0.75-2.66-0.54-4.29-0.4c-3.22,0.28-4.64,2.71-7.13,4.66c-1.45,1.13-3.17,2.47-5.31,3.2 c-3.37,1.14-8.62,1.66-18.57-1.8c-3.25-1.13-6-3.27-10.28-2.58c0,0,0.15,2.3,0.16,3.45C62.24,82.67,60.75,85.08,60.75,85.08z"/>
</g></g>
<g id="Belt"><g id="Pouch-Belt-6" class="option" style="display: inherit;">
<path id="Main_Pouch-Belt-6" d="M109.38,84.25c-5.47,0.49-17.98,2.27-24.29,2.27c-6.38,0-18.88-1.79-24.28-2.26 l0.81-6.37c4.44,0.39,17.3,2.2,23.48,2.2c5.99,0,18.59-1.79,23.33-2.22L109.38,84.25z" fill="rgb(0, 0, 0)"/>
<rect id="Buckle_Pouch-Belt-6" x="80.61" y="79.49" width="9.05" height="7.39" fill="rgb(0, 133, 255)"/>
<g id="Pouches_Pouch-Belt-6" fill="rgb(139, 87, 42)">
<g>
<g>
<g>
<path d="M75.55,77.98c-1.42-0.09-2.85,0.13-4.17,0.65l0,0L77.86,79l1.76-0.75 C79.62,78.25,77.35,78.1,75.55,77.98z"/>
<path d="M79.85,78.48c0.01-0.07-0.02-0.14-0.08-0.18c-0.06-0.04-0.14-0.05-0.2-0.02 c-0.57,0.24-1.7,0.73-1.7,0.73l-0.84,9.96c0.71-0.41,1.42-0.64,2.11-0.75c0.1-0.01,0.17-0.1,0.18-0.19 C79.41,84.83,79.53,81.65,79.85,78.48z"/>
<path d="M77.86,79l-6.48-0.37c-0.04,1.51-0.18,3.02-0.26,4.54c-0.09,1.75-0.13,3.52-0.3,5.29 c0,0.06,0.01,0.12,0.05,0.16c0.04,0.04,0.1,0.07,0.15,0.07c2.02-0.01,4.03,0.1,6.04,0.35c0.06,0.01,0.11-0.01,0.16-0.04 c0.04-0.04,0.07-0.09,0.08-0.14c0.06-0.92,0.31-4.51,0.31-4.51L77.86,79z"/>
<path d="M77.86,79l-6.48-0.37c0,0-0.07,0.58-0.16,1.34c-0.11,0.91,0.16,1.83,0.76,2.53 c0.59,0.7,1.45,1.13,2.37,1.19c0,0,0,0,0,0c0.92,0.05,1.82-0.28,2.49-0.91c0.67-0.63,1.04-1.51,1.04-2.43 C77.87,79.58,77.86,79,77.86,79z"/>
<path d="M74.42,82.49c0.23,0.01,0.41,0.21,0.39,0.44c-0.01,0.23-0.21,0.4-0.44,0.39 c-0.23-0.01-0.41-0.21-0.39-0.44C73.99,82.65,74.19,82.48,74.42,82.49z"/>
</g>
</g>
<g>
<g>
<path d="M66.42,76.75c-1.32-0.09-2.64,0.14-3.85,0.67h0l5.92,0.34L70.1,77C70.1,77,68.06,76.86,66.42,76.75z"/>
<path d="M70.3,77.24c0.01-0.07-0.03-0.14-0.09-0.19c-0.06-0.04-0.14-0.05-0.21-0.02 c-0.53,0.25-1.52,0.72-1.52,0.72l-0.82,9.96c0.65-0.41,1.29-0.65,1.92-0.76c0.1-0.02,0.17-0.1,0.17-0.19 C69.87,83.59,69.99,80.41,70.3,77.24z"/>
<path d="M68.49,77.76l-5.92-0.34c-0.04,1.51-0.18,3.02-0.26,4.54c-0.09,1.75-0.13,3.51-0.3,5.28 c-0.01,0.06,0.01,0.12,0.05,0.16c0.04,0.04,0.1,0.07,0.15,0.07c1.83-0.02,3.66,0.08,5.47,0.31c0.06,0.01,0.11-0.01,0.16-0.04 s0.07-0.09,0.08-0.14c0.06-0.93,0.31-4.51,0.31-4.51L68.49,77.76z"/>
<path d="M68.49,77.76l-5.92-0.34c0,0-0.08,0.74-0.19,1.64c-0.1,0.83,0.16,1.67,0.7,2.31 c0.54,0.64,1.33,1.03,2.17,1.08c0,0,0,0,0,0c0.84,0.05,1.67-0.25,2.28-0.83c0.61-0.58,0.96-1.38,0.96-2.22 C68.49,78.5,68.49,77.76,68.49,77.76z"/>
<path d="M65.32,81.27c0.21,0.01,0.37,0.21,0.36,0.44c-0.01,0.23-0.19,0.4-0.4,0.39s-0.37-0.21-0.36-0.44 C64.93,81.43,65.11,81.26,65.32,81.27z"/>
</g>
</g>
<g>
<path d="M58.83,77.31l0.44-0.68l2.27,0.07l0.28,0.85L58.83,77.31z"/>
<path d="M61.81,77.64c0.01-0.06-0.01-0.11-0.05-0.16c-0.04-0.04-0.09-0.07-0.15-0.07 c-0.69-0.03-2.78-0.11-2.78-0.11l-0.4,8.96c0.11,0.27,1.76,0.43,2.69,0.39c0.11-0.01,0.19-0.09,0.19-0.2 C61.37,83.51,61.47,80.57,61.81,77.64z"/>
</g>
</g>
<g>
<g>
<g>
<path d="M94.63,77.98c1.42-0.09,2.85,0.13,4.17,0.65l0,0L92.32,79l-1.76-0.75 C90.56,78.25,92.83,78.1,94.63,77.98z"/>
<path d="M90.33,78.48c-0.01-0.07,0.02-0.14,0.08-0.18c0.06-0.04,0.14-0.05,0.2-0.02c0.57,0.24,1.7,0.73,1.7,0.73 l0.84,9.96c-0.71-0.41-1.42-0.64-2.11-0.75c-0.1-0.01-0.17-0.1-0.18-0.19C90.77,84.83,90.66,81.65,90.33,78.48z"/>
<path d="M92.32,79l6.48-0.37c0.04,1.51,0.18,3.02,0.26,4.54c0.09,1.75,0.13,3.52,0.3,5.29 c0,0.06-0.01,0.12-0.05,0.16c-0.04,0.04-0.1,0.07-0.15,0.07c-2.02-0.01-4.03,0.1-6.04,0.35c-0.06,0.01-0.11-0.01-0.16-0.04 c-0.04-0.04-0.07-0.09-0.08-0.14c-0.06-0.92-0.31-4.51-0.31-4.51L92.32,79z"/>
<path d="M92.32,79l6.48-0.37c0,0,0.07,0.58,0.16,1.34c0.11,0.91-0.16,1.83-0.76,2.53 c-0.59,0.7-1.45,1.13-2.37,1.19c0,0,0,0,0,0c-0.92,0.05-1.82-0.28-2.49-0.91c-0.67-0.63-1.04-1.51-1.04-2.43 C92.31,79.58,92.32,79,92.32,79z"/>
<path d="M95.76,82.49c-0.23,0.01-0.41,0.21-0.39,0.44c0.01,0.23,0.21,0.4,0.44,0.39 c0.23-0.01,0.41-0.21,0.39-0.44C96.19,82.65,96,82.48,95.76,82.49z"/>
</g>
</g>
<g>
<g>
<path d="M103.76,76.75c1.32-0.09,2.64,0.14,3.85,0.67h0l-5.92,0.34L100.08,77 C100.08,77,102.13,76.86,103.76,76.75z"/>
<path d="M99.88,77.24c-0.01-0.07,0.03-0.14,0.09-0.19c0.06-0.04,0.14-0.05,0.21-0.02 c0.53,0.25,1.52,0.72,1.52,0.72l0.82,9.96c-0.65-0.41-1.29-0.65-1.92-0.76c-0.1-0.02-0.17-0.1-0.17-0.19 C100.31,83.59,100.19,80.41,99.88,77.24z"/>
<path d="M101.69,77.76l5.92-0.34c0.04,1.51,0.18,3.02,0.26,4.54c0.09,1.75,0.13,3.51,0.3,5.28 c0,0.06-0.01,0.12-0.05,0.16c-0.04,0.04-0.1,0.07-0.15,0.07c-1.83-0.02-3.66,0.08-5.47,0.31c-0.06,0.01-0.11-0.01-0.16-0.04 s-0.07-0.09-0.08-0.14c-0.06-0.93-0.31-4.51-0.31-4.51L101.69,77.76z"/>
<path d="M101.69,77.76l5.92-0.34c0,0,0.08,0.74,0.19,1.64c0.09,0.83-0.16,1.67-0.7,2.31 c-0.54,0.64-1.33,1.03-2.17,1.08c0,0,0,0,0,0c-0.84,0.05-1.67-0.25-2.28-0.83c-0.61-0.58-0.96-1.38-0.96-2.22 C101.69,78.5,101.69,77.76,101.69,77.76z"/>
<path d="M104.86,81.27c-0.21,0.01-0.37,0.21-0.36,0.44c0.01,0.23,0.19,0.4,0.4,0.39s0.37-0.21,0.36-0.44 C105.25,81.43,105.07,81.26,104.86,81.27z"/>
</g>
</g>
<g>
<path d="M111.35,77.31l-0.44-0.68l-2.27,0.07l-0.28,0.85L111.35,77.31z"/>
<path d="M108.38,77.64c-0.01-0.06,0.01-0.11,0.05-0.16c0.04-0.04,0.09-0.07,0.15-0.07 c0.69-0.03,2.78-0.11,2.78-0.11l0.4,8.96c-0.11,0.27-1.75,0.43-2.68,0.39c-0.11-0.01-0.19-0.09-0.19-0.2 C108.81,83.51,108.71,80.57,108.38,77.64z"/>
</g>
</g>
</g>
</g></g>
</g>
<g id="WaistDecals" mask="url(#WaistMask)">
</g>
<g id="Extras_Front">
<g id="Front"><g id="None_Front" class="option" style="display: inherit;">
</g>
</g>
</g>
<g id="Extras-FrontDecals" mask="url(#FrontMask)">
</g>
</g>
</svg>