<?xml version='1.0' encoding='UTF-8'?>
<svg version="1.1" id="Female-Body" xmlns="http://www.w3.org/2000/svg" xmlns:serif="http://www.serif.com/" viewBox="0 -55 170 300" style="fill-rule: evenodd; stroke-width: 0.2px; stroke-linejoin: round;" width="170" height="300">
<style>
mask {
mask-type: alpha;
}
.decal {
stroke: none;
}
</style>
<defs id="Masks" stroke="none">
<mask id="HelmetsMask"> <use href="#Helmets"/> </mask>
<mask id="CollarMask"> <use href="#Collar"/> </mask>
<mask id="ShouldersMask"> <use href="#Shoulders"/> </mask>
<mask id="ChestMask"> <use href="#Chest"/> </mask>
<mask id="BicepsMask"> <use href="#Biceps"/> </mask>
<mask id="GauntletsMask"> <use href="#Gauntlets"/> </mask>
<mask id="WaistMask"> <use href="#Waist"/> </mask>
<mask id="GroinMask"> <use href="#Groin"/> </mask>
<mask id="ThighsMask"> <use href="#Thighs"/> </mask>
<mask id="KneesMask"> <use href="#Knees"/> </mask>
<mask id="ShinsMask"> <use href="#Shins"/> </mask>
<mask id="FootMask"> <use href="#Foot"/> </mask>
</defs>
<defs id="Decals"/><metadata><rdf:rdf xmlns:rdf="http://www.w3.org/1999/02/22-rdf-syntax-ns#" xmlns:rdfs="http://www.w3.org/2000/01/rdf-schema#" xmlns:dc="http://purl.org/dc/elements/1.1/"><rdf:description><dc:creator>MandoCreator</dc:creator><dc:publisher>https://www.mandocreator.com</dc:publisher><dc:description>Your Beskar'gam - created by MandoCreator</dc:description><dc:format>image/svg+xml</dc:format><dc:type>Image</dc:type><dc:title>MandoCreator - Ner Berskar'gam</dc:title><dc:date>2022-01-02T16:23:33.291Z</dc:date></rdf:description></rdf:rdf></metadata><g id="Main-Body" fill="white" stroke="black">
<g id="Extras_Back">
<g id="Back"><path id="Full-Cape_Back" class="option" d="M67.82,13.09c-12.2,4.58-25.78,26.64-27.46,43.43 c-1.06,10.59-6.25,21.35-5.77,31.89c0.49,10.69-4.93,21.78-5.33,32.46c-0.36,9.62-3.22,14.02-4.87,23.54 c-2.48,14.24-5.22,23.63-7.45,37.88c-1.77,11.33-7.12,20.69-9.63,24.23c-0.23,0.32,15.56-0.06,18.75-0.57 c10.29-1.66,18.18-2.13,28.4,0.36c11.1,2.71,22,4.37,33.35,1.87c10.93-2.4,21.22-8.15,32.43-9.18c8.71-0.8,17.21,2,25.59,3.94 c2.12,0.49,5.07,1.75,7.26,1.61c0.06,0-0.7-5.07-0.81-5.62c-1.08-5.32-3.55-10.41-6.45-14.97c-7.37-11.6-4.83-24.32-6.18-38.02 c-1.31-13.28,0.06-26.6-2.19-39.86c-1.99-11.73-8.97-22.64-10.72-34.48c-2.05-13.89-6.82-28.76-11.03-42.25 C110.54,12.8,80.02,8.51,67.82,13.09z" fill="rgb(128, 128, 128)" style="display: inherit;"/></g>
</g>
<g id="Extras-BackDecals" mask="url(#BackMask)">
</g>
<g id="Suit">
<g id="Neck-Seal"><g id="Standard-Neck-Seal" class="option" fill="rgb(64, 64, 64)" style="display: inherit;">
<path d="M95.96,3.46c0-0.93-0.74-1.69-1.65-1.69c0,0-6.22,0.89-9.33,0.89c-3.11,0-9.33-0.89-9.33-0.89 c-0.91,0-1.65,0.76-1.65,1.69c0,0.93,0.74,1.69,1.65,1.69c0,0,6.22,0.89,9.33,0.89c3.11,0,9.33-0.89,9.33-0.89 C95.22,5.15,95.96,4.39,95.96,3.46z"/>
<path d="M96.51,5.43c0-0.98-0.78-1.77-1.73-1.77c0,0-6.53,0.93-9.8,0.93s-9.8-0.93-9.8-0.93 c-0.96,0-1.73,0.79-1.73,1.77c0,0.98,0.78,1.77,1.73,1.77c0,0,6.53,0.93,9.8,0.93s9.8-0.93,9.8-0.93 C95.74,7.21,96.51,6.41,96.51,5.43z"/>
<path d="M97.14,7.88c0-1.03-0.82-1.87-1.83-1.87c0,0-6.89,0.98-10.33,0.98c-3.44,0-10.33-0.98-10.33-0.98 c-1.01,0-1.83,0.84-1.83,1.87s0.82,1.87,1.83,1.87c0,0,6.89,0.98,10.33,0.98c3.44,0,10.33-0.98,10.33-0.98 C96.32,9.75,97.14,8.91,97.14,7.88z"/>
<path d="M97.75,10.13c0-1.08-0.86-1.96-1.92-1.96c0,0-7.23,1.03-10.85,1.03c-3.62,0-10.85-1.03-10.85-1.03 c-1.06,0-1.92,0.88-1.92,1.96c0,1.08,0.86,1.96,1.92,1.96c0,0,7.23,1.03,10.85,1.03c3.62,0,10.85-1.03,10.85-1.03 C96.89,12.09,97.75,11.21,97.75,10.13z"/>
<path d="M98.36,12.33c0-0.82-0.9-1.48-2.01-1.48c0,0-7.58,0.78-11.36,0.78s-11.36-0.78-11.36-0.78 c-1.11,0-2.01,0.66-2.01,1.48c0,0.82,0.9,1.48,2.01,1.48c0,0,7.58,0.78,11.36,0.78s11.36-0.78,11.36-0.78 C97.46,13.81,98.36,13.14,98.36,12.33z"/>
<path d="M98.36,14.8c0-0.82-0.9-1.48-2.01-1.48c0,0-7.58,0.78-11.36,0.78s-11.36-0.78-11.36-0.78 c-1.11,0-2.01,0.66-2.01,1.48c0,0.82,0.9,1.48,2.01,1.48c0,0,7.58,1.5,11.36,1.5s11.36-1.5,11.36-1.5 C97.46,16.28,98.36,15.62,98.36,14.8z"/>
</g>
</g>
<g id="Flight-Suit" fill="rgb(64, 64, 64)">
<path d="M38.1,60.17l5.2-18.8l12.15-8.13l1.9,16.49c0,0-5.25,9.95-7.06,14.51c-1.86,4.7-5.09,15.42-5.5,16.81 l-2.88,24.91l-8.36-2.66c0,0-0.3-17.29,0.46-24.47C34.68,72.42,38.1,60.17,38.1,60.17z"/>
<path d="M131.9,60.17l-5.22-18.86l-12.06-8.07l-1.92,16.59c0,0,5.2,9.85,7.01,14.41c1.86,4.7,5.09,15.42,5.5,16.81 l2.88,24.91l8.36-2.66c0,0,0.3-17.29-0.46-24.47C135.32,72.42,131.9,60.17,131.9,60.17z"/>
<path d="M84.99,113.44c-1.03,0.1-1.95,0.5-2.29,1.22c-3,6.3-9.17,35.13-10.95,40.44c-0.97,2.89-1.74,18.7-3.38,27.92 c-1.96,11.01-8.39,38.11-8.39,38.11l-11.15-1.15c0,0-1.44-27.22-1.04-37.12c0.3-7.53,3.42-22.31,3.42-22.31s0.67-5.4,0.69-8.12 c0.06-9.82,0.93-31.66,2.88-44.2C56.3,98.31,65.7,77.5,65.7,77.5s12.18,4.76,19.34,4.76c7.16,0,19.44-4.86,19.44-4.86 s8.88,20.92,10.42,30.83c1.95,12.54,3.24,34.38,3.3,44.2c0.02,2.72,0.69,8.12,0.69,8.12s3.12,14.79,3.42,22.31 c0.4,9.91-1.04,37.12-1.04,37.12l-11.15,1.15c0,0-6.43-27.1-8.39-38.11c-1.64-9.22-2.41-25.03-3.38-27.92 c-1.78-5.31-7.96-34.13-10.95-40.44c-0.35-0.73-1.3-1.14-2.34-1.23L84.99,113.44z"/>
</g>
<g id="Sleeves" class="toggle" fill="rgb(64, 64, 64)">
<path d="M41.92,41.42l0.81,0.34l12.73-8.52c0,0,0.36,8.98,1.42,14.37c0.15,0.75,0.37,1.69,0.64,2.79l-1.69,5.45 c0,0-5.75-2.25-8.27-3.72C45.11,50.7,40.7,47,40.7,47L41.92,41.42z"/>
<path d="M112.55,50.4c0.28-1.1,0.5-2.04,0.64-2.79c1.06-5.39,1.42-14.37,1.42-14.37l12.73,8.52l0.81-0.34l1.22,5.58 c0,0-4.4,3.7-6.85,5.13c-2.52,1.48-8.28,3.72-8.28,3.72L112.55,50.4z"/>
</g>
</g>
<g id="Boots"><g id="Gunslinger_Boots" class="option" style="display: inherit;">
<g id="Main_Gunslinger-Boot" fill="rgb(196, 202, 206)">
<path d="M62.27,227.49c-0.04,0.18-0.66,3.1-3.88,3.9c-1.07,0.27-2.91-0.3-4.07-0.89c-1.58-0.8-3.24-1.43-4.94-1.93 l-0.05,0.07c-0.03,0.04-0.05,0.07-0.08,0.11c-0.53,0.74-1.1,1.43-1.72,2.05l-0.05,0.05l-0.03,0.03 c-0.06,0.06-0.12,0.12-0.19,0.18c-0.36,0.35-0.73,0.67-1.12,0.97l-0.11,0.08l-0.09,0.07c-0.03,0.02-0.05,0.04-0.08,0.06 c-0.06,0.04-0.12,0.09-0.18,0.13c-0.8,0.56-1.87,1.42-2.94,1.26c-1-0.15-2.13-0.55-2.97-0.95c-0.71-0.34-1.44-0.79-1.94-1.27 c-0.14-0.11-0.27-0.24-0.36-0.4c-2.33,0.91-4.87,1.25-6.11,3.84c-0.27,0.56-0.5,1.23-0.44,1.86c0.07,0.81,0.96,0.91,1.65,1.09 c1.72,0.46,3.21,0.81,5.2,1.22c2.27,0.47,4.32,0.75,6.62,0.66c1.72-0.07,3.17-0.16,4.67-1.08c0.6-0.37,1.22-0.74,1.74-1.23 c1.17-1.08,1.91-2.21,3.42-2.86c1.09-0.48,2.21-0.87,3.37-1.16c1.64-0.41,3.4-0.69,4.26-2.31 C62.53,229.81,62.45,228.67,62.27,227.49L62.27,227.49"/>
<path d="M107.8,227.49c0.04,0.18,0.66,3.1,3.88,3.9c1.08,0.27,2.91-0.3,4.07-0.89c1.58-0.8,3.25-1.43,4.94-1.93 l0.05,0.07c0.03,0.04,0.05,0.07,0.08,0.11c0.53,0.74,1.1,1.43,1.72,2.05l0.05,0.05l0.03,0.03c0.06,0.06,0.12,0.12,0.19,0.18 c0.36,0.35,0.73,0.67,1.12,0.97l0.11,0.08l0.09,0.07c0.03,0.02,0.05,0.04,0.08,0.06c0.06,0.04,0.12,0.09,0.18,0.13 c0.8,0.56,1.87,1.42,2.94,1.26c1-0.15,2.13-0.55,2.97-0.95c0.71-0.34,1.44-0.79,1.94-1.27c0.14-0.11,0.27-0.24,0.36-0.4 c2.33,0.91,4.87,1.25,6.11,3.84c0.27,0.56,0.5,1.23,0.44,1.86c-0.07,0.81-0.96,0.91-1.65,1.09c-1.72,0.46-3.21,0.81-5.2,1.22 c-2.27,0.47-4.32,0.75-6.62,0.66c-1.72-0.07-3.17-0.16-4.67-1.08c-0.6-0.37-1.22-0.74-1.74-1.23c-1.17-1.08-1.91-2.21-3.42-2.86 c-1.09-0.48-2.21-0.87-3.37-1.16c-1.64-0.41-3.4-0.69-4.26-2.31C107.55,229.81,107.62,228.67,107.8,227.49L107.8,227.49"/>
</g>
<g id="Bottom_Gunslinger-Boot" fill="rgb(64, 64, 64)">
<path d="M62.33,229.7c-0.07,0.44-0.22,0.89-0.46,1.35c-0.86,1.62-2.62,1.9-4.26,2.31c-1.16,0.29-2.28,0.68-3.37,1.16 c-1.51,0.65-2.26,1.78-3.42,2.86c-0.52,0.48-1.14,0.86-1.74,1.23c-1.5,0.92-2.96,1.01-4.67,1.08c-2.3,0.1-4.35-0.18-6.62-0.66 c-1.99-0.41-3.48-0.76-5.2-1.22c-0.55-0.15-1.23-0.24-1.52-0.69l0,0l-0.33,0.73l-0.19,1.49c0,0,1.85,0.99,3.81,1.43 c1.97,0.44,5.93,1.05,5.93,1.05l0.27-0.65l0.89,0.19l-0.04,0.64l2.16,0.12l0.46-0.62l0.72,0.02l-0.11,0.55 c0,0,1.34-0.02,2.08-0.46c0.14-0.21,0.41-0.55,0.41-0.55l0.51-0.28l-0.07,0.52l1.86-0.67l0.09-0.72l0.53-0.31l0.02,0.52 l1.32-1.02l0.14-0.63l3.31-2.32l0.51,1.21l2.32-0.5l0.08-0.5l0.59-0.24l0.41,0.38l1.56-0.64l0.03-0.46l0.5-0.18l0.06,0.34 l1.48-1.01l0.28-2.02l0.06-2.2L62.33,229.7L62.33,229.7"/>
<path d="M107.74,229.7c0.07,0.44,0.22,0.89,0.46,1.35c0.86,1.62,2.62,1.9,4.26,2.31c1.16,0.29,2.28,0.68,3.37,1.16 c1.51,0.65,2.26,1.78,3.42,2.86c0.52,0.48,1.14,0.86,1.74,1.23c1.5,0.92,2.96,1.01,4.67,1.08c2.3,0.1,4.35-0.18,6.62-0.66 c1.99-0.41,3.48-0.76,5.2-1.22c0.55-0.15,1.23-0.24,1.52-0.69l0,0l0.33,0.73l0.19,1.49c0,0-1.85,0.99-3.81,1.43 c-1.97,0.44-5.93,1.05-5.93,1.05l-0.27-0.65l-0.89,0.19l0.04,0.64l-2.16,0.12l-0.46-0.62l-0.72,0.02l0.11,0.55 c0,0-1.34-0.02-2.08-0.46c-0.14-0.21-0.41-0.55-0.41-0.55l-0.51-0.28l0.07,0.52l-1.86-0.67l-0.09-0.72l-0.53-0.31l-0.02,0.52 l-1.32-1.02l-0.14-0.63l-3.31-2.32l-0.51,1.21l-2.32-0.5l-0.08-0.5l-0.59-0.24l-0.41,0.38l-1.56-0.64l-0.03-0.46l-0.5-0.18 l-0.06,0.34l-1.48-1.01l-0.28-2.02l-0.06-2.2L107.74,229.7L107.74,229.7"/>
</g>
<g id="Top_Gunslinger-Boot" fill="rgb(215, 190, 105)">
<path d="M49.4,228.54c1.98-2.82,3.31-6.29,3.78-9.35l0,0l-0.55-0.05l-0.02,0l-0.07-0.01l-0.18-0.02l-0.28-0.03 l-0.12-0.02c-0.32-0.04-0.64-0.08-0.95-0.13l-0.49-0.09l-0.1-0.02l-0.03-0.01l-0.08-0.02l-0.34-0.08l-0.3-0.08l-0.05-0.01 c-1.05-0.26-0.91-0.48-0.91-0.48c-0.29,1.35-0.92,2.78-1.49,4.04c-0.89,1.98-2.73,3.69-4.25,5.2c-1.05,1.04-2.57,2.02-3.82,2.82 c-0.53,0.34-1.1,0.6-1.68,0.82c0.44,0.61,1.4,1.24,2.3,1.67c0.84,0.4,1.97,0.8,2.97,0.95c1.07,0.15,2.14-0.7,2.94-1.26 c1.39-0.98,2.63-2.3,3.69-3.8L49.4,228.54"/>
<path d="M120.67,228.54c-1.97-2.82-3.31-6.29-3.78-9.35l0,0l0.55-0.05l0.02,0l0.07-0.01l0.18-0.02l0.28-0.03 l0.11-0.02c0.32-0.04,0.64-0.08,0.95-0.13l0.49-0.09l0.1-0.02l0.04-0.01l0.08-0.02l0.34-0.08l0.3-0.08l0.05-0.01 c1.05-0.26,0.91-0.48,0.91-0.48c0.29,1.35,0.92,2.78,1.49,4.04c0.89,1.98,2.73,3.69,4.25,5.2c1.05,1.04,2.57,2.02,3.82,2.82 c0.53,0.34,1.1,0.6,1.68,0.82c-0.44,0.61-1.4,1.24-2.3,1.67c-0.84,0.4-1.97,0.8-2.97,0.95c-1.07,0.15-2.14-0.7-2.94-1.26 c-1.39-0.98-2.63-2.3-3.68-3.8L120.67,228.54"/>
</g>
<g id="Side_Gunslinger-Boot" fill="rgb(169, 169, 169)">
<path d="M49.38,228.58c1.7,0.49,3.36,1.12,4.94,1.93c1.16,0.59,3,1.15,4.07,0.89c3.33-0.83,3.88-3.91,3.88-3.91 c-0.1-0.67-0.84-3.25-1.06-3.94c-0.48-1.54-0.43-5.45-0.55-5.39c-2.67,1.41-6.12,1.16-7.48,1.05l0,0 C52.71,222.26,51.37,225.74,49.38,228.58"/>
<path d="M120.69,228.58c-1.7,0.49-3.36,1.12-4.94,1.93c-1.16,0.59-2.99,1.15-4.07,0.89 c-3.32-0.83-3.88-3.91-3.88-3.91c0.1-0.67,0.84-3.25,1.06-3.94c0.48-1.54,0.43-5.45,0.55-5.39c2.67,1.41,6.12,1.16,7.48,1.05l0,0 C117.36,222.26,118.71,225.74,120.69,228.58"/>
</g>
</g></g>
<g id="Gloves">
<g id="Left-Glove"><g id="Basic_Left_Glove" class="option" fill="rgb(64, 64, 64)" style="display: inherit;">
<path d="M133.16,120.46c-0.46-0.03-0.9-0.01-1.36,0.09c-0.31,0.07-0.62,0.16-0.9,0.34 c-0.85,0.55-0.62,1.76,0.14,2.21c0.89,0.53,2.29,0.01,2.69-1.02C133.9,121.66,133.39,120.86,133.16,120.46"/>
<path d="M131.6,121.51c-0.46-0.02-0.9-0.02-1.36,0.09c-0.31,0.07-0.62,0.16-0.9,0.34c-0.85,0.55-0.62,1.76,0.14,2.21 c0.89,0.53,2.29,0.01,2.69-1.02C132.34,122.71,131.83,121.91,131.6,121.51"/>
<path d="M130.49,122.93c-0.46,0.05-1.02,0.12-1.46,0.3c-0.3,0.12-0.59,0.25-0.85,0.47c-0.78,0.68-0.4,1.83,0.4,2.17 c0.94,0.39,2.27-0.34,2.55-1.42C131.24,124.01,130.49,122.93,130.49,122.93z"/>
<path d="M127.97,106.79c0,0-1.34,2.09-1.69,3.59c-0.25,1.06-0.11,3.58-0.43,5.28c-0.31,1.7-0.59,2.64-0.59,2.64 s-1.18,2.71-0.98,3.34c0.21,0.62,1.25,1.18,1.84,0.85c0.74-0.41,1.66-2.32,2.24-3.67c0.59-1.37,1.08-3.32,1.08-3.32 s0.81,0.32,1.23,0.68c1.38,1.2,0.78,4.82,0.78,4.82s-0.57,1.29-1.43,2.75c-1.17,1.99-2.97,3.7-1.78,5.22 c1.11,1.42,3.63-2.31,3.63-2.31l2.47-3.62c0,0,2.84-5.26,2.98-6.28c0.11-0.78,0.01-3.38,0.01-3.38l-0.89-10.08l-4.5,0.42 l-3.7,1.36L127.97,106.79"/>
</g>
</g>
<g id="Right-Glove"><g id="Basic_Right_Glove" class="option" fill="rgb(64, 64, 64)" style="display: inherit;">
<path d="M36.86,120.46c0.46-0.03,0.9-0.01,1.36,0.09c0.31,0.07,0.62,0.16,0.9,0.34c0.85,0.55,0.62,1.76-0.14,2.21 c-0.89,0.53-2.29,0.01-2.69-1.02C36.12,121.66,36.64,120.86,36.86,120.46"/>
<path d="M38.42,121.51c0.46-0.02,0.9-0.02,1.36,0.09c0.31,0.07,0.62,0.16,0.9,0.34c0.85,0.55,0.62,1.76-0.14,2.21 c-0.89,0.53-2.29,0.01-2.69-1.02C37.68,122.71,38.2,121.91,38.42,121.51"/>
<path d="M39.54,122.93c0.46,0.05,1.02,0.12,1.46,0.3c0.3,0.12,0.6,0.25,0.85,0.47c0.78,0.68,0.4,1.83-0.4,2.17 c-0.94,0.39-2.27-0.34-2.55-1.42C38.78,124.01,39.54,122.93,39.54,122.93z"/>
<path d="M42.06,106.79c0,0,1.34,2.09,1.69,3.59c0.25,1.06,0.11,3.58,0.43,5.28c0.31,1.7,0.59,2.64,0.59,2.64 s1.18,2.71,0.98,3.34c-0.21,0.62-1.24,1.18-1.84,0.85c-0.74-0.41-1.66-2.32-2.24-3.67c-0.59-1.37-1.08-3.32-1.08-3.32 s-0.81,0.32-1.23,0.68c-1.38,1.2-0.78,4.82-0.78,4.82s0.57,1.29,1.43,2.75c1.17,1.99,2.97,3.7,1.78,5.22 c-1.11,1.42-3.63-2.31-3.63-2.31l-2.47-3.62c0,0-2.84-5.26-2.98-6.28c-0.11-0.78-0.01-3.38-0.01-3.38l0.89-10.08l4.5,0.42 l3.7,1.36L42.06,106.79"/>
</g>
</g>
</g>
<g id="Biceps">
<g id="Left-Biceps"><g id="Full-Band_Biceps_Left" class="option" style="display: inherit;">
<path id="Main_Full-Band_Biceps_Left" d="M113.29,54.73l-0.74-2.02l-3.43-10.67c0,0,12.7-4.29,16.3-5.51 c0.52-0.18,1.09,0.09,1.29,0.6c1.1,2.89,4.43,11.57,4.43,11.57L113.29,54.73" fill="rgb(196, 202, 206)"/>
<g id="Trim_Full-Band_Biceps_Left" fill="rgb(215, 190, 105)">
<path d="M127.36,44.91c0.97,0,1.75,0.75,1.75,1.68c0,0.93-0.78,1.68-1.75,1.68c-0.97,0-1.75-0.75-1.75-1.68 C125.61,45.66,126.39,44.91,127.36,44.91"/>
<path d="M131.14,48.72l0.41,1.12c0.12,0.31,0.1,0.66-0.05,0.96c-0.15,0.3-0.41,0.53-0.72,0.63 c-3.28,1.1-12.3,4.12-15.5,5.2c-0.64,0.21-1.33-0.12-1.57-0.75l-0.42-1.15L131.14,48.72"/>
</g>
</g></g>
<g id="Right-Biceps"><g id="Full-Band_Biceps_Right" class="option" style="display: inherit;">
<path id="Main_Full-Band_Biceps_Right" d="M56.78,54.73l0.74-2.02l3.43-10.67c0,0-12.7-4.29-16.3-5.51 c-0.52-0.18-1.09,0.09-1.29,0.6c-1.1,2.89-4.43,11.57-4.43,11.57L56.78,54.73" fill="rgb(196, 202, 206)"/>
<g id="Trim_Full-Band_Biceps_Right" fill="rgb(215, 190, 105)">
<path d="M42.71,44.91c-0.97,0-1.75,0.75-1.75,1.68c0,0.93,0.79,1.68,1.75,1.68c0.97,0,1.75-0.75,1.75-1.68 C44.47,45.66,43.68,44.91,42.71,44.91"/>
<path d="M38.93,48.72l-0.41,1.12c-0.11,0.31-0.1,0.66,0.05,0.96s0.41,0.53,0.72,0.63c3.28,1.1,12.3,4.12,15.51,5.2 c0.64,0.21,1.33-0.12,1.56-0.75l0.42-1.15L38.93,48.72"/>
</g>
</g></g>
</g>
<g id="BicepsDecals" mask="url(#BicepsMask)">
</g>
<path id="Vest" d="M91.61,82.96c-4.3,0.88-8.84,0.88-13.14,0c-4.33-0.88-12.83-5.29-12.83-5.29s-7.42-23.26-8.75-30.06 c-1.06-5.39-1.42-14.37-1.42-14.37l-12.73,8.52l-2.71-1.15c0,0,7.62-16.73,12.62-21.57c4.53-4.39,17.42-7.5,17.42-7.5 s5.68,6.2,14.97,6.25c8.84,0.04,14.97-6.25,14.97-6.25s12.89,3.12,17.42,7.5c5.01,4.85,12.62,21.57,12.62,21.57l-2.71,1.15 l-12.73-8.52c0,0-0.36,8.98-1.42,14.37c-1.33,6.79-8.76,30.06-8.76,30.06S95.93,82.08,91.61,82.96z" fill="rgb(64, 64, 64)"/>
<g id="SuitDecals" mask="url(#SuitMask)">
</g>
<g class="swappable" id="Chest"><g id="Chest_Heavy">
<g id="Abdomen_Heavy">
<g id="Under-Plates_Abdomen_Heavy" fill="rgb(215, 190, 105)">
<rect x="74.96" y="63.98" width="20.11" height="2.55"/>
<rect x="74.96" y="66.53" width="20.11" height="2.55"/>
<rect x="74.96" y="69.09" width="20.11" height="2.55"/>
<rect x="74.96" y="71.64" width="20.11" height="2.55"/>
<rect x="74.96" y="74.19" width="20.11" height="2.55"/>
</g>
<g id="Abdomen-Plate_Heavy" fill="rgb(169, 169, 169)">
<path d="M78.84,55.74l-10.02,4.23l-0.94-2.27l10.96-4.63V55.74z"/>
<path d="M72.34,68.46l-3.51-8.48l10.02-4.23l3.14,8.92L72.34,68.46z"/>
<path d="M67.88,57.7l-4.22,0.73l6.21,14.69l4.24-0.83L67.88,57.7z"/>
<path d="M91.19,55.74l10.02,4.23l0.94-2.27l-10.96-4.63V55.74z"/>
<path d="M97.7,68.46l3.51-8.48l-10.02-4.23l-3.14,8.92L97.7,68.46z"/>
<path d="M102.15,57.7l4.22,0.73l-6.21,14.69l-4.24-0.83L102.15,57.7z"/>
<rect x="78.88" y="53.08" width="12.28" height="2.67"/>
<path d="M81.98,64.66l-3.14-8.92h12.35l-3.14,8.92H81.98z"/>
</g>
</g>
<g id="Neck-Armor_Heavy">
<g id="Neck-Plate_Heavy" fill="rgb(196, 202, 206)">
<path d="M71.21,11.33l-8.68,1.89c0,0,0.4,1.54,0.83,3.22c0.62,2.4,3.02,3.88,5.45,3.35c0,0,0,0,0,0 c1.14-0.25,2.12-0.95,2.73-1.94c0.61-0.99,0.79-2.19,0.5-3.31C71.6,12.86,71.21,11.33,71.21,11.33z"/>
<path d="M98.83,11.33l8.68,1.89c0,0-0.4,1.54-0.83,3.22c-0.62,2.4-3.03,3.88-5.45,3.35c0,0,0,0,0,0 c-1.14-0.25-2.12-0.95-2.73-1.94c-0.61-0.99-0.79-2.19-0.5-3.31C98.43,12.86,98.83,11.33,98.83,11.33z"/>
</g>
<g id="Secondary_Neck-Plate_Heavy" fill="rgb(215, 190, 105)">
<path d="M69.05,11.48l-4.37,0.95c0,0,0.32,1.23,0.62,2.41c0.31,1.21,1.52,1.95,2.74,1.69h0 c0.57-0.12,1.07-0.48,1.38-0.98c0.31-0.5,0.4-1.1,0.25-1.67C69.36,12.71,69.05,11.48,69.05,11.48z"/>
<path d="M100.99,11.48l4.37,0.95c0,0-0.32,1.23-0.62,2.41c-0.31,1.21-1.52,1.95-2.74,1.69h0 c-0.57-0.12-1.07-0.48-1.38-0.98c-0.31-0.5-0.4-1.1-0.25-1.67C100.67,12.71,100.99,11.48,100.99,11.48z"/>
</g>
</g>
<g id="Full-Chest_Heavy">
<path id="Under-Plate_Chest_Heavy" d="M89.97,50.06h-9.92l-2.49,2.13v1.42l1.31-0.54h12.28l1.31,0.55v-1.44 L89.97,50.06z" fill="rgb(215, 190, 105)"/>
<g id="Chest-Plate_Heavy" fill="rgb(196, 202, 206)">
<path d="M67.67,56.46l8.79-5.08l1.19-2.41l2.34,0.31h10.02l2.35-0.31l1.19,2.41l8.79,5.08l4.09,0.89l-0.1,1.49 l-4.37-0.76l-9.51-3.94v-1.96l-2.49-2.13h-9.92l-2.49,2.13v1.96l-9.5,3.94l-4.37,0.76l-0.1-1.49L67.67,56.46z"/>
<path d="M106.44,57.35l5.09-13l0.75,2.66l-1.61,9.67L106.44,57.35z"/>
<path d="M57.75,47.02l0.75-2.66l5.09,13l-4.23-0.67L57.75,47.02z"/>
<path d="M63.45,39.29v-5.43l-0.42-9.74l2.54-2.79l7.68-1.59l1.99,2.32H94.8l1.99-2.32l7.68,1.59l2.54,2.79 l-0.41,9.5l-0.01-0.02v5.69l-14.21,9.69l-2.35,0.31H80.01l-2.34-0.31L63.45,39.29z"/>
<path d="M106.58,33.87v5.43l4.95,5.06L106.58,33.87z"/>
<path d="M77.66,48.98l-14.21-9.69l-4.95,5.06l5.09,13l4.09-0.89l8.79-5.08L77.66,48.98z"/>
<path d="M111.54,44.36l-5.09,13l-4.09-0.89l-8.79-5.08l-1.19-2.41l14.21-9.69L111.54,44.36z"/>
<path d="M110.67,56.69l-0.17,1.04l-4.16,1.12l0.1-1.49L110.67,56.69z"/>
<path d="M63.45,33.87v5.43l-4.95,5.06L63.45,33.87z"/>
<path d="M63.03,24.13c-0.05,4.99-0.64,9.99-2.06,14.98l2.48-5.25L63.03,24.13z"/>
<path d="M107.01,24.13c0.05,4.99,0.64,9.99,2.06,14.98l-2.48-5.25L107.01,24.13z"/>
<path d="M63.59,57.35l0.1,1.49l-4.16-1.12l-0.17-1.04L63.59,57.35z"/>
</g>
<g id="Accents_Chest-Plate_Heavy" class="toggle">
<g id="Accent-3_Accents_Chest-Plate_Heavy" fill="rgb(255, 255, 255)">
<path d="M96.64,33.73l-0.52-1.62h2.37l-0.52,1.62H96.64z"/>
<path d="M96.64,36.86l-0.52-1.62h2.37l-0.52,1.62H96.64z"/>
<rect x="95.11" y="24.12" width="4.45" height="0.49"/>
<rect x="95.11" y="25.67" width="4.45" height="0.49"/>
</g>
<path id="Accent-2_Accents_Chest-Plate_Heavy" d="M71.9,21.57c-0.11-1.4-1.32-2.46-2.72-2.37c0,0,0,0,0,0 c-0.67,0.04-1.29,0.35-1.73,0.86s-0.66,1.17-0.61,1.84c0.06,0.77,0.12,1.63,0.18,2.4c0.11,1.4,1.32,2.46,2.72,2.37c0,0,0,0,0,0 c0.67-0.04,1.29-0.35,1.73-0.86c0.44-0.51,0.66-1.17,0.61-1.84C72.03,23.2,71.96,22.35,71.9,21.57z" fill="rgb(255, 255, 255)"/>
<g id="Accent-1_Accents_Chest-Plate_Heavy" fill="rgb(255, 255, 255)">
<path d="M71.17,19.59l-3.91,0.25l0.49,6.44l3.91-0.25L71.17,19.59z"/>
<path d="M70.74,20.09l-2.98,0.19l0.07,0.92l2.98-0.19L70.74,20.09z"/>
<path d="M68.24,21.18l-0.41,0.03l0.38,5.05l0.41-0.03L68.24,21.18z"/>
<path d="M68.67,21.15l-0.41,0.03l0.38,5.05l0.41-0.03L68.67,21.15z"/>
<path d="M70.81,21.01l-0.41,0.03l0.38,5.05l0.41-0.03L70.81,21.01z"/>
<path d="M70.38,21.04l-0.41,0.03l0.38,5.05l0.41-0.03L70.38,21.04z"/>
<path d="M69.53,21.1l-0.41,0.03l0.38,5.05l0.41-0.03L69.53,21.1z"/>
<path d="M69.95,21.07l-0.41,0.03l0.38,5.05l0.41-0.03L69.95,21.07z"/>
<path d="M69.1,21.12l-0.41,0.03l0.38,5.05l0.41-0.03L69.1,21.12z"/>
</g>
</g>
</g>
<g id="Iron-Heart_Heavy">
<path id="Heart_Heavy" d="M85.02,29.22l2.92,2.69v5.28l-2.92,2.69L82.1,37.2v-5.28L85.02,29.22z" fill="rgb(215, 190, 105)"/><g id="Center_Heart_Heavy" class="option" fill="rgb(196, 202, 206)" style="display: inherit;">
<rect x="83.95" y="31.99" width="2.13" height="2.56"/>
<rect x="83.95" y="34.55" width="0.36" height="2.56"/>
<rect x="85.37" y="34.55" width="0.36" height="2.56"/>
<rect x="85.72" y="34.55" width="0.36" height="2.56"/>
<rect x="84.66" y="34.55" width="0.36" height="2.56"/>
<rect x="85.01" y="34.55" width="0.36" height="2.56"/>
<rect x="84.3" y="34.55" width="0.36" height="2.56"/>
</g>
</g>
</g></g>
<g id="ChestDecals" mask="url(#ChestMask)">
</g>
<g id="Chest-Attachments"><g id="Bandoleer_Accessories_Chest" class="option" style="display: inherit;">
<g id="Strap_Bandoleer_Accessories_Chest" fill="rgb(64, 64, 64)">
<path d="M113.84,15.17L107,11.85L69.01,80.32l6.86,3.76L113.84,15.17"/>
<path d="M111.97,13.92l-2.6-1.21l-8.66,15.61l2.51,1.37L111.97,13.92"/>
<path d="M99.7,36.44l-2.86-1.57l-13.31,24l2.87,1.57L99.7,36.44"/>
<path d="M99.98,37.35l-4.07-2.23l-1.33,2.4l4.07,2.23L99.98,37.35"/>
<path d="M98.36,40.26l-4.07-2.23l-1.33,2.41l4.07,2.23L98.36,40.26"/>
<path d="M96.75,43.17l-4.07-2.23l-1.33,2.4l4.07,2.23L96.75,43.17"/>
<path d="M95.13,46.09l-4.07-2.23l-1.33,2.4l4.07,2.23L95.13,46.09"/>
<path d="M93.52,49l-4.07-2.23l-1.33,2.4l4.07,2.23L93.52,49"/>
<path d="M90.28,54.82l-4.07-2.23L84.88,55l4.07,2.23L90.28,54.82"/>
<path d="M91.9,51.91l-4.07-2.23l-1.33,2.4l4.07,2.23L91.9,51.91"/>
<path d="M88.67,57.74l-4.07-2.23l-1.33,2.4l4.07,2.23L88.67,57.74"/>
</g>
<g id="Ammo_Bandoleer_Accessories_Chest" fill="rgb(196, 202, 206)">
<g>
<g>
<path d="M99.83,37.6l1.67,0.91c0.18,0.1,0.24,0.32,0.14,0.5c-0.19,0.34-0.49,0.89-0.68,1.23 c-0.1,0.18-0.32,0.24-0.5,0.14l-1.67-0.91L99.83,37.6z"/>
<path d="M101.06,38.27l-0.14-0.08l-1.04,1.87l0.14,0.08L101.06,38.27z"/>
<path d="M100.77,38.11l-0.14-0.08l-1.04,1.87l0.14,0.08L100.77,38.11z"/>
</g>
<g>
<path d="M95.77,35.37l-1.04,1.87l-1.67-0.91c-0.18-0.1-0.24-0.32-0.14-0.5c0.19-0.34,0.49-0.89,0.68-1.23 c0.1-0.18,0.32-0.24,0.5-0.14L95.77,35.37z"/>
<path d="M94.51,34.68l-0.14-0.08l-1.04,1.87l0.14,0.08L94.51,34.68z"/>
</g>
</g>
<g>
<g>
<path d="M96.6,43.45l1.67,0.91c0.18,0.1,0.24,0.32,0.14,0.5c-0.19,0.34-0.49,0.89-0.68,1.23 c-0.1,0.18-0.32,0.24-0.5,0.14l-1.67-0.91L96.6,43.45z"/>
<path d="M97.82,44.12l-0.14-0.08l-1.04,1.87l0.14,0.08L97.82,44.12z"/>
<path d="M97.53,43.96l-0.14-0.08l-1.04,1.87l0.14,0.08L97.53,43.96z"/>
</g>
<g>
<path d="M92.53,41.22l-1.04,1.87l-1.67-0.91c-0.18-0.1-0.24-0.32-0.14-0.5c0.19-0.34,0.49-0.89,0.68-1.23 c0.1-0.18,0.32-0.24,0.5-0.14L92.53,41.22z"/>
<path d="M91.27,40.53l-0.14-0.08l-1.04,1.87l0.14,0.08L91.27,40.53z"/>
</g>
</g>
<g>
<g>
<path d="M94.99,46.34l1.67,0.91c0.18,0.1,0.24,0.32,0.14,0.5c-0.19,0.34-0.49,0.89-0.68,1.23 c-0.1,0.18-0.32,0.24-0.5,0.14l-1.67-0.91L94.99,46.34z"/>
<path d="M96.21,47.02l-0.14-0.08l-1.04,1.87l0.14,0.08L96.21,47.02z"/>
<path d="M95.92,46.86l-0.14-0.08l-1.04,1.87l0.14,0.08L95.92,46.86z"/>
</g>
<g>
<path d="M90.92,44.11l-1.04,1.87l-1.67-0.91c-0.18-0.1-0.24-0.32-0.14-0.5c0.19-0.34,0.49-0.89,0.68-1.23 c0.1-0.18,0.32-0.24,0.5-0.14L90.92,44.11z"/>
<path d="M89.66,43.42l-0.14-0.08l-1.04,1.87l0.14,0.08L89.66,43.42z"/>
</g>
</g>
<g>
<g>
<path d="M93.36,49.27l1.67,0.91c0.18,0.1,0.24,0.32,0.14,0.5c-0.19,0.34-0.49,0.89-0.68,1.23 c-0.1,0.18-0.32,0.24-0.5,0.14l-1.67-0.91L93.36,49.27z"/>
<path d="M94.59,49.95l-0.14-0.08l-1.04,1.87l0.14,0.08L94.59,49.95z"/>
<path d="M94.3,49.79l-0.14-0.08l-1.04,1.87l0.14,0.08L94.3,49.79z"/>
</g>
<g>
<path d="M89.3,47.04l-1.04,1.87L86.59,48c-0.18-0.1-0.24-0.32-0.15-0.5c0.19-0.34,0.49-0.89,0.68-1.23 c0.1-0.18,0.32-0.24,0.5-0.14L89.3,47.04z"/>
<path d="M88.04,46.35l-0.14-0.08l-1.04,1.87L87,48.22L88.04,46.35z"/>
</g>
</g>
</g>
<g id="Buckles_Bandoleer_Accessories_Chest" fill="rgb(215, 190, 105)">
<g>
<path d="M104.43,28.05l-2.99-1.64l-1.69,3.05l2.99,1.64L104.43,28.05z"/>
<path d="M103.67,28.57l-2.26-1.24l-1.69,3.05l2.26,1.24L103.67,28.57z"/>
</g>
<path d="M104.44,24.49l-1.93-1.05l1.67-3.03l3.9,2.13l-1.67,3.03L104.44,24.49l0.38-0.68l1.1,0.6l0.92-1.67 l-2.15-1.17l-0.92,1.67l1.05,0.58"/>
</g>
</g></g>
<g id="Collar"><g id="Cloth-Wrap-Right_Collar" class="option" style="display: inherit;">
<g id="Main_Cloth-Wrap-Right_Collar" fill="rgb(105, 105, 105)">
<path d="M95.41,21.42c4.65-1.45,5.5-3.78,5.78-6.13c0.11-0.96-1.26-3.46,0.16-4.1c1.61-0.73,5.4,0.41,6.97,0.75 c1.16,0.25,2.19,1.42,3.38,1.43c2.74,0.03,4.91,3,5.16,4.36c0.35,1.9-3.04,0.56-4.62,2c-3.96,3.61-5.34,8.5-13.67,9.83 c-3.82,0.61-7.61-0.25-11.16-1.04c-9.17-2.03-14.17-3.78-20.06-8.31c-2.58-1.98-6.47-3.59-6.37-6.24c0-0.11,1.88-1.22,2.06-1.27 c1.65-0.41,3.06-1.09,4.88-1.12c1.09-0.02,0.91,0.91,0.99,1.34c0.31,1.62,1.79,2.84,3.66,4.05 C77.47,20.18,88.67,21.17,95.41,21.42z"/>
<path d="M95.41,21.42c1.23,0.05,2.31,0.24,3.25,0.29c4.26,0.26,5.78-0.77,6.6-2.66"/>
<path d="M108.64,11.99c1.23,1.99,1.07,4.34,0.09,5.89"/>
<path d="M72.93,17.68c3.19,4.34,7.92,5.71,13.09,6.23"/>
<path d="M64.3,12.34c0.19,1.1,0.85,1.51,1.66,2.24c0.47,0.43,1.04,0.73,1.41,1.25c0.14,0.19,0.21,0.41,0.29,0.62"/>
</g>
<path id="Buckle_Cloth-Wrap-Right_Collar" d="M74.02,16.86l-2.71-1.93l-4.71,6.53l2.71,1.93L74.02,16.86z" fill="rgb(215, 190, 105)"/>
</g></g>
<g id="CollarDecals" mask="url(#CollarMask)">
</g>
<g id="Helmets" class="swappable" transform="translate(45,-52)"><g id="Helmet_Gunslinger">
<g id="Left-Earcap_Gunslinger" class="toggle"><g id="Ear-Cap_Left_Gunslinger" fill="rgb(215, 190, 105)">
<path d="M59.92,40.84l-0.66,0.28l-0.14,0.68h1.26L59.92,40.84z"/>
<path d="M60.29,35.29l-0.41-0.88l-1.2-0.33v2.89h1.61V35.29z"/>
<path d="M58.24,42.77l1.98-0.16l0.07,2.89l-1.61,0.71l0.44,11.49l-0.44,0.31L58.24,42.77z"/>
<path d="M59.83,45.71l0.09,9.74l-0.81,2.27l-0.44-11.49L59.83,45.71z"/>
<path d="M60.78,42.61l-0.85-1.77l-0.66,0.28l-0.25,1.19l-0.34,0.05v-1.37l1.61-0.65l0.79,2.28H60.78z"/>
<path d="M60.29,40.33v-3.36h-1.61v4.01L60.29,40.33z"/>
<path d="M60.29,35.29l0.61,1.68l0.18,5.64l-0.79-2.28V35.29z"/>
<rect x="58.68" y="35.97" width="1.2" height="1"/>
<path d="M59.02,42.31h1.62l-0.25-0.51h-1.26L59.02,42.31z"/>
<path d="M60.22,42.61l-0.34-0.3h-0.86l-0.34,0.05l-0.44,0.41L60.22,42.61z"/>
<path d="M58.68,34.6l-0.94-0.07l0.02,0.77l0.47,7.48l0.45-0.41V34.6z"/>
</g>
</g>
<g id="Right-Earcap_Gunslinger" class="toggle"><g id="Ear-Cap_Right_Gunslinger" fill="rgb(215, 190, 105)">
<path d="M20.08,40.87l0.66,0.28l0.14,0.68h-1.26L20.08,40.87z"/>
<path d="M19.71,35.32l0.41-0.88l1.2-0.33V37h-1.61V35.32z"/>
<path d="M21.76,42.79l-1.98-0.16l-0.07,2.89l1.61,0.72l-0.44,11.49l0.44,0.31L21.76,42.79z"/>
<path d="M20.17,45.73l-0.09,9.74l0.81,2.27l0.44-11.49L20.17,45.73z"/>
<path d="M19.22,42.64l0.85-1.77l0.66,0.28l0.25,1.19l0.34,0.05v-1.37l-1.61-0.65l-0.79,2.28H19.22z"/>
<path d="M19.71,40.35V37h1.61v4.01L19.71,40.35z"/>
<path d="M19.71,35.32L19.1,37l-0.18,5.64l0.79-2.28V35.32z"/>
<rect x="20.12" y="36" width="1.2" height="1"/>
<path d="M20.98,42.33h-1.61l0.25-0.51h1.26L20.98,42.33z"/>
<path d="M19.78,42.64l0.34-0.3h0.86l0.34,0.05l0.44,0.41L19.78,42.64z"/>
<path d="M21.32,34.62l0.94-0.07l-0.02,0.77l-0.47,7.47l-0.45-0.41V34.62z"/>
</g>
</g>
<g id="Helmet_Pieces_Gunslinger">
<g id="Face_Gunslinger" fill="rgb(196, 202, 206)">
<path d="M23.18,59.57l2.42-9.55l0.01,0c0.18,0.01,3.1,0.32,5.98,4.61c2,2.99,2.57,11.45,2.57,11.45L23.18,59.57z"/>
<path d="M56.8,59.57l-2.42-9.55l-0.01,0c-0.18,0.01-3.1,0.32-5.98,4.61c-2,2.99-2.57,11.45-2.57,11.45L56.8,59.57z"/>
</g>
<g id="Cheeks_Gunslinger" fill="rgb(169, 169, 169)">
<path d="M21.77,42.33l-0.45,15.93l1.86,1.31l2.42-9.55L21.77,42.33z"/>
<path d="M58.21,42.33l0.45,15.93l-1.86,1.31l-2.42-9.55L58.21,42.33z"/>
<path d="M21.79,42.34c0.32,0.08,5.51,1.37,8.64,6.39c3.12,5.02,4.47,16.59,4.55,17.31l0,0.03h-0.82 c0,0-0.56-8.46-2.57-11.45c-2.97-4.43-5.99-4.61-5.99-4.61l-3.82-7.68L21.79,42.34z"/>
<path d="M58.19,42.34c-0.32,0.08-5.51,1.37-8.64,6.39c-3.12,5.02-4.47,16.59-4.55,17.31l0,0.03h0.82 c0,0,0.56-8.46,2.57-11.45c2.97-4.43,5.99-4.61,5.99-4.61l3.83-7.68L58.19,42.34z"/>
</g>
<path fill="rgb(3, 2, 2)" id="Visor_Gunslinger" d="M22.72,37.76l17.27,0.93l17.27-0.93v1.43l-13.48,3.15l-0.94,21.71h-5.7L36.2,42.33 l-13.48-3.15V37.76z"/>
<g id="Eyes_Gunslinger" fill="rgb(196, 202, 206)">
<path d="M22.72,37.76v1.43l13.48,3.15l0.94,21.71l-2.16,2.03c0,0-1.33-12.16-4.55-17.34 c-3.22-5.18-8.65-6.4-8.65-6.4l0.47-7.02h35.5l0.47,7.02c0,0-5.43,1.21-8.65,6.4c-3.22,5.18-4.55,17.34-4.55,17.34l-2.16-2.03 l0.94-21.71l13.48-3.15v-1.43l-17.27,0.93L22.72,37.76z"/>
<rect x="22.21" y="35.77" width="35.56" height="0.46"/>
</g>
<path id="Dome_Gunslinger" d="M57.74,35.32h-35.5c0-9.07,7.95-16.43,17.75-16.43C49.79,18.89,57.74,26.25,57.74,35.32 z" fill="rgb(196, 202, 206)"/>
<path id="Ridge-2_Gunslinger" d="M37.94,37.13l-1.56-1.81V19.23c0,0,1.1-0.58,3.6-0.53l0.03,0 c2.48-0.05,3.58,0.53,3.58,0.53v16.09l-1.56,1.81H37.94z" fill="rgb(215, 190, 105)"/>
<path id="Ridge-1_Gunslinger" d="M38.47,34.92l-0.28-0.28V18.78c0,0,0.55-0.14,1.8-0.08l0.03,0 c1.23-0.05,1.77,0.09,1.77,0.09v15.85l-0.28,0.28H38.47z" fill="rgb(169, 169, 169)"/>
</g>
</g></g>
<g id="HelmetsDecals" mask="url(#HelmetsMask)"/>
<g id="Shoulders">
<g id="Left-Shoulder"><g id="Legacy-x3_Shoulder_Left" class="option" style="display: inherit;">
<path id="Plate-3_Shoulder_Left_Legacy-x3" d="M117.06,20.06l-7.61,7.75l4.46,9.61l10.03-0.53l5.31,4.84l4.73-0.33 L117.06,20.06z" fill="rgb(215, 190, 105)"/>
<path id="Trauma-Plate-3_Shoulder_Legacy-x3_Left" class="toggle" style="" d="M129.88,39.93l3.05-0.21l-14.58-18.47l-6.8,6.92 l3.45,7.43l9.24-0.57L129.88,39.93z" fill="rgb(128, 128, 128)"/>
<path id="Plate-2_Shoulder_Left_Legacy-x3" d="M112.95,15.27l-6.03,9.03l6.18,8.61l9.75-2.38l6.12,3.77l4.58-1.2 L112.95,15.27z" fill="rgb(215, 190, 105)"/>
<path id="Trauma-Plate-2_Shoulder_Legacy-x3_Left" class="toggle" style="" d="M129.25,32.41l2.96-0.77l-17.76-15.47l-5.39,8.05 l4.77,6.67l8.97-2.26L129.25,32.41z" fill="rgb(169, 169, 169)"/>
<path id="Plate-1_Shoulder_Left_Legacy-x3" d="M105.53,10.64l-2.71,10.49l8.68,6.12l8.43-5.43l7.03,1.57l3.93-2.63 L105.53,10.64z" fill="rgb(215, 190, 105)"/>
<path id="Trauma-Plate-1_Shoulder_Legacy-x3_Left" class="toggle" style="" d="M126.6,21.52l2.54-1.7l-21.9-8.79l-2.42,9.37 l6.72,4.74l7.72-5.07L126.6,21.52z" fill="rgb(196, 202, 206)"/>
</g></g>
<g id="Right-Shoulder"><g id="Pauldron_Shoulder_Right" class="option" style="display: inherit;">
<path id="Main_Pauldron_Shoulder_Right" d="M72.17,15.98L43.2,29.62L29.24,15.15l37.49-4.51L72.17,15.98z" fill="rgb(215, 190, 105)"/>
<g id="Plate_Pauldron_Shoulder_Right" fill="rgb(196, 202, 206)">
<path d="M31.9,15.43l11.69,12.07l25.54-12.03l-4.15-4.07L31.9,15.43z"/>
<path d="M31.4,14.89l32.97-3.97L64,10.5l-32.81,3.82L31.4,14.89z"/>
</g>
</g></g>
</g>
<g id="ShouldersDecals" mask="url(#ShouldersMask)">
</g>
<g id="Gauntlets">
<g id="Left-Gauntlets"><g id="Heavy_Gauntlet_Left" class="option" style="display: inherit;">
<g id="Top-2_Heavy_Gauntlet_Left" fill="rgb(215, 190, 105)">
<path d="M138.59,76.62l1.79,0.28l0.78,8.51l-1.63,1.15L138.59,76.62z"/>
<path d="M139.46,85.82l0.98,11.09l-1.1,1.25l0.62,6.53l-0.49,0.3l-1.72-17.87L139.46,85.82z"/>
<path d="M139.73,82.71c0.22,0.02,0.38,0.21,0.36,0.42c-0.02,0.21-0.21,0.37-0.42,0.36 c-0.22-0.02-0.38-0.21-0.36-0.42C139.33,82.85,139.52,82.69,139.73,82.71z"/>
</g>
<g id="Top-1_Heavy_Gauntlet_Left" fill="rgb(196, 202, 206)">
<path d="M134.86,105.83l4.61-0.85l-1.72-17.87l1.71-1.29l-0.92-9.74l-6.76-1.25L134.86,105.83z"/>
<path d="M136.79,75.76l0.96,11.35"/>
</g>
<g id="Accent-Top_Heavy_Gauntlet_Left" fill="rgb(215, 190, 105)">
<path d="M138.4,102.17l-2.92,0.35l0.25,2.26l2.93-0.44L138.4,102.17z"/>
<path d="M137.36,92.7l-2.92,0.35l0.96,8.83l2.92-0.35L137.36,92.7z"/>
<path d="M136.12,76.34l-3.22-0.51l0.91,9.67l3.06-0.36L136.12,76.34z"/>
</g>
<path id="Bottom_Heavy_Gauntlet_Left" d="M131.82,75.29c-3.5-0.15-7.25,1.05-9.76,3.79 c-0.81,0.89-1.14,2.11-0.88,3.29c1.24,5.67,5.3,24.23,5.3,24.23l8.38-0.76L131.82,75.29z" fill="rgb(196, 202, 206)"/>
<g id="Accent-Bottom_Heavy_Gauntlet_Left" fill="rgb(215, 190, 105)">
<path d="M134.86,105.83l-8.38,0.76l-0.33-1.5l8.54-0.89L134.86,105.83z"/>
<path d="M132.02,77.36c-4.54,0.08-8.44,1.41-10.6,6.11l-0.24-1.11c-0.2-0.92-0.04-1.88,0.43-2.68l0.48-0.64 c2.51-2.72,6.24-3.91,9.72-3.75L132.02,77.36z"/>
<path d="M130.96,75.89l-3.7,0.42l1.68,14.61l3.7-0.42L130.96,75.89z"/>
<path d="M130.51,76.22l-2.73,0.31l1.55,13.51l2.73-0.31L130.51,76.22z"/>
<path d="M127.78,76.53l-0.52-0.22"/>
<path d="M130.96,75.89l-0.46,0.33"/>
<path d="M132.64,90.5l-0.58-0.77"/>
<path d="M128.95,90.92l0.46-0.89"/>
</g><g id="Flamethrower_Attachment_Heavy_Gauntlet_Left" class="option" style="display: inherit;">
<g id="Tubes_Flamethrower_Attachment_Heavy_Gauntlet_Left" fill="rgb(196, 202, 206)">
<path d="M140.12,76.96l-0.86,0.08l2.38,26.12l0.86-0.08L140.12,76.96z"/>
<path d="M142.09,76.78l-0.86,0.08l1.71,18.73l0.86-0.08L142.09,76.78z"/>
<path d="M140.54,78.57l-1.3,0.12l0.57,6.22l1.3-0.12L140.54,78.57z"/>
<path d="M142.4,78.4l-1.19,0.11l0.57,6.22l1.19-0.11L142.4,78.4z"/>
</g>
<g id="Main_Flamethrower_Attachment_Heavy_Gauntlet_Left" fill="rgb(215, 190, 105)">
<path d="M142.43,76.35l-3.55,0.32l0.18,2.04l3.55-0.32L142.43,76.35z"/>
<path d="M143.26,84.6l-3.71,0.33l0.09,1l3.71-0.33L143.26,84.6z"/>
<path d="M143.19,85.61l-3.4,0.31l0.04,0.5l3.4-0.31L143.19,85.61z"/>
<path d="M139.87,84.28l-0.57,0.07l0.28,3.04l0.57-0.07L139.87,84.28z"/>
</g>
<g id="Accent_Flamethrower_Attachment_Heavy_Gauntlet_Left" fill="rgb(215, 190, 105)">
<path d="M143.83,95.5l-0.92,0.08l-0.03,1.29l1.21-0.11L143.83,95.5z"/>
<path d="M143.58,88.82l-1.64,0.15l0.18,1.98l1.64-0.15L143.58,88.82z"/>
<path d="M143.54,90.82l-1.19,0.11l0.18,1.98l1.19-0.11L143.54,90.82z"/>
<path d="M142.36,99.77l-1.19,0.11l0.25,2.72l1.19-0.11L142.36,99.77z"/>
<path d="M141.56,91l-1.19,0.11l0.34,3.7l1.19-0.11L141.56,91z"/>
<path d="M142.71,101.11l-1.64,0.15l0.05,0.53l1.64-0.15L142.71,101.11z"/>
</g>
<path id="Base_Flamethrower_Attachment_Heavy_Gauntlet_Left" d="M139.3,84.35l-0.77-8.24l1.02,0.3l1.3,13.94 l-0.95,0.54l-0.32-3.49l0.57-0.07l-0.28-3.04L139.3,84.35z" fill="rgb(215, 190, 105)"/>
</g></g></g>
<g id="Right-Gauntlets"><g id="Heavy_Gauntlet_Right" class="option" style="display: inherit;">
<g id="Top-2_Heavy_Gauntlet_Right" fill="rgb(215, 190, 105)">
<path d="M31.48,76.62l-1.79,0.28l-0.78,8.51l1.63,1.15L31.48,76.62z"/>
<path d="M30.61,85.82l-0.98,11.09l1.1,1.25l-0.62,6.53l0.49,0.3l1.72-17.87L30.61,85.82z"/>
<path d="M30.33,82.71c-0.22,0.02-0.38,0.21-0.36,0.42c0.02,0.21,0.21,0.37,0.42,0.36c0.22-0.02,0.38-0.21,0.36-0.42 C30.74,82.85,30.55,82.69,30.33,82.71z"/>
</g>
<g id="Top-1_Heavy_Gauntlet_Right" fill="rgb(196, 202, 206)">
<path d="M35.21,105.83l-4.61-0.85l1.72-17.87l-1.71-1.29l0.92-9.74l6.77-1.25L35.21,105.83z"/>
<path d="M33.28,75.76l-0.96,11.35"/>
</g>
<g id="Accent-Top_Heavy_Gauntlet_Right" fill="rgb(215, 190, 105)">
<path d="M31.67,102.17l2.92,0.35l-0.25,2.26l-2.93-0.44L31.67,102.17z"/>
<path d="M32.71,92.7l2.92,0.35l-0.96,8.83l-2.92-0.35L32.71,92.7z"/>
<path d="M33.94,76.34l3.22-0.51l-0.91,9.67l-3.06-0.36L33.94,76.34z"/>
</g>
<path id="Bottom_Heavy_Gauntlet_Right" d="M38.25,75.29c3.5-0.15,7.25,1.05,9.76,3.79 c0.81,0.89,1.14,2.11,0.88,3.29c-1.24,5.67-5.3,24.23-5.3,24.23l-8.38-0.76L38.25,75.29z" fill="rgb(196, 202, 206)"/>
<g id="Accent-Bottom_Heavy_Gauntlet_Right" fill="rgb(215, 190, 105)">
<path d="M35.21,105.83l8.38,0.76l0.33-1.5l-8.54-0.89L35.21,105.83z"/>
<path d="M38.04,77.36c4.54,0.08,8.44,1.41,10.6,6.11l0.24-1.11c0.2-0.92,0.04-1.88-0.43-2.68l-0.48-0.64 c-2.51-2.72-6.24-3.91-9.72-3.75L38.04,77.36z"/>
<path d="M39.1,75.89l3.7,0.42l-1.68,14.61l-3.7-0.42L39.1,75.89z"/>
<path d="M39.56,76.22l2.73,0.31l-1.55,13.51L38,89.73L39.56,76.22z"/>
<path d="M42.28,76.53l0.52-0.22"/>
<path d="M39.1,75.89l0.46,0.33"/>
<path d="M37.42,90.5L38,89.73"/>
<path d="M41.12,90.92l-0.46-0.89"/>
</g>
<g id="Whistling-Birds_Attachment_Heavy_Gauntlet_Right" class="option" style="display: inherit;">
<path id="Head_Whistling-Birds_Attachment_Heavy_Gauntlet_Right" d="M26.93,91.37l2.69,5.55l0.48-5.26 L26.93,91.37z" fill="rgb(215, 190, 105)"/>
<g id="Birds_Whistling-Birds_Attachment_Heavy_Gauntlet_Right" fill="rgb(7, 0, 255)">
<g>
<path d="M29.54,91.99c-0.12-0.01-0.25,0.25-0.28,0.58c-0.03,0.33,0.05,0.61,0.17,0.62 c0.12,0.01,0.25-0.25,0.28-0.58C29.74,92.28,29.67,92,29.54,91.99z"/>
<path d="M29.39,93.67c-0.12-0.01-0.25,0.25-0.28,0.58c-0.03,0.33,0.05,0.61,0.17,0.62 c0.12,0.01,0.25-0.25,0.28-0.58C29.59,93.95,29.51,93.68,29.39,93.67z"/>
<path d="M28.68,91.91c-0.12-0.01-0.25,0.25-0.28,0.58c-0.03,0.33,0.05,0.61,0.17,0.62 c0.12,0.01,0.25-0.25,0.28-0.58C28.89,92.2,28.81,91.92,28.68,91.91z"/>
<path d="M29.33,96.32c0.04-0.1,0.07-0.22,0.08-0.36c0.03-0.33-0.05-0.61-0.17-0.62 c-0.09-0.01-0.17,0.12-0.23,0.31L29.33,96.32z M28.55,94.71c0.07-0.1,0.13-0.28,0.15-0.5c0.03-0.33-0.05-0.61-0.17-0.62 c-0.12-0.01-0.23,0.22-0.27,0.52L28.55,94.71z M27.74,93.03c0.12-0.01,0.23-0.26,0.26-0.58c0.03-0.33-0.05-0.61-0.17-0.62 c-0.12-0.01-0.25,0.25-0.28,0.58c-0.01,0.08-0.01,0.15,0,0.22L27.74,93.03z"/>
</g>
</g>
<g id="Base_Whistling-Birds_Attachment_Heavy_Gauntlet_Right" fill="rgb(196, 202, 206)">
<path d="M28.58,75.5l2.12,0.19l-0.08,0.93l-2.12-0.19L28.58,75.5z"/>
<path d="M28.3,76.42l2.32,0.21l-1.37,14.95l-2.32-0.21L28.3,76.42z"/>
<path d="M27.98,76.55l0.31,0.03L27.1,89.49l-0.31-0.03L27.98,76.55z"/>
<path d="M28.68,76.45l0.31,0.03L27.7,90.5l-0.31-0.03L28.68,76.45z"/>
</g>
<g id="Accent_Whistling-Birds_Attachment_Heavy_Gauntlet_Right" fill="rgb(215, 190, 105)">
<path d="M30.73,75.46l0.84,0.08l-1.39,15.18l-0.85-0.08L30.73,75.46z"/>
<path d="M26.85,90.42l3.34,0.3l-0.09,0.93l-3.34-0.3L26.85,90.42z"/>
<path d="M29.31,75.57l1.39,0.13l-0.2,2.18l-1.4-0.13L29.31,75.57z"/>
<path d="M29.44,77.78l1.06,0.1l-0.47,5.18l-0.89-2.04L29.44,77.78z"/>
</g>
</g></g></g>
</g>
<g id="GauntletsDecals" mask="url(#GauntletsMask)">
</g>
<g id="Shins">
<g id="Left-Shin"><g id="Heavy-Shnees_Shin_Left" class="option" style="display: inherit;">
<g id="Shin_Heavy-Shnees-Shin_Left" fill="rgb(196, 202, 206)">
<path d="M111.54,227.68l5.17-6.09l8.89-0.62l-3.48-57.95l-25.35,1.91l10.15,54.02l-0.19,5.85L111.54,227.68"/>
<path d="M100.76,163.84l-2.61-2.36l-1.8-0.09c0,0-1.09,5.09-1.03,7.65c0.09,4.14,4.03,9.62,4.03,9.62l2.72,1.45 l3.47-7.04L100.76,163.84"/>
<path d="M119.31,170.53l2.13-8.56c0,0,2.26,5.01,2.38,7.57c0.2,4.54-0.85,7.47-0.85,7.47L119.31,170.53"/>
<path d="M116.71,221.59l8.89-0.62l-1.97-4.53l-6.06,0.25L116.71,221.59"/>
<path d="M120.49,216.57l-5.22-38.23"/>
</g>
<g id="Knee_Heavy-Shnees-Shin_Left" fill="rgb(215, 190, 105)">
<path d="M117.17,154.03l-14.3,1.68l-2.62,10.15l9.81,13.07l9.45-0.88l3.77-15.36L117.17,154.03"/>
<path d="M102.86,155.71l2.86,3.83l11.07-1.18l0.38-4.33L102.86,155.71"/>
<path d="M105.72,159.54l-5.47,6.29l2.62-10.12L105.72,159.54"/>
<path d="M116.79,158.36l6.48,4.35l-6.1-8.68L116.79,158.36"/>
<path d="M116.79,158.36l2.71,19.71l3.77-15.36L116.79,158.36"/>
<path d="M105.72,159.54l-5.48,6.29l9.81,13.11L105.72,159.54"/>
</g>
<g id="Straps_Heavy-Shnees-Shin_Left" class="toggle" fill="rgb(64, 64, 64)">
<path d="M100.68,187.7l5.46-0.63l0.44,2.46l-5.46,0.63L100.68,187.7"/>
<path d="M101.05,187.46l1.16-0.13l0.53,2.91l-1.15,0.13L101.05,187.46"/>
<path d="M105.09,211.51l5.46-0.63l0.44,2.46l-5.46,0.63L105.09,211.51"/>
<path d="M105.46,211.27l1.15-0.13l0.53,2.92l-1.15,0.13L105.46,211.27"/>
</g>
</g></g>
<g id="Right-Shin"><g id="Heavy-Shnees_Shin_Right" class="option" style="display: inherit;">
<g id="Shin_Heavy-Shnees-Shin_Right" fill="rgb(196, 202, 206)">
<path d="M58.67,227.68l-5.17-6.09l-8.89-0.62l3.46-57.95l25.35,1.89l-10.13,54.02l0.19,5.85L58.67,227.68"/>
<path d="M69.42,163.84l2.61-2.36l1.8-0.09c0,0,1.09,5.09,1.04,7.65c-0.09,4.14-4.03,9.62-4.03,9.62l-2.72,1.45 l-3.48-7.04L69.42,163.84"/>
<path d="M50.88,170.53l-2.13-8.57c0,0-2.26,5.01-2.37,7.57c-0.2,4.54,0.85,7.48,0.85,7.48L50.88,170.53"/>
<path d="M53.5,221.59l-8.89-0.62l1.97-4.53l6.06,0.24L53.5,221.59"/>
<path d="M49.71,216.57l5.21-38.23"/>
</g>
<g id="Knee_Heavy-Shnees-Shin_Right" fill="rgb(215, 190, 105)">
<path d="M53.02,154.03l14.3,1.68l2.63,10.15l-9.81,13.08l-9.45-0.87l-3.77-15.36L53.02,154.03"/>
<path d="M67.32,155.71l-2.86,3.83l-11.06-1.18l-0.38-4.33L67.32,155.71"/>
<path d="M64.46,159.54l5.48,6.29l-2.62-10.12L64.46,159.54"/>
<path d="M53.4,158.36l-6.48,4.35l6.1-8.68L53.4,158.36"/>
<path d="M53.4,158.36l-2.71,19.71l-3.77-15.36L53.4,158.36"/>
<path d="M64.46,159.54l5.48,6.29l-9.81,13.11L64.46,159.54"/>
</g>
<g id="Straps_Heavy-Shnees-Shin_Right" class="toggle" fill="rgb(64, 64, 64)">
<path d="M69.52,187.69l-5.46-0.63l-0.44,2.46l5.46,0.63L69.52,187.69"/>
<path d="M69.15,187.45l-1.16-0.13l-0.52,2.92l1.16,0.13L69.15,187.45"/>
<path d="M65.12,211.51l-5.46-0.63l-0.44,2.46l5.46,0.63L65.12,211.51"/>
<path d="M64.75,211.27l-1.16-0.13l-0.52,2.92l1.15,0.13L64.75,211.27"/>
</g>
</g></g>
</g>
<g id="ShinsDecals" mask="url(#ShinsMask)">
</g>
<g id="Foot">
<g id="Left-Ankle"><g id="Legacy_Ankle_Left" class="option" style="display: inherit;">
<path id="Plate-2_Legacy-Ankle_Left" d="M124.5,223.42l3.77,3.39l2.6,3.25l-4.16,1.34l-9.52-1.97l-3.48-4.58 L124.5,223.42" fill="rgb(215, 190, 105)"/>
<path id="Plate-1_Legacy-Ankle_Left" d="M107.38,217.05c0,0,3.8,1.69,9.42,1.49c3.86-0.14,5.42-1.1,5.42-1.1 l3.27,6.02l-0.85,3.32l-13.76-1.08l-3.39-2.85L107.38,217.05" fill="rgb(215, 190, 105)"/>
<path id="Trauma-Plate-2_Legacy-Ankle_Left" class="toggle" style="" d="M125.31,224.15l2.94,2.64l1.52,1.89l-3.16,1.02 l-8.38-1.73l-1.38-1.81l7.79,0.61L125.31,224.15" fill="rgb(169, 169, 169)"/>
<path id="Trauma-Plate-1_Legacy-Ankle_Left" class="toggle" style="" d="M108.82,219.15l0.06,2.76l2.74,2.21l12.1,0.95l0.86-3.32 l-1.54-2.84c-1.02,0.29-4.12,1.18-6.16,1.26C113.64,220.28,110.62,219.62,108.82,219.15" fill="rgb(196, 202, 206)"/>
</g></g>
<g id="Left-Toe">
<g id="Armored_Toe_Left" class="option" style="display: inherit;">
<g id="Plate_Armored_Toe_Left" fill="rgb(196, 202, 206)">
<path d="M115.81,232.98l10,5.52l7.55,0.51l6.05-1.53c1.27-1.05,1.77-3.41,0.69-5.76l-8.53-4.03l-6.69,1.67 L115.81,232.98"/>
<path d="M124.19,229.66c0,0,7.8,2.27,8.77,3.62c1.08,1.49,0.4,5.74,0.4,5.74"/>
</g>
<g id="Trim_Armored_Toe_Left" fill="rgb(215, 190, 105)">
<path d="M130.41,227.04l-8.03,1.93l-6.78,4.09l1.4,0.77l7.18-4.18l7.99-1.87L130.41,227.04"/>
<path d="M122.38,228.97l1.8,0.69"/>
</g>
</g></g>
<g id="Right-Ankle"><g id="Legacy_Ankle_Right" class="option" style="display: inherit;">
<path id="Plate-2_Legacy-Ankle_Right" d="M45.56,223.42l-3.77,3.39l-2.6,3.25l4.16,1.34l9.52-1.97l3.48-4.58 L45.56,223.42" fill="rgb(215, 190, 105)"/>
<path id="Plate-1_Legacy-Ankle_Right" d="M62.68,217.05c0,0-3.8,1.69-9.42,1.49c-3.86-0.14-5.43-1.1-5.43-1.1 l-3.27,6.02l0.85,3.32l13.76-1.08l3.39-2.85L62.68,217.05" fill="rgb(215, 190, 105)"/>
<path id="Trauma-Plate-2_Legacy-Ankle_Right" class="toggle" style="" d="M44.75,224.15l-2.94,2.64l-1.52,1.89l3.16,1.02 l8.38-1.73l1.38-1.81l-7.79,0.61L44.75,224.15" fill="rgb(169, 169, 169)"/>
<path id="Trauma-Plate-1_Legacy-Ankle_Right" class="toggle" style="" d="M61.24,219.15l-0.06,2.76l-2.74,2.21l-12.1,0.95 l-0.86-3.32l1.54-2.84c1.02,0.29,4.12,1.18,6.16,1.26C56.42,220.28,59.44,219.62,61.24,219.15" fill="rgb(196, 202, 206)"/>
</g></g>
<g id="Right-Toe">
<g id="Armored_Toe_Right" class="option" style="display: inherit;">
<g id="Plate_Armored_Toe_Right" fill="rgb(196, 202, 206)">
<path d="M54.19,232.98l-10,5.52l-7.55,0.51l-6.05-1.53c-1.27-1.05-1.77-3.41-0.69-5.76l8.53-4.03l6.69,1.67 L54.19,232.98"/>
<path d="M45.81,229.66c0,0-7.8,2.27-8.77,3.62c-1.08,1.49-0.4,5.74-0.4,5.74"/>
</g>
<g id="Trim_Armored_Toe_Right" fill="rgb(215, 190, 105)">
<path d="M39.59,227.04l8.03,1.93l6.77,4.09l-1.4,0.77l-7.18-4.18l-7.99-1.87L39.59,227.04"/>
<path d="M47.62,228.97l-1.8,0.69"/>
</g>
</g></g>
</g>
<g id="FootDecals" mask="url(#FootMask)">
</g>
<g id="Knees">
<g id="Left-Knee">
<g id="None-(Nih-Plates)_Knee_Left" class="option" style="display: inherit;">
</g></g>
<g id="Right-Knee">
<g id="None-(Nih-Plates)_Knee_Right" class="option" style="display: inherit;">
</g></g>
</g>
<g id="KneesDecals" mask="url(#KneesMask)">
</g>
<g id="Thighs">
<g id="Left-Thigh"><g id="Legacy_Thigh_Left" class="option" style="display: inherit;">
<path id="Plate-3_Legacy-Thigh_Left" d="M96.37,139.98l1.9,11l10.72,1.66l8.66-3.76l0.42-11.24l-9.86,4.6 L96.37,139.98" fill="rgb(215, 190, 105)"/>
<path id="Plate-2_Legacy-Thigh_Left" d="M93.99,129.38l1.83,10.5l12.4,2.37l10.42-4.87l0.51-12.79l-11.78,7.48 L93.99,129.38" fill="rgb(215, 190, 105)"/>
<path id="Plate-1_Legacy-Thigh_Left" d="M120.27,114.15l-9.17-7.97l-12.25,2l-7.03,11.56l1.76,9.56l13.79,2.77 l12.32-7.82L120.27,114.15" fill="rgb(215, 190, 105)"/>
<path id="Trauma-Plate-3_Legacy-Thigh_Left" class="toggle" style="" d="M115.98,141.07l-7.04,3.29c-0.33,0.15-0.7,0.2-1.05,0.13 l-9.05-1.73l1.07,6.19l8.85,1.37l6.99-3.04L115.98,141.07" fill="rgb(196, 202, 206)"/>
<path id="Trauma-Plate-2_Legacy-Thigh_Left" class="toggle" style="" d="M117.03,128.52l-8.72,5.54 c-0.39,0.25-0.84,0.33-1.27,0.25l-10.56-2.12l0.99,5.7l10.52,2.01l8.75-4.09L117.03,128.52" fill="rgb(196, 202, 206)"/>
<path id="Trauma-Plate-1_Legacy-Thigh_Left" class="toggle" style="" d="M99.96,110.29l-6.05,9.95l1.31,7.08l11.81,2.37 l10.78-6.84l0.43-7.62l-7.67-6.67L99.96,110.29" fill="rgb(196, 202, 206)"/>
<g id="Ridge_Legacy-Thigh_Left" class="toggle" style="display:none" fill="rgb(255, 255, 255)"/>
</g></g>
<g id="Right-Thigh"><g id="Legacy_Thigh_Right" class="option" style="display: inherit;">
<path id="Plate-3_Legacy-Thigh_Right" d="M73.63,139.98l-1.9,11l-10.72,1.66l-8.66-3.76l-0.42-11.24l9.86,4.6 L73.63,139.98" fill="rgb(215, 190, 105)"/>
<path id="Plate-2_Legacy-Thigh_Right" d="M76.01,129.38l-1.83,10.5l-12.4,2.37l-10.42-4.87l-0.51-12.79l11.78,7.48 L76.01,129.38" fill="rgb(215, 190, 105)"/>
<path id="Plate-1_Legacy-Thigh_Right" d="M49.73,114.15l9.17-7.97l12.25,2l7.03,11.56l-1.76,9.56l-13.79,2.77 l-12.32-7.82L49.73,114.15" fill="rgb(215, 190, 105)"/>
<path id="Trauma-Plate-3_Legacy-Thigh_Right" class="toggle" style="" d="M54.02,141.07l7.03,3.29c0.33,0.15,0.7,0.2,1.05,0.13 l9.05-1.73l-1.07,6.19l-8.85,1.37l-6.99-3.04L54.02,141.07" fill="rgb(196, 202, 206)"/>
<path id="Trauma-Plate-2_Legacy-Thigh_Right" class="toggle" style="" d="M52.97,128.52l8.72,5.54c0.39,0.25,0.84,0.33,1.28,0.25 l10.56-2.12l-0.99,5.7l-10.52,2.01l-8.75-4.09L52.97,128.52" fill="rgb(196, 202, 206)"/>
<path id="Trauma-Plate-1_Legacy-Thigh_Right" class="toggle" style="" d="M70.04,110.29l6.05,9.95l-1.31,7.08l-11.81,2.37 l-10.78-6.84l-0.43-7.62l7.67-6.67L70.04,110.29" fill="rgb(196, 202, 206)"/>
<g id="Ridge_Legacy-Thigh_Right" class="toggle" style="display:none" fill="rgb(255, 255, 255)"/>
</g></g>
</g>
<g id="ThighsDecals" mask="url(#ThighsMask)">
</g>
<g id="Groin"><g id="Basic_Groin" class="option" style="display: inherit;">
<path id="Groin-Plate_Basic" d="M78.57,104.6L67.72,82.91h34.71L91.58,104.6c0,0-4.33,5.17-6.5,5.17 C82.91,109.76,78.57,104.6,78.57,104.6z" fill="rgb(215, 190, 105)"/>
<path id="Trauma-Plating_Groin" class="toggle" style="" d="M90.42,103.84l9.8-19.57H69.93l9.79,19.57c0.43,0.5,2.16,2.47,3.82,3.72 c0.58,0.44,1.1,0.84,1.53,0.84c0.44,0,0.95-0.4,1.53-0.84C88.26,106.32,89.99,104.34,90.42,103.84" fill="rgb(196, 202, 206)"/>
</g>
</g>
<g id="GroinDecals" mask="url(#GroinMask)">
</g>
<g id="Waist">
<g id="Accessories_Waist">
<g id="Kama" class="toggle" style="display:none"/>
<g id="Loin-Cloth" class="toggle" style="display:none"/>
<g id="Left-Holster" class="toggle" style=""><g id="Hanging-Holster_Left" class="option" style="display: inherit;">
<g id="Weapon_Hanging-Holster-Left">
<g id="Main_Weapon_Hanging-Holster-Left" fill="rgb(196, 202, 206)">
<path d="M118.4,115.51l0.17-3.74l0.65,0.03l0.11-2.35l-0.65-0.03l0.06-1.22c0.02-0.4,0.57-0.69,1.22-0.66 c1.5,0.07,4.08,0.19,5.59,0.26c0.66,0.03,1.17,0.38,1.15,0.77l-0.06,1.22l-0.65-0.03l-0.11,2.35l0.65,0.03l-0.17,3.74 l-1.52-0.07l-0.48,10.35l-4.92-0.23l0.48-10.35L118.4,115.51z"/>
<path d="M125.74,115.3l-0.87-0.04l-0.58,12.43l-4.92-0.23l0.58-12.44l-0.87-0.04l0.13-2.84l6.67,0.31 L125.74,115.3z"/>
<path d="M124.69,108.56l-3.95-0.18l-0.18,3.84l3.95,0.18L124.69,108.56z"/>
<path d="M121.03,116.2l-0.65-0.03l-0.45,9.78l0.65,0.03L121.03,116.2z"/>
<path d="M122.78,114.05l-0.65-0.03l-0.45,9.78l0.65,0.03L122.78,114.05z"/>
<path d="M124.33,116.36l-0.65-0.03l-0.45,9.78l0.65,0.03L124.33,116.36z"/>
</g>
<g id="Accent_Weapon_Hanging-Holster-Left" fill="rgb(215, 190, 105)">
<path d="M121.13,112.64l-0.02,0.39l2.78,0.13l0.02-0.39L121.13,112.64z"/>
<path d="M121.11,113.03l-0.02,0.39l2.78,0.13l0.02-0.39L121.11,113.03z"/>
<path d="M121.15,112.25l-0.02,0.39l2.78,0.13l0.02-0.39L121.15,112.25z"/>
<path d="M121.37,107.43l-0.02,0.39l2.78,0.13l0.02-0.39L121.37,107.43z"/>
<path d="M121.39,108.41l-0.65-0.03l-0.18,3.84l0.65,0.03L121.39,108.41z"/>
<path d="M124.69,108.56l-0.65-0.03l-0.18,3.84l0.65,0.03L124.69,108.56z"/>
<path d="M123.68,116.33l-0.98-0.04l-0.46,9.78l0.98,0.04L123.68,116.33z"/>
<path d="M122.02,116.25l-0.98-0.05l-0.45,9.78l0.98,0.04L122.02,116.25z"/>
</g>
</g>
<path id="Holster_Hanging-Holster-Left" d="M118.44,129.93l-0.79-15.75l7.32,11.86l-1.62,21.43 c-1.71,1.78-3.39,1.79-5.04-0.19L118.44,129.93z" fill="rgb(64, 64, 64)"/>
<g id="Straps_Hanging-Holster-Left" fill="rgb(64, 64, 64)">
<path d="M90.44,88.76c8.01,11.42,16.07,21.09,27.21,25.41l0.14,2.7c-13.85-5.81-21.28-15.64-29.47-28.11H90.44z"/>
<path d="M118.4,133.13c-7.49,5.7-15.58,8.8-25.28,9.32l0.69,2.14c8.39-0.76,16.22-3.85,24.59-9.21V133.13z"/>
<path d="M118.4,135.38l0.02-2.25c1.95,0.86,4.21,0.92,5.99,0.29l-0.17,2.3 C122.32,136.21,120.14,136.24,118.4,135.38z"/>
</g>
<g id="Buckle_Hanging-Holster-Left" fill="rgb(215, 190, 105)">
<path d="M100.89,142.34l-1.05,0.16l0.05,0.34l1.05-0.16L100.89,142.34"/>
<path d="M98.03,100.3l-0.73-0.96l-0.28,0.21l0.73,0.96L98.03,100.3"/>
<path d="M97.75,100.51l-1.19,0.96l-2.8-3.44l2.7-2.18l2.8,3.44l-1.24,1l-0.6-0.79l0.61-0.49l-1.55-1.9l-1.49,1.2 l1.55,1.9l0.61-0.49L97.75,100.51"/>
<path d="M100.85,142.34l-0.83,0.12l-0.12-0.81l-2.02,0.43l0.28,1.88l2.01-0.43l-0.11-0.73l0.83-0.12l0.22,1.44 l-3.66,0.78l-0.51-3.41l3.66-0.78L100.85,142.34"/>
</g>
</g></g>
<g id="Right-Holster" class="toggle" style=""><g id="Hanging-Holster_Right" class="option" style="display: inherit;">
<g id="Weapon_Hanging-Holster-Right">
<g id="Main_Weapon_Hanging-Holster-Right" fill="rgb(196, 202, 206)">
<path d="M51.58,115.51l-0.17-3.74l-0.65,0.03l-0.11-2.35l0.65-0.03l-0.06-1.22c-0.02-0.4-0.56-0.69-1.22-0.66 c-1.51,0.07-4.08,0.19-5.58,0.26c-0.66,0.03-1.17,0.38-1.16,0.77l0.06,1.22l0.65-0.03l0.11,2.35l-0.65,0.03l0.17,3.74 l1.52-0.07l0.48,10.35l4.92-0.23l-0.48-10.35L51.58,115.51z"/>
<path d="M44.24,115.3l0.87-0.04l0.58,12.43l4.92-0.23l-0.58-12.44l0.87-0.04l-0.13-2.84l-6.67,0.31L44.24,115.3z"/>
<path d="M45.29,108.56l3.95-0.18l0.18,3.84l-3.95,0.18L45.29,108.56z"/>
<path d="M48.96,116.2l0.65-0.03l0.45,9.78l-0.65,0.03L48.96,116.2z"/>
<path d="M47.2,114.05l0.65-0.03l0.45,9.78l-0.65,0.03L47.2,114.05z"/>
<path d="M45.65,116.36l0.65-0.03l0.45,9.78l-0.65,0.03L45.65,116.36z"/>
</g>
<g id="Accent_Weapon_Hanging-Holster-Right" fill="rgb(215, 190, 105)">
<path d="M48.85,112.64l0.02,0.39l-2.78,0.13l-0.02-0.39L48.85,112.64z"/>
<path d="M48.87,113.03l0.02,0.39l-2.78,0.13l-0.02-0.39L48.87,113.03z"/>
<path d="M48.84,112.25l0.02,0.39l-2.78,0.13l-0.02-0.39L48.84,112.25z"/>
<path d="M48.61,107.43l0.02,0.39l-2.78,0.13l-0.02-0.39L48.61,107.43z"/>
<path d="M48.59,108.41l0.65-0.03l0.18,3.84l-0.65,0.03L48.59,108.41z"/>
<path d="M45.29,108.56l0.65-0.03l0.18,3.84l-0.65,0.03L45.29,108.56z"/>
<path d="M46.3,116.33l0.98-0.04l0.45,9.78l-0.98,0.04L46.3,116.33z"/>
<path d="M47.97,116.25l0.98-0.05l0.45,9.78l-0.98,0.04L47.97,116.25z"/>
</g>
</g>
<path id="Holster_Hanging-Holster-Right" d="M51.54,129.93l0.79-15.75l-7.32,11.86l1.62,21.43 c1.71,1.78,3.39,1.79,5.04-0.19L51.54,129.93z" fill="rgb(64, 64, 64)"/>
<g id="Straps_Hanging-Holster-Right" fill="rgb(64, 64, 64)">
<path d="M79.54,88.76c-8.01,11.42-16.07,21.09-27.21,25.41l-0.13,2.7c13.85-5.81,21.28-15.64,29.47-28.11H79.54z"/>
<path d="M51.59,133.13c7.49,5.7,15.58,8.8,25.28,9.32l-0.69,2.14c-8.39-0.76-16.22-3.85-24.59-9.21V133.13z"/>
<path d="M51.59,135.38l-0.02-2.25c-1.94,0.86-4.21,0.92-5.99,0.29l0.17,2.3 C47.67,136.21,49.85,136.24,51.59,135.38z"/>
</g>
<g id="Buckle_Hanging-Holster-Right" fill="rgb(215, 190, 105)">
<path d="M69.09,142.34l1.05,0.16l-0.05,0.34l-1.05-0.16L69.09,142.34"/>
<path d="M71.96,100.3l0.73-0.96l0.28,0.21l-0.73,0.96L71.96,100.3"/>
<path d="M72.23,100.51l1.19,0.96l2.8-3.44l-2.7-2.18l-2.8,3.44l1.24,1l0.6-0.79l-0.61-0.49l1.54-1.9l1.49,1.2 l-1.55,1.9l-0.61-0.49L72.23,100.51"/>
<path d="M69.13,142.34l0.83,0.12l0.12-0.81l2.01,0.43l-0.28,1.88l-2.01-0.43l0.11-0.73l-0.83-0.12l-0.22,1.44 l3.66,0.78l0.51-3.41l-3.66-0.78L69.13,142.34"/>
</g>
</g></g>
<g id="Left-Trophy" class="toggle" style="display:none"/>
<g id="Right-Trophy" class="toggle" style="display:none"/>
</g>
<g id="Under-Belt"><g id="Girth-Belt" class="option" fill="rgb(105, 105, 105)" style="display: inherit;">
<path d="M85.04,76.62c-7.36,0-22.09-1.86-22.09-1.86l0.48-1.58c0,0,14.37,1.24,21.61,1.86 c7.21-0.62,21.61-1.86,21.61-1.86l0.48,1.58C107.13,74.76,92.4,76.62,85.04,76.62z"/>
<path d="M85.04,78.2c-7.52,0-22.55-1.86-22.55-1.86l0.46-1.58c0,0,18.41,1.55,22.09,1.86 c3.68-0.31,22.09-1.86,22.09-1.86l0.46,1.58C107.59,76.34,92.56,78.2,85.04,78.2z"/>
<path d="M85.04,79.78c-7.63,0-22.9-1.86-22.9-1.86l0.34-1.58c0,0,18.79,1.55,22.55,1.86 c3.76-0.31,22.55-1.86,22.55-1.86l0.34,1.58C107.94,77.92,92.67,79.78,85.04,79.78z"/>
<path d="M85.04,81.36c-7.73,0-23.18-1.86-23.18-1.86l0.29-1.58c0,0,19.08,1.55,22.9,1.86 c3.82-0.31,22.9-1.86,22.9-1.86l0.29,1.58C108.22,79.49,92.77,81.36,85.04,81.36z"/>
<path d="M85.04,82.94c-7.81,0-23.44-1.86-23.44-1.86l0.26-1.58c0,0,19.32,1.55,23.18,1.86 c3.86-0.31,23.18-1.86,23.18-1.86l0.26,1.58C108.49,81.07,92.86,82.94,85.04,82.94z"/>
<path d="M85.04,84.52c-7.9,0-23.69-1.86-23.69-1.86l0.25-1.58c0,0,19.54,1.55,23.44,1.86 c3.91-0.31,23.44-1.86,23.44-1.86l0.25,1.58C108.73,82.65,92.94,84.52,85.04,84.52z"/>
<path d="M85.04,86.1c-7.98,0-23.93-1.86-23.93-1.86l0.24-1.58c0,0,19.74,1.55,23.69,1.86 c3.95-0.31,23.69-1.86,23.69-1.86l0.24,1.58C108.97,84.23,93.02,86.1,85.04,86.1z"/>
<path d="M85.04,87.68c-8.06,0-24.18-1.86-24.18-1.86l0.25-1.58c0,0,19.94,1.55,23.93,1.86 c3.99-0.31,23.93-1.86,23.93-1.86l0.25,1.58C109.22,85.81,93.1,87.68,85.04,87.68z"/>
<path d="M85.04,89.25c-8.15,0-24.45-1.86-24.45-1.86l0.27-1.58c0,0,20.15,1.55,24.18,1.86 c4.03-0.31,24.18-1.86,24.18-1.86l0.27,1.58C109.49,87.39,93.19,89.25,85.04,89.25z"/>
<path d="M85.04,90.83c-8.25,0-24.76-1.86-24.76-1.86l0.31-1.58c0,0,20.38,1.55,24.45,1.86 c4.08-0.31,24.45-1.86,24.45-1.86l0.31,1.58C109.8,88.97,93.29,90.83,85.04,90.83z"/>
</g>
</g>
<g id="Belt"><g id="Pouch-Belt-6" class="option" style="display: inherit;">
<path id="Main_Pouch-Belt-6" d="M109.38,84.25c-5.47,0.49-17.98,2.27-24.29,2.27c-6.38,0-18.88-1.79-24.28-2.26 l0.81-6.37c4.44,0.39,17.3,2.2,23.48,2.2c5.99,0,18.59-1.79,23.33-2.22L109.38,84.25z" fill="rgb(196, 202, 206)"/>
<rect id="Buckle_Pouch-Belt-6" x="80.61" y="79.49" width="9.05" height="7.39" fill="rgb(215, 190, 105)"/>
<g id="Pouches_Pouch-Belt-6" fill="rgb(64, 64, 64)">
<g>
<g>
<g>
<path d="M75.55,77.98c-1.42-0.09-2.85,0.13-4.17,0.65l0,0L77.86,79l1.76-0.75 C79.62,78.25,77.35,78.1,75.55,77.98z"/>
<path d="M79.85,78.48c0.01-0.07-0.02-0.14-0.08-0.18c-0.06-0.04-0.14-0.05-0.2-0.02 c-0.57,0.24-1.7,0.73-1.7,0.73l-0.84,9.96c0.71-0.41,1.42-0.64,2.11-0.75c0.1-0.01,0.17-0.1,0.18-0.19 C79.41,84.83,79.53,81.65,79.85,78.48z"/>
<path d="M77.86,79l-6.48-0.37c-0.04,1.51-0.18,3.02-0.26,4.54c-0.09,1.75-0.13,3.52-0.3,5.29 c0,0.06,0.01,0.12,0.05,0.16c0.04,0.04,0.1,0.07,0.15,0.07c2.02-0.01,4.03,0.1,6.04,0.35c0.06,0.01,0.11-0.01,0.16-0.04 c0.04-0.04,0.07-0.09,0.08-0.14c0.06-0.92,0.31-4.51,0.31-4.51L77.86,79z"/>
<path d="M77.86,79l-6.48-0.37c0,0-0.07,0.58-0.16,1.34c-0.11,0.91,0.16,1.83,0.76,2.53 c0.59,0.7,1.45,1.13,2.37,1.19c0,0,0,0,0,0c0.92,0.05,1.82-0.28,2.49-0.91c0.67-0.63,1.04-1.51,1.04-2.43 C77.87,79.58,77.86,79,77.86,79z"/>
<path d="M74.42,82.49c0.23,0.01,0.41,0.21,0.39,0.44c-0.01,0.23-0.21,0.4-0.44,0.39 c-0.23-0.01-0.41-0.21-0.39-0.44C73.99,82.65,74.19,82.48,74.42,82.49z"/>
</g>
</g>
<g>
<g>
<path d="M66.42,76.75c-1.32-0.09-2.64,0.14-3.85,0.67h0l5.92,0.34L70.1,77C70.1,77,68.06,76.86,66.42,76.75z"/>
<path d="M70.3,77.24c0.01-0.07-0.03-0.14-0.09-0.19c-0.06-0.04-0.14-0.05-0.21-0.02 c-0.53,0.25-1.52,0.72-1.52,0.72l-0.82,9.96c0.65-0.41,1.29-0.65,1.92-0.76c0.1-0.02,0.17-0.1,0.17-0.19 C69.87,83.59,69.99,80.41,70.3,77.24z"/>
<path d="M68.49,77.76l-5.92-0.34c-0.04,1.51-0.18,3.02-0.26,4.54c-0.09,1.75-0.13,3.51-0.3,5.28 c-0.01,0.06,0.01,0.12,0.05,0.16c0.04,0.04,0.1,0.07,0.15,0.07c1.83-0.02,3.66,0.08,5.47,0.31c0.06,0.01,0.11-0.01,0.16-0.04 s0.07-0.09,0.08-0.14c0.06-0.93,0.31-4.51,0.31-4.51L68.49,77.76z"/>
<path d="M68.49,77.76l-5.92-0.34c0,0-0.08,0.74-0.19,1.64c-0.1,0.83,0.16,1.67,0.7,2.31 c0.54,0.64,1.33,1.03,2.17,1.08c0,0,0,0,0,0c0.84,0.05,1.67-0.25,2.28-0.83c0.61-0.58,0.96-1.38,0.96-2.22 C68.49,78.5,68.49,77.76,68.49,77.76z"/>
<path d="M65.32,81.27c0.21,0.01,0.37,0.21,0.36,0.44c-0.01,0.23-0.19,0.4-0.4,0.39s-0.37-0.21-0.36-0.44 C64.93,81.43,65.11,81.26,65.32,81.27z"/>
</g>
</g>
<g>
<path d="M58.83,77.31l0.44-0.68l2.27,0.07l0.28,0.85L58.83,77.31z"/>
<path d="M61.81,77.64c0.01-0.06-0.01-0.11-0.05-0.16c-0.04-0.04-0.09-0.07-0.15-0.07 c-0.69-0.03-2.78-0.11-2.78-0.11l-0.4,8.96c0.11,0.27,1.76,0.43,2.69,0.39c0.11-0.01,0.19-0.09,0.19-0.2 C61.37,83.51,61.47,80.57,61.81,77.64z"/>
</g>
</g>
<g>
<g>
<g>
<path d="M94.63,77.98c1.42-0.09,2.85,0.13,4.17,0.65l0,0L92.32,79l-1.76-0.75 C90.56,78.25,92.83,78.1,94.63,77.98z"/>
<path d="M90.33,78.48c-0.01-0.07,0.02-0.14,0.08-0.18c0.06-0.04,0.14-0.05,0.2-0.02c0.57,0.24,1.7,0.73,1.7,0.73 l0.84,9.96c-0.71-0.41-1.42-0.64-2.11-0.75c-0.1-0.01-0.17-0.1-0.18-0.19C90.77,84.83,90.66,81.65,90.33,78.48z"/>
<path d="M92.32,79l6.48-0.37c0.04,1.51,0.18,3.02,0.26,4.54c0.09,1.75,0.13,3.52,0.3,5.29 c0,0.06-0.01,0.12-0.05,0.16c-0.04,0.04-0.1,0.07-0.15,0.07c-2.02-0.01-4.03,0.1-6.04,0.35c-0.06,0.01-0.11-0.01-0.16-0.04 c-0.04-0.04-0.07-0.09-0.08-0.14c-0.06-0.92-0.31-4.51-0.31-4.51L92.32,79z"/>
<path d="M92.32,79l6.48-0.37c0,0,0.07,0.58,0.16,1.34c0.11,0.91-0.16,1.83-0.76,2.53 c-0.59,0.7-1.45,1.13-2.37,1.19c0,0,0,0,0,0c-0.92,0.05-1.82-0.28-2.49-0.91c-0.67-0.63-1.04-1.51-1.04-2.43 C92.31,79.58,92.32,79,92.32,79z"/>
<path d="M95.76,82.49c-0.23,0.01-0.41,0.21-0.39,0.44c0.01,0.23,0.21,0.4,0.44,0.39 c0.23-0.01,0.41-0.21,0.39-0.44C96.19,82.65,96,82.48,95.76,82.49z"/>
</g>
</g>
<g>
<g>
<path d="M103.76,76.75c1.32-0.09,2.64,0.14,3.85,0.67h0l-5.92,0.34L100.08,77 C100.08,77,102.13,76.86,103.76,76.75z"/>
<path d="M99.88,77.24c-0.01-0.07,0.03-0.14,0.09-0.19c0.06-0.04,0.14-0.05,0.21-0.02 c0.53,0.25,1.52,0.72,1.52,0.72l0.82,9.96c-0.65-0.41-1.29-0.65-1.92-0.76c-0.1-0.02-0.17-0.1-0.17-0.19 C100.31,83.59,100.19,80.41,99.88,77.24z"/>
<path d="M101.69,77.76l5.92-0.34c0.04,1.51,0.18,3.02,0.26,4.54c0.09,1.75,0.13,3.51,0.3,5.28 c0,0.06-0.01,0.12-0.05,0.16c-0.04,0.04-0.1,0.07-0.15,0.07c-1.83-0.02-3.66,0.08-5.47,0.31c-0.06,0.01-0.11-0.01-0.16-0.04 s-0.07-0.09-0.08-0.14c-0.06-0.93-0.31-4.51-0.31-4.51L101.69,77.76z"/>
<path d="M101.69,77.76l5.92-0.34c0,0,0.08,0.74,0.19,1.64c0.09,0.83-0.16,1.67-0.7,2.31 c-0.54,0.64-1.33,1.03-2.17,1.08c0,0,0,0,0,0c-0.84,0.05-1.67-0.25-2.28-0.83c-0.61-0.58-0.96-1.38-0.96-2.22 C101.69,78.5,101.69,77.76,101.69,77.76z"/>
<path d="M104.86,81.27c-0.21,0.01-0.37,0.21-0.36,0.44c0.01,0.23,0.19,0.4,0.4,0.39s0.37-0.21,0.36-0.44 C105.25,81.43,105.07,81.26,104.86,81.27z"/>
</g>
</g>
<g>
<path d="M111.35,77.31l-0.44-0.68l-2.27,0.07l-0.28,0.85L111.35,77.31z"/>
<path d="M108.38,77.64c-0.01-0.06,0.01-0.11,0.05-0.16c0.04-0.04,0.09-0.07,0.15-0.07 c0.69-0.03,2.78-0.11,2.78-0.11l0.4,8.96c-0.11,0.27-1.75,0.43-2.68,0.39c-0.11-0.01-0.19-0.09-0.19-0.2 C108.81,83.51,108.71,80.57,108.38,77.64z"/>
</g>
</g>
</g>
</g></g>
</g>
<g id="WaistDecals" mask="url(#WaistMask)">
</g>
<g id="Extras_Front">
<g id="Front"><g id="None_Front" class="option" style="display: inherit;">
</g>
</g>
</g>
<g id="Extras-FrontDecals" mask="url(#FrontMask)">
</g>
</g>
</svg>