<?xml version='1.0' encoding='UTF-8'?><svg version='1.1' xmlns='http://www.w3.org/2000/svg'><metadata><rdf:rdf xmlns:rdf="http://www.w3.org/1999/02/22-rdf-syntax-ns#" xmlns:rdfs="http://www.w3.org/2000/01/rdf-schema#" xmlns:dc="http://purl.org/dc/elements/1.1/"> <rdf:description> <dc:creator>MandoCreator</dc:creator> <dc:publisher>https://www.mandocreator.com</dc:publisher> <dc:description>Your Beskar'gam - created by MandoCreator</dc:description> <dc:format>image/svg+xml</dc:format> <dc:type>Image</dc:type> <dc:title>MandoCreator - Ner Berskar'gam</dc:title> <dc:date>2021-10-08T16:48:50.233Z</dc:date> </rdf:description> </rdf:rdf></metadata><svg version="1.1" id="Female" xmlns="http://www.w3.org/2000/svg" viewBox="0 -55 169 300" style="fill: white; fill-rule: evenodd; stroke: black; stroke-width: 0.2px; pointer-events: none; position: relative; height: 100%;">
<g id="Extras_Back">
<g id="Back"><g id="NO-CAPES_Back" class="option" style="display: inherit;">
</g>
</g>
</g>
<g id="Suit">
<g id="Neck-Seal">
<g id="Standard-Neck-Seal" class="option" style="fill: rgb(55, 66, 76); display: inherit;">
<path d="M95.2,8.5c0-0.9-0.7-1.7-1.6-1.7c0,0-6.1,0.9-9.1,0.9c-3,0-9.1-0.9-9.1-0.9c-0.9,0-1.6,0.7-1.6,1.7 c0,0.9,0.7,1.6,1.6,1.6c0,0,6.1,0.9,9.1,0.9c3,0,9.1-0.9,9.1-0.9C94.4,10.1,95.2,9.4,95.2,8.5z"/>
<path d="M95.7,10.4c0-1-0.8-1.7-1.7-1.7c0,0-6.4,0.9-9.5,0.9s-9.5-0.9-9.5-0.9c-0.9,0-1.7,0.8-1.7,1.7 c0,1,0.8,1.7,1.7,1.7c0,0,6.4,0.9,9.5,0.9s9.5-0.9,9.5-0.9C95,12.1,95.7,11.3,95.7,10.4z"/>
<path d="M96.3,12.8c0-1-0.8-1.8-1.8-1.8c0,0-6.7,1-10.1,1c-3.4,0-10.1-1-10.1-1c-1,0-1.8,0.8-1.8,1.8 s0.8,1.8,1.8,1.8c0,0,6.7,1,10.1,1c3.4,0,10.1-1,10.1-1C95.5,14.6,96.3,13.8,96.3,12.8z"/>
<path d="M96.9,15c0-1.1-0.8-1.9-1.9-1.9c0,0-7,1-10.6,1c-3.5,0-10.6-1-10.6-1c-1,0-1.9,0.9-1.9,1.9 c0,1.1,0.8,1.9,1.9,1.9c0,0,7,1,10.6,1c3.5,0,10.6-1,10.6-1C96.1,16.9,96.9,16,96.9,15z"/>
<path d="M97.5,17.1c0-0.8-0.9-1.5-2-1.5c0,0-7.4,0.8-11.1,0.8c-3.7,0-11.1-0.8-11.1-0.8c-1.1,0-2,0.6-2,1.5 c0,0.8,0.9,1.5,2,1.5c0,0,7.4,0.8,11.1,0.8c3.7,0,11.1-0.8,11.1-0.8C96.6,18.6,97.5,17.9,97.5,17.1z"/>
<path d="M97.5,19.6c0-0.8-0.9-1.5-2-1.5c0,0-7.4,0.8-11.1,0.8c-3.7,0-11.1-0.8-11.1-0.8c-1.1,0-2,0.6-2,1.5 c0,0.8,0.9,1.4,2,1.4c0,0,7.4,1.5,11.1,1.5c3.7,0,11.1-1.5,11.1-1.5C96.6,21,97.5,20.4,97.5,19.6z"/>
</g>
</g>
<g id="Flight-Suit" style="fill: rgb(55, 66, 76);">
<path d="M38.9,64l5.1-18.4l11.8-8l1.8,16.1c0,0-5.1,9.7-6.9,14.2c-1.8,4.6-5,15.1-5.4,16.5l-2.8,24.4l-8.1-2.6 c0,0-0.3-16.9,0.4-24C35.5,76,38.9,64,38.9,64z"/>
<path d="M130.1,64l-5.1-18.5l-11.7-7.9l-1.9,16.2c0,0,5.1,9.6,6.8,14.1c1.8,4.6,5,15.1,5.4,16.5l2.8,24.4l8.1-2.6 c0,0,0.3-16.9-0.4-24C133.5,76,130.1,64,130.1,64z"/>
<path d="M84.5,116.1c-1,0.1-1.9,0.5-2.2,1.2c-2.9,6.2-8.9,34.4-10.7,39.6c-0.9,2.8-1.7,18.3-3.3,27.3 c-1.9,10.8-8.2,37.3-8.2,37.3l-10.9-1.1c0,0-1.4-26.6-1-36.3c0.3-7.4,3.3-21.8,3.3-21.8s0.7-5.3,0.7-7.9c0.1-9.6,0.9-31,2.8-43.3 c1.5-9.7,10.6-30.1,10.6-30.1s11.9,4.7,18.8,4.7c7,0,18.9-4.8,18.9-4.8s8.6,20.5,10.1,30.2c1.9,12.3,3.2,33.7,3.2,43.3 c0,2.7,0.7,7.9,0.7,7.9s3,14.5,3.3,21.8c0.4,9.7-1,36.3-1,36.3l-10.9,1.1c0,0-6.3-26.5-8.2-37.3c-1.6-9-2.3-24.5-3.3-27.3 c-1.7-5.2-7.7-33.4-10.7-39.6C86.5,116.6,85.6,116.2,84.5,116.1L84.5,116.1z"/>
</g>
<g id="Sleeves" class="toggle" style="display: none; fill: rgb(255, 255, 255);"/>
</g>
<g id="Boots">
<g id="Basic_Boots" class="option" style="display: inherit;">
<g id="Main_Basic-Boot" style="fill: rgb(48, 48, 48);">
<path d="M60.9,218.4c-0.2-0.1-2.3,1.3-3.4,1.4c-1.3,0.2-2.6,0.2-4,0.1l-0.5-0.1l0,0l-0.1,0l-0.2,0l-0.3,0l-0.1,0 c-0.3,0-0.6-0.1-0.9-0.1l-0.5-0.1l-0.1,0l0,0l-0.1,0l-0.3-0.1l-0.3-0.1l0,0c-1-0.3-0.8-0.8-0.8-0.8c0,1.4-1.5,5.9-5.1,9.5 c-1.1,1.1-3.8,2.4-6.2,3.4c-2.1,0.9-4.7,1.2-6,3.7c-0.3,0.6-0.5,1.2-0.5,1.8c0.1,0.8,0.9,0.9,1.6,1.1c1.7,0.5,3.1,0.8,5.1,1.3 c2.2,0.5,4.2,0.8,6.5,0.7c1.7,0,3.1-0.1,4.6-1c0.6-0.4,1.2-0.7,1.7-1.2c1.2-1.1,1.9-2.2,3.4-2.8c1.1-0.5,2.2-0.8,3.3-1.1 c1.6-0.4,4-0.9,4.8-2.5c0.3-1.2-1.1-3.7-1.2-5.5C61.1,224.6,61,218.4,60.9,218.4z"/>
<path d="M108.2,218.4c0.2-0.1,2.3,1.3,3.4,1.4c1.3,0.2,2.6,0.2,4,0.1l0.5-0.1l0,0l0.1,0l0.2,0l0.3,0l0.1,0 c0.3,0,0.6-0.1,0.9-0.1l0.5-0.1l0.1,0l0,0l0.1,0l0.3-0.1l0.3-0.1l0,0c1-0.3,0.8-0.8,0.8-0.8c0,1.4,1.5,5.9,5.1,9.5 c1.1,1.1,3.8,2.4,6.2,3.4c2.1,0.9,4.7,1.2,6,3.7c0.3,0.6,0.5,1.2,0.5,1.8c-0.1,0.8-0.9,0.9-1.6,1.1c-1.7,0.5-3.1,0.8-5.1,1.3 c-2.2,0.5-4.2,0.8-6.5,0.7c-1.7,0-3.1-0.1-4.6-1c-0.6-0.4-1.2-0.7-1.7-1.2c-1.2-1.1-1.9-2.2-3.4-2.8c-1.1-0.5-2.2-0.8-3.3-1.1 c-1.6-0.4-4-0.9-4.8-2.5c-0.3-1.2,1.1-3.7,1.2-5.5C107.9,224.6,108.1,218.4,108.2,218.4z"/>
</g>
<g id="Bottom_Basic-Boot" style="fill: rgb(55, 54, 54);">
<path d="M62.4,231.5c-0.4,0.8-1.2,1.3-2.1,1.7c-0.8,0.4-1.8,0.6-2.7,0.8c-0.1,0-0.2,0.1-0.4,0.1 c-0.2,0-0.4,0.1-0.5,0.2c-0.1,0-0.1,0-0.2,0l-0.1,0c-0.1,0-0.1,0-0.2,0.1c0,0,0,0-0.1,0c-0.1,0-0.2,0.1-0.3,0.1c0,0-0.1,0-0.1,0 l-0.1,0c-0.2,0.1-0.3,0.1-0.5,0.2c0,0-0.1,0-0.1,0c-0.1,0.1-0.3,0.1-0.4,0.2l-0.1,0c-0.1,0-0.2,0.1-0.2,0.1c0,0-0.1,0-0.1,0 c-0.2,0.1-0.5,0.2-0.7,0.3l0,0c0,0,0,0,0,0c-0.1,0-0.1,0.1-0.2,0.1l0,0c0,0,0,0,0,0c-0.1,0-0.1,0.1-0.2,0.1l-0.1,0l-0.1,0.1 c-0.3,0.2-0.5,0.4-0.7,0.7l-0.1,0.1c-0.1,0.1-0.3,0.3-0.4,0.4c-0.1,0.1-0.3,0.3-0.4,0.4c-0.1,0.1-0.3,0.3-0.4,0.4l-0.1,0 c0,0-0.1,0.1-0.1,0.1c0,0,0,0,0,0c-0.1,0.1-0.2,0.1-0.2,0.2c-0.1,0-0.1,0.1-0.2,0.1l0,0c-0.1,0-0.1,0.1-0.2,0.1 c0,0-0.1,0-0.1,0.1c-0.1,0.1-0.2,0.1-0.3,0.2c-0.1,0-0.1,0.1-0.2,0.1l-0.1,0.1l-0.2,0.1l-0.1,0.1l-0.1,0l-0.1,0 c-0.1,0.1-0.2,0.1-0.3,0.2c0,0-0.1,0-0.1,0.1l0,0c-0.3,0.1-0.6,0.2-0.9,0.3l-0.1,0l-0.1,0c0,0,0,0-0.1,0c-0.1,0-0.1,0-0.2,0 c-0.1,0-0.1,0-0.2,0l-0.1,0l0,0c0,0-0.1,0-0.1,0c-0.1,0-0.1,0-0.2,0c-0.1,0-0.2,0-0.2,0c0,0,0,0-0.1,0c-0.2,0-0.4,0-0.6,0 c-0.1,0-0.2,0-0.3,0l-0.1,0c-0.2,0-0.4,0-0.6,0c-0.1,0-0.3,0-0.4,0c0,0-0.1,0-0.2,0c-0.1,0-0.1,0-0.2,0c-0.1,0-0.1,0-0.2,0 l-0.1,0c-0.3,0-0.5,0-0.8,0c0,0-0.1,0-0.1,0l-0.1,0c0,0-0.1,0-0.1,0c-0.4,0-0.7-0.1-1.1-0.1l-0.1,0c-0.1,0-0.2,0-0.3,0 c0,0-0.1,0-0.1,0l-0.1,0c-0.1,0-0.2,0-0.2,0c-0.3,0-0.6-0.1-1-0.2c-0.1,0-0.1,0-0.2,0l-0.1,0c0,0-0.1,0-0.1,0l-0.1,0 c0,0-0.1,0-0.1,0l-0.1,0c-0.1,0-0.2,0-0.2,0l-0.1,0c-0.1,0-0.2,0-0.3-0.1c-0.1,0-0.2,0-0.2-0.1l0,0c-0.5-0.1-1-0.2-1.4-0.3 l-0.2,0c-0.1,0-0.3-0.1-0.4-0.1l-0.2,0l-0.1,0c-0.2,0-0.4-0.1-0.5-0.1c-0.1,0-0.2-0.1-0.3-0.1c-0.3-0.1-0.6-0.2-0.9-0.2l-0.1,0 c-0.1,0-0.1,0-0.2,0l-0.1,0c-0.2-0.1-0.5-0.1-0.7-0.2l-0.1,0l-0.1,0l-0.3-0.1l-0.1,0l-0.1,0l-0.1,0l-0.1,0l-0.1,0l0,0l0,0l0,0 l0,0l0,0l0,0l0,0l-0.1,0l-0.1,0l0,0c-0.1-0.1-0.1-0.1-0.2-0.2l0,0c0,0-0.4,0.7-0.5,1.8c1,1.5,4.2,1.9,8.6,2.5 c4.4,0.6,7.1,0.5,8.9-0.3c1.8-0.8,5-4.5,7.3-4.7c2.3-0.2,5-1.4,6.1-2.1c0.6-0.3,0.4-2.8,0.4-2.8L62.4,231.5z"/>
<path d="M106.6,231.5c0.4,0.8,1.2,1.3,2.1,1.7c0.8,0.4,1.8,0.6,2.7,0.8c0.1,0,0.2,0.1,0.4,0.1c0.2,0,0.4,0.1,0.5,0.2 c0.1,0,0.1,0,0.2,0l0.1,0c0.1,0,0.1,0,0.2,0.1c0,0,0.1,0,0.1,0c0.1,0,0.2,0.1,0.3,0.1c0,0,0.1,0,0.1,0l0.1,0 c0.2,0.1,0.3,0.1,0.5,0.2c0,0,0.1,0,0.1,0c0.1,0.1,0.3,0.1,0.4,0.2l0.1,0c0.1,0,0.2,0.1,0.2,0.1c0,0,0.1,0,0.1,0 c0.2,0.1,0.5,0.2,0.7,0.3l0,0c0,0,0,0,0,0c0.1,0,0.1,0.1,0.2,0.1l0,0c0,0,0,0,0,0c0.1,0,0.1,0.1,0.2,0.1l0.1,0l0.1,0.1 c0.3,0.2,0.5,0.4,0.7,0.7l0.1,0.1c0.1,0.1,0.3,0.3,0.4,0.4c0.1,0.1,0.3,0.3,0.4,0.4c0.1,0.1,0.3,0.3,0.4,0.4l0.1,0 c0,0,0.1,0.1,0.1,0.1c0,0,0,0,0,0c0.1,0.1,0.2,0.1,0.2,0.2c0.1,0,0.1,0.1,0.2,0.1l0,0c0.1,0,0.1,0.1,0.2,0.1c0,0,0.1,0,0.1,0.1 c0.1,0.1,0.2,0.1,0.3,0.2c0.1,0,0.1,0.1,0.2,0.1l0.1,0.1l0.2,0.1l0.1,0.1l0.1,0l0.1,0c0.1,0.1,0.2,0.1,0.3,0.2c0,0,0.1,0,0.1,0.1 l0,0c0.3,0.1,0.6,0.2,0.9,0.3l0.1,0l0.1,0c0,0,0,0,0.1,0c0.1,0,0.1,0,0.2,0c0,0,0.1,0,0.1,0l0.1,0l0,0c0,0,0.1,0,0.1,0 c0.1,0,0.1,0,0.2,0c0.1,0,0.2,0,0.2,0c0,0,0,0,0.1,0c0.2,0,0.4,0,0.6,0c0.1,0,0.2,0,0.3,0l0.1,0c0.2,0,0.4,0,0.6,0 c0.1,0,0.3,0,0.4,0c0.1,0,0.1,0,0.2,0c0.1,0,0.1,0,0.2,0c0.1,0,0.1,0,0.2,0l0.1,0c0.3,0,0.5,0,0.8,0c0,0,0.1,0,0.1,0l0.1,0 c0,0,0.1,0,0.1,0c0.4,0,0.7-0.1,1.1-0.1l0.1,0c0.1,0,0.2,0,0.3,0c0,0,0.1,0,0.1,0l0.1,0c0.1,0,0.2,0,0.2,0c0.3,0,0.6-0.1,1-0.2 c0.1,0,0.1,0,0.2,0l0.1,0c0,0,0.1,0,0.1,0l0.1,0c0,0,0.1,0,0.1,0l0.1,0c0.1,0,0.2,0,0.2,0l0.1,0c0.1,0,0.2,0,0.3-0.1 c0.1,0,0.2,0,0.2-0.1l0,0c0.5-0.1,1-0.2,1.4-0.3l0.2,0c0.1,0,0.3-0.1,0.4-0.1l0.2,0l0.1,0c0.2,0,0.4-0.1,0.5-0.1 c0.1,0,0.2-0.1,0.3-0.1c0.3-0.1,0.6-0.2,0.9-0.2l0.1,0c0.1,0,0.1,0,0.2,0l0.1,0c0.2-0.1,0.5-0.1,0.7-0.2l0.1,0l0.1,0l0.3-0.1 l0.1,0l0.1,0l0.1,0l0.1,0l0.1,0l0,0l0,0l0,0l0,0l0,0l0,0l0,0l0.1,0l0.1,0l0,0c0.1-0.1,0.1-0.1,0.2-0.2l0,0c0,0,0.4,0.7,0.5,1.8 c-1,1.5-4.2,1.9-8.6,2.5c-4.4,0.6-7.1,0.5-8.9-0.3c-1.8-0.8-5-4.5-7.3-4.7c-2.3-0.2-5-1.4-6.1-2.1c-0.6-0.3-0.4-2.8-0.4-2.8 L106.6,231.5z"/>
</g>
<g id="Top_Basic-Boot" style="fill: rgb(66, 63, 63);">
<path d="M49.8,219.2c-0.6,3-1.6,5.6-3.5,8.1c-3.1,3.9-8.4,4.2-12.1,7.4c-0.9,0.8-0.9,2.1-1,3.3 c1.5,0.4,2.9,0.8,4.6,1.2c0.1-1.2-0.1-2.5,0.9-3.4c3.7-3.2,9.4-3.1,12.5-7c2-2.6,2-5.9,2.6-8.9c-0.1,0-0.2,0-0.3,0l-0.5-0.1l0,0 l-0.1,0l-0.2,0l-0.3,0l-0.1,0c-0.3,0-0.6-0.1-0.9-0.1l-0.5-0.1l-0.1,0l0,0l-0.1,0l-0.3-0.1l-0.3-0.1l0,0 C49.9,219.3,49.9,219.3,49.8,219.2z"/>
<path d="M119.3,219.2c0.6,3,1.6,5.6,3.5,8.1c3.1,3.9,8.4,4.2,12.1,7.4c0.9,0.8,0.9,2.1,1,3.3 c-1.5,0.4-2.9,0.8-4.6,1.2c-0.1-1.2,0.1-2.5-0.9-3.4c-3.7-3.2-9.4-3.1-12.5-7c-2-2.6-2-5.9-2.6-8.9c0.1,0,0.2,0,0.3,0l0.5-0.1 l0,0l0.1,0l0.2,0l0.3,0l0.1,0c0.3,0,0.6-0.1,0.9-0.1l0.5-0.1l0.1,0l0,0l0.1,0l0.3-0.1l0.3-0.1l0,0 C119.1,219.3,119.2,219.3,119.3,219.2z"/>
</g>
<g id="Side_Basic-Boot" style="fill: rgb(39, 39, 39);">
<path d="M60.3,218.6c-1.2,0.5-1.8,1-2.9,1.2c-0.1,0-0.1,0-0.2,0c0,0.4,0,0.8,0,1.1c0,1.9,0.2,9.9,0.6,9.9 c0.4,0,1.4-0.2,1.7-0.5c0.2-0.2,0.2-0.7,0.3-0.9c0.2-0.8,0.4-1.6,0.5-2.4C60.5,225.9,60.3,220.3,60.3,218.6z"/>
<path d="M108.7,218.6c1.2,0.5,1.8,1,2.9,1.2c0.1,0,0.1,0,0.2,0c0,0.4,0,0.8,0,1.1c0,1.9-0.2,9.9-0.6,9.9 c-0.4,0-1.4-0.2-1.7-0.5c-0.2-0.2-0.2-0.7-0.3-0.9c-0.2-0.8-0.4-1.6-0.5-2.4C108.6,225.9,108.8,220.3,108.7,218.6z"/>
</g>
</g>
</g>
<g id="Gloves">
<g id="Left-Glove">
<g id="Basic_Left_Glove" class="option" style="fill: rgb(93, 93, 93); display: inherit;">
<path d="M131.4,123c-0.5,0-0.9,0-1.3,0.1c-0.3,0.1-0.6,0.2-0.9,0.3c-0.8,0.5-0.6,1.7,0.1,2.2c0.9,0.5,2.2,0,2.6-1 C132.1,124.2,131.6,123.4,131.4,123"/>
<path d="M129.9,124c-0.5,0-0.9,0-1.3,0.1c-0.3,0.1-0.6,0.2-0.9,0.3c-0.8,0.5-0.6,1.7,0.1,2.2c0.9,0.5,2.2,0,2.6-1 C130.6,125.2,130.1,124.4,129.9,124"/>
<path d="M128.8,125.4c-0.4,0-1,0.1-1.4,0.3c-0.3,0.1-0.6,0.2-0.8,0.5c-0.8,0.7-0.4,1.8,0.4,2.1 c0.9,0.4,2.2-0.3,2.5-1.4C129.5,126.5,128.8,125.4,128.8,125.4z"/>
<path d="M126.3,109.6c0,0-1.3,2-1.6,3.5c-0.2,1-0.1,3.5-0.4,5.2c-0.3,1.7-0.6,2.6-0.6,2.6s-1.2,2.7-0.9,3.3 c0.2,0.6,1.2,1.2,1.8,0.8c0.7-0.4,1.6-2.3,2.2-3.6c0.6-1.3,1-3.2,1-3.2s0.8,0.3,1.2,0.7c1.3,1.2,0.8,4.7,0.8,4.7 s-0.6,1.3-1.4,2.7c-1.1,1.9-2.9,3.6-1.7,5.1c1.1,1.4,3.5-2.3,3.5-2.3l2.4-3.5c0,0,2.8-5.1,2.9-6.1c0.1-0.8,0-3.3,0-3.3l-0.9-9.9 l-4.4,0.4l-3.6,1.3L126.3,109.6"/>
</g>
</g>
<g id="Right-Glove">
<g id="Basic_Right_Glove" class="option" style="fill: rgb(93, 93, 93); display: inherit;">
<path d="M37.6,123c0.5,0,0.9,0,1.3,0.1c0.3,0.1,0.6,0.2,0.9,0.3c0.8,0.5,0.6,1.7-0.1,2.2c-0.9,0.5-2.2,0-2.6-1 C36.9,124.2,37.4,123.4,37.6,123"/>
<path d="M39.2,124c0.5,0,0.9,0,1.3,0.1c0.3,0.1,0.6,0.2,0.9,0.3c0.8,0.5,0.6,1.7-0.1,2.2c-0.9,0.5-2.2,0-2.6-1 C38.4,125.2,38.9,124.4,39.2,124"/>
<path d="M40.3,125.4c0.5,0,1,0.1,1.4,0.3c0.3,0.1,0.6,0.2,0.8,0.5c0.8,0.7,0.4,1.8-0.4,2.1c-0.9,0.4-2.2-0.3-2.5-1.4 C39.5,126.5,40.3,125.4,40.3,125.4z"/>
<path d="M42.7,109.6c0,0,1.3,2,1.6,3.5c0.2,1,0.1,3.5,0.4,5.2c0.3,1.7,0.6,2.6,0.6,2.6s1.1,2.7,0.9,3.3 c-0.2,0.6-1.2,1.2-1.8,0.8c-0.7-0.4-1.6-2.3-2.2-3.6c-0.6-1.3-1-3.2-1-3.2s-0.8,0.3-1.2,0.7c-1.3,1.2-0.8,4.7-0.8,4.7 s0.6,1.3,1.4,2.7c1.1,1.9,2.9,3.6,1.7,5.1c-1.1,1.4-3.5-2.3-3.5-2.3l-2.4-3.5c0,0-2.8-5.1-2.9-6.1c-0.1-0.8,0-3.3,0-3.3l0.9-9.9 l4.4,0.4l3.6,1.3L42.7,109.6"/>
</g>
</g>
</g>
<g id="Biceps">
<g id="Left-Biceps">
<g id="None_Biceps_Left" class="option" style="display: inherit;">
</g>
</g>
<g id="Right-Biceps">
<g id="None_Biceps_Right" class="option" style="display: inherit;">
</g>
</g>
</g>
<path id="Vest" d="M90.9,86.3c-4.2,0.9-8.6,0.9-12.8,0c-4.2-0.9-12.5-5.2-12.5-5.2s-7.2-22.8-8.5-29.4 c-1-5.3-1.4-14.1-1.4-14.1L43.4,46l-2.6-1.1c0,0,7.4-16.4,12.3-21.1c4.4-4.3,17-7.3,17-7.3s5.5,6.1,14.6,6.1 c8.6,0,14.6-6.1,14.6-6.1s12.5,3.1,17,7.3c4.9,4.7,12.3,21.1,12.3,21.1l-2.6,1.1l-12.4-8.3c0,0-0.4,8.8-1.4,14.1 c-1.3,6.6-8.5,29.4-8.5,29.4S95.1,85.4,90.9,86.3z" style="fill: rgb(36, 36, 36);"/>
<g class="swappable" id="Chest">
<g id="Chest_Galaxy" style="visibility: visible;">
<g id="Abdomen_Galaxy">
<path id="Abdomen-Plate_Galaxy" d="M77.9,74.5l-2,1.4l-10-1.4l-0.7-5.5l4.7-0.1l2.9-4.7l1.3-4.3l10.4-9.5l0,0l0,0 l10.4,9.5l1.3,4.3l2.9,4.7l4.7,0.1l-0.7,5.5l-10,1.4l-2-1.4H77.9z" style="fill: rgb(76, 109, 139);"/>
<path id="Trauma-Plate_Abdomen_Galaxy" class="toggle" style="display: none; fill: rgb(255, 255, 255);" d="M84.5,52.5l-9,8.2l-1.2,4.1l-3.4,5.6L67,70.5l0.3,2.5l8.2,1.2 l1.9-1.4h14.2l1.9,1.4l8.2-1.2l0.3-2.5l-3.8-0.1l-3.4-5.6l-1.2-4.1L84.5,52.5L84.5,52.5L84.5,52.5z"/>
</g>
<g id="Full-Chest_Galaxy">
<path id="Chest-Plate_Galaxy" d="M80.3,36.5l0,9.7l3,3.1L72.7,59.4L71.3,64l-2.3,3.7h-3.9L63.3,65l-2.4-13.5 l-3.5-5.5l4.5-14.5l5.2-0.7l0.7-3.2l5.5-0.7l1.7,2.9h19l1.7-2.9l5.5,0.7l0.7,3.2l5.2,0.7l4.5,14.5l-3.5,5.5L105.7,65l-1.9,2.8 h-3.9L97.7,64l-1.4-4.7L85.6,49.3l3-3.1l0-9.7l-4.2-3.2L80.3,36.5z" style="fill: rgb(76, 109, 139);"/>
<path id="Trauma-Plating_Left-Chest_Galaxy" class="toggle" style="display: none; fill: rgb(255, 255, 255);" d="M94.9,31.4H84.6l5.7,4.4l0,11.1l-2.3,2.4l9.8,9.3 l1.4,4.9l1.7,2.8h2.1l1.2-1.8l2.4-13.5l3.3-5.2l-4-12.8l-5.3-0.7L100,29l-3.4-0.4L94.9,31.4z"/>
<path id="Trauma-Plating_Right-Chest_Galaxy" class="toggle" style="display: none; fill: rgb(255, 255, 255);" d="M72.4,28.6L69,29l-0.7,3.2L63,32.9l-4,12.8l3.3,5.2 l2.4,13.5l1.2,1.8h2.1l1.7-2.8l1.4-4.9l9.8-9.3l-2.3-2.4l0-11.1l5.7-4.4H74.1L72.4,28.6z"/>
<g id="Accents_Chest-Plate_Galaxy" class="toggle" style="fill: rgb(44, 119, 54);">
<rect x="95" y="34.4" width="8.8" height="1.2"/>
<rect x="95" y="36.5" width="8.8" height="1.2"/>
</g>
</g>
<g id="Iron-Heart_Galaxy">
<path id="Heart_Galaxy" d="M81.9,45.9v-8.7l2.6-2l2.6,2v8.7l-2.6,2.6L81.9,45.9z" style="fill: rgb(255, 255, 255);"/>
<rect id="Center_Heart_Galaxy" class="option" x="83.6" y="38.6" width="1.8" height="6" style="fill: rgb(255, 255, 255); display: inherit;"/>
</g>
<g id="Neck-Armor_Galaxy">
<g id="Neck-Plate_Galaxy" style="fill: rgb(76, 109, 139);">
<path d="M82.4,28.8l-7,0.1l-1.7-2.8L67,26.9l-0.7,2.9L62,30.3l-3.2-10.9l10.9-3.3c0,0,1.4,2.5,2.5,3.3 c1.1,0.9,2.5,1.9,3.9,2.5c1.5,0.6,3.3,1.1,5,1.4c0.2,0,0.4,0.1,0.6,0.1L82.4,28.8z"/>
<path d="M86.6,28.8l7,0.1l1.7-2.8l6.7,0.8l0.7,2.9l4.3,0.5l3.2-10.9l-10.9-3.3c0,0-1.4,2.5-2.5,3.3 c-1.1,0.9-2.5,1.9-3.9,2.5c-1.5,0.6-3.3,1.1-5,1.4c-0.2,0-0.4,0.1-0.6,0.1L86.6,28.8z"/>
</g>
<g id="Trauma-Plates_Neck_Galaxy" class="toggle" style="display: none; fill: rgb(255, 255, 255);"/>
</g>
</g>
</g>
<g id="Chest-Attachments">
<g id="Pilot-Box_Accessories_Chest" class="option" style="display: inherit;">
<g id="Main_Pilot-Box_Accessories_Chest" style="fill: rgb(137, 137, 137);">
<rect x="75" y="33.5" width="4.7" height="7.6"/>
<rect x="72.2" y="46.5" width="24.8" height="0.8"/>
<path d="M96.9,31.6c0-0.3-0.1-0.5-0.3-0.7c-0.2-0.2-0.4-0.3-0.7-0.3H73.2c-0.3,0-0.5,0.1-0.7,0.3 c-0.2,0.2-0.3,0.4-0.3,0.7v14.9h24.8V31.6z"/>
<path d="M96.9,47.4H72.2l1.5,2.3h21.7L96.9,47.4z"/>
<rect x="74.1" y="49.3" width="8.1" height="7.8"/>
<rect x="72.2" y="50.9" width="1.9" height="4.7"/>
<rect x="95" y="50.9" width="1.9" height="4.7"/>
<rect x="86.9" y="49.3" width="8.1" height="7.8"/>
<rect x="82.2" y="49.3" width="1.1" height="7.8"/>
<rect x="85.9" y="49.3" width="1.1" height="7.8"/>
</g>
<g id="Parts-2_Pilot-Box_Accessories_Chest" style="fill: rgb(109, 109, 109);">
<rect x="70.3" y="51.1" width="1.9" height="4.3"/>
<rect x="96.9" y="51.1" width="1.9" height="4.3"/>
<rect x="83.3" y="49.1" width="2.6" height="8.3"/>
<path d="M88.6,32.5H74.1V42h14.5V32.5z M79.7,33.5H75v7.6h4.7V33.5z"/>
</g>
<g id="Parts-1_Pilot-Box_Accessories_Chest" style="fill: rgb(123, 123, 123);">
<circle cx="77.4" cy="35.6" r="1.2"/>
<circle cx="77.4" cy="38.9" r="1.2"/>
<g>
<g>
<path d="M70.3,51.6l-4.4,0.1c-0.6,0-1.1,0-1.3-0.3c-0.2-0.2-0.2-0.5-0.2-0.8c0-0.6,0.1-1.4,0.3-2.2 c1.2-5.1,4.9-13.3,5.4-22.3c0.3-6.6-1.7-17-1.7-17c-0.2-0.9-1.1-1.5-2-1.3c-0.9,0.2-1.5,1.1-1.3,1.9c0,0,2,9.9,1.7,16.2 c-0.3,6-2.2,11.7-3.7,16.3c-1.1,3.3-1.9,6.1-2,8c0,1.5,0.3,2.7,1.1,3.5C63,54.4,64.1,55,66,55c0,0,4.4-0.1,4.4-0.1V51.6z"/>
<path d="M66.1,15.9l3.3-0.3"/>
<path d="M65.8,13.9l3.3-0.3"/>
<path d="M66.4,18.2l3.3-0.3"/>
<path d="M66.6,20.7l3.3-0.3"/>
<path d="M66.8,23.2l3.3-0.3"/>
<path d="M66.8,25.2l3.3,0.1"/>
<path d="M66.7,27.2l3.3,0.5"/>
<path d="M66.4,29.2l3.3,0.6"/>
<path d="M66.1,31.3l3.2,0.9"/>
<path d="M65.6,33.6l3.2,0.9"/>
<path d="M65.1,35.5l3.2,0.8"/>
<path d="M64.5,37.6l3.2,0.7"/>
<path d="M63.9,39.5l3.2,0.9"/>
<path d="M63.3,41.4l3.2,1"/>
<path d="M62.6,43.7l3.2,0.9"/>
<path d="M61.9,45.8l3.2,0.9"/>
<path d="M61.3,48.2l3.4,0.1"/>
<path d="M61.1,50.8l3.4-1.2"/>
<path d="M61.9,53.3l2.5-2.5"/>
<path d="M64,54.7l0.7-3.3"/>
<path d="M66.3,55l0.1-3.3"/>
<path d="M68.4,54.9v-3.3"/>
</g>
<g>
<path d="M98.8,51.6l4.4,0.1c0.6,0,1.1,0,1.3-0.3c0.2-0.2,0.2-0.5,0.2-0.8c0-0.6-0.1-1.4-0.3-2.2 c-1.2-5.1-4.9-13.3-5.4-22.3c-0.3-6.6,1.7-17,1.7-17c0.2-0.9,1.1-1.5,1.9-1.3c0.9,0.2,1.5,1.1,1.3,1.9c0,0-2,9.9-1.7,16.2 c0.3,6,2.2,11.7,3.7,16.3c1.1,3.3,1.9,6.1,2,8c0,1.5-0.3,2.7-1.1,3.5c-0.8,0.8-1.9,1.3-3.8,1.3c0,0-4.4-0.1-4.4-0.1V51.6z"/>
<path d="M103,15.9l-3.3-0.3"/>
<path d="M103.3,13.9l-3.3-0.3"/>
<path d="M102.7,18.2l-3.3-0.3"/>
<path d="M102.5,20.7l-3.3-0.3"/>
<path d="M102.3,23.2L99,22.9"/>
<path d="M102.3,25.2L99,25.2"/>
<path d="M102.4,27.2l-3.3,0.5"/>
<path d="M102.7,29.2l-3.3,0.6"/>
<path d="M103,31.3l-3.2,0.9"/>
<path d="M103.5,33.6l-3.2,0.9"/>
<path d="M104,35.5l-3.2,0.8"/>
<path d="M104.6,37.6l-3.2,0.7"/>
<path d="M105.2,39.5l-3.2,0.9"/>
<path d="M105.8,41.4l-3.2,1"/>
<path d="M106.5,43.7l-3.2,0.9"/>
<path d="M107.2,45.8l-3.2,0.9"/>
<path d="M107.8,48.2l-3.4,0.1"/>
<path d="M108,50.8l-3.4-1.2"/>
<path d="M107.2,53.3l-2.5-2.5"/>
<path d="M105.1,54.7l-0.7-3.3"/>
<path d="M102.8,55l-0.1-3.3"/>
<path d="M100.7,54.9v-3.3"/>
</g>
</g>
<rect x="80.5" y="52.5" width="2.2" height="1.5"/>
<rect x="86.4" y="52.5" width="2.2" height="1.5"/>
<path d="M69.7,8.8c0-0.6-0.5-1.1-1.1-1.1h-2.6c-0.6,0-1.1,0.5-1.1,1.1v2.3c0,0.6,0.5,1.1,1.1,1.1h2.6 c0.6,0,1.1-0.5,1.1-1.1V8.8z"/>
<rect x="65.9" y="7.7" width="0.4" height="4.6"/>
<path d="M99.4,8.8c0-0.6,0.5-1.1,1.1-1.1h2.6c0.6,0,1.1,0.5,1.1,1.1v2.3c0,0.6-0.5,1.1-1.1,1.1h-2.6 c-0.6,0-1.1-0.5-1.1-1.1V8.8z"/>
<rect x="102.8" y="7.7" width="0.4" height="4.6"/>
</g>
<g id="Buttons-2_Pilot-Box_Accessories_Chest" style="fill: rgb(211, 0, 0);">
<circle cx="80.3" cy="44.1" r="0.6"/>
<rect x="91.9" y="38.3" width="1.5" height="3.8"/>
<rect x="82.4" y="33.5" width="5.3" height="1.2"/>
<rect x="85.5" y="35" width="2.2" height="1.2"/>
<circle cx="84.3" cy="44.1" r="0.6"/>
</g>
<g id="Buttons-1_Pilot-Box_Accessories_Chest" style="fill: rgb(8, 203, 51);">
<rect x="91.9" y="32.5" width="1.5" height="3.8"/>
<rect x="82.4" y="35" width="2.2" height="1.2"/>
<circle cx="78.4" cy="44.1" r="0.6"/>
<circle cx="82.2" cy="44.1" r="0.6"/>
</g>
</g>
</g>
<g id="Collar">
<g id="None_Collar" class="option" style="display: inherit;">
</g>
</g>
<svg version="1.1" id="Helmets" xmlns="http://www.w3.org/2000/svg" y="-54px" height="85px" viewBox="0 0 80 80" class="swappable">
<g id="Helmet_Guardian" style="visibility: visible;">
<g id="Left-Earcap_Guardian" class="toggle" style="fill: rgb(74, 74, 74);">
<path d="M59.2,32.4l0.4,0.4V41h-1.8v-1.4h1.4V32.4"/>
<path d="M57.8,43.6h1.1v16.6h-1.1V43.6"/>
<path d="M58.9,43.6h0.8v1.2h-0.8V43.6"/>
<path d="M57.5,32.4h1.8v7.2h-1.8V32.4"/>
<path d="M58.2,34.4h1.2v1.3h-1.2V34.4"/>
<path d="M58.4,40h0.9v0.7h-0.9V40"/>
<path d="M58.4,40h0.9v0.2h-0.9V40"/>
<path d="M59.6,34.9l0.4,0.4v6.4h-0.4V34.9"/>
<path d="M57.8,41h1.8v2.6h-1.8V41"/>
</g>
<g id="Right-Earcap_Guardian" class="toggle" style="fill: rgb(74, 74, 74);">
<path d="M20.8,32.4l-0.4,0.4V41h1.8v-1.4h-1.4V32.4"/>
<path d="M22.2,43.6h-1.1v16.6h1.1V43.6"/>
<path d="M21.1,43.6h-0.8v1.2h0.8V43.6"/>
<path d="M22.5,32.4h-1.8v7.2h1.8V32.4"/>
<path d="M21.8,34.4h-1.2v1.3h1.2V34.4"/>
<path d="M21.6,40h-0.9v0.7h0.9V40"/>
<path d="M21.6,40h-0.9v0.2h0.9V40"/>
<path d="M20.4,34.9L20,35.3v6.4h0.4V34.9"/>
<path d="M22.2,41h-1.8v2.6h1.8V41"/>
</g>
<g id="Helmet_Pieces_Guardian">
<g id="Face_Guardian" style="fill: rgb(96, 96, 96);">
<path d="M25.6,48.8l7.7,6.7l1.8,11.2l-10.5-4.9L25.6,48.8z"/>
<path d="M54.4,48.8l-7.7,6.7l-1.8,11.2l10.5-4.9L54.4,48.8z"/>
</g>
<g id="Cheeks_Guardian" style="fill: rgb(223, 223, 223);">
<path d="M25.6,48.8l-1,13.1l-2-0.6V41.9L25.6,48.8z"/>
<path d="M22.9,42.5c0.4,0.8,1.4,2.2,3.5,3.8c3.2,2.4,5.9,3,5.9,3l1,6.2l-7.7-6.7L22.9,42.5z"/>
<path d="M54.4,48.8l1,13.1l2-0.6V41.9L54.4,48.8z"/>
<path d="M57.1,42.5c-0.4,0.8-1.4,2.2-3.5,3.8c-3.2,2.4-5.9,3-5.9,3l-1,6.2l7.7-6.7L57.1,42.5z"/>
</g>
<path id="Visor_Guardian" d="M36.4,67l1.7-2.7l-1.4-22.6l-13.5-3v-1.3h13.7l1,1h4.2l1-1h13.7v1.3l-13.5,3L42,64.3 l1.7,2.7c0,0-2.4,0.3-3.7,0.3C38.8,67.3,36.4,67,36.4,67z" style="fill: rgb(21, 20, 20);"/>
<path id="Dome_Guardian" d="M22.3,35.4c0-9.8,7.9-17.8,17.7-17.8s17.7,8,17.7,17.8H22.3z" style="fill: rgb(37, 36, 36);"/>
<g id="Eyes_Guardian" style="fill: rgb(120, 168, 212);">
<rect x="39.5" y="25.6" width="1.1" height="12.7"/>
<path d="M39.5,25.4v13H38l-1-1H23.2v1.3l13.5,3L38,64.3l-1.8,2.9l-1-0.2l-2.9-17.6c0,0-2.6-0.6-5.9-3 C23.1,44,22.6,42,22.6,42v19.3L22,60.6V33.8h3.4l6.1-8.4H39.5z"/>
<path d="M40.6,25.4v13h1.5l1-1h13.7v1.3l-13.5,3L42,64.3l1.8,2.9l1-0.2l2.9-17.6c0,0,2.6-0.6,5.9-3 c3.3-2.4,3.8-4.4,3.8-4.4v19.3l0.7-0.7V33.8h-3.4l-6.1-8.4H40.6z"/>
</g>
</g>
</g>
</svg>
<g id="Shoulders">
<g id="Left-Shoulder">
<g id="Classic_Shoulder_Left" class="option" style="display: inherit;">
<path id="Main_Shoulder_Classic_Left" d="M113.9,18.6l-2.5,11.5l2,6.6l13.6,6.9l2.3-3.5L113.9,18.6z" style="fill: rgb(7, 50, 90);"/>
<path id="Trauma-Plates_Shoulder_Classic_Left" class="toggle" style="fill: rgb(76, 109, 139);" d="M113.1,30l1.7,5.5l11.6,5.9l2-3l-13.1-18.3L113.1,30z "/>
</g>
</g>
<g id="Right-Shoulder">
<g id="Classic_Shoulder_Right" class="option" style="display: inherit;">
<path id="Main_Shoulder_Classic_Right" d="M55.2,18.6l2.5,11.5l-2,6.6l-13.6,6.9l-2.3-3.5L55.2,18.6z" style="fill: rgb(7, 50, 90);"/>
<path id="Trauma-Plates_Shoulder_Classic_Right" class="toggle" style="fill: rgb(76, 109, 139);" d="M56,30l-1.7,5.5l-11.6,5.9l-2-3l13.1-18.3L56,30z"/>
</g>
</g>
</g>
<g id="Gauntlets">
<g id="Left-Gauntlets">
<g id="Gunslinger_Gauntlet_Left" class="option" style="display: inherit;">
<g id="Accent-Top_Gunslinger_Gauntlet_Left" style="fill: rgb(80, 80, 80);">
<path d="M134.9,82.1l0.2,5.7l-2.9,0.6l-0.2-5.5L134.9,82.1z"/>
<path d="M131.8,103.1l0.3,3l-2.6,0.3l-0.4-3L131.8,103.1z"/>
</g>
<path id="Top_Gunslinger_Gauntlet_Left" d="M134.9,82.1l1.3-0.4l0.1,26.9l-6.4,0.8l-0.5-4.2l0.1,1.2l2.6-0.3 l-0.3-3l-2.6,0.3l-2.3-19L134.9,82.1l-3,0.9l0.2,5.5l2.9-0.6L134.9,82.1z" style="fill: rgb(93, 93, 93);"/>
<g id="Accent-Bottom_Gunslinger_Gauntlet_Left" style="fill: rgb(80, 80, 80);">
<path d="M122.5,92.8l-0.6-2.4l-1.7,0.4l0.6,2.4L122.5,92.8z"/>
<path d="M123.2,95.5l-0.6-2.4l-1.7,0.4l0.6,2.4L123.2,95.5z"/>
<path d="M129.2,103.5l-5.7,0.8l0.7,2.9l5.4-0.7L129.2,103.5z"/>
</g>
<path id="Bottom_Gunslinger_Gauntlet_Left" d="M129.5,106l-0.3-2.5l-5.7,0.8l0.7,2.9l5.4-0.7l0.4,3 c0,0-2,0.2-3.5,0.3c-0.9,0.1-1.8-0.5-2-1.5c-1.2-5-4.7-20.2-4.7-20.2l7.3-3.3L129.5,106z M123.2,95.5l-0.6-2.4l-1.7,0.4l0.6,2.4 L123.2,95.5z M122.5,92.8l-0.6-2.4l-1.7,0.4l0.6,2.4L122.5,92.8z" style="fill: rgb(93, 93, 93);"/>
<g id="No-Device_Attachment_Gunslinger_Gauntlet_Left" class="option" style="display: inherit;">
</g>
</g>
</g>
<g id="Right-Gauntlets">
<g id="Gunslinger_Gauntlet_Right" class="option" style="display: inherit;">
<g id="Accent-Top_Gunslinger_Gauntlet_Right" style="fill: rgb(80, 80, 80);">
<path d="M34,82.1l-0.2,5.7l2.9,0.6L37,83L34,82.1z"/>
<path d="M37.1,103.1l-0.3,3l2.6,0.3l0.4-3L37.1,103.1z"/>
</g>
<path id="Top_Gunslinger_Gauntlet_Right" d="M34,82.1l-1.3-0.4l-0.1,26.9l6.4,0.8l0.5-4.2l-0.1,1.2l-2.6-0.3l0.3-3 l2.6,0.3l2.3-19L34,82.1l3,0.9l-0.2,5.5l-2.9-0.6L34,82.1z" style="fill: rgb(93, 93, 93);"/>
<g id="Accent-Bottom_Gunslinger_Gauntlet_Right" style="fill: rgb(80, 80, 80);">
<path d="M46.4,92.8l0.6-2.4l1.7,0.4l-0.6,2.4L46.4,92.8z"/>
<path d="M45.8,95.5l0.6-2.4l1.7,0.4l-0.6,2.4L45.8,95.5z"/>
<path d="M39.7,103.5l5.7,0.8l-0.7,2.9l-5.4-0.7L39.7,103.5z"/>
</g>
<path id="Bottom_Gunslinger_Gauntlet_Right" d="M39.4,106l0.3-2.5l5.7,0.8l-0.7,2.9l-5.4-0.7l-0.4,3 c0,0,2,0.2,3.5,0.3c0.9,0.1,1.8-0.5,2-1.5c1.2-5,4.7-20.2,4.7-20.2L42,84.8L39.4,106z M45.8,95.5l0.6-2.4l1.7,0.4l-0.6,2.4 L45.8,95.5z M46.4,92.8l0.6-2.4l1.7,0.4l-0.6,2.4L46.4,92.8z" style="fill: rgb(93, 93, 93);"/>
<g id="No-Device_Attachment_Gunslinger_Gauntlet_Right" class="option" style="display: inherit;">
</g>
</g>
</g>
</g>
<g id="Shins">
<g id="Left-Shin">
<g id="Full_Shin_Left" class="option" style="display: inherit;">
<path id="Shin_Full-Shin_Left" d="M102.3,174.6c11.2-2.4,18.5-0.1,18.5-0.1l2.1,43.2c0,0-4.4,1-9.2,0.8 c-3.5-0.1-9-1.5-9-1.5l-6-37C98.8,180.1,102.5,179.5,102.3,174.6" style="fill: rgb(137, 137, 137);"/>
<g id="Accent_Full-Shin_Left" class="toggle" style="fill: rgb(113, 113, 113);">
<path d="M99.5,184.1l6.2-0.4l0.3,1.6l-6.2,0.4L99.5,184.1"/>
<path d="M99.9,186.4l4.2-0.3l0.3,1.6l-4.3,0.3L99.9,186.4"/>
</g>
<g id="Ridge_Full-Shin_Left" class="toggle" style="fill: rgb(96, 118, 137);">
<path d="M117.1,173.3l-3.9-0.5l-4.1,0.3l5.9,45.4c2,0.1,3.4-0.1,5.7-0.4L117.1,173.3"/>
<path d="M113.1,172.8l4.9,45.6"/>
</g>
</g>
</g>
<g id="Right-Shin">
<g id="Full_Shin_Right" class="option" style="display: inherit;">
<path id="Shin_Full-Shin_Right" d="M66.6,174.6c-11.2-2.4-18.5-0.1-18.5-0.1L46,217.7c0,0,4.4,1,9.2,0.8 c3.5-0.1,9-1.5,9-1.5l6-37C70.2,180.1,66.5,179.5,66.6,174.6" style="fill: rgb(137, 137, 137);"/>
<g id="Accent_Full-Shin_Right" class="toggle" style="fill: rgb(113, 113, 113);">
<path d="M69.5,184.1l-6.2-0.4l-0.3,1.6l6.2,0.4L69.5,184.1"/>
<path d="M69.1,186.4l-4.2-0.3l-0.3,1.6l4.3,0.3L69.1,186.4"/>
</g>
<g id="Ridge_Full-Shin_Right" class="toggle" style="fill: rgb(96, 118, 137);">
<path d="M51.9,173.3l3.9-0.5l4.1,0.3l-5.9,45.4c-2,0.1-3.4-0.1-5.7-0.4L51.9,173.3"/>
<path d="M55.9,172.8l-4.9,45.6"/>
</g>
</g>
</g>
</g>
<g id="Foot">
<g id="Left-Ankle">
<g id="None_Ankle_Left" class="option" style="display: inherit;">
</g>
</g>
<g id="Left-Toe">
<g id="None_Toe_Left" class="option" style="display: inherit;">
</g>
</g>
<g id="Right-Ankle">
<g id="None_Ankle_Right" class="option" style="display: inherit;">
</g>
</g>
<g id="Right-Toe">
<g id="None_Toe_Right" class="option" style="display: inherit;">
</g>
</g>
</g>
<g id="Knees">
<g id="Left-Knee">
<g id="None-(Nih-Plates)_Knee_Left" class="option" style="display: inherit;">
</g>
</g>
<g id="Right-Knee">
<g id="None-(Nih-Plates)_Knee_Right" class="option" style="display: inherit;">
</g>
</g>
</g>
<g id="Thighs">
<g id="Left-Thigh">
<g id="Pocket_Thigh_Left" class="option" style="fill: rgb(53, 64, 74); display: inherit;">
<path d="M116.7,125.8c0.6,6.6,1.3,12.8,2.3,18.7c0.2,1.2-0.1,2.4-0.8,3.3c-0.7,0.9-1.8,1.5-3,1.6 c-5.4,0.4-10.9,1.3-16.4,2.3c-0.9,0.2-1.9,0-2.7-0.6c-0.8-0.5-1.3-1.4-1.4-2.3c-0.9-6.2-2.8-18.7-3.5-23.6 c-0.2-1.1,0.6-2.1,1.7-2.3c2.4-0.4,6.3-1,6.3-1L116.7,125.8"/>
<path d="M114.1,119.6c0.8-0.1,1.5,0.3,1.8,1c0.9,2.5,1.7,6.5,1.1,8.5c-0.8,2.6-9,17.8-11.1,21.6 c-0.3,0.5-0.8,0.9-1.4,0.9c-1.2,0.1-3.2,0.4-4.5,0.5c-0.7,0.1-1.4-0.4-1.5-1.2c-0.7-4.5-2.9-19.3-3.7-25 c-0.2-1.4-1.2-2.5-2.5-2.9l0,0C92.2,123.1,109.3,120.4,114.1,119.6"/>
<path id="Stitch_Left" d="M113.9,119.6c1.7-0.2,3,6.9,2.4,8.8c-0.7,2.4-8.9,18.1-10.8,21.5c-0.3,0.5-0.7,0.8-1.3,0.9 l-3.5,0.5c-0.7,0.1-1.3-0.4-1.4-1.1c-0.6-4.1-3-19.9-3.8-25.1c-0.3-1.8-2.2-2.2-2.2-2.2"/>
<path d="M92.7,123.1l21.3-3.4"/>
</g>
</g>
<g id="Right-Thigh">
<g id="Pocket_Thigh_Right" class="option" style="fill: rgb(53, 64, 74); display: inherit;">
<path d="M52.3,125.8c-0.6,6.6-1.3,12.8-2.3,18.7c-0.2,1.2,0.1,2.4,0.8,3.3c0.7,0.9,1.8,1.5,3,1.6 c5.4,0.4,10.9,1.3,16.4,2.3c0.9,0.2,1.9,0,2.7-0.6c0.8-0.5,1.3-1.4,1.4-2.3c0.9-6.2,2.8-18.7,3.5-23.6c0.2-1.1-0.6-2.1-1.7-2.3 c-2.4-0.4-6.3-1-6.3-1L52.3,125.8"/>
<path d="M54.9,119.6c-0.8-0.1-1.5,0.3-1.8,1c-0.9,2.5-1.7,6.5-1.1,8.5c0.8,2.6,9,17.8,11.1,21.6 c0.3,0.5,0.8,0.9,1.4,0.9c1.2,0.1,3.2,0.4,4.5,0.5c0.7,0.1,1.4-0.4,1.5-1.2c0.7-4.5,2.9-19.3,3.7-25c0.2-1.4,1.2-2.5,2.5-2.9l0,0 C76.8,123.1,59.7,120.4,54.9,119.6"/>
<path id="Stitch_Right" d="M55.1,119.6c-1.7-0.2-3,6.9-2.4,8.8c0.7,2.4,8.9,18.1,10.8,21.5c0.3,0.5,0.7,0.8,1.3,0.9 l3.5,0.5c0.7,0.1,1.3-0.4,1.4-1.1c0.6-4.1,3-19.9,3.8-25.1c0.3-1.8,2.2-2.2,2.2-2.2"/>
<path d="M76.3,123.1L55,119.6"/>
</g>
</g>
</g>
<g id="Groin">
<g id="None_Groin" class="option" style="display: inherit;">
</g>
</g>
<g id="Waist">
<g id="Accessories_Waist">
<g id="Kama" class="toggle" style="display:none"/>
<g id="Loin-Cloth" class="toggle" style="display:none"/>
<g id="Left-Holster" class="toggle" style="display:none"/>
<g id="Right-Holster" class="toggle" style="">
<g id="Belt-Holster_Right" class="option" style="display: inherit;">
<g id="Weapon_Belt-Holster-Right">
<g id="Main_Weapon_Belt-Holster-Right" style="fill: rgb(125, 123, 123);">
<path d="M60.2,93l0.2-3.7l-0.6,0L60,87l0.6,0l0.1-1.2c0-0.4-0.5-0.7-1.1-0.8c-1.5-0.1-4-0.3-5.4-0.4 c-0.6,0-1.2,0.2-1.2,0.6l-0.1,1.2l0.6,0l-0.2,2.3l-0.6,0l-0.2,3.7l1.5,0.1l-0.7,10.1l4.8,0.3l0.7-10.1L60.2,93z"/>
<path d="M53.1,92L54,92l-0.8,12.2l4.8,0.3l0.8-12.2l0.9,0.1l0.2-2.8l-6.5-0.4L53.1,92z"/>
<path d="M54.9,85.5l3.8,0.3l-0.2,3.8l-3.8-0.3L54.9,85.5z"/>
<path d="M57.6,93.4l0.6,0l-0.6,9.6l-0.6,0L57.6,93.4z"/>
<path d="M56.1,91.1l0.6,0l-0.6,9.6l-0.6,0L56.1,91.1z"/>
<path d="M54.4,93.2l0.6,0l-0.6,9.6l-0.6,0L54.4,93.2z"/>
</g>
<g id="Accent_Weapon_Belt-Holster-Right" style="fill: rgb(117, 114, 114);">
<path d="M57.9,89.9l0,0.4l-2.7-0.2l0-0.4L57.9,89.9z"/>
<path d="M57.9,90.3l0,0.4l-2.7-0.2l0-0.4L57.9,90.3z"/>
<path d="M57.9,89.5l0,0.4l-2.7-0.2l0-0.4L57.9,89.5z"/>
<path d="M58.2,84.8l0,0.4L55.5,85l0-0.4L58.2,84.8z"/>
<path d="M58.1,85.7l0.6,0l-0.2,3.8l-0.6,0L58.1,85.7z"/>
<path d="M54.9,85.5l0.6,0l-0.2,3.8l-0.6,0L54.9,85.5z"/>
<path d="M55,93.2l1,0.1l-0.6,9.6l-1-0.1L55,93.2z"/>
<path d="M56.6,93.3l1,0.1l-0.6,9.6l-1-0.1L56.6,93.3z"/>
</g>
</g>
<path id="Holster_Belt-Holster-Right" d="M58.6,107l2.5-15.2l-8.4,10.7l-0.8,21c1.5,1.9,3.1,2.1,4.9,0.4L58.6,107 z" style="fill: rgb(142, 141, 141);"/>
</g>
</g>
</g>
<g id="Under-Belt">
<g id="Girth-Belt" class="option" style="fill: rgb(171, 171, 171); display: inherit;">
<path d="M84.5,80.1c-7.2,0-21.5-1.8-21.5-1.8l0.5-1.5c0,0,14,1.2,21,1.8c7-0.6,21-1.8,21-1.8l0.5,1.5 C106,78.3,91.7,80.1,84.5,80.1z"/>
<path d="M84.5,81.6c-7.3,0-22-1.8-22-1.8l0.4-1.5c0,0,17.9,1.5,21.5,1.8c3.6-0.3,21.5-1.8,21.5-1.8l0.4,1.5 C106.5,79.8,91.9,81.6,84.5,81.6z"/>
<path d="M84.5,83.2c-7.4,0-22.3-1.8-22.3-1.8l0.3-1.5c0,0,18.3,1.5,22,1.8c3.7-0.3,22-1.8,22-1.8l0.3,1.5 C106.8,81.4,92,83.2,84.5,83.2z"/>
<path d="M84.5,84.7C77,84.7,62,82.9,62,82.9l0.3-1.5c0,0,18.6,1.5,22.3,1.8c3.7-0.3,22.3-1.8,22.3-1.8l0.3,1.5 C107.1,82.9,92.1,84.7,84.5,84.7z"/>
<path d="M84.5,86.3c-7.6,0-22.8-1.8-22.8-1.8l0.3-1.5c0,0,18.8,1.5,22.6,1.8c3.8-0.3,22.6-1.8,22.6-1.8l0.3,1.5 C107.4,84.4,92.1,86.3,84.5,86.3z"/>
<path d="M84.5,87.8c-7.7,0-23.1-1.8-23.1-1.8l0.2-1.5c0,0,19,1.5,22.8,1.8c3.8-0.3,22.8-1.8,22.8-1.8l0.2,1.5 C107.6,86,92.2,87.8,84.5,87.8z"/>
<path d="M84.5,89.4c-7.8,0-23.3-1.8-23.3-1.8l0.2-1.5c0,0,19.2,1.5,23.1,1.8c3.8-0.3,23.1-1.8,23.1-1.8l0.2,1.5 C107.8,87.5,92.3,89.4,84.5,89.4z"/>
<path d="M84.5,90.9c-7.8,0-23.5-1.8-23.5-1.8l0.2-1.5c0,0,19.4,1.5,23.3,1.8c3.9-0.3,23.3-1.8,23.3-1.8l0.2,1.5 C108.1,89.1,92.4,90.9,84.5,90.9z"/>
<path d="M84.5,92.5c-7.9,0-23.8-1.8-23.8-1.8l0.3-1.5c0,0,19.6,1.5,23.5,1.8c3.9-0.3,23.5-1.8,23.5-1.8l0.3,1.5 C108.3,90.6,92.5,92.5,84.5,92.5z"/>
<path d="M84.5,94c-8,0-24.1-1.8-24.1-1.8l0.3-1.5c0,0,19.8,1.5,23.8,1.8c4-0.3,23.8-1.8,23.8-1.8l0.3,1.5 C108.6,92.2,92.6,94,84.5,94z"/>
</g>
</g>
<g id="Belt">
<g id="Pouch-Belt-2" class="option" style="display: inherit;">
<path id="Main_Pouch-Belt-2" d="M108.2,87.6c-5.3,0.5-17.5,2.2-23.6,2.2c-6.2,0-18.4-1.8-23.6-2.2l0.8-6.2 c4.3,0.4,16.8,2.2,22.8,2.2c5.8,0,18.1-1.8,22.7-2.2L108.2,87.6z" style="fill: rgb(163, 163, 163);"/>
<rect id="Buckle_Pouch-Belt-2" x="80.2" y="82.9" width="8.8" height="7.2" style="fill: rgb(142, 140, 140);"/>
<g id="Pouches_Pouch-Belt-2" style="fill: rgb(163, 163, 163);">
<g>
<path d="M59,80.8l0.4-0.7l2.2,0.1l0.3,0.8L59,80.8z"/>
<path d="M61.9,81.1c0-0.1,0-0.1,0-0.2c0,0-0.1-0.1-0.1-0.1c-0.7,0-2.7-0.1-2.7-0.1l-0.4,8.8 c0.1,0.3,1.7,0.4,2.6,0.4c0.1,0,0.2-0.1,0.2-0.2C61.5,86.8,61.6,84,61.9,81.1z"/>
</g>
<g>
<path d="M110.1,80.8l-0.4-0.7l-2.2,0.1l-0.3,0.8L110.1,80.8z"/>
<path d="M107.2,81.1c0-0.1,0-0.1,0-0.2c0,0,0.1-0.1,0.1-0.1c0.7,0,2.7-0.1,2.7-0.1l0.4,8.8 c-0.1,0.3-1.7,0.4-2.6,0.4c-0.1,0-0.2-0.1-0.2-0.2C107.7,86.8,107.6,84,107.2,81.1z"/>
</g>
</g>
</g>
</g>
</g>
<g id="Extras_Front">
<g id="Front">
<g id="None_Front" class="option" style="display: inherit;">
</g>
</g>
</g>
</svg></svg>