<?xml version='1.0' encoding='UTF-8'?><svg version='1.1' xmlns='http://www.w3.org/2000/svg'><metadata><rdf:rdf xmlns:rdf="http://www.w3.org/1999/02/22-rdf-syntax-ns#" xmlns:rdfs="http://www.w3.org/2000/01/rdf-schema#" xmlns:dc="http://purl.org/dc/elements/1.1/"> <rdf:description> <dc:creator>MandoCreator</dc:creator> <dc:publisher>https://www.mandocreator.com</dc:publisher> <dc:description>Your Beskar'gam - created by MandoCreator</dc:description> <dc:format>image/svg+xml</dc:format> <dc:type>Image</dc:type> <dc:title>MandoCreator - Ner Berskar'gam</dc:title> <dc:date>2021-10-08T17:01:55.427Z</dc:date> </rdf:description> </rdf:rdf></metadata><svg version="1.1" id="Female" xmlns="http://www.w3.org/2000/svg" viewBox="0 -55 169 300" style="fill: white; fill-rule: evenodd; stroke: black; stroke-width: 0.2px; pointer-events: none; position: relative; height: 100%;">
<g id="Extras_Back">
<g id="Back"><path id="Full-Cape_Back" class="option" d="M67.8,17.9C55.9,22.4,42.7,44,41,60.4c-1,10.4-6.1,20.9-5.6,31.2 c0.5,10.5-4.8,21.3-5.2,31.8c-0.3,9.4-3.1,13.7-4.7,23c-2.4,13.9-5.1,23.1-7.3,37.1c-1.7,11.1-6.9,20.3-9.4,23.7 c-0.2,0.3,15.1-0.1,18.2-0.6c10-1.6,17.7-2.1,27.6,0.4c10.8,2.6,21.4,4.3,32.5,1.8c10.6-2.4,20.6-8,31.6-9 c8.5-0.8,16.8,2,24.9,3.9c2.1,0.5,4.9,1.7,7.1,1.6c0.1,0-0.7-5-0.8-5.5c-1.1-5.2-3.5-10.2-6.3-14.7c-7.2-11.4-4.7-23.8-6-37.2 c-1.3-13,0.1-26-2.1-39c-1.9-11.5-8.7-22.2-10.4-33.8c-2-13.6-6.6-28.2-10.7-41.4C109.4,17.6,79.7,13.4,67.8,17.9z" style="fill: rgb(95, 57, 24); display: inherit;"/>
</g>
</g>
<g id="Suit">
<g id="Neck-Seal">
<g id="Standard-Neck-Seal" class="option" style="fill: rgb(117, 67, 24); display: inherit;">
<path d="M95.2,8.5c0-0.9-0.7-1.7-1.6-1.7c0,0-6.1,0.9-9.1,0.9c-3,0-9.1-0.9-9.1-0.9c-0.9,0-1.6,0.7-1.6,1.7 c0,0.9,0.7,1.6,1.6,1.6c0,0,6.1,0.9,9.1,0.9c3,0,9.1-0.9,9.1-0.9C94.4,10.1,95.2,9.4,95.2,8.5z"/>
<path d="M95.7,10.4c0-1-0.8-1.7-1.7-1.7c0,0-6.4,0.9-9.5,0.9s-9.5-0.9-9.5-0.9c-0.9,0-1.7,0.8-1.7,1.7 c0,1,0.8,1.7,1.7,1.7c0,0,6.4,0.9,9.5,0.9s9.5-0.9,9.5-0.9C95,12.1,95.7,11.3,95.7,10.4z"/>
<path d="M96.3,12.8c0-1-0.8-1.8-1.8-1.8c0,0-6.7,1-10.1,1c-3.4,0-10.1-1-10.1-1c-1,0-1.8,0.8-1.8,1.8 s0.8,1.8,1.8,1.8c0,0,6.7,1,10.1,1c3.4,0,10.1-1,10.1-1C95.5,14.6,96.3,13.8,96.3,12.8z"/>
<path d="M96.9,15c0-1.1-0.8-1.9-1.9-1.9c0,0-7,1-10.6,1c-3.5,0-10.6-1-10.6-1c-1,0-1.9,0.9-1.9,1.9 c0,1.1,0.8,1.9,1.9,1.9c0,0,7,1,10.6,1c3.5,0,10.6-1,10.6-1C96.1,16.9,96.9,16,96.9,15z"/>
<path d="M97.5,17.1c0-0.8-0.9-1.5-2-1.5c0,0-7.4,0.8-11.1,0.8c-3.7,0-11.1-0.8-11.1-0.8c-1.1,0-2,0.6-2,1.5 c0,0.8,0.9,1.5,2,1.5c0,0,7.4,0.8,11.1,0.8c3.7,0,11.1-0.8,11.1-0.8C96.6,18.6,97.5,17.9,97.5,17.1z"/>
<path d="M97.5,19.6c0-0.8-0.9-1.5-2-1.5c0,0-7.4,0.8-11.1,0.8c-3.7,0-11.1-0.8-11.1-0.8c-1.1,0-2,0.6-2,1.5 c0,0.8,0.9,1.4,2,1.4c0,0,7.4,1.5,11.1,1.5c3.7,0,11.1-1.5,11.1-1.5C96.6,21,97.5,20.4,97.5,19.6z"/>
</g>
</g>
<g id="Flight-Suit" style="fill: rgb(0, 0, 0);">
<path d="M38.9,64l5.1-18.4l11.8-8l1.8,16.1c0,0-5.1,9.7-6.9,14.2c-1.8,4.6-5,15.1-5.4,16.5l-2.8,24.4l-8.1-2.6 c0,0-0.3-16.9,0.4-24C35.5,76,38.9,64,38.9,64z"/>
<path d="M130.1,64l-5.1-18.5l-11.7-7.9l-1.9,16.2c0,0,5.1,9.6,6.8,14.1c1.8,4.6,5,15.1,5.4,16.5l2.8,24.4l8.1-2.6 c0,0,0.3-16.9-0.4-24C133.5,76,130.1,64,130.1,64z"/>
<path d="M84.5,116.1c-1,0.1-1.9,0.5-2.2,1.2c-2.9,6.2-8.9,34.4-10.7,39.6c-0.9,2.8-1.7,18.3-3.3,27.3 c-1.9,10.8-8.2,37.3-8.2,37.3l-10.9-1.1c0,0-1.4-26.6-1-36.3c0.3-7.4,3.3-21.8,3.3-21.8s0.7-5.3,0.7-7.9c0.1-9.6,0.9-31,2.8-43.3 c1.5-9.7,10.6-30.1,10.6-30.1s11.9,4.7,18.8,4.7c7,0,18.9-4.8,18.9-4.8s8.6,20.5,10.1,30.2c1.9,12.3,3.2,33.7,3.2,43.3 c0,2.7,0.7,7.9,0.7,7.9s3,14.5,3.3,21.8c0.4,9.7-1,36.3-1,36.3l-10.9,1.1c0,0-6.3-26.5-8.2-37.3c-1.6-9-2.3-24.5-3.3-27.3 c-1.7-5.2-7.7-33.4-10.7-39.6C86.5,116.6,85.6,116.2,84.5,116.1L84.5,116.1z"/>
</g>
<g id="Sleeves" class="toggle" style="fill: rgb(168, 30, 30);">
<path d="M42.6,45.6l0.8,0.3l12.4-8.3c0,0,0.4,8.8,1.4,14.1c0.1,0.7,0.4,1.7,0.6,2.7l-1.6,5.3c0,0-5.6-2.2-8.1-3.6 c-2.4-1.4-6.7-5-6.7-5L42.6,45.6z"/>
<path d="M111.3,54.4c0.3-1.1,0.5-2,0.6-2.7c1-5.3,1.4-14.1,1.4-14.1l12.4,8.3l0.8-0.3l1.2,5.5c0,0-4.3,3.6-6.7,5 c-2.5,1.4-8.1,3.6-8.1,3.6L111.3,54.4z"/>
</g>
</g>
<g id="Boots">
<g id="Gunslinger_Boots" class="option" style="display: inherit;">
<g id="Main_Gunslinger-Boot" style="fill: rgb(59, 59, 59);">
<path d="M62.4,227.8c0,0.2-0.6,3-3.8,3.8c-1,0.3-2.8-0.3-4-0.9c-1.5-0.8-3.2-1.4-4.8-1.9l0,0.1c0,0,0,0.1-0.1,0.1 c-0.5,0.7-1.1,1.4-1.7,2l0,0l0,0c-0.1,0.1-0.1,0.1-0.2,0.2c-0.4,0.3-0.7,0.7-1.1,1l-0.1,0.1l-0.1,0.1c0,0-0.1,0-0.1,0.1 c-0.1,0-0.1,0.1-0.2,0.1c-0.8,0.6-1.8,1.4-2.9,1.2c-1-0.1-2.1-0.5-2.9-0.9c-0.7-0.3-1.4-0.8-1.9-1.2c-0.1-0.1-0.3-0.2-0.3-0.4 c-2.3,0.9-4.7,1.2-5.9,3.8c-0.3,0.5-0.5,1.2-0.4,1.8c0.1,0.8,0.9,0.9,1.6,1.1c1.7,0.4,3.1,0.8,5.1,1.2c2.2,0.5,4.2,0.7,6.4,0.6 c1.7-0.1,3.1-0.2,4.5-1.1c0.6-0.4,1.2-0.7,1.7-1.2c1.1-1.1,1.9-2.2,3.3-2.8c1.1-0.5,2.2-0.9,3.3-1.1c1.6-0.4,3.3-0.7,4.1-2.3 C62.6,230.1,62.6,228.9,62.4,227.8L62.4,227.8"/>
<path d="M106.7,227.8c0,0.2,0.6,3,3.8,3.8c1,0.3,2.8-0.3,4-0.9c1.5-0.8,3.2-1.4,4.8-1.9l0,0.1c0,0,0,0.1,0.1,0.1 c0.5,0.7,1.1,1.4,1.7,2l0,0l0,0c0.1,0.1,0.1,0.1,0.2,0.2c0.4,0.3,0.7,0.7,1.1,1l0.1,0.1l0.1,0.1c0,0,0.1,0,0.1,0.1 c0.1,0,0.1,0.1,0.2,0.1c0.8,0.6,1.8,1.4,2.9,1.2c1-0.1,2.1-0.5,2.9-0.9c0.7-0.3,1.4-0.8,1.9-1.2c0.1-0.1,0.3-0.2,0.3-0.4 c2.3,0.9,4.7,1.2,5.9,3.8c0.3,0.5,0.5,1.2,0.4,1.8c-0.1,0.8-0.9,0.9-1.6,1.1c-1.7,0.4-3.1,0.8-5.1,1.2c-2.2,0.5-4.2,0.7-6.4,0.6 c-1.7-0.1-3.1-0.2-4.5-1.1c-0.6-0.4-1.2-0.7-1.7-1.2c-1.1-1.1-1.9-2.2-3.3-2.8c-1.1-0.5-2.2-0.9-3.3-1.1 c-1.6-0.4-3.3-0.7-4.1-2.3C106.4,230.1,106.5,228.9,106.7,227.8L106.7,227.8"/>
</g>
<g id="Bottom_Gunslinger-Boot" style="fill: rgb(127, 32, 32);">
<path d="M62.4,230c-0.1,0.4-0.2,0.9-0.5,1.3c-0.8,1.6-2.6,1.9-4.1,2.3c-1.1,0.3-2.2,0.7-3.3,1.1 c-1.5,0.6-2.2,1.7-3.3,2.8c-0.5,0.5-1.1,0.8-1.7,1.2c-1.5,0.9-2.9,1-4.5,1.1c-2.2,0.1-4.2-0.2-6.4-0.6c-1.9-0.4-3.4-0.7-5.1-1.2 c-0.5-0.1-1.2-0.2-1.5-0.7l0,0l-0.3,0.7l-0.2,1.5c0,0,1.8,1,3.7,1.4c1.9,0.4,5.8,1,5.8,1l0.3-0.6l0.9,0.2l0,0.6l2.1,0.1l0.4-0.6 l0.7,0l-0.1,0.5c0,0,1.3,0,2-0.4c0.1-0.2,0.4-0.5,0.4-0.5l0.5-0.3l-0.1,0.5l1.8-0.7l0.1-0.7l0.5-0.3l0,0.5l1.3-1l0.1-0.6l3.2-2.3 l0.5,1.2l2.3-0.5l0.1-0.5l0.6-0.2l0.4,0.4l1.5-0.6l0-0.5l0.5-0.2l0.1,0.3l1.4-1l0.3-2l0.1-2.2L62.4,230L62.4,230"/>
<path d="M106.6,230c0.1,0.4,0.2,0.9,0.5,1.3c0.8,1.6,2.6,1.9,4.1,2.3c1.1,0.3,2.2,0.7,3.3,1.1 c1.5,0.6,2.2,1.7,3.3,2.8c0.5,0.5,1.1,0.8,1.7,1.2c1.5,0.9,2.9,1,4.5,1.1c2.2,0.1,4.2-0.2,6.4-0.6c1.9-0.4,3.4-0.7,5.1-1.2 c0.5-0.1,1.2-0.2,1.5-0.7l0,0l0.3,0.7l0.2,1.5c0,0-1.8,1-3.7,1.4c-1.9,0.4-5.8,1-5.8,1l-0.3-0.6l-0.9,0.2l0,0.6l-2.1,0.1 l-0.4-0.6l-0.7,0l0.1,0.5c0,0-1.3,0-2-0.4c-0.1-0.2-0.4-0.5-0.4-0.5l-0.5-0.3l0.1,0.5l-1.8-0.7l-0.1-0.7l-0.5-0.3l0,0.5l-1.3-1 l-0.1-0.6l-3.2-2.3l-0.5,1.2l-2.3-0.5l-0.1-0.5l-0.6-0.2l-0.4,0.4l-1.5-0.6l0-0.5l-0.5-0.2l-0.1,0.3l-1.4-1l-0.3-2l-0.1-2.2 L106.6,230L106.6,230"/>
</g>
<g id="Top_Gunslinger-Boot" style="fill: rgb(0, 0, 0);">
<path d="M49.9,228.8c1.9-2.8,3.2-6.2,3.7-9.1l0,0l-0.5,0l0,0l-0.1,0l-0.2,0l-0.3,0l-0.1,0c-0.3,0-0.6-0.1-0.9-0.1 l-0.5-0.1l-0.1,0l0,0l-0.1,0l-0.3-0.1l-0.3-0.1l0,0c-1-0.3-0.9-0.5-0.9-0.5c-0.3,1.3-0.9,2.7-1.5,4c-0.9,1.9-2.7,3.6-4.1,5.1 c-1,1-2.5,2-3.7,2.8c-0.5,0.3-1.1,0.6-1.6,0.8c0.4,0.6,1.4,1.2,2.2,1.6c0.8,0.4,1.9,0.8,2.9,0.9c1,0.1,2.1-0.7,2.9-1.2 C47.6,231.6,48.8,230.3,49.9,228.8L49.9,228.8"/>
<path d="M119.2,228.8c-1.9-2.8-3.2-6.2-3.7-9.1l0,0l0.5,0l0,0l0.1,0l0.2,0l0.3,0l0.1,0c0.3,0,0.6-0.1,0.9-0.1 l0.5-0.1l0.1,0l0,0l0.1,0l0.3-0.1l0.3-0.1l0,0c1-0.3,0.9-0.5,0.9-0.5c0.3,1.3,0.9,2.7,1.5,4c0.9,1.9,2.7,3.6,4.1,5.1 c1,1,2.5,2,3.7,2.8c0.5,0.3,1.1,0.6,1.6,0.8c-0.4,0.6-1.4,1.2-2.2,1.6c-0.8,0.4-1.9,0.8-2.9,0.9c-1,0.1-2.1-0.7-2.9-1.2 C121.5,231.6,120.3,230.3,119.2,228.8L119.2,228.8"/>
</g>
<g id="Side_Gunslinger-Boot" style="fill: rgb(176, 40, 40);">
<path d="M49.8,228.9c1.7,0.5,3.3,1.1,4.8,1.9c1.1,0.6,2.9,1.1,4,0.9c3.2-0.8,3.8-3.8,3.8-3.8c-0.1-0.7-0.8-3.2-1-3.9 c-0.5-1.5-0.4-5.3-0.5-5.3c-2.6,1.4-6,1.1-7.3,1l0,0C53.1,222.7,51.8,226.1,49.8,228.9"/>
<path d="M119.2,228.9c-1.7,0.5-3.3,1.1-4.8,1.9c-1.1,0.6-2.9,1.1-4,0.9c-3.2-0.8-3.8-3.8-3.8-3.8 c0.1-0.7,0.8-3.2,1-3.9c0.5-1.5,0.4-5.3,0.5-5.3c2.6,1.4,6,1.1,7.3,1l0,0C116,222.7,117.3,226.1,119.2,228.9"/>
</g>
</g>
</g>
<g id="Gloves">
<g id="Left-Glove">
<g id="Fingerless_Left_Glove" class="option" style="display: inherit;">
<g id="Fingers_Fingerless_Left_Glove" style="fill: rgb(238, 160, 89);">
<path d="M131.4,123c-0.5,0-0.9,0-1.3,0.1c-0.3,0.1-0.6,0.2-0.9,0.3c-0.8,0.5-0.6,1.7,0.1,2.2c0.9,0.5,2.2,0,2.6-1 C132.1,124.2,131.6,123.4,131.4,123"/>
<path d="M129.9,124c-0.5,0-0.9,0-1.3,0.1c-0.3,0.1-0.6,0.2-0.9,0.3c-0.8,0.5-0.6,1.7,0.1,2.2c0.9,0.5,2.2,0,2.6-1 C130.6,125.2,130.1,124.4,129.9,124"/>
<path d="M128.8,125.4c-0.4,0-1,0.2-1.4,0.3c-0.3,0.1-0.6,0.2-0.8,0.5c-0.8,0.7-0.4,1.8,0.4,2.1 c0.9,0.4,2.2-0.3,2.5-1.4C129.5,126.5,128.8,125.4,128.8,125.4z"/>
<path d="M124.1,118.9c-0.3,1.3-0.5,2-0.5,2s-1.2,2.7-0.9,3.3c0.2,0.6,1.2,1.2,1.8,0.8c0.7-0.4,1.6-2.3,2.2-3.6 c0.2-0.5,0.4-1,0.6-1.6C125,120.2,124.1,118.9,124.1,118.9L124.1,118.9z"/>
<path d="M128.9,125.2c-0.2,0.3-0.4,0.7-0.6,1c-1.1,1.9-2.9,3.6-1.7,5.1c1.1,1.4,3.5-2.3,3.5-2.3l1.1-1.7 C129.4,126.9,128.9,125.2,128.9,125.2z"/>
</g>
<path id="Glove_Fingerless_Left_Glove" d="M131.3,127.4l1.3-1.9c0,0,2.8-5.1,2.9-6.1c0.1-0.8,0-3.3,0-3.3l-0.9-9.9 l-4.4,0.4l-3.6,1.3l-0.3,1.7c0,0-1.3,2-1.6,3.5c-0.2,1-0.1,3.5-0.4,5.2c0,0.2-0.1,0.4-0.1,0.6l0,0c0,0,0.8,1.3,3.1,0.9 c0.3-0.9,0.5-1.7,0.5-1.7s0.8,0.3,1.2,0.7c1.3,1.2,0.8,4.7,0.8,4.7s-0.3,0.7-0.8,1.7C128.9,125.2,129.4,126.9,131.3,127.4z" style="fill: rgb(100, 58, 21);"/>
</g>
</g>
<g id="Right-Glove">
<g id="Fingerless_Right_Glove" class="option" style="display: inherit;">
<g id="Fingers_Fingerless_Right_Glove" style="fill: rgb(238, 160, 89);">
<path d="M37.6,123c0.5,0,0.9,0,1.3,0.1c0.3,0.1,0.6,0.2,0.9,0.3c0.8,0.5,0.6,1.7-0.1,2.2c-0.9,0.5-2.2,0-2.6-1 C36.9,124.2,37.4,123.4,37.6,123"/>
<path d="M39.2,124c0.5,0,0.9,0,1.3,0.1c0.3,0.1,0.6,0.2,0.9,0.3c0.8,0.5,0.6,1.7-0.1,2.2c-0.9,0.5-2.2,0-2.6-1 C38.4,125.2,38.9,124.4,39.2,124"/>
<path d="M40.2,125.4c0.5,0,1,0.2,1.4,0.3c0.3,0.1,0.6,0.2,0.8,0.5c0.8,0.7,0.4,1.8-0.4,2.1 c-0.9,0.4-2.2-0.3-2.5-1.4C39.5,126.5,40.2,125.4,40.2,125.4z"/>
<path d="M44.9,118.9c0.3,1.3,0.5,2,0.5,2s1.1,2.7,0.9,3.3c-0.2,0.6-1.2,1.2-1.8,0.8c-0.7-0.4-1.6-2.3-2.2-3.6 c-0.2-0.5-0.4-1-0.6-1.6C44.1,120.2,44.9,118.9,44.9,118.9L44.9,118.9z"/>
<path d="M40.1,125.2c0.2,0.3,0.4,0.7,0.6,1c1.1,1.9,2.9,3.6,1.7,5.1c-1.1,1.4-3.5-2.3-3.5-2.3l-1.1-1.7 C39.7,126.9,40.1,125.2,40.1,125.2z"/>
</g>
<path id="Glove_Fingerless_Right_Glove" d="M37.8,127.4l-1.3-1.9c0,0-2.8-5.1-2.9-6.1c-0.1-0.8,0-3.3,0-3.3 l0.9-9.9l4.4,0.4l3.6,1.3l0.3,1.7c0,0,1.3,2,1.6,3.5c0.2,1,0.1,3.5,0.4,5.2c0,0.2,0.1,0.4,0.1,0.6l0,0c0,0-0.8,1.3-3.1,0.9 c-0.3-0.9-0.5-1.7-0.5-1.7s-0.8,0.3-1.2,0.7c-1.3,1.2-0.8,4.7-0.8,4.7s0.3,0.7,0.8,1.7C40.1,125.2,39.7,126.9,37.8,127.4z" style="fill: rgb(100, 58, 21);"/>
</g>
</g>
</g>
<g id="Biceps">
<g id="Left-Biceps">
<g id="Basic_Biceps_Left" class="option" style="display: inherit;">
<path id="Main_Basic_Biceps_Left" d="M131.5,57.7c-1.2-2.8-6.3-15-6.3-15s-8.4,3.5-10.5,4.3 c-0.6,0.2-0.9,0.9-0.6,1.5c1,2.4,3.4,8.3,4.9,11.9c0.3,0.8,1,1.5,1.8,1.8c0.8,0.3,1.8,0.3,2.6,0c2.5-1,5.8-2.4,7.5-3.1 C131.5,59,131.8,58.3,131.5,57.7z" style="fill: rgb(139, 30, 30);"/>
<path id="Strap_Basic_Biceps_Left" d="M116.4,54l-4.6,1.9l1.1,3.9l5-2.1L116.4,54" style="fill: rgb(108, 64, 25);"/>
<path id="Trauma-Plate_Basic_Biceps_Left" class="toggle" style="fill: rgb(0, 0, 0);" d="M131.5,57.2l-5.3-13l-10.3,4.2l4.7,11.4 c0.2,0.4,0.5,0.7,0.9,0.9c0.4,0.2,0.9,0.2,1.3,0L131.5,57.2"/>
</g>
</g>
<g id="Right-Biceps">
<g id="Basic_Biceps_Right" class="option" style="display: inherit;">
<path id="Main_Basic_Biceps_Right" d="M37.5,57.7c1.2-2.8,6.3-15,6.3-15s8.4,3.5,10.5,4.3c0.6,0.2,0.9,0.9,0.6,1.5 c-1,2.4-3.4,8.3-4.9,11.9c-0.3,0.8-1,1.5-1.8,1.8c-0.8,0.3-1.8,0.3-2.6,0c-2.5-1-5.8-2.4-7.5-3.1C37.6,59,37.3,58.3,37.5,57.7z" style="fill: rgb(139, 30, 30);"/>
<path id="Strap_Basic_Biceps_Right" d="M52.7,54l4.6,1.9l-1.1,3.9l-5-2.1L52.7,54" style="fill: rgb(108, 64, 25);"/>
<path id="Trauma-Plate_Basic_Biceps_Right" class="toggle" style="fill: rgb(0, 0, 0);" d="M37.6,57.2l5.3-13l10.3,4.2l-4.7,11.4 c-0.2,0.4-0.5,0.7-0.9,0.9c-0.4,0.2-0.9,0.2-1.3,0L37.6,57.2"/>
</g>
</g>
</g>
<path id="Vest" d="M90.9,86.3c-4.2,0.9-8.6,0.9-12.8,0c-4.2-0.9-12.5-5.2-12.5-5.2s-7.2-22.8-8.5-29.4 c-1-5.3-1.4-14.1-1.4-14.1L43.4,46l-2.6-1.1c0,0,7.4-16.4,12.3-21.1c4.4-4.3,17-7.3,17-7.3s5.5,6.1,14.6,6.1 c8.6,0,14.6-6.1,14.6-6.1s12.5,3.1,17,7.3c4.9,4.7,12.3,21.1,12.3,21.1l-2.6,1.1l-12.4-8.3c0,0-0.4,8.8-1.4,14.1 c-1.3,6.6-8.5,29.4-8.5,29.4S95.1,85.4,90.9,86.3z" style="fill: rgb(113, 15, 15);"/>
<g class="swappable" id="Chest">
<g id="Chest_Heavy" style="visibility: visible;">
<g id="Abdomen_Heavy">
<g id="Under-Plates_Abdomen_Heavy" style="fill: rgb(92, 23, 23);">
<rect x="74.7" y="68.7" width="19.6" height="2.5"/>
<rect x="74.7" y="71.2" width="19.6" height="2.5"/>
<rect x="74.7" y="73.7" width="19.6" height="2.5"/>
<rect x="74.7" y="76.2" width="19.6" height="2.5"/>
<rect x="74.7" y="78.7" width="19.6" height="2.5"/>
</g>
<g id="Abdomen-Plate_Heavy" style="fill: rgb(55, 55, 55);">
<path d="M78.5,60.6l-9.8,4.1l-0.9-2.2L78.5,58V60.6z"/>
<path d="M72.2,73.1l-3.4-8.3l9.8-4.1l3.1,8.7L72.2,73.1z"/>
<path d="M67.8,62.5l-4.1,0.7l6,14.4l4.1-0.8L67.8,62.5z"/>
<path d="M90.5,60.6l9.8,4.1l0.9-2.2L90.5,58V60.6z"/>
<path d="M96.9,73.1l3.4-8.3l-9.8-4.1l-3.1,8.7L96.9,73.1z"/>
<path d="M101.2,62.5l4.1,0.7l-6,14.4l-4.1-0.8L101.2,62.5z"/>
<rect x="78.5" y="58" width="12" height="2.6"/>
<path d="M81.6,69.4l-3.1-8.7h12l-3.1,8.7H81.6z"/>
</g>
</g>
<g id="Neck-Armor_Heavy">
<g id="Neck-Plate_Heavy" style="fill: rgb(0, 0, 0);">
<path d="M71.1,17.1L62.6,19c0,0,0.4,1.5,0.8,3.2c0.6,2.3,2.9,3.8,5.3,3.3l0,0c1.1-0.2,2.1-0.9,2.7-1.9 c0.6-1,0.8-2.1,0.5-3.2C71.5,18.7,71.1,17.1,71.1,17.1z"/>
<path d="M98,17.1l8.5,1.9c0,0-0.4,1.5-0.8,3.2c-0.6,2.3-2.9,3.8-5.3,3.3c0,0,0,0,0,0c-1.1-0.2-2.1-0.9-2.7-1.9 c-0.6-1-0.8-2.1-0.5-3.2C97.6,18.7,98,17.1,98,17.1z"/>
</g>
<g id="Secondary_Neck-Plate_Heavy" style="fill: rgb(132, 30, 30);">
<path d="M69,17.3l-4.3,0.9c0,0,0.3,1.2,0.6,2.4c0.3,1.2,1.5,1.9,2.7,1.6c0,0,0,0,0,0c0.6-0.1,1-0.5,1.3-1 c0.3-0.5,0.4-1.1,0.2-1.6C69.3,18.5,69,17.3,69,17.3z"/>
<path d="M100.1,17.3l4.3,0.9c0,0-0.3,1.2-0.6,2.4c-0.3,1.2-1.5,1.9-2.7,1.6c0,0,0,0,0,0c-0.6-0.1-1-0.5-1.3-1 c-0.3-0.5-0.4-1.1-0.2-1.6C99.8,18.5,100.1,17.3,100.1,17.3z"/>
</g>
</g>
<g id="Full-Chest_Heavy">
<path id="Under-Plate_Chest_Heavy" d="M89.3,55.1h-9.7l-2.4,2.1v1.4l1.3-0.5h12l1.3,0.5v-1.4L89.3,55.1z" style="fill: rgb(131, 32, 32);"/>
<g id="Chest-Plate_Heavy" style="fill: rgb(36, 36, 36);">
<path d="M67.6,61.3l8.6-5l1.2-2.4l2.3,0.3h9.8l2.3-0.3l1.2,2.4l8.6,5l4,0.9l-0.1,1.5l-4.3-0.7l-9.3-3.9v-1.9 l-2.4-2.1h-9.7l-2.4,2.1v1.9L68,62.9l-4.3,0.7l-0.1-1.5L67.6,61.3z"/>
<path d="M105.4,62.2l5-12.7l0.7,2.6l-1.6,9.5L105.4,62.2z"/>
<path d="M58,52.1l0.7-2.6l5,12.7l-4.1-0.7L58,52.1z"/>
<path d="M63.5,44.5v-5.3l-0.4-9.5l2.5-2.7l7.5-1.6l1.9,2.3h19l1.9-2.3l7.5,1.6l2.5,2.7l-0.4,9.3l0,0v5.6L91.7,54 l-2.3,0.3h-9.8L77.4,54L63.5,44.5z"/>
<path d="M105.5,39.2v5.3l4.8,5L105.5,39.2z"/>
<path d="M77.4,54l-13.8-9.5l-4.8,5l5,12.7l4-0.9l8.6-5L77.4,54z"/>
<path d="M110.3,49.5l-5,12.7l-4-0.9l-8.6-5L91.7,54l13.8-9.5L110.3,49.5z"/>
<path d="M109.5,61.5l-0.2,1l-4,1.1l0.1-1.5L109.5,61.5z"/>
<path d="M63.5,39.2v5.3l-4.8,5L63.5,39.2z"/>
<path d="M63.1,29.7c0,4.9-0.6,9.8-2,14.7l2.4-5.1L63.1,29.7z"/>
<path d="M105.9,29.7c0.1,4.9,0.6,9.8,2,14.7l-2.4-5.1L105.9,29.7z"/>
<path d="M63.7,62.2l0.1,1.5l-4-1.1l-0.2-1L63.7,62.2z"/>
</g>
<g id="Accents_Chest-Plate_Heavy" class="toggle">
<g id="Accent-3_Accents_Chest-Plate_Heavy" style="fill: rgb(132, 24, 24);">
<path d="M95.8,39.1l-0.5-1.6h2.3l-0.5,1.6H95.8z"/>
<path d="M95.8,42.1l-0.5-1.6h2.3l-0.5,1.6H95.8z"/>
<rect x="94.3" y="29.7" width="4.3" height="0.5"/>
<rect x="94.3" y="31.2" width="4.3" height="0.5"/>
</g>
<path id="Accent-2_Accents_Chest-Plate_Heavy" d="M71.8,27.1c-0.1-1.4-1.3-2.4-2.6-2.3l0,0 c-0.7,0-1.3,0.3-1.7,0.8c-0.4,0.5-0.6,1.1-0.6,1.8c0.1,0.8,0.1,1.6,0.2,2.4c0.1,1.4,1.3,2.4,2.6,2.3l0,0c0.7,0,1.3-0.3,1.7-0.8 c0.4-0.5,0.6-1.1,0.6-1.8C71.9,28.8,71.8,27.9,71.8,27.1z" style="fill: rgb(136, 27, 27);"/>
<g id="Accent-1_Accents_Chest-Plate_Heavy" style="fill: rgb(124, 25, 25);">
<path d="M71,25.2l-3.8,0.2l0.5,6.3l3.8-0.2L71,25.2z"/>
<path d="M70.6,25.7l-2.9,0.2l0.1,0.9l2.9-0.2L70.6,25.7z"/>
<path d="M68.2,26.8l-0.4,0l0.4,4.9l0.4,0L68.2,26.8z"/>
<path d="M68.6,26.8l-0.4,0l0.4,4.9l0.4,0L68.6,26.8z"/>
<path d="M70.7,26.6l-0.4,0l0.4,4.9l0.4,0L70.7,26.6z"/>
<path d="M70.3,26.7l-0.4,0l0.4,4.9l0.4,0L70.3,26.7z"/>
<path d="M69.4,26.7l-0.4,0l0.4,4.9l0.4,0L69.4,26.7z"/>
<path d="M69.9,26.7l-0.4,0l0.4,4.9l0.4,0L69.9,26.7z"/>
<path d="M69,26.7l-0.4,0l0.4,4.9l0.4,0L69,26.7z"/>
</g>
</g>
</g>
<g id="Iron-Heart_Heavy">
<path id="Heart_Heavy" d="M84.5,34.7l2.8,2.6v5.2l-2.8,2.6l-2.8-2.6v-5.2L84.5,34.7z" style="fill: rgb(141, 29, 29);"/>
<g id="Center_Heart_Heavy" class="option" style="fill: rgb(73, 73, 73); display: inherit;">
<rect x="83.5" y="37.4" width="2.1" height="2.5"/>
<rect x="83.5" y="39.9" width="0.3" height="2.5"/>
<rect x="84.9" y="39.9" width="0.3" height="2.5"/>
<rect x="85.2" y="39.9" width="0.3" height="2.5"/>
<rect x="84.2" y="39.9" width="0.3" height="2.5"/>
<rect x="84.5" y="39.9" width="0.3" height="2.5"/>
<rect x="83.8" y="39.9" width="0.3" height="2.5"/>
</g>
</g>
</g>
</g>
<g id="Chest-Attachments">
<g id="Bandoleer_Accessories_Chest" class="option" style="display: inherit;">
<g id="Strap_Bandoleer_Accessories_Chest" style="fill: rgb(54, 54, 54);">
<path d="M112.6,19.9l-6.7-3.3l-37,67l6.7,3.7L112.6,19.9"/>
<path d="M110.8,18.7l-2.5-1.2l-8.4,15.3l2.4,1.3L110.8,18.7"/>
<path d="M98.8,40.7L96,39.2l-13,23.5l2.8,1.5L98.8,40.7"/>
<path d="M99.1,41.6l-4-2.2l-1.3,2.4l4,2.2L99.1,41.6"/>
<path d="M97.5,44.5l-4-2.2l-1.3,2.4l4,2.2L97.5,44.5"/>
<path d="M95.9,47.3l-4-2.2l-1.3,2.4l4,2.2L95.9,47.3"/>
<path d="M94.4,50.2l-4-2.2l-1.3,2.4l4,2.2L94.4,50.2"/>
<path d="M92.8,53l-4-2.2l-1.3,2.4l4,2.2L92.8,53"/>
<path d="M89.6,58.7l-4-2.2l-1.3,2.4l4,2.2L89.6,58.7"/>
<path d="M91.2,55.9l-4-2.2L86,56.1l4,2.2L91.2,55.9"/>
<path d="M88.1,61.6l-4-2.2l-1.3,2.4l4,2.2L88.1,61.6"/>
</g>
<g id="Ammo_Bandoleer_Accessories_Chest" style="fill: rgb(219, 188, 26);">
<g>
<g>
<path d="M98.9,41.9l1.6,0.9c0.2,0.1,0.2,0.3,0.1,0.5c-0.2,0.3-0.5,0.9-0.7,1.2c-0.1,0.2-0.3,0.2-0.5,0.1l-1.6-0.9 L98.9,41.9z"/>
<path d="M100.1,42.5l-0.1-0.1l-1,1.8l0.1,0.1L100.1,42.5z"/>
<path d="M99.9,42.4l-0.1-0.1l-1,1.8l0.1,0.1L99.9,42.4z"/>
</g>
<g>
<path d="M95,39.7l-1,1.8l-1.6-0.9c-0.2-0.1-0.2-0.3-0.1-0.5c0.2-0.3,0.5-0.9,0.7-1.2c0.1-0.2,0.3-0.2,0.5-0.1 L95,39.7z"/>
<path d="M93.8,39l-0.1-0.1l-1,1.8l0.1,0.1L93.8,39z"/>
</g>
</g>
<g>
<g>
<path d="M95.8,47.6l1.6,0.9c0.2,0.1,0.2,0.3,0.1,0.5c-0.2,0.3-0.5,0.9-0.7,1.2c-0.1,0.2-0.3,0.2-0.5,0.1l-1.6-0.9 L95.8,47.6z"/>
<path d="M97,48.3l-0.1-0.1l-1,1.8l0.1,0.1L97,48.3z"/>
<path d="M96.7,48.1L96.6,48l-1,1.8l0.1,0.1L96.7,48.1z"/>
</g>
<g>
<path d="M91.8,45.4l-1,1.8l-1.6-0.9C89,46.3,89,46,89.1,45.9c0.2-0.3,0.5-0.9,0.7-1.2c0.1-0.2,0.3-0.2,0.5-0.1 L91.8,45.4z"/>
<path d="M90.6,44.7l-0.1-0.1l-1,1.8l0.1,0.1L90.6,44.7z"/>
</g>
</g>
<g>
<g>
<path d="M94.2,50.4l1.6,0.9c0.2,0.1,0.2,0.3,0.1,0.5c-0.2,0.3-0.5,0.9-0.7,1.2c-0.1,0.2-0.3,0.2-0.5,0.1l-1.6-0.9 L94.2,50.4z"/>
<path d="M95.4,51.1L95.3,51l-1,1.8l0.1,0.1L95.4,51.1z"/>
<path d="M95.1,50.9L95,50.9l-1,1.8l0.1,0.1L95.1,50.9z"/>
</g>
<g>
<path d="M90.3,48.3l-1,1.8l-1.6-0.9c-0.2-0.1-0.2-0.3-0.1-0.5c0.2-0.3,0.5-0.9,0.7-1.2c0.1-0.2,0.3-0.2,0.5-0.1 L90.3,48.3z"/>
<path d="M89,47.6l-0.1-0.1l-1,1.8l0.1,0.1L89,47.6z"/>
</g>
</g>
<g>
<g>
<path d="M92.6,53.3l1.6,0.9c0.2,0.1,0.2,0.3,0.1,0.5c-0.2,0.3-0.5,0.9-0.7,1.2c-0.1,0.2-0.3,0.2-0.5,0.1l-1.6-0.9 L92.6,53.3z"/>
<path d="M93.8,54l-0.1-0.1l-1,1.8l0.1,0.1L93.8,54z"/>
<path d="M93.6,53.8l-0.1-0.1l-1,1.8l0.1,0.1L93.6,53.8z"/>
</g>
<g>
<path d="M88.7,51.1l-1,1.8l-1.6-0.9c-0.2-0.1-0.2-0.3-0.1-0.5c0.2-0.3,0.5-0.9,0.7-1.2c0.1-0.2,0.3-0.2,0.5-0.1 L88.7,51.1z"/>
<path d="M87.5,50.5l-0.1-0.1l-1,1.8l0.1,0.1L87.5,50.5z"/>
</g>
</g>
</g>
<g id="Buckles_Bandoleer_Accessories_Chest" style="fill: rgb(154, 154, 154);">
<g>
<path d="M103.4,32.5l-2.9-1.6l-1.6,3l2.9,1.6L103.4,32.5z"/>
<path d="M102.7,33l-2.2-1.2l-1.6,3L101,36L102.7,33z"/>
</g>
<path d="M103.4,29l-1.9-1l1.6-3l3.8,2.1l-1.6,3L103.4,29l0.4-0.7l1.1,0.6l0.9-1.6l-2.1-1.2l-0.9,1.6l1,0.6"/>
</g>
</g>
</g>
<g id="Collar">
<g id="None_Collar" class="option" style="display: inherit;">
</g>
</g>
<svg version="1.1" id="Helmets" xmlns="http://www.w3.org/2000/svg" y="-54px" height="85px" viewBox="0 0 80 80" class="swappable">
<g id="Helmet_Recon" style="visibility: visible;">
<g id="Left-Earcap_Recon">
<g id="Ear-Cap_Left_Recon" style="fill: rgb(112, 27, 27);">
<path d="M59.1,34.4l1.5,0.8l-0.7,1.3h-0.8V34.4z"/>
<path d="M60.6,35.2l1,13.3l-1.4-0.2l-0.3-11.9L60.6,35.2z"/>
<path d="M60.2,48.3h-1.1l-0.3-11.9h1.1L60.2,48.3z"/>
<path d="M61.1,48.5v1.4h-2v-1.5h1.1L61.1,48.5z"/>
<rect x="59.1" y="48.3" width="0.7" height="1.6"/>
<path d="M61.1,50.3v1.3l-1.9,0.2v-1.5H61.1z"/>
<path d="M59.8,50.3v1.4l-0.7,0.1v-1.5H59.8z"/>
<path d="M60.8,49.9v0.4h-1.7v-0.4H60.8z"/>
<rect x="59.1" y="49.9" width="0.6" height="0.4"/>
<path d="M60.6,51.6h1.1l0.1,4.6l-1.2,1.3V51.6z"/>
<path d="M60.5,57.6l-1.2,0.9l-0.1-6.6l1.4-0.1L60.5,57.6L60.5,57.6z"/>
<path d="M58.9,40.9h0.6v2.3H59L58.9,40.9z"/>
</g>
</g>
<g id="Right-Earcap_Recon">
<g id="Sensor-Stalk_Right_Recon" class="option" style="display: inherit;">
<g id="Sensor_Sensor-Stalk_Right_Recon" style="fill: rgb(143, 33, 33);">
<path d="M12.5,32.3L18,8.6h0.5l-0.7,23.7H12.5z"/>
<path d="M12.9,32.3h-0.3L18,8.6h0.3L12.9,32.3z"/>
<path d="M15.4,32.3L17,18.1h1.2l-0.4,14.2H15.4z"/>
<path d="M18.2,18.5h-0.9l-1.5,13.9h-0.3L17,18.1h1.2V18.5z"/>
<path d="M12.5,37.5l3.6,9h1.4v-9H12.5z"/>
<path d="M16.6,46.6l-3.6-9h-0.4l3.6,9H16.6z"/>
<path d="M15.6,37.5l1,5.6h1v-5.6H15.6z"/>
<path d="M16.8,42.8l-0.9-5.2h-0.3l1,5.6h1v-0.4H16.8z"/>
</g>
<g id="Shaft_Sensor-Stalk_Right_Recon" style="fill: rgb(0, 0, 0);">
<rect x="12.5" y="32.3" width="5.2" height="0.6"/>
<rect x="12.6" y="36.9" width="5" height="0.6"/>
<path d="M17.7,32.9h-5.2l0.2,0.4h4.9L17.7,32.9z"/>
<path d="M17.6,36.9h-5l0.2-0.4h4.8V36.9z"/>
<path d="M19.2,8.6h-0.7l-1,33h1.7V8.6z"/>
<rect x="18.3" y="40.2" width="0.8" height="2.9"/>
<path d="M18.3,43.1c-0.5,0-0.9-0.6-0.9-1.4s0.4-1.4,0.8-1.4L18.3,43.1L18.3,43.1z"/>
</g>
</g>
<g id="Ear-Cap_Right_Recon" style="fill: rgb(111, 20, 20);">
<path d="M20.9,34.4l-1.5,0.8l0.7,1.3h0.8V34.4z"/>
<path d="M19.4,35.2l-1,13.3l1.4-0.2L20,36.4L19.4,35.2z"/>
<path d="M19.8,48.3h1.1l0.3-11.9H20L19.8,48.3z"/>
<path d="M18.9,48.5v1.4h2v-1.5h-1.1L18.9,48.5z"/>
<rect x="20.1" y="48.3" width="0.7" height="1.6"/>
<path d="M18.9,50.3v1.3l1.9,0.2v-1.5H18.9z"/>
<path d="M20.1,50.3v1.4l0.7,0.1v-1.5H20.1z"/>
<path d="M19.1,49.9v0.4h1.7v-0.4H19.1z"/>
<rect x="20.2" y="49.9" width="0.6" height="0.4"/>
<path d="M19.4,51.6h-1.1l-0.1,4.6l1.2,1.3V51.6z"/>
<path d="M19.4,57.6l1.2,0.9l0.1-6.6l-1.4-0.1v5.8H19.4z"/>
<rect x="20.4" y="40.9" width="0.6" height="2.3"/>
</g>
</g>
<g id="Helmet_Pieces_Recon">
<g id="Face_Recon" style="fill: rgb(146, 37, 37);">
<path d="M22.9,58.7l0.8-6.9l0.8-0.3l0.7-5.2c0,0,4.5,3.1,6.3,5.2c2,2.3,4.1,15,4.1,15L22.9,58.7z"/>
<path d="M57,58.7l-0.8-6.9l-0.8-0.3l-0.7-5.2c0,0-4.5,3.1-6.3,5.2c-2,2.3-4.1,15-4.1,15L57,58.7z"/>
</g>
<g id="Vents_Recon" style="fill: rgb(0, 0, 0);">
<g>
<path d="M26,53.3l-1.2-0.9l-0.4,0.2v0.5l1.1,1.1v-0.6L26,53.3z"/>
<path d="M23.7,51.7l0.6,0.8l0.4-0.2l1.2,0.9l-0.6,0.3l1.8,1.2l1.7-0.8c-1.6-0.7-3-1.5-4.3-2.5L23.7,51.7z"/>
<path d="M27.1,54.7c-0.8,1.7-1.1,3.7-0.9,5.9l1.5,0.9l1-7.7L27.1,54.7z"/>
<path d="M27.6,54.9l0.8-0.4L27.5,61l-0.9-0.5v-0.2h0.8v-0.4h-0.8v-0.4h0.9v-0.4h-0.9v-0.4h1v-0.4h-1v-0.4h1.1v-0.4 h-1l0.1-0.4h1v-0.4h-0.9l0.1-0.4v-0.1h0.9v-0.4h-0.8l0.1-0.2l0.1-0.3H28v-0.4H27.6z"/>
<path d="M26.3,60.7l-3.3-2l0.8-6.9l0.6,0.8v0.5l1.1,1.1v-0.6l1.8,1.2C26.3,56.4,26,58.4,26.3,60.7z"/>
<path d="M24.6,52.8l0.8,0.8l0.6-0.3l-1-0.7L24.6,52.8z"/>
<path d="M24.6,53.1v-0.3l0.8,0.8v0.3L24.6,53.1z"/>
<path d="M24.3,53.1h0.3"/>
<path d="M25,58.8l-1.1-0.6v0.3l1.1,0.6V58.8z"/>
<path d="M27.6,54.9H28v0.4h-0.8l0.1-0.3L27.6,54.9z"/>
<path d="M27.1,55.8L27,56.2h0.9v-0.4H27.1z"/>
<path d="M26.9,56.6l-0.1,0.3V57h1v-0.4H26.9z"/>
<path d="M26.7,57.4v0.4h1.1v-0.4H26.7z"/>
<rect x="26.6" y="58.2" width="1" height="0.4"/>
<rect x="26.6" y="59.1" width="0.9" height="0.4"/>
<rect x="26.6" y="59.9" width="0.8" height="0.4"/>
</g>
<g>
<path d="M54,53.3l1.2-0.9l0.4,0.2v0.5l-1.1,1.1v-0.6L54,53.3z"/>
<path d="M56.2,51.7l-0.6,0.8l-0.4-0.2l-1.2,1l0.6,0.3l-1.8,1.2L51.1,54c1.6-0.7,3-1.5,4.3-2.5L56.2,51.7z"/>
<path d="M52.8,54.7c0.8,1.7,1.1,3.7,0.9,5.9l-1.5,0.9l-1-7.7L52.8,54.7z"/>
<path d="M52.4,54.9l-0.8-0.4l0.9,6.5l0.9-0.5v-0.2h-0.8v-0.4h0.8v-0.4h-0.9v-0.4h0.9v-0.4h-1v-0.4h1v-0.4h-1.1 v-0.4h1L53.2,57h-1v-0.4h0.9L53,56.2v-0.1h-0.9v-0.4h0.8l-0.1-0.2l-0.1-0.3h-0.8v-0.4h0.5V54.9z"/>
<path d="M53.7,60.7l3.3-2l-0.8-6.9l-0.6,0.8v0.5l-1.1,1.1v-0.6l-1.8,1.2C53.6,56.4,53.9,58.4,53.7,60.7z"/>
<path d="M55.4,52.8l-0.8,0.8L54,53.3l0.9-0.7L55.4,52.8z"/>
<path d="M55.4,53.1v-0.3l-0.8,0.8v0.3L55.4,53.1z"/>
<path d="M55.7,53.1h-0.3"/>
<path d="M54.9,58.8l1.1-0.6v0.3l-1.1,0.6V58.8z"/>
<path d="M52.4,54.9h-0.5v0.4h0.8L52.4,54.9L52.4,54.9z"/>
<path d="M52.8,55.8l0.1,0.4H52v-0.4H52.8z"/>
<path d="M53.1,56.6l0.1,0.3V57h-1v-0.4H53.1z"/>
<path d="M53.2,57.4v0.4h-1.1v-0.4H53.2z"/>
<rect x="52.3" y="58.2" width="1" height="0.4"/>
<rect x="52.5" y="59.1" width="0.9" height="0.4"/>
<rect x="52.6" y="59.9" width="0.8" height="0.4"/>
</g>
</g>
<g id="Cheeks_Recon" style="fill: rgb(199, 41, 41);">
<path d="M24.7,42.7l0.5,3.5l-0.7,5.2l-0.8,0.3L24.7,42.7z"/>
<path d="M24.7,42.7c0,0,5.4,3.9,7.1,6.7c2.2,3.6,4.3,16.2,4.4,16.9h-0.7c0,0-2-12.7-4.1-15 c-1.8-2.1-6.3-5.2-6.3-5.2L24.7,42.7z"/>
<path d="M26.2,44.8l0.1,0.6l1.2,0.9l-0.1-0.7L26.2,44.8z"/>
<path d="M55.2,42.7l-0.5,3.5l0.7,5.2l0.8,0.3L55.2,42.7z"/>
<path d="M55.2,42.7c0,0-5.4,3.9-7.1,6.7c-2.2,3.6-4.3,16.2-4.4,16.9h0.7c0,0,2-12.7,4.1-15c1.8-2.1,6.3-5.2,6.3-5.2 L55.2,42.7z"/>
</g>
<path id="Visor_Recon" d="M38.9,66.4l-1.4-22l-0.7-0.2l-8.9-2.8L27,39.1h0.3c2.2,0.4,4.5,0.7,7,0.9l2,1.3 c1.2,0.2,2.4,0.3,3.6,0.3c1.2,0,2.4-0.1,3.6-0.3l2-1.3c2.5-0.2,4.8-0.5,7-0.9h0.3L52,41.4l-8.9,2.8l-0.7,0.2l-1.4,22H38.9z" style="fill: rgb(0, 0, 0);"/>
<g id="Eyes-2_Recon" style="fill: rgb(110, 18, 18);">
<path d="M26.2,38.9l0.8,2.2l9.9,3.1l1.4,22.2h-2c0,0-2.1-13.3-4.4-17c-1.8-2.9-7.1-6.7-7.1-6.7l1-3.9L26.2,38.9z"/>
<path d="M27,39.1l0.9,2.3l-1-0.3l-0.8-2.2L27,39.1z"/>
<path d="M36.9,44.2l0.7,0.2l1.4,22h-0.7L36.9,44.2z"/>
<path d="M53.8,38.9L53,41.1l-9.9,3.1l-1.4,22.2h2c0,0,2.1-13.3,4.4-17c1.8-2.9,7.1-6.7,7.1-6.7l-1-3.9L53.8,38.9z"/>
<path d="M52.9,39.1L52,41.4l1-0.3l0.8-2.2L52.9,39.1z"/>
<path d="M43.1,44.2l-0.7,0.2l-1.4,22h0.7L43.1,44.2z"/>
<path d="M39.9,40.4c-5.5-0.2-10.1-0.7-14.2-1.6h28.4C50.1,39.7,45.5,40.3,39.9,40.4z"/>
<path d="M39.9,41.8c-1.2,0-2.4-0.1-3.6-0.3l-2-1.3c1.8,0.2,3.7,0.3,5.7,0.3h0.1c2-0.1,3.8-0.2,5.6-0.3l-2,1.3 C42.4,41.6,41.2,41.7,39.9,41.8z"/>
</g>
<g id="Eyes-1_Recon" style="fill: rgb(206, 26, 26);">
<path d="M24.6,38.8h0.7l-1.1,3.9l-1.8,16h-1.8C21.2,51.7,22.4,45.1,24.6,38.8z"/>
<path d="M25.7,38.8l-1,3.9l-1.8,16h-0.5l1.8-16l1.1-3.9H25.7z"/>
<path d="M55.4,38.8h-0.7l1.1,3.9l1.8,16h1.8C58.8,51.7,57.5,45.1,55.4,38.8z"/>
<path d="M54.2,38.8l1,3.9l1.8,16h0.5l-1.8-16l-1.1-3.9H54.2z"/>
<rect x="20.3" y="34.9" width="39.3" height="3.1"/>
<path d="M37.4,36.5l2.1-0.6v1.2L37.4,36.5z"/>
<path d="M42.5,36.5l-2.1-0.6v1.2L42.5,36.5z"/>
<path d="M24.6,38.8c-2.1,6.2-3.4,12.8-3.9,19.8L21.1,38h37.8l0.4,20.6c-0.6-7-1.8-13.6-3.9-19.8H24.6z"/>
<path d="M23.2,43.3l1-0.6"/>
<path d="M24.7,42.7h-0.6"/>
<path d="M56.7,43.3l-1-0.6"/>
<path d="M55.2,42.7h0.6"/>
</g>
<g id="Dome-2_Recon" style="fill: rgb(0, 0, 0);">
<path d="M40,19.2v15.7H20.9C20.9,29,28.5,19.2,40,19.2z"/>
<path d="M40,19.2v15.7h19.1C59.1,29,51.5,19.2,40,19.2z"/>
<path d="M38.1,35V18.7l1.9-0.1l1.9,0.1V35H38.1z"/>
</g>
<g id="Dome-1_Recon" style="fill: rgb(142, 28, 28);">
<path d="M38.1,34.9V18.2c-3,0.4-5.8,1.3-8.3,2.8v13.9H38.1z"/>
<path d="M41.9,34.9V18.2c3,0.4,5.8,1.3,8.3,2.8v13.9H41.9z"/>
</g>
</g>
<g id="Macrobinoculars_Brow_Recon" class="toggle" style="">
<g id="Arms_Macrobinoculars_Brow_Recon" style="fill: rgb(0, 0, 0);">
<path d="M22.3,27.8l-0.6-0.2l-4,9.5v0.4h0.5L22.3,27.8z"/>
<rect x="18.9" y="38.4" width="1" height="0.9"/>
<rect x="18.2" y="38.4" width="0.5" height="0.9"/>
<rect x="18.2" y="39.3" width="0.5" height="1.6"/>
<rect x="17.7" y="37.5" width="0.5" height="3.4"/>
<path d="M17.7,35.4l-0.5,0.3v2.1l0.5-0.4V35.4z"/>
<path d="M17.7,37.5l-0.8,0.1v2.5l0.8,0.8V37.5z"/>
<rect x="18.7" y="38.4" width="0.2" height="0.9"/>
<path d="M17.7,35.4L18,35l0.7-0.2l-1,2.3V35.4z"/>
<path d="M18,35v-0.4l-0.8,0.5v0.6l0.5-0.3L18,35z"/>
<path d="M18,35v-0.9l0.7-0.7v1.4L18,35z"/>
<rect x="18.2" y="37.5" width="1.1" height="0.9"/>
<path d="M19.3,37.5h-1.1l1.1,0.9V37.5z"/>
<path d="M18.5,36.7l0.8,0.3v0.5h-1.1L18.5,36.7z"/>
<path d="M18.7,40.9v-1.6h0.5l-0.1,1.6H18.7z"/>
<path d="M18.7,33.4l2.8-6.8v0.9h0.1l-3,7.1v-1.2H18.7z"/>
<path d="M19.9,30.8L19,32.9v0.5l0.9-2.1V30.8z"/>
<path d="M21.2,27.8l-0.9,2.1v0.5l0.9-2.1V27.8z"/>
<path d="M57.7,27.8l0.6-0.2l4,9.5v0.4h-0.5L57.7,27.8z"/>
<rect x="59.9" y="38.4" width="1" height="0.9"/>
<rect x="61.2" y="38.4" width="0.5" height="0.9"/>
<rect x="61.2" y="39.3" width="0.5" height="1.6"/>
<rect x="61.7" y="37.5" width="0.5" height="3.4"/>
<path d="M62.2,35.4l0.5,0.3v2.1l-0.5-0.4V35.4z"/>
<path d="M62.2,37.5l0.8,0.1v2.5l-0.8,0.8V37.5z"/>
<rect x="61" y="38.4" width="0.2" height="0.9"/>
<path d="M62.2,35.4L62,35l-0.7-0.2l1,2.3L62.2,35.4z"/>
<path d="M62,35v-0.4l0.8,0.5v0.6l-0.5-0.3L62,35z"/>
<path d="M62,35v-0.9l-0.7-0.7v1.4L62,35z"/>
<rect x="60.6" y="37.5" width="1.1" height="0.9"/>
<path d="M60.6,37.5h1.1l-1.1,0.9V37.5z"/>
<path d="M61.4,36.7L60.6,37v0.5h1.1L61.4,36.7z"/>
<path d="M61.2,40.9v-1.6h-0.5l0.1,1.6H61.2z"/>
<path d="M61.2,33.4l-2.8-6.8v0.9h-0.1l3,7.1L61.2,33.4L61.2,33.4z"/>
<path d="M60,30.8l0.9,2.1v0.5L60,31.3V30.8z"/>
<path d="M58.7,27.8l0.9,2.1v0.5l-0.9-2.1V27.8z"/>
</g>
<g id="Main_Macrobinoculars_Brow_Recon" style="fill: rgb(68, 68, 68);">
<rect x="25.6" y="17.1" width="28.8" height="1.2"/>
<path d="M30.1,24.3v-1.8l1.3-1.4v1.8L30.1,24.3z"/>
<path d="M30.1,22.5v1.8h-6.4l0.8-1.8H30.1z"/>
<g>
<rect x="24.8" y="22.8" width="0.8" height="0.6"/>
<rect x="24.8" y="23.4" width="0.8" height="0.7"/>
</g>
<g>
<rect x="26.1" y="22.8" width="0.8" height="0.6"/>
<rect x="26.1" y="23.4" width="0.8" height="0.7"/>
</g>
<g>
<rect x="27.4" y="22.8" width="0.8" height="0.6"/>
<rect x="27.4" y="23.4" width="0.8" height="0.7"/>
</g>
<g>
<rect x="28.7" y="22.8" width="0.8" height="0.6"/>
<rect x="28.7" y="23.4" width="0.8" height="0.7"/>
</g>
<path d="M29.1,24.3l-3.5,3.1h-1.9v-3.1H29.1z"/>
<path d="M24.8,27.4l-1,0.9l-2.2-0.7l1.5-3.3h0.6v3.1H24.8z"/>
<path d="M21.5,27.6v-2.3l4.1-8v1.2l-1.2,4.2l-0.8,1.8H23L21.5,27.6z"/>
<path d="M21.7,24.7v1.9l3.6-8.1v-0.8L21.7,24.7z"/>
<path d="M22.5,23.2l1.3-4.7l1.1,0.3c0,0,0,1.3-0.3,2.5c-0.2,0.7-0.9,2.1-0.9,2.1L22.5,23.2z"/>
<path d="M23.8,18.6c0.2,0.1,0.1,1.1-0.3,2.4s-0.8,2.3-1,2.2c-0.2-0.1-0.1-1.1,0.3-2.4 C23.1,19.5,23.6,18.5,23.8,18.6z"/>
<path d="M23.5,19.4c0.1,0,0,0.7-0.2,1.5c-0.2,0.8-0.5,1.4-0.6,1.4c-0.1,0,0-0.7,0.2-1.5 C23.1,20,23.4,19.4,23.5,19.4z"/>
<path d="M23.9,18.9l1,0.3"/>
<path d="M23.9,19.3l1,0.3"/>
<path d="M23.9,19.6l1,0.3"/>
<path d="M23.8,19.9l1,0.3"/>
<path d="M23.7,20.2l1.1,0.2"/>
<path d="M23.6,20.6l1.1,0.3"/>
<path d="M23.6,20.8l1.1,0.3"/>
<path d="M23.5,21.3l1.1,0.3"/>
<path d="M23.4,21.5l1.1,0.3"/>
<path d="M23.2,21.9l1,0.3"/>
<path d="M23.2,22.2l1,0.3"/>
<path d="M23,22.5l1,0.3"/>
<path d="M23,22.6l1,0.3"/>
<path d="M22.8,22.9l1,0.3"/>
<path d="M22.7,23.1l1,0.3"/>
<path d="M49.9,24.3v-1.8l-1.3-1.4v1.8L49.9,24.3z"/>
<path d="M49.9,22.5v1.8h6.4l-0.8-1.8H49.9z"/>
<path d="M50.9,24.3l3.5,3.1h1.9v-3.1H50.9z"/>
<path d="M55.2,27.4l1,0.9l2.2-0.7l-1.5-3.3h-0.6v3.1H55.2z"/>
<path d="M58.4,27.6v-2.3l-4.1-8v1.2l1.2,4.2l0.8,1.8h0.6L58.4,27.6z"/>
<path d="M58.2,24.7v1.9l-1.3-2.9h-0.6l-0.6-1.4l-1.1-3.8v-0.8L58.2,24.7z"/>
<path d="M25.6,18.3h28.8l1.2,4.2H50l-1.3-1.4H31.3L30,22.5h-5.6L25.6,18.3z"/>
<path d="M31.3,21.1h17.3v1.8l-0.4-0.4H31.8l-0.4,0.4L31.3,21.1z"/>
<path d="M55,23.1h-4.4v0.6h4.7L55,23.1z"/>
<path d="M55.3,19.5l0.2,0.5v0.5L55.3,20V19.5z"/>
<path d="M55.7,20.2l0.2,0.5v0.5l-0.2-0.6V20.2z"/>
<path d="M56,21l0.2,0.5V22L56,21.5V21z"/>
<path d="M56.4,21.8l0.2,0.5v0.5l-0.2-0.6V21.8z"/>
<rect x="51.5" y="16.5" width="2.6" height="0.6"/>
<path d="M51.5,16.7l-0.3,0.2v0.3h0.3V16.7z"/>
<path d="M54,16.7l0.3,0.2v0.3H54V16.7z"/>
</g>
<path id="Visor_Macrobinoculars_Brow_Recon" d="M53.6,17.4c0.1,0,0.1,0,0.2,0.1c0.1,0.1,0.1,0.1,0.1,0.2v0.1 c0,0.1,0,0.1-0.1,0.2H26.3c-0.1,0-0.1,0-0.2-0.1S26,17.8,26,17.7v-0.1c0-0.1,0-0.1,0.1-0.2s0.1-0.1,0.2-0.1h27.3V17.4z" style="fill: rgb(255, 214, 0);"/>
</g>
</g>
</svg>
<g id="Shoulders">
<g id="Left-Shoulder">
<g id="Legacy-x2_Shoulder_Left" class="option" style="display: inherit;">
<path id="Plate-2_Shoulder_Left_Legacy-x2" d="M111.7,20l-5.9,8.8l6,8.4l9.5-2.3l6,3.7l4.5-1.2L111.7,20z" style="fill: rgb(159, 33, 33);"/>
<path id="Trauma-Plate-2_Shoulder_Legacy-x2_Left" class="toggle" style="fill: rgb(0, 0, 0);" d="M127.6,36.8l2.9-0.8l-17.3-15.1l-5.2,7.9l4.6,6.5 l8.7-2.2L127.6,36.8z"/>
<path id="Plate-1_Shoulder_Left_Legacy-x2" d="M104.5,15.5l-2.6,10.3l8.4,6l8.2-5.3l6.8,1.5l3.8-2.6L104.5,15.5z" style="fill: rgb(140, 25, 25);"/>
<path id="Trauma-Plate-1_Shoulder_Legacy-x2_Left" class="toggle" style="fill: rgb(0, 0, 0);" d="M125,26.1l2.5-1.7l-21.3-8.6l-2.4,9.2l6.5,4.6 l7.5-5L125,26.1z"/>
</g>
</g>
<g id="Right-Shoulder">
<g id="Legacy-x3_Shoulder_Right" class="option" style="display: inherit;">
<path id="Plate-3_Shoulder_Right_Legacy-x3" d="M53.4,24.7l7.4,7.6l-4.3,9.4l-9.8-0.5l-5.2,4.7l-4.6-0.3L53.4,24.7 z" style="fill: rgb(146, 37, 186);"/>
<path id="Trauma-Plate-3_Shoulder_Legacy-x3_Right" class="toggle" style="fill: rgb(0, 0, 0);" d="M40.9,44.2l-3-0.2l14.2-18.1l6.6,6.8l-3.4,7.3 l-9-0.6L40.9,44.2z"/>
<path id="Plate-2_Shoulder_Right_Legacy-x3" d="M57.4,20l5.9,8.8l-6,8.4L47.7,35l-6,3.7l-4.5-1.2L57.4,20z" style="fill: rgb(122, 30, 172);"/>
<path id="Trauma-Plate-2_Shoulder_Legacy-x3_Right" class="toggle" style="fill: rgb(0, 0, 0);" d="M41.5,36.8l-2.9-0.8l17.3-15.1l5.2,7.9l-4.6,6.5 l-8.7-2.2L41.5,36.8z"/>
<path id="Plate-1_Shoulder_Right_Legacy-x3" d="M64.6,15.5l2.6,10.3l-8.5,6l-8.2-5.3L43.7,28l-3.8-2.6L64.6,15.5z" style="fill: rgb(126, 39, 161);"/>
<path id="Trauma-Plate-1_Shoulder_Legacy-x3_Right" class="toggle" style="fill: rgb(0, 0, 0);" d="M44.1,26.1l-2.5-1.7l21.3-8.6l2.4,9.2l-6.5,4.6 l-7.5-5L44.1,26.1z"/>
</g>
</g>
</g>
<g id="Gauntlets">
<g id="Left-Gauntlets">
<g id="Heavy_Gauntlet_Left" class="option" style="display: inherit;">
<g id="Top-2_Heavy_Gauntlet_Left" style="fill: rgb(0, 0, 0);">
<path d="M136.7,80.1l1.7,0.3l0.8,8.3l-1.6,1.1L136.7,80.1z"/>
<path d="M137.5,89.1l1,10.9l-1.1,1.2l0.6,6.4l-0.5,0.3l-1.7-17.5L137.5,89.1z"/>
<path d="M137.8,86c0.2,0,0.4,0.2,0.3,0.4s-0.2,0.4-0.4,0.3c-0.2,0-0.4-0.2-0.3-0.4C137.4,86.2,137.6,86,137.8,86z"/>
</g>
<g id="Top-1_Heavy_Gauntlet_Left" style="fill: rgb(71, 71, 71);">
<path d="M133,108.7l4.5-0.8l-1.7-17.5l1.7-1.3l-0.9-9.5l-6.6-1.2L133,108.7z"/>
<path d="M134.9,79.2l0.9,11.1"/>
</g>
<g id="Accent-Top_Heavy_Gauntlet_Left" style="fill: rgb(132, 28, 28);">
<path d="M136.5,105.1l-2.8,0.3l0.2,2.2l2.8-0.4L136.5,105.1z"/>
<path d="M135.5,95.8l-2.8,0.3l0.9,8.6l2.8-0.3L135.5,95.8z"/>
<path d="M134.3,79.8l-3.1-0.5l0.9,9.5l3-0.4L134.3,79.8z"/>
</g>
<path id="Bottom_Heavy_Gauntlet_Left" d="M130.1,78.8c-3.4-0.2-7.1,1-9.5,3.7c-0.8,0.9-1.1,2.1-0.9,3.2 c1.2,5.6,5.2,23.7,5.2,23.7l8.2-0.7L130.1,78.8z" style="fill: rgb(44, 44, 44);"/>
<g id="Accent-Bottom_Heavy_Gauntlet_Left" style="fill: rgb(126, 31, 31);">
<path d="M133,108.7l-8.2,0.7l-0.3-1.5l8.3-0.9L133,108.7z"/>
<path d="M130.3,80.8c-4.4,0.1-8.2,1.4-10.3,6l-0.2-1.1c-0.2-0.9,0-1.8,0.4-2.6l0.5-0.6c2.4-2.7,6.1-3.8,9.5-3.7 L130.3,80.8z"/>
<path d="M129.2,79.4l-3.6,0.4l1.6,14.3l3.6-0.4L129.2,79.4z"/>
<path d="M128.8,79.7l-2.7,0.3l1.5,13.2l2.7-0.3L128.8,79.7z"/>
<path d="M126.1,80l-0.5-0.2"/>
<path d="M129.2,79.4l-0.4,0.3"/>
<path d="M130.9,93.7l-0.6-0.8"/>
<path d="M127.3,94.1l0.4-0.9"/>
</g>
<g id="No-Device_Attachment_Heavy_Gauntlet_Left" class="option" style="display: inherit;">
</g>
</g>
</g>
<g id="Right-Gauntlets">
<g id="Heavy_Gauntlet_Right" class="option" style="display: inherit;">
<g id="Top-2_Heavy_Gauntlet_Right" style="fill: rgb(0, 0, 0);">
<path d="M32.4,80.1l-1.7,0.3l-0.8,8.3l1.6,1.1L32.4,80.1z"/>
<path d="M31.6,89.1l-1,10.9l1.1,1.2l-0.6,6.4l0.5,0.3l1.7-17.5L31.6,89.1z"/>
<path d="M31.3,86c-0.2,0-0.4,0.2-0.3,0.4c0,0.2,0.2,0.4,0.4,0.3c0.2,0,0.4-0.2,0.3-0.4C31.7,86.2,31.5,86,31.3,86z"/>
</g>
<g id="Top-1_Heavy_Gauntlet_Right" style="fill: rgb(71, 71, 71);">
<path d="M36,108.7l-4.5-0.8l1.7-17.5l-1.7-1.3l0.9-9.5l6.6-1.2L36,108.7z"/>
<path d="M34.2,79.2l-0.9,11.1"/>
</g>
<g id="Accent-Top_Heavy_Gauntlet_Right" style="fill: rgb(132, 28, 28);">
<path d="M32.6,105.1l2.8,0.3l-0.2,2.2l-2.8-0.4L32.6,105.1z"/>
<path d="M33.6,95.8l2.8,0.3l-0.9,8.6l-2.8-0.3L33.6,95.8z"/>
<path d="M34.8,79.8l3.1-0.5l-0.9,9.5l-3-0.4L34.8,79.8z"/>
</g>
<path id="Bottom_Heavy_Gauntlet_Right" d="M39,78.8c3.4-0.2,7.1,1,9.5,3.7c0.8,0.9,1.1,2.1,0.9,3.2 c-1.2,5.6-5.2,23.7-5.2,23.7l-8.2-0.7L39,78.8z" style="fill: rgb(44, 44, 44);"/>
<g id="Accent-Bottom_Heavy_Gauntlet_Right" style="fill: rgb(126, 31, 31);">
<path d="M36,108.7l8.2,0.7l0.3-1.5l-8.3-0.9L36,108.7z"/>
<path d="M38.8,80.8c4.4,0.1,8.2,1.4,10.3,6l0.2-1.1c0.2-0.9,0-1.8-0.4-2.6l-0.5-0.6c-2.4-2.7-6.1-3.8-9.5-3.7 L38.8,80.8z"/>
<path d="M39.8,79.4l3.6,0.4l-1.6,14.3l-3.6-0.4L39.8,79.4z"/>
<path d="M40.3,79.7l2.7,0.3l-1.5,13.2l-2.7-0.3L40.3,79.7z"/>
<path d="M42.9,80l0.5-0.2"/>
<path d="M39.8,79.4l0.4,0.3"/>
<path d="M38.2,93.7l0.6-0.8"/>
<path d="M41.8,94.1l-0.4-0.9"/>
</g>
<g id="No-Device_Attachment_Heavy_Gauntlet_Right" class="option" style="display: inherit;">
</g>
</g>
</g>
</g>
<g id="Shins">
<g id="Left-Shin">
<g id="Legacy_Shin_Left" class="option" style="display: inherit;">
<path id="Plate-3_Legacy-Shin_Left" d="M104.2,199.5l3.4,15.8c0,0,4.9,1.2,7.6,1c2.7-0.2,6.3-1.4,6.3-1.4 l-0.7-16.9l-7.4,4.1L104.2,199.5" style="fill: rgb(127, 23, 23);"/>
<path id="Plate-2_Legacy-Shin_Left" d="M101.6,189.7l1.9,9.6l9.9,2.8l8-4.4l-0.3-9.6l-9,4.1L101.6,189.7" style="fill: rgb(126, 20, 20);"/>
<path id="Plate-1_Legacy-Shin_Left" d="M105.9,176.5l-6.4,6.3l1.4,6.7l11.3,2.6l9.6-4.3l-0.2-8.1l-7.2-3.9 L105.9,176.5" style="fill: rgb(141, 34, 34);"/>
<path id="Trauma-Plate-3_Legacy-Shin_Left" class="toggle" style="fill: rgb(54, 54, 54);" d="M119.3,200.9l-5,2.7c-0.4,0.2-0.9,0.3-1.3,0.1l-6.5-1.9 l2.5,12c1.5,0.3,4.3,0.9,6,0.8c1.6-0.1,3.5-0.6,4.7-1L119.3,200.9"/>
<path id="Trauma-Plate-2_Legacy-Shin_Left" class="toggle" style="fill: rgb(46, 46, 46);" d="M119.6,190.7l-6.6,3c-0.3,0.2-0.7,0.2-1.1,0.1l-8-1.8 l1.2,6l8.2,2.3l6.5-3.6L119.6,190.7"/>
<path id="Trauma-Plate-1_Legacy-Shin_Left" class="toggle" style="fill: rgb(56, 56, 56);" d="M106.7,178.2l-5.3,5.2l1,4.7l9.7,2.2l8-3.6l-0.2-6 l-5.9-3.2L106.7,178.2"/>
<g id="Ridge_Legacy-Shin_Left" class="toggle" style="fill: rgb(71, 21, 21);">
<path d="M112.9,216.3l0.6,0.1c-0.3,0-0.6,0-0.9-0.1L112.9,216.3"/>
<path d="M115.4,190.7l0.7,10l-2.6,1.4l-3.6-1l-1.6-9.9l3.9,0.9L115.4,190.7"/>
<path d="M116.1,200.7l1,15.4c-1.2,0.2-2.4,0.3-3.6,0.3l-0.6-0.1l-0.3,0l-0.2,0l-2.4-15.1l3.6,1L116.1,200.7"/>
<path d="M105.9,176.6L105.9,176.6l4.1-1.5l4.4,0.6l0,0.1l0,0l0,0l0,0l0,0l1,14.9l-3.2,1.4l-3.9-0.9L105.9,176.6"/>
<path d="M110.1,175.1l2.2,17.1"/>
<path d="M112.2,192.2l1.2,10"/>
<path d="M113.5,202.2l1.6,14.2"/>
</g>
</g>
</g>
<g id="Right-Shin">
<g id="Legacy_Shin_Right" class="option" style="display: inherit;">
<path id="Plate-3_Legacy-Shin_Right" d="M64.8,199.5l-3.4,15.8c0,0-4.9,1.2-7.6,1c-2.7-0.2-6.3-1.4-6.3-1.4 l0.7-16.9l7.4,4.1L64.8,199.5" style="fill: rgb(127, 23, 23);"/>
<path id="Plate-2_Legacy-Shin_Right" d="M67.4,189.7l-1.9,9.6l-9.9,2.8l-8-4.4l0.3-9.6l9,4.1L67.4,189.7" style="fill: rgb(126, 20, 20);"/>
<path id="Plate-1_Legacy-Shin_Right" d="M63.1,176.5l6.4,6.3l-1.4,6.7l-11.3,2.6l-9.6-4.3l0.2-8.1l7.2-3.9 L63.1,176.5" style="fill: rgb(141, 34, 34);"/>
<path id="Trauma-Plate-3_Legacy-Shin_Right" class="toggle" style="fill: rgb(54, 54, 54);" d="M49.7,200.9l5,2.7c0.4,0.2,0.9,0.3,1.3,0.1l6.5-1.9 l-2.5,12c-1.5,0.3-4.3,0.9-6,0.8c-1.6-0.1-3.5-0.6-4.7-1L49.7,200.9"/>
<path id="Trauma-Plate-2_Legacy-Shin_Right" class="toggle" style="fill: rgb(46, 46, 46);" d="M49.4,190.7l6.6,3c0.3,0.2,0.7,0.2,1.1,0.1l8-1.8l-1.2,6 l-8.2,2.3l-6.5-3.6L49.4,190.7"/>
<path id="Trauma-Plate-1_Legacy-Shin_Right" class="toggle" style="fill: rgb(56, 56, 56);" d="M62.3,178.2l5.3,5.2l-1,4.7l-9.7,2.2l-8-3.6l0.2-6 l5.9-3.2L62.3,178.2"/>
<g id="Ridge_Legacy-Shin_Right" class="toggle" style="fill: rgb(71, 21, 21);">
<path d="M56.1,216.3l-0.6,0.1c0.3,0,0.6,0,0.9-0.1L56.1,216.3"/>
<path d="M53.6,190.7l-0.7,10l2.6,1.4l3.6-1l1.6-9.9l-3.9,0.9L53.6,190.7"/>
<path d="M52.9,200.7l-1,15.4c1.2,0.2,2.4,0.3,3.6,0.3l0.6-0.1l0.3,0l0.2,0l2.4-15.1l-3.6,1L52.9,200.7"/>
<path d="M63.1,176.6L63.1,176.6l-4.1-1.5l-4.4,0.6l0,0.1l0,0l0,0l0,0l0,0l-1,14.9l3.2,1.4l3.9-0.9L63.1,176.6"/>
<path d="M58.9,175.1l-2.2,17.1"/>
<path d="M56.8,192.2l-1.2,10"/>
<path d="M55.5,202.2l-1.6,14.2"/>
</g>
</g>
</g>
</g>
<g id="Foot">
<g id="Left-Ankle">
<g id="Heavy_Ankle_Left" class="option" style="display: inherit;">
<path id="Plate_Heavy-Ankle_Left" d="M106.6,220.2l0.3,3.1l6.3,7.9l6.1-2.8l6.7-1.7l-5-9c-2.5-0.4-5.5,0-8.9,1 l-1.9,1.7L106.6,220.2" style="fill: rgb(41, 41, 41);"/>
<path id="Trim_Heavy-Ankle_Left" d="M112,218.7l0.7,0.9l-2.2,1.9l-2.5-0.1l0.1,1.2l5.4,6.7l5.5-2.6l6.6-1.6 l0.7,1.4l-6.9,1.8l-6.1,2.8l-6.3-7.9l-0.3-3.1l3.5,0.2L112,218.7" style="fill: rgb(152, 35, 35);"/>
</g>
</g>
<g id="Left-Toe">
<g id="None_Toe_Left" class="option" style="display: inherit;">
</g>
</g>
<g id="Right-Ankle">
<g id="Heavy_Ankle_Right" class="option" style="display: inherit;">
<path id="Plate_Heavy-Ankle_Right" d="M62.5,220.2l-0.3,3.1l-6.3,7.9l-6.1-2.8l-6.7-1.7l5-9c2.5-0.4,5.5,0,8.9,1 l1.9,1.7L62.5,220.2" style="fill: rgb(41, 41, 41);"/>
<path id="Trim_Heavy-Ankle_Right" d="M57,218.7l-0.7,0.9l2.2,1.9l2.5-0.1l-0.1,1.2l-5.4,6.7l-5.5-2.6l-6.6-1.6 l-0.7,1.4l6.9,1.8l6.1,2.8l6.3-7.9l0.3-3.1l-3.5,0.2L57,218.7" style="fill: rgb(152, 35, 35);"/>
</g>
</g>
<g id="Right-Toe">
<g id="None_Toe_Right" class="option" style="display: inherit;">
</g>
</g>
</g>
<g id="Knees">
<g id="Left-Knee">
<g id="Legacy_Knee_Left" class="option" style="display: inherit;">
<g id="Missiles_Legacy-Knee_Left" class="toggle" style="display:none"/>
<path id="Plate-2_Legacy-Knee_Left" d="M117.2,164.6l-4.1-2.8l-9.1,1.4l-3.5,4l2.9,9.8h7.2l6.8-2.2L117.2,164.6z" style="fill: rgb(49, 49, 49);"/>
<path id="Plate-1_Legacy-Knee_Left" d="M118.6,157.9l-5.2-3.6l-11.6,1.8l-4.5,5.1l3.7,12.6l9.5-0.1l8.4-2.7 L118.6,157.9z" style="fill: rgb(124, 35, 35);"/>
</g>
</g>
<g id="Right-Knee">
<g id="Legacy_Knee_Right" class="option" style="display: inherit;">
<g id="Missiles_Legacy-Knee_Right" class="toggle" style="display:none"/>
<path id="Plate-2_Legacy-Knee_Right" d="M51.8,164.6l4.1-2.8l9.1,1.4l3.5,4l-2.9,9.8h-7.2l-6.8-2.2L51.8,164.6z" style="fill: rgb(49, 49, 49);"/>
<path id="Plate-1_Legacy-Knee_Right" d="M50.4,157.9l5.2-3.6l11.6,1.8l4.5,5.1l-3.7,12.6l-9.5-0.1l-8.4-2.7 L50.4,157.9z" style="fill: rgb(124, 35, 35);"/>
</g>
</g>
</g>
<g id="Thighs">
<g id="Left-Thigh">
<g id="Heavy_Thigh_Left" class="option" style="display: inherit;">
<g id="Thigh_Heavy-Thigh_Left" style="fill: rgb(55, 55, 55);">
<path d="M95.4,119.4l-5.8,7.4l6.7,26.7l4.5,1.6l-3.2-30.4L95.4,119.4"/>
<path d="M110.3,117.8l7.2,6.1l-1,27.5l-4.1,2.5l-3.2-30.4L110.3,117.8"/>
<path d="M110.3,117.8l-14.9,1.5l2.2,5.3l11.6-1.2L110.3,117.8"/>
<path d="M109.2,123.5l-11.6,1.2l3.2,30.4l11.6-1.2L109.2,123.5"/>
</g>
<g id="Trim_Heavy-Thigh_Left" style="fill: rgb(137, 28, 28);">
<path d="M110.9,115.5l-16.6,1.7l1.1,2.2l14.9-1.5L110.9,115.5"/>
<path d="M117.3,121.3l-6.4-5.8l-0.6,2.3l7.2,6.1L117.3,121.3"/>
<path d="M89.3,124.2l5-7l1.1,2.2l-5.8,7.4L89.3,124.2"/>
</g>
</g>
</g>
<g id="Right-Thigh">
<g id="Heavy_Thigh_Right" class="option" style="display: inherit;">
<g id="Thigh_Heavy-Thigh_Right" style="fill: rgb(55, 55, 55);">
<path d="M73.6,119.4l5.8,7.4l-6.7,26.7l-4.5,1.6l3.2-30.4L73.6,119.4"/>
<path d="M58.7,117.8l-7.2,6.1l1,27.5l4.1,2.5l3.2-30.4L58.7,117.8"/>
<path d="M58.7,117.8l14.9,1.5l-2.2,5.3l-11.6-1.2L58.7,117.8"/>
<path d="M59.8,123.5l11.6,1.2l-3.2,30.4l-11.6-1.2L59.8,123.5"/>
</g>
<g id="Trim_Heavy-Thigh_Right" style="fill: rgb(137, 28, 28);">
<path d="M58.1,115.5l16.6,1.7l-1.1,2.2l-14.9-1.5L58.1,115.5"/>
<path d="M51.7,121.3l6.4-5.8l0.6,2.3l-7.2,6.1L51.7,121.3"/>
<path d="M79.7,124.2l-5-7l-1.1,2.2l5.8,7.4L79.7,124.2"/>
</g>
</g>
</g>
</g>
<g id="Groin">
<g id="Basic_Groin" class="option" style="display: inherit;">
<path id="Groin-Plate_Groin" d="M78.2,107.5L67.7,86.2h33.8l-10.6,21.2c0,0-4.2,5.1-6.3,5.1 C82.5,112.5,78.2,107.5,78.2,107.5z" style="fill: rgb(137, 28, 28);"/>
<path id="Trauma-Plating_Groin" class="toggle" style="fill: rgb(39, 39, 39);" d="M89.8,106.7l9.5-19.2H69.8l9.5,19.2c0.4,0.5,2.1,2.4,3.7,3.6 c0.6,0.4,1.1,0.8,1.5,0.8c0.4,0,0.9-0.4,1.5-0.8C87.7,109.2,89.4,107.2,89.8,106.7"/>
</g>
</g>
<g id="Waist">
<g id="Accessories_Waist">
<g id="Kama" class="toggle" style="">
<g id="Clean_Kama" class="option" style="display: inherit;">
<g id="Trim_Kama-Clean" style="fill: rgb(129, 28, 28);">
<path d="M97.7,87.6l7.6,57.8l30.7,13.2l-27.7-66.3l-0.9-8.1L97.7,87.6z"/>
<path d="M71.3,87.6l-7.6,57.8l-30.7,13.2l27.7-66.3l0.9-8.1L71.3,87.6z"/>
</g>
<g id="Main_Kama-Clean" style="fill: rgb(0, 0, 0);">
<path d="M99.6,87.4l7.3,55.9l27.7,12.3l-26.5-63.2l-0.9-7.9L99.6,87.4z"/>
<path d="M69.5,87.4l-7.3,55.9l-27.7,12.3l26.5-63.2l0.9-8.1L69.5,87.4z"/>
</g>
</g>
</g>
<g id="Loin-Cloth" class="toggle" style="display:none"/>
<g id="Left-Holster" class="toggle" style="">
<g id="Belt-Holster_Left" class="option" style="display: inherit;">
<g id="Weapon_Belt-Holster-Left">
<g id="Main_Weapon_Belt-Holster-Left" style="fill: rgb(77, 77, 77);">
<path d="M108.8,93l-0.2-3.7l0.6,0L109,87l-0.6,0l-0.1-1.2c0-0.4,0.5-0.7,1.1-0.8c1.5-0.1,4-0.3,5.4-0.4 c0.6,0,1.2,0.2,1.2,0.6l0.1,1.2l-0.6,0l0.2,2.3l0.6,0l0.2,3.7l-1.5,0.1l0.7,10.1l-4.8,0.3l-0.7-10.1L108.8,93z"/>
<path d="M115.8,92L115,92l0.8,12.2l-4.8,0.3l-0.8-12.2l-0.8,0.1l-0.2-2.8l6.5-0.4L115.8,92z"/>
<path d="M114.1,85.5l-3.8,0.3l0.2,3.8l3.8-0.3L114.1,85.5z"/>
<path d="M111.4,93.4l-0.6,0l0.6,9.6l0.6,0L111.4,93.4z"/>
<path d="M112.8,91.1l-0.6,0l0.6,9.6l0.6,0L112.8,91.1z"/>
<path d="M114.6,93.2l-0.6,0l0.6,9.6l0.6,0L114.6,93.2z"/>
</g>
<g id="Accent_Weapon_Belt-Holster-Left" style="fill: rgb(0, 0, 0);">
<path d="M111.1,89.9l0,0.4l2.7-0.2l0-0.4L111.1,89.9z"/>
<path d="M111.1,90.3l0,0.4l2.7-0.2l0-0.4L111.1,90.3z"/>
<path d="M111.1,89.5l0,0.4l2.7-0.2l0-0.4L111.1,89.5z"/>
<path d="M110.7,84.8l0,0.4l2.7-0.2l0-0.4L110.7,84.8z"/>
<path d="M110.9,85.7l-0.6,0l0.2,3.8l0.6,0L110.9,85.7z"/>
<path d="M114.1,85.5l-0.6,0l0.2,3.8l0.6,0L114.1,85.5z"/>
<path d="M114,93.2l-1,0.1l0.6,9.6l1-0.1L114,93.2z"/>
<path d="M112.3,93.3l-1,0.1l0.6,9.6l1-0.1L112.3,93.3z"/>
</g>
</g>
<path id="Holster_Belt-Holster-Left" d="M110.4,107l-2.5-15.2l8.4,10.7l0.8,21c-1.5,1.9-3.1,2.1-4.9,0.4 L110.4,107z" style="fill: rgb(111, 69, 33);"/>
</g>
</g>
<g id="Right-Holster" class="toggle" style="">
<g id="Belt-Holster_Right" class="option" style="display: inherit;">
<g id="Weapon_Belt-Holster-Right">
<g id="Main_Weapon_Belt-Holster-Right" style="fill: rgb(77, 77, 77);">
<path d="M60.2,93l0.2-3.7l-0.6,0L60,87l0.6,0l0.1-1.2c0-0.4-0.5-0.7-1.1-0.8c-1.5-0.1-4-0.3-5.4-0.4 c-0.6,0-1.2,0.2-1.2,0.6l-0.1,1.2l0.6,0l-0.2,2.3l-0.6,0l-0.2,3.7l1.5,0.1l-0.7,10.1l4.8,0.3l0.7-10.1L60.2,93z"/>
<path d="M53.1,92L54,92l-0.8,12.2l4.8,0.3l0.8-12.2l0.9,0.1l0.2-2.8l-6.5-0.4L53.1,92z"/>
<path d="M54.9,85.5l3.8,0.3l-0.2,3.8l-3.8-0.3L54.9,85.5z"/>
<path d="M57.6,93.4l0.6,0l-0.6,9.6l-0.6,0L57.6,93.4z"/>
<path d="M56.1,91.1l0.6,0l-0.6,9.6l-0.6,0L56.1,91.1z"/>
<path d="M54.4,93.2l0.6,0l-0.6,9.6l-0.6,0L54.4,93.2z"/>
</g>
<g id="Accent_Weapon_Belt-Holster-Right" style="fill: rgb(0, 0, 0);">
<path d="M57.9,89.9l0,0.4l-2.7-0.2l0-0.4L57.9,89.9z"/>
<path d="M57.9,90.3l0,0.4l-2.7-0.2l0-0.4L57.9,90.3z"/>
<path d="M57.9,89.5l0,0.4l-2.7-0.2l0-0.4L57.9,89.5z"/>
<path d="M58.2,84.8l0,0.4L55.5,85l0-0.4L58.2,84.8z"/>
<path d="M58.1,85.7l0.6,0l-0.2,3.8l-0.6,0L58.1,85.7z"/>
<path d="M54.9,85.5l0.6,0l-0.2,3.8l-0.6,0L54.9,85.5z"/>
<path d="M55,93.2l1,0.1l-0.6,9.6l-1-0.1L55,93.2z"/>
<path d="M56.6,93.3l1,0.1l-0.6,9.6l-1-0.1L56.6,93.3z"/>
</g>
</g>
<path id="Holster_Belt-Holster-Right" d="M58.6,107l2.5-15.2l-8.4,10.7l-0.8,21c1.5,1.9,3.1,2.1,4.9,0.4L58.6,107 z" style="fill: rgb(111, 69, 33);"/>
</g>
</g>
</g>
<g id="Under-Belt">
<g id="Girth-Belt" class="option" style="fill: rgb(88, 30, 30); display: inherit;">
<path d="M84.5,80.1c-7.2,0-21.5-1.8-21.5-1.8l0.5-1.5c0,0,14,1.2,21,1.8c7-0.6,21-1.8,21-1.8l0.5,1.5 C106,78.3,91.7,80.1,84.5,80.1z"/>
<path d="M84.5,81.6c-7.3,0-22-1.8-22-1.8l0.4-1.5c0,0,17.9,1.5,21.5,1.8c3.6-0.3,21.5-1.8,21.5-1.8l0.4,1.5 C106.5,79.8,91.9,81.6,84.5,81.6z"/>
<path d="M84.5,83.2c-7.4,0-22.3-1.8-22.3-1.8l0.3-1.5c0,0,18.3,1.5,22,1.8c3.7-0.3,22-1.8,22-1.8l0.3,1.5 C106.8,81.4,92,83.2,84.5,83.2z"/>
<path d="M84.5,84.7C77,84.7,62,82.9,62,82.9l0.3-1.5c0,0,18.6,1.5,22.3,1.8c3.7-0.3,22.3-1.8,22.3-1.8l0.3,1.5 C107.1,82.9,92.1,84.7,84.5,84.7z"/>
<path d="M84.5,86.3c-7.6,0-22.8-1.8-22.8-1.8l0.3-1.5c0,0,18.8,1.5,22.6,1.8c3.8-0.3,22.6-1.8,22.6-1.8l0.3,1.5 C107.4,84.4,92.1,86.3,84.5,86.3z"/>
<path d="M84.5,87.8c-7.7,0-23.1-1.8-23.1-1.8l0.2-1.5c0,0,19,1.5,22.8,1.8c3.8-0.3,22.8-1.8,22.8-1.8l0.2,1.5 C107.6,86,92.2,87.8,84.5,87.8z"/>
<path d="M84.5,89.4c-7.8,0-23.3-1.8-23.3-1.8l0.2-1.5c0,0,19.2,1.5,23.1,1.8c3.8-0.3,23.1-1.8,23.1-1.8l0.2,1.5 C107.8,87.5,92.3,89.4,84.5,89.4z"/>
<path d="M84.5,90.9c-7.8,0-23.5-1.8-23.5-1.8l0.2-1.5c0,0,19.4,1.5,23.3,1.8c3.9-0.3,23.3-1.8,23.3-1.8l0.2,1.5 C108.1,89.1,92.4,90.9,84.5,90.9z"/>
<path d="M84.5,92.5c-7.9,0-23.8-1.8-23.8-1.8l0.3-1.5c0,0,19.6,1.5,23.5,1.8c3.9-0.3,23.5-1.8,23.5-1.8l0.3,1.5 C108.3,90.6,92.5,92.5,84.5,92.5z"/>
<path d="M84.5,94c-8,0-24.1-1.8-24.1-1.8l0.3-1.5c0,0,19.8,1.5,23.8,1.8c4-0.3,23.8-1.8,23.8-1.8l0.3,1.5 C108.6,92.2,92.6,94,84.5,94z"/>
</g>
</g>
<g id="Belt">
<g id="Pouch-Belt-6" class="option" style="display: inherit;">
<path id="Main_Pouch-Belt-6" d="M108.2,87.6c-5.3,0.5-17.5,2.2-23.6,2.2c-6.2,0-18.4-1.8-23.6-2.2l0.8-6.2 c4.3,0.4,16.8,2.2,22.8,2.2c5.8,0,18.1-1.8,22.7-2.2L108.2,87.6z" style="fill: rgb(0, 0, 0);"/>
<rect id="Buckle_Pouch-Belt-6" x="80.2" y="82.9" width="8.8" height="7.2" style="fill: rgb(114, 21, 21);"/>
<g id="Pouches_Pouch-Belt-6" style="fill: rgb(107, 64, 27);">
<g>
<g>
<g>
<path d="M75.3,81.4c-1.4-0.1-2.8,0.1-4.1,0.6l0,0l6.3,0.4l1.7-0.7C79.3,81.7,77.1,81.5,75.3,81.4z"/>
<path d="M79.5,81.9c0-0.1,0-0.1-0.1-0.2c-0.1,0-0.1-0.1-0.2,0c-0.6,0.2-1.7,0.7-1.7,0.7l-0.8,9.8 c0.7-0.4,1.4-0.6,2.1-0.7c0.1,0,0.2-0.1,0.2-0.2C79.1,88.1,79.2,85,79.5,81.9z"/>
<path d="M77.6,82.4L71.2,82c0,1.5-0.2,3-0.3,4.4c-0.1,1.7-0.1,3.4-0.3,5.2c0,0.1,0,0.1,0.1,0.2 c0,0,0.1,0.1,0.2,0.1c2,0,3.9,0.1,5.9,0.3c0.1,0,0.1,0,0.2,0c0,0,0.1-0.1,0.1-0.1c0.1-0.9,0.3-4.4,0.3-4.4L77.6,82.4z"/>
<path d="M77.6,82.4L71.2,82c0,0-0.1,0.6-0.2,1.3c-0.1,0.9,0.2,1.8,0.7,2.5c0.6,0.7,1.4,1.1,2.3,1.2c0,0,0,0,0,0 c0.9,0.1,1.8-0.3,2.4-0.9c0.7-0.6,1-1.5,1-2.4C77.6,83,77.6,82.4,77.6,82.4z"/>
<path d="M74.2,85.8c0.2,0,0.4,0.2,0.4,0.4s-0.2,0.4-0.4,0.4s-0.4-0.2-0.4-0.4S74,85.8,74.2,85.8z"/>
</g>
</g>
<g>
<g>
<path d="M66.4,80.2c-1.3-0.1-2.6,0.1-3.7,0.7c0,0,0,0,0,0l5.8,0.3l1.6-0.7C70,80.5,68,80.3,66.4,80.2z"/>
<path d="M70.2,80.7c0-0.1,0-0.1-0.1-0.2c-0.1,0-0.1,0-0.2,0c-0.5,0.2-1.5,0.7-1.5,0.7L67.6,91 c0.6-0.4,1.3-0.6,1.9-0.7c0.1,0,0.2-0.1,0.2-0.2C69.8,86.9,69.9,83.8,70.2,80.7z"/>
<path d="M68.4,81.2l-5.8-0.3c0,1.5-0.2,3-0.3,4.4c-0.1,1.7-0.1,3.4-0.3,5.2c0,0.1,0,0.1,0.1,0.2 c0,0,0.1,0.1,0.1,0.1c1.8,0,3.6,0.1,5.3,0.3c0.1,0,0.1,0,0.2,0c0,0,0.1-0.1,0.1-0.1c0.1-0.9,0.3-4.4,0.3-4.4L68.4,81.2z"/>
<path d="M68.4,81.2l-5.8-0.3c0,0-0.1,0.7-0.2,1.6c-0.1,0.8,0.2,1.6,0.7,2.3c0.5,0.6,1.3,1,2.1,1.1c0,0,0,0,0,0 c0.8,0,1.6-0.2,2.2-0.8c0.6-0.6,0.9-1.3,0.9-2.2C68.4,81.9,68.4,81.2,68.4,81.2z"/>
<path d="M65.3,84.6c0.2,0,0.4,0.2,0.3,0.4s-0.2,0.4-0.4,0.4c-0.2,0-0.4-0.2-0.3-0.4S65.1,84.6,65.3,84.6z"/>
</g>
</g>
<g>
<path d="M59,80.8l0.4-0.7l2.2,0.1l0.3,0.8L59,80.8z"/>
<path d="M61.9,81.1c0-0.1,0-0.1,0-0.2c0,0-0.1-0.1-0.1-0.1c-0.7,0-2.7-0.1-2.7-0.1l-0.4,8.8 c0.1,0.3,1.7,0.4,2.6,0.4c0.1,0,0.2-0.1,0.2-0.2C61.5,86.8,61.6,84,61.9,81.1z"/>
</g>
</g>
<g>
<g>
<g>
<path d="M93.9,81.4c1.4-0.1,2.8,0.1,4.1,0.6l0,0l-6.3,0.4l-1.7-0.7C89.9,81.7,92.1,81.5,93.9,81.4z"/>
<path d="M89.7,81.9c0-0.1,0-0.1,0.1-0.2c0.1,0,0.1-0.1,0.2,0c0.6,0.2,1.7,0.7,1.7,0.7l0.8,9.8 c-0.7-0.4-1.4-0.6-2.1-0.7c-0.1,0-0.2-0.1-0.2-0.2C90.1,88.1,90,85,89.7,81.9z"/>
<path d="M91.6,82.4l6.3-0.4c0,1.5,0.2,3,0.3,4.4c0.1,1.7,0.1,3.4,0.3,5.2c0,0.1,0,0.1-0.1,0.2 c0,0-0.1,0.1-0.1,0.1c-2,0-3.9,0.1-5.9,0.3c-0.1,0-0.1,0-0.2,0c0,0-0.1-0.1-0.1-0.1c-0.1-0.9-0.3-4.4-0.3-4.4L91.6,82.4z"/>
<path d="M91.6,82.4l6.3-0.4c0,0,0.1,0.6,0.2,1.3c0.1,0.9-0.2,1.8-0.7,2.5c-0.6,0.7-1.4,1.1-2.3,1.2c0,0,0,0,0,0 c-0.9,0.1-1.8-0.3-2.4-0.9c-0.7-0.6-1-1.5-1-2.4C91.6,83,91.6,82.4,91.6,82.4z"/>
<path d="M95,85.8c-0.2,0-0.4,0.2-0.4,0.4s0.2,0.4,0.4,0.4s0.4-0.2,0.4-0.4S95.2,85.8,95,85.8z"/>
</g>
</g>
<g>
<g>
<path d="M102.8,80.2c1.3-0.1,2.6,0.1,3.7,0.7l0,0l-5.8,0.3l-1.6-0.7C99.2,80.5,101.2,80.3,102.8,80.2z"/>
<path d="M99,80.7c0-0.1,0-0.1,0.1-0.2c0.1,0,0.1,0,0.2,0c0.5,0.2,1.5,0.7,1.5,0.7l0.8,9.8 c-0.6-0.4-1.3-0.6-1.9-0.7c-0.1,0-0.2-0.1-0.2-0.2C99.4,86.9,99.3,83.8,99,80.7z"/>
<path d="M100.7,81.2l5.8-0.3c0,1.5,0.2,3,0.3,4.4c0.1,1.7,0.1,3.4,0.3,5.2c0,0.1,0,0.1-0.1,0.2 c0,0-0.1,0.1-0.2,0.1c-1.8,0-3.6,0.1-5.3,0.3c-0.1,0-0.1,0-0.2,0c0,0-0.1-0.1-0.1-0.1c-0.1-0.9-0.3-4.4-0.3-4.4L100.7,81.2z"/>
<path d="M100.7,81.2l5.8-0.3c0,0,0.1,0.7,0.2,1.6c0.1,0.8-0.2,1.6-0.7,2.3c-0.5,0.6-1.3,1-2.1,1.1c0,0,0,0,0,0 c-0.8,0-1.6-0.2-2.2-0.8c-0.6-0.6-0.9-1.3-0.9-2.2C100.7,81.9,100.7,81.2,100.7,81.2z"/>
<path d="M103.8,84.6c-0.2,0-0.4,0.2-0.3,0.4c0,0.2,0.2,0.4,0.4,0.4c0.2,0,0.4-0.2,0.3-0.4S104,84.6,103.8,84.6z"/>
</g>
</g>
<g>
<path d="M110.1,80.8l-0.4-0.7l-2.2,0.1l-0.3,0.8L110.1,80.8z"/>
<path d="M107.2,81.1c0-0.1,0-0.1,0-0.2c0,0,0.1-0.1,0.1-0.1c0.7,0,2.7-0.1,2.7-0.1l0.4,8.8 c-0.1,0.3-1.7,0.4-2.6,0.4c-0.1,0-0.2-0.1-0.2-0.2C107.7,86.8,107.6,84,107.2,81.1z"/>
</g>
</g>
</g>
</g>
</g>
</g>
<g id="Extras_Front">
<g id="Front">
<g id="None_Front" class="option" style="display: inherit;">
</g>
</g>
</g>
</svg></svg>