<?xml version='1.0' encoding='UTF-8'?><svg version='1.1' xmlns='http://www.w3.org/2000/svg'><metadata><rdf:rdf xmlns:rdf="http://www.w3.org/1999/02/22-rdf-syntax-ns#" xmlns:rdfs="http://www.w3.org/2000/01/rdf-schema#" xmlns:dc="http://purl.org/dc/elements/1.1/"> <rdf:description> <dc:creator>MandoCreator</dc:creator> <dc:publisher>https://www.mandocreator.com</dc:publisher> <dc:description>Your Beskar'gam - created by MandoCreator</dc:description> <dc:format>image/svg+xml</dc:format> <dc:type>Image</dc:type> <dc:title>MandoCreator - Ner Berskar'gam</dc:title> <dc:date>2021-10-08T16:50:35.727Z</dc:date> </rdf:description> </rdf:rdf></metadata><svg version="1.1" id="Female" xmlns="http://www.w3.org/2000/svg" viewBox="0 -55 169 300" style="fill: white; fill-rule: evenodd; stroke: black; stroke-width: 0.2px; pointer-events: none; position: relative; height: 100%;">
<g id="Extras_Back">
<g id="Back"><g id="NO-CAPES_Back" class="option" style="display: inherit;">
</g>
</g>
</g>
<g id="Suit">
<g id="Neck-Seal">
<path id="Plain-Neck-Seal" class="option" d="M94.3,7L98,18.1l-1.6,2.7l-11.9,2.8l-12-2.8l-1.4-3.3L74.7,7l9.8,0.7L94.3,7" style="fill: rgb(80, 168, 254); display: inherit;"/>
</g>
<g id="Flight-Suit" style="fill: rgb(37, 37, 37);">
<path d="M38.9,64l5.1-18.4l11.8-8l1.8,16.1c0,0-5.1,9.7-6.9,14.2c-1.8,4.6-5,15.1-5.4,16.5l-2.8,24.4l-8.1-2.6 c0,0-0.3-16.9,0.4-24C35.5,76,38.9,64,38.9,64z"/>
<path d="M130.1,64l-5.1-18.5l-11.7-7.9l-1.9,16.2c0,0,5.1,9.6,6.8,14.1c1.8,4.6,5,15.1,5.4,16.5l2.8,24.4l8.1-2.6 c0,0,0.3-16.9-0.4-24C133.5,76,130.1,64,130.1,64z"/>
<path d="M84.5,116.1c-1,0.1-1.9,0.5-2.2,1.2c-2.9,6.2-8.9,34.4-10.7,39.6c-0.9,2.8-1.7,18.3-3.3,27.3 c-1.9,10.8-8.2,37.3-8.2,37.3l-10.9-1.1c0,0-1.4-26.6-1-36.3c0.3-7.4,3.3-21.8,3.3-21.8s0.7-5.3,0.7-7.9c0.1-9.6,0.9-31,2.8-43.3 c1.5-9.7,10.6-30.1,10.6-30.1s11.9,4.7,18.8,4.7c7,0,18.9-4.8,18.9-4.8s8.6,20.5,10.1,30.2c1.9,12.3,3.2,33.7,3.2,43.3 c0,2.7,0.7,7.9,0.7,7.9s3,14.5,3.3,21.8c0.4,9.7-1,36.3-1,36.3l-10.9,1.1c0,0-6.3-26.5-8.2-37.3c-1.6-9-2.3-24.5-3.3-27.3 c-1.7-5.2-7.7-33.4-10.7-39.6C86.5,116.6,85.6,116.2,84.5,116.1L84.5,116.1z"/>
</g>
<g id="Sleeves" class="toggle" style="display: none; fill: rgb(255, 255, 255);"/>
</g>
<g id="Boots">
<g id="Gunslinger_Boots" class="option" style="display: inherit;">
<g id="Main_Gunslinger-Boot" style="fill: rgb(87, 87, 87);">
<path d="M62.4,227.8c0,0.2-0.6,3-3.8,3.8c-1,0.3-2.8-0.3-4-0.9c-1.5-0.8-3.2-1.4-4.8-1.9l0,0.1c0,0,0,0.1-0.1,0.1 c-0.5,0.7-1.1,1.4-1.7,2l0,0l0,0c-0.1,0.1-0.1,0.1-0.2,0.2c-0.4,0.3-0.7,0.7-1.1,1l-0.1,0.1l-0.1,0.1c0,0-0.1,0-0.1,0.1 c-0.1,0-0.1,0.1-0.2,0.1c-0.8,0.6-1.8,1.4-2.9,1.2c-1-0.1-2.1-0.5-2.9-0.9c-0.7-0.3-1.4-0.8-1.9-1.2c-0.1-0.1-0.3-0.2-0.3-0.4 c-2.3,0.9-4.7,1.2-5.9,3.8c-0.3,0.5-0.5,1.2-0.4,1.8c0.1,0.8,0.9,0.9,1.6,1.1c1.7,0.4,3.1,0.8,5.1,1.2c2.2,0.5,4.2,0.7,6.4,0.6 c1.7-0.1,3.1-0.2,4.5-1.1c0.6-0.4,1.2-0.7,1.7-1.2c1.1-1.1,1.9-2.2,3.3-2.8c1.1-0.5,2.2-0.9,3.3-1.1c1.6-0.4,3.3-0.7,4.1-2.3 C62.6,230.1,62.6,228.9,62.4,227.8L62.4,227.8"/>
<path d="M106.7,227.8c0,0.2,0.6,3,3.8,3.8c1,0.3,2.8-0.3,4-0.9c1.5-0.8,3.2-1.4,4.8-1.9l0,0.1c0,0,0,0.1,0.1,0.1 c0.5,0.7,1.1,1.4,1.7,2l0,0l0,0c0.1,0.1,0.1,0.1,0.2,0.2c0.4,0.3,0.7,0.7,1.1,1l0.1,0.1l0.1,0.1c0,0,0.1,0,0.1,0.1 c0.1,0,0.1,0.1,0.2,0.1c0.8,0.6,1.8,1.4,2.9,1.2c1-0.1,2.1-0.5,2.9-0.9c0.7-0.3,1.4-0.8,1.9-1.2c0.1-0.1,0.3-0.2,0.3-0.4 c2.3,0.9,4.7,1.2,5.9,3.8c0.3,0.5,0.5,1.2,0.4,1.8c-0.1,0.8-0.9,0.9-1.6,1.1c-1.7,0.4-3.1,0.8-5.1,1.2c-2.2,0.5-4.2,0.7-6.4,0.6 c-1.7-0.1-3.1-0.2-4.5-1.1c-0.6-0.4-1.2-0.7-1.7-1.2c-1.1-1.1-1.9-2.2-3.3-2.8c-1.1-0.5-2.2-0.9-3.3-1.1 c-1.6-0.4-3.3-0.7-4.1-2.3C106.4,230.1,106.5,228.9,106.7,227.8L106.7,227.8"/>
</g>
<g id="Bottom_Gunslinger-Boot" style="fill: rgb(231, 142, 0);">
<path d="M62.4,230c-0.1,0.4-0.2,0.9-0.5,1.3c-0.8,1.6-2.6,1.9-4.1,2.3c-1.1,0.3-2.2,0.7-3.3,1.1 c-1.5,0.6-2.2,1.7-3.3,2.8c-0.5,0.5-1.1,0.8-1.7,1.2c-1.5,0.9-2.9,1-4.5,1.1c-2.2,0.1-4.2-0.2-6.4-0.6c-1.9-0.4-3.4-0.7-5.1-1.2 c-0.5-0.1-1.2-0.2-1.5-0.7l0,0l-0.3,0.7l-0.2,1.5c0,0,1.8,1,3.7,1.4c1.9,0.4,5.8,1,5.8,1l0.3-0.6l0.9,0.2l0,0.6l2.1,0.1l0.4-0.6 l0.7,0l-0.1,0.5c0,0,1.3,0,2-0.4c0.1-0.2,0.4-0.5,0.4-0.5l0.5-0.3l-0.1,0.5l1.8-0.7l0.1-0.7l0.5-0.3l0,0.5l1.3-1l0.1-0.6l3.2-2.3 l0.5,1.2l2.3-0.5l0.1-0.5l0.6-0.2l0.4,0.4l1.5-0.6l0-0.5l0.5-0.2l0.1,0.3l1.4-1l0.3-2l0.1-2.2L62.4,230L62.4,230"/>
<path d="M106.6,230c0.1,0.4,0.2,0.9,0.5,1.3c0.8,1.6,2.6,1.9,4.1,2.3c1.1,0.3,2.2,0.7,3.3,1.1 c1.5,0.6,2.2,1.7,3.3,2.8c0.5,0.5,1.1,0.8,1.7,1.2c1.5,0.9,2.9,1,4.5,1.1c2.2,0.1,4.2-0.2,6.4-0.6c1.9-0.4,3.4-0.7,5.1-1.2 c0.5-0.1,1.2-0.2,1.5-0.7l0,0l0.3,0.7l0.2,1.5c0,0-1.8,1-3.7,1.4c-1.9,0.4-5.8,1-5.8,1l-0.3-0.6l-0.9,0.2l0,0.6l-2.1,0.1 l-0.4-0.6l-0.7,0l0.1,0.5c0,0-1.3,0-2-0.4c-0.1-0.2-0.4-0.5-0.4-0.5l-0.5-0.3l0.1,0.5l-1.8-0.7l-0.1-0.7l-0.5-0.3l0,0.5l-1.3-1 l-0.1-0.6l-3.2-2.3l-0.5,1.2l-2.3-0.5l-0.1-0.5l-0.6-0.2l-0.4,0.4l-1.5-0.6l0-0.5l-0.5-0.2l-0.1,0.3l-1.4-1l-0.3-2l-0.1-2.2 L106.6,230L106.6,230"/>
</g>
<g id="Top_Gunslinger-Boot" style="fill: rgb(231, 142, 0);">
<path d="M49.9,228.8c1.9-2.8,3.2-6.2,3.7-9.1l0,0l-0.5,0l0,0l-0.1,0l-0.2,0l-0.3,0l-0.1,0c-0.3,0-0.6-0.1-0.9-0.1 l-0.5-0.1l-0.1,0l0,0l-0.1,0l-0.3-0.1l-0.3-0.1l0,0c-1-0.3-0.9-0.5-0.9-0.5c-0.3,1.3-0.9,2.7-1.5,4c-0.9,1.9-2.7,3.6-4.1,5.1 c-1,1-2.5,2-3.7,2.8c-0.5,0.3-1.1,0.6-1.6,0.8c0.4,0.6,1.4,1.2,2.2,1.6c0.8,0.4,1.9,0.8,2.9,0.9c1,0.1,2.1-0.7,2.9-1.2 C47.6,231.6,48.8,230.3,49.9,228.8L49.9,228.8"/>
<path d="M119.2,228.8c-1.9-2.8-3.2-6.2-3.7-9.1l0,0l0.5,0l0,0l0.1,0l0.2,0l0.3,0l0.1,0c0.3,0,0.6-0.1,0.9-0.1 l0.5-0.1l0.1,0l0,0l0.1,0l0.3-0.1l0.3-0.1l0,0c1-0.3,0.9-0.5,0.9-0.5c0.3,1.3,0.9,2.7,1.5,4c0.9,1.9,2.7,3.6,4.1,5.1 c1,1,2.5,2,3.7,2.8c0.5,0.3,1.1,0.6,1.6,0.8c-0.4,0.6-1.4,1.2-2.2,1.6c-0.8,0.4-1.9,0.8-2.9,0.9c-1,0.1-2.1-0.7-2.9-1.2 C121.5,231.6,120.3,230.3,119.2,228.8L119.2,228.8"/>
</g>
<g id="Side_Gunslinger-Boot" style="fill: rgb(231, 142, 0);">
<path d="M49.8,228.9c1.7,0.5,3.3,1.1,4.8,1.9c1.1,0.6,2.9,1.1,4,0.9c3.2-0.8,3.8-3.8,3.8-3.8c-0.1-0.7-0.8-3.2-1-3.9 c-0.5-1.5-0.4-5.3-0.5-5.3c-2.6,1.4-6,1.1-7.3,1l0,0C53.1,222.7,51.8,226.1,49.8,228.9"/>
<path d="M119.2,228.9c-1.7,0.5-3.3,1.1-4.8,1.9c-1.1,0.6-2.9,1.1-4,0.9c-3.2-0.8-3.8-3.8-3.8-3.8 c0.1-0.7,0.8-3.2,1-3.9c0.5-1.5,0.4-5.3,0.5-5.3c2.6,1.4,6,1.1,7.3,1l0,0C116,222.7,117.3,226.1,119.2,228.9"/>
</g>
</g>
</g>
<g id="Gloves">
<g id="Left-Glove">
<g id="Basic_Left_Glove" class="option" style="fill: rgb(0, 0, 0); display: inherit;">
<path d="M131.4,123c-0.5,0-0.9,0-1.3,0.1c-0.3,0.1-0.6,0.2-0.9,0.3c-0.8,0.5-0.6,1.7,0.1,2.2c0.9,0.5,2.2,0,2.6-1 C132.1,124.2,131.6,123.4,131.4,123"/>
<path d="M129.9,124c-0.5,0-0.9,0-1.3,0.1c-0.3,0.1-0.6,0.2-0.9,0.3c-0.8,0.5-0.6,1.7,0.1,2.2c0.9,0.5,2.2,0,2.6-1 C130.6,125.2,130.1,124.4,129.9,124"/>
<path d="M128.8,125.4c-0.4,0-1,0.1-1.4,0.3c-0.3,0.1-0.6,0.2-0.8,0.5c-0.8,0.7-0.4,1.8,0.4,2.1 c0.9,0.4,2.2-0.3,2.5-1.4C129.5,126.5,128.8,125.4,128.8,125.4z"/>
<path d="M126.3,109.6c0,0-1.3,2-1.6,3.5c-0.2,1-0.1,3.5-0.4,5.2c-0.3,1.7-0.6,2.6-0.6,2.6s-1.2,2.7-0.9,3.3 c0.2,0.6,1.2,1.2,1.8,0.8c0.7-0.4,1.6-2.3,2.2-3.6c0.6-1.3,1-3.2,1-3.2s0.8,0.3,1.2,0.7c1.3,1.2,0.8,4.7,0.8,4.7 s-0.6,1.3-1.4,2.7c-1.1,1.9-2.9,3.6-1.7,5.1c1.1,1.4,3.5-2.3,3.5-2.3l2.4-3.5c0,0,2.8-5.1,2.9-6.1c0.1-0.8,0-3.3,0-3.3l-0.9-9.9 l-4.4,0.4l-3.6,1.3L126.3,109.6"/>
</g>
</g>
<g id="Right-Glove">
<g id="Basic_Right_Glove" class="option" style="fill: rgb(0, 0, 0); display: inherit;">
<path d="M37.6,123c0.5,0,0.9,0,1.3,0.1c0.3,0.1,0.6,0.2,0.9,0.3c0.8,0.5,0.6,1.7-0.1,2.2c-0.9,0.5-2.2,0-2.6-1 C36.9,124.2,37.4,123.4,37.6,123"/>
<path d="M39.2,124c0.5,0,0.9,0,1.3,0.1c0.3,0.1,0.6,0.2,0.9,0.3c0.8,0.5,0.6,1.7-0.1,2.2c-0.9,0.5-2.2,0-2.6-1 C38.4,125.2,38.9,124.4,39.2,124"/>
<path d="M40.3,125.4c0.5,0,1,0.1,1.4,0.3c0.3,0.1,0.6,0.2,0.8,0.5c0.8,0.7,0.4,1.8-0.4,2.1c-0.9,0.4-2.2-0.3-2.5-1.4 C39.5,126.5,40.3,125.4,40.3,125.4z"/>
<path d="M42.7,109.6c0,0,1.3,2,1.6,3.5c0.2,1,0.1,3.5,0.4,5.2c0.3,1.7,0.6,2.6,0.6,2.6s1.1,2.7,0.9,3.3 c-0.2,0.6-1.2,1.2-1.8,0.8c-0.7-0.4-1.6-2.3-2.2-3.6c-0.6-1.3-1-3.2-1-3.2s-0.8,0.3-1.2,0.7c-1.3,1.2-0.8,4.7-0.8,4.7 s0.6,1.3,1.4,2.7c1.1,1.9,2.9,3.6,1.7,5.1c-1.1,1.4-3.5-2.3-3.5-2.3l-2.4-3.5c0,0-2.8-5.1-2.9-6.1c-0.1-0.8,0-3.3,0-3.3l0.9-9.9 l4.4,0.4l3.6,1.3L42.7,109.6"/>
</g>
</g>
</g>
<g id="Biceps">
<g id="Left-Biceps">
<g id="Basic_Biceps_Left" class="option" style="display: inherit;">
<path id="Main_Basic_Biceps_Left" d="M131.5,57.7c-1.2-2.8-6.3-15-6.3-15s-8.4,3.5-10.5,4.3 c-0.6,0.2-0.9,0.9-0.6,1.5c1,2.4,3.4,8.3,4.9,11.9c0.3,0.8,1,1.5,1.8,1.8c0.8,0.3,1.8,0.3,2.6,0c2.5-1,5.8-2.4,7.5-3.1 C131.5,59,131.8,58.3,131.5,57.7z" style="fill: rgb(87, 87, 87);"/>
<path id="Strap_Basic_Biceps_Left" d="M116.4,54l-4.6,1.9l1.1,3.9l5-2.1L116.4,54" style="fill: rgb(40, 40, 40);"/>
<path id="Trauma-Plate_Basic_Biceps_Left" class="toggle" style="display: none; fill: rgb(255, 255, 255);" d="M131.5,57.2l-5.3-13l-10.3,4.2l4.7,11.4 c0.2,0.4,0.5,0.7,0.9,0.9c0.4,0.2,0.9,0.2,1.3,0L131.5,57.2"/>
</g>
</g>
<g id="Right-Biceps">
<g id="Basic_Biceps_Right" class="option" style="display: inherit;">
<path id="Main_Basic_Biceps_Right" d="M37.5,57.7c1.2-2.8,6.3-15,6.3-15s8.4,3.5,10.5,4.3c0.6,0.2,0.9,0.9,0.6,1.5 c-1,2.4-3.4,8.3-4.9,11.9c-0.3,0.8-1,1.5-1.8,1.8c-0.8,0.3-1.8,0.3-2.6,0c-2.5-1-5.8-2.4-7.5-3.1C37.6,59,37.3,58.3,37.5,57.7z" style="fill: rgb(87, 87, 87);"/>
<path id="Strap_Basic_Biceps_Right" d="M52.7,54l4.6,1.9l-1.1,3.9l-5-2.1L52.7,54" style="fill: rgb(40, 40, 40);"/>
<path id="Trauma-Plate_Basic_Biceps_Right" class="toggle" style="display: none; fill: rgb(255, 255, 255);" d="M37.6,57.2l5.3-13l10.3,4.2l-4.7,11.4 c-0.2,0.4-0.5,0.7-0.9,0.9c-0.4,0.2-0.9,0.2-1.3,0L37.6,57.2"/>
</g>
</g>
</g>
<path id="Vest" d="M90.9,86.3c-4.2,0.9-8.6,0.9-12.8,0c-4.2-0.9-12.5-5.2-12.5-5.2s-7.2-22.8-8.5-29.4 c-1-5.3-1.4-14.1-1.4-14.1L43.4,46l-2.6-1.1c0,0,7.4-16.4,12.3-21.1c4.4-4.3,17-7.3,17-7.3s5.5,6.1,14.6,6.1 c8.6,0,14.6-6.1,14.6-6.1s12.5,3.1,17,7.3c4.9,4.7,12.3,21.1,12.3,21.1l-2.6,1.1l-12.4-8.3c0,0-0.4,8.8-1.4,14.1 c-1.3,6.6-8.5,29.4-8.5,29.4S95.1,85.4,90.9,86.3z" style="fill: rgb(37, 37, 37);"/>
<g class="swappable" id="Chest">
<g id="Chest_Galaxy" style="visibility: visible;">
<g id="Abdomen_Galaxy">
<path id="Abdomen-Plate_Galaxy" d="M77.9,74.5l-2,1.4l-10-1.4l-0.7-5.5l4.7-0.1l2.9-4.7l1.3-4.3l10.4-9.5l0,0l0,0 l10.4,9.5l1.3,4.3l2.9,4.7l4.7,0.1l-0.7,5.5l-10,1.4l-2-1.4H77.9z" style="fill: rgb(231, 142, 0);"/>
<path id="Trauma-Plate_Abdomen_Galaxy" class="toggle" style="fill: rgb(87, 87, 87);" d="M84.5,52.5l-9,8.2l-1.2,4.1l-3.4,5.6L67,70.5l0.3,2.5l8.2,1.2 l1.9-1.4h14.2l1.9,1.4l8.2-1.2l0.3-2.5l-3.8-0.1l-3.4-5.6l-1.2-4.1L84.5,52.5L84.5,52.5L84.5,52.5z"/>
</g>
<g id="Full-Chest_Galaxy">
<path id="Chest-Plate_Galaxy" d="M80.3,36.5l0,9.7l3,3.1L72.7,59.4L71.3,64l-2.3,3.7h-3.9L63.3,65l-2.4-13.5 l-3.5-5.5l4.5-14.5l5.2-0.7l0.7-3.2l5.5-0.7l1.7,2.9h19l1.7-2.9l5.5,0.7l0.7,3.2l5.2,0.7l4.5,14.5l-3.5,5.5L105.7,65l-1.9,2.8 h-3.9L97.7,64l-1.4-4.7L85.6,49.3l3-3.1l0-9.7l-4.2-3.2L80.3,36.5z" style="fill: rgb(80, 168, 254);"/>
<path id="Trauma-Plating_Left-Chest_Galaxy" class="toggle" style="fill: rgb(87, 87, 87);" d="M94.9,31.4H84.6l5.7,4.4l0,11.1l-2.3,2.4l9.8,9.3 l1.4,4.9l1.7,2.8h2.1l1.2-1.8l2.4-13.5l3.3-5.2l-4-12.8l-5.3-0.7L100,29l-3.4-0.4L94.9,31.4z"/>
<path id="Trauma-Plating_Right-Chest_Galaxy" class="toggle" style="fill: rgb(87, 87, 87);" d="M72.4,28.6L69,29l-0.7,3.2L63,32.9l-4,12.8l3.3,5.2 l2.4,13.5l1.2,1.8h2.1l1.7-2.8l1.4-4.9l9.8-9.3l-2.3-2.4l0-11.1l5.7-4.4H74.1L72.4,28.6z"/>
<g id="Accents_Chest-Plate_Galaxy" class="toggle" style="fill: rgb(231, 142, 0);">
<rect x="95" y="34.4" width="8.8" height="1.2"/>
<rect x="95" y="36.5" width="8.8" height="1.2"/>
</g>
</g>
<g id="Iron-Heart_Galaxy">
<path id="Heart_Galaxy" d="M81.9,45.9v-8.7l2.6-2l2.6,2v8.7l-2.6,2.6L81.9,45.9z" style="fill: rgb(231, 142, 0);"/>
<rect id="Center_Heart_Galaxy" class="option" x="83.6" y="38.6" width="1.8" height="6" style="fill: rgb(87, 87, 87); display: inherit;"/>
</g>
<g id="Neck-Armor_Galaxy">
<g id="Neck-Plate_Galaxy" style="fill: rgb(87, 87, 87);">
<path d="M82.4,28.8l-7,0.1l-1.7-2.8L67,26.9l-0.7,2.9L62,30.3l-3.2-10.9l10.9-3.3c0,0,1.4,2.5,2.5,3.3 c1.1,0.9,2.5,1.9,3.9,2.5c1.5,0.6,3.3,1.1,5,1.4c0.2,0,0.4,0.1,0.6,0.1L82.4,28.8z"/>
<path d="M86.6,28.8l7,0.1l1.7-2.8l6.7,0.8l0.7,2.9l4.3,0.5l3.2-10.9l-10.9-3.3c0,0-1.4,2.5-2.5,3.3 c-1.1,0.9-2.5,1.9-3.9,2.5c-1.5,0.6-3.3,1.1-5,1.4c-0.2,0-0.4,0.1-0.6,0.1L86.6,28.8z"/>
</g>
<g id="Trauma-Plates_Neck_Galaxy" class="toggle" style="fill: rgb(80, 168, 254);">
<path d="M99.9,18.1c-0.6,0.9-1.5,2.1-2.2,2.7c-1.2,1-2.8,2.1-4.2,2.8c-1.4,0.6-3.1,1.1-4.7,1.4l-0.3,2.4l4.3,0.1 l1.8-2.9l8.8,1.1l0.7,2.9l1.8,0.2l2.3-8L99.9,18.1z"/>
<path d="M69.1,18.1l-8.3,2.5l2.3,8l1.8-0.2l0.7-2.9l8.8-1.1l1.8,2.9l4.3-0.1l-0.3-2.4c-1.7-0.3-3.3-0.7-4.7-1.4 c-1.5-0.6-3.1-1.8-4.2-2.8C70.6,20.2,69.7,18.9,69.1,18.1z"/>
</g>
</g>
</g>
</g>
<g id="Chest-Attachments">
<g id="No-Device_Accessories_Chest" class="option" style="display: inherit;">
</g>
</g>
<g id="Collar">
<g id="None_Collar" class="option" style="display: inherit;">
</g>
</g>
<svg version="1.1" id="Helmets" xmlns="http://www.w3.org/2000/svg" y="-54px" height="85px" viewBox="0 0 80 80" class="swappable">
<g id="Helmet_Stalker-Medium" style="visibility: visible;">
<g id="Left-Earcap_Stalker-Medium" class="toggle">
<g id="Ear-Cap_Left_Stalker-Medium" style="fill: rgb(87, 87, 87);">
<path d="M57.6,31l2.4,1.7L60.9,43l-2.1,2.1L57.6,31z"/>
<path d="M58.6,37.7c0-0.1,0.1-0.2,0.2-0.2l1-0.1c0.1,0,0.2,0.1,0.2,0.2c0,0.1-0.1,0.2-0.2,0.2l-1,0.1 C58.7,37.9,58.6,37.8,58.6,37.7z"/>
</g>
</g>
<g id="Right-Earcap_Stalker-Medium" class="toggle">
<g id="Range-Finder_Right_Stalker-Medium" class="option" style="display: inherit;">
<path id="Shaft_Right_Range-Finder_Stalker-Medium" d="M22.1,9.7l1.1,0.1l-1.6,26.9h-1.1L22.1,9.7z" style="fill: rgb(87, 87, 87);"/>
<path id="Finder_Right_Range-Finder_Stalker-Medium" d="M30.4,7.6h-6l0.2-0.7l7-0.7L30.4,7.6" style="fill: rgb(80, 168, 254);"/>
<g id="Cover_Right_Range-Finder_Stalker-Medium" style="fill: rgb(87, 87, 87);">
<path d="M21.2,8.6L24,8.8l0.6-2l7.5-0.7l0.1-0.8L21.6,5l-1,1.3L21.2,8.6"/>
<path d="M22,8.6l1.4,0.1l-0.1,1.1l-1.4-0.1L22,8.6"/>
</g>
</g>
<g id="Ear-Cap_Right_Stalker-Medium" style="fill: rgb(87, 87, 87);">
<path d="M22.4,31L20,32.6L19.1,43l2.1,2.1L22.4,31z"/>
<path d="M21.4,37.7c0-0.1-0.1-0.2-0.2-0.2l-1-0.1c-0.1,0-0.2,0.1-0.2,0.2c0,0.1,0.1,0.2,0.2,0.2l1,0.1 C21.3,37.9,21.4,37.8,21.4,37.7z"/>
</g>
</g>
<g id="Helmet_Pieces_Stalker-Medium">
<g id="Dome-2_Stalker-Medium" style="fill: rgb(87, 87, 87);">
<path d="M33,20.3c0-0.1-6.5,1.5-8.9,7.9c-0.4,1.1-0.8,3.2-1,4.2c0.1-0.2,0.2-0.4,0.3-0.5c0.5-0.6,1.2-1.5,1.9-2.1 c1-1,2.8-2.3,4-3.6c1.2-1.3,2.5-3.2,3.1-4.2C32.8,21.5,32.9,20.8,33,20.3z"/>
<path d="M47.1,20.3c0-0.1,6.5,1.5,8.9,7.9c0.4,1.1,0.8,3.2,1,4.2c-0.1-0.2-0.2-0.4-0.3-0.5c-0.5-0.6-1.2-1.5-1.9-2.1 c-1-1-2.8-2.3-4-3.6c-1.2-1.3-2.5-3.2-3.1-4.2C47.4,21.5,47.2,20.8,47.1,20.3z"/>
<g>
<path d="M56.9,29.7l0.8,0.9L59,45.5l-0.7,1L56.9,29.7z"/>
<path d="M56.1,28.5l0.8,0.9l1.6,17.3l-0.6,1L56.1,28.5z"/>
</g>
<g>
<path d="M23.2,29.7l-0.8,0.9L21,45.5l0.7,1L23.2,29.7z"/>
<path d="M24,28.5l-0.8,0.9l-1.6,17.3l0.6,1L24,28.5z"/>
</g>
</g>
<g id="Dome-1_Stalker-Medium" style="fill: rgb(80, 168, 254);">
<g>
<path d="M33.1,20.2c-0.1,0.5-0.3,1.2-0.6,1.7c-0.1,0.1-0.1,0.2-0.2,0.3c-0.4,0.1-0.8,0.2-1.2,0.4 C30.2,23,29,23.9,29,23.9V22c0,0,1-0.5,1.9-1C31.6,20.7,32.5,20.4,33.1,20.2z"/>
<path d="M32.4,22.2c-0.7,1.1-1.9,2.8-3,4c-0.1,0.1-0.2,0.3-0.4,0.4v-2.7c0,0,0.9-0.8,1.9-1.2 C31.4,22.5,31.9,22.3,32.4,22.2z"/>
</g>
<g>
<path d="M47.1,20.2c0.1,0.5,0.3,1.2,0.6,1.7c0.1,0.1,0.1,0.2,0.2,0.3c0.4,0.1,0.8,0.2,1.2,0.4 c0.8,0.4,2.1,1.2,2.1,1.2V22c0,0-1-0.5-1.9-1C48.5,20.7,47.6,20.4,47.1,20.2z"/>
<path d="M47.8,22.2c0.7,1.1,1.9,2.8,3,4c0.1,0.1,0.2,0.3,0.4,0.4v-2.7c0,0-0.9-0.8-1.9-1.2 C48.7,22.5,48.2,22.3,47.8,22.2z"/>
</g>
</g>
<g id="Face-2_Stalker-Medium" style="fill: rgb(87, 87, 87);">
<path d="M23.7,51.1l-0.1-3.4L21.2,51c0,0-0.1,2.9,0.3,4c0.4,1.2,1.3,2.1,2.2,3c1,1,12.1,8.5,12.1,8.5l-1.9-8.3L32,59 l-1.6-0.8l-2.1-1.6l-2.2-2.1l-1.7-1.9l-0.8-1.2v-0.3H23.7z"/>
<path d="M56.5,51.1l0.1-3.4l2.3,3.3c0,0,0.1,2.9-0.3,4c-0.4,1.2-1.3,2.1-2.2,3c-1,1-12.1,8.5-12.1,8.5l1.9-8.3 l1.8,0.7l1.6-0.8l2.1-1.6l2.2-2.1l1.7-1.9l0.8-1.2L56.5,51.1L56.5,51.1z"/>
</g>
<g id="Face-1_Stalker-Medium" style="fill: rgb(231, 142, 0);">
<g>
<path d="M23.7,51.1v0.3l0.8,1.2l1.7,1.9l2.2,2.1l2.1,1.6L32,59l1.8-0.7l-0.3-1.1L30,48.5L25.5,45l-1.9,2.7 L23.7,51.1z"/>
<g>
<path d="M29.9,55.5c-0.1-0.1-0.1-0.2,0-0.3l1.3-1c0.1-0.1,0.2-0.1,0.3,0c0.1,0.1,0.1,0.2,0,0.3l-1.3,1 C30.1,55.6,29.9,55.6,29.9,55.5"/>
<path d="M30.7,56.8c-0.1-0.1-0.1-0.2,0-0.3l1.1-0.9c0.1-0.1,0.2-0.1,0.3,0c0.1,0.1,0.1,0.2,0,0.3l-1.1,1 C30.9,56.9,30.8,56.9,30.7,56.8"/>
</g>
</g>
<g>
<path d="M56.5,51.1v0.3l-0.8,1.2L54,54.5l-2.2,2.1l-2.1,1.6L48.1,59l-1.8-0.7l0.3-1.1l3.6-8.7l4.6-3.5l1.9,2.7 L56.5,51.1z"/>
<g>
<path d="M50.3,55.5c0.1-0.1,0.1-0.2,0-0.3l-1.3-1c-0.1-0.1-0.2-0.1-0.3,0c-0.1,0.1-0.1,0.2,0,0.3l1.3,1 C50,55.6,50.2,55.6,50.3,55.5"/>
<path d="M49.4,56.8c0.1-0.1,0.1-0.2,0-0.3l-1.1-0.9c-0.1-0.1-0.2-0.1-0.3,0c-0.1,0.1-0.1,0.2,0,0.3l1.1,0.9 C49.2,56.9,49.4,56.9,49.4,56.8"/>
</g>
</g>
</g>
<g id="Cheeks_Stalker-Medium" style="fill: rgb(80, 168, 254);">
<g>
<path d="M46.5,57.2L45.7,57L50,44.7l0.2,0.6v3.2L46.5,57.2z"/>
<path d="M50.1,48.5l-0.2-3.8l1.7-0.9l2.9-2l2.6-2.3l0.3-0.3L54.7,45L50.1,48.5z"/>
<path d="M58.9,51l-4.2-6l2.8-5.8l0.5-0.6L58.9,51z"/>
<path d="M44.3,66.5h-0.2l1.5-9.6l0.9,0.2L44.3,66.5z"/>
</g>
<g>
<path d="M21.2,51l4.2-6l-2.8-5.8l-0.5-0.6L21.2,51z"/>
<path d="M33.6,57.2l0.9-0.2l-4.3-12.3L30,48.5L33.6,57.2z"/>
<path d="M30,48.5l0.2-3.8l-1.7-0.9l-2.9-2L23,39.5l-0.3-0.3l2.8,5.8L30,48.5z"/>
<path d="M35.8,66.5H36L34.5,57l-0.9,0.2L35.8,66.5z"/>
</g>
</g>
<path id="Visor_Stalker-Medium" d="M41.8,66.8h-3.5l-0.4-25.4c0,0-3.7-0.8-3.8-0.8c-0.1,0-5.2-1.2-5.2-1.2l-4.5-1.5 L23,37.1l0.1-1.4l4.3,0.7l5.4,0.7l5,0.3l2,0.1h0.5l2-0.1l5-0.3l5.4-0.7l4.3-0.7l0.1,1.4l-1.5,0.8l-4.5,1.5c0,0-5.1,1.2-5.2,1.2 c-0.1,0-3.8,0.8-3.8,0.8L41.8,66.8z" style="fill: rgb(46, 46, 46);"/>
<g id="Eyes_Stalker-Medium">
<g id="Main_Eyes_Stalker-Medium" style="fill: rgb(87, 87, 87);">
<path d="M57.5,33.4c0,0-0.5-1-0.9-1.5c-0.5-0.6-1.2-1.5-1.9-2.1c-1-1-2.8-2.3-4-3.6c-1.2-1.3-2.5-3.2-3.1-4.2 c-0.4-0.6-0.6-1.6-0.6-2c0-0.1,0.2-0.3,0.2-0.3s-2.1-0.9-2.8-1c-0.9-0.2-3.2-0.5-3.2-0.5h-2c0,0-2.5,0.3-3.4,0.5 c-0.7,0.2-2.8,1-2.8,1s0.2,0.2,0.2,0.3c-0.1,0.4-0.3,1.4-0.6,2c-0.6,1-1.9,2.9-3.1,4.2c-1.2,1.3-3,2.6-4,3.6 c-0.7,0.7-1.4,1.5-1.9,2.1c-0.4,0.5-0.9,1.5-0.9,1.5L22,38.2l0.2,0.4l0.8,0.9l2.6,2.3l2.9,2l1.7,0.9L34.5,57l1.5,9.6l0.6,0.2h7 l0.6-0.2l1.5-9.6L50,44.7l1.7-0.9l2.9-2l2.6-2.3l0.8-0.9l0.2-0.4L57.5,33.4 M41.8,66.8h-3.5l-0.4-25.4c0,0-3.7-0.8-3.8-0.8 c-0.1,0-5.2-1.2-5.2-1.2l-4.5-1.5L23,37.1l0.1-1.4l4.3,0.7l5.4,0.7l5,0.3l2,0.1h0.5l2-0.1l5-0.3l5.4-0.7l4.3-0.7l0.1,1.4 l-1.5,0.8l-4.5,1.5c0,0-5.1,1.2-5.2,1.2c-0.1,0-3.8,0.8-3.8,0.8L41.8,66.8"/>
<path d="M32.5,20.4l0.3-0.6l0.1-0.1l0.2,0.3L33,20.3L32.5,20.4"/>
<path d="M47.6,20.4l-0.3-0.6l-0.1-0.1c0,0-0.2,0.2-0.2,0.3s0.1,0.3,0.1,0.3L47.6,20.4"/>
</g>
<g id="Trim_Eyes_Stalker-Medium" style="fill: rgb(80, 168, 254);">
<path d="M35,37.3l-0.4-0.9L32,35.8l1.1-15.6l0.1-0.3L33,19.6l2.7-1l1.1-0.2v16.3h6.6V18.5l1.2,0.2l2.6,1L47,20 l1.1,15.9l-2.6,0.5l-0.4,0.9l-5,0.3L35,37.3z"/>
<path d="M43.4,34.8h-6.6l2.5,0.8v-0.4h1.6v0.4L43.4,34.8z"/>
<g>
<path d="M44.9,40.8l-2.7,0.6l-0.4,25.4h1.7l0.6-0.2l1.5-9.6l1.1-3.2l-2.3-2.4L44.9,40.8z"/>
<path d="M35.2,40.8l2.7,0.6l0.4,25.4h-1.7L36,66.6L34.5,57l-1.1-3.2l2.3-2.4L35.2,40.8z"/>
</g>
</g>
<path id="Center_Eyes_Stalker-Medium" d="M43.4,18.5c0,0-1.6-0.3-3.3-0.3c-1.7,0-3.3,0.3-3.3,0.3v16.3h6.6V18.5z" style="fill: rgb(231, 142, 0);"/>
</g>
</g>
</g>
</svg>
<g id="Shoulders">
<g id="Left-Shoulder">
<g id="Legacy-x2_Shoulder_Left" class="option" style="display: inherit;">
<path id="Plate-2_Shoulder_Left_Legacy-x2" d="M111.7,20l-5.9,8.8l6,8.4l9.5-2.3l6,3.7l4.5-1.2L111.7,20z" style="fill: rgb(80, 168, 254);"/>
<path id="Trauma-Plate-2_Shoulder_Legacy-x2_Left" class="toggle" style="display: none; fill: rgb(255, 255, 255);" d="M127.6,36.8l2.9-0.8l-17.3-15.1l-5.2,7.9l4.6,6.5 l8.7-2.2L127.6,36.8z"/>
<path id="Plate-1_Shoulder_Left_Legacy-x2" d="M104.5,15.5l-2.6,10.3l8.4,6l8.2-5.3l6.8,1.5l3.8-2.6L104.5,15.5z" style="fill: rgb(231, 142, 0);"/>
<path id="Trauma-Plate-1_Shoulder_Legacy-x2_Left" class="toggle" style="display: none; fill: rgb(255, 255, 255);" d="M125,26.1l2.5-1.7l-21.3-8.6l-2.4,9.2l6.5,4.6 l7.5-5L125,26.1z"/>
</g>
</g>
<g id="Right-Shoulder">
<g id="Pauldron_Shoulder_Right" class="option" style="display: inherit;">
<path id="Main_Pauldron_Shoulder_Right" d="M72,20.7L43.8,34.1L30.2,19.9l36.5-4.4L72,20.7z" style="fill: rgb(87, 87, 87);"/>
<g id="Plate_Pauldron_Shoulder_Right" style="fill: rgb(80, 168, 254);">
<path d="M32.8,20.2L44.2,32l24.9-11.8l-4-4L32.8,20.2z"/>
<path d="M32.3,19.6l32.1-3.9l-0.4-0.4l-31.9,3.7L32.3,19.6z"/>
</g>
</g>
</g>
</g>
<g id="Gauntlets">
<g id="Left-Gauntlets">
<g id="Heavy_Gauntlet_Left" class="option" style="display: inherit;">
<g id="Top-2_Heavy_Gauntlet_Left" style="fill: rgb(87, 87, 87);">
<path d="M136.7,80.1l1.7,0.3l0.8,8.3l-1.6,1.1L136.7,80.1z"/>
<path d="M137.5,89.1l1,10.9l-1.1,1.2l0.6,6.4l-0.5,0.3l-1.7-17.5L137.5,89.1z"/>
<path d="M137.8,86c0.2,0,0.4,0.2,0.3,0.4s-0.2,0.4-0.4,0.3c-0.2,0-0.4-0.2-0.3-0.4C137.4,86.2,137.6,86,137.8,86z"/>
</g>
<g id="Top-1_Heavy_Gauntlet_Left" style="fill: rgb(87, 87, 87);">
<path d="M133,108.7l4.5-0.8l-1.7-17.5l1.7-1.3l-0.9-9.5l-6.6-1.2L133,108.7z"/>
<path d="M134.9,79.2l0.9,11.1"/>
</g>
<g id="Accent-Top_Heavy_Gauntlet_Left" style="fill: rgb(231, 142, 0);">
<path d="M136.5,105.1l-2.8,0.3l0.2,2.2l2.8-0.4L136.5,105.1z"/>
<path d="M135.5,95.8l-2.8,0.3l0.9,8.6l2.8-0.3L135.5,95.8z"/>
<path d="M134.3,79.8l-3.1-0.5l0.9,9.5l3-0.4L134.3,79.8z"/>
</g>
<path id="Bottom_Heavy_Gauntlet_Left" d="M130.1,78.8c-3.4-0.2-7.1,1-9.5,3.7c-0.8,0.9-1.1,2.1-0.9,3.2 c1.2,5.6,5.2,23.7,5.2,23.7l8.2-0.7L130.1,78.8z" style="fill: rgb(87, 87, 87);"/>
<g id="Accent-Bottom_Heavy_Gauntlet_Left" style="fill: rgb(80, 168, 254);">
<path d="M133,108.7l-8.2,0.7l-0.3-1.5l8.3-0.9L133,108.7z"/>
<path d="M130.3,80.8c-4.4,0.1-8.2,1.4-10.3,6l-0.2-1.1c-0.2-0.9,0-1.8,0.4-2.6l0.5-0.6c2.4-2.7,6.1-3.8,9.5-3.7 L130.3,80.8z"/>
<path d="M129.2,79.4l-3.6,0.4l1.6,14.3l3.6-0.4L129.2,79.4z"/>
<path d="M128.8,79.7l-2.7,0.3l1.5,13.2l2.7-0.3L128.8,79.7z"/>
<path d="M126.1,80l-0.5-0.2"/>
<path d="M129.2,79.4l-0.4,0.3"/>
<path d="M130.9,93.7l-0.6-0.8"/>
<path d="M127.3,94.1l0.4-0.9"/>
</g>
<g id="Flamethrower_Attachment_Heavy_Gauntlet_Left" class="option" style="display: inherit;">
<g id="Tubes_Flamethrower_Attachment_Heavy_Gauntlet_Left" style="fill: rgb(87, 87, 87);">
<path d="M138.1,80.4l-0.8,0.1l2.3,25.6l0.8-0.1L138.1,80.4z"/>
<path d="M140.1,80.2l-0.8,0.1l1.7,18.3l0.8-0.1L140.1,80.2z"/>
<path d="M138.6,82l-1.3,0.1l0.6,6.1l1.3-0.1L138.6,82z"/>
<path d="M140.4,81.8l-1.2,0.1l0.6,6.1l1.2-0.1L140.4,81.8z"/>
</g>
<g id="Main_Flamethrower_Attachment_Heavy_Gauntlet_Left" style="fill: rgb(80, 168, 254);">
<path d="M140.4,79.8l-3.5,0.3l0.2,2l3.5-0.3L140.4,79.8z"/>
<path d="M141.2,87.9l-3.6,0.3l0.1,1l3.6-0.3L141.2,87.9z"/>
<path d="M141.1,88.9l-3.3,0.3l0,0.5l3.3-0.3L141.1,88.9z"/>
<path d="M137.9,87.6l-0.6,0.1l0.3,3l0.6-0.1L137.9,87.6z"/>
</g>
<g id="Accent_Flamethrower_Attachment_Heavy_Gauntlet_Left" style="fill: rgb(231, 142, 0);">
<path d="M141.8,98.6l-0.9,0.1l0,1.3l1.2-0.1L141.8,98.6z"/>
<path d="M141.5,92l-1.6,0.1l0.2,1.9l1.6-0.1L141.5,92z"/>
<path d="M141.5,94l-1.2,0.1l0.2,1.9l1.2-0.1L141.5,94z"/>
<path d="M140.3,102.7l-1.2,0.1l0.2,2.7l1.2-0.1L140.3,102.7z"/>
<path d="M139.5,94.2l-1.2,0.1l0.3,3.6l1.2-0.1L139.5,94.2z"/>
<path d="M140.7,104.1l-1.6,0.1l0,0.5l1.6-0.1L140.7,104.1z"/>
</g>
<path id="Base_Flamethrower_Attachment_Heavy_Gauntlet_Left" d="M137.3,87.7l-0.7-8.1l1,0.3l1.3,13.6l-0.9,0.5 l-0.3-3.4l0.6-0.1l-0.3-3L137.3,87.7z" style="fill: rgb(87, 87, 87);"/>
</g>
</g>
</g>
<g id="Right-Gauntlets">
<g id="Heavy_Gauntlet_Right" class="option" style="display: inherit;">
<g id="Top-2_Heavy_Gauntlet_Right" style="fill: rgb(87, 87, 87);">
<path d="M32.4,80.1l-1.7,0.3l-0.8,8.3l1.6,1.1L32.4,80.1z"/>
<path d="M31.6,89.1l-1,10.9l1.1,1.2l-0.6,6.4l0.5,0.3l1.7-17.5L31.6,89.1z"/>
<path d="M31.3,86c-0.2,0-0.4,0.2-0.3,0.4c0,0.2,0.2,0.4,0.4,0.3c0.2,0,0.4-0.2,0.3-0.4C31.7,86.2,31.5,86,31.3,86z"/>
</g>
<g id="Top-1_Heavy_Gauntlet_Right" style="fill: rgb(87, 87, 87);">
<path d="M36,108.7l-4.5-0.8l1.7-17.5l-1.7-1.3l0.9-9.5l6.6-1.2L36,108.7z"/>
<path d="M34.2,79.2l-0.9,11.1"/>
</g>
<g id="Accent-Top_Heavy_Gauntlet_Right" style="fill: rgb(231, 142, 0);">
<path d="M32.6,105.1l2.8,0.3l-0.2,2.2l-2.8-0.4L32.6,105.1z"/>
<path d="M33.6,95.8l2.8,0.3l-0.9,8.6l-2.8-0.3L33.6,95.8z"/>
<path d="M34.8,79.8l3.1-0.5l-0.9,9.5l-3-0.4L34.8,79.8z"/>
</g>
<path id="Bottom_Heavy_Gauntlet_Right" d="M39,78.8c3.4-0.2,7.1,1,9.5,3.7c0.8,0.9,1.1,2.1,0.9,3.2 c-1.2,5.6-5.2,23.7-5.2,23.7l-8.2-0.7L39,78.8z" style="fill: rgb(87, 87, 87);"/>
<g id="Accent-Bottom_Heavy_Gauntlet_Right" style="fill: rgb(80, 168, 254);">
<path d="M36,108.7l8.2,0.7l0.3-1.5l-8.3-0.9L36,108.7z"/>
<path d="M38.8,80.8c4.4,0.1,8.2,1.4,10.3,6l0.2-1.1c0.2-0.9,0-1.8-0.4-2.6l-0.5-0.6c-2.4-2.7-6.1-3.8-9.5-3.7 L38.8,80.8z"/>
<path d="M39.8,79.4l3.6,0.4l-1.6,14.3l-3.6-0.4L39.8,79.4z"/>
<path d="M40.3,79.7l2.7,0.3l-1.5,13.2l-2.7-0.3L40.3,79.7z"/>
<path d="M42.9,80l0.5-0.2"/>
<path d="M39.8,79.4l0.4,0.3"/>
<path d="M38.2,93.7l0.6-0.8"/>
<path d="M41.8,94.1l-0.4-0.9"/>
</g>
<g id="Missle_Attachment_Heavy_Gauntlet_Right" class="option" style="display: inherit;">
<g id="Head_Missle_Attachment_Heavy_Gauntlet_Right" style="fill: rgb(87, 87, 87);">
<path d="M28.5,98.7l2.3-4.3l-3.8-0.5L28.5,98.7z"/>
<path d="M29.5,94.6c-0.1,0-0.2,0.2-0.2,0.4c0,0.2,0,0.4,0.1,0.4c0.1,0,0.2-0.2,0.2-0.4 C29.7,94.8,29.6,94.6,29.5,94.6z"/>
<path d="M29.3,95.8c-0.1,0-0.1,0.1-0.1,0.3c0,0.2,0,0.3,0.1,0.3c0.1,0,0.1-0.1,0.1-0.3 C29.4,96,29.4,95.8,29.3,95.8z"/>
<path d="M29.2,96.9c-0.1,0-0.1,0.1-0.1,0.3c0,0.2,0,0.3,0.1,0.3c0.1,0,0.1-0.1,0.1-0.3 C29.3,97,29.2,96.9,29.2,96.9z"/>
<path d="M30.2,94.7c-0.1,0-0.2,0.2-0.2,0.4s0,0.4,0.1,0.4c0.1,0,0.2-0.2,0.2-0.4S30.2,94.7,30.2,94.7z"/>
<path d="M27.7,94.4c-0.1,0-0.2,0.2-0.2,0.4c0,0.2,0,0.4,0.1,0.4c0.1,0,0.2-0.2,0.2-0.4S27.8,94.4,27.7,94.4z"/>
<path d="M28.3,94.5c-0.1,0-0.2,0.2-0.2,0.4c0,0.2,0,0.4,0.1,0.4s0.2-0.2,0.2-0.4C28.4,94.7,28.4,94.5,28.3,94.5z"/>
<path d="M28.3,95.7c-0.1,0-0.1,0.1-0.1,0.3c0,0.2,0,0.3,0.1,0.3c0.1,0,0.1-0.1,0.2-0.3 C28.4,95.8,28.4,95.7,28.3,95.7z"/>
<path d="M28.3,96.8c-0.1,0-0.1,0.1-0.1,0.3c0,0.2,0,0.3,0.1,0.3c0.1,0,0.1-0.1,0.1-0.3 C28.4,96.9,28.3,96.8,28.3,96.8z"/>
<path d="M28.9,94.6c-0.1,0-0.2,0.2-0.2,0.4c0,0.2,0,0.4,0.1,0.4c0.1,0,0.2-0.2,0.2-0.4 C29.1,94.8,29,94.6,28.9,94.6z"/>
<path d="M28.8,95.8c-0.1,0-0.1,0.1-0.1,0.3c0,0.2,0,0.3,0.1,0.3c0.1,0,0.1-0.1,0.2-0.3 C28.9,95.9,28.9,95.8,28.8,95.8z"/>
<path d="M28.7,96.8c-0.1,0-0.1,0.1-0.1,0.3c0,0.2,0,0.3,0.1,0.3c0.1,0,0.1-0.1,0.1-0.3 C28.8,97,28.8,96.8,28.7,96.8z"/>
<path d="M27.8,96.3c0.1,0,0.1-0.1,0.1-0.3c0-0.2,0-0.3-0.1-0.3c-0.1,0-0.1,0.1-0.1,0.3L27.8,96.3z M29.9,96.2 c0-0.2,0-0.3-0.1-0.3c-0.1,0-0.1,0.1-0.1,0.3c0,0.2,0,0.3,0.1,0.3L29.9,96.2z"/>
</g>
<g id="Main_Missle_Attachment_Heavy_Gauntlet_Right" style="fill: rgb(87, 87, 87);">
<path d="M27.6,93.4l2.9,0.3l-0.1,0.6L27.5,94L27.6,93.4z"/>
<path d="M28.8,80l2.9,0.3L31.6,81l-2.9-0.3L28.8,80z"/>
<path d="M29.6,77.8l1.7,0.2l-0.1,0.6l-1.7-0.2L29.6,77.8z"/>
<path d="M28.8,78.3l3.2,0.4l-0.2,1.7L28.7,80L28.8,78.3z"/>
<path d="M28.5,80.6l3.4,0.4l-1.2,12.7l-3.4-0.4L28.5,80.6z"/>
<path d="M31.1,87.7l0.6,0.1l-0.3,3l-0.6-0.1L31.1,87.7z"/>
</g>
<g id="Accent_Missle_Attachment_Heavy_Gauntlet_Right" style="fill: rgb(80, 168, 254);">
<path d="M28.5,99.5l0.5-1.1l-0.7-0.1L28.5,99.5z"/>
<path d="M28.3,98.1l0.6,0.1l0,0.3l-0.7-0.1L28.3,98.1z"/>
<path d="M29.5,76.9l2.1,0.2L31.5,78l-2.1-0.2L29.5,76.9z"/>
<path d="M29.9,76.4l1.4,0.2l0.3,0.5l-2.1-0.2L29.9,76.4z"/>
<path d="M29.5,80.7l0.6,0.1l-1.2,12.7l-0.6-0.1L29.5,80.7z"/>
<path d="M30.3,80.8l0.6,0.1l-1.2,12.7l-0.6-0.1L30.3,80.8z"/>
<path d="M28.2,80.9l0.3-0.3l-1.2,12.7L27.1,93L28.2,80.9z"/>
<path d="M28.7,80.7l0.6,0.1l-1.2,12.7l-0.6-0.1L28.7,80.7z"/>
<path d="M31.1,80.9l0.4,0l-1.2,12.7l-0.4,0L31.1,80.9z"/>
</g>
<path id="Base_Missle_Attachment_Heavy_Gauntlet_Right" d="M31.4,80l1-0.3l-1.3,14.5l-0.9-0.5L31.4,80z M31.1,87.7l0.6,0.1l-0.3,3l-0.6-0.1L31.1,87.7z" style="fill: rgb(231, 142, 0);"/>
</g>
</g>
</g>
</g>
<g id="Shins">
<g id="Left-Shin">
<g id="Legacy_Shin_Left" class="option" style="display: inherit;">
<path id="Plate-3_Legacy-Shin_Left" d="M104.2,199.5l3.4,15.8c0,0,4.9,1.2,7.6,1c2.7-0.2,6.3-1.4,6.3-1.4 l-0.7-16.9l-7.4,4.1L104.2,199.5" style="fill: rgb(87, 87, 87);"/>
<path id="Plate-2_Legacy-Shin_Left" d="M101.6,189.7l1.9,9.6l9.9,2.8l8-4.4l-0.3-9.6l-9,4.1L101.6,189.7" style="fill: rgb(87, 87, 87);"/>
<path id="Plate-1_Legacy-Shin_Left" d="M105.9,176.5l-6.4,6.3l1.4,6.7l11.3,2.6l9.6-4.3l-0.2-8.1l-7.2-3.9 L105.9,176.5" style="fill: rgb(231, 142, 0);"/>
<path id="Trauma-Plate-3_Legacy-Shin_Left" class="toggle" style="display: none; fill: rgb(255, 255, 255);" d="M119.3,200.9l-5,2.7c-0.4,0.2-0.9,0.3-1.3,0.1l-6.5-1.9 l2.5,12c1.5,0.3,4.3,0.9,6,0.8c1.6-0.1,3.5-0.6,4.7-1L119.3,200.9"/>
<path id="Trauma-Plate-2_Legacy-Shin_Left" class="toggle" style="display: none; fill: rgb(255, 255, 255);" d="M119.6,190.7l-6.6,3c-0.3,0.2-0.7,0.2-1.1,0.1l-8-1.8 l1.2,6l8.2,2.3l6.5-3.6L119.6,190.7"/>
<path id="Trauma-Plate-1_Legacy-Shin_Left" class="toggle" style="display: none; fill: rgb(255, 255, 255);" d="M106.7,178.2l-5.3,5.2l1,4.7l9.7,2.2l8-3.6l-0.2-6 l-5.9-3.2L106.7,178.2"/>
<g id="Ridge_Legacy-Shin_Left" class="toggle" style="display: none; fill: rgb(255, 255, 255);"/>
</g>
</g>
<g id="Right-Shin">
<g id="Legacy_Shin_Right" class="option" style="display: inherit;">
<path id="Plate-3_Legacy-Shin_Right" d="M64.8,199.5l-3.4,15.8c0,0-4.9,1.2-7.6,1c-2.7-0.2-6.3-1.4-6.3-1.4 l0.7-16.9l7.4,4.1L64.8,199.5" style="fill: rgb(87, 87, 87);"/>
<path id="Plate-2_Legacy-Shin_Right" d="M67.4,189.7l-1.9,9.6l-9.9,2.8l-8-4.4l0.3-9.6l9,4.1L67.4,189.7" style="fill: rgb(87, 87, 87);"/>
<path id="Plate-1_Legacy-Shin_Right" d="M63.1,176.5l6.4,6.3l-1.4,6.7l-11.3,2.6l-9.6-4.3l0.2-8.1l7.2-3.9 L63.1,176.5" style="fill: rgb(231, 142, 0);"/>
<path id="Trauma-Plate-3_Legacy-Shin_Right" class="toggle" style="display: none; fill: rgb(255, 255, 255);" d="M49.7,200.9l5,2.7c0.4,0.2,0.9,0.3,1.3,0.1l6.5-1.9 l-2.5,12c-1.5,0.3-4.3,0.9-6,0.8c-1.6-0.1-3.5-0.6-4.7-1L49.7,200.9"/>
<path id="Trauma-Plate-2_Legacy-Shin_Right" class="toggle" style="display: none; fill: rgb(255, 255, 255);" d="M49.4,190.7l6.6,3c0.3,0.2,0.7,0.2,1.1,0.1l8-1.8l-1.2,6 l-8.2,2.3l-6.5-3.6L49.4,190.7"/>
<path id="Trauma-Plate-1_Legacy-Shin_Right" class="toggle" style="display: none; fill: rgb(255, 255, 255);" d="M62.3,178.2l5.3,5.2l-1,4.7l-9.7,2.2l-8-3.6l0.2-6 l5.9-3.2L62.3,178.2"/>
<g id="Ridge_Legacy-Shin_Right" class="toggle" style="display: none; fill: rgb(255, 255, 255);"/>
</g>
</g>
</g>
<g id="Foot">
<g id="Left-Ankle">
<g id="Legacy_Ankle_Left" class="option" style="display: inherit;">
<path id="Plate-2_Legacy-Ankle_Left" d="M122.9,223.8l3.7,3.3l2.5,3.2l-4,1.3l-9.3-1.9l-3.4-4.5L122.9,223.8" style="fill: rgb(87, 87, 87);"/>
<path id="Plate-1_Legacy-Ankle_Left" d="M106.3,217.6c0,0,3.7,1.7,9.2,1.5c3.8-0.1,5.3-1.1,5.3-1.1l3.2,5.9 l-0.8,3.3l-13.4-1.1l-3.3-2.8L106.3,217.6" style="fill: rgb(80, 168, 254);"/>
<path id="Trauma-Plate-2_Legacy-Ankle_Left" class="toggle" style="display: none; fill: rgb(255, 255, 255);" d="M123.7,224.5l2.9,2.6l1.5,1.9l-3.1,1l-8.2-1.7l-1.3-1.8 l7.6,0.6L123.7,224.5"/>
<path id="Trauma-Plate-1_Legacy-Ankle_Left" class="toggle" style="display: none; fill: rgb(255, 255, 255);" d="M107.7,219.6l0.1,2.7l2.7,2.2l11.8,0.9l0.8-3.3l-1.5-2.8 c-1,0.3-4,1.2-6,1.2C112.4,220.7,109.4,220.1,107.7,219.6"/>
</g>
</g>
<g id="Left-Toe">
<g id="None_Toe_Left" class="option" style="display: inherit;">
</g>
</g>
<g id="Right-Ankle">
<g id="Legacy_Ankle_Right" class="option" style="display: inherit;">
<path id="Plate-2_Legacy-Ankle_Right" d="M46.1,223.8l-3.7,3.3l-2.5,3.2l4,1.3l9.3-1.9l3.4-4.5L46.1,223.8" style="fill: rgb(87, 87, 87);"/>
<path id="Plate-1_Legacy-Ankle_Right" d="M62.8,217.6c0,0-3.7,1.7-9.2,1.5c-3.8-0.1-5.3-1.1-5.3-1.1l-3.2,5.9 l0.8,3.3l13.4-1.1l3.3-2.8L62.8,217.6" style="fill: rgb(80, 168, 254);"/>
<path id="Trauma-Plate-2_Legacy-Ankle_Right" class="toggle" style="display: none; fill: rgb(255, 255, 255);" d="M45.3,224.5l-2.9,2.6L41,229l3.1,1l8.2-1.7l1.3-1.8 l-7.6,0.6L45.3,224.5"/>
<path id="Trauma-Plate-1_Legacy-Ankle_Right" class="toggle" style="display: none; fill: rgb(255, 255, 255);" d="M61.4,219.6l-0.1,2.7l-2.7,2.2l-11.8,0.9l-0.8-3.3 l1.5-2.8c1,0.3,4,1.2,6,1.2C56.7,220.7,59.6,220.1,61.4,219.6"/>
</g>
</g>
<g id="Right-Toe">
<g id="None_Toe_Right" class="option" style="display: inherit;">
</g>
</g>
</g>
<g id="Knees">
<g id="Left-Knee">
<g id="Heavy_Knee_Left" class="option" style="display: inherit;">
<g id="Missiles_Heavy-Knee_Left" class="toggle" style="">
<path id="Base_Missiles_Heavy-Knee_Left" d="M118.6,161.8l1.8,9.7l2.1-1.7c0.3-0.3,0.5-0.7,0.4-1.2 c-0.2-1.3-0.7-4.2-0.9-5.7c-0.1-0.6-0.6-1-1.2-1L118.6,161.8z" style="fill: rgb(87, 87, 87);"/>
<g id="Missile-2_Missiles_Heavy-Knee_Left" style="fill: rgb(231, 142, 0);">
<path d="M121,167.1c-0.6,0.1-0.9,0.7-0.7,1.3s0.7,0.9,1.3,0.7c0.6-0.1,0.9-0.7,0.7-1.3S121.5,167,121,167.1z"/>
<path d="M121.1,167.5c-0.4,0.1-0.6,0.5-0.5,0.9c0.1,0.4,0.5,0.6,0.9,0.5c0.4-0.1,0.6-0.5,0.5-0.9 C121.8,167.6,121.5,167.4,121.1,167.5z"/>
</g>
<g id="Missile-1_Missiles_Heavy-Knee_Left" style="fill: rgb(231, 142, 0);">
<path d="M120.2,162.6c-0.6,0.1-0.9,0.7-0.7,1.3c0.2,0.6,0.7,0.9,1.3,0.7c0.6-0.1,0.9-0.7,0.7-1.3 C121.3,162.8,120.8,162.5,120.2,162.6z"/>
<path d="M120.3,163c-0.4,0.1-0.6,0.5-0.5,0.9c0.1,0.4,0.5,0.6,0.9,0.5c0.4-0.1,0.6-0.5,0.5-0.9 C121.1,163.1,120.7,162.9,120.3,163z"/>
</g>
</g>
<path id="Plate-2_Heavy-Knee_Left" d="M116.7,157.3l-2.9-1.7l-14.4,2.5l-2.1,2.6l2.8,14.4l5.7,0.1l8.1-1.4l5.6-2 L116.7,157.3z" style="fill: rgb(80, 168, 254);"/>
<g id="Plate-1_Heavy-Knee_Left" style="fill: rgb(87, 87, 87);">
<path d="M116,158.1l-2.7-1.7l-13.2,2.3l-1.9,2.5l2.7,13.9l4.8,0.1l8.1-1.4l4.8-1.8L116,158.1z"/>
<path d="M111.4,160.1l-8.1,1.4l2.5,13.8l4.2-0.2l3.9-1.2L111.4,160.1z"/>
<path d="M103.3,161.5l-3.1-2.8l-1.9,2.5L103.3,161.5z"/>
<path d="M111.4,160.1l2-3.6l2.7,1.7L111.4,160.1z"/>
</g>
<g id="Trim_Heavy-Knee_Left" style="fill: rgb(231, 142, 0);">
<path d="M97.4,165.6l-0.4,1.1l1.6,8.7l0.6-0.1L97.4,165.6z"/>
<path d="M112.3,169.8l-6.4,1.1l0.6,3.4l6.4-1.1L112.3,169.8z"/>
<path d="M98,164.1l-0.9,0.2l2,11.1l1-0.2l0,0l0,0L98,164.1z"/>
<path d="M117.6,161.8l2,10.1l-0.2,0.1l1-0.2l-1.9-10.1L117.6,161.8z"/>
</g>
</g>
</g>
<g id="Right-Knee">
<g id="Heavy_Knee_Right" class="option" style="display: inherit;">
<g id="Missiles_Heavy-Knee_Right" class="toggle" style="">
<path id="Base_Missiles_Heavy-Knee_Right" d="M50.4,161.8l-1.8,9.7l-2.1-1.7c-0.3-0.3-0.5-0.7-0.4-1.2 c0.2-1.3,0.7-4.2,0.9-5.7c0.1-0.6,0.6-1,1.2-1L50.4,161.8z" style="fill: rgb(87, 87, 87);"/>
<g id="Missile-2_Missiles_Heavy-Knee_Right" style="fill: rgb(231, 142, 0);">
<path d="M48,167.1c0.6,0.1,0.9,0.7,0.7,1.3s-0.7,0.9-1.3,0.7c-0.6-0.1-0.9-0.7-0.7-1.3S47.5,167,48,167.1z"/>
<path d="M47.9,167.5c0.4,0.1,0.6,0.5,0.5,0.9c-0.1,0.4-0.5,0.6-0.9,0.5c-0.4-0.1-0.6-0.5-0.5-0.9 C47.2,167.6,47.5,167.4,47.9,167.5z"/>
</g>
<g id="Missile-1_Missiles_Heavy-Knee_Right" style="fill: rgb(231, 142, 0);">
<path d="M48.8,162.6c0.6,0.1,0.9,0.7,0.7,1.3c-0.2,0.6-0.7,0.9-1.3,0.7c-0.6-0.1-0.9-0.7-0.7-1.3 C47.7,162.8,48.2,162.5,48.8,162.6z"/>
<path d="M48.7,163c0.4,0.1,0.6,0.5,0.5,0.9c-0.1,0.4-0.5,0.6-0.9,0.5c-0.4-0.1-0.6-0.5-0.5-0.9 C47.9,163.1,48.3,162.9,48.7,163z"/>
</g>
</g>
<path id="Plate-2_Heavy-Knee_Right" d="M52.3,157.3l2.9-1.7l14.4,2.5l2.1,2.6l-2.8,14.4l-5.7,0.1l-8.1-1.4l-5.6-2 L52.3,157.3z" style="fill: rgb(80, 168, 254);"/>
<g id="Plate-1_Heavy-Knee_Right" style="fill: rgb(87, 87, 87);">
<path d="M53,158.1l2.7-1.7l13.2,2.3l1.9,2.5L68,175.1l-4.8,0.1l-8.1-1.4l-4.8-1.8L53,158.1z"/>
<path d="M57.6,160.1l8.1,1.4l-2.5,13.8l-4.2-0.2l-3.9-1.2L57.6,160.1z"/>
<path d="M65.7,161.5l3.1-2.8l1.9,2.5L65.7,161.5z"/>
<path d="M57.6,160.1l-2-3.6l-2.7,1.7L57.6,160.1z"/>
</g>
<g id="Trim_Heavy-Knee_Right" style="fill: rgb(231, 142, 0);">
<path d="M71.6,165.6l0.4,1.1l-1.6,8.7l-0.6-0.1L71.6,165.6z"/>
<path d="M56.7,169.8l6.4,1.1l-0.6,3.4l-6.4-1.1L56.7,169.8z"/>
<path d="M71,164.1l0.9,0.2l-2,11.1l-1-0.2l0,0l0,0L71,164.1z"/>
<path d="M51.4,161.8l-2,10.1l0.2,0.1l-1-0.2l1.9-10.1L51.4,161.8z"/>
</g>
</g>
</g>
</g>
<g id="Thighs">
<g id="Left-Thigh">
<g id="Legacy_Thigh_Left" class="option" style="display: inherit;">
<path id="Plate-3_Legacy-Thigh_Left" d="M95.6,142.1l1.8,10.8l10.4,1.6l8.4-3.7l0.4-11l-9.6,4.5L95.6,142.1" style="fill: rgb(80, 168, 254);"/>
<path id="Plate-2_Legacy-Thigh_Left" d="M93.2,131.7L95,142l12.1,2.3l10.1-4.8l0.5-12.5l-11.5,7.3L93.2,131.7" style="fill: rgb(87, 87, 87);"/>
<path id="Plate-1_Legacy-Thigh_Left" d="M118.8,116.8l-8.9-7.8L98,111l-6.8,11.3l1.7,9.4l13.4,2.7l12-7.7 L118.8,116.8" style="fill: rgb(87, 87, 87);"/>
<path id="Trauma-Plate-3_Legacy-Thigh_Left" class="toggle" style="display: none; fill: rgb(255, 255, 255);" d="M114.7,143.2l-6.8,3.2c-0.3,0.2-0.7,0.2-1,0.1l-8.8-1.7 l1,6.1l8.6,1.3l6.8-3L114.7,143.2"/>
<path id="Trauma-Plate-2_Legacy-Thigh_Left" class="toggle" style="display: none; fill: rgb(255, 255, 255);" d="M115.7,130.9l-8.5,5.4c-0.4,0.2-0.8,0.3-1.2,0.2 l-10.3-2.1l1,5.6l10.2,2l8.5-4L115.7,130.9"/>
<path id="Trauma-Plate-1_Legacy-Thigh_Left" class="toggle" style="display: none; fill: rgb(255, 255, 255);" d="M99.1,113.1l-5.9,9.7l1.3,6.9l11.5,2.3l10.5-6.7l0.4-7.5 l-7.5-6.5L99.1,113.1"/>
<g id="Ridge_Legacy-Thigh_Left" class="toggle" style="display: none; fill: rgb(255, 255, 255);"/>
</g>
</g>
<g id="Right-Thigh">
<g id="Legacy_Thigh_Right" class="option" style="display: inherit;">
<path id="Plate-3_Legacy-Thigh_Right" d="M73.4,142.1l-1.8,10.8l-10.4,1.6l-8.4-3.7l-0.4-11l9.6,4.5L73.4,142.1" style="fill: rgb(80, 168, 254);"/>
<path id="Plate-2_Legacy-Thigh_Right" d="M75.8,131.7L74,142l-12.1,2.3l-10.1-4.8l-0.5-12.5l11.5,7.3L75.8,131.7" style="fill: rgb(87, 87, 87);"/>
<path id="Plate-1_Legacy-Thigh_Right" d="M50.2,116.8l8.9-7.8l11.9,2l6.8,11.3l-1.7,9.4l-13.4,2.7l-12-7.7 L50.2,116.8" style="fill: rgb(87, 87, 87);"/>
<path id="Trauma-Plate-3_Legacy-Thigh_Right" class="toggle" style="display: none; fill: rgb(255, 255, 255);" d="M54.3,143.2l6.8,3.2c0.3,0.2,0.7,0.2,1,0.1l8.8-1.7 l-1,6.1l-8.6,1.3l-6.8-3L54.3,143.2"/>
<path id="Trauma-Plate-2_Legacy-Thigh_Right" class="toggle" style="display: none; fill: rgb(255, 255, 255);" d="M53.3,130.9l8.5,5.4c0.4,0.2,0.8,0.3,1.2,0.2l10.3-2.1 l-1,5.6l-10.2,2l-8.5-4L53.3,130.9"/>
<path id="Trauma-Plate-1_Legacy-Thigh_Right" class="toggle" style="display: none; fill: rgb(255, 255, 255);" d="M69.9,113.1l5.9,9.7l-1.3,6.9L63.1,132l-10.5-6.7 l-0.4-7.5l7.5-6.5L69.9,113.1"/>
<g id="Ridge_Legacy-Thigh_Right" class="toggle" style="display: none; fill: rgb(255, 255, 255);"/>
</g>
</g>
</g>
<g id="Groin">
<g id="Basic_Groin" class="option" style="display: inherit;">
<path id="Groin-Plate_Groin" d="M78.2,107.5L67.7,86.2h33.8l-10.6,21.2c0,0-4.2,5.1-6.3,5.1 C82.5,112.5,78.2,107.5,78.2,107.5z" style="fill: rgb(231, 142, 0);"/>
<path id="Trauma-Plating_Groin" class="toggle" style="fill: rgb(87, 87, 87);" d="M89.8,106.7l9.5-19.2H69.8l9.5,19.2c0.4,0.5,2.1,2.4,3.7,3.6 c0.6,0.4,1.1,0.8,1.5,0.8c0.4,0,0.9-0.4,1.5-0.8C87.7,109.2,89.4,107.2,89.8,106.7"/>
</g>
</g>
<g id="Waist">
<g id="Accessories_Waist">
<g id="Kama" class="toggle" style="">
<g id="Clean_Kama" class="option" style="display: inherit;">
<g id="Trim_Kama-Clean" style="fill: rgb(80, 168, 254);">
<path d="M97.7,87.6l7.6,57.8l30.7,13.2l-27.7-66.3l-0.9-8.1L97.7,87.6z"/>
<path d="M71.3,87.6l-7.6,57.8l-30.7,13.2l27.7-66.3l0.9-8.1L71.3,87.6z"/>
</g>
<g id="Main_Kama-Clean" style="fill: rgb(87, 87, 87);">
<path d="M99.6,87.4l7.3,55.9l27.7,12.3l-26.5-63.2l-0.9-7.9L99.6,87.4z"/>
<path d="M69.5,87.4l-7.3,55.9l-27.7,12.3l26.5-63.2l0.9-8.1L69.5,87.4z"/>
</g>
</g>
</g>
<g id="Loin-Cloth" class="toggle" style="display:none"/>
<g id="Left-Holster" class="toggle" style="display:none"/>
<g id="Right-Holster" class="toggle" style="display:none"/>
</g>
<g id="Under-Belt">
<g id="Girth-Belt" class="option" style="fill: rgb(42, 42, 42); display: inherit;">
<path d="M84.5,80.1c-7.2,0-21.5-1.8-21.5-1.8l0.5-1.5c0,0,14,1.2,21,1.8c7-0.6,21-1.8,21-1.8l0.5,1.5 C106,78.3,91.7,80.1,84.5,80.1z"/>
<path d="M84.5,81.6c-7.3,0-22-1.8-22-1.8l0.4-1.5c0,0,17.9,1.5,21.5,1.8c3.6-0.3,21.5-1.8,21.5-1.8l0.4,1.5 C106.5,79.8,91.9,81.6,84.5,81.6z"/>
<path d="M84.5,83.2c-7.4,0-22.3-1.8-22.3-1.8l0.3-1.5c0,0,18.3,1.5,22,1.8c3.7-0.3,22-1.8,22-1.8l0.3,1.5 C106.8,81.4,92,83.2,84.5,83.2z"/>
<path d="M84.5,84.7C77,84.7,62,82.9,62,82.9l0.3-1.5c0,0,18.6,1.5,22.3,1.8c3.7-0.3,22.3-1.8,22.3-1.8l0.3,1.5 C107.1,82.9,92.1,84.7,84.5,84.7z"/>
<path d="M84.5,86.3c-7.6,0-22.8-1.8-22.8-1.8l0.3-1.5c0,0,18.8,1.5,22.6,1.8c3.8-0.3,22.6-1.8,22.6-1.8l0.3,1.5 C107.4,84.4,92.1,86.3,84.5,86.3z"/>
<path d="M84.5,87.8c-7.7,0-23.1-1.8-23.1-1.8l0.2-1.5c0,0,19,1.5,22.8,1.8c3.8-0.3,22.8-1.8,22.8-1.8l0.2,1.5 C107.6,86,92.2,87.8,84.5,87.8z"/>
<path d="M84.5,89.4c-7.8,0-23.3-1.8-23.3-1.8l0.2-1.5c0,0,19.2,1.5,23.1,1.8c3.8-0.3,23.1-1.8,23.1-1.8l0.2,1.5 C107.8,87.5,92.3,89.4,84.5,89.4z"/>
<path d="M84.5,90.9c-7.8,0-23.5-1.8-23.5-1.8l0.2-1.5c0,0,19.4,1.5,23.3,1.8c3.9-0.3,23.3-1.8,23.3-1.8l0.2,1.5 C108.1,89.1,92.4,90.9,84.5,90.9z"/>
<path d="M84.5,92.5c-7.9,0-23.8-1.8-23.8-1.8l0.3-1.5c0,0,19.6,1.5,23.5,1.8c3.9-0.3,23.5-1.8,23.5-1.8l0.3,1.5 C108.3,90.6,92.5,92.5,84.5,92.5z"/>
<path d="M84.5,94c-8,0-24.1-1.8-24.1-1.8l0.3-1.5c0,0,19.8,1.5,23.8,1.8c4-0.3,23.8-1.8,23.8-1.8l0.3,1.5 C108.6,92.2,92.6,94,84.5,94z"/>
</g>
</g>
<g id="Belt">
<g id="Pouch-Belt-2" class="option" style="display: inherit;">
<path id="Main_Pouch-Belt-2" d="M108.2,87.6c-5.3,0.5-17.5,2.2-23.6,2.2c-6.2,0-18.4-1.8-23.6-2.2l0.8-6.2 c4.3,0.4,16.8,2.2,22.8,2.2c5.8,0,18.1-1.8,22.7-2.2L108.2,87.6z" style="fill: rgb(46, 33, 25);"/>
<rect id="Buckle_Pouch-Belt-2" x="80.2" y="82.9" width="8.8" height="7.2" style="fill: rgb(163, 163, 163);"/>
<g id="Pouches_Pouch-Belt-2" style="fill: rgb(40, 33, 33);">
<g>
<path d="M59,80.8l0.4-0.7l2.2,0.1l0.3,0.8L59,80.8z"/>
<path d="M61.9,81.1c0-0.1,0-0.1,0-0.2c0,0-0.1-0.1-0.1-0.1c-0.7,0-2.7-0.1-2.7-0.1l-0.4,8.8 c0.1,0.3,1.7,0.4,2.6,0.4c0.1,0,0.2-0.1,0.2-0.2C61.5,86.8,61.6,84,61.9,81.1z"/>
</g>
<g>
<path d="M110.1,80.8l-0.4-0.7l-2.2,0.1l-0.3,0.8L110.1,80.8z"/>
<path d="M107.2,81.1c0-0.1,0-0.1,0-0.2c0,0,0.1-0.1,0.1-0.1c0.7,0,2.7-0.1,2.7-0.1l0.4,8.8 c-0.1,0.3-1.7,0.4-2.6,0.4c-0.1,0-0.2-0.1-0.2-0.2C107.7,86.8,107.6,84,107.2,81.1z"/>
</g>
</g>
</g>
</g>
</g>
<g id="Extras_Front">
<g id="Front">
<g id="None_Front" class="option" style="display: inherit;">
</g>
</g>
</g>
</svg></svg>