<?xml version='1.0' encoding='UTF-8'?>
<svg version="1.1" id="Female-Body" xmlns="http://www.w3.org/2000/svg" xmlns:serif="http://www.serif.com/" viewBox="0 -55 170 300" style="fill-rule: evenodd; stroke-width: 0.2px; stroke-linejoin: round;" width="170" height="300">
<style>
mask {
mask-type: alpha;
}
.decal {
stroke: none;
}
</style>
<defs id="Masks" stroke="none">
<mask id="HelmetsMask"> <use href="#Helmets"/> </mask>
<mask id="CollarMask"> <use href="#Collar"/> </mask>
<mask id="ShouldersMask"> <use href="#Shoulders"/> </mask>
<mask id="ChestMask"> <use href="#Chest"/> </mask>
<mask id="BicepsMask"> <use href="#Biceps"/> </mask>
<mask id="GauntletsMask"> <use href="#Gauntlets"/> </mask>
<mask id="WaistMask"> <use href="#Waist"/> </mask>
<mask id="GroinMask"> <use href="#Groin"/> </mask>
<mask id="ThighsMask"> <use href="#Thighs"/> </mask>
<mask id="KneesMask"> <use href="#Knees"/> </mask>
<mask id="ShinsMask"> <use href="#Shins"/> </mask>
<mask id="FootMask"> <use href="#Foot"/> </mask>
</defs>
<defs id="Decals"/><metadata><rdf:rdf xmlns:rdf="http://www.w3.org/1999/02/22-rdf-syntax-ns#" xmlns:rdfs="http://www.w3.org/2000/01/rdf-schema#" xmlns:dc="http://purl.org/dc/elements/1.1/"><rdf:description><dc:creator>MandoCreator</dc:creator><dc:publisher>https://www.mandocreator.com</dc:publisher><dc:description>Your Beskar'gam - created by MandoCreator</dc:description><dc:format>image/svg+xml</dc:format><dc:type>Image</dc:type><dc:title>MandoCreator - Ner Berskar'gam</dc:title><dc:date>2022-01-02T16:24:13.827Z</dc:date></rdf:description></rdf:rdf></metadata><g id="Main-Body" fill="white" stroke="black">
<g id="Extras_Back">
<g id="Back"><path id="Torn-Full-Cape_Back" class="option" d="M67.82,13.09c-12.2,4.58-25.78,26.64-27.46,43.43 c-1.06,10.59-6.25,21.35-5.77,31.89c0.49,10.69-4.93,21.78-5.33,32.46c-0.36,9.62-3.22,14.02-4.87,23.54 c-2.48,14.24-5.22,23.63-7.45,37.88c-1.77,11.33-7.12,20.69-9.63,24.23c-0.09,0.13,2.56-1.22,5.84-1.28 c0.96-0.02,5.74-6.99,5.74-6.99s5.95,4.92,7.17,7.7c1.6-1.02,2.83-15.76,4.66-16.34c0.97-0.3,2.72,18.52,2.72,18.52 s2.86-5.57,3.96-5.59c2.35-0.04,6.65,2.09,9.06,2.35c2.56,0.27,5.19-3.94,8-3.26c4.31,1.05,8.58,0.97,12.87,1.52 c3.03,0.39,6.06,6.26,9.11,6.25c3.76-0.01,3.23-8.76,7.06-9.6c3.29-0.72,7.77,7.08,7.77,7.08s1.03-25.9,4.28-26.96 c4.25-1.39,20.24,19.49,24.69,19.08c1.31-0.12,3-13.21,4.3-13.18c2.82,0.06,5.22,13.48,8,14.01c3.49,0.66,5.18-5.84,8.61-4.99 c0.97,0.24,3.71,7.88,4.67,8.1c2.12,0.49,5.07,1.75,7.26,1.61c0.06,0-0.7-5.08-0.81-5.62c-0.49-2.43-1.28-4.81-2.26-7.11 c-1.17-2.74-2.62-5.38-4.2-7.86c-7.37-11.59-4.83-24.32-6.18-38.02c-1.31-13.29,0.06-26.6-2.19-39.86 c-1.99-11.73-8.97-22.64-10.72-34.48c-2.05-13.89-6.82-28.76-11.03-42.25C110.54,12.8,80.02,8.51,67.82,13.09z M71.28,189.33 c-0.98,2.52-1.37,5.14-1.09,7.83c0.12,1.22,0.48,2.48,1.09,3.55c0.06,0.1,0.09,0.39,0.18,0.31 C76.04,196.96,71.28,189.33,71.28,189.33z M35.42,164.2c-0.42,8.04-1.18,16.11-1.18,24.15c0,1.51,0.02,3.01,0.16,4.51 c0.02,0.24,0.25,2.44,0.38,2.42c2.75-0.55,1.41-8,2.06-10.31C39.08,176.95,35.42,164.2,35.42,164.2z M131.24,192.06 c-0.24,2.91,0.64,2.59,1.39,1.13c0.75-1.46,1.37-4.05,0.58-5.69L131.24,192.06z M119.28,166.74c-0.68,4.82,0.37,8.92,0.72,13.67 c0.12,1.54,0.12,3.1,0.14,4.65c0.01,0.52,0.03,1.04,0.02,1.56c0,0.26-0.19,0.99-0.01,0.8c3.65-3.79,3.24-11.1,2.1-15.79 L119.28,166.74z M75.59,180.96c-0.04,1.24-0.01,2.52,0.15,3.75c0.33,2.48,1.74-1.42,1.76-2.4c0.03-1.37-0.89-2.96-1.22-4.28 L75.59,180.96z" fill="rgb(14, 17, 14)" style="display: inherit;"/></g>
</g>
<g id="Extras-BackDecals" mask="url(#BackMask)">
</g>
<g id="Suit">
<g id="Neck-Seal"><g id="Standard-Neck-Seal" class="option" fill="rgb(15, 19, 14)" style="display: inherit;">
<path d="M95.96,3.46c0-0.93-0.74-1.69-1.65-1.69c0,0-6.22,0.89-9.33,0.89c-3.11,0-9.33-0.89-9.33-0.89 c-0.91,0-1.65,0.76-1.65,1.69c0,0.93,0.74,1.69,1.65,1.69c0,0,6.22,0.89,9.33,0.89c3.11,0,9.33-0.89,9.33-0.89 C95.22,5.15,95.96,4.39,95.96,3.46z"/>
<path d="M96.51,5.43c0-0.98-0.78-1.77-1.73-1.77c0,0-6.53,0.93-9.8,0.93s-9.8-0.93-9.8-0.93 c-0.96,0-1.73,0.79-1.73,1.77c0,0.98,0.78,1.77,1.73,1.77c0,0,6.53,0.93,9.8,0.93s9.8-0.93,9.8-0.93 C95.74,7.21,96.51,6.41,96.51,5.43z"/>
<path d="M97.14,7.88c0-1.03-0.82-1.87-1.83-1.87c0,0-6.89,0.98-10.33,0.98c-3.44,0-10.33-0.98-10.33-0.98 c-1.01,0-1.83,0.84-1.83,1.87s0.82,1.87,1.83,1.87c0,0,6.89,0.98,10.33,0.98c3.44,0,10.33-0.98,10.33-0.98 C96.32,9.75,97.14,8.91,97.14,7.88z"/>
<path d="M97.75,10.13c0-1.08-0.86-1.96-1.92-1.96c0,0-7.23,1.03-10.85,1.03c-3.62,0-10.85-1.03-10.85-1.03 c-1.06,0-1.92,0.88-1.92,1.96c0,1.08,0.86,1.96,1.92,1.96c0,0,7.23,1.03,10.85,1.03c3.62,0,10.85-1.03,10.85-1.03 C96.89,12.09,97.75,11.21,97.75,10.13z"/>
<path d="M98.36,12.33c0-0.82-0.9-1.48-2.01-1.48c0,0-7.58,0.78-11.36,0.78s-11.36-0.78-11.36-0.78 c-1.11,0-2.01,0.66-2.01,1.48c0,0.82,0.9,1.48,2.01,1.48c0,0,7.58,0.78,11.36,0.78s11.36-0.78,11.36-0.78 C97.46,13.81,98.36,13.14,98.36,12.33z"/>
<path d="M98.36,14.8c0-0.82-0.9-1.48-2.01-1.48c0,0-7.58,0.78-11.36,0.78s-11.36-0.78-11.36-0.78 c-1.11,0-2.01,0.66-2.01,1.48c0,0.82,0.9,1.48,2.01,1.48c0,0,7.58,1.5,11.36,1.5s11.36-1.5,11.36-1.5 C97.46,16.28,98.36,15.62,98.36,14.8z"/>
</g>
</g>
<g id="Flight-Suit" fill="rgb(11, 16, 11)">
<path d="M38.1,60.17l5.2-18.8l12.15-8.13l1.9,16.49c0,0-5.25,9.95-7.06,14.51c-1.86,4.7-5.09,15.42-5.5,16.81 l-2.88,24.91l-8.36-2.66c0,0-0.3-17.29,0.46-24.47C34.68,72.42,38.1,60.17,38.1,60.17z"/>
<path d="M131.9,60.17l-5.22-18.86l-12.06-8.07l-1.92,16.59c0,0,5.2,9.85,7.01,14.41c1.86,4.7,5.09,15.42,5.5,16.81 l2.88,24.91l8.36-2.66c0,0,0.3-17.29-0.46-24.47C135.32,72.42,131.9,60.17,131.9,60.17z"/>
<path d="M84.99,113.44c-1.03,0.1-1.95,0.5-2.29,1.22c-3,6.3-9.17,35.13-10.95,40.44c-0.97,2.89-1.74,18.7-3.38,27.92 c-1.96,11.01-8.39,38.11-8.39,38.11l-11.15-1.15c0,0-1.44-27.22-1.04-37.12c0.3-7.53,3.42-22.31,3.42-22.31s0.67-5.4,0.69-8.12 c0.06-9.82,0.93-31.66,2.88-44.2C56.3,98.31,65.7,77.5,65.7,77.5s12.18,4.76,19.34,4.76c7.16,0,19.44-4.86,19.44-4.86 s8.88,20.92,10.42,30.83c1.95,12.54,3.24,34.38,3.3,44.2c0.02,2.72,0.69,8.12,0.69,8.12s3.12,14.79,3.42,22.31 c0.4,9.91-1.04,37.12-1.04,37.12l-11.15,1.15c0,0-6.43-27.1-8.39-38.11c-1.64-9.22-2.41-25.03-3.38-27.92 c-1.78-5.31-7.96-34.13-10.95-40.44c-0.35-0.73-1.3-1.14-2.34-1.23L84.99,113.44z"/>
</g>
<g id="Sleeves" class="toggle" fill="rgb(17, 23, 17)">
<path d="M41.92,41.42l0.81,0.34l12.73-8.52c0,0,0.36,8.98,1.42,14.37c0.15,0.75,0.37,1.69,0.64,2.79l-1.69,5.45 c0,0-5.75-2.25-8.27-3.72C45.11,50.7,40.7,47,40.7,47L41.92,41.42z"/>
<path d="M112.55,50.4c0.28-1.1,0.5-2.04,0.64-2.79c1.06-5.39,1.42-14.37,1.42-14.37l12.73,8.52l0.81-0.34l1.22,5.58 c0,0-4.4,3.7-6.85,5.13c-2.52,1.48-8.28,3.72-8.28,3.72L112.55,50.4z"/>
</g>
</g>
<g id="Boots"><g id="Basic_Boots" class="option" style="display: inherit;">
<g id="Main_Basic-Boot" fill="rgb(20, 25, 19)">
<path d="M60.73,217.89c-0.18-0.07-2.31,1.28-3.52,1.48c-1.29,0.22-2.7,0.2-4.07,0.06l-0.56-0.06l-0.02,0l-0.07-0.01 l-0.18-0.02l-0.28-0.04l-0.12-0.02c-0.32-0.04-0.64-0.09-0.95-0.14l-0.49-0.1l-0.1-0.03l-0.04-0.01l-0.08-0.02l-0.34-0.08 l-0.3-0.08l-0.05-0.01c-1.05-0.28-0.85-0.78-0.85-0.78c0,1.45-1.51,5.98-5.27,9.68c-1.14,1.13-3.92,2.45-6.33,3.5 c-2.21,0.97-4.87,1.2-6.15,3.78c-0.28,0.56-0.52,1.24-0.47,1.88c0.06,0.82,0.95,0.93,1.65,1.13c1.73,0.49,3.22,0.86,5.22,1.31 c2.28,0.51,4.34,0.82,6.65,0.76c1.73-0.05,3.2-0.12,4.72-1.03c0.61-0.37,1.24-0.74,1.77-1.22c1.19-1.08,1.96-2.21,3.48-2.85 c1.1-0.47,2.24-0.85,3.41-1.13c1.65-0.39,4.06-0.94,4.95-2.57c0.34-1.22-1.15-3.83-1.26-5.59 C60.99,224.26,60.85,217.94,60.73,217.89z"/>
<path d="M109.34,217.89c0.18-0.07,2.31,1.28,3.52,1.48c1.29,0.22,2.7,0.2,4.07,0.06l0.55-0.06l0.02,0l0.07-0.01 l0.18-0.02l0.28-0.04l0.12-0.02c0.32-0.04,0.64-0.09,0.95-0.14l0.49-0.1l0.1-0.03l0.04-0.01l0.08-0.02l0.34-0.08l0.3-0.08 l0.05-0.01c1.05-0.28,0.85-0.78,0.85-0.78c0,1.45,1.51,5.98,5.27,9.68c1.14,1.13,3.92,2.45,6.33,3.5 c2.21,0.97,4.87,1.2,6.15,3.78c0.28,0.56,0.52,1.24,0.47,1.88c-0.06,0.82-0.95,0.93-1.65,1.13c-1.73,0.49-3.22,0.86-5.21,1.31 c-2.28,0.51-4.34,0.82-6.65,0.76c-1.73-0.05-3.2-0.12-4.72-1.03c-0.61-0.37-1.24-0.74-1.77-1.22c-1.19-1.08-1.96-2.21-3.48-2.85 c-1.11-0.47-2.24-0.85-3.41-1.13c-1.65-0.39-4.07-0.94-4.95-2.57c-0.34-1.22,1.15-3.83,1.26-5.59 C109.07,224.26,109.21,217.94,109.34,217.89z"/>
</g>
<g id="Bottom_Basic-Boot" fill="rgb(25, 30, 23)">
<path d="M62.34,231.27c-0.44,0.81-1.26,1.35-2.18,1.74c-0.84,0.42-1.82,0.6-2.77,0.82 c-0.13,0.03-0.26,0.06-0.38,0.09c-0.19,0.05-0.38,0.1-0.56,0.15c-0.06,0.02-0.11,0.03-0.17,0.05l-0.1,0.03 c-0.06,0.02-0.12,0.04-0.18,0.06c-0.03,0.01-0.05,0.02-0.08,0.02c-0.1,0.03-0.2,0.07-0.31,0.1c-0.04,0.01-0.07,0.02-0.11,0.04 l-0.05,0.02c-0.16,0.05-0.31,0.11-0.47,0.17c-0.03,0.01-0.07,0.03-0.1,0.04c-0.14,0.05-0.28,0.11-0.42,0.16l-0.11,0.04 c-0.08,0.03-0.17,0.07-0.25,0.1c-0.04,0.01-0.07,0.03-0.11,0.05c-0.25,0.11-0.48,0.22-0.7,0.35l-0.03,0.02 c-0.02,0.01-0.03,0.02-0.05,0.03c-0.07,0.04-0.13,0.08-0.2,0.13l-0.04,0.03c-0.01,0.01-0.03,0.02-0.04,0.03 c-0.06,0.05-0.13,0.09-0.19,0.14l-0.05,0.04l-0.08,0.07c-0.26,0.21-0.51,0.44-0.75,0.68l-0.07,0.07c-0.13,0.13-0.26,0.26-0.4,0.4 c-0.14,0.14-0.28,0.28-0.42,0.42c-0.14,0.14-0.29,0.29-0.45,0.43l-0.05,0.05c-0.05,0.04-0.1,0.08-0.14,0.12 c-0.01,0.01-0.02,0.01-0.03,0.02c-0.08,0.06-0.16,0.13-0.24,0.19c-0.05,0.04-0.11,0.08-0.16,0.12l-0.03,0.02 c-0.07,0.05-0.14,0.1-0.21,0.14c-0.03,0.02-0.06,0.04-0.09,0.06c-0.1,0.07-0.21,0.13-0.31,0.2c-0.07,0.04-0.14,0.09-0.22,0.13 l-0.09,0.05l-0.23,0.14l-0.11,0.06l-0.07,0.04l-0.07,0.04c-0.11,0.06-0.21,0.11-0.32,0.16c-0.05,0.02-0.1,0.05-0.15,0.07 l-0.05,0.02c-0.32,0.14-0.63,0.24-0.95,0.32l-0.06,0.01l-0.07,0.02c-0.02,0-0.05,0.01-0.07,0.02c-0.06,0.01-0.13,0.03-0.2,0.04 c-0.05,0.01-0.1,0.02-0.15,0.03l-0.12,0.02l-0.04,0.01c-0.03,0.01-0.07,0.01-0.1,0.02c-0.06,0.01-0.11,0.02-0.17,0.02 c-0.08,0.01-0.16,0.02-0.24,0.03c-0.02,0-0.04,0.01-0.06,0.01c-0.2,0.02-0.41,0.04-0.61,0.05c-0.11,0.01-0.23,0.01-0.34,0.02 l-0.1,0c-0.22,0.01-0.44,0.02-0.66,0.02c-0.14,0-0.29,0.01-0.43,0.01c-0.05,0-0.1,0-0.16,0c-0.07,0-0.15,0-0.22,0 c-0.05,0-0.11,0-0.16,0l-0.05,0c-0.26-0.01-0.52-0.01-0.78-0.03c-0.03,0-0.07,0-0.11-0.01l-0.1-0.01c-0.03,0-0.07,0-0.1-0.01 c-0.38-0.03-0.76-0.06-1.13-0.11l-0.1-0.01c-0.09-0.01-0.19-0.02-0.28-0.04c-0.04-0.01-0.08-0.01-0.12-0.02l-0.1-0.01 c-0.08-0.01-0.15-0.02-0.23-0.03c-0.33-0.05-0.66-0.11-0.99-0.17c-0.07-0.01-0.15-0.03-0.22-0.04l-0.1-0.02 c-0.03-0.01-0.07-0.01-0.1-0.02l-0.1-0.02c-0.03-0.01-0.07-0.01-0.1-0.02l-0.07-0.01c-0.08-0.02-0.16-0.03-0.24-0.05l-0.1-0.02 c-0.1-0.02-0.19-0.04-0.28-0.06c-0.08-0.02-0.16-0.04-0.25-0.05l-0.02-0.01c-0.52-0.12-1.01-0.23-1.48-0.34l-0.18-0.04 c-0.13-0.03-0.26-0.06-0.39-0.09l-0.16-0.04l-0.07-0.02c-0.18-0.04-0.37-0.09-0.55-0.14c-0.11-0.03-0.22-0.06-0.33-0.08 c-0.32-0.08-0.63-0.16-0.94-0.25l-0.14-0.04c-0.05-0.01-0.1-0.03-0.16-0.04l-0.06-0.02c-0.24-0.07-0.49-0.13-0.74-0.2l-0.06-0.02 L32,237.96l-0.26-0.07l-0.09-0.02l-0.13-0.04l-0.05-0.02l-0.11-0.04l-0.09-0.03l-0.04-0.02l-0.05-0.02l-0.02-0.01l-0.05-0.02 l-0.05-0.02l-0.02-0.01l-0.05-0.03l-0.06-0.03l-0.05-0.04l-0.05-0.04c-0.08-0.07-0.15-0.14-0.21-0.23l0,0c0,0-0.46,0.68-0.5,1.86 c1.04,1.49,4.31,1.99,8.84,2.59c4.5,0.6,7.28,0.48,9.16-0.32c1.88-0.81,5.18-4.63,7.54-4.83c2.36-0.2,5.15-1.45,6.3-2.12 c0.6-0.35,0.42-2.81,0.42-2.81L62.34,231.27z"/>
<path d="M107.72,231.27c0.44,0.81,1.26,1.35,2.18,1.74c0.84,0.42,1.82,0.6,2.77,0.82c0.13,0.03,0.25,0.06,0.38,0.09 c0.19,0.05,0.38,0.1,0.56,0.15c0.06,0.02,0.11,0.03,0.17,0.05l0.1,0.03c0.06,0.02,0.12,0.04,0.18,0.06 c0.03,0.01,0.05,0.02,0.08,0.02c0.1,0.03,0.2,0.07,0.31,0.1c0.04,0.01,0.07,0.02,0.11,0.04l0.05,0.02 c0.16,0.05,0.31,0.11,0.47,0.17c0.03,0.01,0.07,0.03,0.1,0.04c0.14,0.05,0.28,0.11,0.42,0.16l0.11,0.04 c0.08,0.03,0.17,0.07,0.25,0.1c0.04,0.01,0.07,0.03,0.11,0.05c0.25,0.11,0.48,0.22,0.69,0.35l0.03,0.02 c0.02,0.01,0.03,0.02,0.05,0.03c0.07,0.04,0.13,0.08,0.2,0.13l0.04,0.03c0.01,0.01,0.03,0.02,0.04,0.03 c0.06,0.05,0.13,0.09,0.19,0.14l0.05,0.04l0.08,0.07c0.26,0.21,0.51,0.44,0.75,0.68l0.07,0.07c0.13,0.13,0.26,0.26,0.39,0.4 c0.14,0.14,0.28,0.28,0.42,0.42c0.15,0.14,0.29,0.29,0.45,0.43l0.05,0.05c0.05,0.04,0.1,0.08,0.15,0.12 c0.01,0.01,0.02,0.01,0.03,0.02c0.08,0.06,0.16,0.13,0.24,0.19c0.05,0.04,0.11,0.08,0.16,0.12l0.03,0.02 c0.07,0.05,0.14,0.1,0.21,0.14c0.03,0.02,0.06,0.04,0.09,0.06c0.1,0.07,0.2,0.13,0.31,0.2c0.07,0.04,0.14,0.09,0.21,0.13 l0.09,0.05l0.23,0.14l0.11,0.06l0.07,0.04l0.07,0.04c0.11,0.06,0.21,0.11,0.32,0.16c0.05,0.02,0.1,0.05,0.15,0.07l0.05,0.02 c0.32,0.14,0.63,0.24,0.95,0.32l0.06,0.01l0.07,0.02c0.02,0,0.05,0.01,0.07,0.02c0.07,0.01,0.13,0.03,0.2,0.04 c0.05,0.01,0.1,0.02,0.15,0.03l0.12,0.02l0.04,0.01c0.03,0.01,0.07,0.01,0.1,0.02c0.06,0.01,0.11,0.02,0.17,0.02 c0.08,0.01,0.16,0.02,0.24,0.03c0.02,0,0.04,0.01,0.06,0.01c0.2,0.02,0.41,0.04,0.61,0.05c0.11,0.01,0.23,0.01,0.34,0.02l0.1,0 c0.22,0.01,0.44,0.02,0.66,0.02c0.14,0,0.29,0.01,0.43,0.01c0.05,0,0.1,0,0.16,0c0.07,0,0.15,0,0.22,0c0.05,0,0.11,0,0.16,0 l0.05,0c0.26-0.01,0.52-0.01,0.78-0.03c0.04,0,0.07,0,0.11-0.01l0.1-0.01c0.03,0,0.07,0,0.1-0.01c0.38-0.03,0.76-0.06,1.13-0.11 l0.1-0.01c0.09-0.01,0.19-0.02,0.28-0.04c0.04-0.01,0.08-0.01,0.12-0.02l0.1-0.01c0.08-0.01,0.15-0.02,0.23-0.03 c0.33-0.05,0.66-0.11,0.99-0.17c0.07-0.01,0.15-0.03,0.22-0.04l0.1-0.02c0.03-0.01,0.07-0.01,0.1-0.02l0.1-0.02 c0.03-0.01,0.07-0.01,0.1-0.02l0.07-0.01c0.08-0.02,0.16-0.03,0.24-0.05l0.1-0.02c0.09-0.02,0.19-0.04,0.28-0.06 c0.08-0.02,0.16-0.04,0.25-0.05l0.02-0.01c0.52-0.12,1.01-0.23,1.48-0.34l0.18-0.04c0.13-0.03,0.26-0.06,0.39-0.09l0.16-0.04 l0.07-0.02c0.19-0.04,0.37-0.09,0.55-0.14c0.11-0.03,0.22-0.06,0.32-0.08c0.31-0.08,0.63-0.16,0.94-0.25l0.14-0.04 c0.05-0.01,0.1-0.03,0.16-0.04l0.06-0.02c0.24-0.07,0.49-0.13,0.74-0.2l0.06-0.02l0.09-0.02l0.26-0.07l0.09-0.02l0.13-0.04 l0.05-0.02l0.11-0.04l0.09-0.03l0.04-0.02l0.05-0.02l0.03-0.01l0.05-0.02l0.05-0.02l0.02-0.01l0.05-0.03l0.05-0.03l0.05-0.04 l0.05-0.04c0.08-0.07,0.15-0.14,0.21-0.23l0,0c0,0,0.46,0.68,0.5,1.86c-1.04,1.49-4.31,1.99-8.84,2.59 c-4.5,0.6-7.28,0.48-9.16-0.32c-1.88-0.81-5.18-4.63-7.55-4.83c-2.36-0.2-5.15-1.45-6.3-2.12c-0.6-0.35-0.42-2.81-0.42-2.81 L107.72,231.27z"/>
</g>
<g id="Top_Basic-Boot" fill="rgb(25, 30, 23)">
<path d="M49.35,218.75c-0.62,3.05-1.6,5.71-3.64,8.28c-3.18,4.01-8.62,4.33-12.38,7.58 c-0.97,0.83-0.92,2.18-1.07,3.41c1.56,0.44,2.93,0.78,4.68,1.18c0.12-1.23-0.1-2.6,0.93-3.49c3.76-3.25,9.68-3.13,12.86-7.13 c2.08-2.62,2.09-5.99,2.69-9.13c-0.09-0.01-0.19-0.02-0.28-0.02l-0.56-0.06l-0.02,0l-0.07-0.01l-0.18-0.02l-0.28-0.04l-0.12-0.02 c-0.32-0.04-0.64-0.09-0.95-0.14l-0.49-0.1l-0.1-0.03l-0.04-0.01l-0.08-0.02l-0.34-0.08l-0.3-0.08l-0.05-0.01 C49.49,218.79,49.42,218.77,49.35,218.75z"/>
<path d="M120.71,218.75c0.63,3.05,1.6,5.71,3.64,8.28c3.18,4.01,8.62,4.33,12.38,7.58c0.96,0.83,0.92,2.18,1.07,3.41 c-1.56,0.44-2.93,0.78-4.68,1.18c-0.12-1.23,0.1-2.6-0.93-3.49c-3.76-3.25-9.68-3.13-12.86-7.13c-2.08-2.62-2.09-5.99-2.69-9.13 c0.09-0.01,0.19-0.02,0.28-0.02l0.55-0.06l0.02,0l0.07-0.01l0.18-0.02l0.28-0.04l0.12-0.02c0.32-0.04,0.64-0.09,0.95-0.14 l0.49-0.1l0.1-0.03l0.04-0.01l0.08-0.02l0.34-0.08l0.3-0.08l0.05-0.01C120.57,218.79,120.64,218.77,120.71,218.75z"/>
</g>
<g id="Side_Basic-Boot" fill="rgb(25, 30, 23)">
<path d="M60.15,218.12c-1.21,0.53-1.84,1.07-2.95,1.25c-0.06,0.01-0.12,0.02-0.18,0.03 c-0.02,0.38-0.01,0.77-0.02,1.11c-0.04,1.92,0.2,10.09,0.58,10.08c0.38-0.01,1.48-0.22,1.76-0.51c0.19-0.2,0.22-0.67,0.28-0.92 c0.19-0.81,0.37-1.63,0.5-2.45C60.29,225.59,60.12,219.79,60.15,218.12z"/>
<path d="M109.91,218.12c1.21,0.53,1.85,1.07,2.95,1.25c0.06,0.01,0.12,0.02,0.18,0.03c0.02,0.38,0.01,0.77,0.02,1.11 c0.04,1.92-0.2,10.09-0.57,10.08c-0.38-0.01-1.48-0.22-1.76-0.51c-0.19-0.2-0.22-0.67-0.28-0.92c-0.19-0.81-0.37-1.63-0.5-2.45 C109.77,225.59,109.95,219.79,109.91,218.12z"/>
</g>
</g>
</g>
<g id="Gloves">
<g id="Left-Glove">
<g id="Fingerless_Left_Glove" class="option" style="display: inherit;">
<g id="Fingers_Fingerless_Left_Glove" fill="rgb(154, 107, 65)">
<path d="M133.16,120.46c-0.46-0.03-0.9-0.01-1.36,0.09c-0.31,0.07-0.62,0.16-0.9,0.34 c-0.85,0.55-0.62,1.76,0.14,2.21c0.89,0.53,2.29,0.01,2.69-1.02C133.9,121.66,133.39,120.86,133.16,120.46"/>
<path d="M131.6,121.51c-0.46-0.02-0.9-0.02-1.36,0.09c-0.31,0.07-0.62,0.16-0.9,0.34 c-0.85,0.55-0.62,1.76,0.14,2.21c0.89,0.53,2.29,0.01,2.69-1.02C132.34,122.71,131.83,121.91,131.6,121.51"/>
<path d="M130.51,122.89c-0.46,0.05-1.04,0.16-1.48,0.34c-0.3,0.12-0.59,0.25-0.85,0.47 c-0.78,0.68-0.4,1.83,0.4,2.17c0.94,0.39,2.27-0.34,2.55-1.42C131.24,124.01,130.51,122.89,130.51,122.89z"/>
<path d="M125.73,116.29c-0.26,1.3-0.47,2.01-0.47,2.01s-1.18,2.71-0.98,3.34c0.21,0.62,1.25,1.18,1.84,0.85 c0.74-0.41,1.66-2.32,2.24-3.67c0.21-0.5,0.41-1.07,0.58-1.59C126.58,117.61,125.73,116.29,125.73,116.29L125.73,116.29z"/>
<path d="M130.61,122.69c-0.17,0.33-0.37,0.68-0.59,1.05c-1.17,1.99-2.97,3.7-1.78,5.22 c1.11,1.42,3.63-2.31,3.63-2.31l1.17-1.72C131.1,124.42,130.62,122.7,130.61,122.69z"/>
</g>
<path id="Glove_Fingerless_Left_Glove" d="M133.04,124.93l1.3-1.91c0,0,2.84-5.26,2.98-6.28 c0.11-0.78,0.01-3.38,0.01-3.38l-0.89-10.08l-4.5,0.42l-3.7,1.36l-0.28,1.72c0,0-1.34,2.09-1.69,3.59 c-0.25,1.06-0.11,3.58-0.43,5.28c-0.04,0.22-0.08,0.43-0.12,0.63l0,0c0,0,0.85,1.33,3.22,0.93c0.3-0.93,0.5-1.73,0.5-1.73 s0.81,0.32,1.23,0.68c1.38,1.2,0.78,4.82,0.78,4.82s-0.32,0.72-0.84,1.7C130.62,122.7,131.1,124.42,133.04,124.93z" fill="rgb(22, 22, 22)"/>
</g></g>
<g id="Right-Glove"><g id="Basic_Right_Glove" class="option" fill="rgb(53, 60, 68)" style="display: inherit;">
<path d="M36.86,120.46c0.46-0.03,0.9-0.01,1.36,0.09c0.31,0.07,0.62,0.16,0.9,0.34c0.85,0.55,0.62,1.76-0.14,2.21 c-0.89,0.53-2.29,0.01-2.69-1.02C36.12,121.66,36.64,120.86,36.86,120.46"/>
<path d="M38.42,121.51c0.46-0.02,0.9-0.02,1.36,0.09c0.31,0.07,0.62,0.16,0.9,0.34c0.85,0.55,0.62,1.76-0.14,2.21 c-0.89,0.53-2.29,0.01-2.69-1.02C37.68,122.71,38.2,121.91,38.42,121.51"/>
<path d="M39.54,122.93c0.46,0.05,1.02,0.12,1.46,0.3c0.3,0.12,0.6,0.25,0.85,0.47c0.78,0.68,0.4,1.83-0.4,2.17 c-0.94,0.39-2.27-0.34-2.55-1.42C38.78,124.01,39.54,122.93,39.54,122.93z"/>
<path d="M42.06,106.79c0,0,1.34,2.09,1.69,3.59c0.25,1.06,0.11,3.58,0.43,5.28c0.31,1.7,0.59,2.64,0.59,2.64 s1.18,2.71,0.98,3.34c-0.21,0.62-1.24,1.18-1.84,0.85c-0.74-0.41-1.66-2.32-2.24-3.67c-0.59-1.37-1.08-3.32-1.08-3.32 s-0.81,0.32-1.23,0.68c-1.38,1.2-0.78,4.82-0.78,4.82s0.57,1.29,1.43,2.75c1.17,1.99,2.97,3.7,1.78,5.22 c-1.11,1.42-3.63-2.31-3.63-2.31l-2.47-3.62c0,0-2.84-5.26-2.98-6.28c-0.11-0.78-0.01-3.38-0.01-3.38l0.89-10.08l4.5,0.42 l3.7,1.36L42.06,106.79"/>
</g>
</g>
</g>
<g id="Biceps">
<g id="Left-Biceps"><g id="Basic_Biceps_Left" class="option" style="display: inherit;">
<path id="Main_Basic_Biceps_Left" d="M133.33,53.8c-1.18-2.85-6.45-15.35-6.45-15.35s-8.66,3.56-10.82,4.44 c-0.61,0.25-0.9,0.95-0.65,1.56c1.02,2.45,3.51,8.45,5.06,12.19c0.35,0.85,1.03,1.52,1.88,1.87c0.85,0.35,1.81,0.35,2.65,0 c2.54-1.04,5.95-2.44,7.68-3.15C133.29,55.1,133.58,54.41,133.33,53.8z" fill="rgb(15, 20, 12)"/>
<path id="Strap_Basic_Biceps_Left" d="M117.73,49.98l-4.71,1.93l1.11,3.94l5.16-2.12L117.73,49.98" fill="rgb(25, 30, 25)"/>
<path id="Trauma-Plate_Basic_Biceps_Left" class="toggle" style="" d="M133.29,53.21l-5.5-13.24l-10.55,4.33l4.84,11.67 c0.17,0.42,0.5,0.75,0.92,0.92c0.42,0.17,0.89,0.17,1.31,0L133.29,53.21" fill="rgb(26, 36, 22)"/>
</g>
</g>
<g id="Right-Biceps"><g id="Full-Band_Biceps_Right" class="option" style="display: inherit;">
<path id="Main_Full-Band_Biceps_Right" d="M56.78,54.73l0.74-2.02l3.43-10.67c0,0-12.7-4.29-16.3-5.51 c-0.52-0.18-1.09,0.09-1.29,0.6c-1.1,2.89-4.43,11.57-4.43,11.57L56.78,54.73" fill="rgb(71, 80, 89)"/>
<g id="Trim_Full-Band_Biceps_Right" fill="rgb(57, 64, 71)">
<path d="M42.71,44.91c-0.97,0-1.75,0.75-1.75,1.68c0,0.93,0.79,1.68,1.75,1.68c0.97,0,1.75-0.75,1.75-1.68 C44.47,45.66,43.68,44.91,42.71,44.91"/>
<path d="M38.93,48.72l-0.41,1.12c-0.11,0.31-0.1,0.66,0.05,0.96s0.41,0.53,0.72,0.63c3.28,1.1,12.3,4.12,15.51,5.2 c0.64,0.21,1.33-0.12,1.56-0.75l0.42-1.15L38.93,48.72"/>
</g>
</g></g>
</g>
<g id="BicepsDecals" mask="url(#BicepsMask)">
</g>
<path id="Vest" d="M91.61,82.96c-4.3,0.88-8.84,0.88-13.14,0c-4.33-0.88-12.83-5.29-12.83-5.29s-7.42-23.26-8.75-30.06 c-1.06-5.39-1.42-14.37-1.42-14.37l-12.73,8.52l-2.71-1.15c0,0,7.62-16.73,12.62-21.57c4.53-4.39,17.42-7.5,17.42-7.5 s5.68,6.2,14.97,6.25c8.84,0.04,14.97-6.25,14.97-6.25s12.89,3.12,17.42,7.5c5.01,4.85,12.62,21.57,12.62,21.57l-2.71,1.15 l-12.73-8.52c0,0-0.36,8.98-1.42,14.37c-1.33,6.79-8.76,30.06-8.76,30.06S95.93,82.08,91.61,82.96z" fill="rgb(11, 15, 11)"/>
<g id="SuitDecals" mask="url(#SuitMask)">
</g>
<g class="swappable" id="Chest"><g id="Chest_Heavy">
<g id="Abdomen_Heavy">
<g id="Under-Plates_Abdomen_Heavy" fill="rgb(9, 13, 10)">
<rect x="74.96" y="63.98" width="20.11" height="2.55"/>
<rect x="74.96" y="66.53" width="20.11" height="2.55"/>
<rect x="74.96" y="69.09" width="20.11" height="2.55"/>
<rect x="74.96" y="71.64" width="20.11" height="2.55"/>
<rect x="74.96" y="74.19" width="20.11" height="2.55"/>
</g>
<g id="Abdomen-Plate_Heavy" fill="rgb(10, 17, 7)">
<path d="M78.84,55.74l-10.02,4.23l-0.94-2.27l10.96-4.63V55.74z"/>
<path d="M72.34,68.46l-3.51-8.48l10.02-4.23l3.14,8.92L72.34,68.46z"/>
<path d="M67.88,57.7l-4.22,0.73l6.21,14.69l4.24-0.83L67.88,57.7z"/>
<path d="M91.19,55.74l10.02,4.23l0.94-2.27l-10.96-4.63V55.74z"/>
<path d="M97.7,68.46l3.51-8.48l-10.02-4.23l-3.14,8.92L97.7,68.46z"/>
<path d="M102.15,57.7l4.22,0.73l-6.21,14.69l-4.24-0.83L102.15,57.7z"/>
<rect x="78.88" y="53.08" width="12.28" height="2.67"/>
<path d="M81.98,64.66l-3.14-8.92h12.35l-3.14,8.92H81.98z"/>
</g>
</g>
<g id="Neck-Armor_Heavy">
<g id="Neck-Plate_Heavy" fill="rgb(15, 25, 15)">
<path d="M71.21,11.33l-8.68,1.89c0,0,0.4,1.54,0.83,3.22c0.62,2.4,3.02,3.88,5.45,3.35c0,0,0,0,0,0 c1.14-0.25,2.12-0.95,2.73-1.94c0.61-0.99,0.79-2.19,0.5-3.31C71.6,12.86,71.21,11.33,71.21,11.33z"/>
<path d="M98.83,11.33l8.68,1.89c0,0-0.4,1.54-0.83,3.22c-0.62,2.4-3.03,3.88-5.45,3.35c0,0,0,0,0,0 c-1.14-0.25-2.12-0.95-2.73-1.94c-0.61-0.99-0.79-2.19-0.5-3.31C98.43,12.86,98.83,11.33,98.83,11.33z"/>
</g>
<g id="Secondary_Neck-Plate_Heavy" fill="rgb(27, 11, 11)">
<path d="M69.05,11.48l-4.37,0.95c0,0,0.32,1.23,0.62,2.41c0.31,1.21,1.52,1.95,2.74,1.69h0 c0.57-0.12,1.07-0.48,1.38-0.98c0.31-0.5,0.4-1.1,0.25-1.67C69.36,12.71,69.05,11.48,69.05,11.48z"/>
<path d="M100.99,11.48l4.37,0.95c0,0-0.32,1.23-0.62,2.41c-0.31,1.21-1.52,1.95-2.74,1.69h0 c-0.57-0.12-1.07-0.48-1.38-0.98c-0.31-0.5-0.4-1.1-0.25-1.67C100.67,12.71,100.99,11.48,100.99,11.48z"/>
</g>
</g>
<g id="Full-Chest_Heavy">
<path id="Under-Plate_Chest_Heavy" d="M89.97,50.06h-9.92l-2.49,2.13v1.42l1.31-0.54h12.28l1.31,0.55v-1.44 L89.97,50.06z" fill="rgb(9, 13, 10)"/>
<g id="Chest-Plate_Heavy" fill="rgb(11, 20, 11)">
<path d="M67.67,56.46l8.79-5.08l1.19-2.41l2.34,0.31h10.02l2.35-0.31l1.19,2.41l8.79,5.08l4.09,0.89l-0.1,1.49 l-4.37-0.76l-9.51-3.94v-1.96l-2.49-2.13h-9.92l-2.49,2.13v1.96l-9.5,3.94l-4.37,0.76l-0.1-1.49L67.67,56.46z"/>
<path d="M106.44,57.35l5.09-13l0.75,2.66l-1.61,9.67L106.44,57.35z"/>
<path d="M57.75,47.02l0.75-2.66l5.09,13l-4.23-0.67L57.75,47.02z"/>
<path d="M63.45,39.29v-5.43l-0.42-9.74l2.54-2.79l7.68-1.59l1.99,2.32H94.8l1.99-2.32l7.68,1.59l2.54,2.79 l-0.41,9.5l-0.01-0.02v5.69l-14.21,9.69l-2.35,0.31H80.01l-2.34-0.31L63.45,39.29z"/>
<path d="M106.58,33.87v5.43l4.95,5.06L106.58,33.87z"/>
<path d="M77.66,48.98l-14.21-9.69l-4.95,5.06l5.09,13l4.09-0.89l8.79-5.08L77.66,48.98z"/>
<path d="M111.54,44.36l-5.09,13l-4.09-0.89l-8.79-5.08l-1.19-2.41l14.21-9.69L111.54,44.36z"/>
<path d="M110.67,56.69l-0.17,1.04l-4.16,1.12l0.1-1.49L110.67,56.69z"/>
<path d="M63.45,33.87v5.43l-4.95,5.06L63.45,33.87z"/>
<path d="M63.03,24.13c-0.05,4.99-0.64,9.99-2.06,14.98l2.48-5.25L63.03,24.13z"/>
<path d="M107.01,24.13c0.05,4.99,0.64,9.99,2.06,14.98l-2.48-5.25L107.01,24.13z"/>
<path d="M63.59,57.35l0.1,1.49l-4.16-1.12l-0.17-1.04L63.59,57.35z"/>
</g>
<g id="Accents_Chest-Plate_Heavy" class="toggle">
<g id="Accent-3_Accents_Chest-Plate_Heavy" fill="rgb(85, 0, 0)">
<path d="M96.64,33.73l-0.52-1.62h2.37l-0.52,1.62H96.64z"/>
<path d="M96.64,36.86l-0.52-1.62h2.37l-0.52,1.62H96.64z"/>
<rect x="95.11" y="24.12" width="4.45" height="0.49"/>
<rect x="95.11" y="25.67" width="4.45" height="0.49"/>
</g>
<path id="Accent-2_Accents_Chest-Plate_Heavy" d="M71.9,21.57c-0.11-1.4-1.32-2.46-2.72-2.37c0,0,0,0,0,0 c-0.67,0.04-1.29,0.35-1.73,0.86s-0.66,1.17-0.61,1.84c0.06,0.77,0.12,1.63,0.18,2.4c0.11,1.4,1.32,2.46,2.72,2.37c0,0,0,0,0,0 c0.67-0.04,1.29-0.35,1.73-0.86c0.44-0.51,0.66-1.17,0.61-1.84C72.03,23.2,71.96,22.35,71.9,21.57z" fill="rgb(8, 14, 9)"/>
<g id="Accent-1_Accents_Chest-Plate_Heavy" fill="rgb(18, 27, 19)">
<path d="M71.17,19.59l-3.91,0.25l0.49,6.44l3.91-0.25L71.17,19.59z"/>
<path d="M70.74,20.09l-2.98,0.19l0.07,0.92l2.98-0.19L70.74,20.09z"/>
<path d="M68.24,21.18l-0.41,0.03l0.38,5.05l0.41-0.03L68.24,21.18z"/>
<path d="M68.67,21.15l-0.41,0.03l0.38,5.05l0.41-0.03L68.67,21.15z"/>
<path d="M70.81,21.01l-0.41,0.03l0.38,5.05l0.41-0.03L70.81,21.01z"/>
<path d="M70.38,21.04l-0.41,0.03l0.38,5.05l0.41-0.03L70.38,21.04z"/>
<path d="M69.53,21.1l-0.41,0.03l0.38,5.05l0.41-0.03L69.53,21.1z"/>
<path d="M69.95,21.07l-0.41,0.03l0.38,5.05l0.41-0.03L69.95,21.07z"/>
<path d="M69.1,21.12l-0.41,0.03l0.38,5.05l0.41-0.03L69.1,21.12z"/>
</g>
</g>
</g>
<g id="Iron-Heart_Heavy">
<path id="Heart_Heavy" d="M85.02,29.22l2.92,2.69v5.28l-2.92,2.69L82.1,37.2v-5.28L85.02,29.22z" fill="rgb(9, 16, 8)"/><g id="Center_Heart_Heavy" class="option" fill="rgb(57, 1, 1)" style="display: inherit;">
<rect x="83.95" y="31.99" width="2.13" height="2.56"/>
<rect x="83.95" y="34.55" width="0.36" height="2.56"/>
<rect x="85.37" y="34.55" width="0.36" height="2.56"/>
<rect x="85.72" y="34.55" width="0.36" height="2.56"/>
<rect x="84.66" y="34.55" width="0.36" height="2.56"/>
<rect x="85.01" y="34.55" width="0.36" height="2.56"/>
<rect x="84.3" y="34.55" width="0.36" height="2.56"/>
</g>
</g>
</g></g>
<g id="ChestDecals" mask="url(#ChestMask)">
</g>
<g id="Chest-Attachments"><g id="Bandoleer_Accessories_Chest" class="option" style="display: inherit;">
<g id="Strap_Bandoleer_Accessories_Chest" fill="rgb(20, 15, 14)">
<path d="M113.84,15.17L107,11.85L69.01,80.32l6.86,3.76L113.84,15.17"/>
<path d="M111.97,13.92l-2.6-1.21l-8.66,15.61l2.51,1.37L111.97,13.92"/>
<path d="M99.7,36.44l-2.86-1.57l-13.31,24l2.87,1.57L99.7,36.44"/>
<path d="M99.98,37.35l-4.07-2.23l-1.33,2.4l4.07,2.23L99.98,37.35"/>
<path d="M98.36,40.26l-4.07-2.23l-1.33,2.41l4.07,2.23L98.36,40.26"/>
<path d="M96.75,43.17l-4.07-2.23l-1.33,2.4l4.07,2.23L96.75,43.17"/>
<path d="M95.13,46.09l-4.07-2.23l-1.33,2.4l4.07,2.23L95.13,46.09"/>
<path d="M93.52,49l-4.07-2.23l-1.33,2.4l4.07,2.23L93.52,49"/>
<path d="M90.28,54.82l-4.07-2.23L84.88,55l4.07,2.23L90.28,54.82"/>
<path d="M91.9,51.91l-4.07-2.23l-1.33,2.4l4.07,2.23L91.9,51.91"/>
<path d="M88.67,57.74l-4.07-2.23l-1.33,2.4l4.07,2.23L88.67,57.74"/>
</g>
<g id="Ammo_Bandoleer_Accessories_Chest" fill="rgb(117, 117, 117)">
<g>
<g>
<path d="M99.83,37.6l1.67,0.91c0.18,0.1,0.24,0.32,0.14,0.5c-0.19,0.34-0.49,0.89-0.68,1.23 c-0.1,0.18-0.32,0.24-0.5,0.14l-1.67-0.91L99.83,37.6z"/>
<path d="M101.06,38.27l-0.14-0.08l-1.04,1.87l0.14,0.08L101.06,38.27z"/>
<path d="M100.77,38.11l-0.14-0.08l-1.04,1.87l0.14,0.08L100.77,38.11z"/>
</g>
<g>
<path d="M95.77,35.37l-1.04,1.87l-1.67-0.91c-0.18-0.1-0.24-0.32-0.14-0.5c0.19-0.34,0.49-0.89,0.68-1.23 c0.1-0.18,0.32-0.24,0.5-0.14L95.77,35.37z"/>
<path d="M94.51,34.68l-0.14-0.08l-1.04,1.87l0.14,0.08L94.51,34.68z"/>
</g>
</g>
<g>
<g>
<path d="M96.6,43.45l1.67,0.91c0.18,0.1,0.24,0.32,0.14,0.5c-0.19,0.34-0.49,0.89-0.68,1.23 c-0.1,0.18-0.32,0.24-0.5,0.14l-1.67-0.91L96.6,43.45z"/>
<path d="M97.82,44.12l-0.14-0.08l-1.04,1.87l0.14,0.08L97.82,44.12z"/>
<path d="M97.53,43.96l-0.14-0.08l-1.04,1.87l0.14,0.08L97.53,43.96z"/>
</g>
<g>
<path d="M92.53,41.22l-1.04,1.87l-1.67-0.91c-0.18-0.1-0.24-0.32-0.14-0.5c0.19-0.34,0.49-0.89,0.68-1.23 c0.1-0.18,0.32-0.24,0.5-0.14L92.53,41.22z"/>
<path d="M91.27,40.53l-0.14-0.08l-1.04,1.87l0.14,0.08L91.27,40.53z"/>
</g>
</g>
<g>
<g>
<path d="M94.99,46.34l1.67,0.91c0.18,0.1,0.24,0.32,0.14,0.5c-0.19,0.34-0.49,0.89-0.68,1.23 c-0.1,0.18-0.32,0.24-0.5,0.14l-1.67-0.91L94.99,46.34z"/>
<path d="M96.21,47.02l-0.14-0.08l-1.04,1.87l0.14,0.08L96.21,47.02z"/>
<path d="M95.92,46.86l-0.14-0.08l-1.04,1.87l0.14,0.08L95.92,46.86z"/>
</g>
<g>
<path d="M90.92,44.11l-1.04,1.87l-1.67-0.91c-0.18-0.1-0.24-0.32-0.14-0.5c0.19-0.34,0.49-0.89,0.68-1.23 c0.1-0.18,0.32-0.24,0.5-0.14L90.92,44.11z"/>
<path d="M89.66,43.42l-0.14-0.08l-1.04,1.87l0.14,0.08L89.66,43.42z"/>
</g>
</g>
<g>
<g>
<path d="M93.36,49.27l1.67,0.91c0.18,0.1,0.24,0.32,0.14,0.5c-0.19,0.34-0.49,0.89-0.68,1.23 c-0.1,0.18-0.32,0.24-0.5,0.14l-1.67-0.91L93.36,49.27z"/>
<path d="M94.59,49.95l-0.14-0.08l-1.04,1.87l0.14,0.08L94.59,49.95z"/>
<path d="M94.3,49.79l-0.14-0.08l-1.04,1.87l0.14,0.08L94.3,49.79z"/>
</g>
<g>
<path d="M89.3,47.04l-1.04,1.87L86.59,48c-0.18-0.1-0.24-0.32-0.15-0.5c0.19-0.34,0.49-0.89,0.68-1.23 c0.1-0.18,0.32-0.24,0.5-0.14L89.3,47.04z"/>
<path d="M88.04,46.35l-0.14-0.08l-1.04,1.87L87,48.22L88.04,46.35z"/>
</g>
</g>
</g>
<g id="Buckles_Bandoleer_Accessories_Chest" fill="rgb(117, 117, 117)">
<g>
<path d="M104.43,28.05l-2.99-1.64l-1.69,3.05l2.99,1.64L104.43,28.05z"/>
<path d="M103.67,28.57l-2.26-1.24l-1.69,3.05l2.26,1.24L103.67,28.57z"/>
</g>
<path d="M104.44,24.49l-1.93-1.05l1.67-3.03l3.9,2.13l-1.67,3.03L104.44,24.49l0.38-0.68l1.1,0.6l0.92-1.67 l-2.15-1.17l-0.92,1.67l1.05,0.58"/>
</g>
</g></g>
<g id="Collar"><g id="Cloth-Wrap-Right_Collar" class="option" style="display: inherit;">
<g id="Main_Cloth-Wrap-Right_Collar" fill="rgb(13, 16, 13)">
<path d="M95.41,21.42c4.65-1.45,5.5-3.78,5.78-6.13c0.11-0.96-1.26-3.46,0.16-4.1c1.61-0.73,5.4,0.41,6.97,0.75 c1.16,0.25,2.19,1.42,3.38,1.43c2.74,0.03,4.91,3,5.16,4.36c0.35,1.9-3.04,0.56-4.62,2c-3.96,3.61-5.34,8.5-13.67,9.83 c-3.82,0.61-7.61-0.25-11.16-1.04c-9.17-2.03-14.17-3.78-20.06-8.31c-2.58-1.98-6.47-3.59-6.37-6.24c0-0.11,1.88-1.22,2.06-1.27 c1.65-0.41,3.06-1.09,4.88-1.12c1.09-0.02,0.91,0.91,0.99,1.34c0.31,1.62,1.79,2.84,3.66,4.05 C77.47,20.18,88.67,21.17,95.41,21.42z"/>
<path d="M95.41,21.42c1.23,0.05,2.31,0.24,3.25,0.29c4.26,0.26,5.78-0.77,6.6-2.66"/>
<path d="M108.64,11.99c1.23,1.99,1.07,4.34,0.09,5.89"/>
<path d="M72.93,17.68c3.19,4.34,7.92,5.71,13.09,6.23"/>
<path d="M64.3,12.34c0.19,1.1,0.85,1.51,1.66,2.24c0.47,0.43,1.04,0.73,1.41,1.25c0.14,0.19,0.21,0.41,0.29,0.62"/>
</g>
<path id="Buckle_Cloth-Wrap-Right_Collar" d="M74.02,16.86l-2.71-1.93l-4.71,6.53l2.71,1.93L74.02,16.86z" fill="rgb(86, 86, 86)"/>
</g></g>
<g id="CollarDecals" mask="url(#CollarMask)">
</g>
<g id="Helmets" class="swappable" transform="translate(45,-52)"><g id="Helmet_Recon">
<g id="Left-Earcap_Recon">
<g id="Module_Left_Recon" class="option" style="display: inherit;">
<g id="Main_Module_Left_Recon" fill="rgb(24, 42, 24)">
<rect x="60.51" y="39.13" width="2" height="2.66"/>
<rect x="63.13" y="37.72" width="0.73" height="0.47"/>
<rect x="64.2" y="37.72" width="0.73" height="0.47"/>
<path d="M66.76,40.29v-0.73h-0.47v0.73H66.76z"/>
<path d="M66.76,41.36v-0.73h-0.47v0.73H66.76z"/>
<rect x="63.13" y="42.73" width="0.73" height="0.47"/>
<rect x="64.2" y="42.73" width="0.73" height="0.47"/>
<ellipse cx="64.03" cy="40.46" rx="2.46" ry="2.46"/>
</g>
<g id="Inside_Module_Left_Recon" fill="rgb(92, 16, 16)">
<ellipse cx="64.03" cy="40.46" rx="1.94" ry="1.92"/>
<ellipse cx="64.03" cy="40.46" rx="1.15" ry="1.13"/>
<ellipse cx="64.03" cy="40.46" rx="0.73" ry="0.72"/>
<ellipse cx="64.03" cy="40.46" rx="0.38" ry="0.37"/>
</g>
</g><g id="Ear-Cap_Left_Recon" fill="rgb(18, 30, 18)">
<path d="M59.05,34.42l1.5,0.77l-0.67,1.25h-0.81L59.05,34.42z"/>
<path d="M60.55,35.19l1.02,13.31l-1.41-0.16l-0.28-11.89L60.55,35.19z"/>
<path d="M60.16,48.34h-1.11l-0.27-11.89h1.1L60.16,48.34z"/>
<path d="M61.06,48.5v1.4H59.1l-0.04-1.54l1.1-0.02L61.06,48.5z"/>
<path d="M59.8,48.34v1.56h-0.7l-0.04-1.56H59.8z"/>
<path d="M61.06,50.3v1.35l-1.92,0.19v-1.51h0.66L61.06,50.3z"/>
<path d="M59.8,50.33v1.44l-0.66,0.07v-1.51H59.8z"/>
<path d="M60.82,49.9v0.4l-1.02,0.03h-0.7L59.1,49.9H60.82z"/>
<rect x="59.1" y="49.9" width="0.58" height="0.43"/>
<path d="M61.06,51.65h0.56l0.1,4.63l-1.22,1.32v-5.88L61.06,51.65z"/>
<path d="M60.49,57.59l-1.2,0.9l-0.15-6.65l1.35-0.14V57.59z"/>
<path d="M58.88,40.91h0.59v2.33h-0.53L58.88,40.91z"/>
</g>
</g>
<g id="Right-Earcap_Recon"><g id="Range-Finder_Right_Recon" class="option" style="display: inherit;">
<g id="Finder_Range-Finder_Right_Recon" fill="rgb(18, 30, 18)">
<path d="M21.13,11.57H19.1l-0.56-1.83l0.86-2.08h14.21v1.07C29.16,8.78,24.62,8.6,21.13,11.57z"/>
<path d="M20.19,7.66l-0.94,2.18l0.61,1.73H19.1l-0.56-1.83l0.86-2.08H20.19z"/>
<path d="M33.16,8.73L33.16,8.73v0.6h-7.54C28,8.74,30.59,8.76,33.16,8.73z"/>
<path d="M25.62,9.33h6.96l-0.89,0.71h-6.47l-0.46-0.46l0-0.01C25.04,9.48,25.33,9.4,25.62,9.33z"/>
</g>
<path id="Shaft_Range-Finder_Right_Recon" d="M20.19,11.57h-0.57L18.8,38.14h0.57L20.19,11.57z" fill="rgb(43, 61, 43)"/>
<g id="Base_Range-Finder_Right_Recon" fill="rgb(18, 30, 18)">
<path d="M18.97,32.77l-1.79,1.07l-0.13,3.3l1.78,0.08L18.97,32.77z"/>
<path d="M17.39,37.15l-0.17,5.09h0.57l0.22-5.06L17.39,37.15z"/>
<path d="M17.37,37.79l-1.04,0.8l-0.06,2.72l0.95,0.93L17.37,37.79z"/>
<path d="M17.12,35.35l-0.3,0.17v2.69l0.55-0.42v-0.63l-0.32-0.01L17.12,35.35z"/>
<path d="M17.79,42.24l0.22-5.06l0.82,0.03l-0.03,0.92h0.57v4.1H17.79z"/>
<path d="M17.97,38.21h0.83l0.03-0.99h-0.82L17.97,38.21z"/>
<path d="M17.91,39.49h1.46v0.55h-1.48L17.91,39.49z"/>
<path d="M17.86,40.59l0.02-0.55h1.48v0.53L17.86,40.59z"/>
<path d="M18.58,38.21v1.28h-0.67l0.05-1.28H18.58z"/>
</g>
</g>
<g id="Ear-Cap_Right_Recon" fill="rgb(18, 30, 18)">
<path d="M20.89,34.42l-1.5,0.77l0.67,1.25h0.81L20.89,34.42z"/>
<path d="M19.39,35.19L18.37,48.5l1.41-0.16l0.28-11.89L19.39,35.19z"/>
<path d="M19.78,48.34h1.11l0.27-11.89h-1.1L19.78,48.34z"/>
<path d="M18.88,48.5v1.4h1.96l0.04-1.54l-1.1-0.02L18.88,48.5z"/>
<path d="M20.14,48.34v1.56h0.7l0.04-1.56H20.14z"/>
<path d="M18.88,50.3v1.35l1.92,0.19v-1.51h-0.66L18.88,50.3z"/>
<path d="M20.14,50.33v1.44l0.66,0.07v-1.51H20.14z"/>
<path d="M19.11,49.9v0.4l1.02,0.03h0.69l0.01-0.43H19.11z"/>
<rect x="20.26" y="49.9" width="0.58" height="0.43"/>
<path d="M18.88,51.65h-0.56l-0.1,4.63l1.22,1.32v-5.88L18.88,51.65z"/>
<path d="M19.45,57.59l1.2,0.9l0.15-6.65l-1.35-0.14V57.59z"/>
<path d="M21.06,40.91h-0.59v2.33h0.53L21.06,40.91z"/>
</g>
</g>
<g id="Helmet_Pieces_Recon">
<g id="Face_Recon" fill="rgb(14, 23, 14)">
<path d="M22.95,58.65l0.78-6.92l0.8-0.31l0.72-5.18c0,0,4.47,3.09,6.25,5.15c2.03,2.35,4.07,15.01,4.07,15.01 L22.95,58.65z"/>
<path d="M56.99,58.65l-0.78-6.92l-0.8-0.31l-0.72-5.18c0,0-4.47,3.09-6.25,5.15c-2.03,2.35-4.07,15.01-4.07,15.01 L56.99,58.65z"/>
</g>
<g id="Vents_Recon" fill="rgb(12, 20, 12)">
<g>
<path d="M25.99,53.31l-1.23-0.9l-0.45,0.15l-0.03,0.52l1.11,1.07v-0.59L25.99,53.31z"/>
<path d="M23.74,51.72l0.58,0.84l0.45-0.15l1.23,0.9l-0.6,0.25l1.75,1.18l1.67-0.85c-1.6-0.7-3.04-1.52-4.28-2.48 L23.74,51.72z"/>
<path d="M27.15,54.74c-0.81,1.67-1.09,3.66-0.87,5.95l1.51,0.93l1.03-7.72L27.15,54.74z"/>
<path d="M27.58,54.93l0.79-0.4l-0.86,6.48l-0.88-0.54l-0.01-0.17h0.76v-0.4h-0.78l-0.01-0.2l0-0.22h0.93v-0.4 h-0.93l0-0.12l0.01-0.31h1.04v-0.4h-1.01v-0.01l0.05-0.41h1.08v-0.4h-1.02l0.08-0.43h0.99v-0.4h-0.9l0.09-0.37l0.02-0.06h0.9 v-0.4h-0.77l0.05-0.15l0.11-0.27h0.76v-0.4H27.58z"/>
<path d="M26.28,60.69l-3.32-2.04l0.78-6.92l0.58,0.84l-0.04,0.51l1.12,1.08v-0.59l1.75,1.18 c-0.8,1.67-1.09,3.64-0.87,5.92L26.28,60.69z"/>
<path d="M24.6,52.78l0.8,0.78l0.6-0.25l-0.94-0.69L24.6,52.78z"/>
<path d="M24.6,53.09v-0.31l0.8,0.78v0.28L24.6,53.09z"/>
<path d="M24.28,53.08l0.32,0.02"/>
<path d="M25.05,58.83l-1.14-0.65v0.32l1.14,0.65V58.83z"/>
<path d="M27.58,54.93h0.47v0.4h-0.76l0.14-0.32l0,0L27.58,54.93z"/>
<path d="M27.12,55.76l-0.13,0.4h0.9v-0.4H27.12z"/>
<path d="M26.88,56.59l-0.07,0.28l-0.02,0.12h0.99v-0.4H26.88z"/>
<path d="M26.71,57.42l-0.02,0.12l-0.03,0.28h1.08v-0.4H26.71z"/>
<path d="M26.61,58.25l-0.02,0.4h1.04v-0.4H26.61z"/>
<path d="M26.58,59.07l0,0.4h0.93v-0.4H26.58z"/>
<path d="M26.59,59.9l0.03,0.4h0.76v-0.4H26.59z"/>
</g>
<g>
<path d="M53.95,53.31l1.23-0.9l0.45,0.15l0.03,0.52l-1.11,1.07v-0.59L53.95,53.31z"/>
<path d="M56.2,51.72l-0.58,0.84l-0.45-0.15l-1.23,0.9l0.6,0.25l-1.75,1.18l-1.67-0.85c1.6-0.7,3.04-1.52,4.28-2.48 L56.2,51.72z"/>
<path d="M52.79,54.74c0.81,1.67,1.09,3.66,0.87,5.95l-1.51,0.93l-1.03-7.72L52.79,54.74z"/>
<path d="M52.36,54.93l-0.79-0.4l0.86,6.48l0.88-0.54l0.01-0.17h-0.76v-0.4h0.78l0.01-0.2l0-0.22h-0.93v-0.4h0.93 l0-0.12l-0.02-0.31h-1.03v-0.4h1.01v-0.01l-0.05-0.41h-1.08v-0.4h1.02l-0.08-0.43h-0.99v-0.4h0.9l-0.09-0.37l-0.02-0.06h-0.9 v-0.4h0.77l-0.05-0.15l-0.11-0.27h-0.76v-0.4H52.36z"/>
<path d="M53.66,60.69l3.33-2.04l-0.78-6.92l-0.58,0.84l0.04,0.51l-1.12,1.08v-0.59l-1.75,1.18 c0.8,1.67,1.09,3.64,0.87,5.92L53.66,60.69z"/>
<path d="M55.34,52.78l-0.8,0.78l-0.6-0.25l0.94-0.69L55.34,52.78z"/>
<path d="M55.34,53.09v-0.31l-0.8,0.78v0.28L55.34,53.09z"/>
<path d="M55.66,53.08l-0.32,0.02"/>
<path d="M54.89,58.83l1.14-0.65v0.32l-1.14,0.65V58.83z"/>
<path d="M52.36,54.93h-0.47v0.4h0.76l-0.14-0.32l0,0L52.36,54.93z"/>
<path d="M52.82,55.76l0.13,0.4h-0.9v-0.4H52.82z"/>
<path d="M53.06,56.59l0.07,0.28l0.02,0.12h-0.99v-0.4H53.06z"/>
<path d="M53.23,57.42l0.02,0.12l0.03,0.28h-1.08v-0.4H53.23z"/>
<path d="M53.33,58.25l0.02,0.4h-1.03v-0.4H53.33z"/>
<path d="M53.36,59.07l0,0.4h-0.93v-0.4H53.36z"/>
<path d="M53.35,59.9l-0.02,0.4h-0.76v-0.4H53.35z"/>
</g>
</g>
<g id="Cheeks_Recon" fill="rgb(12, 23, 12)">
<path d="M24.76,42.7l0.5,3.54l-0.72,5.18l-0.8,0.31L24.76,42.7z"/>
<path d="M24.76,42.7c0,0,5.37,3.85,7.13,6.73c2.19,3.56,4.26,16.16,4.39,16.95l0.01,0.04h-0.69 c0,0-2.04-12.66-4.07-15.01c-1.79-2.07-6.25-5.15-6.25-5.15L24.76,42.7z"/>
<path d="M26.25,44.85l0.13,0.63l1.17,0.9l-0.08-0.66L26.25,44.85z"/>
<path d="M55.18,42.7l-0.5,3.54l0.72,5.18l0.8,0.31L55.18,42.7z"/>
<path d="M55.18,42.7c0,0-5.37,3.85-7.13,6.73c-2.19,3.56-4.26,16.16-4.39,16.95l-0.01,0.04h0.69 c0,0,2.04-12.66,4.07-15.01c1.79-2.07,6.25-5.15,6.25-5.15L55.18,42.7z"/>
</g>
<path fill="rgb(0, 0, 0)" id="Visor_Recon" d="M38.94,66.41l-1.37-22.04l-0.7-0.17l-8.9-2.78l-0.9-2.27l0.29,0.01 c2.17,0.39,4.47,0.71,6.97,0.94l0,0l2.05,1.35c1.16,0.21,2.36,0.3,3.58,0.31h0.03H40c1.22-0.02,2.42-0.11,3.58-0.31l2.05-1.35l0,0 c2.5-0.23,4.8-0.55,6.96-0.94l0.29-0.01l-0.9,2.27l-8.9,2.78l-0.7,0.17L41,66.41H38.94z"/>
<g id="Eyes-2_Recon" fill="rgb(17, 29, 16)">
<path d="M26.16,38.93l0.79,2.17l9.91,3.1l1.41,22.22h-1.99c0,0-2.14-13.31-4.39-16.98 c-1.76-2.87-7.13-6.73-7.13-6.73l1-3.85L26.16,38.93z"/>
<path d="M27.05,39.1l0.92,2.31l-1.01-0.31l-0.79-2.17L27.05,39.1z"/>
<path d="M36.86,44.19l0.7,0.17l1.37,22.04h-0.66L36.86,44.19z"/>
<path d="M53.78,38.93l-0.79,2.17l-9.91,3.1l-1.41,22.22h1.99c0,0,2.14-13.31,4.39-16.98 c1.76-2.87,7.13-6.73,7.13-6.73l-1-3.85L53.78,38.93z"/>
<path d="M52.9,39.1l-0.92,2.31l1.01-0.31l0.79-2.17L52.9,39.1z"/>
<path d="M43.08,44.19l-0.7,0.17L41,66.41h0.66L43.08,44.19z"/>
<path d="M39.91,40.42c-5.46-0.15-10.04-0.74-14.14-1.57h28.41c-4.11,0.83-8.72,1.42-14.21,1.57L39.91,40.42z"/>
<path d="M39.94,41.75c-1.22-0.02-2.42-0.11-3.58-0.31l-2.05-1.35l0,0c1.78,0.16,3.66,0.28,5.66,0.33l0.09,0 c1.96-0.06,3.81-0.17,5.56-0.33l0,0l-2.05,1.35c-1.17,0.21-2.38,0.3-3.61,0.31H39.94z"/>
</g>
<g id="Eyes-1_Recon" fill="rgb(14, 21, 14)">
<path d="M24.57,38.85h0.69L24.2,42.7l-1.76,15.96h-1.78c0.55-6.99,1.81-13.59,3.89-19.74L24.57,38.85z"/>
<path d="M25.76,38.85l-1,3.85l-1.81,15.96h-0.52L24.2,42.7l1.06-3.85H25.76z"/>
<path d="M55.37,38.85h-0.69l1.06,3.85l1.76,15.96h1.78c-0.55-6.99-1.81-13.59-3.89-19.74L55.37,38.85z"/>
<path d="M54.18,38.85l1,3.85l1.81,15.96h0.52L55.74,42.7l-1.06-3.85H54.18z"/>
<rect x="20.33" y="34.94" width="39.28" height="3.12"/>
<path d="M37.44,36.49l2.05-0.6v1.2L37.44,36.49z"/>
<path d="M42.5,36.49l-2.05-0.6v1.2L42.5,36.49z"/>
<path d="M24.57,38.85c-2.09,6.16-3.36,12.79-3.91,19.81l0.45-20.59h37.74l0.45,20.59 c-0.55-7.02-1.82-13.64-3.91-19.81H24.57z"/>
<path d="M23.21,43.31l0.98-0.61"/>
<path d="M24.76,42.7H24.2"/>
<path d="M56.73,43.31l-0.98-0.61"/>
<path d="M55.18,42.7h0.57"/>
</g>
<g id="Dome-2_Recon" fill="rgb(17, 23, 17)">
<path d="M39.97,19.24v15.7h-19.1C20.87,29.05,28.47,19.24,39.97,19.24z"/>
<path d="M39.97,19.24v15.7h19.1C59.07,29.05,51.47,19.24,39.97,19.24z"/>
<path d="M38.05,34.94V18.66l1.92-0.1l1.92,0.1v16.27H38.05z"/>
</g>
<g id="Dome-1_Recon" fill="rgb(13, 18, 13)">
<path d="M38.05,34.94V18.18c-2.96,0.39-5.75,1.3-8.32,2.84v13.91H38.05z"/>
<path d="M41.89,34.94V18.18c2.96,0.39,5.75,1.3,8.32,2.84v13.91H41.89z"/>
</g>
</g>
<g id="Macrobinoculars_Brow_Recon" class="toggle" style="">
<g id="Arms_Macrobinoculars_Brow_Recon" fill="rgb(33, 42, 33)">
<path d="M22.29,27.79l-0.6-0.17l-3.95,9.47l0,0.38l0.51,0.01L22.29,27.79z"/>
<rect x="18.97" y="38.37" width="1.04" height="0.94"/>
<rect x="18.23" y="38.37" width="0.5" height="0.94"/>
<rect x="18.23" y="39.31" width="0.5" height="1.61"/>
<rect x="17.74" y="37.48" width="0.49" height="3.44"/>
<path d="M17.74,35.44l-0.54,0.31v2.15l0.54-0.41V35.44z"/>
<path d="M17.74,37.48l-0.79,0.11l-0.01,2.53l0.8,0.81V37.48z"/>
<rect x="18.73" y="38.37" width="0.24" height="0.94"/>
<path d="M17.74,35.44l0.24-0.42l0.72-0.24l-0.97,2.32L17.74,35.44z"/>
<path d="M17.98,35.01v-0.4L17.2,35.1v0.65l0.54-0.31L17.98,35.01z"/>
<path d="M17.98,35.01V34.1l0.72-0.7v1.36L17.98,35.01z"/>
<path d="M18.22,37.48h1.11l-0.05,0.89h-1.06L18.22,37.48z"/>
<path d="M19.33,37.48h-1.11l1.06,0.89L19.33,37.48z"/>
<path d="M18.56,36.74l0.78,0.27v0.46h-1.08L18.56,36.74z"/>
<path d="M18.73,40.92v-1.61h0.48l-0.12,1.61H18.73z"/>
<path d="M18.73,33.4l2.79-6.76l0.05,0.93l0.12,0.04l-2.96,7.1V33.4z"/>
<path d="M19.96,30.81l-0.88,2.09v0.54l0.89-2.12L19.96,30.81z"/>
<path d="M21.24,27.76l-0.88,2.09v0.54l0.89-2.12L21.24,27.76z"/>
<path d="M57.65,27.79l0.6-0.17l3.95,9.47l0,0.38l-0.51,0.01L57.65,27.79z"/>
<rect x="59.93" y="38.37" width="1.04" height="0.94"/>
<rect x="61.21" y="38.37" width="0.5" height="0.94"/>
<rect x="61.21" y="39.31" width="0.5" height="1.61"/>
<rect x="61.71" y="37.48" width="0.49" height="3.44"/>
<path d="M62.2,35.44l0.53,0.31v2.15l-0.53-0.41V35.44z"/>
<path d="M62.2,37.48l0.78,0.11L63,40.12l-0.8,0.81V37.48z"/>
<rect x="60.97" y="38.37" width="0.24" height="0.94"/>
<path d="M62.2,35.44l-0.24-0.42l-0.72-0.24l0.97,2.32L62.2,35.44z"/>
<path d="M61.96,35.01v-0.4l0.78,0.48v0.65l-0.53-0.31L61.96,35.01z"/>
<path d="M61.96,35.01V34.1l-0.72-0.7v1.36L61.96,35.01z"/>
<path d="M61.72,37.48H60.6l0.05,0.89h1.06L61.72,37.48z"/>
<path d="M60.6,37.48h1.11l-1.06,0.89L60.6,37.48z"/>
<path d="M61.38,36.74l-0.78,0.27v0.46h1.08L61.38,36.74z"/>
<path d="M61.21,40.92v-1.61h-0.49l0.12,1.61H61.21z"/>
<path d="M61.21,33.4l-2.79-6.76l-0.05,0.93l-0.12,0.04l2.96,7.1V33.4z"/>
<path d="M59.98,30.81l0.88,2.09v0.54l-0.89-2.12L59.98,30.81z"/>
<path d="M58.7,27.76l0.88,2.09v0.54l-0.89-2.12L58.7,27.76z"/>
</g>
<g id="Main_Macrobinoculars_Brow_Recon" fill="rgb(15, 24, 15)">
<rect x="25.59" y="17.15" width="28.76" height="1.18"/>
<path d="M30.08,24.31l-0.01-1.83l1.27-1.37l0,1.8L30.08,24.31z"/>
<path d="M30.07,22.48l0.01,1.83h-6.44l0.79-1.83H30.07z"/>
<g>
<rect x="24.77" y="22.79" width="0.79" height="0.6"/>
<rect x="24.77" y="23.4" width="0.79" height="0.74"/>
</g>
<g>
<rect x="26.07" y="22.79" width="0.79" height="0.6"/>
<rect x="26.07" y="23.4" width="0.79" height="0.74"/>
</g>
<g>
<rect x="27.38" y="22.79" width="0.79" height="0.6"/>
<rect x="27.38" y="23.4" width="0.79" height="0.74"/>
</g>
<g>
<rect x="28.68" y="22.79" width="0.79" height="0.6"/>
<rect x="28.68" y="23.4" width="0.79" height="0.74"/>
</g>
<path d="M29.08,24.31l-3.51,3.05h-1.93v-3.05H29.08z"/>
<path d="M24.77,27.36l-0.97,0.88l-2.24-0.67l1.51-3.27h0.56v3.05H24.77z"/>
<path d="M21.56,27.58l-0.05-0.93V25.2l4.07-8.05v1.18l-1.16,4.15l-0.79,1.83h-0.56L21.56,27.58z"/>
<path d="M21.76,24.71v1.93l3.55-8.12v-0.75L21.76,24.71z"/>
<path d="M22.52,23.24l1.29-4.65l1.1,0.33c0,0,0.04,1.34-0.29,2.51c-0.2,0.69-0.89,2.07-0.89,2.07L22.52,23.24z"/>
<path d="M23.83,18.59c0.2,0.06,0.08,1.15-0.27,2.43c-0.35,1.28-0.81,2.28-1.01,2.22c-0.2-0.06-0.08-1.14,0.27-2.43 C23.16,19.52,23.62,18.53,23.83,18.59z"/>
<path d="M23.56,19.43c0.12,0.03,0.03,0.72-0.19,1.53c-0.22,0.81-0.5,1.44-0.62,1.41c-0.12-0.03-0.03-0.72,0.19-1.53 C23.16,20.03,23.44,19.4,23.56,19.43z"/>
<path d="M23.92,18.95l0.99,0.27"/>
<path d="M23.9,19.32l1,0.27"/>
<path d="M23.87,19.59l1.02,0.27"/>
<path d="M23.81,19.93l1.04,0.26"/>
<path d="M23.76,20.19l1.06,0.24"/>
<path d="M23.66,20.62l1.08,0.33"/>
<path d="M23.6,20.84l1.09,0.31"/>
<path d="M23.48,21.28l1.09,0.31"/>
<path d="M23.42,21.48l1.08,0.32"/>
<path d="M23.26,21.95l1.04,0.31"/>
<path d="M23.18,22.16l1.04,0.29"/>
<path d="M23.05,22.5l1.01,0.3"/>
<path d="M22.98,22.65l1.01,0.3"/>
<path d="M22.85,22.9l1.01,0.31"/>
<path d="M22.75,23.07l1.04,0.29"/>
<path d="M49.86,24.31l0.01-1.83l-1.27-1.37l0.01,1.8L49.86,24.31z"/>
<path d="M49.87,22.48l-0.01,1.83h6.44l-0.79-1.83H49.87z"/>
<path d="M50.86,24.31l3.51,3.05h1.93v-3.05H50.86z"/>
<path d="M55.17,27.36l0.97,0.88l2.24-0.67l-1.51-3.27H56.3v3.05H55.17z"/>
<path d="M58.38,27.58l0.05-0.93V25.2l-4.07-8.05v1.18l1.16,4.15l0.79,1.83h0.56L58.38,27.58z"/>
<path d="M58.18,24.71v1.93l-1.28-2.92h-0.6l-0.59-1.36l-1.09-3.84v-0.75L58.18,24.71z"/>
<path d="M25.59,18.33h28.76l1.16,4.15h-5.64l-1.27-1.37H31.34l-1.27,1.37h-5.64L25.59,18.33z"/>
<path d="M31.34,21.11H48.6l0.01,1.8l-0.45-0.43H31.78l-0.45,0.43L31.34,21.11z"/>
<path d="M55.01,23.07h-4.38v0.65h4.72L55.01,23.07z"/>
<path d="M55.26,19.49l0.22,0.52v0.55L55.26,20L55.26,19.49z"/>
<path d="M55.64,20.25l0.22,0.52v0.55l-0.23-0.56L55.64,20.25z"/>
<path d="M56.01,21.01l0.22,0.52v0.55L56,21.52L56.01,21.01z"/>
<path d="M56.38,21.76l0.22,0.52v0.55l-0.23-0.56L56.38,21.76z"/>
<rect x="51.46" y="16.55" width="2.55" height="0.6"/>
<path d="M51.46,16.67l-0.35,0.2v0.28h0.35V16.67z"/>
<path d="M54,16.67l0.35,0.2v0.28H54V16.67z"/>
</g>
<path fill="rgb(35, 51, 82)" id="Visor_Macrobinoculars_Brow_Recon" d="M53.58,17.43c0.07,0,0.14,0.03,0.19,0.08 c0.05,0.05,0.08,0.12,0.08,0.19c0,0.02,0,0.05,0,0.07c0,0.07-0.03,0.14-0.08,0.19c-0.05,0.05-0.12,0.08-0.19,0.08H26.36 c-0.07,0-0.14-0.03-0.19-0.08c-0.05-0.05-0.08-0.12-0.08-0.19c0-0.02,0-0.05,0-0.07c0-0.07,0.03-0.14,0.08-0.19 c0.05-0.05,0.12-0.08,0.19-0.08H53.58z"/>
</g>
</g></g>
<g id="HelmetsDecals" mask="url(#HelmetsMask)"/>
<g id="Shoulders">
<g id="Left-Shoulder"><g id="Legacy-x2_Shoulder_Left" class="option" style="display: inherit;">
<path id="Plate-2_Shoulder_Left_Legacy-x2" d="M112.95,15.27l-6.03,9.03l6.18,8.61l9.75-2.38l6.12,3.77l4.58-1.2 L112.95,15.27z" fill="rgb(15, 20, 12)"/>
<path id="Trauma-Plate-2_Shoulder_Legacy-x2_Left" class="toggle" style="" d="M129.25,32.41l2.96-0.77l-17.76-15.47l-5.39,8.05 l4.77,6.67l8.97-2.26L129.25,32.41z" fill="rgb(23, 31, 20)"/>
<path id="Plate-1_Shoulder_Left_Legacy-x2" d="M105.53,10.64l-2.71,10.49l8.68,6.12l8.43-5.43l7.03,1.57l3.93-2.63 L105.53,10.64z" fill="rgb(17, 22, 17)"/>
<path id="Trauma-Plate-1_Shoulder_Legacy-x2_Left" class="toggle" style="" d="M126.6,21.52l2.54-1.7l-21.9-8.79l-2.42,9.37 l6.72,4.74l7.72-5.07L126.6,21.52z" fill="rgb(20, 27, 18)"/>
</g></g>
<g id="Right-Shoulder"><g id="Gunslinger-Bell_Shoulder_Right" class="option" style="display: inherit;">
<path id="Main_Gunslinger-Bell_Shoulder_Right" d="M59.33,13.82c-6.4-0.15-20.68,4.95-20.11,23.11l0.08,3.59 l12.44,5.07L62.64,31.1l0-17.28L59.33,13.82z" fill="rgb(71, 80, 89)"/>
<path id="Ridge_Gunslinger-Bell_Shoulder_Right" class="toggle" d="M62.63,13.82L62.63,13.82l0-2.1 c-13.61-0.07-26.49,5.76-25.51,28.19l2.09,0.49c0.02-0.26,0.04-0.53,0.06-0.78l-0.06-2.69c-0.57-18.16,13.71-23.26,20.11-23.11 h0.71C61.45,13.62,62.41,13.67,62.63,13.82L62.63,13.82L62.63,13.82z" fill="rgb(22, 37, 21)"/>
<g id="Trim_Gunslinger-Bell_Shoulder_Right" class="toggle" fill="rgb(57, 64, 71)">
<rect x="59.33" y="13.01" width="3.31" height="18.12"/>
<path d="M59.33,30.01l3.31,1.09L51.72,45.61l-2.65-1.97L59.33,30.01z"/>
<path d="M50.62,41.58l1.16,4.03l-13.06-5.33v-3.56L50.62,41.58z"/>
</g>
</g></g>
</g>
<g id="ShouldersDecals" mask="url(#ShouldersMask)">
</g>
<g id="Gauntlets">
<g id="Left-Gauntlets"><g id="Gunslinger_Gauntlet_Left" class="option" style="display: inherit;">
<g id="Accent-Top_Gunslinger_Gauntlet_Left" fill="rgb(57, 64, 71)">
<path d="M136.82,78.71l0.16,5.87l-3.02,0.58l-0.23-5.57L136.82,78.71z"/>
<path d="M133.63,100.15l0.34,3.02l-2.65,0.34l-0.37-3.01L133.63,100.15z"/>
</g>
<path id="Top_Gunslinger_Gauntlet_Left" d="M136.82,78.71l1.38-0.39l0.12,27.45l-6.61,0.83l-0.53-4.3l0.15,1.22 l2.65-0.34l-0.34-3.02l-2.68,0.35l-2.4-19.44L136.82,78.71l-3.09,0.88l0.23,5.57l3.02-0.58L136.82,78.71z" fill="rgb(71, 80, 89)"/>
<g id="Accent-Bottom_Gunslinger_Gauntlet_Left" fill="rgb(48, 54, 59)">
<path d="M124.09,89.56l-0.57-2.44l-1.72,0.4l0.57,2.44L124.09,89.56z"/>
<path d="M124.74,92.34l-0.57-2.45l-1.73,0.4l0.57,2.44L124.74,92.34z"/>
<path d="M130.96,100.5l-5.9,0.77l0.7,2.97l5.58-0.72L130.96,100.5z"/>
</g>
<path id="Bottom_Gunslinger_Gauntlet_Left" d="M131.28,103.07l-0.32-2.58l-5.9,0.77l0.7,2.97l5.58-0.72l0.38,3.08 c0,0-2.07,0.19-3.62,0.33c-0.97,0.09-1.86-0.55-2.08-1.49c-1.21-5.14-4.86-20.61-4.86-20.61l7.45-3.37L131.28,103.07z M124.74,92.34l-0.57-2.45l-1.73,0.4l0.57,2.44L124.74,92.34z M124.09,89.56l-0.57-2.44l-1.72,0.4l0.57,2.44L124.09,89.56z" fill="rgb(57, 64, 71)"/><g id="Flamethrower_Attachment_Gunslinger_Gauntlet_Left" class="option" style="display: inherit;">
<g id="Tubes_Flamethrower_Attachment_Gunslinger_Gauntlet_Left" fill="rgb(103, 103, 103)">
<path d="M139.68,80.04l-0.87,0l0.02,26.23h0.87L139.68,80.04z"/>
<path d="M141.67,80.04l-0.87,0l0.01,18.8l0.87,0L141.67,80.04z"/>
<path d="M139.85,81.68l-1.19,0l0.01,6.25l1.19,0L139.85,81.68z"/>
<path d="M141.83,81.68l-1.19,0l0.01,6.25l1.19,0L141.83,81.68z"/>
</g>
<g id="Main_Flamethrower_Attachment_Gunslinger_Gauntlet_Left" fill="rgb(81, 81, 81)">
<path d="M142.04,80.04l-3.56,0l0,1.64l3.56,0L142.04,80.04z"/>
<path d="M142.13,87.93l-3.72,0l0,1l3.72,0V87.93z"/>
<path d="M141.97,88.93l-3.41,0v0.5l3.41,0L141.97,88.93z"/>
<path d="M138.78,87.31l-0.57,0.02l0.01,3.05l0.58-0.02L138.78,87.31z"/>
</g>
<g id="Accent_Flamethrower_Attachment_Gunslinger_Gauntlet_Left" fill="rgb(88, 88, 88)">
<path d="M141.71,98.84l-0.93,0l-0.14,1.29l1.21,0L141.71,98.84z"/>
<path d="M142.07,92.16l-1.65,0l0,1.99l1.65,0L142.07,92.16z"/>
<path d="M141.84,94.15l-1.19,0l0,1.99l1.19,0L141.84,94.15z"/>
<path d="M139.87,102.95l-1.19,0l0,2.73l1.19,0L139.87,102.95z"/>
<path d="M139.86,94.15l-1.19,0l0,3.71l1.19,0L139.86,94.15z"/>
<path d="M140.09,104.32l-1.65,0v0.53l1.65,0V104.32z"/>
</g>
<path id="Base_Flamethrower_Attachment_Gunslinger_Gauntlet_Left" d="M138.21,87.33l-0.02-8.28l0.99,0.39l0.04,14 l-0.99,0.45l-0.01-3.5l0.58-0.02l-0.01-3.05L138.21,87.33z" fill="rgb(80, 80, 80)"/>
</g></g></g>
<g id="Right-Gauntlets"><g id="Gunslinger_Gauntlet_Right" class="option" style="display: inherit;">
<g id="Accent-Top_Gunslinger_Gauntlet_Right" fill="rgb(57, 64, 71)">
<path d="M33.12,78.71l-0.16,5.87l3.02,0.58l0.23-5.57L33.12,78.71z"/>
<path d="M36.31,100.15l-0.34,3.02l2.65,0.34l0.37-3.01L36.31,100.15z"/>
</g>
<path id="Top_Gunslinger_Gauntlet_Right" d="M33.12,78.71l-1.38-0.39l-0.12,27.45l6.61,0.83l0.53-4.3l-0.15,1.22 l-2.65-0.34l0.34-3.02l2.67,0.35l2.4-19.44L33.12,78.71l3.09,0.88l-0.23,5.57l-3.02-0.58L33.12,78.71z" fill="rgb(71, 80, 89)"/>
<g id="Accent-Bottom_Gunslinger_Gauntlet_Right" fill="rgb(48, 54, 59)">
<path d="M45.85,89.56l0.57-2.44l1.72,0.4l-0.57,2.44L45.85,89.56z"/>
<path d="M45.2,92.34l0.57-2.45l1.72,0.4l-0.57,2.44L45.2,92.34z"/>
<path d="M38.99,100.5l5.91,0.77l-0.7,2.97l-5.58-0.72L38.99,100.5z"/>
</g>
<path id="Bottom_Gunslinger_Gauntlet_Right" d="M38.67,103.07l0.32-2.58l5.91,0.77l-0.7,2.97l-5.58-0.72 l-0.38,3.08c0,0,2.07,0.19,3.62,0.33c0.97,0.09,1.85-0.55,2.08-1.49c1.21-5.14,4.86-20.61,4.86-20.61l-7.45-3.37L38.67,103.07z M45.2,92.34l0.57-2.45l1.72,0.4l-0.57,2.44L45.2,92.34z M45.85,89.56l0.57-2.44l1.72,0.4l-0.57,2.44L45.85,89.56z" fill="rgb(57, 64, 71)"/><g id="No-Device_Attachment_Gunslinger_Gauntlet_Right" class="option" style="display: inherit;">
</g>
</g></g>
</g>
<g id="GauntletsDecals" mask="url(#GauntletsMask)">
</g>
<g id="Shins">
<g id="Left-Shin"><g id="Heavy-Shnees_Shin_Left" class="option" style="display: inherit;">
<g id="Shin_Heavy-Shnees-Shin_Left" fill="rgb(19, 25, 17)">
<path d="M111.54,227.68l5.17-6.09l8.89-0.62l-3.48-57.95l-25.35,1.91l10.15,54.02l-0.19,5.85L111.54,227.68"/>
<path d="M100.76,163.84l-2.61-2.36l-1.8-0.09c0,0-1.09,5.09-1.03,7.65c0.09,4.14,4.03,9.62,4.03,9.62l2.72,1.45 l3.47-7.04L100.76,163.84"/>
<path d="M119.31,170.53l2.13-8.56c0,0,2.26,5.01,2.38,7.57c0.2,4.54-0.85,7.47-0.85,7.47L119.31,170.53"/>
<path d="M116.71,221.59l8.89-0.62l-1.97-4.53l-6.06,0.25L116.71,221.59"/>
<path d="M120.49,216.57l-5.22-38.23"/>
</g>
<g id="Knee_Heavy-Shnees-Shin_Left" fill="rgb(15, 20, 12)">
<path d="M117.17,154.03l-14.3,1.68l-2.62,10.15l9.81,13.07l9.45-0.88l3.77-15.36L117.17,154.03"/>
<path d="M102.86,155.71l2.86,3.83l11.07-1.18l0.38-4.33L102.86,155.71"/>
<path d="M105.72,159.54l-5.47,6.29l2.62-10.12L105.72,159.54"/>
<path d="M116.79,158.36l6.48,4.35l-6.1-8.68L116.79,158.36"/>
<path d="M116.79,158.36l2.71,19.71l3.77-15.36L116.79,158.36"/>
<path d="M105.72,159.54l-5.48,6.29l9.81,13.11L105.72,159.54"/>
</g>
<g id="Straps_Heavy-Shnees-Shin_Left" class="toggle" fill="rgb(20, 18, 17)">
<path d="M100.68,187.7l5.46-0.63l0.44,2.46l-5.46,0.63L100.68,187.7"/>
<path d="M101.05,187.46l1.16-0.13l0.53,2.91l-1.15,0.13L101.05,187.46"/>
<path d="M105.09,211.51l5.46-0.63l0.44,2.46l-5.46,0.63L105.09,211.51"/>
<path d="M105.46,211.27l1.15-0.13l0.53,2.92l-1.15,0.13L105.46,211.27"/>
</g>
</g></g>
<g id="Right-Shin"><g id="Heavy-Shnees_Shin_Right" class="option" style="display: inherit;">
<g id="Shin_Heavy-Shnees-Shin_Right" fill="rgb(19, 25, 17)">
<path d="M58.67,227.68l-5.17-6.09l-8.89-0.62l3.46-57.95l25.35,1.89l-10.13,54.02l0.19,5.85L58.67,227.68"/>
<path d="M69.42,163.84l2.61-2.36l1.8-0.09c0,0,1.09,5.09,1.04,7.65c-0.09,4.14-4.03,9.62-4.03,9.62l-2.72,1.45 l-3.48-7.04L69.42,163.84"/>
<path d="M50.88,170.53l-2.13-8.57c0,0-2.26,5.01-2.37,7.57c-0.2,4.54,0.85,7.48,0.85,7.48L50.88,170.53"/>
<path d="M53.5,221.59l-8.89-0.62l1.97-4.53l6.06,0.24L53.5,221.59"/>
<path d="M49.71,216.57l5.21-38.23"/>
</g>
<g id="Knee_Heavy-Shnees-Shin_Right" fill="rgb(15, 20, 12)">
<path d="M53.02,154.03l14.3,1.68l2.63,10.15l-9.81,13.08l-9.45-0.87l-3.77-15.36L53.02,154.03"/>
<path d="M67.32,155.71l-2.86,3.83l-11.06-1.18l-0.38-4.33L67.32,155.71"/>
<path d="M64.46,159.54l5.48,6.29l-2.62-10.12L64.46,159.54"/>
<path d="M53.4,158.36l-6.48,4.35l6.1-8.68L53.4,158.36"/>
<path d="M53.4,158.36l-2.71,19.71l-3.77-15.36L53.4,158.36"/>
<path d="M64.46,159.54l5.48,6.29l-9.81,13.11L64.46,159.54"/>
</g>
<g id="Straps_Heavy-Shnees-Shin_Right" class="toggle" fill="rgb(20, 18, 17)">
<path d="M69.52,187.69l-5.46-0.63l-0.44,2.46l5.46,0.63L69.52,187.69"/>
<path d="M69.15,187.45l-1.16-0.13l-0.52,2.92l1.16,0.13L69.15,187.45"/>
<path d="M65.12,211.51l-5.46-0.63l-0.44,2.46l5.46,0.63L65.12,211.51"/>
<path d="M64.75,211.27l-1.16-0.13l-0.52,2.92l1.15,0.13L64.75,211.27"/>
</g>
</g></g>
</g>
<g id="ShinsDecals" mask="url(#ShinsMask)">
</g>
<g id="Foot">
<g id="Left-Ankle"><g id="Legacy_Ankle_Left" class="option" style="display: inherit;">
<path id="Plate-2_Legacy-Ankle_Left" d="M124.5,223.42l3.77,3.39l2.6,3.25l-4.16,1.34l-9.52-1.97l-3.48-4.58 L124.5,223.42" fill="rgb(14, 20, 12)"/>
<path id="Plate-1_Legacy-Ankle_Left" d="M107.38,217.05c0,0,3.8,1.69,9.42,1.49c3.86-0.14,5.42-1.1,5.42-1.1 l3.27,6.02l-0.85,3.32l-13.76-1.08l-3.39-2.85L107.38,217.05" fill="rgb(14, 20, 12)"/>
<path id="Trauma-Plate-2_Legacy-Ankle_Left" class="toggle" style="" d="M125.31,224.15l2.94,2.64l1.52,1.89l-3.16,1.02 l-8.38-1.73l-1.38-1.81l7.79,0.61L125.31,224.15" fill="rgb(25, 30, 23)"/>
<path id="Trauma-Plate-1_Legacy-Ankle_Left" class="toggle" style="" d="M108.82,219.15l0.06,2.76l2.74,2.21l12.1,0.95l0.86-3.32 l-1.54-2.84c-1.02,0.29-4.12,1.18-6.16,1.26C113.64,220.28,110.62,219.62,108.82,219.15" fill="rgb(25, 30, 23)"/>
</g></g>
<g id="Left-Toe">
<g id="Armored_Toe_Left" class="option" style="display: inherit;">
<g id="Plate_Armored_Toe_Left" fill="rgb(25, 30, 23)">
<path d="M115.81,232.98l10,5.52l7.55,0.51l6.05-1.53c1.27-1.05,1.77-3.41,0.69-5.76l-8.53-4.03l-6.69,1.67 L115.81,232.98"/>
<path d="M124.19,229.66c0,0,7.8,2.27,8.77,3.62c1.08,1.49,0.4,5.74,0.4,5.74"/>
</g>
<g id="Trim_Armored_Toe_Left" fill="rgb(14, 20, 12)">
<path d="M130.41,227.04l-8.03,1.93l-6.78,4.09l1.4,0.77l7.18-4.18l7.99-1.87L130.41,227.04"/>
<path d="M122.38,228.97l1.8,0.69"/>
</g>
</g></g>
<g id="Right-Ankle"><g id="Legacy_Ankle_Right" class="option" style="display: inherit;">
<path id="Plate-2_Legacy-Ankle_Right" d="M45.56,223.42l-3.77,3.39l-2.6,3.25l4.16,1.34l9.52-1.97l3.48-4.58 L45.56,223.42" fill="rgb(14, 20, 12)"/>
<path id="Plate-1_Legacy-Ankle_Right" d="M62.68,217.05c0,0-3.8,1.69-9.42,1.49c-3.86-0.14-5.43-1.1-5.43-1.1 l-3.27,6.02l0.85,3.32l13.76-1.08l3.39-2.85L62.68,217.05" fill="rgb(14, 20, 12)"/>
<path id="Trauma-Plate-2_Legacy-Ankle_Right" class="toggle" style="" d="M44.75,224.15l-2.94,2.64l-1.52,1.89l3.16,1.02 l8.38-1.73l1.38-1.81l-7.79,0.61L44.75,224.15" fill="rgb(25, 30, 23)"/>
<path id="Trauma-Plate-1_Legacy-Ankle_Right" class="toggle" style="" d="M61.24,219.15l-0.06,2.76l-2.74,2.21l-12.1,0.95 l-0.86-3.32l1.54-2.84c1.02,0.29,4.12,1.18,6.16,1.26C56.42,220.28,59.44,219.62,61.24,219.15" fill="rgb(25, 30, 23)"/>
</g></g>
<g id="Right-Toe">
<g id="Armored_Toe_Right" class="option" style="display: inherit;">
<g id="Plate_Armored_Toe_Right" fill="rgb(25, 30, 23)">
<path d="M54.19,232.98l-10,5.52l-7.55,0.51l-6.05-1.53c-1.27-1.05-1.77-3.41-0.69-5.76l8.53-4.03l6.69,1.67 L54.19,232.98"/>
<path d="M45.81,229.66c0,0-7.8,2.27-8.77,3.62c-1.08,1.49-0.4,5.74-0.4,5.74"/>
</g>
<g id="Trim_Armored_Toe_Right" fill="rgb(14, 20, 12)">
<path d="M39.59,227.04l8.03,1.93l6.77,4.09l-1.4,0.77l-7.18-4.18l-7.99-1.87L39.59,227.04"/>
<path d="M47.62,228.97l-1.8,0.69"/>
</g>
</g></g>
</g>
<g id="FootDecals" mask="url(#FootMask)">
</g>
<g id="Knees">
<g id="Left-Knee">
<g id="None-(Nih-Plates)_Knee_Left" class="option" style="display: inherit;">
</g></g>
<g id="Right-Knee">
<g id="None-(Nih-Plates)_Knee_Right" class="option" style="display: inherit;">
</g></g>
</g>
<g id="KneesDecals" mask="url(#KneesMask)">
</g>
<g id="Thighs">
<g id="Left-Thigh"><g id="Basic_Thigh_Left" class="option" style="display: inherit;">
<path id="Thigh_Basic-Thigh_Left" d="M119.66,114.13c0,0-5.22-6.67-7.89-7.78c-2.53-1.05-5.91-0.6-8.08,1.13 c-3.31,2.64-10.92,8.35-11.78,14.71c-0.96,7.1,4.24,22.8,6,27.87c0.6,1.72,2.87,2.51,4.61,2.57c3.22,0.12,12.01-0.15,14.11-4.87 C119.49,141.34,119.66,114.13,119.66,114.13" fill="rgb(15, 20, 12)"/>
<path id="Trauma-Plate_Basic-Thigh_Left" class="toggle" style="" d="M117.89,114.74c-0.78-0.97-2.65-3.22-4.46-4.95 c-0.86-0.82-1.68-1.54-2.34-1.82c-1.97-0.82-4.61-0.47-6.3,0.88c-1.92,1.53-5.35,4.12-7.95,7.29c-1.58,1.92-2.88,4.05-3.18,6.29 c-0.94,6.9,4.2,22.13,5.92,27.06c0.15,0.43,0.56,0.7,0.99,0.91c0.64,0.31,1.38,0.46,2.02,0.49c1.8,0.07,5.47,0.02,8.54-1 c1.7-0.56,3.24-1.38,3.89-2.83c0.81-1.82,1.35-5.42,1.77-9.56C117.68,128.66,117.86,117.46,117.89,114.74" fill="rgb(19, 25, 17)"/>
<g id="Ridge_Basic-Thigh_Left" class="toggle" style="" fill="rgb(15, 20, 12)">
<path d="M110.85,105.79l-3.61-0.92l-3.78,2.07l1.23,45.7c2.49,0.48,2.53,0.57,4.71-0.08L110.85,105.79"/>
<path d="M107.27,104.87l-0.1,48.14"/>
</g>
</g>
</g>
<g id="Right-Thigh"><g id="Basic_Thigh_Right" class="option" style="display: inherit;">
<path id="Thigh_Basic-Thigh_Right" d="M50.34,114.13c0,0,5.22-6.67,7.89-7.78c2.53-1.05,5.91-0.6,8.08,1.13 c3.31,2.64,10.92,8.35,11.78,14.71c0.96,7.1-4.24,22.8-6,27.87c-0.6,1.72-2.87,2.51-4.61,2.57c-3.22,0.12-12.01-0.15-14.11-4.87 C50.51,141.34,50.34,114.13,50.34,114.13" fill="rgb(15, 20, 12)"/>
<path id="Trauma-Plate_Basic-Thigh_Right" class="toggle" style="" d="M52.11,114.74c0.78-0.97,2.65-3.22,4.46-4.95 c0.86-0.82,1.68-1.54,2.33-1.82c1.97-0.82,4.61-0.47,6.3,0.88c1.92,1.53,5.35,4.12,7.95,7.29c1.58,1.92,2.88,4.05,3.18,6.29 c0.94,6.9-4.2,22.13-5.92,27.06c-0.15,0.43-0.56,0.7-0.99,0.91c-0.64,0.31-1.38,0.46-2.02,0.49c-1.8,0.07-5.47,0.02-8.54-1 c-1.7-0.56-3.24-1.38-3.89-2.83c-0.81-1.82-1.35-5.42-1.77-9.56C52.32,128.66,52.14,117.46,52.11,114.74" fill="rgb(19, 25, 17)"/>
<g id="Ridge_Basic-Thigh_Right" class="toggle" style="" fill="rgb(15, 20, 12)">
<path d="M59.15,105.79l3.61-0.92l3.78,2.07l-1.23,45.7c-2.49,0.48-2.53,0.57-4.71-0.08L59.15,105.79"/>
<path d="M62.73,104.87l0.1,48.14"/>
</g>
</g>
</g>
</g>
<g id="ThighsDecals" mask="url(#ThighsMask)">
</g>
<g id="Groin"><g id="Basic_Groin" class="option" style="display: inherit;">
<path id="Groin-Plate_Basic" d="M78.57,104.6L67.72,82.91h34.71L91.58,104.6c0,0-4.33,5.17-6.5,5.17 C82.91,109.76,78.57,104.6,78.57,104.6z" fill="rgb(20, 20, 20)"/>
<path id="Trauma-Plating_Groin" class="toggle" style="" d="M90.42,103.84l9.8-19.57H69.93l9.79,19.57c0.43,0.5,2.16,2.47,3.82,3.72 c0.58,0.44,1.1,0.84,1.53,0.84c0.44,0,0.95-0.4,1.53-0.84C88.26,106.32,89.99,104.34,90.42,103.84" fill="rgb(19, 25, 17)"/>
</g>
</g>
<g id="GroinDecals" mask="url(#GroinMask)">
</g>
<g id="Waist">
<g id="Accessories_Waist">
<g id="Kama" class="toggle" style=""><g id="Tattered_Kama" class="option" style="display: inherit;">
<g id="Main_Kama-Tattered" fill="rgb(12, 17, 12)">
<path d="M105.73,79.21c1.46-0.33,0.81,5.35,4.07,9.76c1.99,2.69,4.66,7.14,5.19,9.61 c0.63,2.94,2.52,5.91,3.26,8.85c1.29,5.11,3.04,10.08,4.12,15.1c0.86,4.02,0.57,8.28,1.53,12.31c0.72,3.04,0.26,5.69,1.26,8.6 c1.11,3.26-1.13,6.52-0.32,9.87c0.49,2.04,0.09,4,0.73,6c0.22,0.68,0.4,1.35,0.57,2.04c0.05,0.21,0.1,0.42,0.15,0.63 c0.03,0.13,0.17,0.47,0.08,0.38c-0.67-0.61-1.04-1.76-1.67-2.48c-1.22-1.39-2.76-2.43-3.92-3.9c-0.45-0.57-0.8-1.19-1.11-1.84 c-0.03-0.06-0.23-0.55-0.26-0.55c-2.37,0.51-4.74,1.43-6.75-0.63c-1.6-1.64-2.99-5.17-3.81-7.36 c-0.34-0.92,0.12-6.32-0.49-6.83c-0.45-0.37-0.86,4.49-1.4,4.16c-3.41-2.06-8.25-3.29-8.25-3.29s-0.38-6.89-0.1-10.83 c0.25-3.54-0.24-6.62-0.75-10.08c-0.66-4.48-0.58-9.09-0.28-13.59C98.05,97.84,92.59,82.18,105.73,79.21z M113.54,145.48 c-0.42,1.82-0.46,3.9,0.55,5.54c0.34,0.55,1.18,1.42,1.92,1.19c3.1-0.98-0.7-5.88-1.7-6.97L113.54,145.48z M104.43,132.18 c-0.56,0.35-1.04,0.76-1.45,1.3c-1.47,1.91,2.57,0.96,1.87-1.37L104.43,132.18z"/>
<path d="M64.35,79.21c-1.46-0.33-1.17,5.1-4.07,9.76c-1.91,3.07-4.66,7.14-5.19,9.61 c-0.63,2.94-2.52,5.91-3.26,8.85c-1.29,5.11-3.04,10.08-4.12,15.1c-0.86,4.02-0.57,8.28-1.53,12.31 c-0.72,3.04-0.26,5.69-1.26,8.6c-1.12,3.26,1.13,6.52,0.32,9.87c-0.49,2.04-0.09,4-0.73,6c-0.22,0.68-0.4,1.35-0.57,2.04 c-0.05,0.21-0.1,0.42-0.15,0.63c-0.03,0.13-0.17,0.47-0.08,0.38c0.67-0.61,1.04-1.76,1.67-2.48c1.22-1.39,2.76-2.43,3.92-3.9 c0.45-0.57,0.8-1.19,1.11-1.84c0.03-0.06,0.23-0.55,0.26-0.55c2.37,0.51,4.73,1.43,6.76-0.63c1.6-1.64,2.99-5.17,3.81-7.36 c0.34-0.92-0.12-6.32,0.49-6.83c0.45-0.37,0.86,4.49,1.41,4.16c3.41-2.06,8.25-3.29,8.25-3.29s0.38-6.89,0.1-10.83 c-0.25-3.54,0.24-6.62,0.75-10.08c0.66-4.48,0.58-9.09,0.28-13.59C72.03,97.84,77.49,82.18,64.35,79.21z M56.54,145.48 c0.42,1.82,0.46,3.9-0.55,5.54c-0.34,0.55-1.18,1.42-1.92,1.19c-3.1-0.98,0.7-5.88,1.7-6.97L56.54,145.48z M65.65,132.18 c0.56,0.35,1.04,0.76,1.45,1.3c1.47,1.91-2.57,0.96-1.87-1.37L65.65,132.18z"/>
</g>
</g>
</g>
<g id="Loin-Cloth" class="toggle" style="display:none"/>
<g id="Left-Holster" class="toggle" style="display:none"/>
<g id="Right-Holster" class="toggle" style="">
<g id="Thigh-Plate-Holster_Right" class="option" style="display: inherit;">
<g id="Weapon_Thigh-Plate-Holster-Right">
<g id="Main_Weapon_Thigh-Plate-Holster-Right" fill="rgb(73, 73, 73)">
<path d="M53.7,109.03l-0.24-3.73l-0.65,0.04l-0.15-2.35l0.65-0.04l-0.08-1.22c-0.03-0.4-0.58-0.68-1.24-0.64 c-1.5,0.1-4.08,0.26-5.58,0.36c-0.66,0.04-1.17,0.4-1.14,0.8l0.08,1.22l0.65-0.04l0.15,2.35l-0.65,0.04l0.25,3.73l1.52-0.1 l0.68,10.34l4.92-0.32l-0.68-10.33L53.7,109.03z"/>
<path d="M46.36,108.96l0.87-0.06l0.82,12.42l4.92-0.32l-0.82-12.42l0.87-0.06l-0.19-2.83l-6.66,0.43L46.36,108.96 z"/>
<path d="M47.28,102.21l3.94-0.26l0.25,3.83l-3.94,0.26L47.28,102.21z"/>
<path d="M51.09,109.78l0.65-0.04l0.64,9.76l-0.65,0.04L51.09,109.78z"/>
<path d="M49.29,107.65l0.65-0.04l0.9,13.71l-0.65,0.04L49.29,107.65z"/>
<path d="M47.79,109.99l0.65-0.04l0.71,10.84l-0.65,0.04L47.79,109.99z"/>
</g>
<g id="Accent_Weapon_Thigh-Plate-Holster-Right" fill="rgb(41, 40, 40)">
<path d="M50.09,109.84l1-0.06l0.64,9.77l-1,0.07L50.09,109.84z"/>
<path d="M48.43,109.95l1.01-0.06l0.71,10.84l-1.01,0.07L48.43,109.95z"/>
<path d="M50.58,101.99l0.65-0.04l0.25,3.83l-0.65,0.04L50.58,101.99z"/>
<path d="M47.28,102.21l0.65-0.04l0.25,3.83l-0.65,0.04L47.28,102.21z"/>
<path d="M50.92,106.21l0.03,0.39l-2.78,0.18l-0.03-0.39L50.92,106.21z"/>
<path d="M50.94,106.6l0.03,0.39l-2.78,0.18l-0.02-0.39L50.94,106.6z"/>
<path d="M50.89,105.82l0.03,0.39l-2.78,0.18L48.11,106L50.89,105.82z"/>
<path d="M50.58,101.01l0.03,0.39l-2.78,0.18l-0.02-0.39L50.58,101.01z"/>
</g>
</g>
<path id="Holster_Thigh-Plate-Holster-Right" d="M47.01,120.66l3.49-0.24l1.95-7.05l1.06-0.07l2.14,31.33 c0,0,0,0,0,0c-3.85,0.26-7.18-2.65-7.45-6.5C47.7,130.9,47.01,120.66,47.01,120.66z" fill="rgb(14, 17, 12)"/>
</g></g>
<g id="Left-Trophy" class="toggle" style="display:none"/>
<g id="Right-Trophy" class="toggle" style="display:none"/>
</g>
<g id="Under-Belt"><g id="Girth-Belt" class="option" fill="rgb(9, 15, 8)" style="display: inherit;">
<path d="M85.04,76.62c-7.36,0-22.09-1.86-22.09-1.86l0.48-1.58c0,0,14.37,1.24,21.61,1.86 c7.21-0.62,21.61-1.86,21.61-1.86l0.48,1.58C107.13,74.76,92.4,76.62,85.04,76.62z"/>
<path d="M85.04,78.2c-7.52,0-22.55-1.86-22.55-1.86l0.46-1.58c0,0,18.41,1.55,22.09,1.86 c3.68-0.31,22.09-1.86,22.09-1.86l0.46,1.58C107.59,76.34,92.56,78.2,85.04,78.2z"/>
<path d="M85.04,79.78c-7.63,0-22.9-1.86-22.9-1.86l0.34-1.58c0,0,18.79,1.55,22.55,1.86 c3.76-0.31,22.55-1.86,22.55-1.86l0.34,1.58C107.94,77.92,92.67,79.78,85.04,79.78z"/>
<path d="M85.04,81.36c-7.73,0-23.18-1.86-23.18-1.86l0.29-1.58c0,0,19.08,1.55,22.9,1.86 c3.82-0.31,22.9-1.86,22.9-1.86l0.29,1.58C108.22,79.49,92.77,81.36,85.04,81.36z"/>
<path d="M85.04,82.94c-7.81,0-23.44-1.86-23.44-1.86l0.26-1.58c0,0,19.32,1.55,23.18,1.86 c3.86-0.31,23.18-1.86,23.18-1.86l0.26,1.58C108.49,81.07,92.86,82.94,85.04,82.94z"/>
<path d="M85.04,84.52c-7.9,0-23.69-1.86-23.69-1.86l0.25-1.58c0,0,19.54,1.55,23.44,1.86 c3.91-0.31,23.44-1.86,23.44-1.86l0.25,1.58C108.73,82.65,92.94,84.52,85.04,84.52z"/>
<path d="M85.04,86.1c-7.98,0-23.93-1.86-23.93-1.86l0.24-1.58c0,0,19.74,1.55,23.69,1.86 c3.95-0.31,23.69-1.86,23.69-1.86l0.24,1.58C108.97,84.23,93.02,86.1,85.04,86.1z"/>
<path d="M85.04,87.68c-8.06,0-24.18-1.86-24.18-1.86l0.25-1.58c0,0,19.94,1.55,23.93,1.86 c3.99-0.31,23.93-1.86,23.93-1.86l0.25,1.58C109.22,85.81,93.1,87.68,85.04,87.68z"/>
<path d="M85.04,89.25c-8.15,0-24.45-1.86-24.45-1.86l0.27-1.58c0,0,20.15,1.55,24.18,1.86 c4.03-0.31,24.18-1.86,24.18-1.86l0.27,1.58C109.49,87.39,93.19,89.25,85.04,89.25z"/>
<path d="M85.04,90.83c-8.25,0-24.76-1.86-24.76-1.86l0.31-1.58c0,0,20.38,1.55,24.45,1.86 c4.08-0.31,24.45-1.86,24.45-1.86l0.31,1.58C109.8,88.97,93.29,90.83,85.04,90.83z"/>
</g>
</g>
<g id="Belt"><g id="Pouch-Belt-4" class="option" style="display: inherit;">
<path id="Main_Pouch-Belt-4" d="M109.38,84.25c-5.47,0.49-17.98,2.27-24.29,2.27c-6.38,0-18.88-1.79-24.28-2.26 l0.81-6.37c4.44,0.39,17.3,2.2,23.48,2.2c5.99,0,18.59-1.79,23.33-2.22L109.38,84.25z" fill="rgb(10, 10, 9)"/>
<rect id="Buckle_Pouch-Belt-4" x="80.61" y="79.49" width="9.05" height="7.39" fill="rgb(71, 80, 89)"/>
<g id="Pouches_Pouch-Belt-4" fill="rgb(25, 19, 17)">
<g>
<g>
<path d="M66.42,76.75c-1.32-0.09-2.64,0.14-3.85,0.67h0l5.92,0.34L70.1,77C70.1,77,68.06,76.86,66.42,76.75z"/>
<path d="M70.3,77.24c0.01-0.07-0.03-0.14-0.09-0.19c-0.06-0.04-0.14-0.05-0.21-0.02 c-0.53,0.25-1.52,0.72-1.52,0.72s-0.64,7.72-0.79,9.57c-0.01,0.08,0.03,0.15,0.09,0.19c0.06,0.04,0.14,0.04,0.21,0.01 c0.54-0.29,1.06-0.47,1.59-0.56c0.1-0.02,0.17-0.1,0.17-0.19C69.87,83.59,69.99,80.41,70.3,77.24z"/>
<path d="M68.49,77.76l-5.92-0.34c-0.04,1.51-0.18,3.02-0.26,4.54c-0.09,1.75-0.13,3.51-0.3,5.28 c-0.01,0.06,0.01,0.12,0.05,0.16c0.04,0.04,0.1,0.07,0.15,0.07c1.83-0.02,3.66,0.08,5.47,0.31c0.06,0.01,0.11-0.01,0.16-0.04 s0.07-0.09,0.08-0.14c0.06-0.93,0.31-4.51,0.31-4.51L68.49,77.76z"/>
<path d="M68.49,77.76l-5.92-0.34c0,0-0.08,0.74-0.19,1.64c-0.1,0.83,0.16,1.67,0.7,2.31 c0.54,0.64,1.33,1.03,2.17,1.08c0,0,0,0,0,0c0.84,0.05,1.67-0.25,2.28-0.83c0.61-0.58,0.96-1.38,0.96-2.22 C68.49,78.5,68.49,77.76,68.49,77.76z"/>
<path d="M65.32,81.27c0.21,0.01,0.37,0.21,0.36,0.44c-0.01,0.23-0.19,0.4-0.4,0.39s-0.37-0.21-0.36-0.44 C64.93,81.43,65.11,81.26,65.32,81.27z"/>
</g>
</g>
<g>
<path d="M58.83,77.31l0.44-0.68l2.27,0.07l0.28,0.85L58.83,77.31z"/>
<path d="M61.81,77.64c0.01-0.06-0.01-0.11-0.05-0.16c-0.04-0.04-0.09-0.07-0.15-0.07 c-0.69-0.03-2.78-0.11-2.78-0.11l-0.4,8.96c0.11,0.27,1.76,0.43,2.69,0.39c0.11-0.01,0.19-0.09,0.19-0.2 C61.37,83.51,61.47,80.57,61.81,77.64z"/>
</g>
<g>
<g>
<path d="M103.76,76.75c1.32-0.09,2.64,0.14,3.85,0.67h0l-5.92,0.34L100.08,77 C100.08,77,102.13,76.86,103.76,76.75z"/>
<path d="M99.88,77.24c-0.01-0.07,0.03-0.14,0.09-0.19c0.06-0.04,0.14-0.05,0.21-0.02 c0.53,0.25,1.52,0.72,1.52,0.72s0.64,7.72,0.79,9.57c0.01,0.08-0.03,0.15-0.09,0.19c-0.06,0.04-0.14,0.04-0.21,0.01 c-0.54-0.29-1.06-0.47-1.59-0.56c-0.1-0.02-0.17-0.1-0.17-0.19C100.31,83.59,100.19,80.41,99.88,77.24z"/>
<path d="M101.69,77.76l5.92-0.34c0.04,1.51,0.18,3.02,0.26,4.54c0.09,1.75,0.13,3.51,0.3,5.28 c0,0.06-0.01,0.12-0.05,0.16c-0.04,0.04-0.1,0.07-0.15,0.07c-1.83-0.02-3.66,0.08-5.47,0.31c-0.06,0.01-0.11-0.01-0.16-0.04 s-0.07-0.09-0.08-0.14c-0.06-0.93-0.31-4.51-0.31-4.51L101.69,77.76z"/>
<path d="M101.69,77.76l5.92-0.34c0,0,0.08,0.74,0.19,1.64c0.09,0.83-0.16,1.67-0.7,2.31 c-0.54,0.64-1.33,1.03-2.17,1.08c0,0,0,0,0,0c-0.84,0.05-1.67-0.25-2.28-0.83c-0.61-0.58-0.96-1.38-0.96-2.22 C101.69,78.5,101.69,77.76,101.69,77.76z"/>
<path d="M104.86,81.27c-0.21,0.01-0.37,0.21-0.36,0.44c0.01,0.23,0.19,0.4,0.4,0.39s0.37-0.21,0.36-0.44 C105.25,81.43,105.07,81.26,104.86,81.27z"/>
</g>
</g>
<g>
<path d="M111.35,77.31l-0.44-0.68l-2.27,0.07l-0.28,0.85L111.35,77.31z"/>
<path d="M108.38,77.64c-0.01-0.06,0.01-0.11,0.05-0.16c0.04-0.04,0.09-0.07,0.15-0.07 c0.69-0.03,2.78-0.11,2.78-0.11l0.4,8.96c-0.11,0.27-1.75,0.43-2.68,0.39c-0.11-0.01-0.19-0.09-0.19-0.2 C108.81,83.51,108.71,80.57,108.38,77.64z"/>
</g>
</g>
</g></g>
</g>
<g id="WaistDecals" mask="url(#WaistMask)">
</g>
<g id="Extras_Front">
<g id="Front"><g id="None_Front" class="option" style="display: inherit;">
</g>
</g>
</g>
<g id="Extras-FrontDecals" mask="url(#FrontMask)">
</g>
</g>
</svg>