<?xml version='1.0' encoding='UTF-8'?><svg xmlns="http://www.w3.org/2000/svg" version="1.1" width="1920" height="1080" viewBox="0 0 1920 1080"><svg version="2.0" id="Background" xmlns="http://www.w3.org/2000/svg" viewBox="0 0 1920 1080" style="stroke:black;stroke-width:1px;" width="1920" height="1080">
<animate href="#Mouse_Droid" attributeType="XML" attributeName="x" begin="mouseenter" restart="whenNotActive" dur="3s" from="800" to="800" values="800;500;650;-1100;-1100;1100;1100;800"/>
<animate href="#Mouse_Droid" attributeType="XML" attributeName="opacity" begin="mouseenter" restart="whenNotActive" dur="3s" from="1" to="1" values="1;1;1;1;0;0;1;1"/>
<style type="text/css">
.st0{fill:#0F0F0F;}
.st1{fill:#363636;}
.st2{fill:#2A2A2A;}
.st3{fill:#A9A9A9;}
.st4{fill:#D5D5D5;}
.st5{fill:#AEAEAE;}
.st6{fill:#AB1F1F;}
.st7{fill:#FFEA00;}
.st8{fill:#60FF00;}
.st9{fill:#787878;}
.st10{fill:#313131;}
.st11{fill:#737373;}
.st12{fill:#B5B5B5;}
.st13{fill:#9F9F9F;}
.st14{fill:#DFDFDF;}
.st15{fill:#A2A2A2;}
.st16{fill:#535353;}
.st17{fill:#919191;}
.st18{fill:#FFFFFF;}
</style>
<rect y="806.8" class="st0" width="1920" height="273.2"/>
<rect y="978" class="st1" width="423.6" height="102"/>
<rect x="1496.4" y="978" class="st1" width="423.6" height="102"/>
<path class="st2" d="M138.3,1043.7l-44.8-36.3H0v72.7h138.3V1043.7z"/>
<path class="st2" d="M1781.7,1043.7l44.8-36.3h93.5v72.7h-138.3V1043.7z"/>
<path class="st2" d="M158.3,1043.7l44.8-36.3h195.6l-56.8,72.7H158.3V1043.7z"/>
<path class="st2" d="M1761.7,1043.7l-44.8-36.3h-195.5l56.8,72.7h183.5V1043.7z"/>
<rect class="st1" width="1920" height="806.8"/>
<path class="st3" d="M960,51.2v755.6H436.4L318.7,603V248.9L432.9,51.2H960z"/>
<path class="st3" d="M960,51.2v755.6h523.6L1601.3,603V248.9L1487.1,51.2H960z"/>
<path class="st4" d="M1483.6,806.8L1601.3,603V248.9L1487.1,51.2H432.9L318.7,248.9V603l117.7,203.8H0v-51.7h347.4l-79.9-138.4 l0.3-381.3L373.7,51.2H0V0h1920v51.2h-373.7l105.9,184.2l0.3,381.3l-79.9,138.4H1920v51.7H1483.6z"/>
<g>
<g>
<rect x="136.5" y="383.9" class="st5" width="63" height="117"/>
<circle class="st6" cx="181.5" cy="413.8" r="8.2"/>
<circle class="st7" cx="158" cy="398.4" r="4.7"/>
<rect x="173.3" y="429" class="st8" width="16.3" height="58.2"/>
<path class="st9" d="M162.7,421l-16.3-12.7v26.9h16.3V421z"/>
<rect x="146.3" y="444" class="st10" width="16.3" height="28.2"/>
</g>
<g>
<rect x="1720.5" y="383.9" class="st5" width="63" height="117"/>
<circle class="st6" cx="1765.5" cy="413.8" r="8.2"/>
<circle class="st8" cx="1742" cy="398.4" r="4.7"/>
<rect x="1757.3" y="429" class="st7" width="16.3" height="8"/>
<rect x="1757.3" y="442.7" class="st7" width="16.3" height="8"/>
<rect x="1757.3" y="456.4" class="st7" width="16.3" height="8"/>
<rect x="1757.3" y="470.1" class="st7" width="16.3" height="8"/>
<rect x="1757.3" y="483.8" class="st7" width="16.3" height="8"/>
<path class="st9" d="M1746.7,421l-16.3-12.7v26.9h16.3V421z"/>
<rect x="1730.3" y="442.4" class="st10" width="16.3" height="27.6"/>
<path class="st10" d="M1746.7,478h-16.3v6.6l16.3,7V478z"/>
</g>
</g>
<path class="st11" d="M432.9,51.2L318.7,248.9h20.7l115-197.7H432.9z"/>
<path class="st11" d="M538.2,894.9L444.1,1080h30.7l63.5-143.2V894.9z"/>
<path class="st11" d="M1381.8,894.9l94.2,185.1h-30.7l-63.5-143.2V894.9z"/>
<path class="st11" d="M1487.1,51.2l114.2,197.7h-20.7l-115-197.7H1487.1z"/>
<path class="st12" d="M436.4,806.8L318.7,603h20.7l118.5,203.8H436.4z"/>
<path class="st12" d="M1483.6,806.8L1601.3,603h-20.7l-118.5,203.8H1483.6z"/>
<rect x="318.7" y="248.9" class="st13" width="20.7" height="354.1"/>
<rect x="1580.6" y="248.9" class="st13" width="20.7" height="354.1"/>
<path class="st14" d="M444.1,1080l94.1-185.1H0v38h456.9L341.8,1080H444.1z"/>
<path class="st14" d="M1475.9,1080l-94.2-185.1H1920v38h-456.9l115.1,147.1H1475.9z"/>
<path class="st15" d="M0,932.9h456.9L421.5,978H0V932.9z"/>
<path class="st15" d="M1920,932.9h-456.9l35.3,45.2H1920V932.9z"/>
<path class="st16" d="M1546.2,50.9l9.8,16.9h364V50.9H1546.2z"/>
<path class="st16" d="M373.8,50.9L364,67.8H0V50.9H373.8z"/>
<path class="st16" d="M432.7,51.2L443.5,70l1033.9,1.5l9.7-20.2H432.7z"/>
<path class="st17" d="M796.9,303.5v269.2L960,787.4l-0.1,19.5H937L765.3,582.2V293.8L935.5,71.5h24.4l0.1,19.2L796.9,303.5z"/>
<path class="st17" d="M1123.1,303.5v269.2L960,787.4v19.5h23l171.7-224.7V293.8L984.5,71.5h-24.6l0.1,19.2L1123.1,303.5z"/>
<g>
<path class="st18" d="M1880,204.2c0-9.5-7.8-17.2-17.3-17.2c-9.6,0-17.3,7.7-17.3,17.2v125.6c0,9.5,7.8,17.2,17.3,17.2 c9.6,0,17.3-7.7,17.3-17.2V204.2z"/>
<path class="st18" d="M1880,585.1c0-9.5-7.8-17.3-17.3-17.3c-9.6,0-17.3,7.8-17.3,17.3v126.2c0,9.5,7.8,17.3,17.3,17.3 c9.6,0,17.3-7.8,17.3-17.3V585.1z"/>
<path class="st18" d="M1934.6,304.3c0-9.6-7.8-17.3-17.3-17.3c-9.6,0-17.3,7.8-17.3,17.3v126.2c0,9.5,7.8,17.3,17.3,17.3 c9.6,0,17.3-7.8,17.3-17.3V304.3z"/>
<path class="st18" d="M1934.6,485.1c0-9.6-7.8-17.3-17.3-17.3c-9.6,0-17.3,7.8-17.3,17.3v126.2c0,9.5,7.8,17.3,17.3,17.3 c9.6,0,17.3-7.8,17.3-17.3V485.1z"/>
<path class="st18" d="M1880,104.4c0-9.6-7.8-17.4-17.3-17.4c-9.6,0-17.3,7.8-17.3,17.4v45.2c0,9.6,7.8,17.4,17.3,17.4 c9.6,0,17.3-7.8,17.3-17.4V104.4z"/>
<path class="st18" d="M1880,384.4c0-9.6-7.8-17.4-17.3-17.4c-9.6,0-17.3,7.8-17.3,17.4v45.2c0,9.6,7.8,17.4,17.3,17.4 c9.6,0,17.3-7.8,17.3-17.4V384.4z"/>
<path class="st18" d="M1935,666c0-9.6-7.8-17.4-17.3-17.4c-9.6,0-17.3,7.8-17.3,17.4v45.2c0,9.6,7.8,17.4,17.3,17.4 c9.6,0,17.3-7.8,17.3-17.4V666z"/>
<path class="st18" d="M1934.6,104.4c0-9.6-7.8-17.4-17.3-17.4c-9.6,0-17.3,7.8-17.3,17.4v45.2c0,9.6,7.8,17.4,17.3,17.4 c9.6,0,17.3-7.8,17.3-17.4V104.4z"/>
<path class="st18" d="M1880,484.4c0-9.6-7.8-17.4-17.3-17.4c-9.6,0-17.3,7.8-17.3,17.4v45.2c0,9.6,7.8,17.4,17.3,17.4 c9.6,0,17.3-7.8,17.3-17.4V484.4z"/>
<path class="st18" d="M1934.6,204.4c0-9.6-7.8-17.4-17.3-17.4c-9.6,0-17.3,7.8-17.3,17.4v45.2c0,9.6,7.8,17.4,17.3,17.4 c9.6,0,17.3-7.8,17.3-17.4V204.4z"/>
</g>
<g>
<path class="st18" d="M40,204.2c0-9.5,7.8-17.2,17.3-17.2c9.6,0,17.3,7.7,17.3,17.2v125.6c0,9.5-7.8,17.2-17.3,17.2 c-9.5,0-17.3-7.7-17.3-17.2V204.2z"/>
<path class="st18" d="M40,585.1c0-9.5,7.8-17.3,17.3-17.3c9.6,0,17.3,7.8,17.3,17.3v126.2c0,9.5-7.8,17.3-17.3,17.3 c-9.5,0-17.3-7.8-17.3-17.3V585.1z"/>
<path class="st18" d="M-14.6,304.3c0-9.6,7.8-17.3,17.3-17.3c9.6,0,17.3,7.8,17.3,17.3v126.2c0,9.5-7.8,17.3-17.3,17.3 c-9.6,0-17.3-7.8-17.3-17.3V304.3z"/>
<path class="st18" d="M-14.6,485.1c0-9.6,7.8-17.3,17.3-17.3c9.6,0,17.3,7.8,17.3,17.3v126.2c0,9.5-7.8,17.3-17.3,17.3 c-9.6,0-17.3-7.8-17.3-17.3V485.1z"/>
<path class="st18" d="M40,104.4C40,94.8,47.8,87,57.3,87c9.6,0,17.3,7.8,17.3,17.4v45.2c0,9.6-7.8,17.4-17.3,17.4 c-9.5,0-17.3-7.8-17.3-17.4V104.4z"/>
<path class="st18" d="M40,384.4c0-9.6,7.8-17.4,17.3-17.4c9.6,0,17.3,7.8,17.3,17.4v45.2c0,9.6-7.8,17.4-17.3,17.4 c-9.5,0-17.3-7.8-17.3-17.4V384.4z"/>
<path class="st18" d="M-15,666c0-9.6,7.8-17.4,17.3-17.4c9.6,0,17.3,7.8,17.3,17.4v45.2c0,9.6-7.8,17.4-17.3,17.4 c-9.5,0-17.3-7.8-17.3-17.4V666z"/>
<path class="st18" d="M-14.6,104.4c0-9.6,7.8-17.4,17.3-17.4c9.6,0,17.3,7.8,17.3,17.4v45.2c0,9.6-7.8,17.4-17.3,17.4 c-9.6,0-17.3-7.8-17.3-17.4V104.4z"/>
<path class="st18" d="M40,484.4c0-9.6,7.8-17.4,17.3-17.4c9.6,0,17.3,7.8,17.3,17.4v45.2c0,9.6-7.8,17.4-17.3,17.4 c-9.5,0-17.3-7.8-17.3-17.4V484.4z"/>
<path class="st18" d="M-14.6,204.4c0-9.6,7.8-17.4,17.3-17.4c9.6,0,17.3,7.8,17.3,17.4v45.2c0,9.6-7.8,17.4-17.3,17.4 c-9.6,0-17.3-7.8-17.3-17.4V204.4z"/>
</g>
<g>
<path class="st17" d="M1542.6,294.2v119.1H1192V294.2H1542.6z M1191.1,262.6L1063.4,99.2h385.3l93.9,162.6v0.8H1191.1z"/>
<g>
<path class="st17" d="M377.4,294.2v119.1H728V294.2H377.4z M728.9,262.6L856.6,99.2H471.3l-93.9,162.6v0.8H728.9z"/>
<path class="st17" d="M377.4,563.9V444.8H728v119.1H377.4z M728.9,595.5l121.7,163.3H471.3l-93.9-162.6v-0.8H728.9z"/>
</g>
<path class="st17" d="M1542.6,563.9V444.8H1192v119.1H1542.6z M1191.1,595.5l-121.7,163.3h379.3l93.9-162.6v-0.8H1191.1z"/>
</g>
<svg version="1.1" id="Mouse_Droid" xmlns="http://www.w3.org/2000/svg" viewBox="0 0 132 98" height="10%" x="800" y="765">
<style type="text/css">
.mouse0{fill:#1E1C1F;stroke:#000000;stroke-linejoin:round;stroke-miterlimit:2;}
.mouse1{fill:#423D43;stroke:#000000;stroke-linejoin:round;stroke-miterlimit:2;}
.mouse2{fill:#1E1C1F;}
.mouse3{fill:#161616;stroke:#000000;stroke-linejoin:round;stroke-miterlimit:2;}
.mouse4{fill:#969198;stroke:#000000;stroke-linejoin:round;stroke-miterlimit:2;}
.mouse5{fill:#4A4647;stroke:#000000;stroke-linejoin:round;stroke-miterlimit:2;}
.mouse6{fill:#857C7F;stroke:#000000;stroke-linejoin:round;stroke-miterlimit:2;}
.mouse7{fill:#C3BEC5;stroke:#000000;stroke-linejoin:round;stroke-miterlimit:2;}
.mouse8{fill-rule:evenodd;clip-rule:evenodd;fill:#352F33;stroke:#000000;stroke-linejoin:round;stroke-miterlimit:2;}
.mouse9{fill-rule:evenodd;clip-rule:evenodd;fill:#413B3F;stroke:#000000;stroke-linejoin:round;stroke-miterlimit:2;}
.mouse10{fill:#423B42;stroke:#000000;stroke-linejoin:round;stroke-miterlimit:2;}
.mouse11{fill:#0A080B;}
.mouse12{fill-rule:evenodd;clip-rule:evenodd;fill:#1E1C1F;}
.mouse13{fill-rule:evenodd;clip-rule:evenodd;fill:#312F32;}
.mouse14{fill-rule:evenodd;clip-rule:evenodd;fill:#0D0B0E;}
</style>
<g id="Droid">
<path class="mouse0" d="M89,80.9c0,0-1.1,3.7,0,6c0,0,6.5,9.7,9.8,9.1l11.6-7.4l0.7,0.7c0,0,3.6-5.4-9.2-14.1 C102,75.2,93.4,74,89,80.9"/>
<path class="mouse1" d="M112.1,88.3c0,4.9-4.3,8.9-9.6,8.9c-5.3,0-9.6-4-9.6-8.9c0-4.9,4.3-8.9,9.6-8.9 C107.8,79.4,112.1,83.4,112.1,88.3"/>
<path class="mouse2" d="M23,79.4c0,0-1.4,7.7-0.1,9.7c0,0,2.5,6.7,5.8,6.1l11.1-6.9l0.7,0.7c0,0,3.5-5-4.5-11.7 C36,77.3,27.3,72.5,23,79.4"/>
<path class="mouse1" d="M22.4,87.7c0,4.9,4.3,8.9,9.6,8.9c5.3,0,9.6-4,9.6-8.9c0-4.9-4.3-8.9-9.6-8.9C26.7,78.8,22.4,82.8,22.4,87.7"/>
<path class="mouse3" d="M109.3,88.4c0,3.2-2.8,5.9-6.3,5.9c-3.5,0-6.3-2.6-6.3-5.9c0-3.2,2.8-5.9,6.3-5.9 C106.4,82.5,109.3,85.1,109.3,88.4"/>
<path class="mouse3" d="M38.3,88.3c0,3.2-2.8,5.9-6.3,5.9c-3.5,0-6.3-2.6-6.3-5.9c0-3.2,2.8-5.9,6.3-5.9 C35.5,82.5,38.3,85.1,38.3,88.3"/>
<path class="mouse4" d="M1.7,63.2l-1.2-18l108.3-0.4l22.4,16.8L1.7,63.2z"/>
<path class="mouse5" d="M121.8,59.2L11.4,60.3l27.1-43.7l76.9,1.4L121.8,59.2z"/>
<path class="mouse0" d="M129.4,69.6L2.5,71.1v-4.9l126.9-1.5V69.6z"/>
<path class="mouse6" d="M32.4,11.7l6.1,4.8L11.4,60.3L8.3,46L32.4,11.7z"/>
<path class="mouse7" d="M98.6,12.7l16.8,5.3l-76.9-1.4l-6.1-4.8L98.6,12.7z"/>
<path class="mouse8" d="M1.7,63.2l129.6-1.6l0.1,4.1L1.7,67.4L1.7,63.2z"/>
<path class="mouse9" d="M1.7,70.3l129.6-1.6l0.1,4.1L1.7,74.5L1.7,70.3z"/>
<path class="mouse10" d="M124.3,72.8L6.4,74.2c0,0,7,9.3,8,9.3h9.5c0,0,7.7-6.6,14.7-0.5l51.8-1.2c0,0,4.9-5.1,11.6-5.4 c6.7-0.3,8.3,4.7,8.3,4.7l1.8-0.1L124.3,72.8z"/>
<path class="mouse11" d="M104.9,76.6l5.7,4.6C110.6,81.1,110.9,77.5,104.9,76.6"/>
<path class="mouse12" d="M52.4,2L52.8,2l-1-0.1l0-0.1l-0.3,0l-0.9-0.5l0,0.4l-0.7-0.1l0,0.2l0,0L49,1.3l0,0.4l0.4,0.1l-1.1-0.2l0,0.1 l-0.5-0.3l0,0.4l-0.7-0.1l0,0.1l-0.7-0.4l0,0.4l-0.7-0.1l-0.1,0.6l1.1,0.3l-0.9-0.2l-0.3,1.1l-2.9-0.5l-1,4.5l1.1,0.2l-0.1,3 c0,0,0.3,0.4,0.4,0.4c0,0,0.1-1.1,0.1-2c0.1,0.2,0.3,0.3,0.6,0.3l-0.1,1.6c0,0,0.4,0.4,0.5,0.3c0,0,0.1-1,0.1-2 c0.2-0.1,0.3-0.2,0.4-0.3c0.1,0.2,0.2,0.4,0.4,0.5l-0.4,2.1l-3.6,0.1l0,1.3L51,15.5l6.6,0l0-1.4l-2.5-0.6c0.2-0.9,0.5-2.6,0.6-3.1 l3.1,0.2l0-0.5L58,10.1l0.9-4.7l-1.5-0.2l-0.4,1.4l0.3-1.4l-1.5-0.2l0,0.2L55,4.9l0.3-1.6l0.5,0.1l0-1L55,2.3l0.1-0.6l-0.8,0l0,0.4 l-0.8-0.1l0,0l-0.2,0l-0.2-0.5l-0.7,0L52.4,2z M53.9,13.2l-7.6-1.9l-0.7,0c0-0.2,0.1-0.5,0.1-0.8c0.2,0.1,0.3,0.2,0.5,0.2 c0.2,0,0.4-0.1,0.5-0.2c0.1,0.4,0.5,0.7,0.9,0.7c0.5,0,0.9-0.4,0.9-0.9c0-0.1,0-0.3-0.1-0.4c0.2-0.1,0.3-0.3,0.4-0.5 c0,0.2,0.1,0.3,0.2,0.5c-0.3,0.2-0.5,0.5-0.5,0.8c0,0.5,0.4,0.9,0.9,0.9c0.5,0,0.9-0.4,0.9-0.9c0-0.2-0.1-0.4-0.2-0.5 c0.3-0.2,0.5-0.5,0.5-0.8c0-0.1,0-0.1,0-0.2l1,0.3l-0.1,0.6l-0.1,1.1l2.4,0.5l0.1-1.5l0.3,0.1l0.2,0L53.9,13.2z"/>
<path class="mouse12" d="M101.1,0.9l0.5,0.1l-1.1-0.2l0-0.1l-0.4-0.1l-1-0.6l0,0.4l-0.8-0.1l-0.1,0.3l0,0l-1-0.6l0,0.4l0.5,0.1 l-1.3-0.2l0,0.1L95.8,0l0,0.4L95,0.3l0,0.2L94.2,0l0,0.4l-0.8-0.1L93.2,1l1.2,0.3l-1.1-0.2L93,2.4l-3.3-0.7l-1.3,5.2l1.2,0.3 l-0.2,3.5c0,0,0.4,0.5,0.4,0.4c0,0,0.1-1.2,0.2-2.3c0.2,0.2,0.4,0.4,0.6,0.4l-0.1,1.8c0,0,0.5,0.5,0.6,0.4c0,0,0.1-1.2,0.2-2.3 c0.2-0.1,0.3-0.2,0.4-0.4c0.1,0.2,0.2,0.4,0.4,0.6l-0.5,2.5l-4.1,0.1l0,1.5l11.7,3.3l7.7,0.2l0-1.6l-2.9-0.8c0.2-1,0.6-3,0.7-3.6 l3.6,0.4l0-0.6l-0.8-0.1l1.1-5.5l-1.7-0.3l-0.5,1.6l0.3-1.6l-1.7-0.3L105,4.6l-0.9-0.2l0.4-1.9l0.6,0.2l0-1.2l-0.9-0.1l0.2-0.7 l-1,0l0,0.5l-1-0.2l0,0l-0.2,0l-0.2-0.6l-0.8,0L101.1,0.9z M102.6,14l-8.7-2.3l-0.8,0c0.1-0.3,0.1-0.6,0.2-0.9 c0.2,0.1,0.4,0.2,0.6,0.2c0.2,0,0.4-0.1,0.6-0.2c0.1,0.5,0.5,0.8,1,0.8c0.6,0,1.1-0.5,1-1.1c0-0.2,0-0.3-0.1-0.4 c0.2-0.1,0.4-0.3,0.5-0.6c0,0.2,0.1,0.4,0.2,0.5c-0.3,0.2-0.6,0.5-0.5,0.9c0,0.6,0.5,1,1.1,1c0.6,0,1.1-0.5,1-1.1 c0-0.2-0.1-0.4-0.2-0.6c0.3-0.2,0.6-0.5,0.5-0.9c0-0.1,0-0.1,0-0.2l1.2,0.4l-0.1,0.7l-0.1,1.2l2.7,0.7l0.1-1.8l0.3,0.1l0.2,0 L102.6,14z"/>
<path class="mouse12" d="M52,1.4l-0.7-0.2L52,1.4z"/>
<path class="mouse12" d="M47.5,1.1L47,1L47.5,1.1z"/>
<rect x="60.3" y="21.7" class="mouse13" width="5.2" height="2.4"/>
<rect x="61.2" y="22.6" class="mouse14" width="3.4" height="0.6"/>
<rect x="60.3" y="25.2" class="mouse13" width="5.2" height="2.4"/>
<rect x="61.2" y="26.1" class="mouse14" width="3.4" height="0.6"/>
<rect x="60.1" y="28.2" class="mouse13" width="5.2" height="2.4"/>
<rect x="61" y="29.1" class="mouse14" width="3.4" height="0.6"/>
<rect x="54.4" y="28" class="mouse13" width="5.2" height="2.4"/>
<rect x="55.3" y="28.9" class="mouse14" width="3.4" height="0.6"/>
<rect x="54.4" y="24.9" class="mouse13" width="5.2" height="2.4"/>
<rect x="55.3" y="25.7" class="mouse14" width="3.4" height="0.6"/>
<rect x="54.2" y="21.7" class="mouse13" width="5.2" height="2.4"/>
<rect x="55.1" y="22.6" class="mouse14" width="3.4" height="0.6"/>
<rect x="66.6" y="21.7" class="mouse13" width="5.2" height="2.4"/>
<rect x="67.5" y="22.6" class="mouse14" width="3.4" height="0.6"/>
<rect x="66.9" y="24.9" class="mouse13" width="5.2" height="2.4"/>
<rect x="67.8" y="25.7" class="mouse14" width="3.4" height="0.6"/>
<rect x="66.9" y="28.1" class="mouse13" width="5.2" height="2.4"/>
<rect x="67.8" y="29" class="mouse14" width="3.4" height="0.6"/>
<rect x="72.6" y="28.3" class="mouse13" width="5.2" height="2.4"/>
<rect x="73.5" y="29.2" class="mouse14" width="3.4" height="0.6"/>
<rect x="78.4" y="28.4" class="mouse13" width="5.2" height="2.4"/>
<rect x="79.3" y="29.3" class="mouse14" width="3.4" height="0.6"/>
<rect x="77.9" y="25.3" class="mouse13" width="5.2" height="2.4"/>
<rect x="78.8" y="26.2" class="mouse14" width="3.4" height="0.6"/>
<rect x="72.3" y="25" class="mouse13" width="5.2" height="2.4"/>
<rect x="73.2" y="25.9" class="mouse14" width="3.4" height="0.6"/>
<rect x="72.3" y="21.8" class="mouse13" width="5.2" height="2.4"/>
<rect x="73.2" y="22.7" class="mouse14" width="3.4" height="0.6"/>
<rect x="78.2" y="22" class="mouse13" width="5.2" height="2.4"/>
<rect x="79.1" y="22.9" class="mouse14" width="3.4" height="0.6"/>
<rect x="60.5" y="31.4" class="mouse13" width="5.2" height="2.4"/>
<rect x="61.4" y="32.3" class="mouse14" width="3.4" height="0.6"/>
<rect x="60.5" y="34.9" class="mouse13" width="5.2" height="2.4"/>
<rect x="61.4" y="35.7" class="mouse14" width="3.4" height="0.6"/>
<rect x="60.4" y="37.9" class="mouse13" width="5.2" height="2.4"/>
<rect x="61.3" y="38.8" class="mouse14" width="3.4" height="0.6"/>
<rect x="54.6" y="37.7" class="mouse13" width="5.2" height="2.4"/>
<rect x="55.5" y="38.6" class="mouse14" width="3.4" height="0.6"/>
<rect x="54.6" y="34.6" class="mouse13" width="5.2" height="2.4"/>
<rect x="55.5" y="35.4" class="mouse14" width="3.4" height="0.6"/>
<rect x="54.4" y="31.4" class="mouse13" width="5.2" height="2.4"/>
<rect x="55.3" y="32.3" class="mouse14" width="3.4" height="0.6"/>
<rect x="66.9" y="31.4" class="mouse13" width="5.2" height="2.4"/>
<rect x="67.8" y="32.3" class="mouse14" width="3.4" height="0.6"/>
<rect x="67.2" y="34.6" class="mouse13" width="5.2" height="2.4"/>
<rect x="68.1" y="35.4" class="mouse14" width="3.4" height="0.6"/>
<rect x="67.1" y="37.8" class="mouse13" width="5.2" height="2.4"/>
<rect x="68" y="38.7" class="mouse14" width="3.4" height="0.6"/>
<rect x="72.9" y="38" class="mouse13" width="5.2" height="2.4"/>
<rect x="73.8" y="38.9" class="mouse14" width="3.4" height="0.6"/>
<rect x="78.7" y="38.1" class="mouse13" width="5.2" height="2.4"/>
<rect x="79.6" y="39" class="mouse14" width="3.4" height="0.6"/>
<rect x="78.2" y="35" class="mouse13" width="5.2" height="2.4"/>
<rect x="79.1" y="35.9" class="mouse14" width="3.4" height="0.6"/>
<rect x="72.6" y="34.7" class="mouse13" width="5.2" height="2.4"/>
<rect x="73.5" y="35.6" class="mouse14" width="3.4" height="0.6"/>
<rect x="72.6" y="31.5" class="mouse13" width="5.2" height="2.4"/>
<rect x="73.5" y="32.4" class="mouse14" width="3.4" height="0.6"/>
<rect x="78.4" y="31.7" class="mouse13" width="5.2" height="2.4"/>
<rect x="79.3" y="32.6" class="mouse14" width="3.4" height="0.6"/>
<rect x="60.5" y="40.8" class="mouse13" width="5.2" height="2.4"/>
<rect x="61.4" y="41.7" class="mouse14" width="3.4" height="0.6"/>
<rect x="60.5" y="44.3" class="mouse13" width="5.2" height="2.4"/>
<rect x="61.4" y="45.2" class="mouse14" width="3.4" height="0.6"/>
<rect x="60.4" y="47.4" class="mouse13" width="5.2" height="2.4"/>
<rect x="61.3" y="48.2" class="mouse14" width="3.4" height="0.6"/>
<rect x="54.6" y="47.2" class="mouse13" width="5.2" height="2.4"/>
<rect x="55.5" y="48.1" class="mouse14" width="3.4" height="0.6"/>
<rect x="54.6" y="44" class="mouse13" width="5.2" height="2.4"/>
<rect x="55.5" y="44.9" class="mouse14" width="3.4" height="0.6"/>
<rect x="54.4" y="40.8" class="mouse13" width="5.2" height="2.4"/>
<rect x="55.3" y="41.7" class="mouse14" width="3.4" height="0.6"/>
<rect x="66.9" y="40.8" class="mouse13" width="5.2" height="2.4"/>
<rect x="67.8" y="41.7" class="mouse14" width="3.4" height="0.6"/>
<rect x="67.2" y="44" class="mouse13" width="5.2" height="2.4"/>
<rect x="68.1" y="44.9" class="mouse14" width="3.4" height="0.6"/>
<rect x="67.1" y="47.3" class="mouse13" width="5.2" height="2.4"/>
<rect x="68" y="48.1" class="mouse14" width="3.4" height="0.6"/>
<rect x="72.9" y="47.5" class="mouse13" width="5.2" height="2.4"/>
<rect x="73.8" y="48.4" class="mouse14" width="3.4" height="0.6"/>
<rect x="78.7" y="47.6" class="mouse13" width="5.2" height="2.4"/>
<rect x="79.6" y="48.5" class="mouse14" width="3.4" height="0.6"/>
<rect x="78.2" y="44.5" class="mouse13" width="5.2" height="2.4"/>
<rect x="79.1" y="45.3" class="mouse14" width="3.4" height="0.6"/>
<rect x="72.6" y="44.2" class="mouse13" width="5.2" height="2.4"/>
<rect x="73.5" y="45" class="mouse14" width="3.4" height="0.6"/>
<rect x="72.6" y="41" class="mouse13" width="5.2" height="2.4"/>
<rect x="73.5" y="41.8" class="mouse14" width="3.4" height="0.6"/>
<rect x="78.4" y="41.2" class="mouse13" width="5.2" height="2.4"/>
<rect x="79.3" y="42" class="mouse14" width="3.4" height="0.6"/>
<rect x="60.6" y="50" class="mouse13" width="5.2" height="2.4"/>
<rect x="61.5" y="50.8" class="mouse14" width="3.4" height="0.6"/>
<rect x="60.6" y="53.4" class="mouse13" width="5.2" height="2.4"/>
<rect x="61.5" y="54.3" class="mouse14" width="3.4" height="0.6"/>
<rect x="60.4" y="56.5" class="mouse13" width="5.2" height="2.4"/>
<rect x="61.3" y="57.4" class="mouse14" width="3.4" height="0.6"/>
<rect x="54.7" y="56.3" class="mouse13" width="5.2" height="2.4"/>
<rect x="55.6" y="57.2" class="mouse14" width="3.4" height="0.6"/>
<rect x="54.7" y="53.1" class="mouse13" width="5.2" height="2.4"/>
<rect x="55.6" y="54" class="mouse14" width="3.4" height="0.6"/>
<rect x="54.5" y="50" class="mouse13" width="5.2" height="2.4"/>
<rect x="55.4" y="50.8" class="mouse14" width="3.4" height="0.6"/>
<rect x="66.9" y="50" class="mouse13" width="5.2" height="2.4"/>
<rect x="67.8" y="50.8" class="mouse14" width="3.4" height="0.6"/>
<rect x="67.2" y="53.1" class="mouse13" width="5.2" height="2.4"/>
<rect x="68.1" y="54" class="mouse14" width="3.4" height="0.6"/>
<rect x="67.2" y="56.4" class="mouse13" width="5.2" height="2.4"/>
<rect x="68.1" y="57.2" class="mouse14" width="3.4" height="0.6"/>
<rect x="72.9" y="56.6" class="mouse13" width="5.2" height="2.4"/>
<rect x="73.8" y="57.5" class="mouse14" width="3.4" height="0.6"/>
<rect x="78.7" y="56.7" class="mouse13" width="5.2" height="2.4"/>
<rect x="79.6" y="57.6" class="mouse14" width="3.4" height="0.6"/>
<rect x="78.2" y="53.6" class="mouse13" width="5.2" height="2.4"/>
<rect x="79.2" y="54.5" class="mouse14" width="3.4" height="0.6"/>
<rect x="72.6" y="53.3" class="mouse13" width="5.2" height="2.4"/>
<rect x="73.5" y="54.2" class="mouse14" width="3.4" height="0.6"/>
<rect x="72.6" y="50.1" class="mouse13" width="5.2" height="2.4"/>
<rect x="73.5" y="51" class="mouse14" width="3.4" height="0.6"/>
<rect x="78.5" y="50.3" class="mouse13" width="5.2" height="2.4"/>
<rect x="79.4" y="51.1" class="mouse14" width="3.4" height="0.6"/>
<rect x="84.4" y="28.2" class="mouse13" width="5.2" height="2.4"/>
<rect x="85.3" y="29.1" class="mouse14" width="3.4" height="0.6"/>
<rect x="84" y="25.1" class="mouse13" width="5.2" height="2.4"/>
<rect x="84.9" y="25.9" class="mouse14" width="3.4" height="0.6"/>
<rect x="84.2" y="21.8" class="mouse13" width="5.2" height="2.4"/>
<rect x="85.1" y="22.6" class="mouse14" width="3.4" height="0.6"/>
<rect x="84.7" y="37.9" class="mouse13" width="5.2" height="2.4"/>
<rect x="85.6" y="38.8" class="mouse14" width="3.4" height="0.6"/>
<rect x="84.2" y="34.8" class="mouse13" width="5.2" height="2.4"/>
<rect x="85.1" y="35.6" class="mouse14" width="3.4" height="0.6"/>
<rect x="84.4" y="31.4" class="mouse13" width="5.2" height="2.4"/>
<rect x="85.3" y="32.3" class="mouse14" width="3.4" height="0.6"/>
<rect x="84.7" y="47.3" class="mouse13" width="5.2" height="2.4"/>
<rect x="85.6" y="48.2" class="mouse14" width="3.4" height="0.6"/>
<rect x="84.2" y="44.2" class="mouse13" width="5.2" height="2.4"/>
<rect x="85.1" y="45.1" class="mouse14" width="3.4" height="0.6"/>
<rect x="84.4" y="40.9" class="mouse13" width="5.2" height="2.4"/>
<rect x="85.3" y="41.8" class="mouse14" width="3.4" height="0.6"/>
<rect x="84.8" y="56.5" class="mouse13" width="5.2" height="2.4"/>
<rect x="85.7" y="57.3" class="mouse14" width="3.4" height="0.6"/>
<rect x="84.3" y="53.3" class="mouse13" width="5.2" height="2.4"/>
<rect x="85.2" y="54.2" class="mouse14" width="3.4" height="0.6"/>
<rect x="84.5" y="50" class="mouse13" width="5.2" height="2.4"/>
<rect x="85.4" y="50.9" class="mouse14" width="3.4" height="0.6"/>
<rect x="89.8" y="28.5" class="mouse13" width="5.2" height="2.4"/>
<rect x="90.7" y="29.4" class="mouse14" width="3.4" height="0.6"/>
<rect x="90.1" y="38.2" class="mouse13" width="5.2" height="2.4"/>
<rect x="91" y="39.1" class="mouse14" width="3.4" height="0.6"/>
<rect x="89.6" y="35.1" class="mouse13" width="5.2" height="2.4"/>
<rect x="90.5" y="35.9" class="mouse14" width="3.4" height="0.6"/>
<rect x="89.8" y="31.7" class="mouse13" width="5.2" height="2.4"/>
<rect x="90.7" y="32.6" class="mouse14" width="3.4" height="0.6"/>
<rect x="90.1" y="47.6" class="mouse13" width="5.2" height="2.4"/>
<rect x="91" y="48.5" class="mouse14" width="3.4" height="0.6"/>
<rect x="89.6" y="44.5" class="mouse13" width="5.2" height="2.4"/>
<rect x="90.5" y="45.4" class="mouse14" width="3.4" height="0.6"/>
<rect x="89.8" y="41.2" class="mouse13" width="5.2" height="2.4"/>
<rect x="90.7" y="42.1" class="mouse14" width="3.4" height="0.6"/>
<rect x="90.1" y="56.8" class="mouse13" width="5.2" height="2.4"/>
<rect x="91" y="57.6" class="mouse14" width="3.4" height="0.6"/>
<rect x="89.6" y="53.6" class="mouse13" width="5.2" height="2.4"/>
<rect x="90.5" y="54.5" class="mouse14" width="3.4" height="0.6"/>
<rect x="89.8" y="50.3" class="mouse13" width="5.2" height="2.4"/>
<rect x="90.8" y="51.2" class="mouse14" width="3.4" height="0.6"/>
<rect x="89.8" y="25.6" class="mouse13" width="5.2" height="2.4"/>
<rect x="90.7" y="26.5" class="mouse14" width="3.4" height="0.6"/>
<rect x="95.4" y="25.6" class="mouse13" width="5.2" height="2.4"/>
<rect x="96.3" y="26.5" class="mouse14" width="3.4" height="0.6"/>
<rect x="95.4" y="47.5" class="mouse13" width="5.2" height="2.4"/>
<rect x="96.3" y="48.4" class="mouse14" width="3.4" height="0.6"/>
<rect x="95.2" y="50.1" class="mouse13" width="5.2" height="2.4"/>
<rect x="96.1" y="51" class="mouse14" width="3.4" height="0.6"/>
<rect x="95.2" y="53.5" class="mouse13" width="5.2" height="2.4"/>
<rect x="96.1" y="54.4" class="mouse14" width="3.4" height="0.6"/>
<rect x="103.9" y="18.2" class="mouse14" width="0.9" height="40.8"/>
<rect x="102.5" y="18.2" class="mouse14" width="0.9" height="40.8"/>
<rect x="101" y="18.2" class="mouse14" width="0.9" height="40.8"/>
<rect x="52.8" y="18.2" class="mouse14" width="0.9" height="40.8"/>
<rect x="51.4" y="18.2" class="mouse14" width="0.9" height="40.8"/>
<rect x="49.9" y="18.2" class="mouse14" width="0.9" height="40.8"/>
</g>
</svg></svg><svg class="title" version="1.1" viewBox="0 0 420 70" xmlns="http://www.w3.org/2000/svg" preserveAspectRatio="xMinYMin" width="1920" height="90">
<polygon fill="#222" points="359.21,60 0,60 0,0 398.11,0"/>
<polygon fill="#AB1F1F" points="402.87,0 361.38,64 0,64 0,70 374.62,70 420,0"/>
<path fill="#AB1F1F" d="M55.03,42.15l1.3-1.92L54.87,25.2l-1.76-1.1c-0.26-7.65-6.76-13.81-14.81-13.96v0l-0.1,0l-0.06,0 l-0.06,0l-0.1,0v0c-8,0.15-14.47,6.24-14.8,13.82L21.2,25.2l-1.47,15.03l1.47,2.17l-0.11,1.23L22,43.7l10.48,6.1l0.12,0.07h11.09 l10.6-6.17l0.91-0.07L55.03,42.15z M23.23,43.25c0.17-1.01,0.61-3.46,1.22-4.83c0.79-1.78,2.3-3.75,4.02-3.44 c1.32,0.24,3.88,6.25,4.24,13.78L23.23,43.25z M41.04,48.87v-19c0,0,3.22-0.3,4.79-0.66c1.91-0.44,6.66-1.97,6.66-1.97l-0.07-1.11 c0,0-4.38,0.75-6.6,0.98c-2.17,0.23-5.13,0.54-7.69,0.54c-2.56,0-5.53-0.31-7.69-0.54c-2.21-0.24-6.6-0.98-6.6-0.98l-0.07,1.11 c0,0,4.75,1.53,6.66,1.97c1.57,0.36,4.79,0.66,4.79,0.66v19h-2.37l-0.15-0.09c-0.01-0.16-0.01-0.34-0.02-0.53 c0-0.06,0-0.11-0.01-0.18c0-0.03,0-0.07,0-0.1c-0.09-2.17-0.3-6.02-0.65-8.4c0-0.02-0.01-0.04-0.01-0.06 c-0.03-0.2-0.06-0.39-0.09-0.56c-0.03-0.19-0.07-0.37-0.11-0.53c-0.49-2.08-1.49-4.29-3.03-5.71c-0.09-0.09-0.2-0.17-0.31-0.26 c-0.1-0.08-0.21-0.15-0.33-0.23c-0.01-0.01-0.02-0.01-0.03-0.02c-1.91-1.24-5.53-2.35-5.53-2.35l0.16-1.56l0.41-3.73 c0.29,0.04,4.85,0.63,7.19,0.77c2.27,0.14,6.86,0.18,7.77,0.18c0.9-0.01,5.5-0.04,7.77-0.18c2.1-0.13,5.99-0.62,6.98-0.75 l0.59,5.33c-0.84,0.27-4.15,1.37-5.69,2.53c-0.11,0.08-0.2,0.16-0.29,0.24c0,0-0.01,0.01-0.01,0.01c-0.77,0.71-1.4,1.62-1.91,2.61 c-0.38,0.74-0.68,1.53-0.91,2.32c-0.08,0.26-0.15,0.52-0.21,0.78c-0.04,0.16-0.07,0.33-0.11,0.53c-0.03,0.15-0.05,0.32-0.08,0.49 c-0.01,0.04-0.01,0.08-0.02,0.13c-0.38,2.59-0.59,6.94-0.67,8.95c0,0.03,0,0.07,0,0.1c0,0.04,0,0.06,0,0.09c0,0.03,0,0.05,0,0.07 l-0.15,0.09H41.04z M43.58,48.77c0.36-7.53,2.92-13.54,4.24-13.78c1.71-0.31,3.23,1.66,4.02,3.44c0.61,1.37,1.06,3.82,1.22,4.83 L43.58,48.77z"/>
<g fill="#AAA">
<path d="M66.6,15.12l7.96,0.06l-0.05,6.68l-4.85,10.47l-0.08,11.46l-2.39-0.02l0.08-11.78l4.85-10.47l0.03-3.66 l-5.57-0.04L66.6,15.12z"/>
<path d="M77.65,27.64l2.06-12.43l0.41,0l-0.16,21.99l-2.36-4.47L77.65,27.64z M80.98,29.54l1.06-14.32l0.32,0 l1.01,14.33l-0.1,14.32l-2.39-0.02L80.98,29.54z"/>
<path d="M86.54,30.25l2.41-2.85l-0.05,6.68l-2.38-0.97L86.54,30.25z M89.99,15.28l4.61,0.03l-0.02,2.39l-2.23-0.02 l-0.19,26.26l-2.39-0.02L89.99,15.28z"/>
<path d="M97.79,15.34l2.39,0.02l-0.19,26.26l1.59,0.01l0.17-23.87l-0.79-0.96l0.01-1.43l3.98,0.03l-0.01,1.43 l-0.8,0.95l-0.17,23.87l2.23,0.02l-0.02,2.39l-8.59-0.06L97.79,15.34z"/>
<path d="M116.52,44.12l-2.39-0.02l0.08-10.66l-2.39-0.02l-0.03,3.98l-2.39-0.02l0.15-20.37l3.66,0.03l-0.01,1.43 l-1.28,0.95l-0.08,11.62l2.39,0.02l0.11-15.6l2.39,0.02L116.52,44.12z"/>
<path d="M132.35,38.98l4.87-4.8l-0.03,4.84L132.35,38.98z M138.39,39.02l4.87-4.8l-0.03,4.84L138.39,39.02z M142.19,41.6l5.57,0.04l0.03-3.66l-4.7-10.54l0.08-11.78l2.39,0.02l-0.08,11.46l4.7,10.54l-0.05,6.68l-7.96-0.06L142.19,41.6z"/>
<path d="M160.47,44.43l-2.39-0.02l0.08-10.66l-2.39-0.02l-0.03,3.98l-2.39-0.02l0.15-20.37l3.66,0.03l-0.01,1.43 l-1.28,0.95l-0.08,11.62l2.39,0.02l0.11-15.6l2.39,0.02L160.47,44.43z"/>
<path d="M171.61,44.51l-7.96-0.06l0.05-6.68l4.85-10.47l0.08-11.46l2.39,0.02l-0.08,11.78l-4.85,10.47l-0.03,3.66 l5.57,0.04L171.61,44.51z"/>
<path d="M174.91,28.34l2.06-12.43l0.41,0l-0.16,21.99l-2.36-4.47L174.91,28.34z M178.24,30.24l1.06-14.32l0.32,0 l1.01,14.33l-0.1,14.32l-2.39-0.02L178.24,30.24z"/>
<path d="M188.41,23.28l-0.15,21.36l-2.39-0.02l0.04-5.73l-1.5-0.01l0.02-2.39l1.5,0.01l0.03-4.61l-1.5-0.01 l0.02-2.39l1.5,0.01l0.04-5.19c-0.7,0.21-1.42,0.34-2.17,0.4l0.05-2.39c0.72-0.06,1.43-0.22,2.14-0.49l0.04-5.86l2.39,0.02 l-0.03,4.52c1.39-1.05,2.7-2.53,3.95-4.43l2.39,0.02C192.92,19.48,190.8,21.87,188.41,23.28z"/>
<path d="M202.78,16.47l-4.87,4.8l0.03-4.84L202.78,16.47z"/>
<path d="M205.88,28.56l2.06-12.43l0.41,0l-0.16,21.99l-2.36-4.47L205.88,28.56z M209.21,30.46l1.06-14.32l0.32,0 l1.01,14.33l-0.1,14.32l-2.39-0.02L209.21,30.46z"/>
<path d="M214.88,16.18l2.39,0.02l-0.19,26.26l1.59,0.01l0.17-23.87l-0.79-0.96l0.01-1.43l3.98,0.03l-0.01,1.43 l-0.8,0.95l-0.17,23.87l2.23,0.02l-0.02,2.39l-8.59-0.06L214.88,16.18z"/>
</g>
<g fill="#AAA">
<path d="M243.85,34.96V26.8l-3.63,6.31h-0.57l-3.63-6.31v8.16h-0.98v-9.94h1.01l3.88,6.8l3.91-6.8h0.99v9.94H243.85 z"/>
<path d="M250.4,25.02h0.83l4.13,9.94h-1.04l-1.29-3.11h-4.47l-1.27,3.11h-1.05L250.4,25.02z M252.81,31.08l-2-4.91 l-2.03,4.91H252.81z"/>
<path d="M257.77,26.84v8.12h-0.98v-9.94h0.76l6.58,8.27v-8.26h0.98v9.93h-0.85L257.77,26.84z"/>
<path d="M267.59,34.96v-9.94h3.37c0.79,0,1.49,0.13,2.08,0.39c0.59,0.26,1.09,0.62,1.48,1.06 c0.4,0.45,0.7,0.97,0.9,1.57c0.2,0.6,0.3,1.24,0.3,1.93c0,0.76-0.11,1.44-0.34,2.05c-0.22,0.61-0.54,1.13-0.96,1.57 c-0.42,0.43-0.91,0.77-1.5,1.01c-0.58,0.24-1.24,0.36-1.97,0.36H267.59z M274.75,29.98c0-0.6-0.08-1.15-0.25-1.65 c-0.17-0.5-0.41-0.93-0.73-1.29c-0.32-0.36-0.72-0.65-1.18-0.85s-1-0.3-1.61-0.3h-2.39v8.2h2.39c0.62,0,1.16-0.1,1.63-0.31 s0.87-0.5,1.18-0.87c0.32-0.37,0.56-0.8,0.72-1.3C274.67,31.11,274.75,30.57,274.75,29.98z"/>
<path d="M281.61,35.03c-0.69,0-1.32-0.14-1.9-0.43c-0.57-0.28-1.07-0.66-1.48-1.13c-0.41-0.47-0.73-1.01-0.95-1.62 c-0.22-0.61-0.34-1.23-0.34-1.86c0-0.66,0.12-1.3,0.36-1.9c0.24-0.61,0.57-1.14,0.99-1.61s0.91-0.84,1.48-1.11 c0.57-0.27,1.19-0.41,1.85-0.41c0.69,0,1.32,0.15,1.9,0.44c0.57,0.29,1.06,0.68,1.47,1.15c0.41,0.48,0.72,1.02,0.95,1.62 c0.22,0.6,0.34,1.22,0.34,1.84c0,0.66-0.12,1.3-0.36,1.9c-0.24,0.61-0.56,1.14-0.98,1.6c-0.42,0.46-0.91,0.83-1.48,1.11 C282.89,34.9,282.27,35.03,281.61,35.03z M277.92,29.99c0,0.54,0.09,1.06,0.27,1.56c0.18,0.5,0.43,0.94,0.76,1.33 c0.33,0.39,0.71,0.7,1.16,0.92c0.45,0.23,0.95,0.34,1.5,0.34c0.56,0,1.07-0.12,1.53-0.36s0.84-0.56,1.16-0.95 s0.56-0.84,0.73-1.33c0.17-0.49,0.26-1,0.26-1.51c0-0.54-0.09-1.06-0.27-1.56c-0.18-0.5-0.44-0.94-0.76-1.32 s-0.71-0.69-1.16-0.92c-0.45-0.23-0.94-0.34-1.48-0.34c-0.56,0-1.07,0.12-1.53,0.36c-0.46,0.24-0.84,0.55-1.16,0.94 s-0.56,0.84-0.73,1.33C278.01,28.98,277.92,29.48,277.92,29.99z"/>
<path d="M291.03,29.92c0-0.6,0.1-1.19,0.31-1.79c0.21-0.59,0.52-1.12,0.92-1.59c0.4-0.47,0.9-0.85,1.48-1.14 c0.59-0.29,1.25-0.44,2-0.44c0.89,0,1.65,0.2,2.27,0.6s1.09,0.92,1.39,1.57l-0.77,0.48c-0.16-0.33-0.35-0.6-0.58-0.83 c-0.23-0.22-0.47-0.41-0.73-0.55c-0.26-0.14-0.53-0.24-0.81-0.3c-0.28-0.06-0.56-0.09-0.83-0.09c-0.6,0-1.13,0.12-1.58,0.36 c-0.46,0.24-0.84,0.56-1.15,0.95c-0.31,0.39-0.55,0.83-0.71,1.32c-0.16,0.49-0.24,0.99-0.24,1.49c0,0.55,0.1,1.08,0.29,1.58 c0.19,0.5,0.45,0.95,0.78,1.34c0.33,0.39,0.72,0.7,1.18,0.92c0.45,0.23,0.94,0.34,1.48,0.34c0.28,0,0.57-0.04,0.86-0.1 c0.29-0.07,0.58-0.18,0.85-0.34c0.28-0.15,0.53-0.35,0.76-0.57c0.23-0.23,0.43-0.51,0.59-0.83l0.81,0.42 c-0.16,0.37-0.38,0.7-0.67,0.99c-0.29,0.28-0.61,0.52-0.97,0.72c-0.35,0.2-0.73,0.35-1.13,0.45c-0.4,0.1-0.79,0.15-1.17,0.15 c-0.68,0-1.31-0.15-1.88-0.45c-0.57-0.3-1.06-0.69-1.47-1.17c-0.41-0.48-0.73-1.03-0.96-1.64 C291.14,31.18,291.03,30.56,291.03,29.92z"/>
<path d="M301.29,34.96v-9.94h4.2c0.43,0,0.82,0.09,1.18,0.27s0.67,0.42,0.93,0.71s0.46,0.63,0.61,1 c0.14,0.37,0.22,0.75,0.22,1.13c0,0.36-0.05,0.71-0.16,1.04c-0.11,0.33-0.26,0.63-0.45,0.9s-0.42,0.49-0.69,0.67 c-0.27,0.18-0.57,0.31-0.91,0.37l2.44,3.84h-1.11l-2.34-3.67h-2.94v3.67H301.29z M302.27,30.43h3.25c0.29,0,0.55-0.06,0.79-0.19 c0.24-0.13,0.44-0.3,0.61-0.51s0.3-0.46,0.39-0.73c0.09-0.27,0.14-0.56,0.14-0.85c0-0.3-0.05-0.59-0.16-0.86 c-0.11-0.27-0.25-0.52-0.43-0.72s-0.4-0.37-0.64-0.49c-0.25-0.12-0.51-0.18-0.78-0.18h-3.16V30.43z"/>
<path d="M317.11,34.09v0.87h-6.68v-9.94h6.55v0.87h-5.57v3.58h4.86v0.83h-4.86v3.79H317.11z"/>
<path d="M322.04,25.02h0.83l4.13,9.94h-1.04l-1.29-3.11h-4.47l-1.27,3.11h-1.05L322.04,25.02z M324.45,31.08 l-2-4.91l-2.03,4.91H324.45z"/>
<path d="M334.5,25.89h-3.54v9.07h-0.98v-9.07h-3.54v-0.87h8.06V25.89z"/>
<path d="M339.52,35.03c-0.69,0-1.32-0.14-1.9-0.43c-0.57-0.28-1.07-0.66-1.48-1.13c-0.41-0.47-0.73-1.01-0.95-1.62 c-0.22-0.61-0.34-1.23-0.34-1.86c0-0.66,0.12-1.3,0.36-1.9c0.24-0.61,0.57-1.14,0.99-1.61s0.91-0.84,1.48-1.11 c0.57-0.27,1.19-0.41,1.85-0.41c0.69,0,1.32,0.15,1.9,0.44c0.57,0.29,1.06,0.68,1.47,1.15c0.41,0.48,0.72,1.02,0.95,1.62 c0.22,0.6,0.34,1.22,0.34,1.84c0,0.66-0.12,1.3-0.36,1.9c-0.24,0.61-0.56,1.14-0.98,1.6c-0.42,0.46-0.91,0.83-1.48,1.11 C340.8,34.9,340.19,35.03,339.52,35.03z M335.84,29.99c0,0.54,0.09,1.06,0.27,1.56c0.18,0.5,0.43,0.94,0.76,1.33 c0.33,0.39,0.71,0.7,1.16,0.92c0.45,0.23,0.95,0.34,1.5,0.34c0.56,0,1.07-0.12,1.53-0.36s0.84-0.56,1.16-0.95 s0.56-0.84,0.73-1.33c0.17-0.49,0.26-1,0.26-1.51c0-0.54-0.09-1.06-0.27-1.56c-0.18-0.5-0.44-0.94-0.76-1.32 s-0.71-0.69-1.16-0.92c-0.45-0.23-0.94-0.34-1.48-0.34c-0.56,0-1.07,0.12-1.53,0.36c-0.46,0.24-0.84,0.55-1.16,0.94 s-0.56,0.84-0.73,1.33C335.93,28.98,335.84,29.48,335.84,29.99z"/>
<path d="M346.03,34.96v-9.94h4.2c0.43,0,0.82,0.09,1.18,0.27s0.67,0.42,0.93,0.71s0.46,0.63,0.61,1 c0.14,0.37,0.22,0.75,0.22,1.13c0,0.36-0.05,0.71-0.16,1.04c-0.11,0.33-0.26,0.63-0.45,0.9s-0.42,0.49-0.69,0.67 c-0.27,0.18-0.57,0.31-0.91,0.37l2.44,3.84h-1.11l-2.34-3.67h-2.94v3.67H346.03z M347.01,30.43h3.25c0.29,0,0.55-0.06,0.79-0.19 c0.24-0.13,0.44-0.3,0.61-0.51s0.3-0.46,0.39-0.73c0.09-0.27,0.14-0.56,0.14-0.85c0-0.3-0.05-0.59-0.16-0.86 c-0.11-0.27-0.25-0.52-0.43-0.72s-0.4-0.37-0.64-0.49c-0.25-0.12-0.51-0.18-0.78-0.18h-3.16V30.43z"/>
</g>
</svg><metadata><rdf:rdf xmlns:rdf="http://www.w3.org/1999/02/22-rdf-syntax-ns#" xmlns:rdfs="http://www.w3.org/2000/01/rdf-schema#" xmlns:dc="http://purl.org/dc/elements/1.1/"> <rdf:description> <dc:creator>MandoCreator</dc:creator> <dc:publisher>https://www.mandocreator.com</dc:publisher> <dc:description>Your Beskar'gam - created by MandoCreator</dc:description> <dc:format>image/svg+xml</dc:format> <dc:type>Image</dc:type> <dc:title>MandoCreator - Ner Berskar'gam</dc:title> <dc:date>2021-10-08T16:52:28.379Z</dc:date> </rdf:description> </rdf:rdf></metadata><svg version="1.1" id="Female" xmlns="http://www.w3.org/2000/svg" viewBox="0 -55 169 300" style="fill: white; fill-rule: evenodd; stroke: black; stroke-width: 0.2px; pointer-events: none; position: relative; height: 100%;">
<g id="Extras_Back">
<g id="Back"><g id="NO-CAPES_Back" class="option" style="display: inherit;">
</g>
</g>
</g>
<g id="Suit">
<g id="Neck-Seal">

<g id="Standard-Neck-Seal" class="option" style="fill: rgb(90, 77, 50); display: inherit;">
<path d="M95.2,8.5c0-0.9-0.7-1.7-1.6-1.7c0,0-6.1,0.9-9.1,0.9c-3,0-9.1-0.9-9.1-0.9c-0.9,0-1.6,0.7-1.6,1.7 c0,0.9,0.7,1.6,1.6,1.6c0,0,6.1,0.9,9.1,0.9c3,0,9.1-0.9,9.1-0.9C94.4,10.1,95.2,9.4,95.2,8.5z"/>
<path d="M95.7,10.4c0-1-0.8-1.7-1.7-1.7c0,0-6.4,0.9-9.5,0.9s-9.5-0.9-9.5-0.9c-0.9,0-1.7,0.8-1.7,1.7 c0,1,0.8,1.7,1.7,1.7c0,0,6.4,0.9,9.5,0.9s9.5-0.9,9.5-0.9C95,12.1,95.7,11.3,95.7,10.4z"/>
<path d="M96.3,12.8c0-1-0.8-1.8-1.8-1.8c0,0-6.7,1-10.1,1c-3.4,0-10.1-1-10.1-1c-1,0-1.8,0.8-1.8,1.8 s0.8,1.8,1.8,1.8c0,0,6.7,1,10.1,1c3.4,0,10.1-1,10.1-1C95.5,14.6,96.3,13.8,96.3,12.8z"/>
<path d="M96.9,15c0-1.1-0.8-1.9-1.9-1.9c0,0-7,1-10.6,1c-3.5,0-10.6-1-10.6-1c-1,0-1.9,0.9-1.9,1.9 c0,1.1,0.8,1.9,1.9,1.9c0,0,7,1,10.6,1c3.5,0,10.6-1,10.6-1C96.1,16.9,96.9,16,96.9,15z"/>
<path d="M97.5,17.1c0-0.8-0.9-1.5-2-1.5c0,0-7.4,0.8-11.1,0.8c-3.7,0-11.1-0.8-11.1-0.8c-1.1,0-2,0.6-2,1.5 c0,0.8,0.9,1.5,2,1.5c0,0,7.4,0.8,11.1,0.8c3.7,0,11.1-0.8,11.1-0.8C96.6,18.6,97.5,17.9,97.5,17.1z"/>
<path d="M97.5,19.6c0-0.8-0.9-1.5-2-1.5c0,0-7.4,0.8-11.1,0.8c-3.7,0-11.1-0.8-11.1-0.8c-1.1,0-2,0.6-2,1.5 c0,0.8,0.9,1.4,2,1.4c0,0,7.4,1.5,11.1,1.5c3.7,0,11.1-1.5,11.1-1.5C96.6,21,97.5,20.4,97.5,19.6z"/>
</g>
</g>
<g id="Flight-Suit" style="fill: rgb(55, 47, 35);">
<path d="M38.9,64l5.1-18.4l11.8-8l1.8,16.1c0,0-5.1,9.7-6.9,14.2c-1.8,4.6-5,15.1-5.4,16.5l-2.8,24.4l-8.1-2.6 c0,0-0.3-16.9,0.4-24C35.5,76,38.9,64,38.9,64z"/>
<path d="M130.1,64l-5.1-18.5l-11.7-7.9l-1.9,16.2c0,0,5.1,9.6,6.8,14.1c1.8,4.6,5,15.1,5.4,16.5l2.8,24.4l8.1-2.6 c0,0,0.3-16.9-0.4-24C133.5,76,130.1,64,130.1,64z"/>
<path d="M84.5,116.1c-1,0.1-1.9,0.5-2.2,1.2c-2.9,6.2-8.9,34.4-10.7,39.6c-0.9,2.8-1.7,18.3-3.3,27.3 c-1.9,10.8-8.2,37.3-8.2,37.3l-10.9-1.1c0,0-1.4-26.6-1-36.3c0.3-7.4,3.3-21.8,3.3-21.8s0.7-5.3,0.7-7.9c0.1-9.6,0.9-31,2.8-43.3 c1.5-9.7,10.6-30.1,10.6-30.1s11.9,4.7,18.8,4.7c7,0,18.9-4.8,18.9-4.8s8.6,20.5,10.1,30.2c1.9,12.3,3.2,33.7,3.2,43.3 c0,2.7,0.7,7.9,0.7,7.9s3,14.5,3.3,21.8c0.4,9.7-1,36.3-1,36.3l-10.9,1.1c0,0-6.3-26.5-8.2-37.3c-1.6-9-2.3-24.5-3.3-27.3 c-1.7-5.2-7.7-33.4-10.7-39.6C86.5,116.6,85.6,116.2,84.5,116.1L84.5,116.1z"/>
</g>
<g id="Sleeves" class="toggle" style="fill: rgb(94, 67, 43);">
<path d="M42.6,45.6l0.8,0.3l12.4-8.3c0,0,0.4,8.8,1.4,14.1c0.1,0.7,0.4,1.7,0.6,2.7l-1.6,5.3c0,0-5.6-2.2-8.1-3.6 c-2.4-1.4-6.7-5-6.7-5L42.6,45.6z"/>
<path d="M111.3,54.4c0.3-1.1,0.5-2,0.6-2.7c1-5.3,1.4-14.1,1.4-14.1l12.4,8.3l0.8-0.3l1.2,5.5c0,0-4.3,3.6-6.7,5 c-2.5,1.4-8.1,3.6-8.1,3.6L111.3,54.4z"/>
</g>
</g>
<g id="Boots">

<g id="Gunslinger_Boots" class="option" style="display: inherit;">
<g id="Main_Gunslinger-Boot" style="fill: rgb(76, 57, 41);">
<path d="M62.4,227.8c0,0.2-0.6,3-3.8,3.8c-1,0.3-2.8-0.3-4-0.9c-1.5-0.8-3.2-1.4-4.8-1.9l0,0.1c0,0,0,0.1-0.1,0.1 c-0.5,0.7-1.1,1.4-1.7,2l0,0l0,0c-0.1,0.1-0.1,0.1-0.2,0.2c-0.4,0.3-0.7,0.7-1.1,1l-0.1,0.1l-0.1,0.1c0,0-0.1,0-0.1,0.1 c-0.1,0-0.1,0.1-0.2,0.1c-0.8,0.6-1.8,1.4-2.9,1.2c-1-0.1-2.1-0.5-2.9-0.9c-0.7-0.3-1.4-0.8-1.9-1.2c-0.1-0.1-0.3-0.2-0.3-0.4 c-2.3,0.9-4.7,1.2-5.9,3.8c-0.3,0.5-0.5,1.2-0.4,1.8c0.1,0.8,0.9,0.9,1.6,1.1c1.7,0.4,3.1,0.8,5.1,1.2c2.2,0.5,4.2,0.7,6.4,0.6 c1.7-0.1,3.1-0.2,4.5-1.1c0.6-0.4,1.2-0.7,1.7-1.2c1.1-1.1,1.9-2.2,3.3-2.8c1.1-0.5,2.2-0.9,3.3-1.1c1.6-0.4,3.3-0.7,4.1-2.3 C62.6,230.1,62.6,228.9,62.4,227.8L62.4,227.8"/>
<path d="M106.7,227.8c0,0.2,0.6,3,3.8,3.8c1,0.3,2.8-0.3,4-0.9c1.5-0.8,3.2-1.4,4.8-1.9l0,0.1c0,0,0,0.1,0.1,0.1 c0.5,0.7,1.1,1.4,1.7,2l0,0l0,0c0.1,0.1,0.1,0.1,0.2,0.2c0.4,0.3,0.7,0.7,1.1,1l0.1,0.1l0.1,0.1c0,0,0.1,0,0.1,0.1 c0.1,0,0.1,0.1,0.2,0.1c0.8,0.6,1.8,1.4,2.9,1.2c1-0.1,2.1-0.5,2.9-0.9c0.7-0.3,1.4-0.8,1.9-1.2c0.1-0.1,0.3-0.2,0.3-0.4 c2.3,0.9,4.7,1.2,5.9,3.8c0.3,0.5,0.5,1.2,0.4,1.8c-0.1,0.8-0.9,0.9-1.6,1.1c-1.7,0.4-3.1,0.8-5.1,1.2c-2.2,0.5-4.2,0.7-6.4,0.6 c-1.7-0.1-3.1-0.2-4.5-1.1c-0.6-0.4-1.2-0.7-1.7-1.2c-1.1-1.1-1.9-2.2-3.3-2.8c-1.1-0.5-2.2-0.9-3.3-1.1 c-1.6-0.4-3.3-0.7-4.1-2.3C106.4,230.1,106.5,228.9,106.7,227.8L106.7,227.8"/>
</g>
<g id="Bottom_Gunslinger-Boot" style="fill: rgb(0, 0, 0);">
<path d="M62.4,230c-0.1,0.4-0.2,0.9-0.5,1.3c-0.8,1.6-2.6,1.9-4.1,2.3c-1.1,0.3-2.2,0.7-3.3,1.1 c-1.5,0.6-2.2,1.7-3.3,2.8c-0.5,0.5-1.1,0.8-1.7,1.2c-1.5,0.9-2.9,1-4.5,1.1c-2.2,0.1-4.2-0.2-6.4-0.6c-1.9-0.4-3.4-0.7-5.1-1.2 c-0.5-0.1-1.2-0.2-1.5-0.7l0,0l-0.3,0.7l-0.2,1.5c0,0,1.8,1,3.7,1.4c1.9,0.4,5.8,1,5.8,1l0.3-0.6l0.9,0.2l0,0.6l2.1,0.1l0.4-0.6 l0.7,0l-0.1,0.5c0,0,1.3,0,2-0.4c0.1-0.2,0.4-0.5,0.4-0.5l0.5-0.3l-0.1,0.5l1.8-0.7l0.1-0.7l0.5-0.3l0,0.5l1.3-1l0.1-0.6l3.2-2.3 l0.5,1.2l2.3-0.5l0.1-0.5l0.6-0.2l0.4,0.4l1.5-0.6l0-0.5l0.5-0.2l0.1,0.3l1.4-1l0.3-2l0.1-2.2L62.4,230L62.4,230"/>
<path d="M106.6,230c0.1,0.4,0.2,0.9,0.5,1.3c0.8,1.6,2.6,1.9,4.1,2.3c1.1,0.3,2.2,0.7,3.3,1.1 c1.5,0.6,2.2,1.7,3.3,2.8c0.5,0.5,1.1,0.8,1.7,1.2c1.5,0.9,2.9,1,4.5,1.1c2.2,0.1,4.2-0.2,6.4-0.6c1.9-0.4,3.4-0.7,5.1-1.2 c0.5-0.1,1.2-0.2,1.5-0.7l0,0l0.3,0.7l0.2,1.5c0,0-1.8,1-3.7,1.4c-1.9,0.4-5.8,1-5.8,1l-0.3-0.6l-0.9,0.2l0,0.6l-2.1,0.1 l-0.4-0.6l-0.7,0l0.1,0.5c0,0-1.3,0-2-0.4c-0.1-0.2-0.4-0.5-0.4-0.5l-0.5-0.3l0.1,0.5l-1.8-0.7l-0.1-0.7l-0.5-0.3l0,0.5l-1.3-1 l-0.1-0.6l-3.2-2.3l-0.5,1.2l-2.3-0.5l-0.1-0.5l-0.6-0.2l-0.4,0.4l-1.5-0.6l0-0.5l-0.5-0.2l-0.1,0.3l-1.4-1l-0.3-2l-0.1-2.2 L106.6,230L106.6,230"/>
</g>
<g id="Top_Gunslinger-Boot" style="fill: rgb(55, 47, 35);">
<path d="M49.9,228.8c1.9-2.8,3.2-6.2,3.7-9.1l0,0l-0.5,0l0,0l-0.1,0l-0.2,0l-0.3,0l-0.1,0c-0.3,0-0.6-0.1-0.9-0.1 l-0.5-0.1l-0.1,0l0,0l-0.1,0l-0.3-0.1l-0.3-0.1l0,0c-1-0.3-0.9-0.5-0.9-0.5c-0.3,1.3-0.9,2.7-1.5,4c-0.9,1.9-2.7,3.6-4.1,5.1 c-1,1-2.5,2-3.7,2.8c-0.5,0.3-1.1,0.6-1.6,0.8c0.4,0.6,1.4,1.2,2.2,1.6c0.8,0.4,1.9,0.8,2.9,0.9c1,0.1,2.1-0.7,2.9-1.2 C47.6,231.6,48.8,230.3,49.9,228.8L49.9,228.8"/>
<path d="M119.2,228.8c-1.9-2.8-3.2-6.2-3.7-9.1l0,0l0.5,0l0,0l0.1,0l0.2,0l0.3,0l0.1,0c0.3,0,0.6-0.1,0.9-0.1 l0.5-0.1l0.1,0l0,0l0.1,0l0.3-0.1l0.3-0.1l0,0c1-0.3,0.9-0.5,0.9-0.5c0.3,1.3,0.9,2.7,1.5,4c0.9,1.9,2.7,3.6,4.1,5.1 c1,1,2.5,2,3.7,2.8c0.5,0.3,1.1,0.6,1.6,0.8c-0.4,0.6-1.4,1.2-2.2,1.6c-0.8,0.4-1.9,0.8-2.9,0.9c-1,0.1-2.1-0.7-2.9-1.2 C121.5,231.6,120.3,230.3,119.2,228.8L119.2,228.8"/>
</g>
<g id="Side_Gunslinger-Boot" style="fill: rgb(94, 67, 43);">
<path d="M49.8,228.9c1.7,0.5,3.3,1.1,4.8,1.9c1.1,0.6,2.9,1.1,4,0.9c3.2-0.8,3.8-3.8,3.8-3.8c-0.1-0.7-0.8-3.2-1-3.9 c-0.5-1.5-0.4-5.3-0.5-5.3c-2.6,1.4-6,1.1-7.3,1l0,0C53.1,222.7,51.8,226.1,49.8,228.9"/>
<path d="M119.2,228.9c-1.7,0.5-3.3,1.1-4.8,1.9c-1.1,0.6-2.9,1.1-4,0.9c-3.2-0.8-3.8-3.8-3.8-3.8 c0.1-0.7,0.8-3.2,1-3.9c0.5-1.5,0.4-5.3,0.5-5.3c2.6,1.4,6,1.1,7.3,1l0,0C116,222.7,117.3,226.1,119.2,228.9"/>
</g>
</g>

</g>
<g id="Gloves">
<g id="Left-Glove">

<g id="Basic_Left_Glove" class="option" style="fill: rgb(55, 47, 35); display: inherit;">
<path d="M131.4,123c-0.5,0-0.9,0-1.3,0.1c-0.3,0.1-0.6,0.2-0.9,0.3c-0.8,0.5-0.6,1.7,0.1,2.2c0.9,0.5,2.2,0,2.6-1 C132.1,124.2,131.6,123.4,131.4,123"/>
<path d="M129.9,124c-0.5,0-0.9,0-1.3,0.1c-0.3,0.1-0.6,0.2-0.9,0.3c-0.8,0.5-0.6,1.7,0.1,2.2c0.9,0.5,2.2,0,2.6-1 C130.6,125.2,130.1,124.4,129.9,124"/>
<path d="M128.8,125.4c-0.4,0-1,0.1-1.4,0.3c-0.3,0.1-0.6,0.2-0.8,0.5c-0.8,0.7-0.4,1.8,0.4,2.1 c0.9,0.4,2.2-0.3,2.5-1.4C129.5,126.5,128.8,125.4,128.8,125.4z"/>
<path d="M126.3,109.6c0,0-1.3,2-1.6,3.5c-0.2,1-0.1,3.5-0.4,5.2c-0.3,1.7-0.6,2.6-0.6,2.6s-1.2,2.7-0.9,3.3 c0.2,0.6,1.2,1.2,1.8,0.8c0.7-0.4,1.6-2.3,2.2-3.6c0.6-1.3,1-3.2,1-3.2s0.8,0.3,1.2,0.7c1.3,1.2,0.8,4.7,0.8,4.7 s-0.6,1.3-1.4,2.7c-1.1,1.9-2.9,3.6-1.7,5.1c1.1,1.4,3.5-2.3,3.5-2.3l2.4-3.5c0,0,2.8-5.1,2.9-6.1c0.1-0.8,0-3.3,0-3.3l-0.9-9.9 l-4.4,0.4l-3.6,1.3L126.3,109.6"/>
</g>
</g>
<g id="Right-Glove">

<g id="Basic_Right_Glove" class="option" style="fill: rgb(55, 47, 35); display: inherit;">
<path d="M37.6,123c0.5,0,0.9,0,1.3,0.1c0.3,0.1,0.6,0.2,0.9,0.3c0.8,0.5,0.6,1.7-0.1,2.2c-0.9,0.5-2.2,0-2.6-1 C36.9,124.2,37.4,123.4,37.6,123"/>
<path d="M39.2,124c0.5,0,0.9,0,1.3,0.1c0.3,0.1,0.6,0.2,0.9,0.3c0.8,0.5,0.6,1.7-0.1,2.2c-0.9,0.5-2.2,0-2.6-1 C38.4,125.2,38.9,124.4,39.2,124"/>
<path d="M40.3,125.4c0.5,0,1,0.1,1.4,0.3c0.3,0.1,0.6,0.2,0.8,0.5c0.8,0.7,0.4,1.8-0.4,2.1c-0.9,0.4-2.2-0.3-2.5-1.4 C39.5,126.5,40.3,125.4,40.3,125.4z"/>
<path d="M42.7,109.6c0,0,1.3,2,1.6,3.5c0.2,1,0.1,3.5,0.4,5.2c0.3,1.7,0.6,2.6,0.6,2.6s1.1,2.7,0.9,3.3 c-0.2,0.6-1.2,1.2-1.8,0.8c-0.7-0.4-1.6-2.3-2.2-3.6c-0.6-1.3-1-3.2-1-3.2s-0.8,0.3-1.2,0.7c-1.3,1.2-0.8,4.7-0.8,4.7 s0.6,1.3,1.4,2.7c1.1,1.9,2.9,3.6,1.7,5.1c-1.1,1.4-3.5-2.3-3.5-2.3l-2.4-3.5c0,0-2.8-5.1-2.9-6.1c-0.1-0.8,0-3.3,0-3.3l0.9-9.9 l4.4,0.4l3.6,1.3L42.7,109.6"/>
</g>
</g>
</g>
<g id="Biceps">
<g id="Left-Biceps">

<g id="Basic_Biceps_Left" class="option" style="display: inherit;">
<path id="Main_Basic_Biceps_Left" d="M131.5,57.7c-1.2-2.8-6.3-15-6.3-15s-8.4,3.5-10.5,4.3 c-0.6,0.2-0.9,0.9-0.6,1.5c1,2.4,3.4,8.3,4.9,11.9c0.3,0.8,1,1.5,1.8,1.8c0.8,0.3,1.8,0.3,2.6,0c2.5-1,5.8-2.4,7.5-3.1 C131.5,59,131.8,58.3,131.5,57.7z" style="fill: rgb(63, 31, 28);"/>
<path id="Strap_Basic_Biceps_Left" d="M116.4,54l-4.6,1.9l1.1,3.9l5-2.1L116.4,54" style="fill: rgb(60, 40, 11);"/>
<path id="Trauma-Plate_Basic_Biceps_Left" class="toggle" style="fill: rgb(96, 46, 41);" d="M131.5,57.2l-5.3-13l-10.3,4.2l4.7,11.4 c0.2,0.4,0.5,0.7,0.9,0.9c0.4,0.2,0.9,0.2,1.3,0L131.5,57.2"/>
</g>

</g>
<g id="Right-Biceps">


<g id="None_Biceps_Right" class="option" style="display: inherit;">
</g>
</g>
</g>
<path id="Vest" d="M90.9,86.3c-4.2,0.9-8.6,0.9-12.8,0c-4.2-0.9-12.5-5.2-12.5-5.2s-7.2-22.8-8.5-29.4 c-1-5.3-1.4-14.1-1.4-14.1L43.4,46l-2.6-1.1c0,0,7.4-16.4,12.3-21.1c4.4-4.3,17-7.3,17-7.3s5.5,6.1,14.6,6.1 c8.6,0,14.6-6.1,14.6-6.1s12.5,3.1,17,7.3c4.9,4.7,12.3,21.1,12.3,21.1l-2.6,1.1l-12.4-8.3c0,0-0.4,8.8-1.4,14.1 c-1.3,6.6-8.5,29.4-8.5,29.4S95.1,85.4,90.9,86.3z" style="fill: rgb(90, 77, 50);"/>
<g class="swappable" id="Chest">
<g id="Chest_Classic" style="visibility: visible;">
<g id="Abdomen_Classic">
<path id="Abdomen-Plate_Classic" d="M70.8,76c3.2,0.7,9.1,1,13.7,1c4.6,0,10.5-0.4,13.7-1c2-0.4,5.7-9.5,5.7-9.5 l-5.3-3.7l-3.9-8.5l-10.1-2.5l-10.1,2.5l-3.9,8.5l-5.3,3.7C65.1,66.5,68.8,75.6,70.8,76" style="fill: rgb(63, 31, 28);"/>
<path id="Trauma-Plate_Abdomen_Classic" class="toggle" style="fill: rgb(96, 46, 41);" d="M93.8,55.2L84.5,53l-9.3,2.3l-3.7,8 c-0.1,0.2-0.2,0.3-0.4,0.4l-4.6,3.2c0.6,1.4,1.9,4.3,3.1,6.3c0.3,0.5,0.7,1,1,1.4c0.1,0.2,0.4,0.3,0.4,0.4c3.1,0.6,8.9,1,13.4,1 c4.5,0,10.3-0.4,13.4-1c0,0,0.3-0.2,0.4-0.4c0.3-0.4,0.7-0.8,1-1.4c1.3-2,2.6-5,3.1-6.3l-4.6-3.2c-0.2-0.1-0.3-0.3-0.4-0.4 L93.8,55.2z"/>
</g>
<g id="Iron-Heart_Classic">
<path id="Heart_Classic" d="M81.8,41.8v-8.9l2.7-2.1l2.7,2.1v8.9l-2.7,2.6L81.8,41.8z" style="fill: rgb(96, 46, 41);"/>

<rect id="Center_Heart_Classic" class="option" x="83.5" y="33.7" width="2" height="7.9" style="fill: rgb(113, 41, 34); display: inherit;"/>
</g>
<g id="Left-Chest_Classic">
<path id="Chest_Left_Classic" d="M108,31.4c-3.8-3.7-21.3-3.8-21.3-3.8l-0.2,2l2.9,2.6l-0.2,11l-2.6,2.4v3.6 l9.8,2.6l3.9,8.5l4.3,3.4c0,0,4.5-10.4,5.1-16.2C110,43.8,111.3,34.6,108,31.4" style="fill: rgb(63, 31, 28);"/>
<path id="Trauma-Plating_Left-Chest_Classic" class="toggle" style="fill: rgb(96, 46, 41);" d="M87.7,28.8l-0.1,0.5l2.5,2.2c0.2,0.2,0.4,0.5,0.4,0.8 l-0.2,11c0,0.3-0.1,0.6-0.3,0.8l-2.2,2.1v2.3l8.9,2.4c0.3,0.1,0.6,0.3,0.7,0.6l3.8,8.3l2.9,2.3c1.2-3,4-10.1,4.4-14.5 c0.2-2.3,0.8-6.4,0.5-10.1c-0.2-2.2-0.6-4.2-1.8-5.3c-1-1-3.2-1.6-5.7-2.1C96.5,29.1,90.1,28.8,87.7,28.8z"/>
</g>
<g id="Right-Chest_Classic">
<path id="Chest_Right_Classic" d="M61,31.4c3.8-3.7,21.3-3.8,21.3-3.8l0.2,2l-2.9,2.6l0.2,11l2.6,2.4v3.6L72.7,52 l-3.9,8.5l-4.3,3.4c0,0-4.5-10.4-5.1-16.2C59,43.8,57.7,34.6,61,31.4" style="fill: rgb(96, 46, 41);"/>
<path id="Trauma-Plating_Right-Chest_Classic" class="toggle" style="display: none; fill: rgb(255, 255, 255);" d="M81.3,28.8c-2.5,0.1-8.8,0.3-13.8,1.3 c-2.5,0.5-4.7,1.1-5.7,2.1c-1.2,1.1-1.6,3.1-1.8,5.3c-0.3,3.6,0.2,7.8,0.5,10.1c0.4,4.4,3.2,11.6,4.4,14.5l2.9-2.3l3.8-8.3 c0.1-0.3,0.4-0.5,0.7-0.6l8.9-2.4v-2.3l-2.2-2.1c-0.2-0.2-0.3-0.5-0.3-0.8l-0.2-11c0-0.3,0.1-0.6,0.4-0.8l2.5-2.2L81.3,28.8z"/>
</g>
<g id="Neck-Armor_Classic">
<path id="Neck-Plate_Classic" d="M84.5,26c-6.9,0-20.8-1.5-20.8-1.5l-2.1-5.7l9.8-2.5c0,0,1.3,1.9,2.2,2.6 c1,0.7,2.3,1.5,3.5,1.9c1.3,0.5,2.9,0.8,4.5,1c1.7,0.2,4.3,0.2,6,0c1.5-0.2,3.3-0.5,4.6-1c1.2-0.5,2.3-1.3,3.3-1.9 c0.9-0.7,2.2-2.6,2.2-2.6l9.8,2.5l-2.1,5.7C105.3,24.6,91.4,26,84.5,26z" style="fill: rgb(96, 46, 41);"/>
<path id="Trauma-Plates_Neck_Classic" class="toggle" style="display: none; fill: rgb(255, 255, 255);" d="M83.3,24.9c-6.2-0.1-16.1-1.1-18.8-1.4L63,19.7l7.8-2 c0.5,0.7,1.4,1.7,2,2.2c1,0.7,2.4,1.6,3.7,2.1c1.4,0.5,3.1,0.9,4.7,1.1c0.6,0.1,1.3,0.1,2,0.2V24.9z M85.7,23.2 c0.7,0,1.4-0.1,2-0.2c1.6-0.2,3.5-0.6,4.9-1.1c1.3-0.5,2.5-1.3,3.6-2.1c0.7-0.5,1.5-1.5,2-2.2l7.8,2l-1.5,3.9 c-2.7,0.3-12.7,1.3-18.8,1.4V23.2z"/>
</g>
</g>





</g>
<g id="Chest-Attachments">


<g id="No-Device_Accessories_Chest" class="option" style="display: inherit;">
</g>
</g>
<g id="Collar">



<g id="None_Collar" class="option" style="display: inherit;">
</g>
</g>
<svg version="1.1" id="Helmets" xmlns="http://www.w3.org/2000/svg" y="-54px" height="85px" viewBox="0 0 80 80" class="swappable">











<g id="Helmet_McQuarrie" style="visibility: visible;">
<g id="Left-Earcap_McQuarrie" class="toggle">
<path id="Base_Earcap_Left_McQuarrie" d="M60.2,34.9c0-0.3-0.2-0.5-0.5-0.5h-1v3.8h1.5V34.9z" style="fill: rgb(96, 46, 41);"/>
<rect id="Shaft_Earcap_Left_McQuarrie" x="58.6" y="8" width="1.1" height="26.4" style="fill: rgb(96, 46, 41);"/>
<g id="Finder_Earcap_Left_McQuarrie" style="fill: rgb(47, 81, 50);">
<rect x="59.8" y="9.4" width="7" height="2.3"/>
<path d="M66.4,9h-6.7v0.5h7L66.4,9z"/>
<path d="M65.3,12.8h-5.5v-1.1h7L65.3,12.8z"/>
</g>
<path id="Accent_Earcap_Left_McQuarrie" d="M66.1,10.6c0-0.1,0-0.1-0.1-0.2c-0.1-0.1-0.1-0.1-0.2-0.1h-5.2 c-0.1,0-0.1,0-0.2,0.1c-0.1,0.1-0.1,0.1-0.1,0.2c0,0.1,0,0.1,0.1,0.2c0.1,0.1,0.1,0.1,0.2,0.1h5.2c0.1,0,0.1,0,0.2-0.1 C66.1,10.7,66.1,10.7,66.1,10.6z" style="fill: rgb(41, 91, 96);"/>
</g>
<g id="Right-Earcap_McQuarrie" class="toggle" style="display:none"/>
<g id="Helmet_Pieces_McQuarrie">
<path id="Mouth-2_McQuarrie" d="M40,52.1l8.6,0.8l1.2,11.8c0,0-6.5,0.8-9.8,0.8s-9.8-0.8-9.8-0.8l1.2-11.8L40,52.1z" style="fill: rgb(96, 46, 41);"/>
<g id="Mouth-1_McQuarrie" style="fill: rgb(54, 50, 92);">
<g>
<path d="M34.3,57.7c2.3-0.3,4.3,1.1,4.4,3.1c0.1,2-1.6,3.8-3.9,4.1c-2.3,0.3-4.3-1.1-4.4-3.1 C30.3,59.9,32,58,34.3,57.7z"/>
<path d="M33,59.4c2.1-1.2,4.8-0.8,6.1,0.9c1.2,1.7,0.5,4.1-1.6,5.4c-2.1,1.2-4.8,0.8-6.1-0.9 C30.2,63,30.9,60.6,33,59.4z"/>
<path d="M33.2,59.6c2.1-1.2,4.7-0.8,5.9,0.9c1.2,1.7,0.5,4.1-1.6,5.4c-2.1,1.2-4.7,0.8-5.9-0.9 C30.4,63.2,31.1,60.8,33.2,59.6z"/>
<path d="M33.5,60.3c2.1-1.3,4.7-0.9,5.9,0.9c1.2,1.8,0.5,4.2-1.6,5.5c-2.1,1.3-4.7,0.9-5.9-0.9 C30.7,64,31.4,61.5,33.5,60.3z"/>
<path d="M33.8,60.7c1.8-1.1,4.1-0.7,5.1,0.8s0.4,3.6-1.3,4.7c-1.8,1.1-4.1,0.7-5.1-0.8C31.4,63.9,32,61.8,33.8,60.7 z"/>
<path d="M33.6,60.6c1.6-1,3.7-0.6,4.7,0.7c0.9,1.3,0.4,3.2-1.2,4.1c-1.6,1-3.7,0.6-4.7-0.7 C31.5,63.4,32,61.6,33.6,60.6z"/>
<path d="M34.1,61.1c1.2-0.7,2.8-0.5,3.5,0.5c0.7,1,0.3,2.4-0.9,3.1c-1.2,0.7-2.8,0.5-3.5-0.5 C32.5,63.2,32.9,61.8,34.1,61.1z"/>
</g>
<g>
<path d="M45.7,57.7c-2.3-0.3-4.3,1.1-4.4,3.1c-0.1,2,1.6,3.8,3.9,4.1c2.3,0.3,4.3-1.1,4.4-3.1 C49.7,59.9,48,58,45.7,57.7z"/>
<path d="M47,59.4c-2.1-1.2-4.8-0.8-6.1,0.9c-1.2,1.7-0.5,4.1,1.6,5.4c2.1,1.2,4.8,0.8,6.1-0.9 C49.8,63,49.1,60.6,47,59.4z"/>
<path d="M46.8,59.6c-2.1-1.2-4.7-0.8-5.9,0.9c-1.2,1.7-0.5,4.1,1.6,5.4c2.1,1.2,4.7,0.8,5.9-0.9 C49.6,63.2,48.9,60.8,46.8,59.6z"/>
<path d="M46.5,60.3c-2.1-1.3-4.7-0.9-5.9,0.9c-1.2,1.8-0.5,4.2,1.6,5.5c2.1,1.3,4.7,0.9,5.9-0.9 C49.3,64,48.6,61.5,46.5,60.3z"/>
<path d="M46.2,60.7c-1.8-1.1-4.1-0.7-5.1,0.8s-0.4,3.6,1.3,4.7c1.8,1.1,4.1,0.7,5.1-0.8 C48.6,63.9,48,61.8,46.2,60.7z"/>
<path d="M46.4,60.6c-1.6-1-3.7-0.6-4.7,0.7c-0.9,1.3-0.4,3.2,1.2,4.1c1.6,1,3.7,0.6,4.7-0.7 C48.6,63.4,48,61.6,46.4,60.6z"/>
<path d="M45.9,61.1c-1.2-0.7-2.8-0.5-3.5,0.5c-0.7,1-0.3,2.4,0.9,3.1c1.2,0.7,2.8,0.5,3.5-0.5 C47.6,63.2,47.2,61.8,45.9,61.1z"/>
</g>
<g>
<rect x="35.9" y="52.1" width="8.3" height="3.2"/>
<rect x="36.3" y="55.3" width="7.4" height="0.8"/>
<rect x="35.9" y="56.1" width="8.3" height="1.6"/>
</g>
</g>
<path id="Nose-2_McQuarrie" d="M40,41.5c0.4,0,0.9,1.6,2.2,1.9v9.5c0,0-0.4-0.2-0.9-0.3c-0.4-0.1-1.2,0-1.3,0h-1.3 c-0.4,0.1-0.9,0.3-0.9,0.3v-9.5C39.1,43.1,39.6,41.5,40,41.5z" style="fill: rgb(54, 50, 92);"/>
<path id="Nose-1_McQuarrie" d="M39.4,44.8c0-0.3,0.3-0.6,0.6-0.6s0.6,0.3,0.6,0.6v7h-1.2V44.8z" style="fill: rgb(47, 81, 50);"/>
<g id="Face-2_McQuarrie" style="fill: rgb(47, 81, 50);">
<path d="M51.7,64.3c0,0,3.4-1,5.2-1.5c1.9-0.5,2.4-1.7,2.4-1.7V48.6l-6.1,3.2C50.2,57.2,51.6,64.1,51.7,64.3z"/>
<path d="M28.3,64.3c0,0-3.4-1-5.2-1.5c-1.9-0.5-2.4-1.7-2.4-1.7V48.6l6.1,3.2C29.8,57.2,28.4,64.1,28.3,64.3z"/>
<rect x="59.3" y="41.3" width="1.5" height="19.4"/>
<rect x="19.2" y="41.3" width="1.5" height="19.4"/>
</g>
<ellipse id="Face-1_McQuarrie" cx="27.1" cy="59.9" rx="0.5" ry="0.8" style="fill: rgb(41, 91, 96);"/>
<g id="Cheeks_McQuarrie" style="fill: rgb(38, 62, 40);">
<path d="M53.1,51.8l6.1-3.2v-6.8c-0.8,0.3-1.7,0.6-2.3,0.9c-1.4,0.7-3.7,2-4.5,2.6c-0.8,0.6-0.8,1.5-0.8,1.5 L53.1,51.8z"/>
<path d="M51.7,46.8c0,0.1-1.3,4.2-1.5,5.7c-0.6,5.6,0.7,12.4,0.7,12.4l0.8-0.6c0,0-1.5-7,1.5-12.5L51.7,46.8z"/>
<path d="M26.9,51.8l-6.1-3.2v-6.8c0.8,0.3,1.7,0.6,2.3,0.9c1.4,0.7,3.7,2,4.5,2.6c0.8,0.6,0.8,1.5,0.8,1.5L26.9,51.8 z"/>
<path d="M28.3,46.8c0,0.1,1.3,4.2,1.5,5.7c0.6,5.6-0.7,12.4-0.7,12.4l-0.8-0.6c0,0,1.5-7-1.5-12.5L28.3,46.8z"/>
</g>
<g id="Eyes_McQuarrie" style="fill: rgb(87, 34, 29);">
<g>
<path d="M51.7,46.8l-9.5-2.6v8.7c0,0,1.1,0.8,2.1,0.8c1.1,0,2.9-0.8,3.5-0.2c0.7,0.6,0.9,2.2,0.8,3.8 c-0.1,1.6,0.6,6.1,1,7.6l0.6,0.2l0.5-0.2v-0.1c-0.1-0.3-1.3-7-0.7-12.4C50.3,51.1,51.5,47.3,51.7,46.8z M51.7,46.8L51.7,46.8z"/>
<path d="M28.4,46.8l9.5-2.6v8.7c0,0-1.1,0.8-2.1,0.8c-1.1,0-2.9-0.8-3.5-0.2c-0.7,0.6-0.9,2.2-0.8,3.8 c0.1,1.6-0.6,6.1-1,7.6l-0.6,0.2l-0.5-0.2v-0.1c0.1-0.3,1.3-7,0.7-12.4C29.7,51.1,28.5,47.3,28.4,46.8z M28.3,46.8L28.3,46.8z"/>
</g>
<path d="M37.8,43.4v0.8l-9.5,2.6c0,0,0-0.9-0.8-1.5c-0.8-0.6-3.1-2-4.5-2.6c-1.2-0.6-4.1-1.4-4.1-1.4v-3H61v3 c0,0-2.9,0.8-4.1,1.4c-1.4,0.7-3.7,2-4.5,2.6c-0.8,0.6-0.8,1.5-0.8,1.5l-9.5-2.6v-0.8c3.4,0.2,17.3-3.1,17.3-3.1s0.7-0.2,0.7-0.8 S59.4,39,59.4,39l-10.1,0.8L40,40.3l-9.4-0.4l-10.1-0.8c0,0-0.7-0.1-0.7,0.5c0,0.6,0.7,0.8,0.7,0.8S34.4,43.6,37.8,43.4 M42,43.4 c0.1,0,0.1,0,0.2,0.1C42.1,43.4,42,43.4,42,43.4 M38,43.4c-0.1,0-0.1,0-0.2,0.1C37.9,43.4,38,43.4,38,43.4 M38.2,43.3 C38.2,43.3,38.1,43.3,38.2,43.3 M39.3,42.3C39.3,42.3,39.2,42.3,39.3,42.3C39.2,42.3,39.3,42.3,39.3,42.3 M39.5,42 c0,0.1-0.1,0.1-0.1,0.2C39.4,42.1,39.4,42.1,39.5,42 M40.5,42c0.1,0.1,0.1,0.2,0.1,0.2C40.6,42.1,40.6,42,40.5,42 M39.8,41.7 L39.8,41.7C39.7,41.8,39.7,41.7,39.8,41.7 M40.3,41.7l0.1,0.1C40.3,41.8,40.3,41.7,40.3,41.7 M39.9,41.5 C39.9,41.5,39.9,41.6,39.9,41.5C39.9,41.6,39.9,41.5,39.9,41.5 M40.1,41.5C40.1,41.5,40.1,41.6,40.1,41.5 C40.1,41.6,40.1,41.5,40.1,41.5"/>
</g>
<path id="Visor_McQuarrie" d="M40,40.3l9.4-0.4l10.1-0.8c0,0,0.7-0.1,0.7,0.5c0,0.6-0.7,0.8-0.7,0.8 s-13.8,3.3-17.3,3.1c-0.1,0-0.2,0-0.2-0.1c0,0-0.1,0-0.1-0.1c-0.3-0.2-0.6-0.4-0.9-0.7c0-0.1-0.1-0.1-0.1-0.2 c-0.1-0.1-0.1-0.1-0.2-0.2c0-0.1-0.1-0.1-0.1-0.2l-0.1-0.1c0,0,0-0.1-0.1-0.1l-0.2-0.2c0,0-0.1-0.1-0.2-0.1s-0.1,0-0.2,0.1 L39.4,42c0,0.1-0.1,0.1-0.1,0.2c0,0.1-0.1,0.1-0.2,0.2c0,0.1-0.1,0.1-0.1,0.2c-0.2,0.3-0.5,0.6-0.9,0.7c0,0-0.1,0-0.1,0.1 c-0.1,0-0.1,0.1-0.2,0.1c-3.4,0.2-17.3-3.1-17.3-3.1s-0.7-0.2-0.7-0.8c0-0.6,0.7-0.5,0.7-0.5l10.1,0.8L40,40.3z" style="fill: rgb(0, 0, 0);"/>
<path id="Dome-2_McQuarrie" d="M21.4,34.6c0-9.5,8.3-17.2,18.6-17.2s18.6,7.7,18.6,17.2v3.6H21.4V34.6z" style="fill: rgb(72, 29, 25);"/>
<path id="Dome-1_McQuarrie" d="M40,36.3l-0.8-3.4h1.6L40,36.3z" style="fill: rgb(41, 91, 96);"/>
</g>
</g>




















</svg>
<g id="Shoulders">
<g id="Left-Shoulder">





<g id="Legacy-x3_Shoulder_Left" class="option" style="display: inherit;">
<path id="Plate-3_Shoulder_Left_Legacy-x3" d="M115.7,24.7l-7.4,7.6l4.3,9.4l9.8-0.5l5.2,4.7l4.6-0.3L115.7,24.7z" style="fill: rgb(96, 46, 41);"/>
<path id="Trauma-Plate-3_Shoulder_Legacy-x3_Left" class="toggle" style="display: none; fill: rgb(255, 255, 255);" d="M128.2,44.2l3-0.2L117,25.9l-6.6,6.8l3.4,7.3 l9-0.6L128.2,44.2z"/>
<path id="Plate-2_Shoulder_Left_Legacy-x3" d="M111.7,20l-5.9,8.8l6,8.4l9.5-2.3l6,3.7l4.5-1.2L111.7,20z" style="fill: rgb(47, 81, 50);"/>
<path id="Trauma-Plate-2_Shoulder_Legacy-x3_Left" class="toggle" style="fill: rgb(85, 37, 33);" d="M127.6,36.8l2.9-0.8l-17.3-15.1l-5.2,7.9l4.6,6.5 l8.7-2.2L127.6,36.8z"/>
<path id="Plate-1_Shoulder_Left_Legacy-x3" d="M104.5,15.5l-2.6,10.3l8.4,6l8.2-5.3l6.8,1.5l3.8-2.6L104.5,15.5z" style="fill: rgb(96, 46, 41);"/>
<path id="Trauma-Plate-1_Shoulder_Legacy-x3_Left" class="toggle" style="display: none; fill: rgb(255, 255, 255);" d="M125,26.1l2.5-1.7l-21.3-8.6l-2.4,9.2l6.5,4.6 l7.5-5L125,26.1z"/>
</g>


</g>
<g id="Right-Shoulder">






<g id="Legacy-x2_Shoulder_Right" class="option" style="display: inherit;">
<path id="Plate-2_Shoulder_Right_Legacy-x2" d="M57.4,20l5.9,8.8l-6,8.4L47.7,35l-6,3.7l-4.5-1.2L57.4,20z" style="fill: rgb(38, 62, 40);"/>
<path id="Trauma-Plate-2_Shoulder_Legacy-x2_Right" class="toggle" style="display: none; fill: rgb(255, 255, 255);" d="M41.5,36.8l-2.9-0.8l17.3-15.1l5.2,7.9l-4.6,6.5 l-8.7-2.2L41.5,36.8z"/>
<path id="Plate-1_Shoulder_Right_Legacy-x2" d="M64.6,15.5l2.6,10.3l-8.5,6l-8.2-5.3L43.7,28l-3.8-2.6L64.6,15.5z" style="fill: rgb(47, 81, 50);"/>
<path id="Trauma-Plate-1_Shoulder_Legacy-x2_Right" class="toggle" style="display: none; fill: rgb(255, 255, 255);" d="M44.1,26.1l-2.5-1.7l21.3-8.6l2.4,9.2l-6.5,4.6 l-7.5-5L44.1,26.1z"/>
</g>

</g>
</g>
<g id="Gauntlets">
<g id="Left-Gauntlets">

<g id="Heavy_Gauntlet_Left" class="option" style="display: inherit;">
<g id="Top-2_Heavy_Gauntlet_Left" style="fill: rgb(47, 81, 50);">
<path d="M136.7,80.1l1.7,0.3l0.8,8.3l-1.6,1.1L136.7,80.1z"/>
<path d="M137.5,89.1l1,10.9l-1.1,1.2l0.6,6.4l-0.5,0.3l-1.7-17.5L137.5,89.1z"/>
<path d="M137.8,86c0.2,0,0.4,0.2,0.3,0.4s-0.2,0.4-0.4,0.3c-0.2,0-0.4-0.2-0.3-0.4C137.4,86.2,137.6,86,137.8,86z"/>
</g>
<g id="Top-1_Heavy_Gauntlet_Left" style="fill: rgb(96, 46, 41);">
<path d="M133,108.7l4.5-0.8l-1.7-17.5l1.7-1.3l-0.9-9.5l-6.6-1.2L133,108.7z"/>
<path d="M134.9,79.2l0.9,11.1"/>
</g>
<g id="Accent-Top_Heavy_Gauntlet_Left" style="fill: rgb(76, 28, 23);">
<path d="M136.5,105.1l-2.8,0.3l0.2,2.2l2.8-0.4L136.5,105.1z"/>
<path d="M135.5,95.8l-2.8,0.3l0.9,8.6l2.8-0.3L135.5,95.8z"/>
<path d="M134.3,79.8l-3.1-0.5l0.9,9.5l3-0.4L134.3,79.8z"/>
</g>
<path id="Bottom_Heavy_Gauntlet_Left" d="M130.1,78.8c-3.4-0.2-7.1,1-9.5,3.7c-0.8,0.9-1.1,2.1-0.9,3.2 c1.2,5.6,5.2,23.7,5.2,23.7l8.2-0.7L130.1,78.8z" style="fill: rgb(96, 46, 41);"/>
<g id="Accent-Bottom_Heavy_Gauntlet_Left" style="fill: rgb(54, 50, 92);">
<path d="M133,108.7l-8.2,0.7l-0.3-1.5l8.3-0.9L133,108.7z"/>
<path d="M130.3,80.8c-4.4,0.1-8.2,1.4-10.3,6l-0.2-1.1c-0.2-0.9,0-1.8,0.4-2.6l0.5-0.6c2.4-2.7,6.1-3.8,9.5-3.7 L130.3,80.8z"/>
<path d="M129.2,79.4l-3.6,0.4l1.6,14.3l3.6-0.4L129.2,79.4z"/>
<path d="M128.8,79.7l-2.7,0.3l1.5,13.2l2.7-0.3L128.8,79.7z"/>
<path d="M126.1,80l-0.5-0.2"/>
<path d="M129.2,79.4l-0.4,0.3"/>
<path d="M130.9,93.7l-0.6-0.8"/>
<path d="M127.3,94.1l0.4-0.9"/>
</g>

<g id="Flamethrower_Attachment_Heavy_Gauntlet_Left" class="option" style="display: inherit;">
<g id="Tubes_Flamethrower_Attachment_Heavy_Gauntlet_Left" style="fill: rgb(0, 0, 0);">
<path d="M138.1,80.4l-0.8,0.1l2.3,25.6l0.8-0.1L138.1,80.4z"/>
<path d="M140.1,80.2l-0.8,0.1l1.7,18.3l0.8-0.1L140.1,80.2z"/>
<path d="M138.6,82l-1.3,0.1l0.6,6.1l1.3-0.1L138.6,82z"/>
<path d="M140.4,81.8l-1.2,0.1l0.6,6.1l1.2-0.1L140.4,81.8z"/>
</g>
<g id="Main_Flamethrower_Attachment_Heavy_Gauntlet_Left" style="fill: rgb(96, 46, 41);">
<path d="M140.4,79.8l-3.5,0.3l0.2,2l3.5-0.3L140.4,79.8z"/>
<path d="M141.2,87.9l-3.6,0.3l0.1,1l3.6-0.3L141.2,87.9z"/>
<path d="M141.1,88.9l-3.3,0.3l0,0.5l3.3-0.3L141.1,88.9z"/>
<path d="M137.9,87.6l-0.6,0.1l0.3,3l0.6-0.1L137.9,87.6z"/>
</g>
<g id="Accent_Flamethrower_Attachment_Heavy_Gauntlet_Left" style="fill: rgb(54, 50, 92);">
<path d="M141.8,98.6l-0.9,0.1l0,1.3l1.2-0.1L141.8,98.6z"/>
<path d="M141.5,92l-1.6,0.1l0.2,1.9l1.6-0.1L141.5,92z"/>
<path d="M141.5,94l-1.2,0.1l0.2,1.9l1.2-0.1L141.5,94z"/>
<path d="M140.3,102.7l-1.2,0.1l0.2,2.7l1.2-0.1L140.3,102.7z"/>
<path d="M139.5,94.2l-1.2,0.1l0.3,3.6l1.2-0.1L139.5,94.2z"/>
<path d="M140.7,104.1l-1.6,0.1l0,0.5l1.6-0.1L140.7,104.1z"/>
</g>
<path id="Base_Flamethrower_Attachment_Heavy_Gauntlet_Left" d="M137.3,87.7l-0.7-8.1l1,0.3l1.3,13.6l-0.9,0.5 l-0.3-3.4l0.6-0.1l-0.3-3L137.3,87.7z" style="fill: rgb(38, 62, 40);"/>
</g>


</g>


</g>
<g id="Right-Gauntlets">

<g id="Heavy_Gauntlet_Right" class="option" style="display: inherit;">
<g id="Top-2_Heavy_Gauntlet_Right" style="fill: rgb(47, 81, 50);">
<path d="M32.4,80.1l-1.7,0.3l-0.8,8.3l1.6,1.1L32.4,80.1z"/>
<path d="M31.6,89.1l-1,10.9l1.1,1.2l-0.6,6.4l0.5,0.3l1.7-17.5L31.6,89.1z"/>
<path d="M31.3,86c-0.2,0-0.4,0.2-0.3,0.4c0,0.2,0.2,0.4,0.4,0.3c0.2,0,0.4-0.2,0.3-0.4C31.7,86.2,31.5,86,31.3,86z"/>
</g>
<g id="Top-1_Heavy_Gauntlet_Right" style="fill: rgb(96, 46, 41);">
<path d="M36,108.7l-4.5-0.8l1.7-17.5l-1.7-1.3l0.9-9.5l6.6-1.2L36,108.7z"/>
<path d="M34.2,79.2l-0.9,11.1"/>
</g>
<g id="Accent-Top_Heavy_Gauntlet_Right" style="fill: rgb(76, 28, 23);">
<path d="M32.6,105.1l2.8,0.3l-0.2,2.2l-2.8-0.4L32.6,105.1z"/>
<path d="M33.6,95.8l2.8,0.3l-0.9,8.6l-2.8-0.3L33.6,95.8z"/>
<path d="M34.8,79.8l3.1-0.5l-0.9,9.5l-3-0.4L34.8,79.8z"/>
</g>
<path id="Bottom_Heavy_Gauntlet_Right" d="M39,78.8c3.4-0.2,7.1,1,9.5,3.7c0.8,0.9,1.1,2.1,0.9,3.2 c-1.2,5.6-5.2,23.7-5.2,23.7l-8.2-0.7L39,78.8z" style="fill: rgb(96, 46, 41);"/>
<g id="Accent-Bottom_Heavy_Gauntlet_Right" style="fill: rgb(54, 50, 92);">
<path d="M36,108.7l8.2,0.7l0.3-1.5l-8.3-0.9L36,108.7z"/>
<path d="M38.8,80.8c4.4,0.1,8.2,1.4,10.3,6l0.2-1.1c0.2-0.9,0-1.8-0.4-2.6l-0.5-0.6c-2.4-2.7-6.1-3.8-9.5-3.7 L38.8,80.8z"/>
<path d="M39.8,79.4l3.6,0.4l-1.6,14.3l-3.6-0.4L39.8,79.4z"/>
<path d="M40.3,79.7l2.7,0.3l-1.5,13.2l-2.7-0.3L40.3,79.7z"/>
<path d="M42.9,80l0.5-0.2"/>
<path d="M39.8,79.4l0.4,0.3"/>
<path d="M38.2,93.7l0.6-0.8"/>
<path d="M41.8,94.1l-0.4-0.9"/>
</g>
<g id="Whistling-Birds_Attachment_Heavy_Gauntlet_Right" class="option" style="display: inherit;">
<path id="Head_Whistling-Birds_Attachment_Heavy_Gauntlet_Right" d="M28,94.5l2.6,5.4l0.5-5.1L28,94.5z" style="fill: rgb(96, 46, 41);"/>
<g id="Birds_Whistling-Birds_Attachment_Heavy_Gauntlet_Right" style="fill: rgb(24, 190, 223);">
<g>
<path d="M30.5,95.1c-0.1,0-0.2,0.2-0.3,0.6c0,0.3,0,0.6,0.2,0.6c0.1,0,0.2-0.2,0.3-0.6 C30.7,95.4,30.6,95.1,30.5,95.1z"/>
<path d="M30.4,96.8c-0.1,0-0.2,0.2-0.3,0.6c0,0.3,0,0.6,0.2,0.6c0.1,0,0.2-0.2,0.3-0.6 C30.6,97.1,30.5,96.8,30.4,96.8z"/>
<path d="M29.7,95.1c-0.1,0-0.2,0.2-0.3,0.6c0,0.3,0,0.6,0.2,0.6c0.1,0,0.2-0.2,0.3-0.6 C29.9,95.3,29.8,95.1,29.7,95.1z"/>
<path d="M30.3,99.4c0-0.1,0.1-0.2,0.1-0.3c0-0.3,0-0.6-0.2-0.6c-0.1,0-0.2,0.1-0.2,0.3L30.3,99.4z M29.6,97.8 c0.1-0.1,0.1-0.3,0.1-0.5c0-0.3,0-0.6-0.2-0.6c-0.1,0-0.2,0.2-0.3,0.5L29.6,97.8z M28.8,96.2c0.1,0,0.2-0.3,0.3-0.6 c0-0.3,0-0.6-0.2-0.6c-0.1,0-0.2,0.2-0.3,0.6c0,0.1,0,0.1,0,0.2L28.8,96.2z"/>
</g>
</g>
<g id="Base_Whistling-Birds_Attachment_Heavy_Gauntlet_Right" style="fill: rgb(38, 62, 40);">
<path d="M29.6,79l2.1,0.2l-0.1,0.9l-2.1-0.2L29.6,79z"/>
<path d="M29.3,79.9l2.3,0.2l-1.3,14.6L28,94.5L29.3,79.9z"/>
<path d="M29,80l0.3,0l-1.1,12.6l-0.3,0L29,80z"/>
<path d="M29.7,79.9l0.3,0l-1.2,13.7l-0.3,0L29.7,79.9z"/>
</g>
<g id="Accent_Whistling-Birds_Attachment_Heavy_Gauntlet_Right" style="fill: rgb(54, 50, 92);">
<path d="M31.7,79l0.8,0.1l-1.4,14.9l-0.8-0.1L31.7,79z"/>
<path d="M27.9,93.6l3.2,0.3l-0.1,0.9l-3.2-0.3L27.9,93.6z"/>
<path d="M30.3,79.1l1.4,0.1l-0.2,2.1l-1.4-0.1L30.3,79.1z"/>
<path d="M30.4,81.2l1,0.1L31,86.4l-0.9-2L30.4,81.2z"/>
</g>
</g>



</g>


</g>
</g>
<g id="Shins">
<g id="Left-Shin">



<g id="Heavy-Shnees_Shin_Left" class="option" style="display: inherit;">
<g id="Shin_Heavy-Shnees-Shin_Left" style="fill: rgb(96, 46, 41);">
<path d="M110.3,228l5-6l8.6-0.6l-3.4-56.7L96,166.5l9.9,52.9l-0.2,5.7L110.3,228"/>
<path d="M99.8,165.5l-2.5-2.3l-1.8-0.1c0,0-1.1,5-1,7.5c0.1,4.1,3.9,9.4,3.9,9.4l2.7,1.4l3.4-6.9L99.8,165.5"/>
<path d="M117.9,172l2.1-8.4c0,0,2.2,4.9,2.3,7.4c0.2,4.4-0.8,7.3-0.8,7.3L117.9,172"/>
<path d="M115.4,222l8.6-0.6l-1.9-4.4l-5.9,0.2L115.4,222"/>
<path d="M119,217.1l-5.1-37.4"/>
</g>
<g id="Knee_Heavy-Shnees-Shin_Left" style="fill: rgb(47, 81, 50);">
<path d="M115.8,155.9l-13.9,1.7l-2.6,9.9l9.6,12.8l9.2-0.9l3.7-15L115.8,155.9"/>
<path d="M101.9,157.5l2.8,3.8l10.8-1.2l0.4-4.2L101.9,157.5"/>
<path d="M104.7,161.3l-5.3,6.2l2.5-9.9L104.7,161.3"/>
<path d="M115.4,160.1l6.3,4.3l-5.9-8.5L115.4,160.1"/>
<path d="M115.4,160.1l2.6,19.3l3.7-15L115.4,160.1"/>
<path d="M104.7,161.3l-5.3,6.2l9.6,12.8L104.7,161.3"/>
</g>
<g id="Straps_Heavy-Shnees-Shin_Left" class="toggle" style="fill: rgb(60, 40, 11);">
<path d="M99.8,188.8l5.3-0.6l0.4,2.4l-5.3,0.6L99.8,188.8"/>
<path d="M100.1,188.6l1.1-0.1l0.5,2.9l-1.1,0.1L100.1,188.6"/>
<path d="M104.1,212.1l5.3-0.6l0.4,2.4l-5.3,0.6L104.1,212.1"/>
<path d="M104.4,211.9l1.1-0.1l0.5,2.9l-1.1,0.1L104.4,211.9"/>
</g>
</g>





</g>
<g id="Right-Shin">



<g id="Heavy-Shnees_Shin_Right" class="option" style="display: inherit;">
<g id="Shin_Heavy-Shnees-Shin_Right" style="fill: rgb(96, 46, 41);">
<path d="M58.9,228l-5-6l-8.6-0.6l3.4-56.7l24.7,1.9l-9.9,52.9l0.2,5.7L58.9,228"/>
<path d="M69.3,165.5l2.5-2.3l1.8-0.1c0,0,1.1,5,1,7.5c-0.1,4.1-3.9,9.4-3.9,9.4l-2.6,1.4l-3.4-6.9L69.3,165.5"/>
<path d="M51.3,172l-2.1-8.4c0,0-2.2,4.9-2.3,7.4c-0.2,4.4,0.8,7.3,0.8,7.3L51.3,172"/>
<path d="M53.8,222l-8.6-0.6l1.9-4.4l5.9,0.2L53.8,222"/>
<path d="M50.2,217.1l5.1-37.4"/>
</g>
<g id="Knee_Heavy-Shnees-Shin_Right" style="fill: rgb(96, 46, 41);">
<path d="M53.4,155.9l13.9,1.6l2.6,9.9l-9.5,12.8l-9.2-0.9l-3.7-15L53.4,155.9"/>
<path d="M67.3,157.5l-2.8,3.8l-10.8-1.2l-0.4-4.2L67.3,157.5"/>
<path d="M64.5,161.3l5.3,6.2l-2.5-9.9L64.5,161.3"/>
<path d="M53.7,160.1l-6.3,4.3l5.9-8.5L53.7,160.1"/>
<path d="M53.7,160.1l-2.6,19.3l-3.7-15L53.7,160.1"/>
<path d="M64.5,161.3l5.3,6.2l-9.5,12.8L64.5,161.3"/>
</g>
<g id="Straps_Heavy-Shnees-Shin_Right" class="toggle" style="fill: rgb(60, 40, 11);">
<path d="M69.4,188.8l-5.3-0.6l-0.4,2.4l5.3,0.6L69.4,188.8"/>
<path d="M69.1,188.6l-1.1-0.1l-0.5,2.9l1.1,0.1L69.1,188.6"/>
<path d="M65.1,212.1l-5.3-0.6l-0.4,2.4l5.3,0.6L65.1,212.1"/>
<path d="M64.8,211.9l-1.1-0.1l-0.5,2.9l1.1,0.1L64.8,211.9"/>
</g>
</g>





</g>
</g>
<g id="Foot">
<g id="Left-Ankle">


<g id="Legacy_Ankle_Left" class="option" style="display: inherit;">
<path id="Plate-2_Legacy-Ankle_Left" d="M122.9,223.8l3.7,3.3l2.5,3.2l-4,1.3l-9.3-1.9l-3.4-4.5L122.9,223.8" style="fill: rgb(47, 81, 50);"/>
<path id="Plate-1_Legacy-Ankle_Left" d="M106.3,217.6c0,0,3.7,1.7,9.2,1.5c3.8-0.1,5.3-1.1,5.3-1.1l3.2,5.9 l-0.8,3.3l-13.4-1.1l-3.3-2.8L106.3,217.6" style="fill: rgb(96, 46, 41);"/>
<path id="Trauma-Plate-2_Legacy-Ankle_Left" class="toggle" style="display: none; fill: rgb(255, 255, 255);" d="M123.7,224.5l2.9,2.6l1.5,1.9l-3.1,1l-8.2-1.7l-1.3-1.8 l7.6,0.6L123.7,224.5"/>
<path id="Trauma-Plate-1_Legacy-Ankle_Left" class="toggle" style="display: none; fill: rgb(255, 255, 255);" d="M107.7,219.6l0.1,2.7l2.7,2.2l11.8,0.9l0.8-3.3l-1.5-2.8 c-1,0.3-4,1.2-6,1.2C112.4,220.7,109.4,220.1,107.7,219.6"/>
</g>

</g>
<g id="Left-Toe">


<g id="None_Toe_Left" class="option" style="display: inherit;">
</g>
</g>
<g id="Right-Ankle">


<g id="Legacy_Ankle_Right" class="option" style="display: inherit;">
<path id="Plate-2_Legacy-Ankle_Right" d="M46.1,223.8l-3.7,3.3l-2.5,3.2l4,1.3l9.3-1.9l3.4-4.5L46.1,223.8" style="fill: rgb(47, 81, 50);"/>
<path id="Plate-1_Legacy-Ankle_Right" d="M62.8,217.6c0,0-3.7,1.7-9.2,1.5c-3.8-0.1-5.3-1.1-5.3-1.1l-3.2,5.9 l0.8,3.3l13.4-1.1l3.3-2.8L62.8,217.6" style="fill: rgb(96, 46, 41);"/>
<path id="Trauma-Plate-2_Legacy-Ankle_Right" class="toggle" style="display: none; fill: rgb(255, 255, 255);" d="M45.3,224.5l-2.9,2.6L41,229l3.1,1l8.2-1.7l1.3-1.8 l-7.6,0.6L45.3,224.5"/>
<path id="Trauma-Plate-1_Legacy-Ankle_Right" class="toggle" style="display: none; fill: rgb(255, 255, 255);" d="M61.4,219.6l-0.1,2.7l-2.7,2.2l-11.8,0.9l-0.8-3.3 l1.5-2.8c1,0.3,4,1.2,6,1.2C56.7,220.7,59.6,220.1,61.4,219.6"/>
</g>

</g>
<g id="Right-Toe">


<g id="None_Toe_Right" class="option" style="display: inherit;">
</g>
</g>
</g>
<g id="Knees">
<g id="Left-Knee">
<g id="None-(Nih-Plates)_Knee_Left" class="option" style="display: inherit;">
</g>





</g>
<g id="Right-Knee">
<g id="None-(Nih-Plates)_Knee_Right" class="option" style="display: inherit;">
</g>





</g>
</g>
<g id="Thighs">
<g id="Left-Thigh">



<g id="Legacy_Thigh_Left" class="option" style="display: inherit;">
<path id="Plate-3_Legacy-Thigh_Left" d="M95.6,142.1l1.8,10.8l10.4,1.6l8.4-3.7l0.4-11l-9.6,4.5L95.6,142.1" style="fill: rgb(47, 81, 50);"/>
<path id="Plate-2_Legacy-Thigh_Left" d="M93.2,131.7L95,142l12.1,2.3l10.1-4.8l0.5-12.5l-11.5,7.3L93.2,131.7" style="fill: rgb(47, 81, 50);"/>
<path id="Plate-1_Legacy-Thigh_Left" d="M118.8,116.8l-8.9-7.8L98,111l-6.8,11.3l1.7,9.4l13.4,2.7l12-7.7 L118.8,116.8" style="fill: rgb(96, 46, 41);"/>
<path id="Trauma-Plate-3_Legacy-Thigh_Left" class="toggle" style="display: none; fill: rgb(255, 255, 255);" d="M114.7,143.2l-6.8,3.2c-0.3,0.2-0.7,0.2-1,0.1l-8.8-1.7 l1,6.1l8.6,1.3l6.8-3L114.7,143.2"/>
<path id="Trauma-Plate-2_Legacy-Thigh_Left" class="toggle" style="fill: rgb(85, 37, 33);" d="M115.7,130.9l-8.5,5.4c-0.4,0.2-0.8,0.3-1.2,0.2 l-10.3-2.1l1,5.6l10.2,2l8.5-4L115.7,130.9"/>
<path id="Trauma-Plate-1_Legacy-Thigh_Left" class="toggle" style="display: none; fill: rgb(255, 255, 255);" d="M99.1,113.1l-5.9,9.7l1.3,6.9l11.5,2.3l10.5-6.7l0.4-7.5 l-7.5-6.5L99.1,113.1"/>
<g id="Ridge_Legacy-Thigh_Left" class="toggle" style="display: none; fill: rgb(255, 255, 255);"/>
</g>

</g>
<g id="Right-Thigh">

<g id="Pocket_Thigh_Right" class="option" style="fill: rgb(60, 40, 11); display: inherit;">
<path d="M52.3,125.8c-0.6,6.6-1.3,12.8-2.3,18.7c-0.2,1.2,0.1,2.4,0.8,3.3c0.7,0.9,1.8,1.5,3,1.6 c5.4,0.4,10.9,1.3,16.4,2.3c0.9,0.2,1.9,0,2.7-0.6c0.8-0.5,1.3-1.4,1.4-2.3c0.9-6.2,2.8-18.7,3.5-23.6c0.2-1.1-0.6-2.1-1.7-2.3 c-2.4-0.4-6.3-1-6.3-1L52.3,125.8"/>
<path d="M54.9,119.6c-0.8-0.1-1.5,0.3-1.8,1c-0.9,2.5-1.7,6.5-1.1,8.5c0.8,2.6,9,17.8,11.1,21.6 c0.3,0.5,0.8,0.9,1.4,0.9c1.2,0.1,3.2,0.4,4.5,0.5c0.7,0.1,1.4-0.4,1.5-1.2c0.7-4.5,2.9-19.3,3.7-25c0.2-1.4,1.2-2.5,2.5-2.9l0,0 C76.8,123.1,59.7,120.4,54.9,119.6"/>
<path id="Stitch_Right" d="M55.1,119.6c-1.7-0.2-3,6.9-2.4,8.8c0.7,2.4,8.9,18.1,10.8,21.5c0.3,0.5,0.7,0.8,1.3,0.9 l3.5,0.5c0.7,0.1,1.3-0.4,1.4-1.1c0.6-4.1,3-19.9,3.8-25.1c0.3-1.8,2.2-2.2,2.2-2.2"/>
<path d="M76.3,123.1L55,119.6"/>
</g>



</g>
</g>
<g id="Groin">
<g id="None_Groin" class="option" style="display: inherit;">
</g>

</g>
<g id="Waist">
<g id="Accessories_Waist">
<g id="Kama" class="toggle" style="display:none"/>
<g id="Loin-Cloth" class="toggle" style="">

<path id="Tattered_Loin-Cloth" class="option" d="M95,85.9c-0.1,2.7-0.2,5.3,0,8c0.1,2.3,0.5,4.8,0.5,7.1 c0,1.9-0.5,3.6-0.6,5.5c-0.2,3,0.1,6.3,0.4,9.3c0.6,5.9-1.6,25.8-1.6,25.8l-4.3-4.8l-2.9,8.7l-2.4-5.6l-2.2,4.5l-2.3-0.9 l-1.1,7.5l-2.3-5.9l-0.3-5.1c0,0-0.3-2.5-1.1-6.8c-0.3-1.9-1.1-3.7-1.1-5.6c-0.1-4.8,1.3-9.6,1.4-14.4c0.1-3.8-0.8-7.5-1-11.3 c-0.2-3.3-0.7-8.6,1.2-11.3C77.2,87.7,95,85.9,95,85.9z M81.4,135.4c-0.1,0.6-0.2,1.2-0.3,1.8c-0.1,0.4-0.1,0.7-0.1,1.1 c0,0.5,0,1.1,0.2,1.5c0,0,0.3-0.1,0.3-0.2c0.3-0.2,0.5-0.6,0.6-1c0.2-0.9,0.4-2.7-0.3-3.4L81.4,135.4z M92.3,128.7 c-0.5,0.4-1.2,0.8-1.6,1.3c-0.3,0.4-0.5,0.9-0.6,1.4c-0.1,0.4-0.1,0.7-0.1,1.1c-0.1,1.3,0.6,1.8,1.4,0.8 C92.3,132.5,93.2,129.8,92.3,128.7z" style="fill: rgb(94, 67, 43); display: inherit;"/>
</g>
<g id="Left-Holster" class="toggle" style="">
<g id="Thigh-Plate-Holster_Left" class="option" style="display: inherit;">
<g id="Weapon_Thigh-Plate-Holster-Left">
<g id="Main_Weapon_Thigh-Plate-Holster-Left" style="fill: rgb(40, 40, 47);">
<path d="M114.9,111.8l0.2-3.7l0.6,0l0.2-2.3l-0.6,0l0.1-1.2c0-0.4,0.6-0.7,1.2-0.6c1.5,0.1,4,0.3,5.4,0.4 c0.6,0,1.1,0.4,1.1,0.8l-0.1,1.2l-0.6,0l-0.1,2.3l0.6,0l-0.2,3.7l-1.5-0.1l-0.7,10.1l-4.8-0.3l0.7-10.1L114.9,111.8z"/>
<path d="M122.1,111.7l-0.8-0.1l-0.8,12.2l-4.8-0.3l0.8-12.2l-0.8-0.1l0.2-2.8l6.5,0.4L122.1,111.7z"/>
<path d="M121.2,105.1l-3.8-0.3l-0.2,3.8l3.8,0.3L121.2,105.1z"/>
<path d="M117.5,112.5l-0.6,0l-0.6,9.6l0.6,0L117.5,112.5z"/>
<path d="M119.2,110.5l-0.6,0l-0.9,13.4l0.6,0L119.2,110.5z"/>
<path d="M120.7,112.8l-0.6,0l-0.7,10.6l0.6,0L120.7,112.8z"/>
</g>
<g id="Accent_Weapon_Thigh-Plate-Holster-Left" style="fill: rgb(96, 46, 41);">
<path d="M118.5,112.6l-1-0.1l-0.6,9.6l1,0.1L118.5,112.6z"/>
<path d="M120.1,112.7l-1-0.1l-0.7,10.6l1,0.1L120.1,112.7z"/>
<path d="M118,104.9l-0.6,0l-0.2,3.8l0.6,0L118,104.9z"/>
<path d="M121.2,105.1l-0.6,0l-0.2,3.8l0.6,0L121.2,105.1z"/>
<path d="M117.7,109.1l0,0.4l2.7,0.2l0-0.4L117.7,109.1z"/>
<path d="M117.6,109.4l0,0.4l2.7,0.2l0-0.4L117.6,109.4z"/>
<path d="M117.7,108.7l0,0.4l2.7,0.2l0-0.4L117.7,108.7z"/>
<path d="M118,104l0,0.4l2.7,0.2l0-0.4L118,104z"/>
</g>
</g>
<path id="Holster_Thigh-Plate-Holster-Left" d="M121.5,123.2l-3.4-0.2l-1.9-6.9l-1-0.1l-2.1,30.7c0,0,0,0,0,0 c1.8,0.1,3.6-0.5,4.9-1.7c1.4-1.2,2.2-2.9,2.3-4.7C120.8,133.3,121.5,123.2,121.5,123.2z" style="fill: rgb(84, 57, 16);"/>
</g>


</g>
<g id="Right-Holster" class="toggle" style="">

<g id="Hanging-Holster_Right" class="option" style="display: inherit;">
<g id="Weapon_Hanging-Holster-Right">
<g id="Main_Weapon_Hanging-Holster-Right" style="fill: rgb(40, 40, 47);">
<path d="M52,118.2l-0.2-3.7l-0.6,0l-0.1-2.3l0.6,0l-0.1-1.2c0-0.4-0.6-0.7-1.2-0.7c-1.5,0.1-4,0.2-5.4,0.3 c-0.6,0-1.1,0.4-1.1,0.8l0.1,1.2l0.6,0l0.1,2.3l-0.6,0l0.2,3.7l1.5-0.1l0.5,10.1l4.8-0.2l-0.5-10.1L52,118.2z"/>
<path d="M44.8,118l0.9,0l0.6,12.2l4.8-0.2l-0.6-12.2l0.8,0l-0.1-2.8l-6.5,0.3L44.8,118z"/>
<path d="M45.9,111.4l3.8-0.2l0.2,3.8l-3.8,0.2L45.9,111.4z"/>
<path d="M49.4,118.8l0.6,0l0.4,9.6l-0.6,0L49.4,118.8z"/>
<path d="M47.7,116.7l0.6,0l0.4,9.6l-0.6,0L47.7,116.7z"/>
<path d="M46.2,119l0.6,0l0.4,9.6l-0.6,0L46.2,119z"/>
</g>
<g id="Accent_Weapon_Hanging-Holster-Right" style="fill: rgb(96, 46, 41);">
<path d="M49.3,115.3l0,0.4l-2.7,0.1l0-0.4L49.3,115.3z"/>
<path d="M49.3,115.7l0,0.4l-2.7,0.1l0-0.4L49.3,115.7z"/>
<path d="M49.3,115l0,0.4l-2.7,0.1l0-0.4L49.3,115z"/>
<path d="M49.1,110.2l0,0.4l-2.7,0.1l0-0.4L49.1,110.2z"/>
<path d="M49.1,111.2l0.6,0l0.2,3.8l-0.6,0L49.1,111.2z"/>
<path d="M45.9,111.4l0.6,0l0.2,3.8l-0.6,0L45.9,111.4z"/>
<path d="M46.8,119l1,0l0.4,9.6l-1,0L46.8,119z"/>
<path d="M48.5,118.9l1,0l0.4,9.6l-1,0L48.5,118.9z"/>
</g>
</g>
<path id="Holster_Hanging-Holster-Right" d="M51.9,132.3l0.8-15.4l-7.1,11.6l1.6,21c1.7,1.7,3.3,1.8,4.9-0.2 L51.9,132.3z" style="fill: rgb(84, 57, 16);"/>
<g id="Straps_Hanging-Holster-Right" style="fill: rgb(60, 40, 11);">
<path d="M79.2,92c-7.8,11.2-15.6,20.6-26.5,24.9l-0.1,2.6c13.5-5.7,20.7-15.3,28.7-27.5H79.2z"/>
<path d="M52,135.4c7.3,5.6,15.2,8.6,24.6,9.1l-0.7,2.1c-8.2-0.7-15.8-3.8-23.9-9V135.4z"/>
<path d="M52,137.6l0-2.2c-1.9,0.8-4.1,0.9-5.8,0.3l0.2,2.3C48.2,138.4,50.3,138.5,52,137.6z"/>
</g>
<g id="Buckle_Hanging-Holster-Right" style="fill: rgb(89, 89, 89);">
<path d="M69,144.4l1,0.2l-0.1,0.3l-1-0.2L69,144.4"/>
<path d="M71.8,103.3l0.7-0.9l0.3,0.2l-0.7,0.9L71.8,103.3"/>
<path d="M72.1,103.5l1.2,0.9L76,101l-2.6-2.1l-2.7,3.4l1.2,1l0.6-0.8l-0.6-0.5l1.5-1.9l1.4,1.2l-1.5,1.9l-0.6-0.5 L72.1,103.5"/>
<path d="M69.1,144.4l0.8,0.1l0.1-0.8l2,0.4l-0.3,1.8l-2-0.4l0.1-0.7l-0.8-0.1l-0.2,1.4l3.6,0.8l0.5-3.3l-3.6-0.8 L69.1,144.4"/>
</g>
</g>

</g>
</g>
<g id="Under-Belt">

<g id="Girth-Belt" class="option" style="fill: rgb(96, 46, 41); display: inherit;">
<path d="M84.5,80.1c-7.2,0-21.5-1.8-21.5-1.8l0.5-1.5c0,0,14,1.2,21,1.8c7-0.6,21-1.8,21-1.8l0.5,1.5 C106,78.3,91.7,80.1,84.5,80.1z"/>
<path d="M84.5,81.6c-7.3,0-22-1.8-22-1.8l0.4-1.5c0,0,17.9,1.5,21.5,1.8c3.6-0.3,21.5-1.8,21.5-1.8l0.4,1.5 C106.5,79.8,91.9,81.6,84.5,81.6z"/>
<path d="M84.5,83.2c-7.4,0-22.3-1.8-22.3-1.8l0.3-1.5c0,0,18.3,1.5,22,1.8c3.7-0.3,22-1.8,22-1.8l0.3,1.5 C106.8,81.4,92,83.2,84.5,83.2z"/>
<path d="M84.5,84.7C77,84.7,62,82.9,62,82.9l0.3-1.5c0,0,18.6,1.5,22.3,1.8c3.7-0.3,22.3-1.8,22.3-1.8l0.3,1.5 C107.1,82.9,92.1,84.7,84.5,84.7z"/>
<path d="M84.5,86.3c-7.6,0-22.8-1.8-22.8-1.8l0.3-1.5c0,0,18.8,1.5,22.6,1.8c3.8-0.3,22.6-1.8,22.6-1.8l0.3,1.5 C107.4,84.4,92.1,86.3,84.5,86.3z"/>
<path d="M84.5,87.8c-7.7,0-23.1-1.8-23.1-1.8l0.2-1.5c0,0,19,1.5,22.8,1.8c3.8-0.3,22.8-1.8,22.8-1.8l0.2,1.5 C107.6,86,92.2,87.8,84.5,87.8z"/>
<path d="M84.5,89.4c-7.8,0-23.3-1.8-23.3-1.8l0.2-1.5c0,0,19.2,1.5,23.1,1.8c3.8-0.3,23.1-1.8,23.1-1.8l0.2,1.5 C107.8,87.5,92.3,89.4,84.5,89.4z"/>
<path d="M84.5,90.9c-7.8,0-23.5-1.8-23.5-1.8l0.2-1.5c0,0,19.4,1.5,23.3,1.8c3.9-0.3,23.3-1.8,23.3-1.8l0.2,1.5 C108.1,89.1,92.4,90.9,84.5,90.9z"/>
<path d="M84.5,92.5c-7.9,0-23.8-1.8-23.8-1.8l0.3-1.5c0,0,19.6,1.5,23.5,1.8c3.9-0.3,23.5-1.8,23.5-1.8l0.3,1.5 C108.3,90.6,92.5,92.5,84.5,92.5z"/>
<path d="M84.5,94c-8,0-24.1-1.8-24.1-1.8l0.3-1.5c0,0,19.8,1.5,23.8,1.8c4-0.3,23.8-1.8,23.8-1.8l0.3,1.5 C108.6,92.2,92.6,94,84.5,94z"/>
</g>
</g>
<g id="Belt">

<g id="Pouch-Belt-6" class="option" style="display: inherit;">
<path id="Main_Pouch-Belt-6" d="M108.2,87.6c-5.3,0.5-17.5,2.2-23.6,2.2c-6.2,0-18.4-1.8-23.6-2.2l0.8-6.2 c4.3,0.4,16.8,2.2,22.8,2.2c5.8,0,18.1-1.8,22.7-2.2L108.2,87.6z" style="fill: rgb(84, 57, 16);"/>
<rect id="Buckle_Pouch-Belt-6" x="80.2" y="82.9" width="8.8" height="7.2" style="fill: rgb(84, 84, 84);"/>
<g id="Pouches_Pouch-Belt-6" style="fill: rgb(60, 40, 11);">
<g>
<g>
<g>
<path d="M75.3,81.4c-1.4-0.1-2.8,0.1-4.1,0.6l0,0l6.3,0.4l1.7-0.7C79.3,81.7,77.1,81.5,75.3,81.4z"/>
<path d="M79.5,81.9c0-0.1,0-0.1-0.1-0.2c-0.1,0-0.1-0.1-0.2,0c-0.6,0.2-1.7,0.7-1.7,0.7l-0.8,9.8 c0.7-0.4,1.4-0.6,2.1-0.7c0.1,0,0.2-0.1,0.2-0.2C79.1,88.1,79.2,85,79.5,81.9z"/>
<path d="M77.6,82.4L71.2,82c0,1.5-0.2,3-0.3,4.4c-0.1,1.7-0.1,3.4-0.3,5.2c0,0.1,0,0.1,0.1,0.2 c0,0,0.1,0.1,0.2,0.1c2,0,3.9,0.1,5.9,0.3c0.1,0,0.1,0,0.2,0c0,0,0.1-0.1,0.1-0.1c0.1-0.9,0.3-4.4,0.3-4.4L77.6,82.4z"/>
<path d="M77.6,82.4L71.2,82c0,0-0.1,0.6-0.2,1.3c-0.1,0.9,0.2,1.8,0.7,2.5c0.6,0.7,1.4,1.1,2.3,1.2c0,0,0,0,0,0 c0.9,0.1,1.8-0.3,2.4-0.9c0.7-0.6,1-1.5,1-2.4C77.6,83,77.6,82.4,77.6,82.4z"/>
<path d="M74.2,85.8c0.2,0,0.4,0.2,0.4,0.4s-0.2,0.4-0.4,0.4s-0.4-0.2-0.4-0.4S74,85.8,74.2,85.8z"/>
</g>
</g>
<g>
<g>
<path d="M66.4,80.2c-1.3-0.1-2.6,0.1-3.7,0.7c0,0,0,0,0,0l5.8,0.3l1.6-0.7C70,80.5,68,80.3,66.4,80.2z"/>
<path d="M70.2,80.7c0-0.1,0-0.1-0.1-0.2c-0.1,0-0.1,0-0.2,0c-0.5,0.2-1.5,0.7-1.5,0.7L67.6,91 c0.6-0.4,1.3-0.6,1.9-0.7c0.1,0,0.2-0.1,0.2-0.2C69.8,86.9,69.9,83.8,70.2,80.7z"/>
<path d="M68.4,81.2l-5.8-0.3c0,1.5-0.2,3-0.3,4.4c-0.1,1.7-0.1,3.4-0.3,5.2c0,0.1,0,0.1,0.1,0.2 c0,0,0.1,0.1,0.1,0.1c1.8,0,3.6,0.1,5.3,0.3c0.1,0,0.1,0,0.2,0c0,0,0.1-0.1,0.1-0.1c0.1-0.9,0.3-4.4,0.3-4.4L68.4,81.2z"/>
<path d="M68.4,81.2l-5.8-0.3c0,0-0.1,0.7-0.2,1.6c-0.1,0.8,0.2,1.6,0.7,2.3c0.5,0.6,1.3,1,2.1,1.1c0,0,0,0,0,0 c0.8,0,1.6-0.2,2.2-0.8c0.6-0.6,0.9-1.3,0.9-2.2C68.4,81.9,68.4,81.2,68.4,81.2z"/>
<path d="M65.3,84.6c0.2,0,0.4,0.2,0.3,0.4s-0.2,0.4-0.4,0.4c-0.2,0-0.4-0.2-0.3-0.4S65.1,84.6,65.3,84.6z"/>
</g>
</g>
<g>
<path d="M59,80.8l0.4-0.7l2.2,0.1l0.3,0.8L59,80.8z"/>
<path d="M61.9,81.1c0-0.1,0-0.1,0-0.2c0,0-0.1-0.1-0.1-0.1c-0.7,0-2.7-0.1-2.7-0.1l-0.4,8.8 c0.1,0.3,1.7,0.4,2.6,0.4c0.1,0,0.2-0.1,0.2-0.2C61.5,86.8,61.6,84,61.9,81.1z"/>
</g>
</g>
<g>
<g>
<g>
<path d="M93.9,81.4c1.4-0.1,2.8,0.1,4.1,0.6l0,0l-6.3,0.4l-1.7-0.7C89.9,81.7,92.1,81.5,93.9,81.4z"/>
<path d="M89.7,81.9c0-0.1,0-0.1,0.1-0.2c0.1,0,0.1-0.1,0.2,0c0.6,0.2,1.7,0.7,1.7,0.7l0.8,9.8 c-0.7-0.4-1.4-0.6-2.1-0.7c-0.1,0-0.2-0.1-0.2-0.2C90.1,88.1,90,85,89.7,81.9z"/>
<path d="M91.6,82.4l6.3-0.4c0,1.5,0.2,3,0.3,4.4c0.1,1.7,0.1,3.4,0.3,5.2c0,0.1,0,0.1-0.1,0.2 c0,0-0.1,0.1-0.1,0.1c-2,0-3.9,0.1-5.9,0.3c-0.1,0-0.1,0-0.2,0c0,0-0.1-0.1-0.1-0.1c-0.1-0.9-0.3-4.4-0.3-4.4L91.6,82.4z"/>
<path d="M91.6,82.4l6.3-0.4c0,0,0.1,0.6,0.2,1.3c0.1,0.9-0.2,1.8-0.7,2.5c-0.6,0.7-1.4,1.1-2.3,1.2c0,0,0,0,0,0 c-0.9,0.1-1.8-0.3-2.4-0.9c-0.7-0.6-1-1.5-1-2.4C91.6,83,91.6,82.4,91.6,82.4z"/>
<path d="M95,85.8c-0.2,0-0.4,0.2-0.4,0.4s0.2,0.4,0.4,0.4s0.4-0.2,0.4-0.4S95.2,85.8,95,85.8z"/>
</g>
</g>
<g>
<g>
<path d="M102.8,80.2c1.3-0.1,2.6,0.1,3.7,0.7l0,0l-5.8,0.3l-1.6-0.7C99.2,80.5,101.2,80.3,102.8,80.2z"/>
<path d="M99,80.7c0-0.1,0-0.1,0.1-0.2c0.1,0,0.1,0,0.2,0c0.5,0.2,1.5,0.7,1.5,0.7l0.8,9.8 c-0.6-0.4-1.3-0.6-1.9-0.7c-0.1,0-0.2-0.1-0.2-0.2C99.4,86.9,99.3,83.8,99,80.7z"/>
<path d="M100.7,81.2l5.8-0.3c0,1.5,0.2,3,0.3,4.4c0.1,1.7,0.1,3.4,0.3,5.2c0,0.1,0,0.1-0.1,0.2 c0,0-0.1,0.1-0.2,0.1c-1.8,0-3.6,0.1-5.3,0.3c-0.1,0-0.1,0-0.2,0c0,0-0.1-0.1-0.1-0.1c-0.1-0.9-0.3-4.4-0.3-4.4L100.7,81.2z"/>
<path d="M100.7,81.2l5.8-0.3c0,0,0.1,0.7,0.2,1.6c0.1,0.8-0.2,1.6-0.7,2.3c-0.5,0.6-1.3,1-2.1,1.1c0,0,0,0,0,0 c-0.8,0-1.6-0.2-2.2-0.8c-0.6-0.6-0.9-1.3-0.9-2.2C100.7,81.9,100.7,81.2,100.7,81.2z"/>
<path d="M103.8,84.6c-0.2,0-0.4,0.2-0.3,0.4c0,0.2,0.2,0.4,0.4,0.4c0.2,0,0.4-0.2,0.3-0.4S104,84.6,103.8,84.6z"/>
</g>
</g>
<g>
<path d="M110.1,80.8l-0.4-0.7l-2.2,0.1l-0.3,0.8L110.1,80.8z"/>
<path d="M107.2,81.1c0-0.1,0-0.1,0-0.2c0,0,0.1-0.1,0.1-0.1c0.7,0,2.7-0.1,2.7-0.1l0.4,8.8 c-0.1,0.3-1.7,0.4-2.6,0.4c-0.1,0-0.2-0.1-0.2-0.2C107.7,86.8,107.6,84,107.2,81.1z"/>
</g>
</g>
</g>
</g>



</g>
</g>
<g id="Extras_Front">
<g id="Front">


<g id="None_Front" class="option" style="display: inherit;">
</g>
</g>
</g>
</svg></svg>