<?xml version='1.0' encoding='UTF-8'?>
<svg version="1.1" id="Female-Body" xmlns="http://www.w3.org/2000/svg" xmlns:serif="http://www.serif.com/" viewBox="0 -55 170 300" style="fill-rule: evenodd; stroke-width: 0.2px; stroke-linejoin: round;" width="170" height="300">
<style>
mask {
mask-type: alpha;
}
.decal {
stroke: none;
}
</style>
<defs id="Masks" stroke="none">
<mask id="HelmetsMask"> <use href="#Helmets"/> </mask>
<mask id="CollarMask"> <use href="#Collar"/> </mask>
<mask id="ShouldersMask"> <use href="#Shoulders"/> </mask>
<mask id="ChestMask"> <use href="#Chest"/> </mask>
<mask id="BicepsMask"> <use href="#Biceps"/> </mask>
<mask id="GauntletsMask"> <use href="#Gauntlets"/> </mask>
<mask id="WaistMask"> <use href="#Waist"/> </mask>
<mask id="GroinMask"> <use href="#Groin"/> </mask>
<mask id="ThighsMask"> <use href="#Thighs"/> </mask>
<mask id="KneesMask"> <use href="#Knees"/> </mask>
<mask id="ShinsMask"> <use href="#Shins"/> </mask>
<mask id="FootMask"> <use href="#Foot"/> </mask>
</defs>
<defs id="Decals"><path serif:id="Stripe 1" id="Stripe-1" d="M32.78 0h30.78v100H32.78z"/><path serif:id="Stripe 3" id="Stripe-3" d="M34.61 0h30.78v100H34.61zM75.39 0h13.3v100h-13.3zM11.31 0h13.3v100h-13.3z"/><path serif:id="Beskar'ta" id="Beskar-ta" d="M48.63 2.75 29.88 18.87v62.27l18.75 16.12 18.75-16.12V18.87L48.63 2.75z"/><circle id="Circle" cx="50" cy="50" r="48.32"/></defs><metadata><rdf:rdf xmlns:rdf="http://www.w3.org/1999/02/22-rdf-syntax-ns#" xmlns:rdfs="http://www.w3.org/2000/01/rdf-schema#" xmlns:dc="http://purl.org/dc/elements/1.1/"><rdf:description><dc:creator>MandoCreator</dc:creator><dc:publisher>https://www.mandocreator.com</dc:publisher><dc:description>Your Beskar'gam - created by MandoCreator</dc:description><dc:format>image/svg+xml</dc:format><dc:type>Image</dc:type><dc:title>MandoCreator - Ner Berskar'gam</dc:title><dc:date>2022-01-02T16:37:06.000Z</dc:date></rdf:description></rdf:rdf></metadata><g id="Main-Body" fill="white" stroke="black">
<g id="Extras_Back">
<g id="Back"><g id="NO-CAPES_Back" class="option" style="display: inherit;">
</g>
</g>
</g>
<g id="Extras-BackDecals" mask="url(#BackMask)">
</g>
<g id="Suit">
<g id="Neck-Seal"><g id="Standard-Neck-Seal" class="option" fill="#A6A6A6" style="display: inherit;">
<path d="M95.96,3.46c0-0.93-0.74-1.69-1.65-1.69c0,0-6.22,0.89-9.33,0.89c-3.11,0-9.33-0.89-9.33-0.89 c-0.91,0-1.65,0.76-1.65,1.69c0,0.93,0.74,1.69,1.65,1.69c0,0,6.22,0.89,9.33,0.89c3.11,0,9.33-0.89,9.33-0.89 C95.22,5.15,95.96,4.39,95.96,3.46z"/>
<path d="M96.51,5.43c0-0.98-0.78-1.77-1.73-1.77c0,0-6.53,0.93-9.8,0.93s-9.8-0.93-9.8-0.93 c-0.96,0-1.73,0.79-1.73,1.77c0,0.98,0.78,1.77,1.73,1.77c0,0,6.53,0.93,9.8,0.93s9.8-0.93,9.8-0.93 C95.74,7.21,96.51,6.41,96.51,5.43z"/>
<path d="M97.14,7.88c0-1.03-0.82-1.87-1.83-1.87c0,0-6.89,0.98-10.33,0.98c-3.44,0-10.33-0.98-10.33-0.98 c-1.01,0-1.83,0.84-1.83,1.87s0.82,1.87,1.83,1.87c0,0,6.89,0.98,10.33,0.98c3.44,0,10.33-0.98,10.33-0.98 C96.32,9.75,97.14,8.91,97.14,7.88z"/>
<path d="M97.75,10.13c0-1.08-0.86-1.96-1.92-1.96c0,0-7.23,1.03-10.85,1.03c-3.62,0-10.85-1.03-10.85-1.03 c-1.06,0-1.92,0.88-1.92,1.96c0,1.08,0.86,1.96,1.92,1.96c0,0,7.23,1.03,10.85,1.03c3.62,0,10.85-1.03,10.85-1.03 C96.89,12.09,97.75,11.21,97.75,10.13z"/>
<path d="M98.36,12.33c0-0.82-0.9-1.48-2.01-1.48c0,0-7.58,0.78-11.36,0.78s-11.36-0.78-11.36-0.78 c-1.11,0-2.01,0.66-2.01,1.48c0,0.82,0.9,1.48,2.01,1.48c0,0,7.58,0.78,11.36,0.78s11.36-0.78,11.36-0.78 C97.46,13.81,98.36,13.14,98.36,12.33z"/>
<path d="M98.36,14.8c0-0.82-0.9-1.48-2.01-1.48c0,0-7.58,0.78-11.36,0.78s-11.36-0.78-11.36-0.78 c-1.11,0-2.01,0.66-2.01,1.48c0,0.82,0.9,1.48,2.01,1.48c0,0,7.58,1.5,11.36,1.5s11.36-1.5,11.36-1.5 C97.46,16.28,98.36,15.62,98.36,14.8z"/>
</g>
</g>
<g id="Flight-Suit" fill="#A6A6A6">
<path d="M38.1,60.17l5.2-18.8l12.15-8.13l1.9,16.49c0,0-5.25,9.95-7.06,14.51c-1.86,4.7-5.09,15.42-5.5,16.81 l-2.88,24.91l-8.36-2.66c0,0-0.3-17.29,0.46-24.47C34.68,72.42,38.1,60.17,38.1,60.17z"/>
<path d="M131.9,60.17l-5.22-18.86l-12.06-8.07l-1.92,16.59c0,0,5.2,9.85,7.01,14.41c1.86,4.7,5.09,15.42,5.5,16.81 l2.88,24.91l8.36-2.66c0,0,0.3-17.29-0.46-24.47C135.32,72.42,131.9,60.17,131.9,60.17z"/>
<path d="M84.99,113.44c-1.03,0.1-1.95,0.5-2.29,1.22c-3,6.3-9.17,35.13-10.95,40.44c-0.97,2.89-1.74,18.7-3.38,27.92 c-1.96,11.01-8.39,38.11-8.39,38.11l-11.15-1.15c0,0-1.44-27.22-1.04-37.12c0.3-7.53,3.42-22.31,3.42-22.31s0.67-5.4,0.69-8.12 c0.06-9.82,0.93-31.66,2.88-44.2C56.3,98.31,65.7,77.5,65.7,77.5s12.18,4.76,19.34,4.76c7.16,0,19.44-4.86,19.44-4.86 s8.88,20.92,10.42,30.83c1.95,12.54,3.24,34.38,3.3,44.2c0.02,2.72,0.69,8.12,0.69,8.12s3.12,14.79,3.42,22.31 c0.4,9.91-1.04,37.12-1.04,37.12l-11.15,1.15c0,0-6.43-27.1-8.39-38.11c-1.64-9.22-2.41-25.03-3.38-27.92 c-1.78-5.31-7.96-34.13-10.95-40.44c-0.35-0.73-1.3-1.14-2.34-1.23L84.99,113.44z"/>
</g>
<g id="Sleeves" class="toggle" fill="#B3B3B3">
<path d="M41.92,41.42l0.81,0.34l12.73-8.52c0,0,0.36,8.98,1.42,14.37c0.15,0.75,0.37,1.69,0.64,2.79l-1.69,5.45 c0,0-5.75-2.25-8.27-3.72C45.11,50.7,40.7,47,40.7,47L41.92,41.42z"/>
<path d="M112.55,50.4c0.28-1.1,0.5-2.04,0.64-2.79c1.06-5.39,1.42-14.37,1.42-14.37l12.73,8.52l0.81-0.34l1.22,5.58 c0,0-4.4,3.7-6.85,5.13c-2.52,1.48-8.28,3.72-8.28,3.72L112.55,50.4z"/>
</g>
</g>
<g id="Boots"><g id="Basic_Boots" class="option" style="display: inherit;">
<g id="Main_Basic-Boot" fill="#A6A6A6">
<path d="M60.73,217.89c-0.18-0.07-2.31,1.28-3.52,1.48c-1.29,0.22-2.7,0.2-4.07,0.06l-0.56-0.06l-0.02,0l-0.07-0.01 l-0.18-0.02l-0.28-0.04l-0.12-0.02c-0.32-0.04-0.64-0.09-0.95-0.14l-0.49-0.1l-0.1-0.03l-0.04-0.01l-0.08-0.02l-0.34-0.08 l-0.3-0.08l-0.05-0.01c-1.05-0.28-0.85-0.78-0.85-0.78c0,1.45-1.51,5.98-5.27,9.68c-1.14,1.13-3.92,2.45-6.33,3.5 c-2.21,0.97-4.87,1.2-6.15,3.78c-0.28,0.56-0.52,1.24-0.47,1.88c0.06,0.82,0.95,0.93,1.65,1.13c1.73,0.49,3.22,0.86,5.22,1.31 c2.28,0.51,4.34,0.82,6.65,0.76c1.73-0.05,3.2-0.12,4.72-1.03c0.61-0.37,1.24-0.74,1.77-1.22c1.19-1.08,1.96-2.21,3.48-2.85 c1.1-0.47,2.24-0.85,3.41-1.13c1.65-0.39,4.06-0.94,4.95-2.57c0.34-1.22-1.15-3.83-1.26-5.59 C60.99,224.26,60.85,217.94,60.73,217.89z"/>
<path d="M109.34,217.89c0.18-0.07,2.31,1.28,3.52,1.48c1.29,0.22,2.7,0.2,4.07,0.06l0.55-0.06l0.02,0l0.07-0.01 l0.18-0.02l0.28-0.04l0.12-0.02c0.32-0.04,0.64-0.09,0.95-0.14l0.49-0.1l0.1-0.03l0.04-0.01l0.08-0.02l0.34-0.08l0.3-0.08 l0.05-0.01c1.05-0.28,0.85-0.78,0.85-0.78c0,1.45,1.51,5.98,5.27,9.68c1.14,1.13,3.92,2.45,6.33,3.5 c2.21,0.97,4.87,1.2,6.15,3.78c0.28,0.56,0.52,1.24,0.47,1.88c-0.06,0.82-0.95,0.93-1.65,1.13c-1.73,0.49-3.22,0.86-5.21,1.31 c-2.28,0.51-4.34,0.82-6.65,0.76c-1.73-0.05-3.2-0.12-4.72-1.03c-0.61-0.37-1.24-0.74-1.77-1.22c-1.19-1.08-1.96-2.21-3.48-2.85 c-1.11-0.47-2.24-0.85-3.41-1.13c-1.65-0.39-4.07-0.94-4.95-2.57c-0.34-1.22,1.15-3.83,1.26-5.59 C109.07,224.26,109.21,217.94,109.34,217.89z"/>
</g>
<g id="Bottom_Basic-Boot" fill="#A6A6A6">
<path d="M62.34,231.27c-0.44,0.81-1.26,1.35-2.18,1.74c-0.84,0.42-1.82,0.6-2.77,0.82 c-0.13,0.03-0.26,0.06-0.38,0.09c-0.19,0.05-0.38,0.1-0.56,0.15c-0.06,0.02-0.11,0.03-0.17,0.05l-0.1,0.03 c-0.06,0.02-0.12,0.04-0.18,0.06c-0.03,0.01-0.05,0.02-0.08,0.02c-0.1,0.03-0.2,0.07-0.31,0.1c-0.04,0.01-0.07,0.02-0.11,0.04 l-0.05,0.02c-0.16,0.05-0.31,0.11-0.47,0.17c-0.03,0.01-0.07,0.03-0.1,0.04c-0.14,0.05-0.28,0.11-0.42,0.16l-0.11,0.04 c-0.08,0.03-0.17,0.07-0.25,0.1c-0.04,0.01-0.07,0.03-0.11,0.05c-0.25,0.11-0.48,0.22-0.7,0.35l-0.03,0.02 c-0.02,0.01-0.03,0.02-0.05,0.03c-0.07,0.04-0.13,0.08-0.2,0.13l-0.04,0.03c-0.01,0.01-0.03,0.02-0.04,0.03 c-0.06,0.05-0.13,0.09-0.19,0.14l-0.05,0.04l-0.08,0.07c-0.26,0.21-0.51,0.44-0.75,0.68l-0.07,0.07c-0.13,0.13-0.26,0.26-0.4,0.4 c-0.14,0.14-0.28,0.28-0.42,0.42c-0.14,0.14-0.29,0.29-0.45,0.43l-0.05,0.05c-0.05,0.04-0.1,0.08-0.14,0.12 c-0.01,0.01-0.02,0.01-0.03,0.02c-0.08,0.06-0.16,0.13-0.24,0.19c-0.05,0.04-0.11,0.08-0.16,0.12l-0.03,0.02 c-0.07,0.05-0.14,0.1-0.21,0.14c-0.03,0.02-0.06,0.04-0.09,0.06c-0.1,0.07-0.21,0.13-0.31,0.2c-0.07,0.04-0.14,0.09-0.22,0.13 l-0.09,0.05l-0.23,0.14l-0.11,0.06l-0.07,0.04l-0.07,0.04c-0.11,0.06-0.21,0.11-0.32,0.16c-0.05,0.02-0.1,0.05-0.15,0.07 l-0.05,0.02c-0.32,0.14-0.63,0.24-0.95,0.32l-0.06,0.01l-0.07,0.02c-0.02,0-0.05,0.01-0.07,0.02c-0.06,0.01-0.13,0.03-0.2,0.04 c-0.05,0.01-0.1,0.02-0.15,0.03l-0.12,0.02l-0.04,0.01c-0.03,0.01-0.07,0.01-0.1,0.02c-0.06,0.01-0.11,0.02-0.17,0.02 c-0.08,0.01-0.16,0.02-0.24,0.03c-0.02,0-0.04,0.01-0.06,0.01c-0.2,0.02-0.41,0.04-0.61,0.05c-0.11,0.01-0.23,0.01-0.34,0.02 l-0.1,0c-0.22,0.01-0.44,0.02-0.66,0.02c-0.14,0-0.29,0.01-0.43,0.01c-0.05,0-0.1,0-0.16,0c-0.07,0-0.15,0-0.22,0 c-0.05,0-0.11,0-0.16,0l-0.05,0c-0.26-0.01-0.52-0.01-0.78-0.03c-0.03,0-0.07,0-0.11-0.01l-0.1-0.01c-0.03,0-0.07,0-0.1-0.01 c-0.38-0.03-0.76-0.06-1.13-0.11l-0.1-0.01c-0.09-0.01-0.19-0.02-0.28-0.04c-0.04-0.01-0.08-0.01-0.12-0.02l-0.1-0.01 c-0.08-0.01-0.15-0.02-0.23-0.03c-0.33-0.05-0.66-0.11-0.99-0.17c-0.07-0.01-0.15-0.03-0.22-0.04l-0.1-0.02 c-0.03-0.01-0.07-0.01-0.1-0.02l-0.1-0.02c-0.03-0.01-0.07-0.01-0.1-0.02l-0.07-0.01c-0.08-0.02-0.16-0.03-0.24-0.05l-0.1-0.02 c-0.1-0.02-0.19-0.04-0.28-0.06c-0.08-0.02-0.16-0.04-0.25-0.05l-0.02-0.01c-0.52-0.12-1.01-0.23-1.48-0.34l-0.18-0.04 c-0.13-0.03-0.26-0.06-0.39-0.09l-0.16-0.04l-0.07-0.02c-0.18-0.04-0.37-0.09-0.55-0.14c-0.11-0.03-0.22-0.06-0.33-0.08 c-0.32-0.08-0.63-0.16-0.94-0.25l-0.14-0.04c-0.05-0.01-0.1-0.03-0.16-0.04l-0.06-0.02c-0.24-0.07-0.49-0.13-0.74-0.2l-0.06-0.02 L32,237.96l-0.26-0.07l-0.09-0.02l-0.13-0.04l-0.05-0.02l-0.11-0.04l-0.09-0.03l-0.04-0.02l-0.05-0.02l-0.02-0.01l-0.05-0.02 l-0.05-0.02l-0.02-0.01l-0.05-0.03l-0.06-0.03l-0.05-0.04l-0.05-0.04c-0.08-0.07-0.15-0.14-0.21-0.23l0,0c0,0-0.46,0.68-0.5,1.86 c1.04,1.49,4.31,1.99,8.84,2.59c4.5,0.6,7.28,0.48,9.16-0.32c1.88-0.81,5.18-4.63,7.54-4.83c2.36-0.2,5.15-1.45,6.3-2.12 c0.6-0.35,0.42-2.81,0.42-2.81L62.34,231.27z"/>
<path d="M107.72,231.27c0.44,0.81,1.26,1.35,2.18,1.74c0.84,0.42,1.82,0.6,2.77,0.82c0.13,0.03,0.25,0.06,0.38,0.09 c0.19,0.05,0.38,0.1,0.56,0.15c0.06,0.02,0.11,0.03,0.17,0.05l0.1,0.03c0.06,0.02,0.12,0.04,0.18,0.06 c0.03,0.01,0.05,0.02,0.08,0.02c0.1,0.03,0.2,0.07,0.31,0.1c0.04,0.01,0.07,0.02,0.11,0.04l0.05,0.02 c0.16,0.05,0.31,0.11,0.47,0.17c0.03,0.01,0.07,0.03,0.1,0.04c0.14,0.05,0.28,0.11,0.42,0.16l0.11,0.04 c0.08,0.03,0.17,0.07,0.25,0.1c0.04,0.01,0.07,0.03,0.11,0.05c0.25,0.11,0.48,0.22,0.69,0.35l0.03,0.02 c0.02,0.01,0.03,0.02,0.05,0.03c0.07,0.04,0.13,0.08,0.2,0.13l0.04,0.03c0.01,0.01,0.03,0.02,0.04,0.03 c0.06,0.05,0.13,0.09,0.19,0.14l0.05,0.04l0.08,0.07c0.26,0.21,0.51,0.44,0.75,0.68l0.07,0.07c0.13,0.13,0.26,0.26,0.39,0.4 c0.14,0.14,0.28,0.28,0.42,0.42c0.15,0.14,0.29,0.29,0.45,0.43l0.05,0.05c0.05,0.04,0.1,0.08,0.15,0.12 c0.01,0.01,0.02,0.01,0.03,0.02c0.08,0.06,0.16,0.13,0.24,0.19c0.05,0.04,0.11,0.08,0.16,0.12l0.03,0.02 c0.07,0.05,0.14,0.1,0.21,0.14c0.03,0.02,0.06,0.04,0.09,0.06c0.1,0.07,0.2,0.13,0.31,0.2c0.07,0.04,0.14,0.09,0.21,0.13 l0.09,0.05l0.23,0.14l0.11,0.06l0.07,0.04l0.07,0.04c0.11,0.06,0.21,0.11,0.32,0.16c0.05,0.02,0.1,0.05,0.15,0.07l0.05,0.02 c0.32,0.14,0.63,0.24,0.95,0.32l0.06,0.01l0.07,0.02c0.02,0,0.05,0.01,0.07,0.02c0.07,0.01,0.13,0.03,0.2,0.04 c0.05,0.01,0.1,0.02,0.15,0.03l0.12,0.02l0.04,0.01c0.03,0.01,0.07,0.01,0.1,0.02c0.06,0.01,0.11,0.02,0.17,0.02 c0.08,0.01,0.16,0.02,0.24,0.03c0.02,0,0.04,0.01,0.06,0.01c0.2,0.02,0.41,0.04,0.61,0.05c0.11,0.01,0.23,0.01,0.34,0.02l0.1,0 c0.22,0.01,0.44,0.02,0.66,0.02c0.14,0,0.29,0.01,0.43,0.01c0.05,0,0.1,0,0.16,0c0.07,0,0.15,0,0.22,0c0.05,0,0.11,0,0.16,0 l0.05,0c0.26-0.01,0.52-0.01,0.78-0.03c0.04,0,0.07,0,0.11-0.01l0.1-0.01c0.03,0,0.07,0,0.1-0.01c0.38-0.03,0.76-0.06,1.13-0.11 l0.1-0.01c0.09-0.01,0.19-0.02,0.28-0.04c0.04-0.01,0.08-0.01,0.12-0.02l0.1-0.01c0.08-0.01,0.15-0.02,0.23-0.03 c0.33-0.05,0.66-0.11,0.99-0.17c0.07-0.01,0.15-0.03,0.22-0.04l0.1-0.02c0.03-0.01,0.07-0.01,0.1-0.02l0.1-0.02 c0.03-0.01,0.07-0.01,0.1-0.02l0.07-0.01c0.08-0.02,0.16-0.03,0.24-0.05l0.1-0.02c0.09-0.02,0.19-0.04,0.28-0.06 c0.08-0.02,0.16-0.04,0.25-0.05l0.02-0.01c0.52-0.12,1.01-0.23,1.48-0.34l0.18-0.04c0.13-0.03,0.26-0.06,0.39-0.09l0.16-0.04 l0.07-0.02c0.19-0.04,0.37-0.09,0.55-0.14c0.11-0.03,0.22-0.06,0.32-0.08c0.31-0.08,0.63-0.16,0.94-0.25l0.14-0.04 c0.05-0.01,0.1-0.03,0.16-0.04l0.06-0.02c0.24-0.07,0.49-0.13,0.74-0.2l0.06-0.02l0.09-0.02l0.26-0.07l0.09-0.02l0.13-0.04 l0.05-0.02l0.11-0.04l0.09-0.03l0.04-0.02l0.05-0.02l0.03-0.01l0.05-0.02l0.05-0.02l0.02-0.01l0.05-0.03l0.05-0.03l0.05-0.04 l0.05-0.04c0.08-0.07,0.15-0.14,0.21-0.23l0,0c0,0,0.46,0.68,0.5,1.86c-1.04,1.49-4.31,1.99-8.84,2.59 c-4.5,0.6-7.28,0.48-9.16-0.32c-1.88-0.81-5.18-4.63-7.55-4.83c-2.36-0.2-5.15-1.45-6.3-2.12c-0.6-0.35-0.42-2.81-0.42-2.81 L107.72,231.27z"/>
</g>
<g id="Top_Basic-Boot" fill="#A6A6A6">
<path d="M49.35,218.75c-0.62,3.05-1.6,5.71-3.64,8.28c-3.18,4.01-8.62,4.33-12.38,7.58 c-0.97,0.83-0.92,2.18-1.07,3.41c1.56,0.44,2.93,0.78,4.68,1.18c0.12-1.23-0.1-2.6,0.93-3.49c3.76-3.25,9.68-3.13,12.86-7.13 c2.08-2.62,2.09-5.99,2.69-9.13c-0.09-0.01-0.19-0.02-0.28-0.02l-0.56-0.06l-0.02,0l-0.07-0.01l-0.18-0.02l-0.28-0.04l-0.12-0.02 c-0.32-0.04-0.64-0.09-0.95-0.14l-0.49-0.1l-0.1-0.03l-0.04-0.01l-0.08-0.02l-0.34-0.08l-0.3-0.08l-0.05-0.01 C49.49,218.79,49.42,218.77,49.35,218.75z"/>
<path d="M120.71,218.75c0.63,3.05,1.6,5.71,3.64,8.28c3.18,4.01,8.62,4.33,12.38,7.58c0.96,0.83,0.92,2.18,1.07,3.41 c-1.56,0.44-2.93,0.78-4.68,1.18c-0.12-1.23,0.1-2.6-0.93-3.49c-3.76-3.25-9.68-3.13-12.86-7.13c-2.08-2.62-2.09-5.99-2.69-9.13 c0.09-0.01,0.19-0.02,0.28-0.02l0.55-0.06l0.02,0l0.07-0.01l0.18-0.02l0.28-0.04l0.12-0.02c0.32-0.04,0.64-0.09,0.95-0.14 l0.49-0.1l0.1-0.03l0.04-0.01l0.08-0.02l0.34-0.08l0.3-0.08l0.05-0.01C120.57,218.79,120.64,218.77,120.71,218.75z"/>
</g>
<g id="Side_Basic-Boot" fill="#A6A6A6">
<path d="M60.15,218.12c-1.21,0.53-1.84,1.07-2.95,1.25c-0.06,0.01-0.12,0.02-0.18,0.03 c-0.02,0.38-0.01,0.77-0.02,1.11c-0.04,1.92,0.2,10.09,0.58,10.08c0.38-0.01,1.48-0.22,1.76-0.51c0.19-0.2,0.22-0.67,0.28-0.92 c0.19-0.81,0.37-1.63,0.5-2.45C60.29,225.59,60.12,219.79,60.15,218.12z"/>
<path d="M109.91,218.12c1.21,0.53,1.85,1.07,2.95,1.25c0.06,0.01,0.12,0.02,0.18,0.03c0.02,0.38,0.01,0.77,0.02,1.11 c0.04,1.92-0.2,10.09-0.57,10.08c-0.38-0.01-1.48-0.22-1.76-0.51c-0.19-0.2-0.22-0.67-0.28-0.92c-0.19-0.81-0.37-1.63-0.5-2.45 C109.77,225.59,109.95,219.79,109.91,218.12z"/>
</g>
</g>
</g>
<g id="Gloves">
<g id="Left-Glove"><g id="Basic_Left_Glove" class="option" fill="#A6A6A6" style="display: inherit;">
<path d="M133.16,120.46c-0.46-0.03-0.9-0.01-1.36,0.09c-0.31,0.07-0.62,0.16-0.9,0.34 c-0.85,0.55-0.62,1.76,0.14,2.21c0.89,0.53,2.29,0.01,2.69-1.02C133.9,121.66,133.39,120.86,133.16,120.46"/>
<path d="M131.6,121.51c-0.46-0.02-0.9-0.02-1.36,0.09c-0.31,0.07-0.62,0.16-0.9,0.34c-0.85,0.55-0.62,1.76,0.14,2.21 c0.89,0.53,2.29,0.01,2.69-1.02C132.34,122.71,131.83,121.91,131.6,121.51"/>
<path d="M130.49,122.93c-0.46,0.05-1.02,0.12-1.46,0.3c-0.3,0.12-0.59,0.25-0.85,0.47c-0.78,0.68-0.4,1.83,0.4,2.17 c0.94,0.39,2.27-0.34,2.55-1.42C131.24,124.01,130.49,122.93,130.49,122.93z"/>
<path d="M127.97,106.79c0,0-1.34,2.09-1.69,3.59c-0.25,1.06-0.11,3.58-0.43,5.28c-0.31,1.7-0.59,2.64-0.59,2.64 s-1.18,2.71-0.98,3.34c0.21,0.62,1.25,1.18,1.84,0.85c0.74-0.41,1.66-2.32,2.24-3.67c0.59-1.37,1.08-3.32,1.08-3.32 s0.81,0.32,1.23,0.68c1.38,1.2,0.78,4.82,0.78,4.82s-0.57,1.29-1.43,2.75c-1.17,1.99-2.97,3.7-1.78,5.22 c1.11,1.42,3.63-2.31,3.63-2.31l2.47-3.62c0,0,2.84-5.26,2.98-6.28c0.11-0.78,0.01-3.38,0.01-3.38l-0.89-10.08l-4.5,0.42 l-3.7,1.36L127.97,106.79"/>
</g>
</g>
<g id="Right-Glove"><g id="Basic_Right_Glove" class="option" fill="#A6A6A6" style="display: inherit;">
<path d="M36.86,120.46c0.46-0.03,0.9-0.01,1.36,0.09c0.31,0.07,0.62,0.16,0.9,0.34c0.85,0.55,0.62,1.76-0.14,2.21 c-0.89,0.53-2.29,0.01-2.69-1.02C36.12,121.66,36.64,120.86,36.86,120.46"/>
<path d="M38.42,121.51c0.46-0.02,0.9-0.02,1.36,0.09c0.31,0.07,0.62,0.16,0.9,0.34c0.85,0.55,0.62,1.76-0.14,2.21 c-0.89,0.53-2.29,0.01-2.69-1.02C37.68,122.71,38.2,121.91,38.42,121.51"/>
<path d="M39.54,122.93c0.46,0.05,1.02,0.12,1.46,0.3c0.3,0.12,0.6,0.25,0.85,0.47c0.78,0.68,0.4,1.83-0.4,2.17 c-0.94,0.39-2.27-0.34-2.55-1.42C38.78,124.01,39.54,122.93,39.54,122.93z"/>
<path d="M42.06,106.79c0,0,1.34,2.09,1.69,3.59c0.25,1.06,0.11,3.58,0.43,5.28c0.31,1.7,0.59,2.64,0.59,2.64 s1.18,2.71,0.98,3.34c-0.21,0.62-1.24,1.18-1.84,0.85c-0.74-0.41-1.66-2.32-2.24-3.67c-0.59-1.37-1.08-3.32-1.08-3.32 s-0.81,0.32-1.23,0.68c-1.38,1.2-0.78,4.82-0.78,4.82s0.57,1.29,1.43,2.75c1.17,1.99,2.97,3.7,1.78,5.22 c-1.11,1.42-3.63-2.31-3.63-2.31l-2.47-3.62c0,0-2.84-5.26-2.98-6.28c-0.11-0.78-0.01-3.38-0.01-3.38l0.89-10.08l4.5,0.42 l3.7,1.36L42.06,106.79"/>
</g>
</g>
</g>
<g id="Biceps">
<g id="Left-Biceps">
<g id="None_Biceps_Left" class="option" style="display: inherit;">
</g></g>
<g id="Right-Biceps">
<g id="None_Biceps_Right" class="option" style="display: inherit;">
</g></g>
</g>
<g id="BicepsDecals" mask="url(#BicepsMask)">
</g>
<path id="Vest" d="M91.61,82.96c-4.3,0.88-8.84,0.88-13.14,0c-4.33-0.88-12.83-5.29-12.83-5.29s-7.42-23.26-8.75-30.06 c-1.06-5.39-1.42-14.37-1.42-14.37l-12.73,8.52l-2.71-1.15c0,0,7.62-16.73,12.62-21.57c4.53-4.39,17.42-7.5,17.42-7.5 s5.68,6.2,14.97,6.25c8.84,0.04,14.97-6.25,14.97-6.25s12.89,3.12,17.42,7.5c5.01,4.85,12.62,21.57,12.62,21.57l-2.71,1.15 l-12.73-8.52c0,0-0.36,8.98-1.42,14.37c-1.33,6.79-8.76,30.06-8.76,30.06S95.93,82.08,91.61,82.96z" fill="#A6A6A6"/>
<g id="SuitDecals" mask="url(#SuitMask)">
</g>
<g class="swappable" id="Chest"><g id="Chest_Classic">
<g id="Abdomen_Classic">
<path id="Abdomen-Plate_Classic" d="M70.92,71.85c3.28,0.68,9.37,1.06,14.06,1.06c4.68,0,10.77-0.38,14.05-1.06 c2.08-0.43,5.83-9.75,5.83-9.75l-5.45-3.73l-4.05-8.7l-10.39-2.54l-10.39,2.54l-4.05,8.7l-5.45,3.73 C65.09,62.09,68.84,71.41,70.92,71.85" fill="#FF2727"/>
<path id="Trauma-Plate_Abdomen_Classic" class="toggle" style="display:none" d="M94.52,50.62l-9.55-2.34l-9.55,2.34l-3.82,8.2 c-0.08,0.18-0.22,0.34-0.39,0.46l-4.7,3.22c0.6,1.41,1.92,4.39,3.23,6.47c0.35,0.55,0.69,1.04,1.02,1.4 c0.15,0.16,0.39,0.35,0.43,0.38c3.23,0.66,9.18,1.02,13.77,1.02s10.53-0.36,13.77-1.02c0.04-0.03,0.29-0.22,0.43-0.38 c0.33-0.36,0.67-0.85,1.02-1.4c1.31-2.08,2.63-5.06,3.23-6.47l-4.7-3.22c-0.17-0.12-0.31-0.27-0.39-0.46L94.52,50.62z"/>
</g>
<g id="Iron-Heart_Classic">
<path id="Heart_Classic" d="M82.2,36.92V27.8l2.8-2.1l2.8,2.1v9.12L85,39.63L82.2,36.92z" fill="#FF2727"/><rect id="Center_Heart_Classic" class="option" x="83.98" y="28.64" width="2.03" height="8.06" style="display: inherit;"/>
</g>
<g id="Left-Chest_Classic">
<path id="Chest_Left_Classic" d="M109.15,26.3c-3.86-3.73-21.93-3.85-21.93-3.85l-0.23,2.09l2.97,2.67l-0.23,11.26 l-2.63,2.44v3.72l10.06,2.67l4,8.71l4.46,3.48c0,0,4.66-10.65,5.22-16.59C111.21,38.95,112.53,29.55,109.15,26.3" fill="#FF2727"/>
<path id="Trauma-Plating_Left-Chest_Classic" class="toggle" style="display:none" d="M88.28,23.59l-0.06,0.51l2.55,2.29 c0.24,0.22,0.38,0.52,0.37,0.84l-0.23,11.26c-0.01,0.3-0.14,0.58-0.36,0.78l-2.27,2.11v2.38l9.19,2.44 c0.34,0.09,0.62,0.32,0.76,0.63l3.89,8.46l3,2.35c1.26-3.04,4.11-10.34,4.54-14.86c0.22-2.32,0.78-6.57,0.47-10.29 c-0.18-2.22-0.63-4.26-1.82-5.41c-1.05-1.01-3.28-1.66-5.84-2.17C97.32,23.9,90.8,23.65,88.28,23.59z"/>
</g>
<g id="Right-Chest_Classic">
<path id="Chest_Right_Classic" d="M60.85,26.3c3.86-3.73,21.93-3.85,21.93-3.85l0.23,2.09l-2.97,2.67l0.23,11.26 l2.63,2.44v3.72l-10.06,2.67l-4,8.71l-4.46,3.48c0,0-4.66-10.65-5.22-16.59C58.79,38.95,57.47,29.55,60.85,26.3" fill="#FF2727"/>
<path id="Trauma-Plating_Right-Chest_Classic" class="toggle" style="display:none" d="M81.72,23.59c-2.52,0.06-9.04,0.31-14.2,1.33 c-2.57,0.51-4.8,1.16-5.84,2.17c-1.19,1.15-1.64,3.18-1.82,5.41c-0.31,3.72,0.25,7.97,0.47,10.29 c0.43,4.52,3.28,11.82,4.54,14.86l3-2.35l3.89-8.46c0.14-0.31,0.42-0.54,0.76-0.63l9.19-2.44v-2.38l-2.27-2.11 c-0.22-0.21-0.35-0.49-0.36-0.78l-0.23-11.26c-0.01-0.32,0.13-0.62,0.37-0.84l2.55-2.29L81.72,23.59z"/>
</g>
<g id="Neck-Armor_Classic">
<path id="Neck-Plate_Classic" d="M85,20.79c-7.14,0-21.41-1.52-21.41-1.52l-2.21-5.78l10.08-2.58 c0,0,1.33,1.93,2.3,2.61c0.99,0.7,2.32,1.52,3.56,1.98c1.36,0.51,3.02,0.85,4.6,1.07c1.78,0.25,4.37,0.25,6.14,0 c1.58-0.22,3.41-0.56,4.77-1.07c1.24-0.47,2.4-1.28,3.39-1.98c0.97-0.68,2.3-2.61,2.3-2.61l10.08,2.58l-2.21,5.78 C106.41,19.27,92.14,20.79,85,20.79z" fill="#FF2727"/>
<path id="Trauma-Plates_Neck_Classic" class="toggle" style="display:none" d="M83.8,19.66c-6.32-0.12-16.56-1.14-19.35-1.42l-1.52-3.97 l8.05-2.06c0.53,0.69,1.4,1.74,2.09,2.23c1.07,0.75,2.49,1.62,3.83,2.12c1.44,0.54,3.19,0.9,4.86,1.13 c0.61,0.08,1.31,0.14,2.04,0.17V19.66z M86.2,17.86c0.73-0.03,1.43-0.09,2.04-0.17c1.67-0.23,3.59-0.6,5.03-1.13 c1.34-0.5,2.59-1.37,3.66-2.12c0.69-0.49,1.56-1.54,2.09-2.23l8.05,2.06l-1.52,3.97c-2.79,0.29-13.03,1.3-19.35,1.42V17.86z"/>
</g>
</g></g>
<g id="ChestDecals" mask="url(#ChestMask)">
<use class="decal" href="#Stripe-1" id="Stripe-1__13" transform="translate(85.2922, 35.0042) rotate(0) scale(0.452427, 0.279906) translate(-50, -50)" fill="#000000"/><use class="decal" href="#Beskar-ta" id="Beskar-ta__18" transform="translate(84.7379, 32.8017) rotate(0) scale(0.175614, 0.190917) translate(-50, -50)" fill="#FF2727"/><use class="decal" href="#Stripe-1" id="Stripe-1__19" transform="translate(73.5003, 23.6354) rotate(-0.598006) scale(0.764038, 0.0335184) translate(-50, -50)" fill="#000000"/><use class="decal" href="#Stripe-1" id="Stripe-1__20" transform="translate(101.343, 23.5466) rotate(2.43089) scale(0.833591, 0.0425594) translate(-50, -50)" fill="#000000"/><use class="decal" href="#Circle" id="Circle__21" transform="translate(84.5, 64.6908) rotate(0) scale(0.402558, 0.294962) translate(-50, -50)" fill="#000000"/><use class="decal" href="#Circle" id="Circle__22" transform="translate(85.0565, 58.3834) rotate(0) scale(0.424819, 0.250439) translate(-50, -50)" fill="#FF2727"/><use class="decal" href="#Stripe-1" id="Stripe-1__12" transform="translate(84.9989, 58.3102) rotate(0) scale(0.267435, 0.303518) translate(-50, -50)" fill="#000000"/><use class="decal" href="#Circle" id="Circle__25" transform="translate(106.925, 38.0261) rotate(-13.3989) scale(0.395335, 0.150274) translate(-50, -50)" fill="#000000"/><use class="decal" href="#Stripe-1" id="Stripe-1__26" transform="translate(104.151, 34.7894) rotate(0) scale(0.746744, 0.127155) translate(-50, -50)" fill="#FF2727"/><use class="decal" href="#Circle" id="Circle__27" transform="translate(51.2086, 38.0261) rotate(5.74196) scale(0.645021, 0.191888) translate(-50, -50)" fill="#000000"/><use class="decal" href="#Stripe-1" id="Stripe-1__28" transform="translate(66.9296, 36.1766) rotate(0) scale(0.788358, 0.122531) translate(-50, -50)" fill="#FF2727"/></g>
<g id="Chest-Attachments"><g id="No-Device_Accessories_Chest" class="option" style="display: inherit;">
</g>
</g>
<g id="Collar"><g id="None_Collar" class="option" style="display: inherit;">
</g>
</g>
<g id="CollarDecals" mask="url(#CollarMask)">
</g>
<g id="Helmets" class="swappable" transform="translate(45,-52)"><g id="Helmet_Classic">
<g id="Left-Earcap_Classic" class="toggle"><path id="Ear-Cap_Left_Classic" d="M60.03,57.18l1.74-2.57l-1.74-17.81l-2.43-1.53L60.03,57.18z" fill="#787878"/>
</g>
<g id="Right-Earcap_Classic" class="toggle"><g id="Range-Finder_Right_Classic" class="option" style="display: inherit;">
<path id="Shaft_Right_Range-Finder_Classic" d="M22.48,9.72l1.08,0.07l-1.61,26.85h-1.1L22.48,9.72z" fill="#787878"/>
<path id="Finder_Right_Range-Finder_Classic" d="M30.81,7.55h-5.96l0.24-0.74l6.96-0.65L30.81,7.55" fill="#787878"/>
<g id="Cover_Right_Range-Finder_Classic" fill="#787878">
<path d="M21.62,8.59l2.84,0.19l0.63-1.96l7.48-0.7l0.15-0.76l-10.68-0.4L21,6.27L21.62,8.59"/>
<path d="M22.38,8.64l1.41,0.09L23.72,9.8l-1.4-0.09L22.38,8.64"/>
</g>
</g>
<path id="Ear-Cap_Right_Classic" d="M19.97,57.18l-1.74-2.57l1.74-17.81l2.43-1.53L19.97,57.18z" fill="#787878"/>
</g>
<g id="Helmet_Pieces_Classic">
<g id="Face_Classic" fill="#FF2727">
<path d="M22.24,58.73c0,0,0.61-4.18,1.53-6.26c0.94-2.11,2.73-4.44,4.76-4.08c1.62,0.29,4.83,7.93,5.07,17.33 C33.44,65.57,22.24,58.73,22.24,58.73z"/>
<path d="M57.74,58.73c0,0-0.61-4.18-1.53-6.26c-0.94-2.11-2.73-4.44-4.76-4.08c-1.62,0.29-4.84,7.93-5.07,17.33 C46.53,65.57,57.74,58.73,57.74,58.73z"/>
</g>
<g id="Cheeks_Classic" fill="#000000">
<path d="M22.24,58.73v0.1l-2.44-0.19l1.76-16.29c0.61,0.19,5.65,1.77,7.36,3.35c1.82,1.69,3.01,4.31,3.59,6.77 c0.63,2.68,0.95,9.62,1.05,12.23c-0.43-8.92-3.47-16.03-5.03-16.31c-2.03-0.36-3.82,1.97-4.76,4.08 C22.85,54.55,22.24,58.73,22.24,58.73z"/>
<path d="M46.42,64.7c0.1-2.61,0.43-9.55,1.06-12.23c0.58-2.46,1.77-5.08,3.59-6.77c1.68-1.57,6.63-3.12,7.36-3.35 l1.76,16.28l-2.44,0.19v-0.1c0,0-0.61-4.18-1.53-6.26c-0.94-2.11-2.73-4.44-4.76-4.08C49.88,48.67,46.85,55.78,46.42,64.7z"/>
</g>
<path id="Eyes_Classic" d="M46.38,65.72H33.6c0,0-0.31-9.91-1.09-13.25c-0.58-2.46-1.77-5.08-3.59-6.77 c-1.82-1.69-7.33-3.37-7.33-3.37l0.65-6.29c0,0,5.69,0.74,8.55,0.92c2.69,0.17,8.13,0.21,9.2,0.22c1.07-0.01,6.51-0.05,9.2-0.22 c2.86-0.18,8.55-0.92,8.55-0.92l0.65,6.29c0,0-5.51,1.68-7.33,3.37c-1.82,1.69-3.01,4.31-3.59,6.77 C46.69,55.8,46.38,65.7,46.38,65.72z" fill="#787878"/>
<g fill="#000000" id="Visors_Classic"><path fill="#000000" id="Basic_Visor_Classic" class="option" d="M43.42,65.72h-6.87V42.33c0,0-3.82-0.35-5.67-0.78 c-2.26-0.52-7.89-2.33-7.89-2.33l0.08-1.31c0,0,5.19,0.89,7.81,1.17c2.57,0.27,6.07,0.65,9.11,0.65s6.54-0.37,9.11-0.65 c2.62-0.28,7.81-1.17,7.81-1.17l0.08,1.31c0,0-5.63,1.81-7.89,2.33c-1.86,0.42-5.67,0.78-5.67,0.78V65.72z" style="display: inherit;"/>
</g>
<path id="Dome_Classic" d="M22.24,36.05l0-0.01v-0.11c0.06-9.27,7.88-16.81,17.57-17v0h0.12l0.07,0l0.07,0h0.12v0 c9.69,0.19,17.5,7.72,17.56,17v0.11l0,0.01c-0.75,0.1-5.9,0.74-8.55,0.91c-2.69,0.17-8.13,0.21-9.2,0.22 c-1.07-0.01-6.51-0.05-9.2-0.22C28.14,36.79,22.99,36.15,22.24,36.05z" fill="#FF2727"/>
</g>
</g></g>
<g id="HelmetsDecals" mask="url(#HelmetsMask)"><use class="decal" href="#Stripe-3" id="Stripe-3__1" transform="translate(84.7142, -41.1718) rotate(0) scale(0.295914, 0.532646) translate(-50, -50)" fill="#000000"/></g>
<g id="Shoulders">
<g id="Left-Shoulder"><g id="Classic_Shoulder_Left" class="option" style="display: inherit;">
<path id="Main_Shoulder_Classic_Left" d="M115.19,13.78l-2.62,11.77l2.09,6.77l14.01,7.05l2.36-3.6L115.19,13.78z" fill="#FF2727"/>
<path id="Trauma-Plates_Shoulder_Classic_Left" class="toggle" style="display:none" d="M114.4,25.47l1.74,5.62l11.93,6l2.02-3.08 l-13.43-18.68L114.4,25.47z"/>
</g>
</g>
<g id="Right-Shoulder"><g id="Classic_Shoulder_Right" class="option" style="display: inherit;">
<path id="Main_Shoulder_Classic_Right" d="M54.88,13.78l2.62,11.77l-2.09,6.77l-14.01,7.05l-2.36-3.6L54.88,13.78z " fill="#FF2727"/>
<path id="Trauma-Plates_Shoulder_Classic_Right" class="toggle" style="display:none" d="M55.67,25.47l-1.74,5.62l-11.93,6l-2.02-3.08 l13.43-18.68L55.67,25.47z"/>
</g>
</g>
</g>
<g id="ShouldersDecals" mask="url(#ShouldersMask)">
</g>
<g id="Gauntlets">
<g id="Left-Gauntlets"><g id="Basic_Gauntlet_Left" class="option" style="display: inherit;">
<path id="Top-2_Basic_Gauntlet_Left" d="M140.21,108.05l1.6-2.13l-2.46-19.29l-0.86,2.24l1.2,8.8l-0.93,2.08 L140.21,108.05z" fill="#FF2727"/>
<path id="Top-1_Basic_Gauntlet_Left" d="M139.34,86.62l-0.86,2.24l1.2,8.8l-0.93,2.08l1.45,8.31l-1.05,1.41 l0.05,5.31l-1.66,0.29l-1.54-8.11l-1.47-0.68l-5.06-23.8l9.3-0.21L139.34,86.62z" fill="#FF2727"/>
<g id="Accent-Bottom_Basic_Gauntlet_Left" fill="#FF2727">
<path d="M125.39,89.15l-2.1,0.5l0.75,3.1l2.09-0.5L125.39,89.15z"/>
<path d="M126.69,94.58l-2.09,0.5l0.75,3.1l2.1-0.5L126.69,94.58z"/>
<path d="M128.05,100.14l-2.1,0.5l0.75,3.1l2.1-0.5L128.05,100.14z"/>
</g>
<path id="Bottom_Basic_Gauntlet_Left" d="M123.31,89.65l-0.57-2.36l6.82-4.44l4.97,23.41l-7.08,0.7l-2.1-8.77 l2.09-0.5l-0.75-3.1l-2.08,0.5l-0.56-2.33l2.09-0.5l-0.75-3.1L123.31,89.65z M128.05,100.14l-2.1,0.51l0.74,3.1l2.11-0.51 L128.05,100.14z" fill="#FF2727"/><g id="No-Device_Attachment_Basic_Gauntlet_Left" class="option" style="display: inherit;">
</g>
</g>
</g>
<g id="Right-Gauntlets"><g id="Basic_Gauntlet_Right" class="option" style="display: inherit;">
<path id="Top-2_Basic_Gauntlet_Right" d="M29.77,108.05l-1.6-2.13l2.46-19.29l0.86,2.24l-1.2,8.8l0.93,2.08 L29.77,108.05z" fill="#FF2727"/>
<path id="Top-1_Basic_Gauntlet_Right" d="M30.63,86.62l0.86,2.24l-1.2,8.8l0.93,2.08l-1.45,8.31l1.05,1.41 l-0.05,5.31l1.66,0.29l1.54-8.11l1.47-0.68l5.05-23.8l-9.3-0.21L30.63,86.62z" fill="#FF2727"/>
<g id="Accent-Bottom_Basic_Gauntlet_Right" fill="#FF2727">
<path d="M44.58,89.14l2.1,0.5l-0.75,3.1l-2.1-0.5L44.58,89.14z"/>
<path d="M43.29,94.58l2.09,0.5l-0.75,3.1l-2.1-0.5L43.29,94.58z"/>
<path d="M41.93,100.14l2.1,0.5l-0.75,3.1l-2.1-0.5L41.93,100.14z"/>
</g>
<path id="Bottom_Basic_Gauntlet_Right" d="M46.66,89.64l0.56-2.36l-6.82-4.44l-4.96,23.41l7.08,0.7l2.1-8.77 l-2.09-0.5l0.75-3.1l2.08,0.5l0.56-2.33l-2.09-0.5l0.75-3.1L46.66,89.64z M41.93,100.14l2.1,0.5l-0.74,3.1l-2.11-0.51 L41.93,100.14z" fill="#FF2727"/><g id="No-Device_Attachment_Basic_Gauntlet_Right" class="option" style="display: inherit;">
</g>
</g>
</g>
</g>
<g id="GauntletsDecals" mask="url(#GauntletsMask)">
</g>
<g id="Shins">
<g id="Left-Shin"><g id="Basic_Shin_Left" class="option" style="display: inherit;">
<path id="Shin_Basic-Shin_Left" d="M123.38,181.46l-4.73-6.13l-10.54,0.47l-4.62,8.67l4.39,30.69 c4.45,2.3,11.19,1.91,15.07-1.05L123.38,181.46" fill="#FF2727"/>
<path id="Trauma-Plating_Basic-Shin_Left" class="toggle" style="display:none" d="M121.21,213.2l0.4-31.15l-3.8-4.92l-8.61,0.38l-3.88,7.28 l4.17,29.18C113.1,215.46,117.99,215.19,121.21,213.2"/>
<g id="Ridge_Basic-Shin_Left" class="toggle" style="display:none"/>
</g>
</g>
<g id="Right-Shin"><g id="Basic_Shin_Right" class="option" style="display: inherit;">
<path id="Shin_Basic-Shin_Right" d="M46.67,181.46l4.73-6.13l10.53,0.47l4.62,8.67l-4.39,30.69 c-4.45,2.3-11.19,1.91-15.07-1.05L46.67,181.46" fill="#FF2727"/>
<path id="Trauma-Plating_Basic-Shin_Right" class="toggle" style="display:none" d="M48.84,213.2l-0.4-31.15l3.8-4.92l8.61,0.38l3.88,7.28 l-4.17,29.18C56.95,215.46,52.05,215.19,48.84,213.2"/>
<g id="Ridge_Basic-Shin_Right" class="toggle" style="display:none"/>
</g>
</g>
</g>
<g id="ShinsDecals" mask="url(#ShinsMask)">
<use class="decal" href="#Stripe-1" id="Stripe-1__10" transform="translate(112.119, 161.416) rotate(-3.00253) scale(0.374825, 1.12447) translate(-50, -50)" fill="#000000"/><use class="decal" href="#Stripe-1" id="Stripe-1__11" transform="translate(58.8541, 152.21) rotate(3.26575) scale(0.401128, 1.40066) translate(-50, -50)" fill="#000000"/></g>
<g id="Foot">
<g id="Left-Ankle">
<g id="None_Ankle_Left" class="option" style="display: inherit;">
</g></g>
<g id="Left-Toe"><g id="None_Toe_Left" class="option" style="display: inherit;">
</g>
</g>
<g id="Right-Ankle">
<g id="None_Ankle_Right" class="option" style="display: inherit;">
</g></g>
<g id="Right-Toe"><g id="None_Toe_Right" class="option" style="display: inherit;">
</g>
</g>
</g>
<g id="FootDecals" mask="url(#FootMask)">
</g>
<g id="Knees">
<g id="Left-Knee"><g id="Basic_Knee_Left" class="option" style="display: inherit;">
<g id="Missiles_Basic-Knee_Left" class="toggle" style="display:none"/>
<g id="Knee_Basic-Knee_Left" fill="#FF2727">
<path d="M97.4,158.73l1.49-0.24c0,0,1.12,7.19,1.62,10.38c0.13,0.82-0.43,1.6-1.25,1.73h0L97.4,158.73z"/>
<path d="M98.84,158.2l0.85,5.33c1.09-0.61,3.84,0.51,4.74,3.72c1.65,5.89,3.08,7.24,8.25,6.71 c4.02-0.41,6.89-2.29,7.22-5.05c0.49-4.07-0.01-9.98-0.26-12.36c-0.03-0.27-0.17-0.52-0.38-0.7c-0.22-0.17-0.49-0.25-0.77-0.21 C114.3,156.18,98.84,158.2,98.84,158.2z"/>
<path d="M98.33,158.27l0.51-0.08l0.95,5.77l-0.51,0.08L98.33,158.27z"/>
</g>
</g>
</g>
<g id="Right-Knee"><g id="Basic_Knee_Right" class="option" style="display: inherit;">
<g id="Missiles_Basic-Knee_Right" class="toggle" style="display:none"/>
<g id="Knee_Basic-Knee_Right" fill="#FF2727">
<path d="M72.6,158.73l-1.49-0.24c0,0-1.12,7.19-1.62,10.38c-0.13,0.82,0.43,1.6,1.25,1.73h0L72.6,158.73z"/>
<path d="M71.16,158.2l-0.85,5.33c-1.09-0.61-3.84,0.51-4.74,3.72c-1.65,5.89-3.08,7.24-8.25,6.71 c-4.02-0.41-6.89-2.29-7.22-5.05c-0.49-4.07,0.01-9.98,0.26-12.36c0.03-0.27,0.17-0.52,0.38-0.7c0.22-0.17,0.49-0.25,0.77-0.21 C55.7,156.18,71.16,158.2,71.16,158.2z"/>
<path d="M71.67,158.27l-0.51-0.08l-0.95,5.77l0.51,0.08L71.67,158.27z"/>
</g>
</g>
</g>
</g>
<g id="KneesDecals" mask="url(#KneesMask)">
<use class="decal" href="#Stripe-1" id="Stripe-1__7" transform="translate(108.831, 140.374) rotate(-5.81724) scale(0.380591, 0.862494) translate(-50, -50)" fill="#000000"/><use class="decal" href="#Stripe-1" id="Stripe-1__9" transform="translate(60.1693, 135.113) rotate(2.88618) scale(0.387977, 1.11132) translate(-50, -50)" fill="#000000"/></g>
<g id="Thighs">
<g id="Left-Thigh"><g id="Basic_Thigh_Left" class="option" style="display: inherit;">
<path id="Thigh_Basic-Thigh_Left" d="M119.66,114.13c0,0-5.22-6.67-7.89-7.78c-2.53-1.05-5.91-0.6-8.08,1.13 c-3.31,2.64-10.92,8.35-11.78,14.71c-0.96,7.1,4.24,22.8,6,27.87c0.6,1.72,2.87,2.51,4.61,2.57c3.22,0.12,12.01-0.15,14.11-4.87 C119.49,141.34,119.66,114.13,119.66,114.13" fill="#FF2727"/>
<path id="Trauma-Plate_Basic-Thigh_Left" class="toggle" style="display:none" d="M117.89,114.74c-0.78-0.97-2.65-3.22-4.46-4.95 c-0.86-0.82-1.68-1.54-2.34-1.82c-1.97-0.82-4.61-0.47-6.3,0.88c-1.92,1.53-5.35,4.12-7.95,7.29c-1.58,1.92-2.88,4.05-3.18,6.29 c-0.94,6.9,4.2,22.13,5.92,27.06c0.15,0.43,0.56,0.7,0.99,0.91c0.64,0.31,1.38,0.46,2.02,0.49c1.8,0.07,5.47,0.02,8.54-1 c1.7-0.56,3.24-1.38,3.89-2.83c0.81-1.82,1.35-5.42,1.77-9.56C117.68,128.66,117.86,117.46,117.89,114.74"/>
<g id="Ridge_Basic-Thigh_Left" class="toggle" style="display:none"/>
</g>
</g>
<g id="Right-Thigh"><g id="Basic_Thigh_Right" class="option" style="display: inherit;">
<path id="Thigh_Basic-Thigh_Right" d="M50.34,114.13c0,0,5.22-6.67,7.89-7.78c2.53-1.05,5.91-0.6,8.08,1.13 c3.31,2.64,10.92,8.35,11.78,14.71c0.96,7.1-4.24,22.8-6,27.87c-0.6,1.72-2.87,2.51-4.61,2.57c-3.22,0.12-12.01-0.15-14.11-4.87 C50.51,141.34,50.34,114.13,50.34,114.13" fill="#FF2727"/>
<path id="Trauma-Plate_Basic-Thigh_Right" class="toggle" style="display:none" d="M52.11,114.74c0.78-0.97,2.65-3.22,4.46-4.95 c0.86-0.82,1.68-1.54,2.33-1.82c1.97-0.82,4.61-0.47,6.3,0.88c1.92,1.53,5.35,4.12,7.95,7.29c1.58,1.92,2.88,4.05,3.18,6.29 c0.94,6.9-4.2,22.13-5.92,27.06c-0.15,0.43-0.56,0.7-0.99,0.91c-0.64,0.31-1.38,0.46-2.02,0.49c-1.8,0.07-5.47,0.02-8.54-1 c-1.7-0.56-3.24-1.38-3.89-2.83c-0.81-1.82-1.35-5.42-1.77-9.56C52.32,128.66,52.14,117.46,52.11,114.74"/>
<g id="Ridge_Basic-Thigh_Right" class="toggle" style="display:none"/>
</g>
</g>
</g>
<g id="ThighsDecals" mask="url(#ThighsMask)">
<use class="decal" href="#Stripe-1" id="Stripe-1__5" transform="translate(104.556, 104.206) rotate(-5.61436) scale(0.416472, 1.21873) translate(-50, -50)" fill="#000000"/><use class="decal" href="#Stripe-1" id="Stripe-1__6" transform="translate(65.7588, 97.6303) rotate(6.22291) scale(0.416472, 1.32394) translate(-50, -50)" fill="#000000"/></g>
<g id="Groin"><g id="Basic_Groin" class="option" style="display: inherit;">
<path id="Groin-Plate_Basic" d="M78.57,104.6L67.72,82.91h34.71L91.58,104.6c0,0-4.33,5.17-6.5,5.17 C82.91,109.76,78.57,104.6,78.57,104.6z" fill="#FF2727"/>
<path id="Trauma-Plating_Groin" class="toggle" style="display:none" d="M90.42,103.84l9.8-19.57H69.93l9.79,19.57c0.43,0.5,2.16,2.47,3.82,3.72 c0.58,0.44,1.1,0.84,1.53,0.84c0.44,0,0.95-0.4,1.53-0.84C88.26,106.32,89.99,104.34,90.42,103.84"/>
</g>
</g>
<g id="GroinDecals" mask="url(#GroinMask)">
</g>
<g id="Waist">
<g id="Accessories_Waist">
<g id="Kama" class="toggle" style="display:none"/>
<g id="Loin-Cloth" class="toggle" style="display:none"/>
<g id="Left-Holster" class="toggle" style="display:none"/>
<g id="Right-Holster" class="toggle" style="display:none"/>
<g id="Left-Trophy" class="toggle" style="display:none"/>
<g id="Right-Trophy" class="toggle" style="display:none"/>
</g>
<g id="Under-Belt"><g id="Girth-Belt" class="option" fill="#8B572A" style="display: inherit;">
<path d="M85.04,76.62c-7.36,0-22.09-1.86-22.09-1.86l0.48-1.58c0,0,14.37,1.24,21.61,1.86 c7.21-0.62,21.61-1.86,21.61-1.86l0.48,1.58C107.13,74.76,92.4,76.62,85.04,76.62z"/>
<path d="M85.04,78.2c-7.52,0-22.55-1.86-22.55-1.86l0.46-1.58c0,0,18.41,1.55,22.09,1.86 c3.68-0.31,22.09-1.86,22.09-1.86l0.46,1.58C107.59,76.34,92.56,78.2,85.04,78.2z"/>
<path d="M85.04,79.78c-7.63,0-22.9-1.86-22.9-1.86l0.34-1.58c0,0,18.79,1.55,22.55,1.86 c3.76-0.31,22.55-1.86,22.55-1.86l0.34,1.58C107.94,77.92,92.67,79.78,85.04,79.78z"/>
<path d="M85.04,81.36c-7.73,0-23.18-1.86-23.18-1.86l0.29-1.58c0,0,19.08,1.55,22.9,1.86 c3.82-0.31,22.9-1.86,22.9-1.86l0.29,1.58C108.22,79.49,92.77,81.36,85.04,81.36z"/>
<path d="M85.04,82.94c-7.81,0-23.44-1.86-23.44-1.86l0.26-1.58c0,0,19.32,1.55,23.18,1.86 c3.86-0.31,23.18-1.86,23.18-1.86l0.26,1.58C108.49,81.07,92.86,82.94,85.04,82.94z"/>
<path d="M85.04,84.52c-7.9,0-23.69-1.86-23.69-1.86l0.25-1.58c0,0,19.54,1.55,23.44,1.86 c3.91-0.31,23.44-1.86,23.44-1.86l0.25,1.58C108.73,82.65,92.94,84.52,85.04,84.52z"/>
<path d="M85.04,86.1c-7.98,0-23.93-1.86-23.93-1.86l0.24-1.58c0,0,19.74,1.55,23.69,1.86 c3.95-0.31,23.69-1.86,23.69-1.86l0.24,1.58C108.97,84.23,93.02,86.1,85.04,86.1z"/>
<path d="M85.04,87.68c-8.06,0-24.18-1.86-24.18-1.86l0.25-1.58c0,0,19.94,1.55,23.93,1.86 c3.99-0.31,23.93-1.86,23.93-1.86l0.25,1.58C109.22,85.81,93.1,87.68,85.04,87.68z"/>
<path d="M85.04,89.25c-8.15,0-24.45-1.86-24.45-1.86l0.27-1.58c0,0,20.15,1.55,24.18,1.86 c4.03-0.31,24.18-1.86,24.18-1.86l0.27,1.58C109.49,87.39,93.19,89.25,85.04,89.25z"/>
<path d="M85.04,90.83c-8.25,0-24.76-1.86-24.76-1.86l0.31-1.58c0,0,20.38,1.55,24.45,1.86 c4.08-0.31,24.45-1.86,24.45-1.86l0.31,1.58C109.8,88.97,93.29,90.83,85.04,90.83z"/>
</g>
</g>
<g id="Belt"><g id="Basic-Belt" class="option" style="display: inherit;">
<path id="Main_Basic-Belt" d="M109.38,84.25c-5.47,0.49-17.98,2.27-24.29,2.27c-6.38,0-18.88-1.79-24.28-2.26 l0.81-6.37c4.44,0.39,17.3,2.2,23.48,2.2c5.99,0,18.59-1.79,23.33-2.22L109.38,84.25z" fill="#8B572A"/>
<rect id="Buckle_Basic-Belt" x="80.61" y="79.49" width="9.05" height="7.39" fill="#787878"/>
</g>
</g>
</g>
<g id="WaistDecals" mask="url(#WaistMask)">
</g>
<g id="Extras_Front">
<g id="Front"><g id="None_Front" class="option" style="display: inherit;">
</g>
</g>
</g>
<g id="Extras-FrontDecals" mask="url(#FrontMask)">
</g>
</g>
</svg>