<?xml version='1.0' encoding='UTF-8'?>
<svg version="1.1" id="Female-Body" xmlns="http://www.w3.org/2000/svg" xmlns:serif="http://www.serif.com/" viewBox="0 -55 170 300" style="fill-rule: evenodd; stroke-width: 0.2px; stroke-linejoin: round;" width="170" height="300">
<style>
mask {
mask-type: alpha;
}
.decal {
stroke: none;
}
</style>
<defs id="Masks" stroke="none">
<mask id="HelmetsMask"> <use href="#Helmets"/> </mask>
<mask id="CollarMask"> <use href="#Collar"/> </mask>
<mask id="ShouldersMask"> <use href="#Shoulders"/> </mask>
<mask id="ChestMask"> <use href="#Chest"/> </mask>
<mask id="BicepsMask"> <use href="#Biceps"/> </mask>
<mask id="GauntletsMask"> <use href="#Gauntlets"/> </mask>
<mask id="WaistMask"> <use href="#Waist"/> </mask>
<mask id="GroinMask"> <use href="#Groin"/> </mask>
<mask id="ThighsMask"> <use href="#Thighs"/> </mask>
<mask id="KneesMask"> <use href="#Knees"/> </mask>
<mask id="ShinsMask"> <use href="#Shins"/> </mask>
<mask id="FootMask"> <use href="#Foot"/> </mask>
</defs>
<defs id="Decals"/><metadata><rdf:rdf xmlns:rdf="http://www.w3.org/1999/02/22-rdf-syntax-ns#" xmlns:rdfs="http://www.w3.org/2000/01/rdf-schema#" xmlns:dc="http://purl.org/dc/elements/1.1/"><rdf:description><dc:creator>MandoCreator</dc:creator><dc:publisher>https://www.mandocreator.com</dc:publisher><dc:description>Your Beskar'gam - created by MandoCreator</dc:description><dc:format>image/svg+xml</dc:format><dc:type>Image</dc:type><dc:title>MandoCreator - Ner Berskar'gam</dc:title><dc:date>2022-01-02T16:37:19.123Z</dc:date></rdf:description></rdf:rdf></metadata><g id="Main-Body" fill="white" stroke="black">
<g id="Extras_Back">
<g id="Back"><path id="Short-Cape-Left_Back" class="option" d="M105.04,24.14c-1.39-3.84-2.58-7.68-2.58-7.68 c0.49-1.06,4.22-1.03,5.27-0.96c2.44,0.15,5.88,1.25,7.37,3.05c0.85,1.02,2.59,1.08,3.17,2.33c0.04,0.1,0.57,1.14,0.52,1.19 c-0.01,0.01,0.3,2.11,0.65,4.57c2.48,1.96,4.71,4.55,6.2,7.57c3.78,7.61,7.54,16.19,10.46,24.36c2.49,6.96,6.7,13.77,9.27,20.63 c2.91,7.76,4.29,13.2,6.81,21.11c2.59,8.16,5.79,15.45,10.62,21.43c1.9,2.35,5.03,4.34,6.27,7.43c0.13,0.32,1.2,3.3,1.17,3.31 c-0.91,0.41-2.34,0.08-3.31,0.09c-3.83,0.05-11.85-4.4-15.42-2.63c-4.6,2.28-4.1,11.31-8.37,14.39 c-4.44,3.2-11.97-4.69-17.06-4.71c-4.69-0.01-3.56,12.34-7.68,14.87c-1.27,0.78-9.64,0.94-9.59,0.71c0.54-2.53,1.43-9.03,0.5-16.2 c-1.16-9.03-1.38-15.16-2.43-24.21c-0.7-6.05-0.14-9.16-1.41-15.08c-1.41-6.58-0.75-14.14-2.53-20.59 c-1.76-6.36-1.15-13.69-2.26-20.31c-1.76-10.49-0.25-29.95,4.24-34.54C104.96,24.21,105,24.17,105.04,24.14z" fill="rgb(13, 59, 102)" style="display: inherit;"/></g>
</g>
<g id="Extras-BackDecals" mask="url(#BackMask)">
</g>
<g id="Suit">
<g id="Neck-Seal"><g id="Standard-Neck-Seal" class="option" fill="rgb(51, 45, 45)" style="display: inherit;">
<path d="M95.96,3.46c0-0.93-0.74-1.69-1.65-1.69c0,0-6.22,0.89-9.33,0.89c-3.11,0-9.33-0.89-9.33-0.89 c-0.91,0-1.65,0.76-1.65,1.69c0,0.93,0.74,1.69,1.65,1.69c0,0,6.22,0.89,9.33,0.89c3.11,0,9.33-0.89,9.33-0.89 C95.22,5.15,95.96,4.39,95.96,3.46z"/>
<path d="M96.51,5.43c0-0.98-0.78-1.77-1.73-1.77c0,0-6.53,0.93-9.8,0.93s-9.8-0.93-9.8-0.93 c-0.96,0-1.73,0.79-1.73,1.77c0,0.98,0.78,1.77,1.73,1.77c0,0,6.53,0.93,9.8,0.93s9.8-0.93,9.8-0.93 C95.74,7.21,96.51,6.41,96.51,5.43z"/>
<path d="M97.14,7.88c0-1.03-0.82-1.87-1.83-1.87c0,0-6.89,0.98-10.33,0.98c-3.44,0-10.33-0.98-10.33-0.98 c-1.01,0-1.83,0.84-1.83,1.87s0.82,1.87,1.83,1.87c0,0,6.89,0.98,10.33,0.98c3.44,0,10.33-0.98,10.33-0.98 C96.32,9.75,97.14,8.91,97.14,7.88z"/>
<path d="M97.75,10.13c0-1.08-0.86-1.96-1.92-1.96c0,0-7.23,1.03-10.85,1.03c-3.62,0-10.85-1.03-10.85-1.03 c-1.06,0-1.92,0.88-1.92,1.96c0,1.08,0.86,1.96,1.92,1.96c0,0,7.23,1.03,10.85,1.03c3.62,0,10.85-1.03,10.85-1.03 C96.89,12.09,97.75,11.21,97.75,10.13z"/>
<path d="M98.36,12.33c0-0.82-0.9-1.48-2.01-1.48c0,0-7.58,0.78-11.36,0.78s-11.36-0.78-11.36-0.78 c-1.11,0-2.01,0.66-2.01,1.48c0,0.82,0.9,1.48,2.01,1.48c0,0,7.58,0.78,11.36,0.78s11.36-0.78,11.36-0.78 C97.46,13.81,98.36,13.14,98.36,12.33z"/>
<path d="M98.36,14.8c0-0.82-0.9-1.48-2.01-1.48c0,0-7.58,0.78-11.36,0.78s-11.36-0.78-11.36-0.78 c-1.11,0-2.01,0.66-2.01,1.48c0,0.82,0.9,1.48,2.01,1.48c0,0,7.58,1.5,11.36,1.5s11.36-1.5,11.36-1.5 C97.46,16.28,98.36,15.62,98.36,14.8z"/>
</g>
</g>
<g id="Flight-Suit" fill="rgb(26, 8, 8)">
<path d="M38.1,60.17l5.2-18.8l12.15-8.13l1.9,16.49c0,0-5.25,9.95-7.06,14.51c-1.86,4.7-5.09,15.42-5.5,16.81 l-2.88,24.91l-8.36-2.66c0,0-0.3-17.29,0.46-24.47C34.68,72.42,38.1,60.17,38.1,60.17z"/>
<path d="M131.9,60.17l-5.22-18.86l-12.06-8.07l-1.92,16.59c0,0,5.2,9.85,7.01,14.41c1.86,4.7,5.09,15.42,5.5,16.81 l2.88,24.91l8.36-2.66c0,0,0.3-17.29-0.46-24.47C135.32,72.42,131.9,60.17,131.9,60.17z"/>
<path d="M84.99,113.44c-1.03,0.1-1.95,0.5-2.29,1.22c-3,6.3-9.17,35.13-10.95,40.44c-0.97,2.89-1.74,18.7-3.38,27.92 c-1.96,11.01-8.39,38.11-8.39,38.11l-11.15-1.15c0,0-1.44-27.22-1.04-37.12c0.3-7.53,3.42-22.31,3.42-22.31s0.67-5.4,0.69-8.12 c0.06-9.82,0.93-31.66,2.88-44.2C56.3,98.31,65.7,77.5,65.7,77.5s12.18,4.76,19.34,4.76c7.16,0,19.44-4.86,19.44-4.86 s8.88,20.92,10.42,30.83c1.95,12.54,3.24,34.38,3.3,44.2c0.02,2.72,0.69,8.12,0.69,8.12s3.12,14.79,3.42,22.31 c0.4,9.91-1.04,37.12-1.04,37.12l-11.15,1.15c0,0-6.43-27.1-8.39-38.11c-1.64-9.22-2.41-25.03-3.38-27.92 c-1.78-5.31-7.96-34.13-10.95-40.44c-0.35-0.73-1.3-1.14-2.34-1.23L84.99,113.44z"/>
</g>
<g id="Sleeves" class="toggle" fill="rgb(101, 38, 38)">
<path d="M41.92,41.42l0.81,0.34l12.73-8.52c0,0,0.36,8.98,1.42,14.37c0.15,0.75,0.37,1.69,0.64,2.79l-1.69,5.45 c0,0-5.75-2.25-8.27-3.72C45.11,50.7,40.7,47,40.7,47L41.92,41.42z"/>
<path d="M112.55,50.4c0.28-1.1,0.5-2.04,0.64-2.79c1.06-5.39,1.42-14.37,1.42-14.37l12.73,8.52l0.81-0.34l1.22,5.58 c0,0-4.4,3.7-6.85,5.13c-2.52,1.48-8.28,3.72-8.28,3.72L112.55,50.4z"/>
</g>
</g>
<g id="Boots"><g id="Gunslinger_Boots" class="option" style="display: inherit;">
<g id="Main_Gunslinger-Boot" fill="rgb(119, 100, 100)">
<path d="M62.27,227.49c-0.04,0.18-0.66,3.1-3.88,3.9c-1.07,0.27-2.91-0.3-4.07-0.89c-1.58-0.8-3.24-1.43-4.94-1.93 l-0.05,0.07c-0.03,0.04-0.05,0.07-0.08,0.11c-0.53,0.74-1.1,1.43-1.72,2.05l-0.05,0.05l-0.03,0.03 c-0.06,0.06-0.12,0.12-0.19,0.18c-0.36,0.35-0.73,0.67-1.12,0.97l-0.11,0.08l-0.09,0.07c-0.03,0.02-0.05,0.04-0.08,0.06 c-0.06,0.04-0.12,0.09-0.18,0.13c-0.8,0.56-1.87,1.42-2.94,1.26c-1-0.15-2.13-0.55-2.97-0.95c-0.71-0.34-1.44-0.79-1.94-1.27 c-0.14-0.11-0.27-0.24-0.36-0.4c-2.33,0.91-4.87,1.25-6.11,3.84c-0.27,0.56-0.5,1.23-0.44,1.86c0.07,0.81,0.96,0.91,1.65,1.09 c1.72,0.46,3.21,0.81,5.2,1.22c2.27,0.47,4.32,0.75,6.62,0.66c1.72-0.07,3.17-0.16,4.67-1.08c0.6-0.37,1.22-0.74,1.74-1.23 c1.17-1.08,1.91-2.21,3.42-2.86c1.09-0.48,2.21-0.87,3.37-1.16c1.64-0.41,3.4-0.69,4.26-2.31 C62.53,229.81,62.45,228.67,62.27,227.49L62.27,227.49"/>
<path d="M107.8,227.49c0.04,0.18,0.66,3.1,3.88,3.9c1.08,0.27,2.91-0.3,4.07-0.89c1.58-0.8,3.25-1.43,4.94-1.93 l0.05,0.07c0.03,0.04,0.05,0.07,0.08,0.11c0.53,0.74,1.1,1.43,1.72,2.05l0.05,0.05l0.03,0.03c0.06,0.06,0.12,0.12,0.19,0.18 c0.36,0.35,0.73,0.67,1.12,0.97l0.11,0.08l0.09,0.07c0.03,0.02,0.05,0.04,0.08,0.06c0.06,0.04,0.12,0.09,0.18,0.13 c0.8,0.56,1.87,1.42,2.94,1.26c1-0.15,2.13-0.55,2.97-0.95c0.71-0.34,1.44-0.79,1.94-1.27c0.14-0.11,0.27-0.24,0.36-0.4 c2.33,0.91,4.87,1.25,6.11,3.84c0.27,0.56,0.5,1.23,0.44,1.86c-0.07,0.81-0.96,0.91-1.65,1.09c-1.72,0.46-3.21,0.81-5.2,1.22 c-2.27,0.47-4.32,0.75-6.62,0.66c-1.72-0.07-3.17-0.16-4.67-1.08c-0.6-0.37-1.22-0.74-1.74-1.23c-1.17-1.08-1.91-2.21-3.42-2.86 c-1.09-0.48-2.21-0.87-3.37-1.16c-1.64-0.41-3.4-0.69-4.26-2.31C107.55,229.81,107.62,228.67,107.8,227.49L107.8,227.49"/>
</g>
<g id="Bottom_Gunslinger-Boot" fill="rgb(147, 129, 114)">
<path d="M62.33,229.7c-0.07,0.44-0.22,0.89-0.46,1.35c-0.86,1.62-2.62,1.9-4.26,2.31c-1.16,0.29-2.28,0.68-3.37,1.16 c-1.51,0.65-2.26,1.78-3.42,2.86c-0.52,0.48-1.14,0.86-1.74,1.23c-1.5,0.92-2.96,1.01-4.67,1.08c-2.3,0.1-4.35-0.18-6.62-0.66 c-1.99-0.41-3.48-0.76-5.2-1.22c-0.55-0.15-1.23-0.24-1.52-0.69l0,0l-0.33,0.73l-0.19,1.49c0,0,1.85,0.99,3.81,1.43 c1.97,0.44,5.93,1.05,5.93,1.05l0.27-0.65l0.89,0.19l-0.04,0.64l2.16,0.12l0.46-0.62l0.72,0.02l-0.11,0.55 c0,0,1.34-0.02,2.08-0.46c0.14-0.21,0.41-0.55,0.41-0.55l0.51-0.28l-0.07,0.52l1.86-0.67l0.09-0.72l0.53-0.31l0.02,0.52 l1.32-1.02l0.14-0.63l3.31-2.32l0.51,1.21l2.32-0.5l0.08-0.5l0.59-0.24l0.41,0.38l1.56-0.64l0.03-0.46l0.5-0.18l0.06,0.34 l1.48-1.01l0.28-2.02l0.06-2.2L62.33,229.7L62.33,229.7"/>
<path d="M107.74,229.7c0.07,0.44,0.22,0.89,0.46,1.35c0.86,1.62,2.62,1.9,4.26,2.31c1.16,0.29,2.28,0.68,3.37,1.16 c1.51,0.65,2.26,1.78,3.42,2.86c0.52,0.48,1.14,0.86,1.74,1.23c1.5,0.92,2.96,1.01,4.67,1.08c2.3,0.1,4.35-0.18,6.62-0.66 c1.99-0.41,3.48-0.76,5.2-1.22c0.55-0.15,1.23-0.24,1.52-0.69l0,0l0.33,0.73l0.19,1.49c0,0-1.85,0.99-3.81,1.43 c-1.97,0.44-5.93,1.05-5.93,1.05l-0.27-0.65l-0.89,0.19l0.04,0.64l-2.16,0.12l-0.46-0.62l-0.72,0.02l0.11,0.55 c0,0-1.34-0.02-2.08-0.46c-0.14-0.21-0.41-0.55-0.41-0.55l-0.51-0.28l0.07,0.52l-1.86-0.67l-0.09-0.72l-0.53-0.31l-0.02,0.52 l-1.32-1.02l-0.14-0.63l-3.31-2.32l-0.51,1.21l-2.32-0.5l-0.08-0.5l-0.59-0.24l-0.41,0.38l-1.56-0.64l-0.03-0.46l-0.5-0.18 l-0.06,0.34l-1.48-1.01l-0.28-2.02l-0.06-2.2L107.74,229.7L107.74,229.7"/>
</g>
<g id="Top_Gunslinger-Boot" fill="rgb(166, 28, 28)">
<path d="M49.4,228.54c1.98-2.82,3.31-6.29,3.78-9.35l0,0l-0.55-0.05l-0.02,0l-0.07-0.01l-0.18-0.02l-0.28-0.03 l-0.12-0.02c-0.32-0.04-0.64-0.08-0.95-0.13l-0.49-0.09l-0.1-0.02l-0.03-0.01l-0.08-0.02l-0.34-0.08l-0.3-0.08l-0.05-0.01 c-1.05-0.26-0.91-0.48-0.91-0.48c-0.29,1.35-0.92,2.78-1.49,4.04c-0.89,1.98-2.73,3.69-4.25,5.2c-1.05,1.04-2.57,2.02-3.82,2.82 c-0.53,0.34-1.1,0.6-1.68,0.82c0.44,0.61,1.4,1.24,2.3,1.67c0.84,0.4,1.97,0.8,2.97,0.95c1.07,0.15,2.14-0.7,2.94-1.26 c1.39-0.98,2.63-2.3,3.69-3.8L49.4,228.54"/>
<path d="M120.67,228.54c-1.97-2.82-3.31-6.29-3.78-9.35l0,0l0.55-0.05l0.02,0l0.07-0.01l0.18-0.02l0.28-0.03 l0.11-0.02c0.32-0.04,0.64-0.08,0.95-0.13l0.49-0.09l0.1-0.02l0.04-0.01l0.08-0.02l0.34-0.08l0.3-0.08l0.05-0.01 c1.05-0.26,0.91-0.48,0.91-0.48c0.29,1.35,0.92,2.78,1.49,4.04c0.89,1.98,2.73,3.69,4.25,5.2c1.05,1.04,2.57,2.02,3.82,2.82 c0.53,0.34,1.1,0.6,1.68,0.82c-0.44,0.61-1.4,1.24-2.3,1.67c-0.84,0.4-1.97,0.8-2.97,0.95c-1.07,0.15-2.14-0.7-2.94-1.26 c-1.39-0.98-2.63-2.3-3.68-3.8L120.67,228.54"/>
</g>
<g id="Side_Gunslinger-Boot" fill="rgb(96, 82, 82)">
<path d="M49.38,228.58c1.7,0.49,3.36,1.12,4.94,1.93c1.16,0.59,3,1.15,4.07,0.89c3.33-0.83,3.88-3.91,3.88-3.91 c-0.1-0.67-0.84-3.25-1.06-3.94c-0.48-1.54-0.43-5.45-0.55-5.39c-2.67,1.41-6.12,1.16-7.48,1.05l0,0 C52.71,222.26,51.37,225.74,49.38,228.58"/>
<path d="M120.69,228.58c-1.7,0.49-3.36,1.12-4.94,1.93c-1.16,0.59-2.99,1.15-4.07,0.89 c-3.32-0.83-3.88-3.91-3.88-3.91c0.1-0.67,0.84-3.25,1.06-3.94c0.48-1.54,0.43-5.45,0.55-5.39c2.67,1.41,6.12,1.16,7.48,1.05l0,0 C117.36,222.26,118.71,225.74,120.69,228.58"/>
</g>
</g></g>
<g id="Gloves">
<g id="Left-Glove">
<g id="Fingerless_Left_Glove" class="option" style="display: inherit;">
<g id="Fingers_Fingerless_Left_Glove" fill="rgb(219, 150, 90)">
<path d="M133.16,120.46c-0.46-0.03-0.9-0.01-1.36,0.09c-0.31,0.07-0.62,0.16-0.9,0.34 c-0.85,0.55-0.62,1.76,0.14,2.21c0.89,0.53,2.29,0.01,2.69-1.02C133.9,121.66,133.39,120.86,133.16,120.46"/>
<path d="M131.6,121.51c-0.46-0.02-0.9-0.02-1.36,0.09c-0.31,0.07-0.62,0.16-0.9,0.34 c-0.85,0.55-0.62,1.76,0.14,2.21c0.89,0.53,2.29,0.01,2.69-1.02C132.34,122.71,131.83,121.91,131.6,121.51"/>
<path d="M130.51,122.89c-0.46,0.05-1.04,0.16-1.48,0.34c-0.3,0.12-0.59,0.25-0.85,0.47 c-0.78,0.68-0.4,1.83,0.4,2.17c0.94,0.39,2.27-0.34,2.55-1.42C131.24,124.01,130.51,122.89,130.51,122.89z"/>
<path d="M125.73,116.29c-0.26,1.3-0.47,2.01-0.47,2.01s-1.18,2.71-0.98,3.34c0.21,0.62,1.25,1.18,1.84,0.85 c0.74-0.41,1.66-2.32,2.24-3.67c0.21-0.5,0.41-1.07,0.58-1.59C126.58,117.61,125.73,116.29,125.73,116.29L125.73,116.29z"/>
<path d="M130.61,122.69c-0.17,0.33-0.37,0.68-0.59,1.05c-1.17,1.99-2.97,3.7-1.78,5.22 c1.11,1.42,3.63-2.31,3.63-2.31l1.17-1.72C131.1,124.42,130.62,122.7,130.61,122.69z"/>
</g>
<path id="Glove_Fingerless_Left_Glove" d="M133.04,124.93l1.3-1.91c0,0,2.84-5.26,2.98-6.28 c0.11-0.78,0.01-3.38,0.01-3.38l-0.89-10.08l-4.5,0.42l-3.7,1.36l-0.28,1.72c0,0-1.34,2.09-1.69,3.59 c-0.25,1.06-0.11,3.58-0.43,5.28c-0.04,0.22-0.08,0.43-0.12,0.63l0,0c0,0,0.85,1.33,3.22,0.93c0.3-0.93,0.5-1.73,0.5-1.73 s0.81,0.32,1.23,0.68c1.38,1.2,0.78,4.82,0.78,4.82s-0.32,0.72-0.84,1.7C130.62,122.7,131.1,124.42,133.04,124.93z" fill="rgb(163, 163, 163)"/>
</g></g>
<g id="Right-Glove">
<g id="Fingerless_Right_Glove" class="option" style="display: inherit;">
<g id="Fingers_Fingerless_Right_Glove" fill="rgb(219, 150, 90)">
<path d="M36.86,120.46c0.46-0.03,0.9-0.01,1.36,0.09c0.31,0.07,0.62,0.16,0.9,0.34c0.85,0.55,0.62,1.76-0.14,2.21 c-0.89,0.53-2.29,0.01-2.69-1.02C36.12,121.66,36.64,120.86,36.86,120.46"/>
<path d="M38.42,121.51c0.46-0.02,0.9-0.02,1.36,0.09c0.31,0.07,0.62,0.16,0.9,0.34c0.85,0.55,0.62,1.76-0.14,2.21 c-0.89,0.53-2.29,0.01-2.69-1.02C37.68,122.71,38.2,121.91,38.42,121.51"/>
<path d="M39.52,122.89c0.46,0.05,1.04,0.16,1.48,0.34c0.3,0.12,0.6,0.25,0.85,0.47c0.78,0.68,0.4,1.83-0.4,2.17 c-0.94,0.39-2.27-0.34-2.55-1.42C38.78,124.01,39.52,122.89,39.52,122.89z"/>
<path d="M44.29,116.29c0.26,1.3,0.47,2.01,0.47,2.01s1.18,2.71,0.98,3.34c-0.21,0.62-1.24,1.18-1.84,0.85 c-0.74-0.41-1.66-2.32-2.24-3.67c-0.21-0.5-0.41-1.07-0.58-1.59C43.45,117.61,44.29,116.29,44.29,116.29L44.29,116.29z"/>
<path d="M39.41,122.69c0.17,0.33,0.37,0.68,0.59,1.05c1.17,1.99,2.97,3.7,1.78,5.22c-1.11,1.42-3.63-2.31-3.63-2.31 l-1.17-1.72C38.92,124.42,39.41,122.7,39.41,122.69z"/>
</g>
<path id="Glove_Fingerless_Right_Glove" d="M36.98,124.93l-1.3-1.91c0,0-2.84-5.26-2.98-6.28 c-0.11-0.78-0.01-3.38-0.01-3.38l0.89-10.08l4.5,0.42l3.7,1.36l0.28,1.72c0,0,1.34,2.09,1.69,3.59c0.25,1.06,0.11,3.58,0.43,5.28 c0.04,0.22,0.08,0.43,0.12,0.63l0,0c0,0-0.85,1.33-3.22,0.93c-0.3-0.93-0.5-1.73-0.5-1.73s-0.81,0.32-1.23,0.68 c-1.38,1.2-0.78,4.82-0.78,4.82s0.32,0.72,0.84,1.7C39.41,122.7,38.92,124.42,36.98,124.93z" fill="rgb(163, 163, 163)"/>
</g></g>
</g>
<g id="Biceps">
<g id="Left-Biceps"><g id="Basic_Biceps_Left" class="option" style="display: inherit;">
<path id="Main_Basic_Biceps_Left" d="M133.33,53.8c-1.18-2.85-6.45-15.35-6.45-15.35s-8.66,3.56-10.82,4.44 c-0.61,0.25-0.9,0.95-0.65,1.56c1.02,2.45,3.51,8.45,5.06,12.19c0.35,0.85,1.03,1.52,1.88,1.87c0.85,0.35,1.81,0.35,2.65,0 c2.54-1.04,5.95-2.44,7.68-3.15C133.29,55.1,133.58,54.41,133.33,53.8z" fill="rgb(130, 17, 17)"/>
<path id="Strap_Basic_Biceps_Left" d="M117.73,49.98l-4.71,1.93l1.11,3.94l5.16-2.12L117.73,49.98" fill="rgb(139, 87, 42)"/>
<path id="Trauma-Plate_Basic_Biceps_Left" class="toggle" style="" d="M133.29,53.21l-5.5-13.24l-10.55,4.33l4.84,11.67 c0.17,0.42,0.5,0.75,0.92,0.92c0.42,0.17,0.89,0.17,1.31,0L133.29,53.21" fill="rgb(58, 58, 58)"/>
</g>
</g>
<g id="Right-Biceps"><g id="Basic_Biceps_Right" class="option" style="display: inherit;">
<path id="Main_Basic_Biceps_Right" d="M36.74,53.8c1.18-2.85,6.46-15.35,6.46-15.35s8.66,3.56,10.82,4.44 c0.61,0.25,0.9,0.95,0.65,1.56c-1.02,2.45-3.51,8.45-5.06,12.19c-0.35,0.85-1.03,1.52-1.88,1.87c-0.85,0.35-1.8,0.35-2.65,0 c-2.54-1.04-5.95-2.44-7.68-3.15C36.78,55.1,36.49,54.41,36.74,53.8z" fill="rgb(136, 23, 23)"/>
<path id="Strap_Basic_Biceps_Right" d="M52.35,49.98l4.71,1.93l-1.11,3.94l-5.16-2.12L52.35,49.98" fill="rgb(139, 87, 42)"/>
<path id="Trauma-Plate_Basic_Biceps_Right" class="toggle" style="" d="M36.78,53.21l5.49-13.24l10.55,4.33l-4.84,11.67 c-0.17,0.42-0.5,0.75-0.92,0.92c-0.42,0.17-0.89,0.17-1.31,0L36.78,53.21" fill="rgb(58, 58, 58)"/>
</g>
</g>
</g>
<g id="BicepsDecals" mask="url(#BicepsMask)">
</g>
<path id="Vest" d="M91.61,82.96c-4.3,0.88-8.84,0.88-13.14,0c-4.33-0.88-12.83-5.29-12.83-5.29s-7.42-23.26-8.75-30.06 c-1.06-5.39-1.42-14.37-1.42-14.37l-12.73,8.52l-2.71-1.15c0,0,7.62-16.73,12.62-21.57c4.53-4.39,17.42-7.5,17.42-7.5 s5.68,6.2,14.97,6.25c8.84,0.04,14.97-6.25,14.97-6.25s12.89,3.12,17.42,7.5c5.01,4.85,12.62,21.57,12.62,21.57l-2.71,1.15 l-12.73-8.52c0,0-0.36,8.98-1.42,14.37c-1.33,6.79-8.76,30.06-8.76,30.06S95.93,82.08,91.61,82.96z" fill="rgb(36, 37, 48)"/>
<g id="SuitDecals" mask="url(#SuitMask)">
</g>
<g class="swappable" id="Chest"><g id="Chest_Heavy">
<g id="Abdomen_Heavy">
<g id="Under-Plates_Abdomen_Heavy" fill="rgb(121, 21, 21)">
<rect x="74.96" y="63.98" width="20.11" height="2.55"/>
<rect x="74.96" y="66.53" width="20.11" height="2.55"/>
<rect x="74.96" y="69.09" width="20.11" height="2.55"/>
<rect x="74.96" y="71.64" width="20.11" height="2.55"/>
<rect x="74.96" y="74.19" width="20.11" height="2.55"/>
</g>
<g id="Abdomen-Plate_Heavy" fill="rgb(58, 58, 58)">
<path d="M78.84,55.74l-10.02,4.23l-0.94-2.27l10.96-4.63V55.74z"/>
<path d="M72.34,68.46l-3.51-8.48l10.02-4.23l3.14,8.92L72.34,68.46z"/>
<path d="M67.88,57.7l-4.22,0.73l6.21,14.69l4.24-0.83L67.88,57.7z"/>
<path d="M91.19,55.74l10.02,4.23l0.94-2.27l-10.96-4.63V55.74z"/>
<path d="M97.7,68.46l3.51-8.48l-10.02-4.23l-3.14,8.92L97.7,68.46z"/>
<path d="M102.15,57.7l4.22,0.73l-6.21,14.69l-4.24-0.83L102.15,57.7z"/>
<rect x="78.88" y="53.08" width="12.28" height="2.67"/>
<path d="M81.98,64.66l-3.14-8.92h12.35l-3.14,8.92H81.98z"/>
</g>
</g>
<g id="Neck-Armor_Heavy">
<g id="Neck-Plate_Heavy" fill="rgb(46, 41, 41)">
<path d="M71.21,11.33l-8.68,1.89c0,0,0.4,1.54,0.83,3.22c0.62,2.4,3.02,3.88,5.45,3.35c0,0,0,0,0,0 c1.14-0.25,2.12-0.95,2.73-1.94c0.61-0.99,0.79-2.19,0.5-3.31C71.6,12.86,71.21,11.33,71.21,11.33z"/>
<path d="M98.83,11.33l8.68,1.89c0,0-0.4,1.54-0.83,3.22c-0.62,2.4-3.03,3.88-5.45,3.35c0,0,0,0,0,0 c-1.14-0.25-2.12-0.95-2.73-1.94c-0.61-0.99-0.79-2.19-0.5-3.31C98.43,12.86,98.83,11.33,98.83,11.33z"/>
</g>
<g id="Secondary_Neck-Plate_Heavy" fill="rgb(148, 15, 15)">
<path d="M69.05,11.48l-4.37,0.95c0,0,0.32,1.23,0.62,2.41c0.31,1.21,1.52,1.95,2.74,1.69h0 c0.57-0.12,1.07-0.48,1.38-0.98c0.31-0.5,0.4-1.1,0.25-1.67C69.36,12.71,69.05,11.48,69.05,11.48z"/>
<path d="M100.99,11.48l4.37,0.95c0,0-0.32,1.23-0.62,2.41c-0.31,1.21-1.52,1.95-2.74,1.69h0 c-0.57-0.12-1.07-0.48-1.38-0.98c-0.31-0.5-0.4-1.1-0.25-1.67C100.67,12.71,100.99,11.48,100.99,11.48z"/>
</g>
</g>
<g id="Full-Chest_Heavy">
<path id="Under-Plate_Chest_Heavy" d="M89.97,50.06h-9.92l-2.49,2.13v1.42l1.31-0.54h12.28l1.31,0.55v-1.44 L89.97,50.06z" fill="rgb(128, 6, 6)"/>
<g id="Chest-Plate_Heavy" fill="rgb(58, 58, 58)">
<path d="M67.67,56.46l8.79-5.08l1.19-2.41l2.34,0.31h10.02l2.35-0.31l1.19,2.41l8.79,5.08l4.09,0.89l-0.1,1.49 l-4.37-0.76l-9.51-3.94v-1.96l-2.49-2.13h-9.92l-2.49,2.13v1.96l-9.5,3.94l-4.37,0.76l-0.1-1.49L67.67,56.46z"/>
<path d="M106.44,57.35l5.09-13l0.75,2.66l-1.61,9.67L106.44,57.35z"/>
<path d="M57.75,47.02l0.75-2.66l5.09,13l-4.23-0.67L57.75,47.02z"/>
<path d="M63.45,39.29v-5.43l-0.42-9.74l2.54-2.79l7.68-1.59l1.99,2.32H94.8l1.99-2.32l7.68,1.59l2.54,2.79 l-0.41,9.5l-0.01-0.02v5.69l-14.21,9.69l-2.35,0.31H80.01l-2.34-0.31L63.45,39.29z"/>
<path d="M106.58,33.87v5.43l4.95,5.06L106.58,33.87z"/>
<path d="M77.66,48.98l-14.21-9.69l-4.95,5.06l5.09,13l4.09-0.89l8.79-5.08L77.66,48.98z"/>
<path d="M111.54,44.36l-5.09,13l-4.09-0.89l-8.79-5.08l-1.19-2.41l14.21-9.69L111.54,44.36z"/>
<path d="M110.67,56.69l-0.17,1.04l-4.16,1.12l0.1-1.49L110.67,56.69z"/>
<path d="M63.45,33.87v5.43l-4.95,5.06L63.45,33.87z"/>
<path d="M63.03,24.13c-0.05,4.99-0.64,9.99-2.06,14.98l2.48-5.25L63.03,24.13z"/>
<path d="M107.01,24.13c0.05,4.99,0.64,9.99,2.06,14.98l-2.48-5.25L107.01,24.13z"/>
<path d="M63.59,57.35l0.1,1.49l-4.16-1.12l-0.17-1.04L63.59,57.35z"/>
</g>
<g id="Accents_Chest-Plate_Heavy" class="toggle">
<g id="Accent-3_Accents_Chest-Plate_Heavy" fill="rgb(69, 50, 50)">
<path d="M96.64,33.73l-0.52-1.62h2.37l-0.52,1.62H96.64z"/>
<path d="M96.64,36.86l-0.52-1.62h2.37l-0.52,1.62H96.64z"/>
<rect x="95.11" y="24.12" width="4.45" height="0.49"/>
<rect x="95.11" y="25.67" width="4.45" height="0.49"/>
</g>
<path id="Accent-2_Accents_Chest-Plate_Heavy" d="M71.9,21.57c-0.11-1.4-1.32-2.46-2.72-2.37c0,0,0,0,0,0 c-0.67,0.04-1.29,0.35-1.73,0.86s-0.66,1.17-0.61,1.84c0.06,0.77,0.12,1.63,0.18,2.4c0.11,1.4,1.32,2.46,2.72,2.37c0,0,0,0,0,0 c0.67-0.04,1.29-0.35,1.73-0.86c0.44-0.51,0.66-1.17,0.61-1.84C72.03,23.2,71.96,22.35,71.9,21.57z" fill="rgb(113, 103, 103)"/>
<g id="Accent-1_Accents_Chest-Plate_Heavy" fill="rgb(0, 133, 255)">
<path d="M71.17,19.59l-3.91,0.25l0.49,6.44l3.91-0.25L71.17,19.59z"/>
<path d="M70.74,20.09l-2.98,0.19l0.07,0.92l2.98-0.19L70.74,20.09z"/>
<path d="M68.24,21.18l-0.41,0.03l0.38,5.05l0.41-0.03L68.24,21.18z"/>
<path d="M68.67,21.15l-0.41,0.03l0.38,5.05l0.41-0.03L68.67,21.15z"/>
<path d="M70.81,21.01l-0.41,0.03l0.38,5.05l0.41-0.03L70.81,21.01z"/>
<path d="M70.38,21.04l-0.41,0.03l0.38,5.05l0.41-0.03L70.38,21.04z"/>
<path d="M69.53,21.1l-0.41,0.03l0.38,5.05l0.41-0.03L69.53,21.1z"/>
<path d="M69.95,21.07l-0.41,0.03l0.38,5.05l0.41-0.03L69.95,21.07z"/>
<path d="M69.1,21.12l-0.41,0.03l0.38,5.05l0.41-0.03L69.1,21.12z"/>
</g>
</g>
</g>
<g id="Iron-Heart_Heavy">
<path id="Heart_Heavy" d="M85.02,29.22l2.92,2.69v5.28l-2.92,2.69L82.1,37.2v-5.28L85.02,29.22z" fill="rgb(138, 118, 14)"/><g id="Center_Heart_Heavy" class="option" fill="rgb(0, 133, 255)" style="display: inherit;">
<rect x="83.95" y="31.99" width="2.13" height="2.56"/>
<rect x="83.95" y="34.55" width="0.36" height="2.56"/>
<rect x="85.37" y="34.55" width="0.36" height="2.56"/>
<rect x="85.72" y="34.55" width="0.36" height="2.56"/>
<rect x="84.66" y="34.55" width="0.36" height="2.56"/>
<rect x="85.01" y="34.55" width="0.36" height="2.56"/>
<rect x="84.3" y="34.55" width="0.36" height="2.56"/>
</g>
</g>
</g></g>
<g id="ChestDecals" mask="url(#ChestMask)">
</g>
<g id="Chest-Attachments"><g id="Bandoleer_Accessories_Chest" class="option" style="display: inherit;">
<g id="Strap_Bandoleer_Accessories_Chest" fill="rgb(139, 87, 42)">
<path d="M113.84,15.17L107,11.85L69.01,80.32l6.86,3.76L113.84,15.17"/>
<path d="M111.97,13.92l-2.6-1.21l-8.66,15.61l2.51,1.37L111.97,13.92"/>
<path d="M99.7,36.44l-2.86-1.57l-13.31,24l2.87,1.57L99.7,36.44"/>
<path d="M99.98,37.35l-4.07-2.23l-1.33,2.4l4.07,2.23L99.98,37.35"/>
<path d="M98.36,40.26l-4.07-2.23l-1.33,2.41l4.07,2.23L98.36,40.26"/>
<path d="M96.75,43.17l-4.07-2.23l-1.33,2.4l4.07,2.23L96.75,43.17"/>
<path d="M95.13,46.09l-4.07-2.23l-1.33,2.4l4.07,2.23L95.13,46.09"/>
<path d="M93.52,49l-4.07-2.23l-1.33,2.4l4.07,2.23L93.52,49"/>
<path d="M90.28,54.82l-4.07-2.23L84.88,55l4.07,2.23L90.28,54.82"/>
<path d="M91.9,51.91l-4.07-2.23l-1.33,2.4l4.07,2.23L91.9,51.91"/>
<path d="M88.67,57.74l-4.07-2.23l-1.33,2.4l4.07,2.23L88.67,57.74"/>
</g>
<g id="Ammo_Bandoleer_Accessories_Chest" fill="rgb(138, 105, 105)">
<g>
<g>
<path d="M99.83,37.6l1.67,0.91c0.18,0.1,0.24,0.32,0.14,0.5c-0.19,0.34-0.49,0.89-0.68,1.23 c-0.1,0.18-0.32,0.24-0.5,0.14l-1.67-0.91L99.83,37.6z"/>
<path d="M101.06,38.27l-0.14-0.08l-1.04,1.87l0.14,0.08L101.06,38.27z"/>
<path d="M100.77,38.11l-0.14-0.08l-1.04,1.87l0.14,0.08L100.77,38.11z"/>
</g>
<g>
<path d="M95.77,35.37l-1.04,1.87l-1.67-0.91c-0.18-0.1-0.24-0.32-0.14-0.5c0.19-0.34,0.49-0.89,0.68-1.23 c0.1-0.18,0.32-0.24,0.5-0.14L95.77,35.37z"/>
<path d="M94.51,34.68l-0.14-0.08l-1.04,1.87l0.14,0.08L94.51,34.68z"/>
</g>
</g>
<g>
<g>
<path d="M96.6,43.45l1.67,0.91c0.18,0.1,0.24,0.32,0.14,0.5c-0.19,0.34-0.49,0.89-0.68,1.23 c-0.1,0.18-0.32,0.24-0.5,0.14l-1.67-0.91L96.6,43.45z"/>
<path d="M97.82,44.12l-0.14-0.08l-1.04,1.87l0.14,0.08L97.82,44.12z"/>
<path d="M97.53,43.96l-0.14-0.08l-1.04,1.87l0.14,0.08L97.53,43.96z"/>
</g>
<g>
<path d="M92.53,41.22l-1.04,1.87l-1.67-0.91c-0.18-0.1-0.24-0.32-0.14-0.5c0.19-0.34,0.49-0.89,0.68-1.23 c0.1-0.18,0.32-0.24,0.5-0.14L92.53,41.22z"/>
<path d="M91.27,40.53l-0.14-0.08l-1.04,1.87l0.14,0.08L91.27,40.53z"/>
</g>
</g>
<g>
<g>
<path d="M94.99,46.34l1.67,0.91c0.18,0.1,0.24,0.32,0.14,0.5c-0.19,0.34-0.49,0.89-0.68,1.23 c-0.1,0.18-0.32,0.24-0.5,0.14l-1.67-0.91L94.99,46.34z"/>
<path d="M96.21,47.02l-0.14-0.08l-1.04,1.87l0.14,0.08L96.21,47.02z"/>
<path d="M95.92,46.86l-0.14-0.08l-1.04,1.87l0.14,0.08L95.92,46.86z"/>
</g>
<g>
<path d="M90.92,44.11l-1.04,1.87l-1.67-0.91c-0.18-0.1-0.24-0.32-0.14-0.5c0.19-0.34,0.49-0.89,0.68-1.23 c0.1-0.18,0.32-0.24,0.5-0.14L90.92,44.11z"/>
<path d="M89.66,43.42l-0.14-0.08l-1.04,1.87l0.14,0.08L89.66,43.42z"/>
</g>
</g>
<g>
<g>
<path d="M93.36,49.27l1.67,0.91c0.18,0.1,0.24,0.32,0.14,0.5c-0.19,0.34-0.49,0.89-0.68,1.23 c-0.1,0.18-0.32,0.24-0.5,0.14l-1.67-0.91L93.36,49.27z"/>
<path d="M94.59,49.95l-0.14-0.08l-1.04,1.87l0.14,0.08L94.59,49.95z"/>
<path d="M94.3,49.79l-0.14-0.08l-1.04,1.87l0.14,0.08L94.3,49.79z"/>
</g>
<g>
<path d="M89.3,47.04l-1.04,1.87L86.59,48c-0.18-0.1-0.24-0.32-0.15-0.5c0.19-0.34,0.49-0.89,0.68-1.23 c0.1-0.18,0.32-0.24,0.5-0.14L89.3,47.04z"/>
<path d="M88.04,46.35l-0.14-0.08l-1.04,1.87L87,48.22L88.04,46.35z"/>
</g>
</g>
</g>
<g id="Buckles_Bandoleer_Accessories_Chest" fill="rgb(163, 163, 163)">
<g>
<path d="M104.43,28.05l-2.99-1.64l-1.69,3.05l2.99,1.64L104.43,28.05z"/>
<path d="M103.67,28.57l-2.26-1.24l-1.69,3.05l2.26,1.24L103.67,28.57z"/>
</g>
<path d="M104.44,24.49l-1.93-1.05l1.67-3.03l3.9,2.13l-1.67,3.03L104.44,24.49l0.38-0.68l1.1,0.6l0.92-1.67 l-2.15-1.17l-0.92,1.67l1.05,0.58"/>
</g>
</g></g>
<g id="Collar"><g id="Cloth-Wrap-Right_Collar" class="option" style="display: inherit;">
<g id="Main_Cloth-Wrap-Right_Collar" fill="rgb(13, 59, 102)">
<path d="M95.41,21.42c4.65-1.45,5.5-3.78,5.78-6.13c0.11-0.96-1.26-3.46,0.16-4.1c1.61-0.73,5.4,0.41,6.97,0.75 c1.16,0.25,2.19,1.42,3.38,1.43c2.74,0.03,4.91,3,5.16,4.36c0.35,1.9-3.04,0.56-4.62,2c-3.96,3.61-5.34,8.5-13.67,9.83 c-3.82,0.61-7.61-0.25-11.16-1.04c-9.17-2.03-14.17-3.78-20.06-8.31c-2.58-1.98-6.47-3.59-6.37-6.24c0-0.11,1.88-1.22,2.06-1.27 c1.65-0.41,3.06-1.09,4.88-1.12c1.09-0.02,0.91,0.91,0.99,1.34c0.31,1.62,1.79,2.84,3.66,4.05 C77.47,20.18,88.67,21.17,95.41,21.42z"/>
<path d="M95.41,21.42c1.23,0.05,2.31,0.24,3.25,0.29c4.26,0.26,5.78-0.77,6.6-2.66"/>
<path d="M108.64,11.99c1.23,1.99,1.07,4.34,0.09,5.89"/>
<path d="M72.93,17.68c3.19,4.34,7.92,5.71,13.09,6.23"/>
<path d="M64.3,12.34c0.19,1.1,0.85,1.51,1.66,2.24c0.47,0.43,1.04,0.73,1.41,1.25c0.14,0.19,0.21,0.41,0.29,0.62"/>
</g>
<path id="Buckle_Cloth-Wrap-Right_Collar" d="M74.02,16.86l-2.71-1.93l-4.71,6.53l2.71,1.93L74.02,16.86z" fill="rgb(163, 163, 163)"/>
</g></g>
<g id="CollarDecals" mask="url(#CollarMask)">
</g>
<g id="Helmets" class="swappable" transform="translate(45,-52)"><g id="Helmet_Warden">
<g id="Left-Earcap_Warden" class="toggle" fill="rgb(100, 11, 11)">
<path d="M59.24,32.22l0.4,0.4l-0.03,8.21h-1.82v-1.42h1.45V32.22"/>
<path d="M57.8,43.42h1.06v16.62H57.8V43.42"/>
<path d="M58.86,43.42h0.77v1.25h-0.77V43.42"/>
<path d="M57.02,32.22h2.22v7.21h-2.22V32.22"/>
<path d="M58.17,34.22h1.24v1.29h-1.24V34.22"/>
<path d="M58.35,39.75h0.9v0.72h-0.9V39.75"/>
<path d="M58.35,39.75h0.9V40h-0.9V39.75"/>
<path d="M59.64,34.68l0.44,0.44v6.4h-0.44V34.68"/>
<path d="M57.79,40.82h1.83v2.6h-1.83V40.82"/>
</g>
<g id="Right-Earcap_Warden" class="toggle" fill="rgb(138, 5, 5)">
<path d="M20.76,32.22l-0.4,0.4l0.03,8.21h1.82v-1.42h-1.45V32.22"/>
<path d="M22.2,43.42h-1.06v16.62h1.06V43.42"/>
<path d="M21.14,43.42h-0.77v1.25h0.77V43.42"/>
<path d="M22.98,32.22h-2.22v7.21h2.22V32.22"/>
<path d="M21.83,34.22h-1.24v1.29h1.24V34.22"/>
<path d="M21.65,39.75h-0.9v0.72h0.9V39.75"/>
<path d="M21.65,39.75h-0.9V40h0.9V39.75"/>
<path d="M20.36,34.68l-0.44,0.44v6.4h0.44V34.68"/>
<path d="M22.21,40.82h-1.83v2.6h1.83V40.82"/>
</g>
<g id="Helmet_Pieces_Warden">
<g id="Face_Warden" fill="rgb(53, 48, 48)">
<path d="M25.55,48.78l7.74,6.66l1.81,10.99l-10.56-4.81L25.55,48.78z"/>
<path d="M54.47,48.78l-7.74,6.66l-1.82,10.99l10.56-4.81L54.47,48.78z"/>
</g>
<g id="Cheeks_Warden" fill="rgb(159, 21, 21)">
<path d="M22.93,41.6c0,0,1.02,2.84,4.11,4.94s5.22,2.66,5.22,2.66l1.03,6.24l-7.74-6.66L22.93,41.6z"/>
<path d="M22.93,41.6l2.62,7.18l-1,12.84l-1.62-0.63L22.93,41.6z"/>
<path d="M57.09,41.6c0,0-1.02,2.84-4.11,4.94c-3.09,2.09-5.22,2.66-5.22,2.66l-1.03,6.24l7.74-6.66L57.09,41.6z"/>
<path d="M57.09,41.6l-2.62,7.18l1,12.84l1.62-0.63L57.09,41.6z"/>
</g>
<path fill="rgb(0, 133, 255)" id="Visor_Warden" d="M23.47,37.22h33.08v1.24l-13.16,2.85l-1.38,22.72l1.72,2.58c-1.28,0.72-6.16,0.72-7.44,0 l1.72-2.58l-1.38-22.72l-13.16-2.85V37.22z"/>
<path id="Eyes-2_Warden" d="M23.47,37.22v1.24l13.16,2.85l1.38,22.72l-1.9,2.85l-0.95-0.14l-2.9-17.54 c0,0-2.14-0.57-5.22-2.66s-4.11-4.94-4.11-4.94v19.39l-0.73-0.76v-25.5h35.62v25.5l-0.73,0.76V41.6c0,0-1.02,2.84-4.11,4.94 c-3.09,2.09-5.22,2.66-5.22,2.66l-2.9,17.54l-0.95,0.14l-1.9-2.85l1.38-22.72l13.16-2.85v-1.24H23.47z" fill="rgb(58, 58, 58)"/>
<path id="Eyes-1_Warden" d="M57.31,36.26v3.15l-12.95,2.85l-1.33,21.55l1.88,2.62l-0.05,0.31l-0.95,0.14l-1.9-2.85 l1.38-22.72l13.16-2.85v-1.24H23.47v1.24l13.16,2.85l1.38,22.72l-1.9,2.85l-0.95-0.14l-0.05-0.31l1.88-2.62l-1.33-21.55 l-12.95-2.85v-3.15H57.31z" fill="rgb(158, 33, 33)"/>
<path id="Dome-2_Warden" d="M22.2,34.72c0-9.84,7.98-17.83,17.81-17.83s17.81,7.99,17.81,17.83H22.2z" fill="rgb(157, 5, 5)"/>
<path id="Dome-1_Warden" d="M22.19,34.72c0-8.47,7.98-15.36,17.81-15.36s17.81,6.88,17.81,15.36H22.19z" fill="rgb(60, 60, 60)"/>
<path id="Triangle-2_Warden" d="M41.76,29.71c-0.4,0.57-1.06,0.9-1.75,0.9c-0.7,0-1.35-0.34-1.75-0.9c0,0,0,0,0,0 c-0.42-0.59-0.48-1.37-0.15-2.01c0.33-0.64,0.99-1.05,1.72-1.05c0.12,0,0.24,0,0.36,0c0.72,0,1.39,0.4,1.72,1.05 C42.24,28.34,42.19,29.12,41.76,29.71C41.77,29.71,41.76,29.71,41.76,29.71z" fill="rgb(142, 6, 6)"/>
<path id="Triangle-1_Warden" d="M41.27,29.68c-0.29,0.41-0.76,0.66-1.26,0.66c-0.5,0-0.97-0.25-1.26-0.66 c-0.03-0.04-0.06-0.08-0.09-0.12c-0.33-0.47-0.37-1.09-0.1-1.59c0.26-0.51,0.79-0.83,1.36-0.83c0.06,0,0.11,0,0.17,0 c0.57,0,1.1,0.32,1.37,0.83c0.26,0.51,0.22,1.12-0.11,1.59C41.33,29.6,41.3,29.64,41.27,29.68z" fill="rgb(0, 133, 255)"/>
</g>
</g></g>
<g id="HelmetsDecals" mask="url(#HelmetsMask)"/>
<g id="Shoulders">
<g id="Left-Shoulder"><g id="Legacy-x3_Shoulder_Left" class="option" style="display: inherit;">
<path id="Plate-3_Shoulder_Left_Legacy-x3" d="M117.06,20.06l-7.61,7.75l4.46,9.61l10.03-0.53l5.31,4.84l4.73-0.33 L117.06,20.06z" fill="rgb(116, 24, 24)"/>
<path id="Trauma-Plate-3_Shoulder_Legacy-x3_Left" class="toggle" style="" d="M129.88,39.93l3.05-0.21l-14.58-18.47l-6.8,6.92 l3.45,7.43l9.24-0.57L129.88,39.93z" fill="rgb(58, 58, 58)"/>
<path id="Plate-2_Shoulder_Left_Legacy-x3" d="M112.95,15.27l-6.03,9.03l6.18,8.61l9.75-2.38l6.12,3.77l4.58-1.2 L112.95,15.27z" fill="rgb(109, 24, 24)"/>
<path id="Trauma-Plate-2_Shoulder_Legacy-x3_Left" class="toggle" style="" d="M129.25,32.41l2.96-0.77l-17.76-15.47l-5.39,8.05 l4.77,6.67l8.97-2.26L129.25,32.41z" fill="rgb(58, 58, 58)"/>
<path id="Plate-1_Shoulder_Left_Legacy-x3" d="M105.53,10.64l-2.71,10.49l8.68,6.12l8.43-5.43l7.03,1.57l3.93-2.63 L105.53,10.64z" fill="rgb(131, 23, 23)"/>
<path id="Trauma-Plate-1_Shoulder_Legacy-x3_Left" class="toggle" style="" d="M126.6,21.52l2.54-1.7l-21.9-8.79l-2.42,9.37 l6.72,4.74l7.72-5.07L126.6,21.52z" fill="rgb(58, 58, 58)"/>
</g></g>
<g id="Right-Shoulder"><g id="Heavy-Bell_Shoulder_Right" class="option" style="display: inherit;">
<path id="Bottom_Heavy-Bell_Shoulder_Right" d="M38.77,35.37l-1.46,5.05c2.33,1.54,4.32,2.53,5.97,3.16 c1.48,0.55,3.13,0.45,4.54-0.27c1.41-0.72,2.45-1.99,2.88-3.52c0.01,0,0.01,0,0.01,0L38.77,35.37z" fill="rgb(58, 58, 58)"/>
<path id="Main_Heavy-Bell_Shoulder_Right" d="M64.89,12.02L64.89,12.02c-11.38-2.57-22.19,2.26-24.14,10.79 c-1.46,6.4-2.72,11.9-2.72,11.9c4.93,4.69,13.31,6.13,21.12,6.07C63.29,31.34,64.46,21.99,64.89,12.02" fill="rgb(58, 58, 58)"/>
<g id="Trim_Heavy-Bell_Shoulder_Right" class="toggle" fill="rgb(132, 29, 29)">
<path d="M49.32,39.28c-0.38,1.17-0.91,2.26-2,2.84c-1.15,0.61-2.48,0.49-3.72,0.09c-1.61-0.51-3.74-1.74-6.15-3.23 l-0.37,1.3c2.79,2.03,5.29,3.21,7.13,3.8c1.24,0.39,2.75,0.15,3.9-0.46c1.15-0.61,2-1.67,2.35-2.91 c0.15-0.54,0.26-0.91,0.26-0.91L49.32,39.28z"/>
<path d="M62.96,11.43c-0.52,9.13-1.6,18.04-5.42,26.77c-6.9,0.06-14.25-2.24-19.27-5.74l-0.46,2.02 c5.25,5.03,13.54,6.36,21.35,6.3c4.14-9.44,5.3-19.02,5.74-28.99C64.89,11.8,63.54,11.52,62.96,11.43z"/>
</g>
</g></g>
</g>
<g id="ShouldersDecals" mask="url(#ShouldersMask)">
</g>
<g id="Gauntlets">
<g id="Left-Gauntlets"><g id="Heavy_Gauntlet_Left" class="option" style="display: inherit;">
<g id="Top-2_Heavy_Gauntlet_Left" fill="rgb(58, 58, 58)">
<path d="M138.59,76.62l1.79,0.28l0.78,8.51l-1.63,1.15L138.59,76.62z"/>
<path d="M139.46,85.82l0.98,11.09l-1.1,1.25l0.62,6.53l-0.49,0.3l-1.72-17.87L139.46,85.82z"/>
<path d="M139.73,82.71c0.22,0.02,0.38,0.21,0.36,0.42c-0.02,0.21-0.21,0.37-0.42,0.36 c-0.22-0.02-0.38-0.21-0.36-0.42C139.33,82.85,139.52,82.69,139.73,82.71z"/>
</g>
<g id="Top-1_Heavy_Gauntlet_Left" fill="rgb(138, 4, 4)">
<path d="M134.86,105.83l4.61-0.85l-1.72-17.87l1.71-1.29l-0.92-9.74l-6.76-1.25L134.86,105.83z"/>
<path d="M136.79,75.76l0.96,11.35"/>
</g>
<g id="Accent-Top_Heavy_Gauntlet_Left" fill="rgb(0, 133, 255)">
<path d="M138.4,102.17l-2.92,0.35l0.25,2.26l2.93-0.44L138.4,102.17z"/>
<path d="M137.36,92.7l-2.92,0.35l0.96,8.83l2.92-0.35L137.36,92.7z"/>
<path d="M136.12,76.34l-3.22-0.51l0.91,9.67l3.06-0.36L136.12,76.34z"/>
</g>
<path id="Bottom_Heavy_Gauntlet_Left" d="M131.82,75.29c-3.5-0.15-7.25,1.05-9.76,3.79 c-0.81,0.89-1.14,2.11-0.88,3.29c1.24,5.67,5.3,24.23,5.3,24.23l8.38-0.76L131.82,75.29z" fill="rgb(58, 58, 58)"/>
<g id="Accent-Bottom_Heavy_Gauntlet_Left" fill="rgb(152, 11, 11)">
<path d="M134.86,105.83l-8.38,0.76l-0.33-1.5l8.54-0.89L134.86,105.83z"/>
<path d="M132.02,77.36c-4.54,0.08-8.44,1.41-10.6,6.11l-0.24-1.11c-0.2-0.92-0.04-1.88,0.43-2.68l0.48-0.64 c2.51-2.72,6.24-3.91,9.72-3.75L132.02,77.36z"/>
<path d="M130.96,75.89l-3.7,0.42l1.68,14.61l3.7-0.42L130.96,75.89z"/>
<path d="M130.51,76.22l-2.73,0.31l1.55,13.51l2.73-0.31L130.51,76.22z"/>
<path d="M127.78,76.53l-0.52-0.22"/>
<path d="M130.96,75.89l-0.46,0.33"/>
<path d="M132.64,90.5l-0.58-0.77"/>
<path d="M128.95,90.92l0.46-0.89"/>
</g><g id="No-Device_Attachment_Heavy_Gauntlet_Left" class="option" style="display: inherit;">
</g>
</g></g>
<g id="Right-Gauntlets"><g id="Heavy_Gauntlet_Right" class="option" style="display: inherit;">
<g id="Top-2_Heavy_Gauntlet_Right" fill="rgb(58, 58, 58)">
<path d="M31.48,76.62l-1.79,0.28l-0.78,8.51l1.63,1.15L31.48,76.62z"/>
<path d="M30.61,85.82l-0.98,11.09l1.1,1.25l-0.62,6.53l0.49,0.3l1.72-17.87L30.61,85.82z"/>
<path d="M30.33,82.71c-0.22,0.02-0.38,0.21-0.36,0.42c0.02,0.21,0.21,0.37,0.42,0.36c0.22-0.02,0.38-0.21,0.36-0.42 C30.74,82.85,30.55,82.69,30.33,82.71z"/>
</g>
<g id="Top-1_Heavy_Gauntlet_Right" fill="rgb(139, 34, 34)">
<path d="M35.21,105.83l-4.61-0.85l1.72-17.87l-1.71-1.29l0.92-9.74l6.77-1.25L35.21,105.83z"/>
<path d="M33.28,75.76l-0.96,11.35"/>
</g>
<g id="Accent-Top_Heavy_Gauntlet_Right" fill="rgb(0, 133, 255)">
<path d="M31.67,102.17l2.92,0.35l-0.25,2.26l-2.93-0.44L31.67,102.17z"/>
<path d="M32.71,92.7l2.92,0.35l-0.96,8.83l-2.92-0.35L32.71,92.7z"/>
<path d="M33.94,76.34l3.22-0.51l-0.91,9.67l-3.06-0.36L33.94,76.34z"/>
</g>
<path id="Bottom_Heavy_Gauntlet_Right" d="M38.25,75.29c3.5-0.15,7.25,1.05,9.76,3.79 c0.81,0.89,1.14,2.11,0.88,3.29c-1.24,5.67-5.3,24.23-5.3,24.23l-8.38-0.76L38.25,75.29z" fill="rgb(58, 58, 58)"/>
<g id="Accent-Bottom_Heavy_Gauntlet_Right" fill="rgb(152, 11, 11)">
<path d="M35.21,105.83l8.38,0.76l0.33-1.5l-8.54-0.89L35.21,105.83z"/>
<path d="M38.04,77.36c4.54,0.08,8.44,1.41,10.6,6.11l0.24-1.11c0.2-0.92,0.04-1.88-0.43-2.68l-0.48-0.64 c-2.51-2.72-6.24-3.91-9.72-3.75L38.04,77.36z"/>
<path d="M39.1,75.89l3.7,0.42l-1.68,14.61l-3.7-0.42L39.1,75.89z"/>
<path d="M39.56,76.22l2.73,0.31l-1.55,13.51L38,89.73L39.56,76.22z"/>
<path d="M42.28,76.53l0.52-0.22"/>
<path d="M39.1,75.89l0.46,0.33"/>
<path d="M37.42,90.5L38,89.73"/>
<path d="M41.12,90.92l-0.46-0.89"/>
</g><g id="No-Device_Attachment_Heavy_Gauntlet_Right" class="option" style="display: inherit;">
</g>
</g></g>
</g>
<g id="GauntletsDecals" mask="url(#GauntletsMask)">
</g>
<g id="Shins">
<g id="Left-Shin"><g id="Heavy-Shnees_Shin_Left" class="option" style="display: inherit;">
<g id="Shin_Heavy-Shnees-Shin_Left" fill="rgb(58, 58, 58)">
<path d="M111.54,227.68l5.17-6.09l8.89-0.62l-3.48-57.95l-25.35,1.91l10.15,54.02l-0.19,5.85L111.54,227.68"/>
<path d="M100.76,163.84l-2.61-2.36l-1.8-0.09c0,0-1.09,5.09-1.03,7.65c0.09,4.14,4.03,9.62,4.03,9.62l2.72,1.45 l3.47-7.04L100.76,163.84"/>
<path d="M119.31,170.53l2.13-8.56c0,0,2.26,5.01,2.38,7.57c0.2,4.54-0.85,7.47-0.85,7.47L119.31,170.53"/>
<path d="M116.71,221.59l8.89-0.62l-1.97-4.53l-6.06,0.25L116.71,221.59"/>
<path d="M120.49,216.57l-5.22-38.23"/>
</g>
<g id="Knee_Heavy-Shnees-Shin_Left" fill="rgb(58, 58, 58)">
<path d="M117.17,154.03l-14.3,1.68l-2.62,10.15l9.81,13.07l9.45-0.88l3.77-15.36L117.17,154.03"/>
<path d="M102.86,155.71l2.86,3.83l11.07-1.18l0.38-4.33L102.86,155.71"/>
<path d="M105.72,159.54l-5.47,6.29l2.62-10.12L105.72,159.54"/>
<path d="M116.79,158.36l6.48,4.35l-6.1-8.68L116.79,158.36"/>
<path d="M116.79,158.36l2.71,19.71l3.77-15.36L116.79,158.36"/>
<path d="M105.72,159.54l-5.48,6.29l9.81,13.11L105.72,159.54"/>
</g>
<g id="Straps_Heavy-Shnees-Shin_Left" class="toggle" fill="rgb(139, 87, 42)">
<path d="M100.68,187.7l5.46-0.63l0.44,2.46l-5.46,0.63L100.68,187.7"/>
<path d="M101.05,187.46l1.16-0.13l0.53,2.91l-1.15,0.13L101.05,187.46"/>
<path d="M105.09,211.51l5.46-0.63l0.44,2.46l-5.46,0.63L105.09,211.51"/>
<path d="M105.46,211.27l1.15-0.13l0.53,2.92l-1.15,0.13L105.46,211.27"/>
</g>
</g></g>
<g id="Right-Shin"><g id="Heavy-Shnees_Shin_Right" class="option" style="display: inherit;">
<g id="Shin_Heavy-Shnees-Shin_Right" fill="rgb(58, 58, 58)">
<path d="M58.67,227.68l-5.17-6.09l-8.89-0.62l3.46-57.95l25.35,1.89l-10.13,54.02l0.19,5.85L58.67,227.68"/>
<path d="M69.42,163.84l2.61-2.36l1.8-0.09c0,0,1.09,5.09,1.04,7.65c-0.09,4.14-4.03,9.62-4.03,9.62l-2.72,1.45 l-3.48-7.04L69.42,163.84"/>
<path d="M50.88,170.53l-2.13-8.57c0,0-2.26,5.01-2.37,7.57c-0.2,4.54,0.85,7.48,0.85,7.48L50.88,170.53"/>
<path d="M53.5,221.59l-8.89-0.62l1.97-4.53l6.06,0.24L53.5,221.59"/>
<path d="M49.71,216.57l5.21-38.23"/>
</g>
<g id="Knee_Heavy-Shnees-Shin_Right" fill="rgb(58, 58, 58)">
<path d="M53.02,154.03l14.3,1.68l2.63,10.15l-9.81,13.08l-9.45-0.87l-3.77-15.36L53.02,154.03"/>
<path d="M67.32,155.71l-2.86,3.83l-11.06-1.18l-0.38-4.33L67.32,155.71"/>
<path d="M64.46,159.54l5.48,6.29l-2.62-10.12L64.46,159.54"/>
<path d="M53.4,158.36l-6.48,4.35l6.1-8.68L53.4,158.36"/>
<path d="M53.4,158.36l-2.71,19.71l-3.77-15.36L53.4,158.36"/>
<path d="M64.46,159.54l5.48,6.29l-9.81,13.11L64.46,159.54"/>
</g>
<g id="Straps_Heavy-Shnees-Shin_Right" class="toggle" fill="rgb(139, 87, 42)">
<path d="M69.52,187.69l-5.46-0.63l-0.44,2.46l5.46,0.63L69.52,187.69"/>
<path d="M69.15,187.45l-1.16-0.13l-0.52,2.92l1.16,0.13L69.15,187.45"/>
<path d="M65.12,211.51l-5.46-0.63l-0.44,2.46l5.46,0.63L65.12,211.51"/>
<path d="M64.75,211.27l-1.16-0.13l-0.52,2.92l1.15,0.13L64.75,211.27"/>
</g>
</g></g>
</g>
<g id="ShinsDecals" mask="url(#ShinsMask)">
</g>
<g id="Foot">
<g id="Left-Ankle"><g id="Heavy_Ankle_Left" class="option" style="display: inherit;">
<path id="Plate_Heavy-Ankle_Left" d="M107.71,219.76l0.31,3.13l6.46,8.04l6.29-2.82l6.85-1.76l-5.17-9.15 c-2.61-0.36-5.65-0.05-9.17,1l-1.95,1.71L107.71,219.76" fill="rgb(58, 58, 58)"/>
<path id="Trim_Heavy-Ankle_Left" d="M113.28,218.22l0.74,0.89l-2.3,1.95l-2.61-0.11l0.09,1.27l5.6,6.88l5.61-2.61 l6.76-1.6l0.7,1.41l-7.09,1.83l-6.29,2.82l-6.46-8.04l-0.31-3.13l3.61,0.16L113.28,218.22" fill="rgb(118, 0, 0)"/>
</g></g>
<g id="Left-Toe">
<g id="Armored_Toe_Left" class="option" style="display: inherit;">
<g id="Plate_Armored_Toe_Left" fill="rgb(58, 58, 58)">
<path d="M115.81,232.98l10,5.52l7.55,0.51l6.05-1.53c1.27-1.05,1.77-3.41,0.69-5.76l-8.53-4.03l-6.69,1.67 L115.81,232.98"/>
<path d="M124.19,229.66c0,0,7.8,2.27,8.77,3.62c1.08,1.49,0.4,5.74,0.4,5.74"/>
</g>
<g id="Trim_Armored_Toe_Left" fill="rgb(109, 0, 0)">
<path d="M130.41,227.04l-8.03,1.93l-6.78,4.09l1.4,0.77l7.18-4.18l7.99-1.87L130.41,227.04"/>
<path d="M122.38,228.97l1.8,0.69"/>
</g>
</g></g>
<g id="Right-Ankle"><g id="Heavy_Ankle_Right" class="option" style="display: inherit;">
<path id="Plate_Heavy-Ankle_Right" d="M62.35,219.76l-0.31,3.13l-6.46,8.04l-6.29-2.82l-6.85-1.76l5.17-9.15 c2.61-0.36,5.65-0.05,9.17,1l1.95,1.71L62.35,219.76" fill="rgb(58, 58, 58)"/>
<path id="Trim_Heavy-Ankle_Right" d="M56.78,218.22l-0.74,0.89l2.3,1.95l2.61-0.11l-0.09,1.27l-5.6,6.88 l-5.62-2.61l-6.76-1.6l-0.7,1.41l7.1,1.83l6.29,2.82l6.46-8.04l0.31-3.13l-3.61,0.16L56.78,218.22" fill="rgb(115, 8, 8)"/>
</g></g>
<g id="Right-Toe">
<g id="Armored_Toe_Right" class="option" style="display: inherit;">
<g id="Plate_Armored_Toe_Right" fill="rgb(58, 58, 58)">
<path d="M54.19,232.98l-10,5.52l-7.55,0.51l-6.05-1.53c-1.27-1.05-1.77-3.41-0.69-5.76l8.53-4.03l6.69,1.67 L54.19,232.98"/>
<path d="M45.81,229.66c0,0-7.8,2.27-8.77,3.62c-1.08,1.49-0.4,5.74-0.4,5.74"/>
</g>
<g id="Trim_Armored_Toe_Right" fill="rgb(101, 0, 0)">
<path d="M39.59,227.04l8.03,1.93l6.77,4.09l-1.4,0.77l-7.18-4.18l-7.99-1.87L39.59,227.04"/>
<path d="M47.62,228.97l-1.8,0.69"/>
</g>
</g></g>
</g>
<g id="FootDecals" mask="url(#FootMask)">
</g>
<g id="Knees">
<g id="Left-Knee"><g id="Heavy_Knee_Left" class="option" style="display: inherit;">
<g id="Missiles_Heavy-Knee_Left" class="toggle" style="display:none"/>
<path id="Plate-2_Heavy-Knee_Left" d="M118.09,155.54l-2.97-1.79l-14.81,2.53l-2.15,2.66l2.9,14.76l5.83,0.13 l8.31-1.42l5.78-2.08L118.09,155.54z" fill="rgb(155, 0, 0)"/>
<g id="Plate-1_Heavy-Knee_Left" fill="rgb(58, 58, 58)">
<path d="M117.37,156.35l-2.73-1.73l-13.56,2.32l-1.95,2.53l2.8,14.24l4.96,0.13l8.31-1.42l4.96-1.82L117.37,156.35z "/>
<path d="M112.62,158.35l-8.31,1.42l2.59,14.07l4.31-0.16l4-1.26L112.62,158.35z"/>
<path d="M104.31,159.77l-3.22-2.83l-1.95,2.53L104.31,159.77z"/>
<path d="M112.62,158.35l2.02-3.72l2.73,1.73L112.62,158.35z"/>
</g>
<g id="Trim_Heavy-Knee_Left" fill="rgb(0, 133, 255)">
<path d="M98.2,164.01l-0.46,1.12l1.64,8.91l0.64-0.11L98.2,164.01z"/>
<path d="M113.51,168.21l-6.53,1.12l0.64,3.48l6.53-1.12L113.51,168.21z"/>
<path d="M98.85,162.4l-0.91,0.16l2.09,11.37l1.06-0.18l-0.01-0.05h-0.02L98.85,162.4z"/>
<path d="M118.97,160.04l2.02,10.29l-0.19,0.07l1.07-0.18l-1.9-10.34L118.97,160.04z"/>
</g>
</g></g>
<g id="Right-Knee"><g id="Heavy_Knee_Right" class="option" style="display: inherit;">
<g id="Missiles_Heavy-Knee_Right" class="toggle" style="display:none"/>
<path id="Plate-2_Heavy-Knee_Right" d="M51.91,155.54l2.97-1.79l14.81,2.53l2.15,2.66l-2.9,14.76l-5.83,0.13 l-8.32-1.42l-5.78-2.08L51.91,155.54z" fill="rgb(161, 0, 0)"/>
<g id="Plate-1_Heavy-Knee_Right" fill="rgb(58, 58, 58)">
<path d="M52.63,156.35l2.73-1.73l13.56,2.32l1.95,2.53l-2.8,14.24l-4.96,0.13l-8.32-1.42l-4.96-1.82L52.63,156.35z"/>
<path d="M57.38,158.35l8.31,1.42l-2.59,14.07l-4.31-0.16l-4.01-1.26L57.38,158.35z"/>
<path d="M65.69,159.77l3.22-2.83l1.95,2.53L65.69,159.77z"/>
<path d="M57.38,158.35l-2.02-3.72l-2.73,1.73L57.38,158.35z"/>
</g>
<g id="Trim_Heavy-Knee_Right" fill="rgb(0, 133, 255)">
<path d="M71.8,164.01l0.46,1.12l-1.64,8.91l-0.64-0.11L71.8,164.01z"/>
<path d="M56.49,168.21l6.53,1.12l-0.64,3.48l-6.53-1.12L56.49,168.21z"/>
<path d="M71.15,162.4l0.91,0.16l-2.09,11.37l-1.06-0.18l0.01-0.05h0.02L71.15,162.4z"/>
<path d="M51.03,160.04l-2.02,10.29l0.19,0.07l-1.07-0.18l1.9-10.34L51.03,160.04z"/>
</g>
</g></g>
</g>
<g id="KneesDecals" mask="url(#KneesMask)">
</g>
<g id="Thighs">
<g id="Left-Thigh"><g id="Heavy_Thigh_Left" class="option" style="display: inherit;">
<g id="Thigh_Heavy-Thigh_Left" fill="rgb(58, 58, 58)">
<path d="M96.2,116.74l-6,7.6l6.86,27.25l4.66,1.65l-3.25-31.06L96.2,116.74"/>
<path d="M111.52,115.16l7.44,6.21l-1.07,28.07l-4.22,2.57l-3.25-31.06L111.52,115.16"/>
<path d="M111.52,115.16l-15.33,1.58l2.27,5.44l11.96-1.24L111.52,115.16"/>
<path d="M110.43,120.95l-11.96,1.24l3.25,31.06l11.96-1.24L110.43,120.95"/>
</g>
<g id="Trim_Heavy-Thigh_Left" fill="rgb(126, 27, 27)">
<path d="M112.12,112.78l-17.01,1.76l1.08,2.21l15.33-1.58L112.12,112.78"/>
<path d="M118.67,118.71l-6.55-5.94l-0.6,2.38l7.44,6.21L118.67,118.71"/>
<path d="M89.94,121.68l5.18-7.15l1.08,2.21l-6,7.6L89.94,121.68"/>
</g>
</g></g>
<g id="Right-Thigh"><g id="Heavy_Thigh_Right" class="option" style="display: inherit;">
<g id="Thigh_Heavy-Thigh_Right" fill="rgb(58, 58, 58)">
<path d="M73.8,116.74l6,7.6l-6.86,27.25l-4.66,1.65l3.25-31.06L73.8,116.74"/>
<path d="M58.48,115.16l-7.44,6.21l1.07,28.07l4.22,2.57l3.25-31.06L58.48,115.16"/>
<path d="M58.48,115.16l15.33,1.58l-2.27,5.44l-11.96-1.24L58.48,115.16"/>
<path d="M59.58,120.95l11.96,1.24l-3.25,31.06l-11.96-1.24L59.58,120.95"/>
</g>
<g id="Trim_Heavy-Thigh_Right" fill="rgb(126, 27, 27)">
<path d="M57.88,112.78l17.01,1.76l-1.08,2.21l-15.33-1.58L57.88,112.78"/>
<path d="M51.33,118.71l6.55-5.94l0.6,2.38l-7.44,6.21L51.33,118.71"/>
<path d="M80.06,121.68l-5.18-7.15l-1.08,2.21l6,7.6L80.06,121.68"/>
</g>
</g></g>
</g>
<g id="ThighsDecals" mask="url(#ThighsMask)">
</g>
<g id="Groin"><g id="Basic_Groin" class="option" style="display: inherit;">
<path id="Groin-Plate_Basic" d="M78.57,104.6L67.72,82.91h34.71L91.58,104.6c0,0-4.33,5.17-6.5,5.17 C82.91,109.76,78.57,104.6,78.57,104.6z" fill="rgb(126, 27, 27)"/>
<path id="Trauma-Plating_Groin" class="toggle" style="" d="M90.42,103.84l9.8-19.57H69.93l9.79,19.57c0.43,0.5,2.16,2.47,3.82,3.72 c0.58,0.44,1.1,0.84,1.53,0.84c0.44,0,0.95-0.4,1.53-0.84C88.26,106.32,89.99,104.34,90.42,103.84" fill="rgb(58, 58, 58)"/>
</g>
</g>
<g id="GroinDecals" mask="url(#GroinMask)">
</g>
<g id="Waist">
<g id="Accessories_Waist">
<g id="Kama" class="toggle" style="display:none"/>
<g id="Loin-Cloth" class="toggle" style="display:none"/>
<g id="Left-Holster" class="toggle" style=""><g id="Belt-Holster_Left" class="option" style="display: inherit;">
<g id="Weapon_Belt-Holster-Left">
<g id="Main_Weapon_Belt-Holster-Left" fill="rgb(58, 58, 58)">
<path d="M109.93,89.79l-0.25-3.73l0.65-0.04l-0.16-2.35l-0.65,0.04l-0.08-1.22c-0.03-0.4,0.48-0.75,1.14-0.8 c1.5-0.1,4.08-0.27,5.58-0.37c0.66-0.04,1.21,0.24,1.24,0.64l0.08,1.22l-0.65,0.04l0.16,2.35l0.65-0.04l0.25,3.73l-1.52,0.1 l0.69,10.33l-4.91,0.33l-0.69-10.33L109.93,89.79z"/>
<path d="M117.2,88.76l-0.87,0.06l0.83,12.42l-4.91,0.33l-0.83-12.42l-0.87,0.06l-0.19-2.83l6.66-0.44L117.2,88.76 z"/>
<path d="M115.39,82.18l-3.94,0.26l0.26,3.83l3.94-0.26L115.39,82.18z"/>
<path d="M112.62,90.19l-0.65,0.04l0.66,9.77l0.65-0.04L112.62,90.19z"/>
<path d="M114.12,87.85l-0.65,0.04l0.65,9.76l0.65-0.04L114.12,87.85z"/>
<path d="M115.92,89.97l-0.65,0.04l0.66,9.76l0.65-0.04L115.92,89.97z"/>
</g>
<g id="Accent_Weapon_Belt-Holster-Left" fill="rgb(0, 133, 255)">
<path d="M112.32,86.63l0.03,0.39l2.78-0.18l-0.03-0.39L112.32,86.63z"/>
<path d="M112.34,87.02l0.03,0.39l2.78-0.18l-0.03-0.39L112.34,87.02z"/>
<path d="M112.29,86.24l0.03,0.39l2.78-0.18l-0.03-0.39L112.29,86.24z"/>
<path d="M111.97,81.43l0.03,0.39l2.78-0.18l-0.03-0.39L111.97,81.43z"/>
<path d="M112.1,82.4l-0.65,0.04l0.26,3.83l0.65-0.04L112.1,82.4z"/>
<path d="M115.39,82.18l-0.65,0.04l0.26,3.83l0.65-0.04L115.39,82.18z"/>
<path d="M115.27,90.01l-0.98,0.06l0.65,9.77l0.98-0.07L115.27,90.01z"/>
<path d="M113.61,90.12l-0.98,0.06l0.65,9.77l0.98-0.07L113.61,90.12z"/>
</g>
</g>
<path id="Holster_Belt-Holster-Left" d="M111.6,104.11l-2.57-15.56l8.61,10.96l0.82,21.48 c-1.49,1.96-3.16,2.16-5.03,0.37L111.6,104.11z" fill="rgb(139, 87, 42)"/>
</g>
</g>
<g id="Right-Holster" class="toggle" style=""><g id="Belt-Holster_Right" class="option" style="display: inherit;">
<g id="Weapon_Belt-Holster-Right">
<g id="Main_Weapon_Belt-Holster-Right" fill="rgb(58, 58, 58)">
<path d="M60.06,89.79l0.25-3.73l-0.65-0.04l0.16-2.35l0.65,0.04l0.08-1.22c0.03-0.4-0.48-0.75-1.14-0.8 c-1.5-0.1-4.08-0.27-5.58-0.37c-0.66-0.04-1.21,0.24-1.24,0.64l-0.08,1.22l0.65,0.04L53,85.57l-0.65-0.04l-0.25,3.73l1.52,0.1 L52.93,99.7l4.91,0.33l0.69-10.33L60.06,89.79z"/>
<path d="M52.79,88.76l0.87,0.06l-0.83,12.42l4.92,0.33l0.83-12.42l0.87,0.06l0.19-2.83l-6.66-0.44L52.79,88.76z"/>
<path d="M54.59,82.18l3.94,0.26l-0.26,3.83l-3.94-0.26L54.59,82.18z"/>
<path d="M57.37,90.19l0.65,0.04l-0.65,9.77l-0.65-0.04L57.37,90.19z"/>
<path d="M55.87,87.85l0.65,0.04l-0.65,9.76l-0.65-0.04L55.87,87.85z"/>
<path d="M54.07,89.97l0.65,0.04l-0.65,9.76l-0.65-0.04L54.07,89.97z"/>
</g>
<g id="Accent_Weapon_Belt-Holster-Right" fill="rgb(0, 133, 255)">
<path d="M57.67,86.63l-0.03,0.39l-2.78-0.18l0.03-0.39L57.67,86.63z"/>
<path d="M57.64,87.02l-0.03,0.39l-2.78-0.18l0.03-0.39L57.64,87.02z"/>
<path d="M57.7,86.24l-0.03,0.39l-2.78-0.18l0.03-0.39L57.7,86.24z"/>
<path d="M58.02,81.43l-0.03,0.39l-2.78-0.18l0.03-0.39L58.02,81.43z"/>
<path d="M57.89,82.4l0.65,0.04l-0.26,3.83l-0.65-0.04L57.89,82.4z"/>
<path d="M54.59,82.18l0.65,0.04l-0.26,3.83l-0.65-0.04L54.59,82.18z"/>
<path d="M54.72,90.01l0.98,0.06l-0.66,9.77l-0.98-0.07L54.72,90.01z"/>
<path d="M56.38,90.12l0.98,0.06l-0.65,9.77l-0.98-0.07L56.38,90.12z"/>
</g>
</g>
<path id="Holster_Belt-Holster-Right" d="M58.39,104.11l2.57-15.56l-8.61,10.96l-0.82,21.48 c1.49,1.96,3.16,2.16,5.03,0.37L58.39,104.11z" fill="rgb(139, 87, 42)"/>
</g>
</g>
<g id="Left-Trophy" class="toggle" style="display:none"/>
<g id="Right-Trophy" class="toggle" style="display:none"/>
</g>
<g id="Under-Belt">
<g id="Sash" class="option" fill="rgb(52, 56, 113)" style="display: inherit;">
<path d="M62.79,72.48c2.02-0.45,5.16,0.85,7.8,1.08c2.83,0.24,5.67,0.03,8.5,0.22c1.66,0.12,3.28,0.55,4.93,0.77 c3.16,0.44,6.32,0.21,9.47-0.21c0.83-0.11,1.68-0.13,2.5-0.31c2.06-0.45,4.75-0.95,6.52-1.82c1.57-0.41,3.16-0.48,4.63-0.1 c1.5,0.39,0.45,3.52,0.52,4.81c0.07,1.36,1,6.67,1.56,7.91c0.62,1.38,1.1,2.88-0.7,3.78c-1.5,0.76-3.11,0.07-4.64-0.14 c-1.81-0.25-3.6-0.13-5.38,0.24c-2.18,0.45-4.34,1.27-6.56,1.49c-2.98,0.29-5.97-0.28-8.95-0.24c-1.71,0.03-3.35,0.61-5.07,0.46 c-2.87-0.24-5.47-1.46-8.26-1.75c-1.4-0.14-2.79,0.19-4.19,0.2c-0.96,0-1.86-0.27-2.79-0.51c-0.92-0.23-1.79-0.14-2.29-1.05 c-0.38-0.69,0.43-2.55,0.81-3.13c0.99-1.5,1.26-6.8,0.9-8.5C61.81,74.25,61.39,72.79,62.79,72.48z"/>
<path d="M60.75,85.08c3.17-0.01,5.94-0.07,8.79,1.08c9.66,3.89,9.45,3.36,13.55,3.8c6.05,0.65,8.46,0.41,10.96-0.18 c1.01-0.24,2.02-0.58,2.93-1.06c1.61-0.85,3.18-1.73,4.61-2.92c1.74-1.45,4.78-2.42,7.22-2.3c0,0-0.47-1.67-1.15-6.62 c-0.17-1.28,0.6-2.68-0.01-4.42c-0.26-0.75-2.66-0.54-4.29-0.4c-3.22,0.28-4.64,2.71-7.13,4.66c-1.45,1.13-3.17,2.47-5.31,3.2 c-3.37,1.14-8.62,1.66-18.57-1.8c-3.25-1.13-6-3.27-10.28-2.58c0,0,0.15,2.3,0.16,3.45C62.24,82.67,60.75,85.08,60.75,85.08z"/>
</g></g>
<g id="Belt"><g id="Pouch-Belt-4" class="option" style="display: inherit;">
<path id="Main_Pouch-Belt-4" d="M109.38,84.25c-5.47,0.49-17.98,2.27-24.29,2.27c-6.38,0-18.88-1.79-24.28-2.26 l0.81-6.37c4.44,0.39,17.3,2.2,23.48,2.2c5.99,0,18.59-1.79,23.33-2.22L109.38,84.25z" fill="rgb(139, 87, 42)"/>
<rect id="Buckle_Pouch-Belt-4" x="80.61" y="79.49" width="9.05" height="7.39" fill="rgb(163, 163, 163)"/>
<g id="Pouches_Pouch-Belt-4" fill="rgb(139, 87, 42)">
<g>
<g>
<path d="M66.42,76.75c-1.32-0.09-2.64,0.14-3.85,0.67h0l5.92,0.34L70.1,77C70.1,77,68.06,76.86,66.42,76.75z"/>
<path d="M70.3,77.24c0.01-0.07-0.03-0.14-0.09-0.19c-0.06-0.04-0.14-0.05-0.21-0.02 c-0.53,0.25-1.52,0.72-1.52,0.72s-0.64,7.72-0.79,9.57c-0.01,0.08,0.03,0.15,0.09,0.19c0.06,0.04,0.14,0.04,0.21,0.01 c0.54-0.29,1.06-0.47,1.59-0.56c0.1-0.02,0.17-0.1,0.17-0.19C69.87,83.59,69.99,80.41,70.3,77.24z"/>
<path d="M68.49,77.76l-5.92-0.34c-0.04,1.51-0.18,3.02-0.26,4.54c-0.09,1.75-0.13,3.51-0.3,5.28 c-0.01,0.06,0.01,0.12,0.05,0.16c0.04,0.04,0.1,0.07,0.15,0.07c1.83-0.02,3.66,0.08,5.47,0.31c0.06,0.01,0.11-0.01,0.16-0.04 s0.07-0.09,0.08-0.14c0.06-0.93,0.31-4.51,0.31-4.51L68.49,77.76z"/>
<path d="M68.49,77.76l-5.92-0.34c0,0-0.08,0.74-0.19,1.64c-0.1,0.83,0.16,1.67,0.7,2.31 c0.54,0.64,1.33,1.03,2.17,1.08c0,0,0,0,0,0c0.84,0.05,1.67-0.25,2.28-0.83c0.61-0.58,0.96-1.38,0.96-2.22 C68.49,78.5,68.49,77.76,68.49,77.76z"/>
<path d="M65.32,81.27c0.21,0.01,0.37,0.21,0.36,0.44c-0.01,0.23-0.19,0.4-0.4,0.39s-0.37-0.21-0.36-0.44 C64.93,81.43,65.11,81.26,65.32,81.27z"/>
</g>
</g>
<g>
<path d="M58.83,77.31l0.44-0.68l2.27,0.07l0.28,0.85L58.83,77.31z"/>
<path d="M61.81,77.64c0.01-0.06-0.01-0.11-0.05-0.16c-0.04-0.04-0.09-0.07-0.15-0.07 c-0.69-0.03-2.78-0.11-2.78-0.11l-0.4,8.96c0.11,0.27,1.76,0.43,2.69,0.39c0.11-0.01,0.19-0.09,0.19-0.2 C61.37,83.51,61.47,80.57,61.81,77.64z"/>
</g>
<g>
<g>
<path d="M103.76,76.75c1.32-0.09,2.64,0.14,3.85,0.67h0l-5.92,0.34L100.08,77 C100.08,77,102.13,76.86,103.76,76.75z"/>
<path d="M99.88,77.24c-0.01-0.07,0.03-0.14,0.09-0.19c0.06-0.04,0.14-0.05,0.21-0.02 c0.53,0.25,1.52,0.72,1.52,0.72s0.64,7.72,0.79,9.57c0.01,0.08-0.03,0.15-0.09,0.19c-0.06,0.04-0.14,0.04-0.21,0.01 c-0.54-0.29-1.06-0.47-1.59-0.56c-0.1-0.02-0.17-0.1-0.17-0.19C100.31,83.59,100.19,80.41,99.88,77.24z"/>
<path d="M101.69,77.76l5.92-0.34c0.04,1.51,0.18,3.02,0.26,4.54c0.09,1.75,0.13,3.51,0.3,5.28 c0,0.06-0.01,0.12-0.05,0.16c-0.04,0.04-0.1,0.07-0.15,0.07c-1.83-0.02-3.66,0.08-5.47,0.31c-0.06,0.01-0.11-0.01-0.16-0.04 s-0.07-0.09-0.08-0.14c-0.06-0.93-0.31-4.51-0.31-4.51L101.69,77.76z"/>
<path d="M101.69,77.76l5.92-0.34c0,0,0.08,0.74,0.19,1.64c0.09,0.83-0.16,1.67-0.7,2.31 c-0.54,0.64-1.33,1.03-2.17,1.08c0,0,0,0,0,0c-0.84,0.05-1.67-0.25-2.28-0.83c-0.61-0.58-0.96-1.38-0.96-2.22 C101.69,78.5,101.69,77.76,101.69,77.76z"/>
<path d="M104.86,81.27c-0.21,0.01-0.37,0.21-0.36,0.44c0.01,0.23,0.19,0.4,0.4,0.39s0.37-0.21,0.36-0.44 C105.25,81.43,105.07,81.26,104.86,81.27z"/>
</g>
</g>
<g>
<path d="M111.35,77.31l-0.44-0.68l-2.27,0.07l-0.28,0.85L111.35,77.31z"/>
<path d="M108.38,77.64c-0.01-0.06,0.01-0.11,0.05-0.16c0.04-0.04,0.09-0.07,0.15-0.07 c0.69-0.03,2.78-0.11,2.78-0.11l0.4,8.96c-0.11,0.27-1.75,0.43-2.68,0.39c-0.11-0.01-0.19-0.09-0.19-0.2 C108.81,83.51,108.71,80.57,108.38,77.64z"/>
</g>
</g>
</g></g>
</g>
<g id="WaistDecals" mask="url(#WaistMask)">
</g>
<g id="Extras_Front">
<g id="Front"><g id="None_Front" class="option" style="display: inherit;">
</g>
</g>
</g>
<g id="Extras-FrontDecals" mask="url(#FrontMask)">
</g>
</g>
</svg>