<?xml version='1.0' encoding='UTF-8'?><svg version='1.1' xmlns='http://www.w3.org/2000/svg'><metadata><rdf:rdf xmlns:rdf="http://www.w3.org/1999/02/22-rdf-syntax-ns#" xmlns:rdfs="http://www.w3.org/2000/01/rdf-schema#" xmlns:dc="http://purl.org/dc/elements/1.1/"> <rdf:description> <dc:creator>MandoCreator</dc:creator> <dc:publisher>https://www.mandocreator.com</dc:publisher> <dc:description>Your Beskar'gam - created by MandoCreator</dc:description> <dc:format>image/svg+xml</dc:format> <dc:type>Image</dc:type> <dc:title>MandoCreator - Ner Berskar'gam</dc:title> <dc:date>2021-10-08T16:54:22.047Z</dc:date> </rdf:description> </rdf:rdf></metadata><svg version="1.1" id="Female" xmlns="http://www.w3.org/2000/svg" viewBox="0 -55 169 300" style="fill: white; fill-rule: evenodd; stroke: black; stroke-width: 0.2px; pointer-events: none; position: relative; height: 100%;">
<g id="Extras_Back">
<g id="Back"><path id="Short-Cape-Left_Back" class="option" d="M104,28.7c-1.3-3.8-2.5-7.5-2.5-7.5c0.5-1,4.1-1,5.1-0.9 c2.4,0.1,5.7,1.2,7.2,3c0.8,1,2.5,1.1,3.1,2.3c0,0.1,0.6,1.1,0.5,1.2c0,0,0.3,2.1,0.6,4.5c2.4,1.9,4.6,4.5,6,7.4 c3.7,7.4,7.3,15.8,10.2,23.8c2.4,6.8,6.5,13.5,9,20.2c2.8,7.6,4.2,12.9,6.6,20.7c2.5,8,5.6,15.1,10.3,21c1.8,2.3,4.9,4.2,6.1,7.3 c0.1,0.3,1.2,3.2,1.1,3.2c-0.9,0.4-2.3,0.1-3.2,0.1c-3.7,0.1-11.5-4.3-15-2.6c-4.5,2.2-4,11.1-8.2,14.1 c-4.3,3.1-11.6-4.6-16.6-4.6c-4.6,0-3.5,12.1-7.5,14.6c-1.2,0.8-9.4,0.9-9.3,0.7c0.5-2.5,1.4-8.8,0.5-15.9 c-1.1-8.8-1.3-14.8-2.4-23.7c-0.7-5.9-0.1-9-1.4-14.8c-1.4-6.4-0.7-13.8-2.5-20.2c-1.7-6.2-1.1-13.4-2.2-19.9 c-1.7-10.3-0.2-29.3,4.1-33.8C103.9,28.8,104,28.7,104,28.7z" style="fill: rgb(13, 59, 102); display: inherit;"/>
</g>
</g>
<g id="Suit">
<g id="Neck-Seal">
<g id="Standard-Neck-Seal" class="option" style="fill: rgb(51, 45, 45); display: inherit;">
<path d="M95.2,8.5c0-0.9-0.7-1.7-1.6-1.7c0,0-6.1,0.9-9.1,0.9c-3,0-9.1-0.9-9.1-0.9c-0.9,0-1.6,0.7-1.6,1.7 c0,0.9,0.7,1.6,1.6,1.6c0,0,6.1,0.9,9.1,0.9c3,0,9.1-0.9,9.1-0.9C94.4,10.1,95.2,9.4,95.2,8.5z"/>
<path d="M95.7,10.4c0-1-0.8-1.7-1.7-1.7c0,0-6.4,0.9-9.5,0.9s-9.5-0.9-9.5-0.9c-0.9,0-1.7,0.8-1.7,1.7 c0,1,0.8,1.7,1.7,1.7c0,0,6.4,0.9,9.5,0.9s9.5-0.9,9.5-0.9C95,12.1,95.7,11.3,95.7,10.4z"/>
<path d="M96.3,12.8c0-1-0.8-1.8-1.8-1.8c0,0-6.7,1-10.1,1c-3.4,0-10.1-1-10.1-1c-1,0-1.8,0.8-1.8,1.8 s0.8,1.8,1.8,1.8c0,0,6.7,1,10.1,1c3.4,0,10.1-1,10.1-1C95.5,14.6,96.3,13.8,96.3,12.8z"/>
<path d="M96.9,15c0-1.1-0.8-1.9-1.9-1.9c0,0-7,1-10.6,1c-3.5,0-10.6-1-10.6-1c-1,0-1.9,0.9-1.9,1.9 c0,1.1,0.8,1.9,1.9,1.9c0,0,7,1,10.6,1c3.5,0,10.6-1,10.6-1C96.1,16.9,96.9,16,96.9,15z"/>
<path d="M97.5,17.1c0-0.8-0.9-1.5-2-1.5c0,0-7.4,0.8-11.1,0.8c-3.7,0-11.1-0.8-11.1-0.8c-1.1,0-2,0.6-2,1.5 c0,0.8,0.9,1.5,2,1.5c0,0,7.4,0.8,11.1,0.8c3.7,0,11.1-0.8,11.1-0.8C96.6,18.6,97.5,17.9,97.5,17.1z"/>
<path d="M97.5,19.6c0-0.8-0.9-1.5-2-1.5c0,0-7.4,0.8-11.1,0.8c-3.7,0-11.1-0.8-11.1-0.8c-1.1,0-2,0.6-2,1.5 c0,0.8,0.9,1.4,2,1.4c0,0,7.4,1.5,11.1,1.5c3.7,0,11.1-1.5,11.1-1.5C96.6,21,97.5,20.4,97.5,19.6z"/>
</g>
</g>
<g id="Flight-Suit" style="fill: rgb(26, 8, 8);">
<path d="M38.9,64l5.1-18.4l11.8-8l1.8,16.1c0,0-5.1,9.7-6.9,14.2c-1.8,4.6-5,15.1-5.4,16.5l-2.8,24.4l-8.1-2.6 c0,0-0.3-16.9,0.4-24C35.5,76,38.9,64,38.9,64z"/>
<path d="M130.1,64l-5.1-18.5l-11.7-7.9l-1.9,16.2c0,0,5.1,9.6,6.8,14.1c1.8,4.6,5,15.1,5.4,16.5l2.8,24.4l8.1-2.6 c0,0,0.3-16.9-0.4-24C133.5,76,130.1,64,130.1,64z"/>
<path d="M84.5,116.1c-1,0.1-1.9,0.5-2.2,1.2c-2.9,6.2-8.9,34.4-10.7,39.6c-0.9,2.8-1.7,18.3-3.3,27.3 c-1.9,10.8-8.2,37.3-8.2,37.3l-10.9-1.1c0,0-1.4-26.6-1-36.3c0.3-7.4,3.3-21.8,3.3-21.8s0.7-5.3,0.7-7.9c0.1-9.6,0.9-31,2.8-43.3 c1.5-9.7,10.6-30.1,10.6-30.1s11.9,4.7,18.8,4.7c7,0,18.9-4.8,18.9-4.8s8.6,20.5,10.1,30.2c1.9,12.3,3.2,33.7,3.2,43.3 c0,2.7,0.7,7.9,0.7,7.9s3,14.5,3.3,21.8c0.4,9.7-1,36.3-1,36.3l-10.9,1.1c0,0-6.3-26.5-8.2-37.3c-1.6-9-2.3-24.5-3.3-27.3 c-1.7-5.2-7.7-33.4-10.7-39.6C86.5,116.6,85.6,116.2,84.5,116.1L84.5,116.1z"/>
</g>
<g id="Sleeves" class="toggle" style="fill: rgb(101, 38, 38);">
<path d="M42.6,45.6l0.8,0.3l12.4-8.3c0,0,0.4,8.8,1.4,14.1c0.1,0.7,0.4,1.7,0.6,2.7l-1.6,5.3c0,0-5.6-2.2-8.1-3.6 c-2.4-1.4-6.7-5-6.7-5L42.6,45.6z"/>
<path d="M111.3,54.4c0.3-1.1,0.5-2,0.6-2.7c1-5.3,1.4-14.1,1.4-14.1l12.4,8.3l0.8-0.3l1.2,5.5c0,0-4.3,3.6-6.7,5 c-2.5,1.4-8.1,3.6-8.1,3.6L111.3,54.4z"/>
</g>
</g>
<g id="Boots">
<g id="Gunslinger_Boots" class="option" style="display: inherit;">
<g id="Main_Gunslinger-Boot" style="fill: rgb(119, 100, 100);">
<path d="M62.4,227.8c0,0.2-0.6,3-3.8,3.8c-1,0.3-2.8-0.3-4-0.9c-1.5-0.8-3.2-1.4-4.8-1.9l0,0.1c0,0,0,0.1-0.1,0.1 c-0.5,0.7-1.1,1.4-1.7,2l0,0l0,0c-0.1,0.1-0.1,0.1-0.2,0.2c-0.4,0.3-0.7,0.7-1.1,1l-0.1,0.1l-0.1,0.1c0,0-0.1,0-0.1,0.1 c-0.1,0-0.1,0.1-0.2,0.1c-0.8,0.6-1.8,1.4-2.9,1.2c-1-0.1-2.1-0.5-2.9-0.9c-0.7-0.3-1.4-0.8-1.9-1.2c-0.1-0.1-0.3-0.2-0.3-0.4 c-2.3,0.9-4.7,1.2-5.9,3.8c-0.3,0.5-0.5,1.2-0.4,1.8c0.1,0.8,0.9,0.9,1.6,1.1c1.7,0.4,3.1,0.8,5.1,1.2c2.2,0.5,4.2,0.7,6.4,0.6 c1.7-0.1,3.1-0.2,4.5-1.1c0.6-0.4,1.2-0.7,1.7-1.2c1.1-1.1,1.9-2.2,3.3-2.8c1.1-0.5,2.2-0.9,3.3-1.1c1.6-0.4,3.3-0.7,4.1-2.3 C62.6,230.1,62.6,228.9,62.4,227.8L62.4,227.8"/>
<path d="M106.7,227.8c0,0.2,0.6,3,3.8,3.8c1,0.3,2.8-0.3,4-0.9c1.5-0.8,3.2-1.4,4.8-1.9l0,0.1c0,0,0,0.1,0.1,0.1 c0.5,0.7,1.1,1.4,1.7,2l0,0l0,0c0.1,0.1,0.1,0.1,0.2,0.2c0.4,0.3,0.7,0.7,1.1,1l0.1,0.1l0.1,0.1c0,0,0.1,0,0.1,0.1 c0.1,0,0.1,0.1,0.2,0.1c0.8,0.6,1.8,1.4,2.9,1.2c1-0.1,2.1-0.5,2.9-0.9c0.7-0.3,1.4-0.8,1.9-1.2c0.1-0.1,0.3-0.2,0.3-0.4 c2.3,0.9,4.7,1.2,5.9,3.8c0.3,0.5,0.5,1.2,0.4,1.8c-0.1,0.8-0.9,0.9-1.6,1.1c-1.7,0.4-3.1,0.8-5.1,1.2c-2.2,0.5-4.2,0.7-6.4,0.6 c-1.7-0.1-3.1-0.2-4.5-1.1c-0.6-0.4-1.2-0.7-1.7-1.2c-1.1-1.1-1.9-2.2-3.3-2.8c-1.1-0.5-2.2-0.9-3.3-1.1 c-1.6-0.4-3.3-0.7-4.1-2.3C106.4,230.1,106.5,228.9,106.7,227.8L106.7,227.8"/>
</g>
<g id="Bottom_Gunslinger-Boot" style="fill: rgb(147, 129, 114);">
<path d="M62.4,230c-0.1,0.4-0.2,0.9-0.5,1.3c-0.8,1.6-2.6,1.9-4.1,2.3c-1.1,0.3-2.2,0.7-3.3,1.1 c-1.5,0.6-2.2,1.7-3.3,2.8c-0.5,0.5-1.1,0.8-1.7,1.2c-1.5,0.9-2.9,1-4.5,1.1c-2.2,0.1-4.2-0.2-6.4-0.6c-1.9-0.4-3.4-0.7-5.1-1.2 c-0.5-0.1-1.2-0.2-1.5-0.7l0,0l-0.3,0.7l-0.2,1.5c0,0,1.8,1,3.7,1.4c1.9,0.4,5.8,1,5.8,1l0.3-0.6l0.9,0.2l0,0.6l2.1,0.1l0.4-0.6 l0.7,0l-0.1,0.5c0,0,1.3,0,2-0.4c0.1-0.2,0.4-0.5,0.4-0.5l0.5-0.3l-0.1,0.5l1.8-0.7l0.1-0.7l0.5-0.3l0,0.5l1.3-1l0.1-0.6l3.2-2.3 l0.5,1.2l2.3-0.5l0.1-0.5l0.6-0.2l0.4,0.4l1.5-0.6l0-0.5l0.5-0.2l0.1,0.3l1.4-1l0.3-2l0.1-2.2L62.4,230L62.4,230"/>
<path d="M106.6,230c0.1,0.4,0.2,0.9,0.5,1.3c0.8,1.6,2.6,1.9,4.1,2.3c1.1,0.3,2.2,0.7,3.3,1.1 c1.5,0.6,2.2,1.7,3.3,2.8c0.5,0.5,1.1,0.8,1.7,1.2c1.5,0.9,2.9,1,4.5,1.1c2.2,0.1,4.2-0.2,6.4-0.6c1.9-0.4,3.4-0.7,5.1-1.2 c0.5-0.1,1.2-0.2,1.5-0.7l0,0l0.3,0.7l0.2,1.5c0,0-1.8,1-3.7,1.4c-1.9,0.4-5.8,1-5.8,1l-0.3-0.6l-0.9,0.2l0,0.6l-2.1,0.1 l-0.4-0.6l-0.7,0l0.1,0.5c0,0-1.3,0-2-0.4c-0.1-0.2-0.4-0.5-0.4-0.5l-0.5-0.3l0.1,0.5l-1.8-0.7l-0.1-0.7l-0.5-0.3l0,0.5l-1.3-1 l-0.1-0.6l-3.2-2.3l-0.5,1.2l-2.3-0.5l-0.1-0.5l-0.6-0.2l-0.4,0.4l-1.5-0.6l0-0.5l-0.5-0.2l-0.1,0.3l-1.4-1l-0.3-2l-0.1-2.2 L106.6,230L106.6,230"/>
</g>
<g id="Top_Gunslinger-Boot" style="fill: rgb(166, 28, 28);">
<path d="M49.9,228.8c1.9-2.8,3.2-6.2,3.7-9.1l0,0l-0.5,0l0,0l-0.1,0l-0.2,0l-0.3,0l-0.1,0c-0.3,0-0.6-0.1-0.9-0.1 l-0.5-0.1l-0.1,0l0,0l-0.1,0l-0.3-0.1l-0.3-0.1l0,0c-1-0.3-0.9-0.5-0.9-0.5c-0.3,1.3-0.9,2.7-1.5,4c-0.9,1.9-2.7,3.6-4.1,5.1 c-1,1-2.5,2-3.7,2.8c-0.5,0.3-1.1,0.6-1.6,0.8c0.4,0.6,1.4,1.2,2.2,1.6c0.8,0.4,1.9,0.8,2.9,0.9c1,0.1,2.1-0.7,2.9-1.2 C47.6,231.6,48.8,230.3,49.9,228.8L49.9,228.8"/>
<path d="M119.2,228.8c-1.9-2.8-3.2-6.2-3.7-9.1l0,0l0.5,0l0,0l0.1,0l0.2,0l0.3,0l0.1,0c0.3,0,0.6-0.1,0.9-0.1 l0.5-0.1l0.1,0l0,0l0.1,0l0.3-0.1l0.3-0.1l0,0c1-0.3,0.9-0.5,0.9-0.5c0.3,1.3,0.9,2.7,1.5,4c0.9,1.9,2.7,3.6,4.1,5.1 c1,1,2.5,2,3.7,2.8c0.5,0.3,1.1,0.6,1.6,0.8c-0.4,0.6-1.4,1.2-2.2,1.6c-0.8,0.4-1.9,0.8-2.9,0.9c-1,0.1-2.1-0.7-2.9-1.2 C121.5,231.6,120.3,230.3,119.2,228.8L119.2,228.8"/>
</g>
<g id="Side_Gunslinger-Boot" style="fill: rgb(96, 82, 82);">
<path d="M49.8,228.9c1.7,0.5,3.3,1.1,4.8,1.9c1.1,0.6,2.9,1.1,4,0.9c3.2-0.8,3.8-3.8,3.8-3.8c-0.1-0.7-0.8-3.2-1-3.9 c-0.5-1.5-0.4-5.3-0.5-5.3c-2.6,1.4-6,1.1-7.3,1l0,0C53.1,222.7,51.8,226.1,49.8,228.9"/>
<path d="M119.2,228.9c-1.7,0.5-3.3,1.1-4.8,1.9c-1.1,0.6-2.9,1.1-4,0.9c-3.2-0.8-3.8-3.8-3.8-3.8 c0.1-0.7,0.8-3.2,1-3.9c0.5-1.5,0.4-5.3,0.5-5.3c2.6,1.4,6,1.1,7.3,1l0,0C116,222.7,117.3,226.1,119.2,228.9"/>
</g>
</g>
</g>
<g id="Gloves">
<g id="Left-Glove">
<g id="Fingerless_Left_Glove" class="option" style="display: inherit;">
<g id="Fingers_Fingerless_Left_Glove" style="fill: rgb(219, 150, 90);">
<path d="M131.4,123c-0.5,0-0.9,0-1.3,0.1c-0.3,0.1-0.6,0.2-0.9,0.3c-0.8,0.5-0.6,1.7,0.1,2.2c0.9,0.5,2.2,0,2.6-1 C132.1,124.2,131.6,123.4,131.4,123"/>
<path d="M129.9,124c-0.5,0-0.9,0-1.3,0.1c-0.3,0.1-0.6,0.2-0.9,0.3c-0.8,0.5-0.6,1.7,0.1,2.2c0.9,0.5,2.2,0,2.6-1 C130.6,125.2,130.1,124.4,129.9,124"/>
<path d="M128.8,125.4c-0.4,0-1,0.2-1.4,0.3c-0.3,0.1-0.6,0.2-0.8,0.5c-0.8,0.7-0.4,1.8,0.4,2.1 c0.9,0.4,2.2-0.3,2.5-1.4C129.5,126.5,128.8,125.4,128.8,125.4z"/>
<path d="M124.1,118.9c-0.3,1.3-0.5,2-0.5,2s-1.2,2.7-0.9,3.3c0.2,0.6,1.2,1.2,1.8,0.8c0.7-0.4,1.6-2.3,2.2-3.6 c0.2-0.5,0.4-1,0.6-1.6C125,120.2,124.1,118.9,124.1,118.9L124.1,118.9z"/>
<path d="M128.9,125.2c-0.2,0.3-0.4,0.7-0.6,1c-1.1,1.9-2.9,3.6-1.7,5.1c1.1,1.4,3.5-2.3,3.5-2.3l1.1-1.7 C129.4,126.9,128.9,125.2,128.9,125.2z"/>
</g>
<path id="Glove_Fingerless_Left_Glove" d="M131.3,127.4l1.3-1.9c0,0,2.8-5.1,2.9-6.1c0.1-0.8,0-3.3,0-3.3l-0.9-9.9 l-4.4,0.4l-3.6,1.3l-0.3,1.7c0,0-1.3,2-1.6,3.5c-0.2,1-0.1,3.5-0.4,5.2c0,0.2-0.1,0.4-0.1,0.6l0,0c0,0,0.8,1.3,3.1,0.9 c0.3-0.9,0.5-1.7,0.5-1.7s0.8,0.3,1.2,0.7c1.3,1.2,0.8,4.7,0.8,4.7s-0.3,0.7-0.8,1.7C128.9,125.2,129.4,126.9,131.3,127.4z" style="fill: rgb(163, 163, 163);"/>
</g>
</g>
<g id="Right-Glove">
<g id="Fingerless_Right_Glove" class="option" style="display: inherit;">
<g id="Fingers_Fingerless_Right_Glove" style="fill: rgb(219, 150, 90);">
<path d="M37.6,123c0.5,0,0.9,0,1.3,0.1c0.3,0.1,0.6,0.2,0.9,0.3c0.8,0.5,0.6,1.7-0.1,2.2c-0.9,0.5-2.2,0-2.6-1 C36.9,124.2,37.4,123.4,37.6,123"/>
<path d="M39.2,124c0.5,0,0.9,0,1.3,0.1c0.3,0.1,0.6,0.2,0.9,0.3c0.8,0.5,0.6,1.7-0.1,2.2c-0.9,0.5-2.2,0-2.6-1 C38.4,125.2,38.9,124.4,39.2,124"/>
<path d="M40.2,125.4c0.5,0,1,0.2,1.4,0.3c0.3,0.1,0.6,0.2,0.8,0.5c0.8,0.7,0.4,1.8-0.4,2.1 c-0.9,0.4-2.2-0.3-2.5-1.4C39.5,126.5,40.2,125.4,40.2,125.4z"/>
<path d="M44.9,118.9c0.3,1.3,0.5,2,0.5,2s1.1,2.7,0.9,3.3c-0.2,0.6-1.2,1.2-1.8,0.8c-0.7-0.4-1.6-2.3-2.2-3.6 c-0.2-0.5-0.4-1-0.6-1.6C44.1,120.2,44.9,118.9,44.9,118.9L44.9,118.9z"/>
<path d="M40.1,125.2c0.2,0.3,0.4,0.7,0.6,1c1.1,1.9,2.9,3.6,1.7,5.1c-1.1,1.4-3.5-2.3-3.5-2.3l-1.1-1.7 C39.7,126.9,40.1,125.2,40.1,125.2z"/>
</g>
<path id="Glove_Fingerless_Right_Glove" d="M37.8,127.4l-1.3-1.9c0,0-2.8-5.1-2.9-6.1c-0.1-0.8,0-3.3,0-3.3 l0.9-9.9l4.4,0.4l3.6,1.3l0.3,1.7c0,0,1.3,2,1.6,3.5c0.2,1,0.1,3.5,0.4,5.2c0,0.2,0.1,0.4,0.1,0.6l0,0c0,0-0.8,1.3-3.1,0.9 c-0.3-0.9-0.5-1.7-0.5-1.7s-0.8,0.3-1.2,0.7c-1.3,1.2-0.8,4.7-0.8,4.7s0.3,0.7,0.8,1.7C40.1,125.2,39.7,126.9,37.8,127.4z" style="fill: rgb(163, 163, 163);"/>
</g>
</g>
</g>
<g id="Biceps">
<g id="Left-Biceps">
<g id="Basic_Biceps_Left" class="option" style="display: inherit;">
<path id="Main_Basic_Biceps_Left" d="M131.5,57.7c-1.2-2.8-6.3-15-6.3-15s-8.4,3.5-10.5,4.3 c-0.6,0.2-0.9,0.9-0.6,1.5c1,2.4,3.4,8.3,4.9,11.9c0.3,0.8,1,1.5,1.8,1.8c0.8,0.3,1.8,0.3,2.6,0c2.5-1,5.8-2.4,7.5-3.1 C131.5,59,131.8,58.3,131.5,57.7z" style="fill: rgb(130, 17, 17);"/>
<path id="Strap_Basic_Biceps_Left" d="M116.4,54l-4.6,1.9l1.1,3.9l5-2.1L116.4,54" style="fill: rgb(139, 87, 42);"/>
<path id="Trauma-Plate_Basic_Biceps_Left" class="toggle" style="fill: rgb(58, 58, 58);" d="M131.5,57.2l-5.3-13l-10.3,4.2l4.7,11.4 c0.2,0.4,0.5,0.7,0.9,0.9c0.4,0.2,0.9,0.2,1.3,0L131.5,57.2"/>
</g>
</g>
<g id="Right-Biceps">
<g id="Basic_Biceps_Right" class="option" style="display: inherit;">
<path id="Main_Basic_Biceps_Right" d="M37.5,57.7c1.2-2.8,6.3-15,6.3-15s8.4,3.5,10.5,4.3c0.6,0.2,0.9,0.9,0.6,1.5 c-1,2.4-3.4,8.3-4.9,11.9c-0.3,0.8-1,1.5-1.8,1.8c-0.8,0.3-1.8,0.3-2.6,0c-2.5-1-5.8-2.4-7.5-3.1C37.6,59,37.3,58.3,37.5,57.7z" style="fill: rgb(136, 23, 23);"/>
<path id="Strap_Basic_Biceps_Right" d="M52.7,54l4.6,1.9l-1.1,3.9l-5-2.1L52.7,54" style="fill: rgb(139, 87, 42);"/>
<path id="Trauma-Plate_Basic_Biceps_Right" class="toggle" style="fill: rgb(58, 58, 58);" d="M37.6,57.2l5.3-13l10.3,4.2l-4.7,11.4 c-0.2,0.4-0.5,0.7-0.9,0.9c-0.4,0.2-0.9,0.2-1.3,0L37.6,57.2"/>
</g>
</g>
</g>
<path id="Vest" d="M90.9,86.3c-4.2,0.9-8.6,0.9-12.8,0c-4.2-0.9-12.5-5.2-12.5-5.2s-7.2-22.8-8.5-29.4 c-1-5.3-1.4-14.1-1.4-14.1L43.4,46l-2.6-1.1c0,0,7.4-16.4,12.3-21.1c4.4-4.3,17-7.3,17-7.3s5.5,6.1,14.6,6.1 c8.6,0,14.6-6.1,14.6-6.1s12.5,3.1,17,7.3c4.9,4.7,12.3,21.1,12.3,21.1l-2.6,1.1l-12.4-8.3c0,0-0.4,8.8-1.4,14.1 c-1.3,6.6-8.5,29.4-8.5,29.4S95.1,85.4,90.9,86.3z" style="fill: rgb(36, 37, 48);"/>
<g class="swappable" id="Chest">
<g id="Chest_Heavy" style="visibility: visible;">
<g id="Abdomen_Heavy">
<g id="Under-Plates_Abdomen_Heavy" style="fill: rgb(121, 21, 21);">
<rect x="74.7" y="68.7" width="19.6" height="2.5"/>
<rect x="74.7" y="71.2" width="19.6" height="2.5"/>
<rect x="74.7" y="73.7" width="19.6" height="2.5"/>
<rect x="74.7" y="76.2" width="19.6" height="2.5"/>
<rect x="74.7" y="78.7" width="19.6" height="2.5"/>
</g>
<g id="Abdomen-Plate_Heavy" style="fill: rgb(58, 58, 58);">
<path d="M78.5,60.6l-9.8,4.1l-0.9-2.2L78.5,58V60.6z"/>
<path d="M72.2,73.1l-3.4-8.3l9.8-4.1l3.1,8.7L72.2,73.1z"/>
<path d="M67.8,62.5l-4.1,0.7l6,14.4l4.1-0.8L67.8,62.5z"/>
<path d="M90.5,60.6l9.8,4.1l0.9-2.2L90.5,58V60.6z"/>
<path d="M96.9,73.1l3.4-8.3l-9.8-4.1l-3.1,8.7L96.9,73.1z"/>
<path d="M101.2,62.5l4.1,0.7l-6,14.4l-4.1-0.8L101.2,62.5z"/>
<rect x="78.5" y="58" width="12" height="2.6"/>
<path d="M81.6,69.4l-3.1-8.7h12l-3.1,8.7H81.6z"/>
</g>
</g>
<g id="Neck-Armor_Heavy">
<g id="Neck-Plate_Heavy" style="fill: rgb(46, 41, 41);">
<path d="M71.1,17.1L62.6,19c0,0,0.4,1.5,0.8,3.2c0.6,2.3,2.9,3.8,5.3,3.3l0,0c1.1-0.2,2.1-0.9,2.7-1.9 c0.6-1,0.8-2.1,0.5-3.2C71.5,18.7,71.1,17.1,71.1,17.1z"/>
<path d="M98,17.1l8.5,1.9c0,0-0.4,1.5-0.8,3.2c-0.6,2.3-2.9,3.8-5.3,3.3c0,0,0,0,0,0c-1.1-0.2-2.1-0.9-2.7-1.9 c-0.6-1-0.8-2.1-0.5-3.2C97.6,18.7,98,17.1,98,17.1z"/>
</g>
<g id="Secondary_Neck-Plate_Heavy" style="fill: rgb(148, 15, 15);">
<path d="M69,17.3l-4.3,0.9c0,0,0.3,1.2,0.6,2.4c0.3,1.2,1.5,1.9,2.7,1.6c0,0,0,0,0,0c0.6-0.1,1-0.5,1.3-1 c0.3-0.5,0.4-1.1,0.2-1.6C69.3,18.5,69,17.3,69,17.3z"/>
<path d="M100.1,17.3l4.3,0.9c0,0-0.3,1.2-0.6,2.4c-0.3,1.2-1.5,1.9-2.7,1.6c0,0,0,0,0,0c-0.6-0.1-1-0.5-1.3-1 c-0.3-0.5-0.4-1.1-0.2-1.6C99.8,18.5,100.1,17.3,100.1,17.3z"/>
</g>
</g>
<g id="Full-Chest_Heavy">
<path id="Under-Plate_Chest_Heavy" d="M89.3,55.1h-9.7l-2.4,2.1v1.4l1.3-0.5h12l1.3,0.5v-1.4L89.3,55.1z" style="fill: rgb(128, 6, 6);"/>
<g id="Chest-Plate_Heavy" style="fill: rgb(58, 58, 58);">
<path d="M67.6,61.3l8.6-5l1.2-2.4l2.3,0.3h9.8l2.3-0.3l1.2,2.4l8.6,5l4,0.9l-0.1,1.5l-4.3-0.7l-9.3-3.9v-1.9 l-2.4-2.1h-9.7l-2.4,2.1v1.9L68,62.9l-4.3,0.7l-0.1-1.5L67.6,61.3z"/>
<path d="M105.4,62.2l5-12.7l0.7,2.6l-1.6,9.5L105.4,62.2z"/>
<path d="M58,52.1l0.7-2.6l5,12.7l-4.1-0.7L58,52.1z"/>
<path d="M63.5,44.5v-5.3l-0.4-9.5l2.5-2.7l7.5-1.6l1.9,2.3h19l1.9-2.3l7.5,1.6l2.5,2.7l-0.4,9.3l0,0v5.6L91.7,54 l-2.3,0.3h-9.8L77.4,54L63.5,44.5z"/>
<path d="M105.5,39.2v5.3l4.8,5L105.5,39.2z"/>
<path d="M77.4,54l-13.8-9.5l-4.8,5l5,12.7l4-0.9l8.6-5L77.4,54z"/>
<path d="M110.3,49.5l-5,12.7l-4-0.9l-8.6-5L91.7,54l13.8-9.5L110.3,49.5z"/>
<path d="M109.5,61.5l-0.2,1l-4,1.1l0.1-1.5L109.5,61.5z"/>
<path d="M63.5,39.2v5.3l-4.8,5L63.5,39.2z"/>
<path d="M63.1,29.7c0,4.9-0.6,9.8-2,14.7l2.4-5.1L63.1,29.7z"/>
<path d="M105.9,29.7c0.1,4.9,0.6,9.8,2,14.7l-2.4-5.1L105.9,29.7z"/>
<path d="M63.7,62.2l0.1,1.5l-4-1.1l-0.2-1L63.7,62.2z"/>
</g>
<g id="Accents_Chest-Plate_Heavy" class="toggle">
<g id="Accent-3_Accents_Chest-Plate_Heavy" style="fill: rgb(69, 50, 50);">
<path d="M95.8,39.1l-0.5-1.6h2.3l-0.5,1.6H95.8z"/>
<path d="M95.8,42.1l-0.5-1.6h2.3l-0.5,1.6H95.8z"/>
<rect x="94.3" y="29.7" width="4.3" height="0.5"/>
<rect x="94.3" y="31.2" width="4.3" height="0.5"/>
</g>
<path id="Accent-2_Accents_Chest-Plate_Heavy" d="M71.8,27.1c-0.1-1.4-1.3-2.4-2.6-2.3l0,0 c-0.7,0-1.3,0.3-1.7,0.8c-0.4,0.5-0.6,1.1-0.6,1.8c0.1,0.8,0.1,1.6,0.2,2.4c0.1,1.4,1.3,2.4,2.6,2.3l0,0c0.7,0,1.3-0.3,1.7-0.8 c0.4-0.5,0.6-1.1,0.6-1.8C71.9,28.8,71.8,27.9,71.8,27.1z" style="fill: rgb(113, 103, 103);"/>
<g id="Accent-1_Accents_Chest-Plate_Heavy" style="fill: rgb(0, 133, 255);">
<path d="M71,25.2l-3.8,0.2l0.5,6.3l3.8-0.2L71,25.2z"/>
<path d="M70.6,25.7l-2.9,0.2l0.1,0.9l2.9-0.2L70.6,25.7z"/>
<path d="M68.2,26.8l-0.4,0l0.4,4.9l0.4,0L68.2,26.8z"/>
<path d="M68.6,26.8l-0.4,0l0.4,4.9l0.4,0L68.6,26.8z"/>
<path d="M70.7,26.6l-0.4,0l0.4,4.9l0.4,0L70.7,26.6z"/>
<path d="M70.3,26.7l-0.4,0l0.4,4.9l0.4,0L70.3,26.7z"/>
<path d="M69.4,26.7l-0.4,0l0.4,4.9l0.4,0L69.4,26.7z"/>
<path d="M69.9,26.7l-0.4,0l0.4,4.9l0.4,0L69.9,26.7z"/>
<path d="M69,26.7l-0.4,0l0.4,4.9l0.4,0L69,26.7z"/>
</g>
</g>
</g>
<g id="Iron-Heart_Heavy">
<path id="Heart_Heavy" d="M84.5,34.7l2.8,2.6v5.2l-2.8,2.6l-2.8-2.6v-5.2L84.5,34.7z" style="fill: rgb(138, 118, 14);"/>
<g id="Center_Heart_Heavy" class="option" style="fill: rgb(0, 133, 255); display: inherit;">
<rect x="83.5" y="37.4" width="2.1" height="2.5"/>
<rect x="83.5" y="39.9" width="0.3" height="2.5"/>
<rect x="84.9" y="39.9" width="0.3" height="2.5"/>
<rect x="85.2" y="39.9" width="0.3" height="2.5"/>
<rect x="84.2" y="39.9" width="0.3" height="2.5"/>
<rect x="84.5" y="39.9" width="0.3" height="2.5"/>
<rect x="83.8" y="39.9" width="0.3" height="2.5"/>
</g>
</g>
</g>
</g>
<g id="Chest-Attachments">
<g id="Bandoleer_Accessories_Chest" class="option" style="display: inherit;">
<g id="Strap_Bandoleer_Accessories_Chest" style="fill: rgb(139, 87, 42);">
<path d="M112.6,19.9l-6.7-3.3l-37,67l6.7,3.7L112.6,19.9"/>
<path d="M110.8,18.7l-2.5-1.2l-8.4,15.3l2.4,1.3L110.8,18.7"/>
<path d="M98.8,40.7L96,39.2l-13,23.5l2.8,1.5L98.8,40.7"/>
<path d="M99.1,41.6l-4-2.2l-1.3,2.4l4,2.2L99.1,41.6"/>
<path d="M97.5,44.5l-4-2.2l-1.3,2.4l4,2.2L97.5,44.5"/>
<path d="M95.9,47.3l-4-2.2l-1.3,2.4l4,2.2L95.9,47.3"/>
<path d="M94.4,50.2l-4-2.2l-1.3,2.4l4,2.2L94.4,50.2"/>
<path d="M92.8,53l-4-2.2l-1.3,2.4l4,2.2L92.8,53"/>
<path d="M89.6,58.7l-4-2.2l-1.3,2.4l4,2.2L89.6,58.7"/>
<path d="M91.2,55.9l-4-2.2L86,56.1l4,2.2L91.2,55.9"/>
<path d="M88.1,61.6l-4-2.2l-1.3,2.4l4,2.2L88.1,61.6"/>
</g>
<g id="Ammo_Bandoleer_Accessories_Chest" style="fill: rgb(138, 105, 105);">
<g>
<g>
<path d="M98.9,41.9l1.6,0.9c0.2,0.1,0.2,0.3,0.1,0.5c-0.2,0.3-0.5,0.9-0.7,1.2c-0.1,0.2-0.3,0.2-0.5,0.1l-1.6-0.9 L98.9,41.9z"/>
<path d="M100.1,42.5l-0.1-0.1l-1,1.8l0.1,0.1L100.1,42.5z"/>
<path d="M99.9,42.4l-0.1-0.1l-1,1.8l0.1,0.1L99.9,42.4z"/>
</g>
<g>
<path d="M95,39.7l-1,1.8l-1.6-0.9c-0.2-0.1-0.2-0.3-0.1-0.5c0.2-0.3,0.5-0.9,0.7-1.2c0.1-0.2,0.3-0.2,0.5-0.1 L95,39.7z"/>
<path d="M93.8,39l-0.1-0.1l-1,1.8l0.1,0.1L93.8,39z"/>
</g>
</g>
<g>
<g>
<path d="M95.8,47.6l1.6,0.9c0.2,0.1,0.2,0.3,0.1,0.5c-0.2,0.3-0.5,0.9-0.7,1.2c-0.1,0.2-0.3,0.2-0.5,0.1l-1.6-0.9 L95.8,47.6z"/>
<path d="M97,48.3l-0.1-0.1l-1,1.8l0.1,0.1L97,48.3z"/>
<path d="M96.7,48.1L96.6,48l-1,1.8l0.1,0.1L96.7,48.1z"/>
</g>
<g>
<path d="M91.8,45.4l-1,1.8l-1.6-0.9C89,46.3,89,46,89.1,45.9c0.2-0.3,0.5-0.9,0.7-1.2c0.1-0.2,0.3-0.2,0.5-0.1 L91.8,45.4z"/>
<path d="M90.6,44.7l-0.1-0.1l-1,1.8l0.1,0.1L90.6,44.7z"/>
</g>
</g>
<g>
<g>
<path d="M94.2,50.4l1.6,0.9c0.2,0.1,0.2,0.3,0.1,0.5c-0.2,0.3-0.5,0.9-0.7,1.2c-0.1,0.2-0.3,0.2-0.5,0.1l-1.6-0.9 L94.2,50.4z"/>
<path d="M95.4,51.1L95.3,51l-1,1.8l0.1,0.1L95.4,51.1z"/>
<path d="M95.1,50.9L95,50.9l-1,1.8l0.1,0.1L95.1,50.9z"/>
</g>
<g>
<path d="M90.3,48.3l-1,1.8l-1.6-0.9c-0.2-0.1-0.2-0.3-0.1-0.5c0.2-0.3,0.5-0.9,0.7-1.2c0.1-0.2,0.3-0.2,0.5-0.1 L90.3,48.3z"/>
<path d="M89,47.6l-0.1-0.1l-1,1.8l0.1,0.1L89,47.6z"/>
</g>
</g>
<g>
<g>
<path d="M92.6,53.3l1.6,0.9c0.2,0.1,0.2,0.3,0.1,0.5c-0.2,0.3-0.5,0.9-0.7,1.2c-0.1,0.2-0.3,0.2-0.5,0.1l-1.6-0.9 L92.6,53.3z"/>
<path d="M93.8,54l-0.1-0.1l-1,1.8l0.1,0.1L93.8,54z"/>
<path d="M93.6,53.8l-0.1-0.1l-1,1.8l0.1,0.1L93.6,53.8z"/>
</g>
<g>
<path d="M88.7,51.1l-1,1.8l-1.6-0.9c-0.2-0.1-0.2-0.3-0.1-0.5c0.2-0.3,0.5-0.9,0.7-1.2c0.1-0.2,0.3-0.2,0.5-0.1 L88.7,51.1z"/>
<path d="M87.5,50.5l-0.1-0.1l-1,1.8l0.1,0.1L87.5,50.5z"/>
</g>
</g>
</g>
<g id="Buckles_Bandoleer_Accessories_Chest" style="fill: rgb(163, 163, 163);">
<g>
<path d="M103.4,32.5l-2.9-1.6l-1.6,3l2.9,1.6L103.4,32.5z"/>
<path d="M102.7,33l-2.2-1.2l-1.6,3L101,36L102.7,33z"/>
</g>
<path d="M103.4,29l-1.9-1l1.6-3l3.8,2.1l-1.6,3L103.4,29l0.4-0.7l1.1,0.6l0.9-1.6l-2.1-1.2l-0.9,1.6l1,0.6"/>
</g>
</g>
</g>
<g id="Collar">
<g id="Cloth-Wrap-Right_Collar" class="option" style="display: inherit;">
<g id="Main_Cloth-Wrap-Right_Collar" style="fill: rgb(13, 59, 102);">
<path d="M94.6,26c4.5-1.4,5.3-3.7,5.6-6c0.1-0.9-1.2-3.4,0.2-4c1.6-0.7,5.3,0.4,6.8,0.7c1.1,0.2,2.1,1.4,3.3,1.4 c2.7,0,4.8,2.9,5,4.3c0.3,1.9-3,0.5-4.5,2c-3.9,3.5-5.2,8.3-13.3,9.6c-3.7,0.6-7.4-0.2-10.9-1c-8.9-2-13.8-3.7-19.5-8.1 c-2.5-1.9-6.3-3.5-6.2-6.1c0-0.1,1.8-1.2,2-1.2c1.6-0.4,3-1.1,4.7-1.1c1.1,0,0.9,0.9,1,1.3c0.3,1.6,1.7,2.8,3.6,4 C77.2,24.8,88.1,25.8,94.6,26z"/>
<path d="M94.6,26c1.2,0,2.2,0.2,3.2,0.3c4.1,0.3,5.6-0.8,6.4-2.6"/>
<path d="M107.5,16.8c1.2,2,1,4.3,0.1,5.8"/>
<path d="M72.8,22.4c3.1,4.2,7.7,5.6,12.7,6.1"/>
<path d="M64.3,17.2c0.2,1.1,0.8,1.5,1.6,2.2c0.5,0.4,1,0.7,1.4,1.2c0.1,0.2,0.2,0.4,0.3,0.6"/>
</g>
<path id="Buckle_Cloth-Wrap-Right_Collar" d="M73.8,21.6l-2.6-1.9l-4.6,6.4l2.6,1.9L73.8,21.6z" style="fill: rgb(163, 163, 163);"/>
</g>
</g>
<svg version="1.1" id="Helmets" xmlns="http://www.w3.org/2000/svg" y="-54px" height="85px" viewBox="0 0 80 80" class="swappable">
<g id="Helmet_Warden" style="visibility: visible;">
<g id="Left-Earcap_Warden" class="toggle" style="fill: rgb(100, 11, 11);">
<path d="M59.3,32.2l0.4,0.4v8.2h-1.8v-1.4h1.5v-7.2"/>
<path d="M57.8,43.4h1.1V60h-1.1V43.4"/>
<path d="M58.9,43.4h0.8v1.2h-0.8V43.4"/>
<path d="M57,32.2h2.2v7.2H57V32.2"/>
<path d="M58.2,34.2h1.2v1.3h-1.2V34.2"/>
<path d="M58.4,39.8h0.9v0.7h-0.9V39.8"/>
<path d="M58.4,39.8h0.9V40h-0.9V39.8"/>
<path d="M59.7,34.7l0.4,0.4v6.4h-0.4V34.7"/>
<path d="M57.8,40.8h1.8v2.6h-1.8V40.8"/>
</g>
<g id="Right-Earcap_Warden" class="toggle" style="fill: rgb(138, 5, 5);">
<path d="M20.7,32.2l-0.4,0.4v8.2h1.8v-1.4h-1.5v-7.2"/>
<path d="M22.2,43.4h-1.1V60h1.1V43.4"/>
<path d="M21.1,43.4h-0.8v1.2h0.8V43.4"/>
<path d="M23,32.2h-2.2v7.2H23V32.2"/>
<path d="M21.8,34.2h-1.2v1.3h1.2V34.2"/>
<path d="M21.6,39.8h-0.9v0.7h0.9V39.8"/>
<path d="M21.6,39.8h-0.9V40h0.9V39.8"/>
<path d="M20.3,34.7l-0.4,0.4v6.4h0.4V34.7"/>
<path d="M22.2,40.8h-1.8v2.6h1.8V40.8"/>
</g>
<g id="Helmet_Pieces_Warden">
<g id="Face_Warden" style="fill: rgb(53, 48, 48);">
<path d="M25.5,48.8l7.8,6.7l1.8,11l-10.6-4.8L25.5,48.8z"/>
<path d="M54.5,48.8l-7.8,6.7l-1.8,11l10.6-4.8L54.5,48.8z"/>
</g>
<g id="Cheeks_Warden" style="fill: rgb(159, 21, 21);">
<path d="M22.9,41.6c0,0,1,2.8,4.1,4.9s5.2,2.7,5.2,2.7l1,6.2l-7.8-6.7L22.9,41.6z"/>
<path d="M22.9,41.6l2.6,7.2l-1,12.8L22.9,61V41.6z"/>
<path d="M57.1,41.6c0,0-1,2.8-4.1,4.9s-5.2,2.7-5.2,2.7l-1,6.2l7.8-6.7L57.1,41.6z"/>
<path d="M57.1,41.6l-2.6,7.2l1,12.8l1.6-0.6V41.6z"/>
</g>
<path id="Visor_Warden" d="M23.4,37.2h33.2v1.2l-13.2,2.8L42,64l1.7,2.6c-1.3,0.7-6.2,0.7-7.4,0L38,64l-1.4-22.7 l-13.2-2.8V37.2z" style="fill: rgb(0, 133, 255);"/>
<path id="Eyes-2_Warden" d="M23.5,37.2v1.2l13.2,2.8L38,64l-1.9,2.9l-1-0.1l-2.9-17.5c0,0-2.1-0.6-5.2-2.7 c-3.1-2.1-4.1-4.9-4.1-4.9V61l-0.7-0.8V34.7h35.7v25.5L57.1,61V41.6c0,0-1,2.8-4.1,4.9s-5.2,2.7-5.2,2.7l-2.9,17.5l-1,0.1L42,64 l1.4-22.7l13.2-2.8v-1.2L23.5,37.2L23.5,37.2z" style="fill: rgb(58, 58, 58);"/>
<path id="Eyes-1_Warden" d="M57.3,36.2v3.3l-13,2.9L43,63.8l1.9,2.6l-0.1,0.3l-1,0.1L42,64l1.4-22.7l13.2-2.8v-1.2 H23.5v1.2l13.2,2.8L38,64l-1.9,2.9l-1-0.1L35,66.5l1.9-2.6l-1.3-21.6l-13-2.9v-3.2H57.3z" style="fill: rgb(158, 33, 33);"/>
<path id="Dome-2_Warden" d="M22.2,34.7c0-9.8,8-17.8,17.8-17.8s17.8,8,17.8,17.8H22.2z" style="fill: rgb(157, 5, 5);"/>
<path id="Dome-1_Warden" d="M22.2,34.7c0-8.5,8-15.4,17.8-15.4s17.8,6.9,17.8,15.4H22.2z" style="fill: rgb(60, 60, 60);"/>
<path id="Triangle-2_Warden" d="M40.4,31.7c-0.1,0.1-0.2,0.2-0.4,0.2c-0.1,0-0.3-0.1-0.4-0.2c-0.7-1-2.3-3.2-3.1-4.3 c-0.1-0.1-0.1-0.3,0-0.5c0.1-0.1,0.2-0.2,0.4-0.2h6.2c0.2,0,0.3,0.1,0.4,0.2s0.1,0.3,0,0.5C42.6,28.5,41.1,30.7,40.4,31.7z" style="fill: rgb(142, 6, 6);"/>
<path id="Triangle-1_Warden" d="M40.1,31.3L40,31.4c0,0-0.1,0-0.1-0.1c-0.5-0.7-2.2-3.2-2.8-4v-0.1l0.1-0.1h5.5 c0.1,0,0.1,0,0.1,0.1v0.1C42.4,28.1,40.6,30.6,40.1,31.3z" style="fill: rgb(0, 133, 255);"/>
</g>
</g>
</svg>
<g id="Shoulders">
<g id="Left-Shoulder">
<g id="Legacy-x3_Shoulder_Left" class="option" style="display: inherit;">
<path id="Plate-3_Shoulder_Left_Legacy-x3" d="M115.7,24.7l-7.4,7.6l4.3,9.4l9.8-0.5l5.2,4.7l4.6-0.3L115.7,24.7z" style="fill: rgb(116, 24, 24);"/>
<path id="Trauma-Plate-3_Shoulder_Legacy-x3_Left" class="toggle" style="fill: rgb(58, 58, 58);" d="M128.2,44.2l3-0.2L117,25.9l-6.6,6.8l3.4,7.3 l9-0.6L128.2,44.2z"/>
<path id="Plate-2_Shoulder_Left_Legacy-x3" d="M111.7,20l-5.9,8.8l6,8.4l9.5-2.3l6,3.7l4.5-1.2L111.7,20z" style="fill: rgb(109, 24, 24);"/>
<path id="Trauma-Plate-2_Shoulder_Legacy-x3_Left" class="toggle" style="fill: rgb(58, 58, 58);" d="M127.6,36.8l2.9-0.8l-17.3-15.1l-5.2,7.9l4.6,6.5 l8.7-2.2L127.6,36.8z"/>
<path id="Plate-1_Shoulder_Left_Legacy-x3" d="M104.5,15.5l-2.6,10.3l8.4,6l8.2-5.3l6.8,1.5l3.8-2.6L104.5,15.5z" style="fill: rgb(131, 23, 23);"/>
<path id="Trauma-Plate-1_Shoulder_Legacy-x3_Left" class="toggle" style="fill: rgb(58, 58, 58);" d="M125,26.1l2.5-1.7l-21.3-8.6l-2.4,9.2l6.5,4.6 l7.5-5L125,26.1z"/>
</g>
</g>
<g id="Right-Shoulder">
<g id="Heavy-Bell_Shoulder_Right" class="option" style="display: inherit;">
<path id="Bottom_Heavy-Bell_Shoulder_Right" d="M39.5,39.7l-1.4,4.9c2.3,1.5,4.2,2.5,5.8,3.1 c1.5,0.5,3.1,0.4,4.4-0.3c1.4-0.7,2.4-1.9,2.8-3.4c0,0,0,0,0,0L39.5,39.7z" style="fill: rgb(58, 58, 58);"/>
<path id="Main_Heavy-Bell_Shoulder_Right" d="M64.9,16.8L64.9,16.8c-11.1-2.5-21.6,2.2-23.5,10.6 c-1.4,6.3-2.7,11.7-2.7,11.7c4.8,4.6,13,6,20.6,5.9C63.4,35.8,64.5,26.6,64.9,16.8" style="fill: rgb(58, 58, 58);"/>
<g id="Trim_Heavy-Bell_Shoulder_Right" class="toggle" style="fill: rgb(132, 29, 29);">
<path d="M49.8,43.5c-0.4,1.1-0.9,2.2-1.9,2.8c-1.1,0.6-2.4,0.5-3.6,0.1c-1.6-0.5-3.6-1.7-6-3.2l-0.4,1.3 c2.7,2,5.2,3.1,6.9,3.7c1.2,0.4,2.7,0.2,3.8-0.5c1.1-0.6,1.9-1.6,2.3-2.9c0.1-0.5,0.2-0.9,0.2-0.9L49.8,43.5z"/>
<path d="M63,16.3c-0.5,8.9-1.6,17.7-5.3,26.2c-6.7,0.1-13.9-2.2-18.8-5.6l-0.4,2c5.1,4.9,13.2,6.2,20.8,6.2 c4-9.2,5.2-18.6,5.6-28.4C64.9,16.6,63.6,16.4,63,16.3z"/>
</g>
</g>
</g>
</g>
<g id="Gauntlets">
<g id="Left-Gauntlets">
<g id="Heavy_Gauntlet_Left" class="option" style="display: inherit;">
<g id="Top-2_Heavy_Gauntlet_Left" style="fill: rgb(58, 58, 58);">
<path d="M136.7,80.1l1.7,0.3l0.8,8.3l-1.6,1.1L136.7,80.1z"/>
<path d="M137.5,89.1l1,10.9l-1.1,1.2l0.6,6.4l-0.5,0.3l-1.7-17.5L137.5,89.1z"/>
<path d="M137.8,86c0.2,0,0.4,0.2,0.3,0.4s-0.2,0.4-0.4,0.3c-0.2,0-0.4-0.2-0.3-0.4C137.4,86.2,137.6,86,137.8,86z"/>
</g>
<g id="Top-1_Heavy_Gauntlet_Left" style="fill: rgb(138, 4, 4);">
<path d="M133,108.7l4.5-0.8l-1.7-17.5l1.7-1.3l-0.9-9.5l-6.6-1.2L133,108.7z"/>
<path d="M134.9,79.2l0.9,11.1"/>
</g>
<g id="Accent-Top_Heavy_Gauntlet_Left" style="fill: rgb(0, 133, 255);">
<path d="M136.5,105.1l-2.8,0.3l0.2,2.2l2.8-0.4L136.5,105.1z"/>
<path d="M135.5,95.8l-2.8,0.3l0.9,8.6l2.8-0.3L135.5,95.8z"/>
<path d="M134.3,79.8l-3.1-0.5l0.9,9.5l3-0.4L134.3,79.8z"/>
</g>
<path id="Bottom_Heavy_Gauntlet_Left" d="M130.1,78.8c-3.4-0.2-7.1,1-9.5,3.7c-0.8,0.9-1.1,2.1-0.9,3.2 c1.2,5.6,5.2,23.7,5.2,23.7l8.2-0.7L130.1,78.8z" style="fill: rgb(58, 58, 58);"/>
<g id="Accent-Bottom_Heavy_Gauntlet_Left" style="fill: rgb(152, 11, 11);">
<path d="M133,108.7l-8.2,0.7l-0.3-1.5l8.3-0.9L133,108.7z"/>
<path d="M130.3,80.8c-4.4,0.1-8.2,1.4-10.3,6l-0.2-1.1c-0.2-0.9,0-1.8,0.4-2.6l0.5-0.6c2.4-2.7,6.1-3.8,9.5-3.7 L130.3,80.8z"/>
<path d="M129.2,79.4l-3.6,0.4l1.6,14.3l3.6-0.4L129.2,79.4z"/>
<path d="M128.8,79.7l-2.7,0.3l1.5,13.2l2.7-0.3L128.8,79.7z"/>
<path d="M126.1,80l-0.5-0.2"/>
<path d="M129.2,79.4l-0.4,0.3"/>
<path d="M130.9,93.7l-0.6-0.8"/>
<path d="M127.3,94.1l0.4-0.9"/>
</g>
<g id="No-Device_Attachment_Heavy_Gauntlet_Left" class="option" style="display: inherit;">
</g>
</g>
</g>
<g id="Right-Gauntlets">
<g id="Heavy_Gauntlet_Right" class="option" style="display: inherit;">
<g id="Top-2_Heavy_Gauntlet_Right" style="fill: rgb(58, 58, 58);">
<path d="M32.4,80.1l-1.7,0.3l-0.8,8.3l1.6,1.1L32.4,80.1z"/>
<path d="M31.6,89.1l-1,10.9l1.1,1.2l-0.6,6.4l0.5,0.3l1.7-17.5L31.6,89.1z"/>
<path d="M31.3,86c-0.2,0-0.4,0.2-0.3,0.4c0,0.2,0.2,0.4,0.4,0.3c0.2,0,0.4-0.2,0.3-0.4C31.7,86.2,31.5,86,31.3,86z"/>
</g>
<g id="Top-1_Heavy_Gauntlet_Right" style="fill: rgb(139, 34, 34);">
<path d="M36,108.7l-4.5-0.8l1.7-17.5l-1.7-1.3l0.9-9.5l6.6-1.2L36,108.7z"/>
<path d="M34.2,79.2l-0.9,11.1"/>
</g>
<g id="Accent-Top_Heavy_Gauntlet_Right" style="fill: rgb(0, 133, 255);">
<path d="M32.6,105.1l2.8,0.3l-0.2,2.2l-2.8-0.4L32.6,105.1z"/>
<path d="M33.6,95.8l2.8,0.3l-0.9,8.6l-2.8-0.3L33.6,95.8z"/>
<path d="M34.8,79.8l3.1-0.5l-0.9,9.5l-3-0.4L34.8,79.8z"/>
</g>
<path id="Bottom_Heavy_Gauntlet_Right" d="M39,78.8c3.4-0.2,7.1,1,9.5,3.7c0.8,0.9,1.1,2.1,0.9,3.2 c-1.2,5.6-5.2,23.7-5.2,23.7l-8.2-0.7L39,78.8z" style="fill: rgb(58, 58, 58);"/>
<g id="Accent-Bottom_Heavy_Gauntlet_Right" style="fill: rgb(152, 11, 11);">
<path d="M36,108.7l8.2,0.7l0.3-1.5l-8.3-0.9L36,108.7z"/>
<path d="M38.8,80.8c4.4,0.1,8.2,1.4,10.3,6l0.2-1.1c0.2-0.9,0-1.8-0.4-2.6l-0.5-0.6c-2.4-2.7-6.1-3.8-9.5-3.7 L38.8,80.8z"/>
<path d="M39.8,79.4l3.6,0.4l-1.6,14.3l-3.6-0.4L39.8,79.4z"/>
<path d="M40.3,79.7l2.7,0.3l-1.5,13.2l-2.7-0.3L40.3,79.7z"/>
<path d="M42.9,80l0.5-0.2"/>
<path d="M39.8,79.4l0.4,0.3"/>
<path d="M38.2,93.7l0.6-0.8"/>
<path d="M41.8,94.1l-0.4-0.9"/>
</g>
<g id="No-Device_Attachment_Heavy_Gauntlet_Right" class="option" style="display: inherit;">
</g>
</g>
</g>
</g>
<g id="Shins">
<g id="Left-Shin">
<g id="Heavy-Shnees_Shin_Left" class="option" style="display: inherit;">
<g id="Shin_Heavy-Shnees-Shin_Left" style="fill: rgb(58, 58, 58);">
<path d="M110.3,228l5-6l8.6-0.6l-3.4-56.7L96,166.5l9.9,52.9l-0.2,5.7L110.3,228"/>
<path d="M99.8,165.5l-2.5-2.3l-1.8-0.1c0,0-1.1,5-1,7.5c0.1,4.1,3.9,9.4,3.9,9.4l2.7,1.4l3.4-6.9L99.8,165.5"/>
<path d="M117.9,172l2.1-8.4c0,0,2.2,4.9,2.3,7.4c0.2,4.4-0.8,7.3-0.8,7.3L117.9,172"/>
<path d="M115.4,222l8.6-0.6l-1.9-4.4l-5.9,0.2L115.4,222"/>
<path d="M119,217.1l-5.1-37.4"/>
</g>
<g id="Knee_Heavy-Shnees-Shin_Left" style="fill: rgb(58, 58, 58);">
<path d="M115.8,155.9l-13.9,1.7l-2.6,9.9l9.6,12.8l9.2-0.9l3.7-15L115.8,155.9"/>
<path d="M101.9,157.5l2.8,3.8l10.8-1.2l0.4-4.2L101.9,157.5"/>
<path d="M104.7,161.3l-5.3,6.2l2.5-9.9L104.7,161.3"/>
<path d="M115.4,160.1l6.3,4.3l-5.9-8.5L115.4,160.1"/>
<path d="M115.4,160.1l2.6,19.3l3.7-15L115.4,160.1"/>
<path d="M104.7,161.3l-5.3,6.2l9.6,12.8L104.7,161.3"/>
</g>
<g id="Straps_Heavy-Shnees-Shin_Left" class="toggle" style="fill: rgb(139, 87, 42);">
<path d="M99.8,188.8l5.3-0.6l0.4,2.4l-5.3,0.6L99.8,188.8"/>
<path d="M100.1,188.6l1.1-0.1l0.5,2.9l-1.1,0.1L100.1,188.6"/>
<path d="M104.1,212.1l5.3-0.6l0.4,2.4l-5.3,0.6L104.1,212.1"/>
<path d="M104.4,211.9l1.1-0.1l0.5,2.9l-1.1,0.1L104.4,211.9"/>
</g>
</g>
</g>
<g id="Right-Shin">
<g id="Heavy-Shnees_Shin_Right" class="option" style="display: inherit;">
<g id="Shin_Heavy-Shnees-Shin_Right" style="fill: rgb(58, 58, 58);">
<path d="M58.9,228l-5-6l-8.6-0.6l3.4-56.7l24.7,1.9l-9.9,52.9l0.2,5.7L58.9,228"/>
<path d="M69.3,165.5l2.5-2.3l1.8-0.1c0,0,1.1,5,1,7.5c-0.1,4.1-3.9,9.4-3.9,9.4l-2.6,1.4l-3.4-6.9L69.3,165.5"/>
<path d="M51.3,172l-2.1-8.4c0,0-2.2,4.9-2.3,7.4c-0.2,4.4,0.8,7.3,0.8,7.3L51.3,172"/>
<path d="M53.8,222l-8.6-0.6l1.9-4.4l5.9,0.2L53.8,222"/>
<path d="M50.2,217.1l5.1-37.4"/>
</g>
<g id="Knee_Heavy-Shnees-Shin_Right" style="fill: rgb(58, 58, 58);">
<path d="M53.4,155.9l13.9,1.6l2.6,9.9l-9.5,12.8l-9.2-0.9l-3.7-15L53.4,155.9"/>
<path d="M67.3,157.5l-2.8,3.8l-10.8-1.2l-0.4-4.2L67.3,157.5"/>
<path d="M64.5,161.3l5.3,6.2l-2.5-9.9L64.5,161.3"/>
<path d="M53.7,160.1l-6.3,4.3l5.9-8.5L53.7,160.1"/>
<path d="M53.7,160.1l-2.6,19.3l-3.7-15L53.7,160.1"/>
<path d="M64.5,161.3l5.3,6.2l-9.5,12.8L64.5,161.3"/>
</g>
<g id="Straps_Heavy-Shnees-Shin_Right" class="toggle" style="fill: rgb(139, 87, 42);">
<path d="M69.4,188.8l-5.3-0.6l-0.4,2.4l5.3,0.6L69.4,188.8"/>
<path d="M69.1,188.6l-1.1-0.1l-0.5,2.9l1.1,0.1L69.1,188.6"/>
<path d="M65.1,212.1l-5.3-0.6l-0.4,2.4l5.3,0.6L65.1,212.1"/>
<path d="M64.8,211.9l-1.1-0.1l-0.5,2.9l1.1,0.1L64.8,211.9"/>
</g>
</g>
</g>
</g>
<g id="Foot">
<g id="Left-Ankle">
<g id="Heavy_Ankle_Left" class="option" style="display: inherit;">
<path id="Plate_Heavy-Ankle_Left" d="M106.6,220.2l0.3,3.1l6.3,7.9l6.1-2.8l6.7-1.7l-5-9c-2.5-0.4-5.5,0-8.9,1 l-1.9,1.7L106.6,220.2" style="fill: rgb(58, 58, 58);"/>
<path id="Trim_Heavy-Ankle_Left" d="M112,218.7l0.7,0.9l-2.2,1.9l-2.5-0.1l0.1,1.2l5.4,6.7l5.5-2.6l6.6-1.6 l0.7,1.4l-6.9,1.8l-6.1,2.8l-6.3-7.9l-0.3-3.1l3.5,0.2L112,218.7" style="fill: rgb(118, 0, 0);"/>
</g>
</g>
<g id="Left-Toe">
<g id="Armored_Toe_Left" class="option" style="display: inherit;">
<g id="Plate_Armored_Toe_Left" style="fill: rgb(58, 58, 58);">
<path d="M114.5,233.2l9.7,5.4l7.3,0.5l5.9-1.5c1.2-1,1.7-3.3,0.7-5.6l-8.3-3.9l-6.5,1.6L114.5,233.2"/>
<path d="M122.6,229.9c0,0,7.6,2.2,8.5,3.5c1,1.5,0.4,5.6,0.4,5.6"/>
</g>
<g id="Trim_Armored_Toe_Left" style="fill: rgb(109, 0, 0);">
<path d="M128.7,227.4l-7.8,1.9l-6.6,4l1.4,0.8l7-4.1l7.8-1.8L128.7,227.4"/>
<path d="M120.9,229.2l1.8,0.7"/>
</g>
</g>
</g>
<g id="Right-Ankle">
<g id="Heavy_Ankle_Right" class="option" style="display: inherit;">
<path id="Plate_Heavy-Ankle_Right" d="M62.5,220.2l-0.3,3.1l-6.3,7.9l-6.1-2.8l-6.7-1.7l5-9c2.5-0.4,5.5,0,8.9,1 l1.9,1.7L62.5,220.2" style="fill: rgb(58, 58, 58);"/>
<path id="Trim_Heavy-Ankle_Right" d="M57,218.7l-0.7,0.9l2.2,1.9l2.5-0.1l-0.1,1.2l-5.4,6.7l-5.5-2.6l-6.6-1.6 l-0.7,1.4l6.9,1.8l6.1,2.8l6.3-7.9l0.3-3.1l-3.5,0.2L57,218.7" style="fill: rgb(115, 8, 8);"/>
</g>
</g>
<g id="Right-Toe">
<g id="Armored_Toe_Right" class="option" style="display: inherit;">
<g id="Plate_Armored_Toe_Right" style="fill: rgb(58, 58, 58);">
<path d="M54.5,233.2l-9.7,5.4l-7.3,0.5l-5.9-1.5c-1.2-1-1.7-3.3-0.7-5.6l8.3-3.9l6.5,1.6L54.5,233.2"/>
<path d="M46.4,229.9c0,0-7.6,2.2-8.5,3.5c-1,1.5-0.4,5.6-0.4,5.6"/>
</g>
<g id="Trim_Armored_Toe_Right" style="fill: rgb(101, 0, 0);">
<path d="M40.3,227.4l7.8,1.9l6.6,4l-1.4,0.8l-7-4.1l-7.8-1.8L40.3,227.4"/>
<path d="M48.1,229.2l-1.8,0.7"/>
</g>
</g>
</g>
</g>
<g id="Knees">
<g id="Left-Knee">
<g id="Heavy_Knee_Left" class="option" style="display: inherit;">
<g id="Missiles_Heavy-Knee_Left" class="toggle" style="display:none"/>
<path id="Plate-2_Heavy-Knee_Left" d="M116.7,157.3l-2.9-1.7l-14.4,2.5l-2.1,2.6l2.8,14.4l5.7,0.1l8.1-1.4l5.6-2 L116.7,157.3z" style="fill: rgb(155, 0, 0);"/>
<g id="Plate-1_Heavy-Knee_Left" style="fill: rgb(58, 58, 58);">
<path d="M116,158.1l-2.7-1.7l-13.2,2.3l-1.9,2.5l2.7,13.9l4.8,0.1l8.1-1.4l4.8-1.8L116,158.1z"/>
<path d="M111.4,160.1l-8.1,1.4l2.5,13.8l4.2-0.2l3.9-1.2L111.4,160.1z"/>
<path d="M103.3,161.5l-3.1-2.8l-1.9,2.5L103.3,161.5z"/>
<path d="M111.4,160.1l2-3.6l2.7,1.7L111.4,160.1z"/>
</g>
<g id="Trim_Heavy-Knee_Left" style="fill: rgb(0, 133, 255);">
<path d="M97.4,165.6l-0.4,1.1l1.6,8.7l0.6-0.1L97.4,165.6z"/>
<path d="M112.3,169.8l-6.4,1.1l0.6,3.4l6.4-1.1L112.3,169.8z"/>
<path d="M98,164.1l-0.9,0.2l2,11.1l1-0.2l0,0l0,0L98,164.1z"/>
<path d="M117.6,161.8l2,10.1l-0.2,0.1l1-0.2l-1.9-10.1L117.6,161.8z"/>
</g>
</g>
</g>
<g id="Right-Knee">
<g id="Heavy_Knee_Right" class="option" style="display: inherit;">
<g id="Missiles_Heavy-Knee_Right" class="toggle" style="display:none"/>
<path id="Plate-2_Heavy-Knee_Right" d="M52.3,157.3l2.9-1.7l14.4,2.5l2.1,2.6l-2.8,14.4l-5.7,0.1l-8.1-1.4l-5.6-2 L52.3,157.3z" style="fill: rgb(161, 0, 0);"/>
<g id="Plate-1_Heavy-Knee_Right" style="fill: rgb(58, 58, 58);">
<path d="M53,158.1l2.7-1.7l13.2,2.3l1.9,2.5L68,175.1l-4.8,0.1l-8.1-1.4l-4.8-1.8L53,158.1z"/>
<path d="M57.6,160.1l8.1,1.4l-2.5,13.8l-4.2-0.2l-3.9-1.2L57.6,160.1z"/>
<path d="M65.7,161.5l3.1-2.8l1.9,2.5L65.7,161.5z"/>
<path d="M57.6,160.1l-2-3.6l-2.7,1.7L57.6,160.1z"/>
</g>
<g id="Trim_Heavy-Knee_Right" style="fill: rgb(0, 133, 255);">
<path d="M71.6,165.6l0.4,1.1l-1.6,8.7l-0.6-0.1L71.6,165.6z"/>
<path d="M56.7,169.8l6.4,1.1l-0.6,3.4l-6.4-1.1L56.7,169.8z"/>
<path d="M71,164.1l0.9,0.2l-2,11.1l-1-0.2l0,0l0,0L71,164.1z"/>
<path d="M51.4,161.8l-2,10.1l0.2,0.1l-1-0.2l1.9-10.1L51.4,161.8z"/>
</g>
</g>
</g>
</g>
<g id="Thighs">
<g id="Left-Thigh">
<g id="Heavy_Thigh_Left" class="option" style="display: inherit;">
<g id="Thigh_Heavy-Thigh_Left" style="fill: rgb(58, 58, 58);">
<path d="M95.4,119.4l-5.8,7.4l6.7,26.7l4.5,1.6l-3.2-30.4L95.4,119.4"/>
<path d="M110.3,117.8l7.2,6.1l-1,27.5l-4.1,2.5l-3.2-30.4L110.3,117.8"/>
<path d="M110.3,117.8l-14.9,1.5l2.2,5.3l11.6-1.2L110.3,117.8"/>
<path d="M109.2,123.5l-11.6,1.2l3.2,30.4l11.6-1.2L109.2,123.5"/>
</g>
<g id="Trim_Heavy-Thigh_Left" style="fill: rgb(126, 27, 27);">
<path d="M110.9,115.5l-16.6,1.7l1.1,2.2l14.9-1.5L110.9,115.5"/>
<path d="M117.3,121.3l-6.4-5.8l-0.6,2.3l7.2,6.1L117.3,121.3"/>
<path d="M89.3,124.2l5-7l1.1,2.2l-5.8,7.4L89.3,124.2"/>
</g>
</g>
</g>
<g id="Right-Thigh">
<g id="Heavy_Thigh_Right" class="option" style="display: inherit;">
<g id="Thigh_Heavy-Thigh_Right" style="fill: rgb(58, 58, 58);">
<path d="M73.6,119.4l5.8,7.4l-6.7,26.7l-4.5,1.6l3.2-30.4L73.6,119.4"/>
<path d="M58.7,117.8l-7.2,6.1l1,27.5l4.1,2.5l3.2-30.4L58.7,117.8"/>
<path d="M58.7,117.8l14.9,1.5l-2.2,5.3l-11.6-1.2L58.7,117.8"/>
<path d="M59.8,123.5l11.6,1.2l-3.2,30.4l-11.6-1.2L59.8,123.5"/>
</g>
<g id="Trim_Heavy-Thigh_Right" style="fill: rgb(126, 27, 27);">
<path d="M58.1,115.5l16.6,1.7l-1.1,2.2l-14.9-1.5L58.1,115.5"/>
<path d="M51.7,121.3l6.4-5.8l0.6,2.3l-7.2,6.1L51.7,121.3"/>
<path d="M79.7,124.2l-5-7l-1.1,2.2l5.8,7.4L79.7,124.2"/>
</g>
</g>
</g>
</g>
<g id="Groin">
<g id="Basic_Groin" class="option" style="display: inherit;">
<path id="Groin-Plate_Groin" d="M78.2,107.5L67.7,86.2h33.8l-10.6,21.2c0,0-4.2,5.1-6.3,5.1 C82.5,112.5,78.2,107.5,78.2,107.5z" style="fill: rgb(126, 27, 27);"/>
<path id="Trauma-Plating_Groin" class="toggle" style="fill: rgb(58, 58, 58);" d="M89.8,106.7l9.5-19.2H69.8l9.5,19.2c0.4,0.5,2.1,2.4,3.7,3.6 c0.6,0.4,1.1,0.8,1.5,0.8c0.4,0,0.9-0.4,1.5-0.8C87.7,109.2,89.4,107.2,89.8,106.7"/>
</g>
</g>
<g id="Waist">
<g id="Accessories_Waist">
<g id="Kama" class="toggle" style="display:none"/>
<g id="Loin-Cloth" class="toggle" style="display:none"/>
<g id="Left-Holster" class="toggle" style="">
<g id="Belt-Holster_Left" class="option" style="display: inherit;">
<g id="Weapon_Belt-Holster-Left">
<g id="Main_Weapon_Belt-Holster-Left" style="fill: rgb(58, 58, 58);">
<path d="M108.8,93l-0.2-3.7l0.6,0L109,87l-0.6,0l-0.1-1.2c0-0.4,0.5-0.7,1.1-0.8c1.5-0.1,4-0.3,5.4-0.4 c0.6,0,1.2,0.2,1.2,0.6l0.1,1.2l-0.6,0l0.2,2.3l0.6,0l0.2,3.7l-1.5,0.1l0.7,10.1l-4.8,0.3l-0.7-10.1L108.8,93z"/>
<path d="M115.8,92L115,92l0.8,12.2l-4.8,0.3l-0.8-12.2l-0.8,0.1l-0.2-2.8l6.5-0.4L115.8,92z"/>
<path d="M114.1,85.5l-3.8,0.3l0.2,3.8l3.8-0.3L114.1,85.5z"/>
<path d="M111.4,93.4l-0.6,0l0.6,9.6l0.6,0L111.4,93.4z"/>
<path d="M112.8,91.1l-0.6,0l0.6,9.6l0.6,0L112.8,91.1z"/>
<path d="M114.6,93.2l-0.6,0l0.6,9.6l0.6,0L114.6,93.2z"/>
</g>
<g id="Accent_Weapon_Belt-Holster-Left" style="fill: rgb(0, 133, 255);">
<path d="M111.1,89.9l0,0.4l2.7-0.2l0-0.4L111.1,89.9z"/>
<path d="M111.1,90.3l0,0.4l2.7-0.2l0-0.4L111.1,90.3z"/>
<path d="M111.1,89.5l0,0.4l2.7-0.2l0-0.4L111.1,89.5z"/>
<path d="M110.7,84.8l0,0.4l2.7-0.2l0-0.4L110.7,84.8z"/>
<path d="M110.9,85.7l-0.6,0l0.2,3.8l0.6,0L110.9,85.7z"/>
<path d="M114.1,85.5l-0.6,0l0.2,3.8l0.6,0L114.1,85.5z"/>
<path d="M114,93.2l-1,0.1l0.6,9.6l1-0.1L114,93.2z"/>
<path d="M112.3,93.3l-1,0.1l0.6,9.6l1-0.1L112.3,93.3z"/>
</g>
</g>
<path id="Holster_Belt-Holster-Left" d="M110.4,107l-2.5-15.2l8.4,10.7l0.8,21c-1.5,1.9-3.1,2.1-4.9,0.4 L110.4,107z" style="fill: rgb(139, 87, 42);"/>
</g>
</g>
<g id="Right-Holster" class="toggle" style="">
<g id="Belt-Holster_Right" class="option" style="display: inherit;">
<g id="Weapon_Belt-Holster-Right">
<g id="Main_Weapon_Belt-Holster-Right" style="fill: rgb(58, 58, 58);">
<path d="M60.2,93l0.2-3.7l-0.6,0L60,87l0.6,0l0.1-1.2c0-0.4-0.5-0.7-1.1-0.8c-1.5-0.1-4-0.3-5.4-0.4 c-0.6,0-1.2,0.2-1.2,0.6l-0.1,1.2l0.6,0l-0.2,2.3l-0.6,0l-0.2,3.7l1.5,0.1l-0.7,10.1l4.8,0.3l0.7-10.1L60.2,93z"/>
<path d="M53.1,92L54,92l-0.8,12.2l4.8,0.3l0.8-12.2l0.9,0.1l0.2-2.8l-6.5-0.4L53.1,92z"/>
<path d="M54.9,85.5l3.8,0.3l-0.2,3.8l-3.8-0.3L54.9,85.5z"/>
<path d="M57.6,93.4l0.6,0l-0.6,9.6l-0.6,0L57.6,93.4z"/>
<path d="M56.1,91.1l0.6,0l-0.6,9.6l-0.6,0L56.1,91.1z"/>
<path d="M54.4,93.2l0.6,0l-0.6,9.6l-0.6,0L54.4,93.2z"/>
</g>
<g id="Accent_Weapon_Belt-Holster-Right" style="fill: rgb(0, 133, 255);">
<path d="M57.9,89.9l0,0.4l-2.7-0.2l0-0.4L57.9,89.9z"/>
<path d="M57.9,90.3l0,0.4l-2.7-0.2l0-0.4L57.9,90.3z"/>
<path d="M57.9,89.5l0,0.4l-2.7-0.2l0-0.4L57.9,89.5z"/>
<path d="M58.2,84.8l0,0.4L55.5,85l0-0.4L58.2,84.8z"/>
<path d="M58.1,85.7l0.6,0l-0.2,3.8l-0.6,0L58.1,85.7z"/>
<path d="M54.9,85.5l0.6,0l-0.2,3.8l-0.6,0L54.9,85.5z"/>
<path d="M55,93.2l1,0.1l-0.6,9.6l-1-0.1L55,93.2z"/>
<path d="M56.6,93.3l1,0.1l-0.6,9.6l-1-0.1L56.6,93.3z"/>
</g>
</g>
<path id="Holster_Belt-Holster-Right" d="M58.6,107l2.5-15.2l-8.4,10.7l-0.8,21c1.5,1.9,3.1,2.1,4.9,0.4L58.6,107 z" style="fill: rgb(139, 87, 42);"/>
</g>
</g>
</g>
<g id="Under-Belt">
<g id="Sash" class="option" style="fill: rgb(52, 56, 113); display: inherit;">
<path d="M62.9,76c2-0.4,5,0.8,7.6,1.1c2.8,0.2,5.5,0,8.3,0.2c1.6,0.1,3.2,0.5,4.8,0.8c3.1,0.4,6.1,0.2,9.2-0.2 c0.8-0.1,1.6-0.1,2.4-0.3c2-0.4,4.6-0.9,6.3-1.8c1.5-0.4,3.1-0.5,4.5-0.1c1.5,0.4,0.4,3.4,0.5,4.7c0.1,1.3,1,6.5,1.5,7.7 c0.6,1.3,1.1,2.8-0.7,3.7c-1.5,0.7-3,0.1-4.5-0.1c-1.8-0.2-3.5-0.1-5.2,0.2c-2.1,0.4-4.2,1.2-6.4,1.5c-2.9,0.3-5.8-0.3-8.7-0.2 c-1.7,0-3.3,0.6-4.9,0.4c-2.8-0.2-5.3-1.4-8-1.7c-1.4-0.1-2.7,0.2-4.1,0.2c-0.9,0-1.8-0.3-2.7-0.5c-0.9-0.2-1.7-0.1-2.2-1 c-0.4-0.7,0.4-2.5,0.8-3.1c1-1.5,1.2-6.7,0.9-8.3C61.9,77.8,61.5,76.3,62.9,76z"/>
<path d="M60.9,88.4c3.1,0,5.8-0.1,8.6,1.1c9.4,3.8,9.2,3.3,13.2,3.7c5.9,0.6,8.2,0.4,10.7-0.2c1-0.2,2-0.6,2.9-1 c1.6-0.8,3.1-1.7,4.5-2.9c1.7-1.4,4.6-2.4,7-2.3c0,0-0.5-1.6-1.1-6.5c-0.2-1.3,0.6-2.6,0-4.3c-0.3-0.7-2.6-0.5-4.2-0.4 c-3.1,0.3-4.5,2.7-6.9,4.6c-1.4,1.1-3.1,2.4-5.2,3.1c-3.3,1.1-8.4,1.6-18.1-1.8c-3.2-1.1-5.8-3.2-10-2.5c0,0,0.2,2.3,0.2,3.4 C62.3,86,60.9,88.4,60.9,88.4z"/>
</g>
</g>
<g id="Belt">
<g id="Pouch-Belt-4" class="option" style="display: inherit;">
<path id="Main_Pouch-Belt-4" d="M108.2,87.6c-5.3,0.5-17.5,2.2-23.6,2.2c-6.2,0-18.4-1.8-23.6-2.2l0.8-6.2 c4.3,0.4,16.8,2.2,22.8,2.2c5.8,0,18.1-1.8,22.7-2.2L108.2,87.6z" style="fill: rgb(139, 87, 42);"/>
<rect id="Buckle_Pouch-Belt-4" x="80.2" y="82.9" width="8.8" height="7.2" style="fill: rgb(163, 163, 163);"/>
<g id="Pouches_Pouch-Belt-4" style="fill: rgb(139, 87, 42);">
<g>
<g>
<path d="M66.4,80.2c-1.3-0.1-2.6,0.1-3.7,0.7c0,0,0,0,0,0l5.8,0.3l1.6-0.7C70,80.5,68,80.3,66.4,80.2z"/>
<path d="M70.2,80.7c0-0.1,0-0.1-0.1-0.2c-0.1,0-0.1,0-0.2,0c-0.5,0.2-1.5,0.7-1.5,0.7s-0.6,7.6-0.8,9.4 c0,0.1,0,0.1,0.1,0.2c0.1,0,0.1,0,0.2,0c0.5-0.3,1-0.5,1.5-0.5c0.1,0,0.2-0.1,0.2-0.2C69.8,86.9,69.9,83.8,70.2,80.7z"/>
<path d="M68.4,81.2l-5.8-0.3c0,1.5-0.2,3-0.3,4.4c-0.1,1.7-0.1,3.4-0.3,5.2c0,0.1,0,0.1,0.1,0.2 c0,0,0.1,0.1,0.1,0.1c1.8,0,3.6,0.1,5.3,0.3c0.1,0,0.1,0,0.2,0c0,0,0.1-0.1,0.1-0.1c0.1-0.9,0.3-4.4,0.3-4.4L68.4,81.2z"/>
<path d="M68.4,81.2l-5.8-0.3c0,0-0.1,0.7-0.2,1.6c-0.1,0.8,0.2,1.6,0.7,2.3c0.5,0.6,1.3,1,2.1,1.1c0,0,0,0,0,0 c0.8,0,1.6-0.2,2.2-0.8c0.6-0.6,0.9-1.3,0.9-2.2C68.4,81.9,68.4,81.2,68.4,81.2z"/>
<path d="M65.3,84.6c0.2,0,0.4,0.2,0.3,0.4s-0.2,0.4-0.4,0.4c-0.2,0-0.4-0.2-0.3-0.4S65.1,84.6,65.3,84.6z"/>
</g>
</g>
<g>
<path d="M59,80.8l0.4-0.7l2.2,0.1l0.3,0.8L59,80.8z"/>
<path d="M61.9,81.1c0-0.1,0-0.1,0-0.2c0,0-0.1-0.1-0.1-0.1c-0.7,0-2.7-0.1-2.7-0.1l-0.4,8.8 c0.1,0.3,1.7,0.4,2.6,0.4c0.1,0,0.2-0.1,0.2-0.2C61.5,86.8,61.6,84,61.9,81.1z"/>
</g>
<g>
<g>
<path d="M102.8,80.2c1.3-0.1,2.6,0.1,3.7,0.7l0,0l-5.8,0.3l-1.6-0.7C99.2,80.5,101.2,80.3,102.8,80.2z"/>
<path d="M99,80.7c0-0.1,0-0.1,0.1-0.2c0.1,0,0.1,0,0.2,0c0.5,0.2,1.5,0.7,1.5,0.7s0.6,7.6,0.8,9.4 c0,0.1,0,0.1-0.1,0.2c-0.1,0-0.1,0-0.2,0c-0.5-0.3-1-0.5-1.5-0.5c-0.1,0-0.2-0.1-0.2-0.2C99.4,86.9,99.3,83.8,99,80.7z"/>
<path d="M100.7,81.2l5.8-0.3c0,1.5,0.2,3,0.3,4.4c0.1,1.7,0.1,3.4,0.3,5.2c0,0.1,0,0.1-0.1,0.2 c0,0-0.1,0.1-0.2,0.1c-1.8,0-3.6,0.1-5.3,0.3c-0.1,0-0.1,0-0.2,0c0,0-0.1-0.1-0.1-0.1c-0.1-0.9-0.3-4.4-0.3-4.4L100.7,81.2z"/>
<path d="M100.7,81.2l5.8-0.3c0,0,0.1,0.7,0.2,1.6c0.1,0.8-0.2,1.6-0.7,2.3c-0.5,0.6-1.3,1-2.1,1.1c0,0,0,0,0,0 c-0.8,0-1.6-0.2-2.2-0.8c-0.6-0.6-0.9-1.3-0.9-2.2C100.7,81.9,100.7,81.2,100.7,81.2z"/>
<path d="M103.8,84.6c-0.2,0-0.4,0.2-0.3,0.4c0,0.2,0.2,0.4,0.4,0.4c0.2,0,0.4-0.2,0.3-0.4S104,84.6,103.8,84.6z"/>
</g>
</g>
<g>
<path d="M110.1,80.8l-0.4-0.7l-2.2,0.1l-0.3,0.8L110.1,80.8z"/>
<path d="M107.2,81.1c0-0.1,0-0.1,0-0.2c0,0,0.1-0.1,0.1-0.1c0.7,0,2.7-0.1,2.7-0.1l0.4,8.8 c-0.1,0.3-1.7,0.4-2.6,0.4c-0.1,0-0.2-0.1-0.2-0.2C107.7,86.8,107.6,84,107.2,81.1z"/>
</g>
</g>
</g>
</g>
</g>
<g id="Extras_Front">
<g id="Front">
<g id="None_Front" class="option" style="display: inherit;">
</g>
</g>
</g>
</svg></svg>