<?xml version='1.0' encoding='UTF-8'?><svg xmlns="http://www.w3.org/2000/svg" version="1.1" width="1920" height="1080" viewBox="0 0 1920 1080"><svg version="2.0" id="Background" xmlns="http://www.w3.org/2000/svg" viewBox="0 0 1920 1080" style="stroke:black;stroke-width:1px;" width="1920" height="1080">
<animate href="#Mouse_Droid" attributeType="XML" attributeName="x" begin="mouseenter" restart="whenNotActive" dur="3s" from="800" to="800" values="800;500;650;-1100;-1100;1100;1100;800"/>
<animate href="#Mouse_Droid" attributeType="XML" attributeName="opacity" begin="mouseenter" restart="whenNotActive" dur="3s" from="1" to="1" values="1;1;1;1;0;0;1;1"/>
<style type="text/css">
.st0{fill:#0F0F0F;}
.st1{fill:#363636;}
.st2{fill:#2A2A2A;}
.st3{fill:#A9A9A9;}
.st4{fill:#D5D5D5;}
.st5{fill:#AEAEAE;}
.st6{fill:#AB1F1F;}
.st7{fill:#FFEA00;}
.st8{fill:#60FF00;}
.st9{fill:#787878;}
.st10{fill:#313131;}
.st11{fill:#737373;}
.st12{fill:#B5B5B5;}
.st13{fill:#9F9F9F;}
.st14{fill:#DFDFDF;}
.st15{fill:#A2A2A2;}
.st16{fill:#535353;}
.st17{fill:#919191;}
.st18{fill:#FFFFFF;}
</style>
<rect y="806.8" class="st0" width="1920" height="273.2"/>
<rect y="978" class="st1" width="423.6" height="102"/>
<rect x="1496.4" y="978" class="st1" width="423.6" height="102"/>
<path class="st2" d="M138.3,1043.7l-44.8-36.3H0v72.7h138.3V1043.7z"/>
<path class="st2" d="M1781.7,1043.7l44.8-36.3h93.5v72.7h-138.3V1043.7z"/>
<path class="st2" d="M158.3,1043.7l44.8-36.3h195.6l-56.8,72.7H158.3V1043.7z"/>
<path class="st2" d="M1761.7,1043.7l-44.8-36.3h-195.5l56.8,72.7h183.5V1043.7z"/>
<rect class="st1" width="1920" height="806.8"/>
<path class="st3" d="M960,51.2v755.6H436.4L318.7,603V248.9L432.9,51.2H960z"/>
<path class="st3" d="M960,51.2v755.6h523.6L1601.3,603V248.9L1487.1,51.2H960z"/>
<path class="st4" d="M1483.6,806.8L1601.3,603V248.9L1487.1,51.2H432.9L318.7,248.9V603l117.7,203.8H0v-51.7h347.4l-79.9-138.4 l0.3-381.3L373.7,51.2H0V0h1920v51.2h-373.7l105.9,184.2l0.3,381.3l-79.9,138.4H1920v51.7H1483.6z"/>
<g>
<g>
<rect x="136.5" y="383.9" class="st5" width="63" height="117"/>
<circle class="st6" cx="181.5" cy="413.8" r="8.2"/>
<circle class="st7" cx="158" cy="398.4" r="4.7"/>
<rect x="173.3" y="429" class="st8" width="16.3" height="58.2"/>
<path class="st9" d="M162.7,421l-16.3-12.7v26.9h16.3V421z"/>
<rect x="146.3" y="444" class="st10" width="16.3" height="28.2"/>
</g>
<g>
<rect x="1720.5" y="383.9" class="st5" width="63" height="117"/>
<circle class="st6" cx="1765.5" cy="413.8" r="8.2"/>
<circle class="st8" cx="1742" cy="398.4" r="4.7"/>
<rect x="1757.3" y="429" class="st7" width="16.3" height="8"/>
<rect x="1757.3" y="442.7" class="st7" width="16.3" height="8"/>
<rect x="1757.3" y="456.4" class="st7" width="16.3" height="8"/>
<rect x="1757.3" y="470.1" class="st7" width="16.3" height="8"/>
<rect x="1757.3" y="483.8" class="st7" width="16.3" height="8"/>
<path class="st9" d="M1746.7,421l-16.3-12.7v26.9h16.3V421z"/>
<rect x="1730.3" y="442.4" class="st10" width="16.3" height="27.6"/>
<path class="st10" d="M1746.7,478h-16.3v6.6l16.3,7V478z"/>
</g>
</g>
<path class="st11" d="M432.9,51.2L318.7,248.9h20.7l115-197.7H432.9z"/>
<path class="st11" d="M538.2,894.9L444.1,1080h30.7l63.5-143.2V894.9z"/>
<path class="st11" d="M1381.8,894.9l94.2,185.1h-30.7l-63.5-143.2V894.9z"/>
<path class="st11" d="M1487.1,51.2l114.2,197.7h-20.7l-115-197.7H1487.1z"/>
<path class="st12" d="M436.4,806.8L318.7,603h20.7l118.5,203.8H436.4z"/>
<path class="st12" d="M1483.6,806.8L1601.3,603h-20.7l-118.5,203.8H1483.6z"/>
<rect x="318.7" y="248.9" class="st13" width="20.7" height="354.1"/>
<rect x="1580.6" y="248.9" class="st13" width="20.7" height="354.1"/>
<path class="st14" d="M444.1,1080l94.1-185.1H0v38h456.9L341.8,1080H444.1z"/>
<path class="st14" d="M1475.9,1080l-94.2-185.1H1920v38h-456.9l115.1,147.1H1475.9z"/>
<path class="st15" d="M0,932.9h456.9L421.5,978H0V932.9z"/>
<path class="st15" d="M1920,932.9h-456.9l35.3,45.2H1920V932.9z"/>
<path class="st16" d="M1546.2,50.9l9.8,16.9h364V50.9H1546.2z"/>
<path class="st16" d="M373.8,50.9L364,67.8H0V50.9H373.8z"/>
<path class="st16" d="M432.7,51.2L443.5,70l1033.9,1.5l9.7-20.2H432.7z"/>
<path class="st17" d="M796.9,303.5v269.2L960,787.4l-0.1,19.5H937L765.3,582.2V293.8L935.5,71.5h24.4l0.1,19.2L796.9,303.5z"/>
<path class="st17" d="M1123.1,303.5v269.2L960,787.4v19.5h23l171.7-224.7V293.8L984.5,71.5h-24.6l0.1,19.2L1123.1,303.5z"/>
<g>
<path class="st18" d="M1880,204.2c0-9.5-7.8-17.2-17.3-17.2c-9.6,0-17.3,7.7-17.3,17.2v125.6c0,9.5,7.8,17.2,17.3,17.2 c9.6,0,17.3-7.7,17.3-17.2V204.2z"/>
<path class="st18" d="M1880,585.1c0-9.5-7.8-17.3-17.3-17.3c-9.6,0-17.3,7.8-17.3,17.3v126.2c0,9.5,7.8,17.3,17.3,17.3 c9.6,0,17.3-7.8,17.3-17.3V585.1z"/>
<path class="st18" d="M1934.6,304.3c0-9.6-7.8-17.3-17.3-17.3c-9.6,0-17.3,7.8-17.3,17.3v126.2c0,9.5,7.8,17.3,17.3,17.3 c9.6,0,17.3-7.8,17.3-17.3V304.3z"/>
<path class="st18" d="M1934.6,485.1c0-9.6-7.8-17.3-17.3-17.3c-9.6,0-17.3,7.8-17.3,17.3v126.2c0,9.5,7.8,17.3,17.3,17.3 c9.6,0,17.3-7.8,17.3-17.3V485.1z"/>
<path class="st18" d="M1880,104.4c0-9.6-7.8-17.4-17.3-17.4c-9.6,0-17.3,7.8-17.3,17.4v45.2c0,9.6,7.8,17.4,17.3,17.4 c9.6,0,17.3-7.8,17.3-17.4V104.4z"/>
<path class="st18" d="M1880,384.4c0-9.6-7.8-17.4-17.3-17.4c-9.6,0-17.3,7.8-17.3,17.4v45.2c0,9.6,7.8,17.4,17.3,17.4 c9.6,0,17.3-7.8,17.3-17.4V384.4z"/>
<path class="st18" d="M1935,666c0-9.6-7.8-17.4-17.3-17.4c-9.6,0-17.3,7.8-17.3,17.4v45.2c0,9.6,7.8,17.4,17.3,17.4 c9.6,0,17.3-7.8,17.3-17.4V666z"/>
<path class="st18" d="M1934.6,104.4c0-9.6-7.8-17.4-17.3-17.4c-9.6,0-17.3,7.8-17.3,17.4v45.2c0,9.6,7.8,17.4,17.3,17.4 c9.6,0,17.3-7.8,17.3-17.4V104.4z"/>
<path class="st18" d="M1880,484.4c0-9.6-7.8-17.4-17.3-17.4c-9.6,0-17.3,7.8-17.3,17.4v45.2c0,9.6,7.8,17.4,17.3,17.4 c9.6,0,17.3-7.8,17.3-17.4V484.4z"/>
<path class="st18" d="M1934.6,204.4c0-9.6-7.8-17.4-17.3-17.4c-9.6,0-17.3,7.8-17.3,17.4v45.2c0,9.6,7.8,17.4,17.3,17.4 c9.6,0,17.3-7.8,17.3-17.4V204.4z"/>
</g>
<g>
<path class="st18" d="M40,204.2c0-9.5,7.8-17.2,17.3-17.2c9.6,0,17.3,7.7,17.3,17.2v125.6c0,9.5-7.8,17.2-17.3,17.2 c-9.5,0-17.3-7.7-17.3-17.2V204.2z"/>
<path class="st18" d="M40,585.1c0-9.5,7.8-17.3,17.3-17.3c9.6,0,17.3,7.8,17.3,17.3v126.2c0,9.5-7.8,17.3-17.3,17.3 c-9.5,0-17.3-7.8-17.3-17.3V585.1z"/>
<path class="st18" d="M-14.6,304.3c0-9.6,7.8-17.3,17.3-17.3c9.6,0,17.3,7.8,17.3,17.3v126.2c0,9.5-7.8,17.3-17.3,17.3 c-9.6,0-17.3-7.8-17.3-17.3V304.3z"/>
<path class="st18" d="M-14.6,485.1c0-9.6,7.8-17.3,17.3-17.3c9.6,0,17.3,7.8,17.3,17.3v126.2c0,9.5-7.8,17.3-17.3,17.3 c-9.6,0-17.3-7.8-17.3-17.3V485.1z"/>
<path class="st18" d="M40,104.4C40,94.8,47.8,87,57.3,87c9.6,0,17.3,7.8,17.3,17.4v45.2c0,9.6-7.8,17.4-17.3,17.4 c-9.5,0-17.3-7.8-17.3-17.4V104.4z"/>
<path class="st18" d="M40,384.4c0-9.6,7.8-17.4,17.3-17.4c9.6,0,17.3,7.8,17.3,17.4v45.2c0,9.6-7.8,17.4-17.3,17.4 c-9.5,0-17.3-7.8-17.3-17.4V384.4z"/>
<path class="st18" d="M-15,666c0-9.6,7.8-17.4,17.3-17.4c9.6,0,17.3,7.8,17.3,17.4v45.2c0,9.6-7.8,17.4-17.3,17.4 c-9.5,0-17.3-7.8-17.3-17.4V666z"/>
<path class="st18" d="M-14.6,104.4c0-9.6,7.8-17.4,17.3-17.4c9.6,0,17.3,7.8,17.3,17.4v45.2c0,9.6-7.8,17.4-17.3,17.4 c-9.6,0-17.3-7.8-17.3-17.4V104.4z"/>
<path class="st18" d="M40,484.4c0-9.6,7.8-17.4,17.3-17.4c9.6,0,17.3,7.8,17.3,17.4v45.2c0,9.6-7.8,17.4-17.3,17.4 c-9.5,0-17.3-7.8-17.3-17.4V484.4z"/>
<path class="st18" d="M-14.6,204.4c0-9.6,7.8-17.4,17.3-17.4c9.6,0,17.3,7.8,17.3,17.4v45.2c0,9.6-7.8,17.4-17.3,17.4 c-9.6,0-17.3-7.8-17.3-17.4V204.4z"/>
</g>
<g>
<path class="st17" d="M1542.6,294.2v119.1H1192V294.2H1542.6z M1191.1,262.6L1063.4,99.2h385.3l93.9,162.6v0.8H1191.1z"/>
<g>
<path class="st17" d="M377.4,294.2v119.1H728V294.2H377.4z M728.9,262.6L856.6,99.2H471.3l-93.9,162.6v0.8H728.9z"/>
<path class="st17" d="M377.4,563.9V444.8H728v119.1H377.4z M728.9,595.5l121.7,163.3H471.3l-93.9-162.6v-0.8H728.9z"/>
</g>
<path class="st17" d="M1542.6,563.9V444.8H1192v119.1H1542.6z M1191.1,595.5l-121.7,163.3h379.3l93.9-162.6v-0.8H1191.1z"/>
</g>
<svg version="1.1" id="Mouse_Droid" xmlns="http://www.w3.org/2000/svg" viewBox="0 0 132 98" height="10%" x="800" y="765">
<style type="text/css">
.mouse0{fill:#1E1C1F;stroke:#000000;stroke-linejoin:round;stroke-miterlimit:2;}
.mouse1{fill:#423D43;stroke:#000000;stroke-linejoin:round;stroke-miterlimit:2;}
.mouse2{fill:#1E1C1F;}
.mouse3{fill:#161616;stroke:#000000;stroke-linejoin:round;stroke-miterlimit:2;}
.mouse4{fill:#969198;stroke:#000000;stroke-linejoin:round;stroke-miterlimit:2;}
.mouse5{fill:#4A4647;stroke:#000000;stroke-linejoin:round;stroke-miterlimit:2;}
.mouse6{fill:#857C7F;stroke:#000000;stroke-linejoin:round;stroke-miterlimit:2;}
.mouse7{fill:#C3BEC5;stroke:#000000;stroke-linejoin:round;stroke-miterlimit:2;}
.mouse8{fill-rule:evenodd;clip-rule:evenodd;fill:#352F33;stroke:#000000;stroke-linejoin:round;stroke-miterlimit:2;}
.mouse9{fill-rule:evenodd;clip-rule:evenodd;fill:#413B3F;stroke:#000000;stroke-linejoin:round;stroke-miterlimit:2;}
.mouse10{fill:#423B42;stroke:#000000;stroke-linejoin:round;stroke-miterlimit:2;}
.mouse11{fill:#0A080B;}
.mouse12{fill-rule:evenodd;clip-rule:evenodd;fill:#1E1C1F;}
.mouse13{fill-rule:evenodd;clip-rule:evenodd;fill:#312F32;}
.mouse14{fill-rule:evenodd;clip-rule:evenodd;fill:#0D0B0E;}
</style>
<g id="Droid">
<path class="mouse0" d="M89,80.9c0,0-1.1,3.7,0,6c0,0,6.5,9.7,9.8,9.1l11.6-7.4l0.7,0.7c0,0,3.6-5.4-9.2-14.1 C102,75.2,93.4,74,89,80.9"/>
<path class="mouse1" d="M112.1,88.3c0,4.9-4.3,8.9-9.6,8.9c-5.3,0-9.6-4-9.6-8.9c0-4.9,4.3-8.9,9.6-8.9 C107.8,79.4,112.1,83.4,112.1,88.3"/>
<path class="mouse2" d="M23,79.4c0,0-1.4,7.7-0.1,9.7c0,0,2.5,6.7,5.8,6.1l11.1-6.9l0.7,0.7c0,0,3.5-5-4.5-11.7 C36,77.3,27.3,72.5,23,79.4"/>
<path class="mouse1" d="M22.4,87.7c0,4.9,4.3,8.9,9.6,8.9c5.3,0,9.6-4,9.6-8.9c0-4.9-4.3-8.9-9.6-8.9C26.7,78.8,22.4,82.8,22.4,87.7"/>
<path class="mouse3" d="M109.3,88.4c0,3.2-2.8,5.9-6.3,5.9c-3.5,0-6.3-2.6-6.3-5.9c0-3.2,2.8-5.9,6.3-5.9 C106.4,82.5,109.3,85.1,109.3,88.4"/>
<path class="mouse3" d="M38.3,88.3c0,3.2-2.8,5.9-6.3,5.9c-3.5,0-6.3-2.6-6.3-5.9c0-3.2,2.8-5.9,6.3-5.9 C35.5,82.5,38.3,85.1,38.3,88.3"/>
<path class="mouse4" d="M1.7,63.2l-1.2-18l108.3-0.4l22.4,16.8L1.7,63.2z"/>
<path class="mouse5" d="M121.8,59.2L11.4,60.3l27.1-43.7l76.9,1.4L121.8,59.2z"/>
<path class="mouse0" d="M129.4,69.6L2.5,71.1v-4.9l126.9-1.5V69.6z"/>
<path class="mouse6" d="M32.4,11.7l6.1,4.8L11.4,60.3L8.3,46L32.4,11.7z"/>
<path class="mouse7" d="M98.6,12.7l16.8,5.3l-76.9-1.4l-6.1-4.8L98.6,12.7z"/>
<path class="mouse8" d="M1.7,63.2l129.6-1.6l0.1,4.1L1.7,67.4L1.7,63.2z"/>
<path class="mouse9" d="M1.7,70.3l129.6-1.6l0.1,4.1L1.7,74.5L1.7,70.3z"/>
<path class="mouse10" d="M124.3,72.8L6.4,74.2c0,0,7,9.3,8,9.3h9.5c0,0,7.7-6.6,14.7-0.5l51.8-1.2c0,0,4.9-5.1,11.6-5.4 c6.7-0.3,8.3,4.7,8.3,4.7l1.8-0.1L124.3,72.8z"/>
<path class="mouse11" d="M104.9,76.6l5.7,4.6C110.6,81.1,110.9,77.5,104.9,76.6"/>
<path class="mouse12" d="M52.4,2L52.8,2l-1-0.1l0-0.1l-0.3,0l-0.9-0.5l0,0.4l-0.7-0.1l0,0.2l0,0L49,1.3l0,0.4l0.4,0.1l-1.1-0.2l0,0.1 l-0.5-0.3l0,0.4l-0.7-0.1l0,0.1l-0.7-0.4l0,0.4l-0.7-0.1l-0.1,0.6l1.1,0.3l-0.9-0.2l-0.3,1.1l-2.9-0.5l-1,4.5l1.1,0.2l-0.1,3 c0,0,0.3,0.4,0.4,0.4c0,0,0.1-1.1,0.1-2c0.1,0.2,0.3,0.3,0.6,0.3l-0.1,1.6c0,0,0.4,0.4,0.5,0.3c0,0,0.1-1,0.1-2 c0.2-0.1,0.3-0.2,0.4-0.3c0.1,0.2,0.2,0.4,0.4,0.5l-0.4,2.1l-3.6,0.1l0,1.3L51,15.5l6.6,0l0-1.4l-2.5-0.6c0.2-0.9,0.5-2.6,0.6-3.1 l3.1,0.2l0-0.5L58,10.1l0.9-4.7l-1.5-0.2l-0.4,1.4l0.3-1.4l-1.5-0.2l0,0.2L55,4.9l0.3-1.6l0.5,0.1l0-1L55,2.3l0.1-0.6l-0.8,0l0,0.4 l-0.8-0.1l0,0l-0.2,0l-0.2-0.5l-0.7,0L52.4,2z M53.9,13.2l-7.6-1.9l-0.7,0c0-0.2,0.1-0.5,0.1-0.8c0.2,0.1,0.3,0.2,0.5,0.2 c0.2,0,0.4-0.1,0.5-0.2c0.1,0.4,0.5,0.7,0.9,0.7c0.5,0,0.9-0.4,0.9-0.9c0-0.1,0-0.3-0.1-0.4c0.2-0.1,0.3-0.3,0.4-0.5 c0,0.2,0.1,0.3,0.2,0.5c-0.3,0.2-0.5,0.5-0.5,0.8c0,0.5,0.4,0.9,0.9,0.9c0.5,0,0.9-0.4,0.9-0.9c0-0.2-0.1-0.4-0.2-0.5 c0.3-0.2,0.5-0.5,0.5-0.8c0-0.1,0-0.1,0-0.2l1,0.3l-0.1,0.6l-0.1,1.1l2.4,0.5l0.1-1.5l0.3,0.1l0.2,0L53.9,13.2z"/>
<path class="mouse12" d="M101.1,0.9l0.5,0.1l-1.1-0.2l0-0.1l-0.4-0.1l-1-0.6l0,0.4l-0.8-0.1l-0.1,0.3l0,0l-1-0.6l0,0.4l0.5,0.1 l-1.3-0.2l0,0.1L95.8,0l0,0.4L95,0.3l0,0.2L94.2,0l0,0.4l-0.8-0.1L93.2,1l1.2,0.3l-1.1-0.2L93,2.4l-3.3-0.7l-1.3,5.2l1.2,0.3 l-0.2,3.5c0,0,0.4,0.5,0.4,0.4c0,0,0.1-1.2,0.2-2.3c0.2,0.2,0.4,0.4,0.6,0.4l-0.1,1.8c0,0,0.5,0.5,0.6,0.4c0,0,0.1-1.2,0.2-2.3 c0.2-0.1,0.3-0.2,0.4-0.4c0.1,0.2,0.2,0.4,0.4,0.6l-0.5,2.5l-4.1,0.1l0,1.5l11.7,3.3l7.7,0.2l0-1.6l-2.9-0.8c0.2-1,0.6-3,0.7-3.6 l3.6,0.4l0-0.6l-0.8-0.1l1.1-5.5l-1.7-0.3l-0.5,1.6l0.3-1.6l-1.7-0.3L105,4.6l-0.9-0.2l0.4-1.9l0.6,0.2l0-1.2l-0.9-0.1l0.2-0.7 l-1,0l0,0.5l-1-0.2l0,0l-0.2,0l-0.2-0.6l-0.8,0L101.1,0.9z M102.6,14l-8.7-2.3l-0.8,0c0.1-0.3,0.1-0.6,0.2-0.9 c0.2,0.1,0.4,0.2,0.6,0.2c0.2,0,0.4-0.1,0.6-0.2c0.1,0.5,0.5,0.8,1,0.8c0.6,0,1.1-0.5,1-1.1c0-0.2,0-0.3-0.1-0.4 c0.2-0.1,0.4-0.3,0.5-0.6c0,0.2,0.1,0.4,0.2,0.5c-0.3,0.2-0.6,0.5-0.5,0.9c0,0.6,0.5,1,1.1,1c0.6,0,1.1-0.5,1-1.1 c0-0.2-0.1-0.4-0.2-0.6c0.3-0.2,0.6-0.5,0.5-0.9c0-0.1,0-0.1,0-0.2l1.2,0.4l-0.1,0.7l-0.1,1.2l2.7,0.7l0.1-1.8l0.3,0.1l0.2,0 L102.6,14z"/>
<path class="mouse12" d="M52,1.4l-0.7-0.2L52,1.4z"/>
<path class="mouse12" d="M47.5,1.1L47,1L47.5,1.1z"/>
<rect x="60.3" y="21.7" class="mouse13" width="5.2" height="2.4"/>
<rect x="61.2" y="22.6" class="mouse14" width="3.4" height="0.6"/>
<rect x="60.3" y="25.2" class="mouse13" width="5.2" height="2.4"/>
<rect x="61.2" y="26.1" class="mouse14" width="3.4" height="0.6"/>
<rect x="60.1" y="28.2" class="mouse13" width="5.2" height="2.4"/>
<rect x="61" y="29.1" class="mouse14" width="3.4" height="0.6"/>
<rect x="54.4" y="28" class="mouse13" width="5.2" height="2.4"/>
<rect x="55.3" y="28.9" class="mouse14" width="3.4" height="0.6"/>
<rect x="54.4" y="24.9" class="mouse13" width="5.2" height="2.4"/>
<rect x="55.3" y="25.7" class="mouse14" width="3.4" height="0.6"/>
<rect x="54.2" y="21.7" class="mouse13" width="5.2" height="2.4"/>
<rect x="55.1" y="22.6" class="mouse14" width="3.4" height="0.6"/>
<rect x="66.6" y="21.7" class="mouse13" width="5.2" height="2.4"/>
<rect x="67.5" y="22.6" class="mouse14" width="3.4" height="0.6"/>
<rect x="66.9" y="24.9" class="mouse13" width="5.2" height="2.4"/>
<rect x="67.8" y="25.7" class="mouse14" width="3.4" height="0.6"/>
<rect x="66.9" y="28.1" class="mouse13" width="5.2" height="2.4"/>
<rect x="67.8" y="29" class="mouse14" width="3.4" height="0.6"/>
<rect x="72.6" y="28.3" class="mouse13" width="5.2" height="2.4"/>
<rect x="73.5" y="29.2" class="mouse14" width="3.4" height="0.6"/>
<rect x="78.4" y="28.4" class="mouse13" width="5.2" height="2.4"/>
<rect x="79.3" y="29.3" class="mouse14" width="3.4" height="0.6"/>
<rect x="77.9" y="25.3" class="mouse13" width="5.2" height="2.4"/>
<rect x="78.8" y="26.2" class="mouse14" width="3.4" height="0.6"/>
<rect x="72.3" y="25" class="mouse13" width="5.2" height="2.4"/>
<rect x="73.2" y="25.9" class="mouse14" width="3.4" height="0.6"/>
<rect x="72.3" y="21.8" class="mouse13" width="5.2" height="2.4"/>
<rect x="73.2" y="22.7" class="mouse14" width="3.4" height="0.6"/>
<rect x="78.2" y="22" class="mouse13" width="5.2" height="2.4"/>
<rect x="79.1" y="22.9" class="mouse14" width="3.4" height="0.6"/>
<rect x="60.5" y="31.4" class="mouse13" width="5.2" height="2.4"/>
<rect x="61.4" y="32.3" class="mouse14" width="3.4" height="0.6"/>
<rect x="60.5" y="34.9" class="mouse13" width="5.2" height="2.4"/>
<rect x="61.4" y="35.7" class="mouse14" width="3.4" height="0.6"/>
<rect x="60.4" y="37.9" class="mouse13" width="5.2" height="2.4"/>
<rect x="61.3" y="38.8" class="mouse14" width="3.4" height="0.6"/>
<rect x="54.6" y="37.7" class="mouse13" width="5.2" height="2.4"/>
<rect x="55.5" y="38.6" class="mouse14" width="3.4" height="0.6"/>
<rect x="54.6" y="34.6" class="mouse13" width="5.2" height="2.4"/>
<rect x="55.5" y="35.4" class="mouse14" width="3.4" height="0.6"/>
<rect x="54.4" y="31.4" class="mouse13" width="5.2" height="2.4"/>
<rect x="55.3" y="32.3" class="mouse14" width="3.4" height="0.6"/>
<rect x="66.9" y="31.4" class="mouse13" width="5.2" height="2.4"/>
<rect x="67.8" y="32.3" class="mouse14" width="3.4" height="0.6"/>
<rect x="67.2" y="34.6" class="mouse13" width="5.2" height="2.4"/>
<rect x="68.1" y="35.4" class="mouse14" width="3.4" height="0.6"/>
<rect x="67.1" y="37.8" class="mouse13" width="5.2" height="2.4"/>
<rect x="68" y="38.7" class="mouse14" width="3.4" height="0.6"/>
<rect x="72.9" y="38" class="mouse13" width="5.2" height="2.4"/>
<rect x="73.8" y="38.9" class="mouse14" width="3.4" height="0.6"/>
<rect x="78.7" y="38.1" class="mouse13" width="5.2" height="2.4"/>
<rect x="79.6" y="39" class="mouse14" width="3.4" height="0.6"/>
<rect x="78.2" y="35" class="mouse13" width="5.2" height="2.4"/>
<rect x="79.1" y="35.9" class="mouse14" width="3.4" height="0.6"/>
<rect x="72.6" y="34.7" class="mouse13" width="5.2" height="2.4"/>
<rect x="73.5" y="35.6" class="mouse14" width="3.4" height="0.6"/>
<rect x="72.6" y="31.5" class="mouse13" width="5.2" height="2.4"/>
<rect x="73.5" y="32.4" class="mouse14" width="3.4" height="0.6"/>
<rect x="78.4" y="31.7" class="mouse13" width="5.2" height="2.4"/>
<rect x="79.3" y="32.6" class="mouse14" width="3.4" height="0.6"/>
<rect x="60.5" y="40.8" class="mouse13" width="5.2" height="2.4"/>
<rect x="61.4" y="41.7" class="mouse14" width="3.4" height="0.6"/>
<rect x="60.5" y="44.3" class="mouse13" width="5.2" height="2.4"/>
<rect x="61.4" y="45.2" class="mouse14" width="3.4" height="0.6"/>
<rect x="60.4" y="47.4" class="mouse13" width="5.2" height="2.4"/>
<rect x="61.3" y="48.2" class="mouse14" width="3.4" height="0.6"/>
<rect x="54.6" y="47.2" class="mouse13" width="5.2" height="2.4"/>
<rect x="55.5" y="48.1" class="mouse14" width="3.4" height="0.6"/>
<rect x="54.6" y="44" class="mouse13" width="5.2" height="2.4"/>
<rect x="55.5" y="44.9" class="mouse14" width="3.4" height="0.6"/>
<rect x="54.4" y="40.8" class="mouse13" width="5.2" height="2.4"/>
<rect x="55.3" y="41.7" class="mouse14" width="3.4" height="0.6"/>
<rect x="66.9" y="40.8" class="mouse13" width="5.2" height="2.4"/>
<rect x="67.8" y="41.7" class="mouse14" width="3.4" height="0.6"/>
<rect x="67.2" y="44" class="mouse13" width="5.2" height="2.4"/>
<rect x="68.1" y="44.9" class="mouse14" width="3.4" height="0.6"/>
<rect x="67.1" y="47.3" class="mouse13" width="5.2" height="2.4"/>
<rect x="68" y="48.1" class="mouse14" width="3.4" height="0.6"/>
<rect x="72.9" y="47.5" class="mouse13" width="5.2" height="2.4"/>
<rect x="73.8" y="48.4" class="mouse14" width="3.4" height="0.6"/>
<rect x="78.7" y="47.6" class="mouse13" width="5.2" height="2.4"/>
<rect x="79.6" y="48.5" class="mouse14" width="3.4" height="0.6"/>
<rect x="78.2" y="44.5" class="mouse13" width="5.2" height="2.4"/>
<rect x="79.1" y="45.3" class="mouse14" width="3.4" height="0.6"/>
<rect x="72.6" y="44.2" class="mouse13" width="5.2" height="2.4"/>
<rect x="73.5" y="45" class="mouse14" width="3.4" height="0.6"/>
<rect x="72.6" y="41" class="mouse13" width="5.2" height="2.4"/>
<rect x="73.5" y="41.8" class="mouse14" width="3.4" height="0.6"/>
<rect x="78.4" y="41.2" class="mouse13" width="5.2" height="2.4"/>
<rect x="79.3" y="42" class="mouse14" width="3.4" height="0.6"/>
<rect x="60.6" y="50" class="mouse13" width="5.2" height="2.4"/>
<rect x="61.5" y="50.8" class="mouse14" width="3.4" height="0.6"/>
<rect x="60.6" y="53.4" class="mouse13" width="5.2" height="2.4"/>
<rect x="61.5" y="54.3" class="mouse14" width="3.4" height="0.6"/>
<rect x="60.4" y="56.5" class="mouse13" width="5.2" height="2.4"/>
<rect x="61.3" y="57.4" class="mouse14" width="3.4" height="0.6"/>
<rect x="54.7" y="56.3" class="mouse13" width="5.2" height="2.4"/>
<rect x="55.6" y="57.2" class="mouse14" width="3.4" height="0.6"/>
<rect x="54.7" y="53.1" class="mouse13" width="5.2" height="2.4"/>
<rect x="55.6" y="54" class="mouse14" width="3.4" height="0.6"/>
<rect x="54.5" y="50" class="mouse13" width="5.2" height="2.4"/>
<rect x="55.4" y="50.8" class="mouse14" width="3.4" height="0.6"/>
<rect x="66.9" y="50" class="mouse13" width="5.2" height="2.4"/>
<rect x="67.8" y="50.8" class="mouse14" width="3.4" height="0.6"/>
<rect x="67.2" y="53.1" class="mouse13" width="5.2" height="2.4"/>
<rect x="68.1" y="54" class="mouse14" width="3.4" height="0.6"/>
<rect x="67.2" y="56.4" class="mouse13" width="5.2" height="2.4"/>
<rect x="68.1" y="57.2" class="mouse14" width="3.4" height="0.6"/>
<rect x="72.9" y="56.6" class="mouse13" width="5.2" height="2.4"/>
<rect x="73.8" y="57.5" class="mouse14" width="3.4" height="0.6"/>
<rect x="78.7" y="56.7" class="mouse13" width="5.2" height="2.4"/>
<rect x="79.6" y="57.6" class="mouse14" width="3.4" height="0.6"/>
<rect x="78.2" y="53.6" class="mouse13" width="5.2" height="2.4"/>
<rect x="79.2" y="54.5" class="mouse14" width="3.4" height="0.6"/>
<rect x="72.6" y="53.3" class="mouse13" width="5.2" height="2.4"/>
<rect x="73.5" y="54.2" class="mouse14" width="3.4" height="0.6"/>
<rect x="72.6" y="50.1" class="mouse13" width="5.2" height="2.4"/>
<rect x="73.5" y="51" class="mouse14" width="3.4" height="0.6"/>
<rect x="78.5" y="50.3" class="mouse13" width="5.2" height="2.4"/>
<rect x="79.4" y="51.1" class="mouse14" width="3.4" height="0.6"/>
<rect x="84.4" y="28.2" class="mouse13" width="5.2" height="2.4"/>
<rect x="85.3" y="29.1" class="mouse14" width="3.4" height="0.6"/>
<rect x="84" y="25.1" class="mouse13" width="5.2" height="2.4"/>
<rect x="84.9" y="25.9" class="mouse14" width="3.4" height="0.6"/>
<rect x="84.2" y="21.8" class="mouse13" width="5.2" height="2.4"/>
<rect x="85.1" y="22.6" class="mouse14" width="3.4" height="0.6"/>
<rect x="84.7" y="37.9" class="mouse13" width="5.2" height="2.4"/>
<rect x="85.6" y="38.8" class="mouse14" width="3.4" height="0.6"/>
<rect x="84.2" y="34.8" class="mouse13" width="5.2" height="2.4"/>
<rect x="85.1" y="35.6" class="mouse14" width="3.4" height="0.6"/>
<rect x="84.4" y="31.4" class="mouse13" width="5.2" height="2.4"/>
<rect x="85.3" y="32.3" class="mouse14" width="3.4" height="0.6"/>
<rect x="84.7" y="47.3" class="mouse13" width="5.2" height="2.4"/>
<rect x="85.6" y="48.2" class="mouse14" width="3.4" height="0.6"/>
<rect x="84.2" y="44.2" class="mouse13" width="5.2" height="2.4"/>
<rect x="85.1" y="45.1" class="mouse14" width="3.4" height="0.6"/>
<rect x="84.4" y="40.9" class="mouse13" width="5.2" height="2.4"/>
<rect x="85.3" y="41.8" class="mouse14" width="3.4" height="0.6"/>
<rect x="84.8" y="56.5" class="mouse13" width="5.2" height="2.4"/>
<rect x="85.7" y="57.3" class="mouse14" width="3.4" height="0.6"/>
<rect x="84.3" y="53.3" class="mouse13" width="5.2" height="2.4"/>
<rect x="85.2" y="54.2" class="mouse14" width="3.4" height="0.6"/>
<rect x="84.5" y="50" class="mouse13" width="5.2" height="2.4"/>
<rect x="85.4" y="50.9" class="mouse14" width="3.4" height="0.6"/>
<rect x="89.8" y="28.5" class="mouse13" width="5.2" height="2.4"/>
<rect x="90.7" y="29.4" class="mouse14" width="3.4" height="0.6"/>
<rect x="90.1" y="38.2" class="mouse13" width="5.2" height="2.4"/>
<rect x="91" y="39.1" class="mouse14" width="3.4" height="0.6"/>
<rect x="89.6" y="35.1" class="mouse13" width="5.2" height="2.4"/>
<rect x="90.5" y="35.9" class="mouse14" width="3.4" height="0.6"/>
<rect x="89.8" y="31.7" class="mouse13" width="5.2" height="2.4"/>
<rect x="90.7" y="32.6" class="mouse14" width="3.4" height="0.6"/>
<rect x="90.1" y="47.6" class="mouse13" width="5.2" height="2.4"/>
<rect x="91" y="48.5" class="mouse14" width="3.4" height="0.6"/>
<rect x="89.6" y="44.5" class="mouse13" width="5.2" height="2.4"/>
<rect x="90.5" y="45.4" class="mouse14" width="3.4" height="0.6"/>
<rect x="89.8" y="41.2" class="mouse13" width="5.2" height="2.4"/>
<rect x="90.7" y="42.1" class="mouse14" width="3.4" height="0.6"/>
<rect x="90.1" y="56.8" class="mouse13" width="5.2" height="2.4"/>
<rect x="91" y="57.6" class="mouse14" width="3.4" height="0.6"/>
<rect x="89.6" y="53.6" class="mouse13" width="5.2" height="2.4"/>
<rect x="90.5" y="54.5" class="mouse14" width="3.4" height="0.6"/>
<rect x="89.8" y="50.3" class="mouse13" width="5.2" height="2.4"/>
<rect x="90.8" y="51.2" class="mouse14" width="3.4" height="0.6"/>
<rect x="89.8" y="25.6" class="mouse13" width="5.2" height="2.4"/>
<rect x="90.7" y="26.5" class="mouse14" width="3.4" height="0.6"/>
<rect x="95.4" y="25.6" class="mouse13" width="5.2" height="2.4"/>
<rect x="96.3" y="26.5" class="mouse14" width="3.4" height="0.6"/>
<rect x="95.4" y="47.5" class="mouse13" width="5.2" height="2.4"/>
<rect x="96.3" y="48.4" class="mouse14" width="3.4" height="0.6"/>
<rect x="95.2" y="50.1" class="mouse13" width="5.2" height="2.4"/>
<rect x="96.1" y="51" class="mouse14" width="3.4" height="0.6"/>
<rect x="95.2" y="53.5" class="mouse13" width="5.2" height="2.4"/>
<rect x="96.1" y="54.4" class="mouse14" width="3.4" height="0.6"/>
<rect x="103.9" y="18.2" class="mouse14" width="0.9" height="40.8"/>
<rect x="102.5" y="18.2" class="mouse14" width="0.9" height="40.8"/>
<rect x="101" y="18.2" class="mouse14" width="0.9" height="40.8"/>
<rect x="52.8" y="18.2" class="mouse14" width="0.9" height="40.8"/>
<rect x="51.4" y="18.2" class="mouse14" width="0.9" height="40.8"/>
<rect x="49.9" y="18.2" class="mouse14" width="0.9" height="40.8"/>
</g>
</svg></svg><svg class="title" version="1.1" viewBox="0 0 420 70" xmlns="http://www.w3.org/2000/svg" preserveAspectRatio="xMinYMin" width="1920" height="90">
<polygon fill="#222" points="359.21,60 0,60 0,0 398.11,0"/>
<polygon fill="#AB1F1F" points="402.87,0 361.38,64 0,64 0,70 374.62,70 420,0"/>
<path fill="#AB1F1F" d="M55.03,42.15l1.3-1.92L54.87,25.2l-1.76-1.1c-0.26-7.65-6.76-13.81-14.81-13.96v0l-0.1,0l-0.06,0 l-0.06,0l-0.1,0v0c-8,0.15-14.47,6.24-14.8,13.82L21.2,25.2l-1.47,15.03l1.47,2.17l-0.11,1.23L22,43.7l10.48,6.1l0.12,0.07h11.09 l10.6-6.17l0.91-0.07L55.03,42.15z M23.23,43.25c0.17-1.01,0.61-3.46,1.22-4.83c0.79-1.78,2.3-3.75,4.02-3.44 c1.32,0.24,3.88,6.25,4.24,13.78L23.23,43.25z M41.04,48.87v-19c0,0,3.22-0.3,4.79-0.66c1.91-0.44,6.66-1.97,6.66-1.97l-0.07-1.11 c0,0-4.38,0.75-6.6,0.98c-2.17,0.23-5.13,0.54-7.69,0.54c-2.56,0-5.53-0.31-7.69-0.54c-2.21-0.24-6.6-0.98-6.6-0.98l-0.07,1.11 c0,0,4.75,1.53,6.66,1.97c1.57,0.36,4.79,0.66,4.79,0.66v19h-2.37l-0.15-0.09c-0.01-0.16-0.01-0.34-0.02-0.53 c0-0.06,0-0.11-0.01-0.18c0-0.03,0-0.07,0-0.1c-0.09-2.17-0.3-6.02-0.65-8.4c0-0.02-0.01-0.04-0.01-0.06 c-0.03-0.2-0.06-0.39-0.09-0.56c-0.03-0.19-0.07-0.37-0.11-0.53c-0.49-2.08-1.49-4.29-3.03-5.71c-0.09-0.09-0.2-0.17-0.31-0.26 c-0.1-0.08-0.21-0.15-0.33-0.23c-0.01-0.01-0.02-0.01-0.03-0.02c-1.91-1.24-5.53-2.35-5.53-2.35l0.16-1.56l0.41-3.73 c0.29,0.04,4.85,0.63,7.19,0.77c2.27,0.14,6.86,0.18,7.77,0.18c0.9-0.01,5.5-0.04,7.77-0.18c2.1-0.13,5.99-0.62,6.98-0.75 l0.59,5.33c-0.84,0.27-4.15,1.37-5.69,2.53c-0.11,0.08-0.2,0.16-0.29,0.24c0,0-0.01,0.01-0.01,0.01c-0.77,0.71-1.4,1.62-1.91,2.61 c-0.38,0.74-0.68,1.53-0.91,2.32c-0.08,0.26-0.15,0.52-0.21,0.78c-0.04,0.16-0.07,0.33-0.11,0.53c-0.03,0.15-0.05,0.32-0.08,0.49 c-0.01,0.04-0.01,0.08-0.02,0.13c-0.38,2.59-0.59,6.94-0.67,8.95c0,0.03,0,0.07,0,0.1c0,0.04,0,0.06,0,0.09c0,0.03,0,0.05,0,0.07 l-0.15,0.09H41.04z M43.58,48.77c0.36-7.53,2.92-13.54,4.24-13.78c1.71-0.31,3.23,1.66,4.02,3.44c0.61,1.37,1.06,3.82,1.22,4.83 L43.58,48.77z"/>
<g fill="#AAA">
<path d="M66.6,15.12l7.96,0.06l-0.05,6.68l-4.85,10.47l-0.08,11.46l-2.39-0.02l0.08-11.78l4.85-10.47l0.03-3.66 l-5.57-0.04L66.6,15.12z"/>
<path d="M77.65,27.64l2.06-12.43l0.41,0l-0.16,21.99l-2.36-4.47L77.65,27.64z M80.98,29.54l1.06-14.32l0.32,0 l1.01,14.33l-0.1,14.32l-2.39-0.02L80.98,29.54z"/>
<path d="M86.54,30.25l2.41-2.85l-0.05,6.68l-2.38-0.97L86.54,30.25z M89.99,15.28l4.61,0.03l-0.02,2.39l-2.23-0.02 l-0.19,26.26l-2.39-0.02L89.99,15.28z"/>
<path d="M97.79,15.34l2.39,0.02l-0.19,26.26l1.59,0.01l0.17-23.87l-0.79-0.96l0.01-1.43l3.98,0.03l-0.01,1.43 l-0.8,0.95l-0.17,23.87l2.23,0.02l-0.02,2.39l-8.59-0.06L97.79,15.34z"/>
<path d="M116.52,44.12l-2.39-0.02l0.08-10.66l-2.39-0.02l-0.03,3.98l-2.39-0.02l0.15-20.37l3.66,0.03l-0.01,1.43 l-1.28,0.95l-0.08,11.62l2.39,0.02l0.11-15.6l2.39,0.02L116.52,44.12z"/>
<path d="M132.35,38.98l4.87-4.8l-0.03,4.84L132.35,38.98z M138.39,39.02l4.87-4.8l-0.03,4.84L138.39,39.02z M142.19,41.6l5.57,0.04l0.03-3.66l-4.7-10.54l0.08-11.78l2.39,0.02l-0.08,11.46l4.7,10.54l-0.05,6.68l-7.96-0.06L142.19,41.6z"/>
<path d="M160.47,44.43l-2.39-0.02l0.08-10.66l-2.39-0.02l-0.03,3.98l-2.39-0.02l0.15-20.37l3.66,0.03l-0.01,1.43 l-1.28,0.95l-0.08,11.62l2.39,0.02l0.11-15.6l2.39,0.02L160.47,44.43z"/>
<path d="M171.61,44.51l-7.96-0.06l0.05-6.68l4.85-10.47l0.08-11.46l2.39,0.02l-0.08,11.78l-4.85,10.47l-0.03,3.66 l5.57,0.04L171.61,44.51z"/>
<path d="M174.91,28.34l2.06-12.43l0.41,0l-0.16,21.99l-2.36-4.47L174.91,28.34z M178.24,30.24l1.06-14.32l0.32,0 l1.01,14.33l-0.1,14.32l-2.39-0.02L178.24,30.24z"/>
<path d="M188.41,23.28l-0.15,21.36l-2.39-0.02l0.04-5.73l-1.5-0.01l0.02-2.39l1.5,0.01l0.03-4.61l-1.5-0.01 l0.02-2.39l1.5,0.01l0.04-5.19c-0.7,0.21-1.42,0.34-2.17,0.4l0.05-2.39c0.72-0.06,1.43-0.22,2.14-0.49l0.04-5.86l2.39,0.02 l-0.03,4.52c1.39-1.05,2.7-2.53,3.95-4.43l2.39,0.02C192.92,19.48,190.8,21.87,188.41,23.28z"/>
<path d="M202.78,16.47l-4.87,4.8l0.03-4.84L202.78,16.47z"/>
<path d="M205.88,28.56l2.06-12.43l0.41,0l-0.16,21.99l-2.36-4.47L205.88,28.56z M209.21,30.46l1.06-14.32l0.32,0 l1.01,14.33l-0.1,14.32l-2.39-0.02L209.21,30.46z"/>
<path d="M214.88,16.18l2.39,0.02l-0.19,26.26l1.59,0.01l0.17-23.87l-0.79-0.96l0.01-1.43l3.98,0.03l-0.01,1.43 l-0.8,0.95l-0.17,23.87l2.23,0.02l-0.02,2.39l-8.59-0.06L214.88,16.18z"/>
</g>
<g fill="#AAA">
<path d="M243.85,34.96V26.8l-3.63,6.31h-0.57l-3.63-6.31v8.16h-0.98v-9.94h1.01l3.88,6.8l3.91-6.8h0.99v9.94H243.85 z"/>
<path d="M250.4,25.02h0.83l4.13,9.94h-1.04l-1.29-3.11h-4.47l-1.27,3.11h-1.05L250.4,25.02z M252.81,31.08l-2-4.91 l-2.03,4.91H252.81z"/>
<path d="M257.77,26.84v8.12h-0.98v-9.94h0.76l6.58,8.27v-8.26h0.98v9.93h-0.85L257.77,26.84z"/>
<path d="M267.59,34.96v-9.94h3.37c0.79,0,1.49,0.13,2.08,0.39c0.59,0.26,1.09,0.62,1.48,1.06 c0.4,0.45,0.7,0.97,0.9,1.57c0.2,0.6,0.3,1.24,0.3,1.93c0,0.76-0.11,1.44-0.34,2.05c-0.22,0.61-0.54,1.13-0.96,1.57 c-0.42,0.43-0.91,0.77-1.5,1.01c-0.58,0.24-1.24,0.36-1.97,0.36H267.59z M274.75,29.98c0-0.6-0.08-1.15-0.25-1.65 c-0.17-0.5-0.41-0.93-0.73-1.29c-0.32-0.36-0.72-0.65-1.18-0.85s-1-0.3-1.61-0.3h-2.39v8.2h2.39c0.62,0,1.16-0.1,1.63-0.31 s0.87-0.5,1.18-0.87c0.32-0.37,0.56-0.8,0.72-1.3C274.67,31.11,274.75,30.57,274.75,29.98z"/>
<path d="M281.61,35.03c-0.69,0-1.32-0.14-1.9-0.43c-0.57-0.28-1.07-0.66-1.48-1.13c-0.41-0.47-0.73-1.01-0.95-1.62 c-0.22-0.61-0.34-1.23-0.34-1.86c0-0.66,0.12-1.3,0.36-1.9c0.24-0.61,0.57-1.14,0.99-1.61s0.91-0.84,1.48-1.11 c0.57-0.27,1.19-0.41,1.85-0.41c0.69,0,1.32,0.15,1.9,0.44c0.57,0.29,1.06,0.68,1.47,1.15c0.41,0.48,0.72,1.02,0.95,1.62 c0.22,0.6,0.34,1.22,0.34,1.84c0,0.66-0.12,1.3-0.36,1.9c-0.24,0.61-0.56,1.14-0.98,1.6c-0.42,0.46-0.91,0.83-1.48,1.11 C282.89,34.9,282.27,35.03,281.61,35.03z M277.92,29.99c0,0.54,0.09,1.06,0.27,1.56c0.18,0.5,0.43,0.94,0.76,1.33 c0.33,0.39,0.71,0.7,1.16,0.92c0.45,0.23,0.95,0.34,1.5,0.34c0.56,0,1.07-0.12,1.53-0.36s0.84-0.56,1.16-0.95 s0.56-0.84,0.73-1.33c0.17-0.49,0.26-1,0.26-1.51c0-0.54-0.09-1.06-0.27-1.56c-0.18-0.5-0.44-0.94-0.76-1.32 s-0.71-0.69-1.16-0.92c-0.45-0.23-0.94-0.34-1.48-0.34c-0.56,0-1.07,0.12-1.53,0.36c-0.46,0.24-0.84,0.55-1.16,0.94 s-0.56,0.84-0.73,1.33C278.01,28.98,277.92,29.48,277.92,29.99z"/>
<path d="M291.03,29.92c0-0.6,0.1-1.19,0.31-1.79c0.21-0.59,0.52-1.12,0.92-1.59c0.4-0.47,0.9-0.85,1.48-1.14 c0.59-0.29,1.25-0.44,2-0.44c0.89,0,1.65,0.2,2.27,0.6s1.09,0.92,1.39,1.57l-0.77,0.48c-0.16-0.33-0.35-0.6-0.58-0.83 c-0.23-0.22-0.47-0.41-0.73-0.55c-0.26-0.14-0.53-0.24-0.81-0.3c-0.28-0.06-0.56-0.09-0.83-0.09c-0.6,0-1.13,0.12-1.58,0.36 c-0.46,0.24-0.84,0.56-1.15,0.95c-0.31,0.39-0.55,0.83-0.71,1.32c-0.16,0.49-0.24,0.99-0.24,1.49c0,0.55,0.1,1.08,0.29,1.58 c0.19,0.5,0.45,0.95,0.78,1.34c0.33,0.39,0.72,0.7,1.18,0.92c0.45,0.23,0.94,0.34,1.48,0.34c0.28,0,0.57-0.04,0.86-0.1 c0.29-0.07,0.58-0.18,0.85-0.34c0.28-0.15,0.53-0.35,0.76-0.57c0.23-0.23,0.43-0.51,0.59-0.83l0.81,0.42 c-0.16,0.37-0.38,0.7-0.67,0.99c-0.29,0.28-0.61,0.52-0.97,0.72c-0.35,0.2-0.73,0.35-1.13,0.45c-0.4,0.1-0.79,0.15-1.17,0.15 c-0.68,0-1.31-0.15-1.88-0.45c-0.57-0.3-1.06-0.69-1.47-1.17c-0.41-0.48-0.73-1.03-0.96-1.64 C291.14,31.18,291.03,30.56,291.03,29.92z"/>
<path d="M301.29,34.96v-9.94h4.2c0.43,0,0.82,0.09,1.18,0.27s0.67,0.42,0.93,0.71s0.46,0.63,0.61,1 c0.14,0.37,0.22,0.75,0.22,1.13c0,0.36-0.05,0.71-0.16,1.04c-0.11,0.33-0.26,0.63-0.45,0.9s-0.42,0.49-0.69,0.67 c-0.27,0.18-0.57,0.31-0.91,0.37l2.44,3.84h-1.11l-2.34-3.67h-2.94v3.67H301.29z M302.27,30.43h3.25c0.29,0,0.55-0.06,0.79-0.19 c0.24-0.13,0.44-0.3,0.61-0.51s0.3-0.46,0.39-0.73c0.09-0.27,0.14-0.56,0.14-0.85c0-0.3-0.05-0.59-0.16-0.86 c-0.11-0.27-0.25-0.52-0.43-0.72s-0.4-0.37-0.64-0.49c-0.25-0.12-0.51-0.18-0.78-0.18h-3.16V30.43z"/>
<path d="M317.11,34.09v0.87h-6.68v-9.94h6.55v0.87h-5.57v3.58h4.86v0.83h-4.86v3.79H317.11z"/>
<path d="M322.04,25.02h0.83l4.13,9.94h-1.04l-1.29-3.11h-4.47l-1.27,3.11h-1.05L322.04,25.02z M324.45,31.08 l-2-4.91l-2.03,4.91H324.45z"/>
<path d="M334.5,25.89h-3.54v9.07h-0.98v-9.07h-3.54v-0.87h8.06V25.89z"/>
<path d="M339.52,35.03c-0.69,0-1.32-0.14-1.9-0.43c-0.57-0.28-1.07-0.66-1.48-1.13c-0.41-0.47-0.73-1.01-0.95-1.62 c-0.22-0.61-0.34-1.23-0.34-1.86c0-0.66,0.12-1.3,0.36-1.9c0.24-0.61,0.57-1.14,0.99-1.61s0.91-0.84,1.48-1.11 c0.57-0.27,1.19-0.41,1.85-0.41c0.69,0,1.32,0.15,1.9,0.44c0.57,0.29,1.06,0.68,1.47,1.15c0.41,0.48,0.72,1.02,0.95,1.62 c0.22,0.6,0.34,1.22,0.34,1.84c0,0.66-0.12,1.3-0.36,1.9c-0.24,0.61-0.56,1.14-0.98,1.6c-0.42,0.46-0.91,0.83-1.48,1.11 C340.8,34.9,340.19,35.03,339.52,35.03z M335.84,29.99c0,0.54,0.09,1.06,0.27,1.56c0.18,0.5,0.43,0.94,0.76,1.33 c0.33,0.39,0.71,0.7,1.16,0.92c0.45,0.23,0.95,0.34,1.5,0.34c0.56,0,1.07-0.12,1.53-0.36s0.84-0.56,1.16-0.95 s0.56-0.84,0.73-1.33c0.17-0.49,0.26-1,0.26-1.51c0-0.54-0.09-1.06-0.27-1.56c-0.18-0.5-0.44-0.94-0.76-1.32 s-0.71-0.69-1.16-0.92c-0.45-0.23-0.94-0.34-1.48-0.34c-0.56,0-1.07,0.12-1.53,0.36c-0.46,0.24-0.84,0.55-1.16,0.94 s-0.56,0.84-0.73,1.33C335.93,28.98,335.84,29.48,335.84,29.99z"/>
<path d="M346.03,34.96v-9.94h4.2c0.43,0,0.82,0.09,1.18,0.27s0.67,0.42,0.93,0.71s0.46,0.63,0.61,1 c0.14,0.37,0.22,0.75,0.22,1.13c0,0.36-0.05,0.71-0.16,1.04c-0.11,0.33-0.26,0.63-0.45,0.9s-0.42,0.49-0.69,0.67 c-0.27,0.18-0.57,0.31-0.91,0.37l2.44,3.84h-1.11l-2.34-3.67h-2.94v3.67H346.03z M347.01,30.43h3.25c0.29,0,0.55-0.06,0.79-0.19 c0.24-0.13,0.44-0.3,0.61-0.51s0.3-0.46,0.39-0.73c0.09-0.27,0.14-0.56,0.14-0.85c0-0.3-0.05-0.59-0.16-0.86 c-0.11-0.27-0.25-0.52-0.43-0.72s-0.4-0.37-0.64-0.49c-0.25-0.12-0.51-0.18-0.78-0.18h-3.16V30.43z"/>
</g>
</svg><metadata><rdf:rdf xmlns:rdf="http://www.w3.org/1999/02/22-rdf-syntax-ns#" xmlns:rdfs="http://www.w3.org/2000/01/rdf-schema#" xmlns:dc="http://purl.org/dc/elements/1.1/"> <rdf:description> <dc:creator>MandoCreator</dc:creator> <dc:publisher>https://www.mandocreator.com</dc:publisher> <dc:description>Your Beskar'gam - created by MandoCreator</dc:description> <dc:format>image/svg+xml</dc:format> <dc:type>Image</dc:type> <dc:title>MandoCreator - Ner Berskar'gam</dc:title> <dc:date>2021-10-08T16:57:47.830Z</dc:date> </rdf:description> </rdf:rdf></metadata><svg version="1.1" id="Female" xmlns="http://www.w3.org/2000/svg" viewBox="0 -55 169 300" style="fill: white; fill-rule: evenodd; stroke: black; stroke-width: 0.2px; pointer-events: none; position: relative; height: 100%;">
<g id="Extras_Back">
<g id="Back">
<path id="Torn-Full-Cape_Back" class="option" d="M67.8,17.9C55.9,22.4,42.7,44,41,60.4c-1,10.4-6.1,20.9-5.6,31.2 c0.5,10.5-4.8,21.3-5.2,31.8c-0.3,9.4-3.1,13.7-4.7,23c-2.4,13.9-5.1,23.1-7.3,37.1c-1.7,11.1-6.9,20.3-9.4,23.7 c-0.1,0.1,2.5-1.2,5.7-1.3c0.9,0,5.6-6.8,5.6-6.8s5.8,4.8,7,7.5c1.6-1,2.8-15.4,4.5-16c0.9-0.3,2.7,18.1,2.7,18.1s2.8-5.5,3.9-5.5 c2.3,0,6.5,2,8.8,2.3c2.5,0.3,5.1-3.9,7.8-3.2c4.2,1,8.4,0.9,12.5,1.5c2.9,0.4,5.9,6.1,8.9,6.1c3.7,0,3.1-8.6,6.9-9.4 c3.2-0.7,7.6,6.9,7.6,6.9s1-25.4,4.2-26.4c4.1-1.4,19.7,19.1,24,18.7c1.3-0.1,2.9-12.9,4.2-12.9c2.7,0.1,5.1,13.2,7.8,13.7 c3.4,0.6,5-5.7,8.4-4.9c0.9,0.2,3.6,7.7,4.5,7.9c2.1,0.5,4.9,1.7,7.1,1.6c0.1,0-0.7-5-0.8-5.5c-0.5-2.4-1.2-4.7-2.2-7 c-1.1-2.7-2.5-5.3-4.1-7.7c-7.2-11.4-4.7-23.8-6-37.2c-1.3-13,0.1-26-2.1-39c-1.9-11.5-8.7-22.2-10.4-33.8 c-2-13.6-6.6-28.2-10.7-41.4C109.4,17.6,79.7,13.4,67.8,17.9z M71.1,190.4c-1,2.5-1.3,5-1.1,7.7c0.1,1.2,0.5,2.4,1.1,3.5 c0.1,0.1,0.1,0.4,0.2,0.3C75.8,197.9,71.1,190.4,71.1,190.4z M36.2,165.8c-0.4,7.9-1.1,15.8-1.1,23.6c0,1.5,0,2.9,0.2,4.4 c0,0.2,0.2,2.4,0.4,2.4c2.7-0.5,1.4-7.8,2-10.1C39.8,178.3,36.2,165.8,36.2,165.8z M129.5,193.1c-0.2,2.8,0.6,2.5,1.4,1.1 c0.7-1.4,1.3-4,0.6-5.6L129.5,193.1z M117.9,168.3c-0.7,4.7,0.4,8.7,0.7,13.4c0.1,1.5,0.1,3,0.1,4.5c0,0.5,0,1,0,1.5 c0,0.3-0.2,1,0,0.8c3.6-3.7,3.2-10.9,2-15.5L117.9,168.3z M75.3,182.2c0,1.2,0,2.5,0.1,3.7c0.3,2.4,1.7-1.4,1.7-2.4 c0-1.3-0.9-2.9-1.2-4.2L75.3,182.2z" style="fill: rgb(52, 38, 25); display: inherit;"/></g>
</g>
<g id="Suit">
<g id="Neck-Seal">

<g id="Standard-Neck-Seal" class="option" style="fill: rgb(32, 31, 31); display: inherit;">
<path d="M95.2,8.5c0-0.9-0.7-1.7-1.6-1.7c0,0-6.1,0.9-9.1,0.9c-3,0-9.1-0.9-9.1-0.9c-0.9,0-1.6,0.7-1.6,1.7 c0,0.9,0.7,1.6,1.6,1.6c0,0,6.1,0.9,9.1,0.9c3,0,9.1-0.9,9.1-0.9C94.4,10.1,95.2,9.4,95.2,8.5z"/>
<path d="M95.7,10.4c0-1-0.8-1.7-1.7-1.7c0,0-6.4,0.9-9.5,0.9s-9.5-0.9-9.5-0.9c-0.9,0-1.7,0.8-1.7,1.7 c0,1,0.8,1.7,1.7,1.7c0,0,6.4,0.9,9.5,0.9s9.5-0.9,9.5-0.9C95,12.1,95.7,11.3,95.7,10.4z"/>
<path d="M96.3,12.8c0-1-0.8-1.8-1.8-1.8c0,0-6.7,1-10.1,1c-3.4,0-10.1-1-10.1-1c-1,0-1.8,0.8-1.8,1.8 s0.8,1.8,1.8,1.8c0,0,6.7,1,10.1,1c3.4,0,10.1-1,10.1-1C95.5,14.6,96.3,13.8,96.3,12.8z"/>
<path d="M96.9,15c0-1.1-0.8-1.9-1.9-1.9c0,0-7,1-10.6,1c-3.5,0-10.6-1-10.6-1c-1,0-1.9,0.9-1.9,1.9 c0,1.1,0.8,1.9,1.9,1.9c0,0,7,1,10.6,1c3.5,0,10.6-1,10.6-1C96.1,16.9,96.9,16,96.9,15z"/>
<path d="M97.5,17.1c0-0.8-0.9-1.5-2-1.5c0,0-7.4,0.8-11.1,0.8c-3.7,0-11.1-0.8-11.1-0.8c-1.1,0-2,0.6-2,1.5 c0,0.8,0.9,1.5,2,1.5c0,0,7.4,0.8,11.1,0.8c3.7,0,11.1-0.8,11.1-0.8C96.6,18.6,97.5,17.9,97.5,17.1z"/>
<path d="M97.5,19.6c0-0.8-0.9-1.5-2-1.5c0,0-7.4,0.8-11.1,0.8c-3.7,0-11.1-0.8-11.1-0.8c-1.1,0-2,0.6-2,1.5 c0,0.8,0.9,1.4,2,1.4c0,0,7.4,1.5,11.1,1.5c3.7,0,11.1-1.5,11.1-1.5C96.6,21,97.5,20.4,97.5,19.6z"/>
</g>
</g>
<g id="Flight-Suit" style="fill: rgb(32, 31, 31);">
<path d="M38.9,64l5.1-18.4l11.8-8l1.8,16.1c0,0-5.1,9.7-6.9,14.2c-1.8,4.6-5,15.1-5.4,16.5l-2.8,24.4l-8.1-2.6 c0,0-0.3-16.9,0.4-24C35.5,76,38.9,64,38.9,64z"/>
<path d="M130.1,64l-5.1-18.5l-11.7-7.9l-1.9,16.2c0,0,5.1,9.6,6.8,14.1c1.8,4.6,5,15.1,5.4,16.5l2.8,24.4l8.1-2.6 c0,0,0.3-16.9-0.4-24C133.5,76,130.1,64,130.1,64z"/>
<path d="M84.5,116.1c-1,0.1-1.9,0.5-2.2,1.2c-2.9,6.2-8.9,34.4-10.7,39.6c-0.9,2.8-1.7,18.3-3.3,27.3 c-1.9,10.8-8.2,37.3-8.2,37.3l-10.9-1.1c0,0-1.4-26.6-1-36.3c0.3-7.4,3.3-21.8,3.3-21.8s0.7-5.3,0.7-7.9c0.1-9.6,0.9-31,2.8-43.3 c1.5-9.7,10.6-30.1,10.6-30.1s11.9,4.7,18.8,4.7c7,0,18.9-4.8,18.9-4.8s8.6,20.5,10.1,30.2c1.9,12.3,3.2,33.7,3.2,43.3 c0,2.7,0.7,7.9,0.7,7.9s3,14.5,3.3,21.8c0.4,9.7-1,36.3-1,36.3l-10.9,1.1c0,0-6.3-26.5-8.2-37.3c-1.6-9-2.3-24.5-3.3-27.3 c-1.7-5.2-7.7-33.4-10.7-39.6C86.5,116.6,85.6,116.2,84.5,116.1L84.5,116.1z"/>
</g>
<g id="Sleeves" class="toggle" style="fill: rgb(47, 44, 44);">
<path d="M42.6,45.6l0.8,0.3l12.4-8.3c0,0,0.4,8.8,1.4,14.1c0.1,0.7,0.4,1.7,0.6,2.7l-1.6,5.3c0,0-5.6-2.2-8.1-3.6 c-2.4-1.4-6.7-5-6.7-5L42.6,45.6z"/>
<path d="M111.3,54.4c0.3-1.1,0.5-2,0.6-2.7c1-5.3,1.4-14.1,1.4-14.1l12.4,8.3l0.8-0.3l1.2,5.5c0,0-4.3,3.6-6.7,5 c-2.5,1.4-8.1,3.6-8.1,3.6L111.3,54.4z"/>
</g>
</g>
<g id="Boots">

<g id="Gunslinger_Boots" class="option" style="display: inherit;">
<g id="Main_Gunslinger-Boot" style="fill: rgb(32, 31, 31);">
<path d="M62.4,227.8c0,0.2-0.6,3-3.8,3.8c-1,0.3-2.8-0.3-4-0.9c-1.5-0.8-3.2-1.4-4.8-1.9l0,0.1c0,0,0,0.1-0.1,0.1 c-0.5,0.7-1.1,1.4-1.7,2l0,0l0,0c-0.1,0.1-0.1,0.1-0.2,0.2c-0.4,0.3-0.7,0.7-1.1,1l-0.1,0.1l-0.1,0.1c0,0-0.1,0-0.1,0.1 c-0.1,0-0.1,0.1-0.2,0.1c-0.8,0.6-1.8,1.4-2.9,1.2c-1-0.1-2.1-0.5-2.9-0.9c-0.7-0.3-1.4-0.8-1.9-1.2c-0.1-0.1-0.3-0.2-0.3-0.4 c-2.3,0.9-4.7,1.2-5.9,3.8c-0.3,0.5-0.5,1.2-0.4,1.8c0.1,0.8,0.9,0.9,1.6,1.1c1.7,0.4,3.1,0.8,5.1,1.2c2.2,0.5,4.2,0.7,6.4,0.6 c1.7-0.1,3.1-0.2,4.5-1.1c0.6-0.4,1.2-0.7,1.7-1.2c1.1-1.1,1.9-2.2,3.3-2.8c1.1-0.5,2.2-0.9,3.3-1.1c1.6-0.4,3.3-0.7,4.1-2.3 C62.6,230.1,62.6,228.9,62.4,227.8L62.4,227.8"/>
<path d="M106.7,227.8c0,0.2,0.6,3,3.8,3.8c1,0.3,2.8-0.3,4-0.9c1.5-0.8,3.2-1.4,4.8-1.9l0,0.1c0,0,0,0.1,0.1,0.1 c0.5,0.7,1.1,1.4,1.7,2l0,0l0,0c0.1,0.1,0.1,0.1,0.2,0.2c0.4,0.3,0.7,0.7,1.1,1l0.1,0.1l0.1,0.1c0,0,0.1,0,0.1,0.1 c0.1,0,0.1,0.1,0.2,0.1c0.8,0.6,1.8,1.4,2.9,1.2c1-0.1,2.1-0.5,2.9-0.9c0.7-0.3,1.4-0.8,1.9-1.2c0.1-0.1,0.3-0.2,0.3-0.4 c2.3,0.9,4.7,1.2,5.9,3.8c0.3,0.5,0.5,1.2,0.4,1.8c-0.1,0.8-0.9,0.9-1.6,1.1c-1.7,0.4-3.1,0.8-5.1,1.2c-2.2,0.5-4.2,0.7-6.4,0.6 c-1.7-0.1-3.1-0.2-4.5-1.1c-0.6-0.4-1.2-0.7-1.7-1.2c-1.1-1.1-1.9-2.2-3.3-2.8c-1.1-0.5-2.2-0.9-3.3-1.1 c-1.6-0.4-3.3-0.7-4.1-2.3C106.4,230.1,106.5,228.9,106.7,227.8L106.7,227.8"/>
</g>
<g id="Bottom_Gunslinger-Boot" style="fill: rgb(0, 0, 0);">
<path d="M62.4,230c-0.1,0.4-0.2,0.9-0.5,1.3c-0.8,1.6-2.6,1.9-4.1,2.3c-1.1,0.3-2.2,0.7-3.3,1.1 c-1.5,0.6-2.2,1.7-3.3,2.8c-0.5,0.5-1.1,0.8-1.7,1.2c-1.5,0.9-2.9,1-4.5,1.1c-2.2,0.1-4.2-0.2-6.4-0.6c-1.9-0.4-3.4-0.7-5.1-1.2 c-0.5-0.1-1.2-0.2-1.5-0.7l0,0l-0.3,0.7l-0.2,1.5c0,0,1.8,1,3.7,1.4c1.9,0.4,5.8,1,5.8,1l0.3-0.6l0.9,0.2l0,0.6l2.1,0.1l0.4-0.6 l0.7,0l-0.1,0.5c0,0,1.3,0,2-0.4c0.1-0.2,0.4-0.5,0.4-0.5l0.5-0.3l-0.1,0.5l1.8-0.7l0.1-0.7l0.5-0.3l0,0.5l1.3-1l0.1-0.6l3.2-2.3 l0.5,1.2l2.3-0.5l0.1-0.5l0.6-0.2l0.4,0.4l1.5-0.6l0-0.5l0.5-0.2l0.1,0.3l1.4-1l0.3-2l0.1-2.2L62.4,230L62.4,230"/>
<path d="M106.6,230c0.1,0.4,0.2,0.9,0.5,1.3c0.8,1.6,2.6,1.9,4.1,2.3c1.1,0.3,2.2,0.7,3.3,1.1 c1.5,0.6,2.2,1.7,3.3,2.8c0.5,0.5,1.1,0.8,1.7,1.2c1.5,0.9,2.9,1,4.5,1.1c2.2,0.1,4.2-0.2,6.4-0.6c1.9-0.4,3.4-0.7,5.1-1.2 c0.5-0.1,1.2-0.2,1.5-0.7l0,0l0.3,0.7l0.2,1.5c0,0-1.8,1-3.7,1.4c-1.9,0.4-5.8,1-5.8,1l-0.3-0.6l-0.9,0.2l0,0.6l-2.1,0.1 l-0.4-0.6l-0.7,0l0.1,0.5c0,0-1.3,0-2-0.4c-0.1-0.2-0.4-0.5-0.4-0.5l-0.5-0.3l0.1,0.5l-1.8-0.7l-0.1-0.7l-0.5-0.3l0,0.5l-1.3-1 l-0.1-0.6l-3.2-2.3l-0.5,1.2l-2.3-0.5l-0.1-0.5l-0.6-0.2l-0.4,0.4l-1.5-0.6l0-0.5l-0.5-0.2l-0.1,0.3l-1.4-1l-0.3-2l-0.1-2.2 L106.6,230L106.6,230"/>
</g>
<g id="Top_Gunslinger-Boot" style="fill: rgb(53, 53, 53);">
<path d="M49.9,228.8c1.9-2.8,3.2-6.2,3.7-9.1l0,0l-0.5,0l0,0l-0.1,0l-0.2,0l-0.3,0l-0.1,0c-0.3,0-0.6-0.1-0.9-0.1 l-0.5-0.1l-0.1,0l0,0l-0.1,0l-0.3-0.1l-0.3-0.1l0,0c-1-0.3-0.9-0.5-0.9-0.5c-0.3,1.3-0.9,2.7-1.5,4c-0.9,1.9-2.7,3.6-4.1,5.1 c-1,1-2.5,2-3.7,2.8c-0.5,0.3-1.1,0.6-1.6,0.8c0.4,0.6,1.4,1.2,2.2,1.6c0.8,0.4,1.9,0.8,2.9,0.9c1,0.1,2.1-0.7,2.9-1.2 C47.6,231.6,48.8,230.3,49.9,228.8L49.9,228.8"/>
<path d="M119.2,228.8c-1.9-2.8-3.2-6.2-3.7-9.1l0,0l0.5,0l0,0l0.1,0l0.2,0l0.3,0l0.1,0c0.3,0,0.6-0.1,0.9-0.1 l0.5-0.1l0.1,0l0,0l0.1,0l0.3-0.1l0.3-0.1l0,0c1-0.3,0.9-0.5,0.9-0.5c0.3,1.3,0.9,2.7,1.5,4c0.9,1.9,2.7,3.6,4.1,5.1 c1,1,2.5,2,3.7,2.8c0.5,0.3,1.1,0.6,1.6,0.8c-0.4,0.6-1.4,1.2-2.2,1.6c-0.8,0.4-1.9,0.8-2.9,0.9c-1,0.1-2.1-0.7-2.9-1.2 C121.5,231.6,120.3,230.3,119.2,228.8L119.2,228.8"/>
</g>
<g id="Side_Gunslinger-Boot" style="fill: rgb(78, 78, 78);">
<path d="M49.8,228.9c1.7,0.5,3.3,1.1,4.8,1.9c1.1,0.6,2.9,1.1,4,0.9c3.2-0.8,3.8-3.8,3.8-3.8c-0.1-0.7-0.8-3.2-1-3.9 c-0.5-1.5-0.4-5.3-0.5-5.3c-2.6,1.4-6,1.1-7.3,1l0,0C53.1,222.7,51.8,226.1,49.8,228.9"/>
<path d="M119.2,228.9c-1.7,0.5-3.3,1.1-4.8,1.9c-1.1,0.6-2.9,1.1-4,0.9c-3.2-0.8-3.8-3.8-3.8-3.8 c0.1-0.7,0.8-3.2,1-3.9c0.5-1.5,0.4-5.3,0.5-5.3c2.6,1.4,6,1.1,7.3,1l0,0C116,222.7,117.3,226.1,119.2,228.9"/>
</g>
</g>

</g>
<g id="Gloves">
<g id="Left-Glove">

<g id="Basic_Left_Glove" class="option" style="fill: rgb(32, 31, 31); display: inherit;">
<path d="M131.4,123c-0.5,0-0.9,0-1.3,0.1c-0.3,0.1-0.6,0.2-0.9,0.3c-0.8,0.5-0.6,1.7,0.1,2.2c0.9,0.5,2.2,0,2.6-1 C132.1,124.2,131.6,123.4,131.4,123"/>
<path d="M129.9,124c-0.5,0-0.9,0-1.3,0.1c-0.3,0.1-0.6,0.2-0.9,0.3c-0.8,0.5-0.6,1.7,0.1,2.2c0.9,0.5,2.2,0,2.6-1 C130.6,125.2,130.1,124.4,129.9,124"/>
<path d="M128.8,125.4c-0.4,0-1,0.1-1.4,0.3c-0.3,0.1-0.6,0.2-0.8,0.5c-0.8,0.7-0.4,1.8,0.4,2.1 c0.9,0.4,2.2-0.3,2.5-1.4C129.5,126.5,128.8,125.4,128.8,125.4z"/>
<path d="M126.3,109.6c0,0-1.3,2-1.6,3.5c-0.2,1-0.1,3.5-0.4,5.2c-0.3,1.7-0.6,2.6-0.6,2.6s-1.2,2.7-0.9,3.3 c0.2,0.6,1.2,1.2,1.8,0.8c0.7-0.4,1.6-2.3,2.2-3.6c0.6-1.3,1-3.2,1-3.2s0.8,0.3,1.2,0.7c1.3,1.2,0.8,4.7,0.8,4.7 s-0.6,1.3-1.4,2.7c-1.1,1.9-2.9,3.6-1.7,5.1c1.1,1.4,3.5-2.3,3.5-2.3l2.4-3.5c0,0,2.8-5.1,2.9-6.1c0.1-0.8,0-3.3,0-3.3l-0.9-9.9 l-4.4,0.4l-3.6,1.3L126.3,109.6"/>
</g>
</g>
<g id="Right-Glove">

<g id="Basic_Right_Glove" class="option" style="fill: rgb(32, 31, 31); display: inherit;">
<path d="M37.6,123c0.5,0,0.9,0,1.3,0.1c0.3,0.1,0.6,0.2,0.9,0.3c0.8,0.5,0.6,1.7-0.1,2.2c-0.9,0.5-2.2,0-2.6-1 C36.9,124.2,37.4,123.4,37.6,123"/>
<path d="M39.2,124c0.5,0,0.9,0,1.3,0.1c0.3,0.1,0.6,0.2,0.9,0.3c0.8,0.5,0.6,1.7-0.1,2.2c-0.9,0.5-2.2,0-2.6-1 C38.4,125.2,38.9,124.4,39.2,124"/>
<path d="M40.3,125.4c0.5,0,1,0.1,1.4,0.3c0.3,0.1,0.6,0.2,0.8,0.5c0.8,0.7,0.4,1.8-0.4,2.1c-0.9,0.4-2.2-0.3-2.5-1.4 C39.5,126.5,40.3,125.4,40.3,125.4z"/>
<path d="M42.7,109.6c0,0,1.3,2,1.6,3.5c0.2,1,0.1,3.5,0.4,5.2c0.3,1.7,0.6,2.6,0.6,2.6s1.1,2.7,0.9,3.3 c-0.2,0.6-1.2,1.2-1.8,0.8c-0.7-0.4-1.6-2.3-2.2-3.6c-0.6-1.3-1-3.2-1-3.2s-0.8,0.3-1.2,0.7c-1.3,1.2-0.8,4.7-0.8,4.7 s0.6,1.3,1.4,2.7c1.1,1.9,2.9,3.6,1.7,5.1c-1.1,1.4-3.5-2.3-3.5-2.3l-2.4-3.5c0,0-2.8-5.1-2.9-6.1c-0.1-0.8,0-3.3,0-3.3l0.9-9.9 l4.4,0.4l3.6,1.3L42.7,109.6"/>
</g>
</g>
</g>
<g id="Biceps">
<g id="Left-Biceps">

<g id="Basic_Biceps_Left" class="option" style="display: inherit;">
<path id="Main_Basic_Biceps_Left" d="M131.5,57.7c-1.2-2.8-6.3-15-6.3-15s-8.4,3.5-10.5,4.3 c-0.6,0.2-0.9,0.9-0.6,1.5c1,2.4,3.4,8.3,4.9,11.9c0.3,0.8,1,1.5,1.8,1.8c0.8,0.3,1.8,0.3,2.6,0c2.5-1,5.8-2.4,7.5-3.1 C131.5,59,131.8,58.3,131.5,57.7z" style="fill: rgb(122, 20, 20);"/>
<path id="Strap_Basic_Biceps_Left" d="M116.4,54l-4.6,1.9l1.1,3.9l5-2.1L116.4,54" style="fill: rgb(0, 0, 0);"/>
<path id="Trauma-Plate_Basic_Biceps_Left" class="toggle" style="fill: rgb(47, 44, 44);" d="M131.5,57.2l-5.3-13l-10.3,4.2l4.7,11.4 c0.2,0.4,0.5,0.7,0.9,0.9c0.4,0.2,0.9,0.2,1.3,0L131.5,57.2"/>
</g>

</g>
<g id="Right-Biceps">

<g id="Basic_Biceps_Right" class="option" style="display: inherit;">
<path id="Main_Basic_Biceps_Right" d="M37.5,57.7c1.2-2.8,6.3-15,6.3-15s8.4,3.5,10.5,4.3c0.6,0.2,0.9,0.9,0.6,1.5 c-1,2.4-3.4,8.3-4.9,11.9c-0.3,0.8-1,1.5-1.8,1.8c-0.8,0.3-1.8,0.3-2.6,0c-2.5-1-5.8-2.4-7.5-3.1C37.6,59,37.3,58.3,37.5,57.7z" style="fill: rgb(122, 20, 20);"/>
<path id="Strap_Basic_Biceps_Right" d="M52.7,54l4.6,1.9l-1.1,3.9l-5-2.1L52.7,54" style="fill: rgb(0, 0, 0);"/>
<path id="Trauma-Plate_Basic_Biceps_Right" class="toggle" style="fill: rgb(47, 44, 44);" d="M37.6,57.2l5.3-13l10.3,4.2l-4.7,11.4 c-0.2,0.4-0.5,0.7-0.9,0.9c-0.4,0.2-0.9,0.2-1.3,0L37.6,57.2"/>
</g>

</g>
</g>
<path id="Vest" d="M90.9,86.3c-4.2,0.9-8.6,0.9-12.8,0c-4.2-0.9-12.5-5.2-12.5-5.2s-7.2-22.8-8.5-29.4 c-1-5.3-1.4-14.1-1.4-14.1L43.4,46l-2.6-1.1c0,0,7.4-16.4,12.3-21.1c4.4-4.3,17-7.3,17-7.3s5.5,6.1,14.6,6.1 c8.6,0,14.6-6.1,14.6-6.1s12.5,3.1,17,7.3c4.9,4.7,12.3,21.1,12.3,21.1l-2.6,1.1l-12.4-8.3c0,0-0.4,8.8-1.4,14.1 c-1.3,6.6-8.5,29.4-8.5,29.4S95.1,85.4,90.9,86.3z" style="fill: rgb(32, 31, 31);"/>
<g class="swappable" id="Chest">


<g id="Chest_Heavy" style="visibility: visible;">
<g id="Abdomen_Heavy">
<g id="Under-Plates_Abdomen_Heavy" style="fill: rgb(122, 20, 20);">
<rect x="74.7" y="68.7" width="19.6" height="2.5"/>
<rect x="74.7" y="71.2" width="19.6" height="2.5"/>
<rect x="74.7" y="73.7" width="19.6" height="2.5"/>
<rect x="74.7" y="76.2" width="19.6" height="2.5"/>
<rect x="74.7" y="78.7" width="19.6" height="2.5"/>
</g>
<g id="Abdomen-Plate_Heavy" style="fill: rgb(18, 17, 17);">
<path d="M78.5,60.6l-9.8,4.1l-0.9-2.2L78.5,58V60.6z"/>
<path d="M72.2,73.1l-3.4-8.3l9.8-4.1l3.1,8.7L72.2,73.1z"/>
<path d="M67.8,62.5l-4.1,0.7l6,14.4l4.1-0.8L67.8,62.5z"/>
<path d="M90.5,60.6l9.8,4.1l0.9-2.2L90.5,58V60.6z"/>
<path d="M96.9,73.1l3.4-8.3l-9.8-4.1l-3.1,8.7L96.9,73.1z"/>
<path d="M101.2,62.5l4.1,0.7l-6,14.4l-4.1-0.8L101.2,62.5z"/>
<rect x="78.5" y="58" width="12" height="2.6"/>
<path d="M81.6,69.4l-3.1-8.7h12l-3.1,8.7H81.6z"/>
</g>
</g>
<g id="Neck-Armor_Heavy">
<g id="Neck-Plate_Heavy" style="fill: rgb(47, 44, 44);">
<path d="M71.1,17.1L62.6,19c0,0,0.4,1.5,0.8,3.2c0.6,2.3,2.9,3.8,5.3,3.3l0,0c1.1-0.2,2.1-0.9,2.7-1.9 c0.6-1,0.8-2.1,0.5-3.2C71.5,18.7,71.1,17.1,71.1,17.1z"/>
<path d="M98,17.1l8.5,1.9c0,0-0.4,1.5-0.8,3.2c-0.6,2.3-2.9,3.8-5.3,3.3c0,0,0,0,0,0c-1.1-0.2-2.1-0.9-2.7-1.9 c-0.6-1-0.8-2.1-0.5-3.2C97.6,18.7,98,17.1,98,17.1z"/>
</g>
<g id="Secondary_Neck-Plate_Heavy" style="fill: rgb(255, 0, 0);">
<path d="M69,17.3l-4.3,0.9c0,0,0.3,1.2,0.6,2.4c0.3,1.2,1.5,1.9,2.7,1.6c0,0,0,0,0,0c0.6-0.1,1-0.5,1.3-1 c0.3-0.5,0.4-1.1,0.2-1.6C69.3,18.5,69,17.3,69,17.3z"/>
<path d="M100.1,17.3l4.3,0.9c0,0-0.3,1.2-0.6,2.4c-0.3,1.2-1.5,1.9-2.7,1.6c0,0,0,0,0,0c-0.6-0.1-1-0.5-1.3-1 c-0.3-0.5-0.4-1.1-0.2-1.6C99.8,18.5,100.1,17.3,100.1,17.3z"/>
</g>
</g>
<g id="Full-Chest_Heavy">
<path id="Under-Plate_Chest_Heavy" d="M89.3,55.1h-9.7l-2.4,2.1v1.4l1.3-0.5h12l1.3,0.5v-1.4L89.3,55.1z" style="fill: rgb(133, 133, 133);"/>
<g id="Chest-Plate_Heavy" style="fill: rgb(18, 17, 17);">
<path d="M67.6,61.3l8.6-5l1.2-2.4l2.3,0.3h9.8l2.3-0.3l1.2,2.4l8.6,5l4,0.9l-0.1,1.5l-4.3-0.7l-9.3-3.9v-1.9 l-2.4-2.1h-9.7l-2.4,2.1v1.9L68,62.9l-4.3,0.7l-0.1-1.5L67.6,61.3z"/>
<path d="M105.4,62.2l5-12.7l0.7,2.6l-1.6,9.5L105.4,62.2z"/>
<path d="M58,52.1l0.7-2.6l5,12.7l-4.1-0.7L58,52.1z"/>
<path d="M63.5,44.5v-5.3l-0.4-9.5l2.5-2.7l7.5-1.6l1.9,2.3h19l1.9-2.3l7.5,1.6l2.5,2.7l-0.4,9.3l0,0v5.6L91.7,54 l-2.3,0.3h-9.8L77.4,54L63.5,44.5z"/>
<path d="M105.5,39.2v5.3l4.8,5L105.5,39.2z"/>
<path d="M77.4,54l-13.8-9.5l-4.8,5l5,12.7l4-0.9l8.6-5L77.4,54z"/>
<path d="M110.3,49.5l-5,12.7l-4-0.9l-8.6-5L91.7,54l13.8-9.5L110.3,49.5z"/>
<path d="M109.5,61.5l-0.2,1l-4,1.1l0.1-1.5L109.5,61.5z"/>
<path d="M63.5,39.2v5.3l-4.8,5L63.5,39.2z"/>
<path d="M63.1,29.7c0,4.9-0.6,9.8-2,14.7l2.4-5.1L63.1,29.7z"/>
<path d="M105.9,29.7c0.1,4.9,0.6,9.8,2,14.7l-2.4-5.1L105.9,29.7z"/>
<path d="M63.7,62.2l0.1,1.5l-4-1.1l-0.2-1L63.7,62.2z"/>
</g>
<g id="Accents_Chest-Plate_Heavy" class="toggle">
<g id="Accent-3_Accents_Chest-Plate_Heavy" style="fill: rgb(178, 0, 0);">
<path d="M95.8,39.1l-0.5-1.6h2.3l-0.5,1.6H95.8z"/>
<path d="M95.8,42.1l-0.5-1.6h2.3l-0.5,1.6H95.8z"/>
<rect x="94.3" y="29.7" width="4.3" height="0.5"/>
<rect x="94.3" y="31.2" width="4.3" height="0.5"/>
</g>
<path id="Accent-2_Accents_Chest-Plate_Heavy" d="M71.8,27.1c-0.1-1.4-1.3-2.4-2.6-2.3l0,0 c-0.7,0-1.3,0.3-1.7,0.8c-0.4,0.5-0.6,1.1-0.6,1.8c0.1,0.8,0.1,1.6,0.2,2.4c0.1,1.4,1.3,2.4,2.6,2.3l0,0c0.7,0,1.3-0.3,1.7-0.8 c0.4-0.5,0.6-1.1,0.6-1.8C71.9,28.8,71.8,27.9,71.8,27.1z" style="fill: rgb(47, 44, 44);"/>
<g id="Accent-1_Accents_Chest-Plate_Heavy" style="fill: rgb(47, 44, 44);">
<path d="M71,25.2l-3.8,0.2l0.5,6.3l3.8-0.2L71,25.2z"/>
<path d="M70.6,25.7l-2.9,0.2l0.1,0.9l2.9-0.2L70.6,25.7z"/>
<path d="M68.2,26.8l-0.4,0l0.4,4.9l0.4,0L68.2,26.8z"/>
<path d="M68.6,26.8l-0.4,0l0.4,4.9l0.4,0L68.6,26.8z"/>
<path d="M70.7,26.6l-0.4,0l0.4,4.9l0.4,0L70.7,26.6z"/>
<path d="M70.3,26.7l-0.4,0l0.4,4.9l0.4,0L70.3,26.7z"/>
<path d="M69.4,26.7l-0.4,0l0.4,4.9l0.4,0L69.4,26.7z"/>
<path d="M69.9,26.7l-0.4,0l0.4,4.9l0.4,0L69.9,26.7z"/>
<path d="M69,26.7l-0.4,0l0.4,4.9l0.4,0L69,26.7z"/>
</g>
</g>
</g>
<g id="Iron-Heart_Heavy">
<path id="Heart_Heavy" d="M84.5,34.7l2.8,2.6v5.2l-2.8,2.6l-2.8-2.6v-5.2L84.5,34.7z" style="fill: rgb(128, 111, 111);"/>

<g id="Center_Heart_Heavy" class="option" style="fill: rgb(236, 50, 50); display: inherit;">
<rect x="83.5" y="37.4" width="2.1" height="2.5"/>
<rect x="83.5" y="39.9" width="0.3" height="2.5"/>
<rect x="84.9" y="39.9" width="0.3" height="2.5"/>
<rect x="85.2" y="39.9" width="0.3" height="2.5"/>
<rect x="84.2" y="39.9" width="0.3" height="2.5"/>
<rect x="84.5" y="39.9" width="0.3" height="2.5"/>
<rect x="83.8" y="39.9" width="0.3" height="2.5"/>
</g>
</g>
</g>



</g>
<g id="Chest-Attachments">

<g id="Bandoleer_Accessories_Chest" class="option" style="display: inherit;">
<g id="Strap_Bandoleer_Accessories_Chest" style="fill: rgb(80, 54, 32);">
<path d="M112.6,19.9l-6.7-3.3l-37,67l6.7,3.7L112.6,19.9"/>
<path d="M110.8,18.7l-2.5-1.2l-8.4,15.3l2.4,1.3L110.8,18.7"/>
<path d="M98.8,40.7L96,39.2l-13,23.5l2.8,1.5L98.8,40.7"/>
<path d="M99.1,41.6l-4-2.2l-1.3,2.4l4,2.2L99.1,41.6"/>
<path d="M97.5,44.5l-4-2.2l-1.3,2.4l4,2.2L97.5,44.5"/>
<path d="M95.9,47.3l-4-2.2l-1.3,2.4l4,2.2L95.9,47.3"/>
<path d="M94.4,50.2l-4-2.2l-1.3,2.4l4,2.2L94.4,50.2"/>
<path d="M92.8,53l-4-2.2l-1.3,2.4l4,2.2L92.8,53"/>
<path d="M89.6,58.7l-4-2.2l-1.3,2.4l4,2.2L89.6,58.7"/>
<path d="M91.2,55.9l-4-2.2L86,56.1l4,2.2L91.2,55.9"/>
<path d="M88.1,61.6l-4-2.2l-1.3,2.4l4,2.2L88.1,61.6"/>
</g>
<g id="Ammo_Bandoleer_Accessories_Chest" style="fill: rgb(120, 108, 108);">
<g>
<g>
<path d="M98.9,41.9l1.6,0.9c0.2,0.1,0.2,0.3,0.1,0.5c-0.2,0.3-0.5,0.9-0.7,1.2c-0.1,0.2-0.3,0.2-0.5,0.1l-1.6-0.9 L98.9,41.9z"/>
<path d="M100.1,42.5l-0.1-0.1l-1,1.8l0.1,0.1L100.1,42.5z"/>
<path d="M99.9,42.4l-0.1-0.1l-1,1.8l0.1,0.1L99.9,42.4z"/>
</g>
<g>
<path d="M95,39.7l-1,1.8l-1.6-0.9c-0.2-0.1-0.2-0.3-0.1-0.5c0.2-0.3,0.5-0.9,0.7-1.2c0.1-0.2,0.3-0.2,0.5-0.1 L95,39.7z"/>
<path d="M93.8,39l-0.1-0.1l-1,1.8l0.1,0.1L93.8,39z"/>
</g>
</g>
<g>
<g>
<path d="M95.8,47.6l1.6,0.9c0.2,0.1,0.2,0.3,0.1,0.5c-0.2,0.3-0.5,0.9-0.7,1.2c-0.1,0.2-0.3,0.2-0.5,0.1l-1.6-0.9 L95.8,47.6z"/>
<path d="M97,48.3l-0.1-0.1l-1,1.8l0.1,0.1L97,48.3z"/>
<path d="M96.7,48.1L96.6,48l-1,1.8l0.1,0.1L96.7,48.1z"/>
</g>
<g>
<path d="M91.8,45.4l-1,1.8l-1.6-0.9C89,46.3,89,46,89.1,45.9c0.2-0.3,0.5-0.9,0.7-1.2c0.1-0.2,0.3-0.2,0.5-0.1 L91.8,45.4z"/>
<path d="M90.6,44.7l-0.1-0.1l-1,1.8l0.1,0.1L90.6,44.7z"/>
</g>
</g>
<g>
<g>
<path d="M94.2,50.4l1.6,0.9c0.2,0.1,0.2,0.3,0.1,0.5c-0.2,0.3-0.5,0.9-0.7,1.2c-0.1,0.2-0.3,0.2-0.5,0.1l-1.6-0.9 L94.2,50.4z"/>
<path d="M95.4,51.1L95.3,51l-1,1.8l0.1,0.1L95.4,51.1z"/>
<path d="M95.1,50.9L95,50.9l-1,1.8l0.1,0.1L95.1,50.9z"/>
</g>
<g>
<path d="M90.3,48.3l-1,1.8l-1.6-0.9c-0.2-0.1-0.2-0.3-0.1-0.5c0.2-0.3,0.5-0.9,0.7-1.2c0.1-0.2,0.3-0.2,0.5-0.1 L90.3,48.3z"/>
<path d="M89,47.6l-0.1-0.1l-1,1.8l0.1,0.1L89,47.6z"/>
</g>
</g>
<g>
<g>
<path d="M92.6,53.3l1.6,0.9c0.2,0.1,0.2,0.3,0.1,0.5c-0.2,0.3-0.5,0.9-0.7,1.2c-0.1,0.2-0.3,0.2-0.5,0.1l-1.6-0.9 L92.6,53.3z"/>
<path d="M93.8,54l-0.1-0.1l-1,1.8l0.1,0.1L93.8,54z"/>
<path d="M93.6,53.8l-0.1-0.1l-1,1.8l0.1,0.1L93.6,53.8z"/>
</g>
<g>
<path d="M88.7,51.1l-1,1.8l-1.6-0.9c-0.2-0.1-0.2-0.3-0.1-0.5c0.2-0.3,0.5-0.9,0.7-1.2c0.1-0.2,0.3-0.2,0.5-0.1 L88.7,51.1z"/>
<path d="M87.5,50.5l-0.1-0.1l-1,1.8l0.1,0.1L87.5,50.5z"/>
</g>
</g>
</g>
<g id="Buckles_Bandoleer_Accessories_Chest" style="fill: rgb(89, 3, 3);">
<g>
<path d="M103.4,32.5l-2.9-1.6l-1.6,3l2.9,1.6L103.4,32.5z"/>
<path d="M102.7,33l-2.2-1.2l-1.6,3L101,36L102.7,33z"/>
</g>
<path d="M103.4,29l-1.9-1l1.6-3l3.8,2.1l-1.6,3L103.4,29l0.4-0.7l1.1,0.6l0.9-1.6l-2.1-1.2l-0.9,1.6l1,0.6"/>
</g>
</g>

</g>
<g id="Collar">

<g id="Cloth-Wrap-Left_Collar" class="option" style="display: inherit;">
<g id="Main_Cloth-Wrap-Left_Collar" style="fill: rgb(75, 56, 38);">
<path d="M74.4,26c-4.5-1.4-5.3-3.7-5.6-6c-0.1-0.9,1.2-3.4-0.2-4c-1.6-0.7-5.3,0.4-6.8,0.7c-1.1,0.2-2.1,1.4-3.3,1.4 c-2.7,0-4.8,2.9-5,4.3c-0.3,1.9,3,0.5,4.5,2c3.9,3.5,5.2,8.3,13.3,9.6c3.7,0.6,7.4-0.2,10.9-1c8.9-2,13.8-3.7,19.5-8.1 c2.5-1.9,6.3-3.5,6.2-6.1c0-0.1-1.8-1.2-2-1.2c-1.6-0.4-3-1.1-4.7-1.1c-1.1,0-0.9,0.9-1,1.3c-0.3,1.6-1.7,2.8-3.6,4 C91.8,24.8,80.9,25.8,74.4,26z"/>
<path d="M74.4,26c-1.2,0-2.2,0.2-3.2,0.3c-4.1,0.3-5.6-0.8-6.4-2.6"/>
<path d="M61.5,16.8c-1.2,2-1,4.3-0.1,5.8"/>
<path d="M96.2,22.4c-3.1,4.2-7.7,5.6-12.7,6.1"/>
<path d="M104.7,17.2c-0.2,1.1-0.8,1.5-1.6,2.2c-0.5,0.4-1,0.7-1.4,1.2c-0.1,0.2-0.2,0.4-0.3,0.6"/>
</g>
<path id="Buckle_Cloth-Wrap-Left_Collar" d="M95.2,21.6l2.6-1.9l4.6,6.4L99.8,28L95.2,21.6z" style="fill: rgb(139, 87, 42);"/>
</g>


</g>
<svg version="1.1" id="Helmets" xmlns="http://www.w3.org/2000/svg" y="-54px" height="85px" viewBox="0 0 80 80" class="swappable">





<g id="Helmet_Gunslinger" style="visibility: visible;">
<g id="Left-Earcap_Gunslinger" class="toggle">




<g id="Ear-Cap_Left_Gunslinger" style="fill: rgb(32, 31, 31);">
<path d="M59.9,40.8l-0.7,0.3l-0.1,0.7h1.3L59.9,40.8z"/>
<path d="M60.3,35.3l-0.4-0.9l-1.2-0.3V37h1.6V35.3z"/>
<path d="M58.3,42.8l2-0.2l0.1,2.9l-1.6,0.7l0.4,11.5L58.7,58L58.3,42.8z"/>
<path d="M59.9,45.7l0.1,9.7l-0.8,2.3l-0.4-11.5L59.9,45.7z"/>
<path d="M60.8,42.6l-0.9-1.8l-0.7,0.3L59,42.3h-0.3V41l1.6-0.7l0.8,2.3H60.8z"/>
<path d="M60.3,40.3V37h-1.6v4L60.3,40.3z"/>
<path d="M60.3,35.3l0.6,1.7l0.2,5.6l-0.8-2.3V35.3z"/>
<rect x="58.7" y="36" width="1.2" height="1"/>
<path d="M59,42.3h1.6l-0.2-0.5h-1.3L59,42.3z"/>
<path d="M60.2,42.6l-0.3-0.3h-1.2l-0.4,0.4L60.2,42.6z"/>
<path d="M58.7,34.6l-0.9-0.1v0.8l0.5,7.5l0.5-0.4L58.7,34.6L58.7,34.6z"/>
</g>
</g>
<g id="Right-Earcap_Gunslinger" class="toggle">
<g id="Sub-Antenna_Right_Gunslinger" class="option" style="display: inherit;">
<g id="Shaft_Sub-Antenna_Right_Gunslinger" style="fill: rgb(105, 105, 105);">
<path d="M20.9,33.9l0.2-22.8h0.5l0.2,22.8H20.9z"/>
<path d="M20.9,13.2l0.2-1.4h0.6l0.2,1.4H20.9z"/>
</g>
<g id="Base_Sub-Antenna_Right_Gunslinger" style="fill: rgb(32, 31, 31);">
<path d="M22.8,33.9h-2.9c0,0-0.6,7.5,1.4,7.5S22.8,33.9,22.8,33.9z"/>
<path d="M20.6,33.9l0.3-0.6h1l0.3,0.6H20.6z"/>
</g>
</g>



<g id="Ear-Cap_Right_Gunslinger" style="fill: rgb(32, 31, 31);">
<path d="M20.1,40.9l0.7,0.3l0.1,0.7h-1.3L20.1,40.9z"/>
<path d="M19.7,35.3l0.4-0.9l1.2-0.3V37h-1.6V35.3z"/>
<path d="M21.7,42.8l-2-0.2l-0.1,2.9l1.6,0.7l-0.4,11.5l0.4,0.3L21.7,42.8z"/>
<path d="M20.1,45.7L20,55.4l0.8,2.3l0.4-11.5L20.1,45.7z"/>
<path d="M19.2,42.6l0.9-1.8l0.7,0.3l0.3,1.2h0.3V41l-1.6-0.7L19,42.6H19.2z"/>
<path d="M19.7,40.4V37h1.6v4L19.7,40.4z"/>
<path d="M19.7,35.3L19.1,37l-0.2,5.6l0.8-2.3V35.3z"/>
<rect x="20.1" y="36" width="1.2" height="1"/>
<path d="M21,42.3h-1.6l0.2-0.5h1.3L21,42.3z"/>
<path d="M19.8,42.6l0.3-0.3h1.2l0.4,0.4L19.8,42.6z"/>
<path d="M21.3,34.6l0.9-0.1v0.8l-0.5,7.5l-0.5-0.4L21.3,34.6L21.3,34.6z"/>
</g>
</g>
<g id="Helmet_Pieces_Gunslinger">
<g id="Face_Gunslinger" style="fill: rgb(32, 31, 31);">
<path d="M23.2,59.6l2.4-9.6c0.2,0,3.1,0.3,6,4.6c2,3,2.6,11.4,2.6,11.4L23.2,59.6z"/>
<path d="M56.8,59.6L54.4,50c-0.2,0-3.1,0.3-6,4.6c-2,3-2.6,11.4-2.6,11.4L56.8,59.6z"/>
</g>
<g id="Cheeks_Gunslinger" style="fill: rgb(63, 63, 63);">
<path d="M21.8,42.3l-0.5,15.9l1.9,1.3l2.4-9.6L21.8,42.3z"/>
<path d="M58.2,42.3l0.5,15.9l-1.9,1.3L54.4,50L58.2,42.3z"/>
<path d="M21.8,42.3c0.3,0.1,5.5,1.4,8.6,6.4S34.9,65.3,35,66h-0.8c0,0-0.6-8.5-2.6-11.4c-3-4.4-6-4.6-6-4.6 L21.8,42.3z"/>
<path d="M58.2,42.3c-0.3,0.1-5.5,1.4-8.6,6.4c-3.1,5-4.5,16.6-4.6,17.3h0.8c0,0,0.6-8.5,2.6-11.4c3-4.4,6-4.6,6-4.6 L58.2,42.3z"/>
</g>
<path id="Visor_Gunslinger" d="M22.7,37.8L40,38.7l17.3-0.9v1.4l-13.5,3.1l-1,21.7h-5.7l-0.9-21.7l-13.5-3.1V37.8z" style="fill: rgb(0, 0, 0);"/>
<g id="Eyes_Gunslinger" style="fill: rgb(52, 52, 52);">
<path d="M22.7,37.8v1.4l13.5,3.1L37.1,64l-2.2,2c0,0-1.3-12.2-4.6-17.3c-3.2-5.2-8.7-6.4-8.7-6.4l0.5-7h35.5l0.5,7 c0,0-5.4,1.2-8.7,6.4C46.3,53.9,45,66.1,45,66.1l-2.2-2l0.9-21.7l13.5-3.1v-1.4L40,38.7L22.7,37.8z"/>
<rect x="22.2" y="35.8" width="35.6" height="0.5"/>
</g>
<path id="Dome_Gunslinger" d="M57.8,35.3H22.2c0-9.1,8-16.4,17.8-16.4S57.8,26.2,57.8,35.3z" style="fill: rgb(32, 31, 31);"/>
<path id="Ridge-2_Gunslinger" d="M37.9,37.1l-1.6-1.8V19.2c0,0,1.1-0.6,3.6-0.5c2.5,0,3.6,0.5,3.6,0.5v16.1L42,37.1 H37.9z" style="fill: rgb(83, 3, 3);"/>
<path id="Ridge-1_Gunslinger" d="M38.5,34.9l-0.3-0.3V18.8c0,0,0.6-0.1,1.8-0.1s1.8,0.1,1.8,0.1v15.9L41.5,35 L38.5,34.9L38.5,34.9z" style="fill: rgb(18, 17, 17);"/>
</g>
</g>


























</svg>
<g id="Shoulders">
<g id="Left-Shoulder">






<g id="Legacy-x2_Shoulder_Left" class="option" style="display: inherit;">
<path id="Plate-2_Shoulder_Left_Legacy-x2" d="M111.7,20l-5.9,8.8l6,8.4l9.5-2.3l6,3.7l4.5-1.2L111.7,20z" style="fill: rgb(122, 20, 20);"/>
<path id="Trauma-Plate-2_Shoulder_Legacy-x2_Left" class="toggle" style="fill: rgb(47, 44, 44);" d="M127.6,36.8l2.9-0.8l-17.3-15.1l-5.2,7.9l4.6,6.5 l8.7-2.2L127.6,36.8z"/>
<path id="Plate-1_Shoulder_Left_Legacy-x2" d="M104.5,15.5l-2.6,10.3l8.4,6l8.2-5.3l6.8,1.5l3.8-2.6L104.5,15.5z" style="fill: rgb(122, 20, 20);"/>
<path id="Trauma-Plate-1_Shoulder_Legacy-x2_Left" class="toggle" style="fill: rgb(47, 44, 44);" d="M125,26.1l2.5-1.7l-21.3-8.6l-2.4,9.2l6.5,4.6 l7.5-5L125,26.1z"/>
</g>

</g>
<g id="Right-Shoulder">






<g id="Legacy-x2_Shoulder_Right" class="option" style="display: inherit;">
<path id="Plate-2_Shoulder_Right_Legacy-x2" d="M57.4,20l5.9,8.8l-6,8.4L47.7,35l-6,3.7l-4.5-1.2L57.4,20z" style="fill: rgb(122, 20, 20);"/>
<path id="Trauma-Plate-2_Shoulder_Legacy-x2_Right" class="toggle" style="fill: rgb(47, 44, 44);" d="M41.5,36.8l-2.9-0.8l17.3-15.1l5.2,7.9l-4.6,6.5 l-8.7-2.2L41.5,36.8z"/>
<path id="Plate-1_Shoulder_Right_Legacy-x2" d="M64.6,15.5l2.6,10.3l-8.5,6l-8.2-5.3L43.7,28l-3.8-2.6L64.6,15.5z" style="fill: rgb(122, 20, 20);"/>
<path id="Trauma-Plate-1_Shoulder_Legacy-x2_Right" class="toggle" style="fill: rgb(47, 44, 44);" d="M44.1,26.1l-2.5-1.7l21.3-8.6l2.4,9.2l-6.5,4.6 l-7.5-5L44.1,26.1z"/>
</g>

</g>
</g>
<g id="Gauntlets">
<g id="Left-Gauntlets">

<g id="Heavy_Gauntlet_Left" class="option" style="display: inherit;">
<g id="Top-2_Heavy_Gauntlet_Left" style="fill: rgb(0, 0, 0);">
<path d="M136.7,80.1l1.7,0.3l0.8,8.3l-1.6,1.1L136.7,80.1z"/>
<path d="M137.5,89.1l1,10.9l-1.1,1.2l0.6,6.4l-0.5,0.3l-1.7-17.5L137.5,89.1z"/>
<path d="M137.8,86c0.2,0,0.4,0.2,0.3,0.4s-0.2,0.4-0.4,0.3c-0.2,0-0.4-0.2-0.3-0.4C137.4,86.2,137.6,86,137.8,86z"/>
</g>
<g id="Top-1_Heavy_Gauntlet_Left" style="fill: rgb(79, 79, 79);">
<path d="M133,108.7l4.5-0.8l-1.7-17.5l1.7-1.3l-0.9-9.5l-6.6-1.2L133,108.7z"/>
<path d="M134.9,79.2l0.9,11.1"/>
</g>
<g id="Accent-Top_Heavy_Gauntlet_Left" style="fill: rgb(178, 0, 0);">
<path d="M136.5,105.1l-2.8,0.3l0.2,2.2l2.8-0.4L136.5,105.1z"/>
<path d="M135.5,95.8l-2.8,0.3l0.9,8.6l2.8-0.3L135.5,95.8z"/>
<path d="M134.3,79.8l-3.1-0.5l0.9,9.5l3-0.4L134.3,79.8z"/>
</g>
<path id="Bottom_Heavy_Gauntlet_Left" d="M130.1,78.8c-3.4-0.2-7.1,1-9.5,3.7c-0.8,0.9-1.1,2.1-0.9,3.2 c1.2,5.6,5.2,23.7,5.2,23.7l8.2-0.7L130.1,78.8z" style="fill: rgb(47, 44, 44);"/>
<g id="Accent-Bottom_Heavy_Gauntlet_Left" style="fill: rgb(122, 20, 20);">
<path d="M133,108.7l-8.2,0.7l-0.3-1.5l8.3-0.9L133,108.7z"/>
<path d="M130.3,80.8c-4.4,0.1-8.2,1.4-10.3,6l-0.2-1.1c-0.2-0.9,0-1.8,0.4-2.6l0.5-0.6c2.4-2.7,6.1-3.8,9.5-3.7 L130.3,80.8z"/>
<path d="M129.2,79.4l-3.6,0.4l1.6,14.3l3.6-0.4L129.2,79.4z"/>
<path d="M128.8,79.7l-2.7,0.3l1.5,13.2l2.7-0.3L128.8,79.7z"/>
<path d="M126.1,80l-0.5-0.2"/>
<path d="M129.2,79.4l-0.4,0.3"/>
<path d="M130.9,93.7l-0.6-0.8"/>
<path d="M127.3,94.1l0.4-0.9"/>
</g>



<g id="No-Device_Attachment_Heavy_Gauntlet_Left" class="option" style="display: inherit;">
</g>
</g>


</g>
<g id="Right-Gauntlets">

<g id="Heavy_Gauntlet_Right" class="option" style="display: inherit;">
<g id="Top-2_Heavy_Gauntlet_Right" style="fill: rgb(0, 0, 0);">
<path d="M32.4,80.1l-1.7,0.3l-0.8,8.3l1.6,1.1L32.4,80.1z"/>
<path d="M31.6,89.1l-1,10.9l1.1,1.2l-0.6,6.4l0.5,0.3l1.7-17.5L31.6,89.1z"/>
<path d="M31.3,86c-0.2,0-0.4,0.2-0.3,0.4c0,0.2,0.2,0.4,0.4,0.3c0.2,0,0.4-0.2,0.3-0.4C31.7,86.2,31.5,86,31.3,86z"/>
</g>
<g id="Top-1_Heavy_Gauntlet_Right" style="fill: rgb(79, 79, 79);">
<path d="M36,108.7l-4.5-0.8l1.7-17.5l-1.7-1.3l0.9-9.5l6.6-1.2L36,108.7z"/>
<path d="M34.2,79.2l-0.9,11.1"/>
</g>
<g id="Accent-Top_Heavy_Gauntlet_Right" style="fill: rgb(178, 0, 0);">
<path d="M32.6,105.1l2.8,0.3l-0.2,2.2l-2.8-0.4L32.6,105.1z"/>
<path d="M33.6,95.8l2.8,0.3l-0.9,8.6l-2.8-0.3L33.6,95.8z"/>
<path d="M34.8,79.8l3.1-0.5l-0.9,9.5l-3-0.4L34.8,79.8z"/>
</g>
<path id="Bottom_Heavy_Gauntlet_Right" d="M39,78.8c3.4-0.2,7.1,1,9.5,3.7c0.8,0.9,1.1,2.1,0.9,3.2 c-1.2,5.6-5.2,23.7-5.2,23.7l-8.2-0.7L39,78.8z" style="fill: rgb(47, 44, 44);"/>
<g id="Accent-Bottom_Heavy_Gauntlet_Right" style="fill: rgb(122, 20, 20);">
<path d="M36,108.7l8.2,0.7l0.3-1.5l-8.3-0.9L36,108.7z"/>
<path d="M38.8,80.8c4.4,0.1,8.2,1.4,10.3,6l0.2-1.1c0.2-0.9,0-1.8-0.4-2.6l-0.5-0.6c-2.4-2.7-6.1-3.8-9.5-3.7 L38.8,80.8z"/>
<path d="M39.8,79.4l3.6,0.4l-1.6,14.3l-3.6-0.4L39.8,79.4z"/>
<path d="M40.3,79.7l2.7,0.3l-1.5,13.2l-2.7-0.3L40.3,79.7z"/>
<path d="M42.9,80l0.5-0.2"/>
<path d="M39.8,79.4l0.4,0.3"/>
<path d="M38.2,93.7l0.6-0.8"/>
<path d="M41.8,94.1l-0.4-0.9"/>
</g>



<g id="No-Device_Attachment_Heavy_Gauntlet_Right" class="option" style="display: inherit;">
</g>
</g>


</g>
</g>
<g id="Shins">
<g id="Left-Shin">








<g id="Basic_Shin_Left" class="option" style="display: inherit;">
<path id="Shin_Basic-Shin_Left" d="M121.9,182.7l-4.6-6l-10.3,0.5l-4.5,8.5l4.3,30c4.3,2.3,10.9,1.9,14.7-1 L121.9,182.7" style="fill: rgb(18, 17, 17);"/>
<path id="Trauma-Plating_Basic-Shin_Left" class="toggle" style="display: none; fill: rgb(255, 255, 255);" d="M119.7,213.8l0.4-30.5l-3.7-4.8l-8.4,0.4l-3.8,7.1 l4.1,28.6C111.8,216,116.6,215.8,119.7,213.8"/>
<g id="Ridge_Basic-Shin_Left" class="toggle" style="display: none; fill: rgb(255, 255, 255);"/>
</g>
</g>
<g id="Right-Shin">








<g id="Basic_Shin_Right" class="option" style="display: inherit;">
<path id="Shin_Basic-Shin_Right" d="M47.2,182.7l4.6-6l10.3,0.5l4.5,8.5l-4.3,30c-4.3,2.3-10.9,1.9-14.7-1 L47.2,182.7" style="fill: rgb(18, 17, 17);"/>
<path id="Trauma-Plating_Basic-Shin_Right" class="toggle" style="display: none; fill: rgb(255, 255, 255);" d="M49.3,213.8l-0.4-30.5l3.7-4.8l8.4,0.4l3.8,7.1l-4.1,28.6 C57.2,216,52.4,215.8,49.3,213.8"/>
<g id="Ridge_Basic-Shin_Right" class="toggle" style="display: none; fill: rgb(255, 255, 255);"/>
</g>
</g>
</g>
<g id="Foot">
<g id="Left-Ankle">



<g id="Basic_Ankle_Left" class="option" style="display: inherit;">
<path id="Main_Basic-Ankle_Left" d="M128.8,229.3l-6.6-11.7c-3.4-0.2-6.7,0.3-9.7,1.5c-1.1,0.5-2,1.4-2.3,2.5 c0,0,0,0,0,0c-0.3,1,0,2.2,0.8,2.9c2,1.9,5.7,5.2,8,6C123.8,232.2,128.8,229.3,128.8,229.3" style="fill: rgb(104, 2, 2);"/>
<path id="Trauma-Plate_Basic-Ankle_Left" class="toggle" style="fill: rgb(18, 17, 17);" d="M123,219c-3.3-0.1-8.1,0.6-11,1.9l-0.3,0.9 c-0.2,0.6,0,1.3,0.5,1.7c1.9,1.8,5.2,4.9,7.3,5.6c2.8,1,7-0.6,8.6-1.2L123,219"/>
</g>
</g>
<g id="Left-Toe">


<g id="None_Toe_Left" class="option" style="display: inherit;">
</g>
</g>
<g id="Right-Ankle">



<g id="Basic_Ankle_Right" class="option" style="display: inherit;">
<path id="Main_Basic-Ankle_Right" d="M40.3,229.3l6.6-11.7c3.4-0.2,6.7,0.3,9.7,1.5c1.1,0.5,2,1.4,2.3,2.5 c0,0,0,0,0,0c0.3,1,0,2.2-0.8,2.9c-2,1.9-5.7,5.2-8,6C45.2,232.2,40.3,229.3,40.3,229.3" style="fill: rgb(104, 2, 2);"/>
<path id="Trauma-Plate_Basic-Ankle_Right" class="toggle" style="fill: rgb(18, 17, 17);" d="M46.1,219c3.3-0.1,8.1,0.6,11,1.9l0.3,0.9 c0.2,0.6,0,1.3-0.5,1.7c-1.9,1.8-5.2,4.9-7.3,5.6c-2.8,1-7-0.6-8.6-1.2L46.1,219"/>
</g>
</g>
<g id="Right-Toe">


<g id="None_Toe_Right" class="option" style="display: inherit;">
</g>
</g>
</g>
<g id="Knees">
<g id="Left-Knee">




<g id="Legacy_Knee_Left" class="option" style="display: inherit;">
<g id="Missiles_Legacy-Knee_Left" class="toggle" style="">
<path id="Base_Missiles_Legacy-Knee_Left" d="M118.6,158.8l0.2,9.9l2.4-1.3c0.4-0.2,0.6-0.6,0.6-1.1 c0-1.3,0-4.3,0-5.8c0-0.6-0.4-1.1-1-1.2L118.6,158.8z" style="fill: rgb(73, 9, 9);"/>
<g id="Missile-2_Missiles_Legacy-Knee_Left" style="fill: rgb(29, 29, 29);">
<path d="M120.1,164.5c-0.6,0.1-1,0.6-0.9,1.1c0.1,0.6,0.6,1,1.2,0.9c0.6-0.1,1-0.6,0.9-1.1 C121.2,164.9,120.7,164.4,120.1,164.5z"/>
<path d="M120.1,164.8c-0.4,0-0.7,0.4-0.6,0.8c0,0.4,0.4,0.7,0.8,0.6s0.7-0.4,0.6-0.8S120.5,164.8,120.1,164.8z"/>
</g>
<g id="Missile-1_Missiles_Legacy-Knee_Left" style="fill: rgb(29, 29, 29);">
<path d="M120.1,159.9c-0.6,0.1-1,0.6-0.9,1.1c0.1,0.6,0.6,1,1.2,0.9c0.6-0.1,1-0.6,0.9-1.1 C121.2,160.3,120.6,159.9,120.1,159.9z"/>
<path d="M120.1,160.3c-0.4,0-0.7,0.4-0.6,0.8s0.4,0.7,0.8,0.6c0.4,0,0.7-0.4,0.6-0.8S120.5,160.2,120.1,160.3z"/>
</g>
</g>
<path id="Plate-2_Legacy-Knee_Left" d="M117.2,164.6l-4.1-2.8l-9.1,1.4l-3.5,4l2.9,9.8h7.2l6.8-2.2L117.2,164.6z" style="fill: rgb(73, 9, 9);"/>
<path id="Plate-1_Legacy-Knee_Left" d="M118.6,157.9l-5.2-3.6l-11.6,1.8l-4.5,5.1l3.7,12.6l9.5-0.1l8.4-2.7 L118.6,157.9z" style="fill: rgb(18, 17, 17);"/>
</g>

</g>
<g id="Right-Knee">




<g id="Legacy_Knee_Right" class="option" style="display: inherit;">
<g id="Missiles_Legacy-Knee_Right" class="toggle" style="">
<path id="Base_Missiles_Legacy-Knee_Right" d="M50.4,158.8l-0.2,9.9l-2.4-1.3c-0.4-0.2-0.6-0.6-0.6-1.1 c0-1.3,0-4.3,0-5.8c0-0.6,0.4-1.1,1-1.2L50.4,158.8z" style="fill: rgb(73, 9, 9);"/>
<g id="Missile-2_Missiles_Legacy-Knee_Right" style="fill: rgb(29, 29, 29);">
<path d="M48.9,164.5c0.6,0.1,1,0.6,0.9,1.1c-0.1,0.6-0.6,1-1.2,0.9c-0.6-0.1-1-0.6-0.9-1.1 C47.8,164.9,48.3,164.4,48.9,164.5z"/>
<path d="M48.9,164.8c0.4,0,0.7,0.4,0.6,0.8s-0.4,0.7-0.8,0.6s-0.7-0.4-0.6-0.8C48.1,165.1,48.5,164.8,48.9,164.8z"/>
</g>
<g id="Missile-1_Missiles_Legacy-Knee_Right" style="fill: rgb(29, 29, 29);">
<path d="M48.9,159.9c0.6,0.1,1,0.6,0.9,1.1c-0.1,0.6-0.6,1-1.2,0.9c-0.6-0.1-1-0.6-0.9-1.1 C47.8,160.3,48.4,159.9,48.9,159.9z"/>
<path d="M48.9,160.3c0.4,0,0.7,0.4,0.6,0.8s-0.4,0.7-0.8,0.6c-0.4,0-0.7-0.4-0.6-0.8 C48.2,160.5,48.5,160.2,48.9,160.3z"/>
</g>
</g>
<path id="Plate-2_Legacy-Knee_Right" d="M51.8,164.6l4.1-2.8l9.1,1.4l3.5,4l-2.9,9.8h-7.2l-6.8-2.2L51.8,164.6z" style="fill: rgb(73, 9, 9);"/>
<path id="Plate-1_Legacy-Knee_Right" d="M50.4,157.9l5.2-3.6l11.6,1.8l4.5,5.1l-3.7,12.6l-9.5-0.1l-8.4-2.7 L50.4,157.9z" style="fill: rgb(18, 17, 17);"/>
</g>

</g>
</g>
<g id="Thighs">
<g id="Left-Thigh">




<g id="Basic_Thigh_Left" class="option" style="display: inherit;">
<path id="Thigh_Basic-Thigh_Left" d="M118.2,116.8c0,0-5.1-6.5-7.7-7.6c-2.5-1-5.8-0.6-7.9,1.1 c-3.2,2.6-10.6,8.2-11.5,14.4c-0.9,6.9,4.1,22.3,5.8,27.3c0.6,1.7,2.8,2.5,4.5,2.5c3.1,0.1,11.7-0.1,13.7-4.8 C118.1,143.5,118.2,116.8,118.2,116.8" style="fill: rgb(104, 2, 2);"/>
<path id="Trauma-Plate_Basic-Thigh_Left" class="toggle" style="fill: rgb(18, 17, 17);" d="M116.5,117.4c-0.8-0.9-2.6-3.2-4.3-4.8 c-0.8-0.8-1.6-1.5-2.3-1.8c-1.9-0.8-4.5-0.5-6.1,0.9c-1.9,1.5-5.2,4-7.7,7.1c-1.5,1.9-2.8,4-3.1,6.2c-0.9,6.8,4.1,21.7,5.8,26.5 c0.1,0.4,0.5,0.7,1,0.9c0.6,0.3,1.3,0.5,2,0.5c1.8,0.1,5.3,0,8.3-1c1.7-0.5,3.2-1.3,3.8-2.8c0.8-1.8,1.3-5.3,1.7-9.4 C116.3,131,116.5,120.1,116.5,117.4"/>
<g id="Ridge_Basic-Thigh_Left" class="toggle" style="fill: rgb(44, 5, 5);">
<path d="M109.7,108.6l-3.5-0.9l-3.7,2l1.2,44.7c2.4,0.5,2.5,0.6,4.6-0.1L109.7,108.6"/>
<path d="M106.2,107.7l-0.1,47.1"/>
</g>
</g>
</g>
<g id="Right-Thigh">




<g id="Basic_Thigh_Right" class="option" style="display: inherit;">
<path id="Thigh_Basic-Thigh_Right" d="M50.8,116.8c0,0,5.1-6.5,7.7-7.6c2.5-1,5.8-0.6,7.9,1.1 c3.2,2.6,10.6,8.2,11.5,14.4c0.9,6.9-4.1,22.3-5.8,27.3c-0.6,1.7-2.8,2.5-4.5,2.5c-3.1,0.1-11.7-0.1-13.7-4.8 C50.9,143.5,50.8,116.8,50.8,116.8" style="fill: rgb(104, 2, 2);"/>
<path id="Trauma-Plate_Basic-Thigh_Right" class="toggle" style="fill: rgb(18, 17, 17);" d="M52.5,117.4c0.8-0.9,2.6-3.2,4.3-4.8 c0.8-0.8,1.6-1.5,2.3-1.8c1.9-0.8,4.5-0.5,6.1,0.9c1.9,1.5,5.2,4,7.7,7.1c1.5,1.9,2.8,4,3.1,6.2c0.9,6.8-4.1,21.7-5.8,26.5 c-0.1,0.4-0.5,0.7-1,0.9c-0.6,0.3-1.3,0.5-2,0.5c-1.8,0.1-5.3,0-8.3-1c-1.7-0.5-3.2-1.3-3.8-2.8c-0.8-1.8-1.3-5.3-1.7-9.4 C52.7,131,52.5,120.1,52.5,117.4"/>
<g id="Ridge_Basic-Thigh_Right" class="toggle" style="fill: rgb(44, 5, 5);">
<path d="M59.3,108.6l3.5-0.9l3.7,2l-1.2,44.7c-2.4,0.5-2.5,0.6-4.6-0.1L59.3,108.6"/>
<path d="M62.8,107.7l0.1,47.1"/>
</g>
</g>
</g>
</g>
<g id="Groin">

<g id="Basic_Groin" class="option" style="display: inherit;">
<path id="Groin-Plate_Groin" d="M78.2,107.5L67.7,86.2h33.8l-10.6,21.2c0,0-4.2,5.1-6.3,5.1 C82.5,112.5,78.2,107.5,78.2,107.5z" style="fill: rgb(104, 2, 2);"/>
<path id="Trauma-Plating_Groin" class="toggle" style="fill: rgb(18, 17, 17);" d="M89.8,106.7l9.5-19.2H69.8l9.5,19.2c0.4,0.5,2.1,2.4,3.7,3.6 c0.6,0.4,1.1,0.8,1.5,0.8c0.4,0,0.9-0.4,1.5-0.8C87.7,109.2,89.4,107.2,89.8,106.7"/>
</g>
</g>
<g id="Waist">
<g id="Accessories_Waist">
<g id="Kama" class="toggle" style="display:none"/>
<g id="Loin-Cloth" class="toggle" style="display:none"/>
<g id="Left-Holster" class="toggle" style="">


<g id="Belt-Holster_Left" class="option" style="display: inherit;">
<g id="Weapon_Belt-Holster-Left">
<g id="Main_Weapon_Belt-Holster-Left" style="fill: rgb(0, 0, 0);">
<path d="M108.8,93l-0.2-3.7l0.6,0L109,87l-0.6,0l-0.1-1.2c0-0.4,0.5-0.7,1.1-0.8c1.5-0.1,4-0.3,5.4-0.4 c0.6,0,1.2,0.2,1.2,0.6l0.1,1.2l-0.6,0l0.2,2.3l0.6,0l0.2,3.7l-1.5,0.1l0.7,10.1l-4.8,0.3l-0.7-10.1L108.8,93z"/>
<path d="M115.8,92L115,92l0.8,12.2l-4.8,0.3l-0.8-12.2l-0.8,0.1l-0.2-2.8l6.5-0.4L115.8,92z"/>
<path d="M114.1,85.5l-3.8,0.3l0.2,3.8l3.8-0.3L114.1,85.5z"/>
<path d="M111.4,93.4l-0.6,0l0.6,9.6l0.6,0L111.4,93.4z"/>
<path d="M112.8,91.1l-0.6,0l0.6,9.6l0.6,0L112.8,91.1z"/>
<path d="M114.6,93.2l-0.6,0l0.6,9.6l0.6,0L114.6,93.2z"/>
</g>
<g id="Accent_Weapon_Belt-Holster-Left" style="fill: rgb(134, 3, 3);">
<path d="M111.1,89.9l0,0.4l2.7-0.2l0-0.4L111.1,89.9z"/>
<path d="M111.1,90.3l0,0.4l2.7-0.2l0-0.4L111.1,90.3z"/>
<path d="M111.1,89.5l0,0.4l2.7-0.2l0-0.4L111.1,89.5z"/>
<path d="M110.7,84.8l0,0.4l2.7-0.2l0-0.4L110.7,84.8z"/>
<path d="M110.9,85.7l-0.6,0l0.2,3.8l0.6,0L110.9,85.7z"/>
<path d="M114.1,85.5l-0.6,0l0.2,3.8l0.6,0L114.1,85.5z"/>
<path d="M114,93.2l-1,0.1l0.6,9.6l1-0.1L114,93.2z"/>
<path d="M112.3,93.3l-1,0.1l0.6,9.6l1-0.1L112.3,93.3z"/>
</g>
</g>
<path id="Holster_Belt-Holster-Left" d="M110.4,107l-2.5-15.2l8.4,10.7l0.8,21c-1.5,1.9-3.1,2.1-4.9,0.4 L110.4,107z" style="fill: rgb(92, 48, 9);"/>
</g>
</g>
<g id="Right-Holster" class="toggle" style="">


<g id="Belt-Holster_Right" class="option" style="display: inherit;">
<g id="Weapon_Belt-Holster-Right">
<g id="Main_Weapon_Belt-Holster-Right" style="fill: rgb(0, 0, 0);">
<path d="M60.2,93l0.2-3.7l-0.6,0L60,87l0.6,0l0.1-1.2c0-0.4-0.5-0.7-1.1-0.8c-1.5-0.1-4-0.3-5.4-0.4 c-0.6,0-1.2,0.2-1.2,0.6l-0.1,1.2l0.6,0l-0.2,2.3l-0.6,0l-0.2,3.7l1.5,0.1l-0.7,10.1l4.8,0.3l0.7-10.1L60.2,93z"/>
<path d="M53.1,92L54,92l-0.8,12.2l4.8,0.3l0.8-12.2l0.9,0.1l0.2-2.8l-6.5-0.4L53.1,92z"/>
<path d="M54.9,85.5l3.8,0.3l-0.2,3.8l-3.8-0.3L54.9,85.5z"/>
<path d="M57.6,93.4l0.6,0l-0.6,9.6l-0.6,0L57.6,93.4z"/>
<path d="M56.1,91.1l0.6,0l-0.6,9.6l-0.6,0L56.1,91.1z"/>
<path d="M54.4,93.2l0.6,0l-0.6,9.6l-0.6,0L54.4,93.2z"/>
</g>
<g id="Accent_Weapon_Belt-Holster-Right" style="fill: rgb(134, 3, 3);">
<path d="M57.9,89.9l0,0.4l-2.7-0.2l0-0.4L57.9,89.9z"/>
<path d="M57.9,90.3l0,0.4l-2.7-0.2l0-0.4L57.9,90.3z"/>
<path d="M57.9,89.5l0,0.4l-2.7-0.2l0-0.4L57.9,89.5z"/>
<path d="M58.2,84.8l0,0.4L55.5,85l0-0.4L58.2,84.8z"/>
<path d="M58.1,85.7l0.6,0l-0.2,3.8l-0.6,0L58.1,85.7z"/>
<path d="M54.9,85.5l0.6,0l-0.2,3.8l-0.6,0L54.9,85.5z"/>
<path d="M55,93.2l1,0.1l-0.6,9.6l-1-0.1L55,93.2z"/>
<path d="M56.6,93.3l1,0.1l-0.6,9.6l-1-0.1L56.6,93.3z"/>
</g>
</g>
<path id="Holster_Belt-Holster-Right" d="M58.6,107l2.5-15.2l-8.4,10.7l-0.8,21c1.5,1.9,3.1,2.1,4.9,0.4L58.6,107 z" style="fill: rgb(92, 48, 9);"/>
</g>
</g>
</g>
<g id="Under-Belt">

<g id="Girth-Belt" class="option" style="fill: rgb(139, 87, 42); display: inherit;">
<path d="M84.5,80.1c-7.2,0-21.5-1.8-21.5-1.8l0.5-1.5c0,0,14,1.2,21,1.8c7-0.6,21-1.8,21-1.8l0.5,1.5 C106,78.3,91.7,80.1,84.5,80.1z"/>
<path d="M84.5,81.6c-7.3,0-22-1.8-22-1.8l0.4-1.5c0,0,17.9,1.5,21.5,1.8c3.6-0.3,21.5-1.8,21.5-1.8l0.4,1.5 C106.5,79.8,91.9,81.6,84.5,81.6z"/>
<path d="M84.5,83.2c-7.4,0-22.3-1.8-22.3-1.8l0.3-1.5c0,0,18.3,1.5,22,1.8c3.7-0.3,22-1.8,22-1.8l0.3,1.5 C106.8,81.4,92,83.2,84.5,83.2z"/>
<path d="M84.5,84.7C77,84.7,62,82.9,62,82.9l0.3-1.5c0,0,18.6,1.5,22.3,1.8c3.7-0.3,22.3-1.8,22.3-1.8l0.3,1.5 C107.1,82.9,92.1,84.7,84.5,84.7z"/>
<path d="M84.5,86.3c-7.6,0-22.8-1.8-22.8-1.8l0.3-1.5c0,0,18.8,1.5,22.6,1.8c3.8-0.3,22.6-1.8,22.6-1.8l0.3,1.5 C107.4,84.4,92.1,86.3,84.5,86.3z"/>
<path d="M84.5,87.8c-7.7,0-23.1-1.8-23.1-1.8l0.2-1.5c0,0,19,1.5,22.8,1.8c3.8-0.3,22.8-1.8,22.8-1.8l0.2,1.5 C107.6,86,92.2,87.8,84.5,87.8z"/>
<path d="M84.5,89.4c-7.8,0-23.3-1.8-23.3-1.8l0.2-1.5c0,0,19.2,1.5,23.1,1.8c3.8-0.3,23.1-1.8,23.1-1.8l0.2,1.5 C107.8,87.5,92.3,89.4,84.5,89.4z"/>
<path d="M84.5,90.9c-7.8,0-23.5-1.8-23.5-1.8l0.2-1.5c0,0,19.4,1.5,23.3,1.8c3.9-0.3,23.3-1.8,23.3-1.8l0.2,1.5 C108.1,89.1,92.4,90.9,84.5,90.9z"/>
<path d="M84.5,92.5c-7.9,0-23.8-1.8-23.8-1.8l0.3-1.5c0,0,19.6,1.5,23.5,1.8c3.9-0.3,23.5-1.8,23.5-1.8l0.3,1.5 C108.3,90.6,92.5,92.5,84.5,92.5z"/>
<path d="M84.5,94c-8,0-24.1-1.8-24.1-1.8l0.3-1.5c0,0,19.8,1.5,23.8,1.8c4-0.3,23.8-1.8,23.8-1.8l0.3,1.5 C108.6,92.2,92.6,94,84.5,94z"/>
</g>
</g>
<g id="Belt">


<g id="Pouch-Belt-4" class="option" style="display: inherit;">
<path id="Main_Pouch-Belt-4" d="M108.2,87.6c-5.3,0.5-17.5,2.2-23.6,2.2c-6.2,0-18.4-1.8-23.6-2.2l0.8-6.2 c4.3,0.4,16.8,2.2,22.8,2.2c5.8,0,18.1-1.8,22.7-2.2L108.2,87.6z" style="fill: rgb(80, 54, 32);"/>
<rect id="Buckle_Pouch-Belt-4" x="80.2" y="82.9" width="8.8" height="7.2" style="fill: rgb(57, 51, 51);"/>
<g id="Pouches_Pouch-Belt-4" style="fill: rgb(109, 66, 28);">
<g>
<g>
<path d="M66.4,80.2c-1.3-0.1-2.6,0.1-3.7,0.7c0,0,0,0,0,0l5.8,0.3l1.6-0.7C70,80.5,68,80.3,66.4,80.2z"/>
<path d="M70.2,80.7c0-0.1,0-0.1-0.1-0.2c-0.1,0-0.1,0-0.2,0c-0.5,0.2-1.5,0.7-1.5,0.7s-0.6,7.6-0.8,9.4 c0,0.1,0,0.1,0.1,0.2c0.1,0,0.1,0,0.2,0c0.5-0.3,1-0.5,1.5-0.5c0.1,0,0.2-0.1,0.2-0.2C69.8,86.9,69.9,83.8,70.2,80.7z"/>
<path d="M68.4,81.2l-5.8-0.3c0,1.5-0.2,3-0.3,4.4c-0.1,1.7-0.1,3.4-0.3,5.2c0,0.1,0,0.1,0.1,0.2 c0,0,0.1,0.1,0.1,0.1c1.8,0,3.6,0.1,5.3,0.3c0.1,0,0.1,0,0.2,0c0,0,0.1-0.1,0.1-0.1c0.1-0.9,0.3-4.4,0.3-4.4L68.4,81.2z"/>
<path d="M68.4,81.2l-5.8-0.3c0,0-0.1,0.7-0.2,1.6c-0.1,0.8,0.2,1.6,0.7,2.3c0.5,0.6,1.3,1,2.1,1.1c0,0,0,0,0,0 c0.8,0,1.6-0.2,2.2-0.8c0.6-0.6,0.9-1.3,0.9-2.2C68.4,81.9,68.4,81.2,68.4,81.2z"/>
<path d="M65.3,84.6c0.2,0,0.4,0.2,0.3,0.4s-0.2,0.4-0.4,0.4c-0.2,0-0.4-0.2-0.3-0.4S65.1,84.6,65.3,84.6z"/>
</g>
</g>
<g>
<path d="M59,80.8l0.4-0.7l2.2,0.1l0.3,0.8L59,80.8z"/>
<path d="M61.9,81.1c0-0.1,0-0.1,0-0.2c0,0-0.1-0.1-0.1-0.1c-0.7,0-2.7-0.1-2.7-0.1l-0.4,8.8 c0.1,0.3,1.7,0.4,2.6,0.4c0.1,0,0.2-0.1,0.2-0.2C61.5,86.8,61.6,84,61.9,81.1z"/>
</g>
<g>
<g>
<path d="M102.8,80.2c1.3-0.1,2.6,0.1,3.7,0.7l0,0l-5.8,0.3l-1.6-0.7C99.2,80.5,101.2,80.3,102.8,80.2z"/>
<path d="M99,80.7c0-0.1,0-0.1,0.1-0.2c0.1,0,0.1,0,0.2,0c0.5,0.2,1.5,0.7,1.5,0.7s0.6,7.6,0.8,9.4 c0,0.1,0,0.1-0.1,0.2c-0.1,0-0.1,0-0.2,0c-0.5-0.3-1-0.5-1.5-0.5c-0.1,0-0.2-0.1-0.2-0.2C99.4,86.9,99.3,83.8,99,80.7z"/>
<path d="M100.7,81.2l5.8-0.3c0,1.5,0.2,3,0.3,4.4c0.1,1.7,0.1,3.4,0.3,5.2c0,0.1,0,0.1-0.1,0.2 c0,0-0.1,0.1-0.2,0.1c-1.8,0-3.6,0.1-5.3,0.3c-0.1,0-0.1,0-0.2,0c0,0-0.1-0.1-0.1-0.1c-0.1-0.9-0.3-4.4-0.3-4.4L100.7,81.2z"/>
<path d="M100.7,81.2l5.8-0.3c0,0,0.1,0.7,0.2,1.6c0.1,0.8-0.2,1.6-0.7,2.3c-0.5,0.6-1.3,1-2.1,1.1c0,0,0,0,0,0 c-0.8,0-1.6-0.2-2.2-0.8c-0.6-0.6-0.9-1.3-0.9-2.2C100.7,81.9,100.7,81.2,100.7,81.2z"/>
<path d="M103.8,84.6c-0.2,0-0.4,0.2-0.3,0.4c0,0.2,0.2,0.4,0.4,0.4c0.2,0,0.4-0.2,0.3-0.4S104,84.6,103.8,84.6z"/>
</g>
</g>
<g>
<path d="M110.1,80.8l-0.4-0.7l-2.2,0.1l-0.3,0.8L110.1,80.8z"/>
<path d="M107.2,81.1c0-0.1,0-0.1,0-0.2c0,0,0.1-0.1,0.1-0.1c0.7,0,2.7-0.1,2.7-0.1l0.4,8.8 c-0.1,0.3-1.7,0.4-2.6,0.4c-0.1,0-0.2-0.1-0.2-0.2C107.7,86.8,107.6,84,107.2,81.1z"/>
</g>
</g>
</g>


</g>
</g>
<g id="Extras_Front">
<g id="Front">


<g id="None_Front" class="option" style="display: inherit;">
</g>
</g>
</g>
</svg></svg>