<?xml version='1.0' encoding='UTF-8'?><svg version='1.1' xmlns='http://www.w3.org/2000/svg'><metadata><rdf:rdf xmlns:rdf="http://www.w3.org/1999/02/22-rdf-syntax-ns#" xmlns:rdfs="http://www.w3.org/2000/01/rdf-schema#" xmlns:dc="http://purl.org/dc/elements/1.1/"> <rdf:description> <dc:creator>MandoCreator</dc:creator> <dc:publisher>https://www.mandocreator.com</dc:publisher> <dc:description>Your Beskar'gam - created by MandoCreator</dc:description> <dc:format>image/svg+xml</dc:format> <dc:type>Image</dc:type> <dc:title>MandoCreator - Ner Berskar'gam</dc:title> <dc:date>2021-10-08T16:58:39.347Z</dc:date> </rdf:description> </rdf:rdf></metadata><svg version="1.1" id="Female" xmlns="http://www.w3.org/2000/svg" viewBox="0 -55 169 300" style="fill: white; fill-rule: evenodd; stroke: black; stroke-width: 0.2px; pointer-events: none; position: relative; height: 100%;">
<g id="Extras_Back">
<g id="Back"><g id="NO-CAPES_Back" class="option" style="display: inherit;">
</g>
</g>
</g>
<g id="Suit">
<g id="Neck-Seal">
<g id="Standard-Neck-Seal" class="option" style="fill: rgb(117, 97, 80); display: inherit;">
<path d="M95.2,8.5c0-0.9-0.7-1.7-1.6-1.7c0,0-6.1,0.9-9.1,0.9c-3,0-9.1-0.9-9.1-0.9c-0.9,0-1.6,0.7-1.6,1.7 c0,0.9,0.7,1.6,1.6,1.6c0,0,6.1,0.9,9.1,0.9c3,0,9.1-0.9,9.1-0.9C94.4,10.1,95.2,9.4,95.2,8.5z"/>
<path d="M95.7,10.4c0-1-0.8-1.7-1.7-1.7c0,0-6.4,0.9-9.5,0.9s-9.5-0.9-9.5-0.9c-0.9,0-1.7,0.8-1.7,1.7 c0,1,0.8,1.7,1.7,1.7c0,0,6.4,0.9,9.5,0.9s9.5-0.9,9.5-0.9C95,12.1,95.7,11.3,95.7,10.4z"/>
<path d="M96.3,12.8c0-1-0.8-1.8-1.8-1.8c0,0-6.7,1-10.1,1c-3.4,0-10.1-1-10.1-1c-1,0-1.8,0.8-1.8,1.8 s0.8,1.8,1.8,1.8c0,0,6.7,1,10.1,1c3.4,0,10.1-1,10.1-1C95.5,14.6,96.3,13.8,96.3,12.8z"/>
<path d="M96.9,15c0-1.1-0.8-1.9-1.9-1.9c0,0-7,1-10.6,1c-3.5,0-10.6-1-10.6-1c-1,0-1.9,0.9-1.9,1.9 c0,1.1,0.8,1.9,1.9,1.9c0,0,7,1,10.6,1c3.5,0,10.6-1,10.6-1C96.1,16.9,96.9,16,96.9,15z"/>
<path d="M97.5,17.1c0-0.8-0.9-1.5-2-1.5c0,0-7.4,0.8-11.1,0.8c-3.7,0-11.1-0.8-11.1-0.8c-1.1,0-2,0.6-2,1.5 c0,0.8,0.9,1.5,2,1.5c0,0,7.4,0.8,11.1,0.8c3.7,0,11.1-0.8,11.1-0.8C96.6,18.6,97.5,17.9,97.5,17.1z"/>
<path d="M97.5,19.6c0-0.8-0.9-1.5-2-1.5c0,0-7.4,0.8-11.1,0.8c-3.7,0-11.1-0.8-11.1-0.8c-1.1,0-2,0.6-2,1.5 c0,0.8,0.9,1.4,2,1.4c0,0,7.4,1.5,11.1,1.5c3.7,0,11.1-1.5,11.1-1.5C96.6,21,97.5,20.4,97.5,19.6z"/>
</g>
</g>
<g id="Flight-Suit" style="fill: rgb(117, 97, 80);">
<path d="M38.9,64l5.1-18.4l11.8-8l1.8,16.1c0,0-5.1,9.7-6.9,14.2c-1.8,4.6-5,15.1-5.4,16.5l-2.8,24.4l-8.1-2.6 c0,0-0.3-16.9,0.4-24C35.5,76,38.9,64,38.9,64z"/>
<path d="M130.1,64l-5.1-18.5l-11.7-7.9l-1.9,16.2c0,0,5.1,9.6,6.8,14.1c1.8,4.6,5,15.1,5.4,16.5l2.8,24.4l8.1-2.6 c0,0,0.3-16.9-0.4-24C133.5,76,130.1,64,130.1,64z"/>
<path d="M84.5,116.1c-1,0.1-1.9,0.5-2.2,1.2c-2.9,6.2-8.9,34.4-10.7,39.6c-0.9,2.8-1.7,18.3-3.3,27.3 c-1.9,10.8-8.2,37.3-8.2,37.3l-10.9-1.1c0,0-1.4-26.6-1-36.3c0.3-7.4,3.3-21.8,3.3-21.8s0.7-5.3,0.7-7.9c0.1-9.6,0.9-31,2.8-43.3 c1.5-9.7,10.6-30.1,10.6-30.1s11.9,4.7,18.8,4.7c7,0,18.9-4.8,18.9-4.8s8.6,20.5,10.1,30.2c1.9,12.3,3.2,33.7,3.2,43.3 c0,2.7,0.7,7.9,0.7,7.9s3,14.5,3.3,21.8c0.4,9.7-1,36.3-1,36.3l-10.9,1.1c0,0-6.3-26.5-8.2-37.3c-1.6-9-2.3-24.5-3.3-27.3 c-1.7-5.2-7.7-33.4-10.7-39.6C86.5,116.6,85.6,116.2,84.5,116.1L84.5,116.1z"/>
</g>
<g id="Sleeves" class="toggle" style="fill: rgb(117, 97, 80);">
<path d="M42.6,45.6l0.8,0.3l12.4-8.3c0,0,0.4,8.8,1.4,14.1c0.1,0.7,0.4,1.7,0.6,2.7l-1.6,5.3c0,0-5.6-2.2-8.1-3.6 c-2.4-1.4-6.7-5-6.7-5L42.6,45.6z"/>
<path d="M111.3,54.4c0.3-1.1,0.5-2,0.6-2.7c1-5.3,1.4-14.1,1.4-14.1l12.4,8.3l0.8-0.3l1.2,5.5c0,0-4.3,3.6-6.7,5 c-2.5,1.4-8.1,3.6-8.1,3.6L111.3,54.4z"/>
</g>
</g>
<g id="Boots">
<g id="Tall_Boots" class="option" style="display: inherit;">
<g id="Bottom_Tall-Boot" style="fill: rgb(95, 65, 39);">
<path d="M62.5,229.5c0,0.1,0,0.3-0.1,0.4c-0.9,1.8-3.2,2.4-4.8,2.8c-1.1,0.3-2.2,0.7-3.3,1.2c-1.5,0.7-2.2,2-3.4,3.2 c-0.5,0.5-1.1,0.9-1.7,1.3c-1.5,1-2.9,1.1-4.5,1.1c-2.2,0.1-4.2-0.3-6.4-0.8c-1.9-0.5-3.4-0.9-5-1.4c-0.5-0.2-1.1-0.3-1.4-0.7 l-0.3,0.6l-0.2,1.7c0,0,1.8,1.1,3.7,1.6c1.9,0.5,5.8,1.2,5.8,1.2l0.3-0.7l0.9,0.2l0,0.7l2.1,0.1l0.4-0.7l0.7,0l-0.1,0.6 c0,0,1.3,0,2-0.5c0.1-0.2,0.4-0.6,0.4-0.6l0.5-0.3l-0.1,0.6l1.8-0.7l0.1-0.8l0.5-0.3l0,0.6l1.3-1.1L52,238l2.8-1.7l0.9,0.4 l2.3-0.6l0.1-0.6l0.6-0.3l0.4,0.4l1.5-0.7l0-0.5l0.5-0.2l0.1,0.4l1.4-1.1L62.5,229.5z M62.5,228.9L62.5,228.9L62.5,228.9 L62.5,228.9z"/>
<path d="M106.6,229.5c0,0.1,0,0.3,0.1,0.4c0.9,1.8,3.2,2.4,4.8,2.8c1.1,0.3,2.2,0.7,3.3,1.2c1.5,0.7,2.2,2,3.4,3.2 c0.5,0.5,1.1,0.9,1.7,1.3c1.5,1,2.9,1.1,4.5,1.1c2.2,0.1,4.2-0.3,6.4-0.8c1.9-0.5,3.4-0.9,5-1.4c0.5-0.2,1.1-0.3,1.4-0.7l0.3,0.6 l0.2,1.7c0,0-1.8,1.1-3.7,1.6c-1.9,0.5-5.8,1.2-5.8,1.2l-0.3-0.7l-0.9,0.2l0,0.7l-2.1,0.1l-0.4-0.7l-0.7,0l0.1,0.6 c0,0-1.3,0-2-0.5c-0.1-0.2-0.4-0.6-0.4-0.6l-0.5-0.3l0.1,0.6l-1.8-0.7l-0.1-0.8l-0.5-0.3l0,0.6l-1.3-1.1l-0.1-0.7l-2.8-1.7 l-0.9,0.4l-2.3-0.6l-0.1-0.6l-0.6-0.3l-0.4,0.4l-1.5-0.7l0-0.5l-0.5-0.2l-0.1,0.4l-1.4-1.1L106.6,229.5z M106.5,228.9 L106.5,228.9L106.5,228.9L106.5,228.9z"/>
</g>
<g id="Main_Tall-Boot" style="fill: rgb(89, 51, 18);">
<path d="M62.5,216c1.3-4.3,2.2-11.2,3-14.3c0.6-2.3,3.2-15.1,2.8-16.7c-0.4-1.6-19.6-4.8-20.1-3.4 c-0.8,2.2,0.3,24.3,0.2,27.5c-0.1,2.4,0.2,7.4,0.2,7.4c-0.2,1.3-0.4,2.7-0.9,3.9c-0.9,2.2-1.5,2.9-2.9,4.6c-1,1.1-3,3.1-4.2,3.9 c-0.5,0.4-2.3,1.7-2.3,1.7c-2.3,1-4.8,0.6-6,3.5c-0.3,0.6-0.5,1.4-0.5,2.1c0.1,0.9,0.9,1,1.6,1.2c1.7,0.5,3.1,1,5,1.4 c2.2,0.6,4.2,0.9,6.4,0.8c1.7-0.1,3.1-0.1,4.5-1.1c0.6-0.4,1.2-0.8,1.7-1.3c1.1-1.2,1.9-2.4,3.4-3.2c1.1-0.5,2.2-0.9,3.3-1.2 c1.6-0.4,3.9-1,4.8-2.8c0.3-1.3,0-2-0.1-3.2l-0.1-0.5c-0.1-0.8-0.2-1.5-0.2-2.3c-0.1-1.6,0.3-3.1,0.4-4.7 c0.1-0.9,0.1-1.8,0.1-2.7C62.5,216.5,62.5,216.2,62.5,216z"/>
<path d="M106.6,216c-1.3-4.3-2.2-11.2-3-14.3c-0.6-2.3-3.2-15.1-2.8-16.7c0.4-1.6,19.6-4.8,20.1-3.4 c0.8,2.2-0.3,24.3-0.2,27.5c0.1,2.4-0.2,7.4-0.2,7.4c0.2,1.3,0.4,2.7,0.9,3.9c0.9,2.2,1.5,2.9,2.9,4.6c1,1.1,3,3.1,4.2,3.9 c0.5,0.4,2.3,1.7,2.3,1.7c2.3,1,4.8,0.6,6,3.5c0.3,0.6,0.5,1.4,0.5,2.1c-0.1,0.9-0.9,1-1.6,1.2c-1.7,0.5-3.1,1-5,1.4 c-2.2,0.6-4.2,0.9-6.4,0.8c-1.7-0.1-3.1-0.1-4.5-1.1c-0.6-0.4-1.2-0.8-1.7-1.3c-1.1-1.2-1.9-2.4-3.4-3.2 c-1.1-0.5-2.2-0.9-3.3-1.2c-1.6-0.4-3.9-1-4.8-2.8c-0.3-1.3,0-2,0.1-3.2l0.1-0.5c0.1-0.8,0.2-1.5,0.2-2.3 c0.1-1.6-0.3-3.1-0.4-4.7c0-0.9-0.1-1.8-0.1-2.7C106.6,216.5,106.6,216.2,106.6,216z"/>
</g>
</g>
</g>
<g id="Gloves">
<g id="Left-Glove">
<g id="Fingerless_Left_Glove" class="option" style="display: inherit;">
<g id="Fingers_Fingerless_Left_Glove" style="fill: rgb(117, 97, 80);">
<path d="M131.4,123c-0.5,0-0.9,0-1.3,0.1c-0.3,0.1-0.6,0.2-0.9,0.3c-0.8,0.5-0.6,1.7,0.1,2.2c0.9,0.5,2.2,0,2.6-1 C132.1,124.2,131.6,123.4,131.4,123"/>
<path d="M129.9,124c-0.5,0-0.9,0-1.3,0.1c-0.3,0.1-0.6,0.2-0.9,0.3c-0.8,0.5-0.6,1.7,0.1,2.2c0.9,0.5,2.2,0,2.6-1 C130.6,125.2,130.1,124.4,129.9,124"/>
<path d="M128.8,125.4c-0.4,0-1,0.2-1.4,0.3c-0.3,0.1-0.6,0.2-0.8,0.5c-0.8,0.7-0.4,1.8,0.4,2.1 c0.9,0.4,2.2-0.3,2.5-1.4C129.5,126.5,128.8,125.4,128.8,125.4z"/>
<path d="M124.1,118.9c-0.3,1.3-0.5,2-0.5,2s-1.2,2.7-0.9,3.3c0.2,0.6,1.2,1.2,1.8,0.8c0.7-0.4,1.6-2.3,2.2-3.6 c0.2-0.5,0.4-1,0.6-1.6C125,120.2,124.1,118.9,124.1,118.9L124.1,118.9z"/>
<path d="M128.9,125.2c-0.2,0.3-0.4,0.7-0.6,1c-1.1,1.9-2.9,3.6-1.7,5.1c1.1,1.4,3.5-2.3,3.5-2.3l1.1-1.7 C129.4,126.9,128.9,125.2,128.9,125.2z"/>
</g>
<path id="Glove_Fingerless_Left_Glove" d="M131.3,127.4l1.3-1.9c0,0,2.8-5.1,2.9-6.1c0.1-0.8,0-3.3,0-3.3l-0.9-9.9 l-4.4,0.4l-3.6,1.3l-0.3,1.7c0,0-1.3,2-1.6,3.5c-0.2,1-0.1,3.5-0.4,5.2c0,0.2-0.1,0.4-0.1,0.6l0,0c0,0,0.8,1.3,3.1,0.9 c0.3-0.9,0.5-1.7,0.5-1.7s0.8,0.3,1.2,0.7c1.3,1.2,0.8,4.7,0.8,4.7s-0.3,0.7-0.8,1.7C128.9,125.2,129.4,126.9,131.3,127.4z" style="fill: rgb(50, 50, 50);"/>
</g>
</g>
<g id="Right-Glove">
<g id="Fingerless_Right_Glove" class="option" style="display: inherit;">
<g id="Fingers_Fingerless_Right_Glove" style="fill: rgb(117, 97, 80);">
<path d="M37.6,123c0.5,0,0.9,0,1.3,0.1c0.3,0.1,0.6,0.2,0.9,0.3c0.8,0.5,0.6,1.7-0.1,2.2c-0.9,0.5-2.2,0-2.6-1 C36.9,124.2,37.4,123.4,37.6,123"/>
<path d="M39.2,124c0.5,0,0.9,0,1.3,0.1c0.3,0.1,0.6,0.2,0.9,0.3c0.8,0.5,0.6,1.7-0.1,2.2c-0.9,0.5-2.2,0-2.6-1 C38.4,125.2,38.9,124.4,39.2,124"/>
<path d="M40.2,125.4c0.5,0,1,0.2,1.4,0.3c0.3,0.1,0.6,0.2,0.8,0.5c0.8,0.7,0.4,1.8-0.4,2.1 c-0.9,0.4-2.2-0.3-2.5-1.4C39.5,126.5,40.2,125.4,40.2,125.4z"/>
<path d="M44.9,118.9c0.3,1.3,0.5,2,0.5,2s1.1,2.7,0.9,3.3c-0.2,0.6-1.2,1.2-1.8,0.8c-0.7-0.4-1.6-2.3-2.2-3.6 c-0.2-0.5-0.4-1-0.6-1.6C44.1,120.2,44.9,118.9,44.9,118.9L44.9,118.9z"/>
<path d="M40.1,125.2c0.2,0.3,0.4,0.7,0.6,1c1.1,1.9,2.9,3.6,1.7,5.1c-1.1,1.4-3.5-2.3-3.5-2.3l-1.1-1.7 C39.7,126.9,40.1,125.2,40.1,125.2z"/>
</g>
<path id="Glove_Fingerless_Right_Glove" d="M37.8,127.4l-1.3-1.9c0,0-2.8-5.1-2.9-6.1c-0.1-0.8,0-3.3,0-3.3 l0.9-9.9l4.4,0.4l3.6,1.3l0.3,1.7c0,0,1.3,2,1.6,3.5c0.2,1,0.1,3.5,0.4,5.2c0,0.2,0.1,0.4,0.1,0.6l0,0c0,0-0.8,1.3-3.1,0.9 c-0.3-0.9-0.5-1.7-0.5-1.7s-0.8,0.3-1.2,0.7c-1.3,1.2-0.8,4.7-0.8,4.7s0.3,0.7,0.8,1.7C40.1,125.2,39.7,126.9,37.8,127.4z" style="fill: rgb(50, 50, 50);"/>
</g>
</g>
</g>
<g id="Biceps">
<g id="Left-Biceps">
<g id="None_Biceps_Left" class="option" style="display: inherit;">
</g>
</g>
<g id="Right-Biceps">
<g id="None_Biceps_Right" class="option" style="display: inherit;">
</g>
</g>
</g>
<path id="Vest" d="M90.9,86.3c-4.2,0.9-8.6,0.9-12.8,0c-4.2-0.9-12.5-5.2-12.5-5.2s-7.2-22.8-8.5-29.4 c-1-5.3-1.4-14.1-1.4-14.1L43.4,46l-2.6-1.1c0,0,7.4-16.4,12.3-21.1c4.4-4.3,17-7.3,17-7.3s5.5,6.1,14.6,6.1 c8.6,0,14.6-6.1,14.6-6.1s12.5,3.1,17,7.3c4.9,4.7,12.3,21.1,12.3,21.1l-2.6,1.1l-12.4-8.3c0,0-0.4,8.8-1.4,14.1 c-1.3,6.6-8.5,29.4-8.5,29.4S95.1,85.4,90.9,86.3z" style="fill: rgb(68, 57, 47);"/>
<g class="swappable" id="Chest">
<g id="Chest_Gunslinger-MK1" style="visibility: visible;">
<path id="Abdomen_Gunslinger-MK1" d="M104.8,61.8l-0.2,1.9c0,0-8.4,5.4-11.7,7.3c-3.1,1.8-5.5,2.2-8.3,2.2 s-5.2-0.4-8.3-2.2c-3.4-2-11.7-7.3-11.7-7.3l-0.2-1.9H104.8z" style="fill: rgb(129, 164, 148);"/>
<g id="Chest-Plates_Gunslinger-MK1">
<g id="Left-Chest_Gunslinger-MK1">
<g id="Bottom_Left-Chest_Gunslinger-MK1" style="fill: rgb(119, 149, 135);">
<path d="M109.8,44.3l-3.6,1.8L86.8,57l1.8,3.5h16.8L109.8,44.3z"/>
<path d="M85.8,57.7l2.8,2.8L86.8,57L85.8,57.7z"/>
</g>
<g id="Top_Left-Chest_Gunslinger-MK1" style="fill: rgb(129, 164, 148);">
<path d="M87.9,26.8v4.5l3,6.6l-4,8.7l0,10.5l19.4-10.9l-1.6-19.3H87.9z"/>
<path d="M106.3,46.1l3.6-1.8l-1.4-19.2l-3.8,1.6L106.3,46.1z"/>
<path d="M86.2,24.9l22.2,0.2l-3.8,1.6H87.9L86.2,24.9z"/>
<path d="M86.2,24.9v6.3l1.6,0.1v-4.5L86.2,24.9z"/>
<path d="M89.7,38l1.2-0.1l-3-6.6l-1.6-0.1L89.7,38z"/>
<path d="M85.8,46.1l1,0.5l4-8.7L89.7,38L85.8,46.1z"/>
<path d="M86.8,57l-1,0.7V46.1l1,0.5V57z"/>
</g>
</g>
<g id="Right-Chest_Gunslinger-MK1">
<g id="Bottom_Right-Chest_Gunslinger-MK1" style="fill: rgb(119, 149, 135);">
<path d="M59.2,44.3l3.6,1.8L82.2,57l-1.8,3.5H63.6L59.2,44.3z"/>
<path d="M83.2,57.7l-2.8,2.8l1.8-3.5L83.2,57.7z"/>
</g>
<g id="Top_Right-Chest_Gunslinger-MK1" style="fill: rgb(129, 164, 148);">
<path d="M81.1,26.8v4.5l-3,6.6l4,8.7l0,10.5L62.7,46.1l1.6-19.3H81.1z"/>
<path d="M62.7,46.1l-3.6-1.8l1.4-19.2l3.8,1.6L62.7,46.1z"/>
<path d="M82.8,24.9l-22.2,0.2l3.8,1.6h16.8L82.8,24.9z"/>
<path d="M82.8,24.9v6.3l-1.6,0.1v-4.5L82.8,24.9z"/>
<path d="M79.3,38l-1.2-0.1l3-6.6l1.6-0.1L79.3,38z"/>
<path d="M83.2,46.1l-1,0.5l-4-8.7l1.2,0.1L83.2,46.1z"/>
<path d="M82.2,57l1,0.7V46.1l-1,0.5V57z"/>
</g>
</g>
</g>
<g id="Iron-Heart_Gunslinger-MK1">
<path id="Under-Heart_Gunslinger-MK1" d="M65,61.8l-0.8-1.3h16.1l2.8-2.8V46.1L79.2,38l3.5-6.8v-5.4h3.6v5.4 l3.5,6.8l-3.9,8.1v11.6l2.8,2.8h16.1l-0.8,1.3H65z" style="fill: rgb(88, 118, 104);"/>
<g id="Heart_Gunslinger-MK1" style="fill: rgb(163, 163, 163);">
<path d="M83.6,45l-3.4-6.9l2.9-5.7h2.6l2.9,5.7L85.4,45H83.6z"/>
<path d="M83.9,44.5l-3.1-6.3l2.7-5.2l1.9,0l2.7,5.2l-3.1,6.3L83.9,44.5z"/>
</g>
<rect id="Center_Heart_Gunslinger-MK1" class="option" x="84.1" y="34.8" width="0.9" height="9.7" style="fill: rgb(132, 131, 131); display: inherit;"/>
</g>
</g>
</g>
<g id="Chest-Attachments">
<g id="Bandoleer_Accessories_Chest" class="option" style="display: inherit;">
<g id="Strap_Bandoleer_Accessories_Chest" style="fill: rgb(50, 50, 50);">
<path d="M112.6,19.9l-6.7-3.3l-37,67l6.7,3.7L112.6,19.9"/>
<path d="M110.8,18.7l-2.5-1.2l-8.4,15.3l2.4,1.3L110.8,18.7"/>
<path d="M98.8,40.7L96,39.2l-13,23.5l2.8,1.5L98.8,40.7"/>
<path d="M99.1,41.6l-4-2.2l-1.3,2.4l4,2.2L99.1,41.6"/>
<path d="M97.5,44.5l-4-2.2l-1.3,2.4l4,2.2L97.5,44.5"/>
<path d="M95.9,47.3l-4-2.2l-1.3,2.4l4,2.2L95.9,47.3"/>
<path d="M94.4,50.2l-4-2.2l-1.3,2.4l4,2.2L94.4,50.2"/>
<path d="M92.8,53l-4-2.2l-1.3,2.4l4,2.2L92.8,53"/>
<path d="M89.6,58.7l-4-2.2l-1.3,2.4l4,2.2L89.6,58.7"/>
<path d="M91.2,55.9l-4-2.2L86,56.1l4,2.2L91.2,55.9"/>
<path d="M88.1,61.6l-4-2.2l-1.3,2.4l4,2.2L88.1,61.6"/>
</g>
<g id="Ammo_Bandoleer_Accessories_Chest" style="fill: rgb(96, 99, 14);">
<g>
<g>
<path d="M98.9,41.9l1.6,0.9c0.2,0.1,0.2,0.3,0.1,0.5c-0.2,0.3-0.5,0.9-0.7,1.2c-0.1,0.2-0.3,0.2-0.5,0.1l-1.6-0.9 L98.9,41.9z"/>
<path d="M100.1,42.5l-0.1-0.1l-1,1.8l0.1,0.1L100.1,42.5z"/>
<path d="M99.9,42.4l-0.1-0.1l-1,1.8l0.1,0.1L99.9,42.4z"/>
</g>
<g>
<path d="M95,39.7l-1,1.8l-1.6-0.9c-0.2-0.1-0.2-0.3-0.1-0.5c0.2-0.3,0.5-0.9,0.7-1.2c0.1-0.2,0.3-0.2,0.5-0.1 L95,39.7z"/>
<path d="M93.8,39l-0.1-0.1l-1,1.8l0.1,0.1L93.8,39z"/>
</g>
</g>
<g>
<g>
<path d="M95.8,47.6l1.6,0.9c0.2,0.1,0.2,0.3,0.1,0.5c-0.2,0.3-0.5,0.9-0.7,1.2c-0.1,0.2-0.3,0.2-0.5,0.1l-1.6-0.9 L95.8,47.6z"/>
<path d="M97,48.3l-0.1-0.1l-1,1.8l0.1,0.1L97,48.3z"/>
<path d="M96.7,48.1L96.6,48l-1,1.8l0.1,0.1L96.7,48.1z"/>
</g>
<g>
<path d="M91.8,45.4l-1,1.8l-1.6-0.9C89,46.3,89,46,89.1,45.9c0.2-0.3,0.5-0.9,0.7-1.2c0.1-0.2,0.3-0.2,0.5-0.1 L91.8,45.4z"/>
<path d="M90.6,44.7l-0.1-0.1l-1,1.8l0.1,0.1L90.6,44.7z"/>
</g>
</g>
<g>
<g>
<path d="M94.2,50.4l1.6,0.9c0.2,0.1,0.2,0.3,0.1,0.5c-0.2,0.3-0.5,0.9-0.7,1.2c-0.1,0.2-0.3,0.2-0.5,0.1l-1.6-0.9 L94.2,50.4z"/>
<path d="M95.4,51.1L95.3,51l-1,1.8l0.1,0.1L95.4,51.1z"/>
<path d="M95.1,50.9L95,50.9l-1,1.8l0.1,0.1L95.1,50.9z"/>
</g>
<g>
<path d="M90.3,48.3l-1,1.8l-1.6-0.9c-0.2-0.1-0.2-0.3-0.1-0.5c0.2-0.3,0.5-0.9,0.7-1.2c0.1-0.2,0.3-0.2,0.5-0.1 L90.3,48.3z"/>
<path d="M89,47.6l-0.1-0.1l-1,1.8l0.1,0.1L89,47.6z"/>
</g>
</g>
<g>
<g>
<path d="M92.6,53.3l1.6,0.9c0.2,0.1,0.2,0.3,0.1,0.5c-0.2,0.3-0.5,0.9-0.7,1.2c-0.1,0.2-0.3,0.2-0.5,0.1l-1.6-0.9 L92.6,53.3z"/>
<path d="M93.8,54l-0.1-0.1l-1,1.8l0.1,0.1L93.8,54z"/>
<path d="M93.6,53.8l-0.1-0.1l-1,1.8l0.1,0.1L93.6,53.8z"/>
</g>
<g>
<path d="M88.7,51.1l-1,1.8l-1.6-0.9c-0.2-0.1-0.2-0.3-0.1-0.5c0.2-0.3,0.5-0.9,0.7-1.2c0.1-0.2,0.3-0.2,0.5-0.1 L88.7,51.1z"/>
<path d="M87.5,50.5l-0.1-0.1l-1,1.8l0.1,0.1L87.5,50.5z"/>
</g>
</g>
</g>
<g id="Buckles_Bandoleer_Accessories_Chest" style="fill: rgb(118, 118, 118);">
<g>
<path d="M103.4,32.5l-2.9-1.6l-1.6,3l2.9,1.6L103.4,32.5z"/>
<path d="M102.7,33l-2.2-1.2l-1.6,3L101,36L102.7,33z"/>
</g>
<path d="M103.4,29l-1.9-1l1.6-3l3.8,2.1l-1.6,3L103.4,29l0.4-0.7l1.1,0.6l0.9-1.6l-2.1-1.2l-0.9,1.6l1,0.6"/>
</g>
</g>
</g>
<g id="Collar">
<g id="None_Collar" class="option" style="display: inherit;">
</g>
</g>
<svg version="1.1" id="Helmets" xmlns="http://www.w3.org/2000/svg" y="-54px" height="85px" viewBox="0 0 80 80" class="swappable">
<g id="Helmet_Classic" style="visibility: visible;">
<g id="Left-Earcap_Classic" class="toggle">
<path id="Ear-Cap_Left_Classic" d="M60.1,57.2l1.7-2.6l-1.7-17.8l-2.4-1.5L60.1,57.2z" style="fill: rgb(143, 41, 84);"/>
</g>
<g id="Right-Earcap_Classic" class="toggle">
<g id="Range-Finder_Right_Classic" class="option" style="display: inherit;">
<path id="Shaft_Right_Range-Finder_Classic" d="M22.5,9.7l1.1,0.1L22,36.7h-1.1L22.5,9.7z" style="fill: rgb(50, 50, 50);"/>
<path id="Finder_Right_Range-Finder_Classic" d="M30.8,7.6h-6L25,6.9l7-0.7L30.8,7.6" style="fill: rgb(129, 164, 148);"/>
<g id="Cover_Right_Range-Finder_Classic" style="fill: rgb(75, 114, 96);">
<path d="M21.6,8.6l2.8,0.2l0.6-2l7.5-0.7l0.1-0.8L22,5l-1,1.3L21.6,8.6"/>
<path d="M22.4,8.6l1.4,0.1l-0.1,1.1l-1.4-0.1L22.4,8.6"/>
</g>
</g>
<path id="Ear-Cap_Right_Classic" d="M19.9,57.2l-1.7-2.6l1.7-17.8l2.4-1.5L19.9,57.2z" style="fill: rgb(143, 41, 84);"/>
</g>
<g id="Helmet_Pieces_Classic">
<g id="Face_Classic" style="fill: rgb(129, 164, 148);">
<path d="M22.2,58.7c0,0,0.6-4.2,1.5-6.3c0.9-2.1,2.7-4.4,4.8-4.1c1.6,0.3,4.8,7.9,5.1,17.3 C33.4,65.6,22.2,58.7,22.2,58.7z"/>
<path d="M57.8,58.7c0,0-0.6-4.2-1.5-6.3c-0.9-2.1-2.7-4.4-4.8-4.1c-1.6,0.3-4.8,7.9-5.1,17.3 C46.5,65.6,57.8,58.7,57.8,58.7z"/>
</g>
<g id="Cheeks_Classic" style="fill: rgb(75, 114, 96);">
<path d="M22.2,58.7l-2.4-0.1l1.8-16.3c0.6,0.2,5.7,1.8,7.4,3.4c1.8,1.7,3,4.3,3.6,6.8c0.6,2.7,1,9.6,1.1,12.2 c-0.4-8.9-3.5-16-5-16.3c-2-0.4-3.8,2-4.8,4.1C22.8,54.5,22.2,58.7,22.2,58.7z"/>
<path d="M46.4,64.7c0.1-2.6,0.4-9.6,1.1-12.2c0.6-2.5,1.8-5.1,3.6-6.8c1.7-1.6,6.6-3.1,7.4-3.3l1.8,16.3l-2.4,0.2 v-0.1c0,0-0.6-4.2-1.5-6.3c-0.9-2.1-2.7-4.4-4.8-4.1C49.9,48.7,46.9,55.8,46.4,64.7z"/>
</g>
<path id="Eyes_Classic" d="M46.4,65.7H33.6c0,0-0.3-9.9-1.1-13.3c-0.6-2.5-1.8-5.1-3.6-6.8c-1.8-1.7-7.3-3.4-7.3-3.4 l0.7-6.3c0,0,5.7,0.7,8.6,0.9C33.6,37,39,37,40.1,37c1.1,0,6.5,0,9.2-0.2c2.9-0.2,8.6-0.9,8.6-0.9l0.7,6.3c0,0-5.5,1.7-7.3,3.4 c-1.8,1.7-3,4.3-3.6,6.8C46.7,55.8,46.4,65.7,46.4,65.7z" style="fill: rgb(143, 41, 84);"/>
<g id="Visors_Classic">
<path id="Basic_Visor_Classic" class="option" d="M43.4,65.7h-6.9V42.3c0,0-3.8-0.4-5.7-0.8C28.6,41,23,39.2,23,39.2l0.1-1.3 c0,0,5.2,0.9,7.8,1.2c2.6,0.3,6.1,0.6,9.1,0.6s6.5-0.4,9.1-0.6c2.6-0.3,7.8-1.2,7.8-1.2l0.1,1.3c0,0-5.6,1.8-7.9,2.3 c-1.9,0.4-5.7,0.8-5.7,0.8V65.7z" style="fill: rgb(0, 0, 0); display: inherit;"/>
</g>
<path id="Dome_Classic" d="M22.2,36.1L22.2,36.1c0.1-9.4,7.9-16.9,17.6-17.1h0.4c9.7,0.2,17.5,7.7,17.6,17v0.1 c-0.8,0.1-5.9,0.7-8.6,0.9s-8.1,0.2-9.2,0.2s-6.5,0-9.2-0.2S23,36.1,22.2,36.1z" style="fill: rgb(129, 164, 148);"/>
</g>
</g>
</svg>
<g id="Shoulders">
<g id="Left-Shoulder">
<g id="Bell_Shoulder_Left" class="option" style="display: inherit;">
<path id="Main_Bell_Shoulder_Left" d="M103,17.6L103,17.6c10-3.2,20.4,1.3,23.2,10.1c2.1,6.6,4.5,14.1,4.5,14.1 l-18.2,5.8L103,17.6" style="fill: rgb(143, 41, 84);"/>
<path id="Ridge_Bell_Shoulder_Left" class="toggle" d="M102.8,16.1l0.4,1.4c8.6-2.7,20.2,1.9,23,10.5l4.3,13.4l1.5-0.5 c0,0-2-6.2-4.2-13.3C125.4,19.9,115,12.8,102.8,16.1" style="display: none; fill: rgb(255, 255, 255);"/>
<g id="Trim_Bell_Shoulder_Left" class="toggle" style="fill: rgb(126, 35, 73);">
<path d="M104.6,16.9l-1.6,0.5l9.6,30.1L114,47L104.6,16.9"/>
<path d="M113.6,45.6l-1,1.9l18.4-5.8l-0.5-1.5L113.6,45.6"/>
</g>
</g>
</g>
<g id="Right-Shoulder">
<g id="Bell_Shoulder_Right" class="option" style="display: inherit;">
<path id="Main_Bell_Shoulder_Right" d="M66,17.6L66,17.6c-10-3.2-20.4,1.3-23.2,10.1c-2.1,6.6-4.5,14.1-4.5,14.1 l18.2,5.8L66,17.6" style="fill: rgb(143, 41, 84);"/>
<path id="Ridge_Bell_Shoulder_Right" class="toggle" d="M66.2,16.1l-0.4,1.4c-8.6-2.7-20.2,1.9-23,10.5l-4.3,13.4L37,40.9 c0,0,2-6.2,4.2-13.3C43.7,19.9,54,12.8,66.2,16.1" style="display: none; fill: rgb(255, 255, 255);"/>
<g id="Trim_Bell_Shoulder_Right" class="toggle" style="fill: rgb(126, 35, 73);">
<path d="M64.5,16.9l1.6,0.5l-9.6,30.1L55.1,47L64.5,16.9"/>
<path d="M55.5,45.6l1,1.9l-18.4-5.8l0.5-1.5L55.5,45.6"/>
</g>
</g>
</g>
</g>
<g id="Gauntlets">
<g id="Left-Gauntlets">
<g id="Gunslinger_Gauntlet_Left" class="option" style="display: inherit;">
<g id="Accent-Top_Gunslinger_Gauntlet_Left" style="fill: rgb(163, 163, 163);">
<path d="M134.9,82.1l0.2,5.7l-2.9,0.6l-0.2-5.5L134.9,82.1z"/>
<path d="M131.8,103.1l0.3,3l-2.6,0.3l-0.4-3L131.8,103.1z"/>
</g>
<path id="Top_Gunslinger_Gauntlet_Left" d="M134.9,82.1l1.3-0.4l0.1,26.9l-6.4,0.8l-0.5-4.2l0.1,1.2l2.6-0.3 l-0.3-3l-2.6,0.3l-2.3-19L134.9,82.1l-3,0.9l0.2,5.5l2.9-0.6L134.9,82.1z" style="fill: rgb(129, 164, 148);"/>
<g id="Accent-Bottom_Gunslinger_Gauntlet_Left" style="fill: rgb(163, 163, 163);">
<path d="M122.5,92.8l-0.6-2.4l-1.7,0.4l0.6,2.4L122.5,92.8z"/>
<path d="M123.2,95.5l-0.6-2.4l-1.7,0.4l0.6,2.4L123.2,95.5z"/>
<path d="M129.2,103.5l-5.7,0.8l0.7,2.9l5.4-0.7L129.2,103.5z"/>
</g>
<path id="Bottom_Gunslinger_Gauntlet_Left" d="M129.5,106l-0.3-2.5l-5.7,0.8l0.7,2.9l5.4-0.7l0.4,3 c0,0-2,0.2-3.5,0.3c-0.9,0.1-1.8-0.5-2-1.5c-1.2-5-4.7-20.2-4.7-20.2l7.3-3.3L129.5,106z M123.2,95.5l-0.6-2.4l-1.7,0.4l0.6,2.4 L123.2,95.5z M122.5,92.8l-0.6-2.4l-1.7,0.4l0.6,2.4L122.5,92.8z" style="fill: rgb(75, 114, 96);"/>
<g id="No-Device_Attachment_Gunslinger_Gauntlet_Left" class="option" style="display: inherit;">
</g>
</g>
</g>
<g id="Right-Gauntlets">
<g id="Gunslinger_Gauntlet_Right" class="option" style="display: inherit;">
<g id="Accent-Top_Gunslinger_Gauntlet_Right" style="fill: rgb(163, 163, 163);">
<path d="M34,82.1l-0.2,5.7l2.9,0.6L37,83L34,82.1z"/>
<path d="M37.1,103.1l-0.3,3l2.6,0.3l0.4-3L37.1,103.1z"/>
</g>
<path id="Top_Gunslinger_Gauntlet_Right" d="M34,82.1l-1.3-0.4l-0.1,26.9l6.4,0.8l0.5-4.2l-0.1,1.2l-2.6-0.3l0.3-3 l2.6,0.3l2.3-19L34,82.1l3,0.9l-0.2,5.5l-2.9-0.6L34,82.1z" style="fill: rgb(129, 164, 148);"/>
<g id="Accent-Bottom_Gunslinger_Gauntlet_Right" style="fill: rgb(163, 163, 163);">
<path d="M46.4,92.8l0.6-2.4l1.7,0.4l-0.6,2.4L46.4,92.8z"/>
<path d="M45.8,95.5l0.6-2.4l1.7,0.4l-0.6,2.4L45.8,95.5z"/>
<path d="M39.7,103.5l5.7,0.8l-0.7,2.9l-5.4-0.7L39.7,103.5z"/>
</g>
<path id="Bottom_Gunslinger_Gauntlet_Right" d="M39.4,106l0.3-2.5l5.7,0.8l-0.7,2.9l-5.4-0.7l-0.4,3 c0,0,2,0.2,3.5,0.3c0.9,0.1,1.8-0.5,2-1.5c1.2-5,4.7-20.2,4.7-20.2L42,84.8L39.4,106z M45.8,95.5l0.6-2.4l1.7,0.4l-0.6,2.4 L45.8,95.5z M46.4,92.8l0.6-2.4l1.7,0.4l-0.6,2.4L46.4,92.8z" style="fill: rgb(75, 114, 96);"/>
<g id="Flamethrower_Attachment_Gunslinger_Gauntlet_Right" class="option" style="display: inherit;">
<g id="Tubes_Flamethrower_Attachment_Gunslinger_Gauntlet_Right" style="fill: rgb(0, 0, 0);">
<path d="M31.2,83.4l0.8,0l0,25.7l-0.8,0L31.2,83.4z"/>
<path d="M29.3,83.4h0.8l0,18.4l-0.8,0L29.3,83.4z"/>
<path d="M31.1,85l1.2,0l0,6.1l-1.2,0L31.1,85z"/>
<path d="M29.1,85l1.2,0l0,6.1l-1.2,0L29.1,85z"/>
</g>
<g id="Main_Flamethrower_Attachment_Gunslinger_Gauntlet_Right" style="fill: rgb(163, 163, 163);">
<path d="M28.9,83.4l3.5,0l0,1.6l-3.5,0L28.9,83.4z"/>
<path d="M28.8,91.2l3.6,0v1l-3.6,0V91.2z"/>
<path d="M29,92.1l3.3,0l0,0.5l-3.3,0V92.1z"/>
<path d="M32.1,90.6l0.6,0l0,3l-0.6,0L32.1,90.6z"/>
</g>
<g id="Accent_Flamethrower_Attachment_Gunslinger_Gauntlet_Right" style="fill: rgb(163, 163, 163);">
<path d="M29.2,101.8l0.9,0l0.1,1.3l-1.2,0L29.2,101.8z"/>
<path d="M28.9,95.3l1.6,0l0,1.9l-1.6,0L28.9,95.3z"/>
<path d="M29.1,97.2l1.2,0l0,1.9l-1.2,0L29.1,97.2z"/>
<path d="M31,105.9l1.2,0l0,2.7l-1.2,0L31,105.9z"/>
<path d="M31,97.2l1.2,0l0,3.6l-1.2,0L31,97.2z"/>
<path d="M30.8,107.2l1.6,0l0,0.5l-1.6,0V107.2z"/>
</g>
<path id="Base_Flamethrower_Attachment_Gunslinger_Gauntlet_Right" d="M32.7,90.6l0-8.1l-1,0.4l0,13.7l1,0.4 l0-3.4l-0.6,0l0-3L32.7,90.6z" style="fill: rgb(163, 163, 163);"/>
</g>
</g>
</g>
</g>
<g id="Shins">
<g id="Left-Shin">
<g id="Full_Shin_Left" class="option" style="display: inherit;">
<path id="Shin_Full-Shin_Left" d="M102.3,174.6c11.2-2.4,18.5-0.1,18.5-0.1l2.1,43.2c0,0-4.4,1-9.2,0.8 c-3.5-0.1-9-1.5-9-1.5l-6-37C98.8,180.1,102.5,179.5,102.3,174.6" style="fill: rgb(89, 51, 18);"/>
<g id="Accent_Full-Shin_Left" class="toggle" style="fill: rgb(127, 93, 107);">
<path d="M99.5,184.1l6.2-0.4l0.3,1.6l-6.2,0.4L99.5,184.1"/>
<path d="M99.9,186.4l4.2-0.3l0.3,1.6l-4.3,0.3L99.9,186.4"/>
</g>
<g id="Ridge_Full-Shin_Left" class="toggle" style="fill: rgb(65, 44, 26);">
<path d="M117.1,173.3l-3.9-0.5l-4.1,0.3l5.9,45.4c2,0.1,3.4-0.1,5.7-0.4L117.1,173.3"/>
<path d="M113.1,172.8l4.9,45.6"/>
</g>
</g>
</g>
<g id="Right-Shin">
<g id="Full_Shin_Right" class="option" style="display: inherit;">
<path id="Shin_Full-Shin_Right" d="M66.6,174.6c-11.2-2.4-18.5-0.1-18.5-0.1L46,217.7c0,0,4.4,1,9.2,0.8 c3.5-0.1,9-1.5,9-1.5l6-37C70.2,180.1,66.5,179.5,66.6,174.6" style="fill: rgb(89, 51, 18);"/>
<g id="Accent_Full-Shin_Right" class="toggle" style="fill: rgb(127, 93, 107);">
<path d="M69.5,184.1l-6.2-0.4l-0.3,1.6l6.2,0.4L69.5,184.1"/>
<path d="M69.1,186.4l-4.2-0.3l-0.3,1.6l4.3,0.3L69.1,186.4"/>
</g>
<g id="Ridge_Full-Shin_Right" class="toggle" style="fill: rgb(65, 44, 26);">
<path d="M51.9,173.3l3.9-0.5l4.1,0.3l-5.9,45.4c-2,0.1-3.4-0.1-5.7-0.4L51.9,173.3"/>
<path d="M55.9,172.8l-4.9,45.6"/>
</g>
</g>
</g>
</g>
<g id="Foot">
<g id="Left-Ankle">
<g id="Basic_Ankle_Left" class="option" style="display: inherit;">
<path id="Main_Basic-Ankle_Left" d="M128.8,229.3l-6.6-11.7c-3.4-0.2-6.7,0.3-9.7,1.5c-1.1,0.5-2,1.4-2.3,2.5 c0,0,0,0,0,0c-0.3,1,0,2.2,0.8,2.9c2,1.9,5.7,5.2,8,6C123.8,232.2,128.8,229.3,128.8,229.3" style="fill: rgb(65, 44, 26);"/>
<path id="Trauma-Plate_Basic-Ankle_Left" class="toggle" style="fill: rgb(89, 51, 18);" d="M123,219c-3.3-0.1-8.1,0.6-11,1.9l-0.3,0.9 c-0.2,0.6,0,1.3,0.5,1.7c1.9,1.8,5.2,4.9,7.3,5.6c2.8,1,7-0.6,8.6-1.2L123,219"/>
</g>
</g>
<g id="Left-Toe">
<g id="None_Toe_Left" class="option" style="display: inherit;">
</g>
</g>
<g id="Right-Ankle">
<g id="Basic_Ankle_Right" class="option" style="display: inherit;">
<path id="Main_Basic-Ankle_Right" d="M40.3,229.3l6.6-11.7c3.4-0.2,6.7,0.3,9.7,1.5c1.1,0.5,2,1.4,2.3,2.5 c0,0,0,0,0,0c0.3,1,0,2.2-0.8,2.9c-2,1.9-5.7,5.2-8,6C45.2,232.2,40.3,229.3,40.3,229.3" style="fill: rgb(65, 44, 26);"/>
<path id="Trauma-Plate_Basic-Ankle_Right" class="toggle" style="fill: rgb(89, 51, 18);" d="M46.1,219c3.3-0.1,8.1,0.6,11,1.9l0.3,0.9 c0.2,0.6,0,1.3-0.5,1.7c-1.9,1.8-5.2,4.9-7.3,5.6c-2.8,1-7-0.6-8.6-1.2L46.1,219"/>
</g>
</g>
<g id="Right-Toe">
<g id="None_Toe_Right" class="option" style="display: inherit;">
</g>
</g>
</g>
<g id="Knees">
<g id="Left-Knee">
<g id="Basic_Knee_Left" class="option" style="display: inherit;">
<g id="Missiles_Basic-Knee_Left" class="toggle" style="display:none"/>
<g id="Knee_Basic-Knee_Left" style="fill: rgb(143, 41, 84);">
<path d="M96.6,160.5l1.4-0.2c0,0,1.1,7.1,1.6,10.2c0.1,0.8-0.4,1.6-1.2,1.7c0,0,0,0,0,0L96.6,160.5z"/>
<path d="M98,160l0.8,5.2c1.1-0.6,3.7,0.5,4.6,3.6c1.6,5.8,3,7.1,8,6.6c3.9-0.4,6.7-2.2,7-4.9c0.5-4,0-9.8-0.2-12.1 c0-0.3-0.2-0.5-0.4-0.7c-0.2-0.2-0.5-0.2-0.7-0.2C113,158,98,160,98,160z"/>
<path d="M97.5,160L98,160l0.9,5.7l-0.5,0.1L97.5,160z"/>
</g>
</g>
</g>
<g id="Right-Knee">
<g id="Basic_Knee_Right" class="option" style="display: inherit;">
<g id="Missiles_Basic-Knee_Right" class="toggle" style="display:none"/>
<g id="Knee_Basic-Knee_Right" style="fill: rgb(143, 41, 84);">
<path d="M72.4,160.5l-1.4-0.2c0,0-1.1,7.1-1.6,10.2c-0.1,0.8,0.4,1.6,1.2,1.7c0,0,0,0,0,0L72.4,160.5z"/>
<path d="M71,160l-0.8,5.2c-1.1-0.6-3.7,0.5-4.6,3.6c-1.6,5.8-3,7.1-8,6.6c-3.9-0.4-6.7-2.2-7-4.9 c-0.5-4,0-9.8,0.2-12.1c0-0.3,0.2-0.5,0.4-0.7c0.2-0.2,0.5-0.2,0.7-0.2C56,158,71,160,71,160z"/>
<path d="M71.5,160L71,160l-0.9,5.7l0.5,0.1L71.5,160z"/>
</g>
</g>
</g>
</g>
<g id="Thighs">
<g id="Left-Thigh">
<g id="Pocket_Thigh_Left" class="option" style="fill: rgb(103, 87, 73); display: inherit;">
<path d="M116.7,125.8c0.6,6.6,1.3,12.8,2.3,18.7c0.2,1.2-0.1,2.4-0.8,3.3c-0.7,0.9-1.8,1.5-3,1.6 c-5.4,0.4-10.9,1.3-16.4,2.3c-0.9,0.2-1.9,0-2.7-0.6c-0.8-0.5-1.3-1.4-1.4-2.3c-0.9-6.2-2.8-18.7-3.5-23.6 c-0.2-1.1,0.6-2.1,1.7-2.3c2.4-0.4,6.3-1,6.3-1L116.7,125.8"/>
<path d="M114.1,119.6c0.8-0.1,1.5,0.3,1.8,1c0.9,2.5,1.7,6.5,1.1,8.5c-0.8,2.6-9,17.8-11.1,21.6 c-0.3,0.5-0.8,0.9-1.4,0.9c-1.2,0.1-3.2,0.4-4.5,0.5c-0.7,0.1-1.4-0.4-1.5-1.2c-0.7-4.5-2.9-19.3-3.7-25 c-0.2-1.4-1.2-2.5-2.5-2.9l0,0C92.2,123.1,109.3,120.4,114.1,119.6"/>
<path id="Stitch_Left" d="M113.9,119.6c1.7-0.2,3,6.9,2.4,8.8c-0.7,2.4-8.9,18.1-10.8,21.5c-0.3,0.5-0.7,0.8-1.3,0.9 l-3.5,0.5c-0.7,0.1-1.3-0.4-1.4-1.1c-0.6-4.1-3-19.9-3.8-25.1c-0.3-1.8-2.2-2.2-2.2-2.2"/>
<path d="M92.7,123.1l21.3-3.4"/>
</g>
</g>
<g id="Right-Thigh">
<g id="Pocket_Thigh_Right" class="option" style="fill: rgb(103, 87, 73); display: inherit;">
<path d="M52.3,125.8c-0.6,6.6-1.3,12.8-2.3,18.7c-0.2,1.2,0.1,2.4,0.8,3.3c0.7,0.9,1.8,1.5,3,1.6 c5.4,0.4,10.9,1.3,16.4,2.3c0.9,0.2,1.9,0,2.7-0.6c0.8-0.5,1.3-1.4,1.4-2.3c0.9-6.2,2.8-18.7,3.5-23.6c0.2-1.1-0.6-2.1-1.7-2.3 c-2.4-0.4-6.3-1-6.3-1L52.3,125.8"/>
<path d="M54.9,119.6c-0.8-0.1-1.5,0.3-1.8,1c-0.9,2.5-1.7,6.5-1.1,8.5c0.8,2.6,9,17.8,11.1,21.6 c0.3,0.5,0.8,0.9,1.4,0.9c1.2,0.1,3.2,0.4,4.5,0.5c0.7,0.1,1.4-0.4,1.5-1.2c0.7-4.5,2.9-19.3,3.7-25c0.2-1.4,1.2-2.5,2.5-2.9l0,0 C76.8,123.1,59.7,120.4,54.9,119.6"/>
<path id="Stitch_Right" d="M55.1,119.6c-1.7-0.2-3,6.9-2.4,8.8c0.7,2.4,8.9,18.1,10.8,21.5c0.3,0.5,0.7,0.8,1.3,0.9 l3.5,0.5c0.7,0.1,1.3-0.4,1.4-1.1c0.6-4.1,3-19.9,3.8-25.1c0.3-1.8,2.2-2.2,2.2-2.2"/>
<path d="M76.3,123.1L55,119.6"/>
</g>
</g>
</g>
<g id="Groin">
<g id="Basic_Groin" class="option" style="display: inherit;">
<path id="Groin-Plate_Groin" d="M78.2,107.5L67.7,86.2h33.8l-10.6,21.2c0,0-4.2,5.1-6.3,5.1 C82.5,112.5,78.2,107.5,78.2,107.5z" style="fill: rgb(103, 87, 73);"/>
<path id="Trauma-Plating_Groin" class="toggle" style="fill: rgb(117, 97, 80);" d="M89.8,106.7l9.5-19.2H69.8l9.5,19.2c0.4,0.5,2.1,2.4,3.7,3.6 c0.6,0.4,1.1,0.8,1.5,0.8c0.4,0,0.9-0.4,1.5-0.8C87.7,109.2,89.4,107.2,89.8,106.7"/>
</g>
</g>
<g id="Waist">
<g id="Accessories_Waist">
<g id="Kama" class="toggle" style="display:none"/>
<g id="Loin-Cloth" class="toggle" style="display:none"/>
<g id="Left-Holster" class="toggle" style="">
<g id="Hanging-Holster_Left" class="option" style="display: inherit;">
<g id="Weapon_Hanging-Holster-Left">
<g id="Main_Weapon_Hanging-Holster-Left" style="fill: rgb(163, 163, 163);">
<path d="M117,118.2l0.2-3.7l0.6,0l0.1-2.3l-0.6,0l0.1-1.2c0-0.4,0.6-0.7,1.2-0.7c1.5,0.1,4,0.2,5.4,0.3 c0.6,0,1.1,0.4,1.1,0.8l-0.1,1.2l-0.6,0l-0.1,2.3l0.6,0l-0.2,3.7l-1.5-0.1l-0.5,10.1l-4.8-0.2l0.5-10.1L117,118.2z"/>
<path d="M124.2,118l-0.9,0l-0.6,12.2l-4.8-0.2l0.6-12.2l-0.8,0l0.1-2.8l6.5,0.3L124.2,118z"/>
<path d="M123.1,111.4l-3.8-0.2l-0.2,3.8l3.8,0.2L123.1,111.4z"/>
<path d="M119.6,118.8l-0.6,0l-0.4,9.6l0.6,0L119.6,118.8z"/>
<path d="M121.3,116.7l-0.6,0l-0.4,9.6l0.6,0L121.3,116.7z"/>
<path d="M122.8,119l-0.6,0l-0.4,9.6l0.6,0L122.8,119z"/>
</g>
<g id="Accent_Weapon_Hanging-Holster-Left" style="fill: rgb(33, 33, 33);">
<path d="M119.7,115.3l0,0.4l2.7,0.1l0-0.4L119.7,115.3z"/>
<path d="M119.6,115.7l0,0.4l2.7,0.1l0-0.4L119.6,115.7z"/>
<path d="M119.7,115l0,0.4l2.7,0.1l0-0.4L119.7,115z"/>
<path d="M119.9,110.2l0,0.4l2.7,0.1l0-0.4L119.9,110.2z"/>
<path d="M119.9,111.2l-0.6,0l-0.2,3.8l0.6,0L119.9,111.2z"/>
<path d="M123.1,111.4l-0.6,0l-0.2,3.8l0.6,0L123.1,111.4z"/>
<path d="M122.2,119l-1,0l-0.4,9.6l1,0L122.2,119z"/>
<path d="M120.5,118.9l-1,0l-0.4,9.6l1,0L120.5,118.9z"/>
</g>
</g>
<path id="Holster_Hanging-Holster-Left" d="M117,132.3l-0.8-15.4l7.1,11.6l-1.6,21c-1.7,1.7-3.3,1.8-4.9-0.2 L117,132.3z" style="fill: rgb(33, 33, 33);"/>
<g id="Straps_Hanging-Holster-Left" style="fill: rgb(50, 50, 50);">
<path d="M89.8,92c7.8,11.2,15.6,20.6,26.5,24.9l0.1,2.6c-13.5-5.7-20.7-15.3-28.7-27.5H89.8z"/>
<path d="M117,135.4c-7.3,5.6-15.2,8.6-24.6,9.1l0.7,2.1c8.2-0.7,15.8-3.8,23.9-9V135.4z"/>
<path d="M117,137.6l0-2.2c1.9,0.8,4.1,0.9,5.8,0.3l-0.2,2.3C120.8,138.4,118.7,138.5,117,137.6z"/>
</g>
<g id="Buckle_Hanging-Holster-Left" style="fill: rgb(163, 163, 163);">
<path d="M100,144.4l-1,0.2l0.1,0.3l1-0.2L100,144.4"/>
<path d="M97.2,103.3l-0.7-0.9l-0.3,0.2l0.7,0.9L97.2,103.3"/>
<path d="M96.9,103.5l-1.2,0.9L93,101l2.6-2.1l2.7,3.4l-1.2,1l-0.6-0.8l0.6-0.5l-1.5-1.9l-1.4,1.2l1.5,1.9l0.6-0.5 L96.9,103.5"/>
<path d="M99.9,144.4l-0.8,0.1l-0.1-0.8l-2,0.4l0.3,1.8l2-0.4l-0.1-0.7l0.8-0.1l0.2,1.4l-3.6,0.8l-0.5-3.3l3.6-0.8 L99.9,144.4"/>
</g>
</g>
</g>
<g id="Right-Holster" class="toggle" style="">
<g id="Hanging-Holster_Right" class="option" style="display: inherit;">
<g id="Weapon_Hanging-Holster-Right">
<g id="Main_Weapon_Hanging-Holster-Right" style="fill: rgb(163, 163, 163);">
<path d="M52,118.2l-0.2-3.7l-0.6,0l-0.1-2.3l0.6,0l-0.1-1.2c0-0.4-0.6-0.7-1.2-0.7c-1.5,0.1-4,0.2-5.4,0.3 c-0.6,0-1.1,0.4-1.1,0.8l0.1,1.2l0.6,0l0.1,2.3l-0.6,0l0.2,3.7l1.5-0.1l0.5,10.1l4.8-0.2l-0.5-10.1L52,118.2z"/>
<path d="M44.8,118l0.9,0l0.6,12.2l4.8-0.2l-0.6-12.2l0.8,0l-0.1-2.8l-6.5,0.3L44.8,118z"/>
<path d="M45.9,111.4l3.8-0.2l0.2,3.8l-3.8,0.2L45.9,111.4z"/>
<path d="M49.4,118.8l0.6,0l0.4,9.6l-0.6,0L49.4,118.8z"/>
<path d="M47.7,116.7l0.6,0l0.4,9.6l-0.6,0L47.7,116.7z"/>
<path d="M46.2,119l0.6,0l0.4,9.6l-0.6,0L46.2,119z"/>
</g>
<g id="Accent_Weapon_Hanging-Holster-Right" style="fill: rgb(33, 33, 33);">
<path d="M49.3,115.3l0,0.4l-2.7,0.1l0-0.4L49.3,115.3z"/>
<path d="M49.3,115.7l0,0.4l-2.7,0.1l0-0.4L49.3,115.7z"/>
<path d="M49.3,115l0,0.4l-2.7,0.1l0-0.4L49.3,115z"/>
<path d="M49.1,110.2l0,0.4l-2.7,0.1l0-0.4L49.1,110.2z"/>
<path d="M49.1,111.2l0.6,0l0.2,3.8l-0.6,0L49.1,111.2z"/>
<path d="M45.9,111.4l0.6,0l0.2,3.8l-0.6,0L45.9,111.4z"/>
<path d="M46.8,119l1,0l0.4,9.6l-1,0L46.8,119z"/>
<path d="M48.5,118.9l1,0l0.4,9.6l-1,0L48.5,118.9z"/>
</g>
</g>
<path id="Holster_Hanging-Holster-Right" d="M51.9,132.3l0.8-15.4l-7.1,11.6l1.6,21c1.7,1.7,3.3,1.8,4.9-0.2 L51.9,132.3z" style="fill: rgb(33, 33, 33);"/>
<g id="Straps_Hanging-Holster-Right" style="fill: rgb(50, 50, 50);">
<path d="M79.2,92c-7.8,11.2-15.6,20.6-26.5,24.9l-0.1,2.6c13.5-5.7,20.7-15.3,28.7-27.5H79.2z"/>
<path d="M52,135.4c7.3,5.6,15.2,8.6,24.6,9.1l-0.7,2.1c-8.2-0.7-15.8-3.8-23.9-9V135.4z"/>
<path d="M52,137.6l0-2.2c-1.9,0.8-4.1,0.9-5.8,0.3l0.2,2.3C48.2,138.4,50.3,138.5,52,137.6z"/>
</g>
<g id="Buckle_Hanging-Holster-Right" style="fill: rgb(163, 163, 163);">
<path d="M69,144.4l1,0.2l-0.1,0.3l-1-0.2L69,144.4"/>
<path d="M71.8,103.3l0.7-0.9l0.3,0.2l-0.7,0.9L71.8,103.3"/>
<path d="M72.1,103.5l1.2,0.9L76,101l-2.6-2.1l-2.7,3.4l1.2,1l0.6-0.8l-0.6-0.5l1.5-1.9l1.4,1.2l-1.5,1.9l-0.6-0.5 L72.1,103.5"/>
<path d="M69.1,144.4l0.8,0.1l0.1-0.8l2,0.4l-0.3,1.8l-2-0.4l0.1-0.7l-0.8-0.1l-0.2,1.4l3.6,0.8l0.5-3.3l-3.6-0.8 L69.1,144.4"/>
</g>
</g>
</g>
</g>
<g id="Under-Belt">
<g id="Girth-Belt" class="option" style="fill: rgb(117, 97, 80); display: inherit;">
<path d="M84.5,80.1c-7.2,0-21.5-1.8-21.5-1.8l0.5-1.5c0,0,14,1.2,21,1.8c7-0.6,21-1.8,21-1.8l0.5,1.5 C106,78.3,91.7,80.1,84.5,80.1z"/>
<path d="M84.5,81.6c-7.3,0-22-1.8-22-1.8l0.4-1.5c0,0,17.9,1.5,21.5,1.8c3.6-0.3,21.5-1.8,21.5-1.8l0.4,1.5 C106.5,79.8,91.9,81.6,84.5,81.6z"/>
<path d="M84.5,83.2c-7.4,0-22.3-1.8-22.3-1.8l0.3-1.5c0,0,18.3,1.5,22,1.8c3.7-0.3,22-1.8,22-1.8l0.3,1.5 C106.8,81.4,92,83.2,84.5,83.2z"/>
<path d="M84.5,84.7C77,84.7,62,82.9,62,82.9l0.3-1.5c0,0,18.6,1.5,22.3,1.8c3.7-0.3,22.3-1.8,22.3-1.8l0.3,1.5 C107.1,82.9,92.1,84.7,84.5,84.7z"/>
<path d="M84.5,86.3c-7.6,0-22.8-1.8-22.8-1.8l0.3-1.5c0,0,18.8,1.5,22.6,1.8c3.8-0.3,22.6-1.8,22.6-1.8l0.3,1.5 C107.4,84.4,92.1,86.3,84.5,86.3z"/>
<path d="M84.5,87.8c-7.7,0-23.1-1.8-23.1-1.8l0.2-1.5c0,0,19,1.5,22.8,1.8c3.8-0.3,22.8-1.8,22.8-1.8l0.2,1.5 C107.6,86,92.2,87.8,84.5,87.8z"/>
<path d="M84.5,89.4c-7.8,0-23.3-1.8-23.3-1.8l0.2-1.5c0,0,19.2,1.5,23.1,1.8c3.8-0.3,23.1-1.8,23.1-1.8l0.2,1.5 C107.8,87.5,92.3,89.4,84.5,89.4z"/>
<path d="M84.5,90.9c-7.8,0-23.5-1.8-23.5-1.8l0.2-1.5c0,0,19.4,1.5,23.3,1.8c3.9-0.3,23.3-1.8,23.3-1.8l0.2,1.5 C108.1,89.1,92.4,90.9,84.5,90.9z"/>
<path d="M84.5,92.5c-7.9,0-23.8-1.8-23.8-1.8l0.3-1.5c0,0,19.6,1.5,23.5,1.8c3.9-0.3,23.5-1.8,23.5-1.8l0.3,1.5 C108.3,90.6,92.5,92.5,84.5,92.5z"/>
<path d="M84.5,94c-8,0-24.1-1.8-24.1-1.8l0.3-1.5c0,0,19.8,1.5,23.8,1.8c4-0.3,23.8-1.8,23.8-1.8l0.3,1.5 C108.6,92.2,92.6,94,84.5,94z"/>
</g>
</g>
<g id="Belt">
<g id="Pouch-Belt-2" class="option" style="display: inherit;">
<path id="Main_Pouch-Belt-2" d="M108.2,87.6c-5.3,0.5-17.5,2.2-23.6,2.2c-6.2,0-18.4-1.8-23.6-2.2l0.8-6.2 c4.3,0.4,16.8,2.2,22.8,2.2c5.8,0,18.1-1.8,22.7-2.2L108.2,87.6z" style="fill: rgb(50, 50, 50);"/>
<rect id="Buckle_Pouch-Belt-2" x="80.2" y="82.9" width="8.8" height="7.2" style="fill: rgb(163, 163, 163);"/>
<g id="Pouches_Pouch-Belt-2" style="fill: rgb(33, 33, 33);">
<g>
<path d="M59,80.8l0.4-0.7l2.2,0.1l0.3,0.8L59,80.8z"/>
<path d="M61.9,81.1c0-0.1,0-0.1,0-0.2c0,0-0.1-0.1-0.1-0.1c-0.7,0-2.7-0.1-2.7-0.1l-0.4,8.8 c0.1,0.3,1.7,0.4,2.6,0.4c0.1,0,0.2-0.1,0.2-0.2C61.5,86.8,61.6,84,61.9,81.1z"/>
</g>
<g>
<path d="M110.1,80.8l-0.4-0.7l-2.2,0.1l-0.3,0.8L110.1,80.8z"/>
<path d="M107.2,81.1c0-0.1,0-0.1,0-0.2c0,0,0.1-0.1,0.1-0.1c0.7,0,2.7-0.1,2.7-0.1l0.4,8.8 c-0.1,0.3-1.7,0.4-2.6,0.4c-0.1,0-0.2-0.1-0.2-0.2C107.7,86.8,107.6,84,107.2,81.1z"/>
</g>
</g>
</g>
</g>
</g>
<g id="Extras_Front">
<g id="Front">
<g id="None_Front" class="option" style="display: inherit;">
</g>
</g>
</g>
</svg></svg>