<?xml version='1.0' encoding='UTF-8'?>
<svg version="1.1" id="Female-Body" xmlns="http://www.w3.org/2000/svg" xmlns:serif="http://www.serif.com/" viewBox="0 -55 170 300" style="fill-rule: evenodd; stroke-width: 0.2px; stroke-linejoin: round;" width="170" height="300">
<style>
mask {
mask-type: alpha;
}
.decal {
stroke: none;
}
</style>
<defs id="Masks" stroke="none">
<mask id="HelmetsMask"> <use href="#Helmets"/> </mask>
<mask id="CollarMask"> <use href="#Collar"/> </mask>
<mask id="ShouldersMask"> <use href="#Shoulders"/> </mask>
<mask id="ChestMask"> <use href="#Chest"/> </mask>
<mask id="BicepsMask"> <use href="#Biceps"/> </mask>
<mask id="GauntletsMask"> <use href="#Gauntlets"/> </mask>
<mask id="WaistMask"> <use href="#Waist"/> </mask>
<mask id="GroinMask"> <use href="#Groin"/> </mask>
<mask id="ThighsMask"> <use href="#Thighs"/> </mask>
<mask id="KneesMask"> <use href="#Knees"/> </mask>
<mask id="ShinsMask"> <use href="#Shins"/> </mask>
<mask id="FootMask"> <use href="#Foot"/> </mask>
</defs>
<defs id="Decals"/><metadata><rdf:rdf xmlns:rdf="http://www.w3.org/1999/02/22-rdf-syntax-ns#" xmlns:rdfs="http://www.w3.org/2000/01/rdf-schema#" xmlns:dc="http://purl.org/dc/elements/1.1/"><rdf:description><dc:creator>MandoCreator</dc:creator><dc:publisher>https://www.mandocreator.com</dc:publisher><dc:description>Your Beskar'gam - created by MandoCreator</dc:description><dc:format>image/svg+xml</dc:format><dc:type>Image</dc:type><dc:title>MandoCreator - Ner Berskar'gam</dc:title><dc:date>2022-01-02T16:40:44.773Z</dc:date></rdf:description></rdf:rdf></metadata><g id="Main-Body" fill="white" stroke="black">
<g id="Extras_Back">
<g id="Back"><g id="NO-CAPES_Back" class="option" style="display: inherit;">
</g>
</g>
</g>
<g id="Extras-BackDecals" mask="url(#BackMask)">
</g>
<g id="Suit">
<g id="Neck-Seal"><g id="Standard-Neck-Seal" class="option" fill="rgb(52, 68, 83)" style="display: inherit;">
<path d="M95.96,3.46c0-0.93-0.74-1.69-1.65-1.69c0,0-6.22,0.89-9.33,0.89c-3.11,0-9.33-0.89-9.33-0.89 c-0.91,0-1.65,0.76-1.65,1.69c0,0.93,0.74,1.69,1.65,1.69c0,0,6.22,0.89,9.33,0.89c3.11,0,9.33-0.89,9.33-0.89 C95.22,5.15,95.96,4.39,95.96,3.46z"/>
<path d="M96.51,5.43c0-0.98-0.78-1.77-1.73-1.77c0,0-6.53,0.93-9.8,0.93s-9.8-0.93-9.8-0.93 c-0.96,0-1.73,0.79-1.73,1.77c0,0.98,0.78,1.77,1.73,1.77c0,0,6.53,0.93,9.8,0.93s9.8-0.93,9.8-0.93 C95.74,7.21,96.51,6.41,96.51,5.43z"/>
<path d="M97.14,7.88c0-1.03-0.82-1.87-1.83-1.87c0,0-6.89,0.98-10.33,0.98c-3.44,0-10.33-0.98-10.33-0.98 c-1.01,0-1.83,0.84-1.83,1.87s0.82,1.87,1.83,1.87c0,0,6.89,0.98,10.33,0.98c3.44,0,10.33-0.98,10.33-0.98 C96.32,9.75,97.14,8.91,97.14,7.88z"/>
<path d="M97.75,10.13c0-1.08-0.86-1.96-1.92-1.96c0,0-7.23,1.03-10.85,1.03c-3.62,0-10.85-1.03-10.85-1.03 c-1.06,0-1.92,0.88-1.92,1.96c0,1.08,0.86,1.96,1.92,1.96c0,0,7.23,1.03,10.85,1.03c3.62,0,10.85-1.03,10.85-1.03 C96.89,12.09,97.75,11.21,97.75,10.13z"/>
<path d="M98.36,12.33c0-0.82-0.9-1.48-2.01-1.48c0,0-7.58,0.78-11.36,0.78s-11.36-0.78-11.36-0.78 c-1.11,0-2.01,0.66-2.01,1.48c0,0.82,0.9,1.48,2.01,1.48c0,0,7.58,0.78,11.36,0.78s11.36-0.78,11.36-0.78 C97.46,13.81,98.36,13.14,98.36,12.33z"/>
<path d="M98.36,14.8c0-0.82-0.9-1.48-2.01-1.48c0,0-7.58,0.78-11.36,0.78s-11.36-0.78-11.36-0.78 c-1.11,0-2.01,0.66-2.01,1.48c0,0.82,0.9,1.48,2.01,1.48c0,0,7.58,1.5,11.36,1.5s11.36-1.5,11.36-1.5 C97.46,16.28,98.36,15.62,98.36,14.8z"/>
</g>
</g>
<g id="Flight-Suit" fill="rgb(52, 68, 83)">
<path d="M38.1,60.17l5.2-18.8l12.15-8.13l1.9,16.49c0,0-5.25,9.95-7.06,14.51c-1.86,4.7-5.09,15.42-5.5,16.81 l-2.88,24.91l-8.36-2.66c0,0-0.3-17.29,0.46-24.47C34.68,72.42,38.1,60.17,38.1,60.17z"/>
<path d="M131.9,60.17l-5.22-18.86l-12.06-8.07l-1.92,16.59c0,0,5.2,9.85,7.01,14.41c1.86,4.7,5.09,15.42,5.5,16.81 l2.88,24.91l8.36-2.66c0,0,0.3-17.29-0.46-24.47C135.32,72.42,131.9,60.17,131.9,60.17z"/>
<path d="M84.99,113.44c-1.03,0.1-1.95,0.5-2.29,1.22c-3,6.3-9.17,35.13-10.95,40.44c-0.97,2.89-1.74,18.7-3.38,27.92 c-1.96,11.01-8.39,38.11-8.39,38.11l-11.15-1.15c0,0-1.44-27.22-1.04-37.12c0.3-7.53,3.42-22.31,3.42-22.31s0.67-5.4,0.69-8.12 c0.06-9.82,0.93-31.66,2.88-44.2C56.3,98.31,65.7,77.5,65.7,77.5s12.18,4.76,19.34,4.76c7.16,0,19.44-4.86,19.44-4.86 s8.88,20.92,10.42,30.83c1.95,12.54,3.24,34.38,3.3,44.2c0.02,2.72,0.69,8.12,0.69,8.12s3.12,14.79,3.42,22.31 c0.4,9.91-1.04,37.12-1.04,37.12l-11.15,1.15c0,0-6.43-27.1-8.39-38.11c-1.64-9.22-2.41-25.03-3.38-27.92 c-1.78-5.31-7.96-34.13-10.95-40.44c-0.35-0.73-1.3-1.14-2.34-1.23L84.99,113.44z"/>
</g>
<g id="Sleeves" class="toggle" fill="rgb(52, 68, 83)">
<path d="M41.92,41.42l0.81,0.34l12.73-8.52c0,0,0.36,8.98,1.42,14.37c0.15,0.75,0.37,1.69,0.64,2.79l-1.69,5.45 c0,0-5.75-2.25-8.27-3.72C45.11,50.7,40.7,47,40.7,47L41.92,41.42z"/>
<path d="M112.55,50.4c0.28-1.1,0.5-2.04,0.64-2.79c1.06-5.39,1.42-14.37,1.42-14.37l12.73,8.52l0.81-0.34l1.22,5.58 c0,0-4.4,3.7-6.85,5.13c-2.52,1.48-8.28,3.72-8.28,3.72L112.55,50.4z"/>
</g>
</g>
<g id="Boots"><g id="Basic_Boots" class="option" style="display: inherit;">
<g id="Main_Basic-Boot" fill="rgb(42, 41, 41)">
<path d="M60.73,217.89c-0.18-0.07-2.31,1.28-3.52,1.48c-1.29,0.22-2.7,0.2-4.07,0.06l-0.56-0.06l-0.02,0l-0.07-0.01 l-0.18-0.02l-0.28-0.04l-0.12-0.02c-0.32-0.04-0.64-0.09-0.95-0.14l-0.49-0.1l-0.1-0.03l-0.04-0.01l-0.08-0.02l-0.34-0.08 l-0.3-0.08l-0.05-0.01c-1.05-0.28-0.85-0.78-0.85-0.78c0,1.45-1.51,5.98-5.27,9.68c-1.14,1.13-3.92,2.45-6.33,3.5 c-2.21,0.97-4.87,1.2-6.15,3.78c-0.28,0.56-0.52,1.24-0.47,1.88c0.06,0.82,0.95,0.93,1.65,1.13c1.73,0.49,3.22,0.86,5.22,1.31 c2.28,0.51,4.34,0.82,6.65,0.76c1.73-0.05,3.2-0.12,4.72-1.03c0.61-0.37,1.24-0.74,1.77-1.22c1.19-1.08,1.96-2.21,3.48-2.85 c1.1-0.47,2.24-0.85,3.41-1.13c1.65-0.39,4.06-0.94,4.95-2.57c0.34-1.22-1.15-3.83-1.26-5.59 C60.99,224.26,60.85,217.94,60.73,217.89z"/>
<path d="M109.34,217.89c0.18-0.07,2.31,1.28,3.52,1.48c1.29,0.22,2.7,0.2,4.07,0.06l0.55-0.06l0.02,0l0.07-0.01 l0.18-0.02l0.28-0.04l0.12-0.02c0.32-0.04,0.64-0.09,0.95-0.14l0.49-0.1l0.1-0.03l0.04-0.01l0.08-0.02l0.34-0.08l0.3-0.08 l0.05-0.01c1.05-0.28,0.85-0.78,0.85-0.78c0,1.45,1.51,5.98,5.27,9.68c1.14,1.13,3.92,2.45,6.33,3.5 c2.21,0.97,4.87,1.2,6.15,3.78c0.28,0.56,0.52,1.24,0.47,1.88c-0.06,0.82-0.95,0.93-1.65,1.13c-1.73,0.49-3.22,0.86-5.21,1.31 c-2.28,0.51-4.34,0.82-6.65,0.76c-1.73-0.05-3.2-0.12-4.72-1.03c-0.61-0.37-1.24-0.74-1.77-1.22c-1.19-1.08-1.96-2.21-3.48-2.85 c-1.11-0.47-2.24-0.85-3.41-1.13c-1.65-0.39-4.07-0.94-4.95-2.57c-0.34-1.22,1.15-3.83,1.26-5.59 C109.07,224.26,109.21,217.94,109.34,217.89z"/>
</g>
<g id="Bottom_Basic-Boot" fill="rgb(0, 0, 0)">
<path d="M62.34,231.27c-0.44,0.81-1.26,1.35-2.18,1.74c-0.84,0.42-1.82,0.6-2.77,0.82 c-0.13,0.03-0.26,0.06-0.38,0.09c-0.19,0.05-0.38,0.1-0.56,0.15c-0.06,0.02-0.11,0.03-0.17,0.05l-0.1,0.03 c-0.06,0.02-0.12,0.04-0.18,0.06c-0.03,0.01-0.05,0.02-0.08,0.02c-0.1,0.03-0.2,0.07-0.31,0.1c-0.04,0.01-0.07,0.02-0.11,0.04 l-0.05,0.02c-0.16,0.05-0.31,0.11-0.47,0.17c-0.03,0.01-0.07,0.03-0.1,0.04c-0.14,0.05-0.28,0.11-0.42,0.16l-0.11,0.04 c-0.08,0.03-0.17,0.07-0.25,0.1c-0.04,0.01-0.07,0.03-0.11,0.05c-0.25,0.11-0.48,0.22-0.7,0.35l-0.03,0.02 c-0.02,0.01-0.03,0.02-0.05,0.03c-0.07,0.04-0.13,0.08-0.2,0.13l-0.04,0.03c-0.01,0.01-0.03,0.02-0.04,0.03 c-0.06,0.05-0.13,0.09-0.19,0.14l-0.05,0.04l-0.08,0.07c-0.26,0.21-0.51,0.44-0.75,0.68l-0.07,0.07c-0.13,0.13-0.26,0.26-0.4,0.4 c-0.14,0.14-0.28,0.28-0.42,0.42c-0.14,0.14-0.29,0.29-0.45,0.43l-0.05,0.05c-0.05,0.04-0.1,0.08-0.14,0.12 c-0.01,0.01-0.02,0.01-0.03,0.02c-0.08,0.06-0.16,0.13-0.24,0.19c-0.05,0.04-0.11,0.08-0.16,0.12l-0.03,0.02 c-0.07,0.05-0.14,0.1-0.21,0.14c-0.03,0.02-0.06,0.04-0.09,0.06c-0.1,0.07-0.21,0.13-0.31,0.2c-0.07,0.04-0.14,0.09-0.22,0.13 l-0.09,0.05l-0.23,0.14l-0.11,0.06l-0.07,0.04l-0.07,0.04c-0.11,0.06-0.21,0.11-0.32,0.16c-0.05,0.02-0.1,0.05-0.15,0.07 l-0.05,0.02c-0.32,0.14-0.63,0.24-0.95,0.32l-0.06,0.01l-0.07,0.02c-0.02,0-0.05,0.01-0.07,0.02c-0.06,0.01-0.13,0.03-0.2,0.04 c-0.05,0.01-0.1,0.02-0.15,0.03l-0.12,0.02l-0.04,0.01c-0.03,0.01-0.07,0.01-0.1,0.02c-0.06,0.01-0.11,0.02-0.17,0.02 c-0.08,0.01-0.16,0.02-0.24,0.03c-0.02,0-0.04,0.01-0.06,0.01c-0.2,0.02-0.41,0.04-0.61,0.05c-0.11,0.01-0.23,0.01-0.34,0.02 l-0.1,0c-0.22,0.01-0.44,0.02-0.66,0.02c-0.14,0-0.29,0.01-0.43,0.01c-0.05,0-0.1,0-0.16,0c-0.07,0-0.15,0-0.22,0 c-0.05,0-0.11,0-0.16,0l-0.05,0c-0.26-0.01-0.52-0.01-0.78-0.03c-0.03,0-0.07,0-0.11-0.01l-0.1-0.01c-0.03,0-0.07,0-0.1-0.01 c-0.38-0.03-0.76-0.06-1.13-0.11l-0.1-0.01c-0.09-0.01-0.19-0.02-0.28-0.04c-0.04-0.01-0.08-0.01-0.12-0.02l-0.1-0.01 c-0.08-0.01-0.15-0.02-0.23-0.03c-0.33-0.05-0.66-0.11-0.99-0.17c-0.07-0.01-0.15-0.03-0.22-0.04l-0.1-0.02 c-0.03-0.01-0.07-0.01-0.1-0.02l-0.1-0.02c-0.03-0.01-0.07-0.01-0.1-0.02l-0.07-0.01c-0.08-0.02-0.16-0.03-0.24-0.05l-0.1-0.02 c-0.1-0.02-0.19-0.04-0.28-0.06c-0.08-0.02-0.16-0.04-0.25-0.05l-0.02-0.01c-0.52-0.12-1.01-0.23-1.48-0.34l-0.18-0.04 c-0.13-0.03-0.26-0.06-0.39-0.09l-0.16-0.04l-0.07-0.02c-0.18-0.04-0.37-0.09-0.55-0.14c-0.11-0.03-0.22-0.06-0.33-0.08 c-0.32-0.08-0.63-0.16-0.94-0.25l-0.14-0.04c-0.05-0.01-0.1-0.03-0.16-0.04l-0.06-0.02c-0.24-0.07-0.49-0.13-0.74-0.2l-0.06-0.02 L32,237.96l-0.26-0.07l-0.09-0.02l-0.13-0.04l-0.05-0.02l-0.11-0.04l-0.09-0.03l-0.04-0.02l-0.05-0.02l-0.02-0.01l-0.05-0.02 l-0.05-0.02l-0.02-0.01l-0.05-0.03l-0.06-0.03l-0.05-0.04l-0.05-0.04c-0.08-0.07-0.15-0.14-0.21-0.23l0,0c0,0-0.46,0.68-0.5,1.86 c1.04,1.49,4.31,1.99,8.84,2.59c4.5,0.6,7.28,0.48,9.16-0.32c1.88-0.81,5.18-4.63,7.54-4.83c2.36-0.2,5.15-1.45,6.3-2.12 c0.6-0.35,0.42-2.81,0.42-2.81L62.34,231.27z"/>
<path d="M107.72,231.27c0.44,0.81,1.26,1.35,2.18,1.74c0.84,0.42,1.82,0.6,2.77,0.82c0.13,0.03,0.25,0.06,0.38,0.09 c0.19,0.05,0.38,0.1,0.56,0.15c0.06,0.02,0.11,0.03,0.17,0.05l0.1,0.03c0.06,0.02,0.12,0.04,0.18,0.06 c0.03,0.01,0.05,0.02,0.08,0.02c0.1,0.03,0.2,0.07,0.31,0.1c0.04,0.01,0.07,0.02,0.11,0.04l0.05,0.02 c0.16,0.05,0.31,0.11,0.47,0.17c0.03,0.01,0.07,0.03,0.1,0.04c0.14,0.05,0.28,0.11,0.42,0.16l0.11,0.04 c0.08,0.03,0.17,0.07,0.25,0.1c0.04,0.01,0.07,0.03,0.11,0.05c0.25,0.11,0.48,0.22,0.69,0.35l0.03,0.02 c0.02,0.01,0.03,0.02,0.05,0.03c0.07,0.04,0.13,0.08,0.2,0.13l0.04,0.03c0.01,0.01,0.03,0.02,0.04,0.03 c0.06,0.05,0.13,0.09,0.19,0.14l0.05,0.04l0.08,0.07c0.26,0.21,0.51,0.44,0.75,0.68l0.07,0.07c0.13,0.13,0.26,0.26,0.39,0.4 c0.14,0.14,0.28,0.28,0.42,0.42c0.15,0.14,0.29,0.29,0.45,0.43l0.05,0.05c0.05,0.04,0.1,0.08,0.15,0.12 c0.01,0.01,0.02,0.01,0.03,0.02c0.08,0.06,0.16,0.13,0.24,0.19c0.05,0.04,0.11,0.08,0.16,0.12l0.03,0.02 c0.07,0.05,0.14,0.1,0.21,0.14c0.03,0.02,0.06,0.04,0.09,0.06c0.1,0.07,0.2,0.13,0.31,0.2c0.07,0.04,0.14,0.09,0.21,0.13 l0.09,0.05l0.23,0.14l0.11,0.06l0.07,0.04l0.07,0.04c0.11,0.06,0.21,0.11,0.32,0.16c0.05,0.02,0.1,0.05,0.15,0.07l0.05,0.02 c0.32,0.14,0.63,0.24,0.95,0.32l0.06,0.01l0.07,0.02c0.02,0,0.05,0.01,0.07,0.02c0.07,0.01,0.13,0.03,0.2,0.04 c0.05,0.01,0.1,0.02,0.15,0.03l0.12,0.02l0.04,0.01c0.03,0.01,0.07,0.01,0.1,0.02c0.06,0.01,0.11,0.02,0.17,0.02 c0.08,0.01,0.16,0.02,0.24,0.03c0.02,0,0.04,0.01,0.06,0.01c0.2,0.02,0.41,0.04,0.61,0.05c0.11,0.01,0.23,0.01,0.34,0.02l0.1,0 c0.22,0.01,0.44,0.02,0.66,0.02c0.14,0,0.29,0.01,0.43,0.01c0.05,0,0.1,0,0.16,0c0.07,0,0.15,0,0.22,0c0.05,0,0.11,0,0.16,0 l0.05,0c0.26-0.01,0.52-0.01,0.78-0.03c0.04,0,0.07,0,0.11-0.01l0.1-0.01c0.03,0,0.07,0,0.1-0.01c0.38-0.03,0.76-0.06,1.13-0.11 l0.1-0.01c0.09-0.01,0.19-0.02,0.28-0.04c0.04-0.01,0.08-0.01,0.12-0.02l0.1-0.01c0.08-0.01,0.15-0.02,0.23-0.03 c0.33-0.05,0.66-0.11,0.99-0.17c0.07-0.01,0.15-0.03,0.22-0.04l0.1-0.02c0.03-0.01,0.07-0.01,0.1-0.02l0.1-0.02 c0.03-0.01,0.07-0.01,0.1-0.02l0.07-0.01c0.08-0.02,0.16-0.03,0.24-0.05l0.1-0.02c0.09-0.02,0.19-0.04,0.28-0.06 c0.08-0.02,0.16-0.04,0.25-0.05l0.02-0.01c0.52-0.12,1.01-0.23,1.48-0.34l0.18-0.04c0.13-0.03,0.26-0.06,0.39-0.09l0.16-0.04 l0.07-0.02c0.19-0.04,0.37-0.09,0.55-0.14c0.11-0.03,0.22-0.06,0.32-0.08c0.31-0.08,0.63-0.16,0.94-0.25l0.14-0.04 c0.05-0.01,0.1-0.03,0.16-0.04l0.06-0.02c0.24-0.07,0.49-0.13,0.74-0.2l0.06-0.02l0.09-0.02l0.26-0.07l0.09-0.02l0.13-0.04 l0.05-0.02l0.11-0.04l0.09-0.03l0.04-0.02l0.05-0.02l0.03-0.01l0.05-0.02l0.05-0.02l0.02-0.01l0.05-0.03l0.05-0.03l0.05-0.04 l0.05-0.04c0.08-0.07,0.15-0.14,0.21-0.23l0,0c0,0,0.46,0.68,0.5,1.86c-1.04,1.49-4.31,1.99-8.84,2.59 c-4.5,0.6-7.28,0.48-9.16-0.32c-1.88-0.81-5.18-4.63-7.55-4.83c-2.36-0.2-5.15-1.45-6.3-2.12c-0.6-0.35-0.42-2.81-0.42-2.81 L107.72,231.27z"/>
</g>
<g id="Top_Basic-Boot" fill="rgb(52, 68, 83)">
<path d="M49.35,218.75c-0.62,3.05-1.6,5.71-3.64,8.28c-3.18,4.01-8.62,4.33-12.38,7.58 c-0.97,0.83-0.92,2.18-1.07,3.41c1.56,0.44,2.93,0.78,4.68,1.18c0.12-1.23-0.1-2.6,0.93-3.49c3.76-3.25,9.68-3.13,12.86-7.13 c2.08-2.62,2.09-5.99,2.69-9.13c-0.09-0.01-0.19-0.02-0.28-0.02l-0.56-0.06l-0.02,0l-0.07-0.01l-0.18-0.02l-0.28-0.04l-0.12-0.02 c-0.32-0.04-0.64-0.09-0.95-0.14l-0.49-0.1l-0.1-0.03l-0.04-0.01l-0.08-0.02l-0.34-0.08l-0.3-0.08l-0.05-0.01 C49.49,218.79,49.42,218.77,49.35,218.75z"/>
<path d="M120.71,218.75c0.63,3.05,1.6,5.71,3.64,8.28c3.18,4.01,8.62,4.33,12.38,7.58c0.96,0.83,0.92,2.18,1.07,3.41 c-1.56,0.44-2.93,0.78-4.68,1.18c-0.12-1.23,0.1-2.6-0.93-3.49c-3.76-3.25-9.68-3.13-12.86-7.13c-2.08-2.62-2.09-5.99-2.69-9.13 c0.09-0.01,0.19-0.02,0.28-0.02l0.55-0.06l0.02,0l0.07-0.01l0.18-0.02l0.28-0.04l0.12-0.02c0.32-0.04,0.64-0.09,0.95-0.14 l0.49-0.1l0.1-0.03l0.04-0.01l0.08-0.02l0.34-0.08l0.3-0.08l0.05-0.01C120.57,218.79,120.64,218.77,120.71,218.75z"/>
</g>
<g id="Side_Basic-Boot" fill="rgb(52, 68, 83)">
<path d="M60.15,218.12c-1.21,0.53-1.84,1.07-2.95,1.25c-0.06,0.01-0.12,0.02-0.18,0.03 c-0.02,0.38-0.01,0.77-0.02,1.11c-0.04,1.92,0.2,10.09,0.58,10.08c0.38-0.01,1.48-0.22,1.76-0.51c0.19-0.2,0.22-0.67,0.28-0.92 c0.19-0.81,0.37-1.63,0.5-2.45C60.29,225.59,60.12,219.79,60.15,218.12z"/>
<path d="M109.91,218.12c1.21,0.53,1.85,1.07,2.95,1.25c0.06,0.01,0.12,0.02,0.18,0.03c0.02,0.38,0.01,0.77,0.02,1.11 c0.04,1.92-0.2,10.09-0.57,10.08c-0.38-0.01-1.48-0.22-1.76-0.51c-0.19-0.2-0.22-0.67-0.28-0.92c-0.19-0.81-0.37-1.63-0.5-2.45 C109.77,225.59,109.95,219.79,109.91,218.12z"/>
</g>
</g>
</g>
<g id="Gloves">
<g id="Left-Glove"><g id="Basic_Left_Glove" class="option" fill="rgb(52, 68, 83)" style="display: inherit;">
<path d="M133.16,120.46c-0.46-0.03-0.9-0.01-1.36,0.09c-0.31,0.07-0.62,0.16-0.9,0.34 c-0.85,0.55-0.62,1.76,0.14,2.21c0.89,0.53,2.29,0.01,2.69-1.02C133.9,121.66,133.39,120.86,133.16,120.46"/>
<path d="M131.6,121.51c-0.46-0.02-0.9-0.02-1.36,0.09c-0.31,0.07-0.62,0.16-0.9,0.34c-0.85,0.55-0.62,1.76,0.14,2.21 c0.89,0.53,2.29,0.01,2.69-1.02C132.34,122.71,131.83,121.91,131.6,121.51"/>
<path d="M130.49,122.93c-0.46,0.05-1.02,0.12-1.46,0.3c-0.3,0.12-0.59,0.25-0.85,0.47c-0.78,0.68-0.4,1.83,0.4,2.17 c0.94,0.39,2.27-0.34,2.55-1.42C131.24,124.01,130.49,122.93,130.49,122.93z"/>
<path d="M127.97,106.79c0,0-1.34,2.09-1.69,3.59c-0.25,1.06-0.11,3.58-0.43,5.28c-0.31,1.7-0.59,2.64-0.59,2.64 s-1.18,2.71-0.98,3.34c0.21,0.62,1.25,1.18,1.84,0.85c0.74-0.41,1.66-2.32,2.24-3.67c0.59-1.37,1.08-3.32,1.08-3.32 s0.81,0.32,1.23,0.68c1.38,1.2,0.78,4.82,0.78,4.82s-0.57,1.29-1.43,2.75c-1.17,1.99-2.97,3.7-1.78,5.22 c1.11,1.42,3.63-2.31,3.63-2.31l2.47-3.62c0,0,2.84-5.26,2.98-6.28c0.11-0.78,0.01-3.38,0.01-3.38l-0.89-10.08l-4.5,0.42 l-3.7,1.36L127.97,106.79"/>
</g>
</g>
<g id="Right-Glove"><g id="Basic_Right_Glove" class="option" fill="rgb(52, 68, 83)" style="display: inherit;">
<path d="M36.86,120.46c0.46-0.03,0.9-0.01,1.36,0.09c0.31,0.07,0.62,0.16,0.9,0.34c0.85,0.55,0.62,1.76-0.14,2.21 c-0.89,0.53-2.29,0.01-2.69-1.02C36.12,121.66,36.64,120.86,36.86,120.46"/>
<path d="M38.42,121.51c0.46-0.02,0.9-0.02,1.36,0.09c0.31,0.07,0.62,0.16,0.9,0.34c0.85,0.55,0.62,1.76-0.14,2.21 c-0.89,0.53-2.29,0.01-2.69-1.02C37.68,122.71,38.2,121.91,38.42,121.51"/>
<path d="M39.54,122.93c0.46,0.05,1.02,0.12,1.46,0.3c0.3,0.12,0.6,0.25,0.85,0.47c0.78,0.68,0.4,1.83-0.4,2.17 c-0.94,0.39-2.27-0.34-2.55-1.42C38.78,124.01,39.54,122.93,39.54,122.93z"/>
<path d="M42.06,106.79c0,0,1.34,2.09,1.69,3.59c0.25,1.06,0.11,3.58,0.43,5.28c0.31,1.7,0.59,2.64,0.59,2.64 s1.18,2.71,0.98,3.34c-0.21,0.62-1.24,1.18-1.84,0.85c-0.74-0.41-1.66-2.32-2.24-3.67c-0.59-1.37-1.08-3.32-1.08-3.32 s-0.81,0.32-1.23,0.68c-1.38,1.2-0.78,4.82-0.78,4.82s0.57,1.29,1.43,2.75c1.17,1.99,2.97,3.7,1.78,5.22 c-1.11,1.42-3.63-2.31-3.63-2.31l-2.47-3.62c0,0-2.84-5.26-2.98-6.28c-0.11-0.78-0.01-3.38-0.01-3.38l0.89-10.08l4.5,0.42 l3.7,1.36L42.06,106.79"/>
</g>
</g>
</g>
<g id="Biceps">
<g id="Left-Biceps"><g id="Basic_Biceps_Left" class="option" style="display: inherit;">
<path id="Main_Basic_Biceps_Left" d="M133.33,53.8c-1.18-2.85-6.45-15.35-6.45-15.35s-8.66,3.56-10.82,4.44 c-0.61,0.25-0.9,0.95-0.65,1.56c1.02,2.45,3.51,8.45,5.06,12.19c0.35,0.85,1.03,1.52,1.88,1.87c0.85,0.35,1.81,0.35,2.65,0 c2.54-1.04,5.95-2.44,7.68-3.15C133.29,55.1,133.58,54.41,133.33,53.8z" fill="rgb(1, 17, 61)"/>
<path id="Strap_Basic_Biceps_Left" d="M117.73,49.98l-4.71,1.93l1.11,3.94l5.16-2.12L117.73,49.98" fill="rgb(78, 47, 16)"/>
<path id="Trauma-Plate_Basic_Biceps_Left" class="toggle" style="" d="M133.29,53.21l-5.5-13.24l-10.55,4.33l4.84,11.67 c0.17,0.42,0.5,0.75,0.92,0.92c0.42,0.17,0.89,0.17,1.31,0L133.29,53.21" fill="rgb(136, 163, 236)"/>
</g>
</g>
<g id="Right-Biceps"><g id="Basic_Biceps_Right" class="option" style="display: inherit;">
<path id="Main_Basic_Biceps_Right" d="M36.74,53.8c1.18-2.85,6.46-15.35,6.46-15.35s8.66,3.56,10.82,4.44 c0.61,0.25,0.9,0.95,0.65,1.56c-1.02,2.45-3.51,8.45-5.06,12.19c-0.35,0.85-1.03,1.52-1.88,1.87c-0.85,0.35-1.8,0.35-2.65,0 c-2.54-1.04-5.95-2.44-7.68-3.15C36.78,55.1,36.49,54.41,36.74,53.8z" fill="rgb(1, 17, 61)"/>
<path id="Strap_Basic_Biceps_Right" d="M52.35,49.98l4.71,1.93l-1.11,3.94l-5.16-2.12L52.35,49.98" fill="rgb(76, 44, 12)"/>
<path id="Trauma-Plate_Basic_Biceps_Right" class="toggle" style="" d="M36.78,53.21l5.49-13.24l10.55,4.33l-4.84,11.67 c-0.17,0.42-0.5,0.75-0.92,0.92c-0.42,0.17-0.89,0.17-1.31,0L36.78,53.21" fill="rgb(136, 163, 236)"/>
</g>
</g>
</g>
<g id="BicepsDecals" mask="url(#BicepsMask)">
</g>
<path id="Vest" d="M91.61,82.96c-4.3,0.88-8.84,0.88-13.14,0c-4.33-0.88-12.83-5.29-12.83-5.29s-7.42-23.26-8.75-30.06 c-1.06-5.39-1.42-14.37-1.42-14.37l-12.73,8.52l-2.71-1.15c0,0,7.62-16.73,12.62-21.57c4.53-4.39,17.42-7.5,17.42-7.5 s5.68,6.2,14.97,6.25c8.84,0.04,14.97-6.25,14.97-6.25s12.89,3.12,17.42,7.5c5.01,4.85,12.62,21.57,12.62,21.57l-2.71,1.15 l-12.73-8.52c0,0-0.36,8.98-1.42,14.37c-1.33,6.79-8.76,30.06-8.76,30.06S95.93,82.08,91.61,82.96z" fill="rgb(52, 68, 83)"/>
<g id="SuitDecals" mask="url(#SuitMask)">
</g>
<g class="swappable" id="Chest"><g id="Chest_Galaxy">
<g id="Abdomen_Galaxy">
<path id="Abdomen-Plate_Galaxy" d="M78.22,70.87l-2.02,1.46l-10.28-1.46l-0.75-5.65l4.87-0.1l2.95-4.79l1.34-4.41 l10.66-9.7L85,46.24l0.02-0.02l10.66,9.7l1.34,4.41l2.95,4.79l4.87,0.1l-0.75,5.65L93.8,72.33l-2.02-1.46H78.22z" fill="rgb(4, 198, 255)"/>
<path id="Trauma-Plate_Abdomen_Galaxy" class="toggle" style="" d="M84.98,48.45l-9.21,8.38l-1.27,4.18l-3.53,5.74l-3.92,0.08 l0.34,2.59l8.37,1.19l1.91-1.38h14.64l1.91,1.38l8.37-1.19l0.34-2.59l-3.92-0.08l-3.53-5.74l-1.27-4.18l-9.21-8.38L85,48.47 L84.98,48.45z" fill="rgb(2, 29, 105)"/>
</g>
<g id="Full-Chest_Galaxy">
<path id="Chest-Plate_Galaxy" d="M80.72,32.14l-0.02,9.88l3.12,3.14L72.88,55.48l-1.42,4.76l-2.32,3.79h-4.01 l-1.95-2.83L60.7,47.37l-3.63-5.65l4.61-14.81l5.31-0.67l0.75-3.27l5.69-0.69l1.8,2.92h19.57l1.8-2.92l5.69,0.69l0.75,3.27 l5.31,0.67l4.61,14.81l-3.63,5.65l-2.48,13.84l-1.95,2.83h-4.01l-2.32-3.79l-1.42-4.76L86.18,45.16l3.12-3.14l-0.02-9.88 L85,28.83L80.72,32.14z" fill="rgb(4, 198, 255)"/>
<path id="Trauma-Plating_Left-Chest_Galaxy" class="toggle" style="" d="M95.71,26.84H85.12l5.81,4.5l0.02,11.36l-2.42,2.42 l10.04,9.47l1.49,4.98l1.73,2.82H104l1.25-1.82l2.47-13.81l3.4-5.29l-4.06-13.06l-5.4-0.68l-0.75-3.27l-3.48-0.42L95.71,26.84z" fill="rgb(1, 17, 61)"/>
<path id="Trauma-Plating_Right-Chest_Galaxy" class="toggle" style="" d="M72.56,24.04l-3.48,0.42l-0.75,3.27l-5.4,0.68 l-4.07,13.06l3.4,5.29l2.47,13.81L66,62.39h2.21l1.73-2.82l1.49-4.98l10.04-9.47l-2.42-2.42l0.02-11.36l5.81-4.5H74.29 L72.56,24.04z" fill="rgb(1, 17, 61)"/>
<g id="Accents_Chest-Plate_Galaxy" class="toggle" fill="rgb(255, 126, 0)">
<rect x="95.82" y="30" width="9.01" height="1.19"/>
<rect x="95.82" y="32.1" width="9.01" height="1.19"/>
</g>
</g>
<g id="Iron-Heart_Galaxy">
<path id="Heart_Galaxy" d="M82.38,41.74v-8.89L85,30.8l2.62,2.05v8.89L85,44.38L82.38,41.74z" fill="rgb(4, 198, 255)"/><rect id="Center_Heart_Galaxy" class="option" x="84.09" y="34.21" width="1.82" height="6.09" fill="rgb(255, 126, 0)" style="display: inherit;"/>
</g>
<g id="Neck-Armor_Galaxy">
<g id="Neck-Plate_Galaxy" fill="rgb(4, 198, 255)">
<path d="M82.81,24.23l-7.2,0.12l-1.77-2.89l-6.87,0.81l-0.68,2.99l-4.4,0.54l-3.24-11.12l11.25-3.35 c0,0,1.49,2.51,2.57,3.39c1.11,0.91,2.59,1.97,3.98,2.57c1.52,0.66,3.37,1.1,5.13,1.39c0.18,0.03,0.37,0.06,0.57,0.08 L82.81,24.23z"/>
<path d="M87.19,24.23l7.2,0.12l1.77-2.89l6.87,0.81l0.68,2.99l4.4,0.54l3.25-11.12l-11.25-3.35 c0,0-1.49,2.51-2.57,3.39c-1.11,0.91-2.59,1.97-3.98,2.57c-1.52,0.66-3.37,1.1-5.13,1.39c-0.18,0.03-0.37,0.06-0.57,0.08 L87.19,24.23z"/>
</g>
<g id="Trauma-Plates_Neck_Galaxy" class="toggle" style="display:none" fill="rgb(255, 255, 255)"/>
</g>
</g></g>
<g id="ChestDecals" mask="url(#ChestMask)">
</g>
<g id="Chest-Attachments"><g id="No-Device_Accessories_Chest" class="option" style="display: inherit;">
</g>
</g>
<g id="Collar"><g id="Cloth-Wrap-Right_Collar" class="option" style="display: inherit;">
<g id="Main_Cloth-Wrap-Right_Collar" fill="rgb(52, 1, 63)">
<path d="M95.41,21.42c4.65-1.45,5.5-3.78,5.78-6.13c0.11-0.96-1.26-3.46,0.16-4.1c1.61-0.73,5.4,0.41,6.97,0.75 c1.16,0.25,2.19,1.42,3.38,1.43c2.74,0.03,4.91,3,5.16,4.36c0.35,1.9-3.04,0.56-4.62,2c-3.96,3.61-5.34,8.5-13.67,9.83 c-3.82,0.61-7.61-0.25-11.16-1.04c-9.17-2.03-14.17-3.78-20.06-8.31c-2.58-1.98-6.47-3.59-6.37-6.24c0-0.11,1.88-1.22,2.06-1.27 c1.65-0.41,3.06-1.09,4.88-1.12c1.09-0.02,0.91,0.91,0.99,1.34c0.31,1.62,1.79,2.84,3.66,4.05 C77.47,20.18,88.67,21.17,95.41,21.42z"/>
<path d="M95.41,21.42c1.23,0.05,2.31,0.24,3.25,0.29c4.26,0.26,5.78-0.77,6.6-2.66"/>
<path d="M108.64,11.99c1.23,1.99,1.07,4.34,0.09,5.89"/>
<path d="M72.93,17.68c3.19,4.34,7.92,5.71,13.09,6.23"/>
<path d="M64.3,12.34c0.19,1.1,0.85,1.51,1.66,2.24c0.47,0.43,1.04,0.73,1.41,1.25c0.14,0.19,0.21,0.41,0.29,0.62"/>
</g>
<path id="Buckle_Cloth-Wrap-Right_Collar" d="M74.02,16.86l-2.71-1.93l-4.71,6.53l2.71,1.93L74.02,16.86z" fill="rgb(48, 49, 49)"/>
</g></g>
<g id="CollarDecals" mask="url(#CollarMask)">
</g>
<g id="Helmets" class="swappable" transform="translate(45,-52)"><g id="Helmet_Ramikadyc">
<g id="Left-Earcap_Ramikadyc" class="toggle"><g id="Sensor-Stalk_Left_Ramikadyc" class="option" style="display: inherit;">
<g id="Sensor_Left_Sensor-Stalk_Ramikadyc" fill="rgb(255, 126, 0)">
<path d="M62.08,48.08l4.66-7.98l-5.74,0.04v7.94H62.08z"/>
<path d="M60.85,16.74L66.74,35h-5.74L60.85,16.74z"/>
</g>
<g id="Shaft_Left_Sensor-Stalk_Ramikadyc" fill="rgb(1, 17, 61)">
<path d="M67.78,35l-6.94-21.42l0.01,3.16L66.74,35h-4.9v1.14h5.93V35z"/>
<path d="M67.78,40.08v-1.14h-5.93v1.14h4.9l-4.67,8h1.02L67.78,40.08z"/>
<path d="M60.17,32.48l1.68-1.18v10.45h-1.68V32.48z"/>
<rect x="59.64" y="41.75" width="2.44" height="2.28"/>
<rect x="59.25" y="41.35" width="0.39" height="3.31"/>
</g>
</g><path id="Ear-Cap_Left_Ramikadyc" d="M55.98,35.66l2.72,1.01c0,0,0.74,3.43,0.81,6.29c0.06,2.86-0.78,6.19-0.78,6.19 l-1.7,0.79l-0.05-11.99L55.98,35.66z" fill="rgb(42, 41, 41)"/>
</g>
<g id="Right-Earcap_Ramikadyc" class="toggle"><g id="Sensor-Stalk_Right_Ramikadyc" class="option" style="display: inherit;">
<g id="Sensor_Right_Sensor-Stalk_Ramikadyc" fill="rgb(255, 126, 0)">
<path d="M17.92,48.08l-4.66-7.98l5.74,0.04v7.94H17.92z"/>
<path d="M19.15,16.74L13.26,35h5.74L19.15,16.74z"/>
</g>
<g id="Shaft_Right_Sensor-Stalk_Ramikadyc" fill="rgb(1, 17, 61)">
<path d="M12.23,35l6.94-21.42l-0.01,3.16L13.26,35h4.9v1.14h-5.93V35z"/>
<path d="M12.23,40.08v-1.14h5.93v1.14h-4.9l4.67,8H16.9L12.23,40.08z"/>
<path d="M19.83,32.48l-1.68-1.18v10.45h1.68V32.48z"/>
<rect x="17.92" y="41.75" width="2.44" height="2.28"/>
<rect x="20.36" y="41.35" width="0.39" height="3.31"/>
</g>
</g><path id="Ear-Cap_Right_Ramikadyc" d="M24.02,35.66l-2.72,1.01c0,0-0.74,3.43-0.81,6.29 c-0.06,2.86,0.77,6.19,0.77,6.19l1.7,0.79l0.05-11.99L24.02,35.66z" fill="rgb(42, 41, 41)"/>
</g>
<g id="Helmet_Pieces_Ramikadyc">
<g id="Mouth_Ramikadyc" fill="rgb(2, 29, 105)">
<path d="M36.83,67.32c0,0,0.09-2.75-0.19-4.09c-0.28-1.34-0.65-2.87-0.65-2.87l3.89-1.61h0.05l3.89,1.61 c0,0-0.37,1.53-0.65,2.87c-0.28,1.34-0.19,4.09-0.19,4.09H36.83z"/>
<path d="M39.9,58.75v6.41"/>
<path d="M36.83,67.32l0.01-0.93l3.03-1.21v-0.02l0.03,0.01l0.03-0.01v0.02l3.03,1.21l0.01,0.93H36.83z"/>
</g>
<g id="Face_Ramikadyc" fill="rgb(2, 29, 105)">
<path d="M43.81,60.35l0.2,0.03c4.27-4.69,7.12-9.26,8.22-13.69l4.24-3.7l0.57-1.31v-0.03l0,0v10.48 c0,0-3.12,6.56-6.46,9.75c-2.22,2.12-7.53,5.43-7.53,5.43h-0.07c0,0-0.09-2.75,0.19-4.09C43.44,61.88,43.81,60.35,43.81,60.35z"/>
<path d="M35.99,60.35l-0.2,0.03c-4.27-4.69-7.12-9.26-8.22-13.69l-4.24-3.7l-0.57-1.31v-0.03l0,0v10.48 c0,0,3.12,6.56,6.46,9.75c2.22,2.12,7.53,5.43,7.53,5.43h0.07c0,0,0.09-2.75-0.19-4.09C36.36,61.88,35.99,60.35,35.99,60.35z"/>
</g>
<g id="Cheeks-2_Ramikadyc" fill="rgb(52, 68, 83)">
<path d="M25.45,49.03l7.87,9.53c0,0,1.4,1.86,1.05,3.98c-0.35,2.12-1.36,2.26-1.36,2.26l-2.12-0.72l-7.85-8.92 c0,0-1.15-1.11-0.97-3.41c0.09-1.14,2.13-2.98,2.13-2.98S24.83,48.37,25.45,49.03z"/>
<path d="M22.16,51.4c0,0,0.35-0.91,0.88-0.85c0.53,0.06,4.06,4.18,4.06,4.18s4.28,4.62,4.5,5 c0.68,1.17,0.64,2.49,0.5,3.04c-0.28,1.11-1.2,1.33-1.2,1.33l-7.85-8.92C23.05,55.17,21.62,53.54,22.16,51.4z"/>
<path d="M22.36,51.75c0.09-0.35,0.27-0.8,0.62-0.86c0.44-0.07,3.49,3.57,3.49,3.57s3.46,3.77,3.65,4.09 c0.57,0.97,0.53,2.07,0.41,2.53c-0.23,0.93-1,1.11-1,1.11l-6.48-7.49C23.06,54.69,22.03,53.06,22.36,51.75z"/>
<path d="M54.56,49.03l-7.87,9.53c0,0-1.4,1.86-1.05,3.98c0.35,2.12,1.36,2.26,1.36,2.26l2.12-0.72l7.85-8.92 c0,0,1.15-1.11,0.97-3.41c-0.09-1.14-2.13-2.98-2.13-2.98S55.18,48.37,54.56,49.03z"/>
<path d="M57.85,51.4c0,0-0.35-0.91-0.88-0.85c-0.53,0.06-4.06,4.18-4.06,4.18s-4.28,4.62-4.5,5 c-0.68,1.17-0.63,2.49-0.5,3.04c0.28,1.11,1.2,1.33,1.2,1.33l7.85-8.92C56.96,55.17,58.39,53.54,57.85,51.4z"/>
<path d="M57.65,51.75c-0.09-0.35-0.27-0.8-0.62-0.86c-0.44-0.07-3.49,3.57-3.49,3.57s-3.46,3.77-3.65,4.09 c-0.57,0.97-0.53,2.07-0.41,2.53c0.23,0.93,1,1.11,1,1.11l6.48-7.49C56.95,54.69,57.98,53.06,57.65,51.75z"/>
</g>
<g id="Cheeks-1_Ramikadyc" fill="rgb(255, 126, 0)">
<path d="M28.12,58.56c0.79-0.28,1.91,0.7,2.48,2.17c0.58,1.47,0.4,2.89-0.39,3.17c-0.79,0.28-1.91-0.7-2.48-2.17 S27.33,58.83,28.12,58.56z"/>
<path d="M28.19,58.96c0.64-0.22,1.56,0.62,2.06,1.89c0.49,1.26,0.38,2.47-0.26,2.69c-0.64,0.22-1.56-0.62-2.06-1.89 C27.44,60.39,27.55,59.18,28.19,58.96z"/>
<path d="M28.51,59.97c0.36-0.12,0.87,0.35,1.15,1.05c0.28,0.71,0.21,1.38-0.15,1.5c-0.36,0.12-0.87-0.35-1.15-1.05 C28.09,60.77,28.15,60.1,28.51,59.97z"/>
<path d="M28.63,60.44c0.24-0.08,0.58,0.23,0.76,0.7c0.18,0.47,0.14,0.92-0.1,1c-0.24,0.08-0.58-0.23-0.76-0.7 S28.39,60.52,28.63,60.44z"/>
<path d="M30.09,57.99c0.9,0.99,1.42,1.57,1.51,1.73c0.68,1.17,0.64,2.49,0.5,3.04c-0.15,0.61-0.57,1.17-1.2,1.33 l-0.9-0.15c0.21-0.04,0.39-0.12,0.55-0.25c0.5-0.51,0.55-1.72,0.07-2.96c-0.58-1.47-1.69-2.44-2.48-2.17L30.09,57.99z"/>
<path d="M51.88,58.56c-0.79-0.28-1.9,0.7-2.48,2.17c-0.58,1.47-0.4,2.89,0.39,3.17c0.79,0.28,1.9-0.7,2.48-2.17 S52.68,58.83,51.88,58.56z"/>
<path d="M51.81,58.96c-0.64-0.22-1.56,0.62-2.06,1.89s-0.38,2.47,0.26,2.69c0.64,0.22,1.56-0.62,2.06-1.89 S52.45,59.18,51.81,58.96z"/>
<path d="M51.5,59.97c-0.36-0.12-0.87,0.35-1.15,1.05c-0.28,0.71-0.21,1.38,0.15,1.5c0.36,0.12,0.87-0.35,1.15-1.05 C51.92,60.77,51.85,60.1,51.5,59.97z"/>
<path d="M51.38,60.44c-0.24-0.08-0.58,0.23-0.76,0.7c-0.18,0.47-0.14,0.92,0.1,1c0.24,0.08,0.58-0.23,0.76-0.7 C51.66,60.97,51.61,60.52,51.38,60.44z"/>
<path d="M49.92,57.99c-0.9,0.99-1.42,1.57-1.51,1.73c-0.68,1.17-0.63,2.49-0.5,3.04c0.15,0.61,0.57,1.17,1.2,1.33 l0.9-0.15c-0.21-0.04-0.39-0.12-0.55-0.25c-0.5-0.51-0.55-1.72-0.07-2.96c0.58-1.47,1.69-2.44,2.48-2.17L49.92,57.99z"/>
</g>
<path fill="rgb(255, 126, 0)" id="Visor_Ramikadyc" d="M39.66,58.08v-0.89l-1.53-2.96l-0.24-8.75l-3.12-1.34l-1.24,0.52l-8.31-4.57l-1.2-4.78 C29,38.21,39.9,42.11,39.9,42.11s10.94-3.93,15.88-6.79l-1.2,4.78l-8.31,4.57l-1.24-0.52l-3.12,1.34l-0.24,8.75l-1.53,2.96v0.89 l3.88,2.3l-0.2-0.03l-3.91-1.61l-3.91,1.61h-0.2L39.66,58.08z M39.9,57.94L39.9,57.94z"/>
<g id="Eyes_Ramikadyc" fill="rgb(1, 17, 61)">
<path d="M55.85,35.33l1.14,2.62l0.05,3.7l-0.57,1.31l-4.24,3.7c-1.1,4.43-3.95,9-8.22,13.69l-3.83-2.35l0-0.01 l0.03,0.01v-0.81l1.53-2.96l0.24-8.75l3.12-1.34l1.24,0.52l8.31-4.57L55.85,35.33z M55.84,35.32l-0.04,0.02L55.84,35.32 L55.84,35.32z"/>
<path d="M23.95,35.33l-1.14,2.62l-0.05,3.7l0.57,1.31l4.24,3.7c1.1,4.43,3.95,9,8.22,13.69l3.83-2.35l0-0.01 l-0.03,0.01v-0.81l-1.53-2.96l-0.24-8.75l-3.12-1.34l-1.24,0.52l-8.31-4.57L23.95,35.33z M23.96,35.32L24,35.35L23.96,35.32 L23.96,35.32z"/>
</g>
<g id="Dome-2_Ramikadyc" fill="rgb(1, 17, 61)">
<path d="M44.15,40.51L42,38.63l-0.26-2.78l2.9-2.63l2.79-9.5l1.76,0.05L49.65,21l-1.4-1.02l0.52-1.22 c0,0,5.53,4.19,6.05,5.16c0.52,0.97,0.88,10.91,0.77,11.39c-0.01,0.03-0.04,0.08-0.08,0.15C52.54,37.14,47.67,39.15,44.15,40.51z "/>
<path d="M24.28,35.47c-0.05-0.07-0.07-0.12-0.08-0.15c-0.11-0.48,0.26-10.42,0.77-11.39 c0.52-0.97,6.05-5.16,6.05-5.16l0.52,1.22L30.14,21l0.47,2.78l1.76-0.05l2.79,9.5l2.9,2.63l-0.26,2.78l-2.15,1.88 C32.13,39.15,27.27,37.15,24.28,35.47z"/>
</g>
<g id="Dome-1_Ramikadyc" fill="rgb(52, 68, 83)">
<path d="M24.93,24.02c-0.5,1.4-0.84,10.83-0.73,11.3c0.01,0.03,0.03,0.08,0.08,0.15c0.05,0.03-1.37,0.6-1.37,0.6 C23.21,30.9,23.59,25.99,24.93,24.02L24.93,24.02z"/>
<path d="M54.88,24.02c0.5,1.4,0.84,10.83,0.73,11.3c-0.01,0.03-0.03,0.08-0.08,0.15c-0.05,0.03,1.37,0.6,1.37,0.6 C56.6,30.9,56.22,25.99,54.88,24.02L54.88,24.02z"/>
<path d="M35.64,40.51l2.15-1.88l0.26-2.78l-2.9-2.63l-2.79-9.5l-1.76,0.05L30.14,21l1.4-1.02l-0.52-1.22 c3.73-1.78,8.1-2.06,8.82-2.09v-0.01l0.09,0c0.01,0,0.01,0,0.01,0v0.01c0.73,0.03,5.09,0.31,8.82,2.09l-0.52,1.22l1.4,1.02 l-0.47,2.78l-1.76-0.05l-2.79,9.5l-2.9,2.63L42,38.63l2.15,1.88c-1.17,0.45-2.19,0.84-2.93,1.12l-1.27,0.41v0.03l-0.05-0.02 l-0.05,0.02v-0.03l-1.29-0.42C37.81,41.34,36.8,40.96,35.64,40.51z"/>
</g>
</g>
</g></g>
<g id="HelmetsDecals" mask="url(#HelmetsMask)"/>
<g id="Shoulders">
<g id="Left-Shoulder"><g id="Legacy-x3_Shoulder_Left" class="option" style="display: inherit;">
<path id="Plate-3_Shoulder_Left_Legacy-x3" d="M117.06,20.06l-7.61,7.75l4.46,9.61l10.03-0.53l5.31,4.84l4.73-0.33 L117.06,20.06z" fill="rgb(1, 17, 61)"/>
<path id="Trauma-Plate-3_Shoulder_Legacy-x3_Left" class="toggle" style="" d="M129.88,39.93l3.05-0.21l-14.58-18.47l-6.8,6.92 l3.45,7.43l9.24-0.57L129.88,39.93z" fill="rgb(136, 163, 236)"/>
<path id="Plate-2_Shoulder_Left_Legacy-x3" d="M112.95,15.27l-6.03,9.03l6.18,8.61l9.75-2.38l6.12,3.77l4.58-1.2 L112.95,15.27z" fill="rgb(1, 17, 61)"/>
<path id="Trauma-Plate-2_Shoulder_Legacy-x3_Left" class="toggle" style="" d="M129.25,32.41l2.96-0.77l-17.76-15.47l-5.39,8.05 l4.77,6.67l8.97-2.26L129.25,32.41z" fill="rgb(78, 97, 150)"/>
<path id="Plate-1_Shoulder_Left_Legacy-x3" d="M105.53,10.64l-2.71,10.49l8.68,6.12l8.43-5.43l7.03,1.57l3.93-2.63 L105.53,10.64z" fill="rgb(1, 17, 61)"/>
<path id="Trauma-Plate-1_Shoulder_Legacy-x3_Left" class="toggle" style="" d="M126.6,21.52l2.54-1.7l-21.9-8.79l-2.42,9.37 l6.72,4.74l7.72-5.07L126.6,21.52z" fill="rgb(45, 59, 97)"/>
</g></g>
<g id="Right-Shoulder"><g id="Pauldron_Shoulder_Right" class="option" style="display: inherit;">
<path id="Main_Pauldron_Shoulder_Right" d="M72.17,15.98L43.2,29.62L29.24,15.15l37.49-4.51L72.17,15.98z" fill="rgb(1, 17, 61)"/>
<g id="Plate_Pauldron_Shoulder_Right" fill="rgb(45, 59, 97)">
<path d="M31.9,15.43l11.69,12.07l25.54-12.03l-4.15-4.07L31.9,15.43z"/>
<path d="M31.4,14.89l32.97-3.97L64,10.5l-32.81,3.82L31.4,14.89z"/>
</g>
</g></g>
</g>
<g id="ShouldersDecals" mask="url(#ShouldersMask)">
</g>
<g id="Gauntlets">
<g id="Left-Gauntlets"><g id="Basic_Gauntlet_Left" class="option" style="display: inherit;">
<path id="Top-2_Basic_Gauntlet_Left" d="M140.21,108.05l1.6-2.13l-2.46-19.29l-0.86,2.24l1.2,8.8l-0.93,2.08 L140.21,108.05z" fill="rgb(255, 126, 0)"/>
<path id="Top-1_Basic_Gauntlet_Left" d="M139.34,86.62l-0.86,2.24l1.2,8.8l-0.93,2.08l1.45,8.31l-1.05,1.41 l0.05,5.31l-1.66,0.29l-1.54-8.11l-1.47-0.68l-5.06-23.8l9.3-0.21L139.34,86.62z" fill="rgb(163, 213, 228)"/>
<g id="Accent-Bottom_Basic_Gauntlet_Left" fill="rgb(255, 126, 0)">
<path d="M125.39,89.15l-2.1,0.5l0.75,3.1l2.09-0.5L125.39,89.15z"/>
<path d="M126.69,94.58l-2.09,0.5l0.75,3.1l2.1-0.5L126.69,94.58z"/>
<path d="M128.05,100.14l-2.1,0.5l0.75,3.1l2.1-0.5L128.05,100.14z"/>
</g>
<path id="Bottom_Basic_Gauntlet_Left" d="M123.31,89.65l-0.57-2.36l6.82-4.44l4.97,23.41l-7.08,0.7l-2.1-8.77 l2.09-0.5l-0.75-3.1l-2.08,0.5l-0.56-2.33l2.09-0.5l-0.75-3.1L123.31,89.65z M128.05,100.14l-2.1,0.51l0.74,3.1l2.11-0.51 L128.05,100.14z" fill="rgb(1, 17, 61)"/>
<g id="Whistling-Birds_Attachment_Basic_Gauntlet_Left" class="option" style="display: inherit;">
<path id="Head_Whistling-Birds_Attachment_Basic_Gauntlet_Left" d="M144.04,98.03l-2.48,5.64l-0.67-5.24 L144.04,98.03z" fill="rgb(1, 17, 61)"/>
<g id="Birds_Whistling-Birds_Attachment_Basic_Gauntlet_Left" fill="rgb(201, 3, 251)">
<g>
<path d="M141.45,98.75c0.12-0.02,0.26,0.24,0.3,0.57c0.04,0.33-0.02,0.61-0.15,0.62 c-0.12,0.01-0.26-0.24-0.3-0.57C141.26,99.04,141.33,98.76,141.45,98.75z"/>
<path d="M141.66,100.42c0.12-0.02,0.26,0.24,0.3,0.57c0.04,0.33-0.02,0.61-0.15,0.62 c-0.12,0.01-0.26-0.24-0.3-0.57C141.47,100.71,141.54,100.43,141.66,100.42z"/>
<path d="M142.3,98.64c0.12-0.02,0.26,0.24,0.3,0.57c0.04,0.33-0.02,0.61-0.15,0.62c-0.12,0.02-0.26-0.24-0.3-0.57 C142.11,98.93,142.18,98.65,142.3,98.64z"/>
<path d="M141.82,103.06c-0.04-0.1-0.07-0.22-0.09-0.35c-0.04-0.33,0.02-0.61,0.15-0.62 c0.09-0.01,0.18,0.11,0.24,0.3L141.82,103.06z M142.54,101.43c-0.08-0.1-0.14-0.28-0.17-0.49c-0.04-0.33,0.02-0.61,0.15-0.62 c0.12-0.01,0.24,0.21,0.29,0.51L142.54,101.43z M143.29,99.72c-0.12-0.01-0.24-0.26-0.28-0.57c-0.04-0.33,0.02-0.61,0.15-0.62 c0.12-0.02,0.26,0.24,0.3,0.57c0.01,0.08,0.01,0.15,0.01,0.22L143.29,99.72z"/>
</g>
</g>
<g id="Base_Whistling-Birds_Attachment_Basic_Gauntlet_Left" fill="rgb(4, 198, 255)">
<path d="M141.82,82.24l-2.12,0.27l0.12,0.93l2.12-0.27L141.82,82.24z"/>
<path d="M142.13,83.14l-2.31,0.29l1.91,14.89l2.31-0.29L142.13,83.14z"/>
<path d="M142.45,83.26l-0.3,0.04l1.65,12.86l0.3-0.04L142.45,83.26z"/>
<path d="M141.75,83.19l-0.3,0.04l1.79,13.96l0.3-0.04L141.75,83.19z"/>
</g>
<g id="Accent_Whistling-Birds_Attachment_Basic_Gauntlet_Left" fill="rgb(2, 29, 105)">
<path d="M139.67,82.27l-0.84,0.11l1.94,15.12l0.84-0.11L139.67,82.27z"/>
<path d="M144.09,97.08l-3.32,0.42l0.12,0.93l3.32-0.42L144.09,97.08z"/>
<path d="M141.09,82.33l-1.39,0.18l0.28,2.17l1.39-0.18L141.09,82.33z"/>
<path d="M141.04,84.54l-1.06,0.13l0.66,5.16l0.81-2.07L141.04,84.54z"/>
</g>
</g></g>
</g>
<g id="Right-Gauntlets"><g id="Basic_Gauntlet_Right" class="option" style="display: inherit;">
<path id="Top-2_Basic_Gauntlet_Right" d="M29.77,108.05l-1.6-2.13l2.46-19.29l0.86,2.24l-1.2,8.8l0.93,2.08 L29.77,108.05z" fill="rgb(255, 126, 0)"/>
<path id="Top-1_Basic_Gauntlet_Right" d="M30.63,86.62l0.86,2.24l-1.2,8.8l0.93,2.08l-1.45,8.31l1.05,1.41 l-0.05,5.31l1.66,0.29l1.54-8.11l1.47-0.68l5.05-23.8l-9.3-0.21L30.63,86.62z" fill="rgb(163, 213, 228)"/>
<g id="Accent-Bottom_Basic_Gauntlet_Right" fill="rgb(255, 126, 0)">
<path d="M44.58,89.14l2.1,0.5l-0.75,3.1l-2.1-0.5L44.58,89.14z"/>
<path d="M43.29,94.58l2.09,0.5l-0.75,3.1l-2.1-0.5L43.29,94.58z"/>
<path d="M41.93,100.14l2.1,0.5l-0.75,3.1l-2.1-0.5L41.93,100.14z"/>
</g>
<path id="Bottom_Basic_Gauntlet_Right" d="M46.66,89.64l0.56-2.36l-6.82-4.44l-4.96,23.41l7.08,0.7l2.1-8.77 l-2.09-0.5l0.75-3.1l2.08,0.5l0.56-2.33l-2.09-0.5l0.75-3.1L46.66,89.64z M41.93,100.14l2.1,0.5l-0.74,3.1l-2.11-0.51 L41.93,100.14z" fill="rgb(1, 17, 61)"/><g id="Flamethrower_Attachment_Basic_Gauntlet_Right" class="option" style="display: inherit;">
<g id="Tubes_Flamethrower_Attachment_Basic_Gauntlet_Right" fill="rgb(101, 6, 109)">
<path d="M29.54,83.27l0.86,0.11l-3.23,26.03l-0.86-0.11L29.54,83.27z"/>
<path d="M27.57,83.03l0.86,0.11l-2.32,18.66l-0.86-0.11L27.57,83.03z"/>
<path d="M29.18,84.88l1.18,0.14l-0.77,6.2l-1.18-0.15L29.18,84.88z"/>
<path d="M27.21,84.64l1.18,0.15l-0.77,6.2l-1.18-0.14L27.21,84.64z"/>
</g>
<g id="Main_Flamethrower_Attachment_Basic_Gauntlet_Right" fill="rgb(1, 17, 61)">
<path d="M27.2,82.98l3.53,0.43l-0.2,1.63L27,84.62L27.2,82.98z"/>
<path d="M26.15,90.81l3.69,0.45l-0.12,0.99l-3.7-0.45L26.15,90.81z"/>
<path d="M26.18,91.82l3.39,0.42l-0.06,0.5l-3.39-0.42L26.18,91.82z"/>
<path d="M29.55,90.6l0.57,0.09l-0.38,3.03l-0.57-0.09L29.55,90.6z"/>
</g>
<g id="Accent_Flamethrower_Attachment_Basic_Gauntlet_Right" fill="rgb(4, 198, 255)">
<path d="M25.22,101.69l0.92,0.11l-0.02,1.29l-1.21-0.15L25.22,101.69z"/>
<path d="M25.69,95.01l1.63,0.2l-0.24,1.97l-1.63-0.2L25.69,95.01z"/>
<path d="M25.67,97.02l1.18,0.15l-0.24,1.97l-1.18-0.15L25.67,97.02z"/>
<path d="M26.55,105.99l1.18,0.14l-0.34,2.71l-1.18-0.15L26.55,105.99z"/>
<path d="M27.64,97.26l1.18,0.14l-0.46,3.68l-1.18-0.14L27.64,97.26z"/>
<path d="M26.16,107.32l1.63,0.2l-0.07,0.53l-1.63-0.2L26.16,107.32z"/>
</g>
<path id="Base_Flamethrower_Attachment_Basic_Gauntlet_Right" d="M30.11,90.68l1.04-8.21l-1.03,0.26l-1.76,13.89 l0.93,0.56l0.44-3.47l-0.57-0.09l0.38-3.03L30.11,90.68z" fill="rgb(2, 29, 105)"/>
</g></g>
</g>
</g>
<g id="GauntletsDecals" mask="url(#GauntletsMask)">
</g>
<g id="Shins">
<g id="Left-Shin"><g id="Basic_Shin_Left" class="option" style="display: inherit;">
<path id="Shin_Basic-Shin_Left" d="M123.38,181.46l-4.73-6.13l-10.54,0.47l-4.62,8.67l4.39,30.69 c4.45,2.3,11.19,1.91,15.07-1.05L123.38,181.46" fill="rgb(1, 17, 61)"/>
<path id="Trauma-Plating_Basic-Shin_Left" class="toggle" style="" d="M121.21,213.2l0.4-31.15l-3.8-4.92l-8.61,0.38l-3.88,7.28 l4.17,29.18C113.1,215.46,117.99,215.19,121.21,213.2" fill="rgb(143, 230, 255)"/>
<g id="Ridge_Basic-Shin_Left" class="toggle" style="" fill="rgb(4, 198, 255)">
<path d="M117.2,175.2l-3.66-0.68l-3.74,1.21l3.73,40.9c2.52,0.31,2.56,0.4,4.7-0.39L117.2,175.2"/>
<path d="M113.54,174.52l2.46,42.33"/>
</g>
</g>
</g>
<g id="Right-Shin"><g id="Basic_Shin_Right" class="option" style="display: inherit;">
<path id="Shin_Basic-Shin_Right" d="M46.67,181.46l4.73-6.13l10.53,0.47l4.62,8.67l-4.39,30.69 c-4.45,2.3-11.19,1.91-15.07-1.05L46.67,181.46" fill="rgb(1, 17, 61)"/>
<path id="Trauma-Plating_Basic-Shin_Right" class="toggle" style="" d="M48.84,213.2l-0.4-31.15l3.8-4.92l8.61,0.38l3.88,7.28 l-4.17,29.18C56.95,215.46,52.05,215.19,48.84,213.2" fill="rgb(143, 230, 255)"/>
<g id="Ridge_Basic-Shin_Right" class="toggle" style="" fill="rgb(4, 198, 255)">
<path d="M52.85,175.2l3.66-0.68l3.74,1.21l-3.73,40.9c-2.52,0.31-2.56,0.4-4.7-0.39L52.85,175.2"/>
<path d="M56.51,174.52l-2.46,42.33"/>
</g>
</g>
</g>
</g>
<g id="ShinsDecals" mask="url(#ShinsMask)">
</g>
<g id="Foot">
<g id="Left-Ankle"><g id="Legacy_Ankle_Left" class="option" style="display: inherit;">
<path id="Plate-2_Legacy-Ankle_Left" d="M124.5,223.42l3.77,3.39l2.6,3.25l-4.16,1.34l-9.52-1.97l-3.48-4.58 L124.5,223.42" fill="rgb(1, 17, 61)"/>
<path id="Plate-1_Legacy-Ankle_Left" d="M107.38,217.05c0,0,3.8,1.69,9.42,1.49c3.86-0.14,5.42-1.1,5.42-1.1 l3.27,6.02l-0.85,3.32l-13.76-1.08l-3.39-2.85L107.38,217.05" fill="rgb(1, 17, 61)"/>
<path id="Trauma-Plate-2_Legacy-Ankle_Left" class="toggle" style="" d="M125.31,224.15l2.94,2.64l1.52,1.89l-3.16,1.02 l-8.38-1.73l-1.38-1.81l7.79,0.61L125.31,224.15" fill="rgb(142, 246, 255)"/>
<path id="Trauma-Plate-1_Legacy-Ankle_Left" class="toggle" style="" d="M108.82,219.15l0.06,2.76l2.74,2.21l12.1,0.95l0.86-3.32 l-1.54-2.84c-1.02,0.29-4.12,1.18-6.16,1.26C113.64,220.28,110.62,219.62,108.82,219.15" fill="rgb(142, 246, 255)"/>
</g></g>
<g id="Left-Toe"><g id="None_Toe_Left" class="option" style="display: inherit;">
</g>
</g>
<g id="Right-Ankle"><g id="Legacy_Ankle_Right" class="option" style="display: inherit;">
<path id="Plate-2_Legacy-Ankle_Right" d="M45.56,223.42l-3.77,3.39l-2.6,3.25l4.16,1.34l9.52-1.97l3.48-4.58 L45.56,223.42" fill="rgb(1, 17, 61)"/>
<path id="Plate-1_Legacy-Ankle_Right" d="M62.68,217.05c0,0-3.8,1.69-9.42,1.49c-3.86-0.14-5.43-1.1-5.43-1.1 l-3.27,6.02l0.85,3.32l13.76-1.08l3.39-2.85L62.68,217.05" fill="rgb(1, 17, 61)"/>
<path id="Trauma-Plate-2_Legacy-Ankle_Right" class="toggle" style="" d="M44.75,224.15l-2.94,2.64l-1.52,1.89l3.16,1.02 l8.38-1.73l1.38-1.81l-7.79,0.61L44.75,224.15" fill="rgb(143, 230, 255)"/>
<path id="Trauma-Plate-1_Legacy-Ankle_Right" class="toggle" style="" d="M61.24,219.15l-0.06,2.76l-2.74,2.21l-12.1,0.95 l-0.86-3.32l1.54-2.84c1.02,0.29,4.12,1.18,6.16,1.26C56.42,220.28,59.44,219.62,61.24,219.15" fill="rgb(143, 230, 255)"/>
</g></g>
<g id="Right-Toe"><g id="None_Toe_Right" class="option" style="display: inherit;">
</g>
</g>
</g>
<g id="FootDecals" mask="url(#FootMask)">
</g>
<g id="Knees">
<g id="Left-Knee"><g id="Legacy_Knee_Left" class="option" style="display: inherit;">
<g id="Missiles_Legacy-Knee_Left" class="toggle" style="display:none"/>
<path id="Plate-2_Legacy-Knee_Left" d="M118.59,162.91l-4.16-2.89l-9.31,1.44l-3.63,4.1l2.99,10.01h7.37l6.96-2.21 L118.59,162.91z" fill="rgb(4, 198, 255)"/>
<path id="Plate-1_Legacy-Knee_Left" d="M120,156.14l-5.34-3.71l-11.94,1.84l-4.65,5.25l3.83,12.83l9.72-0.09 l8.64-2.75L120,156.14z" fill="rgb(109, 141, 231)"/>
</g></g>
<g id="Right-Knee"><g id="Legacy_Knee_Right" class="option" style="display: inherit;">
<g id="Missiles_Legacy-Knee_Right" class="toggle" style="display:none"/>
<path id="Plate-2_Legacy-Knee_Right" d="M51.41,162.91l4.17-2.89l9.31,1.44l3.63,4.1l-2.99,10.01h-7.37l-6.96-2.21 L51.41,162.91z" fill="rgb(4, 198, 255)"/>
<path id="Plate-1_Legacy-Knee_Right" d="M50,156.14l5.34-3.71l11.94,1.84l4.65,5.25l-3.83,12.83l-9.72-0.09 l-8.64-2.75L50,156.14z" fill="rgb(109, 141, 231)"/>
</g></g>
</g>
<g id="KneesDecals" mask="url(#KneesMask)">
</g>
<g id="Thighs">
<g id="Left-Thigh"><g id="Basic_Thigh_Left" class="option" style="display: inherit;">
<path id="Thigh_Basic-Thigh_Left" d="M119.66,114.13c0,0-5.22-6.67-7.89-7.78c-2.53-1.05-5.91-0.6-8.08,1.13 c-3.31,2.64-10.92,8.35-11.78,14.71c-0.96,7.1,4.24,22.8,6,27.87c0.6,1.72,2.87,2.51,4.61,2.57c3.22,0.12,12.01-0.15,14.11-4.87 C119.49,141.34,119.66,114.13,119.66,114.13" fill="rgb(1, 17, 61)"/>
<path id="Trauma-Plate_Basic-Thigh_Left" class="toggle" style="" d="M117.89,114.74c-0.78-0.97-2.65-3.22-4.46-4.95 c-0.86-0.82-1.68-1.54-2.34-1.82c-1.97-0.82-4.61-0.47-6.3,0.88c-1.92,1.53-5.35,4.12-7.95,7.29c-1.58,1.92-2.88,4.05-3.18,6.29 c-0.94,6.9,4.2,22.13,5.92,27.06c0.15,0.43,0.56,0.7,0.99,0.91c0.64,0.31,1.38,0.46,2.02,0.49c1.8,0.07,5.47,0.02,8.54-1 c1.7-0.56,3.24-1.38,3.89-2.83c0.81-1.82,1.35-5.42,1.77-9.56C117.68,128.66,117.86,117.46,117.89,114.74" fill="rgb(7, 50, 170)"/>
<g id="Ridge_Basic-Thigh_Left" class="toggle" style="" fill="rgb(4, 198, 255)">
<path d="M110.85,105.79l-3.61-0.92l-3.78,2.07l1.23,45.7c2.49,0.48,2.53,0.57,4.71-0.08L110.85,105.79"/>
<path d="M107.27,104.87l-0.1,48.14"/>
</g>
</g>
</g>
<g id="Right-Thigh"><g id="Basic_Thigh_Right" class="option" style="display: inherit;">
<path id="Thigh_Basic-Thigh_Right" d="M50.34,114.13c0,0,5.22-6.67,7.89-7.78c2.53-1.05,5.91-0.6,8.08,1.13 c3.31,2.64,10.92,8.35,11.78,14.71c0.96,7.1-4.24,22.8-6,27.87c-0.6,1.72-2.87,2.51-4.61,2.57c-3.22,0.12-12.01-0.15-14.11-4.87 C50.51,141.34,50.34,114.13,50.34,114.13" fill="rgb(1, 17, 61)"/>
<path id="Trauma-Plate_Basic-Thigh_Right" class="toggle" style="" d="M52.11,114.74c0.78-0.97,2.65-3.22,4.46-4.95 c0.86-0.82,1.68-1.54,2.33-1.82c1.97-0.82,4.61-0.47,6.3,0.88c1.92,1.53,5.35,4.12,7.95,7.29c1.58,1.92,2.88,4.05,3.18,6.29 c0.94,6.9-4.2,22.13-5.92,27.06c-0.15,0.43-0.56,0.7-0.99,0.91c-0.64,0.31-1.38,0.46-2.02,0.49c-1.8,0.07-5.47,0.02-8.54-1 c-1.7-0.56-3.24-1.38-3.89-2.83c-0.81-1.82-1.35-5.42-1.77-9.56C52.32,128.66,52.14,117.46,52.11,114.74" fill="rgb(7, 50, 170)"/>
<g id="Ridge_Basic-Thigh_Right" class="toggle" style="" fill="rgb(4, 198, 255)">
<path d="M59.15,105.79l3.61-0.92l3.78,2.07l-1.23,45.7c-2.49,0.48-2.53,0.57-4.71-0.08L59.15,105.79"/>
<path d="M62.73,104.87l0.1,48.14"/>
</g>
</g>
</g>
</g>
<g id="ThighsDecals" mask="url(#ThighsMask)">
</g>
<g id="Groin"><g id="Basic_Groin" class="option" style="display: inherit;">
<path id="Groin-Plate_Basic" d="M78.57,104.6L67.72,82.91h34.71L91.58,104.6c0,0-4.33,5.17-6.5,5.17 C82.91,109.76,78.57,104.6,78.57,104.6z" fill="rgb(1, 17, 61)"/>
<path id="Trauma-Plating_Groin" class="toggle" style="display:none" d="M90.42,103.84l9.8-19.57H69.93l9.79,19.57c0.43,0.5,2.16,2.47,3.82,3.72 c0.58,0.44,1.1,0.84,1.53,0.84c0.44,0,0.95-0.4,1.53-0.84C88.26,106.32,89.99,104.34,90.42,103.84" fill="rgb(255, 255, 255)"/>
</g>
</g>
<g id="GroinDecals" mask="url(#GroinMask)">
</g>
<g id="Waist">
<g id="Accessories_Waist">
<g id="Kama" class="toggle" style="">
<g id="Clean_Kama" class="option" style="display: inherit;">
<g id="Trim_Kama-Clean" fill="rgb(209, 70, 217)">
<path d="M98.61,84.3l7.8,59.01l31.5,13.51l-28.5-67.71l-0.97-8.31L98.61,84.3z"/>
<path d="M71.49,84.3l-7.8,59.01l-31.5,13.51l28.5-67.71l0.91-8.31L71.49,84.3z"/>
</g>
<g id="Main_Kama-Clean" fill="rgb(45, 59, 97)">
<path d="M100.56,84.05l7.55,57.08l28.5,12.58l-27.19-64.6l-0.93-8.04L100.56,84.05z"/>
<path d="M69.54,84.05l-7.55,57.08l-28.5,12.58l27.19-64.6l0.91-8.31L69.54,84.05z"/>
</g>
</g></g>
<g id="Loin-Cloth" class="toggle" style="">
<g id="Clean_Loin-Cloth" class="option" style="display: inherit;">
<path id="Trim_Loin-Cloth-Clean" d="M95.69,82.77H74.4v46.47l10.65,13.05l10.65-13.05V82.77z" fill="rgb(232, 81, 227)"/>
<path id="Main_Loin-Cloth-Clean" d="M94.33,87.66H75.77v40.5l9.28,11.38l9.28-11.38V87.66z" fill="rgb(52, 68, 83)"/>
</g></g>
<g id="Left-Holster" class="toggle" style="display:none"/>
<g id="Right-Holster" class="toggle" style="display:none"/>
<g id="Left-Trophy" class="toggle" style="display:none"/>
<g id="Right-Trophy" class="toggle" style="display:none"/>
</g>
<g id="Under-Belt">
<g id="Sash" class="option" fill="rgb(249, 136, 198)" style="display: inherit;">
<path d="M62.79,72.48c2.02-0.45,5.16,0.85,7.8,1.08c2.83,0.24,5.67,0.03,8.5,0.22c1.66,0.12,3.28,0.55,4.93,0.77 c3.16,0.44,6.32,0.21,9.47-0.21c0.83-0.11,1.68-0.13,2.5-0.31c2.06-0.45,4.75-0.95,6.52-1.82c1.57-0.41,3.16-0.48,4.63-0.1 c1.5,0.39,0.45,3.52,0.52,4.81c0.07,1.36,1,6.67,1.56,7.91c0.62,1.38,1.1,2.88-0.7,3.78c-1.5,0.76-3.11,0.07-4.64-0.14 c-1.81-0.25-3.6-0.13-5.38,0.24c-2.18,0.45-4.34,1.27-6.56,1.49c-2.98,0.29-5.97-0.28-8.95-0.24c-1.71,0.03-3.35,0.61-5.07,0.46 c-2.87-0.24-5.47-1.46-8.26-1.75c-1.4-0.14-2.79,0.19-4.19,0.2c-0.96,0-1.86-0.27-2.79-0.51c-0.92-0.23-1.79-0.14-2.29-1.05 c-0.38-0.69,0.43-2.55,0.81-3.13c0.99-1.5,1.26-6.8,0.9-8.5C61.81,74.25,61.39,72.79,62.79,72.48z"/>
<path d="M60.75,85.08c3.17-0.01,5.94-0.07,8.79,1.08c9.66,3.89,9.45,3.36,13.55,3.8c6.05,0.65,8.46,0.41,10.96-0.18 c1.01-0.24,2.02-0.58,2.93-1.06c1.61-0.85,3.18-1.73,4.61-2.92c1.74-1.45,4.78-2.42,7.22-2.3c0,0-0.47-1.67-1.15-6.62 c-0.17-1.28,0.6-2.68-0.01-4.42c-0.26-0.75-2.66-0.54-4.29-0.4c-3.22,0.28-4.64,2.71-7.13,4.66c-1.45,1.13-3.17,2.47-5.31,3.2 c-3.37,1.14-8.62,1.66-18.57-1.8c-3.25-1.13-6-3.27-10.28-2.58c0,0,0.15,2.3,0.16,3.45C62.24,82.67,60.75,85.08,60.75,85.08z"/>
</g></g>
<g id="Belt"><g id="Pouch-Belt-4" class="option" style="display: inherit;">
<path id="Main_Pouch-Belt-4" d="M109.38,84.25c-5.47,0.49-17.98,2.27-24.29,2.27c-6.38,0-18.88-1.79-24.28-2.26 l0.81-6.37c4.44,0.39,17.3,2.2,23.48,2.2c5.99,0,18.59-1.79,23.33-2.22L109.38,84.25z" fill="rgb(46, 24, 3)"/>
<rect id="Buckle_Pouch-Belt-4" x="80.61" y="79.49" width="9.05" height="7.39" fill="rgb(37, 37, 37)"/>
<g id="Pouches_Pouch-Belt-4" fill="rgb(80, 41, 4)">
<g>
<g>
<path d="M66.42,76.75c-1.32-0.09-2.64,0.14-3.85,0.67h0l5.92,0.34L70.1,77C70.1,77,68.06,76.86,66.42,76.75z"/>
<path d="M70.3,77.24c0.01-0.07-0.03-0.14-0.09-0.19c-0.06-0.04-0.14-0.05-0.21-0.02 c-0.53,0.25-1.52,0.72-1.52,0.72s-0.64,7.72-0.79,9.57c-0.01,0.08,0.03,0.15,0.09,0.19c0.06,0.04,0.14,0.04,0.21,0.01 c0.54-0.29,1.06-0.47,1.59-0.56c0.1-0.02,0.17-0.1,0.17-0.19C69.87,83.59,69.99,80.41,70.3,77.24z"/>
<path d="M68.49,77.76l-5.92-0.34c-0.04,1.51-0.18,3.02-0.26,4.54c-0.09,1.75-0.13,3.51-0.3,5.28 c-0.01,0.06,0.01,0.12,0.05,0.16c0.04,0.04,0.1,0.07,0.15,0.07c1.83-0.02,3.66,0.08,5.47,0.31c0.06,0.01,0.11-0.01,0.16-0.04 s0.07-0.09,0.08-0.14c0.06-0.93,0.31-4.51,0.31-4.51L68.49,77.76z"/>
<path d="M68.49,77.76l-5.92-0.34c0,0-0.08,0.74-0.19,1.64c-0.1,0.83,0.16,1.67,0.7,2.31 c0.54,0.64,1.33,1.03,2.17,1.08c0,0,0,0,0,0c0.84,0.05,1.67-0.25,2.28-0.83c0.61-0.58,0.96-1.38,0.96-2.22 C68.49,78.5,68.49,77.76,68.49,77.76z"/>
<path d="M65.32,81.27c0.21,0.01,0.37,0.21,0.36,0.44c-0.01,0.23-0.19,0.4-0.4,0.39s-0.37-0.21-0.36-0.44 C64.93,81.43,65.11,81.26,65.32,81.27z"/>
</g>
</g>
<g>
<path d="M58.83,77.31l0.44-0.68l2.27,0.07l0.28,0.85L58.83,77.31z"/>
<path d="M61.81,77.64c0.01-0.06-0.01-0.11-0.05-0.16c-0.04-0.04-0.09-0.07-0.15-0.07 c-0.69-0.03-2.78-0.11-2.78-0.11l-0.4,8.96c0.11,0.27,1.76,0.43,2.69,0.39c0.11-0.01,0.19-0.09,0.19-0.2 C61.37,83.51,61.47,80.57,61.81,77.64z"/>
</g>
<g>
<g>
<path d="M103.76,76.75c1.32-0.09,2.64,0.14,3.85,0.67h0l-5.92,0.34L100.08,77 C100.08,77,102.13,76.86,103.76,76.75z"/>
<path d="M99.88,77.24c-0.01-0.07,0.03-0.14,0.09-0.19c0.06-0.04,0.14-0.05,0.21-0.02 c0.53,0.25,1.52,0.72,1.52,0.72s0.64,7.72,0.79,9.57c0.01,0.08-0.03,0.15-0.09,0.19c-0.06,0.04-0.14,0.04-0.21,0.01 c-0.54-0.29-1.06-0.47-1.59-0.56c-0.1-0.02-0.17-0.1-0.17-0.19C100.31,83.59,100.19,80.41,99.88,77.24z"/>
<path d="M101.69,77.76l5.92-0.34c0.04,1.51,0.18,3.02,0.26,4.54c0.09,1.75,0.13,3.51,0.3,5.28 c0,0.06-0.01,0.12-0.05,0.16c-0.04,0.04-0.1,0.07-0.15,0.07c-1.83-0.02-3.66,0.08-5.47,0.31c-0.06,0.01-0.11-0.01-0.16-0.04 s-0.07-0.09-0.08-0.14c-0.06-0.93-0.31-4.51-0.31-4.51L101.69,77.76z"/>
<path d="M101.69,77.76l5.92-0.34c0,0,0.08,0.74,0.19,1.64c0.09,0.83-0.16,1.67-0.7,2.31 c-0.54,0.64-1.33,1.03-2.17,1.08c0,0,0,0,0,0c-0.84,0.05-1.67-0.25-2.28-0.83c-0.61-0.58-0.96-1.38-0.96-2.22 C101.69,78.5,101.69,77.76,101.69,77.76z"/>
<path d="M104.86,81.27c-0.21,0.01-0.37,0.21-0.36,0.44c0.01,0.23,0.19,0.4,0.4,0.39s0.37-0.21,0.36-0.44 C105.25,81.43,105.07,81.26,104.86,81.27z"/>
</g>
</g>
<g>
<path d="M111.35,77.31l-0.44-0.68l-2.27,0.07l-0.28,0.85L111.35,77.31z"/>
<path d="M108.38,77.64c-0.01-0.06,0.01-0.11,0.05-0.16c0.04-0.04,0.09-0.07,0.15-0.07 c0.69-0.03,2.78-0.11,2.78-0.11l0.4,8.96c-0.11,0.27-1.75,0.43-2.68,0.39c-0.11-0.01-0.19-0.09-0.19-0.2 C108.81,83.51,108.71,80.57,108.38,77.64z"/>
</g>
</g>
</g></g>
</g>
<g id="WaistDecals" mask="url(#WaistMask)">
</g>
<g id="Extras_Front">
<g id="Front"><g id="None_Front" class="option" style="display: inherit;">
</g>
</g>
</g>
<g id="Extras-FrontDecals" mask="url(#FrontMask)">
</g>
</g>
</svg>