<svg xmlns="http://www.w3.org/2000/svg" preserveAspectRatio="xMinYMin" viewBox="0 0 420 70" width="420" height="70">
  <path fill="#222" d="M359.21 60H0V0h398.11z"/>
  <path fill="#AB1F1F" d="m402.87 0-41.49 64H0v6h374.62L420 0zM55.03 42.15l1.3-1.92-1.46-15.03-1.76-1.1c-.26-7.65-6.76-13.81-14.81-13.96h-.32c-8 .15-14.47 6.24-14.8 13.82L21.2 25.2l-1.47 15.03 1.47 2.17-.11 1.23.91.07 10.48 6.1.12.07h11.09l10.6-6.17.91-.07-.17-1.48zm-31.8 1.1a24.4 24.4 0 0 1 1.22-4.83c.79-1.78 2.3-3.75 4.02-3.44 1.32.24 3.88 6.25 4.24 13.78l-9.48-5.51zm17.81 5.62v-19s3.22-.3 4.79-.66a128.2 128.2 0 0 0 6.66-1.97l-.07-1.11s-4.38.75-6.6.98a77.1 77.1 0 0 1-7.69.54c-2.56 0-5.53-.31-7.69-.54-2.21-.24-6.6-.98-6.6-.98l-.07 1.11s4.75 1.53 6.66 1.97c1.57.36 4.79.66 4.79.66v19h-2.37l-.15-.09-.02-.53-.01-.18v-.1c-.09-2.17-.3-6.02-.65-8.4l-.01-.06a22.5 22.5 0 0 0-.2-1.09c-.49-2.08-1.49-4.29-3.03-5.71-.09-.09-.2-.17-.31-.26l-.33-.23-.03-.02c-1.91-1.24-5.53-2.35-5.53-2.35l.16-1.56.41-3.73c.29.04 4.85.63 7.19.77 2.27.14 6.86.18 7.77.18.9-.01 5.5-.04 7.77-.18 2.1-.13 5.99-.62 6.98-.75l.59 5.33c-.84.27-4.15 1.37-5.69 2.53l-.29.24-.01.01a9.36 9.36 0 0 0-1.91 2.61 13.14 13.14 0 0 0-1.12 3.1l-.11.53-.08.49-.02.13c-.38 2.59-.59 6.94-.67 8.95v.26l-.15.09h-2.36zm2.54-.1c.36-7.53 2.92-13.54 4.24-13.78 1.71-.31 3.23 1.66 4.02 3.44a23.71 23.71 0 0 1 1.22 4.83l-9.48 5.51z"/>
  <path fill="#AAA" d="m66.6 15.12 7.96.06-.05 6.68-4.85 10.47-.08 11.46-2.39-.02.08-11.78 4.85-10.47.03-3.66-5.57-.04.02-2.7zm11.05 12.52 2.06-12.43h.41l-.16 21.99-2.36-4.47.05-5.09zm3.33 1.9 1.06-14.32h.32l1.01 14.33-.1 14.32-2.39-.02.1-14.31zm5.56.71 2.41-2.85-.05 6.68-2.38-.97.02-2.86zm3.45-14.97 4.61.03-.02 2.39-2.23-.02-.19 26.26-2.39-.02.22-28.64zm7.8.06 2.39.02-.19 26.26 1.59.01.17-23.87-.79-.96.01-1.43 3.98.03-.01 1.43-.8.95-.17 23.87 2.23.02-.02 2.39-8.59-.06.2-28.66zm18.73 28.78-2.39-.02.08-10.66-2.39-.02-.03 3.98-2.39-.02.15-20.37 3.66.03-.01 1.43-1.28.95-.08 11.62 2.39.02.11-15.6 2.39.02-.21 28.64zm15.83-5.14 4.87-4.8-.03 4.84-4.84-.04zm6.04.04 4.87-4.8-.03 4.84-4.84-.04zm3.8 2.58 5.57.04.03-3.66-4.7-10.54.08-11.78 2.39.02-.08 11.46 4.7 10.54-.05 6.68-7.96-.06.02-2.7zm18.28 2.83-2.39-.02.08-10.66-2.39-.02-.03 3.98-2.39-.02.15-20.37 3.66.03-.01 1.43-1.28.95-.08 11.62 2.39.02.11-15.6 2.39.02-.21 28.64zm11.14.08-7.96-.06.05-6.68 4.85-10.47.08-11.46 2.39.02-.08 11.78-4.85 10.47-.03 3.66 5.57.04-.02 2.7zm3.3-16.17 2.06-12.43h.41l-.16 21.99-2.36-4.47.05-5.09zm3.33 1.9 1.06-14.32h.32l1.01 14.33-.1 14.32-2.39-.02.1-14.31zm10.17-6.96-.15 21.36-2.39-.02.04-5.73-1.5-.01.02-2.39 1.5.01.03-4.61-1.5-.01.02-2.39 1.5.01.04-5.19c-.7.21-1.42.34-2.17.4l.05-2.39a7.8 7.8 0 0 0 2.14-.49l.04-5.86 2.39.02-.03 4.52a17.57 17.57 0 0 0 3.95-4.43l2.39.02c-1.86 3.38-3.98 5.77-6.37 7.18zm14.37-6.81-4.87 4.8.03-4.84 4.84.04zm3.1 12.09 2.06-12.43h.41l-.16 21.99-2.36-4.47.05-5.09zm3.33 1.9 1.06-14.32h.32l1.01 14.33-.1 14.32-2.39-.02.1-14.31zm5.67-14.28 2.39.02-.19 26.26 1.59.01.17-23.87-.79-.96.01-1.43 3.98.03-.01 1.43-.8.95-.17 23.87 2.23.02-.02 2.39-8.59-.06.2-28.66zm28.97 18.78V26.8l-3.63 6.31h-.57l-3.63-6.31v8.16h-.98v-9.94h1.01l3.88 6.8 3.91-6.8h.99v9.94h-.98zm6.55-9.94h.83l4.13 9.94h-1.04l-1.29-3.11h-4.47l-1.27 3.11h-1.05l4.16-9.94zm2.41 6.06-2-4.91-2.03 4.91h4.03zm4.96-4.24v8.12h-.98v-9.94h.76l6.58 8.27v-8.26h.98v9.93h-.85l-6.49-8.12zm9.82 8.12v-9.94h3.37c.79 0 1.49.13 2.08.39a4.25 4.25 0 0 1 2.38 2.63c.2.6.3 1.24.3 1.93 0 .76-.11 1.44-.34 2.05a4.4 4.4 0 0 1-2.46 2.58c-.58.24-1.24.36-1.97.36h-3.36zm7.16-4.98c0-.6-.08-1.15-.25-1.65a3.37 3.37 0 0 0-1.91-2.14c-.46-.2-1-.3-1.61-.3h-2.39v8.2h2.39c.62 0 1.16-.1 1.63-.31s.87-.5 1.18-.87c.32-.37.56-.8.72-1.3.16-.5.24-1.04.24-1.63zm6.86 5.05c-.69 0-1.32-.14-1.9-.43a4.7 4.7 0 0 1-2.43-2.75 5.1 5.1 0 0 1 .02-3.76c.24-.61.57-1.14.99-1.61s.91-.84 1.48-1.11a4.28 4.28 0 0 1 3.75.03 4.88 4.88 0 0 1 2.42 2.77 5.35 5.35 0 0 1-.02 3.74 5.1 5.1 0 0 1-2.46 2.71c-.57.28-1.19.41-1.85.41zm-3.69-5.04a4.57 4.57 0 0 0 1.03 2.89c.33.39.71.7 1.16.92.45.23.95.34 1.5.34.56 0 1.07-.12 1.53-.36s.84-.56 1.16-.95.56-.84.73-1.33a4.61 4.61 0 0 0-.01-3.07c-.18-.5-.44-.94-.76-1.32s-.71-.69-1.16-.92a3.2 3.2 0 0 0-1.48-.34c-.56 0-1.07.12-1.53.36-.46.24-.84.55-1.16.94s-.56.84-.73 1.33c-.19.5-.28 1-.28 1.51zm13.11-.07a5.35 5.35 0 0 1 1.23-3.38 4.46 4.46 0 0 1 3.48-1.58c.89 0 1.65.2 2.27.6s1.09.92 1.39 1.57l-.77.48a3 3 0 0 0-1.31-1.38 3.05 3.05 0 0 0-.81-.3 3.98 3.98 0 0 0-.83-.09 3.32 3.32 0 0 0-2.73 1.31 4.2 4.2 0 0 0-.71 1.32 4.79 4.79 0 0 0 .05 3.07c.19.5.45.95.78 1.34a3.53 3.53 0 0 0 3.52 1.16 3.51 3.51 0 0 0 1.61-.91c.23-.23.43-.51.59-.83l.81.42c-.16.37-.38.7-.67.99a4.61 4.61 0 0 1-3.27 1.32c-.68 0-1.31-.15-1.88-.45a4.94 4.94 0 0 1-1.47-1.17 5.49 5.49 0 0 1-1.28-3.49zm10.26 5.04v-9.94h4.2c.43 0 .82.09 1.18.27s.67.42.93.71a3.4 3.4 0 0 1 .83 2.13 3.28 3.28 0 0 1-.61 1.94 2.59 2.59 0 0 1-1.6 1.04l2.44 3.84h-1.11l-2.34-3.67h-2.94v3.67h-.98zm.98-4.53h3.25c.29 0 .55-.06.79-.19s.44-.3.61-.51.3-.46.39-.73c.09-.27.14-.56.14-.85a2.46 2.46 0 0 0-.59-1.58c-.18-.2-.4-.37-.64-.49a1.78 1.78 0 0 0-.78-.18h-3.16v4.53zm14.84 3.66v.87h-6.68v-9.94h6.55v.87h-5.57v3.58h4.86v.83h-4.86v3.79h5.7zm4.93-9.07h.83l4.13 9.94h-1.04l-1.29-3.11h-4.47l-1.27 3.11h-1.05l4.16-9.94zm2.41 6.06-2-4.91-2.03 4.91h4.03zm10.05-5.19h-3.54v9.07h-.98v-9.07h-3.54v-.87h8.06v.87zm5.02 9.14c-.69 0-1.32-.14-1.9-.43a4.7 4.7 0 0 1-2.43-2.75 5.1 5.1 0 0 1 .02-3.76c.24-.61.57-1.14.99-1.61s.91-.84 1.48-1.11a4.28 4.28 0 0 1 3.75.03 4.88 4.88 0 0 1 2.42 2.77 5.35 5.35 0 0 1-.02 3.74 5.1 5.1 0 0 1-2.46 2.71c-.57.28-1.18.41-1.85.41zm-3.68-5.04a4.57 4.57 0 0 0 1.03 2.89c.33.39.71.7 1.16.92.45.23.95.34 1.5.34.56 0 1.07-.12 1.53-.36s.84-.56 1.16-.95.56-.84.73-1.33a4.61 4.61 0 0 0-.01-3.07c-.18-.5-.44-.94-.76-1.32s-.71-.69-1.16-.92a3.2 3.2 0 0 0-1.48-.34c-.56 0-1.07.12-1.53.36-.46.24-.84.55-1.16.94s-.56.84-.73 1.33c-.19.5-.28 1-.28 1.51zm10.19 4.97v-9.94h4.2c.43 0 .82.09 1.18.27s.67.42.93.71a3.4 3.4 0 0 1 .83 2.13 3.28 3.28 0 0 1-.61 1.94 2.59 2.59 0 0 1-1.6 1.04l2.44 3.84h-1.11l-2.34-3.67h-2.94v3.67h-.98zm.98-4.53h3.25c.29 0 .55-.06.79-.19s.44-.3.61-.51.3-.46.39-.73c.09-.27.14-.56.14-.85a2.46 2.46 0 0 0-.59-1.58c-.18-.2-.4-.37-.64-.49a1.78 1.78 0 0 0-.78-.18h-3.16v4.53z"/>
</svg>
