<svg id="Mouse_Droid" xmlns="http://www.w3.org/2000/svg" height="10%" x="800" y="765" stroke-linejoin="round" viewBox="0 0 132 98">
  <g stroke="#000">
    <path fill="#1E1C1F" d="M89 80.9s-1.1 3.7 0 6c0 0 6.5 9.7 9.8 9.1l11.6-7.4.7.7s3.6-5.4-9.2-14.1c.1 0-8.5-1.2-12.9 5.7"/>
    <path fill="#423D43" d="M112.1 88.3c0 4.9-4.3 8.9-9.6 8.9s-9.6-4-9.6-8.9 4.3-8.9 9.6-8.9 9.6 4 9.6 8.9m-89.7-.6c0 4.9 4.3 8.9 9.6 8.9s9.6-4 9.6-8.9-4.3-8.9-9.6-8.9-9.6 4-9.6 8.9"/>
    <path fill="#161616" d="M109.3 88.4c0 3.2-2.8 5.9-6.3 5.9s-6.3-2.6-6.3-5.9c0-3.2 2.8-5.9 6.3-5.9 3.4 0 6.3 2.6 6.3 5.9m-71-.1c0 3.2-2.8 5.9-6.3 5.9s-6.3-2.6-6.3-5.9c0-3.2 2.8-5.9 6.3-5.9 3.5.1 6.3 2.7 6.3 5.9"/>
    <path fill="#969198" d="m1.7 63.2-1.2-18 108.3-.4 22.4 16.8L1.7 63.2z"/>
    <path fill="#4A4647" d="M121.8 59.2 11.4 60.3l27.1-43.7 76.9 1.4 6.4 41.2z"/>
    <path fill="#1E1C1F" d="M129.4 69.6 2.5 71.1v-4.9l126.9-1.5v4.9z"/>
    <path fill="#857C7F" d="m32.4 11.7 6.1 4.8-27.1 43.8L8.3 46l24.1-34.3z"/>
    <path fill="#C3BEC5" d="m98.6 12.7 16.8 5.3-76.9-1.4-6.1-4.8 66.2.9z"/>
    <path fill="#352F33" d="m1.7 63.2 129.6-1.6.1 4.1L1.7 67.4v-4.2zm0 7.1 129.6-1.6.1 4.1L1.7 74.5v-4.2z"/>
    <path fill="#423B42" d="M124.3 72.8 6.4 74.2s7 9.3 8 9.3h9.5s7.7-6.6 14.7-.5l51.8-1.2s4.9-5.1 11.6-5.4c6.7-.3 8.3 4.7 8.3 4.7l1.8-.1 12.2-8.2z"/>
  </g>
  <path fill="#0A080B" d="m104.9 76.6 5.7 4.6c0-.1.3-3.7-5.7-4.6"/>
  <path fill="#1E1C1F" d="M52.4 2h.4l-1-.1v-.1h-.3l-.9-.5v.4l-.7-.1v.2l-.9-.5v.4l.4.1-1.1-.2v.1l-.5-.3v.4l-.7-.1v.1l-.7-.4v.4l-.7-.1-.1.6 1.1.3-.9-.2-.3 1.1-2.9-.5-1 4.5 1.1.2-.1 3s.3.4.4.4c0 0 .1-1.1.1-2 .1.2.3.3.6.3l-.1 1.6s.4.4.5.3c0 0 .1-1 .1-2 .2-.1.3-.2.4-.3.1.2.2.4.4.5l-.4 2.1-3.6.1V13l10 2.5h6.6v-1.4l-2.5-.6c.2-.9.5-2.6.6-3.1l3.1.2v-.5H58l.9-4.7-1.5-.2-.4 1.4.3-1.4-1.5-.2v.2l-.8-.3.3-1.6.5.1v-1l-.8-.1.1-.6h-.8v.4l-.8-.1h-.2l-.2-.5h-.7V2zm1.5 11.2-7.6-1.9h-.7c0-.2.1-.5.1-.8.2.1.3.2.5.2s.4-.1.5-.2c.1.4.5.7.9.7.5 0 .9-.4.9-.9 0-.1 0-.3-.1-.4.2-.1.3-.3.4-.5 0 .2.1.3.2.5-.3.2-.5.5-.5.8 0 .5.4.9.9.9s.9-.4.9-.9c0-.2-.1-.4-.2-.5.3-.2.5-.5.5-.8v-.2l1 .3-.1.6-.1 1.1 2.4.5.1-1.5.3.1h.2l-.5 2.9zM101.1.9l.5.1-1.1-.2V.7l-.4-.1-1-.6v.4l-.8-.1-.1.3-1-.6v.4l.5.1-1.3-.2v.1l-.6-.4v.4L95 .3v.2l-.8-.5v.4l-.8-.1-.2.7 1.2.3-1.1-.2-.3 1.3-3.3-.7-1.3 5.2 1.2.3-.2 3.5s.4.5.4.4c0 0 .1-1.2.2-2.3.2.2.4.4.6.4l-.1 1.8s.5.5.6.4c0 0 .1-1.2.2-2.3.2-.1.3-.2.4-.4.1.2.2.4.4.6l-.5 2.5-4.1.1v1.5l11.7 3.3 7.7.2v-1.6l-2.9-.8c.2-1 .6-3 .7-3.6l3.6.4v-.6l-.8-.1 1.1-5.5-1.7-.3-.5 1.6.3-1.6-1.7-.3v.1l-.9-.2.4-1.9.6.2V1.5l-.9-.1.2-.7h-1v.5l-1-.2h-.2l-.2-.6h-.8l-.1.5zm1.5 13.1-8.7-2.3h-.8c.1-.3.1-.6.2-.9.2.1.4.2.6.2.2 0 .4-.1.6-.2.1.5.5.8 1 .8.6 0 1.1-.5 1-1.1 0-.2 0-.3-.1-.4.2-.1.4-.3.5-.6 0 .2.1.4.2.5-.3.2-.6.5-.5.9 0 .6.5 1 1.1 1 .6 0 1.1-.5 1-1.1 0-.2-.1-.4-.2-.6.3-.2.6-.5.5-.9v-.2l1.2.4-.1.7-.1 1.2 2.7.7.1-1.8.3.1h.2l-.7 3.6z"/>
  <path fill="#312F32" d="M54.2 21.7h5.2v2.4h-5.2zm.2 3.2h5.2v2.4h-5.2zm0 3.1h5.2v2.4h-5.2zm0 3.4h5.2v2.4h-5.2zm0 9.4h5.2v2.4h-5.2zm.1 9.2h5.2v2.4h-5.2zm.1-15.4h5.2V37h-5.2zm0 3.1h5.2v2.4h-5.2zm0 6.3h5.2v2.4h-5.2zm0 3.2h5.2v2.4h-5.2zm.1 5.9h5.2v2.4h-5.2zm0 3.2h5.2v2.4h-5.2zm5.4-28.1h5.2v2.4h-5.2zm.2-6.5h5.2v2.4h-5.2zm0 3.5h5.2v2.4h-5.2zm.1 12.7h5.2v2.4h-5.2zm0 9.5h5.2v2.4h-5.2zm0 9.1h5.2v2.4h-5.2zm.1-25.1h5.2v2.4h-5.2zm0 3.5h5.2v2.4h-5.2zm0 5.9h5.2v2.4h-5.2zm0 3.5h5.2v2.4h-5.2zm.1 5.7h5.2v2.4h-5.2zm0 3.4h5.2v2.4h-5.2zm6-31.7h5.2v2.4h-5.2zm.3 3.2h5.2v2.4h-5.2zm0 3.2h5.2v2.4h-5.2zm0 3.3h5.2v2.4h-5.2zm0 9.4h5.2v2.4h-5.2zm0 9.2h5.2v2.4h-5.2zm.2-12.2h5.2v2.4h-5.2zm0 9.5h5.2v2.4h-5.2zm.1-12.7h5.2V37h-5.2zm0 9.4h5.2v2.4h-5.2zm0 9.1h5.2v2.4h-5.2zm0 3.3h5.2v2.4h-5.2zm5.1-34.6h5.2v2.4h-5.2zm0 3.2h5.2v2.4h-5.2zm.3 3.3h5.2v2.4h-5.2zm0 3.2h5.2v2.4h-5.2zm0 3.2h5.2v2.4h-5.2zm0 6.3h5.2v2.4h-5.2zm0 3.2h5.2v2.4h-5.2zm0 5.9h5.2v2.4h-5.2zm0 3.2h5.2v2.4h-5.2zm.3-15.3h5.2v2.4h-5.2zm0 9.5h5.2v2.4h-5.2zm0 9.1h5.2V59h-5.2zm5-31.3h5.2v2.4h-5.2zm.3-3.3h5.2v2.4h-5.2zm0 13h5.2v2.4h-5.2zm0 9.5h5.2v2.4h-5.2zm0 9.1h5.2V56h-5.2zm.2-25.2h5.2v2.4h-5.2zm0 3.3h5.2v2.4h-5.2zm0 9.5h5.2v2.4h-5.2zm.1 9.1h5.2v2.4h-5.2zm.2-12.2h5.2v2.4h-5.2zm0 9.5h5.2V50h-5.2zm0 9.1h5.2v2.4h-5.2zm5.5-34.9h5.2v2.4h-5.2zm0 13h5.2v2.4h-5.2zm0 9.4h5.2v2.4h-5.2zm.1 9.1h5.2v2.4h-5.2zm.1-25.1h5.2v2.4h-5.2zm0 3.2h5.2v2.4h-5.2zm0 9.5h5.2v2.4h-5.2zm.1 9.1h5.2v2.4h-5.2zm.2-12.1h5.2v2.4h-5.2zm0 9.4h5.2v2.4h-5.2zm.1 9.2H90v2.4h-5.2zM84 25.1h5.2v2.4H84zm5.6 10h5.2v2.4h-5.2zm0 9.4h5.2v2.4h-5.2zm0 9.1h5.2V56h-5.2zm.2-28H95V28h-5.2zm0 2.9H95v2.4h-5.2zm0 3.2H95v2.4h-5.2zm0 9.5H95v2.4h-5.2zm0 9.1H95v2.4h-5.2zm.3-12.1h5.2v2.4h-5.2zm0 9.4h5.2V50h-5.2zm0 9.2h5.2v2.4h-5.2zm5.1-6.7h5.2v2.4h-5.2zm0 3.4h5.2v2.4h-5.2zm.2-27.9h5.2V28h-5.2zm0 21.9h5.2v2.4h-5.2z"/>
  <path fill="#0D0B0E" d="M49.9 18.2h.9V59h-.9zm1.5 0h.9V59h-.9zm1.4 0h.9V59h-.9zm2.3 4.4h3.4v.6h-3.4zm.2 3.1h3.4v.6h-3.4zm0 3.2h3.4v.6h-3.4zm0 3.4h3.4v.6h-3.4zm0 9.4h3.4v.6h-3.4zm.1 9.1h3.4v.6h-3.4zm.1-15.4h3.4v.6h-3.4zm0 3.2h3.4v.6h-3.4zm0 6.3h3.4v.6h-3.4zm0 3.2h3.4v.6h-3.4zm.1 5.9H59v.6h-3.4zm0 3.2H59v.6h-3.4zm5.6-34.6h3.4v.6h-3.4zm0 3.5h3.4v.6h-3.4zm.1 12.7h3.4v.6h-3.4zm0 9.4h3.4v.6h-3.4zm0 9.2h3.4v.6h-3.4zm.1-25.1h3.4v.6h-3.4zm0 3.4h3.4v.6h-3.4zm0 6h3.4v.6h-3.4zm0 3.5h3.4v.6h-3.4zm.1 5.6h3.4v.6h-3.4zm0 3.5h3.4v.6h-3.4zM61 29.1h3.4v.6H61zm6.5-6.5h3.4v.6h-3.4zm.3 3.1h3.4v.6h-3.4zm0 3.3h3.4v.6h-3.4zm0 3.3h3.4v.6h-3.4zm0 9.4h3.4v.6h-3.4zm0 9.1h3.4v.6h-3.4zm.3-15.4h3.4v.6h-3.4zm0 9.5h3.4v.6h-3.4zm0 9.1h3.4v.6h-3.4zm0 3.2h3.4v.6h-3.4zM68 38.7h3.4v.6H68zm0 9.4h3.4v.6H68zm5.2-25.4h3.4v.6h-3.4zm0 3.2h3.4v.6h-3.4zm.3 3.3h3.4v.6h-3.4zm0 3.2h3.4v.6h-3.4zm0 3.2h3.4v.6h-3.4zm0 6.2h3.4v.6h-3.4zm0 3.2h3.4v.6h-3.4zm0 6h3.4v.6h-3.4zm0 3.2h3.4v.6h-3.4zm.3-15.3h3.4v.6h-3.4zm0 9.5h3.4v.6h-3.4zm0 9.1h3.4v.6h-3.4zm5-31.3h3.4v.6h-3.4zm.3-3.3h3.4v.6h-3.4zm0 13h3.4v.6h-3.4zm0 9.4h3.4v.6h-3.4zm.1 9.2h3.4v.6h-3.4zm.1-25.2h3.4v.6h-3.4zm0 3.3h3.4v.6h-3.4zm0 9.4h3.4v.6h-3.4zm.1 9.1h3.4v.6h-3.4zm.2-12.1H83v.6h-3.4zm0 9.5H83v.6h-3.4zm0 9.1H83v.6h-3.4zm5.3-31.7h3.4v.6h-3.4zm.2-3.3h3.4v.6h-3.4zm0 13h3.4v.6h-3.4zm0 9.5h3.4v.6h-3.4zm.1 9.1h3.4v.6h-3.4zm.1-25.1h3.4v.6h-3.4zm0 3.2h3.4v.6h-3.4zm0 9.5h3.4v.6h-3.4zm.1 9.1h3.4v.6h-3.4zm.2-12.1H89v.6h-3.4zm0 9.4H89v.6h-3.4zm.1 9.1h3.4v.6h-3.4zm4.8-21.4h3.4v.6h-3.4zm0 9.5h3.4v.6h-3.4zm0 9.1h3.4v.6h-3.4zm.2-28h3.4v.6h-3.4zm0 2.9h3.4v.6h-3.4zm0 3.2h3.4v.6h-3.4zm0 9.5h3.4v.6h-3.4zm.1 9.1h3.4v.6h-3.4zm.2-12.1h3.4v.6H91zm0 9.4h3.4v.6H91zm0 9.1h3.4v.6H91zm5.1-6.6h3.4v.6h-3.4zm0 3.4h3.4v.6h-3.4zm.2-27.9h3.4v.6h-3.4zm0 21.9h3.4v.6h-3.4zm4.7-30.2h.9V59h-.9zm1.5 0h.9V59h-.9zm1.4 0h.9V59h-.9z"/>
</svg>
