<?xml version='1.0' encoding='UTF-8'?>
<svg version="1.1" id="Female-Body" xmlns="http://www.w3.org/2000/svg" xmlns:serif="http://www.serif.com/" viewBox="0 -55 170 310" style="fill-rule: evenodd; stroke-width: 0.2px; stroke-linejoin: round;" width="510" height="930">
<style>
mask {
mask-type: alpha;
}
.decal {
stroke: none;
}
</style>
<defs id="Masks" stroke="none">
<mask id="HelmetsMask"> <use href="#Helmets"/> </mask>
<mask id="CollarMask"> <use href="#Collar"/> </mask>
<mask id="ShouldersMask"> <use href="#Shoulders"/> </mask>
<mask id="ChestMask"> <use href="#Chest"/> </mask>
<mask id="BicepsMask"> <use href="#Biceps"/> </mask>
<mask id="GauntletsMask"> <use href="#Gauntlets"/> </mask>
<mask id="WaistMask"> <use href="#Waist"/> </mask>
<mask id="GroinMask"> <use href="#Groin"/> </mask>
<mask id="ThighsMask"> <use href="#Thighs"/> </mask>
<mask id="KneesMask"> <use href="#Knees"/> </mask>
<mask id="ShinsMask"> <use href="#Shins"/> </mask>
<mask id="FootMask"> <use href="#Foot"/> </mask>
</defs>
<defs id="Decals"/><metadata><rdf:rdf xmlns:rdf="http://www.w3.org/1999/02/22-rdf-syntax-ns#" xmlns:rdfs="http://www.w3.org/2000/01/rdf-schema#" xmlns:dc="http://purl.org/dc/elements/1.1/"><rdf:description><dc:creator>MandoCreator</dc:creator><dc:publisher>https://www.mandocreator.com</dc:publisher><dc:description>Your Beskar'gam - created by MandoCreator</dc:description><dc:format>image/svg+xml</dc:format><dc:type>Image</dc:type><dc:title>MandoCreator - Ner Berskar'gam</dc:title><dc:date>2022-03-14T14:36:25.446Z</dc:date></rdf:description></rdf:rdf></metadata><g id="Main-Body" fill="white" stroke="black">
<g id="Extras_Back">
<g id="Back"><path id="Short-Cape-Left_Back" class="option" d="M105.04,24.14c-1.39-3.84-2.58-7.68-2.58-7.68 c0.49-1.06,4.22-1.03,5.27-0.96c2.44,0.15,5.88,1.25,7.37,3.05c0.85,1.02,2.59,1.08,3.17,2.33c0.04,0.1,0.57,1.14,0.52,1.19 c-0.01,0.01,0.3,2.11,0.65,4.57c2.48,1.96,4.71,4.55,6.2,7.57c3.78,7.61,7.54,16.19,10.46,24.36c2.49,6.96,6.7,13.77,9.27,20.63 c2.91,7.76,4.29,13.2,6.81,21.11c2.59,8.16,5.79,15.45,10.62,21.43c1.9,2.35,5.03,4.34,6.27,7.43c0.13,0.32,1.2,3.3,1.17,3.31 c-0.91,0.41-2.34,0.08-3.31,0.09c-3.83,0.05-11.85-4.4-15.42-2.63c-4.6,2.28-4.1,11.31-8.37,14.39 c-4.44,3.2-11.97-4.69-17.06-4.71c-4.69-0.01-3.56,12.34-7.68,14.87c-1.27,0.78-9.64,0.94-9.59,0.71c0.54-2.53,1.43-9.03,0.5-16.2 c-1.16-9.03-1.38-15.16-2.43-24.21c-0.7-6.05-0.14-9.16-1.41-15.08c-1.41-6.58-0.75-14.14-2.53-20.59 c-1.76-6.36-1.15-13.69-2.26-20.31c-1.76-10.49-0.25-29.95,4.24-34.54C104.96,24.21,105,24.17,105.04,24.14z" fill="#4F4F4F"/></g>
</g>
<g id="Extras-BackDecals" mask="url(#BackMask)">
</g>
<g id="Suit">
<g id="Neck-Seal"><g id="Standard-Neck-Seal" class="option" fill="#242424">
<path d="M95.96,3.46c0-0.93-0.74-1.69-1.65-1.69c0,0-6.22,0.89-9.33,0.89c-3.11,0-9.33-0.89-9.33-0.89 c-0.91,0-1.65,0.76-1.65,1.69c0,0.93,0.74,1.69,1.65,1.69c0,0,6.22,0.89,9.33,0.89c3.11,0,9.33-0.89,9.33-0.89 C95.22,5.15,95.96,4.39,95.96,3.46z"/>
<path d="M96.51,5.43c0-0.98-0.78-1.77-1.73-1.77c0,0-6.53,0.93-9.8,0.93s-9.8-0.93-9.8-0.93 c-0.96,0-1.73,0.79-1.73,1.77c0,0.98,0.78,1.77,1.73,1.77c0,0,6.53,0.93,9.8,0.93s9.8-0.93,9.8-0.93 C95.74,7.21,96.51,6.41,96.51,5.43z"/>
<path d="M97.14,7.88c0-1.03-0.82-1.87-1.83-1.87c0,0-6.89,0.98-10.33,0.98c-3.44,0-10.33-0.98-10.33-0.98 c-1.01,0-1.83,0.84-1.83,1.87s0.82,1.87,1.83,1.87c0,0,6.89,0.98,10.33,0.98c3.44,0,10.33-0.98,10.33-0.98 C96.32,9.75,97.14,8.91,97.14,7.88z"/>
<path d="M97.75,10.13c0-1.08-0.86-1.96-1.92-1.96c0,0-7.23,1.03-10.85,1.03c-3.62,0-10.85-1.03-10.85-1.03 c-1.06,0-1.92,0.88-1.92,1.96c0,1.08,0.86,1.96,1.92,1.96c0,0,7.23,1.03,10.85,1.03c3.62,0,10.85-1.03,10.85-1.03 C96.89,12.09,97.75,11.21,97.75,10.13z"/>
<path d="M98.36,12.33c0-0.82-0.9-1.48-2.01-1.48c0,0-7.58,0.78-11.36,0.78s-11.36-0.78-11.36-0.78 c-1.11,0-2.01,0.66-2.01,1.48c0,0.82,0.9,1.48,2.01,1.48c0,0,7.58,0.78,11.36,0.78s11.36-0.78,11.36-0.78 C97.46,13.81,98.36,13.14,98.36,12.33z"/>
<path d="M98.36,14.8c0-0.82-0.9-1.48-2.01-1.48c0,0-7.58,0.78-11.36,0.78s-11.36-0.78-11.36-0.78 c-1.11,0-2.01,0.66-2.01,1.48c0,0.82,0.9,1.48,2.01,1.48c0,0,7.58,1.5,11.36,1.5s11.36-1.5,11.36-1.5 C97.46,16.28,98.36,15.62,98.36,14.8z"/>
</g>
</g>
<g id="Flight-Suit" fill="#242424">
<path d="M38.1,60.17l5.2-18.8l12.15-8.13l1.9,16.49c0,0-5.25,9.95-7.06,14.51c-1.86,4.7-5.09,15.42-5.5,16.81 l-2.88,24.91l-8.36-2.66c0,0-0.3-17.29,0.46-24.47C34.68,72.42,38.1,60.17,38.1,60.17z"/>
<path d="M131.9,60.17l-5.22-18.86l-12.06-8.07l-1.92,16.59c0,0,5.2,9.85,7.01,14.41c1.86,4.7,5.09,15.42,5.5,16.81 l2.88,24.91l8.36-2.66c0,0,0.3-17.29-0.46-24.47C135.32,72.42,131.9,60.17,131.9,60.17z"/>
<path d="M84.99,113.44c-1.03,0.1-1.95,0.5-2.29,1.22c-3,6.3-9.17,35.13-10.95,40.44c-0.97,2.89-1.74,18.7-3.38,27.92 c-1.96,11.01-8.39,38.11-8.39,38.11l-11.15-1.15c0,0-1.44-27.22-1.04-37.12c0.3-7.53,3.42-22.31,3.42-22.31s0.67-5.4,0.69-8.12 c0.06-9.82,0.93-31.66,2.88-44.2C56.3,98.31,65.7,77.5,65.7,77.5s12.18,4.76,19.34,4.76c7.16,0,19.44-4.86,19.44-4.86 s8.88,20.92,10.42,30.83c1.95,12.54,3.24,34.38,3.3,44.2c0.02,2.72,0.69,8.12,0.69,8.12s3.12,14.79,3.42,22.31 c0.4,9.91-1.04,37.12-1.04,37.12l-11.15,1.15c0,0-6.43-27.1-8.39-38.11c-1.64-9.22-2.41-25.03-3.38-27.92 c-1.78-5.31-7.96-34.13-10.95-40.44c-0.35-0.73-1.3-1.14-2.34-1.23L84.99,113.44z"/>
</g>
<g id="Sleeves" class="toggle" fill="#242424">
<path d="M41.92,41.42l0.81,0.34l12.73-8.52c0,0,0.36,8.98,1.42,14.37c0.15,0.75,0.37,1.69,0.64,2.79l-1.69,5.45 c0,0-5.75-2.25-8.27-3.72C45.11,50.7,40.7,47,40.7,47L41.92,41.42z"/>
<path d="M112.55,50.4c0.28-1.1,0.5-2.04,0.64-2.79c1.06-5.39,1.42-14.37,1.42-14.37l12.73,8.52l0.81-0.34l1.22,5.58 c0,0-4.4,3.7-6.85,5.13c-2.52,1.48-8.28,3.72-8.28,3.72L112.55,50.4z"/>
</g>
</g>
<g id="Boots">
<g id="Tall_Boots" class="option">
<g id="Bottom_Tall-Boot" fill="#171717">
<path d="M62.38,229.28c-0.02,0.13-0.05,0.27-0.09,0.42c-0.88,1.83-3.26,2.46-4.9,2.9c-1.16,0.31-2.28,0.75-3.37,1.27 c-1.51,0.73-2.27,2-3.44,3.22c-0.52,0.54-1.15,0.96-1.75,1.38c-1.5,1.03-2.95,1.11-4.66,1.16c-2.29,0.07-4.32-0.28-6.58-0.85 c-1.98-0.5-3.45-0.92-5.16-1.47c-0.51-0.17-1.14-0.28-1.44-0.71l-0.26,0.65l-0.19,1.7c0,0,1.85,1.13,3.82,1.63 c1.97,0.5,5.94,1.2,5.94,1.2l0.27-0.74l0.89,0.21l-0.04,0.73l2.16,0.14l0.46-0.71l0.72,0.02l-0.11,0.63c0,0,1.34-0.02,2.08-0.53 c0.14-0.24,0.41-0.63,0.41-0.63l0.51-0.32l-0.07,0.6l1.86-0.76l0.09-0.82l0.54-0.36l0.02,0.6l1.33-1.17l0.14-0.72l2.85-1.7 l0.97,0.44l2.32-0.57l0.08-0.57l0.59-0.28l0.41,0.43l1.56-0.73l0.03-0.53l0.51-0.2l0.06,0.38l1.48-1.16L62.38,229.28z M62.44,228.61L62.44,228.61L62.44,228.61L62.44,228.61z"/>
<path d="M107.68,229.28c0.02,0.13,0.05,0.27,0.09,0.42c0.88,1.83,3.26,2.46,4.9,2.9c1.15,0.31,2.28,0.75,3.37,1.27 c1.51,0.73,2.27,2,3.44,3.22c0.52,0.54,1.15,0.96,1.75,1.38c1.5,1.03,2.95,1.11,4.66,1.16c2.29,0.07,4.32-0.28,6.58-0.85 c1.98-0.5,3.45-0.92,5.16-1.47c0.51-0.17,1.14-0.28,1.44-0.71l0.26,0.65l0.19,1.7c0,0-1.85,1.13-3.82,1.63 c-1.97,0.5-5.94,1.2-5.94,1.2l-0.27-0.74l-0.89,0.21l0.04,0.73l-2.16,0.14l-0.46-0.71l-0.72,0.02l0.11,0.63 c0,0-1.34-0.02-2.08-0.53c-0.14-0.24-0.41-0.63-0.41-0.63l-0.51-0.32l0.07,0.6l-1.86-0.76l-0.09-0.82l-0.54-0.36l-0.02,0.6 l-1.33-1.17l-0.14-0.72l-2.85-1.7l-0.97,0.44l-2.32-0.57l-0.08-0.57l-0.59-0.28l-0.41,0.43l-1.56-0.73l-0.03-0.53l-0.51-0.2 l-0.06,0.38l-1.48-1.16L107.68,229.28z M107.62,228.61L107.62,228.61L107.62,228.61L107.62,228.61z"/>
</g>
<g id="Main_Tall-Boot" fill="#363534">
<path d="M62.37,215.4c1.32-4.39,2.31-11.41,3.1-14.61c0.59-2.4,3.31-15.44,2.86-17.08 c-0.45-1.66-20.1-4.93-20.66-3.44c-0.86,2.29,0.36,24.81,0.21,28.13c-0.11,2.44,0.19,7.55,0.19,7.55 c-0.23,1.33-0.42,2.76-0.9,3.96c-0.91,2.25-1.49,2.97-3.03,4.68c-1.06,1.17-3.06,3.14-4.32,4.03c-0.53,0.38-2.39,1.74-2.39,1.74 c-2.32,0.98-4.88,0.64-6.14,3.55c-0.27,0.64-0.51,1.4-0.46,2.12c0.06,0.92,0.94,1.05,1.63,1.27c1.71,0.55,3.18,0.97,5.16,1.47 c2.26,0.58,4.29,0.93,6.58,0.85c1.71-0.05,3.16-0.13,4.66-1.16c0.6-0.41,1.23-0.83,1.75-1.38c1.17-1.22,1.93-2.49,3.44-3.22 c1.09-0.53,2.21-0.96,3.37-1.27c1.63-0.44,4.02-1.06,4.9-2.9c0.34-1.38-0.01-2.06-0.12-3.24l-0.05-0.51 c-0.09-0.77-0.21-1.56-0.25-2.4c-0.07-1.6,0.28-3.18,0.37-4.77c0.05-0.9,0.09-1.81,0.11-2.71 C62.36,215.96,62.39,215.62,62.37,215.4z"/>
<path d="M107.7,215.4c-1.32-4.39-2.31-11.41-3.1-14.61c-0.59-2.4-3.31-15.44-2.86-17.08 c0.45-1.66,20.1-4.93,20.66-3.44c0.86,2.29-0.36,24.81-0.21,28.13c0.11,2.44-0.19,7.55-0.19,7.55c0.23,1.33,0.42,2.76,0.9,3.96 c0.91,2.25,1.49,2.97,3.03,4.68c1.06,1.17,3.06,3.14,4.32,4.03c0.53,0.38,2.39,1.74,2.39,1.74c2.32,0.98,4.88,0.64,6.15,3.55 c0.27,0.64,0.51,1.4,0.46,2.12c-0.06,0.92-0.94,1.05-1.63,1.27c-1.71,0.55-3.18,0.97-5.16,1.47c-2.26,0.58-4.29,0.93-6.58,0.85 c-1.71-0.05-3.16-0.13-4.66-1.16c-0.61-0.41-1.23-0.83-1.75-1.38c-1.18-1.22-1.94-2.49-3.44-3.22c-1.09-0.53-2.21-0.96-3.37-1.27 c-1.63-0.44-4.02-1.06-4.9-2.9c-0.34-1.38,0.01-2.06,0.12-3.24l0.05-0.51c0.09-0.77,0.21-1.56,0.25-2.4 c0.07-1.6-0.28-3.18-0.37-4.77c-0.05-0.9-0.09-1.81-0.11-2.71C107.71,215.96,107.68,215.62,107.7,215.4z"/>
</g>
</g></g>
<g id="Gloves">
<g id="Left-Glove"><g id="Basic_Left_Glove" class="option" fill="#363534">
<path d="M133.16,120.46c-0.46-0.03-0.9-0.01-1.36,0.09c-0.31,0.07-0.62,0.16-0.9,0.34 c-0.85,0.55-0.62,1.76,0.14,2.21c0.89,0.53,2.29,0.01,2.69-1.02C133.9,121.66,133.39,120.86,133.16,120.46"/>
<path d="M131.6,121.51c-0.46-0.02-0.9-0.02-1.36,0.09c-0.31,0.07-0.62,0.16-0.9,0.34c-0.85,0.55-0.62,1.76,0.14,2.21 c0.89,0.53,2.29,0.01,2.69-1.02C132.34,122.71,131.83,121.91,131.6,121.51"/>
<path d="M130.49,122.93c-0.46,0.05-1.02,0.12-1.46,0.3c-0.3,0.12-0.59,0.25-0.85,0.47c-0.78,0.68-0.4,1.83,0.4,2.17 c0.94,0.39,2.27-0.34,2.55-1.42C131.24,124.01,130.49,122.93,130.49,122.93z"/>
<path d="M127.97,106.79c0,0-1.34,2.09-1.69,3.59c-0.25,1.06-0.11,3.58-0.43,5.28c-0.31,1.7-0.59,2.64-0.59,2.64 s-1.18,2.71-0.98,3.34c0.21,0.62,1.25,1.18,1.84,0.85c0.74-0.41,1.66-2.32,2.24-3.67c0.59-1.37,1.08-3.32,1.08-3.32 s0.81,0.32,1.23,0.68c1.38,1.2,0.78,4.82,0.78,4.82s-0.57,1.29-1.43,2.75c-1.17,1.99-2.97,3.7-1.78,5.22 c1.11,1.42,3.63-2.31,3.63-2.31l2.47-3.62c0,0,2.84-5.26,2.98-6.28c0.11-0.78,0.01-3.38,0.01-3.38l-0.89-10.08l-4.5,0.42 l-3.7,1.36L127.97,106.79"/>
</g>
</g>
<g id="Right-Glove"><g id="Basic_Right_Glove" class="option" fill="#363534">
<path d="M36.86,120.46c0.46-0.03,0.9-0.01,1.36,0.09c0.31,0.07,0.62,0.16,0.9,0.34c0.85,0.55,0.62,1.76-0.14,2.21 c-0.89,0.53-2.29,0.01-2.69-1.02C36.12,121.66,36.64,120.86,36.86,120.46"/>
<path d="M38.42,121.51c0.46-0.02,0.9-0.02,1.36,0.09c0.31,0.07,0.62,0.16,0.9,0.34c0.85,0.55,0.62,1.76-0.14,2.21 c-0.89,0.53-2.29,0.01-2.69-1.02C37.68,122.71,38.2,121.91,38.42,121.51"/>
<path d="M39.54,122.93c0.46,0.05,1.02,0.12,1.46,0.3c0.3,0.12,0.6,0.25,0.85,0.47c0.78,0.68,0.4,1.83-0.4,2.17 c-0.94,0.39-2.27-0.34-2.55-1.42C38.78,124.01,39.54,122.93,39.54,122.93z"/>
<path d="M42.06,106.79c0,0,1.34,2.09,1.69,3.59c0.25,1.06,0.11,3.58,0.43,5.28c0.31,1.7,0.59,2.64,0.59,2.64 s1.18,2.71,0.98,3.34c-0.21,0.62-1.24,1.18-1.84,0.85c-0.74-0.41-1.66-2.32-2.24-3.67c-0.59-1.37-1.08-3.32-1.08-3.32 s-0.81,0.32-1.23,0.68c-1.38,1.2-0.78,4.82-0.78,4.82s0.57,1.29,1.43,2.75c1.17,1.99,2.97,3.7,1.78,5.22 c-1.11,1.42-3.63-2.31-3.63-2.31l-2.47-3.62c0,0-2.84-5.26-2.98-6.28c-0.11-0.78-0.01-3.38-0.01-3.38l0.89-10.08l4.5,0.42 l3.7,1.36L42.06,106.79"/>
</g>
</g>
</g>
<g id="Biceps">
<g id="Left-Biceps"><g id="Full-Band_Biceps_Left" class="option">
<path id="Main_Full-Band_Biceps_Left" d="M113.29,54.73l-0.74-2.02l-3.43-10.67c0,0,12.7-4.29,16.3-5.51 c0.52-0.18,1.09,0.09,1.29,0.6c1.1,2.89,4.43,11.57,4.43,11.57L113.29,54.73" fill="#2BDAE3"/>
<g id="Trim_Full-Band_Biceps_Left" fill="#B04AD4">
<path d="M127.36,44.91c0.97,0,1.75,0.75,1.75,1.68c0,0.93-0.78,1.68-1.75,1.68c-0.97,0-1.75-0.75-1.75-1.68 C125.61,45.66,126.39,44.91,127.36,44.91"/>
<path d="M131.14,48.72l0.41,1.12c0.12,0.31,0.1,0.66-0.05,0.96c-0.15,0.3-0.41,0.53-0.72,0.63 c-3.28,1.1-12.3,4.12-15.5,5.2c-0.64,0.21-1.33-0.12-1.57-0.75l-0.42-1.15L131.14,48.72"/>
</g>
</g></g>
<g id="Right-Biceps"><g id="Full-Band_Biceps_Right" class="option">
<path id="Main_Full-Band_Biceps_Right" d="M56.78,54.73l0.74-2.02l3.43-10.67c0,0-12.7-4.29-16.3-5.51 c-0.52-0.18-1.09,0.09-1.29,0.6c-1.1,2.89-4.43,11.57-4.43,11.57L56.78,54.73" fill="#2BDAE3"/>
<g id="Trim_Full-Band_Biceps_Right" fill="#B04AD4">
<path d="M42.71,44.91c-0.97,0-1.75,0.75-1.75,1.68c0,0.93,0.79,1.68,1.75,1.68c0.97,0,1.75-0.75,1.75-1.68 C44.47,45.66,43.68,44.91,42.71,44.91"/>
<path d="M38.93,48.72l-0.41,1.12c-0.11,0.31-0.1,0.66,0.05,0.96s0.41,0.53,0.72,0.63c3.28,1.1,12.3,4.12,15.51,5.2 c0.64,0.21,1.33-0.12,1.56-0.75l0.42-1.15L38.93,48.72"/>
</g>
</g></g>
</g>
<g id="BicepsDecals" mask="url(#BicepsMask)">
</g>
<path id="Vest" d="M91.61,82.96c-4.3,0.88-8.84,0.88-13.14,0c-4.33-0.88-12.83-5.29-12.83-5.29s-7.42-23.26-8.75-30.06 c-1.06-5.39-1.42-14.37-1.42-14.37l-12.73,8.52l-2.71-1.15c0,0,7.62-16.73,12.62-21.57c4.53-4.39,17.42-7.5,17.42-7.5 s5.68,6.2,14.97,6.25c8.84,0.04,14.97-6.25,14.97-6.25s12.89,3.12,17.42,7.5c5.01,4.85,12.62,21.57,12.62,21.57l-2.71,1.15 l-12.73-8.52c0,0-0.36,8.98-1.42,14.37c-1.33,6.79-8.76,30.06-8.76,30.06S95.93,82.08,91.61,82.96z" fill="#363534"/>
<g id="SuitDecals" mask="url(#SuitMask)">
</g>
<g class="swappable" id="Chest"><g id="Chest_Galaxy">
<g id="Abdomen_Galaxy">
<path id="Abdomen-Plate_Galaxy" d="M78.22,70.87l-2.02,1.46l-10.28-1.46l-0.75-5.65l4.87-0.1l2.95-4.79l1.34-4.41 l10.66-9.7L85,46.24l0.02-0.02l10.66,9.7l1.34,4.41l2.95,4.79l4.87,0.1l-0.75,5.65L93.8,72.33l-2.02-1.46H78.22z" fill="#B04AD4"/>
<path id="Trauma-Plate_Abdomen_Galaxy" class="toggle" style="" d="M84.98,48.45l-9.21,8.38l-1.27,4.18l-3.53,5.74l-3.92,0.08 l0.34,2.59l8.37,1.19l1.91-1.38h14.64l1.91,1.38l8.37-1.19l0.34-2.59l-3.92-0.08l-3.53-5.74l-1.27-4.18l-9.21-8.38L85,48.47 L84.98,48.45z" fill="#2BDAE3"/>
</g>
<g id="Full-Chest_Galaxy">
<path id="Chest-Plate_Galaxy" d="M80.72,32.14l-0.02,9.88l3.12,3.14L72.88,55.48l-1.42,4.76l-2.32,3.79h-4.01 l-1.95-2.83L60.7,47.37l-3.63-5.65l4.61-14.81l5.31-0.67l0.75-3.27l5.69-0.69l1.8,2.92h19.57l1.8-2.92l5.69,0.69l0.75,3.27 l5.31,0.67l4.61,14.81l-3.63,5.65l-2.48,13.84l-1.95,2.83h-4.01l-2.32-3.79l-1.42-4.76L86.18,45.16l3.12-3.14l-0.02-9.88 L85,28.83L80.72,32.14z" fill="#B04AD4"/>
<path id="Trauma-Plating_Left-Chest_Galaxy" class="toggle" style="" d="M95.71,26.84H85.12l5.81,4.5l0.02,11.36l-2.42,2.42 l10.04,9.47l1.49,4.98l1.73,2.82H104l1.25-1.82l2.47-13.81l3.4-5.29l-4.06-13.06l-5.4-0.68l-0.75-3.27l-3.48-0.42L95.71,26.84z" fill="#2BDAE3"/>
<path id="Trauma-Plating_Right-Chest_Galaxy" class="toggle" style="" d="M72.56,24.04l-3.48,0.42l-0.75,3.27l-5.4,0.68 l-4.07,13.06l3.4,5.29l2.47,13.81L66,62.39h2.21l1.73-2.82l1.49-4.98l10.04-9.47l-2.42-2.42l0.02-11.36l5.81-4.5H74.29 L72.56,24.04z" fill="#2BDAE3"/>
<g id="Accents_Chest-Plate_Galaxy" class="toggle" fill="#B04AD4">
<rect x="95.82" y="30" width="9.01" height="1.19"/>
<rect x="95.82" y="32.1" width="9.01" height="1.19"/>
</g>
</g>
<g id="Iron-Heart_Galaxy">
<path id="Heart_Galaxy" d="M82.38,41.74v-8.89L85,30.8l2.62,2.05v8.89L85,44.38L82.38,41.74z" fill="#B04AD4"/><rect id="Center_Heart_Galaxy" class="option" x="84.09" y="34.21" width="1.82" height="6.09" fill="#2BDAE3"/>
</g>
<g id="Neck-Armor_Galaxy">
<g id="Neck-Plate_Galaxy" fill="#B04AD4">
<path d="M82.81,24.23l-7.2,0.12l-1.77-2.89l-6.87,0.81l-0.68,2.99l-4.4,0.54l-3.24-11.12l11.25-3.35 c0,0,1.49,2.51,2.57,3.39c1.11,0.91,2.59,1.97,3.98,2.57c1.52,0.66,3.37,1.1,5.13,1.39c0.18,0.03,0.37,0.06,0.57,0.08 L82.81,24.23z"/>
<path d="M87.19,24.23l7.2,0.12l1.77-2.89l6.87,0.81l0.68,2.99l4.4,0.54l3.25-11.12l-11.25-3.35 c0,0-1.49,2.51-2.57,3.39c-1.11,0.91-2.59,1.97-3.98,2.57c-1.52,0.66-3.37,1.1-5.13,1.39c-0.18,0.03-0.37,0.06-0.57,0.08 L87.19,24.23z"/>
</g>
<g id="Trauma-Plates_Neck_Galaxy" class="toggle" style="display:none"/>
</g>
</g></g>
<g id="ChestDecals" mask="url(#ChestMask)">
</g>
<g id="Chest-Attachments"><g id="No-Device_Accessories_Chest" class="option">
</g>
</g>
<g id="Collar"><g id="Cloth-Wrap-Right_Collar" class="option">
<g id="Main_Cloth-Wrap-Right_Collar" fill="#4F4F4F">
<path d="M95.41,21.42c4.65-1.45,5.5-3.78,5.78-6.13c0.11-0.96-1.26-3.46,0.16-4.1c1.61-0.73,5.4,0.41,6.97,0.75 c1.16,0.25,2.19,1.42,3.38,1.43c2.74,0.03,4.91,3,5.16,4.36c0.35,1.9-3.04,0.56-4.62,2c-3.96,3.61-5.34,8.5-13.67,9.83 c-3.82,0.61-7.61-0.25-11.16-1.04c-9.17-2.03-14.17-3.78-20.06-8.31c-2.58-1.98-6.47-3.59-6.37-6.24c0-0.11,1.88-1.22,2.06-1.27 c1.65-0.41,3.06-1.09,4.88-1.12c1.09-0.02,0.91,0.91,0.99,1.34c0.31,1.62,1.79,2.84,3.66,4.05 C77.47,20.18,88.67,21.17,95.41,21.42z"/>
<path d="M95.41,21.42c1.23,0.05,2.31,0.24,3.25,0.29c4.26,0.26,5.78-0.77,6.6-2.66"/>
<path d="M108.64,11.99c1.23,1.99,1.07,4.34,0.09,5.89"/>
<path d="M72.93,17.68c3.19,4.34,7.92,5.71,13.09,6.23"/>
<path d="M64.3,12.34c0.19,1.1,0.85,1.51,1.66,2.24c0.47,0.43,1.04,0.73,1.41,1.25c0.14,0.19,0.21,0.41,0.29,0.62"/>
</g>
<path id="Buckle_Cloth-Wrap-Right_Collar" d="M74.02,16.86l-2.71-1.93l-4.71,6.53l2.71,1.93L74.02,16.86z" fill="#BABABA"/>
</g></g>
<g id="CollarDecals" mask="url(#CollarMask)">
</g>
<g id="Helmets" class="swappable" transform="translate(45,-62)"><g id="Helmet_Nite">
<g id="Left-Earcap_Nite" class="toggle"><g id="Ear-Cap_Left_Nite" fill="#B04AD4">
<path d="m59.84 67.03 1.74-2.57-1.74-17.79-2.43-1.53 2.43 21.89zM58.06 51.39l2.01-2.08"/>
</g>
</g>
<g id="Right-Earcap_Nite" class="toggle"><g id="Range-Finder_Right_Nite" class="option" style="">
<path id="Shaft_Right_Range-Finder_Nite" d="m22.48 19.72 1.08.07-1.61 26.85h-1.1l1.63-26.92z" fill="#4F4F4F"/>
<path id="Finder_Right_Range-Finder_Nite" d="M30.81 17.56h-5.96l.24-.74 6.96-.65-1.24 1.39" fill="#4F4F4F"/>
<g id="Cover_Right_Range-Finder_Nite" fill="#B04AD4">
<path d="m21.62 18.59 2.84.19.63-1.96 7.48-.7.15-.76-10.68-.4L21 16.27l.62 2.32"/>
<path d="m22.38 18.64 1.41.09-.07 1.07-1.4-.09.06-1.07"/>
</g>
</g>
<g id="Ear-Cap_Right_Nite" fill="#B04AD4">
<path d="m20.16 67.03-1.74-2.57 1.74-17.79 2.43-1.53-2.43 21.89zM21.94 51.39l-2.01-2.08"/>
</g>
</g>
<g id="Helmet_Pieces_Nite">
<g id="Face_Nite" fill="#B04AD4">
<path d="M21.29 54.96c.19.1 5.02 2.58 7.67 6.1a66.06 66.06 0 0 1 7.92 14.48 14.85 14.85 0 0 1-3.61-.5c-2.92-1.15-11.16-6.36-11.16-6.36L20 67.03l1.29-12.07M58.71 54.96c-.19.1-5.02 2.58-7.67 6.1a66.06 66.06 0 0 0-7.92 14.48c1.63-.09 2.99-.26 3.61-.5 2.92-1.15 11.16-6.36 11.16-6.36l2.1-1.65-1.28-12.07"/>
</g>
<g id="Cheeks_Nite" fill="#2BDAE3">
<path d="m21.29 54.96.47-4.31s5.36 3.23 7.18 4.92c1.82 1.69 4.36 4.31 4.93 6.76l3.11 13.24h-.11l-.02-.03h.02c-.31-.82-3.19-8.2-7.92-14.48-2.55-3.41-7.19-5.86-7.66-6.1M58.71 54.96l-.47-4.31s-5.36 3.23-7.18 4.92c-1.82 1.69-4.36 4.31-4.93 6.76l-3.11 13.24h.11l.02-.03h-.02c.31-.82 3.19-8.2 7.92-14.48 2.55-3.41 7.19-5.86 7.66-6.1"/>
</g>
<path fill="#E40CDD" id="Visor_Nite" d="m38.82 75.56-2.25-22.02s-4.08-.37-5.95-.72c-4.58-.87-7.52-4.59-7.52-4.59s5.19-.47 7.8-.19c7.06.75 7.9 4 9.1 5.2 1.2-1.2 2.04-4.45 9.1-5.2 2.62-.28 7.8.19 7.8.19s-2.94 3.72-7.52 4.59c-1.87.35-5.95.72-5.95.72l-2.25 22.02h-2.36"/>
<path id="Eyes_Nite" d="M40 46.61s6.5-.05 9.19-.22c2.86-.18 8.54-.47 8.54-.47l.51 4.73s-5.36 3.23-7.18 4.92c-1.82 1.69-4.36 4.31-4.93 6.76l-3.11 13.24h-1.83l2.25-22.02s4.08-.37 5.95-.72c4.58-.87 7.52-4.59 7.52-4.59s-5.18-.47-7.8-.19c-7.06.75-7.9 4-9.1 5.2-1.2-1.2-2.04-4.45-9.1-5.2-2.62-.28-7.8.19-7.8.19s2.94 3.72 7.52 4.59c1.87.35 5.95.72 5.95.72l2.25 22.02H37l-3.11-13.24c-.57-2.46-3.11-5.07-4.93-6.76-1.82-1.69-7.18-4.92-7.18-4.92l.51-4.73s5.68.29 8.54.47c2.67.17 8.1.21 9.17.22" fill="#B04AD4"/>
<path id="Dome_Nite" d="M22.3 45.92h-.02v-.11c.06-9.26 7.87-16.79 17.54-16.97h.36c9.68.19 17.48 7.71 17.55 16.97v.11c-.4.02-5.77.3-8.52.47-2.69.17-8.12.21-9.19.22-1.07-.01-6.5-.05-9.19-.22-2.85-.18-8.53-.47-8.53-.47z" fill="#2BDAE3"/>
</g>
</g></g>
<g id="HelmetsDecals" mask="url(#HelmetsMask)"/>
<g id="Shoulders">
<g id="Left-Shoulder"><g id="Gunslinger-Bell_Shoulder_Left" class="option">
<path id="Main_Gunslinger-Bell_Shoulder_Left" d="M110.74,13.82c6.4-0.15,20.68,4.95,20.11,23.11l-0.08,3.59 l-12.44,5.07L107.43,31.1l0-17.28L110.74,13.82z" fill="#2BDAE3"/>
<path id="Ridge_Gunslinger-Bell_Shoulder_Left" class="toggle" d="M107.43,13.82L107.43,13.82l0-2.1 c13.61-0.07,26.49,5.76,25.51,28.19l-2.09,0.49c-0.02-0.26-0.04-0.53-0.06-0.78l0.06-2.69c0.57-18.16-13.71-23.26-20.11-23.11 h-0.7C108.62,13.62,107.66,13.67,107.43,13.82L107.43,13.82L107.43,13.82z" fill="#B04AD4"/>
<g id="Trim_Gunslinger-Bell_Shoulder_Left" class="toggle" fill="#B04AD4">
<rect x="107.43" y="13.01" width="3.31" height="18.12"/>
<path d="M110.74,30.01l-3.31,1.09l10.92,14.51l2.65-1.97L110.74,30.01z"/>
<path d="M119.45,41.58l-1.16,4.03l13.06-5.33v-3.56L119.45,41.58z"/>
</g>
</g></g>
<g id="Right-Shoulder"><g id="Classic_Shoulder_Right" class="option">
<path id="Main_Shoulder_Classic_Right" d="M54.88,13.78l2.62,11.77l-2.09,6.77l-14.01,7.05l-2.36-3.6L54.88,13.78z " fill="#2BDAE3"/>
<path id="Trauma-Plates_Shoulder_Classic_Right" class="toggle" style="display:none" d="M55.67,25.47l-1.74,5.62l-11.93,6l-2.02-3.08 l13.43-18.68L55.67,25.47z"/>
</g>
</g>
</g>
<g id="ShouldersDecals" mask="url(#ShouldersMask)">
</g>
<g id="Gauntlets">
<g id="Left-Gauntlets"><g id="Basic_Gauntlet_Left" class="option">
<path id="Top-2_Basic_Gauntlet_Left" d="M140.21,108.05l1.6-2.13l-2.46-19.29l-0.86,2.24l1.2,8.8l-0.93,2.08 L140.21,108.05z" fill="#B04AD4"/>
<path id="Top-1_Basic_Gauntlet_Left" d="M139.34,86.62l-0.86,2.24l1.2,8.8l-0.93,2.08l1.45,8.31l-1.05,1.41 l0.05,5.31l-1.66,0.29l-1.54-8.11l-1.47-0.68l-5.06-23.8l9.3-0.21L139.34,86.62z" fill="#2BDAE3"/>
<g id="Accent-Bottom_Basic_Gauntlet_Left" fill="#B04AD4">
<path d="M125.39,89.15l-2.1,0.5l0.75,3.1l2.09-0.5L125.39,89.15z"/>
<path d="M126.69,94.58l-2.09,0.5l0.75,3.1l2.1-0.5L126.69,94.58z"/>
<path d="M128.05,100.14l-2.1,0.5l0.75,3.1l2.1-0.5L128.05,100.14z"/>
</g>
<path id="Bottom_Basic_Gauntlet_Left" d="M123.31,89.65l-0.57-2.36l6.82-4.44l4.97,23.41l-7.08,0.7l-2.1-8.77 l2.09-0.5l-0.75-3.1l-2.08,0.5l-0.56-2.33l2.09-0.5l-0.75-3.1L123.31,89.65z M128.05,100.14l-2.1,0.51l0.74,3.1l2.11-0.51 L128.05,100.14z" fill="#2BDAE3"/>
<g id="Whistling-Birds_Attachment_Basic_Gauntlet_Left" class="option">
<path id="Head_Whistling-Birds_Attachment_Basic_Gauntlet_Left" d="M144.04,98.03l-2.48,5.64l-0.67-5.24 L144.04,98.03z" fill="#B04AD4"/>
<g id="Birds_Whistling-Birds_Attachment_Basic_Gauntlet_Left" fill="#000000">
<g>
<path d="M141.45,98.75c0.12-0.02,0.26,0.24,0.3,0.57c0.04,0.33-0.02,0.61-0.15,0.62 c-0.12,0.01-0.26-0.24-0.3-0.57C141.26,99.04,141.33,98.76,141.45,98.75z"/>
<path d="M141.66,100.42c0.12-0.02,0.26,0.24,0.3,0.57c0.04,0.33-0.02,0.61-0.15,0.62 c-0.12,0.01-0.26-0.24-0.3-0.57C141.47,100.71,141.54,100.43,141.66,100.42z"/>
<path d="M142.3,98.64c0.12-0.02,0.26,0.24,0.3,0.57c0.04,0.33-0.02,0.61-0.15,0.62c-0.12,0.02-0.26-0.24-0.3-0.57 C142.11,98.93,142.18,98.65,142.3,98.64z"/>
<path d="M141.82,103.06c-0.04-0.1-0.07-0.22-0.09-0.35c-0.04-0.33,0.02-0.61,0.15-0.62 c0.09-0.01,0.18,0.11,0.24,0.3L141.82,103.06z M142.54,101.43c-0.08-0.1-0.14-0.28-0.17-0.49c-0.04-0.33,0.02-0.61,0.15-0.62 c0.12-0.01,0.24,0.21,0.29,0.51L142.54,101.43z M143.29,99.72c-0.12-0.01-0.24-0.26-0.28-0.57c-0.04-0.33,0.02-0.61,0.15-0.62 c0.12-0.02,0.26,0.24,0.3,0.57c0.01,0.08,0.01,0.15,0.01,0.22L143.29,99.72z"/>
</g>
</g>
<g id="Base_Whistling-Birds_Attachment_Basic_Gauntlet_Left" fill="#B04AD4">
<path d="M141.82,82.24l-2.12,0.27l0.12,0.93l2.12-0.27L141.82,82.24z"/>
<path d="M142.13,83.14l-2.31,0.29l1.91,14.89l2.31-0.29L142.13,83.14z"/>
<path d="M142.45,83.26l-0.3,0.04l1.65,12.86l0.3-0.04L142.45,83.26z"/>
<path d="M141.75,83.19l-0.3,0.04l1.79,13.96l0.3-0.04L141.75,83.19z"/>
</g>
<g id="Accent_Whistling-Birds_Attachment_Basic_Gauntlet_Left" fill="#B04AD4">
<path d="M139.67,82.27l-0.84,0.11l1.94,15.12l0.84-0.11L139.67,82.27z"/>
<path d="M144.09,97.08l-3.32,0.42l0.12,0.93l3.32-0.42L144.09,97.08z"/>
<path d="M141.09,82.33l-1.39,0.18l0.28,2.17l1.39-0.18L141.09,82.33z"/>
<path d="M141.04,84.54l-1.06,0.13l0.66,5.16l0.81-2.07L141.04,84.54z"/>
</g>
</g></g>
</g>
<g id="Right-Gauntlets"><g id="Basic_Gauntlet_Right" class="option">
<path id="Top-2_Basic_Gauntlet_Right" d="M29.77,108.05l-1.6-2.13l2.46-19.29l0.86,2.24l-1.2,8.8l0.93,2.08 L29.77,108.05z" fill="#B04AD4"/>
<path id="Top-1_Basic_Gauntlet_Right" d="M30.63,86.62l0.86,2.24l-1.2,8.8l0.93,2.08l-1.45,8.31l1.05,1.41 l-0.05,5.31l1.66,0.29l1.54-8.11l1.47-0.68l5.05-23.8l-9.3-0.21L30.63,86.62z" fill="#2BDAE3"/>
<g id="Accent-Bottom_Basic_Gauntlet_Right" fill="#B04AD4">
<path d="M44.58,89.14l2.1,0.5l-0.75,3.1l-2.1-0.5L44.58,89.14z"/>
<path d="M43.29,94.58l2.09,0.5l-0.75,3.1l-2.1-0.5L43.29,94.58z"/>
<path d="M41.93,100.14l2.1,0.5l-0.75,3.1l-2.1-0.5L41.93,100.14z"/>
</g>
<path id="Bottom_Basic_Gauntlet_Right" d="M46.66,89.64l0.56-2.36l-6.82-4.44l-4.96,23.41l7.08,0.7l2.1-8.77 l-2.09-0.5l0.75-3.1l2.08,0.5l0.56-2.33l-2.09-0.5l0.75-3.1L46.66,89.64z M41.93,100.14l2.1,0.5l-0.74,3.1l-2.11-0.51 L41.93,100.14z" fill="#2BDAE3"/><g id="No-Device_Attachment_Basic_Gauntlet_Right" class="option">
</g>
</g>
</g>
</g>
<g id="GauntletsDecals" mask="url(#GauntletsMask)">
</g>
<g id="Shins">
<g id="Left-Shin"><g id="Basic_Shin_Left" class="option">
<path id="Shin_Basic-Shin_Left" d="M123.38,181.46l-4.73-6.13l-10.54,0.47l-4.62,8.67l4.39,30.69 c4.45,2.3,11.19,1.91,15.07-1.05L123.38,181.46" fill="#2BDAE3"/>
<path id="Trauma-Plating_Basic-Shin_Left" class="toggle" style="display:none" d="M121.21,213.2l0.4-31.15l-3.8-4.92l-8.61,0.38l-3.88,7.28 l4.17,29.18C113.1,215.46,117.99,215.19,121.21,213.2"/>
<g id="Ridge_Basic-Shin_Left" class="toggle" style="" fill="#B04AD4">
<path d="M117.2,175.2l-3.66-0.68l-3.74,1.21l3.73,40.9c2.52,0.31,2.56,0.4,4.7-0.39L117.2,175.2"/>
<path d="M113.54,174.52l2.46,42.33"/>
</g>
</g>
</g>
<g id="Right-Shin"><g id="Basic_Shin_Right" class="option">
<path id="Shin_Basic-Shin_Right" d="M46.67,181.46l4.73-6.13l10.53,0.47l4.62,8.67l-4.39,30.69 c-4.45,2.3-11.19,1.91-15.07-1.05L46.67,181.46" fill="#2BDAE3"/>
<path id="Trauma-Plating_Basic-Shin_Right" class="toggle" style="display:none" d="M48.84,213.2l-0.4-31.15l3.8-4.92l8.61,0.38l3.88,7.28 l-4.17,29.18C56.95,215.46,52.05,215.19,48.84,213.2"/>
<g id="Ridge_Basic-Shin_Right" class="toggle" style="" fill="#B04AD4">
<path d="M52.85,175.2l3.66-0.68l3.74,1.21l-3.73,40.9c-2.52,0.31-2.56,0.4-4.7-0.39L52.85,175.2"/>
<path d="M56.51,174.52l-2.46,42.33"/>
</g>
</g>
</g>
</g>
<g id="ShinsDecals" mask="url(#ShinsMask)">
</g>
<g id="Foot">
<g id="Left-Ankle"><g id="Legacy_Ankle_Left" class="option">
<path id="Plate-2_Legacy-Ankle_Left" d="M124.5,223.42l3.77,3.39l2.6,3.25l-4.16,1.34l-9.52-1.97l-3.48-4.58 L124.5,223.42" fill="#B04AD4"/>
<path id="Plate-1_Legacy-Ankle_Left" d="M107.38,217.05c0,0,3.8,1.69,9.42,1.49c3.86-0.14,5.42-1.1,5.42-1.1 l3.27,6.02l-0.85,3.32l-13.76-1.08l-3.39-2.85L107.38,217.05" fill="#2BDAE3"/>
<path id="Trauma-Plate-2_Legacy-Ankle_Left" class="toggle" style="display:none" d="M125.31,224.15l2.94,2.64l1.52,1.89l-3.16,1.02 l-8.38-1.73l-1.38-1.81l7.79,0.61L125.31,224.15"/>
<path id="Trauma-Plate-1_Legacy-Ankle_Left" class="toggle" style="display:none" d="M108.82,219.15l0.06,2.76l2.74,2.21l12.1,0.95l0.86-3.32 l-1.54-2.84c-1.02,0.29-4.12,1.18-6.16,1.26C113.64,220.28,110.62,219.62,108.82,219.15"/>
</g></g>
<g id="Left-Toe"><g id="None_Toe_Left" class="option">
</g>
</g>
<g id="Right-Ankle"><g id="Legacy_Ankle_Right" class="option">
<path id="Plate-2_Legacy-Ankle_Right" d="M45.56,223.42l-3.77,3.39l-2.6,3.25l4.16,1.34l9.52-1.97l3.48-4.58 L45.56,223.42" fill="#B04AD4"/>
<path id="Plate-1_Legacy-Ankle_Right" d="M62.68,217.05c0,0-3.8,1.69-9.42,1.49c-3.86-0.14-5.43-1.1-5.43-1.1 l-3.27,6.02l0.85,3.32l13.76-1.08l3.39-2.85L62.68,217.05" fill="#2BDAE3"/>
<path id="Trauma-Plate-2_Legacy-Ankle_Right" class="toggle" style="display:none" d="M44.75,224.15l-2.94,2.64l-1.52,1.89l3.16,1.02 l8.38-1.73l1.38-1.81l-7.79,0.61L44.75,224.15"/>
<path id="Trauma-Plate-1_Legacy-Ankle_Right" class="toggle" style="display:none" d="M61.24,219.15l-0.06,2.76l-2.74,2.21l-12.1,0.95 l-0.86-3.32l1.54-2.84c1.02,0.29,4.12,1.18,6.16,1.26C56.42,220.28,59.44,219.62,61.24,219.15"/>
</g></g>
<g id="Right-Toe"><g id="None_Toe_Right" class="option">
</g>
</g>
</g>
<g id="FootDecals" mask="url(#FootMask)">
</g>
<g id="Knees">
<g id="Left-Knee"><g id="Basic_Knee_Left" class="option">
<g id="Missiles_Basic-Knee_Left" class="toggle" style="display:none"/>
<g id="Knee_Basic-Knee_Left" fill="#2BDAE3">
<path d="M97.4,158.73l1.49-0.24c0,0,1.12,7.19,1.62,10.38c0.13,0.82-0.43,1.6-1.25,1.73h0L97.4,158.73z"/>
<path d="M98.84,158.2l0.85,5.33c1.09-0.61,3.84,0.51,4.74,3.72c1.65,5.89,3.08,7.24,8.25,6.71 c4.02-0.41,6.89-2.29,7.22-5.05c0.49-4.07-0.01-9.98-0.26-12.36c-0.03-0.27-0.17-0.52-0.38-0.7c-0.22-0.17-0.49-0.25-0.77-0.21 C114.3,156.18,98.84,158.2,98.84,158.2z"/>
<path d="M98.33,158.27l0.51-0.08l0.95,5.77l-0.51,0.08L98.33,158.27z"/>
</g>
</g>
</g>
<g id="Right-Knee"><g id="Basic_Knee_Right" class="option">
<g id="Missiles_Basic-Knee_Right" class="toggle" style="">
<path id="Base_Missiles_Basic-Knee_Right" d="M50.35,156.53c-0.01,0.04-0.02,0.09-0.02,0.13 c-0.2,2.01-0.56,6.29-0.42,9.97l-2.39-1.43c-0.39-0.23-0.62-0.65-0.61-1.1c0.03-1.37,0.1-4.35,0.13-5.91 c0.01-0.59,0.44-1.09,1.02-1.21L50.35,156.53z" fill="#B04AD4"/>
<g id="Missile-2_Missiles_Basic-Knee_Right" fill="#000000">
<path d="M48.67,162.29c0.59,0.07,1.01,0.6,0.93,1.19c-0.08,0.59-0.62,1.01-1.21,0.94 c-0.59-0.07-1.01-0.61-0.93-1.19C47.54,162.64,48.08,162.22,48.67,162.29z"/>
<path d="M48.62,162.64c0.4,0.05,0.68,0.41,0.63,0.8c-0.05,0.39-0.42,0.68-0.81,0.63c-0.4-0.05-0.68-0.41-0.63-0.8 C47.85,162.88,48.22,162.6,48.62,162.64z"/>
</g>
<g id="Missile-1_Missiles_Basic-Knee_Right" fill="#000000">
<path d="M48.81,157.64c0.59,0.07,1.01,0.6,0.93,1.19c-0.08,0.59-0.62,1.01-1.21,0.94 c-0.59-0.07-1.01-0.61-0.93-1.19C47.67,157.99,48.21,157.57,48.81,157.64z"/>
<path d="M48.75,157.99c0.4,0.05,0.68,0.41,0.63,0.8c-0.05,0.4-0.42,0.68-0.81,0.63c-0.4-0.05-0.68-0.41-0.63-0.8 C47.99,158.22,48.35,157.94,48.75,157.99z"/>
</g>
</g>
<g id="Knee_Basic-Knee_Right" fill="#2BDAE3">
<path d="M72.6,158.73l-1.49-0.24c0,0-1.12,7.19-1.62,10.38c-0.13,0.82,0.43,1.6,1.25,1.73h0L72.6,158.73z"/>
<path d="M71.16,158.2l-0.85,5.33c-1.09-0.61-3.84,0.51-4.74,3.72c-1.65,5.89-3.08,7.24-8.25,6.71 c-4.02-0.41-6.89-2.29-7.22-5.05c-0.49-4.07,0.01-9.98,0.26-12.36c0.03-0.27,0.17-0.52,0.38-0.7c0.22-0.17,0.49-0.25,0.77-0.21 C55.7,156.18,71.16,158.2,71.16,158.2z"/>
<path d="M71.67,158.27l-0.51-0.08l-0.95,5.77l0.51,0.08L71.67,158.27z"/>
</g>
</g>
</g>
</g>
<g id="KneesDecals" mask="url(#KneesMask)">
</g>
<g id="Thighs">
<g id="Left-Thigh"><g id="Pocket_Thigh_Left" class="option" fill="#4F4F4F">
<path d="M118.08,123.34c0.57,6.7,1.37,13.06,2.38,19.1c0.21,1.2-0.11,2.44-0.86,3.4c-0.76,0.96-1.89,1.56-3.11,1.65 c-5.56,0.45-11.19,1.29-16.86,2.38c-0.95,0.18-1.94-0.03-2.74-0.59c-0.79-0.56-1.32-1.41-1.47-2.37 c-0.96-6.34-2.89-19.11-3.63-24.07c-0.17-1.12,0.6-2.17,1.73-2.35c2.51-0.39,6.45-1.01,6.45-1.01L118.08,123.34"/>
<path d="M115.46,116.99c0.79-0.12,1.56,0.31,1.85,1.05c0.96,2.54,1.79,6.6,1.14,8.68 c-0.83,2.69-9.28,18.23-11.38,22.07c-0.29,0.54-0.83,0.9-1.43,0.97c-1.21,0.14-3.29,0.38-4.66,0.54 c-0.76,0.09-1.46-0.44-1.57-1.2c-0.69-4.61-2.97-19.73-3.84-25.56c-0.21-1.41-1.23-2.57-2.61-2.97l0,0 C92.96,120.58,110.5,117.78,115.46,116.99"/>
<path id="Stitch_Left" d="M115.21,117.03c1.79-0.24,3.08,7.06,2.5,8.95c-0.75,2.43-9.18,18.53-11.08,21.99 c-0.26,0.49-0.75,0.81-1.3,0.88l-3.64,0.52c-0.69,0.08-1.32-0.4-1.42-1.08c-0.63-4.17-3.08-20.38-3.9-25.63 c-0.29-1.86-2.28-2.25-2.28-2.25"/>
<path d="M93.44,120.51l21.86-3.48"/>
</g></g>
<g id="Right-Thigh"><g id="Pocket_Thigh_Right" class="option" fill="#4F4F4F">
<path d="M51.92,123.34c-0.57,6.7-1.37,13.06-2.38,19.1c-0.21,1.2,0.11,2.44,0.86,3.4c0.76,0.96,1.89,1.56,3.11,1.65 c5.56,0.45,11.19,1.29,16.86,2.38c0.95,0.18,1.94-0.03,2.74-0.59c0.79-0.56,1.32-1.41,1.47-2.37c0.96-6.34,2.89-19.11,3.63-24.07 c0.17-1.12-0.6-2.17-1.73-2.35c-2.51-0.39-6.45-1.01-6.45-1.01L51.92,123.34"/>
<path d="M54.54,116.99c-0.79-0.12-1.56,0.31-1.85,1.05c-0.96,2.54-1.78,6.6-1.14,8.68 c0.83,2.69,9.28,18.23,11.38,22.07c0.29,0.54,0.83,0.9,1.44,0.97c1.21,0.14,3.29,0.38,4.66,0.54c0.76,0.09,1.46-0.44,1.57-1.2 c0.69-4.61,2.97-19.73,3.84-25.56c0.21-1.41,1.23-2.57,2.61-2.97l0,0C77.04,120.58,59.5,117.78,54.54,116.99"/>
<path id="Stitch_Right" d="M54.79,117.03c-1.79-0.24-3.08,7.06-2.5,8.95c0.75,2.43,9.18,18.53,11.08,21.99 c0.26,0.49,0.75,0.81,1.3,0.88l3.64,0.52c0.69,0.08,1.32-0.4,1.42-1.08c0.63-4.17,3.08-20.38,3.9-25.63 c0.29-1.86,2.28-2.25,2.28-2.25"/>
<path d="M76.56,120.51l-21.86-3.48"/>
</g></g>
</g>
<g id="ThighsDecals" mask="url(#ThighsMask)">
</g>
<g id="Groin">
<g id="None_Groin" class="option">
</g></g>
<g id="GroinDecals" mask="url(#GroinMask)">
</g>
<g id="Waist">
<g id="Accessories_Waist">
<g id="Kama" class="toggle" style="">
<g id="Clean_Kama" class="option">
<g id="Trim_Kama-Clean" fill="#B04AD4">
<path d="M98.61,84.3l7.8,59.01l31.5,13.51l-28.5-67.71l-0.97-8.31L98.61,84.3z"/>
<path d="M71.49,84.3l-7.8,59.01l-31.5,13.51l28.5-67.71l0.91-8.31L71.49,84.3z"/>
</g>
<g id="Main_Kama-Clean" fill="#242424">
<path d="M100.56,84.05l7.55,57.08l28.5,12.58l-27.19-64.6l-0.93-8.04L100.56,84.05z"/>
<path d="M69.54,84.05l-7.55,57.08l-28.5,12.58l27.19-64.6l0.91-8.31L69.54,84.05z"/>
</g>
</g></g>
<g id="Loin-Cloth" class="toggle" style="display:none"/>
<g id="Left-Holster" class="toggle" style="display:none"/>
<g id="Right-Holster" class="toggle" style="display:none"/>
<g id="Left-Trophy" class="toggle" style="display:none"/>
<g id="Right-Trophy" class="toggle" style="display:none"/>
</g>
<g id="Under-Belt"><g id="Girth-Belt" class="option" fill="#242424">
<path d="M85.04,76.62c-7.36,0-22.09-1.86-22.09-1.86l0.48-1.58c0,0,14.37,1.24,21.61,1.86 c7.21-0.62,21.61-1.86,21.61-1.86l0.48,1.58C107.13,74.76,92.4,76.62,85.04,76.62z"/>
<path d="M85.04,78.2c-7.52,0-22.55-1.86-22.55-1.86l0.46-1.58c0,0,18.41,1.55,22.09,1.86 c3.68-0.31,22.09-1.86,22.09-1.86l0.46,1.58C107.59,76.34,92.56,78.2,85.04,78.2z"/>
<path d="M85.04,79.78c-7.63,0-22.9-1.86-22.9-1.86l0.34-1.58c0,0,18.79,1.55,22.55,1.86 c3.76-0.31,22.55-1.86,22.55-1.86l0.34,1.58C107.94,77.92,92.67,79.78,85.04,79.78z"/>
<path d="M85.04,81.36c-7.73,0-23.18-1.86-23.18-1.86l0.29-1.58c0,0,19.08,1.55,22.9,1.86 c3.82-0.31,22.9-1.86,22.9-1.86l0.29,1.58C108.22,79.49,92.77,81.36,85.04,81.36z"/>
<path d="M85.04,82.94c-7.81,0-23.44-1.86-23.44-1.86l0.26-1.58c0,0,19.32,1.55,23.18,1.86 c3.86-0.31,23.18-1.86,23.18-1.86l0.26,1.58C108.49,81.07,92.86,82.94,85.04,82.94z"/>
<path d="M85.04,84.52c-7.9,0-23.69-1.86-23.69-1.86l0.25-1.58c0,0,19.54,1.55,23.44,1.86 c3.91-0.31,23.44-1.86,23.44-1.86l0.25,1.58C108.73,82.65,92.94,84.52,85.04,84.52z"/>
<path d="M85.04,86.1c-7.98,0-23.93-1.86-23.93-1.86l0.24-1.58c0,0,19.74,1.55,23.69,1.86 c3.95-0.31,23.69-1.86,23.69-1.86l0.24,1.58C108.97,84.23,93.02,86.1,85.04,86.1z"/>
<path d="M85.04,87.68c-8.06,0-24.18-1.86-24.18-1.86l0.25-1.58c0,0,19.94,1.55,23.93,1.86 c3.99-0.31,23.93-1.86,23.93-1.86l0.25,1.58C109.22,85.81,93.1,87.68,85.04,87.68z"/>
<path d="M85.04,89.25c-8.15,0-24.45-1.86-24.45-1.86l0.27-1.58c0,0,20.15,1.55,24.18,1.86 c4.03-0.31,24.18-1.86,24.18-1.86l0.27,1.58C109.49,87.39,93.19,89.25,85.04,89.25z"/>
<path d="M85.04,90.83c-8.25,0-24.76-1.86-24.76-1.86l0.31-1.58c0,0,20.38,1.55,24.45,1.86 c4.08-0.31,24.45-1.86,24.45-1.86l0.31,1.58C109.8,88.97,93.29,90.83,85.04,90.83z"/>
</g>
</g>
<g id="Belt">
<g id="Pouch-Belt-Full" class="option">
<path id="Main_Pouch-Belt-Full" d="M109.38,84.26c-5.47,0.49-17.98,2.27-24.29,2.27c-6.38,0-18.88-1.79-24.28-2.26 l0.81-6.37c4.44,0.39,17.3,2.2,23.48,2.2c5.99,0,18.59-1.79,23.33-2.22L109.38,84.26z" fill="#363534"/>
<g id="Pouches_Pouch-Belt-Full" fill="#4F4F4F">
<g>
<g>
<g>
<path d="M75.55,77.99c-1.42-0.09-2.85,0.13-4.17,0.65l0,0L77.86,79l1.76-0.75 C79.62,78.25,77.35,78.1,75.55,77.99z"/>
<path d="M79.85,78.49c0.01-0.07-0.02-0.14-0.08-0.19c-0.06-0.04-0.14-0.05-0.2-0.02 c-0.57,0.24-1.7,0.73-1.7,0.73l-0.84,9.96c0.51-0.29,1.02-0.5,1.53-0.63c0.44-0.11,0.76-0.5,0.77-0.95 C79.42,84.41,79.55,81.44,79.85,78.49z"/>
<path d="M77.86,79l-6.48-0.37c-0.04,1.51-0.18,3.02-0.26,4.54c-0.08,1.65-0.12,3.3-0.27,4.96 c-0.01,0.14,0.03,0.28,0.13,0.38c0.09,0.1,0.23,0.16,0.37,0.16c1.81,0,3.62,0.1,5.41,0.31c0.14,0.02,0.27-0.02,0.38-0.11 c0.11-0.09,0.17-0.21,0.18-0.35c0.09-1.23,0.29-4.2,0.29-4.2L77.86,79z"/>
<path d="M77.86,79l-6.48-0.37c0,0-0.07,0.58-0.16,1.34c-0.11,0.91,0.16,1.83,0.76,2.53 c0.59,0.7,1.45,1.13,2.37,1.18c0,0,0,0,0,0c0.92,0.05,1.82-0.28,2.49-0.91c0.67-0.63,1.04-1.51,1.04-2.43 C77.87,79.59,77.86,79,77.86,79z"/>
<path d="M74.42,82.5c0.23,0.01,0.41,0.21,0.39,0.44c-0.01,0.23-0.21,0.4-0.44,0.39 c-0.23-0.01-0.41-0.21-0.39-0.44C73.99,82.66,74.19,82.49,74.42,82.5z"/>
</g>
</g>
<g>
<g>
<path d="M66.42,76.76c-1.32-0.09-2.64,0.14-3.85,0.67h0l5.92,0.34L70.1,77C70.1,77,68.06,76.87,66.42,76.76z"/>
<path d="M70.3,77.25c0.01-0.07-0.03-0.14-0.09-0.19c-0.06-0.04-0.14-0.05-0.21-0.02 c-0.53,0.25-1.52,0.72-1.52,0.72l-0.82,9.96c0.46-0.29,0.91-0.49,1.37-0.63c0.43-0.12,0.72-0.5,0.74-0.94 C69.89,83.18,70.01,80.21,70.3,77.25z"/>
<path d="M68.49,77.76l-5.92-0.34c-0.04,1.51-0.18,3.02-0.26,4.54c-0.09,1.65-0.13,3.3-0.27,4.96 c-0.01,0.14,0.03,0.28,0.13,0.38c0.1,0.1,0.23,0.16,0.37,0.16c1.62-0.01,3.24,0.08,4.84,0.28c0.14,0.02,0.27-0.02,0.38-0.11 c0.11-0.09,0.17-0.22,0.18-0.35c0.08-1.23,0.29-4.2,0.29-4.2L68.49,77.76z"/>
<path d="M68.49,77.76l-5.92-0.34c0,0-0.08,0.74-0.19,1.64c-0.1,0.83,0.16,1.67,0.7,2.31 c0.54,0.64,1.33,1.03,2.17,1.08c0,0,0,0,0,0c0.84,0.05,1.67-0.25,2.28-0.83c0.61-0.58,0.96-1.38,0.96-2.22 C68.49,78.51,68.49,77.76,68.49,77.76z"/>
<path d="M65.32,81.28c0.21,0.01,0.37,0.21,0.36,0.44c-0.01,0.23-0.19,0.41-0.4,0.39s-0.37-0.21-0.36-0.44 C64.93,81.44,65.11,81.27,65.32,81.28z"/>
</g>
</g>
<g>
<path d="M58.83,77.31l0.44-0.68l2.27,0.08l0.28,0.85L58.83,77.31z"/>
<path d="M61.81,77.65c0.01-0.06-0.01-0.11-0.05-0.16c-0.04-0.04-0.09-0.07-0.15-0.07 c-0.69-0.03-2.78-0.11-2.78-0.11l-0.4,8.96c0.11,0.27,1.76,0.43,2.69,0.39c0.11-0.01,0.19-0.09,0.19-0.2 C61.37,83.52,61.47,80.58,61.81,77.65z"/>
</g>
</g>
<g>
<g>
<g>
<path d="M94.63,77.99c1.42-0.09,2.85,0.13,4.17,0.65l0,0L92.32,79l-1.76-0.75 C90.56,78.25,92.83,78.1,94.63,77.99z"/>
<path d="M90.33,78.49c-0.01-0.07,0.02-0.14,0.08-0.19c0.06-0.04,0.14-0.05,0.2-0.02c0.57,0.24,1.7,0.73,1.7,0.73 l0.84,9.96c-0.51-0.29-1.02-0.5-1.53-0.63c-0.44-0.11-0.76-0.5-0.77-0.95C90.76,84.41,90.64,81.44,90.33,78.49z"/>
<path d="M92.32,79l6.48-0.37c0.04,1.51,0.18,3.02,0.26,4.54c0.08,1.65,0.12,3.3,0.27,4.96 c0.01,0.14-0.03,0.28-0.13,0.38c-0.09,0.1-0.23,0.16-0.37,0.16c-1.81,0-3.62,0.1-5.41,0.31c-0.14,0.02-0.27-0.02-0.38-0.11 c-0.11-0.09-0.17-0.21-0.18-0.35c-0.09-1.23-0.29-4.2-0.29-4.2L92.32,79z"/>
<path d="M92.32,79l6.48-0.37c0,0,0.07,0.58,0.16,1.34c0.11,0.91-0.16,1.83-0.76,2.53 c-0.59,0.7-1.45,1.13-2.37,1.18c0,0,0,0,0,0c-0.92,0.05-1.82-0.28-2.49-0.91c-0.67-0.63-1.04-1.51-1.04-2.43 C92.31,79.59,92.32,79,92.32,79z"/>
<path d="M95.76,82.5c-0.23,0.01-0.41,0.21-0.39,0.44c0.01,0.23,0.21,0.4,0.44,0.39 c0.23-0.01,0.41-0.21,0.39-0.44C96.19,82.66,96,82.49,95.76,82.5z"/>
</g>
</g>
<g>
<g>
<path d="M103.76,76.76c1.32-0.09,2.64,0.14,3.85,0.67h0l-5.92,0.34L100.08,77 C100.08,77,102.13,76.87,103.76,76.76z"/>
<path d="M99.88,77.25c-0.01-0.07,0.03-0.14,0.09-0.19c0.06-0.04,0.14-0.05,0.21-0.02 c0.53,0.25,1.52,0.72,1.52,0.72l0.82,9.96c-0.46-0.29-0.91-0.49-1.37-0.63c-0.43-0.12-0.72-0.5-0.74-0.94 C100.29,83.18,100.17,80.21,99.88,77.25z"/>
<path d="M101.69,77.76l5.92-0.34c0.04,1.51,0.18,3.02,0.26,4.54c0.08,1.65,0.13,3.3,0.27,4.96 c0.01,0.14-0.04,0.28-0.13,0.38c-0.1,0.1-0.23,0.16-0.37,0.16c-1.62-0.01-3.24,0.08-4.84,0.28 c-0.14,0.02-0.27-0.02-0.38-0.11c-0.11-0.09-0.17-0.22-0.18-0.35c-0.08-1.23-0.29-4.2-0.29-4.2L101.69,77.76z"/>
<path d="M101.69,77.76l5.92-0.34c0,0,0.08,0.74,0.19,1.64c0.09,0.83-0.16,1.67-0.7,2.31 c-0.54,0.64-1.33,1.03-2.17,1.08c0,0,0,0,0,0c-0.84,0.05-1.67-0.25-2.28-0.83c-0.61-0.58-0.96-1.38-0.96-2.22 C101.69,78.51,101.69,77.76,101.69,77.76z"/>
<path d="M104.86,81.28c-0.21,0.01-0.37,0.21-0.36,0.44c0.01,0.23,0.19,0.41,0.4,0.39s0.37-0.21,0.36-0.44 C105.25,81.44,105.07,81.27,104.86,81.28z"/>
</g>
</g>
<g>
<path d="M111.35,77.31l-0.44-0.68l-2.27,0.08l-0.28,0.85L111.35,77.31z"/>
<path d="M108.38,77.65c-0.01-0.06,0.01-0.11,0.05-0.16c0.04-0.04,0.09-0.07,0.15-0.07 c0.69-0.03,2.78-0.11,2.78-0.11l0.4,8.96c-0.11,0.27-1.75,0.43-2.68,0.39c-0.11-0.01-0.19-0.09-0.19-0.2 C108.81,83.52,108.71,80.58,108.38,77.65z"/>
</g>
</g>
<path d="M87.99,78.41l0.89,0.87l-7.34-0.14l0.57-0.8L87.99,78.41z"/>
<path d="M81.54,79.14l7.32,0.14c-0.08,1.58-0.05,3.15-0.09,4.74c-0.05,1.73-0.14,3.46-0.12,5.2 c0,0.14-0.06,0.28-0.16,0.37c-0.1,0.1-0.24,0.15-0.38,0.14c-2.08-0.15-4.16-0.19-6.25-0.12c-0.14,0-0.27-0.05-0.37-0.14 c-0.1-0.09-0.15-0.23-0.15-0.36c0.01-1.27,0.03-4.41,0.03-4.41L81.54,79.14z"/>
<path d="M81.54,79.14l7.32,0.14c0,0,0.02,0.46,0.05,1.1c0.05,1.03-0.33,2.03-1.06,2.77 c-0.72,0.74-1.72,1.15-2.76,1.13c0,0,0,0,0,0c-1.04-0.02-2.02-0.47-2.71-1.23s-1.03-1.79-0.94-2.81 C81.5,79.6,81.54,79.14,81.54,79.14z"/>
<path d="M85.12,83.05c-0.26-0.01-0.47,0.18-0.48,0.42c0,0.24,0.2,0.44,0.46,0.44c0.26,0,0.47-0.18,0.48-0.42 C85.58,83.25,85.38,83.06,85.12,83.05z"/>
</g>
</g></g>
</g>
<g id="WaistDecals" mask="url(#WaistMask)">
</g>
<g id="Extras_Front">
<g id="Front"><g id="None_Front" class="option">
</g>
</g>
</g>
<g id="Extras-FrontDecals" mask="url(#FrontMask)">
</g>
</g>
</svg>