<svg xmlns="http://www.w3.org/2000/svg" id="Background" stroke="#000" stroke-width="1" version="2.0" viewBox="0 0 1920 1080">
<animate href="#Mouse_Droid" attributeName="x" attributeType="XML" begin="mouseenter" dur="3s" from="800" restart="whenNotActive" to="800" values="800;500;650;-1100;-1100;1100;1100;800"/>
<animate href="#Mouse_Droid" attributeName="opacity" attributeType="XML" begin="mouseenter" dur="3s" from="1" restart="whenNotActive" to="1" values="1;1;1;1;0;0;1;1"/>
<style>
.st1{fill:#363636}.st5{fill:#aeaeae}.st6{fill:#ab1f1f}.st7{fill:#ffea00}.st8{fill:#60ff00}.st9{fill:#787878}.st10{fill:#313131}.st17{fill:#919191}
</style>
<path fill="#0f0f0f" d="M0 806.8h1920V1080H0z"/>
<path d="M0 978h423.6v102H0zm1496.4 0H1920v102h-423.6z" class="st1"/>
<path fill="#2a2a2a" d="m138.3 1043.7-44.8-36.3H0v72.7h138.3v-36.4zm1643.4 0 44.8-36.3h93.5v72.7h-138.3v-36.4zm-1623.4 0 44.8-36.3h195.6l-56.8 72.7H158.3v-36.4zm1603.4 0-44.8-36.3h-195.5l56.8 72.7h183.5v-36.4z"/>
<path d="M0 0h1920v806.8H0z" class="st1"/>
<path fill="#a9a9a9" d="M960 51.2v755.6H436.4L318.7 603V248.9L432.9 51.2H960zm0 0v755.6h523.6L1601.3 603V248.9L1487.1 51.2H960z"/>
<path fill="#d5d5d5" d="M1483.6 806.8 1601.3 603V248.9L1487.1 51.2H432.9L318.7 248.9V603l117.7 203.8H0v-51.7h347.4l-79.9-138.4.3-381.3L373.7 51.2H0V0h1920v51.2h-373.7l105.9 184.2.3 381.3-79.9 138.4H1920v51.7h-436.4z"/>
<path d="M136.5 383.9h63v117h-63z" class="st5"/>
<circle cx="181.5" cy="413.8" r="8.2" class="st6"/>
<circle cx="158" cy="398.4" r="4.7" class="st7"/>
<path d="M173.3 429h16.3v58.2h-16.3z" class="st8"/>
<path d="m162.7 421-16.3-12.7v26.9h16.3V421z" class="st9"/>
<path d="M146.3 444h16.3v28.2h-16.3z" class="st10"/>
<path d="M1720.5 383.9h63v117h-63z" class="st5"/>
<circle cx="1765.5" cy="413.8" r="8.2" class="st6"/>
<circle cx="1742" cy="398.4" r="4.7" class="st8"/>
<path d="M1757.3 429h16.3v8h-16.3zm0 13.7h16.3v8h-16.3zm0 13.7h16.3v8h-16.3zm0 13.7h16.3v8h-16.3zm0 13.7h16.3v8h-16.3z" class="st7"/>
<path d="m1746.7 421-16.3-12.7v26.9h16.3V421z" class="st9"/>
<path d="M1730.3 442.4h16.3V470h-16.3zm16.4 35.6h-16.3v6.6l16.3 7V478z" class="st10"/>
<path fill="#737373" d="M432.9 51.2 318.7 248.9h20.7l115-197.7h-21.5zm105.3 843.7L444.1 1080h30.7l63.5-143.2v-41.9zm843.6 0L1476 1080h-30.7l-63.5-143.2v-41.9zm105.3-843.7 114.2 197.7h-20.7l-115-197.7h21.5z"/>
<path fill="#b5b5b5" d="M436.4 806.8 318.7 603h20.7l118.5 203.8h-21.5zm1047.2 0L1601.3 603h-20.7l-118.5 203.8h21.5z"/>
<path fill="#9f9f9f" d="M318.7 248.9h20.7V603h-20.7zm1261.9 0h20.7V603h-20.7z"/>
<path fill="#dfdfdf" d="m444.1 1080 94.1-185.1H0v38h456.9L341.8 1080h102.3zm1031.8 0-94.2-185.1H1920v38h-456.9l115.1 147.1h-102.3z"/>
<path fill="#a2a2a2" d="M0 932.9h456.9L421.5 978H0v-45.1zm1920 0h-456.9l35.3 45.2H1920v-45.2z"/>
<path fill="#535353" d="m1546.2 50.9 9.8 16.9h364V50.9h-373.8zm-1172.4 0L364 67.8H0V50.9h373.8zm58.9.3L443.5 70l1033.9 1.5 9.7-20.2H432.7z"/>
<path d="M796.9 303.5v269.2L960 787.4l-.1 19.5H937L765.3 582.2V293.8L935.5 71.5h24.4l.1 19.2-163.1 212.8z" class="st17"/>
<path d="M1123.1 303.5v269.2L960 787.4v19.5h23l171.7-224.7V293.8L984.5 71.5h-24.6l.1 19.2 163.1 212.8z" class="st17"/>
<path fill="#fff" d="M1880 204.2c0-9.5-7.8-17.2-17.3-17.2-9.6 0-17.3 7.7-17.3 17.2v125.6c0 9.5 7.8 17.2 17.3 17.2 9.6 0 17.3-7.7 17.3-17.2V204.2zm0 380.9c0-9.5-7.8-17.3-17.3-17.3-9.6 0-17.3 7.8-17.3 17.3v126.2c0 9.5 7.8 17.3 17.3 17.3 9.6 0 17.3-7.8 17.3-17.3V585.1zm54.6-280.8c0-9.6-7.8-17.3-17.3-17.3-9.6 0-17.3 7.8-17.3 17.3v126.2c0 9.5 7.8 17.3 17.3 17.3 9.6 0 17.3-7.8 17.3-17.3V304.3zm0 180.8c0-9.6-7.8-17.3-17.3-17.3-9.6 0-17.3 7.8-17.3 17.3v126.2c0 9.5 7.8 17.3 17.3 17.3 9.6 0 17.3-7.8 17.3-17.3V485.1zM1880 104.4c0-9.6-7.8-17.4-17.3-17.4-9.6 0-17.3 7.8-17.3 17.4v45.2c0 9.6 7.8 17.4 17.3 17.4 9.6 0 17.3-7.8 17.3-17.4v-45.2zm0 280c0-9.6-7.8-17.4-17.3-17.4-9.6 0-17.3 7.8-17.3 17.4v45.2c0 9.6 7.8 17.4 17.3 17.4 9.6 0 17.3-7.8 17.3-17.4v-45.2zm55 281.6c0-9.6-7.8-17.4-17.3-17.4-9.6 0-17.3 7.8-17.3 17.4v45.2c0 9.6 7.8 17.4 17.3 17.4 9.6 0 17.3-7.8 17.3-17.4V666zm-.4-561.6c0-9.6-7.8-17.4-17.3-17.4-9.6 0-17.3 7.8-17.3 17.4v45.2c0 9.6 7.8 17.4 17.3 17.4 9.6 0 17.3-7.8 17.3-17.4v-45.2zm-54.6 380c0-9.6-7.8-17.4-17.3-17.4-9.6 0-17.3 7.8-17.3 17.4v45.2c0 9.6 7.8 17.4 17.3 17.4 9.6 0 17.3-7.8 17.3-17.4v-45.2zm54.6-280c0-9.6-7.8-17.4-17.3-17.4-9.6 0-17.3 7.8-17.3 17.4v45.2c0 9.6 7.8 17.4 17.3 17.4 9.6 0 17.3-7.8 17.3-17.4v-45.2zM40 204.2c0-9.5 7.8-17.2 17.3-17.2 9.6 0 17.3 7.7 17.3 17.2v125.6c0 9.5-7.8 17.2-17.3 17.2S40 339.3 40 329.8V204.2zm0 380.9c0-9.5 7.8-17.3 17.3-17.3 9.6 0 17.3 7.8 17.3 17.3v126.2c0 9.5-7.8 17.3-17.3 17.3S40 720.8 40 711.3V585.1zm-54.6-280.8c0-9.6 7.8-17.3 17.3-17.3 9.6 0 17.3 7.8 17.3 17.3v126.2c0 9.5-7.8 17.3-17.3 17.3-9.6 0-17.3-7.8-17.3-17.3V304.3zm0 180.8c0-9.6 7.8-17.3 17.3-17.3 9.6 0 17.3 7.8 17.3 17.3v126.2c0 9.5-7.8 17.3-17.3 17.3-9.6 0-17.3-7.8-17.3-17.3V485.1zM40 104.4C40 94.8 47.8 87 57.3 87c9.6 0 17.3 7.8 17.3 17.4v45.2c0 9.6-7.8 17.4-17.3 17.4S40 159.2 40 149.6v-45.2zm0 280c0-9.6 7.8-17.4 17.3-17.4 9.6 0 17.3 7.8 17.3 17.4v45.2c0 9.6-7.8 17.4-17.3 17.4S40 439.2 40 429.6v-45.2zM-15 666c0-9.6 7.8-17.4 17.3-17.4 9.6 0 17.3 7.8 17.3 17.4v45.2c0 9.6-7.8 17.4-17.3 17.4S-15 720.8-15 711.2V666zm.4-561.6c0-9.6 7.8-17.4 17.3-17.4 9.6 0 17.3 7.8 17.3 17.4v45.2c0 9.6-7.8 17.4-17.3 17.4-9.6 0-17.3-7.8-17.3-17.4v-45.2zm54.6 380c0-9.6 7.8-17.4 17.3-17.4 9.6 0 17.3 7.8 17.3 17.4v45.2c0 9.6-7.8 17.4-17.3 17.4S40 539.2 40 529.6v-45.2zm-54.6-280c0-9.6 7.8-17.4 17.3-17.4 9.6 0 17.3 7.8 17.3 17.4v45.2c0 9.6-7.8 17.4-17.3 17.4-9.6 0-17.3-7.8-17.3-17.4v-45.2z"/>
<path d="M1542.6 294.2v119.1H1192V294.2h350.6zm-351.5-31.6L1063.4 99.2h385.3l93.9 162.6v.8h-351.5zm-813.7 31.6v119.1H728V294.2H377.4zm351.5-31.6L856.6 99.2H471.3l-93.9 162.6v.8h351.5zM377.4 563.9V444.8H728v119.1H377.4zm351.5 31.6 121.7 163.3H471.3l-93.9-162.6v-.8h351.5zm813.7-31.6V444.8H1192v119.1h350.6zm-351.5 31.6-121.7 163.3h379.3l93.9-162.6v-.8h-351.5z" class="st17"/>
</svg>
