<?xml version='1.0' encoding='UTF-8'?>
<svg version="1.1" id="Male-Body" xmlns="http://www.w3.org/2000/svg" xmlns:serif="http://www.serif.com/" viewBox="0 -55 170 310" style="stroke-width: 0.2px; fill-rule: evenodd; stroke-linejoin: round;" width="510" height="930">
<style>
mask {
mask-type: alpha;
}
.decal {
stroke: none;
}
</style>
<defs id="Masks" stroke="none">
<mask id="HelmetsMask"> <use href="#Helmets"/> </mask>
<mask id="CollarMask"> <use href="#Collar"/> </mask>
<mask id="ShouldersMask"> <use href="#Shoulders"/> </mask>
<mask id="ChestMask"> <use href="#Chest"/> </mask>
<mask id="BicepsMask"> <use href="#Biceps"/> </mask>
<mask id="GauntletsMask"> <use href="#Gauntlets"/> </mask>
<mask id="WaistMask"> <use href="#Waist"/> </mask>
<mask id="GroinMask"> <use href="#Groin"/> </mask>
<mask id="ThighsMask"> <use href="#Thighs"/> </mask>
<mask id="KneesMask"> <use href="#Knees"/> </mask>
<mask id="ShinsMask"> <use href="#Shins"/> </mask>
<mask id="FootMask"> <use href="#Foot"/> </mask>
</defs>
<defs id="Decals"/><metadata><rdf:rdf xmlns:rdf="http://www.w3.org/1999/02/22-rdf-syntax-ns#" xmlns:rdfs="http://www.w3.org/2000/01/rdf-schema#" xmlns:dc="http://purl.org/dc/elements/1.1/"><rdf:description><dc:creator>MandoCreator</dc:creator><dc:publisher>https://www.mandocreator.com</dc:publisher><dc:description>Your Beskar'gam - created by MandoCreator</dc:description><dc:format>image/svg+xml</dc:format><dc:type>Image</dc:type><dc:title>MandoCreator - Ner Berskar'gam</dc:title><dc:date>2022-03-14T14:20:36.652Z</dc:date></rdf:description></rdf:rdf></metadata><g id="Main-Body" fill="white" stroke="black">
<g id="Extras_Back">
<g id="Back"><g id="NO-CAPES_Back" class="option"/>
</g>
</g>
<g id="Extras-BackDecals" mask="url(#BackMask)"/>
<g id="Suit">
<g id="Neck-Seal"><g id="Standard-Neck-Seal" class="option" fill="#7E7E7E">
<path d="M98.75 7.5c0-.9-.93-1.62-2.07-1.62 0 0-7.8.85-11.7.85s-11.7-.85-11.7-.85c-1.14 0-2.07.73-2.07 1.62s.93 1.62 2.07 1.62c0 0 7.8.85 11.7.85s11.7-.85 11.7-.85c1.15.01 2.07-.72 2.07-1.62z"/>
<path d="M99.45 9.4c0-.94-.97-1.71-2.17-1.71 0 0-8.2.9-12.29.9s-12.3-.89-12.3-.89c-1.2 0-2.17.76-2.17 1.71s.97 1.71 2.17 1.71c0 0 8.2.9 12.29.9s12.29-.9 12.29-.9c1.21-.01 2.18-.78 2.18-1.72z"/>
<path d="M100.24 11.76c0-.99-1.03-1.8-2.29-1.8 0 0-8.64.95-12.96.95s-12.97-.95-12.97-.95c-1.26 0-2.29.81-2.29 1.8s1.03 1.8 2.29 1.8c0 0 8.64.95 12.97.95s12.96-.95 12.96-.95c1.26 0 2.29-.81 2.29-1.8z"/>
<path d="M101 13.92c0-1.04-1.08-1.89-2.41-1.89 0 0-9.08.99-13.61.99s-13.61-.99-13.61-.99c-1.33 0-2.41.85-2.41 1.89s1.08 1.89 2.41 1.89c0 0 9.08.99 13.61.99s13.61-.99 13.61-.99c1.34 0 2.41-.85 2.41-1.89z"/>
<path d="M101.76 16.04c0-.79-1.13-1.43-2.52-1.43 0 0-9.51.75-14.26.75s-14.26-.75-14.26-.75c-1.39 0-2.52.64-2.52 1.43 0 .79 1.13 1.43 2.52 1.43 0 0 9.51.75 14.26.75s14.26-.75 14.26-.75c1.39 0 2.52-.64 2.52-1.43z"/>
<path d="M101.76 18.42c0-.79-1.13-1.43-2.52-1.43 0 0-9.51.75-14.26.75s-14.26-.75-14.26-.75c-1.39 0-2.52.64-2.52 1.43 0 .79 1.13 1.43 2.52 1.43 0 0 9.51 1.44 14.26 1.44s14.26-1.44 14.26-1.44c1.39-.01 2.52-.64 2.52-1.43z"/>
</g>
</g>
<path id="Flight-Suit" d="m73.36 158.45-1.49 8.72-11.03 53.11s-4.93 2.96-7.47 3.46c-2.53.5-7.73-.44-7.73-.44l3.85-43 2.9-18.36.66-7.82s-2.53-22.78-1.7-34.14c.82-11.36 6.66-34.01 6.66-34.01l26.98.58 26.97-.58s5.83 22.66 6.66 34.01c.83 11.36-1.7 34.14-1.7 34.14l.66 7.82 2.9 18.36 3.85 43s-5.32 1.19-7.85.69c-2.53-.5-7.34-3.71-7.34-3.71L98.1 167.16l-1.49-8.72-11.62-30.33-11.63 30.34zm56.05-115.12 11.98 41.65 1.04 21.47-9.55 1.83-6.05-20.21-13.65-33.95.69-15.55 2.31-3.72 13.23 8.48zm-88.82-.03 13.19-8.45 2.31 3.72.52 16.04-13.44 33.46-6.05 20.21-9.55-1.83 1.03-21.47L40.59 43.3z" fill="#6E6E6E"/>
<g id="Sleeves" class="toggle" fill="#8C8C8C">
<path d="m112.2 56.12 2.68 5.9s4.24-3.2 7.06-4.8 4.38-2.62 6.92-3.6a33.81 33.81 0 0 1 5.08-1.47l-6.07-12.25-5.79-9.67-11.58 5.14 1.7 20.75z"/>
<path d="M113.61 59.24c-.2-.24 5.08-4.5 8.61-6.34 3.53-1.84 10.25-3.69 10.25-3.69"/>
<path d="m57.8 56.12-2.68 5.9s-4.24-3.2-7.06-4.8c-2.82-1.59-4.38-2.62-6.92-3.6a33.81 33.81 0 0 0-5.08-1.47l6.07-12.25 5.79-9.67 11.58 5.14-1.7 20.75z"/>
<path d="M56.39 59.24c.2-.24-5.08-4.5-8.61-6.34-3.53-1.84-10.25-3.69-10.25-3.69"/>
</g>
</g>
<g id="Boots"><g id="Basic_Boots" class="option">
<path id="Main_Basic-Boot" d="M109.1 216.81c1.46.01 3.24.93 4.53 1.15 1.38.23 2.88.21 4.34.07l.59-.06h.02l.07-.01.19-.03.3-.04.12-.02 1.01-.16.53-.1.11-.03.04-.01.08-.02.36-.09.32-.09.05-.01c1.12-.3 2.24-.66 2.24-.66.33 1.45.5 3.11 1.12 4.46.99 2.13.95 3.05 2.61 4.66 1.14 1.1 4.08 3.05 5.44 3.89.57.36 1.19.63 1.81.86l.06.02c2.5.93 5.2 1.28 6.56 4.03.3.6.55 1.32.5 2-.06.87-1.02.99-1.76 1.2-1.84.52-3.43.92-5.56 1.39a28 28 0 0 1-7.1.81c-1.84-.05-3.41-.13-5.03-1.1-.65-.39-1.32-.79-1.89-1.3-1.27-1.15-2.09-2.36-3.71-3.04-1.18-.5-2.39-.91-3.63-1.2-1.76-.42-4.34-1-5.28-2.74-.37-1.3.01-1.94.13-3.06l.06-.48c.1-.73.23-1.48.26-2.26.08-1.51-.3-3.01-.4-4.51-.06-.85-.1-1.71-.11-2.56 0-.14-.08-.75.06-.8.19-.08.4-.12.62-.14l.34-.02zm-48.17 0c-1.46.01-3.24.93-4.53 1.15-1.38.23-2.88.21-4.34.07l-.59-.06h-.02l-.07-.01-.19-.03-.3-.04-.12-.02-1.01-.16-.53-.1-.11-.03-.04-.01-.08-.02-.36-.09-.32-.09-.05-.01c-1.12-.3-2.24-.66-2.24-.66-.33 1.45-.5 3.11-1.12 4.46-.99 2.13-.95 3.05-2.6 4.66-1.14 1.1-4.08 3.05-5.44 3.89-.57.36-1.19.63-1.81.86l-.06.02c-2.5.93-5.2 1.28-6.56 4.03-.3.6-.55 1.32-.5 2 .06.87 1.02.99 1.76 1.2 1.84.52 3.43.92 5.56 1.39a28 28 0 0 0 7.1.81c1.84-.05 3.41-.13 5.03-1.1.65-.39 1.32-.79 1.89-1.3 1.27-1.15 2.09-2.36 3.72-3.04 1.18-.5 2.39-.91 3.63-1.2 1.76-.42 4.33-1 5.28-2.74.37-1.3-.01-1.94-.13-3.06l-.06-.48c-.1-.73-.23-1.48-.26-2.26-.08-1.51.3-3.01.4-4.51.06-.85.1-1.71.11-2.56 0-.14.08-.75-.06-.8-.19-.08-.4-.12-.62-.14l-.36-.02z" fill="#4C4C4C"/>
<path id="Bottom_Basic-Boot" d="M108.15 230.64a4.54 4.54 0 0 0 2.33 1.86c.89.45 1.95.64 2.96.88l.41.1.6.16.18.05.1.03.19.06.08.03.33.11.12.04.06.02.5.18.11.04.45.17.12.05.27.11.12.05c.27.11.51.24.74.38l.03.02.05.03.21.14.05.03.04.03.2.15.06.04.09.07c.28.23.54.47.8.73l.07.07.42.43.45.45.48.46.06.05.15.13.03.02.25.2.17.13.03.02.22.15.09.06.33.21.23.14.09.06.25.15.11.07.08.04.08.04.34.17.16.07.05.02c.34.15.68.26 1.02.35l.06.01.08.02.07.02.21.04.16.03.13.02.04.01.11.02.18.02.26.03a13.2 13.2 0 0 0 .72.06l.36.02h.11l.7.02.46.01h.63l.83-.03.12-.01.11-.01.1-.01 1.21-.11.11-.01.3-.04.13-.02.11-.01.25-.04 1.06-.18.24-.04.1-.02.11-.02.11-.02.11-.02.08-.02.26-.05.11-.02.3-.07.26-.06h.03l1.58-.36.19-.04.42-.1.17-.04.08-.02.58-.15.35-.09 1-.26.15-.04.17-.04.06-.02.79-.22.06-.02.09-.02.28-.07.09-.03.14-.04.06-.02.11-.04.1-.03.04-.02.05-.02.03-.01.05-.02.05-.03.02-.01.05-.03.06-.04.06-.04.05-.04a1 1 0 0 0 .22-.24s.49.73.53 1.99c-1.1 1.59-4.6 2.12-9.43 2.76-4.8.64-7.76.51-9.77-.35s-5.53-4.94-8.05-5.15a18.79 18.79 0 0 1-6.72-2.26c-.64-.37-.45-3-.45-3l.06-.41zm-46.28 0a4.54 4.54 0 0 1-2.33 1.86c-.89.45-1.95.64-2.95.88l-.41.1-.6.16a1.2 1.2 0 0 1-.18.05l-.1.03-.19.06a.69.69 0 0 0-.08.03l-.33.11-.12.04-.06.02-.5.18-.11.04-.45.17-.12.05-.27.11-.12.05c-.27.11-.51.24-.74.38l-.03.02-.05.03-.21.14-.05.03-.04.03-.2.15-.06.04-.09.07c-.28.23-.54.47-.8.73l-.07.07-.42.43-.45.45-.48.46-.06.05-.15.13-.03.02-.25.2-.17.13-.03.02-.22.15-.09.06-.33.21-.23.14-.1.06-.24.15-.11.07-.08.04-.08.04-.34.17-.16.07-.05.02c-.34.15-.67.26-1.02.35l-.06.01-.08.02-.07.02-.21.04-.16.03-.13.02-.04.01-.11.02a1.1 1.1 0 0 1-.18.02l-.26.03-.07.01-.65.05-.36.02h-.1l-.7.02-.46.01h-.63l-.83-.03-.12-.01-.11-.01-.1-.01-1.21-.11-.11-.01-.3-.04-.13-.02-.11-.01-.25-.04-1.06-.18-.24-.04-.1-.02-.11-.02-.11-.02-.11-.02-.08-.02-.26-.05-.11-.02-.3-.07-.26-.06h-.03l-1.58-.36-.19-.04-.42-.1-.17-.04-.08-.02-.58-.15-.35-.09-1-.26-.15-.04-.17-.04-.06-.02-.79-.22-.06-.02-.09-.02-.28-.07-.09-.03-.15-.04-.06-.02-.11-.04-.1-.03-.04-.02-.05-.02-.03-.01-.05-.02-.05-.03-.02-.01-.05-.03-.06-.04-.06-.04-.05-.04a1 1 0 0 1-.22-.24s-.49.73-.53 1.99c1.1 1.59 4.6 2.12 9.43 2.76 4.8.64 7.76.51 9.77-.35s5.53-4.94 8.05-5.15a18.86 18.86 0 0 0 6.72-2.26c.64-.37.45-3 .45-3l-.07-.41z" fill="#313131"/>
<path id="Top_Basic-Boot" d="M122 217.29c.67 3.26 1.7 6.09 3.88 8.84 3.4 4.27 9.2 4.62 13.21 8.09 1.03.89.98 2.32 1.15 3.64-1.66.47-3.13.84-4.99 1.26-.13-1.31.1-2.78-.99-3.72-4.01-3.47-10.32-3.34-13.72-7.61-2.22-2.79-2.23-6.39-2.87-9.74l.3-.03.59-.06h.02l.07-.01.19-.03.3-.04.12-.02 1.01-.16.53-.1.11-.03.04-.01.08-.02.36-.09.32-.09.05-.01.24-.06zm-73.98 0c-.67 3.26-1.7 6.09-3.88 8.84-3.4 4.27-9.2 4.62-13.21 8.09-1.03.89-.98 2.32-1.15 3.64 1.66.47 3.13.84 4.99 1.26.13-1.31-.1-2.78.99-3.72 4.01-3.47 10.32-3.34 13.72-7.61 2.22-2.79 2.23-6.39 2.87-9.74l-.3-.03-.59-.06h-.02l-.07-.01-.19-.03-.3-.04-.12-.02-1.01-.16-.53-.1-.11-.03-.04-.01-.08-.02-.36-.09-.32-.09-.05-.01-.24-.06z" fill="#FFD600"/>
<path id="Side_Basic-Boot" d="M109.49 216.83c1.38.15 2.96.92 4.14 1.12l.19.03c.02.41.01.82.02 1.18.05 2.04-.21 10.76-.61 10.75-.4-.02-1.58-.23-1.88-.55-.2-.21-.24-.71-.3-.98-.21-.87-.4-1.73-.53-2.61a42.83 42.83 0 0 1-.4-3.55c-.14-1.8-.42-3.6-.63-5.39zm-48.96 0c-1.38.15-2.96.92-4.14 1.12l-.19.03c-.02.41-.01.82-.02 1.18-.05 2.04.21 10.76.61 10.75.4-.02 1.58-.23 1.88-.55.2-.21.24-.71.3-.98.21-.87.4-1.73.53-2.61.18-1.19.32-2.36.4-3.55.15-1.8.42-3.6.63-5.39z" fill="#FFD600"/>
</g>
</g>
<g id="Gloves">
<g id="Left-Glove"><g id="Basic_Left_Glove" class="option" fill="#545454">
<path d="M138.6 124.11a5.98 5.98 0 0 0-1.58.1c-.36.08-.72.16-1.04.35-.99.57-.72 1.81.16 2.28 1.03.55 2.66.01 3.13-1.05.19-.44-.41-1.26-.67-1.68"/>
<path d="M136.79 125.19a5.68 5.68 0 0 0-1.59.1c-.36.08-.72.16-1.04.35-.99.57-.72 1.81.16 2.28 1.03.55 2.66.01 3.13-1.05.2-.44-.4-1.26-.66-1.68"/>
<path d="M135.49 126.65a7.5 7.5 0 0 0-1.7.31c-.35.12-.69.26-.99.48-.9.7-.47 1.89.47 2.24 1.1.41 2.64-.35 2.96-1.46.13-.46-.74-1.57-.74-1.57z"/>
<path d="M132.55 110.05s-1.56 2.15-1.97 3.69c-.29 1.09-.13 3.68-.49 5.43-.36 1.74-.69 2.71-.69 2.71s-1.38 2.79-1.14 3.43c.24.64 1.45 1.21 2.15.87.86-.42 1.93-2.39 2.61-3.77.69-1.41 1.25-3.41 1.25-3.41s.95.32 1.43.7c1.61 1.24.91 4.96.91 4.96s-.66 1.33-1.66 2.83c-1.36 2.05-3.46 3.81-2.07 5.37 1.29 1.46 4.22-2.37 4.22-2.37l2.87-3.73s3.3-5.41 3.47-6.46c.13-.8.02-3.47.02-3.47l-1.03-10.37-5.24.44-4.31 1.39-.33 1.76"/>
</g>
</g>
<g id="Right-Glove"><g id="Basic_Right_Glove" class="option" fill="#545454">
<path d="M31.4 124.11a5.98 5.98 0 0 1 1.58.1c.36.08.72.16 1.04.35.99.57.72 1.81-.16 2.28-1.03.55-2.66.01-3.13-1.05-.2-.44.41-1.26.67-1.68"/>
<path d="M33.21 125.19a5.59 5.59 0 0 1 2.62.45c.99.57.72 1.81-.16 2.28-1.03.55-2.66.01-3.13-1.05-.19-.44.41-1.26.67-1.68"/>
<path d="M34.51 126.65a7.5 7.5 0 0 1 1.7.31c.35.12.69.26.99.48.9.7.47 1.89-.47 2.24-1.1.41-2.64-.35-2.96-1.46-.13-.46.74-1.57.74-1.57z"/>
<path d="M37.45 110.05s1.56 2.15 1.97 3.69c.29 1.09.13 3.68.49 5.43.36 1.74.69 2.71.69 2.71s1.38 2.79 1.14 3.43c-.24.64-1.45 1.21-2.15.87-.86-.42-1.93-2.39-2.61-3.77-.69-1.41-1.25-3.41-1.25-3.41s-.95.32-1.43.7c-1.61 1.24-.91 4.96-.91 4.96s.66 1.33 1.66 2.83c1.36 2.05 3.46 3.81 2.08 5.37-1.29 1.46-4.22-2.37-4.22-2.37l-2.87-3.73s-3.3-5.41-3.47-6.46c-.13-.8-.02-3.47-.02-3.47l1.03-10.37 5.24.44 4.31 1.39.32 1.76"/>
</g>
</g>
</g>
<g id="Biceps">
<g id="Left-Biceps"><g id="Basic_Biceps_Left" class="option">
<path id="Main_Basic_Biceps_Left" d="M134.37 52.38c-1.14-2.74-6.21-14.78-6.21-14.78l-10.42 4.28c-.59.24-.87.91-.63 1.5l4.87 11.74a3.36 3.36 0 0 0 4.37 1.8l7.4-3.04c.58-.25.86-.92.62-1.5z" fill="#FFD600"/>
<path id="Strap_Basic_Biceps_Left" d="m119.35 48.7-5.85 2.4-.14 4.29 7.49-3.07-1.5-3.62" fill="#A46A39"/>
<path id="Trauma-Plate_Basic_Biceps_Left" class="toggle" style="" d="m134.34 51.81-5.29-12.74-10.16 4.17 4.67 11.24c.17.4.49.72.89.88.4.17.85.17 1.26 0l8.63-3.55" fill="#A3A3A3"/>
</g>
</g>
<g id="Right-Biceps"><g id="Basic_Biceps_Right" class="option">
<path id="Main_Basic_Biceps_Right" d="M35.65 52.38c1.14-2.74 6.22-14.78 6.22-14.78l10.42 4.28c.59.24.87.91.63 1.5l-4.87 11.74a3.36 3.36 0 0 1-4.37 1.8l-7.4-3.04a1.16 1.16 0 0 1-.63-1.5z" fill="#FFD600"/>
<path id="Strap_Basic_Biceps_Right" d="m50.68 48.7 5.85 2.4.14 4.29-7.49-3.07 1.5-3.62" fill="#A46A39"/>
<path id="Trauma-Plate_Basic_Biceps_Right" class="toggle" style="" d="m35.69 51.81 5.29-12.74 10.16 4.17-4.66 11.24a1.67 1.67 0 0 1-2.15.88l-8.64-3.55" fill="#A3A3A3"/>
</g>
</g>
</g>
<g id="BicepsDecals" mask="url(#BicepsMask)"/>
<path id="Vest" d="M85 20.92c8.5-.01 15.43-4.3 15.63-8.01l.15.02 18.38 5.42 13.31 23.94-2.86 1.16-13.42-8.6-2.31 3.72-1.54 47.4s-8.72 4.71-13.53 5.35c-3.44.45-8.63.68-13.79.67-5.16.01-10.35-.22-13.79-.67-4.81-.63-13.53-5.35-13.53-5.35l-1.54-47.4-2.31-3.72-13.42 8.6-2.86-1.16 13.31-23.94 18.38-5.42.15-.02c.16 3.71 7.09 8.01 15.59 8.01" fill="#595959"/>
<g id="SuitDecals" mask="url(#SuitMask)"/>
<g class="swappable" id="Chest"><g id="Chest_Galaxy">
<g id="Abdomen_Galaxy">
<path id="Abdomen-Plate_Galaxy" d="m78.03 73.41-2.08 1.5-10.56-1.5-.77-5.8 5-.1 3.03-4.92 1.37-4.53 10.95-9.96.03.01.02-.02 10.95 9.96 1.37 4.53 3.03 4.92 5 .1-.77 5.8-10.56 1.5-2.08-1.5H78.03z" fill="#FFD600"/>
<path id="Trauma-Plate_Abdomen_Galaxy" class="toggle" style="" d="m84.98 50.38-9.46 8.61-1.3 4.29-3.63 5.89-4.03.08.35 2.66 8.6 1.22 1.97-1.42h15.04l1.97 1.42 8.6-1.22.35-2.66-4.03-.08-3.63-5.89-1.3-4.29-9.46-8.61-.02.02-.02-.02z" fill="#A3A3A3"/>
</g>
<g id="Full-Chest_Galaxy">
<path id="Chest-Plate_Galaxy" d="m80.61 33.64-.02 10.15 3.21 3.22L72.55 57.6l-1.46 4.89-2.38 3.9h-4.12l-2-2.9-2.55-14.21-3.73-5.81 4.73-15.2 5.46-.69.77-3.36 5.84-.71 1.85 3h20.1l1.85-3 5.84.71.77 3.36 5.46.69 4.73 15.2-3.73 5.81-2.55 14.21-2 2.9h-4.12l-2.38-3.9-1.46-4.89L86.22 47l3.21-3.22-.02-10.15L85 30.24l-4.39 3.4z" fill="#FFD600"/>
<path id="Trauma-Plating_Left-Chest_Galaxy" class="toggle" style="" d="M96 28.19H85.12l5.97 4.62.02 11.67-2.48 2.49 10.31 9.72 1.53 5.11 1.77 2.9h2.27l1.29-1.87 2.54-14.19 3.49-5.43-4.17-13.42-5.55-.7-.77-3.36-3.57-.43L96 28.19z" fill="#A3A3A3"/>
<path id="Trauma-Plating_Right-Chest_Galaxy" class="toggle" style="" d="m72.23 25.31-3.57.43-.77 3.36-5.55.7-4.17 13.42 3.49 5.43 2.54 14.19 1.29 1.87h2.27l1.77-2.9 1.53-5.11 10.31-9.72-2.48-2.49.02-11.67 5.97-4.62H74l-1.77-2.89z" fill="#A3A3A3"/>
<path id="Accents_Chest-Plate_Galaxy" class="toggleOn" d="M96.12 31.44h9.25v1.22h-9.25zm0 2.16h9.25v1.22h-9.25z" fill="#FFD600"/>
</g>
<g id="Iron-Heart_Galaxy">
<path id="Heart_Galaxy" d="M82.3 43.49v-9.13l2.7-2.1 2.7 2.1v9.13L85 46.2l-2.7-2.71z" fill="#4D7FAD"/><path id="Center_Heart_Galaxy" class="option" d="M84.07 35.76h1.87v6.25h-1.87z" fill="#FFD600"/>
</g>
<g id="Neck-Armor_Galaxy">
<path id="Neck-Plate_Galaxy" d="m82.75 25.51-7.39.12-1.82-2.97-7.05.84-.7 3.07-4.52.56-3.33-11.42 11.55-3.44s1.53 2.58 2.64 3.49c1.14.93 2.66 2.02 4.08 2.64a22.56 22.56 0 0 0 5.86 1.5l.68 5.61zm4.5 0 7.39.12 1.82-2.97 7.05.84.7 3.07 4.52.56 3.33-11.42-11.55-3.44s-1.53 2.58-2.64 3.49a19.16 19.16 0 0 1-4.08 2.64 22.56 22.56 0 0 1-5.27 1.42l-.59.08-.68 5.61z" fill="#FFD600"/>
<path id="Trauma-Plates_Neck_Galaxy" class="toggle" style="" d="M101.25 14.25a14.9 14.9 0 0 1-2.3 2.81 20.96 20.96 0 0 1-4.48 2.89 23.34 23.34 0 0 1-5.01 1.43l-.3 2.48 4.53.07 1.88-3.07 9.32 1.1.7 3.08 1.9.23 2.46-8.43-8.7-2.59zm-32.5 0-8.72 2.6 2.46 8.43 1.9-.23.7-3.08 9.32-1.1 1.88 3.07 4.53-.07-.3-2.48a23.5 23.5 0 0 1-5.01-1.43 20.72 20.72 0 0 1-4.48-2.89 16.49 16.49 0 0 1-2.28-2.82z" fill="#4D7FAD"/>
</g>
</g></g>
<g id="ChestDecals" mask="url(#ChestMask)"/>
<g id="Chest-Attachments"><g id="Bandoleer_Accessories_Chest" class="option">
<g id="Strap_Bandoleer_Accessories_Chest" fill="#A46A39">
<path d="m113.05 15.37-6.61-3.15L64.67 87.5l6.61 3.62 41.77-75.75"/>
<path d="m111.26 14.16-2.51-1.17-8.34 15.03 2.41 1.32 8.44-15.18M99.44 35.85l-2.76-1.51-12.82 23.1 2.76 1.51 12.82-23.1"/>
<path d="m99.71 36.72-3.92-2.15-1.28 2.32 3.92 2.15 1.28-2.32m-1.56 2.81-3.92-2.15-1.28 2.32 3.92 2.15 1.28-2.32m-1.55 2.8-3.92-2.15-1.28 2.32 3.92 2.15 1.28-2.32m-1.56 2.81-3.92-2.15-1.28 2.32 3.92 2.15 1.28-2.32m-1.56 2.8-3.92-2.15-1.29 2.32 3.92 2.15 1.29-2.32m-3.11 5.61-3.92-2.15-1.29 2.32 3.92 2.15 1.29-2.32m1.56-2.8-3.92-2.15-1.29 2.32 3.92 2.15 1.29-2.32m-3.11 5.61-3.92-2.15-1.28 2.31 3.92 2.15 1.28-2.31"/>
</g>
<g id="Ammo_Bandoleer_Accessories_Chest" fill="#A3A3A3">
<path d="m99.57 36.97 1.6.88c.17.09.23.31.14.48l-.66 1.18a.36.36 0 0 1-.48.14l-1.6-.88 1-1.8z"/>
<path d="m100.75 37.61-.13-.07-1 1.8.13.07 1-1.8zm-.28-.15-.13-.07-1 1.8.14.07.99-1.8zm-4.82-2.64-1 1.8-1.6-.88a.36.36 0 0 1-.14-.48l.66-1.19a.36.36 0 0 1 .48-.14l1.6.89z"/>
<path d="m94.44 34.15-.13-.07-1 1.8.14.07.99-1.8zm2.01 8.45 1.6.88c.17.09.23.31.14.48l-.66 1.19a.36.36 0 0 1-.48.14l-1.6-.88 1-1.81z"/>
<path d="m97.63 43.24-.13-.07-1 1.8.13.07 1-1.8zm-.28-.15-.13-.07-1 1.8.13.07 1-1.8zm-4.82-2.64-1 1.8-1.6-.88a.36.36 0 0 1-.14-.48l.66-1.19c.1-.17.31-.23.48-.14l1.6.89z"/>
<path d="m91.32 39.78-.13-.07-1 1.8.13.07 1-1.8zm3.58 5.6 1.6.88c.17.09.23.31.14.48l-.66 1.18a.36.36 0 0 1-.48.14l-1.6-.88 1-1.8z"/>
<path d="m96.08 46.03-.13-.07-1 1.8.13.07 1-1.8zm-.28-.15-.13-.07-1 1.8.13.07 1-1.8zm-4.82-2.64-1 1.8-1.6-.88a.36.36 0 0 1-.14-.48l.66-1.19c.1-.17.31-.23.48-.14l1.6.89z"/>
<path d="m89.77 42.57-.13-.07-1 1.8.13.07 1-1.8zm3.57 5.64 1.6.88c.17.09.23.31.14.48l-.66 1.19a.36.36 0 0 1-.48.14l-1.6-.88 1-1.81z"/>
<path d="m94.52 48.85-.13-.07-1 1.8.13.07 1-1.8zm-.28-.15-.13-.07-1 1.8.13.07 1-1.8zm-4.82-2.64-1 1.8-1.6-.88a.36.36 0 0 1-.14-.48l.66-1.18c.1-.17.31-.23.48-.14l1.6.88z"/>
<path d="m88.21 45.39-.13-.07-1 1.8.13.07 1-1.8z"/>
</g>
<g id="Buckles_Bandoleer_Accessories_Chest" fill="#CBB95C">
<path d="m104 27.77-2.88-1.58-1.63 2.93 2.88 1.58 1.63-2.93z"/>
<path d="m103.26 28.27-2.17-1.19-1.63 2.93 2.17 1.19 1.63-2.93zm.74-3.93-1.86-1.01 1.61-2.92 3.76 2.05-1.61 2.92-1.9-1.04.36-.65 1.06.58.89-1.61-2.07-1.13-.89 1.61 1.01.55"/>
</g>
</g></g>
<g id="Collar"><g id="None_Collar" class="option"/>
</g>
<g id="CollarDecals" mask="url(#CollarMask)"/>
<g id="Helmets" class="swappable" transform="translate(45,-62)"><g id="Helmet_Ironside">
<g id="Left-Earcap_Ironside" class="toggle"><g id="Ear-Cap_Left_Ironside" fill="#FFD600">
<path d="M57.63 43.18h1.38l.62 1.63v3.64H58.3v1.34h-.65l-.02-6.61z"/>
<path d="M59.14 48.45v3.75l-.67-2.41h-.17v-1.34h.84z"/>
</g>
</g>
<g id="Right-Earcap_Ironside" class="toggle"><g id="Main-Antenna_Right_Ironside" class="option" style="">
<path id="Shaft_Main-Antenna_Right_Ironside" d="m19.58 39.77.25-24.44s-.01-.65.35-.65.35.65.35.65l.25 24.44h-1.2z" fill="#4D7FAD"/>
<g id="Base_Main-Antenna_Right_Ironside" fill="#FFD600">
<path d="M21.94 43.62h-3.51s-.75 8.23 1.73 8.23 1.78-8.23 1.78-8.23zM18.77 43.22l.59-3.45.82.01.82-.01.59 3.45h-2.82z"/>
<path d="M18.95 43.22h2.45v.4h-2.45zM19.98 40.36h.39v2.41h-.39zM21.09 40.28l-.39.05.38 2.38.39-.05-.38-2.38zM19.27 40.28l.39.05-.38 2.38-.39-.05.38-2.38z"/>
</g>
</g>
<g id="Ear-Cap_Right_Ironside" fill="#FFD600">
<path d="M22.37 43.18h-1.38l-.62 1.63v3.64h1.32v1.34h.65l.03-6.61z"/>
<path d="M20.86 48.45v3.75l.68-2.41h.16v-1.34h-.84z"/>
</g>
</g>
<g id="Helmet_Pieces_Ironside">
<g id="Face-2_Ironside" fill="#FFD600">
<path d="m22.47 50.78-2.49 9.05.7-.36 2.24-7.96-.45-.73z"/>
<path d="m19.98 59.83 13.3 7.71-.15-.78-12.44-7.28-.71.35z"/>
<path d="m22.35 50.59.12.19-2.49 9.05 13.3 7.71 1.5 7.72-3.62-1.7-1.87-3.5-11.43-7.14 3.67-13.12h.82v.79z"/>
<path d="m29.29 70.06-11.43-7.14.82 1.37 11.07 6.63-.46-.86zM21.1 65.74v1.02l9.34 5.46-.7-1.3-8.64-5.18zM57.53 50.78l2.49 9.05-.7-.36-2.24-7.96.45-.73z"/>
<path d="m60.02 59.83-13.3 7.71.15-.78 12.44-7.28.71.35z"/>
<path d="m57.65 50.59-.12.19 2.49 9.05-13.3 7.71-1.5 7.72 3.62-1.7 1.87-3.5 11.43-7.14-3.67-13.12h-.82v.79z"/>
<path d="m50.71 70.06 11.43-7.14-.82 1.37-11.07 6.63.46-.86z"/>
<path d="M58.9 65.74v1.02l-9.34 5.46.69-1.3 8.65-5.18z"/>
</g>
<g id="Face-1_Ironside" fill="#A3A3A3">
<path d="m20.68 59.47 12.44 7.28-1.97-10.1-7.14-3.39-3.33 6.21zM59.32 59.47l-12.44 7.28 1.97-10.1 7.14-3.39 3.33 6.21z"/>
</g>
<g id="Cheeks_Ironside" fill="#4D7FAD">
<path d="m22.35 50.59 1.67 2.68 7.14 3.39-.22-1.15-8.59-4.92z"/>
<path d="m22.92 51.51-2.24 7.96 3.34-6.2-1.1-1.76zM57.65 50.59l-1.67 2.68-7.14 3.39.22-1.15 8.59-4.92zM57.08 51.51l2.24 7.96-3.34-6.2 1.1-1.76z"/>
</g>
<path fill="#000000" id="Visor_Ironside" d="m36.72 75.26 1.73-2.19-1.2-23.28-14.3-2.28v-.92h34.12v.92l-14.3 2.28-1.2 23.28 1.73 2.19h-6.58z"/>
<g id="Eyes-2_Ironside" fill="#4D7FAD">
<path d="M31.8 56.87h1.45l1.68 8.1v7.73L31.8 56.87zM48.2 56.87h-1.45l-1.68 8.1v7.73l3.13-15.83z"/>
<path d="m33.37 57.42-1.4.28.11.54 1.4-.28-.11-.54zM33.63 58.7l-1.4.28.11.54 1.4-.28-.11-.54zM33.89 59.98l-1.4.28.11.54 1.4-.28-.11-.54zM34.15 61.27l-1.4.28.11.54 1.4-.28-.11-.54z"/>
<g>
<path d="m46.63 57.42 1.4.28-.11.54-1.4-.28.11-.54zM46.37 58.7l1.4.28-.11.54-1.4-.28.11-.54zM46.11 59.98l1.4.28-.11.54-1.4-.27.11-.55zM45.85 61.27l1.4.28-.11.54-1.4-.28.11-.54z"/>
</g>
<g>
<path d="m35.84 43.66 1.54-.49v.97l-1.54-.48zM44.3 43.66l-1.54-.49v.97l1.54-.48z"/>
</g>
</g>
<g id="Eyes-1_Ironside" fill="#FFD600">
<path d="M22.94 46.59v.92l-.59.37v-1.64l.59.35z"/>
<path d="m22.94 47.51 14.3 2.28-.46.42-14.43-2.33.59-.37z"/>
<path d="m37.24 49.79 1.2 23.28h-.53l-1.14-22.86.47-.42z"/>
<path d="M22.35 47.88v2.71l8.59 4.91 3.85 19.75.79.7 2.34-2.89-1.14-22.86-14.43-2.32zm9.45 8.99h1.45l1.68 8.1v7.73L31.8 56.87z"/>
<path d="m30.94 55.5 3.85 19.75.79.7L31.43 55l-.49.5zM37.92 73.07l-2.34 2.89h.59l2.28-2.89h-.53z"/>
<path d="m31.43 55-9.08-5.22v.81l8.59 4.91.49-.5zM57.65 47.88v2.71l-8.59 4.91-3.85 19.75-.79.7-2.34-2.89 1.14-22.86 14.43-2.32zm-9.45 8.99h-1.45l-1.68 8.1v7.73l3.13-15.83zM57.06 46.59v.92l.59.37v-1.64l-.59.35z"/>
<path d="m57.06 47.51-14.3 2.28.46.42 14.43-2.33-.59-.37z"/>
<path d="m42.76 49.79-1.2 23.28h.53l1.14-22.86-.47-.42zM49.06 55.5l-3.85 19.75-.79.7L48.56 55l.5.5zM42.08 73.07l2.34 2.89h-.59l-2.28-2.89h.53z"/>
<path d="m48.56 55 9.09-5.22v.81l-8.59 4.91-.5-.5zM45 41.5l2.16 2.41h10.63v1.91l-17.72-.13-17.72.13v-1.91h10.63l2.16-2.41H45zm-9.16 2.16 1.54-.49v.97l-1.54-.48zm8.46 0-1.54-.49v.97l1.54-.48z"/>
<path d="M22.35 46.24v-.42l17.58-.13h.14l17.58.13v.42h-35.3zM22.94 46.59l-.59-.35h35.3l-.59.35H22.94z"/>
</g>
<g id="Dome-2_Ironside" fill="#FFD600">
<path d="M32.98 43.91H22.33c0-6.48 3.69-12.12 9.13-15.06v1.56l.73-.41v-1.52a18.01 18.01 0 0 1 15.62 0V30l.74.42v-1.56a17.14 17.14 0 0 1 9.13 15.06H47.16L45 41.5h-9.87l-2.15 2.41z"/>
<path d="M32.19 29.1v.9l-.74.42v-.94l.12-.07.62-.31zM48.42 29.41l.12.07v.94l-.73-.42v-.9l.61.31z"/>
</g>
<path id="Dome-1_Ironside" d="M23.72 43.91c0-8.75 7.3-15.85 16.28-15.85s16.28 7.1 16.28 15.85h-9.12L45 41.5h-9.87l-2.16 2.41h-9.25z" fill="#4D7FAD"/>
</g>
</g></g>
<g id="HelmetsDecals" mask="url(#HelmetsMask)"/>
<g id="Shoulders">
<g id="Left-Shoulder"><g id="Classic_Shoulder_Left" class="option">
<path id="Main_Shoulder_Classic_Left" d="m117.21 13.84-2.52 11.33 2.02 6.52 13.49 6.79 2.27-3.46-15.26-21.18z" fill="#FFD600"/>
<path id="Trauma-Plates_Shoulder_Classic_Left" class="toggle" style="" d="m116.44 25.1 1.67 5.41 11.49 5.78 1.94-2.96-12.93-17.99-2.17 9.76z" fill="#4D7FAD"/>
</g>
</g>
<g id="Right-Shoulder"><g id="Classic_Shoulder_Right" class="option">
<path id="Main_Shoulder_Classic_Right" d="m52.79 13.84 2.52 11.33-2.02 6.52-13.49 6.79-2.27-3.46 15.26-21.18z" fill="#FFD600"/>
<path id="Trauma-Plates_Shoulder_Classic_Right" class="toggle" style="" d="m53.56 25.1-1.67 5.41-11.49 5.78-1.94-2.96 12.93-17.99 2.17 9.76z" fill="#4D7FAD"/>
</g>
</g>
</g>
<g id="ShouldersDecals" mask="url(#ShouldersMask)"/>
<g id="Gauntlets">
<g id="Left-Gauntlets"><g id="Basic_Gauntlet_Left" class="option">
<path id="Top-2_Basic_Gauntlet_Left" d="m145.21 108.31 1.36-2.17-3.89-18.32-.65 2.21 1.85 8.35-.72 2.07 2.05 7.86z" fill="#FFD600"/>
<path id="Top-1_Basic_Gauntlet_Left" d="m142.68 87.82-.65 2.21 1.85 8.35-.72 2.07 2.05 7.86-.9 1.43.47 5.09-1.57.41-2.13-7.67-1.46-.54-6.74-22.45 8.91-.93.89 4.17z" fill="#4D7FAD"/>
<path id="Accent-Bottom_Basic_Gauntlet_Left" d="m129.49 91.34-1.97.65.97 2.92 1.97-.65-.97-2.92zm1.67 5.11-1.97.65.97 2.92 1.97-.65-.97-2.92zm1.75 5.23-1.97.65.97 2.92 1.97-.65-.97-2.92z" fill="#FFD600"/>
<path id="Bottom_Basic_Gauntlet_Left" d="m127.53 91.98-.73-2.22 6.19-4.8 6.63 22.08-6.74 1.23-2.71-8.25 1.96-.65-.97-2.92-1.95.64-.72-2.19 1.97-.65-.97-2.92-1.96.65zm5.38 9.7-1.98.65.96 2.92 1.99-.65-.97-2.92z" fill="#4D7FAD"/>
<g id="Whistling-Birds_Attachment_Basic_Gauntlet_Left" class="option">
<path id="Head_Whistling-Birds_Attachment_Basic_Gauntlet_Left" d="m148.09 98.4-1.93 5.61-1.06-4.98 2.99-.63z" fill="#FFD600"/>
<path id="Birds_Whistling-Birds_Attachment_Basic_Gauntlet_Left" d="M145.66 99.29c.12-.02.27.21.33.52.07.31.02.59-.09.61-.12.03-.27-.21-.33-.52-.07-.31-.03-.59.09-.61zm.34 1.58c.12-.03.27.21.33.52.07.31.03.58-.09.61-.12.03-.27-.21-.33-.52-.07-.31-.03-.58.09-.61zm.47-1.75c.12-.02.27.21.33.52.07.31.03.59-.09.61-.12.03-.27-.21-.33-.52-.07-.31-.03-.59.09-.61zm-.11 4.28a.99.99 0 0 1-.11-.33c-.07-.31-.03-.59.09-.61.08-.02.18.09.26.27l-.24.67zm.56-1.63a1.04 1.04 0 0 1-.2-.46c-.07-.31-.02-.58.09-.61.11-.02.25.18.32.47l-.21.6zm.59-1.69c-.11 0-.25-.23-.32-.52-.07-.31-.03-.58.09-.61.12-.03.27.21.33.52l.03.21-.13.4z" fill="#4D7FAD"/>
<g id="Base_Whistling-Birds_Attachment_Basic_Gauntlet_Left" fill="#A3A3A3">
<path d="m144.7 83.41-2.01.42.19.88 2.01-.42-.19-.88z"/>
<path d="m145.07 84.25-2.2.46 3.01 14.14 2.19-.46-3-14.14z"/>
<path d="m145.39 84.34-.29.06 2.6 12.22.29-.06-2.6-12.22zm-.67-.01-.29.06 2.83 13.26.29-.06-2.83-13.26z"/>
</g>
<g id="Accent_Whistling-Birds_Attachment_Basic_Gauntlet_Left" fill="#A3A3A3">
<path d="m142.64 83.62-.8.17 3.06 14.36.8-.17-3.06-14.36z"/>
<path d="m148.06 97.48-3.16.66.19.88 3.16-.66-.19-.88zm-4.05-13.92-1.32.28.44 2.06 1.32-.28-.44-2.06z"/>
<path d="m144.13 85.68-1 .21 1.04 4.9.61-2.05-.65-3.06z"/>
</g>
</g></g>
</g>
<g id="Right-Gauntlets"><g id="Basic_Gauntlet_Right" class="option">
<path id="Top-2_Basic_Gauntlet_Right" d="m24.75 108.31-1.36-2.17 3.89-18.32.65 2.21-1.85 8.35.72 2.07-2.05 7.86z" fill="#FFD600"/>
<path id="Top-1_Basic_Gauntlet_Right" d="m27.28 87.82.65 2.21-1.85 8.35.72 2.07-2.05 7.86.9 1.43-.47 5.09 1.57.41 2.13-7.67 1.46-.54 6.74-22.45-8.91-.93-.89 4.17z" fill="#4D7FAD"/>
<path id="Accent-Bottom_Basic_Gauntlet_Right" d="m40.47 91.34 1.97.65-.97 2.92-1.97-.65.97-2.92zm-1.68 5.11 1.97.65-.97 2.92-1.97-.65.97-2.92zm-1.74 5.23 1.97.65-.97 2.92-1.97-.65.97-2.92z" fill="#FFD600"/>
<path id="Bottom_Basic_Gauntlet_Right" d="m42.43 91.98.73-2.22-6.19-4.8-6.63 22.08 6.74 1.23 2.71-8.25-1.96-.65.97-2.92 1.95.64.72-2.19-1.97-.65.97-2.92 1.96.65zm-5.38 9.7 1.98.65-.96 2.92-1.99-.65.97-2.92z" fill="#4D7FAD"/><g id="Flamethrower_Attachment_Basic_Gauntlet_Right" class="option">
<g id="Tubes_Flamethrower_Attachment_Basic_Gauntlet_Right" fill="#A3A3A3">
<path d="m26.5 84.51.82.17-5.18 24.73-.82-.17 5.18-24.73zm-1.87-.38.82.17-3.71 17.73-.82-.17 3.71-17.73z"/>
<path d="m26.02 86.03 1.12.23-1.23 5.89-1.12-.23 1.23-5.89zm-1.87-.39 1.12.23-1.23 5.89-1.12-.23 1.23-5.89z"/>
</g>
<g id="Main_Flamethrower_Attachment_Basic_Gauntlet_Right" fill="#FFD600">
<path d="m24.28 84.05 3.36.69-.32 1.55-3.36-.7.32-1.54zm-1.63 7.43 3.51.73-.2.94-3.51-.73.2-.94zm-.06.97 3.22.67-.1.48-3.22-.67.1-.48z"/>
<path d="m25.92 91.54.54.13-.61 2.88-.54-.13.61-2.88z"/>
</g>
<g id="Accent_Flamethrower_Attachment_Basic_Gauntlet_Right" fill="#FFD600">
<path d="m20.89 101.85.87.18-.12 1.24-1.14-.24.39-1.18zm.98-6.37 1.55.32-.39 1.88-1.55-.32.39-1.88z"/>
<path d="m21.69 97.4 1.12.23-.39 1.88-1.12-.23.39-1.88zm.13 8.68 1.12.23-.54 2.57-1.12-.23.54-2.57zm1.74-8.29 1.12.23-.73 3.5-1.12-.23.73-3.5z"/>
<path d="m21.34 107.33 1.55.32-.11.5-1.55-.32.11-.5z"/>
</g>
<path id="Base_Flamethrower_Attachment_Basic_Gauntlet_Right" d="m26.46 91.67 1.65-7.8-1.01.17-2.79 13.19.84.61.7-3.3-.54-.13.61-2.88.54.14z" fill="#4D7FAD"/>
</g></g>
</g>
</g>
<g id="GauntletsDecals" mask="url(#GauntletsMask)"/>
<g id="Shins">
<g id="Left-Shin"><g id="Basic_Shin_Left" class="option">
<path id="Shin_Basic-Shin_Left" d="m121.62 179.69-5.07-5.47-10.06 1.36-3.67 8.71 6.88 29.05c4.47 1.82 10.9.87 14.37-2.3l-2.45-31.35" fill="#FFD600"/>
<path id="Trauma-Plating_Basic-Shin_Left" class="toggle" style="" d="m122.31 210.31-2.33-29.91-4.07-4.4-8.22 1.11-3.08 7.32 6.54 27.63c3.58 1.12 8.25.44 11.16-1.75" fill="#A3A3A3"/>
<g id="Ridge_Basic-Shin_Left" class="toggle" style="display:none"/>
</g>
</g>
<g id="Right-Shin"><g id="Basic_Shin_Right" class="option">
<path id="Shin_Basic-Shin_Right" d="m48.3 179.69 5.07-5.47 10.06 1.36 3.67 8.71-6.88 29.05c-4.47 1.82-10.9.87-14.36-2.3l2.44-31.35" fill="#FFD600"/>
<path id="Trauma-Plating_Basic-Shin_Right" class="toggle" style="" d="m47.62 210.31 2.33-29.91 4.07-4.4 8.22 1.11 3.08 7.32-6.54 27.63c-3.58 1.12-8.25.44-11.16-1.75" fill="#A3A3A3"/>
<g id="Ridge_Basic-Shin_Right" class="toggle" style="display:none"/>
</g>
</g>
</g>
<g id="ShinsDecals" mask="url(#ShinsMask)"/>
<g id="Foot">
<g id="Left-Ankle"><g id="Heavy_Ankle_Left" class="option">
<path id="Plate_Heavy-Ankle_Left" d="m107.19 218.98.36 3.6 7.43 9.26 7.24-3.25 7.88-2.03-5.95-10.52c-3.01-.42-6.51-.06-10.55 1.15l-2.25 1.97-4.16-.18" fill="#4D7FAD"/>
<path id="Trim_Heavy-Ankle_Left" d="m113.6 217.2.85 1.02-2.65 2.25-3-.13.11 1.46 6.44 7.92 6.46-3.01 7.78-1.84.81 1.62-8.16 2.1-7.24 3.25-7.43-9.26-.36-3.6 4.16.18 2.23-1.96" fill="#FFD600"/>
</g></g>
<g id="Left-Toe">
<g id="Armored_Toe_Left" class="option">
<g id="Plate_Armored_Toe_Left" fill="#4D7FAD">
<path d="m119.07 233.15 9.63 5.32 7.27.49 5.83-1.47c1.22-1.01 1.71-3.29.66-5.55l-8.21-3.88-6.44 1.61-8.74 3.48"/>
<path d="M127.13 229.95s7.51 2.19 8.45 3.48c1.04 1.44.39 5.53.39 5.53"/>
</g>
<g id="Trim_Armored_Toe_Left" fill="#FFD600">
<path d="m133.13 227.42-7.73 1.86-6.52 3.94 1.35.74 6.91-4.02 7.7-1.8-1.71-.72"/>
<path d="m125.39 229.29 1.74.66"/>
</g>
</g></g>
<g id="Right-Ankle"><g id="Heavy_Ankle_Right" class="option">
<path id="Plate_Heavy-Ankle_Right" d="m62.68 218.98-.36 3.6-7.43 9.26-7.24-3.25-7.88-2.03 5.95-10.52c3-.42 6.51-.06 10.55 1.15l2.25 1.97 4.16-.18" fill="#4D7FAD"/>
<path id="Trim_Heavy-Ankle_Right" d="m56.27 217.2-.85 1.02 2.65 2.25 3.01-.13-.11 1.46-6.44 7.92-6.46-3.01-7.78-1.84-.81 1.62 8.16 2.1 7.24 3.25 7.43-9.26.36-3.6-4.16.18-2.24-1.96" fill="#FFD600"/>
</g></g>
<g id="Right-Toe">
<g id="Armored_Toe_Right" class="option">
<g id="Plate_Armored_Toe_Right" fill="#4D7FAD">
<path d="m50.81 233.15-9.63 5.32-7.27.49-5.83-1.47c-1.22-1.01-1.71-3.29-.66-5.55l8.21-3.88 6.44 1.61 8.74 3.48"/>
<path d="M42.74 229.95s-7.51 2.19-8.45 3.48c-1.04 1.44-.39 5.53-.39 5.53"/>
</g>
<g id="Trim_Armored_Toe_Right" fill="#FFD600">
<path d="m36.75 227.42 7.73 1.86 6.52 3.94-1.35.74-6.91-4.02-7.7-1.8 1.71-.72"/>
<path d="m44.48 229.29-1.74.66"/>
</g>
</g></g>
</g>
<g id="FootDecals" mask="url(#FootMask)"/>
<g id="Knees">
<g id="Left-Knee"><g id="Galaxy_Knee_Left" class="option">
<g id="Missiles_Galaxy-Knee_Left" class="toggle" style="">
<path id="Base_Missiles_Galaxy-Knee_Left" d="m118.35 160.4-3.12 9.22 2.65-.46c.43-.07.79-.37.93-.78l1.94-5.36a1.21 1.21 0 0 0-.5-1.44l-1.9-1.18z" fill="#FFD600"/>
<g id="Missile-2_Missiles_Galaxy-Knee_Left" fill="#FF0000">
<path d="M117.86 166.16a1.03 1.03 0 0 0-1.26.75c-.14.55.2 1.12.76 1.26.56.14 1.12-.19 1.25-.75.14-.55-.2-1.12-.75-1.26z"/>
<path d="M117.78 166.49a.7.7 0 0 0-.84.5c-.09.37.14.75.51.85s.75-.13.84-.5a.7.7 0 0 0-.51-.85z"/>
</g>
<g id="Missile-1_Missiles_Galaxy-Knee_Left" fill="#FF0000">
<path d="M119.36 161.93c-.56-.14-1.12.2-1.26.75-.14.55.2 1.12.76 1.26.56.14 1.12-.2 1.25-.75.14-.55-.2-1.12-.75-1.26z"/>
<path d="M119.28 162.26a.7.7 0 0 0-.85.5c-.09.37.14.75.51.85.38.09.75-.13.85-.51s-.13-.74-.51-.84z"/>
</g>
</g>
<g id="Strap_Galaxy-Knee_Left" fill="#A46A39">
<path d="m98.05 161.5 2.8-.43.4 2.59-2.81.43-.39-2.59z"/>
<path d="m96.61 162.04 1.49-.22.3 1.96-1.48.22-.31-1.96z"/>
</g>
<path id="Knee_Galaxy-Knee_Left" d="m114.57 171.57 4-11.85-4.23-4.86-12.38 1.88-2.58 5.89 7.37 10.13 7.82-1.19z" fill="#4D7FAD"/>
<path id="Trim_Galaxy-Knee_Left" d="m105.79 156.15 4.71-.72.47 3.1-4.71.72-.47-3.1zm-6.42 6.47c4.44.26 8.92 9.89 8.92 9.89l-1.56.24-7.36-10.13zm19.2-2.91c-4.16 1.56-5.56 12.09-5.56 12.09l1.56-.24 4-11.85z" fill="#FFD600"/>
</g></g>
<g id="Right-Knee"><g id="Galaxy_Knee_Right" class="option">
<g id="Missiles_Galaxy-Knee_Right" class="toggle" style="">
<path id="Base_Missiles_Galaxy-Knee_Right" d="m51.54 160.4 3.12 9.22-2.65-.46a1.18 1.18 0 0 1-.93-.78l-1.94-5.36c-.19-.54.01-1.13.5-1.44l1.9-1.18z" fill="#FFD600"/>
<g id="Missile-2_Missiles_Galaxy-Knee_Right" fill="#FF0000">
<path d="M52.03 166.16c.56-.14 1.12.19 1.26.75.14.55-.2 1.12-.76 1.26s-1.12-.19-1.25-.75c-.14-.55.2-1.12.75-1.26z"/>
<path d="M52.11 166.49a.7.7 0 0 1 .84.5c.09.37-.14.75-.51.85s-.75-.13-.85-.5a.73.73 0 0 1 .52-.85z"/>
</g>
<g id="Missile-1_Missiles_Galaxy-Knee_Right" fill="#FF0000">
<path d="M50.54 161.93c.56-.14 1.12.2 1.26.75a1.04 1.04 0 0 1-2.02.51c-.14-.55.2-1.12.76-1.26z"/>
<path d="M50.61 162.26a.7.7 0 0 1 .85.5.71.71 0 0 1-.51.85.7.7 0 0 1-.84-.51.7.7 0 0 1 .5-.84z"/>
</g>
</g>
<path id="Strap_Galaxy-Knee_Right" d="m71.84 161.5-2.81-.43-.4 2.59 2.8.43.41-2.59zm1.44.54-1.49-.22-.3 1.96 1.49.23.3-1.97z" fill="#A46A39"/>
<path id="Knee_Galaxy-Knee_Right" d="m55.32 171.57-4-11.85 4.23-4.86 12.38 1.88 2.58 5.89-7.37 10.13-7.82-1.19z" fill="#4D7FAD"/>
<path id="Trim_Galaxy-Knee_Right" d="m64.1 156.15-4.71-.72-.47 3.1 4.71.72.47-3.1zm6.42 6.47c-4.44.26-8.92 9.89-8.92 9.89l1.56.24 7.36-10.13zm-19.19-2.91c4.16 1.56 5.55 12.09 5.55 12.09l-1.56-.24-3.99-11.85z" fill="#FFD600"/>
</g></g>
</g>
<g id="KneesDecals" mask="url(#KneesMask)"/>
<g id="Thighs">
<g id="Left-Thigh"><g id="Basic_Thigh_Left" class="option">
<path id="Thigh_Basic-Thigh_Left" d="M120.21 115.6s-5.03-6.43-7.59-7.49a8.12 8.12 0 0 0-7.78 1.09c-3.19 2.54-10.51 8.04-11.35 14.16-.93 6.83 4.08 21.95 5.78 26.84.58 1.66 2.77 2.41 4.44 2.48 3.1.12 11.57-.15 13.59-4.69 2.75-6.18 2.91-32.39 2.91-32.39" fill="#FFD600"/>
<path id="Trauma-Plate_Basic-Thigh_Left" class="toggle" style="" d="M118.5 116.19c-.75-.93-2.56-3.1-4.3-4.77a9.07 9.07 0 0 0-2.25-1.75 6.31 6.31 0 0 0-6.06.85c-1.85 1.47-5.15 3.97-7.66 7.02-1.52 1.85-2.77 3.9-3.07 6.05-.9 6.64 4.05 21.31 5.7 26.06.14.42.54.67.95.87.61.3 1.33.45 1.94.47 1.73.07 5.27.02 8.23-.96 1.63-.54 3.12-1.33 3.75-2.73.78-1.75 1.3-5.22 1.7-9.2.88-8.51 1.04-19.29 1.07-21.91" fill="#A3A3A3"/>
<g id="Ridge_Basic-Thigh_Left" class="toggle" style="display:none"/>
</g>
</g>
<g id="Right-Thigh"><g id="Basic_Thigh_Right" class="option">
<path id="Thigh_Basic-Thigh_Right" d="M49.69 115.6s5.03-6.43 7.59-7.49a8.12 8.12 0 0 1 7.78 1.09c3.19 2.54 10.51 8.04 11.35 14.16.93 6.83-4.08 21.95-5.78 26.84-.58 1.66-2.77 2.41-4.44 2.48-3.1.12-11.57-.15-13.59-4.69-2.75-6.18-2.91-32.39-2.91-32.39" fill="#FFD600"/>
<path id="Trauma-Plate_Basic-Thigh_Right" class="toggle" style="" d="M51.39 116.19c.75-.93 2.56-3.1 4.3-4.77a9.07 9.07 0 0 1 2.25-1.75 6.31 6.31 0 0 1 6.06.85c1.85 1.47 5.15 3.97 7.66 7.02 1.52 1.85 2.77 3.9 3.07 6.05.9 6.64-4.05 21.31-5.7 26.06-.14.42-.54.67-.95.87-.61.3-1.33.45-1.94.47-1.73.07-5.27.02-8.23-.96-1.63-.54-3.12-1.33-3.75-2.73-.78-1.75-1.3-5.22-1.7-9.2a278.92 278.92 0 0 1-1.07-21.91" fill="#A3A3A3"/>
<g id="Ridge_Basic-Thigh_Right" class="toggle" style="display:none"/>
</g>
</g>
</g>
<g id="ThighsDecals" mask="url(#ThighsMask)"/>
<g id="Groin"><g id="Basic_Groin" class="option">
<path id="Groin-Plate_Basic" d="M78.67 122.29 68.22 99.4h33.42l-10.45 22.89-6.26 5.46-6.26-5.46z" fill="#FFD600"/>
<path id="Trauma-Plating_Groin" class="toggle" style="" d="m79.77 120.38-8.61-18.86H98.7l-8.61 18.86-5.16 4.49-5.16-4.49z" fill="#4D7FAD"/>
</g>
</g>
<g id="GroinDecals" mask="url(#GroinMask)"/>
<g id="Waist">
<g id="Accessories_Waist">
<g id="Kama" class="toggle" style="">
<g id="Clean_Kama" class="option">
<path id="Trim_Kama-Clean" d="m101.37 83.6 3.59 57.21 26.42 17.47-20.04-77.38-9.97 2.7zm-32.82 0-3.59 57.21-26.42 17.47L58.58 80.9l9.97 2.7z" fill="#FFD600"/>
<path id="Main_Kama-Clean" d="m103.25 83.48 3.47 55.33 23.83 16.29-19.22-74.21-8.08 2.59zm-36.58 0-3.47 55.33-23.84 16.29 19.22-74.21 8.09 2.59z" fill="#4D7FAD"/>
</g></g>
<g id="Loin-Cloth" class="toggle" style="">
<g id="Clean_Loin-Cloth" class="option">
<path id="Trim_Loin-Cloth-Clean" d="M97.6 87.28H72.32v44.75l12.64 12.57 12.64-12.57V87.28z" fill="#FFD600"/>
<path id="Main_Loin-Cloth-Clean" d="M95.98 91.99H73.94V131l11.02 10.96L95.98 131V91.99z" fill="#4D7FAD"/>
</g></g>
<g id="Left-Holster" class="toggle" style=""><g id="Belt-Holster_Left" class="option">
<g id="Weapon_Belt-Holster-Left">
<g id="Main_Weapon_Belt-Holster-Left" fill="#626262">
<path d="m116.79 99.11-.24-3.6.62-.04-.15-2.26-.62.04-.08-1.18c-.03-.38.46-.73 1.1-.77l5.37-.36c.63-.04 1.17.23 1.19.62l.08 1.18-.62.04.15 2.26.62-.04.24 3.6-1.46.1.67 9.95-4.73.31-.67-9.95-1.47.1z"/>
<path d="m123.79 98.11-.84.06.8 11.96-4.73.31-.8-11.96-.84.06-.18-2.73 6.41-.42.18 2.72zm-1.74-6.33-3.8.25.25 3.69 3.8-.25-.25-3.69z"/>
<path d="m119.38 99.49-.62.04.63 9.4.62-.04-.63-9.4zm1.44-2.26-.62.04.63 9.4.62-.04-.63-9.4zm1.74 2.05-.62.04.63 9.4.62-.04-.63-9.4z"/>
</g>
<g id="Accent_Weapon_Belt-Holster-Left" fill="#424242">
<path d="m119.09 96.06.03.38 2.68-.18-.03-.38-2.68.18z"/>
<path d="m119.11 96.44.03.38 2.68-.18-.03-.38-2.68.18zm-.05-.76.02.38 2.68-.18-.03-.38-2.67.18zm-.31-4.63.03.38 2.68-.18-.03-.38-2.68.18z"/>
<path d="m118.88 91.99-.62.04.25 3.69.62-.04-.25-3.69zm3.17-.21-.62.04.25 3.69.62-.04-.25-3.69zm-.12 7.54-.94.06.63 9.4.94-.06-.63-9.4zm-1.6.1-.94.06.63 9.4.94-.06-.63-9.4z"/>
</g>
</g>
<path id="Holster_Belt-Holster-Left" d="m118.4 112.89-2.47-14.99 8.29 10.56.79 20.68c-1.44 1.89-3.04 2.08-4.84.36l-1.77-16.61z" fill="#4D7FAD"/>
</g>
</g>
<g id="Right-Holster" class="toggle" style=""><g id="Belt-Holster_Right" class="option">
<g id="Weapon_Belt-Holster-Right">
<g id="Main_Weapon_Belt-Holster-Right" fill="#626262">
<path d="m53.1 99.11.24-3.6-.62-.04.15-2.26.62.04.08-1.18c.03-.38-.47-.73-1.1-.77l-5.37-.36c-.63-.04-1.17.23-1.19.62l-.08 1.18.62.04-.15 2.26-.62-.04-.24 3.6 1.46.1-.67 9.95 4.73.31.67-9.95 1.47.1z"/>
<path d="m46.1 98.11.84.06-.8 11.96 4.73.31.8-11.96.84.06.18-2.73-6.41-.42-.18 2.72zm1.74-6.33 3.8.25-.25 3.69-3.8-.25.25-3.69z"/>
<path d="m50.51 99.49.62.04-.63 9.4-.62-.04.63-9.4zm-1.44-2.26.62.04-.63 9.4-.62-.04.63-9.4zm-1.74 2.05.62.04-.63 9.4-.62-.04.63-9.4z"/>
</g>
<g id="Accent_Weapon_Belt-Holster-Right" fill="#424242">
<path d="m50.8 96.06-.03.38-2.68-.18.02-.38 2.69.18z"/>
<path d="m50.78 96.44-.03.38-2.68-.18.03-.38 2.68.18zm.05-.76-.02.38-2.68-.18.03-.38 2.67.18zm.31-4.63-.02.38-2.68-.18.03-.38 2.67.18z"/>
<path d="m51.01 91.99.62.04-.25 3.69-.62-.04.25-3.69zm-3.17-.21.62.04-.25 3.69-.62-.04.25-3.69zm.12 7.54.94.06-.63 9.4-.94-.06.63-9.4zm1.6.1.94.06-.63 9.4-.94-.06.63-9.4z"/>
</g>
</g>
<path id="Holster_Belt-Holster-Right" d="m51.49 112.89 2.47-14.99-8.29 10.56-.79 20.68c1.44 1.89 3.04 2.08 4.84.36l1.77-16.61z" fill="#4D7FAD"/>
</g>
</g>
<g id="Left-Trophy" class="toggle" style="display:none"/>
<g id="Right-Trophy" class="toggle" style="display:none"/>
</g>
<g id="Under-Belt"><g id="Girth-Belt" class="option" fill="#505050">
<path d="M84.93 84.93c-9.33 0-27.98-2.25-27.98-2.25l.61-1.91 27.37 2.25 27.37-2.25.6 1.91c.01 0-18.65 2.25-27.97 2.25z"/>
<path d="M84.93 86.84c-9.52 0-28.56-2.25-28.56-2.25l.58-1.91 27.98 2.25 27.98-2.25.58 1.91s-19.04 2.25-28.56 2.25z"/>
<path d="M84.93 88.75c-9.67 0-28.99-2.25-28.99-2.25l.43-1.91 28.56 2.25 28.56-2.25.43 1.91c0-.01-19.32 2.25-28.99 2.25z"/>
<path d="M84.93 90.65c-9.79 0-29.36-2.25-29.36-2.25l.37-1.91 28.99 2.25 28.99-2.25.37 1.91s-19.57 2.25-29.36 2.25z"/>
<path d="M84.93 92.56c-9.9 0-29.69-2.25-29.69-2.25l.33-1.91 29.36 2.25 29.36-2.25.33 1.91s-19.79 2.25-29.69 2.25z"/>
<path d="M84.93 94.47c-10 0-30-2.25-30-2.25l.31-1.91 29.69 2.25 29.69-2.25.31 1.91c0-.01-20 2.25-30 2.25z"/>
<path d="M84.93 96.37c-10.1 0-30.31-2.25-30.31-2.25l.31-1.91 30 2.25 30-2.25.31 1.91s-20.21 2.25-30.31 2.25z"/>
<path d="M84.93 98.28c-10.21 0-30.62-2.25-30.62-2.25l.32-1.91 30.31 2.25 30.31-2.25.32 1.91c-.02 0-20.43 2.25-30.64 2.25z"/>
<path d="M84.93 100.19c-10.32 0-30.97-2.25-30.97-2.25l.34-1.91 30.62 2.25 30.62-2.25.35 1.91c.01-.01-20.64 2.25-30.96 2.25z"/>
<path d="M84.93 102.09c-10.45 0-31.36-2.25-31.36-2.25l.39-1.91 30.97 2.25 30.97-2.25.39 1.91s-20.91 2.25-31.36 2.25z"/>
</g>
</g>
<g id="Belt"><g id="Pouch-Belt-6" class="option">
<path id="Main_Pouch-Belt-6" d="M115.21 92.95c-6.82.61-22.4 2.83-30.27 2.83-7.94 0-23.52-2.23-30.26-2.82l1.01-7.93c5.53.49 21.56 2.74 29.26 2.74 7.47 0 23.17-2.23 29.07-2.76l1.19 7.94z" fill="#A46A39"/>
<path id="Buckle_Pouch-Belt-6" d="M79.37 87.01h11.28v9.21H79.37z" fill="#CBB95C"/>
<g id="Pouches_Pouch-Belt-6" fill="#A46A39">
<path d="M70.81 84.98c-.29-.02-.58.03-.84.13l-2.1.82 8.08.46 2.19-.94c-.01.01-5.7-.36-7.33-.47z"/>
<path d="M78.41 85.73a.24.24 0 0 0-.1-.22.26.26 0 0 0-.24-.03l-2.14.91-1.05 12.41a7.2 7.2 0 0 1 2.15-.84c.41-.08.7-.43.71-.85.14-3.79.29-7.6.67-11.38z"/>
<path d="m75.94 86.4-8.08-.46c-.05 1.89-.23 3.77-.33 5.65-.11 2.08-.15 4.18-.34 6.28-.01.15.04.3.14.41.1.11.25.18.4.18 2.32-.01 4.63.13 6.93.4a.5.5 0 0 0 .4-.12.52.52 0 0 0 .19-.37l.37-5.34.32-6.63z"/>
<path d="m75.94 86.4-8.08-.46-.38 3.14a2.73 2.73 0 0 0 2.58 3.07l2.97.17a2.77 2.77 0 0 0 2.93-2.76l-.02-3.16z"/>
<path d="M71.64 90.75c.29.02.51.26.49.55a.53.53 0 0 1-.55.49.52.52 0 0 1-.49-.55c.02-.28.27-.5.55-.49zm-11.99-7.28c-.31-.02-.62.03-.91.16l-1.86.81 7.38.42 2-.95-6.61-.44z"/>
<path d="M66.52 84.19a.23.23 0 0 0-.1-.22.23.23 0 0 0-.24-.02l-1.91.9-1.02 12.42a6.9 6.9 0 0 1 1.93-.85.9.9 0 0 0 .69-.84c.12-3.8.28-7.6.65-11.39z"/>
<path d="m64.26 84.85-7.38-.42c-.06 1.89-.23 3.77-.33 5.65-.11 2.08-.16 4.17-.34 6.28-.01.15.04.3.14.41s.25.18.4.17c2.08-.01 4.15.11 6.22.36a.5.5 0 0 0 .4-.12.54.54 0 0 0 .19-.37l.37-5.33.33-6.63z"/>
<path d="m64.26 84.85-7.38-.42-.36 3.15a2.75 2.75 0 0 0 2.59 3.05l2.23.13a2.8 2.8 0 0 0 2.06-.75c.55-.52.87-1.25.86-2v-3.16z"/>
<path d="M60.31 89.23c.26.01.46.26.44.54-.02.28-.24.5-.5.49-.26-.01-.46-.26-.44-.54.02-.28.24-.5.5-.49zm-8.09-4.94.55-.85 2.83.09.35 1.06-3.73-.3z"/>
<path d="M55.93 84.69a.2.2 0 0 0-.06-.18.23.23 0 0 0-.17-.08l-3.48-.13-.5 11.17c.11.28 1.53.46 2.68.49a.9.9 0 0 0 .92-.88c.08-3.47.21-6.94.61-10.39zm43.15.29c.29-.02.58.03.85.13l2.1.82-8.08.46-2.19-.94 7.32-.47z"/>
<path d="M91.48 85.73a.24.24 0 0 1 .1-.22.26.26 0 0 1 .24-.03l2.14.91L95 98.81a7.2 7.2 0 0 0-2.15-.84.88.88 0 0 1-.71-.85c-.13-3.8-.28-7.61-.66-11.39z"/>
<path d="m93.95 86.4 8.08-.46c.05 1.89.23 3.77.33 5.65.11 2.08.15 4.18.34 6.28.01.15-.04.3-.14.41a.55.55 0 0 1-.4.18c-2.32-.01-4.63.13-6.93.4a.5.5 0 0 1-.4-.12.52.52 0 0 1-.19-.37l-.37-5.34-.32-6.63z"/>
<path d="m93.95 86.4 8.08-.46.38 3.14a2.76 2.76 0 0 1-2.58 3.07l-2.97.17a2.8 2.8 0 0 1-2.06-.75 2.73 2.73 0 0 1-.86-2.01l.01-3.16z"/>
<path d="M98.25 90.75a.52.52 0 0 0-.49.55c.02.28.26.5.55.49a.52.52 0 0 0 .49-.55.53.53 0 0 0-.55-.49zm11.99-7.28c.31-.02.62.03.91.16l1.86.81-7.38.42-2-.95 6.61-.44z"/>
<path d="M103.37 84.19a.23.23 0 0 1 .1-.22.23.23 0 0 1 .24-.02l1.91.9 1.02 12.42a6.9 6.9 0 0 0-1.93-.85.9.9 0 0 1-.69-.84c-.12-3.8-.28-7.6-.65-11.39z"/>
<path d="m105.63 84.85 7.38-.42c.06 1.89.23 3.77.33 5.65.11 2.08.16 4.17.34 6.28.01.15-.04.3-.14.41a.5.5 0 0 1-.4.17c-2.08-.01-4.15.11-6.22.36a.5.5 0 0 1-.4-.12.54.54 0 0 1-.19-.37l-.37-5.33-.33-6.63z"/>
<path d="m105.63 84.85 7.38-.42.36 3.15a2.75 2.75 0 0 1-2.59 3.05l-2.23.13a2.8 2.8 0 0 1-2.06-.75 2.72 2.72 0 0 1-.86-2v-3.16z"/>
<path d="M109.58 89.23c-.26.01-.46.26-.44.54.02.28.24.5.5.49.26-.01.46-.26.44-.54-.01-.28-.24-.5-.5-.49zm8.09-4.94-.55-.85-2.83.09-.35 1.06 3.73-.3z"/>
<path d="M113.96 84.69a.2.2 0 0 1 .06-.18.23.23 0 0 1 .18-.08l3.48-.13.5 11.17c-.11.28-1.53.46-2.68.49a.9.9 0 0 1-.92-.88 116.3 116.3 0 0 0-.62-10.39z"/>
</g>
</g></g>
</g>
<g id="WaistDecals" mask="url(#WaistMask)"/>
<g id="Extras_Front">
<g id="Front"><g id="None_Front" class="option"/>
</g>
</g>
<g id="Extras-FrontDecals" mask="url(#FrontMask)"/>
</g>
</svg>