<?xml version='1.0' encoding='UTF-8'?>
<svg version="1.1" id="Male-Body" xmlns="http://www.w3.org/2000/svg" xmlns:serif="http://www.serif.com/" viewBox="0 -55 170 310" style="stroke-width: 0.2px; fill-rule: evenodd; stroke-linejoin: round;" width="510" height="930">
<style>
mask {
mask-type: alpha;
}
.decal {
stroke: none;
}
</style>
<defs id="Masks" stroke="none">
<mask id="HelmetsMask"> <use href="#Helmets"/> </mask>
<mask id="CollarMask"> <use href="#Collar"/> </mask>
<mask id="ShouldersMask"> <use href="#Shoulders"/> </mask>
<mask id="ChestMask"> <use href="#Chest"/> </mask>
<mask id="BicepsMask"> <use href="#Biceps"/> </mask>
<mask id="GauntletsMask"> <use href="#Gauntlets"/> </mask>
<mask id="WaistMask"> <use href="#Waist"/> </mask>
<mask id="GroinMask"> <use href="#Groin"/> </mask>
<mask id="ThighsMask"> <use href="#Thighs"/> </mask>
<mask id="KneesMask"> <use href="#Knees"/> </mask>
<mask id="ShinsMask"> <use href="#Shins"/> </mask>
<mask id="FootMask"> <use href="#Foot"/> </mask>
</defs>
<defs id="Decals"/><metadata><rdf:rdf xmlns:rdf="http://www.w3.org/1999/02/22-rdf-syntax-ns#" xmlns:rdfs="http://www.w3.org/2000/01/rdf-schema#" xmlns:dc="http://purl.org/dc/elements/1.1/"><rdf:description><dc:creator>MandoCreator</dc:creator><dc:publisher>https://www.mandocreator.com</dc:publisher><dc:description>Your Beskar'gam - created by MandoCreator</dc:description><dc:format>image/svg+xml</dc:format><dc:type>Image</dc:type><dc:title>MandoCreator - Ner Berskar'gam</dc:title><dc:date>2022-03-14T14:40:00.565Z</dc:date></rdf:description></rdf:rdf></metadata><g id="Main-Body" fill="white" stroke="black">
<g id="Extras_Back">
<g id="Back"><g id="NO-CAPES_Back" class="option"/>
</g>
</g>
<g id="Extras-BackDecals" mask="url(#BackMask)"/>
<g id="Suit">
<g id="Neck-Seal"><g id="Standard-Neck-Seal" class="option" fill="#5B3718">
<path d="M98.75 7.5c0-.9-.93-1.62-2.07-1.62 0 0-7.8.85-11.7.85s-11.7-.85-11.7-.85c-1.14 0-2.07.73-2.07 1.62s.93 1.62 2.07 1.62c0 0 7.8.85 11.7.85s11.7-.85 11.7-.85c1.15.01 2.07-.72 2.07-1.62z"/>
<path d="M99.45 9.4c0-.94-.97-1.71-2.17-1.71 0 0-8.2.9-12.29.9s-12.3-.89-12.3-.89c-1.2 0-2.17.76-2.17 1.71s.97 1.71 2.17 1.71c0 0 8.2.9 12.29.9s12.29-.9 12.29-.9c1.21-.01 2.18-.78 2.18-1.72z"/>
<path d="M100.24 11.76c0-.99-1.03-1.8-2.29-1.8 0 0-8.64.95-12.96.95s-12.97-.95-12.97-.95c-1.26 0-2.29.81-2.29 1.8s1.03 1.8 2.29 1.8c0 0 8.64.95 12.97.95s12.96-.95 12.96-.95c1.26 0 2.29-.81 2.29-1.8z"/>
<path d="M101 13.92c0-1.04-1.08-1.89-2.41-1.89 0 0-9.08.99-13.61.99s-13.61-.99-13.61-.99c-1.33 0-2.41.85-2.41 1.89s1.08 1.89 2.41 1.89c0 0 9.08.99 13.61.99s13.61-.99 13.61-.99c1.34 0 2.41-.85 2.41-1.89z"/>
<path d="M101.76 16.04c0-.79-1.13-1.43-2.52-1.43 0 0-9.51.75-14.26.75s-14.26-.75-14.26-.75c-1.39 0-2.52.64-2.52 1.43 0 .79 1.13 1.43 2.52 1.43 0 0 9.51.75 14.26.75s14.26-.75 14.26-.75c1.39 0 2.52-.64 2.52-1.43z"/>
<path d="M101.76 18.42c0-.79-1.13-1.43-2.52-1.43 0 0-9.51.75-14.26.75s-14.26-.75-14.26-.75c-1.39 0-2.52.64-2.52 1.43 0 .79 1.13 1.43 2.52 1.43 0 0 9.51 1.44 14.26 1.44s14.26-1.44 14.26-1.44c1.39-.01 2.52-.64 2.52-1.43z"/>
</g>
</g>
<path id="Flight-Suit" d="m73.36 158.45-1.49 8.72-11.03 53.11s-4.93 2.96-7.47 3.46c-2.53.5-7.73-.44-7.73-.44l3.85-43 2.9-18.36.66-7.82s-2.53-22.78-1.7-34.14c.82-11.36 6.66-34.01 6.66-34.01l26.98.58 26.97-.58s5.83 22.66 6.66 34.01c.83 11.36-1.7 34.14-1.7 34.14l.66 7.82 2.9 18.36 3.85 43s-5.32 1.19-7.85.69c-2.53-.5-7.34-3.71-7.34-3.71L98.1 167.16l-1.49-8.72-11.62-30.33-11.63 30.34zm56.05-115.12 11.98 41.65 1.04 21.47-9.55 1.83-6.05-20.21-13.65-33.95.69-15.55 2.31-3.72 13.23 8.48zm-88.82-.03 13.19-8.45 2.31 3.72.52 16.04-13.44 33.46-6.05 20.21-9.55-1.83 1.03-21.47L40.59 43.3z" fill="#000000"/>
<g id="Sleeves" class="toggle" fill="#B3005D">
<path d="m112.2 56.12 2.68 5.9s4.24-3.2 7.06-4.8 4.38-2.62 6.92-3.6a33.81 33.81 0 0 1 5.08-1.47l-6.07-12.25-5.79-9.67-11.58 5.14 1.7 20.75z"/>
<path d="M113.61 59.24c-.2-.24 5.08-4.5 8.61-6.34 3.53-1.84 10.25-3.69 10.25-3.69"/>
<path d="m57.8 56.12-2.68 5.9s-4.24-3.2-7.06-4.8c-2.82-1.59-4.38-2.62-6.92-3.6a33.81 33.81 0 0 0-5.08-1.47l6.07-12.25 5.79-9.67 11.58 5.14-1.7 20.75z"/>
<path d="M56.39 59.24c.2-.24-5.08-4.5-8.61-6.34-3.53-1.84-10.25-3.69-10.25-3.69"/>
</g>
</g>
<g id="Boots"><g id="Basic_Boots" class="option">
<path id="Main_Basic-Boot" d="M109.1 216.81c1.46.01 3.24.93 4.53 1.15 1.38.23 2.88.21 4.34.07l.59-.06h.02l.07-.01.19-.03.3-.04.12-.02 1.01-.16.53-.1.11-.03.04-.01.08-.02.36-.09.32-.09.05-.01c1.12-.3 2.24-.66 2.24-.66.33 1.45.5 3.11 1.12 4.46.99 2.13.95 3.05 2.61 4.66 1.14 1.1 4.08 3.05 5.44 3.89.57.36 1.19.63 1.81.86l.06.02c2.5.93 5.2 1.28 6.56 4.03.3.6.55 1.32.5 2-.06.87-1.02.99-1.76 1.2-1.84.52-3.43.92-5.56 1.39a28 28 0 0 1-7.1.81c-1.84-.05-3.41-.13-5.03-1.1-.65-.39-1.32-.79-1.89-1.3-1.27-1.15-2.09-2.36-3.71-3.04-1.18-.5-2.39-.91-3.63-1.2-1.76-.42-4.34-1-5.28-2.74-.37-1.3.01-1.94.13-3.06l.06-.48c.1-.73.23-1.48.26-2.26.08-1.51-.3-3.01-.4-4.51-.06-.85-.1-1.71-.11-2.56 0-.14-.08-.75.06-.8.19-.08.4-.12.62-.14l.34-.02zm-48.17 0c-1.46.01-3.24.93-4.53 1.15-1.38.23-2.88.21-4.34.07l-.59-.06h-.02l-.07-.01-.19-.03-.3-.04-.12-.02-1.01-.16-.53-.1-.11-.03-.04-.01-.08-.02-.36-.09-.32-.09-.05-.01c-1.12-.3-2.24-.66-2.24-.66-.33 1.45-.5 3.11-1.12 4.46-.99 2.13-.95 3.05-2.6 4.66-1.14 1.1-4.08 3.05-5.44 3.89-.57.36-1.19.63-1.81.86l-.06.02c-2.5.93-5.2 1.28-6.56 4.03-.3.6-.55 1.32-.5 2 .06.87 1.02.99 1.76 1.2 1.84.52 3.43.92 5.56 1.39a28 28 0 0 0 7.1.81c1.84-.05 3.41-.13 5.03-1.1.65-.39 1.32-.79 1.89-1.3 1.27-1.15 2.09-2.36 3.72-3.04 1.18-.5 2.39-.91 3.63-1.2 1.76-.42 4.33-1 5.28-2.74.37-1.3-.01-1.94-.13-3.06l-.06-.48c-.1-.73-.23-1.48-.26-2.26-.08-1.51.3-3.01.4-4.51.06-.85.1-1.71.11-2.56 0-.14.08-.75-.06-.8-.19-.08-.4-.12-.62-.14l-.36-.02z" fill="#000000"/>
<path id="Bottom_Basic-Boot" d="M108.15 230.64a4.54 4.54 0 0 0 2.33 1.86c.89.45 1.95.64 2.96.88l.41.1.6.16.18.05.1.03.19.06.08.03.33.11.12.04.06.02.5.18.11.04.45.17.12.05.27.11.12.05c.27.11.51.24.74.38l.03.02.05.03.21.14.05.03.04.03.2.15.06.04.09.07c.28.23.54.47.8.73l.07.07.42.43.45.45.48.46.06.05.15.13.03.02.25.2.17.13.03.02.22.15.09.06.33.21.23.14.09.06.25.15.11.07.08.04.08.04.34.17.16.07.05.02c.34.15.68.26 1.02.35l.06.01.08.02.07.02.21.04.16.03.13.02.04.01.11.02.18.02.26.03a13.2 13.2 0 0 0 .72.06l.36.02h.11l.7.02.46.01h.63l.83-.03.12-.01.11-.01.1-.01 1.21-.11.11-.01.3-.04.13-.02.11-.01.25-.04 1.06-.18.24-.04.1-.02.11-.02.11-.02.11-.02.08-.02.26-.05.11-.02.3-.07.26-.06h.03l1.58-.36.19-.04.42-.1.17-.04.08-.02.58-.15.35-.09 1-.26.15-.04.17-.04.06-.02.79-.22.06-.02.09-.02.28-.07.09-.03.14-.04.06-.02.11-.04.1-.03.04-.02.05-.02.03-.01.05-.02.05-.03.02-.01.05-.03.06-.04.06-.04.05-.04a1 1 0 0 0 .22-.24s.49.73.53 1.99c-1.1 1.59-4.6 2.12-9.43 2.76-4.8.64-7.76.51-9.77-.35s-5.53-4.94-8.05-5.15a18.79 18.79 0 0 1-6.72-2.26c-.64-.37-.45-3-.45-3l.06-.41zm-46.28 0a4.54 4.54 0 0 1-2.33 1.86c-.89.45-1.95.64-2.95.88l-.41.1-.6.16a1.2 1.2 0 0 1-.18.05l-.1.03-.19.06a.69.69 0 0 0-.08.03l-.33.11-.12.04-.06.02-.5.18-.11.04-.45.17-.12.05-.27.11-.12.05c-.27.11-.51.24-.74.38l-.03.02-.05.03-.21.14-.05.03-.04.03-.2.15-.06.04-.09.07c-.28.23-.54.47-.8.73l-.07.07-.42.43-.45.45-.48.46-.06.05-.15.13-.03.02-.25.2-.17.13-.03.02-.22.15-.09.06-.33.21-.23.14-.1.06-.24.15-.11.07-.08.04-.08.04-.34.17-.16.07-.05.02c-.34.15-.67.26-1.02.35l-.06.01-.08.02-.07.02-.21.04-.16.03-.13.02-.04.01-.11.02a1.1 1.1 0 0 1-.18.02l-.26.03-.07.01-.65.05-.36.02h-.1l-.7.02-.46.01h-.63l-.83-.03-.12-.01-.11-.01-.1-.01-1.21-.11-.11-.01-.3-.04-.13-.02-.11-.01-.25-.04-1.06-.18-.24-.04-.1-.02-.11-.02-.11-.02-.11-.02-.08-.02-.26-.05-.11-.02-.3-.07-.26-.06h-.03l-1.58-.36-.19-.04-.42-.1-.17-.04-.08-.02-.58-.15-.35-.09-1-.26-.15-.04-.17-.04-.06-.02-.79-.22-.06-.02-.09-.02-.28-.07-.09-.03-.15-.04-.06-.02-.11-.04-.1-.03-.04-.02-.05-.02-.03-.01-.05-.02-.05-.03-.02-.01-.05-.03-.06-.04-.06-.04-.05-.04a1 1 0 0 1-.22-.24s-.49.73-.53 1.99c1.1 1.59 4.6 2.12 9.43 2.76 4.8.64 7.76.51 9.77-.35s5.53-4.94 8.05-5.15a18.86 18.86 0 0 0 6.72-2.26c.64-.37.45-3 .45-3l-.07-.41z" fill="#000000"/>
<path id="Top_Basic-Boot" d="M122 217.29c.67 3.26 1.7 6.09 3.88 8.84 3.4 4.27 9.2 4.62 13.21 8.09 1.03.89.98 2.32 1.15 3.64-1.66.47-3.13.84-4.99 1.26-.13-1.31.1-2.78-.99-3.72-4.01-3.47-10.32-3.34-13.72-7.61-2.22-2.79-2.23-6.39-2.87-9.74l.3-.03.59-.06h.02l.07-.01.19-.03.3-.04.12-.02 1.01-.16.53-.1.11-.03.04-.01.08-.02.36-.09.32-.09.05-.01.24-.06zm-73.98 0c-.67 3.26-1.7 6.09-3.88 8.84-3.4 4.27-9.2 4.62-13.21 8.09-1.03.89-.98 2.32-1.15 3.64 1.66.47 3.13.84 4.99 1.26.13-1.31-.1-2.78.99-3.72 4.01-3.47 10.32-3.34 13.72-7.61 2.22-2.79 2.23-6.39 2.87-9.74l-.3-.03-.59-.06h-.02l-.07-.01-.19-.03-.3-.04-.12-.02-1.01-.16-.53-.1-.11-.03-.04-.01-.08-.02-.36-.09-.32-.09-.05-.01-.24-.06z" fill="#000000"/>
<path id="Side_Basic-Boot" d="M109.49 216.83c1.38.15 2.96.92 4.14 1.12l.19.03c.02.41.01.82.02 1.18.05 2.04-.21 10.76-.61 10.75-.4-.02-1.58-.23-1.88-.55-.2-.21-.24-.71-.3-.98-.21-.87-.4-1.73-.53-2.61a42.83 42.83 0 0 1-.4-3.55c-.14-1.8-.42-3.6-.63-5.39zm-48.96 0c-1.38.15-2.96.92-4.14 1.12l-.19.03c-.02.41-.01.82-.02 1.18-.05 2.04.21 10.76.61 10.75.4-.02 1.58-.23 1.88-.55.2-.21.24-.71.3-.98.21-.87.4-1.73.53-2.61.18-1.19.32-2.36.4-3.55.15-1.8.42-3.6.63-5.39z" fill="#000000"/>
</g>
</g>
<g id="Gloves">
<g id="Left-Glove">
<g id="Fingerless_Left_Glove" class="option">
<g id="Fingers_Fingerless_Left_Glove" fill="#FFFFFF">
<path d="M138.6 124.11a5.98 5.98 0 0 0-1.58.1c-.36.08-.72.16-1.04.35-.99.57-.72 1.81.16 2.28 1.03.55 2.66.01 3.13-1.05.19-.44-.41-1.26-.67-1.68"/>
<path d="M136.79 125.19a5.68 5.68 0 0 0-1.59.1c-.36.08-.72.16-1.04.35-.99.57-.72 1.81.16 2.28 1.03.55 2.66.01 3.13-1.05.2-.44-.4-1.26-.66-1.68"/>
<path d="M135.51 126.62c-.54.05-1.21.17-1.73.35-.35.12-.69.26-.99.48-.9.7-.47 1.89.47 2.24 1.1.41 2.64-.35 2.96-1.46.14-.47-.71-1.61-.71-1.61z"/>
<path d="M129.95 119.82c-.3 1.34-.55 2.07-.55 2.07s-1.38 2.79-1.14 3.43c.24.64 1.45 1.21 2.15.87.86-.42 1.93-2.39 2.61-3.77.25-.51.48-1.1.68-1.64-2.76.4-3.75-.96-3.75-.96zm5.69 6.59c-.2.34-.43.7-.68 1.08-1.36 2.05-3.46 3.81-2.07 5.37 1.29 1.46 4.22-2.37 4.22-2.37l1.36-1.77a3.8 3.8 0 0 1-2.83-2.31z"/>
</g>
<path id="Glove_Fingerless_Left_Glove" d="m138.46 128.72 1.51-1.96s3.3-5.41 3.47-6.46c.13-.8.02-3.47.02-3.47l-1.03-10.37-5.24.44-4.31 1.39-.32 1.77s-1.56 2.15-1.97 3.69c-.29 1.09-.13 3.68-.49 5.43l-.14.65s.99 1.37 3.74.96c.35-.96.58-1.78.58-1.78s.95.32 1.43.7c1.61 1.24.91 4.96.91 4.96s-.37.74-.98 1.75c0 0 .56 1.77 2.82 2.3z" fill="#000000"/>
</g></g>
<g id="Right-Glove">
<g id="Fingerless_Right_Glove" class="option">
<g id="Fingers_Fingerless_Right_Glove" fill="#FFFFFF">
<path d="M31.4 124.11a5.98 5.98 0 0 1 1.58.1c.36.08.72.16 1.04.35.99.57.72 1.81-.16 2.28-1.03.55-2.66.01-3.13-1.05-.2-.44.41-1.26.67-1.68"/>
<path d="M33.21 125.19a5.59 5.59 0 0 1 2.62.45c.99.57.72 1.81-.16 2.28-1.03.55-2.66.01-3.13-1.05-.19-.44.41-1.26.67-1.68"/>
<path d="M34.49 126.62c.54.05 1.21.17 1.73.35.35.12.69.26.99.48.9.7.47 1.89-.47 2.24-1.1.41-2.64-.35-2.96-1.46-.14-.47.71-1.61.71-1.61z"/>
<path d="M40.05 119.82c.3 1.34.55 2.07.55 2.07s1.38 2.79 1.14 3.43c-.24.64-1.45 1.21-2.15.87-.86-.42-1.93-2.39-2.61-3.77-.25-.51-.48-1.1-.68-1.64 2.76.4 3.75-.96 3.75-.96zm-5.69 6.59c.2.34.43.7.68 1.08 1.36 2.05 3.46 3.81 2.08 5.37-1.29 1.46-4.22-2.37-4.22-2.37l-1.36-1.77a3.79 3.79 0 0 0 2.82-2.31z"/>
</g>
<path id="Glove_Fingerless_Right_Glove" d="m31.54 128.72-1.51-1.96s-3.3-5.41-3.47-6.46c-.13-.8-.02-3.47-.02-3.47l1.03-10.37 5.24.44 4.31 1.39.32 1.77s1.56 2.15 1.97 3.69c.29 1.09.13 3.68.49 5.43l.14.65s-.99 1.37-3.74.96c-.35-.96-.58-1.78-.58-1.78s-.95.32-1.43.7c-1.61 1.24-.91 4.96-.91 4.96s.37.74.98 1.75c0 0-.56 1.77-2.82 2.3z" fill="#000000"/>
</g></g>
</g>
<g id="Biceps">
<g id="Left-Biceps">
<g id="None_Biceps_Left" class="option"/></g>
<g id="Right-Biceps">
<g id="None_Biceps_Right" class="option"/></g>
</g>
<g id="BicepsDecals" mask="url(#BicepsMask)"/>
<path id="Vest" d="M85 20.92c8.5-.01 15.43-4.3 15.63-8.01l.15.02 18.38 5.42 13.31 23.94-2.86 1.16-13.42-8.6-2.31 3.72-1.54 47.4s-8.72 4.71-13.53 5.35c-3.44.45-8.63.68-13.79.67-5.16.01-10.35-.22-13.79-.67-4.81-.63-13.53-5.35-13.53-5.35l-1.54-47.4-2.31-3.72-13.42 8.6-2.86-1.16 13.31-23.94 18.38-5.42.15-.02c.16 3.71 7.09 8.01 15.59 8.01" fill="#5B3718"/>
<g id="SuitDecals" mask="url(#SuitMask)"/>
<g class="swappable" id="Chest"><g id="Chest_Classic">
<g id="Abdomen_Classic">
<path id="Abdomen-Plate_Classic" d="m71.44 79.87-7.32-3.02-.66-6.74 5.72-1.86 4.84-9.65 10.95-3.49 10.95 3.49 4.84 9.65 5.72 1.86-.66 6.74-7.32 3.02-13.54-.35-13.52.35z" fill="#CC9754"/>
<path id="Trauma-Plate_Abdomen_Classic" class="toggle" style="display:none" d="m94.77 59.94-9.79-3.12-9.79 3.12-4.53 9.03c-.2.39-.54.69-.96.82l-4.47 1.45.44 4.47 6.09 2.51 13.18-.34h.09l13.18.34 6.09-2.51.44-4.47-4.47-1.45a1.66 1.66 0 0 1-.96-.82l-4.54-9.03z"/>
</g>
<g id="Iron-Heart_Classic">
<path id="Heart_Classic" d="M82.3 43.04V33.9l2.7-2.1 2.7 2.1v9.13L85 45.75l-2.7-2.71z" fill="#CC9754"/><path id="Center_Heart_Classic" class="option" d="M84.07 35.31h1.87v6.25h-1.87z" fill="#CC9754"/>
</g>
<g id="Left-Chest_Classic">
<path id="Chest_Left_Classic" d="m109.54 25.87-22.45 2.67-.22 2.09 2.86 2.67-.22 11.27-2.53 2.44v3.72l9.68 2.67 3.85 8.72 4.29 3.49 4.73-23.94 2.53-1.28-2.52-14.52z" fill="#CC9754"/>
<path id="Trauma-Plating_Left-Chest_Classic" class="toggle" style="display:none" d="m88.58 30.03.01-.07 19.7-2.35 2.07 11.91-2.18 1.1-4.37 22.12-1.95-1.59-4-9.05-9.25-2.55v-1.86l2.52-2.43.25-12.62-2.8-2.61z"/>
</g>
<g id="Right-Chest_Classic">
<path id="Chest_Right_Classic" d="m60.46 25.87 22.45 2.67.22 2.09-2.86 2.67.22 11.27 2.53 2.44v3.72l-9.68 2.67-3.85 8.72-4.29 3.49-4.73-23.94-2.53-1.28 2.52-14.52z" fill="#CC9754"/>
<path id="Trauma-Plating_Right-Chest_Classic" class="toggle" style="display:none" d="m81.47 30.03-.01-.07-19.7-2.35-2.08 11.91 2.18 1.1 4.37 22.12 1.95-1.59 4-9.05 9.25-2.55v-1.86l-2.52-2.43-.25-12.62 2.81-2.61z"/>
</g>
<g id="Neck-Armor_Classic">
<path id="Neck-Plate_Classic" d="m74.44 24.48-13.97-1.51-2.53-7.71 11.55-3.44s1.53 2.58 2.64 3.49c1.14.93 2.66 2.02 4.08 2.64 1.56.68 3.46 1.13 5.27 1.42a25.15 25.15 0 0 0 12.51-1.42c1.43-.62 2.75-1.71 3.89-2.64 1.11-.91 2.64-3.49 2.64-3.49l11.55 3.44-2.53 7.71-13.97 1.51L85 25.87l-10.56-1.39z" fill="#CC9754"/>
<path id="Trauma-Plates_Neck_Classic" class="toggle" style="display:none" d="m82.99 24.39-8.55-1.13-12.86-2.43-1.51-4.61 8.22-2.45s2.42 2.53 3.53 3.44c1.14.93 2.97 1.71 4.4 2.33A22.56 22.56 0 0 0 83 21.13v3.26zm4.02-3.26a24.8 24.8 0 0 0 6.98-1.59 20.74 20.74 0 0 0 4.39-2.52c1.11-.91 2.88-3.39 2.88-3.39l8.68 2.59-1.52 4.64-12.86 2.41-8.55 1.13v-3.27z"/>
</g>
</g></g>
<g id="ChestDecals" mask="url(#ChestMask)"/>
<g id="Chest-Attachments"><g id="No-Device_Accessories_Chest" class="option"/>
</g>
<g id="Collar"><g id="None_Collar" class="option"/>
</g>
<g id="CollarDecals" mask="url(#CollarMask)"/>
<g id="Helmets" class="swappable" transform="translate(45,-62)"><g id="Helmet_Budget-Bucket">
<g id="Bucket_Budget-Bucket" fill="#CC9754">
<path d="M61.11 25.12a4.64 4.64 0 0 0-1.2-2.85c-2.12-2.31-7.63-6.51-19.73-6.51-12.08 0-17.78 4.19-20.01 6.5a4.64 4.64 0 0 0-1.28 2.94l-2.71 44.86s10.78 6.61 24 6.61c8.08 0 15.12-2.47 19.37-4.39 2.7-1.22 4.27-2.22 4.27-2.22l-2.71-44.94z"/>
<path d="M15.92 62.74c1.62.94 11.9 6.61 24.27 6.61 12.36 0 22.31-5.66 23.9-6.61l.22 3.66s-10.63 6.75-24.12 6.75S15.7 66.4 15.7 66.4l.22-3.66z"/>
<path d="M15.76 69.27c.9.53 11.52 6.71 24.43 6.71 12.9 0 23.18-6.16 24.06-6.71l.06 1.01s-10.63 6.74-24.12 6.74-24.49-6.74-24.49-6.74l.06-1.01zM16.4 56.61c1.58.92 11.66 6.48 23.78 6.48 12.11 0 21.87-5.55 23.42-6.48l.22 3.59s-10.42 6.61-23.64 6.61-24-6.61-24-6.61l.22-3.59z"/>
<path d="M37.8 69.14h4.4v4.2h-4.4z"/>
<circle cx="40" cy="71.24" r=".65"/>
</g>
<path fill="#000000" id="Visor_Budget-Bucket" d="M41.77 69.14h-3.53l-.38-20.36s-3.7-.78-3.8-.78c-.1 0-5.17-1.19-5.17-1.19l-4.47-1.54-1.49-.76.1-1.36 4.31.7 5.35.68 5.01.32 2.05.14h.51l2.05-.14 5.01-.32 5.35-.68 4.31-.7.1 1.36-1.49.76-4.47 1.54S46.05 48 45.95 48c-.1 0-3.8.78-3.8.78l-.38 20.36z"/><g id="Handle-Right_Budget-Bucket" class="option" fill="#FFFFFF">
<circle cx="16.66" cy="41.29" r="1.15"/>
<circle cx="16.66" cy="41.29" r=".6"/>
<path d="M39.73 71.37s-8.37-4.31-15.55-13.36c-7.19-9.07-7.71-16.61-7.71-16.61a.19.19 0 0 1 .17-.2c.1-.01.19.07.2.17 0 0 .52 7.44 7.63 16.41A53.35 53.35 0 0 0 39.9 71.04c.09.05.13.16.08.25s-.16.13-.25.08z"/>
</g>
</g></g>
<g id="HelmetsDecals" mask="url(#HelmetsMask)"/>
<g id="Shoulders">
<g id="Left-Shoulder"><g id="Legacy-x2_Shoulder_Left" class="option">
<path id="Plate-2_Shoulder_Left_Legacy-x2" d="m115.99 15.27-5.8 8.69 5.95 8.29 9.39-2.29 5.9 3.63 4.41-1.15-19.85-17.17z" fill="#CC9754"/>
<path id="Trauma-Plate-2_Shoulder_Legacy-x2_Left" class="toggle" style="display:none" d="m131.69 31.78 2.85-.74-17.1-14.9-5.19 7.75 4.6 6.43 8.64-2.17 6.2 3.63z"/>
<path id="Plate-1_Shoulder_Left_Legacy-x2" d="m108.85 10.82-2.61 10.1 8.36 5.89 8.12-5.22 6.77 1.51 3.79-2.53-24.43-9.75z" fill="#CC9754"/>
<path id="Trauma-Plate-1_Shoulder_Legacy-x2_Left" class="toggle" style="display:none" d="m129.14 21.3 2.45-1.64-21.09-8.46-2.33 9.02 6.47 4.56 7.43-4.88 7.07 1.4z"/>
</g></g>
<g id="Right-Shoulder"><g id="Classic_Shoulder_Right" class="option">
<path id="Main_Shoulder_Classic_Right" d="m52.79 13.84 2.52 11.33-2.02 6.52-13.49 6.79-2.27-3.46 15.26-21.18z" fill="#CC9754"/>
<path id="Trauma-Plates_Shoulder_Classic_Right" class="toggle" style="display:none" d="m53.56 25.1-1.67 5.41-11.49 5.78-1.94-2.96 12.93-17.99 2.17 9.76z"/>
</g>
</g>
</g>
<g id="ShouldersDecals" mask="url(#ShouldersMask)"/>
<g id="Gauntlets">
<g id="Left-Gauntlets"><g id="Basic_Gauntlet_Left" class="option">
<path id="Top-2_Basic_Gauntlet_Left" d="m145.21 108.31 1.36-2.17-3.89-18.32-.65 2.21 1.85 8.35-.72 2.07 2.05 7.86z" fill="#CC9754"/>
<path id="Top-1_Basic_Gauntlet_Left" d="m142.68 87.82-.65 2.21 1.85 8.35-.72 2.07 2.05 7.86-.9 1.43.47 5.09-1.57.41-2.13-7.67-1.46-.54-6.74-22.45 8.91-.93.89 4.17z" fill="#CC9754"/>
<path id="Accent-Bottom_Basic_Gauntlet_Left" d="m129.49 91.34-1.97.65.97 2.92 1.97-.65-.97-2.92zm1.67 5.11-1.97.65.97 2.92 1.97-.65-.97-2.92zm1.75 5.23-1.97.65.97 2.92 1.97-.65-.97-2.92z" fill="#CC9754"/>
<path id="Bottom_Basic_Gauntlet_Left" d="m127.53 91.98-.73-2.22 6.19-4.8 6.63 22.08-6.74 1.23-2.71-8.25 1.96-.65-.97-2.92-1.95.64-.72-2.19 1.97-.65-.97-2.92-1.96.65zm5.38 9.7-1.98.65.96 2.92 1.99-.65-.97-2.92z" fill="#CC9754"/><g id="Flamethrower_Attachment_Basic_Gauntlet_Left" class="option">
<g id="Tubes_Flamethrower_Attachment_Basic_Gauntlet_Left" fill="#CC9754">
<path d="m143.46 84.51-.82.17 5.18 24.73.82-.17-5.18-24.73zm1.87-.38-.82.17 3.71 17.73.82-.17-3.71-17.73z"/>
<path d="m143.93 86.03-1.12.23 1.23 5.89 1.12-.23-1.23-5.89zm1.87-.39-1.12.23 1.23 5.89 1.12-.23-1.23-5.89z"/>
</g>
<g id="Main_Flamethrower_Attachment_Basic_Gauntlet_Left" fill="#CC9754">
<path d="m145.68 84.05-3.36.69.32 1.55 3.36-.7-.32-1.54zm1.63 7.43-3.51.73.2.94 3.51-.73-.2-.94z"/>
<path d="m147.36 92.45-3.22.67.1.48 3.22-.67-.1-.48z"/>
<path d="m144.03 91.54-.54.13.61 2.88.54-.13-.61-2.88z"/>
</g>
<g id="Accent_Flamethrower_Attachment_Basic_Gauntlet_Left" fill="#CC9754">
<path d="m149.07 101.85-.87.18.12 1.24 1.14-.24-.39-1.18zm-.98-6.37-1.55.32.39 1.88 1.55-.32-.39-1.88z"/>
<path d="m148.27 97.4-1.12.23.39 1.88 1.12-.23-.39-1.88zm-.14 8.68-1.12.23.54 2.57 1.12-.23-.54-2.57zm-1.73-8.29-1.12.23.73 3.5 1.12-.23-.73-3.5z"/>
<path d="m148.62 107.33-1.55.32.11.5 1.55-.32-.11-.5z"/>
</g>
<path id="Base_Flamethrower_Attachment_Basic_Gauntlet_Left" d="m143.5 91.67-1.65-7.8 1.01.17 2.79 13.19-.85.61-.7-3.3.54-.13-.61-2.88-.53.14z" fill="#CC9754"/>
</g></g>
</g>
<g id="Right-Gauntlets"><g id="Basic_Gauntlet_Right" class="option">
<path id="Top-2_Basic_Gauntlet_Right" d="m24.75 108.31-1.36-2.17 3.89-18.32.65 2.21-1.85 8.35.72 2.07-2.05 7.86z" fill="#CC9754"/>
<path id="Top-1_Basic_Gauntlet_Right" d="m27.28 87.82.65 2.21-1.85 8.35.72 2.07-2.05 7.86.9 1.43-.47 5.09 1.57.41 2.13-7.67 1.46-.54 6.74-22.45-8.91-.93-.89 4.17z" fill="#CC9754"/>
<path id="Accent-Bottom_Basic_Gauntlet_Right" d="m40.47 91.34 1.97.65-.97 2.92-1.97-.65.97-2.92zm-1.68 5.11 1.97.65-.97 2.92-1.97-.65.97-2.92zm-1.74 5.23 1.97.65-.97 2.92-1.97-.65.97-2.92z" fill="#CC9754"/>
<path id="Bottom_Basic_Gauntlet_Right" d="m42.43 91.98.73-2.22-6.19-4.8-6.63 22.08 6.74 1.23 2.71-8.25-1.96-.65.97-2.92 1.95.64.72-2.19-1.97-.65.97-2.92 1.96.65zm-5.38 9.7 1.98.65-.96 2.92-1.99-.65.97-2.92z" fill="#CC9754"/><g id="No-Device_Attachment_Basic_Gauntlet_Right" class="option"/>
</g>
</g>
</g>
<g id="GauntletsDecals" mask="url(#GauntletsMask)"/>
<g id="Shins">
<g id="Left-Shin"><g id="Basic_Shin_Left" class="option">
<path id="Shin_Basic-Shin_Left" d="m121.62 179.69-5.07-5.47-10.06 1.36-3.67 8.71 6.88 29.05c4.47 1.82 10.9.87 14.37-2.3l-2.45-31.35" fill="#CC9754"/>
<path id="Trauma-Plating_Basic-Shin_Left" class="toggle" style="display:none" d="m122.31 210.31-2.33-29.91-4.07-4.4-8.22 1.11-3.08 7.32 6.54 27.63c3.58 1.12 8.25.44 11.16-1.75"/>
<g id="Ridge_Basic-Shin_Left" class="toggle" style="display:none"/>
</g>
</g>
<g id="Right-Shin"><g id="Basic_Shin_Right" class="option">
<path id="Shin_Basic-Shin_Right" d="m48.3 179.69 5.07-5.47 10.06 1.36 3.67 8.71-6.88 29.05c-4.47 1.82-10.9.87-14.36-2.3l2.44-31.35" fill="#CC9754"/>
<path id="Trauma-Plating_Basic-Shin_Right" class="toggle" style="display:none" d="m47.62 210.31 2.33-29.91 4.07-4.4 8.22 1.11 3.08 7.32-6.54 27.63c-3.58 1.12-8.25.44-11.16-1.75"/>
<g id="Ridge_Basic-Shin_Right" class="toggle" style="display:none"/>
</g>
</g>
</g>
<g id="ShinsDecals" mask="url(#ShinsMask)"/>
<g id="Foot">
<g id="Left-Ankle"><g id="Basic_Ankle_Left" class="option">
<path id="Main_Basic-Ankle_Left" d="m132.53 229.62-7.84-13.73c-4.32-.22-8.38.42-12.17 2.03a3.39 3.39 0 0 0-1.88 2.09h-.01a4.28 4.28 0 0 0 1.27 4.52c2.45 2.24 6.47 5.71 8.94 6.56 5.82 1.99 11.69-1.47 11.69-1.47" fill="#CC9754"/>
<path id="Trauma-Plate_Basic-Ankle_Left" class="toggle" style="display:none" d="M125.65 217.57c-3.86-.07-9.61.68-12.99 2.23l-.34 1.08c-.22.71-.02 1.49.54 2.01 2.21 2.08 6.19 5.71 8.63 6.54 3.28 1.12 8.24-.66 10.12-1.42l-5.96-10.44"/>
</g>
</g>
<g id="Left-Toe"><g id="None_Toe_Left" class="option"/>
</g>
<g id="Right-Ankle"><g id="Basic_Ankle_Right" class="option">
<path id="Main_Basic-Ankle_Right" d="m37.34 229.62 7.84-13.73c4.31-.22 8.38.42 12.17 2.03.9.39 1.58 1.15 1.88 2.09h.01c.51 1.63.02 3.4-1.27 4.52-2.46 2.24-6.47 5.71-8.94 6.56-5.82 1.99-11.69-1.47-11.69-1.47" fill="#CC9754"/>
<path id="Trauma-Plate_Basic-Ankle_Right" class="toggle" style="display:none" d="M44.22 217.57c3.85-.07 9.61.68 12.99 2.23l.34 1.08c.22.71.02 1.49-.55 2.01-2.21 2.08-6.19 5.71-8.63 6.54-3.28 1.12-8.24-.66-10.12-1.42l5.97-10.44"/>
</g>
</g>
<g id="Right-Toe"><g id="None_Toe_Right" class="option"/>
</g>
</g>
<g id="FootDecals" mask="url(#FootMask)"/>
<g id="Knees">
<g id="Left-Knee"><g id="Basic_Knee_Left" class="option">
<g id="Missiles_Basic-Knee_Left" class="toggle" style="display:none"/>
<g id="Knee_Basic-Knee_Left" fill="#CC9754">
<path d="m96.42 158.84 1.43-.23 1.56 9.99c.12.79-.42 1.54-1.21 1.66l-1.78-11.42zm1.39-.52.82 5.14c1.05-.59 3.7.5 4.57 3.58 1.59 5.67 2.97 6.97 7.95 6.46 3.87-.4 6.64-2.2 6.96-4.87.46-3.85 0-9.43-.23-11.79a1.09 1.09 0 0 0-.41-.74 1.15 1.15 0 0 0-.82-.23l-18.84 2.45z"/>
<path d="m97.31 158.39.49-.07.92 5.56-.49.07-.92-5.56z"/>
</g>
</g>
</g>
<g id="Right-Knee"><g id="Basic_Knee_Right" class="option">
<g id="Missiles_Basic-Knee_Right" class="toggle" style="display:none"/>
<g id="Knee_Basic-Knee_Right" fill="#CC9754">
<path d="m73.47 158.84-1.43-.23-1.56 9.99c-.12.79.42 1.54 1.21 1.66l1.78-11.42z"/>
<path d="m72.09 158.32-.82 5.14c-1.05-.59-3.7.5-4.57 3.58-1.59 5.67-2.97 6.97-7.95 6.46-3.87-.4-6.64-2.2-6.96-4.87-.46-3.85 0-9.43.23-11.79.03-.29.18-.56.41-.74.23-.18.53-.26.82-.23l18.84 2.45z"/>
<path d="m72.58 158.39-.49-.07-.92 5.56.49.07.92-5.56z"/>
</g>
</g>
</g>
</g>
<g id="KneesDecals" mask="url(#KneesMask)"/>
<g id="Thighs">
<g id="Left-Thigh"><g id="Basic_Thigh_Left" class="option">
<path id="Thigh_Basic-Thigh_Left" d="M120.21 115.6s-5.03-6.43-7.59-7.49a8.12 8.12 0 0 0-7.78 1.09c-3.19 2.54-10.51 8.04-11.35 14.16-.93 6.83 4.08 21.95 5.78 26.84.58 1.66 2.77 2.41 4.44 2.48 3.1.12 11.57-.15 13.59-4.69 2.75-6.18 2.91-32.39 2.91-32.39" fill="#CC9754"/>
<path id="Trauma-Plate_Basic-Thigh_Left" class="toggle" style="display:none" d="M118.5 116.19c-.75-.93-2.56-3.1-4.3-4.77a9.07 9.07 0 0 0-2.25-1.75 6.31 6.31 0 0 0-6.06.85c-1.85 1.47-5.15 3.97-7.66 7.02-1.52 1.85-2.77 3.9-3.07 6.05-.9 6.64 4.05 21.31 5.7 26.06.14.42.54.67.95.87.61.3 1.33.45 1.94.47 1.73.07 5.27.02 8.23-.96 1.63-.54 3.12-1.33 3.75-2.73.78-1.75 1.3-5.22 1.7-9.2.88-8.51 1.04-19.29 1.07-21.91"/>
<g id="Ridge_Basic-Thigh_Left" class="toggle" style="display:none"/>
</g>
</g>
<g id="Right-Thigh"><g id="Basic_Thigh_Right" class="option">
<path id="Thigh_Basic-Thigh_Right" d="M49.69 115.6s5.03-6.43 7.59-7.49a8.12 8.12 0 0 1 7.78 1.09c3.19 2.54 10.51 8.04 11.35 14.16.93 6.83-4.08 21.95-5.78 26.84-.58 1.66-2.77 2.41-4.44 2.48-3.1.12-11.57-.15-13.59-4.69-2.75-6.18-2.91-32.39-2.91-32.39" fill="#CC9754"/>
<path id="Trauma-Plate_Basic-Thigh_Right" class="toggle" style="display:none" d="M51.39 116.19c.75-.93 2.56-3.1 4.3-4.77a9.07 9.07 0 0 1 2.25-1.75 6.31 6.31 0 0 1 6.06.85c1.85 1.47 5.15 3.97 7.66 7.02 1.52 1.85 2.77 3.9 3.07 6.05.9 6.64-4.05 21.31-5.7 26.06-.14.42-.54.67-.95.87-.61.3-1.33.45-1.94.47-1.73.07-5.27.02-8.23-.96-1.63-.54-3.12-1.33-3.75-2.73-.78-1.75-1.3-5.22-1.7-9.2a278.92 278.92 0 0 1-1.07-21.91"/>
<g id="Ridge_Basic-Thigh_Right" class="toggle" style="display:none"/>
</g>
</g>
</g>
<g id="ThighsDecals" mask="url(#ThighsMask)"/>
<g id="Groin"><g id="Basic_Groin" class="option">
<path id="Groin-Plate_Basic" d="M78.67 122.29 68.22 99.4h33.42l-10.45 22.89-6.26 5.46-6.26-5.46z" fill="#CC9754"/>
<path id="Trauma-Plating_Groin" class="toggle" style="display:none" d="m79.77 120.38-8.61-18.86H98.7l-8.61 18.86-5.16 4.49-5.16-4.49z"/>
</g>
</g>
<g id="GroinDecals" mask="url(#GroinMask)"/>
<g id="Waist">
<g id="Accessories_Waist">
<g id="Kama" class="toggle" style="display:none"/>
<g id="Loin-Cloth" class="toggle" style="display:none"/>
<g id="Left-Holster" class="toggle" style="display:none"/>
<g id="Right-Holster" class="toggle" style=""><g id="Belt-Holster_Right" class="option">
<g id="Weapon_Belt-Holster-Right">
<g id="Main_Weapon_Belt-Holster-Right" fill="#CC9754">
<path d="m53.1 99.11.24-3.6-.62-.04.15-2.26.62.04.08-1.18c.03-.38-.47-.73-1.1-.77l-5.37-.36c-.63-.04-1.17.23-1.19.62l-.08 1.18.62.04-.15 2.26-.62-.04-.24 3.6 1.46.1-.67 9.95 4.73.31.67-9.95 1.47.1z"/>
<path d="m46.1 98.11.84.06-.8 11.96 4.73.31.8-11.96.84.06.18-2.73-6.41-.42-.18 2.72zm1.74-6.33 3.8.25-.25 3.69-3.8-.25.25-3.69z"/>
<path d="m50.51 99.49.62.04-.63 9.4-.62-.04.63-9.4zm-1.44-2.26.62.04-.63 9.4-.62-.04.63-9.4zm-1.74 2.05.62.04-.63 9.4-.62-.04.63-9.4z"/>
</g>
<g id="Accent_Weapon_Belt-Holster-Right" fill="#CC9754">
<path d="m50.8 96.06-.03.38-2.68-.18.02-.38 2.69.18z"/>
<path d="m50.78 96.44-.03.38-2.68-.18.03-.38 2.68.18zm.05-.76-.02.38-2.68-.18.03-.38 2.67.18zm.31-4.63-.02.38-2.68-.18.03-.38 2.67.18z"/>
<path d="m51.01 91.99.62.04-.25 3.69-.62-.04.25-3.69zm-3.17-.21.62.04-.25 3.69-.62-.04.25-3.69zm.12 7.54.94.06-.63 9.4-.94-.06.63-9.4zm1.6.1.94.06-.63 9.4-.94-.06.63-9.4z"/>
</g>
</g>
<path id="Holster_Belt-Holster-Right" d="m51.49 112.89 2.47-14.99-8.29 10.56-.79 20.68c1.44 1.89 3.04 2.08 4.84.36l1.77-16.61z" fill="#CC9754"/>
</g>
</g>
<g id="Left-Trophy" class="toggle" style="display:none"/>
<g id="Right-Trophy" class="toggle" style="display:none"/>
</g>
<g id="Under-Belt"><g id="Girth-Belt" class="option" fill="#CC9754">
<path d="M84.93 84.93c-9.33 0-27.98-2.25-27.98-2.25l.61-1.91 27.37 2.25 27.37-2.25.6 1.91c.01 0-18.65 2.25-27.97 2.25z"/>
<path d="M84.93 86.84c-9.52 0-28.56-2.25-28.56-2.25l.58-1.91 27.98 2.25 27.98-2.25.58 1.91s-19.04 2.25-28.56 2.25z"/>
<path d="M84.93 88.75c-9.67 0-28.99-2.25-28.99-2.25l.43-1.91 28.56 2.25 28.56-2.25.43 1.91c0-.01-19.32 2.25-28.99 2.25z"/>
<path d="M84.93 90.65c-9.79 0-29.36-2.25-29.36-2.25l.37-1.91 28.99 2.25 28.99-2.25.37 1.91s-19.57 2.25-29.36 2.25z"/>
<path d="M84.93 92.56c-9.9 0-29.69-2.25-29.69-2.25l.33-1.91 29.36 2.25 29.36-2.25.33 1.91s-19.79 2.25-29.69 2.25z"/>
<path d="M84.93 94.47c-10 0-30-2.25-30-2.25l.31-1.91 29.69 2.25 29.69-2.25.31 1.91c0-.01-20 2.25-30 2.25z"/>
<path d="M84.93 96.37c-10.1 0-30.31-2.25-30.31-2.25l.31-1.91 30 2.25 30-2.25.31 1.91s-20.21 2.25-30.31 2.25z"/>
<path d="M84.93 98.28c-10.21 0-30.62-2.25-30.62-2.25l.32-1.91 30.31 2.25 30.31-2.25.32 1.91c-.02 0-20.43 2.25-30.64 2.25z"/>
<path d="M84.93 100.19c-10.32 0-30.97-2.25-30.97-2.25l.34-1.91 30.62 2.25 30.62-2.25.35 1.91c.01-.01-20.64 2.25-30.96 2.25z"/>
<path d="M84.93 102.09c-10.45 0-31.36-2.25-31.36-2.25l.39-1.91 30.97 2.25 30.97-2.25.39 1.91s-20.91 2.25-31.36 2.25z"/>
</g>
</g>
<g id="Belt"><g id="Pouch-Belt-6" class="option">
<path id="Main_Pouch-Belt-6" d="M115.21 92.95c-6.82.61-22.4 2.83-30.27 2.83-7.94 0-23.52-2.23-30.26-2.82l1.01-7.93c5.53.49 21.56 2.74 29.26 2.74 7.47 0 23.17-2.23 29.07-2.76l1.19 7.94z" fill="#CC9754"/>
<path id="Buckle_Pouch-Belt-6" d="M79.37 87.01h11.28v9.21H79.37z" fill="#CC9754"/>
<g id="Pouches_Pouch-Belt-6" fill="#CC9754">
<path d="M70.81 84.98c-.29-.02-.58.03-.84.13l-2.1.82 8.08.46 2.19-.94c-.01.01-5.7-.36-7.33-.47z"/>
<path d="M78.41 85.73a.24.24 0 0 0-.1-.22.26.26 0 0 0-.24-.03l-2.14.91-1.05 12.41a7.2 7.2 0 0 1 2.15-.84c.41-.08.7-.43.71-.85.14-3.79.29-7.6.67-11.38z"/>
<path d="m75.94 86.4-8.08-.46c-.05 1.89-.23 3.77-.33 5.65-.11 2.08-.15 4.18-.34 6.28-.01.15.04.3.14.41.1.11.25.18.4.18 2.32-.01 4.63.13 6.93.4a.5.5 0 0 0 .4-.12.52.52 0 0 0 .19-.37l.37-5.34.32-6.63z"/>
<path d="m75.94 86.4-8.08-.46-.38 3.14a2.73 2.73 0 0 0 2.58 3.07l2.97.17a2.77 2.77 0 0 0 2.93-2.76l-.02-3.16z"/>
<path d="M71.64 90.75c.29.02.51.26.49.55a.53.53 0 0 1-.55.49.52.52 0 0 1-.49-.55c.02-.28.27-.5.55-.49zm-11.99-7.28c-.31-.02-.62.03-.91.16l-1.86.81 7.38.42 2-.95-6.61-.44z"/>
<path d="M66.52 84.19a.23.23 0 0 0-.1-.22.23.23 0 0 0-.24-.02l-1.91.9-1.02 12.42a6.9 6.9 0 0 1 1.93-.85.9.9 0 0 0 .69-.84c.12-3.8.28-7.6.65-11.39z"/>
<path d="m64.26 84.85-7.38-.42c-.06 1.89-.23 3.77-.33 5.65-.11 2.08-.16 4.17-.34 6.28-.01.15.04.3.14.41s.25.18.4.17c2.08-.01 4.15.11 6.22.36a.5.5 0 0 0 .4-.12.54.54 0 0 0 .19-.37l.37-5.33.33-6.63z"/>
<path d="m64.26 84.85-7.38-.42-.36 3.15a2.75 2.75 0 0 0 2.59 3.05l2.23.13a2.8 2.8 0 0 0 2.06-.75c.55-.52.87-1.25.86-2v-3.16z"/>
<path d="M60.31 89.23c.26.01.46.26.44.54-.02.28-.24.5-.5.49-.26-.01-.46-.26-.44-.54.02-.28.24-.5.5-.49zm-8.09-4.94.55-.85 2.83.09.35 1.06-3.73-.3z"/>
<path d="M55.93 84.69a.2.2 0 0 0-.06-.18.23.23 0 0 0-.17-.08l-3.48-.13-.5 11.17c.11.28 1.53.46 2.68.49a.9.9 0 0 0 .92-.88c.08-3.47.21-6.94.61-10.39zm43.15.29c.29-.02.58.03.85.13l2.1.82-8.08.46-2.19-.94 7.32-.47z"/>
<path d="M91.48 85.73a.24.24 0 0 1 .1-.22.26.26 0 0 1 .24-.03l2.14.91L95 98.81a7.2 7.2 0 0 0-2.15-.84.88.88 0 0 1-.71-.85c-.13-3.8-.28-7.61-.66-11.39z"/>
<path d="m93.95 86.4 8.08-.46c.05 1.89.23 3.77.33 5.65.11 2.08.15 4.18.34 6.28.01.15-.04.3-.14.41a.55.55 0 0 1-.4.18c-2.32-.01-4.63.13-6.93.4a.5.5 0 0 1-.4-.12.52.52 0 0 1-.19-.37l-.37-5.34-.32-6.63z"/>
<path d="m93.95 86.4 8.08-.46.38 3.14a2.76 2.76 0 0 1-2.58 3.07l-2.97.17a2.8 2.8 0 0 1-2.06-.75 2.73 2.73 0 0 1-.86-2.01l.01-3.16z"/>
<path d="M98.25 90.75a.52.52 0 0 0-.49.55c.02.28.26.5.55.49a.52.52 0 0 0 .49-.55.53.53 0 0 0-.55-.49zm11.99-7.28c.31-.02.62.03.91.16l1.86.81-7.38.42-2-.95 6.61-.44z"/>
<path d="M103.37 84.19a.23.23 0 0 1 .1-.22.23.23 0 0 1 .24-.02l1.91.9 1.02 12.42a6.9 6.9 0 0 0-1.93-.85.9.9 0 0 1-.69-.84c-.12-3.8-.28-7.6-.65-11.39z"/>
<path d="m105.63 84.85 7.38-.42c.06 1.89.23 3.77.33 5.65.11 2.08.16 4.17.34 6.28.01.15-.04.3-.14.41a.5.5 0 0 1-.4.17c-2.08-.01-4.15.11-6.22.36a.5.5 0 0 1-.4-.12.54.54 0 0 1-.19-.37l-.37-5.33-.33-6.63z"/>
<path d="m105.63 84.85 7.38-.42.36 3.15a2.75 2.75 0 0 1-2.59 3.05l-2.23.13a2.8 2.8 0 0 1-2.06-.75 2.72 2.72 0 0 1-.86-2v-3.16z"/>
<path d="M109.58 89.23c-.26.01-.46.26-.44.54.02.28.24.5.5.49.26-.01.46-.26.44-.54-.01-.28-.24-.5-.5-.49zm8.09-4.94-.55-.85-2.83.09-.35 1.06 3.73-.3z"/>
<path d="M113.96 84.69a.2.2 0 0 1 .06-.18.23.23 0 0 1 .18-.08l3.48-.13.5 11.17c-.11.28-1.53.46-2.68.49a.9.9 0 0 1-.92-.88 116.3 116.3 0 0 0-.62-10.39z"/>
</g>
</g></g>
</g>
<g id="WaistDecals" mask="url(#WaistMask)"/>
<g id="Extras_Front">
<g id="Front"><g id="None_Front" class="option"/>
</g>
</g>
<g id="Extras-FrontDecals" mask="url(#FrontMask)"/>
</g>
</svg>