<?xml version='1.0' encoding='UTF-8'?>
<svg version="1.1" id="Male-Body" xmlns="http://www.w3.org/2000/svg" xmlns:serif="http://www.serif.com/" viewBox="0 -55 170 310" style="stroke-width: 0.2px; fill-rule: evenodd; stroke-linejoin: round;" width="510" height="930">
<style>
mask {
mask-type: alpha;
}
.decal {
stroke: none;
}
</style>
<defs id="Masks" stroke="none">
<mask id="HelmetsMask"> <use href="#Helmets"/> </mask>
<mask id="CollarMask"> <use href="#Collar"/> </mask>
<mask id="ShouldersMask"> <use href="#Shoulders"/> </mask>
<mask id="ChestMask"> <use href="#Chest"/> </mask>
<mask id="BicepsMask"> <use href="#Biceps"/> </mask>
<mask id="GauntletsMask"> <use href="#Gauntlets"/> </mask>
<mask id="WaistMask"> <use href="#Waist"/> </mask>
<mask id="GroinMask"> <use href="#Groin"/> </mask>
<mask id="ThighsMask"> <use href="#Thighs"/> </mask>
<mask id="KneesMask"> <use href="#Knees"/> </mask>
<mask id="ShinsMask"> <use href="#Shins"/> </mask>
<mask id="FootMask"> <use href="#Foot"/> </mask>
</defs>
<defs id="Decals"/><metadata><rdf:rdf xmlns:rdf="http://www.w3.org/1999/02/22-rdf-syntax-ns#" xmlns:rdfs="http://www.w3.org/2000/01/rdf-schema#" xmlns:dc="http://purl.org/dc/elements/1.1/"><rdf:description><dc:creator>MandoCreator</dc:creator><dc:publisher>https://www.mandocreator.com</dc:publisher><dc:description>Your Beskar'gam - created by MandoCreator</dc:description><dc:format>image/svg+xml</dc:format><dc:type>Image</dc:type><dc:title>MandoCreator - Ner Berskar'gam</dc:title><dc:date>2022-03-14T15:13:14.661Z</dc:date></rdf:description></rdf:rdf></metadata><g id="Main-Body" fill="white" stroke="black">
<g id="Extras_Back">
<g id="Back"><path id="Short-Cape-Right_Back" class="option" d="M65.59 24.2c1.31-3.7 2.51-7.4 2.51-7.4-.5-1-4.02-1-5.03-.9-2.31.1-5.63 1.2-7.14 2.9-.81 1-2.51 1-3.02 2.2 0 .1-.5 1.1-.5 1.1s-.3 2-.6 4.4a21.25 21.25 0 0 0-5.94 7.3 232.1 232.1 0 0 0-10.06 23.4c-2.42 6.7-6.44 13.3-8.95 19.9-2.82 7.5-4.12 12.7-6.54 20.3-2.51 7.9-5.53 14.9-10.26 20.6-1.81 2.3-4.83 4.2-6.03 7.1l-1.11 3.2c.9.4 2.21.1 3.22.1 3.72.1 11.37-4.2 14.89-2.5 4.43 2.2 3.92 10.9 8.05 13.9 4.23 3.1 11.57-4.5 16.4-4.5 4.53 0 3.42 11.9 7.34 14.3 1.21.8 9.25.9 9.25.7a50.2 50.2 0 0 1-.5-15.6c1.11-8.7 1.31-14.6 2.31-23.3.7-5.8.1-8.8 1.31-14.5 1.31-6.3.71-13.6 2.42-19.8 1.71-6.1 1.11-13.2 2.21-19.5 1.71-10.1.2-28.8-4.12-33.2-.01-.2-.11-.2-.11-.2z" fill="#6B042D"/></g>
</g>
<g id="Extras-BackDecals" mask="url(#BackMask)"/>
<g id="Suit">
<g id="Neck-Seal">
<path id="Plain-Neck-Seal" class="option" d="m97.69 6.07 2.94 6.84-.21 6.78-15.43 1.59v.01h-.06v-.01l-15.34-1.59-.21-6.78 2.94-6.84L85 6.73l12.69-.66" fill="#AA744F"/></g>
<path id="Flight-Suit" d="m73.36 158.45-1.49 8.72-11.03 53.11s-4.93 2.96-7.47 3.46c-2.53.5-7.73-.44-7.73-.44l3.85-43 2.9-18.36.66-7.82s-2.53-22.78-1.7-34.14c.82-11.36 6.66-34.01 6.66-34.01l26.98.58 26.97-.58s5.83 22.66 6.66 34.01c.83 11.36-1.7 34.14-1.7 34.14l.66 7.82 2.9 18.36 3.85 43s-5.32 1.19-7.85.69c-2.53-.5-7.34-3.71-7.34-3.71L98.1 167.16l-1.49-8.72-11.62-30.33-11.63 30.34zm56.05-115.12 11.98 41.65 1.04 21.47-9.55 1.83-6.05-20.21-13.65-33.95.69-15.55 2.31-3.72 13.23 8.48zm-88.82-.03 13.19-8.45 2.31 3.72.52 16.04-13.44 33.46-6.05 20.21-9.55-1.83 1.03-21.47L40.59 43.3z" fill="#AA744F"/>
<g id="Sleeves" class="toggle" fill="#AA744F">
<path d="m112.2 56.12 2.68 5.9s4.24-3.2 7.06-4.8 4.38-2.62 6.92-3.6a33.81 33.81 0 0 1 5.08-1.47l-6.07-12.25-5.79-9.67-11.58 5.14 1.7 20.75z"/>
<path d="M113.61 59.24c-.2-.24 5.08-4.5 8.61-6.34 3.53-1.84 10.25-3.69 10.25-3.69"/>
<path d="m57.8 56.12-2.68 5.9s-4.24-3.2-7.06-4.8c-2.82-1.59-4.38-2.62-6.92-3.6a33.81 33.81 0 0 0-5.08-1.47l6.07-12.25 5.79-9.67 11.58 5.14-1.7 20.75z"/>
<path d="M56.39 59.24c.2-.24-5.08-4.5-8.61-6.34-3.53-1.84-10.25-3.69-10.25-3.69"/>
</g>
</g>
<g id="Boots"><g id="Gunslinger_Boots" class="option">
<path id="Main_Gunslinger-Boot" d="M107.7 226.61c.04.2.73 3.41 4.27 4.29 1.18.3 3.21-.33 4.48-.98a30.5 30.5 0 0 1 5.44-2.12l.06.08.09.12c.58.81 1.21 1.57 1.89 2.26l.05.05.03.03.21.2c.4.38.81.74 1.23 1.07l.12.09.1.07.09.06.2.14c.88.62 2.06 1.56 3.23 1.39 1.11-.16 2.35-.6 3.28-1.04a8.2 8.2 0 0 0 2.13-1.4c.16-.12.29-.26.39-.44 2.57 1 5.36 1.38 6.73 4.22.3.62.55 1.35.49 2.04-.08.89-1.06 1-1.82 1.2-1.9.51-3.53.89-5.72 1.34-2.5.52-4.76.83-7.29.72-1.89-.08-3.49-.18-5.14-1.19-.66-.41-1.34-.82-1.92-1.35-1.28-1.19-2.11-2.43-3.77-3.15a23.2 23.2 0 0 0-3.71-1.27c-1.8-.45-3.74-.76-4.69-2.54-.73-1.34-.64-2.59-.45-3.89m-45.42 0c-.04.2-.73 3.41-4.27 4.29-1.18.3-3.2-.33-4.48-.98a30.5 30.5 0 0 0-5.44-2.12l-.05.08-.09.12c-.58.81-1.21 1.57-1.89 2.26l-.05.05-.03.03-.21.2c-.4.38-.81.74-1.23 1.07l-.12.09-.1.07-.09.06-.2.14c-.88.62-2.06 1.56-3.23 1.39-1.1-.16-2.35-.6-3.28-1.04a8.2 8.2 0 0 1-2.13-1.4 1.38 1.38 0 0 1-.39-.44c-2.57 1-5.36 1.38-6.73 4.22-.3.62-.55 1.35-.48 2.04.08.89 1.06 1 1.82 1.2 1.9.51 3.53.89 5.72 1.34 2.5.52 4.76.83 7.29.72 1.89-.08 3.49-.18 5.14-1.19.66-.41 1.35-.82 1.92-1.35 1.28-1.19 2.11-2.43 3.77-3.15a23.2 23.2 0 0 1 3.71-1.27c1.8-.45 3.74-.76 4.69-2.54.71-1.34.63-2.59.43-3.89" fill="#552716"/>
<path id="Bottom_Gunslinger-Boot" d="M107.64 229.04c.08.49.24.98.51 1.49.95 1.78 2.89 2.09 4.69 2.54 1.27.32 2.51.75 3.71 1.27 1.66.72 2.48 1.96 3.77 3.15.57.53 1.25.94 1.92 1.35 1.65 1.01 3.25 1.11 5.14 1.19 2.53.1 4.78-.2 7.29-.72 2.19-.46 3.82-.84 5.72-1.34.61-.16 1.36-.27 1.67-.76l.36.8.21 1.64s-2.03 1.09-4.2 1.57c-2.16.48-6.53 1.15-6.53 1.15l-.3-.71-.98.21.05.7-2.38.13-.51-.69-.79.02.12.61s-1.47-.02-2.29-.51c-.15-.23-.46-.61-.46-.61l-.56-.31.07.58-2.04-.73-.1-.79-.59-.34-.03.57-1.46-1.12-.16-.69-3.64-2.55-.57 1.33-2.55-.55-.08-.55-.65-.27-.45.42-1.71-.7-.04-.51-.56-.19-.06.37-1.62-1.12-.31-2.23-.07-2.42.46-.68m-45.29 0a4.8 4.8 0 0 1-.51 1.49c-.95 1.78-2.89 2.09-4.69 2.54-1.27.32-2.51.75-3.71 1.27-1.66.72-2.48 1.96-3.77 3.15-.57.53-1.25.94-1.92 1.35-1.65 1.01-3.25 1.11-5.14 1.19-2.53.1-4.78-.2-7.29-.72-2.19-.46-3.83-.84-5.72-1.34-.61-.16-1.36-.27-1.67-.76l-.36.8-.21 1.64s2.03 1.09 4.2 1.57c2.16.48 6.53 1.15 6.53 1.15l.3-.71.98.21-.05.7 2.38.13.51-.69.8.02-.12.61s1.47-.02 2.29-.51c.15-.23.46-.61.46-.61l.56-.31-.07.58 2.04-.73.1-.79.59-.34.02.57 1.46-1.12.16-.69 3.64-2.55.57 1.33 2.55-.55.08-.55.65-.27.45.42 1.71-.7.04-.51.56-.19.07.37 1.62-1.12.31-2.23.07-2.42-.47-.68" fill="#A87757"/>
<path id="Top_Gunslinger-Boot" d="M121.87 227.77a25.53 25.53 0 0 1-4.16-10.29l.61-.05h.02l.07-.01.2-.02.31-.03.13-.02 1.04-.14.54-.1.11-.03.04-.01.08-.02.37-.09.33-.08.06-.01c1.15-.29 2.31-.64 2.31-.64.32 1.48.47 3.17 1.09 4.56.98 2.18 2.78 3.85 4.46 5.51 1.15 1.14 2.28 2.44 3.66 3.31.58.37 1.21.66 1.84.9a7.2 7.2 0 0 1-2.53 1.84c-.93.44-2.17.88-3.28 1.04-1.17.17-2.35-.77-3.23-1.39a17.07 17.07 0 0 1-4.06-4.19l-.01-.04m-73.75 0a25.53 25.53 0 0 0 4.16-10.29l-.61-.05h-.02l-.08-.01-.2-.02-.31-.03-.13-.02-1.04-.14-.54-.1-.11-.03-.04-.01-.08-.02-.37-.09-.33-.08-.06-.01c-1.15-.29-2.31-.64-2.31-.64-.32 1.48-.47 3.17-1.09 4.56-.98 2.18-2.78 3.85-4.46 5.51-1.15 1.14-2.28 2.44-3.66 3.31-.58.37-1.21.66-1.84.9a7.12 7.12 0 0 0 2.53 1.84c.93.44 2.17.88 3.28 1.04 1.17.17 2.35-.77 3.23-1.39a17.07 17.07 0 0 0 4.06-4.19l.02-.04" fill="#A87757"/>
<path id="Side_Gunslinger-Boot" d="M121.89 227.8c-1.87.54-3.7 1.24-5.44 2.12-1.27.65-3.3 1.27-4.48.98a5.77 5.77 0 0 1-4.27-4.3c.11-.74.25-1.5.3-2.3.1-1.54-.11-8.21.02-8.14 2.94 1.56 8.18 1.45 9.67 1.33.54 3.37 2.02 7.2 4.2 10.31m-73.8 0c1.87.54 3.7 1.24 5.44 2.12 1.27.65 3.3 1.27 4.48.98a5.77 5.77 0 0 0 4.27-4.3c-.11-.74-.25-1.5-.3-2.3-.1-1.54.11-8.21-.02-8.14-2.94 1.56-8.18 1.45-9.67 1.33a25.55 25.55 0 0 1-4.2 10.31" fill="#552716"/>
</g></g>
<g id="Gloves">
<g id="Left-Glove"><g id="Basic_Left_Glove" class="option" fill="#AA744F">
<path d="M138.6 124.11a5.98 5.98 0 0 0-1.58.1c-.36.08-.72.16-1.04.35-.99.57-.72 1.81.16 2.28 1.03.55 2.66.01 3.13-1.05.19-.44-.41-1.26-.67-1.68"/>
<path d="M136.79 125.19a5.68 5.68 0 0 0-1.59.1c-.36.08-.72.16-1.04.35-.99.57-.72 1.81.16 2.28 1.03.55 2.66.01 3.13-1.05.2-.44-.4-1.26-.66-1.68"/>
<path d="M135.49 126.65a7.5 7.5 0 0 0-1.7.31c-.35.12-.69.26-.99.48-.9.7-.47 1.89.47 2.24 1.1.41 2.64-.35 2.96-1.46.13-.46-.74-1.57-.74-1.57z"/>
<path d="M132.55 110.05s-1.56 2.15-1.97 3.69c-.29 1.09-.13 3.68-.49 5.43-.36 1.74-.69 2.71-.69 2.71s-1.38 2.79-1.14 3.43c.24.64 1.45 1.21 2.15.87.86-.42 1.93-2.39 2.61-3.77.69-1.41 1.25-3.41 1.25-3.41s.95.32 1.43.7c1.61 1.24.91 4.96.91 4.96s-.66 1.33-1.66 2.83c-1.36 2.05-3.46 3.81-2.07 5.37 1.29 1.46 4.22-2.37 4.22-2.37l2.87-3.73s3.3-5.41 3.47-6.46c.13-.8.02-3.47.02-3.47l-1.03-10.37-5.24.44-4.31 1.39-.33 1.76"/>
</g>
</g>
<g id="Right-Glove"><g id="Basic_Right_Glove" class="option" fill="#AA744F">
<path d="M31.4 124.11a5.98 5.98 0 0 1 1.58.1c.36.08.72.16 1.04.35.99.57.72 1.81-.16 2.28-1.03.55-2.66.01-3.13-1.05-.2-.44.41-1.26.67-1.68"/>
<path d="M33.21 125.19a5.59 5.59 0 0 1 2.62.45c.99.57.72 1.81-.16 2.28-1.03.55-2.66.01-3.13-1.05-.19-.44.41-1.26.67-1.68"/>
<path d="M34.51 126.65a7.5 7.5 0 0 1 1.7.31c.35.12.69.26.99.48.9.7.47 1.89-.47 2.24-1.1.41-2.64-.35-2.96-1.46-.13-.46.74-1.57.74-1.57z"/>
<path d="M37.45 110.05s1.56 2.15 1.97 3.69c.29 1.09.13 3.68.49 5.43.36 1.74.69 2.71.69 2.71s1.38 2.79 1.14 3.43c-.24.64-1.45 1.21-2.15.87-.86-.42-1.93-2.39-2.61-3.77-.69-1.41-1.25-3.41-1.25-3.41s-.95.32-1.43.7c-1.61 1.24-.91 4.96-.91 4.96s.66 1.33 1.66 2.83c1.36 2.05 3.46 3.81 2.08 5.37-1.29 1.46-4.22-2.37-4.22-2.37l-2.87-3.73s-3.3-5.41-3.47-6.46c-.13-.8-.02-3.47-.02-3.47l1.03-10.37 5.24.44 4.31 1.39.32 1.76"/>
</g>
</g>
</g>
<g id="Biceps">
<g id="Left-Biceps"><g id="Basic_Biceps_Left" class="option">
<path id="Main_Basic_Biceps_Left" d="M134.37 52.38c-1.14-2.74-6.21-14.78-6.21-14.78l-10.42 4.28c-.59.24-.87.91-.63 1.5l4.87 11.74a3.36 3.36 0 0 0 4.37 1.8l7.4-3.04c.58-.25.86-.92.62-1.5z" fill="#552716"/>
<path id="Strap_Basic_Biceps_Left" d="m119.35 48.7-5.85 2.4-.14 4.29 7.49-3.07-1.5-3.62" fill="#552716"/>
<path id="Trauma-Plate_Basic_Biceps_Left" class="toggle" style="" d="m134.34 51.81-5.29-12.74-10.16 4.17 4.67 11.24c.17.4.49.72.89.88.4.17.85.17 1.26 0l8.63-3.55" fill="#6490AD"/>
</g>
</g>
<g id="Right-Biceps"><g id="Basic_Biceps_Right" class="option">
<path id="Main_Basic_Biceps_Right" d="M35.65 52.38c1.14-2.74 6.22-14.78 6.22-14.78l10.42 4.28c.59.24.87.91.63 1.5l-4.87 11.74a3.36 3.36 0 0 1-4.37 1.8l-7.4-3.04a1.16 1.16 0 0 1-.63-1.5z" fill="#552716"/>
<path id="Strap_Basic_Biceps_Right" d="m50.68 48.7 5.85 2.4.14 4.29-7.49-3.07 1.5-3.62" fill="#552716"/>
<path id="Trauma-Plate_Basic_Biceps_Right" class="toggle" style="" d="m35.69 51.81 5.29-12.74 10.16 4.17-4.66 11.24a1.67 1.67 0 0 1-2.15.88l-8.64-3.55" fill="#6490AD"/>
</g>
</g>
</g>
<g id="BicepsDecals" mask="url(#BicepsMask)"/>
<path id="Vest" d="M85 20.92c8.5-.01 15.43-4.3 15.63-8.01l.15.02 18.38 5.42 13.31 23.94-2.86 1.16-13.42-8.6-2.31 3.72-1.54 47.4s-8.72 4.71-13.53 5.35c-3.44.45-8.63.68-13.79.67-5.16.01-10.35-.22-13.79-.67-4.81-.63-13.53-5.35-13.53-5.35l-1.54-47.4-2.31-3.72-13.42 8.6-2.86-1.16 13.31-23.94 18.38-5.42.15-.02c.16 3.71 7.09 8.01 15.59 8.01" fill="#552716"/>
<g id="SuitDecals" mask="url(#SuitMask)"/>
<g class="swappable" id="Chest"><g id="Chest_Heavy">
<g id="Abdomen_Heavy">
<path id="Under-Plates_Abdomen_Heavy" d="M73.86 69.99h22.29v2.83H73.86zm0 2.83h22.29v2.83H73.86zm0 2.83h22.29v2.83H73.86zm0 2.83h22.29v2.83H73.86zm0 2.83h22.29v2.83H73.86z" fill="#6490AD"/>
<g id="Abdomen-Plate_Heavy" fill="#6490AD">
<path d="m78.16 60.86-11.11 4.69L66 63.03l12.15-5.13v2.96z"/>
<path d="m70.94 74.95-3.9-9.4 11.11-4.69 3.48 9.89-10.69 4.2z"/>
<path d="m66 63.03-4.67.81 6.89 16.28 4.7-.93L66 63.03zm25.84-2.17 11.11 4.69 1.04-2.52-12.15-5.13v2.96z"/>
<path d="m99.06 74.95 3.9-9.4-11.11-4.69-3.48 9.89 10.69 4.2z"/>
<path d="m104 63.03 4.67.81-6.89 16.28-4.7-.93L104 63.03zM78.19 57.9H91.8v2.96H78.19zm3.44 12.85-3.48-9.89h13.69l-3.48 9.89h-6.73z"/>
</g>
</g>
<g id="Neck-Armor_Heavy">
<path id="Neck-Plate_Heavy" d="m69.69 11.62-9.62 2.1.92 3.57a5.11 5.11 0 0 0 6.04 3.72 4.73 4.73 0 0 0 3.59-5.82l-.93-3.57zm30.62 0 9.62 2.1-.92 3.57a5.1 5.1 0 0 1-6.04 3.72 4.73 4.73 0 0 1-3.59-5.82l.93-3.57z" fill="#552716"/>
<path id="Secondary_Neck-Plate_Heavy" d="m67.3 11.8-4.84 1.06.69 2.67a2.57 2.57 0 0 0 3.04 1.87 2.4 2.4 0 0 0 1.8-2.93l-.69-2.67zm35.4 0 4.84 1.06-.69 2.67a2.57 2.57 0 0 1-3.04 1.87 2.4 2.4 0 0 1-1.8-2.93l.69-2.67z" fill="#552716"/>
</g>
<g id="Full-Chest_Heavy">
<path id="Under-Plate_Chest_Heavy" d="M90.5 54.56h-11l-2.76 2.36v1.58l1.45-.6H91.8l1.45.61v-1.59l-2.75-2.36z" fill="#552716"/>
<g id="Chest-Plate_Heavy" fill="#6490AD">
<path d="m65.78 61.66 9.75-5.63 1.32-2.67 2.6.35h11.11l2.6-.35 1.32 2.67 9.75 5.63 4.53.99-.11 1.65-4.85-.84-10.54-4.37v-2.17l-2.76-2.36h-11l-2.76 2.36v2.17L66.2 63.46l-4.85.84-.11-1.65 4.54-.99zm42.97.98 5.64-14.4.83 2.95-1.79 10.71-4.68.74zM54.78 51.19l.83-2.95 5.64 14.4-4.68-.74-1.79-10.71z"/>
<path d="M61.09 42.62V36.6l-.46-10.79 2.81-3.1 8.51-1.76 2.2 2.57h21.69l2.2-2.57 8.51 1.76 2.81 3.1-.45 10.53-.01-.02v6.31L93.15 53.36l-2.6.35h-11.1l-2.6-.35-15.76-10.74z"/>
<path d="M108.91 36.61v6.02l5.49 5.61-5.49-11.63zM76.85 53.36 61.09 42.62l-5.49 5.61 5.64 14.4 4.53-.99 9.75-5.63 1.33-2.65z"/>
<path d="m114.4 48.24-5.64 14.4-4.53-.99-9.75-5.63-1.32-2.67 15.75-10.74 5.49 5.63z"/>
<path d="m113.43 61.9-.19 1.15-4.61 1.24.12-1.65 4.68-.74zM61.09 36.61v6.02l-5.49 5.61 5.49-11.63z"/>
<path d="M60.63 25.82a62.96 62.96 0 0 1-2.28 16.61l2.74-5.82-.46-10.79zm48.75 0c.06 5.53.72 11.07 2.28 16.61l-2.74-5.82.46-10.79zM61.25 62.64l.11 1.65-4.61-1.24-.19-1.15 4.69.74z"/>
</g>
<g id="Accents_Chest-Plate_Heavy" class="toggle">
<path id="Accent-3_Accents_Chest-Plate_Heavy" d="m97.88 36.45-.58-1.79h2.63l-.57 1.79h-1.48zm0 3.47-.58-1.79h2.63l-.57 1.79h-1.48zM96.19 25.8h4.93v.54h-4.93zm0 1.72h4.93v.54h-4.93z" fill="#552716"/>
<path id="Accent-2_Accents_Chest-Plate_Heavy" d="M70.47 23.02a2.89 2.89 0 0 0-3.06-2.66c-.73.05-1.42.39-1.9.94a2.8 2.8 0 0 0-.67 2.01l.2 2.66a2.89 2.89 0 0 0 3.06 2.66 2.78 2.78 0 0 0 2.57-2.95l-.2-2.66z" fill="#552716"/>
<g id="Accent-1_Accents_Chest-Plate_Heavy" fill="#6490AD">
<path d="m69.65 20.78-4.33.28.54 7.14 4.33-.28-.54-7.14z"/>
<path d="m69.18 21.34-3.31.21.08 1.02 3.3-.21-.07-1.02zm-2.78 1.21-.45.03.42 5.59.45-.03-.42-5.59z"/>
<path d="m66.88 22.51-.45.03.42 5.6.45-.03-.42-5.6zm2.37-.15-.45.03.42 5.59.45-.03-.42-5.59zm-.47.03-.45.03.42 5.6.45-.03-.42-5.6zm-.95.06-.45.03.42 5.6.45-.03-.42-5.6zm.47-.03-.45.03.42 5.6.45-.03-.42-5.6zm-.95.07-.45.03.42 5.59.45-.03-.42-5.59z"/>
</g>
</g>
</g>
<g id="Iron-Heart_Heavy">
<path id="Heart_Heavy" d="m85 31.46 3.24 2.99v5.86L85 43.28l-3.24-2.98v-5.86L85 31.46z" fill="#BA0721"/>
<g id="None_Heart_Heavy" class="option"/></g>
</g></g>
<g id="ChestDecals" mask="url(#ChestMask)"/>
<g id="Chest-Attachments"><g id="Bandoleer_Accessories_Chest" class="option">
<g id="Strap_Bandoleer_Accessories_Chest" fill="#552716">
<path d="m113.05 15.37-6.61-3.15L64.67 87.5l6.61 3.62 41.77-75.75"/>
<path d="m111.26 14.16-2.51-1.17-8.34 15.03 2.41 1.32 8.44-15.18M99.44 35.85l-2.76-1.51-12.82 23.1 2.76 1.51 12.82-23.1"/>
<path d="m99.71 36.72-3.92-2.15-1.28 2.32 3.92 2.15 1.28-2.32m-1.56 2.81-3.92-2.15-1.28 2.32 3.92 2.15 1.28-2.32m-1.55 2.8-3.92-2.15-1.28 2.32 3.92 2.15 1.28-2.32m-1.56 2.81-3.92-2.15-1.28 2.32 3.92 2.15 1.28-2.32m-1.56 2.8-3.92-2.15-1.29 2.32 3.92 2.15 1.29-2.32m-3.11 5.61-3.92-2.15-1.29 2.32 3.92 2.15 1.29-2.32m1.56-2.8-3.92-2.15-1.29 2.32 3.92 2.15 1.29-2.32m-3.11 5.61-3.92-2.15-1.28 2.31 3.92 2.15 1.28-2.31"/>
</g>
<g id="Ammo_Bandoleer_Accessories_Chest" fill="#1D1D1D">
<path d="m99.57 36.97 1.6.88c.17.09.23.31.14.48l-.66 1.18a.36.36 0 0 1-.48.14l-1.6-.88 1-1.8z"/>
<path d="m100.75 37.61-.13-.07-1 1.8.13.07 1-1.8zm-.28-.15-.13-.07-1 1.8.14.07.99-1.8zm-4.82-2.64-1 1.8-1.6-.88a.36.36 0 0 1-.14-.48l.66-1.19a.36.36 0 0 1 .48-.14l1.6.89z"/>
<path d="m94.44 34.15-.13-.07-1 1.8.14.07.99-1.8zm2.01 8.45 1.6.88c.17.09.23.31.14.48l-.66 1.19a.36.36 0 0 1-.48.14l-1.6-.88 1-1.81z"/>
<path d="m97.63 43.24-.13-.07-1 1.8.13.07 1-1.8zm-.28-.15-.13-.07-1 1.8.13.07 1-1.8zm-4.82-2.64-1 1.8-1.6-.88a.36.36 0 0 1-.14-.48l.66-1.19c.1-.17.31-.23.48-.14l1.6.89z"/>
<path d="m91.32 39.78-.13-.07-1 1.8.13.07 1-1.8zm3.58 5.6 1.6.88c.17.09.23.31.14.48l-.66 1.18a.36.36 0 0 1-.48.14l-1.6-.88 1-1.8z"/>
<path d="m96.08 46.03-.13-.07-1 1.8.13.07 1-1.8zm-.28-.15-.13-.07-1 1.8.13.07 1-1.8zm-4.82-2.64-1 1.8-1.6-.88a.36.36 0 0 1-.14-.48l.66-1.19c.1-.17.31-.23.48-.14l1.6.89z"/>
<path d="m89.77 42.57-.13-.07-1 1.8.13.07 1-1.8zm3.57 5.64 1.6.88c.17.09.23.31.14.48l-.66 1.19a.36.36 0 0 1-.48.14l-1.6-.88 1-1.81z"/>
<path d="m94.52 48.85-.13-.07-1 1.8.13.07 1-1.8zm-.28-.15-.13-.07-1 1.8.13.07 1-1.8zm-4.82-2.64-1 1.8-1.6-.88a.36.36 0 0 1-.14-.48l.66-1.18c.1-.17.31-.23.48-.14l1.6.88z"/>
<path d="m88.21 45.39-.13-.07-1 1.8.13.07 1-1.8z"/>
</g>
<g id="Buckles_Bandoleer_Accessories_Chest" fill="#CACACA">
<path d="m104 27.77-2.88-1.58-1.63 2.93 2.88 1.58 1.63-2.93z"/>
<path d="m103.26 28.27-2.17-1.19-1.63 2.93 2.17 1.19 1.63-2.93zm.74-3.93-1.86-1.01 1.61-2.92 3.76 2.05-1.61 2.92-1.9-1.04.36-.65 1.06.58.89-1.61-2.07-1.13-.89 1.61 1.01.55"/>
</g>
</g></g>
<g id="Collar"><g id="Cloth-Wrap-Right_Collar" class="option">
<g id="Main_Cloth-Wrap-Right_Collar" fill="#A40444">
<path d="M94.88 22.25c5-1.56 5.91-4.07 6.21-6.59.12-1.03-1.36-3.72.17-4.41 1.73-.78 5.81.44 7.49.8 1.25.27 2.36.58 3.63.59 2.94.03 5.28 1.99 5.54 3.45.37 2.04-3.27 2.78-4.97 4.33-4.26 3.88-5.74 9.13-14.69 10.57-4.11.66-8.18-.27-11.99-1.12-9.86-2.19-15.23-4.07-21.57-8.93-2.77-2.13-6.95-3.86-6.85-6.71.01-.12 2.02-1.31 2.22-1.36 1.78-.44 3.29-1.17 5.24-1.21 1.17-.02.98.98 1.06 1.43.33 1.74 1.93 3.05 3.93 4.36 5.3 3.47 17.34 4.54 24.58 4.8z"/>
<path d="M94.88 22.25c1.32.05 2.48.25 3.5.32 4.57.28 6.21-.83 7.09-2.86m3.63-7.6a6.08 6.08 0 0 1 .1 6.33m-38.49-.21c3.43 4.66 8.51 6.13 14.08 6.7M61.44 12.49c.2 1.18.91 1.62 1.78 2.41.5.46 1.12.78 1.52 1.35.14.2.22.44.31.67"/>
</g>
<path id="Buckle_Cloth-Wrap-Right_Collar" d="m71.89 17.35-2.91-2.08-5.06 7.02 2.91 2.08 5.06-7.02z" fill="#8F6244"/>
</g></g>
<g id="CollarDecals" mask="url(#CollarMask)"/>
<g id="Helmets" class="swappable" transform="translate(45,-62)"><g id="Helmet_Operator">
<g id="Left-Earcap_Operator"><g id="Ear-Cap_Left_Operator" fill="#A87757">
<path d="M58.54 53.27h1.01l.39 1.46v.73l-.9.99.41 11.58h-.49l-.42-14.76z"/>
<path d="M58.58 54.65h.66v.71h-.64l-.02-.71zM59.93 55.47v.6l-.18.31-.72.09.9-1z"/>
<path d="m59.75 56.37.18 9.8-.49 1.87-.41-11.58.72-.09zM58.54 53.27l-.29-8.62h1.1l.45 1.16v4.34l.48.56v-4.06L61 47v6.27h-2.46z"/>
<path d="m60.27 46.81-.48-.23v3.58l.48.56v-3.91zM61 47.75l.59.23v1.5l-.59.25v-1.98z"/>
<path d="m61 48.64.4.1v.83l-.4.16v-1.09zM59.35 44.65l.28 7.15h-1.14l-.42-7.15h1.28zM60.27 53.27l-.65-1.46h-1.14l.05 1.46"/>
<path d="m59.62 53.27-.48-1.24h-.64l-.01 1.24h1.13zM60.27 50.71v2.56M58.27 47.75h.76v1.07h-.69l-.07-1.07z"/>
</g>
</g>
<g id="Right-Earcap_Operator">
<g id="Module_Right_Operator" class="option" style="">
<g id="Main_Module_Right_Operator" fill="#8F6244">
<path d="M17.42 49.13h2v2.66h-2zM16.08 47.72h.73v.47h-.73zM15.01 47.72h.73v.47h-.73zM13.18 50.29v-.73h.47v.73h-.47zM13.18 51.36v-.73h.47v.73h-.47zM16.08 52.73h.73v.47h-.73zM15.01 52.73h.73v.47h-.73z"/>
<circle cx="15.91" cy="50.46" r="2.46"/>
</g>
<g id="Inside_Module_Right_Operator" fill="#B7FAFF">
<ellipse cx="15.91" cy="50.46" rx="1.94" ry="1.92"/>
<ellipse cx="15.91" cy="50.46" rx="1.15" ry="1.13"/>
<ellipse cx="15.91" cy="50.46" rx=".73" ry=".72"/>
<circle cx="15.91" cy="50.46" r=".37"/>
</g>
</g><g id="Ear-Cap_Right_Operator" fill="#A87757">
<path d="M21.4 53.27h-1.01L20 54.73v.73l.9.99-.4 11.59h.49l.41-14.77z"/>
<path d="M21.36 54.65h-.66v.71h.64l.02-.71zM20 55.47v.6l.18.31.72.09-.9-1z"/>
<path d="m20.19 56.37-.19 9.8.5 1.87.41-11.58-.72-.09zM21.4 53.27l.29-8.62h-1.1l-.45 1.16v4.34l-.48.56v-4.06l-.72.35v6.27h2.46z"/>
<path d="m19.67 46.81.48-.23v3.58l-.48.56v-3.91zM18.94 47.75l-.59.23v1.5l.59.24v-1.97z"/>
<path d="m18.94 48.64-.4.1v.83l.4.16v-1.09zM20.59 44.65l-.28 7.15h1.14l.42-7.15h-1.28zM19.67 53.27l.65-1.46h1.14l-.05 1.46"/>
<path d="m20.32 53.27.48-1.24h.64l.01 1.24h-1.13zM19.67 50.71v2.56M21.67 47.75h-.76v1.07h.69l.07-1.07z"/>
</g>
</g>
<g id="Helmet_Pieces_Operator">
<g id="Face_Operator" fill="#6490AD">
<path d="m22.83 69.4 2.46-9.74h.01c.18.01 3.16.33 6.1 4.7 2.04 3.04 2.62 11.67 2.62 11.67L22.83 69.4zM57.11 69.4l-2.46-9.74h-.01c-.18.01-3.16.33-6.1 4.7-2.04 3.04-2.62 11.67-2.62 11.67l11.19-6.63z"/>
</g>
<g id="Cheeks_Operator" fill="#8F6244">
<path d="m21.4 51.83-.46 16.24 1.9 1.33 2.46-9.74-3.9-7.83zM58.54 51.83 59 68.07l-1.9 1.33-2.46-9.74 3.9-7.83z"/>
<path d="M21.41 51.83c.33.08 5.62 1.4 8.81 6.52 3.18 5.12 4.55 16.92 4.63 17.65v.03h-.84s-.57-8.62-2.62-11.67c-3.03-4.51-6.11-4.7-6.11-4.7l-3.9-7.83h.03zM58.53 51.83c-.33.08-5.62 1.4-8.81 6.52-3.19 5.12-4.55 16.92-4.64 17.65v.03h.84s.57-8.62 2.62-11.67c3.03-4.51 6.11-4.7 6.11-4.7l3.9-7.83h-.02z"/>
</g>
<path fill="#000000" id="Visor_Operator" d="m22.36 47.17 17.61.95 17.61-.95v1.46l-13.74 3.21-1.05 24.2h-5.81l-.87-24.2-13.74-3.21v-1.46z"/>
<path id="Eyes_Operator" d="M22.36 47.17v1.46l13.74 3.21.87 24.2h-2.12s-1.35-12.4-4.64-17.68-8.82-6.52-8.82-6.52l.48-7.15h36.19l.48 7.15s-5.53 1.24-8.82 6.52c-3.29 5.28-4.64 17.68-4.64 17.68h-2.3l1.05-24.2 13.74-3.21v-1.46s-11.74.95-17.61.95c-5.86 0-17.6-.95-17.6-.95z" fill="#6490AD"/>
<path id="Dome_Operator" d="M58.02 44.68H21.83c0-9.25 8.11-16.75 18.1-16.75 9.98 0 18.09 7.5 18.09 16.75z" fill="#6490AD"/>
<g id="Ridge-2_Operator" fill="#8F6244">
<path d="m38.39 46.04-1.21-1.37v-16.4s.85-.59 2.79-.54h.02c1.92-.05 2.77.54 2.77.54v16.41l-1.21 1.37h-3.16z"/>
<path d="m38.58 43.98-1.4.7 1.21 1.37.4-1.77-.21-.3zM41.15 44.27l.4 1.77 1.21-1.37-1.39-.7-.22.3z"/>
</g>
<path id="Ridge-1_Operator" d="m38.79 44.27-.21-.29V27.82s.43-.14 1.4-.09H40c.95-.05 1.37.09 1.37.09v16.16l-.21.29h-2.37z" fill="#A87757"/>
</g>
<g id="Macrobinoculars_Brow_Operator" class="toggle" style="display:none"/>
</g></g>
<g id="HelmetsDecals" mask="url(#HelmetsMask)"/>
<g id="Shoulders">
<g id="Left-Shoulder"><g id="Legacy-x2_Shoulder_Left" class="option">
<path id="Plate-2_Shoulder_Left_Legacy-x2" d="m115.99 15.27-5.8 8.69 5.95 8.29 9.39-2.29 5.9 3.63 4.41-1.15-19.85-17.17z" fill="#A87757"/>
<path id="Trauma-Plate-2_Shoulder_Legacy-x2_Left" class="toggle" style="" d="m131.69 31.78 2.85-.74-17.1-14.9-5.19 7.75 4.6 6.43 8.64-2.17 6.2 3.63z" fill="#6490AD"/>
<path id="Plate-1_Shoulder_Left_Legacy-x2" d="m108.85 10.82-2.61 10.1 8.36 5.89 8.12-5.22 6.77 1.51 3.79-2.53-24.43-9.75z" fill="#A87757"/>
<path id="Trauma-Plate-1_Shoulder_Legacy-x2_Left" class="toggle" style="" d="m129.14 21.3 2.45-1.64-21.09-8.46-2.33 9.02 6.47 4.56 7.43-4.88 7.07 1.4z" fill="#6490AD"/>
</g></g>
<g id="Right-Shoulder"><g id="Legacy-x2_Shoulder_Right" class="option">
<path id="Plate-2_Shoulder_Right_Legacy-x2" d="m54.01 15.27 5.8 8.69-5.95 8.29-9.39-2.29-5.9 3.63-4.41-1.15 19.85-17.17z" fill="#A87757"/>
<path id="Trauma-Plate-2_Shoulder_Legacy-x2_Right" class="toggle" style="" d="m38.31 31.78-2.85-.74 17.1-14.9 5.19 7.75-4.6 6.43-8.64-2.17-6.2 3.63z" fill="#6490AD"/>
<path id="Plate-1_Shoulder_Right_Legacy-x2" d="m61.15 10.82 2.61 10.1-8.36 5.89-8.12-5.22-6.77 1.51-3.79-2.53 24.43-9.75z" fill="#A87757"/>
<path id="Trauma-Plate-1_Shoulder_Legacy-x2_Right" class="toggle" style="" d="m40.86 21.3-2.45-1.64L59.5 11.2l2.33 9.02-6.47 4.56-7.44-4.88-7.06 1.4z" fill="#6490AD"/>
</g></g>
</g>
<g id="ShouldersDecals" mask="url(#ShouldersMask)"/>
<g id="Gauntlets">
<g id="Left-Gauntlets"><g id="Gunslinger_Gauntlet_Left" class="option">
<path id="Accent-Top_Gunslinger_Gauntlet_Left" d="m139.9 80.56.62 5.62-2.85.79-.66-5.33 2.89-1.08zm-1.35 20.83.57 2.87-2.51.54-.6-2.86 2.54-.55z" fill="#552716"/>
<path id="Top_Gunslinger_Gauntlet_Left" d="m139.9 80.56 1.3-.49 2.29 26.33-6.27 1.32-.85-4.08.24 1.15 2.51-.54-.57-2.87-2.54.54-3.85-18.47 7.74-2.89-2.89 1.08.66 5.33 2.85-.79-.62-5.62z" fill="#6490AD"/>
<path id="Accent-Bottom_Gunslinger_Gauntlet_Left" d="m128.55 91.98-.74-2.3-1.62.52.74 2.3 1.62-.52zm.85 2.61-.74-2.3-1.62.52.74 2.3 1.62-.52zm6.61 7.34-5.61 1.2.9 2.8 5.3-1.13-.59-2.87z" fill="#552716"/>
<path id="Bottom_Gunslinger_Gauntlet_Left" d="m136.52 104.38-.51-2.45-5.61 1.2.9 2.8 5.3-1.13.61 2.93-3.45.6a1.88 1.88 0 0 1-2.11-1.26l-6.31-19.4 6.89-3.82 4.29 20.53zm-7.12-9.79-.74-2.3-1.62.52.74 2.3 1.62-.52zm-.85-2.61-.74-2.3-1.62.52.74 2.3 1.62-.52z" fill="#6490AD"/><g id="Missle_Attachment_Gunslinger_Gauntlet_Left" class="option">
<g id="Head_Missle_Attachment_Gunslinger_Gauntlet_Left" fill="#B7FAFF">
<path d="m145 99.64-2.27-4.28 3.76-.42-1.49 4.7z"/>
<path d="M144.04 95.61c.08-.01.16.16.18.38.02.22-.03.4-.12.41-.08.01-.16-.16-.18-.38-.01-.21.04-.4.12-.41zm.22 1.16c.07-.01.13.13.15.3.01.17-.03.32-.09.33-.07.01-.13-.13-.15-.3-.01-.17.03-.32.09-.33zm.14 1.06c.06-.01.12.12.13.28.01.16-.02.3-.08.3-.06.01-.12-.12-.13-.28-.02-.15.02-.29.08-.3zm-.97-2.15c.08-.01.16.16.18.38.02.22-.03.4-.11.41-.08.01-.17-.16-.18-.38-.02-.21.03-.4.11-.41zm2.44-.27c.08-.01.16.16.18.38.02.22-.03.4-.12.41-.08.01-.16-.16-.18-.38-.01-.22.04-.4.12-.41zm-.61.07c.08-.01.17.16.18.38.02.22-.03.4-.11.41-.08.01-.16-.16-.18-.38s.03-.4.11-.41zm-.02 1.18c.07-.01.13.13.15.3.01.18-.03.32-.09.33-.07.01-.13-.13-.15-.3-.02-.17.02-.32.09-.33zm.05 1.07c.06-.01.12.12.13.28.01.16-.02.3-.08.3-.06.01-.12-.12-.13-.28-.02-.15.02-.29.08-.3zm-.64-2.18c.08-.01.16.16.18.38.02.22-.03.4-.12.41-.08.01-.16-.16-.18-.38s.04-.4.12-.41zm.1 1.17c.07-.01.13.13.15.3.01.18-.03.32-.09.33-.07.01-.13-.13-.15-.3-.02-.18.03-.33.09-.33zm.09 1.07c.06-.01.12.12.13.28.01.16-.02.3-.08.3-.06.01-.12-.12-.13-.28-.02-.16.02-.3.08-.3zm.93-.55c-.06-.01-.12-.14-.13-.3-.01-.17.03-.32.09-.33.07-.01.13.12.15.29l-.11.34zm-2.09-.09c-.01-.17.03-.31.09-.32.07-.01.13.13.15.3.01.16-.02.3-.08.33l-.16-.31z"/>
</g>
<g id="Main_Missle_Attachment_Gunslinger_Gauntlet_Left" fill="#552716">
<path d="m145.99 94.36-2.84.32.05.62 2.85-.32-.06-.62zm-1.13-13.11-2.84.32.05.62 2.85-.32-.06-.62zm-.78-2.22-1.68.19.05.62 1.68-.19-.05-.62z"/>
<path d="m144.85 79.57-3.12.35.14 1.66 3.12-.35-.14-1.66zm.32 2.27-3.36.38 1.07 12.5 3.36-.38-1.07-12.5z"/>
<path d="m142.5 88.81-.55.06.25 2.93.55-.06-.25-2.93z"/>
</g>
<g id="Accent_Missle_Attachment_Gunslinger_Gauntlet_Left" fill="#B7FAFF">
<path d="m145.07 100.43-.45-1.08.7-.08-.25 1.16z"/>
<path d="m145.23 99-.56.06-.04.29.7-.08-.1-.27zm-1.04-20.86-2.05.23.07.87 2.05-.23-.07-.87z"/>
<path d="m143.81 77.72-1.37.15-.3.5 2.05-.23-.38-.42zm.35 4.23-.57.06 1.07 12.5.57-.07-1.07-12.49zm-.77.09-.57.06 1.07 12.5.57-.06-1.07-12.5zm2.04.09-.26-.3 1.07 12.5.2-.35-1.01-11.85zm-.49-.27-.57.07 1.07 12.5.57-.06-1.07-12.51zm-2.33.27-.35.04 1.07 12.5.35-.04-1.07-12.5z"/>
</g>
<path id="Base_Missle_Attachment_Gunslinger_Gauntlet_Left" d="m142.25 81.23-.98-.29 1.22 14.23.91-.51-1.15-13.43zm.25 7.58-.55.06.25 2.93.55-.06-.25-2.93z" fill="#552716"/>
</g></g></g>
<g id="Right-Gauntlets"><g id="Gunslinger_Gauntlet_Right" class="option">
<path id="Accent-Top_Gunslinger_Gauntlet_Right" d="m30.21 80.56-.62 5.62 2.85.79.66-5.33-2.89-1.08zm1.35 20.83-.57 2.87 2.51.54.6-2.86-2.54-.55z" fill="#552716"/>
<path id="Top_Gunslinger_Gauntlet_Right" d="m30.21 80.56-1.3-.49-2.29 26.33 6.27 1.32.85-4.08-.24 1.15-2.51-.54.57-2.87 2.54.54 3.85-18.47-7.74-2.89 2.89 1.08-.66 5.33-2.85-.79.62-5.62z" fill="#6490AD"/>
<path id="Accent-Bottom_Gunslinger_Gauntlet_Right" d="m41.56 91.98.74-2.3 1.62.52-.74 2.3-1.62-.52zm-.85 2.61.74-2.3 1.62.52-.74 2.3-1.62-.52zm-6.61 7.34 5.61 1.2-.9 2.8-5.3-1.13.59-2.87z" fill="#552716"/>
<path id="Bottom_Gunslinger_Gauntlet_Right" d="m33.59 104.38.51-2.45 5.61 1.2-.9 2.8-5.3-1.13-.61 2.93 3.45.6c.92.16 1.82-.38 2.11-1.26l6.31-19.4-6.89-3.82-4.29 20.53zm7.12-9.79.74-2.3 1.62.52-.74 2.3-1.62-.52zm.85-2.61.74-2.3 1.62.52-.74 2.3-1.62-.52z" fill="#6490AD"/><g id="Flamethrower_Attachment_Gunslinger_Gauntlet_Right" class="option">
<g id="Tubes_Flamethrower_Attachment_Gunslinger_Gauntlet_Right" fill="#6490AD">
<path d="m27.35 81.61.83.07-2.1 25.17-.83-.07 2.1-25.17zm-1.91-.16.83.07-1.51 18.05-.83-.07 1.51-18.05z"/>
<path d="m27.06 83.17 1.14.09-.5 6-1.14-.09.5-6zm-1.9-.15 1.14.1-.5 6-1.14-.09.5-6.01z"/>
</g>
<g id="Main_Flamethrower_Attachment_Gunslinger_Gauntlet_Right" fill="#552716">
<path d="m25.09 81.42 3.42.28-.13 1.58-3.42-.28.13-1.58zm-.71 7.57 3.57.3-.08.96-3.57-.29.08-.97z"/>
<path d="m24.45 89.96 3.28.27-.04.48-3.28-.27.04-.48z"/>
<path d="m27.64 88.66.55.06-.25 2.93-.55-.06.25-2.93z"/>
</g>
<g id="Accent_Flamethrower_Attachment_Gunslinger_Gauntlet_Right" fill="#A87757">
<path d="m23.91 99.5.89.07.04 1.25-1.17-.1.24-1.22zm.19-6.44 1.58.13-.16 1.91-1.58-.13.16-1.91z"/>
<path d="m24.16 94.98 1.14.1-.16 1.91-1.14-.1.16-1.91zm1.2 8.61 1.14.09-.22 2.62-1.14-.09.22-2.62zm.7-8.45 1.14.1-.3 3.56-1.14-.09.3-3.57z"/>
<path d="m25.03 104.88 1.58.13-.04.51-1.58-.13.04-.51z"/>
</g>
<path id="Base_Flamethrower_Attachment_Gunslinger_Gauntlet_Right" d="m28.19 88.72.68-7.94-.98.29-1.15 13.43.91.51.29-3.36-.55-.06.25-2.93.55.06z" fill="#552716"/>
</g></g></g>
</g>
<g id="GauntletsDecals" mask="url(#GauntletsMask)"/>
<g id="Shins">
<g id="Left-Shin"><g id="Basic-Shnees_Shin_Left" class="option">
<path id="Shin_Basic-Shnees-Shin_Left" d="M99.91 163.03a4.01 4.01 0 0 1 3.5-4.35l8.89-1.14a4.03 4.03 0 0 1 4.48 3.24c.88 4.63 2.45 11.9 3.65 11.72l4.97 46.08-9.94 1.23-3.07 3.51-4.62-.93-9.52-47.03c2.41-.28 2.11-7.64 1.66-12.33" fill="#552716"/>
<g id="Straps_Basic-Shnees-Shin_Left" class="toggle" fill="#A87757">
<path d="m99.3 182.55 5.15-.86.54 2.35-5.15.86-.54-2.35"/>
<path d="m99.64 182.3 1.09-.18.64 2.78-1.09.18-.64-2.78m4.28 22.94 5.15-.86.54 2.35-5.15.86-.54-2.35"/>
<path d="m104.26 204.99 1.09-.18.64 2.78-1.09.18-.64-2.78"/>
</g>
<g id="Accent_Basic-Shnees-Shin_Left" class="toggle" fill="#A87757">
<path d="m112.18 157.29-3.8-.25-3.81 1.06 11.57 61.61 4.61-.57-8.57-61.85"/>
<path d="m108.38 157.04 10.23 62.37"/>
</g>
</g></g>
<g id="Right-Shin"><g id="Basic-Shnees_Shin_Right" class="option">
<path id="Shin_Basic-Shnees-Shin_Right" d="M69.98 163.03a4.01 4.01 0 0 0-3.5-4.35l-8.89-1.14a4.03 4.03 0 0 0-4.48 3.24c-.88 4.63-2.45 11.9-3.65 11.72l-4.97 46.08 9.94 1.23 3.07 3.51 4.62-.93 9.52-47.03c-2.41-.28-2.1-7.64-1.66-12.33" fill="#552716"/>
<g id="Straps_Basic-Shnees-Shin_Right" class="toggle" fill="#A87757">
<path d="m70.59 182.55-5.15-.86-.54 2.35 5.15.86.54-2.35"/>
<path d="m70.25 182.3-1.09-.18-.64 2.78 1.09.18.64-2.78m-4.28 22.94-5.15-.86-.54 2.35 5.15.86.54-2.35"/>
<path d="m65.63 204.99-1.09-.18-.64 2.78 1.09.18.64-2.78"/>
</g>
<g id="Accent_Basic-Shnees-Shin_Right" class="toggle" fill="#A87757">
<path d="m57.71 157.29 3.81-.25 3.81 1.06-11.57 61.61-4.61-.57 8.56-61.85"/>
<path d="m61.51 157.04-10.23 62.37"/>
</g>
</g></g>
</g>
<g id="ShinsDecals" mask="url(#ShinsMask)"/>
<g id="Foot">
<g id="Left-Ankle">
<g id="None_Ankle_Left" class="option"/></g>
<g id="Left-Toe"><g id="Spikes_Toe_Left" class="option" fill="#A87757">
<path d="M132.2 239.82c2.86-.5 5.74-1.18 8.65-2.03a.76.76 0 0 1 .64.11c.18.13.3.35.3.57l.03.99a29.46 29.46 0 0 1-7.61 2.04c-.49.08-1-.07-1.38-.38-.38-.33-.61-.8-.63-1.3"/>
<path d="m137.04 241.77-3.86-.43a.66.66 0 0 1-.42-.23.63.63 0 0 1-.13-.46c.11-.58.51-.85 1.29-.8a.7.7 0 0 1 .31.1c.51.31 2.81 1.82 2.81 1.82m7.03-2.05-3.42-.3a.66.66 0 0 1-.48-.29.62.62 0 0 1-.04-.56c.21-.27.52-.42 1.03-.39.1 0 .2.03.28.08.43.21 2.63 1.46 2.63 1.46"/>
</g></g>
<g id="Right-Ankle">
<g id="None_Ankle_Right" class="option"/></g>
<g id="Right-Toe"><g id="Spikes_Toe_Right" class="option" fill="#A87757">
<path d="M37.67 239.82a79.96 79.96 0 0 1-8.65-2.03.77.77 0 0 0-.64.11.7.7 0 0 0-.3.57l-.01.56c-.01.26.14.5.38.6 1.99.84 4.42 1.44 7.21 1.86a1.75 1.75 0 0 0 2.01-1.67"/>
<path d="m32.84 241.77 3.86-.43c.16-.02.31-.1.42-.23.1-.13.15-.29.13-.46-.11-.58-.51-.85-1.29-.8a.7.7 0 0 0-.31.1c-.52.31-2.81 1.82-2.81 1.82m-7.03-2.05 3.42-.3c.2-.02.37-.13.48-.29.1-.17.12-.38.04-.56-.21-.27-.52-.42-1.03-.39-.1 0-.2.03-.28.08-.44.21-2.63 1.46-2.63 1.46"/>
</g></g>
</g>
<g id="FootDecals" mask="url(#FootMask)"/>
<g id="Knees">
<g id="Left-Knee"><g id="Galaxy_Knee_Left" class="option">
<g id="Missiles_Galaxy-Knee_Left" class="toggle" style="">
<path id="Base_Missiles_Galaxy-Knee_Left" d="m118.35 160.4-3.12 9.22 2.65-.46c.43-.07.79-.37.93-.78l1.94-5.36a1.21 1.21 0 0 0-.5-1.44l-1.9-1.18z" fill="#552716"/>
<g id="Missile-2_Missiles_Galaxy-Knee_Left" fill="#6490AD">
<path d="M117.86 166.16a1.03 1.03 0 0 0-1.26.75c-.14.55.2 1.12.76 1.26.56.14 1.12-.19 1.25-.75.14-.55-.2-1.12-.75-1.26z"/>
<path d="M117.78 166.49a.7.7 0 0 0-.84.5c-.09.37.14.75.51.85s.75-.13.84-.5a.7.7 0 0 0-.51-.85z"/>
</g>
<g id="Missile-1_Missiles_Galaxy-Knee_Left" fill="#B7FAFF">
<path d="M119.36 161.93c-.56-.14-1.12.2-1.26.75-.14.55.2 1.12.76 1.26.56.14 1.12-.2 1.25-.75.14-.55-.2-1.12-.75-1.26z"/>
<path d="M119.28 162.26a.7.7 0 0 0-.85.5c-.09.37.14.75.51.85.38.09.75-.13.85-.51s-.13-.74-.51-.84z"/>
</g>
</g>
<g id="Strap_Galaxy-Knee_Left" fill="#A87757">
<path d="m98.05 161.5 2.8-.43.4 2.59-2.81.43-.39-2.59z"/>
<path d="m96.61 162.04 1.49-.22.3 1.96-1.48.22-.31-1.96z"/>
</g>
<path id="Knee_Galaxy-Knee_Left" d="m114.57 171.57 4-11.85-4.23-4.86-12.38 1.88-2.58 5.89 7.37 10.13 7.82-1.19z" fill="#A87757"/>
<path id="Trim_Galaxy-Knee_Left" d="m105.79 156.15 4.71-.72.47 3.1-4.71.72-.47-3.1zm-6.42 6.47c4.44.26 8.92 9.89 8.92 9.89l-1.56.24-7.36-10.13zm19.2-2.91c-4.16 1.56-5.56 12.09-5.56 12.09l1.56-.24 4-11.85z" fill="#552716"/>
</g></g>
<g id="Right-Knee"><g id="Galaxy_Knee_Right" class="option">
<g id="Missiles_Galaxy-Knee_Right" class="toggle" style="">
<path id="Base_Missiles_Galaxy-Knee_Right" d="m51.54 160.4 3.12 9.22-2.65-.46a1.18 1.18 0 0 1-.93-.78l-1.94-5.36c-.19-.54.01-1.13.5-1.44l1.9-1.18z" fill="#552716"/>
<g id="Missile-2_Missiles_Galaxy-Knee_Right" fill="#6490AD">
<path d="M52.03 166.16c.56-.14 1.12.19 1.26.75.14.55-.2 1.12-.76 1.26s-1.12-.19-1.25-.75c-.14-.55.2-1.12.75-1.26z"/>
<path d="M52.11 166.49a.7.7 0 0 1 .84.5c.09.37-.14.75-.51.85s-.75-.13-.85-.5a.73.73 0 0 1 .52-.85z"/>
</g>
<g id="Missile-1_Missiles_Galaxy-Knee_Right" fill="#B7FAFF">
<path d="M50.54 161.93c.56-.14 1.12.2 1.26.75a1.04 1.04 0 0 1-2.02.51c-.14-.55.2-1.12.76-1.26z"/>
<path d="M50.61 162.26a.7.7 0 0 1 .85.5.71.71 0 0 1-.51.85.7.7 0 0 1-.84-.51.7.7 0 0 1 .5-.84z"/>
</g>
</g>
<path id="Strap_Galaxy-Knee_Right" d="m71.84 161.5-2.81-.43-.4 2.59 2.8.43.41-2.59zm1.44.54-1.49-.22-.3 1.96 1.49.23.3-1.97z" fill="#A87757"/>
<path id="Knee_Galaxy-Knee_Right" d="m55.32 171.57-4-11.85 4.23-4.86 12.38 1.88 2.58 5.89-7.37 10.13-7.82-1.19z" fill="#A87757"/>
<path id="Trim_Galaxy-Knee_Right" d="m64.1 156.15-4.71-.72-.47 3.1 4.71.72.47-3.1zm6.42 6.47c-4.44.26-8.92 9.89-8.92 9.89l1.56.24 7.36-10.13zm-19.19-2.91c4.16 1.56 5.55 12.09 5.55 12.09l-1.56-.24-3.99-11.85z" fill="#552716"/>
</g></g>
</g>
<g id="KneesDecals" mask="url(#KneesMask)"/>
<g id="Thighs">
<g id="Left-Thigh"><g id="Heavy_Thigh_Left" class="option">
<g id="Thigh_Heavy-Thigh_Left" fill="#6490AD">
<path d="m97.62 118.12-5.78 7.32 6.6 26.24 4.49 1.59-3.13-29.91-2.18-5.24m14.75-1.53 7.17 5.98-1.03 27.03-4.06 2.47-3.13-29.91 1.05-5.57"/>
<path d="m112.37 116.59-14.76 1.52 2.19 5.24 11.51-1.19 1.06-5.57m-1.05 5.58-11.51 1.19 3.13 29.91 11.51-1.19-3.13-29.91"/>
</g>
<g id="Trim_Heavy-Thigh_Left" fill="#552716">
<path d="m112.95 114.3-16.38 1.69 1.04 2.13 14.76-1.52.58-2.3"/>
<path d="m119.26 120.01-6.31-5.72-.58 2.3 7.17 5.98-.28-2.56m-27.67 2.86 4.99-6.88 1.04 2.13-5.78 7.32-.25-2.57"/>
</g>
</g></g>
<g id="Right-Thigh"><g id="Heavy_Thigh_Right" class="option">
<g id="Thigh_Heavy-Thigh_Right" fill="#6490AD">
<path d="m72.28 118.12 5.78 7.32-6.6 26.24-4.49 1.59 3.13-29.91 2.18-5.24m-14.76-1.53-7.17 5.98 1.03 27.03 4.06 2.47 3.13-29.91-1.05-5.57"/>
<path d="m57.52 116.59 14.76 1.52-2.19 5.24-11.51-1.19-1.06-5.57m1.06 5.58 11.51 1.19-3.13 29.91-11.51-1.19 3.13-29.91"/>
</g>
<g id="Trim_Heavy-Thigh_Right" fill="#552716">
<path d="m56.94 114.3 16.38 1.69-1.04 2.13-14.76-1.52-.58-2.3"/>
<path d="m50.63 120.01 6.31-5.72.58 2.3-7.17 5.98.28-2.56m27.68 2.86-4.99-6.88-1.04 2.13 5.78 7.32.25-2.57"/>
</g>
</g></g>
</g>
<g id="ThighsDecals" mask="url(#ThighsMask)"/>
<g id="Groin"><g id="Basic_Groin" class="option">
<path id="Groin-Plate_Basic" d="M78.67 122.29 68.22 99.4h33.42l-10.45 22.89-6.26 5.46-6.26-5.46z" fill="#552716"/>
<path id="Trauma-Plating_Groin" class="toggle" style="" d="m79.77 120.38-8.61-18.86H98.7l-8.61 18.86-5.16 4.49-5.16-4.49z" fill="#6490AD"/>
</g>
</g>
<g id="GroinDecals" mask="url(#GroinMask)"/>
<g id="Waist">
<g id="Accessories_Waist">
<g id="Kama" class="toggle" style="display:none"/>
<g id="Loin-Cloth" class="toggle" style="display:none"/>
<g id="Left-Holster" class="toggle" style=""><g id="Belt-Holster_Left" class="option">
<g id="Weapon_Belt-Holster-Left">
<g id="Main_Weapon_Belt-Holster-Left" fill="#CACACA">
<path d="m116.79 99.11-.24-3.6.62-.04-.15-2.26-.62.04-.08-1.18c-.03-.38.46-.73 1.1-.77l5.37-.36c.63-.04 1.17.23 1.19.62l.08 1.18-.62.04.15 2.26.62-.04.24 3.6-1.46.1.67 9.95-4.73.31-.67-9.95-1.47.1z"/>
<path d="m123.79 98.11-.84.06.8 11.96-4.73.31-.8-11.96-.84.06-.18-2.73 6.41-.42.18 2.72zm-1.74-6.33-3.8.25.25 3.69 3.8-.25-.25-3.69z"/>
<path d="m119.38 99.49-.62.04.63 9.4.62-.04-.63-9.4zm1.44-2.26-.62.04.63 9.4.62-.04-.63-9.4zm1.74 2.05-.62.04.63 9.4.62-.04-.63-9.4z"/>
</g>
<g id="Accent_Weapon_Belt-Holster-Left" fill="#F0F0F0">
<path d="m119.09 96.06.03.38 2.68-.18-.03-.38-2.68.18z"/>
<path d="m119.11 96.44.03.38 2.68-.18-.03-.38-2.68.18zm-.05-.76.02.38 2.68-.18-.03-.38-2.67.18zm-.31-4.63.03.38 2.68-.18-.03-.38-2.68.18z"/>
<path d="m118.88 91.99-.62.04.25 3.69.62-.04-.25-3.69zm3.17-.21-.62.04.25 3.69.62-.04-.25-3.69zm-.12 7.54-.94.06.63 9.4.94-.06-.63-9.4zm-1.6.1-.94.06.63 9.4.94-.06-.63-9.4z"/>
</g>
</g>
<path id="Holster_Belt-Holster-Left" d="m118.4 112.89-2.47-14.99 8.29 10.56.79 20.68c-1.44 1.89-3.04 2.08-4.84.36l-1.77-16.61z" fill="#552716"/>
</g>
</g>
<g id="Right-Holster" class="toggle" style=""><g id="Hanging-Holster_Right" class="option">
<g id="Weapon_Hanging-Holster-Right">
<g id="Main_Weapon_Hanging-Holster-Right" fill="#CDCBBD">
<path d="m52.77 122.65-.17-3.6-.62.03-.11-2.26.62-.03-.05-1.18c-.02-.38-.54-.67-1.18-.64l-5.38.25c-.63.03-1.13.36-1.11.75l.06 1.18.62-.03.11 2.26-.62.03.17 3.6 1.47-.07.46 9.96 4.74-.22-.46-9.96 1.45-.07z"/>
<path d="m45.7 122.45.84-.04.56 11.97 4.74-.22-.56-11.98.84-.04-.12-2.72-6.42.29.12 2.74z"/>
<path d="m46.72 115.96 3.8-.17.17 3.7-3.8.17-.17-3.7zm3.52 7.36.62-.03.44 9.41-.62.03-.44-9.41zm-1.69-2.07.62-.03.44 9.41-.62.03-.44-9.41zm-1.49 2.22.62-.03.44 9.41-.62.03-.44-9.41z"/>
</g>
<g id="Accent_Weapon_Hanging-Holster-Right" fill="#6B291B">
<path d="m50.15 119.89.02.38-2.68.12-.02-.38 2.68-.12z"/>
<path d="m50.16 120.26.02.38-2.68.12-.02-.38 2.68-.12zm-.03-.75.02.38-2.68.12-.02-.38 2.68-.12zm-.22-4.64.02.38-2.68.12-.02-.37 2.68-.13z"/>
<path d="m49.89 115.82.62-.03.17 3.7-.62.03-.17-3.7zm-3.17.14.62-.03.17 3.7-.62.03-.17-3.7zm.97 7.48.95-.04.44 9.42-.95.04-.44-9.42zm1.6-.08.95-.04.44 9.41-.95.04-.44-9.41z"/>
</g>
</g>
<path id="Holster_Hanging-Holster-Right" d="m52.74 136.53.76-15.17-7.05 11.42 1.56 20.64c1.64 1.71 3.26 1.73 4.85-.18l-.12-16.71z" fill="#552716"/>
<g id="Straps_Hanging-Holster-Right" fill="#A87757">
<path d="M79.7 96.9c-7.71 11-15.47 20.31-26.2 24.47l-.13 2.6c13.34-5.59 20.49-15.06 28.38-27.07H79.7zm-26.92 42.72a42.51 42.51 0 0 0 24.34 8.98l-.67 2.06c-8.08-.73-15.62-3.7-23.68-8.87v-2.17z"/>
<path d="m52.78 141.79-.02-2.17a8.04 8.04 0 0 1-5.77.28l.17 2.21c1.84.48 3.94.51 5.62-.32z"/>
</g>
<g id="Buckle_Hanging-Holster-Right" fill="#CACACA">
<path d="m69.64 148.49 1.01.15-.05.33-1.01-.15.05-.33M72.39 108l.7-.92.27.2-.7.92-.27-.2"/>
<path d="m72.66 108.21 1.15.92 2.7-3.31-2.6-2.1-2.7 3.31 1.19.97.58-.76-.58-.47 1.49-1.83 1.43 1.15-1.49 1.83-.59-.47-.58.76m-2.99 40.28.8.12.12-.78 1.94.41-.27 1.81-1.94-.41.1-.7-.8-.12-.21 1.39 3.52.75.49-3.28-3.52-.75-.23 1.56"/>
</g>
</g></g>
<g id="Left-Trophy" class="toggle" style=""><g id="The-Braid_Left" class="option">
<g id="Braid_The-Braid_Left" fill="#0A0A0A">
<path d="M120.4 124.7a.8.8 0 0 0-.15.76c.21.61.8.98 1.43 1.19a1 1 0 0 0 .27-.98 1.49 1.49 0 0 1-.76-.63 2.49 2.49 0 0 1-.79-.34z"/>
<path d="M122.37 127.27c.35-.46.49-1.01.37-1.63a.9.9 0 0 0-.41-.6c-.08.19-.18.42-.37.64.03.09.04.18.04.28 0 .13-.03.25-.08.36a.9.9 0 0 1-.23.33c.15.29.4.47.68.62-.01 0-.01 0 0 0"/>
<path d="M119.85 123.13a.8.8 0 0 0-.15.76c.22.61.82.98 1.5 1.19.31-.3.39-.67.29-.98-.33-.14-.61-.29-.81-.63a2.6 2.6 0 0 1-.83-.34z"/>
<path d="M121.95 125.69c.38-.47.56-1.02.42-1.64a.86.86 0 0 0-.47-.59c-.09.19-.2.42-.41.64a.86.86 0 0 1-.05.64c-.05.12-.13.23-.24.34.18.28.44.46.75.61 0-.01 0 0 0 0"/>
<path d="M119.29 121.56a.75.75 0 0 0-.14.76c.22.61.83.98 1.54 1.18.32-.3.41-.67.31-.98a1.53 1.53 0 0 1-.86-.62c-.3-.06-.58-.2-.85-.34z"/>
<path d="M121.5 124.1c.42-.47.62-1.03.47-1.64a.9.9 0 0 0-.52-.59c-.1.19-.23.42-.45.65a.86.86 0 0 1-.05.64c-.06.12-.14.23-.26.34.19.28.47.46.81.6-.01 0-.01 0 0 0"/>
<path d="M118.72 120a.77.77 0 0 0-.14.76c.22.61.83.98 1.57 1.18.34-.3.43-.67.32-.98-.38-.13-.67-.28-.89-.62a2.67 2.67 0 0 1-.86-.34z"/>
<path d="M121 122.54c.45-.47.68-1.04.51-1.65a.9.9 0 0 0-.56-.58c-.11.19-.25.43-.48.65.03.09.05.18.04.28 0 .13-.03.25-.1.36-.06.12-.15.23-.27.34.21.28.5.46.86.6"/>
<path d="M118.15 118.43a.8.8 0 0 0-.14.76c.22.61.81.98 1.57 1.18.34-.3.45-.67.33-.98-.39-.13-.69-.28-.91-.62-.3-.05-.59-.19-.85-.34z"/>
<path d="M120.48 120.96c.48-.48.74-1.04.56-1.65-.08-.27-.32-.47-.6-.58-.11.2-.26.43-.51.65.03.09.05.18.05.28 0 .12-.04.25-.1.36-.06.12-.15.23-.27.34.18.29.49.47.87.6-.01 0-.01 0 0 0"/>
<path d="M117.6 116.86a.82.82 0 0 0-.13.76c.21.61.78.98 1.55 1.18.35-.3.46-.67.34-.98-.4-.13-.7-.28-.92-.61a3.16 3.16 0 0 1-.84-.35z"/>
<path d="M119.92 119.39c.5-.48.79-1.05.6-1.66a.97.97 0 0 0-.63-.57c-.12.2-.28.43-.53.66a.75.75 0 0 1-.05.64c-.06.12-.16.23-.28.34.19.27.5.45.89.59zm-2.85-4.11a.82.82 0 0 0-.12.76c.21.61.74.99 1.5 1.18.35-.3.46-.67.34-.98-.4-.13-.7-.28-.91-.62a2.11 2.11 0 0 1-.81-.34z"/>
<path d="M119.36 117.82c.51-.48.82-1.05.63-1.66-.09-.27-.34-.47-.65-.57-.12.2-.28.43-.54.66.03.09.05.18.04.28 0 .13-.04.25-.11.37-.06.12-.16.23-.28.34.2.26.51.44.91.58-.01-.01 0-.01 0 0zm-2.79-4.1a.86.86 0 0 0-.12.75c.19.61.69.99 1.44 1.19.35-.3.46-.68.35-.98-.4-.13-.69-.28-.89-.62-.3-.05-.56-.19-.78-.34z"/>
<path d="M118.8 116.26c.52-.48.85-1.05.65-1.67-.09-.26-.35-.47-.66-.57-.13.2-.29.43-.55.66.03.09.05.18.04.28 0 .13-.04.25-.11.36-.06.12-.16.23-.28.34.2.28.5.46.9.59l.01.01zm-2.69-4.13a.93.93 0 0 0-.11.75c.17.61.63 1 1.36 1.2.34-.3.46-.67.35-.98-.39-.13-.67-.28-.86-.62-.3-.05-.53-.19-.74-.35z"/>
<path d="M118.24 114.69c.53-.48.87-1.06.67-1.67-.09-.26-.35-.47-.66-.57-.13.2-.3.43-.55.66.03.09.05.18.04.28 0 .13-.04.25-.11.37-.06.12-.16.23-.28.34.19.27.48.46.89.59-.01-.01 0 0 0 0zm-2.55-4.15c-.13.21-.17.49-.11.75.16.61.57 1.01 1.26 1.21.33-.3.45-.67.35-.98-.38-.13-.64-.29-.82-.63a1.48 1.48 0 0 1-.68-.35z"/>
<path d="M117.7 113.11c.52-.48.88-1.06.68-1.67-.09-.27-.34-.47-.64-.57-.13.2-.3.43-.55.66.03.09.04.18.03.28a.83.83 0 0 1-.11.37c-.06.12-.15.23-.27.34.18.27.46.46.86.59-.01 0 0 0 0 0zm-2.39-4.16c-.12.21-.16.49-.1.75.14.62.51 1.01 1.16 1.22.31-.3.44-.67.34-.98-.36-.13-.61-.29-.77-.63-.25-.06-.45-.2-.63-.36z"/>
<path d="M117.19 111.53c.51-.48.87-1.06.69-1.67-.08-.27-.33-.47-.62-.58-.13.2-.3.43-.54.66.03.09.04.18.03.28a.99.99 0 0 1-.11.37c-.06.12-.15.23-.26.34.16.28.43.47.81.6-.01 0 0 0 0 0zm-2.2-4.16c-.11.2-.15.48-.1.75a1.5 1.5 0 0 0 1.07 1.23c.3-.3.43-.67.34-.98-.34-.13-.57-.29-.72-.64a1.2 1.2 0 0 1-.59-.36z"/>
<path d="M116.72 109.96c.5-.48.87-1.05.7-1.67-.07-.27-.31-.48-.59-.58-.13.2-.3.43-.54.66.03.09.03.18.02.28a.99.99 0 0 1-.11.37c-.06.12-.15.23-.25.34.16.28.41.47.77.6"/>
<path d="M114.7 105.77c-.11.21-.15.48-.1.75.11.62.41 1.02.98 1.24.29-.3.42-.67.35-.98-.33-.14-.54-.3-.68-.64a1.3 1.3 0 0 1-.55-.37z"/>
<path d="M116.3 108.38c.49-.48.86-1.05.72-1.67-.06-.27-.29-.48-.55-.58-.13.2-.3.43-.53.66.02.09.03.18.01.28a.85.85 0 0 1-.12.37c-.06.12-.15.23-.25.34.14.27.37.46.72.6zm-1.86-4.22c-.12.21-.15.48-.11.75.11.62.38 1.03.92 1.25.28-.3.42-.67.36-.99-.31-.14-.51-.3-.64-.65-.21-.05-.38-.2-.53-.36z"/>
<path d="M115.93 106.78c.48-.48.85-1.05.73-1.67a.84.84 0 0 0-.51-.59c-.13.2-.3.43-.53.66a1 1 0 0 1-.11.65 1.5 1.5 0 0 1-.24.34c.12.28.33.47.66.61-.01 0 0 0 0 0"/>
<path d="M114.21 102.55c-.12.21-.17.49-.12.75.11.62.38 1.03.9 1.25.28-.29.43-.67.38-.99-.3-.14-.49-.3-.61-.65-.23-.05-.4-.2-.55-.36z"/>
<path d="M115.61 105.18c.48-.48.86-1.05.76-1.68a.79.79 0 0 0-.47-.59c-.14.2-.31.43-.54.66a1.02 1.02 0 0 1-.13.65c-.06.12-.15.23-.25.34.12.29.32.48.63.62"/>
<path d="M113.97 100.96a1.1 1.1 0 0 0-.15.76c.12.62.41 1.02.93 1.25.29-.3.45-.67.41-.99-.3-.14-.49-.3-.61-.65a1.55 1.55 0 0 1-.58-.37z"/>
<path d="M115.36 103.59c.48-.48.87-1.06.8-1.68a.77.77 0 0 0-.44-.6c-.14.2-.32.44-.56.66a1.05 1.05 0 0 1-.15.65c-.07.12-.15.23-.26.34.12.3.31.49.61.63"/>
<path d="M113.71 99.35a.93.93 0 0 0-.18.76c.14.62.48 1.02 1.02 1.24.31-.3.49-.68.45-.99-.3-.14-.51-.3-.64-.65-.23-.06-.44-.2-.65-.36z"/>
<path d="M115.16 101.98c.5-.48.9-1.06.86-1.69a.72.72 0 0 0-.41-.6c-.15.2-.34.44-.6.66.01.09 0 .19-.02.28a1.5 1.5 0 0 1-.44.71c.12.31.31.5.61.64"/>
<path d="M114.81 98.48c-.18-.37-1.23-.42-1.2.42.02.54.18.65.77.86.35-.3.55-.68.52-1l-.09-.28z"/>
<path d="M115.01 100.39c.53-.48.96-1.07.95-1.7 0-.28-.13-.62-.31-.69-.34-.14-.91.1-.86.66.05.71-.29 1-.41 1.1.12.3.33.49.63.63"/>
<path d="M122.61 127.86a9.5 9.5 0 0 1 1.05 3.46c.23 1.63.17 5.05.2 6.09.08 1.04.45 3.15.47 3.15-.12.01-1.33-3.42-1.48-5.47a4.5 4.5 0 0 1-1.01 2.81c.24-.83.27-1.51.06-1.97a2.2 2.2 0 0 1-.49.94c.04 0-.35-3.58-.33-5.06.12-1.34.79-3.86.75-3.86l.42-.4.36.31z"/>
</g>
<path id="Band_The-Braid_Left" d="m122.72 126.79.18 1.18c-.37-.22-.8-.18-1.27.07-.16-.52-.33-1.05-.51-1.57.66-.1 1.19-.02 1.6.32z" fill="#A87757"/>
</g>
</g>
<g id="Right-Trophy" class="toggle" style="display:none"/>
</g>
<g id="Under-Belt"><g id="Girth-Belt" class="option" fill="#552716">
<path d="M84.93 84.93c-9.33 0-27.98-2.25-27.98-2.25l.61-1.91 27.37 2.25 27.37-2.25.6 1.91c.01 0-18.65 2.25-27.97 2.25z"/>
<path d="M84.93 86.84c-9.52 0-28.56-2.25-28.56-2.25l.58-1.91 27.98 2.25 27.98-2.25.58 1.91s-19.04 2.25-28.56 2.25z"/>
<path d="M84.93 88.75c-9.67 0-28.99-2.25-28.99-2.25l.43-1.91 28.56 2.25 28.56-2.25.43 1.91c0-.01-19.32 2.25-28.99 2.25z"/>
<path d="M84.93 90.65c-9.79 0-29.36-2.25-29.36-2.25l.37-1.91 28.99 2.25 28.99-2.25.37 1.91s-19.57 2.25-29.36 2.25z"/>
<path d="M84.93 92.56c-9.9 0-29.69-2.25-29.69-2.25l.33-1.91 29.36 2.25 29.36-2.25.33 1.91s-19.79 2.25-29.69 2.25z"/>
<path d="M84.93 94.47c-10 0-30-2.25-30-2.25l.31-1.91 29.69 2.25 29.69-2.25.31 1.91c0-.01-20 2.25-30 2.25z"/>
<path d="M84.93 96.37c-10.1 0-30.31-2.25-30.31-2.25l.31-1.91 30 2.25 30-2.25.31 1.91s-20.21 2.25-30.31 2.25z"/>
<path d="M84.93 98.28c-10.21 0-30.62-2.25-30.62-2.25l.32-1.91 30.31 2.25 30.31-2.25.32 1.91c-.02 0-20.43 2.25-30.64 2.25z"/>
<path d="M84.93 100.19c-10.32 0-30.97-2.25-30.97-2.25l.34-1.91 30.62 2.25 30.62-2.25.35 1.91c.01-.01-20.64 2.25-30.96 2.25z"/>
<path d="M84.93 102.09c-10.45 0-31.36-2.25-31.36-2.25l.39-1.91 30.97 2.25 30.97-2.25.39 1.91s-20.91 2.25-31.36 2.25z"/>
</g>
</g>
<g id="Belt">
<g id="Pouch-Belt-Full" class="option">
<path id="Main_Pouch-Belt-Full" d="M115.21 92.96c-6.82.61-22.4 2.82-30.27 2.82-7.94 0-23.52-2.23-30.26-2.82l1.01-7.93c5.53.49 21.56 2.74 29.26 2.74 7.47 0 23.17-2.23 29.07-2.76l1.19 7.95z" fill="#A87757"/>
<g id="Pouches_Pouch-Belt-Full" fill="#A87757">
<path d="M70.81 84.99c-.29-.02-.58.03-.84.13l-2.1.82 8.08.46 2.19-.93-7.33-.48z"/>
<path d="M78.41 85.74a.23.23 0 0 0-.1-.22.26.26 0 0 0-.24-.03l-2.14.91-1.05 12.41a7.2 7.2 0 0 1 2.15-.84c.41-.08.7-.43.71-.85.14-3.8.29-7.6.67-11.38z"/>
<path d="m75.94 86.4-8.08-.46c-.05 1.89-.23 3.77-.33 5.65-.11 2.08-.15 4.18-.34 6.28-.01.15.04.3.14.41.1.11.25.17.4.17 2.32-.01 4.63.13 6.93.4a.53.53 0 0 0 .59-.49l.37-5.34.32-6.62z"/>
<path d="m75.94 86.4-8.08-.46-.38 3.14a2.73 2.73 0 0 0 2.58 3.07l2.97.17a2.77 2.77 0 0 0 2.93-2.76 22692 22692 0 0 1-.02-3.16z"/>
<path d="M71.64 90.76c.29.02.51.26.49.55a.52.52 0 0 1-.55.49c-.29-.02-.51-.26-.49-.55s.27-.5.55-.49zm-11.99-7.28c-.31-.02-.62.03-.91.16l-1.86.81 7.38.42 2-.95-6.61-.44z"/>
<path d="M66.52 84.2a.23.23 0 0 0-.1-.22.23.23 0 0 0-.24-.02l-1.91.9-1.02 12.42a6.9 6.9 0 0 1 1.93-.85.9.9 0 0 0 .69-.84c.12-3.8.28-7.6.65-11.39z"/>
<path d="m64.26 84.86-7.38-.42c-.06 1.89-.23 3.77-.33 5.65-.11 2.08-.16 4.17-.34 6.28-.01.15.04.3.14.41.1.11.25.17.4.17 2.08-.01 4.15.11 6.22.36a.5.5 0 0 0 .4-.12.54.54 0 0 0 .19-.37l.37-5.34.33-6.62z"/>
<path d="m64.26 84.86-7.38-.42-.36 3.15a2.75 2.75 0 0 0 2.59 3.05l2.23.13a2.8 2.8 0 0 0 2.06-.75 2.7 2.7 0 0 0 .86-2v-3.16z"/>
<path d="M60.31 89.24c.26.01.46.26.44.54-.02.29-.24.51-.5.49-.26-.01-.46-.26-.44-.54.02-.29.24-.51.5-.49zm-8.09-4.94.55-.85 2.83.09.35 1.06-3.73-.3z"/>
<path d="M55.93 84.7c.01-.07-.01-.13-.06-.18s-.11-.08-.17-.08l-3.48-.13-.5 11.17c.11.28 1.53.46 2.68.49a.9.9 0 0 0 .92-.88c.08-3.48.21-6.94.61-10.39zm43.15.29c.29-.02.58.03.85.13l2.1.82-8.08.46-2.19-.93 7.32-.48z"/>
<path d="M91.48 85.74a.23.23 0 0 1 .1-.22.26.26 0 0 1 .24-.03l2.14.91L95 98.82a7.2 7.2 0 0 0-2.15-.84.88.88 0 0 1-.71-.85 172.7 172.7 0 0 0-.66-11.39z"/>
<path d="m93.95 86.4 8.08-.46c.05 1.89.23 3.77.33 5.65.11 2.08.15 4.18.34 6.28.01.15-.04.3-.14.41a.54.54 0 0 1-.4.17c-2.32-.01-4.63.13-6.93.4a.53.53 0 0 1-.59-.49l-.37-5.34-.32-6.62z"/>
<path d="m93.95 86.4 8.08-.46.38 3.14a2.76 2.76 0 0 1-2.58 3.07l-2.97.17c-.76.04-1.51-.23-2.06-.75s-.87-1.25-.86-2.01l.01-3.16z"/>
<path d="M98.25 90.76a.52.52 0 0 0-.49.55c.02.29.26.5.55.49a.52.52 0 0 0 .49-.55.52.52 0 0 0-.55-.49zm11.99-7.28c.31-.02.62.03.91.16l1.86.81-7.38.42-2-.95 6.61-.44z"/>
<path d="M103.37 84.2a.23.23 0 0 1 .1-.22.23.23 0 0 1 .24-.02l1.91.9 1.02 12.42a6.9 6.9 0 0 0-1.93-.85.9.9 0 0 1-.69-.84c-.12-3.8-.28-7.6-.65-11.39z"/>
<path d="m105.63 84.86 7.38-.42c.06 1.89.23 3.77.33 5.65.11 2.08.16 4.17.34 6.28.01.15-.04.3-.14.41a.54.54 0 0 1-.4.17c-2.08-.01-4.15.11-6.22.36a.5.5 0 0 1-.4-.12.54.54 0 0 1-.19-.37l-.37-5.34-.33-6.62z"/>
<path d="m105.63 84.86 7.38-.42.36 3.15a2.75 2.75 0 0 1-2.59 3.05l-2.23.13a2.8 2.8 0 0 1-2.06-.75 2.7 2.7 0 0 1-.86-2v-3.16z"/>
<path d="M109.58 89.24c-.26.01-.46.26-.44.54.02.29.24.51.5.49s.46-.26.44-.54c-.01-.29-.24-.51-.5-.49zm8.09-4.94-.55-.85-2.83.09-.35 1.06 3.73-.3z"/>
<path d="M113.96 84.7c-.01-.07.01-.13.06-.18s.11-.08.18-.08l3.48-.13.5 11.17c-.11.28-1.53.46-2.68.49a.9.9 0 0 1-.92-.88c-.09-3.48-.22-6.94-.62-10.39zm-25.4.97 1.11 1.08-9.15-.17.71-1 7.33.09zm-8.04.91 9.12.17c-.1 1.97-.06 3.93-.11 5.9-.06 2.18-.18 4.37-.15 6.57a.54.54 0 0 1-.58.55c-2.65-.2-5.31-.25-7.97-.15a.58.58 0 0 1-.39-.15.55.55 0 0 1-.16-.38l.03-5.6.21-6.91z"/>
<path d="m80.52 86.58 9.12.17.17 3.4a2.75 2.75 0 0 1-2.82 2.88l-4.07-.08a2.8 2.8 0 0 1-2.01-.91 2.78 2.78 0 0 1-.7-2.08l.31-3.38z"/>
<path d="M84.98 91.45c-.32-.01-.59.23-.6.53 0 .3.25.54.58.55.32.01.59-.23.6-.53 0-.3-.26-.54-.58-.55z"/>
</g>
</g></g>
</g>
<g id="WaistDecals" mask="url(#WaistMask)"/>
<g id="Extras_Front">
<g id="Front"><g id="None_Front" class="option"/>
</g>
</g>
<g id="Extras-FrontDecals" mask="url(#FrontMask)"/>
</g>
</svg>