<?xml version='1.0' encoding='UTF-8'?>
<svg version="1.1" id="Male-Body" xmlns="http://www.w3.org/2000/svg" xmlns:serif="http://www.serif.com/" viewBox="0 -55 170 310" style="stroke-width: 0.2px; fill-rule: evenodd; stroke-linejoin: round;" width="510" height="930">
<style>
mask {
mask-type: alpha;
}
.decal {
stroke: none;
}
</style>
<defs id="Masks" stroke="none">
<mask id="HelmetsMask"> <use href="#Helmets"/> </mask>
<mask id="CollarMask"> <use href="#Collar"/> </mask>
<mask id="ShouldersMask"> <use href="#Shoulders"/> </mask>
<mask id="ChestMask"> <use href="#Chest"/> </mask>
<mask id="BicepsMask"> <use href="#Biceps"/> </mask>
<mask id="GauntletsMask"> <use href="#Gauntlets"/> </mask>
<mask id="WaistMask"> <use href="#Waist"/> </mask>
<mask id="GroinMask"> <use href="#Groin"/> </mask>
<mask id="ThighsMask"> <use href="#Thighs"/> </mask>
<mask id="KneesMask"> <use href="#Knees"/> </mask>
<mask id="ShinsMask"> <use href="#Shins"/> </mask>
<mask id="FootMask"> <use href="#Foot"/> </mask>
</defs>
<defs id="Decals"/><metadata><rdf:rdf xmlns:rdf="http://www.w3.org/1999/02/22-rdf-syntax-ns#" xmlns:rdfs="http://www.w3.org/2000/01/rdf-schema#" xmlns:dc="http://purl.org/dc/elements/1.1/"><rdf:description><dc:creator>MandoCreator</dc:creator><dc:publisher>https://www.mandocreator.com</dc:publisher><dc:description>Your Beskar'gam - created by MandoCreator</dc:description><dc:format>image/svg+xml</dc:format><dc:type>Image</dc:type><dc:title>MandoCreator - Ner Berskar'gam</dc:title><dc:date>2022-03-14T15:14:31.175Z</dc:date></rdf:description></rdf:rdf></metadata><g id="Main-Body" fill="white" stroke="black">
<g id="Extras_Back">
<g id="Back"><g id="NO-CAPES_Back" class="option"/>
</g>
</g>
<g id="Extras-BackDecals" mask="url(#BackMask)"/>
<g id="Suit">
<g id="Neck-Seal">
<path id="Plain-Neck-Seal" class="option" d="m97.69 6.07 2.94 6.84-.21 6.78-15.43 1.59v.01h-.06v-.01l-15.34-1.59-.21-6.78 2.94-6.84L85 6.73l12.69-.66" fill="#222222"/></g>
<path id="Flight-Suit" d="m73.36 158.45-1.49 8.72-11.03 53.11s-4.93 2.96-7.47 3.46c-2.53.5-7.73-.44-7.73-.44l3.85-43 2.9-18.36.66-7.82s-2.53-22.78-1.7-34.14c.82-11.36 6.66-34.01 6.66-34.01l26.98.58 26.97-.58s5.83 22.66 6.66 34.01c.83 11.36-1.7 34.14-1.7 34.14l.66 7.82 2.9 18.36 3.85 43s-5.32 1.19-7.85.69c-2.53-.5-7.34-3.71-7.34-3.71L98.1 167.16l-1.49-8.72-11.62-30.33-11.63 30.34zm56.05-115.12 11.98 41.65 1.04 21.47-9.55 1.83-6.05-20.21-13.65-33.95.69-15.55 2.31-3.72 13.23 8.48zm-88.82-.03 13.19-8.45 2.31 3.72.52 16.04-13.44 33.46-6.05 20.21-9.55-1.83 1.03-21.47L40.59 43.3z" fill="#222222"/>
<g id="Sleeves" class="toggle" fill="#222222">
<path d="m112.2 56.12 2.68 5.9s4.24-3.2 7.06-4.8 4.38-2.62 6.92-3.6a33.81 33.81 0 0 1 5.08-1.47l-6.07-12.25-5.79-9.67-11.58 5.14 1.7 20.75z"/>
<path d="M113.61 59.24c-.2-.24 5.08-4.5 8.61-6.34 3.53-1.84 10.25-3.69 10.25-3.69"/>
<path d="m57.8 56.12-2.68 5.9s-4.24-3.2-7.06-4.8c-2.82-1.59-4.38-2.62-6.92-3.6a33.81 33.81 0 0 0-5.08-1.47l6.07-12.25 5.79-9.67 11.58 5.14-1.7 20.75z"/>
<path d="M56.39 59.24c.2-.24-5.08-4.5-8.61-6.34-3.53-1.84-10.25-3.69-10.25-3.69"/>
</g>
</g>
<g id="Boots"><g id="Basic_Boots" class="option">
<path id="Main_Basic-Boot" d="M109.1 216.81c1.46.01 3.24.93 4.53 1.15 1.38.23 2.88.21 4.34.07l.59-.06h.02l.07-.01.19-.03.3-.04.12-.02 1.01-.16.53-.1.11-.03.04-.01.08-.02.36-.09.32-.09.05-.01c1.12-.3 2.24-.66 2.24-.66.33 1.45.5 3.11 1.12 4.46.99 2.13.95 3.05 2.61 4.66 1.14 1.1 4.08 3.05 5.44 3.89.57.36 1.19.63 1.81.86l.06.02c2.5.93 5.2 1.28 6.56 4.03.3.6.55 1.32.5 2-.06.87-1.02.99-1.76 1.2-1.84.52-3.43.92-5.56 1.39a28 28 0 0 1-7.1.81c-1.84-.05-3.41-.13-5.03-1.1-.65-.39-1.32-.79-1.89-1.3-1.27-1.15-2.09-2.36-3.71-3.04-1.18-.5-2.39-.91-3.63-1.2-1.76-.42-4.34-1-5.28-2.74-.37-1.3.01-1.94.13-3.06l.06-.48c.1-.73.23-1.48.26-2.26.08-1.51-.3-3.01-.4-4.51-.06-.85-.1-1.71-.11-2.56 0-.14-.08-.75.06-.8.19-.08.4-.12.62-.14l.34-.02zm-48.17 0c-1.46.01-3.24.93-4.53 1.15-1.38.23-2.88.21-4.34.07l-.59-.06h-.02l-.07-.01-.19-.03-.3-.04-.12-.02-1.01-.16-.53-.1-.11-.03-.04-.01-.08-.02-.36-.09-.32-.09-.05-.01c-1.12-.3-2.24-.66-2.24-.66-.33 1.45-.5 3.11-1.12 4.46-.99 2.13-.95 3.05-2.6 4.66-1.14 1.1-4.08 3.05-5.44 3.89-.57.36-1.19.63-1.81.86l-.06.02c-2.5.93-5.2 1.28-6.56 4.03-.3.6-.55 1.32-.5 2 .06.87 1.02.99 1.76 1.2 1.84.52 3.43.92 5.56 1.39a28 28 0 0 0 7.1.81c1.84-.05 3.41-.13 5.03-1.1.65-.39 1.32-.79 1.89-1.3 1.27-1.15 2.09-2.36 3.72-3.04 1.18-.5 2.39-.91 3.63-1.2 1.76-.42 4.33-1 5.28-2.74.37-1.3-.01-1.94-.13-3.06l-.06-.48c-.1-.73-.23-1.48-.26-2.26-.08-1.51.3-3.01.4-4.51.06-.85.1-1.71.11-2.56 0-.14.08-.75-.06-.8-.19-.08-.4-.12-.62-.14l-.36-.02z" fill="#707070"/>
<path id="Bottom_Basic-Boot" d="M108.15 230.64a4.54 4.54 0 0 0 2.33 1.86c.89.45 1.95.64 2.96.88l.41.1.6.16.18.05.1.03.19.06.08.03.33.11.12.04.06.02.5.18.11.04.45.17.12.05.27.11.12.05c.27.11.51.24.74.38l.03.02.05.03.21.14.05.03.04.03.2.15.06.04.09.07c.28.23.54.47.8.73l.07.07.42.43.45.45.48.46.06.05.15.13.03.02.25.2.17.13.03.02.22.15.09.06.33.21.23.14.09.06.25.15.11.07.08.04.08.04.34.17.16.07.05.02c.34.15.68.26 1.02.35l.06.01.08.02.07.02.21.04.16.03.13.02.04.01.11.02.18.02.26.03a13.2 13.2 0 0 0 .72.06l.36.02h.11l.7.02.46.01h.63l.83-.03.12-.01.11-.01.1-.01 1.21-.11.11-.01.3-.04.13-.02.11-.01.25-.04 1.06-.18.24-.04.1-.02.11-.02.11-.02.11-.02.08-.02.26-.05.11-.02.3-.07.26-.06h.03l1.58-.36.19-.04.42-.1.17-.04.08-.02.58-.15.35-.09 1-.26.15-.04.17-.04.06-.02.79-.22.06-.02.09-.02.28-.07.09-.03.14-.04.06-.02.11-.04.1-.03.04-.02.05-.02.03-.01.05-.02.05-.03.02-.01.05-.03.06-.04.06-.04.05-.04a1 1 0 0 0 .22-.24s.49.73.53 1.99c-1.1 1.59-4.6 2.12-9.43 2.76-4.8.64-7.76.51-9.77-.35s-5.53-4.94-8.05-5.15a18.79 18.79 0 0 1-6.72-2.26c-.64-.37-.45-3-.45-3l.06-.41zm-46.28 0a4.54 4.54 0 0 1-2.33 1.86c-.89.45-1.95.64-2.95.88l-.41.1-.6.16a1.2 1.2 0 0 1-.18.05l-.1.03-.19.06a.69.69 0 0 0-.08.03l-.33.11-.12.04-.06.02-.5.18-.11.04-.45.17-.12.05-.27.11-.12.05c-.27.11-.51.24-.74.38l-.03.02-.05.03-.21.14-.05.03-.04.03-.2.15-.06.04-.09.07c-.28.23-.54.47-.8.73l-.07.07-.42.43-.45.45-.48.46-.06.05-.15.13-.03.02-.25.2-.17.13-.03.02-.22.15-.09.06-.33.21-.23.14-.1.06-.24.15-.11.07-.08.04-.08.04-.34.17-.16.07-.05.02c-.34.15-.67.26-1.02.35l-.06.01-.08.02-.07.02-.21.04-.16.03-.13.02-.04.01-.11.02a1.1 1.1 0 0 1-.18.02l-.26.03-.07.01-.65.05-.36.02h-.1l-.7.02-.46.01h-.63l-.83-.03-.12-.01-.11-.01-.1-.01-1.21-.11-.11-.01-.3-.04-.13-.02-.11-.01-.25-.04-1.06-.18-.24-.04-.1-.02-.11-.02-.11-.02-.11-.02-.08-.02-.26-.05-.11-.02-.3-.07-.26-.06h-.03l-1.58-.36-.19-.04-.42-.1-.17-.04-.08-.02-.58-.15-.35-.09-1-.26-.15-.04-.17-.04-.06-.02-.79-.22-.06-.02-.09-.02-.28-.07-.09-.03-.15-.04-.06-.02-.11-.04-.1-.03-.04-.02-.05-.02-.03-.01-.05-.02-.05-.03-.02-.01-.05-.03-.06-.04-.06-.04-.05-.04a1 1 0 0 1-.22-.24s-.49.73-.53 1.99c1.1 1.59 4.6 2.12 9.43 2.76 4.8.64 7.76.51 9.77-.35s5.53-4.94 8.05-5.15a18.86 18.86 0 0 0 6.72-2.26c.64-.37.45-3 .45-3l-.07-.41z" fill="#707070"/>
<path id="Top_Basic-Boot" d="M122 217.29c.67 3.26 1.7 6.09 3.88 8.84 3.4 4.27 9.2 4.62 13.21 8.09 1.03.89.98 2.32 1.15 3.64-1.66.47-3.13.84-4.99 1.26-.13-1.31.1-2.78-.99-3.72-4.01-3.47-10.32-3.34-13.72-7.61-2.22-2.79-2.23-6.39-2.87-9.74l.3-.03.59-.06h.02l.07-.01.19-.03.3-.04.12-.02 1.01-.16.53-.1.11-.03.04-.01.08-.02.36-.09.32-.09.05-.01.24-.06zm-73.98 0c-.67 3.26-1.7 6.09-3.88 8.84-3.4 4.27-9.2 4.62-13.21 8.09-1.03.89-.98 2.32-1.15 3.64 1.66.47 3.13.84 4.99 1.26.13-1.31-.1-2.78.99-3.72 4.01-3.47 10.32-3.34 13.72-7.61 2.22-2.79 2.23-6.39 2.87-9.74l-.3-.03-.59-.06h-.02l-.07-.01-.19-.03-.3-.04-.12-.02-1.01-.16-.53-.1-.11-.03-.04-.01-.08-.02-.36-.09-.32-.09-.05-.01-.24-.06z" fill="#4E88D0"/>
<path id="Side_Basic-Boot" d="M109.49 216.83c1.38.15 2.96.92 4.14 1.12l.19.03c.02.41.01.82.02 1.18.05 2.04-.21 10.76-.61 10.75-.4-.02-1.58-.23-1.88-.55-.2-.21-.24-.71-.3-.98-.21-.87-.4-1.73-.53-2.61a42.83 42.83 0 0 1-.4-3.55c-.14-1.8-.42-3.6-.63-5.39zm-48.96 0c-1.38.15-2.96.92-4.14 1.12l-.19.03c-.02.41-.01.82-.02 1.18-.05 2.04.21 10.76.61 10.75.4-.02 1.58-.23 1.88-.55.2-.21.24-.71.3-.98.21-.87.4-1.73.53-2.61.18-1.19.32-2.36.4-3.55.15-1.8.42-3.6.63-5.39z" fill="#707070"/>
</g>
</g>
<g id="Gloves">
<g id="Left-Glove"><g id="Basic_Left_Glove" class="option" fill="#707070">
<path d="M138.6 124.11a5.98 5.98 0 0 0-1.58.1c-.36.08-.72.16-1.04.35-.99.57-.72 1.81.16 2.28 1.03.55 2.66.01 3.13-1.05.19-.44-.41-1.26-.67-1.68"/>
<path d="M136.79 125.19a5.68 5.68 0 0 0-1.59.1c-.36.08-.72.16-1.04.35-.99.57-.72 1.81.16 2.28 1.03.55 2.66.01 3.13-1.05.2-.44-.4-1.26-.66-1.68"/>
<path d="M135.49 126.65a7.5 7.5 0 0 0-1.7.31c-.35.12-.69.26-.99.48-.9.7-.47 1.89.47 2.24 1.1.41 2.64-.35 2.96-1.46.13-.46-.74-1.57-.74-1.57z"/>
<path d="M132.55 110.05s-1.56 2.15-1.97 3.69c-.29 1.09-.13 3.68-.49 5.43-.36 1.74-.69 2.71-.69 2.71s-1.38 2.79-1.14 3.43c.24.64 1.45 1.21 2.15.87.86-.42 1.93-2.39 2.61-3.77.69-1.41 1.25-3.41 1.25-3.41s.95.32 1.43.7c1.61 1.24.91 4.96.91 4.96s-.66 1.33-1.66 2.83c-1.36 2.05-3.46 3.81-2.07 5.37 1.29 1.46 4.22-2.37 4.22-2.37l2.87-3.73s3.3-5.41 3.47-6.46c.13-.8.02-3.47.02-3.47l-1.03-10.37-5.24.44-4.31 1.39-.33 1.76"/>
</g>
</g>
<g id="Right-Glove"><g id="Basic_Right_Glove" class="option" fill="#707070">
<path d="M31.4 124.11a5.98 5.98 0 0 1 1.58.1c.36.08.72.16 1.04.35.99.57.72 1.81-.16 2.28-1.03.55-2.66.01-3.13-1.05-.2-.44.41-1.26.67-1.68"/>
<path d="M33.21 125.19a5.59 5.59 0 0 1 2.62.45c.99.57.72 1.81-.16 2.28-1.03.55-2.66.01-3.13-1.05-.19-.44.41-1.26.67-1.68"/>
<path d="M34.51 126.65a7.5 7.5 0 0 1 1.7.31c.35.12.69.26.99.48.9.7.47 1.89-.47 2.24-1.1.41-2.64-.35-2.96-1.46-.13-.46.74-1.57.74-1.57z"/>
<path d="M37.45 110.05s1.56 2.15 1.97 3.69c.29 1.09.13 3.68.49 5.43.36 1.74.69 2.71.69 2.71s1.38 2.79 1.14 3.43c-.24.64-1.45 1.21-2.15.87-.86-.42-1.93-2.39-2.61-3.77-.69-1.41-1.25-3.41-1.25-3.41s-.95.32-1.43.7c-1.61 1.24-.91 4.96-.91 4.96s.66 1.33 1.66 2.83c1.36 2.05 3.46 3.81 2.08 5.37-1.29 1.46-4.22-2.37-4.22-2.37l-2.87-3.73s-3.3-5.41-3.47-6.46c-.13-.8-.02-3.47-.02-3.47l1.03-10.37 5.24.44 4.31 1.39.32 1.76"/>
</g>
</g>
</g>
<g id="Biceps">
<g id="Left-Biceps"><g id="Full-Band_Biceps_Left" class="option">
<path id="Main_Full-Band_Biceps_Left" d="m114.12 60.46-.85-2.32.45-13.76 13.63-4.61a2 2 0 0 1 2.51 1.18l4.81 12.59-20.55 6.92" fill="#707070"/>
<g id="Trim_Full-Band_Biceps_Left" fill="#4E88D0">
<path d="M130.31 49.15c1.11 0 2.02.87 2.02 1.93 0 1.07-.9 1.93-2.02 1.93a1.98 1.98 0 0 1-2.02-1.93c0-1.06.91-1.93 2.02-1.93"/>
<path d="m134.67 53.53.47 1.29c.13.36.11.76-.05 1.1-.17.35-.47.61-.83.73l-17.85 5.98a1.43 1.43 0 0 1-1.8-.86l-.49-1.32 20.55-6.92"/>
</g>
</g></g>
<g id="Right-Biceps"><g id="Full-Band_Biceps_Right" class="option">
<path id="Main_Full-Band_Biceps_Right" d="m55.91 60.46.85-2.32-.45-13.76-13.63-4.61a2 2 0 0 0-2.51 1.18l-4.82 12.59 20.56 6.92" fill="#707070"/>
<g id="Trim_Full-Band_Biceps_Right" fill="#4E88D0">
<path d="M39.71 49.15c-1.11 0-2.02.87-2.02 1.93 0 1.07.9 1.93 2.02 1.93 1.11 0 2.02-.86 2.02-1.93 0-1.06-.91-1.93-2.02-1.93"/>
<path d="m35.36 53.53-.47 1.29a1.42 1.42 0 0 0 .89 1.83l17.85 5.98c.74.25 1.54-.14 1.8-.86l.49-1.32-20.56-6.92"/>
</g>
</g></g>
</g>
<g id="BicepsDecals" mask="url(#BicepsMask)"/>
<path id="Vest" d="M85 20.92c8.5-.01 15.43-4.3 15.63-8.01l.15.02 18.38 5.42 13.31 23.94-2.86 1.16-13.42-8.6-2.31 3.72-1.54 47.4s-8.72 4.71-13.53 5.35c-3.44.45-8.63.68-13.79.67-5.16.01-10.35-.22-13.79-.67-4.81-.63-13.53-5.35-13.53-5.35l-1.54-47.4-2.31-3.72-13.42 8.6-2.86-1.16 13.31-23.94 18.38-5.42.15-.02c.16 3.71 7.09 8.01 15.59 8.01" fill="#222222"/>
<g id="SuitDecals" mask="url(#SuitMask)"/>
<g class="swappable" id="Chest"><g id="Chest_Galaxy">
<g id="Abdomen_Galaxy">
<path id="Abdomen-Plate_Galaxy" d="m78.03 73.41-2.08 1.5-10.56-1.5-.77-5.8 5-.1 3.03-4.92 1.37-4.53 10.95-9.96.03.01.02-.02 10.95 9.96 1.37 4.53 3.03 4.92 5 .1-.77 5.8-10.56 1.5-2.08-1.5H78.03z" fill="#707070"/>
<path id="Trauma-Plate_Abdomen_Galaxy" class="toggle" style="display:none" d="m84.98 50.38-9.46 8.61-1.3 4.29-3.63 5.89-4.03.08.35 2.66 8.6 1.22 1.97-1.42h15.04l1.97 1.42 8.6-1.22.35-2.66-4.03-.08-3.63-5.89-1.3-4.29-9.46-8.61-.02.02-.02-.02z"/>
</g>
<g id="Full-Chest_Galaxy">
<path id="Chest-Plate_Galaxy" d="m80.61 33.64-.02 10.15 3.21 3.22L72.55 57.6l-1.46 4.89-2.38 3.9h-4.12l-2-2.9-2.55-14.21-3.73-5.81 4.73-15.2 5.46-.69.77-3.36 5.84-.71 1.85 3h20.1l1.85-3 5.84.71.77 3.36 5.46.69 4.73 15.2-3.73 5.81-2.55 14.21-2 2.9h-4.12l-2.38-3.9-1.46-4.89L86.22 47l3.21-3.22-.02-10.15L85 30.24l-4.39 3.4z" fill="#707070"/>
<path id="Trauma-Plating_Left-Chest_Galaxy" class="toggle" style="display:none" d="M96 28.19H85.12l5.97 4.62.02 11.67-2.48 2.49 10.31 9.72 1.53 5.11 1.77 2.9h2.27l1.29-1.87 2.54-14.19 3.49-5.43-4.17-13.42-5.55-.7-.77-3.36-3.57-.43L96 28.19z"/>
<path id="Trauma-Plating_Right-Chest_Galaxy" class="toggle" style="display:none" d="m72.23 25.31-3.57.43-.77 3.36-5.55.7-4.17 13.42 3.49 5.43 2.54 14.19 1.29 1.87h2.27l1.77-2.9 1.53-5.11 10.31-9.72-2.48-2.49.02-11.67 5.97-4.62H74l-1.77-2.89z"/>
<path id="Accents_Chest-Plate_Galaxy" class="toggle" d="M96.12 31.44h9.25v1.22h-9.25zm0 2.16h9.25v1.22h-9.25z" fill="#B86C00"/>
</g>
<g id="Iron-Heart_Galaxy">
<path id="Heart_Galaxy" d="M82.3 43.49v-9.13l2.7-2.1 2.7 2.1v9.13L85 46.2l-2.7-2.71z" fill="#4E88D0"/>
<g id="None_Heart_Galaxy" class="option"/></g>
<g id="Neck-Armor_Galaxy">
<path id="Neck-Plate_Galaxy" d="m82.75 25.51-7.39.12-1.82-2.97-7.05.84-.7 3.07-4.52.56-3.33-11.42 11.55-3.44s1.53 2.58 2.64 3.49c1.14.93 2.66 2.02 4.08 2.64a22.56 22.56 0 0 0 5.86 1.5l.68 5.61zm4.5 0 7.39.12 1.82-2.97 7.05.84.7 3.07 4.52.56 3.33-11.42-11.55-3.44s-1.53 2.58-2.64 3.49a19.16 19.16 0 0 1-4.08 2.64 22.56 22.56 0 0 1-5.27 1.42l-.59.08-.68 5.61z" fill="#707070"/>
<path id="Trauma-Plates_Neck_Galaxy" class="toggle" style="display:none" d="M101.25 14.25a14.9 14.9 0 0 1-2.3 2.81 20.96 20.96 0 0 1-4.48 2.89 23.34 23.34 0 0 1-5.01 1.43l-.3 2.48 4.53.07 1.88-3.07 9.32 1.1.7 3.08 1.9.23 2.46-8.43-8.7-2.59zm-32.5 0-8.72 2.6 2.46 8.43 1.9-.23.7-3.08 9.32-1.1 1.88 3.07 4.53-.07-.3-2.48a23.5 23.5 0 0 1-5.01-1.43 20.72 20.72 0 0 1-4.48-2.89 16.49 16.49 0 0 1-2.28-2.82z"/>
</g>
</g></g>
<g id="ChestDecals" mask="url(#ChestMask)"/>
<g id="Chest-Attachments"><g id="No-Device_Accessories_Chest" class="option"/>
</g>
<g id="Collar"><g id="None_Collar" class="option"/>
</g>
<g id="CollarDecals" mask="url(#CollarMask)"/>
<g id="Helmets" class="swappable" transform="translate(45,-62)"><g id="Helmet_RC">
<g id="Left-Earcap_RC" class="toggle"><g id="Ear-Cap_Left_RC" fill="#707070">
<path d="m56.6 39 .72.79v9.87l-.72.79V39z"/>
<path d="M57.31 40.21a.56.56 0 0 1 .56.57v7.05a.6.6 0 0 1-.16.4.55.55 0 0 1-.4.16v-8.18z"/>
<path d="M57.87 41.48c.09 0 .17.03.23.1s.1.14.1.23v4.99c0 .09-.03.17-.1.23a.33.33 0 0 1-.23.1v-5.65z"/>
</g>
</g>
<g id="Right-Earcap_RC" class="toggle"><g id="Range-Finder_Right_RC" class="option" style="">
<path id="Shaft_Right_Range-Finder_RC" d="m22.49 18.37 1.08.02-.38 26.9-1.1.05.4-26.97z" fill="#707070"/>
<path id="Finder_Right_Range-Finder_RC" d="m30.71 15.82-5.95.27.2-.75 6.92-.97-1.17 1.45" fill="#707070"/>
<g id="Cover_Right_Range-Finder_RC" fill="#707070">
<path d="m21.59 17.28 2.84.06.54-1.99 7.44-1.04.11-.77-10.69.1-.98 1.36.74 2.28"/>
<path d="m22.35 17.29 1.41.03-.02 1.07-1.41-.02.02-1.08"/>
</g>
</g>
<g id="Ear-Cap_Right_RC" fill="#707070">
<path d="m23.4 39-.72.79v9.87l.72.79V39z"/>
<path d="M22.69 40.21a.56.56 0 0 0-.4.17.56.56 0 0 0-.17.4v7.05c0 .15.06.29.17.4.1.11.25.16.4.16v-8.18z"/>
<path d="M22.13 41.48a.29.29 0 0 0-.23.1.32.32 0 0 0-.09.23v4.99a.33.33 0 0 0 .32.33v-5.65z"/>
</g>
</g>
<g id="Helmet_Pieces_RC">
<g id="Sides_RC" fill="#4E88D0">
<path d="m22.48 59.1-.54-4.81 1.41-16.06h.5l.05 4.66.39.01-.45 10.76 2.64 3.46-4 1.98zM23.29 38.91h-.53l-.38 10.32.91-10.32zM57.54 59.1l.54-4.81-1.41-16.06h-.5l-.05 4.66-.39.01.45 10.76-2.64 3.46 4 1.98z"/>
<path d="M56.72 38.91h.53l.38 10.32-.91-10.32z"/>
</g>
<g id="Mouth-4_RC" fill="#707070">
<path d="m37.55 65.14-1.43 8.07a13.6 13.6 0 0 1-8.45-3.36l3.53-.72 6.35-3.99z"/>
<path d="M36.11 76.29c-3.55-.14-6.49-1.02-8.45-3.08v-3.36a13.6 13.6 0 0 0 8.45 3.36v3.08zM42.47 65.14l1.43 8.07a13.6 13.6 0 0 0 8.45-3.36l-3.53-.72-6.35-3.99z"/>
<path d="M43.91 76.29c3.55-.14 6.49-1.02 8.45-3.08v-3.36a13.6 13.6 0 0 1-8.45 3.36v3.08z"/>
</g>
<g id="Mouth-3_RC" fill="#707070">
<path d="M39.21 71.08c-1.66 0-3.05 1.13-3.09 2.36v.11-.35l1.52-8.7h4.75l1.52 8.7v.36-.11c-.04-1.23-1.43-2.36-3.09-2.36h-1.61z"/>
<path d="M39.98 72.59c-1.21 0-2.22.4-2.19 1.69.02.82.02 1.99.01 2.91h-1.69s.05-2.12 0-3.63c-.04-1.27 1.38-2.47 3.09-2.47h1.61c1.71 0 3.13 1.2 3.09 2.47-.05 1.51 0 3.63 0 3.63h-1.69a93.2 93.2 0 0 1 .01-2.91c.03-1.29-.98-1.69-2.19-1.69h-.05z"/>
<path d="m37.8 76.29-.01-2c-.03-1.29.98-1.69 2.19-1.69h.06c1.21 0 2.22.4 2.19 1.69-.01.57-.02 1.3-.01 2H37.8z"/>
</g>
<g id="Mouth-2_RC" fill="#B86C00">
<path d="M38.54 73.27h2.95v3.5h-2.95z"/>
<path d="M38.54 73.61h2.95v3.16h-2.95z"/>
<path d="M38.69 73.77h2.64v2.84h-2.64zM38.93 73.77v2.84M38.69 73.77v2.84M41.33 73.77v2.84M39.17 73.77v2.84M39.41 73.77v2.84M39.65 73.77v2.84M39.89 73.77v2.84M40.13 73.77v2.84M41.09 73.77v2.84M40.85 73.77v2.84M40.61 73.77v2.84M40.37 73.77v2.84"/>
</g>
<g id="Mouth-1_RC" fill="#B86C00">
<path d="M29.1 72.07c.5-.39 1.32-.18 1.83.47.51.65.51 1.5.01 1.89-.5.39-1.32.18-1.83-.47-.51-.65-.52-1.5-.01-1.89z"/>
<path d="M29.42 72.27c.43-.34 1.13-.17 1.55.37.42.54.41 1.26-.02 1.6-.43.34-1.13.17-1.55-.37-.42-.55-.41-1.26.02-1.6zM50.92 72.07c-.5-.39-1.32-.18-1.83.47-.51.65-.51 1.5-.01 1.89s1.32.18 1.83-.47c.51-.65.52-1.5.01-1.89z"/>
<path d="M50.6 72.27c-.43-.34-1.13-.17-1.55.37s-.41 1.26.02 1.6c.44.34 1.13.17 1.55-.37.42-.55.41-1.26-.02-1.6z"/>
</g>
<g id="Face-3_RC" fill="#707070">
<path d="M27.66 69.85v3.36l-.41-.26v-3.62l.41.52zM26.49 57.11l-4 1.98a32.82 32.82 0 0 0 2.41 6.57l4.01-1.63-2.42-6.92zM31.67 66.54l-4.45 2.74a12.3 12.3 0 0 1-2.32-3.62l4.01-1.63 2.92.27v.01c.05 1.27-.14 2.12-.16 2.23z"/>
<path d="M23.53 62.49c.4 1.07.86 2.13 1.36 3.17a12.51 12.51 0 0 0 2.32 3.62l.04 3.67s-1.02-1.79-1.56-3.03c-.54-1.25-2.16-7.43-2.16-7.43zM52.36 69.85v3.36l.41-.26v-3.62l-.41.52zM53.53 57.11l4 1.98a32.82 32.82 0 0 1-2.41 6.57l-4.01-1.63 2.42-6.92z"/>
<path d="m48.35 66.54 4.45 2.74a12.51 12.51 0 0 0 2.32-3.62l-4.01-1.63-2.91.27v.01c-.06 1.27.13 2.12.15 2.23z"/>
<path d="M56.49 62.49c-.4 1.07-.86 2.13-1.36 3.17a12.51 12.51 0 0 1-2.32 3.62l-.04 3.67s1.01-1.79 1.56-3.03c.55-1.25 2.16-7.43 2.16-7.43z"/>
</g>
<g id="Face-2_RC" fill="#707070">
<path d="M26.49 57.11c.14-.01 2.33-.16 3.84 2.35a10.48 10.48 0 0 1 1.48 4.7l.01.13-2.92-.27-2.41-6.91zM53.53 57.11c-.14-.01-2.33-.16-3.84 2.35a10.48 10.48 0 0 0-1.48 4.7l-.01.14 2.92-.27 2.41-6.92z"/>
</g>
<g id="Face-1_RC" fill="#707070">
<path d="M26.33 59.18c.16-.08.26-.21.22-.29-.04-.08-.2-.08-.36 0l-2.46 1.22c-.16.08-.26.21-.23.29.04.08.2.08.36-.01l2.47-1.21zM26.09 58.68c.16-.08.26-.21.23-.29-.04-.08-.2-.08-.36 0l-2.46 1.22c-.16.08-.26.21-.22.29.04.08.2.08.36-.01l2.45-1.21zM25.84 58.19c.16-.08.26-.21.22-.29-.04-.08-.2-.08-.36 0l-2.46 1.22c-.16.08-.26.21-.22.29.04.08.2.08.36 0l2.46-1.22zM23.5 55.7c.99-.51 2.19 1.81 2.19 1.81l-2.32 1.15s-.8-2.48.13-2.96zM53.69 59.18c-.16-.08-.26-.21-.22-.29.04-.08.2-.08.36 0l2.46 1.22c.16.08.26.21.23.29-.04.08-.2.08-.37-.01l-2.46-1.21zM53.93 58.68c-.16-.08-.26-.21-.22-.29.04-.08.2-.08.37 0l2.46 1.22c.16.08.26.21.22.29-.04.08-.2.08-.37-.01l-2.46-1.21zM54.18 58.19c-.16-.08-.26-.21-.22-.29.04-.08.2-.08.36 0l2.46 1.22c.16.08.26.21.22.29-.04.08-.2.08-.36 0l-2.46-1.22zM56.52 55.7c-.99-.51-2.19 1.81-2.19 1.81l2.32 1.15s.8-2.48-.13-2.96z"/>
</g>
<g id="Cheeks_RC" fill="#707070">
<path d="M31.67 66.54c.05-.21.8-3.54-1.33-7.07-1.56-2.59-3.85-2.35-3.85-2.35l-2.64-3.46h.01c.2.02 3.5.47 6.26 4.01 2.86 3.65 1.54 8.88 1.55 8.87zM48.35 66.54c-.05-.21-.8-3.54 1.33-7.07 1.56-2.59 3.85-2.35 3.85-2.35l2.64-3.46h-.01c-.2.02-3.5.47-6.26 4.01-2.86 3.65-1.54 8.88-1.55 8.87z"/>
</g>
<path fill="#0091F4" id="Visor-2_RC" d="m37.63 64.5-.09.64-6.36 3.99-3.53.72-.45-.57 4.45-2.73 6.54-4.62 1.8.01 1.81-.01 6.54 4.62 4.45 2.73-.45.57-3.53-.72-6.36-3.99-.09-.64h-4.73z"/>
<path fill="#0091F4" id="Visor-1_RC" d="m38.21 61.93-1.62-11.65-9.32-1.93c-.57-.19-1.12-.63-1.14-1.08l.08-1.61c.04-.45.82-.75 1.16-.75h25.28c.34 0 1.12.3 1.16.75l.08 1.61c-.01.45-.57.9-1.14 1.08l-9.32 1.93-1.62 11.65h-3.6z"/>
<g id="Eyes_RC" fill="#707070">
<path d="M27.37 44.9c-.34 0-1.12.3-1.16.75l-.08 1.61c.02.51.72 1.01 1.36 1.14l-1.23-.25a1.07 1.07 0 0 1-.84-1.1l.09-1.39a.81.81 0 0 1 .81-.76h1.05zM52.65 44.9c.34 0 1.12.3 1.16.75l.08 1.61c-.02.51-.72 1.01-1.36 1.14l1.22-.25c.51-.11.87-.58.84-1.1l-.09-1.39a.81.81 0 0 0-.81-.76h-1.04z"/>
<path d="M51.1 42.9h4.62l.45 10.76s-3.42.35-6.28 4.01c-2.86 3.65-1.54 8.88-1.54 8.88l-6.54-4.62 1.62-11.65 10.33-2.12c.51-.11.87-.58.84-1.1l-.09-1.39a.81.81 0 0 0-.81-.76H26.33a.81.81 0 0 0-.81.76l-.09 1.39c-.03.52.32.99.84 1.1l10.33 2.12 1.62 11.65-6.54 4.62s1.32-5.23-1.54-8.88c-2.86-3.65-6.27-4.01-6.27-4.01l.43-10.76h4.62l.79 1.12h20.62l.77-1.12z"/>
</g>
<g id="Brow_RC" fill="#707070">
<path d="m29.7 44.02-.79-1.13.64-1.11 10.46.03 10.46-.03.64 1.11-.79 1.13H29.7z"/>
<circle cx="40.02" cy="42.9" r=".56"/>
<circle cx="31.37" cy="42.9" r=".56"/>
<circle cx="48.65" cy="42.9" r=".56"/>
</g>
<g id="Dome-2_RC" fill="#4E88D0">
<path d="M27.9 40.27v2.62h-3.99s-.12-3.47-.03-5.45c.03-.7.35-1.66.98-2.71l3.04 5.54z"/>
<path d="M28.42 40.14v2.75h-.52v-2.62L25 34.99l.31-.5 3.11 5.65zM52.12 40.27v2.62h3.99s.12-3.47.03-5.45a6.18 6.18 0 0 0-.98-2.71l-3.04 5.54z"/>
<path d="M51.6 40.14v2.75h.52v-2.62l2.9-5.28-.31-.5-3.11 5.65z"/>
</g>
<g id="Dome-1_RC" fill="#707070">
<path d="M28.91 42.89h-.49v-2.75l-3.25-5.91c2.13-3.2 6.95-6.99 14.82-7h.03c7.87.01 12.69 3.8 14.82 7l-3.25 5.91v2.75h-.49l-.64-1.11-10.46.03-10.46-.03-.63 1.11z"/>
<path d="M30.8 39.24a.25.25 0 0 0-.2-.28.25.25 0 0 0-.28.2l-.3 2.01c-.02.13.07.26.2.28.13.02.26-.07.28-.21l.3-2zM49.22 39.24a.25.25 0 0 1 .21-.28c.13-.02.26.07.28.2l.3 2.01a.25.25 0 0 1-.21.28.25.25 0 0 1-.28-.21l-.3-2zM37.08 41.8l-.01-.12a.56.56 0 1 1 1.12 0l-.01.13-1.1-.01zM42.94 41.8l.01-.12a.56.56 0 1 0-1.12 0l.01.13 1.1-.01z"/>
</g>
</g>
</g></g>
<g id="HelmetsDecals" mask="url(#HelmetsMask)"/>
<g id="Shoulders">
<g id="Left-Shoulder"><g id="Classic_Shoulder_Left" class="option">
<path id="Main_Shoulder_Classic_Left" d="m117.21 13.84-2.52 11.33 2.02 6.52 13.49 6.79 2.27-3.46-15.26-21.18z" fill="#707070"/>
<path id="Trauma-Plates_Shoulder_Classic_Left" class="toggle" style="display:none" d="m116.44 25.1 1.67 5.41 11.49 5.78 1.94-2.96-12.93-17.99-2.17 9.76z"/>
</g>
</g>
<g id="Right-Shoulder"><g id="Classic_Shoulder_Right" class="option">
<path id="Main_Shoulder_Classic_Right" d="m52.79 13.84 2.52 11.33-2.02 6.52-13.49 6.79-2.27-3.46 15.26-21.18z" fill="#707070"/>
<path id="Trauma-Plates_Shoulder_Classic_Right" class="toggle" style="display:none" d="m53.56 25.1-1.67 5.41-11.49 5.78-1.94-2.96 12.93-17.99 2.17 9.76z"/>
</g>
</g>
</g>
<g id="ShouldersDecals" mask="url(#ShouldersMask)"/>
<g id="Gauntlets">
<g id="Left-Gauntlets"><g id="Gunslinger_Gauntlet_Left" class="option">
<path id="Accent-Top_Gunslinger_Gauntlet_Left" d="m139.9 80.56.62 5.62-2.85.79-.66-5.33 2.89-1.08zm-1.35 20.83.57 2.87-2.51.54-.6-2.86 2.54-.55z" fill="#4E88D0"/>
<path id="Top_Gunslinger_Gauntlet_Left" d="m139.9 80.56 1.3-.49 2.29 26.33-6.27 1.32-.85-4.08.24 1.15 2.51-.54-.57-2.87-2.54.54-3.85-18.47 7.74-2.89-2.89 1.08.66 5.33 2.85-.79-.62-5.62z" fill="#707070"/>
<path id="Accent-Bottom_Gunslinger_Gauntlet_Left" d="m128.55 91.98-.74-2.3-1.62.52.74 2.3 1.62-.52zm.85 2.61-.74-2.3-1.62.52.74 2.3 1.62-.52zm6.61 7.34-5.61 1.2.9 2.8 5.3-1.13-.59-2.87z" fill="#4E88D0"/>
<path id="Bottom_Gunslinger_Gauntlet_Left" d="m136.52 104.38-.51-2.45-5.61 1.2.9 2.8 5.3-1.13.61 2.93-3.45.6a1.88 1.88 0 0 1-2.11-1.26l-6.31-19.4 6.89-3.82 4.29 20.53zm-7.12-9.79-.74-2.3-1.62.52.74 2.3 1.62-.52zm-.85-2.61-.74-2.3-1.62.52.74 2.3 1.62-.52z" fill="#707070"/><g id="No-Device_Attachment_Gunslinger_Gauntlet_Left" class="option"/>
</g></g>
<g id="Right-Gauntlets"><g id="Gunslinger_Gauntlet_Right" class="option">
<path id="Accent-Top_Gunslinger_Gauntlet_Right" d="m30.21 80.56-.62 5.62 2.85.79.66-5.33-2.89-1.08zm1.35 20.83-.57 2.87 2.51.54.6-2.86-2.54-.55z" fill="#4E88D0"/>
<path id="Top_Gunslinger_Gauntlet_Right" d="m30.21 80.56-1.3-.49-2.29 26.33 6.27 1.32.85-4.08-.24 1.15-2.51-.54.57-2.87 2.54.54 3.85-18.47-7.74-2.89 2.89 1.08-.66 5.33-2.85-.79.62-5.62z" fill="#707070"/>
<path id="Accent-Bottom_Gunslinger_Gauntlet_Right" d="m41.56 91.98.74-2.3 1.62.52-.74 2.3-1.62-.52zm-.85 2.61.74-2.3 1.62.52-.74 2.3-1.62-.52zm-6.61 7.34 5.61 1.2-.9 2.8-5.3-1.13.59-2.87z" fill="#4E88D0"/>
<path id="Bottom_Gunslinger_Gauntlet_Right" d="m33.59 104.38.51-2.45 5.61 1.2-.9 2.8-5.3-1.13-.61 2.93 3.45.6c.92.16 1.82-.38 2.11-1.26l6.31-19.4-6.89-3.82-4.29 20.53zm7.12-9.79.74-2.3 1.62.52-.74 2.3-1.62-.52zm.85-2.61.74-2.3 1.62.52-.74 2.3-1.62-.52z" fill="#707070"/><g id="No-Device_Attachment_Gunslinger_Gauntlet_Right" class="option"/>
</g></g>
</g>
<g id="GauntletsDecals" mask="url(#GauntletsMask)"/>
<g id="Shins">
<g id="Left-Shin"><g id="Basic_Shin_Left" class="option">
<path id="Shin_Basic-Shin_Left" d="m121.62 179.69-5.07-5.47-10.06 1.36-3.67 8.71 6.88 29.05c4.47 1.82 10.9.87 14.37-2.3l-2.45-31.35" fill="#707070"/>
<path id="Trauma-Plating_Basic-Shin_Left" class="toggle" style="display:none" d="m122.31 210.31-2.33-29.91-4.07-4.4-8.22 1.11-3.08 7.32 6.54 27.63c3.58 1.12 8.25.44 11.16-1.75"/>
<g id="Ridge_Basic-Shin_Left" class="toggle" style="display:none"/>
</g>
</g>
<g id="Right-Shin"><g id="Basic_Shin_Right" class="option">
<path id="Shin_Basic-Shin_Right" d="m48.3 179.69 5.07-5.47 10.06 1.36 3.67 8.71-6.88 29.05c-4.47 1.82-10.9.87-14.36-2.3l2.44-31.35" fill="#707070"/>
<path id="Trauma-Plating_Basic-Shin_Right" class="toggle" style="display:none" d="m47.62 210.31 2.33-29.91 4.07-4.4 8.22 1.11 3.08 7.32-6.54 27.63c-3.58 1.12-8.25.44-11.16-1.75"/>
<g id="Ridge_Basic-Shin_Right" class="toggle" style="display:none"/>
</g>
</g>
</g>
<g id="ShinsDecals" mask="url(#ShinsMask)"/>
<g id="Foot">
<g id="Left-Ankle"><g id="Heavy_Ankle_Left" class="option">
<path id="Plate_Heavy-Ankle_Left" d="m107.19 218.98.36 3.6 7.43 9.26 7.24-3.25 7.88-2.03-5.95-10.52c-3.01-.42-6.51-.06-10.55 1.15l-2.25 1.97-4.16-.18" fill="#707070"/>
<path id="Trim_Heavy-Ankle_Left" d="m113.6 217.2.85 1.02-2.65 2.25-3-.13.11 1.46 6.44 7.92 6.46-3.01 7.78-1.84.81 1.62-8.16 2.1-7.24 3.25-7.43-9.26-.36-3.6 4.16.18 2.23-1.96" fill="#4E88D0"/>
</g></g>
<g id="Left-Toe"><g id="None_Toe_Left" class="option"/>
</g>
<g id="Right-Ankle"><g id="Heavy_Ankle_Right" class="option">
<path id="Plate_Heavy-Ankle_Right" d="m62.68 218.98-.36 3.6-7.43 9.26-7.24-3.25-7.88-2.03 5.95-10.52c3-.42 6.51-.06 10.55 1.15l2.25 1.97 4.16-.18" fill="#707070"/>
<path id="Trim_Heavy-Ankle_Right" d="m56.27 217.2-.85 1.02 2.65 2.25 3.01-.13-.11 1.46-6.44 7.92-6.46-3.01-7.78-1.84-.81 1.62 8.16 2.1 7.24 3.25 7.43-9.26.36-3.6-4.16.18-2.24-1.96" fill="#4E88D0"/>
</g></g>
<g id="Right-Toe"><g id="None_Toe_Right" class="option"/>
</g>
</g>
<g id="FootDecals" mask="url(#FootMask)"/>
<g id="Knees">
<g id="Left-Knee"><g id="Heavy_Knee_Left" class="option">
<g id="Missiles_Heavy-Knee_Left" class="toggle" style="display:none"/>
<path id="Plate-2_Heavy-Knee_Left" d="m116.81 155.76-2.86-1.72-14.26 2.44-2.07 2.56 2.79 14.21 5.62.13 8.01-1.37 5.57-2-2.8-14.25z" fill="#4E88D0"/>
<g id="Plate-1_Heavy-Knee_Left" fill="#707070">
<path d="m116.12 156.54-2.63-1.66-13.05 2.23-1.88 2.44 2.7 13.71 4.78.12 8.01-1.37 4.78-1.75-2.71-13.72z"/>
<path d="m111.54 158.46-8.01 1.37 2.49 13.54 4.15-.16 3.86-1.21-2.49-13.54z"/>
<path d="m103.54 159.83-3.1-2.72-1.88 2.44 4.98.28zm8-1.37 1.94-3.58 2.63 1.66-4.57 1.92z"/>
</g>
<g id="Trim_Heavy-Knee_Left" fill="#B86C00">
<path d="m97.66 163.92-.44 1.08 1.58 8.58.62-.11-1.76-9.55zm14.75 4.04-6.28 1.07.62 3.35 6.29-1.08-.63-3.34z"/>
<path d="m98.28 162.37-.88.15 2.02 10.95 1.02-.18-.01-.04h-.02l-2.13-10.88zm19.38-2.28 1.94 9.91-.18.06 1.03-.18-1.83-9.96-.96.17z"/>
</g>
</g></g>
<g id="Right-Knee"><g id="Heavy_Knee_Right" class="option">
<g id="Missiles_Heavy-Knee_Right" class="toggle" style="display:none"/>
<path id="Plate-2_Heavy-Knee_Right" d="m53.08 155.76 2.86-1.72 14.26 2.44 2.07 2.56-2.79 14.21-5.62.13-8.01-1.37-5.57-2 2.8-14.25z" fill="#4E88D0"/>
<g id="Plate-1_Heavy-Knee_Right" fill="#707070">
<path d="m53.77 156.54 2.63-1.66 13.05 2.23 1.88 2.44-2.7 13.71-4.78.12-8.01-1.37-4.78-1.75 2.71-13.72z"/>
<path d="m58.35 158.46 8.01 1.37-2.49 13.54-4.15-.16-3.86-1.21 2.49-13.54z"/>
<path d="m66.35 159.83 3.1-2.72 1.88 2.44-4.98.28zm-8-1.37-1.94-3.58-2.63 1.66 4.57 1.92z"/>
</g>
<g id="Trim_Heavy-Knee_Right" fill="#B86C00">
<path d="m72.23 163.92.44 1.08-1.58 8.58-.62-.11 1.76-9.55zm-14.74 4.04 6.28 1.07-.62 3.35-6.28-1.08.62-3.34z"/>
<path d="m71.61 162.37.88.15-2.02 10.95-1.03-.18.01-.04h.02l2.14-10.88zm-19.38-2.28L50.28 170l.18.06-1.03-.18 1.83-9.96.97.17z"/>
</g>
</g></g>
</g>
<g id="KneesDecals" mask="url(#KneesMask)"/>
<g id="Thighs">
<g id="Left-Thigh"><g id="Basic_Thigh_Left" class="option">
<path id="Thigh_Basic-Thigh_Left" d="M120.21 115.6s-5.03-6.43-7.59-7.49a8.12 8.12 0 0 0-7.78 1.09c-3.19 2.54-10.51 8.04-11.35 14.16-.93 6.83 4.08 21.95 5.78 26.84.58 1.66 2.77 2.41 4.44 2.48 3.1.12 11.57-.15 13.59-4.69 2.75-6.18 2.91-32.39 2.91-32.39" fill="#707070"/>
<path id="Trauma-Plate_Basic-Thigh_Left" class="toggle" style="display:none" d="M118.5 116.19c-.75-.93-2.56-3.1-4.3-4.77a9.07 9.07 0 0 0-2.25-1.75 6.31 6.31 0 0 0-6.06.85c-1.85 1.47-5.15 3.97-7.66 7.02-1.52 1.85-2.77 3.9-3.07 6.05-.9 6.64 4.05 21.31 5.7 26.06.14.42.54.67.95.87.61.3 1.33.45 1.94.47 1.73.07 5.27.02 8.23-.96 1.63-.54 3.12-1.33 3.75-2.73.78-1.75 1.3-5.22 1.7-9.2.88-8.51 1.04-19.29 1.07-21.91"/>
<g id="Ridge_Basic-Thigh_Left" class="toggle" style="display:none"/>
</g>
</g>
<g id="Right-Thigh"><g id="Basic_Thigh_Right" class="option">
<path id="Thigh_Basic-Thigh_Right" d="M49.69 115.6s5.03-6.43 7.59-7.49a8.12 8.12 0 0 1 7.78 1.09c3.19 2.54 10.51 8.04 11.35 14.16.93 6.83-4.08 21.95-5.78 26.84-.58 1.66-2.77 2.41-4.44 2.48-3.1.12-11.57-.15-13.59-4.69-2.75-6.18-2.91-32.39-2.91-32.39" fill="#707070"/>
<path id="Trauma-Plate_Basic-Thigh_Right" class="toggle" style="display:none" d="M51.39 116.19c.75-.93 2.56-3.1 4.3-4.77a9.07 9.07 0 0 1 2.25-1.75 6.31 6.31 0 0 1 6.06.85c1.85 1.47 5.15 3.97 7.66 7.02 1.52 1.85 2.77 3.9 3.07 6.05.9 6.64-4.05 21.31-5.7 26.06-.14.42-.54.67-.95.87-.61.3-1.33.45-1.94.47-1.73.07-5.27.02-8.23-.96-1.63-.54-3.12-1.33-3.75-2.73-.78-1.75-1.3-5.22-1.7-9.2a278.92 278.92 0 0 1-1.07-21.91"/>
<g id="Ridge_Basic-Thigh_Right" class="toggle" style="display:none"/>
</g>
</g>
</g>
<g id="ThighsDecals" mask="url(#ThighsMask)"/>
<g id="Groin">
<g id="None_Groin" class="option"/></g>
<g id="GroinDecals" mask="url(#GroinMask)"/>
<g id="Waist">
<g id="Accessories_Waist">
<g id="Kama" class="toggle" style="display:none"/>
<g id="Loin-Cloth" class="toggle" style="display:none"/>
<g id="Left-Holster" class="toggle" style="display:none"/>
<g id="Right-Holster" class="toggle" style=""><g id="Belt-Holster_Right" class="option">
<g id="Weapon_Belt-Holster-Right">
<g id="Main_Weapon_Belt-Holster-Right" fill="#575757">
<path d="m53.1 99.11.24-3.6-.62-.04.15-2.26.62.04.08-1.18c.03-.38-.47-.73-1.1-.77l-5.37-.36c-.63-.04-1.17.23-1.19.62l-.08 1.18.62.04-.15 2.26-.62-.04-.24 3.6 1.46.1-.67 9.95 4.73.31.67-9.95 1.47.1z"/>
<path d="m46.1 98.11.84.06-.8 11.96 4.73.31.8-11.96.84.06.18-2.73-6.41-.42-.18 2.72zm1.74-6.33 3.8.25-.25 3.69-3.8-.25.25-3.69z"/>
<path d="m50.51 99.49.62.04-.63 9.4-.62-.04.63-9.4zm-1.44-2.26.62.04-.63 9.4-.62-.04.63-9.4zm-1.74 2.05.62.04-.63 9.4-.62-.04.63-9.4z"/>
</g>
<g id="Accent_Weapon_Belt-Holster-Right" fill="#B86C00">
<path d="m50.8 96.06-.03.38-2.68-.18.02-.38 2.69.18z"/>
<path d="m50.78 96.44-.03.38-2.68-.18.03-.38 2.68.18zm.05-.76-.02.38-2.68-.18.03-.38 2.67.18zm.31-4.63-.02.38-2.68-.18.03-.38 2.67.18z"/>
<path d="m51.01 91.99.62.04-.25 3.69-.62-.04.25-3.69zm-3.17-.21.62.04-.25 3.69-.62-.04.25-3.69zm.12 7.54.94.06-.63 9.4-.94-.06.63-9.4zm1.6.1.94.06-.63 9.4-.94-.06.63-9.4z"/>
</g>
</g>
<path id="Holster_Belt-Holster-Right" d="m51.49 112.89 2.47-14.99-8.29 10.56-.79 20.68c1.44 1.89 3.04 2.08 4.84.36l1.77-16.61z" fill="#222222"/>
</g>
</g>
<g id="Left-Trophy" class="toggle" style="display:none"/>
<g id="Right-Trophy" class="toggle" style="display:none"/>
</g>
<g id="Under-Belt"><g id="Girth-Belt" class="option" fill="#707070">
<path d="M84.93 84.93c-9.33 0-27.98-2.25-27.98-2.25l.61-1.91 27.37 2.25 27.37-2.25.6 1.91c.01 0-18.65 2.25-27.97 2.25z"/>
<path d="M84.93 86.84c-9.52 0-28.56-2.25-28.56-2.25l.58-1.91 27.98 2.25 27.98-2.25.58 1.91s-19.04 2.25-28.56 2.25z"/>
<path d="M84.93 88.75c-9.67 0-28.99-2.25-28.99-2.25l.43-1.91 28.56 2.25 28.56-2.25.43 1.91c0-.01-19.32 2.25-28.99 2.25z"/>
<path d="M84.93 90.65c-9.79 0-29.36-2.25-29.36-2.25l.37-1.91 28.99 2.25 28.99-2.25.37 1.91s-19.57 2.25-29.36 2.25z"/>
<path d="M84.93 92.56c-9.9 0-29.69-2.25-29.69-2.25l.33-1.91 29.36 2.25 29.36-2.25.33 1.91s-19.79 2.25-29.69 2.25z"/>
<path d="M84.93 94.47c-10 0-30-2.25-30-2.25l.31-1.91 29.69 2.25 29.69-2.25.31 1.91c0-.01-20 2.25-30 2.25z"/>
<path d="M84.93 96.37c-10.1 0-30.31-2.25-30.31-2.25l.31-1.91 30 2.25 30-2.25.31 1.91s-20.21 2.25-30.31 2.25z"/>
<path d="M84.93 98.28c-10.21 0-30.62-2.25-30.62-2.25l.32-1.91 30.31 2.25 30.31-2.25.32 1.91c-.02 0-20.43 2.25-30.64 2.25z"/>
<path d="M84.93 100.19c-10.32 0-30.97-2.25-30.97-2.25l.34-1.91 30.62 2.25 30.62-2.25.35 1.91c.01-.01-20.64 2.25-30.96 2.25z"/>
<path d="M84.93 102.09c-10.45 0-31.36-2.25-31.36-2.25l.39-1.91 30.97 2.25 30.97-2.25.39 1.91s-20.91 2.25-31.36 2.25z"/>
</g>
</g>
<g id="Belt"><g id="Pouch-Belt-4" class="option">
<path id="Main_Pouch-Belt-4" d="M115.21 92.95c-6.82.61-22.4 2.83-30.27 2.83-7.94 0-23.52-2.23-30.26-2.82l1.01-7.93c5.53.49 21.56 2.74 29.26 2.74 7.47 0 23.17-2.23 29.07-2.76l1.19 7.94z" fill="#222222"/>
<path id="Buckle_Pouch-Belt-4" d="M79.37 87.01h11.28v9.21H79.37z" fill="#A3A3A3"/>
<g id="Pouches_Pouch-Belt-4" fill="#222222">
<path d="M59.65 83.47c-.31-.02-.62.03-.91.16l-1.86.81 7.38.42 2-.95-6.61-.44z"/>
<path d="M66.52 84.19a.23.23 0 0 0-.1-.22.23.23 0 0 0-.24-.02l-1.91.9-1.02 12.42a6.9 6.9 0 0 1 1.93-.85.9.9 0 0 0 .69-.84c.12-3.8.28-7.6.65-11.39z"/>
<path d="m64.26 84.85-7.38-.42c-.06 1.89-.23 3.77-.33 5.65-.11 2.08-.16 4.17-.34 6.28-.01.15.04.3.14.41s.25.18.4.17c2.08-.01 4.15.11 6.22.36a.5.5 0 0 0 .4-.12.54.54 0 0 0 .19-.37l.37-5.33.33-6.63z"/>
<path d="m64.26 84.85-7.38-.42-.36 3.15a2.75 2.75 0 0 0 2.59 3.05l2.23.13a2.8 2.8 0 0 0 2.06-.75c.55-.52.87-1.25.86-2v-3.16z"/>
<path d="M60.31 89.23c.26.01.46.26.44.54-.02.28-.24.5-.5.49-.26-.01-.46-.26-.44-.54.02-.28.24-.5.5-.49zm-8.09-4.94.55-.85 2.83.09.35 1.06-3.73-.3z"/>
<path d="M55.93 84.69a.2.2 0 0 0-.06-.18.23.23 0 0 0-.17-.08l-3.48-.13-.5 11.17c.11.28 1.53.46 2.68.49a.9.9 0 0 0 .92-.88c.08-3.47.21-6.94.61-10.39zm54.31-1.22c.31-.02.62.03.91.16l1.86.81-7.38.42-2-.95 6.61-.44z"/>
<path d="M103.37 84.19a.23.23 0 0 1 .1-.22.23.23 0 0 1 .24-.02l1.91.9 1.02 12.42a6.9 6.9 0 0 0-1.93-.85.9.9 0 0 1-.69-.84c-.12-3.8-.28-7.6-.65-11.39z"/>
<path d="m105.63 84.85 7.38-.42c.06 1.89.23 3.77.33 5.65.11 2.08.16 4.17.34 6.28.01.15-.04.3-.14.41a.5.5 0 0 1-.4.17c-2.08-.01-4.15.11-6.22.36a.5.5 0 0 1-.4-.12.54.54 0 0 1-.19-.37l-.37-5.33-.33-6.63z"/>
<path d="m105.63 84.85 7.38-.42.36 3.15a2.75 2.75 0 0 1-2.59 3.05l-2.23.13a2.8 2.8 0 0 1-2.06-.75 2.72 2.72 0 0 1-.86-2v-3.16z"/>
<path d="M109.58 89.23c-.26.01-.46.26-.44.54.02.28.24.5.5.49.26-.01.46-.26.44-.54-.01-.28-.24-.5-.5-.49zm8.09-4.94-.55-.85-2.83.09-.35 1.06 3.73-.3z"/>
<path d="M113.96 84.69a.2.2 0 0 1 .06-.18.23.23 0 0 1 .18-.08l3.48-.13.5 11.17c-.11.28-1.53.46-2.68.49a.9.9 0 0 1-.92-.88 116.3 116.3 0 0 0-.62-10.39z"/>
</g>
</g></g>
</g>
<g id="WaistDecals" mask="url(#WaistMask)"/>
<g id="Extras_Front">
<g id="Front"><g id="None_Front" class="option"/>
</g>
</g>
<g id="Extras-FrontDecals" mask="url(#FrontMask)"/>
</g>
</svg>