<?xml version='1.0' encoding='UTF-8'?>
<svg version="1.1" id="Female-Body" xmlns="http://www.w3.org/2000/svg" xmlns:serif="http://www.serif.com/" viewBox="0 -55 170 310" style="fill-rule: evenodd; stroke-width: 0.2px; stroke-linejoin: round;" width="510" height="930">
<style>
mask {
mask-type: alpha;
}
.decal {
stroke: none;
}
</style>
<defs id="Masks" stroke="none">
<mask id="HelmetsMask"> <use href="#Helmets"/> </mask>
<mask id="CollarMask"> <use href="#Collar"/> </mask>
<mask id="ShouldersMask"> <use href="#Shoulders"/> </mask>
<mask id="ChestMask"> <use href="#Chest"/> </mask>
<mask id="BicepsMask"> <use href="#Biceps"/> </mask>
<mask id="GauntletsMask"> <use href="#Gauntlets"/> </mask>
<mask id="WaistMask"> <use href="#Waist"/> </mask>
<mask id="GroinMask"> <use href="#Groin"/> </mask>
<mask id="ThighsMask"> <use href="#Thighs"/> </mask>
<mask id="KneesMask"> <use href="#Knees"/> </mask>
<mask id="ShinsMask"> <use href="#Shins"/> </mask>
<mask id="FootMask"> <use href="#Foot"/> </mask>
</defs>
<defs id="Decals"><g serif:id="Stripe 3" id="Stripe-3">
<path d="M34.61 0h30.78v100H34.61zM75.39 0h13.3v100h-13.3zM11.31 0h13.3v100h-13.3z"/>
</g><path id="Rebels" d="m31.11 21.73 1.41-1.56c1.37-1.51 2.74-3.01 4.1-4.53.14-.15.24-.17.42-.08a23.02 23.02 0 0 1 8.17 7.38.2.2 0 0 0 .1.08c-.17-4.46-1.74-8.43-4.3-12.09L49.83.92l8.73 9.91c-2.38 3.77-4.01 7.79-4.26 12.29l.62-.85a25.7 25.7 0 0 1 7.78-6.71c.16-.09.24-.06.35.07l4.67 5.26.73.83c-.52.24-1.03.46-1.52.72A18.41 18.41 0 0 0 58.2 32.5a33.05 33.05 0 0 0-1.62 6.35 28.34 28.34 0 0 0-.33 5.2 20.1 20.1 0 0 0 1.96 8.48 10.92 10.92 0 0 0 3.92 4.57 9.4 9.4 0 0 0 6.19 1.48 14.08 14.08 0 0 0 5.84-2.17c2.77-1.67 4.83-4.02 6.58-6.69a28.88 28.88 0 0 0 4.03-9.39c.55-2.41.76-4.85.65-7.33a32.58 32.58 0 0 0-3.81-13.47 50.5 50.5 0 0 0-6-8.97c-.33-.4-.68-.78-1.02-1.17-.07-.08-.12-.18-.19-.27l.06-.09c.23.09.48.13.67.27a75.76 75.76 0 0 1 10.12 8.46 43.21 43.21 0 0 1 11 19.69 56.55 56.55 0 0 1 1.32 6.84c.25 1.98.51 3.96.48 5.95a70.82 70.82 0 0 1-.28 4.61 55.56 55.56 0 0 1-1.91 10.23 49.2 49.2 0 0 1-6.95 14.76 44.5 44.5 0 0 1-25.19 17.53 49.04 49.04 0 0 1-6.58 1.29c-3 .38-6 .52-9.02.4a47.52 47.52 0 0 1-29.94-12.15A48.76 48.76 0 0 1 5.94 31.29a48.28 48.28 0 0 1 7.14-11.55A53.56 53.56 0 0 1 24.83 9.26c.14-.09.28-.23.44-.09.02.02-.1.25-.19.35a46.77 46.77 0 0 0-5.48 7.97 43.04 43.04 0 0 0-4.07 9.94 32.8 32.8 0 0 0-1 5.82 25.27 25.27 0 0 0 5.72 18.38 22 22 0 0 0 2.53 2.75 16.41 16.41 0 0 0 7.29 3.89c3.5.8 6.52-.11 9.13-2.55A11.22 11.22 0 0 0 41.71 52c1-2.21 1.58-4.53 1.8-6.95.39-4.24-.36-8.3-1.94-12.22a33.65 33.65 0 0 0-1.93-4.07 15.4 15.4 0 0 0-4.87-5.03 20.7 20.7 0 0 0-3.35-1.86l-.31-.14"/><path id="Square" d="M3.75 3.75h92.5v92.5H3.75z"/><g serif:id="Jaig Eyes" id="Jaig-Eyes">
<path d="M7.55 23.68C13.78 41.36 22.88 58.9 34.2 76.32c-8.54-6.46-16.48-15.6-23.42-29.12-2.13 4.55-2.61 11-1.55 19.21a34.27 34.27 0 0 0 7.17 7.16 62.23 62.23 0 0 1-12.43-5.69c-2.42-17.82-1.65-32.91 3.58-44.2zM25.12 54.36a9.17 9.17 0 0 0 5.5 1.47c.08 3.75 1.06 7.4 2.63 10.98a41.44 41.44 0 0 1-8.13-12.45zM92.45 23.68C86.22 41.36 77.12 58.9 65.8 76.32c8.54-6.46 16.48-15.6 23.42-29.12 2.13 4.55 2.61 11 1.55 19.21a34.27 34.27 0 0 1-7.17 7.16 62.23 62.23 0 0 0 12.43-5.69c2.42-17.82 1.65-32.91-3.58-44.2zM74.88 54.36a9.17 9.17 0 0 1-5.5 1.47 28.82 28.82 0 0 1-2.63 10.98 41.44 41.44 0 0 0 8.13-12.45z"/>
</g><path id="Triangle" d="m50 11.16 48.01 77.68H1.99L50 11.16z"/><g serif:id="Stripe 2" id="Stripe-2">
<path d="M22.96 0h30.78v100H22.96zM63.74 0h13.3v100h-13.3z"/>
</g><path serif:id="True Mandalorians" id="True-Mandalorians" d="M55.27 53.81v-6.47l-3.1 1.87v7.08l3.1-2.48m-7.47 2.5v-7.09l-3.06-1.84v6.47l3.06 2.46m2.75 28.2c.16-.12.25-.16.28-.23.15-.3.31-.61.44-.93a44.1 44.1 0 0 0 2.55-10.42c.36-2.49.63-5 .85-7.51.28-3.18.46-6.36.7-9.79l-3.27 2.65c-.05 8.78-.72 17.47-1.55 26.23m-1.1.41c-.1-1.79-.17-3.29-.28-4.78-.31-3.92-.69-7.84-.94-11.76-.19-3.03-.21-6.07-.3-9.11-.01-.34-.04-.67-.07-1.02l-3.15-2.49c0 .82-.04 1.42.01 2.02.22 2.99.46 5.97.69 8.95.32 4.05.91 8.06 1.85 12.02a24.63 24.63 0 0 0 2.19 6.17m9.37-54.19-5.5 6.85 4.5-1.29c.36 1 .15 1.93.14 2.85-.01.94-.1 1.88-.14 2.82-.17 3.81-.31 7.62-.51 11.42-.15 2.86-.29 5.73-.57 8.58-.32 3.23-.69 6.47-1.2 9.67-.51 3.16-1.12 6.31-1.9 9.42-.49 1.93-1.34 3.78-2.13 5.62-.31.71-.9 1.31-1.41 2.01a5.46 5.46 0 0 1-1.76-2.2c-1.33-2.52-2.05-5.25-2.7-8a104.1 104.1 0 0 1-2.03-12.65c-.39-3.53-.65-7.07-.84-10.62-.31-5.77-.51-11.55-.76-17.33-.02-.5 0-1 0-1.64l4.64 1.36-5.43-6.8c-.88 1.04-1.67 2.05-2.55 2.98a25.68 25.68 0 0 1-12.37 7.23c-3.09.83-6.25 1.38-9.38 2.09-2.07.47-4.01 1.24-5.56 2.76-1.79 1.75-2.36 3.9-2.05 6.34.5 3.84 2.32 7.13 4.36 10.32.68 1.07 1.42 2.11 2.25 3.34-.31-.1-.43-.11-.5-.17C12 62.5 8.72 59.17 6.1 55.27c-1.75-2.61-3.2-5.36-3.76-8.51-.79-4.35.58-7.94 3.84-10.83 2.92-2.59 6.43-4.03 10.16-5 1.74-.45 3.5-.78 5.26-1.16 3.48-.75 5.72-2.9 7.06-6.13a27.28 27.28 0 0 0 1.54-5.68c.13-.76.3-1.51.55-2.24.2-.57.53-1.1 1.48-1l14.68 20.05V24.33c-.38-.26-.8-.55-1.23-.82a34.77 34.77 0 0 1-6.72-5.55 21.11 21.11 0 0 1-1.88-2.44 6.33 6.33 0 0 1-.74-1.63c-.45-1.44.25-2.43 1.78-2.55 1.17-.1 2.29.13 3.42.45 2.24.64 4.97 1.85 6.49 2.96v23.06c1.34.21 2.6.07 3.98.09V14.66a23.65 23.65 0 0 1 6.49-2.85c1.02-.27 2.1-.44 3.15-.45 1.83-.02 2.63 1.11 1.95 2.8-.39.98-.98 1.9-1.63 2.74-1.99 2.57-4.57 4.5-7.22 6.33-.56.39-1.14.76-1.72 1.15v10.48c5.1-6.82 9.89-13.57 14.81-20.16.99-.07 1.34.56 1.54 1.21.26.85.4 1.75.56 2.63.34 1.95.85 3.84 1.67 5.64a9.58 9.58 0 0 0 7.28 5.69c2.22.44 4.43.94 6.6 1.57 2.69.78 5.2 1.99 7.43 3.7 2.69 2.06 4.52 4.66 4.93 8.11.3 2.5-.32 4.85-1.26 7.12a31.24 31.24 0 0 1-5.54 8.61c-1.87 2.12-3.89 4.1-5.85 6.14-.2.21-.46.36-.86.43.21-.33.4-.68.62-1 2.05-2.92 3.9-5.94 5.06-9.34.44-1.31.67-2.64.7-4.03.07-3.12-1.36-5.31-4.03-6.78-1.9-1.05-4-1.47-6.11-1.83a47.5 47.5 0 0 1-10.86-2.97 24.94 24.94 0 0 1-10.9-8.87"/></defs><metadata><rdf:rdf xmlns:rdf="http://www.w3.org/1999/02/22-rdf-syntax-ns#" xmlns:rdfs="http://www.w3.org/2000/01/rdf-schema#" xmlns:dc="http://purl.org/dc/elements/1.1/"><rdf:description><dc:creator>MandoCreator</dc:creator><dc:publisher>https://www.mandocreator.com</dc:publisher><dc:description>Your Beskar'gam - created by MandoCreator</dc:description><dc:format>image/svg+xml</dc:format><dc:type>Image</dc:type><dc:title>MandoCreator - Ner Berskar'gam</dc:title><dc:date>2022-03-14T15:19:14.676Z</dc:date></rdf:description></rdf:rdf></metadata><g id="Main-Body" fill="white" stroke="black">
<g id="Extras_Back">
<g id="Back"><path id="Torn-Full-Cape_Back" class="option" d="M67.82,13.09c-12.2,4.58-25.78,26.64-27.46,43.43 c-1.06,10.59-6.25,21.35-5.77,31.89c0.49,10.69-4.93,21.78-5.33,32.46c-0.36,9.62-3.22,14.02-4.87,23.54 c-2.48,14.24-5.22,23.63-7.45,37.88c-1.77,11.33-7.12,20.69-9.63,24.23c-0.09,0.13,2.56-1.22,5.84-1.28 c0.96-0.02,5.74-6.99,5.74-6.99s5.95,4.92,7.17,7.7c1.6-1.02,2.83-15.76,4.66-16.34c0.97-0.3,2.72,18.52,2.72,18.52 s2.86-5.57,3.96-5.59c2.35-0.04,6.65,2.09,9.06,2.35c2.56,0.27,5.19-3.94,8-3.26c4.31,1.05,8.58,0.97,12.87,1.52 c3.03,0.39,6.06,6.26,9.11,6.25c3.76-0.01,3.23-8.76,7.06-9.6c3.29-0.72,7.77,7.08,7.77,7.08s1.03-25.9,4.28-26.96 c4.25-1.39,20.24,19.49,24.69,19.08c1.31-0.12,3-13.21,4.3-13.18c2.82,0.06,5.22,13.48,8,14.01c3.49,0.66,5.18-5.84,8.61-4.99 c0.97,0.24,3.71,7.88,4.67,8.1c2.12,0.49,5.07,1.75,7.26,1.61c0.06,0-0.7-5.08-0.81-5.62c-0.49-2.43-1.28-4.81-2.26-7.11 c-1.17-2.74-2.62-5.38-4.2-7.86c-7.37-11.59-4.83-24.32-6.18-38.02c-1.31-13.29,0.06-26.6-2.19-39.86 c-1.99-11.73-8.97-22.64-10.72-34.48c-2.05-13.89-6.82-28.76-11.03-42.25C110.54,12.8,80.02,8.51,67.82,13.09z M71.28,189.33 c-0.98,2.52-1.37,5.14-1.09,7.83c0.12,1.22,0.48,2.48,1.09,3.55c0.06,0.1,0.09,0.39,0.18,0.31 C76.04,196.96,71.28,189.33,71.28,189.33z M35.42,164.2c-0.42,8.04-1.18,16.11-1.18,24.15c0,1.51,0.02,3.01,0.16,4.51 c0.02,0.24,0.25,2.44,0.38,2.42c2.75-0.55,1.41-8,2.06-10.31C39.08,176.95,35.42,164.2,35.42,164.2z M131.24,192.06 c-0.24,2.91,0.64,2.59,1.39,1.13c0.75-1.46,1.37-4.05,0.58-5.69L131.24,192.06z M119.28,166.74c-0.68,4.82,0.37,8.92,0.72,13.67 c0.12,1.54,0.12,3.1,0.14,4.65c0.01,0.52,0.03,1.04,0.02,1.56c0,0.26-0.19,0.99-0.01,0.8c3.65-3.79,3.24-11.1,2.1-15.79 L119.28,166.74z M75.59,180.96c-0.04,1.24-0.01,2.52,0.15,3.75c0.33,2.48,1.74-1.42,1.76-2.4c0.03-1.37-0.89-2.96-1.22-4.28 L75.59,180.96z" fill="#000000"/></g>
</g>
<g id="Extras-BackDecals" mask="url(#BackMask)">
</g>
<g id="Suit">
<g id="Neck-Seal">
<path id="Plain-Neck-Seal" class="option" d="M95.11,1.97l3.79,11.37l-1.61,2.77l-12.25,2.82l-12.32-2.82l-1.46-3.4 l3.63-10.74L85,2.66L95.11,1.97" fill="#0D0D0D"/></g>
<g id="Flight-Suit" fill="#0E0E0E">
<path d="M38.1,60.17l5.2-18.8l12.15-8.13l1.9,16.49c0,0-5.25,9.95-7.06,14.51c-1.86,4.7-5.09,15.42-5.5,16.81 l-2.88,24.91l-8.36-2.66c0,0-0.3-17.29,0.46-24.47C34.68,72.42,38.1,60.17,38.1,60.17z"/>
<path d="M131.9,60.17l-5.22-18.86l-12.06-8.07l-1.92,16.59c0,0,5.2,9.85,7.01,14.41c1.86,4.7,5.09,15.42,5.5,16.81 l2.88,24.91l8.36-2.66c0,0,0.3-17.29-0.46-24.47C135.32,72.42,131.9,60.17,131.9,60.17z"/>
<path d="M84.99,113.44c-1.03,0.1-1.95,0.5-2.29,1.22c-3,6.3-9.17,35.13-10.95,40.44c-0.97,2.89-1.74,18.7-3.38,27.92 c-1.96,11.01-8.39,38.11-8.39,38.11l-11.15-1.15c0,0-1.44-27.22-1.04-37.12c0.3-7.53,3.42-22.31,3.42-22.31s0.67-5.4,0.69-8.12 c0.06-9.82,0.93-31.66,2.88-44.2C56.3,98.31,65.7,77.5,65.7,77.5s12.18,4.76,19.34,4.76c7.16,0,19.44-4.86,19.44-4.86 s8.88,20.92,10.42,30.83c1.95,12.54,3.24,34.38,3.3,44.2c0.02,2.72,0.69,8.12,0.69,8.12s3.12,14.79,3.42,22.31 c0.4,9.91-1.04,37.12-1.04,37.12l-11.15,1.15c0,0-6.43-27.1-8.39-38.11c-1.64-9.22-2.41-25.03-3.38-27.92 c-1.78-5.31-7.96-34.13-10.95-40.44c-0.35-0.73-1.3-1.14-2.34-1.23L84.99,113.44z"/>
</g>
<g id="Sleeves" class="toggle" fill="#0B0B0B">
<path d="M41.92,41.42l0.81,0.34l12.73-8.52c0,0,0.36,8.98,1.42,14.37c0.15,0.75,0.37,1.69,0.64,2.79l-1.69,5.45 c0,0-5.75-2.25-8.27-3.72C45.11,50.7,40.7,47,40.7,47L41.92,41.42z"/>
<path d="M112.55,50.4c0.28-1.1,0.5-2.04,0.64-2.79c1.06-5.39,1.42-14.37,1.42-14.37l12.73,8.52l0.81-0.34l1.22,5.58 c0,0-4.4,3.7-6.85,5.13c-2.52,1.48-8.28,3.72-8.28,3.72L112.55,50.4z"/>
</g>
</g>
<g id="Boots">
<g id="Tall_Boots" class="option">
<g id="Bottom_Tall-Boot" fill="#2D2D2D">
<path d="M62.38,229.28c-0.02,0.13-0.05,0.27-0.09,0.42c-0.88,1.83-3.26,2.46-4.9,2.9c-1.16,0.31-2.28,0.75-3.37,1.27 c-1.51,0.73-2.27,2-3.44,3.22c-0.52,0.54-1.15,0.96-1.75,1.38c-1.5,1.03-2.95,1.11-4.66,1.16c-2.29,0.07-4.32-0.28-6.58-0.85 c-1.98-0.5-3.45-0.92-5.16-1.47c-0.51-0.17-1.14-0.28-1.44-0.71l-0.26,0.65l-0.19,1.7c0,0,1.85,1.13,3.82,1.63 c1.97,0.5,5.94,1.2,5.94,1.2l0.27-0.74l0.89,0.21l-0.04,0.73l2.16,0.14l0.46-0.71l0.72,0.02l-0.11,0.63c0,0,1.34-0.02,2.08-0.53 c0.14-0.24,0.41-0.63,0.41-0.63l0.51-0.32l-0.07,0.6l1.86-0.76l0.09-0.82l0.54-0.36l0.02,0.6l1.33-1.17l0.14-0.72l2.85-1.7 l0.97,0.44l2.32-0.57l0.08-0.57l0.59-0.28l0.41,0.43l1.56-0.73l0.03-0.53l0.51-0.2l0.06,0.38l1.48-1.16L62.38,229.28z M62.44,228.61L62.44,228.61L62.44,228.61L62.44,228.61z"/>
<path d="M107.68,229.28c0.02,0.13,0.05,0.27,0.09,0.42c0.88,1.83,3.26,2.46,4.9,2.9c1.15,0.31,2.28,0.75,3.37,1.27 c1.51,0.73,2.27,2,3.44,3.22c0.52,0.54,1.15,0.96,1.75,1.38c1.5,1.03,2.95,1.11,4.66,1.16c2.29,0.07,4.32-0.28,6.58-0.85 c1.98-0.5,3.45-0.92,5.16-1.47c0.51-0.17,1.14-0.28,1.44-0.71l0.26,0.65l0.19,1.7c0,0-1.85,1.13-3.82,1.63 c-1.97,0.5-5.94,1.2-5.94,1.2l-0.27-0.74l-0.89,0.21l0.04,0.73l-2.16,0.14l-0.46-0.71l-0.72,0.02l0.11,0.63 c0,0-1.34-0.02-2.08-0.53c-0.14-0.24-0.41-0.63-0.41-0.63l-0.51-0.32l0.07,0.6l-1.86-0.76l-0.09-0.82l-0.54-0.36l-0.02,0.6 l-1.33-1.17l-0.14-0.72l-2.85-1.7l-0.97,0.44l-2.32-0.57l-0.08-0.57l-0.59-0.28l-0.41,0.43l-1.56-0.73l-0.03-0.53l-0.51-0.2 l-0.06,0.38l-1.48-1.16L107.68,229.28z M107.62,228.61L107.62,228.61L107.62,228.61L107.62,228.61z"/>
</g>
<g id="Main_Tall-Boot" fill="#100F0F">
<path d="M62.37,215.4c1.32-4.39,2.31-11.41,3.1-14.61c0.59-2.4,3.31-15.44,2.86-17.08 c-0.45-1.66-20.1-4.93-20.66-3.44c-0.86,2.29,0.36,24.81,0.21,28.13c-0.11,2.44,0.19,7.55,0.19,7.55 c-0.23,1.33-0.42,2.76-0.9,3.96c-0.91,2.25-1.49,2.97-3.03,4.68c-1.06,1.17-3.06,3.14-4.32,4.03c-0.53,0.38-2.39,1.74-2.39,1.74 c-2.32,0.98-4.88,0.64-6.14,3.55c-0.27,0.64-0.51,1.4-0.46,2.12c0.06,0.92,0.94,1.05,1.63,1.27c1.71,0.55,3.18,0.97,5.16,1.47 c2.26,0.58,4.29,0.93,6.58,0.85c1.71-0.05,3.16-0.13,4.66-1.16c0.6-0.41,1.23-0.83,1.75-1.38c1.17-1.22,1.93-2.49,3.44-3.22 c1.09-0.53,2.21-0.96,3.37-1.27c1.63-0.44,4.02-1.06,4.9-2.9c0.34-1.38-0.01-2.06-0.12-3.24l-0.05-0.51 c-0.09-0.77-0.21-1.56-0.25-2.4c-0.07-1.6,0.28-3.18,0.37-4.77c0.05-0.9,0.09-1.81,0.11-2.71 C62.36,215.96,62.39,215.62,62.37,215.4z"/>
<path d="M107.7,215.4c-1.32-4.39-2.31-11.41-3.1-14.61c-0.59-2.4-3.31-15.44-2.86-17.08 c0.45-1.66,20.1-4.93,20.66-3.44c0.86,2.29-0.36,24.81-0.21,28.13c0.11,2.44-0.19,7.55-0.19,7.55c0.23,1.33,0.42,2.76,0.9,3.96 c0.91,2.25,1.49,2.97,3.03,4.68c1.06,1.17,3.06,3.14,4.32,4.03c0.53,0.38,2.39,1.74,2.39,1.74c2.32,0.98,4.88,0.64,6.15,3.55 c0.27,0.64,0.51,1.4,0.46,2.12c-0.06,0.92-0.94,1.05-1.63,1.27c-1.71,0.55-3.18,0.97-5.16,1.47c-2.26,0.58-4.29,0.93-6.58,0.85 c-1.71-0.05-3.16-0.13-4.66-1.16c-0.61-0.41-1.23-0.83-1.75-1.38c-1.18-1.22-1.94-2.49-3.44-3.22c-1.09-0.53-2.21-0.96-3.37-1.27 c-1.63-0.44-4.02-1.06-4.9-2.9c-0.34-1.38,0.01-2.06,0.12-3.24l0.05-0.51c0.09-0.77,0.21-1.56,0.25-2.4 c0.07-1.6-0.28-3.18-0.37-4.77c-0.05-0.9-0.09-1.81-0.11-2.71C107.71,215.96,107.68,215.62,107.7,215.4z"/>
</g>
</g></g>
<g id="Gloves">
<g id="Left-Glove">
<g id="Fingerless_Left_Glove" class="option">
<g id="Fingers_Fingerless_Left_Glove" fill="#484848">
<path d="M133.16,120.46c-0.46-0.03-0.9-0.01-1.36,0.09c-0.31,0.07-0.62,0.16-0.9,0.34 c-0.85,0.55-0.62,1.76,0.14,2.21c0.89,0.53,2.29,0.01,2.69-1.02C133.9,121.66,133.39,120.86,133.16,120.46"/>
<path d="M131.6,121.51c-0.46-0.02-0.9-0.02-1.36,0.09c-0.31,0.07-0.62,0.16-0.9,0.34 c-0.85,0.55-0.62,1.76,0.14,2.21c0.89,0.53,2.29,0.01,2.69-1.02C132.34,122.71,131.83,121.91,131.6,121.51"/>
<path d="M130.51,122.89c-0.46,0.05-1.04,0.16-1.48,0.34c-0.3,0.12-0.59,0.25-0.85,0.47 c-0.78,0.68-0.4,1.83,0.4,2.17c0.94,0.39,2.27-0.34,2.55-1.42C131.24,124.01,130.51,122.89,130.51,122.89z"/>
<path d="M125.73,116.29c-0.26,1.3-0.47,2.01-0.47,2.01s-1.18,2.71-0.98,3.34c0.21,0.62,1.25,1.18,1.84,0.85 c0.74-0.41,1.66-2.32,2.24-3.67c0.21-0.5,0.41-1.07,0.58-1.59C126.58,117.61,125.73,116.29,125.73,116.29L125.73,116.29z"/>
<path d="M130.61,122.69c-0.17,0.33-0.37,0.68-0.59,1.05c-1.17,1.99-2.97,3.7-1.78,5.22 c1.11,1.42,3.63-2.31,3.63-2.31l1.17-1.72C131.1,124.42,130.62,122.7,130.61,122.69z"/>
</g>
<path id="Glove_Fingerless_Left_Glove" d="M133.04,124.93l1.3-1.91c0,0,2.84-5.26,2.98-6.28 c0.11-0.78,0.01-3.38,0.01-3.38l-0.89-10.08l-4.5,0.42l-3.7,1.36l-0.28,1.72c0,0-1.34,2.09-1.69,3.59 c-0.25,1.06-0.11,3.58-0.43,5.28c-0.04,0.22-0.08,0.43-0.12,0.63l0,0c0,0,0.85,1.33,3.22,0.93c0.3-0.93,0.5-1.73,0.5-1.73 s0.81,0.32,1.23,0.68c1.38,1.2,0.78,4.82,0.78,4.82s-0.32,0.72-0.84,1.7C130.62,122.7,131.1,124.42,133.04,124.93z" fill="#121212"/>
</g></g>
<g id="Right-Glove">
<g id="Fingerless_Right_Glove" class="option">
<g id="Fingers_Fingerless_Right_Glove" fill="#484848">
<path d="M36.86,120.46c0.46-0.03,0.9-0.01,1.36,0.09c0.31,0.07,0.62,0.16,0.9,0.34c0.85,0.55,0.62,1.76-0.14,2.21 c-0.89,0.53-2.29,0.01-2.69-1.02C36.12,121.66,36.64,120.86,36.86,120.46"/>
<path d="M38.42,121.51c0.46-0.02,0.9-0.02,1.36,0.09c0.31,0.07,0.62,0.16,0.9,0.34c0.85,0.55,0.62,1.76-0.14,2.21 c-0.89,0.53-2.29,0.01-2.69-1.02C37.68,122.71,38.2,121.91,38.42,121.51"/>
<path d="M39.52,122.89c0.46,0.05,1.04,0.16,1.48,0.34c0.3,0.12,0.6,0.25,0.85,0.47c0.78,0.68,0.4,1.83-0.4,2.17 c-0.94,0.39-2.27-0.34-2.55-1.42C38.78,124.01,39.52,122.89,39.52,122.89z"/>
<path d="M44.29,116.29c0.26,1.3,0.47,2.01,0.47,2.01s1.18,2.71,0.98,3.34c-0.21,0.62-1.24,1.18-1.84,0.85 c-0.74-0.41-1.66-2.32-2.24-3.67c-0.21-0.5-0.41-1.07-0.58-1.59C43.45,117.61,44.29,116.29,44.29,116.29L44.29,116.29z"/>
<path d="M39.41,122.69c0.17,0.33,0.37,0.68,0.59,1.05c1.17,1.99,2.97,3.7,1.78,5.22c-1.11,1.42-3.63-2.31-3.63-2.31 l-1.17-1.72C38.92,124.42,39.41,122.7,39.41,122.69z"/>
</g>
<path id="Glove_Fingerless_Right_Glove" d="M36.98,124.93l-1.3-1.91c0,0-2.84-5.26-2.98-6.28 c-0.11-0.78-0.01-3.38-0.01-3.38l0.89-10.08l4.5,0.42l3.7,1.36l0.28,1.72c0,0,1.34,2.09,1.69,3.59c0.25,1.06,0.11,3.58,0.43,5.28 c0.04,0.22,0.08,0.43,0.12,0.63l0,0c0,0-0.85,1.33-3.22,0.93c-0.3-0.93-0.5-1.73-0.5-1.73s-0.81,0.32-1.23,0.68 c-1.38,1.2-0.78,4.82-0.78,4.82s0.32,0.72,0.84,1.7C39.41,122.7,38.92,124.42,36.98,124.93z" fill="#121212"/>
</g></g>
</g>
<g id="Biceps">
<g id="Left-Biceps"><g id="Basic_Biceps_Left" class="option">
<path id="Main_Basic_Biceps_Left" d="M133.33,53.8c-1.18-2.85-6.45-15.35-6.45-15.35s-8.66,3.56-10.82,4.44 c-0.61,0.25-0.9,0.95-0.65,1.56c1.02,2.45,3.51,8.45,5.06,12.19c0.35,0.85,1.03,1.52,1.88,1.87c0.85,0.35,1.81,0.35,2.65,0 c2.54-1.04,5.95-2.44,7.68-3.15C133.29,55.1,133.58,54.41,133.33,53.8z" fill="#1C0236"/>
<path id="Strap_Basic_Biceps_Left" d="M117.73,49.98l-4.71,1.93l1.11,3.94l5.16-2.12L117.73,49.98" fill="#101010"/>
<path id="Trauma-Plate_Basic_Biceps_Left" class="toggle" style="" d="M133.29,53.21l-5.5-13.24l-10.55,4.33l4.84,11.67 c0.17,0.42,0.5,0.75,0.92,0.92c0.42,0.17,0.89,0.17,1.31,0L133.29,53.21" fill="#0B0016"/>
</g>
</g>
<g id="Right-Biceps"><g id="Basic_Biceps_Right" class="option">
<path id="Main_Basic_Biceps_Right" d="M36.74,53.8c1.18-2.85,6.46-15.35,6.46-15.35s8.66,3.56,10.82,4.44 c0.61,0.25,0.9,0.95,0.65,1.56c-1.02,2.45-3.51,8.45-5.06,12.19c-0.35,0.85-1.03,1.52-1.88,1.87c-0.85,0.35-1.8,0.35-2.65,0 c-2.54-1.04-5.95-2.44-7.68-3.15C36.78,55.1,36.49,54.41,36.74,53.8z" fill="#1C0236"/>
<path id="Strap_Basic_Biceps_Right" d="M52.35,49.98l4.71,1.93l-1.11,3.94l-5.16-2.12L52.35,49.98" fill="#101010"/>
<path id="Trauma-Plate_Basic_Biceps_Right" class="toggle" style="" d="M36.78,53.21l5.49-13.24l10.55,4.33l-4.84,11.67 c-0.17,0.42-0.5,0.75-0.92,0.92c-0.42,0.17-0.89,0.17-1.31,0L36.78,53.21" fill="#0B0016"/>
</g>
</g>
</g>
<g id="BicepsDecals" mask="url(#BicepsMask)">
</g>
<path id="Vest" d="M91.61,82.96c-4.3,0.88-8.84,0.88-13.14,0c-4.33-0.88-12.83-5.29-12.83-5.29s-7.42-23.26-8.75-30.06 c-1.06-5.39-1.42-14.37-1.42-14.37l-12.73,8.52l-2.71-1.15c0,0,7.62-16.73,12.62-21.57c4.53-4.39,17.42-7.5,17.42-7.5 s5.68,6.2,14.97,6.25c8.84,0.04,14.97-6.25,14.97-6.25s12.89,3.12,17.42,7.5c5.01,4.85,12.62,21.57,12.62,21.57l-2.71,1.15 l-12.73-8.52c0,0-0.36,8.98-1.42,14.37c-1.33,6.79-8.76,30.06-8.76,30.06S95.93,82.08,91.61,82.96z" fill="#0C0C0C"/>
<g id="SuitDecals" mask="url(#SuitMask)">
</g>
<g class="swappable" id="Chest"><g id="Chest_Gunslinger-MK1">
<g id="Abdomen_Gunslinger-MK1">
<path id="Abdomen-Plate_Gunslinger-MK1" d="M105.83,56.96l-0.22,1.93c0,0-8.6,5.5-12.07,7.5 c-3.21,1.85-5.69,2.22-8.54,2.22s-5.33-0.38-8.54-2.22c-3.47-1.99-12.07-7.5-12.07-7.5l-0.22-1.93H105.83z" fill="#1C0236"/>
</g>
<g id="Left-Chest_Gunslinger-MK1">
<g id="Bottom_Left-Chest_Gunslinger-MK1" fill="#590FA9">
<path d="M111.04,39.07l-3.65,1.82L87.41,52.08l1.81,3.55h17.29L111.04,39.07z"/>
<path d="M86.36,52.79l2.86,2.84l-1.81-3.55L86.36,52.79z"/>
</g>
<g id="Top_Left-Chest_Gunslinger-MK1" fill="#1C0236">
<path d="M88.46,21.15v4.61l3.09,6.79l-4.13,8.85l0,10.68l19.97-11.18l-1.63-19.75H88.46z"/>
<path d="M107.39,40.9l3.65-1.82l-1.4-19.6l-3.89,1.68L107.39,40.9z"/>
<path d="M86.8,19.26l22.84,0.22l-3.89,1.68h-17.3L86.8,19.26z"/>
<path d="M86.8,19.26v6.43l1.66,0.07v-4.61L86.8,19.26z"/>
<path d="M90.35,32.65l1.19-0.11l-3.09-6.79l-1.66-0.07L90.35,32.65z"/>
<path d="M86.36,40.9l1.05,0.5l4.13-8.85l-1.19,0.11L86.36,40.9z"/>
<path d="M87.41,52.08l-1.05,0.71V40.9l1.05,0.5V52.08z"/>
</g>
</g>
<g id="Right-Chest_Gunslinger-MK1">
<g id="Bottom_Right-Chest_Gunslinger-MK1" fill="#590FA9">
<path d="M58.96,39.07l3.65,1.82l19.97,11.18l-1.81,3.55H63.49L58.96,39.07z"/>
<path d="M83.64,52.79l-2.86,2.84l1.81-3.55L83.64,52.79z"/>
</g>
<g id="Top_Right-Chest_Gunslinger-MK1" fill="#1C0236">
<path d="M81.54,21.15v4.61l-3.09,6.79l4.13,8.85l0,10.68L62.61,40.9l1.63-19.75H81.54z"/>
<path d="M62.61,40.9l-3.65-1.82l1.4-19.6l3.89,1.68L62.61,40.9z"/>
<path d="M83.2,19.26l-22.84,0.22l3.89,1.68h17.3L83.2,19.26z"/>
<path d="M83.2,19.26v6.43l-1.66,0.07v-4.61L83.2,19.26z"/>
<path d="M79.65,32.65l-1.19-0.11l3.09-6.79l1.66-0.07L79.65,32.65z"/>
<path d="M83.64,40.9l-1.05,0.5l-4.13-8.85l1.19,0.11L83.64,40.9z"/>
<path d="M82.59,52.08l1.05,0.71V40.9l-1.05,0.5V52.08z"/>
</g>
</g>
<g id="Iron-Heart_Gunslinger-MK1">
<path id="Under-Heart_Gunslinger-MK1" d="M64.97,56.96l-0.79-1.34h16.53l2.86-2.84V40.9l-3.99-8.25l3.56-6.96 v-5.55h3.74v5.55l3.56,6.96l-3.99,8.25v11.89l2.86,2.84h16.53l-0.79,1.34H64.97z" fill="#B8B8B8"/>
<g id="Heart_Gunslinger-MK1" fill="#590FA9">
<path d="M84.12,39.77l-3.46-7.03l3-5.77h2.69l3,5.77l-3.46,7.03H84.12z"/>
<path d="M84.42,39.24l-3.15-6.41l2.74-5.29l2,0.02l2.73,5.26l-3.16,6.42L84.42,39.24z"/>
</g><rect id="Center_Heart_Gunslinger-MK1" class="option" x="84.56" y="29.39" width="0.88" height="9.86" fill="#1C0236"/>
</g>
</g></g>
<g id="ChestDecals" mask="url(#ChestMask)">
<use class="decal" href="#Stripe-2" id="Stripe-2__18" serif:id="Stripe 2" fill="#590FA9" transform="translate(99, 28) rotate(0) scale(0.21, 0.53) translate(-50, -50)"/><use class="decal" href="#Stripe-2" id="Stripe-2__9" serif:id="Stripe 2" fill="#590FA9" transform="translate(86, 61) rotate(90) scale(0.09, 0.58) translate(-50, -50)"/><use class="decal" href="#True-Mandalorians" id="True-Mandalorians__51" serif:id="True Mandalorians" fill="#FFFFFF" transform="translate(69, 35) rotate(0) scale(0.22, 0.24) translate(-50, -50)"/></g>
<g id="Chest-Attachments"><g id="No-Device_Accessories_Chest" class="option">
</g>
</g>
<g id="Collar"><g id="Cloth-Wrap-Right_Collar" class="option">
<g id="Main_Cloth-Wrap-Right_Collar" fill="#131313">
<path d="M95.41,21.42c4.65-1.45,5.5-3.78,5.78-6.13c0.11-0.96-1.26-3.46,0.16-4.1c1.61-0.73,5.4,0.41,6.97,0.75 c1.16,0.25,2.19,1.42,3.38,1.43c2.74,0.03,4.91,3,5.16,4.36c0.35,1.9-3.04,0.56-4.62,2c-3.96,3.61-5.34,8.5-13.67,9.83 c-3.82,0.61-7.61-0.25-11.16-1.04c-9.17-2.03-14.17-3.78-20.06-8.31c-2.58-1.98-6.47-3.59-6.37-6.24c0-0.11,1.88-1.22,2.06-1.27 c1.65-0.41,3.06-1.09,4.88-1.12c1.09-0.02,0.91,0.91,0.99,1.34c0.31,1.62,1.79,2.84,3.66,4.05 C77.47,20.18,88.67,21.17,95.41,21.42z"/>
<path d="M95.41,21.42c1.23,0.05,2.31,0.24,3.25,0.29c4.26,0.26,5.78-0.77,6.6-2.66"/>
<path d="M108.64,11.99c1.23,1.99,1.07,4.34,0.09,5.89"/>
<path d="M72.93,17.68c3.19,4.34,7.92,5.71,13.09,6.23"/>
<path d="M64.3,12.34c0.19,1.1,0.85,1.51,1.66,2.24c0.47,0.43,1.04,0.73,1.41,1.25c0.14,0.19,0.21,0.41,0.29,0.62"/>
</g>
<path id="Buckle_Cloth-Wrap-Right_Collar" d="M74.02,16.86l-2.71-1.93l-4.71,6.53l2.71,1.93L74.02,16.86z" fill="#323232"/>
</g></g>
<g id="CollarDecals" mask="url(#CollarMask)">
</g>
<g id="Helmets" class="swappable" transform="translate(45,-62)"><g id="Helmet_Classic">
<g id="Left-Earcap_Classic" class="toggle">
<g id="Sub-Antenna_Left_Classic" class="option" style="">
<g id="Shaft_Sub-Antenna_Left_Classic" fill="#A8A8A8">
<path d="m59.98 45.63-.19-22.76h-.52l-.19 22.76h.9z"/>
<path d="m60.02 24.91-.2-1.41h-.56l-.2 1.41h.96z"/>
</g>
<g id="Base_Sub-Antenna_Left_Classic" fill="#590FA9">
<path d="M58.09 45.63h2.88s.61 7.53-1.42 7.53-1.46-7.53-1.46-7.53zM60.31 45.62l-.33-.64h-.9l-.33.64h1.56z"/>
</g>
</g>
<g id="Main-Antenna_Left_Classic" class="option" style="">
<path id="Shaft_Main-Antenna_Left_Classic" d="m61.34 42.8-.26-25.04s.01-.66-.36-.66-.36.66-.36.66L60.1 42.8h1.24z" fill="#A8A8A8"/>
<g id="Base_Main-Antenna_Left_Classic" fill="#1C0236">
<path d="M58.91 46.75h3.59s.77 8.43-1.77 8.43-1.82-8.43-1.82-8.43zM59.46 46.33h2.51v.41h-2.51zM62.16 46.33l-.61-3.53-.84.01-.84-.01-.61 3.53h2.9z"/>
<path d="M60.52 43.41h.4v2.47h-.4zM59.79 43.32l.4.06-.39 2.44-.4-.06.39-2.44zM61.65 43.32l-.4.06.39 2.44.4-.06-.39-2.44z"/>
</g>
</g><path id="Ear-Cap_Left_Classic" d="m60.03 67.18 1.74-2.57-1.74-17.81-2.43-1.53 2.43 21.91z" fill="#590FA9"/>
</g>
<g id="Right-Earcap_Classic" class="toggle">
<g id="Sub-Antenna_Right_Classic" class="option" style="">
<g id="Shaft_Sub-Antenna_Right_Classic" fill="#A8A8A8">
<path d="m20.02 45.63.19-22.76h.52l.19 22.76h-.9z"/>
<path d="m19.98 24.91.2-1.41h.56l.2 1.41h-.96z"/>
</g>
<g id="Base_Sub-Antenna_Right_Classic" fill="#590FA9">
<path d="M21.91 45.63h-2.88s-.61 7.53 1.42 7.53 1.46-7.53 1.46-7.53zM19.69 45.62l.33-.64h.9l.33.64h-1.56z"/>
</g>
</g>
<g id="Main-Antenna_Right_Classic" class="option" style="">
<path id="Shaft_Main-Antenna_Right_Classic" d="m18.66 42.8.26-25.04s-.01-.66.36-.66.36.66.36.66l.26 25.04h-1.24z" fill="#A8A8A8"/>
<g id="Base_Main-Antenna_Right_Classic" fill="#1C0236">
<path d="M21.09 46.75H17.5s-.77 8.43 1.77 8.43 1.82-8.43 1.82-8.43zM18.03 46.33h2.51v.41h-2.51zM17.84 46.33l.61-3.53.84.01.84-.01.61 3.53h-2.9z"/>
<path d="M19.08 43.41h.4v2.47h-.4zM20.21 43.32l-.4.06.39 2.44.4-.06-.39-2.44zM18.35 43.32l.4.06-.39 2.44-.4-.06.39-2.44z"/>
</g>
</g><path id="Ear-Cap_Right_Classic" d="m19.97 67.18-1.74-2.57 1.74-17.81 2.43-1.53-2.43 21.91z" fill="#590FA9"/>
</g>
<g id="Helmet_Pieces_Classic">
<g id="Face_Classic" fill="#1C0236">
<path d="M22.24 68.73s.61-4.18 1.53-6.26c.94-2.11 2.73-4.44 4.76-4.08 1.62.29 4.83 7.94 5.07 17.33-.16-.15-11.36-6.99-11.36-6.99zM57.74 68.73s-.61-4.18-1.53-6.26c-.94-2.11-2.73-4.44-4.76-4.08-1.62.29-4.84 7.94-5.07 17.33.15-.15 11.36-6.99 11.36-6.99z"/>
</g>
<g id="Cheeks_Classic" fill="#E2E2E2">
<path d="M22.24 68.73v.1l-2.44-.19 1.76-16.29c.61.19 5.65 1.77 7.36 3.35 1.82 1.69 3.01 4.31 3.59 6.77.63 2.68.95 9.62 1.05 12.23-.43-8.92-3.47-16.03-5.03-16.31-2.03-.36-3.82 1.97-4.76 4.08-.92 2.08-1.53 6.26-1.53 6.26zM46.42 74.7c.1-2.61.43-9.55 1.06-12.23.58-2.46 1.77-5.08 3.59-6.77 1.68-1.57 6.63-3.12 7.36-3.35l1.76 16.28-2.44.19v-.1s-.61-4.18-1.53-6.26c-.94-2.11-2.73-4.44-4.76-4.08-1.58.29-4.61 7.4-5.04 16.32z"/>
</g>
<path id="Eyes_Classic" d="M46.38 75.72H33.6s-.31-9.91-1.09-13.25c-.58-2.46-1.77-5.08-3.59-6.77-1.82-1.69-7.33-3.37-7.33-3.37l.65-6.29s5.69.74 8.55.92c2.69.17 8.13.21 9.2.22 1.07-.01 6.51-.05 9.2-.22 2.86-.18 8.55-.92 8.55-.92l.65 6.29s-5.51 1.68-7.33 3.37c-1.82 1.69-3.01 4.31-3.59 6.77-.78 3.33-1.09 13.23-1.09 13.25z" fill="#590FA9"/>
<g fill="#000000" id="Visors_Classic"><path fill="#000000" id="Basic_Visor_Classic" class="option" d="M43.42 75.72h-6.87V52.33s-3.82-.35-5.67-.78c-2.26-.52-7.89-2.33-7.89-2.33l.08-1.31s5.19.89 7.81 1.17c2.57.27 6.07.65 9.11.65s6.54-.37 9.11-.65c2.62-.28 7.81-1.17 7.81-1.17l.08 1.31s-5.63 1.81-7.89 2.33c-1.86.42-5.67.78-5.67.78v23.39z"/>
</g>
<path id="Dome_Classic" d="M22.24 46.05v-.12c.06-9.28 7.88-16.81 17.57-17h.38c9.69.19 17.5 7.72 17.56 17v.12c-.75.1-5.9.74-8.55.91-2.69.17-8.13.21-9.2.22-1.07-.01-6.51-.05-9.2-.22-2.66-.17-7.81-.81-8.56-.91z" fill="#1C0236"/>
</g>
</g></g>
<g id="HelmetsDecals" mask="url(#HelmetsMask)"><use class="decal" href="#Square" id="Square__1" fill="#590FA9" transform="translate(85, -7) rotate(0) scale(0.08, 0.03) translate(-50, -50)"/><use class="decal" href="#Jaig-Eyes" id="Jaig-Eyes__5" serif:id="Jaig Eyes" fill="#F3F3F3" transform="translate(85, -22) rotate(0) scale(0.28, 0.24) translate(-50, -50)"/><use class="decal" href="#Triangle" id="Triangle__7" fill="#590FA9" transform="translate(85, -30) rotate(-180) scale(0.28, 0.26) translate(-50, -50)"/><use class="decal" href="#Square" id="Square__50" fill="#590FA9" transform="translate(85, -8) rotate(0) scale(0.08, 0.03) translate(-50, -50)"/></g>
<g id="Shoulders">
<g id="Left-Shoulder"><g id="Classic_Shoulder_Left" class="option">
<path id="Main_Shoulder_Classic_Left" d="M115.19,13.78l-2.62,11.77l2.09,6.77l14.01,7.05l2.36-3.6L115.19,13.78z" fill="#590FA9"/>
<path id="Trauma-Plates_Shoulder_Classic_Left" class="toggle" style="" d="M114.4,25.47l1.74,5.62l11.93,6l2.02-3.08 l-13.43-18.68L114.4,25.47z" fill="#1C0236"/>
</g>
</g>
<g id="Right-Shoulder"><g id="Classic_Shoulder_Right" class="option">
<path id="Main_Shoulder_Classic_Right" d="M54.88,13.78l2.62,11.77l-2.09,6.77l-14.01,7.05l-2.36-3.6L54.88,13.78z " fill="#590FA9"/>
<path id="Trauma-Plates_Shoulder_Classic_Right" class="toggle" style="" d="M55.67,25.47l-1.74,5.62l-11.93,6l-2.02-3.08 l13.43-18.68L55.67,25.47z" fill="#1C0236"/>
</g>
</g>
</g>
<g id="ShouldersDecals" mask="url(#ShouldersMask)">
<use class="decal" href="#Rebels" id="Rebels__20" fill="#E2E2E2" transform="translate(123, 25) rotate(-31) scale(0.13, 0.15) translate(-50, -50)"/></g>
<g id="Gauntlets">
<g id="Left-Gauntlets"><g id="Heavy_Gauntlet_Left" class="option">
<g id="Top-2_Heavy_Gauntlet_Left" fill="#590FA9">
<path d="M138.59,76.62l1.79,0.28l0.78,8.51l-1.63,1.15L138.59,76.62z"/>
<path d="M139.46,85.82l0.98,11.09l-1.1,1.25l0.62,6.53l-0.49,0.3l-1.72-17.87L139.46,85.82z"/>
<path d="M139.73,82.71c0.22,0.02,0.38,0.21,0.36,0.42c-0.02,0.21-0.21,0.37-0.42,0.36 c-0.22-0.02-0.38-0.21-0.36-0.42C139.33,82.85,139.52,82.69,139.73,82.71z"/>
</g>
<g id="Top-1_Heavy_Gauntlet_Left" fill="#1C0236">
<path d="M134.86,105.83l4.61-0.85l-1.72-17.87l1.71-1.29l-0.92-9.74l-6.76-1.25L134.86,105.83z"/>
<path d="M136.79,75.76l0.96,11.35"/>
</g>
<g id="Accent-Top_Heavy_Gauntlet_Left" fill="#E2E2E2">
<path d="M138.4,102.17l-2.92,0.35l0.25,2.26l2.93-0.44L138.4,102.17z"/>
<path d="M137.36,92.7l-2.92,0.35l0.96,8.83l2.92-0.35L137.36,92.7z"/>
<path d="M136.12,76.34l-3.22-0.51l0.91,9.67l3.06-0.36L136.12,76.34z"/>
</g>
<path id="Bottom_Heavy_Gauntlet_Left" d="M131.82,75.29c-3.5-0.15-7.25,1.05-9.76,3.79 c-0.81,0.89-1.14,2.11-0.88,3.29c1.24,5.67,5.3,24.23,5.3,24.23l8.38-0.76L131.82,75.29z" fill="#1C0236"/>
<g id="Accent-Bottom_Heavy_Gauntlet_Left" fill="#590FA9">
<path d="M134.86,105.83l-8.38,0.76l-0.33-1.5l8.54-0.89L134.86,105.83z"/>
<path d="M132.02,77.36c-4.54,0.08-8.44,1.41-10.6,6.11l-0.24-1.11c-0.2-0.92-0.04-1.88,0.43-2.68l0.48-0.64 c2.51-2.72,6.24-3.91,9.72-3.75L132.02,77.36z"/>
<path d="M130.96,75.89l-3.7,0.42l1.68,14.61l3.7-0.42L130.96,75.89z"/>
<path d="M130.51,76.22l-2.73,0.31l1.55,13.51l2.73-0.31L130.51,76.22z"/>
<path d="M127.78,76.53l-0.52-0.22"/>
<path d="M130.96,75.89l-0.46,0.33"/>
<path d="M132.64,90.5l-0.58-0.77"/>
<path d="M128.95,90.92l0.46-0.89"/>
</g>
<g id="Whistling-Birds_Attachment_Heavy_Gauntlet_Left" class="option">
<path id="Head_Whistling-Birds_Attachment_Heavy_Gauntlet_Left" d="M143.13,91.37l-2.68,5.55l-0.48-5.26 L143.13,91.37z" fill="#202020"/>
<g id="Birds_Whistling-Birds_Attachment_Heavy_Gauntlet_Left" fill="#FF0000">
<g>
<path d="M140.52,91.99c0.12-0.01,0.25,0.25,0.28,0.58c0.03,0.33-0.05,0.61-0.17,0.62 c-0.12,0.01-0.25-0.25-0.28-0.58S140.4,92,140.52,91.99z"/>
<path d="M140.68,93.67c0.12-0.01,0.25,0.25,0.28,0.58c0.03,0.33-0.05,0.61-0.17,0.62 c-0.12,0.01-0.25-0.25-0.28-0.58C140.48,93.95,140.55,93.68,140.68,93.67z"/>
<path d="M141.38,91.91c0.12-0.01,0.25,0.25,0.28,0.58c0.03,0.33-0.05,0.61-0.17,0.62 c-0.12,0.01-0.25-0.25-0.28-0.58C141.18,92.2,141.26,91.92,141.38,91.91z"/>
<path d="M140.74,96.32c-0.04-0.1-0.07-0.22-0.08-0.36c-0.03-0.33,0.05-0.61,0.17-0.62 c0.09-0.01,0.18,0.12,0.23,0.31L140.74,96.32z M141.52,94.71c-0.07-0.1-0.13-0.28-0.15-0.5c-0.03-0.33,0.05-0.61,0.17-0.62 c0.12-0.01,0.24,0.22,0.27,0.52L141.52,94.71z M142.33,93.03c-0.12-0.01-0.23-0.26-0.26-0.58c-0.03-0.33,0.05-0.61,0.17-0.62 c0.12-0.01,0.25,0.25,0.28,0.58c0.01,0.08,0.01,0.15,0,0.22L142.33,93.03z"/>
</g>
</g>
<g id="Base_Whistling-Birds_Attachment_Heavy_Gauntlet_Left" fill="#1C0236">
<path d="M141.49,75.5l-2.13,0.19l0.09,0.93l2.13-0.19L141.49,75.5z"/>
<path d="M141.77,76.42l-2.32,0.21l1.37,14.95l2.32-0.21L141.77,76.42z"/>
<path d="M142.09,76.55l-0.31,0.03l1.18,12.91l0.3-0.03L142.09,76.55z"/>
<path d="M141.39,76.45l-0.3,0.03l1.28,14.02l0.31-0.03L141.39,76.45z"/>
</g>
<g id="Accent_Whistling-Birds_Attachment_Heavy_Gauntlet_Left" fill="#590FA9">
<path d="M139.34,75.46l-0.85,0.08l1.39,15.18l0.85-0.08L139.34,75.46z"/>
<path d="M143.22,90.42l-3.34,0.3l0.09,0.93l3.34-0.3L143.22,90.42z"/>
<path d="M140.76,75.57l-1.4,0.13l0.2,2.18l1.39-0.13L140.76,75.57z"/>
<path d="M140.62,77.78l-1.06,0.1l0.47,5.18l0.88-2.04L140.62,77.78z"/>
</g>
</g></g></g>
<g id="Right-Gauntlets"><g id="Heavy_Gauntlet_Right" class="option">
<g id="Top-2_Heavy_Gauntlet_Right" fill="#590FA9">
<path d="M31.48,76.62l-1.79,0.28l-0.78,8.51l1.63,1.15L31.48,76.62z"/>
<path d="M30.61,85.82l-0.98,11.09l1.1,1.25l-0.62,6.53l0.49,0.3l1.72-17.87L30.61,85.82z"/>
<path d="M30.33,82.71c-0.22,0.02-0.38,0.21-0.36,0.42c0.02,0.21,0.21,0.37,0.42,0.36c0.22-0.02,0.38-0.21,0.36-0.42 C30.74,82.85,30.55,82.69,30.33,82.71z"/>
</g>
<g id="Top-1_Heavy_Gauntlet_Right" fill="#1C0236">
<path d="M35.21,105.83l-4.61-0.85l1.72-17.87l-1.71-1.29l0.92-9.74l6.77-1.25L35.21,105.83z"/>
<path d="M33.28,75.76l-0.96,11.35"/>
</g>
<g id="Accent-Top_Heavy_Gauntlet_Right" fill="#E2E2E2">
<path d="M31.67,102.17l2.92,0.35l-0.25,2.26l-2.93-0.44L31.67,102.17z"/>
<path d="M32.71,92.7l2.92,0.35l-0.96,8.83l-2.92-0.35L32.71,92.7z"/>
<path d="M33.94,76.34l3.22-0.51l-0.91,9.67l-3.06-0.36L33.94,76.34z"/>
</g>
<path id="Bottom_Heavy_Gauntlet_Right" d="M38.25,75.29c3.5-0.15,7.25,1.05,9.76,3.79 c0.81,0.89,1.14,2.11,0.88,3.29c-1.24,5.67-5.3,24.23-5.3,24.23l-8.38-0.76L38.25,75.29z" fill="#1C0236"/>
<g id="Accent-Bottom_Heavy_Gauntlet_Right" fill="#590FA9">
<path d="M35.21,105.83l8.38,0.76l0.33-1.5l-8.54-0.89L35.21,105.83z"/>
<path d="M38.04,77.36c4.54,0.08,8.44,1.41,10.6,6.11l0.24-1.11c0.2-0.92,0.04-1.88-0.43-2.68l-0.48-0.64 c-2.51-2.72-6.24-3.91-9.72-3.75L38.04,77.36z"/>
<path d="M39.1,75.89l3.7,0.42l-1.68,14.61l-3.7-0.42L39.1,75.89z"/>
<path d="M39.56,76.22l2.73,0.31l-1.55,13.51L38,89.73L39.56,76.22z"/>
<path d="M42.28,76.53l0.52-0.22"/>
<path d="M39.1,75.89l0.46,0.33"/>
<path d="M37.42,90.5L38,89.73"/>
<path d="M41.12,90.92l-0.46-0.89"/>
</g>
<g id="Whistling-Birds_Attachment_Heavy_Gauntlet_Right" class="option">
<path id="Head_Whistling-Birds_Attachment_Heavy_Gauntlet_Right" d="M26.93,91.37l2.69,5.55l0.48-5.26 L26.93,91.37z" fill="#202020"/>
<g id="Birds_Whistling-Birds_Attachment_Heavy_Gauntlet_Right" fill="#FF0000">
<g>
<path d="M29.54,91.99c-0.12-0.01-0.25,0.25-0.28,0.58c-0.03,0.33,0.05,0.61,0.17,0.62 c0.12,0.01,0.25-0.25,0.28-0.58C29.74,92.28,29.67,92,29.54,91.99z"/>
<path d="M29.39,93.67c-0.12-0.01-0.25,0.25-0.28,0.58c-0.03,0.33,0.05,0.61,0.17,0.62 c0.12,0.01,0.25-0.25,0.28-0.58C29.59,93.95,29.51,93.68,29.39,93.67z"/>
<path d="M28.68,91.91c-0.12-0.01-0.25,0.25-0.28,0.58c-0.03,0.33,0.05,0.61,0.17,0.62 c0.12,0.01,0.25-0.25,0.28-0.58C28.89,92.2,28.81,91.92,28.68,91.91z"/>
<path d="M29.33,96.32c0.04-0.1,0.07-0.22,0.08-0.36c0.03-0.33-0.05-0.61-0.17-0.62 c-0.09-0.01-0.17,0.12-0.23,0.31L29.33,96.32z M28.55,94.71c0.07-0.1,0.13-0.28,0.15-0.5c0.03-0.33-0.05-0.61-0.17-0.62 c-0.12-0.01-0.23,0.22-0.27,0.52L28.55,94.71z M27.74,93.03c0.12-0.01,0.23-0.26,0.26-0.58c0.03-0.33-0.05-0.61-0.17-0.62 c-0.12-0.01-0.25,0.25-0.28,0.58c-0.01,0.08-0.01,0.15,0,0.22L27.74,93.03z"/>
</g>
</g>
<g id="Base_Whistling-Birds_Attachment_Heavy_Gauntlet_Right" fill="#1C0236">
<path d="M28.58,75.5l2.12,0.19l-0.08,0.93l-2.12-0.19L28.58,75.5z"/>
<path d="M28.3,76.42l2.32,0.21l-1.37,14.95l-2.32-0.21L28.3,76.42z"/>
<path d="M27.98,76.55l0.31,0.03L27.1,89.49l-0.31-0.03L27.98,76.55z"/>
<path d="M28.68,76.45l0.31,0.03L27.7,90.5l-0.31-0.03L28.68,76.45z"/>
</g>
<g id="Accent_Whistling-Birds_Attachment_Heavy_Gauntlet_Right" fill="#590FA9">
<path d="M30.73,75.46l0.84,0.08l-1.39,15.18l-0.85-0.08L30.73,75.46z"/>
<path d="M26.85,90.42l3.34,0.3l-0.09,0.93l-3.34-0.3L26.85,90.42z"/>
<path d="M29.31,75.57l1.39,0.13l-0.2,2.18l-1.4-0.13L29.31,75.57z"/>
<path d="M29.44,77.78l1.06,0.1l-0.47,5.18l-0.89-2.04L29.44,77.78z"/>
</g>
</g></g></g>
</g>
<g id="GauntletsDecals" mask="url(#GauntletsMask)">
</g>
<g id="Shins">
<g id="Left-Shin"><g id="Full_Shin_Left" class="option">
<path id="Shin_Full-Shin_Left" d="M103.34,173.15c11.54-2.49,19.03-0.14,19.03-0.14l2.15,44.16 c0,0-4.54,0.98-9.41,0.86c-3.57-0.08-9.24-1.5-9.24-1.5l-6.18-37.76C99.69,178.77,103.49,178.13,103.34,173.15" fill="#0B0016"/>
<g id="Accent_Full-Shin_Left" class="toggle" fill="#121212">
<path d="M100.4,182.9l6.35-0.45l0.33,1.66l-6.39,0.45L100.4,182.9"/>
<path d="M100.8,185.22l4.34-0.31l0.33,1.66l-4.38,0.32L100.8,185.22"/>
</g>
<g id="Ridge_Full-Shin_Left" class="toggle" fill="#1C0236">
<path d="M118.47,171.86l-4.06-0.51l-4.21,0.35l6.03,46.34c2.03,0.09,3.54-0.11,5.88-0.46L118.47,171.86"/>
<path d="M114.41,171.35l5.07,46.58"/>
</g>
</g></g>
<g id="Right-Shin"><g id="Full_Shin_Right" class="option">
<path id="Shin_Full-Shin_Right" d="M66.64,173.15c-11.54-2.49-19.03-0.14-19.03-0.14l-2.16,44.16 c0,0,4.54,0.98,9.41,0.86c3.57-0.08,9.24-1.5,9.24-1.5l6.19-37.76C70.29,178.77,66.49,178.13,66.64,173.15" fill="#0B0016"/>
<g id="Accent_Full-Shin_Right" class="toggle" fill="#121212">
<path d="M69.58,182.91l-6.35-0.45l-0.33,1.66l6.39,0.45L69.58,182.91"/>
<path d="M69.18,185.22l-4.34-0.31l-0.33,1.66l4.38,0.32L69.18,185.22"/>
</g>
<g id="Ridge_Full-Shin_Right" class="toggle" fill="#1C0236">
<path d="M51.51,171.86l4.06-0.51l4.21,0.35l-6.03,46.33c-2.03,0.08-3.54-0.11-5.88-0.46L51.51,171.86"/>
<path d="M55.57,171.35l-5.07,46.58"/>
</g>
</g></g>
</g>
<g id="ShinsDecals" mask="url(#ShinsMask)">
</g>
<g id="Foot">
<g id="Left-Ankle"><g id="Heavy_Ankle_Left" class="option">
<path id="Plate_Heavy-Ankle_Left" d="M107.71,219.76l0.31,3.13l6.46,8.04l6.29-2.82l6.85-1.76l-5.17-9.15 c-2.61-0.36-5.65-0.05-9.17,1l-1.95,1.71L107.71,219.76" fill="#590FA9"/>
<path id="Trim_Heavy-Ankle_Left" d="M113.28,218.22l0.74,0.89l-2.3,1.95l-2.61-0.11l0.09,1.27l5.6,6.88l5.61-2.61 l6.76-1.6l0.7,1.41l-7.09,1.83l-6.29,2.82l-6.46-8.04l-0.31-3.13l3.61,0.16L113.28,218.22" fill="#1C0236"/>
</g></g>
<g id="Left-Toe"><g id="Spikes_Toe_Left" class="option" fill="#590FA9">
<path d="M129.45,239.91c3.23-0.56,6.5-1.35,9.8-2.35c0.03-0.01,0.07,0,0.1,0.02c0.03,0.02,0.04,0.05,0.05,0.09 c0,0.18,0.01,0.52,0.02,0.86c0.02,0.62-0.35,1.19-0.93,1.43c-1.96,0.75-4.3,1.31-6.94,1.71c-0.51,0.08-1.04-0.07-1.44-0.4 C129.71,240.91,129.47,240.43,129.45,239.91C129.45,239.91,129.45,239.91,129.45,239.91"/>
<path d="M134.47,241.93c0,0-2.92-0.33-4.02-0.45c-0.33-0.04-0.58-0.34-0.55-0.67c0.09-0.63,0.52-0.93,1.35-0.87 c0.11,0.01,0.21,0.04,0.3,0.1C132.08,240.36,134.47,241.93,134.47,241.93"/>
<path d="M141.77,239.8c0,0-2.55-0.22-3.57-0.31c-0.18-0.01-0.35-0.11-0.45-0.26c-0.1-0.15-0.13-0.34-0.08-0.52 c0.18-0.36,0.52-0.54,1.1-0.5c0.1,0,0.19,0.03,0.28,0.08C139.49,238.51,141.77,239.8,141.77,239.8"/>
</g></g>
<g id="Right-Ankle"><g id="Heavy_Ankle_Right" class="option">
<path id="Plate_Heavy-Ankle_Right" d="M62.35,219.76l-0.31,3.13l-6.46,8.04l-6.29-2.82l-6.85-1.76l5.17-9.15 c2.61-0.36,5.65-0.05,9.17,1l1.95,1.71L62.35,219.76" fill="#590FA9"/>
<path id="Trim_Heavy-Ankle_Right" d="M56.78,218.22l-0.74,0.89l2.3,1.95l2.61-0.11l-0.09,1.27l-5.6,6.88 l-5.62-2.61l-6.76-1.6l-0.7,1.41l7.1,1.83l6.29,2.82l6.46-8.04l0.31-3.13l-3.61,0.16L56.78,218.22" fill="#1C0236"/>
</g></g>
<g id="Right-Toe"><g id="Spikes_Toe_Right" class="option" fill="#590FA9">
<path d="M40.55,239.91c-2.97-0.51-5.96-1.22-8.98-2.11c-0.23-0.07-0.48-0.02-0.67,0.12 c-0.19,0.14-0.31,0.36-0.32,0.6c0,0,0,0,0,0c-0.02,0.62,0.35,1.19,0.93,1.43c1.96,0.75,4.3,1.31,6.94,1.71 c0.51,0.08,1.04-0.07,1.44-0.4C40.29,240.91,40.53,240.43,40.55,239.91C40.55,239.91,40.55,239.91,40.55,239.91"/>
<path d="M35.53,241.93c0,0,2.92-0.33,4.02-0.45c0.33-0.04,0.58-0.34,0.55-0.67c-0.09-0.63-0.52-0.93-1.35-0.87 c-0.11,0.01-0.21,0.04-0.3,0.1C37.92,240.36,35.53,241.93,35.53,241.93"/>
<path d="M28.23,239.8c0,0,2.55-0.22,3.57-0.31c0.18-0.01,0.35-0.11,0.45-0.26c0.1-0.15,0.13-0.34,0.08-0.52 c-0.18-0.36-0.52-0.54-1.1-0.5c-0.1,0-0.19,0.03-0.28,0.08C30.51,238.51,28.23,239.8,28.23,239.8"/>
</g></g>
</g>
<g id="FootDecals" mask="url(#FootMask)">
</g>
<g id="Knees">
<g id="Left-Knee"><g id="Basic_Knee_Left" class="option">
<g id="Missiles_Basic-Knee_Left" class="toggle" style="">
<path id="Base_Missiles_Basic-Knee_Left" d="M119.65,156.53c0.01,0.04,0.02,0.09,0.02,0.13 c0.2,2.01,0.56,6.29,0.42,9.97l2.39-1.43c0.39-0.23,0.62-0.65,0.61-1.1c-0.03-1.37-0.1-4.35-0.13-5.91 c-0.01-0.59-0.44-1.09-1.02-1.21L119.65,156.53z" fill="#1C0236"/>
<g id="Missile-2_Missiles_Basic-Knee_Left" fill="#7D7D7D">
<path d="M121.33,162.29c-0.59,0.07-1.01,0.6-0.93,1.19c0.07,0.59,0.62,1.01,1.21,0.94 c0.59-0.07,1.01-0.61,0.93-1.19C122.46,162.64,121.92,162.22,121.33,162.29z"/>
<path d="M121.39,162.64c-0.4,0.05-0.68,0.41-0.63,0.8c0.05,0.39,0.42,0.68,0.81,0.63c0.4-0.05,0.68-0.41,0.63-0.8 C122.15,162.88,121.78,162.6,121.39,162.64z"/>
</g>
<g id="Missile-1_Missiles_Basic-Knee_Left" fill="#7D7D7D">
<path d="M121.19,157.64c-0.59,0.07-1.01,0.6-0.93,1.19c0.07,0.59,0.62,1.01,1.21,0.94 c0.59-0.07,1.01-0.61,0.93-1.19C122.33,157.99,121.79,157.57,121.19,157.64z"/>
<path d="M121.25,157.99c-0.4,0.05-0.68,0.41-0.63,0.8c0.05,0.4,0.41,0.68,0.81,0.63c0.4-0.05,0.68-0.41,0.63-0.8 C122.01,158.22,121.65,157.94,121.25,157.99z"/>
</g>
</g>
<g id="Knee_Basic-Knee_Left" fill="#590FA9">
<path d="M97.4,158.73l1.49-0.24c0,0,1.12,7.19,1.62,10.38c0.13,0.82-0.43,1.6-1.25,1.73h0L97.4,158.73z"/>
<path d="M98.84,158.2l0.85,5.33c1.09-0.61,3.84,0.51,4.74,3.72c1.65,5.89,3.08,7.24,8.25,6.71 c4.02-0.41,6.89-2.29,7.22-5.05c0.49-4.07-0.01-9.98-0.26-12.36c-0.03-0.27-0.17-0.52-0.38-0.7c-0.22-0.17-0.49-0.25-0.77-0.21 C114.3,156.18,98.84,158.2,98.84,158.2z"/>
<path d="M98.33,158.27l0.51-0.08l0.95,5.77l-0.51,0.08L98.33,158.27z"/>
</g>
</g>
</g>
<g id="Right-Knee"><g id="Basic_Knee_Right" class="option">
<g id="Missiles_Basic-Knee_Right" class="toggle" style="">
<path id="Base_Missiles_Basic-Knee_Right" d="M50.35,156.53c-0.01,0.04-0.02,0.09-0.02,0.13 c-0.2,2.01-0.56,6.29-0.42,9.97l-2.39-1.43c-0.39-0.23-0.62-0.65-0.61-1.1c0.03-1.37,0.1-4.35,0.13-5.91 c0.01-0.59,0.44-1.09,1.02-1.21L50.35,156.53z" fill="#1C0236"/>
<g id="Missile-2_Missiles_Basic-Knee_Right" fill="#7D7D7D">
<path d="M48.67,162.29c0.59,0.07,1.01,0.6,0.93,1.19c-0.08,0.59-0.62,1.01-1.21,0.94 c-0.59-0.07-1.01-0.61-0.93-1.19C47.54,162.64,48.08,162.22,48.67,162.29z"/>
<path d="M48.62,162.64c0.4,0.05,0.68,0.41,0.63,0.8c-0.05,0.39-0.42,0.68-0.81,0.63c-0.4-0.05-0.68-0.41-0.63-0.8 C47.85,162.88,48.22,162.6,48.62,162.64z"/>
</g>
<g id="Missile-1_Missiles_Basic-Knee_Right" fill="#7D7D7D">
<path d="M48.81,157.64c0.59,0.07,1.01,0.6,0.93,1.19c-0.08,0.59-0.62,1.01-1.21,0.94 c-0.59-0.07-1.01-0.61-0.93-1.19C47.67,157.99,48.21,157.57,48.81,157.64z"/>
<path d="M48.75,157.99c0.4,0.05,0.68,0.41,0.63,0.8c-0.05,0.4-0.42,0.68-0.81,0.63c-0.4-0.05-0.68-0.41-0.63-0.8 C47.99,158.22,48.35,157.94,48.75,157.99z"/>
</g>
</g>
<g id="Knee_Basic-Knee_Right" fill="#590FA9">
<path d="M72.6,158.73l-1.49-0.24c0,0-1.12,7.19-1.62,10.38c-0.13,0.82,0.43,1.6,1.25,1.73h0L72.6,158.73z"/>
<path d="M71.16,158.2l-0.85,5.33c-1.09-0.61-3.84,0.51-4.74,3.72c-1.65,5.89-3.08,7.24-8.25,6.71 c-4.02-0.41-6.89-2.29-7.22-5.05c-0.49-4.07,0.01-9.98,0.26-12.36c0.03-0.27,0.17-0.52,0.38-0.7c0.22-0.17,0.49-0.25,0.77-0.21 C55.7,156.18,71.16,158.2,71.16,158.2z"/>
<path d="M71.67,158.27l-0.51-0.08l-0.95,5.77l0.51,0.08L71.67,158.27z"/>
</g>
</g>
</g>
</g>
<g id="KneesDecals" mask="url(#KneesMask)">
</g>
<g id="Thighs">
<g id="Left-Thigh"><g id="Basic_Thigh_Left" class="option">
<path id="Thigh_Basic-Thigh_Left" d="M119.66,114.13c0,0-5.22-6.67-7.89-7.78c-2.53-1.05-5.91-0.6-8.08,1.13 c-3.31,2.64-10.92,8.35-11.78,14.71c-0.96,7.1,4.24,22.8,6,27.87c0.6,1.72,2.87,2.51,4.61,2.57c3.22,0.12,12.01-0.15,14.11-4.87 C119.49,141.34,119.66,114.13,119.66,114.13" fill="#E2E2E2"/>
<path id="Trauma-Plate_Basic-Thigh_Left" class="toggle" style="" d="M117.89,114.74c-0.78-0.97-2.65-3.22-4.46-4.95 c-0.86-0.82-1.68-1.54-2.34-1.82c-1.97-0.82-4.61-0.47-6.3,0.88c-1.92,1.53-5.35,4.12-7.95,7.29c-1.58,1.92-2.88,4.05-3.18,6.29 c-0.94,6.9,4.2,22.13,5.92,27.06c0.15,0.43,0.56,0.7,0.99,0.91c0.64,0.31,1.38,0.46,2.02,0.49c1.8,0.07,5.47,0.02,8.54-1 c1.7-0.56,3.24-1.38,3.89-2.83c0.81-1.82,1.35-5.42,1.77-9.56C117.68,128.66,117.86,117.46,117.89,114.74" fill="#590FA9"/>
<g id="Ridge_Basic-Thigh_Left" class="toggle" style="" fill="#1C0236">
<path d="M110.85,105.79l-3.61-0.92l-3.78,2.07l1.23,45.7c2.49,0.48,2.53,0.57,4.71-0.08L110.85,105.79"/>
<path d="M107.27,104.87l-0.1,48.14"/>
</g>
</g>
</g>
<g id="Right-Thigh"><g id="Basic_Thigh_Right" class="option">
<path id="Thigh_Basic-Thigh_Right" d="M50.34,114.13c0,0,5.22-6.67,7.89-7.78c2.53-1.05,5.91-0.6,8.08,1.13 c3.31,2.64,10.92,8.35,11.78,14.71c0.96,7.1-4.24,22.8-6,27.87c-0.6,1.72-2.87,2.51-4.61,2.57c-3.22,0.12-12.01-0.15-14.11-4.87 C50.51,141.34,50.34,114.13,50.34,114.13" fill="#E2E2E2"/>
<path id="Trauma-Plate_Basic-Thigh_Right" class="toggle" style="" d="M52.11,114.74c0.78-0.97,2.65-3.22,4.46-4.95 c0.86-0.82,1.68-1.54,2.33-1.82c1.97-0.82,4.61-0.47,6.3,0.88c1.92,1.53,5.35,4.12,7.95,7.29c1.58,1.92,2.88,4.05,3.18,6.29 c0.94,6.9-4.2,22.13-5.92,27.06c-0.15,0.43-0.56,0.7-0.99,0.91c-0.64,0.31-1.38,0.46-2.02,0.49c-1.8,0.07-5.47,0.02-8.54-1 c-1.7-0.56-3.24-1.38-3.89-2.83c-0.81-1.82-1.35-5.42-1.77-9.56C52.32,128.66,52.14,117.46,52.11,114.74" fill="#590FA9"/>
<g id="Ridge_Basic-Thigh_Right" class="toggle" style="" fill="#1C0236">
<path d="M59.15,105.79l3.61-0.92l3.78,2.07l-1.23,45.7c-2.49,0.48-2.53,0.57-4.71-0.08L59.15,105.79"/>
<path d="M62.73,104.87l0.1,48.14"/>
</g>
</g>
</g>
</g>
<g id="ThighsDecals" mask="url(#ThighsMask)">
</g>
<g id="Groin"><g id="Basic_Groin" class="option">
<path id="Groin-Plate_Basic" d="M78.57,104.6L67.72,82.91h34.71L91.58,104.6c0,0-4.33,5.17-6.5,5.17 C82.91,109.76,78.57,104.6,78.57,104.6z" fill="#1C0236"/>
<path id="Trauma-Plating_Groin" class="toggle" style="" d="M90.42,103.84l9.8-19.57H69.93l9.79,19.57c0.43,0.5,2.16,2.47,3.82,3.72 c0.58,0.44,1.1,0.84,1.53,0.84c0.44,0,0.95-0.4,1.53-0.84C88.26,106.32,89.99,104.34,90.42,103.84" fill="#0B0016"/>
</g>
</g>
<g id="GroinDecals" mask="url(#GroinMask)">
</g>
<g id="Waist">
<g id="Accessories_Waist">
<g id="Kama" class="toggle" style="display:none"/>
<g id="Loin-Cloth" class="toggle" style="display:none"/>
<g id="Left-Holster" class="toggle" style=""><g id="Belt-Holster_Left" class="option">
<g id="Weapon_Belt-Holster-Left">
<g id="Main_Weapon_Belt-Holster-Left" fill="#0B0B0B">
<path d="M109.93,89.79l-0.25-3.73l0.65-0.04l-0.16-2.35l-0.65,0.04l-0.08-1.22c-0.03-0.4,0.48-0.75,1.14-0.8 c1.5-0.1,4.08-0.27,5.58-0.37c0.66-0.04,1.21,0.24,1.24,0.64l0.08,1.22l-0.65,0.04l0.16,2.35l0.65-0.04l0.25,3.73l-1.52,0.1 l0.69,10.33l-4.91,0.33l-0.69-10.33L109.93,89.79z"/>
<path d="M117.2,88.76l-0.87,0.06l0.83,12.42l-4.91,0.33l-0.83-12.42l-0.87,0.06l-0.19-2.83l6.66-0.44L117.2,88.76 z"/>
<path d="M115.39,82.18l-3.94,0.26l0.26,3.83l3.94-0.26L115.39,82.18z"/>
<path d="M112.62,90.19l-0.65,0.04l0.66,9.77l0.65-0.04L112.62,90.19z"/>
<path d="M114.12,87.85l-0.65,0.04l0.65,9.76l0.65-0.04L114.12,87.85z"/>
<path d="M115.92,89.97l-0.65,0.04l0.66,9.76l0.65-0.04L115.92,89.97z"/>
</g>
<g id="Accent_Weapon_Belt-Holster-Left" fill="#EAE5E5">
<path d="M112.32,86.63l0.03,0.39l2.78-0.18l-0.03-0.39L112.32,86.63z"/>
<path d="M112.34,87.02l0.03,0.39l2.78-0.18l-0.03-0.39L112.34,87.02z"/>
<path d="M112.29,86.24l0.03,0.39l2.78-0.18l-0.03-0.39L112.29,86.24z"/>
<path d="M111.97,81.43l0.03,0.39l2.78-0.18l-0.03-0.39L111.97,81.43z"/>
<path d="M112.1,82.4l-0.65,0.04l0.26,3.83l0.65-0.04L112.1,82.4z"/>
<path d="M115.39,82.18l-0.65,0.04l0.26,3.83l0.65-0.04L115.39,82.18z"/>
<path d="M115.27,90.01l-0.98,0.06l0.65,9.77l0.98-0.07L115.27,90.01z"/>
<path d="M113.61,90.12l-0.98,0.06l0.65,9.77l0.98-0.07L113.61,90.12z"/>
</g>
</g>
<path id="Holster_Belt-Holster-Left" d="M111.6,104.11l-2.57-15.56l8.61,10.96l0.82,21.48 c-1.49,1.96-3.16,2.16-5.03,0.37L111.6,104.11z" fill="#202020"/>
</g>
</g>
<g id="Right-Holster" class="toggle" style=""><g id="Belt-Holster_Right" class="option">
<g id="Weapon_Belt-Holster-Right">
<g id="Main_Weapon_Belt-Holster-Right" fill="#0B0B0B">
<path d="M60.06,89.79l0.25-3.73l-0.65-0.04l0.16-2.35l0.65,0.04l0.08-1.22c0.03-0.4-0.48-0.75-1.14-0.8 c-1.5-0.1-4.08-0.27-5.58-0.37c-0.66-0.04-1.21,0.24-1.24,0.64l-0.08,1.22l0.65,0.04L53,85.57l-0.65-0.04l-0.25,3.73l1.52,0.1 L52.93,99.7l4.91,0.33l0.69-10.33L60.06,89.79z"/>
<path d="M52.79,88.76l0.87,0.06l-0.83,12.42l4.92,0.33l0.83-12.42l0.87,0.06l0.19-2.83l-6.66-0.44L52.79,88.76z"/>
<path d="M54.59,82.18l3.94,0.26l-0.26,3.83l-3.94-0.26L54.59,82.18z"/>
<path d="M57.37,90.19l0.65,0.04l-0.65,9.77l-0.65-0.04L57.37,90.19z"/>
<path d="M55.87,87.85l0.65,0.04l-0.65,9.76l-0.65-0.04L55.87,87.85z"/>
<path d="M54.07,89.97l0.65,0.04l-0.65,9.76l-0.65-0.04L54.07,89.97z"/>
</g>
<g id="Accent_Weapon_Belt-Holster-Right" fill="#EAE5E5">
<path d="M57.67,86.63l-0.03,0.39l-2.78-0.18l0.03-0.39L57.67,86.63z"/>
<path d="M57.64,87.02l-0.03,0.39l-2.78-0.18l0.03-0.39L57.64,87.02z"/>
<path d="M57.7,86.24l-0.03,0.39l-2.78-0.18l0.03-0.39L57.7,86.24z"/>
<path d="M58.02,81.43l-0.03,0.39l-2.78-0.18l0.03-0.39L58.02,81.43z"/>
<path d="M57.89,82.4l0.65,0.04l-0.26,3.83l-0.65-0.04L57.89,82.4z"/>
<path d="M54.59,82.18l0.65,0.04l-0.26,3.83l-0.65-0.04L54.59,82.18z"/>
<path d="M54.72,90.01l0.98,0.06l-0.66,9.77l-0.98-0.07L54.72,90.01z"/>
<path d="M56.38,90.12l0.98,0.06l-0.65,9.77l-0.98-0.07L56.38,90.12z"/>
</g>
</g>
<path id="Holster_Belt-Holster-Right" d="M58.39,104.11l2.57-15.56l-8.61,10.96l-0.82,21.48 c1.49,1.96,3.16,2.16,5.03,0.37L58.39,104.11z" fill="#202020"/>
</g>
</g>
<g id="Left-Trophy" class="toggle" style="display:none"/>
<g id="Right-Trophy" class="toggle" style="display:none"/>
</g>
<g id="Under-Belt"><g id="Girth-Belt" class="option" fill="#0C0C0C">
<path d="M85.04,76.62c-7.36,0-22.09-1.86-22.09-1.86l0.48-1.58c0,0,14.37,1.24,21.61,1.86 c7.21-0.62,21.61-1.86,21.61-1.86l0.48,1.58C107.13,74.76,92.4,76.62,85.04,76.62z"/>
<path d="M85.04,78.2c-7.52,0-22.55-1.86-22.55-1.86l0.46-1.58c0,0,18.41,1.55,22.09,1.86 c3.68-0.31,22.09-1.86,22.09-1.86l0.46,1.58C107.59,76.34,92.56,78.2,85.04,78.2z"/>
<path d="M85.04,79.78c-7.63,0-22.9-1.86-22.9-1.86l0.34-1.58c0,0,18.79,1.55,22.55,1.86 c3.76-0.31,22.55-1.86,22.55-1.86l0.34,1.58C107.94,77.92,92.67,79.78,85.04,79.78z"/>
<path d="M85.04,81.36c-7.73,0-23.18-1.86-23.18-1.86l0.29-1.58c0,0,19.08,1.55,22.9,1.86 c3.82-0.31,22.9-1.86,22.9-1.86l0.29,1.58C108.22,79.49,92.77,81.36,85.04,81.36z"/>
<path d="M85.04,82.94c-7.81,0-23.44-1.86-23.44-1.86l0.26-1.58c0,0,19.32,1.55,23.18,1.86 c3.86-0.31,23.18-1.86,23.18-1.86l0.26,1.58C108.49,81.07,92.86,82.94,85.04,82.94z"/>
<path d="M85.04,84.52c-7.9,0-23.69-1.86-23.69-1.86l0.25-1.58c0,0,19.54,1.55,23.44,1.86 c3.91-0.31,23.44-1.86,23.44-1.86l0.25,1.58C108.73,82.65,92.94,84.52,85.04,84.52z"/>
<path d="M85.04,86.1c-7.98,0-23.93-1.86-23.93-1.86l0.24-1.58c0,0,19.74,1.55,23.69,1.86 c3.95-0.31,23.69-1.86,23.69-1.86l0.24,1.58C108.97,84.23,93.02,86.1,85.04,86.1z"/>
<path d="M85.04,87.68c-8.06,0-24.18-1.86-24.18-1.86l0.25-1.58c0,0,19.94,1.55,23.93,1.86 c3.99-0.31,23.93-1.86,23.93-1.86l0.25,1.58C109.22,85.81,93.1,87.68,85.04,87.68z"/>
<path d="M85.04,89.25c-8.15,0-24.45-1.86-24.45-1.86l0.27-1.58c0,0,20.15,1.55,24.18,1.86 c4.03-0.31,24.18-1.86,24.18-1.86l0.27,1.58C109.49,87.39,93.19,89.25,85.04,89.25z"/>
<path d="M85.04,90.83c-8.25,0-24.76-1.86-24.76-1.86l0.31-1.58c0,0,20.38,1.55,24.45,1.86 c4.08-0.31,24.45-1.86,24.45-1.86l0.31,1.58C109.8,88.97,93.29,90.83,85.04,90.83z"/>
</g>
</g>
<g id="Belt"><g id="Pouch-Belt-6" class="option">
<path id="Main_Pouch-Belt-6" d="M109.38,84.25c-5.47,0.49-17.98,2.27-24.29,2.27c-6.38,0-18.88-1.79-24.28-2.26 l0.81-6.37c4.44,0.39,17.3,2.2,23.48,2.2c5.99,0,18.59-1.79,23.33-2.22L109.38,84.25z" fill="#1B1B1B"/>
<rect id="Buckle_Pouch-Belt-6" x="80.61" y="79.49" width="9.05" height="7.39" fill="#616161"/>
<g id="Pouches_Pouch-Belt-6" fill="#1D1D1D">
<g>
<g>
<g>
<path d="M75.55,77.98c-1.42-0.09-2.85,0.13-4.17,0.65l0,0L77.86,79l1.76-0.75 C79.62,78.25,77.35,78.1,75.55,77.98z"/>
<path d="M79.85,78.48c0.01-0.07-0.02-0.14-0.08-0.18c-0.06-0.04-0.14-0.05-0.2-0.02 c-0.57,0.24-1.7,0.73-1.7,0.73l-0.84,9.96c0.71-0.41,1.42-0.64,2.11-0.75c0.1-0.01,0.17-0.1,0.18-0.19 C79.41,84.83,79.53,81.65,79.85,78.48z"/>
<path d="M77.86,79l-6.48-0.37c-0.04,1.51-0.18,3.02-0.26,4.54c-0.09,1.75-0.13,3.52-0.3,5.29 c0,0.06,0.01,0.12,0.05,0.16c0.04,0.04,0.1,0.07,0.15,0.07c2.02-0.01,4.03,0.1,6.04,0.35c0.06,0.01,0.11-0.01,0.16-0.04 c0.04-0.04,0.07-0.09,0.08-0.14c0.06-0.92,0.31-4.51,0.31-4.51L77.86,79z"/>
<path d="M77.86,79l-6.48-0.37c0,0-0.07,0.58-0.16,1.34c-0.11,0.91,0.16,1.83,0.76,2.53 c0.59,0.7,1.45,1.13,2.37,1.19c0,0,0,0,0,0c0.92,0.05,1.82-0.28,2.49-0.91c0.67-0.63,1.04-1.51,1.04-2.43 C77.87,79.58,77.86,79,77.86,79z"/>
<path d="M74.42,82.49c0.23,0.01,0.41,0.21,0.39,0.44c-0.01,0.23-0.21,0.4-0.44,0.39 c-0.23-0.01-0.41-0.21-0.39-0.44C73.99,82.65,74.19,82.48,74.42,82.49z"/>
</g>
</g>
<g>
<g>
<path d="M66.42,76.75c-1.32-0.09-2.64,0.14-3.85,0.67h0l5.92,0.34L70.1,77C70.1,77,68.06,76.86,66.42,76.75z"/>
<path d="M70.3,77.24c0.01-0.07-0.03-0.14-0.09-0.19c-0.06-0.04-0.14-0.05-0.21-0.02 c-0.53,0.25-1.52,0.72-1.52,0.72l-0.82,9.96c0.65-0.41,1.29-0.65,1.92-0.76c0.1-0.02,0.17-0.1,0.17-0.19 C69.87,83.59,69.99,80.41,70.3,77.24z"/>
<path d="M68.49,77.76l-5.92-0.34c-0.04,1.51-0.18,3.02-0.26,4.54c-0.09,1.75-0.13,3.51-0.3,5.28 c-0.01,0.06,0.01,0.12,0.05,0.16c0.04,0.04,0.1,0.07,0.15,0.07c1.83-0.02,3.66,0.08,5.47,0.31c0.06,0.01,0.11-0.01,0.16-0.04 s0.07-0.09,0.08-0.14c0.06-0.93,0.31-4.51,0.31-4.51L68.49,77.76z"/>
<path d="M68.49,77.76l-5.92-0.34c0,0-0.08,0.74-0.19,1.64c-0.1,0.83,0.16,1.67,0.7,2.31 c0.54,0.64,1.33,1.03,2.17,1.08c0,0,0,0,0,0c0.84,0.05,1.67-0.25,2.28-0.83c0.61-0.58,0.96-1.38,0.96-2.22 C68.49,78.5,68.49,77.76,68.49,77.76z"/>
<path d="M65.32,81.27c0.21,0.01,0.37,0.21,0.36,0.44c-0.01,0.23-0.19,0.4-0.4,0.39s-0.37-0.21-0.36-0.44 C64.93,81.43,65.11,81.26,65.32,81.27z"/>
</g>
</g>
<g>
<path d="M58.83,77.31l0.44-0.68l2.27,0.07l0.28,0.85L58.83,77.31z"/>
<path d="M61.81,77.64c0.01-0.06-0.01-0.11-0.05-0.16c-0.04-0.04-0.09-0.07-0.15-0.07 c-0.69-0.03-2.78-0.11-2.78-0.11l-0.4,8.96c0.11,0.27,1.76,0.43,2.69,0.39c0.11-0.01,0.19-0.09,0.19-0.2 C61.37,83.51,61.47,80.57,61.81,77.64z"/>
</g>
</g>
<g>
<g>
<g>
<path d="M94.63,77.98c1.42-0.09,2.85,0.13,4.17,0.65l0,0L92.32,79l-1.76-0.75 C90.56,78.25,92.83,78.1,94.63,77.98z"/>
<path d="M90.33,78.48c-0.01-0.07,0.02-0.14,0.08-0.18c0.06-0.04,0.14-0.05,0.2-0.02c0.57,0.24,1.7,0.73,1.7,0.73 l0.84,9.96c-0.71-0.41-1.42-0.64-2.11-0.75c-0.1-0.01-0.17-0.1-0.18-0.19C90.77,84.83,90.66,81.65,90.33,78.48z"/>
<path d="M92.32,79l6.48-0.37c0.04,1.51,0.18,3.02,0.26,4.54c0.09,1.75,0.13,3.52,0.3,5.29 c0,0.06-0.01,0.12-0.05,0.16c-0.04,0.04-0.1,0.07-0.15,0.07c-2.02-0.01-4.03,0.1-6.04,0.35c-0.06,0.01-0.11-0.01-0.16-0.04 c-0.04-0.04-0.07-0.09-0.08-0.14c-0.06-0.92-0.31-4.51-0.31-4.51L92.32,79z"/>
<path d="M92.32,79l6.48-0.37c0,0,0.07,0.58,0.16,1.34c0.11,0.91-0.16,1.83-0.76,2.53 c-0.59,0.7-1.45,1.13-2.37,1.19c0,0,0,0,0,0c-0.92,0.05-1.82-0.28-2.49-0.91c-0.67-0.63-1.04-1.51-1.04-2.43 C92.31,79.58,92.32,79,92.32,79z"/>
<path d="M95.76,82.49c-0.23,0.01-0.41,0.21-0.39,0.44c0.01,0.23,0.21,0.4,0.44,0.39 c0.23-0.01,0.41-0.21,0.39-0.44C96.19,82.65,96,82.48,95.76,82.49z"/>
</g>
</g>
<g>
<g>
<path d="M103.76,76.75c1.32-0.09,2.64,0.14,3.85,0.67h0l-5.92,0.34L100.08,77 C100.08,77,102.13,76.86,103.76,76.75z"/>
<path d="M99.88,77.24c-0.01-0.07,0.03-0.14,0.09-0.19c0.06-0.04,0.14-0.05,0.21-0.02 c0.53,0.25,1.52,0.72,1.52,0.72l0.82,9.96c-0.65-0.41-1.29-0.65-1.92-0.76c-0.1-0.02-0.17-0.1-0.17-0.19 C100.31,83.59,100.19,80.41,99.88,77.24z"/>
<path d="M101.69,77.76l5.92-0.34c0.04,1.51,0.18,3.02,0.26,4.54c0.09,1.75,0.13,3.51,0.3,5.28 c0,0.06-0.01,0.12-0.05,0.16c-0.04,0.04-0.1,0.07-0.15,0.07c-1.83-0.02-3.66,0.08-5.47,0.31c-0.06,0.01-0.11-0.01-0.16-0.04 s-0.07-0.09-0.08-0.14c-0.06-0.93-0.31-4.51-0.31-4.51L101.69,77.76z"/>
<path d="M101.69,77.76l5.92-0.34c0,0,0.08,0.74,0.19,1.64c0.09,0.83-0.16,1.67-0.7,2.31 c-0.54,0.64-1.33,1.03-2.17,1.08c0,0,0,0,0,0c-0.84,0.05-1.67-0.25-2.28-0.83c-0.61-0.58-0.96-1.38-0.96-2.22 C101.69,78.5,101.69,77.76,101.69,77.76z"/>
<path d="M104.86,81.27c-0.21,0.01-0.37,0.21-0.36,0.44c0.01,0.23,0.19,0.4,0.4,0.39s0.37-0.21,0.36-0.44 C105.25,81.43,105.07,81.26,104.86,81.27z"/>
</g>
</g>
<g>
<path d="M111.35,77.31l-0.44-0.68l-2.27,0.07l-0.28,0.85L111.35,77.31z"/>
<path d="M108.38,77.64c-0.01-0.06,0.01-0.11,0.05-0.16c0.04-0.04,0.09-0.07,0.15-0.07 c0.69-0.03,2.78-0.11,2.78-0.11l0.4,8.96c-0.11,0.27-1.75,0.43-2.68,0.39c-0.11-0.01-0.19-0.09-0.19-0.2 C108.81,83.51,108.71,80.57,108.38,77.64z"/>
</g>
</g>
</g>
</g></g>
</g>
<g id="WaistDecals" mask="url(#WaistMask)">
<use class="decal" href="#Stripe-3" id="Stripe-3__47" serif:id="Stripe 3" fill="#590FA9" transform="translate(85, 83) rotate(0) scale(0.08, 0.06) translate(-50, -50)"/></g>
<g id="Extras_Front">
<g id="Front"><g id="None_Front" class="option">
</g>
</g>
</g>
<g id="Extras-FrontDecals" mask="url(#FrontMask)">
</g>
</g>
</svg>