<?xml version='1.0' encoding='UTF-8'?>
<svg version="1.1" id="Male-Body" xmlns="http://www.w3.org/2000/svg" xmlns:serif="http://www.serif.com/" viewBox="0 -55 170 310" style="stroke-width: 0.2px; fill-rule: evenodd; stroke-linejoin: round;" width="510" height="930">
<style>
mask {
mask-type: alpha;
}
.decal {
stroke: none;
}
</style>
<defs id="Masks" stroke="none">
<mask id="HelmetsMask"> <use href="#Helmets"/> </mask>
<mask id="CollarMask"> <use href="#Collar"/> </mask>
<mask id="ShouldersMask"> <use href="#Shoulders"/> </mask>
<mask id="ChestMask"> <use href="#Chest"/> </mask>
<mask id="BicepsMask"> <use href="#Biceps"/> </mask>
<mask id="GauntletsMask"> <use href="#Gauntlets"/> </mask>
<mask id="WaistMask"> <use href="#Waist"/> </mask>
<mask id="GroinMask"> <use href="#Groin"/> </mask>
<mask id="ThighsMask"> <use href="#Thighs"/> </mask>
<mask id="KneesMask"> <use href="#Knees"/> </mask>
<mask id="ShinsMask"> <use href="#Shins"/> </mask>
<mask id="FootMask"> <use href="#Foot"/> </mask>
</defs>
<defs id="Decals"><g id="Mudhorn">
<path d="M66.76 58.68c-.21.12-.65.28-.98.57-.6.54-1.14 1.16-1.69 1.75-1.06 1.15-2.14 2.27-3.14 3.46-1.36 1.61-2.64 3.3-3.99 4.93-1.5 1.8-3.04 3.57-4.56 5.36a3 3 0 0 0-.43.68c-.23.52-.06.96.39 1.17.54.25 1 .1 1.26-.43.09-.19.15-.41.21-.61.13-.42.44-.6.84-.67.38-.07.67.1.87.4.15.22.28.46.39.71.24.52.54.68 1.06.44.95-.44 1.91-.85 2.8-1.4a16.47 16.47 0 0 0 5.71-5.9c.35-.61.6-1.3.78-1.99.16-.59-.09-.95-.62-1.22-.21-.1-.42-.18-.63-.29-.86-.45-.98-1.18-.32-1.88l.14-.15c.87-.95 1.74-1.9 2.59-2.87.17-.19.32-.41.43-.64.34-.73-.09-1.43-1.11-1.42m3.16-28.17.2.23a24.56 24.56 0 0 1 2.96 5.11c1.01 2.19 1.44 4.53 1.84 6.88.19 1.09.31 2.2.34 3.31.09 2.95.15 5.91.17 8.86.01 1.11-.13 2.22-.14 3.33-.01 1.25.01 2.5.1 3.74.14 2 .33 4 .54 5.99.14 1.33.41 2.65.54 3.99.17 1.71.26 3.43.36 5.15.02.36-.03.73-.09 1.09a9.86 9.86 0 0 1-1.01 3.28c-.3.53-.71 1.02-1.16 1.44-2.18 2.02-4.83 3.33-7.31 4.9-.46.29-.91.59-1.32.94-1.8 1.52-3.74 2.83-5.65 4.19a48.77 48.77 0 0 1-5.42 3.35c-.87.46-1.72.96-2.61 1.39a9.78 9.78 0 0 1-3.62.84c-1.14.09-2.28.14-3.41-.08-.56-.1-1.1-.25-1.66-.37-.45-.1-.91-.17-1.35-.3-.32-.09-.63-.26-1.01-.43.13-.13.17-.18.23-.21.95-.57 1.91-1.13 2.86-1.72a1.6 1.6 0 0 1 1.28-.18c.94.22 1.9.35 2.86.17.14-.03.26-.14.39-.22-.11-.11-.2-.25-.33-.31-.43-.19-.88-.36-1.32-.53l-.63-.27c.75-.56 1.47-1.09 2.19-1.6.08-.06.26-.02.37.03.76.35 1.55.58 2.39.56.14 0 .28.01.4-.02.1-.03.18-.13.26-.2-.08-.06-.14-.15-.23-.19-.72-.35-1.45-.69-1.77-1.56l.41-.25c.84-.5 1.69-.97 2.51-1.49.29-.18.55-.2.83-.05.25.13.5.28.73.43.5.33.99.35 1.52.07.8-.42 1.38-1.08 1.99-1.72.64-.67 1.3-1.31 1.92-1.99.99-1.08 2.03-2.12 2.89-3.3a11.4 11.4 0 0 0 1.81-4.01c.03-.12-.03-.27-.04-.4-.13.05-.27.07-.38.15-.81.59-1.6 1.21-2.42 1.79-1.94 1.38-3.92 2.71-5.84 4.13-.72.54-1.36 1.21-1.92 1.92-.3.38-.35.95-.5 1.44-.03.11-.04.23-.08.45-.2-.23-.37-.38-.48-.56a1.22 1.22 0 0 0-1.55-.55c-1.11.41-2.23.85-3.26 1.43-.94.52-1.07 2-.38 2.83l.19.26-.71-.25c-.45-.2-.88-.42-1.33-.6-.14-.06-.34-.09-.46-.02-.71.39-1.32.9-1.71 1.63-.29.54-.14 1.05.08 1.56l.24.59c-.41-.08-.76-.11-1.08-.21-.37-.12-.68-.13-1.01.14a2.1 2.1 0 0 1-3.2-.6c-.1-.17-.26-.31-.42-.5l.35-.39 3.77-3.75c.92-.92 1.67-1.96 2.26-3.11.39-.77.72-1.57 1.05-2.37.05-.11.03-.34-.04-.39-.1-.06-.3-.05-.41.02-.39.24-.78.49-1.15.77-1.58 1.21-3.19 2.4-4.5 3.93-.98 1.14-1.89 2.34-2.83 3.51-.09.12-.16.25-.26.36-.39.4-.82.34-1.08-.15a5.27 5.27 0 0 1-.47-3.32c.42-2.91 1.8-5.33 3.74-7.48.78-.87 1.72-1.56 2.69-2.21.66-.44 1.29-.95 1.93-1.42.91-.66 1.85-1.28 2.72-1.98.96-.78 1.85-1.62 2.76-2.46a47 47 0 0 0 1.9-1.83c.93-.96 1.87-1.93 2.75-2.94.8-.92 1.53-1.9 2.28-2.86 1.39-1.79 2.8-3.56 4.16-5.37.73-.97 1.37-2.02 2.05-3.03a33.02 33.02 0 0 0 3.49-7.23c.66-1.79 1.09-3.66 1.6-5.5.51-1.84 1.09-3.66 1.47-5.53.44-2.18 1.05-4.35 1.15-6.59.05-.51.03-1.04.03-1.58"/>
<path d="M55.89 1.43c-.56.43-1.02.8-1.49 1.14-.94.67-1.78 1.44-2.51 2.34-.84 1.03-1.76 2.02-2.56 3.08-.76 1.01-1.4 2.11-2.15 3.13-1.16 1.61-1.97 3.42-2.97 5.12-.77 1.3-1.4 2.69-2.1 4.03-.51.96-1.07 1.89-1.57 2.86a36.75 36.75 0 0 0-2.08 5.02c-.6 1.78-1.19 3.55-1.72 5.35a28.58 28.58 0 0 0-1.21 6.28c-.07 1.15.03 2.3.06 3.45.02.74.05 1.49.12 2.23.16 1.6.27 3.22.54 4.8.35 2.02.88 4.02 1.28 6.03.56 2.8 1.61 5.44 2.62 8.09a44.41 44.41 0 0 0 2.82 6.25c.59 1.02 1.3 1.97 1.97 2.93.6.87.49 1.42-.43 1.95a43.3 43.3 0 0 1-6.2 3.02c-.09.04-.17.09-.27.1-.9.08-1.18.7-1.37 1.47a59.18 59.18 0 0 1-2.07 7.09c-.32.86-.38 1.82-.51 2.75-.08.61-.06 1.24-.11 1.86-.01.16-.13.32-.2.48-.17-.1-.42-.16-.51-.31-.28-.48-.52-.98-.73-1.49-.56-1.31-1.04-2.66-1.66-3.94-.72-1.49-1.59-2.91-2.32-4.4-.72-1.46-1.35-2.96-2.01-4.45l-1.05-2.37a20.38 20.38 0 0 1-1.58-6.07c-.3-2.6-.57-5.2-.71-7.81-.1-1.82.04-3.66.08-5.49.02-.83 0-1.66.05-2.48.09-1.61.2-3.22.34-4.82.21-2.53.67-5.02 1.28-7.48.4-1.62.88-3.21 1.36-4.81.4-1.32.78-2.66 1.31-3.93a56.36 56.36 0 0 1 2.14-4.51c1.08-2.06 2.21-4.1 3.38-6.12a59.1 59.1 0 0 1 4.87-7.24c1.82-2.29 3.61-4.62 5.93-6.46.65-.51 1.24-1.1 1.91-1.58.81-.59 1.65-1.14 2.5-1.66 1.04-.64 2.1-1.25 3.16-1.86a18.56 18.56 0 0 1 4.09-1.56c.04-.04.11-.02.28-.01"/>
</g></defs><metadata><rdf:rdf xmlns:rdf="http://www.w3.org/1999/02/22-rdf-syntax-ns#" xmlns:rdfs="http://www.w3.org/2000/01/rdf-schema#" xmlns:dc="http://purl.org/dc/elements/1.1/"><rdf:description><dc:creator>MandoCreator</dc:creator><dc:publisher>https://www.mandocreator.com</dc:publisher><dc:description>Your Beskar'gam - created by MandoCreator</dc:description><dc:format>image/svg+xml</dc:format><dc:type>Image</dc:type><dc:title>MandoCreator - Ner Berskar'gam</dc:title><dc:date>2022-03-14T14:44:12.373Z</dc:date></rdf:description></rdf:rdf></metadata><g id="Main-Body" fill="white" stroke="black">
<g id="Extras_Back">
<g id="Back"><path id="Torn-Full-Cape_Back" class="option" d="M68.3 16.3c-11.77 4.4-24.85 25.6-26.46 41.8-1.01 10.2-6.03 20.5-5.53 30.7.5 10.3-4.73 21-5.13 31.2-.3 9.3-3.12 13.5-4.73 22.7-2.41 13.7-5.03 22.7-7.14 36.5a59.51 59.51 0 0 1-9.25 23.3c-.1.1 2.52-1.2 5.63-1.2.91 0 5.53-6.7 5.53-6.7s5.73 4.7 6.94 7.4c1.51-1 2.72-15.2 4.53-15.7.91-.3 2.62 17.8 2.62 17.8s2.72-5.4 3.82-5.4c2.31 0 6.44 2 8.75 2.3 2.41.3 5.03-3.8 7.74-3.1 4.12 1 8.25.9 12.37 1.5 2.92.4 5.83 6 8.75 6 3.62 0 3.12-8.4 6.84-9.2 3.12-.7 7.44 6.8 7.44 6.8s1-24.9 4.12-26c4.12-1.3 19.51 18.8 23.74 18.4 1.31-.1 2.92-12.7 4.12-12.7 2.72.1 5.03 13 7.74 13.5 3.32.6 5.03-5.6 8.25-4.8.9.2 3.52 7.6 4.53 7.8 2.01.5 4.83 1.7 7.04 1.5.1 0-.7-4.9-.8-5.4-.5-2.3-1.21-4.6-2.21-6.8a55.2 55.2 0 0 0-4.02-7.6c-7.14-11.2-4.63-23.4-5.94-36.6-1.21-12.8.1-25.6-2.11-38.4-1.91-11.3-8.65-21.8-10.36-33.2-2-13.4-6.52-27.7-10.65-40.7-5.03-15.9-34.4-20.1-46.17-15.7zM71.62 186c-.9 2.4-1.31 4.9-1.01 7.5.1 1.2.5 2.4 1.01 3.4.1.1.1.4.2.3 4.43-3.9-.2-11.2-.2-11.2zm-34.5-24.2c-.4 7.7-1.11 15.5-1.11 23.2 0 1.4 0 2.9.2 4.3 0 .2.2 2.3.4 2.3 2.62-.5 1.41-7.7 2.01-9.9 2.02-7.6-1.5-19.9-1.5-19.9zm92.24 26.8c-.2 2.8.6 2.5 1.31 1.1.7-1.4 1.31-3.9.6-5.5l-1.91 4.4zm-11.47-24.4c-.6 4.6.4 8.6.71 13.2.1 1.5.1 3 .1 4.5v1.5c0 .3-.2 1 0 .8 3.52-3.6 3.12-10.7 2.01-15.2l-2.82-4.8zm-42.04 13.7c0 1.2 0 2.4.1 3.6.3 2.4 1.71-1.4 1.71-2.3 0-1.3-.81-2.8-1.21-4.1l-.6 2.8z" fill="#14120E"/></g>
</g>
<g id="Extras-BackDecals" mask="url(#BackMask)"/>
<g id="Suit">
<g id="Neck-Seal"><g id="Standard-Neck-Seal" class="option" fill="#2B1C17">
<path d="M98.75 7.5c0-.9-.93-1.62-2.07-1.62 0 0-7.8.85-11.7.85s-11.7-.85-11.7-.85c-1.14 0-2.07.73-2.07 1.62s.93 1.62 2.07 1.62c0 0 7.8.85 11.7.85s11.7-.85 11.7-.85c1.15.01 2.07-.72 2.07-1.62z"/>
<path d="M99.45 9.4c0-.94-.97-1.71-2.17-1.71 0 0-8.2.9-12.29.9s-12.3-.89-12.3-.89c-1.2 0-2.17.76-2.17 1.71s.97 1.71 2.17 1.71c0 0 8.2.9 12.29.9s12.29-.9 12.29-.9c1.21-.01 2.18-.78 2.18-1.72z"/>
<path d="M100.24 11.76c0-.99-1.03-1.8-2.29-1.8 0 0-8.64.95-12.96.95s-12.97-.95-12.97-.95c-1.26 0-2.29.81-2.29 1.8s1.03 1.8 2.29 1.8c0 0 8.64.95 12.97.95s12.96-.95 12.96-.95c1.26 0 2.29-.81 2.29-1.8z"/>
<path d="M101 13.92c0-1.04-1.08-1.89-2.41-1.89 0 0-9.08.99-13.61.99s-13.61-.99-13.61-.99c-1.33 0-2.41.85-2.41 1.89s1.08 1.89 2.41 1.89c0 0 9.08.99 13.61.99s13.61-.99 13.61-.99c1.34 0 2.41-.85 2.41-1.89z"/>
<path d="M101.76 16.04c0-.79-1.13-1.43-2.52-1.43 0 0-9.51.75-14.26.75s-14.26-.75-14.26-.75c-1.39 0-2.52.64-2.52 1.43 0 .79 1.13 1.43 2.52 1.43 0 0 9.51.75 14.26.75s14.26-.75 14.26-.75c1.39 0 2.52-.64 2.52-1.43z"/>
<path d="M101.76 18.42c0-.79-1.13-1.43-2.52-1.43 0 0-9.51.75-14.26.75s-14.26-.75-14.26-.75c-1.39 0-2.52.64-2.52 1.43 0 .79 1.13 1.43 2.52 1.43 0 0 9.51 1.44 14.26 1.44s14.26-1.44 14.26-1.44c1.39-.01 2.52-.64 2.52-1.43z"/>
</g>
</g>
<path id="Flight-Suit" d="m73.36 158.45-1.49 8.72-11.03 53.11s-4.93 2.96-7.47 3.46c-2.53.5-7.73-.44-7.73-.44l3.85-43 2.9-18.36.66-7.82s-2.53-22.78-1.7-34.14c.82-11.36 6.66-34.01 6.66-34.01l26.98.58 26.97-.58s5.83 22.66 6.66 34.01c.83 11.36-1.7 34.14-1.7 34.14l.66 7.82 2.9 18.36 3.85 43s-5.32 1.19-7.85.69c-2.53-.5-7.34-3.71-7.34-3.71L98.1 167.16l-1.49-8.72-11.62-30.33-11.63 30.34zm56.05-115.12 11.98 41.65 1.04 21.47-9.55 1.83-6.05-20.21-13.65-33.95.69-15.55 2.31-3.72 13.23 8.48zm-88.82-.03 13.19-8.45 2.31 3.72.52 16.04-13.44 33.46-6.05 20.21-9.55-1.83 1.03-21.47L40.59 43.3z" fill="#2B1C17"/>
<g id="Sleeves" class="toggle" fill="#221612">
<path d="m112.2 56.12 2.68 5.9s4.24-3.2 7.06-4.8 4.38-2.62 6.92-3.6a33.81 33.81 0 0 1 5.08-1.47l-6.07-12.25-5.79-9.67-11.58 5.14 1.7 20.75z"/>
<path d="M113.61 59.24c-.2-.24 5.08-4.5 8.61-6.34 3.53-1.84 10.25-3.69 10.25-3.69"/>
<path d="m57.8 56.12-2.68 5.9s-4.24-3.2-7.06-4.8c-2.82-1.59-4.38-2.62-6.92-3.6a33.81 33.81 0 0 0-5.08-1.47l6.07-12.25 5.79-9.67 11.58 5.14-1.7 20.75z"/>
<path d="M56.39 59.24c.2-.24-5.08-4.5-8.61-6.34-3.53-1.84-10.25-3.69-10.25-3.69"/>
</g>
</g>
<g id="Boots"><g id="Gunslinger_Boots" class="option">
<path id="Main_Gunslinger-Boot" d="M107.7 226.61c.04.2.73 3.41 4.27 4.29 1.18.3 3.21-.33 4.48-.98a30.5 30.5 0 0 1 5.44-2.12l.06.08.09.12c.58.81 1.21 1.57 1.89 2.26l.05.05.03.03.21.2c.4.38.81.74 1.23 1.07l.12.09.1.07.09.06.2.14c.88.62 2.06 1.56 3.23 1.39 1.11-.16 2.35-.6 3.28-1.04a8.2 8.2 0 0 0 2.13-1.4c.16-.12.29-.26.39-.44 2.57 1 5.36 1.38 6.73 4.22.3.62.55 1.35.49 2.04-.08.89-1.06 1-1.82 1.2-1.9.51-3.53.89-5.72 1.34-2.5.52-4.76.83-7.29.72-1.89-.08-3.49-.18-5.14-1.19-.66-.41-1.34-.82-1.92-1.35-1.28-1.19-2.11-2.43-3.77-3.15a23.2 23.2 0 0 0-3.71-1.27c-1.8-.45-3.74-.76-4.69-2.54-.73-1.34-.64-2.59-.45-3.89m-45.42 0c-.04.2-.73 3.41-4.27 4.29-1.18.3-3.2-.33-4.48-.98a30.5 30.5 0 0 0-5.44-2.12l-.05.08-.09.12c-.58.81-1.21 1.57-1.89 2.26l-.05.05-.03.03-.21.2c-.4.38-.81.74-1.23 1.07l-.12.09-.1.07-.09.06-.2.14c-.88.62-2.06 1.56-3.23 1.39-1.1-.16-2.35-.6-3.28-1.04a8.2 8.2 0 0 1-2.13-1.4 1.38 1.38 0 0 1-.39-.44c-2.57 1-5.36 1.38-6.73 4.22-.3.62-.55 1.35-.48 2.04.08.89 1.06 1 1.82 1.2 1.9.51 3.53.89 5.72 1.34 2.5.52 4.76.83 7.29.72 1.89-.08 3.49-.18 5.14-1.19.66-.41 1.35-.82 1.92-1.35 1.28-1.19 2.11-2.43 3.77-3.15a23.2 23.2 0 0 1 3.71-1.27c1.8-.45 3.74-.76 4.69-2.54.71-1.34.63-2.59.43-3.89" fill="#82735D"/>
<path id="Bottom_Gunslinger-Boot" d="M107.64 229.04c.08.49.24.98.51 1.49.95 1.78 2.89 2.09 4.69 2.54 1.27.32 2.51.75 3.71 1.27 1.66.72 2.48 1.96 3.77 3.15.57.53 1.25.94 1.92 1.35 1.65 1.01 3.25 1.11 5.14 1.19 2.53.1 4.78-.2 7.29-.72 2.19-.46 3.82-.84 5.72-1.34.61-.16 1.36-.27 1.67-.76l.36.8.21 1.64s-2.03 1.09-4.2 1.57c-2.16.48-6.53 1.15-6.53 1.15l-.3-.71-.98.21.05.7-2.38.13-.51-.69-.79.02.12.61s-1.47-.02-2.29-.51c-.15-.23-.46-.61-.46-.61l-.56-.31.07.58-2.04-.73-.1-.79-.59-.34-.03.57-1.46-1.12-.16-.69-3.64-2.55-.57 1.33-2.55-.55-.08-.55-.65-.27-.45.42-1.71-.7-.04-.51-.56-.19-.06.37-1.62-1.12-.31-2.23-.07-2.42.46-.68m-45.29 0a4.8 4.8 0 0 1-.51 1.49c-.95 1.78-2.89 2.09-4.69 2.54-1.27.32-2.51.75-3.71 1.27-1.66.72-2.48 1.96-3.77 3.15-.57.53-1.25.94-1.92 1.35-1.65 1.01-3.25 1.11-5.14 1.19-2.53.1-4.78-.2-7.29-.72-2.19-.46-3.83-.84-5.72-1.34-.61-.16-1.36-.27-1.67-.76l-.36.8-.21 1.64s2.03 1.09 4.2 1.57c2.16.48 6.53 1.15 6.53 1.15l.3-.71.98.21-.05.7 2.38.13.51-.69.8.02-.12.61s1.47-.02 2.29-.51c.15-.23.46-.61.46-.61l.56-.31-.07.58 2.04-.73.1-.79.59-.34.02.57 1.46-1.12.16-.69 3.64-2.55.57 1.33 2.55-.55.08-.55.65-.27.45.42 1.71-.7.04-.51.56-.19.07.37 1.62-1.12.31-2.23.07-2.42-.47-.68" fill="#82735D"/>
<path id="Top_Gunslinger-Boot" d="M121.87 227.77a25.53 25.53 0 0 1-4.16-10.29l.61-.05h.02l.07-.01.2-.02.31-.03.13-.02 1.04-.14.54-.1.11-.03.04-.01.08-.02.37-.09.33-.08.06-.01c1.15-.29 2.31-.64 2.31-.64.32 1.48.47 3.17 1.09 4.56.98 2.18 2.78 3.85 4.46 5.51 1.15 1.14 2.28 2.44 3.66 3.31.58.37 1.21.66 1.84.9a7.2 7.2 0 0 1-2.53 1.84c-.93.44-2.17.88-3.28 1.04-1.17.17-2.35-.77-3.23-1.39a17.07 17.07 0 0 1-4.06-4.19l-.01-.04m-73.75 0a25.53 25.53 0 0 0 4.16-10.29l-.61-.05h-.02l-.08-.01-.2-.02-.31-.03-.13-.02-1.04-.14-.54-.1-.11-.03-.04-.01-.08-.02-.37-.09-.33-.08-.06-.01c-1.15-.29-2.31-.64-2.31-.64-.32 1.48-.47 3.17-1.09 4.56-.98 2.18-2.78 3.85-4.46 5.51-1.15 1.14-2.28 2.44-3.66 3.31-.58.37-1.21.66-1.84.9a7.12 7.12 0 0 0 2.53 1.84c.93.44 2.17.88 3.28 1.04 1.17.17 2.35-.77 3.23-1.39a17.07 17.07 0 0 0 4.06-4.19l.02-.04" fill="#675A48"/>
<path id="Side_Gunslinger-Boot" d="M121.89 227.8c-1.87.54-3.7 1.24-5.44 2.12-1.27.65-3.3 1.27-4.48.98a5.77 5.77 0 0 1-4.27-4.3c.11-.74.25-1.5.3-2.3.1-1.54-.11-8.21.02-8.14 2.94 1.56 8.18 1.45 9.67 1.33.54 3.37 2.02 7.2 4.2 10.31m-73.8 0c1.87.54 3.7 1.24 5.44 2.12 1.27.65 3.3 1.27 4.48.98a5.77 5.77 0 0 0 4.27-4.3c-.11-.74-.25-1.5-.3-2.3-.1-1.54.11-8.21-.02-8.14-2.94 1.56-8.18 1.45-9.67 1.33a25.55 25.55 0 0 1-4.2 10.31" fill="#82735D"/>
</g></g>
<g id="Gloves">
<g id="Left-Glove">
<g id="Fingerless_Left_Glove" class="option">
<g id="Fingers_Fingerless_Left_Glove" fill="#573B31">
<path d="M138.6 124.11a5.98 5.98 0 0 0-1.58.1c-.36.08-.72.16-1.04.35-.99.57-.72 1.81.16 2.28 1.03.55 2.66.01 3.13-1.05.19-.44-.41-1.26-.67-1.68"/>
<path d="M136.79 125.19a5.68 5.68 0 0 0-1.59.1c-.36.08-.72.16-1.04.35-.99.57-.72 1.81.16 2.28 1.03.55 2.66.01 3.13-1.05.2-.44-.4-1.26-.66-1.68"/>
<path d="M135.51 126.62c-.54.05-1.21.17-1.73.35-.35.12-.69.26-.99.48-.9.7-.47 1.89.47 2.24 1.1.41 2.64-.35 2.96-1.46.14-.47-.71-1.61-.71-1.61z"/>
<path d="M129.95 119.82c-.3 1.34-.55 2.07-.55 2.07s-1.38 2.79-1.14 3.43c.24.64 1.45 1.21 2.15.87.86-.42 1.93-2.39 2.61-3.77.25-.51.48-1.1.68-1.64-2.76.4-3.75-.96-3.75-.96zm5.69 6.59c-.2.34-.43.7-.68 1.08-1.36 2.05-3.46 3.81-2.07 5.37 1.29 1.46 4.22-2.37 4.22-2.37l1.36-1.77a3.8 3.8 0 0 1-2.83-2.31z"/>
</g>
<path id="Glove_Fingerless_Left_Glove" d="m138.46 128.72 1.51-1.96s3.3-5.41 3.47-6.46c.13-.8.02-3.47.02-3.47l-1.03-10.37-5.24.44-4.31 1.39-.32 1.77s-1.56 2.15-1.97 3.69c-.29 1.09-.13 3.68-.49 5.43l-.14.65s.99 1.37 3.74.96c.35-.96.58-1.78.58-1.78s.95.32 1.43.7c1.61 1.24.91 4.96.91 4.96s-.37.74-.98 1.75c0 0 .56 1.77 2.82 2.3z" fill="#19110E"/>
</g></g>
<g id="Right-Glove">
<g id="Fingerless_Right_Glove" class="option">
<g id="Fingers_Fingerless_Right_Glove" fill="#573B31">
<path d="M31.4 124.11a5.98 5.98 0 0 1 1.58.1c.36.08.72.16 1.04.35.99.57.72 1.81-.16 2.28-1.03.55-2.66.01-3.13-1.05-.2-.44.41-1.26.67-1.68"/>
<path d="M33.21 125.19a5.59 5.59 0 0 1 2.62.45c.99.57.72 1.81-.16 2.28-1.03.55-2.66.01-3.13-1.05-.19-.44.41-1.26.67-1.68"/>
<path d="M34.49 126.62c.54.05 1.21.17 1.73.35.35.12.69.26.99.48.9.7.47 1.89-.47 2.24-1.1.41-2.64-.35-2.96-1.46-.14-.47.71-1.61.71-1.61z"/>
<path d="M40.05 119.82c.3 1.34.55 2.07.55 2.07s1.38 2.79 1.14 3.43c-.24.64-1.45 1.21-2.15.87-.86-.42-1.93-2.39-2.61-3.77-.25-.51-.48-1.1-.68-1.64 2.76.4 3.75-.96 3.75-.96zm-5.69 6.59c.2.34.43.7.68 1.08 1.36 2.05 3.46 3.81 2.08 5.37-1.29 1.46-4.22-2.37-4.22-2.37l-1.36-1.77a3.79 3.79 0 0 0 2.82-2.31z"/>
</g>
<path id="Glove_Fingerless_Right_Glove" d="m31.54 128.72-1.51-1.96s-3.3-5.41-3.47-6.46c-.13-.8-.02-3.47-.02-3.47l1.03-10.37 5.24.44 4.31 1.39.32 1.77s1.56 2.15 1.97 3.69c.29 1.09.13 3.68.49 5.43l.14.65s-.99 1.37-3.74.96c-.35-.96-.58-1.78-.58-1.78s-.95.32-1.43.7c-1.61 1.24-.91 4.96-.91 4.96s.37.74.98 1.75c0 0-.56 1.77-2.82 2.3z" fill="#19110E"/>
</g></g>
</g>
<g id="Biceps">
<g id="Left-Biceps"><g id="Basic_Biceps_Left" class="option">
<path id="Main_Basic_Biceps_Left" d="M134.37 52.38c-1.14-2.74-6.21-14.78-6.21-14.78l-10.42 4.28c-.59.24-.87.91-.63 1.5l4.87 11.74a3.36 3.36 0 0 0 4.37 1.8l7.4-3.04c.58-.25.86-.92.62-1.5z" fill="#221612"/>
<path id="Strap_Basic_Biceps_Left" d="m119.35 48.7-5.85 2.4-.14 4.29 7.49-3.07-1.5-3.62" fill="#221612"/>
<path id="Trauma-Plate_Basic_Biceps_Left" class="toggle" style="display:none" d="m134.34 51.81-5.29-12.74-10.16 4.17 4.67 11.24c.17.4.49.72.89.88.4.17.85.17 1.26 0l8.63-3.55"/>
</g>
</g>
<g id="Right-Biceps"><g id="Basic_Biceps_Right" class="option">
<path id="Main_Basic_Biceps_Right" d="M35.65 52.38c1.14-2.74 6.22-14.78 6.22-14.78l10.42 4.28c.59.24.87.91.63 1.5l-4.87 11.74a3.36 3.36 0 0 1-4.37 1.8l-7.4-3.04a1.16 1.16 0 0 1-.63-1.5z" fill="#221612"/>
<path id="Strap_Basic_Biceps_Right" d="m50.68 48.7 5.85 2.4.14 4.29-7.49-3.07 1.5-3.62" fill="#221612"/>
<path id="Trauma-Plate_Basic_Biceps_Right" class="toggle" style="display:none" d="m35.69 51.81 5.29-12.74 10.16 4.17-4.66 11.24a1.67 1.67 0 0 1-2.15.88l-8.64-3.55"/>
</g>
</g>
</g>
<g id="BicepsDecals" mask="url(#BicepsMask)"/>
<path id="Vest" d="M85 20.92c8.5-.01 15.43-4.3 15.63-8.01l.15.02 18.38 5.42 13.31 23.94-2.86 1.16-13.42-8.6-2.31 3.72-1.54 47.4s-8.72 4.71-13.53 5.35c-3.44.45-8.63.68-13.79.67-5.16.01-10.35-.22-13.79-.67-4.81-.63-13.53-5.35-13.53-5.35l-1.54-47.4-2.31-3.72-13.42 8.6-2.86-1.16 13.31-23.94 18.38-5.42.15-.02c.16 3.71 7.09 8.01 15.59 8.01" fill="#2B1C17"/>
<g id="SuitDecals" mask="url(#SuitMask)"/>
<g class="swappable" id="Chest"><g id="Chest_Gunslinger">
<g id="Abdomen_Gunslinger">
<g id="Left_Abdomen_Gunslinger" fill="#9D9D9D">
<path d="m99.07 74.44 7.25-12.98-3.77-5.3-.3-.64-4.12.51-1.69 20 2.63-1.59z"/>
<path d="m99.07 74.44 7.25-12.98 1.9 2.67 2.51-1.99-.67 8.89-10.99 3.41z"/>
</g>
<g id="Right_Abdomen_Gunslinger" fill="#9D9D9D">
<path d="m70.93 74.44-7.25-12.98-1.9 2.67-2.51-1.99.67 8.89 10.99 3.41z"/>
<path d="m70.93 74.44-7.25-12.98 3.77-5.3.3-.64 4.12.51 1.69 20-2.63-1.59z"/>
</g>
<path id="Center_Abdomen_Gunslinger" d="m85 51.76 13.13 4.27-1.69 20-2.01 1.21-9.43-.5-9.43.51-2.01-1.21-1.69-20L85 51.76z" fill="#969696"/>
</g>
<g id="Left-Chest_Gunslinger" fill="#969696">
<path d="M85.76 29.31v-3.08l2.54-2.52 24.4-2.75 2.19 13.55-3.63 27.22-3.03 2.41-5.67-7.97-1.59-3.38-15.13-4.59 3.93-3.91V32.92l-4.01-3.61z"/>
<path d="m100.96 52.78 11.15-6.55 2.77-11.71-2.45 12.59-9.88 9.05-1.59-3.38z"/>
<path d="m102.25 55.52-4.12.51L85 51.76v-3.78l15.96 4.79 1.29 2.75z"/>
</g>
<g id="Right-Chest_Gunslinger" fill="#969696">
<path d="M84.24 29.31v-3.08l-2.54-2.52-24.4-2.75-2.18 13.54 3.63 27.22 3.03 2.41 5.67-7.97 1.59-3.38 15.13-4.59-3.93-3.91V32.92l4-3.61z"/>
<path d="m69.04 52.78-11.15-6.55-2.77-11.71 2.45 12.59 9.88 9.05 1.59-3.38z"/>
<path d="m67.75 55.52 4.12.51L85 51.76v-3.78l-15.96 4.79-1.29 2.75z"/>
</g>
<g id="Iron-Heart_Gunslinger">
<path id="Under-Heart_Gunslinger" d="m84.17 48.19-3.93-3.91V32.92l4.01-3.61v-3.08h1.51v3.08l4.01 3.61v11.36l-3.93 3.91-.84-.21-.83.21z" fill="#6D6B70"/>
<path id="Heart_Gunslinger" d="M82.1 43.35v-9.4l2.9-2.88 2.9 2.88v9.4L85 46.23l-2.9-2.88z" fill="#A3A3A8"/><path id="Center_Heart_Gunslinger" class="option" d="M84.14 34.52h1.72v8.25h-1.72z" fill="#A3A3A8"/>
</g>
</g></g>
<g id="ChestDecals" mask="url(#ChestMask)"/>
<g id="Chest-Attachments"><g id="Bandoleer_Accessories_Chest" class="option" style="">
<g id="Strap_Bandoleer_Accessories_Chest" fill="#221612">
<path d="m113.05 15.37-6.61-3.15L64.67 87.5l6.61 3.62 41.77-75.75"/>
<path d="m111.26 14.16-2.51-1.17-8.34 15.03 2.41 1.32 8.44-15.18M99.44 35.85l-2.76-1.51-12.82 23.1 2.76 1.51 12.82-23.1"/>
<path d="m99.71 36.72-3.92-2.15-1.28 2.32 3.92 2.15 1.28-2.32m-1.56 2.81-3.92-2.15-1.28 2.32 3.92 2.15 1.28-2.32m-1.55 2.8-3.92-2.15-1.28 2.32 3.92 2.15 1.28-2.32m-1.56 2.81-3.92-2.15-1.28 2.32 3.92 2.15 1.28-2.32m-1.56 2.8-3.92-2.15-1.29 2.32 3.92 2.15 1.29-2.32m-3.11 5.61-3.92-2.15-1.29 2.32 3.92 2.15 1.29-2.32m1.56-2.8-3.92-2.15-1.29 2.32 3.92 2.15 1.29-2.32m-3.11 5.61-3.92-2.15-1.28 2.31 3.92 2.15 1.28-2.31"/>
</g>
<g id="Ammo_Bandoleer_Accessories_Chest" fill="#A3A3A3">
<path d="m99.57 36.97 1.6.88c.17.09.23.31.14.48l-.66 1.18a.36.36 0 0 1-.48.14l-1.6-.88 1-1.8z"/>
<path d="m100.75 37.61-.13-.07-1 1.8.13.07 1-1.8zm-.28-.15-.13-.07-1 1.8.14.07.99-1.8zm-4.82-2.64-1 1.8-1.6-.88a.36.36 0 0 1-.14-.48l.66-1.19a.36.36 0 0 1 .48-.14l1.6.89z"/>
<path d="m94.44 34.15-.13-.07-1 1.8.14.07.99-1.8zm2.01 8.45 1.6.88c.17.09.23.31.14.48l-.66 1.19a.36.36 0 0 1-.48.14l-1.6-.88 1-1.81z"/>
<path d="m97.63 43.24-.13-.07-1 1.8.13.07 1-1.8zm-.28-.15-.13-.07-1 1.8.13.07 1-1.8zm-4.82-2.64-1 1.8-1.6-.88a.36.36 0 0 1-.14-.48l.66-1.19c.1-.17.31-.23.48-.14l1.6.89z"/>
<path d="m91.32 39.78-.13-.07-1 1.8.13.07 1-1.8zm3.58 5.6 1.6.88c.17.09.23.31.14.48l-.66 1.18a.36.36 0 0 1-.48.14l-1.6-.88 1-1.8z"/>
<path d="m96.08 46.03-.13-.07-1 1.8.13.07 1-1.8zm-.28-.15-.13-.07-1 1.8.13.07 1-1.8zm-4.82-2.64-1 1.8-1.6-.88a.36.36 0 0 1-.14-.48l.66-1.19c.1-.17.31-.23.48-.14l1.6.89z"/>
<path d="m89.77 42.57-.13-.07-1 1.8.13.07 1-1.8zm3.57 5.64 1.6.88c.17.09.23.31.14.48l-.66 1.19a.36.36 0 0 1-.48.14l-1.6-.88 1-1.81z"/>
<path d="m94.52 48.85-.13-.07-1 1.8.13.07 1-1.8zm-.28-.15-.13-.07-1 1.8.13.07 1-1.8zm-4.82-2.64-1 1.8-1.6-.88a.36.36 0 0 1-.14-.48l.66-1.18c.1-.17.31-.23.48-.14l1.6.88z"/>
<path d="m88.21 45.39-.13-.07-1 1.8.13.07 1-1.8z"/>
</g>
<g id="Buckles_Bandoleer_Accessories_Chest" fill="#221612">
<path d="m104 27.77-2.88-1.58-1.63 2.93 2.88 1.58 1.63-2.93z"/>
<path d="m103.26 28.27-2.17-1.19-1.63 2.93 2.17 1.19 1.63-2.93zm.74-3.93-1.86-1.01 1.61-2.92 3.76 2.05-1.61 2.92-1.9-1.04.36-.65 1.06.58.89-1.61-2.07-1.13-.89 1.61 1.01.55"/>
</g>
</g></g>
<g id="Collar"><g id="None_Collar" class="option"/>
</g>
<g id="CollarDecals" mask="url(#CollarMask)"/>
<g id="Helmets" class="swappable" transform="translate(45,-62)"><g id="Helmet_Gunslinger">
<g id="Left-Earcap_Gunslinger" class="toggle"><g id="Ear-Cap_Left_Gunslinger" fill="#8E8E92">
<path d="m59.92 50.84-.66.28-.14.68h1.26l-.46-.96zM60.29 45.29l-.41-.88-1.2-.33v2.89h1.61v-1.68zM58.24 52.77l1.98-.16.07 2.89-1.61.71.44 11.49-.44.31-.44-15.24z"/>
<path d="m59.83 55.71.09 9.74-.81 2.27-.44-11.49 1.16-.52zM60.78 52.61l-.85-1.77-.66.28-.25 1.19-.34.05v-1.37l1.61-.65.79 2.28h-.3zM60.29 50.33v-3.36h-1.61v4.01l1.61-.65zM60.29 45.29l.61 1.68.18 5.64-.79-2.28v-5.04zM58.68 45.97h1.2v1h-1.2z"/>
<path d="M59.02 52.31h1.62l-.25-.51h-1.26l-.11.51zM60.22 52.61l-.34-.3h-.86l-.34.05-.44.41 1.98-.16z"/>
<path d="m58.68 44.6-.94-.07.02.77.47 7.48.45-.41V44.6z"/>
</g>
</g>
<g id="Right-Earcap_Gunslinger" class="toggle"><g id="Ear-Cap_Right_Gunslinger" fill="#8E8E92">
<path d="m20.08 50.87.66.28.14.68h-1.26l.46-.96zM19.71 45.32l.41-.88 1.2-.33V47h-1.61v-1.68zM21.76 52.79l-1.98-.16-.07 2.89 1.61.72-.44 11.49.44.31.44-15.25z"/>
<path d="m20.17 55.73-.09 9.74.81 2.27.44-11.49-1.16-.52zM19.22 52.64l.85-1.77.66.28.25 1.19.34.05v-1.37l-1.61-.65-.79 2.28h.3zM19.71 50.35V47h1.61v4.01l-1.61-.66z"/>
<path d="M19.71 45.32 19.1 47l-.18 5.64.79-2.28v-5.04zM20.12 46h1.2v1h-1.2zM20.98 52.33h-1.61l.25-.51h1.26l.1.51zM19.78 52.64l.34-.3h.86l.34.05.44.41-1.98-.16zM21.32 44.62l.94-.07-.02.77-.47 7.47-.45-.41v-7.76z"/>
</g>
</g>
<g id="Helmet_Pieces_Gunslinger">
<g id="Face_Gunslinger" fill="#858585">
<path d="m23.18 69.57 2.42-9.55h.01c.18.01 3.1.32 5.98 4.61 2 2.99 2.57 11.45 2.57 11.45l-10.98-6.51zM56.8 69.57l-2.42-9.55h-.01c-.18.01-3.1.32-5.98 4.61-2 2.99-2.57 11.45-2.57 11.45l10.98-6.51z"/>
</g>
<g id="Cheeks_Gunslinger" fill="#777777">
<path d="m21.77 52.33-.45 15.93 1.86 1.31 2.42-9.55-3.83-7.69zM58.21 52.33l.45 15.93-1.86 1.31-2.42-9.55 3.83-7.69zM21.79 52.34c.32.08 5.51 1.37 8.64 6.39 3.12 5.02 4.47 16.59 4.55 17.31v.03h-.82s-.56-8.46-2.57-11.45c-2.97-4.43-5.99-4.61-5.99-4.61l-3.82-7.68.01.01z"/>
<path d="M58.19 52.34c-.32.08-5.51 1.37-8.64 6.39-3.12 5.02-4.47 16.59-4.55 17.31v.03h.82s.56-8.46 2.57-11.45c2.97-4.43 5.99-4.61 5.99-4.61l3.83-7.68-.02.01z"/>
</g>
<path fill="#000000" id="Visor_Gunslinger" d="m22.72 47.76 17.27.93 17.27-.93v1.43l-13.48 3.15-.94 21.71h-5.7l-.94-21.72-13.48-3.15v-1.42z"/>
<g id="Eyes_Gunslinger" fill="#8E8E92">
<path d="M22.72 47.76v1.43l13.48 3.15.94 21.71-2.16 2.03s-1.33-12.16-4.55-17.34c-3.22-5.18-8.65-6.4-8.65-6.4l.47-7.02h35.5l.47 7.02s-5.43 1.21-8.65 6.4c-3.22 5.18-4.55 17.34-4.55 17.34l-2.16-2.03.94-21.71 13.48-3.15v-1.43l-17.27.93-17.29-.93z"/>
<path d="M22.21 45.77h35.56v.46H22.21z"/>
</g>
<path id="Dome_Gunslinger" d="M57.74 45.32h-35.5c0-9.07 7.95-16.43 17.75-16.43s17.75 7.36 17.75 16.43z" fill="#828285"/>
<path id="Ridge-2_Gunslinger" d="m37.94 47.13-1.56-1.81V29.23s1.1-.58 3.6-.53h.03c2.48-.05 3.58.53 3.58.53v16.09l-1.56 1.81h-4.09z" fill="#8E8E92"/>
<path id="Ridge-1_Gunslinger" d="m38.47 44.92-.28-.28V28.78s.55-.14 1.8-.08h.03a6.84 6.84 0 0 1 1.77.09v15.85l-.28.28h-3.04z" fill="#969696"/>
</g>
</g></g>
<g id="HelmetsDecals" mask="url(#HelmetsMask)"/>
<g id="Shoulders">
<g id="Left-Shoulder"><g id="Gunslinger-Bell_Shoulder_Left" class="option">
<path id="Main_Gunslinger-Bell_Shoulder_Left" d="M113.87 16.41c6.16-.15 19.92 4.76 19.37 22.26l-.07 3.45-11.98 4.89-10.5-13.96V16.41h3.18z" fill="#8E8E92"/>
<path id="Ridge_Gunslinger-Bell_Shoulder_Left" class="toggle" d="M110.68 16.41v-2.02c13.11-.07 25.51 5.55 24.56 27.14l-2.01.47-.06-.75.06-2.59c.55-17.49-13.2-22.4-19.37-22.26h-.68c-1.35-.18-2.28-.13-2.5.01z" fill="#9D9D9D"/>
<g id="Trim_Gunslinger-Bell_Shoulder_Left" class="toggle" fill="#858585">
<path d="M110.68 15.63h3.19v17.45h-3.19z"/>
<path d="m113.87 32-3.19 1.05 10.51 13.97 2.55-1.9L113.87 32z"/>
<path d="m122.26 43.14-1.11 3.88 12.58-5.13v-3.42l-11.47 4.67z"/>
</g>
</g></g>
<g id="Right-Shoulder"><g id="Gunslinger-Bell_Shoulder_Right" class="option">
<path id="Main_Gunslinger-Bell_Shoulder_Right" d="M56.13 16.41c-6.16-.15-19.92 4.76-19.37 22.26l.08 3.45 11.98 4.89 10.5-13.96V16.41h-3.19z" fill="#8E8E92"/>
<path id="Ridge_Gunslinger-Bell_Shoulder_Right" class="toggle" d="M59.32 16.41v-2.02c-13.11-.07-25.51 5.55-24.56 27.14l2.01.47.06-.75-.06-2.59c-.55-17.49 13.2-22.4 19.37-22.26h.68c1.35-.18 2.28-.13 2.5.01z" fill="#9D9D9D"/>
<g id="Trim_Gunslinger-Bell_Shoulder_Right" class="toggle" fill="#858585">
<path d="M56.13 15.63h3.19v17.45h-3.19z"/>
<path d="m56.13 32 3.19 1.05-10.51 13.97-2.55-1.9L56.13 32z"/>
<path d="m47.74 43.14 1.12 3.88-12.58-5.13v-3.42l11.46 4.67z"/>
</g>
</g></g>
</g>
<g id="ShouldersDecals" mask="url(#ShouldersMask)"><use class="decal" href="#Mudhorn" id="Mudhorn__1" fill="#4D4D4D" transform="translate(46, 30) rotate(25) scale(0.15) translate(-50, -50)"/></g>
<g id="Gauntlets">
<g id="Left-Gauntlets"><g id="Gunslinger_Gauntlet_Left" class="option">
<path id="Accent-Top_Gunslinger_Gauntlet_Left" d="m139.9 80.56.62 5.62-2.85.79-.66-5.33 2.89-1.08zm-1.35 20.83.57 2.87-2.51.54-.6-2.86 2.54-.55z" fill="#9D9D9D"/>
<path id="Top_Gunslinger_Gauntlet_Left" d="m139.9 80.56 1.3-.49 2.29 26.33-6.27 1.32-.85-4.08.24 1.15 2.51-.54-.57-2.87-2.54.54-3.85-18.47 7.74-2.89-2.89 1.08.66 5.33 2.85-.79-.62-5.62z" fill="#969696"/>
<path id="Accent-Bottom_Gunslinger_Gauntlet_Left" d="m128.55 91.98-.74-2.3-1.62.52.74 2.3 1.62-.52zm.85 2.61-.74-2.3-1.62.52.74 2.3 1.62-.52zm6.61 7.34-5.61 1.2.9 2.8 5.3-1.13-.59-2.87z" fill="#9D9D9D"/>
<path id="Bottom_Gunslinger_Gauntlet_Left" d="m136.52 104.38-.51-2.45-5.61 1.2.9 2.8 5.3-1.13.61 2.93-3.45.6a1.88 1.88 0 0 1-2.11-1.26l-6.31-19.4 6.89-3.82 4.29 20.53zm-7.12-9.79-.74-2.3-1.62.52.74 2.3 1.62-.52zm-.85-2.61-.74-2.3-1.62.52.74 2.3 1.62-.52z" fill="#858585"/><g id="No-Device_Attachment_Gunslinger_Gauntlet_Left" class="option"/>
</g></g>
<g id="Right-Gauntlets"><g id="Gunslinger_Gauntlet_Right" class="option">
<path id="Accent-Top_Gunslinger_Gauntlet_Right" d="m30.21 80.56-.62 5.62 2.85.79.66-5.33-2.89-1.08zm1.35 20.83-.57 2.87 2.51.54.6-2.86-2.54-.55z" fill="#9D9D9D"/>
<path id="Top_Gunslinger_Gauntlet_Right" d="m30.21 80.56-1.3-.49-2.29 26.33 6.27 1.32.85-4.08-.24 1.15-2.51-.54.57-2.87 2.54.54 3.85-18.47-7.74-2.89 2.89 1.08-.66 5.33-2.85-.79.62-5.62z" fill="#969696"/>
<path id="Accent-Bottom_Gunslinger_Gauntlet_Right" d="m41.56 91.98.74-2.3 1.62.52-.74 2.3-1.62-.52zm-.85 2.61.74-2.3 1.62.52-.74 2.3-1.62-.52zm-6.61 7.34 5.61 1.2-.9 2.8-5.3-1.13.59-2.87z" fill="#9D9D9D"/>
<path id="Bottom_Gunslinger_Gauntlet_Right" d="m33.59 104.38.51-2.45 5.61 1.2-.9 2.8-5.3-1.13-.61 2.93 3.45.6c.92.16 1.82-.38 2.11-1.26l6.31-19.4-6.89-3.82-4.29 20.53zm7.12-9.79.74-2.3 1.62.52-.74 2.3-1.62-.52zm.85-2.61.74-2.3 1.62.52-.74 2.3-1.62-.52z" fill="#858585"/><g id="No-Device_Attachment_Gunslinger_Gauntlet_Right" class="option"/>
</g></g>
</g>
<g id="GauntletsDecals" mask="url(#GauntletsMask)"/>
<g id="Shins">
<g id="Left-Shin"><g id="Wraps_Shin_Left" class="option" fill="#2B1C17">
<path d="M125.43 219.82c-6.29 2.07-12.29 2.44-18.03 1.26l-2.34-10.27 19.2-1.07 1.17 10.08"/>
<path d="M124.85 212.14a45.2 45.2 0 0 1-18.85 3.68l-2.11-10.17 19.58-4.05 1.38 10.54"/>
<path d="M124.38 206.42c-10.62 1.43-18.3 4.19-20.04 2.12l-1.77-10.33 20.52-.45 1.29 8.66"/>
<path d="M123.86 200.41s-6.98 1.11-10.51 1.19c-3.56.07-10.87-.74-10.87-.74l-.94-9.87 20.78-.93 1.54 10.35"/>
<path d="M122.78 191.48s-7.03 1.74-10.63 2.21c-3.63.48-10.59.64-10.59.64l-1.21-9.76 21.1-3.44 1.33 10.35"/>
<path d="m121.38 180.38 1.18 7.83s-7.83-1.31-11.68-1.31c-3.79 0-10.53 1.22-10.53 1.22l-.97-9.73s8.14-1.69 12.04-1.69c3.71 0 9.51 1.13 9.51 1.13l.45 2.55"/>
</g></g>
<g id="Right-Shin"><g id="Full_Shin_Right" class="option">
<path id="Shin_Full-Shin_Right" d="M67.41 175.8c-10.97-2.98-18.29-1.11-18.29-1.11l-4.35 42.35s4.31 1.17 9.01 1.31c3.44.1 8.96-.97 8.96-.97l7.9-36c-.02 0-3.64-.8-3.23-5.58" fill="#251C1A"/>
<path id="Accent_Full-Shin_Right" class="toggle" d="m69.73 185.33-6.08-.75-.41 1.58 6.12.76.37-1.59m-.5 2.2-4.15-.52-.41 1.58 4.2.53.36-1.59" fill="#221612"/>
<g id="Ridge_Full-Shin_Right" class="toggle" fill="#35231D">
<path d="m52.92 173.79 3.93-.29 4.03.56-8.18 44.24a26.9 26.9 0 0 1-5.63-.74l5.85-43.77"/>
<path d="m56.85 173.5-7.28 44.54"/>
</g>
</g></g>
</g>
<g id="ShinsDecals" mask="url(#ShinsMask)"/>
<g id="Foot">
<g id="Left-Ankle"><g id="Basic_Ankle_Left" class="option">
<path id="Main_Basic-Ankle_Left" d="m132.53 229.62-7.84-13.73c-4.32-.22-8.38.42-12.17 2.03a3.39 3.39 0 0 0-1.88 2.09h-.01a4.28 4.28 0 0 0 1.27 4.52c2.45 2.24 6.47 5.71 8.94 6.56 5.82 1.99 11.69-1.47 11.69-1.47" fill="#594E3E"/>
<path id="Trauma-Plate_Basic-Ankle_Left" class="toggle" style="display:none" d="M125.65 217.57c-3.86-.07-9.61.68-12.99 2.23l-.34 1.08c-.22.71-.02 1.49.54 2.01 2.21 2.08 6.19 5.71 8.63 6.54 3.28 1.12 8.24-.66 10.12-1.42l-5.96-10.44"/>
</g>
</g>
<g id="Left-Toe"><g id="None_Toe_Left" class="option"/>
</g>
<g id="Right-Ankle"><g id="Basic_Ankle_Right" class="option">
<path id="Main_Basic-Ankle_Right" d="m37.34 229.62 7.84-13.73c4.31-.22 8.38.42 12.17 2.03.9.39 1.58 1.15 1.88 2.09h.01c.51 1.63.02 3.4-1.27 4.52-2.46 2.24-6.47 5.71-8.94 6.56-5.82 1.99-11.69-1.47-11.69-1.47" fill="#594E3E"/>
<path id="Trauma-Plate_Basic-Ankle_Right" class="toggle" style="display:none" d="M44.22 217.57c3.85-.07 9.61.68 12.99 2.23l.34 1.08c.22.71.02 1.49-.55 2.01-2.21 2.08-6.19 5.71-8.63 6.54-3.28 1.12-8.24-.66-10.12-1.42l5.97-10.44"/>
</g>
</g>
<g id="Right-Toe"><g id="None_Toe_Right" class="option"/>
</g>
</g>
<g id="FootDecals" mask="url(#FootMask)"/>
<g id="Knees">
<g id="Left-Knee"><g id="Basic_Knee_Left" class="option">
<g id="Missiles_Basic-Knee_Left" class="toggle" style="display:none"/>
<g id="Knee_Basic-Knee_Left" fill="#858585">
<path d="m96.42 158.84 1.43-.23 1.56 9.99c.12.79-.42 1.54-1.21 1.66l-1.78-11.42zm1.39-.52.82 5.14c1.05-.59 3.7.5 4.57 3.58 1.59 5.67 2.97 6.97 7.95 6.46 3.87-.4 6.64-2.2 6.96-4.87.46-3.85 0-9.43-.23-11.79a1.09 1.09 0 0 0-.41-.74 1.15 1.15 0 0 0-.82-.23l-18.84 2.45z"/>
<path d="m97.31 158.39.49-.07.92 5.56-.49.07-.92-5.56z"/>
</g>
</g>
</g>
<g id="Right-Knee">
<g id="None-(Nih-Plates)_Knee_Right" class="option"/></g>
</g>
<g id="KneesDecals" mask="url(#KneesMask)"/>
<g id="Thighs">
<g id="Left-Thigh"><g id="Basic_Thigh_Left" class="option">
<path id="Thigh_Basic-Thigh_Left" d="M120.21 115.6s-5.03-6.43-7.59-7.49a8.12 8.12 0 0 0-7.78 1.09c-3.19 2.54-10.51 8.04-11.35 14.16-.93 6.83 4.08 21.95 5.78 26.84.58 1.66 2.77 2.41 4.44 2.48 3.1.12 11.57-.15 13.59-4.69 2.75-6.18 2.91-32.39 2.91-32.39" fill="#969696"/>
<path id="Trauma-Plate_Basic-Thigh_Left" class="toggle" style="display:none" d="M118.5 116.19c-.75-.93-2.56-3.1-4.3-4.77a9.07 9.07 0 0 0-2.25-1.75 6.31 6.31 0 0 0-6.06.85c-1.85 1.47-5.15 3.97-7.66 7.02-1.52 1.85-2.77 3.9-3.07 6.05-.9 6.64 4.05 21.31 5.7 26.06.14.42.54.67.95.87.61.3 1.33.45 1.94.47 1.73.07 5.27.02 8.23-.96 1.63-.54 3.12-1.33 3.75-2.73.78-1.75 1.3-5.22 1.7-9.2.88-8.51 1.04-19.29 1.07-21.91"/>
<g id="Ridge_Basic-Thigh_Left" class="toggle" style="display:none"/>
</g>
</g>
<g id="Right-Thigh"><g id="Heavy_Thigh_Right" class="option">
<g id="Thigh_Heavy-Thigh_Right" fill="#858585">
<path d="m72.28 118.12 5.78 7.32-6.6 26.24-4.49 1.59 3.13-29.91 2.18-5.24m-14.76-1.53-7.17 5.98 1.03 27.03 4.06 2.47 3.13-29.91-1.05-5.57"/>
<path d="m57.52 116.59 14.76 1.52-2.19 5.24-11.51-1.19-1.06-5.57m1.06 5.58 11.51 1.19-3.13 29.91-11.51-1.19 3.13-29.91"/>
</g>
<g id="Trim_Heavy-Thigh_Right" fill="#858585">
<path d="m56.94 114.3 16.38 1.69-1.04 2.13-14.76-1.52-.58-2.3"/>
<path d="m50.63 120.01 6.31-5.72.58 2.3-7.17 5.98.28-2.56m27.68 2.86-4.99-6.88-1.04 2.13 5.78 7.32.25-2.57"/>
</g>
</g></g>
</g>
<g id="ThighsDecals" mask="url(#ThighsMask)"/>
<g id="Groin">
<g id="None_Groin" class="option"/></g>
<g id="GroinDecals" mask="url(#GroinMask)"/>
<g id="Waist">
<g id="Accessories_Waist">
<g id="Kama" class="toggle" style="display:none"/>
<g id="Loin-Cloth" class="toggle" style="display:none"/>
<g id="Left-Holster" class="toggle" style="display:none"/>
<g id="Right-Holster" class="toggle" style="display:none"/>
<g id="Left-Trophy" class="toggle" style="display:none"/>
<g id="Right-Trophy" class="toggle" style="display:none"/>
</g>
<g id="Under-Belt"><g id="Girth-Belt" class="option" fill="#3B2620">
<path d="M84.93 84.93c-9.33 0-27.98-2.25-27.98-2.25l.61-1.91 27.37 2.25 27.37-2.25.6 1.91c.01 0-18.65 2.25-27.97 2.25z"/>
<path d="M84.93 86.84c-9.52 0-28.56-2.25-28.56-2.25l.58-1.91 27.98 2.25 27.98-2.25.58 1.91s-19.04 2.25-28.56 2.25z"/>
<path d="M84.93 88.75c-9.67 0-28.99-2.25-28.99-2.25l.43-1.91 28.56 2.25 28.56-2.25.43 1.91c0-.01-19.32 2.25-28.99 2.25z"/>
<path d="M84.93 90.65c-9.79 0-29.36-2.25-29.36-2.25l.37-1.91 28.99 2.25 28.99-2.25.37 1.91s-19.57 2.25-29.36 2.25z"/>
<path d="M84.93 92.56c-9.9 0-29.69-2.25-29.69-2.25l.33-1.91 29.36 2.25 29.36-2.25.33 1.91s-19.79 2.25-29.69 2.25z"/>
<path d="M84.93 94.47c-10 0-30-2.25-30-2.25l.31-1.91 29.69 2.25 29.69-2.25.31 1.91c0-.01-20 2.25-30 2.25z"/>
<path d="M84.93 96.37c-10.1 0-30.31-2.25-30.31-2.25l.31-1.91 30 2.25 30-2.25.31 1.91s-20.21 2.25-30.31 2.25z"/>
<path d="M84.93 98.28c-10.21 0-30.62-2.25-30.62-2.25l.32-1.91 30.31 2.25 30.31-2.25.32 1.91c-.02 0-20.43 2.25-30.64 2.25z"/>
<path d="M84.93 100.19c-10.32 0-30.97-2.25-30.97-2.25l.34-1.91 30.62 2.25 30.62-2.25.35 1.91c.01-.01-20.64 2.25-30.96 2.25z"/>
<path d="M84.93 102.09c-10.45 0-31.36-2.25-31.36-2.25l.39-1.91 30.97 2.25 30.97-2.25.39 1.91s-20.91 2.25-31.36 2.25z"/>
</g>
</g>
<g id="Belt"><g id="Pouch-Belt-4" class="option">
<path id="Main_Pouch-Belt-4" d="M115.21 92.95c-6.82.61-22.4 2.83-30.27 2.83-7.94 0-23.52-2.23-30.26-2.82l1.01-7.93c5.53.49 21.56 2.74 29.26 2.74 7.47 0 23.17-2.23 29.07-2.76l1.19 7.94z" fill="#221612"/>
<path id="Buckle_Pouch-Belt-4" d="M79.37 87.01h11.28v9.21H79.37z" fill="#6D6B70"/>
<g id="Pouches_Pouch-Belt-4" fill="#3E2922">
<path d="M59.65 83.47c-.31-.02-.62.03-.91.16l-1.86.81 7.38.42 2-.95-6.61-.44z"/>
<path d="M66.52 84.19a.23.23 0 0 0-.1-.22.23.23 0 0 0-.24-.02l-1.91.9-1.02 12.42a6.9 6.9 0 0 1 1.93-.85.9.9 0 0 0 .69-.84c.12-3.8.28-7.6.65-11.39z"/>
<path d="m64.26 84.85-7.38-.42c-.06 1.89-.23 3.77-.33 5.65-.11 2.08-.16 4.17-.34 6.28-.01.15.04.3.14.41s.25.18.4.17c2.08-.01 4.15.11 6.22.36a.5.5 0 0 0 .4-.12.54.54 0 0 0 .19-.37l.37-5.33.33-6.63z"/>
<path d="m64.26 84.85-7.38-.42-.36 3.15a2.75 2.75 0 0 0 2.59 3.05l2.23.13a2.8 2.8 0 0 0 2.06-.75c.55-.52.87-1.25.86-2v-3.16z"/>
<path d="M60.31 89.23c.26.01.46.26.44.54-.02.28-.24.5-.5.49-.26-.01-.46-.26-.44-.54.02-.28.24-.5.5-.49zm-8.09-4.94.55-.85 2.83.09.35 1.06-3.73-.3z"/>
<path d="M55.93 84.69a.2.2 0 0 0-.06-.18.23.23 0 0 0-.17-.08l-3.48-.13-.5 11.17c.11.28 1.53.46 2.68.49a.9.9 0 0 0 .92-.88c.08-3.47.21-6.94.61-10.39zm54.31-1.22c.31-.02.62.03.91.16l1.86.81-7.38.42-2-.95 6.61-.44z"/>
<path d="M103.37 84.19a.23.23 0 0 1 .1-.22.23.23 0 0 1 .24-.02l1.91.9 1.02 12.42a6.9 6.9 0 0 0-1.93-.85.9.9 0 0 1-.69-.84c-.12-3.8-.28-7.6-.65-11.39z"/>
<path d="m105.63 84.85 7.38-.42c.06 1.89.23 3.77.33 5.65.11 2.08.16 4.17.34 6.28.01.15-.04.3-.14.41a.5.5 0 0 1-.4.17c-2.08-.01-4.15.11-6.22.36a.5.5 0 0 1-.4-.12.54.54 0 0 1-.19-.37l-.37-5.33-.33-6.63z"/>
<path d="m105.63 84.85 7.38-.42.36 3.15a2.75 2.75 0 0 1-2.59 3.05l-2.23.13a2.8 2.8 0 0 1-2.06-.75 2.72 2.72 0 0 1-.86-2v-3.16z"/>
<path d="M109.58 89.23c-.26.01-.46.26-.44.54.02.28.24.5.5.49.26-.01.46-.26.44-.54-.01-.28-.24-.5-.5-.49zm8.09-4.94-.55-.85-2.83.09-.35 1.06 3.73-.3z"/>
<path d="M113.96 84.69a.2.2 0 0 1 .06-.18.23.23 0 0 1 .18-.08l3.48-.13.5 11.17c-.11.28-1.53.46-2.68.49a.9.9 0 0 1-.92-.88 116.3 116.3 0 0 0-.62-10.39z"/>
</g>
</g></g>
</g>
<g id="WaistDecals" mask="url(#WaistMask)"/>
<g id="Extras_Front">
<g id="Front"><g id="None_Front" class="option"/>
</g>
</g>
<g id="Extras-FrontDecals" mask="url(#FrontMask)"/>
</g>
</svg>