<?xml version='1.0' encoding='UTF-8'?>
<svg version="1.1" id="Female-Body" xmlns="http://www.w3.org/2000/svg" xmlns:serif="http://www.serif.com/" viewBox="0 -55 170 310" style="fill-rule: evenodd; stroke-width: 0.2px; stroke-linejoin: round;" width="510" height="930">
<style>
mask {
mask-type: alpha;
}
.decal {
stroke: none;
}
</style>
<defs id="Masks" stroke="none">
<mask id="HelmetsMask"> <use href="#Helmets"/> </mask>
<mask id="CollarMask"> <use href="#Collar"/> </mask>
<mask id="ShouldersMask"> <use href="#Shoulders"/> </mask>
<mask id="ChestMask"> <use href="#Chest"/> </mask>
<mask id="BicepsMask"> <use href="#Biceps"/> </mask>
<mask id="GauntletsMask"> <use href="#Gauntlets"/> </mask>
<mask id="WaistMask"> <use href="#Waist"/> </mask>
<mask id="GroinMask"> <use href="#Groin"/> </mask>
<mask id="ThighsMask"> <use href="#Thighs"/> </mask>
<mask id="KneesMask"> <use href="#Knees"/> </mask>
<mask id="ShinsMask"> <use href="#Shins"/> </mask>
<mask id="FootMask"> <use href="#Foot"/> </mask>
</defs>
<defs id="Decals"/><metadata><rdf:rdf xmlns:rdf="http://www.w3.org/1999/02/22-rdf-syntax-ns#" xmlns:rdfs="http://www.w3.org/2000/01/rdf-schema#" xmlns:dc="http://purl.org/dc/elements/1.1/"><rdf:description><dc:creator>MandoCreator</dc:creator><dc:publisher>https://www.mandocreator.com</dc:publisher><dc:description>Your Beskar'gam - created by MandoCreator</dc:description><dc:format>image/svg+xml</dc:format><dc:type>Image</dc:type><dc:title>MandoCreator - Ner Berskar'gam</dc:title><dc:date>2022-03-14T14:21:41.153Z</dc:date></rdf:description></rdf:rdf></metadata><g id="Main-Body" fill="white" stroke="black">
<g id="Extras_Back">
<g id="Back"><g id="NO-CAPES_Back" class="option">
</g>
</g>
</g>
<g id="Extras-BackDecals" mask="url(#BackMask)">
</g>
<g id="Suit">
<g id="Neck-Seal">
<path id="Plain-Neck-Seal" class="option" d="M95.11,1.97l3.79,11.37l-1.61,2.77l-12.25,2.82l-12.32-2.82l-1.46-3.4 l3.63-10.74L85,2.66L95.11,1.97" fill="#000000"/></g>
<g id="Flight-Suit" fill="#000000">
<path d="M38.1,60.17l5.2-18.8l12.15-8.13l1.9,16.49c0,0-5.25,9.95-7.06,14.51c-1.86,4.7-5.09,15.42-5.5,16.81 l-2.88,24.91l-8.36-2.66c0,0-0.3-17.29,0.46-24.47C34.68,72.42,38.1,60.17,38.1,60.17z"/>
<path d="M131.9,60.17l-5.22-18.86l-12.06-8.07l-1.92,16.59c0,0,5.2,9.85,7.01,14.41c1.86,4.7,5.09,15.42,5.5,16.81 l2.88,24.91l8.36-2.66c0,0,0.3-17.29-0.46-24.47C135.32,72.42,131.9,60.17,131.9,60.17z"/>
<path d="M84.99,113.44c-1.03,0.1-1.95,0.5-2.29,1.22c-3,6.3-9.17,35.13-10.95,40.44c-0.97,2.89-1.74,18.7-3.38,27.92 c-1.96,11.01-8.39,38.11-8.39,38.11l-11.15-1.15c0,0-1.44-27.22-1.04-37.12c0.3-7.53,3.42-22.31,3.42-22.31s0.67-5.4,0.69-8.12 c0.06-9.82,0.93-31.66,2.88-44.2C56.3,98.31,65.7,77.5,65.7,77.5s12.18,4.76,19.34,4.76c7.16,0,19.44-4.86,19.44-4.86 s8.88,20.92,10.42,30.83c1.95,12.54,3.24,34.38,3.3,44.2c0.02,2.72,0.69,8.12,0.69,8.12s3.12,14.79,3.42,22.31 c0.4,9.91-1.04,37.12-1.04,37.12l-11.15,1.15c0,0-6.43-27.1-8.39-38.11c-1.64-9.22-2.41-25.03-3.38-27.92 c-1.78-5.31-7.96-34.13-10.95-40.44c-0.35-0.73-1.3-1.14-2.34-1.23L84.99,113.44z"/>
</g>
<g id="Sleeves" class="toggle" style="display: none;"/>
</g>
<g id="Boots">
<g id="Tall_Boots" class="option">
<g id="Bottom_Tall-Boot" fill="#000000">
<path d="M62.38,229.28c-0.02,0.13-0.05,0.27-0.09,0.42c-0.88,1.83-3.26,2.46-4.9,2.9c-1.16,0.31-2.28,0.75-3.37,1.27 c-1.51,0.73-2.27,2-3.44,3.22c-0.52,0.54-1.15,0.96-1.75,1.38c-1.5,1.03-2.95,1.11-4.66,1.16c-2.29,0.07-4.32-0.28-6.58-0.85 c-1.98-0.5-3.45-0.92-5.16-1.47c-0.51-0.17-1.14-0.28-1.44-0.71l-0.26,0.65l-0.19,1.7c0,0,1.85,1.13,3.82,1.63 c1.97,0.5,5.94,1.2,5.94,1.2l0.27-0.74l0.89,0.21l-0.04,0.73l2.16,0.14l0.46-0.71l0.72,0.02l-0.11,0.63c0,0,1.34-0.02,2.08-0.53 c0.14-0.24,0.41-0.63,0.41-0.63l0.51-0.32l-0.07,0.6l1.86-0.76l0.09-0.82l0.54-0.36l0.02,0.6l1.33-1.17l0.14-0.72l2.85-1.7 l0.97,0.44l2.32-0.57l0.08-0.57l0.59-0.28l0.41,0.43l1.56-0.73l0.03-0.53l0.51-0.2l0.06,0.38l1.48-1.16L62.38,229.28z M62.44,228.61L62.44,228.61L62.44,228.61L62.44,228.61z"/>
<path d="M107.68,229.28c0.02,0.13,0.05,0.27,0.09,0.42c0.88,1.83,3.26,2.46,4.9,2.9c1.15,0.31,2.28,0.75,3.37,1.27 c1.51,0.73,2.27,2,3.44,3.22c0.52,0.54,1.15,0.96,1.75,1.38c1.5,1.03,2.95,1.11,4.66,1.16c2.29,0.07,4.32-0.28,6.58-0.85 c1.98-0.5,3.45-0.92,5.16-1.47c0.51-0.17,1.14-0.28,1.44-0.71l0.26,0.65l0.19,1.7c0,0-1.85,1.13-3.82,1.63 c-1.97,0.5-5.94,1.2-5.94,1.2l-0.27-0.74l-0.89,0.21l0.04,0.73l-2.16,0.14l-0.46-0.71l-0.72,0.02l0.11,0.63 c0,0-1.34-0.02-2.08-0.53c-0.14-0.24-0.41-0.63-0.41-0.63l-0.51-0.32l0.07,0.6l-1.86-0.76l-0.09-0.82l-0.54-0.36l-0.02,0.6 l-1.33-1.17l-0.14-0.72l-2.85-1.7l-0.97,0.44l-2.32-0.57l-0.08-0.57l-0.59-0.28l-0.41,0.43l-1.56-0.73l-0.03-0.53l-0.51-0.2 l-0.06,0.38l-1.48-1.16L107.68,229.28z M107.62,228.61L107.62,228.61L107.62,228.61L107.62,228.61z"/>
</g>
<g id="Main_Tall-Boot" fill="#000000">
<path d="M62.37,215.4c1.32-4.39,2.31-11.41,3.1-14.61c0.59-2.4,3.31-15.44,2.86-17.08 c-0.45-1.66-20.1-4.93-20.66-3.44c-0.86,2.29,0.36,24.81,0.21,28.13c-0.11,2.44,0.19,7.55,0.19,7.55 c-0.23,1.33-0.42,2.76-0.9,3.96c-0.91,2.25-1.49,2.97-3.03,4.68c-1.06,1.17-3.06,3.14-4.32,4.03c-0.53,0.38-2.39,1.74-2.39,1.74 c-2.32,0.98-4.88,0.64-6.14,3.55c-0.27,0.64-0.51,1.4-0.46,2.12c0.06,0.92,0.94,1.05,1.63,1.27c1.71,0.55,3.18,0.97,5.16,1.47 c2.26,0.58,4.29,0.93,6.58,0.85c1.71-0.05,3.16-0.13,4.66-1.16c0.6-0.41,1.23-0.83,1.75-1.38c1.17-1.22,1.93-2.49,3.44-3.22 c1.09-0.53,2.21-0.96,3.37-1.27c1.63-0.44,4.02-1.06,4.9-2.9c0.34-1.38-0.01-2.06-0.12-3.24l-0.05-0.51 c-0.09-0.77-0.21-1.56-0.25-2.4c-0.07-1.6,0.28-3.18,0.37-4.77c0.05-0.9,0.09-1.81,0.11-2.71 C62.36,215.96,62.39,215.62,62.37,215.4z"/>
<path d="M107.7,215.4c-1.32-4.39-2.31-11.41-3.1-14.61c-0.59-2.4-3.31-15.44-2.86-17.08 c0.45-1.66,20.1-4.93,20.66-3.44c0.86,2.29-0.36,24.81-0.21,28.13c0.11,2.44-0.19,7.55-0.19,7.55c0.23,1.33,0.42,2.76,0.9,3.96 c0.91,2.25,1.49,2.97,3.03,4.68c1.06,1.17,3.06,3.14,4.32,4.03c0.53,0.38,2.39,1.74,2.39,1.74c2.32,0.98,4.88,0.64,6.15,3.55 c0.27,0.64,0.51,1.4,0.46,2.12c-0.06,0.92-0.94,1.05-1.63,1.27c-1.71,0.55-3.18,0.97-5.16,1.47c-2.26,0.58-4.29,0.93-6.58,0.85 c-1.71-0.05-3.16-0.13-4.66-1.16c-0.61-0.41-1.23-0.83-1.75-1.38c-1.18-1.22-1.94-2.49-3.44-3.22c-1.09-0.53-2.21-0.96-3.37-1.27 c-1.63-0.44-4.02-1.06-4.9-2.9c-0.34-1.38,0.01-2.06,0.12-3.24l0.05-0.51c0.09-0.77,0.21-1.56,0.25-2.4 c0.07-1.6-0.28-3.18-0.37-4.77c-0.05-0.9-0.09-1.81-0.11-2.71C107.71,215.96,107.68,215.62,107.7,215.4z"/>
</g>
</g></g>
<g id="Gloves">
<g id="Left-Glove"><g id="Basic_Left_Glove" class="option" fill="#2C0404">
<path d="M133.16,120.46c-0.46-0.03-0.9-0.01-1.36,0.09c-0.31,0.07-0.62,0.16-0.9,0.34 c-0.85,0.55-0.62,1.76,0.14,2.21c0.89,0.53,2.29,0.01,2.69-1.02C133.9,121.66,133.39,120.86,133.16,120.46"/>
<path d="M131.6,121.51c-0.46-0.02-0.9-0.02-1.36,0.09c-0.31,0.07-0.62,0.16-0.9,0.34c-0.85,0.55-0.62,1.76,0.14,2.21 c0.89,0.53,2.29,0.01,2.69-1.02C132.34,122.71,131.83,121.91,131.6,121.51"/>
<path d="M130.49,122.93c-0.46,0.05-1.02,0.12-1.46,0.3c-0.3,0.12-0.59,0.25-0.85,0.47c-0.78,0.68-0.4,1.83,0.4,2.17 c0.94,0.39,2.27-0.34,2.55-1.42C131.24,124.01,130.49,122.93,130.49,122.93z"/>
<path d="M127.97,106.79c0,0-1.34,2.09-1.69,3.59c-0.25,1.06-0.11,3.58-0.43,5.28c-0.31,1.7-0.59,2.64-0.59,2.64 s-1.18,2.71-0.98,3.34c0.21,0.62,1.25,1.18,1.84,0.85c0.74-0.41,1.66-2.32,2.24-3.67c0.59-1.37,1.08-3.32,1.08-3.32 s0.81,0.32,1.23,0.68c1.38,1.2,0.78,4.82,0.78,4.82s-0.57,1.29-1.43,2.75c-1.17,1.99-2.97,3.7-1.78,5.22 c1.11,1.42,3.63-2.31,3.63-2.31l2.47-3.62c0,0,2.84-5.26,2.98-6.28c0.11-0.78,0.01-3.38,0.01-3.38l-0.89-10.08l-4.5,0.42 l-3.7,1.36L127.97,106.79"/>
</g>
</g>
<g id="Right-Glove"><g id="Basic_Right_Glove" class="option" fill="#2C0404">
<path d="M36.86,120.46c0.46-0.03,0.9-0.01,1.36,0.09c0.31,0.07,0.62,0.16,0.9,0.34c0.85,0.55,0.62,1.76-0.14,2.21 c-0.89,0.53-2.29,0.01-2.69-1.02C36.12,121.66,36.64,120.86,36.86,120.46"/>
<path d="M38.42,121.51c0.46-0.02,0.9-0.02,1.36,0.09c0.31,0.07,0.62,0.16,0.9,0.34c0.85,0.55,0.62,1.76-0.14,2.21 c-0.89,0.53-2.29,0.01-2.69-1.02C37.68,122.71,38.2,121.91,38.42,121.51"/>
<path d="M39.54,122.93c0.46,0.05,1.02,0.12,1.46,0.3c0.3,0.12,0.6,0.25,0.85,0.47c0.78,0.68,0.4,1.83-0.4,2.17 c-0.94,0.39-2.27-0.34-2.55-1.42C38.78,124.01,39.54,122.93,39.54,122.93z"/>
<path d="M42.06,106.79c0,0,1.34,2.09,1.69,3.59c0.25,1.06,0.11,3.58,0.43,5.28c0.31,1.7,0.59,2.64,0.59,2.64 s1.18,2.71,0.98,3.34c-0.21,0.62-1.24,1.18-1.84,0.85c-0.74-0.41-1.66-2.32-2.24-3.67c-0.59-1.37-1.08-3.32-1.08-3.32 s-0.81,0.32-1.23,0.68c-1.38,1.2-0.78,4.82-0.78,4.82s0.57,1.29,1.43,2.75c1.17,1.99,2.97,3.7,1.78,5.22 c-1.11,1.42-3.63-2.31-3.63-2.31l-2.47-3.62c0,0-2.84-5.26-2.98-6.28c-0.11-0.78-0.01-3.38-0.01-3.38l0.89-10.08l4.5,0.42 l3.7,1.36L42.06,106.79"/>
</g>
</g>
</g>
<g id="Biceps">
<g id="Left-Biceps">
<g id="None_Biceps_Left" class="option">
</g></g>
<g id="Right-Biceps">
<g id="None_Biceps_Right" class="option">
</g></g>
</g>
<g id="BicepsDecals" mask="url(#BicepsMask)">
</g>
<path id="Vest" d="M91.61,82.96c-4.3,0.88-8.84,0.88-13.14,0c-4.33-0.88-12.83-5.29-12.83-5.29s-7.42-23.26-8.75-30.06 c-1.06-5.39-1.42-14.37-1.42-14.37l-12.73,8.52l-2.71-1.15c0,0,7.62-16.73,12.62-21.57c4.53-4.39,17.42-7.5,17.42-7.5 s5.68,6.2,14.97,6.25c8.84,0.04,14.97-6.25,14.97-6.25s12.89,3.12,17.42,7.5c5.01,4.85,12.62,21.57,12.62,21.57l-2.71,1.15 l-12.73-8.52c0,0-0.36,8.98-1.42,14.37c-1.33,6.79-8.76,30.06-8.76,30.06S95.93,82.08,91.61,82.96z" fill="#661010"/>
<g id="SuitDecals" mask="url(#SuitMask)">
</g>
<g class="swappable" id="Chest"><g id="Chest_Gunslinger">
<g id="Abdomen_Gunslinger">
<g id="Left_Abdomen_Gunslinger" fill="#828181">
<path d="M97.34,66.97l6.35-11.37l-3.3-4.64l-0.26-0.56l-3.61,0.45l-1.48,17.52L97.34,66.97z"/>
<path d="M97.34,66.97l6.35-11.37l1.67,2.34l2.2-1.75l-0.58,7.79L97.34,66.97z"/>
</g>
<g id="Right_Abdomen_Gunslinger" fill="#828181">
<path d="M72.69,66.97L66.34,55.6l-1.67,2.34l-2.2-1.75l0.58,7.79L72.69,66.97z"/>
<path d="M72.69,66.97L66.34,55.6l3.3-4.64l0.26-0.56l3.61,0.45L75,68.37L72.69,66.97z"/>
</g>
<path id="Center_Abdomen_Gunslinger" d="M85.02,47.12l11.5,3.74l-1.48,17.52l-1.76,1.06l-8.26-0.45l-8.26,0.45 L75,68.37l-1.48-17.52L85.02,47.12z" fill="#898787"/>
</g>
<g id="Left-Chest_Gunslinger" fill="#696969">
<path d="M85.68,27.45v-2.7l2.22-2.21l21.37-2.41l1.92,11.86l-3.18,23.84l-2.65,2.11l-4.97-6.98L99,48l-13.25-4.02 l3.45-3.42v-9.95L85.68,27.45z"/>
<path d="M99,48l9.76-5.73l2.43-10.25l-2.15,11.03l-8.65,7.92L99,48z"/>
<path d="M100.12,50.4l-3.61,0.45l-11.5-3.74V43.8L99,48L100.12,50.4z"/>
</g>
<g id="Right-Chest_Gunslinger" fill="#696969">
<path d="M84.35,27.45v-2.7l-2.22-2.21l-21.37-2.41l-1.92,11.86l3.18,23.84l2.65,2.11l4.97-6.98L71.04,48l13.25-4.02 l-3.45-3.42v-9.95L84.35,27.45z"/>
<path d="M71.04,48l-9.76-5.73l-2.43-10.25l2.15,11.03l8.65,7.92L71.04,48z"/>
<path d="M69.91,50.4l3.61,0.45l11.5-3.74V43.8L71.04,48L69.91,50.4z"/>
</g>
<g id="Iron-Heart_Gunslinger">
<path id="Under-Heart_Gunslinger" d="M84.29,43.98l-3.45-3.42v-9.95l3.51-3.16v-2.7h1.33v2.7l3.51,3.16v9.95 l-3.45,3.42l-0.73-0.18L84.29,43.98z" fill="#000000"/>
<path id="Heart_Gunslinger" d="M82.48,39.74v-8.23l2.54-2.53l2.54,2.53v8.23l-2.54,2.53L82.48,39.74z" fill="#8C1D1D"/>
<g id="None_Heart_Gunslinger" class="option">
</g></g>
</g></g>
<g id="ChestDecals" mask="url(#ChestMask)">
</g>
<g id="Chest-Attachments"><g id="No-Device_Accessories_Chest" class="option">
</g>
</g>
<g id="Collar"><g id="None_Collar" class="option">
</g>
</g>
<g id="CollarDecals" mask="url(#CollarMask)">
</g>
<g id="Helmets" class="swappable" transform="translate(45,-62)"><g id="Helmet_Heavy">
<g id="Left-Earcap_Heavy" class="toggle">
<g id="Ear-Cap_Left_Heavy" fill="#8D4608">
<path d="M54.94 35.01a17.71 17.71 0 0 1 3.28 7.69h3.59l-.51-7.69h-6.36zM61.31 35.01l1.84 1.03.34 5.52-1.67 1.15-.51-7.7zM60.03 42.71l.34 9.18.65 1.08-.26-10.25h-.73zM61 52.11l.5-.75-.2-8.66h-.54l.24 9.41zM61.38 45.9l.44-.37v-2.46l-.51-.36.07 3.19z"/>
<path d="m58.94 59.14 1.59-.02v-6.17h.5l-.65-1.08-.34-9.18h-1.8c.16.95.24 1.92.24 2.9l.46 13.55z"/>
<path d="M58.6 49.07h1.43v.22H58.6zM58.6 47.31h1.43v.22H58.6zM58.52 46.71h1.43v.22h-1.43zM58.52 46.11h1.43v.22h-1.43zM58.47 45.52h1.43v.22h-1.43zM58.47 44.92h1.43v.22h-1.43z"/>
</g></g>
<g id="Right-Earcap_Heavy" class="toggle">
<g id="Ear-Cap_Right_Heavy" fill="#8D4608">
<path d="M25.04 35.01a17.71 17.71 0 0 0-3.28 7.69h-3.59l.51-7.69h6.36z"/>
<path d="m18.68 35.01-1.84 1.03-.34 5.52 1.67 1.15.51-7.7zM19.95 42.71l-.34 9.18-.65 1.08.25-10.25h.74z"/>
<path d="m18.99 52.11-.5-.75.2-8.66h.54l-.24 9.41zM18.61 45.9l-.44-.37v-2.46l.51-.36-.07 3.19zM21.05 59.14l-1.59-.02v-6.17h-.49l.65-1.08.34-9.18h1.8c-.16.95-.24 1.92-.24 2.9l-.47 13.55z"/>
<path d="M19.95 49.07h1.43v.22h-1.43zM19.95 47.31h1.43v.22h-1.43zM20.04 46.71h1.43v.22h-1.43zM20.04 46.11h1.43v.22h-1.43zM20.08 45.52h1.43v.22h-1.43zM20.08 44.92h1.43v.22h-1.43z"/>
</g></g>
<g id="Helmet_Pieces_Heavy">
<g id="Face_Heavy" fill="#661010">
<path d="M25.69 55c2.36 1.56 5.22 3.52 6.16 4.47 1.16 1.17 2.84 8.76 3.8 13.48l-2.03-.54-9.73-12.64 1.8-4.77zM54.29 55c-2.36 1.56-5.22 3.52-6.16 4.47-1.16 1.17-2.84 8.76-3.8 13.48l2.03-.54 9.73-12.64-1.8-4.77z"/>
</g>
<g id="Cheeks_Heavy" fill="#828181">
<path d="m25.69 55-1.8 4.78-2.95 2.3 1.28-9.31L25.69 55zM54.29 55l1.8 4.78 2.95 2.3-1.28-9.31L54.29 55z"/>
<path d="m59.04 62.07-9.91 14.34-2.76-4.01 9.72-12.63 2.95 2.3z"/>
<path d="m46.38 72.41-2.05.54-.73 3.77 5.54-.31-2.76-4zM20.94 62.07l9.91 14.34 2.76-4.01-9.72-12.63-2.95 2.3zM33.61 72.41l2.05.54.73 3.77-5.53-.31 2.75-4z"/>
</g>
<path fill="#000000" id="Visor_Heavy" d="m42.24 73.37 1.36 3.35h-7.21l1.36-3.35-1.28-16.74.26-3.53s-4.8-.86-6.61-1.37c-1.8-.51-6.16-1.95-6.23-1.97l.02-1.41 16.08.71 16.1-.71v1.41s-4.42 1.46-6.23 1.97c-1.81.51-6.61 1.37-6.61 1.37l.26 3.53-1.27 16.74z"/>
<g id="Eyes_Heavy" fill="#696969">
<path d="m58.47 45.61.58 16.47-1.28-9.31s-7.93 5-9.63 6.71c-1.7 1.71-4.53 17.26-4.53 17.26l-1.36-3.35 1.28-16.74s6.08-2.57 7.44-3.32c1.36-.75 6.16-3.49 6.16-3.49l-.08-1.51-17.05.75-17.05-.75-.08 1.51s4.8 2.74 6.16 3.49c1.36.75 7.44 3.32 7.44 3.32l1.28 16.74-1.36 3.35s-2.83-15.54-4.53-17.26c-1.7-1.71-9.63-6.71-9.63-6.71l-1.28 9.31.58-16.47h36.94z"/>
<path d="m22.87 49.82 1.02-.06s4.42 1.46 6.23 1.97c1.81.51 6.61 1.37 6.61 1.37l-.26 3.53s-6.08-2.57-7.44-3.32c-1.36-.75-6.16-3.49-6.16-3.49zM57.12 49.82l-1.02-.06s-4.42 1.46-6.23 1.97c-1.81.51-6.61 1.37-6.61 1.37l.26 3.53s6.08-2.57 7.44-3.32c1.36-.75 6.16-3.49 6.16-3.49z"/>
<path d="M23.89 49.76v-1.41l-.94-.04-.08 1.51 1.02-.06zM56.1 49.76v-1.41l.94-.04.08 1.51-1.02-.06z"/>
</g>
<path id="Dome_Heavy" d="M58.47 45.61H21.52c0-9.96 8.28-18.05 18.47-18.05 10.2 0 18.48 8.09 18.48 18.05z" fill="#661010"/>
<path id="Ridge_Heavy" class="toggle" d="M39.36 26.96h1.26v18.65h-1.26z" fill="#828181"/>
<g id="Accents_Heavy" class="toggle" fill="#B5BA26">
<path d="m32.19 44.14-.99-1.8h1.99l-1 1.8zM35.61 44.14l-.99-1.8h1.99l-1 1.8z"/>
</g>
</g>
</g></g>
<g id="HelmetsDecals" mask="url(#HelmetsMask)"/>
<g id="Shoulders">
<g id="Left-Shoulder"><g id="Classic_Shoulder_Left" class="option">
<path id="Main_Shoulder_Classic_Left" d="M115.19,13.78l-2.62,11.77l2.09,6.77l14.01,7.05l2.36-3.6L115.19,13.78z" fill="#828181"/>
<path id="Trauma-Plates_Shoulder_Classic_Left" class="toggle" style="display:none" d="M114.4,25.47l1.74,5.62l11.93,6l2.02-3.08 l-13.43-18.68L114.4,25.47z"/>
</g>
</g>
<g id="Right-Shoulder"><g id="Legacy-x2_Shoulder_Right" class="option">
<path id="Plate-2_Shoulder_Right_Legacy-x2" d="M57.12,15.27l6.03,9.03l-6.18,8.61l-9.75-2.38l-6.12,3.77 l-4.58-1.2L57.12,15.27z" fill="#000000"/>
<path id="Trauma-Plate-2_Shoulder_Legacy-x2_Right" class="toggle" style="" d="M40.82,32.41l-2.96-0.77l17.76-15.47l5.39,8.05 l-4.77,6.67l-8.97-2.26L40.82,32.41z" fill="#828181"/>
<path id="Plate-1_Shoulder_Right_Legacy-x2" d="M64.54,10.64l2.71,10.49l-8.68,6.12l-8.43-5.43l-7.03,1.57 l-3.93-2.63L64.54,10.64z" fill="#B5BB0C"/>
<path id="Trauma-Plate-1_Shoulder_Legacy-x2_Right" class="toggle" style="" d="M43.46,21.52l-2.54-1.7l21.9-8.79l2.42,9.37 l-6.72,4.74l-7.72-5.07L43.46,21.52z" fill="#5F5E5E"/>
</g></g>
</g>
<g id="ShouldersDecals" mask="url(#ShouldersMask)">
</g>
<g id="Gauntlets">
<g id="Left-Gauntlets"><g id="Gunslinger_Gauntlet_Left" class="option">
<g id="Accent-Top_Gunslinger_Gauntlet_Left" fill="#B5BB0C">
<path d="M136.82,78.71l0.16,5.87l-3.02,0.58l-0.23-5.57L136.82,78.71z"/>
<path d="M133.63,100.15l0.34,3.02l-2.65,0.34l-0.37-3.01L133.63,100.15z"/>
</g>
<path id="Top_Gunslinger_Gauntlet_Left" d="M136.82,78.71l1.38-0.39l0.12,27.45l-6.61,0.83l-0.53-4.3l0.15,1.22 l2.65-0.34l-0.34-3.02l-2.68,0.35l-2.4-19.44L136.82,78.71l-3.09,0.88l0.23,5.57l3.02-0.58L136.82,78.71z" fill="#828181"/>
<g id="Accent-Bottom_Gunslinger_Gauntlet_Left" fill="#8C1D1D">
<path d="M124.09,89.56l-0.57-2.44l-1.72,0.4l0.57,2.44L124.09,89.56z"/>
<path d="M124.74,92.34l-0.57-2.45l-1.73,0.4l0.57,2.44L124.74,92.34z"/>
<path d="M130.96,100.5l-5.9,0.77l0.7,2.97l5.58-0.72L130.96,100.5z"/>
</g>
<path id="Bottom_Gunslinger_Gauntlet_Left" d="M131.28,103.07l-0.32-2.58l-5.9,0.77l0.7,2.97l5.58-0.72l0.38,3.08 c0,0-2.07,0.19-3.62,0.33c-0.97,0.09-1.86-0.55-2.08-1.49c-1.21-5.14-4.86-20.61-4.86-20.61l7.45-3.37L131.28,103.07z M124.74,92.34l-0.57-2.45l-1.73,0.4l0.57,2.44L124.74,92.34z M124.09,89.56l-0.57-2.44l-1.72,0.4l0.57,2.44L124.09,89.56z" fill="#828181"/>
<g id="Whistling-Birds_Attachment_Gunslinger_Gauntlet_Left" class="option">
<path id="Head_Whistling-Birds_Attachment_Gunslinger_Gauntlet_Left" d="M141.45,95.12l-3.16,5.29l-0.02-5.28 L141.45,95.12z" fill="#CB0808"/>
<g id="Birds_Whistling-Birds_Attachment_Gunslinger_Gauntlet_Left" fill="#E8EF15">
<g>
<path d="M138.79,95.52c0.12,0,0.23,0.27,0.23,0.6c0,0.33-0.1,0.6-0.22,0.6c-0.12,0-0.23-0.27-0.23-0.6 C138.57,95.79,138.67,95.52,138.79,95.52z"/>
<path d="M138.8,97.2c0.12,0,0.23,0.27,0.23,0.6c0,0.33-0.1,0.6-0.22,0.6c-0.12,0-0.23-0.27-0.23-0.6 C138.57,97.47,138.68,97.2,138.8,97.2z"/>
<path d="M139.65,95.52c0.12,0,0.23,0.27,0.23,0.6c0,0.33-0.1,0.6-0.22,0.6c-0.12,0-0.23-0.27-0.23-0.6 C139.43,95.79,139.53,95.52,139.65,95.52z"/>
<path d="M138.63,99.85c-0.03-0.1-0.05-0.23-0.05-0.36c0-0.33,0.1-0.6,0.22-0.6c0.09,0,0.16,0.13,0.2,0.33 L138.63,99.85z M139.55,98.31c-0.07-0.11-0.11-0.3-0.11-0.51c0-0.33,0.1-0.6,0.22-0.6c0.12,0,0.21,0.24,0.23,0.54 L139.55,98.31z M140.5,96.71c-0.12-0.02-0.21-0.28-0.21-0.6c0-0.33,0.1-0.6,0.22-0.6c0.12,0,0.23,0.27,0.23,0.6 c0,0.08-0.01,0.15-0.01,0.22L140.5,96.71z"/>
</g>
</g>
<g id="Base_Whistling-Birds_Attachment_Gunslinger_Gauntlet_Left" fill="#8C1D1D">
<path d="M141.18,79.18l-2.13,0.01l0,0.93l2.13-0.01L141.18,79.18z"/>
<path d="M141.38,80.11l-2.33,0.01l0.06,15.01l2.33-0.01L141.38,80.11z"/>
<path d="M141.69,80.27l-0.31,0l0.05,12.96l0.31,0L141.69,80.27z"/>
<path d="M141.01,80.11l-0.31,0l0.06,14.08l0.31,0L141.01,80.11z"/>
</g>
<g id="Accent_Whistling-Birds_Attachment_Gunslinger_Gauntlet_Left" fill="#661010">
<path d="M139.05,78.95l-0.85,0l0.06,15.24l0.85,0L139.05,78.95z"/>
<path d="M141.62,94.19l-3.35,0.01l0,0.93l3.35-0.01L141.62,94.19z"/>
<path d="M140.45,79.18l-1.4,0.01l0.01,2.19l1.4-0.01L140.45,79.18z"/>
<path d="M140.13,81.37l-1.07,0l0.02,5.2l1.06-1.95L140.13,81.37z"/>
</g>
</g></g></g>
<g id="Right-Gauntlets"><g id="Heavy_Gauntlet_Right" class="option">
<g id="Top-2_Heavy_Gauntlet_Right" fill="#696969">
<path d="M31.48,76.62l-1.79,0.28l-0.78,8.51l1.63,1.15L31.48,76.62z"/>
<path d="M30.61,85.82l-0.98,11.09l1.1,1.25l-0.62,6.53l0.49,0.3l1.72-17.87L30.61,85.82z"/>
<path d="M30.33,82.71c-0.22,0.02-0.38,0.21-0.36,0.42c0.02,0.21,0.21,0.37,0.42,0.36c0.22-0.02,0.38-0.21,0.36-0.42 C30.74,82.85,30.55,82.69,30.33,82.71z"/>
</g>
<g id="Top-1_Heavy_Gauntlet_Right" fill="#8C1D1D">
<path d="M35.21,105.83l-4.61-0.85l1.72-17.87l-1.71-1.29l0.92-9.74l6.77-1.25L35.21,105.83z"/>
<path d="M33.28,75.76l-0.96,11.35"/>
</g>
<g id="Accent-Top_Heavy_Gauntlet_Right" fill="#B5BB0C">
<path d="M31.67,102.17l2.92,0.35l-0.25,2.26l-2.93-0.44L31.67,102.17z"/>
<path d="M32.71,92.7l2.92,0.35l-0.96,8.83l-2.92-0.35L32.71,92.7z"/>
<path d="M33.94,76.34l3.22-0.51l-0.91,9.67l-3.06-0.36L33.94,76.34z"/>
</g>
<path id="Bottom_Heavy_Gauntlet_Right" d="M38.25,75.29c3.5-0.15,7.25,1.05,9.76,3.79 c0.81,0.89,1.14,2.11,0.88,3.29c-1.24,5.67-5.3,24.23-5.3,24.23l-8.38-0.76L38.25,75.29z" fill="#696969"/>
<g id="Accent-Bottom_Heavy_Gauntlet_Right" fill="#1A0101">
<path d="M35.21,105.83l8.38,0.76l0.33-1.5l-8.54-0.89L35.21,105.83z"/>
<path d="M38.04,77.36c4.54,0.08,8.44,1.41,10.6,6.11l0.24-1.11c0.2-0.92,0.04-1.88-0.43-2.68l-0.48-0.64 c-2.51-2.72-6.24-3.91-9.72-3.75L38.04,77.36z"/>
<path d="M39.1,75.89l3.7,0.42l-1.68,14.61l-3.7-0.42L39.1,75.89z"/>
<path d="M39.56,76.22l2.73,0.31l-1.55,13.51L38,89.73L39.56,76.22z"/>
<path d="M42.28,76.53l0.52-0.22"/>
<path d="M39.1,75.89l0.46,0.33"/>
<path d="M37.42,90.5L38,89.73"/>
<path d="M41.12,90.92l-0.46-0.89"/>
</g><g id="No-Device_Attachment_Heavy_Gauntlet_Right" class="option">
</g>
</g></g>
</g>
<g id="GauntletsDecals" mask="url(#GauntletsMask)">
</g>
<g id="Shins">
<g id="Left-Shin"><g id="Legacy_Shin_Left" class="option">
<path id="Plate-3_Legacy-Shin_Left" d="M105.29,198.57l3.46,16.16c0,0,5.05,1.25,7.82,1.07 c2.77-0.19,6.52-1.47,6.52-1.47l-0.74-17.24l-7.58,4.18L105.29,198.57" fill="#661010"/>
<path id="Plate-2_Legacy-Shin_Left" d="M102.6,188.57l2,9.8l10.17,2.89l8.24-4.54l-0.3-9.81l-9.21,4.15 L102.6,188.57" fill="#000000"/>
<path id="Plate-1_Legacy-Shin_Left" d="M107.02,175.14l-6.55,6.46l1.42,6.81l11.61,2.66l9.85-4.44l-0.22-8.3 l-7.38-4L107.02,175.14" fill="#8C1D1D"/>
<path id="Trauma-Plate-3_Legacy-Shin_Left" class="toggle" style="display:none" d="M120.72,199.99l-5.09,2.8c-0.41,0.23-0.89,0.28-1.34,0.15 l-6.66-1.89l2.62,12.22c1.54,0.34,4.4,0.89,6.21,0.77c1.61-0.11,3.57-0.62,4.82-0.99L120.72,199.99"/>
<path id="Trauma-Plate-2_Legacy-Shin_Left" class="toggle" style="" d="M121.03,189.6l-6.8,3.06c-0.35,0.16-0.75,0.2-1.12,0.11 l-8.23-1.88l1.24,6.09l8.44,2.4l6.66-3.67L121.03,189.6" fill="#661010"/>
<path id="Trauma-Plate-1_Legacy-Shin_Left" class="toggle" style="" d="M107.82,176.82l-5.42,5.35l1,4.77l9.92,2.27l8.24-3.71 l-0.17-6.13l-6.01-3.26L107.82,176.82" fill="#661010"/>
<g id="Ridge_Legacy-Shin_Left" class="toggle" style="display:none"/>
</g></g>
<g id="Right-Shin"><g id="Legacy_Shin_Right" class="option">
<path id="Plate-3_Legacy-Shin_Right" d="M64.71,198.57l-3.46,16.16c0,0-5.05,1.25-7.82,1.07 c-2.77-0.19-6.52-1.47-6.52-1.47l0.74-17.24l7.58,4.18L64.71,198.57" fill="#000000"/>
<path id="Plate-2_Legacy-Shin_Right" d="M67.4,188.57l-2,9.8l-10.17,2.89l-8.24-4.54l0.3-9.81l9.21,4.15 L67.4,188.57" fill="#828181"/>
<path id="Plate-1_Legacy-Shin_Right" d="M62.98,175.14l6.55,6.46l-1.42,6.81l-11.61,2.66l-9.85-4.44l0.22-8.31 l7.38-4L62.98,175.14" fill="#8C1D1D"/>
<path id="Trauma-Plate-3_Legacy-Shin_Right" class="toggle" style="" d="M49.28,199.99l5.09,2.8c0.41,0.23,0.89,0.28,1.34,0.15 l6.66-1.89l-2.62,12.22c-1.54,0.34-4.4,0.89-6.21,0.77c-1.61-0.11-3.57-0.62-4.82-0.99L49.28,199.99" fill="#661010"/>
<path id="Trauma-Plate-2_Legacy-Shin_Right" class="toggle" style="" d="M48.97,189.6l6.8,3.06c0.35,0.16,0.75,0.2,1.12,0.11 l8.23-1.88l-1.24,6.09l-8.44,2.4l-6.66-3.67L48.97,189.6" fill="#661010"/>
<path id="Trauma-Plate-1_Legacy-Shin_Right" class="toggle" style="" d="M62.19,176.82l5.42,5.35l-1,4.77l-9.92,2.27l-8.24-3.71 l0.17-6.13l6.01-3.26L62.19,176.82" fill="#661010"/>
<g id="Ridge_Legacy-Shin_Right" class="toggle" style="display:none"/>
</g></g>
</g>
<g id="ShinsDecals" mask="url(#ShinsMask)">
</g>
<g id="Foot">
<g id="Left-Ankle"><g id="Heavy_Ankle_Left" class="option">
<path id="Plate_Heavy-Ankle_Left" d="M107.71,219.76l0.31,3.13l6.46,8.04l6.29-2.82l6.85-1.76l-5.17-9.15 c-2.61-0.36-5.65-0.05-9.17,1l-1.95,1.71L107.71,219.76" fill="#661010"/>
<path id="Trim_Heavy-Ankle_Left" d="M113.28,218.22l0.74,0.89l-2.3,1.95l-2.61-0.11l0.09,1.27l5.6,6.88l5.61-2.61 l6.76-1.6l0.7,1.41l-7.09,1.83l-6.29,2.82l-6.46-8.04l-0.31-3.13l3.61,0.16L113.28,218.22" fill="#8C1D1D"/>
</g></g>
<g id="Left-Toe"><g id="None_Toe_Left" class="option">
</g>
</g>
<g id="Right-Ankle"><g id="Heavy_Ankle_Right" class="option">
<path id="Plate_Heavy-Ankle_Right" d="M62.35,219.76l-0.31,3.13l-6.46,8.04l-6.29-2.82l-6.85-1.76l5.17-9.15 c2.61-0.36,5.65-0.05,9.17,1l1.95,1.71L62.35,219.76" fill="#661010"/>
<path id="Trim_Heavy-Ankle_Right" d="M56.78,218.22l-0.74,0.89l2.3,1.95l2.61-0.11l-0.09,1.27l-5.6,6.88 l-5.62-2.61l-6.76-1.6l-0.7,1.41l7.1,1.83l6.29,2.82l6.46-8.04l0.31-3.13l-3.61,0.16L56.78,218.22" fill="#8C1D1D"/>
</g></g>
<g id="Right-Toe"><g id="Spikes_Toe_Right" class="option" fill="#8D4608">
<path d="M40.55,239.91c-2.97-0.51-5.96-1.22-8.98-2.11c-0.23-0.07-0.48-0.02-0.67,0.12 c-0.19,0.14-0.31,0.36-0.32,0.6c0,0,0,0,0,0c-0.02,0.62,0.35,1.19,0.93,1.43c1.96,0.75,4.3,1.31,6.94,1.71 c0.51,0.08,1.04-0.07,1.44-0.4C40.29,240.91,40.53,240.43,40.55,239.91C40.55,239.91,40.55,239.91,40.55,239.91"/>
<path d="M35.53,241.93c0,0,2.92-0.33,4.02-0.45c0.33-0.04,0.58-0.34,0.55-0.67c-0.09-0.63-0.52-0.93-1.35-0.87 c-0.11,0.01-0.21,0.04-0.3,0.1C37.92,240.36,35.53,241.93,35.53,241.93"/>
<path d="M28.23,239.8c0,0,2.55-0.22,3.57-0.31c0.18-0.01,0.35-0.11,0.45-0.26c0.1-0.15,0.13-0.34,0.08-0.52 c-0.18-0.36-0.52-0.54-1.1-0.5c-0.1,0-0.19,0.03-0.28,0.08C30.51,238.51,28.23,239.8,28.23,239.8"/>
</g></g>
</g>
<g id="FootDecals" mask="url(#FootMask)">
</g>
<g id="Knees">
<g id="Left-Knee"><g id="Basic_Knee_Left" class="option">
<g id="Missiles_Basic-Knee_Left" class="toggle" style="">
<path id="Base_Missiles_Basic-Knee_Left" d="M119.65,156.53c0.01,0.04,0.02,0.09,0.02,0.13 c0.2,2.01,0.56,6.29,0.42,9.97l2.39-1.43c0.39-0.23,0.62-0.65,0.61-1.1c-0.03-1.37-0.1-4.35-0.13-5.91 c-0.01-0.59-0.44-1.09-1.02-1.21L119.65,156.53z" fill="#661010"/>
<g id="Missile-2_Missiles_Basic-Knee_Left" fill="#B5BB0C">
<path d="M121.33,162.29c-0.59,0.07-1.01,0.6-0.93,1.19c0.07,0.59,0.62,1.01,1.21,0.94 c0.59-0.07,1.01-0.61,0.93-1.19C122.46,162.64,121.92,162.22,121.33,162.29z"/>
<path d="M121.39,162.64c-0.4,0.05-0.68,0.41-0.63,0.8c0.05,0.39,0.42,0.68,0.81,0.63c0.4-0.05,0.68-0.41,0.63-0.8 C122.15,162.88,121.78,162.6,121.39,162.64z"/>
</g>
<g id="Missile-1_Missiles_Basic-Knee_Left" fill="#B5BB0C">
<path d="M121.19,157.64c-0.59,0.07-1.01,0.6-0.93,1.19c0.07,0.59,0.62,1.01,1.21,0.94 c0.59-0.07,1.01-0.61,0.93-1.19C122.33,157.99,121.79,157.57,121.19,157.64z"/>
<path d="M121.25,157.99c-0.4,0.05-0.68,0.41-0.63,0.8c0.05,0.4,0.41,0.68,0.81,0.63c0.4-0.05,0.68-0.41,0.63-0.8 C122.01,158.22,121.65,157.94,121.25,157.99z"/>
</g>
</g>
<g id="Knee_Basic-Knee_Left" fill="#661010">
<path d="M97.4,158.73l1.49-0.24c0,0,1.12,7.19,1.62,10.38c0.13,0.82-0.43,1.6-1.25,1.73h0L97.4,158.73z"/>
<path d="M98.84,158.2l0.85,5.33c1.09-0.61,3.84,0.51,4.74,3.72c1.65,5.89,3.08,7.24,8.25,6.71 c4.02-0.41,6.89-2.29,7.22-5.05c0.49-4.07-0.01-9.98-0.26-12.36c-0.03-0.27-0.17-0.52-0.38-0.7c-0.22-0.17-0.49-0.25-0.77-0.21 C114.3,156.18,98.84,158.2,98.84,158.2z"/>
<path d="M98.33,158.27l0.51-0.08l0.95,5.77l-0.51,0.08L98.33,158.27z"/>
</g>
</g>
</g>
<g id="Right-Knee"><g id="Legacy_Knee_Right" class="option">
<g id="Missiles_Legacy-Knee_Right" class="toggle" style="display:none"/>
<path id="Plate-2_Legacy-Knee_Right" d="M51.41,162.91l4.17-2.89l9.31,1.44l3.63,4.1l-2.99,10.01h-7.37l-6.96-2.21 L51.41,162.91z" fill="#661010"/>
<path id="Plate-1_Legacy-Knee_Right" d="M50,156.14l5.34-3.71l11.94,1.84l4.65,5.25l-3.83,12.83l-9.72-0.09 l-8.64-2.75L50,156.14z" fill="#651212"/>
</g></g>
</g>
<g id="KneesDecals" mask="url(#KneesMask)">
</g>
<g id="Thighs">
<g id="Left-Thigh"><g id="Legacy_Thigh_Left" class="option">
<path id="Plate-3_Legacy-Thigh_Left" d="M96.37,139.98l1.9,11l10.72,1.66l8.66-3.76l0.42-11.24l-9.86,4.6 L96.37,139.98" fill="#661010"/>
<path id="Plate-2_Legacy-Thigh_Left" d="M93.99,129.38l1.83,10.5l12.4,2.37l10.42-4.87l0.51-12.79l-11.78,7.48 L93.99,129.38" fill="#828181"/>
<path id="Plate-1_Legacy-Thigh_Left" d="M120.27,114.15l-9.17-7.97l-12.25,2l-7.03,11.56l1.76,9.56l13.79,2.77 l12.32-7.82L120.27,114.15" fill="#000000"/>
<path id="Trauma-Plate-3_Legacy-Thigh_Left" class="toggle" style="display:none" d="M115.98,141.07l-7.04,3.29c-0.33,0.15-0.7,0.2-1.05,0.13 l-9.05-1.73l1.07,6.19l8.85,1.37l6.99-3.04L115.98,141.07"/>
<path id="Trauma-Plate-2_Legacy-Thigh_Left" class="toggle" style="" d="M117.03,128.52l-8.72,5.54 c-0.39,0.25-0.84,0.33-1.27,0.25l-10.56-2.12l0.99,5.7l10.52,2.01l8.75-4.09L117.03,128.52" fill="#661010"/>
<path id="Trauma-Plate-1_Legacy-Thigh_Left" class="toggle" style="" d="M99.96,110.29l-6.05,9.95l1.31,7.08l11.81,2.37 l10.78-6.84l0.43-7.62l-7.67-6.67L99.96,110.29" fill="#661010"/>
<g id="Ridge_Legacy-Thigh_Left" class="toggle" style="display:none"/>
</g></g>
<g id="Right-Thigh"><g id="Legacy_Thigh_Right" class="option">
<path id="Plate-3_Legacy-Thigh_Right" d="M73.63,139.98l-1.9,11l-10.72,1.66l-8.66-3.76l-0.42-11.24l9.86,4.6 L73.63,139.98" fill="#000000"/>
<path id="Plate-2_Legacy-Thigh_Right" d="M76.01,129.38l-1.83,10.5l-12.4,2.37l-10.42-4.87l-0.51-12.79l11.78,7.48 L76.01,129.38" fill="#000000"/>
<path id="Plate-1_Legacy-Thigh_Right" d="M49.73,114.15l9.17-7.97l12.25,2l7.03,11.56l-1.76,9.56l-13.79,2.77 l-12.32-7.82L49.73,114.15" fill="#661010"/>
<path id="Trauma-Plate-3_Legacy-Thigh_Right" class="toggle" style="" d="M54.02,141.07l7.03,3.29c0.33,0.15,0.7,0.2,1.05,0.13 l9.05-1.73l-1.07,6.19l-8.85,1.37l-6.99-3.04L54.02,141.07" fill="#661010"/>
<path id="Trauma-Plate-2_Legacy-Thigh_Right" class="toggle" style="" d="M52.97,128.52l8.72,5.54c0.39,0.25,0.84,0.33,1.28,0.25 l10.56-2.12l-0.99,5.7l-10.52,2.01l-8.75-4.09L52.97,128.52" fill="#661010"/>
<path id="Trauma-Plate-1_Legacy-Thigh_Right" class="toggle" style="display:none" d="M70.04,110.29l6.05,9.95l-1.31,7.08l-11.81,2.37 l-10.78-6.84l-0.43-7.62l7.67-6.67L70.04,110.29"/>
<g id="Ridge_Legacy-Thigh_Right" class="toggle" style="display:none"/>
</g></g>
</g>
<g id="ThighsDecals" mask="url(#ThighsMask)">
</g>
<g id="Groin"><g id="Basic_Groin" class="option">
<path id="Groin-Plate_Basic" d="M78.57,104.6L67.72,82.91h34.71L91.58,104.6c0,0-4.33,5.17-6.5,5.17 C82.91,109.76,78.57,104.6,78.57,104.6z" fill="#8C1D1D"/>
<path id="Trauma-Plating_Groin" class="toggle" style="" d="M90.42,103.84l9.8-19.57H69.93l9.79,19.57c0.43,0.5,2.16,2.47,3.82,3.72 c0.58,0.44,1.1,0.84,1.53,0.84c0.44,0,0.95-0.4,1.53-0.84C88.26,106.32,89.99,104.34,90.42,103.84" fill="#661010"/>
</g>
</g>
<g id="GroinDecals" mask="url(#GroinMask)">
</g>
<g id="Waist">
<g id="Accessories_Waist">
<g id="Kama" class="toggle" style="display:none"/>
<g id="Loin-Cloth" class="toggle" style="display:none"/>
<g id="Left-Holster" class="toggle" style="display:none"/>
<g id="Right-Holster" class="toggle" style=""><g id="Hanging-Holster_Right" class="option">
<g id="Weapon_Hanging-Holster-Right">
<g id="Main_Weapon_Hanging-Holster-Right" fill="#A3A3A3">
<path d="M51.58,115.51l-0.17-3.74l-0.65,0.03l-0.11-2.35l0.65-0.03l-0.06-1.22c-0.02-0.4-0.56-0.69-1.22-0.66 c-1.51,0.07-4.08,0.19-5.58,0.26c-0.66,0.03-1.17,0.38-1.16,0.77l0.06,1.22l0.65-0.03l0.11,2.35l-0.65,0.03l0.17,3.74 l1.52-0.07l0.48,10.35l4.92-0.23l-0.48-10.35L51.58,115.51z"/>
<path d="M44.24,115.3l0.87-0.04l0.58,12.43l4.92-0.23l-0.58-12.44l0.87-0.04l-0.13-2.84l-6.67,0.31L44.24,115.3z"/>
<path d="M45.29,108.56l3.95-0.18l0.18,3.84l-3.95,0.18L45.29,108.56z"/>
<path d="M48.96,116.2l0.65-0.03l0.45,9.78l-0.65,0.03L48.96,116.2z"/>
<path d="M47.2,114.05l0.65-0.03l0.45,9.78l-0.65,0.03L47.2,114.05z"/>
<path d="M45.65,116.36l0.65-0.03l0.45,9.78l-0.65,0.03L45.65,116.36z"/>
</g>
<g id="Accent_Weapon_Hanging-Holster-Right" fill="#661010">
<path d="M48.85,112.64l0.02,0.39l-2.78,0.13l-0.02-0.39L48.85,112.64z"/>
<path d="M48.87,113.03l0.02,0.39l-2.78,0.13l-0.02-0.39L48.87,113.03z"/>
<path d="M48.84,112.25l0.02,0.39l-2.78,0.13l-0.02-0.39L48.84,112.25z"/>
<path d="M48.61,107.43l0.02,0.39l-2.78,0.13l-0.02-0.39L48.61,107.43z"/>
<path d="M48.59,108.41l0.65-0.03l0.18,3.84l-0.65,0.03L48.59,108.41z"/>
<path d="M45.29,108.56l0.65-0.03l0.18,3.84l-0.65,0.03L45.29,108.56z"/>
<path d="M46.3,116.33l0.98-0.04l0.45,9.78l-0.98,0.04L46.3,116.33z"/>
<path d="M47.97,116.25l0.98-0.05l0.45,9.78l-0.98,0.04L47.97,116.25z"/>
</g>
</g>
<path id="Holster_Hanging-Holster-Right" d="M51.54,129.93l0.79-15.75l-7.32,11.86l1.62,21.43 c1.71,1.78,3.39,1.79,5.04-0.19L51.54,129.93z" fill="#000000"/>
<g id="Straps_Hanging-Holster-Right" fill="#8D4608">
<path d="M79.54,88.76c-8.01,11.42-16.07,21.09-27.21,25.41l-0.13,2.7c13.85-5.81,21.28-15.64,29.47-28.11H79.54z"/>
<path d="M51.59,133.13c7.49,5.7,15.58,8.8,25.28,9.32l-0.69,2.14c-8.39-0.76-16.22-3.85-24.59-9.21V133.13z"/>
<path d="M51.59,135.38l-0.02-2.25c-1.94,0.86-4.21,0.92-5.99,0.29l0.17,2.3 C47.67,136.21,49.85,136.24,51.59,135.38z"/>
</g>
<g id="Buckle_Hanging-Holster-Right" fill="#797C27">
<path d="M69.09,142.34l1.05,0.16l-0.05,0.34l-1.05-0.16L69.09,142.34"/>
<path d="M71.96,100.3l0.73-0.96l0.28,0.21l-0.73,0.96L71.96,100.3"/>
<path d="M72.23,100.51l1.19,0.96l2.8-3.44l-2.7-2.18l-2.8,3.44l1.24,1l0.6-0.79l-0.61-0.49l1.54-1.9l1.49,1.2 l-1.55,1.9l-0.61-0.49L72.23,100.51"/>
<path d="M69.13,142.34l0.83,0.12l0.12-0.81l2.01,0.43l-0.28,1.88l-2.01-0.43l0.11-0.73l-0.83-0.12l-0.22,1.44 l3.66,0.78l0.51-3.41l-3.66-0.78L69.13,142.34"/>
</g>
</g></g>
<g id="Left-Trophy" class="toggle" style="display:none"/>
<g id="Right-Trophy" class="toggle" style="display:none"/>
</g>
<g id="Under-Belt"><g id="Girth-Belt" class="option" fill="#A3A3A3">
<path d="M85.04,76.62c-7.36,0-22.09-1.86-22.09-1.86l0.48-1.58c0,0,14.37,1.24,21.61,1.86 c7.21-0.62,21.61-1.86,21.61-1.86l0.48,1.58C107.13,74.76,92.4,76.62,85.04,76.62z"/>
<path d="M85.04,78.2c-7.52,0-22.55-1.86-22.55-1.86l0.46-1.58c0,0,18.41,1.55,22.09,1.86 c3.68-0.31,22.09-1.86,22.09-1.86l0.46,1.58C107.59,76.34,92.56,78.2,85.04,78.2z"/>
<path d="M85.04,79.78c-7.63,0-22.9-1.86-22.9-1.86l0.34-1.58c0,0,18.79,1.55,22.55,1.86 c3.76-0.31,22.55-1.86,22.55-1.86l0.34,1.58C107.94,77.92,92.67,79.78,85.04,79.78z"/>
<path d="M85.04,81.36c-7.73,0-23.18-1.86-23.18-1.86l0.29-1.58c0,0,19.08,1.55,22.9,1.86 c3.82-0.31,22.9-1.86,22.9-1.86l0.29,1.58C108.22,79.49,92.77,81.36,85.04,81.36z"/>
<path d="M85.04,82.94c-7.81,0-23.44-1.86-23.44-1.86l0.26-1.58c0,0,19.32,1.55,23.18,1.86 c3.86-0.31,23.18-1.86,23.18-1.86l0.26,1.58C108.49,81.07,92.86,82.94,85.04,82.94z"/>
<path d="M85.04,84.52c-7.9,0-23.69-1.86-23.69-1.86l0.25-1.58c0,0,19.54,1.55,23.44,1.86 c3.91-0.31,23.44-1.86,23.44-1.86l0.25,1.58C108.73,82.65,92.94,84.52,85.04,84.52z"/>
<path d="M85.04,86.1c-7.98,0-23.93-1.86-23.93-1.86l0.24-1.58c0,0,19.74,1.55,23.69,1.86 c3.95-0.31,23.69-1.86,23.69-1.86l0.24,1.58C108.97,84.23,93.02,86.1,85.04,86.1z"/>
<path d="M85.04,87.68c-8.06,0-24.18-1.86-24.18-1.86l0.25-1.58c0,0,19.94,1.55,23.93,1.86 c3.99-0.31,23.93-1.86,23.93-1.86l0.25,1.58C109.22,85.81,93.1,87.68,85.04,87.68z"/>
<path d="M85.04,89.25c-8.15,0-24.45-1.86-24.45-1.86l0.27-1.58c0,0,20.15,1.55,24.18,1.86 c4.03-0.31,24.18-1.86,24.18-1.86l0.27,1.58C109.49,87.39,93.19,89.25,85.04,89.25z"/>
<path d="M85.04,90.83c-8.25,0-24.76-1.86-24.76-1.86l0.31-1.58c0,0,20.38,1.55,24.45,1.86 c4.08-0.31,24.45-1.86,24.45-1.86l0.31,1.58C109.8,88.97,93.29,90.83,85.04,90.83z"/>
</g>
</g>
<g id="Belt"><g id="Pouch-Belt-2" class="option">
<path id="Main_Pouch-Belt-2" d="M109.38,84.25c-5.47,0.49-17.98,2.27-24.29,2.27c-6.38,0-18.88-1.79-24.28-2.26 l0.81-6.37c4.44,0.39,17.3,2.2,23.48,2.2c5.99,0,18.59-1.79,23.33-2.22L109.38,84.25z" fill="#000000"/>
<rect id="Buckle_Pouch-Belt-2" x="80.61" y="79.49" width="9.05" height="7.39" fill="#828181"/>
<g id="Pouches_Pouch-Belt-2" fill="#1A0101">
<g>
<path d="M58.83,77.31l0.44-0.68l2.27,0.07l0.28,0.85L58.83,77.31z"/>
<path d="M61.81,77.64c0.01-0.06-0.01-0.11-0.05-0.16c-0.04-0.04-0.09-0.07-0.15-0.07 c-0.69-0.03-2.78-0.11-2.78-0.11l-0.4,8.96c0.11,0.27,1.76,0.43,2.69,0.39c0.11-0.01,0.19-0.09,0.19-0.2 C61.37,83.51,61.47,80.57,61.81,77.64z"/>
</g>
<g>
<path d="M111.35,77.31l-0.44-0.68l-2.27,0.07l-0.28,0.85L111.35,77.31z"/>
<path d="M108.38,77.64c-0.01-0.06,0.01-0.11,0.05-0.16c0.04-0.04,0.09-0.07,0.15-0.07 c0.69-0.03,2.78-0.11,2.78-0.11l0.4,8.96c-0.11,0.27-1.75,0.43-2.68,0.39c-0.11-0.01-0.19-0.09-0.19-0.2 C108.81,83.51,108.71,80.57,108.38,77.64z"/>
</g>
</g>
</g></g>
</g>
<g id="WaistDecals" mask="url(#WaistMask)">
</g>
<g id="Extras_Front">
<g id="Front">
<g id="Shoulder-Cape-Left_Front" class="option" fill="#2C0404">
<path d="M105.52,55.25c-0.99-5.87-7.46-38.46,4.54-43.23c2.26-0.9,7.01,0.52,8.06,0.58 c2.44,0.15,12.89,10.36,14.11,12.36c1.54,2.52,2.37,4.73,4.09,7.57c4.76,7.85,7.87,13.56,10.34,21.37 c2.27,7.2,5.1,14.87,7.67,21.73c2.91,7.76,4.29,13.2,6.8,21.11c1.36,4.28,3.36,13.24,5.33,21.47c1.78,7.47,5.23,13.48,0.94,16.22 c-4.32,2.76-10.37,9.62-14.65,12.71c-4.44,3.2-21.28,1.27-25.39,3.8c-1.27,0.78-9.64,0.94-9.59,0.71 c0.54-2.53-1.66-9.03-2.58-16.2c-1.16-9.02-2.41-15.15-3.46-24.21c-0.7-6.05-0.14-9.16-1.41-15.08 c-1.41-6.58-1.77-14.14-3.56-20.59C104.99,69.2,106.63,61.87,105.52,55.25z"/>
<path d="M144.73,98.73c-0.92-3.67-2.34-8.95-0.73-12.63c1.26-2.89,6.55,3.29,6.96,4.61 c1.04,3.34-0.23,7.03-0.59,10.39c-0.4,3.73-0.34,7.48,0.38,11.18c0.89,4.53,1.96,9.17,3.75,13.44c2.04,4.88,5.4,9.4,5.65,14.83"/>
<path d="M138.26,141.39c-0.85,0.81-1.81,1.1-2.98,0.97c-5.77-0.64-6.53-10.3-6.23-14.62c0.5-7,1.98-13.77,1.43-20.85 c-0.74-9.59-4.42-20.12-5.88-29.87c-1.1-7.36-0.71-15.02-2.38-22.27c-1.09-4.72-9.66-24.23-12.32-27.88"/>
<path d="M127.88,42.05c3.17,8.08,6.21,15.46,7.1,24.19c0.5,4.95,0.85,9.99,0.77,14.96 c-0.05,3.65-0.68,7.35-0.09,10.99c1.27,7.84,5.82,14.81,7.36,22.65"/>
<path d="M158.64,106.91c0.21,10.1,4.57,18.96,7.32,28.51"/>
<path d="M129.95,22.3c1.95,3.3,1.97,7.1,2.7,10.56c0.75,3.54,0.59,7.42,1.99,10.81c1.39,3.36,3.78,6.17,5.6,9.28 c2.93,4.99,3.97,10.51,4.48,16.2"/>
</g></g>
</g>
<g id="Extras-FrontDecals" mask="url(#FrontMask)">
</g>
</g>
</svg>