<?xml version='1.0' encoding='UTF-8'?>
<svg version="1.1" id="Male-Body" xmlns="http://www.w3.org/2000/svg" xmlns:serif="http://www.serif.com/" viewBox="0 -55 170 310" style="stroke-width: 0.2px; fill-rule: evenodd; stroke-linejoin: round;" width="510" height="930">
<style>
mask {
mask-type: alpha;
}
.decal {
stroke: none;
}
</style>
<defs id="Masks" stroke="none">
<mask id="HelmetsMask"> <use href="#Helmets"/> </mask>
<mask id="CollarMask"> <use href="#Collar"/> </mask>
<mask id="ShouldersMask"> <use href="#Shoulders"/> </mask>
<mask id="ChestMask"> <use href="#Chest"/> </mask>
<mask id="BicepsMask"> <use href="#Biceps"/> </mask>
<mask id="GauntletsMask"> <use href="#Gauntlets"/> </mask>
<mask id="WaistMask"> <use href="#Waist"/> </mask>
<mask id="GroinMask"> <use href="#Groin"/> </mask>
<mask id="ThighsMask"> <use href="#Thighs"/> </mask>
<mask id="KneesMask"> <use href="#Knees"/> </mask>
<mask id="ShinsMask"> <use href="#Shins"/> </mask>
<mask id="FootMask"> <use href="#Foot"/> </mask>
</defs>
<defs id="Decals"/><metadata><rdf:rdf xmlns:rdf="http://www.w3.org/1999/02/22-rdf-syntax-ns#" xmlns:rdfs="http://www.w3.org/2000/01/rdf-schema#" xmlns:dc="http://purl.org/dc/elements/1.1/"><rdf:description><dc:creator>MandoCreator</dc:creator><dc:publisher>https://www.mandocreator.com</dc:publisher><dc:description>Your Beskar'gam - created by MandoCreator</dc:description><dc:format>image/svg+xml</dc:format><dc:type>Image</dc:type><dc:title>MandoCreator - Ner Berskar'gam</dc:title><dc:date>2022-03-14T14:37:18.890Z</dc:date></rdf:description></rdf:rdf></metadata><g id="Main-Body" fill="white" stroke="black">
<g id="Extras_Back">
<g id="Back"><path id="Torn-Full-Cape_Back" class="option" d="M68.3 16.3c-11.77 4.4-24.85 25.6-26.46 41.8-1.01 10.2-6.03 20.5-5.53 30.7.5 10.3-4.73 21-5.13 31.2-.3 9.3-3.12 13.5-4.73 22.7-2.41 13.7-5.03 22.7-7.14 36.5a59.51 59.51 0 0 1-9.25 23.3c-.1.1 2.52-1.2 5.63-1.2.91 0 5.53-6.7 5.53-6.7s5.73 4.7 6.94 7.4c1.51-1 2.72-15.2 4.53-15.7.91-.3 2.62 17.8 2.62 17.8s2.72-5.4 3.82-5.4c2.31 0 6.44 2 8.75 2.3 2.41.3 5.03-3.8 7.74-3.1 4.12 1 8.25.9 12.37 1.5 2.92.4 5.83 6 8.75 6 3.62 0 3.12-8.4 6.84-9.2 3.12-.7 7.44 6.8 7.44 6.8s1-24.9 4.12-26c4.12-1.3 19.51 18.8 23.74 18.4 1.31-.1 2.92-12.7 4.12-12.7 2.72.1 5.03 13 7.74 13.5 3.32.6 5.03-5.6 8.25-4.8.9.2 3.52 7.6 4.53 7.8 2.01.5 4.83 1.7 7.04 1.5.1 0-.7-4.9-.8-5.4-.5-2.3-1.21-4.6-2.21-6.8a55.2 55.2 0 0 0-4.02-7.6c-7.14-11.2-4.63-23.4-5.94-36.6-1.21-12.8.1-25.6-2.11-38.4-1.91-11.3-8.65-21.8-10.36-33.2-2-13.4-6.52-27.7-10.65-40.7-5.03-15.9-34.4-20.1-46.17-15.7zM71.62 186c-.9 2.4-1.31 4.9-1.01 7.5.1 1.2.5 2.4 1.01 3.4.1.1.1.4.2.3 4.43-3.9-.2-11.2-.2-11.2zm-34.5-24.2c-.4 7.7-1.11 15.5-1.11 23.2 0 1.4 0 2.9.2 4.3 0 .2.2 2.3.4 2.3 2.62-.5 1.41-7.7 2.01-9.9 2.02-7.6-1.5-19.9-1.5-19.9zm92.24 26.8c-.2 2.8.6 2.5 1.31 1.1.7-1.4 1.31-3.9.6-5.5l-1.91 4.4zm-11.47-24.4c-.6 4.6.4 8.6.71 13.2.1 1.5.1 3 .1 4.5v1.5c0 .3-.2 1 0 .8 3.52-3.6 3.12-10.7 2.01-15.2l-2.82-4.8zm-42.04 13.7c0 1.2 0 2.4.1 3.6.3 2.4 1.71-1.4 1.71-2.3 0-1.3-.81-2.8-1.21-4.1l-.6 2.8z" fill="#ABA26C"/></g>
</g>
<g id="Extras-BackDecals" mask="url(#BackMask)"/>
<g id="Suit">
<g id="Neck-Seal"><g id="Standard-Neck-Seal" class="option" fill="#1F1F1F">
<path d="M98.75 7.5c0-.9-.93-1.62-2.07-1.62 0 0-7.8.85-11.7.85s-11.7-.85-11.7-.85c-1.14 0-2.07.73-2.07 1.62s.93 1.62 2.07 1.62c0 0 7.8.85 11.7.85s11.7-.85 11.7-.85c1.15.01 2.07-.72 2.07-1.62z"/>
<path d="M99.45 9.4c0-.94-.97-1.71-2.17-1.71 0 0-8.2.9-12.29.9s-12.3-.89-12.3-.89c-1.2 0-2.17.76-2.17 1.71s.97 1.71 2.17 1.71c0 0 8.2.9 12.29.9s12.29-.9 12.29-.9c1.21-.01 2.18-.78 2.18-1.72z"/>
<path d="M100.24 11.76c0-.99-1.03-1.8-2.29-1.8 0 0-8.64.95-12.96.95s-12.97-.95-12.97-.95c-1.26 0-2.29.81-2.29 1.8s1.03 1.8 2.29 1.8c0 0 8.64.95 12.97.95s12.96-.95 12.96-.95c1.26 0 2.29-.81 2.29-1.8z"/>
<path d="M101 13.92c0-1.04-1.08-1.89-2.41-1.89 0 0-9.08.99-13.61.99s-13.61-.99-13.61-.99c-1.33 0-2.41.85-2.41 1.89s1.08 1.89 2.41 1.89c0 0 9.08.99 13.61.99s13.61-.99 13.61-.99c1.34 0 2.41-.85 2.41-1.89z"/>
<path d="M101.76 16.04c0-.79-1.13-1.43-2.52-1.43 0 0-9.51.75-14.26.75s-14.26-.75-14.26-.75c-1.39 0-2.52.64-2.52 1.43 0 .79 1.13 1.43 2.52 1.43 0 0 9.51.75 14.26.75s14.26-.75 14.26-.75c1.39 0 2.52-.64 2.52-1.43z"/>
<path d="M101.76 18.42c0-.79-1.13-1.43-2.52-1.43 0 0-9.51.75-14.26.75s-14.26-.75-14.26-.75c-1.39 0-2.52.64-2.52 1.43 0 .79 1.13 1.43 2.52 1.43 0 0 9.51 1.44 14.26 1.44s14.26-1.44 14.26-1.44c1.39-.01 2.52-.64 2.52-1.43z"/>
</g>
</g>
<path id="Flight-Suit" d="m73.36 158.45-1.49 8.72-11.03 53.11s-4.93 2.96-7.47 3.46c-2.53.5-7.73-.44-7.73-.44l3.85-43 2.9-18.36.66-7.82s-2.53-22.78-1.7-34.14c.82-11.36 6.66-34.01 6.66-34.01l26.98.58 26.97-.58s5.83 22.66 6.66 34.01c.83 11.36-1.7 34.14-1.7 34.14l.66 7.82 2.9 18.36 3.85 43s-5.32 1.19-7.85.69c-2.53-.5-7.34-3.71-7.34-3.71L98.1 167.16l-1.49-8.72-11.62-30.33-11.63 30.34zm56.05-115.12 11.98 41.65 1.04 21.47-9.55 1.83-6.05-20.21-13.65-33.95.69-15.55 2.31-3.72 13.23 8.48zm-88.82-.03 13.19-8.45 2.31 3.72.52 16.04-13.44 33.46-6.05 20.21-9.55-1.83 1.03-21.47L40.59 43.3z" fill="#1F1F1F"/>
<g id="Sleeves" class="toggle" fill="#625347">
<path d="m112.2 56.12 2.68 5.9s4.24-3.2 7.06-4.8 4.38-2.62 6.92-3.6a33.81 33.81 0 0 1 5.08-1.47l-6.07-12.25-5.79-9.67-11.58 5.14 1.7 20.75z"/>
<path d="M113.61 59.24c-.2-.24 5.08-4.5 8.61-6.34 3.53-1.84 10.25-3.69 10.25-3.69"/>
<path d="m57.8 56.12-2.68 5.9s-4.24-3.2-7.06-4.8c-2.82-1.59-4.38-2.62-6.92-3.6a33.81 33.81 0 0 0-5.08-1.47l6.07-12.25 5.79-9.67 11.58 5.14-1.7 20.75z"/>
<path d="M56.39 59.24c.2-.24-5.08-4.5-8.61-6.34-3.53-1.84-10.25-3.69-10.25-3.69"/>
</g>
</g>
<g id="Boots"><g id="Gunslinger_Boots" class="option">
<path id="Main_Gunslinger-Boot" d="M107.7 226.61c.04.2.73 3.41 4.27 4.29 1.18.3 3.21-.33 4.48-.98a30.5 30.5 0 0 1 5.44-2.12l.06.08.09.12c.58.81 1.21 1.57 1.89 2.26l.05.05.03.03.21.2c.4.38.81.74 1.23 1.07l.12.09.1.07.09.06.2.14c.88.62 2.06 1.56 3.23 1.39 1.11-.16 2.35-.6 3.28-1.04a8.2 8.2 0 0 0 2.13-1.4c.16-.12.29-.26.39-.44 2.57 1 5.36 1.38 6.73 4.22.3.62.55 1.35.49 2.04-.08.89-1.06 1-1.82 1.2-1.9.51-3.53.89-5.72 1.34-2.5.52-4.76.83-7.29.72-1.89-.08-3.49-.18-5.14-1.19-.66-.41-1.34-.82-1.92-1.35-1.28-1.19-2.11-2.43-3.77-3.15a23.2 23.2 0 0 0-3.71-1.27c-1.8-.45-3.74-.76-4.69-2.54-.73-1.34-.64-2.59-.45-3.89m-45.42 0c-.04.2-.73 3.41-4.27 4.29-1.18.3-3.2-.33-4.48-.98a30.5 30.5 0 0 0-5.44-2.12l-.05.08-.09.12c-.58.81-1.21 1.57-1.89 2.26l-.05.05-.03.03-.21.2c-.4.38-.81.74-1.23 1.07l-.12.09-.1.07-.09.06-.2.14c-.88.62-2.06 1.56-3.23 1.39-1.1-.16-2.35-.6-3.28-1.04a8.2 8.2 0 0 1-2.13-1.4 1.38 1.38 0 0 1-.39-.44c-2.57 1-5.36 1.38-6.73 4.22-.3.62-.55 1.35-.48 2.04.08.89 1.06 1 1.82 1.2 1.9.51 3.53.89 5.72 1.34 2.5.52 4.76.83 7.29.72 1.89-.08 3.49-.18 5.14-1.19.66-.41 1.35-.82 1.92-1.35 1.28-1.19 2.11-2.43 3.77-3.15a23.2 23.2 0 0 1 3.71-1.27c1.8-.45 3.74-.76 4.69-2.54.71-1.34.63-2.59.43-3.89" fill="#302F2F"/>
<path id="Bottom_Gunslinger-Boot" d="M107.64 229.04c.08.49.24.98.51 1.49.95 1.78 2.89 2.09 4.69 2.54 1.27.32 2.51.75 3.71 1.27 1.66.72 2.48 1.96 3.77 3.15.57.53 1.25.94 1.92 1.35 1.65 1.01 3.25 1.11 5.14 1.19 2.53.1 4.78-.2 7.29-.72 2.19-.46 3.82-.84 5.72-1.34.61-.16 1.36-.27 1.67-.76l.36.8.21 1.64s-2.03 1.09-4.2 1.57c-2.16.48-6.53 1.15-6.53 1.15l-.3-.71-.98.21.05.7-2.38.13-.51-.69-.79.02.12.61s-1.47-.02-2.29-.51c-.15-.23-.46-.61-.46-.61l-.56-.31.07.58-2.04-.73-.1-.79-.59-.34-.03.57-1.46-1.12-.16-.69-3.64-2.55-.57 1.33-2.55-.55-.08-.55-.65-.27-.45.42-1.71-.7-.04-.51-.56-.19-.06.37-1.62-1.12-.31-2.23-.07-2.42.46-.68m-45.29 0a4.8 4.8 0 0 1-.51 1.49c-.95 1.78-2.89 2.09-4.69 2.54-1.27.32-2.51.75-3.71 1.27-1.66.72-2.48 1.96-3.77 3.15-.57.53-1.25.94-1.92 1.35-1.65 1.01-3.25 1.11-5.14 1.19-2.53.1-4.78-.2-7.29-.72-2.19-.46-3.83-.84-5.72-1.34-.61-.16-1.36-.27-1.67-.76l-.36.8-.21 1.64s2.03 1.09 4.2 1.57c2.16.48 6.53 1.15 6.53 1.15l.3-.71.98.21-.05.7 2.38.13.51-.69.8.02-.12.61s1.47-.02 2.29-.51c.15-.23.46-.61.46-.61l.56-.31-.07.58 2.04-.73.1-.79.59-.34.02.57 1.46-1.12.16-.69 3.64-2.55.57 1.33 2.55-.55.08-.55.65-.27.45.42 1.71-.7.04-.51.56-.19.07.37 1.62-1.12.31-2.23.07-2.42-.47-.68" fill="#64563A"/>
<path id="Top_Gunslinger-Boot" d="M121.87 227.77a25.53 25.53 0 0 1-4.16-10.29l.61-.05h.02l.07-.01.2-.02.31-.03.13-.02 1.04-.14.54-.1.11-.03.04-.01.08-.02.37-.09.33-.08.06-.01c1.15-.29 2.31-.64 2.31-.64.32 1.48.47 3.17 1.09 4.56.98 2.18 2.78 3.85 4.46 5.51 1.15 1.14 2.28 2.44 3.66 3.31.58.37 1.21.66 1.84.9a7.2 7.2 0 0 1-2.53 1.84c-.93.44-2.17.88-3.28 1.04-1.17.17-2.35-.77-3.23-1.39a17.07 17.07 0 0 1-4.06-4.19l-.01-.04m-73.75 0a25.53 25.53 0 0 0 4.16-10.29l-.61-.05h-.02l-.08-.01-.2-.02-.31-.03-.13-.02-1.04-.14-.54-.1-.11-.03-.04-.01-.08-.02-.37-.09-.33-.08-.06-.01c-1.15-.29-2.31-.64-2.31-.64-.32 1.48-.47 3.17-1.09 4.56-.98 2.18-2.78 3.85-4.46 5.51-1.15 1.14-2.28 2.44-3.66 3.31-.58.37-1.21.66-1.84.9a7.12 7.12 0 0 0 2.53 1.84c.93.44 2.17.88 3.28 1.04 1.17.17 2.35-.77 3.23-1.39a17.07 17.07 0 0 0 4.06-4.19l.02-.04" fill="#222222"/>
<path id="Side_Gunslinger-Boot" d="M121.89 227.8c-1.87.54-3.7 1.24-5.44 2.12-1.27.65-3.3 1.27-4.48.98a5.77 5.77 0 0 1-4.27-4.3c.11-.74.25-1.5.3-2.3.1-1.54-.11-8.21.02-8.14 2.94 1.56 8.18 1.45 9.67 1.33.54 3.37 2.02 7.2 4.2 10.31m-73.8 0c1.87.54 3.7 1.24 5.44 2.12 1.27.65 3.3 1.27 4.48.98a5.77 5.77 0 0 0 4.27-4.3c-.11-.74-.25-1.5-.3-2.3-.1-1.54.11-8.21-.02-8.14-2.94 1.56-8.18 1.45-9.67 1.33a25.55 25.55 0 0 1-4.2 10.31" fill="#222222"/>
</g></g>
<g id="Gloves">
<g id="Left-Glove">
<g id="Fingerless_Left_Glove" class="option">
<g id="Fingers_Fingerless_Left_Glove" fill="#40250E">
<path d="M138.6 124.11a5.98 5.98 0 0 0-1.58.1c-.36.08-.72.16-1.04.35-.99.57-.72 1.81.16 2.28 1.03.55 2.66.01 3.13-1.05.19-.44-.41-1.26-.67-1.68"/>
<path d="M136.79 125.19a5.68 5.68 0 0 0-1.59.1c-.36.08-.72.16-1.04.35-.99.57-.72 1.81.16 2.28 1.03.55 2.66.01 3.13-1.05.2-.44-.4-1.26-.66-1.68"/>
<path d="M135.51 126.62c-.54.05-1.21.17-1.73.35-.35.12-.69.26-.99.48-.9.7-.47 1.89.47 2.24 1.1.41 2.64-.35 2.96-1.46.14-.47-.71-1.61-.71-1.61z"/>
<path d="M129.95 119.82c-.3 1.34-.55 2.07-.55 2.07s-1.38 2.79-1.14 3.43c.24.64 1.45 1.21 2.15.87.86-.42 1.93-2.39 2.61-3.77.25-.51.48-1.1.68-1.64-2.76.4-3.75-.96-3.75-.96zm5.69 6.59c-.2.34-.43.7-.68 1.08-1.36 2.05-3.46 3.81-2.07 5.37 1.29 1.46 4.22-2.37 4.22-2.37l1.36-1.77a3.8 3.8 0 0 1-2.83-2.31z"/>
</g>
<path id="Glove_Fingerless_Left_Glove" d="m138.46 128.72 1.51-1.96s3.3-5.41 3.47-6.46c.13-.8.02-3.47.02-3.47l-1.03-10.37-5.24.44-4.31 1.39-.32 1.77s-1.56 2.15-1.97 3.69c-.29 1.09-.13 3.68-.49 5.43l-.14.65s.99 1.37 3.74.96c.35-.96.58-1.78.58-1.78s.95.32 1.43.7c1.61 1.24.91 4.96.91 4.96s-.37.74-.98 1.75c0 0 .56 1.77 2.82 2.3z" fill="#0C0C0C"/>
</g></g>
<g id="Right-Glove">
<g id="Fingerless_Right_Glove" class="option">
<g id="Fingers_Fingerless_Right_Glove" fill="#40250E">
<path d="M31.4 124.11a5.98 5.98 0 0 1 1.58.1c.36.08.72.16 1.04.35.99.57.72 1.81-.16 2.28-1.03.55-2.66.01-3.13-1.05-.2-.44.41-1.26.67-1.68"/>
<path d="M33.21 125.19a5.59 5.59 0 0 1 2.62.45c.99.57.72 1.81-.16 2.28-1.03.55-2.66.01-3.13-1.05-.19-.44.41-1.26.67-1.68"/>
<path d="M34.49 126.62c.54.05 1.21.17 1.73.35.35.12.69.26.99.48.9.7.47 1.89-.47 2.24-1.1.41-2.64-.35-2.96-1.46-.14-.47.71-1.61.71-1.61z"/>
<path d="M40.05 119.82c.3 1.34.55 2.07.55 2.07s1.38 2.79 1.14 3.43c-.24.64-1.45 1.21-2.15.87-.86-.42-1.93-2.39-2.61-3.77-.25-.51-.48-1.1-.68-1.64 2.76.4 3.75-.96 3.75-.96zm-5.69 6.59c.2.34.43.7.68 1.08 1.36 2.05 3.46 3.81 2.08 5.37-1.29 1.46-4.22-2.37-4.22-2.37l-1.36-1.77a3.79 3.79 0 0 0 2.82-2.31z"/>
</g>
<path id="Glove_Fingerless_Right_Glove" d="m31.54 128.72-1.51-1.96s-3.3-5.41-3.47-6.46c-.13-.8-.02-3.47-.02-3.47l1.03-10.37 5.24.44 4.31 1.39.32 1.77s1.56 2.15 1.97 3.69c.29 1.09.13 3.68.49 5.43l.14.65s-.99 1.37-3.74.96c-.35-.96-.58-1.78-.58-1.78s-.95.32-1.43.7c-1.61 1.24-.91 4.96-.91 4.96s.37.74.98 1.75c0 0-.56 1.77-2.82 2.3z" fill="#0C0C0C"/>
</g></g>
</g>
<g id="Biceps">
<g id="Left-Biceps">
<g id="None_Biceps_Left" class="option"/></g>
<g id="Right-Biceps">
<g id="None_Biceps_Right" class="option"/></g>
</g>
<g id="BicepsDecals" mask="url(#BicepsMask)"/>
<path id="Vest" d="M85 20.92c8.5-.01 15.43-4.3 15.63-8.01l.15.02 18.38 5.42 13.31 23.94-2.86 1.16-13.42-8.6-2.31 3.72-1.54 47.4s-8.72 4.71-13.53 5.35c-3.44.45-8.63.68-13.79.67-5.16.01-10.35-.22-13.79-.67-4.81-.63-13.53-5.35-13.53-5.35l-1.54-47.4-2.31-3.72-13.42 8.6-2.86-1.16 13.31-23.94 18.38-5.42.15-.02c.16 3.71 7.09 8.01 15.59 8.01" fill="#766557"/>
<g id="SuitDecals" mask="url(#SuitMask)"/>
<g class="swappable" id="Chest"><g id="Chest_Galaxy">
<g id="Abdomen_Galaxy">
<path id="Abdomen-Plate_Galaxy" d="m78.03 73.41-2.08 1.5-10.56-1.5-.77-5.8 5-.1 3.03-4.92 1.37-4.53 10.95-9.96.03.01.02-.02 10.95 9.96 1.37 4.53 3.03 4.92 5 .1-.77 5.8-10.56 1.5-2.08-1.5H78.03z" fill="#4E4D4D"/>
<path id="Trauma-Plate_Abdomen_Galaxy" class="toggle" style="" d="m84.98 50.38-9.46 8.61-1.3 4.29-3.63 5.89-4.03.08.35 2.66 8.6 1.22 1.97-1.42h15.04l1.97 1.42 8.6-1.22.35-2.66-4.03-.08-3.63-5.89-1.3-4.29-9.46-8.61-.02.02-.02-.02z" fill="#55725C"/>
</g>
<g id="Full-Chest_Galaxy">
<path id="Chest-Plate_Galaxy" d="m80.61 33.64-.02 10.15 3.21 3.22L72.55 57.6l-1.46 4.89-2.38 3.9h-4.12l-2-2.9-2.55-14.21-3.73-5.81 4.73-15.2 5.46-.69.77-3.36 5.84-.71 1.85 3h20.1l1.85-3 5.84.71.77 3.36 5.46.69 4.73 15.2-3.73 5.81-2.55 14.21-2 2.9h-4.12l-2.38-3.9-1.46-4.89L86.22 47l3.21-3.22-.02-10.15L85 30.24l-4.39 3.4z" fill="#4E514F"/>
<path id="Trauma-Plating_Left-Chest_Galaxy" class="toggle" style="" d="M96 28.19H85.12l5.97 4.62.02 11.67-2.48 2.49 10.31 9.72 1.53 5.11 1.77 2.9h2.27l1.29-1.87 2.54-14.19 3.49-5.43-4.17-13.42-5.55-.7-.77-3.36-3.57-.43L96 28.19z" fill="#55725C"/>
<path id="Trauma-Plating_Right-Chest_Galaxy" class="toggle" style="" d="m72.23 25.31-3.57.43-.77 3.36-5.55.7-4.17 13.42 3.49 5.43 2.54 14.19 1.29 1.87h2.27l1.77-2.9 1.53-5.11 10.31-9.72-2.48-2.49.02-11.67 5.97-4.62H74l-1.77-2.89z" fill="#55725C"/>
<path id="Accents_Chest-Plate_Galaxy" class="toggle" d="M96.12 31.44h9.25v1.22h-9.25zm0 2.16h9.25v1.22h-9.25z" style="display: none;"/>
</g>
<g id="Iron-Heart_Galaxy">
<path id="Heart_Galaxy" d="M82.3 43.49v-9.13l2.7-2.1 2.7 2.1v9.13L85 46.2l-2.7-2.71z" fill="#959595"/><path id="Center_Heart_Galaxy" class="option" d="M84.07 35.76h1.87v6.25h-1.87z" fill="#595959"/>
</g>
<g id="Neck-Armor_Galaxy">
<path id="Neck-Plate_Galaxy" d="m82.75 25.51-7.39.12-1.82-2.97-7.05.84-.7 3.07-4.52.56-3.33-11.42 11.55-3.44s1.53 2.58 2.64 3.49c1.14.93 2.66 2.02 4.08 2.64a22.56 22.56 0 0 0 5.86 1.5l.68 5.61zm4.5 0 7.39.12 1.82-2.97 7.05.84.7 3.07 4.52.56 3.33-11.42-11.55-3.44s-1.53 2.58-2.64 3.49a19.16 19.16 0 0 1-4.08 2.64 22.56 22.56 0 0 1-5.27 1.42l-.59.08-.68 5.61z" fill="#312C2C"/>
<path id="Trauma-Plates_Neck_Galaxy" class="toggle" style="" d="M101.25 14.25a14.9 14.9 0 0 1-2.3 2.81 20.96 20.96 0 0 1-4.48 2.89 23.34 23.34 0 0 1-5.01 1.43l-.3 2.48 4.53.07 1.88-3.07 9.32 1.1.7 3.08 1.9.23 2.46-8.43-8.7-2.59zm-32.5 0-8.72 2.6 2.46 8.43 1.9-.23.7-3.08 9.32-1.1 1.88 3.07 4.53-.07-.3-2.48a23.5 23.5 0 0 1-5.01-1.43 20.72 20.72 0 0 1-4.48-2.89 16.49 16.49 0 0 1-2.28-2.82z" fill="#55725C"/>
</g>
</g></g>
<g id="ChestDecals" mask="url(#ChestMask)"/>
<g id="Chest-Attachments"><g id="Bandoleer_Accessories_Chest" class="option">
<g id="Strap_Bandoleer_Accessories_Chest" fill="#47321F">
<path d="m113.05 15.37-6.61-3.15L64.67 87.5l6.61 3.62 41.77-75.75"/>
<path d="m111.26 14.16-2.51-1.17-8.34 15.03 2.41 1.32 8.44-15.18M99.44 35.85l-2.76-1.51-12.82 23.1 2.76 1.51 12.82-23.1"/>
<path d="m99.71 36.72-3.92-2.15-1.28 2.32 3.92 2.15 1.28-2.32m-1.56 2.81-3.92-2.15-1.28 2.32 3.92 2.15 1.28-2.32m-1.55 2.8-3.92-2.15-1.28 2.32 3.92 2.15 1.28-2.32m-1.56 2.81-3.92-2.15-1.28 2.32 3.92 2.15 1.28-2.32m-1.56 2.8-3.92-2.15-1.29 2.32 3.92 2.15 1.29-2.32m-3.11 5.61-3.92-2.15-1.29 2.32 3.92 2.15 1.29-2.32m1.56-2.8-3.92-2.15-1.29 2.32 3.92 2.15 1.29-2.32m-3.11 5.61-3.92-2.15-1.28 2.31 3.92 2.15 1.28-2.31"/>
</g>
<g id="Ammo_Bandoleer_Accessories_Chest" fill="#8A7C32">
<path d="m99.57 36.97 1.6.88c.17.09.23.31.14.48l-.66 1.18a.36.36 0 0 1-.48.14l-1.6-.88 1-1.8z"/>
<path d="m100.75 37.61-.13-.07-1 1.8.13.07 1-1.8zm-.28-.15-.13-.07-1 1.8.14.07.99-1.8zm-4.82-2.64-1 1.8-1.6-.88a.36.36 0 0 1-.14-.48l.66-1.19a.36.36 0 0 1 .48-.14l1.6.89z"/>
<path d="m94.44 34.15-.13-.07-1 1.8.14.07.99-1.8zm2.01 8.45 1.6.88c.17.09.23.31.14.48l-.66 1.19a.36.36 0 0 1-.48.14l-1.6-.88 1-1.81z"/>
<path d="m97.63 43.24-.13-.07-1 1.8.13.07 1-1.8zm-.28-.15-.13-.07-1 1.8.13.07 1-1.8zm-4.82-2.64-1 1.8-1.6-.88a.36.36 0 0 1-.14-.48l.66-1.19c.1-.17.31-.23.48-.14l1.6.89z"/>
<path d="m91.32 39.78-.13-.07-1 1.8.13.07 1-1.8zm3.58 5.6 1.6.88c.17.09.23.31.14.48l-.66 1.18a.36.36 0 0 1-.48.14l-1.6-.88 1-1.8z"/>
<path d="m96.08 46.03-.13-.07-1 1.8.13.07 1-1.8zm-.28-.15-.13-.07-1 1.8.13.07 1-1.8zm-4.82-2.64-1 1.8-1.6-.88a.36.36 0 0 1-.14-.48l.66-1.19c.1-.17.31-.23.48-.14l1.6.89z"/>
<path d="m89.77 42.57-.13-.07-1 1.8.13.07 1-1.8zm3.57 5.64 1.6.88c.17.09.23.31.14.48l-.66 1.19a.36.36 0 0 1-.48.14l-1.6-.88 1-1.81z"/>
<path d="m94.52 48.85-.13-.07-1 1.8.13.07 1-1.8zm-.28-.15-.13-.07-1 1.8.13.07 1-1.8zm-4.82-2.64-1 1.8-1.6-.88a.36.36 0 0 1-.14-.48l.66-1.18c.1-.17.31-.23.48-.14l1.6.88z"/>
<path d="m88.21 45.39-.13-.07-1 1.8.13.07 1-1.8z"/>
</g>
<g id="Buckles_Bandoleer_Accessories_Chest" fill="#696969">
<path d="m104 27.77-2.88-1.58-1.63 2.93 2.88 1.58 1.63-2.93z"/>
<path d="m103.26 28.27-2.17-1.19-1.63 2.93 2.17 1.19 1.63-2.93zm.74-3.93-1.86-1.01 1.61-2.92 3.76 2.05-1.61 2.92-1.9-1.04.36-.65 1.06.58.89-1.61-2.07-1.13-.89 1.61 1.01.55"/>
</g>
</g></g>
<g id="Collar"><g id="Cloth-Wrap-Left_Collar" class="option">
<g id="Main_Cloth-Wrap-Left_Collar" fill="#ABA26C">
<path d="M75.09 22.25c-5-1.56-5.91-4.07-6.21-6.59-.12-1.03 1.36-3.72-.17-4.41-1.73-.78-5.81.44-7.49.8-1.25.27-2.36.58-3.64.59-2.94.03-5.28 1.99-5.54 3.45-.37 2.04 3.27 2.78 4.97 4.33 4.26 3.88 5.74 9.13 14.69 10.57 4.11.66 8.18-.27 11.99-1.12 9.86-2.19 15.23-4.07 21.57-8.93 2.77-2.13 6.95-3.86 6.85-6.71 0-.12-2.02-1.31-2.22-1.36-1.77-.44-3.29-1.17-5.24-1.21-1.17-.02-.98.98-1.06 1.43-.33 1.74-1.93 3.05-3.93 4.36-5.29 3.47-17.34 4.54-24.57 4.8z"/>
<path d="M75.09 22.25c-1.32.05-2.48.25-3.49.32-4.58.28-6.21-.83-7.1-2.86m-3.64-7.6a6.08 6.08 0 0 0-.1 6.33m38.49-.21c-3.43 4.66-8.51 6.13-14.08 6.7m23.36-12.44c-.2 1.18-.91 1.62-1.78 2.41-.5.46-1.11.78-1.51 1.35-.15.2-.22.44-.31.67"/>
</g>
<path id="Buckle_Cloth-Wrap-Left_Collar" d="m98.07 17.35 2.92-2.08 5.06 7.02-2.91 2.08-5.07-7.02z" fill="#313131"/>
</g></g>
<g id="CollarDecals" mask="url(#CollarMask)"/>
<g id="Helmets" class="swappable" transform="translate(45,-62)"><g id="Helmet_Stalker-Medium">
<g id="Left-Earcap_Stalker-Medium" class="toggle"><g id="Range-Finder_Left_Stalker-Medium" class="option" style="">
<path id="Shaft_Left_Range-Finder_Stalker-Medium" d="m57.92 19.72-1.08.07 1.61 26.85h1.1l-1.63-26.92z" fill="#777777"/>
<path id="Finder_Left_Range-Finder_Stalker-Medium" d="M49.59 17.56h5.96l-.24-.74-6.96-.65 1.24 1.39" fill="#827F7F"/>
<g id="Cover_Left_Range-Finder_Stalker-Medium" fill="#626161">
<path d="m58.77 18.59-2.83.19-.63-1.96-7.48-.7-.15-.76 10.68-.4 1.04 1.32-.63 2.31"/>
<path d="m58.01 18.64-1.41.09.07 1.07 1.41-.09-.07-1.07"/>
</g>
</g>
<g id="Ear-Cap_Left_Stalker-Medium" fill="#516C57">
<path d="m57.56 40.96 2.4 1.65.94 10.41-2.07 2.06-1.27-14.12z"/>
<path d="M58.6 47.7a.2.2 0 0 1 .18-.22l.97-.09a.2.2 0 0 1 .22.18.2.2 0 0 1-.18.22l-.97.09a.2.2 0 0 1-.22-.18z"/>
</g>
</g>
<g id="Right-Earcap_Stalker-Medium" class="toggle"><g id="Main-Antenna_Right_Stalker-Medium" class="option" style="">
<path id="Shaft_Main-Antenna_Right_Stalker-Medium" d="m19.93 38.7.26-25.04s-.01-.66.36-.66.36.66.36.66l.26 25.04h-1.24z" fill="#5C5959"/>
<g id="Base_Main-Antenna_Right_Stalker-Medium" fill="#737373">
<path d="M22.35 42.65h-3.59s-.77 8.43 1.77 8.43 1.82-8.43 1.82-8.43zM19.29 42.23h2.51v.41h-2.51zM19.1 42.23l.61-3.53.84.01.84-.01.61 3.53h-2.9z"/>
<path d="M20.35 39.31h.4v2.47h-.4zM21.48 39.22l-.4.06.39 2.44.4-.06-.39-2.44zM19.62 39.22l.4.06-.39 2.44-.4-.06.39-2.44z"/>
</g>
</g><g id="Ear-Cap_Right_Stalker-Medium" fill="#516C57">
<path d="m22.44 40.96-2.4 1.65-.94 10.41 2.07 2.06 1.27-14.12z"/>
<path d="M21.4 47.7a.2.2 0 0 0-.18-.22l-.97-.09a.2.2 0 0 0-.22.18.2.2 0 0 0 .18.22l.97.09a.2.2 0 0 0 .22-.18z"/>
</g>
</g>
<g id="Helmet_Pieces_Stalker-Medium">
<g id="Dome-2_Stalker-Medium" fill="#474646">
<path d="m33.06 30.32-.02-.06s-6.45 1.52-8.89 7.94a27.44 27.44 0 0 0-.97 4.19c.12-.19.23-.37.34-.5.46-.6 1.2-1.48 1.89-2.15.98-.95 2.81-2.27 4-3.57a30.05 30.05 0 0 0 3.1-4.23 6.2 6.2 0 0 0 .55-1.62zM47.08 30.32l.02-.06s6.45 1.52 8.89 7.94c.43 1.13.81 3.23.97 4.19a7.05 7.05 0 0 0-.34-.5c-.46-.6-1.21-1.48-1.89-2.15-.98-.95-2.81-2.27-3.99-3.57a30.05 30.05 0 0 1-3.1-4.23 5.58 5.58 0 0 1-.56-1.62zM56.86 39.69l.84.86 1.35 14.93-.67 1-1.52-16.79z"/>
<path d="m56.05 38.54.8.86 1.56 17.34-.63.99-1.73-19.19z"/>
<g>
<path d="m23.25 39.69-.84.86-1.35 14.93.67 1 1.52-16.79z"/>
<path d="m24.06 38.54-.8.86-1.56 17.34.63.99 1.73-19.19z"/>
</g>
</g>
<g id="Dome-1_Stalker-Medium" fill="#646464">
<path d="M33.07 30.22a6.2 6.2 0 0 1-.57 1.72l-.2.33c-.39.08-.84.2-1.22.37a17.8 17.8 0 0 0-2.06 1.23v-1.85s.97-.54 1.94-1c.65-.31 1.58-.63 2.11-.8z"/>
<path d="M32.36 32.16a30.67 30.67 0 0 1-2.97 4.01l-.38.4v-2.69s.87-.76 1.92-1.18c.5-.2 1.02-.39 1.43-.54z"/>
<g>
<path d="M47.08 30.22c.1.47.28 1.24.57 1.72l.2.33c.39.08.85.2 1.22.37a17.8 17.8 0 0 1 2.06 1.23v-1.85s-.97-.54-1.94-1c-.66-.31-1.59-.63-2.11-.8z"/>
<path d="M47.79 32.16c.66 1.07 1.87 2.8 2.97 4.01l.38.4v-2.69s-.87-.76-1.92-1.18c-.5-.2-1.03-.39-1.43-.54z"/>
</g>
</g>
<g id="Face-2_Stalker-Medium" fill="#55725C">
<path d="m23.68 61.12-.13-3.41-2.31 3.27s-.12 2.86.29 4.04c.4 1.17 1.31 2.13 2.15 3.04.95 1.03 12.12 8.49 12.12 8.49l-1.92-8.26-1.85.71-1.61-.79-2.06-1.61-2.16-2.12-1.7-1.93-.82-1.17v-.26zM56.45 61.12l.13-3.41 2.31 3.27s.12 2.86-.29 4.04c-.4 1.17-1.31 2.13-2.15 3.04-.95 1.03-12.12 8.49-12.12 8.49l1.92-8.26 1.85.71 1.61-.79 2.06-1.61 2.16-2.12 1.7-1.93.82-1.17v-.26z"/>
</g>
<g id="Face-1_Stalker-Medium" fill="#646262">
<path d="M23.68 61.12v.25l.82 1.17 1.7 1.93 2.16 2.12 2.06 1.61 1.61.8 1.85-.72-.25-1.09-3.58-8.74-4.56-3.47-1.93 2.73.12 3.41z"/>
<path d="M29.89 65.5a.2.2 0 0 1 .04-.29l1.31-1.03a.2.2 0 1 1 .26.32l-1.31 1.03a.2.2 0 0 1-.3-.03M30.69 66.84a.2.2 0 0 1 .03-.29l1.11-.87a.2.2 0 0 1 .29.04.2.2 0 0 1-.03.29l-1.11.87a.2.2 0 0 1-.29-.04"/>
<g>
<path d="M56.45 61.12v.25l-.82 1.17-1.7 1.93-2.16 2.12-2.06 1.61-1.61.8-1.85-.72.25-1.09 3.58-8.74 4.56-3.47 1.93 2.73-.12 3.41z"/>
<path d="M50.24 65.5a.2.2 0 0 0-.04-.29l-1.31-1.03a.2.2 0 1 0-.26.32l1.31 1.03c.1.08.23.06.3-.03M49.44 66.84a.2.2 0 0 0-.03-.29l-1.11-.87a.2.2 0 0 0-.29.04.22.22 0 0 0 .03.29l1.11.87c.08.07.21.05.29-.04"/>
</g>
</g>
<g id="Cheeks_Stalker-Medium" fill="#585858">
<path d="m46.51 67.19-.86-.23 4.27-12.28.17.57v3.2l-3.58 8.74z"/>
<path d="m50.09 58.45-.17-3.77 1.73-.94 2.92-1.99 2.58-2.29.27-.31-2.77 5.83-4.56 3.47z"/>
<path d="m58.88 60.97-4.23-6 2.77-5.83.49-.58.97 12.41zM44.33 76.54l-.16.05 1.47-9.63.86.23-2.17 9.35z"/>
<g>
<path d="m21.24 60.97 4.23-6-2.77-5.83-.49-.58-.97 12.41zM33.62 67.19l.86-.23-4.27-12.28-.17 3.77 3.58 8.74z"/>
<path d="m30.04 58.45.17-3.77-1.73-.94-2.92-1.99-2.58-2.29-.27-.31 2.77 5.83 4.56 3.47zM35.8 76.54l.16.05-1.47-9.63-.86.23 2.17 9.35z"/>
</g>
</g>
<path fill="#363030" id="Visor_Stalker-Medium" d="M41.83 76.78H38.3l-.38-25.45s-3.7-.78-3.8-.78c-.1 0-5.17-1.18-5.17-1.18l-4.47-1.53-1.49-.76.1-1.35 4.31.7 5.35.68 5.01.32 2.05.14h.51l2.05-.14 5.01-.32 5.35-.68 4.31-.7.1 1.35-1.49.76-4.47 1.53s-5.07 1.18-5.17 1.18c-.1 0-3.8.78-3.8.78l-.38 25.45z"/>
<g id="Eyes_Stalker-Medium">
<g id="Main_Eyes_Stalker-Medium" fill="#485D4D">
<path d="M57.51 43.36s-.54-1.02-.89-1.47c-.46-.6-1.21-1.48-1.89-2.15-.98-.95-2.81-2.27-3.99-3.57a30.05 30.05 0 0 1-3.1-4.23c-.36-.6-.55-1.61-.63-1.99-.02-.1.17-.26.17-.26s-2.1-.87-2.82-1.03c-.89-.2-3.23-.47-3.23-.47l-1.99-.01s-2.45.28-3.36.48c-.73.16-2.82 1.03-2.82 1.03s.19.16.17.26c-.08.37-.27 1.39-.63 1.99a30.87 30.87 0 0 1-3.1 4.23c-1.18 1.3-3.01 2.62-3.99 3.57a23.1 23.1 0 0 0-1.89 2.15 15.1 15.1 0 0 0-.89 1.47l-.6 4.83.2.38.76.9 2.58 2.29 2.92 1.99 1.73.93 4.27 12.28 1.47 9.63.64.2h6.95l.64-.2 1.47-9.63 4.27-12.28 1.73-.93 2.92-1.99 2.58-2.29.76-.9.2-.38-.61-4.83M41.83 76.78H38.3l-.38-25.45s-3.7-.78-3.8-.78c-.1 0-5.17-1.18-5.17-1.18l-4.47-1.53-1.49-.76.1-1.35 4.31.7 5.35.68 5.01.32 2.05.14h.51l2.05-.14 5.01-.32 5.35-.68 4.31-.7.1 1.35-1.49.76-4.47 1.53s-5.07 1.18-5.17 1.18c-.1 0-3.8.78-3.8.78l-.38 25.45"/>
<path d="m32.5 30.41.32-.62.14-.1.17.26-.06.27-.57.19M47.63 30.41l-.32-.62-.14-.1s-.16.16-.17.26.1.31.1.31l.53.15"/>
</g>
<g id="Trim_Eyes_Stalker-Medium" fill="#55725C">
<path d="m35.02 47.26-.37-.9-2.63-.52 1.05-15.62.06-.27-.17-.25 2.73-1.02 1.09-.2v16.27h6.59V28.48l1.18.23 2.63.98-.18.26 1.1 15.89-2.62.52-.37.9-5.03.31-5.06-.31z"/>
<path d="M43.36 44.75h-6.59l2.5.76v-.38h1.58v.38l2.51-.76zM44.94 50.77l-2.74.57-.38 25.45h1.71l.64-.2 1.47-9.63 1.11-3.18-2.26-2.35.45-10.66zM35.16 50.77l2.74.57.38 25.45h-1.71l-.64-.2-1.47-9.63-1.11-3.18 2.26-2.35-.45-10.66z"/>
</g>
<path id="Center_Eyes_Stalker-Medium" d="M43.36 28.48s-1.59-.3-3.3-.3c-1.7 0-3.29.3-3.29.3v16.27h6.59V28.48z" fill="#4D4C4C"/>
</g>
</g>
</g></g>
<g id="HelmetsDecals" mask="url(#HelmetsMask)"/>
<g id="Shoulders">
<g id="Left-Shoulder"><g id="Gunslinger-Bell_Shoulder_Left" class="option">
<path id="Main_Gunslinger-Bell_Shoulder_Left" d="M113.87 16.41c6.16-.15 19.92 4.76 19.37 22.26l-.07 3.45-11.98 4.89-10.5-13.96V16.41h3.18z" fill="#55725C"/>
<path id="Ridge_Gunslinger-Bell_Shoulder_Left" class="toggle" d="M110.68 16.41v-2.02c13.11-.07 25.51 5.55 24.56 27.14l-2.01.47-.06-.75.06-2.59c.55-17.49-13.2-22.4-19.37-22.26h-.68c-1.35-.18-2.28-.13-2.5.01z" style="display: none;"/>
<g id="Trim_Gunslinger-Bell_Shoulder_Left" class="toggle" fill="#494949">
<path d="M110.68 15.63h3.19v17.45h-3.19z"/>
<path d="m113.87 32-3.19 1.05 10.51 13.97 2.55-1.9L113.87 32z"/>
<path d="m122.26 43.14-1.11 3.88 12.58-5.13v-3.42l-11.47 4.67z"/>
</g>
</g></g>
<g id="Right-Shoulder"><g id="Gunslinger-Bell_Shoulder_Right" class="option">
<path id="Main_Gunslinger-Bell_Shoulder_Right" d="M56.13 16.41c-6.16-.15-19.92 4.76-19.37 22.26l.08 3.45 11.98 4.89 10.5-13.96V16.41h-3.19z" fill="#55725C"/>
<path id="Ridge_Gunslinger-Bell_Shoulder_Right" class="toggle" d="M59.32 16.41v-2.02c-13.11-.07-25.51 5.55-24.56 27.14l2.01.47.06-.75-.06-2.59c-.55-17.49 13.2-22.4 19.37-22.26h.68c1.35-.18 2.28-.13 2.5.01z" style="display: none;"/>
<g id="Trim_Gunslinger-Bell_Shoulder_Right" class="toggle" fill="#494949">
<path d="M56.13 15.63h3.19v17.45h-3.19z"/>
<path d="m56.13 32 3.19 1.05-10.51 13.97-2.55-1.9L56.13 32z"/>
<path d="m47.74 43.14 1.12 3.88-12.58-5.13v-3.42l11.46 4.67z"/>
</g>
</g></g>
</g>
<g id="ShouldersDecals" mask="url(#ShouldersMask)"/>
<g id="Gauntlets">
<g id="Left-Gauntlets"><g id="Basic_Gauntlet_Left" class="option">
<path id="Top-2_Basic_Gauntlet_Left" d="m145.21 108.31 1.36-2.17-3.89-18.32-.65 2.21 1.85 8.35-.72 2.07 2.05 7.86z" fill="#3B2424"/>
<path id="Top-1_Basic_Gauntlet_Left" d="m142.68 87.82-.65 2.21 1.85 8.35-.72 2.07 2.05 7.86-.9 1.43.47 5.09-1.57.41-2.13-7.67-1.46-.54-6.74-22.45 8.91-.93.89 4.17z" fill="#5D5C5C"/>
<path id="Accent-Bottom_Basic_Gauntlet_Left" d="m129.49 91.34-1.97.65.97 2.92 1.97-.65-.97-2.92zm1.67 5.11-1.97.65.97 2.92 1.97-.65-.97-2.92zm1.75 5.23-1.97.65.97 2.92 1.97-.65-.97-2.92z" fill="#494848"/>
<path id="Bottom_Basic_Gauntlet_Left" d="m127.53 91.98-.73-2.22 6.19-4.8 6.63 22.08-6.74 1.23-2.71-8.25 1.96-.65-.97-2.92-1.95.64-.72-2.19 1.97-.65-.97-2.92-1.96.65zm5.38 9.7-1.98.65.96 2.92 1.99-.65-.97-2.92z" fill="#5D5C5C"/><g id="No-Device_Attachment_Basic_Gauntlet_Left" class="option"/>
</g>
</g>
<g id="Right-Gauntlets"><g id="Heavy_Gauntlet_Right" class="option">
<g id="Top-2_Heavy_Gauntlet_Right" fill="#474747">
<path d="m29.5 79.64-1.74.13-1.43 8.11 1.48 1.23 1.69-9.47z"/>
<path d="m27.93 88.39-1.82 10.57.95 1.28-1.11 6.22.44.32 3.07-17.02-1.53-1.37z"/>
<circle cx="27.92" cy="85.76" r=".38"/>
</g>
<g id="Top-1_Heavy_Gauntlet_Right" fill="#555555">
<path d="m30.76 107.96-4.36-1.17 3.07-17.02-1.54-1.38 1.66-9.27 6.59-.67-5.42 29.51z"/>
<path d="m31.29 78.94-1.82 10.82"/>
</g>
<path id="Accent-Top_Heavy_Gauntlet_Right" d="m27.66 104.17 2.77.56-.42 2.15-2.77-.65.42-2.06zm1.74-9.01 2.77.56-1.62 8.4-2.77-.56 1.62-8.4zm2.49-15.6 3.13-.24-1.64 9.21-2.91-.59 1.42-8.38z" fill="#414141"/>
<path id="Bottom_Heavy_Gauntlet_Right" d="M36.11 78.88c3.37.13 6.88 1.57 9.06 4.4.71.92.92 2.12.58 3.22l-7.01 22.84-7.98-1.39 5.35-29.07z" fill="#675444"/>
<g id="Accent-Bottom_Heavy_Gauntlet_Right" fill="#5B5B5B">
<path d="m30.76 107.96 7.98 1.39.43-1.41-8.13-1.52-.28 1.54zm4.98-27.1c4.35.43 7.98 2.01 9.69 6.7l.32-1.04c.27-.87.19-1.8-.2-2.61l-.41-.65c-2.19-2.81-5.68-4.24-9.03-4.37l-.37 1.97z"/>
<path d="m36.88 79.53 3.52.69-2.77 13.89-3.52-.69 2.77-13.89z"/>
<path d="m37.29 79.88 2.59.51-2.56 12.85-2.59-.51 2.56-12.85z"/>
<path d="m39.88 80.39.51-.17m-3.51-.69.41.35M34.1 93.42l.62-.7m2.9 1.4-.37-.89"/>
</g><g id="Flamethrower_Attachment_Heavy_Gauntlet_Right" class="option">
<g id="Tubes_Flamethrower_Attachment_Heavy_Gauntlet_Right" fill="#323232">
<path d="m28.01 79.84.82.14-4.36 24.89-.82-.14 4.36-24.89zm-1.89-.33.82.14-3.12 17.84-.82-.14 3.12-17.84z"/>
<path d="m27.48 81.35 1.23.21-1.04 5.93-1.24-.21 1.05-5.93zm-1.78-.31 1.13.19-1.04 5.93-1.13-.2 1.04-5.92z"/>
</g>
<g id="Main_Flamethrower_Attachment_Heavy_Gauntlet_Right" fill="#555555">
<path d="m25.84 79.07 3.38.58-.34 1.94-3.38-.58.34-1.94zm-1.46 7.86 3.53.61-.17.95-3.53-.61.17-.95z"/>
<path d="m24.36 87.9 3.24.56-.08.48-3.24-.56.08-.48z"/>
<path d="m27.66 86.88.54.12-.51 2.89-.54-.11.51-2.9z"/>
</g>
<g id="Accent_Flamethrower_Attachment_Heavy_Gauntlet_Right" fill="#5D5B5B">
<path d="m22.97 97.35.88.15-.08 1.24-1.15-.2.35-1.19zm.77-6.4 1.56.27-.33 1.89-1.56-.27.33-1.89z"/>
<path d="m23.62 92.87 1.13.2-.33 1.89-1.13-.19.33-1.9zm.43 8.68 1.13.2-.45 2.59-1.13-.19.45-2.6zm1.46-8.35 1.13.19-.62 3.52-1.13-.2.62-3.51z"/>
<path d="m23.6 102.81 1.56.27-.09.5-1.56-.27.09-.5z"/>
</g>
<path id="Base_Flamethrower_Attachment_Heavy_Gauntlet_Right" d="m28.2 87 1.39-7.85-1.01.21-2.35 13.27.87.59.59-3.32-.54-.11.51-2.89.54.1z" fill="#2A2A2A"/>
</g></g></g>
</g>
<g id="GauntletsDecals" mask="url(#GauntletsMask)"/>
<g id="Shins">
<g id="Left-Shin"><g id="Full_Shin_Left" class="option">
<path id="Shin_Full-Shin_Left" d="M102.49 175.8c10.97-2.98 18.29-1.11 18.29-1.11l4.35 42.35s-4.31 1.17-9.01 1.31c-3.44.1-8.96-.97-8.96-.97l-7.9-36c.01 0 3.63-.8 3.23-5.58" fill="#55725C"/>
<path id="Accent_Full-Shin_Left" class="toggle" d="m100.16 185.33 6.08-.75.41 1.58-6.12.76-.37-1.59m.51 2.2 4.15-.52.41 1.58-4.2.53-.36-1.59" fill="#262626"/>
<g id="Ridge_Full-Shin_Left" class="toggle" fill="#516355">
<path d="m116.97 173.79-3.93-.29-4.03.56 8.19 44.25c1.96-.02 3.4-.28 5.63-.74l-5.86-43.78"/>
<path d="m113.04 173.5 7.28 44.54"/>
</g>
</g></g>
<g id="Right-Shin"><g id="Full_Shin_Right" class="option">
<path id="Shin_Full-Shin_Right" d="M67.41 175.8c-10.97-2.98-18.29-1.11-18.29-1.11l-4.35 42.35s4.31 1.17 9.01 1.31c3.44.1 8.96-.97 8.96-.97l7.9-36c-.02 0-3.64-.8-3.23-5.58" fill="#55725C"/>
<path id="Accent_Full-Shin_Right" class="toggle" d="m69.73 185.33-6.08-.75-.41 1.58 6.12.76.37-1.59m-.5 2.2-4.15-.52-.41 1.58 4.2.53.36-1.59" fill="#262626"/>
<g id="Ridge_Full-Shin_Right" class="toggle" fill="#516355">
<path d="m52.92 173.79 3.93-.29 4.03.56-8.18 44.24a26.9 26.9 0 0 1-5.63-.74l5.85-43.77"/>
<path d="m56.85 173.5-7.28 44.54"/>
</g>
</g></g>
</g>
<g id="ShinsDecals" mask="url(#ShinsMask)"/>
<g id="Foot">
<g id="Left-Ankle">
<g id="None_Ankle_Left" class="option"/></g>
<g id="Left-Toe"><g id="Spikes_Toe_Left" class="option" fill="#6E6D6D">
<path d="M132.2 239.82c2.86-.5 5.74-1.18 8.65-2.03a.76.76 0 0 1 .64.11c.18.13.3.35.3.57l.03.99a29.46 29.46 0 0 1-7.61 2.04c-.49.08-1-.07-1.38-.38-.38-.33-.61-.8-.63-1.3"/>
<path d="m137.04 241.77-3.86-.43a.66.66 0 0 1-.42-.23.63.63 0 0 1-.13-.46c.11-.58.51-.85 1.29-.8a.7.7 0 0 1 .31.1c.51.31 2.81 1.82 2.81 1.82m7.03-2.05-3.42-.3a.66.66 0 0 1-.48-.29.62.62 0 0 1-.04-.56c.21-.27.52-.42 1.03-.39.1 0 .2.03.28.08.43.21 2.63 1.46 2.63 1.46"/>
</g></g>
<g id="Right-Ankle">
<g id="None_Ankle_Right" class="option"/></g>
<g id="Right-Toe"><g id="Spikes_Toe_Right" class="option" fill="#6E6D6D">
<path d="M37.67 239.82a79.96 79.96 0 0 1-8.65-2.03.77.77 0 0 0-.64.11.7.7 0 0 0-.3.57l-.01.56c-.01.26.14.5.38.6 1.99.84 4.42 1.44 7.21 1.86a1.75 1.75 0 0 0 2.01-1.67"/>
<path d="m32.84 241.77 3.86-.43c.16-.02.31-.1.42-.23.1-.13.15-.29.13-.46-.11-.58-.51-.85-1.29-.8a.7.7 0 0 0-.31.1c-.52.31-2.81 1.82-2.81 1.82m-7.03-2.05 3.42-.3c.2-.02.37-.13.48-.29.1-.17.12-.38.04-.56-.21-.27-.52-.42-1.03-.39-.1 0-.2.03-.28.08-.44.21-2.63 1.46-2.63 1.46"/>
</g></g>
</g>
<g id="FootDecals" mask="url(#FootMask)"/>
<g id="Knees">
<g id="Left-Knee"><g id="Heavy_Knee_Left" class="option">
<g id="Missiles_Heavy-Knee_Left" class="toggle" style="">
<path id="Base_Missiles_Heavy-Knee_Left" d="m118.65 160.1 1.78 9.57 2.09-1.68c.34-.27.51-.71.43-1.14l-.92-5.62a1.22 1.22 0 0 0-1.14-1.01l-2.24-.12z" fill="#575757"/>
<g id="Missile-2_Missiles_Heavy-Knee_Left" fill="#AB6060">
<path d="M121.04 165.37c-.55.15-.88.71-.73 1.26s.72.88 1.28.73c.56-.15.88-.71.73-1.26a1.05 1.05 0 0 0-1.28-.73z"/>
<path d="M121.14 165.69a.7.7 0 1 0 .37 1.34.7.7 0 0 0 .49-.85.73.73 0 0 0-.86-.49z"/>
</g>
<g id="Missile-1_Missiles_Heavy-Knee_Left" fill="#8CA5A5">
<path d="M120.28 160.95c-.55.15-.88.71-.73 1.26.15.55.73.88 1.28.73.56-.15.88-.71.73-1.26a1.05 1.05 0 0 0-1.28-.73z"/>
<path d="M120.38 161.27a.7.7 0 1 0 .37 1.34.7.7 0 1 0-.37-1.34z"/>
</g>
</g>
<path id="Plate-2_Heavy-Knee_Left" d="m116.81 155.76-2.86-1.72-14.26 2.44-2.07 2.56 2.79 14.21 5.62.13 8.01-1.37 5.57-2-2.8-14.25z" fill="#4F4E4E"/>
<g id="Plate-1_Heavy-Knee_Left" fill="#465442">
<path d="m116.12 156.54-2.63-1.66-13.05 2.23-1.88 2.44 2.7 13.71 4.78.12 8.01-1.37 4.78-1.75-2.71-13.72z"/>
<path d="m111.54 158.46-8.01 1.37 2.49 13.54 4.15-.16 3.86-1.21-2.49-13.54z"/>
<path d="m103.54 159.83-3.1-2.72-1.88 2.44 4.98.28zm8-1.37 1.94-3.58 2.63 1.66-4.57 1.92z"/>
</g>
<g id="Trim_Heavy-Knee_Left" fill="#55725C">
<path d="m97.66 163.92-.44 1.08 1.58 8.58.62-.11-1.76-9.55zm14.75 4.04-6.28 1.07.62 3.35 6.29-1.08-.63-3.34z"/>
<path d="m98.28 162.37-.88.15 2.02 10.95 1.02-.18-.01-.04h-.02l-2.13-10.88zm19.38-2.28 1.94 9.91-.18.06 1.03-.18-1.83-9.96-.96.17z"/>
</g>
</g></g>
<g id="Right-Knee"><g id="Heavy_Knee_Right" class="option">
<g id="Missiles_Heavy-Knee_Right" class="toggle" style="">
<path id="Base_Missiles_Heavy-Knee_Right" d="m51.24 160.1-1.78 9.57-2.09-1.68a1.19 1.19 0 0 1-.43-1.14l.92-5.62c.09-.56.57-.98 1.14-1.01l2.24-.12z" fill="#575757"/>
<g id="Missile-2_Missiles_Heavy-Knee_Right" fill="#AB6060">
<path d="M48.85 165.37c.55.15.88.71.73 1.26-.15.55-.72.88-1.28.73a1.03 1.03 0 0 1-.73-1.26c.16-.55.73-.88 1.28-.73z"/>
<path d="M48.76 165.69a.7.7 0 1 1-.37 1.34c-.37-.1-.59-.48-.49-.85s.48-.58.86-.49z"/>
</g>
<g id="Missile-1_Missiles_Heavy-Knee_Right" fill="#8CA5A5">
<path d="M49.61 160.95c.56.15.88.71.73 1.26-.15.55-.73.88-1.28.73a1.03 1.03 0 0 1-.73-1.26c.16-.55.73-.88 1.28-.73z"/>
<path d="M49.52 161.27a.7.7 0 1 1-.37 1.34.7.7 0 1 1 .37-1.34z"/>
</g>
</g>
<path id="Plate-2_Heavy-Knee_Right" d="m53.08 155.76 2.86-1.72 14.26 2.44 2.07 2.56-2.79 14.21-5.62.13-8.01-1.37-5.57-2 2.8-14.25z" fill="#4F4E4E"/>
<g id="Plate-1_Heavy-Knee_Right" fill="#465442">
<path d="m53.77 156.54 2.63-1.66 13.05 2.23 1.88 2.44-2.7 13.71-4.78.12-8.01-1.37-4.78-1.75 2.71-13.72z"/>
<path d="m58.35 158.46 8.01 1.37-2.49 13.54-4.15-.16-3.86-1.21 2.49-13.54z"/>
<path d="m66.35 159.83 3.1-2.72 1.88 2.44-4.98.28zm-8-1.37-1.94-3.58-2.63 1.66 4.57 1.92z"/>
</g>
<g id="Trim_Heavy-Knee_Right" fill="#55725C">
<path d="m72.23 163.92.44 1.08-1.58 8.58-.62-.11 1.76-9.55zm-14.74 4.04 6.28 1.07-.62 3.35-6.28-1.08.62-3.34z"/>
<path d="m71.61 162.37.88.15-2.02 10.95-1.03-.18.01-.04h.02l2.14-10.88zm-19.38-2.28L50.28 170l.18.06-1.03-.18 1.83-9.96.97.17z"/>
</g>
</g></g>
</g>
<g id="KneesDecals" mask="url(#KneesMask)"/>
<g id="Thighs">
<g id="Left-Thigh"><g id="Basic_Thigh_Left" class="option">
<path id="Thigh_Basic-Thigh_Left" d="M120.21 115.6s-5.03-6.43-7.59-7.49a8.12 8.12 0 0 0-7.78 1.09c-3.19 2.54-10.51 8.04-11.35 14.16-.93 6.83 4.08 21.95 5.78 26.84.58 1.66 2.77 2.41 4.44 2.48 3.1.12 11.57-.15 13.59-4.69 2.75-6.18 2.91-32.39 2.91-32.39" fill="#3C3C3C"/>
<path id="Trauma-Plate_Basic-Thigh_Left" class="toggle" style="" d="M118.5 116.19c-.75-.93-2.56-3.1-4.3-4.77a9.07 9.07 0 0 0-2.25-1.75 6.31 6.31 0 0 0-6.06.85c-1.85 1.47-5.15 3.97-7.66 7.02-1.52 1.85-2.77 3.9-3.07 6.05-.9 6.64 4.05 21.31 5.7 26.06.14.42.54.67.95.87.61.3 1.33.45 1.94.47 1.73.07 5.27.02 8.23-.96 1.63-.54 3.12-1.33 3.75-2.73.78-1.75 1.3-5.22 1.7-9.2.88-8.51 1.04-19.29 1.07-21.91" fill="#55725C"/>
<g id="Ridge_Basic-Thigh_Left" class="toggle" style="" fill="#57695B">
<path d="m111.72 107.57-3.48-.89-3.64 1.99 1.18 44.01c2.4.46 2.43.55 4.54-.08l1.4-45.03"/>
<path d="m108.28 106.69-.1 46.36"/>
</g>
</g>
</g>
<g id="Right-Thigh"><g id="Basic_Thigh_Right" class="option">
<path id="Thigh_Basic-Thigh_Right" d="M49.69 115.6s5.03-6.43 7.59-7.49a8.12 8.12 0 0 1 7.78 1.09c3.19 2.54 10.51 8.04 11.35 14.16.93 6.83-4.08 21.95-5.78 26.84-.58 1.66-2.77 2.41-4.44 2.48-3.1.12-11.57-.15-13.59-4.69-2.75-6.18-2.91-32.39-2.91-32.39" fill="#3C3C3C"/>
<path id="Trauma-Plate_Basic-Thigh_Right" class="toggle" style="" d="M51.39 116.19c.75-.93 2.56-3.1 4.3-4.77a9.07 9.07 0 0 1 2.25-1.75 6.31 6.31 0 0 1 6.06.85c1.85 1.47 5.15 3.97 7.66 7.02 1.52 1.85 2.77 3.9 3.07 6.05.9 6.64-4.05 21.31-5.7 26.06-.14.42-.54.67-.95.87-.61.3-1.33.45-1.94.47-1.73.07-5.27.02-8.23-.96-1.63-.54-3.12-1.33-3.75-2.73-.78-1.75-1.3-5.22-1.7-9.2a278.92 278.92 0 0 1-1.07-21.91" fill="#55725C"/>
<g id="Ridge_Basic-Thigh_Right" class="toggle" style="" fill="#57695B">
<path d="m58.17 107.57 3.48-.89 3.64 1.99-1.18 44.01c-2.4.46-2.43.55-4.54-.08l-1.4-45.03"/>
<path d="m61.62 106.69.1 46.36"/>
</g>
</g>
</g>
</g>
<g id="ThighsDecals" mask="url(#ThighsMask)"/>
<g id="Groin"><g id="Basic_Groin" class="option">
<path id="Groin-Plate_Basic" d="M78.67 122.29 68.22 99.4h33.42l-10.45 22.89-6.26 5.46-6.26-5.46z" fill="#494949"/>
<path id="Trauma-Plating_Groin" class="toggle" style="" d="m79.77 120.38-8.61-18.86H98.7l-8.61 18.86-5.16 4.49-5.16-4.49z" fill="#55725C"/>
</g>
</g>
<g id="GroinDecals" mask="url(#GroinMask)"/>
<g id="Waist">
<g id="Accessories_Waist">
<g id="Kama" class="toggle" style=""><g id="Tattered_Kama" class="option">
<path id="Main_Kama-Tattered" d="M111.48 81.04c2.28-.5 3.36 12.05 4.7 18.11.61 2.75.69 5.53 1.41 8.28 1.24 4.78 3.46 9.54 4.5 14.23.83 3.75.3 7.62 1.22 11.39.69 2.85 2.14 5.32 3.1 8.04 1.07 3.05 1.74 6.1 2.52 9.22a73.48 73.48 0 0 0 1.65 5.61c.21.63.39 1.27.55 1.91l.14.59c.03.12.17.44.08.36-.65-.57-1-1.65-1.61-2.32-1.18-1.3-2.66-2.28-3.77-3.64a8.99 8.99 0 0 1-1.07-1.72c-.03-.05-.22-.52-.25-.51-2.29.48-4.56 1.34-6.5-.59-1.54-1.53-2.87-4.83-3.66-6.88-.33-.86.11-5.91-.47-6.38-.43-.35-.83 4.2-1.35 3.89-3.28-1.93-7.95-3.08-7.95-3.08s-.36-6.44-.1-10.13c.24-3.31-.23-6.19-.72-9.43-.63-4.19-.56-8.5-.27-12.71.45-6.82-4.81-21.47 7.85-24.24zm7.51 61.96c-.4 1.7-.44 3.65.53 5.18.32.51 1.14 1.33 1.85 1.11 2.99-.92-.68-5.5-1.63-6.52l-.75.23zm-8.77-12.44c-.54.33-1.01.71-1.4 1.21-1.42 1.79 2.47.9 1.8-1.28l-.4.07zM58.44 81.04c-2.28-.5-3.36 12.05-4.7 18.11-.61 2.75-.69 5.53-1.41 8.28-1.24 4.78-3.47 9.54-4.5 14.23-.83 3.75-.3 7.62-1.22 11.39-.69 2.85-2.14 5.32-3.1 8.04-1.07 3.05-1.74 6.1-2.52 9.22a73.48 73.48 0 0 1-1.65 5.61c-.21.63-.39 1.27-.55 1.91l-.14.59c-.03.12-.17.44-.08.36.65-.57 1-1.65 1.61-2.32 1.18-1.3 3.01-.24 4.13-1.6.43-.53 1-1.77 1.31-2.38.03-.05.81-1.55.84-1.55 2.28.48.85 2.18 2.8.26 1.54-1.53 5.4-6.03 6.19-8.07.33-.86-.3-2.65.28-3.12.43-.35 1.02.94 1.54.63 3.28-1.93 7.36-5.54 7.36-5.54s.95-3.98.69-7.67c-.24-3.31.23-6.19.72-9.43.63-4.19.56-8.5.27-12.71-.47-6.82 4.79-21.47-7.87-24.24zm-8.34 63.11c.4 1.7.35 1.39-.62 2.93-.32.51-.22 2.43-.93 2.21-2.99-.92.67-5.5 1.63-6.52l-.08 1.38zm7.09-7.9c.54.33 2.26-.1 2.66.4 1.42 1.79-3.92 3.34-3.25 1.16l.59-1.56z" fill="#525F55"/>
</g>
</g>
<g id="Loin-Cloth" class="toggle" style=""><path id="Tattered_Loin-Cloth" class="option" d="M97.67 87.11c-.07 2.63-.2 5.26-.01 7.89.17 2.31.64 4.68.62 7-.02 1.83-.58 3.58-.71 5.39-.21 2.98.1 6.18.44 9.14.68 5.81-1.9 25.36-1.9 25.36l-5.23-4.74-3.53 8.59-2.96-5.51-2.68 4.43-2.04-.78-1.4 5.97-2.35-4.59-1.5-4.99s-.42-2.44-1.3-6.72c-.38-1.84-1.32-3.66-1.38-5.55-.16-4.71 1.54-9.42 1.71-14.13.13-3.76-.93-7.42-1.26-11.14-.29-3.24-.8-8.41 1.47-11.09 2.32-2.77 24.01-4.53 24.01-4.53zm-16.54 48.62c-.13.59-.27 1.18-.38 1.78-.06.36-.12.73-.14 1.1-.03.5.02 1.05.23 1.51.02.04.34-.13.37-.15.35-.23.6-.57.72-.97.3-.93.48-2.63-.41-3.34l-.39.07zm13.35-6.6c-.62.35-1.47.75-1.92 1.31-.34.42-.58.86-.68 1.39a9.5 9.5 0 0 0-.15 1.07c-.09 1.32.71 1.77 1.75.82.93-.85 1.99-3.51 1-4.59z" fill="#525F55"/>
</g>
<g id="Left-Holster" class="toggle" style=""><g id="Hanging-Holster_Left" class="option">
<g id="Weapon_Hanging-Holster-Left">
<g id="Main_Weapon_Hanging-Holster-Left" fill="#2F2B2B">
<path d="m117.12 122.65.17-3.6.62.03.11-2.26-.62-.03.05-1.18c.02-.38.54-.67 1.18-.64l5.38.25c.63.03 1.13.36 1.11.75l-.06 1.18-.62-.03-.11 2.26.62.03-.17 3.6-1.47-.07-.46 9.96-4.74-.22.46-9.96-1.45-.07z"/>
<path d="m124.19 122.45-.84-.04-.56 11.97-4.74-.22.56-11.98-.84-.04.13-2.73 6.42.29-.13 2.75z"/>
<path d="m123.18 115.96-3.8-.17-.17 3.7 3.8.17.17-3.7zm-3.53 7.36-.62-.03-.44 9.41.62.03.44-9.41zm1.69-2.07-.62-.03-.44 9.41.62.03.44-9.41zm1.49 2.22-.62-.03-.44 9.41.62.03.44-9.41z"/>
</g>
<g id="Accent_Weapon_Hanging-Holster-Left" fill="#7C7979">
<path d="m119.75 119.89-.02.38 2.68.12.02-.38-2.68-.12z"/>
<path d="m119.73 120.26-.02.38 2.68.12.02-.38-2.68-.12zm.03-.75-.02.38 2.68.12.02-.38-2.68-.12zm.22-4.64-.02.38 2.68.12.02-.38-2.68-.12z"/>
<path d="m120 115.82-.62-.03-.17 3.7.62.03.17-3.7zm3.18.14-.62-.03-.17 3.7.62.03.17-3.7zm-.97 7.48-.95-.04-.44 9.42.95.04.44-9.42zm-1.61-.08-.95-.04-.44 9.41.95.04.44-9.41z"/>
</g>
</g>
<path id="Holster_Hanging-Holster-Left" d="m117.16 136.53-.76-15.17 7.05 11.42-1.56 20.64c-1.64 1.71-3.26 1.73-4.85-.18l.12-16.71z" fill="#5D3715"/>
<g id="Straps_Hanging-Holster-Left" fill="#624429">
<path d="M90.19 96.9c7.71 11 15.47 20.31 26.2 24.47l.13 2.6c-13.34-5.59-20.49-15.06-28.38-27.07h2.05zm26.93 42.72a42.51 42.51 0 0 1-24.34 8.98l.67 2.06c8.08-.73 15.62-3.7 23.68-8.87v-2.17z"/>
<path d="m117.12 141.79.02-2.17c1.87.83 4.05.89 5.77.28l-.17 2.21c-1.85.48-3.95.51-5.62-.32z"/>
</g>
<g id="Buckle_Hanging-Holster-Left" fill="#5B5A5A">
<path d="m100.26 148.49-1.01.15.05.33 1.01-.15-.05-.33M97.5 108l-.7-.92-.27.2.7.92.27-.2"/>
<path d="m97.23 108.21-1.15.92-2.7-3.31 2.6-2.1 2.7 3.31-1.19.97-.58-.76.58-.47-1.49-1.83-1.43 1.15 1.49 1.83.59-.47.58.76m2.99 40.28-.8.12-.12-.78-1.94.41.27 1.81 1.94-.41-.1-.7.8-.12.21 1.39-3.52.75-.49-3.28 3.52-.75.23 1.56"/>
</g>
</g></g>
<g id="Right-Holster" class="toggle" style=""><g id="Hanging-Holster_Right" class="option">
<g id="Weapon_Hanging-Holster-Right">
<g id="Main_Weapon_Hanging-Holster-Right" fill="#2F2B2B">
<path d="m52.77 122.65-.17-3.6-.62.03-.11-2.26.62-.03-.05-1.18c-.02-.38-.54-.67-1.18-.64l-5.38.25c-.63.03-1.13.36-1.11.75l.06 1.18.62-.03.11 2.26-.62.03.17 3.6 1.47-.07.46 9.96 4.74-.22-.46-9.96 1.45-.07z"/>
<path d="m45.7 122.45.84-.04.56 11.97 4.74-.22-.56-11.98.84-.04-.12-2.72-6.42.29.12 2.74z"/>
<path d="m46.72 115.96 3.8-.17.17 3.7-3.8.17-.17-3.7zm3.52 7.36.62-.03.44 9.41-.62.03-.44-9.41zm-1.69-2.07.62-.03.44 9.41-.62.03-.44-9.41zm-1.49 2.22.62-.03.44 9.41-.62.03-.44-9.41z"/>
</g>
<g id="Accent_Weapon_Hanging-Holster-Right" fill="#7C7979">
<path d="m50.15 119.89.02.38-2.68.12-.02-.38 2.68-.12z"/>
<path d="m50.16 120.26.02.38-2.68.12-.02-.38 2.68-.12zm-.03-.75.02.38-2.68.12-.02-.38 2.68-.12zm-.22-4.64.02.38-2.68.12-.02-.37 2.68-.13z"/>
<path d="m49.89 115.82.62-.03.17 3.7-.62.03-.17-3.7zm-3.17.14.62-.03.17 3.7-.62.03-.17-3.7zm.97 7.48.95-.04.44 9.42-.95.04-.44-9.42zm1.6-.08.95-.04.44 9.41-.95.04-.44-9.41z"/>
</g>
</g>
<path id="Holster_Hanging-Holster-Right" d="m52.74 136.53.76-15.17-7.05 11.42 1.56 20.64c1.64 1.71 3.26 1.73 4.85-.18l-.12-16.71z" fill="#5D3715"/>
<g id="Straps_Hanging-Holster-Right" fill="#624429">
<path d="M79.7 96.9c-7.71 11-15.47 20.31-26.2 24.47l-.13 2.6c13.34-5.59 20.49-15.06 28.38-27.07H79.7zm-26.92 42.72a42.51 42.51 0 0 0 24.34 8.98l-.67 2.06c-8.08-.73-15.62-3.7-23.68-8.87v-2.17z"/>
<path d="m52.78 141.79-.02-2.17a8.04 8.04 0 0 1-5.77.28l.17 2.21c1.84.48 3.94.51 5.62-.32z"/>
</g>
<g id="Buckle_Hanging-Holster-Right" fill="#5B5A5A">
<path d="m69.64 148.49 1.01.15-.05.33-1.01-.15.05-.33M72.39 108l.7-.92.27.2-.7.92-.27-.2"/>
<path d="m72.66 108.21 1.15.92 2.7-3.31-2.6-2.1-2.7 3.31 1.19.97.58-.76-.58-.47 1.49-1.83 1.43 1.15-1.49 1.83-.59-.47-.58.76m-2.99 40.28.8.12.12-.78 1.94.41-.27 1.81-1.94-.41.1-.7-.8-.12-.21 1.39 3.52.75.49-3.28-3.52-.75-.23 1.56"/>
</g>
</g></g>
<g id="Left-Trophy" class="toggle" style="display:none"/>
<g id="Right-Trophy" class="toggle" style="display:none"/>
</g>
<g id="Under-Belt">
<g id="Sash" class="option" fill="#525F55">
<path d="M56.68 79.7c2.57-.54 6.55 1.03 9.91 1.3 3.6.29 7.2.03 10.79.27 2.1.14 4.17.66 6.25.94 4.01.53 8.02.25 12.02-.26 1.05-.14 2.13-.16 3.17-.37 2.62-.54 6.03-1.14 8.28-2.19 2-.5 4.01-.58 5.89-.12 1.91.47.57 4.25.66 5.8.09 1.64 1.27 8.06 1.98 9.56.78 1.66 1.4 3.47-.88 4.56-1.91.91-3.95.09-5.89-.17-2.29-.3-4.57-.15-6.83.29-2.77.54-5.51 1.53-8.33 1.79-3.78.35-7.58-.34-11.36-.29-2.17.03-4.26.73-6.43.56-3.64-.29-6.95-1.77-10.48-2.11-1.78-.17-3.55.23-5.32.24-1.22 0-2.36-.33-3.54-.62-1.17-.28-2.27-.17-2.91-1.27-.48-.83.54-3.07 1.03-3.78 1.26-1.81 1.6-8.21 1.14-10.26-.4-1.74-.93-3.49.85-3.87z"/>
<path d="M54.09 94.91c4.02-.01 7.54-.09 11.16 1.3 12.27 4.7 11.99 4.06 17.21 4.59 7.68.78 10.74.49 13.92-.22 1.28-.29 2.57-.7 3.72-1.28a33.57 33.57 0 0 0 5.85-3.53c2.21-1.75 6.07-2.92 9.17-2.78 0 0-.6-2.02-1.46-7.99-.22-1.55.76-3.24-.01-5.33-.33-.9-3.38-.65-5.45-.49-4.09.33-5.9 3.28-9.05 5.62-1.84 1.37-4.02 2.99-6.74 3.86-4.28 1.38-10.94 2.01-23.58-2.18-4.12-1.36-7.61-3.95-13.05-3.12 0 0 .2 2.78.2 4.17 0 4.47-1.89 7.38-1.89 7.38z"/>
</g></g>
<g id="Belt"><g id="Pouch-Belt-6" class="option">
<path id="Main_Pouch-Belt-6" d="M115.21 92.95c-6.82.61-22.4 2.83-30.27 2.83-7.94 0-23.52-2.23-30.26-2.82l1.01-7.93c5.53.49 21.56 2.74 29.26 2.74 7.47 0 23.17-2.23 29.07-2.76l1.19 7.94z" fill="#2A2A2A"/>
<path id="Buckle_Pouch-Belt-6" d="M79.37 87.01h11.28v9.21H79.37z" fill="#535353"/>
<g id="Pouches_Pouch-Belt-6" fill="#846A53">
<path d="M70.81 84.98c-.29-.02-.58.03-.84.13l-2.1.82 8.08.46 2.19-.94c-.01.01-5.7-.36-7.33-.47z"/>
<path d="M78.41 85.73a.24.24 0 0 0-.1-.22.26.26 0 0 0-.24-.03l-2.14.91-1.05 12.41a7.2 7.2 0 0 1 2.15-.84c.41-.08.7-.43.71-.85.14-3.79.29-7.6.67-11.38z"/>
<path d="m75.94 86.4-8.08-.46c-.05 1.89-.23 3.77-.33 5.65-.11 2.08-.15 4.18-.34 6.28-.01.15.04.3.14.41.1.11.25.18.4.18 2.32-.01 4.63.13 6.93.4a.5.5 0 0 0 .4-.12.52.52 0 0 0 .19-.37l.37-5.34.32-6.63z"/>
<path d="m75.94 86.4-8.08-.46-.38 3.14a2.73 2.73 0 0 0 2.58 3.07l2.97.17a2.77 2.77 0 0 0 2.93-2.76l-.02-3.16z"/>
<path d="M71.64 90.75c.29.02.51.26.49.55a.53.53 0 0 1-.55.49.52.52 0 0 1-.49-.55c.02-.28.27-.5.55-.49zm-11.99-7.28c-.31-.02-.62.03-.91.16l-1.86.81 7.38.42 2-.95-6.61-.44z"/>
<path d="M66.52 84.19a.23.23 0 0 0-.1-.22.23.23 0 0 0-.24-.02l-1.91.9-1.02 12.42a6.9 6.9 0 0 1 1.93-.85.9.9 0 0 0 .69-.84c.12-3.8.28-7.6.65-11.39z"/>
<path d="m64.26 84.85-7.38-.42c-.06 1.89-.23 3.77-.33 5.65-.11 2.08-.16 4.17-.34 6.28-.01.15.04.3.14.41s.25.18.4.17c2.08-.01 4.15.11 6.22.36a.5.5 0 0 0 .4-.12.54.54 0 0 0 .19-.37l.37-5.33.33-6.63z"/>
<path d="m64.26 84.85-7.38-.42-.36 3.15a2.75 2.75 0 0 0 2.59 3.05l2.23.13a2.8 2.8 0 0 0 2.06-.75c.55-.52.87-1.25.86-2v-3.16z"/>
<path d="M60.31 89.23c.26.01.46.26.44.54-.02.28-.24.5-.5.49-.26-.01-.46-.26-.44-.54.02-.28.24-.5.5-.49zm-8.09-4.94.55-.85 2.83.09.35 1.06-3.73-.3z"/>
<path d="M55.93 84.69a.2.2 0 0 0-.06-.18.23.23 0 0 0-.17-.08l-3.48-.13-.5 11.17c.11.28 1.53.46 2.68.49a.9.9 0 0 0 .92-.88c.08-3.47.21-6.94.61-10.39zm43.15.29c.29-.02.58.03.85.13l2.1.82-8.08.46-2.19-.94 7.32-.47z"/>
<path d="M91.48 85.73a.24.24 0 0 1 .1-.22.26.26 0 0 1 .24-.03l2.14.91L95 98.81a7.2 7.2 0 0 0-2.15-.84.88.88 0 0 1-.71-.85c-.13-3.8-.28-7.61-.66-11.39z"/>
<path d="m93.95 86.4 8.08-.46c.05 1.89.23 3.77.33 5.65.11 2.08.15 4.18.34 6.28.01.15-.04.3-.14.41a.55.55 0 0 1-.4.18c-2.32-.01-4.63.13-6.93.4a.5.5 0 0 1-.4-.12.52.52 0 0 1-.19-.37l-.37-5.34-.32-6.63z"/>
<path d="m93.95 86.4 8.08-.46.38 3.14a2.76 2.76 0 0 1-2.58 3.07l-2.97.17a2.8 2.8 0 0 1-2.06-.75 2.73 2.73 0 0 1-.86-2.01l.01-3.16z"/>
<path d="M98.25 90.75a.52.52 0 0 0-.49.55c.02.28.26.5.55.49a.52.52 0 0 0 .49-.55.53.53 0 0 0-.55-.49zm11.99-7.28c.31-.02.62.03.91.16l1.86.81-7.38.42-2-.95 6.61-.44z"/>
<path d="M103.37 84.19a.23.23 0 0 1 .1-.22.23.23 0 0 1 .24-.02l1.91.9 1.02 12.42a6.9 6.9 0 0 0-1.93-.85.9.9 0 0 1-.69-.84c-.12-3.8-.28-7.6-.65-11.39z"/>
<path d="m105.63 84.85 7.38-.42c.06 1.89.23 3.77.33 5.65.11 2.08.16 4.17.34 6.28.01.15-.04.3-.14.41a.5.5 0 0 1-.4.17c-2.08-.01-4.15.11-6.22.36a.5.5 0 0 1-.4-.12.54.54 0 0 1-.19-.37l-.37-5.33-.33-6.63z"/>
<path d="m105.63 84.85 7.38-.42.36 3.15a2.75 2.75 0 0 1-2.59 3.05l-2.23.13a2.8 2.8 0 0 1-2.06-.75 2.72 2.72 0 0 1-.86-2v-3.16z"/>
<path d="M109.58 89.23c-.26.01-.46.26-.44.54.02.28.24.5.5.49.26-.01.46-.26.44-.54-.01-.28-.24-.5-.5-.49zm8.09-4.94-.55-.85-2.83.09-.35 1.06 3.73-.3z"/>
<path d="M113.96 84.69a.2.2 0 0 1 .06-.18.23.23 0 0 1 .18-.08l3.48-.13.5 11.17c-.11.28-1.53.46-2.68.49a.9.9 0 0 1-.92-.88 116.3 116.3 0 0 0-.62-10.39z"/>
</g>
</g></g>
</g>
<g id="WaistDecals" mask="url(#WaistMask)"/>
<g id="Extras_Front">
<g id="Front"><g id="None_Front" class="option"/>
</g>
</g>
<g id="Extras-FrontDecals" mask="url(#FrontMask)"/>
</g>
</svg>