<?xml version='1.0' encoding='UTF-8'?>
<svg version="1.1" id="Male-Body" xmlns="http://www.w3.org/2000/svg" xmlns:serif="http://www.serif.com/" viewBox="0 -55 170 310" style="stroke-width: 0.2px; fill-rule: evenodd; stroke-linejoin: round;" width="510" height="930">
<style>
mask {
mask-type: alpha;
}
.decal {
stroke: none;
}
</style>
<defs id="Masks" stroke="none">
<mask id="HelmetsMask"> <use href="#Helmets"/> </mask>
<mask id="CollarMask"> <use href="#Collar"/> </mask>
<mask id="ShouldersMask"> <use href="#Shoulders"/> </mask>
<mask id="ChestMask"> <use href="#Chest"/> </mask>
<mask id="BicepsMask"> <use href="#Biceps"/> </mask>
<mask id="GauntletsMask"> <use href="#Gauntlets"/> </mask>
<mask id="WaistMask"> <use href="#Waist"/> </mask>
<mask id="GroinMask"> <use href="#Groin"/> </mask>
<mask id="ThighsMask"> <use href="#Thighs"/> </mask>
<mask id="KneesMask"> <use href="#Knees"/> </mask>
<mask id="ShinsMask"> <use href="#Shins"/> </mask>
<mask id="FootMask"> <use href="#Foot"/> </mask>
</defs>
<defs id="Decals"/><metadata><rdf:rdf xmlns:rdf="http://www.w3.org/1999/02/22-rdf-syntax-ns#" xmlns:rdfs="http://www.w3.org/2000/01/rdf-schema#" xmlns:dc="http://purl.org/dc/elements/1.1/"><rdf:description><dc:creator>MandoCreator</dc:creator><dc:publisher>https://www.mandocreator.com</dc:publisher><dc:description>Your Beskar'gam - created by MandoCreator</dc:description><dc:format>image/svg+xml</dc:format><dc:type>Image</dc:type><dc:title>MandoCreator - Ner Berskar'gam</dc:title><dc:date>2022-03-14T14:03:49.906Z</dc:date></rdf:description></rdf:rdf></metadata><g id="Main-Body" fill="white" stroke="black">
<g id="Extras_Back">
<g id="Back"><path id="Torn-Full-Cape_Back" class="option" d="M68.3 16.3c-11.77 4.4-24.85 25.6-26.46 41.8-1.01 10.2-6.03 20.5-5.53 30.7.5 10.3-4.73 21-5.13 31.2-.3 9.3-3.12 13.5-4.73 22.7-2.41 13.7-5.03 22.7-7.14 36.5a59.51 59.51 0 0 1-9.25 23.3c-.1.1 2.52-1.2 5.63-1.2.91 0 5.53-6.7 5.53-6.7s5.73 4.7 6.94 7.4c1.51-1 2.72-15.2 4.53-15.7.91-.3 2.62 17.8 2.62 17.8s2.72-5.4 3.82-5.4c2.31 0 6.44 2 8.75 2.3 2.41.3 5.03-3.8 7.74-3.1 4.12 1 8.25.9 12.37 1.5 2.92.4 5.83 6 8.75 6 3.62 0 3.12-8.4 6.84-9.2 3.12-.7 7.44 6.8 7.44 6.8s1-24.9 4.12-26c4.12-1.3 19.51 18.8 23.74 18.4 1.31-.1 2.92-12.7 4.12-12.7 2.72.1 5.03 13 7.74 13.5 3.32.6 5.03-5.6 8.25-4.8.9.2 3.52 7.6 4.53 7.8 2.01.5 4.83 1.7 7.04 1.5.1 0-.7-4.9-.8-5.4-.5-2.3-1.21-4.6-2.21-6.8a55.2 55.2 0 0 0-4.02-7.6c-7.14-11.2-4.63-23.4-5.94-36.6-1.21-12.8.1-25.6-2.11-38.4-1.91-11.3-8.65-21.8-10.36-33.2-2-13.4-6.52-27.7-10.65-40.7-5.03-15.9-34.4-20.1-46.17-15.7zM71.62 186c-.9 2.4-1.31 4.9-1.01 7.5.1 1.2.5 2.4 1.01 3.4.1.1.1.4.2.3 4.43-3.9-.2-11.2-.2-11.2zm-34.5-24.2c-.4 7.7-1.11 15.5-1.11 23.2 0 1.4 0 2.9.2 4.3 0 .2.2 2.3.4 2.3 2.62-.5 1.41-7.7 2.01-9.9 2.02-7.6-1.5-19.9-1.5-19.9zm92.24 26.8c-.2 2.8.6 2.5 1.31 1.1.7-1.4 1.31-3.9.6-5.5l-1.91 4.4zm-11.47-24.4c-.6 4.6.4 8.6.71 13.2.1 1.5.1 3 .1 4.5v1.5c0 .3-.2 1 0 .8 3.52-3.6 3.12-10.7 2.01-15.2l-2.82-4.8zm-42.04 13.7c0 1.2 0 2.4.1 3.6.3 2.4 1.71-1.4 1.71-2.3 0-1.3-.81-2.8-1.21-4.1l-.6 2.8z" fill="#171717"/></g>
</g>
<g id="Extras-BackDecals" mask="url(#BackMask)"/>
<g id="Suit">
<g id="Neck-Seal"><g id="Standard-Neck-Seal" class="option" fill="#141414">
<path d="M98.75 7.5c0-.9-.93-1.62-2.07-1.62 0 0-7.8.85-11.7.85s-11.7-.85-11.7-.85c-1.14 0-2.07.73-2.07 1.62s.93 1.62 2.07 1.62c0 0 7.8.85 11.7.85s11.7-.85 11.7-.85c1.15.01 2.07-.72 2.07-1.62z"/>
<path d="M99.45 9.4c0-.94-.97-1.71-2.17-1.71 0 0-8.2.9-12.29.9s-12.3-.89-12.3-.89c-1.2 0-2.17.76-2.17 1.71s.97 1.71 2.17 1.71c0 0 8.2.9 12.29.9s12.29-.9 12.29-.9c1.21-.01 2.18-.78 2.18-1.72z"/>
<path d="M100.24 11.76c0-.99-1.03-1.8-2.29-1.8 0 0-8.64.95-12.96.95s-12.97-.95-12.97-.95c-1.26 0-2.29.81-2.29 1.8s1.03 1.8 2.29 1.8c0 0 8.64.95 12.97.95s12.96-.95 12.96-.95c1.26 0 2.29-.81 2.29-1.8z"/>
<path d="M101 13.92c0-1.04-1.08-1.89-2.41-1.89 0 0-9.08.99-13.61.99s-13.61-.99-13.61-.99c-1.33 0-2.41.85-2.41 1.89s1.08 1.89 2.41 1.89c0 0 9.08.99 13.61.99s13.61-.99 13.61-.99c1.34 0 2.41-.85 2.41-1.89z"/>
<path d="M101.76 16.04c0-.79-1.13-1.43-2.52-1.43 0 0-9.51.75-14.26.75s-14.26-.75-14.26-.75c-1.39 0-2.52.64-2.52 1.43 0 .79 1.13 1.43 2.52 1.43 0 0 9.51.75 14.26.75s14.26-.75 14.26-.75c1.39 0 2.52-.64 2.52-1.43z"/>
<path d="M101.76 18.42c0-.79-1.13-1.43-2.52-1.43 0 0-9.51.75-14.26.75s-14.26-.75-14.26-.75c-1.39 0-2.52.64-2.52 1.43 0 .79 1.13 1.43 2.52 1.43 0 0 9.51 1.44 14.26 1.44s14.26-1.44 14.26-1.44c1.39-.01 2.52-.64 2.52-1.43z"/>
</g>
</g>
<path id="Flight-Suit" d="m73.36 158.45-1.49 8.72-11.03 53.11s-4.93 2.96-7.47 3.46c-2.53.5-7.73-.44-7.73-.44l3.85-43 2.9-18.36.66-7.82s-2.53-22.78-1.7-34.14c.82-11.36 6.66-34.01 6.66-34.01l26.98.58 26.97-.58s5.83 22.66 6.66 34.01c.83 11.36-1.7 34.14-1.7 34.14l.66 7.82 2.9 18.36 3.85 43s-5.32 1.19-7.85.69c-2.53-.5-7.34-3.71-7.34-3.71L98.1 167.16l-1.49-8.72-11.62-30.33-11.63 30.34zm56.05-115.12 11.98 41.65 1.04 21.47-9.55 1.83-6.05-20.21-13.65-33.95.69-15.55 2.31-3.72 13.23 8.48zm-88.82-.03 13.19-8.45 2.31 3.72.52 16.04-13.44 33.46-6.05 20.21-9.55-1.83 1.03-21.47L40.59 43.3z" fill="#0B0B0B"/>
<g id="Sleeves" class="toggle" fill="#101010">
<path d="m112.2 56.12 2.68 5.9s4.24-3.2 7.06-4.8 4.38-2.62 6.92-3.6a33.81 33.81 0 0 1 5.08-1.47l-6.07-12.25-5.79-9.67-11.58 5.14 1.7 20.75z"/>
<path d="M113.61 59.24c-.2-.24 5.08-4.5 8.61-6.34 3.53-1.84 10.25-3.69 10.25-3.69"/>
<path d="m57.8 56.12-2.68 5.9s-4.24-3.2-7.06-4.8c-2.82-1.59-4.38-2.62-6.92-3.6a33.81 33.81 0 0 0-5.08-1.47l6.07-12.25 5.79-9.67 11.58 5.14-1.7 20.75z"/>
<path d="M56.39 59.24c.2-.24-5.08-4.5-8.61-6.34-3.53-1.84-10.25-3.69-10.25-3.69"/>
</g>
</g>
<g id="Boots">
<g id="Tall_Boots" class="option">
<path id="Bottom_Tall-Boot" d="M107.62 230.35c.02.13.06.26.1.4.96 1.77 3.59 2.37 5.38 2.79 1.27.3 2.5.72 3.7 1.22 1.66.7 2.49 1.93 3.79 3.1.58.52 1.26.93 1.92 1.32 1.65.99 3.25 1.07 5.13 1.12 2.52.07 4.75-.27 7.23-.82 2.17-.48 3.79-.89 5.67-1.42.56-.16 1.25-.27 1.59-.69l.28.63.21 1.64s-2.03 1.09-4.2 1.57c-2.16.48-6.53 1.15-6.53 1.15l-.3-.71-.98.21.05.7-2.38.13-.51-.69-.79.02.12.61s-1.47-.02-2.29-.51c-.15-.23-.46-.61-.46-.61l-.56-.31.07.58-2.04-.73-.1-.79-.59-.34-.03.57-1.46-1.12-.16-.69-3.14-1.64-1.07.43-2.55-.55-.08-.55-.65-.27-.45.42-1.71-.7-.04-.51-.56-.19-.06.37-1.62-1.12.07-4.02zm-.06-.65zm-45.19.65c-.02.13-.06.26-.1.4-.97 1.77-3.59 2.37-5.38 2.79-1.27.3-2.5.72-3.7 1.22-1.66.7-2.49 1.93-3.79 3.1-.58.52-1.26.93-1.92 1.32-1.65.99-3.25 1.07-5.13 1.12-2.52.07-4.75-.27-7.23-.82a95.65 95.65 0 0 1-5.67-1.42c-.56-.16-1.25-.27-1.59-.69l-.28.63-.21 1.64s2.03 1.09 4.2 1.57c2.16.48 6.53 1.15 6.53 1.15l.3-.71.98.21-.05.7 2.38.13.51-.69.8.02-.12.61s1.47-.02 2.29-.51c.15-.23.46-.61.46-.61l.56-.31-.07.58 2.04-.73.1-.79.59-.34.02.57 1.46-1.12.16-.69 3.14-1.64 1.07.43 2.55-.55.08-.55.65-.27.45.42 1.71-.7.04-.51.56-.19.07.37 1.62-1.12-.08-4.02zm.06-.65z" fill="#131313"/>
<path id="Main_Tall-Boot" d="M107.64 216.98c-1.45-4.23-2.54-10.99-3.41-14.07-.65-2.31-3.63-14.87-3.14-16.45.5-1.6 19.67-4.86 20.29-3.42.94 2.2 2.03 23.99 2.2 27.2.12 2.35.47 4.66.47 7.01v.01c.25 1.28.46 2.66.99 3.81 1.01 2.17.97 3.11 2.65 4.75 1.16 1.13 4.16 3.11 5.54 3.97.58.36 1.21.64 1.85.88l.06.02c2.55.95 5.3 1.3 6.68 4.11.3.61.56 1.34.51 2.04-.07.89-1.04 1.01-1.79 1.23-1.88.53-3.5.94-5.67 1.42-2.48.55-4.71.89-7.23.82-1.88-.05-3.47-.13-5.13-1.12-.67-.4-1.35-.8-1.92-1.32-1.29-1.17-2.13-2.4-3.79-3.1a22.9 22.9 0 0 0-3.7-1.22c-1.8-.43-4.42-1.02-5.38-2.79-.37-1.33.01-1.98.13-3.12l.06-.49c.1-.74.23-1.5.27-2.31.08-1.54-.31-3.06-.41-4.59-.06-.87-.1-1.74-.12-2.61 0-.12-.04-.45-.01-.66zm-45.29 0c1.45-4.23 2.54-10.99 3.41-14.07.65-2.31 3.63-14.87 3.14-16.45-.5-1.6-19.67-4.86-20.29-3.42-.94 2.2-2.03 23.99-2.2 27.2-.12 2.35-.47 4.66-.47 7.01l.01.01c-.25 1.28-.46 2.66-.99 3.81-1.01 2.17-.97 3.11-2.65 4.75-1.16 1.13-4.16 3.11-5.54 3.97-.59.36-1.21.64-1.85.88l-.06.02c-2.55.95-5.3 1.3-6.68 4.11-.3.61-.56 1.34-.51 2.04.07.89 1.04 1.01 1.79 1.23 1.88.53 3.5.94 5.67 1.42 2.48.55 4.72.89 7.23.82 1.88-.05 3.47-.13 5.13-1.12.67-.4 1.35-.8 1.92-1.32 1.29-1.17 2.13-2.4 3.79-3.1a22.9 22.9 0 0 1 3.7-1.22c1.8-.43 4.42-1.02 5.38-2.79.37-1.33-.01-1.98-.13-3.12l-.06-.49c-.1-.74-.23-1.5-.27-2.31-.08-1.54.31-3.06.41-4.59.06-.87.1-1.74.12-2.61-.02-.12.02-.45 0-.66z" fill="#272727"/>
</g></g>
<g id="Gloves">
<g id="Left-Glove"><g id="Basic_Left_Glove" class="option" fill="#0A0A0A">
<path d="M138.6 124.11a5.98 5.98 0 0 0-1.58.1c-.36.08-.72.16-1.04.35-.99.57-.72 1.81.16 2.28 1.03.55 2.66.01 3.13-1.05.19-.44-.41-1.26-.67-1.68"/>
<path d="M136.79 125.19a5.68 5.68 0 0 0-1.59.1c-.36.08-.72.16-1.04.35-.99.57-.72 1.81.16 2.28 1.03.55 2.66.01 3.13-1.05.2-.44-.4-1.26-.66-1.68"/>
<path d="M135.49 126.65a7.5 7.5 0 0 0-1.7.31c-.35.12-.69.26-.99.48-.9.7-.47 1.89.47 2.24 1.1.41 2.64-.35 2.96-1.46.13-.46-.74-1.57-.74-1.57z"/>
<path d="M132.55 110.05s-1.56 2.15-1.97 3.69c-.29 1.09-.13 3.68-.49 5.43-.36 1.74-.69 2.71-.69 2.71s-1.38 2.79-1.14 3.43c.24.64 1.45 1.21 2.15.87.86-.42 1.93-2.39 2.61-3.77.69-1.41 1.25-3.41 1.25-3.41s.95.32 1.43.7c1.61 1.24.91 4.96.91 4.96s-.66 1.33-1.66 2.83c-1.36 2.05-3.46 3.81-2.07 5.37 1.29 1.46 4.22-2.37 4.22-2.37l2.87-3.73s3.3-5.41 3.47-6.46c.13-.8.02-3.47.02-3.47l-1.03-10.37-5.24.44-4.31 1.39-.33 1.76"/>
</g>
</g>
<g id="Right-Glove"><g id="Basic_Right_Glove" class="option" fill="#0A0A0A">
<path d="M31.4 124.11a5.98 5.98 0 0 1 1.58.1c.36.08.72.16 1.04.35.99.57.72 1.81-.16 2.28-1.03.55-2.66.01-3.13-1.05-.2-.44.41-1.26.67-1.68"/>
<path d="M33.21 125.19a5.59 5.59 0 0 1 2.62.45c.99.57.72 1.81-.16 2.28-1.03.55-2.66.01-3.13-1.05-.19-.44.41-1.26.67-1.68"/>
<path d="M34.51 126.65a7.5 7.5 0 0 1 1.7.31c.35.12.69.26.99.48.9.7.47 1.89-.47 2.24-1.1.41-2.64-.35-2.96-1.46-.13-.46.74-1.57.74-1.57z"/>
<path d="M37.45 110.05s1.56 2.15 1.97 3.69c.29 1.09.13 3.68.49 5.43.36 1.74.69 2.71.69 2.71s1.38 2.79 1.14 3.43c-.24.64-1.45 1.21-2.15.87-.86-.42-1.93-2.39-2.61-3.77-.69-1.41-1.25-3.41-1.25-3.41s-.95.32-1.43.7c-1.61 1.24-.91 4.96-.91 4.96s.66 1.33 1.66 2.83c1.36 2.05 3.46 3.81 2.08 5.37-1.29 1.46-4.22-2.37-4.22-2.37l-2.87-3.73s-3.3-5.41-3.47-6.46c-.13-.8-.02-3.47-.02-3.47l1.03-10.37 5.24.44 4.31 1.39.32 1.76"/>
</g>
</g>
</g>
<g id="Biceps">
<g id="Left-Biceps"><g id="Basic_Biceps_Left" class="option">
<path id="Main_Basic_Biceps_Left" d="M134.37 52.38c-1.14-2.74-6.21-14.78-6.21-14.78l-10.42 4.28c-.59.24-.87.91-.63 1.5l4.87 11.74a3.36 3.36 0 0 0 4.37 1.8l7.4-3.04c.58-.25.86-.92.62-1.5z" fill="#141414"/>
<path id="Strap_Basic_Biceps_Left" d="m119.35 48.7-5.85 2.4-.14 4.29 7.49-3.07-1.5-3.62" fill="#444343"/>
<path id="Trauma-Plate_Basic_Biceps_Left" class="toggle" style="" d="m134.34 51.81-5.29-12.74-10.16 4.17 4.67 11.24c.17.4.49.72.89.88.4.17.85.17 1.26 0l8.63-3.55" fill="#1E1E1E"/>
</g>
</g>
<g id="Right-Biceps"><g id="Basic_Biceps_Right" class="option">
<path id="Main_Basic_Biceps_Right" d="M35.65 52.38c1.14-2.74 6.22-14.78 6.22-14.78l10.42 4.28c.59.24.87.91.63 1.5l-4.87 11.74a3.36 3.36 0 0 1-4.37 1.8l-7.4-3.04a1.16 1.16 0 0 1-.63-1.5z" fill="#141414"/>
<path id="Strap_Basic_Biceps_Right" d="m50.68 48.7 5.85 2.4.14 4.29-7.49-3.07 1.5-3.62" fill="#444343"/>
<path id="Trauma-Plate_Basic_Biceps_Right" class="toggle" style="" d="m35.69 51.81 5.29-12.74 10.16 4.17-4.66 11.24a1.67 1.67 0 0 1-2.15.88l-8.64-3.55" fill="#1E1E1E"/>
</g>
</g>
</g>
<g id="BicepsDecals" mask="url(#BicepsMask)"/>
<path id="Vest" d="M85 20.92c8.5-.01 15.43-4.3 15.63-8.01l.15.02 18.38 5.42 13.31 23.94-2.86 1.16-13.42-8.6-2.31 3.72-1.54 47.4s-8.72 4.71-13.53 5.35c-3.44.45-8.63.68-13.79.67-5.16.01-10.35-.22-13.79-.67-4.81-.63-13.53-5.35-13.53-5.35l-1.54-47.4-2.31-3.72-13.42 8.6-2.86-1.16 13.31-23.94 18.38-5.42.15-.02c.16 3.71 7.09 8.01 15.59 8.01" fill="#111111"/>
<g id="SuitDecals" mask="url(#SuitMask)"/>
<g class="swappable" id="Chest"><g id="Chest_Gunslinger">
<g id="Abdomen_Gunslinger">
<g id="Left_Abdomen_Gunslinger" fill="#F56A0A">
<path d="m99.07 74.44 7.25-12.98-3.77-5.3-.3-.64-4.12.51-1.69 20 2.63-1.59z"/>
<path d="m99.07 74.44 7.25-12.98 1.9 2.67 2.51-1.99-.67 8.89-10.99 3.41z"/>
</g>
<g id="Right_Abdomen_Gunslinger" fill="#F56A0A">
<path d="m70.93 74.44-7.25-12.98-1.9 2.67-2.51-1.99.67 8.89 10.99 3.41z"/>
<path d="m70.93 74.44-7.25-12.98 3.77-5.3.3-.64 4.12.51 1.69 20-2.63-1.59z"/>
</g>
<path id="Center_Abdomen_Gunslinger" d="m85 51.76 13.13 4.27-1.69 20-2.01 1.21-9.43-.5-9.43.51-2.01-1.21-1.69-20L85 51.76z" fill="#1E1E1E"/>
</g>
<g id="Left-Chest_Gunslinger" fill="#1E1E1E">
<path d="M85.76 29.31v-3.08l2.54-2.52 24.4-2.75 2.19 13.55-3.63 27.22-3.03 2.41-5.67-7.97-1.59-3.38-15.13-4.59 3.93-3.91V32.92l-4.01-3.61z"/>
<path d="m100.96 52.78 11.15-6.55 2.77-11.71-2.45 12.59-9.88 9.05-1.59-3.38z"/>
<path d="m102.25 55.52-4.12.51L85 51.76v-3.78l15.96 4.79 1.29 2.75z"/>
</g>
<g id="Right-Chest_Gunslinger" fill="#1E1E1E">
<path d="M84.24 29.31v-3.08l-2.54-2.52-24.4-2.75-2.18 13.54 3.63 27.22 3.03 2.41 5.67-7.97 1.59-3.38 15.13-4.59-3.93-3.91V32.92l4-3.61z"/>
<path d="m69.04 52.78-11.15-6.55-2.77-11.71 2.45 12.59 9.88 9.05 1.59-3.38z"/>
<path d="m67.75 55.52 4.12.51L85 51.76v-3.78l-15.96 4.79-1.29 2.75z"/>
</g>
<g id="Iron-Heart_Gunslinger">
<path id="Under-Heart_Gunslinger" d="m84.17 48.19-3.93-3.91V32.92l4.01-3.61v-3.08h1.51v3.08l4.01 3.61v11.36l-3.93 3.91-.84-.21-.83.21z" fill="#1C1C1C"/>
<path id="Heart_Gunslinger" d="M82.1 43.35v-9.4l2.9-2.88 2.9 2.88v9.4L85 46.23l-2.9-2.88z" fill="#212121"/><path id="Center_Heart_Gunslinger" class="option" d="M84.14 34.52h1.72v8.25h-1.72z" fill="#F56A0A"/>
</g>
</g></g>
<g id="ChestDecals" mask="url(#ChestMask)"/>
<g id="Chest-Attachments"><g id="No-Device_Accessories_Chest" class="option"/>
</g>
<g id="Collar"><g id="Cloth-Wrap-Right_Collar" class="option">
<g id="Main_Cloth-Wrap-Right_Collar" fill="#171717">
<path d="M94.88 22.25c5-1.56 5.91-4.07 6.21-6.59.12-1.03-1.36-3.72.17-4.41 1.73-.78 5.81.44 7.49.8 1.25.27 2.36.58 3.63.59 2.94.03 5.28 1.99 5.54 3.45.37 2.04-3.27 2.78-4.97 4.33-4.26 3.88-5.74 9.13-14.69 10.57-4.11.66-8.18-.27-11.99-1.12-9.86-2.19-15.23-4.07-21.57-8.93-2.77-2.13-6.95-3.86-6.85-6.71.01-.12 2.02-1.31 2.22-1.36 1.78-.44 3.29-1.17 5.24-1.21 1.17-.02.98.98 1.06 1.43.33 1.74 1.93 3.05 3.93 4.36 5.3 3.47 17.34 4.54 24.58 4.8z"/>
<path d="M94.88 22.25c1.32.05 2.48.25 3.5.32 4.57.28 6.21-.83 7.09-2.86m3.63-7.6a6.08 6.08 0 0 1 .1 6.33m-38.49-.21c3.43 4.66 8.51 6.13 14.08 6.7M61.44 12.49c.2 1.18.91 1.62 1.78 2.41.5.46 1.12.78 1.52 1.35.14.2.22.44.31.67"/>
</g>
<path id="Buckle_Cloth-Wrap-Right_Collar" d="m71.89 17.35-2.91-2.08-5.06 7.02 2.91 2.08 5.06-7.02z" fill="#908F8F"/>
</g></g>
<g id="CollarDecals" mask="url(#CollarMask)"/>
<g id="Helmets" class="swappable" transform="translate(45,-62)"><g id="Helmet_Stalker-Medium">
<g id="Left-Earcap_Stalker-Medium" class="toggle"><g id="Ear-Cap_Left_Stalker-Medium" fill="#F56A0A">
<path d="m57.56 40.96 2.4 1.65.94 10.41-2.07 2.06-1.27-14.12z"/>
<path d="M58.6 47.7a.2.2 0 0 1 .18-.22l.97-.09a.2.2 0 0 1 .22.18.2.2 0 0 1-.18.22l-.97.09a.2.2 0 0 1-.22-.18z"/>
</g>
</g>
<g id="Right-Earcap_Stalker-Medium" class="toggle"><g id="Ear-Cap_Right_Stalker-Medium" fill="#F56A0A">
<path d="m22.44 40.96-2.4 1.65-.94 10.41 2.07 2.06 1.27-14.12z"/>
<path d="M21.4 47.7a.2.2 0 0 0-.18-.22l-.97-.09a.2.2 0 0 0-.22.18.2.2 0 0 0 .18.22l.97.09a.2.2 0 0 0 .22-.18z"/>
</g>
</g>
<g id="Helmet_Pieces_Stalker-Medium">
<g id="Dome-2_Stalker-Medium" fill="#1E1E1E">
<path d="m33.06 30.32-.02-.06s-6.45 1.52-8.89 7.94a27.44 27.44 0 0 0-.97 4.19c.12-.19.23-.37.34-.5.46-.6 1.2-1.48 1.89-2.15.98-.95 2.81-2.27 4-3.57a30.05 30.05 0 0 0 3.1-4.23 6.2 6.2 0 0 0 .55-1.62zM47.08 30.32l.02-.06s6.45 1.52 8.89 7.94c.43 1.13.81 3.23.97 4.19a7.05 7.05 0 0 0-.34-.5c-.46-.6-1.21-1.48-1.89-2.15-.98-.95-2.81-2.27-3.99-3.57a30.05 30.05 0 0 1-3.1-4.23 5.58 5.58 0 0 1-.56-1.62zM56.86 39.69l.84.86 1.35 14.93-.67 1-1.52-16.79z"/>
<path d="m56.05 38.54.8.86 1.56 17.34-.63.99-1.73-19.19z"/>
<g>
<path d="m23.25 39.69-.84.86-1.35 14.93.67 1 1.52-16.79z"/>
<path d="m24.06 38.54-.8.86-1.56 17.34.63.99 1.73-19.19z"/>
</g>
</g>
<g id="Dome-1_Stalker-Medium" fill="#F56A0A">
<path d="M33.07 30.22a6.2 6.2 0 0 1-.57 1.72l-.2.33c-.39.08-.84.2-1.22.37a17.8 17.8 0 0 0-2.06 1.23v-1.85s.97-.54 1.94-1c.65-.31 1.58-.63 2.11-.8z"/>
<path d="M32.36 32.16a30.67 30.67 0 0 1-2.97 4.01l-.38.4v-2.69s.87-.76 1.92-1.18c.5-.2 1.02-.39 1.43-.54z"/>
<g>
<path d="M47.08 30.22c.1.47.28 1.24.57 1.72l.2.33c.39.08.85.2 1.22.37a17.8 17.8 0 0 1 2.06 1.23v-1.85s-.97-.54-1.94-1c-.66-.31-1.59-.63-2.11-.8z"/>
<path d="M47.79 32.16c.66 1.07 1.87 2.8 2.97 4.01l.38.4v-2.69s-.87-.76-1.92-1.18c-.5-.2-1.03-.39-1.43-.54z"/>
</g>
</g>
<g id="Face-2_Stalker-Medium" fill="#1E1E1E">
<path d="m23.68 61.12-.13-3.41-2.31 3.27s-.12 2.86.29 4.04c.4 1.17 1.31 2.13 2.15 3.04.95 1.03 12.12 8.49 12.12 8.49l-1.92-8.26-1.85.71-1.61-.79-2.06-1.61-2.16-2.12-1.7-1.93-.82-1.17v-.26zM56.45 61.12l.13-3.41 2.31 3.27s.12 2.86-.29 4.04c-.4 1.17-1.31 2.13-2.15 3.04-.95 1.03-12.12 8.49-12.12 8.49l1.92-8.26 1.85.71 1.61-.79 2.06-1.61 2.16-2.12 1.7-1.93.82-1.17v-.26z"/>
</g>
<g id="Face-1_Stalker-Medium" fill="#0F0F0F">
<path d="M23.68 61.12v.25l.82 1.17 1.7 1.93 2.16 2.12 2.06 1.61 1.61.8 1.85-.72-.25-1.09-3.58-8.74-4.56-3.47-1.93 2.73.12 3.41z"/>
<path d="M29.89 65.5a.2.2 0 0 1 .04-.29l1.31-1.03a.2.2 0 1 1 .26.32l-1.31 1.03a.2.2 0 0 1-.3-.03M30.69 66.84a.2.2 0 0 1 .03-.29l1.11-.87a.2.2 0 0 1 .29.04.2.2 0 0 1-.03.29l-1.11.87a.2.2 0 0 1-.29-.04"/>
<g>
<path d="M56.45 61.12v.25l-.82 1.17-1.7 1.93-2.16 2.12-2.06 1.61-1.61.8-1.85-.72.25-1.09 3.58-8.74 4.56-3.47 1.93 2.73-.12 3.41z"/>
<path d="M50.24 65.5a.2.2 0 0 0-.04-.29l-1.31-1.03a.2.2 0 1 0-.26.32l1.31 1.03c.1.08.23.06.3-.03M49.44 66.84a.2.2 0 0 0-.03-.29l-1.11-.87a.2.2 0 0 0-.29.04.22.22 0 0 0 .03.29l1.11.87c.08.07.21.05.29-.04"/>
</g>
</g>
<g id="Cheeks_Stalker-Medium" fill="#F56A0A">
<path d="m46.51 67.19-.86-.23 4.27-12.28.17.57v3.2l-3.58 8.74z"/>
<path d="m50.09 58.45-.17-3.77 1.73-.94 2.92-1.99 2.58-2.29.27-.31-2.77 5.83-4.56 3.47z"/>
<path d="m58.88 60.97-4.23-6 2.77-5.83.49-.58.97 12.41zM44.33 76.54l-.16.05 1.47-9.63.86.23-2.17 9.35z"/>
<g>
<path d="m21.24 60.97 4.23-6-2.77-5.83-.49-.58-.97 12.41zM33.62 67.19l.86-.23-4.27-12.28-.17 3.77 3.58 8.74z"/>
<path d="m30.04 58.45.17-3.77-1.73-.94-2.92-1.99-2.58-2.29-.27-.31 2.77 5.83 4.56 3.47zM35.8 76.54l.16.05-1.47-9.63-.86.23 2.17 9.35z"/>
</g>
</g>
<path fill="#000000" id="Visor_Stalker-Medium" d="M41.83 76.78H38.3l-.38-25.45s-3.7-.78-3.8-.78c-.1 0-5.17-1.18-5.17-1.18l-4.47-1.53-1.49-.76.1-1.35 4.31.7 5.35.68 5.01.32 2.05.14h.51l2.05-.14 5.01-.32 5.35-.68 4.31-.7.1 1.35-1.49.76-4.47 1.53s-5.07 1.18-5.17 1.18c-.1 0-3.8.78-3.8.78l-.38 25.45z"/>
<g id="Eyes_Stalker-Medium">
<g id="Main_Eyes_Stalker-Medium" fill="#1E1E1E">
<path d="M57.51 43.36s-.54-1.02-.89-1.47c-.46-.6-1.21-1.48-1.89-2.15-.98-.95-2.81-2.27-3.99-3.57a30.05 30.05 0 0 1-3.1-4.23c-.36-.6-.55-1.61-.63-1.99-.02-.1.17-.26.17-.26s-2.1-.87-2.82-1.03c-.89-.2-3.23-.47-3.23-.47l-1.99-.01s-2.45.28-3.36.48c-.73.16-2.82 1.03-2.82 1.03s.19.16.17.26c-.08.37-.27 1.39-.63 1.99a30.87 30.87 0 0 1-3.1 4.23c-1.18 1.3-3.01 2.62-3.99 3.57a23.1 23.1 0 0 0-1.89 2.15 15.1 15.1 0 0 0-.89 1.47l-.6 4.83.2.38.76.9 2.58 2.29 2.92 1.99 1.73.93 4.27 12.28 1.47 9.63.64.2h6.95l.64-.2 1.47-9.63 4.27-12.28 1.73-.93 2.92-1.99 2.58-2.29.76-.9.2-.38-.61-4.83M41.83 76.78H38.3l-.38-25.45s-3.7-.78-3.8-.78c-.1 0-5.17-1.18-5.17-1.18l-4.47-1.53-1.49-.76.1-1.35 4.31.7 5.35.68 5.01.32 2.05.14h.51l2.05-.14 5.01-.32 5.35-.68 4.31-.7.1 1.35-1.49.76-4.47 1.53s-5.07 1.18-5.17 1.18c-.1 0-3.8.78-3.8.78l-.38 25.45"/>
<path d="m32.5 30.41.32-.62.14-.1.17.26-.06.27-.57.19M47.63 30.41l-.32-.62-.14-.1s-.16.16-.17.26.1.31.1.31l.53.15"/>
</g>
<g id="Trim_Eyes_Stalker-Medium" fill="#171717">
<path d="m35.02 47.26-.37-.9-2.63-.52 1.05-15.62.06-.27-.17-.25 2.73-1.02 1.09-.2v16.27h6.59V28.48l1.18.23 2.63.98-.18.26 1.1 15.89-2.62.52-.37.9-5.03.31-5.06-.31z"/>
<path d="M43.36 44.75h-6.59l2.5.76v-.38h1.58v.38l2.51-.76zM44.94 50.77l-2.74.57-.38 25.45h1.71l.64-.2 1.47-9.63 1.11-3.18-2.26-2.35.45-10.66zM35.16 50.77l2.74.57.38 25.45h-1.71l-.64-.2-1.47-9.63-1.11-3.18 2.26-2.35-.45-10.66z"/>
</g>
<path id="Center_Eyes_Stalker-Medium" d="M43.36 28.48s-1.59-.3-3.3-.3c-1.7 0-3.29.3-3.29.3v16.27h6.59V28.48z" fill="#0F0F0F"/>
</g>
</g>
</g></g>
<g id="HelmetsDecals" mask="url(#HelmetsMask)"/>
<g id="Shoulders">
<g id="Left-Shoulder"><g id="Legacy-x3_Shoulder_Left" class="option">
<path id="Plate-3_Shoulder_Left_Legacy-x3" d="m119.95 19.89-7.33 7.47 4.29 9.25 9.66-.51 5.11 4.66 4.55-.32-16.28-20.55z" fill="#141313"/>
<path id="Trauma-Plate-3_Shoulder_Legacy-x3_Left" class="toggle" style="" d="m132.3 39.03 2.94-.21-14.04-17.78-6.54 6.67 3.32 7.16 8.89-.55 5.43 4.71z" fill="#1E1E1E"/>
<path id="Plate-2_Shoulder_Left_Legacy-x3" d="m115.99 15.27-5.8 8.69 5.95 8.29 9.39-2.29 5.9 3.63 4.41-1.15-19.85-17.17z" fill="#F56A0A"/>
<path id="Trauma-Plate-2_Shoulder_Legacy-x3_Left" class="toggle" style="" d="m131.69 31.78 2.85-.74-17.1-14.9-5.19 7.75 4.6 6.43 8.64-2.17 6.2 3.63z" fill="#1E1E1E"/>
<path id="Plate-1_Shoulder_Left_Legacy-x3" d="m108.85 10.82-2.61 10.1 8.36 5.89 8.12-5.22 6.77 1.51 3.79-2.53-24.43-9.75z" fill="#191919"/>
<path id="Trauma-Plate-1_Shoulder_Legacy-x3_Left" class="toggle" style="" d="m129.14 21.3 2.45-1.64-21.09-8.46-2.33 9.02 6.47 4.56 7.43-4.88 7.07 1.4z" fill="#1E1E1E"/>
</g></g>
<g id="Right-Shoulder"><g id="Legacy-x3_Shoulder_Right" class="option">
<path id="Plate-3_Shoulder_Right_Legacy-x3" d="m50.05 19.89 7.33 7.47-4.29 9.25-9.66-.51-5.11 4.66-4.55-.32 16.28-20.55z" fill="#141313"/>
<path id="Trauma-Plate-3_Shoulder_Legacy-x3_Right" class="toggle" style="" d="m37.7 39.03-2.94-.21L48.8 21.04l6.54 6.67-3.32 7.16-8.89-.55-5.43 4.71z" fill="#1E1E1E"/>
<path id="Plate-2_Shoulder_Right_Legacy-x3" d="m54.01 15.27 5.8 8.69-5.95 8.29-9.39-2.29-5.9 3.63-4.41-1.15 19.85-17.17z" fill="#F56A0A"/>
<path id="Trauma-Plate-2_Shoulder_Legacy-x3_Right" class="toggle" style="" d="m38.31 31.78-2.85-.74 17.1-14.9 5.19 7.75-4.6 6.43-8.64-2.17-6.2 3.63z" fill="#1E1E1E"/>
<path id="Plate-1_Shoulder_Right_Legacy-x3" d="m61.15 10.82 2.61 10.1-8.36 5.89-8.12-5.22-6.77 1.51-3.79-2.53 24.43-9.75z" fill="#191919"/>
<path id="Trauma-Plate-1_Shoulder_Legacy-x3_Right" class="toggle" style="" d="m40.86 21.3-2.45-1.64L59.5 11.2l2.33 9.02-6.47 4.56-7.44-4.88-7.06 1.4z" fill="#1E1E1E"/>
</g></g>
</g>
<g id="ShouldersDecals" mask="url(#ShouldersMask)"/>
<g id="Gauntlets">
<g id="Left-Gauntlets"><g id="Heavy_Gauntlet_Left" class="option">
<g id="Top-2_Heavy_Gauntlet_Left" fill="#2D2C2C">
<path d="m140.68 79.64 1.74.13 1.43 8.11-1.48 1.23-1.69-9.47z"/>
<path d="m142.25 88.39 1.82 10.57-.95 1.28 1.11 6.22-.44.32-3.07-17.02 1.53-1.37z"/>
<circle cx="142.26" cy="85.76" r=".38"/>
</g>
<g id="Top-1_Heavy_Gauntlet_Left" fill="#1E1E1E">
<path d="m139.42 107.96 4.36-1.17-3.07-17.02 1.54-1.38-1.66-9.27-6.59-.67 5.42 29.51z"/>
<path d="m138.89 78.94 1.82 10.82"/>
</g>
<path id="Accent-Top_Heavy_Gauntlet_Left" d="m142.53 104.17-2.77.56.42 2.15 2.77-.65-.42-2.06zm-1.75-9.01-2.77.56 1.62 8.4 2.77-.56-1.62-8.4zm-2.49-15.6-3.13-.24 1.64 9.21 2.91-.59-1.42-8.38z" fill="#F56A0A"/>
<path id="Bottom_Heavy_Gauntlet_Left" d="M134.08 78.88c-3.37.13-6.88 1.57-9.06 4.4a3.55 3.55 0 0 0-.58 3.22l7.01 22.84 7.98-1.39-5.35-29.07z" fill="#1E1E1E"/>
<g id="Accent-Bottom_Heavy_Gauntlet_Left" fill="#F56A0A">
<path d="m139.42 107.96-7.98 1.39-.43-1.41 8.13-1.52.28 1.54zm-4.98-27.1c-4.35.43-7.98 2.01-9.69 6.7l-.32-1.04c-.27-.87-.19-1.8.2-2.61l.41-.65c2.19-2.81 5.68-4.24 9.03-4.37l.37 1.97z"/>
<path d="m133.31 79.53-3.52.69 2.77 13.89 3.52-.69-2.77-13.89z"/>
<path d="m132.9 79.88-2.59.51 2.56 12.85 2.59-.51-2.56-12.85z"/>
<path d="m130.3 80.39-.51-.17m3.52-.69-.41.35m3.18 13.54-.62-.7m-2.9 1.4.37-.89"/>
</g><g id="Missle_Attachment_Heavy_Gauntlet_Left" class="option">
<g id="Head_Missle_Attachment_Heavy_Gauntlet_Left" fill="#F56A0A">
<path d="m146 97.59-2.64-4.07 3.71-.75-1.07 4.82z"/>
<path d="M144.69 93.66c.08-.02.18.15.22.36.04.22 0 .4-.08.42-.08.02-.18-.14-.22-.36s0-.4.08-.42zm.32 1.14c.07-.01.14.12.17.29.03.17 0 .32-.06.34s-.14-.12-.17-.29c-.03-.18 0-.33.06-.34zm.23 1.05c.06-.01.13.11.16.26.03.16 0 .3-.06.31-.06.01-.13-.11-.16-.27-.03-.15 0-.29.06-.3zm-1.15-2.06c.08-.02.18.14.22.36.04.22 0 .4-.08.42-.08.02-.18-.15-.22-.36-.04-.22 0-.41.08-.42zm2.4-.49c.08-.02.18.14.22.36.04.21 0 .4-.08.42-.08.02-.18-.15-.22-.36-.04-.22 0-.4.08-.42zm-.6.12c.08-.02.18.15.22.36.04.22 0 .4-.08.42-.08.02-.18-.15-.22-.36-.04-.22 0-.4.08-.42zm.08 1.18c.06-.01.14.12.17.29.03.17 0 .32-.06.34s-.14-.12-.17-.29c-.03-.18 0-.33.06-.34zm.15 1.07c.06-.01.13.11.16.27.03.16 0 .3-.06.31-.06.01-.13-.11-.16-.27-.03-.16 0-.3.06-.31zm-.83-2.13c.08-.02.18.14.22.36.04.22 0 .4-.08.42-.08.02-.18-.14-.22-.36-.04-.21 0-.4.08-.42zm.2 1.16c.07-.01.14.12.17.29.03.17 0 .32-.06.34-.07.01-.14-.12-.17-.29-.03-.18 0-.33.06-.34zm.19 1.05c.06-.01.13.11.16.27.03.16 0 .3-.06.31-.06.01-.13-.11-.16-.26-.03-.16 0-.3.06-.32zm.87-.62c-.06-.01-.13-.13-.16-.29-.03-.17 0-.32.06-.34.06-.01.14.11.17.28l-.07.35zm-2.08.09c-.03-.17 0-.32.06-.33.07-.01.14.12.17.29.03.16.01.3-.05.33l-.18-.29z"/>
</g>
<g id="Main_Missle_Attachment_Heavy_Gauntlet_Left" fill="#434141">
<path d="m146.51 92.25-2.81.57.11.61 2.81-.57-.11-.61zm-2.28-12.97-2.81.57.11.61 2.81-.57-.11-.61zm-.97-2.14-1.65.33.11.61 1.65-.33-.11-.61z"/>
<path d="m144.08 77.61-3.08.62.29 1.65 3.08-.62-.29-1.65zm.52 2.23-3.32.67 2.17 12.35 3.32-.67-2.17-12.35z"/>
<path d="m142.55 87.02-.54.11.51 2.9.54-.11-.51-2.9z"/>
</g>
<g id="Accent_Missle_Attachment_Heavy_Gauntlet_Left" fill="#181818">
<path d="m146.14 98.38-.54-1.04.69-.14-.15 1.18zm.03-1.45-.55.11-.02.29.69-.14-.12-.26zm-2.88-20.69-2.02.41.15.86 2.02-.41-.15-.86z"/>
<path d="m142.88 75.86-1.35.27-.26.52 2.02-.41-.41-.38zm.72 4.18-.56.11 2.17 12.35.56-.11-2.17-12.35zm-.76.16-.56.11 2.17 12.36.56-.11-2.17-12.36zm2.04-.09-.28-.27 2.17 12.35.17-.36-2.06-11.72zm-.52-.22-.56.11 2.17 12.36.56-.11-2.17-12.36zm-2.29.46-.35.07 2.17 12.36.35-.07-2.17-12.36z"/>
</g>
<path id="Base_Missle_Attachment_Heavy_Gauntlet_Left" d="m141.63 79.49-1.01-.21 2.48 14.07.87-.59-2.34-13.27zm.92 7.53-.54.11.51 2.9.54-.11-.51-2.9z" fill="#222222"/>
</g></g></g>
<g id="Right-Gauntlets"><g id="Heavy_Gauntlet_Right" class="option">
<g id="Top-2_Heavy_Gauntlet_Right" fill="#2D2C2C">
<path d="m29.5 79.64-1.74.13-1.43 8.11 1.48 1.23 1.69-9.47z"/>
<path d="m27.93 88.39-1.82 10.57.95 1.28-1.11 6.22.44.32 3.07-17.02-1.53-1.37z"/>
<circle cx="27.92" cy="85.76" r=".38"/>
</g>
<g id="Top-1_Heavy_Gauntlet_Right" fill="#1E1E1E">
<path d="m30.76 107.96-4.36-1.17 3.07-17.02-1.54-1.38 1.66-9.27 6.59-.67-5.42 29.51z"/>
<path d="m31.29 78.94-1.82 10.82"/>
</g>
<path id="Accent-Top_Heavy_Gauntlet_Right" d="m27.66 104.17 2.77.56-.42 2.15-2.77-.65.42-2.06zm1.74-9.01 2.77.56-1.62 8.4-2.77-.56 1.62-8.4zm2.49-15.6 3.13-.24-1.64 9.21-2.91-.59 1.42-8.38z" fill="#F56A0A"/>
<path id="Bottom_Heavy_Gauntlet_Right" d="M36.11 78.88c3.37.13 6.88 1.57 9.06 4.4.71.92.92 2.12.58 3.22l-7.01 22.84-7.98-1.39 5.35-29.07z" fill="#1E1E1E"/>
<g id="Accent-Bottom_Heavy_Gauntlet_Right" fill="#F56A0A">
<path d="m30.76 107.96 7.98 1.39.43-1.41-8.13-1.52-.28 1.54zm4.98-27.1c4.35.43 7.98 2.01 9.69 6.7l.32-1.04c.27-.87.19-1.8-.2-2.61l-.41-.65c-2.19-2.81-5.68-4.24-9.03-4.37l-.37 1.97z"/>
<path d="m36.88 79.53 3.52.69-2.77 13.89-3.52-.69 2.77-13.89z"/>
<path d="m37.29 79.88 2.59.51-2.56 12.85-2.59-.51 2.56-12.85z"/>
<path d="m39.88 80.39.51-.17m-3.51-.69.41.35M34.1 93.42l.62-.7m2.9 1.4-.37-.89"/>
</g><g id="Flamethrower_Attachment_Heavy_Gauntlet_Right" class="option">
<g id="Tubes_Flamethrower_Attachment_Heavy_Gauntlet_Right" fill="#383737">
<path d="m28.01 79.84.82.14-4.36 24.89-.82-.14 4.36-24.89zm-1.89-.33.82.14-3.12 17.84-.82-.14 3.12-17.84z"/>
<path d="m27.48 81.35 1.23.21-1.04 5.93-1.24-.21 1.05-5.93zm-1.78-.31 1.13.19-1.04 5.93-1.13-.2 1.04-5.92z"/>
</g>
<g id="Main_Flamethrower_Attachment_Heavy_Gauntlet_Right" fill="#5E5E5E">
<path d="m25.84 79.07 3.38.58-.34 1.94-3.38-.58.34-1.94zm-1.46 7.86 3.53.61-.17.95-3.53-.61.17-.95z"/>
<path d="m24.36 87.9 3.24.56-.08.48-3.24-.56.08-.48z"/>
<path d="m27.66 86.88.54.12-.51 2.89-.54-.11.51-2.9z"/>
</g>
<g id="Accent_Flamethrower_Attachment_Heavy_Gauntlet_Right" fill="#272626">
<path d="m22.97 97.35.88.15-.08 1.24-1.15-.2.35-1.19zm.77-6.4 1.56.27-.33 1.89-1.56-.27.33-1.89z"/>
<path d="m23.62 92.87 1.13.2-.33 1.89-1.13-.19.33-1.9zm.43 8.68 1.13.2-.45 2.59-1.13-.19.45-2.6zm1.46-8.35 1.13.19-.62 3.52-1.13-.2.62-3.51z"/>
<path d="m23.6 102.81 1.56.27-.09.5-1.56-.27.09-.5z"/>
</g>
<path id="Base_Flamethrower_Attachment_Heavy_Gauntlet_Right" d="m28.2 87 1.39-7.85-1.01.21-2.35 13.27.87.59.59-3.32-.54-.11.51-2.89.54.1z" fill="#242424"/>
</g></g></g>
</g>
<g id="GauntletsDecals" mask="url(#GauntletsMask)"/>
<g id="Shins">
<g id="Left-Shin"><g id="Full_Shin_Left" class="option">
<path id="Shin_Full-Shin_Left" d="M102.49 175.8c10.97-2.98 18.29-1.11 18.29-1.11l4.35 42.35s-4.31 1.17-9.01 1.31c-3.44.1-8.96-.97-8.96-.97l-7.9-36c.01 0 3.63-.8 3.23-5.58" fill="#1E1E1E"/>
<path id="Accent_Full-Shin_Left" class="toggle" d="m100.16 185.33 6.08-.75.41 1.58-6.12.76-.37-1.59m.51 2.2 4.15-.52.41 1.58-4.2.53-.36-1.59" fill="#F56A0A"/>
<g id="Ridge_Full-Shin_Left" class="toggle" fill="#F56A0A">
<path d="m116.97 173.79-3.93-.29-4.03.56 8.19 44.25c1.96-.02 3.4-.28 5.63-.74l-5.86-43.78"/>
<path d="m113.04 173.5 7.28 44.54"/>
</g>
</g></g>
<g id="Right-Shin"><g id="Full_Shin_Right" class="option">
<path id="Shin_Full-Shin_Right" d="M67.41 175.8c-10.97-2.98-18.29-1.11-18.29-1.11l-4.35 42.35s4.31 1.17 9.01 1.31c3.44.1 8.96-.97 8.96-.97l7.9-36c-.02 0-3.64-.8-3.23-5.58" fill="#1E1E1E"/>
<path id="Accent_Full-Shin_Right" class="toggle" d="m69.73 185.33-6.08-.75-.41 1.58 6.12.76.37-1.59m-.5 2.2-4.15-.52-.41 1.58 4.2.53.36-1.59" fill="#F56A0A"/>
<g id="Ridge_Full-Shin_Right" class="toggle" fill="#F56A0A">
<path d="m52.92 173.79 3.93-.29 4.03.56-8.18 44.24a26.9 26.9 0 0 1-5.63-.74l5.85-43.77"/>
<path d="m56.85 173.5-7.28 44.54"/>
</g>
</g></g>
</g>
<g id="ShinsDecals" mask="url(#ShinsMask)"/>
<g id="Foot">
<g id="Left-Ankle"><g id="Legacy_Ankle_Left" class="option">
<path id="Plate-2_Legacy-Ankle_Left" d="m126.71 222.74 4.34 3.89 2.99 3.74-4.78 1.55-10.95-2.26-4.01-5.27 12.41-1.65" fill="#F56A0A"/>
<path id="Plate-1_Legacy-Ankle_Left" d="M107 215.4s4.37 1.94 10.84 1.71c4.44-.16 6.24-1.26 6.24-1.26l3.76 6.93-.97 3.82-15.84-1.24-3.9-3.29-.13-6.67" fill="#191919"/>
<path id="Trauma-Plate-2_Legacy-Ankle_Left" class="toggle" style="" d="m127.64 223.58 3.39 3.04 1.75 2.18-3.64 1.18-9.65-1.99-1.58-2.08 8.96.7.77-3.03" fill="#1E1E1E"/>
<path id="Trauma-Plate-1_Legacy-Ankle_Left" class="toggle" style="" d="m108.66 217.83.06 3.17 3.15 2.54 13.92 1.09.99-3.82-1.77-3.27c-1.17.33-4.74 1.36-7.08 1.44-3.72.14-7.2-.61-9.27-1.15" fill="#1E1E1E"/>
</g></g>
<g id="Left-Toe">
<g id="Armored_Toe_Left" class="option">
<g id="Plate_Armored_Toe_Left" fill="#1E1E1E">
<path d="m119.07 233.15 9.63 5.32 7.27.49 5.83-1.47c1.22-1.01 1.71-3.29.66-5.55l-8.21-3.88-6.44 1.61-8.74 3.48"/>
<path d="M127.13 229.95s7.51 2.19 8.45 3.48c1.04 1.44.39 5.53.39 5.53"/>
</g>
<g id="Trim_Armored_Toe_Left" fill="#F56A0A">
<path d="m133.13 227.42-7.73 1.86-6.52 3.94 1.35.74 6.91-4.02 7.7-1.8-1.71-.72"/>
<path d="m125.39 229.29 1.74.66"/>
</g>
</g></g>
<g id="Right-Ankle"><g id="Legacy_Ankle_Right" class="option">
<path id="Plate-2_Legacy-Ankle_Right" d="m43.17 222.74-4.34 3.89-2.99 3.74 4.78 1.55 10.95-2.26 4-5.27-12.4-1.65" fill="#F56A0A"/>
<path id="Plate-1_Legacy-Ankle_Right" d="M62.87 215.4s-4.37 1.94-10.84 1.71c-4.44-.16-6.24-1.26-6.24-1.26l-3.76 6.93.97 3.82 15.84-1.24 3.9-3.29.13-6.67" fill="#191919"/>
<path id="Trauma-Plate-2_Legacy-Ankle_Right" class="toggle" style="" d="m42.23 223.58-3.39 3.04-1.75 2.18 3.64 1.18 9.65-1.99 1.58-2.08-8.96.69-.77-3.02" fill="#1E1E1E"/>
<path id="Trauma-Plate-1_Legacy-Ankle_Right" class="toggle" style="" d="m61.21 217.83-.06 3.17-3.15 2.54-13.92 1.09-.99-3.82 1.77-3.27c1.17.33 4.74 1.36 7.08 1.44 3.72.14 7.2-.61 9.27-1.15" fill="#1E1E1E"/>
</g></g>
<g id="Right-Toe">
<g id="Armored_Toe_Right" class="option">
<g id="Plate_Armored_Toe_Right" fill="#1E1E1E">
<path d="m50.81 233.15-9.63 5.32-7.27.49-5.83-1.47c-1.22-1.01-1.71-3.29-.66-5.55l8.21-3.88 6.44 1.61 8.74 3.48"/>
<path d="M42.74 229.95s-7.51 2.19-8.45 3.48c-1.04 1.44-.39 5.53-.39 5.53"/>
</g>
<g id="Trim_Armored_Toe_Right" fill="#F56A0A">
<path d="m36.75 227.42 7.73 1.86 6.52 3.94-1.35.74-6.91-4.02-7.7-1.8 1.71-.72"/>
<path d="m44.48 229.29-1.74.66"/>
</g>
</g></g>
</g>
<g id="FootDecals" mask="url(#FootMask)"/>
<g id="Knees">
<g id="Left-Knee"><g id="Galaxy_Knee_Left" class="option">
<g id="Missiles_Galaxy-Knee_Left" class="toggle" style="display:none"/>
<g id="Strap_Galaxy-Knee_Left" fill="#414040">
<path d="m98.05 161.5 2.8-.43.4 2.59-2.81.43-.39-2.59z"/>
<path d="m96.61 162.04 1.49-.22.3 1.96-1.48.22-.31-1.96z"/>
</g>
<path id="Knee_Galaxy-Knee_Left" d="m114.57 171.57 4-11.85-4.23-4.86-12.38 1.88-2.58 5.89 7.37 10.13 7.82-1.19z" fill="#1E1E1E"/>
<path id="Trim_Galaxy-Knee_Left" d="m105.79 156.15 4.71-.72.47 3.1-4.71.72-.47-3.1zm-6.42 6.47c4.44.26 8.92 9.89 8.92 9.89l-1.56.24-7.36-10.13zm19.2-2.91c-4.16 1.56-5.56 12.09-5.56 12.09l1.56-.24 4-11.85z" fill="#F56A0A"/>
</g></g>
<g id="Right-Knee"><g id="Galaxy_Knee_Right" class="option">
<g id="Missiles_Galaxy-Knee_Right" class="toggle" style="display:none"/>
<path id="Strap_Galaxy-Knee_Right" d="m71.84 161.5-2.81-.43-.4 2.59 2.8.43.41-2.59zm1.44.54-1.49-.22-.3 1.96 1.49.23.3-1.97z" fill="#414040"/>
<path id="Knee_Galaxy-Knee_Right" d="m55.32 171.57-4-11.85 4.23-4.86 12.38 1.88 2.58 5.89-7.37 10.13-7.82-1.19z" fill="#1E1E1E"/>
<path id="Trim_Galaxy-Knee_Right" d="m64.1 156.15-4.71-.72-.47 3.1 4.71.72.47-3.1zm6.42 6.47c-4.44.26-8.92 9.89-8.92 9.89l1.56.24 7.36-10.13zm-19.19-2.91c4.16 1.56 5.55 12.09 5.55 12.09l-1.56-.24-3.99-11.85z" fill="#F56A0A"/>
</g></g>
</g>
<g id="KneesDecals" mask="url(#KneesMask)"/>
<g id="Thighs">
<g id="Left-Thigh"><g id="Heavy_Thigh_Left" class="option">
<g id="Thigh_Heavy-Thigh_Left" fill="#1E1E1E">
<path d="m97.62 118.12-5.78 7.32 6.6 26.24 4.49 1.59-3.13-29.91-2.18-5.24m14.75-1.53 7.17 5.98-1.03 27.03-4.06 2.47-3.13-29.91 1.05-5.57"/>
<path d="m112.37 116.59-14.76 1.52 2.19 5.24 11.51-1.19 1.06-5.57m-1.05 5.58-11.51 1.19 3.13 29.91 11.51-1.19-3.13-29.91"/>
</g>
<g id="Trim_Heavy-Thigh_Left" fill="#F56A0A">
<path d="m112.95 114.3-16.38 1.69 1.04 2.13 14.76-1.52.58-2.3"/>
<path d="m119.26 120.01-6.31-5.72-.58 2.3 7.17 5.98-.28-2.56m-27.67 2.86 4.99-6.88 1.04 2.13-5.78 7.32-.25-2.57"/>
</g>
</g></g>
<g id="Right-Thigh"><g id="Heavy_Thigh_Right" class="option">
<g id="Thigh_Heavy-Thigh_Right" fill="#1E1E1E">
<path d="m72.28 118.12 5.78 7.32-6.6 26.24-4.49 1.59 3.13-29.91 2.18-5.24m-14.76-1.53-7.17 5.98 1.03 27.03 4.06 2.47 3.13-29.91-1.05-5.57"/>
<path d="m57.52 116.59 14.76 1.52-2.19 5.24-11.51-1.19-1.06-5.57m1.06 5.58 11.51 1.19-3.13 29.91-11.51-1.19 3.13-29.91"/>
</g>
<g id="Trim_Heavy-Thigh_Right" fill="#F56A0A">
<path d="m56.94 114.3 16.38 1.69-1.04 2.13-14.76-1.52-.58-2.3"/>
<path d="m50.63 120.01 6.31-5.72.58 2.3-7.17 5.98.28-2.56m27.68 2.86-4.99-6.88-1.04 2.13 5.78 7.32.25-2.57"/>
</g>
</g></g>
</g>
<g id="ThighsDecals" mask="url(#ThighsMask)"/>
<g id="Groin"><g id="Basic_Groin" class="option">
<path id="Groin-Plate_Basic" d="M78.67 122.29 68.22 99.4h33.42l-10.45 22.89-6.26 5.46-6.26-5.46z" fill="#000000"/>
<path id="Trauma-Plating_Groin" class="toggle" style="" d="m79.77 120.38-8.61-18.86H98.7l-8.61 18.86-5.16 4.49-5.16-4.49z" fill="#1E1E1E"/>
</g>
</g>
<g id="GroinDecals" mask="url(#GroinMask)"/>
<g id="Waist">
<g id="Accessories_Waist">
<g id="Kama" class="toggle" style="display:none"/>
<g id="Loin-Cloth" class="toggle" style="display:none"/>
<g id="Left-Holster" class="toggle" style="display:none"/>
<g id="Right-Holster" class="toggle" style=""><g id="Belt-Holster_Right" class="option">
<g id="Weapon_Belt-Holster-Right">
<g id="Main_Weapon_Belt-Holster-Right" fill="#313030">
<path d="m53.1 99.11.24-3.6-.62-.04.15-2.26.62.04.08-1.18c.03-.38-.47-.73-1.1-.77l-5.37-.36c-.63-.04-1.17.23-1.19.62l-.08 1.18.62.04-.15 2.26-.62-.04-.24 3.6 1.46.1-.67 9.95 4.73.31.67-9.95 1.47.1z"/>
<path d="m46.1 98.11.84.06-.8 11.96 4.73.31.8-11.96.84.06.18-2.73-6.41-.42-.18 2.72zm1.74-6.33 3.8.25-.25 3.69-3.8-.25.25-3.69z"/>
<path d="m50.51 99.49.62.04-.63 9.4-.62-.04.63-9.4zm-1.44-2.26.62.04-.63 9.4-.62-.04.63-9.4zm-1.74 2.05.62.04-.63 9.4-.62-.04.63-9.4z"/>
</g>
<g id="Accent_Weapon_Belt-Holster-Right" fill="#A09E9E">
<path d="m50.8 96.06-.03.38-2.68-.18.02-.38 2.69.18z"/>
<path d="m50.78 96.44-.03.38-2.68-.18.03-.38 2.68.18zm.05-.76-.02.38-2.68-.18.03-.38 2.67.18zm.31-4.63-.02.38-2.68-.18.03-.38 2.67.18z"/>
<path d="m51.01 91.99.62.04-.25 3.69-.62-.04.25-3.69zm-3.17-.21.62.04-.25 3.69-.62-.04.25-3.69zm.12 7.54.94.06-.63 9.4-.94-.06.63-9.4zm1.6.1.94.06-.63 9.4-.94-.06.63-9.4z"/>
</g>
</g>
<path id="Holster_Belt-Holster-Right" d="m51.49 112.89 2.47-14.99-8.29 10.56-.79 20.68c1.44 1.89 3.04 2.08 4.84.36l1.77-16.61z" fill="#1E1E1E"/>
</g>
</g>
<g id="Left-Trophy" class="toggle" style="display:none"/>
<g id="Right-Trophy" class="toggle" style="display:none"/>
</g>
<g id="Under-Belt"><g id="Girth-Belt" class="option" fill="#121212">
<path d="M84.93 84.93c-9.33 0-27.98-2.25-27.98-2.25l.61-1.91 27.37 2.25 27.37-2.25.6 1.91c.01 0-18.65 2.25-27.97 2.25z"/>
<path d="M84.93 86.84c-9.52 0-28.56-2.25-28.56-2.25l.58-1.91 27.98 2.25 27.98-2.25.58 1.91s-19.04 2.25-28.56 2.25z"/>
<path d="M84.93 88.75c-9.67 0-28.99-2.25-28.99-2.25l.43-1.91 28.56 2.25 28.56-2.25.43 1.91c0-.01-19.32 2.25-28.99 2.25z"/>
<path d="M84.93 90.65c-9.79 0-29.36-2.25-29.36-2.25l.37-1.91 28.99 2.25 28.99-2.25.37 1.91s-19.57 2.25-29.36 2.25z"/>
<path d="M84.93 92.56c-9.9 0-29.69-2.25-29.69-2.25l.33-1.91 29.36 2.25 29.36-2.25.33 1.91s-19.79 2.25-29.69 2.25z"/>
<path d="M84.93 94.47c-10 0-30-2.25-30-2.25l.31-1.91 29.69 2.25 29.69-2.25.31 1.91c0-.01-20 2.25-30 2.25z"/>
<path d="M84.93 96.37c-10.1 0-30.31-2.25-30.31-2.25l.31-1.91 30 2.25 30-2.25.31 1.91s-20.21 2.25-30.31 2.25z"/>
<path d="M84.93 98.28c-10.21 0-30.62-2.25-30.62-2.25l.32-1.91 30.31 2.25 30.31-2.25.32 1.91c-.02 0-20.43 2.25-30.64 2.25z"/>
<path d="M84.93 100.19c-10.32 0-30.97-2.25-30.97-2.25l.34-1.91 30.62 2.25 30.62-2.25.35 1.91c.01-.01-20.64 2.25-30.96 2.25z"/>
<path d="M84.93 102.09c-10.45 0-31.36-2.25-31.36-2.25l.39-1.91 30.97 2.25 30.97-2.25.39 1.91s-20.91 2.25-31.36 2.25z"/>
</g>
</g>
<g id="Belt"><g id="Pouch-Belt-4" class="option">
<path id="Main_Pouch-Belt-4" d="M115.21 92.95c-6.82.61-22.4 2.83-30.27 2.83-7.94 0-23.52-2.23-30.26-2.82l1.01-7.93c5.53.49 21.56 2.74 29.26 2.74 7.47 0 23.17-2.23 29.07-2.76l1.19 7.94z" fill="#121212"/>
<path id="Buckle_Pouch-Belt-4" d="M79.37 87.01h11.28v9.21H79.37z" fill="#7A7A7A"/>
<g id="Pouches_Pouch-Belt-4" fill="#404040">
<path d="M59.65 83.47c-.31-.02-.62.03-.91.16l-1.86.81 7.38.42 2-.95-6.61-.44z"/>
<path d="M66.52 84.19a.23.23 0 0 0-.1-.22.23.23 0 0 0-.24-.02l-1.91.9-1.02 12.42a6.9 6.9 0 0 1 1.93-.85.9.9 0 0 0 .69-.84c.12-3.8.28-7.6.65-11.39z"/>
<path d="m64.26 84.85-7.38-.42c-.06 1.89-.23 3.77-.33 5.65-.11 2.08-.16 4.17-.34 6.28-.01.15.04.3.14.41s.25.18.4.17c2.08-.01 4.15.11 6.22.36a.5.5 0 0 0 .4-.12.54.54 0 0 0 .19-.37l.37-5.33.33-6.63z"/>
<path d="m64.26 84.85-7.38-.42-.36 3.15a2.75 2.75 0 0 0 2.59 3.05l2.23.13a2.8 2.8 0 0 0 2.06-.75c.55-.52.87-1.25.86-2v-3.16z"/>
<path d="M60.31 89.23c.26.01.46.26.44.54-.02.28-.24.5-.5.49-.26-.01-.46-.26-.44-.54.02-.28.24-.5.5-.49zm-8.09-4.94.55-.85 2.83.09.35 1.06-3.73-.3z"/>
<path d="M55.93 84.69a.2.2 0 0 0-.06-.18.23.23 0 0 0-.17-.08l-3.48-.13-.5 11.17c.11.28 1.53.46 2.68.49a.9.9 0 0 0 .92-.88c.08-3.47.21-6.94.61-10.39zm54.31-1.22c.31-.02.62.03.91.16l1.86.81-7.38.42-2-.95 6.61-.44z"/>
<path d="M103.37 84.19a.23.23 0 0 1 .1-.22.23.23 0 0 1 .24-.02l1.91.9 1.02 12.42a6.9 6.9 0 0 0-1.93-.85.9.9 0 0 1-.69-.84c-.12-3.8-.28-7.6-.65-11.39z"/>
<path d="m105.63 84.85 7.38-.42c.06 1.89.23 3.77.33 5.65.11 2.08.16 4.17.34 6.28.01.15-.04.3-.14.41a.5.5 0 0 1-.4.17c-2.08-.01-4.15.11-6.22.36a.5.5 0 0 1-.4-.12.54.54 0 0 1-.19-.37l-.37-5.33-.33-6.63z"/>
<path d="m105.63 84.85 7.38-.42.36 3.15a2.75 2.75 0 0 1-2.59 3.05l-2.23.13a2.8 2.8 0 0 1-2.06-.75 2.72 2.72 0 0 1-.86-2v-3.16z"/>
<path d="M109.58 89.23c-.26.01-.46.26-.44.54.02.28.24.5.5.49.26-.01.46-.26.44-.54-.01-.28-.24-.5-.5-.49zm8.09-4.94-.55-.85-2.83.09-.35 1.06 3.73-.3z"/>
<path d="M113.96 84.69a.2.2 0 0 1 .06-.18.23.23 0 0 1 .18-.08l3.48-.13.5 11.17c-.11.28-1.53.46-2.68.49a.9.9 0 0 1-.92-.88 116.3 116.3 0 0 0-.62-10.39z"/>
</g>
</g></g>
</g>
<g id="WaistDecals" mask="url(#WaistMask)"/>
<g id="Extras_Front">
<g id="Front"><g id="None_Front" class="option"/>
</g>
</g>
<g id="Extras-FrontDecals" mask="url(#FrontMask)"/>
</g>
</svg>