<?xml version='1.0' encoding='UTF-8'?>
<svg version="1.1" id="Male-Body" xmlns="http://www.w3.org/2000/svg" xmlns:serif="http://www.serif.com/" viewBox="0 -55 170 310" style="stroke-width: 0.2px; fill-rule: evenodd; stroke-linejoin: round;" width="510" height="930">
<style>
mask {
mask-type: alpha;
}
.decal {
stroke: none;
}
</style>
<defs id="Masks" stroke="none">
<mask id="HelmetsMask"> <use href="#Helmets"/> </mask>
<mask id="CollarMask"> <use href="#Collar"/> </mask>
<mask id="ShouldersMask"> <use href="#Shoulders"/> </mask>
<mask id="ChestMask"> <use href="#Chest"/> </mask>
<mask id="BicepsMask"> <use href="#Biceps"/> </mask>
<mask id="GauntletsMask"> <use href="#Gauntlets"/> </mask>
<mask id="WaistMask"> <use href="#Waist"/> </mask>
<mask id="GroinMask"> <use href="#Groin"/> </mask>
<mask id="ThighsMask"> <use href="#Thighs"/> </mask>
<mask id="KneesMask"> <use href="#Knees"/> </mask>
<mask id="ShinsMask"> <use href="#Shins"/> </mask>
<mask id="FootMask"> <use href="#Foot"/> </mask>
</defs>
<defs id="Decals"><path serif:id="Star (3)" id="Star--3-" d="m50 1.8 12.52 40.97L91.74 74.1 50 64.46 8.26 74.1l29.22-31.33L50 1.8z"/></defs><metadata><rdf:rdf xmlns:rdf="http://www.w3.org/1999/02/22-rdf-syntax-ns#" xmlns:rdfs="http://www.w3.org/2000/01/rdf-schema#" xmlns:dc="http://purl.org/dc/elements/1.1/"><rdf:description><dc:creator>MandoCreator</dc:creator><dc:publisher>https://www.mandocreator.com</dc:publisher><dc:description>Your Beskar'gam - created by MandoCreator</dc:description><dc:format>image/svg+xml</dc:format><dc:type>Image</dc:type><dc:title>MandoCreator - Ner Berskar'gam</dc:title><dc:date>2022-03-14T15:20:12.857Z</dc:date></rdf:description></rdf:rdf></metadata><g id="Main-Body" fill="white" stroke="black">
<g id="Extras_Back">
<g id="Back"><g id="NO-CAPES_Back" class="option"/>
</g>
</g>
<g id="Extras-BackDecals" mask="url(#BackMask)"/>
<g id="Suit">
<g id="Neck-Seal"><g id="Standard-Neck-Seal" class="option" fill="#1D1B1B">
<path d="M98.75 7.5c0-.9-.93-1.62-2.07-1.62 0 0-7.8.85-11.7.85s-11.7-.85-11.7-.85c-1.14 0-2.07.73-2.07 1.62s.93 1.62 2.07 1.62c0 0 7.8.85 11.7.85s11.7-.85 11.7-.85c1.15.01 2.07-.72 2.07-1.62z"/>
<path d="M99.45 9.4c0-.94-.97-1.71-2.17-1.71 0 0-8.2.9-12.29.9s-12.3-.89-12.3-.89c-1.2 0-2.17.76-2.17 1.71s.97 1.71 2.17 1.71c0 0 8.2.9 12.29.9s12.29-.9 12.29-.9c1.21-.01 2.18-.78 2.18-1.72z"/>
<path d="M100.24 11.76c0-.99-1.03-1.8-2.29-1.8 0 0-8.64.95-12.96.95s-12.97-.95-12.97-.95c-1.26 0-2.29.81-2.29 1.8s1.03 1.8 2.29 1.8c0 0 8.64.95 12.97.95s12.96-.95 12.96-.95c1.26 0 2.29-.81 2.29-1.8z"/>
<path d="M101 13.92c0-1.04-1.08-1.89-2.41-1.89 0 0-9.08.99-13.61.99s-13.61-.99-13.61-.99c-1.33 0-2.41.85-2.41 1.89s1.08 1.89 2.41 1.89c0 0 9.08.99 13.61.99s13.61-.99 13.61-.99c1.34 0 2.41-.85 2.41-1.89z"/>
<path d="M101.76 16.04c0-.79-1.13-1.43-2.52-1.43 0 0-9.51.75-14.26.75s-14.26-.75-14.26-.75c-1.39 0-2.52.64-2.52 1.43 0 .79 1.13 1.43 2.52 1.43 0 0 9.51.75 14.26.75s14.26-.75 14.26-.75c1.39 0 2.52-.64 2.52-1.43z"/>
<path d="M101.76 18.42c0-.79-1.13-1.43-2.52-1.43 0 0-9.51.75-14.26.75s-14.26-.75-14.26-.75c-1.39 0-2.52.64-2.52 1.43 0 .79 1.13 1.43 2.52 1.43 0 0 9.51 1.44 14.26 1.44s14.26-1.44 14.26-1.44c1.39-.01 2.52-.64 2.52-1.43z"/>
</g>
</g>
<path id="Flight-Suit" d="m73.36 158.45-1.49 8.72-11.03 53.11s-4.93 2.96-7.47 3.46c-2.53.5-7.73-.44-7.73-.44l3.85-43 2.9-18.36.66-7.82s-2.53-22.78-1.7-34.14c.82-11.36 6.66-34.01 6.66-34.01l26.98.58 26.97-.58s5.83 22.66 6.66 34.01c.83 11.36-1.7 34.14-1.7 34.14l.66 7.82 2.9 18.36 3.85 43s-5.32 1.19-7.85.69c-2.53-.5-7.34-3.71-7.34-3.71L98.1 167.16l-1.49-8.72-11.62-30.33-11.63 30.34zm56.05-115.12 11.98 41.65 1.04 21.47-9.55 1.83-6.05-20.21-13.65-33.95.69-15.55 2.31-3.72 13.23 8.48zm-88.82-.03 13.19-8.45 2.31 3.72.52 16.04-13.44 33.46-6.05 20.21-9.55-1.83 1.03-21.47L40.59 43.3z" fill="#120F0F"/>
<g id="Sleeves" class="toggle" fill="#212020">
<path d="m112.2 56.12 2.68 5.9s4.24-3.2 7.06-4.8 4.38-2.62 6.92-3.6a33.81 33.81 0 0 1 5.08-1.47l-6.07-12.25-5.79-9.67-11.58 5.14 1.7 20.75z"/>
<path d="M113.61 59.24c-.2-.24 5.08-4.5 8.61-6.34 3.53-1.84 10.25-3.69 10.25-3.69"/>
<path d="m57.8 56.12-2.68 5.9s-4.24-3.2-7.06-4.8c-2.82-1.59-4.38-2.62-6.92-3.6a33.81 33.81 0 0 0-5.08-1.47l6.07-12.25 5.79-9.67 11.58 5.14-1.7 20.75z"/>
<path d="M56.39 59.24c.2-.24-5.08-4.5-8.61-6.34-3.53-1.84-10.25-3.69-10.25-3.69"/>
</g>
</g>
<g id="Boots"><g id="Basic_Boots" class="option">
<path id="Main_Basic-Boot" d="M109.1 216.81c1.46.01 3.24.93 4.53 1.15 1.38.23 2.88.21 4.34.07l.59-.06h.02l.07-.01.19-.03.3-.04.12-.02 1.01-.16.53-.1.11-.03.04-.01.08-.02.36-.09.32-.09.05-.01c1.12-.3 2.24-.66 2.24-.66.33 1.45.5 3.11 1.12 4.46.99 2.13.95 3.05 2.61 4.66 1.14 1.1 4.08 3.05 5.44 3.89.57.36 1.19.63 1.81.86l.06.02c2.5.93 5.2 1.28 6.56 4.03.3.6.55 1.32.5 2-.06.87-1.02.99-1.76 1.2-1.84.52-3.43.92-5.56 1.39a28 28 0 0 1-7.1.81c-1.84-.05-3.41-.13-5.03-1.1-.65-.39-1.32-.79-1.89-1.3-1.27-1.15-2.09-2.36-3.71-3.04-1.18-.5-2.39-.91-3.63-1.2-1.76-.42-4.34-1-5.28-2.74-.37-1.3.01-1.94.13-3.06l.06-.48c.1-.73.23-1.48.26-2.26.08-1.51-.3-3.01-.4-4.51-.06-.85-.1-1.71-.11-2.56 0-.14-.08-.75.06-.8.19-.08.4-.12.62-.14l.34-.02zm-48.17 0c-1.46.01-3.24.93-4.53 1.15-1.38.23-2.88.21-4.34.07l-.59-.06h-.02l-.07-.01-.19-.03-.3-.04-.12-.02-1.01-.16-.53-.1-.11-.03-.04-.01-.08-.02-.36-.09-.32-.09-.05-.01c-1.12-.3-2.24-.66-2.24-.66-.33 1.45-.5 3.11-1.12 4.46-.99 2.13-.95 3.05-2.6 4.66-1.14 1.1-4.08 3.05-5.44 3.89-.57.36-1.19.63-1.81.86l-.06.02c-2.5.93-5.2 1.28-6.56 4.03-.3.6-.55 1.32-.5 2 .06.87 1.02.99 1.76 1.2 1.84.52 3.43.92 5.56 1.39a28 28 0 0 0 7.1.81c1.84-.05 3.41-.13 5.03-1.1.65-.39 1.32-.79 1.89-1.3 1.27-1.15 2.09-2.36 3.72-3.04 1.18-.5 2.39-.91 3.63-1.2 1.76-.42 4.33-1 5.28-2.74.37-1.3-.01-1.94-.13-3.06l-.06-.48c-.1-.73-.23-1.48-.26-2.26-.08-1.51.3-3.01.4-4.51.06-.85.1-1.71.11-2.56 0-.14.08-.75-.06-.8-.19-.08-.4-.12-.62-.14l-.36-.02z" fill="#1D1B1B"/>
<path id="Bottom_Basic-Boot" d="M108.15 230.64a4.54 4.54 0 0 0 2.33 1.86c.89.45 1.95.64 2.96.88l.41.1.6.16.18.05.1.03.19.06.08.03.33.11.12.04.06.02.5.18.11.04.45.17.12.05.27.11.12.05c.27.11.51.24.74.38l.03.02.05.03.21.14.05.03.04.03.2.15.06.04.09.07c.28.23.54.47.8.73l.07.07.42.43.45.45.48.46.06.05.15.13.03.02.25.2.17.13.03.02.22.15.09.06.33.21.23.14.09.06.25.15.11.07.08.04.08.04.34.17.16.07.05.02c.34.15.68.26 1.02.35l.06.01.08.02.07.02.21.04.16.03.13.02.04.01.11.02.18.02.26.03a13.2 13.2 0 0 0 .72.06l.36.02h.11l.7.02.46.01h.63l.83-.03.12-.01.11-.01.1-.01 1.21-.11.11-.01.3-.04.13-.02.11-.01.25-.04 1.06-.18.24-.04.1-.02.11-.02.11-.02.11-.02.08-.02.26-.05.11-.02.3-.07.26-.06h.03l1.58-.36.19-.04.42-.1.17-.04.08-.02.58-.15.35-.09 1-.26.15-.04.17-.04.06-.02.79-.22.06-.02.09-.02.28-.07.09-.03.14-.04.06-.02.11-.04.1-.03.04-.02.05-.02.03-.01.05-.02.05-.03.02-.01.05-.03.06-.04.06-.04.05-.04a1 1 0 0 0 .22-.24s.49.73.53 1.99c-1.1 1.59-4.6 2.12-9.43 2.76-4.8.64-7.76.51-9.77-.35s-5.53-4.94-8.05-5.15a18.79 18.79 0 0 1-6.72-2.26c-.64-.37-.45-3-.45-3l.06-.41zm-46.28 0a4.54 4.54 0 0 1-2.33 1.86c-.89.45-1.95.64-2.95.88l-.41.1-.6.16a1.2 1.2 0 0 1-.18.05l-.1.03-.19.06a.69.69 0 0 0-.08.03l-.33.11-.12.04-.06.02-.5.18-.11.04-.45.17-.12.05-.27.11-.12.05c-.27.11-.51.24-.74.38l-.03.02-.05.03-.21.14-.05.03-.04.03-.2.15-.06.04-.09.07c-.28.23-.54.47-.8.73l-.07.07-.42.43-.45.45-.48.46-.06.05-.15.13-.03.02-.25.2-.17.13-.03.02-.22.15-.09.06-.33.21-.23.14-.1.06-.24.15-.11.07-.08.04-.08.04-.34.17-.16.07-.05.02c-.34.15-.67.26-1.02.35l-.06.01-.08.02-.07.02-.21.04-.16.03-.13.02-.04.01-.11.02a1.1 1.1 0 0 1-.18.02l-.26.03-.07.01-.65.05-.36.02h-.1l-.7.02-.46.01h-.63l-.83-.03-.12-.01-.11-.01-.1-.01-1.21-.11-.11-.01-.3-.04-.13-.02-.11-.01-.25-.04-1.06-.18-.24-.04-.1-.02-.11-.02-.11-.02-.11-.02-.08-.02-.26-.05-.11-.02-.3-.07-.26-.06h-.03l-1.58-.36-.19-.04-.42-.1-.17-.04-.08-.02-.58-.15-.35-.09-1-.26-.15-.04-.17-.04-.06-.02-.79-.22-.06-.02-.09-.02-.28-.07-.09-.03-.15-.04-.06-.02-.11-.04-.1-.03-.04-.02-.05-.02-.03-.01-.05-.02-.05-.03-.02-.01-.05-.03-.06-.04-.06-.04-.05-.04a1 1 0 0 1-.22-.24s-.49.73-.53 1.99c1.1 1.59 4.6 2.12 9.43 2.76 4.8.64 7.76.51 9.77-.35s5.53-4.94 8.05-5.15a18.86 18.86 0 0 0 6.72-2.26c.64-.37.45-3 .45-3l-.07-.41z" fill="#0D0C0C"/>
<path id="Top_Basic-Boot" d="M122 217.29c.67 3.26 1.7 6.09 3.88 8.84 3.4 4.27 9.2 4.62 13.21 8.09 1.03.89.98 2.32 1.15 3.64-1.66.47-3.13.84-4.99 1.26-.13-1.31.1-2.78-.99-3.72-4.01-3.47-10.32-3.34-13.72-7.61-2.22-2.79-2.23-6.39-2.87-9.74l.3-.03.59-.06h.02l.07-.01.19-.03.3-.04.12-.02 1.01-.16.53-.1.11-.03.04-.01.08-.02.36-.09.32-.09.05-.01.24-.06zm-73.98 0c-.67 3.26-1.7 6.09-3.88 8.84-3.4 4.27-9.2 4.62-13.21 8.09-1.03.89-.98 2.32-1.15 3.64 1.66.47 3.13.84 4.99 1.26.13-1.31-.1-2.78.99-3.72 4.01-3.47 10.32-3.34 13.72-7.61 2.22-2.79 2.23-6.39 2.87-9.74l-.3-.03-.59-.06h-.02l-.07-.01-.19-.03-.3-.04-.12-.02-1.01-.16-.53-.1-.11-.03-.04-.01-.08-.02-.36-.09-.32-.09-.05-.01-.24-.06z" fill="#AA9002"/>
<path id="Side_Basic-Boot" d="M109.49 216.83c1.38.15 2.96.92 4.14 1.12l.19.03c.02.41.01.82.02 1.18.05 2.04-.21 10.76-.61 10.75-.4-.02-1.58-.23-1.88-.55-.2-.21-.24-.71-.3-.98-.21-.87-.4-1.73-.53-2.61a42.83 42.83 0 0 1-.4-3.55c-.14-1.8-.42-3.6-.63-5.39zm-48.96 0c-1.38.15-2.96.92-4.14 1.12l-.19.03c-.02.41-.01.82-.02 1.18-.05 2.04.21 10.76.61 10.75.4-.02 1.58-.23 1.88-.55.2-.21.24-.71.3-.98.21-.87.4-1.73.53-2.61.18-1.19.32-2.36.4-3.55.15-1.8.42-3.6.63-5.39z" fill="#1D1B1B"/>
</g>
</g>
<g id="Gloves">
<g id="Left-Glove"><g id="Basic_Left_Glove" class="option" fill="#212020">
<path d="M138.6 124.11a5.98 5.98 0 0 0-1.58.1c-.36.08-.72.16-1.04.35-.99.57-.72 1.81.16 2.28 1.03.55 2.66.01 3.13-1.05.19-.44-.41-1.26-.67-1.68"/>
<path d="M136.79 125.19a5.68 5.68 0 0 0-1.59.1c-.36.08-.72.16-1.04.35-.99.57-.72 1.81.16 2.28 1.03.55 2.66.01 3.13-1.05.2-.44-.4-1.26-.66-1.68"/>
<path d="M135.49 126.65a7.5 7.5 0 0 0-1.7.31c-.35.12-.69.26-.99.48-.9.7-.47 1.89.47 2.24 1.1.41 2.64-.35 2.96-1.46.13-.46-.74-1.57-.74-1.57z"/>
<path d="M132.55 110.05s-1.56 2.15-1.97 3.69c-.29 1.09-.13 3.68-.49 5.43-.36 1.74-.69 2.71-.69 2.71s-1.38 2.79-1.14 3.43c.24.64 1.45 1.21 2.15.87.86-.42 1.93-2.39 2.61-3.77.69-1.41 1.25-3.41 1.25-3.41s.95.32 1.43.7c1.61 1.24.91 4.96.91 4.96s-.66 1.33-1.66 2.83c-1.36 2.05-3.46 3.81-2.07 5.37 1.29 1.46 4.22-2.37 4.22-2.37l2.87-3.73s3.3-5.41 3.47-6.46c.13-.8.02-3.47.02-3.47l-1.03-10.37-5.24.44-4.31 1.39-.33 1.76"/>
</g>
</g>
<g id="Right-Glove"><g id="Basic_Right_Glove" class="option" fill="#212020">
<path d="M31.4 124.11a5.98 5.98 0 0 1 1.58.1c.36.08.72.16 1.04.35.99.57.72 1.81-.16 2.28-1.03.55-2.66.01-3.13-1.05-.2-.44.41-1.26.67-1.68"/>
<path d="M33.21 125.19a5.59 5.59 0 0 1 2.62.45c.99.57.72 1.81-.16 2.28-1.03.55-2.66.01-3.13-1.05-.19-.44.41-1.26.67-1.68"/>
<path d="M34.51 126.65a7.5 7.5 0 0 1 1.7.31c.35.12.69.26.99.48.9.7.47 1.89-.47 2.24-1.1.41-2.64-.35-2.96-1.46-.13-.46.74-1.57.74-1.57z"/>
<path d="M37.45 110.05s1.56 2.15 1.97 3.69c.29 1.09.13 3.68.49 5.43.36 1.74.69 2.71.69 2.71s1.38 2.79 1.14 3.43c-.24.64-1.45 1.21-2.15.87-.86-.42-1.93-2.39-2.61-3.77-.69-1.41-1.25-3.41-1.25-3.41s-.95.32-1.43.7c-1.61 1.24-.91 4.96-.91 4.96s.66 1.33 1.66 2.83c1.36 2.05 3.46 3.81 2.08 5.37-1.29 1.46-4.22-2.37-4.22-2.37l-2.87-3.73s-3.3-5.41-3.47-6.46c-.13-.8-.02-3.47-.02-3.47l1.03-10.37 5.24.44 4.31 1.39.32 1.76"/>
</g>
</g>
</g>
<g id="Biceps">
<g id="Left-Biceps"><g id="Basic_Biceps_Left" class="option">
<path id="Main_Basic_Biceps_Left" d="M134.37 52.38c-1.14-2.74-6.21-14.78-6.21-14.78l-10.42 4.28c-.59.24-.87.91-.63 1.5l4.87 11.74a3.36 3.36 0 0 0 4.37 1.8l7.4-3.04c.58-.25.86-.92.62-1.5z" fill="#1D1B1B"/>
<path id="Strap_Basic_Biceps_Left" d="m119.35 48.7-5.85 2.4-.14 4.29 7.49-3.07-1.5-3.62" fill="#0D0C0C"/>
<path id="Trauma-Plate_Basic_Biceps_Left" class="toggle" style="" d="m134.34 51.81-5.29-12.74-10.16 4.17 4.67 11.24c.17.4.49.72.89.88.4.17.85.17 1.26 0l8.63-3.55" fill="#AA9002"/>
</g>
</g>
<g id="Right-Biceps"><g id="Basic_Biceps_Right" class="option">
<path id="Main_Basic_Biceps_Right" d="M35.65 52.38c1.14-2.74 6.22-14.78 6.22-14.78l10.42 4.28c.59.24.87.91.63 1.5l-4.87 11.74a3.36 3.36 0 0 1-4.37 1.8l-7.4-3.04a1.16 1.16 0 0 1-.63-1.5z" fill="#1D1B1B"/>
<path id="Strap_Basic_Biceps_Right" d="m50.68 48.7 5.85 2.4.14 4.29-7.49-3.07 1.5-3.62" fill="#0D0C0C"/>
<path id="Trauma-Plate_Basic_Biceps_Right" class="toggle" style="" d="m35.69 51.81 5.29-12.74 10.16 4.17-4.66 11.24a1.67 1.67 0 0 1-2.15.88l-8.64-3.55" fill="#AA9002"/>
</g>
</g>
</g>
<g id="BicepsDecals" mask="url(#BicepsMask)"/>
<path id="Vest" d="M85 20.92c8.5-.01 15.43-4.3 15.63-8.01l.15.02 18.38 5.42 13.31 23.94-2.86 1.16-13.42-8.6-2.31 3.72-1.54 47.4s-8.72 4.71-13.53 5.35c-3.44.45-8.63.68-13.79.67-5.16.01-10.35-.22-13.79-.67-4.81-.63-13.53-5.35-13.53-5.35l-1.54-47.4-2.31-3.72-13.42 8.6-2.86-1.16 13.31-23.94 18.38-5.42.15-.02c.16 3.71 7.09 8.01 15.59 8.01" fill="#120F0F"/>
<g id="SuitDecals" mask="url(#SuitMask)"/>
<g class="swappable" id="Chest"><g id="Chest_Gunslinger">
<g id="Abdomen_Gunslinger">
<g id="Left_Abdomen_Gunslinger" fill="#302A2A">
<path d="m99.07 74.44 7.25-12.98-3.77-5.3-.3-.64-4.12.51-1.69 20 2.63-1.59z"/>
<path d="m99.07 74.44 7.25-12.98 1.9 2.67 2.51-1.99-.67 8.89-10.99 3.41z"/>
</g>
<g id="Right_Abdomen_Gunslinger" fill="#302A2A">
<path d="m70.93 74.44-7.25-12.98-1.9 2.67-2.51-1.99.67 8.89 10.99 3.41z"/>
<path d="m70.93 74.44-7.25-12.98 3.77-5.3.3-.64 4.12.51 1.69 20-2.63-1.59z"/>
</g>
<path id="Center_Abdomen_Gunslinger" d="m85 51.76 13.13 4.27-1.69 20-2.01 1.21-9.43-.5-9.43.51-2.01-1.21-1.69-20L85 51.76z" fill="#201D1D"/>
</g>
<g id="Left-Chest_Gunslinger" fill="#201D1D">
<path d="M85.76 29.31v-3.08l2.54-2.52 24.4-2.75 2.19 13.55-3.63 27.22-3.03 2.41-5.67-7.97-1.59-3.38-15.13-4.59 3.93-3.91V32.92l-4.01-3.61z"/>
<path d="m100.96 52.78 11.15-6.55 2.77-11.71-2.45 12.59-9.88 9.05-1.59-3.38z"/>
<path d="m102.25 55.52-4.12.51L85 51.76v-3.78l15.96 4.79 1.29 2.75z"/>
</g>
<g id="Right-Chest_Gunslinger" fill="#201D1D">
<path d="M84.24 29.31v-3.08l-2.54-2.52-24.4-2.75-2.18 13.54 3.63 27.22 3.03 2.41 5.67-7.97 1.59-3.38 15.13-4.59-3.93-3.91V32.92l4-3.61z"/>
<path d="m69.04 52.78-11.15-6.55-2.77-11.71 2.45 12.59 9.88 9.05 1.59-3.38z"/>
<path d="m67.75 55.52 4.12.51L85 51.76v-3.78l-15.96 4.79-1.29 2.75z"/>
</g>
<g id="Iron-Heart_Gunslinger">
<path id="Under-Heart_Gunslinger" d="m84.17 48.19-3.93-3.91V32.92l4.01-3.61v-3.08h1.51v3.08l4.01 3.61v11.36l-3.93 3.91-.84-.21-.83.21z" fill="#AA9002"/>
<path id="Heart_Gunslinger" d="M82.1 43.35v-9.4l2.9-2.88 2.9 2.88v9.4L85 46.23l-2.9-2.88z" fill="#4D4A46"/><path id="Center_Heart_Gunslinger" class="option" d="M84.14 34.52h1.72v8.25h-1.72z" fill="#AA9002"/>
</g>
</g></g>
<g id="ChestDecals" mask="url(#ChestMask)"><use class="decal" href="#Star--3-" id="Star--3-__13" serif:id="Star (3)" fill="#AA9002" transform="translate(85, 67) rotate(0) scale(0.400912) translate(-50, -50)"/></g>
<g id="Chest-Attachments"><g id="No-Device_Accessories_Chest" class="option"/>
</g>
<g id="Collar"><g id="None_Collar" class="option"/>
</g>
<g id="CollarDecals" mask="url(#CollarMask)"/>
<g id="Helmets" class="swappable" transform="translate(45,-62)"><g id="Helmet_Foreman">
<g id="Left-Earcap_Foreman" class="toggle" fill="#4D4A46">
<path d="m59.14 42.24.39.38-.03 7.88h-1.78v-1.36h1.42v-6.9M57.72 52.98h1.04v15.96h-1.04V52.98M58.76 52.98h.75v1.2h-.75v-1.2"/>
<path d="M56.96 42.24h2.18v6.92h-2.18v-6.92"/>
<path d="M58.09 44.15h1.21v1.24h-1.21v-1.24M58.26 49.46h.88v.69h-.88v-.69"/>
<path d="M58.26 49.46h.88v.24h-.88v-.24M59.53 44.6l.44.43v6.14h-.44V44.6M57.72 50.49h1.8v2.5h-1.8v-2.5"/>
</g>
<g id="Right-Earcap_Foreman" class="toggle" fill="#4D4A46">
<path d="m20.8 42.24-.39.38.03 7.88h1.79v-1.36H20.8v-6.9M22.22 52.98h-1.04v15.96h1.04V52.98M21.18 52.98h-.75v1.2h.75v-1.2"/>
<path d="M22.98 42.24H20.8v6.92h2.18v-6.92"/>
<path d="M21.85 44.15h-1.21v1.24h1.21v-1.24M21.68 49.46h-.88v.69h.88v-.69"/>
<path d="M21.68 49.46h-.88v.24h.88v-.24M20.41 44.6l-.44.43v6.14h.44V44.6M22.22 50.49h-1.8v2.5h1.8v-2.5"/>
</g>
<g id="Helmet_Pieces_Foreman">
<g id="Face_Foreman" fill="#302A2A">
<path d="m25.61 58.38-1.18 11.49 10.77 5.42-1.96-11.94-7.63-4.97zM54.35 58.38l1.18 11.49-10.77 5.42 1.96-11.94 7.63-4.97z"/>
</g>
<g id="Cheeks_Foreman" fill="#201D1D">
<path d="M23.18 51.04c2.48 3.59 5.57 5.76 9.16 6.77l.91 5.53-7.64-4.97-2.43-7.33zM56.78 51.04c-2.48 3.59-5.57 5.76-9.16 6.77l-.91 5.53 7.64-4.97 2.43-7.33z"/>
<path d="m23.18 51.04 2.43 7.34-1.18 11.49-1.29-.17.04-18.66zM56.78 51.04l-2.43 7.34 1.18 11.49 1.29-.17-.04-18.66z"/>
</g>
<path fill="#464F52" id="Visor_Foreman" d="m36.19 75.43 1.83-2.75-1.41-22.65-2.25-.51-.8.51-10.23-2.42v-1.07l16.64-.03 16.66.03v1.07L46.4 50.04l-.8-.51-2.25.51-1.41 22.65 1.83 2.75s-2.54.51-3.8.51a26.6 26.6 0 0 1-3.78-.52z"/>
<path id="Dome_Foreman" d="M22.51 44.69a17.47 17.47 0 0 1 34.92 0v1.08H22.51v-1.08z" fill="#302A2A"/>
<g id="Accents_Foreman" fill="#AA9002">
<path d="M39.46 33.05h1.01l.44.65v8.51l-.94.03v-.02.02l-.94-.03V33.7l.43-.65z"/>
<path d="M39.75 38.37h.43v3.41h-.43zM34.01 34.22v8.03h-1.76v-6.12l.73-1.93 1.03.02zM45.93 34.22v8.03h1.76v-6.12l-.73-1.93-1.03.02z"/>
<path d="M46.6 38.37h.43v3.41h-.43zM32.92 38.37h.43v3.41h-.43z"/>
</g>
<path id="Eyes-2_Foreman" d="M57.11 45.95v2.19l-11.17 2.49L45 64.98l-2.76 2.58 1.09-17.52 2.25-.51.8.51 10.23-2.42v-1.07l-16.63.14H38.8v-.01l-15.46-.13v1.07l10.23 2.42.8-.51 2.25.51 1.09 17.52-2.76-2.58L34 50.63l-11.17-2.49v-2.19h34.28z" fill="#AA9002"/>
<path id="Eyes-1_Foreman" d="m34.36 49.53 2.25.51 1.41 22.65-1.83 2.75-.99-.14-2.86-17.48c-3.61-1.01-6.71-3.2-9.2-6.83V69.7l-1.03-.76v-18.9l.33-5.17 6.94-.05 1.78-2.1v-13.7l.61-.28v13.89h2.72v-15c1.35-.57 2.73-.89 4.16-.97v16.07h2.61V26.66c1.43.08 2.82.4 4.16.97v15h2.72V28.75l.61.28v13.7l1.78 2.1 6.94.05.33 5.17v18.91l-1.03.76V50.99c-2.49 3.62-5.59 5.81-9.2 6.83L44.71 75.3l-.99.14-1.83-2.75.32-5.13L45 64.98l.94-14.35 11.17-2.49v-2.19H22.83v2.19L34 50.63l.94 14.35 2.76 2.58-1.09-17.52-2.25-.51zm12.01.51-.8-.51.8.51zm-23.04-3.5v1.07l10.23 2.42-10.23-2.42v-1.07z" fill="#0D0C0C"/>
</g>
</g></g>
<g id="HelmetsDecals" mask="url(#HelmetsMask)"/>
<g id="Shoulders">
<g id="Left-Shoulder"><g id="Legacy-x2_Shoulder_Left" class="option">
<path id="Plate-2_Shoulder_Left_Legacy-x2" d="m115.99 15.27-5.8 8.69 5.95 8.29 9.39-2.29 5.9 3.63 4.41-1.15-19.85-17.17z" fill="#0D0C0C"/>
<path id="Trauma-Plate-2_Shoulder_Legacy-x2_Left" class="toggle" style="display:none" d="m131.69 31.78 2.85-.74-17.1-14.9-5.19 7.75 4.6 6.43 8.64-2.17 6.2 3.63z"/>
<path id="Plate-1_Shoulder_Left_Legacy-x2" d="m108.85 10.82-2.61 10.1 8.36 5.89 8.12-5.22 6.77 1.51 3.79-2.53-24.43-9.75z" fill="#AA9002"/>
<path id="Trauma-Plate-1_Shoulder_Legacy-x2_Left" class="toggle" style="display:none" d="m129.14 21.3 2.45-1.64-21.09-8.46-2.33 9.02 6.47 4.56 7.43-4.88 7.07 1.4z"/>
</g></g>
<g id="Right-Shoulder"><g id="Legacy-x2_Shoulder_Right" class="option">
<path id="Plate-2_Shoulder_Right_Legacy-x2" d="m54.01 15.27 5.8 8.69-5.95 8.29-9.39-2.29-5.9 3.63-4.41-1.15 19.85-17.17z" fill="#0D0C0C"/>
<path id="Trauma-Plate-2_Shoulder_Legacy-x2_Right" class="toggle" style="display:none" d="m38.31 31.78-2.85-.74 17.1-14.9 5.19 7.75-4.6 6.43-8.64-2.17-6.2 3.63z"/>
<path id="Plate-1_Shoulder_Right_Legacy-x2" d="m61.15 10.82 2.61 10.1-8.36 5.89-8.12-5.22-6.77 1.51-3.79-2.53 24.43-9.75z" fill="#AA9002"/>
<path id="Trauma-Plate-1_Shoulder_Legacy-x2_Right" class="toggle" style="display:none" d="m40.86 21.3-2.45-1.64L59.5 11.2l2.33 9.02-6.47 4.56-7.44-4.88-7.06 1.4z"/>
</g></g>
</g>
<g id="ShouldersDecals" mask="url(#ShouldersMask)"/>
<g id="Gauntlets">
<g id="Left-Gauntlets"><g id="Heavy_Gauntlet_Left" class="option">
<g id="Top-2_Heavy_Gauntlet_Left" fill="#0D0C0C">
<path d="m140.68 79.64 1.74.13 1.43 8.11-1.48 1.23-1.69-9.47z"/>
<path d="m142.25 88.39 1.82 10.57-.95 1.28 1.11 6.22-.44.32-3.07-17.02 1.53-1.37z"/>
<circle cx="142.26" cy="85.76" r=".38"/>
</g>
<g id="Top-1_Heavy_Gauntlet_Left" fill="#AA9002">
<path d="m139.42 107.96 4.36-1.17-3.07-17.02 1.54-1.38-1.66-9.27-6.59-.67 5.42 29.51z"/>
<path d="m138.89 78.94 1.82 10.82"/>
</g>
<path id="Accent-Top_Heavy_Gauntlet_Left" d="m142.53 104.17-2.77.56.42 2.15 2.77-.65-.42-2.06zm-1.75-9.01-2.77.56 1.62 8.4 2.77-.56-1.62-8.4zm-2.49-15.6-3.13-.24 1.64 9.21 2.91-.59-1.42-8.38z" fill="#47432C"/>
<path id="Bottom_Heavy_Gauntlet_Left" d="M134.08 78.88c-3.37.13-6.88 1.57-9.06 4.4a3.55 3.55 0 0 0-.58 3.22l7.01 22.84 7.98-1.39-5.35-29.07z" fill="#AA9002"/>
<g id="Accent-Bottom_Heavy_Gauntlet_Left" fill="#1D1B1B">
<path d="m139.42 107.96-7.98 1.39-.43-1.41 8.13-1.52.28 1.54zm-4.98-27.1c-4.35.43-7.98 2.01-9.69 6.7l-.32-1.04c-.27-.87-.19-1.8.2-2.61l.41-.65c2.19-2.81 5.68-4.24 9.03-4.37l.37 1.97z"/>
<path d="m133.31 79.53-3.52.69 2.77 13.89 3.52-.69-2.77-13.89z"/>
<path d="m132.9 79.88-2.59.51 2.56 12.85 2.59-.51-2.56-12.85z"/>
<path d="m130.3 80.39-.51-.17m3.52-.69-.41.35m3.18 13.54-.62-.7m-2.9 1.4.37-.89"/>
</g>
<g id="Whistling-Birds_Attachment_Heavy_Gauntlet_Left" class="option">
<path id="Head_Whistling-Birds_Attachment_Heavy_Gauntlet_Left" d="m146.22 93.43-2.14 5.53-.88-5.01 3.02-.52z" fill="#0D0C0C"/>
<path id="Birds_Whistling-Birds_Attachment_Heavy_Gauntlet_Left" d="M143.76 94.23c.12-.02.26.22.31.53.05.31 0 .59-.11.61-.12.02-.26-.22-.31-.53-.06-.32-.01-.59.11-.61zm.28 1.6c.12-.02.26.22.31.53.05.32 0 .59-.11.61-.12.02-.26-.22-.31-.53-.06-.32-.01-.59.11-.61zm.54-1.74c.12-.02.26.22.32.53.05.31 0 .59-.12.61-.12.02-.26-.22-.31-.53-.06-.32-.01-.59.11-.61zm-.27 4.28a1.43 1.43 0 0 1-.1-.33c-.05-.31 0-.59.11-.61.08-.02.18.1.25.28l-.26.66zm.62-1.61a1.04 1.04 0 0 1-.19-.47c-.06-.32 0-.59.11-.61.11-.02.24.19.3.48l-.22.6zm.64-1.67c-.11 0-.24-.24-.3-.53-.06-.31 0-.59.11-.61.12-.02.26.22.31.53l.02.21-.14.4z" fill="#9B9997"/>
<g id="Base_Whistling-Birds_Attachment_Heavy_Gauntlet_Left" fill="#AA9002">
<path d="m143.38 78.33-2.02.35.16.89 2.03-.35-.17-.89z"/>
<path d="m143.72 79.19-2.21.38 2.5 14.24 2.21-.38-2.5-14.24zm.32.1-.29.05 2.16 12.3.29-.05-2.16-12.3z"/>
<path d="m143.36 79.25-.29.05 2.34 13.35.29-.05-2.34-13.35z"/>
</g>
<g id="Accent_Whistling-Birds_Attachment_Heavy_Gauntlet_Left" fill="#0D0C0C">
<path d="m141.31 78.46-.81.14 2.54 14.46.81-.14-2.54-14.46z"/>
<path d="m146.22 92.51-3.18.55.15.89 3.18-.55-.15-.89zm-3.54-14.06-1.33.23.36 2.07 1.33-.23-.36-2.07zm.05 2.13-1.01.18.87 4.93.69-2.02-.55-3.09z"/>
</g>
</g></g></g>
<g id="Right-Gauntlets"><g id="Heavy_Gauntlet_Right" class="option">
<g id="Top-2_Heavy_Gauntlet_Right" fill="#0D0C0C">
<path d="m29.5 79.64-1.74.13-1.43 8.11 1.48 1.23 1.69-9.47z"/>
<path d="m27.93 88.39-1.82 10.57.95 1.28-1.11 6.22.44.32 3.07-17.02-1.53-1.37z"/>
<circle cx="27.92" cy="85.76" r=".38"/>
</g>
<g id="Top-1_Heavy_Gauntlet_Right" fill="#AA9002">
<path d="m30.76 107.96-4.36-1.17 3.07-17.02-1.54-1.38 1.66-9.27 6.59-.67-5.42 29.51z"/>
<path d="m31.29 78.94-1.82 10.82"/>
</g>
<path id="Accent-Top_Heavy_Gauntlet_Right" d="m27.66 104.17 2.77.56-.42 2.15-2.77-.65.42-2.06zm1.74-9.01 2.77.56-1.62 8.4-2.77-.56 1.62-8.4zm2.49-15.6 3.13-.24-1.64 9.21-2.91-.59 1.42-8.38z" fill="#47432C"/>
<path id="Bottom_Heavy_Gauntlet_Right" d="M36.11 78.88c3.37.13 6.88 1.57 9.06 4.4.71.92.92 2.12.58 3.22l-7.01 22.84-7.98-1.39 5.35-29.07z" fill="#AA9002"/>
<g id="Accent-Bottom_Heavy_Gauntlet_Right" fill="#1D1B1B">
<path d="m30.76 107.96 7.98 1.39.43-1.41-8.13-1.52-.28 1.54zm4.98-27.1c4.35.43 7.98 2.01 9.69 6.7l.32-1.04c.27-.87.19-1.8-.2-2.61l-.41-.65c-2.19-2.81-5.68-4.24-9.03-4.37l-.37 1.97z"/>
<path d="m36.88 79.53 3.52.69-2.77 13.89-3.52-.69 2.77-13.89z"/>
<path d="m37.29 79.88 2.59.51-2.56 12.85-2.59-.51 2.56-12.85z"/>
<path d="m39.88 80.39.51-.17m-3.51-.69.41.35M34.1 93.42l.62-.7m2.9 1.4-.37-.89"/>
</g><g id="Flamethrower_Attachment_Heavy_Gauntlet_Right" class="option">
<g id="Tubes_Flamethrower_Attachment_Heavy_Gauntlet_Right" fill="#0D0C0C">
<path d="m28.01 79.84.82.14-4.36 24.89-.82-.14 4.36-24.89zm-1.89-.33.82.14-3.12 17.84-.82-.14 3.12-17.84z"/>
<path d="m27.48 81.35 1.23.21-1.04 5.93-1.24-.21 1.05-5.93zm-1.78-.31 1.13.19-1.04 5.93-1.13-.2 1.04-5.92z"/>
</g>
<g id="Main_Flamethrower_Attachment_Heavy_Gauntlet_Right" fill="#302A2A">
<path d="m25.84 79.07 3.38.58-.34 1.94-3.38-.58.34-1.94zm-1.46 7.86 3.53.61-.17.95-3.53-.61.17-.95z"/>
<path d="m24.36 87.9 3.24.56-.08.48-3.24-.56.08-.48z"/>
<path d="m27.66 86.88.54.12-.51 2.89-.54-.11.51-2.9z"/>
</g>
<g id="Accent_Flamethrower_Attachment_Heavy_Gauntlet_Right" fill="#47432C">
<path d="m22.97 97.35.88.15-.08 1.24-1.15-.2.35-1.19zm.77-6.4 1.56.27-.33 1.89-1.56-.27.33-1.89z"/>
<path d="m23.62 92.87 1.13.2-.33 1.89-1.13-.19.33-1.9zm.43 8.68 1.13.2-.45 2.59-1.13-.19.45-2.6zm1.46-8.35 1.13.19-.62 3.52-1.13-.2.62-3.51z"/>
<path d="m23.6 102.81 1.56.27-.09.5-1.56-.27.09-.5z"/>
</g>
<path id="Base_Flamethrower_Attachment_Heavy_Gauntlet_Right" d="m28.2 87 1.39-7.85-1.01.21-2.35 13.27.87.59.59-3.32-.54-.11.51-2.89.54.1z" fill="#4D4A46"/>
</g></g></g>
</g>
<g id="GauntletsDecals" mask="url(#GauntletsMask)"/>
<g id="Shins">
<g id="Left-Shin"><g id="Full_Shin_Left" class="option">
<path id="Shin_Full-Shin_Left" d="M102.49 175.8c10.97-2.98 18.29-1.11 18.29-1.11l4.35 42.35s-4.31 1.17-9.01 1.31c-3.44.1-8.96-.97-8.96-.97l-7.9-36c.01 0 3.63-.8 3.23-5.58" fill="#201D1D"/>
<path id="Accent_Full-Shin_Left" class="toggle" d="m100.16 185.33 6.08-.75.41 1.58-6.12.76-.37-1.59m.51 2.2 4.15-.52.41 1.58-4.2.53-.36-1.59" fill="#0D0C0C"/>
<g id="Ridge_Full-Shin_Left" class="toggle" fill="#AA9002">
<path d="m116.97 173.79-3.93-.29-4.03.56 8.19 44.25c1.96-.02 3.4-.28 5.63-.74l-5.86-43.78"/>
<path d="m113.04 173.5 7.28 44.54"/>
</g>
</g></g>
<g id="Right-Shin"><g id="Full_Shin_Right" class="option">
<path id="Shin_Full-Shin_Right" d="M67.41 175.8c-10.97-2.98-18.29-1.11-18.29-1.11l-4.35 42.35s4.31 1.17 9.01 1.31c3.44.1 8.96-.97 8.96-.97l7.9-36c-.02 0-3.64-.8-3.23-5.58" fill="#201D1D"/>
<path id="Accent_Full-Shin_Right" class="toggle" d="m69.73 185.33-6.08-.75-.41 1.58 6.12.76.37-1.59m-.5 2.2-4.15-.52-.41 1.58 4.2.53.36-1.59" fill="#0D0C0C"/>
<g id="Ridge_Full-Shin_Right" class="toggle" fill="#AA9002">
<path d="m52.92 173.79 3.93-.29 4.03.56-8.18 44.24a26.9 26.9 0 0 1-5.63-.74l5.85-43.77"/>
<path d="m56.85 173.5-7.28 44.54"/>
</g>
</g></g>
</g>
<g id="ShinsDecals" mask="url(#ShinsMask)"/>
<g id="Foot">
<g id="Left-Ankle"><g id="Basic_Ankle_Left" class="option">
<path id="Main_Basic-Ankle_Left" d="m132.53 229.62-7.84-13.73c-4.32-.22-8.38.42-12.17 2.03a3.39 3.39 0 0 0-1.88 2.09h-.01a4.28 4.28 0 0 0 1.27 4.52c2.45 2.24 6.47 5.71 8.94 6.56 5.82 1.99 11.69-1.47 11.69-1.47" fill="#AA9002"/>
<path id="Trauma-Plate_Basic-Ankle_Left" class="toggle" style="" d="M125.65 217.57c-3.86-.07-9.61.68-12.99 2.23l-.34 1.08c-.22.71-.02 1.49.54 2.01 2.21 2.08 6.19 5.71 8.63 6.54 3.28 1.12 8.24-.66 10.12-1.42l-5.96-10.44" fill="#0D0C0C"/>
</g>
</g>
<g id="Left-Toe"><g id="Spikes_Toe_Left" class="option" fill="#AA9002">
<path d="M132.2 239.82c2.86-.5 5.74-1.18 8.65-2.03a.76.76 0 0 1 .64.11c.18.13.3.35.3.57l.03.99a29.46 29.46 0 0 1-7.61 2.04c-.49.08-1-.07-1.38-.38-.38-.33-.61-.8-.63-1.3"/>
<path d="m137.04 241.77-3.86-.43a.66.66 0 0 1-.42-.23.63.63 0 0 1-.13-.46c.11-.58.51-.85 1.29-.8a.7.7 0 0 1 .31.1c.51.31 2.81 1.82 2.81 1.82m7.03-2.05-3.42-.3a.66.66 0 0 1-.48-.29.62.62 0 0 1-.04-.56c.21-.27.52-.42 1.03-.39.1 0 .2.03.28.08.43.21 2.63 1.46 2.63 1.46"/>
</g></g>
<g id="Right-Ankle"><g id="Basic_Ankle_Right" class="option">
<path id="Main_Basic-Ankle_Right" d="m37.34 229.62 7.84-13.73c4.31-.22 8.38.42 12.17 2.03.9.39 1.58 1.15 1.88 2.09h.01c.51 1.63.02 3.4-1.27 4.52-2.46 2.24-6.47 5.71-8.94 6.56-5.82 1.99-11.69-1.47-11.69-1.47" fill="#AA9002"/>
<path id="Trauma-Plate_Basic-Ankle_Right" class="toggle" style="" d="M44.22 217.57c3.85-.07 9.61.68 12.99 2.23l.34 1.08c.22.71.02 1.49-.55 2.01-2.21 2.08-6.19 5.71-8.63 6.54-3.28 1.12-8.24-.66-10.12-1.42l5.97-10.44" fill="#0D0C0C"/>
</g>
</g>
<g id="Right-Toe"><g id="Spikes_Toe_Right" class="option" fill="#AA9002">
<path d="M37.67 239.82a79.96 79.96 0 0 1-8.65-2.03.77.77 0 0 0-.64.11.7.7 0 0 0-.3.57l-.01.56c-.01.26.14.5.38.6 1.99.84 4.42 1.44 7.21 1.86a1.75 1.75 0 0 0 2.01-1.67"/>
<path d="m32.84 241.77 3.86-.43c.16-.02.31-.1.42-.23.1-.13.15-.29.13-.46-.11-.58-.51-.85-1.29-.8a.7.7 0 0 0-.31.1c-.52.31-2.81 1.82-2.81 1.82m-7.03-2.05 3.42-.3c.2-.02.37-.13.48-.29.1-.17.12-.38.04-.56-.21-.27-.52-.42-1.03-.39-.1 0-.2.03-.28.08-.44.21-2.63 1.46-2.63 1.46"/>
</g></g>
</g>
<g id="FootDecals" mask="url(#FootMask)"/>
<g id="Knees">
<g id="Left-Knee"><g id="Galaxy_Knee_Left" class="option">
<g id="Missiles_Galaxy-Knee_Left" class="toggle" style="">
<path id="Base_Missiles_Galaxy-Knee_Left" d="m118.35 160.4-3.12 9.22 2.65-.46c.43-.07.79-.37.93-.78l1.94-5.36a1.21 1.21 0 0 0-.5-1.44l-1.9-1.18z"/>
<g id="Missile-2_Missiles_Galaxy-Knee_Left">
<path d="M117.86 166.16a1.03 1.03 0 0 0-1.26.75c-.14.55.2 1.12.76 1.26.56.14 1.12-.19 1.25-.75.14-.55-.2-1.12-.75-1.26z"/>
<path d="M117.78 166.49a.7.7 0 0 0-.84.5c-.09.37.14.75.51.85s.75-.13.84-.5a.7.7 0 0 0-.51-.85z"/>
</g>
<g id="Missile-1_Missiles_Galaxy-Knee_Left">
<path d="M119.36 161.93c-.56-.14-1.12.2-1.26.75-.14.55.2 1.12.76 1.26.56.14 1.12-.2 1.25-.75.14-.55-.2-1.12-.75-1.26z"/>
<path d="M119.28 162.26a.7.7 0 0 0-.85.5c-.09.37.14.75.51.85.38.09.75-.13.85-.51s-.13-.74-.51-.84z"/>
</g>
</g>
<g id="Strap_Galaxy-Knee_Left" fill="#47432C">
<path d="m98.05 161.5 2.8-.43.4 2.59-2.81.43-.39-2.59z"/>
<path d="m96.61 162.04 1.49-.22.3 1.96-1.48.22-.31-1.96z"/>
</g>
<path id="Knee_Galaxy-Knee_Left" d="m114.57 171.57 4-11.85-4.23-4.86-12.38 1.88-2.58 5.89 7.37 10.13 7.82-1.19z" fill="#AA9002"/>
<path id="Trim_Galaxy-Knee_Left" d="m105.79 156.15 4.71-.72.47 3.1-4.71.72-.47-3.1zm-6.42 6.47c4.44.26 8.92 9.89 8.92 9.89l-1.56.24-7.36-10.13zm19.2-2.91c-4.16 1.56-5.56 12.09-5.56 12.09l1.56-.24 4-11.85z" fill="#4D4A46"/>
</g></g>
<g id="Right-Knee"><g id="Galaxy_Knee_Right" class="option">
<g id="Missiles_Galaxy-Knee_Right" class="toggle" style="">
<path id="Base_Missiles_Galaxy-Knee_Right" d="m51.54 160.4 3.12 9.22-2.65-.46a1.18 1.18 0 0 1-.93-.78l-1.94-5.36c-.19-.54.01-1.13.5-1.44l1.9-1.18z"/>
<g id="Missile-2_Missiles_Galaxy-Knee_Right">
<path d="M52.03 166.16c.56-.14 1.12.19 1.26.75.14.55-.2 1.12-.76 1.26s-1.12-.19-1.25-.75c-.14-.55.2-1.12.75-1.26z"/>
<path d="M52.11 166.49a.7.7 0 0 1 .84.5c.09.37-.14.75-.51.85s-.75-.13-.85-.5a.73.73 0 0 1 .52-.85z"/>
</g>
<g id="Missile-1_Missiles_Galaxy-Knee_Right">
<path d="M50.54 161.93c.56-.14 1.12.2 1.26.75a1.04 1.04 0 0 1-2.02.51c-.14-.55.2-1.12.76-1.26z"/>
<path d="M50.61 162.26a.7.7 0 0 1 .85.5.71.71 0 0 1-.51.85.7.7 0 0 1-.84-.51.7.7 0 0 1 .5-.84z"/>
</g>
</g>
<path id="Strap_Galaxy-Knee_Right" d="m71.84 161.5-2.81-.43-.4 2.59 2.8.43.41-2.59zm1.44.54-1.49-.22-.3 1.96 1.49.23.3-1.97z" fill="#47432C"/>
<path id="Knee_Galaxy-Knee_Right" d="m55.32 171.57-4-11.85 4.23-4.86 12.38 1.88 2.58 5.89-7.37 10.13-7.82-1.19z" fill="#AA9002"/>
<path id="Trim_Galaxy-Knee_Right" d="m64.1 156.15-4.71-.72-.47 3.1 4.71.72.47-3.1zm6.42 6.47c-4.44.26-8.92 9.89-8.92 9.89l1.56.24 7.36-10.13zm-19.19-2.91c4.16 1.56 5.55 12.09 5.55 12.09l-1.56-.24-3.99-11.85z" fill="#4D4A46"/>
</g></g>
</g>
<g id="KneesDecals" mask="url(#KneesMask)"/>
<g id="Thighs">
<g id="Left-Thigh"><g id="Heavy_Thigh_Left" class="option">
<g id="Thigh_Heavy-Thigh_Left" fill="#1D1B1B">
<path d="m97.62 118.12-5.78 7.32 6.6 26.24 4.49 1.59-3.13-29.91-2.18-5.24m14.75-1.53 7.17 5.98-1.03 27.03-4.06 2.47-3.13-29.91 1.05-5.57"/>
<path d="m112.37 116.59-14.76 1.52 2.19 5.24 11.51-1.19 1.06-5.57m-1.05 5.58-11.51 1.19 3.13 29.91 11.51-1.19-3.13-29.91"/>
</g>
<g id="Trim_Heavy-Thigh_Left" fill="#AA9002">
<path d="m112.95 114.3-16.38 1.69 1.04 2.13 14.76-1.52.58-2.3"/>
<path d="m119.26 120.01-6.31-5.72-.58 2.3 7.17 5.98-.28-2.56m-27.67 2.86 4.99-6.88 1.04 2.13-5.78 7.32-.25-2.57"/>
</g>
</g></g>
<g id="Right-Thigh"><g id="Heavy_Thigh_Right" class="option">
<g id="Thigh_Heavy-Thigh_Right" fill="#1D1B1B">
<path d="m72.28 118.12 5.78 7.32-6.6 26.24-4.49 1.59 3.13-29.91 2.18-5.24m-14.76-1.53-7.17 5.98 1.03 27.03 4.06 2.47 3.13-29.91-1.05-5.57"/>
<path d="m57.52 116.59 14.76 1.52-2.19 5.24-11.51-1.19-1.06-5.57m1.06 5.58 11.51 1.19-3.13 29.91-11.51-1.19 3.13-29.91"/>
</g>
<g id="Trim_Heavy-Thigh_Right" fill="#AA9002">
<path d="m56.94 114.3 16.38 1.69-1.04 2.13-14.76-1.52-.58-2.3"/>
<path d="m50.63 120.01 6.31-5.72.58 2.3-7.17 5.98.28-2.56m27.68 2.86-4.99-6.88-1.04 2.13 5.78 7.32.25-2.57"/>
</g>
</g></g>
</g>
<g id="ThighsDecals" mask="url(#ThighsMask)"/>
<g id="Groin"><g id="Basic_Groin" class="option">
<path id="Groin-Plate_Basic" d="M78.67 122.29 68.22 99.4h33.42l-10.45 22.89-6.26 5.46-6.26-5.46z" fill="#0D0C0C"/>
<path id="Trauma-Plating_Groin" class="toggle" style="" d="m79.77 120.38-8.61-18.86H98.7l-8.61 18.86-5.16 4.49-5.16-4.49z" fill="#AA9002"/>
</g>
</g>
<g id="GroinDecals" mask="url(#GroinMask)"/>
<g id="Waist">
<g id="Accessories_Waist">
<g id="Kama" class="toggle" style="display:none"/>
<g id="Loin-Cloth" class="toggle" style="display:none"/>
<g id="Left-Holster" class="toggle" style=""><g id="Belt-Holster_Left" class="option">
<g id="Weapon_Belt-Holster-Left">
<g id="Main_Weapon_Belt-Holster-Left" fill="#4D4A46">
<path d="m116.79 99.11-.24-3.6.62-.04-.15-2.26-.62.04-.08-1.18c-.03-.38.46-.73 1.1-.77l5.37-.36c.63-.04 1.17.23 1.19.62l.08 1.18-.62.04.15 2.26.62-.04.24 3.6-1.46.1.67 9.95-4.73.31-.67-9.95-1.47.1z"/>
<path d="m123.79 98.11-.84.06.8 11.96-4.73.31-.8-11.96-.84.06-.18-2.73 6.41-.42.18 2.72zm-1.74-6.33-3.8.25.25 3.69 3.8-.25-.25-3.69z"/>
<path d="m119.38 99.49-.62.04.63 9.4.62-.04-.63-9.4zm1.44-2.26-.62.04.63 9.4.62-.04-.63-9.4zm1.74 2.05-.62.04.63 9.4.62-.04-.63-9.4z"/>
</g>
<g id="Accent_Weapon_Belt-Holster-Left" fill="#1D1B1B">
<path d="m119.09 96.06.03.38 2.68-.18-.03-.38-2.68.18z"/>
<path d="m119.11 96.44.03.38 2.68-.18-.03-.38-2.68.18zm-.05-.76.02.38 2.68-.18-.03-.38-2.67.18zm-.31-4.63.03.38 2.68-.18-.03-.38-2.68.18z"/>
<path d="m118.88 91.99-.62.04.25 3.69.62-.04-.25-3.69zm3.17-.21-.62.04.25 3.69.62-.04-.25-3.69zm-.12 7.54-.94.06.63 9.4.94-.06-.63-9.4zm-1.6.1-.94.06.63 9.4.94-.06-.63-9.4z"/>
</g>
</g>
<path id="Holster_Belt-Holster-Left" d="m118.4 112.89-2.47-14.99 8.29 10.56.79 20.68c-1.44 1.89-3.04 2.08-4.84.36l-1.77-16.61z" fill="#AA9002"/>
</g>
</g>
<g id="Right-Holster" class="toggle" style=""><g id="Belt-Holster_Right" class="option">
<g id="Weapon_Belt-Holster-Right">
<g id="Main_Weapon_Belt-Holster-Right" fill="#4D4A46">
<path d="m53.1 99.11.24-3.6-.62-.04.15-2.26.62.04.08-1.18c.03-.38-.47-.73-1.1-.77l-5.37-.36c-.63-.04-1.17.23-1.19.62l-.08 1.18.62.04-.15 2.26-.62-.04-.24 3.6 1.46.1-.67 9.95 4.73.31.67-9.95 1.47.1z"/>
<path d="m46.1 98.11.84.06-.8 11.96 4.73.31.8-11.96.84.06.18-2.73-6.41-.42-.18 2.72zm1.74-6.33 3.8.25-.25 3.69-3.8-.25.25-3.69z"/>
<path d="m50.51 99.49.62.04-.63 9.4-.62-.04.63-9.4zm-1.44-2.26.62.04-.63 9.4-.62-.04.63-9.4zm-1.74 2.05.62.04-.63 9.4-.62-.04.63-9.4z"/>
</g>
<g id="Accent_Weapon_Belt-Holster-Right" fill="#1D1B1B">
<path d="m50.8 96.06-.03.38-2.68-.18.02-.38 2.69.18z"/>
<path d="m50.78 96.44-.03.38-2.68-.18.03-.38 2.68.18zm.05-.76-.02.38-2.68-.18.03-.38 2.67.18zm.31-4.63-.02.38-2.68-.18.03-.38 2.67.18z"/>
<path d="m51.01 91.99.62.04-.25 3.69-.62-.04.25-3.69zm-3.17-.21.62.04-.25 3.69-.62-.04.25-3.69zm.12 7.54.94.06-.63 9.4-.94-.06.63-9.4zm1.6.1.94.06-.63 9.4-.94-.06.63-9.4z"/>
</g>
</g>
<path id="Holster_Belt-Holster-Right" d="m51.49 112.89 2.47-14.99-8.29 10.56-.79 20.68c1.44 1.89 3.04 2.08 4.84.36l1.77-16.61z" fill="#47432C"/>
</g>
</g>
<g id="Left-Trophy" class="toggle" style="display:none"/>
<g id="Right-Trophy" class="toggle" style="display:none"/>
</g>
<g id="Under-Belt"><g id="Girth-Belt" class="option" fill="#1D1B1B">
<path d="M84.93 84.93c-9.33 0-27.98-2.25-27.98-2.25l.61-1.91 27.37 2.25 27.37-2.25.6 1.91c.01 0-18.65 2.25-27.97 2.25z"/>
<path d="M84.93 86.84c-9.52 0-28.56-2.25-28.56-2.25l.58-1.91 27.98 2.25 27.98-2.25.58 1.91s-19.04 2.25-28.56 2.25z"/>
<path d="M84.93 88.75c-9.67 0-28.99-2.25-28.99-2.25l.43-1.91 28.56 2.25 28.56-2.25.43 1.91c0-.01-19.32 2.25-28.99 2.25z"/>
<path d="M84.93 90.65c-9.79 0-29.36-2.25-29.36-2.25l.37-1.91 28.99 2.25 28.99-2.25.37 1.91s-19.57 2.25-29.36 2.25z"/>
<path d="M84.93 92.56c-9.9 0-29.69-2.25-29.69-2.25l.33-1.91 29.36 2.25 29.36-2.25.33 1.91s-19.79 2.25-29.69 2.25z"/>
<path d="M84.93 94.47c-10 0-30-2.25-30-2.25l.31-1.91 29.69 2.25 29.69-2.25.31 1.91c0-.01-20 2.25-30 2.25z"/>
<path d="M84.93 96.37c-10.1 0-30.31-2.25-30.31-2.25l.31-1.91 30 2.25 30-2.25.31 1.91s-20.21 2.25-30.31 2.25z"/>
<path d="M84.93 98.28c-10.21 0-30.62-2.25-30.62-2.25l.32-1.91 30.31 2.25 30.31-2.25.32 1.91c-.02 0-20.43 2.25-30.64 2.25z"/>
<path d="M84.93 100.19c-10.32 0-30.97-2.25-30.97-2.25l.34-1.91 30.62 2.25 30.62-2.25.35 1.91c.01-.01-20.64 2.25-30.96 2.25z"/>
<path d="M84.93 102.09c-10.45 0-31.36-2.25-31.36-2.25l.39-1.91 30.97 2.25 30.97-2.25.39 1.91s-20.91 2.25-31.36 2.25z"/>
</g>
</g>
<g id="Belt"><g id="Pouch-Belt-6" class="option">
<path id="Main_Pouch-Belt-6" d="M115.21 92.95c-6.82.61-22.4 2.83-30.27 2.83-7.94 0-23.52-2.23-30.26-2.82l1.01-7.93c5.53.49 21.56 2.74 29.26 2.74 7.47 0 23.17-2.23 29.07-2.76l1.19 7.94z" fill="#0D0C0C"/>
<path id="Buckle_Pouch-Belt-6" d="M79.37 87.01h11.28v9.21H79.37z" fill="#AA9002"/>
<g id="Pouches_Pouch-Belt-6" fill="#47432C">
<path d="M70.81 84.98c-.29-.02-.58.03-.84.13l-2.1.82 8.08.46 2.19-.94c-.01.01-5.7-.36-7.33-.47z"/>
<path d="M78.41 85.73a.24.24 0 0 0-.1-.22.26.26 0 0 0-.24-.03l-2.14.91-1.05 12.41a7.2 7.2 0 0 1 2.15-.84c.41-.08.7-.43.71-.85.14-3.79.29-7.6.67-11.38z"/>
<path d="m75.94 86.4-8.08-.46c-.05 1.89-.23 3.77-.33 5.65-.11 2.08-.15 4.18-.34 6.28-.01.15.04.3.14.41.1.11.25.18.4.18 2.32-.01 4.63.13 6.93.4a.5.5 0 0 0 .4-.12.52.52 0 0 0 .19-.37l.37-5.34.32-6.63z"/>
<path d="m75.94 86.4-8.08-.46-.38 3.14a2.73 2.73 0 0 0 2.58 3.07l2.97.17a2.77 2.77 0 0 0 2.93-2.76l-.02-3.16z"/>
<path d="M71.64 90.75c.29.02.51.26.49.55a.53.53 0 0 1-.55.49.52.52 0 0 1-.49-.55c.02-.28.27-.5.55-.49zm-11.99-7.28c-.31-.02-.62.03-.91.16l-1.86.81 7.38.42 2-.95-6.61-.44z"/>
<path d="M66.52 84.19a.23.23 0 0 0-.1-.22.23.23 0 0 0-.24-.02l-1.91.9-1.02 12.42a6.9 6.9 0 0 1 1.93-.85.9.9 0 0 0 .69-.84c.12-3.8.28-7.6.65-11.39z"/>
<path d="m64.26 84.85-7.38-.42c-.06 1.89-.23 3.77-.33 5.65-.11 2.08-.16 4.17-.34 6.28-.01.15.04.3.14.41s.25.18.4.17c2.08-.01 4.15.11 6.22.36a.5.5 0 0 0 .4-.12.54.54 0 0 0 .19-.37l.37-5.33.33-6.63z"/>
<path d="m64.26 84.85-7.38-.42-.36 3.15a2.75 2.75 0 0 0 2.59 3.05l2.23.13a2.8 2.8 0 0 0 2.06-.75c.55-.52.87-1.25.86-2v-3.16z"/>
<path d="M60.31 89.23c.26.01.46.26.44.54-.02.28-.24.5-.5.49-.26-.01-.46-.26-.44-.54.02-.28.24-.5.5-.49zm-8.09-4.94.55-.85 2.83.09.35 1.06-3.73-.3z"/>
<path d="M55.93 84.69a.2.2 0 0 0-.06-.18.23.23 0 0 0-.17-.08l-3.48-.13-.5 11.17c.11.28 1.53.46 2.68.49a.9.9 0 0 0 .92-.88c.08-3.47.21-6.94.61-10.39zm43.15.29c.29-.02.58.03.85.13l2.1.82-8.08.46-2.19-.94 7.32-.47z"/>
<path d="M91.48 85.73a.24.24 0 0 1 .1-.22.26.26 0 0 1 .24-.03l2.14.91L95 98.81a7.2 7.2 0 0 0-2.15-.84.88.88 0 0 1-.71-.85c-.13-3.8-.28-7.61-.66-11.39z"/>
<path d="m93.95 86.4 8.08-.46c.05 1.89.23 3.77.33 5.65.11 2.08.15 4.18.34 6.28.01.15-.04.3-.14.41a.55.55 0 0 1-.4.18c-2.32-.01-4.63.13-6.93.4a.5.5 0 0 1-.4-.12.52.52 0 0 1-.19-.37l-.37-5.34-.32-6.63z"/>
<path d="m93.95 86.4 8.08-.46.38 3.14a2.76 2.76 0 0 1-2.58 3.07l-2.97.17a2.8 2.8 0 0 1-2.06-.75 2.73 2.73 0 0 1-.86-2.01l.01-3.16z"/>
<path d="M98.25 90.75a.52.52 0 0 0-.49.55c.02.28.26.5.55.49a.52.52 0 0 0 .49-.55.53.53 0 0 0-.55-.49zm11.99-7.28c.31-.02.62.03.91.16l1.86.81-7.38.42-2-.95 6.61-.44z"/>
<path d="M103.37 84.19a.23.23 0 0 1 .1-.22.23.23 0 0 1 .24-.02l1.91.9 1.02 12.42a6.9 6.9 0 0 0-1.93-.85.9.9 0 0 1-.69-.84c-.12-3.8-.28-7.6-.65-11.39z"/>
<path d="m105.63 84.85 7.38-.42c.06 1.89.23 3.77.33 5.65.11 2.08.16 4.17.34 6.28.01.15-.04.3-.14.41a.5.5 0 0 1-.4.17c-2.08-.01-4.15.11-6.22.36a.5.5 0 0 1-.4-.12.54.54 0 0 1-.19-.37l-.37-5.33-.33-6.63z"/>
<path d="m105.63 84.85 7.38-.42.36 3.15a2.75 2.75 0 0 1-2.59 3.05l-2.23.13a2.8 2.8 0 0 1-2.06-.75 2.72 2.72 0 0 1-.86-2v-3.16z"/>
<path d="M109.58 89.23c-.26.01-.46.26-.44.54.02.28.24.5.5.49.26-.01.46-.26.44-.54-.01-.28-.24-.5-.5-.49zm8.09-4.94-.55-.85-2.83.09-.35 1.06 3.73-.3z"/>
<path d="M113.96 84.69a.2.2 0 0 1 .06-.18.23.23 0 0 1 .18-.08l3.48-.13.5 11.17c-.11.28-1.53.46-2.68.49a.9.9 0 0 1-.92-.88 116.3 116.3 0 0 0-.62-10.39z"/>
</g>
</g></g>
</g>
<g id="WaistDecals" mask="url(#WaistMask)"/>
<g id="Extras_Front">
<g id="Front"><g id="None_Front" class="option"/>
</g>
</g>
<g id="Extras-FrontDecals" mask="url(#FrontMask)"/>
</g>
</svg>