<?xml version="1.0" encoding="utf-8"?>
<!-- Generator: Adobe Illustrator 25.4.1, SVG Export Plug-In . SVG Version: 6.00 Build 0) -->
<svg version="1.1" id="Mouse_Droid" xmlns="http://www.w3.org/2000/svg" viewBox="0 0 132 98" height="10%" x="800" y="765">
<animate attributeType="XML" attributeName="x" begin="click" dur="3s" from="800" to="800" values="800;500;650;-1100;-1100;1100;1100;800"
/>
<animate attributeType="XML" attributeName="opacity" begin="click" dur="3s" from="1" to="1" values="1;1;1;1;0;0;1;1"
/>
<style type="text/css">
.mouse0{fill:#1E1C1F;stroke:#000000;stroke-linejoin:round;stroke-miterlimit:2;} .mouse1{fill:#423D43;stroke:#000000;stroke-linejoin:round;stroke-miterlimit:2;} .mouse2{fill:#1E1C1F;} .mouse3{fill:#161616;stroke:#000000;stroke-linejoin:round;stroke-miterlimit:2;} .mouse4{fill:#969198;stroke:#000000;stroke-linejoin:round;stroke-miterlimit:2;} .mouse5{fill:#4A4647;stroke:#000000;stroke-linejoin:round;stroke-miterlimit:2;} .mouse6{fill:#857C7F;stroke:#000000;stroke-linejoin:round;stroke-miterlimit:2;} .mouse7{fill:#C3BEC5;stroke:#000000;stroke-linejoin:round;stroke-miterlimit:2;} .mouse8{fill-rule:evenodd;clip-rule:evenodd;fill:#352F33;stroke:#000000;stroke-linejoin:round;stroke-miterlimit:2;} .mouse9{fill-rule:evenodd;clip-rule:evenodd;fill:#413B3F;stroke:#000000;stroke-linejoin:round;stroke-miterlimit:2;} .mouse10{fill:#423B42;stroke:#000000;stroke-linejoin:round;stroke-miterlimit:2;} .mouse11{fill:#0A080B;} .mouse12{fill-rule:evenodd;clip-rule:evenodd;fill:#1E1C1F;} .mouse13{fill-rule:evenodd;clip-rule:evenodd;fill:#312F32;} .mouse14{fill-rule:evenodd;clip-rule:evenodd;fill:#0D0B0E;}
</style>
<g id="Droid">
<path class="mouse0" d="M89,80.9c0,0-1.1,3.7,0,6c0,0,6.5,9.7,9.8,9.1l11.6-7.4l0.7,0.7c0,0,3.6-5.4-9.2-14.1 C102,75.2,93.4,74,89,80.9"/>
<path class="mouse1" d="M112.1,88.3c0,4.9-4.3,8.9-9.6,8.9c-5.3,0-9.6-4-9.6-8.9c0-4.9,4.3-8.9,9.6-8.9 C107.8,79.4,112.1,83.4,112.1,88.3"/>
<path class="mouse2" d="M23,79.4c0,0-1.4,7.7-0.1,9.7c0,0,2.5,6.7,5.8,6.1l11.1-6.9l0.7,0.7c0,0,3.5-5-4.5-11.7 C36,77.3,27.3,72.5,23,79.4"/>
<path class="mouse1" d="M22.4,87.7c0,4.9,4.3,8.9,9.6,8.9c5.3,0,9.6-4,9.6-8.9c0-4.9-4.3-8.9-9.6-8.9C26.7,78.8,22.4,82.8,22.4,87.7" />
<path class="mouse3" d="M109.3,88.4c0,3.2-2.8,5.9-6.3,5.9c-3.5,0-6.3-2.6-6.3-5.9c0-3.2,2.8-5.9,6.3-5.9 C106.4,82.5,109.3,85.1,109.3,88.4"/>
<path class="mouse3" d="M38.3,88.3c0,3.2-2.8,5.9-6.3,5.9c-3.5,0-6.3-2.6-6.3-5.9c0-3.2,2.8-5.9,6.3-5.9 C35.5,82.5,38.3,85.1,38.3,88.3"/>
<path class="mouse4" d="M1.7,63.2l-1.2-18l108.3-0.4l22.4,16.8L1.7,63.2z"/>
<path class="mouse5" d="M121.8,59.2L11.4,60.3l27.1-43.7l76.9,1.4L121.8,59.2z"/>
<path class="mouse0" d="M129.4,69.6L2.5,71.1v-4.9l126.9-1.5V69.6z"/>
<path class="mouse6" d="M32.4,11.7l6.1,4.8L11.4,60.3L8.3,46L32.4,11.7z"/>
<path class="mouse7" d="M98.6,12.7l16.8,5.3l-76.9-1.4l-6.1-4.8L98.6,12.7z"/>
<path class="mouse8" d="M1.7,63.2l129.6-1.6l0.1,4.1L1.7,67.4L1.7,63.2z"/>
<path class="mouse9" d="M1.7,70.3l129.6-1.6l0.1,4.1L1.7,74.5L1.7,70.3z"/>
<path class="mouse10" d="M124.3,72.8L6.4,74.2c0,0,7,9.3,8,9.3h9.5c0,0,7.7-6.6,14.7-0.5l51.8-1.2c0,0,4.9-5.1,11.6-5.4 c6.7-0.3,8.3,4.7,8.3,4.7l1.8-0.1L124.3,72.8z"/>
<path class="mouse11" d="M104.9,76.6l5.7,4.6C110.6,81.1,110.9,77.5,104.9,76.6"/>
<path class="mouse12" d="M52.4,2L52.8,2l-1-0.1l0-0.1l-0.3,0l-0.9-0.5l0,0.4l-0.7-0.1l0,0.2l0,0L49,1.3l0,0.4l0.4,0.1l-1.1-0.2l0,0.1 l-0.5-0.3l0,0.4l-0.7-0.1l0,0.1l-0.7-0.4l0,0.4l-0.7-0.1l-0.1,0.6l1.1,0.3l-0.9-0.2l-0.3,1.1l-2.9-0.5l-1,4.5l1.1,0.2l-0.1,3 c0,0,0.3,0.4,0.4,0.4c0,0,0.1-1.1,0.1-2c0.1,0.2,0.3,0.3,0.6,0.3l-0.1,1.6c0,0,0.4,0.4,0.5,0.3c0,0,0.1-1,0.1-2 c0.2-0.1,0.3-0.2,0.4-0.3c0.1,0.2,0.2,0.4,0.4,0.5l-0.4,2.1l-3.6,0.1l0,1.3L51,15.5l6.6,0l0-1.4l-2.5-0.6c0.2-0.9,0.5-2.6,0.6-3.1 l3.1,0.2l0-0.5L58,10.1l0.9-4.7l-1.5-0.2l-0.4,1.4l0.3-1.4l-1.5-0.2l0,0.2L55,4.9l0.3-1.6l0.5,0.1l0-1L55,2.3l0.1-0.6l-0.8,0l0,0.4 l-0.8-0.1l0,0l-0.2,0l-0.2-0.5l-0.7,0L52.4,2z M53.9,13.2l-7.6-1.9l-0.7,0c0-0.2,0.1-0.5,0.1-0.8c0.2,0.1,0.3,0.2,0.5,0.2 c0.2,0,0.4-0.1,0.5-0.2c0.1,0.4,0.5,0.7,0.9,0.7c0.5,0,0.9-0.4,0.9-0.9c0-0.1,0-0.3-0.1-0.4c0.2-0.1,0.3-0.3,0.4-0.5 c0,0.2,0.1,0.3,0.2,0.5c-0.3,0.2-0.5,0.5-0.5,0.8c0,0.5,0.4,0.9,0.9,0.9c0.5,0,0.9-0.4,0.9-0.9c0-0.2-0.1-0.4-0.2-0.5 c0.3-0.2,0.5-0.5,0.5-0.8c0-0.1,0-0.1,0-0.2l1,0.3l-0.1,0.6l-0.1,1.1l2.4,0.5l0.1-1.5l0.3,0.1l0.2,0L53.9,13.2z"/>
<path class="mouse12" d="M101.1,0.9l0.5,0.1l-1.1-0.2l0-0.1l-0.4-0.1l-1-0.6l0,0.4l-0.8-0.1l-0.1,0.3l0,0l-1-0.6l0,0.4l0.5,0.1 l-1.3-0.2l0,0.1L95.8,0l0,0.4L95,0.3l0,0.2L94.2,0l0,0.4l-0.8-0.1L93.2,1l1.2,0.3l-1.1-0.2L93,2.4l-3.3-0.7l-1.3,5.2l1.2,0.3 l-0.2,3.5c0,0,0.4,0.5,0.4,0.4c0,0,0.1-1.2,0.2-2.3c0.2,0.2,0.4,0.4,0.6,0.4l-0.1,1.8c0,0,0.5,0.5,0.6,0.4c0,0,0.1-1.2,0.2-2.3 c0.2-0.1,0.3-0.2,0.4-0.4c0.1,0.2,0.2,0.4,0.4,0.6l-0.5,2.5l-4.1,0.1l0,1.5l11.7,3.3l7.7,0.2l0-1.6l-2.9-0.8c0.2-1,0.6-3,0.7-3.6 l3.6,0.4l0-0.6l-0.8-0.1l1.1-5.5l-1.7-0.3l-0.5,1.6l0.3-1.6l-1.7-0.3L105,4.6l-0.9-0.2l0.4-1.9l0.6,0.2l0-1.2l-0.9-0.1l0.2-0.7 l-1,0l0,0.5l-1-0.2l0,0l-0.2,0l-0.2-0.6l-0.8,0L101.1,0.9z M102.6,14l-8.7-2.3l-0.8,0c0.1-0.3,0.1-0.6,0.2-0.9 c0.2,0.1,0.4,0.2,0.6,0.2c0.2,0,0.4-0.1,0.6-0.2c0.1,0.5,0.5,0.8,1,0.8c0.6,0,1.1-0.5,1-1.1c0-0.2,0-0.3-0.1-0.4 c0.2-0.1,0.4-0.3,0.5-0.6c0,0.2,0.1,0.4,0.2,0.5c-0.3,0.2-0.6,0.5-0.5,0.9c0,0.6,0.5,1,1.1,1c0.6,0,1.1-0.5,1-1.1 c0-0.2-0.1-0.4-0.2-0.6c0.3-0.2,0.6-0.5,0.5-0.9c0-0.1,0-0.1,0-0.2l1.2,0.4l-0.1,0.7l-0.1,1.2l2.7,0.7l0.1-1.8l0.3,0.1l0.2,0 L102.6,14z"/>
<path class="mouse12" d="M52,1.4l-0.7-0.2L52,1.4z"/>
<path class="mouse12" d="M47.5,1.1L47,1L47.5,1.1z"/>
<rect x="60.3" y="21.7" class="mouse13" width="5.2" height="2.4"/>
<rect x="61.2" y="22.6" class="mouse14" width="3.4" height="0.6"/>
<rect x="60.3" y="25.2" class="mouse13" width="5.2" height="2.4"/>
<rect x="61.2" y="26.1" class="mouse14" width="3.4" height="0.6"/>
<rect x="60.1" y="28.2" class="mouse13" width="5.2" height="2.4"/>
<rect x="61" y="29.1" class="mouse14" width="3.4" height="0.6"/>
<rect x="54.4" y="28" class="mouse13" width="5.2" height="2.4"/>
<rect x="55.3" y="28.9" class="mouse14" width="3.4" height="0.6"/>
<rect x="54.4" y="24.9" class="mouse13" width="5.2" height="2.4"/>
<rect x="55.3" y="25.7" class="mouse14" width="3.4" height="0.6"/>
<rect x="54.2" y="21.7" class="mouse13" width="5.2" height="2.4"/>
<rect x="55.1" y="22.6" class="mouse14" width="3.4" height="0.6"/>
<rect x="66.6" y="21.7" class="mouse13" width="5.2" height="2.4"/>
<rect x="67.5" y="22.6" class="mouse14" width="3.4" height="0.6"/>
<rect x="66.9" y="24.9" class="mouse13" width="5.2" height="2.4"/>
<rect x="67.8" y="25.7" class="mouse14" width="3.4" height="0.6"/>
<rect x="66.9" y="28.1" class="mouse13" width="5.2" height="2.4"/>
<rect x="67.8" y="29" class="mouse14" width="3.4" height="0.6"/>
<rect x="72.6" y="28.3" class="mouse13" width="5.2" height="2.4"/>
<rect x="73.5" y="29.2" class="mouse14" width="3.4" height="0.6"/>
<rect x="78.4" y="28.4" class="mouse13" width="5.2" height="2.4"/>
<rect x="79.3" y="29.3" class="mouse14" width="3.4" height="0.6"/>
<rect x="77.9" y="25.3" class="mouse13" width="5.2" height="2.4"/>
<rect x="78.8" y="26.2" class="mouse14" width="3.4" height="0.6"/>
<rect x="72.3" y="25" class="mouse13" width="5.2" height="2.4"/>
<rect x="73.2" y="25.9" class="mouse14" width="3.4" height="0.6"/>
<rect x="72.3" y="21.8" class="mouse13" width="5.2" height="2.4"/>
<rect x="73.2" y="22.7" class="mouse14" width="3.4" height="0.6"/>
<rect x="78.2" y="22" class="mouse13" width="5.2" height="2.4"/>
<rect x="79.1" y="22.9" class="mouse14" width="3.4" height="0.6"/>
<rect x="60.5" y="31.4" class="mouse13" width="5.2" height="2.4"/>
<rect x="61.4" y="32.3" class="mouse14" width="3.4" height="0.6"/>
<rect x="60.5" y="34.9" class="mouse13" width="5.2" height="2.4"/>
<rect x="61.4" y="35.7" class="mouse14" width="3.4" height="0.6"/>
<rect x="60.4" y="37.9" class="mouse13" width="5.2" height="2.4"/>
<rect x="61.3" y="38.8" class="mouse14" width="3.4" height="0.6"/>
<rect x="54.6" y="37.7" class="mouse13" width="5.2" height="2.4"/>
<rect x="55.5" y="38.6" class="mouse14" width="3.4" height="0.6"/>
<rect x="54.6" y="34.6" class="mouse13" width="5.2" height="2.4"/>
<rect x="55.5" y="35.4" class="mouse14" width="3.4" height="0.6"/>
<rect x="54.4" y="31.4" class="mouse13" width="5.2" height="2.4"/>
<rect x="55.3" y="32.3" class="mouse14" width="3.4" height="0.6"/>
<rect x="66.9" y="31.4" class="mouse13" width="5.2" height="2.4"/>
<rect x="67.8" y="32.3" class="mouse14" width="3.4" height="0.6"/>
<rect x="67.2" y="34.6" class="mouse13" width="5.2" height="2.4"/>
<rect x="68.1" y="35.4" class="mouse14" width="3.4" height="0.6"/>
<rect x="67.1" y="37.8" class="mouse13" width="5.2" height="2.4"/>
<rect x="68" y="38.7" class="mouse14" width="3.4" height="0.6"/>
<rect x="72.9" y="38" class="mouse13" width="5.2" height="2.4"/>
<rect x="73.8" y="38.9" class="mouse14" width="3.4" height="0.6"/>
<rect x="78.7" y="38.1" class="mouse13" width="5.2" height="2.4"/>
<rect x="79.6" y="39" class="mouse14" width="3.4" height="0.6"/>
<rect x="78.2" y="35" class="mouse13" width="5.2" height="2.4"/>
<rect x="79.1" y="35.9" class="mouse14" width="3.4" height="0.6"/>
<rect x="72.6" y="34.7" class="mouse13" width="5.2" height="2.4"/>
<rect x="73.5" y="35.6" class="mouse14" width="3.4" height="0.6"/>
<rect x="72.6" y="31.5" class="mouse13" width="5.2" height="2.4"/>
<rect x="73.5" y="32.4" class="mouse14" width="3.4" height="0.6"/>
<rect x="78.4" y="31.7" class="mouse13" width="5.2" height="2.4"/>
<rect x="79.3" y="32.6" class="mouse14" width="3.4" height="0.6"/>
<rect x="60.5" y="40.8" class="mouse13" width="5.2" height="2.4"/>
<rect x="61.4" y="41.7" class="mouse14" width="3.4" height="0.6"/>
<rect x="60.5" y="44.3" class="mouse13" width="5.2" height="2.4"/>
<rect x="61.4" y="45.2" class="mouse14" width="3.4" height="0.6"/>
<rect x="60.4" y="47.4" class="mouse13" width="5.2" height="2.4"/>
<rect x="61.3" y="48.2" class="mouse14" width="3.4" height="0.6"/>
<rect x="54.6" y="47.2" class="mouse13" width="5.2" height="2.4"/>
<rect x="55.5" y="48.1" class="mouse14" width="3.4" height="0.6"/>
<rect x="54.6" y="44" class="mouse13" width="5.2" height="2.4"/>
<rect x="55.5" y="44.9" class="mouse14" width="3.4" height="0.6"/>
<rect x="54.4" y="40.8" class="mouse13" width="5.2" height="2.4"/>
<rect x="55.3" y="41.7" class="mouse14" width="3.4" height="0.6"/>
<rect x="66.9" y="40.8" class="mouse13" width="5.2" height="2.4"/>
<rect x="67.8" y="41.7" class="mouse14" width="3.4" height="0.6"/>
<rect x="67.2" y="44" class="mouse13" width="5.2" height="2.4"/>
<rect x="68.1" y="44.9" class="mouse14" width="3.4" height="0.6"/>
<rect x="67.1" y="47.3" class="mouse13" width="5.2" height="2.4"/>
<rect x="68" y="48.1" class="mouse14" width="3.4" height="0.6"/>
<rect x="72.9" y="47.5" class="mouse13" width="5.2" height="2.4"/>
<rect x="73.8" y="48.4" class="mouse14" width="3.4" height="0.6"/>
<rect x="78.7" y="47.6" class="mouse13" width="5.2" height="2.4"/>
<rect x="79.6" y="48.5" class="mouse14" width="3.4" height="0.6"/>
<rect x="78.2" y="44.5" class="mouse13" width="5.2" height="2.4"/>
<rect x="79.1" y="45.3" class="mouse14" width="3.4" height="0.6"/>
<rect x="72.6" y="44.2" class="mouse13" width="5.2" height="2.4"/>
<rect x="73.5" y="45" class="mouse14" width="3.4" height="0.6"/>
<rect x="72.6" y="41" class="mouse13" width="5.2" height="2.4"/>
<rect x="73.5" y="41.8" class="mouse14" width="3.4" height="0.6"/>
<rect x="78.4" y="41.2" class="mouse13" width="5.2" height="2.4"/>
<rect x="79.3" y="42" class="mouse14" width="3.4" height="0.6"/>
<rect x="60.6" y="50" class="mouse13" width="5.2" height="2.4"/>
<rect x="61.5" y="50.8" class="mouse14" width="3.4" height="0.6"/>
<rect x="60.6" y="53.4" class="mouse13" width="5.2" height="2.4"/>
<rect x="61.5" y="54.3" class="mouse14" width="3.4" height="0.6"/>
<rect x="60.4" y="56.5" class="mouse13" width="5.2" height="2.4"/>
<rect x="61.3" y="57.4" class="mouse14" width="3.4" height="0.6"/>
<rect x="54.7" y="56.3" class="mouse13" width="5.2" height="2.4"/>
<rect x="55.6" y="57.2" class="mouse14" width="3.4" height="0.6"/>
<rect x="54.7" y="53.1" class="mouse13" width="5.2" height="2.4"/>
<rect x="55.6" y="54" class="mouse14" width="3.4" height="0.6"/>
<rect x="54.5" y="50" class="mouse13" width="5.2" height="2.4"/>
<rect x="55.4" y="50.8" class="mouse14" width="3.4" height="0.6"/>
<rect x="66.9" y="50" class="mouse13" width="5.2" height="2.4"/>
<rect x="67.8" y="50.8" class="mouse14" width="3.4" height="0.6"/>
<rect x="67.2" y="53.1" class="mouse13" width="5.2" height="2.4"/>
<rect x="68.1" y="54" class="mouse14" width="3.4" height="0.6"/>
<rect x="67.2" y="56.4" class="mouse13" width="5.2" height="2.4"/>
<rect x="68.1" y="57.2" class="mouse14" width="3.4" height="0.6"/>
<rect x="72.9" y="56.6" class="mouse13" width="5.2" height="2.4"/>
<rect x="73.8" y="57.5" class="mouse14" width="3.4" height="0.6"/>
<rect x="78.7" y="56.7" class="mouse13" width="5.2" height="2.4"/>
<rect x="79.6" y="57.6" class="mouse14" width="3.4" height="0.6"/>
<rect x="78.2" y="53.6" class="mouse13" width="5.2" height="2.4"/>
<rect x="79.2" y="54.5" class="mouse14" width="3.4" height="0.6"/>
<rect x="72.6" y="53.3" class="mouse13" width="5.2" height="2.4"/>
<rect x="73.5" y="54.2" class="mouse14" width="3.4" height="0.6"/>
<rect x="72.6" y="50.1" class="mouse13" width="5.2" height="2.4"/>
<rect x="73.5" y="51" class="mouse14" width="3.4" height="0.6"/>
<rect x="78.5" y="50.3" class="mouse13" width="5.2" height="2.4"/>
<rect x="79.4" y="51.1" class="mouse14" width="3.4" height="0.6"/>
<rect x="84.4" y="28.2" class="mouse13" width="5.2" height="2.4"/>
<rect x="85.3" y="29.1" class="mouse14" width="3.4" height="0.6"/>
<rect x="84" y="25.1" class="mouse13" width="5.2" height="2.4"/>
<rect x="84.9" y="25.9" class="mouse14" width="3.4" height="0.6"/>
<rect x="84.2" y="21.8" class="mouse13" width="5.2" height="2.4"/>
<rect x="85.1" y="22.6" class="mouse14" width="3.4" height="0.6"/>
<rect x="84.7" y="37.9" class="mouse13" width="5.2" height="2.4"/>
<rect x="85.6" y="38.8" class="mouse14" width="3.4" height="0.6"/>
<rect x="84.2" y="34.8" class="mouse13" width="5.2" height="2.4"/>
<rect x="85.1" y="35.6" class="mouse14" width="3.4" height="0.6"/>
<rect x="84.4" y="31.4" class="mouse13" width="5.2" height="2.4"/>
<rect x="85.3" y="32.3" class="mouse14" width="3.4" height="0.6"/>
<rect x="84.7" y="47.3" class="mouse13" width="5.2" height="2.4"/>
<rect x="85.6" y="48.2" class="mouse14" width="3.4" height="0.6"/>
<rect x="84.2" y="44.2" class="mouse13" width="5.2" height="2.4"/>
<rect x="85.1" y="45.1" class="mouse14" width="3.4" height="0.6"/>
<rect x="84.4" y="40.9" class="mouse13" width="5.2" height="2.4"/>
<rect x="85.3" y="41.8" class="mouse14" width="3.4" height="0.6"/>
<rect x="84.8" y="56.5" class="mouse13" width="5.2" height="2.4"/>
<rect x="85.7" y="57.3" class="mouse14" width="3.4" height="0.6"/>
<rect x="84.3" y="53.3" class="mouse13" width="5.2" height="2.4"/>
<rect x="85.2" y="54.2" class="mouse14" width="3.4" height="0.6"/>
<rect x="84.5" y="50" class="mouse13" width="5.2" height="2.4"/>
<rect x="85.4" y="50.9" class="mouse14" width="3.4" height="0.6"/>
<rect x="89.8" y="28.5" class="mouse13" width="5.2" height="2.4"/>
<rect x="90.7" y="29.4" class="mouse14" width="3.4" height="0.6"/>
<rect x="90.1" y="38.2" class="mouse13" width="5.2" height="2.4"/>
<rect x="91" y="39.1" class="mouse14" width="3.4" height="0.6"/>
<rect x="89.6" y="35.1" class="mouse13" width="5.2" height="2.4"/>
<rect x="90.5" y="35.9" class="mouse14" width="3.4" height="0.6"/>
<rect x="89.8" y="31.7" class="mouse13" width="5.2" height="2.4"/>
<rect x="90.7" y="32.6" class="mouse14" width="3.4" height="0.6"/>
<rect x="90.1" y="47.6" class="mouse13" width="5.2" height="2.4"/>
<rect x="91" y="48.5" class="mouse14" width="3.4" height="0.6"/>
<rect x="89.6" y="44.5" class="mouse13" width="5.2" height="2.4"/>
<rect x="90.5" y="45.4" class="mouse14" width="3.4" height="0.6"/>
<rect x="89.8" y="41.2" class="mouse13" width="5.2" height="2.4"/>
<rect x="90.7" y="42.1" class="mouse14" width="3.4" height="0.6"/>
<rect x="90.1" y="56.8" class="mouse13" width="5.2" height="2.4"/>
<rect x="91" y="57.6" class="mouse14" width="3.4" height="0.6"/>
<rect x="89.6" y="53.6" class="mouse13" width="5.2" height="2.4"/>
<rect x="90.5" y="54.5" class="mouse14" width="3.4" height="0.6"/>
<rect x="89.8" y="50.3" class="mouse13" width="5.2" height="2.4"/>
<rect x="90.8" y="51.2" class="mouse14" width="3.4" height="0.6"/>
<rect x="89.8" y="25.6" class="mouse13" width="5.2" height="2.4"/>
<rect x="90.7" y="26.5" class="mouse14" width="3.4" height="0.6"/>
<rect x="95.4" y="25.6" class="mouse13" width="5.2" height="2.4"/>
<rect x="96.3" y="26.5" class="mouse14" width="3.4" height="0.6"/>
<rect x="95.4" y="47.5" class="mouse13" width="5.2" height="2.4"/>
<rect x="96.3" y="48.4" class="mouse14" width="3.4" height="0.6"/>
<rect x="95.2" y="50.1" class="mouse13" width="5.2" height="2.4"/>
<rect x="96.1" y="51" class="mouse14" width="3.4" height="0.6"/>
<rect x="95.2" y="53.5" class="mouse13" width="5.2" height="2.4"/>
<rect x="96.1" y="54.4" class="mouse14" width="3.4" height="0.6"/>
<rect x="103.9" y="18.2" class="mouse14" width="0.9" height="40.8"/>
<rect x="102.5" y="18.2" class="mouse14" width="0.9" height="40.8"/>
<rect x="101" y="18.2" class="mouse14" width="0.9" height="40.8"/>
<rect x="52.8" y="18.2" class="mouse14" width="0.9" height="40.8"/>
<rect x="51.4" y="18.2" class="mouse14" width="0.9" height="40.8"/>
<rect x="49.9" y="18.2" class="mouse14" width="0.9" height="40.8"/>
</g>
</svg>
