<?xml version='1.0' encoding='UTF-8'?>
<svg version="1.1" id="Male-Body" xmlns="http://www.w3.org/2000/svg" xmlns:serif="http://www.serif.com/" viewBox="0 -55 170 310" style="stroke-width: 0.2px; fill-rule: evenodd; stroke-linejoin: round;" width="510" height="930">
<style>
mask {
mask-type: alpha;
}
.decal {
stroke: none;
}
</style>
<defs id="Masks" stroke="none">
<mask id="HelmetsMask"> <use href="#Helmets"/> </mask>
<mask id="CollarMask"> <use href="#Collar"/> </mask>
<mask id="ShouldersMask"> <use href="#Shoulders"/> </mask>
<mask id="ChestMask"> <use href="#Chest"/> </mask>
<mask id="BicepsMask"> <use href="#Biceps"/> </mask>
<mask id="GauntletsMask"> <use href="#Gauntlets"/> </mask>
<mask id="WaistMask"> <use href="#Waist"/> </mask>
<mask id="GroinMask"> <use href="#Groin"/> </mask>
<mask id="ThighsMask"> <use href="#Thighs"/> </mask>
<mask id="KneesMask"> <use href="#Knees"/> </mask>
<mask id="ShinsMask"> <use href="#Shins"/> </mask>
<mask id="FootMask"> <use href="#Foot"/> </mask>
</defs>
<defs id="Decals"/><metadata><rdf:rdf xmlns:rdf="http://www.w3.org/1999/02/22-rdf-syntax-ns#" xmlns:rdfs="http://www.w3.org/2000/01/rdf-schema#" xmlns:dc="http://purl.org/dc/elements/1.1/"><rdf:description><dc:creator>MandoCreator</dc:creator><dc:publisher>https://www.mandocreator.com</dc:publisher><dc:description>Your Beskar'gam - created by MandoCreator</dc:description><dc:format>image/svg+xml</dc:format><dc:type>Image</dc:type><dc:title>MandoCreator - Ner Berskar'gam</dc:title><dc:date>2022-03-14T14:39:36.801Z</dc:date></rdf:description></rdf:rdf></metadata><g id="Main-Body" fill="white" stroke="black">
<g id="Extras_Back">
<g id="Back"><g id="NO-CAPES_Back" class="option"/>
</g>
</g>
<g id="Extras-BackDecals" mask="url(#BackMask)"/>
<g id="Suit">
<g id="Neck-Seal"><g id="Standard-Neck-Seal" class="option" fill="#222222">
<path d="M98.75 7.5c0-.9-.93-1.62-2.07-1.62 0 0-7.8.85-11.7.85s-11.7-.85-11.7-.85c-1.14 0-2.07.73-2.07 1.62s.93 1.62 2.07 1.62c0 0 7.8.85 11.7.85s11.7-.85 11.7-.85c1.15.01 2.07-.72 2.07-1.62z"/>
<path d="M99.45 9.4c0-.94-.97-1.71-2.17-1.71 0 0-8.2.9-12.29.9s-12.3-.89-12.3-.89c-1.2 0-2.17.76-2.17 1.71s.97 1.71 2.17 1.71c0 0 8.2.9 12.29.9s12.29-.9 12.29-.9c1.21-.01 2.18-.78 2.18-1.72z"/>
<path d="M100.24 11.76c0-.99-1.03-1.8-2.29-1.8 0 0-8.64.95-12.96.95s-12.97-.95-12.97-.95c-1.26 0-2.29.81-2.29 1.8s1.03 1.8 2.29 1.8c0 0 8.64.95 12.97.95s12.96-.95 12.96-.95c1.26 0 2.29-.81 2.29-1.8z"/>
<path d="M101 13.92c0-1.04-1.08-1.89-2.41-1.89 0 0-9.08.99-13.61.99s-13.61-.99-13.61-.99c-1.33 0-2.41.85-2.41 1.89s1.08 1.89 2.41 1.89c0 0 9.08.99 13.61.99s13.61-.99 13.61-.99c1.34 0 2.41-.85 2.41-1.89z"/>
<path d="M101.76 16.04c0-.79-1.13-1.43-2.52-1.43 0 0-9.51.75-14.26.75s-14.26-.75-14.26-.75c-1.39 0-2.52.64-2.52 1.43 0 .79 1.13 1.43 2.52 1.43 0 0 9.51.75 14.26.75s14.26-.75 14.26-.75c1.39 0 2.52-.64 2.52-1.43z"/>
<path d="M101.76 18.42c0-.79-1.13-1.43-2.52-1.43 0 0-9.51.75-14.26.75s-14.26-.75-14.26-.75c-1.39 0-2.52.64-2.52 1.43 0 .79 1.13 1.43 2.52 1.43 0 0 9.51 1.44 14.26 1.44s14.26-1.44 14.26-1.44c1.39-.01 2.52-.64 2.52-1.43z"/>
</g>
</g>
<path id="Flight-Suit" d="m73.36 158.45-1.49 8.72-11.03 53.11s-4.93 2.96-7.47 3.46c-2.53.5-7.73-.44-7.73-.44l3.85-43 2.9-18.36.66-7.82s-2.53-22.78-1.7-34.14c.82-11.36 6.66-34.01 6.66-34.01l26.98.58 26.97-.58s5.83 22.66 6.66 34.01c.83 11.36-1.7 34.14-1.7 34.14l.66 7.82 2.9 18.36 3.85 43s-5.32 1.19-7.85.69c-2.53-.5-7.34-3.71-7.34-3.71L98.1 167.16l-1.49-8.72-11.62-30.33-11.63 30.34zm56.05-115.12 11.98 41.65 1.04 21.47-9.55 1.83-6.05-20.21-13.65-33.95.69-15.55 2.31-3.72 13.23 8.48zm-88.82-.03 13.19-8.45 2.31 3.72.52 16.04-13.44 33.46-6.05 20.21-9.55-1.83 1.03-21.47L40.59 43.3z" fill="#222222"/>
<g id="Sleeves" class="toggle" fill="#222222">
<path d="m112.2 56.12 2.68 5.9s4.24-3.2 7.06-4.8 4.38-2.62 6.92-3.6a33.81 33.81 0 0 1 5.08-1.47l-6.07-12.25-5.79-9.67-11.58 5.14 1.7 20.75z"/>
<path d="M113.61 59.24c-.2-.24 5.08-4.5 8.61-6.34 3.53-1.84 10.25-3.69 10.25-3.69"/>
<path d="m57.8 56.12-2.68 5.9s-4.24-3.2-7.06-4.8c-2.82-1.59-4.38-2.62-6.92-3.6a33.81 33.81 0 0 0-5.08-1.47l6.07-12.25 5.79-9.67 11.58 5.14-1.7 20.75z"/>
<path d="M56.39 59.24c.2-.24-5.08-4.5-8.61-6.34-3.53-1.84-10.25-3.69-10.25-3.69"/>
</g>
</g>
<g id="Boots"><g id="Basic_Boots" class="option">
<path id="Main_Basic-Boot" d="M109.1 216.81c1.46.01 3.24.93 4.53 1.15 1.38.23 2.88.21 4.34.07l.59-.06h.02l.07-.01.19-.03.3-.04.12-.02 1.01-.16.53-.1.11-.03.04-.01.08-.02.36-.09.32-.09.05-.01c1.12-.3 2.24-.66 2.24-.66.33 1.45.5 3.11 1.12 4.46.99 2.13.95 3.05 2.61 4.66 1.14 1.1 4.08 3.05 5.44 3.89.57.36 1.19.63 1.81.86l.06.02c2.5.93 5.2 1.28 6.56 4.03.3.6.55 1.32.5 2-.06.87-1.02.99-1.76 1.2-1.84.52-3.43.92-5.56 1.39a28 28 0 0 1-7.1.81c-1.84-.05-3.41-.13-5.03-1.1-.65-.39-1.32-.79-1.89-1.3-1.27-1.15-2.09-2.36-3.71-3.04-1.18-.5-2.39-.91-3.63-1.2-1.76-.42-4.34-1-5.28-2.74-.37-1.3.01-1.94.13-3.06l.06-.48c.1-.73.23-1.48.26-2.26.08-1.51-.3-3.01-.4-4.51-.06-.85-.1-1.71-.11-2.56 0-.14-.08-.75.06-.8.19-.08.4-.12.62-.14l.34-.02zm-48.17 0c-1.46.01-3.24.93-4.53 1.15-1.38.23-2.88.21-4.34.07l-.59-.06h-.02l-.07-.01-.19-.03-.3-.04-.12-.02-1.01-.16-.53-.1-.11-.03-.04-.01-.08-.02-.36-.09-.32-.09-.05-.01c-1.12-.3-2.24-.66-2.24-.66-.33 1.45-.5 3.11-1.12 4.46-.99 2.13-.95 3.05-2.6 4.66-1.14 1.1-4.08 3.05-5.44 3.89-.57.36-1.19.63-1.81.86l-.06.02c-2.5.93-5.2 1.28-6.56 4.03-.3.6-.55 1.32-.5 2 .06.87 1.02.99 1.76 1.2 1.84.52 3.43.92 5.56 1.39a28 28 0 0 0 7.1.81c1.84-.05 3.41-.13 5.03-1.1.65-.39 1.32-.79 1.89-1.3 1.27-1.15 2.09-2.36 3.72-3.04 1.18-.5 2.39-.91 3.63-1.2 1.76-.42 4.33-1 5.28-2.74.37-1.3-.01-1.94-.13-3.06l-.06-.48c-.1-.73-.23-1.48-.26-2.26-.08-1.51.3-3.01.4-4.51.06-.85.1-1.71.11-2.56 0-.14.08-.75-.06-.8-.19-.08-.4-.12-.62-.14l-.36-.02z" fill="#301E0E"/>
<path id="Bottom_Basic-Boot" d="M108.15 230.64a4.54 4.54 0 0 0 2.33 1.86c.89.45 1.95.64 2.96.88l.41.1.6.16.18.05.1.03.19.06.08.03.33.11.12.04.06.02.5.18.11.04.45.17.12.05.27.11.12.05c.27.11.51.24.74.38l.03.02.05.03.21.14.05.03.04.03.2.15.06.04.09.07c.28.23.54.47.8.73l.07.07.42.43.45.45.48.46.06.05.15.13.03.02.25.2.17.13.03.02.22.15.09.06.33.21.23.14.09.06.25.15.11.07.08.04.08.04.34.17.16.07.05.02c.34.15.68.26 1.02.35l.06.01.08.02.07.02.21.04.16.03.13.02.04.01.11.02.18.02.26.03a13.2 13.2 0 0 0 .72.06l.36.02h.11l.7.02.46.01h.63l.83-.03.12-.01.11-.01.1-.01 1.21-.11.11-.01.3-.04.13-.02.11-.01.25-.04 1.06-.18.24-.04.1-.02.11-.02.11-.02.11-.02.08-.02.26-.05.11-.02.3-.07.26-.06h.03l1.58-.36.19-.04.42-.1.17-.04.08-.02.58-.15.35-.09 1-.26.15-.04.17-.04.06-.02.79-.22.06-.02.09-.02.28-.07.09-.03.14-.04.06-.02.11-.04.1-.03.04-.02.05-.02.03-.01.05-.02.05-.03.02-.01.05-.03.06-.04.06-.04.05-.04a1 1 0 0 0 .22-.24s.49.73.53 1.99c-1.1 1.59-4.6 2.12-9.43 2.76-4.8.64-7.76.51-9.77-.35s-5.53-4.94-8.05-5.15a18.79 18.79 0 0 1-6.72-2.26c-.64-.37-.45-3-.45-3l.06-.41zm-46.28 0a4.54 4.54 0 0 1-2.33 1.86c-.89.45-1.95.64-2.95.88l-.41.1-.6.16a1.2 1.2 0 0 1-.18.05l-.1.03-.19.06a.69.69 0 0 0-.08.03l-.33.11-.12.04-.06.02-.5.18-.11.04-.45.17-.12.05-.27.11-.12.05c-.27.11-.51.24-.74.38l-.03.02-.05.03-.21.14-.05.03-.04.03-.2.15-.06.04-.09.07c-.28.23-.54.47-.8.73l-.07.07-.42.43-.45.45-.48.46-.06.05-.15.13-.03.02-.25.2-.17.13-.03.02-.22.15-.09.06-.33.21-.23.14-.1.06-.24.15-.11.07-.08.04-.08.04-.34.17-.16.07-.05.02c-.34.15-.67.26-1.02.35l-.06.01-.08.02-.07.02-.21.04-.16.03-.13.02-.04.01-.11.02a1.1 1.1 0 0 1-.18.02l-.26.03-.07.01-.65.05-.36.02h-.1l-.7.02-.46.01h-.63l-.83-.03-.12-.01-.11-.01-.1-.01-1.21-.11-.11-.01-.3-.04-.13-.02-.11-.01-.25-.04-1.06-.18-.24-.04-.1-.02-.11-.02-.11-.02-.11-.02-.08-.02-.26-.05-.11-.02-.3-.07-.26-.06h-.03l-1.58-.36-.19-.04-.42-.1-.17-.04-.08-.02-.58-.15-.35-.09-1-.26-.15-.04-.17-.04-.06-.02-.79-.22-.06-.02-.09-.02-.28-.07-.09-.03-.15-.04-.06-.02-.11-.04-.1-.03-.04-.02-.05-.02-.03-.01-.05-.02-.05-.03-.02-.01-.05-.03-.06-.04-.06-.04-.05-.04a1 1 0 0 1-.22-.24s-.49.73-.53 1.99c1.1 1.59 4.6 2.12 9.43 2.76 4.8.64 7.76.51 9.77-.35s5.53-4.94 8.05-5.15a18.86 18.86 0 0 0 6.72-2.26c.64-.37.45-3 .45-3l-.07-.41z" fill="#AF8E72"/>
<path id="Top_Basic-Boot" d="M122 217.29c.67 3.26 1.7 6.09 3.88 8.84 3.4 4.27 9.2 4.62 13.21 8.09 1.03.89.98 2.32 1.15 3.64-1.66.47-3.13.84-4.99 1.26-.13-1.31.1-2.78-.99-3.72-4.01-3.47-10.32-3.34-13.72-7.61-2.22-2.79-2.23-6.39-2.87-9.74l.3-.03.59-.06h.02l.07-.01.19-.03.3-.04.12-.02 1.01-.16.53-.1.11-.03.04-.01.08-.02.36-.09.32-.09.05-.01.24-.06zm-73.98 0c-.67 3.26-1.7 6.09-3.88 8.84-3.4 4.27-9.2 4.62-13.21 8.09-1.03.89-.98 2.32-1.15 3.64 1.66.47 3.13.84 4.99 1.26.13-1.31-.1-2.78.99-3.72 4.01-3.47 10.32-3.34 13.72-7.61 2.22-2.79 2.23-6.39 2.87-9.74l-.3-.03-.59-.06h-.02l-.07-.01-.19-.03-.3-.04-.12-.02-1.01-.16-.53-.1-.11-.03-.04-.01-.08-.02-.36-.09-.32-.09-.05-.01-.24-.06z" fill="#222121"/>
<path id="Side_Basic-Boot" d="M109.49 216.83c1.38.15 2.96.92 4.14 1.12l.19.03c.02.41.01.82.02 1.18.05 2.04-.21 10.76-.61 10.75-.4-.02-1.58-.23-1.88-.55-.2-.21-.24-.71-.3-.98-.21-.87-.4-1.73-.53-2.61a42.83 42.83 0 0 1-.4-3.55c-.14-1.8-.42-3.6-.63-5.39zm-48.96 0c-1.38.15-2.96.92-4.14 1.12l-.19.03c-.02.41-.01.82-.02 1.18-.05 2.04.21 10.76.61 10.75.4-.02 1.58-.23 1.88-.55.2-.21.24-.71.3-.98.21-.87.4-1.73.53-2.61.18-1.19.32-2.36.4-3.55.15-1.8.42-3.6.63-5.39z" fill="#323232"/>
</g>
</g>
<g id="Gloves">
<g id="Left-Glove"><g id="Basic_Left_Glove" class="option" fill="#2E2E2E">
<path d="M138.6 124.11a5.98 5.98 0 0 0-1.58.1c-.36.08-.72.16-1.04.35-.99.57-.72 1.81.16 2.28 1.03.55 2.66.01 3.13-1.05.19-.44-.41-1.26-.67-1.68"/>
<path d="M136.79 125.19a5.68 5.68 0 0 0-1.59.1c-.36.08-.72.16-1.04.35-.99.57-.72 1.81.16 2.28 1.03.55 2.66.01 3.13-1.05.2-.44-.4-1.26-.66-1.68"/>
<path d="M135.49 126.65a7.5 7.5 0 0 0-1.7.31c-.35.12-.69.26-.99.48-.9.7-.47 1.89.47 2.24 1.1.41 2.64-.35 2.96-1.46.13-.46-.74-1.57-.74-1.57z"/>
<path d="M132.55 110.05s-1.56 2.15-1.97 3.69c-.29 1.09-.13 3.68-.49 5.43-.36 1.74-.69 2.71-.69 2.71s-1.38 2.79-1.14 3.43c.24.64 1.45 1.21 2.15.87.86-.42 1.93-2.39 2.61-3.77.69-1.41 1.25-3.41 1.25-3.41s.95.32 1.43.7c1.61 1.24.91 4.96.91 4.96s-.66 1.33-1.66 2.83c-1.36 2.05-3.46 3.81-2.07 5.37 1.29 1.46 4.22-2.37 4.22-2.37l2.87-3.73s3.3-5.41 3.47-6.46c.13-.8.02-3.47.02-3.47l-1.03-10.37-5.24.44-4.31 1.39-.33 1.76"/>
</g>
</g>
<g id="Right-Glove"><g id="Basic_Right_Glove" class="option" fill="#2E2E2E">
<path d="M31.4 124.11a5.98 5.98 0 0 1 1.58.1c.36.08.72.16 1.04.35.99.57.72 1.81-.16 2.28-1.03.55-2.66.01-3.13-1.05-.2-.44.41-1.26.67-1.68"/>
<path d="M33.21 125.19a5.59 5.59 0 0 1 2.62.45c.99.57.72 1.81-.16 2.28-1.03.55-2.66.01-3.13-1.05-.19-.44.41-1.26.67-1.68"/>
<path d="M34.51 126.65a7.5 7.5 0 0 1 1.7.31c.35.12.69.26.99.48.9.7.47 1.89-.47 2.24-1.1.41-2.64-.35-2.96-1.46-.13-.46.74-1.57.74-1.57z"/>
<path d="M37.45 110.05s1.56 2.15 1.97 3.69c.29 1.09.13 3.68.49 5.43.36 1.74.69 2.71.69 2.71s1.38 2.79 1.14 3.43c-.24.64-1.45 1.21-2.15.87-.86-.42-1.93-2.39-2.61-3.77-.69-1.41-1.25-3.41-1.25-3.41s-.95.32-1.43.7c-1.61 1.24-.91 4.96-.91 4.96s.66 1.33 1.66 2.83c1.36 2.05 3.46 3.81 2.08 5.37-1.29 1.46-4.22-2.37-4.22-2.37l-2.87-3.73s-3.3-5.41-3.47-6.46c-.13-.8-.02-3.47-.02-3.47l1.03-10.37 5.24.44 4.31 1.39.32 1.76"/>
</g>
</g>
</g>
<g id="Biceps">
<g id="Left-Biceps"><g id="Basic_Biceps_Left" class="option">
<path id="Main_Basic_Biceps_Left" d="M134.37 52.38c-1.14-2.74-6.21-14.78-6.21-14.78l-10.42 4.28c-.59.24-.87.91-.63 1.5l4.87 11.74a3.36 3.36 0 0 0 4.37 1.8l7.4-3.04c.58-.25.86-.92.62-1.5z" fill="#C35F08"/>
<path id="Strap_Basic_Biceps_Left" d="m119.35 48.7-5.85 2.4-.14 4.29 7.49-3.07-1.5-3.62" fill="#786A6A"/>
<path id="Trauma-Plate_Basic_Biceps_Left" class="toggle" style="display:none" d="m134.34 51.81-5.29-12.74-10.16 4.17 4.67 11.24c.17.4.49.72.89.88.4.17.85.17 1.26 0l8.63-3.55"/>
</g>
</g>
<g id="Right-Biceps"><g id="Basic_Biceps_Right" class="option">
<path id="Main_Basic_Biceps_Right" d="M35.65 52.38c1.14-2.74 6.22-14.78 6.22-14.78l10.42 4.28c.59.24.87.91.63 1.5l-4.87 11.74a3.36 3.36 0 0 1-4.37 1.8l-7.4-3.04a1.16 1.16 0 0 1-.63-1.5z" fill="#C35F08"/>
<path id="Strap_Basic_Biceps_Right" d="m50.68 48.7 5.85 2.4.14 4.29-7.49-3.07 1.5-3.62" fill="#786A6A"/>
<path id="Trauma-Plate_Basic_Biceps_Right" class="toggle" style="display:none" d="m35.69 51.81 5.29-12.74 10.16 4.17-4.66 11.24a1.67 1.67 0 0 1-2.15.88l-8.64-3.55"/>
</g>
</g>
</g>
<g id="BicepsDecals" mask="url(#BicepsMask)"/>
<path id="Vest" d="M85 20.92c8.5-.01 15.43-4.3 15.63-8.01l.15.02 18.38 5.42 13.31 23.94-2.86 1.16-13.42-8.6-2.31 3.72-1.54 47.4s-8.72 4.71-13.53 5.35c-3.44.45-8.63.68-13.79.67-5.16.01-10.35-.22-13.79-.67-4.81-.63-13.53-5.35-13.53-5.35l-1.54-47.4-2.31-3.72-13.42 8.6-2.86-1.16 13.31-23.94 18.38-5.42.15-.02c.16 3.71 7.09 8.01 15.59 8.01" fill="#383838"/>
<g id="SuitDecals" mask="url(#SuitMask)"/>
<g class="swappable" id="Chest"><g id="Chest_Heavy">
<g id="Abdomen_Heavy">
<path id="Under-Plates_Abdomen_Heavy" d="M73.86 69.99h22.29v2.83H73.86zm0 2.83h22.29v2.83H73.86zm0 2.83h22.29v2.83H73.86zm0 2.83h22.29v2.83H73.86zm0 2.83h22.29v2.83H73.86z" fill="#5D5D5D"/>
<g id="Abdomen-Plate_Heavy" fill="#5D5D5D">
<path d="m78.16 60.86-11.11 4.69L66 63.03l12.15-5.13v2.96z"/>
<path d="m70.94 74.95-3.9-9.4 11.11-4.69 3.48 9.89-10.69 4.2z"/>
<path d="m66 63.03-4.67.81 6.89 16.28 4.7-.93L66 63.03zm25.84-2.17 11.11 4.69 1.04-2.52-12.15-5.13v2.96z"/>
<path d="m99.06 74.95 3.9-9.4-11.11-4.69-3.48 9.89 10.69 4.2z"/>
<path d="m104 63.03 4.67.81-6.89 16.28-4.7-.93L104 63.03zM78.19 57.9H91.8v2.96H78.19zm3.44 12.85-3.48-9.89h13.69l-3.48 9.89h-6.73z"/>
</g>
</g>
<g id="Neck-Armor_Heavy">
<path id="Neck-Plate_Heavy" d="m69.69 11.62-9.62 2.1.92 3.57a5.11 5.11 0 0 0 6.04 3.72 4.73 4.73 0 0 0 3.59-5.82l-.93-3.57zm30.62 0 9.62 2.1-.92 3.57a5.1 5.1 0 0 1-6.04 3.72 4.73 4.73 0 0 1-3.59-5.82l.93-3.57z" fill="#5D5D5D"/>
<path id="Secondary_Neck-Plate_Heavy" d="m67.3 11.8-4.84 1.06.69 2.67a2.57 2.57 0 0 0 3.04 1.87 2.4 2.4 0 0 0 1.8-2.93l-.69-2.67zm35.4 0 4.84 1.06-.69 2.67a2.57 2.57 0 0 1-3.04 1.87 2.4 2.4 0 0 1-1.8-2.93l.69-2.67z" fill="#C35F08"/>
</g>
<g id="Full-Chest_Heavy">
<path id="Under-Plate_Chest_Heavy" d="M90.5 54.56h-11l-2.76 2.36v1.58l1.45-.6H91.8l1.45.61v-1.59l-2.75-2.36z" fill="#C35F08"/>
<g id="Chest-Plate_Heavy" fill="#5D5D5D">
<path d="m65.78 61.66 9.75-5.63 1.32-2.67 2.6.35h11.11l2.6-.35 1.32 2.67 9.75 5.63 4.53.99-.11 1.65-4.85-.84-10.54-4.37v-2.17l-2.76-2.36h-11l-2.76 2.36v2.17L66.2 63.46l-4.85.84-.11-1.65 4.54-.99zm42.97.98 5.64-14.4.83 2.95-1.79 10.71-4.68.74zM54.78 51.19l.83-2.95 5.64 14.4-4.68-.74-1.79-10.71z"/>
<path d="M61.09 42.62V36.6l-.46-10.79 2.81-3.1 8.51-1.76 2.2 2.57h21.69l2.2-2.57 8.51 1.76 2.81 3.1-.45 10.53-.01-.02v6.31L93.15 53.36l-2.6.35h-11.1l-2.6-.35-15.76-10.74z"/>
<path d="M108.91 36.61v6.02l5.49 5.61-5.49-11.63zM76.85 53.36 61.09 42.62l-5.49 5.61 5.64 14.4 4.53-.99 9.75-5.63 1.33-2.65z"/>
<path d="m114.4 48.24-5.64 14.4-4.53-.99-9.75-5.63-1.32-2.67 15.75-10.74 5.49 5.63z"/>
<path d="m113.43 61.9-.19 1.15-4.61 1.24.12-1.65 4.68-.74zM61.09 36.61v6.02l-5.49 5.61 5.49-11.63z"/>
<path d="M60.63 25.82a62.96 62.96 0 0 1-2.28 16.61l2.74-5.82-.46-10.79zm48.75 0c.06 5.53.72 11.07 2.28 16.61l-2.74-5.82.46-10.79zM61.25 62.64l.11 1.65-4.61-1.24-.19-1.15 4.69.74z"/>
</g>
<g id="Accents_Chest-Plate_Heavy" class="toggle" style="display: none;"/>
</g>
<g id="Iron-Heart_Heavy">
<path id="Heart_Heavy" d="m85 31.46 3.24 2.99v5.86L85 43.28l-3.24-2.98v-5.86L85 31.46z" fill="#FFFFFF"/><g id="Center_Heart_Heavy" class="option" fill="#FFFFFF">
<path d="M83.82 34.53h2.36v2.84h-2.36z"/>
<path d="M83.82 37.37h.39v2.84h-.39zm1.57 0h.39v2.84h-.39zm.4 0h.39v2.84h-.39zm-1.19 0h.39v2.84h-.39zm.4 0h.39v2.84H85zm-.79 0h.39v2.84h-.39z"/>
</g>
</g>
</g></g>
<g id="ChestDecals" mask="url(#ChestMask)"/>
<g id="Chest-Attachments">
<g id="Pilot-Box_Accessories_Chest" class="option">
<g id="Main_Pilot-Box_Accessories_Chest" fill="#565454">
<path d="M75.59 28.49h4.65v7.46h-4.65zm-2.83 12.83h24.5v.83h-24.5z"/>
<path d="M97.26 26.65c0-.26-.1-.51-.29-.69a.99.99 0 0 0-.69-.29H73.74c-.26 0-.51.1-.69.29a.99.99 0 0 0-.29.69v14.67h24.5V26.65zm0 15.5h-24.5l1.51 2.23h21.49l1.5-2.23z"/>
<path d="M74.65 44.1h8.02v7.69h-8.02zm-1.86 1.53h1.86v4.63h-1.86zm22.56 0h1.86v4.63h-1.86z"/>
<path d="M87.37 44.1h8.01v7.69h-8.01zm-4.7 0h1.07v7.69h-1.07zm3.63 0h1.07v7.69H86.3z"/>
</g>
<path id="Parts-2_Pilot-Box_Accessories_Chest" d="M70.94 45.83h1.86v4.22h-1.86zm26.27 0h1.86v4.22h-1.86zm-13.47-1.95h2.55v8.13h-2.55zm5.3-16.33H74.65v9.33h14.39v-9.33zm-8.79.94H75.6v7.46h4.65v-7.46z" fill="#737272"/>
<g id="Parts-1_Pilot-Box_Accessories_Chest" fill="#7B7B7B">
<ellipse cx="77.92" cy="30.56" rx="1.14" ry="1.13"/>
<ellipse cx="77.92" cy="33.83" rx="1.14" ry="1.13"/>
<path d="m70.94 46.29-4.35.08c-.62 0-1.08-.02-1.32-.32-.16-.2-.18-.48-.19-.81-.02-.62.1-1.36.29-2.2 1.16-5.05 4.88-13.12 5.32-21.94.32-6.47-1.72-16.7-1.72-16.7a1.64 1.64 0 0 0-3.22.64s1.97 9.74 1.66 15.9c-.3 5.94-2.17 11.52-3.64 16-1.06 3.25-1.91 5.97-1.97 7.91-.05 1.5.34 2.65 1.1 3.45.74.78 1.91 1.32 3.72 1.32l4.32-.08v-3.25z"/>
<path d="m66.77 11.19 3.26-.27m-3.55-1.68 3.27-.29m-2.7 4.52 3.26-.27m-3.02 2.73 3.26-.27m-3.1 2.7 3.26-.27m-3.26 2.24 3.26.05m-3.39 1.9 3.25.45m-3.49 1.56 3.22.6m-3.56 1.48 3.15.92m-3.63 1.29 3.15.88m-3.63 1 3.17.78m-3.76 1.28 3.2.67m-3.79 1.22 3.15.85m-3.76 1.05 3.12.96m-3.84 1.23 3.16.84m-3.81 1.29 3.14.9m-3.72 1.43 3.33.09m-3.56 2.47 3.32-1.17m-2.51 3.64 2.47-2.46m-.39 3.85.67-3.23m1.57 3.48.06-3.26m2.05 3.22v-3.26"/>
<path d="m99.06 46.29 4.35.08c.62 0 1.08-.02 1.32-.32.16-.2.18-.48.19-.81.02-.62-.1-1.36-.29-2.2-1.16-5.05-4.88-13.12-5.32-21.94-.32-6.47 1.72-16.7 1.72-16.7a1.64 1.64 0 0 1 3.22.64s-1.97 9.74-1.66 15.9c.3 5.94 2.17 11.52 3.64 16 1.07 3.25 1.91 5.97 1.97 7.91.05 1.5-.34 2.65-1.1 3.45-.74.78-1.91 1.32-3.72 1.32l-4.32-.08v-3.25z"/>
<path d="m103.23 11.19-3.26-.27m3.55-1.68-3.27-.29m2.7 4.52-3.26-.27m3.02 2.73-3.26-.27m3.1 2.7-3.26-.27m3.26 2.24-3.26.05m3.39 1.9-3.25.45m3.49 1.56-3.22.6m3.56 1.48-3.15.92m3.63 1.29-3.15.88m3.63 1-3.17.78m3.76 1.28-3.2.67m3.79 1.22-3.15.85m3.76 1.05-3.12.96m3.84 1.23-3.16.84m3.81 1.29-3.14.9m3.72 1.43-3.33.09m3.56 2.47-3.32-1.17m2.51 3.64-2.47-2.46m.39 3.85-.67-3.23m-1.57 3.48-.06-3.26m-2.05 3.22v-3.26"/>
<path d="M80.99 47.2h2.22v1.48h-2.22zm5.8 0h2.22v1.48h-2.22z"/>
<path d="M70.28 4.22c0-.62-.51-1.13-1.13-1.13h-2.56c-.62 0-1.13.5-1.13 1.13v2.25c0 .62.51 1.12 1.13 1.12h2.56c.62 0 1.13-.5 1.13-1.12V4.22z"/>
<path d="M66.59 3.1h.35v4.5h-.35zm33.13 1.12c0-.62.51-1.13 1.13-1.13h2.56c.62 0 1.13.5 1.13 1.13v2.25c0 .62-.51 1.12-1.13 1.12h-2.56c-.62 0-1.13-.5-1.13-1.12V4.22z"/>
<path d="M103.07 3.1h.35v4.5h-.35z"/>
</g>
<g id="Buttons-2_Pilot-Box_Accessories_Chest" fill="#409DEE">
<circle cx="80.78" cy="38.97" r=".56"/>
<path d="M92.25 33.19h1.51v3.69h-1.51zm-9.39-4.7h5.24v1.17h-5.24zm3.09 1.45h2.14v1.17h-2.14z"/>
<circle cx="84.79" cy="38.97" r=".56"/>
</g>
<g id="Buttons-1_Pilot-Box_Accessories_Chest" fill="#E55757">
<path d="M92.25 27.55h1.51v3.69h-1.51zm-9.39 2.39H85v1.17h-2.14z"/>
<circle cx="78.89" cy="38.97" r=".56"/>
<circle cx="82.71" cy="38.97" r=".56"/>
</g>
</g></g>
<g id="Collar"><g id="None_Collar" class="option"/>
</g>
<g id="CollarDecals" mask="url(#CollarMask)"/>
<g id="Helmets" class="swappable" transform="translate(45,-62)"><g id="Helmet_Stalker-Medium">
<g id="Left-Earcap_Stalker-Medium" class="toggle"><g id="Ear-Cap_Left_Stalker-Medium" fill="#4F4E4D">
<path d="m57.56 40.96 2.4 1.65.94 10.41-2.07 2.06-1.27-14.12z"/>
<path d="M58.6 47.7a.2.2 0 0 1 .18-.22l.97-.09a.2.2 0 0 1 .22.18.2.2 0 0 1-.18.22l-.97.09a.2.2 0 0 1-.22-.18z"/>
</g>
</g>
<g id="Right-Earcap_Stalker-Medium" class="toggle"><g id="Range-Finder_Right_Stalker-Medium" class="option" style="">
<path id="Shaft_Right_Range-Finder_Stalker-Medium" d="m22.08 19.72 1.07.07-1.61 26.85h-1.1l1.64-26.92z" fill="#565353"/>
<path id="Finder_Right_Range-Finder_Stalker-Medium" d="M30.41 17.56h-5.96l.24-.74 6.96-.65-1.24 1.39" fill="#747474"/>
<g id="Cover_Right_Range-Finder_Stalker-Medium" fill="#575555">
<path d="m21.23 18.59 2.83.19.63-1.96 7.48-.7.15-.76-10.68-.4-1.04 1.32.63 2.31"/>
<path d="m21.99 18.64 1.41.09-.07 1.07-1.41-.09.07-1.07"/>
</g>
</g>
<g id="Ear-Cap_Right_Stalker-Medium" fill="#4F4E4E">
<path d="m22.44 40.96-2.4 1.65-.94 10.41 2.07 2.06 1.27-14.12z"/>
<path d="M21.4 47.7a.2.2 0 0 0-.18-.22l-.97-.09a.2.2 0 0 0-.22.18.2.2 0 0 0 .18.22l.97.09a.2.2 0 0 0 .22-.18z"/>
</g>
</g>
<g id="Helmet_Pieces_Stalker-Medium">
<g id="Dome-2_Stalker-Medium" fill="#4E4E4E">
<path d="m33.06 30.32-.02-.06s-6.45 1.52-8.89 7.94a27.44 27.44 0 0 0-.97 4.19c.12-.19.23-.37.34-.5.46-.6 1.2-1.48 1.89-2.15.98-.95 2.81-2.27 4-3.57a30.05 30.05 0 0 0 3.1-4.23 6.2 6.2 0 0 0 .55-1.62zM47.08 30.32l.02-.06s6.45 1.52 8.89 7.94c.43 1.13.81 3.23.97 4.19a7.05 7.05 0 0 0-.34-.5c-.46-.6-1.21-1.48-1.89-2.15-.98-.95-2.81-2.27-3.99-3.57a30.05 30.05 0 0 1-3.1-4.23 5.58 5.58 0 0 1-.56-1.62zM56.86 39.69l.84.86 1.35 14.93-.67 1-1.52-16.79z"/>
<path d="m56.05 38.54.8.86 1.56 17.34-.63.99-1.73-19.19z"/>
<g>
<path d="m23.25 39.69-.84.86-1.35 14.93.67 1 1.52-16.79z"/>
<path d="m24.06 38.54-.8.86-1.56 17.34.63.99 1.73-19.19z"/>
</g>
</g>
<g id="Dome-1_Stalker-Medium" fill="#5D5D5D">
<path d="M33.07 30.22a6.2 6.2 0 0 1-.57 1.72l-.2.33c-.39.08-.84.2-1.22.37a17.8 17.8 0 0 0-2.06 1.23v-1.85s.97-.54 1.94-1c.65-.31 1.58-.63 2.11-.8z"/>
<path d="M32.36 32.16a30.67 30.67 0 0 1-2.97 4.01l-.38.4v-2.69s.87-.76 1.92-1.18c.5-.2 1.02-.39 1.43-.54z"/>
<g>
<path d="M47.08 30.22c.1.47.28 1.24.57 1.72l.2.33c.39.08.85.2 1.22.37a17.8 17.8 0 0 1 2.06 1.23v-1.85s-.97-.54-1.94-1c-.66-.31-1.59-.63-2.11-.8z"/>
<path d="M47.79 32.16c.66 1.07 1.87 2.8 2.97 4.01l.38.4v-2.69s-.87-.76-1.92-1.18c-.5-.2-1.03-.39-1.43-.54z"/>
</g>
</g>
<g id="Face-2_Stalker-Medium" fill="#5D5D5D">
<path d="m23.68 61.12-.13-3.41-2.31 3.27s-.12 2.86.29 4.04c.4 1.17 1.31 2.13 2.15 3.04.95 1.03 12.12 8.49 12.12 8.49l-1.92-8.26-1.85.71-1.61-.79-2.06-1.61-2.16-2.12-1.7-1.93-.82-1.17v-.26zM56.45 61.12l.13-3.41 2.31 3.27s.12 2.86-.29 4.04c-.4 1.17-1.31 2.13-2.15 3.04-.95 1.03-12.12 8.49-12.12 8.49l1.92-8.26 1.85.71 1.61-.79 2.06-1.61 2.16-2.12 1.7-1.93.82-1.17v-.26z"/>
</g>
<g id="Face-1_Stalker-Medium" fill="#C35F08">
<path d="M23.68 61.12v.25l.82 1.17 1.7 1.93 2.16 2.12 2.06 1.61 1.61.8 1.85-.72-.25-1.09-3.58-8.74-4.56-3.47-1.93 2.73.12 3.41z"/>
<path d="M29.89 65.5a.2.2 0 0 1 .04-.29l1.31-1.03a.2.2 0 1 1 .26.32l-1.31 1.03a.2.2 0 0 1-.3-.03M30.69 66.84a.2.2 0 0 1 .03-.29l1.11-.87a.2.2 0 0 1 .29.04.2.2 0 0 1-.03.29l-1.11.87a.2.2 0 0 1-.29-.04"/>
<g>
<path d="M56.45 61.12v.25l-.82 1.17-1.7 1.93-2.16 2.12-2.06 1.61-1.61.8-1.85-.72.25-1.09 3.58-8.74 4.56-3.47 1.93 2.73-.12 3.41z"/>
<path d="M50.24 65.5a.2.2 0 0 0-.04-.29l-1.31-1.03a.2.2 0 1 0-.26.32l1.31 1.03c.1.08.23.06.3-.03M49.44 66.84a.2.2 0 0 0-.03-.29l-1.11-.87a.2.2 0 0 0-.29.04.22.22 0 0 0 .03.29l1.11.87c.08.07.21.05.29-.04"/>
</g>
</g>
<g id="Cheeks_Stalker-Medium" fill="#5D5D5D">
<path d="m46.51 67.19-.86-.23 4.27-12.28.17.57v3.2l-3.58 8.74z"/>
<path d="m50.09 58.45-.17-3.77 1.73-.94 2.92-1.99 2.58-2.29.27-.31-2.77 5.83-4.56 3.47z"/>
<path d="m58.88 60.97-4.23-6 2.77-5.83.49-.58.97 12.41zM44.33 76.54l-.16.05 1.47-9.63.86.23-2.17 9.35z"/>
<g>
<path d="m21.24 60.97 4.23-6-2.77-5.83-.49-.58-.97 12.41zM33.62 67.19l.86-.23-4.27-12.28-.17 3.77 3.58 8.74z"/>
<path d="m30.04 58.45.17-3.77-1.73-.94-2.92-1.99-2.58-2.29-.27-.31 2.77 5.83 4.56 3.47zM35.8 76.54l.16.05-1.47-9.63-.86.23 2.17 9.35z"/>
</g>
</g>
<path fill="#D63D3D" id="Visor_Stalker-Medium" d="M41.83 76.78H38.3l-.38-25.45s-3.7-.78-3.8-.78c-.1 0-5.17-1.18-5.17-1.18l-4.47-1.53-1.49-.76.1-1.35 4.31.7 5.35.68 5.01.32 2.05.14h.51l2.05-.14 5.01-.32 5.35-.68 4.31-.7.1 1.35-1.49.76-4.47 1.53s-5.07 1.18-5.17 1.18c-.1 0-3.8.78-3.8.78l-.38 25.45z"/>
<g id="Eyes_Stalker-Medium">
<g id="Main_Eyes_Stalker-Medium" fill="#5D5D5D">
<path d="M57.51 43.36s-.54-1.02-.89-1.47c-.46-.6-1.21-1.48-1.89-2.15-.98-.95-2.81-2.27-3.99-3.57a30.05 30.05 0 0 1-3.1-4.23c-.36-.6-.55-1.61-.63-1.99-.02-.1.17-.26.17-.26s-2.1-.87-2.82-1.03c-.89-.2-3.23-.47-3.23-.47l-1.99-.01s-2.45.28-3.36.48c-.73.16-2.82 1.03-2.82 1.03s.19.16.17.26c-.08.37-.27 1.39-.63 1.99a30.87 30.87 0 0 1-3.1 4.23c-1.18 1.3-3.01 2.62-3.99 3.57a23.1 23.1 0 0 0-1.89 2.15 15.1 15.1 0 0 0-.89 1.47l-.6 4.83.2.38.76.9 2.58 2.29 2.92 1.99 1.73.93 4.27 12.28 1.47 9.63.64.2h6.95l.64-.2 1.47-9.63 4.27-12.28 1.73-.93 2.92-1.99 2.58-2.29.76-.9.2-.38-.61-4.83M41.83 76.78H38.3l-.38-25.45s-3.7-.78-3.8-.78c-.1 0-5.17-1.18-5.17-1.18l-4.47-1.53-1.49-.76.1-1.35 4.31.7 5.35.68 5.01.32 2.05.14h.51l2.05-.14 5.01-.32 5.35-.68 4.31-.7.1 1.35-1.49.76-4.47 1.53s-5.07 1.18-5.17 1.18c-.1 0-3.8.78-3.8.78l-.38 25.45"/>
<path d="m32.5 30.41.32-.62.14-.1.17.26-.06.27-.57.19M47.63 30.41l-.32-.62-.14-.1s-.16.16-.17.26.1.31.1.31l.53.15"/>
</g>
<g id="Trim_Eyes_Stalker-Medium" fill="#C35F08">
<path d="m35.02 47.26-.37-.9-2.63-.52 1.05-15.62.06-.27-.17-.25 2.73-1.02 1.09-.2v16.27h6.59V28.48l1.18.23 2.63.98-.18.26 1.1 15.89-2.62.52-.37.9-5.03.31-5.06-.31z"/>
<path d="M43.36 44.75h-6.59l2.5.76v-.38h1.58v.38l2.51-.76zM44.94 50.77l-2.74.57-.38 25.45h1.71l.64-.2 1.47-9.63 1.11-3.18-2.26-2.35.45-10.66zM35.16 50.77l2.74.57.38 25.45h-1.71l-.64-.2-1.47-9.63-1.11-3.18 2.26-2.35-.45-10.66z"/>
</g>
<path id="Center_Eyes_Stalker-Medium" d="M43.36 28.48s-1.59-.3-3.3-.3c-1.7 0-3.29.3-3.29.3v16.27h6.59V28.48z" fill="#5D5D5D"/>
</g>
</g>
</g></g>
<g id="HelmetsDecals" mask="url(#HelmetsMask)"/>
<g id="Shoulders">
<g id="Left-Shoulder"><g id="Classic_Shoulder_Left" class="option">
<path id="Main_Shoulder_Classic_Left" d="m117.21 13.84-2.52 11.33 2.02 6.52 13.49 6.79 2.27-3.46-15.26-21.18z" fill="#5D5D5D"/>
<path id="Trauma-Plates_Shoulder_Classic_Left" class="toggle" style="" d="m116.44 25.1 1.67 5.41 11.49 5.78 1.94-2.96-12.93-17.99-2.17 9.76z" fill="#C35F08"/>
</g>
</g>
<g id="Right-Shoulder"><g id="Classic_Shoulder_Right" class="option">
<path id="Main_Shoulder_Classic_Right" d="m52.79 13.84 2.52 11.33-2.02 6.52-13.49 6.79-2.27-3.46 15.26-21.18z" fill="#5D5D5D"/>
<path id="Trauma-Plates_Shoulder_Classic_Right" class="toggle" style="" d="m53.56 25.1-1.67 5.41-11.49 5.78-1.94-2.96 12.93-17.99 2.17 9.76z" fill="#C35F08"/>
</g>
</g>
</g>
<g id="ShouldersDecals" mask="url(#ShouldersMask)"/>
<g id="Gauntlets">
<g id="Left-Gauntlets"><g id="Basic_Gauntlet_Left" class="option">
<path id="Top-2_Basic_Gauntlet_Left" d="m145.21 108.31 1.36-2.17-3.89-18.32-.65 2.21 1.85 8.35-.72 2.07 2.05 7.86z" fill="#5B4939"/>
<path id="Top-1_Basic_Gauntlet_Left" d="m142.68 87.82-.65 2.21 1.85 8.35-.72 2.07 2.05 7.86-.9 1.43.47 5.09-1.57.41-2.13-7.67-1.46-.54-6.74-22.45 8.91-.93.89 4.17z" fill="#4F4B4B"/>
<path id="Accent-Bottom_Basic_Gauntlet_Left" d="m129.49 91.34-1.97.65.97 2.92 1.97-.65-.97-2.92zm1.67 5.11-1.97.65.97 2.92 1.97-.65-.97-2.92zm1.75 5.23-1.97.65.97 2.92 1.97-.65-.97-2.92z" fill="#6B6B6B"/>
<path id="Bottom_Basic_Gauntlet_Left" d="m127.53 91.98-.73-2.22 6.19-4.8 6.63 22.08-6.74 1.23-2.71-8.25 1.96-.65-.97-2.92-1.95.64-.72-2.19 1.97-.65-.97-2.92-1.96.65zm5.38 9.7-1.98.65.96 2.92 1.99-.65-.97-2.92z" fill="#4F4B4B"/><g id="No-Device_Attachment_Basic_Gauntlet_Left" class="option"/>
</g>
</g>
<g id="Right-Gauntlets"><g id="Basic_Gauntlet_Right" class="option">
<path id="Top-2_Basic_Gauntlet_Right" d="m24.75 108.31-1.36-2.17 3.89-18.32.65 2.21-1.85 8.35.72 2.07-2.05 7.86z" fill="#5B4939"/>
<path id="Top-1_Basic_Gauntlet_Right" d="m27.28 87.82.65 2.21-1.85 8.35.72 2.07-2.05 7.86.9 1.43-.47 5.09 1.57.41 2.13-7.67 1.46-.54 6.74-22.45-8.91-.93-.89 4.17z" fill="#4F4B4B"/>
<path id="Accent-Bottom_Basic_Gauntlet_Right" d="m40.47 91.34 1.97.65-.97 2.92-1.97-.65.97-2.92zm-1.68 5.11 1.97.65-.97 2.92-1.97-.65.97-2.92zm-1.74 5.23 1.97.65-.97 2.92-1.97-.65.97-2.92z" fill="#6B6B6B"/>
<path id="Bottom_Basic_Gauntlet_Right" d="m42.43 91.98.73-2.22-6.19-4.8-6.63 22.08 6.74 1.23 2.71-8.25-1.96-.65.97-2.92 1.95.64.72-2.19-1.97-.65.97-2.92 1.96.65zm-5.38 9.7 1.98.65-.96 2.92-1.99-.65.97-2.92z" fill="#4F4B4B"/><g id="No-Device_Attachment_Basic_Gauntlet_Right" class="option"/>
</g>
</g>
</g>
<g id="GauntletsDecals" mask="url(#GauntletsMask)"/>
<g id="Shins">
<g id="Left-Shin"><g id="Pockets_Shin_Left" class="option">
<path id="Accent-2_Pockets-Shin_Left" d="M116.24 183.3c.32-.58.7-.57 1.13-.1l.97 10.84-1.13.1-.97-10.84m-6.59 1.78c.44-.54.9-.58 1.38-.12l1.13 12.55-1.38.12-1.13-12.55" fill="#704D2E"/>
<path id="Accent-1_Pockets-Shin_Left" d="M114.22 181.42c.38-.64.85-.64 1.38-.12l1.13 12.55-1.38.12-1.13-12.55m-6.27 4.51c.41-.69.87-.74 1.39-.12l1.13 12.55-1.38.12-1.14-12.55" fill="#DDE2A5"/>
<g id="Shin_Pockets-Shin_Left" fill="#5E5C5C">
<path d="M112.42 186.52c2.35.32 4.61.14 6.8-.54l1.8 22.33c-2.26.83-3.59 1.04-5.85.54l-2.75-22.33"/>
<path d="M106.26 187.02c2.14.43 4.19.25 6.17-.49l2.74 22.33a8.92 8.92 0 0 1-5.88.49l-3.03-22.33"/>
</g>
</g></g>
<g id="Right-Shin"><g id="Pockets_Shin_Right" class="option">
<path id="Accent-2_Pockets-Shin_Right" d="M53.65 183.3c-.32-.58-.7-.57-1.13-.1l-.97 10.84 1.13.1.97-10.84m6.59 1.78c-.44-.54-.9-.58-1.38-.12l-1.13 12.55 1.38.12 1.13-12.55" fill="#9D8787"/>
<path id="Accent-1_Pockets-Shin_Right" d="M55.67 181.42c-.38-.64-.85-.64-1.38-.12l-1.13 12.55 1.38.12 1.13-12.55m6.27 4.51c-.41-.69-.87-.74-1.38-.12l-1.13 12.55 1.38.12 1.13-12.55" fill="#8D5050"/>
<g id="Shin_Pockets-Shin_Right" fill="#5E5C5C">
<path d="M57.47 186.52c-2.35.32-4.61.14-6.8-.54l-1.8 22.33c2.27.83 3.59 1.04 5.85.54l2.75-22.33"/>
<path d="M63.63 187.02c-2.14.43-4.19.25-6.17-.49l-2.74 22.33c1.97.85 3.75.97 5.88.49l3.03-22.33"/>
</g>
</g></g>
</g>
<g id="ShinsDecals" mask="url(#ShinsMask)"/>
<g id="Foot">
<g id="Left-Ankle"><g id="Heavy_Ankle_Left" class="option">
<path id="Plate_Heavy-Ankle_Left" d="m107.19 218.98.36 3.6 7.43 9.26 7.24-3.25 7.88-2.03-5.95-10.52c-3.01-.42-6.51-.06-10.55 1.15l-2.25 1.97-4.16-.18" fill="#C35F08"/>
<path id="Trim_Heavy-Ankle_Left" d="m113.6 217.2.85 1.02-2.65 2.25-3-.13.11 1.46 6.44 7.92 6.46-3.01 7.78-1.84.81 1.62-8.16 2.1-7.24 3.25-7.43-9.26-.36-3.6 4.16.18 2.23-1.96" fill="#5D5D5D"/>
</g></g>
<g id="Left-Toe">
<g id="Armored_Toe_Left" class="option">
<g id="Plate_Armored_Toe_Left" fill="#303030">
<path d="m119.07 233.15 9.63 5.32 7.27.49 5.83-1.47c1.22-1.01 1.71-3.29.66-5.55l-8.21-3.88-6.44 1.61-8.74 3.48"/>
<path d="M127.13 229.95s7.51 2.19 8.45 3.48c1.04 1.44.39 5.53.39 5.53"/>
</g>
<g id="Trim_Armored_Toe_Left" fill="#525252">
<path d="m133.13 227.42-7.73 1.86-6.52 3.94 1.35.74 6.91-4.02 7.7-1.8-1.71-.72"/>
<path d="m125.39 229.29 1.74.66"/>
</g>
</g></g>
<g id="Right-Ankle"><g id="Heavy_Ankle_Right" class="option">
<path id="Plate_Heavy-Ankle_Right" d="m62.68 218.98-.36 3.6-7.43 9.26-7.24-3.25-7.88-2.03 5.95-10.52c3-.42 6.51-.06 10.55 1.15l2.25 1.97 4.16-.18" fill="#C35F08"/>
<path id="Trim_Heavy-Ankle_Right" d="m56.27 217.2-.85 1.02 2.65 2.25 3.01-.13-.11 1.46-6.44 7.92-6.46-3.01-7.78-1.84-.81 1.62 8.16 2.1 7.24 3.25 7.43-9.26.36-3.6-4.16.18-2.24-1.96" fill="#5D5D5D"/>
</g></g>
<g id="Right-Toe">
<g id="Armored_Toe_Right" class="option">
<g id="Plate_Armored_Toe_Right" fill="#303030">
<path d="m50.81 233.15-9.63 5.32-7.27.49-5.83-1.47c-1.22-1.01-1.71-3.29-.66-5.55l8.21-3.88 6.44 1.61 8.74 3.48"/>
<path d="M42.74 229.95s-7.51 2.19-8.45 3.48c-1.04 1.44-.39 5.53-.39 5.53"/>
</g>
<g id="Trim_Armored_Toe_Right" fill="#525252">
<path d="m36.75 227.42 7.73 1.86 6.52 3.94-1.35.74-6.91-4.02-7.7-1.8 1.71-.72"/>
<path d="m44.48 229.29-1.74.66"/>
</g>
</g></g>
</g>
<g id="FootDecals" mask="url(#FootMask)"/>
<g id="Knees">
<g id="Left-Knee">
<g id="None-(Nih-Plates)_Knee_Left" class="option"/></g>
<g id="Right-Knee">
<g id="None-(Nih-Plates)_Knee_Right" class="option"/></g>
</g>
<g id="KneesDecals" mask="url(#KneesMask)"/>
<g id="Thighs">
<g id="Left-Thigh"><g id="Basic_Thigh_Left" class="option">
<path id="Thigh_Basic-Thigh_Left" d="M120.21 115.6s-5.03-6.43-7.59-7.49a8.12 8.12 0 0 0-7.78 1.09c-3.19 2.54-10.51 8.04-11.35 14.16-.93 6.83 4.08 21.95 5.78 26.84.58 1.66 2.77 2.41 4.44 2.48 3.1.12 11.57-.15 13.59-4.69 2.75-6.18 2.91-32.39 2.91-32.39" fill="#5D5D5D"/>
<path id="Trauma-Plate_Basic-Thigh_Left" class="toggle" style="" d="M118.5 116.19c-.75-.93-2.56-3.1-4.3-4.77a9.07 9.07 0 0 0-2.25-1.75 6.31 6.31 0 0 0-6.06.85c-1.85 1.47-5.15 3.97-7.66 7.02-1.52 1.85-2.77 3.9-3.07 6.05-.9 6.64 4.05 21.31 5.7 26.06.14.42.54.67.95.87.61.3 1.33.45 1.94.47 1.73.07 5.27.02 8.23-.96 1.63-.54 3.12-1.33 3.75-2.73.78-1.75 1.3-5.22 1.7-9.2.88-8.51 1.04-19.29 1.07-21.91" fill="#C35F08"/>
<g id="Ridge_Basic-Thigh_Left" class="toggle" style="display:none"/>
</g>
</g>
<g id="Right-Thigh"><g id="Basic_Thigh_Right" class="option">
<path id="Thigh_Basic-Thigh_Right" d="M49.69 115.6s5.03-6.43 7.59-7.49a8.12 8.12 0 0 1 7.78 1.09c3.19 2.54 10.51 8.04 11.35 14.16.93 6.83-4.08 21.95-5.78 26.84-.58 1.66-2.77 2.41-4.44 2.48-3.1.12-11.57-.15-13.59-4.69-2.75-6.18-2.91-32.39-2.91-32.39" fill="#5D5D5D"/>
<path id="Trauma-Plate_Basic-Thigh_Right" class="toggle" style="" d="M51.39 116.19c.75-.93 2.56-3.1 4.3-4.77a9.07 9.07 0 0 1 2.25-1.75 6.31 6.31 0 0 1 6.06.85c1.85 1.47 5.15 3.97 7.66 7.02 1.52 1.85 2.77 3.9 3.07 6.05.9 6.64-4.05 21.31-5.7 26.06-.14.42-.54.67-.95.87-.61.3-1.33.45-1.94.47-1.73.07-5.27.02-8.23-.96-1.63-.54-3.12-1.33-3.75-2.73-.78-1.75-1.3-5.22-1.7-9.2a278.92 278.92 0 0 1-1.07-21.91" fill="#C35F08"/>
<g id="Ridge_Basic-Thigh_Right" class="toggle" style="display:none"/>
</g>
</g>
</g>
<g id="ThighsDecals" mask="url(#ThighsMask)"/>
<g id="Groin"><g id="Basic_Groin" class="option">
<path id="Groin-Plate_Basic" d="M78.67 122.29 68.22 99.4h33.42l-10.45 22.89-6.26 5.46-6.26-5.46z" fill="#5D5D5D"/>
<path id="Trauma-Plating_Groin" class="toggle" style="display:none" d="m79.77 120.38-8.61-18.86H98.7l-8.61 18.86-5.16 4.49-5.16-4.49z"/>
</g>
</g>
<g id="GroinDecals" mask="url(#GroinMask)"/>
<g id="Waist">
<g id="Accessories_Waist">
<g id="Kama" class="toggle" style="display:none"/>
<g id="Loin-Cloth" class="toggle" style="display:none"/>
<g id="Left-Holster" class="toggle" style=""><g id="Belt-Holster_Left" class="option">
<g id="Weapon_Belt-Holster-Left">
<g id="Main_Weapon_Belt-Holster-Left" fill="#540909">
<path d="m116.79 99.11-.24-3.6.62-.04-.15-2.26-.62.04-.08-1.18c-.03-.38.46-.73 1.1-.77l5.37-.36c.63-.04 1.17.23 1.19.62l.08 1.18-.62.04.15 2.26.62-.04.24 3.6-1.46.1.67 9.95-4.73.31-.67-9.95-1.47.1z"/>
<path d="m123.79 98.11-.84.06.8 11.96-4.73.31-.8-11.96-.84.06-.18-2.73 6.41-.42.18 2.72zm-1.74-6.33-3.8.25.25 3.69 3.8-.25-.25-3.69z"/>
<path d="m119.38 99.49-.62.04.63 9.4.62-.04-.63-9.4zm1.44-2.26-.62.04.63 9.4.62-.04-.63-9.4zm1.74 2.05-.62.04.63 9.4.62-.04-.63-9.4z"/>
</g>
<g id="Accent_Weapon_Belt-Holster-Left" fill="#ADADAD">
<path d="m119.09 96.06.03.38 2.68-.18-.03-.38-2.68.18z"/>
<path d="m119.11 96.44.03.38 2.68-.18-.03-.38-2.68.18zm-.05-.76.02.38 2.68-.18-.03-.38-2.67.18zm-.31-4.63.03.38 2.68-.18-.03-.38-2.68.18z"/>
<path d="m118.88 91.99-.62.04.25 3.69.62-.04-.25-3.69zm3.17-.21-.62.04.25 3.69.62-.04-.25-3.69zm-.12 7.54-.94.06.63 9.4.94-.06-.63-9.4zm-1.6.1-.94.06.63 9.4.94-.06-.63-9.4z"/>
</g>
</g>
<path id="Holster_Belt-Holster-Left" d="m118.4 112.89-2.47-14.99 8.29 10.56.79 20.68c-1.44 1.89-3.04 2.08-4.84.36l-1.77-16.61z" fill="#797576"/>
</g>
</g>
<g id="Right-Holster" class="toggle" style="">
<g id="Thigh-Plate-Holster_Right" class="option">
<g id="Weapon_Thigh-Plate-Holster-Right">
<g id="Main_Weapon_Thigh-Plate-Holster-Right" fill="#540909">
<path d="m52.93 113.88-.24-3.6-.62.04-.15-2.26.62-.04-.08-1.18c-.03-.38-.56-.66-1.19-.62l-5.37.35c-.63.04-1.12.39-1.1.77l.08 1.18.62-.04.15 2.26-.62.04.24 3.6 1.46-.09.65 9.95 4.73-.31-.65-9.95 1.47-.1z"/>
<path d="m45.85 113.81.84-.06.79 11.96 4.73-.31-.79-11.96.84-.05-.18-2.73-6.42.42.19 2.73z"/>
<path d="m46.74 107.31 3.8-.25.24 3.69-3.8.25-.24-3.69zm3.67 7.29.62-.04.62 9.4-.62.04-.62-9.4zm-1.73-2.05.62-.04.87 13.21-.62.04-.87-13.21zm-1.45 2.25.62-.04.69 10.44-.62.04-.69-10.44z"/>
</g>
<g id="Accent_Weapon_Thigh-Plate-Holster-Right" fill="#ADADAD">
<path d="m49.44 114.66.97-.06.62 9.4-.97.06-.62-9.4zm-1.59.1.97-.06.69 10.44-.97.06-.69-10.44zm2.07-7.66.62-.04.24 3.69-.62.04-.24-3.69zm-3.18.21.62-.04.24 3.69-.62.04-.24-3.69zm3.51 3.86.03.38-2.68.17-.02-.38 2.67-.17z"/>
<path d="m50.27 111.54.03.38-2.68.17-.03-.38 2.68-.17zm-.05-.75.02.38-2.68.17-.03-.38 2.69-.17zm-.3-4.64.03.38-2.68.17-.02-.38 2.67-.17z"/>
</g>
</g>
<path id="Holster_Thigh-Plate-Holster-Right" d="m46.48 125.08 3.36-.23 1.88-6.79 1.02-.07 2.06 30.17a6.73 6.73 0 0 1-7.17-6.26l-1.15-16.82z" fill="#797575"/>
</g></g>
<g id="Left-Trophy" class="toggle" style="display:none"/>
<g id="Right-Trophy" class="toggle" style="display:none"/>
</g>
<g id="Under-Belt"><g id="Girth-Belt" class="option" fill="#595656">
<path d="M84.93 84.93c-9.33 0-27.98-2.25-27.98-2.25l.61-1.91 27.37 2.25 27.37-2.25.6 1.91c.01 0-18.65 2.25-27.97 2.25z"/>
<path d="M84.93 86.84c-9.52 0-28.56-2.25-28.56-2.25l.58-1.91 27.98 2.25 27.98-2.25.58 1.91s-19.04 2.25-28.56 2.25z"/>
<path d="M84.93 88.75c-9.67 0-28.99-2.25-28.99-2.25l.43-1.91 28.56 2.25 28.56-2.25.43 1.91c0-.01-19.32 2.25-28.99 2.25z"/>
<path d="M84.93 90.65c-9.79 0-29.36-2.25-29.36-2.25l.37-1.91 28.99 2.25 28.99-2.25.37 1.91s-19.57 2.25-29.36 2.25z"/>
<path d="M84.93 92.56c-9.9 0-29.69-2.25-29.69-2.25l.33-1.91 29.36 2.25 29.36-2.25.33 1.91s-19.79 2.25-29.69 2.25z"/>
<path d="M84.93 94.47c-10 0-30-2.25-30-2.25l.31-1.91 29.69 2.25 29.69-2.25.31 1.91c0-.01-20 2.25-30 2.25z"/>
<path d="M84.93 96.37c-10.1 0-30.31-2.25-30.31-2.25l.31-1.91 30 2.25 30-2.25.31 1.91s-20.21 2.25-30.31 2.25z"/>
<path d="M84.93 98.28c-10.21 0-30.62-2.25-30.62-2.25l.32-1.91 30.31 2.25 30.31-2.25.32 1.91c-.02 0-20.43 2.25-30.64 2.25z"/>
<path d="M84.93 100.19c-10.32 0-30.97-2.25-30.97-2.25l.34-1.91 30.62 2.25 30.62-2.25.35 1.91c.01-.01-20.64 2.25-30.96 2.25z"/>
<path d="M84.93 102.09c-10.45 0-31.36-2.25-31.36-2.25l.39-1.91 30.97 2.25 30.97-2.25.39 1.91s-20.91 2.25-31.36 2.25z"/>
</g>
</g>
<g id="Belt"><g id="Pouch-Belt-4" class="option">
<path id="Main_Pouch-Belt-4" d="M115.21 92.95c-6.82.61-22.4 2.83-30.27 2.83-7.94 0-23.52-2.23-30.26-2.82l1.01-7.93c5.53.49 21.56 2.74 29.26 2.74 7.47 0 23.17-2.23 29.07-2.76l1.19 7.94z" fill="#443D3D"/>
<path id="Buckle_Pouch-Belt-4" d="M79.37 87.01h11.28v9.21H79.37z" fill="#6B6A6A"/>
<g id="Pouches_Pouch-Belt-4" fill="#594330">
<path d="M59.65 83.47c-.31-.02-.62.03-.91.16l-1.86.81 7.38.42 2-.95-6.61-.44z"/>
<path d="M66.52 84.19a.23.23 0 0 0-.1-.22.23.23 0 0 0-.24-.02l-1.91.9-1.02 12.42a6.9 6.9 0 0 1 1.93-.85.9.9 0 0 0 .69-.84c.12-3.8.28-7.6.65-11.39z"/>
<path d="m64.26 84.85-7.38-.42c-.06 1.89-.23 3.77-.33 5.65-.11 2.08-.16 4.17-.34 6.28-.01.15.04.3.14.41s.25.18.4.17c2.08-.01 4.15.11 6.22.36a.5.5 0 0 0 .4-.12.54.54 0 0 0 .19-.37l.37-5.33.33-6.63z"/>
<path d="m64.26 84.85-7.38-.42-.36 3.15a2.75 2.75 0 0 0 2.59 3.05l2.23.13a2.8 2.8 0 0 0 2.06-.75c.55-.52.87-1.25.86-2v-3.16z"/>
<path d="M60.31 89.23c.26.01.46.26.44.54-.02.28-.24.5-.5.49-.26-.01-.46-.26-.44-.54.02-.28.24-.5.5-.49zm-8.09-4.94.55-.85 2.83.09.35 1.06-3.73-.3z"/>
<path d="M55.93 84.69a.2.2 0 0 0-.06-.18.23.23 0 0 0-.17-.08l-3.48-.13-.5 11.17c.11.28 1.53.46 2.68.49a.9.9 0 0 0 .92-.88c.08-3.47.21-6.94.61-10.39zm54.31-1.22c.31-.02.62.03.91.16l1.86.81-7.38.42-2-.95 6.61-.44z"/>
<path d="M103.37 84.19a.23.23 0 0 1 .1-.22.23.23 0 0 1 .24-.02l1.91.9 1.02 12.42a6.9 6.9 0 0 0-1.93-.85.9.9 0 0 1-.69-.84c-.12-3.8-.28-7.6-.65-11.39z"/>
<path d="m105.63 84.85 7.38-.42c.06 1.89.23 3.77.33 5.65.11 2.08.16 4.17.34 6.28.01.15-.04.3-.14.41a.5.5 0 0 1-.4.17c-2.08-.01-4.15.11-6.22.36a.5.5 0 0 1-.4-.12.54.54 0 0 1-.19-.37l-.37-5.33-.33-6.63z"/>
<path d="m105.63 84.85 7.38-.42.36 3.15a2.75 2.75 0 0 1-2.59 3.05l-2.23.13a2.8 2.8 0 0 1-2.06-.75 2.72 2.72 0 0 1-.86-2v-3.16z"/>
<path d="M109.58 89.23c-.26.01-.46.26-.44.54.02.28.24.5.5.49.26-.01.46-.26.44-.54-.01-.28-.24-.5-.5-.49zm8.09-4.94-.55-.85-2.83.09-.35 1.06 3.73-.3z"/>
<path d="M113.96 84.69a.2.2 0 0 1 .06-.18.23.23 0 0 1 .18-.08l3.48-.13.5 11.17c-.11.28-1.53.46-2.68.49a.9.9 0 0 1-.92-.88 116.3 116.3 0 0 0-.62-10.39z"/>
</g>
</g></g>
</g>
<g id="WaistDecals" mask="url(#WaistMask)"/>
<g id="Extras_Front">
<g id="Front"><g id="None_Front" class="option"/>
</g>
</g>
<g id="Extras-FrontDecals" mask="url(#FrontMask)"/>
</g>
</svg>