<?xml version='1.0' encoding='UTF-8'?>
<svg version="1.1" id="Male-Body" xmlns="http://www.w3.org/2000/svg" xmlns:serif="http://www.serif.com/" viewBox="0 -55 170 310" style="stroke-width: 0.2px; fill-rule: evenodd; stroke-linejoin: round;" width="510" height="930">
<style>
mask {
mask-type: alpha;
}
.decal {
stroke: none;
}
</style>
<defs id="Masks" stroke="none">
<mask id="HelmetsMask"> <use href="#Helmets"/> </mask>
<mask id="CollarMask"> <use href="#Collar"/> </mask>
<mask id="ShouldersMask"> <use href="#Shoulders"/> </mask>
<mask id="ChestMask"> <use href="#Chest"/> </mask>
<mask id="BicepsMask"> <use href="#Biceps"/> </mask>
<mask id="GauntletsMask"> <use href="#Gauntlets"/> </mask>
<mask id="WaistMask"> <use href="#Waist"/> </mask>
<mask id="GroinMask"> <use href="#Groin"/> </mask>
<mask id="ThighsMask"> <use href="#Thighs"/> </mask>
<mask id="KneesMask"> <use href="#Knees"/> </mask>
<mask id="ShinsMask"> <use href="#Shins"/> </mask>
<mask id="FootMask"> <use href="#Foot"/> </mask>
</defs>
<defs id="Decals"/><metadata><rdf:rdf xmlns:rdf="http://www.w3.org/1999/02/22-rdf-syntax-ns#" xmlns:rdfs="http://www.w3.org/2000/01/rdf-schema#" xmlns:dc="http://purl.org/dc/elements/1.1/"><rdf:description><dc:creator>MandoCreator</dc:creator><dc:publisher>https://www.mandocreator.com</dc:publisher><dc:description>Your Beskar'gam - created by MandoCreator</dc:description><dc:format>image/svg+xml</dc:format><dc:type>Image</dc:type><dc:title>MandoCreator - Ner Berskar'gam</dc:title><dc:date>2022-03-14T14:41:00.624Z</dc:date></rdf:description></rdf:rdf></metadata><g id="Main-Body" fill="white" stroke="black">
<g id="Extras_Back">
<g id="Back"><g id="NO-CAPES_Back" class="option"/>
</g>
</g>
<g id="Extras-BackDecals" mask="url(#BackMask)"/>
<g id="Suit">
<g id="Neck-Seal"><g id="Standard-Neck-Seal" class="option" fill="#37424C">
<path d="M98.75 7.5c0-.9-.93-1.62-2.07-1.62 0 0-7.8.85-11.7.85s-11.7-.85-11.7-.85c-1.14 0-2.07.73-2.07 1.62s.93 1.62 2.07 1.62c0 0 7.8.85 11.7.85s11.7-.85 11.7-.85c1.15.01 2.07-.72 2.07-1.62z"/>
<path d="M99.45 9.4c0-.94-.97-1.71-2.17-1.71 0 0-8.2.9-12.29.9s-12.3-.89-12.3-.89c-1.2 0-2.17.76-2.17 1.71s.97 1.71 2.17 1.71c0 0 8.2.9 12.29.9s12.29-.9 12.29-.9c1.21-.01 2.18-.78 2.18-1.72z"/>
<path d="M100.24 11.76c0-.99-1.03-1.8-2.29-1.8 0 0-8.64.95-12.96.95s-12.97-.95-12.97-.95c-1.26 0-2.29.81-2.29 1.8s1.03 1.8 2.29 1.8c0 0 8.64.95 12.97.95s12.96-.95 12.96-.95c1.26 0 2.29-.81 2.29-1.8z"/>
<path d="M101 13.92c0-1.04-1.08-1.89-2.41-1.89 0 0-9.08.99-13.61.99s-13.61-.99-13.61-.99c-1.33 0-2.41.85-2.41 1.89s1.08 1.89 2.41 1.89c0 0 9.08.99 13.61.99s13.61-.99 13.61-.99c1.34 0 2.41-.85 2.41-1.89z"/>
<path d="M101.76 16.04c0-.79-1.13-1.43-2.52-1.43 0 0-9.51.75-14.26.75s-14.26-.75-14.26-.75c-1.39 0-2.52.64-2.52 1.43 0 .79 1.13 1.43 2.52 1.43 0 0 9.51.75 14.26.75s14.26-.75 14.26-.75c1.39 0 2.52-.64 2.52-1.43z"/>
<path d="M101.76 18.42c0-.79-1.13-1.43-2.52-1.43 0 0-9.51.75-14.26.75s-14.26-.75-14.26-.75c-1.39 0-2.52.64-2.52 1.43 0 .79 1.13 1.43 2.52 1.43 0 0 9.51 1.44 14.26 1.44s14.26-1.44 14.26-1.44c1.39-.01 2.52-.64 2.52-1.43z"/>
</g>
</g>
<path id="Flight-Suit" d="m73.36 158.45-1.49 8.72-11.03 53.11s-4.93 2.96-7.47 3.46c-2.53.5-7.73-.44-7.73-.44l3.85-43 2.9-18.36.66-7.82s-2.53-22.78-1.7-34.14c.82-11.36 6.66-34.01 6.66-34.01l26.98.58 26.97-.58s5.83 22.66 6.66 34.01c.83 11.36-1.7 34.14-1.7 34.14l.66 7.82 2.9 18.36 3.85 43s-5.32 1.19-7.85.69c-2.53-.5-7.34-3.71-7.34-3.71L98.1 167.16l-1.49-8.72-11.62-30.33-11.63 30.34zm56.05-115.12 11.98 41.65 1.04 21.47-9.55 1.83-6.05-20.21-13.65-33.95.69-15.55 2.31-3.72 13.23 8.48zm-88.82-.03 13.19-8.45 2.31 3.72.52 16.04-13.44 33.46-6.05 20.21-9.55-1.83 1.03-21.47L40.59 43.3z" fill="#37424C"/>
<g id="Sleeves" class="toggle" style="display: none;"/>
</g>
<g id="Boots"><g id="Basic_Boots" class="option">
<path id="Main_Basic-Boot" d="M109.1 216.81c1.46.01 3.24.93 4.53 1.15 1.38.23 2.88.21 4.34.07l.59-.06h.02l.07-.01.19-.03.3-.04.12-.02 1.01-.16.53-.1.11-.03.04-.01.08-.02.36-.09.32-.09.05-.01c1.12-.3 2.24-.66 2.24-.66.33 1.45.5 3.11 1.12 4.46.99 2.13.95 3.05 2.61 4.66 1.14 1.1 4.08 3.05 5.44 3.89.57.36 1.19.63 1.81.86l.06.02c2.5.93 5.2 1.28 6.56 4.03.3.6.55 1.32.5 2-.06.87-1.02.99-1.76 1.2-1.84.52-3.43.92-5.56 1.39a28 28 0 0 1-7.1.81c-1.84-.05-3.41-.13-5.03-1.1-.65-.39-1.32-.79-1.89-1.3-1.27-1.15-2.09-2.36-3.71-3.04-1.18-.5-2.39-.91-3.63-1.2-1.76-.42-4.34-1-5.28-2.74-.37-1.3.01-1.94.13-3.06l.06-.48c.1-.73.23-1.48.26-2.26.08-1.51-.3-3.01-.4-4.51-.06-.85-.1-1.71-.11-2.56 0-.14-.08-.75.06-.8.19-.08.4-.12.62-.14l.34-.02zm-48.17 0c-1.46.01-3.24.93-4.53 1.15-1.38.23-2.88.21-4.34.07l-.59-.06h-.02l-.07-.01-.19-.03-.3-.04-.12-.02-1.01-.16-.53-.1-.11-.03-.04-.01-.08-.02-.36-.09-.32-.09-.05-.01c-1.12-.3-2.24-.66-2.24-.66-.33 1.45-.5 3.11-1.12 4.46-.99 2.13-.95 3.05-2.6 4.66-1.14 1.1-4.08 3.05-5.44 3.89-.57.36-1.19.63-1.81.86l-.06.02c-2.5.93-5.2 1.28-6.56 4.03-.3.6-.55 1.32-.5 2 .06.87 1.02.99 1.76 1.2 1.84.52 3.43.92 5.56 1.39a28 28 0 0 0 7.1.81c1.84-.05 3.41-.13 5.03-1.1.65-.39 1.32-.79 1.89-1.3 1.27-1.15 2.09-2.36 3.72-3.04 1.18-.5 2.39-.91 3.63-1.2 1.76-.42 4.33-1 5.28-2.74.37-1.3-.01-1.94-.13-3.06l-.06-.48c-.1-.73-.23-1.48-.26-2.26-.08-1.51.3-3.01.4-4.51.06-.85.1-1.71.11-2.56 0-.14.08-.75-.06-.8-.19-.08-.4-.12-.62-.14l-.36-.02z" fill="#303030"/>
<path id="Bottom_Basic-Boot" d="M108.15 230.64a4.54 4.54 0 0 0 2.33 1.86c.89.45 1.95.64 2.96.88l.41.1.6.16.18.05.1.03.19.06.08.03.33.11.12.04.06.02.5.18.11.04.45.17.12.05.27.11.12.05c.27.11.51.24.74.38l.03.02.05.03.21.14.05.03.04.03.2.15.06.04.09.07c.28.23.54.47.8.73l.07.07.42.43.45.45.48.46.06.05.15.13.03.02.25.2.17.13.03.02.22.15.09.06.33.21.23.14.09.06.25.15.11.07.08.04.08.04.34.17.16.07.05.02c.34.15.68.26 1.02.35l.06.01.08.02.07.02.21.04.16.03.13.02.04.01.11.02.18.02.26.03a13.2 13.2 0 0 0 .72.06l.36.02h.11l.7.02.46.01h.63l.83-.03.12-.01.11-.01.1-.01 1.21-.11.11-.01.3-.04.13-.02.11-.01.25-.04 1.06-.18.24-.04.1-.02.11-.02.11-.02.11-.02.08-.02.26-.05.11-.02.3-.07.26-.06h.03l1.58-.36.19-.04.42-.1.17-.04.08-.02.58-.15.35-.09 1-.26.15-.04.17-.04.06-.02.79-.22.06-.02.09-.02.28-.07.09-.03.14-.04.06-.02.11-.04.1-.03.04-.02.05-.02.03-.01.05-.02.05-.03.02-.01.05-.03.06-.04.06-.04.05-.04a1 1 0 0 0 .22-.24s.49.73.53 1.99c-1.1 1.59-4.6 2.12-9.43 2.76-4.8.64-7.76.51-9.77-.35s-5.53-4.94-8.05-5.15a18.79 18.79 0 0 1-6.72-2.26c-.64-.37-.45-3-.45-3l.06-.41zm-46.28 0a4.54 4.54 0 0 1-2.33 1.86c-.89.45-1.95.64-2.95.88l-.41.1-.6.16a1.2 1.2 0 0 1-.18.05l-.1.03-.19.06a.69.69 0 0 0-.08.03l-.33.11-.12.04-.06.02-.5.18-.11.04-.45.17-.12.05-.27.11-.12.05c-.27.11-.51.24-.74.38l-.03.02-.05.03-.21.14-.05.03-.04.03-.2.15-.06.04-.09.07c-.28.23-.54.47-.8.73l-.07.07-.42.43-.45.45-.48.46-.06.05-.15.13-.03.02-.25.2-.17.13-.03.02-.22.15-.09.06-.33.21-.23.14-.1.06-.24.15-.11.07-.08.04-.08.04-.34.17-.16.07-.05.02c-.34.15-.67.26-1.02.35l-.06.01-.08.02-.07.02-.21.04-.16.03-.13.02-.04.01-.11.02a1.1 1.1 0 0 1-.18.02l-.26.03-.07.01-.65.05-.36.02h-.1l-.7.02-.46.01h-.63l-.83-.03-.12-.01-.11-.01-.1-.01-1.21-.11-.11-.01-.3-.04-.13-.02-.11-.01-.25-.04-1.06-.18-.24-.04-.1-.02-.11-.02-.11-.02-.11-.02-.08-.02-.26-.05-.11-.02-.3-.07-.26-.06h-.03l-1.58-.36-.19-.04-.42-.1-.17-.04-.08-.02-.58-.15-.35-.09-1-.26-.15-.04-.17-.04-.06-.02-.79-.22-.06-.02-.09-.02-.28-.07-.09-.03-.15-.04-.06-.02-.11-.04-.1-.03-.04-.02-.05-.02-.03-.01-.05-.02-.05-.03-.02-.01-.05-.03-.06-.04-.06-.04-.05-.04a1 1 0 0 1-.22-.24s-.49.73-.53 1.99c1.1 1.59 4.6 2.12 9.43 2.76 4.8.64 7.76.51 9.77-.35s5.53-4.94 8.05-5.15a18.86 18.86 0 0 0 6.72-2.26c.64-.37.45-3 .45-3l-.07-.41z" fill="#373636"/>
<path id="Top_Basic-Boot" d="M122 217.29c.67 3.26 1.7 6.09 3.88 8.84 3.4 4.27 9.2 4.62 13.21 8.09 1.03.89.98 2.32 1.15 3.64-1.66.47-3.13.84-4.99 1.26-.13-1.31.1-2.78-.99-3.72-4.01-3.47-10.32-3.34-13.72-7.61-2.22-2.79-2.23-6.39-2.87-9.74l.3-.03.59-.06h.02l.07-.01.19-.03.3-.04.12-.02 1.01-.16.53-.1.11-.03.04-.01.08-.02.36-.09.32-.09.05-.01.24-.06zm-73.98 0c-.67 3.26-1.7 6.09-3.88 8.84-3.4 4.27-9.2 4.62-13.21 8.09-1.03.89-.98 2.32-1.15 3.64 1.66.47 3.13.84 4.99 1.26.13-1.31-.1-2.78.99-3.72 4.01-3.47 10.32-3.34 13.72-7.61 2.22-2.79 2.23-6.39 2.87-9.74l-.3-.03-.59-.06h-.02l-.07-.01-.19-.03-.3-.04-.12-.02-1.01-.16-.53-.1-.11-.03-.04-.01-.08-.02-.36-.09-.32-.09-.05-.01-.24-.06z" fill="#423F3F"/>
<path id="Side_Basic-Boot" d="M109.49 216.83c1.38.15 2.96.92 4.14 1.12l.19.03c.02.41.01.82.02 1.18.05 2.04-.21 10.76-.61 10.75-.4-.02-1.58-.23-1.88-.55-.2-.21-.24-.71-.3-.98-.21-.87-.4-1.73-.53-2.61a42.83 42.83 0 0 1-.4-3.55c-.14-1.8-.42-3.6-.63-5.39zm-48.96 0c-1.38.15-2.96.92-4.14 1.12l-.19.03c-.02.41-.01.82-.02 1.18-.05 2.04.21 10.76.61 10.75.4-.02 1.58-.23 1.88-.55.2-.21.24-.71.3-.98.21-.87.4-1.73.53-2.61.18-1.19.32-2.36.4-3.55.15-1.8.42-3.6.63-5.39z" fill="#272727"/>
</g>
</g>
<g id="Gloves">
<g id="Left-Glove"><g id="Basic_Left_Glove" class="option" fill="#5D5D5D">
<path d="M138.6 124.11a5.98 5.98 0 0 0-1.58.1c-.36.08-.72.16-1.04.35-.99.57-.72 1.81.16 2.28 1.03.55 2.66.01 3.13-1.05.19-.44-.41-1.26-.67-1.68"/>
<path d="M136.79 125.19a5.68 5.68 0 0 0-1.59.1c-.36.08-.72.16-1.04.35-.99.57-.72 1.81.16 2.28 1.03.55 2.66.01 3.13-1.05.2-.44-.4-1.26-.66-1.68"/>
<path d="M135.49 126.65a7.5 7.5 0 0 0-1.7.31c-.35.12-.69.26-.99.48-.9.7-.47 1.89.47 2.24 1.1.41 2.64-.35 2.96-1.46.13-.46-.74-1.57-.74-1.57z"/>
<path d="M132.55 110.05s-1.56 2.15-1.97 3.69c-.29 1.09-.13 3.68-.49 5.43-.36 1.74-.69 2.71-.69 2.71s-1.38 2.79-1.14 3.43c.24.64 1.45 1.21 2.15.87.86-.42 1.93-2.39 2.61-3.77.69-1.41 1.25-3.41 1.25-3.41s.95.32 1.43.7c1.61 1.24.91 4.96.91 4.96s-.66 1.33-1.66 2.83c-1.36 2.05-3.46 3.81-2.07 5.37 1.29 1.46 4.22-2.37 4.22-2.37l2.87-3.73s3.3-5.41 3.47-6.46c.13-.8.02-3.47.02-3.47l-1.03-10.37-5.24.44-4.31 1.39-.33 1.76"/>
</g>
</g>
<g id="Right-Glove"><g id="Basic_Right_Glove" class="option" fill="#5D5D5D">
<path d="M31.4 124.11a5.98 5.98 0 0 1 1.58.1c.36.08.72.16 1.04.35.99.57.72 1.81-.16 2.28-1.03.55-2.66.01-3.13-1.05-.2-.44.41-1.26.67-1.68"/>
<path d="M33.21 125.19a5.59 5.59 0 0 1 2.62.45c.99.57.72 1.81-.16 2.28-1.03.55-2.66.01-3.13-1.05-.19-.44.41-1.26.67-1.68"/>
<path d="M34.51 126.65a7.5 7.5 0 0 1 1.7.31c.35.12.69.26.99.48.9.7.47 1.89-.47 2.24-1.1.41-2.64-.35-2.96-1.46-.13-.46.74-1.57.74-1.57z"/>
<path d="M37.45 110.05s1.56 2.15 1.97 3.69c.29 1.09.13 3.68.49 5.43.36 1.74.69 2.71.69 2.71s1.38 2.79 1.14 3.43c-.24.64-1.45 1.21-2.15.87-.86-.42-1.93-2.39-2.61-3.77-.69-1.41-1.25-3.41-1.25-3.41s-.95.32-1.43.7c-1.61 1.24-.91 4.96-.91 4.96s.66 1.33 1.66 2.83c1.36 2.05 3.46 3.81 2.08 5.37-1.29 1.46-4.22-2.37-4.22-2.37l-2.87-3.73s-3.3-5.41-3.47-6.46c-.13-.8-.02-3.47-.02-3.47l1.03-10.37 5.24.44 4.31 1.39.32 1.76"/>
</g>
</g>
</g>
<g id="Biceps">
<g id="Left-Biceps">
<g id="None_Biceps_Left" class="option"/></g>
<g id="Right-Biceps">
<g id="None_Biceps_Right" class="option"/></g>
</g>
<g id="BicepsDecals" mask="url(#BicepsMask)"/>
<path id="Vest" d="M85 20.92c8.5-.01 15.43-4.3 15.63-8.01l.15.02 18.38 5.42 13.31 23.94-2.86 1.16-13.42-8.6-2.31 3.72-1.54 47.4s-8.72 4.71-13.53 5.35c-3.44.45-8.63.68-13.79.67-5.16.01-10.35-.22-13.79-.67-4.81-.63-13.53-5.35-13.53-5.35l-1.54-47.4-2.31-3.72-13.42 8.6-2.86-1.16 13.31-23.94 18.38-5.42.15-.02c.16 3.71 7.09 8.01 15.59 8.01" fill="#242424"/>
<g id="SuitDecals" mask="url(#SuitMask)"/>
<g class="swappable" id="Chest"><g id="Chest_Galaxy">
<g id="Abdomen_Galaxy">
<path id="Abdomen-Plate_Galaxy" d="m78.03 73.41-2.08 1.5-10.56-1.5-.77-5.8 5-.1 3.03-4.92 1.37-4.53 10.95-9.96.03.01.02-.02 10.95 9.96 1.37 4.53 3.03 4.92 5 .1-.77 5.8-10.56 1.5-2.08-1.5H78.03z" fill="#4C6D8B"/>
<path id="Trauma-Plate_Abdomen_Galaxy" class="toggle" style="display:none" d="m84.98 50.38-9.46 8.61-1.3 4.29-3.63 5.89-4.03.08.35 2.66 8.6 1.22 1.97-1.42h15.04l1.97 1.42 8.6-1.22.35-2.66-4.03-.08-3.63-5.89-1.3-4.29-9.46-8.61-.02.02-.02-.02z"/>
</g>
<g id="Full-Chest_Galaxy">
<path id="Chest-Plate_Galaxy" d="m80.61 33.64-.02 10.15 3.21 3.22L72.55 57.6l-1.46 4.89-2.38 3.9h-4.12l-2-2.9-2.55-14.21-3.73-5.81 4.73-15.2 5.46-.69.77-3.36 5.84-.71 1.85 3h20.1l1.85-3 5.84.71.77 3.36 5.46.69 4.73 15.2-3.73 5.81-2.55 14.21-2 2.9h-4.12l-2.38-3.9-1.46-4.89L86.22 47l3.21-3.22-.02-10.15L85 30.24l-4.39 3.4z" fill="#4C6D8B"/>
<path id="Trauma-Plating_Left-Chest_Galaxy" class="toggle" style="display:none" d="M96 28.19H85.12l5.97 4.62.02 11.67-2.48 2.49 10.31 9.72 1.53 5.11 1.77 2.9h2.27l1.29-1.87 2.54-14.19 3.49-5.43-4.17-13.42-5.55-.7-.77-3.36-3.57-.43L96 28.19z"/>
<path id="Trauma-Plating_Right-Chest_Galaxy" class="toggle" style="display:none" d="m72.23 25.31-3.57.43-.77 3.36-5.55.7-4.17 13.42 3.49 5.43 2.54 14.19 1.29 1.87h2.27l1.77-2.9 1.53-5.11 10.31-9.72-2.48-2.49.02-11.67 5.97-4.62H74l-1.77-2.89z"/>
<path id="Accents_Chest-Plate_Galaxy" class="toggle" d="M96.12 31.44h9.25v1.22h-9.25zm0 2.16h9.25v1.22h-9.25z" fill="#2C7736"/>
</g>
<g id="Iron-Heart_Galaxy">
<path id="Heart_Galaxy" d="M82.3 43.49v-9.13l2.7-2.1 2.7 2.1v9.13L85 46.2l-2.7-2.71z" fill="#FFFFFF"/><path id="Center_Heart_Galaxy" class="option" d="M84.07 35.76h1.87v6.25h-1.87z" fill="#FFFFFF"/>
</g>
<g id="Neck-Armor_Galaxy">
<path id="Neck-Plate_Galaxy" d="m82.75 25.51-7.39.12-1.82-2.97-7.05.84-.7 3.07-4.52.56-3.33-11.42 11.55-3.44s1.53 2.58 2.64 3.49c1.14.93 2.66 2.02 4.08 2.64a22.56 22.56 0 0 0 5.86 1.5l.68 5.61zm4.5 0 7.39.12 1.82-2.97 7.05.84.7 3.07 4.52.56 3.33-11.42-11.55-3.44s-1.53 2.58-2.64 3.49a19.16 19.16 0 0 1-4.08 2.64 22.56 22.56 0 0 1-5.27 1.42l-.59.08-.68 5.61z" fill="#4C6D8B"/>
<path id="Trauma-Plates_Neck_Galaxy" class="toggle" style="display:none" d="M101.25 14.25a14.9 14.9 0 0 1-2.3 2.81 20.96 20.96 0 0 1-4.48 2.89 23.34 23.34 0 0 1-5.01 1.43l-.3 2.48 4.53.07 1.88-3.07 9.32 1.1.7 3.08 1.9.23 2.46-8.43-8.7-2.59zm-32.5 0-8.72 2.6 2.46 8.43 1.9-.23.7-3.08 9.32-1.1 1.88 3.07 4.53-.07-.3-2.48a23.5 23.5 0 0 1-5.01-1.43 20.72 20.72 0 0 1-4.48-2.89 16.49 16.49 0 0 1-2.28-2.82z"/>
</g>
</g></g>
<g id="ChestDecals" mask="url(#ChestMask)"/>
<g id="Chest-Attachments">
<g id="Pilot-Box_Accessories_Chest" class="option">
<g id="Main_Pilot-Box_Accessories_Chest" fill="#898989">
<path d="M75.59 28.49h4.65v7.46h-4.65zm-2.83 12.83h24.5v.83h-24.5z"/>
<path d="M97.26 26.65c0-.26-.1-.51-.29-.69a.99.99 0 0 0-.69-.29H73.74c-.26 0-.51.1-.69.29a.99.99 0 0 0-.29.69v14.67h24.5V26.65zm0 15.5h-24.5l1.51 2.23h21.49l1.5-2.23z"/>
<path d="M74.65 44.1h8.02v7.69h-8.02zm-1.86 1.53h1.86v4.63h-1.86zm22.56 0h1.86v4.63h-1.86z"/>
<path d="M87.37 44.1h8.01v7.69h-8.01zm-4.7 0h1.07v7.69h-1.07zm3.63 0h1.07v7.69H86.3z"/>
</g>
<path id="Parts-2_Pilot-Box_Accessories_Chest" d="M70.94 45.83h1.86v4.22h-1.86zm26.27 0h1.86v4.22h-1.86zm-13.47-1.95h2.55v8.13h-2.55zm5.3-16.33H74.65v9.33h14.39v-9.33zm-8.79.94H75.6v7.46h4.65v-7.46z" fill="#6D6D6D"/>
<g id="Parts-1_Pilot-Box_Accessories_Chest" fill="#7B7B7B">
<ellipse cx="77.92" cy="30.56" rx="1.14" ry="1.13"/>
<ellipse cx="77.92" cy="33.83" rx="1.14" ry="1.13"/>
<path d="m70.94 46.29-4.35.08c-.62 0-1.08-.02-1.32-.32-.16-.2-.18-.48-.19-.81-.02-.62.1-1.36.29-2.2 1.16-5.05 4.88-13.12 5.32-21.94.32-6.47-1.72-16.7-1.72-16.7a1.64 1.64 0 0 0-3.22.64s1.97 9.74 1.66 15.9c-.3 5.94-2.17 11.52-3.64 16-1.06 3.25-1.91 5.97-1.97 7.91-.05 1.5.34 2.65 1.1 3.45.74.78 1.91 1.32 3.72 1.32l4.32-.08v-3.25z"/>
<path d="m66.77 11.19 3.26-.27m-3.55-1.68 3.27-.29m-2.7 4.52 3.26-.27m-3.02 2.73 3.26-.27m-3.1 2.7 3.26-.27m-3.26 2.24 3.26.05m-3.39 1.9 3.25.45m-3.49 1.56 3.22.6m-3.56 1.48 3.15.92m-3.63 1.29 3.15.88m-3.63 1 3.17.78m-3.76 1.28 3.2.67m-3.79 1.22 3.15.85m-3.76 1.05 3.12.96m-3.84 1.23 3.16.84m-3.81 1.29 3.14.9m-3.72 1.43 3.33.09m-3.56 2.47 3.32-1.17m-2.51 3.64 2.47-2.46m-.39 3.85.67-3.23m1.57 3.48.06-3.26m2.05 3.22v-3.26"/>
<path d="m99.06 46.29 4.35.08c.62 0 1.08-.02 1.32-.32.16-.2.18-.48.19-.81.02-.62-.1-1.36-.29-2.2-1.16-5.05-4.88-13.12-5.32-21.94-.32-6.47 1.72-16.7 1.72-16.7a1.64 1.64 0 0 1 3.22.64s-1.97 9.74-1.66 15.9c.3 5.94 2.17 11.52 3.64 16 1.07 3.25 1.91 5.97 1.97 7.91.05 1.5-.34 2.65-1.1 3.45-.74.78-1.91 1.32-3.72 1.32l-4.32-.08v-3.25z"/>
<path d="m103.23 11.19-3.26-.27m3.55-1.68-3.27-.29m2.7 4.52-3.26-.27m3.02 2.73-3.26-.27m3.1 2.7-3.26-.27m3.26 2.24-3.26.05m3.39 1.9-3.25.45m3.49 1.56-3.22.6m3.56 1.48-3.15.92m3.63 1.29-3.15.88m3.63 1-3.17.78m3.76 1.28-3.2.67m3.79 1.22-3.15.85m3.76 1.05-3.12.96m3.84 1.23-3.16.84m3.81 1.29-3.14.9m3.72 1.43-3.33.09m3.56 2.47-3.32-1.17m2.51 3.64-2.47-2.46m.39 3.85-.67-3.23m-1.57 3.48-.06-3.26m-2.05 3.22v-3.26"/>
<path d="M80.99 47.2h2.22v1.48h-2.22zm5.8 0h2.22v1.48h-2.22z"/>
<path d="M70.28 4.22c0-.62-.51-1.13-1.13-1.13h-2.56c-.62 0-1.13.5-1.13 1.13v2.25c0 .62.51 1.12 1.13 1.12h2.56c.62 0 1.13-.5 1.13-1.12V4.22z"/>
<path d="M66.59 3.1h.35v4.5h-.35zm33.13 1.12c0-.62.51-1.13 1.13-1.13h2.56c.62 0 1.13.5 1.13 1.13v2.25c0 .62-.51 1.12-1.13 1.12h-2.56c-.62 0-1.13-.5-1.13-1.12V4.22z"/>
<path d="M103.07 3.1h.35v4.5h-.35z"/>
</g>
<g id="Buttons-2_Pilot-Box_Accessories_Chest" fill="#D30000">
<circle cx="80.78" cy="38.97" r=".56"/>
<path d="M92.25 33.19h1.51v3.69h-1.51zm-9.39-4.7h5.24v1.17h-5.24zm3.09 1.45h2.14v1.17h-2.14z"/>
<circle cx="84.79" cy="38.97" r=".56"/>
</g>
<g id="Buttons-1_Pilot-Box_Accessories_Chest" fill="#08CB33">
<path d="M92.25 27.55h1.51v3.69h-1.51zm-9.39 2.39H85v1.17h-2.14z"/>
<circle cx="78.89" cy="38.97" r=".56"/>
<circle cx="82.71" cy="38.97" r=".56"/>
</g>
</g></g>
<g id="Collar"><g id="None_Collar" class="option"/>
</g>
<g id="CollarDecals" mask="url(#CollarMask)"/>
<g id="Helmets" class="swappable" transform="translate(45,-62)"><g id="Helmet_Guardian">
<g id="Left-Earcap_Guardian" class="toggle" fill="#4A4A4A">
<path d="m59.23 42.43.4.4-.03 8.2h-1.81v-1.41h1.44v-7.19M57.79 53.61h1.06v16.61h-1.06V53.61M58.85 53.61h.76v1.25h-.76v-1.25"/>
<path d="M57.45 42.43h1.78v7.2h-1.78v-7.2"/>
<path d="M58.17 44.42h1.23v1.29h-1.23v-1.29M58.34 49.95h.89v.72h-.89v-.72"/>
<path d="M58.34 49.95h.89v.24h-.89v-.24M59.63 44.89l.44.44v6.39h-.44v-6.83M57.79 51.02h1.82v2.6h-1.82v-2.6"/>
</g>
<g id="Right-Earcap_Guardian" class="toggle" fill="#4A4A4A">
<path d="m20.77 42.43-.4.4.03 8.2h1.81v-1.41h-1.44v-7.19M22.21 53.61h-1.06v16.61h1.06V53.61M21.15 53.61h-.76v1.25h.76v-1.25"/>
<path d="M22.55 42.43h-1.78v7.2h1.78v-7.2"/>
<path d="M21.83 44.42H20.6v1.29h1.23v-1.29M21.66 49.95h-.89v.72h.89v-.72"/>
<path d="M21.66 49.95h-.89v.24h.89v-.24M20.37 44.89l-.44.44v6.39h.44v-6.83M22.21 51.02h-1.82v2.6h1.82v-2.6"/>
</g>
<g id="Helmet_Pieces_Guardian">
<g id="Face_Guardian" fill="#606060">
<path d="m25.66 58.81 7.66 6.75 1.82 11.17-10.47-4.86.99-13.06zM54.39 58.81l-7.66 6.75-1.82 11.17 10.47-4.86-.99-13.06z"/>
</g>
<g id="Cheeks_Guardian" fill="#DFDFDF">
<path d="m25.66 58.81-.99 13.06-1.98-.6V51.93l2.97 6.88z"/>
<path d="M22.95 52.54c.4.76 1.36 2.17 3.51 3.79a17.59 17.59 0 0 0 5.85 3.04l1.01 6.19-7.66-6.75-2.71-6.27zM54.39 58.81l.99 13.06 1.98-.6V51.93l-2.97 6.88z"/>
<path d="M57.1 52.54c-.4.76-1.36 2.17-3.51 3.79-3.22 2.42-5.85 3.04-5.85 3.04l-1.01 6.19 7.66-6.75 2.71-6.27z"/>
</g>
<path fill="#151414" id="Visor_Guardian" d="m36.36 76.97 1.69-2.69-1.38-22.63-13.45-2.98v-1.28h13.73l1 1.01h4.16l1-1.01h13.73v1.28l-13.45 2.98-1.38 22.63 1.69 2.69s-2.45.3-3.67.3c-1.23 0-3.67-.3-3.67-.3z"/>
<path id="Dome_Guardian" d="M22.32 45.36c0-9.83 7.93-17.81 17.7-17.81s17.7 7.98 17.7 17.81h-35.4z" fill="#252424"/>
<g id="Eyes_Guardian" fill="#78A8D4">
<path d="M39.46 35.65h1.14V48.4h-1.14zM39.46 35.39V48.4h-1.51l-1-1.01H23.22v1.28l13.45 2.98 1.38 22.63-1.83 2.91-1.04-.22-2.86-17.6s-2.64-.62-5.85-3.04c-3.25-2.44-3.78-4.4-3.78-4.4v19.34l-.66-.67V43.79h3.4l6.14-8.4h7.89zM40.6 35.39V48.4h1.51l1-1.01h13.73v1.28l-13.45 2.98-1.38 22.63 1.83 2.91 1.04-.22 2.86-17.6s2.64-.62 5.85-3.04c3.25-2.44 3.78-4.4 3.78-4.4v19.34l.66-.67V43.79h-3.4l-6.14-8.4H40.6z"/>
</g>
</g>
</g></g>
<g id="HelmetsDecals" mask="url(#HelmetsMask)"/>
<g id="Shoulders">
<g id="Left-Shoulder"><g id="Classic_Shoulder_Left" class="option">
<path id="Main_Shoulder_Classic_Left" d="m117.21 13.84-2.52 11.33 2.02 6.52 13.49 6.79 2.27-3.46-15.26-21.18z" fill="#07325A"/>
<path id="Trauma-Plates_Shoulder_Classic_Left" class="toggle" style="" d="m116.44 25.1 1.67 5.41 11.49 5.78 1.94-2.96-12.93-17.99-2.17 9.76z" fill="#4C6D8B"/>
</g>
</g>
<g id="Right-Shoulder"><g id="Classic_Shoulder_Right" class="option">
<path id="Main_Shoulder_Classic_Right" d="m52.79 13.84 2.52 11.33-2.02 6.52-13.49 6.79-2.27-3.46 15.26-21.18z" fill="#07325A"/>
<path id="Trauma-Plates_Shoulder_Classic_Right" class="toggle" style="" d="m53.56 25.1-1.67 5.41-11.49 5.78-1.94-2.96 12.93-17.99 2.17 9.76z" fill="#4C6D8B"/>
</g>
</g>
</g>
<g id="ShouldersDecals" mask="url(#ShouldersMask)"/>
<g id="Gauntlets">
<g id="Left-Gauntlets"><g id="Gunslinger_Gauntlet_Left" class="option">
<path id="Accent-Top_Gunslinger_Gauntlet_Left" d="m139.9 80.56.62 5.62-2.85.79-.66-5.33 2.89-1.08zm-1.35 20.83.57 2.87-2.51.54-.6-2.86 2.54-.55z" fill="#505050"/>
<path id="Top_Gunslinger_Gauntlet_Left" d="m139.9 80.56 1.3-.49 2.29 26.33-6.27 1.32-.85-4.08.24 1.15 2.51-.54-.57-2.87-2.54.54-3.85-18.47 7.74-2.89-2.89 1.08.66 5.33 2.85-.79-.62-5.62z" fill="#5D5D5D"/>
<path id="Accent-Bottom_Gunslinger_Gauntlet_Left" d="m128.55 91.98-.74-2.3-1.62.52.74 2.3 1.62-.52zm.85 2.61-.74-2.3-1.62.52.74 2.3 1.62-.52zm6.61 7.34-5.61 1.2.9 2.8 5.3-1.13-.59-2.87z" fill="#505050"/>
<path id="Bottom_Gunslinger_Gauntlet_Left" d="m136.52 104.38-.51-2.45-5.61 1.2.9 2.8 5.3-1.13.61 2.93-3.45.6a1.88 1.88 0 0 1-2.11-1.26l-6.31-19.4 6.89-3.82 4.29 20.53zm-7.12-9.79-.74-2.3-1.62.52.74 2.3 1.62-.52zm-.85-2.61-.74-2.3-1.62.52.74 2.3 1.62-.52z" fill="#5D5D5D"/><g id="No-Device_Attachment_Gunslinger_Gauntlet_Left" class="option"/>
</g></g>
<g id="Right-Gauntlets"><g id="Gunslinger_Gauntlet_Right" class="option">
<path id="Accent-Top_Gunslinger_Gauntlet_Right" d="m30.21 80.56-.62 5.62 2.85.79.66-5.33-2.89-1.08zm1.35 20.83-.57 2.87 2.51.54.6-2.86-2.54-.55z" fill="#505050"/>
<path id="Top_Gunslinger_Gauntlet_Right" d="m30.21 80.56-1.3-.49-2.29 26.33 6.27 1.32.85-4.08-.24 1.15-2.51-.54.57-2.87 2.54.54 3.85-18.47-7.74-2.89 2.89 1.08-.66 5.33-2.85-.79.62-5.62z" fill="#5D5D5D"/>
<path id="Accent-Bottom_Gunslinger_Gauntlet_Right" d="m41.56 91.98.74-2.3 1.62.52-.74 2.3-1.62-.52zm-.85 2.61.74-2.3 1.62.52-.74 2.3-1.62-.52zm-6.61 7.34 5.61 1.2-.9 2.8-5.3-1.13.59-2.87z" fill="#505050"/>
<path id="Bottom_Gunslinger_Gauntlet_Right" d="m33.59 104.38.51-2.45 5.61 1.2-.9 2.8-5.3-1.13-.61 2.93 3.45.6c.92.16 1.82-.38 2.11-1.26l6.31-19.4-6.89-3.82-4.29 20.53zm7.12-9.79.74-2.3 1.62.52-.74 2.3-1.62-.52zm.85-2.61.74-2.3 1.62.52-.74 2.3-1.62-.52z" fill="#5D5D5D"/><g id="No-Device_Attachment_Gunslinger_Gauntlet_Right" class="option"/>
</g></g>
</g>
<g id="GauntletsDecals" mask="url(#GauntletsMask)"/>
<g id="Shins">
<g id="Left-Shin"><g id="Full_Shin_Left" class="option">
<path id="Shin_Full-Shin_Left" d="M102.49 175.8c10.97-2.98 18.29-1.11 18.29-1.11l4.35 42.35s-4.31 1.17-9.01 1.31c-3.44.1-8.96-.97-8.96-.97l-7.9-36c.01 0 3.63-.8 3.23-5.58" fill="#898989"/>
<path id="Accent_Full-Shin_Left" class="toggle" d="m100.16 185.33 6.08-.75.41 1.58-6.12.76-.37-1.59m.51 2.2 4.15-.52.41 1.58-4.2.53-.36-1.59" fill="#717171"/>
<g id="Ridge_Full-Shin_Left" class="toggle" fill="#607689">
<path d="m116.97 173.79-3.93-.29-4.03.56 8.19 44.25c1.96-.02 3.4-.28 5.63-.74l-5.86-43.78"/>
<path d="m113.04 173.5 7.28 44.54"/>
</g>
</g></g>
<g id="Right-Shin"><g id="Full_Shin_Right" class="option">
<path id="Shin_Full-Shin_Right" d="M67.41 175.8c-10.97-2.98-18.29-1.11-18.29-1.11l-4.35 42.35s4.31 1.17 9.01 1.31c3.44.1 8.96-.97 8.96-.97l7.9-36c-.02 0-3.64-.8-3.23-5.58" fill="#898989"/>
<path id="Accent_Full-Shin_Right" class="toggle" d="m69.73 185.33-6.08-.75-.41 1.58 6.12.76.37-1.59m-.5 2.2-4.15-.52-.41 1.58 4.2.53.36-1.59" fill="#717171"/>
<g id="Ridge_Full-Shin_Right" class="toggle" fill="#607689">
<path d="m52.92 173.79 3.93-.29 4.03.56-8.18 44.24a26.9 26.9 0 0 1-5.63-.74l5.85-43.77"/>
<path d="m56.85 173.5-7.28 44.54"/>
</g>
</g></g>
</g>
<g id="ShinsDecals" mask="url(#ShinsMask)"/>
<g id="Foot">
<g id="Left-Ankle">
<g id="None_Ankle_Left" class="option"/></g>
<g id="Left-Toe"><g id="None_Toe_Left" class="option"/>
</g>
<g id="Right-Ankle">
<g id="None_Ankle_Right" class="option"/></g>
<g id="Right-Toe"><g id="None_Toe_Right" class="option"/>
</g>
</g>
<g id="FootDecals" mask="url(#FootMask)"/>
<g id="Knees">
<g id="Left-Knee">
<g id="None-(Nih-Plates)_Knee_Left" class="option"/></g>
<g id="Right-Knee">
<g id="None-(Nih-Plates)_Knee_Right" class="option"/></g>
</g>
<g id="KneesDecals" mask="url(#KneesMask)"/>
<g id="Thighs">
<g id="Left-Thigh"><g id="Pocket_Thigh_Left" class="option" fill="#35404A">
<path d="M118.69 124.47c.55 6.45 1.32 12.57 2.29 18.39a4.17 4.17 0 0 1-3.83 4.86c-5.35.43-10.77 1.25-16.24 2.29a3.43 3.43 0 0 1-4.05-2.84L93.36 124a2 2 0 0 1 1.67-2.26l6.21-.97 17.45 3.7"/>
<path d="M116.17 118.36c.76-.12 1.5.3 1.78 1.01.92 2.45 1.72 6.36 1.1 8.36-.8 2.59-8.94 17.56-10.96 21.25-.28.52-.8.86-1.38.93l-4.49.52c-.73.08-1.4-.43-1.51-1.15l-3.7-24.61a3.5 3.5 0 0 0-2.51-2.85l21.67-3.46"/>
<path id="Stitch_Left" d="M115.92 118.39c1.72-.23 2.97 6.8 2.41 8.62-.72 2.34-8.84 17.84-10.67 21.18-.25.47-.72.78-1.25.84l-3.5.5a1.24 1.24 0 0 1-1.37-1.04c-.6-4.01-2.96-19.62-3.75-24.68-.28-1.79-2.19-2.17-2.19-2.17"/>
<path d="m94.96 121.74 21.05-3.36"/>
</g></g>
<g id="Right-Thigh"><g id="Pocket_Thigh_Right" class="option" fill="#35404A">
<path d="M51.2 124.47a231.41 231.41 0 0 1-2.29 18.39c-.2 1.16.1 2.35.83 3.27a4.2 4.2 0 0 0 2.99 1.59c5.35.43 10.77 1.25 16.24 2.29a3.43 3.43 0 0 0 4.05-2.84l3.5-23.17a2 2 0 0 0-1.67-2.26l-6.21-.97-17.44 3.7"/>
<path d="M53.73 118.36c-.76-.12-1.5.3-1.78 1.01-.92 2.45-1.72 6.36-1.1 8.36.8 2.59 8.94 17.56 10.96 21.25.28.52.8.86 1.38.93l4.48.52c.74.08 1.4-.43 1.51-1.15l3.7-24.61a3.5 3.5 0 0 1 2.51-2.85l-21.66-3.46"/>
<path id="Stitch_Right" d="M53.97 118.39c-1.72-.23-2.97 6.8-2.41 8.62.72 2.34 8.84 17.84 10.67 21.18.25.47.72.78 1.25.84l3.5.5c.66.08 1.27-.38 1.37-1.04.6-4.01 2.97-19.62 3.75-24.68.28-1.79 2.19-2.17 2.19-2.17"/>
<path d="m74.93 121.74-21.05-3.36"/>
</g></g>
</g>
<g id="ThighsDecals" mask="url(#ThighsMask)"/>
<g id="Groin">
<g id="None_Groin" class="option"/></g>
<g id="GroinDecals" mask="url(#GroinMask)"/>
<g id="Waist">
<g id="Accessories_Waist">
<g id="Kama" class="toggle" style="display:none"/>
<g id="Loin-Cloth" class="toggle" style="display:none"/>
<g id="Left-Holster" class="toggle" style="display:none"/>
<g id="Right-Holster" class="toggle" style=""><g id="Belt-Holster_Right" class="option">
<g id="Weapon_Belt-Holster-Right">
<g id="Main_Weapon_Belt-Holster-Right" fill="#7D7B7B">
<path d="m53.1 99.11.24-3.6-.62-.04.15-2.26.62.04.08-1.18c.03-.38-.47-.73-1.1-.77l-5.37-.36c-.63-.04-1.17.23-1.19.62l-.08 1.18.62.04-.15 2.26-.62-.04-.24 3.6 1.46.1-.67 9.95 4.73.31.67-9.95 1.47.1z"/>
<path d="m46.1 98.11.84.06-.8 11.96 4.73.31.8-11.96.84.06.18-2.73-6.41-.42-.18 2.72zm1.74-6.33 3.8.25-.25 3.69-3.8-.25.25-3.69z"/>
<path d="m50.51 99.49.62.04-.63 9.4-.62-.04.63-9.4zm-1.44-2.26.62.04-.63 9.4-.62-.04.63-9.4zm-1.74 2.05.62.04-.63 9.4-.62-.04.63-9.4z"/>
</g>
<g id="Accent_Weapon_Belt-Holster-Right" fill="#757272">
<path d="m50.8 96.06-.03.38-2.68-.18.02-.38 2.69.18z"/>
<path d="m50.78 96.44-.03.38-2.68-.18.03-.38 2.68.18zm.05-.76-.02.38-2.68-.18.03-.38 2.67.18zm.31-4.63-.02.38-2.68-.18.03-.38 2.67.18z"/>
<path d="m51.01 91.99.62.04-.25 3.69-.62-.04.25-3.69zm-3.17-.21.62.04-.25 3.69-.62-.04.25-3.69zm.12 7.54.94.06-.63 9.4-.94-.06.63-9.4zm1.6.1.94.06-.63 9.4-.94-.06.63-9.4z"/>
</g>
</g>
<path id="Holster_Belt-Holster-Right" d="m51.49 112.89 2.47-14.99-8.29 10.56-.79 20.68c1.44 1.89 3.04 2.08 4.84.36l1.77-16.61z" fill="#8E8D8D"/>
</g>
</g>
<g id="Left-Trophy" class="toggle" style="display:none"/>
<g id="Right-Trophy" class="toggle" style="display:none"/>
</g>
<g id="Under-Belt"><g id="Girth-Belt" class="option" fill="#ABABAB">
<path d="M84.93 84.93c-9.33 0-27.98-2.25-27.98-2.25l.61-1.91 27.37 2.25 27.37-2.25.6 1.91c.01 0-18.65 2.25-27.97 2.25z"/>
<path d="M84.93 86.84c-9.52 0-28.56-2.25-28.56-2.25l.58-1.91 27.98 2.25 27.98-2.25.58 1.91s-19.04 2.25-28.56 2.25z"/>
<path d="M84.93 88.75c-9.67 0-28.99-2.25-28.99-2.25l.43-1.91 28.56 2.25 28.56-2.25.43 1.91c0-.01-19.32 2.25-28.99 2.25z"/>
<path d="M84.93 90.65c-9.79 0-29.36-2.25-29.36-2.25l.37-1.91 28.99 2.25 28.99-2.25.37 1.91s-19.57 2.25-29.36 2.25z"/>
<path d="M84.93 92.56c-9.9 0-29.69-2.25-29.69-2.25l.33-1.91 29.36 2.25 29.36-2.25.33 1.91s-19.79 2.25-29.69 2.25z"/>
<path d="M84.93 94.47c-10 0-30-2.25-30-2.25l.31-1.91 29.69 2.25 29.69-2.25.31 1.91c0-.01-20 2.25-30 2.25z"/>
<path d="M84.93 96.37c-10.1 0-30.31-2.25-30.31-2.25l.31-1.91 30 2.25 30-2.25.31 1.91s-20.21 2.25-30.31 2.25z"/>
<path d="M84.93 98.28c-10.21 0-30.62-2.25-30.62-2.25l.32-1.91 30.31 2.25 30.31-2.25.32 1.91c-.02 0-20.43 2.25-30.64 2.25z"/>
<path d="M84.93 100.19c-10.32 0-30.97-2.25-30.97-2.25l.34-1.91 30.62 2.25 30.62-2.25.35 1.91c.01-.01-20.64 2.25-30.96 2.25z"/>
<path d="M84.93 102.09c-10.45 0-31.36-2.25-31.36-2.25l.39-1.91 30.97 2.25 30.97-2.25.39 1.91s-20.91 2.25-31.36 2.25z"/>
</g>
</g>
<g id="Belt"><g id="Pouch-Belt-2" class="option">
<path id="Main_Pouch-Belt-2" d="M115.21 92.95c-6.82.61-22.4 2.83-30.27 2.83-7.94 0-23.52-2.23-30.26-2.82l1.01-7.93c5.53.49 21.56 2.74 29.26 2.74 7.47 0 23.17-2.23 29.07-2.76l1.19 7.94z" fill="#A3A3A3"/>
<path id="Buckle_Pouch-Belt-2" d="M79.37 87.01h11.28v9.21H79.37z" fill="#8E8C8C"/>
<g id="Pouches_Pouch-Belt-2" fill="#A3A3A3">
<path d="m52.22 84.29.55-.85 2.83.09.35 1.06-3.73-.3z"/>
<path d="M55.93 84.69a.2.2 0 0 0-.06-.18.23.23 0 0 0-.17-.08l-3.48-.13-.5 11.17c.11.28 1.53.46 2.68.49a.9.9 0 0 0 .92-.88c.08-3.47.21-6.94.61-10.39zm61.74-.4-.55-.85-2.83.09-.35 1.06 3.73-.3z"/>
<path d="M113.96 84.69a.2.2 0 0 1 .06-.18.23.23 0 0 1 .18-.08l3.48-.13.5 11.17c-.11.28-1.53.46-2.68.49a.9.9 0 0 1-.92-.88 116.3 116.3 0 0 0-.62-10.39z"/>
</g>
</g></g>
</g>
<g id="WaistDecals" mask="url(#WaistMask)"/>
<g id="Extras_Front">
<g id="Front"><g id="None_Front" class="option"/>
</g>
</g>
<g id="Extras-FrontDecals" mask="url(#FrontMask)"/>
</g>
</svg>