<?xml version='1.0' encoding='UTF-8'?>
<svg version="1.1" id="Male-Body" xmlns="http://www.w3.org/2000/svg" xmlns:serif="http://www.serif.com/" viewBox="0 -55 170 310" style="stroke-width: 0.2px; fill-rule: evenodd; stroke-linejoin: round;" width="510" height="930">
<style>
mask {
mask-type: alpha;
}
.decal {
stroke: none;
}
</style>
<defs id="Masks" stroke="none">
<mask id="HelmetsMask"> <use href="#Helmets"/> </mask>
<mask id="CollarMask"> <use href="#Collar"/> </mask>
<mask id="ShouldersMask"> <use href="#Shoulders"/> </mask>
<mask id="ChestMask"> <use href="#Chest"/> </mask>
<mask id="BicepsMask"> <use href="#Biceps"/> </mask>
<mask id="GauntletsMask"> <use href="#Gauntlets"/> </mask>
<mask id="WaistMask"> <use href="#Waist"/> </mask>
<mask id="GroinMask"> <use href="#Groin"/> </mask>
<mask id="ThighsMask"> <use href="#Thighs"/> </mask>
<mask id="KneesMask"> <use href="#Knees"/> </mask>
<mask id="ShinsMask"> <use href="#Shins"/> </mask>
<mask id="FootMask"> <use href="#Foot"/> </mask>
</defs>
<defs id="Decals"/><metadata><rdf:rdf xmlns:rdf="http://www.w3.org/1999/02/22-rdf-syntax-ns#" xmlns:rdfs="http://www.w3.org/2000/01/rdf-schema#" xmlns:dc="http://purl.org/dc/elements/1.1/"><rdf:description><dc:creator>MandoCreator</dc:creator><dc:publisher>https://www.mandocreator.com</dc:publisher><dc:description>Your Beskar'gam - created by MandoCreator</dc:description><dc:format>image/svg+xml</dc:format><dc:type>Image</dc:type><dc:title>MandoCreator - Ner Berskar'gam</dc:title><dc:date>2022-03-14T15:15:52.390Z</dc:date></rdf:description></rdf:rdf></metadata><g id="Main-Body" fill="white" stroke="black">
<g id="Extras_Back">
<g id="Back"><path id="Full-Cape_Back" class="option" d="M68.3 16.3c-11.77 4.4-24.85 25.6-26.46 41.8-1.01 10.2-6.03 20.5-5.53 30.7.5 10.3-4.73 21-5.13 31.2-.3 9.3-3.12 13.5-4.73 22.7-2.41 13.7-5.03 22.7-7.14 36.5a59.51 59.51 0 0 1-9.25 23.3c-.2.3 14.99-.1 18.01-.5 9.96-1.6 17.5-2.1 27.36.3 10.66 2.6 21.23 4.2 32.09 1.8 10.56-2.3 20.42-7.8 31.18-8.8 8.35-.8 16.6 1.9 24.65 3.8 2.01.5 4.83 1.7 7.04 1.5.1 0-.71-4.9-.8-5.4-1.01-5.1-3.42-10-6.24-14.4-7.14-11.2-4.63-23.4-5.93-36.6-1.21-12.8.1-25.6-2.11-38.4-1.91-11.3-8.65-21.8-10.36-33.2-2.01-13.4-6.54-27.7-10.66-40.7-4.85-15.8-34.22-20-45.99-15.6z" fill="#5F3918"/></g>
</g>
<g id="Extras-BackDecals" mask="url(#BackMask)"/>
<g id="Suit">
<g id="Neck-Seal"><g id="Standard-Neck-Seal" class="option" fill="#754318">
<path d="M98.75 7.5c0-.9-.93-1.62-2.07-1.62 0 0-7.8.85-11.7.85s-11.7-.85-11.7-.85c-1.14 0-2.07.73-2.07 1.62s.93 1.62 2.07 1.62c0 0 7.8.85 11.7.85s11.7-.85 11.7-.85c1.15.01 2.07-.72 2.07-1.62z"/>
<path d="M99.45 9.4c0-.94-.97-1.71-2.17-1.71 0 0-8.2.9-12.29.9s-12.3-.89-12.3-.89c-1.2 0-2.17.76-2.17 1.71s.97 1.71 2.17 1.71c0 0 8.2.9 12.29.9s12.29-.9 12.29-.9c1.21-.01 2.18-.78 2.18-1.72z"/>
<path d="M100.24 11.76c0-.99-1.03-1.8-2.29-1.8 0 0-8.64.95-12.96.95s-12.97-.95-12.97-.95c-1.26 0-2.29.81-2.29 1.8s1.03 1.8 2.29 1.8c0 0 8.64.95 12.97.95s12.96-.95 12.96-.95c1.26 0 2.29-.81 2.29-1.8z"/>
<path d="M101 13.92c0-1.04-1.08-1.89-2.41-1.89 0 0-9.08.99-13.61.99s-13.61-.99-13.61-.99c-1.33 0-2.41.85-2.41 1.89s1.08 1.89 2.41 1.89c0 0 9.08.99 13.61.99s13.61-.99 13.61-.99c1.34 0 2.41-.85 2.41-1.89z"/>
<path d="M101.76 16.04c0-.79-1.13-1.43-2.52-1.43 0 0-9.51.75-14.26.75s-14.26-.75-14.26-.75c-1.39 0-2.52.64-2.52 1.43 0 .79 1.13 1.43 2.52 1.43 0 0 9.51.75 14.26.75s14.26-.75 14.26-.75c1.39 0 2.52-.64 2.52-1.43z"/>
<path d="M101.76 18.42c0-.79-1.13-1.43-2.52-1.43 0 0-9.51.75-14.26.75s-14.26-.75-14.26-.75c-1.39 0-2.52.64-2.52 1.43 0 .79 1.13 1.43 2.52 1.43 0 0 9.51 1.44 14.26 1.44s14.26-1.44 14.26-1.44c1.39-.01 2.52-.64 2.52-1.43z"/>
</g>
</g>
<path id="Flight-Suit" d="m73.36 158.45-1.49 8.72-11.03 53.11s-4.93 2.96-7.47 3.46c-2.53.5-7.73-.44-7.73-.44l3.85-43 2.9-18.36.66-7.82s-2.53-22.78-1.7-34.14c.82-11.36 6.66-34.01 6.66-34.01l26.98.58 26.97-.58s5.83 22.66 6.66 34.01c.83 11.36-1.7 34.14-1.7 34.14l.66 7.82 2.9 18.36 3.85 43s-5.32 1.19-7.85.69c-2.53-.5-7.34-3.71-7.34-3.71L98.1 167.16l-1.49-8.72-11.62-30.33-11.63 30.34zm56.05-115.12 11.98 41.65 1.04 21.47-9.55 1.83-6.05-20.21-13.65-33.95.69-15.55 2.31-3.72 13.23 8.48zm-88.82-.03 13.19-8.45 2.31 3.72.52 16.04-13.44 33.46-6.05 20.21-9.55-1.83 1.03-21.47L40.59 43.3z" fill="#000000"/>
<g id="Sleeves" class="toggle" fill="#A81E1E">
<path d="m112.2 56.12 2.68 5.9s4.24-3.2 7.06-4.8 4.38-2.62 6.92-3.6a33.81 33.81 0 0 1 5.08-1.47l-6.07-12.25-5.79-9.67-11.58 5.14 1.7 20.75z"/>
<path d="M113.61 59.24c-.2-.24 5.08-4.5 8.61-6.34 3.53-1.84 10.25-3.69 10.25-3.69"/>
<path d="m57.8 56.12-2.68 5.9s-4.24-3.2-7.06-4.8c-2.82-1.59-4.38-2.62-6.92-3.6a33.81 33.81 0 0 0-5.08-1.47l6.07-12.25 5.79-9.67 11.58 5.14-1.7 20.75z"/>
<path d="M56.39 59.24c.2-.24-5.08-4.5-8.61-6.34-3.53-1.84-10.25-3.69-10.25-3.69"/>
</g>
</g>
<g id="Boots"><g id="Gunslinger_Boots" class="option">
<path id="Main_Gunslinger-Boot" d="M107.7 226.61c.04.2.73 3.41 4.27 4.29 1.18.3 3.21-.33 4.48-.98a30.5 30.5 0 0 1 5.44-2.12l.06.08.09.12c.58.81 1.21 1.57 1.89 2.26l.05.05.03.03.21.2c.4.38.81.74 1.23 1.07l.12.09.1.07.09.06.2.14c.88.62 2.06 1.56 3.23 1.39 1.11-.16 2.35-.6 3.28-1.04a8.2 8.2 0 0 0 2.13-1.4c.16-.12.29-.26.39-.44 2.57 1 5.36 1.38 6.73 4.22.3.62.55 1.35.49 2.04-.08.89-1.06 1-1.82 1.2-1.9.51-3.53.89-5.72 1.34-2.5.52-4.76.83-7.29.72-1.89-.08-3.49-.18-5.14-1.19-.66-.41-1.34-.82-1.92-1.35-1.28-1.19-2.11-2.43-3.77-3.15a23.2 23.2 0 0 0-3.71-1.27c-1.8-.45-3.74-.76-4.69-2.54-.73-1.34-.64-2.59-.45-3.89m-45.42 0c-.04.2-.73 3.41-4.27 4.29-1.18.3-3.2-.33-4.48-.98a30.5 30.5 0 0 0-5.44-2.12l-.05.08-.09.12c-.58.81-1.21 1.57-1.89 2.26l-.05.05-.03.03-.21.2c-.4.38-.81.74-1.23 1.07l-.12.09-.1.07-.09.06-.2.14c-.88.62-2.06 1.56-3.23 1.39-1.1-.16-2.35-.6-3.28-1.04a8.2 8.2 0 0 1-2.13-1.4 1.38 1.38 0 0 1-.39-.44c-2.57 1-5.36 1.38-6.73 4.22-.3.62-.55 1.35-.48 2.04.08.89 1.06 1 1.82 1.2 1.9.51 3.53.89 5.72 1.34 2.5.52 4.76.83 7.29.72 1.89-.08 3.49-.18 5.14-1.19.66-.41 1.35-.82 1.92-1.35 1.28-1.19 2.11-2.43 3.77-3.15a23.2 23.2 0 0 1 3.71-1.27c1.8-.45 3.74-.76 4.69-2.54.71-1.34.63-2.59.43-3.89" fill="#3B3B3B"/>
<path id="Bottom_Gunslinger-Boot" d="M107.64 229.04c.08.49.24.98.51 1.49.95 1.78 2.89 2.09 4.69 2.54 1.27.32 2.51.75 3.71 1.27 1.66.72 2.48 1.96 3.77 3.15.57.53 1.25.94 1.92 1.35 1.65 1.01 3.25 1.11 5.14 1.19 2.53.1 4.78-.2 7.29-.72 2.19-.46 3.82-.84 5.72-1.34.61-.16 1.36-.27 1.67-.76l.36.8.21 1.64s-2.03 1.09-4.2 1.57c-2.16.48-6.53 1.15-6.53 1.15l-.3-.71-.98.21.05.7-2.38.13-.51-.69-.79.02.12.61s-1.47-.02-2.29-.51c-.15-.23-.46-.61-.46-.61l-.56-.31.07.58-2.04-.73-.1-.79-.59-.34-.03.57-1.46-1.12-.16-.69-3.64-2.55-.57 1.33-2.55-.55-.08-.55-.65-.27-.45.42-1.71-.7-.04-.51-.56-.19-.06.37-1.62-1.12-.31-2.23-.07-2.42.46-.68m-45.29 0a4.8 4.8 0 0 1-.51 1.49c-.95 1.78-2.89 2.09-4.69 2.54-1.27.32-2.51.75-3.71 1.27-1.66.72-2.48 1.96-3.77 3.15-.57.53-1.25.94-1.92 1.35-1.65 1.01-3.25 1.11-5.14 1.19-2.53.1-4.78-.2-7.29-.72-2.19-.46-3.83-.84-5.72-1.34-.61-.16-1.36-.27-1.67-.76l-.36.8-.21 1.64s2.03 1.09 4.2 1.57c2.16.48 6.53 1.15 6.53 1.15l.3-.71.98.21-.05.7 2.38.13.51-.69.8.02-.12.61s1.47-.02 2.29-.51c.15-.23.46-.61.46-.61l.56-.31-.07.58 2.04-.73.1-.79.59-.34.02.57 1.46-1.12.16-.69 3.64-2.55.57 1.33 2.55-.55.08-.55.65-.27.45.42 1.71-.7.04-.51.56-.19.07.37 1.62-1.12.31-2.23.07-2.42-.47-.68" fill="#7F2020"/>
<path id="Top_Gunslinger-Boot" d="M121.87 227.77a25.53 25.53 0 0 1-4.16-10.29l.61-.05h.02l.07-.01.2-.02.31-.03.13-.02 1.04-.14.54-.1.11-.03.04-.01.08-.02.37-.09.33-.08.06-.01c1.15-.29 2.31-.64 2.31-.64.32 1.48.47 3.17 1.09 4.56.98 2.18 2.78 3.85 4.46 5.51 1.15 1.14 2.28 2.44 3.66 3.31.58.37 1.21.66 1.84.9a7.2 7.2 0 0 1-2.53 1.84c-.93.44-2.17.88-3.28 1.04-1.17.17-2.35-.77-3.23-1.39a17.07 17.07 0 0 1-4.06-4.19l-.01-.04m-73.75 0a25.53 25.53 0 0 0 4.16-10.29l-.61-.05h-.02l-.08-.01-.2-.02-.31-.03-.13-.02-1.04-.14-.54-.1-.11-.03-.04-.01-.08-.02-.37-.09-.33-.08-.06-.01c-1.15-.29-2.31-.64-2.31-.64-.32 1.48-.47 3.17-1.09 4.56-.98 2.18-2.78 3.85-4.46 5.51-1.15 1.14-2.28 2.44-3.66 3.31-.58.37-1.21.66-1.84.9a7.12 7.12 0 0 0 2.53 1.84c.93.44 2.17.88 3.28 1.04 1.17.17 2.35-.77 3.23-1.39a17.07 17.07 0 0 0 4.06-4.19l.02-.04" fill="#000000"/>
<path id="Side_Gunslinger-Boot" d="M121.89 227.8c-1.87.54-3.7 1.24-5.44 2.12-1.27.65-3.3 1.27-4.48.98a5.77 5.77 0 0 1-4.27-4.3c.11-.74.25-1.5.3-2.3.1-1.54-.11-8.21.02-8.14 2.94 1.56 8.18 1.45 9.67 1.33.54 3.37 2.02 7.2 4.2 10.31m-73.8 0c1.87.54 3.7 1.24 5.44 2.12 1.27.65 3.3 1.27 4.48.98a5.77 5.77 0 0 0 4.27-4.3c-.11-.74-.25-1.5-.3-2.3-.1-1.54.11-8.21-.02-8.14-2.94 1.56-8.18 1.45-9.67 1.33a25.55 25.55 0 0 1-4.2 10.31" fill="#B02828"/>
</g></g>
<g id="Gloves">
<g id="Left-Glove">
<g id="Fingerless_Left_Glove" class="option">
<g id="Fingers_Fingerless_Left_Glove" fill="#EEA059">
<path d="M138.6 124.11a5.98 5.98 0 0 0-1.58.1c-.36.08-.72.16-1.04.35-.99.57-.72 1.81.16 2.28 1.03.55 2.66.01 3.13-1.05.19-.44-.41-1.26-.67-1.68"/>
<path d="M136.79 125.19a5.68 5.68 0 0 0-1.59.1c-.36.08-.72.16-1.04.35-.99.57-.72 1.81.16 2.28 1.03.55 2.66.01 3.13-1.05.2-.44-.4-1.26-.66-1.68"/>
<path d="M135.51 126.62c-.54.05-1.21.17-1.73.35-.35.12-.69.26-.99.48-.9.7-.47 1.89.47 2.24 1.1.41 2.64-.35 2.96-1.46.14-.47-.71-1.61-.71-1.61z"/>
<path d="M129.95 119.82c-.3 1.34-.55 2.07-.55 2.07s-1.38 2.79-1.14 3.43c.24.64 1.45 1.21 2.15.87.86-.42 1.93-2.39 2.61-3.77.25-.51.48-1.1.68-1.64-2.76.4-3.75-.96-3.75-.96zm5.69 6.59c-.2.34-.43.7-.68 1.08-1.36 2.05-3.46 3.81-2.07 5.37 1.29 1.46 4.22-2.37 4.22-2.37l1.36-1.77a3.8 3.8 0 0 1-2.83-2.31z"/>
</g>
<path id="Glove_Fingerless_Left_Glove" d="m138.46 128.72 1.51-1.96s3.3-5.41 3.47-6.46c.13-.8.02-3.47.02-3.47l-1.03-10.37-5.24.44-4.31 1.39-.32 1.77s-1.56 2.15-1.97 3.69c-.29 1.09-.13 3.68-.49 5.43l-.14.65s.99 1.37 3.74.96c.35-.96.58-1.78.58-1.78s.95.32 1.43.7c1.61 1.24.91 4.96.91 4.96s-.37.74-.98 1.75c0 0 .56 1.77 2.82 2.3z" fill="#643A15"/>
</g></g>
<g id="Right-Glove">
<g id="Fingerless_Right_Glove" class="option">
<g id="Fingers_Fingerless_Right_Glove" fill="#EEA059">
<path d="M31.4 124.11a5.98 5.98 0 0 1 1.58.1c.36.08.72.16 1.04.35.99.57.72 1.81-.16 2.28-1.03.55-2.66.01-3.13-1.05-.2-.44.41-1.26.67-1.68"/>
<path d="M33.21 125.19a5.59 5.59 0 0 1 2.62.45c.99.57.72 1.81-.16 2.28-1.03.55-2.66.01-3.13-1.05-.19-.44.41-1.26.67-1.68"/>
<path d="M34.49 126.62c.54.05 1.21.17 1.73.35.35.12.69.26.99.48.9.7.47 1.89-.47 2.24-1.1.41-2.64-.35-2.96-1.46-.14-.47.71-1.61.71-1.61z"/>
<path d="M40.05 119.82c.3 1.34.55 2.07.55 2.07s1.38 2.79 1.14 3.43c-.24.64-1.45 1.21-2.15.87-.86-.42-1.93-2.39-2.61-3.77-.25-.51-.48-1.1-.68-1.64 2.76.4 3.75-.96 3.75-.96zm-5.69 6.59c.2.34.43.7.68 1.08 1.36 2.05 3.46 3.81 2.08 5.37-1.29 1.46-4.22-2.37-4.22-2.37l-1.36-1.77a3.79 3.79 0 0 0 2.82-2.31z"/>
</g>
<path id="Glove_Fingerless_Right_Glove" d="m31.54 128.72-1.51-1.96s-3.3-5.41-3.47-6.46c-.13-.8-.02-3.47-.02-3.47l1.03-10.37 5.24.44 4.31 1.39.32 1.77s1.56 2.15 1.97 3.69c.29 1.09.13 3.68.49 5.43l.14.65s-.99 1.37-3.74.96c-.35-.96-.58-1.78-.58-1.78s-.95.32-1.43.7c-1.61 1.24-.91 4.96-.91 4.96s.37.74.98 1.75c0 0-.56 1.77-2.82 2.3z" fill="#643A15"/>
</g></g>
</g>
<g id="Biceps">
<g id="Left-Biceps"><g id="Basic_Biceps_Left" class="option">
<path id="Main_Basic_Biceps_Left" d="M134.37 52.38c-1.14-2.74-6.21-14.78-6.21-14.78l-10.42 4.28c-.59.24-.87.91-.63 1.5l4.87 11.74a3.36 3.36 0 0 0 4.37 1.8l7.4-3.04c.58-.25.86-.92.62-1.5z" fill="#8B1E1E"/>
<path id="Strap_Basic_Biceps_Left" d="m119.35 48.7-5.85 2.4-.14 4.29 7.49-3.07-1.5-3.62" fill="#6C4019"/>
<path id="Trauma-Plate_Basic_Biceps_Left" class="toggle" style="" d="m134.34 51.81-5.29-12.74-10.16 4.17 4.67 11.24c.17.4.49.72.89.88.4.17.85.17 1.26 0l8.63-3.55" fill="#000000"/>
</g>
</g>
<g id="Right-Biceps"><g id="Basic_Biceps_Right" class="option">
<path id="Main_Basic_Biceps_Right" d="M35.65 52.38c1.14-2.74 6.22-14.78 6.22-14.78l10.42 4.28c.59.24.87.91.63 1.5l-4.87 11.74a3.36 3.36 0 0 1-4.37 1.8l-7.4-3.04a1.16 1.16 0 0 1-.63-1.5z" fill="#8B1E1E"/>
<path id="Strap_Basic_Biceps_Right" d="m50.68 48.7 5.85 2.4.14 4.29-7.49-3.07 1.5-3.62" fill="#6C4019"/>
<path id="Trauma-Plate_Basic_Biceps_Right" class="toggle" style="" d="m35.69 51.81 5.29-12.74 10.16 4.17-4.66 11.24a1.67 1.67 0 0 1-2.15.88l-8.64-3.55" fill="#000000"/>
</g>
</g>
</g>
<g id="BicepsDecals" mask="url(#BicepsMask)"/>
<path id="Vest" d="M85 20.92c8.5-.01 15.43-4.3 15.63-8.01l.15.02 18.38 5.42 13.31 23.94-2.86 1.16-13.42-8.6-2.31 3.72-1.54 47.4s-8.72 4.71-13.53 5.35c-3.44.45-8.63.68-13.79.67-5.16.01-10.35-.22-13.79-.67-4.81-.63-13.53-5.35-13.53-5.35l-1.54-47.4-2.31-3.72-13.42 8.6-2.86-1.16 13.31-23.94 18.38-5.42.15-.02c.16 3.71 7.09 8.01 15.59 8.01" fill="#710F0F"/>
<g id="SuitDecals" mask="url(#SuitMask)"/>
<g class="swappable" id="Chest"><g id="Chest_Heavy">
<g id="Abdomen_Heavy">
<path id="Under-Plates_Abdomen_Heavy" d="M73.86 69.99h22.29v2.83H73.86zm0 2.83h22.29v2.83H73.86zm0 2.83h22.29v2.83H73.86zm0 2.83h22.29v2.83H73.86zm0 2.83h22.29v2.83H73.86z" fill="#5C1717"/>
<g id="Abdomen-Plate_Heavy" fill="#373737">
<path d="m78.16 60.86-11.11 4.69L66 63.03l12.15-5.13v2.96z"/>
<path d="m70.94 74.95-3.9-9.4 11.11-4.69 3.48 9.89-10.69 4.2z"/>
<path d="m66 63.03-4.67.81 6.89 16.28 4.7-.93L66 63.03zm25.84-2.17 11.11 4.69 1.04-2.52-12.15-5.13v2.96z"/>
<path d="m99.06 74.95 3.9-9.4-11.11-4.69-3.48 9.89 10.69 4.2z"/>
<path d="m104 63.03 4.67.81-6.89 16.28-4.7-.93L104 63.03zM78.19 57.9H91.8v2.96H78.19zm3.44 12.85-3.48-9.89h13.69l-3.48 9.89h-6.73z"/>
</g>
</g>
<g id="Neck-Armor_Heavy">
<path id="Neck-Plate_Heavy" d="m69.69 11.62-9.62 2.1.92 3.57a5.11 5.11 0 0 0 6.04 3.72 4.73 4.73 0 0 0 3.59-5.82l-.93-3.57zm30.62 0 9.62 2.1-.92 3.57a5.1 5.1 0 0 1-6.04 3.72 4.73 4.73 0 0 1-3.59-5.82l.93-3.57z" fill="#000000"/>
<path id="Secondary_Neck-Plate_Heavy" d="m67.3 11.8-4.84 1.06.69 2.67a2.57 2.57 0 0 0 3.04 1.87 2.4 2.4 0 0 0 1.8-2.93l-.69-2.67zm35.4 0 4.84 1.06-.69 2.67a2.57 2.57 0 0 1-3.04 1.87 2.4 2.4 0 0 1-1.8-2.93l.69-2.67z" fill="#841E1E"/>
</g>
<g id="Full-Chest_Heavy">
<path id="Under-Plate_Chest_Heavy" d="M90.5 54.56h-11l-2.76 2.36v1.58l1.45-.6H91.8l1.45.61v-1.59l-2.75-2.36z" fill="#832020"/>
<g id="Chest-Plate_Heavy" fill="#242424">
<path d="m65.78 61.66 9.75-5.63 1.32-2.67 2.6.35h11.11l2.6-.35 1.32 2.67 9.75 5.63 4.53.99-.11 1.65-4.85-.84-10.54-4.37v-2.17l-2.76-2.36h-11l-2.76 2.36v2.17L66.2 63.46l-4.85.84-.11-1.65 4.54-.99zm42.97.98 5.64-14.4.83 2.95-1.79 10.71-4.68.74zM54.78 51.19l.83-2.95 5.64 14.4-4.68-.74-1.79-10.71z"/>
<path d="M61.09 42.62V36.6l-.46-10.79 2.81-3.1 8.51-1.76 2.2 2.57h21.69l2.2-2.57 8.51 1.76 2.81 3.1-.45 10.53-.01-.02v6.31L93.15 53.36l-2.6.35h-11.1l-2.6-.35-15.76-10.74z"/>
<path d="M108.91 36.61v6.02l5.49 5.61-5.49-11.63zM76.85 53.36 61.09 42.62l-5.49 5.61 5.64 14.4 4.53-.99 9.75-5.63 1.33-2.65z"/>
<path d="m114.4 48.24-5.64 14.4-4.53-.99-9.75-5.63-1.32-2.67 15.75-10.74 5.49 5.63z"/>
<path d="m113.43 61.9-.19 1.15-4.61 1.24.12-1.65 4.68-.74zM61.09 36.61v6.02l-5.49 5.61 5.49-11.63z"/>
<path d="M60.63 25.82a62.96 62.96 0 0 1-2.28 16.61l2.74-5.82-.46-10.79zm48.75 0c.06 5.53.72 11.07 2.28 16.61l-2.74-5.82.46-10.79zM61.25 62.64l.11 1.65-4.61-1.24-.19-1.15 4.69.74z"/>
</g>
<g id="Accents_Chest-Plate_Heavy" class="toggle">
<path id="Accent-3_Accents_Chest-Plate_Heavy" d="m97.88 36.45-.58-1.79h2.63l-.57 1.79h-1.48zm0 3.47-.58-1.79h2.63l-.57 1.79h-1.48zM96.19 25.8h4.93v.54h-4.93zm0 1.72h4.93v.54h-4.93z" fill="#841818"/>
<path id="Accent-2_Accents_Chest-Plate_Heavy" d="M70.47 23.02a2.89 2.89 0 0 0-3.06-2.66c-.73.05-1.42.39-1.9.94a2.8 2.8 0 0 0-.67 2.01l.2 2.66a2.89 2.89 0 0 0 3.06 2.66 2.78 2.78 0 0 0 2.57-2.95l-.2-2.66z" fill="#881B1B"/>
<g id="Accent-1_Accents_Chest-Plate_Heavy" fill="#7C1919">
<path d="m69.65 20.78-4.33.28.54 7.14 4.33-.28-.54-7.14z"/>
<path d="m69.18 21.34-3.31.21.08 1.02 3.3-.21-.07-1.02zm-2.78 1.21-.45.03.42 5.59.45-.03-.42-5.59z"/>
<path d="m66.88 22.51-.45.03.42 5.6.45-.03-.42-5.6zm2.37-.15-.45.03.42 5.59.45-.03-.42-5.59zm-.47.03-.45.03.42 5.6.45-.03-.42-5.6zm-.95.06-.45.03.42 5.6.45-.03-.42-5.6zm.47-.03-.45.03.42 5.6.45-.03-.42-5.6zm-.95.07-.45.03.42 5.59.45-.03-.42-5.59z"/>
</g>
</g>
</g>
<g id="Iron-Heart_Heavy">
<path id="Heart_Heavy" d="m85 31.46 3.24 2.99v5.86L85 43.28l-3.24-2.98v-5.86L85 31.46z" fill="#8D1D1D"/><g id="Center_Heart_Heavy" class="option" fill="#494949">
<path d="M83.82 34.53h2.36v2.84h-2.36z"/>
<path d="M83.82 37.37h.39v2.84h-.39zm1.57 0h.39v2.84h-.39zm.4 0h.39v2.84h-.39zm-1.19 0h.39v2.84h-.39zm.4 0h.39v2.84H85zm-.79 0h.39v2.84h-.39z"/>
</g>
</g>
</g></g>
<g id="ChestDecals" mask="url(#ChestMask)"/>
<g id="Chest-Attachments"><g id="Bandoleer_Accessories_Chest" class="option">
<g id="Strap_Bandoleer_Accessories_Chest" fill="#363636">
<path d="m113.05 15.37-6.61-3.15L64.67 87.5l6.61 3.62 41.77-75.75"/>
<path d="m111.26 14.16-2.51-1.17-8.34 15.03 2.41 1.32 8.44-15.18M99.44 35.85l-2.76-1.51-12.82 23.1 2.76 1.51 12.82-23.1"/>
<path d="m99.71 36.72-3.92-2.15-1.28 2.32 3.92 2.15 1.28-2.32m-1.56 2.81-3.92-2.15-1.28 2.32 3.92 2.15 1.28-2.32m-1.55 2.8-3.92-2.15-1.28 2.32 3.92 2.15 1.28-2.32m-1.56 2.81-3.92-2.15-1.28 2.32 3.92 2.15 1.28-2.32m-1.56 2.8-3.92-2.15-1.29 2.32 3.92 2.15 1.29-2.32m-3.11 5.61-3.92-2.15-1.29 2.32 3.92 2.15 1.29-2.32m1.56-2.8-3.92-2.15-1.29 2.32 3.92 2.15 1.29-2.32m-3.11 5.61-3.92-2.15-1.28 2.31 3.92 2.15 1.28-2.31"/>
</g>
<g id="Ammo_Bandoleer_Accessories_Chest" fill="#DBBC1A">
<path d="m99.57 36.97 1.6.88c.17.09.23.31.14.48l-.66 1.18a.36.36 0 0 1-.48.14l-1.6-.88 1-1.8z"/>
<path d="m100.75 37.61-.13-.07-1 1.8.13.07 1-1.8zm-.28-.15-.13-.07-1 1.8.14.07.99-1.8zm-4.82-2.64-1 1.8-1.6-.88a.36.36 0 0 1-.14-.48l.66-1.19a.36.36 0 0 1 .48-.14l1.6.89z"/>
<path d="m94.44 34.15-.13-.07-1 1.8.14.07.99-1.8zm2.01 8.45 1.6.88c.17.09.23.31.14.48l-.66 1.19a.36.36 0 0 1-.48.14l-1.6-.88 1-1.81z"/>
<path d="m97.63 43.24-.13-.07-1 1.8.13.07 1-1.8zm-.28-.15-.13-.07-1 1.8.13.07 1-1.8zm-4.82-2.64-1 1.8-1.6-.88a.36.36 0 0 1-.14-.48l.66-1.19c.1-.17.31-.23.48-.14l1.6.89z"/>
<path d="m91.32 39.78-.13-.07-1 1.8.13.07 1-1.8zm3.58 5.6 1.6.88c.17.09.23.31.14.48l-.66 1.18a.36.36 0 0 1-.48.14l-1.6-.88 1-1.8z"/>
<path d="m96.08 46.03-.13-.07-1 1.8.13.07 1-1.8zm-.28-.15-.13-.07-1 1.8.13.07 1-1.8zm-4.82-2.64-1 1.8-1.6-.88a.36.36 0 0 1-.14-.48l.66-1.19c.1-.17.31-.23.48-.14l1.6.89z"/>
<path d="m89.77 42.57-.13-.07-1 1.8.13.07 1-1.8zm3.57 5.64 1.6.88c.17.09.23.31.14.48l-.66 1.19a.36.36 0 0 1-.48.14l-1.6-.88 1-1.81z"/>
<path d="m94.52 48.85-.13-.07-1 1.8.13.07 1-1.8zm-.28-.15-.13-.07-1 1.8.13.07 1-1.8zm-4.82-2.64-1 1.8-1.6-.88a.36.36 0 0 1-.14-.48l.66-1.18c.1-.17.31-.23.48-.14l1.6.88z"/>
<path d="m88.21 45.39-.13-.07-1 1.8.13.07 1-1.8z"/>
</g>
<g id="Buckles_Bandoleer_Accessories_Chest" fill="#9A9A9A">
<path d="m104 27.77-2.88-1.58-1.63 2.93 2.88 1.58 1.63-2.93z"/>
<path d="m103.26 28.27-2.17-1.19-1.63 2.93 2.17 1.19 1.63-2.93zm.74-3.93-1.86-1.01 1.61-2.92 3.76 2.05-1.61 2.92-1.9-1.04.36-.65 1.06.58.89-1.61-2.07-1.13-.89 1.61 1.01.55"/>
</g>
</g></g>
<g id="Collar"><g id="None_Collar" class="option"/>
</g>
<g id="CollarDecals" mask="url(#CollarMask)"/>
<g id="Helmets" class="swappable" transform="translate(45,-62)"><g id="Helmet_Recon">
<g id="Left-Earcap_Recon"><g id="Ear-Cap_Left_Recon" fill="#701B1B">
<path d="m59.05 44.42 1.5.77-.67 1.25h-.81l-.02-2.02z"/>
<path d="m60.55 45.19 1.02 13.31-1.41-.16-.28-11.89.67-1.26zM60.16 58.34h-1.11l-.27-11.89h1.1l.28 11.89z"/>
<path d="M61.06 58.5v1.4H59.1l-.04-1.54 1.1-.02.9.16z"/>
<path d="M59.8 58.34v1.56h-.7l-.04-1.56h.74zM61.06 60.3v1.35l-1.92.19v-1.51h.66l1.26-.03z"/>
<path d="M59.8 60.33v1.44l-.66.07v-1.51h.66zM60.82 59.9v.4l-1.02.03h-.7v-.43h1.72z"/>
<path d="M59.1 59.9h.58v.43h-.58zM61.06 61.65h.56l.1 4.63-1.22 1.32v-5.88l.56-.07zM60.49 67.59l-1.2.9-.15-6.65 1.35-.14v5.89zM58.88 50.91h.59v2.33h-.53l-.06-2.33z"/>
</g>
</g>
<g id="Right-Earcap_Recon"><g id="Sensor-Stalk_Right_Recon" class="option" style="">
<g id="Sensor_Sensor-Stalk_Right_Recon" fill="#8F2121">
<path d="m12.57 42.31 5.46-23.69h.47l-.74 23.69h-5.19z"/>
<path d="M12.89 42.31h-.31l5.46-23.69h.31l-5.46 23.69zM15.46 42.31l1.58-14.22h1.16l-.45 14.22h-2.29z"/>
<path d="M18.19 28.46h-.93l-1.54 13.86h-.25l1.58-14.22h1.16l-.02.36zM12.57 47.53l3.62 9.05h1.42v-9.05h-5.04z"/>
<path d="m16.58 56.57-3.62-9.05h-.39l3.62 9.05h.39zM15.6 47.53l.99 5.6h1.03v-5.6H15.6z"/>
<path d="m16.78 52.78-.93-5.25h-.25l.99 5.6h1.03v-.35h-.84z"/>
</g>
<g id="Shaft_Sensor-Stalk_Right_Recon" fill="#000000">
<path d="M17.75 42.31h-5.18v.58h5.16l.02-.58zM17.59 47.53h-5.02v-.58h5.04l-.02.58zM17.74 42.9h-5.16l.21.43h4.93l.02-.43zM17.61 46.94h-5.04l.21-.43h4.83v.43zM19.12 18.62h-.62l-1.03 33.02h1.65V18.62z"/>
<path d="M18.33 50.21h.79v2.86h-.79zM18.33 53.07h-.04c-.46 0-.83-.64-.83-1.43 0-.79.37-1.43.83-1.43h.04v2.86z"/>
</g>
</g><g id="Ear-Cap_Right_Recon" fill="#6F1414">
<path d="m20.89 44.42-1.5.77.67 1.25h.81l.02-2.02z"/>
<path d="M19.39 45.19 18.37 58.5l1.41-.16.28-11.89-.67-1.26z"/>
<path d="M19.78 58.34h1.11l.27-11.89h-1.1l-.28 11.89z"/>
<path d="M18.88 58.5v1.4h1.96l.04-1.54-1.1-.02-.9.16z"/>
<path d="M20.14 58.34v1.56h.7l.04-1.56h-.74zM18.88 60.3v1.35l1.92.19v-1.51h-.66l-1.26-.03z"/>
<path d="M20.14 60.33v1.44l.66.07v-1.51h-.66zM19.11 59.9v.4l1.02.03h.69l.01-.43h-1.72z"/>
<path d="M20.26 59.9h.58v.43h-.58zM18.88 61.65h-.56l-.1 4.63 1.22 1.32v-5.88l-.56-.07zM19.45 67.59l1.2.9.15-6.65-1.35-.14v5.89zM21.06 50.91h-.59v2.33H21l.06-2.33z"/>
</g>
</g>
<g id="Helmet_Pieces_Recon">
<g id="Face_Recon" fill="#922525">
<path d="m22.95 68.65.78-6.92.8-.31.72-5.18s4.47 3.09 6.25 5.15c2.03 2.35 4.07 15.01 4.07 15.01l-12.62-7.75zM56.99 68.65l-.78-6.92-.8-.31-.72-5.18s-4.47 3.09-6.25 5.15c-2.03 2.35-4.07 15.01-4.07 15.01l12.62-7.75z"/>
</g>
<g id="Vents_Recon" fill="#000000">
<path d="m25.99 63.31-1.23-.9-.45.15-.03.52 1.11 1.07v-.59l.6-.25z"/>
<path d="m23.74 61.72.58.84.45-.15 1.23.9-.6.25 1.75 1.17 1.67-.85c-1.6-.7-3.04-1.52-4.28-2.48l-.8.32zM27.15 64.74a11.04 11.04 0 0 0-.87 5.95l1.51.93 1.03-7.72-1.67.84z"/>
<path d="m27.58 64.93.79-.4-.86 6.48-.88-.54-.01-.17h.76v-.4h-.78l-.01-.2v-.22h.93v-.4h-.93v-.12l.01-.31h1.04v-.4h-1.01v-.01l.05-.41h1.08v-.4h-1.02l.08-.43h.99v-.4h-.9l.09-.36.02-.06h.9v-.4h-.77l.05-.16.11-.27h.76v-.4h-.49z"/>
<path d="m26.28 70.69-3.32-2.04.78-6.92.58.84-.04.51 1.12 1.08v-.59l1.75 1.17a11.04 11.04 0 0 0-.87 5.92v.03z"/>
<path d="m24.6 62.78.8.78.6-.25-.94-.69-.46.16z"/>
<path d="M24.6 63.09v-.31l.8.78v.28l-.8-.75zM24.28 63.08l.32.02M25.05 68.83l-1.14-.65v.32l1.14.64v-.31zM27.58 64.93h.47v.4h-.76l.14-.32.15-.08zM27.12 65.76l-.13.4h.9v-.4h-.77zM26.88 66.59l-.07.28-.02.12h.99v-.4h-.9zM26.71 67.42l-.02.12-.03.28h1.08v-.4h-1.03zM26.61 68.25l-.02.4h1.04v-.4h-1.02zM26.58 69.07v.4h.93v-.4h-.93zM26.59 69.9l.03.4h.76v-.4h-.79z"/>
<g>
<path d="m53.95 63.31 1.23-.9.45.15.03.52-1.11 1.07v-.59l-.6-.25z"/>
<path d="m56.2 61.72-.58.84-.45-.15-1.23.9.6.25-1.75 1.17-1.67-.85c1.6-.7 3.04-1.52 4.28-2.48l.8.32zM52.79 64.74c.81 1.67 1.09 3.66.87 5.95l-1.51.93-1.03-7.72 1.67.84z"/>
<path d="m52.36 64.93-.79-.4.86 6.48.88-.54.01-.17h-.76v-.4h.78l.01-.2v-.22h-.93v-.4h.93v-.12l-.02-.31H52.3v-.4h1.01v-.01l-.05-.41h-1.08v-.4h1.02l-.08-.43h-.99v-.4h.9l-.09-.36-.02-.06h-.9v-.4h.77l-.05-.16-.11-.27h-.76v-.4h.49z"/>
<path d="m53.66 70.69 3.33-2.04-.78-6.92-.58.84.04.51-1.12 1.08v-.59l-1.75 1.17c.8 1.67 1.09 3.64.87 5.92l-.01.03z"/>
<path d="m55.34 62.78-.8.78-.6-.25.94-.69.46.16z"/>
<path d="M55.34 63.09v-.31l-.8.78v.28l.8-.75zM55.66 63.08l-.32.02M54.89 68.83l1.14-.65v.32l-1.14.64v-.31zM52.36 64.93h-.47v.4h.76l-.14-.32-.15-.08zM52.82 65.76l.13.4h-.9v-.4h.77zM53.06 66.59l.07.28.02.12h-.99v-.4h.9zM53.23 67.42l.02.12.03.28H52.2v-.4h1.03zM53.33 68.25l.02.4h-1.03v-.4h1.01zM53.36 69.07v.4h-.93v-.4h.93zM53.35 69.9l-.02.4h-.76v-.4h.78z"/>
</g>
</g>
<g id="Cheeks_Recon" fill="#C72929">
<path d="m24.76 52.7.5 3.54-.72 5.18-.8.31 1.02-9.03z"/>
<path d="M24.76 52.7s5.37 3.85 7.13 6.73c2.19 3.56 4.26 16.16 4.39 16.95l.01.04h-.69s-2.04-12.66-4.07-15.01c-1.79-2.07-6.25-5.15-6.25-5.15l-.52-3.56z"/>
<path d="m26.25 54.85.13.63 1.17.9-.08-.66-1.22-.87zM55.18 52.7l-.5 3.54.72 5.18.8.31-1.02-9.03z"/>
<path d="M55.18 52.7s-5.37 3.85-7.13 6.73c-2.19 3.56-4.26 16.16-4.39 16.95l-.01.04h.69s2.04-12.66 4.07-15.01c1.79-2.07 6.25-5.15 6.25-5.15l.52-3.56z"/>
</g>
<path fill="#000000" id="Visor_Recon" d="m38.94 76.41-1.37-22.04-.7-.17-8.9-2.78-.9-2.27.29.01c2.17.39 4.47.71 6.97.94l2.05 1.35c1.16.21 2.36.3 3.58.31H40c1.22-.02 2.42-.11 3.58-.31l2.05-1.35c2.5-.23 4.8-.55 6.96-.94l.29-.01-.9 2.27-8.9 2.78-.7.17L41 76.41h-2.06z"/>
<g id="Eyes-2_Recon" fill="#6E1212">
<path d="m26.16 48.93.79 2.17 9.91 3.1 1.41 22.22h-1.99s-2.14-13.31-4.39-16.98c-1.76-2.87-7.13-6.73-7.13-6.73l1-3.85.4.07z"/>
<path d="m27.05 49.1.92 2.31-1.01-.31-.79-2.17.88.17zM36.86 54.19l.7.17 1.37 22.04h-.66l-1.41-22.21zM53.78 48.93l-.79 2.17-9.91 3.1-1.41 22.22h1.99s2.14-13.31 4.39-16.98c1.76-2.87 7.13-6.73 7.13-6.73l-1-3.85-.4.07z"/>
<path d="m52.9 49.1-.92 2.31 1.01-.31.79-2.17-.88.17zM43.08 54.19l-.7.17L41 76.41h.66l1.42-22.22z"/>
<path d="M39.91 50.42a81.47 81.47 0 0 1-14.14-1.57h28.41a82.11 82.11 0 0 1-14.21 1.57h-.06z"/>
<path d="M39.94 51.75a23.36 23.36 0 0 1-3.58-.31l-2.05-1.35c1.78.16 3.66.28 5.66.33h.09c1.96-.06 3.81-.17 5.56-.33l-2.05 1.35c-1.17.21-2.38.3-3.61.31h-.02z"/>
</g>
<g id="Eyes-1_Recon" fill="#CE1A1A">
<path d="M24.57 48.85h.69L24.2 52.7l-1.76 15.96h-1.78a81.4 81.4 0 0 1 3.89-19.74l.02-.07z"/>
<path d="m25.76 48.85-1 3.85-1.81 15.96h-.52L24.2 52.7l1.06-3.85h.5zM55.37 48.85h-.69l1.06 3.85 1.76 15.96h1.78a81.4 81.4 0 0 0-3.89-19.74l-.02-.07z"/>
<path d="m54.18 48.85 1 3.85 1.81 15.96h.52L55.74 52.7l-1.06-3.85h-.5zM20.33 44.94h39.28v3.12H20.33z"/>
<path d="m37.44 46.49 2.05-.6v1.2l-2.05-.6zM42.5 46.49l-2.05-.6v1.2l2.05-.6zM24.57 48.85a81.3 81.3 0 0 0-3.91 19.81l.45-20.59h37.74l.45 20.59a81.4 81.4 0 0 0-3.91-19.81H24.57zM23.21 53.31l.98-.61M24.76 52.7h-.56M56.73 53.31l-.98-.61M55.18 52.7h.57"/>
</g>
<g id="Dome-2_Recon" fill="#000000">
<path d="M39.97 29.24v15.7h-19.1c0-5.89 7.6-15.7 19.1-15.7zM39.97 29.24v15.7h19.1c0-5.89-7.6-15.7-19.1-15.7z"/>
<path d="M38.05 44.94V28.66l1.92-.1 1.92.1v16.27h-3.84z"/>
</g>
<g id="Dome-1_Recon" fill="#8E1C1C">
<path d="M38.05 44.94V28.18c-2.96.39-5.75 1.3-8.32 2.84v13.91h8.32zM41.89 44.94V28.18c2.96.39 5.75 1.3 8.32 2.84v13.91h-8.32z"/>
</g>
</g>
<g id="Macrobinoculars_Brow_Recon" class="toggle" style="">
<g id="Arms_Macrobinoculars_Brow_Recon" fill="#000000">
<path d="m22.29 37.79-.6-.17-3.95 9.47v.38l.51.01 4.04-9.69zM18.97 48.37h1.04v.94h-1.04zM18.23 48.37h.5v.94h-.5zM18.23 49.31h.5v1.61h-.5zM17.74 47.48h.49v3.44h-.49zM17.74 45.44l-.54.31v2.15l.54-.41v-2.05z"/>
<path d="m17.74 47.48-.79.11-.01 2.53.8.81v-3.45zM18.73 48.37h.24v.94h-.24zM17.74 45.44l.24-.42.72-.24-.97 2.32.01-1.66zM17.98 45.01v-.4l-.78.49v.65l.54-.31.24-.43zM17.98 45.01v-.91l.72-.7v1.36l-.72.25zM18.22 47.48h1.11l-.05.89h-1.06v-.89z"/>
<path d="M19.33 47.48h-1.11l1.06.89.05-.89zM18.56 46.74l.78.27v.46h-1.08l.3-.73zM18.73 50.92v-1.61h.48l-.12 1.61h-.36zM18.73 43.4l2.79-6.76.05.93.12.04-2.96 7.1V43.4z"/>
<path d="m19.96 40.81-.88 2.09v.54l.89-2.12-.01-.51zM21.24 37.76l-.88 2.09v.55l.89-2.12-.01-.52zM57.65 37.79l.6-.17 3.95 9.47v.38l-.51.01-4.04-9.69zM59.93 48.37h1.04v.94h-1.04zM61.21 48.37h.5v.94h-.5zM61.21 49.31h.5v1.61h-.5zM61.71 47.48h.49v3.44h-.49zM62.2 45.44l.53.31v2.15l-.53-.41v-2.05z"/>
<path d="m62.2 47.48.78.11.02 2.53-.8.81v-3.45zM60.97 48.37h.24v.94h-.24zM62.2 45.44l-.24-.42-.72-.24.97 2.32-.01-1.66zM61.96 45.01v-.4l.78.48v.65l-.53-.31-.25-.42z"/>
<path d="M61.96 45.01v-.91l-.72-.7v1.36l.72.25zM61.72 47.48H60.6l.05.89h1.06l.01-.89z"/>
<path d="M60.6 47.48h1.11l-1.06.89-.05-.89zM61.38 46.74l-.78.27v.46h1.08l-.3-.73zM61.21 50.92v-1.61h-.49l.12 1.61h.37zM61.21 43.4l-2.79-6.76-.05.93-.12.04 2.96 7.1V43.4z"/>
<path d="m59.98 40.81.88 2.09v.54l-.89-2.12.01-.51zM58.7 37.76l.88 2.09v.55l-.89-2.12.01-.52z"/>
</g>
<g id="Main_Macrobinoculars_Brow_Recon" fill="#444444">
<path d="M25.59 27.15h28.76v1.18H25.59zM30.08 34.31l-.01-1.83 1.27-1.37v1.8l-1.26 1.4z"/>
<path d="m30.07 32.48.01 1.83h-6.44l.79-1.83h5.64z"/>
<path d="M24.77 32.79h.79v.6h-.79zM24.77 33.4h.79v.74h-.79zM26.07 32.79h.79v.6h-.79zM26.07 33.4h.79v.74h-.79zM27.38 32.79h.79v.6h-.79zM27.38 33.4h.79v.74h-.79zM28.68 32.79h.79v.6h-.79zM28.68 33.4h.79v.74h-.79zM29.08 34.31l-3.51 3.05h-1.93v-3.05h5.44z"/>
<path d="m24.77 37.36-.97.88-2.24-.67 1.51-3.26h.56v3.05h1.14z"/>
<path d="m21.56 37.58-.05-.93V35.2l4.07-8.05v1.18l-1.16 4.15-.79 1.83h-.56l-1.51 3.27z"/>
<path d="M21.76 34.71v1.93l3.55-8.12v-.75l-3.55 6.94z"/>
<path d="m22.52 33.24 1.29-4.65 1.1.33s.04 1.34-.29 2.51c-.2.69-.89 2.07-.89 2.07l-1.21-.26z"/>
<path d="M23.83 28.59c.2.06.08 1.15-.27 2.43-.35 1.28-.81 2.28-1.01 2.22s-.08-1.14.27-2.43c.34-1.29.8-2.28 1.01-2.22z"/>
<path d="M23.56 29.43c.12.03.03.72-.19 1.53s-.5 1.44-.62 1.41c-.12-.03-.03-.72.19-1.53s.5-1.44.62-1.41zM23.92 28.95l.99.27M23.9 29.32l1 .27M23.87 29.59l1.02.27M23.81 29.93l1.04.26M23.76 30.19l1.06.24M23.66 30.62l1.08.33M23.6 30.84l1.09.31M23.48 31.28l1.09.31M23.42 31.48l1.08.32M23.26 31.95l1.04.31M23.18 32.16l1.04.29M23.05 32.5l1.01.3M22.98 32.65l1.01.3M22.85 32.9l1.01.31M22.75 33.07l1.04.29M49.86 34.31l.01-1.83-1.27-1.37.01 1.8 1.25 1.4z"/>
<path d="m49.87 32.48-.01 1.83h6.44l-.79-1.83h-5.64zM50.86 34.31l3.51 3.05h1.93v-3.05h-5.44z"/>
<path d="m55.17 37.36.97.88 2.24-.67-1.51-3.26h-.57v3.05h-1.13z"/>
<path d="m58.38 37.58.05-.93V35.2l-4.07-8.05v1.18l1.16 4.15.79 1.83h.56l1.51 3.27z"/>
<path d="M58.18 34.71v1.93l-1.28-2.92h-.6l-.59-1.36-1.09-3.84v-.75l3.56 6.94zM25.59 28.33h28.76l1.16 4.15h-5.64l-1.27-1.37H31.34l-1.27 1.37h-5.64l1.16-4.15z"/>
<path d="M31.34 31.11H48.6l.01 1.8-.45-.43H31.78l-.45.43.01-1.8zM55.01 33.07h-4.38v.65h4.72l-.34-.65zM55.26 29.49l.22.52v.55l-.22-.56v-.51zM55.64 30.25l.22.52v.55l-.23-.56.01-.51zM56.01 31.01l.22.52v.54l-.23-.55.01-.51zM56.38 31.76l.22.52v.54l-.23-.56.01-.5zM51.46 26.55h2.55v.6h-2.55zM51.46 26.67l-.35.2v.28h.35v-.48z"/>
<path d="m54 26.67.35.2v.28H54v-.48z"/>
</g>
<path fill="#FFD600" id="Visor_Macrobinoculars_Brow_Recon" d="M53.58 27.43a.27.27 0 0 1 .27.27v.07a.27.27 0 0 1-.27.27H26.36a.27.27 0 0 1-.27-.27v-.07a.27.27 0 0 1 .27-.27h27.22z"/>
</g>
</g></g>
<g id="HelmetsDecals" mask="url(#HelmetsMask)"/>
<g id="Shoulders">
<g id="Left-Shoulder"><g id="Legacy-x2_Shoulder_Left" class="option">
<path id="Plate-2_Shoulder_Left_Legacy-x2" d="m115.99 15.27-5.8 8.69 5.95 8.29 9.39-2.29 5.9 3.63 4.41-1.15-19.85-17.17z" fill="#9F2121"/>
<path id="Trauma-Plate-2_Shoulder_Legacy-x2_Left" class="toggle" style="" d="m131.69 31.78 2.85-.74-17.1-14.9-5.19 7.75 4.6 6.43 8.64-2.17 6.2 3.63z" fill="#000000"/>
<path id="Plate-1_Shoulder_Left_Legacy-x2" d="m108.85 10.82-2.61 10.1 8.36 5.89 8.12-5.22 6.77 1.51 3.79-2.53-24.43-9.75z" fill="#8C1919"/>
<path id="Trauma-Plate-1_Shoulder_Legacy-x2_Left" class="toggle" style="" d="m129.14 21.3 2.45-1.64-21.09-8.46-2.33 9.02 6.47 4.56 7.43-4.88 7.07 1.4z" fill="#000000"/>
</g></g>
<g id="Right-Shoulder"><g id="Legacy-x3_Shoulder_Right" class="option">
<path id="Plate-3_Shoulder_Right_Legacy-x3" d="m50.05 19.89 7.33 7.47-4.29 9.25-9.66-.51-5.11 4.66-4.55-.32 16.28-20.55z" fill="#9225BA"/>
<path id="Trauma-Plate-3_Shoulder_Legacy-x3_Right" class="toggle" style="" d="m37.7 39.03-2.94-.21L48.8 21.04l6.54 6.67-3.32 7.16-8.89-.55-5.43 4.71z" fill="#000000"/>
<path id="Plate-2_Shoulder_Right_Legacy-x3" d="m54.01 15.27 5.8 8.69-5.95 8.29-9.39-2.29-5.9 3.63-4.41-1.15 19.85-17.17z" fill="#7A1EAC"/>
<path id="Trauma-Plate-2_Shoulder_Legacy-x3_Right" class="toggle" style="" d="m38.31 31.78-2.85-.74 17.1-14.9 5.19 7.75-4.6 6.43-8.64-2.17-6.2 3.63z" fill="#000000"/>
<path id="Plate-1_Shoulder_Right_Legacy-x3" d="m61.15 10.82 2.61 10.1-8.36 5.89-8.12-5.22-6.77 1.51-3.79-2.53 24.43-9.75z" fill="#7E27A1"/>
<path id="Trauma-Plate-1_Shoulder_Legacy-x3_Right" class="toggle" style="" d="m40.86 21.3-2.45-1.64L59.5 11.2l2.33 9.02-6.47 4.56-7.44-4.88-7.06 1.4z" fill="#000000"/>
</g></g>
</g>
<g id="ShouldersDecals" mask="url(#ShouldersMask)"/>
<g id="Gauntlets">
<g id="Left-Gauntlets"><g id="Heavy_Gauntlet_Left" class="option">
<g id="Top-2_Heavy_Gauntlet_Left" fill="#000000">
<path d="m140.68 79.64 1.74.13 1.43 8.11-1.48 1.23-1.69-9.47z"/>
<path d="m142.25 88.39 1.82 10.57-.95 1.28 1.11 6.22-.44.32-3.07-17.02 1.53-1.37z"/>
<circle cx="142.26" cy="85.76" r=".38"/>
</g>
<g id="Top-1_Heavy_Gauntlet_Left" fill="#474747">
<path d="m139.42 107.96 4.36-1.17-3.07-17.02 1.54-1.38-1.66-9.27-6.59-.67 5.42 29.51z"/>
<path d="m138.89 78.94 1.82 10.82"/>
</g>
<path id="Accent-Top_Heavy_Gauntlet_Left" d="m142.53 104.17-2.77.56.42 2.15 2.77-.65-.42-2.06zm-1.75-9.01-2.77.56 1.62 8.4 2.77-.56-1.62-8.4zm-2.49-15.6-3.13-.24 1.64 9.21 2.91-.59-1.42-8.38z" fill="#841C1C"/>
<path id="Bottom_Heavy_Gauntlet_Left" d="M134.08 78.88c-3.37.13-6.88 1.57-9.06 4.4a3.55 3.55 0 0 0-.58 3.22l7.01 22.84 7.98-1.39-5.35-29.07z" fill="#2C2C2C"/>
<g id="Accent-Bottom_Heavy_Gauntlet_Left" fill="#7E1F1F">
<path d="m139.42 107.96-7.98 1.39-.43-1.41 8.13-1.52.28 1.54zm-4.98-27.1c-4.35.43-7.98 2.01-9.69 6.7l-.32-1.04c-.27-.87-.19-1.8.2-2.61l.41-.65c2.19-2.81 5.68-4.24 9.03-4.37l.37 1.97z"/>
<path d="m133.31 79.53-3.52.69 2.77 13.89 3.52-.69-2.77-13.89z"/>
<path d="m132.9 79.88-2.59.51 2.56 12.85 2.59-.51-2.56-12.85z"/>
<path d="m130.3 80.39-.51-.17m3.52-.69-.41.35m3.18 13.54-.62-.7m-2.9 1.4.37-.89"/>
</g><g id="No-Device_Attachment_Heavy_Gauntlet_Left" class="option"/>
</g></g>
<g id="Right-Gauntlets"><g id="Heavy_Gauntlet_Right" class="option">
<g id="Top-2_Heavy_Gauntlet_Right" fill="#000000">
<path d="m29.5 79.64-1.74.13-1.43 8.11 1.48 1.23 1.69-9.47z"/>
<path d="m27.93 88.39-1.82 10.57.95 1.28-1.11 6.22.44.32 3.07-17.02-1.53-1.37z"/>
<circle cx="27.92" cy="85.76" r=".38"/>
</g>
<g id="Top-1_Heavy_Gauntlet_Right" fill="#474747">
<path d="m30.76 107.96-4.36-1.17 3.07-17.02-1.54-1.38 1.66-9.27 6.59-.67-5.42 29.51z"/>
<path d="m31.29 78.94-1.82 10.82"/>
</g>
<path id="Accent-Top_Heavy_Gauntlet_Right" d="m27.66 104.17 2.77.56-.42 2.15-2.77-.65.42-2.06zm1.74-9.01 2.77.56-1.62 8.4-2.77-.56 1.62-8.4zm2.49-15.6 3.13-.24-1.64 9.21-2.91-.59 1.42-8.38z" fill="#841C1C"/>
<path id="Bottom_Heavy_Gauntlet_Right" d="M36.11 78.88c3.37.13 6.88 1.57 9.06 4.4.71.92.92 2.12.58 3.22l-7.01 22.84-7.98-1.39 5.35-29.07z" fill="#2C2C2C"/>
<g id="Accent-Bottom_Heavy_Gauntlet_Right" fill="#7E1F1F">
<path d="m30.76 107.96 7.98 1.39.43-1.41-8.13-1.52-.28 1.54zm4.98-27.1c4.35.43 7.98 2.01 9.69 6.7l.32-1.04c.27-.87.19-1.8-.2-2.61l-.41-.65c-2.19-2.81-5.68-4.24-9.03-4.37l-.37 1.97z"/>
<path d="m36.88 79.53 3.52.69-2.77 13.89-3.52-.69 2.77-13.89z"/>
<path d="m37.29 79.88 2.59.51-2.56 12.85-2.59-.51 2.56-12.85z"/>
<path d="m39.88 80.39.51-.17m-3.51-.69.41.35M34.1 93.42l.62-.7m2.9 1.4-.37-.89"/>
</g><g id="No-Device_Attachment_Heavy_Gauntlet_Right" class="option"/>
</g></g>
</g>
<g id="GauntletsDecals" mask="url(#GauntletsMask)"/>
<g id="Shins">
<g id="Left-Shin"><g id="Legacy_Shin_Left" class="option">
<path id="Plate-3_Legacy-Shin_Left" d="m106.28 197.61 4.11 15.38s4.92.96 7.57.65c2.65-.31 6.2-1.73 6.2-1.73l-1.54-16.54-7.09 4.38-9.25-2.14" fill="#7F1717"/>
<path id="Plate-2_Legacy-Shin_Left" d="m103.21 188.12 2.4 9.33 9.92 2.29 7.71-4.76-.77-9.42-8.66 4.43-10.6-1.87" fill="#7E1414"/>
<path id="Plate-1_Legacy-Shin_Left" d="m106.81 174.99-5.99 6.53 1.7 6.48 11.29 2 9.26-4.74-.62-7.98-7.29-3.49-8.35 1.2" fill="#8D2222"/>
<path id="Trauma-Plate-3_Legacy-Shin_Left" class="toggle" style="" d="m121.19 198.24-4.76 2.94c-.38.24-.84.31-1.28.21l-6.5-1.5 3.11 11.63c1.5.25 4.28.65 6.01.44 1.54-.18 3.41-.77 4.59-1.18l-1.17-12.54" fill="#363636"/>
<path id="Trauma-Plate-2_Legacy-Shin_Left" class="toggle" style="" d="m120.98 188.23-6.39 3.27c-.33.17-.71.23-1.08.16l-8.01-1.42 1.49 5.8 8.23 1.9 6.23-3.85-.47-5.86" fill="#2E2E2E"/>
<path id="Trauma-Plate-1_Legacy-Shin_Left" class="toggle" style="" d="m107.66 176.57-4.95 5.41 1.19 4.54 9.65 1.71 7.75-3.96-.46-5.89-5.94-2.85-7.24 1.04" fill="#383838"/>
<g id="Ridge_Legacy-Shin_Left" class="toggle" style="" fill="#471515">
<path d="m115.66 213.72.59.02c-.32 0-.63-.01-.93-.05l.34.03m1.23-25.24 1.15 9.78-2.5 1.55-3.59-.83-2.06-9.61 3.93.7 3.07-1.59"/>
<path d="m118.04 198.25 1.76 15.04c-1.13.24-2.37.44-3.54.45l-.59-.02-.34-.02-.23-.02-3.15-14.71 3.59.83 2.5-1.55m-11.22-23.21-.01-.05 4.01-1.6 4.34.4.01.06h-.03.03l1.71 14.63-3.08 1.57-3.93-.7-3.05-14.31"/>
<path d="m110.83 173.38 2.99 16.67m-.01 0 1.72 9.75m0 0 2.28 13.84"/>
</g>
</g></g>
<g id="Right-Shin"><g id="Legacy_Shin_Right" class="option">
<path id="Plate-3_Legacy-Shin_Right" d="m63.61 197.61-4.11 15.38s-4.92.96-7.57.65c-2.65-.31-6.2-1.73-6.2-1.73l1.55-16.54 7.09 4.38 9.24-2.14" fill="#7F1717"/>
<path id="Plate-2_Legacy-Shin_Right" d="m66.68 188.12-2.4 9.33-9.92 2.29-7.71-4.76.77-9.42 8.66 4.43 10.6-1.87" fill="#7E1414"/>
<path id="Plate-1_Legacy-Shin_Right" d="m63.08 174.99 5.99 6.53-1.7 6.48-11.29 2-9.26-4.74.62-7.98 7.29-3.49 8.35 1.2" fill="#8D2222"/>
<path id="Trauma-Plate-3_Legacy-Shin_Right" class="toggle" style="" d="m48.71 198.24 4.76 2.94c.38.24.84.31 1.28.21l6.5-1.5-3.11 11.63c-1.5.25-4.28.65-6.01.44a23.97 23.97 0 0 1-4.59-1.18l1.17-12.54" fill="#363636"/>
<path id="Trauma-Plate-2_Legacy-Shin_Right" class="toggle" style="" d="m48.91 188.23 6.39 3.27c.33.17.71.23 1.08.16l8.01-1.42-1.49 5.8-8.23 1.9-6.23-3.85.47-5.86" fill="#2E2E2E"/>
<path id="Trauma-Plate-1_Legacy-Shin_Right" class="toggle" style="" d="m62.23 176.57 4.95 5.41-1.18 4.54-9.65 1.71-7.75-3.96.46-5.89 5.94-2.85 7.23 1.04" fill="#383838"/>
<g id="Ridge_Legacy-Shin_Right" class="toggle" style="" fill="#471515">
<path d="m54.23 213.72-.59.02c.32 0 .63-.01.94-.05l-.35.03M53 188.48l-1.15 9.78 2.5 1.55 3.59-.83 2.06-9.61-3.93.7-3.07-1.59"/>
<path d="m51.86 198.25-1.76 15.04c1.13.24 2.37.44 3.54.45l.59-.02.34-.02.23-.02 3.15-14.71-3.59.83-2.5-1.55m11.21-23.21.01-.05-4.01-1.6-4.34.4-.01.06h.03-.03L53 188.48l3.08 1.57 3.93-.7 3.06-14.31"/>
<path d="m59.06 173.38-2.99 16.67m.01 0-1.72 9.75m0 0-2.28 13.84"/>
</g>
</g></g>
</g>
<g id="ShinsDecals" mask="url(#ShinsMask)"/>
<g id="Foot">
<g id="Left-Ankle"><g id="Heavy_Ankle_Left" class="option">
<path id="Plate_Heavy-Ankle_Left" d="m107.19 218.98.36 3.6 7.43 9.26 7.24-3.25 7.88-2.03-5.95-10.52c-3.01-.42-6.51-.06-10.55 1.15l-2.25 1.97-4.16-.18" fill="#292929"/>
<path id="Trim_Heavy-Ankle_Left" d="m113.6 217.2.85 1.02-2.65 2.25-3-.13.11 1.46 6.44 7.92 6.46-3.01 7.78-1.84.81 1.62-8.16 2.1-7.24 3.25-7.43-9.26-.36-3.6 4.16.18 2.23-1.96" fill="#982323"/>
</g></g>
<g id="Left-Toe"><g id="None_Toe_Left" class="option"/>
</g>
<g id="Right-Ankle"><g id="Heavy_Ankle_Right" class="option">
<path id="Plate_Heavy-Ankle_Right" d="m62.68 218.98-.36 3.6-7.43 9.26-7.24-3.25-7.88-2.03 5.95-10.52c3-.42 6.51-.06 10.55 1.15l2.25 1.97 4.16-.18" fill="#292929"/>
<path id="Trim_Heavy-Ankle_Right" d="m56.27 217.2-.85 1.02 2.65 2.25 3.01-.13-.11 1.46-6.44 7.92-6.46-3.01-7.78-1.84-.81 1.62 8.16 2.1 7.24 3.25 7.43-9.26.36-3.6-4.16.18-2.24-1.96" fill="#982323"/>
</g></g>
<g id="Right-Toe"><g id="None_Toe_Right" class="option"/>
</g>
</g>
<g id="FootDecals" mask="url(#FootMask)"/>
<g id="Knees">
<g id="Left-Knee"><g id="Legacy_Knee_Left" class="option">
<g id="Missiles_Legacy-Knee_Left" class="toggle" style="display:none"/>
<path id="Plate-2_Legacy-Knee_Left" d="m117.29 162.86-4.01-2.79-8.96 1.38-3.49 3.94 2.88 9.64h7.1l6.7-2.13-.22-10.04z" fill="#313131"/>
<path id="Plate-1_Legacy-Knee_Left" d="m118.65 156.34-5.14-3.57-11.49 1.78-4.48 5.06 3.69 12.35 9.36-.08 8.32-2.65-.26-12.89z" fill="#7C2323"/>
</g></g>
<g id="Right-Knee"><g id="Legacy_Knee_Right" class="option">
<g id="Missiles_Legacy-Knee_Right" class="toggle" style="display:none"/>
<path id="Plate-2_Legacy-Knee_Right" d="m52.6 162.86 4.01-2.79 8.97 1.38 3.49 3.94-2.88 9.64h-7.1l-6.7-2.13.21-10.04z" fill="#313131"/>
<path id="Plate-1_Legacy-Knee_Right" d="m51.24 156.34 5.14-3.57 11.49 1.78 4.48 5.06-3.69 12.35-9.36-.08-8.32-2.65.26-12.89z" fill="#7C2323"/>
</g></g>
</g>
<g id="KneesDecals" mask="url(#KneesMask)"/>
<g id="Thighs">
<g id="Left-Thigh"><g id="Heavy_Thigh_Left" class="option">
<g id="Thigh_Heavy-Thigh_Left" fill="#373737">
<path d="m97.62 118.12-5.78 7.32 6.6 26.24 4.49 1.59-3.13-29.91-2.18-5.24m14.75-1.53 7.17 5.98-1.03 27.03-4.06 2.47-3.13-29.91 1.05-5.57"/>
<path d="m112.37 116.59-14.76 1.52 2.19 5.24 11.51-1.19 1.06-5.57m-1.05 5.58-11.51 1.19 3.13 29.91 11.51-1.19-3.13-29.91"/>
</g>
<g id="Trim_Heavy-Thigh_Left" fill="#891C1C">
<path d="m112.95 114.3-16.38 1.69 1.04 2.13 14.76-1.52.58-2.3"/>
<path d="m119.26 120.01-6.31-5.72-.58 2.3 7.17 5.98-.28-2.56m-27.67 2.86 4.99-6.88 1.04 2.13-5.78 7.32-.25-2.57"/>
</g>
</g></g>
<g id="Right-Thigh"><g id="Heavy_Thigh_Right" class="option">
<g id="Thigh_Heavy-Thigh_Right" fill="#373737">
<path d="m72.28 118.12 5.78 7.32-6.6 26.24-4.49 1.59 3.13-29.91 2.18-5.24m-14.76-1.53-7.17 5.98 1.03 27.03 4.06 2.47 3.13-29.91-1.05-5.57"/>
<path d="m57.52 116.59 14.76 1.52-2.19 5.24-11.51-1.19-1.06-5.57m1.06 5.58 11.51 1.19-3.13 29.91-11.51-1.19 3.13-29.91"/>
</g>
<g id="Trim_Heavy-Thigh_Right" fill="#891C1C">
<path d="m56.94 114.3 16.38 1.69-1.04 2.13-14.76-1.52-.58-2.3"/>
<path d="m50.63 120.01 6.31-5.72.58 2.3-7.17 5.98.28-2.56m27.68 2.86-4.99-6.88-1.04 2.13 5.78 7.32.25-2.57"/>
</g>
</g></g>
</g>
<g id="ThighsDecals" mask="url(#ThighsMask)"/>
<g id="Groin"><g id="Basic_Groin" class="option">
<path id="Groin-Plate_Basic" d="M78.67 122.29 68.22 99.4h33.42l-10.45 22.89-6.26 5.46-6.26-5.46z" fill="#891C1C"/>
<path id="Trauma-Plating_Groin" class="toggle" style="" d="m79.77 120.38-8.61-18.86H98.7l-8.61 18.86-5.16 4.49-5.16-4.49z" fill="#272727"/>
</g>
</g>
<g id="GroinDecals" mask="url(#GroinMask)"/>
<g id="Waist">
<g id="Accessories_Waist">
<g id="Kama" class="toggle" style="">
<g id="Clean_Kama" class="option">
<path id="Trim_Kama-Clean" d="m101.37 83.6 3.59 57.21 26.42 17.47-20.04-77.38-9.97 2.7zm-32.82 0-3.59 57.21-26.42 17.47L58.58 80.9l9.97 2.7z" fill="#811C1C"/>
<path id="Main_Kama-Clean" d="m103.25 83.48 3.47 55.33 23.83 16.29-19.22-74.21-8.08 2.59zm-36.58 0-3.47 55.33-23.84 16.29 19.22-74.21 8.09 2.59z" fill="#000000"/>
</g></g>
<g id="Loin-Cloth" class="toggle" style="display:none"/>
<g id="Left-Holster" class="toggle" style=""><g id="Belt-Holster_Left" class="option">
<g id="Weapon_Belt-Holster-Left">
<g id="Main_Weapon_Belt-Holster-Left" fill="#4D4D4D">
<path d="m116.79 99.11-.24-3.6.62-.04-.15-2.26-.62.04-.08-1.18c-.03-.38.46-.73 1.1-.77l5.37-.36c.63-.04 1.17.23 1.19.62l.08 1.18-.62.04.15 2.26.62-.04.24 3.6-1.46.1.67 9.95-4.73.31-.67-9.95-1.47.1z"/>
<path d="m123.79 98.11-.84.06.8 11.96-4.73.31-.8-11.96-.84.06-.18-2.73 6.41-.42.18 2.72zm-1.74-6.33-3.8.25.25 3.69 3.8-.25-.25-3.69z"/>
<path d="m119.38 99.49-.62.04.63 9.4.62-.04-.63-9.4zm1.44-2.26-.62.04.63 9.4.62-.04-.63-9.4zm1.74 2.05-.62.04.63 9.4.62-.04-.63-9.4z"/>
</g>
<g id="Accent_Weapon_Belt-Holster-Left" fill="#000000">
<path d="m119.09 96.06.03.38 2.68-.18-.03-.38-2.68.18z"/>
<path d="m119.11 96.44.03.38 2.68-.18-.03-.38-2.68.18zm-.05-.76.02.38 2.68-.18-.03-.38-2.67.18zm-.31-4.63.03.38 2.68-.18-.03-.38-2.68.18z"/>
<path d="m118.88 91.99-.62.04.25 3.69.62-.04-.25-3.69zm3.17-.21-.62.04.25 3.69.62-.04-.25-3.69zm-.12 7.54-.94.06.63 9.4.94-.06-.63-9.4zm-1.6.1-.94.06.63 9.4.94-.06-.63-9.4z"/>
</g>
</g>
<path id="Holster_Belt-Holster-Left" d="m118.4 112.89-2.47-14.99 8.29 10.56.79 20.68c-1.44 1.89-3.04 2.08-4.84.36l-1.77-16.61z" fill="#6F4521"/>
</g>
</g>
<g id="Right-Holster" class="toggle" style=""><g id="Belt-Holster_Right" class="option">
<g id="Weapon_Belt-Holster-Right">
<g id="Main_Weapon_Belt-Holster-Right" fill="#4D4D4D">
<path d="m53.1 99.11.24-3.6-.62-.04.15-2.26.62.04.08-1.18c.03-.38-.47-.73-1.1-.77l-5.37-.36c-.63-.04-1.17.23-1.19.62l-.08 1.18.62.04-.15 2.26-.62-.04-.24 3.6 1.46.1-.67 9.95 4.73.31.67-9.95 1.47.1z"/>
<path d="m46.1 98.11.84.06-.8 11.96 4.73.31.8-11.96.84.06.18-2.73-6.41-.42-.18 2.72zm1.74-6.33 3.8.25-.25 3.69-3.8-.25.25-3.69z"/>
<path d="m50.51 99.49.62.04-.63 9.4-.62-.04.63-9.4zm-1.44-2.26.62.04-.63 9.4-.62-.04.63-9.4zm-1.74 2.05.62.04-.63 9.4-.62-.04.63-9.4z"/>
</g>
<g id="Accent_Weapon_Belt-Holster-Right" fill="#000000">
<path d="m50.8 96.06-.03.38-2.68-.18.02-.38 2.69.18z"/>
<path d="m50.78 96.44-.03.38-2.68-.18.03-.38 2.68.18zm.05-.76-.02.38-2.68-.18.03-.38 2.67.18zm.31-4.63-.02.38-2.68-.18.03-.38 2.67.18z"/>
<path d="m51.01 91.99.62.04-.25 3.69-.62-.04.25-3.69zm-3.17-.21.62.04-.25 3.69-.62-.04.25-3.69zm.12 7.54.94.06-.63 9.4-.94-.06.63-9.4zm1.6.1.94.06-.63 9.4-.94-.06.63-9.4z"/>
</g>
</g>
<path id="Holster_Belt-Holster-Right" d="m51.49 112.89 2.47-14.99-8.29 10.56-.79 20.68c1.44 1.89 3.04 2.08 4.84.36l1.77-16.61z" fill="#6F4521"/>
</g>
</g>
<g id="Left-Trophy" class="toggle" style="display:none"/>
<g id="Right-Trophy" class="toggle" style="display:none"/>
</g>
<g id="Under-Belt"><g id="Girth-Belt" class="option" fill="#581E1E">
<path d="M84.93 84.93c-9.33 0-27.98-2.25-27.98-2.25l.61-1.91 27.37 2.25 27.37-2.25.6 1.91c.01 0-18.65 2.25-27.97 2.25z"/>
<path d="M84.93 86.84c-9.52 0-28.56-2.25-28.56-2.25l.58-1.91 27.98 2.25 27.98-2.25.58 1.91s-19.04 2.25-28.56 2.25z"/>
<path d="M84.93 88.75c-9.67 0-28.99-2.25-28.99-2.25l.43-1.91 28.56 2.25 28.56-2.25.43 1.91c0-.01-19.32 2.25-28.99 2.25z"/>
<path d="M84.93 90.65c-9.79 0-29.36-2.25-29.36-2.25l.37-1.91 28.99 2.25 28.99-2.25.37 1.91s-19.57 2.25-29.36 2.25z"/>
<path d="M84.93 92.56c-9.9 0-29.69-2.25-29.69-2.25l.33-1.91 29.36 2.25 29.36-2.25.33 1.91s-19.79 2.25-29.69 2.25z"/>
<path d="M84.93 94.47c-10 0-30-2.25-30-2.25l.31-1.91 29.69 2.25 29.69-2.25.31 1.91c0-.01-20 2.25-30 2.25z"/>
<path d="M84.93 96.37c-10.1 0-30.31-2.25-30.31-2.25l.31-1.91 30 2.25 30-2.25.31 1.91s-20.21 2.25-30.31 2.25z"/>
<path d="M84.93 98.28c-10.21 0-30.62-2.25-30.62-2.25l.32-1.91 30.31 2.25 30.31-2.25.32 1.91c-.02 0-20.43 2.25-30.64 2.25z"/>
<path d="M84.93 100.19c-10.32 0-30.97-2.25-30.97-2.25l.34-1.91 30.62 2.25 30.62-2.25.35 1.91c.01-.01-20.64 2.25-30.96 2.25z"/>
<path d="M84.93 102.09c-10.45 0-31.36-2.25-31.36-2.25l.39-1.91 30.97 2.25 30.97-2.25.39 1.91s-20.91 2.25-31.36 2.25z"/>
</g>
</g>
<g id="Belt"><g id="Pouch-Belt-6" class="option">
<path id="Main_Pouch-Belt-6" d="M115.21 92.95c-6.82.61-22.4 2.83-30.27 2.83-7.94 0-23.52-2.23-30.26-2.82l1.01-7.93c5.53.49 21.56 2.74 29.26 2.74 7.47 0 23.17-2.23 29.07-2.76l1.19 7.94z" fill="#000000"/>
<path id="Buckle_Pouch-Belt-6" d="M79.37 87.01h11.28v9.21H79.37z" fill="#721515"/>
<g id="Pouches_Pouch-Belt-6" fill="#6B401B">
<path d="M70.81 84.98c-.29-.02-.58.03-.84.13l-2.1.82 8.08.46 2.19-.94c-.01.01-5.7-.36-7.33-.47z"/>
<path d="M78.41 85.73a.24.24 0 0 0-.1-.22.26.26 0 0 0-.24-.03l-2.14.91-1.05 12.41a7.2 7.2 0 0 1 2.15-.84c.41-.08.7-.43.71-.85.14-3.79.29-7.6.67-11.38z"/>
<path d="m75.94 86.4-8.08-.46c-.05 1.89-.23 3.77-.33 5.65-.11 2.08-.15 4.18-.34 6.28-.01.15.04.3.14.41.1.11.25.18.4.18 2.32-.01 4.63.13 6.93.4a.5.5 0 0 0 .4-.12.52.52 0 0 0 .19-.37l.37-5.34.32-6.63z"/>
<path d="m75.94 86.4-8.08-.46-.38 3.14a2.73 2.73 0 0 0 2.58 3.07l2.97.17a2.77 2.77 0 0 0 2.93-2.76l-.02-3.16z"/>
<path d="M71.64 90.75c.29.02.51.26.49.55a.53.53 0 0 1-.55.49.52.52 0 0 1-.49-.55c.02-.28.27-.5.55-.49zm-11.99-7.28c-.31-.02-.62.03-.91.16l-1.86.81 7.38.42 2-.95-6.61-.44z"/>
<path d="M66.52 84.19a.23.23 0 0 0-.1-.22.23.23 0 0 0-.24-.02l-1.91.9-1.02 12.42a6.9 6.9 0 0 1 1.93-.85.9.9 0 0 0 .69-.84c.12-3.8.28-7.6.65-11.39z"/>
<path d="m64.26 84.85-7.38-.42c-.06 1.89-.23 3.77-.33 5.65-.11 2.08-.16 4.17-.34 6.28-.01.15.04.3.14.41s.25.18.4.17c2.08-.01 4.15.11 6.22.36a.5.5 0 0 0 .4-.12.54.54 0 0 0 .19-.37l.37-5.33.33-6.63z"/>
<path d="m64.26 84.85-7.38-.42-.36 3.15a2.75 2.75 0 0 0 2.59 3.05l2.23.13a2.8 2.8 0 0 0 2.06-.75c.55-.52.87-1.25.86-2v-3.16z"/>
<path d="M60.31 89.23c.26.01.46.26.44.54-.02.28-.24.5-.5.49-.26-.01-.46-.26-.44-.54.02-.28.24-.5.5-.49zm-8.09-4.94.55-.85 2.83.09.35 1.06-3.73-.3z"/>
<path d="M55.93 84.69a.2.2 0 0 0-.06-.18.23.23 0 0 0-.17-.08l-3.48-.13-.5 11.17c.11.28 1.53.46 2.68.49a.9.9 0 0 0 .92-.88c.08-3.47.21-6.94.61-10.39zm43.15.29c.29-.02.58.03.85.13l2.1.82-8.08.46-2.19-.94 7.32-.47z"/>
<path d="M91.48 85.73a.24.24 0 0 1 .1-.22.26.26 0 0 1 .24-.03l2.14.91L95 98.81a7.2 7.2 0 0 0-2.15-.84.88.88 0 0 1-.71-.85c-.13-3.8-.28-7.61-.66-11.39z"/>
<path d="m93.95 86.4 8.08-.46c.05 1.89.23 3.77.33 5.65.11 2.08.15 4.18.34 6.28.01.15-.04.3-.14.41a.55.55 0 0 1-.4.18c-2.32-.01-4.63.13-6.93.4a.5.5 0 0 1-.4-.12.52.52 0 0 1-.19-.37l-.37-5.34-.32-6.63z"/>
<path d="m93.95 86.4 8.08-.46.38 3.14a2.76 2.76 0 0 1-2.58 3.07l-2.97.17a2.8 2.8 0 0 1-2.06-.75 2.73 2.73 0 0 1-.86-2.01l.01-3.16z"/>
<path d="M98.25 90.75a.52.52 0 0 0-.49.55c.02.28.26.5.55.49a.52.52 0 0 0 .49-.55.53.53 0 0 0-.55-.49zm11.99-7.28c.31-.02.62.03.91.16l1.86.81-7.38.42-2-.95 6.61-.44z"/>
<path d="M103.37 84.19a.23.23 0 0 1 .1-.22.23.23 0 0 1 .24-.02l1.91.9 1.02 12.42a6.9 6.9 0 0 0-1.93-.85.9.9 0 0 1-.69-.84c-.12-3.8-.28-7.6-.65-11.39z"/>
<path d="m105.63 84.85 7.38-.42c.06 1.89.23 3.77.33 5.65.11 2.08.16 4.17.34 6.28.01.15-.04.3-.14.41a.5.5 0 0 1-.4.17c-2.08-.01-4.15.11-6.22.36a.5.5 0 0 1-.4-.12.54.54 0 0 1-.19-.37l-.37-5.33-.33-6.63z"/>
<path d="m105.63 84.85 7.38-.42.36 3.15a2.75 2.75 0 0 1-2.59 3.05l-2.23.13a2.8 2.8 0 0 1-2.06-.75 2.72 2.72 0 0 1-.86-2v-3.16z"/>
<path d="M109.58 89.23c-.26.01-.46.26-.44.54.02.28.24.5.5.49.26-.01.46-.26.44-.54-.01-.28-.24-.5-.5-.49zm8.09-4.94-.55-.85-2.83.09-.35 1.06 3.73-.3z"/>
<path d="M113.96 84.69a.2.2 0 0 1 .06-.18.23.23 0 0 1 .18-.08l3.48-.13.5 11.17c-.11.28-1.53.46-2.68.49a.9.9 0 0 1-.92-.88 116.3 116.3 0 0 0-.62-10.39z"/>
</g>
</g></g>
</g>
<g id="WaistDecals" mask="url(#WaistMask)"/>
<g id="Extras_Front">
<g id="Front"><g id="None_Front" class="option"/>
</g>
</g>
<g id="Extras-FrontDecals" mask="url(#FrontMask)"/>
</g>
</svg>