<?xml version='1.0' encoding='UTF-8'?>
<svg version="1.1" id="Male-Body" xmlns="http://www.w3.org/2000/svg" xmlns:serif="http://www.serif.com/" viewBox="0 -55 170 310" style="stroke-width: 0.2px; fill-rule: evenodd; stroke-linejoin: round;" width="510" height="930">
<style>
mask {
mask-type: alpha;
}
.decal {
stroke: none;
}
</style>
<defs id="Masks" stroke="none">
<mask id="HelmetsMask"> <use href="#Helmets"/> </mask>
<mask id="CollarMask"> <use href="#Collar"/> </mask>
<mask id="ShouldersMask"> <use href="#Shoulders"/> </mask>
<mask id="ChestMask"> <use href="#Chest"/> </mask>
<mask id="BicepsMask"> <use href="#Biceps"/> </mask>
<mask id="GauntletsMask"> <use href="#Gauntlets"/> </mask>
<mask id="WaistMask"> <use href="#Waist"/> </mask>
<mask id="GroinMask"> <use href="#Groin"/> </mask>
<mask id="ThighsMask"> <use href="#Thighs"/> </mask>
<mask id="KneesMask"> <use href="#Knees"/> </mask>
<mask id="ShinsMask"> <use href="#Shins"/> </mask>
<mask id="FootMask"> <use href="#Foot"/> </mask>
</defs>
<defs id="Decals"/><metadata><rdf:rdf xmlns:rdf="http://www.w3.org/1999/02/22-rdf-syntax-ns#" xmlns:rdfs="http://www.w3.org/2000/01/rdf-schema#" xmlns:dc="http://purl.org/dc/elements/1.1/"><rdf:description><dc:creator>MandoCreator</dc:creator><dc:publisher>https://www.mandocreator.com</dc:publisher><dc:description>Your Beskar'gam - created by MandoCreator</dc:description><dc:format>image/svg+xml</dc:format><dc:type>Image</dc:type><dc:title>MandoCreator - Ner Berskar'gam</dc:title><dc:date>2022-03-14T14:22:34.393Z</dc:date></rdf:description></rdf:rdf></metadata><g id="Main-Body" fill="white" stroke="black">
<g id="Extras_Back">
<g id="Back"><g id="NO-CAPES_Back" class="option"/>
</g>
</g>
<g id="Extras-BackDecals" mask="url(#BackMask)"/>
<g id="Suit">
<g id="Neck-Seal">
<path id="Plain-Neck-Seal" class="option" d="m97.69 6.07 2.94 6.84-.21 6.78-15.43 1.59v.01h-.06v-.01l-15.34-1.59-.21-6.78 2.94-6.84L85 6.73l12.69-.66" fill="#50A8FE"/></g>
<path id="Flight-Suit" d="m73.36 158.45-1.49 8.72-11.03 53.11s-4.93 2.96-7.47 3.46c-2.53.5-7.73-.44-7.73-.44l3.85-43 2.9-18.36.66-7.82s-2.53-22.78-1.7-34.14c.82-11.36 6.66-34.01 6.66-34.01l26.98.58 26.97-.58s5.83 22.66 6.66 34.01c.83 11.36-1.7 34.14-1.7 34.14l.66 7.82 2.9 18.36 3.85 43s-5.32 1.19-7.85.69c-2.53-.5-7.34-3.71-7.34-3.71L98.1 167.16l-1.49-8.72-11.62-30.33-11.63 30.34zm56.05-115.12 11.98 41.65 1.04 21.47-9.55 1.83-6.05-20.21-13.65-33.95.69-15.55 2.31-3.72 13.23 8.48zm-88.82-.03 13.19-8.45 2.31 3.72.52 16.04-13.44 33.46-6.05 20.21-9.55-1.83 1.03-21.47L40.59 43.3z" fill="#252525"/>
<g id="Sleeves" class="toggle" style="display: none;"/>
</g>
<g id="Boots"><g id="Gunslinger_Boots" class="option">
<path id="Main_Gunslinger-Boot" d="M107.7 226.61c.04.2.73 3.41 4.27 4.29 1.18.3 3.21-.33 4.48-.98a30.5 30.5 0 0 1 5.44-2.12l.06.08.09.12c.58.81 1.21 1.57 1.89 2.26l.05.05.03.03.21.2c.4.38.81.74 1.23 1.07l.12.09.1.07.09.06.2.14c.88.62 2.06 1.56 3.23 1.39 1.11-.16 2.35-.6 3.28-1.04a8.2 8.2 0 0 0 2.13-1.4c.16-.12.29-.26.39-.44 2.57 1 5.36 1.38 6.73 4.22.3.62.55 1.35.49 2.04-.08.89-1.06 1-1.82 1.2-1.9.51-3.53.89-5.72 1.34-2.5.52-4.76.83-7.29.72-1.89-.08-3.49-.18-5.14-1.19-.66-.41-1.34-.82-1.92-1.35-1.28-1.19-2.11-2.43-3.77-3.15a23.2 23.2 0 0 0-3.71-1.27c-1.8-.45-3.74-.76-4.69-2.54-.73-1.34-.64-2.59-.45-3.89m-45.42 0c-.04.2-.73 3.41-4.27 4.29-1.18.3-3.2-.33-4.48-.98a30.5 30.5 0 0 0-5.44-2.12l-.05.08-.09.12c-.58.81-1.21 1.57-1.89 2.26l-.05.05-.03.03-.21.2c-.4.38-.81.74-1.23 1.07l-.12.09-.1.07-.09.06-.2.14c-.88.62-2.06 1.56-3.23 1.39-1.1-.16-2.35-.6-3.28-1.04a8.2 8.2 0 0 1-2.13-1.4 1.38 1.38 0 0 1-.39-.44c-2.57 1-5.36 1.38-6.73 4.22-.3.62-.55 1.35-.48 2.04.08.89 1.06 1 1.82 1.2 1.9.51 3.53.89 5.72 1.34 2.5.52 4.76.83 7.29.72 1.89-.08 3.49-.18 5.14-1.19.66-.41 1.35-.82 1.92-1.35 1.28-1.19 2.11-2.43 3.77-3.15a23.2 23.2 0 0 1 3.71-1.27c1.8-.45 3.74-.76 4.69-2.54.71-1.34.63-2.59.43-3.89" fill="#575757"/>
<path id="Bottom_Gunslinger-Boot" d="M107.64 229.04c.08.49.24.98.51 1.49.95 1.78 2.89 2.09 4.69 2.54 1.27.32 2.51.75 3.71 1.27 1.66.72 2.48 1.96 3.77 3.15.57.53 1.25.94 1.92 1.35 1.65 1.01 3.25 1.11 5.14 1.19 2.53.1 4.78-.2 7.29-.72 2.19-.46 3.82-.84 5.72-1.34.61-.16 1.36-.27 1.67-.76l.36.8.21 1.64s-2.03 1.09-4.2 1.57c-2.16.48-6.53 1.15-6.53 1.15l-.3-.71-.98.21.05.7-2.38.13-.51-.69-.79.02.12.61s-1.47-.02-2.29-.51c-.15-.23-.46-.61-.46-.61l-.56-.31.07.58-2.04-.73-.1-.79-.59-.34-.03.57-1.46-1.12-.16-.69-3.64-2.55-.57 1.33-2.55-.55-.08-.55-.65-.27-.45.42-1.71-.7-.04-.51-.56-.19-.06.37-1.62-1.12-.31-2.23-.07-2.42.46-.68m-45.29 0a4.8 4.8 0 0 1-.51 1.49c-.95 1.78-2.89 2.09-4.69 2.54-1.27.32-2.51.75-3.71 1.27-1.66.72-2.48 1.96-3.77 3.15-.57.53-1.25.94-1.92 1.35-1.65 1.01-3.25 1.11-5.14 1.19-2.53.1-4.78-.2-7.29-.72-2.19-.46-3.83-.84-5.72-1.34-.61-.16-1.36-.27-1.67-.76l-.36.8-.21 1.64s2.03 1.09 4.2 1.57c2.16.48 6.53 1.15 6.53 1.15l.3-.71.98.21-.05.7 2.38.13.51-.69.8.02-.12.61s1.47-.02 2.29-.51c.15-.23.46-.61.46-.61l.56-.31-.07.58 2.04-.73.1-.79.59-.34.02.57 1.46-1.12.16-.69 3.64-2.55.57 1.33 2.55-.55.08-.55.65-.27.45.42 1.71-.7.04-.51.56-.19.07.37 1.62-1.12.31-2.23.07-2.42-.47-.68" fill="#E78E00"/>
<path id="Top_Gunslinger-Boot" d="M121.87 227.77a25.53 25.53 0 0 1-4.16-10.29l.61-.05h.02l.07-.01.2-.02.31-.03.13-.02 1.04-.14.54-.1.11-.03.04-.01.08-.02.37-.09.33-.08.06-.01c1.15-.29 2.31-.64 2.31-.64.32 1.48.47 3.17 1.09 4.56.98 2.18 2.78 3.85 4.46 5.51 1.15 1.14 2.28 2.44 3.66 3.31.58.37 1.21.66 1.84.9a7.2 7.2 0 0 1-2.53 1.84c-.93.44-2.17.88-3.28 1.04-1.17.17-2.35-.77-3.23-1.39a17.07 17.07 0 0 1-4.06-4.19l-.01-.04m-73.75 0a25.53 25.53 0 0 0 4.16-10.29l-.61-.05h-.02l-.08-.01-.2-.02-.31-.03-.13-.02-1.04-.14-.54-.1-.11-.03-.04-.01-.08-.02-.37-.09-.33-.08-.06-.01c-1.15-.29-2.31-.64-2.31-.64-.32 1.48-.47 3.17-1.09 4.56-.98 2.18-2.78 3.85-4.46 5.51-1.15 1.14-2.28 2.44-3.66 3.31-.58.37-1.21.66-1.84.9a7.12 7.12 0 0 0 2.53 1.84c.93.44 2.17.88 3.28 1.04 1.17.17 2.35-.77 3.23-1.39a17.07 17.07 0 0 0 4.06-4.19l.02-.04" fill="#E78E00"/>
<path id="Side_Gunslinger-Boot" d="M121.89 227.8c-1.87.54-3.7 1.24-5.44 2.12-1.27.65-3.3 1.27-4.48.98a5.77 5.77 0 0 1-4.27-4.3c.11-.74.25-1.5.3-2.3.1-1.54-.11-8.21.02-8.14 2.94 1.56 8.18 1.45 9.67 1.33.54 3.37 2.02 7.2 4.2 10.31m-73.8 0c1.87.54 3.7 1.24 5.44 2.12 1.27.65 3.3 1.27 4.48.98a5.77 5.77 0 0 0 4.27-4.3c-.11-.74-.25-1.5-.3-2.3-.1-1.54.11-8.21-.02-8.14-2.94 1.56-8.18 1.45-9.67 1.33a25.55 25.55 0 0 1-4.2 10.31" fill="#E78E00"/>
</g></g>
<g id="Gloves">
<g id="Left-Glove"><g id="Basic_Left_Glove" class="option" fill="#000000">
<path d="M138.6 124.11a5.98 5.98 0 0 0-1.58.1c-.36.08-.72.16-1.04.35-.99.57-.72 1.81.16 2.28 1.03.55 2.66.01 3.13-1.05.19-.44-.41-1.26-.67-1.68"/>
<path d="M136.79 125.19a5.68 5.68 0 0 0-1.59.1c-.36.08-.72.16-1.04.35-.99.57-.72 1.81.16 2.28 1.03.55 2.66.01 3.13-1.05.2-.44-.4-1.26-.66-1.68"/>
<path d="M135.49 126.65a7.5 7.5 0 0 0-1.7.31c-.35.12-.69.26-.99.48-.9.7-.47 1.89.47 2.24 1.1.41 2.64-.35 2.96-1.46.13-.46-.74-1.57-.74-1.57z"/>
<path d="M132.55 110.05s-1.56 2.15-1.97 3.69c-.29 1.09-.13 3.68-.49 5.43-.36 1.74-.69 2.71-.69 2.71s-1.38 2.79-1.14 3.43c.24.64 1.45 1.21 2.15.87.86-.42 1.93-2.39 2.61-3.77.69-1.41 1.25-3.41 1.25-3.41s.95.32 1.43.7c1.61 1.24.91 4.96.91 4.96s-.66 1.33-1.66 2.83c-1.36 2.05-3.46 3.81-2.07 5.37 1.29 1.46 4.22-2.37 4.22-2.37l2.87-3.73s3.3-5.41 3.47-6.46c.13-.8.02-3.47.02-3.47l-1.03-10.37-5.24.44-4.31 1.39-.33 1.76"/>
</g>
</g>
<g id="Right-Glove"><g id="Basic_Right_Glove" class="option" fill="#000000">
<path d="M31.4 124.11a5.98 5.98 0 0 1 1.58.1c.36.08.72.16 1.04.35.99.57.72 1.81-.16 2.28-1.03.55-2.66.01-3.13-1.05-.2-.44.41-1.26.67-1.68"/>
<path d="M33.21 125.19a5.59 5.59 0 0 1 2.62.45c.99.57.72 1.81-.16 2.28-1.03.55-2.66.01-3.13-1.05-.19-.44.41-1.26.67-1.68"/>
<path d="M34.51 126.65a7.5 7.5 0 0 1 1.7.31c.35.12.69.26.99.48.9.7.47 1.89-.47 2.24-1.1.41-2.64-.35-2.96-1.46-.13-.46.74-1.57.74-1.57z"/>
<path d="M37.45 110.05s1.56 2.15 1.97 3.69c.29 1.09.13 3.68.49 5.43.36 1.74.69 2.71.69 2.71s1.38 2.79 1.14 3.43c-.24.64-1.45 1.21-2.15.87-.86-.42-1.93-2.39-2.61-3.77-.69-1.41-1.25-3.41-1.25-3.41s-.95.32-1.43.7c-1.61 1.24-.91 4.96-.91 4.96s.66 1.33 1.66 2.83c1.36 2.05 3.46 3.81 2.08 5.37-1.29 1.46-4.22-2.37-4.22-2.37l-2.87-3.73s-3.3-5.41-3.47-6.46c-.13-.8-.02-3.47-.02-3.47l1.03-10.37 5.24.44 4.31 1.39.32 1.76"/>
</g>
</g>
</g>
<g id="Biceps">
<g id="Left-Biceps"><g id="Basic_Biceps_Left" class="option">
<path id="Main_Basic_Biceps_Left" d="M134.37 52.38c-1.14-2.74-6.21-14.78-6.21-14.78l-10.42 4.28c-.59.24-.87.91-.63 1.5l4.87 11.74a3.36 3.36 0 0 0 4.37 1.8l7.4-3.04c.58-.25.86-.92.62-1.5z" fill="#575757"/>
<path id="Strap_Basic_Biceps_Left" d="m119.35 48.7-5.85 2.4-.14 4.29 7.49-3.07-1.5-3.62" fill="#282828"/>
<path id="Trauma-Plate_Basic_Biceps_Left" class="toggle" style="display:none" d="m134.34 51.81-5.29-12.74-10.16 4.17 4.67 11.24c.17.4.49.72.89.88.4.17.85.17 1.26 0l8.63-3.55"/>
</g>
</g>
<g id="Right-Biceps"><g id="Basic_Biceps_Right" class="option">
<path id="Main_Basic_Biceps_Right" d="M35.65 52.38c1.14-2.74 6.22-14.78 6.22-14.78l10.42 4.28c.59.24.87.91.63 1.5l-4.87 11.74a3.36 3.36 0 0 1-4.37 1.8l-7.4-3.04a1.16 1.16 0 0 1-.63-1.5z" fill="#575757"/>
<path id="Strap_Basic_Biceps_Right" d="m50.68 48.7 5.85 2.4.14 4.29-7.49-3.07 1.5-3.62" fill="#282828"/>
<path id="Trauma-Plate_Basic_Biceps_Right" class="toggle" style="display:none" d="m35.69 51.81 5.29-12.74 10.16 4.17-4.66 11.24a1.67 1.67 0 0 1-2.15.88l-8.64-3.55"/>
</g>
</g>
</g>
<g id="BicepsDecals" mask="url(#BicepsMask)"/>
<path id="Vest" d="M85 20.92c8.5-.01 15.43-4.3 15.63-8.01l.15.02 18.38 5.42 13.31 23.94-2.86 1.16-13.42-8.6-2.31 3.72-1.54 47.4s-8.72 4.71-13.53 5.35c-3.44.45-8.63.68-13.79.67-5.16.01-10.35-.22-13.79-.67-4.81-.63-13.53-5.35-13.53-5.35l-1.54-47.4-2.31-3.72-13.42 8.6-2.86-1.16 13.31-23.94 18.38-5.42.15-.02c.16 3.71 7.09 8.01 15.59 8.01" fill="#252525"/>
<g id="SuitDecals" mask="url(#SuitMask)"/>
<g class="swappable" id="Chest"><g id="Chest_Galaxy">
<g id="Abdomen_Galaxy">
<path id="Abdomen-Plate_Galaxy" d="m78.03 73.41-2.08 1.5-10.56-1.5-.77-5.8 5-.1 3.03-4.92 1.37-4.53 10.95-9.96.03.01.02-.02 10.95 9.96 1.37 4.53 3.03 4.92 5 .1-.77 5.8-10.56 1.5-2.08-1.5H78.03z" fill="#E78E00"/>
<path id="Trauma-Plate_Abdomen_Galaxy" class="toggle" style="" d="m84.98 50.38-9.46 8.61-1.3 4.29-3.63 5.89-4.03.08.35 2.66 8.6 1.22 1.97-1.42h15.04l1.97 1.42 8.6-1.22.35-2.66-4.03-.08-3.63-5.89-1.3-4.29-9.46-8.61-.02.02-.02-.02z" fill="#575757"/>
</g>
<g id="Full-Chest_Galaxy">
<path id="Chest-Plate_Galaxy" d="m80.61 33.64-.02 10.15 3.21 3.22L72.55 57.6l-1.46 4.89-2.38 3.9h-4.12l-2-2.9-2.55-14.21-3.73-5.81 4.73-15.2 5.46-.69.77-3.36 5.84-.71 1.85 3h20.1l1.85-3 5.84.71.77 3.36 5.46.69 4.73 15.2-3.73 5.81-2.55 14.21-2 2.9h-4.12l-2.38-3.9-1.46-4.89L86.22 47l3.21-3.22-.02-10.15L85 30.24l-4.39 3.4z" fill="#50A8FE"/>
<path id="Trauma-Plating_Left-Chest_Galaxy" class="toggle" style="" d="M96 28.19H85.12l5.97 4.62.02 11.67-2.48 2.49 10.31 9.72 1.53 5.11 1.77 2.9h2.27l1.29-1.87 2.54-14.19 3.49-5.43-4.17-13.42-5.55-.7-.77-3.36-3.57-.43L96 28.19z" fill="#575757"/>
<path id="Trauma-Plating_Right-Chest_Galaxy" class="toggle" style="" d="m72.23 25.31-3.57.43-.77 3.36-5.55.7-4.17 13.42 3.49 5.43 2.54 14.19 1.29 1.87h2.27l1.77-2.9 1.53-5.11 10.31-9.72-2.48-2.49.02-11.67 5.97-4.62H74l-1.77-2.89z" fill="#575757"/>
<path id="Accents_Chest-Plate_Galaxy" class="toggleOn" d="M96.12 31.44h9.25v1.22h-9.25zm0 2.16h9.25v1.22h-9.25z" fill="#E78E00"/>
</g>
<g id="Iron-Heart_Galaxy">
<path id="Heart_Galaxy" d="M82.3 43.49v-9.13l2.7-2.1 2.7 2.1v9.13L85 46.2l-2.7-2.71z" fill="#E78E00"/><path id="Center_Heart_Galaxy" class="option" d="M84.07 35.76h1.87v6.25h-1.87z" fill="#575757"/>
</g>
<g id="Neck-Armor_Galaxy">
<path id="Neck-Plate_Galaxy" d="m82.75 25.51-7.39.12-1.82-2.97-7.05.84-.7 3.07-4.52.56-3.33-11.42 11.55-3.44s1.53 2.58 2.64 3.49c1.14.93 2.66 2.02 4.08 2.64a22.56 22.56 0 0 0 5.86 1.5l.68 5.61zm4.5 0 7.39.12 1.82-2.97 7.05.84.7 3.07 4.52.56 3.33-11.42-11.55-3.44s-1.53 2.58-2.64 3.49a19.16 19.16 0 0 1-4.08 2.64 22.56 22.56 0 0 1-5.27 1.42l-.59.08-.68 5.61z" fill="#575757"/>
<path id="Trauma-Plates_Neck_Galaxy" class="toggle" style="" d="M101.25 14.25a14.9 14.9 0 0 1-2.3 2.81 20.96 20.96 0 0 1-4.48 2.89 23.34 23.34 0 0 1-5.01 1.43l-.3 2.48 4.53.07 1.88-3.07 9.32 1.1.7 3.08 1.9.23 2.46-8.43-8.7-2.59zm-32.5 0-8.72 2.6 2.46 8.43 1.9-.23.7-3.08 9.32-1.1 1.88 3.07 4.53-.07-.3-2.48a23.5 23.5 0 0 1-5.01-1.43 20.72 20.72 0 0 1-4.48-2.89 16.49 16.49 0 0 1-2.28-2.82z" fill="#50A8FE"/>
</g>
</g></g>
<g id="ChestDecals" mask="url(#ChestMask)"/>
<g id="Chest-Attachments"><g id="No-Device_Accessories_Chest" class="option"/>
</g>
<g id="Collar"><g id="None_Collar" class="option"/>
</g>
<g id="CollarDecals" mask="url(#CollarMask)"/>
<g id="Helmets" class="swappable" transform="translate(45,-62)"><g id="Helmet_Stalker-Medium">
<g id="Left-Earcap_Stalker-Medium" class="toggle"><g id="Ear-Cap_Left_Stalker-Medium" fill="#575757">
<path d="m57.56 40.96 2.4 1.65.94 10.41-2.07 2.06-1.27-14.12z"/>
<path d="M58.6 47.7a.2.2 0 0 1 .18-.22l.97-.09a.2.2 0 0 1 .22.18.2.2 0 0 1-.18.22l-.97.09a.2.2 0 0 1-.22-.18z"/>
</g>
</g>
<g id="Right-Earcap_Stalker-Medium" class="toggle"><g id="Range-Finder_Right_Stalker-Medium" class="option" style="">
<path id="Shaft_Right_Range-Finder_Stalker-Medium" d="m22.08 19.72 1.07.07-1.61 26.85h-1.1l1.64-26.92z" fill="#575757"/>
<path id="Finder_Right_Range-Finder_Stalker-Medium" d="M30.41 17.56h-5.96l.24-.74 6.96-.65-1.24 1.39" fill="#50A8FE"/>
<g id="Cover_Right_Range-Finder_Stalker-Medium" fill="#575757">
<path d="m21.23 18.59 2.83.19.63-1.96 7.48-.7.15-.76-10.68-.4-1.04 1.32.63 2.31"/>
<path d="m21.99 18.64 1.41.09-.07 1.07-1.41-.09.07-1.07"/>
</g>
</g>
<g id="Ear-Cap_Right_Stalker-Medium" fill="#575757">
<path d="m22.44 40.96-2.4 1.65-.94 10.41 2.07 2.06 1.27-14.12z"/>
<path d="M21.4 47.7a.2.2 0 0 0-.18-.22l-.97-.09a.2.2 0 0 0-.22.18.2.2 0 0 0 .18.22l.97.09a.2.2 0 0 0 .22-.18z"/>
</g>
</g>
<g id="Helmet_Pieces_Stalker-Medium">
<g id="Dome-2_Stalker-Medium" fill="#575757">
<path d="m33.06 30.32-.02-.06s-6.45 1.52-8.89 7.94a27.44 27.44 0 0 0-.97 4.19c.12-.19.23-.37.34-.5.46-.6 1.2-1.48 1.89-2.15.98-.95 2.81-2.27 4-3.57a30.05 30.05 0 0 0 3.1-4.23 6.2 6.2 0 0 0 .55-1.62zM47.08 30.32l.02-.06s6.45 1.52 8.89 7.94c.43 1.13.81 3.23.97 4.19a7.05 7.05 0 0 0-.34-.5c-.46-.6-1.21-1.48-1.89-2.15-.98-.95-2.81-2.27-3.99-3.57a30.05 30.05 0 0 1-3.1-4.23 5.58 5.58 0 0 1-.56-1.62zM56.86 39.69l.84.86 1.35 14.93-.67 1-1.52-16.79z"/>
<path d="m56.05 38.54.8.86 1.56 17.34-.63.99-1.73-19.19z"/>
<g>
<path d="m23.25 39.69-.84.86-1.35 14.93.67 1 1.52-16.79z"/>
<path d="m24.06 38.54-.8.86-1.56 17.34.63.99 1.73-19.19z"/>
</g>
</g>
<g id="Dome-1_Stalker-Medium" fill="#50A8FE">
<path d="M33.07 30.22a6.2 6.2 0 0 1-.57 1.72l-.2.33c-.39.08-.84.2-1.22.37a17.8 17.8 0 0 0-2.06 1.23v-1.85s.97-.54 1.94-1c.65-.31 1.58-.63 2.11-.8z"/>
<path d="M32.36 32.16a30.67 30.67 0 0 1-2.97 4.01l-.38.4v-2.69s.87-.76 1.92-1.18c.5-.2 1.02-.39 1.43-.54z"/>
<g>
<path d="M47.08 30.22c.1.47.28 1.24.57 1.72l.2.33c.39.08.85.2 1.22.37a17.8 17.8 0 0 1 2.06 1.23v-1.85s-.97-.54-1.94-1c-.66-.31-1.59-.63-2.11-.8z"/>
<path d="M47.79 32.16c.66 1.07 1.87 2.8 2.97 4.01l.38.4v-2.69s-.87-.76-1.92-1.18c-.5-.2-1.03-.39-1.43-.54z"/>
</g>
</g>
<g id="Face-2_Stalker-Medium" fill="#575757">
<path d="m23.68 61.12-.13-3.41-2.31 3.27s-.12 2.86.29 4.04c.4 1.17 1.31 2.13 2.15 3.04.95 1.03 12.12 8.49 12.12 8.49l-1.92-8.26-1.85.71-1.61-.79-2.06-1.61-2.16-2.12-1.7-1.93-.82-1.17v-.26zM56.45 61.12l.13-3.41 2.31 3.27s.12 2.86-.29 4.04c-.4 1.17-1.31 2.13-2.15 3.04-.95 1.03-12.12 8.49-12.12 8.49l1.92-8.26 1.85.71 1.61-.79 2.06-1.61 2.16-2.12 1.7-1.93.82-1.17v-.26z"/>
</g>
<g id="Face-1_Stalker-Medium" fill="#E78E00">
<path d="M23.68 61.12v.25l.82 1.17 1.7 1.93 2.16 2.12 2.06 1.61 1.61.8 1.85-.72-.25-1.09-3.58-8.74-4.56-3.47-1.93 2.73.12 3.41z"/>
<path d="M29.89 65.5a.2.2 0 0 1 .04-.29l1.31-1.03a.2.2 0 1 1 .26.32l-1.31 1.03a.2.2 0 0 1-.3-.03M30.69 66.84a.2.2 0 0 1 .03-.29l1.11-.87a.2.2 0 0 1 .29.04.2.2 0 0 1-.03.29l-1.11.87a.2.2 0 0 1-.29-.04"/>
<g>
<path d="M56.45 61.12v.25l-.82 1.17-1.7 1.93-2.16 2.12-2.06 1.61-1.61.8-1.85-.72.25-1.09 3.58-8.74 4.56-3.47 1.93 2.73-.12 3.41z"/>
<path d="M50.24 65.5a.2.2 0 0 0-.04-.29l-1.31-1.03a.2.2 0 1 0-.26.32l1.31 1.03c.1.08.23.06.3-.03M49.44 66.84a.2.2 0 0 0-.03-.29l-1.11-.87a.2.2 0 0 0-.29.04.22.22 0 0 0 .03.29l1.11.87c.08.07.21.05.29-.04"/>
</g>
</g>
<g id="Cheeks_Stalker-Medium" fill="#50A8FE">
<path d="m46.51 67.19-.86-.23 4.27-12.28.17.57v3.2l-3.58 8.74z"/>
<path d="m50.09 58.45-.17-3.77 1.73-.94 2.92-1.99 2.58-2.29.27-.31-2.77 5.83-4.56 3.47z"/>
<path d="m58.88 60.97-4.23-6 2.77-5.83.49-.58.97 12.41zM44.33 76.54l-.16.05 1.47-9.63.86.23-2.17 9.35z"/>
<g>
<path d="m21.24 60.97 4.23-6-2.77-5.83-.49-.58-.97 12.41zM33.62 67.19l.86-.23-4.27-12.28-.17 3.77 3.58 8.74z"/>
<path d="m30.04 58.45.17-3.77-1.73-.94-2.92-1.99-2.58-2.29-.27-.31 2.77 5.83 4.56 3.47zM35.8 76.54l.16.05-1.47-9.63-.86.23 2.17 9.35z"/>
</g>
</g>
<path fill="#2E2E2E" id="Visor_Stalker-Medium" d="M41.83 76.78H38.3l-.38-25.45s-3.7-.78-3.8-.78c-.1 0-5.17-1.18-5.17-1.18l-4.47-1.53-1.49-.76.1-1.35 4.31.7 5.35.68 5.01.32 2.05.14h.51l2.05-.14 5.01-.32 5.35-.68 4.31-.7.1 1.35-1.49.76-4.47 1.53s-5.07 1.18-5.17 1.18c-.1 0-3.8.78-3.8.78l-.38 25.45z"/>
<g id="Eyes_Stalker-Medium">
<g id="Main_Eyes_Stalker-Medium" fill="#575757">
<path d="M57.51 43.36s-.54-1.02-.89-1.47c-.46-.6-1.21-1.48-1.89-2.15-.98-.95-2.81-2.27-3.99-3.57a30.05 30.05 0 0 1-3.1-4.23c-.36-.6-.55-1.61-.63-1.99-.02-.1.17-.26.17-.26s-2.1-.87-2.82-1.03c-.89-.2-3.23-.47-3.23-.47l-1.99-.01s-2.45.28-3.36.48c-.73.16-2.82 1.03-2.82 1.03s.19.16.17.26c-.08.37-.27 1.39-.63 1.99a30.87 30.87 0 0 1-3.1 4.23c-1.18 1.3-3.01 2.62-3.99 3.57a23.1 23.1 0 0 0-1.89 2.15 15.1 15.1 0 0 0-.89 1.47l-.6 4.83.2.38.76.9 2.58 2.29 2.92 1.99 1.73.93 4.27 12.28 1.47 9.63.64.2h6.95l.64-.2 1.47-9.63 4.27-12.28 1.73-.93 2.92-1.99 2.58-2.29.76-.9.2-.38-.61-4.83M41.83 76.78H38.3l-.38-25.45s-3.7-.78-3.8-.78c-.1 0-5.17-1.18-5.17-1.18l-4.47-1.53-1.49-.76.1-1.35 4.31.7 5.35.68 5.01.32 2.05.14h.51l2.05-.14 5.01-.32 5.35-.68 4.31-.7.1 1.35-1.49.76-4.47 1.53s-5.07 1.18-5.17 1.18c-.1 0-3.8.78-3.8.78l-.38 25.45"/>
<path d="m32.5 30.41.32-.62.14-.1.17.26-.06.27-.57.19M47.63 30.41l-.32-.62-.14-.1s-.16.16-.17.26.1.31.1.31l.53.15"/>
</g>
<g id="Trim_Eyes_Stalker-Medium" fill="#50A8FE">
<path d="m35.02 47.26-.37-.9-2.63-.52 1.05-15.62.06-.27-.17-.25 2.73-1.02 1.09-.2v16.27h6.59V28.48l1.18.23 2.63.98-.18.26 1.1 15.89-2.62.52-.37.9-5.03.31-5.06-.31z"/>
<path d="M43.36 44.75h-6.59l2.5.76v-.38h1.58v.38l2.51-.76zM44.94 50.77l-2.74.57-.38 25.45h1.71l.64-.2 1.47-9.63 1.11-3.18-2.26-2.35.45-10.66zM35.16 50.77l2.74.57.38 25.45h-1.71l-.64-.2-1.47-9.63-1.11-3.18 2.26-2.35-.45-10.66z"/>
</g>
<path id="Center_Eyes_Stalker-Medium" d="M43.36 28.48s-1.59-.3-3.3-.3c-1.7 0-3.29.3-3.29.3v16.27h6.59V28.48z" fill="#E78E00"/>
</g>
</g>
</g></g>
<g id="HelmetsDecals" mask="url(#HelmetsMask)"/>
<g id="Shoulders">
<g id="Left-Shoulder"><g id="Legacy-x2_Shoulder_Left" class="option">
<path id="Plate-2_Shoulder_Left_Legacy-x2" d="m115.99 15.27-5.8 8.69 5.95 8.29 9.39-2.29 5.9 3.63 4.41-1.15-19.85-17.17z" fill="#50A8FE"/>
<path id="Trauma-Plate-2_Shoulder_Legacy-x2_Left" class="toggle" style="display:none" d="m131.69 31.78 2.85-.74-17.1-14.9-5.19 7.75 4.6 6.43 8.64-2.17 6.2 3.63z"/>
<path id="Plate-1_Shoulder_Left_Legacy-x2" d="m108.85 10.82-2.61 10.1 8.36 5.89 8.12-5.22 6.77 1.51 3.79-2.53-24.43-9.75z" fill="#E78E00"/>
<path id="Trauma-Plate-1_Shoulder_Legacy-x2_Left" class="toggle" style="display:none" d="m129.14 21.3 2.45-1.64-21.09-8.46-2.33 9.02 6.47 4.56 7.43-4.88 7.07 1.4z"/>
</g></g>
<g id="Right-Shoulder"><g id="Pauldron_Shoulder_Right" class="option">
<path id="Main_Pauldron_Shoulder_Right" d="M68.5 15.95 40.6 29.09 27.16 15.16l36.11-4.34 5.23 5.13z" fill="#575757"/>
<g id="Plate_Pauldron_Shoulder_Right" fill="#50A8FE">
<path d="m29.72 15.42 11.26 11.62 24.6-11.58-3.99-3.92-31.87 3.88z"/>
<path d="M29.24 14.91 61 11.09l-.36-.41-31.6 3.68.2.55z"/>
</g>
</g></g>
</g>
<g id="ShouldersDecals" mask="url(#ShouldersMask)"/>
<g id="Gauntlets">
<g id="Left-Gauntlets"><g id="Heavy_Gauntlet_Left" class="option">
<g id="Top-2_Heavy_Gauntlet_Left" fill="#575757">
<path d="m140.68 79.64 1.74.13 1.43 8.11-1.48 1.23-1.69-9.47z"/>
<path d="m142.25 88.39 1.82 10.57-.95 1.28 1.11 6.22-.44.32-3.07-17.02 1.53-1.37z"/>
<circle cx="142.26" cy="85.76" r=".38"/>
</g>
<g id="Top-1_Heavy_Gauntlet_Left" fill="#575757">
<path d="m139.42 107.96 4.36-1.17-3.07-17.02 1.54-1.38-1.66-9.27-6.59-.67 5.42 29.51z"/>
<path d="m138.89 78.94 1.82 10.82"/>
</g>
<path id="Accent-Top_Heavy_Gauntlet_Left" d="m142.53 104.17-2.77.56.42 2.15 2.77-.65-.42-2.06zm-1.75-9.01-2.77.56 1.62 8.4 2.77-.56-1.62-8.4zm-2.49-15.6-3.13-.24 1.64 9.21 2.91-.59-1.42-8.38z" fill="#E78E00"/>
<path id="Bottom_Heavy_Gauntlet_Left" d="M134.08 78.88c-3.37.13-6.88 1.57-9.06 4.4a3.55 3.55 0 0 0-.58 3.22l7.01 22.84 7.98-1.39-5.35-29.07z" fill="#575757"/>
<g id="Accent-Bottom_Heavy_Gauntlet_Left" fill="#50A8FE">
<path d="m139.42 107.96-7.98 1.39-.43-1.41 8.13-1.52.28 1.54zm-4.98-27.1c-4.35.43-7.98 2.01-9.69 6.7l-.32-1.04c-.27-.87-.19-1.8.2-2.61l.41-.65c2.19-2.81 5.68-4.24 9.03-4.37l.37 1.97z"/>
<path d="m133.31 79.53-3.52.69 2.77 13.89 3.52-.69-2.77-13.89z"/>
<path d="m132.9 79.88-2.59.51 2.56 12.85 2.59-.51-2.56-12.85z"/>
<path d="m130.3 80.39-.51-.17m3.52-.69-.41.35m3.18 13.54-.62-.7m-2.9 1.4.37-.89"/>
</g><g id="Flamethrower_Attachment_Heavy_Gauntlet_Left" class="option">
<g id="Tubes_Flamethrower_Attachment_Heavy_Gauntlet_Left" fill="#575757">
<path d="m142.18 79.84-.82.14 4.36 24.89.82-.14-4.36-24.89zm1.88-.33-.82.14 3.12 17.84.82-.14-3.12-17.84z"/>
<path d="m142.71 81.35-1.23.21 1.04 5.93 1.24-.21-1.05-5.93zm1.78-.31-1.13.19 1.04 5.93 1.13-.2-1.04-5.92z"/>
</g>
<g id="Main_Flamethrower_Attachment_Heavy_Gauntlet_Left" fill="#50A8FE">
<path d="m144.34 79.07-3.38.58.34 1.94 3.38-.58-.34-1.94zm1.46 7.86-3.53.61.17.95 3.53-.61-.17-.95z"/>
<path d="m145.82 87.9-3.24.56.08.48 3.24-.56-.08-.48z"/>
<path d="m142.52 86.88-.54.12.51 2.89.54-.11-.51-2.9z"/>
</g>
<g id="Accent_Flamethrower_Attachment_Heavy_Gauntlet_Left" fill="#E78E00">
<path d="m147.21 97.35-.88.15.08 1.24 1.15-.2-.35-1.19zm-.77-6.4-1.56.27.33 1.89 1.56-.27-.33-1.89z"/>
<path d="m146.56 92.87-1.13.2.33 1.89 1.13-.19-.33-1.9zm-.42 8.68-1.13.2.45 2.59 1.13-.19-.45-2.6zm-1.47-8.35-1.13.19.62 3.52 1.13-.2-.62-3.51z"/>
<path d="m146.58 102.81-1.56.27.09.5 1.56-.27-.09-.5z"/>
</g>
<path id="Base_Flamethrower_Attachment_Heavy_Gauntlet_Left" d="m141.98 87-1.39-7.85 1.01.21 2.35 13.27-.87.59-.59-3.32.54-.11-.51-2.89-.54.1z" fill="#575757"/>
</g></g></g>
<g id="Right-Gauntlets"><g id="Heavy_Gauntlet_Right" class="option">
<g id="Top-2_Heavy_Gauntlet_Right" fill="#575757">
<path d="m29.5 79.64-1.74.13-1.43 8.11 1.48 1.23 1.69-9.47z"/>
<path d="m27.93 88.39-1.82 10.57.95 1.28-1.11 6.22.44.32 3.07-17.02-1.53-1.37z"/>
<circle cx="27.92" cy="85.76" r=".38"/>
</g>
<g id="Top-1_Heavy_Gauntlet_Right" fill="#575757">
<path d="m30.76 107.96-4.36-1.17 3.07-17.02-1.54-1.38 1.66-9.27 6.59-.67-5.42 29.51z"/>
<path d="m31.29 78.94-1.82 10.82"/>
</g>
<path id="Accent-Top_Heavy_Gauntlet_Right" d="m27.66 104.17 2.77.56-.42 2.15-2.77-.65.42-2.06zm1.74-9.01 2.77.56-1.62 8.4-2.77-.56 1.62-8.4zm2.49-15.6 3.13-.24-1.64 9.21-2.91-.59 1.42-8.38z" fill="#E78E00"/>
<path id="Bottom_Heavy_Gauntlet_Right" d="M36.11 78.88c3.37.13 6.88 1.57 9.06 4.4.71.92.92 2.12.58 3.22l-7.01 22.84-7.98-1.39 5.35-29.07z" fill="#575757"/>
<g id="Accent-Bottom_Heavy_Gauntlet_Right" fill="#50A8FE">
<path d="m30.76 107.96 7.98 1.39.43-1.41-8.13-1.52-.28 1.54zm4.98-27.1c4.35.43 7.98 2.01 9.69 6.7l.32-1.04c.27-.87.19-1.8-.2-2.61l-.41-.65c-2.19-2.81-5.68-4.24-9.03-4.37l-.37 1.97z"/>
<path d="m36.88 79.53 3.52.69-2.77 13.89-3.52-.69 2.77-13.89z"/>
<path d="m37.29 79.88 2.59.51-2.56 12.85-2.59-.51 2.56-12.85z"/>
<path d="m39.88 80.39.51-.17m-3.51-.69.41.35M34.1 93.42l.62-.7m2.9 1.4-.37-.89"/>
</g><g id="Missle_Attachment_Heavy_Gauntlet_Right" class="option">
<g id="Head_Missle_Attachment_Heavy_Gauntlet_Right" fill="#575757">
<path d="m24.18 97.59 2.64-4.07-3.71-.75 1.07 4.82z"/>
<path d="M25.49 93.66c-.08-.02-.18.15-.22.36-.04.22 0 .4.08.42.08.02.18-.14.22-.36s.01-.4-.08-.42zm-.32 1.14c-.06-.01-.14.12-.17.29-.03.17 0 .32.06.34.06.01.14-.12.17-.29.03-.18.01-.33-.06-.34zm-.22 1.05c-.06-.01-.13.11-.16.26-.03.16 0 .3.06.31.06.01.13-.11.16-.27.02-.15 0-.29-.06-.3zm1.14-2.06c-.08-.02-.18.14-.22.36-.04.22 0 .4.08.42.08.02.18-.15.22-.36.04-.22.01-.41-.08-.42zm-2.4-.49c-.08-.02-.18.14-.22.36-.04.21 0 .4.08.42.08.02.18-.15.22-.36.04-.22 0-.4-.08-.42zm.6.12c-.08-.02-.18.15-.22.36-.04.22 0 .4.08.42.08.02.18-.15.22-.36.04-.22 0-.4-.08-.42zm-.08 1.18c-.07-.01-.14.12-.17.29-.03.17 0 .32.06.34.06.01.14-.12.17-.29.03-.18 0-.33-.06-.34zm-.15 1.07c-.06-.01-.13.11-.16.27-.03.16 0 .3.06.31.06.01.13-.11.16-.27.03-.16 0-.3-.06-.31zm.83-2.13c-.08-.02-.18.14-.22.36s0 .4.08.42c.08.02.18-.14.22-.36.04-.21.01-.4-.08-.42zm-.2 1.16c-.07-.01-.14.12-.17.29-.03.17 0 .32.06.34.07.01.14-.12.17-.29.03-.18 0-.33-.06-.34zm-.19 1.05c-.06-.01-.13.11-.16.27-.03.16 0 .3.06.31s.13-.11.16-.26c.03-.16 0-.3-.06-.32zm-.87-.62c.06-.01.13-.13.16-.29.03-.17 0-.32-.06-.34-.06-.01-.14.11-.17.28l.07.35zm2.09.09c.03-.17 0-.32-.06-.33-.07-.01-.14.12-.17.29-.03.16-.01.3.05.33l.18-.29z"/>
</g>
<g id="Main_Missle_Attachment_Heavy_Gauntlet_Right" fill="#575757">
<path d="m23.67 92.25 2.81.57-.11.61-2.81-.57.11-.61zm2.28-12.97 2.81.57-.11.61-2.81-.57.11-.61zm.97-2.14 1.65.33-.11.61-1.65-.33.11-.61z"/>
<path d="m26.1 77.61 3.08.62-.29 1.65-3.08-.62.29-1.65zm-.51 2.23 3.32.67-2.17 12.35-3.32-.67 2.17-12.35z"/>
<path d="m27.63 87.02.54.11-.51 2.9-.54-.11.51-2.9z"/>
</g>
<path id="Accent_Missle_Attachment_Heavy_Gauntlet_Right" d="m24.04 98.38.54-1.04-.69-.14.15 1.18zm-.03-1.45.55.11.02.29-.69-.14.12-.26zm2.88-20.69 2.02.41-.15.86-2.02-.41.15-.86zm.42-.38 1.35.27.26.52-2.02-.41.41-.38zm-.73 4.18.56.11-2.17 12.35-.56-.11 2.17-12.35zm.76.16.56.11-2.17 12.36-.56-.11 2.17-12.36zm-2.04-.09.28-.27-2.17 12.36-.17-.36 2.06-11.73zm.52-.22.56.11-2.17 12.36-.56-.11 2.17-12.36zm2.29.46.35.07-2.17 12.36-.35-.07 2.17-12.36z" fill="#50A8FE"/>
<path id="Base_Missle_Attachment_Heavy_Gauntlet_Right" d="m28.55 79.49 1.01-.21-2.48 14.07-.87-.59 2.34-13.27zm-.92 7.53.54.11-.51 2.9-.54-.11.51-2.9z" fill="#E78E00"/>
</g></g></g>
</g>
<g id="GauntletsDecals" mask="url(#GauntletsMask)"/>
<g id="Shins">
<g id="Left-Shin"><g id="Legacy_Shin_Left" class="option">
<path id="Plate-3_Legacy-Shin_Left" d="m106.28 197.61 4.11 15.38s4.92.96 7.57.65c2.65-.31 6.2-1.73 6.2-1.73l-1.54-16.54-7.09 4.38-9.25-2.14" fill="#575757"/>
<path id="Plate-2_Legacy-Shin_Left" d="m103.21 188.12 2.4 9.33 9.92 2.29 7.71-4.76-.77-9.42-8.66 4.43-10.6-1.87" fill="#575757"/>
<path id="Plate-1_Legacy-Shin_Left" d="m106.81 174.99-5.99 6.53 1.7 6.48 11.29 2 9.26-4.74-.62-7.98-7.29-3.49-8.35 1.2" fill="#E78E00"/>
<path id="Trauma-Plate-3_Legacy-Shin_Left" class="toggle" style="display:none" d="m121.19 198.24-4.76 2.94c-.38.24-.84.31-1.28.21l-6.5-1.5 3.11 11.63c1.5.25 4.28.65 6.01.44 1.54-.18 3.41-.77 4.59-1.18l-1.17-12.54"/>
<path id="Trauma-Plate-2_Legacy-Shin_Left" class="toggle" style="display:none" d="m120.98 188.23-6.39 3.27c-.33.17-.71.23-1.08.16l-8.01-1.42 1.49 5.8 8.23 1.9 6.23-3.85-.47-5.86"/>
<path id="Trauma-Plate-1_Legacy-Shin_Left" class="toggle" style="display:none" d="m107.66 176.57-4.95 5.41 1.19 4.54 9.65 1.71 7.75-3.96-.46-5.89-5.94-2.85-7.24 1.04"/>
<g id="Ridge_Legacy-Shin_Left" class="toggle" style="display:none"/>
</g></g>
<g id="Right-Shin"><g id="Legacy_Shin_Right" class="option">
<path id="Plate-3_Legacy-Shin_Right" d="m63.61 197.61-4.11 15.38s-4.92.96-7.57.65c-2.65-.31-6.2-1.73-6.2-1.73l1.55-16.54 7.09 4.38 9.24-2.14" fill="#575757"/>
<path id="Plate-2_Legacy-Shin_Right" d="m66.68 188.12-2.4 9.33-9.92 2.29-7.71-4.76.77-9.42 8.66 4.43 10.6-1.87" fill="#575757"/>
<path id="Plate-1_Legacy-Shin_Right" d="m63.08 174.99 5.99 6.53-1.7 6.48-11.29 2-9.26-4.74.62-7.98 7.29-3.49 8.35 1.2" fill="#E78E00"/>
<path id="Trauma-Plate-3_Legacy-Shin_Right" class="toggle" style="display:none" d="m48.71 198.24 4.76 2.94c.38.24.84.31 1.28.21l6.5-1.5-3.11 11.63c-1.5.25-4.28.65-6.01.44a23.97 23.97 0 0 1-4.59-1.18l1.17-12.54"/>
<path id="Trauma-Plate-2_Legacy-Shin_Right" class="toggle" style="display:none" d="m48.91 188.23 6.39 3.27c.33.17.71.23 1.08.16l8.01-1.42-1.49 5.8-8.23 1.9-6.23-3.85.47-5.86"/>
<path id="Trauma-Plate-1_Legacy-Shin_Right" class="toggle" style="display:none" d="m62.23 176.57 4.95 5.41-1.18 4.54-9.65 1.71-7.75-3.96.46-5.89 5.94-2.85 7.23 1.04"/>
<g id="Ridge_Legacy-Shin_Right" class="toggle" style="display:none"/>
</g></g>
</g>
<g id="ShinsDecals" mask="url(#ShinsMask)"/>
<g id="Foot">
<g id="Left-Ankle"><g id="Legacy_Ankle_Left" class="option">
<path id="Plate-2_Legacy-Ankle_Left" d="m126.71 222.74 4.34 3.89 2.99 3.74-4.78 1.55-10.95-2.26-4.01-5.27 12.41-1.65" fill="#575757"/>
<path id="Plate-1_Legacy-Ankle_Left" d="M107 215.4s4.37 1.94 10.84 1.71c4.44-.16 6.24-1.26 6.24-1.26l3.76 6.93-.97 3.82-15.84-1.24-3.9-3.29-.13-6.67" fill="#50A8FE"/>
<path id="Trauma-Plate-2_Legacy-Ankle_Left" class="toggle" style="display:none" d="m127.64 223.58 3.39 3.04 1.75 2.18-3.64 1.18-9.65-1.99-1.58-2.08 8.96.7.77-3.03"/>
<path id="Trauma-Plate-1_Legacy-Ankle_Left" class="toggle" style="display:none" d="m108.66 217.83.06 3.17 3.15 2.54 13.92 1.09.99-3.82-1.77-3.27c-1.17.33-4.74 1.36-7.08 1.44-3.72.14-7.2-.61-9.27-1.15"/>
</g></g>
<g id="Left-Toe"><g id="None_Toe_Left" class="option"/>
</g>
<g id="Right-Ankle"><g id="Legacy_Ankle_Right" class="option">
<path id="Plate-2_Legacy-Ankle_Right" d="m43.17 222.74-4.34 3.89-2.99 3.74 4.78 1.55 10.95-2.26 4-5.27-12.4-1.65" fill="#575757"/>
<path id="Plate-1_Legacy-Ankle_Right" d="M62.87 215.4s-4.37 1.94-10.84 1.71c-4.44-.16-6.24-1.26-6.24-1.26l-3.76 6.93.97 3.82 15.84-1.24 3.9-3.29.13-6.67" fill="#50A8FE"/>
<path id="Trauma-Plate-2_Legacy-Ankle_Right" class="toggle" style="display:none" d="m42.23 223.58-3.39 3.04-1.75 2.18 3.64 1.18 9.65-1.99 1.58-2.08-8.96.69-.77-3.02"/>
<path id="Trauma-Plate-1_Legacy-Ankle_Right" class="toggle" style="display:none" d="m61.21 217.83-.06 3.17-3.15 2.54-13.92 1.09-.99-3.82 1.77-3.27c1.17.33 4.74 1.36 7.08 1.44 3.72.14 7.2-.61 9.27-1.15"/>
</g></g>
<g id="Right-Toe"><g id="None_Toe_Right" class="option"/>
</g>
</g>
<g id="FootDecals" mask="url(#FootMask)"/>
<g id="Knees">
<g id="Left-Knee"><g id="Heavy_Knee_Left" class="option">
<g id="Missiles_Heavy-Knee_Left" class="toggle" style="">
<path id="Base_Missiles_Heavy-Knee_Left" d="m118.65 160.1 1.78 9.57 2.09-1.68c.34-.27.51-.71.43-1.14l-.92-5.62a1.22 1.22 0 0 0-1.14-1.01l-2.24-.12z" fill="#575757"/>
<g id="Missile-2_Missiles_Heavy-Knee_Left" fill="#E78E00">
<path d="M121.04 165.37c-.55.15-.88.71-.73 1.26s.72.88 1.28.73c.56-.15.88-.71.73-1.26a1.05 1.05 0 0 0-1.28-.73z"/>
<path d="M121.14 165.69a.7.7 0 1 0 .37 1.34.7.7 0 0 0 .49-.85.73.73 0 0 0-.86-.49z"/>
</g>
<g id="Missile-1_Missiles_Heavy-Knee_Left" fill="#E78E00">
<path d="M120.28 160.95c-.55.15-.88.71-.73 1.26.15.55.73.88 1.28.73.56-.15.88-.71.73-1.26a1.05 1.05 0 0 0-1.28-.73z"/>
<path d="M120.38 161.27a.7.7 0 1 0 .37 1.34.7.7 0 1 0-.37-1.34z"/>
</g>
</g>
<path id="Plate-2_Heavy-Knee_Left" d="m116.81 155.76-2.86-1.72-14.26 2.44-2.07 2.56 2.79 14.21 5.62.13 8.01-1.37 5.57-2-2.8-14.25z" fill="#50A8FE"/>
<g id="Plate-1_Heavy-Knee_Left" fill="#575757">
<path d="m116.12 156.54-2.63-1.66-13.05 2.23-1.88 2.44 2.7 13.71 4.78.12 8.01-1.37 4.78-1.75-2.71-13.72z"/>
<path d="m111.54 158.46-8.01 1.37 2.49 13.54 4.15-.16 3.86-1.21-2.49-13.54z"/>
<path d="m103.54 159.83-3.1-2.72-1.88 2.44 4.98.28zm8-1.37 1.94-3.58 2.63 1.66-4.57 1.92z"/>
</g>
<g id="Trim_Heavy-Knee_Left" fill="#E78E00">
<path d="m97.66 163.92-.44 1.08 1.58 8.58.62-.11-1.76-9.55zm14.75 4.04-6.28 1.07.62 3.35 6.29-1.08-.63-3.34z"/>
<path d="m98.28 162.37-.88.15 2.02 10.95 1.02-.18-.01-.04h-.02l-2.13-10.88zm19.38-2.28 1.94 9.91-.18.06 1.03-.18-1.83-9.96-.96.17z"/>
</g>
</g></g>
<g id="Right-Knee"><g id="Heavy_Knee_Right" class="option">
<g id="Missiles_Heavy-Knee_Right" class="toggle" style="">
<path id="Base_Missiles_Heavy-Knee_Right" d="m51.24 160.1-1.78 9.57-2.09-1.68a1.19 1.19 0 0 1-.43-1.14l.92-5.62c.09-.56.57-.98 1.14-1.01l2.24-.12z" fill="#575757"/>
<g id="Missile-2_Missiles_Heavy-Knee_Right" fill="#E78E00">
<path d="M48.85 165.37c.55.15.88.71.73 1.26-.15.55-.72.88-1.28.73a1.03 1.03 0 0 1-.73-1.26c.16-.55.73-.88 1.28-.73z"/>
<path d="M48.76 165.69a.7.7 0 1 1-.37 1.34c-.37-.1-.59-.48-.49-.85s.48-.58.86-.49z"/>
</g>
<g id="Missile-1_Missiles_Heavy-Knee_Right" fill="#E78E00">
<path d="M49.61 160.95c.56.15.88.71.73 1.26-.15.55-.73.88-1.28.73a1.03 1.03 0 0 1-.73-1.26c.16-.55.73-.88 1.28-.73z"/>
<path d="M49.52 161.27a.7.7 0 1 1-.37 1.34.7.7 0 1 1 .37-1.34z"/>
</g>
</g>
<path id="Plate-2_Heavy-Knee_Right" d="m53.08 155.76 2.86-1.72 14.26 2.44 2.07 2.56-2.79 14.21-5.62.13-8.01-1.37-5.57-2 2.8-14.25z" fill="#50A8FE"/>
<g id="Plate-1_Heavy-Knee_Right" fill="#575757">
<path d="m53.77 156.54 2.63-1.66 13.05 2.23 1.88 2.44-2.7 13.71-4.78.12-8.01-1.37-4.78-1.75 2.71-13.72z"/>
<path d="m58.35 158.46 8.01 1.37-2.49 13.54-4.15-.16-3.86-1.21 2.49-13.54z"/>
<path d="m66.35 159.83 3.1-2.72 1.88 2.44-4.98.28zm-8-1.37-1.94-3.58-2.63 1.66 4.57 1.92z"/>
</g>
<g id="Trim_Heavy-Knee_Right" fill="#E78E00">
<path d="m72.23 163.92.44 1.08-1.58 8.58-.62-.11 1.76-9.55zm-14.74 4.04 6.28 1.07-.62 3.35-6.28-1.08.62-3.34z"/>
<path d="m71.61 162.37.88.15-2.02 10.95-1.03-.18.01-.04h.02l2.14-10.88zm-19.38-2.28L50.28 170l.18.06-1.03-.18 1.83-9.96.97.17z"/>
</g>
</g></g>
</g>
<g id="KneesDecals" mask="url(#KneesMask)"/>
<g id="Thighs">
<g id="Left-Thigh"><g id="Legacy_Thigh_Left" class="option">
<path id="Plate-3_Legacy-Thigh_Left" d="m97.79 140.5 1.83 10.6 10.33 1.6 8.34-3.62.4-10.82-9.49 4.43-11.41-2.19" fill="#50A8FE"/>
<path id="Plate-2_Legacy-Thigh_Left" d="m95.49 130.29 1.76 10.11 11.94 2.28 10.04-4.69.49-12.31-11.34 7.2-12.89-2.59" fill="#575757"/>
<path id="Plate-1_Legacy-Thigh_Left" d="m120.79 115.62-8.83-7.68-11.8 1.93-6.77 11.14 1.7 9.2 13.28 2.67 11.87-7.53.55-9.73" fill="#575757"/>
<path id="Trauma-Plate-3_Legacy-Thigh_Left" class="toggle" style="display:none" d="m116.67 141.54-6.78 3.16c-.32.15-.67.19-1.01.13l-8.71-1.66 1.03 5.96 8.52 1.32 6.73-2.92.22-5.99"/>
<path id="Trauma-Plate-2_Legacy-Thigh_Left" class="toggle" style="display:none" d="m117.68 129.46-8.4 5.33c-.37.24-.81.32-1.23.24l-10.17-2.04.96 5.49 10.13 1.94 8.42-3.94.29-7.02"/>
<path id="Trauma-Plate-1_Legacy-Thigh_Left" class="toggle" style="display:none" d="m101.24 111.91-5.83 9.58 1.26 6.82 11.37 2.28 10.38-6.59.42-7.34-7.39-6.43-10.21 1.68"/>
<g id="Ridge_Legacy-Thigh_Left" class="toggle" style="display:none"/>
</g></g>
<g id="Right-Thigh"><g id="Legacy_Thigh_Right" class="option">
<path id="Plate-3_Legacy-Thigh_Right" d="m72.11 140.5-1.83 10.6-10.33 1.6-8.34-3.62-.4-10.82 9.49 4.43 11.41-2.19" fill="#50A8FE"/>
<path id="Plate-2_Legacy-Thigh_Right" d="m74.4 130.29-1.76 10.11-11.94 2.28-10.04-4.69-.49-12.31 11.34 7.2 12.89-2.59" fill="#575757"/>
<path id="Plate-1_Legacy-Thigh_Right" d="m49.1 115.62 8.83-7.68 11.8 1.93 6.77 11.14-1.7 9.2-13.28 2.67-11.87-7.53-.55-9.73" fill="#575757"/>
<path id="Trauma-Plate-3_Legacy-Thigh_Right" class="toggle" style="display:none" d="M53.22 141.54 60 144.7c.32.15.67.19 1.01.13l8.71-1.66-1.03 5.96-8.52 1.32-6.73-2.92-.22-5.99"/>
<path id="Trauma-Plate-2_Legacy-Thigh_Right" class="toggle" style="display:none" d="m52.21 129.46 8.4 5.33c.37.24.81.32 1.23.24l10.17-2.04-.96 5.49-10.13 1.94-8.42-3.94-.29-7.02"/>
<path id="Trauma-Plate-1_Legacy-Thigh_Right" class="toggle" style="display:none" d="m68.65 111.91 5.83 9.58-1.26 6.82-11.37 2.28L51.47 124l-.42-7.34 7.39-6.43 10.21 1.68"/>
<g id="Ridge_Legacy-Thigh_Right" class="toggle" style="display:none"/>
</g></g>
</g>
<g id="ThighsDecals" mask="url(#ThighsMask)"/>
<g id="Groin"><g id="Basic_Groin" class="option">
<path id="Groin-Plate_Basic" d="M78.67 122.29 68.22 99.4h33.42l-10.45 22.89-6.26 5.46-6.26-5.46z" fill="#E78E00"/>
<path id="Trauma-Plating_Groin" class="toggle" style="" d="m79.77 120.38-8.61-18.86H98.7l-8.61 18.86-5.16 4.49-5.16-4.49z" fill="#575757"/>
</g>
</g>
<g id="GroinDecals" mask="url(#GroinMask)"/>
<g id="Waist">
<g id="Accessories_Waist">
<g id="Kama" class="toggle" style="">
<g id="Clean_Kama" class="option">
<path id="Trim_Kama-Clean" d="m101.37 83.6 3.59 57.21 26.42 17.47-20.04-77.38-9.97 2.7zm-32.82 0-3.59 57.21-26.42 17.47L58.58 80.9l9.97 2.7z" fill="#50A8FE"/>
<path id="Main_Kama-Clean" d="m103.25 83.48 3.47 55.33 23.83 16.29-19.22-74.21-8.08 2.59zm-36.58 0-3.47 55.33-23.84 16.29 19.22-74.21 8.09 2.59z" fill="#575757"/>
</g></g>
<g id="Loin-Cloth" class="toggle" style="display:none"/>
<g id="Left-Holster" class="toggle" style="display:none"/>
<g id="Right-Holster" class="toggle" style="display:none"/>
<g id="Left-Trophy" class="toggle" style="display:none"/>
<g id="Right-Trophy" class="toggle" style="display:none"/>
</g>
<g id="Under-Belt"><g id="Girth-Belt" class="option" fill="#2A2A2A">
<path d="M84.93 84.93c-9.33 0-27.98-2.25-27.98-2.25l.61-1.91 27.37 2.25 27.37-2.25.6 1.91c.01 0-18.65 2.25-27.97 2.25z"/>
<path d="M84.93 86.84c-9.52 0-28.56-2.25-28.56-2.25l.58-1.91 27.98 2.25 27.98-2.25.58 1.91s-19.04 2.25-28.56 2.25z"/>
<path d="M84.93 88.75c-9.67 0-28.99-2.25-28.99-2.25l.43-1.91 28.56 2.25 28.56-2.25.43 1.91c0-.01-19.32 2.25-28.99 2.25z"/>
<path d="M84.93 90.65c-9.79 0-29.36-2.25-29.36-2.25l.37-1.91 28.99 2.25 28.99-2.25.37 1.91s-19.57 2.25-29.36 2.25z"/>
<path d="M84.93 92.56c-9.9 0-29.69-2.25-29.69-2.25l.33-1.91 29.36 2.25 29.36-2.25.33 1.91s-19.79 2.25-29.69 2.25z"/>
<path d="M84.93 94.47c-10 0-30-2.25-30-2.25l.31-1.91 29.69 2.25 29.69-2.25.31 1.91c0-.01-20 2.25-30 2.25z"/>
<path d="M84.93 96.37c-10.1 0-30.31-2.25-30.31-2.25l.31-1.91 30 2.25 30-2.25.31 1.91s-20.21 2.25-30.31 2.25z"/>
<path d="M84.93 98.28c-10.21 0-30.62-2.25-30.62-2.25l.32-1.91 30.31 2.25 30.31-2.25.32 1.91c-.02 0-20.43 2.25-30.64 2.25z"/>
<path d="M84.93 100.19c-10.32 0-30.97-2.25-30.97-2.25l.34-1.91 30.62 2.25 30.62-2.25.35 1.91c.01-.01-20.64 2.25-30.96 2.25z"/>
<path d="M84.93 102.09c-10.45 0-31.36-2.25-31.36-2.25l.39-1.91 30.97 2.25 30.97-2.25.39 1.91s-20.91 2.25-31.36 2.25z"/>
</g>
</g>
<g id="Belt"><g id="Pouch-Belt-2" class="option">
<path id="Main_Pouch-Belt-2" d="M115.21 92.95c-6.82.61-22.4 2.83-30.27 2.83-7.94 0-23.52-2.23-30.26-2.82l1.01-7.93c5.53.49 21.56 2.74 29.26 2.74 7.47 0 23.17-2.23 29.07-2.76l1.19 7.94z" fill="#2E2119"/>
<path id="Buckle_Pouch-Belt-2" d="M79.37 87.01h11.28v9.21H79.37z" fill="#A3A3A3"/>
<g id="Pouches_Pouch-Belt-2" fill="#282121">
<path d="m52.22 84.29.55-.85 2.83.09.35 1.06-3.73-.3z"/>
<path d="M55.93 84.69a.2.2 0 0 0-.06-.18.23.23 0 0 0-.17-.08l-3.48-.13-.5 11.17c.11.28 1.53.46 2.68.49a.9.9 0 0 0 .92-.88c.08-3.47.21-6.94.61-10.39zm61.74-.4-.55-.85-2.83.09-.35 1.06 3.73-.3z"/>
<path d="M113.96 84.69a.2.2 0 0 1 .06-.18.23.23 0 0 1 .18-.08l3.48-.13.5 11.17c-.11.28-1.53.46-2.68.49a.9.9 0 0 1-.92-.88 116.3 116.3 0 0 0-.62-10.39z"/>
</g>
</g></g>
</g>
<g id="WaistDecals" mask="url(#WaistMask)"/>
<g id="Extras_Front">
<g id="Front"><g id="None_Front" class="option"/>
</g>
</g>
<g id="Extras-FrontDecals" mask="url(#FrontMask)"/>
</g>
</svg>