<?xml version='1.0' encoding='UTF-8'?>
<svg version="1.1" id="Male-Body" xmlns="http://www.w3.org/2000/svg" xmlns:serif="http://www.serif.com/" viewBox="0 -55 170 310" style="stroke-width: 0.2px; fill-rule: evenodd; stroke-linejoin: round;" width="510" height="930">
<style>
mask {
mask-type: alpha;
}
.decal {
stroke: none;
}
</style>
<defs id="Masks" stroke="none">
<mask id="HelmetsMask"> <use href="#Helmets"/> </mask>
<mask id="CollarMask"> <use href="#Collar"/> </mask>
<mask id="ShouldersMask"> <use href="#Shoulders"/> </mask>
<mask id="ChestMask"> <use href="#Chest"/> </mask>
<mask id="BicepsMask"> <use href="#Biceps"/> </mask>
<mask id="GauntletsMask"> <use href="#Gauntlets"/> </mask>
<mask id="WaistMask"> <use href="#Waist"/> </mask>
<mask id="GroinMask"> <use href="#Groin"/> </mask>
<mask id="ThighsMask"> <use href="#Thighs"/> </mask>
<mask id="KneesMask"> <use href="#Knees"/> </mask>
<mask id="ShinsMask"> <use href="#Shins"/> </mask>
<mask id="FootMask"> <use href="#Foot"/> </mask>
</defs>
<defs id="Decals"/><metadata><rdf:rdf xmlns:rdf="http://www.w3.org/1999/02/22-rdf-syntax-ns#" xmlns:rdfs="http://www.w3.org/2000/01/rdf-schema#" xmlns:dc="http://purl.org/dc/elements/1.1/"><rdf:description><dc:creator>MandoCreator</dc:creator><dc:publisher>https://www.mandocreator.com</dc:publisher><dc:description>Your Beskar'gam - created by MandoCreator</dc:description><dc:format>image/svg+xml</dc:format><dc:type>Image</dc:type><dc:title>MandoCreator - Ner Berskar'gam</dc:title><dc:date>2022-03-14T14:47:00.675Z</dc:date></rdf:description></rdf:rdf></metadata><g id="Main-Body" fill="white" stroke="black">
<g id="Extras_Back">
<g id="Back"><path id="Torn-Full-Cape_Back" class="option" d="M68.3 16.3c-11.77 4.4-24.85 25.6-26.46 41.8-1.01 10.2-6.03 20.5-5.53 30.7.5 10.3-4.73 21-5.13 31.2-.3 9.3-3.12 13.5-4.73 22.7-2.41 13.7-5.03 22.7-7.14 36.5a59.51 59.51 0 0 1-9.25 23.3c-.1.1 2.52-1.2 5.63-1.2.91 0 5.53-6.7 5.53-6.7s5.73 4.7 6.94 7.4c1.51-1 2.72-15.2 4.53-15.7.91-.3 2.62 17.8 2.62 17.8s2.72-5.4 3.82-5.4c2.31 0 6.44 2 8.75 2.3 2.41.3 5.03-3.8 7.74-3.1 4.12 1 8.25.9 12.37 1.5 2.92.4 5.83 6 8.75 6 3.62 0 3.12-8.4 6.84-9.2 3.12-.7 7.44 6.8 7.44 6.8s1-24.9 4.12-26c4.12-1.3 19.51 18.8 23.74 18.4 1.31-.1 2.92-12.7 4.12-12.7 2.72.1 5.03 13 7.74 13.5 3.32.6 5.03-5.6 8.25-4.8.9.2 3.52 7.6 4.53 7.8 2.01.5 4.83 1.7 7.04 1.5.1 0-.7-4.9-.8-5.4-.5-2.3-1.21-4.6-2.21-6.8a55.2 55.2 0 0 0-4.02-7.6c-7.14-11.2-4.63-23.4-5.94-36.6-1.21-12.8.1-25.6-2.11-38.4-1.91-11.3-8.65-21.8-10.36-33.2-2-13.4-6.52-27.7-10.65-40.7-5.03-15.9-34.4-20.1-46.17-15.7zM71.62 186c-.9 2.4-1.31 4.9-1.01 7.5.1 1.2.5 2.4 1.01 3.4.1.1.1.4.2.3 4.43-3.9-.2-11.2-.2-11.2zm-34.5-24.2c-.4 7.7-1.11 15.5-1.11 23.2 0 1.4 0 2.9.2 4.3 0 .2.2 2.3.4 2.3 2.62-.5 1.41-7.7 2.01-9.9 2.02-7.6-1.5-19.9-1.5-19.9zm92.24 26.8c-.2 2.8.6 2.5 1.31 1.1.7-1.4 1.31-3.9.6-5.5l-1.91 4.4zm-11.47-24.4c-.6 4.6.4 8.6.71 13.2.1 1.5.1 3 .1 4.5v1.5c0 .3-.2 1 0 .8 3.52-3.6 3.12-10.7 2.01-15.2l-2.82-4.8zm-42.04 13.7c0 1.2 0 2.4.1 3.6.3 2.4 1.71-1.4 1.71-2.3 0-1.3-.81-2.8-1.21-4.1l-.6 2.8z" fill="#0E110E"/></g>
</g>
<g id="Extras-BackDecals" mask="url(#BackMask)"/>
<g id="Suit">
<g id="Neck-Seal"><g id="Standard-Neck-Seal" class="option" fill="#0F130E">
<path d="M98.75 7.5c0-.9-.93-1.62-2.07-1.62 0 0-7.8.85-11.7.85s-11.7-.85-11.7-.85c-1.14 0-2.07.73-2.07 1.62s.93 1.62 2.07 1.62c0 0 7.8.85 11.7.85s11.7-.85 11.7-.85c1.15.01 2.07-.72 2.07-1.62z"/>
<path d="M99.45 9.4c0-.94-.97-1.71-2.17-1.71 0 0-8.2.9-12.29.9s-12.3-.89-12.3-.89c-1.2 0-2.17.76-2.17 1.71s.97 1.71 2.17 1.71c0 0 8.2.9 12.29.9s12.29-.9 12.29-.9c1.21-.01 2.18-.78 2.18-1.72z"/>
<path d="M100.24 11.76c0-.99-1.03-1.8-2.29-1.8 0 0-8.64.95-12.96.95s-12.97-.95-12.97-.95c-1.26 0-2.29.81-2.29 1.8s1.03 1.8 2.29 1.8c0 0 8.64.95 12.97.95s12.96-.95 12.96-.95c1.26 0 2.29-.81 2.29-1.8z"/>
<path d="M101 13.92c0-1.04-1.08-1.89-2.41-1.89 0 0-9.08.99-13.61.99s-13.61-.99-13.61-.99c-1.33 0-2.41.85-2.41 1.89s1.08 1.89 2.41 1.89c0 0 9.08.99 13.61.99s13.61-.99 13.61-.99c1.34 0 2.41-.85 2.41-1.89z"/>
<path d="M101.76 16.04c0-.79-1.13-1.43-2.52-1.43 0 0-9.51.75-14.26.75s-14.26-.75-14.26-.75c-1.39 0-2.52.64-2.52 1.43 0 .79 1.13 1.43 2.52 1.43 0 0 9.51.75 14.26.75s14.26-.75 14.26-.75c1.39 0 2.52-.64 2.52-1.43z"/>
<path d="M101.76 18.42c0-.79-1.13-1.43-2.52-1.43 0 0-9.51.75-14.26.75s-14.26-.75-14.26-.75c-1.39 0-2.52.64-2.52 1.43 0 .79 1.13 1.43 2.52 1.43 0 0 9.51 1.44 14.26 1.44s14.26-1.44 14.26-1.44c1.39-.01 2.52-.64 2.52-1.43z"/>
</g>
</g>
<path id="Flight-Suit" d="m73.36 158.45-1.49 8.72-11.03 53.11s-4.93 2.96-7.47 3.46c-2.53.5-7.73-.44-7.73-.44l3.85-43 2.9-18.36.66-7.82s-2.53-22.78-1.7-34.14c.82-11.36 6.66-34.01 6.66-34.01l26.98.58 26.97-.58s5.83 22.66 6.66 34.01c.83 11.36-1.7 34.14-1.7 34.14l.66 7.82 2.9 18.36 3.85 43s-5.32 1.19-7.85.69c-2.53-.5-7.34-3.71-7.34-3.71L98.1 167.16l-1.49-8.72-11.62-30.33-11.63 30.34zm56.05-115.12 11.98 41.65 1.04 21.47-9.55 1.83-6.05-20.21-13.65-33.95.69-15.55 2.31-3.72 13.23 8.48zm-88.82-.03 13.19-8.45 2.31 3.72.52 16.04-13.44 33.46-6.05 20.21-9.55-1.83 1.03-21.47L40.59 43.3z" fill="#0B100B"/>
<g id="Sleeves" class="toggle" fill="#111711">
<path d="m112.2 56.12 2.68 5.9s4.24-3.2 7.06-4.8 4.38-2.62 6.92-3.6a33.81 33.81 0 0 1 5.08-1.47l-6.07-12.25-5.79-9.67-11.58 5.14 1.7 20.75z"/>
<path d="M113.61 59.24c-.2-.24 5.08-4.5 8.61-6.34 3.53-1.84 10.25-3.69 10.25-3.69"/>
<path d="m57.8 56.12-2.68 5.9s-4.24-3.2-7.06-4.8c-2.82-1.59-4.38-2.62-6.92-3.6a33.81 33.81 0 0 0-5.08-1.47l6.07-12.25 5.79-9.67 11.58 5.14-1.7 20.75z"/>
<path d="M56.39 59.24c.2-.24-5.08-4.5-8.61-6.34-3.53-1.84-10.25-3.69-10.25-3.69"/>
</g>
</g>
<g id="Boots"><g id="Basic_Boots" class="option">
<path id="Main_Basic-Boot" d="M109.1 216.81c1.46.01 3.24.93 4.53 1.15 1.38.23 2.88.21 4.34.07l.59-.06h.02l.07-.01.19-.03.3-.04.12-.02 1.01-.16.53-.1.11-.03.04-.01.08-.02.36-.09.32-.09.05-.01c1.12-.3 2.24-.66 2.24-.66.33 1.45.5 3.11 1.12 4.46.99 2.13.95 3.05 2.61 4.66 1.14 1.1 4.08 3.05 5.44 3.89.57.36 1.19.63 1.81.86l.06.02c2.5.93 5.2 1.28 6.56 4.03.3.6.55 1.32.5 2-.06.87-1.02.99-1.76 1.2-1.84.52-3.43.92-5.56 1.39a28 28 0 0 1-7.1.81c-1.84-.05-3.41-.13-5.03-1.1-.65-.39-1.32-.79-1.89-1.3-1.27-1.15-2.09-2.36-3.71-3.04-1.18-.5-2.39-.91-3.63-1.2-1.76-.42-4.34-1-5.28-2.74-.37-1.3.01-1.94.13-3.06l.06-.48c.1-.73.23-1.48.26-2.26.08-1.51-.3-3.01-.4-4.51-.06-.85-.1-1.71-.11-2.56 0-.14-.08-.75.06-.8.19-.08.4-.12.62-.14l.34-.02zm-48.17 0c-1.46.01-3.24.93-4.53 1.15-1.38.23-2.88.21-4.34.07l-.59-.06h-.02l-.07-.01-.19-.03-.3-.04-.12-.02-1.01-.16-.53-.1-.11-.03-.04-.01-.08-.02-.36-.09-.32-.09-.05-.01c-1.12-.3-2.24-.66-2.24-.66-.33 1.45-.5 3.11-1.12 4.46-.99 2.13-.95 3.05-2.6 4.66-1.14 1.1-4.08 3.05-5.44 3.89-.57.36-1.19.63-1.81.86l-.06.02c-2.5.93-5.2 1.28-6.56 4.03-.3.6-.55 1.32-.5 2 .06.87 1.02.99 1.76 1.2 1.84.52 3.43.92 5.56 1.39a28 28 0 0 0 7.1.81c1.84-.05 3.41-.13 5.03-1.1.65-.39 1.32-.79 1.89-1.3 1.27-1.15 2.09-2.36 3.72-3.04 1.18-.5 2.39-.91 3.63-1.2 1.76-.42 4.33-1 5.28-2.74.37-1.3-.01-1.94-.13-3.06l-.06-.48c-.1-.73-.23-1.48-.26-2.26-.08-1.51.3-3.01.4-4.51.06-.85.1-1.71.11-2.56 0-.14.08-.75-.06-.8-.19-.08-.4-.12-.62-.14l-.36-.02z" fill="#141913"/>
<path id="Bottom_Basic-Boot" d="M108.15 230.64a4.54 4.54 0 0 0 2.33 1.86c.89.45 1.95.64 2.96.88l.41.1.6.16.18.05.1.03.19.06.08.03.33.11.12.04.06.02.5.18.11.04.45.17.12.05.27.11.12.05c.27.11.51.24.74.38l.03.02.05.03.21.14.05.03.04.03.2.15.06.04.09.07c.28.23.54.47.8.73l.07.07.42.43.45.45.48.46.06.05.15.13.03.02.25.2.17.13.03.02.22.15.09.06.33.21.23.14.09.06.25.15.11.07.08.04.08.04.34.17.16.07.05.02c.34.15.68.26 1.02.35l.06.01.08.02.07.02.21.04.16.03.13.02.04.01.11.02.18.02.26.03a13.2 13.2 0 0 0 .72.06l.36.02h.11l.7.02.46.01h.63l.83-.03.12-.01.11-.01.1-.01 1.21-.11.11-.01.3-.04.13-.02.11-.01.25-.04 1.06-.18.24-.04.1-.02.11-.02.11-.02.11-.02.08-.02.26-.05.11-.02.3-.07.26-.06h.03l1.58-.36.19-.04.42-.1.17-.04.08-.02.58-.15.35-.09 1-.26.15-.04.17-.04.06-.02.79-.22.06-.02.09-.02.28-.07.09-.03.14-.04.06-.02.11-.04.1-.03.04-.02.05-.02.03-.01.05-.02.05-.03.02-.01.05-.03.06-.04.06-.04.05-.04a1 1 0 0 0 .22-.24s.49.73.53 1.99c-1.1 1.59-4.6 2.12-9.43 2.76-4.8.64-7.76.51-9.77-.35s-5.53-4.94-8.05-5.15a18.79 18.79 0 0 1-6.72-2.26c-.64-.37-.45-3-.45-3l.06-.41zm-46.28 0a4.54 4.54 0 0 1-2.33 1.86c-.89.45-1.95.64-2.95.88l-.41.1-.6.16a1.2 1.2 0 0 1-.18.05l-.1.03-.19.06a.69.69 0 0 0-.08.03l-.33.11-.12.04-.06.02-.5.18-.11.04-.45.17-.12.05-.27.11-.12.05c-.27.11-.51.24-.74.38l-.03.02-.05.03-.21.14-.05.03-.04.03-.2.15-.06.04-.09.07c-.28.23-.54.47-.8.73l-.07.07-.42.43-.45.45-.48.46-.06.05-.15.13-.03.02-.25.2-.17.13-.03.02-.22.15-.09.06-.33.21-.23.14-.1.06-.24.15-.11.07-.08.04-.08.04-.34.17-.16.07-.05.02c-.34.15-.67.26-1.02.35l-.06.01-.08.02-.07.02-.21.04-.16.03-.13.02-.04.01-.11.02a1.1 1.1 0 0 1-.18.02l-.26.03-.07.01-.65.05-.36.02h-.1l-.7.02-.46.01h-.63l-.83-.03-.12-.01-.11-.01-.1-.01-1.21-.11-.11-.01-.3-.04-.13-.02-.11-.01-.25-.04-1.06-.18-.24-.04-.1-.02-.11-.02-.11-.02-.11-.02-.08-.02-.26-.05-.11-.02-.3-.07-.26-.06h-.03l-1.58-.36-.19-.04-.42-.1-.17-.04-.08-.02-.58-.15-.35-.09-1-.26-.15-.04-.17-.04-.06-.02-.79-.22-.06-.02-.09-.02-.28-.07-.09-.03-.15-.04-.06-.02-.11-.04-.1-.03-.04-.02-.05-.02-.03-.01-.05-.02-.05-.03-.02-.01-.05-.03-.06-.04-.06-.04-.05-.04a1 1 0 0 1-.22-.24s-.49.73-.53 1.99c1.1 1.59 4.6 2.12 9.43 2.76 4.8.64 7.76.51 9.77-.35s5.53-4.94 8.05-5.15a18.86 18.86 0 0 0 6.72-2.26c.64-.37.45-3 .45-3l-.07-.41z" fill="#191E17"/>
<path id="Top_Basic-Boot" d="M122 217.29c.67 3.26 1.7 6.09 3.88 8.84 3.4 4.27 9.2 4.62 13.21 8.09 1.03.89.98 2.32 1.15 3.64-1.66.47-3.13.84-4.99 1.26-.13-1.31.1-2.78-.99-3.72-4.01-3.47-10.32-3.34-13.72-7.61-2.22-2.79-2.23-6.39-2.87-9.74l.3-.03.59-.06h.02l.07-.01.19-.03.3-.04.12-.02 1.01-.16.53-.1.11-.03.04-.01.08-.02.36-.09.32-.09.05-.01.24-.06zm-73.98 0c-.67 3.26-1.7 6.09-3.88 8.84-3.4 4.27-9.2 4.62-13.21 8.09-1.03.89-.98 2.32-1.15 3.64 1.66.47 3.13.84 4.99 1.26.13-1.31-.1-2.78.99-3.72 4.01-3.47 10.32-3.34 13.72-7.61 2.22-2.79 2.23-6.39 2.87-9.74l-.3-.03-.59-.06h-.02l-.07-.01-.19-.03-.3-.04-.12-.02-1.01-.16-.53-.1-.11-.03-.04-.01-.08-.02-.36-.09-.32-.09-.05-.01-.24-.06z" fill="#191E17"/>
<path id="Side_Basic-Boot" d="M109.49 216.83c1.38.15 2.96.92 4.14 1.12l.19.03c.02.41.01.82.02 1.18.05 2.04-.21 10.76-.61 10.75-.4-.02-1.58-.23-1.88-.55-.2-.21-.24-.71-.3-.98-.21-.87-.4-1.73-.53-2.61a42.83 42.83 0 0 1-.4-3.55c-.14-1.8-.42-3.6-.63-5.39zm-48.96 0c-1.38.15-2.96.92-4.14 1.12l-.19.03c-.02.41-.01.82-.02 1.18-.05 2.04.21 10.76.61 10.75.4-.02 1.58-.23 1.88-.55.2-.21.24-.71.3-.98.21-.87.4-1.73.53-2.61.18-1.19.32-2.36.4-3.55.15-1.8.42-3.6.63-5.39z" fill="#191E17"/>
</g>
</g>
<g id="Gloves">
<g id="Left-Glove">
<g id="Fingerless_Left_Glove" class="option">
<g id="Fingers_Fingerless_Left_Glove" fill="#9A6B41">
<path d="M138.6 124.11a5.98 5.98 0 0 0-1.58.1c-.36.08-.72.16-1.04.35-.99.57-.72 1.81.16 2.28 1.03.55 2.66.01 3.13-1.05.19-.44-.41-1.26-.67-1.68"/>
<path d="M136.79 125.19a5.68 5.68 0 0 0-1.59.1c-.36.08-.72.16-1.04.35-.99.57-.72 1.81.16 2.28 1.03.55 2.66.01 3.13-1.05.2-.44-.4-1.26-.66-1.68"/>
<path d="M135.51 126.62c-.54.05-1.21.17-1.73.35-.35.12-.69.26-.99.48-.9.7-.47 1.89.47 2.24 1.1.41 2.64-.35 2.96-1.46.14-.47-.71-1.61-.71-1.61z"/>
<path d="M129.95 119.82c-.3 1.34-.55 2.07-.55 2.07s-1.38 2.79-1.14 3.43c.24.64 1.45 1.21 2.15.87.86-.42 1.93-2.39 2.61-3.77.25-.51.48-1.1.68-1.64-2.76.4-3.75-.96-3.75-.96zm5.69 6.59c-.2.34-.43.7-.68 1.08-1.36 2.05-3.46 3.81-2.07 5.37 1.29 1.46 4.22-2.37 4.22-2.37l1.36-1.77a3.8 3.8 0 0 1-2.83-2.31z"/>
</g>
<path id="Glove_Fingerless_Left_Glove" d="m138.46 128.72 1.51-1.96s3.3-5.41 3.47-6.46c.13-.8.02-3.47.02-3.47l-1.03-10.37-5.24.44-4.31 1.39-.32 1.77s-1.56 2.15-1.97 3.69c-.29 1.09-.13 3.68-.49 5.43l-.14.65s.99 1.37 3.74.96c.35-.96.58-1.78.58-1.78s.95.32 1.43.7c1.61 1.24.91 4.96.91 4.96s-.37.74-.98 1.75c0 0 .56 1.77 2.82 2.3z" fill="#161616"/>
</g></g>
<g id="Right-Glove"><g id="Basic_Right_Glove" class="option" fill="#353C44">
<path d="M31.4 124.11a5.98 5.98 0 0 1 1.58.1c.36.08.72.16 1.04.35.99.57.72 1.81-.16 2.28-1.03.55-2.66.01-3.13-1.05-.2-.44.41-1.26.67-1.68"/>
<path d="M33.21 125.19a5.59 5.59 0 0 1 2.62.45c.99.57.72 1.81-.16 2.28-1.03.55-2.66.01-3.13-1.05-.19-.44.41-1.26.67-1.68"/>
<path d="M34.51 126.65a7.5 7.5 0 0 1 1.7.31c.35.12.69.26.99.48.9.7.47 1.89-.47 2.24-1.1.41-2.64-.35-2.96-1.46-.13-.46.74-1.57.74-1.57z"/>
<path d="M37.45 110.05s1.56 2.15 1.97 3.69c.29 1.09.13 3.68.49 5.43.36 1.74.69 2.71.69 2.71s1.38 2.79 1.14 3.43c-.24.64-1.45 1.21-2.15.87-.86-.42-1.93-2.39-2.61-3.77-.69-1.41-1.25-3.41-1.25-3.41s-.95.32-1.43.7c-1.61 1.24-.91 4.96-.91 4.96s.66 1.33 1.66 2.83c1.36 2.05 3.46 3.81 2.08 5.37-1.29 1.46-4.22-2.37-4.22-2.37l-2.87-3.73s-3.3-5.41-3.47-6.46c-.13-.8-.02-3.47-.02-3.47l1.03-10.37 5.24.44 4.31 1.39.32 1.76"/>
</g>
</g>
</g>
<g id="Biceps">
<g id="Left-Biceps"><g id="Basic_Biceps_Left" class="option">
<path id="Main_Basic_Biceps_Left" d="M134.37 52.38c-1.14-2.74-6.21-14.78-6.21-14.78l-10.42 4.28c-.59.24-.87.91-.63 1.5l4.87 11.74a3.36 3.36 0 0 0 4.37 1.8l7.4-3.04c.58-.25.86-.92.62-1.5z" fill="#0F140C"/>
<path id="Strap_Basic_Biceps_Left" d="m119.35 48.7-5.85 2.4-.14 4.29 7.49-3.07-1.5-3.62" fill="#191E19"/>
<path id="Trauma-Plate_Basic_Biceps_Left" class="toggle" style="" d="m134.34 51.81-5.29-12.74-10.16 4.17 4.67 11.24c.17.4.49.72.89.88.4.17.85.17 1.26 0l8.63-3.55" fill="#1A2416"/>
</g>
</g>
<g id="Right-Biceps"><g id="Full-Band_Biceps_Right" class="option">
<path id="Main_Full-Band_Biceps_Right" d="m55.91 60.46.85-2.32-.45-13.76-13.63-4.61a2 2 0 0 0-2.51 1.18l-4.82 12.59 20.56 6.92" fill="#475059"/>
<g id="Trim_Full-Band_Biceps_Right" fill="#394047">
<path d="M39.71 49.15c-1.11 0-2.02.87-2.02 1.93 0 1.07.9 1.93 2.02 1.93 1.11 0 2.02-.86 2.02-1.93 0-1.06-.91-1.93-2.02-1.93"/>
<path d="m35.36 53.53-.47 1.29a1.42 1.42 0 0 0 .89 1.83l17.85 5.98c.74.25 1.54-.14 1.8-.86l.49-1.32-20.56-6.92"/>
</g>
</g></g>
</g>
<g id="BicepsDecals" mask="url(#BicepsMask)"/>
<path id="Vest" d="M85 20.92c8.5-.01 15.43-4.3 15.63-8.01l.15.02 18.38 5.42 13.31 23.94-2.86 1.16-13.42-8.6-2.31 3.72-1.54 47.4s-8.72 4.71-13.53 5.35c-3.44.45-8.63.68-13.79.67-5.16.01-10.35-.22-13.79-.67-4.81-.63-13.53-5.35-13.53-5.35l-1.54-47.4-2.31-3.72-13.42 8.6-2.86-1.16 13.31-23.94 18.38-5.42.15-.02c.16 3.71 7.09 8.01 15.59 8.01" fill="#0B0F0B"/>
<g id="SuitDecals" mask="url(#SuitMask)"/>
<g class="swappable" id="Chest"><g id="Chest_Heavy">
<g id="Abdomen_Heavy">
<path id="Under-Plates_Abdomen_Heavy" d="M73.86 69.99h22.29v2.83H73.86zm0 2.83h22.29v2.83H73.86zm0 2.83h22.29v2.83H73.86zm0 2.83h22.29v2.83H73.86zm0 2.83h22.29v2.83H73.86z" fill="#090D0A"/>
<g id="Abdomen-Plate_Heavy" fill="#0A1107">
<path d="m78.16 60.86-11.11 4.69L66 63.03l12.15-5.13v2.96z"/>
<path d="m70.94 74.95-3.9-9.4 11.11-4.69 3.48 9.89-10.69 4.2z"/>
<path d="m66 63.03-4.67.81 6.89 16.28 4.7-.93L66 63.03zm25.84-2.17 11.11 4.69 1.04-2.52-12.15-5.13v2.96z"/>
<path d="m99.06 74.95 3.9-9.4-11.11-4.69-3.48 9.89 10.69 4.2z"/>
<path d="m104 63.03 4.67.81-6.89 16.28-4.7-.93L104 63.03zM78.19 57.9H91.8v2.96H78.19zm3.44 12.85-3.48-9.89h13.69l-3.48 9.89h-6.73z"/>
</g>
</g>
<g id="Neck-Armor_Heavy">
<path id="Neck-Plate_Heavy" d="m69.69 11.62-9.62 2.1.92 3.57a5.11 5.11 0 0 0 6.04 3.72 4.73 4.73 0 0 0 3.59-5.82l-.93-3.57zm30.62 0 9.62 2.1-.92 3.57a5.1 5.1 0 0 1-6.04 3.72 4.73 4.73 0 0 1-3.59-5.82l.93-3.57z" fill="#0F190F"/>
<path id="Secondary_Neck-Plate_Heavy" d="m67.3 11.8-4.84 1.06.69 2.67a2.57 2.57 0 0 0 3.04 1.87 2.4 2.4 0 0 0 1.8-2.93l-.69-2.67zm35.4 0 4.84 1.06-.69 2.67a2.57 2.57 0 0 1-3.04 1.87 2.4 2.4 0 0 1-1.8-2.93l.69-2.67z" fill="#1B0B0B"/>
</g>
<g id="Full-Chest_Heavy">
<path id="Under-Plate_Chest_Heavy" d="M90.5 54.56h-11l-2.76 2.36v1.58l1.45-.6H91.8l1.45.61v-1.59l-2.75-2.36z" fill="#090D0A"/>
<g id="Chest-Plate_Heavy" fill="#0B140B">
<path d="m65.78 61.66 9.75-5.63 1.32-2.67 2.6.35h11.11l2.6-.35 1.32 2.67 9.75 5.63 4.53.99-.11 1.65-4.85-.84-10.54-4.37v-2.17l-2.76-2.36h-11l-2.76 2.36v2.17L66.2 63.46l-4.85.84-.11-1.65 4.54-.99zm42.97.98 5.64-14.4.83 2.95-1.79 10.71-4.68.74zM54.78 51.19l.83-2.95 5.64 14.4-4.68-.74-1.79-10.71z"/>
<path d="M61.09 42.62V36.6l-.46-10.79 2.81-3.1 8.51-1.76 2.2 2.57h21.69l2.2-2.57 8.51 1.76 2.81 3.1-.45 10.53-.01-.02v6.31L93.15 53.36l-2.6.35h-11.1l-2.6-.35-15.76-10.74z"/>
<path d="M108.91 36.61v6.02l5.49 5.61-5.49-11.63zM76.85 53.36 61.09 42.62l-5.49 5.61 5.64 14.4 4.53-.99 9.75-5.63 1.33-2.65z"/>
<path d="m114.4 48.24-5.64 14.4-4.53-.99-9.75-5.63-1.32-2.67 15.75-10.74 5.49 5.63z"/>
<path d="m113.43 61.9-.19 1.15-4.61 1.24.12-1.65 4.68-.74zM61.09 36.61v6.02l-5.49 5.61 5.49-11.63z"/>
<path d="M60.63 25.82a62.96 62.96 0 0 1-2.28 16.61l2.74-5.82-.46-10.79zm48.75 0c.06 5.53.72 11.07 2.28 16.61l-2.74-5.82.46-10.79zM61.25 62.64l.11 1.65-4.61-1.24-.19-1.15 4.69.74z"/>
</g>
<g id="Accents_Chest-Plate_Heavy" class="toggle">
<path id="Accent-3_Accents_Chest-Plate_Heavy" d="m97.88 36.45-.58-1.79h2.63l-.57 1.79h-1.48zm0 3.47-.58-1.79h2.63l-.57 1.79h-1.48zM96.19 25.8h4.93v.54h-4.93zm0 1.72h4.93v.54h-4.93z" fill="#550000"/>
<path id="Accent-2_Accents_Chest-Plate_Heavy" d="M70.47 23.02a2.89 2.89 0 0 0-3.06-2.66c-.73.05-1.42.39-1.9.94a2.8 2.8 0 0 0-.67 2.01l.2 2.66a2.89 2.89 0 0 0 3.06 2.66 2.78 2.78 0 0 0 2.57-2.95l-.2-2.66z" fill="#080E09"/>
<g id="Accent-1_Accents_Chest-Plate_Heavy" fill="#121B13">
<path d="m69.65 20.78-4.33.28.54 7.14 4.33-.28-.54-7.14z"/>
<path d="m69.18 21.34-3.31.21.08 1.02 3.3-.21-.07-1.02zm-2.78 1.21-.45.03.42 5.59.45-.03-.42-5.59z"/>
<path d="m66.88 22.51-.45.03.42 5.6.45-.03-.42-5.6zm2.37-.15-.45.03.42 5.59.45-.03-.42-5.59zm-.47.03-.45.03.42 5.6.45-.03-.42-5.6zm-.95.06-.45.03.42 5.6.45-.03-.42-5.6zm.47-.03-.45.03.42 5.6.45-.03-.42-5.6zm-.95.07-.45.03.42 5.59.45-.03-.42-5.59z"/>
</g>
</g>
</g>
<g id="Iron-Heart_Heavy">
<path id="Heart_Heavy" d="m85 31.46 3.24 2.99v5.86L85 43.28l-3.24-2.98v-5.86L85 31.46z" fill="#091008"/><g id="Center_Heart_Heavy" class="option" fill="#390101">
<path d="M83.82 34.53h2.36v2.84h-2.36z"/>
<path d="M83.82 37.37h.39v2.84h-.39zm1.57 0h.39v2.84h-.39zm.4 0h.39v2.84h-.39zm-1.19 0h.39v2.84h-.39zm.4 0h.39v2.84H85zm-.79 0h.39v2.84h-.39z"/>
</g>
</g>
</g></g>
<g id="ChestDecals" mask="url(#ChestMask)"/>
<g id="Chest-Attachments"><g id="Bandoleer_Accessories_Chest" class="option">
<g id="Strap_Bandoleer_Accessories_Chest" fill="#140F0E">
<path d="m113.05 15.37-6.61-3.15L64.67 87.5l6.61 3.62 41.77-75.75"/>
<path d="m111.26 14.16-2.51-1.17-8.34 15.03 2.41 1.32 8.44-15.18M99.44 35.85l-2.76-1.51-12.82 23.1 2.76 1.51 12.82-23.1"/>
<path d="m99.71 36.72-3.92-2.15-1.28 2.32 3.92 2.15 1.28-2.32m-1.56 2.81-3.92-2.15-1.28 2.32 3.92 2.15 1.28-2.32m-1.55 2.8-3.92-2.15-1.28 2.32 3.92 2.15 1.28-2.32m-1.56 2.81-3.92-2.15-1.28 2.32 3.92 2.15 1.28-2.32m-1.56 2.8-3.92-2.15-1.29 2.32 3.92 2.15 1.29-2.32m-3.11 5.61-3.92-2.15-1.29 2.32 3.92 2.15 1.29-2.32m1.56-2.8-3.92-2.15-1.29 2.32 3.92 2.15 1.29-2.32m-3.11 5.61-3.92-2.15-1.28 2.31 3.92 2.15 1.28-2.31"/>
</g>
<g id="Ammo_Bandoleer_Accessories_Chest" fill="#757575">
<path d="m99.57 36.97 1.6.88c.17.09.23.31.14.48l-.66 1.18a.36.36 0 0 1-.48.14l-1.6-.88 1-1.8z"/>
<path d="m100.75 37.61-.13-.07-1 1.8.13.07 1-1.8zm-.28-.15-.13-.07-1 1.8.14.07.99-1.8zm-4.82-2.64-1 1.8-1.6-.88a.36.36 0 0 1-.14-.48l.66-1.19a.36.36 0 0 1 .48-.14l1.6.89z"/>
<path d="m94.44 34.15-.13-.07-1 1.8.14.07.99-1.8zm2.01 8.45 1.6.88c.17.09.23.31.14.48l-.66 1.19a.36.36 0 0 1-.48.14l-1.6-.88 1-1.81z"/>
<path d="m97.63 43.24-.13-.07-1 1.8.13.07 1-1.8zm-.28-.15-.13-.07-1 1.8.13.07 1-1.8zm-4.82-2.64-1 1.8-1.6-.88a.36.36 0 0 1-.14-.48l.66-1.19c.1-.17.31-.23.48-.14l1.6.89z"/>
<path d="m91.32 39.78-.13-.07-1 1.8.13.07 1-1.8zm3.58 5.6 1.6.88c.17.09.23.31.14.48l-.66 1.18a.36.36 0 0 1-.48.14l-1.6-.88 1-1.8z"/>
<path d="m96.08 46.03-.13-.07-1 1.8.13.07 1-1.8zm-.28-.15-.13-.07-1 1.8.13.07 1-1.8zm-4.82-2.64-1 1.8-1.6-.88a.36.36 0 0 1-.14-.48l.66-1.19c.1-.17.31-.23.48-.14l1.6.89z"/>
<path d="m89.77 42.57-.13-.07-1 1.8.13.07 1-1.8zm3.57 5.64 1.6.88c.17.09.23.31.14.48l-.66 1.19a.36.36 0 0 1-.48.14l-1.6-.88 1-1.81z"/>
<path d="m94.52 48.85-.13-.07-1 1.8.13.07 1-1.8zm-.28-.15-.13-.07-1 1.8.13.07 1-1.8zm-4.82-2.64-1 1.8-1.6-.88a.36.36 0 0 1-.14-.48l.66-1.18c.1-.17.31-.23.48-.14l1.6.88z"/>
<path d="m88.21 45.39-.13-.07-1 1.8.13.07 1-1.8z"/>
</g>
<g id="Buckles_Bandoleer_Accessories_Chest" fill="#757575">
<path d="m104 27.77-2.88-1.58-1.63 2.93 2.88 1.58 1.63-2.93z"/>
<path d="m103.26 28.27-2.17-1.19-1.63 2.93 2.17 1.19 1.63-2.93zm.74-3.93-1.86-1.01 1.61-2.92 3.76 2.05-1.61 2.92-1.9-1.04.36-.65 1.06.58.89-1.61-2.07-1.13-.89 1.61 1.01.55"/>
</g>
</g></g>
<g id="Collar"><g id="Cloth-Wrap-Right_Collar" class="option">
<g id="Main_Cloth-Wrap-Right_Collar" fill="#0D100D">
<path d="M94.88 22.25c5-1.56 5.91-4.07 6.21-6.59.12-1.03-1.36-3.72.17-4.41 1.73-.78 5.81.44 7.49.8 1.25.27 2.36.58 3.63.59 2.94.03 5.28 1.99 5.54 3.45.37 2.04-3.27 2.78-4.97 4.33-4.26 3.88-5.74 9.13-14.69 10.57-4.11.66-8.18-.27-11.99-1.12-9.86-2.19-15.23-4.07-21.57-8.93-2.77-2.13-6.95-3.86-6.85-6.71.01-.12 2.02-1.31 2.22-1.36 1.78-.44 3.29-1.17 5.24-1.21 1.17-.02.98.98 1.06 1.43.33 1.74 1.93 3.05 3.93 4.36 5.3 3.47 17.34 4.54 24.58 4.8z"/>
<path d="M94.88 22.25c1.32.05 2.48.25 3.5.32 4.57.28 6.21-.83 7.09-2.86m3.63-7.6a6.08 6.08 0 0 1 .1 6.33m-38.49-.21c3.43 4.66 8.51 6.13 14.08 6.7M61.44 12.49c.2 1.18.91 1.62 1.78 2.41.5.46 1.12.78 1.52 1.35.14.2.22.44.31.67"/>
</g>
<path id="Buckle_Cloth-Wrap-Right_Collar" d="m71.89 17.35-2.91-2.08-5.06 7.02 2.91 2.08 5.06-7.02z" fill="#565656"/>
</g></g>
<g id="CollarDecals" mask="url(#CollarMask)"/>
<g id="Helmets" class="swappable" transform="translate(45,-62)"><g id="Helmet_Recon">
<g id="Left-Earcap_Recon">
<g id="Module_Left_Recon" class="option" style="">
<g id="Main_Module_Left_Recon" fill="#182A18">
<path d="M60.51 49.13h2v2.66h-2zM63.13 47.72h.73v.47h-.73zM64.2 47.72h.73v.47h-.73zM66.76 50.29v-.73h-.47v.73h.47zM66.76 51.36v-.73h-.47v.73h.47zM63.13 52.73h.73v.47h-.73zM64.2 52.73h.73v.47h-.73z"/>
<circle cx="64.03" cy="50.46" r="2.46"/>
</g>
<g id="Inside_Module_Left_Recon" fill="#5C1010">
<ellipse cx="64.03" cy="50.46" rx="1.94" ry="1.92"/>
<ellipse cx="64.03" cy="50.46" rx="1.15" ry="1.13"/>
<ellipse cx="64.03" cy="50.46" rx=".73" ry=".72"/>
<ellipse cx="64.03" cy="50.46" rx=".38" ry=".37"/>
</g>
</g><g id="Ear-Cap_Left_Recon" fill="#121E12">
<path d="m59.05 44.42 1.5.77-.67 1.25h-.81l-.02-2.02z"/>
<path d="m60.55 45.19 1.02 13.31-1.41-.16-.28-11.89.67-1.26zM60.16 58.34h-1.11l-.27-11.89h1.1l.28 11.89z"/>
<path d="M61.06 58.5v1.4H59.1l-.04-1.54 1.1-.02.9.16z"/>
<path d="M59.8 58.34v1.56h-.7l-.04-1.56h.74zM61.06 60.3v1.35l-1.92.19v-1.51h.66l1.26-.03z"/>
<path d="M59.8 60.33v1.44l-.66.07v-1.51h.66zM60.82 59.9v.4l-1.02.03h-.7v-.43h1.72z"/>
<path d="M59.1 59.9h.58v.43h-.58zM61.06 61.65h.56l.1 4.63-1.22 1.32v-5.88l.56-.07zM60.49 67.59l-1.2.9-.15-6.65 1.35-.14v5.89zM58.88 50.91h.59v2.33h-.53l-.06-2.33z"/>
</g>
</g>
<g id="Right-Earcap_Recon"><g id="Range-Finder_Right_Recon" class="option" style="">
<g id="Finder_Range-Finder_Right_Recon" fill="#121E12">
<path d="M21.13 21.57H19.1l-.56-1.83.86-2.08h14.21v1.07c-4.45.05-8.99-.13-12.48 2.84z"/>
<path d="m20.19 17.66-.94 2.18.61 1.73h-.76l-.56-1.83.86-2.08h.79zM33.16 18.73v.6h-7.54c2.38-.59 4.97-.58 7.54-.6z"/>
<path d="M25.62 19.33h6.96l-.89.71h-6.47l-.46-.46v-.01c.28-.08.57-.17.86-.24z"/>
</g>
<path id="Shaft_Range-Finder_Right_Recon" d="M20.19 21.57h-.57l-.82 26.57h.57l.82-26.57z" fill="#2B3D2B"/>
<g id="Base_Range-Finder_Right_Recon" fill="#121E12">
<path d="m18.97 42.77-1.79 1.07-.13 3.3 1.78.08.14-4.45z"/>
<path d="m17.39 47.15-.17 5.09h.57l.22-5.06-.62-.03z"/>
<path d="m17.37 47.79-1.04.8-.06 2.72.95.93.15-4.45z"/>
<path d="m17.12 45.35-.3.17v2.69l.55-.42v-.63l-.32-.01.07-1.8zM17.79 52.24l.22-5.06.82.03-.03.92h.57v4.1h-1.58z"/>
<path d="M17.97 48.21h.83l.03-.99h-.82l-.04.99zM17.91 49.49h1.46v.55h-1.48l.02-.55zM17.86 50.59l.02-.55h1.48v.53l-1.5.02zM18.58 48.21v1.28h-.67l.05-1.28h.62z"/>
</g>
</g>
<g id="Ear-Cap_Right_Recon" fill="#121E12">
<path d="m20.89 44.42-1.5.77.67 1.25h.81l.02-2.02z"/>
<path d="M19.39 45.19 18.37 58.5l1.41-.16.28-11.89-.67-1.26z"/>
<path d="M19.78 58.34h1.11l.27-11.89h-1.1l-.28 11.89z"/>
<path d="M18.88 58.5v1.4h1.96l.04-1.54-1.1-.02-.9.16z"/>
<path d="M20.14 58.34v1.56h.7l.04-1.56h-.74zM18.88 60.3v1.35l1.92.19v-1.51h-.66l-1.26-.03z"/>
<path d="M20.14 60.33v1.44l.66.07v-1.51h-.66zM19.11 59.9v.4l1.02.03h.69l.01-.43h-1.72z"/>
<path d="M20.26 59.9h.58v.43h-.58zM18.88 61.65h-.56l-.1 4.63 1.22 1.32v-5.88l-.56-.07zM19.45 67.59l1.2.9.15-6.65-1.35-.14v5.89zM21.06 50.91h-.59v2.33H21l.06-2.33z"/>
</g>
</g>
<g id="Helmet_Pieces_Recon">
<g id="Face_Recon" fill="#0E170E">
<path d="m22.95 68.65.78-6.92.8-.31.72-5.18s4.47 3.09 6.25 5.15c2.03 2.35 4.07 15.01 4.07 15.01l-12.62-7.75zM56.99 68.65l-.78-6.92-.8-.31-.72-5.18s-4.47 3.09-6.25 5.15c-2.03 2.35-4.07 15.01-4.07 15.01l12.62-7.75z"/>
</g>
<g id="Vents_Recon" fill="#0C140C">
<path d="m25.99 63.31-1.23-.9-.45.15-.03.52 1.11 1.07v-.59l.6-.25z"/>
<path d="m23.74 61.72.58.84.45-.15 1.23.9-.6.25 1.75 1.17 1.67-.85c-1.6-.7-3.04-1.52-4.28-2.48l-.8.32zM27.15 64.74a11.04 11.04 0 0 0-.87 5.95l1.51.93 1.03-7.72-1.67.84z"/>
<path d="m27.58 64.93.79-.4-.86 6.48-.88-.54-.01-.17h.76v-.4h-.78l-.01-.2v-.22h.93v-.4h-.93v-.12l.01-.31h1.04v-.4h-1.01v-.01l.05-.41h1.08v-.4h-1.02l.08-.43h.99v-.4h-.9l.09-.36.02-.06h.9v-.4h-.77l.05-.16.11-.27h.76v-.4h-.49z"/>
<path d="m26.28 70.69-3.32-2.04.78-6.92.58.84-.04.51 1.12 1.08v-.59l1.75 1.17a11.04 11.04 0 0 0-.87 5.92v.03z"/>
<path d="m24.6 62.78.8.78.6-.25-.94-.69-.46.16z"/>
<path d="M24.6 63.09v-.31l.8.78v.28l-.8-.75zM24.28 63.08l.32.02M25.05 68.83l-1.14-.65v.32l1.14.64v-.31zM27.58 64.93h.47v.4h-.76l.14-.32.15-.08zM27.12 65.76l-.13.4h.9v-.4h-.77zM26.88 66.59l-.07.28-.02.12h.99v-.4h-.9zM26.71 67.42l-.02.12-.03.28h1.08v-.4h-1.03zM26.61 68.25l-.02.4h1.04v-.4h-1.02zM26.58 69.07v.4h.93v-.4h-.93zM26.59 69.9l.03.4h.76v-.4h-.79z"/>
<g>
<path d="m53.95 63.31 1.23-.9.45.15.03.52-1.11 1.07v-.59l-.6-.25z"/>
<path d="m56.2 61.72-.58.84-.45-.15-1.23.9.6.25-1.75 1.17-1.67-.85c1.6-.7 3.04-1.52 4.28-2.48l.8.32zM52.79 64.74c.81 1.67 1.09 3.66.87 5.95l-1.51.93-1.03-7.72 1.67.84z"/>
<path d="m52.36 64.93-.79-.4.86 6.48.88-.54.01-.17h-.76v-.4h.78l.01-.2v-.22h-.93v-.4h.93v-.12l-.02-.31H52.3v-.4h1.01v-.01l-.05-.41h-1.08v-.4h1.02l-.08-.43h-.99v-.4h.9l-.09-.36-.02-.06h-.9v-.4h.77l-.05-.16-.11-.27h-.76v-.4h.49z"/>
<path d="m53.66 70.69 3.33-2.04-.78-6.92-.58.84.04.51-1.12 1.08v-.59l-1.75 1.17c.8 1.67 1.09 3.64.87 5.92l-.01.03z"/>
<path d="m55.34 62.78-.8.78-.6-.25.94-.69.46.16z"/>
<path d="M55.34 63.09v-.31l-.8.78v.28l.8-.75zM55.66 63.08l-.32.02M54.89 68.83l1.14-.65v.32l-1.14.64v-.31zM52.36 64.93h-.47v.4h.76l-.14-.32-.15-.08zM52.82 65.76l.13.4h-.9v-.4h.77zM53.06 66.59l.07.28.02.12h-.99v-.4h.9zM53.23 67.42l.02.12.03.28H52.2v-.4h1.03zM53.33 68.25l.02.4h-1.03v-.4h1.01zM53.36 69.07v.4h-.93v-.4h.93zM53.35 69.9l-.02.4h-.76v-.4h.78z"/>
</g>
</g>
<g id="Cheeks_Recon" fill="#0C170C">
<path d="m24.76 52.7.5 3.54-.72 5.18-.8.31 1.02-9.03z"/>
<path d="M24.76 52.7s5.37 3.85 7.13 6.73c2.19 3.56 4.26 16.16 4.39 16.95l.01.04h-.69s-2.04-12.66-4.07-15.01c-1.79-2.07-6.25-5.15-6.25-5.15l-.52-3.56z"/>
<path d="m26.25 54.85.13.63 1.17.9-.08-.66-1.22-.87zM55.18 52.7l-.5 3.54.72 5.18.8.31-1.02-9.03z"/>
<path d="M55.18 52.7s-5.37 3.85-7.13 6.73c-2.19 3.56-4.26 16.16-4.39 16.95l-.01.04h.69s2.04-12.66 4.07-15.01c1.79-2.07 6.25-5.15 6.25-5.15l.52-3.56z"/>
</g>
<path fill="#000000" id="Visor_Recon" d="m38.94 76.41-1.37-22.04-.7-.17-8.9-2.78-.9-2.27.29.01c2.17.39 4.47.71 6.97.94l2.05 1.35c1.16.21 2.36.3 3.58.31H40c1.22-.02 2.42-.11 3.58-.31l2.05-1.35c2.5-.23 4.8-.55 6.96-.94l.29-.01-.9 2.27-8.9 2.78-.7.17L41 76.41h-2.06z"/>
<g id="Eyes-2_Recon" fill="#111D10">
<path d="m26.16 48.93.79 2.17 9.91 3.1 1.41 22.22h-1.99s-2.14-13.31-4.39-16.98c-1.76-2.87-7.13-6.73-7.13-6.73l1-3.85.4.07z"/>
<path d="m27.05 49.1.92 2.31-1.01-.31-.79-2.17.88.17zM36.86 54.19l.7.17 1.37 22.04h-.66l-1.41-22.21zM53.78 48.93l-.79 2.17-9.91 3.1-1.41 22.22h1.99s2.14-13.31 4.39-16.98c1.76-2.87 7.13-6.73 7.13-6.73l-1-3.85-.4.07z"/>
<path d="m52.9 49.1-.92 2.31 1.01-.31.79-2.17-.88.17zM43.08 54.19l-.7.17L41 76.41h.66l1.42-22.22z"/>
<path d="M39.91 50.42a81.47 81.47 0 0 1-14.14-1.57h28.41a82.11 82.11 0 0 1-14.21 1.57h-.06z"/>
<path d="M39.94 51.75a23.36 23.36 0 0 1-3.58-.31l-2.05-1.35c1.78.16 3.66.28 5.66.33h.09c1.96-.06 3.81-.17 5.56-.33l-2.05 1.35c-1.17.21-2.38.3-3.61.31h-.02z"/>
</g>
<g id="Eyes-1_Recon" fill="#0E150E">
<path d="M24.57 48.85h.69L24.2 52.7l-1.76 15.96h-1.78a81.4 81.4 0 0 1 3.89-19.74l.02-.07z"/>
<path d="m25.76 48.85-1 3.85-1.81 15.96h-.52L24.2 52.7l1.06-3.85h.5zM55.37 48.85h-.69l1.06 3.85 1.76 15.96h1.78a81.4 81.4 0 0 0-3.89-19.74l-.02-.07z"/>
<path d="m54.18 48.85 1 3.85 1.81 15.96h.52L55.74 52.7l-1.06-3.85h-.5zM20.33 44.94h39.28v3.12H20.33z"/>
<path d="m37.44 46.49 2.05-.6v1.2l-2.05-.6zM42.5 46.49l-2.05-.6v1.2l2.05-.6zM24.57 48.85a81.3 81.3 0 0 0-3.91 19.81l.45-20.59h37.74l.45 20.59a81.4 81.4 0 0 0-3.91-19.81H24.57zM23.21 53.31l.98-.61M24.76 52.7h-.56M56.73 53.31l-.98-.61M55.18 52.7h.57"/>
</g>
<g id="Dome-2_Recon" fill="#111711">
<path d="M39.97 29.24v15.7h-19.1c0-5.89 7.6-15.7 19.1-15.7zM39.97 29.24v15.7h19.1c0-5.89-7.6-15.7-19.1-15.7z"/>
<path d="M38.05 44.94V28.66l1.92-.1 1.92.1v16.27h-3.84z"/>
</g>
<g id="Dome-1_Recon" fill="#0D120D">
<path d="M38.05 44.94V28.18c-2.96.39-5.75 1.3-8.32 2.84v13.91h8.32zM41.89 44.94V28.18c2.96.39 5.75 1.3 8.32 2.84v13.91h-8.32z"/>
</g>
</g>
<g id="Macrobinoculars_Brow_Recon" class="toggle" style="">
<g id="Arms_Macrobinoculars_Brow_Recon" fill="#212A21">
<path d="m22.29 37.79-.6-.17-3.95 9.47v.38l.51.01 4.04-9.69zM18.97 48.37h1.04v.94h-1.04zM18.23 48.37h.5v.94h-.5zM18.23 49.31h.5v1.61h-.5zM17.74 47.48h.49v3.44h-.49zM17.74 45.44l-.54.31v2.15l.54-.41v-2.05z"/>
<path d="m17.74 47.48-.79.11-.01 2.53.8.81v-3.45zM18.73 48.37h.24v.94h-.24zM17.74 45.44l.24-.42.72-.24-.97 2.32.01-1.66zM17.98 45.01v-.4l-.78.49v.65l.54-.31.24-.43zM17.98 45.01v-.91l.72-.7v1.36l-.72.25zM18.22 47.48h1.11l-.05.89h-1.06v-.89z"/>
<path d="M19.33 47.48h-1.11l1.06.89.05-.89zM18.56 46.74l.78.27v.46h-1.08l.3-.73zM18.73 50.92v-1.61h.48l-.12 1.61h-.36zM18.73 43.4l2.79-6.76.05.93.12.04-2.96 7.1V43.4z"/>
<path d="m19.96 40.81-.88 2.09v.54l.89-2.12-.01-.51zM21.24 37.76l-.88 2.09v.55l.89-2.12-.01-.52zM57.65 37.79l.6-.17 3.95 9.47v.38l-.51.01-4.04-9.69zM59.93 48.37h1.04v.94h-1.04zM61.21 48.37h.5v.94h-.5zM61.21 49.31h.5v1.61h-.5zM61.71 47.48h.49v3.44h-.49zM62.2 45.44l.53.31v2.15l-.53-.41v-2.05z"/>
<path d="m62.2 47.48.78.11.02 2.53-.8.81v-3.45zM60.97 48.37h.24v.94h-.24zM62.2 45.44l-.24-.42-.72-.24.97 2.32-.01-1.66zM61.96 45.01v-.4l.78.48v.65l-.53-.31-.25-.42z"/>
<path d="M61.96 45.01v-.91l-.72-.7v1.36l.72.25zM61.72 47.48H60.6l.05.89h1.06l.01-.89z"/>
<path d="M60.6 47.48h1.11l-1.06.89-.05-.89zM61.38 46.74l-.78.27v.46h1.08l-.3-.73zM61.21 50.92v-1.61h-.49l.12 1.61h.37zM61.21 43.4l-2.79-6.76-.05.93-.12.04 2.96 7.1V43.4z"/>
<path d="m59.98 40.81.88 2.09v.54l-.89-2.12.01-.51zM58.7 37.76l.88 2.09v.55l-.89-2.12.01-.52z"/>
</g>
<g id="Main_Macrobinoculars_Brow_Recon" fill="#0F180F">
<path d="M25.59 27.15h28.76v1.18H25.59zM30.08 34.31l-.01-1.83 1.27-1.37v1.8l-1.26 1.4z"/>
<path d="m30.07 32.48.01 1.83h-6.44l.79-1.83h5.64z"/>
<path d="M24.77 32.79h.79v.6h-.79zM24.77 33.4h.79v.74h-.79zM26.07 32.79h.79v.6h-.79zM26.07 33.4h.79v.74h-.79zM27.38 32.79h.79v.6h-.79zM27.38 33.4h.79v.74h-.79zM28.68 32.79h.79v.6h-.79zM28.68 33.4h.79v.74h-.79zM29.08 34.31l-3.51 3.05h-1.93v-3.05h5.44z"/>
<path d="m24.77 37.36-.97.88-2.24-.67 1.51-3.26h.56v3.05h1.14z"/>
<path d="m21.56 37.58-.05-.93V35.2l4.07-8.05v1.18l-1.16 4.15-.79 1.83h-.56l-1.51 3.27z"/>
<path d="M21.76 34.71v1.93l3.55-8.12v-.75l-3.55 6.94z"/>
<path d="m22.52 33.24 1.29-4.65 1.1.33s.04 1.34-.29 2.51c-.2.69-.89 2.07-.89 2.07l-1.21-.26z"/>
<path d="M23.83 28.59c.2.06.08 1.15-.27 2.43-.35 1.28-.81 2.28-1.01 2.22s-.08-1.14.27-2.43c.34-1.29.8-2.28 1.01-2.22z"/>
<path d="M23.56 29.43c.12.03.03.72-.19 1.53s-.5 1.44-.62 1.41c-.12-.03-.03-.72.19-1.53s.5-1.44.62-1.41zM23.92 28.95l.99.27M23.9 29.32l1 .27M23.87 29.59l1.02.27M23.81 29.93l1.04.26M23.76 30.19l1.06.24M23.66 30.62l1.08.33M23.6 30.84l1.09.31M23.48 31.28l1.09.31M23.42 31.48l1.08.32M23.26 31.95l1.04.31M23.18 32.16l1.04.29M23.05 32.5l1.01.3M22.98 32.65l1.01.3M22.85 32.9l1.01.31M22.75 33.07l1.04.29M49.86 34.31l.01-1.83-1.27-1.37.01 1.8 1.25 1.4z"/>
<path d="m49.87 32.48-.01 1.83h6.44l-.79-1.83h-5.64zM50.86 34.31l3.51 3.05h1.93v-3.05h-5.44z"/>
<path d="m55.17 37.36.97.88 2.24-.67-1.51-3.26h-.57v3.05h-1.13z"/>
<path d="m58.38 37.58.05-.93V35.2l-4.07-8.05v1.18l1.16 4.15.79 1.83h.56l1.51 3.27z"/>
<path d="M58.18 34.71v1.93l-1.28-2.92h-.6l-.59-1.36-1.09-3.84v-.75l3.56 6.94zM25.59 28.33h28.76l1.16 4.15h-5.64l-1.27-1.37H31.34l-1.27 1.37h-5.64l1.16-4.15z"/>
<path d="M31.34 31.11H48.6l.01 1.8-.45-.43H31.78l-.45.43.01-1.8zM55.01 33.07h-4.38v.65h4.72l-.34-.65zM55.26 29.49l.22.52v.55l-.22-.56v-.51zM55.64 30.25l.22.52v.55l-.23-.56.01-.51zM56.01 31.01l.22.52v.54l-.23-.55.01-.51zM56.38 31.76l.22.52v.54l-.23-.56.01-.5zM51.46 26.55h2.55v.6h-2.55zM51.46 26.67l-.35.2v.28h.35v-.48z"/>
<path d="m54 26.67.35.2v.28H54v-.48z"/>
</g>
<path fill="#233352" id="Visor_Macrobinoculars_Brow_Recon" d="M53.58 27.43a.27.27 0 0 1 .27.27v.07a.27.27 0 0 1-.27.27H26.36a.27.27 0 0 1-.27-.27v-.07a.27.27 0 0 1 .27-.27h27.22z"/>
</g>
</g></g>
<g id="HelmetsDecals" mask="url(#HelmetsMask)"/>
<g id="Shoulders">
<g id="Left-Shoulder"><g id="Legacy-x2_Shoulder_Left" class="option">
<path id="Plate-2_Shoulder_Left_Legacy-x2" d="m115.99 15.27-5.8 8.69 5.95 8.29 9.39-2.29 5.9 3.63 4.41-1.15-19.85-17.17z" fill="#0F140C"/>
<path id="Trauma-Plate-2_Shoulder_Legacy-x2_Left" class="toggle" style="" d="m131.69 31.78 2.85-.74-17.1-14.9-5.19 7.75 4.6 6.43 8.64-2.17 6.2 3.63z" fill="#171F14"/>
<path id="Plate-1_Shoulder_Left_Legacy-x2" d="m108.85 10.82-2.61 10.1 8.36 5.89 8.12-5.22 6.77 1.51 3.79-2.53-24.43-9.75z" fill="#111611"/>
<path id="Trauma-Plate-1_Shoulder_Legacy-x2_Left" class="toggle" style="" d="m129.14 21.3 2.45-1.64-21.09-8.46-2.33 9.02 6.47 4.56 7.43-4.88 7.07 1.4z" fill="#141B12"/>
</g></g>
<g id="Right-Shoulder"><g id="Gunslinger-Bell_Shoulder_Right" class="option">
<path id="Main_Gunslinger-Bell_Shoulder_Right" d="M56.13 16.41c-6.16-.15-19.92 4.76-19.37 22.26l.08 3.45 11.98 4.89 10.5-13.96V16.41h-3.19z" fill="#475059"/>
<path id="Ridge_Gunslinger-Bell_Shoulder_Right" class="toggle" d="M59.32 16.41v-2.02c-13.11-.07-25.51 5.55-24.56 27.14l2.01.47.06-.75-.06-2.59c-.55-17.49 13.2-22.4 19.37-22.26h.68c1.35-.18 2.28-.13 2.5.01z" fill="#162515"/>
<g id="Trim_Gunslinger-Bell_Shoulder_Right" class="toggle" fill="#394047">
<path d="M56.13 15.63h3.19v17.45h-3.19z"/>
<path d="m56.13 32 3.19 1.05-10.51 13.97-2.55-1.9L56.13 32z"/>
<path d="m47.74 43.14 1.12 3.88-12.58-5.13v-3.42l11.46 4.67z"/>
</g>
</g></g>
</g>
<g id="ShouldersDecals" mask="url(#ShouldersMask)"/>
<g id="Gauntlets">
<g id="Left-Gauntlets"><g id="Gunslinger_Gauntlet_Left" class="option">
<path id="Accent-Top_Gunslinger_Gauntlet_Left" d="m139.9 80.56.62 5.62-2.85.79-.66-5.33 2.89-1.08zm-1.35 20.83.57 2.87-2.51.54-.6-2.86 2.54-.55z" fill="#394047"/>
<path id="Top_Gunslinger_Gauntlet_Left" d="m139.9 80.56 1.3-.49 2.29 26.33-6.27 1.32-.85-4.08.24 1.15 2.51-.54-.57-2.87-2.54.54-3.85-18.47 7.74-2.89-2.89 1.08.66 5.33 2.85-.79-.62-5.62z" fill="#475059"/>
<path id="Accent-Bottom_Gunslinger_Gauntlet_Left" d="m128.55 91.98-.74-2.3-1.62.52.74 2.3 1.62-.52zm.85 2.61-.74-2.3-1.62.52.74 2.3 1.62-.52zm6.61 7.34-5.61 1.2.9 2.8 5.3-1.13-.59-2.87z" fill="#30363B"/>
<path id="Bottom_Gunslinger_Gauntlet_Left" d="m136.52 104.38-.51-2.45-5.61 1.2.9 2.8 5.3-1.13.61 2.93-3.45.6a1.88 1.88 0 0 1-2.11-1.26l-6.31-19.4 6.89-3.82 4.29 20.53zm-7.12-9.79-.74-2.3-1.62.52.74 2.3 1.62-.52zm-.85-2.61-.74-2.3-1.62.52.74 2.3 1.62-.52z" fill="#394047"/><g id="Flamethrower_Attachment_Gunslinger_Gauntlet_Left" class="option">
<g id="Tubes_Flamethrower_Attachment_Gunslinger_Gauntlet_Left" fill="#676767">
<path d="m142.76 81.61-.83.07 2.1 25.17.83-.07-2.1-25.17zm1.91-.16-.83.07 1.51 18.05.83-.07-1.51-18.05z"/>
<path d="m143.05 83.17-1.14.09.5 6 1.14-.09-.5-6zm1.91-.15-1.14.1.5 6 1.14-.09-.5-6.01z"/>
</g>
<g id="Main_Flamethrower_Attachment_Gunslinger_Gauntlet_Left" fill="#515151">
<path d="m145.02 81.42-3.42.28.13 1.58 3.42-.28-.13-1.58zm.71 7.57-3.57.3.08.96 3.57-.29-.08-.97z"/>
<path d="m145.66 89.96-3.28.27.04.48 3.28-.27-.04-.48z"/>
<path d="m142.47 88.66-.55.06.25 2.93.55-.06-.25-2.93z"/>
</g>
<g id="Accent_Flamethrower_Attachment_Gunslinger_Gauntlet_Left" fill="#585858">
<path d="m146.2 99.5-.89.07-.03 1.25 1.17-.1-.25-1.22zm-.19-6.44-1.58.13.16 1.91 1.58-.13-.16-1.91z"/>
<path d="m145.96 94.98-1.14.1.16 1.91 1.14-.09-.16-1.92zm-1.2 8.61-1.14.09.22 2.62 1.14-.09-.22-2.62zm-.71-8.45-1.14.1.3 3.56 1.14-.09-.3-3.57z"/>
<path d="m145.08 104.88-1.58.13.04.51 1.58-.13-.04-.51z"/>
</g>
<path id="Base_Flamethrower_Attachment_Gunslinger_Gauntlet_Left" d="m141.92 88.72-.68-7.94.98.29 1.15 13.43-.92.51-.29-3.36.55-.06-.25-2.93-.54.06z" fill="#505050"/>
</g></g></g>
<g id="Right-Gauntlets"><g id="Gunslinger_Gauntlet_Right" class="option">
<path id="Accent-Top_Gunslinger_Gauntlet_Right" d="m30.21 80.56-.62 5.62 2.85.79.66-5.33-2.89-1.08zm1.35 20.83-.57 2.87 2.51.54.6-2.86-2.54-.55z" fill="#394047"/>
<path id="Top_Gunslinger_Gauntlet_Right" d="m30.21 80.56-1.3-.49-2.29 26.33 6.27 1.32.85-4.08-.24 1.15-2.51-.54.57-2.87 2.54.54 3.85-18.47-7.74-2.89 2.89 1.08-.66 5.33-2.85-.79.62-5.62z" fill="#475059"/>
<path id="Accent-Bottom_Gunslinger_Gauntlet_Right" d="m41.56 91.98.74-2.3 1.62.52-.74 2.3-1.62-.52zm-.85 2.61.74-2.3 1.62.52-.74 2.3-1.62-.52zm-6.61 7.34 5.61 1.2-.9 2.8-5.3-1.13.59-2.87z" fill="#30363B"/>
<path id="Bottom_Gunslinger_Gauntlet_Right" d="m33.59 104.38.51-2.45 5.61 1.2-.9 2.8-5.3-1.13-.61 2.93 3.45.6c.92.16 1.82-.38 2.11-1.26l6.31-19.4-6.89-3.82-4.29 20.53zm7.12-9.79.74-2.3 1.62.52-.74 2.3-1.62-.52zm.85-2.61.74-2.3 1.62.52-.74 2.3-1.62-.52z" fill="#394047"/><g id="Missle_Attachment_Gunslinger_Gauntlet_Right" class="option">
<g id="Head_Missle_Attachment_Gunslinger_Gauntlet_Right" fill="#515151">
<path d="m25.11 99.64 2.27-4.28-3.76-.42 1.49 4.7z"/>
<path d="M26.07 95.61c-.08-.01-.16.16-.18.38-.02.22.03.4.11.41.08.01.16-.16.18-.38.02-.21-.03-.4-.11-.41zm-.22 1.16c-.07-.01-.13.13-.15.3-.01.17.03.32.09.33.07.01.13-.13.15-.3.01-.17-.03-.32-.09-.33zm-.13 1.06c-.06-.01-.12.12-.13.28-.01.16.02.3.08.3.06.01.12-.12.13-.28.01-.15-.02-.29-.08-.3zm.96-2.15c-.08-.01-.16.16-.18.38-.02.22.03.4.11.41.08.01.16-.16.18-.38.02-.21-.03-.4-.11-.41zm-2.44-.27c-.08-.01-.17.16-.18.38-.02.22.03.4.11.41.08.01.16-.16.18-.38.03-.22-.03-.4-.11-.41zm.61.07c-.08-.01-.16.16-.18.38-.02.22.03.4.12.41.08.01.16-.16.18-.38.02-.22-.04-.4-.12-.41zm.02 1.18c-.07-.01-.13.13-.15.3-.02.18.03.32.09.33.07.01.13-.13.15-.3.02-.17-.02-.32-.09-.33zm-.05 1.07c-.06-.01-.12.12-.14.28-.01.16.02.3.09.3.06.01.12-.12.13-.28.02-.15-.02-.29-.08-.3zm.64-2.18c-.08-.01-.16.16-.18.38-.02.22.03.4.11.41.08.01.16-.16.18-.38.02-.22-.03-.4-.11-.41zm-.1 1.17c-.07-.01-.13.13-.15.3-.01.18.03.32.09.33.07.01.13-.13.15-.3.02-.18-.03-.33-.09-.33zm-.09 1.07c-.06-.01-.12.12-.14.28-.01.16.02.3.09.3.06.01.12-.12.13-.28.02-.16-.02-.3-.08-.3zm-.93-.55c.06-.01.12-.14.13-.3.01-.17-.03-.32-.09-.33-.07-.01-.13.12-.15.29l.11.34zm2.09-.09c.01-.17-.03-.31-.09-.32-.07-.01-.13.13-.15.3-.01.16.02.3.08.33l.16-.31z"/>
</g>
<g id="Main_Missle_Attachment_Gunslinger_Gauntlet_Right" fill="#3F3F3F">
<path d="m24.12 94.36 2.84.32-.05.62-2.84-.32.05-.62zm1.13-13.11 2.84.32-.05.62-2.85-.32.06-.62zm.78-2.22 1.67.19-.05.62-1.68-.19.06-.62z"/>
<path d="m25.26 79.57 3.12.35-.14 1.66-3.12-.35.14-1.66zm-.32 2.27 3.36.38-1.07 12.5-3.36-.38 1.07-12.5z"/>
<path d="m27.61 88.81.55.06-.25 2.93-.55-.06.25-2.93z"/>
</g>
<g id="Accent_Missle_Attachment_Gunslinger_Gauntlet_Right" fill="#474646">
<path d="m25.04 100.43.45-1.08-.7-.08.25 1.16z"/>
<path d="m24.88 99 .56.06.05.29-.7-.08.09-.27zm1.04-20.86 2.05.23-.07.87-2.06-.24.08-.86z"/>
<path d="m26.3 77.72 1.36.15.31.5-2.05-.23.38-.42zm-.35 4.23.57.06-1.07 12.5-.57-.07 1.07-12.49zm.77.09.57.06-1.07 12.5-.57-.06 1.07-12.5zm-2.04.09.26-.3-1.07 12.5-.2-.35 1.01-11.85zm.49-.27.57.07-1.07 12.5-.57-.06 1.07-12.51zm2.33.27.35.04-1.07 12.5-.35-.04 1.07-12.5z"/>
</g>
<path id="Base_Missle_Attachment_Gunslinger_Gauntlet_Right" d="m27.86 81.23.98-.29-1.22 14.23-.92-.51 1.16-13.43zm-.25 7.58.55.06-.25 2.93-.55-.06.25-2.93z" fill="#4C4C4C"/>
</g></g></g>
</g>
<g id="GauntletsDecals" mask="url(#GauntletsMask)"/>
<g id="Shins">
<g id="Left-Shin"><g id="Heavy-Shnees_Shin_Left" class="option">
<g id="Shin_Heavy-Shnees-Shin_Left" fill="#131911">
<path d="m112.07 224.31 4.68-6.1 8.52-1.02-6.09-55.58-24.29 3.02 12.33 51.48.09 5.64 4.76 2.56"/>
<path d="m98.68 163.41-2.62-2.14h-1.73s-.8 4.95-.63 7.41c.28 3.98 4.34 9.06 4.34 9.06l2.69 1.26 3.01-6.94-5.06-8.65m18.15 5.56 1.64-8.34s2.41 4.71 2.64 7.17c.41 4.36-.46 7.23-.46 7.23l-3.82-6.06m-.08 49.24 8.52-1.02-2.11-4.26-5.82.52-.59 4.76"/>
<path d="m120.15 213.19-6.83-36.52"/>
</g>
<g id="Knee_Heavy-Shnees-Shin_Left" fill="#0F140C">
<path d="m113.99 153.2-13.68 2.29-2.04 9.89 10.06 12.11 9.04-1.28 2.9-14.95-6.28-8.06"/>
<path d="m100.31 155.49 2.93 3.55 10.59-1.66.16-4.18-13.68 2.29"/>
<path d="m103.24 159.04-4.97 6.31 2.03-9.86 2.94 3.55m10.59-1.66 6.44 3.88-6.28-8.06-.16 4.18m0 0 3.54 18.83 2.9-14.95-6.44-3.88"/>
<path d="m103.24 159.04-4.97 6.31 10.06 12.15-5.09-18.46"/>
</g>
<g id="Straps_Heavy-Shnees-Shin_Left" class="toggle" fill="#141211">
<path d="m99.72 186.35 5.22-.86.54 2.35-5.22.86-.54-2.35"/>
<path d="m100.07 186.1 1.11-.18.64 2.78-1.11.18-.64-2.78m5.03 22.95 5.22-.86.54 2.35-5.22.86-.54-2.35"/>
<path d="m105.44 208.8 1.1-.18.64 2.78-1.11.18-.63-2.78"/>
</g>
</g></g>
<g id="Right-Shin"><g id="Heavy-Shnees_Shin_Right" class="option">
<g id="Shin_Heavy-Shnees-Shin_Right" fill="#131911">
<path d="m57.82 224.31-4.68-6.1-8.52-1.02 6.09-55.58L75 164.63l-12.33 51.48-.09 5.64-4.76 2.56"/>
<path d="m71.22 163.41 2.62-2.14h1.73s.8 4.95.63 7.41c-.28 3.98-4.34 9.06-4.34 9.06L69.18 179l-3.01-6.94 5.05-8.65m-18.16 5.56-1.64-8.34s-2.41 4.71-2.64 7.17c-.41 4.36.46 7.23.46 7.23l3.82-6.06m.08 49.24-8.52-1.02 2.11-4.26 5.82.52.59 4.76"/>
<path d="m49.74 213.19 6.84-36.52"/>
</g>
<g id="Knee_Heavy-Shnees-Shin_Right" fill="#0F140C">
<path d="m55.9 153.2 13.68 2.29 2.04 9.89-10.06 12.11-9.04-1.28-2.9-14.95 6.28-8.06"/>
<path d="m69.58 155.49-2.93 3.55-10.59-1.66-.16-4.18 13.68 2.29"/>
<path d="m66.65 159.04 4.97 6.31-2.04-9.86-2.93 3.55m-10.59-1.66-6.44 3.88 6.28-8.06.16 4.18m0 0-3.54 18.83-2.9-14.95 6.44-3.88"/>
<path d="m66.65 159.04 4.97 6.31-10.06 12.15 5.09-18.46"/>
</g>
<g id="Straps_Heavy-Shnees-Shin_Right" class="toggle" fill="#141211">
<path d="m70.17 186.35-5.22-.86-.54 2.35 5.22.86.54-2.35"/>
<path d="m69.82 186.1-1.1-.18-.64 2.78 1.11.18.63-2.78m-5.02 22.95-5.22-.86-.54 2.35 5.22.86.54-2.35"/>
<path d="m64.45 208.8-1.11-.18-.64 2.78 1.1.18.65-2.78"/>
</g>
</g></g>
</g>
<g id="ShinsDecals" mask="url(#ShinsMask)"/>
<g id="Foot">
<g id="Left-Ankle"><g id="Legacy_Ankle_Left" class="option">
<path id="Plate-2_Legacy-Ankle_Left" d="m126.71 222.74 4.34 3.89 2.99 3.74-4.78 1.55-10.95-2.26-4.01-5.27 12.41-1.65" fill="#0E140C"/>
<path id="Plate-1_Legacy-Ankle_Left" d="M107 215.4s4.37 1.94 10.84 1.71c4.44-.16 6.24-1.26 6.24-1.26l3.76 6.93-.97 3.82-15.84-1.24-3.9-3.29-.13-6.67" fill="#0E140C"/>
<path id="Trauma-Plate-2_Legacy-Ankle_Left" class="toggle" style="" d="m127.64 223.58 3.39 3.04 1.75 2.18-3.64 1.18-9.65-1.99-1.58-2.08 8.96.7.77-3.03" fill="#191E17"/>
<path id="Trauma-Plate-1_Legacy-Ankle_Left" class="toggle" style="" d="m108.66 217.83.06 3.17 3.15 2.54 13.92 1.09.99-3.82-1.77-3.27c-1.17.33-4.74 1.36-7.08 1.44-3.72.14-7.2-.61-9.27-1.15" fill="#191E17"/>
</g></g>
<g id="Left-Toe">
<g id="Armored_Toe_Left" class="option">
<g id="Plate_Armored_Toe_Left" fill="#191E17">
<path d="m119.07 233.15 9.63 5.32 7.27.49 5.83-1.47c1.22-1.01 1.71-3.29.66-5.55l-8.21-3.88-6.44 1.61-8.74 3.48"/>
<path d="M127.13 229.95s7.51 2.19 8.45 3.48c1.04 1.44.39 5.53.39 5.53"/>
</g>
<g id="Trim_Armored_Toe_Left" fill="#0E140C">
<path d="m133.13 227.42-7.73 1.86-6.52 3.94 1.35.74 6.91-4.02 7.7-1.8-1.71-.72"/>
<path d="m125.39 229.29 1.74.66"/>
</g>
</g></g>
<g id="Right-Ankle"><g id="Legacy_Ankle_Right" class="option">
<path id="Plate-2_Legacy-Ankle_Right" d="m43.17 222.74-4.34 3.89-2.99 3.74 4.78 1.55 10.95-2.26 4-5.27-12.4-1.65" fill="#0E140C"/>
<path id="Plate-1_Legacy-Ankle_Right" d="M62.87 215.4s-4.37 1.94-10.84 1.71c-4.44-.16-6.24-1.26-6.24-1.26l-3.76 6.93.97 3.82 15.84-1.24 3.9-3.29.13-6.67" fill="#0E140C"/>
<path id="Trauma-Plate-2_Legacy-Ankle_Right" class="toggle" style="" d="m42.23 223.58-3.39 3.04-1.75 2.18 3.64 1.18 9.65-1.99 1.58-2.08-8.96.69-.77-3.02" fill="#191E17"/>
<path id="Trauma-Plate-1_Legacy-Ankle_Right" class="toggle" style="" d="m61.21 217.83-.06 3.17-3.15 2.54-13.92 1.09-.99-3.82 1.77-3.27c1.17.33 4.74 1.36 7.08 1.44 3.72.14 7.2-.61 9.27-1.15" fill="#191E17"/>
</g></g>
<g id="Right-Toe">
<g id="Armored_Toe_Right" class="option">
<g id="Plate_Armored_Toe_Right" fill="#191E17">
<path d="m50.81 233.15-9.63 5.32-7.27.49-5.83-1.47c-1.22-1.01-1.71-3.29-.66-5.55l8.21-3.88 6.44 1.61 8.74 3.48"/>
<path d="M42.74 229.95s-7.51 2.19-8.45 3.48c-1.04 1.44-.39 5.53-.39 5.53"/>
</g>
<g id="Trim_Armored_Toe_Right" fill="#0E140C">
<path d="m36.75 227.42 7.73 1.86 6.52 3.94-1.35.74-6.91-4.02-7.7-1.8 1.71-.72"/>
<path d="m44.48 229.29-1.74.66"/>
</g>
</g></g>
</g>
<g id="FootDecals" mask="url(#FootMask)"/>
<g id="Knees">
<g id="Left-Knee">
<g id="None-(Nih-Plates)_Knee_Left" class="option"/></g>
<g id="Right-Knee">
<g id="None-(Nih-Plates)_Knee_Right" class="option"/></g>
</g>
<g id="KneesDecals" mask="url(#KneesMask)"/>
<g id="Thighs">
<g id="Left-Thigh"><g id="Basic_Thigh_Left" class="option">
<path id="Thigh_Basic-Thigh_Left" d="M120.21 115.6s-5.03-6.43-7.59-7.49a8.12 8.12 0 0 0-7.78 1.09c-3.19 2.54-10.51 8.04-11.35 14.16-.93 6.83 4.08 21.95 5.78 26.84.58 1.66 2.77 2.41 4.44 2.48 3.1.12 11.57-.15 13.59-4.69 2.75-6.18 2.91-32.39 2.91-32.39" fill="#0F140C"/>
<path id="Trauma-Plate_Basic-Thigh_Left" class="toggle" style="" d="M118.5 116.19c-.75-.93-2.56-3.1-4.3-4.77a9.07 9.07 0 0 0-2.25-1.75 6.31 6.31 0 0 0-6.06.85c-1.85 1.47-5.15 3.97-7.66 7.02-1.52 1.85-2.77 3.9-3.07 6.05-.9 6.64 4.05 21.31 5.7 26.06.14.42.54.67.95.87.61.3 1.33.45 1.94.47 1.73.07 5.27.02 8.23-.96 1.63-.54 3.12-1.33 3.75-2.73.78-1.75 1.3-5.22 1.7-9.2.88-8.51 1.04-19.29 1.07-21.91" fill="#131911"/>
<g id="Ridge_Basic-Thigh_Left" class="toggle" style="" fill="#0F140C">
<path d="m111.72 107.57-3.48-.89-3.64 1.99 1.18 44.01c2.4.46 2.43.55 4.54-.08l1.4-45.03"/>
<path d="m108.28 106.69-.1 46.36"/>
</g>
</g>
</g>
<g id="Right-Thigh"><g id="Basic_Thigh_Right" class="option">
<path id="Thigh_Basic-Thigh_Right" d="M49.69 115.6s5.03-6.43 7.59-7.49a8.12 8.12 0 0 1 7.78 1.09c3.19 2.54 10.51 8.04 11.35 14.16.93 6.83-4.08 21.95-5.78 26.84-.58 1.66-2.77 2.41-4.44 2.48-3.1.12-11.57-.15-13.59-4.69-2.75-6.18-2.91-32.39-2.91-32.39" fill="#0F140C"/>
<path id="Trauma-Plate_Basic-Thigh_Right" class="toggle" style="" d="M51.39 116.19c.75-.93 2.56-3.1 4.3-4.77a9.07 9.07 0 0 1 2.25-1.75 6.31 6.31 0 0 1 6.06.85c1.85 1.47 5.15 3.97 7.66 7.02 1.52 1.85 2.77 3.9 3.07 6.05.9 6.64-4.05 21.31-5.7 26.06-.14.42-.54.67-.95.87-.61.3-1.33.45-1.94.47-1.73.07-5.27.02-8.23-.96-1.63-.54-3.12-1.33-3.75-2.73-.78-1.75-1.3-5.22-1.7-9.2a278.92 278.92 0 0 1-1.07-21.91" fill="#131911"/>
<g id="Ridge_Basic-Thigh_Right" class="toggle" style="" fill="#0F140C">
<path d="m58.17 107.57 3.48-.89 3.64 1.99-1.18 44.01c-2.4.46-2.43.55-4.54-.08l-1.4-45.03"/>
<path d="m61.62 106.69.1 46.36"/>
</g>
</g>
</g>
</g>
<g id="ThighsDecals" mask="url(#ThighsMask)"/>
<g id="Groin"><g id="Basic_Groin" class="option">
<path id="Groin-Plate_Basic" d="M78.67 122.29 68.22 99.4h33.42l-10.45 22.89-6.26 5.46-6.26-5.46z" fill="#141414"/>
<path id="Trauma-Plating_Groin" class="toggle" style="" d="m79.77 120.38-8.61-18.86H98.7l-8.61 18.86-5.16 4.49-5.16-4.49z" fill="#131911"/>
</g>
</g>
<g id="GroinDecals" mask="url(#GroinMask)"/>
<g id="Waist">
<g id="Accessories_Waist">
<g id="Kama" class="toggle" style=""><g id="Tattered_Kama" class="option">
<path id="Main_Kama-Tattered" d="M111.48 81.04c2.28-.5 3.36 12.05 4.7 18.11.61 2.75.69 5.53 1.41 8.28 1.24 4.78 3.46 9.54 4.5 14.23.83 3.75.3 7.62 1.22 11.39.69 2.85 2.14 5.32 3.1 8.04 1.07 3.05 1.74 6.1 2.52 9.22a73.48 73.48 0 0 0 1.65 5.61c.21.63.39 1.27.55 1.91l.14.59c.03.12.17.44.08.36-.65-.57-1-1.65-1.61-2.32-1.18-1.3-2.66-2.28-3.77-3.64a8.99 8.99 0 0 1-1.07-1.72c-.03-.05-.22-.52-.25-.51-2.29.48-4.56 1.34-6.5-.59-1.54-1.53-2.87-4.83-3.66-6.88-.33-.86.11-5.91-.47-6.38-.43-.35-.83 4.2-1.35 3.89-3.28-1.93-7.95-3.08-7.95-3.08s-.36-6.44-.1-10.13c.24-3.31-.23-6.19-.72-9.43-.63-4.19-.56-8.5-.27-12.71.45-6.82-4.81-21.47 7.85-24.24zm7.51 61.96c-.4 1.7-.44 3.65.53 5.18.32.51 1.14 1.33 1.85 1.11 2.99-.92-.68-5.5-1.63-6.52l-.75.23zm-8.77-12.44c-.54.33-1.01.71-1.4 1.21-1.42 1.79 2.47.9 1.8-1.28l-.4.07zM58.44 81.04c-2.28-.5-3.36 12.05-4.7 18.11-.61 2.75-.69 5.53-1.41 8.28-1.24 4.78-3.47 9.54-4.5 14.23-.83 3.75-.3 7.62-1.22 11.39-.69 2.85-2.14 5.32-3.1 8.04-1.07 3.05-1.74 6.1-2.52 9.22a73.48 73.48 0 0 1-1.65 5.61c-.21.63-.39 1.27-.55 1.91l-.14.59c-.03.12-.17.44-.08.36.65-.57 1-1.65 1.61-2.32 1.18-1.3 3.01-.24 4.13-1.6.43-.53 1-1.77 1.31-2.38.03-.05.81-1.55.84-1.55 2.28.48.85 2.18 2.8.26 1.54-1.53 5.4-6.03 6.19-8.07.33-.86-.3-2.65.28-3.12.43-.35 1.02.94 1.54.63 3.28-1.93 7.36-5.54 7.36-5.54s.95-3.98.69-7.67c-.24-3.31.23-6.19.72-9.43.63-4.19.56-8.5.27-12.71-.47-6.82 4.79-21.47-7.87-24.24zm-8.34 63.11c.4 1.7.35 1.39-.62 2.93-.32.51-.22 2.43-.93 2.21-2.99-.92.67-5.5 1.63-6.52l-.08 1.38zm7.09-7.9c.54.33 2.26-.1 2.66.4 1.42 1.79-3.92 3.34-3.25 1.16l.59-1.56z" fill="#0C110C"/>
</g>
</g>
<g id="Loin-Cloth" class="toggle" style="display:none"/>
<g id="Left-Holster" class="toggle" style="display:none"/>
<g id="Right-Holster" class="toggle" style="">
<g id="Thigh-Plate-Holster_Right" class="option">
<g id="Weapon_Thigh-Plate-Holster-Right">
<g id="Main_Weapon_Thigh-Plate-Holster-Right" fill="#494949">
<path d="m52.93 113.88-.24-3.6-.62.04-.15-2.26.62-.04-.08-1.18c-.03-.38-.56-.66-1.19-.62l-5.37.35c-.63.04-1.12.39-1.1.77l.08 1.18.62-.04.15 2.26-.62.04.24 3.6 1.46-.09.65 9.95 4.73-.31-.65-9.95 1.47-.1z"/>
<path d="m45.85 113.81.84-.06.79 11.96 4.73-.31-.79-11.96.84-.05-.18-2.73-6.42.42.19 2.73z"/>
<path d="m46.74 107.31 3.8-.25.24 3.69-3.8.25-.24-3.69zm3.67 7.29.62-.04.62 9.4-.62.04-.62-9.4zm-1.73-2.05.62-.04.87 13.21-.62.04-.87-13.21zm-1.45 2.25.62-.04.69 10.44-.62.04-.69-10.44z"/>
</g>
<g id="Accent_Weapon_Thigh-Plate-Holster-Right" fill="#292828">
<path d="m49.44 114.66.97-.06.62 9.4-.97.06-.62-9.4zm-1.59.1.97-.06.69 10.44-.97.06-.69-10.44zm2.07-7.66.62-.04.24 3.69-.62.04-.24-3.69zm-3.18.21.62-.04.24 3.69-.62.04-.24-3.69zm3.51 3.86.03.38-2.68.17-.02-.38 2.67-.17z"/>
<path d="m50.27 111.54.03.38-2.68.17-.03-.38 2.68-.17zm-.05-.75.02.38-2.68.17-.03-.38 2.69-.17zm-.3-4.64.03.38-2.68.17-.02-.38 2.67-.17z"/>
</g>
</g>
<path id="Holster_Thigh-Plate-Holster-Right" d="m46.48 125.08 3.36-.23 1.88-6.79 1.02-.07 2.06 30.17a6.73 6.73 0 0 1-7.17-6.26l-1.15-16.82z" fill="#0E110C"/>
</g></g>
<g id="Left-Trophy" class="toggle" style="display:none"/>
<g id="Right-Trophy" class="toggle" style="display:none"/>
</g>
<g id="Under-Belt"><g id="Girth-Belt" class="option" fill="#090F08">
<path d="M84.93 84.93c-9.33 0-27.98-2.25-27.98-2.25l.61-1.91 27.37 2.25 27.37-2.25.6 1.91c.01 0-18.65 2.25-27.97 2.25z"/>
<path d="M84.93 86.84c-9.52 0-28.56-2.25-28.56-2.25l.58-1.91 27.98 2.25 27.98-2.25.58 1.91s-19.04 2.25-28.56 2.25z"/>
<path d="M84.93 88.75c-9.67 0-28.99-2.25-28.99-2.25l.43-1.91 28.56 2.25 28.56-2.25.43 1.91c0-.01-19.32 2.25-28.99 2.25z"/>
<path d="M84.93 90.65c-9.79 0-29.36-2.25-29.36-2.25l.37-1.91 28.99 2.25 28.99-2.25.37 1.91s-19.57 2.25-29.36 2.25z"/>
<path d="M84.93 92.56c-9.9 0-29.69-2.25-29.69-2.25l.33-1.91 29.36 2.25 29.36-2.25.33 1.91s-19.79 2.25-29.69 2.25z"/>
<path d="M84.93 94.47c-10 0-30-2.25-30-2.25l.31-1.91 29.69 2.25 29.69-2.25.31 1.91c0-.01-20 2.25-30 2.25z"/>
<path d="M84.93 96.37c-10.1 0-30.31-2.25-30.31-2.25l.31-1.91 30 2.25 30-2.25.31 1.91s-20.21 2.25-30.31 2.25z"/>
<path d="M84.93 98.28c-10.21 0-30.62-2.25-30.62-2.25l.32-1.91 30.31 2.25 30.31-2.25.32 1.91c-.02 0-20.43 2.25-30.64 2.25z"/>
<path d="M84.93 100.19c-10.32 0-30.97-2.25-30.97-2.25l.34-1.91 30.62 2.25 30.62-2.25.35 1.91c.01-.01-20.64 2.25-30.96 2.25z"/>
<path d="M84.93 102.09c-10.45 0-31.36-2.25-31.36-2.25l.39-1.91 30.97 2.25 30.97-2.25.39 1.91s-20.91 2.25-31.36 2.25z"/>
</g>
</g>
<g id="Belt"><g id="Pouch-Belt-4" class="option">
<path id="Main_Pouch-Belt-4" d="M115.21 92.95c-6.82.61-22.4 2.83-30.27 2.83-7.94 0-23.52-2.23-30.26-2.82l1.01-7.93c5.53.49 21.56 2.74 29.26 2.74 7.47 0 23.17-2.23 29.07-2.76l1.19 7.94z" fill="#0A0A09"/>
<path id="Buckle_Pouch-Belt-4" d="M79.37 87.01h11.28v9.21H79.37z" fill="#475059"/>
<g id="Pouches_Pouch-Belt-4" fill="#191311">
<path d="M59.65 83.47c-.31-.02-.62.03-.91.16l-1.86.81 7.38.42 2-.95-6.61-.44z"/>
<path d="M66.52 84.19a.23.23 0 0 0-.1-.22.23.23 0 0 0-.24-.02l-1.91.9-1.02 12.42a6.9 6.9 0 0 1 1.93-.85.9.9 0 0 0 .69-.84c.12-3.8.28-7.6.65-11.39z"/>
<path d="m64.26 84.85-7.38-.42c-.06 1.89-.23 3.77-.33 5.65-.11 2.08-.16 4.17-.34 6.28-.01.15.04.3.14.41s.25.18.4.17c2.08-.01 4.15.11 6.22.36a.5.5 0 0 0 .4-.12.54.54 0 0 0 .19-.37l.37-5.33.33-6.63z"/>
<path d="m64.26 84.85-7.38-.42-.36 3.15a2.75 2.75 0 0 0 2.59 3.05l2.23.13a2.8 2.8 0 0 0 2.06-.75c.55-.52.87-1.25.86-2v-3.16z"/>
<path d="M60.31 89.23c.26.01.46.26.44.54-.02.28-.24.5-.5.49-.26-.01-.46-.26-.44-.54.02-.28.24-.5.5-.49zm-8.09-4.94.55-.85 2.83.09.35 1.06-3.73-.3z"/>
<path d="M55.93 84.69a.2.2 0 0 0-.06-.18.23.23 0 0 0-.17-.08l-3.48-.13-.5 11.17c.11.28 1.53.46 2.68.49a.9.9 0 0 0 .92-.88c.08-3.47.21-6.94.61-10.39zm54.31-1.22c.31-.02.62.03.91.16l1.86.81-7.38.42-2-.95 6.61-.44z"/>
<path d="M103.37 84.19a.23.23 0 0 1 .1-.22.23.23 0 0 1 .24-.02l1.91.9 1.02 12.42a6.9 6.9 0 0 0-1.93-.85.9.9 0 0 1-.69-.84c-.12-3.8-.28-7.6-.65-11.39z"/>
<path d="m105.63 84.85 7.38-.42c.06 1.89.23 3.77.33 5.65.11 2.08.16 4.17.34 6.28.01.15-.04.3-.14.41a.5.5 0 0 1-.4.17c-2.08-.01-4.15.11-6.22.36a.5.5 0 0 1-.4-.12.54.54 0 0 1-.19-.37l-.37-5.33-.33-6.63z"/>
<path d="m105.63 84.85 7.38-.42.36 3.15a2.75 2.75 0 0 1-2.59 3.05l-2.23.13a2.8 2.8 0 0 1-2.06-.75 2.72 2.72 0 0 1-.86-2v-3.16z"/>
<path d="M109.58 89.23c-.26.01-.46.26-.44.54.02.28.24.5.5.49.26-.01.46-.26.44-.54-.01-.28-.24-.5-.5-.49zm8.09-4.94-.55-.85-2.83.09-.35 1.06 3.73-.3z"/>
<path d="M113.96 84.69a.2.2 0 0 1 .06-.18.23.23 0 0 1 .18-.08l3.48-.13.5 11.17c-.11.28-1.53.46-2.68.49a.9.9 0 0 1-.92-.88 116.3 116.3 0 0 0-.62-10.39z"/>
</g>
</g></g>
</g>
<g id="WaistDecals" mask="url(#WaistMask)"/>
<g id="Extras_Front">
<g id="Front"><g id="None_Front" class="option"/>
</g>
</g>
<g id="Extras-FrontDecals" mask="url(#FrontMask)"/>
</g>
</svg>