<?xml version='1.0' encoding='UTF-8'?>
<svg version="1.1" id="Male-Body" xmlns="http://www.w3.org/2000/svg" xmlns:serif="http://www.serif.com/" viewBox="0 -55 170 310" style="stroke-width: 0.2px; fill-rule: evenodd; stroke-linejoin: round;" width="510" height="930">
<style>
mask {
mask-type: alpha;
}
.decal {
stroke: none;
}
</style>
<defs id="Masks" stroke="none">
<mask id="HelmetsMask"> <use href="#Helmets"/> </mask>
<mask id="CollarMask"> <use href="#Collar"/> </mask>
<mask id="ShouldersMask"> <use href="#Shoulders"/> </mask>
<mask id="ChestMask"> <use href="#Chest"/> </mask>
<mask id="BicepsMask"> <use href="#Biceps"/> </mask>
<mask id="GauntletsMask"> <use href="#Gauntlets"/> </mask>
<mask id="WaistMask"> <use href="#Waist"/> </mask>
<mask id="GroinMask"> <use href="#Groin"/> </mask>
<mask id="ThighsMask"> <use href="#Thighs"/> </mask>
<mask id="KneesMask"> <use href="#Knees"/> </mask>
<mask id="ShinsMask"> <use href="#Shins"/> </mask>
<mask id="FootMask"> <use href="#Foot"/> </mask>
</defs>
<defs id="Decals"/><metadata><rdf:rdf xmlns:rdf="http://www.w3.org/1999/02/22-rdf-syntax-ns#" xmlns:rdfs="http://www.w3.org/2000/01/rdf-schema#" xmlns:dc="http://purl.org/dc/elements/1.1/"><rdf:description><dc:creator>MandoCreator</dc:creator><dc:publisher>https://www.mandocreator.com</dc:publisher><dc:description>Your Beskar'gam - created by MandoCreator</dc:description><dc:format>image/svg+xml</dc:format><dc:type>Image</dc:type><dc:title>MandoCreator - Ner Berskar'gam</dc:title><dc:date>2022-03-14T14:38:25.516Z</dc:date></rdf:description></rdf:rdf></metadata><g id="Main-Body" fill="white" stroke="black">
<g id="Extras_Back">
<g id="Back"><path id="Short-Cape-Left_Back" class="option" d="M104.11 24.2c-1.31-3.7-2.51-7.4-2.51-7.4.5-1 4.02-1 5.03-.9 2.31.1 5.63 1.2 7.14 2.9.81 1 2.51 1 3.02 2.2 0 .1.5 1.1.5 1.1s.3 2 .6 4.4c2.42 1.9 4.53 4.4 5.94 7.3a232.1 232.1 0 0 1 10.06 23.4c2.41 6.7 6.44 13.3 8.95 19.9 2.82 7.5 4.12 12.7 6.54 20.3 2.51 7.9 5.53 14.9 10.26 20.6 1.81 2.3 4.83 4.2 6.04 7.1l1.11 3.2c-.9.4-2.21.1-3.22.1-3.72.1-11.37-4.2-14.89-2.5-4.43 2.2-3.92 10.9-8.05 13.9-4.23 3.1-11.47-4.5-16.4-4.5-4.53 0-3.42 11.9-7.34 14.3-1.21.8-9.25.9-9.25.7.5-2.4 1.41-8.7.5-15.6-1.11-8.7-1.31-14.6-2.31-23.3-.7-5.8-.1-8.8-1.31-14.5-1.31-6.3-.7-13.6-2.41-19.8C100.4 71 101 63.9 99.9 57.6c-1.71-10.1-.2-28.8 4.12-33.2l.09-.2z" fill="#0D3B66"/></g>
</g>
<g id="Extras-BackDecals" mask="url(#BackMask)"/>
<g id="Suit">
<g id="Neck-Seal"><g id="Standard-Neck-Seal" class="option" fill="#332D2D">
<path d="M98.75 7.5c0-.9-.93-1.62-2.07-1.62 0 0-7.8.85-11.7.85s-11.7-.85-11.7-.85c-1.14 0-2.07.73-2.07 1.62s.93 1.62 2.07 1.62c0 0 7.8.85 11.7.85s11.7-.85 11.7-.85c1.15.01 2.07-.72 2.07-1.62z"/>
<path d="M99.45 9.4c0-.94-.97-1.71-2.17-1.71 0 0-8.2.9-12.29.9s-12.3-.89-12.3-.89c-1.2 0-2.17.76-2.17 1.71s.97 1.71 2.17 1.71c0 0 8.2.9 12.29.9s12.29-.9 12.29-.9c1.21-.01 2.18-.78 2.18-1.72z"/>
<path d="M100.24 11.76c0-.99-1.03-1.8-2.29-1.8 0 0-8.64.95-12.96.95s-12.97-.95-12.97-.95c-1.26 0-2.29.81-2.29 1.8s1.03 1.8 2.29 1.8c0 0 8.64.95 12.97.95s12.96-.95 12.96-.95c1.26 0 2.29-.81 2.29-1.8z"/>
<path d="M101 13.92c0-1.04-1.08-1.89-2.41-1.89 0 0-9.08.99-13.61.99s-13.61-.99-13.61-.99c-1.33 0-2.41.85-2.41 1.89s1.08 1.89 2.41 1.89c0 0 9.08.99 13.61.99s13.61-.99 13.61-.99c1.34 0 2.41-.85 2.41-1.89z"/>
<path d="M101.76 16.04c0-.79-1.13-1.43-2.52-1.43 0 0-9.51.75-14.26.75s-14.26-.75-14.26-.75c-1.39 0-2.52.64-2.52 1.43 0 .79 1.13 1.43 2.52 1.43 0 0 9.51.75 14.26.75s14.26-.75 14.26-.75c1.39 0 2.52-.64 2.52-1.43z"/>
<path d="M101.76 18.42c0-.79-1.13-1.43-2.52-1.43 0 0-9.51.75-14.26.75s-14.26-.75-14.26-.75c-1.39 0-2.52.64-2.52 1.43 0 .79 1.13 1.43 2.52 1.43 0 0 9.51 1.44 14.26 1.44s14.26-1.44 14.26-1.44c1.39-.01 2.52-.64 2.52-1.43z"/>
</g>
</g>
<path id="Flight-Suit" d="m73.36 158.45-1.49 8.72-11.03 53.11s-4.93 2.96-7.47 3.46c-2.53.5-7.73-.44-7.73-.44l3.85-43 2.9-18.36.66-7.82s-2.53-22.78-1.7-34.14c.82-11.36 6.66-34.01 6.66-34.01l26.98.58 26.97-.58s5.83 22.66 6.66 34.01c.83 11.36-1.7 34.14-1.7 34.14l.66 7.82 2.9 18.36 3.85 43s-5.32 1.19-7.85.69c-2.53-.5-7.34-3.71-7.34-3.71L98.1 167.16l-1.49-8.72-11.62-30.33-11.63 30.34zm56.05-115.12 11.98 41.65 1.04 21.47-9.55 1.83-6.05-20.21-13.65-33.95.69-15.55 2.31-3.72 13.23 8.48zm-88.82-.03 13.19-8.45 2.31 3.72.52 16.04-13.44 33.46-6.05 20.21-9.55-1.83 1.03-21.47L40.59 43.3z" fill="#1A0808"/>
<g id="Sleeves" class="toggle" fill="#652626">
<path d="m112.2 56.12 2.68 5.9s4.24-3.2 7.06-4.8 4.38-2.62 6.92-3.6a33.81 33.81 0 0 1 5.08-1.47l-6.07-12.25-5.79-9.67-11.58 5.14 1.7 20.75z"/>
<path d="M113.61 59.24c-.2-.24 5.08-4.5 8.61-6.34 3.53-1.84 10.25-3.69 10.25-3.69"/>
<path d="m57.8 56.12-2.68 5.9s-4.24-3.2-7.06-4.8c-2.82-1.59-4.38-2.62-6.92-3.6a33.81 33.81 0 0 0-5.08-1.47l6.07-12.25 5.79-9.67 11.58 5.14-1.7 20.75z"/>
<path d="M56.39 59.24c.2-.24-5.08-4.5-8.61-6.34-3.53-1.84-10.25-3.69-10.25-3.69"/>
</g>
</g>
<g id="Boots"><g id="Gunslinger_Boots" class="option">
<path id="Main_Gunslinger-Boot" d="M107.7 226.61c.04.2.73 3.41 4.27 4.29 1.18.3 3.21-.33 4.48-.98a30.5 30.5 0 0 1 5.44-2.12l.06.08.09.12c.58.81 1.21 1.57 1.89 2.26l.05.05.03.03.21.2c.4.38.81.74 1.23 1.07l.12.09.1.07.09.06.2.14c.88.62 2.06 1.56 3.23 1.39 1.11-.16 2.35-.6 3.28-1.04a8.2 8.2 0 0 0 2.13-1.4c.16-.12.29-.26.39-.44 2.57 1 5.36 1.38 6.73 4.22.3.62.55 1.35.49 2.04-.08.89-1.06 1-1.82 1.2-1.9.51-3.53.89-5.72 1.34-2.5.52-4.76.83-7.29.72-1.89-.08-3.49-.18-5.14-1.19-.66-.41-1.34-.82-1.92-1.35-1.28-1.19-2.11-2.43-3.77-3.15a23.2 23.2 0 0 0-3.71-1.27c-1.8-.45-3.74-.76-4.69-2.54-.73-1.34-.64-2.59-.45-3.89m-45.42 0c-.04.2-.73 3.41-4.27 4.29-1.18.3-3.2-.33-4.48-.98a30.5 30.5 0 0 0-5.44-2.12l-.05.08-.09.12c-.58.81-1.21 1.57-1.89 2.26l-.05.05-.03.03-.21.2c-.4.38-.81.74-1.23 1.07l-.12.09-.1.07-.09.06-.2.14c-.88.62-2.06 1.56-3.23 1.39-1.1-.16-2.35-.6-3.28-1.04a8.2 8.2 0 0 1-2.13-1.4 1.38 1.38 0 0 1-.39-.44c-2.57 1-5.36 1.38-6.73 4.22-.3.62-.55 1.35-.48 2.04.08.89 1.06 1 1.82 1.2 1.9.51 3.53.89 5.72 1.34 2.5.52 4.76.83 7.29.72 1.89-.08 3.49-.18 5.14-1.19.66-.41 1.35-.82 1.92-1.35 1.28-1.19 2.11-2.43 3.77-3.15a23.2 23.2 0 0 1 3.71-1.27c1.8-.45 3.74-.76 4.69-2.54.71-1.34.63-2.59.43-3.89" fill="#776464"/>
<path id="Bottom_Gunslinger-Boot" d="M107.64 229.04c.08.49.24.98.51 1.49.95 1.78 2.89 2.09 4.69 2.54 1.27.32 2.51.75 3.71 1.27 1.66.72 2.48 1.96 3.77 3.15.57.53 1.25.94 1.92 1.35 1.65 1.01 3.25 1.11 5.14 1.19 2.53.1 4.78-.2 7.29-.72 2.19-.46 3.82-.84 5.72-1.34.61-.16 1.36-.27 1.67-.76l.36.8.21 1.64s-2.03 1.09-4.2 1.57c-2.16.48-6.53 1.15-6.53 1.15l-.3-.71-.98.21.05.7-2.38.13-.51-.69-.79.02.12.61s-1.47-.02-2.29-.51c-.15-.23-.46-.61-.46-.61l-.56-.31.07.58-2.04-.73-.1-.79-.59-.34-.03.57-1.46-1.12-.16-.69-3.64-2.55-.57 1.33-2.55-.55-.08-.55-.65-.27-.45.42-1.71-.7-.04-.51-.56-.19-.06.37-1.62-1.12-.31-2.23-.07-2.42.46-.68m-45.29 0a4.8 4.8 0 0 1-.51 1.49c-.95 1.78-2.89 2.09-4.69 2.54-1.27.32-2.51.75-3.71 1.27-1.66.72-2.48 1.96-3.77 3.15-.57.53-1.25.94-1.92 1.35-1.65 1.01-3.25 1.11-5.14 1.19-2.53.1-4.78-.2-7.29-.72-2.19-.46-3.83-.84-5.72-1.34-.61-.16-1.36-.27-1.67-.76l-.36.8-.21 1.64s2.03 1.09 4.2 1.57c2.16.48 6.53 1.15 6.53 1.15l.3-.71.98.21-.05.7 2.38.13.51-.69.8.02-.12.61s1.47-.02 2.29-.51c.15-.23.46-.61.46-.61l.56-.31-.07.58 2.04-.73.1-.79.59-.34.02.57 1.46-1.12.16-.69 3.64-2.55.57 1.33 2.55-.55.08-.55.65-.27.45.42 1.71-.7.04-.51.56-.19.07.37 1.62-1.12.31-2.23.07-2.42-.47-.68" fill="#938172"/>
<path id="Top_Gunslinger-Boot" d="M121.87 227.77a25.53 25.53 0 0 1-4.16-10.29l.61-.05h.02l.07-.01.2-.02.31-.03.13-.02 1.04-.14.54-.1.11-.03.04-.01.08-.02.37-.09.33-.08.06-.01c1.15-.29 2.31-.64 2.31-.64.32 1.48.47 3.17 1.09 4.56.98 2.18 2.78 3.85 4.46 5.51 1.15 1.14 2.28 2.44 3.66 3.31.58.37 1.21.66 1.84.9a7.2 7.2 0 0 1-2.53 1.84c-.93.44-2.17.88-3.28 1.04-1.17.17-2.35-.77-3.23-1.39a17.07 17.07 0 0 1-4.06-4.19l-.01-.04m-73.75 0a25.53 25.53 0 0 0 4.16-10.29l-.61-.05h-.02l-.08-.01-.2-.02-.31-.03-.13-.02-1.04-.14-.54-.1-.11-.03-.04-.01-.08-.02-.37-.09-.33-.08-.06-.01c-1.15-.29-2.31-.64-2.31-.64-.32 1.48-.47 3.17-1.09 4.56-.98 2.18-2.78 3.85-4.46 5.51-1.15 1.14-2.28 2.44-3.66 3.31-.58.37-1.21.66-1.84.9a7.12 7.12 0 0 0 2.53 1.84c.93.44 2.17.88 3.28 1.04 1.17.17 2.35-.77 3.23-1.39a17.07 17.07 0 0 0 4.06-4.19l.02-.04" fill="#A61C1C"/>
<path id="Side_Gunslinger-Boot" d="M121.89 227.8c-1.87.54-3.7 1.24-5.44 2.12-1.27.65-3.3 1.27-4.48.98a5.77 5.77 0 0 1-4.27-4.3c.11-.74.25-1.5.3-2.3.1-1.54-.11-8.21.02-8.14 2.94 1.56 8.18 1.45 9.67 1.33.54 3.37 2.02 7.2 4.2 10.31m-73.8 0c1.87.54 3.7 1.24 5.44 2.12 1.27.65 3.3 1.27 4.48.98a5.77 5.77 0 0 0 4.27-4.3c-.11-.74-.25-1.5-.3-2.3-.1-1.54.11-8.21-.02-8.14-2.94 1.56-8.18 1.45-9.67 1.33a25.55 25.55 0 0 1-4.2 10.31" fill="#605252"/>
</g></g>
<g id="Gloves">
<g id="Left-Glove">
<g id="Fingerless_Left_Glove" class="option">
<g id="Fingers_Fingerless_Left_Glove" fill="#DB965A">
<path d="M138.6 124.11a5.98 5.98 0 0 0-1.58.1c-.36.08-.72.16-1.04.35-.99.57-.72 1.81.16 2.28 1.03.55 2.66.01 3.13-1.05.19-.44-.41-1.26-.67-1.68"/>
<path d="M136.79 125.19a5.68 5.68 0 0 0-1.59.1c-.36.08-.72.16-1.04.35-.99.57-.72 1.81.16 2.28 1.03.55 2.66.01 3.13-1.05.2-.44-.4-1.26-.66-1.68"/>
<path d="M135.51 126.62c-.54.05-1.21.17-1.73.35-.35.12-.69.26-.99.48-.9.7-.47 1.89.47 2.24 1.1.41 2.64-.35 2.96-1.46.14-.47-.71-1.61-.71-1.61z"/>
<path d="M129.95 119.82c-.3 1.34-.55 2.07-.55 2.07s-1.38 2.79-1.14 3.43c.24.64 1.45 1.21 2.15.87.86-.42 1.93-2.39 2.61-3.77.25-.51.48-1.1.68-1.64-2.76.4-3.75-.96-3.75-.96zm5.69 6.59c-.2.34-.43.7-.68 1.08-1.36 2.05-3.46 3.81-2.07 5.37 1.29 1.46 4.22-2.37 4.22-2.37l1.36-1.77a3.8 3.8 0 0 1-2.83-2.31z"/>
</g>
<path id="Glove_Fingerless_Left_Glove" d="m138.46 128.72 1.51-1.96s3.3-5.41 3.47-6.46c.13-.8.02-3.47.02-3.47l-1.03-10.37-5.24.44-4.31 1.39-.32 1.77s-1.56 2.15-1.97 3.69c-.29 1.09-.13 3.68-.49 5.43l-.14.65s.99 1.37 3.74.96c.35-.96.58-1.78.58-1.78s.95.32 1.43.7c1.61 1.24.91 4.96.91 4.96s-.37.74-.98 1.75c0 0 .56 1.77 2.82 2.3z" fill="#A3A3A3"/>
</g></g>
<g id="Right-Glove">
<g id="Fingerless_Right_Glove" class="option">
<g id="Fingers_Fingerless_Right_Glove" fill="#DB965A">
<path d="M31.4 124.11a5.98 5.98 0 0 1 1.58.1c.36.08.72.16 1.04.35.99.57.72 1.81-.16 2.28-1.03.55-2.66.01-3.13-1.05-.2-.44.41-1.26.67-1.68"/>
<path d="M33.21 125.19a5.59 5.59 0 0 1 2.62.45c.99.57.72 1.81-.16 2.28-1.03.55-2.66.01-3.13-1.05-.19-.44.41-1.26.67-1.68"/>
<path d="M34.49 126.62c.54.05 1.21.17 1.73.35.35.12.69.26.99.48.9.7.47 1.89-.47 2.24-1.1.41-2.64-.35-2.96-1.46-.14-.47.71-1.61.71-1.61z"/>
<path d="M40.05 119.82c.3 1.34.55 2.07.55 2.07s1.38 2.79 1.14 3.43c-.24.64-1.45 1.21-2.15.87-.86-.42-1.93-2.39-2.61-3.77-.25-.51-.48-1.1-.68-1.64 2.76.4 3.75-.96 3.75-.96zm-5.69 6.59c.2.34.43.7.68 1.08 1.36 2.05 3.46 3.81 2.08 5.37-1.29 1.46-4.22-2.37-4.22-2.37l-1.36-1.77a3.79 3.79 0 0 0 2.82-2.31z"/>
</g>
<path id="Glove_Fingerless_Right_Glove" d="m31.54 128.72-1.51-1.96s-3.3-5.41-3.47-6.46c-.13-.8-.02-3.47-.02-3.47l1.03-10.37 5.24.44 4.31 1.39.32 1.77s1.56 2.15 1.97 3.69c.29 1.09.13 3.68.49 5.43l.14.65s-.99 1.37-3.74.96c-.35-.96-.58-1.78-.58-1.78s-.95.32-1.43.7c-1.61 1.24-.91 4.96-.91 4.96s.37.74.98 1.75c0 0-.56 1.77-2.82 2.3z" fill="#A3A3A3"/>
</g></g>
</g>
<g id="Biceps">
<g id="Left-Biceps"><g id="Basic_Biceps_Left" class="option">
<path id="Main_Basic_Biceps_Left" d="M134.37 52.38c-1.14-2.74-6.21-14.78-6.21-14.78l-10.42 4.28c-.59.24-.87.91-.63 1.5l4.87 11.74a3.36 3.36 0 0 0 4.37 1.8l7.4-3.04c.58-.25.86-.92.62-1.5z" fill="#821111"/>
<path id="Strap_Basic_Biceps_Left" d="m119.35 48.7-5.85 2.4-.14 4.29 7.49-3.07-1.5-3.62" fill="#8B572A"/>
<path id="Trauma-Plate_Basic_Biceps_Left" class="toggle" style="" d="m134.34 51.81-5.29-12.74-10.16 4.17 4.67 11.24c.17.4.49.72.89.88.4.17.85.17 1.26 0l8.63-3.55" fill="#3A3A3A"/>
</g>
</g>
<g id="Right-Biceps"><g id="Basic_Biceps_Right" class="option">
<path id="Main_Basic_Biceps_Right" d="M35.65 52.38c1.14-2.74 6.22-14.78 6.22-14.78l10.42 4.28c.59.24.87.91.63 1.5l-4.87 11.74a3.36 3.36 0 0 1-4.37 1.8l-7.4-3.04a1.16 1.16 0 0 1-.63-1.5z" fill="#881717"/>
<path id="Strap_Basic_Biceps_Right" d="m50.68 48.7 5.85 2.4.14 4.29-7.49-3.07 1.5-3.62" fill="#8B572A"/>
<path id="Trauma-Plate_Basic_Biceps_Right" class="toggle" style="" d="m35.69 51.81 5.29-12.74 10.16 4.17-4.66 11.24a1.67 1.67 0 0 1-2.15.88l-8.64-3.55" fill="#3A3A3A"/>
</g>
</g>
</g>
<g id="BicepsDecals" mask="url(#BicepsMask)"/>
<path id="Vest" d="M85 20.92c8.5-.01 15.43-4.3 15.63-8.01l.15.02 18.38 5.42 13.31 23.94-2.86 1.16-13.42-8.6-2.31 3.72-1.54 47.4s-8.72 4.71-13.53 5.35c-3.44.45-8.63.68-13.79.67-5.16.01-10.35-.22-13.79-.67-4.81-.63-13.53-5.35-13.53-5.35l-1.54-47.4-2.31-3.72-13.42 8.6-2.86-1.16 13.31-23.94 18.38-5.42.15-.02c.16 3.71 7.09 8.01 15.59 8.01" fill="#242530"/>
<g id="SuitDecals" mask="url(#SuitMask)"/>
<g class="swappable" id="Chest"><g id="Chest_Heavy">
<g id="Abdomen_Heavy">
<path id="Under-Plates_Abdomen_Heavy" d="M73.86 69.99h22.29v2.83H73.86zm0 2.83h22.29v2.83H73.86zm0 2.83h22.29v2.83H73.86zm0 2.83h22.29v2.83H73.86zm0 2.83h22.29v2.83H73.86z" fill="#791515"/>
<g id="Abdomen-Plate_Heavy" fill="#3A3A3A">
<path d="m78.16 60.86-11.11 4.69L66 63.03l12.15-5.13v2.96z"/>
<path d="m70.94 74.95-3.9-9.4 11.11-4.69 3.48 9.89-10.69 4.2z"/>
<path d="m66 63.03-4.67.81 6.89 16.28 4.7-.93L66 63.03zm25.84-2.17 11.11 4.69 1.04-2.52-12.15-5.13v2.96z"/>
<path d="m99.06 74.95 3.9-9.4-11.11-4.69-3.48 9.89 10.69 4.2z"/>
<path d="m104 63.03 4.67.81-6.89 16.28-4.7-.93L104 63.03zM78.19 57.9H91.8v2.96H78.19zm3.44 12.85-3.48-9.89h13.69l-3.48 9.89h-6.73z"/>
</g>
</g>
<g id="Neck-Armor_Heavy">
<path id="Neck-Plate_Heavy" d="m69.69 11.62-9.62 2.1.92 3.57a5.11 5.11 0 0 0 6.04 3.72 4.73 4.73 0 0 0 3.59-5.82l-.93-3.57zm30.62 0 9.62 2.1-.92 3.57a5.1 5.1 0 0 1-6.04 3.72 4.73 4.73 0 0 1-3.59-5.82l.93-3.57z" fill="#2E2929"/>
<path id="Secondary_Neck-Plate_Heavy" d="m67.3 11.8-4.84 1.06.69 2.67a2.57 2.57 0 0 0 3.04 1.87 2.4 2.4 0 0 0 1.8-2.93l-.69-2.67zm35.4 0 4.84 1.06-.69 2.67a2.57 2.57 0 0 1-3.04 1.87 2.4 2.4 0 0 1-1.8-2.93l.69-2.67z" fill="#940F0F"/>
</g>
<g id="Full-Chest_Heavy">
<path id="Under-Plate_Chest_Heavy" d="M90.5 54.56h-11l-2.76 2.36v1.58l1.45-.6H91.8l1.45.61v-1.59l-2.75-2.36z" fill="#800606"/>
<g id="Chest-Plate_Heavy" fill="#3A3A3A">
<path d="m65.78 61.66 9.75-5.63 1.32-2.67 2.6.35h11.11l2.6-.35 1.32 2.67 9.75 5.63 4.53.99-.11 1.65-4.85-.84-10.54-4.37v-2.17l-2.76-2.36h-11l-2.76 2.36v2.17L66.2 63.46l-4.85.84-.11-1.65 4.54-.99zm42.97.98 5.64-14.4.83 2.95-1.79 10.71-4.68.74zM54.78 51.19l.83-2.95 5.64 14.4-4.68-.74-1.79-10.71z"/>
<path d="M61.09 42.62V36.6l-.46-10.79 2.81-3.1 8.51-1.76 2.2 2.57h21.69l2.2-2.57 8.51 1.76 2.81 3.1-.45 10.53-.01-.02v6.31L93.15 53.36l-2.6.35h-11.1l-2.6-.35-15.76-10.74z"/>
<path d="M108.91 36.61v6.02l5.49 5.61-5.49-11.63zM76.85 53.36 61.09 42.62l-5.49 5.61 5.64 14.4 4.53-.99 9.75-5.63 1.33-2.65z"/>
<path d="m114.4 48.24-5.64 14.4-4.53-.99-9.75-5.63-1.32-2.67 15.75-10.74 5.49 5.63z"/>
<path d="m113.43 61.9-.19 1.15-4.61 1.24.12-1.65 4.68-.74zM61.09 36.61v6.02l-5.49 5.61 5.49-11.63z"/>
<path d="M60.63 25.82a62.96 62.96 0 0 1-2.28 16.61l2.74-5.82-.46-10.79zm48.75 0c.06 5.53.72 11.07 2.28 16.61l-2.74-5.82.46-10.79zM61.25 62.64l.11 1.65-4.61-1.24-.19-1.15 4.69.74z"/>
</g>
<g id="Accents_Chest-Plate_Heavy" class="toggle">
<path id="Accent-3_Accents_Chest-Plate_Heavy" d="m97.88 36.45-.58-1.79h2.63l-.57 1.79h-1.48zm0 3.47-.58-1.79h2.63l-.57 1.79h-1.48zM96.19 25.8h4.93v.54h-4.93zm0 1.72h4.93v.54h-4.93z" fill="#453232"/>
<path id="Accent-2_Accents_Chest-Plate_Heavy" d="M70.47 23.02a2.89 2.89 0 0 0-3.06-2.66c-.73.05-1.42.39-1.9.94a2.8 2.8 0 0 0-.67 2.01l.2 2.66a2.89 2.89 0 0 0 3.06 2.66 2.78 2.78 0 0 0 2.57-2.95l-.2-2.66z" fill="#716767"/>
<g id="Accent-1_Accents_Chest-Plate_Heavy" fill="#0085FF">
<path d="m69.65 20.78-4.33.28.54 7.14 4.33-.28-.54-7.14z"/>
<path d="m69.18 21.34-3.31.21.08 1.02 3.3-.21-.07-1.02zm-2.78 1.21-.45.03.42 5.59.45-.03-.42-5.59z"/>
<path d="m66.88 22.51-.45.03.42 5.6.45-.03-.42-5.6zm2.37-.15-.45.03.42 5.59.45-.03-.42-5.59zm-.47.03-.45.03.42 5.6.45-.03-.42-5.6zm-.95.06-.45.03.42 5.6.45-.03-.42-5.6zm.47-.03-.45.03.42 5.6.45-.03-.42-5.6zm-.95.07-.45.03.42 5.59.45-.03-.42-5.59z"/>
</g>
</g>
</g>
<g id="Iron-Heart_Heavy">
<path id="Heart_Heavy" d="m85 31.46 3.24 2.99v5.86L85 43.28l-3.24-2.98v-5.86L85 31.46z" fill="#8A760E"/><g id="Center_Heart_Heavy" class="option" fill="#0085FF">
<path d="M83.82 34.53h2.36v2.84h-2.36z"/>
<path d="M83.82 37.37h.39v2.84h-.39zm1.57 0h.39v2.84h-.39zm.4 0h.39v2.84h-.39zm-1.19 0h.39v2.84h-.39zm.4 0h.39v2.84H85zm-.79 0h.39v2.84h-.39z"/>
</g>
</g>
</g></g>
<g id="ChestDecals" mask="url(#ChestMask)"/>
<g id="Chest-Attachments"><g id="Bandoleer_Accessories_Chest" class="option">
<g id="Strap_Bandoleer_Accessories_Chest" fill="#8B572A">
<path d="m113.05 15.37-6.61-3.15L64.67 87.5l6.61 3.62 41.77-75.75"/>
<path d="m111.26 14.16-2.51-1.17-8.34 15.03 2.41 1.32 8.44-15.18M99.44 35.85l-2.76-1.51-12.82 23.1 2.76 1.51 12.82-23.1"/>
<path d="m99.71 36.72-3.92-2.15-1.28 2.32 3.92 2.15 1.28-2.32m-1.56 2.81-3.92-2.15-1.28 2.32 3.92 2.15 1.28-2.32m-1.55 2.8-3.92-2.15-1.28 2.32 3.92 2.15 1.28-2.32m-1.56 2.81-3.92-2.15-1.28 2.32 3.92 2.15 1.28-2.32m-1.56 2.8-3.92-2.15-1.29 2.32 3.92 2.15 1.29-2.32m-3.11 5.61-3.92-2.15-1.29 2.32 3.92 2.15 1.29-2.32m1.56-2.8-3.92-2.15-1.29 2.32 3.92 2.15 1.29-2.32m-3.11 5.61-3.92-2.15-1.28 2.31 3.92 2.15 1.28-2.31"/>
</g>
<g id="Ammo_Bandoleer_Accessories_Chest" fill="#8A6969">
<path d="m99.57 36.97 1.6.88c.17.09.23.31.14.48l-.66 1.18a.36.36 0 0 1-.48.14l-1.6-.88 1-1.8z"/>
<path d="m100.75 37.61-.13-.07-1 1.8.13.07 1-1.8zm-.28-.15-.13-.07-1 1.8.14.07.99-1.8zm-4.82-2.64-1 1.8-1.6-.88a.36.36 0 0 1-.14-.48l.66-1.19a.36.36 0 0 1 .48-.14l1.6.89z"/>
<path d="m94.44 34.15-.13-.07-1 1.8.14.07.99-1.8zm2.01 8.45 1.6.88c.17.09.23.31.14.48l-.66 1.19a.36.36 0 0 1-.48.14l-1.6-.88 1-1.81z"/>
<path d="m97.63 43.24-.13-.07-1 1.8.13.07 1-1.8zm-.28-.15-.13-.07-1 1.8.13.07 1-1.8zm-4.82-2.64-1 1.8-1.6-.88a.36.36 0 0 1-.14-.48l.66-1.19c.1-.17.31-.23.48-.14l1.6.89z"/>
<path d="m91.32 39.78-.13-.07-1 1.8.13.07 1-1.8zm3.58 5.6 1.6.88c.17.09.23.31.14.48l-.66 1.18a.36.36 0 0 1-.48.14l-1.6-.88 1-1.8z"/>
<path d="m96.08 46.03-.13-.07-1 1.8.13.07 1-1.8zm-.28-.15-.13-.07-1 1.8.13.07 1-1.8zm-4.82-2.64-1 1.8-1.6-.88a.36.36 0 0 1-.14-.48l.66-1.19c.1-.17.31-.23.48-.14l1.6.89z"/>
<path d="m89.77 42.57-.13-.07-1 1.8.13.07 1-1.8zm3.57 5.64 1.6.88c.17.09.23.31.14.48l-.66 1.19a.36.36 0 0 1-.48.14l-1.6-.88 1-1.81z"/>
<path d="m94.52 48.85-.13-.07-1 1.8.13.07 1-1.8zm-.28-.15-.13-.07-1 1.8.13.07 1-1.8zm-4.82-2.64-1 1.8-1.6-.88a.36.36 0 0 1-.14-.48l.66-1.18c.1-.17.31-.23.48-.14l1.6.88z"/>
<path d="m88.21 45.39-.13-.07-1 1.8.13.07 1-1.8z"/>
</g>
<g id="Buckles_Bandoleer_Accessories_Chest" fill="#A3A3A3">
<path d="m104 27.77-2.88-1.58-1.63 2.93 2.88 1.58 1.63-2.93z"/>
<path d="m103.26 28.27-2.17-1.19-1.63 2.93 2.17 1.19 1.63-2.93zm.74-3.93-1.86-1.01 1.61-2.92 3.76 2.05-1.61 2.92-1.9-1.04.36-.65 1.06.58.89-1.61-2.07-1.13-.89 1.61 1.01.55"/>
</g>
</g></g>
<g id="Collar"><g id="Cloth-Wrap-Right_Collar" class="option">
<g id="Main_Cloth-Wrap-Right_Collar" fill="#0D3B66">
<path d="M94.88 22.25c5-1.56 5.91-4.07 6.21-6.59.12-1.03-1.36-3.72.17-4.41 1.73-.78 5.81.44 7.49.8 1.25.27 2.36.58 3.63.59 2.94.03 5.28 1.99 5.54 3.45.37 2.04-3.27 2.78-4.97 4.33-4.26 3.88-5.74 9.13-14.69 10.57-4.11.66-8.18-.27-11.99-1.12-9.86-2.19-15.23-4.07-21.57-8.93-2.77-2.13-6.95-3.86-6.85-6.71.01-.12 2.02-1.31 2.22-1.36 1.78-.44 3.29-1.17 5.24-1.21 1.17-.02.98.98 1.06 1.43.33 1.74 1.93 3.05 3.93 4.36 5.3 3.47 17.34 4.54 24.58 4.8z"/>
<path d="M94.88 22.25c1.32.05 2.48.25 3.5.32 4.57.28 6.21-.83 7.09-2.86m3.63-7.6a6.08 6.08 0 0 1 .1 6.33m-38.49-.21c3.43 4.66 8.51 6.13 14.08 6.7M61.44 12.49c.2 1.18.91 1.62 1.78 2.41.5.46 1.12.78 1.52 1.35.14.2.22.44.31.67"/>
</g>
<path id="Buckle_Cloth-Wrap-Right_Collar" d="m71.89 17.35-2.91-2.08-5.06 7.02 2.91 2.08 5.06-7.02z" fill="#A3A3A3"/>
</g></g>
<g id="CollarDecals" mask="url(#CollarMask)"/>
<g id="Helmets" class="swappable" transform="translate(45,-62)"><g id="Helmet_Warden">
<g id="Left-Earcap_Warden" class="toggle" fill="#640B0B">
<path d="m59.24 42.22.4.4-.03 8.21h-1.82v-1.42h1.45v-7.19M57.8 53.42h1.06v16.62H57.8V53.42M58.86 53.42h.77v1.25h-.77v-1.25"/>
<path d="M57.02 42.22h2.22v7.21h-2.22v-7.21"/>
<path d="M58.17 44.22h1.24v1.29h-1.24v-1.29M58.35 49.75h.9v.72h-.9v-.72"/>
<path d="M58.35 49.75h.9V50h-.9v-.25M59.64 44.68l.44.44v6.4h-.44v-6.84M57.79 50.82h1.83v2.6h-1.83v-2.6"/>
</g>
<g id="Right-Earcap_Warden" class="toggle" fill="#8A0505">
<path d="m20.76 42.22-.4.4.03 8.21h1.82v-1.42h-1.45v-7.19M22.2 53.42h-1.06v16.62h1.06V53.42M21.14 53.42h-.77v1.25h.77v-1.25"/>
<path d="M22.98 42.22h-2.22v7.21h2.22v-7.21"/>
<path d="M21.83 44.22h-1.24v1.29h1.24v-1.29M21.65 49.75h-.9v.72h.9v-.72"/>
<path d="M21.65 49.75h-.9V50h.9v-.25M20.36 44.68l-.44.44v6.4h.44v-6.84M22.21 50.82h-1.83v2.6h1.83v-2.6"/>
</g>
<g id="Helmet_Pieces_Warden">
<g id="Face_Warden" fill="#353030">
<path d="m25.55 58.78 7.74 6.66 1.81 10.99-10.56-4.81 1.01-12.84zM54.47 58.78l-7.74 6.66-1.82 10.99 10.56-4.81-1-12.84z"/>
</g>
<g id="Cheeks_Warden" fill="#9F1515">
<path d="M22.93 51.6s1.02 2.84 4.11 4.94 5.22 2.66 5.22 2.66l1.03 6.24-7.74-6.66-2.62-7.18z"/>
<path d="m22.93 51.6 2.62 7.18-1 12.84-1.62-.63V51.6zM57.09 51.6s-1.02 2.84-4.11 4.94c-3.09 2.09-5.22 2.66-5.22 2.66l-1.03 6.24 7.74-6.66 2.62-7.18z"/>
<path d="m57.09 51.6-2.62 7.18 1 12.84 1.62-.63V51.6z"/>
</g>
<path fill="#0085FF" id="Visor_Warden" d="M23.47 47.22h33.08v1.24l-13.16 2.85-1.38 22.72 1.72 2.58c-1.28.72-6.16.72-7.44 0l1.72-2.58-1.38-22.72-13.16-2.85v-1.24z"/>
<path id="Eyes-2_Warden" d="M23.47 47.22v1.24l13.16 2.85 1.38 22.72-1.9 2.85-.95-.14-2.9-17.54s-2.14-.57-5.22-2.66-4.11-4.94-4.11-4.94v19.39l-.73-.76v-25.5h35.62v25.5l-.73.76V51.6s-1.02 2.84-4.11 4.94c-3.09 2.09-5.22 2.66-5.22 2.66l-2.9 17.54-.95.14-1.9-2.85 1.38-22.72 13.16-2.85v-1.24H23.47z" fill="#3A3A3A"/>
<path id="Eyes-1_Warden" d="M57.31 46.26v3.15l-12.95 2.85-1.33 21.55 1.88 2.62-.05.31-.95.14-1.9-2.85 1.38-22.72 13.16-2.85v-1.24H23.47v1.24l13.16 2.85 1.38 22.72-1.9 2.85-.95-.14-.05-.31 1.88-2.62-1.33-21.55-12.95-2.85v-3.15h34.6z" fill="#9E2121"/>
<path id="Dome-2_Warden" d="M22.2 44.72c0-9.84 7.98-17.83 17.81-17.83s17.81 7.99 17.81 17.83H22.2z" fill="#9D0505"/>
<path id="Dome-1_Warden" d="M22.19 44.72c0-8.47 7.98-15.36 17.81-15.36s17.81 6.88 17.81 15.36H22.19z" fill="#3C3C3C"/>
<path id="Triangle-2_Warden" d="M41.76 39.71a2.15 2.15 0 0 1-3.5 0 1.94 1.94 0 0 1 1.57-3.06h.36c.72 0 1.39.41 1.72 1.05.33.64.28 1.42-.15 2.01.01 0 0 0 0 0z" fill="#8E0606"/>
<path id="Triangle-1_Warden" d="M41.27 39.68a1.52 1.52 0 0 1-2.52 0l-.09-.12a1.52 1.52 0 0 1-.1-1.59c.26-.51.79-.83 1.36-.83h.17c.57 0 1.1.32 1.37.83.26.51.22 1.12-.11 1.59l-.08.12z" fill="#0085FF"/>
</g>
</g></g>
<g id="HelmetsDecals" mask="url(#HelmetsMask)"/>
<g id="Shoulders">
<g id="Left-Shoulder"><g id="Legacy-x3_Shoulder_Left" class="option">
<path id="Plate-3_Shoulder_Left_Legacy-x3" d="m119.95 19.89-7.33 7.47 4.29 9.25 9.66-.51 5.11 4.66 4.55-.32-16.28-20.55z" fill="#741818"/>
<path id="Trauma-Plate-3_Shoulder_Legacy-x3_Left" class="toggle" style="" d="m132.3 39.03 2.94-.21-14.04-17.78-6.54 6.67 3.32 7.16 8.89-.55 5.43 4.71z" fill="#3A3A3A"/>
<path id="Plate-2_Shoulder_Left_Legacy-x3" d="m115.99 15.27-5.8 8.69 5.95 8.29 9.39-2.29 5.9 3.63 4.41-1.15-19.85-17.17z" fill="#6D1818"/>
<path id="Trauma-Plate-2_Shoulder_Legacy-x3_Left" class="toggle" style="" d="m131.69 31.78 2.85-.74-17.1-14.9-5.19 7.75 4.6 6.43 8.64-2.17 6.2 3.63z" fill="#3A3A3A"/>
<path id="Plate-1_Shoulder_Left_Legacy-x3" d="m108.85 10.82-2.61 10.1 8.36 5.89 8.12-5.22 6.77 1.51 3.79-2.53-24.43-9.75z" fill="#831717"/>
<path id="Trauma-Plate-1_Shoulder_Legacy-x3_Left" class="toggle" style="" d="m129.14 21.3 2.45-1.64-21.09-8.46-2.33 9.02 6.47 4.56 7.43-4.88 7.07 1.4z" fill="#3A3A3A"/>
</g></g>
<g id="Right-Shoulder"><g id="Heavy-Bell_Shoulder_Right" class="option">
<path id="Bottom_Heavy-Bell_Shoulder_Right" d="m35.39 36.51-1.4 4.86a30.43 30.43 0 0 0 5.75 3.05 5.46 5.46 0 0 0 7.15-3.65h.01l-11.51-4.26z" fill="#3A3A3A"/>
<path id="Main_Heavy-Bell_Shoulder_Right" d="M60.55 14.02c-10.96-2.48-21.37 2.17-23.24 10.39l-2.62 11.46c4.75 4.52 12.81 5.9 20.34 5.84 3.98-9.09 5.1-18.09 5.52-27.69" fill="#3A3A3A"/>
<g id="Trim_Heavy-Bell_Shoulder_Right" class="toggle" fill="#841D1D">
<path d="M45.55 40.27c-.37 1.13-.88 2.18-1.93 2.74-1.1.59-2.39.47-3.58.09-1.55-.49-3.6-1.67-5.92-3.11l-.36 1.25a24.9 24.9 0 0 0 6.86 3.66c1.2.38 2.65.15 3.75-.44a4.57 4.57 0 0 0 2.26-2.81l.25-.88-1.33-.5z"/>
<path d="M58.69 13.45c-.5 8.79-1.54 17.37-5.22 25.78-6.65.05-13.73-2.16-18.56-5.52l-.44 1.94c5.06 4.85 13.04 6.12 20.56 6.06 3.99-9.09 5.1-18.32 5.53-27.91-.01.01-1.32-.26-1.87-.35z"/>
</g>
</g></g>
</g>
<g id="ShouldersDecals" mask="url(#ShouldersMask)"/>
<g id="Gauntlets">
<g id="Left-Gauntlets"><g id="Heavy_Gauntlet_Left" class="option">
<g id="Top-2_Heavy_Gauntlet_Left" fill="#3A3A3A">
<path d="m140.68 79.64 1.74.13 1.43 8.11-1.48 1.23-1.69-9.47z"/>
<path d="m142.25 88.39 1.82 10.57-.95 1.28 1.11 6.22-.44.32-3.07-17.02 1.53-1.37z"/>
<circle cx="142.26" cy="85.76" r=".38"/>
</g>
<g id="Top-1_Heavy_Gauntlet_Left" fill="#8A0404">
<path d="m139.42 107.96 4.36-1.17-3.07-17.02 1.54-1.38-1.66-9.27-6.59-.67 5.42 29.51z"/>
<path d="m138.89 78.94 1.82 10.82"/>
</g>
<path id="Accent-Top_Heavy_Gauntlet_Left" d="m142.53 104.17-2.77.56.42 2.15 2.77-.65-.42-2.06zm-1.75-9.01-2.77.56 1.62 8.4 2.77-.56-1.62-8.4zm-2.49-15.6-3.13-.24 1.64 9.21 2.91-.59-1.42-8.38z" fill="#0085FF"/>
<path id="Bottom_Heavy_Gauntlet_Left" d="M134.08 78.88c-3.37.13-6.88 1.57-9.06 4.4a3.55 3.55 0 0 0-.58 3.22l7.01 22.84 7.98-1.39-5.35-29.07z" fill="#3A3A3A"/>
<g id="Accent-Bottom_Heavy_Gauntlet_Left" fill="#980B0B">
<path d="m139.42 107.96-7.98 1.39-.43-1.41 8.13-1.52.28 1.54zm-4.98-27.1c-4.35.43-7.98 2.01-9.69 6.7l-.32-1.04c-.27-.87-.19-1.8.2-2.61l.41-.65c2.19-2.81 5.68-4.24 9.03-4.37l.37 1.97z"/>
<path d="m133.31 79.53-3.52.69 2.77 13.89 3.52-.69-2.77-13.89z"/>
<path d="m132.9 79.88-2.59.51 2.56 12.85 2.59-.51-2.56-12.85z"/>
<path d="m130.3 80.39-.51-.17m3.52-.69-.41.35m3.18 13.54-.62-.7m-2.9 1.4.37-.89"/>
</g><g id="No-Device_Attachment_Heavy_Gauntlet_Left" class="option"/>
</g></g>
<g id="Right-Gauntlets"><g id="Heavy_Gauntlet_Right" class="option">
<g id="Top-2_Heavy_Gauntlet_Right" fill="#3A3A3A">
<path d="m29.5 79.64-1.74.13-1.43 8.11 1.48 1.23 1.69-9.47z"/>
<path d="m27.93 88.39-1.82 10.57.95 1.28-1.11 6.22.44.32 3.07-17.02-1.53-1.37z"/>
<circle cx="27.92" cy="85.76" r=".38"/>
</g>
<g id="Top-1_Heavy_Gauntlet_Right" fill="#8B2222">
<path d="m30.76 107.96-4.36-1.17 3.07-17.02-1.54-1.38 1.66-9.27 6.59-.67-5.42 29.51z"/>
<path d="m31.29 78.94-1.82 10.82"/>
</g>
<path id="Accent-Top_Heavy_Gauntlet_Right" d="m27.66 104.17 2.77.56-.42 2.15-2.77-.65.42-2.06zm1.74-9.01 2.77.56-1.62 8.4-2.77-.56 1.62-8.4zm2.49-15.6 3.13-.24-1.64 9.21-2.91-.59 1.42-8.38z" fill="#0085FF"/>
<path id="Bottom_Heavy_Gauntlet_Right" d="M36.11 78.88c3.37.13 6.88 1.57 9.06 4.4.71.92.92 2.12.58 3.22l-7.01 22.84-7.98-1.39 5.35-29.07z" fill="#3A3A3A"/>
<g id="Accent-Bottom_Heavy_Gauntlet_Right" fill="#980B0B">
<path d="m30.76 107.96 7.98 1.39.43-1.41-8.13-1.52-.28 1.54zm4.98-27.1c4.35.43 7.98 2.01 9.69 6.7l.32-1.04c.27-.87.19-1.8-.2-2.61l-.41-.65c-2.19-2.81-5.68-4.24-9.03-4.37l-.37 1.97z"/>
<path d="m36.88 79.53 3.52.69-2.77 13.89-3.52-.69 2.77-13.89z"/>
<path d="m37.29 79.88 2.59.51-2.56 12.85-2.59-.51 2.56-12.85z"/>
<path d="m39.88 80.39.51-.17m-3.51-.69.41.35M34.1 93.42l.62-.7m2.9 1.4-.37-.89"/>
</g><g id="No-Device_Attachment_Heavy_Gauntlet_Right" class="option"/>
</g></g>
</g>
<g id="GauntletsDecals" mask="url(#GauntletsMask)"/>
<g id="Shins">
<g id="Left-Shin"><g id="Heavy-Shnees_Shin_Left" class="option">
<g id="Shin_Heavy-Shnees-Shin_Left" fill="#3A3A3A">
<path d="m112.07 224.31 4.68-6.1 8.52-1.02-6.09-55.58-24.29 3.02 12.33 51.48.09 5.64 4.76 2.56"/>
<path d="m98.68 163.41-2.62-2.14h-1.73s-.8 4.95-.63 7.41c.28 3.98 4.34 9.06 4.34 9.06l2.69 1.26 3.01-6.94-5.06-8.65m18.15 5.56 1.64-8.34s2.41 4.71 2.64 7.17c.41 4.36-.46 7.23-.46 7.23l-3.82-6.06m-.08 49.24 8.52-1.02-2.11-4.26-5.82.52-.59 4.76"/>
<path d="m120.15 213.19-6.83-36.52"/>
</g>
<g id="Knee_Heavy-Shnees-Shin_Left" fill="#3A3A3A">
<path d="m113.99 153.2-13.68 2.29-2.04 9.89 10.06 12.11 9.04-1.28 2.9-14.95-6.28-8.06"/>
<path d="m100.31 155.49 2.93 3.55 10.59-1.66.16-4.18-13.68 2.29"/>
<path d="m103.24 159.04-4.97 6.31 2.03-9.86 2.94 3.55m10.59-1.66 6.44 3.88-6.28-8.06-.16 4.18m0 0 3.54 18.83 2.9-14.95-6.44-3.88"/>
<path d="m103.24 159.04-4.97 6.31 10.06 12.15-5.09-18.46"/>
</g>
<g id="Straps_Heavy-Shnees-Shin_Left" class="toggle" fill="#8B572A">
<path d="m99.72 186.35 5.22-.86.54 2.35-5.22.86-.54-2.35"/>
<path d="m100.07 186.1 1.11-.18.64 2.78-1.11.18-.64-2.78m5.03 22.95 5.22-.86.54 2.35-5.22.86-.54-2.35"/>
<path d="m105.44 208.8 1.1-.18.64 2.78-1.11.18-.63-2.78"/>
</g>
</g></g>
<g id="Right-Shin"><g id="Heavy-Shnees_Shin_Right" class="option">
<g id="Shin_Heavy-Shnees-Shin_Right" fill="#3A3A3A">
<path d="m57.82 224.31-4.68-6.1-8.52-1.02 6.09-55.58L75 164.63l-12.33 51.48-.09 5.64-4.76 2.56"/>
<path d="m71.22 163.41 2.62-2.14h1.73s.8 4.95.63 7.41c-.28 3.98-4.34 9.06-4.34 9.06L69.18 179l-3.01-6.94 5.05-8.65m-18.16 5.56-1.64-8.34s-2.41 4.71-2.64 7.17c-.41 4.36.46 7.23.46 7.23l3.82-6.06m.08 49.24-8.52-1.02 2.11-4.26 5.82.52.59 4.76"/>
<path d="m49.74 213.19 6.84-36.52"/>
</g>
<g id="Knee_Heavy-Shnees-Shin_Right" fill="#3A3A3A">
<path d="m55.9 153.2 13.68 2.29 2.04 9.89-10.06 12.11-9.04-1.28-2.9-14.95 6.28-8.06"/>
<path d="m69.58 155.49-2.93 3.55-10.59-1.66-.16-4.18 13.68 2.29"/>
<path d="m66.65 159.04 4.97 6.31-2.04-9.86-2.93 3.55m-10.59-1.66-6.44 3.88 6.28-8.06.16 4.18m0 0-3.54 18.83-2.9-14.95 6.44-3.88"/>
<path d="m66.65 159.04 4.97 6.31-10.06 12.15 5.09-18.46"/>
</g>
<g id="Straps_Heavy-Shnees-Shin_Right" class="toggle" fill="#8B572A">
<path d="m70.17 186.35-5.22-.86-.54 2.35 5.22.86.54-2.35"/>
<path d="m69.82 186.1-1.1-.18-.64 2.78 1.11.18.63-2.78m-5.02 22.95-5.22-.86-.54 2.35 5.22.86.54-2.35"/>
<path d="m64.45 208.8-1.11-.18-.64 2.78 1.1.18.65-2.78"/>
</g>
</g></g>
</g>
<g id="ShinsDecals" mask="url(#ShinsMask)"/>
<g id="Foot">
<g id="Left-Ankle"><g id="Heavy_Ankle_Left" class="option">
<path id="Plate_Heavy-Ankle_Left" d="m107.19 218.98.36 3.6 7.43 9.26 7.24-3.25 7.88-2.03-5.95-10.52c-3.01-.42-6.51-.06-10.55 1.15l-2.25 1.97-4.16-.18" fill="#3A3A3A"/>
<path id="Trim_Heavy-Ankle_Left" d="m113.6 217.2.85 1.02-2.65 2.25-3-.13.11 1.46 6.44 7.92 6.46-3.01 7.78-1.84.81 1.62-8.16 2.1-7.24 3.25-7.43-9.26-.36-3.6 4.16.18 2.23-1.96" fill="#760000"/>
</g></g>
<g id="Left-Toe">
<g id="Armored_Toe_Left" class="option">
<g id="Plate_Armored_Toe_Left" fill="#3A3A3A">
<path d="m119.07 233.15 9.63 5.32 7.27.49 5.83-1.47c1.22-1.01 1.71-3.29.66-5.55l-8.21-3.88-6.44 1.61-8.74 3.48"/>
<path d="M127.13 229.95s7.51 2.19 8.45 3.48c1.04 1.44.39 5.53.39 5.53"/>
</g>
<g id="Trim_Armored_Toe_Left" fill="#6D0000">
<path d="m133.13 227.42-7.73 1.86-6.52 3.94 1.35.74 6.91-4.02 7.7-1.8-1.71-.72"/>
<path d="m125.39 229.29 1.74.66"/>
</g>
</g></g>
<g id="Right-Ankle"><g id="Heavy_Ankle_Right" class="option">
<path id="Plate_Heavy-Ankle_Right" d="m62.68 218.98-.36 3.6-7.43 9.26-7.24-3.25-7.88-2.03 5.95-10.52c3-.42 6.51-.06 10.55 1.15l2.25 1.97 4.16-.18" fill="#3A3A3A"/>
<path id="Trim_Heavy-Ankle_Right" d="m56.27 217.2-.85 1.02 2.65 2.25 3.01-.13-.11 1.46-6.44 7.92-6.46-3.01-7.78-1.84-.81 1.62 8.16 2.1 7.24 3.25 7.43-9.26.36-3.6-4.16.18-2.24-1.96" fill="#730808"/>
</g></g>
<g id="Right-Toe">
<g id="Armored_Toe_Right" class="option">
<g id="Plate_Armored_Toe_Right" fill="#3A3A3A">
<path d="m50.81 233.15-9.63 5.32-7.27.49-5.83-1.47c-1.22-1.01-1.71-3.29-.66-5.55l8.21-3.88 6.44 1.61 8.74 3.48"/>
<path d="M42.74 229.95s-7.51 2.19-8.45 3.48c-1.04 1.44-.39 5.53-.39 5.53"/>
</g>
<g id="Trim_Armored_Toe_Right" fill="#650000">
<path d="m36.75 227.42 7.73 1.86 6.52 3.94-1.35.74-6.91-4.02-7.7-1.8 1.71-.72"/>
<path d="m44.48 229.29-1.74.66"/>
</g>
</g></g>
</g>
<g id="FootDecals" mask="url(#FootMask)"/>
<g id="Knees">
<g id="Left-Knee"><g id="Heavy_Knee_Left" class="option">
<g id="Missiles_Heavy-Knee_Left" class="toggle" style="display:none"/>
<path id="Plate-2_Heavy-Knee_Left" d="m116.81 155.76-2.86-1.72-14.26 2.44-2.07 2.56 2.79 14.21 5.62.13 8.01-1.37 5.57-2-2.8-14.25z" fill="#9B0000"/>
<g id="Plate-1_Heavy-Knee_Left" fill="#3A3A3A">
<path d="m116.12 156.54-2.63-1.66-13.05 2.23-1.88 2.44 2.7 13.71 4.78.12 8.01-1.37 4.78-1.75-2.71-13.72z"/>
<path d="m111.54 158.46-8.01 1.37 2.49 13.54 4.15-.16 3.86-1.21-2.49-13.54z"/>
<path d="m103.54 159.83-3.1-2.72-1.88 2.44 4.98.28zm8-1.37 1.94-3.58 2.63 1.66-4.57 1.92z"/>
</g>
<g id="Trim_Heavy-Knee_Left" fill="#0085FF">
<path d="m97.66 163.92-.44 1.08 1.58 8.58.62-.11-1.76-9.55zm14.75 4.04-6.28 1.07.62 3.35 6.29-1.08-.63-3.34z"/>
<path d="m98.28 162.37-.88.15 2.02 10.95 1.02-.18-.01-.04h-.02l-2.13-10.88zm19.38-2.28 1.94 9.91-.18.06 1.03-.18-1.83-9.96-.96.17z"/>
</g>
</g></g>
<g id="Right-Knee"><g id="Heavy_Knee_Right" class="option">
<g id="Missiles_Heavy-Knee_Right" class="toggle" style="display:none"/>
<path id="Plate-2_Heavy-Knee_Right" d="m53.08 155.76 2.86-1.72 14.26 2.44 2.07 2.56-2.79 14.21-5.62.13-8.01-1.37-5.57-2 2.8-14.25z" fill="#A10000"/>
<g id="Plate-1_Heavy-Knee_Right" fill="#3A3A3A">
<path d="m53.77 156.54 2.63-1.66 13.05 2.23 1.88 2.44-2.7 13.71-4.78.12-8.01-1.37-4.78-1.75 2.71-13.72z"/>
<path d="m58.35 158.46 8.01 1.37-2.49 13.54-4.15-.16-3.86-1.21 2.49-13.54z"/>
<path d="m66.35 159.83 3.1-2.72 1.88 2.44-4.98.28zm-8-1.37-1.94-3.58-2.63 1.66 4.57 1.92z"/>
</g>
<g id="Trim_Heavy-Knee_Right" fill="#0085FF">
<path d="m72.23 163.92.44 1.08-1.58 8.58-.62-.11 1.76-9.55zm-14.74 4.04 6.28 1.07-.62 3.35-6.28-1.08.62-3.34z"/>
<path d="m71.61 162.37.88.15-2.02 10.95-1.03-.18.01-.04h.02l2.14-10.88zm-19.38-2.28L50.28 170l.18.06-1.03-.18 1.83-9.96.97.17z"/>
</g>
</g></g>
</g>
<g id="KneesDecals" mask="url(#KneesMask)"/>
<g id="Thighs">
<g id="Left-Thigh"><g id="Heavy_Thigh_Left" class="option">
<g id="Thigh_Heavy-Thigh_Left" fill="#3A3A3A">
<path d="m97.62 118.12-5.78 7.32 6.6 26.24 4.49 1.59-3.13-29.91-2.18-5.24m14.75-1.53 7.17 5.98-1.03 27.03-4.06 2.47-3.13-29.91 1.05-5.57"/>
<path d="m112.37 116.59-14.76 1.52 2.19 5.24 11.51-1.19 1.06-5.57m-1.05 5.58-11.51 1.19 3.13 29.91 11.51-1.19-3.13-29.91"/>
</g>
<g id="Trim_Heavy-Thigh_Left" fill="#7E1B1B">
<path d="m112.95 114.3-16.38 1.69 1.04 2.13 14.76-1.52.58-2.3"/>
<path d="m119.26 120.01-6.31-5.72-.58 2.3 7.17 5.98-.28-2.56m-27.67 2.86 4.99-6.88 1.04 2.13-5.78 7.32-.25-2.57"/>
</g>
</g></g>
<g id="Right-Thigh"><g id="Heavy_Thigh_Right" class="option">
<g id="Thigh_Heavy-Thigh_Right" fill="#3A3A3A">
<path d="m72.28 118.12 5.78 7.32-6.6 26.24-4.49 1.59 3.13-29.91 2.18-5.24m-14.76-1.53-7.17 5.98 1.03 27.03 4.06 2.47 3.13-29.91-1.05-5.57"/>
<path d="m57.52 116.59 14.76 1.52-2.19 5.24-11.51-1.19-1.06-5.57m1.06 5.58 11.51 1.19-3.13 29.91-11.51-1.19 3.13-29.91"/>
</g>
<g id="Trim_Heavy-Thigh_Right" fill="#7E1B1B">
<path d="m56.94 114.3 16.38 1.69-1.04 2.13-14.76-1.52-.58-2.3"/>
<path d="m50.63 120.01 6.31-5.72.58 2.3-7.17 5.98.28-2.56m27.68 2.86-4.99-6.88-1.04 2.13 5.78 7.32.25-2.57"/>
</g>
</g></g>
</g>
<g id="ThighsDecals" mask="url(#ThighsMask)"/>
<g id="Groin"><g id="Basic_Groin" class="option">
<path id="Groin-Plate_Basic" d="M78.67 122.29 68.22 99.4h33.42l-10.45 22.89-6.26 5.46-6.26-5.46z" fill="#7E1B1B"/>
<path id="Trauma-Plating_Groin" class="toggle" style="" d="m79.77 120.38-8.61-18.86H98.7l-8.61 18.86-5.16 4.49-5.16-4.49z" fill="#3A3A3A"/>
</g>
</g>
<g id="GroinDecals" mask="url(#GroinMask)"/>
<g id="Waist">
<g id="Accessories_Waist">
<g id="Kama" class="toggle" style="display:none"/>
<g id="Loin-Cloth" class="toggle" style="display:none"/>
<g id="Left-Holster" class="toggle" style=""><g id="Belt-Holster_Left" class="option">
<g id="Weapon_Belt-Holster-Left">
<g id="Main_Weapon_Belt-Holster-Left" fill="#3A3A3A">
<path d="m116.79 99.11-.24-3.6.62-.04-.15-2.26-.62.04-.08-1.18c-.03-.38.46-.73 1.1-.77l5.37-.36c.63-.04 1.17.23 1.19.62l.08 1.18-.62.04.15 2.26.62-.04.24 3.6-1.46.1.67 9.95-4.73.31-.67-9.95-1.47.1z"/>
<path d="m123.79 98.11-.84.06.8 11.96-4.73.31-.8-11.96-.84.06-.18-2.73 6.41-.42.18 2.72zm-1.74-6.33-3.8.25.25 3.69 3.8-.25-.25-3.69z"/>
<path d="m119.38 99.49-.62.04.63 9.4.62-.04-.63-9.4zm1.44-2.26-.62.04.63 9.4.62-.04-.63-9.4zm1.74 2.05-.62.04.63 9.4.62-.04-.63-9.4z"/>
</g>
<g id="Accent_Weapon_Belt-Holster-Left" fill="#0085FF">
<path d="m119.09 96.06.03.38 2.68-.18-.03-.38-2.68.18z"/>
<path d="m119.11 96.44.03.38 2.68-.18-.03-.38-2.68.18zm-.05-.76.02.38 2.68-.18-.03-.38-2.67.18zm-.31-4.63.03.38 2.68-.18-.03-.38-2.68.18z"/>
<path d="m118.88 91.99-.62.04.25 3.69.62-.04-.25-3.69zm3.17-.21-.62.04.25 3.69.62-.04-.25-3.69zm-.12 7.54-.94.06.63 9.4.94-.06-.63-9.4zm-1.6.1-.94.06.63 9.4.94-.06-.63-9.4z"/>
</g>
</g>
<path id="Holster_Belt-Holster-Left" d="m118.4 112.89-2.47-14.99 8.29 10.56.79 20.68c-1.44 1.89-3.04 2.08-4.84.36l-1.77-16.61z" fill="#8B572A"/>
</g>
</g>
<g id="Right-Holster" class="toggle" style=""><g id="Belt-Holster_Right" class="option">
<g id="Weapon_Belt-Holster-Right">
<g id="Main_Weapon_Belt-Holster-Right" fill="#3A3A3A">
<path d="m53.1 99.11.24-3.6-.62-.04.15-2.26.62.04.08-1.18c.03-.38-.47-.73-1.1-.77l-5.37-.36c-.63-.04-1.17.23-1.19.62l-.08 1.18.62.04-.15 2.26-.62-.04-.24 3.6 1.46.1-.67 9.95 4.73.31.67-9.95 1.47.1z"/>
<path d="m46.1 98.11.84.06-.8 11.96 4.73.31.8-11.96.84.06.18-2.73-6.41-.42-.18 2.72zm1.74-6.33 3.8.25-.25 3.69-3.8-.25.25-3.69z"/>
<path d="m50.51 99.49.62.04-.63 9.4-.62-.04.63-9.4zm-1.44-2.26.62.04-.63 9.4-.62-.04.63-9.4zm-1.74 2.05.62.04-.63 9.4-.62-.04.63-9.4z"/>
</g>
<g id="Accent_Weapon_Belt-Holster-Right" fill="#0085FF">
<path d="m50.8 96.06-.03.38-2.68-.18.02-.38 2.69.18z"/>
<path d="m50.78 96.44-.03.38-2.68-.18.03-.38 2.68.18zm.05-.76-.02.38-2.68-.18.03-.38 2.67.18zm.31-4.63-.02.38-2.68-.18.03-.38 2.67.18z"/>
<path d="m51.01 91.99.62.04-.25 3.69-.62-.04.25-3.69zm-3.17-.21.62.04-.25 3.69-.62-.04.25-3.69zm.12 7.54.94.06-.63 9.4-.94-.06.63-9.4zm1.6.1.94.06-.63 9.4-.94-.06.63-9.4z"/>
</g>
</g>
<path id="Holster_Belt-Holster-Right" d="m51.49 112.89 2.47-14.99-8.29 10.56-.79 20.68c1.44 1.89 3.04 2.08 4.84.36l1.77-16.61z" fill="#8B572A"/>
</g>
</g>
<g id="Left-Trophy" class="toggle" style="display:none"/>
<g id="Right-Trophy" class="toggle" style="display:none"/>
</g>
<g id="Under-Belt">
<g id="Sash" class="option" fill="#343871">
<path d="M56.68 79.7c2.57-.54 6.55 1.03 9.91 1.3 3.6.29 7.2.03 10.79.27 2.1.14 4.17.66 6.25.94 4.01.53 8.02.25 12.02-.26 1.05-.14 2.13-.16 3.17-.37 2.62-.54 6.03-1.14 8.28-2.19 2-.5 4.01-.58 5.89-.12 1.91.47.57 4.25.66 5.8.09 1.64 1.27 8.06 1.98 9.56.78 1.66 1.4 3.47-.88 4.56-1.91.91-3.95.09-5.89-.17-2.29-.3-4.57-.15-6.83.29-2.77.54-5.51 1.53-8.33 1.79-3.78.35-7.58-.34-11.36-.29-2.17.03-4.26.73-6.43.56-3.64-.29-6.95-1.77-10.48-2.11-1.78-.17-3.55.23-5.32.24-1.22 0-2.36-.33-3.54-.62-1.17-.28-2.27-.17-2.91-1.27-.48-.83.54-3.07 1.03-3.78 1.26-1.81 1.6-8.21 1.14-10.26-.4-1.74-.93-3.49.85-3.87z"/>
<path d="M54.09 94.91c4.02-.01 7.54-.09 11.16 1.3 12.27 4.7 11.99 4.06 17.21 4.59 7.68.78 10.74.49 13.92-.22 1.28-.29 2.57-.7 3.72-1.28a33.57 33.57 0 0 0 5.85-3.53c2.21-1.75 6.07-2.92 9.17-2.78 0 0-.6-2.02-1.46-7.99-.22-1.55.76-3.24-.01-5.33-.33-.9-3.38-.65-5.45-.49-4.09.33-5.9 3.28-9.05 5.62-1.84 1.37-4.02 2.99-6.74 3.86-4.28 1.38-10.94 2.01-23.58-2.18-4.12-1.36-7.61-3.95-13.05-3.12 0 0 .2 2.78.2 4.17 0 4.47-1.89 7.38-1.89 7.38z"/>
</g></g>
<g id="Belt"><g id="Pouch-Belt-4" class="option">
<path id="Main_Pouch-Belt-4" d="M115.21 92.95c-6.82.61-22.4 2.83-30.27 2.83-7.94 0-23.52-2.23-30.26-2.82l1.01-7.93c5.53.49 21.56 2.74 29.26 2.74 7.47 0 23.17-2.23 29.07-2.76l1.19 7.94z" fill="#8B572A"/>
<path id="Buckle_Pouch-Belt-4" d="M79.37 87.01h11.28v9.21H79.37z" fill="#A3A3A3"/>
<g id="Pouches_Pouch-Belt-4" fill="#8B572A">
<path d="M59.65 83.47c-.31-.02-.62.03-.91.16l-1.86.81 7.38.42 2-.95-6.61-.44z"/>
<path d="M66.52 84.19a.23.23 0 0 0-.1-.22.23.23 0 0 0-.24-.02l-1.91.9-1.02 12.42a6.9 6.9 0 0 1 1.93-.85.9.9 0 0 0 .69-.84c.12-3.8.28-7.6.65-11.39z"/>
<path d="m64.26 84.85-7.38-.42c-.06 1.89-.23 3.77-.33 5.65-.11 2.08-.16 4.17-.34 6.28-.01.15.04.3.14.41s.25.18.4.17c2.08-.01 4.15.11 6.22.36a.5.5 0 0 0 .4-.12.54.54 0 0 0 .19-.37l.37-5.33.33-6.63z"/>
<path d="m64.26 84.85-7.38-.42-.36 3.15a2.75 2.75 0 0 0 2.59 3.05l2.23.13a2.8 2.8 0 0 0 2.06-.75c.55-.52.87-1.25.86-2v-3.16z"/>
<path d="M60.31 89.23c.26.01.46.26.44.54-.02.28-.24.5-.5.49-.26-.01-.46-.26-.44-.54.02-.28.24-.5.5-.49zm-8.09-4.94.55-.85 2.83.09.35 1.06-3.73-.3z"/>
<path d="M55.93 84.69a.2.2 0 0 0-.06-.18.23.23 0 0 0-.17-.08l-3.48-.13-.5 11.17c.11.28 1.53.46 2.68.49a.9.9 0 0 0 .92-.88c.08-3.47.21-6.94.61-10.39zm54.31-1.22c.31-.02.62.03.91.16l1.86.81-7.38.42-2-.95 6.61-.44z"/>
<path d="M103.37 84.19a.23.23 0 0 1 .1-.22.23.23 0 0 1 .24-.02l1.91.9 1.02 12.42a6.9 6.9 0 0 0-1.93-.85.9.9 0 0 1-.69-.84c-.12-3.8-.28-7.6-.65-11.39z"/>
<path d="m105.63 84.85 7.38-.42c.06 1.89.23 3.77.33 5.65.11 2.08.16 4.17.34 6.28.01.15-.04.3-.14.41a.5.5 0 0 1-.4.17c-2.08-.01-4.15.11-6.22.36a.5.5 0 0 1-.4-.12.54.54 0 0 1-.19-.37l-.37-5.33-.33-6.63z"/>
<path d="m105.63 84.85 7.38-.42.36 3.15a2.75 2.75 0 0 1-2.59 3.05l-2.23.13a2.8 2.8 0 0 1-2.06-.75 2.72 2.72 0 0 1-.86-2v-3.16z"/>
<path d="M109.58 89.23c-.26.01-.46.26-.44.54.02.28.24.5.5.49.26-.01.46-.26.44-.54-.01-.28-.24-.5-.5-.49zm8.09-4.94-.55-.85-2.83.09-.35 1.06 3.73-.3z"/>
<path d="M113.96 84.69a.2.2 0 0 1 .06-.18.23.23 0 0 1 .18-.08l3.48-.13.5 11.17c-.11.28-1.53.46-2.68.49a.9.9 0 0 1-.92-.88 116.3 116.3 0 0 0-.62-10.39z"/>
</g>
</g></g>
</g>
<g id="WaistDecals" mask="url(#WaistMask)"/>
<g id="Extras_Front">
<g id="Front"><g id="None_Front" class="option"/>
</g>
</g>
<g id="Extras-FrontDecals" mask="url(#FrontMask)"/>
</g>
</svg>