<?xml version='1.0' encoding='UTF-8'?>
<svg version="1.1" id="Male-Body" xmlns="http://www.w3.org/2000/svg" xmlns:serif="http://www.serif.com/" viewBox="0 -55 170 300" style="stroke-width: 0.2px; fill-rule: evenodd; stroke-linejoin: round;" width="170" height="300">
<style>
mask {
mask-type: alpha;
}
.decal {
stroke: none;
}
</style>
<defs id="Masks" stroke="none">
<mask id="HelmetsMask"> <use href="#Helmets"/> </mask>
<mask id="CollarMask"> <use href="#Collar"/> </mask>
<mask id="ShouldersMask"> <use href="#Shoulders"/> </mask>
<mask id="ChestMask"> <use href="#Chest"/> </mask>
<mask id="BicepsMask"> <use href="#Biceps"/> </mask>
<mask id="GauntletsMask"> <use href="#Gauntlets"/> </mask>
<mask id="WaistMask"> <use href="#Waist"/> </mask>
<mask id="GroinMask"> <use href="#Groin"/> </mask>
<mask id="ThighsMask"> <use href="#Thighs"/> </mask>
<mask id="KneesMask"> <use href="#Knees"/> </mask>
<mask id="ShinsMask"> <use href="#Shins"/> </mask>
<mask id="FootMask"> <use href="#Foot"/> </mask>
</defs>
<defs id="Decals"><g serif:id="Heavy Weathering" id="Heavy-Weathering">
</g><g id="Scratches">
</g><path serif:id="Stripe 1" id="Stripe-1"/><g serif:id="Medium Weathering" id="Medium-Weathering">
</g><path serif:id="Square (Hollow)" id="Square--Hollow-"/><path id="Square" d="M3.75 3.75h92.5v92.5H3.75z"/><circle id="Circle" cx="50" cy="50" r="48.32"/><path serif:id="Circle (Hollow)" id="Circle--Hollow-" d="M50 1.67A48.33 48.33 0 1 1 1.67 50 48.36 48.36 0 0 1 50 1.67zm0 7.38C72.6 9.05 90.95 27.4 90.95 50S72.6 90.95 50 90.95 9.05 72.6 9.05 50 27.4 9.05 50 9.05z"/><path serif:id="Stripe 3" id="Stripe-3" d="M34.61 0h30.78v100H34.61zM75.39 0h13.3v100h-13.3zM11.31 0h13.3v100h-13.3z"/><path serif:id="Star (3)" id="Star--3-" d="m50 1.8 12.52 40.97L91.74 74.1 50 64.46 8.26 74.1l29.22-31.33L50 1.8z"/><path serif:id="Triangle (Hollow)" id="Triangle--Hollow-" d="m50 11.16 48.01 77.68H1.99L50 11.16zm0 14.74 34.11 55.19H15.89L50 25.9z"/><path id="Triangle" d="m50 11.16 48.01 77.68H1.99L50 11.16z"/><path serif:id="Stripe 2" id="Stripe-2" d="M22.96 0h30.78v100H22.96zM63.74 0h13.3v100h-13.3z"/><path id="Deathwatch" d="M66.25 98.4a5.6 5.6 0 0 1-1.04-3.21c0-.49-.13-1.03-.25-1.5-.16-.73-.29-1.49-.43-2.25-.14-.79-.28-1.57-.45-2.35l-.06-.25c-.3-1.31-.57-2.44-.47-3.63l.07-1.01c.06-.95.12-1.85.33-2.73.26-.74.29-1.5.32-2.24.01-.32.02-.63.05-.94l.01-.06v-2.6c0-.9-.09-2.2-.49-3.32-.2-.7-.75-1.25-1.15-1.65a1.83 1.83 0 0 0-1.29-.56c-.79 0-1.47.56-1.67 1.38-.12.38-.22.8-.31 1.23-.07.32-.14.64-.24.97-.06.18-.1.44-.14.7-.02.12-.03.25-.07.36-.33.93-.64 1.91-.94 2.88-.3.95-.6 1.91-.93 2.84a8.5 8.5 0 0 1-.42.98l-.34.74-.14.23c-.1.16-.2.33-.26.46-.48 1.2-.9 2.25-1.43 3.31a33.4 33.4 0 0 1-1.49 2.55c-.07.1-.18.16-.34.16-.09 0-.41-.03-.63-.43-.76-1.31-1.53-2.63-2.17-4.02-.34-.67-.6-1.4-.86-2.1l-.21-.58a3.13 3.13 0 0 0-.33-.63c-.08-.13-.17-.27-.19-.35l-.02-.07-.03-.07c-.21-.53-.43-1.17-.64-1.81l-.49-1.68-.49-1.71c-.3-.91-.74-1.77-1.13-2.52l-.4-.79-.24-.16c-.36-.24-.51-.46-.73-.77l-.21-.3-.48-.64-.75.25c-.76.25-1.35.49-2.02.83-.6.3-1.05 1.01-1.05 1.65 0 .7 0 1.31.12 2.06.09.44.18.84.28 1.23.16.65.31 1.27.37 1.9l.01.08.02.08c.03.1.03.34-.11.9-.07.34-.25.77-.41 1.14l-.18.42a4.9 4.9 0 0 0-.44 2.59l.01.42.33 3.63c0 .26.08.58.14.83.04.15.08.31.08.39v.12l.03.12c.2.92.42 1.87.52 2.78l-.17.14-.21.16c-1.04.83-2.12 1.7-3.25 2.17l-.1.04a4.12 4.12 0 0 1-.48-1.33c-.1-1.55-.4-3-.7-4.54l-.08-.42c-.29-1.15-.84-2-1.8-2.83-.8-.71-1.7-1.21-2.57-1.69l-.9-.51a9.32 9.32 0 0 1-2.05-1.76 17.3 17.3 0 0 0-3.24-3.23c-.63-.53-.8-.78-.8-1.24 0-.17 0-.61-.35-1.03a8.35 8.35 0 0 1-.94-2.05c-.2-.56-.41-1.14-.7-1.72l.01-.32-.04-.15-.26-1.04-.1-.44.66.11a22.45 22.45 0 0 0 1.91.26c.92 0 1.45-.38 1.74-.7.29-.32.61-.91.51-1.86-.16-2.07-.95-3.61-2.36-4.55l-.5-.34a4.42 4.42 0 0 1-.55-.4l-.06-.08c.27-.51.63-1.07 1.03-1.56l.28-.37c.19-.24.43-.55.62-.93.52-.83.59-2.17-.79-3.34.56-.89.69-1.92.35-2.96v-.19l-.12-.23c-.44-.88-1.48-1.45-2.63-1.45-.28 0-.56.03-.83.1a2.66 2.66 0 0 0-2.05 2.62c0 .45 0 1.5.66 2.4l-.81.23-1.27.36-.11.01-.05-.18c-.1-.39-.19-.75-.19-1.06 0-1.61 0-3.13.21-4.71.05-.42.13-.81.21-1.2.09-.44.17-.88.23-1.35l.33-2.99c.04-.25.12-.59.2-.92.09-.38.18-.76.23-1.12l.33-2.1c.31-1.32.64-2.76 1.07-4.16l.1-.24-.04-.26c-.19-1.11 0-1.94.21-2.89.04-.15.11-.33.18-.51.1-.26.19-.52.26-.78.35-1.77.71-3.54.47-5.38-.07-.83.1-1.71.27-2.65l.16-.89.02-.09v-.09l.1-.17 1.96-3.92c.25-.4.39-.78.5-1.11l.99-1.91c.5-.99.98-1.93 1.49-2.83l.05-.09.03-.1c.1-.3.18-.52.31-.73.24-.36.45-.75.66-1.14.18-.33.35-.66.55-.96l1.36-2.04.03-.06.15-.2c.1-.13.22-.28.33-.45l.17-.21c.33-.41.59-.74.91-1.06l2.01-2.29c.27.33.5.75.73 1.15l.28.48c.2.31.27.66.36 1.1.05.28.11.56.19.84.2 1.03.42 2.14.65 3.14.3 1.11.27 2.08-.07 3.02l-.32.94a21.93 21.93 0 0 0-1.17 4.37l-.01.07v.07c-.02.01-.06.09-.11.17a3.91 3.91 0 0 0-.2 2.37c.08.41.08.81 0 1.22a4.62 4.62 0 0 0 .74 3.4 3 3 0 0 1 .46 2c-.06.77-.09 1.5-.12 2.23-.03.7-.05 1.41-.11 2.11l-.02.25c-.1 1.02-.21 2.08-.4 3.03-.25 1.11-.14 2.18-.03 3.31l.06 2.41c.03.79.05 1.57.05 2.33 0 .92.49 1.57.88 2.09l.05.06.06.06c.15.15.29.32.44.49.16.19.32.37.48.53a15.64 15.64 0 0 0 6.69 5.27 6.4 6.4 0 0 0 2.39.51c.53 0 1.05-.08 1.58-.24a3.17 3.17 0 0 0 1.73-1.1l1-1 .05-.06a10.22 10.22 0 0 0 1.5-3.32l.19-.79c.31-1.29.63-2.62.63-3.94l.02-1.07c.04-1.35.08-2.75-.4-4.21l.01-.02.02-.19c.15-1.19-.35-2.18-1.48-2.93l-1.23-.91-1.26-.93c-.44-.29-.61-.56-.67-1.04-.09-1.06.05-1.5.64-1.92.68-.51 1.07-1.3 1.46-2.06.76-1.53 1-3.18 1.21-4.64.14-.97.09-1.86.04-2.73-.04-.62-.07-1.2-.03-1.76l.07-1.23c.06-1.13.12-2.3.35-3.36a62.09 62.09 0 0 1 2.92-8.63l.35-.76c.36-.77.72-1.57.99-2.34l.17-.39c.04-.11.08-.22.13-.3.05-.09.09-.12.1-.13.01 0 .08.02.17.13.64.73.88 1.39.75 2.04-.11.77-.19 1.85.29 2.97.32.81.35 1.76.06 2.81-.74 2.7-.58 5.38-.36 7.67 0 .35.12.69.21.96l.06.17c.4.9.5 1.85.6 2.76v.53l-.08.35c-.19.85-.38 1.73-.64 2.51a5.35 5.35 0 0 0 .96 4.79 13.97 13.97 0 0 0 3.33 3.27l-.05.1a4.85 4.85 0 0 1-1.19 1.77 4.34 4.34 0 0 0-1.56 3.44c0 .42-.03.87-.05 1.31-.03.49-.06.98-.06 1.44.08 1.28-.1 2.51-.29 3.81l-.16 1.15.02.14c.1.81.1 1.64.1 2.51v.07l.01.07a3.72 3.72 0 0 0 1.81 2.66 2.67 2.67 0 0 0 2.9.08h.19l.3-.24c.53-.43 1.1-.83 1.66-1.23.6-.43 1.19-.85 1.76-1.31.38-.25.6-.64.76-.92l.13-.21.05-.07.03-.08c.88-1.88.88-3.74.88-5.54 0-1.35-.29-2.52-.58-3.65l-.22-.9c-.04-.21-.06-.45-.09-.69a7.43 7.43 0 0 0-.13-.93c-.09-.54-.09-1.03-.09-1.66l-.01-.31v-.34l.13-.13.09-.16c.16-.31.31-.61.33-.94.07-.49.38-1.01.71-1.56l.26-.43a23 23 0 0 0 2.1-5.35c.13-.63.22-1.23.31-1.83.17-1.11.33-2.17.66-3.17.39-1.41.39-2.72.39-3.99a30 30 0 0 1 .32-4.37 5.6 5.6 0 0 0-.12-2.14l-.15-1.48.72 1.17a100 100 0 0 0 1.43 2.29l.12.16 2.63 5.91c.19.38.24.66.24.77l.01.78c.02.72.04 1.45-.1 2.07l-.02.07-.01.07c-.07.82-.23 1.65-.4 2.53l-.25 1.35-.02.09v5.06c0 .47.11.9.21 1.31.05.2.1.41.14.64l.33 1.42a7.67 7.67 0 0 0 1.29 3.89c.31.39.49.94.67 1.48l.07.22-.05.23c-.82 1.08-.9 2.41-.21 3.78.24.53.39 1.15.55 1.81.14.58.29 1.18.51 1.75.18.45.32.91.47 1.37a9.4 9.4 0 0 0 1.73 3.58c-.2.33-.37.64-.54.95l-.48.85c-.37.62-.45 1.23-.53 1.76l-.06.4a5.29 5.29 0 0 0 1.09 3.82c.49.69.9 1.4 1.33 2.15.29.67.4 1.34.36 2.16-.28.01-.56.04-.93.16l-.23.04c-.4.07-.9.16-1.3.56-.69.69-1.28 1.4-1.88 2.23-1.12 1.39-1.09 2.99-.97 4.37l.02.12c.13.65.37 1.26.61 1.85.48.98.51 1.72.13 2.56a36.7 36.7 0 0 0-2.04 6.01c-.11.37-.35.9-.87 1.25-1.58.97-2.65 2.5-3.67 3.98-.25.3-.42.69-.45 1.09a11.45 11.45 0 0 1-1.51 3.22l-.66 1.13c-.83 1.43-1.68 2.9-2.01 4.64-.14.56-.37 1.16-.61 1.79l-.19.49c-.06-.02-.08-.04-.09-.06"/></defs><metadata><rdf:rdf xmlns:rdf="http://www.w3.org/1999/02/22-rdf-syntax-ns#" xmlns:rdfs="http://www.w3.org/2000/01/rdf-schema#" xmlns:dc="http://purl.org/dc/elements/1.1/"><rdf:description><dc:creator>MandoCreator</dc:creator><dc:publisher>https://www.mandocreator.com</dc:publisher><dc:description>Your Beskar'gam - created by MandoCreator</dc:description><dc:format>image/svg+xml</dc:format><dc:type>Image</dc:type><dc:title>MandoCreator - Ner Berskar'gam</dc:title><dc:date>2022-01-02T16:37:47.661Z</dc:date></rdf:description></rdf:rdf></metadata><g id="Main-Body" fill="white" stroke="black">
<g id="Extras_Back">
<g id="Back"><g id="NO-CAPES_Back" class="option" style="display: inherit;">
</g>
</g>
</g>
<g id="Extras-BackDecals" mask="url(#BackMask)">
</g>
<g id="Suit">
<g id="Neck-Seal">
<path id="Plain-Neck-Seal" class="option" fill="#191919" style="display: inherit;"/></g>
<g id="Flight-Suit" fill="#8F8970">
<g>
</g>
</g>
<g id="Sleeves" class="toggle" fill="#191919">
<g>
</g>
<g>
</g>
</g>
</g>
<g id="Boots">
<g id="Tall_Boots" class="option" style="display: inherit;">
<g id="Bottom_Tall-Boot" fill="#303030">
</g>
<g id="Main_Tall-Boot" fill="#191919">
</g>
</g></g>
<g id="Gloves">
<g id="Left-Glove">
<g id="Fingerless_Left_Glove" class="option" style="display: inherit;">
<g id="Fingers_Fingerless_Left_Glove" fill="#DBBA87">
</g>
<path id="Glove_Fingerless_Left_Glove" fill="#191919"/>
</g></g>
<g id="Right-Glove"><g id="Basic_Right_Glove" class="option" fill="#191919" style="display: inherit;">
</g>
</g>
</g>
<g id="Biceps">
<g id="Left-Biceps">
<g id="None_Biceps_Left" class="option" style="display: inherit;">
</g></g>
<g id="Right-Biceps">
<g id="None_Biceps_Right" class="option" style="display: inherit;">
</g></g>
</g>
<g id="BicepsDecals" mask="url(#BicepsMask)">
</g>
<path id="Vest" fill="#191919"/>
<g id="SuitDecals" mask="url(#SuitMask)">
</g>
<g class="swappable" id="Chest"><g id="Chest_Gunslinger-MK1">
<g id="Abdomen_Gunslinger-MK1">
<path id="Abdomen-Plate_GunslingerK1" fill="#191919"/>
</g>
<g id="Chest-Plates_Gunslinger-MK1">
<g id="Left-Chest_Gunslinger-MK1">
<g id="Bottom_Left-Chest_Gunslinger-MK1" fill="#191919">
</g>
<g id="Top_Left-Chest_Gunslinger-MK1" fill="#A96EBD">
</g>
</g>
<g id="Right-Chest_Gunslinger-MK1">
<g id="Bottom_Right-Chest_Gunslinger-MK1" fill="#191919">
</g>
<g id="Top_Right-Chest_Gunslinger-MK1" fill="#A96EBD">
</g>
</g>
</g>
<g id="Iron-Heart_Gunslinger-MK1">
<path id="Under-Heart_Gunslinger-MK1" fill="#191919"/>
<g id="Heart_Gunslinger-MK1" fill="#DF9530">
</g>
<g id="None_Heart_Gunslinger-MK1" class="option" style="display: inherit;">
</g></g>
</g></g>
<g id="ChestDecals" mask="url(#ChestMask)">
<use class="decal" href="#Medium-Weathering" id="Medium-Weathering__79" transform="translate(93.7405, 46.2158) rotate(106.055) scale(0.183878, 0.164943) translate(-50, -50)" fill="#A3A3A3"/><use class="decal" href="#Medium-Weathering" id="Medium-Weathering__78" transform="translate(79.9052, 35.2493) rotate(27.8869) scale(0.204299, 0.312597) translate(-50, -50)" fill="#A3A3A3"/><use class="decal" href="#Square" id="Square__45" transform="translate(84.4013, 60.2581) rotate(0) scale(0.501452, 0.20245) translate(-50, -50)" fill="#191919"/><use class="decal" href="#Square" id="Square__47" transform="translate(105.887, 58.4228) rotate(-28.8653) scale(0.337416, 0.316652) translate(-50, -50)" fill="#191919"/><use class="decal" href="#Square" id="Square__48" transform="translate(63.0092, 59.3572) rotate(28.1222) scale(0.33534) translate(-50, -50)" fill="#191919"/><use class="decal" href="#Heavy-Weathering" id="Heavy-Weathering__49" transform="translate(67.7965, 26.2294) rotate(67.2354) scale(0.164907, 0.167035) translate(-50, -50)" fill="#B94111"/><use class="decal" href="#Heavy-Weathering" id="Heavy-Weathering__50" transform="translate(64.1792, 23.676) rotate(-92.0673) scale(0.135118, 0.141501) translate(-50, -50)" fill="#B94111"/><use class="decal" href="#Medium-Weathering" id="Medium-Weathering__52" transform="translate(68.754, 27.8252) rotate(-152.001) scale(0.0989444, 0.286194) translate(-50, -50)" fill="#B94111"/><use class="decal" href="#Heavy-Weathering" id="Heavy-Weathering__53" transform="translate(64.2856, 26.3357) rotate(77.7385) scale(0.15861, 0.133054) translate(-50, -50)" fill="#B94111"/><use class="decal" href="#Stripe-2" id="Stripe-2__54" transform="translate(64.392, 22.5056) rotate(27.5503) scale(0.343645) translate(-50, -50)" fill="#F8F2D3"/><use class="decal" href="#Heavy-Weathering" id="Heavy-Weathering__56" transform="translate(105.778, 22.2929) rotate(0) scale(0.15214, 0.147885) translate(-50, -50)" fill="#680A17"/><use class="decal" href="#Heavy-Weathering" id="Heavy-Weathering__57" transform="translate(100.884, 22.3993) rotate(-71.8081) scale(0.151594, 0.138867) translate(-50, -50)" fill="#680A17"/><use class="decal" href="#Heavy-Weathering" id="Heavy-Weathering__58" transform="translate(98.9693, 26.5485) rotate(-169.101) scale(0.186519, 0.185838) translate(-50, -50)" fill="#680A17"/><use class="decal" href="#Heavy-Weathering" id="Heavy-Weathering__59" transform="translate(103.97, 29.6339) rotate(96.3868) scale(0.179189, 0.166491) translate(-50, -50)" fill="#680A17"/><use class="decal" href="#Heavy-Weathering" id="Heavy-Weathering__60" transform="translate(101.948, 27.3997) rotate(-25.5698) scale(0.175546, 0.177674) translate(-50, -50)" fill="#680A17"/><use class="decal" href="#Heavy-Weathering" id="Heavy-Weathering__61" transform="translate(102.267, 26.4421) rotate(56.9355) scale(0.18645, 0.191622) translate(-50, -50)" fill="#680A17"/><use class="decal" href="#Deathwatch" id="Deathwatch__62" transform="translate(102.374, 26.0166) rotate(40.244) scale(0.156344, 0.0980989) translate(-50, -50)" fill="#DF9530"/><use class="decal" href="#Circle" id="Circle__63" transform="translate(100.565, 28.3572) rotate(-48.0547) scale(0.0438233, 0.0714772) translate(-50, -50)" fill="#DF9530"/><use class="decal" href="#Circle" id="Circle__66" transform="translate(98.1418, 26.4767) rotate(-4.59269) scale(0.0149848, 0.0361656) translate(-50, -50)" fill="#DF9530"/><use class="decal" href="#Medium-Weathering" id="Medium-Weathering__67" transform="translate(99.4721, 27.1418) rotate(-85.3043) scale(0.191378, 0.180826) translate(-50, -50)" fill="#680A17"/><use class="decal" href="#Circle--Hollow-" id="Circle--Hollow-__68" transform="translate(102.428, 25.9594) rotate(0) scale(0.155933) translate(-50, -50)" fill="#DF9530"/><use class="decal" href="#Circle--Hollow-" id="Circle--Hollow-__69" transform="translate(102.28, 26.1811) rotate(0) scale(0.218011, 0.213577) translate(-50, -50)" fill="#DF9530"/><use class="decal" href="#Circle--Hollow-" id="Circle--Hollow-__70" transform="translate(102.179, 26.4299) rotate(0) scale(0.288264, 0.281105) translate(-50, -50)" fill="#DF9530"/><use class="decal" href="#Medium-Weathering" id="Medium-Weathering__71" transform="translate(100.327, 23.7778) rotate(-120.595) scale(0.254644, 0.216344) translate(-50, -50)" fill="#680A17"/><use class="decal" href="#Medium-Weathering" id="Medium-Weathering__74" transform="translate(71.7769, 20.1908) rotate(0) scale(0.215404, 0.0190357) translate(-50, -50)" fill="#A3A3A3"/><use class="decal" href="#Medium-Weathering" id="Medium-Weathering__75" transform="translate(97.2247, 20.0907) rotate(89.9211) scale(0.019088, 0.217473) translate(-50, -50)" fill="#A3A3A3"/><use class="decal" href="#Medium-Weathering" id="Medium-Weathering__76" transform="translate(84.7012, 32.6142) rotate(-56.8061) scale(0.0494867, 0.0716692) translate(-50, -50)" fill="#A3A3A3"/><use class="decal" href="#Heavy-Weathering" id="Heavy-Weathering__77" transform="translate(84.8014, 33.2153) rotate(59.0334) scale(0.0535736, 0.0741104) translate(-50, -50)" fill="#A3A3A3"/><use class="decal" href="#Heavy-Weathering" id="Heavy-Weathering__130" transform="translate(98.4518, 31.8336) rotate(-10.5442) scale(0.173361, 0.185671) translate(-50, -50)" fill="#A96EBD"/><use class="decal" href="#Stripe-1" id="Stripe-1__174" transform="translate(84.6636, 19.3001) rotate(0) scale(0.107993, 0.13548) translate(-50, -50)" fill="#191919"/><use class="decal" href="#Stripe-1" id="Stripe-1__175" transform="translate(84.6841, 47.3972) rotate(0) scale(0.0940934, 0.151368) translate(-50, -50)" fill="#191919"/><use class="decal" href="#Stripe-1" id="Stripe-1__176" transform="translate(82.3947, 27.5061) rotate(26.4744) scale(0.0330054, 0.10487) translate(-50, -50)" fill="#191919"/><use class="decal" href="#Stripe-1" id="Stripe-1__177" transform="translate(86.2379, 26.6967) rotate(-28.136) scale(0.029163, 0.140539) translate(-50, -50)" fill="#191919"/><use class="decal" href="#Stripe-1" id="Stripe-1__178" transform="translate(86.5646, 38.7177) rotate(25.5926) scale(0.0293555, 0.0725889) translate(-50, -50)" fill="#191919"/></g>
<g id="Chest-Attachments"><g id="No-Device_Accessories_Chest" class="option" style="display: inherit;">
</g>
</g>
<g id="Collar"><g id="None_Collar" class="option" style="display: inherit;">
</g>
</g>
<g id="CollarDecals" mask="url(#CollarMask)">
</g>
<g id="Helmets" class="swappable" transform="translate(45,-52)"><g id="Helmet_Nite">
<g id="Left-Earcap_Nite" class="toggle"><g id="Ear-Cap_Left_Nite" fill="#DF9530">
</g>
</g>
<g id="Right-Earcap_Nite" class="toggle"><g id="Range-Finder_Right_Nite" class="option" style="display: inherit;">
<path id="Shaft_Right_Range-Finder_Nite" fill="#A3A3A3"/>
<path id="Finder_Right_Range-Finder_Nite" fill="#A3A3A3"/>
<g id="Cover_Right_Range-Finder_Nite" fill="#680A17">
</g>
</g>
<g id="Ear-Cap_Right_Nite" fill="#DF9530">
</g>
</g>
<g id="Helmet_Pieces_Nite">
<g id="Face_Nite" fill="#D4C8D8">
</g>
<g id="Cheeks_Nite" fill="#737075">
</g>
<path fill="#000000" id="Visor_Nite"/>
<path id="Eyes_Nite" fill="#680A17"/>
<path id="Dome_Nite" fill="#EBCC2B"/>
</g>
</g></g>
<g id="HelmetsDecals" mask="url(#HelmetsMask)"><use class="decal" href="#Stripe-1" id="Stripe-1__72" transform="translate(84.479, -15.5795) rotate(89.556) scale(0.0465931, 0.351044) translate(-50, -50)" fill="#EBCC2B"/><use class="decal" href="#Heavy-Weathering" id="Heavy-Weathering__73" transform="translate(69.6236, -45.4693) rotate(-71.3535) scale(0.105334, 0.144953) translate(-50, -50)" fill="#3D2F31"/><use class="decal" href="#Square" id="Square__162" transform="translate(100.03, -17.2795) rotate(-6.19267) scale(0.0423487, 0.135098) translate(-50, -50)" fill="#EBCC2B"/><use class="decal" href="#Triangle" id="Triangle__164" transform="translate(100.731, -10.8674) rotate(79.3909) scale(0.032139, 0.0518923) translate(-50, -50)" fill="#EBCC2B"/><use class="decal" href="#Stripe-1" id="Stripe-1__165" transform="translate(94.0815, -20.5942) rotate(-73.3874) scale(0.0601949, 0.0478389) translate(-50, -50)" fill="#EBCC2B"/><use class="decal" href="#Triangle" id="Triangle__167" transform="translate(68.6711, -10.9676) rotate(-84.2398) scale(0.0478056, 0.0625663) translate(-50, -50)" fill="#EBCC2B"/><use class="decal" href="#Stripe-1" id="Stripe-1__168" transform="translate(85.2021, -15.2757) rotate(90.4335) scale(0.0837958, 0.2828) translate(-50, -50)" fill="#EBCC2B"/><use class="decal" href="#Triangle" id="Triangle__169" transform="translate(84.5008, -13.0716) rotate(-179.55) scale(0.157601, 0.106485) translate(-50, -50)" fill="#EBCC2B"/><use class="decal" href="#Stripe-1" id="Stripe-1__170" transform="translate(90.3117, -15.1755) rotate(71.4447) scale(0.123922, 0.125967) translate(-50, -50)" fill="#EBCC2B"/><use class="decal" href="#Stripe-1" id="Stripe-1__171" transform="translate(78.7901, -15.0753) rotate(-73.6211) scale(0.0962976, 0.139272) translate(-50, -50)" fill="#EBCC2B"/><use class="decal" href="#Triangle" id="Triangle__172" transform="translate(84.5008, -21.9883) rotate(179.761) scale(0.411206, 0.298686) translate(-50, -50)" fill="#A96EBD"/><use class="decal" href="#Circle" id="Circle__175" transform="translate(92.6923, -19.8081) rotate(31.4744) scale(0.0600312, 0.146717) translate(-50, -50)" fill="#EBCC2B"/><use class="decal" href="#Circle" id="Circle__176" transform="translate(76.1239, -19.4417) rotate(-31.979) scale(0.0701869, 0.146049) translate(-50, -50)" fill="#EBCC2B"/><use class="decal" href="#Stripe-1" id="Stripe-1__179" transform="translate(103.306, -39.4872) rotate(10.8686) scale(0.323607) translate(-50, -50)" fill="#EBCC2B"/><use class="decal" href="#Stripe-1" id="Stripe-1__180" transform="translate(71.3762, -27.9996) rotate(-6.22653) scale(0.141265, 0.131246) translate(-50, -50)" fill="#EBCC2B"/><use class="decal" href="#Triangle" id="Triangle__143" transform="translate(73.6383, -18.5501) rotate(4.19354) scale(0.117003, 0.125185) translate(-50, -50)" fill="#680A17"/><use class="decal" href="#Triangle" id="Triangle__144" transform="translate(95.4026, -18.4683) rotate(-2.91145) scale(0.121568, 0.12595) translate(-50, -50)" fill="#680A17"/><use class="decal" href="#Circle" id="Circle__145" transform="translate(92.5388, -18.3046) rotate(24.7529) scale(0.033692, 0.117798) translate(-50, -50)" fill="#680A17"/><use class="decal" href="#Circle" id="Circle__146" transform="translate(76.6657, -18.3864) rotate(-24.6337) scale(0.0283498, 0.119211) translate(-50, -50)" fill="#680A17"/><use class="decal" href="#Circle" id="Circle__148" transform="translate(71.2655, -19.041) rotate(32.1254) scale(0.0730667, 0.121332) translate(-50, -50)" fill="#680A17"/><use class="decal" href="#Circle" id="Circle__149" transform="translate(97.7754, -18.5501) rotate(-34.7839) scale(0.0712992, 0.127535) translate(-50, -50)" fill="#680A17"/><use class="decal" href="#Circle" id="Circle__154" transform="translate(96.3026, -15.2773) rotate(0) scale(0.0580925) translate(-50, -50)" fill="#EBCC2B"/><use class="decal" href="#Circle" id="Circle__155" transform="translate(72.8814, -15.506) rotate(0) scale(0.058098, 0.0556258) translate(-50, -50)" fill="#680A17"/><use class="decal" href="#Circle" id="Circle__50" transform="translate(92.2934, -11.4317) rotate(-15.3327) scale(0.134572, 0.0442473) translate(-50, -50)" fill="#000000"/><use class="decal" href="#Circle" id="Circle__152" transform="translate(76.4202, -11.6772) rotate(15.4512) scale(0.130094, 0.0417284) translate(-50, -50)" fill="#000000"/><use class="decal" href="#Circle" id="Circle__156" transform="translate(96.2927, -15.491) rotate(0) scale(0.0236174) translate(-50, -50)" fill="#FF0000"/><use class="decal" href="#Circle" id="Circle__157" transform="translate(72.8563, -15.4564) rotate(0) scale(0.0227413) translate(-50, -50)" fill="#FF0000"/><use class="decal" href="#Stripe-1" id="Stripe-1__158" transform="translate(69.6557, -14.5299) rotate(14.2727) scale(0.0567241, 0.059351) translate(-50, -50)" fill="#EBCC2B"/><use class="decal" href="#Stripe-1" id="Stripe-1__159" transform="translate(71.5929, -18.657) rotate(42.176) scale(0.0564272, 0.0450714) translate(-50, -50)" fill="#EBCC2B"/><use class="decal" href="#Stripe-1" id="Stripe-1__160" transform="translate(75.2989, -21.0153) rotate(67.0476) scale(0.0595973, 0.0550775) translate(-50, -50)" fill="#EBCC2B"/><use class="decal" href="#Stripe-1" id="Stripe-1__161" transform="translate(68.5607, -18.657) rotate(-58.4081) scale(0.0594628, 0.0374432) translate(-50, -50)" fill="#EBCC2B"/><use class="decal" href="#Stripe-1" id="Stripe-1__162" transform="translate(71.5929, -22.6999) rotate(-35.4411) scale(0.0682238, 0.0631702) translate(-50, -50)" fill="#EBCC2B"/><use class="decal" href="#Stripe-1" id="Stripe-1__163" transform="translate(99.472, -15.709) rotate(-11.7555) scale(0.0584437, 0.0460217) translate(-50, -50)" fill="#EBCC2B"/><use class="decal" href="#Stripe-1" id="Stripe-1__164" transform="translate(97.5348, -18.7412) rotate(-51.4096) scale(0.0659452, 0.0442623) translate(-50, -50)" fill="#EBCC2B"/><use class="decal" href="#Triangle" id="Triangle__163" transform="translate(99.4288, -13.0716) rotate(70.4106) scale(0.0406866, 0.0617751) translate(-50, -50)" fill="#000000"/><use class="decal" href="#Triangle" id="Triangle__166" transform="translate(70.0737, -13.1718) rotate(-68.8884) scale(0.045609, 0.0679937) translate(-50, -50)" fill="#000000"/><use class="decal" href="#Stripe-1" id="Stripe-1__181" transform="translate(66.7675, -30.0034) rotate(3.58763) scale(0.0530997, 0.239449) translate(-50, -50)" fill="#A3A3A3"/><use class="decal" href="#Stripe-1" id="Stripe-1__166" transform="translate(98.0401, -23.3737) rotate(30.0943) scale(0.0724409, 0.0768531) translate(-50, -50)" fill="#EBCC2B"/><use class="decal" href="#Stripe-1" id="Stripe-1__167" transform="translate(101.325, -18.657) rotate(52.2946) scale(0.0744422, 0.0524411) translate(-50, -50)" fill="#EBCC2B"/></g>
<g id="Shoulders">
<g id="Left-Shoulder"><g id="Gunslinger-Bell_Shoulder_Left" class="option" style="display: inherit;">
<path id="Main_Gunslinger-Bell_Shoulder_Left" fill="#DF9530"/>
<path id="Ridge_Gunslinger-Bell_Shoulder_Left" class="toggle" style="display: none;"/>
<g id="Trim_Gunslinger-Bell_Shoulder_Left" class="toggle" style="display: none;"/>
</g></g>
<g id="Right-Shoulder"><g id="Gunslinger-Bell_Shoulder_Right" class="option" style="display: inherit;">
<path id="Main_Gunslinger-Bell_Shoulder_Right"/>
<path id="Ridge_Gunslinger-Bell_Shoulder_Right" class="toggle" style="display: none;"/>
<g id="Trim_Gunslinger-Bell_Shoulder_Right" class="toggle" style="display: none;"/>
</g></g>
</g>
<g id="ShouldersDecals" mask="url(#ShouldersMask)">
<use class="decal" href="#Stripe-1" id="Stripe-1__24" transform="translate(46.4654, 40.8388) rotate(-68.291) scale(0.147685, 0.221891) translate(-50, -50)" fill="#000000"/><use class="decal" href="#Stripe-1" id="Stripe-1__25" transform="translate(50.1425, 32.2812) rotate(-68.6721) scale(0.161124, 0.231993) translate(-50, -50)" fill="#000000"/><use class="decal" href="#Stripe-1" id="Stripe-1__26" transform="translate(53.4185, 23.3892) rotate(-68.5489) scale(0.158098, 0.211662) translate(-50, -50)" fill="#000000"/><use class="decal" href="#Stripe-1" id="Stripe-1__27" transform="translate(58.8338, 14.0293) rotate(-69.6516) scale(0.215947) translate(-50, -50)" fill="#000000"/><use class="decal" href="#Stripe-1" id="Stripe-1__28" transform="translate(55.5579, 28.8715) rotate(21.7744) scale(0.173864, 0.37014) translate(-50, -50)"/><use class="decal" href="#Stripe-1" id="Stripe-1__29" transform="translate(45.1282, 27.1332) rotate(22.2555) scale(0.175552, 0.357962) translate(-50, -50)"/><use class="decal" href="#Square" id="Square__30" transform="translate(55.0899, 29.4063) rotate(22.0727) scale(0.060135, 0.0512997) translate(-50, -50)" fill="#000000"/><use class="decal" href="#Square" id="Square__32" transform="translate(58.5664, 20.5144) rotate(21.0683) scale(0.0583807, 0.055376) translate(-50, -50)" fill="#000000"/><use class="decal" href="#Square" id="Square__34" transform="translate(51.5465, 38.2983) rotate(21.6055) scale(0.0611703, 0.0571773) translate(-50, -50)" fill="#000000"/><use class="decal" href="#Square" id="Square__35" transform="translate(41.7854, 34.4206) rotate(20.7551) scale(0.0593887, 0.0524856) translate(-50, -50)" fill="#000000"/><use class="decal" href="#Square" id="Square__36" transform="translate(45.3957, 25.5955) rotate(20.9834) scale(0.0609689, 0.0547129) translate(-50, -50)" fill="#000000"/><use class="decal" href="#Square" id="Square__37" transform="translate(48.8053, 16.9041) rotate(20.1718) scale(0.064436, 0.0539898) translate(-50, -50)" fill="#000000"/><use class="decal" href="#Circle" id="Circle__39" transform="translate(45.5294, 24.8601) rotate(27.214) scale(0.208845, 0.272733) translate(-50, -50)" fill="#DF9530"/><use class="decal" href="#Circle--Hollow-" id="Circle--Hollow-__40" transform="translate(46.8354, 26.0635) rotate(33.6722) scale(0.195695, 0.281118) translate(-50, -50)" fill="#680A17"/><use class="decal" href="#Stripe-1" id="Stripe-1__41" transform="translate(42.9888, 17.2384) rotate(112.617) scale(0.129033, 0.18653) translate(-50, -50)" fill="#680A17"/><use class="decal" href="#Stripe-1" id="Stripe-1__42" transform="translate(39.7128, 23.5898) rotate(-67.2726) scale(0.128013, 0.196058) translate(-50, -50)" fill="#680A17"/><use class="decal" href="#Stripe-1" id="Stripe-1__43" transform="translate(45.6631, 30.2755) rotate(21.7897) scale(0.1304, 0.0834539) translate(-50, -50)" fill="#680A17"/><use class="decal" href="#Stripe-1" id="Stripe-1__44" transform="translate(37.1054, 30.2755) rotate(-67.7604) scale(0.125727, 0.194638) translate(-50, -50)" fill="#680A17"/><use class="decal" href="#Circle" id="Circle__131" transform="translate(122.456, 23.2168) rotate(-27.8898) scale(0.204135, 0.325181) translate(-50, -50)" fill="#680A17"/><use class="decal" href="#Circle" id="Circle__132" transform="translate(123.481, 23.0116) rotate(-28.8098) scale(0.199292, 0.306219) translate(-50, -50)" fill="#CEE263"/><use class="decal" href="#Circle" id="Circle__146" transform="translate(124.918, 22.8065) rotate(-32.8724) scale(0.117968, 0.161052) translate(-50, -50)" fill="#680A17"/><use class="decal" href="#Circle" id="Circle__147" transform="translate(125.43, 22.4987) rotate(-33.6275) scale(0.118579, 0.152455) translate(-50, -50)" fill="#C3E3FF"/><use class="decal" href="#Circle--Hollow-" id="Circle--Hollow-__148" transform="translate(122.558, 19.6265) rotate(-41.7368) scale(0.0892451, 0.0748839) translate(-50, -50)" fill="#680A17"/><use class="decal" href="#Stripe-3" id="Stripe-3__149" transform="translate(118.147, 22.9091) rotate(76.9992) scale(0.0309786, 0.0191223) translate(-50, -50)" fill="#680A17"/><use class="decal" href="#Circle" id="Circle__150" transform="translate(122.045, 21.3703) rotate(0) scale(0.0543677, 0.0338516) translate(-50, -50)" fill="#FFFFFF"/><use class="decal" href="#Circle" id="Circle__151" transform="translate(125.02, 18.8058) rotate(-78.8998) scale(0.0569257, 0.0392011) translate(-50, -50)"/><use class="decal" href="#Circle--Hollow-" id="Circle--Hollow-__152" transform="translate(121.943, 21.4729) rotate(0) scale(0.0235935, 0.0153871) translate(-50, -50)" fill="#680A17"/><use class="decal" href="#Star--3-" id="Star--3-__153" transform="translate(123.789, 31.2181) rotate(14.9723) scale(0.0297484, 0.0502645) translate(-50, -50)" fill="#680A17"/><use class="decal" href="#Star--3-" id="Star--3-__154" transform="translate(126.251, 31.4232) rotate(0) scale(0.0256452, 0.0379548) translate(-50, -50)" fill="#680A17"/><use class="decal" href="#Circle" id="Circle__155" transform="translate(130.56, 32.6542) rotate(0) scale(0.0564193, 0.0605226) translate(-50, -50)" fill="#680A17"/><use class="decal" href="#Circle--Hollow-" id="Circle--Hollow-__157" transform="translate(131.38, 32.6542) rotate(0) scale(0.0646258, 0.0564193) translate(-50, -50)" fill="#C3E3FF"/><use class="decal" href="#Circle--Hollow-" id="Circle--Hollow-__158" transform="translate(130.765, 32.6542) rotate(0) scale(0.0318) translate(-50, -50)" fill="#C3E3FF"/><use class="decal" href="#Triangle--Hollow-" id="Triangle--Hollow-__159" transform="translate(124.2, 21.1652) rotate(137.689) scale(0.0117036, 0.0298616) translate(-50, -50)" fill="#680A17"/><use class="decal" href="#Scratches" id="Scratches__168" transform="translate(47.7567, 37.2697) rotate(23.6279) scale(0.27748, 0.168888) translate(-50, -50)" fill="#A3A3A3"/><use class="decal" href="#Scratches" id="Scratches__169" transform="translate(54.1579, 21.0981) rotate(-158.837) scale(0.257562, 0.243317) translate(-50, -50)" fill="#A3A3A3"/><use class="decal" href="#Scratches" id="Scratches__170" transform="translate(118.953, 17.2843) rotate(-80.3815) scale(0.125106, 0.223232) translate(-50, -50)" fill="#DF9530"/><use class="decal" href="#Scratches" id="Scratches__171" transform="translate(120.837, 32.6754) rotate(89.7001) scale(0.246899, 0.170846) translate(-50, -50)" fill="#DF9530"/><use class="decal" href="#Scratches" id="Scratches__172" transform="translate(120.941, 41.9154) rotate(-77.5509) scale(0.138928, 0.211146) translate(-50, -50)" fill="#A3A3A3"/><use class="decal" href="#Scratches" id="Scratches__173" transform="translate(108.067, 26.55) rotate(170.285) scale(0.134272, 0.303432) translate(-50, -50)" fill="#A3A3A3"/></g>
<g id="Gauntlets">
<g id="Left-Gauntlets"><g id="Gunslinger_Gauntlet_Left" class="option" style="display: inherit;">
<g id="Accent-Top_Gunslinger_Gauntlet_Left" fill="#737075">
</g>
<path id="Top_Gunslinger_Gauntlet_Left" fill="#827F83"/>
<g id="Accent-Bottom_Gunslinger_Gauntlet_Left" fill="#827F83">
</g>
<path id="Bottom_Gunslinger_Gauntlet_Left" fill="#737075"/><g id="No-Device_Attachment_Gunslinger_Gauntlet_Left" class="option" style="display: inherit;">
</g>
</g></g>
<g id="Right-Gauntlets"><g id="Gunslinger_Gauntlet_Right" class="option" style="display: inherit;">
<g id="Accent-Top_Gunslinger_Gauntlet_Right" fill="#737075">
</g>
<path id="Top_Gunslinger_Gauntlet_Right" fill="#827F83"/>
<g id="Accent-Bottom_Gunslinger_Gauntlet_Right" fill="#827F83">
</g>
<path id="Bottom_Gunslinger_Gauntlet_Right" fill="#737075"/><g id="No-Device_Attachment_Gunslinger_Gauntlet_Right" class="option" style="display: inherit;">
</g>
</g></g>
</g>
<g id="GauntletsDecals" mask="url(#GauntletsMask)">
<use class="decal" href="#Square--Hollow-" id="Square--Hollow-__133" transform="translate(40.186, 83.9445) rotate(-39.0032) scale(0.334328, 0.34113) translate(-50, -50)" fill="#CEE263"/><use class="decal" href="#Square--Hollow-" id="Square--Hollow-__134" transform="translate(41.6221, 77.9949) rotate(-37.5431) scale(0.331335) translate(-50, -50)" fill="#CEE263"/><use class="decal" href="#Square--Hollow-" id="Square--Hollow-__135" transform="translate(42.8531, 71.4297) rotate(-36.5578) scale(0.331335) translate(-50, -50)" fill="#CEE263"/><use class="decal" href="#Square--Hollow-" id="Square--Hollow-__136" transform="translate(128.508, 84.56) rotate(38.7173) scale(0.331335) translate(-50, -50)" fill="#CEE263"/><use class="decal" href="#Square--Hollow-" id="Square--Hollow-__137" transform="translate(127.892, 77.6871) rotate(39.589) scale(0.331335) translate(-50, -50)" fill="#CEE263"/><use class="decal" href="#Square--Hollow-" id="Square--Hollow-__138" transform="translate(126.559, 71.1219) rotate(37.774) scale(0.331335) translate(-50, -50)" fill="#CEE263"/><use class="decal" href="#Stripe-1" id="Stripe-1__139" transform="translate(136.407, 85.4832) rotate(-0.940228) scale(0.0873986, 0.242747) translate(-50, -50)" fill="#CEE263"/><use class="decal" href="#Stripe-1" id="Stripe-1__140" transform="translate(123.276, 90.4071) rotate(-13.7476) scale(0.0918997, 0.195458) translate(-50, -50)" fill="#CEE263"/><use class="decal" href="#Stripe-1" id="Stripe-1__141" transform="translate(32.9027, 85.9961) rotate(0) scale(0.0871935, 0.2226) translate(-50, -50)" fill="#CEE263"/><use class="decal" href="#Stripe-1" id="Stripe-1__142" transform="translate(46.8537, 86.9194) rotate(12.9118) scale(0.0892451, 0.269787) translate(-50, -50)" fill="#CEE263"/><use class="decal" href="#Scratches" id="Scratches__143" transform="translate(41.0066, 93.2794) rotate(4.40644) scale(0.2618, 0.294504) translate(-50, -50)" fill="#838383"/><use class="decal" href="#Scratches" id="Scratches__144" transform="translate(129.431, 93.6897) rotate(85.8052) scale(0.287262, 0.187847) translate(-50, -50)" fill="#838383"/></g>
<g id="Shins">
<g id="Left-Shin"><g id="Heavy-Shnees_Shin_Left" class="option" style="display: inherit;">
<g id="Shin_Heavy-Shnees-Shin_Left" fill="#DF9530">
</g>
<g id="Knee_Heavy-Shnees-Shin_Left" fill="#DF9530">
</g>
<g id="Straps_Heavy-Shnees-Shin_Left" class="toggle" style="display: none;" fill="#A3A3A3"/>
</g></g>
<g id="Right-Shin"><g id="Heavy-Shnees_Shin_Right" class="option" style="display: inherit;">
<g id="Shin_Heavy-Shnees-Shin_Right" fill="#DF9530">
</g>
<g id="Knee_Heavy-Shnees-Shin_Right" fill="#DF9530">
</g>
<g id="Straps_Heavy-Shnees-Shin_Right" class="toggle" style="display: none;" fill="#A3A3A3"/>
</g></g>
</g>
<g id="ShinsDecals" mask="url(#ShinsMask)">
<use class="decal" href="#Heavy-Weathering" id="Heavy-Weathering__88" transform="translate(58.3479, 175.058) rotate(90.0223) scale(0.166706, 0.176138) translate(-50, -50)" fill="#A3A3A3"/><use class="decal" href="#Heavy-Weathering" id="Heavy-Weathering__89" transform="translate(52.8887, 158.609) rotate(-78.5578) scale(0.218806, 0.158158) translate(-50, -50)" fill="#A3A3A3"/><use class="decal" href="#Stripe-1" id="Stripe-1__91" transform="translate(53.7266, 165.496) rotate(7.98472) scale(0.0912968, 0.257477) translate(-50, -50)" fill="#F8F2D3"/><use class="decal" href="#Stripe-1" id="Stripe-1__92" transform="translate(60.7021, 164.47) rotate(9.97284) scale(0.0892089, 0.289759) translate(-50, -50)" fill="#F8F2D3"/><use class="decal" href="#Medium-Weathering" id="Medium-Weathering__93" transform="translate(57.2144, 163.957) rotate(6.11821) scale(0.115424, 0.303658) translate(-50, -50)" fill="#DF9530"/><use class="decal" href="#Scratches" id="Scratches__94" transform="translate(108.607, 166.112) rotate(48.7425) scale(0.208752, 0.227905) translate(-50, -50)" fill="#A3A3A3"/><use class="decal" href="#Medium-Weathering" id="Medium-Weathering__95" transform="translate(103.581, 162.521) rotate(8.27499) scale(0.182748, 0.252135) translate(-50, -50)" fill="#A3A3A3"/><use class="decal" href="#Heavy-Weathering" id="Heavy-Weathering__96" transform="translate(119.378, 173.497) rotate(-106.094) scale(0.182469, 0.165371) translate(-50, -50)" fill="#A3A3A3"/><use class="decal" href="#Heavy-Weathering" id="Heavy-Weathering__97" transform="translate(73.935, 167.24) rotate(-107.444) scale(0.237442, 0.126487) translate(-50, -50)" fill="#A96EBD"/><use class="decal" href="#Heavy-Weathering" id="Heavy-Weathering__98" transform="translate(69.7292, 175.857) rotate(-116.803) scale(0.161052, 0.165155) translate(-50, -50)" fill="#A96EBD"/><use class="decal" href="#Heavy-Weathering" id="Heavy-Weathering__99" transform="translate(65.7285, 184.986) rotate(-85.6535) scale(0.27821, 0.209019) translate(-50, -50)" fill="#A96EBD"/><use class="decal" href="#Heavy-Weathering" id="Heavy-Weathering__100" transform="translate(57.3169, 184.884) rotate(-83.9931) scale(0.122121, 0.400802) translate(-50, -50)" fill="#A96EBD"/><use class="decal" href="#Heavy-Weathering" id="Heavy-Weathering__101" transform="translate(58.5479, 195.552) rotate(3.44868) scale(0.192439, 0.33527) translate(-50, -50)" fill="#A96EBD"/><use class="decal" href="#Heavy-Weathering" id="Heavy-Weathering__102" transform="translate(62.446, 197.296) rotate(58.0513) scale(0.2065, 0.210596) translate(-50, -50)" fill="#A96EBD"/><use class="decal" href="#Heavy-Weathering" id="Heavy-Weathering__104" transform="translate(67.4724, 174.728) rotate(-144.154) scale(0.0745364, 0.305579) translate(-50, -50)" fill="#A96EBD"/><use class="decal" href="#Heavy-Weathering" id="Heavy-Weathering__105" transform="translate(45.315, 200.989) rotate(35.5144) scale(0.331335) translate(-50, -50)" fill="#A96EBD"/><use class="decal" href="#Heavy-Weathering" id="Heavy-Weathering__106" transform="translate(49.5208, 194.937) rotate(9.72632) scale(0.331335) translate(-50, -50)" fill="#A96EBD"/><use class="decal" href="#Heavy-Weathering" id="Heavy-Weathering__107" transform="translate(47.1614, 175.754) rotate(-1.27622) scale(0.0457528, 0.200069) translate(-50, -50)" fill="#A96EBD"/><use class="decal" href="#Heavy-Weathering" id="Heavy-Weathering__108" transform="translate(53.7266, 182.012) rotate(4.29957) scale(0.226612, 0.0722124) translate(-50, -50)" fill="#A96EBD"/><use class="decal" href="#Heavy-Weathering" id="Heavy-Weathering__109" transform="translate(57.3169, 200.784) rotate(144.867) scale(0.35982, 0.342984) translate(-50, -50)" fill="#A96EBD"/><use class="decal" href="#Heavy-Weathering" id="Heavy-Weathering__110" transform="translate(53.7266, 218.428) rotate(-44.2475) scale(0.331335) translate(-50, -50)" fill="#A96EBD"/><use class="decal" href="#Scratches" id="Scratches__111" transform="translate(55.6756, 197.912) rotate(7.13328) scale(0.22955, 0.383659) translate(-50, -50)" fill="#DF9530"/><use class="decal" href="#Heavy-Weathering" id="Heavy-Weathering__113" transform="translate(109.736, 208.99) rotate(3.25933) scale(0.331335) translate(-50, -50)" fill="#A96EBD"/><use class="decal" href="#Heavy-Weathering" id="Heavy-Weathering__114" transform="translate(111.582, 220.172) rotate(51.3582) scale(0.331335) translate(-50, -50)" fill="#A96EBD"/><use class="decal" href="#Heavy-Weathering" id="Heavy-Weathering__115" transform="translate(124.302, 211.145) rotate(-121.849) scale(0.331335) translate(-50, -50)" fill="#A96EBD"/><use class="decal" href="#Heavy-Weathering" id="Heavy-Weathering__116" transform="translate(119.686, 199.04) rotate(125.028) scale(0.331335) translate(-50, -50)" fill="#A96EBD"/><use class="decal" href="#Heavy-Weathering" id="Heavy-Weathering__117" transform="translate(103.786, 210.939) rotate(12.1204) scale(0.331335) translate(-50, -50)" fill="#DF9530"/><use class="decal" href="#Heavy-Weathering" id="Heavy-Weathering__118" transform="translate(115.172, 195.347) rotate(-39.4123) scale(0.331335) translate(-50, -50)" fill="#A96EBD"/><use class="decal" href="#Heavy-Weathering" id="Heavy-Weathering__119" transform="translate(99.2724, 187.243) rotate(38.7379) scale(0.373192, 0.248409) translate(-50, -50)" fill="#A96EBD"/><use class="decal" href="#Heavy-Weathering" id="Heavy-Weathering__120" transform="translate(122.866, 184.679) rotate(-166.221) scale(0.108991, 0.359785) translate(-50, -50)" fill="#A96EBD"/><use class="decal" href="#Heavy-Weathering" id="Heavy-Weathering__121" transform="translate(114.66, 199.963) rotate(-32.3485) scale(0.163103, 0.343645) translate(-50, -50)" fill="#A96EBD"/><use class="decal" href="#Heavy-Weathering" id="Heavy-Weathering__122" transform="translate(109.325, 188.577) rotate(-10.4796) scale(0.518419, 0.202615) translate(-50, -50)" fill="#A96EBD"/><use class="decal" href="#Heavy-Weathering" id="Heavy-Weathering__123" transform="translate(101.632, 178.011) rotate(142.562) scale(0.116111, 0.363966) translate(-50, -50)" fill="#A96EBD"/><use class="decal" href="#Heavy-Weathering" id="Heavy-Weathering__124" transform="translate(122.045, 178.626) rotate(104.457) scale(0.353903, 0.0707806) translate(-50, -50)" fill="#A96EBD"/><use class="decal" href="#Heavy-Weathering" id="Heavy-Weathering__125" transform="translate(114.249, 185.499) rotate(-5.2425) scale(0.343038, 0.143217) translate(-50, -50)" fill="#A96EBD"/><use class="decal" href="#Medium-Weathering" id="Medium-Weathering__126" transform="translate(116.198, 181.396) rotate(-5.71414) scale(0.135534, 0.0636623) translate(-50, -50)" fill="#A96EBD"/><use class="decal" href="#Heavy-Weathering" id="Heavy-Weathering__128" transform="translate(68.4982, 187.243) rotate(-103.814) scale(0.224655, 0.168414) translate(-50, -50)" fill="#A96EBD"/><use class="decal" href="#Heavy-Weathering" id="Heavy-Weathering__129" transform="translate(97.1182, 170.317) rotate(-1.12509) scale(0.107524, 0.270189) translate(-50, -50)" fill="#A96EBD"/><use class="decal" href="#Heavy-Weathering" id="Heavy-Weathering__180" transform="translate(116.843, 202.733) rotate(-24.6118) scale(0.647258, 0.60112) translate(-50, -50)" fill="#A96EBD"/><use class="decal" href="#Scratches" id="Scratches__127" transform="translate(113.634, 201.194) rotate(84.5741) scale(0.452106, 0.237869) translate(-50, -50)" fill="#DF9530"/></g>
<g id="Foot">
<g id="Left-Ankle"><g id="Heavy_Ankle_Left" class="option" style="display: inherit;">
<path id="Plate_Heavy-Ankle_Left" fill="#A96EBD"/>
<path id="Trim_Heavy-Ankle_Left" fill="#DF9530"/>
</g></g>
<g id="Left-Toe"><g id="None_Toe_Left" class="option" style="display: inherit;">
</g>
</g>
<g id="Right-Ankle"><g id="Heavy_Ankle_Right" class="option" style="display: inherit;">
<path id="Plate_Heavy-Ankle_Right" fill="#A96EBD"/>
<path id="Trim_Heavy-Ankle_Right" fill="#DF9530"/>
</g></g>
<g id="Right-Toe"><g id="None_Toe_Right" class="option" style="display: inherit;">
</g>
</g>
</g>
<g id="FootDecals" mask="url(#FootMask)">
<use class="decal" href="#Heavy-Weathering" id="Heavy-Weathering__82" transform="translate(120.71, 221.69) rotate(81.1359) scale(0.302768, 0.20733) translate(-50, -50)" fill="#DF9530"/><use class="decal" href="#Heavy-Weathering" id="Heavy-Weathering__83" transform="translate(121.704, 221.974) rotate(22.6681) scale(0.151942, 0.154782) translate(-50, -50)" fill="#DF9530"/><use class="decal" href="#Heavy-Weathering" id="Heavy-Weathering__84" transform="translate(50.8456, 231.772) rotate(34.2103) scale(0.201668, 0.222087) translate(-50, -50)" fill="#DF9530"/><use class="decal" href="#Heavy-Weathering" id="Heavy-Weathering__85" transform="translate(45.5915, 227.654) rotate(-148.163) scale(0.154782, 0.163302) translate(-50, -50)" fill="#A3A3A3"/><use class="decal" href="#Scratches" id="Scratches__86" transform="translate(107.646, 224.956) rotate(0) scale(0.458666) translate(-50, -50)" fill="#A3A3A3"/></g>
<g id="Knees">
<g id="Left-Knee">
<g id="None-(Nih-Plates)_Knee_Left" class="option" style="display: inherit;">
</g></g>
<g id="Right-Knee">
<g id="None-(Nih-Plates)_Knee_Right" class="option" style="display: inherit;">
</g></g>
</g>
<g id="KneesDecals" mask="url(#KneesMask)">
</g>
<g id="Thighs">
<g id="Left-Thigh">
<g id="None_Thigh_Left" class="option" style="display: inherit;">
</g></g>
<g id="Right-Thigh">
<g id="None_Thigh_Right" class="option" style="display: inherit;">
</g></g>
</g>
<g id="ThighsDecals" mask="url(#ThighsMask)">
</g>
<g id="Groin">
<g id="None_Groin" class="option" style="display: inherit;">
</g></g>
<g id="GroinDecals" mask="url(#GroinMask)">
</g>
<g id="Waist">
<g id="Accessories_Waist">
<g id="Kama" class="toggle" style="display:none"/>
<g id="Loin-Cloth" class="toggle" style="display:none"/>
<g id="Left-Holster" class="toggle" style=""><g id="Hanging-Holster_Left" class="option" style="display: inherit;">
<g id="Weapon_Hanging-Holster-Left">
<g id="Main_Weapon_Hanging-Holster-Left" fill="#A3A3A3">
</g>
<g id="Accent_Weapon_Hanging-Holster-Left" fill="#3F9DF4">
</g>
</g>
<path id="Holster_Hanging-Holster-Left" fill="#5F3E23"/>
<g id="Straps_Hanging-Holster-Left" fill="#714825">
</g>
<g id="Buckle_Hanging-Holster-Left" fill="#A3A3A3">
</g>
</g></g>
<g id="Right-Holster" class="toggle" style=""><g id="Hanging-Holster_Right" class="option" style="display: inherit;">
<g id="Weapon_Hanging-Holster-Right">
<g id="Main_Weapon_Hanging-Holster-Right" fill="#A3A3A3">
</g>
<g id="Accent_Weapon_Hanging-Holster-Right" fill="#DF9530">
</g>
</g>
<path id="Holster_Hanging-Holster-Right" fill="#5F3E23"/>
<g id="Straps_Hanging-Holster-Right" fill="#714825">
</g>
<g id="Buckle_Hanging-Holster-Right" fill="#A3A3A3">
</g>
</g></g>
<g id="Left-Trophy" class="toggle" style="display:none"/>
<g id="Right-Trophy" class="toggle" style="display:none"/>
</g>
<g id="Under-Belt"><g id="Girth-Belt" class="option" fill="#624329" style="display: inherit;">
</g>
</g>
<g id="Belt"><g id="Pouch-Belt-2" class="option" style="display: inherit;">
<path id="Main_Pouch-Belt-2" fill="#714825"/>
<rect id="Buckle_Pouch-Belt-2" x="79.37" y="87.01" width="11.28" height="9.21" fill="#A3A3A3"/>
<g id="Pouches_Pouch-Belt-2" fill="#5F3E23">
<g>
</g>
<g>
</g>
</g>
</g></g>
</g>
<g id="WaistDecals" mask="url(#WaistMask)">
</g>
<g id="Extras_Front">
<g id="Front"><g id="None_Front" class="option" style="display: inherit;">
</g>
</g>
</g>
<g id="Extras-FrontDecals" mask="url(#FrontMask)">
</g>
</g>
</svg>
